<svg xmlns="http://www.w3.org/2000/svg" viewBox="0 0 25.5 35.875"><defs><style>.a{fill:#22325d;}.b{fill:#fff;}</style></defs><title>Asset 18</title><path class="a" d="M25.5,12.75c0,7.042-12.75,23.125-12.75,23.125S0,19.792,0,12.75a12.75,12.75,0,0,1,25.5,0"/><path class="b" d="M19.0854,7.63379l-.032-.001a2.77524,2.77524,0,0,0-1.799.823,1.80963,1.80963,0,0,1-1.153.551,1.67034,1.67034,0,0,1-1.223-.569,2.5831,2.5831,0,0,0-1.793-.834,2.584,2.584,0,0,0-1.79.834,1.65457,1.65457,0,0,1-1.224.569,1.84126,1.84126,0,0,1-1.154-.553,2.75746,2.75746,0,0,0-1.796-.821l-.033.001a2.182,2.182,0,0,0-1.608.82,1.793,1.793,0,0,1-1.058.645v.691a2.39518,2.39518,0,0,0,1.571-.88,1.50923,1.50923,0,0,1,1.102-.59h.014a2.114,2.114,0,0,1,1.302.596,2.53517,2.53517,0,0,0,1.64.777,2.34357,2.34357,0,0,0,1.726-.766,1.93715,1.93715,0,0,1,1.308-.639,1.93778,1.93778,0,0,1,1.312.639,2.3496,2.3496,0,0,0,1.725.766,2.54876,2.54876,0,0,0,1.639-.774,2.09146,2.09146,0,0,1,1.303-.599h.013a1.51126,1.51126,0,0,1,1.104.59,2.393,2.393,0,0,0,1.571.88v-.691a1.793,1.793,0,0,1-1.058-.645,2.18229,2.18229,0,0,0-1.609-.82"/><path class="b" d="M19.0854,11.2168h-.032a2.77626,2.77626,0,0,0-1.799.822,1.80957,1.80957,0,0,1-1.153.551,1.67276,1.67276,0,0,1-1.223-.568,2.5845,2.5845,0,0,0-1.793-.835,2.58546,2.58546,0,0,0-1.79.835,1.65328,1.65328,0,0,1-1.224.568,1.83587,1.83587,0,0,1-1.154-.553,2.75849,2.75849,0,0,0-1.796-.82h-.033a2.182,2.182,0,0,0-1.608.82,1.79484,1.79484,0,0,1-1.058.646v.69a2.39518,2.39518,0,0,0,1.571-.88,1.50923,1.50923,0,0,1,1.102-.59h.014a2.113,2.113,0,0,1,1.302.597,2.53586,2.53586,0,0,0,1.64.776,2.33612,2.33612,0,0,0,1.726-.766,1.93122,1.93122,0,0,1,1.308-.638,1.93189,1.93189,0,0,1,1.312.638,2.3496,2.3496,0,0,0,1.725.766,2.54881,2.54881,0,0,0,1.639-.774,2.09694,2.09694,0,0,1,1.303-.599h.013a1.51126,1.51126,0,0,1,1.104.59,2.393,2.393,0,0,0,1.571.88v-.69a1.79484,1.79484,0,0,1-1.058-.646,2.18231,2.18231,0,0,0-1.609-.82"/><path class="b" d="M19.0854,14.7529l-.032-.001a2.77524,2.77524,0,0,0-1.799.823,1.80963,1.80963,0,0,1-1.153.551,1.67034,1.67034,0,0,1-1.223-.569,2.58733,2.58733,0,0,0-1.793-.834,2.58829,2.58829,0,0,0-1.79.834,1.65457,1.65457,0,0,1-1.224.569,1.84126,1.84126,0,0,1-1.154-.553,2.75746,2.75746,0,0,0-1.796-.821l-.033.001a2.182,2.182,0,0,0-1.608.82,1.793,1.793,0,0,1-1.058.645v.691a2.39524,2.39524,0,0,0,1.571-.88,1.50923,1.50923,0,0,1,1.102-.59h.014a2.114,2.114,0,0,1,1.302.596,2.53517,2.53517,0,0,0,1.64.777,2.33612,2.33612,0,0,0,1.726-.766,1.93715,1.93715,0,0,1,1.308-.639,1.93778,1.93778,0,0,1,1.312.639,2.3496,2.3496,0,0,0,1.725.766,2.54876,2.54876,0,0,0,1.639-.774,2.09694,2.09694,0,0,1,1.303-.599h.013a1.51126,1.51126,0,0,1,1.104.59,2.393,2.393,0,0,0,1.571.88v-.691a1.793,1.793,0,0,1-1.058-.645,2.18229,2.18229,0,0,0-1.609-.82"/></svg>