<svg xmlns="http://www.w3.org/2000/svg" viewBox="0 0 25.5 35.875"><defs><style>.a{fill:#22325d;}.b{fill:#fff;fill-rule:evenodd;}</style></defs><title>Asset 5</title><path class="a" d="M25.5,12.75c0,7.042-12.75,23.125-12.75,23.125S0,19.792,0,12.75a12.75,12.75,0,0,1,25.5,0"/><path class="b" d="M20.44319,10.885l-7.935-2.835a.331.331,0,0,0-.226,0l-7.936,2.835a.33774.33774,0,0,0,.054.65l3.274.809v3.1c.01.49.595.889,1.535,1.14a12.98428,12.98428,0,0,0,3.186.354,12.96941,12.96941,0,0,0,3.185-.354c.938-.25,1.523-.649,1.535-1.136l.001-.016-.001-3.088,1.483-.366V14.55a.97183.97183,0,0,0-.337.219l-.003.002a.95857.95857,0,0,0,.274,1.546.97546.97546,0,0,0-.272.191l-.002.002a.95916.95916,0,0,0-.281.676v2.035a.758.758,0,0,0,.225.539v.002a.76421.76421,0,0,0,.541.224h.386a.76536.76536,0,0,0,.54-.224l.001-.002a.76126.76126,0,0,0,.224-.539V17.186a.96071.96071,0,0,0-.28-.677l-.002-.002a.963.963,0,0,0-.273-.19.9571.9571,0,0,0,.275-1.545l-.002-.002a.95541.95541,0,0,0-.338-.22V11.81l1.136-.28a.33718.33718,0,0,0,.033-.645m-5.035,5.048a12.31231,12.31231,0,0,1-3.013.33,12.32109,12.32109,0,0,1-3.014-.33c-.638-.171-1.032-.351-1.032-.501,0-.151.394-.331,1.032-.501a12.27221,12.27221,0,0,1,3.014-.33,12.26346,12.26346,0,0,1,3.013.33c.638.17,1.033.35,1.033.501,0,.15-.395.33-1.033.501m1.033-1.331a4.2043,4.2043,0,0,0-.861-.323,12.9714,12.9714,0,0,0-3.185-.354,12.98628,12.98628,0,0,0-3.186.354,4.19392,4.19392,0,0,0-.86.323V11.754c0-.15.394-.331,1.032-.501a12.27237,12.27237,0,0,1,3.014-.33,12.26362,12.26362,0,0,1,3.013.33c.638.17,1.033.351,1.033.501Zm.666-2.95c-.075-.449-.644-.814-1.527-1.049a12.917,12.917,0,0,0-3.185-.355,12.92587,12.92587,0,0,0-3.186.355c-.882.235-1.451.6-1.527,1.049l-2.055-.508,6.768-2.418,6.768,2.418-.283.07a.31919.31919,0,0,0-.051.013Zm2.112,7.569a.0925.0925,0,0,1-.026.064.09071.09071,0,0,1-.064.026h-.386a.09346.09346,0,0,1-.064-.027l-.001.001a.08994.08994,0,0,1-.025-.064V17.186a.2859.2859,0,0,1,.081-.201l.002-.001a.28737.28737,0,0,1,.4,0l.001.001a.2825.2825,0,0,1,.082.201Zm-.083-3.573a.28391.28391,0,0,1-.402-.401l.002-.001a.26549.26549,0,0,1,.095-.062.3601.3601,0,0,0,.105.016.35324.35324,0,0,0,.104-.016.261.261,0,0,1,.096.062l.001.001a.28487.28487,0,0,1-.001.401"/></svg>