<svg xmlns="http://www.w3.org/2000/svg" viewBox="0 0 25.5 35.875"><defs><style>.a{fill:#22325d;}.b{fill:#fff;}</style></defs><title>Asset 13</title><path class="a" d="M25.5,12.75c0,7.042-12.75,23.125-12.75,23.125S0,19.792,0,12.75a12.75,12.75,0,0,1,25.5,0"/><path class="b" d="M17.50119,17.156H6.74819a.25073.25073,0,0,0-.25.25v.801a1.51079,1.51079,0,0,0,1.509,1.509h8.236a1.50994,1.50994,0,0,0,1.508-1.509v-.801a.25073.25073,0,0,0-.25-.25m-1.258,1.679h-8.236a.62757.62757,0,0,1-.627-.628v-.169h9.49v.169a.62757.62757,0,0,1-.627.628"/><path class="b" d="M12.04879,10.5264h.381a.24945.24945,0,0,0,.25-.25V7.4624a.24945.24945,0,0,0-.25-.25h-.381a.25009.25009,0,0,0-.25.25v2.814a.25009.25009,0,0,0,.25.25"/><path class="b" d="M10.48539,10.5264h.381a.24945.24945,0,0,0,.25-.25v-2.212a.24945.24945,0,0,0-.25-.25h-.381a.25009.25009,0,0,0-.25.25v2.212a.25009.25009,0,0,0,.25.25"/><path class="b" d="M13.65039,10.5264h.381a.24946.24946,0,0,0,.25-.25v-2.212a.24946.24946,0,0,0-.25-.25h-.381a.25009.25009,0,0,0-.25.25v2.212a.25009.25009,0,0,0,.25.25"/><path class="b" d="M16.89159,11.43649h-8.618a.25009.25009,0,0,0-.25.25v5.11a.25009.25009,0,0,0,.25.25h.382a.25009.25009,0,0,0,.25-.25v-4.478h6.363v4.478a.25008.25008,0,0,0,.25.25h.381a.25009.25009,0,0,0,.25-.25v-1.809h.742a1.77551,1.77551,0,0,0,0-3.551m0,2.67h-.742v-1.788h.742a.894.894,0,0,1,0,1.788"/></svg>