<svg xmlns="http://www.w3.org/2000/svg" viewBox="0 0 25.5 35.875"><defs><style>.a{fill:#22325d;}.b{fill:#fff;fill-rule:evenodd;}</style></defs><title>Asset 6</title><path class="a" d="M25.5,12.75c0,7.042-12.75,23.125-12.75,23.125S0,19.792,0,12.75a12.75,12.75,0,0,1,25.5,0"/><path class="b" d="M19.6778,12.31934a.61141.61141,0,0,0-.287-.226l-.068-.026a.32077.32077,0,0,0-.067-.033l-.674-2.643a.9048.9048,0,0,0-.332-.499.938.938,0,0,0-.57-.191H7.2148a.93546.93546,0,0,0-.935.934v5.563a.61416.61416,0,0,0,.16.412l.02.023a.61551.61551,0,0,0,.435.18h.613a1.73515,1.73515,0,0,0,.484.943l.017.016a1.73019,1.73019,0,0,0,2.91-.945h4.504a1.72951,1.72951,0,0,0,3.408,0h.339a.61629.61629,0,0,0,.614-.615v-2.546a.61294.61294,0,0,0-.106-.347m-12.808-2.684a.34658.34658,0,0,1,.345-.344h1.502v2.72H6.8698Zm3.484,5.898a1.1393,1.1393,0,0,1-1.932.819l-.013-.013a1.13572,1.13572,0,0,1-.333-.806v-.015a1.1385,1.1385,0,0,1,1.944-.79h.001a1.12933,1.12933,0,0,1,.333.804Zm.759-.296h-.194a1.72717,1.72717,0,0,0-.482-.926l.001-.001a1.73193,1.73193,0,0,0-2.925.912h-.618a.02189.02189,0,0,1-.017-.007l-.004-.004a.02513.02513,0,0,1-.004-.013v-1.392h.28a.295.295,0,0,0,0-.59h-.28v-.615h4.243Zm0-3.226H9.3078v-2.72h1.805Zm1.763,3.226h-1.173v-5.946h1.173Zm1.786-2.922v2.922h-1.196v-5.946h1.196Zm.59-3.024h2.428a.3519.3519,0,0,1,.215.069.31982.31982,0,0,1,.115.176l.634,2.483h-3.392Zm3.014,6.242a1.1395,1.1395,0,0,1-2.279.006v-.015a1.1375,1.1375,0,0,1,.334-.796v-.002a1.1407,1.1407,0,0,1,1.611.002h.001a1.13347,1.13347,0,0,1,.333.804Zm.928-2.317h-.542a.295.295,0,0,0,0,.59h.542v1.406a.02607.02607,0,0,1-.007.017.02471.02471,0,0,1-.017.008h-.34a1.72583,1.72583,0,0,0-.481-.926v-.001a1.72859,1.72859,0,0,0-2.445.001v-.001a1.72505,1.72505,0,0,0-.481.927h-.171v-2.627h3.844l.083.032a.0193.0193,0,0,1,.012.009.02581.02581,0,0,1,.003.015Z"/></svg>