<svg xmlns="http://www.w3.org/2000/svg" viewBox="0 0 25.5 35.875"><defs><style>.a{fill:#22325d;}.b{fill:#fff;}</style></defs><title>Asset 23</title><path class="a" d="M25.5,12.75c0,7.042-12.75,23.125-12.75,23.125S0,19.792,0,12.75a12.75,12.75,0,0,1,25.5,0"/><path class="b" d="M6.9127,8.2746c.274,0,.549-.005.823.001a.4642.4642,0,0,1,.489.617q-.1395.6075-.295,1.211a.257.257,0,0,0,.139.338,2.20343,2.20343,0,0,1,1.095,1.987,3.17762,3.17762,0,0,0,6.317.437c.038-.281.026-.569.073-.847a2.19,2.19,0,0,1,1.08-1.586.237.237,0,0,0,.128-.317c-.106-.392-.196-.788-.289-1.184-.095-.404.091-.652.5-.656.559-.005,1.117-.006,1.675,0a.46311.46311,0,0,1,.485.62c-.091.395-.185.791-.287,1.184a.27277.27277,0,0,0,.135.365,2.20954,2.20954,0,0,1,1.09,2.047,7.72811,7.72811,0,0,1-15.342,1.198,6.71619,6.71619,0,0,1-.108-1.327,2.21893,2.21893,0,0,1,1.103-1.929.2371.2371,0,0,0,.131-.315c-.106-.392-.196-.789-.29-1.183-.098-.417.091-.655.524-.661.275-.003.55,0,.824,0m5.414,10.91a6.71481,6.71481,0,0,0,1.241-.11,6.86194,6.86194,0,0,0,5.595-6.729,1.36279,1.36279,0,0,0-2.725-.015c-.008.217-.026.435-.054.65a4.08825,4.08825,0,0,1-8.131-.619,1.36057,1.36057,0,0,0-2.721-.017,5.85917,5.85917,0,0,0,.047.878,6.82643,6.82643,0,0,0,6.748,5.962m-5.45-10.001c-.069.074-.292-.124-.28.114a4.056,4.056,0,0,0,.153.684.13581.13581,0,0,0,.159.117c.091-.002.105-.052.12-.12.034-.155.073-.31.111-.465.082-.33.082-.33-.263-.33m10.908,0c-.07.07-.291-.118-.279.114a3.97181,3.97181,0,0,0,.153.685c.02.087.066.117.159.116.092-.002.104-.053.119-.12.035-.155.075-.311.112-.465.081-.33.081-.33-.264-.33"/></svg>