<svg xmlns="http://www.w3.org/2000/svg" viewBox="0 0 25.5 35.875"><defs><style>.a{fill:#22325d;}.b{fill:#fff;}</style></defs><title>Asset 9</title><path class="a" d="M25.5,12.75c0,7.042-12.75,23.125-12.75,23.125S0,19.792,0,12.75a12.75,12.75,0,0,1,25.5,0"/><path class="b" d="M14.70007,6.58881c.057.097.114.195.172.292.006.023.006.049.033.061l.145.3c.014.028.028.056.042.085.045.131.091.262.136.393.006.018.012.036.017.055l.087.357a.16993.16993,0,0,0,.024.12l.034.417v.149l-.058.507a.44447.44447,0,0,0-.035.18,5.10806,5.10806,0,0,1-.287.723c-.066.104-.131.21-.199.312-.027.042-.045.078.006.113l.168.231c.023.028.045.057.068.086a1.70118,1.70118,0,0,0,.209.284c.021.028.042.055.063.083.056.077.113.155.169.232.023.029.045.058.068.086a1.64823,1.64823,0,0,0,.208.283.1572.1572,0,0,0,.062.083,1.19621,1.19621,0,0,0,.172.234.3284.3284,0,0,0,.097.125,1.14508,1.14508,0,0,0,.176.245.16112.16112,0,0,0,.062.083,1.03474,1.03474,0,0,0,.156.228.32062.32062,0,0,0,.084.128c.058.093.116.188.174.281l.023.042c.056.098.114.196.17.294a.15746.15746,0,0,0,.053.091c.051.099.103.198.154.297a.15712.15712,0,0,0,.047.093c.047.1.094.201.141.302.024.051.049.102.073.152.037.088.073.176.11.264l.066.161c.035.094.07.188.105.281.016.04.032.08.049.121l.096.297a.31768.31768,0,0,0,.052.151,1.2794,1.2794,0,0,0,.093.326.16588.16588,0,0,0,.031.12,1.83181,1.83181,0,0,0,.087.358.16263.16263,0,0,0,.028.119c.023.129.046.258.069.388.008.04.017.079.026.119a1.95554,1.95554,0,0,0,.058.388c.004.051.009.102.014.153l.042.384c.003.05.006.1.008.15a2.42489,2.42489,0,0,0,.025.417c0,.05.001.1.002.15,0,.148,0,.297-.001.447,0,.05-.001.099-.001.149l-.038.478-.087.236a1.3732,1.3732,0,0,1-.621.539h-.567a1.326,1.326,0,0,1-.576-.477c-.017-.03-.035-.059-.053-.089-.031-.11-.061-.219-.092-.329v-.179c.008-.151.015-.301.022-.452.001-.058.001-.116.001-.175a1.50223,1.50223,0,0,0-.015-.418c-.003-.049-.005-.099-.007-.148a1.88778,1.88778,0,0,0-.03-.418.1913.1913,0,0,0-.017-.122,2.27144,2.27144,0,0,0-.05-.393c-.009-.048-.017-.097-.026-.146a1.8961,1.8961,0,0,0-.076-.356.18019.18019,0,0,0-.029-.119,1.18145,1.18145,0,0,0-.092-.358.15947.15947,0,0,0-.034-.117,1.32144,1.32144,0,0,0-.112-.362,3.89116,3.89116,0,0,0-.332-.81,6.43079,6.43079,0,0,1-.12,1.202q-.09453.31351-.19.627c-.036.089-.073.179-.11.268a7.22213,7.22213,0,0,1-.669,1.1,8.48564,8.48564,0,0,1-1.215,1.212,9.42028,9.42028,0,0,1-1.757,1.059h-.567a1.59667,1.59667,0,0,1-.53-.403c-.004-.02-.01-.039-.033-.046a1.464,1.464,0,0,1-.123-.327c-.001-.05-.004-.099-.006-.149a1.299,1.299,0,0,1,.174-.601,1.35588,1.35588,0,0,1,.313-.315,1.68367,1.68367,0,0,0,.167-.092,8.70965,8.70965,0,0,0,1.561-1.37,4.14934,4.14934,0,0,0,.687-.963.9306.9306,0,0,0,.133-.263,1.91626,1.91626,0,0,0,.191-.662.42332.42332,0,0,0,.021-.18,1.01133,1.01133,0,0,0-.023-.387.29009.29009,0,0,0-.031-.15.9378.9378,0,0,0-.118-.327.13788.13788,0,0,0-.049-.092,1.1602,1.1602,0,0,0-.176-.3.16324.16324,0,0,0-.057-.09,1.17355,1.17355,0,0,0-.186-.267.29791.29791,0,0,0-.091-.125.7731.7731,0,0,0-.148-.202.26745.26745,0,0,0-.093-.122,1.14252,1.14252,0,0,0-.181-.234l-.082-.106-.185-.223c-.028-.035-.056-.069-.084-.103l-.186-.225c-.028-.033-.055-.067-.084-.101a1.30736,1.30736,0,0,0-.206-.245.14069.14069,0,0,0-.066-.074l-.174-.249c-.004-.029-.005-.059-.033-.078-.021-.129-.042-.257-.063-.386.008-.06.015-.12.022-.18.032-.088.058-.178.096-.263.086-.193.065-.225-.148-.212-.046-.007-.094-.014-.141-.021-.096-.026-.193-.051-.289-.077l-.132-.063c-.089-.06-.179-.12-.269-.179-.02-.018-.04-.035-.059-.051-.067-.076-.133-.152-.215-.243-.042.051-.074.096-.112.134q-.95247.9645-1.905,1.929c-.208.209-.208.209.047.366l.085.069c.081.067.161.135.242.203.016.018.032.036.047.054.062.09.124.179.186.268.014.029.027.057.041.085a.8022.8022,0,0,1,.021.418.77685.77685,0,0,1-.319.316,1.43736,1.43736,0,0,1-.569.134l-.149-.029c-.088-.046-.176-.091-.263-.137-.031-.027-.062-.055-.092-.081-.052-.068-.105-.135-.156-.203l-.08-.134c-.04-.096-.08-.191-.12-.286-.003-.032,0-.065-.03-.088l-.087-.39-.015-.117a.23777.23777,0,0,1,.095-.23c.931-.937,1.857-1.879,2.791-2.813.116-.115.065-.236.073-.358l.027-.179a1.55388,1.55388,0,0,1,1.138-1.143c.071-.01.142-.019.213-.028a.3326.3326,0,0,0,.347-.133q.411-.4395.842-.86a.27186.27186,0,0,0,.094-.312c.006-.06.012-.119.019-.179a.85041.85041,0,0,1,.669-.745,1.02186,1.02186,0,0,1,1.077.318c.064.075.131.147.197.22a.29458.29458,0,0,0,.091.121c.051.069.101.137.151.206a.29666.29666,0,0,0,.086.127m-2.727,2.764a.30992.30992,0,0,0,0-.181.61673.61673,0,0,0-.125-.377l-.028-.039a.46643.46643,0,0,0-.269-.21.24816.24816,0,0,0-.159-.053.74107.74107,0,0,0-.447.006.63739.63739,0,0,0-.508.499.77414.77414,0,0,0-.024.447.26314.26314,0,0,0,.048.151.46744.46744,0,0,0,.184.267.2181.2181,0,0,0,.121.085.55754.55754,0,0,0,.357.095.21225.21225,0,0,0,.149,0,.70283.70283,0,0,0,.701-.69m1.687-3.041a.35017.35017,0,1,0-.507.476.22092.22092,0,0,0,.086.098c.053.067.106.134.159.202.024.031.048.063.071.094.056.088.112.176.168.263.026.044.051.088.076.132.049.107.097.214.145.32.007.033.005.07.035.095.026.099.051.198.076.297.008.048.016.094.025.142.003.14.005.28.008.42l-.032.207a2.37707,2.37707,0,0,1-.414.835,4.18489,4.18489,0,0,1-.498.49,6.77867,6.77867,0,0,1-1.012.646c-.323.173-.362.353-.124.63.019.022.042.041.063.061a.90544.90544,0,0,0,.176.204.29594.29594,0,0,0,.096.117,1.04363,1.04363,0,0,0,.176.21c.016.021.032.042.048.062a1.65308,1.65308,0,0,0,.218.267.31355.31355,0,0,0,.094.119c.053.069.105.138.157.206a.19624.19624,0,0,0,.075.093c.07.095.139.189.209.284.021.028.041.056.061.084.054.076.107.151.161.226.028.04.055.08.083.121.05.079.101.158.151.237.027.045.055.09.082.135.043.084.087.169.13.253a.26149.26149,0,0,0,.054.12c.033.109.064.218.097.327.009.04.018.08.028.12.01.139.021.278.032.417-.001.05-.001.1-.002.15-.029.173-.058.345-.087.517q-.0315.1155-.063.228a5.92244,5.92244,0,0,1-.409.84c-.106.157-.212.313-.318.47q-.17248.20251-.346.404a11.1763,11.1763,0,0,1-1.201,1.143c-.222.146-.421.324-.655.453a.29077.29077,0,0,0-.171.39c.041.136.093.26.261.276a.14218.14218,0,0,0,.151-.009,4.25,4.25,0,0,0,.985-.534,5.252,5.252,0,0,0,.914-.682,5.5564,5.5564,0,0,0,1.172-1.409,2.94927,2.94927,0,0,0,.368-.805.87228.87228,0,0,0,.074-.239,2.16677,2.16677,0,0,0,.093-.536.44186.44186,0,0,0,.013-.181,1.17943,1.17943,0,0,0-.001-.419.314.314,0,0,0-.012-.146,1.33924,1.33924,0,0,0-.057-.388.15585.15585,0,0,0-.027-.12,1.0787,1.0787,0,0,0-.09-.357.178.178,0,0,0-.034-.12c-.07-.153-.009-.233.141-.287a2.45726,2.45726,0,0,0,.309-.161c.097-.014.167-.102.27-.103.048.075.096.15.145.225a.14941.14941,0,0,0,.053.091,1.24393,1.24393,0,0,0,.156.266.15171.15171,0,0,0,.053.092c.059.115.119.231.179.346.006.026.007.055.036.069.041.09.082.179.123.268a.20669.20669,0,0,0,.056.12c.044.109.087.218.13.327.017.04.033.08.051.12a1.481,1.481,0,0,0,.117.329c.001.033-.001.067.03.089.032.11.064.218.097.327.015.052.029.102.044.154.026.108.052.215.079.323.013.052.027.103.04.154a1.71209,1.71209,0,0,0,.072.354.25859.25859,0,0,0,.027.15,1.62668,1.62668,0,0,0,.051.361c.005.049.01.098.016.146l.033.387a.38486.38486,0,0,0,.017.181l.01.416c.001.05.001.1.002.15-.003.149-.005.298-.007.447-.004.06-.009.12-.013.18a.31388.31388,0,0,0,.102.357c.313.2.603.068.623-.285.006-.094.002-.188.002-.282a1.95591,1.95591,0,0,0,.009-.446.36207.36207,0,0,0-.005-.182c-.003-.138-.007-.277-.01-.416a.25712.25712,0,0,0-.017-.152,1.38673,1.38673,0,0,0-.035-.385l-.012-.15c-.017-.119-.035-.238-.052-.357a.32448.32448,0,0,0-.029-.15,1.79259,1.79259,0,0,0-.064-.357c-.012-.052-.023-.103-.035-.154l-.081-.324c-.012-.051-.026-.103-.038-.154a1.53245,1.53245,0,0,0-.102-.325.20015.20015,0,0,0-.038-.118,1.42969,1.42969,0,0,0-.112-.33.31594.31594,0,0,0-.06-.155,1.00836,1.00836,0,0,0-.098-.26.19837.19837,0,0,0-.054-.12,1.47874,1.47874,0,0,0-.145-.331.22711.22711,0,0,0-.061-.125,1.06325,1.06325,0,0,0-.127-.26.13187.13187,0,0,0-.051-.091,1.38033,1.38033,0,0,0-.158-.296.32672.32672,0,0,0-.08-.132.93539.93539,0,0,0-.156-.256.308.308,0,0,0-.084-.132.84411.84411,0,0,0-.152-.227.2701.2701,0,0,0-.088-.125.83219.83219,0,0,0-.15-.204.28377.28377,0,0,0-.09-.121,1.07853,1.07853,0,0,0-.176-.238.30152.30152,0,0,0-.091-.124.87969.87969,0,0,0-.151-.203.30248.30248,0,0,0-.089-.12,1.1885,1.1885,0,0,0-.178-.239.2926.2926,0,0,0-.09-.122.86356.86356,0,0,0-.151-.204.29553.29553,0,0,0-.089-.12,1.19019,1.19019,0,0,0-.178-.239.30164.30164,0,0,0-.09-.122.89439.89439,0,0,0-.152-.205l-.066-.09c-.084-.088-.054-.155.021-.236a2.30576,2.30576,0,0,0,.451-.662.84032.84032,0,0,0,.1-.266,1.78328,1.78328,0,0,0,.116-.549c.001-.056.003-.111.005-.167a1.536,1.536,0,0,0-.012-.423c-.008-.048-.015-.096-.023-.144a1.343,1.343,0,0,0-.088-.357l-.039-.124a1.46815,1.46815,0,0,0-.12-.3.39921.39921,0,0,0-.074-.145.89991.89991,0,0,0-.149-.267.13979.13979,0,0,0-.056-.091.98438.98438,0,0,0-.185-.266.09365.09365,0,0,0-.05-.063,1.02,1.02,0,0,0-.22-.265.09422.09422,0,0,0-.056-.061m-.469,1.668a.93868.93868,0,0,0-.163-.295,1.72828,1.72828,0,0,0-.261-.361c-.266.251-.528.5-.753.713.107.13.205.248.302.365l.17.27.027.062.099.323.01.15a1.55488,1.55488,0,0,1-.084.51,2.6368,2.6368,0,0,1-.204.385,1.78388,1.78388,0,0,0,.435-.295,1.52716,1.52716,0,0,0,.53-.75.95438.95438,0,0,0,.058-.507.15174.15174,0,0,0-.02-.121.92373.92373,0,0,0-.102-.356c-.014-.031-.029-.062-.044-.093m-5.131,5.359a3.83747,3.83747,0,0,0-.537-.422c.089.378.261.517.537.422"/></svg>