<svg xmlns="http://www.w3.org/2000/svg" viewBox="0 0 25.5 35.875"><defs><style>.a{fill:#22325d;}.b{fill:#fff;fill-rule:evenodd;}</style></defs><title>Asset 12</title><path class="a" d="M25.5,12.75c0,7.042-12.75,23.125-12.75,23.125S0,19.792,0,12.75a12.75,12.75,0,0,1,25.5,0"/><path class="b" d="M10.86289,13.85971l-1.635-1.643-.533.023a.3164.3164,0,0,1-.258-.117l-1.762-2.174a.31726.31726,0,0,1,.022-.425l1.181-1.176a.31629.31629,0,0,1,.424-.021l2.166,1.772a.31987.31987,0,0,1,.115.282l-.024.511,1.632,1.639,1.185-1.187a2.70954,2.70954,0,0,1,3.665-2.801.31757.31757,0,0,1,.183.409.31291.31291,0,0,1-.072.112l-1.121,1.121.217.712.712.217,1.121-1.122a.31749.31749,0,0,1,.449,0,.32546.32546,0,0,1,.077.126,2.71786,2.71786,0,0,1,.113,1.522,2.68913,2.68913,0,0,1-.733,1.35l-.018.017a2.7049,2.7049,0,0,1-1.066.646,2.73514,2.73514,0,0,1-1.153.111l-.453.453,3.087,3.099v-.001l.019.02a1.02695,1.02695,0,0,1-.021,1.427l-.017.017-1.274,1.268a1.02366,1.02366,0,0,1-1.446-.004l-3.08-3.092-.472.472a2.70127,2.70127,0,0,1-.78,2.187l.001.001a2.701,2.701,0,0,1-1.35.733,2.73191,2.73191,0,0,1-1.536-.119.31786.31786,0,0,1-.183-.41.32182.32182,0,0,1,.072-.112l1.12-1.12-.216-.712-.712-.216-1.121,1.121a.31746.31746,0,0,1-.449,0,.32535.32535,0,0,1-.077-.126,2.70958,2.70958,0,0,1,.62-2.872l.018-.017a2.70752,2.70752,0,0,1,2.219-.757Zm1.578-.684a.35679.35679,0,0,1-.026.029.33145.33145,0,0,1-.028.025l-2.34,2.343a.318.318,0,0,1-.381.063,2.07546,2.07546,0,0,0-1.721.575l-.014.016a2.07,2.07,0,0,0-.563,1.032,2.12381,2.12381,0,0,0-.032.67l.857-.857.001.001a.31581.31581,0,0,1,.316-.08l1.056.323a.31238.31238,0,0,1,.211.211l.313,1.028a.31926.31926,0,0,1-.07.344l-.857.857a2.09633,2.09633,0,0,0,.67-.032,2.0738,2.0738,0,0,0,1.032-.563h.001a2.06854,2.06854,0,0,0,.583-1.783.31692.31692,0,0,1,.104-.31l3.869-3.872a.31674.31674,0,0,1,.381-.064,2.072,2.072,0,0,0,1.721-.576l.014-.015a2.0587,2.0587,0,0,0,.594-1.702l-.857.858v-.001a.3221.3221,0,0,1-.316.079l-1.056-.323a.31485.31485,0,0,1-.211-.21l-.313-1.029a.32.32,0,0,1,.069-.344l.858-.857a2.09639,2.09639,0,0,0-.67.032,2.07366,2.07366,0,0,0-1.032.563h-.001a2.04987,2.04987,0,0,0-.507.827,2.0811,2.0811,0,0,0-.076.956.31907.31907,0,0,1-.104.31Zm-.698-.197-1.731-1.739a.31344.31344,0,0,1-.092-.237l.024-.513-1.822-1.491-.775.773,1.481,1.829.508-.023a.32865.32865,0,0,1,.243.093l1.732,1.74Zm3.106,1.686-.689.691,3.354,3.376.405-.403.014-.016h.002a.392.392,0,0,0,.012-.538l-.011-.011c0-.001-2.318-2.327-3.087-3.099m-1.137,1.139-.7.7,3.082,3.093a.38633.38633,0,0,0,.274.114.39639.39639,0,0,0,.277-.113l.42-.419Z"/></svg>