<svg xmlns="http://www.w3.org/2000/svg" viewBox="0 0 25.5 35.875"><defs><style>.a{fill:#22325d;}.b{fill:#fff;fill-rule:evenodd;}</style></defs><title>Asset 16</title><path class="a" d="M25.5,12.75c0,7.042-12.75,23.125-12.75,23.125S0,19.792,0,12.75a12.75,12.75,0,0,1,25.5,0"/><path class="b" d="M6.43729,18.94211a.321.321,0,1,1,0-.642h.657v-5.325h-.065a.32051.32051,0,0,1-.319-.322v-.973h-.273a.32178.32178,0,0,1-.322-.322v-.838a.32318.32318,0,0,1,.183-.289l6.313-3.043a.31891.31891,0,0,1,.278,0l6.292,3.033a.32006.32006,0,0,1,.203.299v.838a.32094.32094,0,0,1-.321.322h-.274v.973a.31967.31967,0,0,1-.318.322h-.065v5.325h.657a.321.321,0,0,1,0,.642Zm3.476-5.967v5.325h1.427v-5.325h-.065a.32051.32051,0,0,1-.319-.322v-.973h-.659v.973a.32031.32031,0,0,1-.318.322Zm-.253-1.295h-2.313v.652h2.313Zm-.389,1.295h-1.534v5.324h1.534Zm4.888,0v5.325h1.428v-5.325h-.066a.31967.31967,0,0,1-.318-.322v-.973h-.66v.973a.31967.31967,0,0,1-.318.322Zm-.253-1.295h-2.313v.652h2.313Zm-.389,1.295h-1.534v5.324h1.534Zm4.246,0h-1.534v5.324h1.534Zm-1.923-.643h2.313v-.652h-2.313Zm-9.082-1.295h11.983v-.316l-5.991-2.888-5.992,2.888Z"/></svg>