<svg xmlns="http://www.w3.org/2000/svg" viewBox="0 0 25.5 35.875"><defs><style>.a{fill:#22325d;}.b{fill:#fefefe;}</style></defs><title>Asset 17</title><path class="a" d="M25.5,12.75c0,7.042-12.75,23.125-12.75,23.125S0,19.792,0,12.75a12.75,12.75,0,0,1,25.5,0"/><path class="b" d="M19.90311,17.1443l-.576-2.997q-.45-2.34451-.901-4.688c-.07-.363-.139-.726-.21-1.089a.23847.23847,0,1,0-.467.083.68283.68283,0,0,0,.021.102c.032.108.012.153-.117.149q-.49652-.0135-.993,0c-.117.004-.143-.03-.142-.145.004-.866.011-1.733-.005-2.599a1.18759,1.18759,0,0,0-.715-1.085.373.373,0,0,0-.115-.039.23323.23323,0,0,0-.137-.044h-2.013a.23946.23946,0,0,0-.194.099l-.006.003a1.21315,1.21315,0,0,0-.651.853,4.87,4.87,0,0,0-.025.912c-.002.094-.016.131-.124.139a1.54871,1.54871,0,0,0-1.187.645c-.542.741-1.079,1.486-1.62,2.229q-2.0025,2.748-4.004,5.498a.22261.22261,0,0,1-.213.109c-.208-.008-.418-.008-.626-.001a1.08422,1.08422,0,0,0,.036,2.168c.357,0,.714-.002,1.071.001a1.74321,1.74321,0,0,0,.388-.038,1.72508,1.72508,0,0,0,1.035-.737q2.5185-3.432,5.052-6.852c.169-.228.339-.457.529-.714v3.01c0,.209-.003.418.001.627a.20017.20017,0,0,0,.007.05v.811a.282.282,0,0,0-.007.051c-.003.053-.001.105-.001.156,0,.057-.002.114.001.17a.23.23,0,0,0,.007.046v.819a.25016.25016,0,0,0-.007.048c-.003.039-.001.078-.001.117,0,.615-.002,1.228.002,1.841.001.097-.023.133-.123.124-.108-.008-.217-.001-.326-.001a.217.217,0,0,0-.209.13.23652.23652,0,0,0,.24.34c.67.002,1.34.001,2.01.001s1.341.001,2.01,0a.23471.23471,0,0,0,.258-.233.22485.22485,0,0,0-.239-.236c-.087-.001-.098-.035-.098-.108.003-.487.002-.975.001-1.463,0-.138.004-.276,0-.414v-1.095a1.51378,1.51378,0,0,0,0-.165v-1.046a.56124.56124,0,0,0,0-.058v-.6c0-.18.001-.359.001-.539l.023.004q.1335.6375.266,1.274.4605,2.21552.923,4.431c.037.182.15.273.291.245.146-.03.21-.154.173-.337-.072-.348-.142-.698-.218-1.047-.018-.083,0-.101.083-.1q.51.00751,1.019,0c.087-.001.118.025.134.112.07.39.147.777.225,1.165a.237.237,0,1,0,.463-.092m-6.972-8.754q-2.952,3.996-5.897,7.996a1.27331,1.27331,0,0,1-1.171.589c-.126-.006-.253-.001-.379-.001-.183,0-.366.002-.549,0a.61144.61144,0,1,1,.001-1.222c.257,0,.514-.004.77.001a.31511.31511,0,0,0,.286-.147q1.7475-2.4,3.497-4.801c.748-1.027,1.492-2.056,2.243-3.082a1.116,1.116,0,0,1,.962-.459c.3.003.3,0,.3.295,0,.214-.002.427.001.641a.28426.28426,0,0,1-.064.19m.194-2.355a.77722.77722,0,0,1,.432-.721.38011.38011,0,0,0,.068-.044h1.91a.31327.31327,0,0,0,.057.032.76016.76016,0,0,1,.45.657c.016.248.001.497.005.745.001.07-.026.087-.092.087q-1.371-.003-2.742,0c-.069,0-.09-.022-.089-.089.003-.223-.001-.444.001-.667m.338,1.326c-.001-.072.019-.098.095-.098q1.2.003,2.4,0c.07,0,.09.026.089.091-.003.236-.005.47,0,.705.002.081-.034.091-.101.09-.4-.002-.801-.001-1.201-.001-.391,0-.782-.003-1.173.002-.087.001-.111-.025-.109-.11.005-.226.004-.452,0-.679m2.573,4.667v3.378h.009c0,.482,0,.964.003,1.445,0,.097-.024.126-.124.126q-1.1685-.006-2.336,0c-.112.001-.126-.042-.125-.135.003-.506.002-1.012.002-1.518h.006v-3.505h-.006q0-1.53-.003-3.061c0-.11.029-.138.137-.137q1.15048.00749,2.299,0c.121-.001.151.033.15.151q-.0045,1.629-.002,3.256Zm.746-1.711c-.069-.349-.139-.699-.217-1.047-.022-.095.012-.1.087-.099.192.004.383.002.574.002.192,0,.383.002.575-.001.063-.002.091.016.104.083.065.354.134.709.204,1.062.013.066-.009.083-.072.083q-.57448-.003-1.149,0c-.063,0-.093-.017-.106-.083m.359,1.711c-.073-.357-.149-.715-.226-1.071-.016-.075.017-.089.083-.088.191.003.382.001.574.001.182.001.365.004.547-.001.07-.002.1.019.112.09q.09752.531.204,1.061c.012.059.002.078-.059.078-.383-.002-.765-.002-1.148,0a.074.074,0,0,1-.087-.07m.347,1.676q-.102-.5175-.214-1.031c-.016-.075-.015-.108.079-.107.365.006.729.004,1.094.001.068,0,.099.017.112.089.062.346.13.691.201,1.035.017.086-.009.105-.09.103-.178-.006-.356-.002-.534-.002s-.356-.003-.534.001a.09448.09448,0,0,1-.114-.089m1.525,1.786h-.535c-.174,0-.349-.003-.523.001-.067.002-.097-.015-.112-.088-.069-.35-.144-.698-.22-1.046-.015-.072.008-.092.078-.092q.5415.00451,1.083.001c.057,0,.085.011.096.075.066.359.134.717.208,1.075.017.082-.025.074-.075.074"/></svg>