<svg xmlns="http://www.w3.org/2000/svg" viewBox="0 0 25.5 35.875"><defs><style>.a{fill:#22325d;}.b{fill:#fff;}</style></defs><title>Asset 10</title><path class="a" d="M25.5,12.75c0,7.042-12.75,23.125-12.75,23.125S0,19.792,0,12.75a12.75,12.75,0,0,1,25.5,0"/><path class="b" d="M15.7902,9.0038q.735.339,1.47.677c.09.059.181.12.272.18q.66.5625,1.32,1.124c.245.265.342.689.789.738a2.06039,2.06039,0,0,1,1.349,2.337c-.203.152.044.48-.237.602a2.85907,2.85907,0,0,1-1.001.783c-.372.128-.305.499-.401.771a6.632,6.632,0,0,0-.177.771,4.222,4.222,0,0,1-.588,1.211c-.117.098-.235.195-.352.292q-.351.138-.702.278-4.9515.0165-9.902.031a2.45253,2.45253,0,0,1-1.274-.419c-.136-.152-.272-.305-.407-.456q-.1365-.288-.272-.576a6.63608,6.63608,0,0,0-.365-1.355c-.059-.192.041-.472-.288-.514-.192-.118-.384-.237-.575-.355-.099-.145-.192-.297-.401-.29a2.74043,2.74043,0,0,1,.002-2.263q.243-.2685.488-.539c.849-.22,1.265-.969,1.848-1.513q.57-.42,1.14-.839a10.19545,10.19545,0,0,1,5.502-1.253,11.48258,11.48258,0,0,1,2.762.577m1.39,5.994a1.97384,1.97384,0,0,1-2.932-.042c-.2-.159-.271-.11-.442.041a1.92144,1.92144,0,0,1-2.822.017c-.206-.191-.275-.18-.477-.011a1.94155,1.94155,0,0,1-2.873-.039c-.162-.136-.245-.185-.395-.017-.109.123-.25.216-.369.332-.243.236-.794.075-.825.511a3.6907,3.6907,0,0,0,.24,1.078,2.15111,2.15111,0,0,0,.111.355,1.259,1.259,0,0,0,1.162.876c2.499-.009,4.999.067,7.498-.04.698.012,1.399.078,2.092.026,1.326-.099,1.277-1.269,1.518-2.147.145-.528-.505-.411-.751-.641-.12-.111-.256-.205-.378-.313-.128-.113-.245-.152-.357.014m.125-1.74c.437.041.394.422.479.697a1.24365,1.24365,0,0,0,1.355.922,1.1941,1.1941,0,0,0,1.142-1.101,1.217,1.217,0,0,0-.893-1.372,1.45171,1.45171,0,0,1-.771-.563,6.81823,6.81823,0,0,0-4.522-2.536,6.42665,6.42665,0,0,0-3.003-.13,7.23754,7.23754,0,0,0-5.045,2.809,1.06156,1.06156,0,0,1-.601.39,1.28352,1.28352,0,0,0,.177,2.518,1.27861,1.27861,0,0,0,1.423-1.006c.071-.232.008-.607.405-.586.342.018.287.344.35.571a1.28945,1.28945,0,0,0,1.296,1.025,1.23373,1.23373,0,0,0,1.264-1.047c.055-.24.052-.547.383-.542.324.005.318.301.371.548a1.24443,1.24443,0,0,0,1.272,1.04,1.28929,1.28929,0,0,0,1.293-1.033c.057-.231.002-.548.349-.561.338-.012.338.298.4.532a1.23463,1.23463,0,0,0,1.252,1.062,1.26148,1.26148,0,0,0,1.308-1.075c.058-.218.067-.456.316-.562"/><path class="b" d="M10.7051,10.1973c-.005.268-1.042,1.132-1.272,1.062-.261-.079-.403-.284-.19-.503a5.477,5.477,0,0,1,.985-.813c.223-.141.431-.012.477.254"/><path class="b" d="M12.064,10.5645c.048-.258-.109-.666.348-.646.438.019.298.417.308.678.01.273.09.665-.34.65-.433-.016-.261-.426-.316-.682"/></svg>