<svg xmlns="http://www.w3.org/2000/svg" viewBox="0 0 25.5 35.875"><defs><style>.a{fill:#22325d;}.b{fill:#fff;fill-rule:evenodd;}</style></defs><title>Asset 20</title><path class="a" d="M25.5,12.75c0,7.042-12.75,23.125-12.75,23.125S0,19.792,0,12.75a12.75,12.75,0,0,1,25.5,0"/><path class="b" d="M12.70359,14.5974a3.409,3.409,0,0,0,.014-6.818h-.07a3.40922,3.40922,0,0,0,.056,6.818m-8.036-2.337a.40818.40818,0,1,1-.687-.441,10.64349,10.64349,0,0,1,3.79-3.57,10.19279,10.19279,0,0,1,4.861-1.288l.072-.001h.038a10.20432,10.20432,0,0,1,4.972,1.289,10.64349,10.64349,0,0,1,3.79,3.57.40861.40861,0,0,1-.688.441c-.04-.062-.081-.125-.122-.186a9.79922,9.79922,0,0,1-3.336,2.952,9.75689,9.75689,0,0,1-9.232,0,9.81756,9.81756,0,0,1-3.336-2.952c-.041.061-.081.124-.122.186m15.514-.881a8.96685,8.96685,0,0,1-3.211,2.927,8.86982,8.86982,0,0,1-3.432,1.028,4.22876,4.22876,0,0,0,2.23-7.058,9.53134,9.53134,0,0,1,1.548.685,9.78907,9.78907,0,0,1,2.865,2.418m-10.581-3.063a4.23,4.23,0,0,0,2.202,7.004,8.87367,8.87367,0,0,1-3.289-1.014,8.975,8.975,0,0,1-3.211-2.927,9.79823,9.79823,0,0,1,2.864-2.418,9.48326,9.48326,0,0,1,1.434-.645m3.103,4.381a1.50471,1.50471,0,0,1-1.05-.423l-.017-.019a1.50943,1.50943,0,0,1,2.116-2.153l.018.019a1.51009,1.51009,0,0,1-.001,2.134v.001a1.49711,1.49711,0,0,1-1.066.441m2.418.91a3.41661,3.41661,0,0,1-4.802.034l-.036-.033a3.41853,3.41853,0,0,1,0-4.838l.002-.002a3.41534,3.41534,0,0,1,4.803-.032l.034.032a3.42092,3.42092,0,0,1,0,4.84Z"/></svg>