<svg xmlns="http://www.w3.org/2000/svg" viewBox="0 0 25.5 35.875"><defs><style>.a{fill:#22325d;}.b{fill:#fff;}</style></defs><title>Asset 22</title><path class="a" d="M25.5,12.75c0,7.042-12.75,23.125-12.75,23.125S0,19.792,0,12.75a12.75,12.75,0,0,1,25.5,0"/><path class="b" d="M4.1842,14.91139a1.8542,1.8542,0,0,0,.105-.547,4.48843,4.48843,0,0,1,1.166-2.468,2.97206,2.97206,0,0,1,1.769-.857.34354.34354,0,0,0,.176-.075,2.36384,2.36384,0,0,1,1.33-.466,6.83214,6.83214,0,0,1,2.002.235,4.2441,4.2441,0,0,0,1.935.015.30932.30932,0,0,0,.268-.275,5.69615,5.69615,0,0,1,1.026-2.261,3.2955,3.2955,0,0,1,3.705-1.283,6.12652,6.12652,0,0,1,1.281.494.34479.34479,0,0,1,.125.575,3.82532,3.82532,0,0,1-.304.377c-.123.125-.12.21.002.345.46.51.906,1.034,1.354,1.554a.77479.77479,0,0,1-.023,1.124c-.106.113-.213.226-.323.335a.336.336,0,0,1-.411.074,2.05354,2.05354,0,0,0-1.158-.208,1.38329,1.38329,0,0,1-1.137-.377c-.018-.015-.038-.029-.057-.042-.004-.003-.011-.001-.027-.001a.8502.8502,0,0,0-.038.31,15.947,15.947,0,0,1-.144,2.072c-.019.101.028.133.105.171q.888.4425,1.773.891a1.18109,1.18109,0,0,1,.688,1.491q-.3,1.2525-.594,2.506c-.091.383-.257.467-.621.313-.055-.023-.111-.046-.165-.069a.99721.99721,0,0,1-.669-1.255c.081-.446.154-.894.233-1.34.018-.099.009-.159-.109-.195-.354-.108-.703-.228-1.052-.35-.093-.033-.11-.019-.104.08.106,1.569.157,3.139.219,4.709.002.066.008.132.005.198a.33117.33117,0,0,1-.341.339c-.179.007-.358.006-.537.001a.7786.7786,0,0,1-.766-.65c-.124-.627-.19-1.263-.283-1.894q-.1875-1.257-.355-2.518c-.016-.113-.06-.118-.15-.102a9.02814,9.02814,0,0,1-2.049.167.20624.20624,0,0,0-.2.11q-.396.576-.801,1.143a.25.25,0,0,0-.034.261q.4365,1.2.865,2.404c.124.347-.027.55-.393.531-.18-.009-.359-.017-.537-.039a1.121,1.121,0,0,1-.969-.86c-.237-.737-.468-1.476-.701-2.215-.019-.062-.029-.127-.044-.195-.117.06-.131.146-.102.276.234,1.036.461,2.072.689,3.109.075.34-.056.503-.4.504-.216.001-.431.002-.646,0a.80832.80832,0,0,1-.787-.613q-.4095-1.66652-.805-3.338a2.03908,2.03908,0,0,1,.035-.641c.021-.274.059-.546.089-.818a.414.414,0,0,0-.013-.194,19.50307,19.50307,0,0,1-.678-2.019,8.45467,8.45467,0,0,0-.104,2.119c.015.268.043.536.061.804a.332.332,0,0,1-.47.367c-.556-.196-1.11-.4-1.665-.597a.51438.51438,0,0,1-.24-.201Zm4.873-3.729c-.137,0-.274-.005-.412.001a1.36315,1.36315,0,0,0-1.1.628,1.82916,1.82916,0,0,0-.28,1.32,9.807,9.807,0,0,0,.658,2.131.89859.89859,0,0,1,.057.437c-.033.284-.072.569-.091.854a1.87922,1.87922,0,0,0-.013.622c.148.572.279,1.147.417,1.721.111.464.221.928.335,1.391.031.126.175.18.37.129.137-.036.043-.137.03-.201q-.3075-1.416-.627-2.829a.40881.40881,0,0,1,.096-.395c.092-.103.179-.209.262-.318a7.20077,7.20077,0,0,0,.892-1.566.3442.3442,0,0,1,.57-.182,2.26891,2.26891,0,0,0,.417.204,4.91939,4.91939,0,0,0,1.542.281,8.6,8.6,0,0,0,2.186-.231.345.345,0,0,1,.469.301q.237,1.6395.47,3.279c.07.491.143.981.207,1.472.021.163.131.14.237.144.13.004.083-.092.081-.152-.012-.322-.029-.644-.044-.967-.066-1.426-.118-2.854-.233-4.278a.37275.37275,0,0,1,.067-.27,3.28936,3.28936,0,0,0,.58-1.759c.063-.613.033-1.231.105-1.843a1.27916,1.27916,0,0,1,.39-.913.33531.33531,0,0,1,.546.13.89639.89639,0,0,0,1.015.6,2.21809,2.21809,0,0,1,1.087.14c.041.015.077.046.132.013a.25309.25309,0,0,0,.07-.439q-.771-.88348-1.543-1.77c-.21-.242-.21-.354-.006-.61.074-.093.146-.188.224-.28.048-.058.037-.086-.033-.112-.194-.075-.384-.163-.58-.234a2.58978,2.58978,0,0,0-2.876.708,5.46117,5.46117,0,0,0-1.21,2.539.51135.51135,0,0,1-.38.418,4.6989,4.6989,0,0,1-2.264.151,8.5515,8.5515,0,0,0-1.82-.265m-3.201,4.761c-.016-.293-.045-.572-.047-.853a6.25949,6.25949,0,0,1,.269-2.225,1.13457,1.13457,0,0,1,.462-.64c.15-.087.176-.213.209-.379a2.43374,2.43374,0,0,0-1.258,1.097,5.45068,5.45068,0,0,0-.625,2.562.10193.10193,0,0,0,.076.12c.303.103.606.211.914.318m10.409-1.001c.052.019.084.032.118.044.551.189,1.104.376,1.655.567a.33462.33462,0,0,1,.251.427q-.153.927-.311,1.853a.36738.36738,0,0,0,.057.289c.028.039.07.079.117.07.042-.008.044-.064.053-.104.176-.736.355-1.471.527-2.208a.49415.49415,0,0,0-.275-.613c-.589-.301-1.181-.593-1.771-.89-.071-.037-.11-.043-.143.047a2.7796,2.7796,0,0,1-.278.518m-5.19,4.835c-.259-.719-.512-1.437-.779-2.149a.53614.53614,0,0,1,.078-.564c.266-.357.515-.728.778-1.102a4.25,4.25,0,0,1-.788-.234c-.104-.045-.129-.029-.135.083a4.58523,4.58523,0,0,1-.276,1.308.22241.22241,0,0,0-.018.155c.24.748.474,1.499.718,2.246a.36285.36285,0,0,0,.422.257"/></svg>