<svg xmlns="http://www.w3.org/2000/svg" viewBox="0 0 25.5 35.875"><defs><style>.a{fill:#22325d;}.b{fill:#fff;fill-rule:evenodd;}</style></defs><title>Asset 21</title><path class="a" d="M25.5,12.75c0,7.042-12.75,23.125-12.75,23.125S0,19.792,0,12.75a12.75,12.75,0,0,1,25.5,0"/><path class="b" d="M13.54,11.11389,9.337,9.5929a.35153.35153,0,0,0-.194-.015.339.339,0,0,0-.167.097l-.692.691,3.595,2.41Zm3.184.057.065-.5a.33669.33669,0,0,0-.013-.156.35327.35327,0,0,0-.086-.132l-.325-.325a.32828.32828,0,0,0-.289-.1l-.499.067-1.193,1.192-2.225,2.226-.166.165-3.171,3.765-.012.015-.214.254.51.509.251-.21.021-.018,3.762-3.168,2.391-2.392Zm-.426-1.869a1.25111,1.25111,0,0,1,.149.038,1.01244,1.01244,0,0,1,.39.244l.326.326a1.01391,1.01391,0,0,1,.245.391,1.10426,1.10426,0,0,1,.037.148l.069-.069a.48111.48111,0,0,0,.042-.047.36905.36905,0,0,0,.03-.057l.013-.026.405-.91-.001-.001a.33642.33642,0,0,0,.027-.202l-.002-.011a.34728.34728,0,0,0-.096-.171l-.139-.138a.3404.3404,0,0,0-.18-.1.34867.34867,0,0,0-.204.027l-.028.011-.909.405v.001a.44783.44783,0,0,0-.056.03.32441.32441,0,0,0-.048.043Zm-.145,3.386,1.628,4.496a1.00758,1.00758,0,0,1-.235,1.061l-.979.979a.33431.33431,0,0,1-.523-.064l-2.561-3.821-1.912,1.611.318,1.625a1.00759,1.00759,0,0,1-.023.492.98918.98918,0,0,1-.254.42l-.365.366a.33378.33378,0,0,1-.473,0l-1.212-1.211-.251.211a.334.334,0,0,1-.46-.011l-.944-.944a.33662.33662,0,0,1-.019-.454l.218-.258-1.211-1.212a.33557.33557,0,0,1,0-.473l.365-.365a1.01839,1.01839,0,0,1,.422-.255,1.00238,1.00238,0,0,1,.491-.022l1.625.318,1.611-1.912-3.821-2.562a.28216.28216,0,0,1-.065-.05.33439.33439,0,0,1,0-.472l.979-.979a1.01042,1.01042,0,0,1,.497-.274,1.02383,1.02383,0,0,1,.565.039l4.496,1.628,1.834-1.835a.9914.9914,0,0,1,.144-.117.86089.86089,0,0,1,.161-.091v.001l.911-.405.026-.014a1.01467,1.01467,0,0,1,.597-.072l.001.001a1.01072,1.01072,0,0,1,.532.28l.139.139a1.013,1.013,0,0,1,.277.513l.004.018a1.002,1.002,0,0,1-.073.598h-.001l-.405.91-.011.028a.93488.93488,0,0,1-.09.16l-.001.001a.93657.93657,0,0,1-.118.143Zm1.002,4.722-1.522-4.203-1.661,1.661,2.409,3.596.692-.691a.33634.33634,0,0,0,.096-.168.34609.34609,0,0,0-.014-.195m-6.167.031-.912.768.935.935.129-.129a.3512.3512,0,0,0,.089-.143.33784.33784,0,0,0,.006-.168Zm-2.449-.769.768-.912-1.264-.248a.334.334,0,0,0-.167.007.35013.35013,0,0,0-.143.09l-.129.128Z"/></svg>