<svg xmlns="http://www.w3.org/2000/svg" viewBox="0 0 25.5 35.875"><defs><style>.a{fill:#22325d;}.b{fill:#fff;}</style></defs><title>Asset 2</title><path class="a" d="M25.5,12.75c0,7.042-12.75,23.125-12.75,23.125S0,19.792,0,12.75a12.75,12.75,0,0,1,25.5,0"/><path class="b" d="M15.8525,7.44479c.033.09.066.182.099.272.013.054.027.107.04.16.024.124.048.247.072.371l.015.152.029.433.003.156c-.002.155-.005.31-.007.464-.002.052-.006.103-.009.155-.017.175-.034.351-.052.527-.008.062-.017.124-.026.186l-.09.534-.036.21c-.046.197-.092.393-.139.59a.574.574,0,0,0-.055.214c-.078.231-.157.461-.236.692-.034.09-.069.18-.104.27a3.17662,3.17662,0,0,1-1.083,1.316c-.179.122-.372.216-.56.32-.082.033-.164.065-.246.097-.206.053-.412.107-.619.159-.288.008-.288.008-.273.279,0,.154-.001.309-.001.464,0,.052.001.104.001.156,0,.155-.001.309-.001.464,0,.052.001.104.001.155,0,.155-.001.31-.001.465,0,.052.001.104.001.156,0,.154-.001.309-.001.464,0,.052.001.103.001.156,0,.154-.001.309-.001.464,0,.052.001.104.001.155v.496c.034.01.039-.024.048-.042a5.72231,5.72231,0,0,1,2.193-2.189c.048-.027.095-.059.142-.089a1.57093,1.57093,0,0,0,.308-.158c.269-.113.538-.227.807-.34.079-.025.159-.05.239-.074l.627-.18c.072-.014.143-.028.214-.042.122.008.239-.094.363-.017a1.45455,1.45455,0,0,0-.141.311c-.157.31-.315.62-.471.93a1.82615,1.82615,0,0,0-.185.339q-.3645.58649-.729,1.174c-.131.187-.262.373-.392.56-.296.36-.586.727-.911,1.063a9.68183,9.68183,0,0,1-1.16,1.01l-.402.249c-.1.049-.2.097-.301.144-.264.122-.264.122-.25.419,0,.052.001.104.001.156-.012.217-.012.217-.234.217a2.27607,2.27607,0,0,0-.261.002c-.125.014-.194-.018-.176-.156,0-.033-.001-.066-.001-.099.001-.144.001-.288.001-.433,0-.061-.001-.122-.001-.183,0-.146.001-.291.001-.437,0-.061-.001-.122-.001-.183,0-.146.001-.291.001-.437-.011-.122-.112-.063-.172-.085-.112-.037-.225-.073-.337-.109l-.067-.029c-.113-.06-.226-.12-.338-.18a.15186.15186,0,0,0-.094-.06c-.091-.067-.183-.134-.274-.201-.033-.025-.065-.051-.098-.077-.071-.063-.143-.125-.214-.187a.23.23,0,0,0-.096-.092c-.071-.072-.142-.145-.214-.218a.2463.2463,0,0,0-.092-.1c-.072-.084-.144-.168-.215-.253a.14331.14331,0,0,0-.067-.082c-.062-.082-.125-.163-.187-.245-.015-.022-.03-.044-.046-.066-.075-.108-.15-.216-.226-.325-.003-.019-.005-.04-.03-.045-.064-.103-.129-.206-.193-.309a.14606.14606,0,0,0-.057-.094c-.061-.109-.123-.217-.184-.326-.008-.016-.016-.032-.023-.048-.064-.121-.128-.243-.192-.364-.007-.025-.006-.054-.035-.067a1.49448,1.49448,0,0,0-.155-.322.09584.09584,0,0,0-.037-.08,1.63378,1.63378,0,0,0-.151-.343.11805.11805,0,0,0-.038-.091,1.99864,1.99864,0,0,0-.145-.356c-.004-.029-.002-.061-.032-.079a2.41471,2.41471,0,0,0-.149-.404c-.009-.035-.006-.075-.039-.101-.022-.088-.046-.177-.069-.265l.018-.022c.098.037.196.074.295.111a.125.125,0,0,0,.088.042c.105.049.209.097.314.145a.22268.22268,0,0,0,.124.062,1.457,1.457,0,0,0,.31.157.15326.15326,0,0,0,.094.054l.308.167a.14875.14875,0,0,0,.095.056c.091.055.183.109.275.165a.16765.16765,0,0,0,.094.057,1.07809,1.07809,0,0,0,.24.154.33088.33088,0,0,0,.134.09c.092.065.184.129.276.194.032.025.065.05.097.075.092.07.182.14.274.21.021.017.043.033.064.051l.216.183.128.116c.069.066.138.131.207.196.033.033.065.066.098.099l.19.208c.103.131.207.262.326.413v-.663c0-.145.001-.291.001-.436,0-.061-.001-.122-.001-.183,0-.146.001-.292.001-.437,0-.061-.001-.122-.001-.183,0-.146.001-.291.001-.437,0-.061-.001-.122-.001-.184.012-.249.049-.206-.203-.245-.03-.004-.061-.002-.092-.003a.16963.16963,0,0,0-.124-.026l-.372-.096a.22673.22673,0,0,0-.118-.044c-.095-.037-.189-.075-.283-.112a.23012.23012,0,0,0-.126-.061c-.103-.061-.206-.12-.309-.18-.031-.022-.063-.043-.094-.064-.07-.054-.141-.108-.212-.161-.043-.039-.087-.078-.13-.117l-.216-.221c-.029-.035-.059-.07-.088-.106-.06-.086-.122-.171-.182-.257-.009-.015-.018-.03-.026-.045-.063-.121-.125-.242-.187-.362-.011-.024-.022-.048-.032-.072-.041-.103-.082-.207-.123-.311-.015-.04-.031-.08-.046-.119l-.111-.345c-.009-.041-.004-.087-.039-.12-.038-.147-.076-.293-.113-.44-.006-.019-.011-.037-.016-.056a2.00767,2.00767,0,0,0-.082-.375.31888.31888,0,0,0-.03-.155,1.92772,1.92772,0,0,0-.065-.369l-.018-.159c-.017-.133-.035-.266-.052-.399-.004-.053-.009-.106-.013-.159-.008-.143-.017-.286-.026-.429a.33454.33454,0,0,0-.01-.157c.003-.146.006-.292.008-.438.002-.06.005-.12.007-.181.021-.175.043-.351.064-.526a.41217.41217,0,0,0,.036-.186,4.22465,4.22465,0,0,1,.224-.571,1.06525,1.06525,0,0,1,.92-.581c.052.001.104.002.156.002.134.021.268.041.403.062a.18663.18663,0,0,0,.124.033c.099.033.199.066.299.099a.40967.40967,0,0,0,.162.065c.047.032.088.064.142,0a2.58607,2.58607,0,0,1,1.101-.814h.403a2.19724,2.19724,0,0,1,.897.528.24236.24236,0,0,0,.094.094,2.12088,2.12088,0,0,1,.143.171c.053.079.107.068.169.015a.87892.87892,0,0,0,.247-.093c.207-.051.413-.102.62-.152l.155-.009c.134.013.268.025.402.037q.078.0315.156.06c.081.056.162.111.243.167.018.018.034.036.051.055.066.092.132.183.198.276.021.042.042.085.063.128m-6.481,9.388a.223.223,0,0,0,.068.12,1.31242,1.31242,0,0,0,.179.296c.003.021.007.041.031.048a1.52645,1.52645,0,0,0,.216.328c.004.019.008.04.033.044a1.32841,1.32841,0,0,0,.2.277.19342.19342,0,0,0,.079.095,1.1454,1.1454,0,0,0,.208.252.322.322,0,0,0,.108.118.7738.7738,0,0,0,.183.187.34788.34788,0,0,0,.127.12.91444.91444,0,0,0,.22.187.29464.29464,0,0,0,.121.092.803.803,0,0,0,.244.159,1.47769,1.47769,0,0,0,.409.199c.093.035.103-.004.098-.082a1.50813,1.50813,0,0,0-.089-.494,1.02957,1.02957,0,0,0-.128-.34.24012.24012,0,0,0-.065-.131.84711.84711,0,0,0-.156-.27.30922.30922,0,0,0-.091-.136.69465.69465,0,0,0-.155-.206.29208.29208,0,0,0-.099-.121,1.10061,1.10061,0,0,0-.201-.224l-.11-.112a.99091.99091,0,0,0-.209-.195.22722.22722,0,0,0-.1-.089,1.33958,1.33958,0,0,0-.275-.228c-.022-.017-.044-.035-.065-.052a1.074,1.074,0,0,0-.248-.186.30488.30488,0,0,0-.125-.09.94125.94125,0,0,0-.239-.162,4.156,4.156,0,0,0-.705-.426c.146.271.237.522.384.745a1.08286,1.08286,0,0,0,.152.277m3.446-9.674a.75392.75392,0,0,0-.244-.194.4632.4632,0,0,0-.498-.101,1.65549,1.65549,0,0,0-.595.477c.159.09.306.174.452.257.065.047.135.088.195.14.085.072.157.074.227-.016.213-.128.426-.255.642-.384a.76.76,0,0,0-.179-.179m-3.621.683a1.90738,1.90738,0,0,0-.125.588c-.005.063-.01.125-.014.187a1.89757,1.89757,0,0,0-.017.464l.001.156a1.84547,1.84547,0,0,0,.028.433c.003.053.007.107.011.16a1.97176,1.97176,0,0,0,.051.398,2.72685,2.72685,0,0,0,.085.531,10.16486,10.16486,0,0,1,2.448-2.542c-.122-.07-.228-.13-.334-.191a1.02,1.02,0,0,0-.279-.156c-.012-.03-.041-.031-.067-.038a1.49261,1.49261,0,0,0-.367-.176.12237.12237,0,0,0-.089-.041,1.21988,1.21988,0,0,0-.342-.125.34378.34378,0,0,0-.159-.046.84527.84527,0,0,0-.37-.044c-.251.002-.362.108-.461.442m5.698,4.308a.55508.55508,0,0,0,.072-.213,3.38044,3.38044,0,0,0,.18-.655.58165.58165,0,0,0,.053-.217,3.0337,3.0337,0,0,0,.105-.558.36056.36056,0,0,0,.027-.186,2.27747,2.27747,0,0,0,.066-.527.35739.35739,0,0,0,.018-.186,2.837,2.837,0,0,0,.024-.47v-.181a2.162,2.162,0,0,0-.023-.433.18643.18643,0,0,0-.017-.127,1.46376,1.46376,0,0,0-.091-.471l-.016-.054a.68721.68721,0,0,0-.146-.311.20073.20073,0,0,0-.128-.123.63574.63574,0,0,0-.434-.023.56923.56923,0,0,0-.217.054,2.97892,2.97892,0,0,0-.81.331,1.64118,1.64118,0,0,0-.331.176,11.91544,11.91544,0,0,0-3.017,2.514,2.16738,2.16738,0,0,0-.545,1.04.6948.6948,0,0,0-.031.217,1.11335,1.11335,0,0,0,.021.434.17352.17352,0,0,0,.024.126.94246.94246,0,0,0,.125.373.22775.22775,0,0,0,.065.13.82164.82164,0,0,0,.185.283.12816.12816,0,0,0,.066.083.79267.79267,0,0,0,.211.217.2191.2191,0,0,0,.102.088.91328.91328,0,0,0,.276.192c.01.029.036.031.06.037a1.13328,1.13328,0,0,0,.375.177.10517.10517,0,0,0,.091.035,1.29205,1.29205,0,0,0,.37.109c.051.01.102.02.152.029a1.61352,1.61352,0,0,0,.41.036c.052,0,.103,0,.156.001a1.98731,1.98731,0,0,0,.526-.062.52924.52924,0,0,0,.217-.056,2.4869,2.4869,0,0,0,1.829-1.829m-2.23,8.338c-.01.027-.035.058-.013.084.02.024.046-.001.068-.013.045-.025.092-.047.136-.073a8.59066,8.59066,0,0,0,2.631-2.725,2.61589,2.61589,0,0,0,.26-.398,7.78461,7.78461,0,0,0,.518-.899l.016-.029c-.012.001-.025.002-.037.002a1.06475,1.06475,0,0,0-.266.109,1.05108,1.05108,0,0,0-.273.111,5.06191,5.06191,0,0,0-1.122.665,4.145,4.145,0,0,0-1.056,1.057,3.83441,3.83441,0,0,0-.571,1.028.80165.80165,0,0,0-.083.241,2.65281,2.65281,0,0,0-.176.653.36576.36576,0,0,0-.032.187"/><path class="b" d="M7.6387,14.50879l-.023-.029-.001.001.042.006Z"/></svg>