<svg xmlns="http://www.w3.org/2000/svg" viewBox="0 0 25.5 35.875"><defs><style>.a{fill:#22325d;}.b{fill:#fff;fill-rule:evenodd;}</style></defs><title>Asset 14</title><path class="a" d="M25.5,12.75c0,7.042-12.75,23.125-12.75,23.125S0,19.792,0,12.75a12.75,12.75,0,0,1,25.5,0"/><path class="b" d="M18.02969,11.14369v2.118a.749.749,0,0,1-.222.532l-.003.003a.757.757,0,0,1-.531.221h-3.065v8.909a.76138.76138,0,0,1-.758.758h-2.117a.76316.76316,0,0,1-.757-.758v-8.909h-3.041a.75625.75625,0,0,1-.755-.756v-2.118a.75625.75625,0,0,1,.755-.756h3.041V7.3347a.76494.76494,0,0,1,.757-.758h2.117a.76313.76313,0,0,1,.758.758v3.053h3.065a.75368.75368,0,0,1,.534.222l.026.028a.75658.75658,0,0,1,.196.506m-.747,2.118v-2.122l-.003-.003-.006-.003h-3.438a.37237.37237,0,0,1-.373-.373V7.3347l-.003-.007-.009-.003h-2.117l-.007.001-.002.009v3.426a.37386.37386,0,0,1-.374.373h-3.415l-.006.003-.003.007v2.118l.003.006.006.004h3.415a.37321.37321,0,0,1,.374.373v9.282l.002.009.007.002h2.117l.008-.003.004-.008v-9.282a.37173.37173,0,0,1,.373-.373h3.438c.009-.003.007-.001.009-.01"/></svg>