<svg xmlns="http://www.w3.org/2000/svg" viewBox="0 0 25.5 35.875"><defs><style>.a{fill:#22325d;}.b{fill:#fff;fill-rule:evenodd;}</style></defs><title>Asset 7</title><path class="a" d="M25.5,12.75c0,7.042-12.75,23.125-12.75,23.125S0,19.792,0,12.75a12.75,12.75,0,0,1,25.5,0"/><path class="b" d="M17.79939,7.79211a6.91575,6.91575,0,1,1-11.203,2.624l.026-.069c.005-.014.01-.027.016-.04a6.912,6.912,0,0,1,1.384-2.186l-.001-.001a6.92682,6.92682,0,0,1,7.478-1.756l.004.002.014.005a6.93639,6.93639,0,0,1,2.282,1.421m-2.114-.6-.146,1.527,1.435,1.435,1.636-.157a6.24242,6.24242,0,0,0-2.925-2.805m3.221,3.472-1.771.171-.433,2.272.84,1.639,1.407-.083a.33986.33986,0,0,1,.079.004,6.262,6.262,0,0,0-.122-4.003m-.14,4.705-1.276.075-1.816,1.816-.075,1.275.048-.021a6.23689,6.23689,0,0,0,3.119-3.145m-3.869,3.428a.40011.40011,0,0,1-.004-.078l.083-1.407-1.639-.84-2.272.433-.17,1.772a6.25773,6.25773,0,0,0,4.002.12m-4.671-.416.157-1.638-1.434-1.434-1.526.146a6.23487,6.23487,0,0,0,2.803,2.926m-3.067-3.597,1.629-.156.433-2.273-.841-1.639-1.182.07a6.26028,6.26028,0,0,0-.039,3.998m.341-4.711.932-.055,1.816-1.816.055-.932a6.23805,6.23805,0,0,0-1.774,1.323h-.001a6.24169,6.24169,0,0,0-1.028,1.48m3.516-3.104-.07,1.182,1.639.839,2.272-.432.157-1.63a6.24268,6.24268,0,0,0-3.998.041m4.748,2.959-.702-.702-2.231.424-.396,2.063,1.544,1.544,2.064-.396.424-2.23Zm-.496,6.755,1.645-1.645-.764-1.49-1.99.382-.381,1.99Zm-2.177-.871.396-2.064-1.544-1.542-2.063.395-.425,2.23,1.405,1.406Zm-3.318-3.898,1.99-.381.382-1.99-1.491-.763-1.645,1.645Z"/></svg>