<svg xmlns="http://www.w3.org/2000/svg" viewBox="0 0 25.5 35.875"><defs><style>.a{fill:#22325d;}.b{fill:#fff;}</style></defs><title>Asset 11</title><path class="a" d="M25.5,12.75c0,7.042-12.75,23.125-12.75,23.125S0,19.792,0,12.75a12.75,12.75,0,0,1,25.5,0"/><path class="b" d="M5.0284,18.7717c-.524.004-.73-.131-.704-.684.037-.813-.003-1.632-.01-2.448q.006-2.33548.014-4.671l.133-.187c.223-.098,7.481-2.879,7.675-3.021.816-.055.917-.749,1.171-1.308q.2205-.2865.441-.576l.031-.037c.677-.827,1.7-.473,2.471.6l.15.249c.077.178.153.355.23.532a.73049.73049,0,0,0,.422.647c.081.175,2.068,1.914,2.918,2.678a1.16078,1.16078,0,0,1,.445.947c-.017,2.183-.023,4.367.002,6.549.006.583-.22.733-.77.73-2.767-.016-12.513-.02-14.619,0m8.688-9.738a2.31162,2.31162,0,0,0,1.966.139.631.631,0,0,0,.436-.517,2.69781,2.69781,0,0,0-1-2.335.57717.57717,0,0,0-.894.142,3.53024,3.53024,0,0,0-.782,1.882.69748.69748,0,0,0,.274.689m5.516,6.115c.342.016.438-.133.442-.455.005-.35-.091-.511-.47-.493-.576.027-9.687.01-13.664-.005-.365-.002-.493.101-.479.472.011.332.059.506.46.504,3.546-.014,12.858-.063,13.711-.023m-14.113.762c-.073.014-.112.053-.094.132-.004.508-.007,1.017-.012,1.526-.003.326.113.536.482.509.05-.001.1-.002.15-.002,1.558.007,10.142-.081,12.534-.081,1.531,0,1.516,0,1.491-1.553-.007-.424-.138-.56-.559-.552-1.335.025-10.664.021-13.992.021m14.519-4.031c.108-.607-.357-.413-.623-.414q-6.327-.015-12.652-.007c-1.295,0-1.266.002-1.301,1.296-.016.563.13.736.715.732,3.763-.029,12.238-.051,12.712-.068,1.176.076,1.177.076,1.17-1.092-.001-.15-.013-.298-.021-.447m-12.738-1.281c.013.022.027.045.04.068h12.106c-.764-.694-1.447-1.314-2.141-1.943a2.13541,2.13541,0,0,1-2.489,1.301c-.85-.116-1.56-.419-1.648-1.422-.018-.214-.101-.257-.289-.183q-2.7885,1.092-5.579,2.179"/></svg>