<svg xmlns="http://www.w3.org/2000/svg" viewBox="0 0 25.5 35.875"><defs><style>.a{fill:#22325d;}.b{fill:#fff;fill-rule:evenodd;}</style></defs><title>Asset 15</title><path class="a" d="M25.5,12.75c0,7.042-12.75,23.125-12.75,23.125S0,19.792,0,12.75a12.75,12.75,0,0,1,25.5,0"/><path class="b" d="M14.86218,18.69009a18.29255,18.29255,0,0,1-2.037-3.05c-.287.52-.585,1.024-.892,1.498a14.35506,14.35506,0,0,1-1.145,1.553,2.38519,2.38519,0,0,1-.797.635,2.552,2.552,0,0,1-1.764.186,2.60161,2.60161,0,0,1-.702-.298,2.55917,2.55917,0,0,1,.73-4.667l.016-.004a2.5198,2.5198,0,0,1,1.909.308l.081.05,1.179-2.087a22.96184,22.96184,0,0,1-1.485-4.269l-.002-.012a1.1307,1.1307,0,0,1,.278-.896.99177.99177,0,0,1,.282-.226l.023-.011a.62231.62231,0,0,1,.359-.058.50655.50655,0,0,1,.374.266l1.556,2.754,1.562-2.765a.50468.50468,0,0,1,.369-.255.63026.63026,0,0,1,.381.069.99194.99194,0,0,1,.282.226,1.13125,1.13125,0,0,1,.279.896l-.007.033a13.9397,13.9397,0,0,1-.553,1.912c-.246.702-.562,1.501-.927,2.336l1.178,2.087.081-.05a2.51866,2.51866,0,0,1,1.923-.304h.002a2.54212,2.54212,0,0,1,1.575,1.151v.001a2.55445,2.55445,0,0,1,.302,1.931v.001a2.54847,2.54847,0,0,1-1.146,1.583h-.001a2.60168,2.60168,0,0,1-.702.298,2.552,2.552,0,0,1-1.764-.186,2.38808,2.38808,0,0,1-.797-.636m-1.785-5.416a.58633.58633,0,1,0-.805-.194.591.591,0,0,0,.363.265.58081.58081,0,0,0,.442-.071m.739.147a1.232,1.232,0,0,1-1.118.582c.132.267.267.534.405.798l.012.021a18.89568,18.89568,0,0,0,2.234,3.45l.007.008a1.76652,1.76652,0,0,0,.587.469,1.88676,1.88676,0,0,0,.75.195,1.95277,1.95277,0,0,0,.571-.057,1.9121,1.9121,0,1,0-1.46-3.487c-.059.036-.11.072-.155.105a1.6353,1.6353,0,0,0-.137.116.33052.33052,0,0,1-.06.044.31917.31917,0,0,1-.437-.121Zm-2.018-1.399a1.23006,1.23006,0,0,1,.955-.482l-.203-.36-.007-.012-1.782-3.153a.374.374,0,0,0-.05.048.48212.48212,0,0,0-.122.379,20.44191,20.44191,0,0,0,1.209,3.58m-3.646,6.074.003.003.035.021a1.26674,1.26674,0,0,0,1.721-.386l.003-.002.021-.035a1.2789,1.2789,0,0,0-.421-1.753,1.26824,1.26824,0,0,0-1.745.423,1.27945,1.27945,0,0,0,.383,1.729m.09-.915a.62087.62087,0,0,0,.283.388l.002.002a.62421.62421,0,0,0,.86-.21l.002-.003a.63161.63161,0,0,0,.074-.475.62843.62843,0,1,0-1.221.298m4.22-2.221c-.148-.285-.292-.573-.431-.861-.09-.186-.179-.373-.264-.558l-1.126,1.992a.26884.26884,0,0,1-.05.071.31889.31889,0,0,1-.453.017,1.4866,1.4866,0,0,0-.137-.116c-.045-.033-.096-.069-.155-.105a1.8966,1.8966,0,0,0-1.43-.23l-.01.002a1.91575,1.91575,0,0,0-.548,3.491,1.90867,1.90867,0,0,0,1.099.281,1.88671,1.88671,0,0,0,.75-.195,1.76682,1.76682,0,0,0,.586-.467l.008-.01a13.55164,13.55164,0,0,0,1.095-1.486c.367-.565.725-1.185,1.066-1.826m.732-3.945.62,1.098c.277-.654.52-1.282.718-1.849a13.334,13.334,0,0,0,.529-1.815l.001-.007a.47906.47906,0,0,0-.123-.379.32657.32657,0,0,0-.051-.048Zm3.932,6.554a.62969.62969,0,1,0-.939-.686.6362.6362,0,0,0,.074.475l.001.003a.62564.62564,0,0,0,.861.21Zm.906-.239a1.278,1.278,0,0,0-.151-.963,1.27088,1.27088,0,0,0-2.166,1.33l.022.035.002.003a1.27133,1.27133,0,0,0,.763.536,1.25725,1.25725,0,0,0,.958-.151l.035-.021.003-.003a1.27577,1.27577,0,0,0,.534-.766"/></svg>