<svg xmlns="http://www.w3.org/2000/svg" viewBox="0 0 25.5 35.875"><defs><style>.a{fill:#22325d;}.b{fill:#fff;fill-rule:evenodd;}</style></defs><title>Asset 3</title><path class="a" d="M25.5,12.75c0,7.042-12.75,23.125-12.75,23.125S0,19.792,0,12.75a12.75,12.75,0,0,1,25.5,0"/><path class="b" d="M7.1156,7.13882a.50407.50407,0,0,0,.194-.037.51038.51038,0,0,0,.165-.109.52485.52485,0,0,0,.108-.165.50082.50082,0,0,0,.038-.194.50812.50812,0,0,0-.038-.194.51664.51664,0,0,0-.109-.164.49638.49638,0,0,0-.163-.109.53249.53249,0,0,0-.39,0,.50415.50415,0,0,0-.162.111l-.021.019a.49412.49412,0,0,0-.127.337.50959.50959,0,0,0,.037.195.51906.51906,0,0,0,.111.163l.013.014a.52093.52093,0,0,0,.149.096.5092.5092,0,0,0,.195.037m8.966,11.657a.79951.79951,0,0,0,.736-.49.8103.8103,0,0,0,0-.612.78072.78072,0,0,0-.173-.258.79336.79336,0,0,0-1.126,0,.82307.82307,0,0,0-.164.235.26252.26252,0,0,1-.019.046.78983.78983,0,0,0,.183.846l.014.015a.7953.7953,0,0,0,.243.158.784.784,0,0,0,.306.06m.578.603a1.5098,1.5098,0,0,1-1.156,0,1.54184,1.54184,0,0,1-.471-.308l-.022-.02a1.53457,1.53457,0,0,1-.328-.494,1.51138,1.51138,0,0,1-.115-.577c0-.028,0-.056.002-.083h-3.953c.002.027.003.055.003.083a1.49351,1.49351,0,0,1-.116.577,1.51849,1.51849,0,0,1-.328.494h-.001a1.54341,1.54341,0,0,1-.491.328,1.51286,1.51286,0,0,1-1.627-.308l-.022-.02a1.55364,1.55364,0,0,1-.329-.494,1.51164,1.51164,0,0,1,.329-1.648,1.50505,1.50505,0,0,1,.377-.275l-.143-1.799c-.001-.012-.002-.024-.002-.036l-.563-7.113a1.04757,1.04757,0,0,1-.122.058,1.21663,1.21663,0,0,1-.933,0,1.24038,1.24038,0,0,1-.376-.243l-.022-.022a1.22443,1.22443,0,0,1-.27-1.321,1.24521,1.24521,0,0,1,.253-.392l.017-.016a1.22881,1.22881,0,0,1,.865-.358,1.22739,1.22739,0,0,1,.467.093,1.20755,1.20755,0,0,1,.397.265l.002.001a1.23673,1.23673,0,0,1,.264.397,1.25508,1.25508,0,0,1,.093.457l.153,1.933,5.131.321h.002a.361.361,0,0,1,.047.003l5.407.337h.001l.008.001h.001l.009.001a.35572.35572,0,0,1,.144.048l.006.003.001.001.022.015.005.004.002.002.005.004.002.001.011.01.002.001.005.004.001.002.005.005.001.001a.43757.43757,0,0,1,.035.039l.004.005.001.002a.3544.3544,0,0,1,.059.131v.002a.127.127,0,0,1,.005.034l.001.008.001.001v.008l.001.018v.019l-.001.009v.009l-.001.008a.22024.22024,0,0,1-.006.037l-.695,3.663a2.25823,2.25823,0,0,1-2.234,1.852H9.0136l.104,1.319a1.51779,1.51779,0,0,1,1.058.443,1.56312,1.56312,0,0,1,.214.269h4.408a1.51272,1.51272,0,0,1,1.862-.597,1.51677,1.51677,0,0,1,.492,2.47h-.001a1.5324,1.5324,0,0,1-.491.328m-7.555-.603a.789.789,0,0,0,.564-.233h-.001a.79018.79018,0,0,0,.174-.257.80634.80634,0,0,0,.06-.306.7944.7944,0,0,0-.051-.283c-.007-.015-.014-.03-.02-.047a.77732.77732,0,0,0-.163-.234.79913.79913,0,0,0-.256-.173.811.811,0,0,0-.307-.059.795.795,0,0,0-.563,1.359l.015.015a.79055.79055,0,0,0,.548.218m-.557-9.516.409,5.169h1.71l-.057-5.04Zm2.778.174.057,4.995h1.883v-4.875Zm2.658.165v4.83h1.882l.023-2.269c.007-.808.016-1.615.025-2.44Zm2.597,4.827a1.54071,1.54071,0,0,0,1.429-1.263l.621-3.274-2.003-.125c-.008.812-.016,1.606-.024,2.401Z"/></svg>