<svg xmlns="http://www.w3.org/2000/svg" viewBox="0 0 25.5 35.875"><defs><style>.a{fill:#22325d;}.b{fill:#fff;}</style></defs><title>Asset 19</title><path class="a" d="M25.5,12.75c0,7.042-12.75,23.125-12.75,23.125S0,19.792,0,12.75a12.75,12.75,0,0,1,25.5,0"/><path class="b" d="M9.3284,13.9344a.7975.7975,0,0,0-1.595,0v2.836h1.595Zm-.493,2.343h-.609v-2.343a.30451.30451,0,0,1,.609,0Z"/><polygon class="b" points="13.763 8.347 13.073 8.347 13.073 7.602 12.58 7.602 12.58 8.347 11.946 8.347 11.946 8.839 12.58 8.839 12.58 9.86 13.073 9.86 13.073 8.839 13.763 8.839 13.763 8.347"/><path class="b" d="M20.16879,13.1181l-1.1-.66-3.242-2.02v-.109h-.083l-2.919-6.89-2.861,6.89h-.082v.109l-3.242,2.02-1.1.66.254.423.728-.438v7.302h12.665v-7.302l.728.438Zm-7.34-8.404,2.38,5.615h-4.711Zm-2.947,15.198H7.0148v-7.106l2.867-1.787Zm1.925,0v-5.712a.956.956,0,0,1,.954-.955h.132a.956.956,0,0,1,.954.955v5.712Zm3.527,0h-.994v-5.712a1.4487,1.4487,0,0,0-1.447-1.448h-.132a1.44869,1.44869,0,0,0-1.447,1.448v5.712h-.939v-9.09h4.959Zm3.36,0h-2.867v-8.893l2.867,1.787Z"/><path class="b" d="M17.9749,13.9344a.7975.7975,0,0,0-1.595,0v2.836h1.595Zm-.493,2.343h-.608v-2.343a.304.304,0,0,1,.608,0Z"/></svg>