<svg xmlns="http://www.w3.org/2000/svg" viewBox="0 0 25.5 35.875"><defs><style>.a{fill:#b5b5b5;}.b{fill:#fff;fill-rule:evenodd;}</style></defs><title>Asset 41</title><path class="a" d="M25.5,12.75c0,7.041-12.75,23.125-12.75,23.125S0,19.791,0,12.75a12.75,12.75,0,0,1,25.5,0"/><path class="b" d="M12.70359,14.5965a3.409,3.409,0,0,0,.014-6.818l-.054.001h-.016a3.40872,3.40872,0,0,0,.056,6.817m-8.036-2.337a.40818.40818,0,1,1-.687-.441,10.6434,10.6434,0,0,1,3.79-3.57,10.19267,10.19267,0,0,1,4.861-1.288h.11a10.20365,10.20365,0,0,1,4.972,1.288,10.6434,10.6434,0,0,1,3.79,3.57.40861.40861,0,0,1-.688.441c-.04-.062-.081-.125-.122-.185a9.79625,9.79625,0,0,1-3.336,2.951,9.74942,9.74942,0,0,1-9.232,0,9.81459,9.81459,0,0,1-3.336-2.951c-.041.06-.081.123-.122.185m15.514-.881a8.95781,8.95781,0,0,1-3.211,2.927,8.85279,8.85279,0,0,1-3.432,1.028,4.22876,4.22876,0,0,0,2.23-7.058,9.5322,9.5322,0,0,1,1.548.685,9.80418,9.80418,0,0,1,2.865,2.418m-10.581-3.063a4.22907,4.22907,0,0,0,2.202,7.004,8.85521,8.85521,0,0,1-3.289-1.014,8.96589,8.96589,0,0,1-3.211-2.927,9.81337,9.81337,0,0,1,2.864-2.418,9.58437,9.58437,0,0,1,1.434-.645m3.103,4.381a1.50467,1.50467,0,0,1-1.05-.423l-.017-.019a1.50907,1.50907,0,0,1,2.116-2.152l.018.018a1.51009,1.51009,0,0,1-.001,2.134v.001a1.49714,1.49714,0,0,1-1.066.441m2.418.91a3.41541,3.41541,0,0,1-4.802.035l-.036-.034a3.41732,3.41732,0,0,1,0-4.837l.002-.003a3.41534,3.41534,0,0,1,4.803-.032l.034.032a3.42092,3.42092,0,0,1,0,4.84Z"/></svg>