<svg xmlns="http://www.w3.org/2000/svg" viewBox="0 0 32.63395 35.875"><defs><style>.a{fill:#b5b5b5;}.b{fill:#866540;}.c{fill:#fff;}</style></defs><title>Asset 24</title><path class="a" d="M32.634,12.75c0,7.042-12.75,23.125-12.75,23.125S7.134,19.792,7.134,12.75a12.75,12.75,0,0,1,25.5,0"/><path class="b" d="M.11245,29.2647c-.036.05-.072.1-.108.149-.019-.089.024-.133.108-.149"/><path class="b" d="M.53925,31.7246a.10187.10187,0,0,1,.17-.003l-.17.003"/><path class="c" d="M22.98645,7.44431c.033.091.066.182.099.272.013.054.027.107.04.161.024.123.048.247.072.37l.015.152.029.434.003.155c-.002.155-.005.31-.007.465-.002.051-.006.102-.009.154-.017.176-.034.352-.052.527-.008.063-.017.124-.026.187-.03.178-.06.355-.09.533l-.036.211c-.046.196-.092.393-.139.589a.57422.57422,0,0,0-.055.215c-.078.23-.157.461-.236.691-.034.09-.069.18-.104.27a3.17659,3.17659,0,0,1-1.083,1.316c-.179.122-.372.216-.56.32-.082.033-.164.065-.246.097q-.309.081-.619.159c-.288.008-.288.008-.273.279,0,.155-.001.31-.001.465,0,.051.001.103.001.155,0,.155-.001.309-.001.465,0,.051.001.103.001.155,0,.155-.001.309-.001.465,0,.052.001.103.001.155,0,.154-.001.31-.001.464,0,.052.001.104.001.156,0,.154-.001.31-.001.464,0,.052.001.104.001.155v.496c.034.01.039-.023.048-.042a5.71966,5.71966,0,0,1,2.193-2.188c.048-.028.095-.06.142-.09a1.57234,1.57234,0,0,0,.308-.158l.807-.34c.079-.024.159-.049.239-.074.209-.06.418-.119.627-.18.072-.014.143-.027.214-.042.122.008.239-.094.363-.017a1.47771,1.47771,0,0,0-.141.311c-.157.31-.315.62-.471.93a1.82719,1.82719,0,0,0-.185.339q-.3645.5865-.729,1.174l-.392.56c-.296.36-.586.727-.911,1.063a9.59586,9.59586,0,0,1-1.16,1.01l-.402.249c-.1.049-.2.098-.301.145-.264.122-.264.121-.25.419,0,.051.001.103.001.155-.012.217-.012.217-.234.217a2.26925,2.26925,0,0,0-.261.002c-.125.014-.194-.018-.176-.156,0-.033-.001-.066-.001-.098.001-.145.001-.289.001-.434,0-.06-.001-.122-.001-.183,0-.146.001-.291.001-.437,0-.06-.001-.122-.001-.182,0-.147.001-.292.001-.438-.011-.121-.112-.062-.172-.085-.112-.036-.225-.072-.337-.108l-.067-.03c-.113-.059-.226-.12-.338-.179a.15316.15316,0,0,0-.094-.061c-.091-.066-.183-.134-.274-.2-.033-.026-.065-.052-.098-.078-.071-.062-.143-.124-.214-.187a.23008.23008,0,0,0-.096-.092c-.071-.072-.142-.145-.214-.217a.25529.25529,0,0,0-.092-.101c-.072-.084-.144-.168-.215-.252a.1424.1424,0,0,0-.067-.083c-.062-.082-.125-.163-.187-.245-.015-.022-.03-.044-.046-.066-.075-.108-.15-.216-.226-.324-.003-.02-.005-.041-.03-.046-.064-.103-.129-.206-.193-.308a.15072.15072,0,0,0-.057-.095c-.061-.108-.123-.217-.184-.326-.008-.016-.016-.031-.023-.048-.064-.121-.128-.242-.192-.364-.007-.025-.006-.054-.035-.067a1.51674,1.51674,0,0,0-.155-.322.094.094,0,0,0-.037-.079,1.59005,1.59005,0,0,0-.151-.343.11528.11528,0,0,0-.038-.091,2.00864,2.00864,0,0,0-.145-.357c-.004-.029-.002-.06-.032-.079a2.37361,2.37361,0,0,0-.149-.403c-.009-.035-.006-.075-.039-.102-.022-.088-.046-.177-.069-.265l.018-.022c.098.037.196.074.295.111a.12121.12121,0,0,0,.088.042c.105.049.209.097.314.146a.22114.22114,0,0,0,.124.061,1.41567,1.41567,0,0,0,.31.158.14735.14735,0,0,0,.094.053l.308.167a.14451.14451,0,0,0,.095.056c.091.055.183.11.275.165a.16926.16926,0,0,0,.094.058,1.07469,1.07469,0,0,0,.24.153.33338.33338,0,0,0,.134.091c.092.064.184.129.276.193.032.026.065.05.097.075.092.07.182.14.274.21l.064.051.216.183c.043.039.085.078.128.117.069.065.138.131.207.196.033.032.065.066.098.099.063.068.126.137.19.207.103.131.207.263.326.414v-.663c0-.146.001-.291.001-.437,0-.061-.001-.122-.001-.183,0-.146.001-.291.001-.437,0-.061-.001-.122-.001-.183,0-.146.001-.291.001-.437,0-.061-.001-.122-.001-.183.012-.25.049-.207-.203-.246-.03-.004-.061-.002-.092-.003a.17431.17431,0,0,0-.124-.026c-.124-.032-.248-.063-.372-.095a.22.22,0,0,0-.118-.045c-.095-.037-.189-.075-.283-.112a.22882.22882,0,0,0-.126-.06c-.103-.061-.206-.121-.309-.181-.031-.022-.063-.042-.094-.064-.07-.053-.141-.107-.212-.161-.043-.039-.087-.078-.13-.116-.072-.074-.144-.147-.216-.222-.029-.035-.059-.07-.088-.105-.06-.086-.122-.172-.182-.258-.009-.015-.018-.03-.026-.045-.063-.12-.125-.241-.187-.362-.011-.024-.022-.048-.032-.071-.041-.104-.082-.207-.123-.312-.015-.039-.031-.079-.046-.119l-.111-.345c-.009-.041-.004-.087-.039-.12-.038-.146-.076-.293-.113-.44-.006-.019-.011-.037-.016-.056a2.00819,2.00819,0,0,0-.082-.375.31488.31488,0,0,0-.03-.154,1.938,1.938,0,0,0-.065-.37l-.018-.159c-.017-.132-.035-.265-.052-.398-.004-.054-.009-.107-.013-.159-.008-.144-.017-.286-.026-.43a.32956.32956,0,0,0-.01-.156c.003-.147.006-.292.008-.439.002-.06.005-.12.007-.18.021-.176.043-.352.064-.527a.40958.40958,0,0,0,.036-.186,4.22542,4.22542,0,0,1,.224-.571,1.06518,1.06518,0,0,1,.92-.581c.052.001.104.002.156.002.134.021.268.042.403.063a.19226.19226,0,0,0,.124.033c.099.032.199.065.299.098a.39583.39583,0,0,0,.162.065c.047.032.088.065.142,0a2.60286,2.60286,0,0,1,1.101-.814h.403a2.20878,2.20878,0,0,1,.897.528.24255.24255,0,0,0,.094.094,2.12378,2.12378,0,0,1,.143.171c.053.079.107.069.169.015a.84737.84737,0,0,0,.247-.092c.207-.051.413-.102.62-.153l.155-.009c.134.013.268.026.402.037.052.021.104.041.156.061.081.055.162.11.243.166.018.019.034.037.051.055.066.092.132.183.198.276.021.042.042.085.063.128m-6.481,9.389a.22669.22669,0,0,0,.068.12,1.33469,1.33469,0,0,0,.179.296c.003.02.007.041.031.048a1.5447,1.5447,0,0,0,.216.327c.004.019.008.04.033.045a1.349,1.349,0,0,0,.2.276.20012.20012,0,0,0,.079.096,1.1932,1.1932,0,0,0,.208.252.31906.31906,0,0,0,.108.117.75588.75588,0,0,0,.183.187.35912.35912,0,0,0,.127.121.9372.9372,0,0,0,.22.187.31269.31269,0,0,0,.121.092.842.842,0,0,0,.244.159,1.50316,1.50316,0,0,0,.409.198c.093.035.103-.004.098-.082a1.50815,1.50815,0,0,0-.089-.494,1.04632,1.04632,0,0,0-.128-.34.24019.24019,0,0,0-.065-.131.85851.85851,0,0,0-.156-.27.3091.3091,0,0,0-.091-.136.69422.69422,0,0,0-.155-.206.292.292,0,0,0-.099-.121,1.15557,1.15557,0,0,0-.201-.224l-.11-.111a.991.991,0,0,0-.209-.195.22933.22933,0,0,0-.1-.09,1.3408,1.3408,0,0,0-.275-.228c-.022-.017-.044-.035-.065-.052a1.1025,1.1025,0,0,0-.248-.186.3046.3046,0,0,0-.125-.09.969.969,0,0,0-.239-.162,4.15732,4.15732,0,0,0-.705-.426c.146.272.237.523.384.745a1.08955,1.08955,0,0,0,.152.278m3.446-9.674a.72857.72857,0,0,0-.244-.194.46169.46169,0,0,0-.498-.102,1.64745,1.64745,0,0,0-.595.478c.159.089.306.173.452.256.065.047.135.088.195.14.085.072.157.074.227-.016.213-.128.426-.255.642-.384a.75489.75489,0,0,0-.179-.178m-3.621.682a1.91332,1.91332,0,0,0-.125.588l-.014.188a1.894,1.894,0,0,0-.017.464l.001.155a1.85746,1.85746,0,0,0,.028.434c.003.052.007.106.011.159a1.97257,1.97257,0,0,0,.051.398,2.72578,2.72578,0,0,0,.085.531,10.16439,10.16439,0,0,1,2.448-2.542c-.122-.07-.228-.13-.334-.191a1.01936,1.01936,0,0,0-.279-.156c-.012-.029-.041-.031-.067-.038a1.494,1.494,0,0,0-.367-.176.12132.12132,0,0,0-.089-.04,1.19283,1.19283,0,0,0-.342-.126.35681.35681,0,0,0-.159-.046.86.86,0,0,0-.37-.044c-.251.002-.362.108-.461.442m5.698,4.308a.54947.54947,0,0,0,.072-.213,3.38029,3.38029,0,0,0,.18-.655.58153.58153,0,0,0,.053-.217,3.003,3.003,0,0,0,.105-.558.35694.35694,0,0,0,.027-.185,2.29278,2.29278,0,0,0,.066-.528.35647.35647,0,0,0,.018-.186,2.83125,2.83125,0,0,0,.024-.47v-.181a2.16172,2.16172,0,0,0-.023-.433.18651.18651,0,0,0-.017-.127,1.46889,1.46889,0,0,0-.091-.471l-.016-.053a.6858.6858,0,0,0-.146-.312.20309.20309,0,0,0-.128-.123.62978.62978,0,0,0-.434-.022.54987.54987,0,0,0-.217.053,3.04252,3.04252,0,0,0-.81.331,1.69264,1.69264,0,0,0-.331.176,11.9149,11.9149,0,0,0-3.017,2.514,2.16735,2.16735,0,0,0-.545,1.04.70117.70117,0,0,0-.031.218,1.10782,1.10782,0,0,0,.021.433.17356.17356,0,0,0,.024.126.94247.94247,0,0,0,.125.373.22772.22772,0,0,0,.065.13.81249.81249,0,0,0,.185.283.12584.12584,0,0,0,.066.083.77877.77877,0,0,0,.211.217.21362.21362,0,0,0,.102.088.93438.93438,0,0,0,.276.193c.01.029.036.031.06.036a1.11443,1.11443,0,0,0,.375.177.10255.10255,0,0,0,.091.035,1.292,1.292,0,0,0,.37.109c.051.01.102.02.152.029a1.614,1.614,0,0,0,.41.036c.052,0,.103.001.156.001a1.94672,1.94672,0,0,0,.526-.062.52893.52893,0,0,0,.217-.056,2.48687,2.48687,0,0,0,1.829-1.829m-2.23,8.338c-.01.027-.035.059-.013.084.02.024.046,0,.068-.013.045-.024.092-.047.136-.073a8.58022,8.58022,0,0,0,2.631-2.725,2.61728,2.61728,0,0,0,.26-.398,7.77265,7.77265,0,0,0,.518-.898l.016-.03c-.012.001-.025.002-.037.002a1.03085,1.03085,0,0,0-.266.11.98584.98584,0,0,0-.273.111,5.06088,5.06088,0,0,0-1.122.665,4.125,4.125,0,0,0-1.056,1.056,3.8495,3.8495,0,0,0-.571,1.028.80192.80192,0,0,0-.083.241,2.65292,2.65292,0,0,0-.176.653.36757.36757,0,0,0-.032.187"/><path class="c" d="M14.77265,14.5088l-.023-.029-.001.001.042.006-.018.022"/></svg>