<svg xmlns="http://www.w3.org/2000/svg" viewBox="0 0 25.5 35.875"><defs><style>.a{fill:#b5b5b5;}.b{fill:#fff;fill-rule:evenodd;}</style></defs><title>Asset 40</title><path class="a" d="M25.5,12.75c0,7.041-12.75,23.125-12.75,23.125S0,19.791,0,12.75a12.75,12.75,0,0,1,25.5,0"/><path class="b" d="M13.54,11.1139,9.337,9.5929a.34324.34324,0,0,0-.194-.016.34675.34675,0,0,0-.167.097l-.692.691,3.595,2.41Zm3.184.056.065-.499a.33424.33424,0,0,0-.013-.156.35649.35649,0,0,0-.086-.133l-.325-.325a.32406.32406,0,0,0-.289-.099l-.499.066-1.193,1.192-2.225,2.226-.166.166-3.171,3.765-.012.014-.214.254.51.51.251-.211.021-.017,3.762-3.169,2.391-2.392Zm-.426-1.868a.95764.95764,0,0,1,.149.038.98943.98943,0,0,1,.39.244l.326.325a1.02141,1.02141,0,0,1,.245.391,1.10426,1.10426,0,0,1,.037.148l.069-.069a.48111.48111,0,0,0,.042-.047.36936.36936,0,0,0,.03-.057l.013-.025.405-.911-.001-.001a.33548.33548,0,0,0,.027-.202l-.002-.011a.356.356,0,0,0-.096-.171l-.139-.138a.32784.32784,0,0,0-.384-.073l-.028.011-.909.405v.001a.34088.34088,0,0,0-.056.031.26224.26224,0,0,0-.048.042Zm-.145,3.385,1.628,4.496a1.00642,1.00642,0,0,1-.235,1.061l-.979.98a.33468.33468,0,0,1-.473,0,.342.342,0,0,1-.05-.065l-2.561-3.821-1.912,1.611.318,1.625a1.00767,1.00767,0,0,1-.023.492.98329.98329,0,0,1-.254.42l-.365.366a.33467.33467,0,0,1-.473.001l-1.212-1.212-.251.212a.335.335,0,0,1-.46-.012l-.944-.944a.33533.33533,0,0,1-.019-.453l.218-.259-1.211-1.212a.33558.33558,0,0,1,0-.473l.365-.365a1.00427,1.00427,0,0,1,.913-.277l1.625.318,1.611-1.912-3.821-2.561a.26145.26145,0,0,1-.065-.051.33439.33439,0,0,1,0-.472l.979-.979a1.00866,1.00866,0,0,1,1.062-.235l4.496,1.628,1.834-1.834a1.07955,1.07955,0,0,1,.305-.209v.001l.911-.405.026-.013a1.00744,1.00744,0,0,1,.597-.073l.001.001a1.00545,1.00545,0,0,1,.532.281l.139.139a1.01006,1.01006,0,0,1,.277.512l.004.018a1.00522,1.00522,0,0,1-.073.599l-.001-.001-.405.91-.011.028a.944.944,0,0,1-.09.161l-.001.001a1.04412,1.04412,0,0,1-.118.143Zm1.002,4.723-1.522-4.203-1.661,1.66,2.409,3.596.692-.691a.33625.33625,0,0,0,.096-.168.34211.34211,0,0,0-.014-.194m-6.167.031-.912.767.935.935.129-.129a.3448.3448,0,0,0,.089-.143.33783.33783,0,0,0,.006-.168Zm-2.449-.77.768-.912-1.264-.247a.34612.34612,0,0,0-.167.006.353.353,0,0,0-.143.091l-.129.128Z"/></svg>