<svg xmlns="http://www.w3.org/2000/svg" viewBox="0 0 25.5 35.875"><defs><style>.a{fill:#b5b5b5;}.b{fill:#fff;fill-rule:evenodd;}</style></defs><title>Asset 36</title><path class="a" d="M25.5,12.75c0,7.041-12.75,23.125-12.75,23.125S0,19.791,0,12.75a12.75,12.75,0,0,1,25.5,0"/><path class="b" d="M14.86218,18.6901a18.34543,18.34543,0,0,1-2.037-3.051c-.287.52-.585,1.025-.892,1.498a14.25706,14.25706,0,0,1-1.145,1.553,2.38818,2.38818,0,0,1-.797.636,2.56763,2.56763,0,0,1-1.764.186,2.60494,2.60494,0,0,1-.702-.299,2.55918,2.55918,0,0,1,.73-4.667l.016-.004a2.51976,2.51976,0,0,1,1.909.308l.081.051,1.179-2.087a22.99077,22.99077,0,0,1-1.485-4.27l-.002-.012a1.12722,1.12722,0,0,1,.278-.895.95851.95851,0,0,1,.282-.226l.023-.011a.6143.6143,0,0,1,.359-.058.5027.5027,0,0,1,.374.265l1.556,2.754,1.562-2.765a.5034.5034,0,0,1,.369-.254.61613.61613,0,0,1,.381.069.95867.95867,0,0,1,.282.226,1.12777,1.12777,0,0,1,.279.895l-.007.033a13.9389,13.9389,0,0,1-.553,1.912c-.246.702-.562,1.502-.927,2.337l1.178,2.087.081-.051a2.51867,2.51867,0,0,1,1.923-.304h.002a2.5421,2.5421,0,0,1,1.575,1.151v.002a2.55446,2.55446,0,0,1,.302,1.931v.001a2.54911,2.54911,0,0,1-1.146,1.582l-.001.001a2.602,2.602,0,0,1-.702.298,2.56759,2.56759,0,0,1-1.764-.186,2.40055,2.40055,0,0,1-.797-.636m-1.785-5.417a.58849.58849,0,0,0,.194-.808.58436.58436,0,0,0-.805-.195.589.589,0,0,0,.169,1.074.58081.58081,0,0,0,.442-.071m.739.147a1.23206,1.23206,0,0,1-1.118.582c.132.267.267.534.405.798l.012.021a18.9063,18.9063,0,0,0,2.234,3.451l.007.008a1.7636,1.7636,0,0,0,.587.468,1.88675,1.88675,0,0,0,.75.195,1.91966,1.91966,0,0,0,.571-.057,1.91565,1.91565,0,0,0,1.385-1.407,1.90572,1.90572,0,0,0-2.845-2.08c-.059.037-.11.072-.155.105-.044.034-.089.072-.137.116a.39134.39134,0,0,1-.06.045.32037.32037,0,0,1-.437-.122Zm-2.018-1.399a1.23006,1.23006,0,0,1,.955-.482l-.203-.359-.007-.012-1.782-3.154a.37466.37466,0,0,0-.05.048.48213.48213,0,0,0-.122.379,20.41459,20.41459,0,0,0,1.209,3.58m-3.646,6.074.003.003.035.021a1.26774,1.26774,0,0,0,1.721-.385l.003-.003.021-.035a1.26747,1.26747,0,1,0-1.783.399m.09-.914a.62607.62607,0,0,0,.283.388l.002.001a.62421.62421,0,0,0,.86-.21l.002-.003a.6316.6316,0,0,0,.074-.475.62688.62688,0,0,0-1.146-.18.63226.63226,0,0,0-.075.479m4.22-2.221q-.222-.429-.431-.861c-.09-.187-.179-.373-.264-.559l-1.126,1.993a.28071.28071,0,0,1-.05.07.3189.3189,0,0,1-.453.017,1.66264,1.66264,0,0,0-.137-.116c-.045-.033-.096-.068-.155-.105a1.89655,1.89655,0,0,0-1.43-.23l-.01.003a1.91408,1.91408,0,1,0,1.301,3.576,1.77658,1.77658,0,0,0,.586-.466l.008-.01a13.64761,13.64761,0,0,0,1.095-1.486c.367-.566.725-1.186,1.066-1.826m.732-3.945.62,1.097c.277-.654.52-1.282.718-1.849a13.334,13.334,0,0,0,.529-1.815l.001-.007a.47907.47907,0,0,0-.123-.379.327.327,0,0,0-.051-.048Zm3.932,6.554a.63131.63131,0,0,0,.207-.867.624.624,0,0,0-.863-.208.62819.62819,0,0,0-.283.388.6355.6355,0,0,0,.074.475l.001.003a.62565.62565,0,0,0,.861.21Zm.906-.24a1.274,1.274,0,0,0-.937-1.537,1.27415,1.27415,0,0,0-1.38,1.904l.022.035.002.003a1.26714,1.26714,0,0,0,.763.536,1.25276,1.25276,0,0,0,.958-.151l.035-.021.003-.003a1.27292,1.27292,0,0,0,.534-.766"/></svg>