<svg xmlns="http://www.w3.org/2000/svg" viewBox="0 0 25.5 35.875"><defs><style>.a{fill:#b5b5b5;}.b{fill:#fff;}</style></defs><title>Asset 38</title><path class="a" d="M25.5,12.75c0,7.041-12.75,23.125-12.75,23.125S0,19.791,0,12.75a12.75,12.75,0,0,1,25.5,0"/><path class="b" d="M6.9127,8.2736c.274,0,.549-.005.823.001a.46419.46419,0,0,1,.489.617q-.1395.6075-.295,1.211a.25811.25811,0,0,0,.139.339,2.20123,2.20123,0,0,1,1.095,1.987,3.17771,3.17771,0,0,0,6.317.437c.038-.281.026-.569.073-.848a2.19186,2.19186,0,0,1,1.08-1.586.23667.23667,0,0,0,.128-.317c-.106-.392-.196-.788-.289-1.183-.095-.404.091-.653.5-.657.559-.005,1.117-.006,1.675.001a.46241.46241,0,0,1,.485.619c-.091.396-.185.791-.287,1.184a.27279.27279,0,0,0,.135.365,2.20953,2.20953,0,0,1,1.09,2.047,7.7281,7.7281,0,0,1-15.342,1.199,6.72207,6.72207,0,0,1-.108-1.327,2.2177,2.2177,0,0,1,1.103-1.929.23853.23853,0,0,0,.131-.316c-.106-.392-.196-.788-.29-1.183-.098-.417.091-.655.524-.66.275-.004.55-.001.824-.001m5.414,10.91a6.62883,6.62883,0,0,0,1.241-.11,6.86114,6.86114,0,0,0,5.595-6.729,1.36281,1.36281,0,0,0-2.725-.015q-.012.327-.054.651a4.08825,4.08825,0,0,1-8.131-.62,1.36056,1.36056,0,0,0-2.721-.016,5.853,5.853,0,0,0,.047.877,6.82559,6.82559,0,0,0,6.748,5.962m-5.45-10.001c-.069.074-.292-.123-.28.114a4.08886,4.08886,0,0,0,.153.685.13449.13449,0,0,0,.159.116c.091-.002.105-.052.12-.119.034-.156.073-.311.111-.465.082-.331.082-.331-.263-.331m10.908,0c-.07.07-.291-.118-.279.115a3.9607,3.9607,0,0,0,.153.684c.02.087.066.118.159.116.092-.001.104-.052.119-.12.035-.155.075-.31.112-.465.081-.33.081-.33-.264-.33"/></svg>