<svg xmlns="http://www.w3.org/2000/svg" viewBox="0 0 25.5 35.875"><defs><style>.a{fill:#b5b5b5;}.b{fill:#fff;}</style></defs><title>Asset 39</title><path class="a" d="M25.5,12.75c0,7.041-12.75,23.125-12.75,23.125S0,19.791,0,12.75a12.75,12.75,0,0,1,25.5,0"/><path class="b" d="M4.1842,14.9114a1.86078,1.86078,0,0,0,.105-.548,4.48228,4.48228,0,0,1,1.166-2.467,2.96764,2.96764,0,0,1,1.769-.858.34346.34346,0,0,0,.176-.075,2.364,2.364,0,0,1,1.33-.466,6.866,6.866,0,0,1,2.002.235,4.23028,4.23028,0,0,0,1.935.015.30931.30931,0,0,0,.268-.275,5.70888,5.70888,0,0,1,1.026-2.261,3.29842,3.29842,0,0,1,3.705-1.283,6.18223,6.18223,0,0,1,1.281.494.34558.34558,0,0,1,.125.576,3.9321,3.9321,0,0,1-.304.376c-.123.126-.12.211.002.345.46.511.906,1.034,1.354,1.554a.7748.7748,0,0,1-.023,1.124c-.106.113-.213.226-.323.335a.336.336,0,0,1-.411.074,2.05354,2.05354,0,0,0-1.158-.208,1.38576,1.38576,0,0,1-1.137-.376c-.018-.016-.038-.029-.057-.043-.004-.003-.011,0-.027,0a.84757.84757,0,0,0-.038.31,15.93153,15.93153,0,0,1-.144,2.071c-.019.101.028.134.105.172q.888.441,1.773.89a1.18109,1.18109,0,0,1,.688,1.491q-.3,1.2525-.594,2.506c-.091.383-.257.468-.621.313-.055-.023-.111-.045-.165-.069a.99721.99721,0,0,1-.669-1.255c.081-.445.154-.894.233-1.34.018-.099.009-.159-.109-.195-.354-.107-.703-.228-1.052-.35-.093-.032-.11-.018-.104.08.106,1.569.157,3.139.219,4.709.002.066.008.132.005.198a.33.33,0,0,1-.341.339c-.179.007-.358.006-.537.001a.77677.77677,0,0,1-.766-.65c-.124-.626-.19-1.262-.283-1.894q-.1875-1.2555-.355-2.517c-.016-.114-.06-.119-.15-.102a9.028,9.028,0,0,1-2.049.166.20624.20624,0,0,0-.2.11q-.396.576-.801,1.144a.248.248,0,0,0-.034.26q.4365,1.2.865,2.404c.124.348-.027.551-.393.532-.18-.01-.359-.017-.537-.04a1.121,1.121,0,0,1-.969-.86c-.237-.737-.468-1.476-.701-2.215-.019-.061-.029-.127-.044-.195-.117.06-.131.147-.102.276.234,1.036.461,2.073.689,3.109.075.34-.056.503-.4.504-.216.001-.431.002-.646,0a.80831.80831,0,0,1-.787-.613q-.4095-1.6665-.805-3.337a2.03583,2.03583,0,0,1,.035-.641c.021-.275.059-.547.089-.819a.41486.41486,0,0,0-.013-.194,19.48333,19.48333,0,0,1-.678-2.018,8.45253,8.45253,0,0,0-.104,2.119c.015.267.043.535.061.803a.33174.33174,0,0,1-.47.367c-.556-.196-1.11-.399-1.665-.596a.51637.51637,0,0,1-.24-.202Zm4.873-3.73c-.137,0-.274-.005-.412.001a1.36163,1.36163,0,0,0-1.1.629,1.82715,1.82715,0,0,0-.28,1.32,9.799,9.799,0,0,0,.658,2.13.89855.89855,0,0,1,.057.437c-.033.285-.072.569-.091.855a1.87374,1.87374,0,0,0-.013.621c.148.572.279,1.147.417,1.721.111.464.221.928.335,1.391.031.127.175.18.37.129.137-.036.043-.136.03-.201q-.3075-1.4145-.627-2.829a.40879.40879,0,0,1,.096-.395c.092-.103.179-.209.262-.318a7.2007,7.2007,0,0,0,.892-1.566.34456.34456,0,0,1,.57-.182,2.20684,2.20684,0,0,0,.417.204,4.89131,4.89131,0,0,0,1.542.281,8.55468,8.55468,0,0,0,2.186-.231.3455.3455,0,0,1,.469.301q.237,1.641.47,3.28c.07.491.143.981.207,1.472.021.162.131.139.237.143.13.005.083-.092.081-.152-.012-.322-.029-.644-.044-.967-.066-1.426-.118-2.853-.233-4.277a.37162.37162,0,0,1,.067-.27,3.29267,3.29267,0,0,0,.58-1.76c.063-.612.033-1.231.105-1.843a1.28085,1.28085,0,0,1,.39-.913.33575.33575,0,0,1,.546.13.89639.89639,0,0,0,1.015.6,2.21809,2.21809,0,0,1,1.087.14c.041.016.077.047.132.013a.25308.25308,0,0,0,.07-.439q-.771-.8835-1.543-1.77c-.21-.241-.21-.353-.006-.61.074-.093.146-.188.224-.28.048-.057.037-.086-.033-.112-.194-.075-.384-.163-.58-.234a2.59309,2.59309,0,0,0-2.876.708,5.46126,5.46126,0,0,0-1.21,2.539.51007.51007,0,0,1-.38.418,4.68666,4.68666,0,0,1-2.264.151,8.61625,8.61625,0,0,0-1.82-.265m-3.201,4.762c-.016-.294-.045-.573-.047-.853a6.26228,6.26228,0,0,1,.269-2.226,1.13464,1.13464,0,0,1,.462-.64c.15-.087.176-.213.209-.379a2.43365,2.43365,0,0,0-1.258,1.097,5.4546,5.4546,0,0,0-.625,2.563.10139.10139,0,0,0,.076.119c.303.103.606.211.914.319m10.409-1.002c.052.02.084.032.118.044.551.189,1.104.376,1.655.568a.33364.33364,0,0,1,.251.426q-.153.927-.311,1.853a.3666.3666,0,0,0,.057.289c.028.04.07.079.117.07.042-.008.044-.063.053-.103.176-.737.355-1.472.527-2.208a.49489.49489,0,0,0-.275-.614c-.589-.301-1.181-.593-1.771-.89-.071-.037-.11-.043-.143.047a2.74855,2.74855,0,0,1-.278.518m-5.19,4.835c-.259-.718-.512-1.437-.779-2.148a.53785.53785,0,0,1,.078-.565c.266-.357.515-.727.778-1.102a4.175,4.175,0,0,1-.788-.234c-.104-.044-.129-.029-.135.083a4.59191,4.59191,0,0,1-.276,1.309.22034.22034,0,0,0-.018.154c.24.749.474,1.499.718,2.246a.362.362,0,0,0,.422.257"/></svg>