<svg xmlns="http://www.w3.org/2000/svg" viewBox="0 0 25.5 35.875"><defs><style>.a{fill:#b5b5b5;}.b{fill:#fff;fill-rule:evenodd;}</style></defs><title>Asset 35</title><path class="a" d="M25.5,12.75c0,7.041-12.75,23.125-12.75,23.125S0,19.791,0,12.75a12.75,12.75,0,0,1,25.5,0"/><path class="b" d="M18.02969,11.14381v2.117a.75311.75311,0,0,1-.222.533l-.003.003a.75612.75612,0,0,1-.531.22h-3.065v8.909a.7614.7614,0,0,1-.758.758h-2.117a.74715.74715,0,0,1-.534-.224.75632.75632,0,0,1-.223-.534v-8.909h-3.041a.75625.75625,0,0,1-.755-.756v-2.117a.75625.75625,0,0,1,.755-.757h3.041v-3.052a.76315.76315,0,0,1,.757-.758h2.117a.7631.7631,0,0,1,.758.758v3.052h3.065a.75368.75368,0,0,1,.534.222l.026.029a.75661.75661,0,0,1,.196.506m-.747,2.117v-2.121l-.003-.003-.006-.003h-3.438a.37236.37236,0,0,1-.373-.373v-3.426l-.003-.008-.009-.003h-2.117l-.007.002-.002.009v3.426a.37386.37386,0,0,1-.374.373h-3.415l-.006.003-.003.007v2.117l.003.007.006.003h3.415a.37386.37386,0,0,1,.374.373v9.282l.002.01.007.002h2.117l.008-.004.004-.008v-9.282a.37236.37236,0,0,1,.373-.373h3.438c.009-.003.007-.001.009-.01"/></svg>