<svg xmlns="http://www.w3.org/2000/svg" viewBox="0 0 25.5 35.875"><defs><style>.a{fill:#b5b5b5;}.b{fill:#fff;fill-rule:evenodd;}</style></defs><title>Asset 33</title><path class="a" d="M25.5,12.75c0,7.041-12.75,23.125-12.75,23.125S0,19.791,0,12.75a12.75,12.75,0,0,1,25.5,0"/><path class="b" d="M10.86289,13.85871l-1.635-1.642-.533.023a.31725.31725,0,0,1-.258-.118l-1.762-2.174a.316.316,0,0,1,.022-.424l1.181-1.177a.31847.31847,0,0,1,.424-.021l2.166,1.773a.31706.31706,0,0,1,.115.281l-.024.511,1.632,1.639,1.185-1.187a2.70854,2.70854,0,0,1,2.128-2.92,2.73463,2.73463,0,0,1,1.537.119.318.318,0,0,1,.183.409.30438.30438,0,0,1-.072.112l-1.121,1.121.217.712.712.217,1.121-1.122a.3193.3193,0,0,1,.449,0,.34071.34071,0,0,1,.077.126,2.72069,2.72069,0,0,1,.113,1.523,2.69325,2.69325,0,0,1-.733,1.35l-.018.016a2.70157,2.70157,0,0,1-2.219.757l-.453.454,3.087,3.098v-.001l.019.021a1.0257,1.0257,0,0,1-.021,1.426l-.017.017-1.274,1.268a1.02487,1.02487,0,0,1-1.446-.003l-3.08-3.092-.472.472a2.70071,2.70071,0,0,1-.78,2.186l.001.001a2.7139,2.7139,0,0,1-2.886.614.31639.31639,0,0,1-.183-.409.31285.31285,0,0,1,.072-.112l1.12-1.121-.216-.711-.712-.217-1.121,1.121a.31746.31746,0,0,1-.449,0,.32181.32181,0,0,1-.077-.125,2.70958,2.70958,0,0,1,.62-2.872l.018-.017a2.704,2.704,0,0,1,2.219-.758Zm1.578-.684a.24266.24266,0,0,1-.026.029.34134.34134,0,0,1-.028.026l-2.34,2.342a.31794.31794,0,0,1-.381.063,2.072,2.072,0,0,0-1.721.576l-.014.015a2.06879,2.06879,0,0,0-.563,1.033,2.11745,2.11745,0,0,0-.032.669l.857-.856h.001a.318.318,0,0,1,.316-.08l1.056.323a.31239.31239,0,0,1,.211.211l.313,1.028a.3189.3189,0,0,1-.07.344l-.857.857a2.06538,2.06538,0,0,0,1.702-.595h.001a2.06853,2.06853,0,0,0,.583-1.783.31691.31691,0,0,1,.104-.31l3.869-3.872a.31674.31674,0,0,1,.381-.064,2.07551,2.07551,0,0,0,1.721-.575l.014-.016a2.06958,2.06958,0,0,0,.563-1.032,2.09574,2.09574,0,0,0,.031-.67l-.857.858v-.001a.3176.3176,0,0,1-.316.079l-1.056-.322a.3183.3183,0,0,1-.211-.211l-.313-1.029a.32037.32037,0,0,1,.069-.344l.858-.857a2.12521,2.12521,0,0,0-.67.032,2.07359,2.07359,0,0,0-1.032.563h-.001a2.04656,2.04656,0,0,0-.507.828,2.07679,2.07679,0,0,0-.076.955.31906.31906,0,0,1-.104.31Zm-.698-.197-1.731-1.738a.31569.31569,0,0,1-.092-.238l.024-.513-1.822-1.491-.775.773,1.481,1.829.508-.022a.32468.32468,0,0,1,.243.093l1.732,1.739Zm3.106,1.686-.689.691,3.354,3.376.405-.403.014-.016h.002a.39073.39073,0,0,0,.012-.537l-.011-.012c0-.001-2.318-2.327-3.087-3.099m-1.137,1.139-.7.7,3.082,3.093a.38629.38629,0,0,0,.274.114.39638.39638,0,0,0,.277-.113l.42-.419Z"/></svg>