<svg xmlns="http://www.w3.org/2000/svg" viewBox="0 0 25.5 35.875"><defs><style>.a{fill:#b5b5b5;}.b{fill:#fff;}</style></defs><title>Asset 43</title><path class="a" d="M25.5,12.75c0,7.041-12.75,23.125-12.75,23.125S0,19.791,0,12.75a12.75,12.75,0,0,1,25.5,0"/><path class="b" d="M19.0854,7.6328h-.032a2.77621,2.77621,0,0,0-1.799.822,1.80967,1.80967,0,0,1-1.153.551,1.67276,1.67276,0,0,1-1.223-.568,2.58442,2.58442,0,0,0-1.793-.835,2.58538,2.58538,0,0,0-1.79.835,1.65328,1.65328,0,0,1-1.224.568,1.83593,1.83593,0,0,1-1.154-.553,2.75844,2.75844,0,0,0-1.796-.82h-.033a2.182,2.182,0,0,0-1.608.82,1.79489,1.79489,0,0,1-1.058.646v.69a2.39522,2.39522,0,0,0,1.571-.88,1.50923,1.50923,0,0,1,1.102-.59h.014a2.113,2.113,0,0,1,1.302.597,2.536,2.536,0,0,0,1.64.776,2.33614,2.33614,0,0,0,1.726-.766,1.93126,1.93126,0,0,1,1.308-.638,1.93193,1.93193,0,0,1,1.312.638,2.34961,2.34961,0,0,0,1.725.766,2.54886,2.54886,0,0,0,1.639-.774,2.09694,2.09694,0,0,1,1.303-.599h.013a1.51126,1.51126,0,0,1,1.104.59,2.393,2.393,0,0,0,1.571.88v-.69a1.79489,1.79489,0,0,1-1.058-.646,2.18224,2.18224,0,0,0-1.609-.82"/><path class="b" d="M19.0854,11.2158h-.032a2.78132,2.78132,0,0,0-1.799.822,1.81373,1.81373,0,0,1-1.153.552,1.67417,1.67417,0,0,1-1.223-.569,2.58861,2.58861,0,0,0-1.793-.835,2.58958,2.58958,0,0,0-1.79.835,1.65328,1.65328,0,0,1-1.224.568,1.83058,1.83058,0,0,1-1.154-.553,2.75844,2.75844,0,0,0-1.796-.82h-.033a2.18669,2.18669,0,0,0-1.608.821,1.79793,1.79793,0,0,1-1.058.645v.69a2.39365,2.39365,0,0,0,1.571-.879,1.5024,1.5024,0,0,1,1.102-.59h.014a2.114,2.114,0,0,1,1.302.596,2.53521,2.53521,0,0,0,1.64.777,2.34362,2.34362,0,0,0,1.726-.766,1.93715,1.93715,0,0,1,1.308-.639,1.93778,1.93778,0,0,1,1.312.639,2.3534,2.3534,0,0,0,1.725.766,2.54886,2.54886,0,0,0,1.639-.774,2.0914,2.0914,0,0,1,1.303-.599h.013a1.50443,1.50443,0,0,1,1.104.59,2.39145,2.39145,0,0,0,1.571.879v-.69a1.79793,1.79793,0,0,1-1.058-.645,2.187,2.187,0,0,0-1.609-.821"/><path class="b" d="M19.0854,14.752h-.032a2.77621,2.77621,0,0,0-1.799.822,1.80967,1.80967,0,0,1-1.153.551,1.67276,1.67276,0,0,1-1.223-.568,2.58442,2.58442,0,0,0-1.793-.835,2.58538,2.58538,0,0,0-1.79.835,1.65328,1.65328,0,0,1-1.224.568,1.83593,1.83593,0,0,1-1.154-.553,2.75844,2.75844,0,0,0-1.796-.82h-.033a2.17979,2.17979,0,0,0-1.608.821,1.79793,1.79793,0,0,1-1.058.645v.69a2.39522,2.39522,0,0,0,1.571-.88,1.50923,1.50923,0,0,1,1.102-.59h.014a2.113,2.113,0,0,1,1.302.597,2.536,2.536,0,0,0,1.64.776,2.33614,2.33614,0,0,0,1.726-.766,1.9356,1.9356,0,0,1,1.308-.638,1.93625,1.93625,0,0,1,1.312.638,2.34961,2.34961,0,0,0,1.725.766,2.54964,2.54964,0,0,0,1.639-.773,2.09041,2.09041,0,0,1,1.303-.6h.013a1.51126,1.51126,0,0,1,1.104.59,2.393,2.393,0,0,0,1.571.88v-.69a1.79793,1.79793,0,0,1-1.058-.645,2.18008,2.18008,0,0,0-1.609-.821"/></svg>