<svg xmlns="http://www.w3.org/2000/svg" viewBox="0 0 25.5 35.875"><defs><style>.a{fill:#b5b5b5;}.b{fill:#fefefe;}</style></defs><title>Asset 44</title><path class="a" d="M25.5,12.75c0,7.041-12.75,23.125-12.75,23.125S0,19.791,0,12.75a12.75,12.75,0,0,1,25.5,0"/><path class="b" d="M19.90311,17.1442q-.288-1.5-.576-2.998-.45-2.343-.901-4.688c-.07-.363-.139-.726-.21-1.088a.23847.23847,0,1,0-.467.083.70993.70993,0,0,0,.021.102c.032.107.012.153-.117.149-.331-.01-.662-.009-.993,0-.117.003-.143-.031-.142-.146.004-.866.011-1.732-.005-2.598a1.189,1.189,0,0,0-.715-1.086.40143.40143,0,0,0-.115-.039.23241.23241,0,0,0-.137-.043h-2.013a.23857.23857,0,0,0-.194.098l-.006.003a1.21313,1.21313,0,0,0-.651.853,4.87231,4.87231,0,0,0-.025.912c-.002.094-.016.131-.124.139a1.54875,1.54875,0,0,0-1.187.645c-.542.741-1.079,1.486-1.62,2.229q-2.0025,2.7495-4.004,5.499a.22366.22366,0,0,1-.213.108c-.208-.008-.418-.008-.626-.001a1.08423,1.08423,0,0,0,.036,2.168c.357.001.714-.001,1.071.001a1.74321,1.74321,0,0,0,.388-.038,1.72512,1.72512,0,0,0,1.035-.737q2.5185-3.4305,5.052-6.851c.169-.229.339-.458.529-.715v3.01c0,.209-.003.418.001.627a.20023.20023,0,0,0,.007.05v.811a.28111.28111,0,0,0-.007.052c-.003.052-.001.104-.001.156,0,.057-.002.113.001.169a.22914.22914,0,0,0,.007.047v.818a.26217.26217,0,0,0-.007.048c-.003.039-.001.078-.001.118,0,.614-.002,1.227.002,1.841.001.096-.023.132-.123.124-.108-.008-.217-.002-.326-.002a.21847.21847,0,0,0-.209.13.23738.23738,0,0,0,.24.341q1.005.0015,2.01,0,1.005,0,2.01,0a.23416.23416,0,0,0,.258-.233.22409.22409,0,0,0-.239-.235c-.087-.001-.098-.036-.098-.109.003-.487.002-.975.001-1.462,0-.139.004-.277,0-.415v-1.094a1.532,1.532,0,0,0,0-.166v-1.046a.561.561,0,0,0,0-.058v-.599c0-.181.001-.36.001-.54l.023.004q.1335.6375.266,1.274.4605,2.2155.923,4.431c.037.182.15.273.291.245.146-.029.21-.154.173-.336-.072-.349-.142-.699-.218-1.048-.018-.083,0-.101.083-.1q.51.0075,1.019,0c.087-.001.118.026.134.112.07.39.147.777.225,1.166a.23688.23688,0,1,0,.463-.092m-6.972-8.754q-2.952,3.9945-5.897,7.996a1.27534,1.27534,0,0,1-1.171.589c-.126-.006-.253-.001-.379-.001-.183,0-.366.001-.549-.001a.61144.61144,0,1,1,.001-1.222c.257,0,.514-.004.77.001a.31633.31633,0,0,0,.286-.146q1.7475-2.4015,3.497-4.802c.748-1.026,1.492-2.056,2.243-3.082a1.116,1.116,0,0,1,.962-.459c.3.003.3.001.3.296,0,.213-.002.427.001.64a.28867.28867,0,0,1-.064.191m.194-2.355a.77868.77868,0,0,1,.432-.722.37959.37959,0,0,0,.068-.044h1.91a.38755.38755,0,0,0,.057.033.75775.75775,0,0,1,.45.657c.016.247.001.496.005.744.001.07-.026.088-.092.087q-1.371-.0015-2.742.001c-.069,0-.09-.022-.089-.09.003-.222-.001-.444.001-.666m.338,1.326c-.001-.072.019-.099.095-.099q1.2.0045,2.4,0c.07,0,.09.026.089.092-.003.235-.005.47,0,.704.002.081-.034.091-.101.091-.4-.003-.801-.002-1.201-.002-.391,0-.782-.002-1.173.002-.087.001-.111-.025-.109-.11.005-.226.004-.452,0-.678m2.573,4.667v3.378h.009c0,.481,0,.963.003,1.444,0,.097-.024.127-.124.126-.779-.004-1.557-.005-2.336.001-.112,0-.126-.043-.125-.135.003-.507.002-1.013.002-1.519h.006v-3.505h-.006q0-1.53-.003-3.061c0-.109.029-.137.137-.137q1.15048.0075,2.299,0c.121-.001.151.033.15.152q-.0045,1.6275-.002,3.256Zm.746-1.712c-.069-.349-.139-.699-.217-1.047-.022-.094.012-.1.087-.098.192.003.383.001.574.001.192,0,.383.002.575-.001.063-.001.091.016.104.083.065.355.134.709.204,1.062.013.067-.009.083-.072.083q-.57448-.003-1.149,0c-.063.001-.093-.017-.106-.083m.359,1.711q-.1095-.5355-.226-1.071c-.016-.075.017-.088.083-.087.191.003.382.001.574.001.182,0,.365.003.547-.002.07-.001.1.02.112.09.065.354.133.709.204,1.062.012.058.002.077-.059.077-.383-.001-.765-.001-1.148,0-.052,0-.076-.015-.087-.07m.347,1.676c-.068-.344-.14-.689-.214-1.031-.016-.075-.015-.108.079-.106.365.006.729.003,1.094.001.068-.001.099.016.112.089.062.346.13.69.201,1.034.017.086-.009.105-.09.103-.178-.005-.356-.002-.534-.002s-.356-.003-.534.002a.09514.09514,0,0,1-.114-.09m1.525,1.787c-.178-.001-.357-.001-.535-.001-.174,0-.349-.003-.523.002-.067.001-.097-.016-.112-.088-.069-.35-.144-.698-.22-1.047-.015-.071.008-.092.078-.091q.5415.003,1.083,0c.057,0,.085.012.096.075.066.359.134.717.208,1.076.017.081-.025.074-.075.074"/></svg>