<svg xmlns="http://www.w3.org/2000/svg" viewBox="0 0 25.5 35.875"><defs><style>.a{fill:#b5b5b5;}.b{fill:#fff;fill-rule:evenodd;}</style></defs><title>Asset 46</title><path class="a" d="M25.5,12.75c0,7.042-12.75,23.125-12.75,23.125S0,19.792,0,12.75a12.75,12.75,0,0,1,25.5,0"/><path class="b" d="M6.2549,10.929h3.88V7.05a.39093.39093,0,0,1,.391-.391h4.448a.39007.39007,0,0,1,.39.391v3.879h3.88a.39157.39157,0,0,1,.391.391v4.449a.38986.38986,0,0,1-.391.389h-3.88v3.88a.39008.39008,0,0,1-.39.391h-4.448a.39093.39093,0,0,1-.391-.391v-3.88h-3.88a.38965.38965,0,0,1-.39-.389V11.32a.39136.39136,0,0,1,.39-.391m4.271.782h-3.88v3.667h3.88a.39155.39155,0,0,1,.391.391v3.879h3.667V15.769a.39006.39006,0,0,1,.39-.391h3.88V11.711h-3.88a.39071.39071,0,0,1-.39-.391V7.44h-3.667v3.88a.39221.39221,0,0,1-.391.391"/></svg>