<svg xmlns="http://www.w3.org/2000/svg" viewBox="0 0 25.5 35.875"><defs><style>.a{fill:#b5b5b5;}.b{fill:#fff;fill-rule:evenodd;}</style></defs><title>Asset 25</title><path class="a" d="M25.5,12.75c0,7.042-12.75,23.125-12.75,23.125S0,19.792,0,12.75a12.75,12.75,0,0,1,25.5,0"/><path class="b" d="M7.1156,7.13831a.48612.48612,0,0,0,.194-.037.49442.49442,0,0,0,.165-.109.53151.53151,0,0,0,.108-.164.50583.50583,0,0,0,.038-.195.50508.50508,0,0,0-.147-.358.4787.4787,0,0,0-.163-.108.51933.51933,0,0,0-.39,0,.48561.48561,0,0,0-.162.11l-.021.019a.49873.49873,0,0,0-.092.148.5.5,0,0,0,.113.547l.013.015a.49727.49727,0,0,0,.149.095.49105.49105,0,0,0,.195.037m8.966,11.657a.78763.78763,0,0,0,.306-.06.80794.80794,0,0,0,.43-.43.8103.8103,0,0,0,0-.612.781.781,0,0,0-.173-.258.79336.79336,0,0,0-1.126,0,.82767.82767,0,0,0-.164.236.2882.2882,0,0,1-.019.045.8244.8244,0,0,0,.009.589.79545.79545,0,0,0,.174.257l.014.015a.79533.79533,0,0,0,.243.158.784.784,0,0,0,.306.06m.578.603a1.51,1.51,0,0,1-1.156,0,1.55823,1.55823,0,0,1-.471-.307l-.022-.021a1.52177,1.52177,0,0,1-.443-1.071c0-.028,0-.056.002-.083h-3.953c.002.027.003.055.003.083a1.49858,1.49858,0,0,1-.116.578,1.5143,1.5143,0,0,1-.328.493h-.001a1.51089,1.51089,0,0,1-1.647.328,1.546,1.546,0,0,1-.471-.307l-.022-.021a1.5171,1.5171,0,0,1-.444-1.071,1.5171,1.5171,0,0,1,.444-1.071,1.47682,1.47682,0,0,1,.377-.274l-.143-1.8c-.001-.012-.002-.024-.002-.036l-.563-7.113a1.04914,1.04914,0,0,1-.122.058,1.21651,1.21651,0,0,1-.933,0,1.24017,1.24017,0,0,1-.376-.243l-.022-.021a1.23186,1.23186,0,0,1-.265-.399,1.21232,1.21232,0,0,1-.093-.467,1.21967,1.21967,0,0,1,.341-.847l.017-.017a1.22617,1.22617,0,0,1,1.729,0l.002.001a1.23022,1.23022,0,0,1,.264.398,1.24985,1.24985,0,0,1,.093.456l.153,1.933,5.131.321h.002a.241.241,0,0,1,.047.004l5.407.336h.001l.008.001h.001l.009.001a.3715.3715,0,0,1,.144.048l.006.003.001.001.022.015.005.005.002.001.005.004.002.001.011.01.002.001.005.005.001.001.005.005.001.001a.43912.43912,0,0,1,.035.039l.004.005.001.002a.36668.36668,0,0,1,.059.132v.001a.13442.13442,0,0,1,.005.035l.001.008h.001v.009l.001.017v.019l-.001.009v.009l-.001.009a.23746.23746,0,0,1-.006.037l-.695,3.662a2.26041,2.26041,0,0,1-2.234,1.853H9.0136l.104,1.318a1.50166,1.50166,0,0,1,.566.115,1.52592,1.52592,0,0,1,.492.328,1.5619,1.5619,0,0,1,.214.269h4.408a1.51442,1.51442,0,0,1,2.354-.269,1.51764,1.51764,0,0,1,0,2.142h-.001a1.50047,1.50047,0,0,1-.491.328m-7.555-.603a.784.784,0,0,0,.306-.06.77588.77588,0,0,0,.258-.173h-.001a.7799.7799,0,0,0,.174-.257.81048.81048,0,0,0,.009-.589.48925.48925,0,0,1-.02-.046.80847.80847,0,0,0-.419-.408.811.811,0,0,0-.307-.059.80039.80039,0,0,0-.736,1.102.7925.7925,0,0,0,.173.257l.015.015a.7905.7905,0,0,0,.548.218m-.557-9.516.409,5.17h1.71l-.057-5.041Zm2.778.174.057,4.996h1.883v-4.875Zm2.658.166v4.83h1.882l.023-2.27c.007-.808.016-1.615.025-2.44Zm2.597,4.826a1.54076,1.54076,0,0,0,1.429-1.263l.621-3.273-2.003-.126c-.008.812-.016,1.606-.024,2.401Z"/></svg>