<svg xmlns="http://www.w3.org/2000/svg" viewBox="0 0 25.5 35.875"><defs><style>.a{fill:#b5b5b5;}.b{fill:#fff;fill-rule:evenodd;}</style></defs><title>Asset 27</title><path class="a" d="M25.5,12.75c0,7.042-12.75,23.125-12.75,23.125S0,19.792,0,12.75a12.75,12.75,0,0,1,25.5,0"/><path class="b" d="M20.44319,10.88451l-7.935-2.835a.33713.33713,0,0,0-.226,0l-7.936,2.835a.33761.33761,0,0,0,.054.65l3.274.809v3.101c.01.489.595.888,1.535,1.139a12.98482,12.98482,0,0,0,3.186.354,12.96994,12.96994,0,0,0,3.185-.354c.938-.25,1.523-.649,1.535-1.136l.001-.016-.001-3.088,1.483-.366v2.573a.955.955,0,0,0-.337.218l-.003.002a.957.957,0,0,0,.274,1.546.99675.99675,0,0,0-.272.191l-.002.002a.95916.95916,0,0,0-.281.676v2.035a.75625.75625,0,0,0,.225.539v.002a.76091.76091,0,0,0,.541.225h.386a.762.762,0,0,0,.54-.225l.001-.002a.75951.75951,0,0,0,.224-.539v-2.035a.95654.95654,0,0,0-.28-.676l-.002-.003a.98356.98356,0,0,0-.273-.19.95712.95712,0,0,0,.275-1.545l-.002-.002a.93936.93936,0,0,0-.338-.219v-2.741l1.136-.28a.33728.33728,0,0,0,.033-.645m-5.035,5.048a12.31241,12.31241,0,0,1-3.013.33,12.3212,12.3212,0,0,1-3.014-.33c-.638-.171-1.032-.351-1.032-.501s.394-.331,1.032-.501a12.2728,12.2728,0,0,1,3.014-.33,12.264,12.264,0,0,1,3.013.33c.638.17,1.033.351,1.033.501s-.395.33-1.033.501m1.033-1.331a4.20568,4.20568,0,0,0-.861-.322,12.917,12.917,0,0,0-3.185-.355,12.93185,12.93185,0,0,0-3.186.355,4.19528,4.19528,0,0,0-.86.322v-2.848c0-.15.394-.33,1.032-.5a12.219,12.219,0,0,1,3.014-.331,12.21026,12.21026,0,0,1,3.013.331c.638.17,1.033.35,1.033.5Zm.666-2.949c-.075-.449-.644-.815-1.527-1.05a12.92146,12.92146,0,0,0-3.185-.354,12.93033,12.93033,0,0,0-3.186.354c-.882.235-1.451.601-1.527,1.05l-2.055-.509,6.768-2.418,6.768,2.418-.283.07a.31813.31813,0,0,0-.051.013Zm2.112,7.568a.08721.08721,0,0,1-.09.09h-.386a.09245.09245,0,0,1-.064-.026l-.001.001a.09232.09232,0,0,1-.025-.065v-2.035a.28351.28351,0,0,1,.081-.2l.002-.001a.28491.28491,0,0,1,.4,0l.001.001a.28016.28016,0,0,1,.082.2Zm-.083-3.573a.28356.28356,0,0,1-.402-.4l.002-.002a.26549.26549,0,0,1,.095-.062.33013.33013,0,0,0,.105.017.32389.32389,0,0,0,.104-.017.261.261,0,0,1,.096.062l.001.002a.27666.27666,0,0,1,.082.2.28034.28034,0,0,1-.083.2"/></svg>