<svg xmlns="http://www.w3.org/2000/svg" viewBox="0 0 25.5 35.875"><defs><style>.a{fill:#b5b5b5;}.b{fill:#fff;fill-rule:evenodd;}</style></defs><title>Asset 28</title><path class="a" d="M25.5,12.75c0,7.042-12.75,23.125-12.75,23.125S0,19.792,0,12.75a12.75,12.75,0,0,1,25.5,0"/><path class="b" d="M9.2148,14.9502a.58337.58337,0,0,1,.412.995l-.023.021a.586.586,0,0,1-.389.149.58054.58054,0,0,1-.411-.993l-.001-.001a.57782.57782,0,0,1,.412-.171"/><path class="b" d="M17.1264,14.9502a.58265.58265,0,0,1,.412.995l-.023.021a.58407.58407,0,0,1-.389.149.57818.57818,0,0,1-.411-.17h-.001a.583.583,0,0,1,.412-.995"/><polyline class="b" points="17.134 15.533 17.128 15.533 17.132 15.537 17.134 15.533"/><polygon class="b" points="17.128 15.533 17.134 15.533 17.132 15.528 17.127 15.532 17.128 15.533"/><path class="b" d="M19.6778,12.3188a.61575.61575,0,0,0-.287-.225l-.068-.027a.31789.31789,0,0,0-.067-.032l-.674-2.644a.90475.90475,0,0,0-.332-.499.93808.93808,0,0,0-.57-.191H7.2148a.93718.93718,0,0,0-.935.935v5.562a.6142.6142,0,0,0,.16.412l.02.023a.61547.61547,0,0,0,.435.18h.613a1.72825,1.72825,0,0,0,.484.943l.017.017a1.73072,1.73072,0,0,0,2.91-.946h4.504a1.7295,1.7295,0,0,0,3.408,0h.339a.61458.61458,0,0,0,.614-.615v-2.546a.61543.61543,0,0,0-.106-.347M6.8698,9.6358a.34832.34832,0,0,1,.345-.345h1.502v2.72H6.8698Zm3.484,5.897a1.14,1.14,0,0,1-1.932.82l-.013-.014a1.13576,1.13576,0,0,1-.333-.806v-.015a1.13851,1.13851,0,0,1,1.944-.79h.001a1.12937,1.12937,0,0,1,.333.804Zm.759-.296h-.194a1.72708,1.72708,0,0,0-.482-.926h.001a1.73115,1.73115,0,0,0-2.925.912h-.618a.02289.02289,0,0,1-.017-.008l-.004-.004a.0251.0251,0,0,1-.004-.013v-1.391h.28a.2955.2955,0,0,0,0-.591h-.28v-.614h4.243Zm0-3.226H9.3078v-2.72h1.805Zm1.763,3.226h-1.173V9.2908h1.173Zm1.786-2.922v2.922h-1.196V9.2908h1.196Zm.59-3.024h2.428a.352.352,0,0,1,.215.069.32343.32343,0,0,1,.115.176l.634,2.484h-3.392Zm3.014,6.242a1.1395,1.1395,0,0,1-2.279.006v-.014a1.13811,1.13811,0,0,1,.334-.797v-.001a1.1395,1.1395,0,0,1,1.611.001h.001a1.13352,1.13352,0,0,1,.333.804Zm.928-2.317h-.542a.2955.2955,0,0,0,0,.591h.542v1.405a.02875.02875,0,0,1-.007.018.02344.02344,0,0,1-.017.007h-.34a1.72919,1.72919,0,0,0-3.407,0h-.171v-2.626h3.844l.083.032a.02284.02284,0,0,1,.012.008.0282.0282,0,0,1,.003.015Z"/></svg>