<svg xmlns="http://www.w3.org/2000/svg" viewBox="0 0 25.5 35.87499"><defs><style>.a{fill:#b5b5b5;}.b{fill:#fff;}</style></defs><title>Asset 30</title><path class="a" d="M25.5,12.75c0,7.042-12.75,23.125-12.75,23.125S0,19.792,0,12.75a12.75,12.75,0,0,1,25.5,0"/><path class="b" d="M14.70007,6.58879c.057.098.114.195.172.293.006.022.006.049.033.06.049.1.097.2.145.3.014.029.028.057.042.085.045.131.091.262.136.393.006.018.012.037.017.055.029.119.058.238.087.358a.1673.1673,0,0,0,.024.119c.011.139.022.278.034.418v.148c-.019.169-.038.338-.058.508a.43973.43973,0,0,0-.035.179,5.10878,5.10878,0,0,1-.287.723c-.066.104-.131.21-.199.313-.027.041-.045.077.006.112q.084.117.168.231c.023.029.045.058.068.086a1.702,1.702,0,0,0,.209.284c.021.028.042.056.063.083.056.077.113.155.169.232.023.029.045.058.068.086a1.65613,1.65613,0,0,0,.208.284.15876.15876,0,0,0,.062.082,1.16728,1.16728,0,0,0,.172.234.32442.32442,0,0,0,.097.126,1.11513,1.11513,0,0,0,.176.244.15717.15717,0,0,0,.062.083,1.03474,1.03474,0,0,0,.156.228.32427.32427,0,0,0,.084.129l.174.281.023.042c.056.097.114.195.17.294a.155.155,0,0,0,.053.09c.051.099.103.198.154.297a.15434.15434,0,0,0,.047.093c.047.101.094.201.141.302.024.051.049.102.073.153.037.087.073.175.11.263.022.054.044.107.066.162.035.093.07.187.105.28.016.04.032.08.049.121l.096.297a.31412.31412,0,0,0,.052.151,1.29826,1.29826,0,0,0,.093.327.16336.16336,0,0,0,.031.119,1.832,1.832,0,0,0,.087.358.16629.16629,0,0,0,.028.12q.03451.192.069.387c.008.04.017.079.026.119a1.9551,1.9551,0,0,0,.058.388c.004.052.009.103.014.153.014.128.028.256.042.385.003.049.006.099.008.149a2.43617,2.43617,0,0,0,.025.418c0,.049.001.099.002.149,0,.148,0,.298-.001.447,0,.05-.001.1-.001.15l-.038.477c-.029.078-.058.157-.087.236a1.37522,1.37522,0,0,1-.621.54h-.567a1.32812,1.32812,0,0,1-.576-.478c-.017-.029-.035-.059-.053-.089-.031-.109-.061-.219-.092-.329v-.179c.008-.15.015-.3.022-.452.001-.057.001-.116.001-.175a1.50354,1.50354,0,0,0-.015-.418c-.003-.049-.005-.098-.007-.148a1.88787,1.88787,0,0,0-.03-.418.18831.18831,0,0,0-.017-.121,2.247,2.247,0,0,0-.05-.393c-.009-.048-.017-.097-.026-.146a1.88951,1.88951,0,0,0-.076-.357.18153.18153,0,0,0-.029-.119,1.16765,1.16765,0,0,0-.092-.357.1619.1619,0,0,0-.034-.118,1.33213,1.33213,0,0,0-.112-.362,3.91277,3.91277,0,0,0-.332-.81,6.43085,6.43085,0,0,1-.12,1.202q-.09453.3135-.19.627c-.036.09-.073.179-.11.269a7.21105,7.21105,0,0,1-.669,1.099,8.48578,8.48578,0,0,1-1.215,1.212,9.47845,9.47845,0,0,1-1.757,1.06h-.567a1.61332,1.61332,0,0,1-.53-.404c-.004-.02-.01-.039-.033-.045a1.45368,1.45368,0,0,1-.123-.328c-.001-.05-.004-.099-.006-.149a1.29514,1.29514,0,0,1,.174-.6,1.33707,1.33707,0,0,1,.313-.315c.056-.031.115-.057.167-.093a8.705,8.705,0,0,0,1.561-1.369,4.17629,4.17629,0,0,0,.687-.964.93087.93087,0,0,0,.133-.263,1.91632,1.91632,0,0,0,.191-.662.41879.41879,0,0,0,.021-.179,1.009,1.009,0,0,0-.023-.387.29162.29162,0,0,0-.031-.151.9376.9376,0,0,0-.118-.327.14016.14016,0,0,0-.049-.092,1.16009,1.16009,0,0,0-.176-.3.16069.16069,0,0,0-.057-.089,1.17915,1.17915,0,0,0-.186-.268.29791.29791,0,0,0-.091-.125.79025.79025,0,0,0-.148-.202.26732.26732,0,0,0-.093-.122,1.13707,1.13707,0,0,0-.181-.233c-.027-.036-.055-.072-.082-.107l-.185-.222c-.028-.036-.056-.07-.084-.104-.062-.075-.124-.149-.186-.225-.028-.033-.055-.067-.084-.1a1.27573,1.27573,0,0,0-.206-.245.13905.13905,0,0,0-.066-.075l-.174-.249c-.004-.029-.005-.059-.033-.077-.021-.13-.042-.258-.063-.387l.022-.179c.032-.089.058-.179.096-.264.086-.192.065-.225-.148-.212-.046-.007-.094-.013-.141-.021-.096-.026-.193-.051-.289-.077-.044-.021-.088-.041-.132-.063-.089-.059-.179-.119-.269-.179-.02-.017-.04-.034-.059-.051-.067-.075-.133-.152-.215-.243-.042.051-.074.096-.112.134q-.95247.966-1.905,1.929c-.208.209-.208.209.047.366.029.023.057.046.085.069l.242.203.047.054c.062.09.124.179.186.269l.041.085a.80168.80168,0,0,1,.021.418.77449.77449,0,0,1-.319.315,1.43787,1.43787,0,0,1-.569.134c-.05-.01-.099-.019-.149-.028-.088-.046-.176-.092-.263-.138-.031-.027-.062-.054-.092-.081-.052-.067-.105-.135-.156-.202l-.08-.135c-.04-.096-.08-.19-.12-.285-.003-.032,0-.066-.03-.089l-.087-.39-.015-.117a.23781.23781,0,0,1,.095-.23c.931-.937,1.857-1.878,2.791-2.813.116-.115.065-.235.073-.357.009-.06.018-.119.027-.18a1.55385,1.55385,0,0,1,1.138-1.143c.071-.009.142-.019.213-.028a.332.332,0,0,0,.347-.132c.274-.293.555-.581.842-.861a.27041.27041,0,0,0,.094-.311c.006-.06.012-.12.019-.18a.84931.84931,0,0,1,.669-.744,1.01966,1.01966,0,0,1,1.077.317c.064.075.131.147.197.22a.29769.29769,0,0,0,.091.122c.051.068.101.137.151.205a.291.291,0,0,0,.086.127m-2.727,2.765a.30992.30992,0,0,0,0-.181.61759.61759,0,0,0-.125-.378l-.028-.039a.46641.46641,0,0,0-.269-.21.24811.24811,0,0,0-.159-.053.74123.74123,0,0,0-.447.006.63867.63867,0,0,0-.508.499.77414.77414,0,0,0-.024.447.26627.26627,0,0,0,.048.152.46827.46827,0,0,0,.184.266.21351.21351,0,0,0,.121.085.54582.54582,0,0,0,.357.095.21225.21225,0,0,0,.149,0,.702.702,0,0,0,.701-.689m1.687-3.041a.34991.34991,0,1,0-.507.475.2157.2157,0,0,0,.086.098c.053.067.106.135.159.202.024.031.048.063.071.094l.168.264c.026.043.051.087.076.131.049.107.097.214.145.321.007.033.005.07.035.094.026.099.051.199.076.297.008.048.016.095.025.143.003.139.005.279.008.42-.011.068-.022.137-.032.206a2.39,2.39,0,0,1-.414.836,4.25582,4.25582,0,0,1-.498.489,6.69941,6.69941,0,0,1-1.012.646c-.323.173-.362.354-.124.63.019.022.042.041.063.062a.95071.95071,0,0,0,.176.204.29293.29293,0,0,0,.096.116,1.01628,1.01628,0,0,0,.176.21l.048.063a1.68864,1.68864,0,0,0,.218.266.32472.32472,0,0,0,.094.12c.053.069.105.137.157.205a.19163.19163,0,0,0,.075.093c.07.095.139.19.209.284.021.029.041.056.061.084.054.076.107.151.161.226.028.04.055.081.083.121.05.079.101.158.151.237.027.045.055.09.082.135.043.084.087.169.13.253a.25252.25252,0,0,0,.054.12c.033.11.064.218.097.327l.028.12c.01.139.021.279.032.417l-.002.15q-.04353.25951-.087.518l-.063.228a5.911,5.911,0,0,1-.409.839c-.106.157-.212.313-.318.47q-.17248.20252-.346.405a11.26616,11.26616,0,0,1-1.201,1.142c-.222.146-.421.325-.655.453a.29077.29077,0,0,0-.171.39c.041.136.093.261.261.276a.14019.14019,0,0,0,.151-.009,4.28532,4.28532,0,0,0,.985-.533,5.30306,5.30306,0,0,0,.914-.682,5.57334,5.57334,0,0,0,1.172-1.409,2.95557,2.95557,0,0,0,.368-.806.85535.85535,0,0,0,.074-.238,2.17436,2.17436,0,0,0,.093-.536.44313.44313,0,0,0,.013-.181,1.185,1.185,0,0,0-.001-.42.30873.30873,0,0,0-.012-.145,1.33916,1.33916,0,0,0-.057-.388.15492.15492,0,0,0-.027-.12,1.07826,1.07826,0,0,0-.09-.358.178.178,0,0,0-.034-.12c-.07-.153-.009-.233.141-.287a2.32134,2.32134,0,0,0,.309-.16c.097-.015.167-.103.27-.104.048.075.096.15.145.225a.1547.1547,0,0,0,.053.092,1.23683,1.23683,0,0,0,.156.265.1518.1518,0,0,0,.053.092c.059.115.119.231.179.346.006.026.007.056.036.07l.123.267a.20666.20666,0,0,0,.056.12c.044.109.087.219.13.327.017.04.033.08.051.12a1.46266,1.46266,0,0,0,.117.329c.001.034-.001.067.03.09.032.109.064.218.097.326.015.052.029.103.044.154.026.108.052.215.079.324.013.051.027.102.04.153a1.73432,1.73432,0,0,0,.072.355.25679.25679,0,0,0,.027.149,1.61836,1.61836,0,0,0,.051.361c.005.049.01.098.016.146.011.129.022.258.033.388a.38068.38068,0,0,0,.017.18l.01.416.002.15c-.003.149-.005.298-.007.447-.004.061-.009.12-.013.18a.31388.31388,0,0,0,.102.357c.313.2.603.069.623-.285.006-.094.002-.188.002-.282a1.956,1.956,0,0,0,.009-.446.35817.35817,0,0,0-.005-.181c-.003-.139-.007-.278-.01-.416a.2595.2595,0,0,0-.017-.153,1.39352,1.39352,0,0,0-.035-.385l-.012-.15-.052-.357a.32458.32458,0,0,0-.029-.15,1.79252,1.79252,0,0,0-.064-.357c-.012-.052-.023-.103-.035-.154l-.081-.324c-.012-.051-.026-.102-.038-.154a1.55058,1.55058,0,0,0-.102-.325.19718.19718,0,0,0-.038-.117,1.4139,1.4139,0,0,0-.112-.33.31566.31566,0,0,0-.06-.156,1.037,1.037,0,0,0-.098-.26.19831.19831,0,0,0-.054-.119,1.486,1.486,0,0,0-.145-.332.22714.22714,0,0,0-.061-.125,1.07444,1.07444,0,0,0-.127-.259.13406.13406,0,0,0-.051-.092,1.40431,1.40431,0,0,0-.158-.296.32658.32658,0,0,0-.08-.132.93479.93479,0,0,0-.156-.256.3141.3141,0,0,0-.084-.132.86018.86018,0,0,0-.152-.227.2702.2702,0,0,0-.088-.125.82715.82715,0,0,0-.15-.203.28686.28686,0,0,0-.09-.122,1.10258,1.10258,0,0,0-.176-.238.2983.2983,0,0,0-.091-.123.864.864,0,0,0-.151-.204.30224.30224,0,0,0-.089-.12,1.15535,1.15535,0,0,0-.178-.238.28079.28079,0,0,0-.09-.122.86979.86979,0,0,0-.151-.205.30239.30239,0,0,0-.089-.12,1.21854,1.21854,0,0,0-.178-.239.30861.30861,0,0,0-.09-.122.89407.89407,0,0,0-.152-.205c-.022-.03-.044-.059-.066-.09-.084-.088-.054-.155.021-.236a2.29194,2.29194,0,0,0,.451-.662.83122.83122,0,0,0,.1-.266,1.77113,1.77113,0,0,0,.116-.549c.001-.055.003-.111.005-.167a1.53723,1.53723,0,0,0-.012-.423c-.008-.048-.015-.096-.023-.143a1.3245,1.3245,0,0,0-.088-.357l-.039-.125a1.43714,1.43714,0,0,0-.12-.299.39586.39586,0,0,0-.074-.146.90015.90015,0,0,0-.149-.267.14223.14223,0,0,0-.056-.091.98453.98453,0,0,0-.185-.266.09366.09366,0,0,0-.05-.063,1.02025,1.02025,0,0,0-.22-.265.09053.09053,0,0,0-.056-.06m-.469,1.668a.92768.92768,0,0,0-.163-.295,1.71024,1.71024,0,0,0-.261-.362c-.266.251-.528.5-.753.713.107.13.205.248.302.365l.17.27.027.062c.033.108.066.215.099.324l.01.149a1.55636,1.55636,0,0,1-.084.511,2.57562,2.57562,0,0,1-.204.384,1.80913,1.80913,0,0,0,.435-.294,1.53614,1.53614,0,0,0,.53-.75.95556.95556,0,0,0,.058-.507.15112.15112,0,0,0-.02-.121.9284.9284,0,0,0-.102-.357c-.014-.031-.029-.061-.044-.092m-5.131,5.358a3.91218,3.91218,0,0,0-.537-.422c.089.378.261.517.537.422"/></svg>