<svg xmlns="http://www.w3.org/2000/svg" viewBox="0 0 25.5 35.875"><defs><style>.a{fill:#b5b5b5;}.b{fill:#fff;}</style></defs><title>Asset 31</title><path class="a" d="M25.5,12.75c0,7.041-12.75,23.125-12.75,23.125S0,19.791,0,12.75a12.75,12.75,0,0,1,25.5,0"/><path class="b" d="M15.7902,9.00381q.735.3375,1.47.676c.09.059.181.12.272.181q.66.561,1.32,1.123c.245.265.342.689.789.738a2.06156,2.06156,0,0,1,1.349,2.338c-.203.152.044.479-.237.601a2.86188,2.86188,0,0,1-1.001.784c-.372.127-.305.498-.401.77a6.64913,6.64913,0,0,0-.177.772,4.22917,4.22917,0,0,1-.588,1.21c-.117.098-.235.195-.352.292-.234.093-.468.185-.702.278q-4.9515.0165-9.902.031a2.46042,2.46042,0,0,1-1.274-.418c-.136-.152-.272-.305-.407-.457-.091-.191-.182-.384-.272-.576a6.62672,6.62672,0,0,0-.365-1.354c-.059-.192.041-.473-.288-.514q-.288-.1785-.575-.356c-.099-.145-.192-.297-.401-.29a2.74044,2.74044,0,0,1,.002-2.263q.243-.2685.488-.539c.849-.22,1.265-.969,1.848-1.513q.57-.42,1.14-.838a10.17748,10.17748,0,0,1,5.502-1.253,11.38628,11.38628,0,0,1,2.762.577m1.39,5.993a1.97459,1.97459,0,0,1-2.932-.041c-.2-.16-.271-.111-.442.04a1.92063,1.92063,0,0,1-2.822.017c-.206-.19-.275-.18-.477-.01a1.94234,1.94234,0,0,1-2.873-.04c-.162-.136-.245-.185-.395-.016-.109.122-.25.216-.369.331-.243.237-.794.076-.825.511a3.68993,3.68993,0,0,0,.24,1.079,2.1703,2.1703,0,0,0,.111.354,1.25868,1.25868,0,0,0,1.162.877c2.499-.01,4.999.066,7.498-.04.698.011,1.399.077,2.092.025,1.326-.099,1.277-1.268,1.518-2.146.145-.528-.505-.412-.751-.642-.12-.111-.256-.205-.378-.313-.128-.113-.245-.152-.357.014m.125-1.74c.437.041.394.423.479.698a1.24386,1.24386,0,0,0,1.355.921,1.19251,1.19251,0,0,0,1.142-1.101,1.217,1.217,0,0,0-.893-1.372,1.44653,1.44653,0,0,1-.771-.563,6.817,6.817,0,0,0-4.522-2.535,6.44,6.44,0,0,0-3.003-.131,7.23749,7.23749,0,0,0-5.045,2.809,1.0683,1.0683,0,0,1-.601.391,1.28292,1.28292,0,0,0,.177,2.517,1.27777,1.27777,0,0,0,1.423-1.006c.071-.232.008-.607.405-.585.342.018.287.344.35.57a1.28848,1.28848,0,0,0,1.296,1.025,1.2329,1.2329,0,0,0,1.264-1.046c.055-.241.052-.548.383-.543.324.006.318.301.371.548a1.24354,1.24354,0,0,0,1.272,1.04,1.28832,1.28832,0,0,0,1.293-1.033c.057-.231.002-.548.349-.56.338-.013.338.298.4.531a1.23376,1.23376,0,0,0,1.252,1.062,1.26146,1.26146,0,0,0,1.308-1.075c.058-.218.067-.456.316-.562"/><path class="b" d="M14.4233,9.8887a3.24351,3.24351,0,0,1,1.203,1.002.31152.31152,0,0,1-.139.318.27648.27648,0,0,1-.344.021c-.336-.27-.667-.545-.987-.832a.28009.28009,0,0,1-.04-.345.31256.31256,0,0,1,.307-.164"/><path class="b" d="M10.7051,10.1963c-.005.268-1.042,1.132-1.272,1.062-.261-.078-.403-.283-.19-.503a5.47659,5.47659,0,0,1,.985-.813c.223-.141.431-.011.477.254"/><path class="b" d="M12.064,10.56351c.048-.258-.109-.666.348-.646.438.019.298.417.308.678.01.273.09.666-.34.65-.433-.016-.261-.425-.316-.682"/></svg>