<svg xmlns="http://www.w3.org/2000/svg" viewBox="0 0 25.5 35.875"><defs><style>.a{fill:#b5b5b5;}.b{fill:#fff;}</style></defs><title>Asset 32</title><path class="a" d="M25.5,12.75c0,7.041-12.75,23.125-12.75,23.125S0,19.791,0,12.75a12.75,12.75,0,0,1,25.5,0"/><path class="b" d="M5.0284,18.77071c-.524.005-.73-.131-.704-.683.037-.814-.003-1.632-.01-2.448q.006-2.337.014-4.672l.133-.187c.223-.097,7.481-2.879,7.675-3.021.816-.055.917-.749,1.171-1.307l.441-.576.031-.038c.677-.826,1.7-.473,2.471.6l.15.249c.077.178.153.355.23.533a.73018.73018,0,0,0,.422.646c.081.176,2.068,1.914,2.918,2.678a1.164,1.164,0,0,1,.445.948c-.017,2.182-.023,4.366.002,6.549.006.582-.22.732-.77.729-2.767-.016-12.513-.019-14.619,0m8.688-9.737a2.315,2.315,0,0,0,1.966.138.6297.6297,0,0,0,.436-.517,2.696,2.696,0,0,0-1-2.334.576.576,0,0,0-.894.142,3.52715,3.52715,0,0,0-.782,1.881.69907.69907,0,0,0,.274.69m5.516,6.114c.342.016.438-.133.442-.455.005-.349-.091-.51-.47-.492-.576.026-9.687.01-13.664-.006-.365-.002-.493.101-.479.472.011.332.059.506.46.504,3.546-.014,12.858-.063,13.711-.023m-14.113.763c-.073.013-.112.052-.094.131-.004.509-.007,1.018-.012,1.526-.003.326.113.537.482.509.05,0,.1-.001.15-.002,1.558.008,10.142-.08,12.534-.08,1.531,0,1.516,0,1.491-1.554-.007-.424-.138-.559-.559-.551-1.335.024-10.664.02-13.992.021m14.519-4.032c.108-.607-.357-.413-.623-.414q-6.327-.015-12.652-.007c-1.295,0-1.266.003-1.301,1.296-.016.564.13.737.715.732,3.763-.029,12.238-.05,12.712-.067,1.176.075,1.177.075,1.17-1.093-.001-.149-.013-.297-.021-.447m-12.738-1.281.04.068h12.106c-.764-.693-1.447-1.313-2.141-1.943a2.137,2.137,0,0,1-2.489,1.302c-.85-.117-1.56-.42-1.648-1.423-.018-.214-.101-.256-.289-.183q-2.7885,1.092-5.579,2.179"/></svg>