<svg viewBox="0 0 658.14508 370.20661" xmlns="http://www.w3.org/2000/svg"><path d="m0 0h658.14508v370.20661h-658.14508z" fill="none"/><g fill="#23325d"><path d="m192.823 146.81 17.417-14.917 1.917.333 3.833-3.75 14.5 3.334 5.583-5 16.25 3.75.417 6.25 12.75 2.916.25 4.917 13.833 3 1.667 33.166-14.75 18.667-4.5-1.333-6.917 5.25-14-2.834-1.75 1.917-31.333-6.5-.083-3.75-12.834-3.333-4.333-34.917 3-2.75z"/><path d="m320.573 150.56 52 11.624 4.5-6.375 19 4.25-.125 7.25 54.625 12.625-.25 2.625 7.5 1.75-8.125 20.625-3.75 33-2 4.625-1.125 7.625-3.375 7.5-28.625-8 .5-9.125-8.625-2 .375-4.5-62.5-11.25.125-7.875-22.375-4.375-4 7.625-19.375-3.125.125-1.75 4.125-4.875-1.5-30 .625-1.125v-6.5l9.125-11.125 5.125.625z"/><path d="m460.74 176.809 7.666 1.834 2.334-4 60.999 14 2.667-8 22.5 5.166-1.667 8 67.334 14.334v4.833l4.5 1.167-.334 9.166 6.167 1.5-.667 14.834-8.666 25.5-4.334-1.667-5.333 16-.833 7.333-1.167 2.834-169.083-39.459 1.125-7.625 2-4.625 3.75-33z"/><path d="m253.74 207.976 60.583 10.208 4-7.625 22.375 4.375-.125 7.875 62.5 11.25-.375 4.5 8.625 2-.5 9.125 3.583 1.292-2.5 25-4 16.667h-4.166l-9.334 29.999-163.833-34.166-1-5.667 4.5-5-3.5-33.666.667-1.5-.5-8.667 8.667-14z"/></g></svg>