<svg xmlns="http://www.w3.org/2000/svg" viewBox="0 0 196.86304 44.06937"><defs><style>.a{fill:#333;}</style></defs><title>Getberg_G-residence_logo-light</title><path class="a" d="M94.062,40.65757V36.62736h.744v4.00008c0,1.6683.78347,2.432,2.14989,2.432,1.37737,0,2.16084-.76375,2.16084-2.432V36.62736h.7243v4.03021c0,2.02-1.0859,3.0654-2.88514,3.0654C95.15774,43.723,94.062,42.67761,94.062,40.65757Z"/><path class="a" d="M112.99237,36.62736V43.6627h-.61253l-4.52221-5.70837V43.6627h-.744V36.62736h.61253l4.53317,5.70892V36.62736Z"/><path class="a" d="M126.19521,36.62736V43.6627h-.73416V40.41651h-4.40167V43.6627h-.744V36.62736h.744v3.13607h4.40167V36.62736Z"/><path class="a" d="M132.89471,40.14531A3.6957,3.6957,0,1,1,136.5929,43.723,3.541,3.541,0,0,1,132.89471,40.14531Zm6.6436,0a2.955,2.955,0,1,0-2.94541,2.91418A2.85036,2.85036,0,0,0,139.53831,40.14531Z"/><path class="a" d="M151.54458,41.80319c0,1.0355-.824,1.91978-2.62325,1.91978a3.81737,3.81737,0,0,1-2.6134-.91441l.29148-.57309a3.4555,3.4555,0,0,0,2.32192.85415c1.3171,0,1.88909-.55226,1.88909-1.24588,0-1.92964-4.33155-.744-4.33155-3.347,0-1.035.80429-1.92964,2.59367-1.92964a3.97026,3.97026,0,0,1,2.18057.62349l-.25093.59281a3.62767,3.62767,0,0,0-1.92964-.58295c-1.28642,0-1.85951.57309-1.85951,1.27657C147.213,40.40665,151.54458,39.24075,151.54458,41.80319ZM148.7,36.05482l-1.29628-1.24643h.66293l.995.824.995-.824h.664l-1.29629,1.24643Z"/><path class="a" d="M162.67534,36.62736v.64321h-2.472V43.6627h-.744V37.27057h-2.472v-.64321Zm-3.2062-.57254-1.29629-1.24643h.664l.99495.824.995-.824h.66293l-1.29628,1.24643Z"/><path class="a" d="M65.04446,27.908l-4.14308-5.80535a12.24134,12.24134,0,0,1-1.68692.12383H54.25284V27.908h-1.2656V10.54123h6.22722c4.36606,0,6.99589,2.18386,6.99589,5.85466a5.3276,5.3276,0,0,1-4.06857,5.43279L66.4832,27.908Zm-5.83-6.79811c3.7212,0,5.70618-1.73678,5.70618-4.714,0-3.00239-1.985-4.714-5.70618-4.714H54.25284v9.42794Z"/><path class="a" d="M82.82649,26.76619V27.908H70.84378V10.54123h11.6107v1.14069H72.10939v6.84852H81.3631v1.11549H72.10939v7.12026Z"/><path class="a" d="M85.67438,25.67481l.57089-.94236a8.25707,8.25707,0,0,0,5.73084,2.18276c3.473,0,5.01147-1.51324,5.01147-3.399,0-5.20926-10.84148-2.08414-10.84148-8.48449,0-2.4556,1.88526-4.61426,6.15216-4.61426a9.31638,9.31638,0,0,1,5.235,1.56256l-.47173,1.01687a8.58722,8.58722,0,0,0-4.76328-1.46394c-3.37385,0-4.8871,1.56365-4.8871,3.47357,0,5.21035,10.84148,2.13454,10.84148,8.43518,0,2.4567-1.95977,4.58905-6.25188,4.58905A8.90271,8.90271,0,0,1,85.67438,25.67481Z"/><path class="a" d="M102.54035,10.54123H103.806V27.908h-1.26561Z"/><path class="a" d="M109.85676,10.54123h6.87208c5.50785,0,9.22905,3.6215,9.22905,8.68392,0,5.06023-3.7212,8.68282-9.22905,8.68282h-6.87208Zm6.77291,16.225c4.9123,0,8.06317-3.12511,8.06317-7.541,0-4.417-3.15087-7.54323-8.06317-7.54323h-5.5073V26.76619Z"/><path class="a" d="M142.3253,26.76619V27.908H130.34259V10.54123h11.6107v1.14069h-10.3451v6.84852h9.25372v1.11549h-9.25372v7.12026Z"/><path class="a" d="M161.076,10.54123V27.908h-1.04207L148.20023,12.82371V27.908h-1.26561V10.54123h1.06673l11.809,15.08318V10.54123Z"/><path class="a" d="M165.46068,19.22515a8.67338,8.67338,0,0,1,9.00607-8.80774,8.27918,8.27918,0,0,1,6.17736,2.4063l-.79388.81853a7.27289,7.27289,0,0,0-5.33417-2.05894,7.5411,7.5411,0,0,0-7.78978,7.64185,7.54062,7.54062,0,0,0,7.78978,7.63966,7.2945,7.2945,0,0,0,5.33417-2.083l.79388.81854a8.29654,8.29654,0,0,1-6.17736,2.4304A8.6729,8.6729,0,0,1,165.46068,19.22515Z"/><path class="a" d="M196.863,26.76619V27.908H184.88033V10.54123H196.491v1.14069h-10.3451v6.84852h9.25372v1.11549h-9.25372v7.12026Z"/><path class="a" d="M18.863,44.06937l-.44433-.34626c-.18409-.14245-.46351-.33749-.82072-.58733C5.921,34.9614,0,24.60644,0,12.3602V0H37.86955V1.68309H1.68309V12.3602c0,11.66549,5.67934,21.55584,16.88022,29.39712.15286.10628.29257.2049.41749.29366,4.1376-2.58381,17.20566-13.12066,17.20566-25.58715V13.74524H10.00486V12.06215H37.86955v4.40168c0,13.78141-14.84375,25.231-18.51784,27.32613Z"/></svg>