<svg xmlns="http://www.w3.org/2000/svg" viewBox="0 0 592.33408 473.66724"><defs><style>.a{fill:#818181;}.b{fill:#aecee5;}.c{fill:#646464;}</style></defs><title>Getberg_G-residence_mapa</title><path class="a" d="M589.24069,241.35767l-87.34576-10.22754L472.30417,3.051a3.49978,3.49978,0,0,0-6.94141.90039L471.567,51.772,327.45456,56.16871,326.44284,56.2,293.3569,146.00513l-9.47754-39.90625-55.95068,9.15577,6.04151,38.17187-21.56879,2.65357-2.90436-25.469-.99316.11328,2.90533,25.47779-21.68188,2.66754-7.23517-67.86115-2.9834.31836,7.24029,67.90918-50.842,6.25507L134.261,137.874l14.2995-1.70966-.11914-.99316-14.24,1.70264-5.20288-87.29493-2.99512.17872,5.21362,87.47308L103.84879,140.503l-.19355-.33869-.69641-.53942L100.501,50.15455l-1,.02734,2.43554,88.651-33.78466-26.171L38.79929,61.91724a1.49989,1.49989,0,0,0-2.59668,1.502l29.5,50.99951.147.25488,35.49707,27.49707,12.02069,21.0362-.76483-.08893L106.156,194.85505,20.2114,182.68238l-.4209,2.9707,43.85077,6.21064,5.42114,64.81774L2.53415,275.803a3.50042,3.50042,0,1,0,1.93359,6.72851l65.18958-18.73712,5.34558,63.91486.99609-.084-5.36218-64.11243,22.728-6.53265,4.59143,66.06531-47.593,13.64129L10.23581,361.74342a.49992.49992,0,1,0,.53027.84765l39.94043-24.96289,78.35889-22.46484,34.30646-4.45325L150.5,379.03248l.501,69.14551.446-.00318-21.924,18.85474a1.50029,1.50029,0,0,0,1.95605,2.27539l74.80841-64.33563,43.89179-17.26007,23.02533,3.34869,7.29791,76.15717.9961-.09571-7.275-75.91327,3.0094.43769,66.44824,14.48925.17578.03809,104.58985-2.49023,19.38678,17.16632,6.1933,49.75262a3.50031,3.50031,0,0,0,3.46972,3.06738,3.67508,3.67508,0,0,0,.43653-.02636,3.50117,3.50117,0,0,0,3.041-3.90625L451.41367,232.267,588.42624,248.3108a3.50033,3.50033,0,1,0,.81445-6.95313ZM328.55808,59.13648,471.95487,54.762l22.773,175.52887-24.90412-2.91608,5.17475-53.15875.0625-.65039-33.53907,5.67578-2.37817,46.611-24.69708,4.14166-7.32862-54.83838,18.00348-.5354-3.19726-39.96094-41.96973-18.65332L357.1821,127.65748l-9.74994,45.82477-41.41089-53.17536ZM420.9946,311.092l-.98828.15039.1477.97076-62.61841,4.45014-21.55126-4.63489-10.33564-60.045,57.58167-9.65644,2.44195,15.75037.98828-.15234-2.4439-15.76343,60.11883-10.08191,9.6756,77.72736-32.85675,2.33508Zm-175.46191.07617L184.45175,307.268l-1.86011-14.996.41224-.47284,65.33935-44.39063-.1167-.17193L283.4603,258.198l-6.64966,50.81915ZM205.4404,402.07935l-20.557-6.34027-.38031-87.47473,60.25635,3.85236-39.07135,89.86523Zm-2.97711,2.22107L184.986,419.331l-.08893-20.44824ZM118.58347,199.64521l3.6007,41.768-28.33233,8.14324-3.74915-53.945Zm1.01593.14392,16.18866,2.29279,27.16717,27.61285-39.79181,11.437Zm15.02246-5.43286-16.93732-29.6405,15.27655,1.77618Zm31.61395,34.39563-26.61114-27.048,50.81732-7.83088,3.20355,30.04712-23.90778,3.8252Zm121.53571-49.87714,1.1698,72.16638-3.1977.53626-89.08691-27.71533-3.24616-30.44647ZM399.82413,128.1197l5.89038,44.07623-55.2912,1.64465,9.39551-44.16259,20.22754-10.34864Zm1.07165.47625,18.18085,8.08057,2.80273,35.03858-15.16082.451Zm5.21826,46.58967,3.48993,26.11419-30.98339,4.76666-1.96-12.6419-.98828.15332,6.48548,41.83105-31.25458,5.24134-3.10669-17.60114,12.81427-2.89362-.2207-.97558-12.76764,2.88293-.61322-3.47424,2.91211-41.73193Zm7.34675,54.97387-30.31665,5.084-4.37037-28.18891,30.96271-4.76349ZM291.93338,250.53937l-1.16644-71.92352,26.50445-.78833,3.25934,37.71082,24.3255,8.10833,3.08771,17.49988Zm-5.49475,8.0196,3.72742-.62506,18.65106,47.7666-28.60376.44037Zm4.06573-96.13538,5.55109-15.06695,28.78,1.77105-7.8125,25.39307-.0293.09277.019.22046-26.29438.7818Zm53.48731,56.32324.66693,3.77991-23.18841-7.72961-3.19709-36.99939,28.63459-.85169Zm-25.9773-43.94262-.00708-.08228,8.15821-26.51416-29.752-1.82318,9.20069-24.9729,40.91968,52.54456ZM292.927,147.17207l-5.43042,14.7398.22589,13.93518-48.01953,7.39978-4.58356-28.95971Zm-97.68335,83.58111L244.81778,246.176l-62.66315,42.5727-6.79913-54.81336Zm-13.79223,76.6106-13.54932,1.75793,12.051-13.82312ZM312.49,306.97565l-.012-.14923-19.28992-49.39929,31.47357-5.27814,10.26807,59.65265Zm133.92261-82.3421-6.25952,1.04968L442.479,180.094l31.46094-5.32422-5.11029,52.48865ZM229.07224,116.08082l54.04931-8.84424,9.26343,39.00323-57.4212,7.06446Zm5.05352,38.32855,4.58826,28.98981-22.79669,3.513-3.40314-29.84284Zm-22.6037,2.7821,3.40656,29.873-21.83643,3.365L189.833,159.861Zm-24.66729,3.03608,3.26886,30.65942-52.22333,8.04761-1.93366-32.44367Zm-82.46729-18.7818,26.88916-3.215,1.624,27.24762-15.8324-1.84112Zm9.0119,22.77179.58429.06793,19.69587,34.46783-26.532-3.75781ZM70.0419,256.39991l-5.38556-64.39246L89.08987,195.468l3.77869,54.3711Zm24.30621.29767,28.4488-8.17688,5.67065,65.77948-29.52795,8.46344Zm35.10657,57.41247-5.67859-65.87085,47.48755-13.6491,1.12769-.18042,7.07275,56.95178L163.602,309.48853l-.03693.19586Zm36.94422-3.2641.51983-.59625,14.58478-1.89325.37585,86.45612L153.551,386.07545l-.04908-6.77344Zm-12.82508,78.37629,28.31922,8.734.10406,23.94519-28.01184,24.09039Zm96.89118-4.50336-.95087-38.51257,19.5293,1.42871,3.86676,40.35162Zm23.46417,3.41614-3.93066-41.01563-.041-.41992-21.4707-1.57129.97876,39.63715-42.46234,16.6994,38.835-89.31934,46.43-3.18982,17.351-.26672,7.21655,88.52-39.01593-8.50739Zm45.97119,9.742-7.3255-89.8595,44.82013,9.639.07031.01465,62.83972-4.4657,13.36487,87.8263L344.144,403.16334Zm129.65381,2.77655-14.87677.35419-13.372-87.87341,32.82953-2.333L467.273,416.344Z"/><polygon class="b" points="69.334 346.501 114.334 340.501 128.334 355.001 127.334 374.001 105.334 387.501 84.834 385.501 71.334 391.501 57.834 384.501 55.334 361.001 69.334 346.501"/><polygon class="b" points="370 299.168 376 288.668 382 284.668 392.5 298.668 389 304.668 376.5 307.168 370 299.168"/><polygon class="c" points="349.167 220.584 348.5 217.751 351.667 178.084 366.834 177.251 368.5 201.251 360.75 217.418 349.167 220.584"/></svg>