<svg xmlns="http://www.w3.org/2000/svg" viewBox="0 0 188.31113 111.62254"><defs><style>.a{fill:#fff;}</style></defs><title>Getberg_black-roofs_logo_white</title><path class="a" d="M.36572.39406,17.98147.42845c4.33663.0085,7.74951,1.20813,9.913,3.38123a8.69788,8.69788,0,0,1,2.58914,6.45377l-.00021.11024A8.82393,8.82393,0,0,1,25.481,18.54751c4.38671,1.68891,7.09258,4.24257,7.08266,9.337l-.00021.10908c-.0136,6.93722-5.65787,10.396-14.222,10.37924L.29163,38.3376Zm15.79637,15.371c3.68678.00719,6.02044-1.18,6.026-3.99878l.00021-.10907c.00489-2.49381-1.94425-3.90646-5.46741-3.91333L8.48163,7.72778,8.46591,15.75ZM18.35565,31.055c3.68565.00722,5.91045-1.2893,5.91591-4.10807l.00021-.10908c.005-2.546-1.88808-4.12216-6.17131-4.13055l-9.64808-.01884-.01629,8.34717Z"/><polygon class="a" points="39.499 0.47 47.846 0.487 47.787 30.842 66.705 30.879 66.69 38.467 39.425 38.414 39.499 0.47"/><path class="a" d="M86.05959.29058l7.69611.015,16.18692,38.24682-8.72667-.017L97.76277,30.019l-16.04449-.0313L78.232,38.49048l-8.50965-.01661ZM94.796,22.64074,89.779,10.32543l-5.065,12.29562Z"/><path class="a" d="M111.71178,19.6915l.00022-.10791A19.28524,19.28524,0,0,1,131.535,0c7.15541.014,11.43169,2.40705,14.948,5.88258l-5.32335,6.11567c-2.92147-2.662-5.89954-4.29364-9.69306-4.301-6.3964-.0125-11.0138,5.28992-11.02655,11.7943l-.00021.10908C120.42712,26.105,124.91441,31.53428,131.42,31.547c4.3355.00846,6.994-1.72125,9.98168-4.42507l5.3021,5.3775c-3.91081,4.16537-8.25367,6.75745-15.57036,6.74318a19.15145,19.15145,0,0,1-19.4216-19.55111"/><polygon class="a" points="153.43 0.693 161.778 0.709 161.745 17.297 177.172 0.739 187.253 0.759 171.775 16.828 187.885 38.704 177.856 38.684 166.126 22.509 161.726 27.053 161.704 38.653 153.356 38.636 153.43 0.693"/><path class="a" d="M.09033,49.95366l16.66417.03254c4.63489.00907,8.22626,1.31812,10.61673,3.71915a11.43935,11.43935,0,0,1,3.10776,8.337l-.00021.10444a11.3203,11.3203,0,0,1-7.83317,11.28529l8.87994,13.0366-9.37418-.01831L14.362,74.77018l-6.30128-.01233-.0228,11.66493L.01915,86.40713ZM16.19892,67.69028c3.90606.00764,6.14978-2.06983,6.1558-5.14274l.00021-.10444c.00673-3.43728-2.38615-5.21165-6.29229-5.21926L8.095,57.20826,8.07451,67.67441Z"/><path class="a" d="M36.0967,68.35578l.00021-.10443c.02026-10.36406,8.21345-18.83567,19.46176-18.81372s19.3041,8.42207,19.28384,18.78379l-.00021.10561C74.822,78.69,66.62892,87.16156,55.38061,87.13957c-11.24952-.022-19.30417-8.42087-19.28391-18.78379m30.3611.05929.00021-.10444c.01219-6.24905-4.56144-11.46615-11.01819-11.47876-6.45795-.01261-10.94616,5.08349-10.95834,11.33023l-.00021.10561c-.01226,6.24791,4.56024,11.465,11.01819,11.47762,6.45682.01261,10.94616-5.08235,10.95834-11.33026"/><path class="a" d="M80.36928,68.44223l.00021-.10444c.02019-10.364,8.21224-18.83567,19.46056-18.81368,11.24945.022,19.30523,8.422,19.285,18.78376l-.00021.1056c-.02026,10.36292-8.21345,18.83454-19.4629,18.81258-11.24718-.022-19.303-8.4209-19.2827-18.78382m30.3611.05932.00021-.10444c.01219-6.249-4.56031-11.46615-11.01939-11.47876-6.45682-.0126-10.945,5.08349-10.95721,11.33023l-.00021.10561c-.01219,6.24791,4.5603,11.465,11.017,11.47762,6.458.01261,10.9473-5.08235,10.95955-11.33026"/><polygon class="a" points="126.292 50.2 154.048 50.254 154.033 57.545 134.296 57.507 134.281 65.265 151.675 65.299 151.661 72.589 134.267 72.555 134.239 86.67 126.221 86.654 126.292 50.2"/><path class="a" d="M157.89879,81.403l4.75035-5.66651c3.27533,2.71493,6.70805,4.44025,10.87526,4.4484,3.27944.00641,5.2618-1.29178,5.266-3.427l.00022-.10443c.004-2.03081-1.24383-3.073-7.33439-4.6492-7.3385-1.88734-12.0739-3.92969-12.05973-11.16747l.00021-.1033c.01289-6.61576,5.334-10.97917,12.7807-10.96461a21.09781,21.09781,0,0,1,13.53112,4.66131l-4.179,6.03319c-3.22405-2.24715-6.39753-3.60646-9.47044-3.61244-3.07177-.006-4.68985,1.39731-4.69332,3.167l-.00022.10561c-.00467,2.39521,1.557,3.17922,7.85392,4.80576,7.3919,1.942,11.55274,4.60525,11.54034,10.95874l-.00021.1033c-.01416,7.23891-5.54242,11.28971-13.40569,11.27434A23.19481,23.19481,0,0,1,157.89879,81.403"/><path class="a" d="M13.5775,98.30846,7.73972,111.47174H5.85711L0,98.30846H2.05371l4.79183,10.81232L11.676,98.30846Z"/><path class="a" d="M23.92,106.92061v4.55113H22.0374v-4.58883l-5.28629-8.57445h2.03438l4.25967,6.93883,4.279-6.93883h1.88261Z"/><path class="a" d="M33.29245,109.96759l.70374-1.46742a6.89418,6.89418,0,0,0,4.39259,1.52349c2.30118,0,3.2901-.88355,3.2901-2.031,0-3.21518-8.06308-1.18418-8.06308-6.07365,0-2.031,1.59744-3.76135,5.09634-3.76135a7.89808,7.89808,0,0,1,4.27852,1.16582l-.62737,1.50512a6.92888,6.92888,0,0,0-3.65115-1.072c-2.263,0-3.23258.93961-3.23258,2.08706,0,3.21518,8.06259,1.20352,8.06259,6.036,0,2.01263-1.63514,3.743-5.15337,3.743A7.9614,7.9614,0,0,1,33.29245,109.96759Z"/><path class="a" d="M48.90239,104.88962c0-3.85415,3.00492-6.732,7.0935-6.732a6.73981,6.73981,0,1,1,0,13.46488C51.90731,111.62254,48.90239,108.74474,48.90239,104.88962Zm12.24686,0a5.17374,5.17374,0,1,0-5.15336,5.05863A4.97016,4.97016,0,0,0,61.14925,104.88962Z"/><path class="a" d="M73.96259,105.62333l-2.4341,2.44473v3.40368H69.627V98.30846h1.90146V105.661l7.22642-7.35257h2.16778l-5.686,5.92382,6.04754,7.23946H79.05941Z"/><path class="a" d="M91.15161,106.92061v4.55113H89.269v-4.58883l-5.28629-8.57445h2.03438l4.25967,6.93883,4.279-6.93883h1.88261Zm-.64623-9.68419h-1.7115l2.58586-2.44474h2.32Z"/><path class="a" d="M110.69739,105.7925v-7.484h1.90145v7.40864c0,2.9155,1.34949,4.23115,3.74589,4.23115S120.11,108.6326,120.11,105.7171V98.30846h1.84442v7.484c0,3.81742-2.11026,5.83-5.629,5.83C112.827,111.62254,110.69739,109.60992,110.69739,105.7925Zm6.80735-11.00082h2.32l-3.19488,2.44474h-1.711Z"/><path class="a" d="M127.35231,109.723l1.103-1.27892a3.32567,3.32567,0,0,0,2.77631,1.56119c1.50222,0,2.28233-.90288,2.28233-2.67094V99.94409h-4.81117V98.30846h6.69329v8.93212c0,2.93388-1.44519,4.382-4.16445,4.382A4.65782,4.65782,0,0,1,127.35231,109.723Z"/><path class="a" d="M152.60392,109.83612v1.63562h-9.66V98.30846h9.39322v1.63563h-7.49177v4.04362h6.67493v1.59792h-6.67493v4.25049Z"/><path class="a" d="M169.29751,109.83612v1.63562H158.173v-1.27892l8.36758-10.24873h-8.23418V98.30846H169.05v1.27892l-8.32892,10.24874Z"/><path class="a" d="M175.51326,98.30846h5.60964c4.27852,0,7.18823,2.67,7.18823,6.58116,0,3.91215-2.90971,6.58212-7.18823,6.58212h-5.60964Zm5.49557,11.52766c3.28961,0,5.40084-1.99329,5.40084-4.9465,0-2.95224-2.11123-4.94553-5.40084-4.94553h-3.59411v9.892Z"/></svg>