<svg xmlns="http://www.w3.org/2000/svg" viewBox="0 0 175.44678 39.2749"><defs><style>.a{fill:#fff;}</style></defs><title>Getberg_G-residence_logo_white</title><path class="a" d="M83.82958,36.23445v-3.5918h.66309V36.2076c0,1.48681.69824,2.16748,1.916,2.16748,1.22754,0,1.92578-.68067,1.92578-2.16748V32.64265H88.98v3.5918a2.57969,2.57969,0,1,1-5.15039,0Z"/><path class="a" d="M100.70067,32.64265v6.27h-.54589l-4.03028-5.0874v5.0874h-.66308v-6.27h.54589l4.04,5.0879v-5.0879Z"/><path class="a" d="M112.46728,32.64265v6.27h-.6543V36.01961h-3.92285v2.89306H107.227v-6.27h.66309v2.79493H111.813V32.64265Z"/><path class="a" d="M118.438,35.77791a3.29367,3.29367,0,1,1,3.2959,3.18848A3.15577,3.15577,0,0,1,118.438,35.77791Zm5.9209,0a2.63355,2.63355,0,1,0-2.625,2.59717A2.54029,2.54029,0,0,0,124.35888,35.77791Z"/><path class="a" d="M135.05907,37.25545c0,.92285-.73437,1.71094-2.33789,1.71094a3.40207,3.40207,0,0,1-2.3291-.81495l.25977-.51074a3.07959,3.07959,0,0,0,2.06933.76123c1.17383,0,1.6836-.49219,1.6836-1.11035,0-1.71973-3.86036-.66309-3.86036-2.98291,0-.92236.7168-1.71973,2.31153-1.71973a3.53835,3.53835,0,0,1,1.94336.55567l-.22364.52832a3.23306,3.23306,0,0,0-1.71972-.51953c-1.14649,0-1.65723.51074-1.65723,1.13769C131.19872,36.01082,135.05907,34.97176,135.05907,37.25545Zm-2.53515-5.12305-1.15528-1.11084h.59082l.88672.73438.88672-.73438h.5918l-1.15528,1.11084Z"/><path class="a" d="M144.979,32.64265v.57325h-2.20312v5.69677h-.66309V33.2159h-2.20312v-.57325Zm-2.85742-.51025-1.15527-1.11084h.5918l.88671.73438.88672-.73438h.59082l-1.15527,1.11084Z"/><path class="a" d="M57.96875,24.87109l-3.69238-5.17382a10.91043,10.91043,0,0,1-1.50342.11084H48.35107v5.063H47.22314V9.394H52.773c3.89111,0,6.23486,1.9458,6.23486,5.21778a4.749,4.749,0,0,1-3.626,4.84228l3.86914,5.417ZM52.773,18.813c3.31641,0,5.08545-1.54785,5.08545-4.20117,0-2.6753-1.769-4.20069-5.08545-4.20069H48.35107V18.813Z"/><path class="a" d="M73.81641,23.854v1.01709H63.13721V9.394H73.48486v1.01709H64.26514v6.10254h8.24707v.99463H64.26514V23.854Z"/><path class="a" d="M76.35449,22.88135l.50879-.84033a7.3588,7.3588,0,0,0,5.10693,1.9458c3.09571,0,4.4668-1.34864,4.4668-3.0293,0-4.64307-9.66211-1.85693-9.66211-7.56152,0-2.189,1.67969-4.11231,5.48242-4.11231a8.30452,8.30452,0,0,1,4.666,1.39258l-.4209.90674a7.648,7.648,0,0,0-4.24512-1.30469c-3.00683,0-4.35546,1.39307-4.35546,3.0957,0,4.64307,9.6621,1.90137,9.6621,7.51709,0,2.189-1.74609,4.09034-5.57128,4.09034A7.93576,7.93576,0,0,1,76.35449,22.88135Z"/><path class="a" d="M91.38525,9.394h1.12793v15.477H91.38525Z"/><path class="a" d="M97.90576,9.394h6.124c4.90917,0,8.22558,3.228,8.22558,7.73877,0,4.51026-3.31641,7.73828-8.22558,7.73828h-6.124Zm6.03613,14.46c4.37793,0,7.18555-2.78564,7.18555-6.72119,0-3.936-2.80762-6.72168-7.18555-6.72168h-4.9082V23.854Z"/><path class="a" d="M126.84229,23.854v1.01709H116.1626V9.394h10.34765v1.01709h-9.21972v6.10254h8.24707v.99463h-8.24707V23.854Z"/><path class="a" d="M143.55322,9.394v15.477h-.92871L132.07764,11.42822V24.87109h-1.12793V9.394h.95117l10.52441,13.44287V9.394Z"/><path class="a" d="M147.46045,17.13281a7.73033,7.73033,0,0,1,8.02637-7.84912,7.38229,7.38229,0,0,1,5.50586,2.14453l-.708.72949a6.4783,6.4783,0,0,0-4.75391-1.835,6.72122,6.72122,0,0,0-6.94238,6.81006,6.72111,6.72111,0,0,0,6.94238,6.80957,6.498,6.498,0,0,0,4.75391-1.85693l.708.72949a7.39814,7.39814,0,0,1-5.50586,2.16651A7.73022,7.73022,0,0,1,147.46045,17.13281Z"/><path class="a" d="M175.44678,23.854v1.01709H164.76807V9.394h10.34765v1.01709H165.896v6.10254h8.24707v.99463H165.896V23.854Z"/><path class="a" d="M16.811,39.2749l-.39649-.30761c-.16357-.12745-.4126-.30127-.731-.52393C5.27686,31.15771,0,21.9292,0,11.01514V0H33.75V1.5H1.5v9.51514c0,10.396,5.06152,19.21093,15.044,26.19922q.20435.14281.37207.26171C20.60352,35.17334,32.25,25.7832,32.25,14.67285V12.25H8.9165v-1.5H33.75v3.92285c0,12.28272-13.229,22.48633-16.50342,24.35352Z"/></svg>