<svg xmlns="http://www.w3.org/2000/svg" viewBox="0 0 237.14438 59.90501"><defs><style>.a{fill:#fff;}.b{fill:#f1f2f2;}</style></defs><title>Getberg_logo_white</title><rect class="a" x="52.4902" y="54.77539" width="9.689" height="0.81799"/><rect class="a" x="180.64618" y="54.77539" width="9.68903" height="0.81799"/><path class="a" d="M124.39566,23.44809l-18.759-.048v-6.239h15.591l3.168.044c1.939,0,2.849.985,2.865,3.094-.016,2.15-.926,3.149-2.865,3.149m8.611-13.619.048-2.398c0-4.93-3.048-7.431-9.056-7.431H99.92068v5.435h24.475c1.939,0,2.849.999,2.865,3.142-.016,2.114-.926,3.099-2.865,3.099h-24.475v17.209h24.078c6.008,0,9.056-2.503,9.056-7.442l-.053-2.43a5.44094,5.44094,0,0,0-2.61005-4.284c1.496-.806,2.374-2.448,2.615-4.9"/><path class="a" d="M192.54471,17.15887c5.978,0,9.008-2.469,9.008-7.33l.05-2.395c0-4.931-3.048-7.431-9.058-7.431h-24.126v5.434h24.523c1.941,0,2.851.999,2.862,3.145-.011,2.111-.921,3.096-2.862,3.096h-24.526v5.327l21.864,11.839,12.286.044-21.841-11.729Z"/><rect class="a" x="137.03622" y="23.44937" width="26.992" height="5.483"/><rect class="a" x="137.03622" y="0.00137" width="26.992" height="5.483"/><rect class="a" x="137.03622" y="11.72537" width="26.992" height="5.48099"/><polygon class="a" points="68.702 5.478 79.193 5.478 79.193 28.883 84.909 28.883 84.909 5.478 95.698 5.478 95.698 0.002 68.702 0.002 68.702 5.478"/><rect class="a" x="38.1832" y="23.44937" width="26.996" height="5.483"/><rect class="a" x="38.1832" y="0.00137" width="26.996" height="5.483"/><rect class="a" x="38.1832" y="11.72537" width="26.996" height="5.48099"/><path class="a" d="M0,14.42c0,9.599,5.902,14.479,17.546,14.514H33.084V11.772H27.317l-.005,11.631-9.711.025c-7.997,0-11.887-2.929-11.887-8.96,0-6.049,3.901-8.987,11.928-8.987H33.084V0H17.61C5.927,0,0,4.837,0,14.42"/><path class="a" d="M204.05838,14.42c0,9.599,5.902,14.479,17.546,14.514h15.54V11.772h-5.77106V23.403l-9.712.025c-7.999,0-11.887-2.929-11.887-8.96,0-6.049,3.90406-8.987,11.924-8.987h15.44605V0h-15.474c-11.689,0-17.612,4.837-17.612,14.42"/><path class="b" d="M71.8773,54.55833l-2.28907,2.32129v2.94531H68.40366V48.62083h1.18457v6.77051l6.5791-6.77051h1.36036l-4.84961,5.07324,5.18554,6.13086h-1.4082Z"/><path class="b" d="M80.33921,47.948h1.13672v11.877H80.33921Z"/><path class="b" d="M87.17319,48.12376H88.6937L86.1,50.10911H84.97983ZM85.4437,51.406h1.13672v8.419H85.4437Z"/><path class="b" d="M96.48569,57.6638l.84864.57617a3.71048,3.71048,0,0,1-3.29688,1.665,4.2821,4.2821,0,1,1,0-8.56348,3.677,3.677,0,0,1,3.29688,1.665l-.84864.57617a2.86159,2.86159,0,0,0-2.44824-1.249,3.28269,3.28269,0,0,0,0,6.5625A2.8466,2.8466,0,0,0,96.48569,57.6638Zm-3.31347-7.55469-2.06446-1.98535H92.1644l1.585,1.3125,1.584-1.3125H96.39l-2.06445,1.98535Z"/><path class="b" d="M108.46909,55.59934l-1.98535,1.82422v2.40137H105.347V47.948h1.13672v8.05175l5.02637-4.59375h1.4082l-3.60156,3.44141,3.9375,4.97754h-1.39258Z"/><path class="b" d="M122.75815,55.96751h-7.043a3.11609,3.11609,0,0,0,3.31347,2.92871,3.31944,3.31944,0,0,0,2.57715-1.10449l.63965.73632a4.45089,4.45089,0,0,1-7.667-2.91308,4.055,4.055,0,0,1,4.11425-4.27344,4.01222,4.01222,0,0,1,4.08106,4.27344C122.77378,55.71165,122.75815,55.83958,122.75815,55.96751Zm-7.043-.84864h5.9707a2.99143,2.99143,0,0,0-5.9707,0Z"/><path class="b" d="M136.61362,57.50364c0,1.457-1.28027,2.40137-3.47363,2.40137a5.62935,5.62935,0,0,1-3.42578-1.04l.51269-.89649a5.08344,5.08344,0,0,0,2.99317.94434c1.60058,0,2.25683-.54492,2.25683-1.377,0-2.19239-5.458-.46387-5.458-3.793,0-1.377,1.18457-2.40137,3.3291-2.40137a5.70246,5.70246,0,0,1,2.97754.78418l-.4961.91211a4.32023,4.32023,0,0,0-2.48144-.71973c-1.52051,0-2.19238.5918-2.19238,1.39258C131.15562,55.98313,136.61362,54.27024,136.61362,57.50364Zm-4.00195-7.39453-2.06445-1.98535h1.05566l1.585,1.3125,1.585-1.3125h1.05664L133.764,50.10911Z"/><path class="b" d="M143.94077,59.31223a2.70466,2.70466,0,0,1-1.77637.59278,2.23,2.23,0,0,1-2.46484-2.44922V52.36594h-1.50488v-.96h1.50488V49.56516h1.13574V51.406h2.56153v.96H140.8353v5.02637a1.34837,1.34837,0,0,0,1.457,1.53613,1.87831,1.87831,0,0,0,1.24805-.43164Z"/><path class="b" d="M153.83042,55.96751h-7.043a3.1161,3.1161,0,0,0,3.31348,2.92871,3.31947,3.31947,0,0,0,2.57715-1.10449l.63964.73632a4.45089,4.45089,0,0,1-7.667-2.91308,4.05506,4.05506,0,0,1,4.11426-4.27344,4.01222,4.01222,0,0,1,4.08106,4.27344C153.84605,55.71165,153.83042,55.83958,153.83042,55.96751Zm-7.043-.84864h5.9707a2.99143,2.99143,0,0,0-5.9707,0Zm2.40137-5.00976-2.06543-1.98535H148.18l1.585,1.3125,1.584-1.3125h1.05665l-2.06446,1.98535Z"/><path class="b" d="M155.79429,58.865l.51269-.89649a5.08344,5.08344,0,0,0,2.99317.94434c1.60058,0,2.25683-.54492,2.25683-1.377,0-2.19239-5.458-.46387-5.458-3.793,0-1.377,1.18458-2.40137,3.32911-2.40137a5.70251,5.70251,0,0,1,2.97754.78418l-.4961.91211a4.32027,4.32027,0,0,0-2.48144-.71973c-1.52051,0-2.19239.5918-2.19239,1.39258,0,2.27246,5.458.55957,5.458,3.793,0,1.457-1.28027,2.40137-3.47363,2.40137A5.62933,5.62933,0,0,1,155.79429,58.865Z"/><path class="b" d="M170.02183,59.31223a2.70735,2.70735,0,0,1-1.77735.59278,2.23045,2.23045,0,0,1-2.46484-2.44922V52.36594h-1.50488v-.96h1.50488V49.56516h1.13672V51.406h2.56054v.96h-2.56054v5.02637a1.34768,1.34768,0,0,0,1.45605,1.53613,1.88093,1.88093,0,0,0,1.249-.43164Z"/><path class="b" d="M174.61265,48.12376h1.5205l-2.59375,1.98535h-1.12011Zm-1.7295,3.28222h1.13672v8.419h-1.13672Z"/></svg>