<svg xmlns="http://www.w3.org/2000/svg" viewBox="0 0 187.40679 40.47589"><defs><style>.a{fill:#fff;}.b{fill:#b6916e;}</style></defs><title>Getberg_investments_logo_white</title><path class="a" d="M98.28809,19.501l-14.822-.039V14.271h12.318l2.504.037c1.531,0,2.251.82,2.262,2.575-.011,1.787-.731,2.618-2.262,2.618m6.80407-11.327.038-1.993c0-4.101-2.40906-6.181-7.155-6.181H78.9491V4.52h19.339c1.531,0,2.251.83,2.262,2.613-.011,1.757-.731,2.578-2.262,2.578H78.9491V24.022h19.026c4.746,0,7.155-2.081,7.155-6.188l-.043-2.021a4.56186,4.56186,0,0,0-2.061-3.564c1.182-.671,1.875-2.035,2.066-4.075"/><path class="a" d="M152.1344,14.27c4.7229,0,7.116-2.053,7.116-6.09595l.042-1.993c0-4.1-2.40906-6.181-7.158-6.181H133.07129V4.521h19.3761c1.533,0,2.25195.831,2.262,2.615-.01,1.756-.729,2.576-2.262,2.576h-19.379v4.429l17.277,9.846,9.70605.037L142.79431,14.27Z"/><rect class="a" x="108.27551" y="19.50308" width="21.328" height="4.55899"/><rect class="a" x="108.27551" y="0.00104" width="21.328" height="4.55902"/><rect class="a" x="108.27551" y="9.7511" width="21.328" height="4.55798"/><polygon class="a" points="54.284 4.555 62.573 4.555 62.573 24.019 67.089 24.019 67.089 4.555 75.614 4.555 75.614 0.001 54.284 0.001 54.284 4.555"/><rect class="a" x="30.16956" y="19.50308" width="21.32996" height="4.55899"/><rect class="a" x="30.16956" y="0.00104" width="21.32996" height="4.55902"/><rect class="a" x="30.16956" y="9.7511" width="21.32996" height="4.55798"/><path class="a" d="M0,11.992c0,7.983,4.663,12.042,13.86292,12.069H26.141V9.79h-4.5581l-.002,9.673-7.673.021c-6.319,0-9.39307-2.437-9.39307-7.453,0-5.029,3.083-7.473,9.425-7.473H26.141V.00006H13.91492C4.683.00006,0,4.022,0,11.992"/><path class="a" d="M161.23157,11.992c0,7.983,4.663,12.042,13.86291,12.069h12.27808V9.79h-4.55811l-.00195,9.673-7.673.021c-6.319,0-9.391-2.437-9.391-7.453,0-5.029,3.083-7.473,9.421-7.473h12.203V.00006H175.14648c-9.234,0-13.91491,4.022-13.91491,11.99194"/><rect class="a" x="1.58057" y="32.36108" width="1.48901" height="8.01999"/><polygon class="a" points="22.673 32.361 22.673 40.381 21.447 40.381 17.025 34.95 17.025 40.381 15.547 40.381 15.547 32.361 16.772 32.361 21.195 37.792 21.195 32.361 22.673 32.361"/><polygon class="a" points="42.414 32.361 38.919 40.381 37.453 40.381 33.947 32.361 35.562 32.361 38.232 38.548 40.924 32.361 42.414 32.361"/><polygon class="a" points="90.591 33.621 87.933 33.621 87.933 32.362 94.738 32.362 94.738 33.621 92.08 33.621 92.08 40.382 90.591 40.382 90.591 33.621"/><polygon class="a" points="113.539 40.381 113.528 35.065 110.893 39.464 110.228 39.464 107.593 35.133 107.593 40.381 106.172 40.381 106.172 32.361 107.398 32.361 110.583 37.677 113.711 32.361 114.937 32.361 114.948 40.381 113.539 40.381"/><polygon class="a" points="152.539 32.361 152.539 40.381 151.313 40.381 146.891 34.95 146.891 40.381 145.413 40.381 145.413 32.361 146.639 32.361 151.061 37.792 151.061 32.361 152.539 32.361"/><polygon class="a" points="166.632 33.621 163.974 33.621 163.974 32.362 170.779 32.362 170.779 33.621 168.122 33.621 168.122 40.382 166.632 40.382 166.632 33.621"/><polygon class="a" points="128.07 39.127 126.58 39.127 126.58 40.381 133.753 40.381 133.753 39.132 128.07 39.132 128.07 39.127"/><rect class="b" x="126.57947" y="32.36108" width="7.14099" height="1.246"/><polygon class="a" points="126.58 35.692 126.58 36.922 128.07 36.922 128.07 36.921 133.707 36.921 133.707 35.695 128.07 35.695 128.07 35.692 126.58 35.692"/><polygon class="a" points="54.446 39.127 52.956 39.127 52.956 40.381 60.129 40.381 60.129 39.132 54.446 39.132 54.446 39.127"/><rect class="b" x="52.95654" y="32.36108" width="7.14099" height="1.246"/><polygon class="a" points="52.956 35.692 52.956 36.922 54.446 36.922 54.446 36.921 60.083 36.921 60.083 35.695 54.446 35.695 54.446 35.692 52.956 35.692"/><path class="a" d="M75.101,40.47589H71.17688v-1.256H75.101c.67591,0,1.15589-.08,1.1709-1.129a1.22934,1.22934,0,0,0-.257-.9,1.30078,1.30078,0,0,0-.889-.264H72.82092a2.02252,2.02252,0,0,1-2.124-2.272,2.14818,2.14818,0,0,1,2.394-2.324h3.68689v1.256H73.09094c-.94409,0-1.13806.427-1.13806,1.068,0,.844.34705,1.017.868,1.017h2.30493a2.453,2.453,0,0,1,1.78309.637,2.41307,2.41307,0,0,1,.61889,1.8,2.16615,2.16615,0,0,1-2.42688,2.367"/><path class="a" d="M184.98047,40.47589H181.0564v-1.256h3.92407c.6759,0,1.15588-.08,1.1709-1.129a1.22934,1.22934,0,0,0-.257-.9,1.30078,1.30078,0,0,0-.889-.264h-2.30493a2.023,2.023,0,0,1-2.124-2.272,2.14818,2.14818,0,0,1,2.394-2.324h3.68689v1.256h-3.68689c-.94409,0-1.13806.427-1.13806,1.068,0,.844.347,1.017.868,1.017h2.30493a2.45411,2.45411,0,0,1,1.78308.637,2.41309,2.41309,0,0,1,.61792,1.8,2.16489,2.16489,0,0,1-2.4259,2.367"/></svg>