<svg xmlns="http://www.w3.org/2000/svg" xmlns:xlink="http://www.w3.org/1999/xlink" viewBox="0 0 197.94406 92.15417"><defs><style>.a{fill:none;}.b{clip-path:url(#a);}.c,.d{fill:#fff;}.c{fill-rule:evenodd;}</style><clipPath id="a" transform="translate(-0.0005 -0.00146)"><rect class="a" width="197.94402" height="92.15601"/></clipPath></defs><title>Getberg_modry_logo_white</title><g class="b"><path class="c" d="M90.2155,20.47241c4.431-5.03,4.518-12.283,3.106-20.47095,3.953,7.059,12.565,11.718,21.319,2.258.706,8.471,11.295,11.336,21.459,2.118-1.867,15.032-9.044,23.477-21.083,27.309,11.209-.534,17.882-3.203,27.739-13.304-1.111,3.336-2.091,7.632-4.397,10.279,6.743.273,11.143-1.118,16.623-4.742-1.138,1.595-12.811,11.942-24.261,16.389-8.605,3.34094-25.284,8.4-40.645,6.846-11.154-1.128-19.061-7.058-22.3-10.799-3.035-3.504-5.421-6.146-9.658-8.323-2.959-1.52-7.199-4.932-9.974-6.289-2.419-1.184-6.006-2.904-6.58-3.162-1.302-.583-.199-.512-2.096-.297-2.438.276-3.587,1.248-4.982-1.342,1.702-1.503,3.64-2.515,5.265-3.967,1.855-1.658,2.198-2.275,4.644-1.46,1.307.435,3.912,1.519,4.736,2.605,1.049,1.382,1.216,3.613,2.535,5.08905a42.74754,42.74754,0,0,0,7.913,6.769,15.29735,15.29735,0,0,0,10.871,2.824c10.448-.988,16.084-4.151,19.766-8.33" transform="translate(-0.0005 -0.00146)"/><path class="c" d="M81.17992,25.27258c10.02-4.20294,10.588-12.706,10.588-12.706s-6.494,6.776-13.976,1.976c-1.207,8.07-13.484,3.532-13.484,3.532s6.672,11.47706,16.872,7.198" transform="translate(-0.0005 -0.00146)"/><path class="d" d="M128.46461,67.13074a4.72949,4.72949,0,0,0-.841-2.686,7.7527,7.7527,0,0,0-2.19-2.141,11.1257,11.1257,0,0,0-3.071-1.386,11.799,11.799,0,0,0-3.452-.47c-.381,0-.648-.004-.805-.013-.157-.007-.321-.016-.494-.025-.174-.007-.409-.012-.706-.012q-.447,0-1.436.05a21.01356,21.01356,0,0,0-3.131.346,6.14157,6.14157,0,0,0-1.807.619,2.024,2.024,0,0,0-.854.854,3.08486,3.08486,0,0,0-.272,1.039q-.04948.558-.05,1.177a3.57056,3.57056,0,0,1-.222,1.212v1.064a3.51147,3.51147,0,0,0,.605-.148q.50848-.1485,1.263-.359.75448-.21,1.659-.458.903-.246,1.769-.458.867-.21,1.621-.346a7.14539,7.14539,0,0,1,1.202-.136h2.277c.016,0,.231.041.643.124a5.57641,5.57641,0,0,1,1.349.482,4.56756,4.56756,0,0,1,1.337,1.015,2.43483,2.43483,0,0,1,.607,1.72,3.0999,3.0999,0,0,1-.359,1.485,3.64415,3.64415,0,0,1-.929,1.127,4.44282,4.44282,0,0,1-1.299.718,4.37447,4.37447,0,0,1-1.473.26h-1.56a4.4149,4.4149,0,0,1-.037-1.226q.06147-.75449.136-1.523.075-.76648.087-1.41a1.32252,1.32252,0,0,0-.186-.867c-.28,0-.536-.00305-.767-.012q-.34648-.012-.768-.025c-.28-.008-.619-.011-1.014-.011q-.594,0-1.51.048a.564.564,0,0,0-.545.322,2.201,2.201,0,0,0-.135.78c-.01.322-.017.689-.025,1.102a4.138,4.138,0,0,1-.236,1.262q-.17249,1.90494-.322,3.459-.1485,1.55245-.296,3.033-.14854,1.47894-.297,3.033t-.298,3.452q-.02553.222-.037.74-.012.519.037,1.159h4.555a2.68642,2.68642,0,0,0,.334-1.095q.111-.77545.186-1.735.07352-.96.136-1.993.063-1.035.173-1.883a7.58812,7.58812,0,0,1,.297-1.403c.124-.369.301-.555.532-.555h1.684a8.78394,8.78394,0,0,0,2.611-.371,9.49669,9.49669,0,0,0,2.203-.989,9.12464,9.12464,0,0,0,1.77-1.412,9.63769,9.63769,0,0,0,1.287-1.633,8.08124,8.08124,0,0,0,.792-1.646,4.64455,4.64455,0,0,0,.272-1.473Z" transform="translate(-0.0005 -0.00146)"/><path class="d" d="M135.27211,80.2a1.15,1.15,0,0,0-.335.087c-.09.041-.189.082-.296.124a1.43718,1.43718,0,0,1-.483.061,1.617,1.617,0,0,1-.705-.136c-.191-.09-.285-.292-.285-.606V78.517l1.831-15.595a1.63575,1.63575,0,0,1-.136-.506,3.06776,3.06776,0,0,1,.013-.471c.017-.173.041-.379.075-.619a7.7619,7.7619,0,0,0,.048-.978,4.9786,4.9786,0,0,1-.766.05q-.447,0-.942-.013c-.33-.007-.664-.016-1.002-.025-.338-.007-.656-.012-.953-.012a1.03021,1.03021,0,0,0-.644.13605.62147.62147,0,0,0-.173.421q-.0255.285-.037.756a4.06231,4.06231,0,0,1-.235,1.138l-1.832,17.797a15.18,15.18,0,0,0,.335,1.70795,5.6609,5.6609,0,0,0,.569,1.435,2.98,2.98,0,0,0,.903.991,2.3661,2.3661,0,0,0,1.361.371h1.213a3.44408,3.44408,0,0,0,1.621-.334,2.36971,2.36971,0,0,0,.978-.953,3.98268,3.98268,0,0,0,.446-1.523,12.12907,12.12907,0,0,0,.025-2.066,2.64524,2.64524,0,0,0-.594-.025" transform="translate(-0.0005 -0.00146)"/><path class="d" d="M153.19179,80.319c-.115.041-.252.095-.408.161a1.76221,1.76221,0,0,1-.656.098,1.56443,1.56443,0,0,1-.68-.135.57709.57709,0,0,1-.285-.581v-1.211l1.559-9.071a1.14782,1.14782,0,0,0-.409-.321,1.45361,1.45361,0,0,0-.681-.148h-.964c-.282,0-.557.004-.829.012-.273.00806-.557.013-.855.013-.28,0-.593-.009-.94-.025a2.80354,2.80354,0,0,0-.272.432c-.05.107-.116.161-.198.161a1.44427,1.44427,0,0,1-.558-.14905c-.222-.098-.473-.206-.754-.321a9.6079,9.6079,0,0,0-.928-.321,3.91682,3.91682,0,0,0-1.103-.149,6.29668,6.29668,0,0,0-3.081.829,9.47524,9.47524,0,0,0-2.673,2.224,11.30414,11.30414,0,0,0-1.893,3.262,10.85275,10.85275,0,0,0-.718,3.942,6.30544,6.30544,0,0,0,.569,2.794,6.19959,6.19959,0,0,0,1.373,1.89,5.33891,5.33891,0,0,0,1.684,1.063,4.36132,4.36132,0,0,0,1.498.334h1.089a4.06754,4.06754,0,0,0,1.46-.297,10.491,10.491,0,0,0,1.398-.655,15.92383,15.92383,0,0,0,1.449-.952c.114,0,.242.112.383.334a4.459,4.459,0,0,0,.618.74195,4.13261,4.13261,0,0,0,1.077.741,3.89765,3.89765,0,0,0,1.734.334,4.51281,4.51281,0,0,0,1.62-.247,2.90822,2.90822,0,0,0,1.015-.631,2.50779,2.50779,0,0,0,.569-.84,6.04965,6.04965,0,0,0,.285-.865q.099-.408.161-.742a.63811.63811,0,0,1,.211-.43195l.025-.074v-.791a2.08878,2.08878,0,0,0-.533-.396.49623.49623,0,0,0-.359-.012m-6.943-3.485a8.0367,8.0367,0,0,1-.742,1.67,5.65579,5.65579,0,0,1-1.201,1.449,2.43356,2.43356,0,0,1-1.634.618,1.43342,1.43342,0,0,1-.754-.18505,1.63629,1.63629,0,0,1-.52-.495,2.14952,2.14952,0,0,1-.309-.694,3.098,3.098,0,0,1-.099-.779,4.554,4.554,0,0,1,.309-1.485,7.18887,7.18887,0,0,1,.841-1.64605,6.13977,6.13977,0,0,1,1.226-1.337,2.29833,2.29833,0,0,1,1.46-.557,1.47527,1.47527,0,0,1,1.2.606,2.41027,2.41027,0,0,1,.483,1.548,4.75241,4.75241,0,0,1-.26,1.287" transform="translate(-0.0005 -0.00146)"/><path class="d" d="M161.44731,80.138c-.174.074-.343.141-.508.19806a1.714,1.714,0,0,1-.569.087.99234.99234,0,0,1-.669-.26.94914.94914,0,0,1-.297-.755l.373-2.574c0-.413.003-.834.012-1.263a6.36821,6.36821,0,0,1,.111-1.138,2.16627,2.16627,0,0,1,.321-.817.76094.76094,0,0,1,.669-.322h1.856a1.25846,1.25846,0,0,1-.16-.804c.024-.338.07-.718.135-1.139q.099-.63144.149-1.299a3.91408,3.91408,0,0,0-.124-1.312h-2.128a2.67386,2.67386,0,0,0,.012-.409c-.009-.091-.012-.243-.012-.457a9.52728,9.52728,0,0,1,.198-1.981,7.64745,7.64745,0,0,0,.197-1.485V62.947h-3.737a.68049.68049,0,0,0-.681.434,3.4677,3.4677,0,0,0-.234,1.101q-.051.669-.063,1.423a8.7081,8.7081,0,0,1-.136,1.423,2.63166,2.63166,0,0,1-.446,1.102,1.14937,1.14937,0,0,1-.99.433h-.519a.44731.44731,0,0,0-.347.173,1.568,1.568,0,0,0-.26.607,7.453,7.453,0,0,0-.173,1.188q-.06147.756-.061,1.943c0,.083-.004.116-.013.099-.008-.016-.013.04095-.013.173v.149a1.0541,1.0541,0,0,0,.026.223,2.15274,2.15274,0,0,1,1.027-.087,4.01331,4.01331,0,0,0,.655.087v2.574q0,.792-.05,1.547c-.032.504-.07.953-.111,1.349s-.078.722-.111.978c-.034.256-.05.4-.05.433v.99a3.39409,3.39409,0,0,0,.298,1.374,4.99271,4.99271,0,0,0,.754,1.225,3.98651,3.98651,0,0,0,1.027.879,2.194,2.194,0,0,0,1.115.334h1.583a3.56434,3.56434,0,0,0,1.461-.248,2.3209,2.3209,0,0,0,.866-.643,2.26566,2.26566,0,0,0,.446-.903,7.27832,7.27832,0,0,0,.173-1.04c.033-.355.067-.706.099-1.052a3.57352,3.57352,0,0,1,.198-.916v-.594a3.397,3.397,0,0,0-.742.198c-.198.083-.384.16-.557.235" transform="translate(-0.0005 -0.00146)"/><path class="d" d="M197.59758,80.423a2.36264,2.36264,0,0,1-.347.16q-.222.087-.47.162c-.165.049-.313.091-.445.12305a1.4381,1.4381,0,0,1-.247.05c-.429,0-.698-.119-.805-.359a4.54669,4.54669,0,0,1-.26-1.225l.595-6.436a5.2421,5.2421,0,0,0-.248-1.609,3.56836,3.56836,0,0,0-.756-1.324,3.70594,3.70594,0,0,0-1.262-.891,4.34142,4.34142,0,0,0-1.769-.334,4.445,4.445,0,0,0-1.894.396,7.75934,7.75934,0,0,0-1.522.916,12.103,12.103,0,0,0-1.151,1.002,4.328,4.328,0,0,1-.781.656v-2.475h-4.257l-1.373,11.201a1.07,1.07,0,0,0-.174-.105.49607.49607,0,0,0-.359-.012c-.115.041-.251.095-.407.161a1.768,1.768,0,0,1-.657.098,1.56751,1.56751,0,0,1-.68-.135.5771.5771,0,0,1-.285-.581v-1.211l1.559-9.071a1.14768,1.14768,0,0,0-.409-.321,1.45224,1.45224,0,0,0-.68-.148h-.965q-.42152,0-.829.012c-.273.00806-.557.013-.855.013-.28,0-.593-.009-.94-.025a2.80275,2.80275,0,0,0-.272.432c-.05.107-.116.161-.198.161a1.43607,1.43607,0,0,1-.557-.14905c-.223-.098-.474-.206-.755-.321a9.60719,9.60719,0,0,0-.928-.321,3.90963,3.90963,0,0,0-1.102-.149,6.291,6.291,0,0,0-3.081.829,9.46527,9.46527,0,0,0-2.674,2.224,11.32654,11.32654,0,0,0-1.893,3.262,10.85275,10.85275,0,0,0-.718,3.942,6.30544,6.30544,0,0,0,.569,2.794,6.18517,6.18517,0,0,0,1.374,1.89,5.324,5.324,0,0,0,1.683,1.063,4.36141,4.36141,0,0,0,1.498.334h1.089a4.06758,4.06758,0,0,0,1.46-.297,10.56576,10.56576,0,0,0,1.399-.655,16.06522,16.06522,0,0,0,1.448-.952c.115,0,.242.112.383.334a4.459,4.459,0,0,0,.618.74195,4.1225,4.1225,0,0,0,1.078.741,3.8902,3.8902,0,0,0,1.733.334,4.5226,4.5226,0,0,0,1.621-.247,2.90338,2.90338,0,0,0,1.014-.631,2.5193,2.5193,0,0,0,.533-.772v1.402h4.183a5.51482,5.51482,0,0,0,.26-.978q.186-.85344.495-2.054.309-1.2.742-2.575a17.84027,17.84027,0,0,1,1.003-2.524,7.9403,7.9403,0,0,1,1.287-1.918,2.161,2.161,0,0,1,1.609-.768.7769.7769,0,0,1,.681.297.99526.99526,0,0,1,.21.57v1.51l-.52,4.257a5.09249,5.09249,0,0,0,.397,2.129,4.45536,4.45536,0,0,0,.952,1.398,3.49612,3.49612,0,0,0,1.176.767,3.02922,3.02922,0,0,0,1.04.235h1.386a3.21318,3.21318,0,0,0,1.324-.222,1.91639,1.91639,0,0,0,.755-.594,2.15067,2.15067,0,0,0,.371-.842,7.53433,7.53433,0,0,0,.137-.977c.024-.339.044-.669.062-.991a3.80551,3.80551,0,0,1,.148-.903v-.495Zm-24.468-3.589a8.0367,8.0367,0,0,1-.742,1.67,5.67272,5.67272,0,0,1-1.2,1.449,2.438,2.438,0,0,1-1.635.618,1.43342,1.43342,0,0,1-.754-.18505,1.63629,1.63629,0,0,1-.52-.495,2.14952,2.14952,0,0,1-.309-.694,3.098,3.098,0,0,1-.099-.779,4.554,4.554,0,0,1,.309-1.485,7.15264,7.15264,0,0,1,.842-1.64605,6.11045,6.11045,0,0,1,1.225-1.337,2.29831,2.29831,0,0,1,1.46-.557,1.47846,1.47846,0,0,1,1.201.606,2.41563,2.41563,0,0,1,.482,1.548,4.7528,4.7528,0,0,1-.26,1.287" transform="translate(-0.0005 -0.00146)"/><path class="d" d="M30.84151,80.27454a.78712.78712,0,0,1-.532-.297.92125.92125,0,0,1-.284-.644v-1.51l1.163-11.732v-1.411a3.4864,3.4864,0,0,0-.347-1.485,4.51446,4.51446,0,0,0-.94-1.325,4.83237,4.83237,0,0,0-1.373-.94,3.95627,3.95627,0,0,0-1.672-.36,4.60366,4.60366,0,0,0-2.016.471,9.60219,9.60219,0,0,0-1.821,1.139,14.32311,14.32311,0,0,0-1.497,1.361q-.65553.693-1.002,1.139a.90479.90479,0,0,1-.322-.446q-.1485-.34653-.359-.792a8.30883,8.30883,0,0,0-.52-.928,4.13359,4.13359,0,0,0-.779-.891,3.81819,3.81819,0,0,0-1.164-.669,4.73219,4.73219,0,0,0-1.659-.26,5.26578,5.26578,0,0,0-1.892.335,8.03819,8.03819,0,0,0-1.635.841,9.14,9.14,0,0,0-1.361,1.11506q-.6075.606-1.089,1.138c-.321.355-.603.66-.841.916a1.674,1.674,0,0,1-.583.458c-.015-.033-.058-.174-.123-.422a7.42011,7.42011,0,0,0-.309-.878,9.75207,9.75207,0,0,0-.544-1.089,4.92121,4.92121,0,0,0-.831-1.065,4.50523,4.50523,0,0,0-1.138-.804,3.34325,3.34325,0,0,0-1.51-.322H2.4505a2.46623,2.46623,0,0,0-1.596.384,1.63315,1.63315,0,0,0-.532,1.002,7.93042,7.93042,0,0,0-.087,1.399,4.99072,4.99072,0,0,1-.235,1.572v.693a3.07428,3.07428,0,0,0,.52.074,1.633,1.633,0,0,0,.284-.024c.091-.017.215-.034.371-.05a6.44772,6.44772,0,0,1,.805,0,1.07883,1.07883,0,0,1,.978.569,3.4141,3.4141,0,0,1,.309,1.312l-.47,4.678v1.064l-1.039,11.04a2.17837,2.17837,0,0,1,0,.47h4.331a3.50059,3.50059,0,0,0,.42-1.547q.1005-1.05157.212-2.425.111-1.37392.333-2.97a15.45122,15.45122,0,0,1,.792-3.157,24.96025,24.96025,0,0,1,2.129-4.468,22.00951,22.00951,0,0,1,2.13-2.933,10.20271,10.20271,0,0,1,1.707-1.608,3.20269,3.20269,0,0,1,.842-.495.51085.51085,0,0,1,.408.272,1.15645,1.15645,0,0,1,.185.668c0,.149-.017.392-.049.73-.033.33905-.074.681-.124,1.028-.049.346-.107.776-.172,1.287v1.064l-1.412,12.896v1.411c.412.049.759.078,1.039.087q.4215.012.855,0c.289-.009.619-.025.99-.05s.853-.037,1.448-.037a3.4864,3.4864,0,0,0,.247-.903c.083-.454.156-.924.223-1.411q.0975-.7305.161-1.313c.041-.387.061-.59.061-.606,0-.379.026-.833.075-1.361a17.41725,17.41725,0,0,1,.272-1.77,18.44035,18.44035,0,0,1,.57-2.104,21.24658,21.24658,0,0,1,.965-2.389,28.84145,28.84145,0,0,1,1.794-3.279q.90449-1.39956,1.647-2.34a11.92569,11.92569,0,0,1,1.263-1.41q.51751-.46958.692-.47a.42445.42445,0,0,1,.272.099c.082.066.19.148.322.247v1.658l-1.286,12.649c0,.016.012.157.036.421.025.264.075.586.148.965a9.00015,9.00015,0,0,0,.347,1.238,4.88375,4.88375,0,0,0,.643,1.23706,3.50633,3.50633,0,0,0,1.004.941,2.6954,2.6954,0,0,0,1.46.372h1.039a2.9157,2.9157,0,0,0,1.486-.323,1.9982,1.9982,0,0,0,.816-.915,4.13863,4.13863,0,0,0,.334-1.411q.063-.81748.062-1.808v-1.162a3.813,3.813,0,0,0-.966.371,1.25545,1.25545,0,0,1-.668.198" transform="translate(-0.0005 -0.00146)"/><path class="d" d="M49.30721,73.36835h-.817a1.61768,1.61768,0,0,1-1.275.025,2.29006,2.29006,0,0,1-.804-.767,11.1322,11.1322,0,0,1-.681-1.189,5.35373,5.35373,0,0,0-.89-1.262,4.797,4.797,0,0,0-1.436-1.015,5.413,5.413,0,0,0-2.315-.421h-1.163a6.11069,6.11069,0,0,0-2.475.582,8.68292,8.68292,0,0,0-2.414,1.609,8.82953,8.82953,0,0,0-1.832,2.45,6.70841,6.70841,0,0,0-.73,3.107v1.757a4.73029,4.73029,0,0,0,.199,1.238,7.81629,7.81629,0,0,0,.581,1.473,9.64591,9.64591,0,0,0,.952,1.49695,7.71646,7.71646,0,0,0,1.313,1.336,6.36714,6.36714,0,0,0,1.645.954,5.2277,5.2277,0,0,0,1.944.359h1.064a5.804,5.804,0,0,0,2.389-.47,7.13189,7.13189,0,0,0,1.844-1.177,8.4842,8.4842,0,0,0,1.361-1.534,13.12087,13.12087,0,0,0,.928-1.547,10.36384,10.36384,0,0,0,.533-1.225q.1725-.507.198-.557a1.06377,1.06377,0,0,1,.457-.372,5.36474,5.36474,0,0,0,.583-.297,1.98941,1.98941,0,0,0,.531-.457,1.71412,1.71412,0,0,0,.31-.879Zm-7.314,6.126a3.84345,3.84345,0,0,1-.904.78,2.29759,2.29759,0,0,1-1.262.346,1.91794,1.91794,0,0,1-1.188-.371,3.09628,3.09628,0,0,1-.817-.916,4.19763,4.19763,0,0,1-.471-1.163,4.81062,4.81062,0,0,1-.148-1.114,4.69749,4.69749,0,0,1,.186-1.225,4.94072,4.94072,0,0,1,.556-1.287,3.52533,3.52533,0,0,1,.928-1.015,2.13922,2.13922,0,0,1,1.3-.409,1.05053,1.05053,0,0,1,.421.099,2.21355,2.21355,0,0,1,.421.248,2.37948,2.37948,0,0,1,.322.285.38609.38609,0,0,1,.123.21.40839.40839,0,0,1-.086.223c-.058.083-.124.181-.198.297a2.15112,2.15112,0,0,0-.198.396,1.42354,1.42354,0,0,0-.087.52,1.80589,1.80589,0,0,0,.285.941,6.7381,6.7381,0,0,0,.619.866q.333.396.619.705c.188.207.284.351.284.433a5.71837,5.71837,0,0,1-.705,1.15094" transform="translate(-0.0005 -0.00146)"/><path class="d" d="M94.98811,80.29968q-.50853.24747-.681.346h-.496v-.86694l1.214-10.544v-.495a14.61049,14.61049,0,0,0-2.216-.124q-1.077.02554-2.364.124a17.45326,17.45326,0,0,1-.964,4.591,18.15331,18.15331,0,0,1-1.597,3.342,9.15953,9.15953,0,0,1-1.659,2.042,2.42108,2.42108,0,0,1-1.126.693.8024.8024,0,0,1-.644-.259,1.56411,1.56411,0,0,1-.223-.979l.867-9.182v-.248h-4.208a3.20522,3.20522,0,0,0-.198.829q-.12452.7305-.26,1.783-.135,1.05148-.272,2.338-.13651,1.28851-.273,2.513-.13651,1.22552-.234,2.277-.10049,1.05147-.161,1.65795c-.012.116-.022.212-.03.296a3.82005,3.82005,0,0,1-.367.162,1.68974,1.68974,0,0,1-.557.1c-.478,0-.766-.1-.865-.298a1.849,1.849,0,0,1-.149-.816l1.238-9.035v-.446h-.669a3.05441,3.05441,0,0,1-.384.074c-.207.034-.429.071-.668.112-.24.041-.462.079-.668.111-.206.034-.318.05-.335.05h-3.489a.47819.47819,0,0,1-.421-.149.91485.91485,0,0,1-.136-.359c-.026-.14-.046-.292-.062-.457a1.03294,1.03294,0,0,0-.161-.458,1.0638,1.0638,0,0,0-.446-.36,2.17128,2.17128,0,0,0-.903-.148c-.396,0-.781.017-1.152.05a1.79292,1.79292,0,0,0-.978.383,2.24355,2.24355,0,0,0-.667,1.077,6.96547,6.96547,0,0,0-.247,2.104,2.64189,2.64189,0,0,0,.123.854,6.0183,6.0183,0,0,0,.26.644c.09.189.177.359.26.507a.95728.95728,0,0,1,.124.47,4.33265,4.33265,0,0,1-.099.668c-.066.331-.154.718-.26,1.164q-.16048.669-.359,1.423-.198.756-.384,1.423c-.074.268-.144.512-.213.744a2.49446,2.49446,0,0,0-.492.172,2.041,2.041,0,0,1-.867.223.66391.66391,0,0,1-.656-.483,2.65485,2.65485,0,0,1-.185-.952l1.905-17.105v-1.188h-4.182a.49236.49236,0,0,0-.47.334,2.59672,2.59672,0,0,0-.199.76794,7.08263,7.08263,0,0,0-.049.829v.47q-.0255.1485-.087.64405c-.041.33-.087.72595-.135,1.188q-.075.693-.163,1.473-.087.78-.16,1.473-.075.693-.124,1.212c-.034.34705-.049.578-.049.69306a3.03686,3.03686,0,0,1-.792-.222c-.215-.099-.42-.202-.619-.31a4.97221,4.97221,0,0,0-.631-.284,2.39748,2.39748,0,0,0-.829-.124h-1.56a3.23953,3.23953,0,0,0-1.386.371,7.27311,7.27311,0,0,0-1.559,1.052,13.10618,13.10618,0,0,0-1.56,1.609,12.13516,12.13516,0,0,0-2.314,4.468,9.83083,9.83083,0,0,0-.359,2.649,6.92487,6.92487,0,0,0,.569,2.933,6.2319,6.2319,0,0,0,1.423,2.005,5.67273,5.67273,0,0,0,1.857,1.151,5.46817,5.46817,0,0,0,1.894.371,6.004,6.004,0,0,0,2.091-.335,8.17815,8.17815,0,0,0,1.547-.742,7.68991,7.68991,0,0,0,1.016-.743c.246-.222.412-.33405.494-.33405.099,0,.235.096.408.285q.25952.285.631.619a4.89476,4.89476,0,0,0,.879.619,2.42543,2.42543,0,0,0,1.2.284h1.313a2.74832,2.74832,0,0,0,1.361-.284,1.93711,1.93711,0,0,0,.742-.718,2.66525,2.66525,0,0,0,.323-.965q.072-.53247.123-1.04c.018-.184.044-.338.067-.505.214-.006.4-.011.552-.015.313-.008.561-.008.742,0,.182.009.347.016.496.025.149.00806.346.012.594.012a3.86554,3.86554,0,0,0,.557-1.114,14.55065,14.55065,0,0,0,.408-1.46q.17249-.76658.322-1.56.1485-.792.335-1.435a3.85334,3.85334,0,0,1,.444-1.04.75156.75156,0,0,1,.631-.396h.446a1.6253,1.6253,0,0,1,.458.062.89787.89787,0,0,1,.359.198.70235.70235,0,0,1,.198.408l-.668,4.97595v1.58405a2.76122,2.76122,0,0,0,.247,1.076,3.56283,3.56283,0,0,0,.706,1.065,3.9152,3.9152,0,0,0,1.101.805,3.17013,3.17013,0,0,0,1.436.321,6.85749,6.85749,0,0,0,1.658-.16,2.17817,2.17817,0,0,0,.941-.458,1.47368,1.47368,0,0,0,.433-.706,5.56133,5.56133,0,0,0,.161-.879c.003-.029.005-.066.008-.096a4.26476,4.26476,0,0,0,.883,1.321,3.44923,3.44923,0,0,0,1.089.743,2.6191,2.6191,0,0,0,.966.235h1.361a2.98524,2.98524,0,0,0,1.484-.359,7.04025,7.04025,0,0,0,1.176-.816q.534-.45748,1.028-.879a2.44939,2.44939,0,0,1,1.015-.54394v1.237a6.25568,6.25568,0,0,1-.495,1.01495q-.34647.594-.706,1.299a11.47193,11.47193,0,0,0-.631,1.498,4.97565,4.97565,0,0,0-.272,1.634v.989a6.67194,6.67194,0,0,0,.037.718,2.7893,2.7893,0,0,0,.136.631,1.18838,1.18838,0,0,0,.273.459.57211.57211,0,0,0,.42.173h.99a4.43935,4.43935,0,0,0,1.857-.334,3.08223,3.08223,0,0,0,1.139-.867,3.59268,3.59268,0,0,0,.618-1.175,11.052,11.052,0,0,0,.31-1.263q.111-.61953.185-1.138a1.59721,1.59721,0,0,1,.854-1.312,9.64277,9.64277,0,0,1,.915-.508q.48455-.23547.905-.433.42-.198.544-.272a1.15541,1.15541,0,0,0,.334-.743q.111-.594.185-1.324.075-.729.149-1.461a5.517,5.517,0,0,1,.224-1.175v-.495a14.0424,14.0424,0,0,0-1.795.644m-35.137-4.654a3.36852,3.36852,0,0,1-.135.829,8.12041,8.12041,0,0,1-.385,1.089,10.29205,10.29205,0,0,1-.593,1.176,6.9829,6.9829,0,0,1-.768,1.077,4.22158,4.22158,0,0,1-.879.779,1.723,1.723,0,0,1-.952.297,1.4437,1.4437,0,0,1-.681-.16095,1.87738,1.87738,0,0,1-.533-.408,1.95574,1.95574,0,0,1-.345-.532,1.36777,1.36777,0,0,1-.125-.557v-.965a4.10953,4.10953,0,0,1,.31-1.312,8.95158,8.95158,0,0,1,.829-1.671,6.84525,6.84525,0,0,1,1.188-1.436,2.05532,2.05532,0,0,1,1.386-.606,1.54055,1.54055,0,0,1,.681.149,2.0748,2.0748,0,0,1,.532.358,1.87,1.87,0,0,1,.347.433.81947.81947,0,0,1,.123.372Z" transform="translate(-0.0005 -0.00146)"/><path class="d" d="M86.89021,67.26483a8.8102,8.8102,0,0,0,.829.359q.4575.17257,1.225.445.24752,0,.545-.433a7.009,7.009,0,0,0,.594-1.101q.297-.669.581-1.486.285-.816.508-1.608.22351-.792.359-1.448a5.42165,5.42165,0,0,0,.136-1.003.52917.52917,0,0,0-.285-.47,2.014,2.014,0,0,0-.668-.247,4.77405,4.77405,0,0,0-.767-.087c-.256-.008-.45-.013-.582-.013h-1.634a16.05745,16.05745,0,0,1-.185,2.463q-.186,1.20154-.421,2.129-.23551.92853-.421,1.522a5.25334,5.25334,0,0,0-.186.669q0,.123.372.309" transform="translate(-0.0005 -0.00146)"/></g></svg>