<svg xmlns="http://www.w3.org/2000/svg" xmlns:xlink="http://www.w3.org/1999/xlink" viewBox="0 0 790.58 618.13"><defs><style>.cls-1,.cls-6{fill:none;}.cls-2{fill:#595a5c;}.cls-3{fill:#b6906c;}.cls-4{fill:#fff;}.cls-5{fill:#231f20;}.cls-6{stroke:#000;stroke-linecap:round;stroke-linejoin:round;stroke-width:0.35px;}.cls-7{clip-path:url(#clip-path);}.cls-8{font-size:10px;fill:#58595b;font-family:Montserrat-Regular, Montserrat;}.cls-9{letter-spacing:-0.01em;}.cls-10{letter-spacing:0em;}.cls-11{letter-spacing:-0.01em;}.cls-12{letter-spacing:0em;}.cls-13{letter-spacing:0em;}</style><clipPath id="clip-path"><polygon class="cls-1" points="227.45 171.78 227.45 365.83 229.2 365.83 229.2 452.46 549.47 452.46 549.47 365.83 553.67 365.83 553.67 171.78 227.45 171.78"/></clipPath></defs><g id="Layer_2" data-name="Layer 2"><g id="Layer_1-2" data-name="Layer 1"><path class="cls-2" d="M55.31,597.13H57.1V609.9H55.31Zm.92,6.11h4.09a1.89,1.89,0,0,0,1-.27,1.82,1.82,0,0,0,.68-.77,2.67,2.67,0,0,0,.24-1.16,2.7,2.7,0,0,0-.24-1.16,1.82,1.82,0,0,0-1.7-1H56.23v-1.7h4a4.09,4.09,0,0,1,2,.48A3.45,3.45,0,0,1,63.62,599a4.64,4.64,0,0,1,0,4.11,3.34,3.34,0,0,1-1.35,1.36,4,4,0,0,1-2,.49h-4Z"/><path class="cls-2" d="M67.7,606.33a2.07,2.07,0,0,0,.49,1.48,1.76,1.76,0,0,0,1.37.52,1.89,1.89,0,0,0,1.37-.46,1.79,1.79,0,0,0,.48-1.33l.12,1.91A2.58,2.58,0,0,1,69.06,610a2.89,2.89,0,0,1-2.33-1,4.08,4.08,0,0,1-.82-2.73v-5.55H67.7Zm.22-7.86a1.93,1.93,0,0,1-.56-1.5,2.07,2.07,0,0,1,.56-1.57,2.56,2.56,0,0,1,3.18,0,2.08,2.08,0,0,1,.57,1.56,1.94,1.94,0,0,1-.57,1.5,2.65,2.65,0,0,1-3.18,0Zm2.26-.86a.94.94,0,0,0,.24-.68,1,1,0,0,0-.24-.7.91.91,0,0,0-.67-.25.92.92,0,0,0-.67.25,1,1,0,0,0-.23.7,1,1,0,0,0,.23.68.92.92,0,0,0,.67.24A.9.9,0,0,0,70.18,597.61Zm1.23,3.17h1.78v9.12H71.41Z"/><path class="cls-2" d="M77.1,609.63A2.82,2.82,0,0,1,76,608.36a5.08,5.08,0,0,1-.36-2v-2a5.05,5.05,0,0,1,.36-2,2.71,2.71,0,0,1,1-1.27,3,3,0,0,1,1.65-.44,2.71,2.71,0,0,1,1.48.42,3.22,3.22,0,0,1,1.09,1.19l-.18,1.86a2.19,2.19,0,0,0-.22-1,1.48,1.48,0,0,0-.61-.63,2,2,0,0,0-1-.21,1.71,1.71,0,0,0-1.37.55,2.26,2.26,0,0,0-.49,1.56v2a2.19,2.19,0,0,0,.49,1.54,1.74,1.74,0,0,0,1.37.54,1.93,1.93,0,0,0,1-.23,1.45,1.45,0,0,0,.61-.64,2.25,2.25,0,0,0,.22-1l.12,1.92a2.66,2.66,0,0,1-.89,1.14,2.56,2.56,0,0,1-1.53.45A3.19,3.19,0,0,1,77.1,609.63Zm4-12.5H82.9V609.9H81.11Z"/><path class="cls-2" d="M87.09,609.57a3.09,3.09,0,0,1-1.29-1.36,4.85,4.85,0,0,1-.44-2.15v-1.48a4.71,4.71,0,0,1,.44-2.12,3.12,3.12,0,0,1,1.29-1.35,4.71,4.71,0,0,1,4.06,0,3.12,3.12,0,0,1,1.29,1.35,4.71,4.71,0,0,1,.44,2.12v1.51a4.79,4.79,0,0,1-.44,2.13,3.12,3.12,0,0,1-1.29,1.35,4.62,4.62,0,0,1-4.06,0Zm3.49-1.83a2.43,2.43,0,0,0,.51-1.65v-1.51a2.43,2.43,0,0,0-.51-1.65,1.88,1.88,0,0,0-1.46-.58,1.85,1.85,0,0,0-1.45.58,2.38,2.38,0,0,0-.52,1.65v1.51a2.38,2.38,0,0,0,.52,1.65,1.82,1.82,0,0,0,1.45.59A1.85,1.85,0,0,0,90.58,607.74Z"/><path class="cls-2" d="M95.43,600.78h1.79v9.12H95.43Zm4.42,1.72a2.16,2.16,0,0,0-.83-.15,1.83,1.83,0,0,0-1.33.47,1.79,1.79,0,0,0-.47,1.31L97,602.37a3.32,3.32,0,0,1,1.09-1.27,2.58,2.58,0,0,1,1.48-.45,3.39,3.39,0,0,1,1.13.18,2.62,2.62,0,0,1,.88.53l-1.17,1.58A1.56,1.56,0,0,0,99.85,602.5Z"/><path class="cls-2" d="M102.15,600.78H104l2.81,7.93-1,1.94Zm8.07,0L106.34,612a2.6,2.6,0,0,1-.56,1,1.87,1.87,0,0,1-.84.52,4,4,0,0,1-1.23.16h-.36V612h.36a1.46,1.46,0,0,0,.8-.2,1.74,1.74,0,0,0,.51-.7l3.38-10.31Z"/><path class="cls-2" d="M113.51,609.88a5.76,5.76,0,0,1-1.32-.48,4.89,4.89,0,0,1-1.13-.79l1.06-1.31a5.86,5.86,0,0,0,1.47.85,4.18,4.18,0,0,0,1.44.28,3.11,3.11,0,0,0,1.6-.33,1.1,1.1,0,0,0,.53-1,.79.79,0,0,0-.29-.66,1.66,1.66,0,0,0-.72-.29c-.29,0-.69-.1-1.22-.14h-.15l-.14,0h-.15a6.45,6.45,0,0,1-1.5-.26,2,2,0,0,1-1-.7,2.38,2.38,0,0,1-.41-1.49,3.07,3.07,0,0,1,.39-1.61,2.41,2.41,0,0,1,1.18-1,5.29,5.29,0,0,1,2-.32,6.38,6.38,0,0,1,2.6.52,6.16,6.16,0,0,1,1.13.66l-1.08,1.31a5.59,5.59,0,0,0-1.35-.66,4,4,0,0,0-1.3-.22,2.44,2.44,0,0,0-1.37.31,1.08,1.08,0,0,0-.46.94.64.64,0,0,0,.26.55,1.72,1.72,0,0,0,.66.25c.26,0,.64.07,1.12.1h.34a7.67,7.67,0,0,1,1.63.25,2.24,2.24,0,0,1,1.13.77,2.62,2.62,0,0,1,.45,1.65,2.92,2.92,0,0,1-.42,1.63,2.54,2.54,0,0,1-1.27,1A5.88,5.88,0,0,1,115,610,7.38,7.38,0,0,1,113.51,609.88Z"/><path class="cls-2" d="M126,597.13h1.8V609.9H126Zm2.6,12.5a2.39,2.39,0,0,1-.93-1.16l.13-1.91a2.22,2.22,0,0,0,.21,1,1.48,1.48,0,0,0,.61.63,1.93,1.93,0,0,0,1,.22,1.74,1.74,0,0,0,1.37-.54,2.18,2.18,0,0,0,.49-1.53v-2a2.26,2.26,0,0,0-.49-1.56,1.71,1.71,0,0,0-1.37-.55,2,2,0,0,0-1,.21,1.36,1.36,0,0,0-.61.62,2.12,2.12,0,0,0-.21,1l-.19-1.76a3.37,3.37,0,0,1,1.08-1.24,2.67,2.67,0,0,1,1.49-.43,3,3,0,0,1,1.65.43,2.9,2.9,0,0,1,1.06,1.27,5.1,5.1,0,0,1,.36,2v2a4.94,4.94,0,0,1-.37,2,2.79,2.79,0,0,1-1.08,1.26,3.25,3.25,0,0,1-1.71.44A2.73,2.73,0,0,1,128.57,609.63Z"/><path class="cls-2" d="M134.46,600.78h1.82l2.81,7.93-1,1.94Zm8.07,0L138.65,612a2.6,2.6,0,0,1-.56,1,1.87,1.87,0,0,1-.84.52,4,4,0,0,1-1.23.16h-.36V612H136a1.46,1.46,0,0,0,.8-.2,1.74,1.74,0,0,0,.51-.7l3.37-10.31Z"/><path class="cls-2" d="M143.57,600.78h4.12v1.62h-4.12Zm1.46,8.56a2.77,2.77,0,0,1-.52-1.81v-9.4h1.8v9.42a.84.84,0,0,0,.13.51.46.46,0,0,0,.39.18h.86V610h-1A2,2,0,0,1,145,609.34Z"/><path class="cls-2" d="M151.94,606.33a2.07,2.07,0,0,0,.49,1.48,1.76,1.76,0,0,0,1.37.52,1.91,1.91,0,0,0,1.37-.46,1.79,1.79,0,0,0,.48-1.33l.12,1.91A2.58,2.58,0,0,1,153.3,610a2.89,2.89,0,0,1-2.33-1,4.08,4.08,0,0,1-.82-2.73v-5.55h1.79Zm3.71-5.55h1.78v9.12h-1.78Z"/><rect class="cls-3" x="612.92" y="591.68" width="35.43" height="2.83"/><path class="cls-4" d="M648.48,594.64H612.79v-3.08h35.69ZM613,594.39h35.19v-2.58H613Z"/><rect class="cls-3" x="612.92" y="601.6" width="70.74" height="2.83"/><path class="cls-4" d="M683.78,604.56h-71v-3.08h71ZM613,604.31h70.49v-2.58H613Z"/><rect class="cls-3" x="612.92" y="612.72" width="177.16" height="2.84"/><path class="cls-4" d="M790.21,615.68H612.79V612.6H790.21ZM613,615.43H790v-2.58H613Z"/><path class="cls-5" d="M587.26,596.28h-.8v-4.82l-.81.5v-.83l.81-.53h.8Z"/><path class="cls-5" d="M589,595.91a1.67,1.67,0,0,1-.41-1.19v-2.58A1.65,1.65,0,0,1,589,591a2,2,0,0,1,2.42,0,1.65,1.65,0,0,1,.41,1.19v2.58a1.65,1.65,0,0,1-.41,1.19,2,2,0,0,1-2.42,0Zm1.83-.55a.89.89,0,0,0,.2-.64v-2.58a.89.89,0,0,0-.2-.64.82.82,0,0,0-.62-.22.86.86,0,0,0-.63.22.94.94,0,0,0-.2.64v2.58a.9.9,0,0,0,.21.64,1,1,0,0,0,1.24,0Z"/><path class="cls-5" d="M593.22,595.91a1.67,1.67,0,0,1-.41-1.19v-2.58a1.65,1.65,0,0,1,.41-1.19,2,2,0,0,1,2.42,0,1.61,1.61,0,0,1,.41,1.19v2.58a1.65,1.65,0,0,1-.41,1.19,2,2,0,0,1-2.42,0Zm1.83-.55a.9.9,0,0,0,.21-.64v-2.58a.94.94,0,0,0-.2-.64.86.86,0,0,0-.63-.22.82.82,0,0,0-.62.22.89.89,0,0,0-.2.64v2.58a.89.89,0,0,0,.2.64,1,1,0,0,0,1.24,0Z"/><path class="cls-5" d="M600.1,596.13a1.45,1.45,0,0,1-.6-.6,2.06,2.06,0,0,1-.21-1v-.67a2,2,0,0,1,.21-.94,1.37,1.37,0,0,1,.6-.59,2,2,0,0,1,.95-.21,2.21,2.21,0,0,1,.59.08,1.68,1.68,0,0,1,.51.22,1.54,1.54,0,0,1,.37.35l-.58.52a1.17,1.17,0,0,0-.4-.3,1.13,1.13,0,0,0-.48-.11.94.94,0,0,0-.71.26,1,1,0,0,0-.26.72v.67a1,1,0,0,0,.25.74.94.94,0,0,0,.72.27,1,1,0,0,0,.48-.12,1,1,0,0,0,.4-.32l.58.56a1.38,1.38,0,0,1-.38.34,1.62,1.62,0,0,1-.5.22,2.27,2.27,0,0,1-.59.07A2.12,2.12,0,0,1,600.1,596.13Z"/><path class="cls-5" d="M603.4,592.22h.79v4.06h-.79Zm2.42,1.6a1,1,0,0,0-.21-.67.78.78,0,0,0-.6-.23.81.81,0,0,0-.6.21.73.73,0,0,0-.22.58l-.08-.78a1.46,1.46,0,0,1,.49-.57,1.22,1.22,0,0,1,.67-.2,1.33,1.33,0,0,1,.73.2,1.18,1.18,0,0,1,.46.56,2.4,2.4,0,0,1,.15.89v2.47h-.79Zm2.42,0a.93.93,0,0,0-.22-.67.85.85,0,0,0-.63-.23.72.72,0,0,0-.57.23.9.9,0,0,0-.21.64l-.16-.78a1.61,1.61,0,0,1,.51-.63,1.23,1.23,0,0,1,.69-.22,1.37,1.37,0,0,1,.75.2,1.09,1.09,0,0,1,.47.56,2.21,2.21,0,0,1,.17.89v2.47h-.8Z"/><path class="cls-5" d="M584.33,605.5l2-2.64a1.85,1.85,0,0,0,.27-.47,1.29,1.29,0,0,0,.09-.45h0a.67.67,0,0,0-.2-.53.81.81,0,0,0-.56-.19.76.76,0,0,0-.56.21,1,1,0,0,0-.27.58h-.82a2,2,0,0,1,.29-.83,1.42,1.42,0,0,1,.56-.53,1.67,1.67,0,0,1,.79-.18,1.93,1.93,0,0,1,.87.17,1.21,1.21,0,0,1,.54.51,1.55,1.55,0,0,1,.19.8h0a1.84,1.84,0,0,1-.12.63,2.8,2.8,0,0,1-.35.63l-1.65,2.24h2.15v.76h-3.2Z"/><path class="cls-5" d="M589,605.83a1.67,1.67,0,0,1-.41-1.19v-2.58a1.65,1.65,0,0,1,.41-1.19,2,2,0,0,1,2.42,0,1.65,1.65,0,0,1,.41,1.19v2.58a1.65,1.65,0,0,1-.41,1.19,2,2,0,0,1-2.42,0Zm1.83-.55a.89.89,0,0,0,.2-.64v-2.58a.89.89,0,0,0-.2-.64.82.82,0,0,0-.62-.22.86.86,0,0,0-.63.22.94.94,0,0,0-.19.64v2.58a.89.89,0,0,0,.2.64,1,1,0,0,0,1.24,0Z"/><path class="cls-5" d="M593.22,605.83a1.67,1.67,0,0,1-.41-1.19v-2.58a1.61,1.61,0,0,1,.42-1.19,1.59,1.59,0,0,1,1.2-.42,1.45,1.45,0,0,1,1.62,1.61v2.58a1.61,1.61,0,0,1-.41,1.19,2,2,0,0,1-2.42,0Zm1.84-.55a.94.94,0,0,0,.2-.64v-2.58a.94.94,0,0,0-.2-.64.84.84,0,0,0-.63-.22.82.82,0,0,0-.62.22.89.89,0,0,0-.2.64v2.58a.89.89,0,0,0,.2.64.82.82,0,0,0,.62.22A.86.86,0,0,0,595.06,605.28Z"/><path class="cls-5" d="M600.1,606.05a1.45,1.45,0,0,1-.6-.6,2.06,2.06,0,0,1-.2-1v-.67a2,2,0,0,1,.2-.94,1.37,1.37,0,0,1,.6-.59,2,2,0,0,1,.95-.21,2.35,2.35,0,0,1,.6.08,1.73,1.73,0,0,1,.5.22,1.38,1.38,0,0,1,.37.35l-.58.52a1.08,1.08,0,0,0-.4-.3,1.13,1.13,0,0,0-.48-.11,1,1,0,0,0-.71.26,1,1,0,0,0-.26.72v.67a1,1,0,0,0,.25.74.94.94,0,0,0,.72.27,1.14,1.14,0,0,0,.88-.44l.58.56a1.38,1.38,0,0,1-.38.34,1.62,1.62,0,0,1-.5.22,2.22,2.22,0,0,1-.59.07A2.12,2.12,0,0,1,600.1,606.05Z"/><path class="cls-5" d="M603.4,602.14h.79v4.06h-.79Zm2.42,1.6a1,1,0,0,0-.21-.67.78.78,0,0,0-.6-.23.81.81,0,0,0-.6.21.73.73,0,0,0-.22.58l-.08-.78a1.46,1.46,0,0,1,.49-.57,1.22,1.22,0,0,1,.67-.2,1.3,1.3,0,0,1,.73.2,1.18,1.18,0,0,1,.46.56,2.4,2.4,0,0,1,.16.89v2.47h-.8Zm2.42,0a.93.93,0,0,0-.22-.67.85.85,0,0,0-.63-.23.73.73,0,0,0-.57.23.89.89,0,0,0-.2.64l-.16-.78a1.51,1.51,0,0,1,.5-.63,1.23,1.23,0,0,1,.69-.22,1.35,1.35,0,0,1,.75.2,1.16,1.16,0,0,1,.48.56,2.4,2.4,0,0,1,.16.89v2.47h-.8Z"/><path class="cls-5" d="M585,615.58a1.34,1.34,0,0,1-.54-.49,2,2,0,0,1-.28-.77h.8a.75.75,0,0,0,.25.49.85.85,0,0,0,.54.17.72.72,0,0,0,.59-.25,1.1,1.1,0,0,0,.21-.72v-.48a1.1,1.1,0,0,0-.21-.72.72.72,0,0,0-.59-.25.83.83,0,0,0-.4.11,1.18,1.18,0,0,0-.34.33h-.72v-3h2.89v.76h-2.1V612a1,1,0,0,1,.34-.18.94.94,0,0,1,.37-.07,1.68,1.68,0,0,1,.84.2,1.29,1.29,0,0,1,.53.6,2.07,2.07,0,0,1,.19.94V614a2.25,2.25,0,0,1-.19.94,1.31,1.31,0,0,1-.55.59,1.69,1.69,0,0,1-.86.21A1.74,1.74,0,0,1,585,615.58Z"/><path class="cls-5" d="M589,615.32a1.65,1.65,0,0,1-.41-1.19v-2.58a1.67,1.67,0,0,1,.41-1.19,2,2,0,0,1,2.42,0,1.65,1.65,0,0,1,.41,1.19v2.58a1.64,1.64,0,0,1-.41,1.19,1.92,1.92,0,0,1-2.42,0Zm1.83-.55a.89.89,0,0,0,.2-.64v-2.58a.88.88,0,0,0-.2-.63.78.78,0,0,0-.62-.22.82.82,0,0,0-.63.22.93.93,0,0,0-.2.63v2.58a.9.9,0,0,0,.21.64,1,1,0,0,0,1.24,0Z"/><path class="cls-5" d="M593.22,615.32a1.65,1.65,0,0,1-.41-1.19v-2.58a1.67,1.67,0,0,1,.41-1.19,2,2,0,0,1,2.42,0,1.61,1.61,0,0,1,.41,1.19v2.58a1.64,1.64,0,0,1-.41,1.19,1.92,1.92,0,0,1-2.42,0Zm1.83-.55a.9.9,0,0,0,.21-.64v-2.58a.93.93,0,0,0-.2-.63.82.82,0,0,0-.63-.22.78.78,0,0,0-.62.22.88.88,0,0,0-.2.63v2.58a.89.89,0,0,0,.2.64,1,1,0,0,0,1.24,0Z"/><path class="cls-5" d="M600.1,615.54a1.45,1.45,0,0,1-.6-.6,2,2,0,0,1-.21-1v-.67a2,2,0,0,1,.21-.94,1.45,1.45,0,0,1,.6-.6,2,2,0,0,1,.95-.2,2.22,2.22,0,0,1,.59.07,2,2,0,0,1,.51.22,1.76,1.76,0,0,1,.37.35l-.58.52a1.17,1.17,0,0,0-.4-.3,1.13,1.13,0,0,0-.48-.11.94.94,0,0,0-.71.26,1,1,0,0,0-.26.73V614a1.07,1.07,0,0,0,.25.74,1,1,0,0,0,.72.26,1.13,1.13,0,0,0,.48-.11,1.26,1.26,0,0,0,.4-.32l.58.55a1.42,1.42,0,0,1-.38.35,1.88,1.88,0,0,1-.5.21,2.27,2.27,0,0,1-.59.08A2,2,0,0,1,600.1,615.54Z"/><path class="cls-5" d="M603.4,611.63h.79v4.06h-.79Zm2.42,1.6a1,1,0,0,0-.21-.66.75.75,0,0,0-.6-.24.81.81,0,0,0-.6.21.75.75,0,0,0-.22.58l-.08-.78a1.5,1.5,0,0,1,.49-.56,1.15,1.15,0,0,1,.67-.2,1.32,1.32,0,0,1,.73.19,1.28,1.28,0,0,1,.46.56,2.42,2.42,0,0,1,.15.9v2.46h-.79Zm2.42,0a.91.91,0,0,0-.22-.66.82.82,0,0,0-.63-.24.72.72,0,0,0-.57.23.9.9,0,0,0-.21.64l-.16-.78a1.51,1.51,0,0,1,.51-.62,1.16,1.16,0,0,1,.69-.22,1.37,1.37,0,0,1,.75.19,1.18,1.18,0,0,1,.47.56,2.22,2.22,0,0,1,.17.9v2.46h-.8Z"/><path class="cls-3" d="M23.49,613.89A12.92,12.92,0,1,1,36.4,601,12.93,12.93,0,0,1,23.49,613.89Zm0-24.83A11.92,11.92,0,1,0,35.4,601,11.93,11.93,0,0,0,23.49,589.06Z"/><polygon class="cls-4" points="35.77 588.74 9.42 600.98 35.77 613.21 32.02 600.98 35.77 588.74"/><path class="cls-3" d="M36.58,614.14,8.23,601l28.35-13.17-4,13.17ZM10.61,601,35,612.29,31.5,601,35,589.66Z"/><path class="cls-3" d="M2.52,605.19a5,5,0,0,1-1.11-.38,4.4,4.4,0,0,1-1-.64l.81-1a3.72,3.72,0,0,0,1.16.69,4.08,4.08,0,0,0,1.38.23,2.73,2.73,0,0,0,1.55-.38,1.17,1.17,0,0,0,.55-1.05h0a1.12,1.12,0,0,0-.25-.77,1.44,1.44,0,0,0-.64-.42,8.23,8.23,0,0,0-1-.25H3.89l-.1,0a9.48,9.48,0,0,1-1.5-.36,2.08,2.08,0,0,1-1-.73,2.42,2.42,0,0,1-.41-1.51h0a2.77,2.77,0,0,1,.38-1.47,2.44,2.44,0,0,1,1.12-.92,4.48,4.48,0,0,1,1.77-.32,4.6,4.6,0,0,1,1,.11,4.9,4.9,0,0,1,1.86.86l-.73,1a4.61,4.61,0,0,0-1-.58,3,3,0,0,0-1.06-.2,2.44,2.44,0,0,0-1.46.38,1.24,1.24,0,0,0-.53,1.07h0a1,1,0,0,0,.27.75,1.74,1.74,0,0,0,.67.4,9.3,9.3,0,0,0,1.12.27h.24a7.93,7.93,0,0,1,1.4.41,2.22,2.22,0,0,1,.94.76,2.4,2.4,0,0,1,.38,1.43h0a2.62,2.62,0,0,1-.4,1.45,2.54,2.54,0,0,1-1.16.91,4.8,4.8,0,0,1-1.83.31A6.44,6.44,0,0,1,2.52,605.19Z"/><rect class="cls-3" x="612.5" y="600.68" width="1" height="4.68"/><rect class="cls-3" x="612.5" y="590.76" width="1" height="4.68"/><rect class="cls-3" x="612.5" y="611.45" width="1" height="5.24"/><rect class="cls-3" x="789.58" y="611.45" width="1" height="5.24"/><rect class="cls-3" x="682.59" y="600.68" width="1" height="4.68"/><rect class="cls-3" x="647.3" y="590.76" width="1" height="4.68"/><rect class="cls-1" width="790.34" height="618.13"/><polygon class="cls-4" points="236.2 242.82 236.2 179.91 257.2 179.91 346.46 179.91 346.46 201.24 257.56 201.24 257.56 242.82 236.2 242.82"/><line class="cls-6" x1="257.2" y1="179.91" x2="346.46" y2="179.91"/><line class="cls-6" x1="346.46" y1="179.91" x2="346.46" y2="201.24"/><line class="cls-6" x1="346.46" y1="201.24" x2="257.56" y2="201.24"/><line class="cls-6" x1="257.55" y1="201.24" x2="257.55" y2="242.82"/><line class="cls-6" x1="257.55" y1="242.82" x2="236.2" y2="242.82"/><line class="cls-6" x1="236.2" y1="242.82" x2="236.2" y2="179.91"/><line class="cls-6" x1="236.2" y1="179.91" x2="257.2" y2="179.91"/><rect class="cls-4" x="516.39" y="203.49" width="28" height="41.58"/><line class="cls-6" x1="544.39" y1="245.07" x2="516.39" y2="245.07"/><line class="cls-6" x1="516.39" y1="245.07" x2="516.39" y2="203.49"/><line class="cls-6" x1="516.39" y1="203.49" x2="544.39" y2="203.49"/><line class="cls-6" x1="544.39" y1="203.49" x2="544.39" y2="245.07"/><rect class="cls-4" x="422.76" y="180.1" width="31.5" height="20.79"/><line class="cls-6" x1="422.76" y1="180.1" x2="422.76" y2="200.89"/><line class="cls-6" x1="454.26" y1="180.1" x2="422.76" y2="180.1"/><line class="cls-6" x1="454.26" y1="200.89" x2="454.26" y2="180.1"/><line class="cls-6" x1="422.76" y1="200.89" x2="454.26" y2="200.89"/><line class="cls-6" x1="365.71" y1="197.43" x2="349.96" y2="197.43"/><line class="cls-6" x1="349.96" y1="197.43" x2="349.96" y2="180.1"/><line class="cls-6" x1="349.96" y1="180.1" x2="353.46" y2="193.96"/><line class="cls-6" x1="353.46" y1="193.96" x2="365.71" y2="197.43"/><polygon points="229.2 452.46 229.2 365.83 227.45 365.83 227.45 180.45 227.45 171.78 377.26 171.78 377.26 180.1 236.2 180.1 236.2 452.46 229.2 452.46"/><rect x="360.46" y="358.9" width="52.5" height="6.93"/><polygon points="549.47 365.83 523.22 365.83 523.22 358.9 553.67 358.9 553.67 365.83 549.47 365.83"/><polygon points="545.27 351.97 545.27 180.1 415.76 180.1 415.76 171.78 553.67 171.78 553.67 180.1 553.67 351.97 545.27 351.97"/><rect x="236.2" y="351.97" width="35" height="6.93"/><rect x="362.21" y="351.97" width="49" height="6.93"/><rect x="443.76" y="245.94" width="101.5" height="6.93"/><rect x="365.71" y="180.1" width="7" height="25.99"/><polygon points="365.71 252.87 365.71 237.27 372.71 237.27 372.71 245.94 412.26 245.94 412.26 252.87 365.71 252.87"/><rect x="444.46" y="358.9" width="26.25" height="6.93"/><rect x="524.97" y="351.97" width="28.7" height="6.93"/><rect x="446.21" y="351.97" width="22.75" height="6.93"/><rect x="454.26" y="237.27" width="2.45" height="8.66"/><rect x="414.01" y="171.78" width="1.75" height="3.99"/><rect x="377.26" y="171.78" width="1.75" height="3.99"/><polygon points="236.2 452.46 236.2 358.9 272.96 358.9 272.96 365.83 241.45 365.83 241.45 452.46 236.2 452.46"/><rect x="384.26" y="252.87" width="2.45" height="99.1"/><polygon points="346.46 200.89 346.46 180.1 349.96 180.1 349.96 197.43 365.71 197.43 365.71 200.89 346.46 200.89"/><rect x="517.27" y="199.16" width="28" height="3.47"/><rect x="517.27" y="180.1" width="3.5" height="19.06"/><rect x="454.26" y="180.1" width="2.45" height="29.45"/><rect x="548.07" y="365.83" width="1.4" height="71.03"/><line class="cls-6" x1="545.27" y1="245.94" x2="456.71" y2="245.94"/><g class="cls-7"><path class="cls-6" d="M540,208.69a.88.88,0,1,0-.88.86.87.87,0,0,0,.88-.86"/></g><line class="cls-6" x1="516.39" y1="203.49" x2="516.39" y2="245.07"/><line class="cls-6" x1="516.39" y1="245.07" x2="544.39" y2="245.07"/><line class="cls-6" x1="544.39" y1="245.07" x2="544.39" y2="203.49"/><line class="cls-6" x1="544.39" y1="203.49" x2="516.39" y2="203.49"/><line class="cls-6" x1="518.14" y1="208.69" x2="518.14" y2="239.87"/><line class="cls-6" x1="521.64" y1="243.34" x2="539.14" y2="243.34"/><line class="cls-6" x1="542.64" y1="239.87" x2="542.64" y2="208.69"/><line class="cls-6" x1="539.14" y1="205.22" x2="521.64" y2="205.22"/><g class="cls-7"><path class="cls-6" d="M518.14,208.69a3.48,3.48,0,0,1,3.5-3.47"/><path class="cls-6" d="M521.64,243.34a3.48,3.48,0,0,1-3.5-3.47"/><path class="cls-6" d="M539.14,205.22a3.48,3.48,0,0,1,3.5,3.47"/><path class="cls-6" d="M542.64,239.87a3.48,3.48,0,0,1-3.5,3.47"/></g><line class="cls-6" x1="380.76" y1="175.77" x2="412.26" y2="175.77"/><line class="cls-6" x1="380.76" y1="175.77" x2="380.76" y2="206.95"/><g class="cls-7"><path class="cls-6" d="M412.26,175.77A31.34,31.34,0,0,1,380.76,207"/></g><line class="cls-6" x1="380.76" y1="171.78" x2="380.76" y2="175.77"/><line class="cls-6" x1="412.26" y1="175.77" x2="412.26" y2="171.78"/><line class="cls-6" x1="412.26" y1="175.77" x2="414.01" y2="175.77"/><line class="cls-6" x1="379.01" y1="175.77" x2="380.76" y2="175.77"/><line class="cls-6" x1="349.96" y1="180.1" x2="365.71" y2="180.1"/><line class="cls-6" x1="365.71" y1="180.1" x2="365.71" y2="197.43"/><line class="cls-6" x1="365.71" y1="197.43" x2="349.96" y2="197.43"/><line class="cls-6" x1="349.96" y1="197.43" x2="349.96" y2="180.1"/><line class="cls-6" x1="446.21" y1="358.9" x2="446.21" y2="351.97"/><line class="cls-6" x1="545.27" y1="351.97" x2="545.27" y2="252.87"/><line class="cls-6" x1="545.27" y1="245.94" x2="545.27" y2="202.62"/><line class="cls-6" x1="241.45" y1="365.83" x2="241.45" y2="452.46"/><line class="cls-6" x1="553.67" y1="332.2" x2="553.67" y2="351.97"/><line class="cls-6" x1="549.47" y1="365.83" x2="523.22" y2="365.83"/><line class="cls-6" x1="553.67" y1="365.83" x2="549.47" y2="365.83"/><line class="cls-6" x1="412.96" y1="365.83" x2="360.46" y2="365.83"/><line class="cls-6" x1="553.67" y1="351.97" x2="553.67" y2="351.97"/><line class="cls-6" x1="411.21" y1="351.97" x2="386.71" y2="351.97"/><line class="cls-6" x1="384.26" y1="351.97" x2="362.21" y2="351.97"/><line class="cls-6" x1="272.95" y1="365.83" x2="241.45" y2="365.83"/><line class="cls-6" x1="271.21" y1="351.97" x2="236.2" y2="351.97"/><line class="cls-6" x1="517.27" y1="180.1" x2="456.71" y2="180.1"/><line class="cls-6" x1="454.26" y1="245.94" x2="443.76" y2="245.94"/><line class="cls-6" x1="412.26" y1="245.94" x2="372.71" y2="245.94"/><line class="cls-6" x1="545.27" y1="252.87" x2="443.76" y2="252.87"/><line class="cls-6" x1="412.26" y1="252.87" x2="386.71" y2="252.87"/><line class="cls-6" x1="384.26" y1="252.87" x2="365.71" y2="252.87"/><line class="cls-6" x1="456.71" y1="245.94" x2="456.71" y2="237.27"/><line class="cls-6" x1="456.71" y1="209.55" x2="456.71" y2="180.1"/><line class="cls-6" x1="454.26" y1="245.94" x2="454.26" y2="237.27"/><line class="cls-6" x1="454.26" y1="209.55" x2="454.26" y2="180.1"/><line class="cls-6" x1="384.26" y1="351.97" x2="384.26" y2="252.87"/><line class="cls-6" x1="372.71" y1="245.94" x2="372.71" y2="237.27"/><line class="cls-6" x1="372.71" y1="206.09" x2="372.71" y2="180.1"/><line class="cls-6" x1="365.71" y1="252.87" x2="365.71" y2="237.27"/><line class="cls-6" x1="365.71" y1="206.09" x2="365.71" y2="200.89"/><line class="cls-6" x1="386.71" y1="351.97" x2="386.71" y2="252.87"/><line class="cls-6" x1="414.01" y1="175.77" x2="414.01" y2="171.78"/><line class="cls-6" x1="379.01" y1="175.77" x2="379.01" y2="171.78"/><line class="cls-6" x1="379.01" y1="175.77" x2="377.26" y2="175.77"/><line class="cls-6" x1="414.01" y1="175.77" x2="415.76" y2="175.77"/><line class="cls-6" x1="415.76" y1="175.77" x2="415.76" y2="180.1"/><line class="cls-6" x1="377.26" y1="175.77" x2="377.26" y2="180.1"/><line class="cls-6" x1="553.67" y1="232.08" x2="553.67" y2="232.08"/><line class="cls-6" x1="454.26" y1="237.27" x2="456.71" y2="237.27"/><line class="cls-6" x1="454.26" y1="209.55" x2="456.71" y2="209.55"/><line class="cls-6" x1="412.26" y1="245.94" x2="412.26" y2="252.87"/><line class="cls-6" x1="443.76" y1="245.94" x2="443.76" y2="252.87"/><line class="cls-6" x1="355.21" y1="200.89" x2="365.71" y2="200.89"/><line class="cls-6" x1="346.46" y1="200.89" x2="346.46" y2="180.1"/><line class="cls-6" x1="365.71" y1="206.09" x2="372.71" y2="206.09"/><line class="cls-6" x1="365.71" y1="237.27" x2="372.71" y2="237.27"/><line class="cls-6" x1="545.27" y1="351.97" x2="524.97" y2="351.97"/><line class="cls-6" x1="524.97" y1="358.9" x2="524.97" y2="351.97"/><line class="cls-6" x1="468.96" y1="358.9" x2="468.96" y2="351.97"/><line class="cls-6" x1="411.21" y1="358.9" x2="411.21" y2="351.97"/><line class="cls-6" x1="362.21" y1="358.9" x2="362.21" y2="351.97"/><line class="cls-6" x1="271.21" y1="358.9" x2="271.21" y2="351.97"/><line class="cls-6" x1="272.95" y1="358.9" x2="272.95" y2="365.83"/><line class="cls-6" x1="271.21" y1="358.9" x2="272.95" y2="358.9"/><line class="cls-6" x1="412.96" y1="358.9" x2="412.96" y2="365.83"/><line class="cls-6" x1="411.21" y1="358.9" x2="412.96" y2="358.9"/><line class="cls-6" x1="360.46" y1="358.9" x2="360.46" y2="365.83"/><line class="cls-6" x1="360.46" y1="358.9" x2="362.21" y2="358.9"/><line class="cls-6" x1="523.22" y1="358.9" x2="523.22" y2="365.83"/><line class="cls-6" x1="523.22" y1="358.9" x2="524.97" y2="358.9"/><line class="cls-6" x1="372.71" y1="180.1" x2="377.26" y2="180.1"/><line class="cls-6" x1="444.46" y1="358.9" x2="444.46" y2="365.83"/><line class="cls-6" x1="444.46" y1="358.9" x2="446.21" y2="358.9"/><line class="cls-6" x1="470.71" y1="358.9" x2="470.71" y2="365.83"/><line class="cls-6" x1="468.96" y1="358.9" x2="470.71" y2="358.9"/><line class="cls-6" x1="446.21" y1="351.97" x2="468.96" y2="351.97"/><line class="cls-6" x1="444.46" y1="365.83" x2="470.71" y2="365.83"/><line class="cls-6" x1="548.07" y1="365.83" x2="549.47" y2="365.83"/><line class="cls-6" x1="549.47" y1="365.83" x2="550.87" y2="365.83"/><line class="cls-6" x1="548.07" y1="365.83" x2="548.07" y2="436.86"/><line class="cls-6" x1="548.07" y1="436.86" x2="549.47" y2="436.86"/><line class="cls-6" x1="236.2" y1="351.97" x2="236.2" y2="180.1"/><line class="cls-6" x1="241.45" y1="365.83" x2="241.45" y2="452.46"/><line class="cls-6" x1="229.2" y1="371.03" x2="229.2" y2="448.99"/><line class="cls-6" x1="414.01" y1="252.87" x2="442.01" y2="252.87"/><line class="cls-6" x1="414.01" y1="252.87" x2="414.01" y2="280.59"/><g class="cls-7"><path class="cls-6" d="M442,252.87a27.86,27.86,0,0,1-28,27.72"/></g><line class="cls-6" x1="414.01" y1="245.94" x2="414.01" y2="252.87"/><line class="cls-6" x1="442.01" y1="252.87" x2="442.01" y2="245.94"/><line class="cls-6" x1="442.01" y1="252.87" x2="443.76" y2="252.87"/><line class="cls-6" x1="442.01" y1="245.94" x2="443.76" y2="245.94"/><line class="cls-6" x1="412.26" y1="252.87" x2="414.01" y2="252.87"/><line class="cls-6" x1="412.26" y1="245.94" x2="414.01" y2="245.94"/><line class="cls-6" x1="414.01" y1="245.94" x2="421.01" y2="245.94"/><line class="cls-6" x1="424.86" y1="245.94" x2="425.65" y2="245.94"/><line class="cls-6" x1="429.5" y1="245.94" x2="430.29" y2="245.94"/><line class="cls-6" x1="434.14" y1="245.94" x2="435.01" y2="245.94"/><line class="cls-6" x1="435.01" y1="245.94" x2="442.01" y2="245.94"/><line class="cls-6" x1="414.01" y1="252.87" x2="414.01" y2="253.73"/><line class="cls-6" x1="414.01" y1="253.73" x2="410.51" y2="253.73"/><line class="cls-6" x1="410.51" y1="253.73" x2="410.51" y2="252.87"/><line class="cls-6" x1="414.01" y1="245.94" x2="414.01" y2="245.07"/><line class="cls-6" x1="414.01" y1="245.07" x2="410.51" y2="245.07"/><line class="cls-6" x1="410.51" y1="245.07" x2="410.51" y2="245.94"/><line class="cls-6" x1="442.01" y1="253.73" x2="445.51" y2="253.73"/><line class="cls-6" x1="445.51" y1="253.73" x2="445.51" y2="252.87"/><line class="cls-6" x1="442.01" y1="245.94" x2="442.01" y2="245.07"/><line class="cls-6" x1="442.01" y1="245.07" x2="445.51" y2="245.07"/><line class="cls-6" x1="445.51" y1="245.07" x2="445.51" y2="245.94"/><line class="cls-6" x1="524.97" y1="351.97" x2="468.96" y2="351.97"/><line class="cls-6" x1="446.21" y1="351.97" x2="411.21" y2="351.97"/><line class="cls-6" x1="271.21" y1="351.97" x2="327.21" y2="351.97"/><line class="cls-6" x1="327.21" y1="351.97" x2="362.21" y2="351.97"/><line class="cls-6" x1="272.95" y1="365.83" x2="328.96" y2="365.83"/><line class="cls-6" x1="327.21" y1="351.97" x2="327.21" y2="358.9"/><line class="cls-6" x1="328.96" y1="358.9" x2="328.96" y2="365.83"/><line class="cls-6" x1="328.96" y1="362.36" x2="360.46" y2="362.36"/><line class="cls-6" x1="360.81" y1="355.43" x2="360.81" y2="323.55"/><line class="cls-6" x1="330.01" y1="358.21" x2="330.01" y2="358.9"/><line class="cls-6" x1="330.01" y1="358.9" x2="327.21" y2="358.9"/><line class="cls-6" x1="327.21" y1="358.9" x2="327.21" y2="356.13"/><line class="cls-6" x1="327.21" y1="356.13" x2="328.61" y2="356.13"/><line class="cls-6" x1="328.61" y1="355.43" x2="331.41" y2="355.43"/><line class="cls-6" x1="331.41" y1="355.43" x2="331.41" y2="358.21"/><line class="cls-6" x1="331.41" y1="358.21" x2="328.61" y2="358.21"/><line class="cls-6" x1="328.61" y1="358.21" x2="328.61" y2="355.43"/><line class="cls-6" x1="360.81" y1="355.43" x2="358.01" y2="355.43"/><line class="cls-6" x1="358.01" y1="355.43" x2="358.01" y2="358.21"/><line class="cls-6" x1="358.01" y1="358.21" x2="360.81" y2="358.21"/><line class="cls-6" x1="360.81" y1="358.21" x2="360.81" y2="355.43"/><line class="cls-6" x1="331.41" y1="355.43" x2="358.01" y2="355.43"/><line class="cls-6" x1="358.01" y1="358.21" x2="331.41" y2="358.21"/><line class="cls-6" x1="331.41" y1="356.82" x2="358.01" y2="356.82"/><g class="cls-7"><path class="cls-6" d="M328.61,355.43a32,32,0,0,1,32.2-31.88"/></g><line class="cls-6" x1="359.41" y1="358.21" x2="359.41" y2="358.9"/><line class="cls-6" x1="359.41" y1="358.9" x2="362.21" y2="358.9"/><line class="cls-6" x1="362.21" y1="358.9" x2="362.21" y2="356.13"/><line class="cls-6" x1="362.21" y1="356.13" x2="360.81" y2="356.13"/><line class="cls-6" x1="327.21" y1="356.13" x2="324.41" y2="356.13"/><line class="cls-6" x1="324.41" y1="356.13" x2="324.41" y2="358.9"/><line class="cls-6" x1="324.41" y1="358.9" x2="327.21" y2="358.9"/><line class="cls-6" x1="327.21" y1="358.9" x2="327.21" y2="356.13"/><line class="cls-6" x1="324.41" y1="356.13" x2="300.61" y2="356.13"/><line class="cls-6" x1="324.41" y1="357.51" x2="300.61" y2="357.51"/><line class="cls-6" x1="324.41" y1="358.9" x2="300.61" y2="358.9"/><line class="cls-6" x1="274.01" y1="358.21" x2="274.01" y2="358.9"/><line class="cls-6" x1="274.01" y1="358.9" x2="271.2" y2="358.9"/><line class="cls-6" x1="271.21" y1="358.9" x2="271.21" y2="356.13"/><line class="cls-6" x1="271.21" y1="356.13" x2="272.61" y2="356.13"/><line class="cls-6" x1="272.61" y1="355.43" x2="275.41" y2="355.43"/><line class="cls-6" x1="275.41" y1="355.43" x2="275.41" y2="358.21"/><line class="cls-6" x1="275.41" y1="358.21" x2="272.6" y2="358.21"/><line class="cls-6" x1="272.61" y1="358.21" x2="272.61" y2="355.43"/><line class="cls-6" x1="275.41" y1="355.43" x2="296.41" y2="355.43"/><line class="cls-6" x1="296.41" y1="358.21" x2="275.4" y2="358.21"/><line class="cls-6" x1="275.41" y1="356.82" x2="296.41" y2="356.82"/><line class="cls-6" x1="523.22" y1="365.83" x2="470.71" y2="365.83"/><line class="cls-6" x1="446.21" y1="351.97" x2="446.21" y2="358.9"/><line class="cls-6" x1="444.46" y1="358.9" x2="444.46" y2="365.83"/><line class="cls-6" x1="444.46" y1="362.36" x2="412.96" y2="362.36"/><line class="cls-6" x1="412.61" y1="355.43" x2="412.61" y2="323.55"/><line class="cls-6" x1="443.41" y1="358.21" x2="443.41" y2="358.9"/><line class="cls-6" x1="443.41" y1="358.9" x2="446.21" y2="358.9"/><line class="cls-6" x1="446.21" y1="358.9" x2="446.21" y2="356.13"/><line class="cls-6" x1="446.21" y1="356.13" x2="444.81" y2="356.13"/><line class="cls-6" x1="444.81" y1="355.43" x2="442.01" y2="355.43"/><line class="cls-6" x1="442.01" y1="355.43" x2="442.01" y2="358.21"/><line class="cls-6" x1="442.01" y1="358.21" x2="444.81" y2="358.21"/><line class="cls-6" x1="444.81" y1="358.21" x2="444.81" y2="355.43"/><line class="cls-6" x1="412.61" y1="355.43" x2="415.41" y2="355.43"/><line class="cls-6" x1="415.41" y1="355.43" x2="415.41" y2="358.21"/><line class="cls-6" x1="415.41" y1="358.21" x2="412.61" y2="358.21"/><line class="cls-6" x1="412.61" y1="358.21" x2="412.61" y2="355.43"/><line class="cls-6" x1="442.01" y1="355.43" x2="415.41" y2="355.43"/><line class="cls-6" x1="415.41" y1="358.21" x2="442.01" y2="358.21"/><line class="cls-6" x1="442.01" y1="356.82" x2="415.41" y2="356.82"/><g class="cls-7"><path class="cls-6" d="M412.61,323.55a32,32,0,0,1,32.2,31.88"/></g><line class="cls-6" x1="414.01" y1="358.21" x2="414.01" y2="358.9"/><line class="cls-6" x1="414.01" y1="358.9" x2="411.21" y2="358.9"/><line class="cls-6" x1="411.21" y1="358.9" x2="411.21" y2="356.13"/><line class="cls-6" x1="411.21" y1="356.13" x2="412.61" y2="356.13"/><line class="cls-6" x1="297.81" y1="358.21" x2="297.81" y2="358.9"/><line class="cls-6" x1="297.81" y1="358.9" x2="300.61" y2="358.9"/><line class="cls-6" x1="300.61" y1="358.9" x2="300.61" y2="356.13"/><line class="cls-6" x1="300.61" y1="356.13" x2="299.21" y2="356.13"/><line class="cls-6" x1="299.21" y1="355.43" x2="296.41" y2="355.43"/><line class="cls-6" x1="296.41" y1="355.43" x2="296.41" y2="358.21"/><line class="cls-6" x1="296.41" y1="358.21" x2="299.21" y2="358.21"/><line class="cls-6" x1="299.21" y1="358.21" x2="299.21" y2="355.43"/><line class="cls-6" x1="454.26" y1="211.29" x2="454.26" y2="235.54"/><line class="cls-6" x1="454.26" y1="211.29" x2="429.76" y2="211.29"/><g class="cls-7"><path class="cls-6" d="M454.26,235.54a24.38,24.38,0,0,1-24.5-24.25"/></g><line class="cls-6" x1="456.71" y1="211.29" x2="454.26" y2="211.29"/><line class="cls-6" x1="454.26" y1="235.54" x2="456.71" y2="235.54"/><line class="cls-6" x1="454.26" y1="235.54" x2="454.26" y2="237.27"/><line class="cls-6" x1="456.71" y1="235.54" x2="456.71" y2="237.27"/><line class="cls-6" x1="454.26" y1="209.55" x2="454.26" y2="211.28"/><line class="cls-6" x1="456.71" y1="209.55" x2="456.71" y2="211.28"/><line class="cls-6" x1="456.71" y1="211.29" x2="456.71" y2="218.22"/><line class="cls-6" x1="456.71" y1="222.03" x2="456.71" y2="222.81"/><line class="cls-6" x1="456.71" y1="226.62" x2="456.71" y2="227.4"/><line class="cls-6" x1="456.71" y1="228.61" x2="456.71" y2="235.54"/><line class="cls-6" x1="454.26" y1="211.29" x2="453.39" y2="211.29"/><line class="cls-6" x1="453.39" y1="211.29" x2="453.39" y2="207.82"/><line class="cls-6" x1="453.39" y1="207.82" x2="454.26" y2="207.82"/><line class="cls-6" x1="456.71" y1="211.29" x2="457.59" y2="211.29"/><line class="cls-6" x1="457.59" y1="211.29" x2="457.59" y2="207.82"/><line class="cls-6" x1="457.59" y1="207.82" x2="456.71" y2="207.82"/><line class="cls-6" x1="453.39" y1="235.54" x2="453.39" y2="239.01"/><line class="cls-6" x1="453.39" y1="239.01" x2="454.26" y2="239.01"/><line class="cls-6" x1="456.71" y1="235.54" x2="457.59" y2="235.54"/><line class="cls-6" x1="457.59" y1="235.54" x2="457.59" y2="239.01"/><line class="cls-6" x1="457.59" y1="239.01" x2="456.71" y2="239.01"/><line class="cls-6" x1="365.71" y1="207.82" x2="365.71" y2="235.54"/><line class="cls-6" x1="365.71" y1="207.82" x2="337.71" y2="207.82"/><g class="cls-7"><path class="cls-6" d="M365.71,235.54a27.86,27.86,0,0,1-28-27.72"/></g><line class="cls-6" x1="372.71" y1="207.82" x2="365.71" y2="207.82"/><line class="cls-6" x1="365.71" y1="235.54" x2="372.71" y2="235.54"/><line class="cls-6" x1="365.71" y1="235.54" x2="365.71" y2="237.27"/><line class="cls-6" x1="372.71" y1="235.54" x2="372.71" y2="237.27"/><line class="cls-6" x1="365.71" y1="206.09" x2="365.71" y2="207.82"/><line class="cls-6" x1="372.71" y1="206.09" x2="372.71" y2="207.82"/><line class="cls-6" x1="372.71" y1="207.82" x2="372.71" y2="214.75"/><line class="cls-6" x1="372.71" y1="218.56" x2="372.71" y2="219.34"/><line class="cls-6" x1="372.71" y1="223.15" x2="372.71" y2="223.93"/><line class="cls-6" x1="372.71" y1="227.75" x2="372.71" y2="228.61"/><line class="cls-6" x1="372.71" y1="228.61" x2="372.71" y2="235.54"/><line class="cls-6" x1="365.71" y1="207.82" x2="364.84" y2="207.82"/><line class="cls-6" x1="364.83" y1="207.82" x2="364.83" y2="204.36"/><line class="cls-6" x1="364.83" y1="204.36" x2="365.71" y2="204.36"/><line class="cls-6" x1="372.71" y1="207.82" x2="373.58" y2="207.82"/><line class="cls-6" x1="373.58" y1="207.82" x2="373.58" y2="204.36"/><line class="cls-6" x1="373.58" y1="204.36" x2="372.71" y2="204.36"/><line class="cls-6" x1="364.83" y1="235.54" x2="364.83" y2="239.01"/><line class="cls-6" x1="364.83" y1="239.01" x2="365.71" y2="239.01"/><line class="cls-6" x1="372.71" y1="235.54" x2="373.58" y2="235.54"/><line class="cls-6" x1="373.58" y1="235.54" x2="373.58" y2="239.01"/><line class="cls-6" x1="373.58" y1="239.01" x2="372.71" y2="239.01"/><line class="cls-6" x1="241.45" y1="440.33" x2="549.47" y2="440.33"/><line class="cls-6" x1="524.97" y1="356.13" x2="522.17" y2="356.13"/><line class="cls-6" x1="522.17" y1="356.13" x2="522.17" y2="358.9"/><line class="cls-6" x1="522.17" y1="358.9" x2="524.97" y2="358.9"/><line class="cls-6" x1="524.97" y1="358.9" x2="524.97" y2="356.13"/><line class="cls-6" x1="522.17" y1="356.13" x2="498.37" y2="356.13"/><line class="cls-6" x1="522.17" y1="357.51" x2="498.37" y2="357.51"/><line class="cls-6" x1="522.17" y1="358.9" x2="498.37" y2="358.9"/><line class="cls-6" x1="471.76" y1="358.21" x2="471.76" y2="358.9"/><line class="cls-6" x1="471.76" y1="358.9" x2="468.96" y2="358.9"/><line class="cls-6" x1="468.96" y1="358.9" x2="468.96" y2="356.13"/><line class="cls-6" x1="468.96" y1="356.13" x2="470.36" y2="356.13"/><line class="cls-6" x1="470.36" y1="355.43" x2="473.16" y2="355.43"/><line class="cls-6" x1="473.16" y1="355.43" x2="473.16" y2="358.21"/><line class="cls-6" x1="473.16" y1="358.21" x2="470.36" y2="358.21"/><line class="cls-6" x1="470.36" y1="358.21" x2="470.36" y2="355.43"/><line class="cls-6" x1="473.16" y1="355.43" x2="494.17" y2="355.43"/><line class="cls-6" x1="494.17" y1="358.21" x2="473.16" y2="358.21"/><line class="cls-6" x1="473.16" y1="356.82" x2="494.17" y2="356.82"/><line class="cls-6" x1="495.57" y1="358.21" x2="495.57" y2="358.9"/><line class="cls-6" x1="495.57" y1="358.9" x2="498.37" y2="358.9"/><line class="cls-6" x1="498.37" y1="358.9" x2="498.37" y2="356.13"/><line class="cls-6" x1="498.37" y1="356.13" x2="496.97" y2="356.13"/><line class="cls-6" x1="496.97" y1="355.43" x2="494.17" y2="355.43"/><line class="cls-6" x1="494.17" y1="355.43" x2="494.17" y2="358.21"/><line class="cls-6" x1="494.17" y1="358.21" x2="496.97" y2="358.21"/><line class="cls-6" x1="496.97" y1="358.21" x2="496.97" y2="355.43"/><line class="cls-6" x1="327.21" y1="351.97" x2="327.21" y2="341.57"/><line class="cls-6" x1="327.21" y1="341.57" x2="362.21" y2="341.57"/><line class="cls-6" x1="362.21" y1="341.57" x2="362.21" y2="351.97"/><line class="cls-6" x1="411.21" y1="351.97" x2="411.21" y2="341.57"/><line class="cls-6" x1="411.21" y1="341.57" x2="446.21" y2="341.57"/><line class="cls-6" x1="446.21" y1="341.57" x2="446.21" y2="351.97"/><line class="cls-6" x1="257.55" y1="242.82" x2="236.55" y2="242.82"/><g class="cls-7"><path class="cls-6" d="M245.34,217.1a3.44,3.44,0,1,0-3.44,3.4,3.42,3.42,0,0,0,3.44-3.4"/></g><line class="cls-6" x1="236.55" y1="211.81" x2="257.55" y2="211.81"/><line class="cls-6" x1="257.55" y1="211.81" x2="257.55" y2="232.6"/><line class="cls-6" x1="257.55" y1="232.6" x2="236.55" y2="232.6"/><g class="cls-7"><path class="cls-6" d="M255.65,217.1a3.44,3.44,0,1,0-3.44,3.4,3.42,3.42,0,0,0,3.44-3.4"/><path class="cls-6" d="M255.65,227.3a3.44,3.44,0,1,0-3.44,3.41,3.42,3.42,0,0,0,3.44-3.41"/></g><line class="cls-6" x1="258.51" y1="229.76" x2="258.51" y2="214.64"/><line class="cls-6" x1="262.1" y1="201.24" x2="262.1" y2="179.91"/><line class="cls-6" x1="262.1" y1="179.91" x2="283.11" y2="179.91"/><line class="cls-6" x1="283.11" y1="179.91" x2="283.11" y2="201.24"/><line class="cls-6" x1="283.11" y1="201.24" x2="262.1" y2="201.24"/><g class="cls-7"><path class="cls-6" d="M278.73,190.84a6.13,6.13,0,1,0-6.12,6.07,6.09,6.09,0,0,0,6.12-6.07"/><path class="cls-6" d="M277.68,190.84a5.08,5.08,0,1,0-5.07,5,5,5,0,0,0,5.07-5"/></g><line class="cls-6" x1="338.08" y1="188.39" x2="333.13" y2="193.29"/><line class="cls-6" x1="333.13" y1="188.39" x2="338.08" y2="193.29"/><line class="cls-6" x1="335.61" y1="194.31" x2="335.61" y2="187.38"/><line class="cls-6" x1="339.11" y1="190.84" x2="332.11" y2="190.84"/><line class="cls-6" x1="325.11" y1="180.45" x2="325.11" y2="201.24"/><line class="cls-6" x1="346.11" y1="201.24" x2="325.11" y2="201.24"/><line class="cls-6" x1="324.23" y1="199.5" x2="304.98" y2="199.5"/><line class="cls-6" x1="304.98" y1="199.5" x2="304.98" y2="182.18"/><line class="cls-6" x1="304.98" y1="182.18" x2="324.23" y2="182.18"/><line class="cls-6" x1="324.23" y1="182.18" x2="324.23" y2="199.5"/><line class="cls-6" x1="325.11" y1="201.24" x2="304.11" y2="201.24"/><line class="cls-6" x1="322.48" y1="197.77" x2="306.73" y2="197.77"/><line class="cls-6" x1="306.73" y1="197.77" x2="306.73" y2="185.64"/><line class="cls-6" x1="306.73" y1="185.64" x2="322.48" y2="185.64"/><line class="cls-6" x1="322.48" y1="185.64" x2="322.48" y2="197.77"/><g class="cls-7"><path class="cls-6" d="M315.31,189.11a.7.7,0,1,0-.7.69.7.7,0,0,0,.7-.69"/></g><line class="cls-6" x1="304.11" y1="180.45" x2="304.11" y2="201.24"/><line class="cls-6" x1="304.11" y1="201.24" x2="283.11" y2="201.24"/><line class="cls-6" x1="283.11" y1="201.24" x2="283.11" y2="180.45"/><line class="cls-6" x1="236.2" y1="242.82" x2="236.2" y2="179.91"/><line class="cls-6" x1="236.2" y1="179.91" x2="346.46" y2="179.91"/><line class="cls-6" x1="346.46" y1="179.91" x2="346.46" y2="201.24"/><line class="cls-6" x1="346.46" y1="201.24" x2="257.56" y2="201.24"/><line class="cls-6" x1="257.55" y1="201.24" x2="257.55" y2="242.82"/><line class="cls-6" x1="257.55" y1="242.82" x2="236.2" y2="242.82"/><line class="cls-6" x1="415.76" y1="180.1" x2="454.26" y2="180.1"/><line class="cls-6" x1="517.27" y1="185.3" x2="456.71" y2="185.3"/><line class="cls-6" x1="510.62" y1="245.07" x2="510.62" y2="241.61"/><line class="cls-6" x1="510.62" y1="241.61" x2="489.61" y2="241.61"/><line class="cls-6" x1="489.61" y1="241.61" x2="489.61" y2="245.07"/><line class="cls-6" x1="489.61" y1="245.07" x2="490.67" y2="245.07"/><line class="cls-6" x1="490.67" y1="245.07" x2="490.67" y2="242.65"/><line class="cls-6" x1="490.67" y1="242.65" x2="509.57" y2="242.65"/><line class="cls-6" x1="509.57" y1="242.65" x2="509.57" y2="245.07"/><line class="cls-6" x1="509.57" y1="245.07" x2="510.62" y2="245.07"/><line class="cls-6" x1="510.62" y1="245.07" x2="510.62" y2="241.61"/><line class="cls-6" x1="489.61" y1="245.07" x2="489.61" y2="241.61"/><line class="cls-6" x1="509.57" y1="245.07" x2="509.57" y2="242.65"/><line class="cls-6" x1="490.67" y1="245.07" x2="490.67" y2="242.65"/><line class="cls-6" x1="510.62" y1="241.61" x2="489.61" y2="241.61"/><line class="cls-6" x1="510.62" y1="242.65" x2="489.61" y2="242.65"/><line class="cls-6" x1="510.62" y1="245.07" x2="509.57" y2="245.07"/><line class="cls-6" x1="490.67" y1="245.07" x2="489.61" y2="245.07"/><line class="cls-6" x1="520.77" y1="199.16" x2="520.77" y2="180.1"/><line class="cls-6" x1="520.77" y1="180.1" x2="545.27" y2="180.1"/><line class="cls-6" x1="545.27" y1="180.1" x2="545.27" y2="199.16"/><line class="cls-6" x1="545.27" y1="199.16" x2="520.77" y2="199.16"/><line class="cls-6" x1="545.27" y1="202.62" x2="517.27" y2="202.62"/><line class="cls-6" x1="517.27" y1="202.62" x2="517.27" y2="199.16"/><line class="cls-6" x1="517.27" y1="199.16" x2="517.27" y2="180.1"/><line class="cls-6" x1="520.77" y1="199.16" x2="517.27" y2="199.16"/><line class="cls-6" x1="545.27" y1="202.62" x2="545.27" y2="245.94"/><line class="cls-6" x1="365.71" y1="200.89" x2="365.71" y2="197.43"/><line class="cls-6" x1="510.97" y1="350.24" x2="482.97" y2="350.24"/><line class="cls-6" x1="482.97" y1="350.24" x2="482.97" y2="348.05"/><line class="cls-6" x1="482.97" y1="348.05" x2="510.97" y2="348.05"/><line class="cls-6" x1="510.97" y1="348.05" x2="510.97" y2="350.24"/><g class="cls-7"><path class="cls-6" d="M481.22,349.14a1.75,1.75,0,1,0-1.75,1.74,1.75,1.75,0,0,0,1.75-1.74"/></g><line class="cls-6" x1="325.46" y1="350.24" x2="269.46" y2="350.24"/><line class="cls-6" x1="269.45" y1="350.24" x2="269.45" y2="346.77"/><line class="cls-6" x1="269.45" y1="346.77" x2="325.46" y2="346.77"/><line class="cls-6" x1="325.46" y1="346.77" x2="325.46" y2="350.24"/><g class="cls-7"><path class="cls-6" d="M267.7,348.5a1.75,1.75,0,1,0-1.75,1.74,1.74,1.74,0,0,0,1.75-1.74"/></g><line class="cls-6" x1="365.71" y1="200.89" x2="346.46" y2="200.89"/><line class="cls-6" x1="545.27" y1="199.16" x2="520.77" y2="199.16"/><line class="cls-6" x1="520.77" y1="199.16" x2="520.77" y2="180.1"/><line class="cls-6" x1="520.77" y1="180.1" x2="524.27" y2="195.69"/><line class="cls-6" x1="524.27" y1="195.69" x2="545.27" y2="199.16"/><line class="cls-6" x1="444.46" y1="365.83" x2="437.46" y2="365.83"/><line class="cls-6" x1="433.61" y1="365.83" x2="432.82" y2="365.83"/><line class="cls-6" x1="428.98" y1="365.83" x2="428.19" y2="365.83"/><line class="cls-6" x1="424.34" y1="365.83" x2="419.96" y2="365.83"/><line class="cls-6" x1="419.96" y1="365.83" x2="412.96" y2="365.83"/><line class="cls-6" x1="360.46" y1="365.83" x2="353.46" y2="365.83"/><line class="cls-6" x1="349.61" y1="365.83" x2="348.82" y2="365.83"/><line class="cls-6" x1="344.97" y1="365.83" x2="344.18" y2="365.83"/><line class="cls-6" x1="340.33" y1="365.83" x2="335.96" y2="365.83"/><line class="cls-6" x1="335.96" y1="365.83" x2="328.96" y2="365.83"/><line class="cls-6" x1="271.21" y1="365.83" x2="271.21" y2="372.76"/><line class="cls-6" x1="271.21" y1="376.57" x2="271.21" y2="377.35"/><line class="cls-6" x1="271.21" y1="381.16" x2="271.21" y2="381.94"/><line class="cls-6" x1="271.21" y1="385.75" x2="271.21" y2="392.68"/><line class="cls-6" x1="271.21" y1="396.49" x2="271.21" y2="397.27"/><line class="cls-6" x1="271.21" y1="401.09" x2="271.21" y2="401.87"/><line class="cls-6" x1="271.21" y1="405.68" x2="271.21" y2="410.87"/><line class="cls-6" x1="271.21" y1="410.87" x2="271.21" y2="417.81"/><line class="cls-6" x1="271.21" y1="417.81" x2="278.21" y2="417.81"/><line class="cls-6" x1="282.06" y1="417.81" x2="282.84" y2="417.81"/><line class="cls-6" x1="286.69" y1="417.81" x2="287.48" y2="417.81"/><line class="cls-6" x1="291.33" y1="417.81" x2="298.33" y2="417.81"/><line class="cls-6" x1="302.18" y1="417.81" x2="302.97" y2="417.81"/><line class="cls-6" x1="306.82" y1="417.81" x2="307.61" y2="417.81"/><line class="cls-6" x1="311.46" y1="417.81" x2="318.46" y2="417.81"/><line class="cls-6" x1="322.31" y1="417.81" x2="323.1" y2="417.81"/><line class="cls-6" x1="326.95" y1="417.81" x2="327.73" y2="417.81"/><line class="cls-6" x1="331.58" y1="417.81" x2="338.58" y2="417.81"/><line class="cls-6" x1="342.43" y1="417.81" x2="343.22" y2="417.81"/><line class="cls-6" x1="347.07" y1="417.81" x2="347.86" y2="417.81"/><line class="cls-6" x1="351.71" y1="417.81" x2="358.71" y2="417.81"/><line class="cls-6" x1="362.56" y1="417.81" x2="363.35" y2="417.81"/><line class="cls-6" x1="367.2" y1="417.81" x2="367.98" y2="417.81"/><line class="cls-6" x1="371.83" y1="417.81" x2="378.83" y2="417.81"/><line class="cls-6" x1="382.69" y1="417.81" x2="383.47" y2="417.81"/><line class="cls-6" x1="387.32" y1="417.81" x2="388.11" y2="417.81"/><line class="cls-6" x1="391.96" y1="417.81" x2="398.96" y2="417.81"/><line class="cls-6" x1="402.81" y1="417.81" x2="403.6" y2="417.81"/><line class="cls-6" x1="407.45" y1="417.81" x2="408.24" y2="417.81"/><line class="cls-6" x1="412.09" y1="417.81" x2="419.09" y2="417.81"/><line class="cls-6" x1="422.94" y1="417.81" x2="423.73" y2="417.81"/><line class="cls-6" x1="427.58" y1="417.81" x2="428.36" y2="417.81"/><line class="cls-6" x1="432.21" y1="417.81" x2="439.21" y2="417.81"/><line class="cls-6" x1="443.06" y1="417.81" x2="443.85" y2="417.81"/><line class="cls-6" x1="447.7" y1="417.81" x2="448.49" y2="417.81"/><line class="cls-6" x1="452.34" y1="417.81" x2="459.34" y2="417.81"/><line class="cls-6" x1="463.19" y1="417.81" x2="463.98" y2="417.81"/><line class="cls-6" x1="467.83" y1="417.81" x2="468.62" y2="417.81"/><line class="cls-6" x1="472.46" y1="417.81" x2="479.46" y2="417.81"/><line class="cls-6" x1="483.31" y1="417.81" x2="484.1" y2="417.81"/><line class="cls-6" x1="487.95" y1="417.81" x2="488.74" y2="417.81"/><line class="cls-6" x1="492.59" y1="417.81" x2="499.59" y2="417.81"/><line class="cls-6" x1="503.44" y1="417.81" x2="504.23" y2="417.81"/><line class="cls-6" x1="508.08" y1="417.81" x2="508.87" y2="417.81"/><line class="cls-6" x1="512.72" y1="417.81" x2="519.72" y2="417.81"/><line class="cls-6" x1="523.57" y1="417.81" x2="524.36" y2="417.81"/><line class="cls-6" x1="528.21" y1="417.81" x2="528.99" y2="417.81"/><line class="cls-6" x1="532.84" y1="417.81" x2="539.84" y2="417.81"/><line class="cls-6" x1="543.69" y1="417.81" x2="544.48" y2="417.81"/><line class="cls-6" x1="546.67" y1="417.81" x2="549.47" y2="417.81"/><rect class="cls-4" x="275.4" y="282.67" width="17.5" height="27.72"/><line class="cls-6" x1="275.41" y1="282.67" x2="275.41" y2="310.39"/><line class="cls-6" x1="292.91" y1="282.67" x2="275.41" y2="282.67"/><line class="cls-6" x1="292.91" y1="310.39" x2="292.91" y2="282.67"/><line class="cls-6" x1="275.41" y1="310.39" x2="292.91" y2="310.39"/><rect class="cls-4" x="365.71" y="252.87" width="18.55" height="99.1"/><line class="cls-6" x1="365.71" y1="252.87" x2="365.71" y2="351.97"/><line class="cls-6" x1="384.26" y1="252.87" x2="365.71" y2="252.87"/><line class="cls-6" x1="384.26" y1="351.97" x2="384.26" y2="252.87"/><line class="cls-6" x1="365.71" y1="351.97" x2="384.26" y2="351.97"/><rect class="cls-4" x="456.71" y="180.1" width="60.55" height="5.2"/><line class="cls-6" x1="517.27" y1="185.3" x2="456.71" y2="185.3"/><line class="cls-6" x1="456.71" y1="185.3" x2="456.71" y2="180.1"/><line class="cls-6" x1="456.71" y1="180.1" x2="517.27" y2="180.1"/><line class="cls-6" x1="517.27" y1="180.1" x2="517.27" y2="185.3"/><rect class="cls-4" x="489.62" y="242.64" width="1.05" height="2.43"/><line class="cls-6" x1="490.67" y1="242.65" x2="489.61" y2="242.65"/><line class="cls-6" x1="490.67" y1="245.07" x2="490.67" y2="242.65"/><line class="cls-6" x1="489.61" y1="245.07" x2="490.67" y2="245.07"/><line class="cls-6" x1="489.61" y1="242.65" x2="489.61" y2="245.07"/><polygon class="cls-4" points="490.67 242.65 489.62 242.65 489.62 241.61 510.62 241.61 510.62 242.65 490.67 242.65"/><line class="cls-6" x1="490.67" y1="242.65" x2="510.62" y2="242.65"/><line class="cls-6" x1="489.61" y1="242.65" x2="490.67" y2="242.65"/><line class="cls-6" x1="489.61" y1="241.61" x2="489.61" y2="242.65"/><line class="cls-6" x1="510.62" y1="241.61" x2="489.61" y2="241.61"/><line class="cls-6" x1="510.62" y1="242.65" x2="510.62" y2="241.6"/><rect class="cls-4" x="509.57" y="242.64" width="1.05" height="2.43"/><line class="cls-6" x1="509.57" y1="245.07" x2="510.62" y2="245.07"/><line class="cls-6" x1="509.57" y1="242.65" x2="509.57" y2="245.07"/><line class="cls-6" x1="510.62" y1="242.65" x2="509.57" y2="242.65"/><line class="cls-6" x1="510.62" y1="245.07" x2="510.62" y2="242.65"/><rect class="cls-4" x="372.71" y="240.39" width="36.4" height="5.54"/><line class="cls-6" x1="409.11" y1="245.94" x2="409.11" y2="240.39"/><line class="cls-6" x1="372.71" y1="245.94" x2="409.11" y2="245.94"/><line class="cls-6" x1="372.71" y1="240.39" x2="372.71" y2="245.94"/><line class="cls-6" x1="409.11" y1="240.39" x2="372.71" y2="240.39"/><rect class="cls-4" x="482.97" y="348.05" width="28" height="2.18"/><line class="cls-6" x1="482.97" y1="350.24" x2="510.97" y2="350.24"/><line class="cls-6" x1="482.97" y1="348.05" x2="482.97" y2="350.24"/><line class="cls-6" x1="510.97" y1="348.05" x2="482.97" y2="348.05"/><line class="cls-6" x1="510.97" y1="350.24" x2="510.97" y2="348.05"/><polygon class="cls-4" points="478.23 350.37 477.72 349.14 478.23 347.92 479.46 347.41 480.7 347.92 481.22 349.14 480.7 350.37 479.46 350.88 478.23 350.37"/><g class="cls-7"><path class="cls-6" d="M481.22,349.14a1.75,1.75,0,0,1-3.5,0"/><path class="cls-6" d="M477.72,349.14a1.75,1.75,0,0,1,3.49,0"/></g><polygon class="cls-4" points="264.72 349.73 264.2 348.5 264.72 347.28 265.95 346.77 267.19 347.28 267.7 348.5 267.19 349.73 265.95 350.24 264.72 349.73"/><g class="cls-7"><path class="cls-6" d="M267.7,348.5a1.75,1.75,0,0,1-3.49,0"/><path class="cls-6" d="M264.2,348.5a1.75,1.75,0,0,1,3.5,0"/></g><rect class="cls-4" x="269.46" y="346.77" width="56" height="3.46"/><line class="cls-6" x1="269.45" y1="350.24" x2="325.46" y2="350.24"/><line class="cls-6" x1="269.45" y1="346.77" x2="269.45" y2="350.24"/><line class="cls-6" x1="325.46" y1="346.77" x2="269.46" y2="346.77"/><line class="cls-6" x1="325.46" y1="350.24" x2="325.46" y2="346.77"/><polygon class="cls-4" points="468.26 322.17 465.59 321.64 463.31 320.14 461.8 317.89 461.27 315.24 461.27 263.26 461.27 252.87 524.27 252.87 524.27 315.24 523.73 317.89 522.22 320.14 519.95 321.64 517.27 322.17 468.26 322.17"/><rect class="cls-4" x="524.27" y="252.87" width="12.25" height="10.4"/><rect class="cls-4" x="449.01" y="252.87" width="12.25" height="10.4"/><line class="cls-6" x1="490.78" y1="264.39" x2="489.94" y2="261.39"/><line class="cls-6" x1="520.18" y1="264.39" x2="519.33" y2="261.39"/><line class="cls-6" x1="468.26" y1="322.17" x2="517.27" y2="322.17"/><line class="cls-6" x1="524.27" y1="315.24" x2="524.27" y2="252.87"/><line class="cls-6" x1="524.27" y1="252.87" x2="461.27" y2="252.87"/><line class="cls-6" x1="461.26" y1="252.87" x2="461.26" y2="315.24"/><line class="cls-6" x1="524.27" y1="252.87" x2="536.52" y2="252.87"/><line class="cls-6" x1="536.52" y1="252.87" x2="536.52" y2="263.26"/><line class="cls-6" x1="536.52" y1="263.26" x2="524.27" y2="263.26"/><line class="cls-6" x1="524.27" y1="263.26" x2="524.27" y2="252.87"/><line class="cls-6" x1="449.01" y1="252.87" x2="461.26" y2="252.87"/><line class="cls-6" x1="461.26" y1="252.87" x2="461.26" y2="263.26"/><line class="cls-6" x1="461.26" y1="263.26" x2="449.01" y2="263.26"/><line class="cls-6" x1="449.01" y1="263.26" x2="449.01" y2="252.87"/><line class="cls-6" x1="524.27" y1="275.92" x2="461.27" y2="275.92"/><line class="cls-6" x1="524.27" y1="281.12" x2="461.27" y2="281.12"/><g class="cls-7"><path class="cls-6" d="M495.42,270.67a99.33,99.33,0,0,1,12.9-.84c3.31,0,6.62.17,9.91.5"/><path class="cls-6" d="M520.51,268.42v.09a1.87,1.87,0,0,1-1.87,1.86,1.9,1.9,0,0,1-.41,0"/><path class="cls-6" d="M520.18,264.39a15,15,0,0,1,.35,3.21c0,.27,0,.55,0,.82"/><path class="cls-6" d="M520.37,256.65c0,.84.06,1.67.06,2.51,0,1.75-.08,3.49-.25,5.23"/><path class="cls-6" d="M519.91,256.15H520a.4.4,0,0,1,.4.4.22.22,0,0,1,0,.11"/><path class="cls-6" d="M519.91,256.15q-7.51.57-15,.57c-3.18,0-6.34-.07-9.51-.23"/><path class="cls-6" d="M494.22,257.74a1,1,0,0,1-.05-.3,1,1,0,0,1,1-1l.21,0"/><path class="cls-6" d="M494.22,257.74a45.41,45.41,0,0,1,.18,11.95"/><path class="cls-6" d="M495.42,270.67a1,1,0,0,1-.24,0,.8.8,0,0,1-.81-.8.78.78,0,0,1,0-.22"/><path class="cls-6" d="M524.27,315.24a7,7,0,0,1-7,6.93"/><path class="cls-6" d="M468.26,322.17a7,7,0,0,1-7-6.93"/><path class="cls-6" d="M466,270.67a99.21,99.21,0,0,1,12.9-.84q5,0,9.92.5"/><path class="cls-6" d="M491.12,268.42v.09a1.87,1.87,0,0,1-1.88,1.86,1.67,1.67,0,0,1-.39,0"/><path class="cls-6" d="M490.78,264.39a14.43,14.43,0,0,1,.36,3.21c0,.27,0,.55,0,.82"/><path class="cls-6" d="M491,256.65c0,.84.06,1.67.06,2.51a50.74,50.74,0,0,1-.26,5.23"/><path class="cls-6" d="M490.52,256.15h.08a.4.4,0,0,1,.4.4.43.43,0,0,1,0,.11"/><path class="cls-6" d="M490.52,256.15q-7.51.57-15.06.57c-3.16,0-6.33-.07-9.5-.23"/><path class="cls-6" d="M464.83,257.74a1,1,0,0,1-.05-.3,1,1,0,0,1,1-1l.21,0"/><path class="cls-6" d="M464.83,257.74a46.56,46.56,0,0,1,.49,6.67,44.4,44.4,0,0,1-.31,5.28"/><path class="cls-6" d="M466,270.67a1,1,0,0,1-.24,0,.8.8,0,0,1-.81-.8.78.78,0,0,1,0-.22"/></g><polygon class="cls-4" points="374.96 313.46 374.96 302.66 373.56 300.96 372.81 298.81 372.81 296.51 373.56 294.37 374.96 292.66 374.96 281.86 376.9 281.86 378.85 289.76 378.85 292.06 379.91 295.73 379.91 299.59 378.85 303.26 378.85 305.56 376.9 313.46 374.96 313.46"/><line class="cls-6" x1="374.96" y1="281.86" x2="374.96" y2="292.66"/><line class="cls-6" x1="376.9" y1="281.86" x2="374.96" y2="281.86"/><line class="cls-6" x1="378.85" y1="289.76" x2="376.9" y2="281.86"/><line class="cls-6" x1="378.85" y1="292.06" x2="378.85" y2="289.76"/><line class="cls-6" x1="379.91" y1="295.73" x2="378.85" y2="292.06"/><line class="cls-6" x1="379.91" y1="299.59" x2="379.91" y2="295.73"/><line class="cls-6" x1="378.85" y1="303.26" x2="379.91" y2="299.59"/><line class="cls-6" x1="378.85" y1="305.56" x2="378.85" y2="303.26"/><line class="cls-6" x1="376.9" y1="313.46" x2="378.85" y2="305.56"/><line class="cls-6" x1="374.96" y1="313.46" x2="376.9" y2="313.46"/><line class="cls-6" x1="374.96" y1="302.66" x2="374.96" y2="313.46"/><line class="cls-6" x1="373.56" y1="300.96" x2="374.96" y2="302.66"/><line class="cls-6" x1="372.8" y1="298.81" x2="373.56" y2="300.96"/><line class="cls-6" x1="372.8" y1="296.51" x2="372.8" y2="298.81"/><line class="cls-6" x1="373.56" y1="294.36" x2="372.81" y2="296.51"/><line class="cls-6" x1="374.96" y1="292.66" x2="373.56" y2="294.36"/><line class="cls-6" x1="374.96" y1="281.86" x2="374.96" y2="313.46"/><line class="cls-6" x1="378.85" y1="305.56" x2="378.85" y2="289.76"/><line class="cls-6" x1="376.9" y1="281.86" x2="374.96" y2="281.86"/><line class="cls-6" x1="375.74" y1="311.35" x2="375.74" y2="309.25"/><line class="cls-6" x1="375.74" y1="309.25" x2="376.22" y2="309.25"/><line class="cls-6" x1="376.22" y1="309.25" x2="376.22" y2="311.35"/><line class="cls-6" x1="376.22" y1="311.35" x2="375.74" y2="311.35"/><line class="cls-6" x1="375.74" y1="308.72" x2="375.74" y2="306.61"/><line class="cls-6" x1="375.74" y1="306.61" x2="376.22" y2="306.61"/><line class="cls-6" x1="376.22" y1="306.61" x2="376.22" y2="308.72"/><line class="cls-6" x1="376.22" y1="308.72" x2="375.74" y2="308.72"/><line class="cls-6" x1="376.9" y1="281.86" x2="376.9" y2="313.46"/><line class="cls-6" x1="376.22" y1="306.09" x2="375.74" y2="306.09"/><line class="cls-6" x1="375.74" y1="306.09" x2="375.74" y2="305.03"/><line class="cls-6" x1="375.74" y1="305.03" x2="376.22" y2="305.03"/><line class="cls-6" x1="376.22" y1="305.03" x2="376.22" y2="306.09"/><g class="cls-7"><path class="cls-6" d="M375,302.66a6.68,6.68,0,0,1,0-10"/></g><polygon class="cls-4" points="322.05 239.32 320.65 235.98 318.42 233.12 315.51 230.92 322.3 227.05 324.06 226.59 325.81 227.05 327.1 228.32 330.6 234.31 331.07 236.04 330.6 237.77 329.32 239.04 322.53 242.9 322.05 239.32"/><polygon class="cls-4" points="287.68 239.04 286.39 237.77 285.92 236.04 286.39 234.31 289.9 228.31 291.18 227.05 292.94 226.59 294.69 227.05 301.48 230.92 298.58 233.12 296.35 235.98 294.94 239.32 294.47 242.9 287.68 239.04"/><polygon class="cls-4" points="304.99 266.09 303.24 265.63 301.95 264.36 301.48 262.63 301.48 254.89 304.87 256.28 308.5 256.75 312.13 256.28 315.51 254.89 315.51 262.63 315.04 264.36 313.76 265.63 312 266.09 304.99 266.09"/><polygon class="cls-4" points="304.87 256.28 301.48 254.89 298.58 252.69 296.35 249.82 294.94 246.49 294.46 242.9 294.94 239.32 296.35 235.98 298.58 233.12 301.48 230.92 304.87 229.54 308.5 229.06 312.13 229.54 315.51 230.92 318.42 233.12 320.65 235.98 322.05 239.32 322.53 242.9 322.05 246.49 320.65 249.82 318.42 252.69 315.51 254.89 312.13 256.28 308.5 256.75 304.87 256.28"/><line class="cls-6" x1="322.05" y1="246.49" x2="322.53" y2="242.91"/><line class="cls-6" x1="320.65" y1="249.83" x2="322.05" y2="246.49"/><line class="cls-6" x1="318.42" y1="252.69" x2="320.65" y2="249.83"/><line class="cls-6" x1="315.51" y1="254.89" x2="318.42" y2="252.69"/><line class="cls-6" x1="312.13" y1="256.28" x2="315.51" y2="254.89"/><line class="cls-6" x1="308.5" y1="256.75" x2="312.13" y2="256.28"/><line class="cls-6" x1="304.87" y1="256.28" x2="308.5" y2="256.75"/><line class="cls-6" x1="301.48" y1="254.89" x2="304.87" y2="256.28"/><line class="cls-6" x1="298.58" y1="252.69" x2="301.48" y2="254.89"/><line class="cls-6" x1="296.35" y1="249.83" x2="298.58" y2="252.69"/><line class="cls-6" x1="294.94" y1="246.49" x2="296.35" y2="249.83"/><line class="cls-6" x1="294.47" y1="242.91" x2="294.94" y2="246.49"/><line class="cls-6" x1="294.94" y1="239.32" x2="294.47" y2="242.91"/><line class="cls-6" x1="296.35" y1="235.98" x2="294.94" y2="239.32"/><line class="cls-6" x1="298.58" y1="233.12" x2="296.35" y2="235.98"/><line class="cls-6" x1="301.48" y1="230.92" x2="298.57" y2="233.12"/><line class="cls-6" x1="304.87" y1="229.54" x2="301.48" y2="230.92"/><line class="cls-6" x1="308.5" y1="229.06" x2="304.87" y2="229.54"/><line class="cls-6" x1="312.13" y1="229.54" x2="308.5" y2="229.06"/><line class="cls-6" x1="315.51" y1="230.92" x2="312.13" y2="229.54"/><line class="cls-6" x1="318.42" y1="233.12" x2="315.51" y2="230.92"/><line class="cls-6" x1="320.65" y1="235.98" x2="318.42" y2="233.12"/><line class="cls-6" x1="322.05" y1="239.32" x2="320.65" y2="235.99"/><line class="cls-6" x1="322.53" y1="242.91" x2="322.05" y2="239.32"/><g class="cls-7"><path class="cls-6" d="M308.5,256.74a13.84,13.84,0,1,1,0-27.68"/><path class="cls-6" d="M308.5,229.06a13.84,13.84,0,1,1,0,27.68"/></g><line class="cls-6" x1="325.58" y1="229.18" x2="329.08" y2="235.17"/><line class="cls-6" x1="329.32" y1="239.04" x2="322.53" y2="242.91"/><line class="cls-6" x1="327.1" y1="228.32" x2="330.6" y2="234.31"/><line class="cls-6" x1="315.51" y1="230.92" x2="322.3" y2="227.05"/><line class="cls-6" x1="287.91" y1="235.17" x2="291.42" y2="229.18"/><line class="cls-6" x1="294.69" y1="227.05" x2="301.48" y2="230.92"/><line class="cls-6" x1="286.39" y1="234.31" x2="289.9" y2="228.32"/><line class="cls-6" x1="294.47" y1="242.91" x2="287.67" y2="239.04"/><line class="cls-6" x1="312" y1="264.36" x2="304.99" y2="264.36"/><line class="cls-6" x1="301.48" y1="262.63" x2="301.48" y2="254.89"/><line class="cls-6" x1="312" y1="266.09" x2="304.99" y2="266.09"/><line class="cls-6" x1="315.51" y1="254.89" x2="315.51" y2="262.63"/><g class="cls-7"><path class="cls-6" d="M329.08,235.17a1.71,1.71,0,0,1-.64,2.37"/><path class="cls-6" d="M323.18,228.55a1.81,1.81,0,0,1,.88-.23,1.77,1.77,0,0,1,1.52.86"/><path class="cls-6" d="M330.6,234.31a3.41,3.41,0,0,1,.47,1.73,3.46,3.46,0,0,1-1.75,3"/><path class="cls-6" d="M322.3,227.05a3.61,3.61,0,0,1,1.76-.46,3.53,3.53,0,0,1,3,1.73"/><path class="cls-6" d="M291.42,229.18a1.77,1.77,0,0,1,2.39-.63"/><path class="cls-6" d="M288.55,237.54a1.73,1.73,0,0,1-.87-1.5,1.8,1.8,0,0,1,.23-.87"/><path class="cls-6" d="M289.9,228.32a3.52,3.52,0,0,1,3-1.73,3.57,3.57,0,0,1,1.75.46"/><path class="cls-6" d="M287.68,239a3.45,3.45,0,0,1-1.76-3,3.41,3.41,0,0,1,.47-1.73"/><path class="cls-6" d="M305,264.36a1.75,1.75,0,0,1-1.76-1.73"/><path class="cls-6" d="M313.76,262.63a1.75,1.75,0,0,1-1.75,1.73"/><path class="cls-6" d="M305,266.09a3.48,3.48,0,0,1-3.51-3.46"/><path class="cls-6" d="M315.51,262.63a3.48,3.48,0,0,1-3.5,3.46"/></g><rect class="cls-4" x="386.71" y="302.42" width="21" height="49.55"/><line class="cls-6" x1="407.71" y1="351.97" x2="407.71" y2="302.42"/><line class="cls-6" x1="407.71" y1="302.42" x2="386.71" y2="302.42"/><line class="cls-6" x1="386.71" y1="302.42" x2="386.71" y2="351.97"/><line class="cls-6" x1="386.71" y1="351.97" x2="407.71" y2="351.97"/><line class="cls-6" x1="397.21" y1="349.49" x2="397.21" y2="304.9"/><line class="cls-6" x1="403.39" y1="347.19" x2="390.81" y2="343"/><line class="cls-6" x1="404.02" y1="342.47" x2="392.31" y2="340.73"/><line class="cls-6" x1="389.64" y1="336.02" x2="402.49" y2="334.59"/><line class="cls-6" x1="391.32" y1="328.7" x2="402.49" y2="330.64"/><line class="cls-6" x1="390.68" y1="326.05" x2="404.44" y2="326.05"/><line class="cls-6" x1="390.62" y1="318.51" x2="404.21" y2="320.3"/><line class="cls-6" x1="390.85" y1="315.69" x2="403.26" y2="315.69"/><line class="cls-6" x1="390.73" y1="308.26" x2="403.45" y2="306.83"/><line class="cls-6" x1="391.59" y1="310.05" x2="402.35" y2="311.5"/><rect class="cls-4" x="386.71" y="252.87" width="21" height="49.55"/><line class="cls-6" x1="407.71" y1="302.42" x2="407.71" y2="252.87"/><line class="cls-6" x1="407.71" y1="252.87" x2="386.71" y2="252.87"/><line class="cls-6" x1="386.71" y1="252.87" x2="386.71" y2="302.42"/><line class="cls-6" x1="386.71" y1="302.42" x2="407.71" y2="302.42"/><line class="cls-6" x1="397.21" y1="299.94" x2="397.21" y2="255.34"/><line class="cls-6" x1="403.39" y1="297.64" x2="390.81" y2="293.45"/><line class="cls-6" x1="404.02" y1="292.92" x2="392.31" y2="291.18"/><line class="cls-6" x1="389.64" y1="286.46" x2="402.49" y2="285.04"/><line class="cls-6" x1="391.32" y1="279.15" x2="402.49" y2="281.09"/><line class="cls-6" x1="390.68" y1="276.5" x2="404.44" y2="276.5"/><line class="cls-6" x1="390.62" y1="268.96" x2="404.21" y2="270.75"/><line class="cls-6" x1="390.85" y1="266.14" x2="403.26" y2="266.14"/><line class="cls-6" x1="390.73" y1="258.71" x2="403.45" y2="257.28"/><line class="cls-6" x1="391.59" y1="260.5" x2="402.35" y2="261.95"/><polygon class="cls-4" points="239.35 345.04 238.86 344.84 238.65 344.35 238.65 272.96 238.86 272.48 239.35 272.27 264.9 272.27 266.65 272.74 267.94 274 268.4 275.74 268.4 276.78 268.2 277.27 267.7 277.47 268.21 277.88 268.4 278.51 268.4 316.28 268.21 316.88 267.71 317.26 268.34 317.63 268.4 318.36 268.4 344 268.44 344.48 268.17 344.88 267.7 345.04 239.35 345.04"/><polygon class="cls-4" points="269.45 345.04 268.71 344.73 268.4 344 268.4 318.36 268.71 317.62 269.45 317.32 291.15 317.32 293.83 317.84 296.11 319.35 297.62 321.6 298.15 324.25 298.15 338.11 297.62 340.76 296.11 343.01 293.83 344.51 291.15 345.04 269.45 345.04"/><g class="cls-7"><path class="cls-6" d="M291.16,317.32a7,7,0,0,1,7,6.93"/></g><line class="cls-6" x1="298.16" y1="324.25" x2="298.16" y2="338.11"/><g class="cls-7"><path class="cls-6" d="M298.16,338.11a7,7,0,0,1-7,6.93"/></g><line class="cls-6" x1="291.16" y1="345.04" x2="269.45" y2="345.04"/><g class="cls-7"><path class="cls-6" d="M269.45,345a1,1,0,0,1-1.05-1"/></g><line class="cls-6" x1="268.4" y1="344" x2="268.4" y2="318.36"/><g class="cls-7"><path class="cls-6" d="M268.4,318.36a1,1,0,0,1,1.06-1"/></g><line class="cls-6" x1="269.45" y1="317.32" x2="291.16" y2="317.32"/><line class="cls-6" x1="268.4" y1="276.78" x2="268.4" y2="275.74"/><line class="cls-6" x1="264.9" y1="272.27" x2="239.35" y2="272.27"/><line class="cls-6" x1="238.65" y1="272.96" x2="238.65" y2="276.78"/><line class="cls-6" x1="239.35" y1="277.47" x2="267.7" y2="277.47"/><line class="cls-6" x1="238.65" y1="276.78" x2="238.65" y2="317.32"/><line class="cls-6" x1="238.65" y1="317.32" x2="241.1" y2="317.32"/><line class="cls-6" x1="268.4" y1="316.28" x2="268.4" y2="278.51"/><line class="cls-6" x1="267.35" y1="277.47" x2="249.81" y2="277.47"/><line class="cls-6" x1="249.81" y1="317.32" x2="267.35" y2="317.32"/><line class="cls-6" x1="241.1" y1="277.47" x2="247.71" y2="277.47"/><line class="cls-6" x1="247.71" y1="317.32" x2="241.1" y2="317.32"/><line class="cls-6" x1="268.4" y1="340.53" x2="268.4" y2="344.35"/><line class="cls-6" x1="267.7" y1="345.04" x2="239.35" y2="345.04"/><line class="cls-6" x1="238.65" y1="344.35" x2="238.65" y2="340.53"/><line class="cls-6" x1="238.65" y1="340.53" x2="238.65" y2="317.32"/><line class="cls-6" x1="238.65" y1="317.32" x2="241.1" y2="317.32"/><line class="cls-6" x1="268.4" y1="318.36" x2="268.4" y2="338.8"/><line class="cls-6" x1="249.81" y1="317.32" x2="267.35" y2="317.32"/><line class="cls-6" x1="249.81" y1="317.32" x2="241.1" y2="317.32"/><line class="cls-6" x1="298.16" y1="324.25" x2="298.16" y2="338.11"/><line class="cls-6" x1="291.16" y1="345.04" x2="269.45" y2="345.04"/><line class="cls-6" x1="268.4" y1="344" x2="268.4" y2="318.36"/><line class="cls-6" x1="269.45" y1="317.32" x2="291.16" y2="317.32"/><line class="cls-6" x1="240.05" y1="318.36" x2="240.05" y2="344"/><line class="cls-6" x1="240.05" y1="316.28" x2="240.05" y2="278.51"/><g class="cls-7"><path class="cls-6" d="M238.65,273a.7.7,0,0,1,.7-.69"/><path class="cls-6" d="M239.35,277.47a.7.7,0,0,1-.7-.69"/><path class="cls-6" d="M268.4,276.78a.69.69,0,0,1-.7.69"/><path class="cls-6" d="M267.35,277.47a1,1,0,0,1,1,1"/><path class="cls-6" d="M268.4,316.28a1,1,0,0,1-1,1"/><path class="cls-6" d="M268.4,344.35a.69.69,0,0,1-.7.69"/><path class="cls-6" d="M239.35,345a.7.7,0,0,1-.7-.69"/><path class="cls-6" d="M267.35,317.32a1,1,0,0,1,1,1"/><path class="cls-6" d="M269.45,345a1,1,0,0,1-1.05-1"/><path class="cls-6" d="M268.4,318.36a1,1,0,0,1,1.06-1"/></g><line class="cls-6" x1="240.05" y1="344" x2="263.9" y2="344"/><g class="cls-7"><path class="cls-6" d="M259.08,342.75a19.7,19.7,0,0,1-15.67-19.21,19.23,19.23,0,0,1,.72-5.22"/><path class="cls-6" d="M245,278.51a117.32,117.32,0,0,1,0,37.77"/><path class="cls-6" d="M291.16,317.32a7,7,0,0,1,7,6.93"/><path class="cls-6" d="M298.16,338.11a7,7,0,0,1-7,6.93"/><path class="cls-6" d="M264.9,272.27a3.48,3.48,0,0,1,3.5,3.47"/></g><polygon class="cls-4" points="473.05 202.27 471.06 201.24 469.84 200 469.06 198.44 468.79 196.73 468.79 185.3 481.74 185.3 481.74 196.73 481.47 198.44 480.69 200 479.47 201.24 477.48 202.27 475.26 202.62 473.05 202.27"/><line class="cls-6" x1="481.74" y1="185.3" x2="481.74" y2="196.73"/><line class="cls-6" x1="481.74" y1="185.3" x2="468.79" y2="185.3"/><line class="cls-6" x1="468.79" y1="185.3" x2="468.79" y2="196.73"/><line class="cls-6" x1="479.64" y1="189.46" x2="479.64" y2="196.73"/><line class="cls-6" x1="470.89" y1="189.46" x2="470.89" y2="196.73"/><line class="cls-6" x1="470.89" y1="189.46" x2="479.64" y2="189.46"/><g class="cls-7"><path class="cls-6" d="M481.74,196.73a5.62,5.62,0,0,1-2.28,4.51"/><path class="cls-6" d="M471.06,201.24a5.64,5.64,0,0,1-2.27-4.51"/><path class="cls-6" d="M479.46,201.24a7.08,7.08,0,0,1-8.4,0"/><path class="cls-6" d="M471.06,201.24a5.64,5.64,0,0,1-2.27-4.51"/><path class="cls-6" d="M475.26,202.62a7,7,0,0,1-4.19-1.38"/><path class="cls-6" d="M472.32,199.57a3.54,3.54,0,0,1-1.43-2.84"/><path class="cls-6" d="M478.2,199.57a4.94,4.94,0,0,1-5.88,0"/><path class="cls-6" d="M479.64,196.73a3.52,3.52,0,0,1-1.44,2.84"/></g><polygon class="cls-4" points="492.42 200.54 492.05 200.39 491.89 200.02 491.89 185.82 492.05 185.45 492.42 185.3 510.62 185.3 510.99 185.45 511.14 185.82 511.14 200.02 510.99 200.39 510.62 200.54 492.42 200.54"/><line class="cls-6" x1="492.42" y1="185.3" x2="510.62" y2="185.3"/><g class="cls-7"><path class="cls-6" d="M510.62,185.3a.52.52,0,0,1,.52.52"/></g><line class="cls-6" x1="511.14" y1="185.82" x2="511.14" y2="200.02"/><g class="cls-7"><path class="cls-6" d="M511.14,200a.52.52,0,0,1-.52.52"/></g><line class="cls-6" x1="510.62" y1="200.54" x2="492.42" y2="200.54"/><g class="cls-7"><path class="cls-6" d="M492.42,200.54a.52.52,0,0,1-.53-.52"/></g><line class="cls-6" x1="491.89" y1="200.02" x2="491.89" y2="185.82"/><g class="cls-7"><path class="cls-6" d="M491.89,185.82a.52.52,0,0,1,.53-.52"/></g><line class="cls-6" x1="493.47" y1="189.11" x2="509.57" y2="189.11"/><line class="cls-6" x1="510.09" y1="189.63" x2="510.09" y2="198.98"/><line class="cls-6" x1="509.57" y1="199.5" x2="493.47" y2="199.5"/><line class="cls-6" x1="492.94" y1="198.98" x2="492.94" y2="189.63"/><g class="cls-7"><path class="cls-6" d="M509.57,189.11a.52.52,0,0,1,.52.52"/><path class="cls-6" d="M510.09,199a.52.52,0,0,1-.52.52"/><path class="cls-6" d="M493.47,199.5a.52.52,0,0,1-.53-.52"/><path class="cls-6" d="M492.94,189.63a.52.52,0,0,1,.53-.52"/></g><polygon class="cls-4" points="501.26 191.24 501.13 190.99 500.9 189.16 500.78 188.83 500.64 187.38 500.9 186.76 501.52 186.51 502.13 186.76 502.39 187.38 502.25 188.83 502.13 189.16 501.9 190.99 501.77 191.24 501.52 191.33 501.26 191.24"/><g class="cls-7"><path class="cls-6" d="M500.64,187.38a.88.88,0,0,1,1.75,0"/></g><line class="cls-6" x1="502.25" y1="188.83" x2="502.39" y2="187.38"/><g class="cls-7"><path class="cls-6" d="M502.25,188.83a.66.66,0,0,1-.12.33"/></g><line class="cls-6" x1="501.9" y1="190.99" x2="502.14" y2="189.16"/><g class="cls-7"><path class="cls-6" d="M501.9,191a.39.39,0,0,1-.77,0"/></g><line class="cls-6" x1="500.9" y1="189.16" x2="501.13" y2="190.99"/><g class="cls-7"><path class="cls-6" d="M500.9,189.16a.66.66,0,0,1-.12-.33"/></g><line class="cls-6" x1="500.64" y1="187.38" x2="500.78" y2="188.83"/><line class="cls-6" x1="501.99" y1="188.24" x2="501.99" y2="188.75"/><line class="cls-6" x1="501.04" y1="188.75" x2="501.04" y2="188.24"/><line class="cls-6" x1="501.04" y1="188.24" x2="501.99" y2="188.24"/><g class="cls-7"><path class="cls-6" d="M502,188.75a.48.48,0,1,1-.95,0"/><path class="cls-6" d="M502.14,189.16a.74.74,0,0,1-.62.33.71.71,0,0,1-.62-.33"/></g><line class="cls-6" x1="377.26" y1="180.1" x2="384.26" y2="180.1"/><line class="cls-6" x1="388.11" y1="180.1" x2="388.9" y2="180.1"/><line class="cls-6" x1="392.75" y1="180.1" x2="393.54" y2="180.1"/><line class="cls-6" x1="397.39" y1="180.1" x2="404.39" y2="180.1"/><line class="cls-6" x1="408.24" y1="180.1" x2="408.76" y2="180.1"/><line class="cls-6" x1="408.76" y1="180.1" x2="415.76" y2="180.1"/><line class="cls-6" x1="291.21" y1="192.69" x2="291.21" y2="186.88"/><line class="cls-6" x1="291.21" y1="186.88" x2="293.6" y2="188.79"/><line class="cls-6" x1="293.6" y1="188.79" x2="295.98" y2="186.88"/><line class="cls-6" x1="295.98" y1="186.88" x2="295.98" y2="192.69"/><line class="cls-6" x1="227.45" y1="171.78" x2="227.45" y2="365.83"/><line class="cls-6" x1="227.45" y1="365.83" x2="229.2" y2="365.83"/><line class="cls-6" x1="229.2" y1="365.83" x2="229.2" y2="452.46"/><line class="cls-6" x1="229.2" y1="452.46" x2="549.47" y2="452.46"/><line class="cls-6" x1="549.47" y1="452.46" x2="549.47" y2="365.83"/><line class="cls-6" x1="549.47" y1="365.83" x2="553.67" y2="365.83"/><line class="cls-6" x1="553.67" y1="365.83" x2="553.67" y2="171.78"/><line class="cls-6" x1="553.67" y1="171.78" x2="227.45" y2="171.78"/><text class="cls-8" transform="translate(406.9 387.05)">1<tspan class="cls-9" x="3.61" y="0">.</tspan><tspan x="5.63" y="0">05</tspan></text><text class="cls-8" transform="translate(471.59 233.33)">1<tspan class="cls-9" x="3.61" y="0">.</tspan><tspan class="cls-10" x="5.63" y="0">04</tspan></text><text class="cls-8" transform="translate(423.14 299.26)">1<tspan class="cls-9" x="3.61" y="0">.</tspan><tspan class="cls-11" x="5.63" y="0">0</tspan><tspan x="12.16" y="0">3</tspan></text><text class="cls-8" transform="translate(333.87 282)">1<tspan class="cls-9" x="3.61" y="0">.</tspan><tspan class="cls-12" x="5.63" y="0">0</tspan><tspan x="12.24" y="0">2</tspan></text><text class="cls-8" transform="translate(412.14 234.75)">1<tspan class="cls-9" x="3.61" y="0">.</tspan><tspan class="cls-13" x="5.63" y="0">0</tspan><tspan x="12.24" y="0">1</tspan></text></g></g></svg>