<svg xmlns="http://www.w3.org/2000/svg" xmlns:xlink="http://www.w3.org/1999/xlink" viewBox="0 0 790.58 618.13"><defs><style>.a,.f{fill:none;}.b{fill:#595a5c;}.c{fill:#b6906c;}.d{fill:#fff;}.e{fill:#231f20;}.f{stroke:#000;stroke-linecap:round;stroke-linejoin:round;stroke-width:0.35px;}.g{clip-path:url(#a);}.h{fill:#58595b;}</style><clipPath id="a"><polygon class="a" points="222.41 150.47 222.41 237.14 218.27 237.14 218.27 431.34 528.8 431.34 528.8 237.14 524.66 237.14 524.66 150.47 222.41 150.47"/></clipPath></defs><path class="b" d="M55.31,597.13H57.1V609.9H55.31Zm.92,6.11h4.09a1.89,1.89,0,0,0,1-.27,1.82,1.82,0,0,0,.68-.77,2.67,2.67,0,0,0,.24-1.16,2.7,2.7,0,0,0-.24-1.16,1.82,1.82,0,0,0-1.7-1H56.23v-1.7h4a4.09,4.09,0,0,1,2,.48A3.45,3.45,0,0,1,63.62,599a4.64,4.64,0,0,1,0,4.11,3.34,3.34,0,0,1-1.35,1.36,4,4,0,0,1-2,.49h-4Z"/><path class="b" d="M67.7,606.33a2.07,2.07,0,0,0,.49,1.48,1.76,1.76,0,0,0,1.37.52,1.89,1.89,0,0,0,1.37-.46,1.79,1.79,0,0,0,.48-1.33l.12,1.91A2.58,2.58,0,0,1,69.06,610a2.89,2.89,0,0,1-2.33-1,4.08,4.08,0,0,1-.82-2.73v-5.55H67.7Zm.22-7.86a1.93,1.93,0,0,1-.56-1.5,2.07,2.07,0,0,1,.56-1.57,2.56,2.56,0,0,1,3.18,0,2.08,2.08,0,0,1,.57,1.56,1.94,1.94,0,0,1-.57,1.5,2.65,2.65,0,0,1-3.18,0Zm2.26-.86a.94.94,0,0,0,.24-.68,1,1,0,0,0-.24-.7.91.91,0,0,0-.67-.25.92.92,0,0,0-.67.25,1,1,0,0,0-.23.7,1,1,0,0,0,.23.68.92.92,0,0,0,.67.24A.9.9,0,0,0,70.18,597.61Zm1.23,3.17h1.78v9.12H71.41Z"/><path class="b" d="M77.1,609.63A2.82,2.82,0,0,1,76,608.36a5.08,5.08,0,0,1-.36-2v-2a5.05,5.05,0,0,1,.36-2,2.71,2.71,0,0,1,1-1.27,3,3,0,0,1,1.65-.44,2.71,2.71,0,0,1,1.48.42,3.22,3.22,0,0,1,1.09,1.19l-.18,1.86a2.19,2.19,0,0,0-.22-1,1.48,1.48,0,0,0-.61-.63,2,2,0,0,0-1-.21,1.71,1.71,0,0,0-1.37.55,2.26,2.26,0,0,0-.49,1.56v2a2.19,2.19,0,0,0,.49,1.54,1.74,1.74,0,0,0,1.37.54,1.93,1.93,0,0,0,1-.23,1.45,1.45,0,0,0,.61-.64,2.25,2.25,0,0,0,.22-1l.12,1.92a2.66,2.66,0,0,1-.89,1.14,2.56,2.56,0,0,1-1.53.45A3.19,3.19,0,0,1,77.1,609.63Zm4-12.5H82.9V609.9H81.11Z"/><path class="b" d="M87.09,609.57a3.09,3.09,0,0,1-1.29-1.36,4.85,4.85,0,0,1-.44-2.15v-1.48a4.71,4.71,0,0,1,.44-2.12,3.12,3.12,0,0,1,1.29-1.35,4.71,4.71,0,0,1,4.06,0,3.12,3.12,0,0,1,1.29,1.35,4.71,4.71,0,0,1,.44,2.12v1.51a4.79,4.79,0,0,1-.44,2.13,3.12,3.12,0,0,1-1.29,1.35,4.62,4.62,0,0,1-4.06,0Zm3.49-1.83a2.43,2.43,0,0,0,.51-1.65v-1.51a2.43,2.43,0,0,0-.51-1.65,1.88,1.88,0,0,0-1.46-.58,1.85,1.85,0,0,0-1.45.58,2.38,2.38,0,0,0-.52,1.65v1.51a2.38,2.38,0,0,0,.52,1.65,1.82,1.82,0,0,0,1.45.59A1.85,1.85,0,0,0,90.58,607.74Z"/><path class="b" d="M95.43,600.78h1.79v9.12H95.43Zm4.42,1.72a2.16,2.16,0,0,0-.83-.15,1.83,1.83,0,0,0-1.33.47,1.79,1.79,0,0,0-.47,1.31L97,602.37a3.32,3.32,0,0,1,1.09-1.27,2.58,2.58,0,0,1,1.48-.45,3.39,3.39,0,0,1,1.13.18,2.62,2.62,0,0,1,.88.53l-1.17,1.58A1.56,1.56,0,0,0,99.85,602.5Z"/><path class="b" d="M102.15,600.78H104l2.81,7.93-1,1.94Zm8.07,0L106.34,612a2.6,2.6,0,0,1-.56,1,1.87,1.87,0,0,1-.84.52,4,4,0,0,1-1.23.16h-.36V612h.36a1.46,1.46,0,0,0,.8-.2,1.74,1.74,0,0,0,.51-.7l3.38-10.31Z"/><path class="b" d="M113.51,609.88a5.76,5.76,0,0,1-1.32-.48,4.89,4.89,0,0,1-1.13-.79l1.06-1.31a5.86,5.86,0,0,0,1.47.85,4.18,4.18,0,0,0,1.44.28,3.11,3.11,0,0,0,1.6-.33,1.1,1.1,0,0,0,.53-1,.79.79,0,0,0-.29-.66,1.66,1.66,0,0,0-.72-.29c-.29,0-.69-.1-1.22-.14h-.15l-.14,0h-.15a6.45,6.45,0,0,1-1.5-.26,2,2,0,0,1-1-.7,2.38,2.38,0,0,1-.41-1.49,3.07,3.07,0,0,1,.39-1.61,2.41,2.41,0,0,1,1.18-1,5.29,5.29,0,0,1,2-.32,6.38,6.38,0,0,1,2.6.52,6.16,6.16,0,0,1,1.13.66l-1.08,1.31a5.59,5.59,0,0,0-1.35-.66,4,4,0,0,0-1.3-.22,2.44,2.44,0,0,0-1.37.31,1.08,1.08,0,0,0-.46.94.64.64,0,0,0,.26.55,1.72,1.72,0,0,0,.66.25c.26,0,.64.07,1.12.1h.34a7.67,7.67,0,0,1,1.63.25,2.24,2.24,0,0,1,1.13.77,2.62,2.62,0,0,1,.45,1.65,2.92,2.92,0,0,1-.42,1.63,2.54,2.54,0,0,1-1.27,1A5.88,5.88,0,0,1,115,610,7.38,7.38,0,0,1,113.51,609.88Z"/><path class="b" d="M126,597.13h1.8V609.9H126Zm2.6,12.5a2.39,2.39,0,0,1-.93-1.16l.13-1.91a2.22,2.22,0,0,0,.21,1,1.48,1.48,0,0,0,.61.63,1.93,1.93,0,0,0,1,.22,1.74,1.74,0,0,0,1.37-.54,2.18,2.18,0,0,0,.49-1.53v-2a2.26,2.26,0,0,0-.49-1.56,1.71,1.71,0,0,0-1.37-.55,2,2,0,0,0-1,.21,1.36,1.36,0,0,0-.61.62,2.12,2.12,0,0,0-.21,1l-.19-1.76a3.37,3.37,0,0,1,1.08-1.24,2.67,2.67,0,0,1,1.49-.43,3,3,0,0,1,1.65.43,2.9,2.9,0,0,1,1.06,1.27,5.1,5.1,0,0,1,.36,2v2a4.94,4.94,0,0,1-.37,2,2.79,2.79,0,0,1-1.08,1.26,3.25,3.25,0,0,1-1.71.44A2.73,2.73,0,0,1,128.57,609.63Z"/><path class="b" d="M134.46,600.78h1.82l2.81,7.93-1,1.94Zm8.07,0L138.65,612a2.6,2.6,0,0,1-.56,1,1.87,1.87,0,0,1-.84.52,4,4,0,0,1-1.23.16h-.36V612H136a1.46,1.46,0,0,0,.8-.2,1.74,1.74,0,0,0,.51-.7l3.37-10.31Z"/><path class="b" d="M143.57,600.78h4.12v1.62h-4.12Zm1.46,8.56a2.77,2.77,0,0,1-.52-1.81v-9.4h1.8v9.42a.84.84,0,0,0,.13.51.46.46,0,0,0,.39.18h.86V610h-1A2,2,0,0,1,145,609.34Z"/><path class="b" d="M151.94,606.33a2.07,2.07,0,0,0,.49,1.48,1.76,1.76,0,0,0,1.37.52,1.91,1.91,0,0,0,1.37-.46,1.79,1.79,0,0,0,.48-1.33l.12,1.91A2.58,2.58,0,0,1,153.3,610a2.89,2.89,0,0,1-2.33-1,4.08,4.08,0,0,1-.82-2.73v-5.55h1.79Zm3.71-5.55h1.78v9.12h-1.78Z"/><rect class="c" x="612.92" y="591.68" width="35.43" height="2.83"/><path class="d" d="M648.48,594.64H612.79v-3.08h35.69ZM613,594.39h35.19v-2.58H613Z"/><rect class="c" x="612.92" y="601.6" width="70.74" height="2.83"/><path class="d" d="M683.78,604.56h-71v-3.08h71ZM613,604.31h70.49v-2.58H613Z"/><rect class="c" x="612.92" y="612.72" width="177.16" height="2.84"/><path class="d" d="M790.21,615.68H612.79V612.6H790.21ZM613,615.43H790v-2.58H613Z"/><path class="e" d="M587.26,596.28h-.8v-4.82l-.81.5v-.83l.81-.53h.8Z"/><path class="e" d="M589,595.91a1.67,1.67,0,0,1-.41-1.19v-2.58A1.65,1.65,0,0,1,589,591a2,2,0,0,1,2.42,0,1.65,1.65,0,0,1,.41,1.19v2.58a1.65,1.65,0,0,1-.41,1.19,2,2,0,0,1-2.42,0Zm1.83-.55a.89.89,0,0,0,.2-.64v-2.58a.89.89,0,0,0-.2-.64.82.82,0,0,0-.62-.22.86.86,0,0,0-.63.22.94.94,0,0,0-.2.64v2.58a.9.9,0,0,0,.21.64,1,1,0,0,0,1.24,0Z"/><path class="e" d="M593.22,595.91a1.67,1.67,0,0,1-.41-1.19v-2.58a1.65,1.65,0,0,1,.41-1.19,2,2,0,0,1,2.42,0,1.61,1.61,0,0,1,.41,1.19v2.58a1.65,1.65,0,0,1-.41,1.19,2,2,0,0,1-2.42,0Zm1.83-.55a.9.9,0,0,0,.21-.64v-2.58a.94.94,0,0,0-.2-.64.86.86,0,0,0-.63-.22.82.82,0,0,0-.62.22.89.89,0,0,0-.2.64v2.58a.89.89,0,0,0,.2.64,1,1,0,0,0,1.24,0Z"/><path class="e" d="M600.1,596.13a1.45,1.45,0,0,1-.6-.6,2.06,2.06,0,0,1-.21-1v-.67a2,2,0,0,1,.21-.94,1.37,1.37,0,0,1,.6-.59,2,2,0,0,1,.95-.21,2.21,2.21,0,0,1,.59.08,1.68,1.68,0,0,1,.51.22,1.54,1.54,0,0,1,.37.35l-.58.52a1.17,1.17,0,0,0-.4-.3,1.13,1.13,0,0,0-.48-.11.94.94,0,0,0-.71.26,1,1,0,0,0-.26.72v.67a1,1,0,0,0,.25.74.94.94,0,0,0,.72.27,1,1,0,0,0,.48-.12,1,1,0,0,0,.4-.32l.58.56a1.38,1.38,0,0,1-.38.34,1.62,1.62,0,0,1-.5.22,2.27,2.27,0,0,1-.59.07A2.12,2.12,0,0,1,600.1,596.13Z"/><path class="e" d="M603.4,592.22h.79v4.06h-.79Zm2.42,1.6a1,1,0,0,0-.21-.67.78.78,0,0,0-.6-.23.81.81,0,0,0-.6.21.73.73,0,0,0-.22.58l-.08-.78a1.46,1.46,0,0,1,.49-.57,1.22,1.22,0,0,1,.67-.2,1.33,1.33,0,0,1,.73.2,1.18,1.18,0,0,1,.46.56,2.4,2.4,0,0,1,.15.89v2.47h-.79Zm2.42,0a.93.93,0,0,0-.22-.67.85.85,0,0,0-.63-.23.72.72,0,0,0-.57.23.9.9,0,0,0-.21.64l-.16-.78a1.61,1.61,0,0,1,.51-.63,1.23,1.23,0,0,1,.69-.22,1.37,1.37,0,0,1,.75.2,1.09,1.09,0,0,1,.47.56,2.21,2.21,0,0,1,.17.89v2.47h-.8Z"/><path class="e" d="M584.33,605.5l2-2.64a1.85,1.85,0,0,0,.27-.47,1.29,1.29,0,0,0,.09-.45h0a.67.67,0,0,0-.2-.53.81.81,0,0,0-.56-.19.76.76,0,0,0-.56.21,1,1,0,0,0-.27.58h-.82a2,2,0,0,1,.29-.83,1.42,1.42,0,0,1,.56-.53,1.67,1.67,0,0,1,.79-.18,1.93,1.93,0,0,1,.87.17,1.21,1.21,0,0,1,.54.51,1.55,1.55,0,0,1,.19.8h0a1.84,1.84,0,0,1-.12.63,2.8,2.8,0,0,1-.35.63l-1.65,2.24h2.15v.76h-3.2Z"/><path class="e" d="M589,605.83a1.67,1.67,0,0,1-.41-1.19v-2.58a1.65,1.65,0,0,1,.41-1.19,2,2,0,0,1,2.42,0,1.65,1.65,0,0,1,.41,1.19v2.58a1.65,1.65,0,0,1-.41,1.19,2,2,0,0,1-2.42,0Zm1.83-.55a.89.89,0,0,0,.2-.64v-2.58a.89.89,0,0,0-.2-.64.82.82,0,0,0-.62-.22.86.86,0,0,0-.63.22.94.94,0,0,0-.19.64v2.58a.89.89,0,0,0,.2.64,1,1,0,0,0,1.24,0Z"/><path class="e" d="M593.22,605.83a1.67,1.67,0,0,1-.41-1.19v-2.58a1.61,1.61,0,0,1,.42-1.19,1.59,1.59,0,0,1,1.2-.42,1.45,1.45,0,0,1,1.62,1.61v2.58a1.61,1.61,0,0,1-.41,1.19,2,2,0,0,1-2.42,0Zm1.84-.55a.94.94,0,0,0,.2-.64v-2.58a.94.94,0,0,0-.2-.64.84.84,0,0,0-.63-.22.82.82,0,0,0-.62.22.89.89,0,0,0-.2.64v2.58a.89.89,0,0,0,.2.64.82.82,0,0,0,.62.22A.86.86,0,0,0,595.06,605.28Z"/><path class="e" d="M600.1,606.05a1.45,1.45,0,0,1-.6-.6,2.06,2.06,0,0,1-.2-1v-.67a2,2,0,0,1,.2-.94,1.37,1.37,0,0,1,.6-.59,2,2,0,0,1,.95-.21,2.35,2.35,0,0,1,.6.08,1.73,1.73,0,0,1,.5.22,1.38,1.38,0,0,1,.37.35l-.58.52a1.08,1.08,0,0,0-.4-.3,1.13,1.13,0,0,0-.48-.11,1,1,0,0,0-.71.26,1,1,0,0,0-.26.72v.67a1,1,0,0,0,.25.74.94.94,0,0,0,.72.27,1.14,1.14,0,0,0,.88-.44l.58.56a1.38,1.38,0,0,1-.38.34,1.62,1.62,0,0,1-.5.22,2.22,2.22,0,0,1-.59.07A2.12,2.12,0,0,1,600.1,606.05Z"/><path class="e" d="M603.4,602.14h.79v4.06h-.79Zm2.42,1.6a1,1,0,0,0-.21-.67.78.78,0,0,0-.6-.23.81.81,0,0,0-.6.21.73.73,0,0,0-.22.58l-.08-.78a1.46,1.46,0,0,1,.49-.57,1.22,1.22,0,0,1,.67-.2,1.3,1.3,0,0,1,.73.2,1.18,1.18,0,0,1,.46.56,2.4,2.4,0,0,1,.16.89v2.47h-.8Zm2.42,0a.93.93,0,0,0-.22-.67.85.85,0,0,0-.63-.23.73.73,0,0,0-.57.23.89.89,0,0,0-.2.64l-.16-.78a1.51,1.51,0,0,1,.5-.63,1.23,1.23,0,0,1,.69-.22,1.35,1.35,0,0,1,.75.2,1.16,1.16,0,0,1,.48.56,2.4,2.4,0,0,1,.16.89v2.47h-.8Z"/><path class="e" d="M585,615.58a1.34,1.34,0,0,1-.54-.49,2,2,0,0,1-.28-.77h.8a.75.75,0,0,0,.25.49.85.85,0,0,0,.54.17.72.72,0,0,0,.59-.25,1.1,1.1,0,0,0,.21-.72v-.48a1.1,1.1,0,0,0-.21-.72.72.72,0,0,0-.59-.25.83.83,0,0,0-.4.11,1.18,1.18,0,0,0-.34.33h-.72v-3h2.89v.76h-2.1V612a1,1,0,0,1,.34-.18.94.94,0,0,1,.37-.07,1.68,1.68,0,0,1,.84.2,1.29,1.29,0,0,1,.53.6,2.07,2.07,0,0,1,.19.94V614a2.25,2.25,0,0,1-.19.94,1.31,1.31,0,0,1-.55.59,1.69,1.69,0,0,1-.86.21A1.74,1.74,0,0,1,585,615.58Z"/><path class="e" d="M589,615.32a1.65,1.65,0,0,1-.41-1.19v-2.58a1.67,1.67,0,0,1,.41-1.19,2,2,0,0,1,2.42,0,1.65,1.65,0,0,1,.41,1.19v2.58a1.64,1.64,0,0,1-.41,1.19,1.92,1.92,0,0,1-2.42,0Zm1.83-.55a.89.89,0,0,0,.2-.64v-2.58a.88.88,0,0,0-.2-.63.78.78,0,0,0-.62-.22.82.82,0,0,0-.63.22.93.93,0,0,0-.2.63v2.58a.9.9,0,0,0,.21.64,1,1,0,0,0,1.24,0Z"/><path class="e" d="M593.22,615.32a1.65,1.65,0,0,1-.41-1.19v-2.58a1.67,1.67,0,0,1,.41-1.19,2,2,0,0,1,2.42,0,1.61,1.61,0,0,1,.41,1.19v2.58a1.64,1.64,0,0,1-.41,1.19,1.92,1.92,0,0,1-2.42,0Zm1.83-.55a.9.9,0,0,0,.21-.64v-2.58a.93.93,0,0,0-.2-.63.82.82,0,0,0-.63-.22.78.78,0,0,0-.62.22.88.88,0,0,0-.2.63v2.58a.89.89,0,0,0,.2.64,1,1,0,0,0,1.24,0Z"/><path class="e" d="M600.1,615.54a1.45,1.45,0,0,1-.6-.6,2,2,0,0,1-.21-1v-.67a2,2,0,0,1,.21-.94,1.45,1.45,0,0,1,.6-.6,2,2,0,0,1,.95-.2,2.22,2.22,0,0,1,.59.07,2,2,0,0,1,.51.22,1.76,1.76,0,0,1,.37.35l-.58.52a1.17,1.17,0,0,0-.4-.3,1.13,1.13,0,0,0-.48-.11.94.94,0,0,0-.71.26,1,1,0,0,0-.26.73V614a1.07,1.07,0,0,0,.25.74,1,1,0,0,0,.72.26,1.13,1.13,0,0,0,.48-.11,1.26,1.26,0,0,0,.4-.32l.58.55a1.42,1.42,0,0,1-.38.35,1.88,1.88,0,0,1-.5.21,2.27,2.27,0,0,1-.59.08A2,2,0,0,1,600.1,615.54Z"/><path class="e" d="M603.4,611.63h.79v4.06h-.79Zm2.42,1.6a1,1,0,0,0-.21-.66.75.75,0,0,0-.6-.24.81.81,0,0,0-.6.21.75.75,0,0,0-.22.58l-.08-.78a1.5,1.5,0,0,1,.49-.56,1.15,1.15,0,0,1,.67-.2,1.32,1.32,0,0,1,.73.19,1.28,1.28,0,0,1,.46.56,2.42,2.42,0,0,1,.15.9v2.46h-.79Zm2.42,0a.91.91,0,0,0-.22-.66.82.82,0,0,0-.63-.24.72.72,0,0,0-.57.23.9.9,0,0,0-.21.64l-.16-.78a1.51,1.51,0,0,1,.51-.62,1.16,1.16,0,0,1,.69-.22,1.37,1.37,0,0,1,.75.19,1.18,1.18,0,0,1,.47.56,2.22,2.22,0,0,1,.17.9v2.46h-.8Z"/><path class="c" d="M23.49,613.89A12.92,12.92,0,1,1,36.4,601,12.93,12.93,0,0,1,23.49,613.89Zm0-24.83A11.92,11.92,0,1,0,35.4,601,11.93,11.93,0,0,0,23.49,589.06Z"/><polygon class="d" points="35.77 588.74 9.42 600.98 35.77 613.21 32.02 600.98 35.77 588.74"/><path class="c" d="M36.58,614.14,8.23,601l28.35-13.17-4,13.17ZM10.61,601,35,612.29,31.5,601,35,589.66Z"/><path class="c" d="M2.52,605.19a5,5,0,0,1-1.11-.38,4.4,4.4,0,0,1-1-.64l.81-1a3.72,3.72,0,0,0,1.16.69,4.08,4.08,0,0,0,1.38.23,2.73,2.73,0,0,0,1.55-.38,1.17,1.17,0,0,0,.55-1.05h0a1.12,1.12,0,0,0-.25-.77,1.44,1.44,0,0,0-.64-.42,8.23,8.23,0,0,0-1-.25H3.89l-.1,0a9.48,9.48,0,0,1-1.5-.36,2.08,2.08,0,0,1-1-.73,2.42,2.42,0,0,1-.41-1.51h0a2.77,2.77,0,0,1,.38-1.47,2.44,2.44,0,0,1,1.12-.92,4.48,4.48,0,0,1,1.77-.32,4.6,4.6,0,0,1,1,.11,4.9,4.9,0,0,1,1.86.86l-.73,1a4.61,4.61,0,0,0-1-.58,3,3,0,0,0-1.06-.2,2.44,2.44,0,0,0-1.46.38,1.24,1.24,0,0,0-.53,1.07h0a1,1,0,0,0,.27.75,1.74,1.74,0,0,0,.67.4,9.3,9.3,0,0,0,1.12.27h.24a7.93,7.93,0,0,1,1.4.41,2.22,2.22,0,0,1,.94.76,2.4,2.4,0,0,1,.38,1.43h0a2.62,2.62,0,0,1-.4,1.45,2.54,2.54,0,0,1-1.16.91,4.8,4.8,0,0,1-1.83.31A6.44,6.44,0,0,1,2.52,605.19Z"/><rect class="c" x="612.5" y="600.68" width="1" height="4.68"/><rect class="c" x="612.5" y="590.76" width="1" height="4.68"/><rect class="c" x="612.5" y="611.45" width="1" height="5.24"/><rect class="c" x="789.58" y="611.45" width="1" height="5.24"/><rect class="c" x="682.59" y="600.68" width="1" height="4.68"/><rect class="c" x="647.3" y="590.76" width="1" height="4.68"/><rect class="a" width="790.34" height="618.13"/><rect class="d" x="316.26" y="405.68" width="25.88" height="17.34"/><line class="f" x1="316.26" y1="405.68" x2="316.26" y2="423.02"/><line class="f" x1="342.14" y1="405.68" x2="316.26" y2="405.68"/><line class="f" x1="342.14" y1="423.02" x2="342.14" y2="405.68"/><line class="f" x1="316.26" y1="423.02" x2="342.14" y2="423.02"/><rect class="d" x="423.22" y="401.87" width="97.3" height="21.15"/><line class="f" x1="423.22" y1="401.87" x2="423.22" y2="423.02"/><line class="f" x1="520.52" y1="401.87" x2="423.22" y2="401.87"/><line class="f" x1="520.52" y1="423.02" x2="520.52" y2="401.87"/><line class="f" x1="423.22" y1="423.02" x2="520.52" y2="423.02"/><rect class="d" x="499.47" y="349.85" width="21.05" height="52.02"/><line class="f" x1="499.47" y1="349.85" x2="499.47" y2="401.87"/><line class="f" x1="520.52" y1="349.85" x2="499.47" y2="349.85"/><line class="f" x1="520.52" y1="401.87" x2="520.52" y2="349.85"/><line class="f" x1="499.47" y1="401.87" x2="520.52" y2="401.87"/><rect class="d" x="227.42" y="358" width="27.6" height="41.61"/><line class="f" x1="255.02" y1="399.61" x2="227.42" y2="399.61"/><line class="f" x1="227.42" y1="399.61" x2="227.42" y2="358"/><line class="f" x1="227.42" y1="358" x2="255.02" y2="358"/><line class="f" x1="255.02" y1="358" x2="255.02" y2="399.61"/><line class="f" x1="528.8" y1="397.7" x2="528.8" y2="413.31"/><line class="f" x1="528.8" y1="397.7" x2="528.8" y2="397.7"/><line class="f" x1="528.8" y1="413.31" x2="528.8" y2="413.31"/><line class="f" x1="419.77" y1="423.02" x2="401.48" y2="423.02"/><line class="f" x1="401.48" y1="423.02" x2="401.48" y2="405.68"/><line class="f" x1="401.48" y1="405.68" x2="404.93" y2="419.55"/><line class="f" x1="404.93" y1="419.55" x2="419.77" y2="423.02"/><polygon points="491.88 244.08 491.88 237.14 524.66 237.14 528.8 237.14 528.8 244.08 491.88 244.08"/><rect x="327.99" y="237.14" width="77.63" height="6.94"/><polygon points="218.27 244.08 218.27 237.14 222.41 237.14 241.74 237.14 241.74 244.08 218.27 244.08"/><polygon points="520.52 431.34 381.82 431.34 381.82 423.02 520.52 423.02 520.52 251.01 528.8 251.01 528.8 431.34 520.52 431.34"/><rect x="226.55" y="350.19" width="94.88" height="6.94"/><polygon points="218.27 431.34 218.27 423.02 218.27 251.01 226.55 251.01 226.55 423.02 343.86 423.02 343.86 431.34 218.27 431.34"/><rect x="329.72" y="244.08" width="74.18" height="6.94"/><rect x="218.27" y="244.08" width="21.74" height="6.94"/><rect x="493.6" y="244.08" width="35.19" height="6.94"/><polygon points="352.49 357.13 352.49 350.19 378.37 350.19 378.37 251.01 385.26 251.01 385.26 357.13 352.49 357.13"/><rect x="343.86" y="427.35" width="1.72" height="3.99"/><rect x="380.09" y="427.87" width="1.72" height="3.47"/><polygon points="399.07 367.53 399.07 357.13 385.27 357.13 385.27 354.7 401.48 354.7 401.48 367.53 399.07 367.53"/><rect x="399.07" y="398.74" width="2.41" height="24.28"/><rect x="313.85" y="357.13" width="2.41" height="8.67"/><rect x="313.85" y="393.54" width="2.41" height="29.48"/><rect x="226.55" y="400.48" width="27.6" height="3.47"/><rect x="250.71" y="404.06" width="3.45" height="18.96"/><rect x="523.28" y="166.02" width="1.38" height="71.09"/><rect x="222.41" y="166.02" width="1.21" height="71.09"/><polygon points="381.82 423.02 381.82 405.68 399.07 405.68 399.07 409.15 385.27 409.15 385.27 423.02 381.82 423.02"/><polygon points="419.77 423.02 419.77 405.68 401.48 405.68 401.48 402.21 423.22 402.21 423.22 423.02 419.77 423.02"/><line class="f" x1="520.52" y1="251.01" x2="520.52" y2="423.02"/><line class="f" x1="226.55" y1="251.01" x2="226.55" y2="350.19"/><line class="f" x1="218.27" y1="400.9" x2="218.27" y2="402.21"/><line class="f" x1="218.27" y1="402.21" x2="218.27" y2="402.21"/><line class="f" x1="524.66" y1="237.14" x2="491.88" y2="237.14"/><line class="f" x1="528.8" y1="237.14" x2="524.66" y2="237.14"/><line class="f" x1="405.62" y1="237.14" x2="327.99" y2="237.14"/><line class="f" x1="222.41" y1="237.14" x2="218.27" y2="237.14"/><line class="f" x1="241.74" y1="237.14" x2="222.41" y2="237.14"/><line class="f" x1="403.9" y1="251.01" x2="385.27" y2="251.01"/><line class="f" x1="378.37" y1="251.01" x2="329.72" y2="251.01"/><line class="f" x1="240.01" y1="251.01" x2="226.55" y2="251.01"/><line class="f" x1="520.52" y1="251.01" x2="493.6" y2="251.01"/><line class="f" x1="399.07" y1="423.02" x2="385.27" y2="423.02"/><line class="f" x1="254.16" y1="423.02" x2="313.85" y2="423.02"/><line class="f" x1="378.37" y1="350.19" x2="352.49" y2="350.19"/><line class="f" x1="321.44" y1="357.13" x2="316.26" y2="357.13"/><line class="f" x1="378.37" y1="251.01" x2="378.37" y2="350.19"/><line class="f" x1="385.27" y1="251.01" x2="385.27" y2="354.7"/><line class="f" x1="321.44" y1="357.13" x2="321.44" y2="350.19"/><line class="f" x1="352.49" y1="357.13" x2="352.49" y2="350.19"/><line class="f" x1="380.09" y1="427.35" x2="380.09" y2="431.34"/><line class="f" x1="345.59" y1="427.35" x2="345.59" y2="431.34"/><line class="f" x1="345.59" y1="427.35" x2="343.86" y2="427.35"/><line class="f" x1="380.09" y1="427.35" x2="381.82" y2="427.35"/><line class="f" x1="381.82" y1="427.35" x2="381.82" y2="405.68"/><line class="f" x1="380.09" y1="431.34" x2="510.72" y2="431.34"/><line class="f" x1="423.22" y1="423.02" x2="520.52" y2="423.02"/><line class="f" x1="226.55" y1="357.13" x2="313.85" y2="357.13"/><line class="f" x1="226.55" y1="350.19" x2="321.44" y2="350.19"/><line class="f" x1="345.58" y1="431.34" x2="343.86" y2="431.34"/><line class="f" x1="380.09" y1="431.34" x2="381.82" y2="431.34"/><line class="f" x1="493.6" y1="251.01" x2="493.6" y2="244.08"/><line class="f" x1="403.9" y1="251.01" x2="403.9" y2="244.08"/><line class="f" x1="240.01" y1="251.01" x2="240.01" y2="244.08"/><line class="f" x1="329.72" y1="244.08" x2="329.72" y2="251.01"/><line class="f" x1="241.74" y1="244.08" x2="241.74" y2="237.14"/><line class="f" x1="240.01" y1="244.08" x2="241.74" y2="244.08"/><line class="f" x1="405.62" y1="244.08" x2="405.62" y2="237.14"/><line class="f" x1="403.9" y1="244.08" x2="405.62" y2="244.08"/><line class="f" x1="327.99" y1="244.08" x2="327.99" y2="237.14"/><line class="f" x1="329.72" y1="244.08" x2="327.99" y2="244.08"/><line class="f" x1="491.88" y1="244.08" x2="491.88" y2="237.14"/><line class="f" x1="493.6" y1="244.08" x2="491.88" y2="244.08"/><line class="f" x1="528.8" y1="413.31" x2="528.8" y2="413.31"/><line class="f" x1="401.48" y1="423.02" x2="419.77" y2="423.02"/><line class="f" x1="523.28" y1="166.05" x2="524.66" y2="166.05"/><line class="f" x1="523.28" y1="166.05" x2="523.28" y2="237.11"/><line class="f" x1="523.28" y1="237.11" x2="524.66" y2="237.11"/><line class="f" x1="222.41" y1="166.05" x2="223.62" y2="166.05"/><line class="f" x1="223.62" y1="166.05" x2="223.62" y2="237.14"/><line class="f" x1="220.86" y1="237.14" x2="222.41" y2="237.14"/><line class="f" x1="222.41" y1="237.14" x2="223.62" y2="237.14"/><line class="f" x1="399.07" y1="357.13" x2="352.49" y2="357.13"/><line class="f" x1="399.07" y1="357.13" x2="399.07" y2="367.53"/><line class="f" x1="401.48" y1="398.74" x2="401.48" y2="402.21"/><line class="f" x1="401.48" y1="405.68" x2="401.48" y2="423.02"/><line class="f" x1="401.48" y1="354.7" x2="401.48" y2="367.53"/><line class="f" x1="401.48" y1="367.53" x2="399.07" y2="367.53"/><line class="f" x1="401.48" y1="405.68" x2="419.77" y2="405.68"/><line class="f" x1="419.77" y1="405.68" x2="419.77" y2="423.02"/><line class="f" x1="401.48" y1="402.21" x2="423.22" y2="402.21"/><line class="f" x1="423.22" y1="402.21" x2="423.22" y2="423.02"/><line class="f" x1="313.85" y1="357.13" x2="313.85" y2="365.8"/><line class="f" x1="313.85" y1="393.54" x2="313.85" y2="423.02"/><line class="f" x1="316.26" y1="357.13" x2="316.26" y2="365.8"/><line class="f" x1="316.26" y1="365.8" x2="313.85" y2="365.8"/><line class="f" x1="316.26" y1="393.54" x2="316.26" y2="423.02"/><line class="f" x1="401.48" y1="398.74" x2="399.07" y2="398.74"/><line class="f" x1="399.07" y1="409.15" x2="399.07" y2="423.02"/><line class="f" x1="385.27" y1="354.7" x2="401.48" y2="354.7"/><line class="f" x1="399.07" y1="398.74" x2="399.07" y2="405.68"/><line class="f" x1="399.07" y1="405.68" x2="381.82" y2="405.68"/><line class="f" x1="399.07" y1="409.15" x2="385.27" y2="409.15"/><line class="f" x1="385.27" y1="409.15" x2="385.27" y2="423.02"/><line class="f" x1="378.37" y1="427.35" x2="347.31" y2="427.35"/><line class="f" x1="378.37" y1="427.35" x2="378.37" y2="396.14"/><g class="g"><path class="f" d="M347.31,427.35a31.14,31.14,0,0,1,31.06-31.21"/></g><line class="f" x1="378.37" y1="431.34" x2="378.37" y2="427.35"/><line class="f" x1="347.31" y1="427.35" x2="347.31" y2="431.34"/><line class="f" x1="347.31" y1="427.35" x2="345.59" y2="427.35"/><line class="f" x1="380.09" y1="427.35" x2="378.37" y2="427.35"/><line class="f" x1="493.6" y1="251.01" x2="438.4" y2="251.01"/><line class="f" x1="438.4" y1="251.01" x2="403.9" y2="251.01"/><line class="f" x1="491.88" y1="237.14" x2="436.68" y2="237.14"/><line class="f" x1="438.4" y1="251.01" x2="438.4" y2="244.08"/><line class="f" x1="436.67" y1="244.08" x2="436.67" y2="237.14"/><line class="f" x1="436.67" y1="240.61" x2="405.62" y2="240.61"/><line class="f" x1="405.28" y1="247.55" x2="405.28" y2="279.45"/><line class="f" x1="435.64" y1="244.77" x2="435.64" y2="244.08"/><line class="f" x1="435.64" y1="244.08" x2="438.4" y2="244.08"/><line class="f" x1="438.4" y1="244.08" x2="438.4" y2="246.85"/><line class="f" x1="438.4" y1="246.85" x2="437.02" y2="246.85"/><line class="f" x1="437.02" y1="247.55" x2="434.26" y2="247.55"/><line class="f" x1="434.26" y1="247.55" x2="434.26" y2="244.77"/><line class="f" x1="434.26" y1="244.77" x2="437.02" y2="244.77"/><line class="f" x1="437.02" y1="244.77" x2="437.02" y2="247.55"/><line class="f" x1="405.28" y1="247.55" x2="408.04" y2="247.55"/><line class="f" x1="408.04" y1="247.55" x2="408.04" y2="244.77"/><line class="f" x1="408.04" y1="244.77" x2="405.28" y2="244.77"/><line class="f" x1="405.28" y1="244.77" x2="405.28" y2="247.55"/><line class="f" x1="434.26" y1="247.55" x2="408.04" y2="247.55"/><line class="f" x1="408.04" y1="244.77" x2="434.26" y2="244.77"/><line class="f" x1="434.26" y1="246.16" x2="408.04" y2="246.16"/><g class="g"><path class="f" d="M437,247.55a31.82,31.82,0,0,1-31.74,31.9"/></g><line class="f" x1="406.66" y1="244.77" x2="406.66" y2="244.08"/><line class="f" x1="406.66" y1="244.08" x2="403.9" y2="244.08"/><line class="f" x1="403.9" y1="244.08" x2="403.9" y2="246.85"/><line class="f" x1="403.9" y1="246.85" x2="405.28" y2="246.85"/><line class="f" x1="438.4" y1="246.85" x2="441.16" y2="246.85"/><line class="f" x1="441.16" y1="246.85" x2="441.16" y2="244.08"/><line class="f" x1="441.16" y1="244.08" x2="438.4" y2="244.08"/><line class="f" x1="438.4" y1="244.08" x2="438.4" y2="246.85"/><line class="f" x1="441.16" y1="246.85" x2="464.62" y2="246.85"/><line class="f" x1="441.16" y1="245.47" x2="464.62" y2="245.47"/><line class="f" x1="441.16" y1="244.08" x2="464.62" y2="244.08"/><line class="f" x1="490.84" y1="244.77" x2="490.84" y2="244.08"/><line class="f" x1="490.84" y1="244.08" x2="493.6" y2="244.08"/><line class="f" x1="493.6" y1="244.08" x2="493.6" y2="246.85"/><line class="f" x1="493.6" y1="246.85" x2="492.22" y2="246.85"/><line class="f" x1="492.22" y1="247.55" x2="489.46" y2="247.55"/><line class="f" x1="489.46" y1="247.55" x2="489.46" y2="244.77"/><line class="f" x1="489.46" y1="244.77" x2="492.22" y2="244.77"/><line class="f" x1="492.22" y1="244.77" x2="492.22" y2="247.55"/><line class="f" x1="489.46" y1="247.55" x2="468.76" y2="247.55"/><line class="f" x1="468.76" y1="244.77" x2="489.46" y2="244.77"/><line class="f" x1="489.46" y1="246.16" x2="468.76" y2="246.16"/><line class="f" x1="467.38" y1="244.77" x2="467.38" y2="244.08"/><line class="f" x1="467.38" y1="244.08" x2="464.62" y2="244.08"/><line class="f" x1="464.62" y1="244.08" x2="464.62" y2="246.85"/><line class="f" x1="464.62" y1="246.85" x2="466" y2="246.85"/><line class="f" x1="466" y1="247.55" x2="468.76" y2="247.55"/><line class="f" x1="468.76" y1="247.55" x2="468.76" y2="244.77"/><line class="f" x1="468.76" y1="244.77" x2="466" y2="244.77"/><line class="f" x1="466" y1="244.77" x2="466" y2="247.55"/><line class="f" x1="240.01" y1="251.01" x2="295.21" y2="251.01"/><line class="f" x1="295.21" y1="251.01" x2="329.72" y2="251.01"/><line class="f" x1="241.74" y1="237.14" x2="296.94" y2="237.14"/><line class="f" x1="295.21" y1="251.01" x2="295.21" y2="244.08"/><line class="f" x1="296.94" y1="244.08" x2="296.94" y2="237.14"/><line class="f" x1="296.94" y1="240.61" x2="327.99" y2="240.61"/><line class="f" x1="328.34" y1="247.55" x2="328.34" y2="279.45"/><line class="f" x1="297.97" y1="244.77" x2="297.97" y2="244.08"/><line class="f" x1="297.97" y1="244.08" x2="295.21" y2="244.08"/><line class="f" x1="295.21" y1="244.08" x2="295.21" y2="246.85"/><line class="f" x1="295.21" y1="246.85" x2="296.6" y2="246.85"/><line class="f" x1="296.59" y1="247.55" x2="299.36" y2="247.55"/><line class="f" x1="299.35" y1="247.55" x2="299.35" y2="244.77"/><line class="f" x1="299.35" y1="244.77" x2="296.59" y2="244.77"/><line class="f" x1="296.59" y1="244.77" x2="296.59" y2="247.55"/><line class="f" x1="328.34" y1="247.55" x2="325.58" y2="247.55"/><line class="f" x1="325.58" y1="247.55" x2="325.58" y2="244.77"/><line class="f" x1="325.58" y1="244.77" x2="328.34" y2="244.77"/><line class="f" x1="328.34" y1="244.77" x2="328.34" y2="247.55"/><line class="f" x1="299.35" y1="247.55" x2="325.58" y2="247.55"/><line class="f" x1="325.58" y1="244.77" x2="299.36" y2="244.77"/><line class="f" x1="299.35" y1="246.16" x2="325.58" y2="246.16"/><g class="g"><path class="f" d="M328.34,279.45a31.83,31.83,0,0,1-31.75-31.9"/></g><line class="f" x1="326.96" y1="244.77" x2="326.96" y2="244.08"/><line class="f" x1="326.96" y1="244.08" x2="329.72" y2="244.08"/><line class="f" x1="329.72" y1="244.08" x2="329.72" y2="246.85"/><line class="f" x1="329.72" y1="246.85" x2="328.34" y2="246.85"/><line class="f" x1="295.21" y1="246.85" x2="292.45" y2="246.85"/><line class="f" x1="292.45" y1="246.85" x2="292.45" y2="244.08"/><line class="f" x1="292.45" y1="244.08" x2="295.21" y2="244.08"/><line class="f" x1="295.21" y1="244.08" x2="295.21" y2="246.85"/><line class="f" x1="292.45" y1="246.85" x2="268.99" y2="246.85"/><line class="f" x1="292.45" y1="245.47" x2="268.99" y2="245.47"/><line class="f" x1="292.45" y1="244.08" x2="268.99" y2="244.08"/><line class="f" x1="242.77" y1="244.77" x2="242.77" y2="244.08"/><line class="f" x1="242.77" y1="244.08" x2="240.01" y2="244.08"/><line class="f" x1="240.01" y1="244.08" x2="240.01" y2="246.85"/><line class="f" x1="240.01" y1="246.85" x2="241.39" y2="246.85"/><line class="f" x1="241.39" y1="247.55" x2="244.15" y2="247.55"/><line class="f" x1="244.15" y1="247.55" x2="244.15" y2="244.77"/><line class="f" x1="244.15" y1="244.77" x2="241.39" y2="244.77"/><line class="f" x1="241.39" y1="244.77" x2="241.39" y2="247.55"/><line class="f" x1="244.15" y1="247.55" x2="264.85" y2="247.55"/><line class="f" x1="264.85" y1="244.77" x2="244.15" y2="244.77"/><line class="f" x1="244.15" y1="246.16" x2="264.85" y2="246.16"/><line class="f" x1="266.23" y1="244.77" x2="266.23" y2="244.08"/><line class="f" x1="266.23" y1="244.08" x2="268.99" y2="244.08"/><line class="f" x1="268.99" y1="244.08" x2="268.99" y2="246.85"/><line class="f" x1="268.99" y1="246.85" x2="267.61" y2="246.85"/><line class="f" x1="267.61" y1="247.55" x2="264.85" y2="247.55"/><line class="f" x1="264.85" y1="247.55" x2="264.85" y2="244.77"/><line class="f" x1="264.85" y1="244.77" x2="267.61" y2="244.77"/><line class="f" x1="267.61" y1="244.77" x2="267.61" y2="247.55"/><line class="f" x1="350.76" y1="350.19" x2="323.16" y2="350.19"/><line class="f" x1="350.76" y1="350.19" x2="350.76" y2="322.45"/><g class="g"><path class="f" d="M323.16,350.19a27.67,27.67,0,0,1,27.6-27.74"/></g><line class="f" x1="350.76" y1="357.13" x2="350.76" y2="350.19"/><line class="f" x1="323.16" y1="350.19" x2="323.16" y2="357.13"/><line class="f" x1="323.16" y1="350.19" x2="321.44" y2="350.19"/><line class="f" x1="323.16" y1="357.13" x2="321.44" y2="357.13"/><line class="f" x1="352.49" y1="350.19" x2="350.76" y2="350.19"/><line class="f" x1="352.49" y1="357.13" x2="350.76" y2="357.13"/><line class="f" x1="350.76" y1="357.13" x2="343.86" y2="357.13"/><line class="f" x1="340.07" y1="357.13" x2="339.29" y2="357.13"/><line class="f" x1="335.5" y1="357.13" x2="334.72" y2="357.13"/><line class="f" x1="330.93" y1="357.13" x2="330.06" y2="357.13"/><line class="f" x1="330.06" y1="357.13" x2="323.16" y2="357.13"/><line class="f" x1="350.76" y1="350.19" x2="350.76" y2="349.33"/><line class="f" x1="350.76" y1="349.33" x2="354.21" y2="349.33"/><line class="f" x1="354.21" y1="349.33" x2="354.21" y2="350.19"/><line class="f" x1="350.76" y1="357.13" x2="350.76" y2="358"/><line class="f" x1="350.76" y1="358" x2="354.21" y2="358"/><line class="f" x1="354.21" y1="358" x2="354.21" y2="357.13"/><line class="f" x1="323.16" y1="349.33" x2="319.71" y2="349.33"/><line class="f" x1="319.71" y1="349.33" x2="319.71" y2="350.19"/><line class="f" x1="323.16" y1="357.13" x2="323.16" y2="358"/><line class="f" x1="323.16" y1="358" x2="319.71" y2="358"/><line class="f" x1="319.71" y1="358" x2="319.71" y2="357.13"/><line class="f" x1="222.41" y1="162.58" x2="524.66" y2="162.58"/><line class="f" x1="401.48" y1="397.01" x2="401.48" y2="369.27"/><line class="f" x1="401.48" y1="397.01" x2="429.08" y2="397.01"/><g class="g"><path class="f" d="M401.48,369.27A27.67,27.67,0,0,1,429.08,397"/></g><line class="f" x1="399.07" y1="397.01" x2="401.48" y2="397.01"/><line class="f" x1="401.48" y1="369.27" x2="399.07" y2="369.27"/><line class="f" x1="401.48" y1="369.27" x2="401.48" y2="367.53"/><line class="f" x1="399.07" y1="369.27" x2="399.07" y2="367.53"/><line class="f" x1="401.48" y1="398.74" x2="401.48" y2="397.01"/><line class="f" x1="399.07" y1="398.74" x2="399.07" y2="397.01"/><line class="f" x1="399.07" y1="397.01" x2="399.07" y2="390.08"/><line class="f" x1="399.07" y1="386.26" x2="399.07" y2="385.48"/><line class="f" x1="399.07" y1="381.67" x2="399.07" y2="380.89"/><line class="f" x1="399.07" y1="377.07" x2="399.07" y2="376.2"/><line class="f" x1="399.07" y1="376.2" x2="399.07" y2="369.27"/><line class="f" x1="401.48" y1="397.01" x2="402.35" y2="397.01"/><line class="f" x1="402.35" y1="397.01" x2="402.35" y2="400.48"/><line class="f" x1="402.35" y1="400.48" x2="401.48" y2="400.48"/><line class="f" x1="399.07" y1="397.01" x2="398.2" y2="397.01"/><line class="f" x1="398.2" y1="397.01" x2="398.2" y2="400.48"/><line class="f" x1="398.2" y1="400.48" x2="399.07" y2="400.48"/><line class="f" x1="402.35" y1="369.27" x2="402.35" y2="365.8"/><line class="f" x1="402.35" y1="365.8" x2="401.48" y2="365.8"/><line class="f" x1="399.07" y1="369.27" x2="398.2" y2="369.27"/><line class="f" x1="398.2" y1="369.27" x2="398.2" y2="365.8"/><line class="f" x1="398.2" y1="365.8" x2="399.07" y2="365.8"/><line class="f" x1="295.21" y1="251.01" x2="295.21" y2="261.42"/><line class="f" x1="295.21" y1="261.42" x2="329.72" y2="261.42"/><line class="f" x1="329.72" y1="261.42" x2="329.72" y2="251.01"/><line class="f" x1="403.9" y1="251.01" x2="403.9" y2="261.42"/><line class="f" x1="403.9" y1="261.42" x2="438.4" y2="261.42"/><line class="f" x1="438.4" y1="261.42" x2="438.4" y2="251.01"/><line class="f" x1="444.27" y1="422.67" x2="444.27" y2="401.87"/><line class="f" x1="436.35" y1="409.82" x2="431.48" y2="414.72"/><line class="f" x1="431.48" y1="409.82" x2="436.35" y2="414.72"/><line class="f" x1="433.91" y1="415.74" x2="433.91" y2="408.8"/><line class="f" x1="437.36" y1="412.27" x2="430.46" y2="412.27"/><line class="f" x1="444.27" y1="401.87" x2="423.56" y2="401.87"/><line class="f" x1="445.13" y1="403.6" x2="464.1" y2="403.6"/><line class="f" x1="464.1" y1="403.6" x2="464.1" y2="420.94"/><line class="f" x1="464.1" y1="420.94" x2="445.13" y2="420.94"/><line class="f" x1="445.13" y1="420.94" x2="445.13" y2="403.6"/><line class="f" x1="444.27" y1="401.87" x2="464.97" y2="401.87"/><line class="f" x1="446.85" y1="405.33" x2="462.38" y2="405.33"/><line class="f" x1="462.38" y1="405.33" x2="462.38" y2="417.47"/><line class="f" x1="462.38" y1="417.47" x2="446.85" y2="417.47"/><line class="f" x1="446.85" y1="417.47" x2="446.85" y2="405.33"/><g class="g"><path class="f" d="M455.31,414a.69.69,0,1,0-.69.7.69.69,0,0,0,.69-.7"/></g><line class="f" x1="464.97" y1="422.67" x2="464.97" y2="401.87"/><line class="f" x1="464.97" y1="401.87" x2="485.67" y2="401.87"/><line class="f" x1="485.67" y1="401.87" x2="485.67" y2="422.67"/><line class="f" x1="499.47" y1="401.87" x2="499.47" y2="381.06"/><line class="f" x1="499.47" y1="381.06" x2="520.52" y2="381.06"/><line class="f" x1="520.52" y1="381.06" x2="520.52" y2="401.87"/><line class="f" x1="520.52" y1="401.87" x2="499.47" y2="401.87"/><g class="g"><path class="f" d="M515.86,391.46a6,6,0,1,0-6,6.07,6.06,6.06,0,0,0,6-6.07"/><path class="f" d="M514.82,391.46a5,5,0,1,0-5,5,5,5,0,0,0,5-5"/><path class="f" d="M518.29,375.76a3.39,3.39,0,1,0-3.39,3.41,3.4,3.4,0,0,0,3.39-3.41"/></g><line class="f" x1="520.17" y1="381.06" x2="499.47" y2="381.06"/><line class="f" x1="499.47" y1="381.06" x2="499.47" y2="360.25"/><line class="f" x1="499.47" y1="360.25" x2="520.17" y2="360.25"/><g class="g"><path class="f" d="M508.13,375.76a3.39,3.39,0,1,0-3.39,3.41,3.4,3.4,0,0,0,3.39-3.41"/><path class="f" d="M508.13,365.55a3.39,3.39,0,1,0-3.39,3.4,3.4,3.4,0,0,0,3.39-3.4"/></g><line class="f" x1="498.53" y1="363.09" x2="498.53" y2="378.22"/><line class="f" x1="423.22" y1="422.67" x2="423.22" y2="401.87"/><line class="f" x1="423.22" y1="401.87" x2="499.47" y2="401.87"/><line class="f" x1="499.47" y1="401.87" x2="499.47" y2="349.85"/><line class="f" x1="499.47" y1="349.85" x2="520.52" y2="349.85"/><line class="f" x1="520.52" y1="349.85" x2="520.52" y2="423.02"/><line class="f" x1="520.52" y1="423.02" x2="423.22" y2="423.02"/><line class="f" x1="316.26" y1="391.81" x2="316.26" y2="367.53"/><line class="f" x1="316.26" y1="391.81" x2="340.41" y2="391.81"/><g class="g"><path class="f" d="M316.26,367.53a24.21,24.21,0,0,1,24.15,24.28"/></g><line class="f" x1="313.85" y1="391.81" x2="316.26" y2="391.81"/><line class="f" x1="316.26" y1="367.53" x2="313.85" y2="367.53"/><line class="f" x1="316.26" y1="367.53" x2="316.26" y2="365.8"/><line class="f" x1="313.85" y1="367.53" x2="313.85" y2="365.8"/><line class="f" x1="316.26" y1="393.54" x2="316.26" y2="391.81"/><line class="f" x1="313.85" y1="393.54" x2="313.85" y2="391.81"/><line class="f" x1="313.85" y1="391.81" x2="313.85" y2="384.87"/><line class="f" x1="313.85" y1="381.06" x2="313.85" y2="380.28"/><line class="f" x1="313.85" y1="376.46" x2="313.85" y2="375.68"/><line class="f" x1="313.85" y1="374.47" x2="313.85" y2="367.53"/><line class="f" x1="316.26" y1="391.81" x2="317.12" y2="391.81"/><line class="f" x1="317.12" y1="391.81" x2="317.12" y2="395.28"/><line class="f" x1="317.12" y1="395.28" x2="316.26" y2="395.28"/><line class="f" x1="313.85" y1="391.81" x2="312.98" y2="391.81"/><line class="f" x1="312.98" y1="391.81" x2="312.98" y2="395.28"/><line class="f" x1="312.98" y1="395.28" x2="313.85" y2="395.28"/><line class="f" x1="317.12" y1="367.53" x2="317.12" y2="364.07"/><line class="f" x1="317.12" y1="364.07" x2="316.26" y2="364.07"/><line class="f" x1="313.85" y1="367.53" x2="312.98" y2="367.53"/><line class="f" x1="312.98" y1="367.53" x2="312.98" y2="364.07"/><line class="f" x1="312.98" y1="364.07" x2="313.85" y2="364.07"/><line class="f" x1="218.27" y1="402.21" x2="218.27" y2="402.21"/><line class="f" x1="218.27" y1="405.68" x2="218.27" y2="405.68"/><line class="f" x1="343.86" y1="427.35" x2="343.86" y2="423.02"/><line class="f" x1="254.16" y1="417.82" x2="313.85" y2="417.82"/><line class="f" x1="260.71" y1="358" x2="260.71" y2="361.46"/><line class="f" x1="260.71" y1="361.46" x2="281.41" y2="361.46"/><line class="f" x1="281.41" y1="361.46" x2="281.41" y2="358"/><line class="f" x1="281.41" y1="358" x2="280.38" y2="358"/><line class="f" x1="280.38" y1="358" x2="280.38" y2="360.42"/><line class="f" x1="280.38" y1="360.42" x2="261.75" y2="360.42"/><line class="f" x1="261.75" y1="360.42" x2="261.75" y2="358"/><line class="f" x1="261.75" y1="358" x2="260.71" y2="358"/><line class="f" x1="260.71" y1="358" x2="260.71" y2="361.46"/><line class="f" x1="281.41" y1="358" x2="281.41" y2="361.46"/><line class="f" x1="261.75" y1="358" x2="261.75" y2="360.42"/><line class="f" x1="280.38" y1="358" x2="280.38" y2="360.42"/><line class="f" x1="260.71" y1="361.46" x2="281.41" y2="361.46"/><line class="f" x1="260.71" y1="360.42" x2="281.41" y2="360.42"/><line class="f" x1="260.71" y1="358" x2="261.75" y2="358"/><line class="f" x1="280.38" y1="358" x2="281.41" y2="358"/><g class="g"><path class="f" d="M233.46,394.41a.87.87,0,1,0-.87.87.87.87,0,0,0,.87-.87"/></g><line class="f" x1="255.02" y1="399.61" x2="255.02" y2="358"/><line class="f" x1="255.02" y1="358" x2="227.42" y2="358"/><line class="f" x1="227.42" y1="358" x2="227.42" y2="399.61"/><line class="f" x1="227.42" y1="399.61" x2="255.02" y2="399.61"/><line class="f" x1="253.29" y1="394.41" x2="253.29" y2="363.2"/><line class="f" x1="249.84" y1="359.73" x2="232.59" y2="359.73"/><line class="f" x1="229.14" y1="363.2" x2="229.14" y2="394.41"/><line class="f" x1="232.59" y1="397.88" x2="249.84" y2="397.88"/><g class="g"><path class="f" d="M253.29,394.41a3.46,3.46,0,0,1-3.45,3.47"/><path class="f" d="M249.84,359.73a3.46,3.46,0,0,1,3.45,3.47"/><path class="f" d="M232.59,397.88a3.47,3.47,0,0,1-3.45-3.47"/><path class="f" d="M229.14,363.2a3.47,3.47,0,0,1,3.45-3.47"/></g><line class="f" x1="250.71" y1="403.95" x2="250.71" y2="423.02"/><line class="f" x1="250.71" y1="423.02" x2="226.56" y2="423.02"/><line class="f" x1="226.55" y1="423.02" x2="226.55" y2="403.95"/><line class="f" x1="226.55" y1="403.95" x2="250.71" y2="403.95"/><line class="f" x1="226.55" y1="400.48" x2="254.16" y2="400.48"/><line class="f" x1="254.16" y1="400.48" x2="254.16" y2="423.02"/><line class="f" x1="254.16" y1="417.82" x2="254.16" y2="423.02"/><line class="f" x1="250.71" y1="403.95" x2="254.16" y2="403.95"/><line class="f" x1="226.55" y1="400.48" x2="226.55" y2="357.13"/><line class="f" x1="250.71" y1="417.82" x2="254.16" y2="417.82"/><line class="f" x1="316.26" y1="423.02" x2="343.86" y2="423.02"/><line class="f" x1="316.26" y1="393.54" x2="313.85" y2="393.54"/><line class="f" x1="401.48" y1="405.68" x2="401.48" y2="402.21"/><line class="f" x1="260.71" y1="252.75" x2="288.31" y2="252.75"/><line class="f" x1="288.31" y1="252.75" x2="288.31" y2="254.93"/><line class="f" x1="288.31" y1="254.93" x2="260.71" y2="254.93"/><line class="f" x1="260.71" y1="254.93" x2="260.71" y2="252.75"/><g class="g"><path class="f" d="M293.49,253.84a1.73,1.73,0,1,0-1.73,1.73,1.72,1.72,0,0,0,1.73-1.73"/></g><line class="f" x1="440.13" y1="252.75" x2="488.43" y2="252.75"/><line class="f" x1="488.43" y1="252.75" x2="488.43" y2="256.22"/><line class="f" x1="488.43" y1="256.22" x2="440.13" y2="256.22"/><line class="f" x1="440.13" y1="256.22" x2="440.13" y2="252.75"/><g class="g"><path class="f" d="M493.6,254.48a1.73,1.73,0,1,0-1.72,1.74,1.72,1.72,0,0,0,1.72-1.74"/></g><line class="f" x1="226.55" y1="403.95" x2="226.55" y2="423.02"/><line class="f" x1="226.55" y1="423.02" x2="250.71" y2="423.02"/><line class="f" x1="250.71" y1="423.02" x2="230" y2="419.55"/><line class="f" x1="230" y1="419.55" x2="226.56" y2="403.95"/><line class="f" x1="399.07" y1="423.02" x2="385.27" y2="423.02"/><line class="f" x1="385.27" y1="423.02" x2="385.27" y2="409.15"/><line class="f" x1="385.27" y1="409.15" x2="388.72" y2="419.55"/><line class="f" x1="388.72" y1="419.55" x2="399.07" y2="423.02"/><line class="f" x1="327.99" y1="237.14" x2="321.09" y2="237.14"/><line class="f" x1="317.3" y1="237.14" x2="316.52" y2="237.14"/><line class="f" x1="312.72" y1="237.14" x2="311.95" y2="237.14"/><line class="f" x1="308.15" y1="237.14" x2="303.84" y2="237.14"/><line class="f" x1="303.84" y1="237.14" x2="296.94" y2="237.14"/><line class="f" x1="436.67" y1="237.14" x2="429.77" y2="237.14"/><line class="f" x1="425.98" y1="237.14" x2="425.2" y2="237.14"/><line class="f" x1="421.41" y1="237.14" x2="420.63" y2="237.14"/><line class="f" x1="416.84" y1="237.14" x2="412.52" y2="237.14"/><line class="f" x1="412.52" y1="237.14" x2="405.62" y2="237.14"/><rect class="d" x="463.59" y="292.63" width="17.25" height="27.74"/><line class="f" x1="463.59" y1="292.63" x2="463.59" y2="320.37"/><line class="f" x1="480.84" y1="292.63" x2="463.59" y2="292.63"/><line class="f" x1="480.84" y1="320.37" x2="480.84" y2="292.63"/><line class="f" x1="463.59" y1="320.37" x2="480.84" y2="320.37"/><rect class="d" x="254.16" y="417.82" width="59.69" height="5.2"/><line class="f" x1="254.16" y1="417.82" x2="254.16" y2="423.02"/><line class="f" x1="313.85" y1="417.82" x2="254.16" y2="417.82"/><line class="f" x1="313.85" y1="423.02" x2="313.85" y2="417.82"/><line class="f" x1="254.16" y1="423.02" x2="313.85" y2="423.02"/><rect class="d" x="260.71" y="358" width="1.04" height="2.43"/><line class="f" x1="260.71" y1="358" x2="260.71" y2="360.42"/><line class="f" x1="261.75" y1="358" x2="260.71" y2="358"/><line class="f" x1="261.75" y1="360.42" x2="261.75" y2="358"/><line class="f" x1="260.71" y1="360.42" x2="261.75" y2="360.42"/><rect class="d" x="260.71" y="360.42" width="20.7" height="1.04"/><line class="f" x1="281.41" y1="361.46" x2="281.41" y2="360.42"/><line class="f" x1="260.71" y1="361.46" x2="281.41" y2="361.46"/><line class="f" x1="260.71" y1="360.42" x2="260.71" y2="361.46"/><line class="f" x1="281.41" y1="360.42" x2="260.71" y2="360.42"/><rect class="d" x="280.38" y="358" width="1.03" height="2.43"/><line class="f" x1="280.38" y1="358" x2="280.38" y2="360.42"/><line class="f" x1="281.41" y1="358" x2="280.38" y2="358"/><line class="f" x1="281.41" y1="360.42" x2="281.41" y2="358"/><line class="f" x1="280.38" y1="360.42" x2="281.41" y2="360.42"/><rect class="d" x="357.66" y="357.13" width="41.4" height="5.2"/><line class="f" x1="357.66" y1="357.13" x2="357.66" y2="362.33"/><line class="f" x1="399.07" y1="357.13" x2="357.66" y2="357.13"/><line class="f" x1="399.07" y1="362.33" x2="399.07" y2="357.13"/><line class="f" x1="357.66" y1="362.33" x2="399.07" y2="362.33"/><rect class="d" x="385.26" y="251.01" width="15.53" height="103.69"/><line class="f" x1="385.27" y1="251.01" x2="385.27" y2="354.7"/><line class="f" x1="400.79" y1="251.01" x2="385.27" y2="251.01"/><line class="f" x1="400.79" y1="354.7" x2="400.79" y2="251.01"/><line class="f" x1="385.27" y1="354.7" x2="400.79" y2="354.7"/><polygon class="d" points="490.66 255.71 490.15 254.48 490.66 253.26 491.88 252.75 493.1 253.26 493.6 254.48 493.1 255.71 491.88 256.22 490.66 255.71"/><g class="g"><path class="f" d="M493.6,254.48a1.73,1.73,0,1,1-3.45,0"/><path class="f" d="M490.15,254.48a1.73,1.73,0,1,1,3.45,0"/></g><rect class="d" x="440.13" y="252.75" width="48.3" height="3.47"/><line class="f" x1="488.43" y1="252.75" x2="440.13" y2="252.75"/><line class="f" x1="488.43" y1="256.22" x2="488.43" y2="252.75"/><line class="f" x1="440.13" y1="256.22" x2="488.43" y2="256.22"/><line class="f" x1="440.13" y1="252.75" x2="440.13" y2="256.22"/><rect class="d" x="260.71" y="252.75" width="27.6" height="2.18"/><line class="f" x1="288.31" y1="252.75" x2="260.71" y2="252.75"/><line class="f" x1="288.31" y1="254.93" x2="288.31" y2="252.75"/><line class="f" x1="260.71" y1="254.93" x2="288.31" y2="254.93"/><line class="f" x1="260.71" y1="252.75" x2="260.71" y2="254.93"/><polygon class="d" points="290.55 255.07 290.04 253.84 290.55 252.62 291.76 252.11 292.98 252.62 293.49 253.84 292.98 255.07 291.76 255.57 290.55 255.07"/><g class="g"><path class="f" d="M293.49,253.84a1.73,1.73,0,1,1-3.45,0"/><path class="f" d="M290,253.84a1.73,1.73,0,1,1,3.45,0"/></g><polygon class="d" points="236.93 331.52 226.58 331.52 226.58 269.09 288.68 269.09 291.32 269.62 293.56 271.13 295.06 273.38 295.58 276.03 295.58 324.58 295.06 327.23 293.56 329.48 291.32 330.99 288.68 331.52 236.93 331.52"/><rect class="d" x="226.58" y="256.96" width="10.35" height="12.14"/><rect class="d" x="226.58" y="331.52" width="10.35" height="12.14"/><line class="f" x1="238.05" y1="302.27" x2="235.07" y2="303.1"/><line class="f" x1="238.05" y1="273.15" x2="235.07" y2="273.98"/><line class="f" x1="295.58" y1="324.58" x2="295.58" y2="276.03"/><line class="f" x1="288.68" y1="269.09" x2="226.58" y2="269.09"/><line class="f" x1="226.58" y1="269.09" x2="226.58" y2="331.52"/><line class="f" x1="226.58" y1="331.52" x2="288.68" y2="331.52"/><line class="f" x1="226.58" y1="269.09" x2="226.58" y2="256.96"/><line class="f" x1="226.58" y1="256.96" x2="236.93" y2="256.96"/><line class="f" x1="236.93" y1="256.96" x2="236.93" y2="269.09"/><line class="f" x1="236.93" y1="269.09" x2="226.58" y2="269.09"/><line class="f" x1="226.58" y1="343.65" x2="226.58" y2="331.52"/><line class="f" x1="226.58" y1="331.52" x2="236.93" y2="331.52"/><line class="f" x1="236.93" y1="331.52" x2="236.93" y2="343.65"/><line class="f" x1="236.93" y1="343.65" x2="226.58" y2="343.65"/><line class="f" x1="249.54" y1="269.09" x2="249.54" y2="331.52"/><line class="f" x1="254.71" y1="269.09" x2="254.71" y2="331.52"/><g class="g"><path class="f" d="M244.31,297.67a97.35,97.35,0,0,1-.84-12.77c0-3.28.17-6.56.49-9.83"/><path class="f" d="M242.06,272.82h.1a1.85,1.85,0,0,1,1.85,1.85,1.75,1.75,0,0,1,0,.4"/><path class="f" d="M238.05,273.15a14.33,14.33,0,0,1,3.2-.35c.27,0,.54,0,.81,0"/><path class="f" d="M230.35,273q1.25-.06,2.49-.06c1.74,0,3.48.09,5.21.26"/><path class="f" d="M229.85,273.41a.22.22,0,0,1,0-.08.39.39,0,0,1,.39-.39h.12"/><path class="f" d="M229.85,273.41q.57,7.44.57,14.92,0,4.71-.23,9.41"/><path class="f" d="M231.43,298.86a.8.8,0,0,1-.3.06,1,1,0,0,1-1-1,1.49,1.49,0,0,1,0-.21"/><path class="f" d="M231.43,298.86a46.21,46.21,0,0,1,11.9-.18"/><path class="f" d="M244.31,297.67a1,1,0,0,1,0,.25.79.79,0,0,1-.79.8.78.78,0,0,1-.22,0"/><path class="f" d="M288.68,269.09a6.92,6.92,0,0,1,6.9,6.94"/><path class="f" d="M295.58,324.58a6.92,6.92,0,0,1-6.9,6.94"/><path class="f" d="M244.31,326.79a97.35,97.35,0,0,1-.84-12.77c0-3.29.17-6.57.49-9.83"/><path class="f" d="M242.06,301.94h.1a1.85,1.85,0,0,1,1.85,1.85,1.75,1.75,0,0,1,0,.4"/><path class="f" d="M238.05,302.27a14.34,14.34,0,0,1,3.2-.36l.81,0"/><path class="f" d="M230.35,302.07q1.25-.06,2.49-.06c1.74,0,3.48.09,5.21.26"/><path class="f" d="M229.85,302.53a.25.25,0,0,1,0-.08.4.4,0,0,1,.39-.4l.12,0"/><path class="f" d="M229.85,302.53c.38,5,.57,9.94.57,14.91,0,3.15-.08,6.28-.23,9.42"/><path class="f" d="M231.43,328a.79.79,0,0,1-.3,0,1,1,0,0,1-1-1,1.49,1.49,0,0,1,0-.21"/><path class="f" d="M231.43,328a46.21,46.21,0,0,1,11.9-.18"/><path class="f" d="M244.31,326.79a1,1,0,0,1,0,.24.79.79,0,0,1-1,.77"/></g><polygon class="d" points="491.19 330.77 489.46 330.31 488.2 329.04 487.74 327.31 487.74 326.26 487.94 325.78 488.43 325.57 487.93 325.16 487.74 324.53 487.74 286.73 487.93 286.13 488.43 285.75 487.8 285.38 487.74 284.65 487.74 258.99 487.71 258.51 487.97 258.11 488.43 257.95 516.38 257.95 516.86 258.15 517.07 258.64 517.07 330.08 516.86 330.57 516.38 330.77 491.19 330.77"/><polygon class="d" points="465.31 285.69 462.67 285.16 460.43 283.66 458.94 281.41 458.41 278.76 458.41 264.89 458.94 262.23 460.43 259.98 462.67 258.48 465.31 257.95 486.7 257.95 487.43 258.25 487.74 258.99 487.74 284.65 487.43 285.39 486.7 285.69 465.31 285.69"/><g class="g"><path class="f" d="M465.31,285.69a6.91,6.91,0,0,1-6.9-6.93"/></g><line class="f" x1="458.41" y1="278.76" x2="458.41" y2="264.89"/><g class="g"><path class="f" d="M458.41,264.89a6.92,6.92,0,0,1,6.9-6.94"/></g><line class="f" x1="465.31" y1="257.95" x2="486.7" y2="257.95"/><g class="g"><path class="f" d="M486.7,258a1,1,0,0,1,1,1"/></g><line class="f" x1="487.74" y1="258.99" x2="487.74" y2="284.65"/><g class="g"><path class="f" d="M487.74,284.65a1,1,0,0,1-1,1"/></g><line class="f" x1="486.7" y1="285.69" x2="465.31" y2="285.69"/><line class="f" x1="487.74" y1="326.27" x2="487.74" y2="327.31"/><line class="f" x1="491.19" y1="330.77" x2="516.38" y2="330.77"/><line class="f" x1="517.07" y1="330.08" x2="517.07" y2="326.27"/><line class="f" x1="516.38" y1="325.57" x2="488.43" y2="325.57"/><line class="f" x1="517.07" y1="326.27" x2="517.07" y2="285.69"/><line class="f" x1="517.07" y1="285.69" x2="514.65" y2="285.69"/><line class="f" x1="487.74" y1="286.73" x2="487.74" y2="324.53"/><line class="f" x1="488.77" y1="325.57" x2="506.07" y2="325.57"/><line class="f" x1="506.07" y1="285.69" x2="488.77" y2="285.69"/><line class="f" x1="514.65" y1="325.57" x2="508.14" y2="325.57"/><line class="f" x1="508.14" y1="285.69" x2="514.65" y2="285.69"/><line class="f" x1="487.74" y1="262.46" x2="487.74" y2="258.64"/><line class="f" x1="488.43" y1="257.95" x2="516.38" y2="257.95"/><line class="f" x1="517.07" y1="258.64" x2="517.07" y2="262.46"/><line class="f" x1="517.07" y1="262.46" x2="517.07" y2="285.69"/><line class="f" x1="517.07" y1="285.69" x2="514.65" y2="285.69"/><line class="f" x1="487.74" y1="284.65" x2="487.74" y2="264.19"/><line class="f" x1="506.07" y1="285.69" x2="488.77" y2="285.69"/><line class="f" x1="506.07" y1="285.69" x2="514.65" y2="285.69"/><line class="f" x1="458.41" y1="278.76" x2="458.41" y2="264.89"/><line class="f" x1="465.31" y1="257.95" x2="486.7" y2="257.95"/><line class="f" x1="487.74" y1="258.99" x2="487.74" y2="284.65"/><line class="f" x1="486.7" y1="285.69" x2="465.31" y2="285.69"/><line class="f" x1="515.68" y1="284.65" x2="515.68" y2="258.99"/><line class="f" x1="515.68" y1="286.73" x2="515.68" y2="324.53"/><g class="g"><path class="f" d="M517.07,330.08a.69.69,0,0,1-.69.69"/><path class="f" d="M516.38,325.57a.69.69,0,0,1,.69.7"/><path class="f" d="M487.74,326.27a.69.69,0,0,1,.69-.7"/><path class="f" d="M488.77,325.57a1,1,0,0,1-1-1"/><path class="f" d="M487.74,286.73a1,1,0,0,1,1-1"/><path class="f" d="M487.74,258.64a.69.69,0,0,1,.69-.69"/><path class="f" d="M516.38,258a.69.69,0,0,1,.69.69"/><path class="f" d="M488.77,285.69a1,1,0,0,1-1-1"/><path class="f" d="M486.7,258a1,1,0,0,1,1,1"/><path class="f" d="M487.74,284.65a1,1,0,0,1-1,1"/></g><line class="f" x1="515.68" y1="258.99" x2="492.18" y2="258.99"/><g class="g"><path class="f" d="M496.93,260.24a19.71,19.71,0,0,1,14.74,24.45"/><path class="f" d="M510.86,324.53a119,119,0,0,1,0-37.8"/><path class="f" d="M465.31,285.69a6.91,6.91,0,0,1-6.9-6.93"/><path class="f" d="M458.41,264.89a6.92,6.92,0,0,1,6.9-6.94"/><path class="f" d="M491.19,330.77a3.45,3.45,0,0,1-3.45-3.46"/></g><rect class="d" x="357.66" y="251.01" width="20.7" height="49.59"/><line class="f" x1="378.37" y1="300.6" x2="378.37" y2="251.01"/><line class="f" x1="378.37" y1="251.01" x2="357.66" y2="251.01"/><line class="f" x1="357.66" y1="251.01" x2="357.66" y2="300.61"/><line class="f" x1="357.66" y1="300.6" x2="378.37" y2="300.6"/><line class="f" x1="368.01" y1="298.13" x2="368.01" y2="253.49"/><line class="f" x1="374.1" y1="295.82" x2="361.7" y2="291.63"/><line class="f" x1="374.72" y1="291.09" x2="363.18" y2="289.36"/><line class="f" x1="360.55" y1="284.64" x2="373.21" y2="283.21"/><line class="f" x1="362.21" y1="277.32" x2="373.22" y2="279.26"/><line class="f" x1="361.58" y1="274.66" x2="375.14" y2="274.66"/><line class="f" x1="361.52" y1="267.12" x2="374.92" y2="268.91"/><line class="f" x1="361.75" y1="264.3" x2="373.98" y2="264.3"/><line class="f" x1="361.62" y1="256.86" x2="374.17" y2="255.43"/><line class="f" x1="362.47" y1="258.65" x2="373.08" y2="260.1"/><rect class="d" x="357.66" y="300.61" width="20.7" height="49.59"/><line class="f" x1="378.37" y1="350.19" x2="378.37" y2="300.6"/><line class="f" x1="378.37" y1="300.6" x2="357.66" y2="300.6"/><line class="f" x1="357.66" y1="300.6" x2="357.66" y2="350.19"/><line class="f" x1="357.66" y1="350.19" x2="378.37" y2="350.19"/><line class="f" x1="368.01" y1="347.71" x2="368.01" y2="303.08"/><line class="f" x1="374.1" y1="345.42" x2="361.7" y2="341.22"/><line class="f" x1="374.72" y1="340.69" x2="363.18" y2="338.95"/><line class="f" x1="360.55" y1="334.23" x2="373.21" y2="332.8"/><line class="f" x1="362.21" y1="326.91" x2="373.22" y2="328.85"/><line class="f" x1="361.58" y1="324.25" x2="375.14" y2="324.25"/><line class="f" x1="361.52" y1="316.71" x2="374.92" y2="318.5"/><line class="f" x1="361.75" y1="313.89" x2="373.98" y2="313.89"/><line class="f" x1="361.62" y1="306.45" x2="374.17" y2="305.02"/><line class="f" x1="362.47" y1="308.24" x2="373.08" y2="309.69"/><polygon class="d" points="441.85 340.41 442.31 338.67 443.57 337.4 445.29 336.92 452.19 336.88 453.92 337.34 455.18 338.6 455.65 340.33 455.67 348.1 452.34 346.73 448.77 346.28 445.2 346.77 441.88 348.18 441.85 340.41"/><polygon class="d" points="431.83 376.18 430.56 374.91 427.1 368.92 426.63 367.18 427.09 365.45 428.35 364.17 435.01 360.24 435.49 363.84 436.88 367.18 439.08 370.05 441.94 372.23 435.27 376.15 433.55 376.63 431.83 376.18"/><polygon class="d" points="462.42 376 455.74 372.15 458.59 369.93 460.77 367.04 462.14 363.68 462.6 360.08 469.29 363.93 470.55 365.19 471.02 366.92 470.56 368.66 467.13 374.69 465.87 375.97 464.15 376.45 462.42 376"/><polygon class="d" points="445.27 373.6 441.94 372.23 439.08 370.04 436.88 367.18 435.49 363.84 435.01 360.25 435.47 356.65 436.84 353.29 439.02 350.4 441.88 348.18 445.2 346.77 448.77 346.28 452.34 346.73 455.67 348.1 458.53 350.29 460.73 353.15 462.12 356.49 462.6 360.08 462.14 363.68 460.77 367.04 458.59 369.93 455.74 372.15 452.41 373.56 448.84 374.05 445.27 373.6"/><line class="f" x1="458.53" y1="350.29" x2="455.67" y2="348.1"/><line class="f" x1="460.73" y1="353.15" x2="458.53" y2="350.29"/><line class="f" x1="462.12" y1="356.49" x2="460.73" y2="353.15"/><line class="f" x1="462.6" y1="360.08" x2="462.12" y2="356.49"/><line class="f" x1="462.14" y1="363.68" x2="462.6" y2="360.09"/><line class="f" x1="460.77" y1="367.04" x2="462.14" y2="363.68"/><line class="f" x1="458.59" y1="369.93" x2="460.77" y2="367.04"/><line class="f" x1="455.73" y1="372.15" x2="458.59" y2="369.93"/><line class="f" x1="452.41" y1="373.56" x2="455.73" y2="372.15"/><line class="f" x1="448.84" y1="374.05" x2="452.41" y2="373.56"/><line class="f" x1="445.27" y1="373.6" x2="448.84" y2="374.05"/><line class="f" x1="441.94" y1="372.23" x2="445.27" y2="373.6"/><line class="f" x1="439.08" y1="370.04" x2="441.94" y2="372.23"/><line class="f" x1="436.88" y1="367.18" x2="439.08" y2="370.04"/><line class="f" x1="435.49" y1="363.84" x2="436.88" y2="367.18"/><line class="f" x1="435.01" y1="360.24" x2="435.49" y2="363.84"/><line class="f" x1="435.47" y1="356.65" x2="435.01" y2="360.24"/><line class="f" x1="436.84" y1="353.29" x2="435.47" y2="356.65"/><line class="f" x1="439.02" y1="350.4" x2="436.84" y2="353.29"/><line class="f" x1="441.87" y1="348.18" x2="439.03" y2="350.4"/><line class="f" x1="445.2" y1="346.77" x2="441.88" y2="348.18"/><line class="f" x1="448.77" y1="346.28" x2="445.2" y2="346.77"/><line class="f" x1="452.34" y1="346.73" x2="448.77" y2="346.28"/><line class="f" x1="455.67" y1="348.1" x2="452.34" y2="346.73"/><g class="g"><path class="f" d="M460.77,367a13.8,13.8,0,1,1-23.93-13.75"/><path class="f" d="M436.84,353.29A13.8,13.8,0,1,1,460.77,367"/></g><line class="f" x1="445.3" y1="338.66" x2="452.2" y2="338.62"/><line class="f" x1="455.65" y1="340.33" x2="455.67" y2="348.1"/><line class="f" x1="445.29" y1="336.92" x2="452.19" y2="336.88"/><line class="f" x1="441.87" y1="348.18" x2="441.85" y2="340.41"/><line class="f" x1="432.05" y1="374.03" x2="428.59" y2="368.04"/><line class="f" x1="428.35" y1="364.17" x2="435.01" y2="360.24"/><line class="f" x1="430.56" y1="374.91" x2="427.1" y2="368.92"/><line class="f" x1="441.94" y1="372.23" x2="435.27" y2="376.15"/><line class="f" x1="469.07" y1="367.8" x2="465.64" y2="373.84"/><line class="f" x1="462.42" y1="376" x2="455.73" y2="372.15"/><line class="f" x1="470.56" y1="368.66" x2="467.13" y2="374.69"/><line class="f" x1="462.6" y1="360.08" x2="469.29" y2="363.93"/><g class="g"><path class="f" d="M452.19,338.62a1.66,1.66,0,0,1,.87.22,1.74,1.74,0,0,1,.86,1.5"/><path class="f" d="M443.58,340.4a1.8,1.8,0,0,1,.23-.87,1.7,1.7,0,0,1,1.49-.87"/><path class="f" d="M452.19,336.88a3.42,3.42,0,0,1,1.73.46,3.48,3.48,0,0,1,1.73,3"/><path class="f" d="M441.85,340.41a3.54,3.54,0,0,1,.46-1.74,3.47,3.47,0,0,1,3-1.75"/><path class="f" d="M428.59,368a1.74,1.74,0,0,1,0-1.74,1.84,1.84,0,0,1,.63-.64"/><path class="f" d="M434.41,374.66a1.73,1.73,0,0,1-2.36-.63"/><path class="f" d="M427.1,368.92a3.49,3.49,0,0,1,0-3.48,3.41,3.41,0,0,1,1.26-1.27"/><path class="f" d="M435.28,376.15a3.44,3.44,0,0,1-4.72-1.24"/><path class="f" d="M465.64,373.84a1.72,1.72,0,0,1-2.36.64"/><path class="f" d="M468.43,365.43a1.75,1.75,0,0,1,.64,2.37"/><path class="f" d="M467.13,374.7a3.45,3.45,0,0,1-4.71,1.29"/><path class="f" d="M469.28,363.93a3.46,3.46,0,0,1,1.28,4.73"/></g><polygon class="d" points="262.44 417.82 262.07 417.67 261.92 417.3 261.92 403.08 262.07 402.71 262.44 402.56 280.38 402.56 280.74 402.71 280.9 403.08 280.9 417.3 280.74 417.67 280.38 417.82 262.44 417.82"/><line class="f" x1="280.38" y1="417.82" x2="262.44" y2="417.82"/><g class="g"><path class="f" d="M262.44,417.82a.52.52,0,0,1-.52-.52"/></g><line class="f" x1="261.92" y1="417.3" x2="261.92" y2="403.08"/><g class="g"><path class="f" d="M261.92,403.08a.52.52,0,0,1,.52-.52"/></g><line class="f" x1="262.44" y1="402.56" x2="280.38" y2="402.56"/><g class="g"><path class="f" d="M280.38,402.56a.52.52,0,0,1,.52.52"/></g><line class="f" x1="280.9" y1="403.08" x2="280.9" y2="417.3"/><g class="g"><path class="f" d="M280.9,417.3a.52.52,0,0,1-.52.52"/></g><line class="f" x1="279.34" y1="414" x2="263.47" y2="414"/><line class="f" x1="262.95" y1="413.48" x2="262.95" y2="404.12"/><line class="f" x1="263.47" y1="403.6" x2="279.34" y2="403.6"/><line class="f" x1="279.86" y1="404.12" x2="279.86" y2="413.48"/><g class="g"><path class="f" d="M263.47,414a.52.52,0,0,1-.52-.52"/><path class="f" d="M263,404.12a.52.52,0,0,1,.52-.52"/><path class="f" d="M279.34,403.6a.52.52,0,0,1,.52.52"/><path class="f" d="M279.86,413.48a.52.52,0,0,1-.52.52"/></g><polygon class="d" points="270.8 416.35 270.55 415.74 270.68 414.29 270.8 413.95 271.02 412.12 271.15 411.88 271.41 411.78 271.66 411.88 271.79 412.12 272.02 413.95 272.13 414.29 272.27 415.74 272.02 416.35 271.41 416.6 270.8 416.35"/><g class="g"><path class="f" d="M272.27,415.74a.86.86,0,1,1-1.72,0"/></g><line class="f" x1="270.68" y1="414.28" x2="270.54" y2="415.74"/><g class="g"><path class="f" d="M270.68,414.28a.7.7,0,0,1,.12-.33"/></g><line class="f" x1="271.02" y1="412.12" x2="270.8" y2="413.95"/><g class="g"><path class="f" d="M271,412.12a.39.39,0,0,1,.39-.34.38.38,0,0,1,.38.34"/></g><line class="f" x1="272.02" y1="413.95" x2="271.79" y2="412.12"/><g class="g"><path class="f" d="M272,414a.81.81,0,0,1,.11.33"/></g><line class="f" x1="272.27" y1="415.74" x2="272.13" y2="414.28"/><line class="f" x1="270.94" y1="414.87" x2="270.94" y2="414.36"/><line class="f" x1="271.88" y1="414.36" x2="271.88" y2="414.87"/><line class="f" x1="271.88" y1="414.87" x2="270.94" y2="414.87"/><g class="g"><path class="f" d="M270.94,414.36a.47.47,0,1,1,.94,0"/><path class="f" d="M270.8,414a.73.73,0,0,1,1.22,0"/></g><polygon class="d" points="290.9 417.82 290.9 406.37 291.17 404.66 291.94 403.11 293.14 401.87 295.1 400.84 297.29 400.48 299.47 400.84 301.43 401.87 302.63 403.11 303.4 404.66 303.67 406.37 303.67 417.82 290.9 417.82"/><line class="f" x1="290.9" y1="417.82" x2="290.9" y2="406.37"/><line class="f" x1="290.9" y1="417.82" x2="303.67" y2="417.82"/><line class="f" x1="303.67" y1="417.82" x2="303.67" y2="406.37"/><line class="f" x1="292.97" y1="413.66" x2="292.97" y2="406.37"/><line class="f" x1="301.6" y1="413.66" x2="301.6" y2="406.37"/><line class="f" x1="301.6" y1="413.66" x2="292.97" y2="413.66"/><g class="g"><path class="f" d="M290.9,406.37a5.61,5.61,0,0,1,2.25-4.5"/><path class="f" d="M301.43,401.87a5.63,5.63,0,0,1,2.24,4.5"/><path class="f" d="M293.15,401.87a6.86,6.86,0,0,1,8.28,0"/><path class="f" d="M301.43,401.87a5.63,5.63,0,0,1,2.24,4.5"/><path class="f" d="M297.29,400.48a6.85,6.85,0,0,1,4.13,1.39"/><path class="f" d="M300.18,403.53a3.57,3.57,0,0,1,1.42,2.84"/><path class="f" d="M294.39,403.53a4.81,4.81,0,0,1,5.79,0"/><path class="f" d="M293,406.37a3.57,3.57,0,0,1,1.42-2.84"/></g><polygon class="d" points="391.48 318.15 389.57 310.25 389.57 307.94 388.52 304.26 388.52 300.41 389.57 296.74 389.57 294.43 391.48 286.53 393.4 286.53 393.4 297.33 394.78 299.04 395.52 301.19 395.52 303.49 394.78 305.64 393.4 307.35 393.4 318.15 391.48 318.15"/><line class="f" x1="393.4" y1="318.15" x2="393.4" y2="307.35"/><line class="f" x1="391.48" y1="318.15" x2="393.4" y2="318.15"/><line class="f" x1="389.57" y1="310.25" x2="391.48" y2="318.15"/><line class="f" x1="389.57" y1="307.94" x2="389.57" y2="310.24"/><line class="f" x1="388.52" y1="304.27" x2="389.57" y2="307.94"/><line class="f" x1="388.52" y1="300.41" x2="388.52" y2="304.27"/><line class="f" x1="389.57" y1="296.74" x2="388.52" y2="300.41"/><line class="f" x1="389.57" y1="294.43" x2="389.57" y2="296.74"/><line class="f" x1="391.48" y1="286.53" x2="389.57" y2="294.43"/><line class="f" x1="393.4" y1="286.53" x2="391.48" y2="286.53"/><line class="f" x1="393.4" y1="297.33" x2="393.4" y2="286.53"/><line class="f" x1="394.78" y1="299.04" x2="393.4" y2="297.33"/><line class="f" x1="395.52" y1="301.19" x2="394.78" y2="299.04"/><line class="f" x1="395.52" y1="303.49" x2="395.52" y2="301.19"/><line class="f" x1="394.78" y1="305.64" x2="395.52" y2="303.49"/><line class="f" x1="393.4" y1="307.35" x2="394.78" y2="305.64"/><line class="f" x1="393.4" y1="318.15" x2="393.4" y2="286.52"/><line class="f" x1="389.57" y1="294.43" x2="389.57" y2="310.25"/><line class="f" x1="391.48" y1="318.15" x2="393.4" y2="318.15"/><line class="f" x1="392.63" y1="288.63" x2="392.63" y2="290.74"/><line class="f" x1="392.63" y1="290.74" x2="392.15" y2="290.74"/><line class="f" x1="392.15" y1="290.74" x2="392.15" y2="288.63"/><line class="f" x1="392.15" y1="288.63" x2="392.63" y2="288.63"/><line class="f" x1="392.63" y1="291.27" x2="392.63" y2="293.38"/><line class="f" x1="392.63" y1="293.38" x2="392.15" y2="293.38"/><line class="f" x1="392.15" y1="293.38" x2="392.15" y2="291.27"/><line class="f" x1="392.15" y1="291.27" x2="392.63" y2="291.27"/><line class="f" x1="391.48" y1="318.15" x2="391.48" y2="286.52"/><line class="f" x1="392.15" y1="293.9" x2="392.63" y2="293.9"/><line class="f" x1="392.63" y1="293.9" x2="392.63" y2="294.96"/><line class="f" x1="392.63" y1="294.96" x2="392.15" y2="294.96"/><line class="f" x1="392.15" y1="294.96" x2="392.15" y2="293.9"/><g class="g"><path class="f" d="M393.4,297.33a6.76,6.76,0,0,1,0,10"/></g><line class="f" x1="528.8" y1="415.74" x2="528.8" y2="415.74"/><line class="f" x1="528.8" y1="415.74" x2="528.8" y2="431.34"/><line class="f" x1="343.86" y1="423.02" x2="350.76" y2="423.02"/><line class="f" x1="354.56" y1="423.02" x2="355.34" y2="423.02"/><line class="f" x1="359.13" y1="423.02" x2="359.91" y2="423.02"/><line class="f" x1="363.7" y1="423.02" x2="370.6" y2="423.02"/><line class="f" x1="374.4" y1="423.02" x2="374.92" y2="423.02"/><line class="f" x1="374.92" y1="423.02" x2="381.82" y2="423.02"/><line class="f" x1="472.98" y1="414.55" x2="472.98" y2="408.74"/><line class="f" x1="472.98" y1="408.74" x2="475.33" y2="410.65"/><line class="f" x1="475.33" y1="410.65" x2="477.68" y2="408.74"/><line class="f" x1="477.68" y1="408.74" x2="477.68" y2="414.55"/><line class="f" x1="225.86" y1="185.13" x2="226.9" y2="185.13"/><line class="f" x1="231.9" y1="185.13" x2="232.94" y2="185.13"/><line class="f" x1="237.94" y1="185.13" x2="246.57" y2="185.13"/><line class="f" x1="251.57" y1="185.13" x2="252.6" y2="185.13"/><line class="f" x1="257.61" y1="185.13" x2="258.64" y2="185.13"/><line class="f" x1="263.65" y1="185.13" x2="272.27" y2="185.13"/><line class="f" x1="277.27" y1="185.13" x2="278.31" y2="185.13"/><line class="f" x1="283.31" y1="185.13" x2="284.35" y2="185.13"/><line class="f" x1="289.35" y1="185.13" x2="297.97" y2="185.13"/><line class="f" x1="302.98" y1="185.13" x2="304.01" y2="185.13"/><line class="f" x1="309.02" y1="185.13" x2="310.05" y2="185.13"/><line class="f" x1="315.05" y1="185.13" x2="323.68" y2="185.13"/><line class="f" x1="328.68" y1="185.13" x2="329.72" y2="185.13"/><line class="f" x1="334.72" y1="185.13" x2="335.76" y2="185.13"/><line class="f" x1="340.76" y1="185.13" x2="349.38" y2="185.13"/><line class="f" x1="354.39" y1="185.13" x2="355.42" y2="185.13"/><line class="f" x1="360.42" y1="185.13" x2="361.46" y2="185.13"/><line class="f" x1="366.46" y1="185.13" x2="375.09" y2="185.13"/><line class="f" x1="380.09" y1="185.13" x2="381.13" y2="185.13"/><line class="f" x1="386.13" y1="185.13" x2="387.16" y2="185.13"/><line class="f" x1="392.17" y1="185.13" x2="400.79" y2="185.13"/><line class="f" x1="405.8" y1="185.13" x2="406.83" y2="185.13"/><line class="f" x1="411.83" y1="185.13" x2="412.87" y2="185.13"/><line class="f" x1="417.87" y1="185.13" x2="426.5" y2="185.13"/><line class="f" x1="431.5" y1="185.13" x2="432.54" y2="185.13"/><line class="f" x1="437.54" y1="185.13" x2="438.57" y2="185.13"/><line class="f" x1="443.58" y1="185.13" x2="452.2" y2="185.13"/><line class="f" x1="457.2" y1="185.13" x2="458.24" y2="185.13"/><line class="f" x1="463.24" y1="185.13" x2="464.28" y2="185.13"/><line class="f" x1="469.28" y1="185.13" x2="477.9" y2="185.13"/><line class="f" x1="482.91" y1="185.13" x2="483.94" y2="185.13"/><line class="f" x1="488.95" y1="185.13" x2="489.98" y2="185.13"/><line class="f" x1="494.98" y1="185.13" x2="503.61" y2="185.13"/><line class="f" x1="508.61" y1="185.13" x2="509.65" y2="185.13"/><line class="f" x1="514.65" y1="185.13" x2="515.69" y2="185.13"/><line class="f" x1="520.69" y1="185.13" x2="524.66" y2="185.13"/><line class="f" x1="218.27" y1="431.34" x2="528.8" y2="431.34"/><line class="f" x1="528.8" y1="431.34" x2="528.8" y2="237.14"/><line class="f" x1="528.8" y1="237.14" x2="524.66" y2="237.14"/><line class="f" x1="524.66" y1="237.14" x2="524.66" y2="150.48"/><line class="f" x1="524.66" y1="150.48" x2="222.41" y2="150.48"/><line class="f" x1="222.41" y1="150.48" x2="222.41" y2="237.14"/><line class="f" x1="222.41" y1="237.14" x2="218.27" y2="237.14"/><line class="f" x1="218.27" y1="237.14" x2="218.27" y2="431.34"/><path class="h" d="M422.15,208.57v7h-.72v-6.35h-1.65v-.64Z"/><path class="h" d="M423.83,215.06a.53.53,0,0,1,.53-.54.54.54,0,0,1,.54.54.55.55,0,0,1-.54.55A.54.54,0,0,1,423.83,215.06Z"/><path class="h" d="M425.84,212.06c0-2.22,1.17-3.55,2.79-3.55s2.79,1.33,2.79,3.55-1.17,3.56-2.79,3.56S425.84,214.29,425.84,212.06Zm4.84,0c0-1.87-.84-2.89-2.05-2.89s-2.06,1-2.06,2.89.84,2.9,2.06,2.9S430.68,213.93,430.68,212.06Z"/><path class="h" d="M437.2,213.5c0,1.19-.82,2.12-2.53,2.12a3.61,3.61,0,0,1-2.51-.9l.35-.57a3,3,0,0,0,2.15.81c1.18,0,1.81-.58,1.81-1.43s-.55-1.46-2.33-1.46h-1.49l.36-3.5h3.83v.64h-3.2l-.24,2.22h.9C436.41,211.43,437.2,212.26,437.2,213.5Z"/><path class="h" d="M273.13,380.32v7h-.72V381h-1.65v-.64Z"/><path class="h" d="M274.81,386.81a.53.53,0,0,1,.53-.54.54.54,0,0,1,.54.54.55.55,0,0,1-.54.55A.54.54,0,0,1,274.81,386.81Z"/><path class="h" d="M276.82,383.81c0-2.22,1.17-3.55,2.79-3.55s2.79,1.33,2.79,3.55-1.18,3.56-2.79,3.56S276.82,386,276.82,383.81Zm4.85,0c0-1.87-.84-2.89-2.06-2.89s-2.06,1-2.06,2.89.84,2.9,2.06,2.9S281.67,385.68,281.67,383.81Z"/><path class="h" d="M289.38,385.47H288v1.84h-.72v-1.84h-3.94V385l3.71-4.63h.79l-3.57,4.51h3v-1.62H288v1.62h1.4Z"/><path class="h" d="M308,297.38v7h-.72V298h-1.65v-.63Z"/><path class="h" d="M309.68,303.87a.53.53,0,0,1,.53-.54.54.54,0,0,1,.54.54.55.55,0,0,1-.54.55A.54.54,0,0,1,309.68,303.87Z"/><path class="h" d="M311.69,300.87c0-2.23,1.17-3.55,2.79-3.55s2.79,1.32,2.79,3.55-1.18,3.56-2.79,3.56S311.69,303.1,311.69,300.87Zm4.85,0c0-1.87-.84-2.9-2.06-2.9s-2.06,1-2.06,2.9.84,2.9,2.06,2.9S316.54,302.74,316.54,300.87Z"/><path class="h" d="M322.84,302.36c0,1.17-.84,2.07-2.53,2.07a3.64,3.64,0,0,1-2.52-.9l.35-.57a3.07,3.07,0,0,0,2.17.81c1.16,0,1.8-.54,1.8-1.41s-.59-1.39-1.89-1.39h-.5v-.53l1.94-2.43h-3.58v-.63h4.5v.51l-2,2.48C322.09,300.45,322.84,301.24,322.84,302.36Z"/><path class="h" d="M422.16,297.38v7h-.72V298h-1.65v-.63Z"/><path class="h" d="M423.84,303.87a.53.53,0,0,1,.53-.54.54.54,0,0,1,.54.54.55.55,0,0,1-.54.55A.54.54,0,0,1,423.84,303.87Z"/><path class="h" d="M425.85,300.87c0-2.23,1.17-3.55,2.79-3.55s2.79,1.32,2.79,3.55-1.18,3.56-2.79,3.56S425.85,303.1,425.85,300.87Zm4.85,0c0-1.87-.84-2.9-2.06-2.9s-2.06,1-2.06,2.9.84,2.9,2.06,2.9S430.7,302.74,430.7,300.87Z"/><path class="h" d="M437.23,303.73v.64h-4.9v-.51l2.91-2.85c.79-.78.94-1.25.94-1.73,0-.81-.57-1.31-1.64-1.31a2.38,2.38,0,0,0-1.91.78l-.51-.44a3.17,3.17,0,0,1,2.48-1c1.42,0,2.32.71,2.32,1.88a2.88,2.88,0,0,1-1.15,2.19l-2.38,2.34Z"/><path class="h" d="M354.49,380.32v7h-.72V381h-1.65v-.64Z"/><path class="h" d="M356.17,386.81a.53.53,0,0,1,.53-.54.54.54,0,0,1,.54.54.55.55,0,0,1-.54.55A.54.54,0,0,1,356.17,386.81Z"/><path class="h" d="M358.18,383.81c0-2.22,1.17-3.55,2.79-3.55s2.79,1.33,2.79,3.55-1.17,3.56-2.79,3.56S358.18,386,358.18,383.81Zm4.85,0c0-1.87-.84-2.89-2.06-2.89s-2.06,1-2.06,2.89.84,2.9,2.06,2.9S363,385.68,363,383.81Z"/><path class="h" d="M366.73,380.32v7H366V381h-1.65v-.64Z"/></svg>