<svg xmlns="http://www.w3.org/2000/svg" xmlns:xlink="http://www.w3.org/1999/xlink" viewBox="0 0 790.58 618.13"><defs><style>.a,.f{fill:none;}.b{fill:#595a5c;}.c{fill:#b6906c;}.d{fill:#fff;}.e{fill:#231f20;}.f{stroke:#000;stroke-linecap:round;stroke-linejoin:round;stroke-width:0.34px;}.g{clip-path:url(#a);}.h{fill:#58595b;}</style><clipPath id="a"><polygon class="a" points="237.03 143.03 237.03 227.15 233.15 227.15 233.15 415.79 501.32 415.79 501.32 227.15 497.61 227.15 497.61 143.03 237.03 143.03"/></clipPath></defs><path class="b" d="M55.31,597.13H57.1V609.9H55.31Zm.92,6.11h4.09a1.89,1.89,0,0,0,1-.27,1.82,1.82,0,0,0,.68-.77,2.67,2.67,0,0,0,.24-1.16,2.7,2.7,0,0,0-.24-1.16,1.82,1.82,0,0,0-1.7-1H56.23v-1.7h4a4.09,4.09,0,0,1,2,.48A3.45,3.45,0,0,1,63.62,599a4.64,4.64,0,0,1,0,4.11,3.34,3.34,0,0,1-1.35,1.36,4,4,0,0,1-2,.49h-4Z"/><path class="b" d="M67.7,606.33a2.07,2.07,0,0,0,.49,1.48,1.76,1.76,0,0,0,1.37.52,1.89,1.89,0,0,0,1.37-.46,1.79,1.79,0,0,0,.48-1.33l.12,1.91A2.58,2.58,0,0,1,69.06,610a2.89,2.89,0,0,1-2.33-1,4.08,4.08,0,0,1-.82-2.73v-5.55H67.7Zm.22-7.86a1.93,1.93,0,0,1-.56-1.5,2.07,2.07,0,0,1,.56-1.57,2.56,2.56,0,0,1,3.18,0,2.08,2.08,0,0,1,.57,1.56,1.94,1.94,0,0,1-.57,1.5,2.65,2.65,0,0,1-3.18,0Zm2.26-.86a.94.94,0,0,0,.24-.68,1,1,0,0,0-.24-.7.91.91,0,0,0-.67-.25.92.92,0,0,0-.67.25,1,1,0,0,0-.23.7,1,1,0,0,0,.23.68.92.92,0,0,0,.67.24A.9.9,0,0,0,70.18,597.61Zm1.23,3.17h1.78v9.12H71.41Z"/><path class="b" d="M77.1,609.63A2.82,2.82,0,0,1,76,608.36a5.08,5.08,0,0,1-.36-2v-2a5.05,5.05,0,0,1,.36-2,2.71,2.71,0,0,1,1-1.27,3,3,0,0,1,1.65-.44,2.71,2.71,0,0,1,1.48.42,3.22,3.22,0,0,1,1.09,1.19l-.18,1.86a2.19,2.19,0,0,0-.22-1,1.48,1.48,0,0,0-.61-.63,2,2,0,0,0-1-.21,1.71,1.71,0,0,0-1.37.55,2.26,2.26,0,0,0-.49,1.56v2a2.19,2.19,0,0,0,.49,1.54,1.74,1.74,0,0,0,1.37.54,1.93,1.93,0,0,0,1-.23,1.45,1.45,0,0,0,.61-.64,2.25,2.25,0,0,0,.22-1l.12,1.92a2.66,2.66,0,0,1-.89,1.14,2.56,2.56,0,0,1-1.53.45A3.19,3.19,0,0,1,77.1,609.63Zm4-12.5H82.9V609.9H81.11Z"/><path class="b" d="M87.09,609.57a3.09,3.09,0,0,1-1.29-1.36,4.85,4.85,0,0,1-.44-2.15v-1.48a4.71,4.71,0,0,1,.44-2.12,3.12,3.12,0,0,1,1.29-1.35,4.71,4.71,0,0,1,4.06,0,3.12,3.12,0,0,1,1.29,1.35,4.71,4.71,0,0,1,.44,2.12v1.51a4.79,4.79,0,0,1-.44,2.13,3.12,3.12,0,0,1-1.29,1.35,4.62,4.62,0,0,1-4.06,0Zm3.49-1.83a2.43,2.43,0,0,0,.51-1.65v-1.51a2.43,2.43,0,0,0-.51-1.65,1.88,1.88,0,0,0-1.46-.58,1.85,1.85,0,0,0-1.45.58,2.38,2.38,0,0,0-.52,1.65v1.51a2.38,2.38,0,0,0,.52,1.65,1.82,1.82,0,0,0,1.45.59A1.85,1.85,0,0,0,90.58,607.74Z"/><path class="b" d="M95.43,600.78h1.79v9.12H95.43Zm4.42,1.72a2.16,2.16,0,0,0-.83-.15,1.83,1.83,0,0,0-1.33.47,1.79,1.79,0,0,0-.47,1.31L97,602.37a3.32,3.32,0,0,1,1.09-1.27,2.58,2.58,0,0,1,1.48-.45,3.39,3.39,0,0,1,1.13.18,2.62,2.62,0,0,1,.88.53l-1.17,1.58A1.56,1.56,0,0,0,99.85,602.5Z"/><path class="b" d="M102.15,600.78H104l2.81,7.93-1,1.94Zm8.07,0L106.34,612a2.6,2.6,0,0,1-.56,1,1.87,1.87,0,0,1-.84.52,4,4,0,0,1-1.23.16h-.36V612h.36a1.46,1.46,0,0,0,.8-.2,1.74,1.74,0,0,0,.51-.7l3.38-10.31Z"/><path class="b" d="M113.51,609.88a5.76,5.76,0,0,1-1.32-.48,4.89,4.89,0,0,1-1.13-.79l1.06-1.31a5.86,5.86,0,0,0,1.47.85,4.18,4.18,0,0,0,1.44.28,3.11,3.11,0,0,0,1.6-.33,1.1,1.1,0,0,0,.53-1,.79.79,0,0,0-.29-.66,1.66,1.66,0,0,0-.72-.29c-.29,0-.69-.1-1.22-.14h-.15l-.14,0h-.15a6.45,6.45,0,0,1-1.5-.26,2,2,0,0,1-1-.7,2.38,2.38,0,0,1-.41-1.49,3.07,3.07,0,0,1,.39-1.61,2.41,2.41,0,0,1,1.18-1,5.29,5.29,0,0,1,2-.32,6.38,6.38,0,0,1,2.6.52,6.16,6.16,0,0,1,1.13.66l-1.08,1.31a5.59,5.59,0,0,0-1.35-.66,4,4,0,0,0-1.3-.22,2.44,2.44,0,0,0-1.37.31,1.08,1.08,0,0,0-.46.94.64.64,0,0,0,.26.55,1.72,1.72,0,0,0,.66.25c.26,0,.64.07,1.12.1h.34a7.67,7.67,0,0,1,1.63.25,2.24,2.24,0,0,1,1.13.77,2.62,2.62,0,0,1,.45,1.65,2.92,2.92,0,0,1-.42,1.63,2.54,2.54,0,0,1-1.27,1A5.88,5.88,0,0,1,115,610,7.38,7.38,0,0,1,113.51,609.88Z"/><path class="b" d="M126,597.13h1.8V609.9H126Zm2.6,12.5a2.39,2.39,0,0,1-.93-1.16l.13-1.91a2.22,2.22,0,0,0,.21,1,1.48,1.48,0,0,0,.61.63,1.93,1.93,0,0,0,1,.22,1.74,1.74,0,0,0,1.37-.54,2.18,2.18,0,0,0,.49-1.53v-2a2.26,2.26,0,0,0-.49-1.56,1.71,1.71,0,0,0-1.37-.55,2,2,0,0,0-1,.21,1.36,1.36,0,0,0-.61.62,2.12,2.12,0,0,0-.21,1l-.19-1.76a3.37,3.37,0,0,1,1.08-1.24,2.67,2.67,0,0,1,1.49-.43,3,3,0,0,1,1.65.43,2.9,2.9,0,0,1,1.06,1.27,5.1,5.1,0,0,1,.36,2v2a4.94,4.94,0,0,1-.37,2,2.79,2.79,0,0,1-1.08,1.26,3.25,3.25,0,0,1-1.71.44A2.73,2.73,0,0,1,128.57,609.63Z"/><path class="b" d="M134.46,600.78h1.82l2.81,7.93-1,1.94Zm8.07,0L138.65,612a2.6,2.6,0,0,1-.56,1,1.87,1.87,0,0,1-.84.52,4,4,0,0,1-1.23.16h-.36V612H136a1.46,1.46,0,0,0,.8-.2,1.74,1.74,0,0,0,.51-.7l3.37-10.31Z"/><path class="b" d="M143.57,600.78h4.12v1.62h-4.12Zm1.46,8.56a2.77,2.77,0,0,1-.52-1.81v-9.4h1.8v9.42a.84.84,0,0,0,.13.51.46.46,0,0,0,.39.18h.86V610h-1A2,2,0,0,1,145,609.34Z"/><path class="b" d="M151.94,606.33a2.07,2.07,0,0,0,.49,1.48,1.76,1.76,0,0,0,1.37.52,1.91,1.91,0,0,0,1.37-.46,1.79,1.79,0,0,0,.48-1.33l.12,1.91A2.58,2.58,0,0,1,153.3,610a2.89,2.89,0,0,1-2.33-1,4.08,4.08,0,0,1-.82-2.73v-5.55h1.79Zm3.71-5.55h1.78v9.12h-1.78Z"/><rect class="c" x="612.92" y="591.68" width="35.43" height="2.83"/><path class="d" d="M648.48,594.64H612.79v-3.08h35.69ZM613,594.39h35.19v-2.58H613Z"/><rect class="c" x="612.92" y="601.6" width="70.74" height="2.83"/><path class="d" d="M683.78,604.56h-71v-3.08h71ZM613,604.31h70.49v-2.58H613Z"/><rect class="c" x="612.92" y="612.72" width="177.16" height="2.84"/><path class="d" d="M790.21,615.68H612.79V612.6H790.21ZM613,615.43H790v-2.58H613Z"/><path class="e" d="M587.26,596.28h-.8v-4.82l-.81.5v-.83l.81-.53h.8Z"/><path class="e" d="M589,595.91a1.67,1.67,0,0,1-.41-1.19v-2.58A1.65,1.65,0,0,1,589,591a2,2,0,0,1,2.42,0,1.65,1.65,0,0,1,.41,1.19v2.58a1.65,1.65,0,0,1-.41,1.19,2,2,0,0,1-2.42,0Zm1.83-.55a.89.89,0,0,0,.2-.64v-2.58a.89.89,0,0,0-.2-.64.82.82,0,0,0-.62-.22.86.86,0,0,0-.63.22.94.94,0,0,0-.2.64v2.58a.9.9,0,0,0,.21.64,1,1,0,0,0,1.24,0Z"/><path class="e" d="M593.22,595.91a1.67,1.67,0,0,1-.41-1.19v-2.58a1.65,1.65,0,0,1,.41-1.19,2,2,0,0,1,2.42,0,1.61,1.61,0,0,1,.41,1.19v2.58a1.65,1.65,0,0,1-.41,1.19,2,2,0,0,1-2.42,0Zm1.83-.55a.9.9,0,0,0,.21-.64v-2.58a.94.94,0,0,0-.2-.64.86.86,0,0,0-.63-.22.82.82,0,0,0-.62.22.89.89,0,0,0-.2.64v2.58a.89.89,0,0,0,.2.64,1,1,0,0,0,1.24,0Z"/><path class="e" d="M600.1,596.13a1.45,1.45,0,0,1-.6-.6,2.06,2.06,0,0,1-.21-1v-.67a2,2,0,0,1,.21-.94,1.37,1.37,0,0,1,.6-.59,2,2,0,0,1,.95-.21,2.21,2.21,0,0,1,.59.08,1.68,1.68,0,0,1,.51.22,1.54,1.54,0,0,1,.37.35l-.58.52a1.17,1.17,0,0,0-.4-.3,1.13,1.13,0,0,0-.48-.11.94.94,0,0,0-.71.26,1,1,0,0,0-.26.72v.67a1,1,0,0,0,.25.74.94.94,0,0,0,.72.27,1,1,0,0,0,.48-.12,1,1,0,0,0,.4-.32l.58.56a1.38,1.38,0,0,1-.38.34,1.62,1.62,0,0,1-.5.22,2.27,2.27,0,0,1-.59.07A2.12,2.12,0,0,1,600.1,596.13Z"/><path class="e" d="M603.4,592.22h.79v4.06h-.79Zm2.42,1.6a1,1,0,0,0-.21-.67.78.78,0,0,0-.6-.23.81.81,0,0,0-.6.21.73.73,0,0,0-.22.58l-.08-.78a1.46,1.46,0,0,1,.49-.57,1.22,1.22,0,0,1,.67-.2,1.33,1.33,0,0,1,.73.2,1.18,1.18,0,0,1,.46.56,2.4,2.4,0,0,1,.15.89v2.47h-.79Zm2.42,0a.93.93,0,0,0-.22-.67.85.85,0,0,0-.63-.23.72.72,0,0,0-.57.23.9.9,0,0,0-.21.64l-.16-.78a1.61,1.61,0,0,1,.51-.63,1.23,1.23,0,0,1,.69-.22,1.37,1.37,0,0,1,.75.2,1.09,1.09,0,0,1,.47.56,2.21,2.21,0,0,1,.17.89v2.47h-.8Z"/><path class="e" d="M584.33,605.5l2-2.64a1.85,1.85,0,0,0,.27-.47,1.29,1.29,0,0,0,.09-.45h0a.67.67,0,0,0-.2-.53.81.81,0,0,0-.56-.19.76.76,0,0,0-.56.21,1,1,0,0,0-.27.58h-.82a2,2,0,0,1,.29-.83,1.42,1.42,0,0,1,.56-.53,1.67,1.67,0,0,1,.79-.18,1.93,1.93,0,0,1,.87.17,1.21,1.21,0,0,1,.54.51,1.55,1.55,0,0,1,.19.8h0a1.84,1.84,0,0,1-.12.63,2.8,2.8,0,0,1-.35.63l-1.65,2.24h2.15v.76h-3.2Z"/><path class="e" d="M589,605.83a1.67,1.67,0,0,1-.41-1.19v-2.58a1.65,1.65,0,0,1,.41-1.19,2,2,0,0,1,2.42,0,1.65,1.65,0,0,1,.41,1.19v2.58a1.65,1.65,0,0,1-.41,1.19,2,2,0,0,1-2.42,0Zm1.83-.55a.89.89,0,0,0,.2-.64v-2.58a.89.89,0,0,0-.2-.64.82.82,0,0,0-.62-.22.86.86,0,0,0-.63.22.94.94,0,0,0-.19.64v2.58a.89.89,0,0,0,.2.64,1,1,0,0,0,1.24,0Z"/><path class="e" d="M593.22,605.83a1.67,1.67,0,0,1-.41-1.19v-2.58a1.61,1.61,0,0,1,.42-1.19,1.59,1.59,0,0,1,1.2-.42,1.45,1.45,0,0,1,1.62,1.61v2.58a1.61,1.61,0,0,1-.41,1.19,2,2,0,0,1-2.42,0Zm1.84-.55a.94.94,0,0,0,.2-.64v-2.58a.94.94,0,0,0-.2-.64.84.84,0,0,0-.63-.22.82.82,0,0,0-.62.22.89.89,0,0,0-.2.64v2.58a.89.89,0,0,0,.2.64.82.82,0,0,0,.62.22A.86.86,0,0,0,595.06,605.28Z"/><path class="e" d="M600.1,606.05a1.45,1.45,0,0,1-.6-.6,2.06,2.06,0,0,1-.2-1v-.67a2,2,0,0,1,.2-.94,1.37,1.37,0,0,1,.6-.59,2,2,0,0,1,.95-.21,2.35,2.35,0,0,1,.6.08,1.73,1.73,0,0,1,.5.22,1.38,1.38,0,0,1,.37.35l-.58.52a1.08,1.08,0,0,0-.4-.3,1.13,1.13,0,0,0-.48-.11,1,1,0,0,0-.71.26,1,1,0,0,0-.26.72v.67a1,1,0,0,0,.25.74.94.94,0,0,0,.72.27,1.14,1.14,0,0,0,.88-.44l.58.56a1.38,1.38,0,0,1-.38.34,1.62,1.62,0,0,1-.5.22,2.22,2.22,0,0,1-.59.07A2.12,2.12,0,0,1,600.1,606.05Z"/><path class="e" d="M603.4,602.14h.79v4.06h-.79Zm2.42,1.6a1,1,0,0,0-.21-.67.78.78,0,0,0-.6-.23.81.81,0,0,0-.6.21.73.73,0,0,0-.22.58l-.08-.78a1.46,1.46,0,0,1,.49-.57,1.22,1.22,0,0,1,.67-.2,1.3,1.3,0,0,1,.73.2,1.18,1.18,0,0,1,.46.56,2.4,2.4,0,0,1,.16.89v2.47h-.8Zm2.42,0a.93.93,0,0,0-.22-.67.85.85,0,0,0-.63-.23.73.73,0,0,0-.57.23.89.89,0,0,0-.2.64l-.16-.78a1.51,1.51,0,0,1,.5-.63,1.23,1.23,0,0,1,.69-.22,1.35,1.35,0,0,1,.75.2,1.16,1.16,0,0,1,.48.56,2.4,2.4,0,0,1,.16.89v2.47h-.8Z"/><path class="e" d="M585,615.58a1.34,1.34,0,0,1-.54-.49,2,2,0,0,1-.28-.77h.8a.75.75,0,0,0,.25.49.85.85,0,0,0,.54.17.72.72,0,0,0,.59-.25,1.1,1.1,0,0,0,.21-.72v-.48a1.1,1.1,0,0,0-.21-.72.72.72,0,0,0-.59-.25.83.83,0,0,0-.4.11,1.18,1.18,0,0,0-.34.33h-.72v-3h2.89v.76h-2.1V612a1,1,0,0,1,.34-.18.94.94,0,0,1,.37-.07,1.68,1.68,0,0,1,.84.2,1.29,1.29,0,0,1,.53.6,2.07,2.07,0,0,1,.19.94V614a2.25,2.25,0,0,1-.19.94,1.31,1.31,0,0,1-.55.59,1.69,1.69,0,0,1-.86.21A1.74,1.74,0,0,1,585,615.58Z"/><path class="e" d="M589,615.32a1.65,1.65,0,0,1-.41-1.19v-2.58a1.67,1.67,0,0,1,.41-1.19,2,2,0,0,1,2.42,0,1.65,1.65,0,0,1,.41,1.19v2.58a1.64,1.64,0,0,1-.41,1.19,1.92,1.92,0,0,1-2.42,0Zm1.83-.55a.89.89,0,0,0,.2-.64v-2.58a.88.88,0,0,0-.2-.63.78.78,0,0,0-.62-.22.82.82,0,0,0-.63.22.93.93,0,0,0-.2.63v2.58a.9.9,0,0,0,.21.64,1,1,0,0,0,1.24,0Z"/><path class="e" d="M593.22,615.32a1.65,1.65,0,0,1-.41-1.19v-2.58a1.67,1.67,0,0,1,.41-1.19,2,2,0,0,1,2.42,0,1.61,1.61,0,0,1,.41,1.19v2.58a1.64,1.64,0,0,1-.41,1.19,1.92,1.92,0,0,1-2.42,0Zm1.83-.55a.9.9,0,0,0,.21-.64v-2.58a.93.93,0,0,0-.2-.63.82.82,0,0,0-.63-.22.78.78,0,0,0-.62.22.88.88,0,0,0-.2.63v2.58a.89.89,0,0,0,.2.64,1,1,0,0,0,1.24,0Z"/><path class="e" d="M600.1,615.54a1.45,1.45,0,0,1-.6-.6,2,2,0,0,1-.21-1v-.67a2,2,0,0,1,.21-.94,1.45,1.45,0,0,1,.6-.6,2,2,0,0,1,.95-.2,2.22,2.22,0,0,1,.59.07,2,2,0,0,1,.51.22,1.76,1.76,0,0,1,.37.35l-.58.52a1.17,1.17,0,0,0-.4-.3,1.13,1.13,0,0,0-.48-.11.94.94,0,0,0-.71.26,1,1,0,0,0-.26.73V614a1.07,1.07,0,0,0,.25.74,1,1,0,0,0,.72.26,1.13,1.13,0,0,0,.48-.11,1.26,1.26,0,0,0,.4-.32l.58.55a1.42,1.42,0,0,1-.38.35,1.88,1.88,0,0,1-.5.21,2.27,2.27,0,0,1-.59.08A2,2,0,0,1,600.1,615.54Z"/><path class="e" d="M603.4,611.63h.79v4.06h-.79Zm2.42,1.6a1,1,0,0,0-.21-.66.75.75,0,0,0-.6-.24.81.81,0,0,0-.6.21.75.75,0,0,0-.22.58l-.08-.78a1.5,1.5,0,0,1,.49-.56,1.15,1.15,0,0,1,.67-.2,1.32,1.32,0,0,1,.73.19,1.28,1.28,0,0,1,.46.56,2.42,2.42,0,0,1,.15.9v2.46h-.79Zm2.42,0a.91.91,0,0,0-.22-.66.82.82,0,0,0-.63-.24.72.72,0,0,0-.57.23.9.9,0,0,0-.21.64l-.16-.78a1.51,1.51,0,0,1,.51-.62,1.16,1.16,0,0,1,.69-.22,1.37,1.37,0,0,1,.75.19,1.18,1.18,0,0,1,.47.56,2.22,2.22,0,0,1,.17.9v2.46h-.8Z"/><path class="c" d="M23.49,613.89A12.92,12.92,0,1,1,36.4,601,12.93,12.93,0,0,1,23.49,613.89Zm0-24.83A11.92,11.92,0,1,0,35.4,601,11.93,11.93,0,0,0,23.49,589.06Z"/><polygon class="d" points="35.77 588.74 9.42 600.98 35.77 613.21 32.02 600.98 35.77 588.74"/><path class="c" d="M36.58,614.14,8.23,601l28.35-13.17-4,13.17ZM10.61,601,35,612.29,31.5,601,35,589.66Z"/><path class="c" d="M2.52,605.19a5,5,0,0,1-1.11-.38,4.4,4.4,0,0,1-1-.64l.81-1a3.72,3.72,0,0,0,1.16.69,4.08,4.08,0,0,0,1.38.23,2.73,2.73,0,0,0,1.55-.38,1.17,1.17,0,0,0,.55-1.05h0a1.12,1.12,0,0,0-.25-.77,1.44,1.44,0,0,0-.64-.42,8.23,8.23,0,0,0-1-.25H3.89l-.1,0a9.48,9.48,0,0,1-1.5-.36,2.08,2.08,0,0,1-1-.73,2.42,2.42,0,0,1-.41-1.51h0a2.77,2.77,0,0,1,.38-1.47,2.44,2.44,0,0,1,1.12-.92,4.48,4.48,0,0,1,1.77-.32,4.6,4.6,0,0,1,1,.11,4.9,4.9,0,0,1,1.86.86l-.73,1a4.61,4.61,0,0,0-1-.58,3,3,0,0,0-1.06-.2,2.44,2.44,0,0,0-1.46.38,1.24,1.24,0,0,0-.53,1.07h0a1,1,0,0,0,.27.75,1.74,1.74,0,0,0,.67.4,9.3,9.3,0,0,0,1.12.27h.24a7.93,7.93,0,0,1,1.4.41,2.22,2.22,0,0,1,.94.76,2.4,2.4,0,0,1,.38,1.43h0a2.62,2.62,0,0,1-.4,1.45,2.54,2.54,0,0,1-1.16.91,4.8,4.8,0,0,1-1.83.31A6.44,6.44,0,0,1,2.52,605.19Z"/><rect class="c" x="612.5" y="600.68" width="1" height="4.68"/><rect class="c" x="612.5" y="590.76" width="1" height="4.68"/><rect class="c" x="612.5" y="611.45" width="1" height="5.24"/><rect class="c" x="789.58" y="611.45" width="1" height="5.24"/><rect class="c" x="682.59" y="600.68" width="1" height="4.68"/><rect class="c" x="647.3" y="590.76" width="1" height="4.68"/><rect class="a" width="790.34" height="618.13"/><line class="f" x1="233.15" y1="387.15" x2="233.15" y2="387.15"/><line class="f" x1="233.15" y1="407.7" x2="233.15" y2="387.15"/><line class="f" x1="233.15" y1="407.7" x2="233.15" y2="407.7"/><line class="f" x1="233.15" y1="387.15" x2="233.15" y2="387.15"/><line class="f" x1="233.15" y1="336.63" x2="233.15" y2="336.63"/><line class="f" x1="233.15" y1="336.63" x2="233.15" y2="387.15"/><rect class="d" x="462.02" y="356.33" width="30.36" height="30.32"/><line class="f" x1="462.02" y1="356.33" x2="462.02" y2="386.65"/><line class="f" x1="492.38" y1="356.33" x2="462.02" y2="356.33"/><line class="f" x1="492.38" y1="386.65" x2="492.38" y2="356.33"/><line class="f" x1="462.02" y1="386.65" x2="492.38" y2="386.65"/><rect class="d" x="345.48" y="394.22" width="20.24" height="13.47"/><line class="f" x1="345.48" y1="394.23" x2="345.48" y2="407.7"/><line class="f" x1="365.72" y1="394.23" x2="345.48" y2="394.23"/><line class="f" x1="365.72" y1="407.7" x2="365.72" y2="394.23"/><line class="f" x1="345.48" y1="407.7" x2="365.72" y2="407.7"/><polygon class="d" points="241.25 407.7 241.25 387.49 241.25 326.52 261.82 326.52 261.82 387.15 314.44 387.15 314.44 407.7 241.25 407.7"/><line class="f" x1="241.24" y1="387.49" x2="241.24" y2="407.7"/><line class="f" x1="241.24" y1="326.52" x2="241.24" y2="387.49"/><line class="f" x1="261.82" y1="326.52" x2="241.24" y2="326.52"/><line class="f" x1="261.82" y1="387.15" x2="261.82" y2="326.52"/><line class="f" x1="314.44" y1="387.15" x2="261.82" y2="387.15"/><line class="f" x1="314.44" y1="407.7" x2="314.44" y2="387.15"/><line class="f" x1="241.24" y1="407.7" x2="314.44" y2="407.7"/><line class="f" x1="466.24" y1="390.86" x2="466.24" y2="407.7"/><line class="f" x1="466.24" y1="407.7" x2="493.23" y2="407.7"/><line class="f" x1="493.23" y1="407.7" x2="469.61" y2="404.33"/><line class="f" x1="469.61" y1="404.33" x2="466.24" y2="390.86"/><line class="f" x1="317.82" y1="394.23" x2="317.82" y2="407.7"/><line class="f" x1="317.82" y1="407.7" x2="343.12" y2="407.7"/><line class="f" x1="343.12" y1="407.7" x2="321.19" y2="404.33"/><line class="f" x1="321.19" y1="404.33" x2="317.82" y2="394.23"/><polygon points="233.15 233.89 233.15 227.15 237.03 227.15 259.8 227.15 259.8 233.89 233.15 233.89"/><rect x="344.13" y="227.15" width="66.62" height="6.74"/><polygon points="474.84 233.89 474.84 227.15 497.61 227.15 501.32 227.15 501.32 233.89 474.84 233.89"/><polygon points="403.84 415.79 403.84 407.7 493.23 407.7 493.23 240.62 501.32 240.62 501.32 407.7 501.32 415.79 403.84 415.79"/><polygon points="233.15 415.79 233.15 407.7 233.15 240.62 241.25 240.62 241.25 407.7 366.73 407.7 366.73 415.79 233.15 415.79"/><rect x="233.15" y="233.89" width="24.96" height="6.74"/><rect x="345.82" y="233.89" width="63.25" height="6.74"/><rect x="476.53" y="233.89" width="24.79" height="6.74"/><rect x="403.84" y="384.12" width="2.36" height="23.58"/><polygon points="403.84 357.17 403.84 355.49 400.46 355.49 400.46 353.13 493.23 353.13 493.23 355.49 406.2 355.49 406.2 357.17 403.84 357.17"/><polygon points="343.12 357.17 343.12 353.13 366.06 353.13 366.06 240.63 368.42 240.63 368.42 353.13 370.1 353.13 370.1 355.49 345.48 355.49 345.48 357.17 343.12 357.17"/><rect x="366.73" y="411.91" width="1.69" height="3.88"/><rect x="402.15" y="411.91" width="1.69" height="3.88"/><rect x="343.12" y="387.49" width="2.36" height="20.21"/><rect x="495.76" y="158.07" width="1.86" height="69.05"/><rect x="237.03" y="158.07" width="1.35" height="69.05"/><polygon points="314.44 407.7 314.44 390.86 343.12 390.86 343.12 394.23 317.82 394.23 317.84 407.7 314.44 407.7"/><rect x="462.87" y="387.49" width="30.36" height="3.37"/><line class="f" x1="241.24" y1="407.7" x2="314.44" y2="407.7"/><line class="f" x1="317.82" y1="407.7" x2="343.12" y2="407.7"/><line class="f" x1="345.48" y1="407.7" x2="366.73" y2="407.7"/><line class="f" x1="406.2" y1="407.7" x2="462.87" y2="407.7"/><line class="f" x1="466.24" y1="407.7" x2="493.23" y2="407.7"/><line class="f" x1="233.15" y1="227.15" x2="237.03" y2="227.15"/><line class="f" x1="237.03" y1="227.15" x2="259.8" y2="227.15"/><line class="f" x1="344.13" y1="227.15" x2="410.75" y2="227.15"/><line class="f" x1="233.15" y1="240.62" x2="233.15" y2="240.62"/><line class="f" x1="241.24" y1="240.62" x2="258.11" y2="240.62"/><line class="f" x1="345.82" y1="240.62" x2="366.06" y2="240.62"/><line class="f" x1="368.42" y1="240.62" x2="409.06" y2="240.62"/><line class="f" x1="241.24" y1="240.62" x2="241.24" y2="407.7"/><line class="f" x1="493.23" y1="240.62" x2="493.23" y2="353.13"/><line class="f" x1="493.23" y1="355.49" x2="493.23" y2="387.49"/><line class="f" x1="493.23" y1="390.86" x2="493.23" y2="407.7"/><line class="f" x1="233.15" y1="240.62" x2="233.15" y2="407.7"/><line class="f" x1="368.42" y1="240.62" x2="368.42" y2="353.13"/><line class="f" x1="366.06" y1="240.62" x2="366.06" y2="353.13"/><line class="f" x1="462.87" y1="387.49" x2="493.23" y2="387.49"/><line class="f" x1="466.24" y1="390.86" x2="493.23" y2="390.86"/><line class="f" x1="493.23" y1="355.49" x2="406.2" y2="355.49"/><line class="f" x1="493.23" y1="353.13" x2="400.46" y2="353.13"/><line class="f" x1="406.2" y1="355.49" x2="406.2" y2="357.17"/><line class="f" x1="406.2" y1="384.12" x2="406.2" y2="407.7"/><line class="f" x1="403.84" y1="355.49" x2="403.84" y2="357.17"/><line class="f" x1="403.84" y1="384.12" x2="403.84" y2="407.7"/><line class="f" x1="345.48" y1="387.49" x2="345.48" y2="407.7"/><line class="f" x1="343.12" y1="353.13" x2="343.12" y2="357.17"/><line class="f" x1="343.12" y1="394.23" x2="343.12" y2="407.7"/><line class="f" x1="314.44" y1="390.86" x2="314.44" y2="407.7"/><line class="f" x1="317.82" y1="394.23" x2="317.82" y2="407.7"/><line class="f" x1="403.84" y1="384.12" x2="406.2" y2="384.12"/><line class="f" x1="403.84" y1="357.17" x2="406.2" y2="357.17"/><line class="f" x1="403.84" y1="355.49" x2="400.46" y2="355.49"/><line class="f" x1="400.46" y1="355.49" x2="400.46" y2="353.13"/><line class="f" x1="370.1" y1="355.49" x2="370.1" y2="353.13"/><line class="f" x1="370.1" y1="353.13" x2="368.42" y2="353.13"/><line class="f" x1="368.42" y1="411.91" x2="368.42" y2="415.79"/><line class="f" x1="402.15" y1="411.91" x2="402.15" y2="415.79"/><line class="f" x1="402.15" y1="411.91" x2="403.83" y2="411.91"/><line class="f" x1="403.84" y1="411.91" x2="403.84" y2="407.7"/><line class="f" x1="368.42" y1="411.91" x2="366.73" y2="411.91"/><line class="f" x1="366.73" y1="411.91" x2="366.73" y2="407.7"/><line class="f" x1="370.1" y1="355.49" x2="345.48" y2="355.49"/><line class="f" x1="366.06" y1="353.13" x2="343.12" y2="353.13"/><line class="f" x1="345.48" y1="357.17" x2="343.12" y2="357.17"/><line class="f" x1="343.12" y1="387.49" x2="345.48" y2="387.49"/><line class="f" x1="345.48" y1="357.17" x2="345.48" y2="355.49"/><line class="f" x1="314.44" y1="390.86" x2="343.12" y2="390.86"/><line class="f" x1="317.82" y1="394.23" x2="343.12" y2="394.23"/><line class="f" x1="343.12" y1="390.86" x2="343.12" y2="387.49"/><line class="f" x1="497.61" y1="227.15" x2="474.84" y2="227.15"/><line class="f" x1="501.32" y1="227.15" x2="497.61" y2="227.15"/><line class="f" x1="233.15" y1="407.7" x2="233.15" y2="407.7"/><line class="f" x1="258.11" y1="240.62" x2="258.11" y2="233.89"/><line class="f" x1="258.11" y1="240.62" x2="258.11" y2="233.89"/><line class="f" x1="345.82" y1="240.62" x2="345.82" y2="233.89"/><line class="f" x1="409.06" y1="240.62" x2="409.06" y2="233.89"/><line class="f" x1="476.53" y1="233.89" x2="476.53" y2="240.62"/><line class="f" x1="493.23" y1="240.62" x2="476.53" y2="240.62"/><line class="f" x1="259.8" y1="233.89" x2="259.8" y2="227.15"/><line class="f" x1="258.11" y1="233.89" x2="259.8" y2="233.89"/><line class="f" x1="410.75" y1="233.89" x2="410.75" y2="227.15"/><line class="f" x1="409.06" y1="233.89" x2="410.75" y2="233.89"/><line class="f" x1="344.13" y1="233.89" x2="344.13" y2="227.15"/><line class="f" x1="345.82" y1="233.89" x2="344.13" y2="233.89"/><line class="f" x1="474.84" y1="233.89" x2="474.84" y2="227.15"/><line class="f" x1="476.53" y1="233.89" x2="474.84" y2="233.89"/><line class="f" x1="237.03" y1="158.1" x2="238.38" y2="158.1"/><line class="f" x1="238.38" y1="158.1" x2="238.38" y2="227.15"/><line class="f" x1="235.68" y1="227.15" x2="237.03" y2="227.15"/><line class="f" x1="237.03" y1="227.15" x2="238.38" y2="227.15"/><line class="f" x1="495.76" y1="158.1" x2="497.61" y2="158.1"/><line class="f" x1="495.76" y1="158.1" x2="495.76" y2="227.15"/><line class="f" x1="495.76" y1="227.15" x2="497.61" y2="227.15"/><line class="f" x1="497.61" y1="227.15" x2="498.45" y2="227.15"/><line class="f" x1="462.87" y1="407.7" x2="466.24" y2="407.7"/><line class="f" x1="400.46" y1="411.91" x2="370.1" y2="411.91"/><line class="f" x1="400.46" y1="411.91" x2="400.46" y2="381.59"/><g class="g"><path class="f" d="M370.1,411.91a30.34,30.34,0,0,1,30.36-30.32"/></g><line class="f" x1="400.46" y1="415.78" x2="400.46" y2="411.91"/><line class="f" x1="370.1" y1="411.91" x2="370.1" y2="415.79"/><line class="f" x1="370.1" y1="411.91" x2="368.42" y2="411.91"/><line class="f" x1="402.15" y1="411.91" x2="400.46" y2="411.91"/><line class="f" x1="258.11" y1="240.62" x2="312.08" y2="240.62"/><line class="f" x1="312.08" y1="240.62" x2="345.82" y2="240.62"/><line class="f" x1="476.53" y1="240.62" x2="442.8" y2="240.62"/><line class="f" x1="442.8" y1="240.62" x2="409.06" y2="240.62"/><line class="f" x1="476.53" y1="240.62" x2="442.8" y2="240.62"/><line class="f" x1="442.8" y1="240.62" x2="442.8" y2="233.89"/><line class="f" x1="441.11" y1="233.89" x2="441.11" y2="227.15"/><line class="f" x1="474.84" y1="227.15" x2="441.11" y2="227.15"/><line class="f" x1="442.8" y1="240.62" x2="409.06" y2="240.62"/><line class="f" x1="441.11" y1="230.52" x2="410.75" y2="230.52"/><line class="f" x1="442.8" y1="236.58" x2="442.8" y2="233.89"/><line class="f" x1="410.41" y1="237.26" x2="410.41" y2="268.25"/><line class="f" x1="440.1" y1="234.56" x2="440.1" y2="233.89"/><line class="f" x1="440.1" y1="233.89" x2="442.8" y2="233.89"/><line class="f" x1="442.8" y1="233.89" x2="442.8" y2="236.58"/><line class="f" x1="442.8" y1="236.58" x2="441.45" y2="236.58"/><line class="f" x1="441.45" y1="237.26" x2="438.75" y2="237.26"/><line class="f" x1="438.75" y1="237.26" x2="438.75" y2="234.56"/><line class="f" x1="438.75" y1="234.56" x2="441.45" y2="234.56"/><line class="f" x1="441.45" y1="234.56" x2="441.45" y2="237.26"/><line class="f" x1="411.76" y1="234.56" x2="411.76" y2="233.89"/><line class="f" x1="411.76" y1="233.89" x2="409.06" y2="233.89"/><line class="f" x1="409.06" y1="233.89" x2="409.06" y2="236.58"/><line class="f" x1="409.06" y1="236.58" x2="410.41" y2="236.58"/><line class="f" x1="410.41" y1="237.26" x2="413.11" y2="237.26"/><line class="f" x1="413.11" y1="237.26" x2="413.11" y2="234.56"/><line class="f" x1="413.11" y1="234.56" x2="410.41" y2="234.56"/><line class="f" x1="410.41" y1="234.56" x2="410.41" y2="237.26"/><line class="f" x1="438.75" y1="237.26" x2="413.11" y2="237.26"/><line class="f" x1="413.11" y1="234.56" x2="438.75" y2="234.56"/><line class="f" x1="438.75" y1="235.91" x2="413.11" y2="235.91"/><g class="g"><path class="f" d="M441.45,237.26a31,31,0,0,1-31,31"/></g><line class="f" x1="445.49" y1="234.56" x2="445.49" y2="233.89"/><line class="f" x1="445.49" y1="233.89" x2="442.8" y2="233.89"/><line class="f" x1="442.8" y1="233.89" x2="442.8" y2="236.58"/><line class="f" x1="442.8" y1="236.58" x2="444.15" y2="236.58"/><line class="f" x1="444.15" y1="237.26" x2="446.84" y2="237.26"/><line class="f" x1="446.84" y1="237.26" x2="446.84" y2="234.56"/><line class="f" x1="446.84" y1="234.56" x2="444.14" y2="234.56"/><line class="f" x1="444.15" y1="234.56" x2="444.15" y2="237.26"/><line class="f" x1="473.83" y1="234.56" x2="473.83" y2="233.89"/><line class="f" x1="473.83" y1="233.89" x2="476.53" y2="233.89"/><line class="f" x1="476.53" y1="233.89" x2="476.53" y2="236.58"/><line class="f" x1="476.53" y1="236.58" x2="475.18" y2="236.58"/><line class="f" x1="475.18" y1="237.26" x2="472.48" y2="237.26"/><line class="f" x1="472.48" y1="237.26" x2="472.48" y2="234.56"/><line class="f" x1="472.48" y1="234.56" x2="475.18" y2="234.56"/><line class="f" x1="475.18" y1="234.56" x2="475.18" y2="237.26"/><line class="f" x1="446.84" y1="237.26" x2="472.48" y2="237.26"/><line class="f" x1="472.48" y1="234.56" x2="446.84" y2="234.56"/><line class="f" x1="446.84" y1="235.91" x2="472.48" y2="235.91"/><line class="f" x1="258.11" y1="240.62" x2="312.08" y2="240.62"/><line class="f" x1="312.08" y1="240.62" x2="345.82" y2="240.62"/><line class="f" x1="259.8" y1="227.15" x2="313.77" y2="227.15"/><line class="f" x1="312.08" y1="240.62" x2="312.08" y2="233.89"/><line class="f" x1="313.77" y1="233.89" x2="313.77" y2="227.15"/><line class="f" x1="313.77" y1="230.52" x2="344.13" y2="230.52"/><line class="f" x1="344.47" y1="237.26" x2="344.47" y2="268.25"/><line class="f" x1="314.78" y1="234.56" x2="314.78" y2="233.89"/><line class="f" x1="314.78" y1="233.89" x2="312.08" y2="233.89"/><line class="f" x1="312.08" y1="233.89" x2="312.08" y2="236.58"/><line class="f" x1="312.08" y1="236.58" x2="313.43" y2="236.58"/><line class="f" x1="313.43" y1="237.26" x2="316.13" y2="237.26"/><line class="f" x1="316.13" y1="237.26" x2="316.13" y2="234.56"/><line class="f" x1="316.13" y1="234.56" x2="313.43" y2="234.56"/><line class="f" x1="313.43" y1="234.56" x2="313.43" y2="237.26"/><line class="f" x1="344.47" y1="237.26" x2="341.77" y2="237.26"/><line class="f" x1="341.77" y1="237.26" x2="341.77" y2="234.56"/><line class="f" x1="341.77" y1="234.56" x2="344.47" y2="234.56"/><line class="f" x1="344.47" y1="234.56" x2="344.47" y2="237.26"/><line class="f" x1="316.13" y1="237.26" x2="341.77" y2="237.26"/><line class="f" x1="341.77" y1="234.56" x2="316.13" y2="234.56"/><line class="f" x1="316.13" y1="235.91" x2="341.77" y2="235.91"/><g class="g"><path class="f" d="M344.47,268.25a31,31,0,0,1-31-31"/></g><line class="f" x1="343.12" y1="234.56" x2="343.12" y2="233.89"/><line class="f" x1="343.12" y1="233.89" x2="345.82" y2="233.89"/><line class="f" x1="345.82" y1="233.89" x2="345.82" y2="236.58"/><line class="f" x1="345.82" y1="236.58" x2="344.47" y2="236.58"/><line class="f" x1="312.08" y1="236.58" x2="309.38" y2="236.58"/><line class="f" x1="309.38" y1="236.58" x2="309.38" y2="233.89"/><line class="f" x1="309.38" y1="233.89" x2="312.08" y2="233.89"/><line class="f" x1="312.08" y1="233.89" x2="312.08" y2="236.58"/><line class="f" x1="309.38" y1="236.58" x2="286.45" y2="236.58"/><line class="f" x1="309.38" y1="235.24" x2="286.45" y2="235.24"/><line class="f" x1="309.38" y1="233.89" x2="286.45" y2="233.89"/><line class="f" x1="260.81" y1="234.56" x2="260.81" y2="233.89"/><line class="f" x1="260.81" y1="233.89" x2="258.11" y2="233.89"/><line class="f" x1="258.11" y1="233.89" x2="258.11" y2="236.58"/><line class="f" x1="258.11" y1="236.58" x2="259.46" y2="236.58"/><line class="f" x1="259.46" y1="237.26" x2="262.16" y2="237.26"/><line class="f" x1="262.16" y1="237.26" x2="262.16" y2="234.56"/><line class="f" x1="262.16" y1="234.56" x2="259.46" y2="234.56"/><line class="f" x1="259.46" y1="234.56" x2="259.46" y2="237.26"/><line class="f" x1="262.16" y1="237.26" x2="282.4" y2="237.26"/><line class="f" x1="282.4" y1="234.56" x2="262.16" y2="234.56"/><line class="f" x1="262.16" y1="235.91" x2="282.4" y2="235.91"/><line class="f" x1="283.75" y1="234.56" x2="283.75" y2="233.89"/><line class="f" x1="283.75" y1="233.89" x2="286.45" y2="233.89"/><line class="f" x1="286.45" y1="233.89" x2="286.45" y2="236.58"/><line class="f" x1="286.45" y1="236.58" x2="285.1" y2="236.58"/><line class="f" x1="285.1" y1="237.26" x2="282.4" y2="237.26"/><line class="f" x1="282.4" y1="237.26" x2="282.4" y2="234.56"/><line class="f" x1="282.4" y1="234.56" x2="285.1" y2="234.56"/><line class="f" x1="285.1" y1="234.56" x2="285.1" y2="237.26"/><line class="f" x1="343.12" y1="385.81" x2="343.12" y2="358.86"/><line class="f" x1="343.12" y1="385.81" x2="316.13" y2="385.81"/><g class="g"><path class="f" d="M316.13,385.81a27,27,0,0,1,27-26.95"/></g><line class="f" x1="345.48" y1="385.81" x2="343.12" y2="385.81"/><line class="f" x1="343.12" y1="358.86" x2="345.48" y2="358.86"/><line class="f" x1="343.12" y1="358.86" x2="343.12" y2="357.17"/><line class="f" x1="345.48" y1="358.86" x2="345.48" y2="357.17"/><line class="f" x1="343.12" y1="387.49" x2="343.12" y2="385.81"/><line class="f" x1="345.48" y1="387.49" x2="345.48" y2="385.81"/><line class="f" x1="345.48" y1="385.81" x2="345.48" y2="379.07"/><line class="f" x1="345.48" y1="375.36" x2="345.48" y2="374.6"/><line class="f" x1="345.48" y1="370.9" x2="345.48" y2="370.14"/><line class="f" x1="345.48" y1="366.44" x2="345.48" y2="365.59"/><line class="f" x1="345.48" y1="365.59" x2="345.48" y2="358.86"/><line class="f" x1="343.12" y1="385.81" x2="342.27" y2="385.81"/><line class="f" x1="342.27" y1="385.81" x2="342.27" y2="389.17"/><line class="f" x1="342.27" y1="389.17" x2="343.12" y2="389.17"/><line class="f" x1="345.48" y1="385.81" x2="346.32" y2="385.81"/><line class="f" x1="346.32" y1="385.81" x2="346.32" y2="389.17"/><line class="f" x1="346.32" y1="389.17" x2="345.48" y2="389.17"/><line class="f" x1="342.27" y1="358.86" x2="342.27" y2="355.49"/><line class="f" x1="342.27" y1="355.49" x2="343.12" y2="355.49"/><line class="f" x1="345.48" y1="358.86" x2="346.32" y2="358.86"/><line class="f" x1="346.32" y1="358.86" x2="346.32" y2="355.49"/><line class="f" x1="346.32" y1="355.49" x2="345.48" y2="355.49"/><line class="f" x1="371.79" y1="353.13" x2="398.78" y2="353.13"/><line class="f" x1="371.79" y1="353.13" x2="371.79" y2="326.18"/><g class="g"><path class="f" d="M371.79,326.18a27,27,0,0,1,27,26.95"/></g><line class="f" x1="371.79" y1="355.49" x2="371.79" y2="353.13"/><line class="f" x1="398.78" y1="353.13" x2="398.78" y2="355.49"/><line class="f" x1="398.78" y1="353.13" x2="400.46" y2="353.13"/><line class="f" x1="398.78" y1="355.49" x2="400.46" y2="355.49"/><line class="f" x1="370.1" y1="353.13" x2="371.79" y2="353.13"/><line class="f" x1="370.1" y1="355.49" x2="371.79" y2="355.49"/><line class="f" x1="371.79" y1="355.49" x2="378.54" y2="355.49"/><line class="f" x1="382.25" y1="355.49" x2="383.01" y2="355.49"/><line class="f" x1="386.72" y1="355.49" x2="387.48" y2="355.49"/><line class="f" x1="391.19" y1="355.49" x2="392.03" y2="355.49"/><line class="f" x1="392.03" y1="355.49" x2="398.77" y2="355.49"/><line class="f" x1="371.79" y1="353.13" x2="371.79" y2="352.29"/><line class="f" x1="371.79" y1="352.29" x2="368.42" y2="352.29"/><line class="f" x1="368.42" y1="352.29" x2="368.42" y2="353.13"/><line class="f" x1="371.79" y1="355.49" x2="371.79" y2="356.33"/><line class="f" x1="371.79" y1="356.33" x2="368.42" y2="356.33"/><line class="f" x1="368.42" y1="356.33" x2="368.42" y2="355.49"/><line class="f" x1="398.78" y1="352.29" x2="402.15" y2="352.29"/><line class="f" x1="402.15" y1="352.29" x2="402.15" y2="353.13"/><line class="f" x1="398.78" y1="355.49" x2="398.78" y2="356.33"/><line class="f" x1="398.78" y1="356.33" x2="402.15" y2="356.33"/><line class="f" x1="402.15" y1="356.33" x2="402.15" y2="355.49"/><line class="f" x1="403.84" y1="382.44" x2="403.84" y2="358.86"/><line class="f" x1="403.84" y1="382.44" x2="380.22" y2="382.44"/><g class="g"><path class="f" d="M380.22,382.44a23.59,23.59,0,0,1,23.62-23.58"/></g><line class="f" x1="406.2" y1="382.44" x2="403.84" y2="382.44"/><line class="f" x1="403.84" y1="358.86" x2="406.2" y2="358.86"/><line class="f" x1="403.84" y1="358.86" x2="403.84" y2="357.17"/><line class="f" x1="406.2" y1="358.86" x2="406.2" y2="357.17"/><line class="f" x1="403.84" y1="384.12" x2="403.84" y2="382.44"/><line class="f" x1="406.2" y1="384.12" x2="406.2" y2="382.44"/><line class="f" x1="406.2" y1="382.44" x2="406.2" y2="375.7"/><line class="f" x1="406.2" y1="371.99" x2="406.2" y2="371.24"/><line class="f" x1="406.2" y1="367.53" x2="406.2" y2="366.77"/><line class="f" x1="406.2" y1="365.59" x2="406.2" y2="358.86"/><line class="f" x1="403.84" y1="382.44" x2="402.99" y2="382.44"/><line class="f" x1="402.99" y1="382.44" x2="402.99" y2="385.81"/><line class="f" x1="402.99" y1="385.81" x2="403.83" y2="385.81"/><line class="f" x1="406.2" y1="382.44" x2="407.04" y2="382.44"/><line class="f" x1="407.04" y1="382.44" x2="407.04" y2="385.81"/><line class="f" x1="407.04" y1="385.81" x2="406.2" y2="385.81"/><line class="f" x1="402.99" y1="358.86" x2="402.99" y2="355.49"/><line class="f" x1="402.99" y1="355.49" x2="403.83" y2="355.49"/><line class="f" x1="406.2" y1="358.86" x2="407.04" y2="358.86"/><line class="f" x1="407.04" y1="358.86" x2="407.04" y2="355.49"/><line class="f" x1="407.04" y1="355.49" x2="406.2" y2="355.49"/><line class="f" x1="237.03" y1="154.73" x2="497.61" y2="154.73"/><g class="g"><path class="f" d="M488.17,381.59a.85.85,0,1,0-.85.85.85.85,0,0,0,.85-.85"/></g><line class="f" x1="462.02" y1="386.65" x2="462.02" y2="356.33"/><line class="f" x1="462.02" y1="356.33" x2="492.38" y2="356.33"/><line class="f" x1="492.38" y1="356.33" x2="492.38" y2="386.65"/><line class="f" x1="492.38" y1="386.65" x2="462.02" y2="386.65"/><line class="f" x1="463.71" y1="381.59" x2="463.71" y2="361.38"/><line class="f" x1="467.08" y1="358.02" x2="487.32" y2="358.02"/><line class="f" x1="490.7" y1="361.38" x2="490.7" y2="381.59"/><line class="f" x1="487.32" y1="384.96" x2="467.08" y2="384.96"/><g class="g"><path class="f" d="M467.08,385a3.37,3.37,0,0,1-3.37-3.37"/><path class="f" d="M463.71,361.38a3.36,3.36,0,0,1,3.37-3.36"/><path class="f" d="M490.7,381.59a3.38,3.38,0,0,1-3.38,3.37"/><path class="f" d="M487.32,358a3.37,3.37,0,0,1,3.38,3.36"/></g><line class="f" x1="406.2" y1="402.65" x2="462.87" y2="402.65"/><line class="f" x1="444.65" y1="356.33" x2="444.65" y2="359.7"/><line class="f" x1="444.65" y1="359.7" x2="424.41" y2="359.7"/><line class="f" x1="424.41" y1="359.7" x2="424.41" y2="356.33"/><line class="f" x1="424.41" y1="356.33" x2="425.42" y2="356.33"/><line class="f" x1="425.42" y1="356.33" x2="425.42" y2="358.69"/><line class="f" x1="425.42" y1="358.69" x2="443.64" y2="358.69"/><line class="f" x1="443.64" y1="358.69" x2="443.64" y2="356.33"/><line class="f" x1="443.64" y1="356.33" x2="444.65" y2="356.33"/><line class="f" x1="444.65" y1="356.33" x2="444.65" y2="359.7"/><line class="f" x1="424.41" y1="356.33" x2="424.41" y2="359.7"/><line class="f" x1="443.64" y1="356.33" x2="443.64" y2="358.69"/><line class="f" x1="425.42" y1="356.33" x2="425.42" y2="358.69"/><line class="f" x1="444.65" y1="359.7" x2="424.41" y2="359.7"/><line class="f" x1="444.65" y1="358.69" x2="424.41" y2="358.69"/><line class="f" x1="444.65" y1="356.33" x2="443.64" y2="356.33"/><line class="f" x1="425.42" y1="356.33" x2="424.41" y2="356.33"/><line class="f" x1="312.08" y1="240.62" x2="312.08" y2="250.73"/><line class="f" x1="312.08" y1="250.73" x2="345.82" y2="250.73"/><line class="f" x1="345.82" y1="250.73" x2="345.82" y2="240.62"/><line class="f" x1="409.06" y1="240.62" x2="409.06" y2="250.73"/><line class="f" x1="409.06" y1="250.73" x2="442.8" y2="250.73"/><line class="f" x1="442.8" y1="250.73" x2="442.8" y2="240.62"/><line class="f" x1="233.15" y1="366.94" x2="233.15" y2="366.94"/><line class="f" x1="233.15" y1="366.94" x2="233.15" y2="387.15"/><line class="f" x1="233.15" y1="387.15" x2="233.15" y2="387.15"/><line class="f" x1="233.15" y1="336.63" x2="233.15" y2="336.63"/><line class="f" x1="233.15" y1="336.63" x2="233.15" y2="407.7"/><line class="f" x1="233.15" y1="407.7" x2="233.15" y2="407.7"/><line class="f" x1="306.37" y1="394.88" x2="301.6" y2="399.64"/><line class="f" x1="301.6" y1="394.88" x2="306.37" y2="399.64"/><line class="f" x1="303.99" y1="400.63" x2="303.99" y2="393.89"/><line class="f" x1="307.36" y1="397.26" x2="300.61" y2="397.26"/><line class="f" x1="293.87" y1="387.15" x2="293.87" y2="407.36"/><line class="f" x1="314.11" y1="387.15" x2="293.87" y2="387.15"/><line class="f" x1="241.24" y1="377.05" x2="241.24" y2="356.84"/><line class="f" x1="241.24" y1="356.84" x2="261.82" y2="356.84"/><line class="f" x1="261.82" y1="356.84" x2="261.82" y2="377.05"/><line class="f" x1="261.82" y1="377.05" x2="241.24" y2="377.05"/><g class="g"><path class="f" d="M257.61,366.94a5.91,5.91,0,1,0-5.91,5.9,5.9,5.9,0,0,0,5.91-5.9"/><path class="f" d="M256.59,366.94a4.89,4.89,0,1,0-4.89,4.89,4.88,4.88,0,0,0,4.89-4.89"/><path class="f" d="M260.83,395.61a7.59,7.59,0,1,0-7.59,7.58,7.58,7.58,0,0,0,7.59-7.58"/><path class="f" d="M259.65,395.61a6.41,6.41,0,1,0-6.41,6.4,6.4,6.4,0,0,0,6.41-6.4"/><path class="f" d="M251.81,397.87a.84.84,0,1,0-.84.84.83.83,0,0,0,.84-.84"/><path class="f" d="M250.05,341.77a3.32,3.32,0,1,0-3.32,3.31,3.32,3.32,0,0,0,3.32-3.31"/></g><line class="f" x1="241.58" y1="336.63" x2="261.82" y2="336.63"/><line class="f" x1="261.82" y1="336.63" x2="261.82" y2="356.84"/><line class="f" x1="261.82" y1="356.84" x2="241.58" y2="356.84"/><g class="g"><path class="f" d="M260,341.77a3.31,3.31,0,1,0-3.31,3.31,3.31,3.31,0,0,0,3.31-3.31"/><path class="f" d="M260,351.69a3.31,3.31,0,1,0-3.31,3.31,3.31,3.31,0,0,0,3.31-3.31"/></g><line class="f" x1="262.74" y1="354.08" x2="262.74" y2="339.38"/><line class="f" x1="273.63" y1="407.36" x2="273.63" y2="387.15"/><line class="f" x1="273.63" y1="387.15" x2="293.87" y2="387.15"/><line class="f" x1="293.87" y1="387.15" x2="293.87" y2="407.36"/><line class="f" x1="241.24" y1="326.52" x2="241.24" y2="407.7"/><line class="f" x1="241.24" y1="407.7" x2="314.44" y2="407.7"/><line class="f" x1="314.44" y1="407.7" x2="314.44" y2="387.15"/><line class="f" x1="314.44" y1="387.15" x2="261.82" y2="387.15"/><line class="f" x1="261.82" y1="387.15" x2="261.82" y2="326.52"/><line class="f" x1="261.82" y1="326.52" x2="241.24" y2="326.52"/><line class="f" x1="462.87" y1="387.49" x2="462.87" y2="390.86"/><line class="f" x1="462.87" y1="387.49" x2="493.23" y2="387.49"/><line class="f" x1="462.87" y1="390.86" x2="493.23" y2="390.86"/><line class="f" x1="233.15" y1="415.78" x2="366.73" y2="415.78"/><line class="f" x1="343.12" y1="394.23" x2="343.12" y2="390.86"/><line class="f" x1="258.11" y1="242.31" x2="305.34" y2="242.31"/><line class="f" x1="305.34" y1="242.31" x2="305.34" y2="245.68"/><line class="f" x1="305.34" y1="245.68" x2="258.11" y2="245.68"/><line class="f" x1="258.11" y1="245.68" x2="258.11" y2="242.31"/><g class="g"><path class="f" d="M310.4,244a1.69,1.69,0,1,0-1.69,1.69A1.69,1.69,0,0,0,310.4,244"/></g><line class="f" x1="444.48" y1="242.31" x2="471.47" y2="242.31"/><line class="f" x1="471.47" y1="242.31" x2="471.47" y2="244.43"/><line class="f" x1="471.47" y1="244.43" x2="444.48" y2="244.43"/><line class="f" x1="444.48" y1="244.43" x2="444.48" y2="242.31"/><g class="g"><path class="f" d="M476.53,243.37a1.69,1.69,0,1,0-1.69,1.68,1.69,1.69,0,0,0,1.69-1.68"/></g><rect x="462.87" y="389.17" width="3.37" height="18.42"/><line class="f" x1="462.87" y1="390.86" x2="462.87" y2="407.59"/><line class="f" x1="466.24" y1="390.86" x2="466.24" y2="407.59"/><line class="f" x1="344.13" y1="227.15" x2="337.38" y2="227.15"/><line class="f" x1="333.67" y1="227.15" x2="332.91" y2="227.15"/><line class="f" x1="329.2" y1="227.15" x2="328.44" y2="227.15"/><line class="f" x1="324.73" y1="227.15" x2="320.52" y2="227.15"/><line class="f" x1="320.52" y1="227.15" x2="313.77" y2="227.15"/><line class="f" x1="441.11" y1="227.15" x2="434.36" y2="227.15"/><line class="f" x1="430.65" y1="227.15" x2="429.89" y2="227.15"/><line class="f" x1="426.18" y1="227.15" x2="425.42" y2="227.15"/><line class="f" x1="421.71" y1="227.15" x2="417.5" y2="227.15"/><line class="f" x1="417.5" y1="227.15" x2="410.75" y2="227.15"/><rect class="d" x="280.03" y="281.05" width="16.86" height="26.95"/><line class="f" x1="280.03" y1="281.05" x2="280.03" y2="307.99"/><line class="f" x1="296.9" y1="281.05" x2="280.03" y2="281.05"/><line class="f" x1="296.9" y1="307.99" x2="296.9" y2="281.05"/><line class="f" x1="280.03" y1="307.99" x2="296.9" y2="307.99"/><rect class="d" x="406.2" y="402.65" width="56.67" height="5.05"/><line class="f" x1="406.2" y1="402.65" x2="406.2" y2="407.7"/><line class="f" x1="462.87" y1="402.65" x2="406.2" y2="402.65"/><line class="f" x1="462.87" y1="407.7" x2="462.87" y2="402.65"/><line class="f" x1="406.2" y1="407.7" x2="462.87" y2="407.7"/><rect class="d" x="424.41" y="356.33" width="1.01" height="2.36"/><line class="f" x1="424.41" y1="358.69" x2="425.42" y2="358.69"/><line class="f" x1="424.41" y1="356.33" x2="424.41" y2="358.69"/><line class="f" x1="425.42" y1="356.33" x2="424.41" y2="356.33"/><line class="f" x1="425.42" y1="358.69" x2="425.42" y2="356.33"/><polygon class="d" points="424.41 359.7 424.41 358.69 425.42 358.69 443.64 358.69 444.65 358.69 444.65 359.7 424.41 359.7"/><line class="f" x1="424.41" y1="358.69" x2="424.41" y2="359.7"/><line class="f" x1="425.42" y1="358.69" x2="424.41" y2="358.69"/><line class="f" x1="443.64" y1="358.69" x2="425.42" y2="358.69"/><line class="f" x1="444.65" y1="358.69" x2="443.64" y2="358.69"/><line class="f" x1="444.65" y1="359.7" x2="444.65" y2="358.69"/><line class="f" x1="424.41" y1="359.7" x2="444.65" y2="359.7"/><rect class="d" x="443.64" y="356.33" width="1.01" height="2.36"/><line class="f" x1="443.64" y1="358.69" x2="444.65" y2="358.69"/><line class="f" x1="443.64" y1="356.33" x2="443.64" y2="358.69"/><line class="f" x1="444.65" y1="356.33" x2="443.64" y2="356.33"/><line class="f" x1="444.65" y1="358.69" x2="444.65" y2="356.33"/><rect class="d" x="349.86" y="240.62" width="15.18" height="111.5"/><line class="f" x1="349.86" y1="240.62" x2="365.04" y2="240.62"/><line class="f" x1="365.04" y1="240.62" x2="365.04" y2="352.12"/><line class="f" x1="365.04" y1="352.12" x2="349.86" y2="352.12"/><line class="f" x1="349.86" y1="352.12" x2="349.86" y2="240.62"/><rect class="d" x="444.48" y="242.31" width="26.98" height="2.12"/><line class="f" x1="471.47" y1="242.31" x2="444.48" y2="242.31"/><line class="f" x1="471.47" y1="244.43" x2="471.47" y2="242.31"/><line class="f" x1="444.48" y1="244.43" x2="471.47" y2="244.43"/><line class="f" x1="444.48" y1="242.31" x2="444.48" y2="244.43"/><polygon class="d" points="473.65 244.56 473.15 243.37 473.65 242.18 474.84 241.69 476.03 242.18 476.53 243.37 476.03 244.56 474.84 245.05 473.65 244.56"/><g class="g"><path class="f" d="M476.53,243.37a1.69,1.69,0,0,1-3.37,0"/><path class="f" d="M473.16,243.37a1.69,1.69,0,0,1,3.37,0"/></g><rect class="d" x="258.11" y="242.31" width="47.23" height="3.37"/><line class="f" x1="305.34" y1="242.31" x2="258.11" y2="242.31"/><line class="f" x1="305.34" y1="245.68" x2="305.34" y2="242.31"/><line class="f" x1="258.11" y1="245.68" x2="305.34" y2="245.68"/><line class="f" x1="258.11" y1="242.31" x2="258.11" y2="245.68"/><polygon class="d" points="307.52 245.18 307.02 243.99 307.52 242.8 308.71 242.31 309.9 242.8 310.4 243.99 309.9 245.18 308.71 245.68 307.52 245.18"/><g class="g"><path class="f" d="M310.4,244a1.69,1.69,0,1,1-3.38,0"/><path class="f" d="M307,244a1.69,1.69,0,0,1,3.38,0"/></g><polygon class="d" points="432.51 328.2 429.93 327.69 427.74 326.23 426.27 324.05 425.76 321.47 425.76 274.31 426.27 271.73 427.74 269.55 429.93 268.08 432.51 267.57 483.11 267.57 493.23 267.57 493.23 328.2 432.51 328.2"/><rect class="d" x="483.11" y="328.2" width="10.12" height="11.79"/><rect class="d" x="483.11" y="255.78" width="10.12" height="11.79"/><line class="f" x1="482.01" y1="295.98" x2="484.93" y2="295.17"/><line class="f" x1="482.01" y1="324.27" x2="484.93" y2="323.46"/><line class="f" x1="425.76" y1="274.31" x2="425.76" y2="321.47"/><line class="f" x1="432.51" y1="328.2" x2="493.23" y2="328.2"/><line class="f" x1="493.23" y1="328.2" x2="493.23" y2="267.57"/><line class="f" x1="493.23" y1="267.57" x2="432.51" y2="267.57"/><line class="f" x1="493.23" y1="328.2" x2="493.23" y2="339.99"/><line class="f" x1="493.23" y1="339.99" x2="483.11" y2="339.99"/><line class="f" x1="483.11" y1="339.99" x2="483.11" y2="328.2"/><line class="f" x1="483.11" y1="328.2" x2="493.23" y2="328.2"/><line class="f" x1="493.23" y1="255.78" x2="493.23" y2="267.57"/><line class="f" x1="493.23" y1="267.57" x2="483.11" y2="267.57"/><line class="f" x1="483.11" y1="267.57" x2="483.11" y2="255.78"/><line class="f" x1="483.11" y1="255.78" x2="493.23" y2="255.78"/><line class="f" x1="470.78" y1="328.2" x2="470.78" y2="267.57"/><line class="f" x1="465.72" y1="328.2" x2="465.72" y2="267.57"/><g class="g"><path class="f" d="M475.89,300.44a93.72,93.72,0,0,1,.82,12.41,95.12,95.12,0,0,1-.48,9.55"/><path class="f" d="M478.08,324.59H478a1.8,1.8,0,0,1-1.8-1.81,1.69,1.69,0,0,1,0-.38"/><path class="f" d="M482,324.27a14.91,14.91,0,0,1-3.12.34l-.81,0"/><path class="f" d="M489.54,324.45c-.81.05-1.63.06-2.44.06-1.7,0-3.4-.08-5.09-.24"/><path class="f" d="M490,324a.22.22,0,0,1,0,.08.39.39,0,0,1-.39.39l-.11,0"/><path class="f" d="M490,324q-.55-7.23-.56-14.49c0-3,.08-6.1.22-9.15"/><path class="f" d="M488.48,299.29a1,1,0,0,1,.3-.05.94.94,0,0,1,.94.93.76.76,0,0,1,0,.21"/><path class="f" d="M488.48,299.29a45.49,45.49,0,0,1-6.49.47,44.17,44.17,0,0,1-5.14-.3"/><path class="f" d="M475.89,300.44a.85.85,0,0,1,0-.23.77.77,0,0,1,.78-.78l.21,0"/><path class="f" d="M432.51,328.2a6.74,6.74,0,0,1-6.75-6.73"/><path class="f" d="M425.76,274.31a6.75,6.75,0,0,1,6.75-6.74"/><path class="f" d="M475.89,272.16a93.6,93.6,0,0,1,.82,12.41,94.93,94.93,0,0,1-.48,9.54"/><path class="f" d="M478.08,296.3H478a1.79,1.79,0,0,1-1.8-1.8,1.58,1.58,0,0,1,0-.38"/><path class="f" d="M482,296a14.27,14.27,0,0,1-3.12.34c-.27,0-.54,0-.81,0"/><path class="f" d="M489.54,296.17c-.81,0-1.63.06-2.44.06A50.87,50.87,0,0,1,482,296"/><path class="f" d="M490,295.73a.19.19,0,0,1,0,.08.38.38,0,0,1-.39.38l-.11,0"/><path class="f" d="M490,295.73c-.37-4.82-.56-9.66-.56-14.49,0-3.05.08-6.1.22-9.15"/><path class="f" d="M488.48,271a1,1,0,0,1,.3-.05.94.94,0,0,1,.94.94.69.69,0,0,1,0,.2"/><path class="f" d="M488.48,271a44.08,44.08,0,0,1-6.49.47,46.47,46.47,0,0,1-5.14-.29"/><path class="f" d="M475.89,272.16a1,1,0,0,1,0-.23.77.77,0,0,1,.78-.78l.21,0"/></g><polygon class="d" points="357.09 302.35 357.09 291.85 355.74 290.19 355.01 288.11 355.01 285.87 355.74 283.79 357.09 282.12 357.09 271.63 358.96 271.63 360.83 279.31 360.83 281.55 361.86 285.12 361.86 288.86 360.83 292.43 360.83 294.67 358.96 302.35 357.09 302.35"/><line class="f" x1="357.09" y1="271.63" x2="357.09" y2="282.12"/><line class="f" x1="358.96" y1="271.63" x2="357.09" y2="271.63"/><line class="f" x1="360.84" y1="279.31" x2="358.96" y2="271.63"/><line class="f" x1="360.84" y1="281.55" x2="360.84" y2="279.31"/><line class="f" x1="361.86" y1="285.12" x2="360.84" y2="281.55"/><line class="f" x1="361.86" y1="288.86" x2="361.86" y2="285.12"/><line class="f" x1="360.84" y1="292.43" x2="361.86" y2="288.86"/><line class="f" x1="360.84" y1="294.67" x2="360.84" y2="292.43"/><line class="f" x1="358.96" y1="302.35" x2="360.84" y2="294.67"/><line class="f" x1="357.09" y1="302.35" x2="358.96" y2="302.35"/><line class="f" x1="357.09" y1="291.85" x2="357.09" y2="302.35"/><line class="f" x1="355.74" y1="290.19" x2="357.09" y2="291.85"/><line class="f" x1="355.01" y1="288.11" x2="355.74" y2="290.19"/><line class="f" x1="355.01" y1="285.87" x2="355.01" y2="288.11"/><line class="f" x1="355.74" y1="283.79" x2="355.01" y2="285.87"/><line class="f" x1="357.09" y1="282.12" x2="355.74" y2="283.79"/><line class="f" x1="357.09" y1="271.63" x2="357.09" y2="302.35"/><line class="f" x1="360.84" y1="294.67" x2="360.84" y2="279.31"/><line class="f" x1="358.96" y1="271.63" x2="357.09" y2="271.63"/><line class="f" x1="357.84" y1="300.3" x2="357.84" y2="298.25"/><line class="f" x1="357.84" y1="298.25" x2="358.31" y2="298.25"/><line class="f" x1="358.31" y1="298.25" x2="358.31" y2="300.3"/><line class="f" x1="358.31" y1="300.3" x2="357.84" y2="300.3"/><line class="f" x1="357.84" y1="297.74" x2="357.84" y2="295.69"/><line class="f" x1="357.84" y1="295.69" x2="358.31" y2="295.69"/><line class="f" x1="358.31" y1="295.69" x2="358.31" y2="297.74"/><line class="f" x1="358.31" y1="297.74" x2="357.84" y2="297.74"/><line class="f" x1="358.96" y1="271.63" x2="358.96" y2="302.35"/><line class="f" x1="358.31" y1="295.18" x2="357.84" y2="295.18"/><line class="f" x1="357.84" y1="295.18" x2="357.84" y2="294.16"/><line class="f" x1="357.84" y1="294.16" x2="358.31" y2="294.16"/><line class="f" x1="358.31" y1="294.16" x2="358.31" y2="295.18"/><g class="g"><path class="f" d="M357.09,291.85a6.53,6.53,0,0,1,0-9.72"/></g><polygon class="d" points="245.62 318.1 245.15 317.9 244.95 317.43 244.95 248.04 245.15 247.56 245.62 247.36 272.95 247.36 273.39 247.51 273.65 247.9 273.62 248.37 273.62 273.3 273.56 274.01 272.95 274.37 273.43 274.74 273.62 275.32 273.62 312.04 273.44 312.64 272.95 313.05 273.42 313.25 273.62 313.72 273.62 314.73 273.17 316.42 271.93 317.65 270.25 318.1 245.62 318.1"/><polygon class="d" points="274.63 274.31 273.92 274.01 273.62 273.3 273.62 248.37 273.92 247.66 274.63 247.36 295.55 247.36 298.13 247.88 300.32 249.33 301.78 251.52 302.29 254.1 302.29 267.57 301.78 270.15 300.32 272.33 298.13 273.8 295.55 274.31 274.63 274.31"/><line class="f" x1="274.63" y1="274.31" x2="295.55" y2="274.31"/><g class="g"><path class="f" d="M274.63,274.31a1,1,0,0,1-1-1"/></g><line class="f" x1="273.62" y1="248.37" x2="273.62" y2="273.3"/><g class="g"><path class="f" d="M273.62,248.37a1,1,0,0,1,1-1"/></g><line class="f" x1="295.55" y1="247.36" x2="274.63" y2="247.36"/><g class="g"><path class="f" d="M295.55,247.36a6.74,6.74,0,0,1,6.74,6.74"/></g><line class="f" x1="302.29" y1="267.57" x2="302.29" y2="254.1"/><g class="g"><path class="f" d="M302.29,267.57a6.74,6.74,0,0,1-6.74,6.74"/></g><line class="f" x1="273.62" y1="313.72" x2="273.62" y2="314.73"/><line class="f" x1="270.25" y1="318.1" x2="245.62" y2="318.1"/><line class="f" x1="244.95" y1="317.42" x2="244.95" y2="313.72"/><line class="f" x1="245.62" y1="313.05" x2="272.95" y2="313.05"/><line class="f" x1="244.95" y1="313.72" x2="244.95" y2="274.31"/><line class="f" x1="244.95" y1="274.31" x2="247.31" y2="274.31"/><line class="f" x1="273.62" y1="275.32" x2="273.62" y2="312.04"/><line class="f" x1="272.61" y1="313.05" x2="255.7" y2="313.05"/><line class="f" x1="255.7" y1="274.31" x2="272.61" y2="274.31"/><line class="f" x1="247.31" y1="313.05" x2="253.67" y2="313.05"/><line class="f" x1="253.67" y1="274.31" x2="247.31" y2="274.31"/><line class="f" x1="273.62" y1="251.74" x2="273.62" y2="248.04"/><line class="f" x1="272.95" y1="247.36" x2="245.62" y2="247.36"/><line class="f" x1="244.95" y1="248.03" x2="244.95" y2="251.74"/><line class="f" x1="244.95" y1="251.74" x2="244.95" y2="274.31"/><line class="f" x1="244.95" y1="274.31" x2="247.31" y2="274.31"/><line class="f" x1="273.62" y1="273.3" x2="273.62" y2="253.42"/><line class="f" x1="255.7" y1="274.31" x2="272.61" y2="274.31"/><line class="f" x1="255.7" y1="274.31" x2="247.31" y2="274.31"/><line class="f" x1="302.29" y1="267.57" x2="302.29" y2="254.1"/><line class="f" x1="295.55" y1="247.36" x2="274.63" y2="247.36"/><line class="f" x1="273.62" y1="248.37" x2="273.62" y2="273.3"/><line class="f" x1="274.63" y1="274.31" x2="295.55" y2="274.31"/><line class="f" x1="246.3" y1="273.3" x2="246.3" y2="248.37"/><line class="f" x1="246.3" y1="275.32" x2="246.3" y2="312.04"/><g class="g"><path class="f" d="M245.62,318.1a.67.67,0,0,1-.67-.67"/><path class="f" d="M245,313.72a.67.67,0,0,1,.67-.67"/><path class="f" d="M273,313.05a.67.67,0,0,1,.67.67"/><path class="f" d="M273.62,312a1,1,0,0,1-1,1"/><path class="f" d="M272.61,274.31a1,1,0,0,1,1,1"/><path class="f" d="M273,247.36a.67.67,0,0,1,.67.68"/><path class="f" d="M245,248a.67.67,0,0,1,.67-.67"/><path class="f" d="M273.62,273.3a1,1,0,0,1-1,1"/><path class="f" d="M273.62,248.37a1,1,0,0,1,1-1"/><path class="f" d="M274.63,274.31a1,1,0,0,1-1-1"/></g><line class="f" x1="246.3" y1="248.37" x2="269.28" y2="248.37"/><g class="g"><path class="f" d="M250.22,273.34a19.44,19.44,0,0,1-.69-5.08,19.11,19.11,0,0,1,15.1-18.67"/><path class="f" d="M251,275.32A115.39,115.39,0,0,1,251,312"/><path class="f" d="M302.29,267.57a6.74,6.74,0,0,1-6.74,6.74"/><path class="f" d="M295.55,247.36a6.74,6.74,0,0,1,6.74,6.74"/><path class="f" d="M273.62,314.73a3.37,3.37,0,0,1-3.37,3.37"/></g><polygon class="d" points="286.88 326.66 286.43 324.98 286.87 323.29 288.1 322.05 293.93 318.67 295.62 318.21 297.3 318.67 298.54 319.9 302.31 326.43 298.83 326.89 295.58 328.25 292.79 330.4 290.65 333.2 286.88 326.66"/><polygon class="d" points="294 361.21 288.16 357.85 286.92 356.62 286.47 354.93 286.92 353.24 290.68 346.7 292.82 349.49 295.61 351.63 298.87 352.98 302.35 353.43 298.6 359.98 297.37 361.21 295.68 361.67 294 361.21"/><polygon class="d" points="315.35 343.41 315.81 339.91 315.34 336.42 313.99 333.16 321.52 333.15 323.21 333.6 324.44 334.83 324.9 336.52 324.91 343.27 324.46 344.96 323.23 346.2 321.55 346.65 314.01 346.66 315.35 343.41"/><polygon class="d" points="298.87 352.98 295.61 351.63 292.82 349.49 290.68 346.7 289.32 343.44 288.86 339.95 289.31 336.45 290.65 333.19 292.79 330.4 295.58 328.25 298.83 326.89 302.31 326.43 305.8 326.88 309.05 328.22 311.85 330.37 313.99 333.16 315.34 336.42 315.81 339.91 315.35 343.41 314.01 346.66 311.88 349.46 309.09 351.61 305.84 352.96 302.35 353.43 298.87 352.98"/><line class="f" x1="305.8" y1="326.88" x2="302.31" y2="326.43"/><line class="f" x1="309.05" y1="328.22" x2="305.8" y2="326.88"/><line class="f" x1="311.85" y1="330.37" x2="309.05" y2="328.22"/><line class="f" x1="313.99" y1="333.16" x2="311.85" y2="330.37"/><line class="f" x1="315.34" y1="336.42" x2="313.99" y2="333.16"/><line class="f" x1="315.81" y1="339.91" x2="315.34" y2="336.42"/><line class="f" x1="315.35" y1="343.41" x2="315.81" y2="339.91"/><line class="f" x1="314.01" y1="346.66" x2="315.35" y2="343.41"/><line class="f" x1="311.88" y1="349.46" x2="314.01" y2="346.66"/><line class="f" x1="309.09" y1="351.61" x2="311.88" y2="349.46"/><line class="f" x1="305.84" y1="352.97" x2="309.09" y2="351.61"/><line class="f" x1="302.35" y1="353.43" x2="305.84" y2="352.96"/><line class="f" x1="298.87" y1="352.98" x2="302.35" y2="353.43"/><line class="f" x1="295.61" y1="351.63" x2="298.87" y2="352.98"/><line class="f" x1="292.82" y1="349.49" x2="295.61" y2="351.63"/><line class="f" x1="290.67" y1="346.7" x2="292.82" y2="349.49"/><line class="f" x1="289.32" y1="343.44" x2="290.67" y2="346.7"/><line class="f" x1="288.86" y1="339.95" x2="289.32" y2="343.44"/><line class="f" x1="289.31" y1="336.45" x2="288.86" y2="339.95"/><line class="f" x1="290.65" y1="333.2" x2="289.31" y2="336.45"/><line class="f" x1="292.79" y1="330.4" x2="290.65" y2="333.2"/><line class="f" x1="295.58" y1="328.25" x2="292.79" y2="330.4"/><line class="f" x1="298.83" y1="326.89" x2="295.58" y2="328.25"/><line class="f" x1="302.31" y1="326.43" x2="298.83" y2="326.89"/><g class="g"><path class="f" d="M315.81,339.91a13.48,13.48,0,1,1-26.95,0"/><path class="f" d="M288.86,340a13.48,13.48,0,1,1,26.95,0"/></g><line class="f" x1="288.95" y1="323.51" x2="294.78" y2="320.13"/><line class="f" x1="298.54" y1="319.9" x2="302.31" y2="326.43"/><line class="f" x1="288.1" y1="322.05" x2="293.93" y2="318.67"/><line class="f" x1="290.65" y1="333.2" x2="286.88" y2="326.66"/><line class="f" x1="294.84" y1="359.75" x2="289" y2="356.39"/><line class="f" x1="286.92" y1="353.24" x2="290.67" y2="346.7"/><line class="f" x1="294" y1="361.21" x2="288.16" y2="357.85"/><line class="f" x1="302.35" y1="353.43" x2="298.6" y2="359.98"/><line class="f" x1="323.21" y1="336.52" x2="323.22" y2="343.27"/><line class="f" x1="321.55" y1="346.65" x2="314.01" y2="346.66"/><line class="f" x1="324.9" y1="336.52" x2="324.91" y2="343.27"/><line class="f" x1="313.99" y1="333.16" x2="321.52" y2="333.15"/><g class="g"><path class="f" d="M294.78,320.13a1.63,1.63,0,0,1,.84-.23,1.69,1.69,0,0,1,1.46.84"/><path class="f" d="M288.34,325.82a1.69,1.69,0,0,1,.61-2.31"/><path class="f" d="M293.94,318.67a3.32,3.32,0,0,1,1.68-.46,3.38,3.38,0,0,1,2.92,1.69"/><path class="f" d="M286.88,326.67a3.4,3.4,0,0,1,1.23-4.62"/><path class="f" d="M289,356.39a1.72,1.72,0,0,1-.85-1.46,1.69,1.69,0,0,1,.23-.85"/><path class="f" d="M297.14,359.13a1.7,1.7,0,0,1-1.46.85,1.63,1.63,0,0,1-.84-.23"/><path class="f" d="M288.16,357.85a3.38,3.38,0,0,1-1.24-4.61"/><path class="f" d="M298.6,360a3.36,3.36,0,0,1-4.6,1.25"/><path class="f" d="M323.22,343.27h0a1.68,1.68,0,0,1-1.68,1.69"/><path class="f" d="M321.53,334.84a1.68,1.68,0,0,1,1.68,1.68"/><path class="f" d="M324.91,343.27a3.37,3.37,0,0,1-3.37,3.38"/><path class="f" d="M321.52,333.15h0a3.39,3.39,0,0,1,3.38,3.37"/></g><polygon class="d" points="415.31 402.65 414.95 402.5 414.8 402.14 414.8 388.33 414.95 387.97 415.31 387.82 432.84 387.82 433.2 387.97 433.35 388.33 433.35 402.14 433.2 402.5 432.84 402.65 415.31 402.65"/><line class="f" x1="432.85" y1="402.65" x2="415.3" y2="402.65"/><g class="g"><path class="f" d="M415.3,402.65a.5.5,0,0,1-.5-.51"/></g><line class="f" x1="414.8" y1="402.14" x2="414.8" y2="388.33"/><g class="g"><path class="f" d="M414.8,388.33a.5.5,0,0,1,.5-.5"/></g><line class="f" x1="415.3" y1="387.83" x2="432.84" y2="387.83"/><g class="g"><path class="f" d="M432.85,387.83a.5.5,0,0,1,.5.5"/></g><line class="f" x1="433.35" y1="388.33" x2="433.35" y2="402.14"/><g class="g"><path class="f" d="M433.35,402.14a.51.51,0,0,1-.5.51"/></g><line class="f" x1="431.83" y1="398.94" x2="416.32" y2="398.94"/><line class="f" x1="415.81" y1="398.44" x2="415.81" y2="389.34"/><line class="f" x1="416.32" y1="388.84" x2="431.83" y2="388.84"/><line class="f" x1="432.34" y1="389.34" x2="432.34" y2="398.44"/><g class="g"><path class="f" d="M416.32,398.94a.5.5,0,0,1-.51-.5"/><path class="f" d="M415.81,389.34a.5.5,0,0,1,.51-.5"/><path class="f" d="M431.83,388.84a.5.5,0,0,1,.51.5"/><path class="f" d="M432.34,398.44a.5.5,0,0,1-.51.5"/></g><polygon class="d" points="423.48 401.22 423.23 400.63 423.37 399.22 423.48 398.89 423.7 397.11 423.83 396.87 424.07 396.78 424.32 396.87 424.45 397.11 424.67 398.89 424.78 399.22 424.92 400.63 424.67 401.22 424.07 401.47 423.48 401.22"/><g class="g"><path class="f" d="M424.92,400.63a.85.85,0,0,1-1.69,0"/></g><line class="f" x1="423.37" y1="399.21" x2="423.23" y2="400.63"/><g class="g"><path class="f" d="M423.37,399.21a.65.65,0,0,1,.11-.32"/></g><line class="f" x1="423.7" y1="397.11" x2="423.48" y2="398.89"/><g class="g"><path class="f" d="M423.7,397.11a.38.38,0,0,1,.75,0"/></g><line class="f" x1="424.67" y1="398.89" x2="424.45" y2="397.11"/><g class="g"><path class="f" d="M424.67,398.89a.65.65,0,0,1,.11.32"/></g><line class="f" x1="424.92" y1="400.63" x2="424.78" y2="399.22"/><line class="f" x1="423.62" y1="399.79" x2="423.62" y2="399.29"/><line class="f" x1="424.53" y1="399.29" x2="424.53" y2="399.79"/><line class="f" x1="424.53" y1="399.79" x2="423.62" y2="399.79"/><g class="g"><path class="f" d="M423.62,399.29a.46.46,0,1,1,.91,0"/><path class="f" d="M423.48,398.89a.71.71,0,0,1,1.19,0"/></g><rect class="d" x="368.42" y="240.62" width="20.24" height="40.42"/><line class="f" x1="388.66" y1="281.05" x2="388.66" y2="240.62"/><line class="f" x1="388.66" y1="240.62" x2="368.42" y2="240.62"/><line class="f" x1="368.42" y1="240.62" x2="368.42" y2="281.05"/><line class="f" x1="368.42" y1="281.05" x2="388.66" y2="281.05"/><line class="f" x1="378.54" y1="279.02" x2="378.54" y2="242.65"/><line class="f" x1="384.49" y1="277.15" x2="372.36" y2="273.73"/><line class="f" x1="385.09" y1="273.29" x2="373.81" y2="271.88"/><line class="f" x1="371.24" y1="268.03" x2="383.62" y2="266.87"/><line class="f" x1="372.86" y1="262.07" x2="383.62" y2="263.65"/><line class="f" x1="372.24" y1="259.9" x2="385.5" y2="259.9"/><line class="f" x1="372.19" y1="253.75" x2="385.28" y2="255.21"/><line class="f" x1="372.41" y1="251.45" x2="384.37" y2="251.45"/><line class="f" x1="372.29" y1="245.39" x2="384.55" y2="244.23"/><line class="f" x1="373.12" y1="246.85" x2="383.49" y2="248.03"/><rect class="d" x="368.42" y="281.05" width="20.24" height="40.42"/><line class="f" x1="388.66" y1="321.47" x2="388.66" y2="281.05"/><line class="f" x1="388.66" y1="281.05" x2="368.42" y2="281.05"/><line class="f" x1="368.42" y1="281.05" x2="368.42" y2="321.47"/><line class="f" x1="368.42" y1="321.47" x2="388.66" y2="321.47"/><line class="f" x1="378.54" y1="319.45" x2="378.54" y2="283.07"/><line class="f" x1="384.49" y1="317.57" x2="372.36" y2="314.15"/><line class="f" x1="385.09" y1="313.72" x2="373.81" y2="312.3"/><line class="f" x1="371.24" y1="308.45" x2="383.62" y2="307.29"/><line class="f" x1="372.86" y1="302.49" x2="383.62" y2="304.07"/><line class="f" x1="372.24" y1="300.32" x2="385.5" y2="300.32"/><line class="f" x1="372.19" y1="294.18" x2="385.28" y2="295.63"/><line class="f" x1="372.41" y1="291.87" x2="384.37" y2="291.87"/><line class="f" x1="372.29" y1="285.81" x2="384.55" y2="284.65"/><line class="f" x1="373.12" y1="287.27" x2="383.49" y2="288.45"/><polygon class="d" points="441.45 402.65 441.45 391.53 441.71 389.87 442.46 388.36 443.64 387.15 445.55 386.15 447.69 385.81 449.82 386.15 451.74 387.15 452.91 388.36 453.67 389.87 453.93 391.53 453.93 402.65 441.45 402.65"/><line class="f" x1="441.45" y1="402.65" x2="441.45" y2="391.53"/><line class="f" x1="441.45" y1="402.65" x2="453.93" y2="402.65"/><line class="f" x1="453.93" y1="402.65" x2="453.93" y2="391.53"/><line class="f" x1="443.47" y1="398.61" x2="443.47" y2="391.53"/><line class="f" x1="451.9" y1="398.61" x2="451.9" y2="391.53"/><line class="f" x1="451.9" y1="398.61" x2="443.47" y2="398.61"/><g class="g"><path class="f" d="M441.45,391.53a5.48,5.48,0,0,1,2.19-4.38"/><path class="f" d="M451.74,387.15a5.51,5.51,0,0,1,2.19,4.38"/><path class="f" d="M443.64,387.15a6.78,6.78,0,0,1,8.09,0"/><path class="f" d="M451.74,387.15a5.51,5.51,0,0,1,2.19,4.38"/><path class="f" d="M447.69,385.81a6.74,6.74,0,0,1,4,1.34"/><path class="f" d="M450.52,388.77a3.45,3.45,0,0,1,1.38,2.76"/><path class="f" d="M444.85,388.77a4.75,4.75,0,0,1,5.67,0"/><path class="f" d="M443.47,391.53a3.45,3.45,0,0,1,1.38-2.76"/></g><line class="f" x1="366.73" y1="407.7" x2="373.48" y2="407.7"/><line class="f" x1="377.19" y1="407.7" x2="377.95" y2="407.7"/><line class="f" x1="381.66" y1="407.7" x2="382.42" y2="407.7"/><line class="f" x1="386.13" y1="407.7" x2="392.87" y2="407.7"/><line class="f" x1="396.58" y1="407.7" x2="397.09" y2="407.7"/><line class="f" x1="397.09" y1="407.7" x2="403.83" y2="407.7"/><line class="f" x1="281.46" y1="399.32" x2="281.46" y2="393.67"/><line class="f" x1="281.46" y1="393.67" x2="283.76" y2="395.53"/><line class="f" x1="283.76" y1="395.53" x2="286.05" y2="393.67"/><line class="f" x1="286.05" y1="393.67" x2="286.05" y2="399.32"/><line class="f" x1="237.03" y1="176.62" x2="244.45" y2="176.62"/><line class="f" x1="249.34" y1="176.62" x2="250.35" y2="176.62"/><line class="f" x1="255.24" y1="176.62" x2="256.26" y2="176.62"/><line class="f" x1="261.15" y1="176.62" x2="269.58" y2="176.62"/><line class="f" x1="274.47" y1="176.62" x2="275.48" y2="176.62"/><line class="f" x1="280.37" y1="176.62" x2="281.39" y2="176.62"/><line class="f" x1="286.28" y1="176.62" x2="294.71" y2="176.62"/><line class="f" x1="299.6" y1="176.62" x2="300.61" y2="176.62"/><line class="f" x1="305.51" y1="176.62" x2="306.52" y2="176.62"/><line class="f" x1="311.41" y1="176.62" x2="319.84" y2="176.62"/><line class="f" x1="324.73" y1="176.62" x2="325.75" y2="176.62"/><line class="f" x1="330.64" y1="176.62" x2="331.65" y2="176.62"/><line class="f" x1="336.54" y1="176.62" x2="344.97" y2="176.62"/><line class="f" x1="349.86" y1="176.62" x2="350.88" y2="176.62"/><line class="f" x1="355.77" y1="176.62" x2="356.78" y2="176.62"/><line class="f" x1="361.67" y1="176.62" x2="370.1" y2="176.62"/><line class="f" x1="374.99" y1="176.62" x2="376.01" y2="176.62"/><line class="f" x1="380.9" y1="176.62" x2="381.91" y2="176.62"/><line class="f" x1="386.8" y1="176.62" x2="395.23" y2="176.62"/><line class="f" x1="400.12" y1="176.62" x2="401.14" y2="176.62"/><line class="f" x1="406.03" y1="176.62" x2="407.04" y2="176.62"/><line class="f" x1="411.93" y1="176.62" x2="420.36" y2="176.62"/><line class="f" x1="425.26" y1="176.62" x2="426.27" y2="176.62"/><line class="f" x1="431.16" y1="176.62" x2="432.17" y2="176.62"/><line class="f" x1="437.06" y1="176.62" x2="445.49" y2="176.62"/><line class="f" x1="450.39" y1="176.62" x2="451.4" y2="176.62"/><line class="f" x1="456.29" y1="176.62" x2="457.3" y2="176.62"/><line class="f" x1="462.19" y1="176.62" x2="470.62" y2="176.62"/><line class="f" x1="475.52" y1="176.62" x2="476.53" y2="176.62"/><line class="f" x1="481.42" y1="176.62" x2="482.43" y2="176.62"/><line class="f" x1="487.32" y1="176.62" x2="495.76" y2="176.62"/><line class="f" x1="233.15" y1="415.78" x2="501.32" y2="415.78"/><line class="f" x1="501.32" y1="415.78" x2="501.32" y2="227.15"/><line class="f" x1="501.32" y1="227.15" x2="497.61" y2="227.15"/><line class="f" x1="497.61" y1="227.15" x2="497.61" y2="143.03"/><line class="f" x1="497.61" y1="143.03" x2="237.03" y2="143.03"/><line class="f" x1="237.03" y1="143.03" x2="237.03" y2="227.15"/><line class="f" x1="237.03" y1="227.15" x2="233.15" y2="227.15"/><line class="f" x1="233.15" y1="227.15" x2="233.15" y2="415.78"/><path class="h" d="M400.49,202v7h-.72v-6.36h-1.65V202Z"/><path class="h" d="M402.17,208.49a.53.53,0,0,1,.53-.54.54.54,0,0,1,.54.54.55.55,0,0,1-.54.55A.54.54,0,0,1,402.17,208.49Z"/><path class="h" d="M404.18,205.49c0-2.23,1.17-3.56,2.79-3.56s2.8,1.33,2.8,3.56-1.18,3.56-2.8,3.56S404.18,207.72,404.18,205.49Zm4.85,0c0-1.87-.84-2.9-2.06-2.9s-2.06,1-2.06,2.9.84,2.9,2.06,2.9S409,207.36,409,205.49Z"/><path class="h" d="M415.55,206.93c0,1.19-.83,2.12-2.54,2.12a3.61,3.61,0,0,1-2.51-.9l.35-.57a3,3,0,0,0,2.15.81c1.19,0,1.82-.58,1.82-1.43s-.56-1.46-2.34-1.46H411l.36-3.51h3.83v.64H412l-.24,2.23h.9C414.75,204.86,415.55,205.69,415.55,206.93Z"/><path class="h" d="M427.18,370.79v7h-.72v-6.36h-1.65v-.64Z"/><path class="h" d="M428.86,377.29a.53.53,0,0,1,.53-.54.54.54,0,0,1,.54.54.55.55,0,0,1-.54.55A.54.54,0,0,1,428.86,377.29Z"/><path class="h" d="M430.87,374.29c0-2.23,1.17-3.56,2.79-3.56s2.8,1.33,2.8,3.56-1.18,3.55-2.8,3.55S430.87,376.52,430.87,374.29Zm4.85,0c0-1.87-.84-2.9-2.06-2.9s-2.06,1-2.06,2.9.84,2.9,2.06,2.9S435.72,376.16,435.72,374.29Z"/><path class="h" d="M443.44,376H442v1.84h-.72V376h-3.95v-.52l3.71-4.64h.8l-3.58,4.52h3v-1.62h.7v1.62h1.4Z"/><path class="h" d="M400.49,295.18v7h-.72v-6.36h-1.65v-.64Z"/><path class="h" d="M402.17,301.68a.53.53,0,0,1,.53-.54.54.54,0,0,1,.54.54.55.55,0,0,1-.54.55A.54.54,0,0,1,402.17,301.68Z"/><path class="h" d="M404.18,298.68c0-2.23,1.17-3.56,2.79-3.56s2.8,1.33,2.8,3.56-1.18,3.56-2.8,3.56S404.18,300.91,404.18,298.68Zm4.85,0c0-1.87-.84-2.9-2.06-2.9s-2.06,1-2.06,2.9.84,2.9,2.06,2.9S409,300.55,409,298.68Z"/><path class="h" d="M415.34,300.17c0,1.17-.85,2.07-2.54,2.07a3.64,3.64,0,0,1-2.52-.9l.35-.57a3.07,3.07,0,0,0,2.17.81c1.16,0,1.8-.54,1.8-1.41s-.59-1.39-1.89-1.39h-.5v-.53l1.94-2.43h-3.58v-.64h4.5v.51l-2,2.49C414.59,298.26,415.34,299.05,415.34,300.17Z"/><path class="h" d="M319.81,295.18v7h-.72v-6.36h-1.65v-.64Z"/><path class="h" d="M321.49,301.68a.53.53,0,0,1,.53-.54.54.54,0,0,1,.54.54.55.55,0,0,1-.54.55A.54.54,0,0,1,321.49,301.68Z"/><path class="h" d="M323.5,298.68c0-2.23,1.17-3.56,2.79-3.56s2.8,1.33,2.8,3.56-1.18,3.56-2.8,3.56S323.5,300.91,323.5,298.68Zm4.85,0c0-1.87-.84-2.9-2.06-2.9s-2.06,1-2.06,2.9.84,2.9,2.06,2.9S328.35,300.55,328.35,298.68Z"/><path class="h" d="M334.89,301.54v.64H330v-.51l2.91-2.85c.79-.78.94-1.25.94-1.73,0-.81-.57-1.31-1.64-1.31a2.38,2.38,0,0,0-1.91.78l-.51-.44a3.15,3.15,0,0,1,2.48-1c1.42,0,2.32.72,2.32,1.89a2.88,2.88,0,0,1-1.15,2.19L331,301.54Z"/><path class="h" d="M354.9,370v7h-.72v-6.36h-1.65V370Z"/><path class="h" d="M356.58,376.51a.53.53,0,0,1,.53-.54.54.54,0,0,1,.54.54.55.55,0,0,1-.54.55A.54.54,0,0,1,356.58,376.51Z"/><path class="h" d="M358.59,373.51c0-2.23,1.17-3.56,2.79-3.56s2.8,1.33,2.8,3.56-1.18,3.56-2.8,3.56S358.59,375.74,358.59,373.51Zm4.85,0c0-1.87-.84-2.9-2.06-2.9s-2.06,1-2.06,2.9.84,2.9,2.06,2.9S363.44,375.38,363.44,373.51Z"/><path class="h" d="M367.14,370v7h-.72v-6.36h-1.65V370Z"/></svg>