<svg xmlns="http://www.w3.org/2000/svg" xmlns:xlink="http://www.w3.org/1999/xlink" viewBox="0 0 790.58 618.13"><defs><style>.a,.f{fill:none;}.b{fill:#595a5c;}.c{fill:#b6906c;}.d,.i{fill:#fff;}.e{fill:#231f20;}.f{stroke:#000;stroke-linecap:round;stroke-linejoin:round;stroke-width:0.34px;}.g,.i{fill-rule:evenodd;}.h{clip-path:url(#a);}.j{fill:#58595b;}</style><clipPath id="a"><polygon class="a" points="240.69 137.21 240.69 222.75 236.75 222.75 236.75 414.45 545.87 414.45 545.87 222.75 541.59 222.75 541.59 137.21 240.69 137.21"/></clipPath></defs><path class="b" d="M55.31,597.13H57.1V609.9H55.31Zm.92,6.11h4.09a1.89,1.89,0,0,0,1-.27,1.82,1.82,0,0,0,.68-.77,2.67,2.67,0,0,0,.24-1.16,2.7,2.7,0,0,0-.24-1.16,1.82,1.82,0,0,0-1.7-1H56.23v-1.7h4a4.09,4.09,0,0,1,2,.48A3.45,3.45,0,0,1,63.62,599a4.64,4.64,0,0,1,0,4.11,3.34,3.34,0,0,1-1.35,1.36,4,4,0,0,1-2,.49h-4Z"/><path class="b" d="M67.7,606.33a2.07,2.07,0,0,0,.49,1.48,1.76,1.76,0,0,0,1.37.52,1.89,1.89,0,0,0,1.37-.46,1.79,1.79,0,0,0,.48-1.33l.12,1.91A2.58,2.58,0,0,1,69.06,610a2.89,2.89,0,0,1-2.33-1,4.08,4.08,0,0,1-.82-2.73v-5.55H67.7Zm.22-7.86a1.93,1.93,0,0,1-.56-1.5,2.07,2.07,0,0,1,.56-1.57,2.56,2.56,0,0,1,3.18,0,2.08,2.08,0,0,1,.57,1.56,1.94,1.94,0,0,1-.57,1.5,2.65,2.65,0,0,1-3.18,0Zm2.26-.86a.94.94,0,0,0,.24-.68,1,1,0,0,0-.24-.7.91.91,0,0,0-.67-.25.92.92,0,0,0-.67.25,1,1,0,0,0-.23.7,1,1,0,0,0,.23.68.92.92,0,0,0,.67.24A.9.9,0,0,0,70.18,597.61Zm1.23,3.17h1.78v9.12H71.41Z"/><path class="b" d="M77.1,609.63A2.82,2.82,0,0,1,76,608.36a5.08,5.08,0,0,1-.36-2v-2a5.05,5.05,0,0,1,.36-2,2.71,2.71,0,0,1,1-1.27,3,3,0,0,1,1.65-.44,2.71,2.71,0,0,1,1.48.42,3.22,3.22,0,0,1,1.09,1.19l-.18,1.86a2.19,2.19,0,0,0-.22-1,1.48,1.48,0,0,0-.61-.63,2,2,0,0,0-1-.21,1.71,1.71,0,0,0-1.37.55,2.26,2.26,0,0,0-.49,1.56v2a2.19,2.19,0,0,0,.49,1.54,1.74,1.74,0,0,0,1.37.54,1.93,1.93,0,0,0,1-.23,1.45,1.45,0,0,0,.61-.64,2.25,2.25,0,0,0,.22-1l.12,1.92a2.66,2.66,0,0,1-.89,1.14,2.56,2.56,0,0,1-1.53.45A3.19,3.19,0,0,1,77.1,609.63Zm4-12.5H82.9V609.9H81.11Z"/><path class="b" d="M87.09,609.57a3.09,3.09,0,0,1-1.29-1.36,4.85,4.85,0,0,1-.44-2.15v-1.48a4.71,4.71,0,0,1,.44-2.12,3.12,3.12,0,0,1,1.29-1.35,4.71,4.71,0,0,1,4.06,0,3.12,3.12,0,0,1,1.29,1.35,4.71,4.71,0,0,1,.44,2.12v1.51a4.79,4.79,0,0,1-.44,2.13,3.12,3.12,0,0,1-1.29,1.35,4.62,4.62,0,0,1-4.06,0Zm3.49-1.83a2.43,2.43,0,0,0,.51-1.65v-1.51a2.43,2.43,0,0,0-.51-1.65,1.88,1.88,0,0,0-1.46-.58,1.85,1.85,0,0,0-1.45.58,2.38,2.38,0,0,0-.52,1.65v1.51a2.38,2.38,0,0,0,.52,1.65,1.82,1.82,0,0,0,1.45.59A1.85,1.85,0,0,0,90.58,607.74Z"/><path class="b" d="M95.43,600.78h1.79v9.12H95.43Zm4.42,1.72a2.16,2.16,0,0,0-.83-.15,1.83,1.83,0,0,0-1.33.47,1.79,1.79,0,0,0-.47,1.31L97,602.37a3.32,3.32,0,0,1,1.09-1.27,2.58,2.58,0,0,1,1.48-.45,3.39,3.39,0,0,1,1.13.18,2.62,2.62,0,0,1,.88.53l-1.17,1.58A1.56,1.56,0,0,0,99.85,602.5Z"/><path class="b" d="M102.15,600.78H104l2.81,7.93-1,1.94Zm8.07,0L106.34,612a2.6,2.6,0,0,1-.56,1,1.87,1.87,0,0,1-.84.52,4,4,0,0,1-1.23.16h-.36V612h.36a1.46,1.46,0,0,0,.8-.2,1.74,1.74,0,0,0,.51-.7l3.38-10.31Z"/><path class="b" d="M113.51,609.88a5.76,5.76,0,0,1-1.32-.48,4.89,4.89,0,0,1-1.13-.79l1.06-1.31a5.86,5.86,0,0,0,1.47.85,4.18,4.18,0,0,0,1.44.28,3.11,3.11,0,0,0,1.6-.33,1.1,1.1,0,0,0,.53-1,.79.79,0,0,0-.29-.66,1.66,1.66,0,0,0-.72-.29c-.29,0-.69-.1-1.22-.14h-.15l-.14,0h-.15a6.45,6.45,0,0,1-1.5-.26,2,2,0,0,1-1-.7,2.38,2.38,0,0,1-.41-1.49,3.07,3.07,0,0,1,.39-1.61,2.41,2.41,0,0,1,1.18-1,5.29,5.29,0,0,1,2-.32,6.38,6.38,0,0,1,2.6.52,6.16,6.16,0,0,1,1.13.66l-1.08,1.31a5.59,5.59,0,0,0-1.35-.66,4,4,0,0,0-1.3-.22,2.44,2.44,0,0,0-1.37.31,1.08,1.08,0,0,0-.46.94.64.64,0,0,0,.26.55,1.72,1.72,0,0,0,.66.25c.26,0,.64.07,1.12.1h.34a7.67,7.67,0,0,1,1.63.25,2.24,2.24,0,0,1,1.13.77,2.62,2.62,0,0,1,.45,1.65,2.92,2.92,0,0,1-.42,1.63,2.54,2.54,0,0,1-1.27,1A5.88,5.88,0,0,1,115,610,7.38,7.38,0,0,1,113.51,609.88Z"/><path class="b" d="M126,597.13h1.8V609.9H126Zm2.6,12.5a2.39,2.39,0,0,1-.93-1.16l.13-1.91a2.22,2.22,0,0,0,.21,1,1.48,1.48,0,0,0,.61.63,1.93,1.93,0,0,0,1,.22,1.74,1.74,0,0,0,1.37-.54,2.18,2.18,0,0,0,.49-1.53v-2a2.26,2.26,0,0,0-.49-1.56,1.71,1.71,0,0,0-1.37-.55,2,2,0,0,0-1,.21,1.36,1.36,0,0,0-.61.62,2.12,2.12,0,0,0-.21,1l-.19-1.76a3.37,3.37,0,0,1,1.08-1.24,2.67,2.67,0,0,1,1.49-.43,3,3,0,0,1,1.65.43,2.9,2.9,0,0,1,1.06,1.27,5.1,5.1,0,0,1,.36,2v2a4.94,4.94,0,0,1-.37,2,2.79,2.79,0,0,1-1.08,1.26,3.25,3.25,0,0,1-1.71.44A2.73,2.73,0,0,1,128.57,609.63Z"/><path class="b" d="M134.46,600.78h1.82l2.81,7.93-1,1.94Zm8.07,0L138.65,612a2.6,2.6,0,0,1-.56,1,1.87,1.87,0,0,1-.84.52,4,4,0,0,1-1.23.16h-.36V612H136a1.46,1.46,0,0,0,.8-.2,1.74,1.74,0,0,0,.51-.7l3.37-10.31Z"/><path class="b" d="M143.57,600.78h4.12v1.62h-4.12Zm1.46,8.56a2.77,2.77,0,0,1-.52-1.81v-9.4h1.8v9.42a.84.84,0,0,0,.13.51.46.46,0,0,0,.39.18h.86V610h-1A2,2,0,0,1,145,609.34Z"/><path class="b" d="M151.94,606.33a2.07,2.07,0,0,0,.49,1.48,1.76,1.76,0,0,0,1.37.52,1.91,1.91,0,0,0,1.37-.46,1.79,1.79,0,0,0,.48-1.33l.12,1.91A2.58,2.58,0,0,1,153.3,610a2.89,2.89,0,0,1-2.33-1,4.08,4.08,0,0,1-.82-2.73v-5.55h1.79Zm3.71-5.55h1.78v9.12h-1.78Z"/><rect class="c" x="612.92" y="591.68" width="35.43" height="2.83"/><path class="d" d="M648.48,594.64H612.79v-3.08h35.69ZM613,594.39h35.19v-2.58H613Z"/><rect class="c" x="612.92" y="601.6" width="70.74" height="2.83"/><path class="d" d="M683.78,604.56h-71v-3.08h71ZM613,604.31h70.49v-2.58H613Z"/><rect class="c" x="612.92" y="612.72" width="177.16" height="2.84"/><path class="d" d="M790.21,615.68H612.79V612.6H790.21ZM613,615.43H790v-2.58H613Z"/><path class="e" d="M587.26,596.28h-.8v-4.82l-.81.5v-.83l.81-.53h.8Z"/><path class="e" d="M589,595.91a1.67,1.67,0,0,1-.41-1.19v-2.58A1.65,1.65,0,0,1,589,591a2,2,0,0,1,2.42,0,1.65,1.65,0,0,1,.41,1.19v2.58a1.65,1.65,0,0,1-.41,1.19,2,2,0,0,1-2.42,0Zm1.83-.55a.89.89,0,0,0,.2-.64v-2.58a.89.89,0,0,0-.2-.64.82.82,0,0,0-.62-.22.86.86,0,0,0-.63.22.94.94,0,0,0-.2.64v2.58a.9.9,0,0,0,.21.64,1,1,0,0,0,1.24,0Z"/><path class="e" d="M593.22,595.91a1.67,1.67,0,0,1-.41-1.19v-2.58a1.65,1.65,0,0,1,.41-1.19,2,2,0,0,1,2.42,0,1.61,1.61,0,0,1,.41,1.19v2.58a1.65,1.65,0,0,1-.41,1.19,2,2,0,0,1-2.42,0Zm1.83-.55a.9.9,0,0,0,.21-.64v-2.58a.94.94,0,0,0-.2-.64.86.86,0,0,0-.63-.22.82.82,0,0,0-.62.22.89.89,0,0,0-.2.64v2.58a.89.89,0,0,0,.2.64,1,1,0,0,0,1.24,0Z"/><path class="e" d="M600.1,596.13a1.45,1.45,0,0,1-.6-.6,2.06,2.06,0,0,1-.21-1v-.67a2,2,0,0,1,.21-.94,1.37,1.37,0,0,1,.6-.59,2,2,0,0,1,.95-.21,2.21,2.21,0,0,1,.59.08,1.68,1.68,0,0,1,.51.22,1.54,1.54,0,0,1,.37.35l-.58.52a1.17,1.17,0,0,0-.4-.3,1.13,1.13,0,0,0-.48-.11.94.94,0,0,0-.71.26,1,1,0,0,0-.26.72v.67a1,1,0,0,0,.25.74.94.94,0,0,0,.72.27,1,1,0,0,0,.48-.12,1,1,0,0,0,.4-.32l.58.56a1.38,1.38,0,0,1-.38.34,1.62,1.62,0,0,1-.5.22,2.27,2.27,0,0,1-.59.07A2.12,2.12,0,0,1,600.1,596.13Z"/><path class="e" d="M603.4,592.22h.79v4.06h-.79Zm2.42,1.6a1,1,0,0,0-.21-.67.78.78,0,0,0-.6-.23.81.81,0,0,0-.6.21.73.73,0,0,0-.22.58l-.08-.78a1.46,1.46,0,0,1,.49-.57,1.22,1.22,0,0,1,.67-.2,1.33,1.33,0,0,1,.73.2,1.18,1.18,0,0,1,.46.56,2.4,2.4,0,0,1,.15.89v2.47h-.79Zm2.42,0a.93.93,0,0,0-.22-.67.85.85,0,0,0-.63-.23.72.72,0,0,0-.57.23.9.9,0,0,0-.21.64l-.16-.78a1.61,1.61,0,0,1,.51-.63,1.23,1.23,0,0,1,.69-.22,1.37,1.37,0,0,1,.75.2,1.09,1.09,0,0,1,.47.56,2.21,2.21,0,0,1,.17.89v2.47h-.8Z"/><path class="e" d="M584.33,605.5l2-2.64a1.85,1.85,0,0,0,.27-.47,1.29,1.29,0,0,0,.09-.45h0a.67.67,0,0,0-.2-.53.81.81,0,0,0-.56-.19.76.76,0,0,0-.56.21,1,1,0,0,0-.27.58h-.82a2,2,0,0,1,.29-.83,1.42,1.42,0,0,1,.56-.53,1.67,1.67,0,0,1,.79-.18,1.93,1.93,0,0,1,.87.17,1.21,1.21,0,0,1,.54.51,1.55,1.55,0,0,1,.19.8h0a1.84,1.84,0,0,1-.12.63,2.8,2.8,0,0,1-.35.63l-1.65,2.24h2.15v.76h-3.2Z"/><path class="e" d="M589,605.83a1.67,1.67,0,0,1-.41-1.19v-2.58a1.65,1.65,0,0,1,.41-1.19,2,2,0,0,1,2.42,0,1.65,1.65,0,0,1,.41,1.19v2.58a1.65,1.65,0,0,1-.41,1.19,2,2,0,0,1-2.42,0Zm1.83-.55a.89.89,0,0,0,.2-.64v-2.58a.89.89,0,0,0-.2-.64.82.82,0,0,0-.62-.22.86.86,0,0,0-.63.22.94.94,0,0,0-.19.64v2.58a.89.89,0,0,0,.2.64,1,1,0,0,0,1.24,0Z"/><path class="e" d="M593.22,605.83a1.67,1.67,0,0,1-.41-1.19v-2.58a1.61,1.61,0,0,1,.42-1.19,1.59,1.59,0,0,1,1.2-.42,1.45,1.45,0,0,1,1.62,1.61v2.58a1.61,1.61,0,0,1-.41,1.19,2,2,0,0,1-2.42,0Zm1.84-.55a.94.94,0,0,0,.2-.64v-2.58a.94.94,0,0,0-.2-.64.84.84,0,0,0-.63-.22.82.82,0,0,0-.62.22.89.89,0,0,0-.2.64v2.58a.89.89,0,0,0,.2.64.82.82,0,0,0,.62.22A.86.86,0,0,0,595.06,605.28Z"/><path class="e" d="M600.1,606.05a1.45,1.45,0,0,1-.6-.6,2.06,2.06,0,0,1-.2-1v-.67a2,2,0,0,1,.2-.94,1.37,1.37,0,0,1,.6-.59,2,2,0,0,1,.95-.21,2.35,2.35,0,0,1,.6.08,1.73,1.73,0,0,1,.5.22,1.38,1.38,0,0,1,.37.35l-.58.52a1.08,1.08,0,0,0-.4-.3,1.13,1.13,0,0,0-.48-.11,1,1,0,0,0-.71.26,1,1,0,0,0-.26.72v.67a1,1,0,0,0,.25.74.94.94,0,0,0,.72.27,1.14,1.14,0,0,0,.88-.44l.58.56a1.38,1.38,0,0,1-.38.34,1.62,1.62,0,0,1-.5.22,2.22,2.22,0,0,1-.59.07A2.12,2.12,0,0,1,600.1,606.05Z"/><path class="e" d="M603.4,602.14h.79v4.06h-.79Zm2.42,1.6a1,1,0,0,0-.21-.67.78.78,0,0,0-.6-.23.81.81,0,0,0-.6.21.73.73,0,0,0-.22.58l-.08-.78a1.46,1.46,0,0,1,.49-.57,1.22,1.22,0,0,1,.67-.2,1.3,1.3,0,0,1,.73.2,1.18,1.18,0,0,1,.46.56,2.4,2.4,0,0,1,.16.89v2.47h-.8Zm2.42,0a.93.93,0,0,0-.22-.67.85.85,0,0,0-.63-.23.73.73,0,0,0-.57.23.89.89,0,0,0-.2.64l-.16-.78a1.51,1.51,0,0,1,.5-.63,1.23,1.23,0,0,1,.69-.22,1.35,1.35,0,0,1,.75.2,1.16,1.16,0,0,1,.48.56,2.4,2.4,0,0,1,.16.89v2.47h-.8Z"/><path class="e" d="M585,615.58a1.34,1.34,0,0,1-.54-.49,2,2,0,0,1-.28-.77h.8a.75.75,0,0,0,.25.49.85.85,0,0,0,.54.17.72.72,0,0,0,.59-.25,1.1,1.1,0,0,0,.21-.72v-.48a1.1,1.1,0,0,0-.21-.72.72.72,0,0,0-.59-.25.83.83,0,0,0-.4.11,1.18,1.18,0,0,0-.34.33h-.72v-3h2.89v.76h-2.1V612a1,1,0,0,1,.34-.18.94.94,0,0,1,.37-.07,1.68,1.68,0,0,1,.84.2,1.29,1.29,0,0,1,.53.6,2.07,2.07,0,0,1,.19.94V614a2.25,2.25,0,0,1-.19.94,1.31,1.31,0,0,1-.55.59,1.69,1.69,0,0,1-.86.21A1.74,1.74,0,0,1,585,615.58Z"/><path class="e" d="M589,615.32a1.65,1.65,0,0,1-.41-1.19v-2.58a1.67,1.67,0,0,1,.41-1.19,2,2,0,0,1,2.42,0,1.65,1.65,0,0,1,.41,1.19v2.58a1.64,1.64,0,0,1-.41,1.19,1.92,1.92,0,0,1-2.42,0Zm1.83-.55a.89.89,0,0,0,.2-.64v-2.58a.88.88,0,0,0-.2-.63.78.78,0,0,0-.62-.22.82.82,0,0,0-.63.22.93.93,0,0,0-.2.63v2.58a.9.9,0,0,0,.21.64,1,1,0,0,0,1.24,0Z"/><path class="e" d="M593.22,615.32a1.65,1.65,0,0,1-.41-1.19v-2.58a1.67,1.67,0,0,1,.41-1.19,2,2,0,0,1,2.42,0,1.61,1.61,0,0,1,.41,1.19v2.58a1.64,1.64,0,0,1-.41,1.19,1.92,1.92,0,0,1-2.42,0Zm1.83-.55a.9.9,0,0,0,.21-.64v-2.58a.93.93,0,0,0-.2-.63.82.82,0,0,0-.63-.22.78.78,0,0,0-.62.22.88.88,0,0,0-.2.63v2.58a.89.89,0,0,0,.2.64,1,1,0,0,0,1.24,0Z"/><path class="e" d="M600.1,615.54a1.45,1.45,0,0,1-.6-.6,2,2,0,0,1-.21-1v-.67a2,2,0,0,1,.21-.94,1.45,1.45,0,0,1,.6-.6,2,2,0,0,1,.95-.2,2.22,2.22,0,0,1,.59.07,2,2,0,0,1,.51.22,1.76,1.76,0,0,1,.37.35l-.58.52a1.17,1.17,0,0,0-.4-.3,1.13,1.13,0,0,0-.48-.11.94.94,0,0,0-.71.26,1,1,0,0,0-.26.73V614a1.07,1.07,0,0,0,.25.74,1,1,0,0,0,.72.26,1.13,1.13,0,0,0,.48-.11,1.26,1.26,0,0,0,.4-.32l.58.55a1.42,1.42,0,0,1-.38.35,1.88,1.88,0,0,1-.5.21,2.27,2.27,0,0,1-.59.08A2,2,0,0,1,600.1,615.54Z"/><path class="e" d="M603.4,611.63h.79v4.06h-.79Zm2.42,1.6a1,1,0,0,0-.21-.66.75.75,0,0,0-.6-.24.81.81,0,0,0-.6.21.75.75,0,0,0-.22.58l-.08-.78a1.5,1.5,0,0,1,.49-.56,1.15,1.15,0,0,1,.67-.2,1.32,1.32,0,0,1,.73.19,1.28,1.28,0,0,1,.46.56,2.42,2.42,0,0,1,.15.9v2.46h-.79Zm2.42,0a.91.91,0,0,0-.22-.66.82.82,0,0,0-.63-.24.72.72,0,0,0-.57.23.9.9,0,0,0-.21.64l-.16-.78a1.51,1.51,0,0,1,.51-.62,1.16,1.16,0,0,1,.69-.22,1.37,1.37,0,0,1,.75.19,1.18,1.18,0,0,1,.47.56,2.22,2.22,0,0,1,.17.9v2.46h-.8Z"/><path class="c" d="M23.49,613.89A12.92,12.92,0,1,1,36.4,601,12.93,12.93,0,0,1,23.49,613.89Zm0-24.83A11.92,11.92,0,1,0,35.4,601,11.93,11.93,0,0,0,23.49,589.06Z"/><polygon class="d" points="35.77 588.74 9.42 600.98 35.77 613.21 32.02 600.98 35.77 588.74"/><path class="c" d="M36.58,614.14,8.23,601l28.35-13.17-4,13.17ZM10.61,601,35,612.29,31.5,601,35,589.66Z"/><path class="c" d="M2.52,605.19a5,5,0,0,1-1.11-.38,4.4,4.4,0,0,1-1-.64l.81-1a3.72,3.72,0,0,0,1.16.69,4.08,4.08,0,0,0,1.38.23,2.73,2.73,0,0,0,1.55-.38,1.17,1.17,0,0,0,.55-1.05h0a1.12,1.12,0,0,0-.25-.77,1.44,1.44,0,0,0-.64-.42,8.23,8.23,0,0,0-1-.25H3.89l-.1,0a9.48,9.48,0,0,1-1.5-.36,2.08,2.08,0,0,1-1-.73,2.42,2.42,0,0,1-.41-1.51h0a2.77,2.77,0,0,1,.38-1.47,2.44,2.44,0,0,1,1.12-.92,4.48,4.48,0,0,1,1.77-.32,4.6,4.6,0,0,1,1,.11,4.9,4.9,0,0,1,1.86.86l-.73,1a4.61,4.61,0,0,0-1-.58,3,3,0,0,0-1.06-.2,2.44,2.44,0,0,0-1.46.38,1.24,1.24,0,0,0-.53,1.07h0a1,1,0,0,0,.27.75,1.74,1.74,0,0,0,.67.4,9.3,9.3,0,0,0,1.12.27h.24a7.93,7.93,0,0,1,1.4.41,2.22,2.22,0,0,1,.94.76,2.4,2.4,0,0,1,.38,1.43h0a2.62,2.62,0,0,1-.4,1.45,2.54,2.54,0,0,1-1.16.91,4.8,4.8,0,0,1-1.83.31A6.44,6.44,0,0,1,2.52,605.19Z"/><rect class="c" x="612.5" y="600.68" width="1" height="4.68"/><rect class="c" x="612.5" y="590.76" width="1" height="4.68"/><rect class="c" x="612.5" y="611.45" width="1" height="5.24"/><rect class="c" x="789.58" y="611.45" width="1" height="5.24"/><rect class="c" x="682.59" y="600.68" width="1" height="4.68"/><rect class="c" x="647.3" y="590.76" width="1" height="4.68"/><rect class="a" width="790.34" height="618.13"/><rect class="d" x="245.82" y="342.05" width="27.39" height="41.08"/><line class="f" x1="245.82" y1="342.05" x2="245.82" y2="383.13"/><line class="f" x1="273.21" y1="342.05" x2="245.82" y2="342.05"/><line class="f" x1="273.21" y1="383.13" x2="273.21" y2="342.05"/><line class="f" x1="245.82" y1="383.13" x2="273.21" y2="383.13"/><rect class="d" x="440.09" y="385.36" width="97.56" height="20.88"/><line class="f" x1="440.09" y1="385.36" x2="440.09" y2="406.24"/><line class="f" x1="537.66" y1="385.36" x2="440.09" y2="385.36"/><line class="f" x1="537.66" y1="406.24" x2="537.66" y2="385.36"/><line class="f" x1="440.09" y1="406.24" x2="537.66" y2="406.24"/><rect class="d" x="516.78" y="334.01" width="20.88" height="51.35"/><line class="f" x1="537.66" y1="385.36" x2="516.78" y2="385.36"/><line class="f" x1="516.77" y1="385.36" x2="516.77" y2="334.01"/><line class="f" x1="516.77" y1="334.01" x2="537.66" y2="334.01"/><line class="f" x1="537.66" y1="334.01" x2="537.66" y2="385.36"/><line class="f" x1="545.87" y1="385.7" x2="545.87" y2="406.24"/><line class="f" x1="545.87" y1="323.74" x2="545.87" y2="385.7"/><line class="f" x1="545.87" y1="323.74" x2="545.87" y2="323.74"/><line class="f" x1="545.87" y1="406.24" x2="545.87" y2="406.24"/><rect class="d" x="333.97" y="389.12" width="25.67" height="17.12"/><line class="f" x1="333.97" y1="389.12" x2="333.97" y2="406.24"/><line class="f" x1="359.65" y1="389.12" x2="333.97" y2="389.12"/><line class="f" x1="359.65" y1="406.24" x2="359.65" y2="389.12"/><line class="f" x1="333.97" y1="406.24" x2="359.65" y2="406.24"/><line class="f" x1="268.93" y1="406.24" x2="248.71" y2="402.8"/><line class="f" x1="248.71" y1="402.8" x2="244.97" y2="387.41"/><line class="f" x1="244.97" y1="387.41" x2="244.97" y2="406.24"/><line class="f" x1="244.97" y1="406.24" x2="268.93" y2="406.24"/><line class="f" x1="436.67" y1="406.24" x2="419.87" y2="402.8"/><line class="f" x1="419.87" y1="402.8" x2="416.13" y2="389.12"/><line class="f" x1="416.13" y1="389.12" x2="416.13" y2="406.24"/><line class="f" x1="416.13" y1="406.24" x2="436.67" y2="406.24"/><polygon class="g" points="236.75 222.75 240.69 222.75 285.7 222.75 285.7 229.6 236.75 229.6 236.75 222.75"/><polygon class="g" points="545.87 229.6 508.22 229.6 508.22 222.75 541.59 222.75 545.87 222.75 545.87 229.6"/><rect x="371.29" y="222.75" width="51.35" height="6.85"/><rect x="373" y="229.6" width="47.93" height="6.85"/><polygon class="g" points="545.87 414.45 407.57 414.45 407.57 406.24 537.66 406.24 537.66 236.44 545.87 236.44 545.87 406.24 545.87 414.45"/><polygon class="g" points="236.75 236.44 244.97 236.44 244.97 406.24 369.92 406.24 369.92 414.45 244.97 414.45 236.75 414.45 236.75 236.44"/><rect x="509.93" y="229.6" width="35.94" height="6.85"/><rect x="236.75" y="229.6" width="47.24" height="6.85"/><rect x="318.23" y="229.6" width="20.54" height="6.85"/><rect x="316.51" y="222.75" width="23.96" height="6.85"/><rect x="331.58" y="341.2" width="2.4" height="8.56"/><polygon class="g" points="400.73 236.44 400.73 337.77 402.44 341.19 369.92 341.19 369.92 334.35 393.88 334.35 393.88 236.44 400.73 236.44"/><rect x="244.97" y="334.35" width="94.14" height="6.85"/><rect x="405.86" y="410.52" width="1.71" height="3.94"/><rect x="369.92" y="410.52" width="1.71" height="3.94"/><polygon class="g" points="416.13 338.8 416.13 349.75 413.74 349.75 413.74 341.19 400.73 341.19 400.73 338.8 416.13 338.8"/><polygon class="g" points="416.13 406.24 413.74 406.24 413.74 380.56 416.13 380.56 416.13 385.7 416.13 406.24"/><rect x="331.58" y="377.14" width="2.4" height="29.1"/><rect x="540.22" y="152.54" width="1.37" height="70.18"/><rect x="240.69" y="152.54" width="1.54" height="70.18"/><rect x="236.75" y="411.03" height="3.42"/><polygon class="g" points="272.35 383.99 272.35 387.41 268.93 387.41 268.91 387.4 268.93 387.41 244.97 387.41 244.97 383.99 272.35 383.99"/><polygon class="g" points="416.13 385.7 440.09 385.7 440.09 406.24 436.65 406.23 436.67 389.12 416.13 389.12 416.13 385.7"/><polygon class="g" points="272.35 387.41 272.35 406.24 268.93 406.24 268.91 404.53 268.93 404.53 268.93 404.53 268.93 387.41 272.35 387.41"/><line class="f" x1="404.15" y1="410.52" x2="373.34" y2="410.52"/><line class="f" x1="404.15" y1="410.52" x2="404.15" y2="379.71"/><g class="h"><path class="f" d="M373.34,410.52a30.8,30.8,0,0,1,30.81-30.81"/></g><line class="f" x1="404.15" y1="414.45" x2="404.15" y2="410.52"/><line class="f" x1="373.34" y1="410.52" x2="373.34" y2="414.45"/><line class="f" x1="373.34" y1="410.52" x2="371.63" y2="410.52"/><line class="f" x1="405.86" y1="410.52" x2="404.15" y2="410.52"/><line class="f" x1="283.99" y1="236.44" x2="283.99" y2="229.6"/><line class="f" x1="373" y1="236.44" x2="373" y2="229.6"/><line class="f" x1="420.92" y1="236.44" x2="420.92" y2="229.6"/><line class="f" x1="545.87" y1="406.24" x2="545.87" y2="406.24"/><line class="f" x1="236.75" y1="222.75" x2="240.69" y2="222.75"/><line class="f" x1="240.69" y1="222.75" x2="285.7" y2="222.75"/><line class="f" x1="371.29" y1="222.75" x2="422.63" y2="222.75"/><line class="f" x1="508.22" y1="222.75" x2="541.59" y2="222.75"/><line class="f" x1="541.59" y1="222.75" x2="545.87" y2="222.75"/><line class="f" x1="236.75" y1="236.44" x2="236.75" y2="236.44"/><line class="f" x1="244.97" y1="236.44" x2="283.99" y2="236.44"/><line class="f" x1="373" y1="236.44" x2="393.88" y2="236.44"/><line class="f" x1="400.73" y1="236.44" x2="420.92" y2="236.44"/><line class="f" x1="509.93" y1="236.44" x2="537.66" y2="236.44"/><line class="f" x1="545.87" y1="236.44" x2="545.87" y2="236.44"/><line class="f" x1="545.87" y1="236.44" x2="545.87" y2="406.24"/><line class="f" x1="537.66" y1="236.44" x2="537.66" y2="406.24"/><line class="f" x1="236.75" y1="236.44" x2="236.75" y2="236.44"/><line class="f" x1="244.97" y1="334.35" x2="244.97" y2="236.44"/><line class="f" x1="440.09" y1="406.24" x2="537.66" y2="406.24"/><line class="f" x1="509.93" y1="236.44" x2="509.93" y2="229.6"/><line class="f" x1="420.92" y1="236.44" x2="420.92" y2="229.6"/><line class="f" x1="285.7" y1="229.6" x2="285.7" y2="222.75"/><line class="f" x1="283.99" y1="229.6" x2="285.7" y2="229.6"/><line class="f" x1="422.64" y1="229.6" x2="422.64" y2="222.75"/><line class="f" x1="420.92" y1="229.6" x2="422.63" y2="229.6"/><line class="f" x1="371.29" y1="229.6" x2="371.29" y2="222.75"/><line class="f" x1="373" y1="229.6" x2="371.29" y2="229.6"/><line class="f" x1="508.22" y1="229.6" x2="508.22" y2="222.75"/><line class="f" x1="509.93" y1="229.6" x2="508.22" y2="229.6"/><line class="f" x1="318.23" y1="236.44" x2="318.23" y2="229.6"/><line class="f" x1="316.51" y1="229.6" x2="316.51" y2="222.75"/><line class="f" x1="318.23" y1="229.6" x2="316.51" y2="229.6"/><line class="f" x1="338.77" y1="236.44" x2="338.77" y2="229.6"/><line class="f" x1="340.48" y1="229.6" x2="340.48" y2="222.75"/><line class="f" x1="338.77" y1="229.6" x2="340.48" y2="229.6"/><line class="f" x1="316.51" y1="222.75" x2="340.48" y2="222.75"/><line class="f" x1="318.23" y1="236.44" x2="338.77" y2="236.44"/><line class="f" x1="540.22" y1="152.57" x2="541.59" y2="152.57"/><line class="f" x1="540.22" y1="152.57" x2="540.22" y2="222.75"/><line class="f" x1="540.22" y1="222.75" x2="541.59" y2="222.75"/><line class="f" x1="541.59" y1="222.75" x2="542.96" y2="222.75"/><line class="f" x1="240.69" y1="152.57" x2="242.23" y2="152.57"/><line class="f" x1="242.23" y1="152.57" x2="242.23" y2="222.75"/><line class="f" x1="239.49" y1="222.75" x2="240.69" y2="222.75"/><line class="f" x1="240.69" y1="222.75" x2="242.23" y2="222.75"/><line class="f" x1="331.58" y1="349.75" x2="331.58" y2="341.19"/><line class="f" x1="333.97" y1="349.75" x2="333.97" y2="341.19"/><line class="f" x1="400.73" y1="338.8" x2="400.73" y2="236.44"/><line class="f" x1="244.97" y1="334.35" x2="339.11" y2="334.35"/><line class="f" x1="369.92" y1="334.35" x2="393.88" y2="334.35"/><line class="f" x1="244.97" y1="341.19" x2="331.58" y2="341.19"/><line class="f" x1="333.97" y1="341.19" x2="339.11" y2="341.19"/><line class="f" x1="369.92" y1="341.19" x2="402.44" y2="341.19"/><line class="f" x1="331.58" y1="377.14" x2="333.97" y2="377.14"/><line class="f" x1="331.58" y1="349.75" x2="333.97" y2="349.75"/><line class="f" x1="369.92" y1="334.35" x2="369.92" y2="341.19"/><line class="f" x1="339.11" y1="334.35" x2="339.11" y2="341.19"/><line class="f" x1="509.93" y1="236.44" x2="455.16" y2="236.44"/><line class="f" x1="455.16" y1="236.44" x2="420.92" y2="236.44"/><line class="f" x1="508.22" y1="222.75" x2="453.44" y2="222.75"/><line class="f" x1="455.16" y1="236.44" x2="455.16" y2="229.6"/><line class="f" x1="453.44" y1="229.6" x2="453.44" y2="222.75"/><line class="f" x1="453.44" y1="226.17" x2="422.64" y2="226.17"/><line class="f" x1="422.29" y1="233.02" x2="422.29" y2="264.51"/><line class="f" x1="452.42" y1="230.28" x2="452.42" y2="229.6"/><line class="f" x1="452.42" y1="229.6" x2="455.16" y2="229.6"/><line class="f" x1="455.16" y1="229.6" x2="455.16" y2="232.34"/><line class="f" x1="455.16" y1="232.34" x2="453.79" y2="232.34"/><line class="f" x1="453.79" y1="233.02" x2="451.05" y2="233.02"/><line class="f" x1="451.05" y1="233.02" x2="451.05" y2="230.28"/><line class="f" x1="451.05" y1="230.28" x2="453.79" y2="230.28"/><line class="f" x1="453.79" y1="230.28" x2="453.79" y2="233.02"/><line class="f" x1="422.29" y1="233.02" x2="425.03" y2="233.02"/><line class="f" x1="425.03" y1="233.02" x2="425.03" y2="230.28"/><line class="f" x1="425.03" y1="230.28" x2="422.29" y2="230.28"/><line class="f" x1="422.29" y1="230.28" x2="422.29" y2="233.02"/><line class="f" x1="451.05" y1="233.02" x2="425.03" y2="233.02"/><line class="f" x1="425.03" y1="230.28" x2="451.05" y2="230.28"/><line class="f" x1="451.05" y1="231.65" x2="425.03" y2="231.65"/><g class="h"><path class="f" d="M453.79,233a31.49,31.49,0,0,1-31.5,31.49"/></g><line class="f" x1="423.66" y1="230.28" x2="423.66" y2="229.6"/><line class="f" x1="423.66" y1="229.6" x2="420.92" y2="229.6"/><line class="f" x1="420.92" y1="229.6" x2="420.92" y2="232.34"/><line class="f" x1="420.92" y1="232.34" x2="422.29" y2="232.34"/><line class="f" x1="455.16" y1="232.34" x2="457.9" y2="232.34"/><line class="f" x1="457.89" y1="232.34" x2="457.89" y2="229.6"/><line class="f" x1="457.89" y1="229.6" x2="455.16" y2="229.6"/><line class="f" x1="455.16" y1="229.6" x2="455.16" y2="232.34"/><line class="f" x1="457.89" y1="232.34" x2="481.17" y2="232.34"/><line class="f" x1="457.89" y1="230.97" x2="481.17" y2="230.97"/><line class="f" x1="457.89" y1="229.6" x2="481.17" y2="229.6"/><line class="f" x1="507.19" y1="230.28" x2="507.19" y2="229.6"/><line class="f" x1="507.19" y1="229.6" x2="509.93" y2="229.6"/><line class="f" x1="509.93" y1="229.6" x2="509.93" y2="232.34"/><line class="f" x1="509.93" y1="232.34" x2="508.56" y2="232.34"/><line class="f" x1="508.56" y1="233.02" x2="505.82" y2="233.02"/><line class="f" x1="505.82" y1="233.02" x2="505.82" y2="230.28"/><line class="f" x1="505.82" y1="230.28" x2="508.56" y2="230.28"/><line class="f" x1="508.56" y1="230.28" x2="508.56" y2="233.02"/><line class="f" x1="505.82" y1="233.02" x2="485.28" y2="233.02"/><line class="f" x1="485.28" y1="230.28" x2="505.82" y2="230.28"/><line class="f" x1="505.82" y1="231.65" x2="485.28" y2="231.65"/><line class="f" x1="483.91" y1="230.28" x2="483.91" y2="229.6"/><line class="f" x1="483.91" y1="229.6" x2="481.17" y2="229.6"/><line class="f" x1="481.17" y1="229.6" x2="481.17" y2="232.34"/><line class="f" x1="481.17" y1="232.34" x2="482.54" y2="232.34"/><line class="f" x1="482.54" y1="233.02" x2="485.28" y2="233.02"/><line class="f" x1="485.28" y1="233.02" x2="485.28" y2="230.28"/><line class="f" x1="485.28" y1="230.28" x2="482.54" y2="230.28"/><line class="f" x1="482.54" y1="230.28" x2="482.54" y2="233.02"/><line class="f" x1="283.99" y1="236.44" x2="318.23" y2="236.44"/><line class="f" x1="338.77" y1="236.44" x2="373" y2="236.44"/><line class="f" x1="285.7" y1="222.75" x2="316.51" y2="222.75"/><line class="f" x1="338.77" y1="236.44" x2="338.77" y2="229.6"/><line class="f" x1="340.48" y1="226.17" x2="371.29" y2="226.17"/><line class="f" x1="371.63" y1="233.02" x2="371.63" y2="264.51"/><line class="f" x1="341.5" y1="230.28" x2="341.5" y2="229.6"/><line class="f" x1="341.5" y1="229.6" x2="338.77" y2="229.6"/><line class="f" x1="338.77" y1="229.6" x2="338.77" y2="232.34"/><line class="f" x1="338.77" y1="232.34" x2="340.13" y2="232.34"/><line class="f" x1="340.13" y1="233.02" x2="342.87" y2="233.02"/><line class="f" x1="342.87" y1="233.02" x2="342.87" y2="230.28"/><line class="f" x1="342.87" y1="230.28" x2="340.13" y2="230.28"/><line class="f" x1="340.13" y1="230.28" x2="340.13" y2="233.02"/><line class="f" x1="371.63" y1="233.02" x2="368.89" y2="233.02"/><line class="f" x1="368.89" y1="233.02" x2="368.89" y2="230.28"/><line class="f" x1="368.89" y1="230.28" x2="371.63" y2="230.28"/><line class="f" x1="371.63" y1="230.28" x2="371.63" y2="233.02"/><line class="f" x1="342.87" y1="233.02" x2="368.89" y2="233.02"/><line class="f" x1="368.89" y1="230.28" x2="342.87" y2="230.28"/><line class="f" x1="342.87" y1="231.65" x2="368.89" y2="231.65"/><g class="h"><path class="f" d="M371.63,264.51A31.49,31.49,0,0,1,340.13,233"/></g><line class="f" x1="370.26" y1="230.28" x2="370.26" y2="229.6"/><line class="f" x1="370.26" y1="229.6" x2="373" y2="229.6"/><line class="f" x1="373" y1="229.6" x2="373" y2="232.34"/><line class="f" x1="373" y1="232.34" x2="371.63" y2="232.34"/><line class="f" x1="286.73" y1="230.28" x2="286.73" y2="229.6"/><line class="f" x1="286.73" y1="229.6" x2="283.99" y2="229.6"/><line class="f" x1="283.99" y1="229.6" x2="283.99" y2="232.34"/><line class="f" x1="283.99" y1="232.34" x2="285.36" y2="232.34"/><line class="f" x1="285.36" y1="233.02" x2="288.1" y2="233.02"/><line class="f" x1="288.1" y1="233.02" x2="288.1" y2="230.28"/><line class="f" x1="288.1" y1="230.28" x2="285.36" y2="230.28"/><line class="f" x1="285.36" y1="230.28" x2="285.36" y2="233.02"/><line class="f" x1="316.86" y1="233.02" x2="314.12" y2="233.02"/><line class="f" x1="314.12" y1="233.02" x2="314.12" y2="230.28"/><line class="f" x1="314.12" y1="230.28" x2="316.86" y2="230.28"/><line class="f" x1="316.86" y1="230.28" x2="316.86" y2="233.02"/><line class="f" x1="288.1" y1="233.02" x2="314.12" y2="233.02"/><line class="f" x1="314.12" y1="230.28" x2="288.1" y2="230.28"/><line class="f" x1="288.1" y1="231.65" x2="314.12" y2="231.65"/><line class="f" x1="315.49" y1="230.28" x2="315.49" y2="229.6"/><line class="f" x1="315.49" y1="229.6" x2="318.23" y2="229.6"/><line class="f" x1="318.23" y1="229.6" x2="318.23" y2="232.34"/><line class="f" x1="318.23" y1="232.34" x2="316.86" y2="232.34"/><line class="f" x1="240.69" y1="149.15" x2="541.59" y2="149.15"/><line class="f" x1="368.21" y1="334.35" x2="340.82" y2="334.35"/><line class="f" x1="368.21" y1="334.35" x2="368.21" y2="306.96"/><g class="h"><path class="f" d="M340.82,334.35A27.39,27.39,0,0,1,368.21,307"/></g><line class="f" x1="368.21" y1="341.19" x2="368.21" y2="334.35"/><line class="f" x1="340.82" y1="334.35" x2="340.82" y2="341.19"/><line class="f" x1="340.82" y1="334.35" x2="339.11" y2="334.35"/><line class="f" x1="340.82" y1="341.19" x2="339.11" y2="341.19"/><line class="f" x1="369.92" y1="334.35" x2="368.21" y2="334.35"/><line class="f" x1="369.92" y1="341.19" x2="368.21" y2="341.19"/><line class="f" x1="368.21" y1="341.19" x2="361.36" y2="341.19"/><line class="f" x1="357.59" y1="341.19" x2="356.82" y2="341.19"/><line class="f" x1="353.06" y1="341.19" x2="352.29" y2="341.19"/><line class="f" x1="348.52" y1="341.19" x2="347.67" y2="341.19"/><line class="f" x1="347.67" y1="341.19" x2="340.82" y2="341.19"/><line class="f" x1="368.21" y1="334.35" x2="368.21" y2="333.49"/><line class="f" x1="368.21" y1="333.49" x2="371.63" y2="333.49"/><line class="f" x1="371.63" y1="333.49" x2="371.63" y2="334.35"/><line class="f" x1="368.21" y1="341.19" x2="368.21" y2="342.05"/><line class="f" x1="368.21" y1="342.05" x2="371.63" y2="342.05"/><line class="f" x1="371.63" y1="342.05" x2="371.63" y2="341.2"/><line class="f" x1="340.82" y1="333.49" x2="337.4" y2="333.49"/><line class="f" x1="337.4" y1="333.49" x2="337.4" y2="334.35"/><line class="f" x1="340.82" y1="341.19" x2="340.82" y2="342.05"/><line class="f" x1="340.82" y1="342.05" x2="337.4" y2="342.05"/><line class="f" x1="337.4" y1="342.05" x2="337.4" y2="341.2"/><line class="f" x1="333.97" y1="375.43" x2="333.97" y2="351.46"/><line class="f" x1="333.97" y1="375.43" x2="357.93" y2="375.43"/><g class="h"><path class="f" d="M334,351.46a24,24,0,0,1,24,24"/></g><line class="f" x1="331.58" y1="375.43" x2="333.97" y2="375.43"/><line class="f" x1="333.97" y1="351.46" x2="331.58" y2="351.46"/><line class="f" x1="333.97" y1="351.46" x2="333.97" y2="349.75"/><line class="f" x1="331.58" y1="351.46" x2="331.58" y2="349.75"/><line class="f" x1="333.97" y1="377.14" x2="333.97" y2="375.43"/><line class="f" x1="331.58" y1="377.14" x2="331.58" y2="375.43"/><line class="f" x1="331.58" y1="375.43" x2="331.58" y2="368.58"/><line class="f" x1="331.58" y1="364.82" x2="331.58" y2="364.05"/><line class="f" x1="331.58" y1="360.28" x2="331.58" y2="359.51"/><line class="f" x1="331.58" y1="358.31" x2="331.58" y2="351.46"/><line class="f" x1="333.97" y1="375.43" x2="334.83" y2="375.43"/><line class="f" x1="334.83" y1="375.43" x2="334.83" y2="378.85"/><line class="f" x1="334.83" y1="378.85" x2="333.97" y2="378.85"/><line class="f" x1="331.58" y1="375.43" x2="330.72" y2="375.43"/><line class="f" x1="330.72" y1="375.43" x2="330.72" y2="378.85"/><line class="f" x1="330.72" y1="378.85" x2="331.58" y2="378.85"/><line class="f" x1="334.83" y1="351.46" x2="334.83" y2="348.04"/><line class="f" x1="334.83" y1="348.04" x2="333.97" y2="348.04"/><line class="f" x1="331.58" y1="351.46" x2="330.72" y2="351.46"/><line class="f" x1="330.72" y1="351.46" x2="330.72" y2="348.04"/><line class="f" x1="330.72" y1="348.04" x2="331.58" y2="348.04"/><line class="f" x1="338.77" y1="236.44" x2="338.77" y2="246.71"/><line class="f" x1="338.77" y1="246.71" x2="373" y2="246.71"/><line class="f" x1="373" y1="246.71" x2="373" y2="236.44"/><line class="f" x1="420.92" y1="236.44" x2="420.92" y2="246.71"/><line class="f" x1="420.92" y1="246.71" x2="455.16" y2="246.71"/><line class="f" x1="455.16" y1="246.71" x2="455.16" y2="236.44"/><line class="f" x1="460.98" y1="405.89" x2="460.98" y2="385.35"/><line class="f" x1="453.13" y1="393.21" x2="448.29" y2="398.05"/><line class="f" x1="448.29" y1="393.21" x2="453.13" y2="398.05"/><line class="f" x1="450.71" y1="399.05" x2="450.71" y2="392.2"/><line class="f" x1="454.13" y1="395.63" x2="447.28" y2="395.63"/><line class="f" x1="460.98" y1="385.36" x2="440.44" y2="385.36"/><line class="f" x1="461.83" y1="387.07" x2="480.66" y2="387.07"/><line class="f" x1="480.66" y1="387.07" x2="480.66" y2="404.18"/><line class="f" x1="480.66" y1="404.18" x2="461.83" y2="404.18"/><line class="f" x1="461.83" y1="404.18" x2="461.83" y2="387.07"/><line class="f" x1="460.98" y1="385.36" x2="481.52" y2="385.36"/><line class="f" x1="460.98" y1="405.89" x2="481.52" y2="405.89"/><line class="f" x1="463.54" y1="388.78" x2="478.95" y2="388.78"/><line class="f" x1="478.95" y1="388.78" x2="478.95" y2="400.76"/><line class="f" x1="478.95" y1="400.76" x2="463.54" y2="400.76"/><line class="f" x1="463.54" y1="400.76" x2="463.54" y2="388.78"/><g class="h"><path class="f" d="M471.93,397.34a.69.69,0,1,0-1.37,0,.69.69,0,0,0,1.37,0"/></g><line class="f" x1="481.51" y1="405.89" x2="481.51" y2="385.35"/><line class="f" x1="481.51" y1="385.36" x2="502.05" y2="385.36"/><line class="f" x1="502.05" y1="385.36" x2="502.05" y2="405.9"/><line class="f" x1="502.05" y1="405.89" x2="481.51" y2="405.89"/><line class="f" x1="516.77" y1="385.36" x2="516.77" y2="364.82"/><line class="f" x1="516.77" y1="364.82" x2="537.66" y2="364.82"/><line class="f" x1="537.66" y1="364.82" x2="537.66" y2="385.36"/><line class="f" x1="537.66" y1="385.36" x2="516.78" y2="385.36"/><g class="h"><path class="f" d="M533,375.09a6,6,0,1,0-6,6,6,6,0,0,0,6-6"/><path class="f" d="M532,375.09a5,5,0,1,0-5,5,5,5,0,0,0,5-5"/><path class="f" d="M535.44,359.59a3.36,3.36,0,1,0-3.35,3.36,3.35,3.35,0,0,0,3.35-3.36"/></g><line class="f" x1="537.31" y1="364.82" x2="516.77" y2="364.82"/><line class="f" x1="516.77" y1="364.82" x2="516.77" y2="344.28"/><line class="f" x1="516.77" y1="344.28" x2="537.31" y2="344.28"/><g class="h"><path class="f" d="M525.36,359.59A3.36,3.36,0,1,0,522,363a3.35,3.35,0,0,0,3.36-3.36"/><path class="f" d="M525.36,349.5a3.36,3.36,0,1,0-3.36,3.36,3.35,3.35,0,0,0,3.36-3.36"/></g><line class="f" x1="515.84" y1="347.08" x2="515.84" y2="362.02"/><line class="f" x1="440.09" y1="406.24" x2="440.09" y2="385.36"/><line class="f" x1="440.09" y1="385.36" x2="516.78" y2="385.36"/><line class="f" x1="516.77" y1="385.36" x2="516.77" y2="334.01"/><line class="f" x1="516.77" y1="334.01" x2="537.66" y2="334.01"/><line class="f" x1="537.66" y1="334.01" x2="537.66" y2="406.24"/><line class="f" x1="537.66" y1="406.24" x2="440.09" y2="406.24"/><line class="f" x1="545.87" y1="375.09" x2="545.87" y2="354.55"/><line class="f" x1="545.87" y1="354.55" x2="545.87" y2="354.55"/><line class="f" x1="545.87" y1="375.09" x2="545.87" y2="375.09"/><line class="f" x1="545.87" y1="323.74" x2="545.87" y2="406.24"/><line class="f" x1="545.87" y1="406.24" x2="545.87" y2="406.24"/><line class="f" x1="545.87" y1="323.74" x2="545.87" y2="323.74"/><line class="f" x1="413.73" y1="380.56" x2="416.13" y2="380.56"/><line class="f" x1="413.73" y1="349.75" x2="416.13" y2="349.75"/><line class="f" x1="405.86" y1="410.52" x2="405.86" y2="414.45"/><line class="f" x1="405.86" y1="410.52" x2="407.57" y2="410.52"/><line class="f" x1="416.13" y1="378.85" x2="416.13" y2="351.46"/><line class="f" x1="416.13" y1="378.85" x2="443.52" y2="378.85"/><g class="h"><path class="f" d="M416.13,351.46a27.4,27.4,0,0,1,27.39,27.39"/></g><line class="f" x1="413.73" y1="378.85" x2="416.13" y2="378.85"/><line class="f" x1="416.13" y1="351.46" x2="413.74" y2="351.46"/><line class="f" x1="416.13" y1="351.46" x2="416.13" y2="349.75"/><line class="f" x1="413.73" y1="351.46" x2="413.73" y2="349.75"/><line class="f" x1="416.13" y1="380.56" x2="416.13" y2="378.85"/><line class="f" x1="413.73" y1="380.56" x2="413.73" y2="378.85"/><line class="f" x1="413.73" y1="378.85" x2="413.73" y2="372"/><line class="f" x1="413.73" y1="368.24" x2="413.73" y2="367.47"/><line class="f" x1="413.73" y1="363.7" x2="413.73" y2="362.93"/><line class="f" x1="413.73" y1="359.17" x2="413.73" y2="358.31"/><line class="f" x1="413.73" y1="358.31" x2="413.73" y2="351.46"/><line class="f" x1="416.13" y1="378.85" x2="416.99" y2="378.85"/><line class="f" x1="416.99" y1="378.85" x2="416.99" y2="382.27"/><line class="f" x1="416.99" y1="382.27" x2="416.13" y2="382.27"/><line class="f" x1="413.73" y1="378.85" x2="412.88" y2="378.85"/><line class="f" x1="412.88" y1="378.85" x2="412.88" y2="382.27"/><line class="f" x1="412.88" y1="382.27" x2="413.73" y2="382.27"/><line class="f" x1="416.99" y1="351.46" x2="416.99" y2="348.04"/><line class="f" x1="416.99" y1="348.04" x2="416.13" y2="348.04"/><line class="f" x1="413.73" y1="351.46" x2="412.88" y2="351.46"/><line class="f" x1="412.88" y1="351.46" x2="412.88" y2="348.04"/><line class="f" x1="412.88" y1="348.04" x2="413.73" y2="348.04"/><line class="f" x1="272.35" y1="401.1" x2="331.58" y2="401.1"/><line class="f" x1="416.13" y1="389.12" x2="436.67" y2="389.12"/><line class="f" x1="436.67" y1="389.12" x2="436.67" y2="406.24"/><line class="f" x1="436.67" y1="406.24" x2="416.13" y2="406.24"/><line class="f" x1="416.13" y1="406.24" x2="416.13" y2="389.12"/><line class="f" x1="416.13" y1="385.7" x2="440.09" y2="385.7"/><line class="f" x1="440.09" y1="385.7" x2="440.09" y2="406.24"/><line class="f" x1="333.97" y1="406.24" x2="369.92" y2="406.24"/><line class="f" x1="331.58" y1="406.24" x2="331.58" y2="377.14"/><line class="f" x1="333.97" y1="406.24" x2="333.97" y2="377.14"/><line class="f" x1="413.73" y1="406.24" x2="413.73" y2="380.56"/><line class="f" x1="413.73" y1="349.75" x2="413.73" y2="341.19"/><line class="f" x1="416.13" y1="385.7" x2="416.13" y2="380.56"/><line class="f" x1="416.13" y1="349.75" x2="416.13" y2="338.8"/><line class="f" x1="400.73" y1="338.8" x2="416.13" y2="338.8"/><line class="f" x1="369.92" y1="341.19" x2="413.73" y2="341.19"/><line class="f" x1="407.57" y1="406.24" x2="413.74" y2="406.24"/><line class="f" x1="371.63" y1="410.52" x2="371.63" y2="414.45"/><line class="f" x1="405.86" y1="410.52" x2="407.57" y2="410.52"/><line class="f" x1="407.57" y1="410.52" x2="407.57" y2="406.24"/><line class="f" x1="371.63" y1="410.52" x2="369.92" y2="410.52"/><line class="f" x1="369.92" y1="410.52" x2="369.92" y2="406.24"/><g class="h"><path class="f" d="M251.81,378a.86.86,0,1,0-.85.85.85.85,0,0,0,.85-.85"/></g><line class="f" x1="273.21" y1="383.13" x2="273.21" y2="342.05"/><line class="f" x1="273.21" y1="342.05" x2="245.82" y2="342.05"/><line class="f" x1="245.82" y1="342.05" x2="245.82" y2="383.13"/><line class="f" x1="245.82" y1="383.13" x2="273.21" y2="383.13"/><line class="f" x1="271.5" y1="378" x2="271.5" y2="347.19"/><line class="f" x1="268.07" y1="343.76" x2="250.96" y2="343.76"/><line class="f" x1="247.54" y1="347.19" x2="247.54" y2="377.99"/><line class="f" x1="250.96" y1="381.42" x2="268.07" y2="381.42"/><g class="h"><path class="f" d="M271.5,378a3.43,3.43,0,0,1-3.42,3.42"/><path class="f" d="M268.07,343.76a3.44,3.44,0,0,1,3.43,3.43"/><path class="f" d="M251,381.42a3.43,3.43,0,0,1-3.42-3.43"/><path class="f" d="M247.54,347.19a3.43,3.43,0,0,1,3.42-3.43"/></g><line class="f" x1="268.93" y1="387.41" x2="268.93" y2="406.24"/><line class="f" x1="268.93" y1="406.24" x2="244.97" y2="406.24"/><line class="f" x1="244.97" y1="406.24" x2="244.97" y2="387.41"/><line class="f" x1="244.97" y1="387.41" x2="268.93" y2="387.41"/><line class="f" x1="244.97" y1="383.99" x2="272.35" y2="383.99"/><line class="f" x1="272.35" y1="383.99" x2="272.35" y2="387.41"/><line class="f" x1="272.35" y1="387.41" x2="272.35" y2="406.24"/><line class="f" x1="272.35" y1="406.24" x2="331.58" y2="406.24"/><line class="f" x1="268.93" y1="387.41" x2="272.35" y2="387.41"/><line class="f" x1="244.97" y1="383.99" x2="244.97" y2="341.19"/><line class="f" x1="416.13" y1="389.12" x2="416.13" y2="385.7"/><line class="f" x1="278.86" y1="342.05" x2="278.86" y2="345.47"/><line class="f" x1="278.86" y1="345.47" x2="299.4" y2="345.47"/><line class="f" x1="299.4" y1="345.47" x2="299.4" y2="342.05"/><line class="f" x1="299.4" y1="342.05" x2="298.37" y2="342.05"/><line class="f" x1="298.37" y1="342.05" x2="298.37" y2="344.45"/><line class="f" x1="298.37" y1="344.45" x2="279.89" y2="344.45"/><line class="f" x1="279.89" y1="344.45" x2="279.89" y2="342.05"/><line class="f" x1="279.89" y1="342.05" x2="278.86" y2="342.05"/><line class="f" x1="278.86" y1="342.05" x2="278.86" y2="345.47"/><line class="f" x1="299.4" y1="342.05" x2="299.4" y2="345.47"/><line class="f" x1="279.89" y1="342.05" x2="279.89" y2="344.45"/><line class="f" x1="298.37" y1="342.05" x2="298.37" y2="344.45"/><line class="f" x1="278.86" y1="345.47" x2="299.4" y2="345.47"/><line class="f" x1="278.86" y1="344.45" x2="299.4" y2="344.45"/><line class="f" x1="278.86" y1="342.05" x2="279.89" y2="342.05"/><line class="f" x1="298.37" y1="342.05" x2="299.4" y2="342.05"/><line class="f" x1="287.42" y1="238.16" x2="314.8" y2="238.16"/><line class="f" x1="314.8" y1="238.16" x2="314.8" y2="240.31"/><line class="f" x1="314.8" y1="240.31" x2="287.42" y2="240.31"/><line class="f" x1="287.42" y1="240.31" x2="287.42" y2="238.16"/><g class="h"><path class="f" d="M319.94,239.23a1.72,1.72,0,1,0-1.71,1.72,1.72,1.72,0,0,0,1.71-1.72"/></g><line class="f" x1="456.87" y1="238.16" x2="504.79" y2="238.16"/><line class="f" x1="504.79" y1="238.16" x2="504.79" y2="241.58"/><line class="f" x1="504.79" y1="241.58" x2="456.87" y2="241.58"/><line class="f" x1="456.87" y1="241.58" x2="456.87" y2="238.16"/><g class="h"><path class="f" d="M509.93,239.87a1.71,1.71,0,1,0-1.71,1.71,1.71,1.71,0,0,0,1.71-1.71"/></g><line class="f" x1="236.75" y1="411.03" x2="236.75" y2="411.03"/><line class="f" x1="236.75" y1="411.03" x2="236.75" y2="411.03"/><line class="f" x1="371.29" y1="222.75" x2="364.44" y2="222.75"/><line class="f" x1="360.67" y1="222.75" x2="359.9" y2="222.75"/><line class="f" x1="356.14" y1="222.75" x2="355.37" y2="222.75"/><line class="f" x1="351.6" y1="222.75" x2="347.32" y2="222.75"/><line class="f" x1="347.32" y1="222.75" x2="340.48" y2="222.75"/><line class="f" x1="453.44" y1="222.75" x2="446.6" y2="222.75"/><line class="f" x1="442.83" y1="222.75" x2="442.06" y2="222.75"/><line class="f" x1="438.3" y1="222.75" x2="437.53" y2="222.75"/><line class="f" x1="433.76" y1="222.75" x2="429.48" y2="222.75"/><line class="f" x1="429.48" y1="222.75" x2="422.64" y2="222.75"/><rect class="d" x="373" y="341.2" width="40.72" height="5.48"/><line class="f" x1="373" y1="341.19" x2="373" y2="346.67"/><line class="f" x1="413.72" y1="341.19" x2="373" y2="341.19"/><line class="f" x1="413.72" y1="346.67" x2="413.72" y2="341.19"/><line class="f" x1="373" y1="346.67" x2="413.72" y2="346.67"/><rect class="d" x="480.84" y="277.52" width="17.12" height="27.39"/><line class="f" x1="480.84" y1="277.52" x2="480.84" y2="304.91"/><line class="f" x1="497.95" y1="277.52" x2="480.84" y2="277.52"/><line class="f" x1="497.95" y1="304.91" x2="497.95" y2="277.52"/><line class="f" x1="480.84" y1="304.91" x2="497.95" y2="304.91"/><rect class="d" x="272.35" y="401.1" width="59.22" height="5.14"/><line class="f" x1="272.35" y1="401.1" x2="272.35" y2="406.24"/><line class="f" x1="331.58" y1="401.1" x2="272.35" y2="401.1"/><line class="f" x1="331.58" y1="406.24" x2="331.58" y2="401.1"/><line class="f" x1="272.35" y1="406.24" x2="331.58" y2="406.24"/><rect class="d" x="400.73" y="236.44" width="17.12" height="102.35"/><line class="f" x1="400.73" y1="236.44" x2="400.73" y2="338.8"/><line class="f" x1="417.84" y1="236.44" x2="400.73" y2="236.44"/><line class="f" x1="417.84" y1="338.8" x2="417.84" y2="236.44"/><line class="f" x1="400.73" y1="338.8" x2="417.84" y2="338.8"/><rect class="d" x="278.86" y="342.05" width="1.03" height="2.4"/><line class="f" x1="278.86" y1="342.05" x2="278.86" y2="344.45"/><line class="f" x1="279.89" y1="342.05" x2="278.86" y2="342.05"/><line class="f" x1="279.89" y1="344.45" x2="279.89" y2="342.05"/><line class="f" x1="278.86" y1="344.45" x2="279.89" y2="344.45"/><rect class="d" x="278.86" y="344.45" width="20.54" height="1.03"/><line class="f" x1="299.4" y1="344.45" x2="278.86" y2="344.45"/><line class="f" x1="299.4" y1="345.47" x2="299.4" y2="344.45"/><line class="f" x1="278.86" y1="345.47" x2="299.4" y2="345.47"/><line class="f" x1="278.86" y1="344.45" x2="278.86" y2="345.47"/><rect class="d" x="298.37" y="342.05" width="1.03" height="2.4"/><line class="f" x1="298.37" y1="342.05" x2="298.37" y2="344.45"/><line class="f" x1="299.4" y1="342.05" x2="298.37" y2="342.05"/><line class="f" x1="299.4" y1="344.45" x2="299.4" y2="342.05"/><line class="f" x1="298.37" y1="344.45" x2="299.4" y2="344.45"/><rect class="d" x="287.42" y="238.16" width="27.39" height="2.16"/><line class="f" x1="314.8" y1="238.16" x2="287.42" y2="238.16"/><line class="f" x1="314.8" y1="240.31" x2="314.8" y2="238.16"/><line class="f" x1="287.42" y1="240.31" x2="314.8" y2="240.31"/><line class="f" x1="287.42" y1="238.16" x2="287.42" y2="240.31"/><polygon class="i" points="319.94 239.23 319.44 240.44 318.23 240.94 317.02 240.44 316.51 239.23 317.02 238.02 318.23 237.52 319.44 238.02 319.94 239.23"/><g class="h"><path class="f" d="M319.94,239.23a1.72,1.72,0,1,1-3.43,0"/><path class="f" d="M316.51,239.23a1.72,1.72,0,0,1,3.43,0"/></g><rect class="d" x="456.87" y="238.16" width="47.92" height="3.42"/><line class="f" x1="504.79" y1="238.16" x2="456.87" y2="238.16"/><line class="f" x1="504.79" y1="241.58" x2="504.79" y2="238.16"/><line class="f" x1="456.87" y1="241.58" x2="504.79" y2="241.58"/><line class="f" x1="456.87" y1="238.16" x2="456.87" y2="241.58"/><polygon class="i" points="509.93 239.87 509.43 241.08 508.22 241.58 507 241.08 506.51 239.87 507 238.66 508.22 238.16 509.43 238.66 509.93 239.87"/><g class="h"><path class="f" d="M509.93,239.87a1.71,1.71,0,1,1-3.42,0"/><path class="f" d="M506.51,239.87a1.71,1.71,0,1,1,3.42,0"/></g><polygon class="i" points="244.97 255.76 244.97 317.38 255.24 317.38 306.59 317.38 309.21 316.86 311.43 315.38 312.91 313.15 313.43 310.54 313.43 262.61 312.91 259.99 311.43 257.77 309.21 256.29 306.59 255.76 244.97 255.76"/><rect class="d" x="244.97" y="243.78" width="10.27" height="11.98"/><rect class="d" x="244.97" y="317.38" width="10.27" height="11.98"/><line class="f" x1="256.35" y1="288.51" x2="253.39" y2="289.33"/><line class="f" x1="256.35" y1="259.77" x2="253.39" y2="260.59"/><line class="f" x1="313.43" y1="310.54" x2="313.43" y2="262.61"/><line class="f" x1="306.59" y1="255.76" x2="244.97" y2="255.76"/><line class="f" x1="244.97" y1="255.76" x2="244.97" y2="317.38"/><line class="f" x1="244.97" y1="317.38" x2="306.59" y2="317.38"/><line class="f" x1="244.97" y1="255.76" x2="244.97" y2="243.78"/><line class="f" x1="244.97" y1="243.78" x2="255.24" y2="243.78"/><line class="f" x1="255.24" y1="243.78" x2="255.24" y2="255.76"/><line class="f" x1="255.24" y1="255.76" x2="244.97" y2="255.76"/><line class="f" x1="244.97" y1="329.36" x2="244.97" y2="317.38"/><line class="f" x1="244.97" y1="317.38" x2="255.24" y2="317.38"/><line class="f" x1="255.24" y1="317.38" x2="255.24" y2="329.36"/><line class="f" x1="255.24" y1="329.36" x2="244.97" y2="329.36"/><line class="f" x1="267.75" y1="255.76" x2="267.75" y2="317.38"/><line class="f" x1="272.88" y1="255.76" x2="272.88" y2="317.38"/><g class="h"><path class="f" d="M262.56,284a96.31,96.31,0,0,1-.34-22.32"/><path class="f" d="M260.33,259.44h.1a1.83,1.83,0,0,1,1.83,1.83,1.67,1.67,0,0,1,0,.39"/><path class="f" d="M256.35,259.77a14.66,14.66,0,0,1,3.17-.35l.81,0"/><path class="f" d="M248.71,259.57c.82,0,1.65-.06,2.47-.06,1.73,0,3.45.09,5.17.26"/><path class="f" d="M248.21,260s0-.06,0-.09a.4.4,0,0,1,.39-.39l.12,0"/><path class="f" d="M248.21,260c.38,4.89.57,9.81.57,14.72q0,4.65-.23,9.3"/><path class="f" d="M249.78,285.15a1,1,0,0,1-.3.05,1,1,0,0,1-.95-.95,1.23,1.23,0,0,1,0-.2"/><path class="f" d="M249.78,285.15a45.52,45.52,0,0,1,11.81-.18"/><path class="f" d="M262.56,284a.85.85,0,0,1,0,.23.79.79,0,0,1-.79.79l-.21,0"/><path class="f" d="M306.59,255.76a6.85,6.85,0,0,1,6.84,6.85"/><path class="f" d="M313.43,310.54a6.84,6.84,0,0,1-6.84,6.84"/><path class="f" d="M262.56,312.72a96.23,96.23,0,0,1-.34-22.31"/><path class="f" d="M260.33,288.19h.1a1.83,1.83,0,0,1,1.83,1.84,1.72,1.72,0,0,1,0,.39"/><path class="f" d="M256.35,288.51a14.66,14.66,0,0,1,3.17-.35l.81,0"/><path class="f" d="M248.71,288.32c.82,0,1.65-.06,2.47-.06,1.73,0,3.45.08,5.17.25"/><path class="f" d="M248.21,288.77s0,0,0-.08a.39.39,0,0,1,.39-.39.25.25,0,0,1,.12,0"/><path class="f" d="M248.21,288.77q.57,7.35.57,14.72,0,4.65-.23,9.3"/><path class="f" d="M249.78,313.89a.77.77,0,0,1-.3.06,1,1,0,0,1-.95-1,1.5,1.5,0,0,1,0-.2"/><path class="f" d="M249.78,313.89a47,47,0,0,1,6.59-.47,45.68,45.68,0,0,1,5.22.3"/><path class="f" d="M262.56,312.72a1,1,0,0,1,0,.24.79.79,0,0,1-.79.79l-.21,0"/></g><polygon class="i" points="410.51 288.51 411.88 286.82 412.61 284.7 412.61 282.43 411.88 280.31 410.51 278.62 410.51 267.95 408.61 267.95 406.71 275.76 406.71 278.03 405.67 281.66 405.67 285.47 406.71 289.09 406.71 291.37 408.61 299.17 410.51 299.17 410.51 288.51"/><line class="f" x1="410.51" y1="299.17" x2="410.51" y2="288.51"/><line class="f" x1="408.61" y1="299.17" x2="410.51" y2="299.17"/><line class="f" x1="406.71" y1="291.37" x2="408.61" y2="299.17"/><line class="f" x1="406.71" y1="289.09" x2="406.71" y2="291.37"/><line class="f" x1="405.67" y1="285.47" x2="406.71" y2="289.09"/><line class="f" x1="405.67" y1="281.66" x2="405.67" y2="285.47"/><line class="f" x1="406.71" y1="278.03" x2="405.67" y2="281.66"/><line class="f" x1="406.71" y1="275.76" x2="406.71" y2="278.03"/><line class="f" x1="408.61" y1="267.95" x2="406.71" y2="275.76"/><line class="f" x1="410.51" y1="267.95" x2="408.61" y2="267.95"/><line class="f" x1="410.51" y1="278.62" x2="410.51" y2="267.95"/><line class="f" x1="411.88" y1="280.31" x2="410.51" y2="278.62"/><line class="f" x1="412.61" y1="282.43" x2="411.88" y2="280.31"/><line class="f" x1="412.61" y1="284.7" x2="412.61" y2="282.43"/><line class="f" x1="411.88" y1="286.82" x2="412.61" y2="284.7"/><line class="f" x1="410.51" y1="288.51" x2="411.88" y2="286.82"/><line class="f" x1="410.51" y1="299.17" x2="410.51" y2="267.95"/><line class="f" x1="406.71" y1="275.76" x2="406.71" y2="291.37"/><line class="f" x1="408.61" y1="299.17" x2="410.51" y2="299.17"/><line class="f" x1="409.75" y1="270.03" x2="409.75" y2="272.12"/><line class="f" x1="409.75" y1="272.12" x2="409.27" y2="272.12"/><line class="f" x1="409.27" y1="272.12" x2="409.27" y2="270.03"/><line class="f" x1="409.27" y1="270.03" x2="409.75" y2="270.03"/><line class="f" x1="409.75" y1="272.64" x2="409.75" y2="274.72"/><line class="f" x1="409.75" y1="274.72" x2="409.27" y2="274.72"/><line class="f" x1="409.27" y1="274.72" x2="409.27" y2="272.64"/><line class="f" x1="409.27" y1="272.64" x2="409.75" y2="272.64"/><line class="f" x1="408.61" y1="299.17" x2="408.61" y2="267.95"/><line class="f" x1="409.27" y1="275.24" x2="409.75" y2="275.24"/><line class="f" x1="409.75" y1="275.24" x2="409.75" y2="276.28"/><line class="f" x1="409.75" y1="276.28" x2="409.27" y2="276.28"/><line class="f" x1="409.27" y1="276.28" x2="409.27" y2="275.24"/><g class="h"><path class="f" d="M410.51,278.62a6.66,6.66,0,0,1,0,9.89"/></g><polygon class="i" points="505.49 270.74 504.99 271.11 504.8 271.7 504.8 309.02 504.99 309.63 505.49 310.04 505 310.25 504.8 310.73 504.8 311.75 505.26 313.47 506.51 314.72 508.22 315.18 533.21 315.18 533.7 314.98 533.9 314.49 533.9 243.98 533.7 243.49 533.21 243.29 505.49 243.29 505.03 243.44 504.77 243.84 504.8 244.32 504.8 269.65 504.86 270.37 505.49 270.74"/><polygon class="i" points="482.55 270.68 479.93 270.15 477.71 268.67 476.22 266.45 475.7 263.83 475.7 250.14 476.22 247.52 477.71 245.3 479.93 243.81 482.55 243.29 503.77 243.29 504.5 243.59 504.8 244.32 504.8 269.65 504.5 270.38 503.77 270.68 482.55 270.68"/><g class="h"><path class="f" d="M482.55,270.68a6.85,6.85,0,0,1-6.85-6.85"/></g><line class="f" x1="475.7" y1="263.83" x2="475.7" y2="250.14"/><g class="h"><path class="f" d="M475.7,250.14a6.85,6.85,0,0,1,6.85-6.85"/></g><line class="f" x1="482.55" y1="243.29" x2="503.77" y2="243.29"/><g class="h"><path class="f" d="M503.77,243.29a1,1,0,0,1,1,1"/></g><line class="f" x1="504.8" y1="244.32" x2="504.8" y2="269.65"/><g class="h"><path class="f" d="M504.8,269.65a1,1,0,0,1-1,1"/></g><line class="f" x1="503.77" y1="270.68" x2="482.55" y2="270.68"/><line class="f" x1="504.8" y1="310.73" x2="504.8" y2="311.76"/><line class="f" x1="508.22" y1="315.18" x2="533.21" y2="315.18"/><line class="f" x1="533.9" y1="314.49" x2="533.9" y2="310.73"/><line class="f" x1="533.21" y1="310.04" x2="505.48" y2="310.04"/><line class="f" x1="533.9" y1="310.73" x2="533.9" y2="270.68"/><line class="f" x1="533.9" y1="270.68" x2="531.5" y2="270.68"/><line class="f" x1="504.8" y1="271.7" x2="504.8" y2="309.02"/><line class="f" x1="505.83" y1="310.04" x2="522.99" y2="310.04"/><line class="f" x1="522.99" y1="270.68" x2="505.83" y2="270.68"/><line class="f" x1="531.5" y1="310.04" x2="525.05" y2="310.04"/><line class="f" x1="525.05" y1="270.68" x2="531.5" y2="270.68"/><line class="f" x1="504.8" y1="247.74" x2="504.8" y2="243.98"/><line class="f" x1="505.49" y1="243.29" x2="533.21" y2="243.29"/><line class="f" x1="533.9" y1="243.98" x2="533.9" y2="247.74"/><line class="f" x1="533.9" y1="247.74" x2="533.9" y2="270.68"/><line class="f" x1="533.9" y1="270.68" x2="531.5" y2="270.68"/><line class="f" x1="504.8" y1="269.65" x2="504.8" y2="249.45"/><line class="f" x1="522.99" y1="270.68" x2="505.83" y2="270.68"/><line class="f" x1="522.99" y1="270.68" x2="531.5" y2="270.68"/><line class="f" x1="475.7" y1="263.83" x2="475.7" y2="250.14"/><line class="f" x1="482.55" y1="243.29" x2="503.77" y2="243.29"/><line class="f" x1="504.8" y1="244.32" x2="504.8" y2="269.65"/><line class="f" x1="503.77" y1="270.68" x2="482.55" y2="270.68"/><line class="f" x1="532.53" y1="269.65" x2="532.53" y2="244.32"/><line class="f" x1="532.53" y1="271.7" x2="532.53" y2="309.02"/><g class="h"><path class="f" d="M533.9,314.49a.69.69,0,0,1-.69.69"/><path class="f" d="M533.21,310a.69.69,0,0,1,.69.69"/><path class="f" d="M504.8,310.73a.69.69,0,0,1,.68-.69"/><path class="f" d="M505.83,310a1,1,0,0,1-1-1"/><path class="f" d="M504.8,271.7a1,1,0,0,1,1-1"/><path class="f" d="M504.8,244a.69.69,0,0,1,.68-.69"/><path class="f" d="M533.21,243.29a.69.69,0,0,1,.69.69"/><path class="f" d="M505.83,270.68a1,1,0,0,1-1-1"/><path class="f" d="M503.77,243.29a1,1,0,0,1,1,1"/><path class="f" d="M504.8,269.65a1,1,0,0,1-1,1"/></g><line class="f" x1="532.53" y1="244.32" x2="509.21" y2="244.32"/><g class="h"><path class="f" d="M513.92,245.56a19.39,19.39,0,0,1,15.32,19,19.17,19.17,0,0,1-.7,5.16"/><path class="f" d="M527.74,309a116.82,116.82,0,0,1,0-37.32"/><path class="f" d="M482.55,270.68a6.85,6.85,0,0,1-6.85-6.85"/><path class="f" d="M475.7,250.14a6.85,6.85,0,0,1,6.85-6.85"/><path class="f" d="M508.22,315.18a3.43,3.43,0,0,1-3.42-3.43"/></g><polygon class="i" points="458.74 330.52 460.91 327.68 463.74 325.49 467.04 324.12 470.57 323.64 466.75 317.01 465.49 315.75 463.78 315.3 462.07 315.76 456.16 319.2 454.91 320.45 454.45 322.17 454.91 323.88 458.74 330.52"/><polygon class="i" points="470.62 351.08 467.08 350.62 463.78 349.26 460.94 347.08 458.76 344.24 454.95 350.89 454.5 352.61 454.96 354.32 456.21 355.58 462.14 359 463.85 359.45 465.56 358.99 466.81 357.74 470.62 351.08"/><polygon class="i" points="482.43 330.48 483.8 333.79 484.27 337.35 483.81 340.9 482.45 344.21 490.09 344.2 491.8 343.74 493.05 342.48 493.51 340.76 493.5 333.9 493.04 332.18 491.78 330.93 490.07 330.47 482.43 330.48"/><polygon class="i" points="470.57 323.64 467.04 324.12 463.74 325.49 460.91 327.68 458.74 330.52 457.38 333.83 456.92 337.38 457.39 340.94 458.76 344.24 460.94 347.08 463.78 349.26 467.08 350.62 470.62 351.08 474.15 350.61 477.45 349.24 480.28 347.05 482.45 344.21 483.81 340.9 484.27 337.34 483.8 333.79 482.43 330.48 480.25 327.64 477.41 325.47 474.11 324.11 470.57 323.64"/><line class="f" x1="474.11" y1="324.11" x2="470.57" y2="323.64"/><line class="f" x1="477.41" y1="325.47" x2="474.11" y2="324.11"/><line class="f" x1="480.25" y1="327.65" x2="477.41" y2="325.47"/><line class="f" x1="482.43" y1="330.48" x2="480.25" y2="327.65"/><line class="f" x1="483.8" y1="333.79" x2="482.43" y2="330.48"/><line class="f" x1="484.27" y1="337.34" x2="483.8" y2="333.8"/><line class="f" x1="483.81" y1="340.9" x2="484.27" y2="337.34"/><line class="f" x1="482.45" y1="344.21" x2="483.81" y2="340.9"/><line class="f" x1="480.28" y1="347.05" x2="482.45" y2="344.21"/><line class="f" x1="477.45" y1="349.24" x2="480.28" y2="347.05"/><line class="f" x1="474.16" y1="350.61" x2="477.45" y2="349.24"/><line class="f" x1="470.62" y1="351.08" x2="474.16" y2="350.61"/><line class="f" x1="467.08" y1="350.62" x2="470.62" y2="351.09"/><line class="f" x1="463.78" y1="349.26" x2="467.08" y2="350.62"/><line class="f" x1="460.94" y1="347.08" x2="463.78" y2="349.26"/><line class="f" x1="458.76" y1="344.24" x2="460.94" y2="347.08"/><line class="f" x1="457.39" y1="340.94" x2="458.76" y2="344.24"/><line class="f" x1="456.92" y1="337.38" x2="457.39" y2="340.93"/><line class="f" x1="457.38" y1="333.83" x2="456.92" y2="337.38"/><line class="f" x1="458.74" y1="330.52" x2="457.38" y2="333.83"/><line class="f" x1="460.91" y1="327.68" x2="458.74" y2="330.52"/><line class="f" x1="463.74" y1="325.49" x2="460.91" y2="327.68"/><line class="f" x1="467.04" y1="324.12" x2="463.74" y2="325.49"/><line class="f" x1="470.57" y1="323.64" x2="467.04" y2="324.12"/><g class="h"><path class="f" d="M484.27,337.34a13.68,13.68,0,1,1-27.35,0"/><path class="f" d="M456.92,337.38a13.68,13.68,0,1,1,27.35,0"/></g><line class="f" x1="457.01" y1="320.68" x2="462.93" y2="317.24"/><line class="f" x1="466.74" y1="317.01" x2="470.57" y2="323.64"/><line class="f" x1="456.16" y1="319.2" x2="462.07" y2="315.76"/><line class="f" x1="458.74" y1="330.52" x2="454.91" y2="323.88"/><line class="f" x1="462.99" y1="357.51" x2="457.06" y2="354.09"/><line class="f" x1="454.95" y1="350.89" x2="458.76" y2="344.24"/><line class="f" x1="462.14" y1="359" x2="456.21" y2="355.58"/><line class="f" x1="470.62" y1="351.08" x2="466.81" y2="357.74"/><line class="f" x1="491.78" y1="333.9" x2="491.8" y2="340.76"/><line class="f" x1="490.09" y1="344.2" x2="482.45" y2="344.21"/><line class="f" x1="493.5" y1="333.9" x2="493.51" y2="340.76"/><line class="f" x1="482.43" y1="330.48" x2="490.07" y2="330.47"/><g class="h"><path class="f" d="M462.93,317.24a1.69,1.69,0,0,1,.85-.23,1.72,1.72,0,0,1,1.49.85"/><path class="f" d="M456.39,323a1.69,1.69,0,0,1-.23-.85,1.75,1.75,0,0,1,.85-1.49"/><path class="f" d="M462.08,315.76a3.26,3.26,0,0,1,1.7-.46,3.41,3.41,0,0,1,3,1.71"/><path class="f" d="M454.91,323.88a3.53,3.53,0,0,1-.46-1.71,3.43,3.43,0,0,1,1.71-3"/><path class="f" d="M457.06,354.09a1.71,1.71,0,0,1-.85-1.49,1.68,1.68,0,0,1,.22-.85"/><path class="f" d="M465.33,356.88a1.71,1.71,0,0,1-2.34.63"/><path class="f" d="M456.21,355.58a3.44,3.44,0,0,1-1.71-3,3.48,3.48,0,0,1,.45-1.72"/><path class="f" d="M466.81,357.74a3.41,3.41,0,0,1-4.67,1.26"/><path class="f" d="M491.8,340.76h0a1.72,1.72,0,0,1-1.71,1.72"/><path class="f" d="M490.07,332.19a1.72,1.72,0,0,1,1.72,1.71"/><path class="f" d="M493.5,340.76a3.43,3.43,0,0,1-3.41,3.44"/><path class="f" d="M490.07,330.47h0a3.42,3.42,0,0,1,3.42,3.43"/></g><polygon class="i" points="324.05 401.1 306.24 401.1 305.88 400.95 305.73 400.59 305.73 386.55 305.88 386.19 306.24 386.04 324.05 386.04 324.41 386.19 324.56 386.55 324.56 400.59 324.41 400.95 324.05 401.1"/><line class="f" x1="324.05" y1="401.1" x2="306.24" y2="401.1"/><g class="h"><path class="f" d="M306.24,401.1a.51.51,0,0,1-.51-.51"/></g><line class="f" x1="305.73" y1="400.59" x2="305.73" y2="386.55"/><g class="h"><path class="f" d="M305.73,386.55a.51.51,0,0,1,.51-.51"/></g><line class="f" x1="306.24" y1="386.04" x2="324.05" y2="386.04"/><g class="h"><path class="f" d="M324.05,386a.51.51,0,0,1,.51.51"/></g><line class="f" x1="324.56" y1="386.55" x2="324.56" y2="400.59"/><g class="h"><path class="f" d="M324.56,400.59a.51.51,0,0,1-.51.51"/></g><line class="f" x1="323.02" y1="397.34" x2="307.27" y2="397.34"/><line class="f" x1="306.76" y1="396.82" x2="306.76" y2="387.58"/><line class="f" x1="307.27" y1="387.07" x2="323.02" y2="387.07"/><line class="f" x1="323.53" y1="387.58" x2="323.53" y2="396.82"/><g class="h"><path class="f" d="M307.27,397.34a.51.51,0,0,1-.51-.52"/><path class="f" d="M306.76,387.58a.51.51,0,0,1,.51-.51"/><path class="f" d="M323,387.07a.51.51,0,0,1,.51.51"/><path class="f" d="M323.53,396.82a.51.51,0,0,1-.51.52"/></g><polygon class="i" points="316 399.05 315.86 397.62 315.75 397.29 315.52 395.48 315.4 395.24 315.14 395.14 314.89 395.24 314.76 395.48 314.54 397.29 314.43 397.62 314.29 399.05 314.54 399.65 315.14 399.9 315.75 399.65 316 399.05"/><g class="h"><path class="f" d="M316,399.05a.86.86,0,0,1-1.71,0"/></g><line class="f" x1="314.43" y1="397.61" x2="314.29" y2="399.05"/><g class="h"><path class="f" d="M314.43,397.61a.65.65,0,0,1,.11-.32"/></g><line class="f" x1="314.76" y1="395.47" x2="314.54" y2="397.29"/><g class="h"><path class="f" d="M314.76,395.47a.39.39,0,0,1,.38-.33.37.37,0,0,1,.38.33"/></g><line class="f" x1="315.75" y1="397.29" x2="315.52" y2="395.47"/><g class="h"><path class="f" d="M315.75,397.29a.72.72,0,0,1,.11.32"/></g><line class="f" x1="316" y1="399.05" x2="315.86" y2="397.61"/><line class="f" x1="314.68" y1="398.2" x2="314.68" y2="397.68"/><line class="f" x1="315.61" y1="397.69" x2="315.61" y2="398.2"/><line class="f" x1="315.61" y1="398.2" x2="314.68" y2="398.2"/><g class="h"><path class="f" d="M314.68,397.69a.47.47,0,1,1,.93,0"/><path class="f" d="M314.54,397.29a.72.72,0,0,1,1.21,0"/></g><rect class="d" x="375.05" y="236.44" width="20.54" height="48.95"/><line class="f" x1="395.59" y1="285.4" x2="395.59" y2="236.44"/><line class="f" x1="395.59" y1="236.44" x2="375.05" y2="236.44"/><line class="f" x1="375.05" y1="236.44" x2="375.05" y2="285.4"/><line class="f" x1="375.05" y1="285.4" x2="395.59" y2="285.4"/><line class="f" x1="385.32" y1="282.95" x2="385.32" y2="238.89"/><line class="f" x1="391.36" y1="280.68" x2="379.06" y2="276.54"/><line class="f" x1="391.98" y1="276.01" x2="380.53" y2="274.3"/><line class="f" x1="377.92" y1="269.64" x2="390.48" y2="268.23"/><line class="f" x1="379.56" y1="262.41" x2="390.48" y2="264.33"/><line class="f" x1="378.94" y1="259.79" x2="392.39" y2="259.79"/><line class="f" x1="378.88" y1="252.34" x2="392.17" y2="254.11"/><line class="f" x1="379.1" y1="249.56" x2="391.24" y2="249.56"/><line class="f" x1="378.98" y1="242.22" x2="391.43" y2="240.81"/><line class="f" x1="379.82" y1="243.98" x2="390.35" y2="245.42"/><rect class="d" x="375.05" y="285.4" width="20.54" height="48.95"/><line class="f" x1="395.59" y1="334.35" x2="395.59" y2="285.4"/><line class="f" x1="395.59" y1="285.4" x2="375.05" y2="285.4"/><line class="f" x1="375.05" y1="285.4" x2="375.05" y2="334.35"/><line class="f" x1="375.05" y1="334.35" x2="395.59" y2="334.35"/><line class="f" x1="385.32" y1="331.9" x2="385.32" y2="287.84"/><line class="f" x1="391.36" y1="329.63" x2="379.06" y2="325.49"/><line class="f" x1="391.98" y1="324.96" x2="380.53" y2="323.25"/><line class="f" x1="377.92" y1="318.59" x2="390.48" y2="317.18"/><line class="f" x1="379.56" y1="311.36" x2="390.48" y2="313.28"/><line class="f" x1="378.94" y1="308.74" x2="392.39" y2="308.74"/><line class="f" x1="378.88" y1="301.3" x2="392.17" y2="303.06"/><line class="f" x1="379.1" y1="298.51" x2="391.24" y2="298.51"/><line class="f" x1="378.98" y1="291.17" x2="391.43" y2="289.76"/><line class="f" x1="379.82" y1="292.94" x2="390.35" y2="294.37"/><polygon class="i" points="294.9 401.1 294.9 389.81 294.64 388.11 293.88 386.58 292.68 385.36 290.74 384.34 288.57 383.99 286.41 384.34 284.46 385.36 283.27 386.58 282.5 388.11 282.24 389.81 282.24 401.1 294.9 401.1"/><line class="f" x1="282.24" y1="401.1" x2="282.24" y2="389.81"/><line class="f" x1="282.24" y1="401.1" x2="294.91" y2="401.1"/><line class="f" x1="294.91" y1="401.1" x2="294.91" y2="389.81"/><line class="f" x1="284.29" y1="396.99" x2="284.29" y2="389.81"/><line class="f" x1="292.85" y1="396.99" x2="292.85" y2="389.81"/><line class="f" x1="292.85" y1="396.99" x2="284.29" y2="396.99"/><g class="h"><path class="f" d="M282.24,389.81a5.56,5.56,0,0,1,2.22-4.45"/><path class="f" d="M292.68,385.36a5.56,5.56,0,0,1,2.22,4.45"/><path class="f" d="M284.46,385.36a6.85,6.85,0,0,1,8.22,0"/><path class="f" d="M292.68,385.36a5.56,5.56,0,0,1,2.22,4.45"/><path class="f" d="M288.57,384a6.86,6.86,0,0,1,4.11,1.37"/><path class="f" d="M291.45,387a3.51,3.51,0,0,1,1.4,2.81"/><path class="f" d="M285.7,387a4.79,4.79,0,0,1,5.75,0"/><path class="f" d="M284.29,389.81A3.49,3.49,0,0,1,285.7,387"/></g><line class="f" x1="236.75" y1="248.05" x2="236.75" y2="248.05"/><line class="f" x1="236.75" y1="289.13" x2="236.75" y2="289.13"/><line class="f" x1="236.75" y1="289.13" x2="236.75" y2="248.05"/><line class="f" x1="369.92" y1="406.24" x2="376.76" y2="406.24"/><line class="f" x1="380.53" y1="406.24" x2="381.3" y2="406.24"/><line class="f" x1="385.06" y1="406.24" x2="385.83" y2="406.24"/><line class="f" x1="389.6" y1="406.24" x2="396.45" y2="406.24"/><line class="f" x1="400.21" y1="406.24" x2="400.73" y2="406.24"/><line class="f" x1="400.73" y1="406.24" x2="407.57" y2="406.24"/><line class="f" x1="489.45" y1="397.72" x2="489.45" y2="391.98"/><line class="f" x1="489.45" y1="391.98" x2="491.78" y2="393.87"/><line class="f" x1="491.78" y1="393.87" x2="494.11" y2="391.98"/><line class="f" x1="494.11" y1="391.98" x2="494.11" y2="397.72"/><line class="f" x1="240.69" y1="171.4" x2="243.08" y2="171.4"/><line class="f" x1="248.05" y1="171.4" x2="249.07" y2="171.4"/><line class="f" x1="254.04" y1="171.4" x2="255.07" y2="171.4"/><line class="f" x1="260.03" y1="171.4" x2="268.59" y2="171.4"/><line class="f" x1="273.55" y1="171.4" x2="274.58" y2="171.4"/><line class="f" x1="279.54" y1="171.4" x2="280.57" y2="171.4"/><line class="f" x1="285.53" y1="171.4" x2="294.09" y2="171.4"/><line class="f" x1="299.06" y1="171.4" x2="300.08" y2="171.4"/><line class="f" x1="305.05" y1="171.4" x2="306.07" y2="171.4"/><line class="f" x1="311.04" y1="171.4" x2="319.6" y2="171.4"/><line class="f" x1="324.56" y1="171.4" x2="325.59" y2="171.4"/><line class="f" x1="330.55" y1="171.4" x2="331.58" y2="171.4"/><line class="f" x1="336.54" y1="171.4" x2="345.1" y2="171.4"/><line class="f" x1="350.06" y1="171.4" x2="351.09" y2="171.4"/><line class="f" x1="356.05" y1="171.4" x2="357.08" y2="171.4"/><line class="f" x1="362.04" y1="171.4" x2="370.6" y2="171.4"/><line class="f" x1="375.57" y1="171.4" x2="376.59" y2="171.4"/><line class="f" x1="381.56" y1="171.4" x2="382.58" y2="171.4"/><line class="f" x1="387.55" y1="171.4" x2="396.1" y2="171.4"/><line class="f" x1="401.07" y1="171.4" x2="402.1" y2="171.4"/><line class="f" x1="407.06" y1="171.4" x2="408.09" y2="171.4"/><line class="f" x1="413.05" y1="171.4" x2="421.61" y2="171.4"/><line class="f" x1="426.57" y1="171.4" x2="427.6" y2="171.4"/><line class="f" x1="432.56" y1="171.4" x2="433.59" y2="171.4"/><line class="f" x1="438.55" y1="171.4" x2="447.11" y2="171.4"/><line class="f" x1="452.08" y1="171.4" x2="453.1" y2="171.4"/><line class="f" x1="458.07" y1="171.4" x2="459.09" y2="171.4"/><line class="f" x1="464.06" y1="171.4" x2="472.61" y2="171.4"/><line class="f" x1="477.58" y1="171.4" x2="478.61" y2="171.4"/><line class="f" x1="483.57" y1="171.4" x2="484.6" y2="171.4"/><line class="f" x1="489.56" y1="171.4" x2="498.12" y2="171.4"/><line class="f" x1="503.08" y1="171.4" x2="504.11" y2="171.4"/><line class="f" x1="509.07" y1="171.4" x2="510.1" y2="171.4"/><line class="f" x1="515.06" y1="171.4" x2="523.62" y2="171.4"/><line class="f" x1="528.58" y1="171.4" x2="529.61" y2="171.4"/><line class="f" x1="534.58" y1="171.4" x2="535.6" y2="171.4"/><line class="f" x1="540.57" y1="171.4" x2="541.59" y2="171.4"/><line class="f" x1="236.75" y1="414.45" x2="545.87" y2="414.45"/><line class="f" x1="545.87" y1="414.45" x2="545.87" y2="222.75"/><line class="f" x1="545.87" y1="222.75" x2="541.59" y2="222.75"/><line class="f" x1="541.59" y1="222.75" x2="541.59" y2="137.21"/><line class="f" x1="541.59" y1="137.21" x2="240.69" y2="137.21"/><line class="f" x1="240.69" y1="137.21" x2="240.69" y2="222.75"/><line class="f" x1="240.69" y1="222.75" x2="236.75" y2="222.75"/><line class="f" x1="236.75" y1="222.75" x2="236.75" y2="414.45"/><path class="j" d="M413.17,193.59v7h-.72v-6.35H410.8v-.64Z"/><path class="j" d="M414.85,200.08a.53.53,0,0,1,.53-.54.54.54,0,0,1,.54.54.55.55,0,0,1-.54.55A.54.54,0,0,1,414.85,200.08Z"/><path class="j" d="M416.86,197.09c0-2.23,1.17-3.56,2.79-3.56s2.8,1.33,2.8,3.56-1.18,3.55-2.8,3.55S416.86,199.31,416.86,197.09Zm4.85,0c0-1.87-.84-2.9-2.06-2.9s-2.06,1-2.06,2.9.84,2.89,2.06,2.89S421.71,199,421.71,197.09Z"/><path class="j" d="M428.23,198.52c0,1.19-.83,2.12-2.54,2.12a3.61,3.61,0,0,1-2.51-.9l.35-.57a3,3,0,0,0,2.15.81c1.19,0,1.82-.58,1.82-1.43s-.56-1.46-2.34-1.46h-1.49l.36-3.5h3.83v.64h-3.2l-.24,2.23h.9C427.43,196.46,428.23,197.29,428.23,198.52Z"/><path class="j" d="M293.55,361.63v7h-.72v-6.35h-1.65v-.64Z"/><path class="j" d="M295.23,368.12a.53.53,0,0,1,.53-.54.54.54,0,0,1,.54.54.55.55,0,0,1-.54.55A.54.54,0,0,1,295.23,368.12Z"/><path class="j" d="M297.24,365.13c0-2.23,1.17-3.56,2.79-3.56s2.8,1.33,2.8,3.56-1.18,3.55-2.8,3.55S297.24,367.35,297.24,365.13Zm4.85,0c0-1.87-.84-2.9-2.06-2.9s-2.06,1-2.06,2.9S298.81,368,300,368,302.09,367,302.09,365.13Z"/><path class="j" d="M309.81,366.78h-1.4v1.84h-.72v-1.84h-3.95v-.52l3.71-4.63h.8l-3.58,4.51h3v-1.61h.7v1.61h1.4Z"/><path class="j" d="M341.75,280.7v7H341v-6.35h-1.65v-.64Z"/><path class="j" d="M343.43,287.19a.53.53,0,0,1,.53-.54.54.54,0,0,1,.54.54.55.55,0,0,1-.54.55A.54.54,0,0,1,343.43,287.19Z"/><path class="j" d="M345.44,284.19c0-2.22,1.17-3.55,2.79-3.55s2.8,1.33,2.8,3.55-1.18,3.56-2.8,3.56S345.44,286.42,345.44,284.19Zm4.85,0c0-1.86-.84-2.89-2.06-2.89s-2.06,1-2.06,2.89.84,2.9,2.06,2.9S350.29,286.06,350.29,284.19Z"/><path class="j" d="M356.6,285.68c0,1.17-.85,2.07-2.54,2.07a3.64,3.64,0,0,1-2.52-.9l.35-.57a3.07,3.07,0,0,0,2.17.81c1.16,0,1.8-.54,1.8-1.41s-.59-1.39-1.89-1.39h-.5v-.53l1.94-2.42h-3.58v-.64h4.5v.51l-2,2.48C355.85,283.77,356.6,284.56,356.6,285.68Z"/><path class="j" d="M446.83,280.7v7h-.72v-6.35h-1.65v-.64Z"/><path class="j" d="M448.51,287.19a.53.53,0,0,1,.53-.54.54.54,0,0,1,.54.54.55.55,0,0,1-.54.55A.54.54,0,0,1,448.51,287.19Z"/><path class="j" d="M450.52,284.19c0-2.22,1.17-3.55,2.79-3.55s2.8,1.33,2.8,3.55-1.18,3.56-2.8,3.56S450.52,286.42,450.52,284.19Zm4.85,0c0-1.86-.84-2.89-2.06-2.89s-2.06,1-2.06,2.89.84,2.9,2.06,2.9S455.37,286.06,455.37,284.19Z"/><path class="j" d="M461.91,287.05v.64H457v-.51l2.91-2.85c.79-.78.94-1.24.94-1.72,0-.81-.57-1.31-1.64-1.31a2.38,2.38,0,0,0-1.91.78l-.51-.44a3.15,3.15,0,0,1,2.48-1c1.42,0,2.32.72,2.32,1.89a2.85,2.85,0,0,1-1.15,2.18l-2.38,2.34Z"/><path class="j" d="M377.74,361.63v7H377v-6.35h-1.65v-.64Z"/><path class="j" d="M379.42,368.12a.53.53,0,0,1,.53-.54.54.54,0,0,1,.54.54.55.55,0,0,1-.54.55A.54.54,0,0,1,379.42,368.12Z"/><path class="j" d="M381.43,365.13c0-2.23,1.17-3.56,2.79-3.56s2.8,1.33,2.8,3.56-1.18,3.55-2.8,3.55S381.43,367.35,381.43,365.13Zm4.85,0c0-1.87-.84-2.9-2.06-2.9s-2.06,1-2.06,2.9S383,368,384.22,368,386.28,367,386.28,365.13Z"/><path class="j" d="M390,361.63v7h-.72v-6.35h-1.65v-.64Z"/></svg>