<svg xmlns="http://www.w3.org/2000/svg" xmlns:xlink="http://www.w3.org/1999/xlink" viewBox="0 0 790.58 618.13"><defs><style>.a,.f{fill:none;}.b{fill:#595a5c;}.c{fill:#b6906c;}.d,.g{fill:#fff;}.e{fill:#231f20;}.f{stroke:#000;stroke-linecap:round;stroke-linejoin:round;stroke-width:0.36px;}.g,.h{fill-rule:evenodd;}.i{clip-path:url(#a);}.j{fill:#58595b;}</style><clipPath id="a"><polygon class="a" points="233.96 204.4 233.96 403.98 276.73 403.98 276.73 461 561.83 461 561.83 403.98 566.11 403.98 566.11 204.4 233.96 204.4"/></clipPath></defs><path class="b" d="M55.31,597.13H57.1V609.9H55.31Zm.92,6.11h4.09a1.89,1.89,0,0,0,1-.27,1.82,1.82,0,0,0,.68-.77,2.67,2.67,0,0,0,.24-1.16,2.7,2.7,0,0,0-.24-1.16,1.82,1.82,0,0,0-1.7-1H56.23v-1.7h4a4.09,4.09,0,0,1,2,.48A3.45,3.45,0,0,1,63.62,599a4.64,4.64,0,0,1,0,4.11,3.34,3.34,0,0,1-1.35,1.36,4,4,0,0,1-2,.49h-4Z"/><path class="b" d="M67.7,606.33a2.07,2.07,0,0,0,.49,1.48,1.76,1.76,0,0,0,1.37.52,1.89,1.89,0,0,0,1.37-.46,1.79,1.79,0,0,0,.48-1.33l.12,1.91A2.58,2.58,0,0,1,69.06,610a2.89,2.89,0,0,1-2.33-1,4.08,4.08,0,0,1-.82-2.73v-5.55H67.7Zm.22-7.86a1.93,1.93,0,0,1-.56-1.5,2.07,2.07,0,0,1,.56-1.57,2.56,2.56,0,0,1,3.18,0,2.08,2.08,0,0,1,.57,1.56,1.94,1.94,0,0,1-.57,1.5,2.65,2.65,0,0,1-3.18,0Zm2.26-.86a.94.94,0,0,0,.24-.68,1,1,0,0,0-.24-.7.91.91,0,0,0-.67-.25.92.92,0,0,0-.67.25,1,1,0,0,0-.23.7,1,1,0,0,0,.23.68.92.92,0,0,0,.67.24A.9.9,0,0,0,70.18,597.61Zm1.23,3.17h1.78v9.12H71.41Z"/><path class="b" d="M77.1,609.63A2.82,2.82,0,0,1,76,608.36a5.08,5.08,0,0,1-.36-2v-2a5.05,5.05,0,0,1,.36-2,2.71,2.71,0,0,1,1-1.27,3,3,0,0,1,1.65-.44,2.71,2.71,0,0,1,1.48.42,3.22,3.22,0,0,1,1.09,1.19l-.18,1.86a2.19,2.19,0,0,0-.22-1,1.48,1.48,0,0,0-.61-.63,2,2,0,0,0-1-.21,1.71,1.71,0,0,0-1.37.55,2.26,2.26,0,0,0-.49,1.56v2a2.19,2.19,0,0,0,.49,1.54,1.74,1.74,0,0,0,1.37.54,1.93,1.93,0,0,0,1-.23,1.45,1.45,0,0,0,.61-.64,2.25,2.25,0,0,0,.22-1l.12,1.92a2.66,2.66,0,0,1-.89,1.14,2.56,2.56,0,0,1-1.53.45A3.19,3.19,0,0,1,77.1,609.63Zm4-12.5H82.9V609.9H81.11Z"/><path class="b" d="M87.09,609.57a3.09,3.09,0,0,1-1.29-1.36,4.85,4.85,0,0,1-.44-2.15v-1.48a4.71,4.71,0,0,1,.44-2.12,3.12,3.12,0,0,1,1.29-1.35,4.71,4.71,0,0,1,4.06,0,3.12,3.12,0,0,1,1.29,1.35,4.71,4.71,0,0,1,.44,2.12v1.51a4.79,4.79,0,0,1-.44,2.13,3.12,3.12,0,0,1-1.29,1.35,4.62,4.62,0,0,1-4.06,0Zm3.49-1.83a2.43,2.43,0,0,0,.51-1.65v-1.51a2.43,2.43,0,0,0-.51-1.65,1.88,1.88,0,0,0-1.46-.58,1.85,1.85,0,0,0-1.45.58,2.38,2.38,0,0,0-.52,1.65v1.51a2.38,2.38,0,0,0,.52,1.65,1.82,1.82,0,0,0,1.45.59A1.85,1.85,0,0,0,90.58,607.74Z"/><path class="b" d="M95.43,600.78h1.79v9.12H95.43Zm4.42,1.72a2.16,2.16,0,0,0-.83-.15,1.83,1.83,0,0,0-1.33.47,1.79,1.79,0,0,0-.47,1.31L97,602.37a3.32,3.32,0,0,1,1.09-1.27,2.58,2.58,0,0,1,1.48-.45,3.39,3.39,0,0,1,1.13.18,2.62,2.62,0,0,1,.88.53l-1.17,1.58A1.56,1.56,0,0,0,99.85,602.5Z"/><path class="b" d="M102.15,600.78H104l2.81,7.93-1,1.94Zm8.07,0L106.34,612a2.6,2.6,0,0,1-.56,1,1.87,1.87,0,0,1-.84.52,4,4,0,0,1-1.23.16h-.36V612h.36a1.46,1.46,0,0,0,.8-.2,1.74,1.74,0,0,0,.51-.7l3.38-10.31Z"/><path class="b" d="M113.51,609.88a5.76,5.76,0,0,1-1.32-.48,4.89,4.89,0,0,1-1.13-.79l1.06-1.31a5.86,5.86,0,0,0,1.47.85,4.18,4.18,0,0,0,1.44.28,3.11,3.11,0,0,0,1.6-.33,1.1,1.1,0,0,0,.53-1,.79.79,0,0,0-.29-.66,1.66,1.66,0,0,0-.72-.29c-.29,0-.69-.1-1.22-.14h-.15l-.14,0h-.15a6.45,6.45,0,0,1-1.5-.26,2,2,0,0,1-1-.7,2.38,2.38,0,0,1-.41-1.49,3.07,3.07,0,0,1,.39-1.61,2.41,2.41,0,0,1,1.18-1,5.29,5.29,0,0,1,2-.32,6.38,6.38,0,0,1,2.6.52,6.16,6.16,0,0,1,1.13.66l-1.08,1.31a5.59,5.59,0,0,0-1.35-.66,4,4,0,0,0-1.3-.22,2.44,2.44,0,0,0-1.37.31,1.08,1.08,0,0,0-.46.94.64.64,0,0,0,.26.55,1.72,1.72,0,0,0,.66.25c.26,0,.64.07,1.12.1h.34a7.67,7.67,0,0,1,1.63.25,2.24,2.24,0,0,1,1.13.77,2.62,2.62,0,0,1,.45,1.65,2.92,2.92,0,0,1-.42,1.63,2.54,2.54,0,0,1-1.27,1A5.88,5.88,0,0,1,115,610,7.38,7.38,0,0,1,113.51,609.88Z"/><path class="b" d="M126,597.13h1.8V609.9H126Zm2.6,12.5a2.39,2.39,0,0,1-.93-1.16l.13-1.91a2.22,2.22,0,0,0,.21,1,1.48,1.48,0,0,0,.61.63,1.93,1.93,0,0,0,1,.22,1.74,1.74,0,0,0,1.37-.54,2.18,2.18,0,0,0,.49-1.53v-2a2.26,2.26,0,0,0-.49-1.56,1.71,1.71,0,0,0-1.37-.55,2,2,0,0,0-1,.21,1.36,1.36,0,0,0-.61.62,2.12,2.12,0,0,0-.21,1l-.19-1.76a3.37,3.37,0,0,1,1.08-1.24,2.67,2.67,0,0,1,1.49-.43,3,3,0,0,1,1.65.43,2.9,2.9,0,0,1,1.06,1.27,5.1,5.1,0,0,1,.36,2v2a4.94,4.94,0,0,1-.37,2,2.79,2.79,0,0,1-1.08,1.26,3.25,3.25,0,0,1-1.71.44A2.73,2.73,0,0,1,128.57,609.63Z"/><path class="b" d="M134.46,600.78h1.82l2.81,7.93-1,1.94Zm8.07,0L138.65,612a2.6,2.6,0,0,1-.56,1,1.87,1.87,0,0,1-.84.52,4,4,0,0,1-1.23.16h-.36V612H136a1.46,1.46,0,0,0,.8-.2,1.74,1.74,0,0,0,.51-.7l3.37-10.31Z"/><path class="b" d="M143.57,600.78h4.12v1.62h-4.12Zm1.46,8.56a2.77,2.77,0,0,1-.52-1.81v-9.4h1.8v9.42a.84.84,0,0,0,.13.51.46.46,0,0,0,.39.18h.86V610h-1A2,2,0,0,1,145,609.34Z"/><path class="b" d="M151.94,606.33a2.07,2.07,0,0,0,.49,1.48,1.76,1.76,0,0,0,1.37.52,1.91,1.91,0,0,0,1.37-.46,1.79,1.79,0,0,0,.48-1.33l.12,1.91A2.58,2.58,0,0,1,153.3,610a2.89,2.89,0,0,1-2.33-1,4.08,4.08,0,0,1-.82-2.73v-5.55h1.79Zm3.71-5.55h1.78v9.12h-1.78Z"/><rect class="c" x="612.92" y="591.68" width="35.43" height="2.83"/><path class="d" d="M648.48,594.64H612.79v-3.08h35.69ZM613,594.39h35.19v-2.58H613Z"/><rect class="c" x="612.92" y="601.6" width="70.74" height="2.83"/><path class="d" d="M683.78,604.56h-71v-3.08h71ZM613,604.31h70.49v-2.58H613Z"/><rect class="c" x="612.92" y="612.72" width="177.16" height="2.84"/><path class="d" d="M790.21,615.68H612.79V612.6H790.21ZM613,615.43H790v-2.58H613Z"/><path class="e" d="M587.26,596.28h-.8v-4.82l-.81.5v-.83l.81-.53h.8Z"/><path class="e" d="M589,595.91a1.67,1.67,0,0,1-.41-1.19v-2.58A1.65,1.65,0,0,1,589,591a2,2,0,0,1,2.42,0,1.65,1.65,0,0,1,.41,1.19v2.58a1.65,1.65,0,0,1-.41,1.19,2,2,0,0,1-2.42,0Zm1.83-.55a.89.89,0,0,0,.2-.64v-2.58a.89.89,0,0,0-.2-.64.82.82,0,0,0-.62-.22.86.86,0,0,0-.63.22.94.94,0,0,0-.2.64v2.58a.9.9,0,0,0,.21.64,1,1,0,0,0,1.24,0Z"/><path class="e" d="M593.22,595.91a1.67,1.67,0,0,1-.41-1.19v-2.58a1.65,1.65,0,0,1,.41-1.19,2,2,0,0,1,2.42,0,1.61,1.61,0,0,1,.41,1.19v2.58a1.65,1.65,0,0,1-.41,1.19,2,2,0,0,1-2.42,0Zm1.83-.55a.9.9,0,0,0,.21-.64v-2.58a.94.94,0,0,0-.2-.64.86.86,0,0,0-.63-.22.82.82,0,0,0-.62.22.89.89,0,0,0-.2.64v2.58a.89.89,0,0,0,.2.64,1,1,0,0,0,1.24,0Z"/><path class="e" d="M600.1,596.13a1.45,1.45,0,0,1-.6-.6,2.06,2.06,0,0,1-.21-1v-.67a2,2,0,0,1,.21-.94,1.37,1.37,0,0,1,.6-.59,2,2,0,0,1,.95-.21,2.21,2.21,0,0,1,.59.08,1.68,1.68,0,0,1,.51.22,1.54,1.54,0,0,1,.37.35l-.58.52a1.17,1.17,0,0,0-.4-.3,1.13,1.13,0,0,0-.48-.11.94.94,0,0,0-.71.26,1,1,0,0,0-.26.72v.67a1,1,0,0,0,.25.74.94.94,0,0,0,.72.27,1,1,0,0,0,.48-.12,1,1,0,0,0,.4-.32l.58.56a1.38,1.38,0,0,1-.38.34,1.62,1.62,0,0,1-.5.22,2.27,2.27,0,0,1-.59.07A2.12,2.12,0,0,1,600.1,596.13Z"/><path class="e" d="M603.4,592.22h.79v4.06h-.79Zm2.42,1.6a1,1,0,0,0-.21-.67.78.78,0,0,0-.6-.23.81.81,0,0,0-.6.21.73.73,0,0,0-.22.58l-.08-.78a1.46,1.46,0,0,1,.49-.57,1.22,1.22,0,0,1,.67-.2,1.33,1.33,0,0,1,.73.2,1.18,1.18,0,0,1,.46.56,2.4,2.4,0,0,1,.15.89v2.47h-.79Zm2.42,0a.93.93,0,0,0-.22-.67.85.85,0,0,0-.63-.23.72.72,0,0,0-.57.23.9.9,0,0,0-.21.64l-.16-.78a1.61,1.61,0,0,1,.51-.63,1.23,1.23,0,0,1,.69-.22,1.37,1.37,0,0,1,.75.2,1.09,1.09,0,0,1,.47.56,2.21,2.21,0,0,1,.17.89v2.47h-.8Z"/><path class="e" d="M584.33,605.5l2-2.64a1.85,1.85,0,0,0,.27-.47,1.29,1.29,0,0,0,.09-.45h0a.67.67,0,0,0-.2-.53.81.81,0,0,0-.56-.19.76.76,0,0,0-.56.21,1,1,0,0,0-.27.58h-.82a2,2,0,0,1,.29-.83,1.42,1.42,0,0,1,.56-.53,1.67,1.67,0,0,1,.79-.18,1.93,1.93,0,0,1,.87.17,1.21,1.21,0,0,1,.54.51,1.55,1.55,0,0,1,.19.8h0a1.84,1.84,0,0,1-.12.63,2.8,2.8,0,0,1-.35.63l-1.65,2.24h2.15v.76h-3.2Z"/><path class="e" d="M589,605.83a1.67,1.67,0,0,1-.41-1.19v-2.58a1.65,1.65,0,0,1,.41-1.19,2,2,0,0,1,2.42,0,1.65,1.65,0,0,1,.41,1.19v2.58a1.65,1.65,0,0,1-.41,1.19,2,2,0,0,1-2.42,0Zm1.83-.55a.89.89,0,0,0,.2-.64v-2.58a.89.89,0,0,0-.2-.64.82.82,0,0,0-.62-.22.86.86,0,0,0-.63.22.94.94,0,0,0-.19.64v2.58a.89.89,0,0,0,.2.64,1,1,0,0,0,1.24,0Z"/><path class="e" d="M593.22,605.83a1.67,1.67,0,0,1-.41-1.19v-2.58a1.61,1.61,0,0,1,.42-1.19,1.59,1.59,0,0,1,1.2-.42,1.45,1.45,0,0,1,1.62,1.61v2.58a1.61,1.61,0,0,1-.41,1.19,2,2,0,0,1-2.42,0Zm1.84-.55a.94.94,0,0,0,.2-.64v-2.58a.94.94,0,0,0-.2-.64.84.84,0,0,0-.63-.22.82.82,0,0,0-.62.22.89.89,0,0,0-.2.64v2.58a.89.89,0,0,0,.2.64.82.82,0,0,0,.62.22A.86.86,0,0,0,595.06,605.28Z"/><path class="e" d="M600.1,606.05a1.45,1.45,0,0,1-.6-.6,2.06,2.06,0,0,1-.2-1v-.67a2,2,0,0,1,.2-.94,1.37,1.37,0,0,1,.6-.59,2,2,0,0,1,.95-.21,2.35,2.35,0,0,1,.6.08,1.73,1.73,0,0,1,.5.22,1.38,1.38,0,0,1,.37.35l-.58.52a1.08,1.08,0,0,0-.4-.3,1.13,1.13,0,0,0-.48-.11,1,1,0,0,0-.71.26,1,1,0,0,0-.26.72v.67a1,1,0,0,0,.25.74.94.94,0,0,0,.72.27,1.14,1.14,0,0,0,.88-.44l.58.56a1.38,1.38,0,0,1-.38.34,1.62,1.62,0,0,1-.5.22,2.22,2.22,0,0,1-.59.07A2.12,2.12,0,0,1,600.1,606.05Z"/><path class="e" d="M603.4,602.14h.79v4.06h-.79Zm2.42,1.6a1,1,0,0,0-.21-.67.78.78,0,0,0-.6-.23.81.81,0,0,0-.6.21.73.73,0,0,0-.22.58l-.08-.78a1.46,1.46,0,0,1,.49-.57,1.22,1.22,0,0,1,.67-.2,1.3,1.3,0,0,1,.73.2,1.18,1.18,0,0,1,.46.56,2.4,2.4,0,0,1,.16.89v2.47h-.8Zm2.42,0a.93.93,0,0,0-.22-.67.85.85,0,0,0-.63-.23.73.73,0,0,0-.57.23.89.89,0,0,0-.2.64l-.16-.78a1.51,1.51,0,0,1,.5-.63,1.23,1.23,0,0,1,.69-.22,1.35,1.35,0,0,1,.75.2,1.16,1.16,0,0,1,.48.56,2.4,2.4,0,0,1,.16.89v2.47h-.8Z"/><path class="e" d="M585,615.58a1.34,1.34,0,0,1-.54-.49,2,2,0,0,1-.28-.77h.8a.75.75,0,0,0,.25.49.85.85,0,0,0,.54.17.72.72,0,0,0,.59-.25,1.1,1.1,0,0,0,.21-.72v-.48a1.1,1.1,0,0,0-.21-.72.72.72,0,0,0-.59-.25.83.83,0,0,0-.4.11,1.18,1.18,0,0,0-.34.33h-.72v-3h2.89v.76h-2.1V612a1,1,0,0,1,.34-.18.94.94,0,0,1,.37-.07,1.68,1.68,0,0,1,.84.2,1.29,1.29,0,0,1,.53.6,2.07,2.07,0,0,1,.19.94V614a2.25,2.25,0,0,1-.19.94,1.31,1.31,0,0,1-.55.59,1.69,1.69,0,0,1-.86.21A1.74,1.74,0,0,1,585,615.58Z"/><path class="e" d="M589,615.32a1.65,1.65,0,0,1-.41-1.19v-2.58a1.67,1.67,0,0,1,.41-1.19,2,2,0,0,1,2.42,0,1.65,1.65,0,0,1,.41,1.19v2.58a1.64,1.64,0,0,1-.41,1.19,1.92,1.92,0,0,1-2.42,0Zm1.83-.55a.89.89,0,0,0,.2-.64v-2.58a.88.88,0,0,0-.2-.63.78.78,0,0,0-.62-.22.82.82,0,0,0-.63.22.93.93,0,0,0-.2.63v2.58a.9.9,0,0,0,.21.64,1,1,0,0,0,1.24,0Z"/><path class="e" d="M593.22,615.32a1.65,1.65,0,0,1-.41-1.19v-2.58a1.67,1.67,0,0,1,.41-1.19,2,2,0,0,1,2.42,0,1.61,1.61,0,0,1,.41,1.19v2.58a1.64,1.64,0,0,1-.41,1.19,1.92,1.92,0,0,1-2.42,0Zm1.83-.55a.9.9,0,0,0,.21-.64v-2.58a.93.93,0,0,0-.2-.63.82.82,0,0,0-.63-.22.78.78,0,0,0-.62.22.88.88,0,0,0-.2.63v2.58a.89.89,0,0,0,.2.64,1,1,0,0,0,1.24,0Z"/><path class="e" d="M600.1,615.54a1.45,1.45,0,0,1-.6-.6,2,2,0,0,1-.21-1v-.67a2,2,0,0,1,.21-.94,1.45,1.45,0,0,1,.6-.6,2,2,0,0,1,.95-.2,2.22,2.22,0,0,1,.59.07,2,2,0,0,1,.51.22,1.76,1.76,0,0,1,.37.35l-.58.52a1.17,1.17,0,0,0-.4-.3,1.13,1.13,0,0,0-.48-.11.94.94,0,0,0-.71.26,1,1,0,0,0-.26.73V614a1.07,1.07,0,0,0,.25.74,1,1,0,0,0,.72.26,1.13,1.13,0,0,0,.48-.11,1.26,1.26,0,0,0,.4-.32l.58.55a1.42,1.42,0,0,1-.38.35,1.88,1.88,0,0,1-.5.21,2.27,2.27,0,0,1-.59.08A2,2,0,0,1,600.1,615.54Z"/><path class="e" d="M603.4,611.63h.79v4.06h-.79Zm2.42,1.6a1,1,0,0,0-.21-.66.75.75,0,0,0-.6-.24.81.81,0,0,0-.6.21.75.75,0,0,0-.22.58l-.08-.78a1.5,1.5,0,0,1,.49-.56,1.15,1.15,0,0,1,.67-.2,1.32,1.32,0,0,1,.73.19,1.28,1.28,0,0,1,.46.56,2.42,2.42,0,0,1,.15.9v2.46h-.79Zm2.42,0a.91.91,0,0,0-.22-.66.82.82,0,0,0-.63-.24.72.72,0,0,0-.57.23.9.9,0,0,0-.21.64l-.16-.78a1.51,1.51,0,0,1,.51-.62,1.16,1.16,0,0,1,.69-.22,1.37,1.37,0,0,1,.75.19,1.18,1.18,0,0,1,.47.56,2.22,2.22,0,0,1,.17.9v2.46h-.8Z"/><path class="c" d="M23.49,613.89A12.92,12.92,0,1,1,36.4,601,12.93,12.93,0,0,1,23.49,613.89Zm0-24.83A11.92,11.92,0,1,0,35.4,601,11.93,11.93,0,0,0,23.49,589.06Z"/><polygon class="d" points="35.77 588.74 9.42 600.98 35.77 613.21 32.02 600.98 35.77 588.74"/><path class="c" d="M36.58,614.14,8.23,601l28.35-13.17-4,13.17ZM10.61,601,35,612.29,31.5,601,35,589.66Z"/><path class="c" d="M2.52,605.19a5,5,0,0,1-1.11-.38,4.4,4.4,0,0,1-1-.64l.81-1a3.72,3.72,0,0,0,1.16.69,4.08,4.08,0,0,0,1.38.23,2.73,2.73,0,0,0,1.55-.38,1.17,1.17,0,0,0,.55-1.05h0a1.12,1.12,0,0,0-.25-.77,1.44,1.44,0,0,0-.64-.42,8.23,8.23,0,0,0-1-.25H3.89l-.1,0a9.48,9.48,0,0,1-1.5-.36,2.08,2.08,0,0,1-1-.73,2.42,2.42,0,0,1-.41-1.51h0a2.77,2.77,0,0,1,.38-1.47,2.44,2.44,0,0,1,1.12-.92,4.48,4.48,0,0,1,1.77-.32,4.6,4.6,0,0,1,1,.11,4.9,4.9,0,0,1,1.86.86l-.73,1a4.61,4.61,0,0,0-1-.58,3,3,0,0,0-1.06-.2,2.44,2.44,0,0,0-1.46.38,1.24,1.24,0,0,0-.53,1.07h0a1,1,0,0,0,.27.75,1.74,1.74,0,0,0,.67.4,9.3,9.3,0,0,0,1.12.27h.24a7.93,7.93,0,0,1,1.4.41,2.22,2.22,0,0,1,.94.76,2.4,2.4,0,0,1,.38,1.43h0a2.62,2.62,0,0,1-.4,1.45,2.54,2.54,0,0,1-1.16.91,4.8,4.8,0,0,1-1.83.31A6.44,6.44,0,0,1,2.52,605.19Z"/><rect class="c" x="612.5" y="600.68" width="1" height="4.68"/><rect class="c" x="612.5" y="590.76" width="1" height="4.68"/><rect class="c" x="612.5" y="611.45" width="1" height="5.24"/><rect class="c" x="789.58" y="611.45" width="1" height="5.24"/><rect class="c" x="682.59" y="600.68" width="1" height="4.68"/><rect class="c" x="647.3" y="590.76" width="1" height="4.68"/><rect class="a" width="790.34" height="618.13"/><line class="f" x1="566.11" y1="403.98" x2="563.26" y2="403.98"/><line class="f" x1="278.51" y1="403.98" x2="278.51" y2="457.44"/><line class="f" x1="337.31" y1="403.98" x2="278.51" y2="403.98"/><line class="f" x1="337.31" y1="400.41" x2="337.31" y2="403.98"/><line class="f" x1="369.39" y1="400.41" x2="337.31" y2="400.41"/><line class="f" x1="369.39" y1="403.98" x2="369.39" y2="400.41"/><line class="f" x1="431.75" y1="403.98" x2="369.39" y2="403.98"/><line class="f" x1="431.75" y1="400.41" x2="431.75" y2="403.98"/><line class="f" x1="463.83" y1="400.41" x2="431.75" y2="400.41"/><line class="f" x1="463.83" y1="403.98" x2="463.83" y2="400.41"/><line class="f" x1="560.41" y1="403.98" x2="463.83" y2="403.98"/><line class="f" x1="560.41" y1="457.43" x2="560.41" y2="403.98"/><line class="f" x1="278.51" y1="457.43" x2="560.41" y2="457.43"/><line class="f" x1="566.11" y1="271.76" x2="566.11" y2="293.14"/><line class="f" x1="566.11" y1="271.76" x2="566.11" y2="271.76"/><line class="f" x1="566.11" y1="293.14" x2="566.11" y2="293.14"/><polygon class="g" points="264.25 212.96 355.13 212.96 355.13 234.7 264.61 234.7 264.61 277.46 242.87 277.46 242.87 212.96 264.25 212.96"/><line class="f" x1="264.25" y1="212.96" x2="355.13" y2="212.96"/><line class="f" x1="355.13" y1="212.96" x2="355.13" y2="234.7"/><line class="f" x1="355.13" y1="234.7" x2="264.61" y2="234.7"/><line class="f" x1="264.61" y1="234.7" x2="264.61" y2="277.46"/><line class="f" x1="264.61" y1="277.46" x2="242.87" y2="277.46"/><line class="f" x1="242.87" y1="277.46" x2="242.87" y2="212.96"/><line class="f" x1="242.87" y1="212.96" x2="264.25" y2="212.96"/><rect class="d" x="528.15" y="237.01" width="28.51" height="42.77"/><line class="f" x1="556.66" y1="279.78" x2="528.15" y2="279.78"/><line class="f" x1="528.15" y1="279.78" x2="528.15" y2="237.01"/><line class="f" x1="528.15" y1="237.01" x2="556.66" y2="237.01"/><line class="f" x1="556.66" y1="237.01" x2="556.66" y2="279.78"/><rect class="d" x="432.82" y="212.96" width="32.07" height="21.38"/><line class="f" x1="432.82" y1="212.96" x2="432.82" y2="234.34"/><line class="f" x1="464.9" y1="212.96" x2="432.82" y2="212.96"/><line class="f" x1="464.9" y1="234.34" x2="464.9" y2="212.96"/><line class="f" x1="432.82" y1="234.34" x2="464.9" y2="234.34"/><polygon class="h" points="233.96 403.98 233.96 213.31 233.96 204.4 242.87 204.4 242.87 403.98 233.96 403.98"/><rect x="369.39" y="396.85" width="62.37" height="7.13"/><polygon class="h" points="242.87 396.85 280.29 396.85 280.29 403.98 276.73 403.98 248.22 403.98 242.87 403.98 242.87 396.85"/><polygon class="h" points="535.1 403.98 535.1 396.85 566.11 396.85 566.11 403.98 561.83 403.98 535.1 403.98"/><rect x="242.87" y="389.72" width="35.64" height="7.13"/><rect x="536.89" y="389.72" width="29.22" height="7.13"/><rect x="371.17" y="389.72" width="58.8" height="7.13"/><rect x="242.87" y="204.4" width="143.62" height="8.55"/><polygon class="h" points="425.69 212.96 425.69 204.4 566.11 204.4 566.11 212.96 566.11 389.72 557.55 389.72 557.55 212.96 425.69 212.96"/><polygon class="h" points="454.2 283.16 454.2 280.67 464.9 280.67 464.9 271.76 467.39 271.76 467.39 280.67 557.56 280.67 557.56 283.16 454.2 283.16"/><polygon class="h" points="422.13 280.67 422.13 283.16 396.12 283.16 396.12 389.72 393.62 389.72 393.62 283.16 374.73 283.16 374.73 271.76 377.23 271.76 377.23 280.67 422.13 280.67"/><rect x="374.73" y="212.96" width="2.49" height="26.73"/><rect x="423.91" y="204.4" width="1.78" height="4.1"/><rect x="386.49" y="204.4" width="1.78" height="4.1"/><rect x="464.9" y="212.96" width="2.49" height="30.29"/><polygon class="h" points="529.04 236.12 529.04 232.56 532.61 232.56 557.56 232.56 557.56 236.12 529.04 236.12"/><rect x="529.04" y="212.96" width="3.56" height="19.6"/><polygon class="h" points="374.73 234.34 355.13 234.34 355.13 212.96 358.69 212.96 358.69 230.78 374.73 230.78 374.73 234.34"/><polygon class="h" points="560.41 403.98 563.26 403.98 561.83 403.98 561.83 457.44 560.41 457.44 560.41 403.98"/><line class="f" x1="561.83" y1="403.98" x2="535.1" y2="403.98"/><line class="f" x1="566.11" y1="403.98" x2="561.83" y2="403.98"/><line class="f" x1="431.75" y1="403.98" x2="369.39" y2="403.98"/><line class="f" x1="566.11" y1="389.72" x2="566.11" y2="389.72"/><line class="f" x1="429.97" y1="389.72" x2="396.12" y2="389.72"/><line class="f" x1="393.62" y1="389.72" x2="371.17" y2="389.72"/><line class="f" x1="276.73" y1="403.98" x2="248.22" y2="403.98"/><line class="f" x1="280.29" y1="403.98" x2="276.73" y2="403.98"/><line class="f" x1="278.51" y1="389.72" x2="242.87" y2="389.72"/><line class="f" x1="536.89" y1="389.72" x2="536.89" y2="396.85"/><line class="f" x1="557.56" y1="389.72" x2="536.89" y2="389.72"/><line class="f" x1="536.89" y1="396.85" x2="536.89" y2="389.72"/><line class="f" x1="429.97" y1="396.85" x2="429.97" y2="389.72"/><line class="f" x1="371.17" y1="396.85" x2="371.17" y2="389.72"/><line class="f" x1="278.51" y1="396.85" x2="278.51" y2="389.72"/><line class="f" x1="560.41" y1="403.98" x2="560.41" y2="457.44"/><line class="f" x1="560.41" y1="457.43" x2="561.83" y2="457.43"/><line class="f" x1="280.29" y1="396.85" x2="280.29" y2="403.98"/><line class="f" x1="278.51" y1="396.85" x2="280.29" y2="396.85"/><line class="f" x1="431.75" y1="396.85" x2="431.75" y2="403.98"/><line class="f" x1="429.97" y1="396.85" x2="431.75" y2="396.85"/><line class="f" x1="369.39" y1="396.85" x2="369.39" y2="403.98"/><line class="f" x1="369.39" y1="396.85" x2="371.17" y2="396.85"/><line class="f" x1="535.1" y1="396.85" x2="535.1" y2="403.98"/><line class="f" x1="535.1" y1="396.85" x2="536.88" y2="396.85"/><line class="f" x1="242.87" y1="389.72" x2="242.87" y2="212.96"/><line class="f" x1="278.51" y1="403.98" x2="278.51" y2="457.44"/><line class="f" x1="278.51" y1="457.43" x2="561.83" y2="457.43"/><line class="f" x1="536.89" y1="389.72" x2="465.61" y2="389.72"/><line class="f" x1="465.61" y1="389.72" x2="429.97" y2="389.72"/><line class="f" x1="278.51" y1="389.72" x2="335.53" y2="389.72"/><line class="f" x1="335.53" y1="389.72" x2="371.17" y2="389.72"/><line class="f" x1="280.29" y1="403.98" x2="337.31" y2="403.98"/><line class="f" x1="335.53" y1="389.72" x2="335.53" y2="396.85"/><line class="f" x1="337.31" y1="396.85" x2="337.31" y2="403.98"/><line class="f" x1="337.31" y1="400.41" x2="369.39" y2="400.41"/><line class="f" x1="338.38" y1="396.14" x2="338.38" y2="396.85"/><line class="f" x1="338.38" y1="396.85" x2="335.53" y2="396.85"/><line class="f" x1="335.53" y1="396.85" x2="335.53" y2="394"/><line class="f" x1="335.53" y1="394" x2="336.96" y2="394"/><line class="f" x1="336.96" y1="393.29" x2="339.81" y2="393.29"/><line class="f" x1="339.81" y1="393.29" x2="339.81" y2="396.14"/><line class="f" x1="339.81" y1="396.14" x2="336.96" y2="396.14"/><line class="f" x1="336.96" y1="396.14" x2="336.96" y2="393.29"/><line class="f" x1="369.74" y1="393.29" x2="366.89" y2="393.29"/><line class="f" x1="366.89" y1="393.29" x2="366.89" y2="396.14"/><line class="f" x1="366.89" y1="396.14" x2="369.74" y2="396.14"/><line class="f" x1="369.74" y1="396.14" x2="369.74" y2="393.29"/><line class="f" x1="339.81" y1="393.29" x2="366.89" y2="393.29"/><line class="f" x1="366.89" y1="396.14" x2="339.81" y2="396.14"/><line class="f" x1="339.81" y1="394.71" x2="366.89" y2="394.71"/><line class="f" x1="368.32" y1="396.14" x2="368.32" y2="396.85"/><line class="f" x1="368.32" y1="396.85" x2="371.17" y2="396.85"/><line class="f" x1="371.17" y1="396.85" x2="371.17" y2="394"/><line class="f" x1="371.17" y1="394" x2="369.74" y2="394"/><line class="f" x1="335.53" y1="394" x2="332.68" y2="394"/><line class="f" x1="332.68" y1="394" x2="332.68" y2="396.85"/><line class="f" x1="332.68" y1="396.85" x2="335.53" y2="396.85"/><line class="f" x1="335.53" y1="396.85" x2="335.53" y2="394"/><line class="f" x1="332.68" y1="394" x2="308.44" y2="394"/><line class="f" x1="332.68" y1="395.42" x2="308.44" y2="395.42"/><line class="f" x1="332.68" y1="396.85" x2="308.44" y2="396.85"/><line class="f" x1="281.36" y1="396.14" x2="281.36" y2="396.85"/><line class="f" x1="281.36" y1="396.85" x2="278.51" y2="396.85"/><line class="f" x1="278.51" y1="396.85" x2="278.51" y2="394"/><line class="f" x1="278.51" y1="394" x2="279.93" y2="394"/><line class="f" x1="279.93" y1="393.29" x2="282.78" y2="393.29"/><line class="f" x1="282.78" y1="393.29" x2="282.78" y2="396.14"/><line class="f" x1="282.78" y1="396.14" x2="279.93" y2="396.14"/><line class="f" x1="279.93" y1="396.14" x2="279.93" y2="393.29"/><line class="f" x1="282.78" y1="393.29" x2="304.17" y2="393.29"/><line class="f" x1="304.17" y1="396.14" x2="282.79" y2="396.14"/><line class="f" x1="282.78" y1="394.71" x2="304.17" y2="394.71"/><line class="f" x1="535.1" y1="403.98" x2="463.83" y2="403.98"/><line class="f" x1="465.61" y1="389.72" x2="465.61" y2="396.85"/><line class="f" x1="463.83" y1="396.85" x2="463.83" y2="403.98"/><line class="f" x1="463.83" y1="400.41" x2="431.75" y2="400.41"/><line class="f" x1="462.76" y1="396.14" x2="462.76" y2="396.85"/><line class="f" x1="462.76" y1="396.85" x2="465.61" y2="396.85"/><line class="f" x1="465.61" y1="396.85" x2="465.61" y2="394"/><line class="f" x1="465.61" y1="394" x2="464.18" y2="394"/><line class="f" x1="464.18" y1="393.29" x2="461.33" y2="393.29"/><line class="f" x1="461.33" y1="393.29" x2="461.33" y2="396.14"/><line class="f" x1="461.33" y1="396.14" x2="464.18" y2="396.14"/><line class="f" x1="464.18" y1="396.14" x2="464.18" y2="393.29"/><line class="f" x1="431.4" y1="393.29" x2="434.25" y2="393.29"/><line class="f" x1="434.25" y1="393.29" x2="434.25" y2="396.14"/><line class="f" x1="434.25" y1="396.14" x2="431.4" y2="396.14"/><line class="f" x1="431.4" y1="396.14" x2="431.4" y2="393.29"/><line class="f" x1="461.33" y1="393.29" x2="434.25" y2="393.29"/><line class="f" x1="434.25" y1="396.14" x2="461.33" y2="396.14"/><line class="f" x1="461.33" y1="394.71" x2="434.25" y2="394.71"/><line class="f" x1="432.82" y1="396.14" x2="432.82" y2="396.85"/><line class="f" x1="432.82" y1="396.85" x2="429.97" y2="396.85"/><line class="f" x1="429.97" y1="396.85" x2="429.97" y2="394"/><line class="f" x1="429.97" y1="394" x2="431.4" y2="394"/><line class="f" x1="534.03" y1="396.14" x2="534.03" y2="396.85"/><line class="f" x1="534.03" y1="396.85" x2="536.89" y2="396.85"/><line class="f" x1="536.89" y1="396.85" x2="536.89" y2="394"/><line class="f" x1="536.89" y1="394" x2="535.46" y2="394"/><line class="f" x1="535.46" y1="393.29" x2="532.61" y2="393.29"/><line class="f" x1="532.61" y1="393.29" x2="532.61" y2="396.14"/><line class="f" x1="532.61" y1="396.14" x2="535.46" y2="396.14"/><line class="f" x1="535.46" y1="396.14" x2="535.46" y2="393.29"/><line class="f" x1="502.67" y1="396.14" x2="502.67" y2="396.85"/><line class="f" x1="502.67" y1="396.85" x2="499.82" y2="396.85"/><line class="f" x1="499.82" y1="396.85" x2="499.82" y2="394"/><line class="f" x1="499.82" y1="394" x2="501.25" y2="394"/><line class="f" x1="501.25" y1="393.29" x2="504.1" y2="393.29"/><line class="f" x1="504.1" y1="393.29" x2="504.1" y2="396.14"/><line class="f" x1="504.1" y1="396.14" x2="501.25" y2="396.14"/><line class="f" x1="501.25" y1="396.14" x2="501.25" y2="393.29"/><line class="f" x1="532.61" y1="393.29" x2="504.1" y2="393.29"/><line class="f" x1="504.1" y1="396.14" x2="532.61" y2="396.14"/><line class="f" x1="532.61" y1="394.71" x2="504.1" y2="394.71"/><line class="f" x1="465.61" y1="394" x2="468.46" y2="394"/><line class="f" x1="468.46" y1="394" x2="468.46" y2="396.85"/><line class="f" x1="468.46" y1="396.85" x2="465.61" y2="396.85"/><line class="f" x1="465.61" y1="396.85" x2="465.61" y2="394"/><line class="f" x1="468.46" y1="394" x2="499.82" y2="394"/><line class="f" x1="468.46" y1="395.42" x2="499.82" y2="395.42"/><line class="f" x1="468.46" y1="396.85" x2="499.82" y2="396.85"/><line class="f" x1="305.59" y1="396.14" x2="305.59" y2="396.85"/><line class="f" x1="305.59" y1="396.85" x2="308.44" y2="396.85"/><line class="f" x1="308.44" y1="396.85" x2="308.44" y2="394"/><line class="f" x1="308.44" y1="394" x2="307.02" y2="394"/><line class="f" x1="307.02" y1="393.29" x2="304.17" y2="393.29"/><line class="f" x1="304.17" y1="393.29" x2="304.17" y2="396.14"/><line class="f" x1="304.17" y1="396.14" x2="307.02" y2="396.14"/><line class="f" x1="307.02" y1="396.14" x2="307.02" y2="393.29"/><line class="f" x1="557.56" y1="389.72" x2="557.56" y2="283.16"/><line class="f" x1="557.56" y1="280.67" x2="467.39" y2="280.67"/><line class="f" x1="464.9" y1="280.67" x2="454.2" y2="280.67"/><line class="f" x1="422.13" y1="280.67" x2="377.23" y2="280.67"/><line class="f" x1="557.56" y1="283.16" x2="454.21" y2="283.16"/><line class="f" x1="422.13" y1="283.16" x2="396.11" y2="283.16"/><line class="f" x1="393.62" y1="283.16" x2="374.73" y2="283.16"/><line class="f" x1="355.13" y1="212.96" x2="242.87" y2="212.96"/><line class="f" x1="467.39" y1="280.67" x2="467.39" y2="271.76"/><line class="f" x1="467.39" y1="243.25" x2="467.39" y2="212.96"/><line class="f" x1="464.9" y1="280.67" x2="464.9" y2="271.76"/><line class="f" x1="464.9" y1="243.25" x2="464.9" y2="212.96"/><line class="f" x1="393.62" y1="389.72" x2="393.62" y2="283.16"/><line class="f" x1="377.23" y1="280.67" x2="377.23" y2="271.76"/><line class="f" x1="377.23" y1="239.69" x2="377.23" y2="212.96"/><line class="f" x1="374.73" y1="283.16" x2="374.73" y2="271.76"/><line class="f" x1="374.73" y1="239.69" x2="374.73" y2="234.34"/><line class="f" x1="396.12" y1="389.72" x2="396.12" y2="283.16"/><line class="f" x1="423.91" y1="208.5" x2="423.91" y2="204.4"/><line class="f" x1="388.27" y1="208.5" x2="388.27" y2="204.4"/><line class="f" x1="388.27" y1="208.5" x2="386.49" y2="208.5"/><line class="f" x1="423.91" y1="208.5" x2="425.69" y2="208.5"/><line class="f" x1="425.69" y1="208.5" x2="425.69" y2="212.96"/><line class="f" x1="386.49" y1="208.5" x2="386.49" y2="212.96"/><line class="f" x1="464.9" y1="271.76" x2="467.39" y2="271.76"/><line class="f" x1="464.9" y1="243.25" x2="467.39" y2="243.25"/><line class="f" x1="422.13" y1="280.67" x2="422.13" y2="283.16"/><line class="f" x1="454.21" y1="280.67" x2="454.21" y2="283.16"/><line class="f" x1="355.13" y1="234.34" x2="355.13" y2="212.96"/><line class="f" x1="374.73" y1="239.69" x2="377.23" y2="239.69"/><line class="f" x1="374.73" y1="271.76" x2="377.23" y2="271.76"/><line class="f" x1="377.23" y1="212.96" x2="386.49" y2="212.96"/><line class="f" x1="369.74" y1="393.29" x2="369.74" y2="360.5"/><g class="i"><path class="f" d="M337,393.29a32.78,32.78,0,0,1,32.78-32.79"/></g><line class="f" x1="431.4" y1="393.29" x2="431.4" y2="360.5"/><g class="i"><path class="f" d="M431.4,360.5a32.79,32.79,0,0,1,32.78,32.79"/></g><line class="f" x1="423.91" y1="283.16" x2="452.42" y2="283.16"/><line class="f" x1="423.91" y1="283.16" x2="423.91" y2="311.67"/><g class="i"><path class="f" d="M452.42,283.16a28.5,28.5,0,0,1-28.51,28.51"/></g><line class="f" x1="423.91" y1="280.67" x2="423.91" y2="283.16"/><line class="f" x1="452.42" y1="283.16" x2="452.42" y2="280.67"/><line class="f" x1="452.42" y1="283.16" x2="454.2" y2="283.16"/><line class="f" x1="452.42" y1="280.67" x2="454.2" y2="280.67"/><line class="f" x1="422.13" y1="283.16" x2="423.91" y2="283.16"/><line class="f" x1="422.13" y1="280.67" x2="423.91" y2="280.67"/><line class="f" x1="423.91" y1="280.67" x2="431.04" y2="280.67"/><line class="f" x1="434.96" y1="280.67" x2="435.76" y2="280.67"/><line class="f" x1="439.68" y1="280.67" x2="440.48" y2="280.67"/><line class="f" x1="444.4" y1="280.67" x2="445.3" y2="280.67"/><line class="f" x1="445.3" y1="280.67" x2="452.42" y2="280.67"/><line class="f" x1="423.91" y1="283.16" x2="423.91" y2="284.05"/><line class="f" x1="423.91" y1="284.06" x2="420.35" y2="284.06"/><line class="f" x1="420.35" y1="284.06" x2="420.35" y2="283.16"/><line class="f" x1="423.91" y1="280.67" x2="423.91" y2="279.78"/><line class="f" x1="423.91" y1="279.78" x2="420.35" y2="279.78"/><line class="f" x1="420.35" y1="279.78" x2="420.35" y2="280.67"/><line class="f" x1="452.42" y1="284.06" x2="455.99" y2="284.06"/><line class="f" x1="455.99" y1="284.06" x2="455.99" y2="283.16"/><line class="f" x1="452.42" y1="280.67" x2="452.42" y2="279.78"/><line class="f" x1="452.42" y1="279.78" x2="455.99" y2="279.78"/><line class="f" x1="455.99" y1="279.78" x2="455.99" y2="280.67"/><line class="f" x1="355.21" y1="234.34" x2="374.73" y2="234.34"/><line class="f" x1="374.73" y1="234.34" x2="374.73" y2="230.78"/><line class="f" x1="374.73" y1="230.78" x2="358.69" y2="230.78"/><line class="f" x1="358.69" y1="230.78" x2="358.69" y2="212.96"/><line class="f" x1="358.69" y1="212.96" x2="374.73" y2="212.96"/><line class="f" x1="374.73" y1="212.96" x2="374.73" y2="230.78"/><line class="f" x1="390.06" y1="208.5" x2="422.13" y2="208.5"/><line class="f" x1="390.06" y1="208.5" x2="390.06" y2="240.58"/><g class="i"><path class="f" d="M422.13,208.5a32.07,32.07,0,0,1-32.07,32.08"/></g><line class="f" x1="390.06" y1="204.4" x2="390.06" y2="208.5"/><line class="f" x1="422.13" y1="208.5" x2="422.13" y2="204.4"/><line class="f" x1="422.13" y1="208.5" x2="423.91" y2="208.5"/><line class="f" x1="388.27" y1="208.5" x2="390.06" y2="208.5"/><line class="f" x1="464.9" y1="245.03" x2="464.9" y2="269.98"/><line class="f" x1="464.9" y1="245.03" x2="439.95" y2="245.03"/><g class="i"><path class="f" d="M464.9,270A25,25,0,0,1,440,245"/></g><line class="f" x1="467.39" y1="245.03" x2="464.9" y2="245.03"/><line class="f" x1="464.9" y1="269.98" x2="467.39" y2="269.98"/><line class="f" x1="464.9" y1="269.98" x2="464.9" y2="271.76"/><line class="f" x1="467.39" y1="269.98" x2="467.39" y2="271.76"/><line class="f" x1="464.9" y1="243.25" x2="464.9" y2="245.03"/><line class="f" x1="467.39" y1="243.25" x2="467.39" y2="245.03"/><line class="f" x1="467.39" y1="245.03" x2="467.39" y2="252.16"/><line class="f" x1="467.39" y1="256.08" x2="467.39" y2="256.88"/><line class="f" x1="467.39" y1="260.8" x2="467.39" y2="261.6"/><line class="f" x1="467.39" y1="262.85" x2="467.39" y2="269.98"/><line class="f" x1="464.9" y1="245.03" x2="464.01" y2="245.03"/><line class="f" x1="464.01" y1="245.03" x2="464.01" y2="241.47"/><line class="f" x1="464.01" y1="241.47" x2="464.9" y2="241.47"/><line class="f" x1="467.39" y1="245.03" x2="468.28" y2="245.03"/><line class="f" x1="468.28" y1="245.03" x2="468.28" y2="241.47"/><line class="f" x1="468.28" y1="241.47" x2="467.39" y2="241.47"/><line class="f" x1="464.01" y1="269.98" x2="464.01" y2="273.54"/><line class="f" x1="464.01" y1="273.54" x2="464.9" y2="273.54"/><line class="f" x1="467.39" y1="269.98" x2="468.28" y2="269.98"/><line class="f" x1="468.28" y1="269.98" x2="468.28" y2="273.54"/><line class="f" x1="468.28" y1="273.54" x2="467.39" y2="273.54"/><line class="f" x1="374.73" y1="241.47" x2="374.73" y2="269.98"/><line class="f" x1="374.73" y1="241.47" x2="346.22" y2="241.47"/><g class="i"><path class="f" d="M374.73,270a28.52,28.52,0,0,1-28.51-28.51"/></g><line class="f" x1="377.23" y1="241.47" x2="374.73" y2="241.47"/><line class="f" x1="374.73" y1="269.98" x2="377.23" y2="269.98"/><line class="f" x1="374.73" y1="269.98" x2="374.73" y2="271.76"/><line class="f" x1="377.23" y1="269.98" x2="377.23" y2="271.76"/><line class="f" x1="374.73" y1="239.69" x2="374.73" y2="241.47"/><line class="f" x1="377.23" y1="239.69" x2="377.23" y2="241.47"/><line class="f" x1="377.23" y1="241.47" x2="377.23" y2="248.59"/><line class="f" x1="377.23" y1="252.51" x2="377.23" y2="253.32"/><line class="f" x1="377.23" y1="257.24" x2="377.23" y2="258.04"/><line class="f" x1="377.23" y1="261.96" x2="377.23" y2="262.85"/><line class="f" x1="377.23" y1="262.85" x2="377.23" y2="269.98"/><line class="f" x1="374.73" y1="241.47" x2="373.84" y2="241.47"/><line class="f" x1="373.84" y1="241.47" x2="373.84" y2="237.9"/><line class="f" x1="373.84" y1="237.9" x2="374.73" y2="237.9"/><line class="f" x1="377.23" y1="241.47" x2="378.12" y2="241.47"/><line class="f" x1="378.12" y1="241.47" x2="378.12" y2="237.9"/><line class="f" x1="378.12" y1="237.9" x2="377.23" y2="237.9"/><line class="f" x1="373.84" y1="269.98" x2="373.84" y2="273.54"/><line class="f" x1="373.84" y1="273.54" x2="374.73" y2="273.54"/><line class="f" x1="377.23" y1="269.98" x2="378.12" y2="269.98"/><line class="f" x1="378.12" y1="269.98" x2="378.12" y2="273.54"/><line class="f" x1="378.12" y1="273.54" x2="377.23" y2="273.54"/><line class="f" x1="377.23" y1="275.32" x2="418.57" y2="275.32"/><line class="f" x1="418.57" y1="275.32" x2="418.57" y2="280.67"/><line class="f" x1="418.57" y1="280.67" x2="377.23" y2="280.67"/><line class="f" x1="377.23" y1="280.67" x2="377.23" y2="275.32"/><line class="f" x1="269.24" y1="234.7" x2="269.24" y2="212.96"/><line class="f" x1="269.24" y1="212.96" x2="290.63" y2="212.96"/><line class="f" x1="290.63" y1="212.96" x2="290.63" y2="234.7"/><line class="f" x1="290.63" y1="234.7" x2="269.24" y2="234.7"/><g class="i"><path class="f" d="M286.17,224a6.24,6.24,0,1,0-6.24,6.24,6.23,6.23,0,0,0,6.24-6.24"/><path class="f" d="M285.1,224a5.17,5.17,0,1,0-5.17,5.17A5.16,5.16,0,0,0,285.1,224"/></g><line class="f" x1="346.6" y1="221.48" x2="341.56" y2="226.52"/><line class="f" x1="341.56" y1="221.48" x2="346.6" y2="226.52"/><line class="f" x1="344.08" y1="227.57" x2="344.08" y2="220.44"/><line class="f" x1="347.65" y1="224" x2="340.52" y2="224"/><line class="f" x1="333.39" y1="213.31" x2="333.39" y2="234.7"/><line class="f" x1="354.77" y1="234.7" x2="333.39" y2="234.7"/><line class="f" x1="332.5" y1="232.91" x2="312.9" y2="232.91"/><line class="f" x1="312.9" y1="232.91" x2="312.9" y2="215.1"/><line class="f" x1="312.9" y1="215.1" x2="332.5" y2="215.1"/><line class="f" x1="332.5" y1="215.1" x2="332.5" y2="232.91"/><line class="f" x1="333.39" y1="234.7" x2="312.01" y2="234.7"/><line class="f" x1="330.72" y1="231.13" x2="314.68" y2="231.13"/><line class="f" x1="314.68" y1="231.13" x2="314.68" y2="218.66"/><line class="f" x1="314.68" y1="218.66" x2="330.72" y2="218.66"/><line class="f" x1="330.72" y1="218.66" x2="330.72" y2="231.13"/><g class="i"><path class="f" d="M323.41,222.22a.71.71,0,1,0-.71.72.71.71,0,0,0,.71-.72"/></g><line class="f" x1="312.01" y1="213.31" x2="312.01" y2="234.7"/><line class="f" x1="312.01" y1="234.7" x2="290.63" y2="234.7"/><line class="f" x1="290.63" y1="234.7" x2="290.63" y2="213.31"/><line class="f" x1="264.61" y1="277.46" x2="243.23" y2="277.46"/><g class="i"><path class="f" d="M252.17,251a3.5,3.5,0,1,0-3.5,3.5,3.5,3.5,0,0,0,3.5-3.5"/></g><line class="f" x1="243.23" y1="245.57" x2="264.61" y2="245.57"/><line class="f" x1="264.61" y1="245.57" x2="264.61" y2="266.95"/><line class="f" x1="264.61" y1="266.95" x2="243.23" y2="266.95"/><g class="i"><path class="f" d="M262.67,251a3.5,3.5,0,1,0-3.5,3.5,3.5,3.5,0,0,0,3.5-3.5"/><path class="f" d="M262.67,261.51a3.5,3.5,0,1,0-3.5,3.49,3.5,3.5,0,0,0,3.5-3.49"/></g><line class="f" x1="265.58" y1="264.03" x2="265.58" y2="248.48"/><line class="f" x1="242.87" y1="277.46" x2="242.87" y2="212.96"/><line class="f" x1="242.87" y1="212.96" x2="355.13" y2="212.96"/><line class="f" x1="355.13" y1="212.96" x2="355.13" y2="234.7"/><line class="f" x1="355.13" y1="234.7" x2="264.61" y2="234.7"/><line class="f" x1="264.61" y1="234.7" x2="264.61" y2="277.46"/><line class="f" x1="264.61" y1="277.46" x2="242.87" y2="277.46"/><line class="f" x1="425.69" y1="212.96" x2="464.9" y2="212.96"/><g class="i"><path class="f" d="M552.21,242.36a.89.89,0,1,0-.89.89.89.89,0,0,0,.89-.89"/></g><line class="f" x1="528.15" y1="237.01" x2="528.15" y2="279.78"/><line class="f" x1="528.15" y1="279.78" x2="556.66" y2="279.78"/><line class="f" x1="556.66" y1="279.78" x2="556.66" y2="237.01"/><line class="f" x1="556.66" y1="237.01" x2="528.15" y2="237.01"/><line class="f" x1="529.94" y1="242.36" x2="529.94" y2="274.43"/><line class="f" x1="533.5" y1="278" x2="551.32" y2="278"/><line class="f" x1="554.88" y1="274.43" x2="554.88" y2="242.36"/><line class="f" x1="551.32" y1="238.79" x2="533.5" y2="238.79"/><g class="i"><path class="f" d="M529.94,242.36a3.56,3.56,0,0,1,3.56-3.56"/><path class="f" d="M533.5,278a3.56,3.56,0,0,1-3.56-3.57"/><path class="f" d="M551.32,238.79a3.56,3.56,0,0,1,3.56,3.57"/><path class="f" d="M554.88,274.43a3.56,3.56,0,0,1-3.56,3.57"/></g><line class="f" x1="529.04" y1="218.3" x2="467.39" y2="218.3"/><line class="f" x1="522.27" y1="279.78" x2="522.27" y2="276.22"/><line class="f" x1="522.27" y1="276.21" x2="500.89" y2="276.21"/><line class="f" x1="500.89" y1="276.21" x2="500.89" y2="279.78"/><line class="f" x1="500.89" y1="279.78" x2="501.96" y2="279.78"/><line class="f" x1="501.96" y1="279.78" x2="501.96" y2="277.28"/><line class="f" x1="501.96" y1="277.28" x2="521.2" y2="277.28"/><line class="f" x1="521.2" y1="277.28" x2="521.2" y2="279.78"/><line class="f" x1="521.2" y1="279.78" x2="522.27" y2="279.78"/><line class="f" x1="522.27" y1="279.78" x2="522.27" y2="276.22"/><line class="f" x1="500.89" y1="279.78" x2="500.89" y2="276.22"/><line class="f" x1="521.2" y1="279.78" x2="521.2" y2="277.28"/><line class="f" x1="501.96" y1="279.78" x2="501.96" y2="277.28"/><line class="f" x1="522.27" y1="276.21" x2="500.89" y2="276.21"/><line class="f" x1="522.27" y1="277.28" x2="500.89" y2="277.28"/><line class="f" x1="522.27" y1="279.78" x2="521.2" y2="279.78"/><line class="f" x1="501.96" y1="279.78" x2="500.89" y2="279.78"/><line class="f" x1="532.61" y1="218.3" x2="532.61" y2="212.96"/><line class="f" x1="532.61" y1="212.96" x2="557.56" y2="212.96"/><line class="f" x1="557.56" y1="212.96" x2="557.56" y2="232.56"/><line class="f" x1="557.56" y1="232.56" x2="532.61" y2="232.56"/><line class="f" x1="532.61" y1="232.56" x2="532.61" y2="218.3"/><line class="f" x1="557.56" y1="236.12" x2="529.04" y2="236.12"/><line class="f" x1="529.04" y1="236.12" x2="529.04" y2="232.56"/><line class="f" x1="529.04" y1="236.12" x2="529.04" y2="212.96"/><line class="f" x1="532.61" y1="232.56" x2="529.05" y2="232.56"/><line class="f" x1="557.56" y1="236.12" x2="557.56" y2="280.67"/><line class="f" x1="467.39" y1="212.96" x2="529.05" y2="212.96"/><line class="f" x1="374.73" y1="234.34" x2="374.73" y2="230.78"/><line class="f" x1="515.15" y1="387.94" x2="486.64" y2="387.94"/><line class="f" x1="486.64" y1="387.94" x2="486.64" y2="385.69"/><line class="f" x1="486.64" y1="385.69" x2="515.15" y2="385.69"/><line class="f" x1="515.15" y1="385.69" x2="515.15" y2="387.94"/><g class="i"><path class="f" d="M484.85,386.82a1.78,1.78,0,1,0-1.78,1.78,1.77,1.77,0,0,0,1.78-1.78"/></g><line class="f" x1="331.61" y1="387.94" x2="281.71" y2="387.94"/><line class="f" x1="281.72" y1="387.94" x2="281.72" y2="384.38"/><line class="f" x1="281.72" y1="384.38" x2="331.61" y2="384.38"/><line class="f" x1="331.61" y1="384.38" x2="331.61" y2="387.94"/><g class="i"><path class="f" d="M279.93,386.16a1.78,1.78,0,1,0-1.78,1.78,1.77,1.77,0,0,0,1.78-1.78"/></g><line class="f" x1="463.83" y1="403.98" x2="456.7" y2="403.98"/><line class="f" x1="452.78" y1="403.98" x2="451.98" y2="403.98"/><line class="f" x1="448.06" y1="403.98" x2="447.26" y2="403.98"/><line class="f" x1="443.34" y1="403.98" x2="438.88" y2="403.98"/><line class="f" x1="438.88" y1="403.98" x2="431.75" y2="403.98"/><line class="f" x1="369.39" y1="403.98" x2="362.26" y2="403.98"/><line class="f" x1="358.34" y1="403.98" x2="357.54" y2="403.98"/><line class="f" x1="353.62" y1="403.98" x2="352.81" y2="403.98"/><line class="f" x1="348.89" y1="403.98" x2="344.44" y2="403.98"/><line class="f" x1="344.44" y1="403.98" x2="337.31" y2="403.98"/><line class="f" x1="374.73" y1="230.78" x2="358.69" y2="230.78"/><line class="f" x1="358.69" y1="230.78" x2="358.69" y2="212.96"/><line class="f" x1="358.69" y1="212.96" x2="362.26" y2="227.21"/><line class="f" x1="362.26" y1="227.21" x2="374.73" y2="230.78"/><line class="f" x1="557.56" y1="232.56" x2="532.61" y2="232.56"/><line class="f" x1="532.61" y1="232.56" x2="532.61" y2="212.96"/><line class="f" x1="532.61" y1="212.96" x2="536.17" y2="228.99"/><line class="f" x1="536.17" y1="228.99" x2="557.56" y2="232.56"/><rect class="d" x="282.78" y="318.45" width="17.82" height="28.51"/><line class="f" x1="282.78" y1="318.44" x2="282.78" y2="346.96"/><line class="f" x1="300.6" y1="318.44" x2="282.78" y2="318.44"/><line class="f" x1="300.6" y1="346.96" x2="300.6" y2="318.44"/><line class="f" x1="282.78" y1="346.96" x2="300.6" y2="346.96"/><rect class="d" x="374.73" y="283.16" width="18.89" height="106.56"/><line class="f" x1="374.73" y1="283.16" x2="374.73" y2="389.72"/><line class="f" x1="393.62" y1="283.16" x2="374.73" y2="283.16"/><line class="f" x1="393.62" y1="389.72" x2="393.62" y2="283.16"/><line class="f" x1="374.73" y1="389.72" x2="393.62" y2="389.72"/><rect class="d" x="467.39" y="212.96" width="61.62" height="5.35"/><line class="f" x1="529.01" y1="218.3" x2="467.39" y2="218.3"/><line class="f" x1="467.39" y1="218.3" x2="467.39" y2="212.96"/><line class="f" x1="467.39" y1="212.96" x2="529.01" y2="212.96"/><line class="f" x1="529.01" y1="212.96" x2="529.01" y2="218.3"/><rect class="d" x="500.89" y="277.28" width="1.07" height="2.49"/><line class="f" x1="501.96" y1="277.28" x2="500.89" y2="277.28"/><line class="f" x1="501.96" y1="279.78" x2="501.96" y2="277.28"/><line class="f" x1="500.89" y1="279.78" x2="501.96" y2="279.78"/><line class="f" x1="500.89" y1="277.28" x2="500.89" y2="279.78"/><polygon class="d" points="500.89 276.21 500.89 277.28 501.96 277.28 522.27 277.28 522.27 276.21 500.89 276.21"/><line class="f" x1="501.96" y1="277.28" x2="522.27" y2="277.28"/><line class="f" x1="500.89" y1="277.28" x2="501.96" y2="277.28"/><line class="f" x1="500.89" y1="276.21" x2="500.89" y2="277.28"/><line class="f" x1="522.27" y1="276.21" x2="500.89" y2="276.21"/><line class="f" x1="522.27" y1="277.28" x2="522.27" y2="276.21"/><rect class="d" x="521.2" y="277.28" width="1.07" height="2.49"/><line class="f" x1="521.2" y1="279.78" x2="522.27" y2="279.78"/><line class="f" x1="521.2" y1="277.28" x2="521.2" y2="279.78"/><line class="f" x1="522.27" y1="277.28" x2="521.2" y2="277.28"/><line class="f" x1="522.27" y1="279.78" x2="522.27" y2="277.28"/><rect class="d" x="377.23" y="275.32" width="41.34" height="5.35"/><line class="f" x1="377.23" y1="275.32" x2="377.23" y2="280.67"/><line class="f" x1="418.57" y1="275.32" x2="377.23" y2="275.32"/><line class="f" x1="418.57" y1="280.67" x2="418.57" y2="275.32"/><line class="f" x1="377.23" y1="280.67" x2="418.57" y2="280.67"/><polygon class="g" points="279.93 386.16 279.41 387.42 278.15 387.94 276.89 387.42 276.37 386.16 276.89 384.9 278.15 384.38 279.41 384.9 279.93 386.16"/><g class="i"><path class="f" d="M279.93,386.16a1.78,1.78,0,0,1-3.56,0"/><path class="f" d="M276.37,386.16a1.78,1.78,0,0,1,3.56,0"/></g><rect class="d" x="281.71" y="384.38" width="49.9" height="3.56"/><line class="f" x1="331.61" y1="387.94" x2="331.61" y2="384.38"/><line class="f" x1="281.72" y1="387.94" x2="331.61" y2="387.94"/><line class="f" x1="281.72" y1="384.38" x2="281.72" y2="387.94"/><line class="f" x1="331.61" y1="384.38" x2="281.71" y2="384.38"/><polygon class="g" points="484.85 386.82 484.33 388.08 483.07 388.6 481.81 388.08 481.29 386.82 481.81 385.56 483.07 385.04 484.33 385.56 484.85 386.82"/><g class="i"><path class="f" d="M484.85,386.82a1.78,1.78,0,0,1-3.56,0"/><path class="f" d="M481.29,386.82a1.78,1.78,0,0,1,3.56,0"/></g><rect class="d" x="486.64" y="385.7" width="28.51" height="2.24"/><line class="f" x1="486.64" y1="387.94" x2="515.15" y2="387.94"/><line class="f" x1="486.64" y1="385.69" x2="486.64" y2="387.94"/><line class="f" x1="515.15" y1="385.69" x2="486.64" y2="385.69"/><line class="f" x1="515.15" y1="387.94" x2="515.15" y2="385.69"/><polygon class="g" points="536.17 283.16 472.02 283.16 472.02 293.85 472.02 347.31 472.57 350.04 474.11 352.35 476.43 353.9 479.15 354.44 529.04 354.44 531.77 353.9 534.09 352.35 535.63 350.04 536.17 347.31 536.17 283.16"/><rect class="d" x="536.17" y="283.16" width="12.47" height="10.69"/><rect class="d" x="459.55" y="283.16" width="12.47" height="10.69"/><line class="f" x1="502.08" y1="295.01" x2="501.23" y2="291.93"/><line class="f" x1="532.01" y1="295.01" x2="531.15" y2="291.93"/><line class="f" x1="479.15" y1="354.44" x2="529.05" y2="354.44"/><line class="f" x1="536.17" y1="347.31" x2="536.17" y2="283.16"/><line class="f" x1="536.17" y1="283.16" x2="472.02" y2="283.16"/><line class="f" x1="472.02" y1="283.16" x2="472.02" y2="347.31"/><line class="f" x1="536.17" y1="283.16" x2="548.65" y2="283.16"/><line class="f" x1="548.65" y1="283.16" x2="548.65" y2="293.85"/><line class="f" x1="548.65" y1="293.85" x2="536.17" y2="293.85"/><line class="f" x1="536.17" y1="293.85" x2="536.17" y2="283.16"/><line class="f" x1="459.55" y1="283.16" x2="472.02" y2="283.16"/><line class="f" x1="472.02" y1="283.16" x2="472.02" y2="293.85"/><line class="f" x1="472.02" y1="293.85" x2="459.55" y2="293.85"/><line class="f" x1="459.55" y1="293.85" x2="459.55" y2="283.16"/><line class="f" x1="536.17" y1="306.88" x2="472.02" y2="306.88"/><line class="f" x1="536.17" y1="312.22" x2="472.02" y2="312.22"/><g class="i"><path class="f" d="M506.8,301.47a100.49,100.49,0,0,1,23.23-.35"/><path class="f" d="M532.35,299.16v.1a1.93,1.93,0,0,1-2.32,1.86"/><path class="f" d="M532,295a15.3,15.3,0,0,1,.36,3.3c0,.29,0,.57,0,.85"/><path class="f" d="M532.21,287.06c0,.86.06,1.72.06,2.57,0,1.8-.09,3.6-.26,5.38"/><path class="f" d="M531.74,286.54h.08a.41.41,0,0,1,.41.41.5.5,0,0,1,0,.12"/><path class="f" d="M531.74,286.54c-5.1.39-10.22.59-15.33.59q-4.85,0-9.68-.24"/><path class="f" d="M505.58,288.18a1.13,1.13,0,0,1-.05-.32,1,1,0,0,1,1-1l.21,0"/><path class="f" d="M505.58,288.18a47.62,47.62,0,0,1,.49,6.85,47.11,47.11,0,0,1-.31,5.44"/><path class="f" d="M506.8,301.47a.69.69,0,0,1-.25,0,.82.82,0,0,1-.82-.82.83.83,0,0,1,0-.22"/><path class="f" d="M536.17,347.31a7.13,7.13,0,0,1-7.13,7.13"/><path class="f" d="M479.15,354.44a7.12,7.12,0,0,1-7.12-7.13"/><path class="f" d="M476.88,301.47a100.49,100.49,0,0,1,23.23-.35"/><path class="f" d="M502.42,299.16v.1a1.9,1.9,0,0,1-1.91,1.9,1.81,1.81,0,0,1-.4,0"/><path class="f" d="M502.08,295a15.3,15.3,0,0,1,.36,3.3c0,.29,0,.57,0,.85"/><path class="f" d="M502.28,287.06c0,.86.06,1.72.06,2.57a53.54,53.54,0,0,1-.26,5.38"/><path class="f" d="M501.81,286.54h.09a.4.4,0,0,1,.4.41.25.25,0,0,1,0,.12"/><path class="f" d="M501.81,286.54q-7.65.58-15.33.59c-3.22,0-6.45-.08-9.67-.24"/><path class="f" d="M475.65,288.18a1.13,1.13,0,0,1,0-.32,1,1,0,0,1,1-1,.83.83,0,0,1,.22,0"/><path class="f" d="M475.65,288.18a47.63,47.63,0,0,1,.5,6.85,47.11,47.11,0,0,1-.31,5.44"/><path class="f" d="M476.88,301.47a.69.69,0,0,1-.25,0,.82.82,0,0,1-.82-.82.83.83,0,0,1,0-.22"/></g><polygon class="g" points="384.15 328.72 382.72 330.48 381.96 332.69 381.96 335.05 382.72 337.25 384.15 339.01 384.15 350.12 386.13 350.12 388.11 341.99 388.11 339.63 389.19 335.85 389.19 331.88 388.11 328.11 388.11 325.74 386.13 317.62 384.15 317.62 384.15 328.72"/><line class="f" x1="384.15" y1="317.61" x2="384.15" y2="328.72"/><line class="f" x1="386.13" y1="317.61" x2="384.15" y2="317.61"/><line class="f" x1="388.11" y1="325.74" x2="386.13" y2="317.61"/><line class="f" x1="388.11" y1="328.11" x2="388.11" y2="325.74"/><line class="f" x1="389.19" y1="331.88" x2="388.11" y2="328.11"/><line class="f" x1="389.19" y1="335.85" x2="389.19" y2="331.88"/><line class="f" x1="388.11" y1="339.63" x2="389.19" y2="335.85"/><line class="f" x1="388.11" y1="341.99" x2="388.11" y2="339.62"/><line class="f" x1="386.13" y1="350.12" x2="388.11" y2="341.99"/><line class="f" x1="384.15" y1="350.12" x2="386.13" y2="350.12"/><line class="f" x1="384.15" y1="339.01" x2="384.15" y2="350.12"/><line class="f" x1="382.72" y1="337.26" x2="384.15" y2="339.01"/><line class="f" x1="381.96" y1="335.05" x2="382.72" y2="337.26"/><line class="f" x1="381.96" y1="332.69" x2="381.96" y2="335.05"/><line class="f" x1="382.72" y1="330.48" x2="381.96" y2="332.69"/><line class="f" x1="384.15" y1="328.72" x2="382.72" y2="330.48"/><line class="f" x1="384.15" y1="317.61" x2="384.15" y2="350.12"/><line class="f" x1="388.11" y1="341.99" x2="388.11" y2="325.74"/><line class="f" x1="386.13" y1="317.61" x2="384.15" y2="317.61"/><line class="f" x1="384.94" y1="347.95" x2="384.94" y2="345.78"/><line class="f" x1="384.94" y1="345.78" x2="385.44" y2="345.78"/><line class="f" x1="385.44" y1="345.78" x2="385.44" y2="347.95"/><line class="f" x1="385.44" y1="347.95" x2="384.94" y2="347.95"/><line class="f" x1="384.94" y1="345.24" x2="384.94" y2="343.07"/><line class="f" x1="384.94" y1="343.08" x2="385.44" y2="343.08"/><line class="f" x1="385.44" y1="343.08" x2="385.44" y2="345.24"/><line class="f" x1="385.44" y1="345.24" x2="384.94" y2="345.24"/><line class="f" x1="386.13" y1="317.61" x2="386.13" y2="350.12"/><line class="f" x1="385.44" y1="342.53" x2="384.94" y2="342.53"/><line class="f" x1="384.94" y1="342.53" x2="384.94" y2="341.45"/><line class="f" x1="384.94" y1="341.45" x2="385.44" y2="341.45"/><line class="f" x1="385.44" y1="341.45" x2="385.44" y2="342.53"/><g class="i"><path class="f" d="M384.15,339a6.92,6.92,0,0,1,0-10.29"/></g><polygon class="g" points="323.62 265.22 326.58 267.49 328.85 270.43 330.28 273.87 330.77 277.55 337.68 273.57 338.99 272.27 339.46 270.49 338.99 268.71 335.42 262.55 334.11 261.24 332.32 260.77 330.54 261.24 323.62 265.22"/><polygon class="g" points="302.19 277.55 302.68 273.87 304.11 270.43 306.38 267.49 309.33 265.22 302.42 261.24 300.63 260.77 298.85 261.24 297.54 262.55 293.97 268.71 293.49 270.49 293.97 272.27 295.28 273.57 302.19 277.55"/><polygon class="g" points="323.62 289.88 320.18 291.3 316.48 291.79 312.78 291.3 309.33 289.88 309.33 297.84 309.81 299.62 311.12 300.92 312.91 301.4 320.05 301.4 321.83 300.92 323.14 299.62 323.62 297.84 323.62 289.88"/><polygon class="g" points="330.76 277.55 330.28 273.87 328.85 270.43 326.58 267.49 323.62 265.22 320.18 263.8 316.48 263.32 312.78 263.8 309.33 265.22 306.38 267.49 304.11 270.43 302.68 273.87 302.19 277.55 302.68 281.24 304.11 284.67 306.38 287.62 309.33 289.88 312.78 291.3 316.48 291.79 320.18 291.3 323.62 289.88 326.58 287.62 328.85 284.67 330.28 281.24 330.76 277.55"/><line class="f" x1="330.28" y1="281.24" x2="330.77" y2="277.55"/><line class="f" x1="328.85" y1="284.67" x2="330.28" y2="281.24"/><line class="f" x1="326.58" y1="287.62" x2="328.85" y2="284.67"/><line class="f" x1="323.62" y1="289.88" x2="326.58" y2="287.62"/><line class="f" x1="320.18" y1="291.3" x2="323.62" y2="289.88"/><line class="f" x1="316.48" y1="291.79" x2="320.18" y2="291.3"/><line class="f" x1="312.78" y1="291.3" x2="316.48" y2="291.79"/><line class="f" x1="309.34" y1="289.88" x2="312.78" y2="291.3"/><line class="f" x1="306.38" y1="287.62" x2="309.33" y2="289.88"/><line class="f" x1="304.11" y1="284.67" x2="306.38" y2="287.62"/><line class="f" x1="302.68" y1="281.24" x2="304.11" y2="284.67"/><line class="f" x1="302.19" y1="277.55" x2="302.68" y2="281.24"/><line class="f" x1="302.68" y1="273.87" x2="302.19" y2="277.55"/><line class="f" x1="304.11" y1="270.43" x2="302.68" y2="273.87"/><line class="f" x1="306.38" y1="267.49" x2="304.11" y2="270.43"/><line class="f" x1="309.34" y1="265.22" x2="306.38" y2="267.48"/><line class="f" x1="312.78" y1="263.8" x2="309.33" y2="265.22"/><line class="f" x1="316.48" y1="263.32" x2="312.78" y2="263.8"/><line class="f" x1="320.18" y1="263.8" x2="316.48" y2="263.32"/><line class="f" x1="323.62" y1="265.22" x2="320.18" y2="263.8"/><line class="f" x1="326.58" y1="267.49" x2="323.62" y2="265.22"/><line class="f" x1="328.85" y1="270.43" x2="326.58" y2="267.49"/><line class="f" x1="330.28" y1="273.87" x2="328.85" y2="270.43"/><line class="f" x1="330.77" y1="277.55" x2="330.28" y2="273.87"/><g class="i"><path class="f" d="M316.48,291.78a14.24,14.24,0,1,1,0-28.47"/><path class="f" d="M316.48,263.31a14.24,14.24,0,1,1,0,28.47"/></g><line class="f" x1="333.87" y1="263.44" x2="337.44" y2="269.6"/><line class="f" x1="337.68" y1="273.57" x2="330.76" y2="277.55"/><line class="f" x1="335.42" y1="262.55" x2="338.99" y2="268.71"/><line class="f" x1="323.62" y1="265.22" x2="330.54" y2="261.24"/><line class="f" x1="295.52" y1="269.6" x2="299.09" y2="263.44"/><line class="f" x1="302.42" y1="261.24" x2="309.33" y2="265.22"/><line class="f" x1="293.97" y1="268.71" x2="297.54" y2="262.55"/><line class="f" x1="302.19" y1="277.55" x2="295.28" y2="273.57"/><line class="f" x1="320.05" y1="299.62" x2="312.91" y2="299.62"/><line class="f" x1="309.34" y1="297.84" x2="309.34" y2="289.88"/><line class="f" x1="320.05" y1="301.4" x2="312.91" y2="301.4"/><line class="f" x1="323.62" y1="289.88" x2="323.62" y2="297.84"/><g class="i"><path class="f" d="M337.44,269.6a1.75,1.75,0,0,1,.24.89,1.78,1.78,0,0,1-.89,1.54"/><path class="f" d="M331.43,262.79a1.75,1.75,0,0,1,.89-.24,1.79,1.79,0,0,1,1.55.89"/><path class="f" d="M339,268.71a3.57,3.57,0,0,1-1.31,4.86"/><path class="f" d="M330.54,261.24a3.59,3.59,0,0,1,4.88,1.31"/><path class="f" d="M299.09,263.44a1.79,1.79,0,0,1,1.54-.89,1.76,1.76,0,0,1,.9.24"/><path class="f" d="M296.17,272a1.78,1.78,0,0,1-.89-1.54,1.75,1.75,0,0,1,.24-.89"/><path class="f" d="M297.54,262.55a3.59,3.59,0,0,1,3.1-1.78,3.5,3.5,0,0,1,1.78.48"/><path class="f" d="M295.28,273.57a3.54,3.54,0,0,1-1.79-3.08,3.6,3.6,0,0,1,.48-1.78"/><path class="f" d="M312.91,299.61a1.78,1.78,0,0,1-1.79-1.78"/><path class="f" d="M321.84,297.84a1.78,1.78,0,0,1-1.79,1.77"/><path class="f" d="M312.91,301.39a3.56,3.56,0,0,1-3.58-3.55"/><path class="f" d="M323.62,297.84a3.56,3.56,0,0,1-3.57,3.55"/></g><rect class="d" x="396.11" y="336.98" width="21.38" height="52.75"/><line class="f" x1="417.5" y1="389.72" x2="417.5" y2="336.98"/><line class="f" x1="417.5" y1="336.98" x2="396.11" y2="336.98"/><line class="f" x1="396.12" y1="336.98" x2="396.12" y2="389.72"/><line class="f" x1="396.12" y1="389.72" x2="417.5" y2="389.72"/><line class="f" x1="406.81" y1="387.08" x2="406.81" y2="339.61"/><line class="f" x1="413.1" y1="384.64" x2="400.29" y2="380.18"/><line class="f" x1="413.73" y1="379.61" x2="401.82" y2="377.76"/><line class="f" x1="399.1" y1="372.74" x2="412.18" y2="371.22"/><line class="f" x1="400.81" y1="364.96" x2="412.18" y2="367.02"/><line class="f" x1="400.16" y1="362.13" x2="414.16" y2="362.13"/><line class="f" x1="400.1" y1="354.11" x2="413.93" y2="356.01"/><line class="f" x1="400.33" y1="351.11" x2="412.97" y2="351.11"/><line class="f" x1="400.2" y1="343.2" x2="413.16" y2="341.68"/><line class="f" x1="401.08" y1="345.1" x2="412.04" y2="346.64"/><rect class="d" x="396.11" y="283.16" width="21.38" height="53.81"/><line class="f" x1="417.5" y1="336.98" x2="417.5" y2="283.16"/><line class="f" x1="417.5" y1="283.16" x2="396.11" y2="283.16"/><line class="f" x1="396.12" y1="283.16" x2="396.12" y2="336.98"/><line class="f" x1="396.12" y1="336.98" x2="417.5" y2="336.98"/><line class="f" x1="406.81" y1="334.29" x2="406.81" y2="285.85"/><line class="f" x1="413.1" y1="331.79" x2="400.29" y2="327.24"/><line class="f" x1="413.73" y1="326.66" x2="401.82" y2="324.78"/><line class="f" x1="399.1" y1="319.65" x2="412.18" y2="318.1"/><line class="f" x1="400.81" y1="311.71" x2="412.18" y2="313.81"/><line class="f" x1="400.16" y1="308.82" x2="414.16" y2="308.82"/><line class="f" x1="400.1" y1="300.64" x2="413.93" y2="302.59"/><line class="f" x1="400.33" y1="297.58" x2="412.97" y2="297.58"/><line class="f" x1="400.2" y1="289.51" x2="413.16" y2="287.96"/><line class="f" x1="401.08" y1="291.45" x2="412.04" y2="293.03"/><polygon class="g" points="274.95 354.02 275.46 353.63 275.66 353.01 275.66 314.17 275.46 313.53 274.95 313.1 275.45 312.89 275.66 312.39 275.66 311.32 275.18 309.54 273.88 308.23 272.09 307.75 246.08 307.75 245.57 307.96 245.37 308.47 245.37 381.88 245.57 382.39 246.08 382.59 274.95 382.59 275.42 382.43 275.69 382.02 275.66 381.52 275.66 355.15 275.6 354.4 274.95 354.02"/><polygon class="g" points="298.82 354.08 301.55 354.63 303.86 356.17 305.41 358.49 305.95 361.21 305.95 375.47 305.41 378.2 303.86 380.5 301.55 382.05 298.82 382.59 276.73 382.59 275.97 382.28 275.66 381.52 275.66 355.15 275.97 354.4 276.73 354.08 298.82 354.08"/><g class="i"><path class="f" d="M298.82,354.08a7.13,7.13,0,0,1,7.13,7.13"/></g><line class="f" x1="305.95" y1="361.21" x2="305.95" y2="375.47"/><g class="i"><path class="f" d="M306,375.47a7.12,7.12,0,0,1-7.13,7.12"/></g><line class="f" x1="298.82" y1="382.59" x2="276.73" y2="382.59"/><g class="i"><path class="f" d="M276.73,382.59a1.06,1.06,0,0,1-1.07-1.07"/></g><line class="f" x1="275.66" y1="381.53" x2="275.66" y2="355.15"/><g class="i"><path class="f" d="M275.66,355.15a1.07,1.07,0,0,1,1.07-1.07"/></g><line class="f" x1="276.73" y1="354.08" x2="298.82" y2="354.08"/><line class="f" x1="275.66" y1="312.39" x2="275.66" y2="311.32"/><line class="f" x1="272.09" y1="307.75" x2="246.08" y2="307.75"/><line class="f" x1="245.36" y1="308.47" x2="245.36" y2="312.39"/><line class="f" x1="246.08" y1="313.1" x2="274.94" y2="313.1"/><line class="f" x1="245.36" y1="312.39" x2="245.36" y2="354.08"/><line class="f" x1="245.36" y1="354.08" x2="247.86" y2="354.08"/><line class="f" x1="275.66" y1="353.01" x2="275.66" y2="314.17"/><line class="f" x1="274.59" y1="313.1" x2="256.72" y2="313.1"/><line class="f" x1="256.72" y1="354.08" x2="274.59" y2="354.08"/><line class="f" x1="247.86" y1="313.1" x2="254.58" y2="313.1"/><line class="f" x1="254.58" y1="354.08" x2="247.86" y2="354.08"/><line class="f" x1="275.66" y1="377.96" x2="275.66" y2="381.88"/><line class="f" x1="274.94" y1="382.59" x2="246.08" y2="382.59"/><line class="f" x1="245.36" y1="381.88" x2="245.36" y2="377.96"/><line class="f" x1="245.36" y1="377.96" x2="245.36" y2="354.08"/><line class="f" x1="245.36" y1="354.08" x2="247.86" y2="354.08"/><line class="f" x1="275.66" y1="355.15" x2="275.66" y2="376.18"/><line class="f" x1="256.72" y1="354.08" x2="274.59" y2="354.08"/><line class="f" x1="256.72" y1="354.08" x2="247.86" y2="354.08"/><line class="f" x1="305.95" y1="361.21" x2="305.95" y2="375.47"/><line class="f" x1="298.82" y1="382.59" x2="276.73" y2="382.59"/><line class="f" x1="275.66" y1="381.53" x2="275.66" y2="355.15"/><line class="f" x1="276.73" y1="354.08" x2="298.82" y2="354.08"/><line class="f" x1="246.79" y1="355.15" x2="246.79" y2="381.53"/><line class="f" x1="246.79" y1="353.01" x2="246.79" y2="314.17"/><g class="i"><path class="f" d="M245.36,308.47a.72.72,0,0,1,.72-.72"/><path class="f" d="M246.08,313.1a.71.71,0,0,1-.72-.71"/><path class="f" d="M275.66,312.39a.71.71,0,0,1-.72.71"/><path class="f" d="M274.59,313.1a1.07,1.07,0,0,1,1.07,1.07"/><path class="f" d="M275.66,353a1.06,1.06,0,0,1-1.07,1.07"/><path class="f" d="M275.66,381.88a.71.71,0,0,1-.72.71"/><path class="f" d="M246.08,382.59a.71.71,0,0,1-.72-.71"/><path class="f" d="M274.59,354.08a1.07,1.07,0,0,1,1.07,1.07"/><path class="f" d="M276.73,382.59a1.06,1.06,0,0,1-1.07-1.07"/><path class="f" d="M275.66,355.15a1.07,1.07,0,0,1,1.07-1.07"/></g><line class="f" x1="246.79" y1="381.53" x2="271.07" y2="381.53"/><g class="i"><path class="f" d="M266.16,380.24a20.2,20.2,0,0,1-15.22-25.13"/><path class="f" d="M251.78,314.17a122.43,122.43,0,0,1,0,38.84"/><path class="f" d="M298.82,354.08a7.13,7.13,0,0,1,7.13,7.13"/><path class="f" d="M306,375.47a7.12,7.12,0,0,1-7.13,7.12"/><path class="f" d="M272.09,307.75a3.57,3.57,0,0,1,3.57,3.57"/></g><line class="f" x1="566.11" y1="212.96" x2="566.11" y2="212.96"/><line class="f" x1="566.11" y1="212.96" x2="566.11" y2="269.27"/><line class="f" x1="566.11" y1="269.27" x2="566.11" y2="269.27"/><polygon class="g" points="505.55 218.3 505.55 230.06 505.82 231.82 506.62 233.42 507.87 234.7 509.88 235.76 512.14 236.12 514.39 235.76 516.42 234.7 517.66 233.42 518.46 231.82 518.74 230.06 518.74 218.3 505.55 218.3"/><line class="f" x1="518.74" y1="218.3" x2="518.74" y2="230.06"/><line class="f" x1="518.74" y1="218.3" x2="505.55" y2="218.3"/><line class="f" x1="505.55" y1="218.3" x2="505.55" y2="230.06"/><line class="f" x1="516.6" y1="222.58" x2="516.6" y2="230.06"/><line class="f" x1="507.69" y1="222.58" x2="507.69" y2="230.06"/><line class="f" x1="507.69" y1="222.58" x2="516.6" y2="222.58"/><g class="i"><path class="f" d="M518.74,230.06a5.8,5.8,0,0,1-2.32,4.64"/><path class="f" d="M507.87,234.7a5.8,5.8,0,0,1-2.32-4.64"/><path class="f" d="M516.42,234.7a7.15,7.15,0,0,1-8.55,0"/><path class="f" d="M507.87,234.7a5.8,5.8,0,0,1-2.32-4.64"/><path class="f" d="M512.14,236.12a7.13,7.13,0,0,1-4.27-1.42"/><path class="f" d="M509.15,233a3.67,3.67,0,0,1-1.46-2.93"/><path class="f" d="M515.14,233a5.07,5.07,0,0,1-3,1,5,5,0,0,1-3-1"/><path class="f" d="M516.6,230.06a3.69,3.69,0,0,1-1.46,2.93"/></g><polygon class="g" points="477.01 218.3 495.55 218.3 495.92 218.46 496.08 218.84 496.08 233.45 495.92 233.83 495.55 233.98 477.01 233.98 476.64 233.83 476.48 233.45 476.48 218.84 476.64 218.46 477.01 218.3"/><line class="f" x1="477.01" y1="218.3" x2="495.55" y2="218.3"/><g class="i"><path class="f" d="M495.55,218.3a.54.54,0,0,1,.53.54"/></g><line class="f" x1="496.08" y1="218.84" x2="496.08" y2="233.45"/><g class="i"><path class="f" d="M496.08,233.45a.54.54,0,0,1-.54.53"/></g><line class="f" x1="495.55" y1="233.98" x2="477.01" y2="233.98"/><g class="i"><path class="f" d="M477,234a.53.53,0,0,1-.53-.53"/></g><line class="f" x1="476.48" y1="233.45" x2="476.48" y2="218.84"/><g class="i"><path class="f" d="M476.48,218.84a.54.54,0,0,1,.53-.54"/></g><line class="f" x1="478.08" y1="222.22" x2="494.48" y2="222.22"/><line class="f" x1="495.01" y1="222.76" x2="495.01" y2="232.38"/><line class="f" x1="494.48" y1="232.91" x2="478.08" y2="232.91"/><line class="f" x1="477.55" y1="232.38" x2="477.55" y2="222.76"/><g class="i"><path class="f" d="M494.48,222.22a.54.54,0,0,1,.53.54"/><path class="f" d="M495,232.38a.53.53,0,0,1-.53.53"/><path class="f" d="M478.08,232.91a.53.53,0,0,1-.53-.53"/><path class="f" d="M477.55,222.76a.54.54,0,0,1,.53-.54"/></g><polygon class="g" points="485.39 220.44 485.53 221.94 485.64 222.28 485.88 224.16 486.02 224.41 486.28 224.51 486.54 224.41 486.68 224.16 486.91 222.28 487.03 221.94 487.17 220.44 486.91 219.81 486.28 219.55 485.65 219.81 485.39 220.44"/><g class="i"><path class="f" d="M485.39,220.44a.89.89,0,1,1,1.78,0"/></g><line class="f" x1="487.03" y1="221.94" x2="487.17" y2="220.44"/><g class="i"><path class="f" d="M487,221.94a.77.77,0,0,1-.12.33"/></g><line class="f" x1="486.68" y1="224.16" x2="486.91" y2="222.28"/><g class="i"><path class="f" d="M486.68,224.16a.4.4,0,0,1-.8,0"/></g><line class="f" x1="485.65" y1="222.28" x2="485.88" y2="224.16"/><g class="i"><path class="f" d="M485.65,222.28a.73.73,0,0,1-.12-.34"/></g><line class="f" x1="485.39" y1="220.44" x2="485.53" y2="221.94"/><line class="f" x1="486.76" y1="221.33" x2="486.76" y2="221.86"/><line class="f" x1="485.79" y1="221.86" x2="485.79" y2="221.33"/><line class="f" x1="485.79" y1="221.33" x2="486.76" y2="221.33"/><g class="i"><path class="f" d="M486.76,221.86a.48.48,0,1,1-1,0"/><path class="f" d="M486.91,222.28a.77.77,0,0,1-.63.34.74.74,0,0,1-.63-.34"/></g><line class="f" x1="386.49" y1="212.96" x2="393.62" y2="212.96"/><line class="f" x1="397.54" y1="212.96" x2="398.34" y2="212.96"/><line class="f" x1="402.26" y1="212.96" x2="403.06" y2="212.96"/><line class="f" x1="406.98" y1="212.96" x2="414.11" y2="212.96"/><line class="f" x1="418.03" y1="212.96" x2="418.57" y2="212.96"/><line class="f" x1="418.57" y1="212.96" x2="425.69" y2="212.96"/><line class="f" x1="298.88" y1="225.59" x2="298.88" y2="219.61"/><line class="f" x1="298.88" y1="219.62" x2="301.31" y2="221.58"/><line class="f" x1="301.31" y1="221.58" x2="303.74" y2="219.62"/><line class="f" x1="303.74" y1="219.62" x2="303.74" y2="225.59"/><line class="f" x1="561.83" y1="459.22" x2="276.73" y2="459.22"/><line class="f" x1="276.73" y1="459.22" x2="276.73" y2="403.98"/><line class="f" x1="233.96" y1="204.4" x2="233.96" y2="403.98"/><line class="f" x1="233.96" y1="403.98" x2="276.73" y2="403.98"/><line class="f" x1="276.73" y1="403.98" x2="276.73" y2="461"/><line class="f" x1="276.73" y1="461" x2="561.83" y2="461"/><line class="f" x1="561.83" y1="461" x2="561.83" y2="403.98"/><line class="f" x1="561.83" y1="403.98" x2="566.11" y2="403.98"/><line class="f" x1="566.11" y1="403.98" x2="566.11" y2="204.4"/><line class="f" x1="566.11" y1="204.4" x2="233.96" y2="204.4"/><path class="j" d="M442.79,420.13v7h-.72v-6.36h-1.65v-.64Z"/><path class="j" d="M444.47,426.63a.53.53,0,0,1,.53-.54.54.54,0,0,1,.54.54.55.55,0,0,1-.54.55A.54.54,0,0,1,444.47,426.63Z"/><path class="j" d="M446.48,423.63c0-2.23,1.17-3.56,2.79-3.56s2.8,1.33,2.8,3.56-1.18,3.56-2.8,3.56S446.48,425.86,446.48,423.63Zm4.85,0c0-1.87-.84-2.9-2.06-2.9s-2.06,1-2.06,2.9.84,2.9,2.06,2.9S451.33,425.5,451.33,423.63Z"/><path class="j" d="M457.85,425.07c0,1.19-.83,2.12-2.54,2.12a3.61,3.61,0,0,1-2.51-.9l.35-.57a3,3,0,0,0,2.15.81c1.19,0,1.82-.58,1.82-1.43s-.56-1.46-2.34-1.46h-1.49l.36-3.51h3.83v.64h-3.2L454,423h.9C457.05,423,457.85,423.83,457.85,425.07Z"/><path class="j" d="M485.1,250.32v7h-.72V251h-1.65v-.64Z"/><path class="j" d="M486.78,256.82a.53.53,0,0,1,.53-.54.54.54,0,0,1,.54.54.55.55,0,0,1-.54.55A.54.54,0,0,1,486.78,256.82Z"/><path class="j" d="M488.79,253.82c0-2.23,1.17-3.56,2.79-3.56s2.8,1.33,2.8,3.56-1.18,3.56-2.8,3.56S488.79,256.05,488.79,253.82Zm4.85,0c0-1.87-.84-2.9-2.06-2.9s-2.06,1-2.06,2.9.84,2.9,2.06,2.9S493.64,255.69,493.64,253.82Z"/><path class="j" d="M501.36,255.48H500v1.84h-.72v-1.84h-3.95V255l3.71-4.64h.8l-3.58,4.52h3v-1.62h.7v1.62h1.4Z"/><path class="j" d="M442.79,323.34v7h-.72V324h-1.65v-.64Z"/><path class="j" d="M444.47,329.84a.53.53,0,0,1,.53-.54.54.54,0,0,1,.54.54.55.55,0,0,1-.54.55A.54.54,0,0,1,444.47,329.84Z"/><path class="j" d="M446.48,326.84c0-2.23,1.17-3.56,2.79-3.56s2.8,1.33,2.8,3.56-1.18,3.56-2.8,3.56S446.48,329.07,446.48,326.84Zm4.85,0c0-1.87-.84-2.9-2.06-2.9s-2.06,1-2.06,2.9.84,2.9,2.06,2.9S451.33,328.71,451.33,326.84Z"/><path class="j" d="M457.64,328.33c0,1.17-.85,2.07-2.54,2.07a3.64,3.64,0,0,1-2.52-.9l.35-.57a3.07,3.07,0,0,0,2.17.81c1.16,0,1.8-.54,1.8-1.41s-.59-1.39-1.89-1.39h-.5v-.53l1.94-2.43h-3.58v-.64h4.5v.51l-2,2.49C456.89,326.42,457.64,327.21,457.64,328.33Z"/><path class="j" d="M328.63,322.84v7h-.72v-6.36h-1.65v-.64Z"/><path class="j" d="M330.31,329.34a.53.53,0,0,1,.53-.54.54.54,0,0,1,.54.54.55.55,0,0,1-.54.55A.54.54,0,0,1,330.31,329.34Z"/><path class="j" d="M332.32,326.34c0-2.23,1.17-3.56,2.79-3.56s2.8,1.33,2.8,3.56-1.18,3.56-2.8,3.56S332.32,328.57,332.32,326.34Zm4.85,0c0-1.87-.84-2.9-2.06-2.9s-2.06,1-2.06,2.9.84,2.9,2.06,2.9S337.17,328.21,337.17,326.34Z"/><path class="j" d="M343.71,329.2v.64H338.8v-.51l2.91-2.85c.79-.78.94-1.25.94-1.73,0-.81-.57-1.31-1.64-1.31a2.38,2.38,0,0,0-1.91.78l-.51-.44a3.15,3.15,0,0,1,2.48-1c1.42,0,2.32.72,2.32,1.89a2.88,2.88,0,0,1-1.15,2.19l-2.38,2.34Z"/><path class="j" d="M408.57,250.32v7h-.72V251H406.2v-.64Z"/><path class="j" d="M410.25,256.82a.53.53,0,0,1,.53-.54.54.54,0,0,1,.54.54.55.55,0,0,1-.54.55A.54.54,0,0,1,410.25,256.82Z"/><path class="j" d="M412.26,253.82c0-2.23,1.17-3.56,2.79-3.56s2.8,1.33,2.8,3.56-1.18,3.56-2.8,3.56S412.26,256.05,412.26,253.82Zm4.85,0c0-1.87-.84-2.9-2.06-2.9s-2.06,1-2.06,2.9.84,2.9,2.06,2.9S417.11,255.69,417.11,253.82Z"/><path class="j" d="M420.81,250.32v7h-.72V251h-1.65v-.64Z"/></svg>