<svg xmlns="http://www.w3.org/2000/svg" xmlns:xlink="http://www.w3.org/1999/xlink" viewBox="0 0 790.58 618.13"><defs><style>.a,.f{fill:none;}.b{fill:#595a5c;}.c{fill:#b6906c;}.d{fill:#fff;}.e{fill:#231f20;}.f{stroke:#000;stroke-linecap:round;stroke-linejoin:round;stroke-width:0.34px;}.g{clip-path:url(#a);}.h{fill:#58595b;}</style><clipPath id="a"><polygon class="a" points="407.94 184.56 303.32 184.56 303.32 378.23 307.42 378.23 307.42 433.57 477.01 433.57 477.01 378.23 487.26 378.23 487.26 184.56 407.94 184.56"/></clipPath></defs><path class="b" d="M55.31,597.13H57.1V609.9H55.31Zm.92,6.11h4.09a1.89,1.89,0,0,0,1-.27,1.82,1.82,0,0,0,.68-.77,2.67,2.67,0,0,0,.24-1.16,2.7,2.7,0,0,0-.24-1.16,1.82,1.82,0,0,0-1.7-1H56.23v-1.7h4a4.09,4.09,0,0,1,2,.48A3.45,3.45,0,0,1,63.62,599a4.64,4.64,0,0,1,0,4.11,3.34,3.34,0,0,1-1.35,1.36,4,4,0,0,1-2,.49h-4Z"/><path class="b" d="M67.7,606.33a2.07,2.07,0,0,0,.49,1.48,1.76,1.76,0,0,0,1.37.52,1.89,1.89,0,0,0,1.37-.46,1.79,1.79,0,0,0,.48-1.33l.12,1.91A2.58,2.58,0,0,1,69.06,610a2.89,2.89,0,0,1-2.33-1,4.08,4.08,0,0,1-.82-2.73v-5.55H67.7Zm.22-7.86a1.93,1.93,0,0,1-.56-1.5,2.07,2.07,0,0,1,.56-1.57,2.56,2.56,0,0,1,3.18,0,2.08,2.08,0,0,1,.57,1.56,1.94,1.94,0,0,1-.57,1.5,2.65,2.65,0,0,1-3.18,0Zm2.26-.86a.94.94,0,0,0,.24-.68,1,1,0,0,0-.24-.7.91.91,0,0,0-.67-.25.92.92,0,0,0-.67.25,1,1,0,0,0-.23.7,1,1,0,0,0,.23.68.92.92,0,0,0,.67.24A.9.9,0,0,0,70.18,597.61Zm1.23,3.17h1.78v9.12H71.41Z"/><path class="b" d="M77.1,609.63A2.82,2.82,0,0,1,76,608.36a5.08,5.08,0,0,1-.36-2v-2a5.05,5.05,0,0,1,.36-2,2.71,2.71,0,0,1,1-1.27,3,3,0,0,1,1.65-.44,2.71,2.71,0,0,1,1.48.42,3.22,3.22,0,0,1,1.09,1.19l-.18,1.86a2.19,2.19,0,0,0-.22-1,1.48,1.48,0,0,0-.61-.63,2,2,0,0,0-1-.21,1.71,1.71,0,0,0-1.37.55,2.26,2.26,0,0,0-.49,1.56v2a2.19,2.19,0,0,0,.49,1.54,1.74,1.74,0,0,0,1.37.54,1.93,1.93,0,0,0,1-.23,1.45,1.45,0,0,0,.61-.64,2.25,2.25,0,0,0,.22-1l.12,1.92a2.66,2.66,0,0,1-.89,1.14,2.56,2.56,0,0,1-1.53.45A3.19,3.19,0,0,1,77.1,609.63Zm4-12.5H82.9V609.9H81.11Z"/><path class="b" d="M87.09,609.57a3.09,3.09,0,0,1-1.29-1.36,4.85,4.85,0,0,1-.44-2.15v-1.48a4.71,4.71,0,0,1,.44-2.12,3.12,3.12,0,0,1,1.29-1.35,4.71,4.71,0,0,1,4.06,0,3.12,3.12,0,0,1,1.29,1.35,4.71,4.71,0,0,1,.44,2.12v1.51a4.79,4.79,0,0,1-.44,2.13,3.12,3.12,0,0,1-1.29,1.35,4.62,4.62,0,0,1-4.06,0Zm3.49-1.83a2.43,2.43,0,0,0,.51-1.65v-1.51a2.43,2.43,0,0,0-.51-1.65,1.88,1.88,0,0,0-1.46-.58,1.85,1.85,0,0,0-1.45.58,2.38,2.38,0,0,0-.52,1.65v1.51a2.38,2.38,0,0,0,.52,1.65,1.82,1.82,0,0,0,1.45.59A1.85,1.85,0,0,0,90.58,607.74Z"/><path class="b" d="M95.43,600.78h1.79v9.12H95.43Zm4.42,1.72a2.16,2.16,0,0,0-.83-.15,1.83,1.83,0,0,0-1.33.47,1.79,1.79,0,0,0-.47,1.31L97,602.37a3.32,3.32,0,0,1,1.09-1.27,2.58,2.58,0,0,1,1.48-.45,3.39,3.39,0,0,1,1.13.18,2.62,2.62,0,0,1,.88.53l-1.17,1.58A1.56,1.56,0,0,0,99.85,602.5Z"/><path class="b" d="M102.15,600.78H104l2.81,7.93-1,1.94Zm8.07,0L106.34,612a2.6,2.6,0,0,1-.56,1,1.87,1.87,0,0,1-.84.52,4,4,0,0,1-1.23.16h-.36V612h.36a1.46,1.46,0,0,0,.8-.2,1.74,1.74,0,0,0,.51-.7l3.38-10.31Z"/><path class="b" d="M113.51,609.88a5.76,5.76,0,0,1-1.32-.48,4.89,4.89,0,0,1-1.13-.79l1.06-1.31a5.86,5.86,0,0,0,1.47.85,4.18,4.18,0,0,0,1.44.28,3.11,3.11,0,0,0,1.6-.33,1.1,1.1,0,0,0,.53-1,.79.79,0,0,0-.29-.66,1.66,1.66,0,0,0-.72-.29c-.29,0-.69-.1-1.22-.14h-.15l-.14,0h-.15a6.45,6.45,0,0,1-1.5-.26,2,2,0,0,1-1-.7,2.38,2.38,0,0,1-.41-1.49,3.07,3.07,0,0,1,.39-1.61,2.41,2.41,0,0,1,1.18-1,5.29,5.29,0,0,1,2-.32,6.38,6.38,0,0,1,2.6.52,6.16,6.16,0,0,1,1.13.66l-1.08,1.31a5.59,5.59,0,0,0-1.35-.66,4,4,0,0,0-1.3-.22,2.44,2.44,0,0,0-1.37.31,1.08,1.08,0,0,0-.46.94.64.64,0,0,0,.26.55,1.72,1.72,0,0,0,.66.25c.26,0,.64.07,1.12.1h.34a7.67,7.67,0,0,1,1.63.25,2.24,2.24,0,0,1,1.13.77,2.62,2.62,0,0,1,.45,1.65,2.92,2.92,0,0,1-.42,1.63,2.54,2.54,0,0,1-1.27,1A5.88,5.88,0,0,1,115,610,7.38,7.38,0,0,1,113.51,609.88Z"/><path class="b" d="M126,597.13h1.8V609.9H126Zm2.6,12.5a2.39,2.39,0,0,1-.93-1.16l.13-1.91a2.22,2.22,0,0,0,.21,1,1.48,1.48,0,0,0,.61.63,1.93,1.93,0,0,0,1,.22,1.74,1.74,0,0,0,1.37-.54,2.18,2.18,0,0,0,.49-1.53v-2a2.26,2.26,0,0,0-.49-1.56,1.71,1.71,0,0,0-1.37-.55,2,2,0,0,0-1,.21,1.36,1.36,0,0,0-.61.62,2.12,2.12,0,0,0-.21,1l-.19-1.76a3.37,3.37,0,0,1,1.08-1.24,2.67,2.67,0,0,1,1.49-.43,3,3,0,0,1,1.65.43,2.9,2.9,0,0,1,1.06,1.27,5.1,5.1,0,0,1,.36,2v2a4.94,4.94,0,0,1-.37,2,2.79,2.79,0,0,1-1.08,1.26,3.25,3.25,0,0,1-1.71.44A2.73,2.73,0,0,1,128.57,609.63Z"/><path class="b" d="M134.46,600.78h1.82l2.81,7.93-1,1.94Zm8.07,0L138.65,612a2.6,2.6,0,0,1-.56,1,1.87,1.87,0,0,1-.84.52,4,4,0,0,1-1.23.16h-.36V612H136a1.46,1.46,0,0,0,.8-.2,1.74,1.74,0,0,0,.51-.7l3.37-10.31Z"/><path class="b" d="M143.57,600.78h4.12v1.62h-4.12Zm1.46,8.56a2.77,2.77,0,0,1-.52-1.81v-9.4h1.8v9.42a.84.84,0,0,0,.13.51.46.46,0,0,0,.39.18h.86V610h-1A2,2,0,0,1,145,609.34Z"/><path class="b" d="M151.94,606.33a2.07,2.07,0,0,0,.49,1.48,1.76,1.76,0,0,0,1.37.52,1.91,1.91,0,0,0,1.37-.46,1.79,1.79,0,0,0,.48-1.33l.12,1.91A2.58,2.58,0,0,1,153.3,610a2.89,2.89,0,0,1-2.33-1,4.08,4.08,0,0,1-.82-2.73v-5.55h1.79Zm3.71-5.55h1.78v9.12h-1.78Z"/><rect class="c" x="612.92" y="591.68" width="35.43" height="2.83"/><path class="d" d="M648.48,594.64H612.79v-3.08h35.69ZM613,594.39h35.19v-2.58H613Z"/><rect class="c" x="612.92" y="601.6" width="70.74" height="2.83"/><path class="d" d="M683.78,604.56h-71v-3.08h71ZM613,604.31h70.49v-2.58H613Z"/><rect class="c" x="612.92" y="612.72" width="177.16" height="2.84"/><path class="d" d="M790.21,615.68H612.79V612.6H790.21ZM613,615.43H790v-2.58H613Z"/><path class="e" d="M587.26,596.28h-.8v-4.82l-.81.5v-.83l.81-.53h.8Z"/><path class="e" d="M589,595.91a1.67,1.67,0,0,1-.41-1.19v-2.58A1.65,1.65,0,0,1,589,591a2,2,0,0,1,2.42,0,1.65,1.65,0,0,1,.41,1.19v2.58a1.65,1.65,0,0,1-.41,1.19,2,2,0,0,1-2.42,0Zm1.83-.55a.89.89,0,0,0,.2-.64v-2.58a.89.89,0,0,0-.2-.64.82.82,0,0,0-.62-.22.86.86,0,0,0-.63.22.94.94,0,0,0-.2.64v2.58a.9.9,0,0,0,.21.64,1,1,0,0,0,1.24,0Z"/><path class="e" d="M593.22,595.91a1.67,1.67,0,0,1-.41-1.19v-2.58a1.65,1.65,0,0,1,.41-1.19,2,2,0,0,1,2.42,0,1.61,1.61,0,0,1,.41,1.19v2.58a1.65,1.65,0,0,1-.41,1.19,2,2,0,0,1-2.42,0Zm1.83-.55a.9.9,0,0,0,.21-.64v-2.58a.94.94,0,0,0-.2-.64.86.86,0,0,0-.63-.22.82.82,0,0,0-.62.22.89.89,0,0,0-.2.64v2.58a.89.89,0,0,0,.2.64,1,1,0,0,0,1.24,0Z"/><path class="e" d="M600.1,596.13a1.45,1.45,0,0,1-.6-.6,2.06,2.06,0,0,1-.21-1v-.67a2,2,0,0,1,.21-.94,1.37,1.37,0,0,1,.6-.59,2,2,0,0,1,.95-.21,2.21,2.21,0,0,1,.59.08,1.68,1.68,0,0,1,.51.22,1.54,1.54,0,0,1,.37.35l-.58.52a1.17,1.17,0,0,0-.4-.3,1.13,1.13,0,0,0-.48-.11.94.94,0,0,0-.71.26,1,1,0,0,0-.26.72v.67a1,1,0,0,0,.25.74.94.94,0,0,0,.72.27,1,1,0,0,0,.48-.12,1,1,0,0,0,.4-.32l.58.56a1.38,1.38,0,0,1-.38.34,1.62,1.62,0,0,1-.5.22,2.27,2.27,0,0,1-.59.07A2.12,2.12,0,0,1,600.1,596.13Z"/><path class="e" d="M603.4,592.22h.79v4.06h-.79Zm2.42,1.6a1,1,0,0,0-.21-.67.78.78,0,0,0-.6-.23.81.81,0,0,0-.6.21.73.73,0,0,0-.22.58l-.08-.78a1.46,1.46,0,0,1,.49-.57,1.22,1.22,0,0,1,.67-.2,1.33,1.33,0,0,1,.73.2,1.18,1.18,0,0,1,.46.56,2.4,2.4,0,0,1,.15.89v2.47h-.79Zm2.42,0a.93.93,0,0,0-.22-.67.85.85,0,0,0-.63-.23.72.72,0,0,0-.57.23.9.9,0,0,0-.21.64l-.16-.78a1.61,1.61,0,0,1,.51-.63,1.23,1.23,0,0,1,.69-.22,1.37,1.37,0,0,1,.75.2,1.09,1.09,0,0,1,.47.56,2.21,2.21,0,0,1,.17.89v2.47h-.8Z"/><path class="e" d="M584.33,605.5l2-2.64a1.85,1.85,0,0,0,.27-.47,1.29,1.29,0,0,0,.09-.45h0a.67.67,0,0,0-.2-.53.81.81,0,0,0-.56-.19.76.76,0,0,0-.56.21,1,1,0,0,0-.27.58h-.82a2,2,0,0,1,.29-.83,1.42,1.42,0,0,1,.56-.53,1.67,1.67,0,0,1,.79-.18,1.93,1.93,0,0,1,.87.17,1.21,1.21,0,0,1,.54.51,1.55,1.55,0,0,1,.19.8h0a1.84,1.84,0,0,1-.12.63,2.8,2.8,0,0,1-.35.63l-1.65,2.24h2.15v.76h-3.2Z"/><path class="e" d="M589,605.83a1.67,1.67,0,0,1-.41-1.19v-2.58a1.65,1.65,0,0,1,.41-1.19,2,2,0,0,1,2.42,0,1.65,1.65,0,0,1,.41,1.19v2.58a1.65,1.65,0,0,1-.41,1.19,2,2,0,0,1-2.42,0Zm1.83-.55a.89.89,0,0,0,.2-.64v-2.58a.89.89,0,0,0-.2-.64.82.82,0,0,0-.62-.22.86.86,0,0,0-.63.22.94.94,0,0,0-.19.64v2.58a.89.89,0,0,0,.2.64,1,1,0,0,0,1.24,0Z"/><path class="e" d="M593.22,605.83a1.67,1.67,0,0,1-.41-1.19v-2.58a1.61,1.61,0,0,1,.42-1.19,1.59,1.59,0,0,1,1.2-.42,1.45,1.45,0,0,1,1.62,1.61v2.58a1.61,1.61,0,0,1-.41,1.19,2,2,0,0,1-2.42,0Zm1.84-.55a.94.94,0,0,0,.2-.64v-2.58a.94.94,0,0,0-.2-.64.84.84,0,0,0-.63-.22.82.82,0,0,0-.62.22.89.89,0,0,0-.2.64v2.58a.89.89,0,0,0,.2.64.82.82,0,0,0,.62.22A.86.86,0,0,0,595.06,605.28Z"/><path class="e" d="M600.1,606.05a1.45,1.45,0,0,1-.6-.6,2.06,2.06,0,0,1-.2-1v-.67a2,2,0,0,1,.2-.94,1.37,1.37,0,0,1,.6-.59,2,2,0,0,1,.95-.21,2.35,2.35,0,0,1,.6.08,1.73,1.73,0,0,1,.5.22,1.38,1.38,0,0,1,.37.35l-.58.52a1.08,1.08,0,0,0-.4-.3,1.13,1.13,0,0,0-.48-.11,1,1,0,0,0-.71.26,1,1,0,0,0-.26.72v.67a1,1,0,0,0,.25.74.94.94,0,0,0,.72.27,1.14,1.14,0,0,0,.88-.44l.58.56a1.38,1.38,0,0,1-.38.34,1.62,1.62,0,0,1-.5.22,2.22,2.22,0,0,1-.59.07A2.12,2.12,0,0,1,600.1,606.05Z"/><path class="e" d="M603.4,602.14h.79v4.06h-.79Zm2.42,1.6a1,1,0,0,0-.21-.67.78.78,0,0,0-.6-.23.81.81,0,0,0-.6.21.73.73,0,0,0-.22.58l-.08-.78a1.46,1.46,0,0,1,.49-.57,1.22,1.22,0,0,1,.67-.2,1.3,1.3,0,0,1,.73.2,1.18,1.18,0,0,1,.46.56,2.4,2.4,0,0,1,.16.89v2.47h-.8Zm2.42,0a.93.93,0,0,0-.22-.67.85.85,0,0,0-.63-.23.73.73,0,0,0-.57.23.89.89,0,0,0-.2.64l-.16-.78a1.51,1.51,0,0,1,.5-.63,1.23,1.23,0,0,1,.69-.22,1.35,1.35,0,0,1,.75.2,1.16,1.16,0,0,1,.48.56,2.4,2.4,0,0,1,.16.89v2.47h-.8Z"/><path class="e" d="M585,615.58a1.34,1.34,0,0,1-.54-.49,2,2,0,0,1-.28-.77h.8a.75.75,0,0,0,.25.49.85.85,0,0,0,.54.17.72.72,0,0,0,.59-.25,1.1,1.1,0,0,0,.21-.72v-.48a1.1,1.1,0,0,0-.21-.72.72.72,0,0,0-.59-.25.83.83,0,0,0-.4.11,1.18,1.18,0,0,0-.34.33h-.72v-3h2.89v.76h-2.1V612a1,1,0,0,1,.34-.18.94.94,0,0,1,.37-.07,1.68,1.68,0,0,1,.84.2,1.29,1.29,0,0,1,.53.6,2.07,2.07,0,0,1,.19.94V614a2.25,2.25,0,0,1-.19.94,1.31,1.31,0,0,1-.55.59,1.69,1.69,0,0,1-.86.21A1.74,1.74,0,0,1,585,615.58Z"/><path class="e" d="M589,615.32a1.65,1.65,0,0,1-.41-1.19v-2.58a1.67,1.67,0,0,1,.41-1.19,2,2,0,0,1,2.42,0,1.65,1.65,0,0,1,.41,1.19v2.58a1.64,1.64,0,0,1-.41,1.19,1.92,1.92,0,0,1-2.42,0Zm1.83-.55a.89.89,0,0,0,.2-.64v-2.58a.88.88,0,0,0-.2-.63.78.78,0,0,0-.62-.22.82.82,0,0,0-.63.22.93.93,0,0,0-.2.63v2.58a.9.9,0,0,0,.21.64,1,1,0,0,0,1.24,0Z"/><path class="e" d="M593.22,615.32a1.65,1.65,0,0,1-.41-1.19v-2.58a1.67,1.67,0,0,1,.41-1.19,2,2,0,0,1,2.42,0,1.61,1.61,0,0,1,.41,1.19v2.58a1.64,1.64,0,0,1-.41,1.19,1.92,1.92,0,0,1-2.42,0Zm1.83-.55a.9.9,0,0,0,.21-.64v-2.58a.93.93,0,0,0-.2-.63.82.82,0,0,0-.63-.22.78.78,0,0,0-.62.22.88.88,0,0,0-.2.63v2.58a.89.89,0,0,0,.2.64,1,1,0,0,0,1.24,0Z"/><path class="e" d="M600.1,615.54a1.45,1.45,0,0,1-.6-.6,2,2,0,0,1-.21-1v-.67a2,2,0,0,1,.21-.94,1.45,1.45,0,0,1,.6-.6,2,2,0,0,1,.95-.2,2.22,2.22,0,0,1,.59.07,2,2,0,0,1,.51.22,1.76,1.76,0,0,1,.37.35l-.58.52a1.17,1.17,0,0,0-.4-.3,1.13,1.13,0,0,0-.48-.11.94.94,0,0,0-.71.26,1,1,0,0,0-.26.73V614a1.07,1.07,0,0,0,.25.74,1,1,0,0,0,.72.26,1.13,1.13,0,0,0,.48-.11,1.26,1.26,0,0,0,.4-.32l.58.55a1.42,1.42,0,0,1-.38.35,1.88,1.88,0,0,1-.5.21,2.27,2.27,0,0,1-.59.08A2,2,0,0,1,600.1,615.54Z"/><path class="e" d="M603.4,611.63h.79v4.06h-.79Zm2.42,1.6a1,1,0,0,0-.21-.66.75.75,0,0,0-.6-.24.81.81,0,0,0-.6.21.75.75,0,0,0-.22.58l-.08-.78a1.5,1.5,0,0,1,.49-.56,1.15,1.15,0,0,1,.67-.2,1.32,1.32,0,0,1,.73.19,1.28,1.28,0,0,1,.46.56,2.42,2.42,0,0,1,.15.9v2.46h-.79Zm2.42,0a.91.91,0,0,0-.22-.66.82.82,0,0,0-.63-.24.72.72,0,0,0-.57.23.9.9,0,0,0-.21.64l-.16-.78a1.51,1.51,0,0,1,.51-.62,1.16,1.16,0,0,1,.69-.22,1.37,1.37,0,0,1,.75.19,1.18,1.18,0,0,1,.47.56,2.22,2.22,0,0,1,.17.9v2.46h-.8Z"/><path class="c" d="M23.49,613.89A12.92,12.92,0,1,1,36.4,601,12.93,12.93,0,0,1,23.49,613.89Zm0-24.83A11.92,11.92,0,1,0,35.4,601,11.93,11.93,0,0,0,23.49,589.06Z"/><polygon class="d" points="35.77 588.74 9.42 600.98 35.77 613.21 32.02 600.98 35.77 588.74"/><path class="c" d="M36.58,614.14,8.23,601l28.35-13.17-4,13.17ZM10.61,601,35,612.29,31.5,601,35,589.66Z"/><path class="c" d="M2.52,605.19a5,5,0,0,1-1.11-.38,4.4,4.4,0,0,1-1-.64l.81-1a3.72,3.72,0,0,0,1.16.69,4.08,4.08,0,0,0,1.38.23,2.73,2.73,0,0,0,1.55-.38,1.17,1.17,0,0,0,.55-1.05h0a1.12,1.12,0,0,0-.25-.77,1.44,1.44,0,0,0-.64-.42,8.23,8.23,0,0,0-1-.25H3.89l-.1,0a9.48,9.48,0,0,1-1.5-.36,2.08,2.08,0,0,1-1-.73,2.42,2.42,0,0,1-.41-1.51h0a2.77,2.77,0,0,1,.38-1.47,2.44,2.44,0,0,1,1.12-.92,4.48,4.48,0,0,1,1.77-.32,4.6,4.6,0,0,1,1,.11,4.9,4.9,0,0,1,1.86.86l-.73,1a4.61,4.61,0,0,0-1-.58,3,3,0,0,0-1.06-.2,2.44,2.44,0,0,0-1.46.38,1.24,1.24,0,0,0-.53,1.07h0a1,1,0,0,0,.27.75,1.74,1.74,0,0,0,.67.4,9.3,9.3,0,0,0,1.12.27h.24a7.93,7.93,0,0,1,1.4.41,2.22,2.22,0,0,1,.94.76,2.4,2.4,0,0,1,.38,1.43h0a2.62,2.62,0,0,1-.4,1.45,2.54,2.54,0,0,1-1.16.91,4.8,4.8,0,0,1-1.83.31A6.44,6.44,0,0,1,2.52,605.19Z"/><rect class="c" x="612.5" y="600.68" width="1" height="4.68"/><rect class="c" x="612.5" y="590.76" width="1" height="4.68"/><rect class="c" x="612.5" y="611.45" width="1" height="5.24"/><rect class="c" x="789.58" y="611.45" width="1" height="5.24"/><rect class="c" x="682.59" y="600.68" width="1" height="4.68"/><rect class="c" x="647.3" y="590.76" width="1" height="4.68"/><rect class="a" width="790.34" height="618.13"/><line class="f" x1="487.27" y1="378.24" x2="478.38" y2="378.24"/><line class="f" x1="413.41" y1="378.24" x2="308.79" y2="378.24"/><line class="f" x1="413.41" y1="374.78" x2="413.41" y2="378.24"/><line class="f" x1="444.19" y1="374.78" x2="413.41" y2="374.78"/><line class="f" x1="444.19" y1="378.24" x2="444.19" y2="374.78"/><line class="f" x1="475.64" y1="378.24" x2="444.18" y2="378.24"/><line class="f" x1="475.64" y1="430.11" x2="475.64" y2="378.23"/><line class="f" x1="308.79" y1="430.11" x2="475.64" y2="430.11"/><line class="f" x1="308.79" y1="378.24" x2="308.79" y2="430.11"/><line class="f" x1="306.05" y1="378.24" x2="303.32" y2="378.24"/><rect class="d" x="311.52" y="249.92" width="20.52" height="20.75"/><line class="f" x1="311.52" y1="249.92" x2="311.52" y2="270.67"/><line class="f" x1="332.04" y1="249.92" x2="311.52" y2="249.92"/><line class="f" x1="332.04" y1="270.67" x2="332.04" y2="249.92"/><line class="f" x1="311.52" y1="270.67" x2="332.04" y2="270.67"/><rect class="d" x="376.31" y="193.72" width="20.51" height="20.75"/><line class="f" x1="376.32" y1="193.72" x2="376.32" y2="214.47"/><line class="f" x1="396.83" y1="193.72" x2="376.32" y2="193.72"/><line class="f" x1="396.83" y1="214.47" x2="396.83" y2="193.72"/><line class="f" x1="376.32" y1="214.47" x2="396.83" y2="214.47"/><rect class="d" x="448.12" y="212.74" width="30.77" height="31.13"/><line class="f" x1="448.12" y1="212.74" x2="448.12" y2="243.87"/><line class="f" x1="478.89" y1="212.74" x2="448.12" y2="212.74"/><line class="f" x1="478.89" y1="243.87" x2="478.89" y2="212.74"/><line class="f" x1="448.12" y1="243.87" x2="478.89" y2="243.87"/><rect class="d" x="373.41" y="249.92" width="109.75" height="21.1"/><line class="f" x1="373.41" y1="249.92" x2="373.41" y2="271.02"/><line class="f" x1="483.16" y1="249.92" x2="373.41" y2="249.92"/><line class="f" x1="483.16" y1="271.02" x2="483.16" y2="249.92"/><line class="f" x1="373.41" y1="271.02" x2="483.16" y2="271.02"/><polygon points="307.42 378.24 303.32 378.24 303.32 371.32 345.03 371.32 345.03 378.24 307.42 378.24"/><polygon points="477.01 378.24 444.19 378.24 444.19 371.32 487.27 371.32 487.27 378.24 477.01 378.24"/><rect x="445.89" y="364.4" width="41.37" height="6.92"/><rect x="303.32" y="364.4" width="40" height="6.92"/><rect x="479.74" y="211.88" width="3.42" height="32.86"/><polygon points="303.32 364.4 303.32 192.86 303.32 184.56 334.43 184.56 334.43 192.86 311.52 192.86 311.52 364.4 303.32 364.4"/><polygon points="483.16 364.4 483.16 192.86 372.04 192.86 372.04 184.56 393.92 184.56 402.13 184.56 407.94 184.56 487.27 184.56 487.27 364.4 483.16 364.4"/><rect x="372.04" y="192.86" width="2.39" height="22.48"/><rect x="370.33" y="184.55" width="1.71" height="3.98"/><rect x="334.43" y="184.56" width="1.71" height="3.98"/><polygon points="448.97 211.88 448.97 192.85 452.39 192.85 452.39 208.42 483.16 208.42 483.16 211.88 448.97 211.88"/><rect x="311.52" y="247.5" width="24.62" height="2.42"/><rect x="307.42" y="378.23" width="1.37" height="51.88"/><rect x="475.64" y="378.23" width="1.37" height="51.88"/><polygon points="366.91 249.92 366.91 247.5 372.04 247.5 372.04 243.01 374.43 243.01 374.43 247.5 483.16 247.5 483.16 249.92 366.91 249.92"/><rect x="374.44" y="244.73" width="108.73" height="2.77"/><line class="f" x1="477.01" y1="378.24" x2="444.19" y2="378.24"/><line class="f" x1="487.27" y1="378.24" x2="477.01" y2="378.24"/><line class="f" x1="307.42" y1="378.24" x2="303.32" y2="378.24"/><line class="f" x1="345.03" y1="378.24" x2="307.42" y2="378.24"/><line class="f" x1="483.16" y1="364.4" x2="445.89" y2="364.4"/><line class="f" x1="343.32" y1="364.4" x2="311.52" y2="364.4"/><line class="f" x1="445.89" y1="364.4" x2="445.89" y2="371.32"/><line class="f" x1="343.32" y1="364.4" x2="343.32" y2="371.32"/><line class="f" x1="475.64" y1="378.24" x2="475.64" y2="430.11"/><line class="f" x1="475.64" y1="430.11" x2="477.01" y2="430.11"/><line class="f" x1="308.79" y1="378.24" x2="308.79" y2="430.11"/><line class="f" x1="307.42" y1="430.11" x2="308.79" y2="430.11"/><line class="f" x1="345.03" y1="371.32" x2="345.03" y2="378.24"/><line class="f" x1="343.32" y1="371.32" x2="345.03" y2="371.32"/><line class="f" x1="444.19" y1="371.32" x2="444.19" y2="378.24"/><line class="f" x1="444.19" y1="371.32" x2="445.89" y2="371.32"/><line class="f" x1="307.42" y1="430.11" x2="477.01" y2="430.11"/><line class="f" x1="345.03" y1="378.24" x2="413.41" y2="378.24"/><line class="f" x1="343.32" y1="364.4" x2="411.7" y2="364.4"/><line class="f" x1="411.7" y1="364.4" x2="411.7" y2="371.32"/><line class="f" x1="411.7" y1="364.4" x2="445.89" y2="364.4"/><line class="f" x1="413.41" y1="371.32" x2="413.41" y2="378.24"/><line class="f" x1="413.41" y1="374.78" x2="444.18" y2="374.78"/><line class="f" x1="414.44" y1="370.63" x2="414.44" y2="371.32"/><line class="f" x1="414.44" y1="371.32" x2="411.7" y2="371.32"/><line class="f" x1="411.7" y1="371.32" x2="411.7" y2="368.55"/><line class="f" x1="411.7" y1="368.55" x2="413.07" y2="368.55"/><line class="f" x1="413.07" y1="367.86" x2="415.81" y2="367.86"/><line class="f" x1="415.81" y1="367.86" x2="415.81" y2="370.63"/><line class="f" x1="415.81" y1="370.63" x2="413.07" y2="370.63"/><line class="f" x1="413.07" y1="370.63" x2="413.07" y2="367.86"/><line class="f" x1="444.53" y1="367.86" x2="441.79" y2="367.86"/><line class="f" x1="441.79" y1="367.86" x2="441.79" y2="370.63"/><line class="f" x1="441.79" y1="370.63" x2="444.53" y2="370.63"/><line class="f" x1="444.53" y1="370.63" x2="444.53" y2="367.86"/><line class="f" x1="415.81" y1="367.86" x2="441.79" y2="367.86"/><line class="f" x1="441.79" y1="370.63" x2="415.81" y2="370.63"/><line class="f" x1="415.81" y1="369.24" x2="441.79" y2="369.24"/><line class="f" x1="443.16" y1="370.63" x2="443.16" y2="371.32"/><line class="f" x1="443.16" y1="371.32" x2="445.89" y2="371.32"/><line class="f" x1="445.89" y1="371.32" x2="445.89" y2="368.55"/><line class="f" x1="445.89" y1="368.55" x2="444.53" y2="368.55"/><line class="f" x1="346.06" y1="370.63" x2="346.06" y2="371.32"/><line class="f" x1="346.06" y1="371.32" x2="343.32" y2="371.32"/><line class="f" x1="343.32" y1="371.32" x2="343.32" y2="368.55"/><line class="f" x1="343.32" y1="368.55" x2="344.69" y2="368.55"/><line class="f" x1="344.69" y1="367.86" x2="347.42" y2="367.86"/><line class="f" x1="347.42" y1="367.86" x2="347.42" y2="370.63"/><line class="f" x1="347.42" y1="370.63" x2="344.69" y2="370.63"/><line class="f" x1="344.69" y1="370.63" x2="344.69" y2="367.86"/><line class="f" x1="376.14" y1="370.63" x2="376.14" y2="371.32"/><line class="f" x1="376.14" y1="371.32" x2="378.88" y2="371.32"/><line class="f" x1="378.88" y1="371.32" x2="378.88" y2="368.55"/><line class="f" x1="378.88" y1="368.55" x2="377.51" y2="368.55"/><line class="f" x1="377.51" y1="367.86" x2="374.78" y2="367.86"/><line class="f" x1="374.78" y1="367.86" x2="374.78" y2="370.63"/><line class="f" x1="374.78" y1="370.63" x2="377.51" y2="370.63"/><line class="f" x1="377.51" y1="370.63" x2="377.51" y2="367.86"/><line class="f" x1="347.42" y1="367.86" x2="374.78" y2="367.86"/><line class="f" x1="374.78" y1="370.63" x2="347.42" y2="370.63"/><line class="f" x1="347.42" y1="369.24" x2="374.78" y2="369.24"/><line class="f" x1="411.7" y1="368.55" x2="408.97" y2="368.55"/><line class="f" x1="408.97" y1="368.55" x2="408.97" y2="371.32"/><line class="f" x1="408.97" y1="371.32" x2="411.7" y2="371.32"/><line class="f" x1="411.7" y1="371.32" x2="411.7" y2="368.55"/><line class="f" x1="408.97" y1="368.55" x2="378.88" y2="368.55"/><line class="f" x1="408.97" y1="369.93" x2="378.88" y2="369.93"/><line class="f" x1="408.97" y1="371.32" x2="378.88" y2="371.32"/><line class="f" x1="303.32" y1="364.4" x2="303.32" y2="260.99"/><line class="f" x1="311.52" y1="192.86" x2="334.43" y2="192.86"/><line class="f" x1="483.16" y1="249.92" x2="483.16" y2="364.4"/><line class="f" x1="311.52" y1="192.86" x2="311.52" y2="247.5"/><line class="f" x1="311.52" y1="249.92" x2="311.52" y2="364.4"/><line class="f" x1="303.32" y1="258.57" x2="303.32" y2="258.57"/><line class="f" x1="303.32" y1="260.99" x2="303.32" y2="260.99"/><line class="f" x1="374.43" y1="192.86" x2="448.97" y2="192.86"/><line class="f" x1="479.74" y1="244.73" x2="374.44" y2="244.73"/><line class="f" x1="374.43" y1="243.01" x2="374.43" y2="244.73"/><line class="f" x1="374.43" y1="192.86" x2="374.43" y2="215.34"/><line class="f" x1="372.04" y1="243.01" x2="372.04" y2="247.5"/><line class="f" x1="372.04" y1="192.86" x2="372.04" y2="215.34"/><line class="f" x1="372.04" y1="243.01" x2="374.43" y2="243.01"/><line class="f" x1="372.04" y1="215.34" x2="374.43" y2="215.34"/><line class="f" x1="448.97" y1="211.88" x2="479.74" y2="211.88"/><line class="f" x1="372.04" y1="247.5" x2="366.91" y2="247.5"/><line class="f" x1="336.14" y1="247.5" x2="311.52" y2="247.5"/><line class="f" x1="483.16" y1="249.92" x2="366.91" y2="249.92"/><line class="f" x1="336.14" y1="249.92" x2="311.52" y2="249.92"/><line class="f" x1="370.33" y1="188.53" x2="370.33" y2="184.56"/><line class="f" x1="336.14" y1="188.53" x2="336.14" y2="184.56"/><line class="f" x1="336.14" y1="188.53" x2="334.43" y2="188.53"/><line class="f" x1="370.33" y1="188.53" x2="372.04" y2="188.53"/><line class="f" x1="372.04" y1="188.53" x2="372.04" y2="192.86"/><line class="f" x1="334.43" y1="188.53" x2="334.43" y2="192.86"/><line class="f" x1="336.14" y1="247.5" x2="336.14" y2="249.92"/><line class="f" x1="366.91" y1="247.5" x2="366.91" y2="249.92"/><line class="f" x1="448.97" y1="192.86" x2="452.39" y2="192.86"/><line class="f" x1="479.74" y1="211.88" x2="479.74" y2="244.73"/><line class="f" x1="444.53" y1="367.86" x2="444.53" y2="336.04"/><g class="g"><path class="f" d="M413.07,367.86A31.64,31.64,0,0,1,444.53,336"/></g><line class="f" x1="373.41" y1="249.92" x2="483.16" y2="249.92"/><line class="f" x1="483.16" y1="249.92" x2="483.16" y2="271.02"/><line class="f" x1="483.16" y1="271.02" x2="373.41" y2="271.02"/><line class="f" x1="373.41" y1="271.02" x2="373.41" y2="249.92"/><line class="f" x1="374.43" y1="241.28" x2="374.43" y2="217.07"/><line class="f" x1="374.43" y1="241.28" x2="398.37" y2="241.28"/><g class="g"><path class="f" d="M374.43,217.07a24.07,24.07,0,0,1,23.94,24.21"/></g><line class="f" x1="372.04" y1="241.28" x2="374.43" y2="241.28"/><line class="f" x1="374.43" y1="217.07" x2="372.04" y2="217.07"/><line class="f" x1="374.43" y1="217.07" x2="374.43" y2="215.34"/><line class="f" x1="372.04" y1="217.07" x2="372.04" y2="215.34"/><line class="f" x1="374.43" y1="243.01" x2="374.43" y2="241.28"/><line class="f" x1="372.04" y1="243.01" x2="372.04" y2="241.28"/><line class="f" x1="372.04" y1="241.28" x2="372.04" y2="234.36"/><line class="f" x1="372.04" y1="230.55" x2="372.04" y2="229.78"/><line class="f" x1="372.04" y1="225.97" x2="372.04" y2="225.19"/><line class="f" x1="372.04" y1="223.98" x2="372.04" y2="217.07"/><line class="f" x1="374.43" y1="241.28" x2="375.29" y2="241.28"/><line class="f" x1="375.29" y1="241.28" x2="375.29" y2="244.73"/><line class="f" x1="375.29" y1="244.73" x2="374.44" y2="244.73"/><line class="f" x1="372.04" y1="241.28" x2="371.19" y2="241.28"/><line class="f" x1="371.19" y1="241.28" x2="371.19" y2="244.73"/><line class="f" x1="371.19" y1="244.73" x2="372.04" y2="244.73"/><line class="f" x1="375.29" y1="217.07" x2="375.29" y2="213.61"/><line class="f" x1="375.29" y1="213.61" x2="374.44" y2="213.61"/><line class="f" x1="372.04" y1="217.07" x2="371.19" y2="217.07"/><line class="f" x1="371.19" y1="217.07" x2="371.19" y2="213.61"/><line class="f" x1="371.19" y1="213.61" x2="372.04" y2="213.61"/><line class="f" x1="393.92" y1="271.02" x2="393.92" y2="250.27"/><line class="f" x1="386.08" y1="258.2" x2="381.25" y2="263.09"/><line class="f" x1="381.25" y1="258.2" x2="386.08" y2="263.09"/><line class="f" x1="383.67" y1="264.1" x2="383.67" y2="257.19"/><line class="f" x1="387.09" y1="260.64" x2="380.25" y2="260.64"/><line class="f" x1="373.41" y1="250.27" x2="373.41" y2="271.02"/><line class="f" x1="393.92" y1="271.02" x2="373.41" y2="271.02"/><line class="f" x1="481.97" y1="269.29" x2="463.16" y2="269.29"/><line class="f" x1="463.16" y1="269.29" x2="463.16" y2="252"/><line class="f" x1="463.16" y1="252" x2="481.97" y2="252"/><line class="f" x1="481.97" y1="252" x2="481.97" y2="269.29"/><line class="f" x1="482.82" y1="271.02" x2="462.31" y2="271.02"/><line class="f" x1="480.26" y1="267.56" x2="464.87" y2="267.56"/><line class="f" x1="464.87" y1="267.56" x2="464.87" y2="255.46"/><line class="f" x1="464.87" y1="255.46" x2="480.26" y2="255.46"/><line class="f" x1="480.26" y1="255.46" x2="480.26" y2="267.56"/><g class="g"><path class="f" d="M473.25,258.91a.69.69,0,0,0-.69-.69.7.7,0,0,0,0,1.39.69.69,0,0,0,.69-.7"/><path class="f" d="M425.55,256.84a3.08,3.08,0,1,0-3.08,3.11,3.09,3.09,0,0,0,3.08-3.11"/></g><line class="f" x1="427.26" y1="252" x2="427.26" y2="271.02"/><line class="f" x1="427.26" y1="271.02" x2="408.45" y2="271.02"/><line class="f" x1="408.45" y1="271.02" x2="408.45" y2="252"/><line class="f" x1="408.45" y1="252" x2="427.26" y2="252"/><g class="g"><path class="f" d="M425.55,266.18a3.08,3.08,0,1,0-3.08,3.11,3.09,3.09,0,0,0,3.08-3.11"/><path class="f" d="M416.32,266.18a3.08,3.08,0,1,0-3.08,3.11,3.09,3.09,0,0,0,3.08-3.11"/></g><line class="f" x1="411.02" y1="271.88" x2="424.7" y2="271.88"/><line class="f" x1="462.31" y1="250.27" x2="462.31" y2="271.02"/><line class="f" x1="462.31" y1="271.02" x2="441.79" y2="271.02"/><line class="f" x1="441.79" y1="271.02" x2="441.79" y2="250.27"/><line class="f" x1="368.62" y1="188.53" x2="337.85" y2="188.53"/><line class="f" x1="368.62" y1="188.53" x2="368.62" y2="219.66"/><g class="g"><path class="f" d="M368.62,219.66a31,31,0,0,1-30.77-31.13"/></g><line class="f" x1="368.62" y1="184.56" x2="368.62" y2="188.53"/><line class="f" x1="337.85" y1="188.53" x2="337.85" y2="184.56"/><line class="f" x1="337.85" y1="188.53" x2="336.14" y2="188.53"/><line class="f" x1="370.33" y1="188.53" x2="368.62" y2="188.53"/><line class="f" x1="337.85" y1="249.92" x2="365.2" y2="249.92"/><line class="f" x1="337.85" y1="249.92" x2="337.85" y2="277.59"/><g class="g"><path class="f" d="M365.2,249.92a27.51,27.51,0,0,1-27.35,27.67"/></g><line class="f" x1="337.85" y1="247.5" x2="337.85" y2="249.92"/><line class="f" x1="365.2" y1="249.92" x2="365.2" y2="247.5"/><line class="f" x1="365.2" y1="249.92" x2="366.91" y2="249.92"/><line class="f" x1="365.2" y1="247.5" x2="366.91" y2="247.5"/><line class="f" x1="336.14" y1="249.92" x2="337.85" y2="249.92"/><line class="f" x1="336.14" y1="247.5" x2="337.85" y2="247.5"/><line class="f" x1="337.85" y1="247.5" x2="344.69" y2="247.5"/><line class="f" x1="348.45" y1="247.5" x2="349.22" y2="247.5"/><line class="f" x1="352.98" y1="247.5" x2="353.75" y2="247.5"/><line class="f" x1="357.51" y1="247.5" x2="358.36" y2="247.5"/><line class="f" x1="358.37" y1="247.5" x2="365.2" y2="247.5"/><line class="f" x1="337.85" y1="249.92" x2="337.85" y2="250.79"/><line class="f" x1="337.85" y1="250.79" x2="334.43" y2="250.79"/><line class="f" x1="334.43" y1="250.79" x2="334.43" y2="249.92"/><line class="f" x1="337.85" y1="247.5" x2="337.85" y2="246.64"/><line class="f" x1="337.85" y1="246.64" x2="334.43" y2="246.64"/><line class="f" x1="334.43" y1="246.64" x2="334.43" y2="247.5"/><line class="f" x1="365.2" y1="250.79" x2="368.62" y2="250.79"/><line class="f" x1="368.62" y1="250.79" x2="368.62" y2="249.92"/><line class="f" x1="365.2" y1="247.5" x2="365.2" y2="246.64"/><line class="f" x1="365.2" y1="246.64" x2="368.62" y2="246.64"/><line class="f" x1="368.62" y1="246.64" x2="368.62" y2="247.5"/><line class="f" x1="376.32" y1="193.72" x2="376.32" y2="214.47"/><line class="f" x1="376.32" y1="214.47" x2="396.83" y2="214.47"/><line class="f" x1="396.83" y1="214.47" x2="396.83" y2="193.72"/><line class="f" x1="396.83" y1="193.72" x2="376.32" y2="193.72"/><g class="g"><path class="f" d="M392.56,204.1a6,6,0,1,0-6,6.05,6,6,0,0,0,6-6.05"/><path class="f" d="M391.53,204.1a5,5,0,1,0-5,5,5,5,0,0,0,5-5"/><path class="f" d="M474.61,217.93a.85.85,0,1,0-.85.86.85.85,0,0,0,.85-.86"/></g><line class="f" x1="448.12" y1="212.74" x2="448.12" y2="243.87"/><line class="f" x1="448.12" y1="243.87" x2="478.89" y2="243.87"/><line class="f" x1="478.89" y1="243.87" x2="478.89" y2="212.74"/><line class="f" x1="478.89" y1="212.74" x2="448.12" y2="212.74"/><line class="f" x1="449.83" y1="217.93" x2="449.83" y2="238.68"/><line class="f" x1="453.25" y1="242.14" x2="473.76" y2="242.14"/><line class="f" x1="477.18" y1="238.68" x2="477.18" y2="217.93"/><line class="f" x1="473.76" y1="214.47" x2="453.25" y2="214.47"/><g class="g"><path class="f" d="M449.83,217.93a3.44,3.44,0,0,1,3.42-3.46"/><path class="f" d="M453.25,242.14a3.44,3.44,0,0,1-3.42-3.46"/><path class="f" d="M473.76,214.47a3.44,3.44,0,0,1,3.42,3.46"/><path class="f" d="M477.18,238.68a3.44,3.44,0,0,1-3.42,3.46"/></g><line class="f" x1="397.69" y1="198.04" x2="448.97" y2="198.04"/><line class="f" x1="397.69" y1="198.04" x2="397.69" y2="192.86"/><line class="f" x1="433.59" y1="243.87" x2="433.59" y2="240.41"/><line class="f" x1="433.59" y1="240.41" x2="413.07" y2="240.41"/><line class="f" x1="413.07" y1="240.41" x2="413.07" y2="243.87"/><line class="f" x1="413.07" y1="243.87" x2="414.1" y2="243.87"/><line class="f" x1="414.1" y1="243.87" x2="414.1" y2="241.45"/><line class="f" x1="414.1" y1="241.45" x2="432.56" y2="241.45"/><line class="f" x1="432.56" y1="241.45" x2="432.56" y2="243.87"/><line class="f" x1="432.56" y1="243.87" x2="433.59" y2="243.87"/><line class="f" x1="433.59" y1="243.87" x2="433.59" y2="240.41"/><line class="f" x1="413.07" y1="243.87" x2="413.07" y2="240.41"/><line class="f" x1="432.56" y1="243.87" x2="432.56" y2="241.45"/><line class="f" x1="414.1" y1="243.87" x2="414.1" y2="241.45"/><line class="f" x1="433.59" y1="240.41" x2="413.07" y2="240.41"/><line class="f" x1="433.59" y1="241.45" x2="413.07" y2="241.45"/><line class="f" x1="433.59" y1="243.87" x2="432.56" y2="243.87"/><line class="f" x1="414.1" y1="243.87" x2="413.07" y2="243.87"/><line class="f" x1="448.97" y1="211.88" x2="448.97" y2="192.86"/><line class="f" x1="448.97" y1="211.88" x2="479.74" y2="211.88"/><line class="f" x1="448.97" y1="192.86" x2="452.39" y2="192.86"/><line class="f" x1="452.39" y1="192.86" x2="483.16" y2="192.86"/><line class="f" x1="483.16" y1="192.86" x2="483.16" y2="208.42"/><line class="f" x1="483.16" y1="208.42" x2="452.39" y2="208.42"/><line class="f" x1="452.39" y1="208.42" x2="452.39" y2="192.86"/><line class="f" x1="402.3" y1="362.67" x2="354.43" y2="362.67"/><line class="f" x1="354.43" y1="362.67" x2="354.43" y2="359.21"/><line class="f" x1="354.43" y1="359.21" x2="402.3" y2="359.21"/><line class="f" x1="402.3" y1="359.21" x2="402.3" y2="362.67"/><g class="g"><path class="f" d="M352.72,360.94a1.71,1.71,0,1,0-1.71,1.73,1.72,1.72,0,0,0,1.71-1.73"/></g><line class="f" x1="444.19" y1="378.24" x2="437.35" y2="378.24"/><line class="f" x1="433.59" y1="378.24" x2="432.82" y2="378.24"/><line class="f" x1="429.06" y1="378.24" x2="428.29" y2="378.24"/><line class="f" x1="424.53" y1="378.24" x2="420.25" y2="378.24"/><line class="f" x1="420.25" y1="378.24" x2="413.41" y2="378.24"/><line class="f" x1="483.16" y1="208.42" x2="452.39" y2="208.42"/><line class="f" x1="452.39" y1="208.42" x2="452.39" y2="192.86"/><line class="f" x1="452.39" y1="192.86" x2="455.81" y2="204.96"/><line class="f" x1="455.81" y1="204.96" x2="483.16" y2="208.42"/><rect class="d" x="361.96" y="309.06" width="17.09" height="27.67"/><line class="f" x1="361.96" y1="309.06" x2="361.96" y2="336.73"/><line class="f" x1="379.05" y1="309.06" x2="361.96" y2="309.06"/><line class="f" x1="379.05" y1="336.73" x2="379.05" y2="309.06"/><line class="f" x1="361.96" y1="336.73" x2="379.05" y2="336.73"/><rect class="d" x="404.25" y="303.46" width="10.26" height="40.71"/><line class="f" x1="404.25" y1="303.46" x2="404.25" y2="344.17"/><line class="f" x1="414.51" y1="303.46" x2="404.25" y2="303.46"/><line class="f" x1="414.51" y1="344.17" x2="414.51" y2="303.46"/><line class="f" x1="404.25" y1="344.17" x2="414.51" y2="344.17"/><rect class="d" x="397.68" y="192.86" width="51.29" height="5.19"/><line class="f" x1="397.69" y1="192.86" x2="397.69" y2="198.04"/><line class="f" x1="448.97" y1="192.86" x2="397.68" y2="192.86"/><line class="f" x1="448.97" y1="198.04" x2="448.97" y2="192.86"/><line class="f" x1="397.69" y1="198.04" x2="448.97" y2="198.04"/><rect class="d" x="413.07" y="241.45" width="1.03" height="2.42"/><line class="f" x1="414.1" y1="241.45" x2="413.07" y2="241.45"/><line class="f" x1="414.1" y1="243.87" x2="414.1" y2="241.45"/><line class="f" x1="413.07" y1="243.87" x2="414.1" y2="243.87"/><line class="f" x1="413.07" y1="241.45" x2="413.07" y2="243.87"/><rect class="d" x="413.07" y="240.41" width="20.51" height="1.04"/><line class="f" x1="413.07" y1="240.41" x2="413.07" y2="241.45"/><line class="f" x1="433.59" y1="240.41" x2="413.07" y2="240.41"/><line class="f" x1="433.59" y1="241.45" x2="433.59" y2="240.41"/><line class="f" x1="413.07" y1="241.45" x2="433.59" y2="241.45"/><rect class="d" x="432.56" y="241.45" width="1.03" height="2.42"/><line class="f" x1="433.59" y1="241.45" x2="432.56" y2="241.45"/><line class="f" x1="433.59" y1="243.87" x2="433.59" y2="241.45"/><line class="f" x1="432.56" y1="243.87" x2="433.59" y2="243.87"/><line class="f" x1="432.56" y1="241.45" x2="432.56" y2="243.87"/><polygon class="d" points="349.8 362.17 349.31 360.94 349.8 359.72 351.01 359.21 352.22 359.72 352.72 360.94 352.22 362.17 351.01 362.67 349.8 362.17"/><g class="g"><path class="f" d="M352.72,360.94a1.71,1.71,0,1,1-3.41,0"/><path class="f" d="M349.3,360.94a1.71,1.71,0,1,1,3.42,0"/></g><rect class="d" x="354.43" y="359.21" width="47.87" height="3.46"/><line class="f" x1="354.43" y1="359.21" x2="354.43" y2="362.67"/><line class="f" x1="402.3" y1="359.21" x2="354.43" y2="359.21"/><line class="f" x1="402.3" y1="362.67" x2="402.3" y2="359.21"/><line class="f" x1="354.43" y1="362.67" x2="402.3" y2="362.67"/><polygon class="d" points="407.83 339.63 407.83 328.85 406.46 327.14 405.73 325 405.73 322.71 406.46 320.57 407.83 318.86 407.83 308.09 409.73 308.09 411.63 315.97 411.63 318.27 412.66 321.94 412.66 325.78 411.63 329.44 411.63 331.75 409.73 339.63 407.83 339.63"/><line class="f" x1="407.83" y1="308.09" x2="407.83" y2="318.86"/><line class="f" x1="409.73" y1="308.09" x2="407.83" y2="308.09"/><line class="f" x1="411.63" y1="315.97" x2="409.73" y2="308.09"/><line class="f" x1="411.63" y1="318.27" x2="411.63" y2="315.97"/><line class="f" x1="412.66" y1="321.94" x2="411.63" y2="318.27"/><line class="f" x1="412.66" y1="325.78" x2="412.66" y2="321.94"/><line class="f" x1="411.63" y1="329.44" x2="412.66" y2="325.78"/><line class="f" x1="411.63" y1="331.74" x2="411.63" y2="329.44"/><line class="f" x1="409.73" y1="339.63" x2="411.63" y2="331.74"/><line class="f" x1="407.83" y1="339.63" x2="409.73" y2="339.63"/><line class="f" x1="407.83" y1="328.85" x2="407.83" y2="339.63"/><line class="f" x1="406.46" y1="327.14" x2="407.83" y2="328.85"/><line class="f" x1="405.73" y1="325" x2="406.46" y2="327.14"/><line class="f" x1="405.73" y1="322.71" x2="405.73" y2="325"/><line class="f" x1="406.46" y1="320.57" x2="405.73" y2="322.71"/><line class="f" x1="407.83" y1="318.86" x2="406.46" y2="320.57"/><line class="f" x1="407.83" y1="308.09" x2="407.83" y2="339.63"/><line class="f" x1="411.63" y1="331.74" x2="411.63" y2="315.97"/><line class="f" x1="409.73" y1="308.09" x2="407.83" y2="308.09"/><line class="f" x1="408.59" y1="337.53" x2="408.59" y2="335.42"/><line class="f" x1="408.59" y1="335.42" x2="409.07" y2="335.42"/><line class="f" x1="409.07" y1="335.42" x2="409.07" y2="337.53"/><line class="f" x1="409.07" y1="337.53" x2="408.59" y2="337.53"/><line class="f" x1="408.59" y1="334.9" x2="408.59" y2="332.8"/><line class="f" x1="408.59" y1="332.8" x2="409.07" y2="332.8"/><line class="f" x1="409.07" y1="332.8" x2="409.07" y2="334.9"/><line class="f" x1="409.07" y1="334.9" x2="408.59" y2="334.9"/><line class="f" x1="409.73" y1="308.09" x2="409.73" y2="339.63"/><line class="f" x1="409.07" y1="332.27" x2="408.59" y2="332.27"/><line class="f" x1="408.59" y1="332.27" x2="408.59" y2="331.22"/><line class="f" x1="408.59" y1="331.22" x2="409.07" y2="331.22"/><line class="f" x1="409.07" y1="331.22" x2="409.07" y2="332.27"/><g class="g"><path class="f" d="M407.83,328.85a6.77,6.77,0,0,1,0-10"/></g><polygon class="d" points="314.87 354.02 314.39 353.82 314.19 353.33 314.19 292.46 314.39 291.98 314.87 291.77 339.86 291.77 341.56 292.23 342.81 293.5 343.27 295.23 343.27 296.27 343.07 296.76 342.59 296.96 343.04 297.11 343.31 297.51 343.27 298 343.27 321.86 342.98 322.59 342.25 322.9 342.98 323.2 343.27 323.93 343.27 347.8 343.09 348.42 342.59 348.84 343.07 349.04 343.27 349.53 343.27 350.56 342.81 352.3 341.56 353.56 339.86 354.02 314.87 354.02"/><line class="f" x1="314.19" y1="353.33" x2="314.19" y2="292.46"/><line class="f" x1="314.19" y1="292.46" x2="314.39" y2="291.98"/><line class="f" x1="314.39" y1="291.97" x2="314.87" y2="291.77"/><line class="f" x1="314.87" y1="291.77" x2="339.85" y2="291.77"/><line class="f" x1="339.85" y1="291.77" x2="341.56" y2="292.23"/><line class="f" x1="341.56" y1="292.23" x2="342.82" y2="293.5"/><line class="f" x1="342.81" y1="293.5" x2="343.27" y2="295.23"/><line class="f" x1="343.27" y1="295.23" x2="343.27" y2="296.27"/><line class="f" x1="343.27" y1="296.27" x2="343.07" y2="296.76"/><line class="f" x1="343.07" y1="296.76" x2="342.59" y2="296.96"/><line class="f" x1="342.59" y1="296.96" x2="343.04" y2="297.11"/><line class="f" x1="343.04" y1="297.11" x2="343.31" y2="297.52"/><line class="f" x1="343.31" y1="297.52" x2="343.27" y2="298"/><line class="f" x1="343.27" y1="298" x2="343.27" y2="321.86"/><line class="f" x1="343.27" y1="321.86" x2="342.98" y2="322.59"/><line class="f" x1="342.98" y1="322.59" x2="342.25" y2="322.9"/><line class="f" x1="342.25" y1="322.9" x2="342.98" y2="323.2"/><line class="f" x1="342.98" y1="323.2" x2="343.27" y2="323.94"/><line class="f" x1="343.27" y1="323.93" x2="343.27" y2="347.8"/><line class="f" x1="343.27" y1="347.8" x2="343.09" y2="348.42"/><line class="f" x1="343.09" y1="348.42" x2="342.59" y2="348.84"/><line class="f" x1="342.59" y1="348.84" x2="343.07" y2="349.04"/><line class="f" x1="343.07" y1="349.04" x2="343.27" y2="349.53"/><line class="f" x1="343.27" y1="349.53" x2="343.27" y2="350.57"/><line class="f" x1="343.27" y1="350.57" x2="342.81" y2="352.29"/><line class="f" x1="342.81" y1="352.29" x2="341.56" y2="353.56"/><line class="f" x1="341.56" y1="353.56" x2="339.85" y2="354.03"/><line class="f" x1="339.85" y1="354.02" x2="314.87" y2="354.02"/><line class="f" x1="314.87" y1="354.02" x2="314.39" y2="353.82"/><line class="f" x1="314.39" y1="353.82" x2="314.19" y2="353.33"/><line class="f" x1="343.27" y1="296.27" x2="343.27" y2="295.23"/><line class="f" x1="339.85" y1="291.77" x2="314.87" y2="291.77"/><line class="f" x1="314.19" y1="292.46" x2="314.19" y2="296.27"/><line class="f" x1="314.87" y1="296.96" x2="342.59" y2="296.96"/><line class="f" x1="314.19" y1="296.27" x2="314.19" y2="322.9"/><line class="f" x1="314.19" y1="322.9" x2="316.58" y2="322.9"/><line class="f" x1="343.27" y1="321.86" x2="343.27" y2="297.99"/><line class="f" x1="342.25" y1="296.96" x2="325.09" y2="296.96"/><line class="f" x1="325.09" y1="322.9" x2="342.25" y2="322.9"/><line class="f" x1="315.56" y1="321.86" x2="315.56" y2="297.99"/><line class="f" x1="371.97" y1="296.96" x2="371.97" y2="302.15"/><line class="f" x1="371.97" y1="305.6" x2="371.97" y2="310.79"/><line class="f" x1="371.97" y1="314.25" x2="371.97" y2="319.44"/><line class="f" x1="371.97" y1="322.9" x2="371.97" y2="328.09"/><line class="f" x1="371.97" y1="331.54" x2="371.97" y2="336.73"/><line class="f" x1="371.97" y1="340.19" x2="371.97" y2="343.65"/><line class="f" x1="371.97" y1="343.65" x2="371.97" y2="348.84"/><line class="f" x1="343.27" y1="349.53" x2="343.27" y2="350.57"/><line class="f" x1="339.85" y1="354.02" x2="314.87" y2="354.02"/><line class="f" x1="314.19" y1="353.33" x2="314.19" y2="349.53"/><line class="f" x1="314.87" y1="348.84" x2="342.59" y2="348.84"/><line class="f" x1="314.19" y1="349.53" x2="314.19" y2="322.9"/><line class="f" x1="314.19" y1="322.9" x2="316.58" y2="322.9"/><line class="f" x1="343.27" y1="323.93" x2="343.27" y2="347.8"/><line class="f" x1="342.25" y1="348.84" x2="325.09" y2="348.84"/><line class="f" x1="316.58" y1="322.9" x2="342.25" y2="322.9"/><line class="f" x1="315.56" y1="323.93" x2="315.56" y2="347.8"/><line class="f" x1="342.25" y1="296.96" x2="347.38" y2="296.96"/><line class="f" x1="350.8" y1="296.96" x2="355.92" y2="296.96"/><line class="f" x1="359.34" y1="296.96" x2="364.47" y2="296.96"/><line class="f" x1="366.84" y1="296.96" x2="371.97" y2="296.96"/><line class="f" x1="342.25" y1="348.84" x2="347.38" y2="348.84"/><line class="f" x1="350.8" y1="348.84" x2="355.92" y2="348.84"/><line class="f" x1="359.34" y1="348.84" x2="364.47" y2="348.84"/><line class="f" x1="366.84" y1="348.84" x2="371.97" y2="348.84"/><g class="g"><path class="f" d="M314.19,292.46a.69.69,0,0,1,.68-.69"/><path class="f" d="M314.87,297a.69.69,0,0,1-.68-.69"/><path class="f" d="M343.28,296.27a.69.69,0,0,1-.69.69"/><path class="f" d="M342.25,297a1,1,0,0,1,1,1"/><path class="f" d="M343.27,321.86a1,1,0,0,1-1,1"/><path class="f" d="M314.87,354a.69.69,0,0,1-.68-.69"/><path class="f" d="M314.19,349.53a.68.68,0,0,1,.68-.69"/><path class="f" d="M342.59,348.84a.69.69,0,0,1,.69.69"/><path class="f" d="M343.27,347.8a1,1,0,0,1-1,1"/><path class="f" d="M342.25,322.9a1,1,0,0,1,1,1"/><path class="f" d="M319.26,297.89a96.54,96.54,0,0,1,0,23.86"/><path class="f" d="M319.26,323.83a100.58,100.58,0,0,1,0,23.86"/><path class="f" d="M339.85,291.77a3.44,3.44,0,0,1,3.42,3.46"/><path class="f" d="M343.27,350.57a3.44,3.44,0,0,1-3.42,3.45"/></g><polygon class="d" points="404.18 213.26 403.82 213.11 403.67 212.74 403.67 198.56 403.82 198.2 404.18 198.04 421.96 198.04 422.32 198.2 422.47 198.56 422.47 212.74 422.32 213.11 421.96 213.26 404.18 213.26"/><line class="f" x1="404.18" y1="198.04" x2="421.96" y2="198.04"/><g class="g"><path class="f" d="M422,198a.52.52,0,0,1,.51.52"/></g><line class="f" x1="422.47" y1="198.56" x2="422.47" y2="212.74"/><g class="g"><path class="f" d="M422.47,212.74a.51.51,0,0,1-.51.52"/></g><line class="f" x1="421.96" y1="213.26" x2="404.18" y2="213.26"/><g class="g"><path class="f" d="M404.18,213.26a.51.51,0,0,1-.51-.52"/></g><line class="f" x1="403.67" y1="212.74" x2="403.67" y2="198.56"/><g class="g"><path class="f" d="M403.67,198.56a.52.52,0,0,1,.51-.52"/></g><line class="f" x1="405.21" y1="201.85" x2="420.94" y2="201.85"/><line class="f" x1="421.45" y1="202.37" x2="421.45" y2="211.7"/><line class="f" x1="420.93" y1="212.22" x2="405.21" y2="212.22"/><line class="f" x1="404.69" y1="211.71" x2="404.69" y2="202.37"/><g class="g"><path class="f" d="M420.93,201.85a.52.52,0,0,1,.52.52"/><path class="f" d="M421.45,211.71a.51.51,0,0,1-.51.51"/><path class="f" d="M405.21,212.22a.51.51,0,0,1-.52-.51"/><path class="f" d="M404.69,202.37a.52.52,0,0,1,.52-.52"/></g><polygon class="d" points="412.82 203.97 412.69 203.73 412.46 201.9 412.35 201.57 412.22 200.12 412.46 199.51 413.07 199.26 413.68 199.51 413.93 200.12 413.79 201.57 413.68 201.9 413.45 203.73 413.32 203.97 413.07 204.07 412.82 203.97"/><g class="g"><path class="f" d="M412.22,200.12a.86.86,0,1,1,1.71,0"/></g><line class="f" x1="413.79" y1="201.57" x2="413.93" y2="200.12"/><g class="g"><path class="f" d="M413.79,201.57a.76.76,0,0,1-.11.33"/></g><line class="f" x1="413.45" y1="203.73" x2="413.68" y2="201.9"/><g class="g"><path class="f" d="M413.45,203.73a.39.39,0,0,1-.38.34.4.4,0,0,1-.38-.34"/></g><line class="f" x1="412.46" y1="201.9" x2="412.69" y2="203.73"/><g class="g"><path class="f" d="M412.46,201.9a.76.76,0,0,1-.11-.33"/></g><line class="f" x1="412.22" y1="200.12" x2="412.35" y2="201.57"/><line class="f" x1="413.54" y1="200.98" x2="413.54" y2="201.49"/><line class="f" x1="412.61" y1="201.49" x2="412.61" y2="200.98"/><line class="f" x1="412.61" y1="200.98" x2="413.54" y2="200.98"/><g class="g"><path class="f" d="M413.54,201.49a.48.48,0,0,1-.47.48.47.47,0,0,1-.46-.48"/><path class="f" d="M413.68,201.9a.73.73,0,0,1-.61.33.72.72,0,0,1-.61-.33"/></g><rect class="d" x="311.52" y="192.86" width="20.52" height="54.65"/><line class="f" x1="332.04" y1="247.5" x2="332.04" y2="192.86"/><line class="f" x1="332.04" y1="192.86" x2="311.52" y2="192.86"/><line class="f" x1="311.52" y1="192.86" x2="311.52" y2="247.5"/><line class="f" x1="311.52" y1="247.5" x2="332.04" y2="247.5"/><line class="f" x1="321.78" y1="244.77" x2="321.78" y2="195.59"/><line class="f" x1="327.82" y1="242.23" x2="315.52" y2="237.61"/><line class="f" x1="328.43" y1="237.02" x2="317" y2="235.11"/><line class="f" x1="314.38" y1="229.91" x2="326.93" y2="228.33"/><line class="f" x1="316.03" y1="221.84" x2="326.93" y2="223.98"/><line class="f" x1="315.4" y1="218.91" x2="328.83" y2="218.91"/><line class="f" x1="315.34" y1="210.61" x2="328.62" y2="212.58"/><line class="f" x1="315.57" y1="207.49" x2="327.69" y2="207.49"/><line class="f" x1="315.44" y1="199.3" x2="327.88" y2="197.73"/><line class="f" x1="316.29" y1="201.27" x2="326.8" y2="202.87"/><rect class="d" x="455.81" y="309.98" width="27.35" height="27.67"/><polygon class="d" points="446.58 330.74 444.87 330.27 443.62 329 443.16 327.28 443.16 320.36 443.62 318.63 444.87 317.36 446.58 316.9 455.81 316.9 455.81 330.74 446.58 330.74"/><polygon class="d" points="462.65 309.98 462.65 300.65 463.11 298.92 464.36 297.65 466.07 297.19 472.91 297.19 474.62 297.65 475.87 298.92 476.32 300.65 476.32 309.98 462.65 309.98"/><polygon class="d" points="466.07 350.45 464.36 349.98 463.11 348.72 462.65 346.99 462.65 337.65 476.32 337.65 476.32 346.99 475.87 348.72 474.62 349.98 472.91 350.45 466.07 350.45"/><line class="f" x1="444.87" y1="320.36" x2="444.87" y2="327.28"/><line class="f" x1="446.58" y1="330.73" x2="455.81" y2="330.73"/><line class="f" x1="443.16" y1="320.36" x2="443.16" y2="327.28"/><line class="f" x1="455.81" y1="316.9" x2="446.58" y2="316.9"/><g class="g"><path class="f" d="M446.58,329a1.72,1.72,0,0,1-1.71-1.73"/><path class="f" d="M444.87,320.36a1.71,1.71,0,0,1,1.71-1.73"/><path class="f" d="M446.58,330.73a3.44,3.44,0,0,1-3.42-3.45"/><path class="f" d="M443.16,320.36a3.44,3.44,0,0,1,3.42-3.46"/></g><line class="f" x1="472.91" y1="298.92" x2="466.07" y2="298.92"/><line class="f" x1="462.65" y1="300.65" x2="462.65" y2="309.98"/><line class="f" x1="472.91" y1="297.19" x2="466.07" y2="297.19"/><line class="f" x1="476.32" y1="309.98" x2="476.32" y2="300.65"/><g class="g"><path class="f" d="M464.36,300.65a1.71,1.71,0,0,1,1.71-1.73"/><path class="f" d="M472.91,298.92a1.71,1.71,0,0,1,1.7,1.73"/><path class="f" d="M462.65,300.65a3.44,3.44,0,0,1,3.42-3.46"/><path class="f" d="M472.91,297.19a3.44,3.44,0,0,1,3.41,3.46"/></g><line class="f" x1="472.91" y1="348.72" x2="466.07" y2="348.72"/><line class="f" x1="462.65" y1="346.99" x2="462.65" y2="337.65"/><line class="f" x1="472.91" y1="350.45" x2="466.07" y2="350.45"/><line class="f" x1="476.32" y1="337.65" x2="476.32" y2="346.99"/><g class="g"><path class="f" d="M466.07,348.72a1.72,1.72,0,0,1-1.71-1.73"/><path class="f" d="M474.61,347a1.72,1.72,0,0,1-1.7,1.73"/><path class="f" d="M466.07,350.45a3.44,3.44,0,0,1-3.42-3.46"/><path class="f" d="M476.32,347a3.44,3.44,0,0,1-3.41,3.46"/></g><line class="f" x1="483.16" y1="309.98" x2="483.16" y2="337.65"/><line class="f" x1="483.16" y1="309.98" x2="455.81" y2="309.98"/><line class="f" x1="455.81" y1="309.98" x2="455.81" y2="337.65"/><line class="f" x1="455.81" y1="337.65" x2="483.16" y2="337.65"/><polygon class="d" points="433.13 214.98 431.19 213.95 430 212.71 429.23 211.17 428.97 209.46 428.97 198.04 441.62 198.04 441.62 209.46 441.36 211.17 440.59 212.71 439.4 213.95 437.46 214.98 435.3 215.34 433.13 214.98"/><line class="f" x1="441.62" y1="198.04" x2="441.62" y2="209.46"/><line class="f" x1="441.62" y1="198.04" x2="428.97" y2="198.04"/><line class="f" x1="428.97" y1="198.04" x2="428.97" y2="209.46"/><line class="f" x1="439.57" y1="202.19" x2="439.57" y2="209.46"/><line class="f" x1="431.02" y1="202.19" x2="431.02" y2="209.46"/><line class="f" x1="431.02" y1="202.19" x2="439.57" y2="202.19"/><g class="g"><path class="f" d="M441.62,209.46A5.62,5.62,0,0,1,439.4,214"/><path class="f" d="M431.19,214a5.62,5.62,0,0,1-2.22-4.49"/><path class="f" d="M439.4,214a6.76,6.76,0,0,1-8.21,0"/><path class="f" d="M431.19,214a5.62,5.62,0,0,1-2.22-4.49"/><path class="f" d="M435.3,215.34a6.79,6.79,0,0,1-4.11-1.39"/><path class="f" d="M432.42,212.29a3.56,3.56,0,0,1-1.4-2.83"/><path class="f" d="M438.17,212.29a4.75,4.75,0,0,1-5.75,0"/><path class="f" d="M439.57,209.46a3.56,3.56,0,0,1-1.4,2.83"/></g><line class="f" x1="334.43" y1="192.86" x2="341.27" y2="192.86"/><line class="f" x1="345.03" y1="192.86" x2="345.8" y2="192.86"/><line class="f" x1="349.56" y1="192.86" x2="350.33" y2="192.86"/><line class="f" x1="354.09" y1="192.86" x2="360.93" y2="192.86"/><line class="f" x1="364.69" y1="192.86" x2="365.2" y2="192.86"/><line class="f" x1="365.2" y1="192.86" x2="372.04" y2="192.86"/><line class="f" x1="449.72" y1="262.9" x2="449.72" y2="257.1"/><line class="f" x1="449.72" y1="257.1" x2="452.05" y2="259"/><line class="f" x1="452.05" y1="259" x2="454.38" y2="257.1"/><line class="f" x1="454.38" y1="257.1" x2="454.38" y2="262.9"/><line class="f" x1="477.01" y1="431.84" x2="307.42" y2="431.84"/><line class="f" x1="303.32" y1="184.56" x2="303.32" y2="378.23"/><line class="f" x1="303.32" y1="378.24" x2="307.42" y2="378.24"/><line class="f" x1="307.42" y1="378.24" x2="307.42" y2="433.57"/><line class="f" x1="307.42" y1="433.57" x2="477.01" y2="433.57"/><line class="f" x1="477.01" y1="433.57" x2="477.01" y2="378.23"/><line class="f" x1="477.01" y1="378.24" x2="487.27" y2="378.24"/><line class="f" x1="487.27" y1="378.24" x2="487.27" y2="184.56"/><line class="f" x1="487.27" y1="184.56" x2="407.94" y2="184.56"/><line class="f" x1="407.94" y1="184.56" x2="303.32" y2="184.56"/><path class="h" d="M412.58,395.31v7h-.72V396h-1.65v-.64Z"/><path class="h" d="M414.26,401.81a.53.53,0,0,1,.53-.54.54.54,0,0,1,.54.54.55.55,0,0,1-.54.55A.54.54,0,0,1,414.26,401.81Z"/><path class="h" d="M416.27,398.81c0-2.23,1.17-3.56,2.79-3.56s2.8,1.33,2.8,3.56-1.18,3.56-2.8,3.56S416.27,401,416.27,398.81Zm4.85,0c0-1.87-.84-2.9-2.06-2.9s-2.06,1-2.06,2.9.84,2.9,2.06,2.9S421.12,400.68,421.12,398.81Z"/><path class="h" d="M428.84,400.47h-1.4v1.84h-.72v-1.84h-4V400l3.71-4.64h.8l-3.58,4.52h3v-1.62h.7v1.62h1.4Z"/><path class="h" d="M414.74,222.27v7H414v-6.36h-1.65v-.64Z"/><path class="h" d="M416.42,228.77a.53.53,0,0,1,.53-.54.54.54,0,0,1,.54.54.55.55,0,0,1-.54.55A.54.54,0,0,1,416.42,228.77Z"/><path class="h" d="M418.43,225.77c0-2.23,1.17-3.56,2.79-3.56s2.8,1.33,2.8,3.56-1.18,3.56-2.8,3.56S418.43,228,418.43,225.77Zm4.85,0c0-1.87-.84-2.9-2.06-2.9s-2.06,1-2.06,2.9.84,2.9,2.06,2.9S423.28,227.64,423.28,225.77Z"/><path class="h" d="M429.59,227.26c0,1.17-.85,2.07-2.54,2.07a3.64,3.64,0,0,1-2.52-.9l.35-.57a3.07,3.07,0,0,0,2.17.81c1.16,0,1.8-.54,1.8-1.41s-.59-1.39-1.89-1.39h-.5v-.53l1.94-2.43h-3.58v-.64h4.5v.51l-2,2.49C428.84,225.35,429.59,226.14,429.59,227.26Z"/><path class="h" d="M412.58,287.69v7h-.72v-6.36h-1.65v-.64Z"/><path class="h" d="M414.26,294.19a.53.53,0,0,1,.53-.54.54.54,0,0,1,.54.54.55.55,0,0,1-.54.55A.54.54,0,0,1,414.26,294.19Z"/><path class="h" d="M416.27,291.19c0-2.23,1.17-3.56,2.79-3.56s2.8,1.33,2.8,3.56-1.18,3.56-2.8,3.56S416.27,293.42,416.27,291.19Zm4.85,0c0-1.87-.84-2.9-2.06-2.9s-2.06,1-2.06,2.9.84,2.9,2.06,2.9S421.12,293.06,421.12,291.19Z"/><path class="h" d="M427.66,294.05v.64h-4.91v-.51l2.91-2.85c.79-.78.94-1.25.94-1.73,0-.81-.57-1.31-1.64-1.31a2.38,2.38,0,0,0-1.91.78l-.51-.44a3.15,3.15,0,0,1,2.48-1c1.42,0,2.32.72,2.32,1.89a2.88,2.88,0,0,1-1.15,2.19l-2.38,2.34Z"/><path class="h" d="M345.39,222.27v7h-.72v-6.36H343v-.64Z"/><path class="h" d="M347.07,228.77a.53.53,0,0,1,.53-.54.54.54,0,0,1,.54.54.55.55,0,0,1-.54.55A.54.54,0,0,1,347.07,228.77Z"/><path class="h" d="M349.08,225.77c0-2.23,1.17-3.56,2.79-3.56s2.8,1.33,2.8,3.56-1.18,3.56-2.8,3.56S349.08,228,349.08,225.77Zm4.85,0c0-1.87-.84-2.9-2.06-2.9s-2.06,1-2.06,2.9.84,2.9,2.06,2.9S353.93,227.64,353.93,225.77Z"/><path class="h" d="M357.63,222.27v7h-.72v-6.36h-1.65v-.64Z"/></svg>