<svg xmlns="http://www.w3.org/2000/svg" xmlns:xlink="http://www.w3.org/1999/xlink" viewBox="0 0 790.58 618.13"><defs><style>.a,.k{fill:none;}.b{clip-path:url(#a);}.c{clip-path:url(#d);}.d{clip-path:url(#g);}.e{clip-path:url(#j);}.f{fill:#595a5c;}.g{fill:#b6906c;}.h{fill:#fff;}.i{fill:#231f20;}.j{fill:url(#m);}.k{stroke:#000;stroke-linecap:round;stroke-linejoin:round;stroke-width:0.35px;}.l{clip-path:url(#n);}.m{fill:#58595b;}</style><clipPath id="a"><rect class="a" y="50" width="50" height="50"/></clipPath><clipPath id="d"><rect class="a" x="50" y="50" width="50" height="50"/></clipPath><clipPath id="g"><rect class="a" width="50" height="50"/></clipPath><clipPath id="j"><rect class="a" x="50" width="50" height="50"/></clipPath><pattern id="m" width="100" height="100" patternTransform="matrix(3.44, 0, 0, -3.52, -5104.33, 51132.08)" patternUnits="userSpaceOnUse" viewBox="0 0 100 100"><rect class="a" width="100" height="100"/><g class="b"><g class="b"><g class="b"><image width="210" height="210" transform="matrix(0.24, 0, 0, -0.24, -0.2, 100.2)" xlink:href="A203_pudorys1.png"/></g></g></g><g class="c"><g class="c"><g class="c"><image width="209" height="210" transform="matrix(0.24, 0, 0, -0.24, 49.96, 100.2)" xlink:href="A203_pudorys2.png"/></g></g></g><g class="d"><g class="d"><g class="d"><image width="210" height="209" transform="matrix(0.24, 0, 0, -0.24, -0.2, 50.04)" xlink:href="A203_pudorys3.png"/></g></g></g><g class="e"><g class="e"><g class="e"><image width="209" height="209" transform="matrix(0.24, 0, 0, -0.24, 49.96, 50.04)" xlink:href="A203_pudorys4.png"/></g></g></g></pattern><clipPath id="n"><polygon class="a" points="297.5 32.24 297.5 88.49 293.37 88.49 293.37 341.23 383.24 341.23 383.24 515.59 377.04 515.59 377.04 585.89 469.67 585.89 469.67 529.65 497.22 529.65 497.22 397.83 497.22 200.98 497.22 88.49 447.29 88.49 447.29 32.24 297.5 32.24"/></clipPath></defs><path class="f" d="M55.31,597.13H57.1V609.9H55.31Zm.92,6.11h4.09a1.89,1.89,0,0,0,1-.27,1.82,1.82,0,0,0,.68-.77,2.67,2.67,0,0,0,.24-1.16,2.7,2.7,0,0,0-.24-1.16,1.82,1.82,0,0,0-1.7-1H56.23v-1.7h4a4.09,4.09,0,0,1,2,.48A3.45,3.45,0,0,1,63.62,599a4.64,4.64,0,0,1,0,4.11,3.34,3.34,0,0,1-1.35,1.36,4,4,0,0,1-2,.49h-4Z"/><path class="f" d="M67.7,606.33a2.07,2.07,0,0,0,.49,1.48,1.76,1.76,0,0,0,1.37.52,1.89,1.89,0,0,0,1.37-.46,1.79,1.79,0,0,0,.48-1.33l.12,1.91A2.58,2.58,0,0,1,69.06,610a2.89,2.89,0,0,1-2.33-1,4.08,4.08,0,0,1-.82-2.73v-5.55H67.7Zm.22-7.86a1.93,1.93,0,0,1-.56-1.5,2.07,2.07,0,0,1,.56-1.57,2.56,2.56,0,0,1,3.18,0,2.08,2.08,0,0,1,.57,1.56,1.94,1.94,0,0,1-.57,1.5,2.65,2.65,0,0,1-3.18,0Zm2.26-.86a.94.94,0,0,0,.24-.68,1,1,0,0,0-.24-.7.91.91,0,0,0-.67-.25.92.92,0,0,0-.67.25,1,1,0,0,0-.23.7,1,1,0,0,0,.23.68.92.92,0,0,0,.67.24A.9.9,0,0,0,70.18,597.61Zm1.23,3.17h1.78v9.12H71.41Z"/><path class="f" d="M77.1,609.63A2.82,2.82,0,0,1,76,608.36a5.08,5.08,0,0,1-.36-2v-2a5.05,5.05,0,0,1,.36-2,2.71,2.71,0,0,1,1-1.27,3,3,0,0,1,1.65-.44,2.71,2.71,0,0,1,1.48.42,3.22,3.22,0,0,1,1.09,1.19l-.18,1.86a2.19,2.19,0,0,0-.22-1,1.48,1.48,0,0,0-.61-.63,2,2,0,0,0-1-.21,1.71,1.71,0,0,0-1.37.55,2.26,2.26,0,0,0-.49,1.56v2a2.19,2.19,0,0,0,.49,1.54,1.74,1.74,0,0,0,1.37.54,1.93,1.93,0,0,0,1-.23,1.45,1.45,0,0,0,.61-.64,2.25,2.25,0,0,0,.22-1l.12,1.92a2.66,2.66,0,0,1-.89,1.14,2.56,2.56,0,0,1-1.53.45A3.19,3.19,0,0,1,77.1,609.63Zm4-12.5H82.9V609.9H81.11Z"/><path class="f" d="M87.09,609.57a3.09,3.09,0,0,1-1.29-1.36,4.85,4.85,0,0,1-.44-2.15v-1.48a4.71,4.71,0,0,1,.44-2.12,3.12,3.12,0,0,1,1.29-1.35,4.71,4.71,0,0,1,4.06,0,3.12,3.12,0,0,1,1.29,1.35,4.71,4.71,0,0,1,.44,2.12v1.51a4.79,4.79,0,0,1-.44,2.13,3.12,3.12,0,0,1-1.29,1.35,4.62,4.62,0,0,1-4.06,0Zm3.49-1.83a2.43,2.43,0,0,0,.51-1.65v-1.51a2.43,2.43,0,0,0-.51-1.65,1.88,1.88,0,0,0-1.46-.58,1.85,1.85,0,0,0-1.45.58,2.38,2.38,0,0,0-.52,1.65v1.51a2.38,2.38,0,0,0,.52,1.65,1.82,1.82,0,0,0,1.45.59A1.85,1.85,0,0,0,90.58,607.74Z"/><path class="f" d="M95.43,600.78h1.79v9.12H95.43Zm4.42,1.72a2.16,2.16,0,0,0-.83-.15,1.83,1.83,0,0,0-1.33.47,1.79,1.79,0,0,0-.47,1.31L97,602.37a3.32,3.32,0,0,1,1.09-1.27,2.58,2.58,0,0,1,1.48-.45,3.39,3.39,0,0,1,1.13.18,2.62,2.62,0,0,1,.88.53l-1.17,1.58A1.56,1.56,0,0,0,99.85,602.5Z"/><path class="f" d="M102.15,600.78H104l2.81,7.93-1,1.94Zm8.07,0L106.34,612a2.6,2.6,0,0,1-.56,1,1.87,1.87,0,0,1-.84.52,4,4,0,0,1-1.23.16h-.36V612h.36a1.46,1.46,0,0,0,.8-.2,1.74,1.74,0,0,0,.51-.7l3.38-10.31Z"/><path class="f" d="M113.51,609.88a5.76,5.76,0,0,1-1.32-.48,4.89,4.89,0,0,1-1.13-.79l1.06-1.31a5.86,5.86,0,0,0,1.47.85,4.18,4.18,0,0,0,1.44.28,3.11,3.11,0,0,0,1.6-.33,1.1,1.1,0,0,0,.53-1,.79.79,0,0,0-.29-.66,1.66,1.66,0,0,0-.72-.29c-.29,0-.69-.1-1.22-.14h-.15l-.14,0h-.15a6.45,6.45,0,0,1-1.5-.26,2,2,0,0,1-1-.7,2.38,2.38,0,0,1-.41-1.49,3.07,3.07,0,0,1,.39-1.61,2.41,2.41,0,0,1,1.18-1,5.29,5.29,0,0,1,2-.32,6.38,6.38,0,0,1,2.6.52,6.16,6.16,0,0,1,1.13.66l-1.08,1.31a5.59,5.59,0,0,0-1.35-.66,4,4,0,0,0-1.3-.22,2.44,2.44,0,0,0-1.37.31,1.08,1.08,0,0,0-.46.94.64.64,0,0,0,.26.55,1.72,1.72,0,0,0,.66.25c.26,0,.64.07,1.12.1h.34a7.67,7.67,0,0,1,1.63.25,2.24,2.24,0,0,1,1.13.77,2.62,2.62,0,0,1,.45,1.65,2.92,2.92,0,0,1-.42,1.63,2.54,2.54,0,0,1-1.27,1A5.88,5.88,0,0,1,115,610,7.38,7.38,0,0,1,113.51,609.88Z"/><path class="f" d="M126,597.13h1.8V609.9H126Zm2.6,12.5a2.39,2.39,0,0,1-.93-1.16l.13-1.91a2.22,2.22,0,0,0,.21,1,1.48,1.48,0,0,0,.61.63,1.93,1.93,0,0,0,1,.22,1.74,1.74,0,0,0,1.37-.54,2.18,2.18,0,0,0,.49-1.53v-2a2.26,2.26,0,0,0-.49-1.56,1.71,1.71,0,0,0-1.37-.55,2,2,0,0,0-1,.21,1.36,1.36,0,0,0-.61.62,2.12,2.12,0,0,0-.21,1l-.19-1.76a3.37,3.37,0,0,1,1.08-1.24,2.67,2.67,0,0,1,1.49-.43,3,3,0,0,1,1.65.43,2.9,2.9,0,0,1,1.06,1.27,5.1,5.1,0,0,1,.36,2v2a4.94,4.94,0,0,1-.37,2,2.79,2.79,0,0,1-1.08,1.26,3.25,3.25,0,0,1-1.71.44A2.73,2.73,0,0,1,128.57,609.63Z"/><path class="f" d="M134.46,600.78h1.82l2.81,7.93-1,1.94Zm8.07,0L138.65,612a2.6,2.6,0,0,1-.56,1,1.87,1.87,0,0,1-.84.52,4,4,0,0,1-1.23.16h-.36V612H136a1.46,1.46,0,0,0,.8-.2,1.74,1.74,0,0,0,.51-.7l3.37-10.31Z"/><path class="f" d="M143.57,600.78h4.12v1.62h-4.12Zm1.46,8.56a2.77,2.77,0,0,1-.52-1.81v-9.4h1.8v9.42a.84.84,0,0,0,.13.51.46.46,0,0,0,.39.18h.86V610h-1A2,2,0,0,1,145,609.34Z"/><path class="f" d="M151.94,606.33a2.07,2.07,0,0,0,.49,1.48,1.76,1.76,0,0,0,1.37.52,1.91,1.91,0,0,0,1.37-.46,1.79,1.79,0,0,0,.48-1.33l.12,1.91A2.58,2.58,0,0,1,153.3,610a2.89,2.89,0,0,1-2.33-1,4.08,4.08,0,0,1-.82-2.73v-5.55h1.79Zm3.71-5.55h1.78v9.12h-1.78Z"/><rect class="g" x="612.92" y="591.68" width="35.43" height="2.83"/><path class="h" d="M648.48,594.64H612.79v-3.08h35.69ZM613,594.39h35.19v-2.58H613Z"/><rect class="g" x="612.92" y="601.6" width="70.74" height="2.83"/><path class="h" d="M683.78,604.56h-71v-3.08h71ZM613,604.31h70.49v-2.58H613Z"/><rect class="g" x="612.92" y="612.72" width="177.16" height="2.84"/><path class="h" d="M790.21,615.68H612.79V612.6H790.21ZM613,615.43H790v-2.58H613Z"/><path class="i" d="M587.26,596.28h-.8v-4.82l-.81.5v-.83l.81-.53h.8Z"/><path class="i" d="M589,595.91a1.67,1.67,0,0,1-.41-1.19v-2.58A1.65,1.65,0,0,1,589,591a2,2,0,0,1,2.42,0,1.65,1.65,0,0,1,.41,1.19v2.58a1.65,1.65,0,0,1-.41,1.19,2,2,0,0,1-2.42,0Zm1.83-.55a.89.89,0,0,0,.2-.64v-2.58a.89.89,0,0,0-.2-.64.82.82,0,0,0-.62-.22.86.86,0,0,0-.63.22.94.94,0,0,0-.2.64v2.58a.9.9,0,0,0,.21.64,1,1,0,0,0,1.24,0Z"/><path class="i" d="M593.22,595.91a1.67,1.67,0,0,1-.41-1.19v-2.58a1.65,1.65,0,0,1,.41-1.19,2,2,0,0,1,2.42,0,1.61,1.61,0,0,1,.41,1.19v2.58a1.65,1.65,0,0,1-.41,1.19,2,2,0,0,1-2.42,0Zm1.83-.55a.9.9,0,0,0,.21-.64v-2.58a.94.94,0,0,0-.2-.64.86.86,0,0,0-.63-.22.82.82,0,0,0-.62.22.89.89,0,0,0-.2.64v2.58a.89.89,0,0,0,.2.64,1,1,0,0,0,1.24,0Z"/><path class="i" d="M600.1,596.13a1.45,1.45,0,0,1-.6-.6,2.06,2.06,0,0,1-.21-1v-.67a2,2,0,0,1,.21-.94,1.37,1.37,0,0,1,.6-.59,2,2,0,0,1,.95-.21,2.21,2.21,0,0,1,.59.08,1.68,1.68,0,0,1,.51.22,1.54,1.54,0,0,1,.37.35l-.58.52a1.17,1.17,0,0,0-.4-.3,1.13,1.13,0,0,0-.48-.11.94.94,0,0,0-.71.26,1,1,0,0,0-.26.72v.67a1,1,0,0,0,.25.74.94.94,0,0,0,.72.27,1,1,0,0,0,.48-.12,1,1,0,0,0,.4-.32l.58.56a1.38,1.38,0,0,1-.38.34,1.62,1.62,0,0,1-.5.22,2.27,2.27,0,0,1-.59.07A2.12,2.12,0,0,1,600.1,596.13Z"/><path class="i" d="M603.4,592.22h.79v4.06h-.79Zm2.42,1.6a1,1,0,0,0-.21-.67.78.78,0,0,0-.6-.23.81.81,0,0,0-.6.21.73.73,0,0,0-.22.58l-.08-.78a1.46,1.46,0,0,1,.49-.57,1.22,1.22,0,0,1,.67-.2,1.33,1.33,0,0,1,.73.2,1.18,1.18,0,0,1,.46.56,2.4,2.4,0,0,1,.15.89v2.47h-.79Zm2.42,0a.93.93,0,0,0-.22-.67.85.85,0,0,0-.63-.23.72.72,0,0,0-.57.23.9.9,0,0,0-.21.64l-.16-.78a1.61,1.61,0,0,1,.51-.63,1.23,1.23,0,0,1,.69-.22,1.37,1.37,0,0,1,.75.2,1.09,1.09,0,0,1,.47.56,2.21,2.21,0,0,1,.17.89v2.47h-.8Z"/><path class="i" d="M584.33,605.5l2-2.64a1.85,1.85,0,0,0,.27-.47,1.29,1.29,0,0,0,.09-.45h0a.67.67,0,0,0-.2-.53.81.81,0,0,0-.56-.19.76.76,0,0,0-.56.21,1,1,0,0,0-.27.58h-.82a2,2,0,0,1,.29-.83,1.42,1.42,0,0,1,.56-.53,1.67,1.67,0,0,1,.79-.18,1.93,1.93,0,0,1,.87.17,1.21,1.21,0,0,1,.54.51,1.55,1.55,0,0,1,.19.8h0a1.84,1.84,0,0,1-.12.63,2.8,2.8,0,0,1-.35.63l-1.65,2.24h2.15v.76h-3.2Z"/><path class="i" d="M589,605.83a1.67,1.67,0,0,1-.41-1.19v-2.58a1.65,1.65,0,0,1,.41-1.19,2,2,0,0,1,2.42,0,1.65,1.65,0,0,1,.41,1.19v2.58a1.65,1.65,0,0,1-.41,1.19,2,2,0,0,1-2.42,0Zm1.83-.55a.89.89,0,0,0,.2-.64v-2.58a.89.89,0,0,0-.2-.64.82.82,0,0,0-.62-.22.86.86,0,0,0-.63.22.94.94,0,0,0-.19.64v2.58a.89.89,0,0,0,.2.64,1,1,0,0,0,1.24,0Z"/><path class="i" d="M593.22,605.83a1.67,1.67,0,0,1-.41-1.19v-2.58a1.61,1.61,0,0,1,.42-1.19,1.59,1.59,0,0,1,1.2-.42,1.45,1.45,0,0,1,1.62,1.61v2.58a1.61,1.61,0,0,1-.41,1.19,2,2,0,0,1-2.42,0Zm1.84-.55a.94.94,0,0,0,.2-.64v-2.58a.94.94,0,0,0-.2-.64.84.84,0,0,0-.63-.22.82.82,0,0,0-.62.22.89.89,0,0,0-.2.64v2.58a.89.89,0,0,0,.2.64.82.82,0,0,0,.62.22A.86.86,0,0,0,595.06,605.28Z"/><path class="i" d="M600.1,606.05a1.45,1.45,0,0,1-.6-.6,2.06,2.06,0,0,1-.2-1v-.67a2,2,0,0,1,.2-.94,1.37,1.37,0,0,1,.6-.59,2,2,0,0,1,.95-.21,2.35,2.35,0,0,1,.6.08,1.73,1.73,0,0,1,.5.22,1.38,1.38,0,0,1,.37.35l-.58.52a1.08,1.08,0,0,0-.4-.3,1.13,1.13,0,0,0-.48-.11,1,1,0,0,0-.71.26,1,1,0,0,0-.26.72v.67a1,1,0,0,0,.25.74.94.94,0,0,0,.72.27,1.14,1.14,0,0,0,.88-.44l.58.56a1.38,1.38,0,0,1-.38.34,1.62,1.62,0,0,1-.5.22,2.22,2.22,0,0,1-.59.07A2.12,2.12,0,0,1,600.1,606.05Z"/><path class="i" d="M603.4,602.14h.79v4.06h-.79Zm2.42,1.6a1,1,0,0,0-.21-.67.78.78,0,0,0-.6-.23.81.81,0,0,0-.6.21.73.73,0,0,0-.22.58l-.08-.78a1.46,1.46,0,0,1,.49-.57,1.22,1.22,0,0,1,.67-.2,1.3,1.3,0,0,1,.73.2,1.18,1.18,0,0,1,.46.56,2.4,2.4,0,0,1,.16.89v2.47h-.8Zm2.42,0a.93.93,0,0,0-.22-.67.85.85,0,0,0-.63-.23.73.73,0,0,0-.57.23.89.89,0,0,0-.2.64l-.16-.78a1.51,1.51,0,0,1,.5-.63,1.23,1.23,0,0,1,.69-.22,1.35,1.35,0,0,1,.75.2,1.16,1.16,0,0,1,.48.56,2.4,2.4,0,0,1,.16.89v2.47h-.8Z"/><path class="i" d="M585,615.58a1.34,1.34,0,0,1-.54-.49,2,2,0,0,1-.28-.77h.8a.75.75,0,0,0,.25.49.85.85,0,0,0,.54.17.72.72,0,0,0,.59-.25,1.1,1.1,0,0,0,.21-.72v-.48a1.1,1.1,0,0,0-.21-.72.72.72,0,0,0-.59-.25.83.83,0,0,0-.4.11,1.18,1.18,0,0,0-.34.33h-.72v-3h2.89v.76h-2.1V612a1,1,0,0,1,.34-.18.94.94,0,0,1,.37-.07,1.68,1.68,0,0,1,.84.2,1.29,1.29,0,0,1,.53.6,2.07,2.07,0,0,1,.19.94V614a2.25,2.25,0,0,1-.19.94,1.31,1.31,0,0,1-.55.59,1.69,1.69,0,0,1-.86.21A1.74,1.74,0,0,1,585,615.58Z"/><path class="i" d="M589,615.32a1.65,1.65,0,0,1-.41-1.19v-2.58a1.67,1.67,0,0,1,.41-1.19,2,2,0,0,1,2.42,0,1.65,1.65,0,0,1,.41,1.19v2.58a1.64,1.64,0,0,1-.41,1.19,1.92,1.92,0,0,1-2.42,0Zm1.83-.55a.89.89,0,0,0,.2-.64v-2.58a.88.88,0,0,0-.2-.63.78.78,0,0,0-.62-.22.82.82,0,0,0-.63.22.93.93,0,0,0-.2.63v2.58a.9.9,0,0,0,.21.64,1,1,0,0,0,1.24,0Z"/><path class="i" d="M593.22,615.32a1.65,1.65,0,0,1-.41-1.19v-2.58a1.67,1.67,0,0,1,.41-1.19,2,2,0,0,1,2.42,0,1.61,1.61,0,0,1,.41,1.19v2.58a1.64,1.64,0,0,1-.41,1.19,1.92,1.92,0,0,1-2.42,0Zm1.83-.55a.9.9,0,0,0,.21-.64v-2.58a.93.93,0,0,0-.2-.63.82.82,0,0,0-.63-.22.78.78,0,0,0-.62.22.88.88,0,0,0-.2.63v2.58a.89.89,0,0,0,.2.64,1,1,0,0,0,1.24,0Z"/><path class="i" d="M600.1,615.54a1.45,1.45,0,0,1-.6-.6,2,2,0,0,1-.21-1v-.67a2,2,0,0,1,.21-.94,1.45,1.45,0,0,1,.6-.6,2,2,0,0,1,.95-.2,2.22,2.22,0,0,1,.59.07,2,2,0,0,1,.51.22,1.76,1.76,0,0,1,.37.35l-.58.52a1.17,1.17,0,0,0-.4-.3,1.13,1.13,0,0,0-.48-.11.94.94,0,0,0-.71.26,1,1,0,0,0-.26.73V614a1.07,1.07,0,0,0,.25.74,1,1,0,0,0,.72.26,1.13,1.13,0,0,0,.48-.11,1.26,1.26,0,0,0,.4-.32l.58.55a1.42,1.42,0,0,1-.38.35,1.88,1.88,0,0,1-.5.21,2.27,2.27,0,0,1-.59.08A2,2,0,0,1,600.1,615.54Z"/><path class="i" d="M603.4,611.63h.79v4.06h-.79Zm2.42,1.6a1,1,0,0,0-.21-.66.75.75,0,0,0-.6-.24.81.81,0,0,0-.6.21.75.75,0,0,0-.22.58l-.08-.78a1.5,1.5,0,0,1,.49-.56,1.15,1.15,0,0,1,.67-.2,1.32,1.32,0,0,1,.73.19,1.28,1.28,0,0,1,.46.56,2.42,2.42,0,0,1,.15.9v2.46h-.79Zm2.42,0a.91.91,0,0,0-.22-.66.82.82,0,0,0-.63-.24.72.72,0,0,0-.57.23.9.9,0,0,0-.21.64l-.16-.78a1.51,1.51,0,0,1,.51-.62,1.16,1.16,0,0,1,.69-.22,1.37,1.37,0,0,1,.75.19,1.18,1.18,0,0,1,.47.56,2.22,2.22,0,0,1,.17.9v2.46h-.8Z"/><path class="g" d="M23.49,613.89A12.92,12.92,0,1,1,36.4,601,12.93,12.93,0,0,1,23.49,613.89Zm0-24.83A11.92,11.92,0,1,0,35.4,601,11.93,11.93,0,0,0,23.49,589.06Z"/><polygon class="h" points="35.77 588.74 9.42 600.98 35.77 613.21 32.02 600.98 35.77 588.74"/><path class="g" d="M36.58,614.14,8.23,601l28.35-13.17-4,13.17ZM10.61,601,35,612.29,31.5,601,35,589.66Z"/><path class="g" d="M2.52,605.19a5,5,0,0,1-1.11-.38,4.4,4.4,0,0,1-1-.64l.81-1a3.72,3.72,0,0,0,1.16.69,4.08,4.08,0,0,0,1.38.23,2.73,2.73,0,0,0,1.55-.38,1.17,1.17,0,0,0,.55-1.05h0a1.12,1.12,0,0,0-.25-.77,1.44,1.44,0,0,0-.64-.42,8.23,8.23,0,0,0-1-.25H3.89l-.1,0a9.48,9.48,0,0,1-1.5-.36,2.08,2.08,0,0,1-1-.73,2.42,2.42,0,0,1-.41-1.51h0a2.77,2.77,0,0,1,.38-1.47,2.44,2.44,0,0,1,1.12-.92,4.48,4.48,0,0,1,1.77-.32,4.6,4.6,0,0,1,1,.11,4.9,4.9,0,0,1,1.86.86l-.73,1a4.61,4.61,0,0,0-1-.58,3,3,0,0,0-1.06-.2,2.44,2.44,0,0,0-1.46.38,1.24,1.24,0,0,0-.53,1.07h0a1,1,0,0,0,.27.75,1.74,1.74,0,0,0,.67.4,9.3,9.3,0,0,0,1.12.27h.24a7.93,7.93,0,0,1,1.4.41,2.22,2.22,0,0,1,.94.76,2.4,2.4,0,0,1,.38,1.43h0a2.62,2.62,0,0,1-.4,1.45,2.54,2.54,0,0,1-1.16.91,4.8,4.8,0,0,1-1.83.31A6.44,6.44,0,0,1,2.52,605.19Z"/><rect class="g" x="612.5" y="600.68" width="1" height="4.68"/><rect class="g" x="612.5" y="590.76" width="1" height="4.68"/><rect class="g" x="612.5" y="611.45" width="1" height="5.24"/><rect class="g" x="789.58" y="611.45" width="1" height="5.24"/><rect class="g" x="682.59" y="600.68" width="1" height="4.68"/><rect class="g" x="647.3" y="590.76" width="1" height="4.68"/><rect class="a" width="790.34" height="618.13"/><path class="j" d="M293.36,341.23h0Z"/><line class="k" x1="293.36" y1="88.49" x2="296.12" y2="88.49"/><line class="k" x1="443.84" y1="35.77" x2="298.87" y2="35.77"/><line class="k" x1="443.84" y1="88.49" x2="443.84" y2="35.77"/><line class="k" x1="442.12" y1="88.49" x2="443.84" y2="88.49"/><line class="k" x1="442.12" y1="92.01" x2="442.12" y2="88.49"/><line class="k" x1="411.13" y1="92.01" x2="442.12" y2="92.01"/><line class="k" x1="411.13" y1="88.49" x2="411.13" y2="92.01"/><line class="k" x1="298.87" y1="88.49" x2="411.13" y2="88.49"/><line class="k" x1="298.87" y1="35.77" x2="298.87" y2="88.49"/><line class="k" x1="399.08" y1="529.64" x2="378.42" y2="529.64"/><line class="k" x1="399.08" y1="526.13" x2="399.08" y2="529.64"/><line class="k" x1="430.07" y1="526.13" x2="399.08" y2="526.13"/><line class="k" x1="430.07" y1="529.64" x2="430.07" y2="526.13"/><line class="k" x1="466.23" y1="529.64" x2="430.07" y2="529.64"/><line class="k" x1="466.23" y1="582.37" x2="466.23" y2="529.64"/><line class="k" x1="378.42" y1="582.37" x2="466.23" y2="582.37"/><line class="k" x1="378.42" y1="529.64" x2="378.42" y2="582.37"/><rect class="h" x="456.76" y="328.23" width="20.66" height="21.09"/><line class="k" x1="456.76" y1="328.23" x2="456.76" y2="349.32"/><line class="k" x1="477.42" y1="328.23" x2="456.76" y2="328.23"/><line class="k" x1="477.42" y1="349.32" x2="477.42" y2="328.23"/><line class="k" x1="456.76" y1="349.32" x2="477.42" y2="349.32"/><rect class="h" x="462.44" y="102.26" width="21.01" height="133.17"/><line class="k" x1="462.44" y1="102.26" x2="483.44" y2="102.26"/><line class="k" x1="483.44" y1="102.26" x2="483.44" y2="235.43"/><line class="k" x1="483.44" y1="235.43" x2="462.44" y2="235.43"/><line class="k" x1="462.44" y1="235.43" x2="462.44" y2="102.26"/><rect class="h" x="430.93" y="238.77" width="30.99" height="31.64"/><line class="k" x1="430.93" y1="238.77" x2="430.93" y2="270.4"/><line class="k" x1="461.92" y1="238.77" x2="430.93" y2="238.77"/><line class="k" x1="461.92" y1="270.4" x2="461.92" y2="238.77"/><line class="k" x1="430.93" y1="270.4" x2="461.92" y2="270.4"/><rect class="h" x="301.63" y="251.25" width="86.09" height="15.82"/><line class="k" x1="301.63" y1="251.25" x2="301.63" y2="267.06"/><line class="k" x1="387.71" y1="251.25" x2="301.63" y2="251.25"/><line class="k" x1="387.71" y1="267.06" x2="387.71" y2="251.25"/><line class="k" x1="301.63" y1="267.06" x2="387.72" y2="267.06"/><line class="k" x1="383.24" y1="420.68" x2="383.24" y2="399.23"/><polygon points="293.37 95.52 293.37 88.49 297.5 88.49 342.26 88.49 342.26 95.52 293.37 95.52"/><rect x="377.04" y="522.62" width="22.04" height="7.03"/><polygon points="442.12 95.52 442.12 88.5 447.29 88.5 494.64 88.5 494.64 95.52 442.12 95.52"/><polygon points="464.5 529.64 464.5 522.62 490.33 522.62 490.33 441.25 497.22 441.25 497.22 529.64 464.5 529.64"/><rect x="490.33" y="434.74" width="6.89" height="7.03"/><polygon points="494.63 434.74 494.63 88.49 497.22 88.49 497.22 200.98 497.22 397.83 497.22 434.74 494.63 434.74"/><polygon points="466.23 522.62 466.23 515.59 483.44 515.59 483.44 102.55 443.84 102.55 443.84 95.52 490.33 95.52 490.33 522.62 466.23 522.62"/><rect x="293.37" y="95.52" width="47.17" height="7.03"/><polygon points="377.04 522.62 377.04 515.59 383.24 515.59 397.36 515.59 397.36 522.62 377.04 522.62"/><rect x="490.33" y="95.52" width="4.31" height="339.21"/><polygon points="383.24 515.59 383.24 341.23 293.37 341.23 293.37 332.8 293.37 331.04 301.63 331.04 301.63 332.8 391.5 332.8 391.5 515.59 383.24 515.59"/><polygon points="293.37 292.37 293.37 285.34 293.37 276.91 293.37 102.56 301.63 102.56 301.63 292.37 293.37 292.37"/><polygon points="427.66 354.59 427.66 335.26 425.08 335.26 425.08 332.8 427.66 332.8 427.66 325.77 430.07 325.77 430.07 352.13 483.44 352.13 483.44 354.59 427.66 354.59"/><rect x="301.63" y="267.06" width="92.46" height="2.46"/><rect x="293.37" y="292.37" width="3.96" height="1.76"/><rect x="293.37" y="329.28" width="3.96" height="1.76"/><rect x="391.5" y="332.8" width="2.58" height="2.46"/><polygon points="427.66 297.64 427.66 269.52 425.08 269.52 425.08 267.06 427.66 267.06 427.66 235.43 483.44 235.43 483.44 237.89 430.07 237.89 430.07 297.64 427.66 297.64"/><path d="M348.8,341.23h0Z"/><polygon points="436.96 352.13 436.96 345.1 430.07 345.1 430.07 342.46 439.54 342.46 439.54 352.13 436.96 352.13"/><polygon points="462.78 269.52 462.78 237.89 466.23 237.89 466.23 266.01 483.44 266.01 483.44 269.52 462.78 269.52"/><rect x="377.04" y="529.65" width="1.38" height="52.73"/><rect x="297.5" y="35.77" width="1.38" height="52.73"/><line class="k" x1="497.22" y1="441.77" x2="497.22" y2="529.64"/><line class="k" x1="483.44" y1="102.55" x2="483.44" y2="235.43"/><line class="k" x1="483.44" y1="237.89" x2="483.44" y2="266.01"/><line class="k" x1="483.44" y1="269.52" x2="483.44" y2="352.13"/><line class="k" x1="483.44" y1="354.59" x2="483.44" y2="515.58"/><line class="k" x1="443.84" y1="102.55" x2="443.84" y2="95.52"/><line class="k" x1="297.5" y1="88.49" x2="293.36" y2="88.49"/><line class="k" x1="342.26" y1="88.49" x2="297.5" y2="88.49"/><line class="k" x1="340.54" y1="102.55" x2="301.63" y2="102.55"/><line class="k" x1="442.12" y1="88.49" x2="447.29" y2="88.49"/><line class="k" x1="447.29" y1="88.49" x2="487.75" y2="88.49"/><line class="k" x1="443.84" y1="102.55" x2="483.44" y2="102.55"/><line class="k" x1="399.08" y1="529.64" x2="377.04" y2="529.64"/><line class="k" x1="397.36" y1="515.59" x2="391.5" y2="515.59"/><line class="k" x1="383.24" y1="515.59" x2="377.04" y2="515.59"/><line class="k" x1="466.23" y1="515.59" x2="466.23" y2="522.62"/><line class="k" x1="497.22" y1="529.64" x2="464.5" y2="529.64"/><line class="k" x1="340.54" y1="102.55" x2="340.54" y2="95.52"/><line class="k" x1="397.36" y1="515.59" x2="397.36" y2="522.62"/><line class="k" x1="466.23" y1="515.59" x2="483.44" y2="515.59"/><line class="k" x1="378.42" y1="529.64" x2="378.42" y2="582.37"/><line class="k" x1="377.04" y1="582.37" x2="378.42" y2="582.37"/><line class="k" x1="298.87" y1="35.77" x2="298.87" y2="88.49"/><line class="k" x1="297.5" y1="35.77" x2="298.87" y2="35.77"/><line class="k" x1="342.26" y1="95.52" x2="342.26" y2="88.49"/><line class="k" x1="340.54" y1="95.52" x2="342.26" y2="95.52"/><line class="k" x1="442.12" y1="95.52" x2="442.12" y2="88.49"/><line class="k" x1="443.84" y1="95.52" x2="442.12" y2="95.52"/><line class="k" x1="399.08" y1="522.61" x2="399.08" y2="529.64"/><line class="k" x1="397.36" y1="522.61" x2="399.08" y2="522.61"/><line class="k" x1="464.5" y1="522.61" x2="464.5" y2="529.64"/><line class="k" x1="464.5" y1="522.61" x2="466.23" y2="522.61"/><line class="k" x1="483.44" y1="266.01" x2="483.44" y2="269.52"/><line class="k" x1="497.22" y1="441.77" x2="497.22" y2="441.77"/><line class="k" x1="409.41" y1="102.55" x2="443.84" y2="102.55"/><line class="k" x1="297.5" y1="35.77" x2="443.84" y2="35.77"/><line class="k" x1="297.5" y1="35.77" x2="443.84" y2="35.77"/><line class="k" x1="340.54" y1="102.55" x2="409.41" y2="102.55"/><line class="k" x1="377.04" y1="582.37" x2="466.23" y2="582.37"/><line class="k" x1="466.23" y1="529.64" x2="466.23" y2="582.37"/><line class="k" x1="466.23" y1="515.59" x2="431.79" y2="515.59"/><line class="k" x1="431.79" y1="515.59" x2="431.79" y2="522.62"/><line class="k" x1="430.07" y1="522.61" x2="430.07" y2="529.64"/><line class="k" x1="464.5" y1="529.64" x2="430.07" y2="529.64"/><line class="k" x1="431.79" y1="515.59" x2="397.36" y2="515.59"/><line class="k" x1="430.07" y1="526.13" x2="399.08" y2="526.13"/><line class="k" x1="431.79" y1="519.8" x2="431.79" y2="522.62"/><line class="k" x1="429.04" y1="521.91" x2="429.04" y2="522.61"/><line class="k" x1="429.04" y1="522.61" x2="431.79" y2="522.61"/><line class="k" x1="431.79" y1="522.61" x2="431.79" y2="519.8"/><line class="k" x1="431.79" y1="519.8" x2="430.41" y2="519.8"/><line class="k" x1="430.41" y1="519.1" x2="427.66" y2="519.1"/><line class="k" x1="427.66" y1="519.1" x2="427.66" y2="521.91"/><line class="k" x1="427.66" y1="521.91" x2="430.41" y2="521.91"/><line class="k" x1="430.41" y1="521.91" x2="430.41" y2="519.1"/><line class="k" x1="400.11" y1="521.91" x2="400.11" y2="522.61"/><line class="k" x1="400.11" y1="522.61" x2="397.36" y2="522.61"/><line class="k" x1="397.36" y1="522.61" x2="397.36" y2="519.8"/><line class="k" x1="397.36" y1="519.8" x2="398.73" y2="519.8"/><line class="k" x1="398.73" y1="519.1" x2="401.49" y2="519.1"/><line class="k" x1="401.49" y1="519.1" x2="401.49" y2="521.91"/><line class="k" x1="401.49" y1="521.91" x2="398.73" y2="521.91"/><line class="k" x1="398.73" y1="521.91" x2="398.73" y2="519.1"/><line class="k" x1="427.66" y1="519.1" x2="401.49" y2="519.1"/><line class="k" x1="401.49" y1="521.91" x2="427.66" y2="521.91"/><line class="k" x1="427.66" y1="520.51" x2="401.49" y2="520.51"/><line class="k" x1="434.55" y1="521.91" x2="434.55" y2="522.61"/><line class="k" x1="434.55" y1="522.61" x2="431.79" y2="522.61"/><line class="k" x1="431.79" y1="522.61" x2="431.79" y2="519.8"/><line class="k" x1="431.79" y1="519.8" x2="433.17" y2="519.8"/><line class="k" x1="433.17" y1="519.1" x2="435.92" y2="519.1"/><line class="k" x1="435.92" y1="519.1" x2="435.92" y2="521.91"/><line class="k" x1="435.92" y1="521.91" x2="433.17" y2="521.91"/><line class="k" x1="433.17" y1="521.91" x2="433.17" y2="519.1"/><line class="k" x1="463.47" y1="521.91" x2="463.47" y2="522.61"/><line class="k" x1="463.47" y1="522.61" x2="466.23" y2="522.61"/><line class="k" x1="466.23" y1="522.61" x2="466.23" y2="519.8"/><line class="k" x1="466.23" y1="519.8" x2="464.85" y2="519.8"/><line class="k" x1="464.85" y1="519.1" x2="462.09" y2="519.1"/><line class="k" x1="462.09" y1="519.1" x2="462.09" y2="521.91"/><line class="k" x1="462.09" y1="521.91" x2="464.85" y2="521.91"/><line class="k" x1="464.85" y1="521.91" x2="464.85" y2="519.1"/><line class="k" x1="435.92" y1="519.1" x2="462.09" y2="519.1"/><line class="k" x1="462.09" y1="521.91" x2="435.92" y2="521.91"/><line class="k" x1="435.92" y1="520.51" x2="462.09" y2="520.51"/><line class="k" x1="342.26" y1="88.49" x2="411.13" y2="88.49"/><line class="k" x1="400.8" y1="102.55" x2="400.8" y2="95.52"/><line class="k" x1="411.13" y1="95.52" x2="411.13" y2="88.49"/><line class="k" x1="411.13" y1="92.01" x2="442.12" y2="92.01"/><line class="k" x1="412.16" y1="96.23" x2="412.16" y2="95.52"/><line class="k" x1="412.16" y1="95.52" x2="409.41" y2="95.52"/><line class="k" x1="409.41" y1="95.52" x2="409.41" y2="98.34"/><line class="k" x1="409.41" y1="98.34" x2="410.79" y2="98.34"/><line class="k" x1="410.79" y1="99.04" x2="413.54" y2="99.04"/><line class="k" x1="413.54" y1="99.04" x2="413.54" y2="96.23"/><line class="k" x1="413.54" y1="96.23" x2="410.79" y2="96.23"/><line class="k" x1="410.79" y1="96.23" x2="410.79" y2="99.04"/><line class="k" x1="442.47" y1="99.04" x2="439.71" y2="99.04"/><line class="k" x1="439.71" y1="99.04" x2="439.71" y2="96.23"/><line class="k" x1="439.71" y1="96.23" x2="442.47" y2="96.23"/><line class="k" x1="442.47" y1="96.23" x2="442.47" y2="99.04"/><line class="k" x1="413.54" y1="99.04" x2="439.71" y2="99.04"/><line class="k" x1="439.71" y1="96.23" x2="413.54" y2="96.23"/><line class="k" x1="413.54" y1="97.63" x2="439.71" y2="97.63"/><line class="k" x1="441.09" y1="96.23" x2="441.09" y2="95.52"/><line class="k" x1="441.09" y1="95.52" x2="443.84" y2="95.52"/><line class="k" x1="443.84" y1="95.52" x2="443.84" y2="98.34"/><line class="k" x1="443.84" y1="98.34" x2="442.47" y2="98.34"/><line class="k" x1="343.29" y1="96.23" x2="343.29" y2="95.52"/><line class="k" x1="343.29" y1="95.52" x2="340.54" y2="95.52"/><line class="k" x1="340.54" y1="95.52" x2="340.54" y2="98.34"/><line class="k" x1="340.54" y1="98.34" x2="341.92" y2="98.34"/><line class="k" x1="341.92" y1="99.04" x2="344.67" y2="99.04"/><line class="k" x1="344.67" y1="99.04" x2="344.67" y2="96.23"/><line class="k" x1="344.67" y1="96.23" x2="341.92" y2="96.23"/><line class="k" x1="341.92" y1="96.23" x2="341.92" y2="99.04"/><line class="k" x1="373.6" y1="96.23" x2="373.6" y2="95.52"/><line class="k" x1="373.6" y1="95.52" x2="376.35" y2="95.52"/><line class="k" x1="376.35" y1="95.52" x2="376.35" y2="98.34"/><line class="k" x1="376.35" y1="98.34" x2="374.97" y2="98.34"/><line class="k" x1="374.97" y1="99.04" x2="372.22" y2="99.04"/><line class="k" x1="372.22" y1="99.04" x2="372.22" y2="96.23"/><line class="k" x1="372.22" y1="96.23" x2="374.97" y2="96.23"/><line class="k" x1="374.97" y1="96.23" x2="374.97" y2="99.04"/><line class="k" x1="344.67" y1="99.04" x2="372.22" y2="99.04"/><line class="k" x1="372.22" y1="96.23" x2="344.67" y2="96.23"/><line class="k" x1="344.67" y1="97.63" x2="372.22" y2="97.63"/><line class="k" x1="409.41" y1="98.34" x2="406.65" y2="98.34"/><line class="k" x1="406.65" y1="98.34" x2="406.65" y2="95.52"/><line class="k" x1="406.65" y1="95.52" x2="409.41" y2="95.52"/><line class="k" x1="409.41" y1="95.52" x2="409.41" y2="98.34"/><line class="k" x1="406.65" y1="98.34" x2="376.35" y2="98.34"/><line class="k" x1="406.65" y1="96.93" x2="376.35" y2="96.93"/><line class="k" x1="406.65" y1="95.52" x2="376.35" y2="95.52"/><line class="k" x1="301.63" y1="102.55" x2="301.63" y2="267.06"/><line class="k" x1="301.63" y1="269.52" x2="301.63" y2="292.37"/><line class="k" x1="293.36" y1="102.55" x2="293.36" y2="276.91"/><line class="k" x1="301.63" y1="332.8" x2="391.5" y2="332.8"/><line class="k" x1="391.5" y1="335.26" x2="391.5" y2="515.59"/><line class="k" x1="383.24" y1="399.23" x2="383.24" y2="515.58"/><line class="k" x1="301.63" y1="331.04" x2="301.63" y2="332.8"/><line class="k" x1="293.36" y1="285.34" x2="293.36" y2="292.37"/><line class="k" x1="293.36" y1="331.04" x2="293.36" y2="332.8"/><line class="k" x1="293.36" y1="285.34" x2="293.36" y2="285.34"/><line class="k" x1="293.36" y1="276.91" x2="293.36" y2="276.91"/><line class="k" x1="293.36" y1="332.8" x2="293.36" y2="332.8"/><line class="k" x1="293.36" y1="341.23" x2="348.8" y2="341.23"/><line class="k" x1="297.32" y1="294.13" x2="293.36" y2="294.13"/><line class="k" x1="297.32" y1="329.28" x2="293.36" y2="329.28"/><line class="k" x1="297.32" y1="329.28" x2="297.32" y2="331.04"/><line class="k" x1="297.32" y1="294.13" x2="297.32" y2="292.37"/><line class="k" x1="297.32" y1="292.37" x2="301.63" y2="292.37"/><line class="k" x1="297.32" y1="331.04" x2="301.63" y2="331.04"/><line class="k" x1="293.36" y1="329.28" x2="293.36" y2="331.04"/><line class="k" x1="293.36" y1="292.37" x2="293.36" y2="294.13"/><line class="k" x1="348.8" y1="341.23" x2="352.25" y2="341.23"/><line class="k" x1="427.66" y1="235.43" x2="427.66" y2="267.06"/><line class="k" x1="427.66" y1="269.52" x2="427.66" y2="297.65"/><line class="k" x1="430.07" y1="237.89" x2="430.07" y2="297.64"/><line class="k" x1="483.44" y1="235.43" x2="427.66" y2="235.43"/><line class="k" x1="301.63" y1="269.52" x2="394.09" y2="269.52"/><line class="k" x1="425.08" y1="269.52" x2="427.66" y2="269.52"/><line class="k" x1="301.63" y1="267.06" x2="394.09" y2="267.06"/><line class="k" x1="425.08" y1="267.06" x2="427.66" y2="267.06"/><line class="k" x1="394.09" y1="267.06" x2="394.09" y2="269.52"/><line class="k" x1="425.08" y1="267.06" x2="425.08" y2="269.52"/><line class="k" x1="427.66" y1="325.77" x2="427.66" y2="332.8"/><line class="k" x1="427.66" y1="335.26" x2="427.66" y2="354.59"/><line class="k" x1="430.07" y1="325.77" x2="430.07" y2="342.46"/><line class="k" x1="430.07" y1="345.1" x2="430.07" y2="352.13"/><line class="k" x1="483.44" y1="354.59" x2="427.66" y2="354.59"/><line class="k" x1="427.66" y1="335.26" x2="425.08" y2="335.26"/><line class="k" x1="394.09" y1="335.26" x2="391.5" y2="335.26"/><line class="k" x1="483.44" y1="352.13" x2="439.54" y2="352.13"/><line class="k" x1="436.96" y1="352.13" x2="430.07" y2="352.13"/><line class="k" x1="427.66" y1="332.8" x2="425.08" y2="332.8"/><line class="k" x1="394.09" y1="332.8" x2="391.5" y2="332.8"/><line class="k" x1="462.78" y1="237.89" x2="430.07" y2="237.89"/><line class="k" x1="394.09" y1="332.8" x2="394.09" y2="335.26"/><line class="k" x1="425.08" y1="332.8" x2="425.08" y2="335.26"/><line class="k" x1="427.66" y1="325.77" x2="430.07" y2="325.77"/><line class="k" x1="427.66" y1="297.65" x2="430.07" y2="297.65"/><line class="k" x1="398.73" y1="519.1" x2="398.73" y2="486.76"/><g class="l"><path class="k" d="M398.73,486.76c17.5,0,31.68,14.48,31.68,32.34"/><path class="k" d="M312.65,519.1c0-17.86,14.18-32.34,31.68-32.34"/></g><line class="k" x1="442.47" y1="99.04" x2="442.47" y2="131.38"/><g class="l"><path class="k" d="M442.47,131.38c-17.5,0-31.68-14.48-31.68-32.34"/></g><line class="k" x1="462.44" y1="235.08" x2="462.44" y2="213.98"/><line class="k" x1="483.44" y1="235.43" x2="462.44" y2="235.43"/><line class="k" x1="462.44" y1="235.43" x2="462.44" y2="102.26"/><line class="k" x1="462.44" y1="102.26" x2="483.44" y2="102.26"/><line class="k" x1="483.44" y1="102.26" x2="483.44" y2="235.43"/><line class="k" x1="383.24" y1="399.23" x2="383.24" y2="420.68"/><g class="l"><path class="k" d="M273.74,365.84a24.36,24.36,0,0,1,24.1,24.61"/></g><line class="k" x1="427.66" y1="324.01" x2="427.66" y2="299.4"/><line class="k" x1="427.66" y1="324.01" x2="403.56" y2="324.01"/><g class="l"><path class="k" d="M403.56,324a24.36,24.36,0,0,1,24.1-24.61"/></g><line class="k" x1="430.07" y1="324.01" x2="427.66" y2="324.01"/><line class="k" x1="427.66" y1="299.4" x2="430.07" y2="299.4"/><line class="k" x1="427.66" y1="299.4" x2="427.66" y2="297.64"/><line class="k" x1="430.07" y1="299.4" x2="430.07" y2="297.64"/><line class="k" x1="427.66" y1="325.77" x2="427.66" y2="324.01"/><line class="k" x1="430.07" y1="325.77" x2="430.07" y2="324.01"/><line class="k" x1="430.07" y1="324.01" x2="430.07" y2="316.98"/><line class="k" x1="430.07" y1="313.11" x2="430.07" y2="312.32"/><line class="k" x1="430.07" y1="308.45" x2="430.07" y2="307.66"/><line class="k" x1="430.07" y1="306.43" x2="430.07" y2="299.4"/><line class="k" x1="427.66" y1="324.01" x2="426.8" y2="324.01"/><line class="k" x1="426.8" y1="324.01" x2="426.8" y2="327.52"/><line class="k" x1="426.8" y1="327.52" x2="427.66" y2="327.52"/><line class="k" x1="430.07" y1="324.01" x2="430.93" y2="324.01"/><line class="k" x1="430.93" y1="324.01" x2="430.93" y2="327.52"/><line class="k" x1="430.93" y1="327.52" x2="430.07" y2="327.52"/><line class="k" x1="426.8" y1="299.4" x2="426.8" y2="295.89"/><line class="k" x1="426.8" y1="295.89" x2="427.66" y2="295.89"/><line class="k" x1="430.07" y1="299.4" x2="430.93" y2="299.4"/><line class="k" x1="430.93" y1="299.4" x2="430.93" y2="295.89"/><line class="k" x1="430.93" y1="295.89" x2="430.07" y2="295.89"/><line class="k" x1="423.35" y1="267.06" x2="395.81" y2="267.06"/><line class="k" x1="423.35" y1="267.06" x2="423.35" y2="238.94"/><g class="l"><path class="k" d="M395.81,267.06c0-15.53,12.33-28.12,27.54-28.12"/></g><line class="k" x1="423.35" y1="269.52" x2="423.35" y2="267.06"/><line class="k" x1="395.81" y1="267.06" x2="395.81" y2="269.52"/><line class="k" x1="395.81" y1="267.06" x2="394.09" y2="267.06"/><line class="k" x1="395.81" y1="269.52" x2="394.09" y2="269.52"/><line class="k" x1="425.08" y1="267.06" x2="423.36" y2="267.06"/><line class="k" x1="425.08" y1="269.52" x2="423.36" y2="269.52"/><line class="k" x1="423.35" y1="269.52" x2="416.47" y2="269.52"/><line class="k" x1="412.68" y1="269.52" x2="411.91" y2="269.52"/><line class="k" x1="408.12" y1="269.52" x2="407.34" y2="269.52"/><line class="k" x1="403.56" y1="269.52" x2="402.69" y2="269.52"/><line class="k" x1="402.69" y1="269.52" x2="395.81" y2="269.52"/><line class="k" x1="423.35" y1="267.06" x2="423.35" y2="266.19"/><line class="k" x1="423.35" y1="266.19" x2="426.8" y2="266.19"/><line class="k" x1="426.8" y1="266.19" x2="426.8" y2="267.06"/><line class="k" x1="423.35" y1="269.52" x2="423.35" y2="270.4"/><line class="k" x1="423.35" y1="270.4" x2="426.8" y2="270.4"/><line class="k" x1="426.8" y1="270.4" x2="426.8" y2="269.52"/><line class="k" x1="395.81" y1="266.19" x2="392.36" y2="266.19"/><line class="k" x1="392.36" y1="266.19" x2="392.36" y2="267.06"/><line class="k" x1="395.81" y1="269.52" x2="395.81" y2="270.4"/><line class="k" x1="395.81" y1="270.4" x2="392.36" y2="270.4"/><line class="k" x1="392.36" y1="270.4" x2="392.36" y2="269.52"/><line class="k" x1="475.2" y1="110.97" x2="470.33" y2="115.94"/><line class="k" x1="470.33" y1="110.97" x2="475.2" y2="115.94"/><line class="k" x1="472.77" y1="116.97" x2="472.77" y2="109.94"/><line class="k" x1="476.21" y1="113.45" x2="469.33" y2="113.45"/><line class="k" x1="462.44" y1="102.91" x2="462.44" y2="124"/><line class="k" x1="483.1" y1="124" x2="462.44" y2="124"/><line class="k" x1="464.16" y1="213.11" x2="464.16" y2="193.77"/><line class="k" x1="464.16" y1="193.77" x2="481.38" y2="193.77"/><line class="k" x1="481.38" y1="193.77" x2="481.38" y2="213.1"/><line class="k" x1="481.38" y1="213.11" x2="464.16" y2="213.11"/><line class="k" x1="462.44" y1="213.98" x2="462.44" y2="192.89"/><line class="k" x1="465.88" y1="211.35" x2="465.88" y2="195.53"/><line class="k" x1="465.88" y1="195.53" x2="477.93" y2="195.53"/><line class="k" x1="477.93" y1="195.53" x2="477.93" y2="211.35"/><line class="k" x1="477.93" y1="211.35" x2="465.88" y2="211.35"/><g class="l"><path class="k" d="M475.18,203.44a.69.69,0,1,0-.69.7.69.69,0,0,0,.69-.7"/><path class="k" d="M481.22,154.66a3.38,3.38,0,1,0-3.38,3.45,3.41,3.41,0,0,0,3.38-3.45"/></g><line class="k" x1="483.1" y1="160.03" x2="462.44" y2="160.03"/><line class="k" x1="462.44" y1="160.03" x2="462.44" y2="138.94"/><line class="k" x1="462.44" y1="138.94" x2="483.1" y2="138.94"/><g class="l"><path class="k" d="M471.08,154.66a3.38,3.38,0,1,0-3.38,3.45,3.41,3.41,0,0,0,3.38-3.45"/><path class="k" d="M471.08,144.3a3.38,3.38,0,1,0-3.38,3.46,3.42,3.42,0,0,0,3.38-3.46"/></g><line class="k" x1="461.5" y1="141.81" x2="461.5" y2="157.15"/><g class="l"><path class="k" d="M373.25,408.37a.69.69,0,0,0-.69-.7.7.7,0,0,0,0,1.4.69.69,0,0,0,.69-.7"/><path class="k" d="M325.22,406.26a3.1,3.1,0,1,0-3.1,3.17,3.14,3.14,0,0,0,3.1-3.17"/><path class="k" d="M325.22,415.75a3.1,3.1,0,1,0-3.1,3.17,3.14,3.14,0,0,0,3.1-3.17"/><path class="k" d="M315.92,415.75a3.1,3.1,0,1,0-3.1,3.17,3.14,3.14,0,0,0,3.1-3.17"/></g><line class="k" x1="297.32" y1="327.52" x2="297.32" y2="295.89"/><line class="k" x1="293.36" y1="327.52" x2="293.36" y2="295.89"/><line class="k" x1="297.32" y1="327.52" x2="328.31" y2="327.52"/><g class="l"><path class="k" d="M297.32,295.89c17.12,0,31,14.16,31,31.63"/></g><line class="k" x1="293.36" y1="327.52" x2="297.32" y2="327.52"/><line class="k" x1="297.32" y1="295.89" x2="293.36" y2="295.89"/><line class="k" x1="297.32" y1="295.89" x2="297.32" y2="294.13"/><line class="k" x1="293.36" y1="295.89" x2="293.36" y2="294.13"/><line class="k" x1="297.32" y1="329.28" x2="297.32" y2="327.52"/><line class="k" x1="293.36" y1="329.28" x2="293.36" y2="327.52"/><line class="k" x1="395.81" y1="335.26" x2="423.35" y2="335.26"/><line class="k" x1="395.81" y1="335.26" x2="395.81" y2="363.38"/><g class="l"><path class="k" d="M423.35,335.26c0,15.53-12.33,28.12-27.54,28.12"/></g><line class="k" x1="395.81" y1="332.8" x2="395.81" y2="335.26"/><line class="k" x1="423.35" y1="335.26" x2="423.35" y2="332.8"/><line class="k" x1="423.35" y1="335.26" x2="425.08" y2="335.26"/><line class="k" x1="423.35" y1="332.8" x2="425.08" y2="332.8"/><line class="k" x1="394.09" y1="335.26" x2="395.81" y2="335.26"/><line class="k" x1="394.09" y1="332.8" x2="395.81" y2="332.8"/><line class="k" x1="395.81" y1="332.8" x2="402.69" y2="332.8"/><line class="k" x1="406.48" y1="332.8" x2="407.26" y2="332.8"/><line class="k" x1="411.04" y1="332.8" x2="411.82" y2="332.8"/><line class="k" x1="415.61" y1="332.8" x2="416.47" y2="332.8"/><line class="k" x1="416.47" y1="332.8" x2="423.35" y2="332.8"/><line class="k" x1="395.81" y1="335.26" x2="395.81" y2="336.14"/><line class="k" x1="395.81" y1="336.14" x2="392.36" y2="336.14"/><line class="k" x1="392.36" y1="336.14" x2="392.36" y2="335.26"/><line class="k" x1="395.81" y1="332.8" x2="395.81" y2="331.92"/><line class="k" x1="395.81" y1="331.92" x2="392.36" y2="331.92"/><line class="k" x1="392.36" y1="331.92" x2="392.36" y2="332.8"/><line class="k" x1="423.35" y1="336.14" x2="426.8" y2="336.14"/><line class="k" x1="426.8" y1="336.14" x2="426.8" y2="335.26"/><line class="k" x1="423.35" y1="332.8" x2="423.35" y2="331.92"/><line class="k" x1="423.35" y1="331.92" x2="426.8" y2="331.92"/><line class="k" x1="426.8" y1="331.92" x2="426.8" y2="332.8"/><g class="l"><path class="k" d="M374.63,366.72a.86.86,0,1,0-.86.88.87.87,0,0,0,.86-.88"/><path class="k" d="M349.66,366.72a3.49,3.49,0,0,1,3.45-3.52"/><path class="k" d="M353.11,391.32a3.47,3.47,0,0,1-3.44-3.51"/><path class="k" d="M373.77,363.2a3.48,3.48,0,0,1,3.44,3.52"/><path class="k" d="M377.21,387.81a3.47,3.47,0,0,1-3.44,3.51"/><path class="k" d="M457.62,244a.86.86,0,1,0-.86.88.87.87,0,0,0,.86-.88"/></g><line class="k" x1="461.92" y1="270.4" x2="430.93" y2="270.4"/><line class="k" x1="430.93" y1="270.4" x2="430.93" y2="238.77"/><line class="k" x1="430.93" y1="238.77" x2="461.92" y2="238.77"/><line class="k" x1="461.92" y1="238.77" x2="461.92" y2="270.4"/><line class="k" x1="456.76" y1="268.65" x2="436.1" y2="268.65"/><line class="k" x1="432.65" y1="265.13" x2="432.65" y2="244.04"/><line class="k" x1="436.1" y1="240.52" x2="456.76" y2="240.52"/><line class="k" x1="460.2" y1="244.04" x2="460.2" y2="265.13"/><g class="l"><path class="k" d="M460.2,265.13a3.47,3.47,0,0,1-3.44,3.51"/><path class="k" d="M436.1,268.65a3.49,3.49,0,0,1-3.45-3.52"/><path class="k" d="M456.76,240.52A3.48,3.48,0,0,1,460.2,244"/><path class="k" d="M432.65,244a3.48,3.48,0,0,1,3.44-3.52"/></g><line class="k" x1="478.28" y1="352.13" x2="478.28" y2="269.52"/><line class="k" x1="430.93" y1="273.04" x2="434.37" y2="273.04"/><line class="k" x1="434.37" y1="273.04" x2="434.37" y2="294.13"/><line class="k" x1="434.37" y1="294.13" x2="430.93" y2="294.13"/><line class="k" x1="430.93" y1="294.13" x2="430.93" y2="293.08"/><line class="k" x1="430.93" y1="293.08" x2="433.34" y2="293.08"/><line class="k" x1="433.34" y1="293.08" x2="433.34" y2="274.09"/><line class="k" x1="433.34" y1="274.09" x2="430.93" y2="274.09"/><line class="k" x1="430.93" y1="274.09" x2="430.93" y2="273.04"/><line class="k" x1="430.93" y1="273.04" x2="434.37" y2="273.04"/><line class="k" x1="430.93" y1="294.13" x2="434.37" y2="294.13"/><line class="k" x1="430.93" y1="274.09" x2="433.34" y2="274.09"/><line class="k" x1="430.93" y1="293.08" x2="433.34" y2="293.08"/><line class="k" x1="434.37" y1="273.04" x2="434.37" y2="294.13"/><line class="k" x1="433.34" y1="273.04" x2="433.34" y2="294.13"/><line class="k" x1="430.93" y1="273.04" x2="430.93" y2="274.09"/><line class="k" x1="430.93" y1="293.08" x2="430.93" y2="294.13"/><line class="k" x1="456.76" y1="328.23" x2="456.76" y2="349.32"/><line class="k" x1="456.76" y1="349.32" x2="477.42" y2="349.32"/><line class="k" x1="477.42" y1="349.32" x2="477.42" y2="328.23"/><line class="k" x1="477.42" y1="328.23" x2="456.76" y2="328.23"/><g class="l"><path class="k" d="M473.11,338.77a6,6,0,1,0-6,6.15,6.08,6.08,0,0,0,6-6.15"/><path class="k" d="M472.08,338.77a5,5,0,1,0-5,5.1,5,5,0,0,0,5-5.1"/></g><line class="k" x1="466.23" y1="266.01" x2="466.23" y2="269.52"/><line class="k" x1="466.23" y1="237.89" x2="483.44" y2="237.89"/><line class="k" x1="462.78" y1="269.52" x2="483.44" y2="269.52"/><line class="k" x1="462.78" y1="269.52" x2="462.78" y2="237.89"/><line class="k" x1="466.23" y1="266.01" x2="466.23" y2="237.89"/><line class="k" x1="348.8" y1="341.23" x2="352.25" y2="341.23"/><line class="k" x1="352.25" y1="341.23" x2="383.24" y2="341.23"/><line class="k" x1="383.24" y1="341.23" x2="383.24" y2="357.05"/><line class="k" x1="430.07" y1="345.1" x2="430.07" y2="352.13"/><line class="k" x1="436.96" y1="352.13" x2="430.07" y2="352.13"/><line class="k" x1="430.07" y1="342.46" x2="439.54" y2="342.46"/><line class="k" x1="439.54" y1="342.46" x2="439.54" y2="352.13"/><line class="k" x1="430.07" y1="345.1" x2="436.96" y2="345.1"/><line class="k" x1="436.96" y1="345.1" x2="436.96" y2="352.13"/><line class="k" x1="466.23" y1="513.83" x2="438.68" y2="513.83"/><line class="k" x1="438.68" y1="513.83" x2="438.68" y2="511.61"/><line class="k" x1="438.68" y1="511.61" x2="466.23" y2="511.61"/><line class="k" x1="466.23" y1="511.61" x2="466.23" y2="513.83"/><g class="l"><path class="k" d="M437,512.72a1.73,1.73,0,1,0-1.72,1.76,1.74,1.74,0,0,0,1.72-1.76"/></g><line class="k" x1="352.59" y1="104.31" x2="400.8" y2="104.31"/><line class="k" x1="400.8" y1="104.31" x2="400.8" y2="107.83"/><line class="k" x1="400.8" y1="107.83" x2="352.59" y2="107.83"/><line class="k" x1="352.59" y1="107.83" x2="352.59" y2="104.31"/><g class="l"><path class="k" d="M406,106.07a1.73,1.73,0,1,0-1.73,1.76,1.75,1.75,0,0,0,1.73-1.76"/></g><line class="k" x1="462.78" y1="266.01" x2="483.44" y2="266.01"/><line class="k" x1="442.12" y1="88.49" x2="435.24" y2="88.49"/><line class="k" x1="431.45" y1="88.49" x2="430.67" y2="88.49"/><line class="k" x1="426.88" y1="88.49" x2="426.11" y2="88.49"/><line class="k" x1="422.32" y1="88.49" x2="418.02" y2="88.49"/><line class="k" x1="418.02" y1="88.49" x2="411.13" y2="88.49"/><line class="k" x1="430.07" y1="529.64" x2="423.18" y2="529.64"/><line class="k" x1="419.39" y1="529.64" x2="418.62" y2="529.64"/><line class="k" x1="414.83" y1="529.64" x2="414.06" y2="529.64"/><line class="k" x1="410.27" y1="529.64" x2="405.97" y2="529.64"/><line class="k" x1="405.97" y1="529.64" x2="399.08" y2="529.64"/><line class="k" x1="483.44" y1="266.01" x2="466.23" y2="266.01"/><line class="k" x1="466.23" y1="266.01" x2="466.23" y2="237.89"/><line class="k" x1="466.23" y1="237.89" x2="469.67" y2="262.49"/><line class="k" x1="469.67" y1="262.49" x2="483.44" y2="266.01"/><rect class="h" x="340.59" y="146.49" width="17.22" height="28.12"/><line class="k" x1="340.59" y1="146.49" x2="340.59" y2="174.61"/><line class="k" x1="357.81" y1="146.49" x2="340.59" y2="146.49"/><line class="k" x1="357.81" y1="174.61" x2="357.81" y2="146.49"/><line class="k" x1="340.59" y1="174.61" x2="357.81" y2="174.61"/><path class="h" d="M297.15,341.23h0Z"/><line class="k" x1="348.8" y1="341.23" x2="297.15" y2="341.23"/><rect class="h" x="478.28" y="269.53" width="5.17" height="82.61"/><line class="k" x1="478.28" y1="269.52" x2="478.28" y2="352.13"/><line class="k" x1="483.44" y1="269.52" x2="478.28" y2="269.52"/><line class="k" x1="483.44" y1="352.13" x2="483.44" y2="269.52"/><line class="k" x1="478.28" y1="352.13" x2="483.44" y2="352.13"/><rect class="h" x="430.93" y="293.08" width="2.41" height="1.05"/><line class="k" x1="433.34" y1="294.13" x2="433.34" y2="293.08"/><line class="k" x1="430.93" y1="294.13" x2="433.34" y2="294.13"/><line class="k" x1="430.93" y1="293.08" x2="430.93" y2="294.13"/><line class="k" x1="433.34" y1="293.08" x2="430.93" y2="293.08"/><rect class="h" x="433.34" y="273.04" width="1.03" height="21.09"/><line class="k" x1="433.34" y1="294.13" x2="434.37" y2="294.13"/><line class="k" x1="433.34" y1="273.04" x2="433.34" y2="294.13"/><line class="k" x1="434.37" y1="273.04" x2="433.34" y2="273.04"/><line class="k" x1="434.37" y1="294.13" x2="434.37" y2="273.04"/><rect class="h" x="430.93" y="273.04" width="2.41" height="1.05"/><line class="k" x1="430.93" y1="274.09" x2="433.34" y2="274.09"/><line class="k" x1="430.93" y1="273.04" x2="430.93" y2="274.09"/><line class="k" x1="433.34" y1="273.04" x2="430.93" y2="273.04"/><line class="k" x1="433.34" y1="274.09" x2="433.34" y2="273.04"/><polygon class="h" points="434.02 513.96 433.51 512.72 434.02 511.48 435.24 510.96 436.45 511.48 436.96 512.72 436.45 513.96 435.24 514.48 434.02 513.96"/><g class="l"><path class="k" d="M437,512.72a1.73,1.73,0,1,1-3.45,0"/><path class="k" d="M433.51,512.72a1.73,1.73,0,1,1,3.45,0"/></g><rect class="h" x="438.68" y="511.61" width="27.55" height="2.21"/><line class="k" x1="438.68" y1="513.83" x2="466.23" y2="513.83"/><line class="k" x1="438.68" y1="511.61" x2="438.68" y2="513.83"/><line class="k" x1="466.23" y1="511.61" x2="438.68" y2="511.61"/><line class="k" x1="466.23" y1="513.83" x2="466.23" y2="511.61"/><polygon class="h" points="403.03 107.31 402.52 106.07 403.03 104.83 404.24 104.31 405.46 104.83 405.96 106.07 405.46 107.31 404.24 107.83 403.03 107.31"/><g class="l"><path class="k" d="M406,106.07a1.73,1.73,0,1,1-3.45,0"/><path class="k" d="M402.52,106.07a1.72,1.72,0,1,1,3.44,0"/></g><rect class="h" x="352.59" y="104.31" width="48.21" height="3.52"/><line class="k" x1="400.8" y1="104.31" x2="352.59" y2="104.31"/><line class="k" x1="400.8" y1="107.83" x2="400.8" y2="104.31"/><line class="k" x1="352.59" y1="107.83" x2="400.8" y2="107.83"/><line class="k" x1="352.59" y1="104.31" x2="352.59" y2="107.83"/><polygon class="h" points="424.27 169.22 421.42 167 418.1 165.59 414.53 165.12 418.39 158.31 419.66 157.03 421.38 156.55 423.11 157.02 429.07 160.52 430.33 161.81 430.79 163.56 430.33 165.32 426.46 172.13 424.27 169.22"/><polygon class="h" points="393.12 185.76 391.86 184.48 391.4 182.72 391.41 175.7 391.88 173.94 393.14 172.65 394.87 172.18 402.58 172.17 401.19 175.56 400.72 179.2 401.18 182.84 402.56 186.22 394.85 186.23 393.12 185.76"/><polygon class="h" points="419.59 201.31 418.33 200.03 414.49 193.23 418.06 192.75 421.38 191.34 424.25 189.1 426.44 186.18 430.29 192.98 430.74 194.74 430.28 196.5 429.01 197.78 423.04 201.3 421.32 201.78 419.59 201.31"/><polygon class="h" points="410.92 192.75 407.59 191.36 404.74 189.13 402.56 186.22 401.18 182.83 400.72 179.2 401.19 175.56 402.58 172.17 404.77 169.25 407.63 167.01 410.96 165.61 414.53 165.12 418.1 165.59 421.42 166.99 424.27 169.22 426.46 172.13 427.83 175.52 428.3 179.16 427.82 182.79 426.44 186.19 424.25 189.1 421.39 191.34 418.06 192.74 414.49 193.23 410.92 192.75"/><line class="k" x1="427.83" y1="175.52" x2="426.46" y2="172.13"/><line class="k" x1="428.3" y1="179.15" x2="427.83" y2="175.52"/><line class="k" x1="427.82" y1="182.79" x2="428.3" y2="179.15"/><line class="k" x1="426.44" y1="186.18" x2="427.82" y2="182.79"/><line class="k" x1="424.25" y1="189.1" x2="426.44" y2="186.18"/><line class="k" x1="421.39" y1="191.34" x2="424.25" y2="189.1"/><line class="k" x1="418.06" y1="192.74" x2="421.38" y2="191.34"/><line class="k" x1="414.49" y1="193.23" x2="418.06" y2="192.74"/><line class="k" x1="410.92" y1="192.76" x2="414.49" y2="193.23"/><line class="k" x1="407.59" y1="191.36" x2="410.92" y2="192.76"/><line class="k" x1="404.74" y1="189.13" x2="407.59" y2="191.36"/><line class="k" x1="402.56" y1="186.22" x2="404.74" y2="189.13"/><line class="k" x1="401.18" y1="182.83" x2="402.56" y2="186.22"/><line class="k" x1="400.72" y1="179.2" x2="401.18" y2="182.83"/><line class="k" x1="401.19" y1="175.56" x2="400.72" y2="179.2"/><line class="k" x1="402.58" y1="172.17" x2="401.19" y2="175.56"/><line class="k" x1="404.77" y1="169.25" x2="402.58" y2="172.17"/><line class="k" x1="407.63" y1="167.02" x2="404.77" y2="169.25"/><line class="k" x1="410.96" y1="165.61" x2="407.63" y2="167.02"/><line class="k" x1="414.53" y1="165.12" x2="410.96" y2="165.61"/><line class="k" x1="418.1" y1="165.6" x2="414.53" y2="165.12"/><line class="k" x1="421.42" y1="166.99" x2="418.1" y2="165.6"/><line class="k" x1="424.27" y1="169.22" x2="421.42" y2="166.99"/><line class="k" x1="426.46" y1="172.13" x2="424.27" y2="169.22"/><g class="l"><path class="k" d="M421.39,191.34a13.62,13.62,0,0,1-18.83-5.12,14.22,14.22,0,0,1,5.07-19.2"/><path class="k" d="M407.63,167a13.62,13.62,0,0,1,18.83,5.11,14.23,14.23,0,0,1-5.07,19.21"/></g><line class="k" x1="422.24" y1="158.54" x2="428.21" y2="162.05"/><line class="k" x1="430.33" y1="165.32" x2="426.46" y2="172.13"/><line class="k" x1="423.11" y1="157.02" x2="429.07" y2="160.52"/><line class="k" x1="414.53" y1="165.12" x2="418.39" y2="158.31"/><line class="k" x1="393.13" y1="182.72" x2="393.14" y2="175.69"/><line class="k" x1="394.87" y1="172.18" x2="402.58" y2="172.17"/><line class="k" x1="391.4" y1="182.72" x2="391.41" y2="175.7"/><line class="k" x1="402.56" y1="186.22" x2="394.85" y2="186.23"/><line class="k" x1="428.16" y1="196.26" x2="422.18" y2="199.78"/><line class="k" x1="418.33" y1="200.03" x2="414.49" y2="193.23"/><line class="k" x1="429.02" y1="197.78" x2="423.04" y2="201.3"/><line class="k" x1="426.44" y1="186.18" x2="430.29" y2="192.98"/><g class="l"><path class="k" d="M428.21,162.05a1.68,1.68,0,0,1,.63.64,1.78,1.78,0,0,1,0,1.76"/><path class="k" d="M419.88,159.19a1.71,1.71,0,0,1,.64-.64,1.68,1.68,0,0,1,1.72,0"/><path class="k" d="M429.07,160.53a3.37,3.37,0,0,1,1.26,1.28,3.57,3.57,0,0,1,0,3.51"/><path class="k" d="M418.39,158.31a3.54,3.54,0,0,1,1.27-1.28,3.37,3.37,0,0,1,3.44,0"/><path class="k" d="M393.14,175.69a1.78,1.78,0,0,1,.86-1.52,1.73,1.73,0,0,1,.86-.23"/><path class="k" d="M394.85,184.48a1.71,1.71,0,0,1-1.49-.88,1.81,1.81,0,0,1-.23-.88"/><path class="k" d="M391.41,175.7a3.53,3.53,0,0,1,1.73-3,3.38,3.38,0,0,1,1.73-.47"/><path class="k" d="M394.85,186.23a3.41,3.41,0,0,1-3-1.75,3.58,3.58,0,0,1-.46-1.76"/><path class="k" d="M422.18,199.78a1.69,1.69,0,0,1-2.35-.64"/><path class="k" d="M428.79,193.86a1.77,1.77,0,0,1-.63,2.4"/><path class="k" d="M423,201.3a3.4,3.4,0,0,1-4.71-1.27"/><path class="k" d="M430.29,193a3.56,3.56,0,0,1-1.27,4.8"/></g><polygon class="h" points="305.13 199.22 304.64 199.01 304.44 198.52 304.44 109.58 361.25 109.58 361.25 110.64 361.56 109.89 362.29 109.58 380.19 109.58 382.83 110.12 385.06 111.64 386.56 113.92 387.08 116.61 387.08 132.43 386.56 135.12 385.06 137.4 382.83 138.93 380.19 139.46 362.29 139.46 361.56 139.35 361.22 138.69 360.85 139.25 360.22 139.46 334.74 139.46 334.01 139.15 333.71 138.41 333.4 139.15 332.67 139.46 333.4 139.77 333.71 140.52 333.71 168.29 333.4 169.03 332.67 169.34 333.4 169.65 333.71 170.4 333.71 192.89 333.74 193.38 333.47 193.79 333.02 193.95 333.5 194.15 333.71 194.65 333.71 195.71 333.25 197.46 331.99 198.75 330.26 199.22 305.13 199.22"/><line class="k" x1="333.71" y1="194.65" x2="333.71" y2="195.71"/><line class="k" x1="330.26" y1="199.22" x2="305.13" y2="199.22"/><line class="k" x1="304.44" y1="198.52" x2="304.44" y2="194.65"/><line class="k" x1="305.13" y1="193.95" x2="333.02" y2="193.95"/><line class="k" x1="304.44" y1="194.65" x2="304.44" y2="169.34"/><line class="k" x1="304.44" y1="169.34" x2="306.85" y2="169.34"/><line class="k" x1="313.34" y1="169.34" x2="315.41" y2="169.34"/><line class="k" x1="333.71" y1="170.4" x2="333.71" y2="192.89"/><line class="k" x1="332.67" y1="193.95" x2="315.41" y2="193.95"/><line class="k" x1="315.41" y1="169.34" x2="332.67" y2="169.34"/><line class="k" x1="305.81" y1="170.4" x2="305.81" y2="192.89"/><line class="k" x1="306.85" y1="193.95" x2="313.34" y2="193.95"/><line class="k" x1="313.34" y1="169.34" x2="306.85" y2="169.34"/><line class="k" x1="304.44" y1="139.46" x2="304.44" y2="169.34"/><line class="k" x1="304.44" y1="139.46" x2="306.85" y2="139.46"/><line class="k" x1="304.44" y1="169.34" x2="306.85" y2="169.34"/><line class="k" x1="313.34" y1="139.46" x2="315.41" y2="139.46"/><line class="k" x1="313.34" y1="169.34" x2="315.41" y2="169.34"/><line class="k" x1="333.71" y1="168.29" x2="333.71" y2="140.52"/><line class="k" x1="332.67" y1="139.46" x2="315.41" y2="139.46"/><line class="k" x1="315.41" y1="169.34" x2="332.67" y2="169.34"/><line class="k" x1="305.81" y1="168.29" x2="305.81" y2="140.52"/><line class="k" x1="306.85" y1="139.46" x2="313.34" y2="139.46"/><line class="k" x1="313.34" y1="169.34" x2="306.85" y2="169.34"/><line class="k" x1="387.08" y1="132.43" x2="387.08" y2="116.61"/><line class="k" x1="380.19" y1="109.58" x2="362.29" y2="109.58"/><line class="k" x1="361.25" y1="110.64" x2="361.25" y2="138.41"/><line class="k" x1="362.29" y1="139.46" x2="380.19" y2="139.46"/><line class="k" x1="315.41" y1="139.46" x2="332.67" y2="139.46"/><line class="k" x1="333.71" y1="138.41" x2="333.71" y2="120.79"/><line class="k" x1="305.81" y1="110.99" x2="332.67" y2="110.99"/><line class="k" x1="333.71" y1="112.04" x2="333.71" y2="118.68"/><line class="k" x1="313.34" y1="139.46" x2="306.85" y2="139.46"/><line class="k" x1="305.81" y1="138.41" x2="305.81" y2="110.99"/><line class="k" x1="333.71" y1="109.58" x2="304.44" y2="109.58"/><line class="k" x1="304.44" y1="109.58" x2="304.44" y2="139.46"/><line class="k" x1="333.71" y1="109.58" x2="333.71" y2="112.04"/><line class="k" x1="306.85" y1="139.46" x2="304.44" y2="139.46"/><line class="k" x1="313.34" y1="139.46" x2="315.41" y2="139.46"/><line class="k" x1="333.71" y1="118.68" x2="333.71" y2="120.79"/><line class="k" x1="361.25" y1="109.58" x2="333.71" y2="109.58"/><line class="k" x1="361.25" y1="109.58" x2="361.25" y2="112.04"/><line class="k" x1="333.71" y1="109.58" x2="333.71" y2="112.04"/><line class="k" x1="361.25" y1="118.68" x2="361.25" y2="120.79"/><line class="k" x1="333.71" y1="118.68" x2="333.71" y2="120.79"/><line class="k" x1="334.74" y1="139.46" x2="360.22" y2="139.46"/><line class="k" x1="361.25" y1="138.41" x2="361.25" y2="120.79"/><line class="k" x1="333.71" y1="120.79" x2="333.71" y2="138.41"/><line class="k" x1="334.74" y1="110.99" x2="360.22" y2="110.99"/><line class="k" x1="361.25" y1="112.04" x2="361.25" y2="118.68"/><line class="k" x1="333.71" y1="118.68" x2="333.71" y2="112.04"/><g class="l"><path class="k" d="M305.13,199.22a.69.69,0,0,1-.69-.7"/><path class="k" d="M304.44,194.65a.69.69,0,0,1,.69-.7"/><path class="k" d="M333,194a.69.69,0,0,1,.69.7"/><path class="k" d="M333.71,192.89a1.05,1.05,0,0,1-1,1.06"/><path class="k" d="M332.67,169.34a1.05,1.05,0,0,1,1,1.06"/><path class="k" d="M332.67,139.46a1.06,1.06,0,0,1,1,1.06"/><path class="k" d="M333.71,168.29a1,1,0,0,1-1,1.05"/><path class="k" d="M361.25,110.64a1.06,1.06,0,0,1,1-1.06"/><path class="k" d="M362.29,139.46a1,1,0,0,1-1-1.05"/><path class="k" d="M333.71,138.41a1,1,0,0,1-1,1.05"/><path class="k" d="M361.25,138.41a1,1,0,0,1-1,1.05"/><path class="k" d="M334.74,139.46a1,1,0,0,1-1-1.05"/><path class="k" d="M387.08,132.43a7,7,0,0,1-6.89,7"/><path class="k" d="M380.19,109.58a7,7,0,0,1,6.89,7"/><path class="k" d="M360.22,115.91a50.6,50.6,0,0,1-25.48,0"/><path class="k" d="M310.64,140.52a53.88,53.88,0,0,1,0,27.77"/><path class="k" d="M310.64,170.4a54.17,54.17,0,0,1,0,22.49"/><path class="k" d="M310.64,138.41a18.29,18.29,0,0,1-.79-5.3,17.82,17.82,0,0,1,17.63-18,17.25,17.25,0,0,1,5.19.8"/><path class="k" d="M333.71,195.71a3.48,3.48,0,0,1-3.45,3.51"/><path class="k" d="M307.38,479.45a6.91,6.91,0,0,1,0-10.15"/><path class="k" d="M321.6,346.51a.52.52,0,0,1,.52.52"/><path class="k" d="M322.12,361.45a.52.52,0,0,1-.52.52"/><path class="k" d="M303.69,362a.51.51,0,0,1-.51-.52"/><path class="k" d="M303.18,347a.51.51,0,0,1,.51-.52"/><path class="k" d="M320.57,350.37a.52.52,0,0,1,.51.53"/><path class="k" d="M321.08,360.39a.52.52,0,0,1-.51.53"/><path class="k" d="M304.73,360.92a.52.52,0,0,1-.52-.53"/><path class="k" d="M304.21,350.9a.52.52,0,0,1,.52-.53"/><path class="k" d="M311.79,348.61a.86.86,0,1,1,1.72,0"/><path class="k" d="M313.37,350.09a.76.76,0,0,1-.11.33"/><path class="k" d="M313,352.29a.39.39,0,0,1-.38.34.38.38,0,0,1-.38-.34"/><path class="k" d="M312,350.42a.77.77,0,0,1-.12-.33"/><path class="k" d="M313.12,350a.47.47,0,1,1-.94,0"/><path class="k" d="M313.26,350.42a.72.72,0,0,1-.61.34.7.7,0,0,1-.61-.34"/><path class="k" d="M346.39,479.61a1.74,1.74,0,0,1-1.72-1.76"/><path class="k" d="M344.67,470.82a1.74,1.74,0,0,1,1.72-1.76"/><path class="k" d="M346.39,481.37a3.48,3.48,0,0,1-3.44-3.52"/><path class="k" d="M343,470.82a3.47,3.47,0,0,1,3.44-3.51"/><path class="k" d="M364.3,450.79A1.74,1.74,0,0,1,366,449"/><path class="k" d="M372.91,449a1.74,1.74,0,0,1,1.72,1.76"/><path class="k" d="M362.58,450.79a3.48,3.48,0,0,1,3.44-3.52"/><path class="k" d="M372.91,447.27a3.48,3.48,0,0,1,3.44,3.52"/><path class="k" d="M366,499.65a1.74,1.74,0,0,1-1.72-1.76"/><path class="k" d="M374.63,497.89a1.74,1.74,0,0,1-1.72,1.76"/><path class="k" d="M366,501.4a3.47,3.47,0,0,1-3.44-3.51"/><path class="k" d="M376.35,497.89a3.47,3.47,0,0,1-3.44,3.51"/></g><line class="k" x1="383.24" y1="460.28" x2="383.24" y2="488.4"/><g class="l"><path class="k" d="M341.4,358.11a5.77,5.77,0,0,1-2.24,4.57"/><path class="k" d="M330.9,362.68a5.77,5.77,0,0,1-2.24-4.58"/><path class="k" d="M339.16,362.68a6.79,6.79,0,0,1-8.26,0"/><path class="k" d="M330.9,362.68a5.77,5.77,0,0,1-2.24-4.58"/><path class="k" d="M335,364.08a6.8,6.8,0,0,1-4.13-1.4"/><path class="k" d="M332.14,361a3.62,3.62,0,0,1-1.41-2.88"/><path class="k" d="M337.92,361a4.75,4.75,0,0,1-5.78,0"/><path class="k" d="M339.33,358.11a3.62,3.62,0,0,1-1.41,2.88"/></g><polygon class="h" points="421.46 480.43 418.83 479.9 416.59 478.37 415.1 476.09 414.57 473.4 414.57 424.19 415.1 421.5 416.59 419.22 418.83 417.69 421.46 417.16 473.11 417.16 483.44 417.16 483.44 480.43 421.46 480.43"/><rect class="h" x="473.11" y="480.43" width="10.33" height="12.3"/><rect class="h" x="473.11" y="404.86" width="10.33" height="12.3"/><line class="k" x1="471.99" y1="446.81" x2="474.97" y2="445.96"/><line class="k" x1="471.99" y1="476.32" x2="474.97" y2="475.48"/><line class="k" x1="414.57" y1="424.19" x2="414.57" y2="473.4"/><line class="k" x1="421.46" y1="480.43" x2="483.44" y2="480.43"/><line class="k" x1="483.44" y1="480.43" x2="483.44" y2="417.16"/><line class="k" x1="483.44" y1="417.16" x2="421.46" y2="417.16"/><line class="k" x1="483.44" y1="480.43" x2="483.44" y2="492.74"/><line class="k" x1="483.44" y1="492.74" x2="473.11" y2="492.74"/><line class="k" x1="473.11" y1="492.74" x2="473.11" y2="480.43"/><line class="k" x1="473.11" y1="480.43" x2="483.44" y2="480.43"/><line class="k" x1="483.44" y1="404.86" x2="483.44" y2="417.16"/><line class="k" x1="483.44" y1="417.16" x2="473.11" y2="417.16"/><line class="k" x1="473.11" y1="417.16" x2="473.11" y2="404.86"/><line class="k" x1="473.11" y1="404.86" x2="483.44" y2="404.86"/><line class="k" x1="460.53" y1="480.43" x2="460.53" y2="417.16"/><line class="k" x1="455.37" y1="480.43" x2="455.37" y2="417.16"/><g class="l"><path class="k" d="M465.75,451.46a100.21,100.21,0,0,1,.84,13c0,3.33-.17,6.66-.5,10"/><path class="k" d="M468,476.65h-.1a1.87,1.87,0,0,1-1.84-1.88,1.9,1.9,0,0,1,0-.41"/><path class="k" d="M472,476.32a14.18,14.18,0,0,1-3.19.36q-.41,0-.81,0"/><path class="k" d="M479.68,476.52q-1.24.06-2.49.06c-1.73,0-3.47-.09-5.2-.26"/><path class="k" d="M480.18,476.06a.19.19,0,0,1,0,.08.4.4,0,0,1-.39.4l-.12,0"/><path class="k" d="M480.18,476.06c-.38-5-.57-10.08-.57-15.12q0-4.79.23-9.55"/><path class="k" d="M478.6,450.26a.8.8,0,0,1,.3-.06,1,1,0,0,1,1,1,.75.75,0,0,1,0,.21"/><path class="k" d="M478.6,450.26a44.81,44.81,0,0,1-11.87.18"/><path class="k" d="M465.75,451.46a1,1,0,0,1,0-.24.8.8,0,0,1,.8-.81.83.83,0,0,1,.22,0"/><path class="k" d="M421.46,480.43a7,7,0,0,1-6.89-7"/><path class="k" d="M414.57,424.19a7,7,0,0,1,6.89-7"/><path class="k" d="M465.75,422a100.1,100.1,0,0,1,.84,12.95c0,3.32-.17,6.65-.5,10"/><path class="k" d="M468,447.14h-.1a1.86,1.86,0,0,1-1.84-1.88,1.81,1.81,0,0,1,0-.4"/><path class="k" d="M472,446.81a14.78,14.78,0,0,1-3.19.35l-.81,0"/><path class="k" d="M479.68,447c-.83.05-1.66.06-2.49.06-1.73,0-3.47-.08-5.2-.25"/><path class="k" d="M480.18,446.54a.25.25,0,0,1,0,.08.4.4,0,0,1-.39.41l-.12,0"/><path class="k" d="M480.18,446.54q-.57-7.55-.57-15.12,0-4.77.23-9.55"/><path class="k" d="M478.6,420.74a1,1,0,0,1,.3-.05,1,1,0,0,1,1,1,.65.65,0,0,1,0,.2"/><path class="k" d="M478.6,420.74a44.63,44.63,0,0,1-6.63.49,43.73,43.73,0,0,1-5.24-.31"/><path class="k" d="M465.75,422a1,1,0,0,1,0-.25.8.8,0,0,1,.8-.81.83.83,0,0,1,.22,0"/></g><rect class="h" x="426.63" y="354.59" width="28.41" height="21.09"/><line class="k" x1="426.63" y1="375.68" x2="455.04" y2="375.68"/><line class="k" x1="455.03" y1="375.68" x2="455.03" y2="354.59"/><line class="k" x1="455.03" y1="354.59" x2="426.63" y2="354.59"/><line class="k" x1="426.63" y1="354.59" x2="426.63" y2="375.68"/><line class="k" x1="428.05" y1="365.14" x2="453.62" y2="365.14"/><line class="k" x1="429.36" y1="371.34" x2="431.77" y2="358.7"/><line class="k" x1="432.07" y1="371.97" x2="433.07" y2="360.22"/><line class="k" x1="435.77" y1="357.53" x2="436.59" y2="370.43"/><line class="k" x1="439.97" y1="359.22" x2="438.86" y2="370.43"/><line class="k" x1="441.49" y1="358.58" x2="441.49" y2="372.39"/><line class="k" x1="445.81" y1="358.52" x2="444.78" y2="372.17"/><line class="k" x1="447.42" y1="358.75" x2="447.42" y2="371.21"/><line class="k" x1="451.69" y1="358.62" x2="452.5" y2="371.4"/><line class="k" x1="450.66" y1="359.49" x2="449.83" y2="370.3"/><rect class="h" x="455.04" y="354.59" width="28.41" height="21.09"/><line class="k" x1="455.03" y1="375.68" x2="483.44" y2="375.68"/><line class="k" x1="483.44" y1="375.68" x2="483.44" y2="354.59"/><line class="k" x1="483.44" y1="354.59" x2="455.03" y2="354.59"/><line class="k" x1="455.03" y1="354.59" x2="455.03" y2="375.68"/><line class="k" x1="456.46" y1="365.14" x2="482.02" y2="365.14"/><line class="k" x1="457.77" y1="371.34" x2="460.18" y2="358.7"/><line class="k" x1="460.48" y1="371.97" x2="461.48" y2="360.22"/><line class="k" x1="464.18" y1="357.53" x2="465" y2="370.43"/><line class="k" x1="468.37" y1="359.22" x2="467.27" y2="370.43"/><line class="k" x1="469.9" y1="358.58" x2="469.9" y2="372.39"/><line class="k" x1="474.22" y1="358.52" x2="473.19" y2="372.17"/><line class="k" x1="475.83" y1="358.75" x2="475.83" y2="371.21"/><line class="k" x1="480.1" y1="358.62" x2="480.91" y2="371.4"/><line class="k" x1="479.07" y1="359.49" x2="478.24" y2="370.3"/><polygon class="h" points="463.64 319.62 463.28 319.46 463.13 319.09 463.13 300.81 463.28 300.44 463.64 300.28 477.76 300.28 478.13 300.44 478.28 300.81 478.28 319.09 478.13 319.46 477.76 319.62 463.64 319.62"/><line class="k" x1="478.28" y1="300.81" x2="478.28" y2="319.09"/><g class="l"><path class="k" d="M478.28,319.09a.52.52,0,0,1-.52.53"/></g><line class="k" x1="477.76" y1="319.62" x2="463.64" y2="319.62"/><g class="l"><path class="k" d="M463.64,319.62a.52.52,0,0,1-.51-.53"/></g><line class="k" x1="463.13" y1="319.09" x2="463.13" y2="300.81"/><g class="l"><path class="k" d="M463.13,300.81a.52.52,0,0,1,.51-.53"/></g><line class="k" x1="463.64" y1="300.28" x2="477.76" y2="300.28"/><g class="l"><path class="k" d="M477.76,300.28a.52.52,0,0,1,.52.53"/></g><line class="k" x1="474.49" y1="301.86" x2="474.49" y2="318.03"/><line class="k" x1="473.97" y1="318.56" x2="464.68" y2="318.56"/><line class="k" x1="464.16" y1="318.03" x2="464.16" y2="301.86"/><line class="k" x1="464.68" y1="301.34" x2="473.97" y2="301.34"/><g class="l"><path class="k" d="M474.49,318a.52.52,0,0,1-.52.53"/><path class="k" d="M464.68,318.56a.52.52,0,0,1-.52-.53"/><path class="k" d="M464.16,301.86a.52.52,0,0,1,.52-.52"/><path class="k" d="M474,301.34a.52.52,0,0,1,.52.52"/></g><polygon class="h" points="474.77 310.69 474.44 310.57 472.62 310.34 472.38 310.21 472.28 309.95 472.38 309.69 472.62 309.56 474.44 309.32 474.77 309.21 476.21 309.07 476.82 309.33 477.07 309.95 476.82 310.57 476.21 310.83 474.77 310.69"/><g class="l"><path class="k" d="M476.21,309.07a.88.88,0,0,1,0,1.76"/></g><line class="k" x1="474.77" y1="310.69" x2="476.21" y2="310.83"/><g class="l"><path class="k" d="M474.77,310.69a.66.66,0,0,1-.33-.12"/></g><line class="k" x1="472.62" y1="310.34" x2="474.44" y2="310.57"/><g class="l"><path class="k" d="M472.62,310.34a.39.39,0,0,1-.34-.39.38.38,0,0,1,.34-.39"/></g><line class="k" x1="474.44" y1="309.32" x2="472.62" y2="309.56"/><g class="l"><path class="k" d="M474.44,309.32a.76.76,0,0,1,.33-.11"/></g><line class="k" x1="476.21" y1="309.07" x2="474.77" y2="309.21"/><line class="k" x1="475.35" y1="310.43" x2="474.84" y2="310.43"/><line class="k" x1="474.84" y1="309.47" x2="475.35" y2="309.47"/><line class="k" x1="475.35" y1="309.47" x2="475.35" y2="310.43"/><g class="l"><path class="k" d="M474.84,310.43a.48.48,0,0,1-.47-.48.47.47,0,0,1,.47-.48"/><path class="k" d="M474.44,310.57a.74.74,0,0,1-.33-.62.76.76,0,0,1,.33-.63"/></g><polygon class="h" points="466.92 291.85 465.21 291.57 463.67 290.79 462.44 289.56 461.42 287.56 461.06 285.34 461.42 283.12 462.44 281.13 463.67 279.9 465.21 279.11 466.92 278.84 478.28 278.84 478.28 291.85 466.92 291.85"/><line class="k" x1="478.28" y1="291.85" x2="466.92" y2="291.85"/><line class="k" x1="478.28" y1="291.85" x2="478.28" y2="278.84"/><line class="k" x1="478.28" y1="278.84" x2="466.92" y2="278.84"/><line class="k" x1="474.15" y1="289.74" x2="466.91" y2="289.74"/><line class="k" x1="474.15" y1="280.95" x2="466.91" y2="280.95"/><line class="k" x1="474.15" y1="280.95" x2="474.15" y2="289.74"/><g class="l"><path class="k" d="M466.91,291.85a5.57,5.57,0,0,1-4.47-2.29"/><path class="k" d="M462.44,281.12a5.58,5.58,0,0,1,4.47-2.28"/><path class="k" d="M462.44,289.56a7.14,7.14,0,0,1,0-8.44"/><path class="k" d="M462.44,281.12a5.58,5.58,0,0,1,4.47-2.28"/><path class="k" d="M461.06,285.34a7.12,7.12,0,0,1,1.38-4.21"/><path class="k" d="M464.09,282.39a3.51,3.51,0,0,1,2.82-1.44"/><path class="k" d="M464.09,288.29a5,5,0,0,1,0-5.9"/><path class="k" d="M466.91,289.74a3.54,3.54,0,0,1-2.82-1.44"/></g><rect class="h" x="301.63" y="269.52" width="43.04" height="21.09"/><line class="k" x1="301.63" y1="290.62" x2="344.67" y2="290.62"/><line class="k" x1="344.67" y1="290.62" x2="344.67" y2="269.52"/><line class="k" x1="344.67" y1="269.52" x2="301.63" y2="269.52"/><line class="k" x1="301.63" y1="269.52" x2="301.63" y2="290.62"/><line class="k" x1="303.78" y1="280.07" x2="342.52" y2="280.07"/><line class="k" x1="305.78" y1="286.27" x2="309.42" y2="273.64"/><line class="k" x1="309.88" y1="286.9" x2="311.39" y2="275.15"/><line class="k" x1="315.49" y1="272.47" x2="316.73" y2="285.37"/><line class="k" x1="321.84" y1="274.16" x2="320.16" y2="285.37"/><line class="k" x1="324.15" y1="273.51" x2="324.15" y2="287.32"/><line class="k" x1="330.69" y1="273.45" x2="329.14" y2="287.1"/><line class="k" x1="333.14" y1="273.68" x2="333.14" y2="286.15"/><line class="k" x1="339.6" y1="273.56" x2="340.84" y2="286.34"/><line class="k" x1="338.04" y1="274.42" x2="336.78" y2="285.23"/><rect class="h" x="344.67" y="269.52" width="43.04" height="21.09"/><line class="k" x1="344.67" y1="290.62" x2="387.71" y2="290.62"/><line class="k" x1="387.71" y1="290.62" x2="387.71" y2="269.52"/><line class="k" x1="387.71" y1="269.52" x2="344.67" y2="269.52"/><line class="k" x1="344.67" y1="269.52" x2="344.67" y2="290.62"/><line class="k" x1="346.82" y1="280.07" x2="385.56" y2="280.07"/><line class="k" x1="348.82" y1="286.27" x2="352.46" y2="273.64"/><line class="k" x1="352.93" y1="286.9" x2="354.43" y2="275.15"/><line class="k" x1="358.53" y1="272.47" x2="359.77" y2="285.37"/><line class="k" x1="364.88" y1="274.16" x2="363.2" y2="285.37"/><line class="k" x1="367.19" y1="273.51" x2="367.19" y2="287.32"/><line class="k" x1="373.73" y1="273.45" x2="372.18" y2="287.1"/><line class="k" x1="376.19" y1="273.68" x2="376.19" y2="286.15"/><line class="k" x1="382.64" y1="273.56" x2="383.88" y2="286.34"/><line class="k" x1="381.09" y1="274.42" x2="379.83" y2="285.23"/><polygon class="h" points="340.34 261.02 336.69 259.95 334.4 259.95 326.55 258 326.55 256.05 337.28 256.05 338.98 254.65 341.11 253.89 343.39 253.89 345.53 254.65 347.23 256.05 357.96 256.05 357.96 258 350.11 259.95 347.82 259.95 344.17 261.02 340.34 261.02"/><line class="k" x1="357.96" y1="256.05" x2="347.23" y2="256.05"/><line class="k" x1="357.96" y1="258" x2="357.96" y2="256.05"/><line class="k" x1="350.11" y1="259.95" x2="357.96" y2="258"/><line class="k" x1="347.82" y1="259.95" x2="350.11" y2="259.95"/><line class="k" x1="344.17" y1="261.02" x2="347.82" y2="259.95"/><line class="k" x1="340.34" y1="261.02" x2="344.17" y2="261.02"/><line class="k" x1="336.69" y1="259.95" x2="340.34" y2="261.02"/><line class="k" x1="334.4" y1="259.95" x2="336.69" y2="259.95"/><line class="k" x1="326.55" y1="258" x2="334.4" y2="259.95"/><line class="k" x1="326.55" y1="256.05" x2="326.55" y2="258"/><line class="k" x1="337.28" y1="256.05" x2="326.55" y2="256.05"/><line class="k" x1="338.98" y1="254.64" x2="337.28" y2="256.05"/><line class="k" x1="341.11" y1="253.89" x2="338.98" y2="254.64"/><line class="k" x1="343.39" y1="253.89" x2="341.11" y2="253.89"/><line class="k" x1="345.53" y1="254.64" x2="343.39" y2="253.89"/><line class="k" x1="347.23" y1="256.05" x2="345.53" y2="254.64"/><line class="k" x1="357.96" y1="256.05" x2="326.55" y2="256.05"/><line class="k" x1="334.4" y1="259.95" x2="350.11" y2="259.95"/><line class="k" x1="357.96" y1="258" x2="357.96" y2="256.05"/><line class="k" x1="328.65" y1="256.83" x2="330.74" y2="256.83"/><line class="k" x1="330.74" y1="256.83" x2="330.74" y2="257.32"/><line class="k" x1="330.74" y1="257.32" x2="328.65" y2="257.32"/><line class="k" x1="328.65" y1="257.32" x2="328.65" y2="256.83"/><line class="k" x1="331.26" y1="256.83" x2="333.36" y2="256.83"/><line class="k" x1="333.36" y1="256.83" x2="333.36" y2="257.32"/><line class="k" x1="333.36" y1="257.32" x2="331.26" y2="257.32"/><line class="k" x1="331.26" y1="257.32" x2="331.26" y2="256.83"/><line class="k" x1="357.96" y1="258" x2="326.55" y2="258"/><line class="k" x1="333.88" y1="257.32" x2="333.88" y2="256.83"/><line class="k" x1="333.88" y1="256.83" x2="334.93" y2="256.83"/><line class="k" x1="334.93" y1="256.83" x2="334.93" y2="257.32"/><line class="k" x1="334.93" y1="257.32" x2="333.88" y2="257.32"/><g class="l"><path class="k" d="M337.28,256.05a6.61,6.61,0,0,1,10,0"/></g><line class="k" x1="301.63" y1="292.37" x2="301.63" y2="299.4"/><line class="k" x1="301.63" y1="303.27" x2="301.63" y2="304.06"/><line class="k" x1="301.63" y1="307.93" x2="301.63" y2="308.72"/><line class="k" x1="301.63" y1="312.59" x2="301.63" y2="319.62"/><line class="k" x1="301.63" y1="323.48" x2="301.63" y2="324.01"/><line class="k" x1="301.63" y1="324.01" x2="301.63" y2="331.04"/><line class="k" x1="470.43" y1="227.32" x2="470.43" y2="221.42"/><line class="k" x1="470.43" y1="221.42" x2="472.77" y2="223.36"/><line class="k" x1="472.77" y1="223.36" x2="475.12" y2="221.42"/><line class="k" x1="475.12" y1="221.42" x2="475.12" y2="227.32"/><line class="k" x1="297.5" y1="35.77" x2="443.84" y2="35.77"/><line class="k" x1="443.84" y1="35.77" x2="443.84" y2="88.49"/><line class="k" x1="469.67" y1="529.64" x2="469.67" y2="585.89"/><line class="k" x1="467.95" y1="529.64" x2="467.95" y2="584.13"/><line class="k" x1="467.95" y1="584.13" x2="377.04" y2="584.13"/><line class="k" x1="297.5" y1="34.01" x2="445.56" y2="34.01"/><line class="k" x1="445.57" y1="34.01" x2="445.57" y2="88.49"/><line class="k" x1="297.5" y1="32.25" x2="447.29" y2="32.25"/><line class="k" x1="447.29" y1="32.25" x2="447.29" y2="88.49"/><g class="l"><path d="M313.3,379.18a6.65,6.65,0,0,1,.24-2,2.45,2.45,0,0,1,.74-1.15,1.83,1.83,0,0,1,1.22-.4,2,2,0,0,1,1,.22,1.79,1.79,0,0,1,.67.64,3.47,3.47,0,0,1,.42,1,6.46,6.46,0,0,1,.16,1.63,6.53,6.53,0,0,1-.25,2,2.52,2.52,0,0,1-.73,1.16A2,2,0,0,1,314,382,4.61,4.61,0,0,1,313.3,379.18Zm.85,0a4.39,4.39,0,0,0,.39,2.26,1.09,1.09,0,0,0,1.92,0,6.74,6.74,0,0,0,0-4.52,1.13,1.13,0,0,0-1-.56,1.05,1.05,0,0,0-.91.49A4.42,4.42,0,0,0,314.15,379.18Z"/><path d="M318.52,380.76l.83-.11a1.91,1.91,0,0,0,.49,1,1.2,1.2,0,0,0,.84.32,1.32,1.32,0,0,0,1-.42,1.39,1.39,0,0,0,.4-1,1.34,1.34,0,0,0-.37-1,1.3,1.3,0,0,0-.95-.38,2.58,2.58,0,0,0-.59.1l.09-.75h.14a1.66,1.66,0,0,0,.95-.28,1,1,0,0,0,.43-.87,1.06,1.06,0,0,0-.31-.77,1.07,1.07,0,0,0-.8-.31,1.17,1.17,0,0,0-.81.31,1.61,1.61,0,0,0-.41.93l-.83-.15a2.22,2.22,0,0,1,.69-1.32,2,2,0,0,1,1.34-.46,2.19,2.19,0,0,1,1,.24,1.68,1.68,0,0,1,.71.66,1.67,1.67,0,0,1,.25.89,1.43,1.43,0,0,1-.24.81.63.63,0,1,0,.24,1.17,1.84,1.84,0,0,1,.33,1.12,2.05,2.05,0,0,1-.64,1.53,2.26,2.26,0,0,1-1.64.63,2.08,2.08,0,0,1-1.47-.54A2.13,2.13,0,0,1,318.52,380.76Z"/></g><g class="l"><path d="M285.93,441.19a6.3,6.3,0,0,1,.25-2,2.43,2.43,0,0,1,.73-1.15,1.83,1.83,0,0,1,1.22-.4,2,2,0,0,1,1,.22,1.89,1.89,0,0,1,.68.64,3.89,3.89,0,0,1,.42,1,7,7,0,0,1,.15,1.63,6.18,6.18,0,0,1-.25,2,2.39,2.39,0,0,1-.73,1.16,2,2,0,0,1-2.76-.31A4.61,4.61,0,0,1,285.93,441.19Zm.85,0a4.36,4.36,0,0,0,.39,2.26,1.1,1.1,0,0,0,1.93,0,6.74,6.74,0,0,0,0-4.52,1.15,1.15,0,0,0-1-.56,1.05,1.05,0,0,0-.91.49A4.52,4.52,0,0,0,286.78,441.19Z"/><path d="M295.52,443.78v.82h-4.47a1.46,1.46,0,0,1,.09-.59,3.3,3.3,0,0,1,.55-.92,8.62,8.62,0,0,1,1.09-1,9.35,9.35,0,0,0,1.49-1.46,1.82,1.82,0,0,0,.38-1,1.13,1.13,0,0,0-.35-.85,1.25,1.25,0,0,0-.92-.34,1.3,1.3,0,0,0-1,.36,1.41,1.41,0,0,0-.36,1l-.86-.09a2.16,2.16,0,0,1,.66-1.48,2.24,2.24,0,0,1,1.54-.51,2.1,2.1,0,0,1,1.54.55,1.8,1.8,0,0,1,.57,1.36,2.15,2.15,0,0,1-.17.82,3.24,3.24,0,0,1-.55.84,13.64,13.64,0,0,1-1.28,1.21q-.75.65-1,.87a2.8,2.8,0,0,0-.35.46Z"/></g><line class="k" x1="293.36" y1="341.23" x2="383.24" y2="341.23"/><line class="k" x1="383.24" y1="341.23" x2="383.24" y2="515.59"/><line class="k" x1="383.24" y1="515.59" x2="377.04" y2="515.59"/><line class="k" x1="377.04" y1="515.59" x2="377.04" y2="585.89"/><line class="k" x1="377.04" y1="585.89" x2="469.67" y2="585.89"/><line class="k" x1="469.67" y1="585.89" x2="469.67" y2="529.65"/><line class="k" x1="469.67" y1="529.64" x2="497.22" y2="529.64"/><line class="k" x1="497.22" y1="529.64" x2="497.22" y2="397.83"/><line class="k" x1="497.22" y1="397.83" x2="497.22" y2="200.98"/><line class="k" x1="497.22" y1="200.98" x2="497.22" y2="88.49"/><line class="k" x1="497.22" y1="88.49" x2="447.29" y2="88.49"/><line class="k" x1="447.29" y1="88.49" x2="447.29" y2="32.24"/><line class="k" x1="447.29" y1="32.24" x2="297.5" y2="32.24"/><line class="k" x1="297.5" y1="32.24" x2="297.5" y2="88.49"/><line class="k" x1="297.5" y1="88.49" x2="293.36" y2="88.49"/><line class="k" x1="293.36" y1="88.49" x2="293.36" y2="341.23"/><path class="m" d="M365.57,307.28v7h-.72v-6.35H363.2v-.64Z"/><path class="m" d="M367.25,313.77a.53.53,0,0,1,.53-.54.54.54,0,0,1,.54.54.55.55,0,0,1-.54.55A.54.54,0,0,1,367.25,313.77Z"/><path class="m" d="M369.26,310.78c0-2.23,1.17-3.56,2.79-3.56s2.79,1.33,2.79,3.56-1.18,3.55-2.79,3.55S369.26,313,369.26,310.78Zm4.85,0c0-1.87-.84-2.9-2.06-2.9s-2.06,1-2.06,2.9.84,2.89,2.06,2.89S374.11,312.64,374.11,310.78Z"/><path class="m" d="M377.81,307.28v7h-.72v-6.35h-1.65v-.64Z"/><path class="m" d="M365.57,200.69v7h-.72v-6.35H363.2v-.64Z"/><path class="m" d="M367.25,207.18a.53.53,0,0,1,.53-.54.54.54,0,0,1,.54.54.55.55,0,0,1-.54.55A.54.54,0,0,1,367.25,207.18Z"/><path class="m" d="M369.26,204.19c0-2.23,1.17-3.56,2.79-3.56s2.79,1.33,2.79,3.56-1.18,3.55-2.79,3.55S369.26,206.41,369.26,204.19Zm4.85,0c0-1.87-.84-2.9-2.06-2.9s-2.06,1-2.06,2.9.84,2.89,2.06,2.89S374.11,206.05,374.11,204.19Z"/><path class="m" d="M380.64,207v.64h-4.9v-.51l2.91-2.84c.79-.78.94-1.25.94-1.73,0-.81-.57-1.31-1.64-1.31a2.38,2.38,0,0,0-1.91.78l-.51-.44a3.15,3.15,0,0,1,2.48-1c1.42,0,2.32.72,2.32,1.89a2.88,2.88,0,0,1-1.15,2.19L376.8,207Z"/><path class="m" d="M443.16,307.28v7h-.72v-6.35h-1.65v-.64Z"/><path class="m" d="M444.84,313.77a.53.53,0,0,1,.53-.54.54.54,0,0,1,.54.54.55.55,0,0,1-.54.55A.54.54,0,0,1,444.84,313.77Z"/><path class="m" d="M446.85,310.78c0-2.23,1.17-3.56,2.79-3.56s2.79,1.33,2.79,3.56-1.18,3.55-2.79,3.55S446.85,313,446.85,310.78Zm4.85,0c0-1.87-.84-2.9-2.06-2.9s-2.06,1-2.06,2.9.84,2.89,2.06,2.89S451.7,312.64,451.7,310.78Z"/><path class="m" d="M458,312.26c0,1.17-.84,2.07-2.53,2.07a3.64,3.64,0,0,1-2.52-.9l.35-.57a3.07,3.07,0,0,0,2.17.81c1.16,0,1.8-.54,1.8-1.41s-.59-1.38-1.89-1.38h-.5v-.53l1.94-2.43h-3.58v-.64h4.5v.51l-2,2.49C457.26,310.36,458,311.15,458,312.26Z"/><path class="m" d="M441,393.7v7h-.72v-6.35h-1.65v-.64Z"/><path class="m" d="M442.68,400.19a.53.53,0,0,1,.53-.54.54.54,0,0,1,.54.54.55.55,0,0,1-.54.55A.54.54,0,0,1,442.68,400.19Z"/><path class="m" d="M444.69,397.2c0-2.23,1.17-3.56,2.79-3.56s2.79,1.33,2.79,3.56-1.17,3.55-2.79,3.55S444.69,399.42,444.69,397.2Zm4.85,0c0-1.87-.84-2.9-2.06-2.9s-2.06,1-2.06,2.9.84,2.89,2.06,2.89S449.54,399.06,449.54,397.2Z"/><path class="m" d="M457.25,398.85h-1.39v1.84h-.72v-1.84h-3.95v-.51l3.71-4.64h.8l-3.58,4.51h3V396.6h.7v1.61h1.39Z"/><path class="m" d="M365.57,59.89v7h-.72V60.53H363.2v-.64Z"/><path class="m" d="M367.25,66.38a.53.53,0,0,1,.53-.54.54.54,0,0,1,.54.54.55.55,0,0,1-.54.55A.54.54,0,0,1,367.25,66.38Z"/><path class="m" d="M369.26,63.39c0-2.23,1.17-3.56,2.79-3.56s2.79,1.33,2.79,3.56-1.18,3.55-2.79,3.55S369.26,65.61,369.26,63.39Zm4.85,0c0-1.87-.84-2.9-2.06-2.9s-2.06,1-2.06,2.9.84,2.89,2.06,2.89S374.11,65.26,374.11,63.39Z"/><path class="m" d="M380.62,64.83c0,1.18-.83,2.11-2.53,2.11a3.61,3.61,0,0,1-2.51-.9l.35-.57a3,3,0,0,0,2.15.81c1.19,0,1.82-.58,1.82-1.43s-.56-1.45-2.34-1.45h-1.49l.36-3.51h3.82v.64h-3.19l-.24,2.23h.9C379.83,62.76,380.62,63.59,380.62,64.83Z"/><path class="m" d="M406.31,553.31v7h-.72V554h-1.65v-.64Z"/><path class="m" d="M408,559.8a.53.53,0,0,1,.53-.54.54.54,0,0,1,.54.54.55.55,0,0,1-.54.55A.54.54,0,0,1,408,559.8Z"/><path class="m" d="M410,556.81c0-2.23,1.17-3.56,2.79-3.56s2.79,1.33,2.79,3.56-1.17,3.55-2.79,3.55S410,559,410,556.81Zm4.84,0c0-1.87-.83-2.9-2-2.9s-2.06,1-2.06,2.9.84,2.89,2.06,2.89S414.84,558.67,414.84,556.81Z"/><path class="m" d="M421.37,558.25c0,1.18-.83,2.11-2.54,2.11a3.61,3.61,0,0,1-2.51-.9l.35-.57a3,3,0,0,0,2.15.81c1.19,0,1.82-.58,1.82-1.43s-.56-1.45-2.34-1.45h-1.49l.36-3.51H421V554H417.8l-.24,2.23h.9C420.57,556.18,421.37,557,421.37,558.25Z"/></svg>