<svg xmlns="http://www.w3.org/2000/svg" xmlns:xlink="http://www.w3.org/1999/xlink" viewBox="0 0 790.58 618.13"><defs><style>.a,.f{fill:none;}.b{fill:#595a5c;}.c{fill:#b6906c;}.d{fill:#fff;}.e{fill:#231f20;}.f{stroke:#000;stroke-linecap:round;stroke-linejoin:round;stroke-width:0.35px;}.g{clip-path:url(#a);}.h{fill:#58595b;}</style><clipPath id="a"><polygon class="a" points="243.55 184.22 243.55 239.71 238.77 239.71 238.77 433.91 551.81 433.91 551.81 239.71 547.63 239.71 547.63 184.22 243.55 184.22"/></clipPath></defs><path class="b" d="M55.31,597.13H57.1V609.9H55.31Zm.92,6.11h4.09a1.89,1.89,0,0,0,1-.27,1.82,1.82,0,0,0,.68-.77,2.67,2.67,0,0,0,.24-1.16,2.7,2.7,0,0,0-.24-1.16,1.82,1.82,0,0,0-1.7-1H56.23v-1.7h4a4.09,4.09,0,0,1,2,.48A3.45,3.45,0,0,1,63.62,599a4.64,4.64,0,0,1,0,4.11,3.34,3.34,0,0,1-1.35,1.36,4,4,0,0,1-2,.49h-4Z"/><path class="b" d="M67.7,606.33a2.07,2.07,0,0,0,.49,1.48,1.76,1.76,0,0,0,1.37.52,1.89,1.89,0,0,0,1.37-.46,1.79,1.79,0,0,0,.48-1.33l.12,1.91A2.58,2.58,0,0,1,69.06,610a2.89,2.89,0,0,1-2.33-1,4.08,4.08,0,0,1-.82-2.73v-5.55H67.7Zm.22-7.86a1.93,1.93,0,0,1-.56-1.5,2.07,2.07,0,0,1,.56-1.57,2.56,2.56,0,0,1,3.18,0,2.08,2.08,0,0,1,.57,1.56,1.94,1.94,0,0,1-.57,1.5,2.65,2.65,0,0,1-3.18,0Zm2.26-.86a.94.94,0,0,0,.24-.68,1,1,0,0,0-.24-.7.91.91,0,0,0-.67-.25.92.92,0,0,0-.67.25,1,1,0,0,0-.23.7,1,1,0,0,0,.23.68.92.92,0,0,0,.67.24A.9.9,0,0,0,70.18,597.61Zm1.23,3.17h1.78v9.12H71.41Z"/><path class="b" d="M77.1,609.63A2.82,2.82,0,0,1,76,608.36a5.08,5.08,0,0,1-.36-2v-2a5.05,5.05,0,0,1,.36-2,2.71,2.71,0,0,1,1-1.27,3,3,0,0,1,1.65-.44,2.71,2.71,0,0,1,1.48.42,3.22,3.22,0,0,1,1.09,1.19l-.18,1.86a2.19,2.19,0,0,0-.22-1,1.48,1.48,0,0,0-.61-.63,2,2,0,0,0-1-.21,1.71,1.71,0,0,0-1.37.55,2.26,2.26,0,0,0-.49,1.56v2a2.19,2.19,0,0,0,.49,1.54,1.74,1.74,0,0,0,1.37.54,1.93,1.93,0,0,0,1-.23,1.45,1.45,0,0,0,.61-.64,2.25,2.25,0,0,0,.22-1l.12,1.92a2.66,2.66,0,0,1-.89,1.14,2.56,2.56,0,0,1-1.53.45A3.19,3.19,0,0,1,77.1,609.63Zm4-12.5H82.9V609.9H81.11Z"/><path class="b" d="M87.09,609.57a3.09,3.09,0,0,1-1.29-1.36,4.85,4.85,0,0,1-.44-2.15v-1.48a4.71,4.71,0,0,1,.44-2.12,3.12,3.12,0,0,1,1.29-1.35,4.71,4.71,0,0,1,4.06,0,3.12,3.12,0,0,1,1.29,1.35,4.71,4.71,0,0,1,.44,2.12v1.51a4.79,4.79,0,0,1-.44,2.13,3.12,3.12,0,0,1-1.29,1.35,4.62,4.62,0,0,1-4.06,0Zm3.49-1.83a2.43,2.43,0,0,0,.51-1.65v-1.51a2.43,2.43,0,0,0-.51-1.65,1.88,1.88,0,0,0-1.46-.58,1.85,1.85,0,0,0-1.45.58,2.38,2.38,0,0,0-.52,1.65v1.51a2.38,2.38,0,0,0,.52,1.65,1.82,1.82,0,0,0,1.45.59A1.85,1.85,0,0,0,90.58,607.74Z"/><path class="b" d="M95.43,600.78h1.79v9.12H95.43Zm4.42,1.72a2.16,2.16,0,0,0-.83-.15,1.83,1.83,0,0,0-1.33.47,1.79,1.79,0,0,0-.47,1.31L97,602.37a3.32,3.32,0,0,1,1.09-1.27,2.58,2.58,0,0,1,1.48-.45,3.39,3.39,0,0,1,1.13.18,2.62,2.62,0,0,1,.88.53l-1.17,1.58A1.56,1.56,0,0,0,99.85,602.5Z"/><path class="b" d="M102.15,600.78H104l2.81,7.93-1,1.94Zm8.07,0L106.34,612a2.6,2.6,0,0,1-.56,1,1.87,1.87,0,0,1-.84.52,4,4,0,0,1-1.23.16h-.36V612h.36a1.46,1.46,0,0,0,.8-.2,1.74,1.74,0,0,0,.51-.7l3.38-10.31Z"/><path class="b" d="M113.51,609.88a5.76,5.76,0,0,1-1.32-.48,4.89,4.89,0,0,1-1.13-.79l1.06-1.31a5.86,5.86,0,0,0,1.47.85,4.18,4.18,0,0,0,1.44.28,3.11,3.11,0,0,0,1.6-.33,1.1,1.1,0,0,0,.53-1,.79.79,0,0,0-.29-.66,1.66,1.66,0,0,0-.72-.29c-.29,0-.69-.1-1.22-.14h-.15l-.14,0h-.15a6.45,6.45,0,0,1-1.5-.26,2,2,0,0,1-1-.7,2.38,2.38,0,0,1-.41-1.49,3.07,3.07,0,0,1,.39-1.61,2.41,2.41,0,0,1,1.18-1,5.29,5.29,0,0,1,2-.32,6.38,6.38,0,0,1,2.6.52,6.16,6.16,0,0,1,1.13.66l-1.08,1.31a5.59,5.59,0,0,0-1.35-.66,4,4,0,0,0-1.3-.22,2.44,2.44,0,0,0-1.37.31,1.08,1.08,0,0,0-.46.94.64.64,0,0,0,.26.55,1.72,1.72,0,0,0,.66.25c.26,0,.64.07,1.12.1h.34a7.67,7.67,0,0,1,1.63.25,2.24,2.24,0,0,1,1.13.77,2.62,2.62,0,0,1,.45,1.65,2.92,2.92,0,0,1-.42,1.63,2.54,2.54,0,0,1-1.27,1A5.88,5.88,0,0,1,115,610,7.38,7.38,0,0,1,113.51,609.88Z"/><path class="b" d="M126,597.13h1.8V609.9H126Zm2.6,12.5a2.39,2.39,0,0,1-.93-1.16l.13-1.91a2.22,2.22,0,0,0,.21,1,1.48,1.48,0,0,0,.61.63,1.93,1.93,0,0,0,1,.22,1.74,1.74,0,0,0,1.37-.54,2.18,2.18,0,0,0,.49-1.53v-2a2.26,2.26,0,0,0-.49-1.56,1.71,1.71,0,0,0-1.37-.55,2,2,0,0,0-1,.21,1.36,1.36,0,0,0-.61.62,2.12,2.12,0,0,0-.21,1l-.19-1.76a3.37,3.37,0,0,1,1.08-1.24,2.67,2.67,0,0,1,1.49-.43,3,3,0,0,1,1.65.43,2.9,2.9,0,0,1,1.06,1.27,5.1,5.1,0,0,1,.36,2v2a4.94,4.94,0,0,1-.37,2,2.79,2.79,0,0,1-1.08,1.26,3.25,3.25,0,0,1-1.71.44A2.73,2.73,0,0,1,128.57,609.63Z"/><path class="b" d="M134.46,600.78h1.82l2.81,7.93-1,1.94Zm8.07,0L138.65,612a2.6,2.6,0,0,1-.56,1,1.87,1.87,0,0,1-.84.52,4,4,0,0,1-1.23.16h-.36V612H136a1.46,1.46,0,0,0,.8-.2,1.74,1.74,0,0,0,.51-.7l3.37-10.31Z"/><path class="b" d="M143.57,600.78h4.12v1.62h-4.12Zm1.46,8.56a2.77,2.77,0,0,1-.52-1.81v-9.4h1.8v9.42a.84.84,0,0,0,.13.51.46.46,0,0,0,.39.18h.86V610h-1A2,2,0,0,1,145,609.34Z"/><path class="b" d="M151.94,606.33a2.07,2.07,0,0,0,.49,1.48,1.76,1.76,0,0,0,1.37.52,1.91,1.91,0,0,0,1.37-.46,1.79,1.79,0,0,0,.48-1.33l.12,1.91A2.58,2.58,0,0,1,153.3,610a2.89,2.89,0,0,1-2.33-1,4.08,4.08,0,0,1-.82-2.73v-5.55h1.79Zm3.71-5.55h1.78v9.12h-1.78Z"/><rect class="c" x="612.92" y="591.68" width="35.43" height="2.83"/><path class="d" d="M648.48,594.64H612.79v-3.08h35.69ZM613,594.39h35.19v-2.58H613Z"/><rect class="c" x="612.92" y="601.6" width="70.74" height="2.83"/><path class="d" d="M683.78,604.56h-71v-3.08h71ZM613,604.31h70.49v-2.58H613Z"/><rect class="c" x="612.92" y="612.72" width="177.16" height="2.84"/><path class="d" d="M790.21,615.68H612.79V612.6H790.21ZM613,615.43H790v-2.58H613Z"/><path class="e" d="M587.26,596.28h-.8v-4.82l-.81.5v-.83l.81-.53h.8Z"/><path class="e" d="M589,595.91a1.67,1.67,0,0,1-.41-1.19v-2.58A1.65,1.65,0,0,1,589,591a2,2,0,0,1,2.42,0,1.65,1.65,0,0,1,.41,1.19v2.58a1.65,1.65,0,0,1-.41,1.19,2,2,0,0,1-2.42,0Zm1.83-.55a.89.89,0,0,0,.2-.64v-2.58a.89.89,0,0,0-.2-.64.82.82,0,0,0-.62-.22.86.86,0,0,0-.63.22.94.94,0,0,0-.2.64v2.58a.9.9,0,0,0,.21.64,1,1,0,0,0,1.24,0Z"/><path class="e" d="M593.22,595.91a1.67,1.67,0,0,1-.41-1.19v-2.58a1.65,1.65,0,0,1,.41-1.19,2,2,0,0,1,2.42,0,1.61,1.61,0,0,1,.41,1.19v2.58a1.65,1.65,0,0,1-.41,1.19,2,2,0,0,1-2.42,0Zm1.83-.55a.9.9,0,0,0,.21-.64v-2.58a.94.94,0,0,0-.2-.64.86.86,0,0,0-.63-.22.82.82,0,0,0-.62.22.89.89,0,0,0-.2.64v2.58a.89.89,0,0,0,.2.64,1,1,0,0,0,1.24,0Z"/><path class="e" d="M600.1,596.13a1.45,1.45,0,0,1-.6-.6,2.06,2.06,0,0,1-.21-1v-.67a2,2,0,0,1,.21-.94,1.37,1.37,0,0,1,.6-.59,2,2,0,0,1,.95-.21,2.21,2.21,0,0,1,.59.08,1.68,1.68,0,0,1,.51.22,1.54,1.54,0,0,1,.37.35l-.58.52a1.17,1.17,0,0,0-.4-.3,1.13,1.13,0,0,0-.48-.11.94.94,0,0,0-.71.26,1,1,0,0,0-.26.72v.67a1,1,0,0,0,.25.74.94.94,0,0,0,.72.27,1,1,0,0,0,.48-.12,1,1,0,0,0,.4-.32l.58.56a1.38,1.38,0,0,1-.38.34,1.62,1.62,0,0,1-.5.22,2.27,2.27,0,0,1-.59.07A2.12,2.12,0,0,1,600.1,596.13Z"/><path class="e" d="M603.4,592.22h.79v4.06h-.79Zm2.42,1.6a1,1,0,0,0-.21-.67.78.78,0,0,0-.6-.23.81.81,0,0,0-.6.21.73.73,0,0,0-.22.58l-.08-.78a1.46,1.46,0,0,1,.49-.57,1.22,1.22,0,0,1,.67-.2,1.33,1.33,0,0,1,.73.2,1.18,1.18,0,0,1,.46.56,2.4,2.4,0,0,1,.15.89v2.47h-.79Zm2.42,0a.93.93,0,0,0-.22-.67.85.85,0,0,0-.63-.23.72.72,0,0,0-.57.23.9.9,0,0,0-.21.64l-.16-.78a1.61,1.61,0,0,1,.51-.63,1.23,1.23,0,0,1,.69-.22,1.37,1.37,0,0,1,.75.2,1.09,1.09,0,0,1,.47.56,2.21,2.21,0,0,1,.17.89v2.47h-.8Z"/><path class="e" d="M584.33,605.5l2-2.64a1.85,1.85,0,0,0,.27-.47,1.29,1.29,0,0,0,.09-.45h0a.67.67,0,0,0-.2-.53.81.81,0,0,0-.56-.19.76.76,0,0,0-.56.21,1,1,0,0,0-.27.58h-.82a2,2,0,0,1,.29-.83,1.42,1.42,0,0,1,.56-.53,1.67,1.67,0,0,1,.79-.18,1.93,1.93,0,0,1,.87.17,1.21,1.21,0,0,1,.54.51,1.55,1.55,0,0,1,.19.8h0a1.84,1.84,0,0,1-.12.63,2.8,2.8,0,0,1-.35.63l-1.65,2.24h2.15v.76h-3.2Z"/><path class="e" d="M589,605.83a1.67,1.67,0,0,1-.41-1.19v-2.58a1.65,1.65,0,0,1,.41-1.19,2,2,0,0,1,2.42,0,1.65,1.65,0,0,1,.41,1.19v2.58a1.65,1.65,0,0,1-.41,1.19,2,2,0,0,1-2.42,0Zm1.83-.55a.89.89,0,0,0,.2-.64v-2.58a.89.89,0,0,0-.2-.64.82.82,0,0,0-.62-.22.86.86,0,0,0-.63.22.94.94,0,0,0-.19.64v2.58a.89.89,0,0,0,.2.64,1,1,0,0,0,1.24,0Z"/><path class="e" d="M593.22,605.83a1.67,1.67,0,0,1-.41-1.19v-2.58a1.61,1.61,0,0,1,.42-1.19,1.59,1.59,0,0,1,1.2-.42,1.45,1.45,0,0,1,1.62,1.61v2.58a1.61,1.61,0,0,1-.41,1.19,2,2,0,0,1-2.42,0Zm1.84-.55a.94.94,0,0,0,.2-.64v-2.58a.94.94,0,0,0-.2-.64.84.84,0,0,0-.63-.22.82.82,0,0,0-.62.22.89.89,0,0,0-.2.64v2.58a.89.89,0,0,0,.2.64.82.82,0,0,0,.62.22A.86.86,0,0,0,595.06,605.28Z"/><path class="e" d="M600.1,606.05a1.45,1.45,0,0,1-.6-.6,2.06,2.06,0,0,1-.2-1v-.67a2,2,0,0,1,.2-.94,1.37,1.37,0,0,1,.6-.59,2,2,0,0,1,.95-.21,2.35,2.35,0,0,1,.6.08,1.73,1.73,0,0,1,.5.22,1.38,1.38,0,0,1,.37.35l-.58.52a1.08,1.08,0,0,0-.4-.3,1.13,1.13,0,0,0-.48-.11,1,1,0,0,0-.71.26,1,1,0,0,0-.26.72v.67a1,1,0,0,0,.25.74.94.94,0,0,0,.72.27,1.14,1.14,0,0,0,.88-.44l.58.56a1.38,1.38,0,0,1-.38.34,1.62,1.62,0,0,1-.5.22,2.22,2.22,0,0,1-.59.07A2.12,2.12,0,0,1,600.1,606.05Z"/><path class="e" d="M603.4,602.14h.79v4.06h-.79Zm2.42,1.6a1,1,0,0,0-.21-.67.78.78,0,0,0-.6-.23.81.81,0,0,0-.6.21.73.73,0,0,0-.22.58l-.08-.78a1.46,1.46,0,0,1,.49-.57,1.22,1.22,0,0,1,.67-.2,1.3,1.3,0,0,1,.73.2,1.18,1.18,0,0,1,.46.56,2.4,2.4,0,0,1,.16.89v2.47h-.8Zm2.42,0a.93.93,0,0,0-.22-.67.85.85,0,0,0-.63-.23.73.73,0,0,0-.57.23.89.89,0,0,0-.2.64l-.16-.78a1.51,1.51,0,0,1,.5-.63,1.23,1.23,0,0,1,.69-.22,1.35,1.35,0,0,1,.75.2,1.16,1.16,0,0,1,.48.56,2.4,2.4,0,0,1,.16.89v2.47h-.8Z"/><path class="e" d="M585,615.58a1.34,1.34,0,0,1-.54-.49,2,2,0,0,1-.28-.77h.8a.75.75,0,0,0,.25.49.85.85,0,0,0,.54.17.72.72,0,0,0,.59-.25,1.1,1.1,0,0,0,.21-.72v-.48a1.1,1.1,0,0,0-.21-.72.72.72,0,0,0-.59-.25.83.83,0,0,0-.4.11,1.18,1.18,0,0,0-.34.33h-.72v-3h2.89v.76h-2.1V612a1,1,0,0,1,.34-.18.94.94,0,0,1,.37-.07,1.68,1.68,0,0,1,.84.2,1.29,1.29,0,0,1,.53.6,2.07,2.07,0,0,1,.19.94V614a2.25,2.25,0,0,1-.19.94,1.31,1.31,0,0,1-.55.59,1.69,1.69,0,0,1-.86.21A1.74,1.74,0,0,1,585,615.58Z"/><path class="e" d="M589,615.32a1.65,1.65,0,0,1-.41-1.19v-2.58a1.67,1.67,0,0,1,.41-1.19,2,2,0,0,1,2.42,0,1.65,1.65,0,0,1,.41,1.19v2.58a1.64,1.64,0,0,1-.41,1.19,1.92,1.92,0,0,1-2.42,0Zm1.83-.55a.89.89,0,0,0,.2-.64v-2.58a.88.88,0,0,0-.2-.63.78.78,0,0,0-.62-.22.82.82,0,0,0-.63.22.93.93,0,0,0-.2.63v2.58a.9.9,0,0,0,.21.64,1,1,0,0,0,1.24,0Z"/><path class="e" d="M593.22,615.32a1.65,1.65,0,0,1-.41-1.19v-2.58a1.67,1.67,0,0,1,.41-1.19,2,2,0,0,1,2.42,0,1.61,1.61,0,0,1,.41,1.19v2.58a1.64,1.64,0,0,1-.41,1.19,1.92,1.92,0,0,1-2.42,0Zm1.83-.55a.9.9,0,0,0,.21-.64v-2.58a.93.93,0,0,0-.2-.63.82.82,0,0,0-.63-.22.78.78,0,0,0-.62.22.88.88,0,0,0-.2.63v2.58a.89.89,0,0,0,.2.64,1,1,0,0,0,1.24,0Z"/><path class="e" d="M600.1,615.54a1.45,1.45,0,0,1-.6-.6,2,2,0,0,1-.21-1v-.67a2,2,0,0,1,.21-.94,1.45,1.45,0,0,1,.6-.6,2,2,0,0,1,.95-.2,2.22,2.22,0,0,1,.59.07,2,2,0,0,1,.51.22,1.76,1.76,0,0,1,.37.35l-.58.52a1.17,1.17,0,0,0-.4-.3,1.13,1.13,0,0,0-.48-.11.94.94,0,0,0-.71.26,1,1,0,0,0-.26.73V614a1.07,1.07,0,0,0,.25.74,1,1,0,0,0,.72.26,1.13,1.13,0,0,0,.48-.11,1.26,1.26,0,0,0,.4-.32l.58.55a1.42,1.42,0,0,1-.38.35,1.88,1.88,0,0,1-.5.21,2.27,2.27,0,0,1-.59.08A2,2,0,0,1,600.1,615.54Z"/><path class="e" d="M603.4,611.63h.79v4.06h-.79Zm2.42,1.6a1,1,0,0,0-.21-.66.75.75,0,0,0-.6-.24.81.81,0,0,0-.6.21.75.75,0,0,0-.22.58l-.08-.78a1.5,1.5,0,0,1,.49-.56,1.15,1.15,0,0,1,.67-.2,1.32,1.32,0,0,1,.73.19,1.28,1.28,0,0,1,.46.56,2.42,2.42,0,0,1,.15.9v2.46h-.79Zm2.42,0a.91.91,0,0,0-.22-.66.82.82,0,0,0-.63-.24.72.72,0,0,0-.57.23.9.9,0,0,0-.21.64l-.16-.78a1.51,1.51,0,0,1,.51-.62,1.16,1.16,0,0,1,.69-.22,1.37,1.37,0,0,1,.75.19,1.18,1.18,0,0,1,.47.56,2.22,2.22,0,0,1,.17.9v2.46h-.8Z"/><path class="c" d="M23.49,613.89A12.92,12.92,0,1,1,36.4,601,12.93,12.93,0,0,1,23.49,613.89Zm0-24.83A11.92,11.92,0,1,0,35.4,601,11.93,11.93,0,0,0,23.49,589.06Z"/><polygon class="d" points="35.77 588.74 9.42 600.98 35.77 613.21 32.02 600.98 35.77 588.74"/><path class="c" d="M36.58,614.14,8.23,601l28.35-13.17-4,13.17ZM10.61,601,35,612.29,31.5,601,35,589.66Z"/><path class="c" d="M2.52,605.19a5,5,0,0,1-1.11-.38,4.4,4.4,0,0,1-1-.64l.81-1a3.72,3.72,0,0,0,1.16.69,4.08,4.08,0,0,0,1.38.23,2.73,2.73,0,0,0,1.55-.38,1.17,1.17,0,0,0,.55-1.05h0a1.12,1.12,0,0,0-.25-.77,1.44,1.44,0,0,0-.64-.42,8.23,8.23,0,0,0-1-.25H3.89l-.1,0a9.48,9.48,0,0,1-1.5-.36,2.08,2.08,0,0,1-1-.73,2.42,2.42,0,0,1-.41-1.51h0a2.77,2.77,0,0,1,.38-1.47,2.44,2.44,0,0,1,1.12-.92,4.48,4.48,0,0,1,1.77-.32,4.6,4.6,0,0,1,1,.11,4.9,4.9,0,0,1,1.86.86l-.73,1a4.61,4.61,0,0,0-1-.58,3,3,0,0,0-1.06-.2,2.44,2.44,0,0,0-1.46.38,1.24,1.24,0,0,0-.53,1.07h0a1,1,0,0,0,.27.75,1.74,1.74,0,0,0,.67.4,9.3,9.3,0,0,0,1.12.27h.24a7.93,7.93,0,0,1,1.4.41,2.22,2.22,0,0,1,.94.76,2.4,2.4,0,0,1,.38,1.43h0a2.62,2.62,0,0,1-.4,1.45,2.54,2.54,0,0,1-1.16.91,4.8,4.8,0,0,1-1.83.31A6.44,6.44,0,0,1,2.52,605.19Z"/><rect class="c" x="612.5" y="600.68" width="1" height="4.68"/><rect class="c" x="612.5" y="590.76" width="1" height="4.68"/><rect class="c" x="612.5" y="611.45" width="1" height="5.24"/><rect class="c" x="789.58" y="611.45" width="1" height="5.24"/><rect class="c" x="682.59" y="600.68" width="1" height="4.68"/><rect class="c" x="647.3" y="590.76" width="1" height="4.68"/><rect class="a" width="790.34" height="618.13"/><line class="f" x1="238.77" y1="239.71" x2="241.9" y2="239.71"/><line class="f" x1="546.24" y1="187.7" x2="244.68" y2="187.7"/><line class="f" x1="546.24" y1="239.71" x2="546.24" y2="187.7"/><line class="f" x1="458.94" y1="239.71" x2="546.24" y2="239.71"/><line class="f" x1="458.94" y1="243.18" x2="458.94" y2="239.71"/><line class="f" x1="427.64" y1="243.18" x2="458.94" y2="243.18"/><line class="f" x1="427.64" y1="239.71" x2="427.64" y2="243.18"/><line class="f" x1="349.38" y1="239.71" x2="427.64" y2="239.71"/><line class="f" x1="349.38" y1="243.18" x2="349.38" y2="239.71"/><line class="f" x1="318.07" y1="243.18" x2="349.38" y2="243.18"/><line class="f" x1="318.07" y1="239.71" x2="318.07" y2="243.18"/><line class="f" x1="244.68" y1="239.71" x2="318.07" y2="239.71"/><line class="f" x1="244.68" y1="187.7" x2="244.68" y2="239.71"/><line class="f" x1="549.03" y1="239.71" x2="551.81" y2="239.71"/><rect class="d" x="337.55" y="404.78" width="20.87" height="20.81"/><line class="f" x1="337.55" y1="404.78" x2="337.55" y2="425.59"/><line class="f" x1="358.42" y1="404.78" x2="337.55" y2="404.78"/><line class="f" x1="358.42" y1="425.58" x2="358.42" y2="404.78"/><line class="f" x1="337.55" y1="425.58" x2="358.42" y2="425.58"/><rect class="d" x="445.38" y="404.43" width="98.08" height="21.15"/><line class="f" x1="445.38" y1="404.43" x2="445.38" y2="425.58"/><line class="f" x1="543.46" y1="404.43" x2="445.38" y2="404.43"/><line class="f" x1="543.46" y1="425.58" x2="543.46" y2="404.43"/><line class="f" x1="445.38" y1="425.58" x2="543.46" y2="425.58"/><rect class="d" x="522.25" y="352.42" width="21.22" height="52.02"/><line class="f" x1="522.25" y1="352.42" x2="522.25" y2="404.43"/><line class="f" x1="543.46" y1="352.42" x2="522.25" y2="352.42"/><line class="f" x1="543.46" y1="404.43" x2="543.46" y2="352.42"/><line class="f" x1="522.25" y1="404.43" x2="543.46" y2="404.43"/><rect class="d" x="247.99" y="360.56" width="27.83" height="41.61"/><line class="f" x1="275.81" y1="402.18" x2="247.99" y2="402.18"/><line class="f" x1="247.99" y1="402.18" x2="247.99" y2="360.56"/><line class="f" x1="247.99" y1="360.56" x2="275.81" y2="360.56"/><line class="f" x1="275.81" y1="360.56" x2="275.81" y2="402.18"/><polygon points="514.59 246.65 514.59 239.71 547.64 239.71 551.81 239.71 551.81 246.65 514.59 246.65"/><rect x="349.38" y="239.71" width="78.26" height="6.94"/><polygon points="238.77 246.65 238.77 239.71 243.55 239.71 262.42 239.71 262.42 246.65 238.77 246.65"/><rect x="238.77" y="246.65" width="21.91" height="6.94"/><rect x="351.12" y="246.65" width="74.78" height="6.94"/><rect x="516.33" y="246.65" width="35.48" height="6.94"/><polygon points="238.77 433.91 238.77 425.58 238.77 253.59 247.12 253.59 247.12 425.58 365.38 425.58 365.38 433.91 238.77 433.91"/><polygon points="543.46 433.91 403.64 433.91 403.64 425.58 543.46 425.58 543.46 253.59 551.81 253.59 551.81 433.91 543.46 433.91"/><polygon points="335.12 368.37 335.12 359.7 247.12 359.7 247.12 357.27 342.77 357.27 342.77 359.7 337.55 359.7 337.55 368.37 335.12 368.37"/><rect x="421.03" y="401.31" width="2.43" height="24.27"/><polygon points="421.03 370.1 421.03 359.7 374.07 359.7 374.07 357.27 400.16 357.27 400.16 253.59 402.6 253.59 402.6 357.27 423.46 357.27 423.46 370.1 421.03 370.1"/><rect x="365.38" y="429.92" width="1.74" height="3.99"/><rect x="401.9" y="429.92" width="1.74" height="3.99"/><rect x="335.12" y="396.11" width="2.43" height="29.48"/><rect x="271.47" y="406.57" width="3.48" height="19.01"/><polygon points="271.47 406.57 271.47 406.51 247.12 406.51 247.12 403.04 274.94 403.04 274.94 406.57 271.47 406.57"/><polygon points="403.64 425.58 403.64 408.25 421.03 408.25 421.03 411.71 407.12 411.71 407.12 425.58 403.64 425.58"/><polygon points="441.9 425.58 441.9 408.25 423.46 408.25 423.46 404.78 445.38 404.78 445.38 425.58 441.9 425.58"/><rect x="546.24" y="187.7" width="1.39" height="52.02"/><rect x="243.55" y="187.7" width="1.13" height="52.02"/><line class="f" x1="547.64" y1="239.71" x2="514.59" y2="239.71"/><line class="f" x1="551.81" y1="239.71" x2="547.64" y2="239.71"/><line class="f" x1="427.64" y1="239.71" x2="349.38" y2="239.71"/><line class="f" x1="243.55" y1="239.71" x2="238.77" y2="239.71"/><line class="f" x1="262.42" y1="239.71" x2="243.55" y2="239.71"/><line class="f" x1="551.81" y1="253.58" x2="551.81" y2="253.58"/><line class="f" x1="425.9" y1="253.58" x2="402.6" y2="253.58"/><line class="f" x1="400.16" y1="253.58" x2="351.12" y2="253.58"/><line class="f" x1="260.68" y1="253.58" x2="247.12" y2="253.58"/><line class="f" x1="543.46" y1="253.58" x2="516.33" y2="253.58"/><line class="f" x1="516.33" y1="253.58" x2="516.33" y2="246.65"/><line class="f" x1="425.9" y1="253.58" x2="425.9" y2="246.65"/><line class="f" x1="260.68" y1="253.58" x2="260.68" y2="246.65"/><line class="f" x1="351.12" y1="246.65" x2="351.12" y2="253.58"/><line class="f" x1="244.34" y1="187.7" x2="244.34" y2="239.71"/><line class="f" x1="243.55" y1="187.7" x2="244.34" y2="187.7"/><line class="f" x1="546.24" y1="187.7" x2="546.24" y2="239.71"/><line class="f" x1="546.24" y1="187.7" x2="547.64" y2="187.7"/><line class="f" x1="262.42" y1="246.65" x2="262.42" y2="239.71"/><line class="f" x1="260.68" y1="246.65" x2="262.42" y2="246.65"/><line class="f" x1="427.64" y1="246.65" x2="427.64" y2="239.71"/><line class="f" x1="425.9" y1="246.65" x2="427.64" y2="246.65"/><line class="f" x1="349.38" y1="246.65" x2="349.38" y2="239.71"/><line class="f" x1="351.12" y1="246.65" x2="349.38" y2="246.65"/><line class="f" x1="514.59" y1="246.65" x2="514.59" y2="239.71"/><line class="f" x1="516.33" y1="246.65" x2="514.59" y2="246.65"/><line class="f" x1="243.55" y1="187.7" x2="547.64" y2="187.7"/><line class="f" x1="243.55" y1="187.7" x2="547.64" y2="187.7"/><line class="f" x1="516.33" y1="253.58" x2="460.68" y2="253.58"/><line class="f" x1="460.68" y1="253.58" x2="425.9" y2="253.58"/><line class="f" x1="514.59" y1="239.71" x2="458.94" y2="239.71"/><line class="f" x1="460.68" y1="253.58" x2="460.68" y2="246.65"/><line class="f" x1="458.94" y1="246.65" x2="458.94" y2="239.71"/><line class="f" x1="458.94" y1="243.18" x2="427.64" y2="243.18"/><line class="f" x1="457.9" y1="247.34" x2="457.9" y2="246.65"/><line class="f" x1="457.9" y1="246.65" x2="460.68" y2="246.65"/><line class="f" x1="460.68" y1="246.65" x2="460.68" y2="249.42"/><line class="f" x1="460.68" y1="249.42" x2="459.29" y2="249.42"/><line class="f" x1="459.29" y1="250.12" x2="456.51" y2="250.12"/><line class="f" x1="456.51" y1="250.12" x2="456.51" y2="247.34"/><line class="f" x1="456.51" y1="247.34" x2="459.29" y2="247.34"/><line class="f" x1="459.29" y1="247.34" x2="459.29" y2="250.12"/><line class="f" x1="427.29" y1="250.12" x2="430.07" y2="250.12"/><line class="f" x1="430.07" y1="250.12" x2="430.07" y2="247.34"/><line class="f" x1="430.07" y1="247.34" x2="427.29" y2="247.34"/><line class="f" x1="427.29" y1="247.34" x2="427.29" y2="250.12"/><line class="f" x1="456.51" y1="250.12" x2="430.07" y2="250.12"/><line class="f" x1="430.07" y1="247.34" x2="456.51" y2="247.34"/><line class="f" x1="456.51" y1="248.73" x2="430.07" y2="248.73"/><line class="f" x1="428.68" y1="247.34" x2="428.68" y2="246.65"/><line class="f" x1="428.68" y1="246.65" x2="425.9" y2="246.65"/><line class="f" x1="425.9" y1="246.65" x2="425.9" y2="249.42"/><line class="f" x1="425.9" y1="249.42" x2="427.29" y2="249.42"/><line class="f" x1="460.68" y1="249.42" x2="463.46" y2="249.42"/><line class="f" x1="463.46" y1="249.42" x2="463.46" y2="246.65"/><line class="f" x1="463.46" y1="246.65" x2="460.68" y2="246.65"/><line class="f" x1="460.68" y1="246.65" x2="460.68" y2="249.42"/><line class="f" x1="463.46" y1="249.42" x2="487.12" y2="249.42"/><line class="f" x1="463.46" y1="248.04" x2="487.12" y2="248.04"/><line class="f" x1="463.46" y1="246.65" x2="487.12" y2="246.65"/><line class="f" x1="513.55" y1="247.34" x2="513.55" y2="246.65"/><line class="f" x1="513.55" y1="246.65" x2="516.33" y2="246.65"/><line class="f" x1="516.33" y1="246.65" x2="516.33" y2="249.42"/><line class="f" x1="516.33" y1="249.42" x2="514.94" y2="249.42"/><line class="f" x1="514.94" y1="250.12" x2="512.16" y2="250.12"/><line class="f" x1="512.16" y1="250.12" x2="512.16" y2="247.34"/><line class="f" x1="512.16" y1="247.34" x2="514.94" y2="247.34"/><line class="f" x1="514.94" y1="247.34" x2="514.94" y2="250.12"/><line class="f" x1="512.16" y1="250.12" x2="491.29" y2="250.12"/><line class="f" x1="491.29" y1="247.34" x2="512.16" y2="247.34"/><line class="f" x1="512.16" y1="248.73" x2="491.29" y2="248.73"/><line class="f" x1="489.9" y1="247.34" x2="489.9" y2="246.65"/><line class="f" x1="489.9" y1="246.65" x2="487.11" y2="246.65"/><line class="f" x1="487.12" y1="246.65" x2="487.12" y2="249.42"/><line class="f" x1="487.12" y1="249.42" x2="488.51" y2="249.42"/><line class="f" x1="488.51" y1="250.12" x2="491.29" y2="250.12"/><line class="f" x1="491.29" y1="250.12" x2="491.29" y2="247.34"/><line class="f" x1="491.29" y1="247.34" x2="488.51" y2="247.34"/><line class="f" x1="488.51" y1="247.34" x2="488.51" y2="250.12"/><line class="f" x1="260.68" y1="253.58" x2="316.34" y2="253.58"/><line class="f" x1="316.34" y1="253.58" x2="351.12" y2="253.58"/><line class="f" x1="262.42" y1="239.71" x2="318.07" y2="239.71"/><line class="f" x1="316.34" y1="253.58" x2="316.34" y2="246.65"/><line class="f" x1="318.07" y1="246.65" x2="318.07" y2="239.71"/><line class="f" x1="318.07" y1="243.18" x2="349.38" y2="243.18"/><line class="f" x1="319.12" y1="247.34" x2="319.12" y2="246.65"/><line class="f" x1="319.12" y1="246.65" x2="316.34" y2="246.65"/><line class="f" x1="316.34" y1="246.65" x2="316.34" y2="249.42"/><line class="f" x1="316.34" y1="249.42" x2="317.73" y2="249.42"/><line class="f" x1="317.73" y1="250.12" x2="320.51" y2="250.12"/><line class="f" x1="320.51" y1="250.12" x2="320.51" y2="247.34"/><line class="f" x1="320.51" y1="247.34" x2="317.73" y2="247.34"/><line class="f" x1="317.73" y1="247.34" x2="317.73" y2="250.12"/><line class="f" x1="349.73" y1="250.12" x2="346.94" y2="250.12"/><line class="f" x1="346.94" y1="250.12" x2="346.94" y2="247.34"/><line class="f" x1="346.94" y1="247.34" x2="349.73" y2="247.34"/><line class="f" x1="349.73" y1="247.34" x2="349.73" y2="250.12"/><line class="f" x1="320.51" y1="250.12" x2="346.94" y2="250.12"/><line class="f" x1="346.94" y1="247.34" x2="320.51" y2="247.34"/><line class="f" x1="320.51" y1="248.73" x2="346.94" y2="248.73"/><line class="f" x1="348.34" y1="247.34" x2="348.34" y2="246.65"/><line class="f" x1="348.34" y1="246.65" x2="351.12" y2="246.65"/><line class="f" x1="351.12" y1="246.65" x2="351.12" y2="249.42"/><line class="f" x1="351.12" y1="249.42" x2="349.73" y2="249.42"/><line class="f" x1="316.34" y1="249.42" x2="313.55" y2="249.42"/><line class="f" x1="313.55" y1="249.42" x2="313.55" y2="246.65"/><line class="f" x1="313.55" y1="246.65" x2="316.34" y2="246.65"/><line class="f" x1="316.34" y1="246.65" x2="316.34" y2="249.42"/><line class="f" x1="313.55" y1="249.42" x2="289.9" y2="249.42"/><line class="f" x1="313.55" y1="248.04" x2="289.9" y2="248.04"/><line class="f" x1="313.55" y1="246.65" x2="289.9" y2="246.65"/><line class="f" x1="263.47" y1="247.34" x2="263.47" y2="246.65"/><line class="f" x1="263.47" y1="246.65" x2="260.68" y2="246.65"/><line class="f" x1="260.68" y1="246.65" x2="260.68" y2="249.42"/><line class="f" x1="260.68" y1="249.42" x2="262.08" y2="249.42"/><line class="f" x1="262.08" y1="250.12" x2="264.86" y2="250.12"/><line class="f" x1="264.86" y1="250.12" x2="264.86" y2="247.34"/><line class="f" x1="264.86" y1="247.34" x2="262.08" y2="247.34"/><line class="f" x1="262.08" y1="247.34" x2="262.08" y2="250.12"/><line class="f" x1="264.86" y1="250.12" x2="285.73" y2="250.12"/><line class="f" x1="285.73" y1="247.34" x2="264.86" y2="247.34"/><line class="f" x1="264.86" y1="248.73" x2="285.73" y2="248.73"/><line class="f" x1="287.12" y1="247.34" x2="287.12" y2="246.65"/><line class="f" x1="287.12" y1="246.65" x2="289.9" y2="246.65"/><line class="f" x1="289.9" y1="246.65" x2="289.9" y2="249.42"/><line class="f" x1="289.9" y1="249.42" x2="288.51" y2="249.42"/><line class="f" x1="288.51" y1="250.12" x2="285.73" y2="250.12"/><line class="f" x1="285.73" y1="250.12" x2="285.73" y2="247.34"/><line class="f" x1="285.73" y1="247.34" x2="288.51" y2="247.34"/><line class="f" x1="288.51" y1="247.34" x2="288.51" y2="250.12"/><line class="f" x1="543.46" y1="253.58" x2="543.46" y2="425.58"/><line class="f" x1="238.77" y1="433.91" x2="365.38" y2="433.91"/><line class="f" x1="238.77" y1="425.58" x2="238.77" y2="425.58"/><line class="f" x1="247.12" y1="253.58" x2="247.12" y2="357.27"/><line class="f" x1="238.77" y1="253.58" x2="238.77" y2="255.55"/><line class="f" x1="238.77" y1="371.84" x2="238.77" y2="404.78"/><line class="f" x1="238.77" y1="408.25" x2="238.77" y2="425.59"/><line class="f" x1="238.77" y1="371.84" x2="238.77" y2="371.84"/><line class="f" x1="543.46" y1="433.91" x2="543.46" y2="433.91"/><line class="f" x1="421.03" y1="425.58" x2="407.12" y2="425.58"/><line class="f" x1="421.03" y1="411.71" x2="407.12" y2="411.71"/><line class="f" x1="421.03" y1="408.25" x2="403.64" y2="408.25"/><line class="f" x1="400.16" y1="357.27" x2="374.07" y2="357.27"/><line class="f" x1="421.03" y1="359.7" x2="374.07" y2="359.7"/><line class="f" x1="342.77" y1="359.7" x2="337.55" y2="359.7"/><line class="f" x1="400.16" y1="253.58" x2="400.16" y2="357.27"/><line class="f" x1="402.6" y1="253.58" x2="402.6" y2="357.27"/><line class="f" x1="421.03" y1="359.7" x2="421.03" y2="370.1"/><line class="f" x1="423.46" y1="401.31" x2="423.46" y2="404.78"/><line class="f" x1="423.46" y1="408.25" x2="423.46" y2="425.59"/><line class="f" x1="423.46" y1="357.27" x2="423.46" y2="370.1"/><line class="f" x1="423.46" y1="370.1" x2="421.03" y2="370.1"/><line class="f" x1="342.77" y1="359.7" x2="342.77" y2="357.27"/><line class="f" x1="374.07" y1="359.7" x2="374.07" y2="357.27"/><line class="f" x1="401.9" y1="429.92" x2="401.9" y2="433.91"/><line class="f" x1="367.12" y1="429.92" x2="367.12" y2="433.91"/><line class="f" x1="367.12" y1="429.92" x2="365.38" y2="429.92"/><line class="f" x1="401.9" y1="429.92" x2="403.64" y2="429.92"/><line class="f" x1="403.64" y1="429.92" x2="403.64" y2="425.58"/><line class="f" x1="365.38" y1="429.92" x2="365.38" y2="425.58"/><line class="f" x1="403.64" y1="433.91" x2="543.46" y2="433.91"/><line class="f" x1="445.38" y1="425.58" x2="543.46" y2="425.58"/><line class="f" x1="423.46" y1="408.25" x2="441.9" y2="408.25"/><line class="f" x1="441.9" y1="408.25" x2="441.9" y2="425.59"/><line class="f" x1="433.9" y1="404.78" x2="445.38" y2="404.78"/><line class="f" x1="445.38" y1="404.78" x2="445.38" y2="425.59"/><line class="f" x1="247.12" y1="359.7" x2="335.12" y2="359.7"/><line class="f" x1="247.12" y1="357.27" x2="342.77" y2="357.27"/><line class="f" x1="335.12" y1="359.7" x2="335.12" y2="368.37"/><line class="f" x1="335.12" y1="396.11" x2="335.12" y2="425.59"/><line class="f" x1="337.55" y1="359.7" x2="337.55" y2="368.37"/><line class="f" x1="337.55" y1="368.37" x2="335.12" y2="368.37"/><line class="f" x1="337.55" y1="396.11" x2="335.12" y2="396.11"/><line class="f" x1="337.55" y1="396.11" x2="337.55" y2="425.59"/><line class="f" x1="367.12" y1="433.91" x2="365.38" y2="433.91"/><line class="f" x1="401.9" y1="433.91" x2="403.64" y2="433.91"/><line class="f" x1="423.46" y1="401.31" x2="421.03" y2="401.31"/><line class="f" x1="421.03" y1="401.31" x2="421.03" y2="408.25"/><line class="f" x1="421.03" y1="411.71" x2="421.03" y2="425.59"/><line class="f" x1="423.46" y1="425.58" x2="441.9" y2="425.58"/><line class="f" x1="402.6" y1="357.27" x2="423.46" y2="357.27"/><line class="f" x1="407.12" y1="425.58" x2="407.12" y2="411.71"/><line class="f" x1="403.64" y1="425.58" x2="403.64" y2="408.25"/><line class="f" x1="427.29" y1="250.12" x2="427.29" y2="282.02"/><g class="g"><path class="f" d="M459.29,250.12a32,32,0,0,1-32,31.9"/></g><line class="f" x1="349.73" y1="250.12" x2="349.73" y2="282.02"/><g class="g"><path class="f" d="M349.73,282a31.94,31.94,0,0,1-32-31.9"/></g><line class="f" x1="400.16" y1="429.92" x2="368.86" y2="429.92"/><line class="f" x1="400.16" y1="433.91" x2="368.86" y2="433.91"/><line class="f" x1="400.16" y1="429.92" x2="400.16" y2="398.71"/><g class="g"><path class="f" d="M368.86,429.92a31.25,31.25,0,0,1,31.3-31.21"/></g><line class="f" x1="400.16" y1="433.91" x2="400.16" y2="429.92"/><line class="f" x1="368.86" y1="429.92" x2="368.86" y2="433.91"/><line class="f" x1="368.86" y1="429.92" x2="367.12" y2="429.92"/><line class="f" x1="368.86" y1="433.91" x2="367.12" y2="433.91"/><line class="f" x1="401.9" y1="429.92" x2="400.16" y2="429.92"/><line class="f" x1="401.9" y1="433.91" x2="400.16" y2="433.91"/><line class="f" x1="372.34" y1="357.27" x2="344.51" y2="357.27"/><line class="f" x1="372.34" y1="357.27" x2="372.34" y2="329.53"/><g class="g"><path class="f" d="M344.51,357.27a27.78,27.78,0,0,1,27.82-27.74"/></g><line class="f" x1="372.34" y1="359.7" x2="372.34" y2="357.27"/><line class="f" x1="344.51" y1="357.27" x2="344.51" y2="359.7"/><line class="f" x1="344.51" y1="357.27" x2="342.77" y2="357.27"/><line class="f" x1="344.51" y1="359.7" x2="342.77" y2="359.7"/><line class="f" x1="374.07" y1="357.27" x2="372.34" y2="357.27"/><line class="f" x1="374.07" y1="359.7" x2="372.34" y2="359.7"/><line class="f" x1="372.34" y1="359.7" x2="365.38" y2="359.7"/><line class="f" x1="361.55" y1="359.7" x2="360.77" y2="359.7"/><line class="f" x1="356.94" y1="359.7" x2="356.16" y2="359.7"/><line class="f" x1="352.34" y1="359.7" x2="351.47" y2="359.7"/><line class="f" x1="351.47" y1="359.7" x2="344.51" y2="359.7"/><line class="f" x1="372.34" y1="357.27" x2="372.34" y2="356.4"/><line class="f" x1="372.34" y1="356.4" x2="375.81" y2="356.4"/><line class="f" x1="375.81" y1="356.4" x2="375.81" y2="357.27"/><line class="f" x1="372.34" y1="359.7" x2="372.34" y2="360.56"/><line class="f" x1="372.34" y1="360.56" x2="375.81" y2="360.56"/><line class="f" x1="375.81" y1="360.56" x2="375.81" y2="359.7"/><line class="f" x1="344.51" y1="356.4" x2="341.03" y2="356.4"/><line class="f" x1="341.03" y1="356.4" x2="341.03" y2="357.27"/><line class="f" x1="344.51" y1="359.7" x2="344.51" y2="360.56"/><line class="f" x1="344.51" y1="360.56" x2="341.03" y2="360.56"/><line class="f" x1="341.03" y1="360.56" x2="341.03" y2="359.7"/><line class="f" x1="337.55" y1="394.38" x2="337.55" y2="370.1"/><line class="f" x1="337.55" y1="394.38" x2="361.9" y2="394.38"/><g class="g"><path class="f" d="M337.55,370.1a24.31,24.31,0,0,1,24.35,24.28"/></g><line class="f" x1="335.12" y1="394.38" x2="337.55" y2="394.38"/><line class="f" x1="337.55" y1="370.1" x2="335.12" y2="370.1"/><line class="f" x1="337.55" y1="370.1" x2="337.55" y2="368.37"/><line class="f" x1="335.12" y1="370.1" x2="335.12" y2="368.37"/><line class="f" x1="337.55" y1="396.11" x2="337.55" y2="394.38"/><line class="f" x1="335.12" y1="396.11" x2="335.12" y2="394.38"/><line class="f" x1="335.12" y1="394.38" x2="335.12" y2="387.44"/><line class="f" x1="335.12" y1="383.63" x2="335.12" y2="382.85"/><line class="f" x1="335.12" y1="379.03" x2="335.12" y2="378.25"/><line class="f" x1="335.12" y1="377.04" x2="335.12" y2="370.1"/><line class="f" x1="337.55" y1="394.38" x2="338.42" y2="394.38"/><line class="f" x1="338.42" y1="394.38" x2="338.42" y2="397.84"/><line class="f" x1="338.42" y1="397.84" x2="337.55" y2="397.84"/><line class="f" x1="335.12" y1="394.38" x2="334.25" y2="394.38"/><line class="f" x1="334.25" y1="394.38" x2="334.25" y2="397.84"/><line class="f" x1="334.25" y1="397.84" x2="335.12" y2="397.84"/><line class="f" x1="338.42" y1="370.1" x2="338.42" y2="366.63"/><line class="f" x1="338.42" y1="366.63" x2="337.55" y2="366.63"/><line class="f" x1="335.12" y1="370.1" x2="334.25" y2="370.1"/><line class="f" x1="334.25" y1="370.1" x2="334.25" y2="366.63"/><line class="f" x1="334.25" y1="366.63" x2="335.12" y2="366.63"/><line class="f" x1="423.46" y1="399.58" x2="423.46" y2="371.84"/><line class="f" x1="423.46" y1="399.58" x2="451.29" y2="399.58"/><g class="g"><path class="f" d="M423.46,371.84a27.79,27.79,0,0,1,27.83,27.74"/></g><line class="f" x1="421.03" y1="399.58" x2="423.46" y2="399.58"/><line class="f" x1="423.46" y1="371.84" x2="421.03" y2="371.84"/><line class="f" x1="423.46" y1="371.84" x2="423.46" y2="370.1"/><line class="f" x1="421.03" y1="371.84" x2="421.03" y2="370.1"/><line class="f" x1="423.46" y1="401.31" x2="423.46" y2="399.58"/><line class="f" x1="421.03" y1="401.31" x2="421.03" y2="399.58"/><line class="f" x1="421.03" y1="399.58" x2="421.03" y2="392.64"/><line class="f" x1="421.03" y1="388.83" x2="421.03" y2="388.05"/><line class="f" x1="421.03" y1="384.23" x2="421.03" y2="383.45"/><line class="f" x1="421.03" y1="379.64" x2="421.03" y2="378.77"/><line class="f" x1="421.03" y1="378.77" x2="421.03" y2="371.84"/><line class="f" x1="423.46" y1="399.58" x2="424.33" y2="399.58"/><line class="f" x1="424.33" y1="399.58" x2="424.33" y2="403.05"/><line class="f" x1="424.33" y1="403.05" x2="423.46" y2="403.05"/><line class="f" x1="421.03" y1="399.58" x2="420.16" y2="399.58"/><line class="f" x1="420.16" y1="399.58" x2="420.16" y2="403.05"/><line class="f" x1="420.16" y1="403.05" x2="421.03" y2="403.05"/><line class="f" x1="424.33" y1="371.84" x2="424.33" y2="368.37"/><line class="f" x1="424.33" y1="368.37" x2="423.46" y2="368.37"/><line class="f" x1="421.03" y1="371.84" x2="420.16" y2="371.84"/><line class="f" x1="420.16" y1="371.84" x2="420.16" y2="368.37"/><line class="f" x1="420.16" y1="368.37" x2="421.03" y2="368.37"/><line class="f" x1="337.55" y1="425.58" x2="365.38" y2="425.58"/><line class="f" x1="466.59" y1="425.24" x2="466.59" y2="404.43"/><line class="f" x1="458.62" y1="412.38" x2="453.7" y2="417.29"/><line class="f" x1="453.7" y1="412.38" x2="458.62" y2="417.29"/><line class="f" x1="456.16" y1="418.3" x2="456.16" y2="411.37"/><line class="f" x1="459.64" y1="414.84" x2="452.68" y2="414.84"/><line class="f" x1="466.59" y1="425.24" x2="445.72" y2="425.24"/><line class="f" x1="466.59" y1="404.43" x2="445.72" y2="404.43"/><line class="f" x1="467.46" y1="406.17" x2="486.59" y2="406.17"/><line class="f" x1="486.59" y1="406.17" x2="486.59" y2="423.51"/><line class="f" x1="486.59" y1="423.51" x2="467.46" y2="423.51"/><line class="f" x1="467.46" y1="423.51" x2="467.46" y2="406.17"/><line class="f" x1="466.59" y1="404.43" x2="487.46" y2="404.43"/><line class="f" x1="466.59" y1="425.24" x2="487.46" y2="425.24"/><line class="f" x1="469.2" y1="407.9" x2="484.85" y2="407.9"/><line class="f" x1="484.85" y1="407.9" x2="484.85" y2="420.04"/><line class="f" x1="484.85" y1="420.04" x2="469.2" y2="420.04"/><line class="f" x1="469.2" y1="420.04" x2="469.2" y2="407.9"/><g class="g"><path class="f" d="M477.72,416.57a.7.7,0,1,0-.69.69.69.69,0,0,0,.69-.69"/></g><line class="f" x1="487.46" y1="425.24" x2="487.46" y2="404.43"/><line class="f" x1="487.46" y1="404.43" x2="508.33" y2="404.43"/><line class="f" x1="508.33" y1="404.43" x2="508.33" y2="425.24"/><line class="f" x1="508.33" y1="425.24" x2="487.46" y2="425.24"/><line class="f" x1="522.25" y1="404.43" x2="522.25" y2="383.63"/><line class="f" x1="522.25" y1="383.63" x2="543.11" y2="383.63"/><line class="f" x1="543.11" y1="383.63" x2="543.11" y2="404.43"/><line class="f" x1="543.11" y1="404.43" x2="522.25" y2="404.43"/><g class="g"><path class="f" d="M538.77,394a6.09,6.09,0,1,0-6.09,6.07,6.08,6.08,0,0,0,6.09-6.07"/><path class="f" d="M537.72,394a5,5,0,1,0-5,5,5,5,0,0,0,5-5"/></g><line class="f" x1="377.2" y1="359.7" x2="421.03" y2="359.7"/><line class="f" x1="421.03" y1="359.7" x2="421.03" y2="366.98"/><line class="f" x1="421.03" y1="366.98" x2="377.2" y2="366.98"/><line class="f" x1="377.2" y1="366.98" x2="377.2" y2="359.7"/><g class="g"><path class="f" d="M541.21,378.33a3.41,3.41,0,1,0-3.41,3.41,3.4,3.4,0,0,0,3.41-3.41"/></g><line class="f" x1="543.11" y1="383.63" x2="522.25" y2="383.63"/><line class="f" x1="522.25" y1="383.63" x2="522.25" y2="362.82"/><line class="f" x1="522.25" y1="362.82" x2="543.11" y2="362.82"/><line class="f" x1="543.11" y1="362.82" x2="543.11" y2="383.63"/><g class="g"><path class="f" d="M531,378.33a3.42,3.42,0,1,0-3.41,3.41,3.41,3.41,0,0,0,3.41-3.41"/><path class="f" d="M531,368.11a3.42,3.42,0,1,0-3.41,3.41,3.41,3.41,0,0,0,3.41-3.41"/></g><line class="f" x1="521.29" y1="365.66" x2="521.29" y2="380.79"/><line class="f" x1="445.38" y1="425.24" x2="445.38" y2="404.43"/><line class="f" x1="445.38" y1="404.43" x2="522.25" y2="404.43"/><line class="f" x1="522.25" y1="404.43" x2="522.25" y2="352.42"/><line class="f" x1="522.25" y1="352.42" x2="543.11" y2="352.42"/><line class="f" x1="543.11" y1="352.42" x2="543.11" y2="425.24"/><line class="f" x1="543.11" y1="425.24" x2="447.46" y2="425.24"/><line class="f" x1="377.2" y1="359.7" x2="421.03" y2="359.7"/><line class="f" x1="421.03" y1="359.7" x2="421.03" y2="366.98"/><line class="f" x1="421.03" y1="366.98" x2="377.2" y2="366.98"/><line class="f" x1="377.2" y1="366.98" x2="377.2" y2="359.7"/><line class="f" x1="275.81" y1="420.38" x2="335.12" y2="420.38"/><line class="f" x1="281.55" y1="360.56" x2="281.55" y2="364.03"/><line class="f" x1="281.55" y1="364.03" x2="302.42" y2="364.03"/><line class="f" x1="302.42" y1="364.03" x2="302.42" y2="360.56"/><line class="f" x1="302.42" y1="360.56" x2="301.38" y2="360.56"/><line class="f" x1="301.38" y1="360.56" x2="301.38" y2="362.99"/><line class="f" x1="301.38" y1="362.99" x2="282.6" y2="362.99"/><line class="f" x1="282.6" y1="362.99" x2="282.6" y2="360.57"/><line class="f" x1="282.6" y1="360.56" x2="281.55" y2="360.56"/><line class="f" x1="281.55" y1="360.56" x2="281.55" y2="364.03"/><line class="f" x1="302.42" y1="360.56" x2="302.42" y2="364.03"/><line class="f" x1="282.6" y1="360.56" x2="282.6" y2="362.99"/><line class="f" x1="301.38" y1="360.56" x2="301.38" y2="362.99"/><line class="f" x1="281.55" y1="364.03" x2="302.42" y2="364.03"/><line class="f" x1="281.55" y1="362.99" x2="302.42" y2="362.99"/><line class="f" x1="281.55" y1="360.56" x2="282.6" y2="360.56"/><line class="f" x1="301.38" y1="360.56" x2="302.42" y2="360.56"/><g class="g"><path class="f" d="M254.08,397a.87.87,0,1,0-.87.86.87.87,0,0,0,.87-.86"/></g><line class="f" x1="275.81" y1="402.18" x2="275.81" y2="360.56"/><line class="f" x1="275.81" y1="360.56" x2="247.99" y2="360.56"/><line class="f" x1="247.99" y1="360.56" x2="247.99" y2="402.18"/><line class="f" x1="247.99" y1="402.18" x2="275.81" y2="402.18"/><line class="f" x1="274.08" y1="396.98" x2="274.08" y2="365.77"/><line class="f" x1="270.6" y1="362.3" x2="253.21" y2="362.3"/><line class="f" x1="249.73" y1="365.77" x2="249.73" y2="396.98"/><line class="f" x1="253.21" y1="400.44" x2="270.6" y2="400.44"/><g class="g"><path class="f" d="M274.08,397a3.47,3.47,0,0,1-3.48,3.46"/><path class="f" d="M270.6,362.3a3.47,3.47,0,0,1,3.47,3.47"/><path class="f" d="M253.21,400.44a3.47,3.47,0,0,1-3.48-3.46"/><path class="f" d="M249.73,365.77a3.47,3.47,0,0,1,3.48-3.47"/></g><line class="f" x1="271.47" y1="406.51" x2="271.47" y2="425.59"/><line class="f" x1="271.47" y1="425.58" x2="247.12" y2="425.58"/><line class="f" x1="247.12" y1="425.58" x2="247.12" y2="406.51"/><line class="f" x1="247.12" y1="406.51" x2="271.47" y2="406.51"/><line class="f" x1="247.12" y1="403.05" x2="274.94" y2="403.05"/><line class="f" x1="274.95" y1="403.05" x2="274.95" y2="425.59"/><line class="f" x1="247.12" y1="403.05" x2="247.12" y2="359.7"/><line class="f" x1="271.47" y1="406.57" x2="274.95" y2="406.57"/><line class="f" x1="274.95" y1="406.57" x2="274.95" y2="403.1"/><line class="f" x1="274.95" y1="425.58" x2="335.12" y2="425.58"/><line class="f" x1="423.46" y1="404.78" x2="433.9" y2="404.78"/><line class="f" x1="423.46" y1="408.25" x2="423.46" y2="404.78"/><line class="f" x1="274.6" y1="255.32" x2="302.42" y2="255.32"/><line class="f" x1="302.42" y1="255.32" x2="302.42" y2="257.5"/><line class="f" x1="302.42" y1="257.5" x2="274.6" y2="257.5"/><line class="f" x1="274.6" y1="257.5" x2="274.6" y2="255.32"/><g class="g"><path class="f" d="M307.64,256.41a1.74,1.74,0,1,0-1.74,1.73,1.73,1.73,0,0,0,1.74-1.73"/></g><line class="f" x1="460.68" y1="255.32" x2="509.38" y2="255.32"/><line class="f" x1="509.38" y1="255.32" x2="509.38" y2="258.79"/><line class="f" x1="509.38" y1="258.79" x2="460.68" y2="258.79"/><line class="f" x1="460.68" y1="258.79" x2="460.68" y2="255.32"/><g class="g"><path class="f" d="M514.59,257.05a1.74,1.74,0,1,0-1.74,1.74,1.74,1.74,0,0,0,1.74-1.74"/></g><line class="f" x1="349.38" y1="239.71" x2="342.42" y2="239.71"/><line class="f" x1="338.6" y1="239.71" x2="337.81" y2="239.71"/><line class="f" x1="333.99" y1="239.71" x2="333.2" y2="239.71"/><line class="f" x1="329.38" y1="239.71" x2="325.03" y2="239.71"/><line class="f" x1="325.03" y1="239.71" x2="318.07" y2="239.71"/><line class="f" x1="458.94" y1="239.71" x2="451.99" y2="239.71"/><line class="f" x1="448.16" y1="239.71" x2="447.38" y2="239.71"/><line class="f" x1="443.55" y1="239.71" x2="442.77" y2="239.71"/><line class="f" x1="438.94" y1="239.71" x2="434.59" y2="239.71"/><line class="f" x1="434.59" y1="239.71" x2="427.64" y2="239.71"/><line class="f" x1="441.9" y1="425.58" x2="423.46" y2="425.58"/><line class="f" x1="423.46" y1="425.58" x2="423.46" y2="408.25"/><line class="f" x1="423.46" y1="408.25" x2="426.94" y2="422.12"/><line class="f" x1="426.94" y1="422.12" x2="441.9" y2="425.59"/><line class="f" x1="247.12" y1="406.51" x2="247.12" y2="425.59"/><line class="f" x1="247.12" y1="425.58" x2="271.47" y2="425.58"/><line class="f" x1="271.47" y1="425.58" x2="250.6" y2="422.12"/><line class="f" x1="250.6" y1="422.12" x2="247.12" y2="406.51"/><line class="f" x1="421.03" y1="425.58" x2="407.12" y2="425.58"/><line class="f" x1="407.12" y1="425.58" x2="407.12" y2="411.71"/><line class="f" x1="407.12" y1="411.71" x2="410.6" y2="422.12"/><line class="f" x1="410.6" y1="422.12" x2="421.03" y2="425.59"/><rect class="d" x="486.07" y="295.2" width="17.39" height="27.74"/><line class="f" x1="486.07" y1="295.2" x2="486.07" y2="322.94"/><line class="f" x1="503.46" y1="295.2" x2="486.07" y2="295.2"/><line class="f" x1="503.46" y1="322.94" x2="503.46" y2="295.2"/><line class="f" x1="486.07" y1="322.94" x2="503.46" y2="322.94"/><rect class="d" x="274.95" y="420.38" width="60.17" height="5.2"/><line class="f" x1="274.95" y1="420.38" x2="274.95" y2="425.59"/><line class="f" x1="335.12" y1="420.38" x2="274.94" y2="420.38"/><line class="f" x1="335.12" y1="425.58" x2="335.12" y2="420.38"/><line class="f" x1="274.95" y1="425.58" x2="335.12" y2="425.58"/><rect class="d" x="281.55" y="360.57" width="1.04" height="2.43"/><line class="f" x1="281.55" y1="360.56" x2="281.55" y2="362.99"/><line class="f" x1="282.6" y1="360.56" x2="281.55" y2="360.56"/><line class="f" x1="282.6" y1="362.99" x2="282.6" y2="360.57"/><line class="f" x1="281.55" y1="362.99" x2="282.6" y2="362.99"/><rect class="d" x="281.55" y="362.99" width="20.87" height="1.04"/><line class="f" x1="302.42" y1="364.03" x2="302.42" y2="362.99"/><line class="f" x1="281.55" y1="364.03" x2="302.42" y2="364.03"/><line class="f" x1="281.55" y1="362.99" x2="281.55" y2="364.03"/><line class="f" x1="302.42" y1="362.99" x2="281.55" y2="362.99"/><rect class="d" x="301.38" y="360.57" width="1.04" height="2.43"/><line class="f" x1="301.38" y1="360.56" x2="301.38" y2="362.99"/><line class="f" x1="302.42" y1="360.56" x2="301.38" y2="360.56"/><line class="f" x1="302.42" y1="362.99" x2="302.42" y2="360.57"/><line class="f" x1="301.38" y1="362.99" x2="302.42" y2="362.99"/><rect class="d" x="377.2" y="359.7" width="43.83" height="7.28"/><line class="f" x1="377.2" y1="359.7" x2="377.2" y2="366.98"/><line class="f" x1="421.03" y1="359.7" x2="377.2" y2="359.7"/><line class="f" x1="421.03" y1="366.98" x2="421.03" y2="359.7"/><line class="f" x1="377.2" y1="366.98" x2="421.03" y2="366.98"/><rect class="d" x="402.59" y="253.59" width="16.69" height="103.68"/><line class="f" x1="402.6" y1="253.58" x2="402.6" y2="357.27"/><line class="f" x1="419.29" y1="253.58" x2="402.6" y2="253.58"/><line class="f" x1="419.29" y1="357.27" x2="419.29" y2="253.59"/><line class="f" x1="402.6" y1="357.27" x2="419.29" y2="357.27"/><rect class="d" x="460.68" y="255.32" width="48.7" height="3.47"/><line class="f" x1="509.38" y1="258.79" x2="509.38" y2="255.32"/><line class="f" x1="460.68" y1="258.79" x2="509.38" y2="258.79"/><line class="f" x1="460.68" y1="255.32" x2="460.68" y2="258.79"/><line class="f" x1="509.38" y1="255.32" x2="460.68" y2="255.32"/><polygon class="d" points="511.62 258.28 511.12 257.05 511.62 255.83 512.86 255.32 514.08 255.83 514.59 257.05 514.08 258.28 512.86 258.79 511.62 258.28"/><g class="g"><path class="f" d="M514.59,257.05a1.74,1.74,0,1,1-3.48,0"/><path class="f" d="M511.11,257.05a1.74,1.74,0,0,1,3.48,0"/></g><rect class="d" x="274.6" y="255.32" width="27.83" height="2.18"/><line class="f" x1="302.42" y1="255.32" x2="274.6" y2="255.32"/><line class="f" x1="302.42" y1="257.5" x2="302.42" y2="255.32"/><line class="f" x1="274.6" y1="257.5" x2="302.42" y2="257.5"/><line class="f" x1="274.6" y1="255.32" x2="274.6" y2="257.5"/><polygon class="d" points="304.67 257.64 304.16 256.41 304.67 255.19 305.9 254.68 307.13 255.19 307.64 256.41 307.13 257.64 305.9 258.14 304.67 257.64"/><g class="g"><path class="f" d="M307.64,256.41a1.74,1.74,0,0,1-3.48,0"/><path class="f" d="M304.16,256.41a1.74,1.74,0,0,1,3.48,0"/></g><polygon class="d" points="257.55 336.12 247.12 336.12 247.12 273.7 309.73 273.7 312.39 274.23 314.64 275.73 316.15 277.98 316.68 280.63 316.68 329.18 316.15 331.84 314.64 334.08 312.39 335.59 309.73 336.12 257.55 336.12"/><rect class="d" x="247.12" y="261.56" width="10.43" height="12.14"/><rect class="d" x="247.12" y="336.12" width="10.43" height="12.14"/><line class="f" x1="258.69" y1="306.87" x2="255.68" y2="307.7"/><line class="f" x1="258.69" y1="277.75" x2="255.68" y2="278.59"/><line class="f" x1="316.68" y1="329.18" x2="316.68" y2="280.63"/><line class="f" x1="309.73" y1="273.7" x2="247.12" y2="273.7"/><line class="f" x1="247.12" y1="273.7" x2="247.12" y2="336.12"/><line class="f" x1="247.12" y1="336.12" x2="309.73" y2="336.12"/><line class="f" x1="247.12" y1="273.7" x2="247.12" y2="261.56"/><line class="f" x1="247.12" y1="261.56" x2="257.55" y2="261.56"/><line class="f" x1="257.55" y1="261.56" x2="257.55" y2="273.7"/><line class="f" x1="257.55" y1="273.7" x2="247.12" y2="273.7"/><line class="f" x1="247.12" y1="348.25" x2="247.12" y2="336.12"/><line class="f" x1="247.12" y1="336.12" x2="257.55" y2="336.12"/><line class="f" x1="257.55" y1="336.12" x2="257.55" y2="348.25"/><line class="f" x1="257.55" y1="348.25" x2="247.12" y2="348.25"/><line class="f" x1="270.26" y1="273.7" x2="270.26" y2="336.12"/><line class="f" x1="275.48" y1="273.7" x2="275.48" y2="336.12"/><g class="g"><path class="f" d="M265,302.28a97.61,97.61,0,0,1-.84-12.78,94.69,94.69,0,0,1,.5-9.82"/><path class="f" d="M262.73,277.42h.1a1.86,1.86,0,0,1,1.86,1.86,2.85,2.85,0,0,1,0,.4"/><path class="f" d="M258.69,277.75a15.05,15.05,0,0,1,3.22-.35l.82,0"/><path class="f" d="M250.92,277.56q1.26-.06,2.52-.06c1.75,0,3.5.08,5.25.25"/><path class="f" d="M250.42,278a.28.28,0,0,1,0-.09.38.38,0,0,1,.39-.39.25.25,0,0,1,.12,0"/><path class="f" d="M250.42,278q.57,7.44.57,14.91,0,4.71-.23,9.42"/><path class="f" d="M252,303.47a1,1,0,0,1-.3,0,1,1,0,0,1-1-1,1.36,1.36,0,0,1,0-.2"/><path class="f" d="M252,303.47a45.71,45.71,0,0,1,12-.18"/><path class="f" d="M265,302.28a.67.67,0,0,1,0,.24.8.8,0,0,1-.8.8.91.91,0,0,1-.23,0"/><path class="f" d="M309.73,273.7a6.94,6.94,0,0,1,6.95,6.93"/><path class="f" d="M316.68,329.18a7,7,0,0,1-6.95,6.94"/><path class="f" d="M265,331.39a97.35,97.35,0,0,1-.84-12.77,95,95,0,0,1,.5-9.83"/><path class="f" d="M262.73,306.54h.1a1.86,1.86,0,0,1,1.86,1.86,2.58,2.58,0,0,1,0,.39"/><path class="f" d="M258.69,306.87a15.05,15.05,0,0,1,3.22-.35l.82,0"/><path class="f" d="M250.92,306.67c.84,0,1.68-.05,2.52-.05,1.75,0,3.5.08,5.25.25"/><path class="f" d="M250.42,307.13a.19.19,0,0,1,0-.08.38.38,0,0,1,.39-.39h.12"/><path class="f" d="M250.42,307.13q.57,7.46.57,14.92,0,4.71-.23,9.42"/><path class="f" d="M252,332.59a1,1,0,0,1-.3.05,1,1,0,0,1-1-1,1.23,1.23,0,0,1,0-.2"/><path class="f" d="M252,332.59a45.57,45.57,0,0,1,6.7-.49,46.78,46.78,0,0,1,5.29.31"/><path class="f" d="M265,331.39a.69.69,0,0,1,0,.25.8.8,0,0,1-.8.8.91.91,0,0,1-.23,0"/></g><polygon class="d" points="513.9 333.34 512.16 332.88 510.88 331.61 510.42 329.88 510.42 328.83 510.62 328.35 511.12 328.14 510.61 327.72 510.42 327.1 510.42 289.3 510.61 288.7 511.11 288.32 510.48 287.95 510.42 287.22 510.42 261.56 510.39 261.08 510.66 260.68 511.12 260.52 539.29 260.52 539.78 260.72 539.98 261.21 539.98 332.65 539.78 333.14 539.29 333.34 513.9 333.34"/><polygon class="d" points="487.81 288.26 485.15 287.73 482.89 286.23 481.38 283.98 480.86 281.33 480.86 267.46 481.38 264.8 482.89 262.55 485.15 261.05 487.81 260.52 509.38 260.52 510.11 260.82 510.42 261.56 510.42 287.22 510.11 287.96 509.38 288.26 487.81 288.26"/><g class="g"><path class="f" d="M487.81,288.26a6.94,6.94,0,0,1-6.95-6.93"/></g><line class="f" x1="480.85" y1="281.33" x2="480.85" y2="267.46"/><g class="g"><path class="f" d="M480.85,267.46a7,7,0,0,1,7-6.94"/></g><line class="f" x1="487.81" y1="260.52" x2="509.38" y2="260.52"/><g class="g"><path class="f" d="M509.38,260.52a1,1,0,0,1,1,1"/></g><line class="f" x1="510.42" y1="261.56" x2="510.42" y2="287.22"/><g class="g"><path class="f" d="M510.42,287.22a1,1,0,0,1-1,1"/></g><line class="f" x1="509.38" y1="288.26" x2="487.81" y2="288.26"/><line class="f" x1="510.42" y1="328.83" x2="510.42" y2="329.87"/><line class="f" x1="513.9" y1="333.34" x2="539.29" y2="333.34"/><line class="f" x1="539.98" y1="332.65" x2="539.98" y2="328.83"/><line class="f" x1="539.29" y1="328.14" x2="511.11" y2="328.14"/><line class="f" x1="539.98" y1="328.83" x2="539.98" y2="288.26"/><line class="f" x1="539.98" y1="288.26" x2="537.55" y2="288.26"/><line class="f" x1="510.42" y1="289.3" x2="510.42" y2="327.1"/><line class="f" x1="511.46" y1="328.14" x2="528.9" y2="328.14"/><line class="f" x1="528.9" y1="288.26" x2="511.46" y2="288.26"/><line class="f" x1="537.55" y1="328.14" x2="530.98" y2="328.14"/><line class="f" x1="530.99" y1="288.26" x2="537.55" y2="288.26"/><line class="f" x1="510.42" y1="265.03" x2="510.42" y2="261.21"/><line class="f" x1="511.11" y1="260.52" x2="539.29" y2="260.52"/><line class="f" x1="539.98" y1="261.21" x2="539.98" y2="265.03"/><line class="f" x1="539.98" y1="265.03" x2="539.98" y2="288.26"/><line class="f" x1="539.98" y1="288.26" x2="537.55" y2="288.26"/><line class="f" x1="510.42" y1="287.22" x2="510.42" y2="266.76"/><line class="f" x1="528.9" y1="288.26" x2="511.46" y2="288.26"/><line class="f" x1="528.9" y1="288.26" x2="537.55" y2="288.26"/><line class="f" x1="480.85" y1="281.33" x2="480.85" y2="267.46"/><line class="f" x1="487.81" y1="260.52" x2="509.38" y2="260.52"/><line class="f" x1="510.42" y1="261.56" x2="510.42" y2="287.22"/><line class="f" x1="509.38" y1="288.26" x2="487.81" y2="288.26"/><line class="f" x1="538.59" y1="287.22" x2="538.59" y2="261.56"/><line class="f" x1="538.59" y1="289.3" x2="538.59" y2="327.1"/><g class="g"><path class="f" d="M540,332.65a.69.69,0,0,1-.69.69"/><path class="f" d="M539.29,328.14a.69.69,0,0,1,.69.7"/><path class="f" d="M510.42,328.83a.69.69,0,0,1,.69-.69"/><path class="f" d="M511.46,328.14a1,1,0,0,1-1-1"/><path class="f" d="M510.42,289.3a1,1,0,0,1,1-1"/><path class="f" d="M510.42,261.21a.69.69,0,0,1,.69-.69"/><path class="f" d="M539.29,260.52a.69.69,0,0,1,.69.69"/><path class="f" d="M511.46,288.26a1,1,0,0,1-1-1"/><path class="f" d="M509.38,260.52a1,1,0,0,1,1,1"/><path class="f" d="M510.42,287.22a1,1,0,0,1-1,1"/></g><line class="f" x1="538.59" y1="261.56" x2="514.9" y2="261.56"/><g class="g"><path class="f" d="M519.69,262.81a19.65,19.65,0,0,1,14.85,24.45"/><path class="f" d="M533.72,327.1a118.26,118.26,0,0,1,0-37.8"/><path class="f" d="M487.81,288.26a6.94,6.94,0,0,1-6.95-6.93"/><path class="f" d="M480.85,267.46a7,7,0,0,1,7-6.94"/><path class="f" d="M513.9,333.34a3.47,3.47,0,0,1-3.48-3.47"/></g><rect class="d" x="379.29" y="253.59" width="20.87" height="52.19"/><line class="f" x1="400.16" y1="305.77" x2="400.16" y2="253.58"/><line class="f" x1="400.16" y1="253.58" x2="379.29" y2="253.58"/><line class="f" x1="379.29" y1="253.58" x2="379.29" y2="305.78"/><line class="f" x1="379.29" y1="305.77" x2="400.16" y2="305.77"/><line class="f" x1="389.73" y1="303.17" x2="389.73" y2="256.19"/><line class="f" x1="395.87" y1="300.74" x2="383.36" y2="296.33"/><line class="f" x1="396.49" y1="295.77" x2="384.86" y2="293.94"/><line class="f" x1="382.2" y1="288.97" x2="394.97" y2="287.47"/><line class="f" x1="383.88" y1="281.27" x2="394.97" y2="283.31"/><line class="f" x1="383.24" y1="278.47" x2="396.91" y2="278.47"/><line class="f" x1="383.18" y1="270.54" x2="396.68" y2="272.42"/><line class="f" x1="383.41" y1="267.57" x2="395.74" y2="267.57"/><line class="f" x1="383.28" y1="259.74" x2="395.93" y2="258.24"/><line class="f" x1="384.14" y1="261.62" x2="394.83" y2="263.15"/><rect class="d" x="379.29" y="305.77" width="20.87" height="51.5"/><line class="f" x1="400.16" y1="357.27" x2="400.16" y2="305.77"/><line class="f" x1="400.16" y1="305.77" x2="379.29" y2="305.77"/><line class="f" x1="379.29" y1="305.77" x2="379.29" y2="357.27"/><line class="f" x1="379.29" y1="357.27" x2="400.16" y2="357.27"/><line class="f" x1="389.73" y1="354.7" x2="389.73" y2="308.35"/><line class="f" x1="395.87" y1="352.31" x2="383.36" y2="347.95"/><line class="f" x1="396.49" y1="347.39" x2="384.86" y2="345.6"/><line class="f" x1="382.2" y1="340.69" x2="394.97" y2="339.21"/><line class="f" x1="383.88" y1="333.09" x2="394.97" y2="335.1"/><line class="f" x1="383.24" y1="330.33" x2="396.91" y2="330.33"/><line class="f" x1="383.18" y1="322.5" x2="396.68" y2="324.36"/><line class="f" x1="383.41" y1="319.57" x2="395.74" y2="319.57"/><line class="f" x1="383.28" y1="311.85" x2="395.93" y2="310.36"/><line class="f" x1="384.14" y1="313.71" x2="394.83" y2="315.21"/><polygon class="d" points="464.16 342.98 464.63 341.24 465.89 339.97 467.63 339.49 474.58 339.45 476.32 339.9 477.6 341.17 478.07 342.9 478.09 350.67 474.73 349.3 471.13 348.84 467.53 349.34 464.18 350.74 464.16 342.98"/><polygon class="d" points="454.06 378.74 452.78 377.48 449.29 371.48 448.82 369.75 449.28 368.01 450.55 366.73 457.26 362.81 457.75 366.41 459.15 369.75 461.37 372.61 464.25 374.8 457.53 378.72 455.79 379.2 454.06 378.74"/><polygon class="d" points="484.9 378.56 478.16 374.72 481.03 372.49 483.23 369.61 484.61 366.25 485.08 362.65 491.82 366.49 493.09 367.76 493.56 369.49 493.1 371.23 489.64 377.26 488.37 378.54 486.64 379.02 484.9 378.56"/><polygon class="d" points="467.61 376.17 464.25 374.8 461.37 372.61 459.15 369.75 457.75 366.4 457.27 362.81 457.73 359.22 459.11 355.86 461.31 352.97 464.18 350.74 467.53 349.34 471.13 348.84 474.73 349.3 478.09 350.67 480.98 352.86 483.2 355.72 484.6 359.06 485.08 362.65 484.61 366.25 483.23 369.61 481.03 372.49 478.16 374.72 474.81 376.13 471.21 376.62 467.61 376.17"/><line class="f" x1="480.98" y1="352.86" x2="478.09" y2="350.66"/><line class="f" x1="483.2" y1="355.72" x2="480.98" y2="352.86"/><line class="f" x1="484.59" y1="359.06" x2="483.2" y2="355.72"/><line class="f" x1="485.08" y1="362.65" x2="484.59" y2="359.06"/><line class="f" x1="484.61" y1="366.25" x2="485.08" y2="362.65"/><line class="f" x1="483.23" y1="369.61" x2="484.61" y2="366.25"/><line class="f" x1="481.03" y1="372.49" x2="483.23" y2="369.61"/><line class="f" x1="478.16" y1="374.72" x2="481.03" y2="372.49"/><line class="f" x1="474.81" y1="376.13" x2="478.16" y2="374.72"/><line class="f" x1="471.21" y1="376.62" x2="474.81" y2="376.13"/><line class="f" x1="467.61" y1="376.17" x2="471.21" y2="376.62"/><line class="f" x1="464.25" y1="374.8" x2="467.61" y2="376.17"/><line class="f" x1="461.37" y1="372.61" x2="464.25" y2="374.8"/><line class="f" x1="459.15" y1="369.75" x2="461.37" y2="372.61"/><line class="f" x1="457.75" y1="366.4" x2="459.15" y2="369.75"/><line class="f" x1="457.27" y1="362.81" x2="457.75" y2="366.41"/><line class="f" x1="457.73" y1="359.22" x2="457.27" y2="362.81"/><line class="f" x1="459.11" y1="355.86" x2="457.73" y2="359.22"/><line class="f" x1="461.31" y1="352.97" x2="459.11" y2="355.86"/><line class="f" x1="464.18" y1="350.74" x2="461.31" y2="352.97"/><line class="f" x1="467.53" y1="349.34" x2="464.18" y2="350.74"/><line class="f" x1="471.13" y1="348.84" x2="467.53" y2="349.34"/><line class="f" x1="474.73" y1="349.3" x2="471.13" y2="348.84"/><line class="f" x1="478.09" y1="350.66" x2="474.73" y2="349.3"/><g class="g"><path class="f" d="M483.23,369.61a13.88,13.88,0,1,1-24.12-13.75"/><path class="f" d="M459.11,355.86a13.88,13.88,0,1,1,24.12,13.75"/></g><line class="f" x1="467.63" y1="341.23" x2="474.59" y2="341.19"/><line class="f" x1="478.07" y1="342.9" x2="478.09" y2="350.67"/><line class="f" x1="467.63" y1="339.49" x2="474.58" y2="339.45"/><line class="f" x1="464.18" y1="350.74" x2="464.16" y2="342.98"/><line class="f" x1="454.28" y1="376.6" x2="450.79" y2="370.61"/><line class="f" x1="450.55" y1="366.73" x2="457.27" y2="362.81"/><line class="f" x1="452.78" y1="377.48" x2="449.29" y2="371.48"/><line class="f" x1="464.25" y1="374.8" x2="457.53" y2="378.72"/><line class="f" x1="491.6" y1="370.37" x2="488.14" y2="376.41"/><line class="f" x1="484.9" y1="378.56" x2="478.15" y2="374.72"/><line class="f" x1="493.1" y1="371.23" x2="489.64" y2="377.26"/><line class="f" x1="485.08" y1="362.65" x2="491.82" y2="366.49"/><g class="g"><path class="f" d="M474.59,341.18a1.8,1.8,0,0,1,.87.23,1.75,1.75,0,0,1,.87,1.5"/><path class="f" d="M465.9,343a1.8,1.8,0,0,1,.23-.87,1.73,1.73,0,0,1,1.5-.87"/><path class="f" d="M474.58,339.45a3.53,3.53,0,0,1,1.74.45,3.48,3.48,0,0,1,1.75,3"/><path class="f" d="M464.16,343a3.54,3.54,0,0,1,.46-1.74,3.5,3.5,0,0,1,3-1.75"/><path class="f" d="M450.79,370.61a1.74,1.74,0,0,1,0-1.74,1.87,1.87,0,0,1,.64-.64"/><path class="f" d="M456.66,377.22a1.72,1.72,0,0,1-1.74,0,1.84,1.84,0,0,1-.64-.63"/><path class="f" d="M449.28,371.48a3.49,3.49,0,0,1,1.27-4.75"/><path class="f" d="M457.53,378.72a3.49,3.49,0,0,1-3.48,0,3.57,3.57,0,0,1-1.27-1.26"/><path class="f" d="M488.14,376.4h0a1.74,1.74,0,0,1-2.38.65"/><path class="f" d="M491,368a1.75,1.75,0,0,1,.65,2.37"/><path class="f" d="M489.65,377.26h0a3.49,3.49,0,0,1-4.75,1.3"/><path class="f" d="M491.82,366.49a3.47,3.47,0,0,1,1.28,4.74"/></g><polygon class="d" points="308.67 420.38 308.3 420.23 308.15 419.86 308.15 405.65 308.3 405.28 308.67 405.13 326.76 405.13 327.13 405.28 327.28 405.65 327.28 419.86 327.13 420.23 326.76 420.38 308.67 420.38"/><line class="f" x1="326.76" y1="420.38" x2="308.67" y2="420.38"/><g class="g"><path class="f" d="M308.67,420.38a.52.52,0,0,1-.52-.52"/></g><line class="f" x1="308.15" y1="419.86" x2="308.15" y2="405.65"/><g class="g"><path class="f" d="M308.15,405.65a.52.52,0,0,1,.52-.53"/></g><line class="f" x1="308.67" y1="405.13" x2="326.76" y2="405.13"/><g class="g"><path class="f" d="M326.76,405.13a.52.52,0,0,1,.52.52"/></g><line class="f" x1="327.28" y1="405.65" x2="327.28" y2="419.86"/><g class="g"><path class="f" d="M327.28,419.86a.52.52,0,0,1-.52.52"/></g><line class="f" x1="325.71" y1="416.57" x2="309.71" y2="416.57"/><line class="f" x1="309.19" y1="416.05" x2="309.19" y2="406.69"/><line class="f" x1="309.71" y1="406.17" x2="325.71" y2="406.17"/><line class="f" x1="326.23" y1="406.69" x2="326.23" y2="416.05"/><g class="g"><path class="f" d="M309.71,416.57a.52.52,0,0,1-.52-.52"/><path class="f" d="M309.19,406.69a.52.52,0,0,1,.52-.52"/><path class="f" d="M325.71,406.17a.52.52,0,0,1,.53.52"/><path class="f" d="M326.23,416.05a.52.52,0,0,1-.52.52"/></g><polygon class="d" points="317.1 418.92 316.85 418.3 316.98 416.85 317.1 416.52 317.33 414.68 317.46 414.44 317.71 414.34 317.97 414.44 318.1 414.68 318.33 416.52 318.44 416.85 318.58 418.3 318.33 418.92 317.71 419.17 317.1 418.92"/><g class="g"><path class="f" d="M318.58,418.3a.87.87,0,1,1-1.73,0"/></g><line class="f" x1="316.98" y1="416.85" x2="316.84" y2="418.3"/><g class="g"><path class="f" d="M317,416.85a.66.66,0,0,1,.12-.33"/></g><line class="f" x1="317.33" y1="414.68" x2="317.1" y2="416.52"/><g class="g"><path class="f" d="M317.33,414.68a.39.39,0,0,1,.77,0"/></g><line class="f" x1="318.33" y1="416.52" x2="318.1" y2="414.68"/><g class="g"><path class="f" d="M318.33,416.52a.76.76,0,0,1,.11.33"/></g><line class="f" x1="318.58" y1="418.3" x2="318.44" y2="416.85"/><line class="f" x1="317.24" y1="417.44" x2="317.24" y2="416.92"/><line class="f" x1="318.19" y1="416.92" x2="318.19" y2="417.44"/><line class="f" x1="318.19" y1="417.44" x2="317.24" y2="417.44"/><g class="g"><path class="f" d="M317.24,416.92a.47.47,0,0,1,.47-.47.48.48,0,0,1,.48.47"/><path class="f" d="M317.1,416.52a.72.72,0,0,1,.61-.34.73.73,0,0,1,.62.34"/></g><polygon class="d" points="285.42 420.38 285.42 408.94 285.69 407.23 286.47 405.67 287.68 404.43 289.66 403.4 291.86 403.05 294.06 403.4 296.03 404.43 297.24 405.67 298.02 407.23 298.29 408.94 298.29 420.38 285.42 420.38"/><line class="f" x1="285.42" y1="420.38" x2="285.42" y2="408.94"/><line class="f" x1="285.42" y1="420.38" x2="298.29" y2="420.38"/><line class="f" x1="298.29" y1="420.38" x2="298.29" y2="408.94"/><line class="f" x1="287.51" y1="416.22" x2="287.51" y2="408.94"/><line class="f" x1="296.2" y1="416.22" x2="296.2" y2="408.94"/><line class="f" x1="296.2" y1="416.22" x2="287.51" y2="416.22"/><g class="g"><path class="f" d="M285.42,408.94a5.65,5.65,0,0,1,2.26-4.51"/><path class="f" d="M296,404.43a5.65,5.65,0,0,1,2.26,4.51"/><path class="f" d="M287.68,404.43a7,7,0,0,1,8.35,0"/><path class="f" d="M296,404.43a5.65,5.65,0,0,1,2.26,4.51"/><path class="f" d="M291.86,403.05a7,7,0,0,1,4.17,1.38"/><path class="f" d="M294.78,406.1a3.53,3.53,0,0,1,1.42,2.84"/><path class="f" d="M288.93,406.1a4.9,4.9,0,0,1,5.85,0"/><path class="f" d="M287.51,408.94a3.56,3.56,0,0,1,1.42-2.84"/></g><polygon class="d" points="409.91 320.72 407.98 312.81 407.98 310.51 406.92 306.83 406.92 302.98 407.98 299.31 407.98 297 409.91 289.09 411.84 289.09 411.84 299.9 413.23 301.61 413.98 303.76 413.98 306.06 413.23 308.2 411.84 309.92 411.84 320.72 409.91 320.72"/><line class="f" x1="411.84" y1="320.72" x2="411.84" y2="309.92"/><line class="f" x1="409.91" y1="320.72" x2="411.84" y2="320.72"/><line class="f" x1="407.98" y1="312.81" x2="409.91" y2="320.72"/><line class="f" x1="407.98" y1="310.51" x2="407.98" y2="312.81"/><line class="f" x1="406.92" y1="306.84" x2="407.98" y2="310.51"/><line class="f" x1="406.92" y1="302.98" x2="406.92" y2="306.84"/><line class="f" x1="407.98" y1="299.3" x2="406.92" y2="302.98"/><line class="f" x1="407.98" y1="297" x2="407.98" y2="299.3"/><line class="f" x1="409.91" y1="289.09" x2="407.98" y2="297"/><line class="f" x1="411.84" y1="289.09" x2="409.91" y2="289.09"/><line class="f" x1="411.84" y1="299.9" x2="411.84" y2="289.09"/><line class="f" x1="413.23" y1="301.61" x2="411.84" y2="299.9"/><line class="f" x1="413.98" y1="303.76" x2="413.23" y2="301.61"/><line class="f" x1="413.98" y1="306.06" x2="413.98" y2="303.76"/><line class="f" x1="413.23" y1="308.2" x2="413.98" y2="306.06"/><line class="f" x1="411.84" y1="309.92" x2="413.23" y2="308.2"/><line class="f" x1="411.84" y1="320.72" x2="411.84" y2="289.09"/><line class="f" x1="407.98" y1="297" x2="407.98" y2="312.81"/><line class="f" x1="409.91" y1="320.72" x2="411.84" y2="320.72"/><line class="f" x1="411.06" y1="291.2" x2="411.06" y2="293.31"/><line class="f" x1="411.06" y1="293.31" x2="410.58" y2="293.31"/><line class="f" x1="410.58" y1="293.31" x2="410.58" y2="291.2"/><line class="f" x1="410.58" y1="291.2" x2="411.06" y2="291.2"/><line class="f" x1="411.06" y1="293.84" x2="411.06" y2="295.95"/><line class="f" x1="411.06" y1="295.95" x2="410.58" y2="295.95"/><line class="f" x1="410.58" y1="295.95" x2="410.58" y2="293.84"/><line class="f" x1="410.58" y1="293.84" x2="411.06" y2="293.84"/><line class="f" x1="409.91" y1="320.72" x2="409.91" y2="289.09"/><line class="f" x1="410.58" y1="296.47" x2="411.06" y2="296.47"/><line class="f" x1="411.06" y1="296.47" x2="411.06" y2="297.53"/><line class="f" x1="411.06" y1="297.53" x2="410.58" y2="297.53"/><line class="f" x1="410.58" y1="297.53" x2="410.58" y2="296.47"/><g class="g"><path class="f" d="M411.84,299.9a6.74,6.74,0,0,1,0,10"/></g><line class="f" x1="365.38" y1="425.58" x2="372.33" y2="425.58"/><line class="f" x1="376.16" y1="425.58" x2="376.94" y2="425.58"/><line class="f" x1="380.77" y1="425.58" x2="381.55" y2="425.58"/><line class="f" x1="385.38" y1="425.58" x2="392.33" y2="425.58"/><line class="f" x1="396.16" y1="425.58" x2="396.68" y2="425.58"/><line class="f" x1="396.68" y1="425.58" x2="403.64" y2="425.58"/><line class="f" x1="495.51" y1="417.96" x2="495.51" y2="412.14"/><line class="f" x1="495.51" y1="412.14" x2="497.88" y2="414.05"/><line class="f" x1="497.88" y1="414.05" x2="500.25" y2="412.14"/><line class="f" x1="500.25" y1="412.14" x2="500.25" y2="417.96"/><line class="f" x1="243.55" y1="187.7" x2="547.64" y2="187.7"/><line class="f" x1="243.55" y1="185.96" x2="547.64" y2="185.96"/><line class="f" x1="243.55" y1="184.23" x2="547.64" y2="184.23"/><line class="f" x1="238.77" y1="433.91" x2="551.81" y2="433.91"/><line class="f" x1="551.81" y1="433.91" x2="551.81" y2="239.71"/><line class="f" x1="551.81" y1="239.71" x2="547.64" y2="239.71"/><line class="f" x1="547.64" y1="239.71" x2="547.64" y2="184.22"/><line class="f" x1="547.64" y1="184.22" x2="243.55" y2="184.22"/><line class="f" x1="243.55" y1="184.22" x2="243.55" y2="239.71"/><line class="f" x1="243.55" y1="239.71" x2="238.77" y2="239.71"/><line class="f" x1="238.77" y1="239.71" x2="238.77" y2="433.91"/><path class="h" d="M382.42,381.23v7h-.71v-6.36h-1.65v-.63Z"/><path class="h" d="M384.11,387.72a.53.53,0,0,1,.53-.54.54.54,0,0,1,.54.54.55.55,0,0,1-.54.55A.54.54,0,0,1,384.11,387.72Z"/><path class="h" d="M386.12,384.72c0-2.23,1.16-3.55,2.78-3.55s2.8,1.32,2.8,3.55-1.18,3.56-2.8,3.56S386.12,387,386.12,384.72Zm4.84,0c0-1.87-.84-2.9-2.06-2.9s-2,1-2,2.9.84,2.9,2,2.9S391,386.59,391,384.72Z"/><path class="h" d="M394.66,381.23v7h-.72v-6.36H392.3v-.63Z"/><path class="h" d="M448,305.77v7h-.72v-6.36H445.6v-.64Z"/><path class="h" d="M449.65,312.27a.53.53,0,0,1,.53-.54.54.54,0,0,1,.54.54.55.55,0,0,1-.54.55A.54.54,0,0,1,449.65,312.27Z"/><path class="h" d="M451.66,309.27c0-2.23,1.16-3.55,2.78-3.55s2.8,1.32,2.8,3.55-1.18,3.56-2.8,3.56S451.66,311.5,451.66,309.27Zm4.84,0c0-1.87-.84-2.9-2.06-2.9s-2.05,1-2.05,2.9.84,2.9,2.05,2.9S456.5,311.14,456.5,309.27Z"/><path class="h" d="M463,312.13v.64h-4.9v-.51l2.9-2.85c.79-.78.94-1.25.94-1.73,0-.81-.57-1.31-1.64-1.31a2.37,2.37,0,0,0-1.9.78l-.51-.44a3.12,3.12,0,0,1,2.47-1c1.42,0,2.32.71,2.32,1.88a2.88,2.88,0,0,1-1.15,2.19l-2.38,2.34Z"/><path class="h" d="M341.32,305.77v7h-.72v-6.36H339v-.64Z"/><path class="h" d="M343,312.27a.53.53,0,0,1,.53-.54.54.54,0,0,1,.54.54.55.55,0,0,1-.54.55A.54.54,0,0,1,343,312.27Z"/><path class="h" d="M345,309.27c0-2.23,1.17-3.55,2.78-3.55s2.8,1.32,2.8,3.55-1.18,3.56-2.8,3.56S345,311.5,345,309.27Zm4.84,0c0-1.87-.84-2.9-2.06-2.9s-2.06,1-2.06,2.9.84,2.9,2.06,2.9S349.85,311.14,349.85,309.27Z"/><path class="h" d="M356.16,310.76c0,1.17-.85,2.07-2.54,2.07a3.61,3.61,0,0,1-2.51-.9l.35-.57a3,3,0,0,0,2.16.81c1.16,0,1.8-.54,1.8-1.41s-.59-1.39-1.89-1.39H353v-.53l1.94-2.43H351.4v-.64h4.49v.51l-2,2.49C355.41,308.85,356.16,309.64,356.16,310.76Z"/><path class="h" d="M297.53,381.23v7h-.72v-6.36h-1.65v-.63Z"/><path class="h" d="M299.21,387.72a.53.53,0,0,1,.53-.54.54.54,0,0,1,.54.54.55.55,0,0,1-.54.55A.54.54,0,0,1,299.21,387.72Z"/><path class="h" d="M301.22,384.72c0-2.23,1.17-3.55,2.78-3.55s2.8,1.32,2.8,3.55-1.18,3.56-2.8,3.56S301.22,387,301.22,384.72Zm4.84,0c0-1.87-.84-2.9-2.06-2.9s-2.06,1-2.06,2.9.84,2.9,2.06,2.9S306.06,386.59,306.06,384.72Z"/><path class="h" d="M313.78,386.38h-1.4v1.84h-.72v-1.84h-3.94v-.52l3.7-4.63h.8l-3.57,4.51h3v-1.62h.7v1.62h1.4Z"/><path class="h" d="M448,214.09v7h-.72v-6.35H445.6v-.64Z"/><path class="h" d="M449.65,220.58a.53.53,0,0,1,.53-.54.54.54,0,0,1,.54.54.55.55,0,0,1-.54.55A.54.54,0,0,1,449.65,220.58Z"/><path class="h" d="M451.66,217.58c0-2.23,1.16-3.55,2.78-3.55s2.8,1.32,2.8,3.55-1.18,3.56-2.8,3.56S451.66,219.81,451.66,217.58Zm4.84,0c0-1.87-.84-2.89-2.06-2.89s-2.05,1-2.05,2.89.84,2.9,2.05,2.9S456.5,219.45,456.5,217.58Z"/><path class="h" d="M463,219c0,1.19-.83,2.12-2.54,2.12a3.61,3.61,0,0,1-2.5-.9l.35-.57a3,3,0,0,0,2.14.81c1.19,0,1.82-.58,1.82-1.43s-.56-1.46-2.34-1.46h-1.48l.36-3.5h3.82v.64h-3.2l-.23,2.22h.89C462.22,217,463,217.78,463,219Z"/></svg>