<svg xmlns="http://www.w3.org/2000/svg" xmlns:xlink="http://www.w3.org/1999/xlink" viewBox="0 0 790.58 618.13"><defs><style>.a,.f{fill:none;}.b{fill:#595a5c;}.c{fill:#b6906c;}.d,.g{fill:#fff;}.e{fill:#231f20;}.f{stroke:#000;stroke-linecap:round;stroke-linejoin:round;stroke-width:0.34px;}.g,.h{fill-rule:evenodd;}.i{clip-path:url(#a);}.j{fill:#58595b;}</style><clipPath id="a"><polygon class="a" points="262.19 184.92 262.19 240.11 258.23 240.11 258.23 433.2 532.36 433.2 532.36 240.11 528.56 240.11 528.56 184.92 262.19 184.92"/></clipPath></defs><path class="b" d="M55.31,597.13H57.1V609.9H55.31Zm.92,6.11h4.09a1.89,1.89,0,0,0,1-.27,1.82,1.82,0,0,0,.68-.77,2.67,2.67,0,0,0,.24-1.16,2.7,2.7,0,0,0-.24-1.16,1.82,1.82,0,0,0-1.7-1H56.23v-1.7h4a4.09,4.09,0,0,1,2,.48A3.45,3.45,0,0,1,63.62,599a4.64,4.64,0,0,1,0,4.11,3.34,3.34,0,0,1-1.35,1.36,4,4,0,0,1-2,.49h-4Z"/><path class="b" d="M67.7,606.33a2.07,2.07,0,0,0,.49,1.48,1.76,1.76,0,0,0,1.37.52,1.89,1.89,0,0,0,1.37-.46,1.79,1.79,0,0,0,.48-1.33l.12,1.91A2.58,2.58,0,0,1,69.06,610a2.89,2.89,0,0,1-2.33-1,4.08,4.08,0,0,1-.82-2.73v-5.55H67.7Zm.22-7.86a1.93,1.93,0,0,1-.56-1.5,2.07,2.07,0,0,1,.56-1.57,2.56,2.56,0,0,1,3.18,0,2.08,2.08,0,0,1,.57,1.56,1.94,1.94,0,0,1-.57,1.5,2.65,2.65,0,0,1-3.18,0Zm2.26-.86a.94.94,0,0,0,.24-.68,1,1,0,0,0-.24-.7.91.91,0,0,0-.67-.25.92.92,0,0,0-.67.25,1,1,0,0,0-.23.7,1,1,0,0,0,.23.68.92.92,0,0,0,.67.24A.9.9,0,0,0,70.18,597.61Zm1.23,3.17h1.78v9.12H71.41Z"/><path class="b" d="M77.1,609.63A2.82,2.82,0,0,1,76,608.36a5.08,5.08,0,0,1-.36-2v-2a5.05,5.05,0,0,1,.36-2,2.71,2.71,0,0,1,1-1.27,3,3,0,0,1,1.65-.44,2.71,2.71,0,0,1,1.48.42,3.22,3.22,0,0,1,1.09,1.19l-.18,1.86a2.19,2.19,0,0,0-.22-1,1.48,1.48,0,0,0-.61-.63,2,2,0,0,0-1-.21,1.71,1.71,0,0,0-1.37.55,2.26,2.26,0,0,0-.49,1.56v2a2.19,2.19,0,0,0,.49,1.54,1.74,1.74,0,0,0,1.37.54,1.93,1.93,0,0,0,1-.23,1.45,1.45,0,0,0,.61-.64,2.25,2.25,0,0,0,.22-1l.12,1.92a2.66,2.66,0,0,1-.89,1.14,2.56,2.56,0,0,1-1.53.45A3.19,3.19,0,0,1,77.1,609.63Zm4-12.5H82.9V609.9H81.11Z"/><path class="b" d="M87.09,609.57a3.09,3.09,0,0,1-1.29-1.36,4.85,4.85,0,0,1-.44-2.15v-1.48a4.71,4.71,0,0,1,.44-2.12,3.12,3.12,0,0,1,1.29-1.35,4.71,4.71,0,0,1,4.06,0,3.12,3.12,0,0,1,1.29,1.35,4.71,4.71,0,0,1,.44,2.12v1.51a4.79,4.79,0,0,1-.44,2.13,3.12,3.12,0,0,1-1.29,1.35,4.62,4.62,0,0,1-4.06,0Zm3.49-1.83a2.43,2.43,0,0,0,.51-1.65v-1.51a2.43,2.43,0,0,0-.51-1.65,1.88,1.88,0,0,0-1.46-.58,1.85,1.85,0,0,0-1.45.58,2.38,2.38,0,0,0-.52,1.65v1.51a2.38,2.38,0,0,0,.52,1.65,1.82,1.82,0,0,0,1.45.59A1.85,1.85,0,0,0,90.58,607.74Z"/><path class="b" d="M95.43,600.78h1.79v9.12H95.43Zm4.42,1.72a2.16,2.16,0,0,0-.83-.15,1.83,1.83,0,0,0-1.33.47,1.79,1.79,0,0,0-.47,1.31L97,602.37a3.32,3.32,0,0,1,1.09-1.27,2.58,2.58,0,0,1,1.48-.45,3.39,3.39,0,0,1,1.13.18,2.62,2.62,0,0,1,.88.53l-1.17,1.58A1.56,1.56,0,0,0,99.85,602.5Z"/><path class="b" d="M102.15,600.78H104l2.81,7.93-1,1.94Zm8.07,0L106.34,612a2.6,2.6,0,0,1-.56,1,1.87,1.87,0,0,1-.84.52,4,4,0,0,1-1.23.16h-.36V612h.36a1.46,1.46,0,0,0,.8-.2,1.74,1.74,0,0,0,.51-.7l3.38-10.31Z"/><path class="b" d="M113.51,609.88a5.76,5.76,0,0,1-1.32-.48,4.89,4.89,0,0,1-1.13-.79l1.06-1.31a5.86,5.86,0,0,0,1.47.85,4.18,4.18,0,0,0,1.44.28,3.11,3.11,0,0,0,1.6-.33,1.1,1.1,0,0,0,.53-1,.79.79,0,0,0-.29-.66,1.66,1.66,0,0,0-.72-.29c-.29,0-.69-.1-1.22-.14h-.15l-.14,0h-.15a6.45,6.45,0,0,1-1.5-.26,2,2,0,0,1-1-.7,2.38,2.38,0,0,1-.41-1.49,3.07,3.07,0,0,1,.39-1.61,2.41,2.41,0,0,1,1.18-1,5.29,5.29,0,0,1,2-.32,6.38,6.38,0,0,1,2.6.52,6.16,6.16,0,0,1,1.13.66l-1.08,1.31a5.59,5.59,0,0,0-1.35-.66,4,4,0,0,0-1.3-.22,2.44,2.44,0,0,0-1.37.31,1.08,1.08,0,0,0-.46.94.64.64,0,0,0,.26.55,1.72,1.72,0,0,0,.66.25c.26,0,.64.07,1.12.1h.34a7.67,7.67,0,0,1,1.63.25,2.24,2.24,0,0,1,1.13.77,2.62,2.62,0,0,1,.45,1.65,2.92,2.92,0,0,1-.42,1.63,2.54,2.54,0,0,1-1.27,1A5.88,5.88,0,0,1,115,610,7.38,7.38,0,0,1,113.51,609.88Z"/><path class="b" d="M126,597.13h1.8V609.9H126Zm2.6,12.5a2.39,2.39,0,0,1-.93-1.16l.13-1.91a2.22,2.22,0,0,0,.21,1,1.48,1.48,0,0,0,.61.63,1.93,1.93,0,0,0,1,.22,1.74,1.74,0,0,0,1.37-.54,2.18,2.18,0,0,0,.49-1.53v-2a2.26,2.26,0,0,0-.49-1.56,1.71,1.71,0,0,0-1.37-.55,2,2,0,0,0-1,.21,1.36,1.36,0,0,0-.61.62,2.12,2.12,0,0,0-.21,1l-.19-1.76a3.37,3.37,0,0,1,1.08-1.24,2.67,2.67,0,0,1,1.49-.43,3,3,0,0,1,1.65.43,2.9,2.9,0,0,1,1.06,1.27,5.1,5.1,0,0,1,.36,2v2a4.94,4.94,0,0,1-.37,2,2.79,2.79,0,0,1-1.08,1.26,3.25,3.25,0,0,1-1.71.44A2.73,2.73,0,0,1,128.57,609.63Z"/><path class="b" d="M134.46,600.78h1.82l2.81,7.93-1,1.94Zm8.07,0L138.65,612a2.6,2.6,0,0,1-.56,1,1.87,1.87,0,0,1-.84.52,4,4,0,0,1-1.23.16h-.36V612H136a1.46,1.46,0,0,0,.8-.2,1.74,1.74,0,0,0,.51-.7l3.37-10.31Z"/><path class="b" d="M143.57,600.78h4.12v1.62h-4.12Zm1.46,8.56a2.77,2.77,0,0,1-.52-1.81v-9.4h1.8v9.42a.84.84,0,0,0,.13.51.46.46,0,0,0,.39.18h.86V610h-1A2,2,0,0,1,145,609.34Z"/><path class="b" d="M151.94,606.33a2.07,2.07,0,0,0,.49,1.48,1.76,1.76,0,0,0,1.37.52,1.91,1.91,0,0,0,1.37-.46,1.79,1.79,0,0,0,.48-1.33l.12,1.91A2.58,2.58,0,0,1,153.3,610a2.89,2.89,0,0,1-2.33-1,4.08,4.08,0,0,1-.82-2.73v-5.55h1.79Zm3.71-5.55h1.78v9.12h-1.78Z"/><rect class="c" x="612.92" y="591.68" width="35.43" height="2.83"/><path class="d" d="M648.48,594.64H612.79v-3.08h35.69ZM613,594.39h35.19v-2.58H613Z"/><rect class="c" x="612.92" y="601.6" width="70.74" height="2.83"/><path class="d" d="M683.78,604.56h-71v-3.08h71ZM613,604.31h70.49v-2.58H613Z"/><rect class="c" x="612.92" y="612.72" width="177.16" height="2.84"/><path class="d" d="M790.21,615.68H612.79V612.6H790.21ZM613,615.43H790v-2.58H613Z"/><path class="e" d="M587.26,596.28h-.8v-4.82l-.81.5v-.83l.81-.53h.8Z"/><path class="e" d="M589,595.91a1.67,1.67,0,0,1-.41-1.19v-2.58A1.65,1.65,0,0,1,589,591a2,2,0,0,1,2.42,0,1.65,1.65,0,0,1,.41,1.19v2.58a1.65,1.65,0,0,1-.41,1.19,2,2,0,0,1-2.42,0Zm1.83-.55a.89.89,0,0,0,.2-.64v-2.58a.89.89,0,0,0-.2-.64.82.82,0,0,0-.62-.22.86.86,0,0,0-.63.22.94.94,0,0,0-.2.64v2.58a.9.9,0,0,0,.21.64,1,1,0,0,0,1.24,0Z"/><path class="e" d="M593.22,595.91a1.67,1.67,0,0,1-.41-1.19v-2.58a1.65,1.65,0,0,1,.41-1.19,2,2,0,0,1,2.42,0,1.61,1.61,0,0,1,.41,1.19v2.58a1.65,1.65,0,0,1-.41,1.19,2,2,0,0,1-2.42,0Zm1.83-.55a.9.9,0,0,0,.21-.64v-2.58a.94.94,0,0,0-.2-.64.86.86,0,0,0-.63-.22.82.82,0,0,0-.62.22.89.89,0,0,0-.2.64v2.58a.89.89,0,0,0,.2.64,1,1,0,0,0,1.24,0Z"/><path class="e" d="M600.1,596.13a1.45,1.45,0,0,1-.6-.6,2.06,2.06,0,0,1-.21-1v-.67a2,2,0,0,1,.21-.94,1.37,1.37,0,0,1,.6-.59,2,2,0,0,1,.95-.21,2.21,2.21,0,0,1,.59.08,1.68,1.68,0,0,1,.51.22,1.54,1.54,0,0,1,.37.35l-.58.52a1.17,1.17,0,0,0-.4-.3,1.13,1.13,0,0,0-.48-.11.94.94,0,0,0-.71.26,1,1,0,0,0-.26.72v.67a1,1,0,0,0,.25.74.94.94,0,0,0,.72.27,1,1,0,0,0,.48-.12,1,1,0,0,0,.4-.32l.58.56a1.38,1.38,0,0,1-.38.34,1.62,1.62,0,0,1-.5.22,2.27,2.27,0,0,1-.59.07A2.12,2.12,0,0,1,600.1,596.13Z"/><path class="e" d="M603.4,592.22h.79v4.06h-.79Zm2.42,1.6a1,1,0,0,0-.21-.67.78.78,0,0,0-.6-.23.81.81,0,0,0-.6.21.73.73,0,0,0-.22.58l-.08-.78a1.46,1.46,0,0,1,.49-.57,1.22,1.22,0,0,1,.67-.2,1.33,1.33,0,0,1,.73.2,1.18,1.18,0,0,1,.46.56,2.4,2.4,0,0,1,.15.89v2.47h-.79Zm2.42,0a.93.93,0,0,0-.22-.67.85.85,0,0,0-.63-.23.72.72,0,0,0-.57.23.9.9,0,0,0-.21.64l-.16-.78a1.61,1.61,0,0,1,.51-.63,1.23,1.23,0,0,1,.69-.22,1.37,1.37,0,0,1,.75.2,1.09,1.09,0,0,1,.47.56,2.21,2.21,0,0,1,.17.89v2.47h-.8Z"/><path class="e" d="M584.33,605.5l2-2.64a1.85,1.85,0,0,0,.27-.47,1.29,1.29,0,0,0,.09-.45h0a.67.67,0,0,0-.2-.53.81.81,0,0,0-.56-.19.76.76,0,0,0-.56.21,1,1,0,0,0-.27.58h-.82a2,2,0,0,1,.29-.83,1.42,1.42,0,0,1,.56-.53,1.67,1.67,0,0,1,.79-.18,1.93,1.93,0,0,1,.87.17,1.21,1.21,0,0,1,.54.51,1.55,1.55,0,0,1,.19.8h0a1.84,1.84,0,0,1-.12.63,2.8,2.8,0,0,1-.35.63l-1.65,2.24h2.15v.76h-3.2Z"/><path class="e" d="M589,605.83a1.67,1.67,0,0,1-.41-1.19v-2.58a1.65,1.65,0,0,1,.41-1.19,2,2,0,0,1,2.42,0,1.65,1.65,0,0,1,.41,1.19v2.58a1.65,1.65,0,0,1-.41,1.19,2,2,0,0,1-2.42,0Zm1.83-.55a.89.89,0,0,0,.2-.64v-2.58a.89.89,0,0,0-.2-.64.82.82,0,0,0-.62-.22.86.86,0,0,0-.63.22.94.94,0,0,0-.19.64v2.58a.89.89,0,0,0,.2.64,1,1,0,0,0,1.24,0Z"/><path class="e" d="M593.22,605.83a1.67,1.67,0,0,1-.41-1.19v-2.58a1.61,1.61,0,0,1,.42-1.19,1.59,1.59,0,0,1,1.2-.42,1.45,1.45,0,0,1,1.62,1.61v2.58a1.61,1.61,0,0,1-.41,1.19,2,2,0,0,1-2.42,0Zm1.84-.55a.94.94,0,0,0,.2-.64v-2.58a.94.94,0,0,0-.2-.64.84.84,0,0,0-.63-.22.82.82,0,0,0-.62.22.89.89,0,0,0-.2.64v2.58a.89.89,0,0,0,.2.64.82.82,0,0,0,.62.22A.86.86,0,0,0,595.06,605.28Z"/><path class="e" d="M600.1,606.05a1.45,1.45,0,0,1-.6-.6,2.06,2.06,0,0,1-.2-1v-.67a2,2,0,0,1,.2-.94,1.37,1.37,0,0,1,.6-.59,2,2,0,0,1,.95-.21,2.35,2.35,0,0,1,.6.08,1.73,1.73,0,0,1,.5.22,1.38,1.38,0,0,1,.37.35l-.58.52a1.08,1.08,0,0,0-.4-.3,1.13,1.13,0,0,0-.48-.11,1,1,0,0,0-.71.26,1,1,0,0,0-.26.72v.67a1,1,0,0,0,.25.74.94.94,0,0,0,.72.27,1.14,1.14,0,0,0,.88-.44l.58.56a1.38,1.38,0,0,1-.38.34,1.62,1.62,0,0,1-.5.22,2.22,2.22,0,0,1-.59.07A2.12,2.12,0,0,1,600.1,606.05Z"/><path class="e" d="M603.4,602.14h.79v4.06h-.79Zm2.42,1.6a1,1,0,0,0-.21-.67.78.78,0,0,0-.6-.23.81.81,0,0,0-.6.21.73.73,0,0,0-.22.58l-.08-.78a1.46,1.46,0,0,1,.49-.57,1.22,1.22,0,0,1,.67-.2,1.3,1.3,0,0,1,.73.2,1.18,1.18,0,0,1,.46.56,2.4,2.4,0,0,1,.16.89v2.47h-.8Zm2.42,0a.93.93,0,0,0-.22-.67.85.85,0,0,0-.63-.23.73.73,0,0,0-.57.23.89.89,0,0,0-.2.64l-.16-.78a1.51,1.51,0,0,1,.5-.63,1.23,1.23,0,0,1,.69-.22,1.35,1.35,0,0,1,.75.2,1.16,1.16,0,0,1,.48.56,2.4,2.4,0,0,1,.16.89v2.47h-.8Z"/><path class="e" d="M585,615.58a1.34,1.34,0,0,1-.54-.49,2,2,0,0,1-.28-.77h.8a.75.75,0,0,0,.25.49.85.85,0,0,0,.54.17.72.72,0,0,0,.59-.25,1.1,1.1,0,0,0,.21-.72v-.48a1.1,1.1,0,0,0-.21-.72.72.72,0,0,0-.59-.25.83.83,0,0,0-.4.11,1.18,1.18,0,0,0-.34.33h-.72v-3h2.89v.76h-2.1V612a1,1,0,0,1,.34-.18.94.94,0,0,1,.37-.07,1.68,1.68,0,0,1,.84.2,1.29,1.29,0,0,1,.53.6,2.07,2.07,0,0,1,.19.94V614a2.25,2.25,0,0,1-.19.94,1.31,1.31,0,0,1-.55.59,1.69,1.69,0,0,1-.86.21A1.74,1.74,0,0,1,585,615.58Z"/><path class="e" d="M589,615.32a1.65,1.65,0,0,1-.41-1.19v-2.58a1.67,1.67,0,0,1,.41-1.19,2,2,0,0,1,2.42,0,1.65,1.65,0,0,1,.41,1.19v2.58a1.64,1.64,0,0,1-.41,1.19,1.92,1.92,0,0,1-2.42,0Zm1.83-.55a.89.89,0,0,0,.2-.64v-2.58a.88.88,0,0,0-.2-.63.78.78,0,0,0-.62-.22.82.82,0,0,0-.63.22.93.93,0,0,0-.2.63v2.58a.9.9,0,0,0,.21.64,1,1,0,0,0,1.24,0Z"/><path class="e" d="M593.22,615.32a1.65,1.65,0,0,1-.41-1.19v-2.58a1.67,1.67,0,0,1,.41-1.19,2,2,0,0,1,2.42,0,1.61,1.61,0,0,1,.41,1.19v2.58a1.64,1.64,0,0,1-.41,1.19,1.92,1.92,0,0,1-2.42,0Zm1.83-.55a.9.9,0,0,0,.21-.64v-2.58a.93.93,0,0,0-.2-.63.82.82,0,0,0-.63-.22.78.78,0,0,0-.62.22.88.88,0,0,0-.2.63v2.58a.89.89,0,0,0,.2.64,1,1,0,0,0,1.24,0Z"/><path class="e" d="M600.1,615.54a1.45,1.45,0,0,1-.6-.6,2,2,0,0,1-.21-1v-.67a2,2,0,0,1,.21-.94,1.45,1.45,0,0,1,.6-.6,2,2,0,0,1,.95-.2,2.22,2.22,0,0,1,.59.07,2,2,0,0,1,.51.22,1.76,1.76,0,0,1,.37.35l-.58.52a1.17,1.17,0,0,0-.4-.3,1.13,1.13,0,0,0-.48-.11.94.94,0,0,0-.71.26,1,1,0,0,0-.26.73V614a1.07,1.07,0,0,0,.25.74,1,1,0,0,0,.72.26,1.13,1.13,0,0,0,.48-.11,1.26,1.26,0,0,0,.4-.32l.58.55a1.42,1.42,0,0,1-.38.35,1.88,1.88,0,0,1-.5.21,2.27,2.27,0,0,1-.59.08A2,2,0,0,1,600.1,615.54Z"/><path class="e" d="M603.4,611.63h.79v4.06h-.79Zm2.42,1.6a1,1,0,0,0-.21-.66.75.75,0,0,0-.6-.24.81.81,0,0,0-.6.21.75.75,0,0,0-.22.58l-.08-.78a1.5,1.5,0,0,1,.49-.56,1.15,1.15,0,0,1,.67-.2,1.32,1.32,0,0,1,.73.19,1.28,1.28,0,0,1,.46.56,2.42,2.42,0,0,1,.15.9v2.46h-.79Zm2.42,0a.91.91,0,0,0-.22-.66.82.82,0,0,0-.63-.24.72.72,0,0,0-.57.23.9.9,0,0,0-.21.64l-.16-.78a1.51,1.51,0,0,1,.51-.62,1.16,1.16,0,0,1,.69-.22,1.37,1.37,0,0,1,.75.19,1.18,1.18,0,0,1,.47.56,2.22,2.22,0,0,1,.17.9v2.46h-.8Z"/><path class="c" d="M23.49,613.89A12.92,12.92,0,1,1,36.4,601,12.93,12.93,0,0,1,23.49,613.89Zm0-24.83A11.92,11.92,0,1,0,35.4,601,11.93,11.93,0,0,0,23.49,589.06Z"/><polygon class="d" points="35.77 588.74 9.42 600.98 35.77 613.21 32.02 600.98 35.77 588.74"/><path class="c" d="M36.58,614.14,8.23,601l28.35-13.17-4,13.17ZM10.61,601,35,612.29,31.5,601,35,589.66Z"/><path class="c" d="M2.52,605.19a5,5,0,0,1-1.11-.38,4.4,4.4,0,0,1-1-.64l.81-1a3.72,3.72,0,0,0,1.16.69,4.08,4.08,0,0,0,1.38.23,2.73,2.73,0,0,0,1.55-.38,1.17,1.17,0,0,0,.55-1.05h0a1.12,1.12,0,0,0-.25-.77,1.44,1.44,0,0,0-.64-.42,8.23,8.23,0,0,0-1-.25H3.89l-.1,0a9.48,9.48,0,0,1-1.5-.36,2.08,2.08,0,0,1-1-.73,2.42,2.42,0,0,1-.41-1.51h0a2.77,2.77,0,0,1,.38-1.47,2.44,2.44,0,0,1,1.12-.92,4.48,4.48,0,0,1,1.77-.32,4.6,4.6,0,0,1,1,.11,4.9,4.9,0,0,1,1.86.86l-.73,1a4.61,4.61,0,0,0-1-.58,3,3,0,0,0-1.06-.2,2.44,2.44,0,0,0-1.46.38,1.24,1.24,0,0,0-.53,1.07h0a1,1,0,0,0,.27.75,1.74,1.74,0,0,0,.67.4,9.3,9.3,0,0,0,1.12.27h.24a7.93,7.93,0,0,1,1.4.41,2.22,2.22,0,0,1,.94.76,2.4,2.4,0,0,1,.38,1.43h0a2.62,2.62,0,0,1-.4,1.45,2.54,2.54,0,0,1-1.16.91,4.8,4.8,0,0,1-1.83.31A6.44,6.44,0,0,1,2.52,605.19Z"/><rect class="c" x="612.5" y="600.68" width="1" height="4.68"/><rect class="c" x="612.5" y="590.76" width="1" height="4.68"/><rect class="c" x="612.5" y="611.45" width="1" height="5.24"/><rect class="c" x="789.58" y="611.45" width="1" height="5.24"/><rect class="c" x="682.59" y="600.68" width="1" height="4.68"/><rect class="c" x="647.3" y="590.76" width="1" height="4.68"/><rect class="a" width="790.34" height="618.13"/><line class="f" x1="258.23" y1="240.11" x2="260.81" y2="240.11"/><line class="f" x1="527.18" y1="188.38" x2="263.57" y2="188.38"/><line class="f" x1="527.18" y1="240.11" x2="527.18" y2="188.38"/><line class="f" x1="470.81" y1="240.11" x2="527.18" y2="240.11"/><line class="f" x1="470.81" y1="243.55" x2="470.81" y2="240.11"/><line class="f" x1="439.77" y1="243.55" x2="470.81" y2="243.55"/><line class="f" x1="439.77" y1="240.11" x2="439.77" y2="243.55"/><line class="f" x1="371.67" y1="240.11" x2="439.77" y2="240.11"/><line class="f" x1="371.67" y1="243.55" x2="371.67" y2="240.11"/><line class="f" x1="340.64" y1="243.55" x2="371.67" y2="243.55"/><line class="f" x1="340.64" y1="240.11" x2="340.64" y2="243.55"/><line class="f" x1="263.57" y1="240.11" x2="340.64" y2="240.11"/><line class="f" x1="263.57" y1="188.38" x2="263.57" y2="240.11"/><line class="f" x1="529.94" y1="240.11" x2="532.36" y2="240.11"/><rect class="d" x="492.19" y="372.34" width="31.03" height="31.03"/><line class="f" x1="492.19" y1="372.34" x2="492.19" y2="403.38"/><line class="f" x1="523.22" y1="372.34" x2="492.19" y2="372.34"/><line class="f" x1="523.22" y1="403.38" x2="523.22" y2="372.34"/><line class="f" x1="492.19" y1="403.38" x2="523.22" y2="403.38"/><rect class="d" x="373.05" y="407.34" width="21.72" height="17.59"/><line class="f" x1="373.05" y1="407.34" x2="373.05" y2="424.93"/><line class="f" x1="394.77" y1="407.34" x2="373.05" y2="407.34"/><line class="f" x1="394.77" y1="424.93" x2="394.77" y2="407.34"/><line class="f" x1="373.05" y1="424.93" x2="394.77" y2="424.93"/><polygon class="g" points="266.5 424.93 266.5 404.24 266.5 342.17 287.54 342.17 287.54 403.89 340.98 403.89 340.98 424.93 266.5 424.93"/><line class="f" x1="266.5" y1="404.24" x2="266.5" y2="424.93"/><line class="f" x1="266.5" y1="342.17" x2="266.5" y2="404.24"/><line class="f" x1="287.54" y1="342.17" x2="266.5" y2="342.17"/><line class="f" x1="287.54" y1="403.89" x2="287.54" y2="342.17"/><line class="f" x1="340.98" y1="403.89" x2="287.54" y2="403.89"/><line class="f" x1="340.98" y1="424.93" x2="340.98" y2="403.89"/><line class="f" x1="266.5" y1="424.93" x2="340.98" y2="424.93"/><line class="f" x1="258.23" y1="403.89" x2="258.23" y2="403.89"/><line class="f" x1="258.23" y1="424.93" x2="258.23" y2="403.89"/><line class="f" x1="258.23" y1="424.93" x2="258.23" y2="424.93"/><line class="f" x1="258.23" y1="403.89" x2="258.23" y2="403.89"/><line class="f" x1="258.23" y1="352.17" x2="258.23" y2="352.17"/><line class="f" x1="258.23" y1="352.17" x2="258.23" y2="403.89"/><polygon class="h" points="258.23 240.1 262.19 240.1 285.47 240.1 285.47 247 258.23 247 258.23 240.1"/><rect x="371.67" y="240.11" width="68.1" height="6.9"/><polygon class="h" points="532.36 247 505.29 247 505.29 240.11 528.56 240.11 532.36 240.11 532.36 247"/><rect x="258.23" y="247" width="25.52" height="6.9"/><rect x="507.01" y="247" width="25.34" height="6.9"/><rect x="373.4" y="247" width="64.65" height="6.9"/><rect x="432.7" y="400.79" width="2.41" height="24.14"/><polygon class="h" points="524.08 369.07 524.08 371.48 435.12 371.48 435.12 373.2 432.7 373.2 432.7 371.48 429.26 371.48 429.26 369.07 524.08 369.07"/><polygon class="h" points="398.22 369.07 398.22 371.48 373.05 371.48 373.05 373.2 370.64 373.2 370.64 369.07 394.08 369.07 394.08 253.9 396.5 253.9 396.5 369.07 398.22 369.07"/><polygon class="h" points="258.23 433.2 258.23 424.93 258.23 253.9 266.5 253.9 266.5 424.93 394.77 424.93 394.77 433.2 258.23 433.2"/><rect x="370.64" y="404.24" width="2.41" height="20.69"/><polygon class="h" points="532.36 433.2 432.7 433.2 432.7 424.93 524.08 424.93 524.08 253.9 532.36 253.9 532.36 424.93 532.36 433.2"/><rect x="394.77" y="429.24" width="1.72" height="3.97"/><polygon class="h" points="493.05 424.82 493.05 404.24 524.08 404.24 524.08 407.69 496.5 407.69 496.5 424.82 493.05 424.82"/><polygon class="h" points="370.64 411.13 344.77 411.13 344.77 424.93 341.33 424.93 341.33 407.69 370.64 407.69 370.64 411.13"/><rect x="430.98" y="429.24" width="1.72" height="3.97"/><rect x="526.84" y="188.38" width="1.73" height="51.72"/><rect x="262.19" y="188.38" width="1.38" height="51.72"/><line class="f" x1="258.23" y1="240.11" x2="262.19" y2="240.11"/><line class="f" x1="262.19" y1="240.11" x2="285.47" y2="240.11"/><line class="f" x1="371.67" y1="240.11" x2="439.77" y2="240.11"/><line class="f" x1="266.5" y1="253.9" x2="283.74" y2="253.9"/><line class="f" x1="373.4" y1="253.9" x2="394.08" y2="253.9"/><line class="f" x1="396.5" y1="253.9" x2="438.05" y2="253.9"/><line class="f" x1="528.56" y1="240.11" x2="505.29" y2="240.11"/><line class="f" x1="532.36" y1="240.11" x2="528.56" y2="240.11"/><line class="f" x1="532.36" y1="253.9" x2="532.36" y2="253.9"/><line class="f" x1="283.74" y1="253.9" x2="283.74" y2="247"/><line class="f" x1="283.74" y1="253.9" x2="283.74" y2="247"/><line class="f" x1="373.4" y1="253.9" x2="373.4" y2="247"/><line class="f" x1="438.05" y1="253.9" x2="438.05" y2="247"/><line class="f" x1="507.01" y1="247" x2="507.01" y2="253.9"/><line class="f" x1="524.08" y1="253.9" x2="507.01" y2="253.9"/><line class="f" x1="263.57" y1="188.38" x2="263.57" y2="240.11"/><line class="f" x1="262.19" y1="188.38" x2="263.57" y2="188.38"/><line class="f" x1="526.84" y1="188.38" x2="526.84" y2="240.11"/><line class="f" x1="526.84" y1="188.38" x2="528.56" y2="188.38"/><line class="f" x1="285.47" y1="247" x2="285.47" y2="240.11"/><line class="f" x1="283.74" y1="247" x2="285.47" y2="247"/><line class="f" x1="439.77" y1="247" x2="439.77" y2="240.11"/><line class="f" x1="438.05" y1="247" x2="439.77" y2="247"/><line class="f" x1="371.67" y1="247" x2="371.67" y2="240.11"/><line class="f" x1="373.4" y1="247" x2="371.67" y2="247"/><line class="f" x1="505.29" y1="247" x2="505.29" y2="240.11"/><line class="f" x1="507.01" y1="247" x2="505.29" y2="247"/><line class="f" x1="262.19" y1="188.38" x2="528.57" y2="188.38"/><line class="f" x1="262.19" y1="188.38" x2="528.57" y2="188.38"/><line class="f" x1="283.74" y1="253.9" x2="338.91" y2="253.9"/><line class="f" x1="338.91" y1="253.9" x2="373.4" y2="253.9"/><line class="f" x1="507.01" y1="253.9" x2="472.53" y2="253.9"/><line class="f" x1="472.53" y1="253.9" x2="438.05" y2="253.9"/><line class="f" x1="507.01" y1="253.9" x2="472.53" y2="253.9"/><line class="f" x1="472.53" y1="253.9" x2="472.53" y2="247"/><line class="f" x1="470.81" y1="247" x2="470.81" y2="240.11"/><line class="f" x1="505.29" y1="240.11" x2="470.81" y2="240.11"/><line class="f" x1="472.53" y1="253.9" x2="438.05" y2="253.9"/><line class="f" x1="470.81" y1="243.55" x2="439.77" y2="243.55"/><line class="f" x1="472.53" y1="249.76" x2="472.53" y2="247"/><line class="f" x1="469.77" y1="247.69" x2="469.77" y2="247"/><line class="f" x1="469.77" y1="247" x2="472.53" y2="247"/><line class="f" x1="472.53" y1="247" x2="472.53" y2="249.76"/><line class="f" x1="472.53" y1="249.76" x2="471.15" y2="249.76"/><line class="f" x1="471.15" y1="250.45" x2="468.39" y2="250.45"/><line class="f" x1="468.39" y1="250.45" x2="468.39" y2="247.69"/><line class="f" x1="468.39" y1="247.69" x2="471.15" y2="247.69"/><line class="f" x1="471.15" y1="247.69" x2="471.15" y2="250.45"/><line class="f" x1="440.81" y1="247.69" x2="440.81" y2="247"/><line class="f" x1="440.81" y1="247" x2="438.05" y2="247"/><line class="f" x1="438.05" y1="247" x2="438.05" y2="249.76"/><line class="f" x1="438.05" y1="249.76" x2="439.43" y2="249.76"/><line class="f" x1="439.43" y1="250.45" x2="442.19" y2="250.45"/><line class="f" x1="442.19" y1="250.45" x2="442.19" y2="247.69"/><line class="f" x1="442.19" y1="247.69" x2="439.43" y2="247.69"/><line class="f" x1="439.43" y1="247.69" x2="439.43" y2="250.45"/><line class="f" x1="468.39" y1="250.45" x2="442.19" y2="250.45"/><line class="f" x1="442.19" y1="247.69" x2="468.39" y2="247.69"/><line class="f" x1="468.39" y1="249.07" x2="442.19" y2="249.07"/><line class="f" x1="475.29" y1="247.69" x2="475.29" y2="247"/><line class="f" x1="475.29" y1="247" x2="472.53" y2="247"/><line class="f" x1="472.53" y1="247" x2="472.53" y2="249.76"/><line class="f" x1="472.53" y1="249.76" x2="473.91" y2="249.76"/><line class="f" x1="473.91" y1="250.45" x2="476.67" y2="250.45"/><line class="f" x1="476.67" y1="250.45" x2="476.67" y2="247.69"/><line class="f" x1="476.67" y1="247.69" x2="473.91" y2="247.69"/><line class="f" x1="473.91" y1="247.69" x2="473.91" y2="250.45"/><line class="f" x1="504.25" y1="247.69" x2="504.25" y2="247"/><line class="f" x1="504.25" y1="247" x2="507.01" y2="247"/><line class="f" x1="507.01" y1="247" x2="507.01" y2="249.76"/><line class="f" x1="507.01" y1="249.76" x2="505.63" y2="249.76"/><line class="f" x1="505.63" y1="250.45" x2="502.87" y2="250.45"/><line class="f" x1="502.87" y1="250.45" x2="502.87" y2="247.69"/><line class="f" x1="502.87" y1="247.69" x2="505.63" y2="247.69"/><line class="f" x1="505.63" y1="247.69" x2="505.63" y2="250.45"/><line class="f" x1="476.67" y1="250.45" x2="502.87" y2="250.45"/><line class="f" x1="502.87" y1="247.69" x2="476.67" y2="247.69"/><line class="f" x1="476.67" y1="249.07" x2="502.87" y2="249.07"/><line class="f" x1="283.74" y1="253.9" x2="338.91" y2="253.9"/><line class="f" x1="338.91" y1="253.9" x2="373.4" y2="253.9"/><line class="f" x1="285.47" y1="240.11" x2="340.64" y2="240.11"/><line class="f" x1="338.91" y1="253.9" x2="338.91" y2="247"/><line class="f" x1="340.64" y1="247" x2="340.64" y2="240.11"/><line class="f" x1="340.64" y1="243.55" x2="371.67" y2="243.55"/><line class="f" x1="341.67" y1="247.69" x2="341.67" y2="247"/><line class="f" x1="341.67" y1="247" x2="338.91" y2="247"/><line class="f" x1="338.91" y1="247" x2="338.91" y2="249.76"/><line class="f" x1="338.91" y1="249.76" x2="340.29" y2="249.76"/><line class="f" x1="340.29" y1="250.45" x2="343.05" y2="250.45"/><line class="f" x1="343.05" y1="250.45" x2="343.05" y2="247.69"/><line class="f" x1="343.05" y1="247.69" x2="340.29" y2="247.69"/><line class="f" x1="340.29" y1="247.69" x2="340.29" y2="250.45"/><line class="f" x1="372.02" y1="250.45" x2="369.26" y2="250.45"/><line class="f" x1="369.26" y1="250.45" x2="369.26" y2="247.69"/><line class="f" x1="369.26" y1="247.69" x2="372.02" y2="247.69"/><line class="f" x1="372.02" y1="247.69" x2="372.02" y2="250.45"/><line class="f" x1="343.05" y1="250.45" x2="369.26" y2="250.45"/><line class="f" x1="369.26" y1="247.69" x2="343.05" y2="247.69"/><line class="f" x1="343.05" y1="249.07" x2="369.26" y2="249.07"/><line class="f" x1="370.64" y1="247.69" x2="370.64" y2="247"/><line class="f" x1="370.64" y1="247" x2="373.4" y2="247"/><line class="f" x1="373.4" y1="247" x2="373.4" y2="249.76"/><line class="f" x1="373.4" y1="249.76" x2="372.02" y2="249.76"/><line class="f" x1="338.91" y1="249.76" x2="336.15" y2="249.76"/><line class="f" x1="336.15" y1="249.76" x2="336.15" y2="247"/><line class="f" x1="336.15" y1="247" x2="338.91" y2="247"/><line class="f" x1="338.91" y1="247" x2="338.91" y2="249.76"/><line class="f" x1="336.15" y1="249.76" x2="312.71" y2="249.76"/><line class="f" x1="336.15" y1="248.38" x2="312.71" y2="248.38"/><line class="f" x1="336.15" y1="247" x2="312.71" y2="247"/><line class="f" x1="286.5" y1="247.69" x2="286.5" y2="247"/><line class="f" x1="286.5" y1="247" x2="283.74" y2="247"/><line class="f" x1="283.74" y1="247" x2="283.74" y2="249.76"/><line class="f" x1="283.74" y1="249.76" x2="285.12" y2="249.76"/><line class="f" x1="285.12" y1="250.45" x2="287.88" y2="250.45"/><line class="f" x1="287.88" y1="250.45" x2="287.88" y2="247.69"/><line class="f" x1="287.88" y1="247.69" x2="285.12" y2="247.69"/><line class="f" x1="285.12" y1="247.69" x2="285.12" y2="250.45"/><line class="f" x1="287.88" y1="250.45" x2="308.57" y2="250.45"/><line class="f" x1="308.57" y1="247.69" x2="287.88" y2="247.69"/><line class="f" x1="287.88" y1="249.07" x2="308.57" y2="249.07"/><line class="f" x1="309.95" y1="247.69" x2="309.95" y2="247"/><line class="f" x1="309.95" y1="247" x2="312.71" y2="247"/><line class="f" x1="312.71" y1="247" x2="312.71" y2="249.76"/><line class="f" x1="312.71" y1="249.76" x2="311.33" y2="249.76"/><line class="f" x1="311.33" y1="250.45" x2="308.57" y2="250.45"/><line class="f" x1="308.57" y1="250.45" x2="308.57" y2="247.69"/><line class="f" x1="308.57" y1="247.69" x2="311.33" y2="247.69"/><line class="f" x1="311.33" y1="247.69" x2="311.33" y2="250.45"/><line class="f" x1="432.7" y1="433.2" x2="532.36" y2="433.2"/><line class="f" x1="266.5" y1="424.93" x2="341.33" y2="424.93"/><line class="f" x1="344.78" y1="424.93" x2="370.64" y2="424.93"/><line class="f" x1="373.05" y1="424.93" x2="394.77" y2="424.93"/><line class="f" x1="435.12" y1="424.93" x2="493.05" y2="424.93"/><line class="f" x1="496.5" y1="424.93" x2="524.08" y2="424.93"/><line class="f" x1="266.5" y1="253.9" x2="266.5" y2="424.93"/><line class="f" x1="524.08" y1="253.9" x2="524.08" y2="369.07"/><line class="f" x1="524.08" y1="371.48" x2="524.08" y2="404.24"/><line class="f" x1="524.08" y1="407.69" x2="524.08" y2="424.93"/><line class="f" x1="258.23" y1="253.9" x2="258.23" y2="424.93"/><line class="f" x1="396.5" y1="253.9" x2="396.5" y2="369.07"/><line class="f" x1="394.08" y1="253.9" x2="394.08" y2="369.07"/><line class="f" x1="524.08" y1="371.48" x2="435.12" y2="371.48"/><line class="f" x1="524.08" y1="369.07" x2="429.26" y2="369.07"/><line class="f" x1="435.12" y1="371.48" x2="435.12" y2="373.21"/><line class="f" x1="435.12" y1="400.79" x2="435.12" y2="424.93"/><line class="f" x1="373.05" y1="404.24" x2="373.05" y2="424.93"/><line class="f" x1="370.64" y1="369.07" x2="370.64" y2="373.2"/><line class="f" x1="370.64" y1="411.13" x2="370.64" y2="424.93"/><line class="f" x1="341.33" y1="407.69" x2="341.33" y2="424.93"/><line class="f" x1="344.78" y1="411.13" x2="344.78" y2="424.93"/><line class="f" x1="432.7" y1="400.79" x2="435.12" y2="400.79"/><line class="f" x1="432.7" y1="373.2" x2="435.12" y2="373.2"/><line class="f" x1="432.7" y1="371.48" x2="429.26" y2="371.48"/><line class="f" x1="429.26" y1="371.48" x2="429.26" y2="369.07"/><line class="f" x1="398.22" y1="371.48" x2="398.22" y2="369.07"/><line class="f" x1="398.22" y1="369.07" x2="396.5" y2="369.07"/><line class="f" x1="396.5" y1="429.24" x2="396.5" y2="433.2"/><line class="f" x1="396.5" y1="429.24" x2="394.77" y2="429.24"/><line class="f" x1="394.77" y1="429.24" x2="394.77" y2="424.93"/><line class="f" x1="398.22" y1="371.48" x2="373.05" y2="371.48"/><line class="f" x1="394.08" y1="369.07" x2="370.64" y2="369.07"/><line class="f" x1="373.05" y1="373.2" x2="370.64" y2="373.2"/><line class="f" x1="370.64" y1="404.24" x2="373.05" y2="404.24"/><line class="f" x1="373.05" y1="373.2" x2="373.05" y2="371.48"/><line class="f" x1="341.33" y1="407.69" x2="370.64" y2="407.69"/><line class="f" x1="344.78" y1="411.13" x2="370.64" y2="411.13"/><line class="f" x1="370.64" y1="407.69" x2="370.64" y2="404.24"/><line class="f" x1="258.23" y1="424.93" x2="258.23" y2="424.93"/><line class="f" x1="258.23" y1="433.2" x2="394.77" y2="433.2"/><line class="f" x1="396.5" y1="433.2" x2="394.77" y2="433.2"/><line class="f" x1="493.05" y1="424.93" x2="496.49" y2="424.93"/><line class="f" x1="439.43" y1="250.45" x2="439.43" y2="282.17"/><g class="i"><path class="f" d="M471.15,250.45a31.72,31.72,0,0,1-31.72,31.72"/></g><line class="f" x1="372.02" y1="250.45" x2="372.02" y2="282.17"/><g class="i"><path class="f" d="M372,282.17a31.73,31.73,0,0,1-31.73-31.72"/></g><line class="f" x1="429.26" y1="429.24" x2="398.22" y2="429.24"/><line class="f" x1="429.26" y1="433.2" x2="398.22" y2="433.2"/><line class="f" x1="429.26" y1="429.24" x2="429.26" y2="398.2"/><g class="i"><path class="f" d="M398.22,429.24a31,31,0,0,1,31-31"/></g><line class="f" x1="429.26" y1="433.2" x2="429.26" y2="429.24"/><line class="f" x1="398.22" y1="429.24" x2="398.22" y2="433.2"/><line class="f" x1="398.22" y1="429.24" x2="396.5" y2="429.24"/><line class="f" x1="398.22" y1="433.2" x2="396.5" y2="433.2"/><line class="f" x1="430.98" y1="429.24" x2="429.26" y2="429.24"/><line class="f" x1="430.98" y1="433.2" x2="429.26" y2="433.2"/><line class="f" x1="370.64" y1="402.51" x2="370.64" y2="374.93"/><line class="f" x1="370.64" y1="402.51" x2="343.05" y2="402.51"/><g class="i"><path class="f" d="M343.05,402.51a27.58,27.58,0,0,1,27.59-27.58"/></g><line class="f" x1="373.05" y1="402.51" x2="370.64" y2="402.51"/><line class="f" x1="370.64" y1="374.93" x2="373.05" y2="374.93"/><line class="f" x1="370.64" y1="374.93" x2="370.64" y2="373.2"/><line class="f" x1="373.05" y1="374.93" x2="373.05" y2="373.2"/><line class="f" x1="370.64" y1="404.24" x2="370.64" y2="402.51"/><line class="f" x1="373.05" y1="404.24" x2="373.05" y2="402.51"/><line class="f" x1="373.05" y1="402.51" x2="373.05" y2="395.62"/><line class="f" x1="373.05" y1="391.82" x2="373.05" y2="391.05"/><line class="f" x1="373.05" y1="387.26" x2="373.05" y2="386.48"/><line class="f" x1="373.05" y1="382.69" x2="373.05" y2="381.83"/><line class="f" x1="373.05" y1="381.83" x2="373.05" y2="374.93"/><line class="f" x1="370.64" y1="402.51" x2="369.78" y2="402.51"/><line class="f" x1="369.77" y1="402.51" x2="369.77" y2="405.96"/><line class="f" x1="369.77" y1="405.96" x2="370.64" y2="405.96"/><line class="f" x1="373.05" y1="402.51" x2="373.91" y2="402.51"/><line class="f" x1="373.91" y1="402.51" x2="373.91" y2="405.96"/><line class="f" x1="373.91" y1="405.96" x2="373.05" y2="405.96"/><line class="f" x1="369.77" y1="374.93" x2="369.77" y2="371.48"/><line class="f" x1="369.77" y1="371.48" x2="370.64" y2="371.48"/><line class="f" x1="373.05" y1="374.93" x2="373.91" y2="374.93"/><line class="f" x1="373.91" y1="374.93" x2="373.91" y2="371.48"/><line class="f" x1="373.91" y1="371.48" x2="373.05" y2="371.48"/><line class="f" x1="399.95" y1="369.07" x2="427.53" y2="369.07"/><line class="f" x1="399.95" y1="369.07" x2="399.95" y2="341.48"/><g class="i"><path class="f" d="M400,341.48a27.58,27.58,0,0,1,27.58,27.59"/></g><line class="f" x1="399.95" y1="371.48" x2="399.95" y2="369.07"/><line class="f" x1="427.53" y1="369.07" x2="427.53" y2="371.48"/><line class="f" x1="427.53" y1="369.07" x2="429.26" y2="369.07"/><line class="f" x1="427.53" y1="371.48" x2="429.26" y2="371.48"/><line class="f" x1="398.22" y1="369.07" x2="399.95" y2="369.07"/><line class="f" x1="398.22" y1="371.48" x2="399.95" y2="371.48"/><line class="f" x1="399.95" y1="371.48" x2="406.84" y2="371.48"/><line class="f" x1="410.64" y1="371.48" x2="411.41" y2="371.48"/><line class="f" x1="415.2" y1="371.48" x2="415.98" y2="371.48"/><line class="f" x1="419.77" y1="371.48" x2="420.63" y2="371.48"/><line class="f" x1="420.64" y1="371.48" x2="427.53" y2="371.48"/><line class="f" x1="399.95" y1="369.07" x2="399.95" y2="368.21"/><line class="f" x1="399.95" y1="368.2" x2="396.5" y2="368.2"/><line class="f" x1="396.5" y1="368.2" x2="396.5" y2="369.07"/><line class="f" x1="399.95" y1="371.48" x2="399.95" y2="372.34"/><line class="f" x1="399.95" y1="372.34" x2="396.5" y2="372.34"/><line class="f" x1="396.5" y1="372.34" x2="396.5" y2="371.48"/><line class="f" x1="427.53" y1="368.2" x2="430.98" y2="368.2"/><line class="f" x1="430.98" y1="368.2" x2="430.98" y2="369.07"/><line class="f" x1="427.53" y1="371.48" x2="427.53" y2="372.34"/><line class="f" x1="427.53" y1="372.34" x2="430.98" y2="372.34"/><line class="f" x1="430.98" y1="372.34" x2="430.98" y2="371.48"/><line class="f" x1="432.7" y1="399.07" x2="432.7" y2="374.93"/><line class="f" x1="432.7" y1="399.07" x2="408.57" y2="399.07"/><g class="i"><path class="f" d="M408.57,399.07a24.13,24.13,0,0,1,24.13-24.14"/></g><line class="f" x1="435.12" y1="399.07" x2="432.71" y2="399.07"/><line class="f" x1="432.7" y1="374.93" x2="435.12" y2="374.93"/><line class="f" x1="432.7" y1="374.93" x2="432.7" y2="373.2"/><line class="f" x1="435.12" y1="374.93" x2="435.12" y2="373.2"/><line class="f" x1="432.7" y1="400.79" x2="432.7" y2="399.07"/><line class="f" x1="435.12" y1="400.79" x2="435.12" y2="399.07"/><line class="f" x1="435.12" y1="399.07" x2="435.12" y2="392.17"/><line class="f" x1="435.12" y1="388.38" x2="435.12" y2="387.6"/><line class="f" x1="435.12" y1="383.81" x2="435.12" y2="383.03"/><line class="f" x1="435.12" y1="381.83" x2="435.12" y2="374.93"/><line class="f" x1="432.7" y1="399.07" x2="431.84" y2="399.07"/><line class="f" x1="431.84" y1="399.07" x2="431.84" y2="402.52"/><line class="f" x1="431.84" y1="402.51" x2="432.7" y2="402.51"/><line class="f" x1="435.12" y1="399.07" x2="435.98" y2="399.07"/><line class="f" x1="435.98" y1="399.07" x2="435.98" y2="402.52"/><line class="f" x1="435.98" y1="402.51" x2="435.12" y2="402.51"/><line class="f" x1="431.84" y1="374.93" x2="431.84" y2="371.48"/><line class="f" x1="431.84" y1="371.48" x2="432.7" y2="371.48"/><line class="f" x1="435.12" y1="374.93" x2="435.98" y2="374.93"/><line class="f" x1="435.98" y1="374.93" x2="435.98" y2="371.48"/><line class="f" x1="435.98" y1="371.48" x2="435.12" y2="371.48"/><line class="f" x1="258.23" y1="383.2" x2="258.23" y2="383.2"/><line class="f" x1="258.23" y1="383.2" x2="258.23" y2="403.89"/><line class="f" x1="258.23" y1="403.89" x2="258.23" y2="403.89"/><line class="f" x1="258.23" y1="352.17" x2="258.23" y2="352.17"/><line class="f" x1="258.23" y1="352.17" x2="258.23" y2="424.93"/><line class="f" x1="258.23" y1="424.93" x2="258.23" y2="424.93"/><line class="f" x1="340.98" y1="424.58" x2="340.98" y2="403.89"/><line class="f" x1="333.08" y1="411.8" x2="328.2" y2="416.68"/><line class="f" x1="328.2" y1="411.8" x2="333.08" y2="416.68"/><line class="f" x1="330.64" y1="417.69" x2="330.64" y2="410.79"/><line class="f" x1="334.09" y1="414.24" x2="327.19" y2="414.24"/><line class="f" x1="320.29" y1="403.89" x2="320.29" y2="424.58"/><line class="f" x1="340.98" y1="403.89" x2="320.29" y2="403.89"/><line class="f" x1="266.5" y1="393.55" x2="266.5" y2="372.86"/><line class="f" x1="266.5" y1="372.86" x2="287.54" y2="372.86"/><line class="f" x1="287.54" y1="372.86" x2="287.54" y2="393.55"/><line class="f" x1="287.54" y1="393.55" x2="266.5" y2="393.55"/><g class="i"><path class="f" d="M283.23,383.2a6,6,0,1,0-6,6,6,6,0,0,0,6-6"/><path class="f" d="M282.19,383.2a5,5,0,1,0-5,5,5,5,0,0,0,5-5"/><path class="f" d="M518.91,398.2a.86.86,0,1,0-.86.87.87.87,0,0,0,.86-.87"/></g><line class="f" x1="492.19" y1="403.38" x2="492.19" y2="372.34"/><line class="f" x1="492.19" y1="372.34" x2="523.22" y2="372.34"/><line class="f" x1="523.22" y1="372.34" x2="523.22" y2="403.38"/><line class="f" x1="523.22" y1="403.38" x2="492.19" y2="403.38"/><line class="f" x1="493.91" y1="398.2" x2="493.91" y2="377.51"/><line class="f" x1="497.36" y1="374.07" x2="518.05" y2="374.07"/><line class="f" x1="521.5" y1="377.51" x2="521.5" y2="398.2"/><line class="f" x1="518.05" y1="401.65" x2="497.36" y2="401.65"/><g class="i"><path class="f" d="M497.36,401.65a3.44,3.44,0,0,1-3.45-3.45"/><path class="f" d="M493.91,377.51a3.44,3.44,0,0,1,3.45-3.44"/><path class="f" d="M521.5,398.2a3.45,3.45,0,0,1-3.45,3.45"/><path class="f" d="M518.05,374.07a3.45,3.45,0,0,1,3.45,3.44"/></g><line class="f" x1="435.12" y1="419.76" x2="493.05" y2="419.76"/><line class="f" x1="523.74" y1="343.55" x2="523.74" y2="355.62"/><line class="f" x1="474.43" y1="372.34" x2="474.43" y2="375.79"/><line class="f" x1="474.43" y1="375.79" x2="453.74" y2="375.79"/><line class="f" x1="453.74" y1="375.79" x2="453.74" y2="372.34"/><line class="f" x1="453.74" y1="372.34" x2="454.77" y2="372.34"/><line class="f" x1="454.77" y1="372.34" x2="454.77" y2="374.76"/><line class="f" x1="454.77" y1="374.76" x2="473.39" y2="374.76"/><line class="f" x1="473.39" y1="374.76" x2="473.39" y2="372.34"/><line class="f" x1="473.39" y1="372.34" x2="474.43" y2="372.34"/><line class="f" x1="474.43" y1="372.34" x2="474.43" y2="375.79"/><line class="f" x1="453.74" y1="372.34" x2="453.74" y2="375.79"/><line class="f" x1="473.39" y1="372.34" x2="473.39" y2="374.76"/><line class="f" x1="454.77" y1="372.34" x2="454.77" y2="374.76"/><line class="f" x1="474.43" y1="375.79" x2="453.74" y2="375.79"/><line class="f" x1="474.43" y1="374.76" x2="453.74" y2="374.76"/><line class="f" x1="474.43" y1="372.34" x2="473.39" y2="372.34"/><line class="f" x1="454.77" y1="372.34" x2="453.74" y2="372.34"/><g class="i"><path class="f" d="M286.52,412.55a7.76,7.76,0,1,0-7.76,7.76,7.76,7.76,0,0,0,7.76-7.76"/><path class="f" d="M285.31,412.55a6.55,6.55,0,1,0-6.55,6.55,6.55,6.55,0,0,0,6.55-6.55"/><path class="f" d="M277.31,414.87a.87.87,0,1,0-.86.86.87.87,0,0,0,.86-.86"/><path class="f" d="M275.5,357.44a3.39,3.39,0,1,0-3.39,3.38,3.39,3.39,0,0,0,3.39-3.38"/></g><line class="f" x1="266.85" y1="352.17" x2="287.54" y2="352.17"/><line class="f" x1="287.54" y1="352.17" x2="287.54" y2="372.86"/><line class="f" x1="287.54" y1="372.86" x2="266.85" y2="372.86"/><g class="i"><path class="f" d="M285.65,357.44a3.39,3.39,0,1,0-3.38,3.38,3.38,3.38,0,0,0,3.38-3.38"/><path class="f" d="M285.65,367.59a3.39,3.39,0,1,0-3.38,3.39,3.38,3.38,0,0,0,3.38-3.39"/></g><line class="f" x1="288.48" y1="370.04" x2="288.48" y2="354.99"/><line class="f" x1="299.6" y1="424.58" x2="299.6" y2="403.89"/><line class="f" x1="299.6" y1="403.89" x2="320.29" y2="403.89"/><line class="f" x1="320.29" y1="403.89" x2="320.29" y2="424.58"/><line class="f" x1="266.5" y1="342.17" x2="266.5" y2="424.93"/><line class="f" x1="266.5" y1="424.93" x2="340.98" y2="424.93"/><line class="f" x1="340.98" y1="424.93" x2="340.98" y2="403.89"/><line class="f" x1="340.98" y1="403.89" x2="287.54" y2="403.89"/><line class="f" x1="287.54" y1="403.89" x2="287.54" y2="342.17"/><line class="f" x1="287.54" y1="342.17" x2="266.5" y2="342.17"/><line class="f" x1="493.05" y1="404.24" x2="493.05" y2="424.93"/><line class="f" x1="493.05" y1="404.24" x2="524.08" y2="404.24"/><line class="f" x1="496.5" y1="407.69" x2="524.08" y2="407.69"/><line class="f" x1="430.98" y1="429.24" x2="430.98" y2="433.2"/><line class="f" x1="430.98" y1="429.24" x2="432.7" y2="429.24"/><line class="f" x1="430.98" y1="433.2" x2="432.7" y2="433.2"/><line class="f" x1="432.7" y1="400.79" x2="432.7" y2="429.24"/><line class="f" x1="432.7" y1="371.48" x2="432.7" y2="373.21"/><line class="f" x1="370.64" y1="411.13" x2="370.64" y2="407.69"/><line class="f" x1="360.29" y1="411.13" x2="360.29" y2="407.69"/><line class="f" x1="283.74" y1="255.62" x2="332.02" y2="255.62"/><line class="f" x1="332.02" y1="255.62" x2="332.02" y2="259.07"/><line class="f" x1="332.02" y1="259.07" x2="283.74" y2="259.07"/><line class="f" x1="283.74" y1="259.07" x2="283.74" y2="255.62"/><g class="i"><path class="f" d="M337.19,257.35a1.73,1.73,0,1,0-1.72,1.72,1.72,1.72,0,0,0,1.72-1.72"/></g><line class="f" x1="474.26" y1="255.62" x2="501.84" y2="255.62"/><line class="f" x1="501.84" y1="255.62" x2="501.84" y2="257.8"/><line class="f" x1="501.84" y1="257.79" x2="474.26" y2="257.79"/><line class="f" x1="474.26" y1="257.79" x2="474.26" y2="255.62"/><g class="i"><path class="f" d="M507,256.71a1.73,1.73,0,1,0-1.72,1.72,1.73,1.73,0,0,0,1.72-1.72"/></g><line class="f" x1="496.5" y1="404.24" x2="496.5" y2="424.93"/><line class="f" x1="371.67" y1="240.11" x2="364.78" y2="240.11"/><line class="f" x1="360.98" y1="240.11" x2="360.21" y2="240.11"/><line class="f" x1="356.41" y1="240.11" x2="355.64" y2="240.11"/><line class="f" x1="351.84" y1="240.11" x2="347.53" y2="240.11"/><line class="f" x1="347.53" y1="240.11" x2="340.64" y2="240.11"/><line class="f" x1="470.81" y1="240.11" x2="463.91" y2="240.11"/><line class="f" x1="460.12" y1="240.11" x2="459.34" y2="240.11"/><line class="f" x1="455.55" y1="240.11" x2="454.77" y2="240.11"/><line class="f" x1="450.98" y1="240.11" x2="446.67" y2="240.11"/><line class="f" x1="446.67" y1="240.11" x2="439.77" y2="240.11"/><line class="f" x1="496.5" y1="407.69" x2="496.5" y2="424.93"/><line class="f" x1="496.5" y1="424.93" x2="524.08" y2="424.93"/><line class="f" x1="524.08" y1="424.93" x2="499.94" y2="421.48"/><line class="f" x1="499.94" y1="421.48" x2="496.5" y2="407.69"/><line class="f" x1="344.78" y1="411.13" x2="344.78" y2="424.93"/><line class="f" x1="344.78" y1="424.93" x2="370.64" y2="424.93"/><line class="f" x1="370.64" y1="424.93" x2="348.22" y2="421.48"/><line class="f" x1="348.22" y1="421.48" x2="344.78" y2="411.13"/><rect class="d" x="306.15" y="295.28" width="17.24" height="27.58"/><line class="f" x1="306.15" y1="295.28" x2="306.15" y2="322.86"/><line class="f" x1="323.39" y1="295.28" x2="306.15" y2="295.28"/><line class="f" x1="323.39" y1="322.86" x2="323.39" y2="295.28"/><line class="f" x1="306.15" y1="322.86" x2="323.39" y2="322.86"/><rect class="d" x="435.12" y="419.76" width="57.93" height="5.17"/><line class="f" x1="435.12" y1="419.76" x2="435.12" y2="424.93"/><line class="f" x1="493.05" y1="419.76" x2="435.12" y2="419.76"/><line class="f" x1="493.05" y1="424.93" x2="493.05" y2="419.76"/><line class="f" x1="435.12" y1="424.93" x2="493.05" y2="424.93"/><rect class="d" x="453.74" y="372.34" width="1.03" height="2.41"/><line class="f" x1="453.74" y1="374.76" x2="454.77" y2="374.76"/><line class="f" x1="453.74" y1="372.34" x2="453.74" y2="374.76"/><line class="f" x1="454.77" y1="372.34" x2="453.74" y2="372.34"/><line class="f" x1="454.77" y1="374.76" x2="454.77" y2="372.34"/><polygon class="d" points="473.39 374.76 454.77 374.76 453.74 374.76 453.74 375.79 474.43 375.79 474.43 374.76 473.39 374.76"/><line class="f" x1="453.74" y1="374.76" x2="453.74" y2="375.79"/><line class="f" x1="454.77" y1="374.76" x2="453.74" y2="374.76"/><line class="f" x1="473.39" y1="374.76" x2="454.77" y2="374.76"/><line class="f" x1="474.43" y1="374.76" x2="473.39" y2="374.76"/><line class="f" x1="474.43" y1="375.79" x2="474.43" y2="374.76"/><line class="f" x1="453.74" y1="375.79" x2="474.43" y2="375.79"/><rect class="d" x="473.39" y="372.34" width="1.03" height="2.41"/><line class="f" x1="473.39" y1="374.76" x2="474.43" y2="374.76"/><line class="f" x1="473.39" y1="372.34" x2="473.39" y2="374.76"/><line class="f" x1="474.43" y1="372.34" x2="473.39" y2="372.34"/><line class="f" x1="474.43" y1="374.76" x2="474.43" y2="372.34"/><rect class="d" x="377.53" y="253.9" width="16.55" height="115.17"/><line class="f" x1="377.53" y1="253.9" x2="394.08" y2="253.9"/><line class="f" x1="394.08" y1="253.9" x2="394.08" y2="369.07"/><line class="f" x1="394.08" y1="369.07" x2="377.53" y2="369.07"/><line class="f" x1="377.53" y1="369.07" x2="377.53" y2="253.9"/><rect class="d" x="474.25" y="255.62" width="27.58" height="2.17"/><line class="f" x1="501.84" y1="255.62" x2="474.26" y2="255.62"/><line class="f" x1="501.84" y1="257.79" x2="501.84" y2="255.62"/><line class="f" x1="474.26" y1="257.79" x2="501.84" y2="257.79"/><line class="f" x1="474.26" y1="255.62" x2="474.26" y2="257.8"/><polygon class="g" points="507.01 256.71 506.51 257.93 505.29 258.43 504.07 257.93 503.56 256.71 504.07 255.49 505.29 254.99 506.51 255.49 507.01 256.71"/><g class="i"><path class="f" d="M507,256.71a1.73,1.73,0,0,1-3.45,0"/><path class="f" d="M503.56,256.71a1.73,1.73,0,1,1,3.45,0"/></g><rect class="d" x="283.74" y="255.62" width="48.27" height="3.45"/><line class="f" x1="332.02" y1="255.62" x2="283.74" y2="255.62"/><line class="f" x1="332.02" y1="259.07" x2="332.02" y2="255.62"/><line class="f" x1="283.74" y1="259.07" x2="332.02" y2="259.07"/><line class="f" x1="283.74" y1="255.62" x2="283.74" y2="259.07"/><polygon class="g" points="337.19 257.35 336.68 258.56 335.46 259.07 334.25 258.56 333.74 257.35 334.25 256.13 335.46 255.62 336.68 256.13 337.19 257.35"/><g class="i"><path class="f" d="M337.19,257.35a1.73,1.73,0,0,1-3.45,0"/><path class="f" d="M333.74,257.35a1.73,1.73,0,1,1,3.45,0"/></g><polygon class="g" points="524.08 343.55 524.08 281.48 513.74 281.48 462.01 281.48 459.38 282.01 457.14 283.5 455.64 285.74 455.12 288.38 455.12 336.65 455.64 339.3 457.14 341.53 459.38 343.03 462.01 343.55 524.08 343.55"/><rect class="d" x="513.74" y="343.55" width="10.35" height="12.07"/><rect class="d" x="513.74" y="269.42" width="10.35" height="12.07"/><line class="f" x1="512.62" y1="310.57" x2="515.6" y2="309.74"/><line class="f" x1="512.62" y1="339.52" x2="515.6" y2="338.69"/><line class="f" x1="455.12" y1="288.38" x2="455.12" y2="336.65"/><line class="f" x1="462.01" y1="343.55" x2="524.08" y2="343.55"/><line class="f" x1="524.08" y1="343.55" x2="524.08" y2="281.48"/><line class="f" x1="524.08" y1="281.48" x2="462.02" y2="281.48"/><line class="f" x1="524.08" y1="343.55" x2="524.08" y2="355.62"/><line class="f" x1="524.08" y1="355.62" x2="513.74" y2="355.62"/><line class="f" x1="513.74" y1="355.62" x2="513.74" y2="343.55"/><line class="f" x1="513.74" y1="343.55" x2="524.08" y2="343.55"/><line class="f" x1="524.08" y1="269.42" x2="524.08" y2="281.48"/><line class="f" x1="524.08" y1="281.48" x2="513.74" y2="281.48"/><line class="f" x1="513.74" y1="281.48" x2="513.74" y2="269.42"/><line class="f" x1="513.74" y1="269.42" x2="524.08" y2="269.42"/><line class="f" x1="501.14" y1="343.55" x2="501.14" y2="281.48"/><line class="f" x1="495.96" y1="343.55" x2="495.96" y2="281.48"/><g class="i"><path class="f" d="M506.36,315.13a96.44,96.44,0,0,1,.84,12.71c0,3.26-.17,6.52-.49,9.77"/><path class="f" d="M508.6,339.85h-.09a1.85,1.85,0,0,1-1.85-1.85,1.74,1.74,0,0,1,0-.39"/><path class="f" d="M512.62,339.52a14.94,14.94,0,0,1-3.2.35l-.82,0"/><path class="f" d="M520.32,339.71c-.84,0-1.67.06-2.5.06-1.74,0-3.48-.08-5.2-.25"/><path class="f" d="M520.81,339.26a.19.19,0,0,1,0,.08.38.38,0,0,1-.39.39.2.2,0,0,1-.11,0"/><path class="f" d="M520.81,339.26q-.57-7.41-.56-14.83,0-4.69.22-9.37"/><path class="f" d="M519.23,314a1.06,1.06,0,0,1,.31-.05,1,1,0,0,1,1,1,1.23,1.23,0,0,1,0,.2"/><path class="f" d="M519.23,314a46.13,46.13,0,0,1-11.89.18"/><path class="f" d="M506.36,315.13a.93.93,0,0,1,0-.24.79.79,0,0,1,1-.76"/><path class="f" d="M462,343.55a6.89,6.89,0,0,1-6.89-6.9"/><path class="f" d="M455.12,288.38a6.89,6.89,0,0,1,6.89-6.9"/><path class="f" d="M506.36,286.18a96.4,96.4,0,0,1,.84,12.7c0,3.27-.17,6.53-.49,9.77"/><path class="f" d="M508.6,310.89h-.09a1.85,1.85,0,0,1-1.85-1.85,1.67,1.67,0,0,1,0-.39"/><path class="f" d="M512.62,310.57a14.94,14.94,0,0,1-3.2.35c-.27,0-.55,0-.82,0"/><path class="f" d="M520.32,310.76c-.84,0-1.67.06-2.5.06-1.74,0-3.48-.09-5.2-.25"/><path class="f" d="M520.81,310.3a.28.28,0,0,1,0,.09.39.39,0,0,1-.39.39l-.11,0"/><path class="f" d="M520.81,310.3q-.57-7.4-.56-14.83,0-4.68.22-9.36"/><path class="f" d="M519.23,285a.81.81,0,0,1,.31-.05,1,1,0,0,1,1,.95,1.49,1.49,0,0,1,0,.21"/><path class="f" d="M519.23,285a46.13,46.13,0,0,1-11.89.18"/><path class="f" d="M506.36,286.18a1,1,0,0,1,0-.24.79.79,0,0,1,.79-.8.78.78,0,0,1,.22,0"/></g><polygon class="g" points="384.92 296.38 383.54 298.08 382.8 300.22 382.8 302.5 383.54 304.64 384.92 306.34 384.92 317.08 386.84 317.08 388.75 309.22 388.75 306.93 389.8 303.28 389.8 299.44 388.75 295.79 388.75 293.5 386.84 285.64 384.92 285.64 384.92 296.38"/><line class="f" x1="384.92" y1="285.64" x2="384.92" y2="296.38"/><line class="f" x1="386.84" y1="285.64" x2="384.92" y2="285.64"/><line class="f" x1="388.75" y1="293.5" x2="386.84" y2="285.64"/><line class="f" x1="388.75" y1="295.79" x2="388.75" y2="293.5"/><line class="f" x1="389.8" y1="299.44" x2="388.75" y2="295.79"/><line class="f" x1="389.8" y1="303.28" x2="389.8" y2="299.44"/><line class="f" x1="388.75" y1="306.93" x2="389.8" y2="303.28"/><line class="f" x1="388.75" y1="309.22" x2="388.75" y2="306.93"/><line class="f" x1="386.84" y1="317.08" x2="388.75" y2="309.22"/><line class="f" x1="384.92" y1="317.08" x2="386.84" y2="317.08"/><line class="f" x1="384.92" y1="306.34" x2="384.92" y2="317.09"/><line class="f" x1="383.54" y1="304.64" x2="384.92" y2="306.34"/><line class="f" x1="382.8" y1="302.5" x2="383.54" y2="304.64"/><line class="f" x1="382.8" y1="300.22" x2="382.8" y2="302.5"/><line class="f" x1="383.54" y1="298.08" x2="382.8" y2="300.22"/><line class="f" x1="384.92" y1="296.38" x2="383.54" y2="298.08"/><line class="f" x1="384.92" y1="285.64" x2="384.92" y2="317.08"/><line class="f" x1="388.75" y1="309.22" x2="388.75" y2="293.5"/><line class="f" x1="386.84" y1="285.64" x2="384.92" y2="285.64"/><line class="f" x1="385.69" y1="314.99" x2="385.69" y2="312.89"/><line class="f" x1="385.69" y1="312.89" x2="386.17" y2="312.89"/><line class="f" x1="386.17" y1="312.89" x2="386.17" y2="314.99"/><line class="f" x1="386.17" y1="314.99" x2="385.69" y2="314.99"/><line class="f" x1="385.69" y1="312.37" x2="385.69" y2="310.27"/><line class="f" x1="385.69" y1="310.27" x2="386.17" y2="310.27"/><line class="f" x1="386.17" y1="310.27" x2="386.17" y2="312.37"/><line class="f" x1="386.17" y1="312.37" x2="385.69" y2="312.37"/><line class="f" x1="386.84" y1="285.64" x2="386.84" y2="317.08"/><line class="f" x1="386.17" y1="309.75" x2="385.69" y2="309.75"/><line class="f" x1="385.69" y1="309.75" x2="385.69" y2="308.7"/><line class="f" x1="385.69" y1="308.7" x2="386.17" y2="308.7"/><line class="f" x1="386.17" y1="308.7" x2="386.17" y2="309.75"/><g class="i"><path class="f" d="M384.92,306.34a6.7,6.7,0,0,1,0-10"/></g><polygon class="g" points="298.91 288.44 299.54 288.07 299.6 287.35 299.6 261.83 299.63 261.35 299.36 260.95 298.91 260.79 270.98 260.79 270.49 261 270.29 261.48 270.29 332.52 270.49 333.01 270.98 333.2 296.15 333.2 297.87 332.74 299.13 331.48 299.6 329.76 299.6 328.72 299.39 328.24 298.91 328.03 299.41 327.62 299.6 327 299.6 289.42 299.41 288.82 298.91 288.44"/><polygon class="g" points="322.01 288.38 324.65 287.86 326.89 286.36 328.38 284.12 328.9 281.48 328.9 267.69 328.38 265.05 326.89 262.81 324.65 261.32 322.01 260.8 300.63 260.8 299.9 261.1 299.6 261.83 299.6 287.35 299.9 288.08 300.63 288.38 322.01 288.38"/><line class="f" x1="300.63" y1="288.38" x2="322.01" y2="288.38"/><g class="i"><path class="f" d="M300.63,288.38a1,1,0,0,1-1-1"/></g><line class="f" x1="299.6" y1="261.83" x2="299.6" y2="287.35"/><g class="i"><path class="f" d="M299.6,261.83a1,1,0,0,1,1-1"/></g><line class="f" x1="322.01" y1="260.79" x2="300.63" y2="260.79"/><g class="i"><path class="f" d="M322,260.79a6.9,6.9,0,0,1,6.9,6.9"/></g><line class="f" x1="328.91" y1="281.48" x2="328.91" y2="267.69"/><g class="i"><path class="f" d="M328.91,281.48a6.9,6.9,0,0,1-6.9,6.9"/></g><line class="f" x1="299.6" y1="328.72" x2="299.6" y2="329.76"/><line class="f" x1="296.15" y1="333.21" x2="270.98" y2="333.21"/><line class="f" x1="270.29" y1="332.52" x2="270.29" y2="328.72"/><line class="f" x1="270.98" y1="328.03" x2="298.91" y2="328.03"/><line class="f" x1="270.29" y1="328.72" x2="270.29" y2="288.38"/><line class="f" x1="270.29" y1="288.38" x2="272.7" y2="288.38"/><line class="f" x1="299.6" y1="289.41" x2="299.6" y2="327"/><line class="f" x1="298.56" y1="328.03" x2="281.27" y2="328.03"/><line class="f" x1="281.27" y1="288.38" x2="298.56" y2="288.38"/><line class="f" x1="272.7" y1="328.03" x2="279.21" y2="328.03"/><line class="f" x1="279.21" y1="288.38" x2="272.7" y2="288.38"/><line class="f" x1="299.6" y1="265.28" x2="299.6" y2="261.48"/><line class="f" x1="298.91" y1="260.79" x2="270.98" y2="260.79"/><line class="f" x1="270.29" y1="261.48" x2="270.29" y2="265.28"/><line class="f" x1="270.29" y1="265.28" x2="270.29" y2="288.38"/><line class="f" x1="270.29" y1="288.38" x2="272.7" y2="288.38"/><line class="f" x1="299.6" y1="287.35" x2="299.6" y2="267"/><line class="f" x1="281.27" y1="288.38" x2="298.56" y2="288.38"/><line class="f" x1="281.27" y1="288.38" x2="272.7" y2="288.38"/><line class="f" x1="328.91" y1="281.48" x2="328.91" y2="267.69"/><line class="f" x1="322.01" y1="260.79" x2="300.63" y2="260.79"/><line class="f" x1="299.6" y1="261.83" x2="299.6" y2="287.35"/><line class="f" x1="300.63" y1="288.38" x2="322.01" y2="288.38"/><line class="f" x1="271.67" y1="287.35" x2="271.67" y2="261.83"/><line class="f" x1="271.67" y1="289.41" x2="271.67" y2="327"/><g class="i"><path class="f" d="M271,333.21a.69.69,0,0,1-.69-.69"/><path class="f" d="M270.29,328.72A.69.69,0,0,1,271,328"/><path class="f" d="M298.91,328a.69.69,0,0,1,.69.69"/><path class="f" d="M299.6,327a1,1,0,0,1-1,1"/><path class="f" d="M298.56,288.38a1,1,0,0,1,1,1"/><path class="f" d="M298.91,260.79a.69.69,0,0,1,.69.69"/><path class="f" d="M270.29,261.48a.69.69,0,0,1,.69-.69"/><path class="f" d="M299.6,287.35a1,1,0,0,1-1,1"/><path class="f" d="M299.6,261.83a1,1,0,0,1,1-1"/><path class="f" d="M300.63,288.38a1,1,0,0,1-1-1"/></g><line class="f" x1="271.67" y1="261.83" x2="295.16" y2="261.83"/><g class="i"><path class="f" d="M275.68,287.39a19.57,19.57,0,0,1,14.73-24.31"/><path class="f" d="M276.49,289.41a117.73,117.73,0,0,1,0,37.59"/><path class="f" d="M328.91,281.48a6.9,6.9,0,0,1-6.9,6.9"/><path class="f" d="M322,260.79a6.9,6.9,0,0,1,6.9,6.9"/><path class="f" d="M299.6,329.76a3.46,3.46,0,0,1-3.45,3.45"/></g><polygon class="g" points="317.01 348.66 319.19 345.8 322.04 343.6 325.36 342.21 328.93 341.73 325.07 335.05 323.8 333.79 322.08 333.32 320.36 333.79 314.4 337.25 313.14 338.52 312.69 340.25 313.15 341.97 317.01 348.66"/><polygon class="g" points="328.97 369.37 325.4 368.91 322.08 367.53 319.22 365.34 317.03 362.48 313.19 369.18 312.73 370.91 313.2 372.64 314.46 373.9 320.43 377.34 322.15 377.81 323.87 377.34 325.13 376.07 328.97 369.37"/><polygon class="g" points="340.87 348.62 342.25 351.96 342.72 355.53 342.26 359.11 340.89 362.44 348.59 362.44 350.31 361.97 351.56 360.7 352.02 358.98 352.01 352.06 351.55 350.34 350.29 349.07 348.56 348.61 340.87 348.62"/><polygon class="g" points="328.93 341.73 325.36 342.21 322.04 343.6 319.19 345.79 317.01 348.66 315.64 351.99 315.17 355.57 315.65 359.15 317.03 362.48 319.22 365.34 322.08 367.53 325.4 368.91 328.97 369.37 332.53 368.9 335.85 367.51 338.7 365.31 340.89 362.44 342.26 359.11 342.72 355.53 342.25 351.96 340.86 348.62 338.67 345.76 335.82 343.57 332.49 342.2 328.93 341.73"/><line class="f" x1="332.49" y1="342.2" x2="328.93" y2="341.73"/><line class="f" x1="335.82" y1="343.57" x2="332.49" y2="342.2"/><line class="f" x1="338.67" y1="345.76" x2="335.82" y2="343.57"/><line class="f" x1="340.86" y1="348.62" x2="338.67" y2="345.76"/><line class="f" x1="342.25" y1="351.96" x2="340.86" y2="348.62"/><line class="f" x1="342.72" y1="355.53" x2="342.25" y2="351.96"/><line class="f" x1="342.26" y1="359.11" x2="342.72" y2="355.53"/><line class="f" x1="340.89" y1="362.45" x2="342.26" y2="359.11"/><line class="f" x1="338.7" y1="365.31" x2="340.89" y2="362.45"/><line class="f" x1="335.85" y1="367.51" x2="338.7" y2="365.31"/><line class="f" x1="332.53" y1="368.9" x2="335.85" y2="367.51"/><line class="f" x1="328.97" y1="369.37" x2="332.53" y2="368.9"/><line class="f" x1="325.4" y1="368.91" x2="328.97" y2="369.37"/><line class="f" x1="322.08" y1="367.53" x2="325.4" y2="368.91"/><line class="f" x1="319.22" y1="365.34" x2="322.08" y2="367.53"/><line class="f" x1="317.03" y1="362.48" x2="319.22" y2="365.34"/><line class="f" x1="315.65" y1="359.15" x2="317.03" y2="362.48"/><line class="f" x1="315.17" y1="355.57" x2="315.65" y2="359.15"/><line class="f" x1="315.64" y1="351.99" x2="315.17" y2="355.57"/><line class="f" x1="317.01" y1="348.66" x2="315.64" y2="351.99"/><line class="f" x1="319.19" y1="345.79" x2="317.01" y2="348.66"/><line class="f" x1="322.04" y1="343.6" x2="319.19" y2="345.79"/><line class="f" x1="325.36" y1="342.21" x2="322.04" y2="343.6"/><line class="f" x1="328.93" y1="341.73" x2="325.36" y2="342.21"/><g class="i"><path class="f" d="M342.72,355.53a13.77,13.77,0,1,1-27.54,0"/><path class="f" d="M315.18,355.57a13.77,13.77,0,1,1,27.54,0"/></g><line class="f" x1="315.26" y1="338.75" x2="321.22" y2="335.28"/><line class="f" x1="325.07" y1="335.05" x2="328.93" y2="341.73"/><line class="f" x1="314.4" y1="337.25" x2="320.36" y2="333.79"/><line class="f" x1="317.01" y1="348.66" x2="313.15" y2="341.97"/><line class="f" x1="321.29" y1="375.85" x2="315.32" y2="372.4"/><line class="f" x1="313.19" y1="369.18" x2="317.03" y2="362.48"/><line class="f" x1="320.43" y1="377.34" x2="314.46" y2="373.9"/><line class="f" x1="328.97" y1="369.37" x2="325.13" y2="376.07"/><line class="f" x1="350.29" y1="352.06" x2="350.3" y2="358.98"/><line class="f" x1="348.59" y1="362.44" x2="340.89" y2="362.45"/><line class="f" x1="352.01" y1="352.06" x2="352.02" y2="358.98"/><line class="f" x1="340.86" y1="348.62" x2="348.56" y2="348.61"/><g class="i"><path class="f" d="M321.22,335.28a1.77,1.77,0,0,1,.87-.23,1.73,1.73,0,0,1,1.49.86"/><path class="f" d="M314.64,341.11a1.74,1.74,0,0,1,.62-2.36"/><path class="f" d="M320.36,333.79a3.37,3.37,0,0,1,1.72-.47,3.46,3.46,0,0,1,3,1.73"/><path class="f" d="M313.15,342a3.49,3.49,0,0,1,1.25-4.73"/><path class="f" d="M315.32,372.4a1.72,1.72,0,0,1-.87-1.49,1.74,1.74,0,0,1,.23-.87"/><path class="f" d="M323.64,375.21a1.72,1.72,0,0,1-1.49.87,1.77,1.77,0,0,1-.87-.23"/><path class="f" d="M314.46,373.9a3.46,3.46,0,0,1-1.73-3,3.5,3.5,0,0,1,.46-1.73"/><path class="f" d="M325.13,376.07a3.43,3.43,0,0,1-3,1.73,3.27,3.27,0,0,1-1.72-.46"/><path class="f" d="M350.3,359h0a1.73,1.73,0,0,1-1.72,1.73"/><path class="f" d="M348.57,350.34a1.72,1.72,0,0,1,1.72,1.73"/><path class="f" d="M352,359a3.44,3.44,0,0,1-3.43,3.46"/><path class="f" d="M348.56,348.61a3.46,3.46,0,0,1,3.45,3.45"/></g><polygon class="g" points="462.36 419.75 444.43 419.75 444.06 419.6 443.91 419.24 443.91 405.1 444.06 404.73 444.43 404.58 462.36 404.58 462.73 404.73 462.88 405.1 462.88 419.24 462.73 419.6 462.36 419.75"/><line class="f" x1="462.36" y1="419.76" x2="444.43" y2="419.76"/><g class="i"><path class="f" d="M444.43,419.76a.52.52,0,0,1-.52-.52"/></g><line class="f" x1="443.91" y1="419.24" x2="443.91" y2="405.1"/><g class="i"><path class="f" d="M443.91,405.1a.52.52,0,0,1,.52-.52"/></g><line class="f" x1="444.43" y1="404.58" x2="462.36" y2="404.58"/><g class="i"><path class="f" d="M462.36,404.58a.52.52,0,0,1,.52.52"/></g><line class="f" x1="462.88" y1="405.1" x2="462.88" y2="419.24"/><g class="i"><path class="f" d="M462.88,419.24a.52.52,0,0,1-.52.52"/></g><line class="f" x1="461.32" y1="415.96" x2="445.46" y2="415.96"/><line class="f" x1="444.95" y1="415.45" x2="444.95" y2="406.13"/><line class="f" x1="445.46" y1="405.62" x2="461.32" y2="405.62"/><line class="f" x1="461.84" y1="406.13" x2="461.84" y2="415.45"/><g class="i"><path class="f" d="M445.46,416a.51.51,0,0,1-.51-.51"/><path class="f" d="M445,406.13a.51.51,0,0,1,.51-.51"/><path class="f" d="M461.32,405.62a.51.51,0,0,1,.52.51"/><path class="f" d="M461.84,415.45a.51.51,0,0,1-.52.51"/></g><polygon class="g" points="454.26 417.69 454.12 416.24 454 415.91 453.78 414.09 453.65 413.85 453.39 413.75 453.14 413.85 453.01 414.09 452.78 415.91 452.67 416.24 452.53 417.69 452.78 418.3 453.39 418.55 454 418.3 454.26 417.69"/><g class="i"><path class="f" d="M454.26,417.69a.87.87,0,0,1-1.73,0"/></g><line class="f" x1="452.67" y1="416.24" x2="452.53" y2="417.69"/><g class="i"><path class="f" d="M452.67,416.24a.76.76,0,0,1,.11-.33"/></g><line class="f" x1="453.01" y1="414.09" x2="452.78" y2="415.91"/><g class="i"><path class="f" d="M453,414.09a.38.38,0,0,1,.38-.34.39.39,0,0,1,.39.34"/></g><line class="f" x1="454" y1="415.91" x2="453.78" y2="414.09"/><g class="i"><path class="f" d="M454,415.91a.66.66,0,0,1,.12.33"/></g><line class="f" x1="454.26" y1="417.69" x2="454.12" y2="416.24"/><line class="f" x1="452.92" y1="416.83" x2="452.92" y2="416.31"/><line class="f" x1="453.86" y1="416.31" x2="453.86" y2="416.83"/><line class="f" x1="453.86" y1="416.83" x2="452.92" y2="416.83"/><g class="i"><path class="f" d="M452.92,416.31a.47.47,0,0,1,.94,0"/><path class="f" d="M452.78,415.91a.73.73,0,0,1,1.22,0"/></g><rect class="d" x="396.5" y="253.9" width="20.69" height="41.38"/><line class="f" x1="417.19" y1="295.28" x2="417.19" y2="253.9"/><line class="f" x1="417.19" y1="253.9" x2="396.5" y2="253.9"/><line class="f" x1="396.5" y1="253.9" x2="396.5" y2="295.28"/><line class="f" x1="396.5" y1="295.28" x2="417.19" y2="295.28"/><line class="f" x1="406.84" y1="293.21" x2="406.84" y2="255.97"/><line class="f" x1="412.93" y1="291.29" x2="400.53" y2="287.79"/><line class="f" x1="413.55" y1="287.34" x2="402.02" y2="285.9"/><line class="f" x1="399.38" y1="281.95" x2="412.04" y2="280.76"/><line class="f" x1="401.04" y1="275.85" x2="412.04" y2="277.46"/><line class="f" x1="400.41" y1="273.63" x2="413.96" y2="273.63"/><line class="f" x1="400.35" y1="267.34" x2="413.74" y2="268.83"/><line class="f" x1="400.58" y1="264.98" x2="412.81" y2="264.98"/><line class="f" x1="400.45" y1="258.78" x2="412.99" y2="257.58"/><line class="f" x1="401.31" y1="260.27" x2="411.91" y2="261.48"/><rect class="d" x="396.5" y="295.28" width="20.69" height="41.38"/><line class="f" x1="417.19" y1="336.65" x2="417.19" y2="295.28"/><line class="f" x1="417.19" y1="295.28" x2="396.5" y2="295.28"/><line class="f" x1="396.5" y1="295.28" x2="396.5" y2="336.65"/><line class="f" x1="396.5" y1="336.65" x2="417.19" y2="336.65"/><line class="f" x1="406.84" y1="334.59" x2="406.84" y2="297.35"/><line class="f" x1="412.93" y1="332.66" x2="400.53" y2="329.16"/><line class="f" x1="413.55" y1="328.72" x2="402.02" y2="327.27"/><line class="f" x1="399.38" y1="323.33" x2="412.04" y2="322.14"/><line class="f" x1="401.04" y1="317.23" x2="412.04" y2="318.84"/><line class="f" x1="400.41" y1="315.01" x2="413.96" y2="315.01"/><line class="f" x1="400.35" y1="308.72" x2="413.74" y2="310.21"/><line class="f" x1="400.58" y1="306.36" x2="412.81" y2="306.36"/><line class="f" x1="400.45" y1="300.16" x2="412.99" y2="298.96"/><line class="f" x1="401.31" y1="301.65" x2="411.91" y2="302.86"/><polygon class="g" points="483.91 419.75 483.91 408.38 483.64 406.67 482.87 405.13 481.67 403.89 479.71 402.87 477.53 402.51 475.35 402.87 473.39 403.89 472.19 405.13 471.42 406.67 471.15 408.38 471.15 419.75 483.91 419.75"/><line class="f" x1="471.15" y1="419.76" x2="471.15" y2="408.38"/><line class="f" x1="471.15" y1="419.76" x2="483.91" y2="419.76"/><line class="f" x1="483.91" y1="419.76" x2="483.91" y2="408.38"/><line class="f" x1="473.22" y1="415.62" x2="473.22" y2="408.38"/><line class="f" x1="481.84" y1="415.62" x2="481.84" y2="408.38"/><line class="f" x1="481.84" y1="415.62" x2="473.22" y2="415.62"/><g class="i"><path class="f" d="M471.15,408.38a5.61,5.61,0,0,1,2.24-4.49"/><path class="f" d="M481.67,403.89a5.61,5.61,0,0,1,2.24,4.49"/><path class="f" d="M473.39,403.89a6.9,6.9,0,0,1,8.28,0"/><path class="f" d="M481.67,403.89a5.61,5.61,0,0,1,2.24,4.49"/><path class="f" d="M477.53,402.51a7,7,0,0,1,4.14,1.38"/><path class="f" d="M480.43,405.55a3.54,3.54,0,0,1,1.41,2.83"/><path class="f" d="M474.63,405.55a4.82,4.82,0,0,1,5.8,0"/><path class="f" d="M473.22,408.38a3.54,3.54,0,0,1,1.41-2.83"/></g><line class="f" x1="394.77" y1="424.93" x2="401.67" y2="424.93"/><line class="f" x1="405.46" y1="424.93" x2="406.24" y2="424.93"/><line class="f" x1="410.03" y1="424.93" x2="410.81" y2="424.93"/><line class="f" x1="414.6" y1="424.93" x2="421.5" y2="424.93"/><line class="f" x1="425.29" y1="424.93" x2="426.07" y2="424.93"/><line class="f" x1="427.01" y1="424.93" x2="433.91" y2="424.93"/><line class="f" x1="307.19" y1="417.27" x2="307.19" y2="411.48"/><line class="f" x1="307.19" y1="411.48" x2="309.54" y2="413.38"/><line class="f" x1="309.54" y1="413.38" x2="311.89" y2="411.48"/><line class="f" x1="311.89" y1="411.48" x2="311.89" y2="417.27"/><line class="f" x1="262.19" y1="188.38" x2="528.57" y2="188.38"/><line class="f" x1="262.19" y1="186.66" x2="528.57" y2="186.66"/><line class="f" x1="262.19" y1="184.93" x2="528.57" y2="184.93"/><line class="f" x1="258.23" y1="433.2" x2="532.36" y2="433.2"/><line class="f" x1="532.36" y1="433.2" x2="532.36" y2="240.11"/><line class="f" x1="532.36" y1="240.11" x2="528.56" y2="240.11"/><line class="f" x1="528.56" y1="240.11" x2="528.56" y2="184.92"/><line class="f" x1="528.56" y1="184.92" x2="262.19" y2="184.92"/><line class="f" x1="262.19" y1="184.92" x2="262.19" y2="240.11"/><line class="f" x1="262.19" y1="240.11" x2="258.23" y2="240.11"/><line class="f" x1="258.23" y1="240.11" x2="258.23" y2="433.2"/><path class="j" d="M388.33,386.46v7h-.72V387.1H386v-.64Z"/><path class="j" d="M390,393a.53.53,0,0,1,.53-.54.54.54,0,0,1,.54.54.55.55,0,0,1-.54.55A.54.54,0,0,1,390,393Z"/><path class="j" d="M392,390c0-2.23,1.17-3.56,2.79-3.56s2.8,1.33,2.8,3.56-1.18,3.56-2.8,3.56S392,392.19,392,390Zm4.85,0c0-1.87-.84-2.9-2.06-2.9s-2.06,1-2.06,2.9.84,2.9,2.06,2.9S396.87,391.83,396.87,390Z"/><path class="j" d="M400.57,386.46v7h-.72V387.1H398.2v-.64Z"/><path class="j" d="M345.73,307.84v7H345v-6.36h-1.65v-.64Z"/><path class="j" d="M347.41,314.34a.53.53,0,0,1,.53-.54.54.54,0,0,1,.54.54.55.55,0,0,1-.54.55A.54.54,0,0,1,347.41,314.34Z"/><path class="j" d="M349.42,311.34c0-2.23,1.17-3.56,2.79-3.56s2.8,1.33,2.8,3.56-1.18,3.56-2.8,3.56S349.42,313.57,349.42,311.34Zm4.85,0c0-1.87-.84-2.9-2.06-2.9s-2.06,1-2.06,2.9.84,2.9,2.06,2.9S354.27,313.21,354.27,311.34Z"/><path class="j" d="M360.81,314.2v.64H355.9v-.51l2.91-2.85c.79-.78.94-1.25.94-1.73,0-.81-.57-1.31-1.64-1.31a2.38,2.38,0,0,0-1.91.78l-.51-.44a3.15,3.15,0,0,1,2.48-1c1.42,0,2.32.72,2.32,1.89a2.88,2.88,0,0,1-1.15,2.19L357,314.2Z"/><path class="j" d="M429.91,307.84v7h-.72v-6.36h-1.65v-.64Z"/><path class="j" d="M431.59,314.34a.53.53,0,0,1,.53-.54.54.54,0,0,1,.54.54.55.55,0,0,1-.54.55A.54.54,0,0,1,431.59,314.34Z"/><path class="j" d="M433.6,311.34c0-2.23,1.17-3.56,2.79-3.56s2.8,1.33,2.8,3.56-1.18,3.56-2.8,3.56S433.6,313.57,433.6,311.34Zm4.85,0c0-1.87-.84-2.9-2.06-2.9s-2.06,1-2.06,2.9.84,2.9,2.06,2.9S438.45,313.21,438.45,311.34Z"/><path class="j" d="M444.76,312.83c0,1.17-.85,2.07-2.54,2.07a3.64,3.64,0,0,1-2.52-.9l.35-.57a3.07,3.07,0,0,0,2.17.81c1.16,0,1.8-.54,1.8-1.41s-.59-1.39-1.89-1.39h-.5v-.53l1.94-2.43H440v-.64h4.5v.51l-2,2.49C444,310.92,444.76,311.71,444.76,312.83Z"/><path class="j" d="M464.45,386.46v7h-.72V387.1h-1.65v-.64Z"/><path class="j" d="M466.13,393a.53.53,0,0,1,.53-.54.54.54,0,0,1,.54.54.55.55,0,0,1-.54.55A.54.54,0,0,1,466.13,393Z"/><path class="j" d="M468.14,390c0-2.23,1.17-3.56,2.79-3.56s2.8,1.33,2.8,3.56-1.18,3.56-2.8,3.56S468.14,392.19,468.14,390Zm4.85,0c0-1.87-.84-2.9-2.06-2.9s-2.06,1-2.06,2.9.84,2.9,2.06,2.9S473,391.83,473,390Z"/><path class="j" d="M480.71,391.62h-1.4v1.84h-.72v-1.84h-3.95v-.52l3.71-4.64h.8L475.57,391h3v-1.62h.7V391h1.4Z"/><path class="j" d="M429.91,215.48v7h-.72v-6.36h-1.65v-.64Z"/><path class="j" d="M431.59,222a.53.53,0,0,1,.53-.54.54.54,0,0,1,.54.54.55.55,0,0,1-.54.55A.54.54,0,0,1,431.59,222Z"/><path class="j" d="M433.6,219c0-2.23,1.17-3.56,2.79-3.56s2.8,1.33,2.8,3.56-1.18,3.56-2.8,3.56S433.6,221.21,433.6,219Zm4.85,0c0-1.87-.84-2.9-2.06-2.9s-2.06,1-2.06,2.9.84,2.9,2.06,2.9S438.45,220.85,438.45,219Z"/><path class="j" d="M445,220.42c0,1.19-.83,2.12-2.54,2.12a3.61,3.61,0,0,1-2.51-.9l.35-.57a3,3,0,0,0,2.15.81c1.19,0,1.82-.58,1.82-1.43s-.56-1.46-2.34-1.46h-1.49l.36-3.51h3.83v.64h-3.2l-.24,2.23h.9C444.17,218.35,445,219.18,445,220.42Z"/></svg>