<svg xmlns="http://www.w3.org/2000/svg" xmlns:xlink="http://www.w3.org/1999/xlink" viewBox="0 0 790.58 618.13"><defs><style>.a,.f{fill:none;}.b{fill:#595a5c;}.c{fill:#b6906c;}.d,.i{fill:#fff;}.e{fill:#231f20;}.f{stroke:#000;stroke-linecap:round;stroke-linejoin:round;stroke-width:0.35px;}.g,.i{fill-rule:evenodd;}.h{clip-path:url(#a);}.j{fill:#58595b;}</style><clipPath id="a"><polygon class="a" points="242.66 184.18 242.66 239.69 238.68 239.69 238.68 433.94 551.91 433.94 551.91 239.69 547.57 239.69 547.57 184.18 242.66 184.18"/></clipPath></defs><path class="b" d="M55.31,597.13H57.1V609.9H55.31Zm.92,6.11h4.09a1.89,1.89,0,0,0,1-.27,1.82,1.82,0,0,0,.68-.77,2.67,2.67,0,0,0,.24-1.16,2.7,2.7,0,0,0-.24-1.16,1.82,1.82,0,0,0-1.7-1H56.23v-1.7h4a4.09,4.09,0,0,1,2,.48A3.45,3.45,0,0,1,63.62,599a4.64,4.64,0,0,1,0,4.11,3.34,3.34,0,0,1-1.35,1.36,4,4,0,0,1-2,.49h-4Z"/><path class="b" d="M67.7,606.33a2.07,2.07,0,0,0,.49,1.48,1.76,1.76,0,0,0,1.37.52,1.89,1.89,0,0,0,1.37-.46,1.79,1.79,0,0,0,.48-1.33l.12,1.91A2.58,2.58,0,0,1,69.06,610a2.89,2.89,0,0,1-2.33-1,4.08,4.08,0,0,1-.82-2.73v-5.55H67.7Zm.22-7.86a1.93,1.93,0,0,1-.56-1.5,2.07,2.07,0,0,1,.56-1.57,2.56,2.56,0,0,1,3.18,0,2.08,2.08,0,0,1,.57,1.56,1.94,1.94,0,0,1-.57,1.5,2.65,2.65,0,0,1-3.18,0Zm2.26-.86a.94.94,0,0,0,.24-.68,1,1,0,0,0-.24-.7.91.91,0,0,0-.67-.25.92.92,0,0,0-.67.25,1,1,0,0,0-.23.7,1,1,0,0,0,.23.68.92.92,0,0,0,.67.24A.9.9,0,0,0,70.18,597.61Zm1.23,3.17h1.78v9.12H71.41Z"/><path class="b" d="M77.1,609.63A2.82,2.82,0,0,1,76,608.36a5.08,5.08,0,0,1-.36-2v-2a5.05,5.05,0,0,1,.36-2,2.71,2.71,0,0,1,1-1.27,3,3,0,0,1,1.65-.44,2.71,2.71,0,0,1,1.48.42,3.22,3.22,0,0,1,1.09,1.19l-.18,1.86a2.19,2.19,0,0,0-.22-1,1.48,1.48,0,0,0-.61-.63,2,2,0,0,0-1-.21,1.71,1.71,0,0,0-1.37.55,2.26,2.26,0,0,0-.49,1.56v2a2.19,2.19,0,0,0,.49,1.54,1.74,1.74,0,0,0,1.37.54,1.93,1.93,0,0,0,1-.23,1.45,1.45,0,0,0,.61-.64,2.25,2.25,0,0,0,.22-1l.12,1.92a2.66,2.66,0,0,1-.89,1.14,2.56,2.56,0,0,1-1.53.45A3.19,3.19,0,0,1,77.1,609.63Zm4-12.5H82.9V609.9H81.11Z"/><path class="b" d="M87.09,609.57a3.09,3.09,0,0,1-1.29-1.36,4.85,4.85,0,0,1-.44-2.15v-1.48a4.71,4.71,0,0,1,.44-2.12,3.12,3.12,0,0,1,1.29-1.35,4.71,4.71,0,0,1,4.06,0,3.12,3.12,0,0,1,1.29,1.35,4.71,4.71,0,0,1,.44,2.12v1.51a4.79,4.79,0,0,1-.44,2.13,3.12,3.12,0,0,1-1.29,1.35,4.62,4.62,0,0,1-4.06,0Zm3.49-1.83a2.43,2.43,0,0,0,.51-1.65v-1.51a2.43,2.43,0,0,0-.51-1.65,1.88,1.88,0,0,0-1.46-.58,1.85,1.85,0,0,0-1.45.58,2.38,2.38,0,0,0-.52,1.65v1.51a2.38,2.38,0,0,0,.52,1.65,1.82,1.82,0,0,0,1.45.59A1.85,1.85,0,0,0,90.58,607.74Z"/><path class="b" d="M95.43,600.78h1.79v9.12H95.43Zm4.42,1.72a2.16,2.16,0,0,0-.83-.15,1.83,1.83,0,0,0-1.33.47,1.79,1.79,0,0,0-.47,1.31L97,602.37a3.32,3.32,0,0,1,1.09-1.27,2.58,2.58,0,0,1,1.48-.45,3.39,3.39,0,0,1,1.13.18,2.62,2.62,0,0,1,.88.53l-1.17,1.58A1.56,1.56,0,0,0,99.85,602.5Z"/><path class="b" d="M102.15,600.78H104l2.81,7.93-1,1.94Zm8.07,0L106.34,612a2.6,2.6,0,0,1-.56,1,1.87,1.87,0,0,1-.84.52,4,4,0,0,1-1.23.16h-.36V612h.36a1.46,1.46,0,0,0,.8-.2,1.74,1.74,0,0,0,.51-.7l3.38-10.31Z"/><path class="b" d="M113.51,609.88a5.76,5.76,0,0,1-1.32-.48,4.89,4.89,0,0,1-1.13-.79l1.06-1.31a5.86,5.86,0,0,0,1.47.85,4.18,4.18,0,0,0,1.44.28,3.11,3.11,0,0,0,1.6-.33,1.1,1.1,0,0,0,.53-1,.79.79,0,0,0-.29-.66,1.66,1.66,0,0,0-.72-.29c-.29,0-.69-.1-1.22-.14h-.15l-.14,0h-.15a6.45,6.45,0,0,1-1.5-.26,2,2,0,0,1-1-.7,2.38,2.38,0,0,1-.41-1.49,3.07,3.07,0,0,1,.39-1.61,2.41,2.41,0,0,1,1.18-1,5.29,5.29,0,0,1,2-.32,6.38,6.38,0,0,1,2.6.52,6.16,6.16,0,0,1,1.13.66l-1.08,1.31a5.59,5.59,0,0,0-1.35-.66,4,4,0,0,0-1.3-.22,2.44,2.44,0,0,0-1.37.31,1.08,1.08,0,0,0-.46.94.64.64,0,0,0,.26.55,1.72,1.72,0,0,0,.66.25c.26,0,.64.07,1.12.1h.34a7.67,7.67,0,0,1,1.63.25,2.24,2.24,0,0,1,1.13.77,2.62,2.62,0,0,1,.45,1.65,2.92,2.92,0,0,1-.42,1.63,2.54,2.54,0,0,1-1.27,1A5.88,5.88,0,0,1,115,610,7.38,7.38,0,0,1,113.51,609.88Z"/><path class="b" d="M126,597.13h1.8V609.9H126Zm2.6,12.5a2.39,2.39,0,0,1-.93-1.16l.13-1.91a2.22,2.22,0,0,0,.21,1,1.48,1.48,0,0,0,.61.63,1.93,1.93,0,0,0,1,.22,1.74,1.74,0,0,0,1.37-.54,2.18,2.18,0,0,0,.49-1.53v-2a2.26,2.26,0,0,0-.49-1.56,1.71,1.71,0,0,0-1.37-.55,2,2,0,0,0-1,.21,1.36,1.36,0,0,0-.61.62,2.12,2.12,0,0,0-.21,1l-.19-1.76a3.37,3.37,0,0,1,1.08-1.24,2.67,2.67,0,0,1,1.49-.43,3,3,0,0,1,1.65.43,2.9,2.9,0,0,1,1.06,1.27,5.1,5.1,0,0,1,.36,2v2a4.94,4.94,0,0,1-.37,2,2.79,2.79,0,0,1-1.08,1.26,3.25,3.25,0,0,1-1.71.44A2.73,2.73,0,0,1,128.57,609.63Z"/><path class="b" d="M134.46,600.78h1.82l2.81,7.93-1,1.94Zm8.07,0L138.65,612a2.6,2.6,0,0,1-.56,1,1.87,1.87,0,0,1-.84.52,4,4,0,0,1-1.23.16h-.36V612H136a1.46,1.46,0,0,0,.8-.2,1.74,1.74,0,0,0,.51-.7l3.37-10.31Z"/><path class="b" d="M143.57,600.78h4.12v1.62h-4.12Zm1.46,8.56a2.77,2.77,0,0,1-.52-1.81v-9.4h1.8v9.42a.84.84,0,0,0,.13.51.46.46,0,0,0,.39.18h.86V610h-1A2,2,0,0,1,145,609.34Z"/><path class="b" d="M151.94,606.33a2.07,2.07,0,0,0,.49,1.48,1.76,1.76,0,0,0,1.37.52,1.91,1.91,0,0,0,1.37-.46,1.79,1.79,0,0,0,.48-1.33l.12,1.91A2.58,2.58,0,0,1,153.3,610a2.89,2.89,0,0,1-2.33-1,4.08,4.08,0,0,1-.82-2.73v-5.55h1.79Zm3.71-5.55h1.78v9.12h-1.78Z"/><rect class="c" x="612.92" y="591.68" width="35.43" height="2.83"/><path class="d" d="M648.48,594.64H612.79v-3.08h35.69ZM613,594.39h35.19v-2.58H613Z"/><rect class="c" x="612.92" y="601.6" width="70.74" height="2.83"/><path class="d" d="M683.78,604.56h-71v-3.08h71ZM613,604.31h70.49v-2.58H613Z"/><rect class="c" x="612.92" y="612.72" width="177.16" height="2.84"/><path class="d" d="M790.21,615.68H612.79V612.6H790.21ZM613,615.43H790v-2.58H613Z"/><path class="e" d="M587.26,596.28h-.8v-4.82l-.81.5v-.83l.81-.53h.8Z"/><path class="e" d="M589,595.91a1.67,1.67,0,0,1-.41-1.19v-2.58A1.65,1.65,0,0,1,589,591a2,2,0,0,1,2.42,0,1.65,1.65,0,0,1,.41,1.19v2.58a1.65,1.65,0,0,1-.41,1.19,2,2,0,0,1-2.42,0Zm1.83-.55a.89.89,0,0,0,.2-.64v-2.58a.89.89,0,0,0-.2-.64.82.82,0,0,0-.62-.22.86.86,0,0,0-.63.22.94.94,0,0,0-.2.64v2.58a.9.9,0,0,0,.21.64,1,1,0,0,0,1.24,0Z"/><path class="e" d="M593.22,595.91a1.67,1.67,0,0,1-.41-1.19v-2.58a1.65,1.65,0,0,1,.41-1.19,2,2,0,0,1,2.42,0,1.61,1.61,0,0,1,.41,1.19v2.58a1.65,1.65,0,0,1-.41,1.19,2,2,0,0,1-2.42,0Zm1.83-.55a.9.9,0,0,0,.21-.64v-2.58a.94.94,0,0,0-.2-.64.86.86,0,0,0-.63-.22.82.82,0,0,0-.62.22.89.89,0,0,0-.2.64v2.58a.89.89,0,0,0,.2.64,1,1,0,0,0,1.24,0Z"/><path class="e" d="M600.1,596.13a1.45,1.45,0,0,1-.6-.6,2.06,2.06,0,0,1-.21-1v-.67a2,2,0,0,1,.21-.94,1.37,1.37,0,0,1,.6-.59,2,2,0,0,1,.95-.21,2.21,2.21,0,0,1,.59.08,1.68,1.68,0,0,1,.51.22,1.54,1.54,0,0,1,.37.35l-.58.52a1.17,1.17,0,0,0-.4-.3,1.13,1.13,0,0,0-.48-.11.94.94,0,0,0-.71.26,1,1,0,0,0-.26.72v.67a1,1,0,0,0,.25.74.94.94,0,0,0,.72.27,1,1,0,0,0,.48-.12,1,1,0,0,0,.4-.32l.58.56a1.38,1.38,0,0,1-.38.34,1.62,1.62,0,0,1-.5.22,2.27,2.27,0,0,1-.59.07A2.12,2.12,0,0,1,600.1,596.13Z"/><path class="e" d="M603.4,592.22h.79v4.06h-.79Zm2.42,1.6a1,1,0,0,0-.21-.67.78.78,0,0,0-.6-.23.81.81,0,0,0-.6.21.73.73,0,0,0-.22.58l-.08-.78a1.46,1.46,0,0,1,.49-.57,1.22,1.22,0,0,1,.67-.2,1.33,1.33,0,0,1,.73.2,1.18,1.18,0,0,1,.46.56,2.4,2.4,0,0,1,.15.89v2.47h-.79Zm2.42,0a.93.93,0,0,0-.22-.67.85.85,0,0,0-.63-.23.72.72,0,0,0-.57.23.9.9,0,0,0-.21.64l-.16-.78a1.61,1.61,0,0,1,.51-.63,1.23,1.23,0,0,1,.69-.22,1.37,1.37,0,0,1,.75.2,1.09,1.09,0,0,1,.47.56,2.21,2.21,0,0,1,.17.89v2.47h-.8Z"/><path class="e" d="M584.33,605.5l2-2.64a1.85,1.85,0,0,0,.27-.47,1.29,1.29,0,0,0,.09-.45h0a.67.67,0,0,0-.2-.53.81.81,0,0,0-.56-.19.76.76,0,0,0-.56.21,1,1,0,0,0-.27.58h-.82a2,2,0,0,1,.29-.83,1.42,1.42,0,0,1,.56-.53,1.67,1.67,0,0,1,.79-.18,1.93,1.93,0,0,1,.87.17,1.21,1.21,0,0,1,.54.51,1.55,1.55,0,0,1,.19.8h0a1.84,1.84,0,0,1-.12.63,2.8,2.8,0,0,1-.35.63l-1.65,2.24h2.15v.76h-3.2Z"/><path class="e" d="M589,605.83a1.67,1.67,0,0,1-.41-1.19v-2.58a1.65,1.65,0,0,1,.41-1.19,2,2,0,0,1,2.42,0,1.65,1.65,0,0,1,.41,1.19v2.58a1.65,1.65,0,0,1-.41,1.19,2,2,0,0,1-2.42,0Zm1.83-.55a.89.89,0,0,0,.2-.64v-2.58a.89.89,0,0,0-.2-.64.82.82,0,0,0-.62-.22.86.86,0,0,0-.63.22.94.94,0,0,0-.19.64v2.58a.89.89,0,0,0,.2.64,1,1,0,0,0,1.24,0Z"/><path class="e" d="M593.22,605.83a1.67,1.67,0,0,1-.41-1.19v-2.58a1.61,1.61,0,0,1,.42-1.19,1.59,1.59,0,0,1,1.2-.42,1.45,1.45,0,0,1,1.62,1.61v2.58a1.61,1.61,0,0,1-.41,1.19,2,2,0,0,1-2.42,0Zm1.84-.55a.94.94,0,0,0,.2-.64v-2.58a.94.94,0,0,0-.2-.64.84.84,0,0,0-.63-.22.82.82,0,0,0-.62.22.89.89,0,0,0-.2.64v2.58a.89.89,0,0,0,.2.64.82.82,0,0,0,.62.22A.86.86,0,0,0,595.06,605.28Z"/><path class="e" d="M600.1,606.05a1.45,1.45,0,0,1-.6-.6,2.06,2.06,0,0,1-.2-1v-.67a2,2,0,0,1,.2-.94,1.37,1.37,0,0,1,.6-.59,2,2,0,0,1,.95-.21,2.35,2.35,0,0,1,.6.08,1.73,1.73,0,0,1,.5.22,1.38,1.38,0,0,1,.37.35l-.58.52a1.08,1.08,0,0,0-.4-.3,1.13,1.13,0,0,0-.48-.11,1,1,0,0,0-.71.26,1,1,0,0,0-.26.72v.67a1,1,0,0,0,.25.74.94.94,0,0,0,.72.27,1.14,1.14,0,0,0,.88-.44l.58.56a1.38,1.38,0,0,1-.38.34,1.62,1.62,0,0,1-.5.22,2.22,2.22,0,0,1-.59.07A2.12,2.12,0,0,1,600.1,606.05Z"/><path class="e" d="M603.4,602.14h.79v4.06h-.79Zm2.42,1.6a1,1,0,0,0-.21-.67.78.78,0,0,0-.6-.23.81.81,0,0,0-.6.21.73.73,0,0,0-.22.58l-.08-.78a1.46,1.46,0,0,1,.49-.57,1.22,1.22,0,0,1,.67-.2,1.3,1.3,0,0,1,.73.2,1.18,1.18,0,0,1,.46.56,2.4,2.4,0,0,1,.16.89v2.47h-.8Zm2.42,0a.93.93,0,0,0-.22-.67.85.85,0,0,0-.63-.23.73.73,0,0,0-.57.23.89.89,0,0,0-.2.64l-.16-.78a1.51,1.51,0,0,1,.5-.63,1.23,1.23,0,0,1,.69-.22,1.35,1.35,0,0,1,.75.2,1.16,1.16,0,0,1,.48.56,2.4,2.4,0,0,1,.16.89v2.47h-.8Z"/><path class="e" d="M585,615.58a1.34,1.34,0,0,1-.54-.49,2,2,0,0,1-.28-.77h.8a.75.75,0,0,0,.25.49.85.85,0,0,0,.54.17.72.72,0,0,0,.59-.25,1.1,1.1,0,0,0,.21-.72v-.48a1.1,1.1,0,0,0-.21-.72.72.72,0,0,0-.59-.25.83.83,0,0,0-.4.11,1.18,1.18,0,0,0-.34.33h-.72v-3h2.89v.76h-2.1V612a1,1,0,0,1,.34-.18.94.94,0,0,1,.37-.07,1.68,1.68,0,0,1,.84.2,1.29,1.29,0,0,1,.53.6,2.07,2.07,0,0,1,.19.94V614a2.25,2.25,0,0,1-.19.94,1.31,1.31,0,0,1-.55.59,1.69,1.69,0,0,1-.86.21A1.74,1.74,0,0,1,585,615.58Z"/><path class="e" d="M589,615.32a1.65,1.65,0,0,1-.41-1.19v-2.58a1.67,1.67,0,0,1,.41-1.19,2,2,0,0,1,2.42,0,1.65,1.65,0,0,1,.41,1.19v2.58a1.64,1.64,0,0,1-.41,1.19,1.92,1.92,0,0,1-2.42,0Zm1.83-.55a.89.89,0,0,0,.2-.64v-2.58a.88.88,0,0,0-.2-.63.78.78,0,0,0-.62-.22.82.82,0,0,0-.63.22.93.93,0,0,0-.2.63v2.58a.9.9,0,0,0,.21.64,1,1,0,0,0,1.24,0Z"/><path class="e" d="M593.22,615.32a1.65,1.65,0,0,1-.41-1.19v-2.58a1.67,1.67,0,0,1,.41-1.19,2,2,0,0,1,2.42,0,1.61,1.61,0,0,1,.41,1.19v2.58a1.64,1.64,0,0,1-.41,1.19,1.92,1.92,0,0,1-2.42,0Zm1.83-.55a.9.9,0,0,0,.21-.64v-2.58a.93.93,0,0,0-.2-.63.82.82,0,0,0-.63-.22.78.78,0,0,0-.62.22.88.88,0,0,0-.2.63v2.58a.89.89,0,0,0,.2.64,1,1,0,0,0,1.24,0Z"/><path class="e" d="M600.1,615.54a1.45,1.45,0,0,1-.6-.6,2,2,0,0,1-.21-1v-.67a2,2,0,0,1,.21-.94,1.45,1.45,0,0,1,.6-.6,2,2,0,0,1,.95-.2,2.22,2.22,0,0,1,.59.07,2,2,0,0,1,.51.22,1.76,1.76,0,0,1,.37.35l-.58.52a1.17,1.17,0,0,0-.4-.3,1.13,1.13,0,0,0-.48-.11.94.94,0,0,0-.71.26,1,1,0,0,0-.26.73V614a1.07,1.07,0,0,0,.25.74,1,1,0,0,0,.72.26,1.13,1.13,0,0,0,.48-.11,1.26,1.26,0,0,0,.4-.32l.58.55a1.42,1.42,0,0,1-.38.35,1.88,1.88,0,0,1-.5.21,2.27,2.27,0,0,1-.59.08A2,2,0,0,1,600.1,615.54Z"/><path class="e" d="M603.4,611.63h.79v4.06h-.79Zm2.42,1.6a1,1,0,0,0-.21-.66.75.75,0,0,0-.6-.24.81.81,0,0,0-.6.21.75.75,0,0,0-.22.58l-.08-.78a1.5,1.5,0,0,1,.49-.56,1.15,1.15,0,0,1,.67-.2,1.32,1.32,0,0,1,.73.19,1.28,1.28,0,0,1,.46.56,2.42,2.42,0,0,1,.15.9v2.46h-.79Zm2.42,0a.91.91,0,0,0-.22-.66.82.82,0,0,0-.63-.24.72.72,0,0,0-.57.23.9.9,0,0,0-.21.64l-.16-.78a1.51,1.51,0,0,1,.51-.62,1.16,1.16,0,0,1,.69-.22,1.37,1.37,0,0,1,.75.19,1.18,1.18,0,0,1,.47.56,2.22,2.22,0,0,1,.17.9v2.46h-.8Z"/><path class="c" d="M23.49,613.89A12.92,12.92,0,1,1,36.4,601,12.93,12.93,0,0,1,23.49,613.89Zm0-24.83A11.92,11.92,0,1,0,35.4,601,11.93,11.93,0,0,0,23.49,589.06Z"/><polygon class="d" points="35.77 588.74 9.42 600.98 35.77 613.21 32.02 600.98 35.77 588.74"/><path class="c" d="M36.58,614.14,8.23,601l28.35-13.17-4,13.17ZM10.61,601,35,612.29,31.5,601,35,589.66Z"/><path class="c" d="M2.52,605.19a5,5,0,0,1-1.11-.38,4.4,4.4,0,0,1-1-.64l.81-1a3.72,3.72,0,0,0,1.16.69,4.08,4.08,0,0,0,1.38.23,2.73,2.73,0,0,0,1.55-.38,1.17,1.17,0,0,0,.55-1.05h0a1.12,1.12,0,0,0-.25-.77,1.44,1.44,0,0,0-.64-.42,8.23,8.23,0,0,0-1-.25H3.89l-.1,0a9.48,9.48,0,0,1-1.5-.36,2.08,2.08,0,0,1-1-.73,2.42,2.42,0,0,1-.41-1.51h0a2.77,2.77,0,0,1,.38-1.47,2.44,2.44,0,0,1,1.12-.92,4.48,4.48,0,0,1,1.77-.32,4.6,4.6,0,0,1,1,.11,4.9,4.9,0,0,1,1.86.86l-.73,1a4.61,4.61,0,0,0-1-.58,3,3,0,0,0-1.06-.2,2.44,2.44,0,0,0-1.46.38,1.24,1.24,0,0,0-.53,1.07h0a1,1,0,0,0,.27.75,1.74,1.74,0,0,0,.67.4,9.3,9.3,0,0,0,1.12.27h.24a7.93,7.93,0,0,1,1.4.41,2.22,2.22,0,0,1,.94.76,2.4,2.4,0,0,1,.38,1.43h0a2.62,2.62,0,0,1-.4,1.45,2.54,2.54,0,0,1-1.16.91,4.8,4.8,0,0,1-1.83.31A6.44,6.44,0,0,1,2.52,605.19Z"/><rect class="c" x="612.5" y="600.68" width="1" height="4.68"/><rect class="c" x="612.5" y="590.76" width="1" height="4.68"/><rect class="c" x="612.5" y="611.45" width="1" height="5.24"/><rect class="c" x="789.58" y="611.45" width="1" height="5.24"/><rect class="c" x="682.59" y="600.68" width="1" height="4.68"/><rect class="c" x="647.3" y="590.76" width="1" height="4.68"/><rect class="a" width="790.34" height="618.13"/><line class="f" x1="238.67" y1="239.69" x2="241.45" y2="239.69"/><line class="f" x1="546.18" y1="187.66" x2="244.23" y2="187.66"/><line class="f" x1="546.18" y1="239.69" x2="546.18" y2="187.66"/><line class="f" x1="458.25" y1="239.69" x2="546.18" y2="239.69"/><line class="f" x1="458.25" y1="243.16" x2="458.25" y2="239.69"/><line class="f" x1="427.03" y1="243.16" x2="458.25" y2="243.16"/><line class="f" x1="427.03" y1="239.69" x2="427.03" y2="243.16"/><line class="f" x1="375" y1="239.69" x2="427.03" y2="239.69"/><line class="f" x1="375" y1="243.16" x2="375" y2="239.69"/><line class="f" x1="343.78" y1="243.16" x2="375" y2="243.16"/><line class="f" x1="343.78" y1="239.69" x2="343.78" y2="243.16"/><line class="f" x1="244.23" y1="239.69" x2="343.78" y2="239.69"/><line class="f" x1="244.23" y1="187.66" x2="244.23" y2="239.69"/><line class="f" x1="548.96" y1="239.69" x2="551.91" y2="239.69"/><rect class="d" x="337.19" y="408.28" width="27.75" height="17.34"/><line class="f" x1="337.19" y1="408.28" x2="337.19" y2="425.62"/><line class="f" x1="364.94" y1="408.28" x2="337.19" y2="408.28"/><line class="f" x1="364.94" y1="425.62" x2="364.94" y2="408.28"/><line class="f" x1="337.19" y1="425.62" x2="364.94" y2="425.62"/><rect class="d" x="247.87" y="360.58" width="27.75" height="41.63"/><line class="f" x1="247.87" y1="360.58" x2="247.87" y2="402.21"/><line class="f" x1="275.62" y1="360.58" x2="247.87" y2="360.58"/><line class="f" x1="275.62" y1="402.21" x2="275.62" y2="360.58"/><line class="f" x1="247.87" y1="402.21" x2="275.62" y2="402.21"/><line class="f" x1="551.91" y1="404.81" x2="551.91" y2="425.62"/><line class="f" x1="551.91" y1="342.37" x2="551.91" y2="404.81"/><line class="f" x1="551.91" y1="342.37" x2="551.91" y2="342.37"/><line class="f" x1="551.91" y1="425.62" x2="551.91" y2="425.62"/><rect class="d" x="445.07" y="404.46" width="98.51" height="21.16"/><line class="f" x1="445.07" y1="404.46" x2="445.07" y2="425.62"/><line class="f" x1="543.58" y1="404.46" x2="445.07" y2="404.46"/><line class="f" x1="543.58" y1="425.62" x2="543.58" y2="404.46"/><line class="f" x1="445.07" y1="425.62" x2="543.58" y2="425.62"/><rect class="d" x="522.42" y="352.43" width="21.16" height="52.03"/><line class="f" x1="543.58" y1="404.46" x2="522.42" y2="404.46"/><line class="f" x1="522.42" y1="404.46" x2="522.42" y2="352.43"/><line class="f" x1="522.42" y1="352.43" x2="543.58" y2="352.43"/><line class="f" x1="543.58" y1="352.43" x2="543.58" y2="404.46"/><polygon class="g" points="238.68 239.69 242.66 239.69 288.28 239.69 288.28 246.63 238.68 246.63 238.68 239.69"/><polygon class="g" points="551.91 246.63 513.75 246.63 513.75 239.69 547.57 239.69 551.91 239.69 551.91 246.63"/><rect x="375" y="239.69" width="52.03" height="6.94"/><rect x="376.73" y="246.63" width="48.56" height="6.94"/><rect x="238.67" y="246.63" width="47.87" height="6.94"/><rect x="515.48" y="246.63" width="36.42" height="6.94"/><polygon class="g" points="342.39 357.28 342.39 359.71 337.19 359.71 337.19 368.38 334.76 368.38 334.76 359.71 247 359.71 247 357.28 342.39 357.28"/><polygon class="g" points="238.68 433.95 238.68 253.57 247 253.57 247 425.62 373.61 425.62 373.61 433.95 247 433.95 238.68 433.95"/><polygon class="g" points="551.91 433.95 411.77 433.95 411.77 425.62 543.58 425.62 543.58 253.57 551.91 253.57 551.91 425.62 551.91 433.95"/><polygon class="g" points="420.44 357.28 420.44 368.38 418.01 368.38 418.01 359.71 373.61 359.71 373.61 357.28 399.63 357.28 399.63 253.57 402.06 253.57 402.06 357.28 420.44 357.28"/><rect x="410.03" y="429.95" width="1.73" height="3.99"/><rect x="373.61" y="429.95" width="1.73" height="3.99"/><rect x="334.76" y="396.13" width="2.43" height="29.49"/><polygon class="g" points="420.44 425.62 418.01 425.62 418.01 399.6 420.44 399.6 420.44 404.81 420.44 425.62"/><rect x="247" y="403.07" width="27.75" height="3.47"/><rect x="271.28" y="406.54" width="3.47" height="19.08"/><polygon class="g" points="420.44 404.81 444.72 404.81 444.72 425.62 441.25 425.62 441.25 408.28 420.44 408.28 420.44 404.81"/><rect x="546.18" y="187.66" width="1.39" height="52.03"/><rect x="242.66" y="187.66" width="1.56" height="52.03"/><line class="f" x1="286.54" y1="253.57" x2="286.54" y2="246.63"/><line class="f" x1="376.73" y1="253.57" x2="376.73" y2="246.63"/><line class="f" x1="425.3" y1="253.57" x2="425.3" y2="246.63"/><line class="f" x1="238.67" y1="239.69" x2="242.66" y2="239.69"/><line class="f" x1="242.66" y1="239.69" x2="288.28" y2="239.69"/><line class="f" x1="375" y1="239.69" x2="427.03" y2="239.69"/><line class="f" x1="513.75" y1="239.69" x2="547.57" y2="239.69"/><line class="f" x1="547.57" y1="239.69" x2="551.91" y2="239.69"/><line class="f" x1="247" y1="253.57" x2="286.54" y2="253.57"/><line class="f" x1="376.73" y1="253.57" x2="399.63" y2="253.57"/><line class="f" x1="402.06" y1="253.57" x2="425.3" y2="253.57"/><line class="f" x1="515.48" y1="253.57" x2="543.58" y2="253.57"/><line class="f" x1="551.91" y1="253.57" x2="551.91" y2="253.57"/><line class="f" x1="515.48" y1="253.57" x2="515.48" y2="246.63"/><line class="f" x1="425.3" y1="253.57" x2="425.3" y2="246.63"/><line class="f" x1="244.23" y1="187.66" x2="244.23" y2="239.69"/><line class="f" x1="242.66" y1="187.66" x2="244.22" y2="187.66"/><line class="f" x1="546.18" y1="187.66" x2="546.18" y2="239.69"/><line class="f" x1="546.18" y1="187.66" x2="547.57" y2="187.66"/><line class="f" x1="288.28" y1="246.63" x2="288.28" y2="239.69"/><line class="f" x1="286.54" y1="246.63" x2="288.28" y2="246.63"/><line class="f" x1="427.03" y1="246.63" x2="427.03" y2="239.69"/><line class="f" x1="425.3" y1="246.63" x2="427.03" y2="246.63"/><line class="f" x1="375" y1="246.63" x2="375" y2="239.69"/><line class="f" x1="376.73" y1="246.63" x2="375" y2="246.63"/><line class="f" x1="513.75" y1="246.63" x2="513.75" y2="239.69"/><line class="f" x1="515.48" y1="246.63" x2="513.75" y2="246.63"/><line class="f" x1="242.66" y1="187.66" x2="547.57" y2="187.66"/><line class="f" x1="242.66" y1="187.66" x2="547.57" y2="187.66"/><line class="f" x1="515.48" y1="253.57" x2="459.98" y2="253.57"/><line class="f" x1="459.98" y1="253.57" x2="425.3" y2="253.57"/><line class="f" x1="513.75" y1="239.69" x2="458.25" y2="239.69"/><line class="f" x1="459.98" y1="253.57" x2="459.98" y2="246.63"/><line class="f" x1="458.25" y1="246.63" x2="458.25" y2="239.69"/><line class="f" x1="458.25" y1="243.16" x2="427.03" y2="243.16"/><line class="f" x1="457.21" y1="247.32" x2="457.21" y2="246.63"/><line class="f" x1="457.21" y1="246.63" x2="459.98" y2="246.63"/><line class="f" x1="459.98" y1="246.63" x2="459.98" y2="249.41"/><line class="f" x1="459.98" y1="249.41" x2="458.6" y2="249.41"/><line class="f" x1="458.6" y1="250.1" x2="455.82" y2="250.1"/><line class="f" x1="455.82" y1="250.1" x2="455.82" y2="247.32"/><line class="f" x1="455.82" y1="247.32" x2="458.6" y2="247.32"/><line class="f" x1="458.6" y1="247.32" x2="458.6" y2="250.1"/><line class="f" x1="426.68" y1="250.1" x2="429.46" y2="250.1"/><line class="f" x1="429.46" y1="250.1" x2="429.46" y2="247.32"/><line class="f" x1="429.46" y1="247.32" x2="426.68" y2="247.32"/><line class="f" x1="426.68" y1="247.32" x2="426.68" y2="250.1"/><line class="f" x1="455.82" y1="250.1" x2="429.46" y2="250.1"/><line class="f" x1="429.46" y1="247.32" x2="455.82" y2="247.32"/><line class="f" x1="455.82" y1="248.71" x2="429.46" y2="248.71"/><line class="f" x1="428.07" y1="247.32" x2="428.07" y2="246.63"/><line class="f" x1="428.07" y1="246.63" x2="425.3" y2="246.63"/><line class="f" x1="425.3" y1="246.63" x2="425.3" y2="249.41"/><line class="f" x1="425.3" y1="249.41" x2="426.68" y2="249.41"/><line class="f" x1="459.98" y1="249.41" x2="462.76" y2="249.41"/><line class="f" x1="462.76" y1="249.41" x2="462.76" y2="246.63"/><line class="f" x1="462.76" y1="246.63" x2="459.98" y2="246.63"/><line class="f" x1="459.98" y1="246.63" x2="459.98" y2="249.41"/><line class="f" x1="462.76" y1="249.41" x2="486.35" y2="249.41"/><line class="f" x1="462.76" y1="248.02" x2="486.35" y2="248.02"/><line class="f" x1="462.76" y1="246.63" x2="486.35" y2="246.63"/><line class="f" x1="512.71" y1="247.32" x2="512.71" y2="246.63"/><line class="f" x1="512.71" y1="246.63" x2="515.48" y2="246.63"/><line class="f" x1="515.48" y1="246.63" x2="515.48" y2="249.41"/><line class="f" x1="515.48" y1="249.41" x2="514.1" y2="249.41"/><line class="f" x1="514.1" y1="250.1" x2="511.32" y2="250.1"/><line class="f" x1="511.32" y1="250.1" x2="511.32" y2="247.32"/><line class="f" x1="511.32" y1="247.32" x2="514.1" y2="247.32"/><line class="f" x1="514.1" y1="247.32" x2="514.1" y2="250.1"/><line class="f" x1="511.32" y1="250.1" x2="490.51" y2="250.1"/><line class="f" x1="490.51" y1="247.32" x2="511.32" y2="247.32"/><line class="f" x1="511.32" y1="248.71" x2="490.51" y2="248.71"/><line class="f" x1="489.12" y1="247.32" x2="489.12" y2="246.63"/><line class="f" x1="489.12" y1="246.63" x2="486.35" y2="246.63"/><line class="f" x1="486.35" y1="246.63" x2="486.35" y2="249.41"/><line class="f" x1="486.35" y1="249.41" x2="487.74" y2="249.41"/><line class="f" x1="487.73" y1="250.1" x2="490.51" y2="250.1"/><line class="f" x1="490.51" y1="250.1" x2="490.51" y2="247.32"/><line class="f" x1="490.51" y1="247.32" x2="487.73" y2="247.32"/><line class="f" x1="487.73" y1="247.32" x2="487.73" y2="250.1"/><line class="f" x1="286.54" y1="253.57" x2="342.04" y2="253.57"/><line class="f" x1="342.04" y1="253.57" x2="376.73" y2="253.57"/><line class="f" x1="288.28" y1="239.69" x2="343.78" y2="239.69"/><line class="f" x1="342.04" y1="253.57" x2="342.04" y2="246.63"/><line class="f" x1="343.78" y1="246.63" x2="343.78" y2="239.69"/><line class="f" x1="343.78" y1="243.16" x2="375" y2="243.16"/><line class="f" x1="344.82" y1="247.32" x2="344.82" y2="246.63"/><line class="f" x1="344.82" y1="246.63" x2="342.05" y2="246.63"/><line class="f" x1="342.04" y1="246.63" x2="342.04" y2="249.41"/><line class="f" x1="342.04" y1="249.41" x2="343.43" y2="249.41"/><line class="f" x1="343.43" y1="250.1" x2="346.21" y2="250.1"/><line class="f" x1="346.21" y1="250.1" x2="346.21" y2="247.32"/><line class="f" x1="346.21" y1="247.32" x2="343.43" y2="247.32"/><line class="f" x1="343.43" y1="247.32" x2="343.43" y2="250.1"/><line class="f" x1="375.35" y1="250.1" x2="372.57" y2="250.1"/><line class="f" x1="372.57" y1="250.1" x2="372.57" y2="247.32"/><line class="f" x1="372.57" y1="247.32" x2="375.35" y2="247.32"/><line class="f" x1="375.35" y1="247.32" x2="375.35" y2="250.1"/><line class="f" x1="346.21" y1="250.1" x2="372.57" y2="250.1"/><line class="f" x1="372.57" y1="247.32" x2="346.21" y2="247.32"/><line class="f" x1="346.21" y1="248.71" x2="372.57" y2="248.71"/><line class="f" x1="373.96" y1="247.32" x2="373.96" y2="246.63"/><line class="f" x1="373.96" y1="246.63" x2="376.73" y2="246.63"/><line class="f" x1="376.73" y1="246.63" x2="376.73" y2="249.41"/><line class="f" x1="376.73" y1="249.41" x2="375.34" y2="249.41"/><line class="f" x1="342.04" y1="249.41" x2="339.27" y2="249.41"/><line class="f" x1="339.27" y1="249.41" x2="339.27" y2="246.63"/><line class="f" x1="339.27" y1="246.63" x2="342.05" y2="246.63"/><line class="f" x1="342.04" y1="246.63" x2="342.04" y2="249.41"/><line class="f" x1="339.27" y1="249.41" x2="315.68" y2="249.41"/><line class="f" x1="339.27" y1="248.02" x2="315.68" y2="248.02"/><line class="f" x1="339.27" y1="246.63" x2="315.68" y2="246.63"/><line class="f" x1="289.32" y1="247.32" x2="289.32" y2="246.63"/><line class="f" x1="289.32" y1="246.63" x2="286.54" y2="246.63"/><line class="f" x1="286.54" y1="246.63" x2="286.54" y2="249.41"/><line class="f" x1="286.54" y1="249.41" x2="287.93" y2="249.41"/><line class="f" x1="287.93" y1="250.1" x2="290.71" y2="250.1"/><line class="f" x1="290.71" y1="250.1" x2="290.71" y2="247.32"/><line class="f" x1="290.71" y1="247.32" x2="287.93" y2="247.32"/><line class="f" x1="287.93" y1="247.32" x2="287.93" y2="250.1"/><line class="f" x1="290.71" y1="250.1" x2="311.52" y2="250.1"/><line class="f" x1="311.52" y1="247.32" x2="290.71" y2="247.32"/><line class="f" x1="290.71" y1="248.71" x2="311.52" y2="248.71"/><line class="f" x1="312.91" y1="247.32" x2="312.91" y2="246.63"/><line class="f" x1="312.91" y1="246.63" x2="315.68" y2="246.63"/><line class="f" x1="315.68" y1="246.63" x2="315.68" y2="249.41"/><line class="f" x1="315.68" y1="249.41" x2="314.29" y2="249.41"/><line class="f" x1="314.29" y1="250.1" x2="311.52" y2="250.1"/><line class="f" x1="311.52" y1="250.1" x2="311.52" y2="247.32"/><line class="f" x1="311.52" y1="247.32" x2="314.29" y2="247.32"/><line class="f" x1="314.29" y1="247.32" x2="314.29" y2="250.1"/><line class="f" x1="411.77" y1="425.62" x2="418.01" y2="425.62"/><line class="f" x1="543.58" y1="253.57" x2="543.58" y2="425.62"/><line class="f" x1="238.67" y1="430.48" x2="238.67" y2="413.13"/><line class="f" x1="238.67" y1="410.7" x2="238.67" y2="253.57"/><line class="f" x1="247" y1="357.28" x2="247" y2="253.57"/><line class="f" x1="334.76" y1="368.39" x2="334.76" y2="359.71"/><line class="f" x1="337.19" y1="368.39" x2="337.19" y2="359.71"/><line class="f" x1="399.63" y1="357.28" x2="399.63" y2="253.57"/><line class="f" x1="402.06" y1="357.28" x2="402.06" y2="253.57"/><line class="f" x1="247" y1="357.28" x2="342.39" y2="357.28"/><line class="f" x1="373.61" y1="357.28" x2="399.63" y2="357.28"/><line class="f" x1="247" y1="359.71" x2="334.76" y2="359.71"/><line class="f" x1="337.19" y1="359.71" x2="342.39" y2="359.71"/><line class="f" x1="238.67" y1="410.7" x2="238.67" y2="410.7"/><line class="f" x1="238.67" y1="413.13" x2="238.67" y2="413.13"/><line class="f" x1="238.67" y1="430.48" x2="238.67" y2="430.48"/><line class="f" x1="238.67" y1="433.95" x2="238.67" y2="433.95"/><line class="f" x1="444.72" y1="425.62" x2="543.58" y2="425.62"/><line class="f" x1="247" y1="433.95" x2="373.61" y2="433.95"/><line class="f" x1="411.77" y1="433.95" x2="551.91" y2="433.95"/><line class="f" x1="247" y1="433.95" x2="247" y2="433.95"/><line class="f" x1="444.72" y1="404.81" x2="444.72" y2="425.62"/><line class="f" x1="334.76" y1="396.13" x2="337.19" y2="396.13"/><line class="f" x1="334.76" y1="368.39" x2="337.19" y2="368.39"/><line class="f" x1="373.61" y1="357.28" x2="373.61" y2="359.71"/><line class="f" x1="342.39" y1="357.28" x2="342.39" y2="359.71"/><line class="f" x1="238.67" y1="433.95" x2="238.67" y2="433.95"/><line class="f" x1="426.68" y1="250.1" x2="426.68" y2="282.01"/><g class="h"><path class="f" d="M458.6,250.1A31.92,31.92,0,0,1,426.68,282"/></g><line class="f" x1="375.35" y1="250.1" x2="375.35" y2="282.01"/><g class="h"><path class="f" d="M375.35,282a31.92,31.92,0,0,1-31.92-31.91"/></g><line class="f" x1="371.88" y1="357.28" x2="344.13" y2="357.28"/><line class="f" x1="371.88" y1="357.28" x2="371.88" y2="329.53"/><g class="h"><path class="f" d="M344.13,357.28a27.75,27.75,0,0,1,27.75-27.75"/></g><line class="f" x1="371.88" y1="359.71" x2="371.88" y2="357.28"/><line class="f" x1="344.13" y1="357.28" x2="344.13" y2="359.71"/><line class="f" x1="344.13" y1="357.28" x2="342.39" y2="357.28"/><line class="f" x1="344.13" y1="359.71" x2="342.39" y2="359.71"/><line class="f" x1="373.61" y1="357.28" x2="371.88" y2="357.28"/><line class="f" x1="373.61" y1="359.71" x2="371.88" y2="359.71"/><line class="f" x1="371.88" y1="359.71" x2="364.94" y2="359.71"/><line class="f" x1="361.12" y1="359.71" x2="360.34" y2="359.71"/><line class="f" x1="356.53" y1="359.71" x2="355.75" y2="359.71"/><line class="f" x1="351.93" y1="359.71" x2="351.06" y2="359.71"/><line class="f" x1="351.06" y1="359.71" x2="344.13" y2="359.71"/><line class="f" x1="371.88" y1="357.28" x2="371.88" y2="356.42"/><line class="f" x1="371.88" y1="356.42" x2="375.34" y2="356.42"/><line class="f" x1="375.35" y1="356.42" x2="375.35" y2="357.28"/><line class="f" x1="371.88" y1="359.71" x2="371.88" y2="360.58"/><line class="f" x1="371.88" y1="360.58" x2="375.34" y2="360.58"/><line class="f" x1="375.35" y1="360.58" x2="375.35" y2="359.71"/><line class="f" x1="344.13" y1="356.42" x2="340.66" y2="356.42"/><line class="f" x1="340.66" y1="356.42" x2="340.66" y2="357.28"/><line class="f" x1="344.13" y1="359.71" x2="344.13" y2="360.58"/><line class="f" x1="344.13" y1="360.58" x2="340.66" y2="360.58"/><line class="f" x1="340.66" y1="360.58" x2="340.66" y2="359.71"/><line class="f" x1="337.19" y1="394.4" x2="337.19" y2="370.12"/><line class="f" x1="337.19" y1="394.4" x2="361.47" y2="394.4"/><g class="h"><path class="f" d="M337.19,370.12a24.28,24.28,0,0,1,24.28,24.28"/></g><line class="f" x1="334.76" y1="394.4" x2="337.19" y2="394.4"/><line class="f" x1="337.19" y1="370.12" x2="334.76" y2="370.12"/><line class="f" x1="337.19" y1="370.12" x2="337.19" y2="368.39"/><line class="f" x1="334.76" y1="370.12" x2="334.76" y2="368.39"/><line class="f" x1="337.19" y1="396.13" x2="337.19" y2="394.4"/><line class="f" x1="334.76" y1="396.13" x2="334.76" y2="394.4"/><line class="f" x1="334.76" y1="394.4" x2="334.76" y2="387.46"/><line class="f" x1="334.76" y1="383.65" x2="334.76" y2="382.87"/><line class="f" x1="334.76" y1="379.05" x2="334.76" y2="378.27"/><line class="f" x1="334.76" y1="377.06" x2="334.76" y2="370.12"/><line class="f" x1="337.19" y1="394.4" x2="338.05" y2="394.4"/><line class="f" x1="338.06" y1="394.4" x2="338.06" y2="397.87"/><line class="f" x1="338.06" y1="397.87" x2="337.19" y2="397.87"/><line class="f" x1="334.76" y1="394.4" x2="333.89" y2="394.4"/><line class="f" x1="333.89" y1="394.4" x2="333.89" y2="397.87"/><line class="f" x1="333.89" y1="397.87" x2="334.76" y2="397.87"/><line class="f" x1="338.06" y1="370.12" x2="338.06" y2="366.65"/><line class="f" x1="338.06" y1="366.65" x2="337.19" y2="366.65"/><line class="f" x1="334.76" y1="370.12" x2="333.89" y2="370.12"/><line class="f" x1="333.89" y1="370.12" x2="333.89" y2="366.65"/><line class="f" x1="333.89" y1="366.65" x2="334.76" y2="366.65"/><line class="f" x1="465.88" y1="425.27" x2="465.88" y2="404.46"/><line class="f" x1="457.93" y1="412.41" x2="453.02" y2="417.32"/><line class="f" x1="453.02" y1="412.41" x2="457.93" y2="417.32"/><line class="f" x1="455.47" y1="418.33" x2="455.47" y2="411.4"/><line class="f" x1="458.94" y1="414.87" x2="452.01" y2="414.87"/><line class="f" x1="445.07" y1="404.46" x2="445.07" y2="425.27"/><line class="f" x1="465.88" y1="404.46" x2="445.07" y2="404.46"/><line class="f" x1="466.75" y1="406.19" x2="485.83" y2="406.19"/><line class="f" x1="485.83" y1="406.19" x2="485.83" y2="423.54"/><line class="f" x1="485.83" y1="423.54" x2="466.75" y2="423.54"/><line class="f" x1="466.75" y1="423.54" x2="466.75" y2="406.19"/><line class="f" x1="465.88" y1="404.46" x2="486.69" y2="404.46"/><line class="f" x1="468.48" y1="407.93" x2="484.09" y2="407.93"/><line class="f" x1="484.09" y1="407.93" x2="484.09" y2="420.07"/><line class="f" x1="484.09" y1="420.07" x2="468.48" y2="420.07"/><line class="f" x1="468.48" y1="420.07" x2="468.48" y2="407.93"/><g class="h"><path class="f" d="M477,416.6a.7.7,0,1,0-.69.69.69.69,0,0,0,.69-.69"/></g><line class="f" x1="486.69" y1="425.27" x2="486.69" y2="404.46"/><line class="f" x1="486.69" y1="404.46" x2="507.51" y2="404.46"/><line class="f" x1="507.51" y1="404.46" x2="507.51" y2="425.27"/><line class="f" x1="522.42" y1="404.46" x2="522.42" y2="383.65"/><line class="f" x1="522.42" y1="383.65" x2="543.58" y2="383.65"/><line class="f" x1="543.58" y1="383.65" x2="543.58" y2="404.46"/><line class="f" x1="543.58" y1="404.46" x2="522.42" y2="404.46"/><g class="h"><path class="f" d="M538.9,394.05a6.07,6.07,0,1,0-6.07,6.07,6.07,6.07,0,0,0,6.07-6.07"/><path class="f" d="M537.86,394.05a5,5,0,1,0-5,5,5,5,0,0,0,5-5"/><path class="f" d="M541.34,378.35a3.41,3.41,0,1,0-3.4,3.41,3.41,3.41,0,0,0,3.4-3.41"/></g><line class="f" x1="543.24" y1="383.65" x2="522.42" y2="383.65"/><line class="f" x1="522.42" y1="383.65" x2="522.42" y2="362.84"/><line class="f" x1="522.42" y1="362.84" x2="543.24" y2="362.84"/><g class="h"><path class="f" d="M531.13,378.35a3.41,3.41,0,1,0-3.41,3.41,3.41,3.41,0,0,0,3.41-3.41"/><path class="f" d="M531.13,368.13a3.41,3.41,0,1,0-3.41,3.41,3.41,3.41,0,0,0,3.41-3.41"/></g><line class="f" x1="521.48" y1="365.67" x2="521.48" y2="380.81"/><line class="f" x1="445.07" y1="425.27" x2="445.07" y2="404.46"/><line class="f" x1="445.07" y1="404.46" x2="522.42" y2="404.46"/><line class="f" x1="522.42" y1="404.46" x2="522.42" y2="352.43"/><line class="f" x1="522.42" y1="352.43" x2="543.58" y2="352.43"/><line class="f" x1="543.58" y1="352.43" x2="543.58" y2="425.62"/><line class="f" x1="543.58" y1="425.62" x2="446.8" y2="425.62"/><line class="f" x1="402.06" y1="357.28" x2="420.44" y2="357.28"/><line class="f" x1="373.61" y1="359.71" x2="418.01" y2="359.71"/><line class="f" x1="247" y1="403.07" x2="247" y2="359.71"/><line class="f" x1="418.01" y1="399.6" x2="420.44" y2="399.6"/><line class="f" x1="410.03" y1="429.96" x2="410.03" y2="433.95"/><line class="f" x1="373.61" y1="433.95" x2="375.34" y2="433.95"/><line class="f" x1="408.3" y1="429.96" x2="377.08" y2="429.96"/><line class="f" x1="408.3" y1="433.95" x2="377.08" y2="433.95"/><line class="f" x1="408.3" y1="429.96" x2="408.3" y2="398.74"/><g class="h"><path class="f" d="M377.08,430a31.22,31.22,0,0,1,31.22-31.22"/></g><line class="f" x1="408.3" y1="433.95" x2="408.3" y2="429.95"/><line class="f" x1="377.08" y1="429.96" x2="377.08" y2="433.95"/><line class="f" x1="377.08" y1="429.96" x2="375.35" y2="429.96"/><line class="f" x1="377.08" y1="433.95" x2="375.35" y2="433.95"/><line class="f" x1="410.03" y1="429.96" x2="408.3" y2="429.96"/><line class="f" x1="410.03" y1="433.95" x2="408.3" y2="433.95"/><line class="f" x1="420.44" y1="397.87" x2="420.44" y2="370.12"/><line class="f" x1="420.44" y1="397.87" x2="448.19" y2="397.87"/><g class="h"><path class="f" d="M420.44,370.12a27.76,27.76,0,0,1,27.75,27.75"/></g><line class="f" x1="418.01" y1="397.87" x2="420.44" y2="397.87"/><line class="f" x1="420.44" y1="370.12" x2="418.01" y2="370.12"/><line class="f" x1="420.44" y1="370.12" x2="420.44" y2="368.39"/><line class="f" x1="418.01" y1="370.12" x2="418.01" y2="368.39"/><line class="f" x1="420.44" y1="399.6" x2="420.44" y2="397.87"/><line class="f" x1="418.01" y1="399.6" x2="418.01" y2="397.87"/><line class="f" x1="418.01" y1="397.87" x2="418.01" y2="390.93"/><line class="f" x1="418.01" y1="387.12" x2="418.01" y2="386.34"/><line class="f" x1="418.01" y1="382.52" x2="418.01" y2="381.74"/><line class="f" x1="418.01" y1="377.92" x2="418.01" y2="377.06"/><line class="f" x1="418.01" y1="377.06" x2="418.01" y2="370.12"/><line class="f" x1="420.44" y1="397.87" x2="421.31" y2="397.87"/><line class="f" x1="421.31" y1="397.87" x2="421.31" y2="401.34"/><line class="f" x1="421.31" y1="401.34" x2="420.44" y2="401.34"/><line class="f" x1="418.01" y1="397.87" x2="417.14" y2="397.87"/><line class="f" x1="417.14" y1="397.87" x2="417.14" y2="401.34"/><line class="f" x1="417.14" y1="401.34" x2="418.01" y2="401.34"/><line class="f" x1="421.31" y1="370.12" x2="421.31" y2="366.65"/><line class="f" x1="421.31" y1="366.65" x2="420.44" y2="366.65"/><line class="f" x1="418.01" y1="370.12" x2="417.14" y2="370.12"/><line class="f" x1="417.14" y1="370.12" x2="417.14" y2="366.65"/><line class="f" x1="417.14" y1="366.65" x2="418.01" y2="366.65"/><line class="f" x1="274.75" y1="420.42" x2="334.76" y2="420.42"/><line class="f" x1="420.44" y1="408.28" x2="441.25" y2="408.28"/><line class="f" x1="441.25" y1="408.28" x2="441.25" y2="425.62"/><line class="f" x1="441.25" y1="425.62" x2="420.44" y2="425.62"/><line class="f" x1="420.44" y1="425.62" x2="420.44" y2="408.28"/><line class="f" x1="334.76" y1="425.62" x2="334.76" y2="396.13"/><line class="f" x1="337.19" y1="425.62" x2="337.19" y2="396.13"/><line class="f" x1="418.01" y1="425.62" x2="418.01" y2="399.6"/><line class="f" x1="418.01" y1="368.39" x2="418.01" y2="359.71"/><line class="f" x1="420.44" y1="404.81" x2="420.44" y2="399.6"/><line class="f" x1="375.35" y1="429.96" x2="375.35" y2="433.95"/><line class="f" x1="411.77" y1="429.96" x2="411.77" y2="425.62"/><g class="h"><path class="f" d="M253.94,397a.87.87,0,1,0-.87.87.87.87,0,0,0,.87-.87"/></g><line class="f" x1="275.62" y1="402.21" x2="275.62" y2="360.58"/><line class="f" x1="275.62" y1="360.58" x2="247.87" y2="360.58"/><line class="f" x1="247.87" y1="360.58" x2="247.87" y2="402.21"/><line class="f" x1="247.87" y1="402.21" x2="275.62" y2="402.21"/><line class="f" x1="273.88" y1="397" x2="273.88" y2="365.78"/><line class="f" x1="270.41" y1="362.31" x2="253.07" y2="362.31"/><line class="f" x1="249.6" y1="365.78" x2="249.6" y2="397"/><line class="f" x1="253.07" y1="400.47" x2="270.41" y2="400.47"/><g class="h"><path class="f" d="M273.88,397a3.47,3.47,0,0,1-3.47,3.47"/><path class="f" d="M270.41,362.31a3.47,3.47,0,0,1,3.47,3.47"/><path class="f" d="M253.07,400.47A3.47,3.47,0,0,1,249.6,397"/><path class="f" d="M249.6,365.78a3.47,3.47,0,0,1,3.47-3.47"/></g><line class="f" x1="271.28" y1="406.54" x2="271.28" y2="425.62"/><line class="f" x1="271.28" y1="425.62" x2="247" y2="425.62"/><line class="f" x1="247" y1="425.62" x2="247" y2="406.54"/><line class="f" x1="247" y1="406.54" x2="271.28" y2="406.54"/><line class="f" x1="247" y1="403.07" x2="274.75" y2="403.07"/><line class="f" x1="274.75" y1="403.07" x2="274.75" y2="406.54"/><line class="f" x1="274.75" y1="406.54" x2="274.75" y2="425.62"/><line class="f" x1="271.28" y1="406.54" x2="274.75" y2="406.54"/><line class="f" x1="274.75" y1="425.62" x2="334.76" y2="425.62"/><line class="f" x1="337.19" y1="425.62" x2="373.61" y2="425.62"/><line class="f" x1="410.03" y1="433.95" x2="411.77" y2="433.95"/><line class="f" x1="410.03" y1="429.96" x2="411.77" y2="429.96"/><line class="f" x1="373.61" y1="429.96" x2="375.34" y2="429.96"/><line class="f" x1="373.61" y1="429.96" x2="373.61" y2="425.62"/><line class="f" x1="418.01" y1="368.39" x2="420.44" y2="368.39"/><line class="f" x1="420.44" y1="368.39" x2="420.44" y2="357.29"/><line class="f" x1="430.85" y1="404.81" x2="444.72" y2="404.81"/><line class="f" x1="420.44" y1="408.28" x2="420.44" y2="404.81"/><line class="f" x1="420.44" y1="404.81" x2="430.85" y2="404.81"/><line class="f" x1="281.34" y1="360.58" x2="281.34" y2="364.05"/><line class="f" x1="281.34" y1="364.05" x2="302.15" y2="364.05"/><line class="f" x1="302.15" y1="364.05" x2="302.15" y2="360.58"/><line class="f" x1="302.15" y1="360.58" x2="301.11" y2="360.58"/><line class="f" x1="301.11" y1="360.58" x2="301.11" y2="363.01"/><line class="f" x1="301.11" y1="363.01" x2="282.38" y2="363.01"/><line class="f" x1="282.38" y1="363.01" x2="282.38" y2="360.58"/><line class="f" x1="282.38" y1="360.58" x2="281.34" y2="360.58"/><line class="f" x1="281.34" y1="360.58" x2="281.34" y2="364.05"/><line class="f" x1="302.15" y1="360.58" x2="302.15" y2="364.05"/><line class="f" x1="282.38" y1="360.58" x2="282.38" y2="363.01"/><line class="f" x1="301.11" y1="360.58" x2="301.11" y2="363.01"/><line class="f" x1="281.34" y1="364.05" x2="302.15" y2="364.05"/><line class="f" x1="281.34" y1="363.01" x2="302.15" y2="363.01"/><line class="f" x1="281.34" y1="360.58" x2="282.38" y2="360.58"/><line class="f" x1="301.11" y1="360.58" x2="302.15" y2="360.58"/><line class="f" x1="290.01" y1="255.3" x2="317.76" y2="255.3"/><line class="f" x1="317.76" y1="255.3" x2="317.76" y2="257.49"/><line class="f" x1="317.76" y1="257.49" x2="290.01" y2="257.49"/><line class="f" x1="290.01" y1="257.49" x2="290.01" y2="255.3"/><g class="h"><path class="f" d="M323,256.4a1.74,1.74,0,1,0-1.74,1.73A1.74,1.74,0,0,0,323,256.4"/></g><line class="f" x1="461.72" y1="255.3" x2="510.28" y2="255.3"/><line class="f" x1="510.28" y1="255.3" x2="510.28" y2="258.77"/><line class="f" x1="510.28" y1="258.77" x2="461.72" y2="258.77"/><line class="f" x1="461.72" y1="258.77" x2="461.72" y2="255.3"/><g class="h"><path class="f" d="M515.48,257a1.73,1.73,0,1,0-1.73,1.73,1.73,1.73,0,0,0,1.73-1.73"/></g><line class="f" x1="375" y1="239.69" x2="368.06" y2="239.69"/><line class="f" x1="364.25" y1="239.69" x2="363.46" y2="239.69"/><line class="f" x1="359.65" y1="239.69" x2="358.87" y2="239.69"/><line class="f" x1="355.05" y1="239.69" x2="350.72" y2="239.69"/><line class="f" x1="350.72" y1="239.69" x2="343.78" y2="239.69"/><line class="f" x1="458.25" y1="239.69" x2="451.31" y2="239.69"/><line class="f" x1="447.5" y1="239.69" x2="446.72" y2="239.69"/><line class="f" x1="442.9" y1="239.69" x2="442.12" y2="239.69"/><line class="f" x1="438.3" y1="239.69" x2="433.97" y2="239.69"/><line class="f" x1="433.97" y1="239.69" x2="427.03" y2="239.69"/><line class="f" x1="271.28" y1="425.62" x2="250.79" y2="422.14"/><line class="f" x1="250.79" y1="422.14" x2="247" y2="406.54"/><line class="f" x1="247" y1="406.54" x2="247" y2="425.62"/><line class="f" x1="247" y1="425.62" x2="271.28" y2="425.62"/><line class="f" x1="441.25" y1="425.62" x2="424.23" y2="422.14"/><line class="f" x1="424.23" y1="422.14" x2="420.44" y2="408.28"/><line class="f" x1="420.44" y1="408.28" x2="420.44" y2="425.62"/><line class="f" x1="420.44" y1="425.62" x2="441.25" y2="425.62"/><line class="f" x1="238.67" y1="430.48" x2="238.67" y2="430.48"/><line class="f" x1="238.67" y1="430.48" x2="238.67" y2="430.48"/><rect class="d" x="376.73" y="359.71" width="41.28" height="5.55"/><line class="f" x1="376.73" y1="359.71" x2="376.73" y2="365.26"/><line class="f" x1="418.01" y1="359.71" x2="376.73" y2="359.71"/><line class="f" x1="418.01" y1="365.26" x2="418.01" y2="359.71"/><line class="f" x1="376.73" y1="365.26" x2="418.01" y2="365.26"/><rect class="d" x="486.01" y="295.19" width="17.34" height="27.75"/><line class="f" x1="486.01" y1="295.19" x2="486.01" y2="322.94"/><line class="f" x1="503.35" y1="295.19" x2="486.01" y2="295.19"/><line class="f" x1="503.35" y1="322.94" x2="503.35" y2="295.19"/><line class="f" x1="486.01" y1="322.94" x2="503.35" y2="322.94"/><rect class="d" x="274.75" y="420.42" width="60.01" height="5.2"/><line class="f" x1="274.75" y1="420.42" x2="274.75" y2="425.62"/><line class="f" x1="334.76" y1="420.42" x2="274.75" y2="420.42"/><line class="f" x1="334.76" y1="425.62" x2="334.76" y2="420.42"/><line class="f" x1="274.75" y1="425.62" x2="334.76" y2="425.62"/><rect class="d" x="402.05" y="253.57" width="15.61" height="103.72"/><line class="f" x1="402.06" y1="253.57" x2="402.06" y2="357.28"/><line class="f" x1="417.66" y1="253.57" x2="402.05" y2="253.57"/><line class="f" x1="417.66" y1="357.28" x2="417.66" y2="253.57"/><line class="f" x1="402.06" y1="357.28" x2="417.67" y2="357.28"/><rect class="d" x="281.34" y="360.58" width="1.04" height="2.43"/><line class="f" x1="281.34" y1="360.58" x2="281.34" y2="363.01"/><line class="f" x1="282.38" y1="360.58" x2="281.34" y2="360.58"/><line class="f" x1="282.38" y1="363.01" x2="282.38" y2="360.58"/><line class="f" x1="281.34" y1="363.01" x2="282.38" y2="363.01"/><rect class="d" x="281.34" y="363.01" width="20.81" height="1.04"/><line class="f" x1="302.15" y1="363.01" x2="281.34" y2="363.01"/><line class="f" x1="302.15" y1="364.05" x2="302.15" y2="363.01"/><line class="f" x1="281.34" y1="364.05" x2="302.15" y2="364.05"/><line class="f" x1="281.34" y1="363.01" x2="281.34" y2="364.05"/><rect class="d" x="301.11" y="360.58" width="1.04" height="2.43"/><line class="f" x1="301.11" y1="360.58" x2="301.11" y2="363.01"/><line class="f" x1="302.15" y1="360.58" x2="301.11" y2="360.58"/><line class="f" x1="302.15" y1="363.01" x2="302.15" y2="360.58"/><line class="f" x1="301.11" y1="363.01" x2="302.15" y2="363.01"/><rect class="d" x="461.72" y="255.3" width="48.56" height="3.47"/><line class="f" x1="510.28" y1="258.77" x2="510.28" y2="255.3"/><line class="f" x1="461.72" y1="258.77" x2="510.28" y2="258.77"/><line class="f" x1="461.72" y1="255.3" x2="461.72" y2="258.77"/><line class="f" x1="510.28" y1="255.3" x2="461.72" y2="255.3"/><polygon class="i" points="515.48 257.04 514.98 258.26 513.75 258.77 512.52 258.26 512.02 257.04 512.52 255.81 513.75 255.3 514.98 255.81 515.48 257.04"/><g class="h"><path class="f" d="M515.48,257a1.73,1.73,0,1,1-3.46,0"/><path class="f" d="M512,257a1.73,1.73,0,1,1,3.46,0"/></g><rect class="d" x="290.01" y="255.3" width="27.75" height="2.19"/><line class="f" x1="317.76" y1="255.3" x2="290.01" y2="255.3"/><line class="f" x1="317.76" y1="257.49" x2="317.76" y2="255.3"/><line class="f" x1="290.01" y1="257.49" x2="317.76" y2="257.49"/><line class="f" x1="290.01" y1="255.3" x2="290.01" y2="257.49"/><polygon class="i" points="322.97 256.4 322.46 257.62 321.23 258.13 320.01 257.62 319.5 256.4 320.01 255.17 321.23 254.66 322.46 255.17 322.97 256.4"/><g class="h"><path class="f" d="M323,256.4a1.74,1.74,0,0,1-3.47,0"/><path class="f" d="M319.5,256.4a1.74,1.74,0,1,1,3.47,0"/></g><line class="f" x1="238.67" y1="410.7" x2="238.67" y2="410.7"/><line class="f" x1="238.67" y1="410.7" x2="238.67" y2="344.8"/><line class="f" x1="238.67" y1="387.62" x2="238.67" y2="387.62"/><line class="f" x1="238.67" y1="382.42" x2="238.67" y2="382.42"/><g class="h"><path class="f" d="M235.21,341.33a3.46,3.46,0,0,1,3.46,3.47"/></g><polygon class="i" points="247 274.38 247 336.82 257.41 336.82 309.44 336.82 312.09 336.29 314.34 334.79 315.85 332.54 316.38 329.88 316.38 281.32 315.85 278.67 314.34 276.41 312.09 274.91 309.44 274.38 247 274.38"/><rect class="d" x="247" y="262.24" width="10.41" height="12.14"/><rect class="d" x="247" y="336.82" width="10.41" height="12.14"/><line class="f" x1="258.53" y1="307.56" x2="255.53" y2="308.4"/><line class="f" x1="258.53" y1="278.44" x2="255.53" y2="279.27"/><line class="f" x1="316.38" y1="329.88" x2="316.38" y2="281.32"/><line class="f" x1="309.44" y1="274.38" x2="247" y2="274.38"/><line class="f" x1="247" y1="274.38" x2="247" y2="336.82"/><line class="f" x1="247" y1="336.82" x2="309.44" y2="336.82"/><line class="f" x1="247" y1="274.38" x2="247" y2="262.24"/><line class="f" x1="247" y1="262.24" x2="257.41" y2="262.24"/><line class="f" x1="257.41" y1="262.24" x2="257.41" y2="274.38"/><line class="f" x1="257.41" y1="274.38" x2="247" y2="274.38"/><line class="f" x1="247" y1="348.96" x2="247" y2="336.82"/><line class="f" x1="247" y1="336.82" x2="257.41" y2="336.82"/><line class="f" x1="257.41" y1="336.82" x2="257.41" y2="348.96"/><line class="f" x1="257.41" y1="348.96" x2="247" y2="348.96"/><line class="f" x1="270.08" y1="274.38" x2="270.08" y2="336.82"/><line class="f" x1="275.28" y1="274.38" x2="275.28" y2="336.82"/><g class="h"><path class="f" d="M264.82,303a97.31,97.31,0,0,1-.34-22.61"/><path class="f" d="M262.57,278.11h.09a1.85,1.85,0,0,1,1.86,1.85,1.75,1.75,0,0,1,0,.4"/><path class="f" d="M258.53,278.44a14.57,14.57,0,0,1,3.22-.35c.27,0,.55,0,.82,0"/><path class="f" d="M250.79,278.24c.84,0,1.67-.06,2.51-.06,1.75,0,3.49.09,5.23.26"/><path class="f" d="M250.29,278.7a.25.25,0,0,1,0-.08.4.4,0,0,1,.39-.4l.12,0"/><path class="f" d="M250.29,278.7q.57,7.44.57,14.92,0,4.71-.23,9.42"/><path class="f" d="M251.88,304.16a1.06,1.06,0,0,1-.31,0,1,1,0,0,1-1-1,1.49,1.49,0,0,1,0-.21"/><path class="f" d="M251.88,304.16a46.67,46.67,0,0,1,12-.18"/><path class="f" d="M264.82,303a.67.67,0,0,1,0,.24.8.8,0,0,1-.8.8.83.83,0,0,1-.22,0"/><path class="f" d="M309.44,274.38a6.94,6.94,0,0,1,6.93,6.94"/><path class="f" d="M316.38,329.88a6.94,6.94,0,0,1-6.94,6.94"/><path class="f" d="M264.82,332.09a97.22,97.22,0,0,1-.34-22.6"/><path class="f" d="M262.57,307.23h.09a1.86,1.86,0,0,1,1.86,1.86,1.81,1.81,0,0,1,0,.4"/><path class="f" d="M258.53,307.56a15.19,15.19,0,0,1,3.22-.35l.82,0"/><path class="f" d="M250.79,307.37c.84,0,1.67-.06,2.51-.06,1.75,0,3.49.08,5.23.25"/><path class="f" d="M250.29,307.83a.28.28,0,0,1,0-.09.4.4,0,0,1,.39-.39l.12,0"/><path class="f" d="M250.29,307.83q.57,7.44.57,14.92,0,4.71-.23,9.42"/><path class="f" d="M251.88,333.29a1.06,1.06,0,0,1-.31,0,1,1,0,0,1-1-1,1.23,1.23,0,0,1,0-.2"/><path class="f" d="M251.88,333.29a45.16,45.16,0,0,1,6.67-.49,46.78,46.78,0,0,1,5.29.31"/><path class="f" d="M264.82,332.09a.69.69,0,0,1,0,.25.8.8,0,0,1-.8.8.83.83,0,0,1-.22,0"/></g><polygon class="i" points="411.27 306.32 412.66 304.61 413.4 302.46 413.4 300.17 412.66 298.02 411.27 296.3 411.27 285.5 409.35 285.5 407.42 293.4 407.42 295.71 406.37 299.39 406.37 303.24 407.42 306.92 407.42 309.22 409.35 317.13 411.27 317.13 411.27 306.32"/><line class="f" x1="411.27" y1="317.13" x2="411.27" y2="306.32"/><line class="f" x1="409.35" y1="317.13" x2="411.27" y2="317.13"/><line class="f" x1="407.42" y1="309.22" x2="409.35" y2="317.13"/><line class="f" x1="407.42" y1="306.92" x2="407.42" y2="309.22"/><line class="f" x1="406.37" y1="303.24" x2="407.42" y2="306.92"/><line class="f" x1="406.37" y1="299.39" x2="406.37" y2="303.24"/><line class="f" x1="407.42" y1="295.71" x2="406.37" y2="299.39"/><line class="f" x1="407.42" y1="293.41" x2="407.42" y2="295.71"/><line class="f" x1="409.35" y1="285.5" x2="407.42" y2="293.41"/><line class="f" x1="411.27" y1="285.5" x2="409.35" y2="285.5"/><line class="f" x1="411.27" y1="296.31" x2="411.27" y2="285.5"/><line class="f" x1="412.66" y1="298.02" x2="411.27" y2="296.3"/><line class="f" x1="413.4" y1="300.17" x2="412.66" y2="298.02"/><line class="f" x1="413.4" y1="302.46" x2="413.4" y2="300.17"/><line class="f" x1="412.66" y1="304.61" x2="413.4" y2="302.46"/><line class="f" x1="411.27" y1="306.32" x2="412.66" y2="304.61"/><line class="f" x1="411.27" y1="317.13" x2="411.27" y2="285.5"/><line class="f" x1="407.42" y1="293.41" x2="407.42" y2="309.22"/><line class="f" x1="409.35" y1="317.13" x2="411.27" y2="317.13"/><line class="f" x1="410.5" y1="287.61" x2="410.5" y2="289.72"/><line class="f" x1="410.5" y1="289.72" x2="410.02" y2="289.72"/><line class="f" x1="410.02" y1="289.72" x2="410.02" y2="287.61"/><line class="f" x1="410.02" y1="287.61" x2="410.5" y2="287.61"/><line class="f" x1="410.5" y1="290.24" x2="410.5" y2="292.35"/><line class="f" x1="410.5" y1="292.35" x2="410.02" y2="292.35"/><line class="f" x1="410.02" y1="292.35" x2="410.02" y2="290.24"/><line class="f" x1="410.02" y1="290.24" x2="410.5" y2="290.24"/><line class="f" x1="409.35" y1="317.13" x2="409.35" y2="285.5"/><line class="f" x1="410.02" y1="292.88" x2="410.5" y2="292.88"/><line class="f" x1="410.5" y1="292.88" x2="410.5" y2="293.93"/><line class="f" x1="410.5" y1="293.93" x2="410.02" y2="293.93"/><line class="f" x1="410.02" y1="293.93" x2="410.02" y2="292.88"/><g class="h"><path class="f" d="M411.27,296.31a6.73,6.73,0,0,1,0,10"/></g><polygon class="i" points="510.98 288.32 510.48 288.7 510.29 289.3 510.29 327.11 510.48 327.73 510.98 328.15 510.49 328.35 510.29 328.84 510.29 329.88 510.75 331.62 512.02 332.88 513.76 333.35 539.08 333.35 539.57 333.15 539.77 332.66 539.77 261.2 539.57 260.71 539.08 260.51 510.98 260.51 510.52 260.66 510.26 261.06 510.29 261.55 510.29 287.22 510.35 287.94 510.98 288.32"/><polygon class="i" points="487.74 288.26 485.09 287.73 482.84 286.22 481.33 283.97 480.8 281.32 480.8 267.44 481.33 264.79 482.84 262.54 485.09 261.03 487.74 260.51 509.25 260.51 509.98 260.81 510.29 261.55 510.29 287.22 509.98 287.95 509.25 288.26 487.74 288.26"/><g class="h"><path class="f" d="M487.74,288.26a6.94,6.94,0,0,1-6.94-6.94"/></g><line class="f" x1="480.8" y1="281.32" x2="480.8" y2="267.44"/><g class="h"><path class="f" d="M480.8,267.44a6.94,6.94,0,0,1,6.94-6.93"/></g><line class="f" x1="487.74" y1="260.51" x2="509.25" y2="260.51"/><g class="h"><path class="f" d="M509.25,260.51a1,1,0,0,1,1,1"/></g><line class="f" x1="510.29" y1="261.55" x2="510.29" y2="287.22"/><g class="h"><path class="f" d="M510.29,287.22a1,1,0,0,1-1,1"/></g><line class="f" x1="509.25" y1="288.26" x2="487.74" y2="288.26"/><line class="f" x1="510.29" y1="328.84" x2="510.29" y2="329.88"/><line class="f" x1="513.76" y1="333.35" x2="539.08" y2="333.35"/><line class="f" x1="539.77" y1="332.66" x2="539.77" y2="328.84"/><line class="f" x1="539.08" y1="328.15" x2="510.98" y2="328.15"/><line class="f" x1="539.77" y1="328.84" x2="539.77" y2="288.26"/><line class="f" x1="539.77" y1="288.26" x2="537.35" y2="288.26"/><line class="f" x1="510.29" y1="289.3" x2="510.29" y2="327.11"/><line class="f" x1="511.33" y1="328.15" x2="528.72" y2="328.15"/><line class="f" x1="528.72" y1="288.26" x2="511.33" y2="288.26"/><line class="f" x1="537.34" y1="328.15" x2="530.8" y2="328.15"/><line class="f" x1="530.8" y1="288.26" x2="537.35" y2="288.26"/><line class="f" x1="510.29" y1="265.02" x2="510.29" y2="261.2"/><line class="f" x1="510.98" y1="260.51" x2="539.08" y2="260.51"/><line class="f" x1="539.77" y1="261.2" x2="539.77" y2="265.02"/><line class="f" x1="539.77" y1="265.02" x2="539.77" y2="288.26"/><line class="f" x1="539.77" y1="288.26" x2="537.35" y2="288.26"/><line class="f" x1="510.29" y1="287.22" x2="510.29" y2="266.75"/><line class="f" x1="528.72" y1="288.26" x2="511.33" y2="288.26"/><line class="f" x1="528.72" y1="288.26" x2="537.35" y2="288.26"/><line class="f" x1="480.8" y1="281.32" x2="480.8" y2="267.44"/><line class="f" x1="487.74" y1="260.51" x2="509.25" y2="260.51"/><line class="f" x1="510.29" y1="261.55" x2="510.29" y2="287.22"/><line class="f" x1="509.25" y1="288.26" x2="487.74" y2="288.26"/><line class="f" x1="538.39" y1="287.22" x2="538.39" y2="261.55"/><line class="f" x1="538.39" y1="289.3" x2="538.39" y2="327.11"/><g class="h"><path class="f" d="M539.77,332.66a.69.69,0,0,1-.69.69"/><path class="f" d="M539.08,328.15a.69.69,0,0,1,.69.69"/><path class="f" d="M510.29,328.84a.69.69,0,0,1,.69-.69"/><path class="f" d="M511.33,328.15a1,1,0,0,1-1-1"/><path class="f" d="M510.29,289.3a1,1,0,0,1,1-1"/><path class="f" d="M510.29,261.2a.69.69,0,0,1,.69-.69"/><path class="f" d="M539.08,260.51a.69.69,0,0,1,.69.69"/><path class="f" d="M511.33,288.26a1,1,0,0,1-1-1"/><path class="f" d="M509.25,260.51a1,1,0,0,1,1,1"/><path class="f" d="M510.29,287.22a1,1,0,0,1-1,1"/></g><line class="f" x1="538.39" y1="261.55" x2="514.76" y2="261.55"/><g class="h"><path class="f" d="M519.53,262.8a19.66,19.66,0,0,1,14.82,24.46"/><path class="f" d="M533.53,327.11a119.1,119.1,0,0,1,0-37.81"/><path class="f" d="M487.74,288.26a6.94,6.94,0,0,1-6.94-6.94"/><path class="f" d="M480.8,267.44a6.94,6.94,0,0,1,6.94-6.93"/><path class="f" d="M513.76,333.35a3.47,3.47,0,0,1-3.47-3.47"/></g><polygon class="i" points="463.62 348.9 465.82 346.01 468.68 343.8 472.02 342.41 475.61 341.93 471.73 335.2 470.46 333.93 468.72 333.47 466.99 333.94 461 337.42 459.73 338.7 459.27 340.43 459.74 342.17 463.62 348.9"/><polygon class="i" points="475.65 369.73 472.07 369.26 468.72 367.88 465.85 365.68 463.64 362.8 459.78 369.54 459.32 371.28 459.78 373.02 461.05 374.29 467.06 377.75 468.79 378.22 470.52 377.75 471.79 376.47 475.65 369.73"/><polygon class="i" points="487.62 348.86 489.01 352.21 489.49 355.81 489.02 359.41 487.64 362.76 495.39 362.75 497.12 362.29 498.38 361.01 498.85 359.27 498.83 352.32 498.37 350.58 497.1 349.31 495.36 348.85 487.62 348.86"/><polygon class="i" points="475.61 341.93 472.02 342.41 468.68 343.8 465.82 346.01 463.62 348.9 462.24 352.25 461.77 355.85 462.25 359.45 463.64 362.8 465.85 365.68 468.72 367.88 472.07 369.27 475.65 369.74 479.24 369.25 482.58 367.86 485.44 365.65 487.64 362.76 489.02 359.41 489.49 355.81 489.01 352.21 487.62 348.86 485.41 345.98 482.54 343.78 479.19 342.4 475.61 341.93"/><line class="f" x1="479.19" y1="342.4" x2="475.61" y2="341.92"/><line class="f" x1="482.54" y1="343.78" x2="479.19" y2="342.4"/><line class="f" x1="485.41" y1="345.98" x2="482.54" y2="343.78"/><line class="f" x1="487.62" y1="348.86" x2="485.41" y2="345.98"/><line class="f" x1="489.01" y1="352.21" x2="487.62" y2="348.86"/><line class="f" x1="489.49" y1="355.81" x2="489.01" y2="352.21"/><line class="f" x1="489.02" y1="359.41" x2="489.48" y2="355.81"/><line class="f" x1="487.64" y1="362.76" x2="489.02" y2="359.41"/><line class="f" x1="485.44" y1="365.65" x2="487.64" y2="362.77"/><line class="f" x1="482.58" y1="367.86" x2="485.44" y2="365.65"/><line class="f" x1="479.24" y1="369.26" x2="482.58" y2="367.86"/><line class="f" x1="475.65" y1="369.73" x2="479.24" y2="369.25"/><line class="f" x1="472.07" y1="369.27" x2="475.65" y2="369.73"/><line class="f" x1="468.72" y1="367.88" x2="472.07" y2="369.27"/><line class="f" x1="465.85" y1="365.68" x2="468.72" y2="367.88"/><line class="f" x1="463.64" y1="362.8" x2="465.85" y2="365.68"/><line class="f" x1="462.25" y1="359.45" x2="463.64" y2="362.8"/><line class="f" x1="461.77" y1="355.85" x2="462.25" y2="359.45"/><line class="f" x1="462.24" y1="352.25" x2="461.77" y2="355.85"/><line class="f" x1="463.62" y1="348.9" x2="462.24" y2="352.25"/><line class="f" x1="465.82" y1="346.01" x2="463.62" y2="348.9"/><line class="f" x1="468.68" y1="343.8" x2="465.82" y2="346.01"/><line class="f" x1="472.02" y1="342.41" x2="468.68" y2="343.8"/><line class="f" x1="475.61" y1="341.92" x2="472.02" y2="342.41"/><g class="h"><path class="f" d="M489.48,355.81a13.85,13.85,0,1,1-27.7,0"/><path class="f" d="M461.78,355.85a13.85,13.85,0,1,1,27.7,0"/></g><line class="f" x1="461.87" y1="338.92" x2="467.86" y2="335.44"/><line class="f" x1="471.73" y1="335.2" x2="475.61" y2="341.92"/><line class="f" x1="461" y1="337.42" x2="466.99" y2="333.94"/><line class="f" x1="463.62" y1="348.9" x2="459.74" y2="342.17"/><line class="f" x1="467.92" y1="376.24" x2="461.92" y2="372.78"/><line class="f" x1="459.78" y1="369.54" x2="463.64" y2="362.8"/><line class="f" x1="467.06" y1="377.75" x2="461.05" y2="374.28"/><line class="f" x1="475.65" y1="369.73" x2="471.79" y2="376.47"/><line class="f" x1="497.1" y1="352.32" x2="497.11" y2="359.28"/><line class="f" x1="495.39" y1="362.76" x2="487.64" y2="362.77"/><line class="f" x1="498.83" y1="352.32" x2="498.84" y2="359.27"/><line class="f" x1="487.62" y1="348.86" x2="495.36" y2="348.85"/><g class="h"><path class="f" d="M467.86,335.44a1.74,1.74,0,0,1,.87-.23,1.72,1.72,0,0,1,1.5.86"/><path class="f" d="M461.24,341.3a1.75,1.75,0,0,1-.24-.87,1.73,1.73,0,0,1,.87-1.5"/><path class="f" d="M467,333.94a3.38,3.38,0,0,1,1.73-.47,3.48,3.48,0,0,1,3,1.73"/><path class="f" d="M459.74,342.17a3.38,3.38,0,0,1-.47-1.73,3.48,3.48,0,0,1,1.73-3"/><path class="f" d="M461.92,372.78a1.74,1.74,0,0,1-.64-2.37"/><path class="f" d="M470.29,375.61a1.75,1.75,0,0,1-1.5.87,1.77,1.77,0,0,1-.87-.23"/><path class="f" d="M461.05,374.28a3.46,3.46,0,0,1-1.73-3,3.54,3.54,0,0,1,.46-1.74"/><path class="f" d="M471.79,376.47a3.48,3.48,0,0,1-3,1.75,3.41,3.41,0,0,1-1.73-.47"/><path class="f" d="M497.11,359.27h0a1.74,1.74,0,0,1-1.73,1.75"/><path class="f" d="M495.37,350.59a1.73,1.73,0,0,1,1.73,1.73"/><path class="f" d="M498.84,359.27a3.46,3.46,0,0,1-3.45,3.48"/><path class="f" d="M495.36,348.85a3.47,3.47,0,0,1,3.47,3.47"/></g><polygon class="i" points="327.13 420.42 309.09 420.42 308.72 420.26 308.57 419.9 308.57 405.68 308.72 405.31 309.09 405.15 327.13 405.15 327.5 405.31 327.65 405.68 327.65 419.9 327.5 420.26 327.13 420.42"/><line class="f" x1="327.13" y1="420.42" x2="309.09" y2="420.42"/><g class="h"><path class="f" d="M309.09,420.42a.52.52,0,0,1-.52-.52"/></g><line class="f" x1="308.57" y1="419.9" x2="308.57" y2="405.67"/><g class="h"><path class="f" d="M308.57,405.67a.52.52,0,0,1,.52-.52"/></g><line class="f" x1="309.09" y1="405.15" x2="327.13" y2="405.15"/><g class="h"><path class="f" d="M327.13,405.15a.52.52,0,0,1,.52.52"/></g><line class="f" x1="327.65" y1="405.67" x2="327.65" y2="419.9"/><g class="h"><path class="f" d="M327.65,419.9a.52.52,0,0,1-.52.52"/></g><line class="f" x1="326.09" y1="416.6" x2="310.13" y2="416.6"/><line class="f" x1="309.61" y1="416.08" x2="309.61" y2="406.72"/><line class="f" x1="310.13" y1="406.19" x2="326.09" y2="406.19"/><line class="f" x1="326.61" y1="406.71" x2="326.61" y2="416.08"/><g class="h"><path class="f" d="M310.13,416.6a.52.52,0,0,1-.52-.52"/><path class="f" d="M309.61,406.71a.52.52,0,0,1,.52-.52"/><path class="f" d="M326.09,406.19a.52.52,0,0,1,.52.52"/><path class="f" d="M326.61,416.08a.52.52,0,0,1-.52.52"/></g><polygon class="i" points="318.98 418.33 318.84 416.88 318.73 416.55 318.5 414.71 318.37 414.47 318.11 414.38 317.85 414.47 317.73 414.71 317.5 416.55 317.38 416.88 317.24 418.33 317.5 418.95 318.11 419.2 318.72 418.95 318.98 418.33"/><g class="h"><path class="f" d="M319,418.33a.87.87,0,1,1-1.74,0"/></g><line class="f" x1="317.38" y1="416.88" x2="317.24" y2="418.33"/><g class="h"><path class="f" d="M317.38,416.88a.66.66,0,0,1,.12-.33"/></g><line class="f" x1="317.72" y1="414.71" x2="317.5" y2="416.55"/><g class="h"><path class="f" d="M317.72,414.71a.39.39,0,0,1,.39-.33.37.37,0,0,1,.38.33"/></g><line class="f" x1="318.73" y1="416.55" x2="318.5" y2="414.71"/><g class="h"><path class="f" d="M318.73,416.55a.76.76,0,0,1,.11.33"/></g><line class="f" x1="318.98" y1="418.33" x2="318.84" y2="416.88"/><line class="f" x1="317.64" y1="417.47" x2="317.64" y2="416.95"/><line class="f" x1="318.58" y1="416.95" x2="318.58" y2="417.47"/><line class="f" x1="318.58" y1="417.47" x2="317.64" y2="417.47"/><g class="h"><path class="f" d="M317.64,417a.47.47,0,0,1,.94,0"/><path class="f" d="M317.5,416.55a.71.71,0,0,1,.61-.33.74.74,0,0,1,.62.33"/></g><rect class="d" x="378.81" y="253.57" width="20.81" height="52.21"/><line class="f" x1="399.63" y1="305.77" x2="399.63" y2="253.57"/><line class="f" x1="399.63" y1="253.57" x2="378.81" y2="253.57"/><line class="f" x1="378.81" y1="253.57" x2="378.81" y2="305.77"/><line class="f" x1="378.81" y1="305.77" x2="399.63" y2="305.77"/><line class="f" x1="389.22" y1="303.16" x2="389.22" y2="256.18"/><line class="f" x1="395.34" y1="300.74" x2="382.87" y2="296.33"/><line class="f" x1="395.96" y1="295.76" x2="384.36" y2="293.94"/><line class="f" x1="381.72" y1="288.97" x2="394.45" y2="287.46"/><line class="f" x1="383.39" y1="281.26" x2="394.45" y2="283.3"/><line class="f" x1="382.75" y1="278.46" x2="396.38" y2="278.46"/><line class="f" x1="382.69" y1="270.53" x2="396.16" y2="272.41"/><line class="f" x1="382.92" y1="267.55" x2="395.22" y2="267.55"/><line class="f" x1="382.79" y1="259.72" x2="395.41" y2="258.22"/><line class="f" x1="383.65" y1="261.61" x2="394.32" y2="263.14"/><rect class="d" x="378.81" y="305.77" width="20.81" height="51.51"/><line class="f" x1="399.63" y1="357.28" x2="399.63" y2="305.77"/><line class="f" x1="399.63" y1="305.77" x2="378.81" y2="305.77"/><line class="f" x1="378.81" y1="305.77" x2="378.81" y2="357.28"/><line class="f" x1="378.81" y1="357.28" x2="399.63" y2="357.28"/><line class="f" x1="389.22" y1="354.71" x2="389.22" y2="308.35"/><line class="f" x1="395.34" y1="352.32" x2="382.87" y2="347.96"/><line class="f" x1="395.96" y1="347.41" x2="384.36" y2="345.61"/><line class="f" x1="381.72" y1="340.7" x2="394.45" y2="339.22"/><line class="f" x1="383.39" y1="333.1" x2="394.45" y2="335.11"/><line class="f" x1="382.75" y1="330.34" x2="396.38" y2="330.34"/><line class="f" x1="382.69" y1="322.51" x2="396.16" y2="324.36"/><line class="f" x1="382.92" y1="319.57" x2="395.22" y2="319.57"/><line class="f" x1="382.79" y1="311.85" x2="395.41" y2="310.36"/><line class="f" x1="383.65" y1="313.71" x2="394.32" y2="315.22"/><polygon class="i" points="299.13 420.42 299.13 408.97 298.86 407.26 298.08 405.7 296.87 404.46 294.9 403.43 292.71 403.07 290.51 403.43 288.55 404.46 287.33 405.7 286.56 407.26 286.29 408.97 286.29 420.42 299.13 420.42"/><line class="f" x1="286.29" y1="420.42" x2="286.29" y2="408.97"/><line class="f" x1="286.29" y1="420.42" x2="299.12" y2="420.42"/><line class="f" x1="299.13" y1="420.42" x2="299.13" y2="408.97"/><line class="f" x1="288.37" y1="416.25" x2="288.37" y2="408.97"/><line class="f" x1="297.04" y1="416.25" x2="297.04" y2="408.97"/><line class="f" x1="297.04" y1="416.25" x2="288.37" y2="416.25"/><g class="h"><path class="f" d="M286.29,409a5.65,5.65,0,0,1,2.26-4.51"/><path class="f" d="M296.87,404.46a5.65,5.65,0,0,1,2.25,4.51"/><path class="f" d="M288.55,404.46a6.92,6.92,0,0,1,8.32,0"/><path class="f" d="M296.87,404.46a5.65,5.65,0,0,1,2.25,4.51"/><path class="f" d="M292.71,403.07a6.94,6.94,0,0,1,4.16,1.39"/><path class="f" d="M295.62,406.13A3.53,3.53,0,0,1,297,409"/><path class="f" d="M289.79,406.13a4.83,4.83,0,0,1,5.83,0"/><path class="f" d="M288.37,409a3.56,3.56,0,0,1,1.42-2.84"/></g><line class="f" x1="373.61" y1="425.62" x2="380.55" y2="425.62"/><line class="f" x1="384.36" y1="425.62" x2="385.15" y2="425.62"/><line class="f" x1="388.96" y1="425.62" x2="389.74" y2="425.62"/><line class="f" x1="393.56" y1="425.62" x2="400.49" y2="425.62"/><line class="f" x1="404.31" y1="425.62" x2="404.83" y2="425.62"/><line class="f" x1="404.83" y1="425.62" x2="411.77" y2="425.62"/><line class="f" x1="494.73" y1="417.91" x2="494.73" y2="412.1"/><line class="f" x1="494.73" y1="412.1" x2="497.1" y2="414.01"/><line class="f" x1="497.1" y1="414.01" x2="499.46" y2="412.1"/><line class="f" x1="499.46" y1="412.1" x2="499.46" y2="417.91"/><line class="f" x1="242.66" y1="187.66" x2="547.57" y2="187.66"/><line class="f" x1="242.66" y1="185.93" x2="547.57" y2="185.93"/><line class="f" x1="242.66" y1="184.19" x2="547.57" y2="184.19"/><line class="f" x1="238.67" y1="433.95" x2="551.91" y2="433.95"/><line class="f" x1="551.91" y1="433.95" x2="551.91" y2="239.69"/><line class="f" x1="551.91" y1="239.69" x2="547.57" y2="239.69"/><line class="f" x1="547.57" y1="239.69" x2="547.57" y2="184.18"/><line class="f" x1="547.57" y1="184.18" x2="242.66" y2="184.18"/><line class="f" x1="242.66" y1="184.18" x2="242.66" y2="239.69"/><line class="f" x1="242.66" y1="239.69" x2="238.67" y2="239.69"/><line class="f" x1="238.67" y1="239.69" x2="238.67" y2="433.95"/><path class="j" d="M442.66,214.4v7h-.72V215h-1.65v-.64Z"/><path class="j" d="M444.34,220.9a.53.53,0,0,1,.53-.54.54.54,0,0,1,.54.54.55.55,0,0,1-.54.55A.54.54,0,0,1,444.34,220.9Z"/><path class="j" d="M446.35,217.9c0-2.23,1.17-3.56,2.79-3.56s2.8,1.33,2.8,3.56-1.18,3.56-2.8,3.56S446.35,220.13,446.35,217.9Zm4.85,0c0-1.87-.84-2.9-2.06-2.9s-2.06,1-2.06,2.9.84,2.9,2.06,2.9S451.2,219.77,451.2,217.9Z"/><path class="j" d="M457.72,219.34c0,1.19-.83,2.12-2.54,2.12a3.61,3.61,0,0,1-2.51-.9L453,220a3,3,0,0,0,2.15.81c1.19,0,1.82-.58,1.82-1.43s-.56-1.46-2.34-1.46h-1.49l.36-3.51h3.83V215h-3.2l-.24,2.23h.9C456.92,217.27,457.72,218.1,457.72,219.34Z"/><path class="j" d="M297.53,381v7h-.72v-6.36h-1.65V381Z"/><path class="j" d="M299.21,387.54a.53.53,0,0,1,.53-.54.54.54,0,0,1,.54.54.55.55,0,0,1-.54.55A.54.54,0,0,1,299.21,387.54Z"/><path class="j" d="M301.22,384.54c0-2.23,1.17-3.56,2.79-3.56s2.8,1.33,2.8,3.56-1.18,3.56-2.8,3.56S301.22,386.77,301.22,384.54Zm4.85,0c0-1.87-.84-2.9-2.06-2.9s-2.06,1-2.06,2.9.84,2.9,2.06,2.9S306.07,386.41,306.07,384.54Z"/><path class="j" d="M313.79,386.2h-1.4V388h-.72V386.2h-3.95v-.52l3.71-4.64h.8l-3.58,4.52h3v-1.62h.7v1.62h1.4Z"/><path class="j" d="M336.36,306.09v7h-.72v-6.36H334v-.64Z"/><path class="j" d="M338,312.59a.53.53,0,0,1,.53-.54.54.54,0,0,1,.54.54.55.55,0,0,1-.54.55A.54.54,0,0,1,338,312.59Z"/><path class="j" d="M340.05,309.59c0-2.23,1.17-3.56,2.79-3.56s2.8,1.33,2.8,3.56-1.18,3.56-2.8,3.56S340.05,311.82,340.05,309.59Zm4.85,0c0-1.87-.84-2.9-2.06-2.9s-2.06,1-2.06,2.9.84,2.9,2.06,2.9S344.9,311.46,344.9,309.59Z"/><path class="j" d="M351.21,311.08c0,1.17-.85,2.07-2.54,2.07a3.64,3.64,0,0,1-2.52-.9l.35-.57a3.07,3.07,0,0,0,2.17.81c1.16,0,1.8-.54,1.8-1.41s-.59-1.39-1.89-1.39h-.5v-.53l1.94-2.43h-3.58v-.64h4.5v.51l-2,2.49C350.46,309.17,351.21,310,351.21,311.08Z"/><path class="j" d="M442.66,306.09v7h-.72v-6.36h-1.65v-.64Z"/><path class="j" d="M444.34,312.59a.53.53,0,0,1,.53-.54.54.54,0,0,1,.54.54.55.55,0,0,1-.54.55A.54.54,0,0,1,444.34,312.59Z"/><path class="j" d="M446.35,309.59c0-2.23,1.17-3.56,2.79-3.56s2.8,1.33,2.8,3.56-1.18,3.56-2.8,3.56S446.35,311.82,446.35,309.59Zm4.85,0c0-1.87-.84-2.9-2.06-2.9s-2.06,1-2.06,2.9.84,2.9,2.06,2.9S451.2,311.46,451.2,309.59Z"/><path class="j" d="M457.74,312.45v.64h-4.91v-.51l2.91-2.85c.79-.78.94-1.25.94-1.73,0-.81-.57-1.31-1.64-1.31a2.38,2.38,0,0,0-1.91.78l-.51-.44a3.15,3.15,0,0,1,2.48-1c1.42,0,2.32.72,2.32,1.89a2.88,2.88,0,0,1-1.15,2.19l-2.38,2.34Z"/><path class="j" d="M380.3,381v7h-.72v-6.36h-1.65V381Z"/><path class="j" d="M382,387.54a.53.53,0,0,1,.53-.54.54.54,0,0,1,.54.54.55.55,0,0,1-.54.55A.54.54,0,0,1,382,387.54Z"/><path class="j" d="M384,384.54c0-2.23,1.17-3.56,2.79-3.56s2.8,1.33,2.8,3.56-1.18,3.56-2.8,3.56S384,386.77,384,384.54Zm4.85,0c0-1.87-.84-2.9-2.06-2.9s-2.06,1-2.06,2.9.84,2.9,2.06,2.9S388.84,386.41,388.84,384.54Z"/><path class="j" d="M392.54,381v7h-.72v-6.36h-1.65V381Z"/></svg>