<svg xmlns="http://www.w3.org/2000/svg" xmlns:xlink="http://www.w3.org/1999/xlink" viewBox="0 0 790.58 618.13"><defs><style>.a,.f{fill:none;}.b{fill:#595a5c;}.c{fill:#b6906c;}.d,.g{fill:#fff;}.e{fill:#231f20;}.f{stroke:#000;stroke-linecap:round;stroke-linejoin:round;stroke-width:0.35px;}.g,.h{fill-rule:evenodd;}.i{clip-path:url(#a);}.j{fill:#58595b;}</style><clipPath id="a"><polygon class="a" points="233.8 184.3 233.8 378.37 275.38 378.37 275.38 433.82 552.63 433.82 552.63 378.37 556.78 378.37 556.78 184.3 233.8 184.3"/></clipPath></defs><path class="b" d="M55.31,597.13H57.1V609.9H55.31Zm.92,6.11h4.09a1.89,1.89,0,0,0,1-.27,1.82,1.82,0,0,0,.68-.77,2.67,2.67,0,0,0,.24-1.16,2.7,2.7,0,0,0-.24-1.16,1.82,1.82,0,0,0-1.7-1H56.23v-1.7h4a4.09,4.09,0,0,1,2,.48A3.45,3.45,0,0,1,63.62,599a4.64,4.64,0,0,1,0,4.11,3.34,3.34,0,0,1-1.35,1.36,4,4,0,0,1-2,.49h-4Z"/><path class="b" d="M67.7,606.33a2.07,2.07,0,0,0,.49,1.48,1.76,1.76,0,0,0,1.37.52,1.89,1.89,0,0,0,1.37-.46,1.79,1.79,0,0,0,.48-1.33l.12,1.91A2.58,2.58,0,0,1,69.06,610a2.89,2.89,0,0,1-2.33-1,4.08,4.08,0,0,1-.82-2.73v-5.55H67.7Zm.22-7.86a1.93,1.93,0,0,1-.56-1.5,2.07,2.07,0,0,1,.56-1.57,2.56,2.56,0,0,1,3.18,0,2.08,2.08,0,0,1,.57,1.56,1.94,1.94,0,0,1-.57,1.5,2.65,2.65,0,0,1-3.18,0Zm2.26-.86a.94.94,0,0,0,.24-.68,1,1,0,0,0-.24-.7.91.91,0,0,0-.67-.25.92.92,0,0,0-.67.25,1,1,0,0,0-.23.7,1,1,0,0,0,.23.68.92.92,0,0,0,.67.24A.9.9,0,0,0,70.18,597.61Zm1.23,3.17h1.78v9.12H71.41Z"/><path class="b" d="M77.1,609.63A2.82,2.82,0,0,1,76,608.36a5.08,5.08,0,0,1-.36-2v-2a5.05,5.05,0,0,1,.36-2,2.71,2.71,0,0,1,1-1.27,3,3,0,0,1,1.65-.44,2.71,2.71,0,0,1,1.48.42,3.22,3.22,0,0,1,1.09,1.19l-.18,1.86a2.19,2.19,0,0,0-.22-1,1.48,1.48,0,0,0-.61-.63,2,2,0,0,0-1-.21,1.71,1.71,0,0,0-1.37.55,2.26,2.26,0,0,0-.49,1.56v2a2.19,2.19,0,0,0,.49,1.54,1.74,1.74,0,0,0,1.37.54,1.93,1.93,0,0,0,1-.23,1.45,1.45,0,0,0,.61-.64,2.25,2.25,0,0,0,.22-1l.12,1.92a2.66,2.66,0,0,1-.89,1.14,2.56,2.56,0,0,1-1.53.45A3.19,3.19,0,0,1,77.1,609.63Zm4-12.5H82.9V609.9H81.11Z"/><path class="b" d="M87.09,609.57a3.09,3.09,0,0,1-1.29-1.36,4.85,4.85,0,0,1-.44-2.15v-1.48a4.71,4.71,0,0,1,.44-2.12,3.12,3.12,0,0,1,1.29-1.35,4.71,4.71,0,0,1,4.06,0,3.12,3.12,0,0,1,1.29,1.35,4.71,4.71,0,0,1,.44,2.12v1.51a4.79,4.79,0,0,1-.44,2.13,3.12,3.12,0,0,1-1.29,1.35,4.62,4.62,0,0,1-4.06,0Zm3.49-1.83a2.43,2.43,0,0,0,.51-1.65v-1.51a2.43,2.43,0,0,0-.51-1.65,1.88,1.88,0,0,0-1.46-.58,1.85,1.85,0,0,0-1.45.58,2.38,2.38,0,0,0-.52,1.65v1.51a2.38,2.38,0,0,0,.52,1.65,1.82,1.82,0,0,0,1.45.59A1.85,1.85,0,0,0,90.58,607.74Z"/><path class="b" d="M95.43,600.78h1.79v9.12H95.43Zm4.42,1.72a2.16,2.16,0,0,0-.83-.15,1.83,1.83,0,0,0-1.33.47,1.79,1.79,0,0,0-.47,1.31L97,602.37a3.32,3.32,0,0,1,1.09-1.27,2.58,2.58,0,0,1,1.48-.45,3.39,3.39,0,0,1,1.13.18,2.62,2.62,0,0,1,.88.53l-1.17,1.58A1.56,1.56,0,0,0,99.85,602.5Z"/><path class="b" d="M102.15,600.78H104l2.81,7.93-1,1.94Zm8.07,0L106.34,612a2.6,2.6,0,0,1-.56,1,1.87,1.87,0,0,1-.84.52,4,4,0,0,1-1.23.16h-.36V612h.36a1.46,1.46,0,0,0,.8-.2,1.74,1.74,0,0,0,.51-.7l3.38-10.31Z"/><path class="b" d="M113.51,609.88a5.76,5.76,0,0,1-1.32-.48,4.89,4.89,0,0,1-1.13-.79l1.06-1.31a5.86,5.86,0,0,0,1.47.85,4.18,4.18,0,0,0,1.44.28,3.11,3.11,0,0,0,1.6-.33,1.1,1.1,0,0,0,.53-1,.79.79,0,0,0-.29-.66,1.66,1.66,0,0,0-.72-.29c-.29,0-.69-.1-1.22-.14h-.15l-.14,0h-.15a6.45,6.45,0,0,1-1.5-.26,2,2,0,0,1-1-.7,2.38,2.38,0,0,1-.41-1.49,3.07,3.07,0,0,1,.39-1.61,2.41,2.41,0,0,1,1.18-1,5.29,5.29,0,0,1,2-.32,6.38,6.38,0,0,1,2.6.52,6.16,6.16,0,0,1,1.13.66l-1.08,1.31a5.59,5.59,0,0,0-1.35-.66,4,4,0,0,0-1.3-.22,2.44,2.44,0,0,0-1.37.31,1.08,1.08,0,0,0-.46.94.64.64,0,0,0,.26.55,1.72,1.72,0,0,0,.66.25c.26,0,.64.07,1.12.1h.34a7.67,7.67,0,0,1,1.63.25,2.24,2.24,0,0,1,1.13.77,2.62,2.62,0,0,1,.45,1.65,2.92,2.92,0,0,1-.42,1.63,2.54,2.54,0,0,1-1.27,1A5.88,5.88,0,0,1,115,610,7.38,7.38,0,0,1,113.51,609.88Z"/><path class="b" d="M126,597.13h1.8V609.9H126Zm2.6,12.5a2.39,2.39,0,0,1-.93-1.16l.13-1.91a2.22,2.22,0,0,0,.21,1,1.48,1.48,0,0,0,.61.63,1.93,1.93,0,0,0,1,.22,1.74,1.74,0,0,0,1.37-.54,2.18,2.18,0,0,0,.49-1.53v-2a2.26,2.26,0,0,0-.49-1.56,1.71,1.71,0,0,0-1.37-.55,2,2,0,0,0-1,.21,1.36,1.36,0,0,0-.61.62,2.12,2.12,0,0,0-.21,1l-.19-1.76a3.37,3.37,0,0,1,1.08-1.24,2.67,2.67,0,0,1,1.49-.43,3,3,0,0,1,1.65.43,2.9,2.9,0,0,1,1.06,1.27,5.1,5.1,0,0,1,.36,2v2a4.94,4.94,0,0,1-.37,2,2.79,2.79,0,0,1-1.08,1.26,3.25,3.25,0,0,1-1.71.44A2.73,2.73,0,0,1,128.57,609.63Z"/><path class="b" d="M134.46,600.78h1.82l2.81,7.93-1,1.94Zm8.07,0L138.65,612a2.6,2.6,0,0,1-.56,1,1.87,1.87,0,0,1-.84.52,4,4,0,0,1-1.23.16h-.36V612H136a1.46,1.46,0,0,0,.8-.2,1.74,1.74,0,0,0,.51-.7l3.37-10.31Z"/><path class="b" d="M143.57,600.78h4.12v1.62h-4.12Zm1.46,8.56a2.77,2.77,0,0,1-.52-1.81v-9.4h1.8v9.42a.84.84,0,0,0,.13.51.46.46,0,0,0,.39.18h.86V610h-1A2,2,0,0,1,145,609.34Z"/><path class="b" d="M151.94,606.33a2.07,2.07,0,0,0,.49,1.48,1.76,1.76,0,0,0,1.37.52,1.91,1.91,0,0,0,1.37-.46,1.79,1.79,0,0,0,.48-1.33l.12,1.91A2.58,2.58,0,0,1,153.3,610a2.89,2.89,0,0,1-2.33-1,4.08,4.08,0,0,1-.82-2.73v-5.55h1.79Zm3.71-5.55h1.78v9.12h-1.78Z"/><rect class="c" x="612.92" y="591.68" width="35.43" height="2.83"/><path class="d" d="M648.48,594.64H612.79v-3.08h35.69ZM613,594.39h35.19v-2.58H613Z"/><rect class="c" x="612.92" y="601.6" width="70.74" height="2.83"/><path class="d" d="M683.78,604.56h-71v-3.08h71ZM613,604.31h70.49v-2.58H613Z"/><rect class="c" x="612.92" y="612.72" width="177.16" height="2.84"/><path class="d" d="M790.21,615.68H612.79V612.6H790.21ZM613,615.43H790v-2.58H613Z"/><path class="e" d="M587.26,596.28h-.8v-4.82l-.81.5v-.83l.81-.53h.8Z"/><path class="e" d="M589,595.91a1.67,1.67,0,0,1-.41-1.19v-2.58A1.65,1.65,0,0,1,589,591a2,2,0,0,1,2.42,0,1.65,1.65,0,0,1,.41,1.19v2.58a1.65,1.65,0,0,1-.41,1.19,2,2,0,0,1-2.42,0Zm1.83-.55a.89.89,0,0,0,.2-.64v-2.58a.89.89,0,0,0-.2-.64.82.82,0,0,0-.62-.22.86.86,0,0,0-.63.22.94.94,0,0,0-.2.64v2.58a.9.9,0,0,0,.21.64,1,1,0,0,0,1.24,0Z"/><path class="e" d="M593.22,595.91a1.67,1.67,0,0,1-.41-1.19v-2.58a1.65,1.65,0,0,1,.41-1.19,2,2,0,0,1,2.42,0,1.61,1.61,0,0,1,.41,1.19v2.58a1.65,1.65,0,0,1-.41,1.19,2,2,0,0,1-2.42,0Zm1.83-.55a.9.9,0,0,0,.21-.64v-2.58a.94.94,0,0,0-.2-.64.86.86,0,0,0-.63-.22.82.82,0,0,0-.62.22.89.89,0,0,0-.2.64v2.58a.89.89,0,0,0,.2.64,1,1,0,0,0,1.24,0Z"/><path class="e" d="M600.1,596.13a1.45,1.45,0,0,1-.6-.6,2.06,2.06,0,0,1-.21-1v-.67a2,2,0,0,1,.21-.94,1.37,1.37,0,0,1,.6-.59,2,2,0,0,1,.95-.21,2.21,2.21,0,0,1,.59.08,1.68,1.68,0,0,1,.51.22,1.54,1.54,0,0,1,.37.35l-.58.52a1.17,1.17,0,0,0-.4-.3,1.13,1.13,0,0,0-.48-.11.94.94,0,0,0-.71.26,1,1,0,0,0-.26.72v.67a1,1,0,0,0,.25.74.94.94,0,0,0,.72.27,1,1,0,0,0,.48-.12,1,1,0,0,0,.4-.32l.58.56a1.38,1.38,0,0,1-.38.34,1.62,1.62,0,0,1-.5.22,2.27,2.27,0,0,1-.59.07A2.12,2.12,0,0,1,600.1,596.13Z"/><path class="e" d="M603.4,592.22h.79v4.06h-.79Zm2.42,1.6a1,1,0,0,0-.21-.67.78.78,0,0,0-.6-.23.81.81,0,0,0-.6.21.73.73,0,0,0-.22.58l-.08-.78a1.46,1.46,0,0,1,.49-.57,1.22,1.22,0,0,1,.67-.2,1.33,1.33,0,0,1,.73.2,1.18,1.18,0,0,1,.46.56,2.4,2.4,0,0,1,.15.89v2.47h-.79Zm2.42,0a.93.93,0,0,0-.22-.67.85.85,0,0,0-.63-.23.72.72,0,0,0-.57.23.9.9,0,0,0-.21.64l-.16-.78a1.61,1.61,0,0,1,.51-.63,1.23,1.23,0,0,1,.69-.22,1.37,1.37,0,0,1,.75.2,1.09,1.09,0,0,1,.47.56,2.21,2.21,0,0,1,.17.89v2.47h-.8Z"/><path class="e" d="M584.33,605.5l2-2.64a1.85,1.85,0,0,0,.27-.47,1.29,1.29,0,0,0,.09-.45h0a.67.67,0,0,0-.2-.53.81.81,0,0,0-.56-.19.76.76,0,0,0-.56.21,1,1,0,0,0-.27.58h-.82a2,2,0,0,1,.29-.83,1.42,1.42,0,0,1,.56-.53,1.67,1.67,0,0,1,.79-.18,1.93,1.93,0,0,1,.87.17,1.21,1.21,0,0,1,.54.51,1.55,1.55,0,0,1,.19.8h0a1.84,1.84,0,0,1-.12.63,2.8,2.8,0,0,1-.35.63l-1.65,2.24h2.15v.76h-3.2Z"/><path class="e" d="M589,605.83a1.67,1.67,0,0,1-.41-1.19v-2.58a1.65,1.65,0,0,1,.41-1.19,2,2,0,0,1,2.42,0,1.65,1.65,0,0,1,.41,1.19v2.58a1.65,1.65,0,0,1-.41,1.19,2,2,0,0,1-2.42,0Zm1.83-.55a.89.89,0,0,0,.2-.64v-2.58a.89.89,0,0,0-.2-.64.82.82,0,0,0-.62-.22.86.86,0,0,0-.63.22.94.94,0,0,0-.19.64v2.58a.89.89,0,0,0,.2.64,1,1,0,0,0,1.24,0Z"/><path class="e" d="M593.22,605.83a1.67,1.67,0,0,1-.41-1.19v-2.58a1.61,1.61,0,0,1,.42-1.19,1.59,1.59,0,0,1,1.2-.42,1.45,1.45,0,0,1,1.62,1.61v2.58a1.61,1.61,0,0,1-.41,1.19,2,2,0,0,1-2.42,0Zm1.84-.55a.94.94,0,0,0,.2-.64v-2.58a.94.94,0,0,0-.2-.64.84.84,0,0,0-.63-.22.82.82,0,0,0-.62.22.89.89,0,0,0-.2.64v2.58a.89.89,0,0,0,.2.64.82.82,0,0,0,.62.22A.86.86,0,0,0,595.06,605.28Z"/><path class="e" d="M600.1,606.05a1.45,1.45,0,0,1-.6-.6,2.06,2.06,0,0,1-.2-1v-.67a2,2,0,0,1,.2-.94,1.37,1.37,0,0,1,.6-.59,2,2,0,0,1,.95-.21,2.35,2.35,0,0,1,.6.08,1.73,1.73,0,0,1,.5.22,1.38,1.38,0,0,1,.37.35l-.58.52a1.08,1.08,0,0,0-.4-.3,1.13,1.13,0,0,0-.48-.11,1,1,0,0,0-.71.26,1,1,0,0,0-.26.72v.67a1,1,0,0,0,.25.74.94.94,0,0,0,.72.27,1.14,1.14,0,0,0,.88-.44l.58.56a1.38,1.38,0,0,1-.38.34,1.62,1.62,0,0,1-.5.22,2.22,2.22,0,0,1-.59.07A2.12,2.12,0,0,1,600.1,606.05Z"/><path class="e" d="M603.4,602.14h.79v4.06h-.79Zm2.42,1.6a1,1,0,0,0-.21-.67.78.78,0,0,0-.6-.23.81.81,0,0,0-.6.21.73.73,0,0,0-.22.58l-.08-.78a1.46,1.46,0,0,1,.49-.57,1.22,1.22,0,0,1,.67-.2,1.3,1.3,0,0,1,.73.2,1.18,1.18,0,0,1,.46.56,2.4,2.4,0,0,1,.16.89v2.47h-.8Zm2.42,0a.93.93,0,0,0-.22-.67.85.85,0,0,0-.63-.23.73.73,0,0,0-.57.23.89.89,0,0,0-.2.64l-.16-.78a1.51,1.51,0,0,1,.5-.63,1.23,1.23,0,0,1,.69-.22,1.35,1.35,0,0,1,.75.2,1.16,1.16,0,0,1,.48.56,2.4,2.4,0,0,1,.16.89v2.47h-.8Z"/><path class="e" d="M585,615.58a1.34,1.34,0,0,1-.54-.49,2,2,0,0,1-.28-.77h.8a.75.75,0,0,0,.25.49.85.85,0,0,0,.54.17.72.72,0,0,0,.59-.25,1.1,1.1,0,0,0,.21-.72v-.48a1.1,1.1,0,0,0-.21-.72.72.72,0,0,0-.59-.25.83.83,0,0,0-.4.11,1.18,1.18,0,0,0-.34.33h-.72v-3h2.89v.76h-2.1V612a1,1,0,0,1,.34-.18.94.94,0,0,1,.37-.07,1.68,1.68,0,0,1,.84.2,1.29,1.29,0,0,1,.53.6,2.07,2.07,0,0,1,.19.94V614a2.25,2.25,0,0,1-.19.94,1.31,1.31,0,0,1-.55.59,1.69,1.69,0,0,1-.86.21A1.74,1.74,0,0,1,585,615.58Z"/><path class="e" d="M589,615.32a1.65,1.65,0,0,1-.41-1.19v-2.58a1.67,1.67,0,0,1,.41-1.19,2,2,0,0,1,2.42,0,1.65,1.65,0,0,1,.41,1.19v2.58a1.64,1.64,0,0,1-.41,1.19,1.92,1.92,0,0,1-2.42,0Zm1.83-.55a.89.89,0,0,0,.2-.64v-2.58a.88.88,0,0,0-.2-.63.78.78,0,0,0-.62-.22.82.82,0,0,0-.63.22.93.93,0,0,0-.2.63v2.58a.9.9,0,0,0,.21.64,1,1,0,0,0,1.24,0Z"/><path class="e" d="M593.22,615.32a1.65,1.65,0,0,1-.41-1.19v-2.58a1.67,1.67,0,0,1,.41-1.19,2,2,0,0,1,2.42,0,1.61,1.61,0,0,1,.41,1.19v2.58a1.64,1.64,0,0,1-.41,1.19,1.92,1.92,0,0,1-2.42,0Zm1.83-.55a.9.9,0,0,0,.21-.64v-2.58a.93.93,0,0,0-.2-.63.82.82,0,0,0-.63-.22.78.78,0,0,0-.62.22.88.88,0,0,0-.2.63v2.58a.89.89,0,0,0,.2.64,1,1,0,0,0,1.24,0Z"/><path class="e" d="M600.1,615.54a1.45,1.45,0,0,1-.6-.6,2,2,0,0,1-.21-1v-.67a2,2,0,0,1,.21-.94,1.45,1.45,0,0,1,.6-.6,2,2,0,0,1,.95-.2,2.22,2.22,0,0,1,.59.07,2,2,0,0,1,.51.22,1.76,1.76,0,0,1,.37.35l-.58.52a1.17,1.17,0,0,0-.4-.3,1.13,1.13,0,0,0-.48-.11.94.94,0,0,0-.71.26,1,1,0,0,0-.26.73V614a1.07,1.07,0,0,0,.25.74,1,1,0,0,0,.72.26,1.13,1.13,0,0,0,.48-.11,1.26,1.26,0,0,0,.4-.32l.58.55a1.42,1.42,0,0,1-.38.35,1.88,1.88,0,0,1-.5.21,2.27,2.27,0,0,1-.59.08A2,2,0,0,1,600.1,615.54Z"/><path class="e" d="M603.4,611.63h.79v4.06h-.79Zm2.42,1.6a1,1,0,0,0-.21-.66.75.75,0,0,0-.6-.24.81.81,0,0,0-.6.21.75.75,0,0,0-.22.58l-.08-.78a1.5,1.5,0,0,1,.49-.56,1.15,1.15,0,0,1,.67-.2,1.32,1.32,0,0,1,.73.19,1.28,1.28,0,0,1,.46.56,2.42,2.42,0,0,1,.15.9v2.46h-.79Zm2.42,0a.91.91,0,0,0-.22-.66.82.82,0,0,0-.63-.24.72.72,0,0,0-.57.23.9.9,0,0,0-.21.64l-.16-.78a1.51,1.51,0,0,1,.51-.62,1.16,1.16,0,0,1,.69-.22,1.37,1.37,0,0,1,.75.19,1.18,1.18,0,0,1,.47.56,2.22,2.22,0,0,1,.17.9v2.46h-.8Z"/><path class="c" d="M23.49,613.89A12.92,12.92,0,1,1,36.4,601,12.93,12.93,0,0,1,23.49,613.89Zm0-24.83A11.92,11.92,0,1,0,35.4,601,11.93,11.93,0,0,0,23.49,589.06Z"/><polygon class="d" points="35.77 588.74 9.42 600.98 35.77 613.21 32.02 600.98 35.77 588.74"/><path class="c" d="M36.58,614.14,8.23,601l28.35-13.17-4,13.17ZM10.61,601,35,612.29,31.5,601,35,589.66Z"/><path class="c" d="M2.52,605.19a5,5,0,0,1-1.11-.38,4.4,4.4,0,0,1-1-.64l.81-1a3.72,3.72,0,0,0,1.16.69,4.08,4.08,0,0,0,1.38.23,2.73,2.73,0,0,0,1.55-.38,1.17,1.17,0,0,0,.55-1.05h0a1.12,1.12,0,0,0-.25-.77,1.44,1.44,0,0,0-.64-.42,8.23,8.23,0,0,0-1-.25H3.89l-.1,0a9.48,9.48,0,0,1-1.5-.36,2.08,2.08,0,0,1-1-.73,2.42,2.42,0,0,1-.41-1.51h0a2.77,2.77,0,0,1,.38-1.47,2.44,2.44,0,0,1,1.12-.92,4.48,4.48,0,0,1,1.77-.32,4.6,4.6,0,0,1,1,.11,4.9,4.9,0,0,1,1.86.86l-.73,1a4.61,4.61,0,0,0-1-.58,3,3,0,0,0-1.06-.2,2.44,2.44,0,0,0-1.46.38,1.24,1.24,0,0,0-.53,1.07h0a1,1,0,0,0,.27.75,1.74,1.74,0,0,0,.67.4,9.3,9.3,0,0,0,1.12.27h.24a7.93,7.93,0,0,1,1.4.41,2.22,2.22,0,0,1,.94.76,2.4,2.4,0,0,1,.38,1.43h0a2.62,2.62,0,0,1-.4,1.45,2.54,2.54,0,0,1-1.16.91,4.8,4.8,0,0,1-1.83.31A6.44,6.44,0,0,1,2.52,605.19Z"/><rect class="c" x="612.5" y="600.68" width="1" height="4.68"/><rect class="c" x="612.5" y="590.76" width="1" height="4.68"/><rect class="c" x="612.5" y="611.45" width="1" height="5.24"/><rect class="c" x="789.58" y="611.45" width="1" height="5.24"/><rect class="c" x="682.59" y="600.68" width="1" height="4.68"/><rect class="c" x="647.3" y="590.76" width="1" height="4.68"/><rect class="a" width="790.34" height="618.13"/><line class="f" x1="556.79" y1="378.37" x2="554.01" y2="378.37"/><line class="f" x1="277.12" y1="378.37" x2="277.12" y2="430.36"/><line class="f" x1="334.3" y1="378.37" x2="277.12" y2="378.37"/><line class="f" x1="334.3" y1="374.91" x2="334.3" y2="378.37"/><line class="f" x1="365.49" y1="374.91" x2="334.3" y2="374.91"/><line class="f" x1="365.49" y1="378.37" x2="365.49" y2="374.91"/><line class="f" x1="426.13" y1="378.37" x2="365.49" y2="378.37"/><line class="f" x1="426.13" y1="374.91" x2="426.13" y2="378.37"/><line class="f" x1="457.32" y1="374.91" x2="426.13" y2="374.91"/><line class="f" x1="457.32" y1="378.37" x2="457.32" y2="374.91"/><line class="f" x1="551.24" y1="378.37" x2="457.32" y2="378.37"/><line class="f" x1="551.24" y1="430.36" x2="551.24" y2="378.37"/><line class="f" x1="277.12" y1="430.36" x2="551.24" y2="430.36"/><line class="f" x1="556.79" y1="249.8" x2="556.79" y2="270.59"/><line class="f" x1="556.79" y1="249.8" x2="556.79" y2="249.8"/><line class="f" x1="556.79" y1="270.6" x2="556.79" y2="270.6"/><polygon class="g" points="263.25 192.62 351.63 192.62 351.63 213.76 263.6 213.76 263.6 255.35 242.46 255.35 242.46 192.62 263.25 192.62"/><line class="f" x1="263.25" y1="192.62" x2="351.63" y2="192.62"/><line class="f" x1="351.63" y1="192.62" x2="351.63" y2="213.76"/><line class="f" x1="351.63" y1="213.76" x2="263.6" y2="213.76"/><line class="f" x1="263.6" y1="213.76" x2="263.6" y2="255.35"/><line class="f" x1="263.6" y1="255.35" x2="242.46" y2="255.35"/><line class="f" x1="242.46" y1="255.35" x2="242.46" y2="192.62"/><line class="f" x1="242.46" y1="192.62" x2="263.25" y2="192.62"/><rect class="d" x="519.88" y="216.01" width="27.72" height="41.59"/><line class="f" x1="547.6" y1="257.6" x2="519.88" y2="257.6"/><line class="f" x1="519.88" y1="257.6" x2="519.88" y2="216.01"/><line class="f" x1="519.88" y1="216.01" x2="547.6" y2="216.01"/><line class="f" x1="547.6" y1="216.01" x2="547.6" y2="257.6"/><rect class="d" x="427.17" y="192.62" width="31.19" height="20.79"/><line class="f" x1="427.17" y1="192.62" x2="427.17" y2="213.41"/><line class="f" x1="458.36" y1="192.62" x2="427.17" y2="192.62"/><line class="f" x1="458.36" y1="213.41" x2="458.36" y2="192.62"/><line class="f" x1="427.17" y1="213.41" x2="458.36" y2="213.41"/><polygon class="h" points="233.8 378.37 233.8 192.97 233.8 184.3 242.46 184.3 242.46 378.37 233.8 378.37"/><rect x="365.49" y="371.44" width="60.65" height="6.93"/><polygon class="h" points="242.46 371.44 278.85 371.44 278.85 378.38 275.38 378.38 247.66 378.38 242.46 378.38 242.46 371.44"/><polygon class="h" points="526.63 378.37 526.63 371.44 556.78 371.44 556.78 378.37 552.63 378.37 526.63 378.37"/><rect x="242.46" y="364.51" width="34.66" height="6.93"/><rect x="528.37" y="364.51" width="28.42" height="6.93"/><rect x="367.22" y="364.51" width="57.18" height="6.93"/><rect x="242.46" y="184.3" width="139.66" height="8.32"/><polygon class="h" points="420.24 192.62 420.24 184.31 556.78 184.31 556.78 192.62 556.78 364.51 548.47 364.51 548.47 192.62 420.24 192.62"/><polygon class="h" points="447.97 260.89 447.97 258.47 458.36 258.47 458.36 249.8 460.79 249.8 460.79 258.47 548.47 258.47 548.47 260.89 447.97 260.89"/><polygon class="h" points="416.78 258.47 416.78 260.89 391.48 260.89 391.48 364.51 389.05 364.51 389.05 260.89 370.69 260.89 370.69 249.8 373.11 249.8 373.11 258.47 416.78 258.47"/><rect x="370.69" y="192.62" width="2.43" height="25.99"/><rect x="418.51" y="184.3" width="1.73" height="3.99"/><rect x="382.12" y="184.3" width="1.73" height="3.99"/><rect x="458.36" y="192.62" width="2.43" height="29.46"/><polygon class="h" points="520.74 215.15 520.74 211.68 524.21 211.68 548.47 211.68 548.47 215.15 520.74 215.15"/><rect x="520.74" y="192.62" width="3.47" height="19.06"/><polygon class="h" points="370.69 213.41 351.63 213.41 351.63 192.62 355.09 192.62 355.09 209.95 370.69 209.95 370.69 213.41"/><polygon class="h" points="551.24 378.37 554.01 378.37 552.63 378.37 552.63 430.36 551.24 430.36 551.24 378.37"/><line class="f" x1="552.63" y1="378.37" x2="526.63" y2="378.37"/><line class="f" x1="556.79" y1="378.37" x2="552.63" y2="378.37"/><line class="f" x1="426.13" y1="378.37" x2="365.49" y2="378.37"/><line class="f" x1="556.79" y1="364.51" x2="556.79" y2="364.51"/><line class="f" x1="424.4" y1="364.51" x2="391.48" y2="364.51"/><line class="f" x1="389.05" y1="364.51" x2="367.22" y2="364.51"/><line class="f" x1="275.38" y1="378.37" x2="247.66" y2="378.37"/><line class="f" x1="278.85" y1="378.37" x2="275.38" y2="378.37"/><line class="f" x1="277.12" y1="364.51" x2="242.46" y2="364.51"/><line class="f" x1="528.37" y1="364.51" x2="528.37" y2="371.44"/><line class="f" x1="548.47" y1="364.51" x2="528.37" y2="364.51"/><line class="f" x1="528.37" y1="371.44" x2="528.37" y2="364.51"/><line class="f" x1="424.4" y1="371.44" x2="424.4" y2="364.51"/><line class="f" x1="367.22" y1="371.44" x2="367.22" y2="364.51"/><line class="f" x1="277.12" y1="371.44" x2="277.12" y2="364.51"/><line class="f" x1="551.24" y1="378.37" x2="551.24" y2="430.36"/><line class="f" x1="551.24" y1="430.36" x2="552.63" y2="430.36"/><line class="f" x1="278.85" y1="371.44" x2="278.85" y2="378.37"/><line class="f" x1="277.12" y1="371.44" x2="278.85" y2="371.44"/><line class="f" x1="426.13" y1="371.44" x2="426.13" y2="378.37"/><line class="f" x1="424.4" y1="371.44" x2="426.13" y2="371.44"/><line class="f" x1="365.49" y1="371.44" x2="365.49" y2="378.37"/><line class="f" x1="365.49" y1="371.44" x2="367.22" y2="371.44"/><line class="f" x1="526.64" y1="371.44" x2="526.64" y2="378.37"/><line class="f" x1="526.64" y1="371.44" x2="528.37" y2="371.44"/><line class="f" x1="242.46" y1="364.51" x2="242.46" y2="192.62"/><line class="f" x1="277.12" y1="378.37" x2="277.12" y2="430.36"/><line class="f" x1="277.12" y1="430.36" x2="552.63" y2="430.36"/><line class="f" x1="528.37" y1="364.51" x2="459.06" y2="364.51"/><line class="f" x1="459.06" y1="364.51" x2="424.4" y2="364.51"/><line class="f" x1="277.12" y1="364.51" x2="332.56" y2="364.51"/><line class="f" x1="332.56" y1="364.51" x2="367.22" y2="364.51"/><line class="f" x1="278.85" y1="378.37" x2="334.3" y2="378.37"/><line class="f" x1="332.56" y1="364.51" x2="332.56" y2="371.44"/><line class="f" x1="334.3" y1="371.44" x2="334.3" y2="378.37"/><line class="f" x1="334.3" y1="374.91" x2="365.49" y2="374.91"/><line class="f" x1="335.34" y1="370.75" x2="335.34" y2="371.44"/><line class="f" x1="335.34" y1="371.44" x2="332.56" y2="371.44"/><line class="f" x1="332.56" y1="371.44" x2="332.56" y2="368.67"/><line class="f" x1="332.56" y1="368.67" x2="333.95" y2="368.67"/><line class="f" x1="333.95" y1="367.98" x2="336.72" y2="367.98"/><line class="f" x1="336.72" y1="367.98" x2="336.72" y2="370.75"/><line class="f" x1="336.72" y1="370.75" x2="333.95" y2="370.75"/><line class="f" x1="333.95" y1="370.75" x2="333.95" y2="367.98"/><line class="f" x1="365.83" y1="367.98" x2="363.06" y2="367.98"/><line class="f" x1="363.06" y1="367.98" x2="363.06" y2="370.75"/><line class="f" x1="363.06" y1="370.75" x2="365.83" y2="370.75"/><line class="f" x1="365.83" y1="370.75" x2="365.83" y2="367.98"/><line class="f" x1="336.72" y1="367.98" x2="363.06" y2="367.98"/><line class="f" x1="363.06" y1="370.75" x2="336.72" y2="370.75"/><line class="f" x1="336.72" y1="369.36" x2="363.06" y2="369.36"/><line class="f" x1="364.45" y1="370.75" x2="364.45" y2="371.44"/><line class="f" x1="364.45" y1="371.44" x2="367.22" y2="371.44"/><line class="f" x1="367.22" y1="371.44" x2="367.22" y2="368.67"/><line class="f" x1="367.22" y1="368.67" x2="365.83" y2="368.67"/><line class="f" x1="332.56" y1="368.67" x2="329.79" y2="368.67"/><line class="f" x1="329.79" y1="368.67" x2="329.79" y2="371.44"/><line class="f" x1="329.79" y1="371.44" x2="332.57" y2="371.44"/><line class="f" x1="332.56" y1="371.44" x2="332.56" y2="368.67"/><line class="f" x1="329.79" y1="368.67" x2="306.23" y2="368.67"/><line class="f" x1="329.79" y1="370.06" x2="306.23" y2="370.06"/><line class="f" x1="329.79" y1="371.44" x2="306.23" y2="371.44"/><line class="f" x1="279.89" y1="370.75" x2="279.89" y2="371.44"/><line class="f" x1="279.89" y1="371.44" x2="277.12" y2="371.44"/><line class="f" x1="277.12" y1="371.44" x2="277.12" y2="368.67"/><line class="f" x1="277.12" y1="368.67" x2="278.5" y2="368.67"/><line class="f" x1="278.5" y1="367.98" x2="281.27" y2="367.98"/><line class="f" x1="281.27" y1="367.98" x2="281.27" y2="370.75"/><line class="f" x1="281.27" y1="370.75" x2="278.5" y2="370.75"/><line class="f" x1="278.5" y1="370.75" x2="278.5" y2="367.98"/><line class="f" x1="281.27" y1="367.98" x2="302.07" y2="367.98"/><line class="f" x1="302.07" y1="370.75" x2="281.27" y2="370.75"/><line class="f" x1="281.27" y1="369.36" x2="302.07" y2="369.36"/><line class="f" x1="526.64" y1="378.37" x2="457.32" y2="378.37"/><line class="f" x1="459.06" y1="364.51" x2="459.06" y2="371.44"/><line class="f" x1="457.32" y1="371.44" x2="457.32" y2="378.37"/><line class="f" x1="457.32" y1="374.91" x2="426.13" y2="374.91"/><line class="f" x1="456.28" y1="370.75" x2="456.28" y2="371.44"/><line class="f" x1="456.28" y1="371.44" x2="459.06" y2="371.44"/><line class="f" x1="459.06" y1="371.44" x2="459.06" y2="368.67"/><line class="f" x1="459.06" y1="368.67" x2="457.67" y2="368.67"/><line class="f" x1="457.67" y1="367.98" x2="454.9" y2="367.98"/><line class="f" x1="454.9" y1="367.98" x2="454.9" y2="370.75"/><line class="f" x1="454.9" y1="370.75" x2="457.67" y2="370.75"/><line class="f" x1="457.67" y1="370.75" x2="457.67" y2="367.98"/><line class="f" x1="425.79" y1="367.98" x2="428.56" y2="367.98"/><line class="f" x1="428.56" y1="367.98" x2="428.56" y2="370.75"/><line class="f" x1="428.56" y1="370.75" x2="425.79" y2="370.75"/><line class="f" x1="425.79" y1="370.75" x2="425.79" y2="367.98"/><line class="f" x1="454.9" y1="367.98" x2="428.56" y2="367.98"/><line class="f" x1="428.56" y1="370.75" x2="454.9" y2="370.75"/><line class="f" x1="454.9" y1="369.36" x2="428.56" y2="369.36"/><line class="f" x1="427.17" y1="370.75" x2="427.17" y2="371.44"/><line class="f" x1="427.17" y1="371.44" x2="424.4" y2="371.44"/><line class="f" x1="424.4" y1="371.44" x2="424.4" y2="368.67"/><line class="f" x1="424.4" y1="368.67" x2="425.79" y2="368.67"/><line class="f" x1="525.6" y1="370.75" x2="525.6" y2="371.44"/><line class="f" x1="525.6" y1="371.44" x2="528.37" y2="371.44"/><line class="f" x1="528.37" y1="371.44" x2="528.37" y2="368.67"/><line class="f" x1="528.37" y1="368.67" x2="526.98" y2="368.67"/><line class="f" x1="526.98" y1="367.98" x2="524.21" y2="367.98"/><line class="f" x1="524.21" y1="367.98" x2="524.21" y2="370.75"/><line class="f" x1="524.21" y1="370.75" x2="526.98" y2="370.75"/><line class="f" x1="526.98" y1="370.75" x2="526.98" y2="367.98"/><line class="f" x1="495.1" y1="370.75" x2="495.1" y2="371.44"/><line class="f" x1="495.1" y1="371.44" x2="492.33" y2="371.44"/><line class="f" x1="492.33" y1="371.44" x2="492.33" y2="368.67"/><line class="f" x1="492.33" y1="368.67" x2="493.71" y2="368.67"/><line class="f" x1="493.71" y1="367.98" x2="496.49" y2="367.98"/><line class="f" x1="496.49" y1="367.98" x2="496.49" y2="370.75"/><line class="f" x1="496.49" y1="370.75" x2="493.71" y2="370.75"/><line class="f" x1="493.71" y1="370.75" x2="493.71" y2="367.98"/><line class="f" x1="524.21" y1="367.98" x2="496.49" y2="367.98"/><line class="f" x1="496.49" y1="370.75" x2="524.21" y2="370.75"/><line class="f" x1="524.21" y1="369.36" x2="496.49" y2="369.36"/><line class="f" x1="459.06" y1="368.67" x2="461.83" y2="368.67"/><line class="f" x1="461.83" y1="368.67" x2="461.83" y2="371.44"/><line class="f" x1="461.83" y1="371.44" x2="459.06" y2="371.44"/><line class="f" x1="459.06" y1="371.44" x2="459.06" y2="368.67"/><line class="f" x1="461.83" y1="368.67" x2="492.33" y2="368.67"/><line class="f" x1="461.83" y1="370.06" x2="492.33" y2="370.06"/><line class="f" x1="461.83" y1="371.44" x2="492.33" y2="371.44"/><line class="f" x1="303.45" y1="370.75" x2="303.45" y2="371.44"/><line class="f" x1="303.45" y1="371.44" x2="306.23" y2="371.44"/><line class="f" x1="306.23" y1="371.44" x2="306.23" y2="368.67"/><line class="f" x1="306.23" y1="368.67" x2="304.84" y2="368.67"/><line class="f" x1="304.84" y1="367.98" x2="302.07" y2="367.98"/><line class="f" x1="302.07" y1="367.98" x2="302.07" y2="370.75"/><line class="f" x1="302.07" y1="370.75" x2="304.84" y2="370.75"/><line class="f" x1="304.84" y1="370.75" x2="304.84" y2="367.98"/><line class="f" x1="548.47" y1="364.51" x2="548.47" y2="260.89"/><line class="f" x1="548.47" y1="258.47" x2="460.79" y2="258.47"/><line class="f" x1="458.36" y1="258.47" x2="447.97" y2="258.47"/><line class="f" x1="416.78" y1="258.47" x2="373.11" y2="258.47"/><line class="f" x1="548.47" y1="260.89" x2="447.97" y2="260.89"/><line class="f" x1="416.78" y1="260.89" x2="391.48" y2="260.89"/><line class="f" x1="389.05" y1="260.89" x2="370.69" y2="260.89"/><line class="f" x1="351.63" y1="192.62" x2="242.46" y2="192.62"/><line class="f" x1="460.79" y1="258.47" x2="460.79" y2="249.8"/><line class="f" x1="460.79" y1="222.08" x2="460.79" y2="192.62"/><line class="f" x1="458.36" y1="258.47" x2="458.36" y2="249.8"/><line class="f" x1="458.36" y1="222.08" x2="458.36" y2="192.62"/><line class="f" x1="389.05" y1="364.51" x2="389.05" y2="260.89"/><line class="f" x1="373.11" y1="258.47" x2="373.11" y2="249.8"/><line class="f" x1="373.11" y1="218.61" x2="373.11" y2="192.62"/><line class="f" x1="370.69" y1="260.89" x2="370.69" y2="249.8"/><line class="f" x1="370.69" y1="218.61" x2="370.69" y2="213.42"/><line class="f" x1="391.48" y1="364.51" x2="391.48" y2="260.89"/><line class="f" x1="418.51" y1="188.29" x2="418.51" y2="184.3"/><line class="f" x1="383.86" y1="188.29" x2="383.86" y2="184.3"/><line class="f" x1="383.86" y1="188.29" x2="382.12" y2="188.29"/><line class="f" x1="418.51" y1="188.29" x2="420.24" y2="188.29"/><line class="f" x1="420.24" y1="188.29" x2="420.24" y2="192.62"/><line class="f" x1="382.12" y1="188.29" x2="382.12" y2="192.62"/><line class="f" x1="458.36" y1="249.8" x2="460.79" y2="249.8"/><line class="f" x1="458.36" y1="222.08" x2="460.79" y2="222.08"/><line class="f" x1="416.78" y1="258.47" x2="416.78" y2="260.89"/><line class="f" x1="447.97" y1="258.47" x2="447.97" y2="260.89"/><line class="f" x1="351.63" y1="213.41" x2="351.63" y2="192.62"/><line class="f" x1="370.69" y1="218.61" x2="373.11" y2="218.61"/><line class="f" x1="370.69" y1="249.8" x2="373.11" y2="249.8"/><line class="f" x1="373.11" y1="192.62" x2="382.12" y2="192.62"/><line class="f" x1="365.83" y1="367.98" x2="365.83" y2="336.09"/><g class="i"><path class="f" d="M334,368a31.89,31.89,0,0,1,31.88-31.89"/></g><line class="f" x1="425.79" y1="367.98" x2="425.79" y2="336.09"/><g class="i"><path class="f" d="M425.79,336.09A31.88,31.88,0,0,1,457.67,368"/></g><line class="f" x1="418.51" y1="260.89" x2="446.23" y2="260.89"/><line class="f" x1="418.51" y1="260.89" x2="418.51" y2="288.62"/><g class="i"><path class="f" d="M446.23,260.89a27.73,27.73,0,0,1-27.72,27.73"/></g><line class="f" x1="418.51" y1="258.47" x2="418.51" y2="260.89"/><line class="f" x1="446.23" y1="260.89" x2="446.23" y2="258.47"/><line class="f" x1="446.23" y1="260.89" x2="447.97" y2="260.89"/><line class="f" x1="446.23" y1="258.47" x2="447.97" y2="258.47"/><line class="f" x1="416.78" y1="260.89" x2="418.51" y2="260.89"/><line class="f" x1="416.78" y1="258.47" x2="418.51" y2="258.47"/><line class="f" x1="418.51" y1="258.47" x2="425.44" y2="258.47"/><line class="f" x1="429.25" y1="258.47" x2="430.03" y2="258.47"/><line class="f" x1="433.85" y1="258.47" x2="434.63" y2="258.47"/><line class="f" x1="438.44" y1="258.47" x2="439.3" y2="258.47"/><line class="f" x1="439.3" y1="258.47" x2="446.23" y2="258.47"/><line class="f" x1="418.51" y1="260.89" x2="418.51" y2="261.76"/><line class="f" x1="418.51" y1="261.76" x2="415.05" y2="261.76"/><line class="f" x1="415.04" y1="261.76" x2="415.04" y2="260.89"/><line class="f" x1="418.51" y1="258.47" x2="418.51" y2="257.6"/><line class="f" x1="418.51" y1="257.6" x2="415.05" y2="257.6"/><line class="f" x1="415.04" y1="257.6" x2="415.04" y2="258.47"/><line class="f" x1="446.23" y1="261.76" x2="449.7" y2="261.76"/><line class="f" x1="449.7" y1="261.76" x2="449.7" y2="260.89"/><line class="f" x1="446.23" y1="258.47" x2="446.23" y2="257.6"/><line class="f" x1="446.23" y1="257.6" x2="449.7" y2="257.6"/><line class="f" x1="449.7" y1="257.6" x2="449.7" y2="258.47"/><line class="f" x1="351.7" y1="213.41" x2="370.68" y2="213.41"/><line class="f" x1="370.69" y1="213.41" x2="370.69" y2="209.95"/><line class="f" x1="370.69" y1="209.95" x2="355.09" y2="209.95"/><line class="f" x1="355.09" y1="209.95" x2="355.09" y2="192.62"/><line class="f" x1="355.09" y1="192.62" x2="370.69" y2="192.62"/><line class="f" x1="370.69" y1="192.62" x2="370.69" y2="209.95"/><line class="f" x1="385.59" y1="188.29" x2="416.78" y2="188.29"/><line class="f" x1="385.59" y1="188.29" x2="385.59" y2="219.48"/><g class="i"><path class="f" d="M416.78,188.29a31.19,31.19,0,0,1-31.19,31.19"/></g><line class="f" x1="385.59" y1="184.3" x2="385.59" y2="188.29"/><line class="f" x1="416.78" y1="188.29" x2="416.78" y2="184.3"/><line class="f" x1="416.78" y1="188.29" x2="418.51" y2="188.29"/><line class="f" x1="383.86" y1="188.29" x2="385.59" y2="188.29"/><line class="f" x1="458.36" y1="223.81" x2="458.36" y2="248.07"/><line class="f" x1="458.36" y1="223.81" x2="434.11" y2="223.81"/><g class="i"><path class="f" d="M458.36,248.07a24.26,24.26,0,0,1-24.25-24.26"/></g><line class="f" x1="460.79" y1="223.81" x2="458.36" y2="223.81"/><line class="f" x1="458.36" y1="248.07" x2="460.79" y2="248.07"/><line class="f" x1="458.36" y1="248.07" x2="458.36" y2="249.8"/><line class="f" x1="460.79" y1="248.07" x2="460.79" y2="249.8"/><line class="f" x1="458.36" y1="222.08" x2="458.36" y2="223.81"/><line class="f" x1="460.79" y1="222.08" x2="460.79" y2="223.81"/><line class="f" x1="460.79" y1="223.81" x2="460.79" y2="230.74"/><line class="f" x1="460.79" y1="234.55" x2="460.79" y2="235.33"/><line class="f" x1="460.79" y1="239.15" x2="460.79" y2="239.93"/><line class="f" x1="460.79" y1="241.14" x2="460.79" y2="248.07"/><line class="f" x1="458.36" y1="223.81" x2="457.5" y2="223.81"/><line class="f" x1="457.5" y1="223.81" x2="457.5" y2="220.35"/><line class="f" x1="457.5" y1="220.35" x2="458.36" y2="220.35"/><line class="f" x1="460.79" y1="223.81" x2="461.66" y2="223.81"/><line class="f" x1="461.66" y1="223.81" x2="461.66" y2="220.35"/><line class="f" x1="461.66" y1="220.35" x2="460.79" y2="220.35"/><line class="f" x1="457.5" y1="248.07" x2="457.5" y2="251.54"/><line class="f" x1="457.5" y1="251.54" x2="458.36" y2="251.54"/><line class="f" x1="460.79" y1="248.07" x2="461.66" y2="248.07"/><line class="f" x1="461.66" y1="248.07" x2="461.66" y2="251.54"/><line class="f" x1="461.66" y1="251.54" x2="460.79" y2="251.54"/><line class="f" x1="370.69" y1="220.35" x2="370.69" y2="248.07"/><line class="f" x1="370.69" y1="220.35" x2="342.96" y2="220.35"/><g class="i"><path class="f" d="M370.69,248.07A27.73,27.73,0,0,1,343,220.35"/></g><line class="f" x1="373.11" y1="220.35" x2="370.69" y2="220.35"/><line class="f" x1="370.69" y1="248.07" x2="373.11" y2="248.07"/><line class="f" x1="370.69" y1="248.07" x2="370.69" y2="249.8"/><line class="f" x1="373.11" y1="248.07" x2="373.11" y2="249.8"/><line class="f" x1="370.69" y1="218.61" x2="370.69" y2="220.35"/><line class="f" x1="373.11" y1="218.61" x2="373.11" y2="220.35"/><line class="f" x1="373.11" y1="220.35" x2="373.11" y2="227.28"/><line class="f" x1="373.11" y1="231.09" x2="373.11" y2="231.87"/><line class="f" x1="373.11" y1="235.68" x2="373.11" y2="236.46"/><line class="f" x1="373.11" y1="240.27" x2="373.11" y2="241.14"/><line class="f" x1="373.11" y1="241.14" x2="373.11" y2="248.07"/><line class="f" x1="370.69" y1="220.35" x2="369.82" y2="220.35"/><line class="f" x1="369.82" y1="220.35" x2="369.82" y2="216.88"/><line class="f" x1="369.82" y1="216.88" x2="370.69" y2="216.88"/><line class="f" x1="373.11" y1="220.35" x2="373.98" y2="220.35"/><line class="f" x1="373.98" y1="220.35" x2="373.98" y2="216.88"/><line class="f" x1="373.98" y1="216.88" x2="373.11" y2="216.88"/><line class="f" x1="369.82" y1="248.07" x2="369.82" y2="251.54"/><line class="f" x1="369.82" y1="251.54" x2="370.69" y2="251.54"/><line class="f" x1="373.11" y1="248.07" x2="373.98" y2="248.07"/><line class="f" x1="373.98" y1="248.07" x2="373.98" y2="251.54"/><line class="f" x1="373.98" y1="251.54" x2="373.11" y2="251.54"/><line class="f" x1="373.11" y1="253.27" x2="413.31" y2="253.27"/><line class="f" x1="413.31" y1="253.27" x2="413.31" y2="258.47"/><line class="f" x1="413.31" y1="258.47" x2="373.11" y2="258.47"/><line class="f" x1="373.11" y1="258.47" x2="373.11" y2="253.27"/><line class="f" x1="268.11" y1="213.76" x2="268.11" y2="192.62"/><line class="f" x1="268.11" y1="192.62" x2="288.9" y2="192.62"/><line class="f" x1="288.9" y1="192.62" x2="288.9" y2="213.76"/><line class="f" x1="288.9" y1="213.76" x2="268.11" y2="213.76"/><g class="i"><path class="f" d="M284.57,203.36a6.07,6.07,0,1,0-6.07,6.07,6.06,6.06,0,0,0,6.07-6.07"/><path class="f" d="M283.53,203.36a5,5,0,1,0-5,5,5,5,0,0,0,5-5"/></g><line class="f" x1="343.33" y1="200.91" x2="338.43" y2="205.82"/><line class="f" x1="338.43" y1="200.91" x2="343.33" y2="205.82"/><line class="f" x1="340.88" y1="206.83" x2="340.88" y2="199.9"/><line class="f" x1="344.35" y1="203.36" x2="337.42" y2="203.36"/><line class="f" x1="330.49" y1="192.97" x2="330.49" y2="213.76"/><line class="f" x1="351.28" y1="213.76" x2="330.49" y2="213.76"/><line class="f" x1="329.62" y1="212.03" x2="310.56" y2="212.03"/><line class="f" x1="310.56" y1="212.03" x2="310.56" y2="194.7"/><line class="f" x1="310.56" y1="194.7" x2="329.62" y2="194.7"/><line class="f" x1="329.62" y1="194.7" x2="329.62" y2="212.03"/><line class="f" x1="330.49" y1="213.76" x2="309.69" y2="213.76"/><line class="f" x1="327.89" y1="210.3" x2="312.29" y2="210.3"/><line class="f" x1="312.29" y1="210.3" x2="312.29" y2="198.17"/><line class="f" x1="312.29" y1="198.17" x2="327.89" y2="198.17"/><line class="f" x1="327.89" y1="198.17" x2="327.89" y2="210.3"/><g class="i"><path class="f" d="M320.78,201.63a.69.69,0,1,0-.69.7.69.69,0,0,0,.69-.7"/></g><line class="f" x1="309.69" y1="192.97" x2="309.69" y2="213.76"/><line class="f" x1="309.69" y1="213.76" x2="288.9" y2="213.76"/><line class="f" x1="288.9" y1="213.76" x2="288.9" y2="192.97"/><line class="f" x1="263.6" y1="255.35" x2="242.81" y2="255.35"/><g class="i"><path class="f" d="M251.5,229.62a3.4,3.4,0,1,0-3.4,3.41,3.4,3.4,0,0,0,3.4-3.41"/></g><line class="f" x1="242.81" y1="224.33" x2="263.6" y2="224.33"/><line class="f" x1="263.6" y1="224.33" x2="263.6" y2="245.12"/><line class="f" x1="263.6" y1="245.12" x2="242.81" y2="245.12"/><g class="i"><path class="f" d="M261.71,229.62a3.4,3.4,0,1,0-3.4,3.41,3.4,3.4,0,0,0,3.4-3.41"/><path class="f" d="M261.71,239.83a3.4,3.4,0,1,0-3.4,3.4,3.4,3.4,0,0,0,3.4-3.4"/></g><line class="f" x1="264.55" y1="242.29" x2="264.55" y2="227.17"/><line class="f" x1="242.46" y1="255.35" x2="242.46" y2="192.62"/><line class="f" x1="242.46" y1="192.62" x2="351.63" y2="192.62"/><line class="f" x1="351.63" y1="192.62" x2="351.63" y2="213.76"/><line class="f" x1="351.63" y1="213.76" x2="263.6" y2="213.76"/><line class="f" x1="263.6" y1="213.76" x2="263.6" y2="255.35"/><line class="f" x1="263.6" y1="255.35" x2="242.46" y2="255.35"/><line class="f" x1="420.24" y1="192.62" x2="458.36" y2="192.62"/><g class="i"><path class="f" d="M543.27,221.21a.87.87,0,1,0-.87.87.86.86,0,0,0,.87-.87"/></g><line class="f" x1="519.88" y1="216.01" x2="519.88" y2="257.6"/><line class="f" x1="519.88" y1="257.6" x2="547.6" y2="257.6"/><line class="f" x1="547.6" y1="257.6" x2="547.6" y2="216.01"/><line class="f" x1="547.6" y1="216.01" x2="519.88" y2="216.01"/><line class="f" x1="521.61" y1="221.21" x2="521.61" y2="252.4"/><line class="f" x1="525.08" y1="255.87" x2="542.4" y2="255.87"/><line class="f" x1="545.87" y1="252.4" x2="545.87" y2="221.21"/><line class="f" x1="542.4" y1="217.75" x2="525.08" y2="217.75"/><g class="i"><path class="f" d="M521.61,221.21a3.46,3.46,0,0,1,3.47-3.46"/><path class="f" d="M525.08,255.87a3.47,3.47,0,0,1-3.47-3.47"/><path class="f" d="M542.4,217.75a3.46,3.46,0,0,1,3.47,3.46"/><path class="f" d="M545.87,252.4a3.47,3.47,0,0,1-3.47,3.47"/></g><line class="f" x1="520.74" y1="197.82" x2="460.79" y2="197.82"/><line class="f" x1="514.16" y1="257.6" x2="514.16" y2="254.14"/><line class="f" x1="514.16" y1="254.13" x2="493.37" y2="254.13"/><line class="f" x1="493.37" y1="254.13" x2="493.37" y2="257.6"/><line class="f" x1="493.37" y1="257.6" x2="494.41" y2="257.6"/><line class="f" x1="494.41" y1="257.6" x2="494.41" y2="255.17"/><line class="f" x1="494.41" y1="255.17" x2="513.12" y2="255.17"/><line class="f" x1="513.12" y1="255.17" x2="513.12" y2="257.6"/><line class="f" x1="513.12" y1="257.6" x2="514.16" y2="257.6"/><line class="f" x1="514.16" y1="257.6" x2="514.16" y2="254.14"/><line class="f" x1="493.37" y1="257.6" x2="493.37" y2="254.14"/><line class="f" x1="513.12" y1="257.6" x2="513.12" y2="255.17"/><line class="f" x1="494.41" y1="257.6" x2="494.41" y2="255.17"/><line class="f" x1="514.16" y1="254.13" x2="493.37" y2="254.13"/><line class="f" x1="514.16" y1="255.17" x2="493.37" y2="255.17"/><line class="f" x1="514.16" y1="257.6" x2="513.12" y2="257.6"/><line class="f" x1="494.41" y1="257.6" x2="493.37" y2="257.6"/><line class="f" x1="524.21" y1="197.82" x2="524.21" y2="192.62"/><line class="f" x1="524.21" y1="192.62" x2="548.47" y2="192.62"/><line class="f" x1="548.47" y1="192.62" x2="548.47" y2="211.68"/><line class="f" x1="548.47" y1="211.68" x2="524.21" y2="211.68"/><line class="f" x1="524.21" y1="211.68" x2="524.21" y2="197.82"/><line class="f" x1="548.47" y1="215.15" x2="520.74" y2="215.15"/><line class="f" x1="520.74" y1="215.15" x2="520.74" y2="211.68"/><line class="f" x1="520.74" y1="215.15" x2="520.74" y2="192.62"/><line class="f" x1="524.21" y1="211.68" x2="520.74" y2="211.68"/><line class="f" x1="548.47" y1="215.15" x2="548.47" y2="258.47"/><line class="f" x1="460.79" y1="192.62" x2="520.74" y2="192.62"/><line class="f" x1="370.69" y1="213.41" x2="370.69" y2="209.95"/><line class="f" x1="507.23" y1="362.78" x2="479.5" y2="362.78"/><line class="f" x1="479.5" y1="362.78" x2="479.5" y2="360.6"/><line class="f" x1="479.5" y1="360.6" x2="507.23" y2="360.6"/><line class="f" x1="507.23" y1="360.6" x2="507.23" y2="362.78"/><g class="i"><path class="f" d="M477.77,361.69a1.73,1.73,0,1,0-1.73,1.73,1.73,1.73,0,0,0,1.73-1.73"/></g><line class="f" x1="328.75" y1="362.78" x2="280.23" y2="362.78"/><line class="f" x1="280.23" y1="362.78" x2="280.23" y2="359.31"/><line class="f" x1="280.23" y1="359.31" x2="328.75" y2="359.31"/><line class="f" x1="328.75" y1="359.31" x2="328.75" y2="362.78"/><g class="i"><path class="f" d="M278.5,361.05a1.73,1.73,0,1,0-1.73,1.73,1.73,1.73,0,0,0,1.73-1.73"/></g><line class="f" x1="457.32" y1="378.37" x2="450.39" y2="378.37"/><line class="f" x1="446.58" y1="378.37" x2="445.8" y2="378.37"/><line class="f" x1="441.99" y1="378.37" x2="441.21" y2="378.37"/><line class="f" x1="437.4" y1="378.37" x2="433.07" y2="378.37"/><line class="f" x1="433.07" y1="378.37" x2="426.13" y2="378.37"/><line class="f" x1="365.49" y1="378.37" x2="358.56" y2="378.37"/><line class="f" x1="354.74" y1="378.37" x2="353.96" y2="378.37"/><line class="f" x1="350.15" y1="378.37" x2="349.37" y2="378.37"/><line class="f" x1="345.56" y1="378.37" x2="341.23" y2="378.37"/><line class="f" x1="341.23" y1="378.37" x2="334.3" y2="378.37"/><line class="f" x1="370.69" y1="209.95" x2="355.09" y2="209.95"/><line class="f" x1="355.09" y1="209.95" x2="355.09" y2="192.62"/><line class="f" x1="355.09" y1="192.62" x2="358.56" y2="206.48"/><line class="f" x1="358.56" y1="206.48" x2="370.69" y2="209.95"/><line class="f" x1="548.47" y1="211.68" x2="524.21" y2="211.68"/><line class="f" x1="524.21" y1="211.68" x2="524.21" y2="192.62"/><line class="f" x1="524.21" y1="192.62" x2="527.68" y2="208.22"/><line class="f" x1="527.68" y1="208.22" x2="548.47" y2="211.68"/><rect class="d" x="281.27" y="295.2" width="17.33" height="27.72"/><line class="f" x1="281.27" y1="295.2" x2="281.27" y2="322.93"/><line class="f" x1="298.6" y1="295.2" x2="281.28" y2="295.2"/><line class="f" x1="298.6" y1="322.93" x2="298.6" y2="295.2"/><line class="f" x1="281.27" y1="322.93" x2="298.6" y2="322.93"/><rect class="d" x="370.69" y="260.89" width="18.37" height="103.62"/><line class="f" x1="370.69" y1="260.89" x2="370.69" y2="364.51"/><line class="f" x1="389.05" y1="260.89" x2="370.69" y2="260.89"/><line class="f" x1="389.05" y1="364.51" x2="389.05" y2="260.89"/><line class="f" x1="370.69" y1="364.51" x2="389.05" y2="364.51"/><rect class="d" x="460.79" y="192.62" width="59.92" height="5.2"/><line class="f" x1="520.71" y1="197.82" x2="460.79" y2="197.82"/><line class="f" x1="460.79" y1="197.82" x2="460.79" y2="192.62"/><line class="f" x1="460.79" y1="192.62" x2="520.7" y2="192.62"/><line class="f" x1="520.71" y1="192.62" x2="520.71" y2="197.82"/><rect class="d" x="493.37" y="255.17" width="1.04" height="2.43"/><line class="f" x1="494.41" y1="255.17" x2="493.37" y2="255.17"/><line class="f" x1="494.41" y1="257.6" x2="494.41" y2="255.17"/><line class="f" x1="493.37" y1="257.6" x2="494.41" y2="257.6"/><line class="f" x1="493.37" y1="255.17" x2="493.37" y2="257.6"/><polygon class="d" points="493.37 254.13 493.37 255.17 494.4 255.17 514.16 255.17 514.16 254.13 493.37 254.13"/><line class="f" x1="494.41" y1="255.17" x2="514.16" y2="255.17"/><line class="f" x1="493.37" y1="255.17" x2="494.41" y2="255.17"/><line class="f" x1="493.37" y1="254.13" x2="493.37" y2="255.17"/><line class="f" x1="514.16" y1="254.13" x2="493.37" y2="254.13"/><line class="f" x1="514.16" y1="255.17" x2="514.16" y2="254.13"/><rect class="d" x="513.12" y="255.17" width="1.04" height="2.43"/><line class="f" x1="513.12" y1="257.6" x2="514.16" y2="257.6"/><line class="f" x1="513.12" y1="255.17" x2="513.12" y2="257.6"/><line class="f" x1="514.16" y1="255.17" x2="513.12" y2="255.17"/><line class="f" x1="514.16" y1="257.6" x2="514.16" y2="255.17"/><rect class="d" x="373.11" y="253.27" width="40.2" height="5.2"/><line class="f" x1="373.11" y1="253.27" x2="373.11" y2="258.47"/><line class="f" x1="413.32" y1="253.27" x2="373.11" y2="253.27"/><line class="f" x1="413.32" y1="258.47" x2="413.32" y2="253.27"/><line class="f" x1="373.11" y1="258.47" x2="413.32" y2="258.47"/><polygon class="g" points="278.5 361.05 278 362.27 276.77 362.78 275.55 362.27 275.04 361.05 275.55 359.82 276.77 359.31 278 359.82 278.5 361.05"/><g class="i"><path class="f" d="M278.5,361.05a1.73,1.73,0,0,1-3.46,0"/><path class="f" d="M275,361.05a1.73,1.73,0,1,1,3.46,0"/></g><rect class="d" x="280.23" y="359.31" width="48.52" height="3.46"/><line class="f" x1="328.75" y1="362.78" x2="328.75" y2="359.31"/><line class="f" x1="280.23" y1="362.78" x2="328.75" y2="362.78"/><line class="f" x1="280.23" y1="359.31" x2="280.23" y2="362.78"/><line class="f" x1="328.75" y1="359.31" x2="280.23" y2="359.31"/><polygon class="g" points="477.77 361.69 477.26 362.91 476.04 363.42 474.81 362.91 474.31 361.69 474.81 360.46 476.04 359.95 477.26 360.46 477.77 361.69"/><g class="i"><path class="f" d="M477.77,361.69a1.73,1.73,0,1,1-3.46,0"/><path class="f" d="M474.31,361.69a1.73,1.73,0,1,1,3.46,0"/></g><rect class="d" x="479.5" y="360.6" width="27.72" height="2.18"/><line class="f" x1="479.5" y1="362.78" x2="507.23" y2="362.78"/><line class="f" x1="479.5" y1="360.6" x2="479.5" y2="362.78"/><line class="f" x1="507.23" y1="360.6" x2="479.5" y2="360.6"/><line class="f" x1="507.23" y1="362.78" x2="507.23" y2="360.6"/><polygon class="g" points="527.67 260.89 465.3 260.89 465.3 271.29 465.3 323.27 465.82 325.93 467.33 328.17 469.57 329.68 472.23 330.2 520.74 330.2 523.39 329.68 525.64 328.17 527.15 325.93 527.67 323.27 527.67 260.89"/><rect class="d" x="527.68" y="260.89" width="12.13" height="10.4"/><rect class="d" x="453.17" y="260.89" width="12.13" height="10.4"/><line class="f" x1="494.52" y1="272.41" x2="493.69" y2="269.42"/><line class="f" x1="523.62" y1="272.41" x2="522.79" y2="269.42"/><line class="f" x1="472.23" y1="330.2" x2="520.74" y2="330.2"/><line class="f" x1="527.68" y1="323.27" x2="527.68" y2="260.89"/><line class="f" x1="527.68" y1="260.89" x2="465.3" y2="260.89"/><line class="f" x1="465.3" y1="260.89" x2="465.3" y2="323.27"/><line class="f" x1="527.68" y1="260.89" x2="539.8" y2="260.89"/><line class="f" x1="539.8" y1="260.89" x2="539.8" y2="271.29"/><line class="f" x1="539.8" y1="271.29" x2="527.68" y2="271.29"/><line class="f" x1="527.68" y1="271.29" x2="527.68" y2="260.89"/><line class="f" x1="453.17" y1="260.89" x2="465.29" y2="260.89"/><line class="f" x1="465.3" y1="260.89" x2="465.3" y2="271.29"/><line class="f" x1="465.3" y1="271.29" x2="453.17" y2="271.29"/><line class="f" x1="453.17" y1="271.29" x2="453.17" y2="260.89"/><line class="f" x1="527.68" y1="283.95" x2="465.3" y2="283.95"/><line class="f" x1="527.68" y1="289.15" x2="465.3" y2="289.15"/><g class="i"><path class="f" d="M499.12,278.7a97.19,97.19,0,0,1,12.76-.84c3.28,0,6.56.17,9.82.49"/><path class="f" d="M524,276.45v.09a1.85,1.85,0,0,1-1.85,1.86,2.58,2.58,0,0,1-.4,0"/><path class="f" d="M523.62,272.41a15.17,15.17,0,0,1,.35,3.21c0,.28,0,.56,0,.83"/><path class="f" d="M523.82,264.68c0,.84.06,1.67.06,2.51,0,1.74-.09,3.49-.26,5.23"/><path class="f" d="M523.36,264.18h.08a.39.39,0,0,1,.4.39.5.5,0,0,1,0,.12"/><path class="f" d="M523.36,264.18q-7.44.57-14.9.57-4.71,0-9.42-.23"/><path class="f" d="M497.92,265.77a1.06,1.06,0,0,1-.05-.31,1,1,0,0,1,1-1l.2,0"/><path class="f" d="M497.92,265.77a45.06,45.06,0,0,1,.49,6.67,46.74,46.74,0,0,1-.31,5.28"/><path class="f" d="M499.12,278.7a1,1,0,0,1-.25,0,.8.8,0,0,1-.8-.81.76.76,0,0,1,0-.21"/><path class="f" d="M527.68,323.27a6.94,6.94,0,0,1-6.94,6.93"/><path class="f" d="M472.23,330.2a6.93,6.93,0,0,1-6.93-6.93"/><path class="f" d="M470,278.7a97.19,97.19,0,0,1,12.76-.84c3.28,0,6.56.17,9.82.49"/><path class="f" d="M494.85,276.45s0,.06,0,.09A1.86,1.86,0,0,1,493,278.4a2.71,2.71,0,0,1-.4,0"/><path class="f" d="M494.52,272.41a15.19,15.19,0,0,1,.36,3.21c0,.28,0,.56,0,.83"/><path class="f" d="M494.72,264.68c0,.84.06,1.67.06,2.51,0,1.74-.09,3.49-.26,5.23"/><path class="f" d="M494.26,264.18h.08a.39.39,0,0,1,.4.39.5.5,0,0,1,0,.12"/><path class="f" d="M494.26,264.18q-7.44.57-14.91.57c-3.13,0-6.27-.08-9.4-.23"/><path class="f" d="M468.82,265.77a1.06,1.06,0,0,1-.05-.31,1,1,0,0,1,1-1l.21,0"/><path class="f" d="M468.82,265.77a45.06,45.06,0,0,1,.49,6.67,46.73,46.73,0,0,1-.3,5.28"/><path class="f" d="M470,278.7a1,1,0,0,1-.25,0,.8.8,0,0,1-.79-.81.76.76,0,0,1,0-.21"/></g><polygon class="g" points="379.85 305.19 378.45 306.9 377.71 309.05 377.71 311.35 378.45 313.49 379.85 315.2 379.85 326 381.77 326 383.69 318.1 383.69 315.8 384.74 312.12 384.74 308.27 383.69 304.6 383.69 302.3 381.77 294.39 379.85 294.39 379.85 305.19"/><line class="f" x1="379.85" y1="294.39" x2="379.85" y2="305.19"/><line class="f" x1="381.77" y1="294.39" x2="379.85" y2="294.39"/><line class="f" x1="383.69" y1="302.29" x2="381.77" y2="294.39"/><line class="f" x1="383.69" y1="304.6" x2="383.69" y2="302.29"/><line class="f" x1="384.74" y1="308.27" x2="383.69" y2="304.6"/><line class="f" x1="384.74" y1="312.12" x2="384.74" y2="308.27"/><line class="f" x1="383.69" y1="315.8" x2="384.74" y2="312.12"/><line class="f" x1="383.69" y1="318.1" x2="383.69" y2="315.8"/><line class="f" x1="381.77" y1="326" x2="383.69" y2="318.1"/><line class="f" x1="379.85" y1="326" x2="381.77" y2="326"/><line class="f" x1="379.85" y1="315.2" x2="379.85" y2="326"/><line class="f" x1="378.46" y1="313.49" x2="379.85" y2="315.2"/><line class="f" x1="377.71" y1="311.35" x2="378.46" y2="313.49"/><line class="f" x1="377.71" y1="309.05" x2="377.71" y2="311.35"/><line class="f" x1="378.46" y1="306.9" x2="377.71" y2="309.05"/><line class="f" x1="379.85" y1="305.19" x2="378.46" y2="306.9"/><line class="f" x1="379.85" y1="294.39" x2="379.85" y2="326"/><line class="f" x1="383.69" y1="318.1" x2="383.69" y2="302.29"/><line class="f" x1="381.77" y1="294.39" x2="379.85" y2="294.39"/><line class="f" x1="380.61" y1="323.89" x2="380.61" y2="321.79"/><line class="f" x1="380.61" y1="321.79" x2="381.1" y2="321.79"/><line class="f" x1="381.1" y1="321.79" x2="381.1" y2="323.89"/><line class="f" x1="381.1" y1="323.89" x2="380.61" y2="323.89"/><line class="f" x1="380.61" y1="321.26" x2="380.61" y2="319.15"/><line class="f" x1="380.61" y1="319.15" x2="381.1" y2="319.15"/><line class="f" x1="381.1" y1="319.15" x2="381.1" y2="321.26"/><line class="f" x1="381.1" y1="321.26" x2="380.61" y2="321.26"/><line class="f" x1="381.77" y1="294.39" x2="381.77" y2="326"/><line class="f" x1="381.1" y1="318.62" x2="380.61" y2="318.62"/><line class="f" x1="380.61" y1="318.62" x2="380.61" y2="317.57"/><line class="f" x1="380.61" y1="317.57" x2="381.1" y2="317.57"/><line class="f" x1="381.1" y1="317.57" x2="381.1" y2="318.62"/><g class="i"><path class="f" d="M379.85,315.2a6.73,6.73,0,0,1,0-10"/></g><polygon class="g" points="320.98 243.45 323.86 245.65 326.07 248.51 327.46 251.85 327.93 255.44 334.65 251.57 335.93 250.3 336.39 248.57 335.93 246.84 332.45 240.84 331.18 239.58 329.45 239.11 327.71 239.58 320.98 243.45"/><polygon class="g" points="300.15 255.44 300.62 251.85 302.01 248.51 304.22 245.65 307.09 243.45 300.37 239.58 298.63 239.11 296.89 239.58 295.62 240.84 292.15 246.84 291.69 248.57 292.15 250.3 293.42 251.57 300.15 255.44"/><polygon class="g" points="320.98 267.42 317.63 268.81 314.04 269.28 310.44 268.81 307.09 267.42 307.09 275.16 307.56 276.89 308.83 278.16 310.57 278.62 317.51 278.62 319.25 278.16 320.52 276.89 320.98 275.16 320.98 267.42"/><polygon class="g" points="327.93 255.44 327.46 251.85 326.07 248.51 323.86 245.65 320.98 243.45 317.63 242.06 314.04 241.59 310.44 242.06 307.09 243.45 304.22 245.65 302.01 248.51 300.62 251.85 300.15 255.44 300.62 259.02 302.01 262.36 304.22 265.22 307.09 267.42 310.44 268.81 314.04 269.28 317.63 268.81 320.98 267.42 323.86 265.22 326.07 262.36 327.46 259.02 327.93 255.44"/><line class="f" x1="327.46" y1="259.02" x2="327.93" y2="255.44"/><line class="f" x1="326.07" y1="262.36" x2="327.46" y2="259.02"/><line class="f" x1="323.86" y1="265.22" x2="326.07" y2="262.36"/><line class="f" x1="320.98" y1="267.42" x2="323.86" y2="265.22"/><line class="f" x1="317.63" y1="268.81" x2="320.98" y2="267.42"/><line class="f" x1="314.04" y1="269.28" x2="317.63" y2="268.81"/><line class="f" x1="310.44" y1="268.81" x2="314.04" y2="269.28"/><line class="f" x1="307.09" y1="267.42" x2="310.44" y2="268.81"/><line class="f" x1="304.22" y1="265.22" x2="307.09" y2="267.42"/><line class="f" x1="302.01" y1="262.36" x2="304.22" y2="265.22"/><line class="f" x1="300.62" y1="259.02" x2="302.01" y2="262.36"/><line class="f" x1="300.15" y1="255.44" x2="300.62" y2="259.02"/><line class="f" x1="300.62" y1="251.85" x2="300.15" y2="255.43"/><line class="f" x1="302.01" y1="248.51" x2="300.62" y2="251.85"/><line class="f" x1="304.22" y1="245.65" x2="302.01" y2="248.51"/><line class="f" x1="307.09" y1="243.45" x2="304.22" y2="245.65"/><line class="f" x1="310.44" y1="242.06" x2="307.09" y2="243.45"/><line class="f" x1="314.04" y1="241.59" x2="310.44" y2="242.06"/><line class="f" x1="317.63" y1="242.06" x2="314.04" y2="241.59"/><line class="f" x1="320.98" y1="243.45" x2="317.63" y2="242.06"/><line class="f" x1="323.86" y1="245.65" x2="320.98" y2="243.45"/><line class="f" x1="326.07" y1="248.51" x2="323.86" y2="245.65"/><line class="f" x1="327.46" y1="251.85" x2="326.07" y2="248.51"/><line class="f" x1="327.93" y1="255.44" x2="327.46" y2="251.85"/><g class="i"><path class="f" d="M314,269.28a13.85,13.85,0,1,1,0-27.69"/><path class="f" d="M314,241.59a13.84,13.84,0,1,1,0,27.68"/></g><line class="f" x1="330.95" y1="241.71" x2="334.42" y2="247.7"/><line class="f" x1="334.65" y1="251.57" x2="327.93" y2="255.43"/><line class="f" x1="332.45" y1="240.84" x2="335.93" y2="246.84"/><line class="f" x1="320.98" y1="243.45" x2="327.71" y2="239.58"/><line class="f" x1="293.66" y1="247.7" x2="297.13" y2="241.71"/><line class="f" x1="300.37" y1="239.58" x2="307.09" y2="243.45"/><line class="f" x1="292.15" y1="246.84" x2="295.62" y2="240.84"/><line class="f" x1="300.15" y1="255.44" x2="293.42" y2="251.57"/><line class="f" x1="317.51" y1="276.89" x2="310.56" y2="276.89"/><line class="f" x1="307.09" y1="275.16" x2="307.09" y2="267.42"/><line class="f" x1="317.51" y1="278.62" x2="310.56" y2="278.62"/><line class="f" x1="320.98" y1="267.42" x2="320.98" y2="275.16"/><g class="i"><path class="f" d="M334.42,247.7a1.67,1.67,0,0,1,.23.87,1.74,1.74,0,0,1-.86,1.5"/><path class="f" d="M328.58,241.08a1.64,1.64,0,0,1,.87-.23,1.72,1.72,0,0,1,1.5.86"/><path class="f" d="M335.93,246.84a3.47,3.47,0,0,1-1.27,4.73"/><path class="f" d="M327.71,239.58a3.48,3.48,0,0,1,4.74,1.27"/><path class="f" d="M297.13,241.71a1.73,1.73,0,0,1,1.5-.87,1.65,1.65,0,0,1,.87.24"/><path class="f" d="M294.29,250.07a1.75,1.75,0,0,1-.87-1.5,1.68,1.68,0,0,1,.24-.87"/><path class="f" d="M295.63,240.84a3.46,3.46,0,0,1,4.74-1.26"/><path class="f" d="M293.42,251.57a3.47,3.47,0,0,1-1.27-4.73"/><path class="f" d="M310.57,276.89a1.73,1.73,0,0,1-1.74-1.73"/><path class="f" d="M319.25,275.16a1.73,1.73,0,0,1-1.74,1.73"/><path class="f" d="M310.57,278.62a3.47,3.47,0,0,1-3.48-3.46"/><path class="f" d="M321,275.16a3.47,3.47,0,0,1-3.48,3.46"/></g><rect class="d" x="391.48" y="313.22" width="20.79" height="51.29"/><line class="f" x1="412.27" y1="364.51" x2="412.27" y2="313.22"/><line class="f" x1="412.27" y1="313.22" x2="391.48" y2="313.22"/><line class="f" x1="391.48" y1="313.22" x2="391.48" y2="364.51"/><line class="f" x1="391.48" y1="364.51" x2="412.27" y2="364.51"/><line class="f" x1="401.88" y1="361.95" x2="401.88" y2="315.79"/><line class="f" x1="407.99" y1="359.57" x2="395.53" y2="355.23"/><line class="f" x1="408.61" y1="354.68" x2="397.02" y2="352.88"/><line class="f" x1="394.38" y1="348" x2="407.1" y2="346.52"/><line class="f" x1="396.05" y1="340.43" x2="407.1" y2="342.43"/><line class="f" x1="395.41" y1="337.68" x2="409.03" y2="337.68"/><line class="f" x1="395.35" y1="329.88" x2="408.81" y2="331.73"/><line class="f" x1="395.58" y1="326.96" x2="407.87" y2="326.96"/><line class="f" x1="395.45" y1="319.27" x2="408.05" y2="317.79"/><line class="f" x1="396.31" y1="321.12" x2="406.97" y2="322.62"/><rect class="d" x="391.48" y="260.89" width="20.79" height="52.33"/><line class="f" x1="412.27" y1="313.22" x2="412.27" y2="260.89"/><line class="f" x1="412.27" y1="260.89" x2="391.48" y2="260.89"/><line class="f" x1="391.48" y1="260.89" x2="391.48" y2="313.22"/><line class="f" x1="391.48" y1="313.22" x2="412.27" y2="313.22"/><line class="f" x1="401.88" y1="310.61" x2="401.88" y2="263.51"/><line class="f" x1="407.99" y1="308.18" x2="395.53" y2="303.75"/><line class="f" x1="408.61" y1="303.19" x2="397.02" y2="301.36"/><line class="f" x1="394.38" y1="296.37" x2="407.1" y2="294.87"/><line class="f" x1="396.05" y1="288.65" x2="407.1" y2="290.7"/><line class="f" x1="395.41" y1="285.84" x2="409.03" y2="285.84"/><line class="f" x1="395.35" y1="277.89" x2="408.81" y2="279.78"/><line class="f" x1="395.58" y1="274.91" x2="407.87" y2="274.91"/><line class="f" x1="395.45" y1="267.06" x2="408.05" y2="265.56"/><line class="f" x1="396.31" y1="268.95" x2="406.97" y2="270.48"/><polygon class="g" points="273.65 329.8 274.15 329.42 274.34 328.82 274.34 291.04 274.15 290.42 273.65 290 274.14 289.8 274.34 289.31 274.34 288.27 273.88 286.54 272.61 285.27 270.88 284.8 245.58 284.8 245.09 285.01 244.89 285.5 244.89 356.89 245.09 357.38 245.58 357.58 273.65 357.58 274.11 357.43 274.38 357.02 274.34 356.54 274.34 330.9 274.28 330.17 273.65 329.8"/><polygon class="g" points="296.87 329.86 299.52 330.38 301.77 331.89 303.27 334.14 303.8 336.79 303.8 350.65 303.27 353.31 301.77 355.55 299.52 357.05 296.87 357.58 275.38 357.58 274.65 357.28 274.34 356.54 274.34 330.9 274.65 330.16 275.38 329.86 296.87 329.86"/><g class="i"><path class="f" d="M296.87,329.86a6.93,6.93,0,0,1,6.93,6.93"/></g><line class="f" x1="303.8" y1="336.79" x2="303.8" y2="350.65"/><g class="i"><path class="f" d="M303.8,350.65a6.93,6.93,0,0,1-6.93,6.93"/></g><line class="f" x1="296.87" y1="357.58" x2="275.38" y2="357.58"/><g class="i"><path class="f" d="M275.38,357.58a1,1,0,0,1-1-1"/></g><line class="f" x1="274.34" y1="356.54" x2="274.34" y2="330.9"/><g class="i"><path class="f" d="M274.34,330.9a1,1,0,0,1,1-1"/></g><line class="f" x1="275.38" y1="329.86" x2="296.87" y2="329.86"/><line class="f" x1="274.34" y1="289.31" x2="274.34" y2="288.27"/><line class="f" x1="270.88" y1="284.8" x2="245.58" y2="284.8"/><line class="f" x1="244.89" y1="285.5" x2="244.89" y2="289.31"/><line class="f" x1="245.58" y1="290" x2="273.65" y2="290"/><line class="f" x1="244.89" y1="289.31" x2="244.89" y2="329.86"/><line class="f" x1="244.89" y1="329.86" x2="247.31" y2="329.86"/><line class="f" x1="274.34" y1="328.82" x2="274.34" y2="291.04"/><line class="f" x1="273.3" y1="290" x2="255.93" y2="290"/><line class="f" x1="255.93" y1="329.86" x2="273.3" y2="329.86"/><line class="f" x1="247.31" y1="290" x2="253.85" y2="290"/><line class="f" x1="253.85" y1="329.86" x2="247.31" y2="329.86"/><line class="f" x1="274.34" y1="353.08" x2="274.34" y2="356.89"/><line class="f" x1="273.65" y1="357.58" x2="245.58" y2="357.58"/><line class="f" x1="244.89" y1="356.89" x2="244.89" y2="353.08"/><line class="f" x1="244.89" y1="353.08" x2="244.89" y2="329.86"/><line class="f" x1="244.89" y1="329.86" x2="247.31" y2="329.86"/><line class="f" x1="274.34" y1="330.9" x2="274.34" y2="351.34"/><line class="f" x1="255.93" y1="329.86" x2="273.3" y2="329.86"/><line class="f" x1="255.93" y1="329.86" x2="247.31" y2="329.86"/><line class="f" x1="303.8" y1="336.79" x2="303.8" y2="350.65"/><line class="f" x1="296.87" y1="357.58" x2="275.38" y2="357.58"/><line class="f" x1="274.34" y1="356.54" x2="274.34" y2="330.9"/><line class="f" x1="275.38" y1="329.86" x2="296.87" y2="329.86"/><line class="f" x1="246.27" y1="330.9" x2="246.27" y2="356.54"/><line class="f" x1="246.27" y1="328.82" x2="246.27" y2="291.04"/><g class="i"><path class="f" d="M244.89,285.5a.7.7,0,0,1,.69-.7"/><path class="f" d="M245.58,290a.69.69,0,0,1-.69-.69"/><path class="f" d="M274.34,289.31a.69.69,0,0,1-.69.69"/><path class="f" d="M273.3,290a1,1,0,0,1,1,1"/><path class="f" d="M274.34,328.82a1,1,0,0,1-1,1"/><path class="f" d="M274.34,356.89a.69.69,0,0,1-.69.69"/><path class="f" d="M245.58,357.58a.69.69,0,0,1-.69-.69"/><path class="f" d="M273.3,329.86a1,1,0,0,1,1,1"/><path class="f" d="M275.38,357.58a1,1,0,0,1-1-1"/><path class="f" d="M274.34,330.9a1,1,0,0,1,1-1"/></g><line class="f" x1="246.27" y1="356.54" x2="269.88" y2="356.54"/><g class="i"><path class="f" d="M265.11,355.29a19.64,19.64,0,0,1-14.8-24.43"/><path class="f" d="M251.12,291a118.14,118.14,0,0,1,0,37.78"/><path class="f" d="M296.87,329.86a6.93,6.93,0,0,1,6.93,6.93"/><path class="f" d="M303.8,350.65a6.93,6.93,0,0,1-6.93,6.93"/><path class="f" d="M270.88,284.8a3.47,3.47,0,0,1,3.46,3.47"/></g><line class="f" x1="556.79" y1="192.62" x2="556.79" y2="192.62"/><line class="f" x1="556.79" y1="192.62" x2="556.79" y2="247.38"/><line class="f" x1="556.79" y1="247.38" x2="556.79" y2="247.38"/><polygon class="g" points="497.89 197.82 497.89 209.26 498.16 210.97 498.94 212.52 500.15 213.76 502.11 214.79 504.31 215.15 506.5 214.79 508.46 213.76 509.67 212.52 510.45 210.97 510.72 209.26 510.72 197.82 497.89 197.82"/><line class="f" x1="510.72" y1="197.82" x2="510.72" y2="209.26"/><line class="f" x1="510.72" y1="197.82" x2="497.9" y2="197.82"/><line class="f" x1="497.9" y1="197.82" x2="497.9" y2="209.26"/><line class="f" x1="508.64" y1="201.98" x2="508.64" y2="209.26"/><line class="f" x1="499.98" y1="201.98" x2="499.98" y2="209.26"/><line class="f" x1="499.98" y1="201.98" x2="508.64" y2="201.98"/><g class="i"><path class="f" d="M510.72,209.26a5.64,5.64,0,0,1-2.25,4.5"/><path class="f" d="M500.15,213.76a5.61,5.61,0,0,1-2.25-4.5"/><path class="f" d="M508.47,213.76a6.92,6.92,0,0,1-8.32,0"/><path class="f" d="M500.15,213.76a5.61,5.61,0,0,1-2.25-4.5"/><path class="f" d="M504.31,215.15a6.94,6.94,0,0,1-4.16-1.39"/><path class="f" d="M501.4,212.1a3.55,3.55,0,0,1-1.43-2.84"/><path class="f" d="M507.22,212.1a4.85,4.85,0,0,1-5.82,0"/><path class="f" d="M508.64,209.26a3.57,3.57,0,0,1-1.42,2.84"/></g><polygon class="g" points="470.15 197.82 488.17 197.82 488.54 197.97 488.69 198.34 488.69 212.55 488.54 212.92 488.17 213.07 470.15 213.07 469.78 212.92 469.63 212.55 469.63 198.34 469.78 197.97 470.15 197.82"/><line class="f" x1="470.15" y1="197.82" x2="488.17" y2="197.82"/><g class="i"><path class="f" d="M488.17,197.82a.52.52,0,0,1,.52.52"/></g><line class="f" x1="488.69" y1="198.34" x2="488.69" y2="212.55"/><g class="i"><path class="f" d="M488.69,212.55a.52.52,0,0,1-.52.52"/></g><line class="f" x1="488.17" y1="213.07" x2="470.15" y2="213.07"/><g class="i"><path class="f" d="M470.15,213.07a.52.52,0,0,1-.52-.52"/></g><line class="f" x1="469.63" y1="212.55" x2="469.63" y2="198.34"/><g class="i"><path class="f" d="M469.63,198.34a.52.52,0,0,1,.52-.52"/></g><line class="f" x1="471.19" y1="201.63" x2="487.13" y2="201.63"/><line class="f" x1="487.65" y1="202.15" x2="487.65" y2="211.51"/><line class="f" x1="487.13" y1="212.03" x2="471.19" y2="212.03"/><line class="f" x1="470.67" y1="211.51" x2="470.67" y2="202.15"/><g class="i"><path class="f" d="M487.13,201.63a.52.52,0,0,1,.52.52"/><path class="f" d="M487.65,211.51a.52.52,0,0,1-.52.52"/><path class="f" d="M471.19,212a.52.52,0,0,1-.52-.52"/><path class="f" d="M470.67,202.15a.52.52,0,0,1,.52-.52"/></g><polygon class="g" points="478.29 199.9 478.43 201.35 478.54 201.68 478.77 203.52 478.9 203.76 479.16 203.86 479.41 203.76 479.54 203.52 479.77 201.68 479.88 201.35 480.02 199.9 479.77 199.29 479.16 199.03 478.54 199.29 478.29 199.9"/><g class="i"><path class="f" d="M478.29,199.9a.87.87,0,1,1,1.73,0"/></g><line class="f" x1="479.88" y1="201.35" x2="480.02" y2="199.9"/><g class="i"><path class="f" d="M479.88,201.35a.76.76,0,0,1-.11.33"/></g><line class="f" x1="479.54" y1="203.52" x2="479.77" y2="201.68"/><g class="i"><path class="f" d="M479.54,203.52a.39.39,0,0,1-.38.34.4.4,0,0,1-.39-.34"/></g><line class="f" x1="478.54" y1="201.68" x2="478.77" y2="203.52"/><g class="i"><path class="f" d="M478.54,201.68a.76.76,0,0,1-.11-.33"/></g><line class="f" x1="478.29" y1="199.9" x2="478.43" y2="201.35"/><line class="f" x1="479.63" y1="200.76" x2="479.63" y2="201.28"/><line class="f" x1="478.69" y1="201.28" x2="478.69" y2="200.76"/><line class="f" x1="478.69" y1="200.76" x2="479.63" y2="200.76"/><g class="i"><path class="f" d="M479.63,201.28a.47.47,0,0,1-.94,0"/><path class="f" d="M479.77,201.68a.73.73,0,0,1-.61.34.75.75,0,0,1-.62-.34"/></g><line class="f" x1="382.12" y1="192.62" x2="389.05" y2="192.62"/><line class="f" x1="392.87" y1="192.62" x2="393.65" y2="192.62"/><line class="f" x1="397.46" y1="192.62" x2="398.24" y2="192.62"/><line class="f" x1="402.05" y1="192.62" x2="408.98" y2="192.62"/><line class="f" x1="412.79" y1="192.62" x2="413.31" y2="192.62"/><line class="f" x1="413.31" y1="192.62" x2="420.24" y2="192.62"/><line class="f" x1="296.93" y1="204.91" x2="296.93" y2="199.1"/><line class="f" x1="296.93" y1="199.1" x2="299.29" y2="201"/><line class="f" x1="299.29" y1="201" x2="301.65" y2="199.1"/><line class="f" x1="301.65" y1="199.1" x2="301.65" y2="204.91"/><line class="f" x1="552.63" y1="432.09" x2="275.38" y2="432.09"/><line class="f" x1="275.38" y1="432.09" x2="275.38" y2="378.37"/><line class="f" x1="233.8" y1="184.3" x2="233.8" y2="378.37"/><line class="f" x1="233.8" y1="378.37" x2="275.38" y2="378.37"/><line class="f" x1="275.38" y1="378.37" x2="275.38" y2="433.82"/><line class="f" x1="275.38" y1="433.82" x2="552.63" y2="433.82"/><line class="f" x1="552.63" y1="433.82" x2="552.63" y2="378.37"/><line class="f" x1="552.63" y1="378.37" x2="556.78" y2="378.37"/><line class="f" x1="556.79" y1="378.37" x2="556.79" y2="184.3"/><line class="f" x1="556.79" y1="184.3" x2="233.8" y2="184.3"/><path class="j" d="M429.9,402.31v7h-.72V403h-1.64v-.64Z"/><path class="j" d="M431.58,408.81a.54.54,0,1,1,1.07,0,.54.54,0,1,1-1.07,0Z"/><path class="j" d="M433.59,405.81c0-2.23,1.17-3.56,2.79-3.56s2.8,1.33,2.8,3.56-1.18,3.56-2.8,3.56S433.59,408,433.59,405.81Zm4.85,0c0-1.87-.84-2.9-2.06-2.9s-2.06,1-2.06,2.9.84,2.9,2.06,2.9S438.44,407.68,438.44,405.81Z"/><path class="j" d="M445,407.25c0,1.19-.83,2.12-2.54,2.12a3.59,3.59,0,0,1-2.5-.9l.34-.57a3,3,0,0,0,2.15.81c1.19,0,1.82-.58,1.82-1.43s-.56-1.46-2.34-1.46H440.4l.36-3.51h3.83V403h-3.2l-.24,2.23h.9C444.16,405.18,445,406,445,407.25Z"/><path class="j" d="M486.16,231.33v7h-.72V232H483.8v-.64Z"/><path class="j" d="M487.85,237.83a.52.52,0,0,1,.52-.54.54.54,0,0,1,.54.54.55.55,0,0,1-.54.55A.53.53,0,0,1,487.85,237.83Z"/><path class="j" d="M489.85,234.83c0-2.23,1.17-3.56,2.79-3.56s2.8,1.33,2.8,3.56-1.18,3.56-2.8,3.56S489.85,237.06,489.85,234.83Zm4.85,0c0-1.87-.84-2.9-2.06-2.9s-2.06,1-2.06,2.9.84,2.9,2.06,2.9S494.7,236.7,494.7,234.83Z"/><path class="j" d="M502.42,236.49H501v1.84h-.72v-1.84h-3.95V236l3.71-4.64h.8l-3.58,4.52h3v-1.62h.7v1.62h1.4Z"/><path class="j" d="M429.9,302v7h-.72v-6.36h-1.64V302Z"/><path class="j" d="M431.58,308.52a.54.54,0,1,1,1.07,0,.54.54,0,1,1-1.07,0Z"/><path class="j" d="M433.59,305.52c0-2.23,1.17-3.56,2.79-3.56s2.8,1.33,2.8,3.56-1.18,3.56-2.8,3.56S433.59,307.75,433.59,305.52Zm4.85,0c0-1.87-.84-2.9-2.06-2.9s-2.06,1-2.06,2.9.84,2.9,2.06,2.9S438.44,307.39,438.44,305.52Z"/><path class="j" d="M444.75,307c0,1.17-.85,2.07-2.54,2.07a3.6,3.6,0,0,1-2.51-.9l.34-.57a3.07,3.07,0,0,0,2.17.81c1.16,0,1.8-.54,1.8-1.41s-.59-1.39-1.89-1.39h-.5v-.53l1.94-2.43H440V302h4.5v.51l-2,2.49C444,305.1,444.75,305.89,444.75,307Z"/><path class="j" d="M319.35,302v7h-.72v-6.36H317V302Z"/><path class="j" d="M321,308.52a.52.52,0,0,1,.52-.54.54.54,0,0,1,.54.54.55.55,0,0,1-.54.55A.53.53,0,0,1,321,308.52Z"/><path class="j" d="M323,305.52c0-2.23,1.17-3.56,2.79-3.56s2.8,1.33,2.8,3.56-1.18,3.56-2.8,3.56S323,307.75,323,305.52Zm4.85,0c0-1.87-.84-2.9-2.06-2.9s-2.06,1-2.06,2.9.84,2.9,2.06,2.9S327.89,307.39,327.89,305.52Z"/><path class="j" d="M334.43,308.38V309h-4.91v-.51l2.91-2.85c.79-.78.94-1.25.94-1.73,0-.81-.57-1.31-1.64-1.31a2.38,2.38,0,0,0-1.91.78l-.5-.44a3.11,3.11,0,0,1,2.47-1c1.42,0,2.32.72,2.32,1.89A2.88,2.88,0,0,1,333,306l-2.38,2.34Z"/><path class="j" d="M404.39,231.33v7h-.72V232H402v-.64Z"/><path class="j" d="M406.08,237.83a.52.52,0,0,1,.52-.54.54.54,0,0,1,.54.54.55.55,0,0,1-.54.55A.53.53,0,0,1,406.08,237.83Z"/><path class="j" d="M408.08,234.83c0-2.23,1.17-3.56,2.79-3.56s2.8,1.33,2.8,3.56-1.18,3.56-2.8,3.56S408.08,237.06,408.08,234.83Zm4.85,0c0-1.87-.84-2.9-2.06-2.9s-2.06,1-2.06,2.9.84,2.9,2.06,2.9S412.93,236.7,412.93,234.83Z"/><path class="j" d="M416.63,231.33v7h-.72V232h-1.64v-.64Z"/></svg>