<svg xmlns="http://www.w3.org/2000/svg" xmlns:xlink="http://www.w3.org/1999/xlink" viewBox="0 0 790.58 618.13"><defs><style>.a,.f{fill:none;}.b{fill:#595a5c;}.c{fill:#b6906c;}.d{fill:#fff;}.e{fill:#231f20;}.f{stroke:#000;stroke-linecap:round;stroke-linejoin:round;stroke-width:0.35px;}.g{clip-path:url(#a);}.h{fill:#58595b;}</style><clipPath id="a"><polygon class="a" points="408.37 184.01 300.23 184.01 300.23 378.54 304.47 378.54 304.47 434.12 479.75 434.12 479.75 378.54 490.35 378.54 490.35 184.01 408.37 184.01"/></clipPath></defs><path class="b" d="M55.31,597.13H57.1V609.9H55.31Zm.92,6.11h4.09a1.89,1.89,0,0,0,1-.27,1.82,1.82,0,0,0,.68-.77,2.67,2.67,0,0,0,.24-1.16,2.7,2.7,0,0,0-.24-1.16,1.82,1.82,0,0,0-1.7-1H56.23v-1.7h4a4.09,4.09,0,0,1,2,.48A3.45,3.45,0,0,1,63.62,599a4.64,4.64,0,0,1,0,4.11,3.34,3.34,0,0,1-1.35,1.36,4,4,0,0,1-2,.49h-4Z"/><path class="b" d="M67.7,606.33a2.07,2.07,0,0,0,.49,1.48,1.76,1.76,0,0,0,1.37.52,1.89,1.89,0,0,0,1.37-.46,1.79,1.79,0,0,0,.48-1.33l.12,1.91A2.58,2.58,0,0,1,69.06,610a2.89,2.89,0,0,1-2.33-1,4.08,4.08,0,0,1-.82-2.73v-5.55H67.7Zm.22-7.86a1.93,1.93,0,0,1-.56-1.5,2.07,2.07,0,0,1,.56-1.57,2.56,2.56,0,0,1,3.18,0,2.08,2.08,0,0,1,.57,1.56,1.94,1.94,0,0,1-.57,1.5,2.65,2.65,0,0,1-3.18,0Zm2.26-.86a.94.94,0,0,0,.24-.68,1,1,0,0,0-.24-.7.91.91,0,0,0-.67-.25.92.92,0,0,0-.67.25,1,1,0,0,0-.23.7,1,1,0,0,0,.23.68.92.92,0,0,0,.67.24A.9.9,0,0,0,70.18,597.61Zm1.23,3.17h1.78v9.12H71.41Z"/><path class="b" d="M77.1,609.63A2.82,2.82,0,0,1,76,608.36a5.08,5.08,0,0,1-.36-2v-2a5.05,5.05,0,0,1,.36-2,2.71,2.71,0,0,1,1-1.27,3,3,0,0,1,1.65-.44,2.71,2.71,0,0,1,1.48.42,3.22,3.22,0,0,1,1.09,1.19l-.18,1.86a2.19,2.19,0,0,0-.22-1,1.48,1.48,0,0,0-.61-.63,2,2,0,0,0-1-.21,1.71,1.71,0,0,0-1.37.55,2.26,2.26,0,0,0-.49,1.56v2a2.19,2.19,0,0,0,.49,1.54,1.74,1.74,0,0,0,1.37.54,1.93,1.93,0,0,0,1-.23,1.45,1.45,0,0,0,.61-.64,2.25,2.25,0,0,0,.22-1l.12,1.92a2.66,2.66,0,0,1-.89,1.14,2.56,2.56,0,0,1-1.53.45A3.19,3.19,0,0,1,77.1,609.63Zm4-12.5H82.9V609.9H81.11Z"/><path class="b" d="M87.09,609.57a3.09,3.09,0,0,1-1.29-1.36,4.85,4.85,0,0,1-.44-2.15v-1.48a4.71,4.71,0,0,1,.44-2.12,3.12,3.12,0,0,1,1.29-1.35,4.71,4.71,0,0,1,4.06,0,3.12,3.12,0,0,1,1.29,1.35,4.71,4.71,0,0,1,.44,2.12v1.51a4.79,4.79,0,0,1-.44,2.13,3.12,3.12,0,0,1-1.29,1.35,4.62,4.62,0,0,1-4.06,0Zm3.49-1.83a2.43,2.43,0,0,0,.51-1.65v-1.51a2.43,2.43,0,0,0-.51-1.65,1.88,1.88,0,0,0-1.46-.58,1.85,1.85,0,0,0-1.45.58,2.38,2.38,0,0,0-.52,1.65v1.51a2.38,2.38,0,0,0,.52,1.65,1.82,1.82,0,0,0,1.45.59A1.85,1.85,0,0,0,90.58,607.74Z"/><path class="b" d="M95.43,600.78h1.79v9.12H95.43Zm4.42,1.72a2.16,2.16,0,0,0-.83-.15,1.83,1.83,0,0,0-1.33.47,1.79,1.79,0,0,0-.47,1.31L97,602.37a3.32,3.32,0,0,1,1.09-1.27,2.58,2.58,0,0,1,1.48-.45,3.39,3.39,0,0,1,1.13.18,2.62,2.62,0,0,1,.88.53l-1.17,1.58A1.56,1.56,0,0,0,99.85,602.5Z"/><path class="b" d="M102.15,600.78H104l2.81,7.93-1,1.94Zm8.07,0L106.34,612a2.6,2.6,0,0,1-.56,1,1.87,1.87,0,0,1-.84.52,4,4,0,0,1-1.23.16h-.36V612h.36a1.46,1.46,0,0,0,.8-.2,1.74,1.74,0,0,0,.51-.7l3.38-10.31Z"/><path class="b" d="M113.51,609.88a5.76,5.76,0,0,1-1.32-.48,4.89,4.89,0,0,1-1.13-.79l1.06-1.31a5.86,5.86,0,0,0,1.47.85,4.18,4.18,0,0,0,1.44.28,3.11,3.11,0,0,0,1.6-.33,1.1,1.1,0,0,0,.53-1,.79.79,0,0,0-.29-.66,1.66,1.66,0,0,0-.72-.29c-.29,0-.69-.1-1.22-.14h-.15l-.14,0h-.15a6.45,6.45,0,0,1-1.5-.26,2,2,0,0,1-1-.7,2.38,2.38,0,0,1-.41-1.49,3.07,3.07,0,0,1,.39-1.61,2.41,2.41,0,0,1,1.18-1,5.29,5.29,0,0,1,2-.32,6.38,6.38,0,0,1,2.6.52,6.16,6.16,0,0,1,1.13.66l-1.08,1.31a5.59,5.59,0,0,0-1.35-.66,4,4,0,0,0-1.3-.22,2.44,2.44,0,0,0-1.37.31,1.08,1.08,0,0,0-.46.94.64.64,0,0,0,.26.55,1.72,1.72,0,0,0,.66.25c.26,0,.64.07,1.12.1h.34a7.67,7.67,0,0,1,1.63.25,2.24,2.24,0,0,1,1.13.77,2.62,2.62,0,0,1,.45,1.65,2.92,2.92,0,0,1-.42,1.63,2.54,2.54,0,0,1-1.27,1A5.88,5.88,0,0,1,115,610,7.38,7.38,0,0,1,113.51,609.88Z"/><path class="b" d="M126,597.13h1.8V609.9H126Zm2.6,12.5a2.39,2.39,0,0,1-.93-1.16l.13-1.91a2.22,2.22,0,0,0,.21,1,1.48,1.48,0,0,0,.61.63,1.93,1.93,0,0,0,1,.22,1.74,1.74,0,0,0,1.37-.54,2.18,2.18,0,0,0,.49-1.53v-2a2.26,2.26,0,0,0-.49-1.56,1.71,1.71,0,0,0-1.37-.55,2,2,0,0,0-1,.21,1.36,1.36,0,0,0-.61.62,2.12,2.12,0,0,0-.21,1l-.19-1.76a3.37,3.37,0,0,1,1.08-1.24,2.67,2.67,0,0,1,1.49-.43,3,3,0,0,1,1.65.43,2.9,2.9,0,0,1,1.06,1.27,5.1,5.1,0,0,1,.36,2v2a4.94,4.94,0,0,1-.37,2,2.79,2.79,0,0,1-1.08,1.26,3.25,3.25,0,0,1-1.71.44A2.73,2.73,0,0,1,128.57,609.63Z"/><path class="b" d="M134.46,600.78h1.82l2.81,7.93-1,1.94Zm8.07,0L138.65,612a2.6,2.6,0,0,1-.56,1,1.87,1.87,0,0,1-.84.52,4,4,0,0,1-1.23.16h-.36V612H136a1.46,1.46,0,0,0,.8-.2,1.74,1.74,0,0,0,.51-.7l3.37-10.31Z"/><path class="b" d="M143.57,600.78h4.12v1.62h-4.12Zm1.46,8.56a2.77,2.77,0,0,1-.52-1.81v-9.4h1.8v9.42a.84.84,0,0,0,.13.51.46.46,0,0,0,.39.18h.86V610h-1A2,2,0,0,1,145,609.34Z"/><path class="b" d="M151.94,606.33a2.07,2.07,0,0,0,.49,1.48,1.76,1.76,0,0,0,1.37.52,1.91,1.91,0,0,0,1.37-.46,1.79,1.79,0,0,0,.48-1.33l.12,1.91A2.58,2.58,0,0,1,153.3,610a2.89,2.89,0,0,1-2.33-1,4.08,4.08,0,0,1-.82-2.73v-5.55h1.79Zm3.71-5.55h1.78v9.12h-1.78Z"/><rect class="c" x="612.92" y="591.68" width="35.43" height="2.83"/><path class="d" d="M648.48,594.64H612.79v-3.08h35.69ZM613,594.39h35.19v-2.58H613Z"/><rect class="c" x="612.92" y="601.6" width="70.74" height="2.83"/><path class="d" d="M683.78,604.56h-71v-3.08h71ZM613,604.31h70.49v-2.58H613Z"/><rect class="c" x="612.92" y="612.72" width="177.16" height="2.84"/><path class="d" d="M790.21,615.68H612.79V612.6H790.21ZM613,615.43H790v-2.58H613Z"/><path class="e" d="M587.26,596.28h-.8v-4.82l-.81.5v-.83l.81-.53h.8Z"/><path class="e" d="M589,595.91a1.67,1.67,0,0,1-.41-1.19v-2.58A1.65,1.65,0,0,1,589,591a2,2,0,0,1,2.42,0,1.65,1.65,0,0,1,.41,1.19v2.58a1.65,1.65,0,0,1-.41,1.19,2,2,0,0,1-2.42,0Zm1.83-.55a.89.89,0,0,0,.2-.64v-2.58a.89.89,0,0,0-.2-.64.82.82,0,0,0-.62-.22.86.86,0,0,0-.63.22.94.94,0,0,0-.2.64v2.58a.9.9,0,0,0,.21.64,1,1,0,0,0,1.24,0Z"/><path class="e" d="M593.22,595.91a1.67,1.67,0,0,1-.41-1.19v-2.58a1.65,1.65,0,0,1,.41-1.19,2,2,0,0,1,2.42,0,1.61,1.61,0,0,1,.41,1.19v2.58a1.65,1.65,0,0,1-.41,1.19,2,2,0,0,1-2.42,0Zm1.83-.55a.9.9,0,0,0,.21-.64v-2.58a.94.94,0,0,0-.2-.64.86.86,0,0,0-.63-.22.82.82,0,0,0-.62.22.89.89,0,0,0-.2.64v2.58a.89.89,0,0,0,.2.64,1,1,0,0,0,1.24,0Z"/><path class="e" d="M600.1,596.13a1.45,1.45,0,0,1-.6-.6,2.06,2.06,0,0,1-.21-1v-.67a2,2,0,0,1,.21-.94,1.37,1.37,0,0,1,.6-.59,2,2,0,0,1,.95-.21,2.21,2.21,0,0,1,.59.08,1.68,1.68,0,0,1,.51.22,1.54,1.54,0,0,1,.37.35l-.58.52a1.17,1.17,0,0,0-.4-.3,1.13,1.13,0,0,0-.48-.11.94.94,0,0,0-.71.26,1,1,0,0,0-.26.72v.67a1,1,0,0,0,.25.74.94.94,0,0,0,.72.27,1,1,0,0,0,.48-.12,1,1,0,0,0,.4-.32l.58.56a1.38,1.38,0,0,1-.38.34,1.62,1.62,0,0,1-.5.22,2.27,2.27,0,0,1-.59.07A2.12,2.12,0,0,1,600.1,596.13Z"/><path class="e" d="M603.4,592.22h.79v4.06h-.79Zm2.42,1.6a1,1,0,0,0-.21-.67.78.78,0,0,0-.6-.23.81.81,0,0,0-.6.21.73.73,0,0,0-.22.58l-.08-.78a1.46,1.46,0,0,1,.49-.57,1.22,1.22,0,0,1,.67-.2,1.33,1.33,0,0,1,.73.2,1.18,1.18,0,0,1,.46.56,2.4,2.4,0,0,1,.15.89v2.47h-.79Zm2.42,0a.93.93,0,0,0-.22-.67.85.85,0,0,0-.63-.23.72.72,0,0,0-.57.23.9.9,0,0,0-.21.64l-.16-.78a1.61,1.61,0,0,1,.51-.63,1.23,1.23,0,0,1,.69-.22,1.37,1.37,0,0,1,.75.2,1.09,1.09,0,0,1,.47.56,2.21,2.21,0,0,1,.17.89v2.47h-.8Z"/><path class="e" d="M584.33,605.5l2-2.64a1.85,1.85,0,0,0,.27-.47,1.29,1.29,0,0,0,.09-.45h0a.67.67,0,0,0-.2-.53.81.81,0,0,0-.56-.19.76.76,0,0,0-.56.21,1,1,0,0,0-.27.58h-.82a2,2,0,0,1,.29-.83,1.42,1.42,0,0,1,.56-.53,1.67,1.67,0,0,1,.79-.18,1.93,1.93,0,0,1,.87.17,1.21,1.21,0,0,1,.54.51,1.55,1.55,0,0,1,.19.8h0a1.84,1.84,0,0,1-.12.63,2.8,2.8,0,0,1-.35.63l-1.65,2.24h2.15v.76h-3.2Z"/><path class="e" d="M589,605.83a1.67,1.67,0,0,1-.41-1.19v-2.58a1.65,1.65,0,0,1,.41-1.19,2,2,0,0,1,2.42,0,1.65,1.65,0,0,1,.41,1.19v2.58a1.65,1.65,0,0,1-.41,1.19,2,2,0,0,1-2.42,0Zm1.83-.55a.89.89,0,0,0,.2-.64v-2.58a.89.89,0,0,0-.2-.64.82.82,0,0,0-.62-.22.86.86,0,0,0-.63.22.94.94,0,0,0-.19.64v2.58a.89.89,0,0,0,.2.64,1,1,0,0,0,1.24,0Z"/><path class="e" d="M593.22,605.83a1.67,1.67,0,0,1-.41-1.19v-2.58a1.61,1.61,0,0,1,.42-1.19,1.59,1.59,0,0,1,1.2-.42,1.45,1.45,0,0,1,1.62,1.61v2.58a1.61,1.61,0,0,1-.41,1.19,2,2,0,0,1-2.42,0Zm1.84-.55a.94.94,0,0,0,.2-.64v-2.58a.94.94,0,0,0-.2-.64.84.84,0,0,0-.63-.22.82.82,0,0,0-.62.22.89.89,0,0,0-.2.64v2.58a.89.89,0,0,0,.2.64.82.82,0,0,0,.62.22A.86.86,0,0,0,595.06,605.28Z"/><path class="e" d="M600.1,606.05a1.45,1.45,0,0,1-.6-.6,2.06,2.06,0,0,1-.2-1v-.67a2,2,0,0,1,.2-.94,1.37,1.37,0,0,1,.6-.59,2,2,0,0,1,.95-.21,2.35,2.35,0,0,1,.6.08,1.73,1.73,0,0,1,.5.22,1.38,1.38,0,0,1,.37.35l-.58.52a1.08,1.08,0,0,0-.4-.3,1.13,1.13,0,0,0-.48-.11,1,1,0,0,0-.71.26,1,1,0,0,0-.26.72v.67a1,1,0,0,0,.25.74.94.94,0,0,0,.72.27,1.14,1.14,0,0,0,.88-.44l.58.56a1.38,1.38,0,0,1-.38.34,1.62,1.62,0,0,1-.5.22,2.22,2.22,0,0,1-.59.07A2.12,2.12,0,0,1,600.1,606.05Z"/><path class="e" d="M603.4,602.14h.79v4.06h-.79Zm2.42,1.6a1,1,0,0,0-.21-.67.78.78,0,0,0-.6-.23.81.81,0,0,0-.6.21.73.73,0,0,0-.22.58l-.08-.78a1.46,1.46,0,0,1,.49-.57,1.22,1.22,0,0,1,.67-.2,1.3,1.3,0,0,1,.73.2,1.18,1.18,0,0,1,.46.56,2.4,2.4,0,0,1,.16.89v2.47h-.8Zm2.42,0a.93.93,0,0,0-.22-.67.85.85,0,0,0-.63-.23.73.73,0,0,0-.57.23.89.89,0,0,0-.2.64l-.16-.78a1.51,1.51,0,0,1,.5-.63,1.23,1.23,0,0,1,.69-.22,1.35,1.35,0,0,1,.75.2,1.16,1.16,0,0,1,.48.56,2.4,2.4,0,0,1,.16.89v2.47h-.8Z"/><path class="e" d="M585,615.58a1.34,1.34,0,0,1-.54-.49,2,2,0,0,1-.28-.77h.8a.75.75,0,0,0,.25.49.85.85,0,0,0,.54.17.72.72,0,0,0,.59-.25,1.1,1.1,0,0,0,.21-.72v-.48a1.1,1.1,0,0,0-.21-.72.72.72,0,0,0-.59-.25.83.83,0,0,0-.4.11,1.18,1.18,0,0,0-.34.33h-.72v-3h2.89v.76h-2.1V612a1,1,0,0,1,.34-.18.94.94,0,0,1,.37-.07,1.68,1.68,0,0,1,.84.2,1.29,1.29,0,0,1,.53.6,2.07,2.07,0,0,1,.19.94V614a2.25,2.25,0,0,1-.19.94,1.31,1.31,0,0,1-.55.59,1.69,1.69,0,0,1-.86.21A1.74,1.74,0,0,1,585,615.58Z"/><path class="e" d="M589,615.32a1.65,1.65,0,0,1-.41-1.19v-2.58a1.67,1.67,0,0,1,.41-1.19,2,2,0,0,1,2.42,0,1.65,1.65,0,0,1,.41,1.19v2.58a1.64,1.64,0,0,1-.41,1.19,1.92,1.92,0,0,1-2.42,0Zm1.83-.55a.89.89,0,0,0,.2-.64v-2.58a.88.88,0,0,0-.2-.63.78.78,0,0,0-.62-.22.82.82,0,0,0-.63.22.93.93,0,0,0-.2.63v2.58a.9.9,0,0,0,.21.64,1,1,0,0,0,1.24,0Z"/><path class="e" d="M593.22,615.32a1.65,1.65,0,0,1-.41-1.19v-2.58a1.67,1.67,0,0,1,.41-1.19,2,2,0,0,1,2.42,0,1.61,1.61,0,0,1,.41,1.19v2.58a1.64,1.64,0,0,1-.41,1.19,1.92,1.92,0,0,1-2.42,0Zm1.83-.55a.9.9,0,0,0,.21-.64v-2.58a.93.93,0,0,0-.2-.63.82.82,0,0,0-.63-.22.78.78,0,0,0-.62.22.88.88,0,0,0-.2.63v2.58a.89.89,0,0,0,.2.64,1,1,0,0,0,1.24,0Z"/><path class="e" d="M600.1,615.54a1.45,1.45,0,0,1-.6-.6,2,2,0,0,1-.21-1v-.67a2,2,0,0,1,.21-.94,1.45,1.45,0,0,1,.6-.6,2,2,0,0,1,.95-.2,2.22,2.22,0,0,1,.59.07,2,2,0,0,1,.51.22,1.76,1.76,0,0,1,.37.35l-.58.52a1.17,1.17,0,0,0-.4-.3,1.13,1.13,0,0,0-.48-.11.94.94,0,0,0-.71.26,1,1,0,0,0-.26.73V614a1.07,1.07,0,0,0,.25.74,1,1,0,0,0,.72.26,1.13,1.13,0,0,0,.48-.11,1.26,1.26,0,0,0,.4-.32l.58.55a1.42,1.42,0,0,1-.38.35,1.88,1.88,0,0,1-.5.21,2.27,2.27,0,0,1-.59.08A2,2,0,0,1,600.1,615.54Z"/><path class="e" d="M603.4,611.63h.79v4.06h-.79Zm2.42,1.6a1,1,0,0,0-.21-.66.75.75,0,0,0-.6-.24.81.81,0,0,0-.6.21.75.75,0,0,0-.22.58l-.08-.78a1.5,1.5,0,0,1,.49-.56,1.15,1.15,0,0,1,.67-.2,1.32,1.32,0,0,1,.73.19,1.28,1.28,0,0,1,.46.56,2.42,2.42,0,0,1,.15.9v2.46h-.79Zm2.42,0a.91.91,0,0,0-.22-.66.82.82,0,0,0-.63-.24.72.72,0,0,0-.57.23.9.9,0,0,0-.21.64l-.16-.78a1.51,1.51,0,0,1,.51-.62,1.16,1.16,0,0,1,.69-.22,1.37,1.37,0,0,1,.75.19,1.18,1.18,0,0,1,.47.56,2.22,2.22,0,0,1,.17.9v2.46h-.8Z"/><path class="c" d="M23.49,613.89A12.92,12.92,0,1,1,36.4,601,12.93,12.93,0,0,1,23.49,613.89Zm0-24.83A11.92,11.92,0,1,0,35.4,601,11.93,11.93,0,0,0,23.49,589.06Z"/><polygon class="d" points="35.77 588.74 9.42 600.98 35.77 613.21 32.02 600.98 35.77 588.74"/><path class="c" d="M36.58,614.14,8.23,601l28.35-13.17-4,13.17ZM10.61,601,35,612.29,31.5,601,35,589.66Z"/><path class="c" d="M2.52,605.19a5,5,0,0,1-1.11-.38,4.4,4.4,0,0,1-1-.64l.81-1a3.72,3.72,0,0,0,1.16.69,4.08,4.08,0,0,0,1.38.23,2.73,2.73,0,0,0,1.55-.38,1.17,1.17,0,0,0,.55-1.05h0a1.12,1.12,0,0,0-.25-.77,1.44,1.44,0,0,0-.64-.42,8.23,8.23,0,0,0-1-.25H3.89l-.1,0a9.48,9.48,0,0,1-1.5-.36,2.08,2.08,0,0,1-1-.73,2.42,2.42,0,0,1-.41-1.51h0a2.77,2.77,0,0,1,.38-1.47,2.44,2.44,0,0,1,1.12-.92,4.48,4.48,0,0,1,1.77-.32,4.6,4.6,0,0,1,1,.11,4.9,4.9,0,0,1,1.86.86l-.73,1a4.61,4.61,0,0,0-1-.58,3,3,0,0,0-1.06-.2,2.44,2.44,0,0,0-1.46.38,1.24,1.24,0,0,0-.53,1.07h0a1,1,0,0,0,.27.75,1.74,1.74,0,0,0,.67.4,9.3,9.3,0,0,0,1.12.27h.24a7.93,7.93,0,0,1,1.4.41,2.22,2.22,0,0,1,.94.76,2.4,2.4,0,0,1,.38,1.43h0a2.62,2.62,0,0,1-.4,1.45,2.54,2.54,0,0,1-1.16.91,4.8,4.8,0,0,1-1.83.31A6.44,6.44,0,0,1,2.52,605.19Z"/><rect class="c" x="612.5" y="600.68" width="1" height="4.68"/><rect class="c" x="612.5" y="590.76" width="1" height="4.68"/><rect class="c" x="612.5" y="611.45" width="1" height="5.24"/><rect class="c" x="789.58" y="611.45" width="1" height="5.24"/><rect class="c" x="682.59" y="600.68" width="1" height="4.68"/><rect class="c" x="647.3" y="590.76" width="1" height="4.68"/><rect class="a" width="790.34" height="618.13"/><line class="f" x1="490.35" y1="378.54" x2="481.16" y2="378.54"/><line class="f" x1="414.02" y1="378.54" x2="305.89" y2="378.54"/><line class="f" x1="414.02" y1="375.07" x2="414.02" y2="378.54"/><line class="f" x1="445.82" y1="375.07" x2="414.02" y2="375.07"/><line class="f" x1="445.82" y1="378.54" x2="445.82" y2="375.06"/><line class="f" x1="478.33" y1="378.54" x2="445.82" y2="378.54"/><line class="f" x1="478.33" y1="430.65" x2="478.33" y2="378.54"/><line class="f" x1="305.89" y1="430.65" x2="478.33" y2="430.65"/><line class="f" x1="305.89" y1="378.54" x2="305.89" y2="430.65"/><line class="f" x1="303.06" y1="378.54" x2="300.23" y2="378.54"/><rect class="d" x="308.71" y="249.66" width="21.2" height="20.84"/><line class="f" x1="308.71" y1="249.66" x2="308.71" y2="270.5"/><line class="f" x1="329.92" y1="249.66" x2="308.71" y2="249.66"/><line class="f" x1="329.92" y1="270.5" x2="329.92" y2="249.66"/><line class="f" x1="308.71" y1="270.5" x2="329.92" y2="270.5"/><rect class="d" x="375.68" y="193.21" width="21.2" height="20.84"/><line class="f" x1="375.68" y1="193.21" x2="375.68" y2="214.06"/><line class="f" x1="396.88" y1="193.21" x2="375.68" y2="193.21"/><line class="f" x1="396.88" y1="214.06" x2="396.88" y2="193.21"/><line class="f" x1="375.68" y1="214.06" x2="396.88" y2="214.06"/><rect class="d" x="449.89" y="212.32" width="31.8" height="31.26"/><line class="f" x1="449.89" y1="212.32" x2="449.89" y2="243.58"/><line class="f" x1="481.69" y1="212.32" x2="449.89" y2="212.32"/><line class="f" x1="481.69" y1="243.58" x2="481.69" y2="212.32"/><line class="f" x1="449.89" y1="243.58" x2="481.69" y2="243.58"/><rect class="d" x="372.68" y="249.66" width="113.43" height="21.19"/><line class="f" x1="372.68" y1="249.66" x2="372.68" y2="270.85"/><line class="f" x1="486.11" y1="249.66" x2="372.68" y2="249.66"/><line class="f" x1="486.11" y1="270.85" x2="486.11" y2="249.66"/><line class="f" x1="372.68" y1="270.85" x2="486.11" y2="270.85"/><polygon points="304.47 378.54 300.23 378.54 300.23 371.59 343.35 371.59 343.35 378.54 304.47 378.54"/><polygon points="479.75 378.54 445.82 378.54 445.82 371.59 490.35 371.59 490.35 378.54 479.75 378.54"/><rect x="447.59" y="364.64" width="42.76" height="6.95"/><rect x="300.23" y="364.64" width="41.35" height="6.95"/><rect x="482.57" y="211.45" width="3.53" height="33"/><polygon points="300.23 364.64 300.23 192.34 300.23 184.01 332.39 184.01 332.39 192.34 308.71 192.34 308.71 364.64 300.23 364.64"/><polygon points="486.11 364.64 486.11 192.34 371.26 192.34 371.26 184.01 393.88 184.01 402.36 184.01 408.37 184.01 490.35 184.01 490.35 364.64 486.11 364.64"/><rect x="371.26" y="192.35" width="2.47" height="22.58"/><rect x="369.49" y="184.01" width="1.77" height="4"/><rect x="332.39" y="184.01" width="1.77" height="4"/><polygon points="450.77 211.45 450.77 192.34 454.3 192.34 454.3 207.98 486.11 207.98 486.11 211.45 450.77 211.45"/><rect x="308.71" y="247.23" width="25.44" height="2.43"/><rect x="304.47" y="378.54" width="1.41" height="52.11"/><rect x="478.33" y="378.54" width="1.41" height="52.11"/><polygon points="365.96 249.66 365.96 247.23 371.26 247.23 371.26 242.72 373.74 242.72 373.74 247.23 486.11 247.23 486.11 249.66 365.96 249.66"/><rect x="373.74" y="244.45" width="112.37" height="2.78"/><line class="f" x1="479.75" y1="378.54" x2="445.82" y2="378.54"/><line class="f" x1="490.35" y1="378.54" x2="479.75" y2="378.54"/><line class="f" x1="304.47" y1="378.54" x2="300.23" y2="378.54"/><line class="f" x1="343.35" y1="378.54" x2="304.47" y2="378.54"/><line class="f" x1="486.11" y1="364.64" x2="447.59" y2="364.64"/><line class="f" x1="341.58" y1="364.64" x2="308.71" y2="364.64"/><line class="f" x1="447.59" y1="364.64" x2="447.59" y2="371.59"/><line class="f" x1="341.58" y1="364.64" x2="341.58" y2="371.59"/><line class="f" x1="478.33" y1="378.54" x2="478.33" y2="430.65"/><line class="f" x1="478.33" y1="430.65" x2="479.75" y2="430.65"/><line class="f" x1="305.89" y1="378.54" x2="305.89" y2="430.65"/><line class="f" x1="304.47" y1="430.65" x2="305.89" y2="430.65"/><line class="f" x1="343.35" y1="371.59" x2="343.35" y2="378.54"/><line class="f" x1="341.58" y1="371.59" x2="343.35" y2="371.59"/><line class="f" x1="445.82" y1="371.59" x2="445.82" y2="378.54"/><line class="f" x1="445.82" y1="371.59" x2="447.59" y2="371.59"/><line class="f" x1="304.47" y1="430.65" x2="479.75" y2="430.65"/><line class="f" x1="343.35" y1="378.54" x2="414.02" y2="378.54"/><line class="f" x1="341.58" y1="364.64" x2="412.25" y2="364.64"/><line class="f" x1="412.25" y1="364.64" x2="412.25" y2="371.59"/><line class="f" x1="412.25" y1="364.64" x2="447.59" y2="364.64"/><line class="f" x1="414.02" y1="371.59" x2="414.02" y2="378.54"/><line class="f" x1="414.02" y1="375.07" x2="445.82" y2="375.07"/><line class="f" x1="415.08" y1="370.9" x2="415.08" y2="371.59"/><line class="f" x1="415.08" y1="371.59" x2="412.25" y2="371.59"/><line class="f" x1="412.25" y1="371.59" x2="412.25" y2="368.81"/><line class="f" x1="412.25" y1="368.81" x2="413.67" y2="368.81"/><line class="f" x1="413.67" y1="368.12" x2="416.49" y2="368.12"/><line class="f" x1="416.49" y1="368.12" x2="416.49" y2="370.9"/><line class="f" x1="416.49" y1="370.9" x2="413.67" y2="370.9"/><line class="f" x1="413.67" y1="370.9" x2="413.67" y2="368.12"/><line class="f" x1="446.18" y1="368.12" x2="443.35" y2="368.12"/><line class="f" x1="443.35" y1="368.12" x2="443.35" y2="370.9"/><line class="f" x1="443.35" y1="370.9" x2="446.18" y2="370.9"/><line class="f" x1="446.18" y1="370.9" x2="446.18" y2="368.12"/><line class="f" x1="416.49" y1="368.12" x2="443.35" y2="368.12"/><line class="f" x1="443.35" y1="370.9" x2="416.49" y2="370.9"/><line class="f" x1="416.49" y1="369.51" x2="443.35" y2="369.51"/><line class="f" x1="444.76" y1="370.9" x2="444.76" y2="371.59"/><line class="f" x1="444.76" y1="371.59" x2="447.59" y2="371.59"/><line class="f" x1="447.59" y1="371.59" x2="447.59" y2="368.81"/><line class="f" x1="447.59" y1="368.81" x2="446.18" y2="368.81"/><line class="f" x1="344.41" y1="370.9" x2="344.41" y2="371.59"/><line class="f" x1="344.41" y1="371.59" x2="341.58" y2="371.59"/><line class="f" x1="341.58" y1="371.59" x2="341.58" y2="368.81"/><line class="f" x1="341.58" y1="368.81" x2="342.99" y2="368.81"/><line class="f" x1="342.99" y1="368.12" x2="345.82" y2="368.12"/><line class="f" x1="345.82" y1="368.12" x2="345.82" y2="370.9"/><line class="f" x1="345.82" y1="370.9" x2="342.99" y2="370.9"/><line class="f" x1="342.99" y1="370.9" x2="342.99" y2="368.12"/><line class="f" x1="375.5" y1="370.9" x2="375.5" y2="371.59"/><line class="f" x1="375.5" y1="371.59" x2="378.33" y2="371.59"/><line class="f" x1="378.33" y1="371.59" x2="378.33" y2="368.81"/><line class="f" x1="378.33" y1="368.81" x2="376.92" y2="368.81"/><line class="f" x1="376.92" y1="368.12" x2="374.09" y2="368.12"/><line class="f" x1="374.09" y1="368.12" x2="374.09" y2="370.9"/><line class="f" x1="374.09" y1="370.9" x2="376.92" y2="370.9"/><line class="f" x1="376.92" y1="370.9" x2="376.92" y2="368.12"/><line class="f" x1="345.82" y1="368.12" x2="374.09" y2="368.12"/><line class="f" x1="374.09" y1="370.9" x2="345.82" y2="370.9"/><line class="f" x1="345.82" y1="369.51" x2="374.09" y2="369.51"/><line class="f" x1="412.25" y1="368.81" x2="409.43" y2="368.81"/><line class="f" x1="409.43" y1="368.81" x2="409.43" y2="371.59"/><line class="f" x1="409.43" y1="371.59" x2="412.25" y2="371.59"/><line class="f" x1="412.25" y1="371.59" x2="412.25" y2="368.81"/><line class="f" x1="409.43" y1="368.81" x2="378.33" y2="368.81"/><line class="f" x1="409.43" y1="370.2" x2="378.33" y2="370.2"/><line class="f" x1="409.43" y1="371.59" x2="378.33" y2="371.59"/><line class="f" x1="300.23" y1="364.64" x2="300.23" y2="260.78"/><line class="f" x1="308.71" y1="192.34" x2="332.39" y2="192.34"/><line class="f" x1="486.11" y1="249.66" x2="486.11" y2="364.64"/><line class="f" x1="308.71" y1="192.34" x2="308.71" y2="247.23"/><line class="f" x1="308.71" y1="249.66" x2="308.71" y2="364.64"/><line class="f" x1="300.23" y1="258.35" x2="300.23" y2="258.35"/><line class="f" x1="300.23" y1="260.78" x2="300.23" y2="260.78"/><line class="f" x1="373.74" y1="192.34" x2="450.77" y2="192.34"/><line class="f" x1="482.57" y1="244.45" x2="373.74" y2="244.45"/><line class="f" x1="373.74" y1="242.71" x2="373.74" y2="244.45"/><line class="f" x1="373.74" y1="192.34" x2="373.74" y2="214.92"/><line class="f" x1="371.26" y1="242.71" x2="371.26" y2="247.23"/><line class="f" x1="371.26" y1="192.34" x2="371.26" y2="214.92"/><line class="f" x1="371.26" y1="242.71" x2="373.74" y2="242.71"/><line class="f" x1="371.26" y1="214.92" x2="373.74" y2="214.92"/><line class="f" x1="450.77" y1="211.45" x2="482.57" y2="211.45"/><line class="f" x1="371.26" y1="247.23" x2="365.96" y2="247.23"/><line class="f" x1="334.16" y1="247.23" x2="308.71" y2="247.23"/><line class="f" x1="486.11" y1="249.66" x2="365.96" y2="249.66"/><line class="f" x1="334.16" y1="249.66" x2="308.71" y2="249.66"/><line class="f" x1="369.5" y1="188" x2="369.5" y2="184.01"/><line class="f" x1="334.16" y1="188" x2="334.16" y2="184.01"/><line class="f" x1="334.16" y1="188" x2="332.39" y2="188"/><line class="f" x1="369.5" y1="188" x2="371.26" y2="188"/><line class="f" x1="371.26" y1="188" x2="371.26" y2="192.34"/><line class="f" x1="332.39" y1="188" x2="332.39" y2="192.34"/><line class="f" x1="334.16" y1="247.23" x2="334.16" y2="249.66"/><line class="f" x1="365.96" y1="247.23" x2="365.96" y2="249.66"/><line class="f" x1="450.77" y1="192.34" x2="454.3" y2="192.34"/><line class="f" x1="482.57" y1="211.45" x2="482.57" y2="244.45"/><line class="f" x1="446.18" y1="368.12" x2="446.18" y2="336.16"/><g class="g"><path class="f" d="M413.67,368.12c0-17.65,14.55-32,32.51-32"/></g><line class="f" x1="372.68" y1="249.66" x2="486.11" y2="249.66"/><line class="f" x1="486.11" y1="249.66" x2="486.11" y2="270.85"/><line class="f" x1="486.11" y1="270.85" x2="372.68" y2="270.85"/><line class="f" x1="372.68" y1="270.85" x2="372.68" y2="249.66"/><line class="f" x1="373.74" y1="240.98" x2="373.74" y2="216.66"/><line class="f" x1="373.74" y1="240.98" x2="398.47" y2="240.98"/><g class="g"><path class="f" d="M373.74,216.66A24.53,24.53,0,0,1,398.47,241"/></g><line class="f" x1="371.26" y1="240.98" x2="373.74" y2="240.98"/><line class="f" x1="373.74" y1="216.66" x2="371.26" y2="216.66"/><line class="f" x1="373.74" y1="216.66" x2="373.74" y2="214.92"/><line class="f" x1="371.26" y1="216.66" x2="371.26" y2="214.92"/><line class="f" x1="373.74" y1="242.71" x2="373.74" y2="240.98"/><line class="f" x1="371.26" y1="242.71" x2="371.26" y2="240.98"/><line class="f" x1="371.26" y1="240.98" x2="371.26" y2="234.03"/><line class="f" x1="371.26" y1="230.21" x2="371.26" y2="229.43"/><line class="f" x1="371.26" y1="225.61" x2="371.26" y2="224.82"/><line class="f" x1="371.26" y1="223.61" x2="371.26" y2="216.66"/><line class="f" x1="373.74" y1="240.98" x2="374.62" y2="240.98"/><line class="f" x1="374.62" y1="240.98" x2="374.62" y2="244.45"/><line class="f" x1="374.62" y1="244.45" x2="373.74" y2="244.45"/><line class="f" x1="371.26" y1="240.98" x2="370.38" y2="240.98"/><line class="f" x1="370.38" y1="240.98" x2="370.38" y2="244.45"/><line class="f" x1="370.38" y1="244.45" x2="371.26" y2="244.45"/><line class="f" x1="374.62" y1="216.66" x2="374.62" y2="213.19"/><line class="f" x1="374.62" y1="213.19" x2="373.74" y2="213.19"/><line class="f" x1="371.26" y1="216.66" x2="370.38" y2="216.66"/><line class="f" x1="370.38" y1="216.66" x2="370.38" y2="213.19"/><line class="f" x1="370.38" y1="213.19" x2="371.26" y2="213.19"/><line class="f" x1="393.88" y1="270.85" x2="393.88" y2="250.01"/><line class="f" x1="385.78" y1="257.97" x2="380.78" y2="262.89"/><line class="f" x1="380.78" y1="257.97" x2="385.77" y2="262.89"/><line class="f" x1="383.28" y1="263.9" x2="383.28" y2="256.96"/><line class="f" x1="386.81" y1="260.43" x2="379.74" y2="260.43"/><line class="f" x1="372.68" y1="250.01" x2="372.68" y2="270.85"/><line class="f" x1="393.88" y1="270.85" x2="372.68" y2="270.85"/><line class="f" x1="484.87" y1="269.11" x2="465.44" y2="269.11"/><line class="f" x1="465.44" y1="269.11" x2="465.44" y2="251.75"/><line class="f" x1="465.44" y1="251.75" x2="484.87" y2="251.75"/><line class="f" x1="484.87" y1="251.75" x2="484.87" y2="269.11"/><line class="f" x1="485.75" y1="270.85" x2="464.55" y2="270.85"/><line class="f" x1="483.1" y1="267.38" x2="467.2" y2="267.38"/><line class="f" x1="467.2" y1="267.38" x2="467.2" y2="255.22"/><line class="f" x1="467.2" y1="255.22" x2="483.1" y2="255.22"/><line class="f" x1="483.1" y1="255.22" x2="483.1" y2="267.38"/><g class="g"><path class="f" d="M475.86,258.69a.7.7,0,0,0-.71-.69.7.7,0,1,0,0,1.39.7.7,0,0,0,.71-.7"/><path class="f" d="M426.56,256.61a3.18,3.18,0,1,0-3.18,3.13,3.15,3.15,0,0,0,3.18-3.13"/></g><line class="f" x1="428.33" y1="251.75" x2="428.33" y2="270.85"/><line class="f" x1="428.33" y1="270.85" x2="408.9" y2="270.85"/><line class="f" x1="408.9" y1="270.85" x2="408.9" y2="251.75"/><line class="f" x1="408.9" y1="251.75" x2="428.33" y2="251.75"/><g class="g"><path class="f" d="M426.56,266a3.18,3.18,0,1,0-3.18,3.12,3.15,3.15,0,0,0,3.18-3.12"/><path class="f" d="M417,266a3.18,3.18,0,1,0-3.18,3.12A3.15,3.15,0,0,0,417,266"/></g><line class="f" x1="411.55" y1="271.72" x2="425.68" y2="271.72"/><line class="f" x1="464.55" y1="250.01" x2="464.55" y2="270.85"/><line class="f" x1="464.55" y1="270.85" x2="443.35" y2="270.85"/><line class="f" x1="443.35" y1="270.85" x2="443.35" y2="250.01"/><line class="f" x1="367.73" y1="188" x2="335.92" y2="188"/><line class="f" x1="367.73" y1="188" x2="367.73" y2="219.27"/><g class="g"><path class="f" d="M367.73,219.27c-17.57,0-31.81-14-31.81-31.27"/></g><line class="f" x1="367.73" y1="184.01" x2="367.73" y2="188"/><line class="f" x1="335.92" y1="188" x2="335.92" y2="184.01"/><line class="f" x1="335.92" y1="188" x2="334.16" y2="188"/><line class="f" x1="369.5" y1="188" x2="367.73" y2="188"/><line class="f" x1="335.92" y1="249.66" x2="364.19" y2="249.66"/><line class="f" x1="335.92" y1="249.66" x2="335.92" y2="277.45"/><g class="g"><path class="f" d="M364.19,249.66a28,28,0,0,1-28.26,27.79"/></g><line class="f" x1="335.92" y1="247.23" x2="335.92" y2="249.66"/><line class="f" x1="364.19" y1="249.66" x2="364.19" y2="247.23"/><line class="f" x1="364.19" y1="249.66" x2="365.96" y2="249.66"/><line class="f" x1="364.19" y1="247.23" x2="365.96" y2="247.23"/><line class="f" x1="334.16" y1="249.66" x2="335.92" y2="249.66"/><line class="f" x1="334.16" y1="247.23" x2="335.92" y2="247.23"/><line class="f" x1="335.92" y1="247.23" x2="342.99" y2="247.23"/><line class="f" x1="346.88" y1="247.23" x2="347.67" y2="247.23"/><line class="f" x1="351.56" y1="247.23" x2="352.36" y2="247.23"/><line class="f" x1="356.24" y1="247.23" x2="357.13" y2="247.23"/><line class="f" x1="357.13" y1="247.23" x2="364.19" y2="247.23"/><line class="f" x1="335.92" y1="249.66" x2="335.92" y2="250.53"/><line class="f" x1="335.92" y1="250.53" x2="332.39" y2="250.53"/><line class="f" x1="332.39" y1="250.53" x2="332.39" y2="249.66"/><line class="f" x1="335.92" y1="247.23" x2="335.92" y2="246.36"/><line class="f" x1="335.92" y1="246.36" x2="332.39" y2="246.36"/><line class="f" x1="332.39" y1="246.36" x2="332.39" y2="247.23"/><line class="f" x1="364.19" y1="250.53" x2="367.73" y2="250.53"/><line class="f" x1="367.73" y1="250.53" x2="367.73" y2="249.66"/><line class="f" x1="364.19" y1="247.23" x2="364.19" y2="246.36"/><line class="f" x1="364.19" y1="246.36" x2="367.73" y2="246.36"/><line class="f" x1="367.73" y1="246.36" x2="367.73" y2="247.23"/><line class="f" x1="375.68" y1="193.21" x2="375.68" y2="214.06"/><line class="f" x1="375.68" y1="214.06" x2="396.88" y2="214.06"/><line class="f" x1="396.88" y1="214.06" x2="396.88" y2="193.21"/><line class="f" x1="396.88" y1="193.21" x2="375.68" y2="193.21"/><g class="g"><path class="f" d="M392.46,203.63a6.18,6.18,0,1,0-6.18,6.08,6.13,6.13,0,0,0,6.18-6.08"/><path class="f" d="M391.4,203.63a5.12,5.12,0,1,0-5.12,5,5.07,5.07,0,0,0,5.12-5"/><path class="f" d="M477.27,217.53a.88.88,0,1,0-.88.87.87.87,0,0,0,.88-.87"/></g><line class="f" x1="449.89" y1="212.32" x2="449.89" y2="243.58"/><line class="f" x1="449.89" y1="243.58" x2="481.69" y2="243.58"/><line class="f" x1="481.69" y1="243.58" x2="481.69" y2="212.32"/><line class="f" x1="481.69" y1="212.32" x2="449.89" y2="212.32"/><line class="f" x1="451.65" y1="217.53" x2="451.65" y2="238.37"/><line class="f" x1="455.19" y1="241.85" x2="476.39" y2="241.85"/><line class="f" x1="479.92" y1="238.37" x2="479.92" y2="217.53"/><line class="f" x1="476.39" y1="214.06" x2="455.19" y2="214.06"/><g class="g"><path class="f" d="M451.65,217.53a3.51,3.51,0,0,1,3.54-3.47"/><path class="f" d="M455.19,241.85a3.51,3.51,0,0,1-3.54-3.48"/><path class="f" d="M476.39,214.06a3.5,3.5,0,0,1,3.53,3.47"/><path class="f" d="M479.92,238.37a3.51,3.51,0,0,1-3.53,3.48"/></g><line class="f" x1="397.77" y1="197.56" x2="450.77" y2="197.56"/><line class="f" x1="397.77" y1="197.56" x2="397.77" y2="192.34"/><line class="f" x1="434.87" y1="243.58" x2="434.87" y2="240.11"/><line class="f" x1="434.87" y1="240.11" x2="413.67" y2="240.11"/><line class="f" x1="413.67" y1="240.11" x2="413.67" y2="243.58"/><line class="f" x1="413.67" y1="243.58" x2="414.73" y2="243.58"/><line class="f" x1="414.73" y1="243.58" x2="414.73" y2="241.15"/><line class="f" x1="414.73" y1="241.15" x2="433.81" y2="241.15"/><line class="f" x1="433.81" y1="241.15" x2="433.81" y2="243.58"/><line class="f" x1="433.81" y1="243.58" x2="434.87" y2="243.58"/><line class="f" x1="434.87" y1="243.58" x2="434.87" y2="240.11"/><line class="f" x1="413.67" y1="243.58" x2="413.67" y2="240.11"/><line class="f" x1="433.81" y1="243.58" x2="433.81" y2="241.15"/><line class="f" x1="414.73" y1="243.58" x2="414.73" y2="241.15"/><line class="f" x1="434.87" y1="240.11" x2="413.67" y2="240.11"/><line class="f" x1="434.87" y1="241.15" x2="413.67" y2="241.15"/><line class="f" x1="434.87" y1="243.58" x2="433.81" y2="243.58"/><line class="f" x1="414.73" y1="243.58" x2="413.67" y2="243.58"/><line class="f" x1="450.77" y1="211.45" x2="450.77" y2="192.35"/><line class="f" x1="450.77" y1="211.45" x2="482.57" y2="211.45"/><line class="f" x1="450.77" y1="192.34" x2="454.3" y2="192.34"/><line class="f" x1="454.3" y1="192.34" x2="486.11" y2="192.34"/><line class="f" x1="486.11" y1="192.34" x2="486.11" y2="207.98"/><line class="f" x1="486.11" y1="207.98" x2="454.3" y2="207.98"/><line class="f" x1="454.3" y1="207.98" x2="454.3" y2="192.34"/><line class="f" x1="402.54" y1="362.91" x2="353.06" y2="362.91"/><line class="f" x1="353.06" y1="362.91" x2="353.06" y2="359.43"/><line class="f" x1="353.06" y1="359.43" x2="402.54" y2="359.43"/><line class="f" x1="402.54" y1="359.43" x2="402.54" y2="362.91"/><g class="g"><path class="f" d="M351.3,361.17a1.77,1.77,0,1,0-1.77,1.74,1.76,1.76,0,0,0,1.77-1.74"/></g><line class="f" x1="445.82" y1="378.54" x2="438.76" y2="378.54"/><line class="f" x1="434.87" y1="378.54" x2="434.07" y2="378.54"/><line class="f" x1="430.19" y1="378.54" x2="429.39" y2="378.54"/><line class="f" x1="425.5" y1="378.54" x2="421.09" y2="378.54"/><line class="f" x1="421.09" y1="378.54" x2="414.02" y2="378.54"/><line class="f" x1="486.11" y1="207.98" x2="454.3" y2="207.98"/><line class="f" x1="454.3" y1="207.98" x2="454.3" y2="192.34"/><line class="f" x1="454.3" y1="192.34" x2="457.84" y2="204.5"/><line class="f" x1="457.84" y1="204.5" x2="486.11" y2="207.98"/><rect class="d" x="360.84" y="309.06" width="17.67" height="27.79"/><line class="f" x1="360.84" y1="309.06" x2="360.84" y2="336.85"/><line class="f" x1="378.51" y1="309.06" x2="360.84" y2="309.06"/><line class="f" x1="378.51" y1="336.85" x2="378.51" y2="309.06"/><line class="f" x1="360.84" y1="336.85" x2="378.51" y2="336.85"/><rect class="d" x="404.55" y="303.44" width="10.6" height="40.89"/><line class="f" x1="404.55" y1="303.44" x2="404.55" y2="344.33"/><line class="f" x1="415.15" y1="303.44" x2="404.55" y2="303.44"/><line class="f" x1="415.15" y1="344.33" x2="415.15" y2="303.44"/><line class="f" x1="404.55" y1="344.33" x2="415.15" y2="344.33"/><rect class="d" x="397.77" y="192.35" width="53.01" height="5.21"/><line class="f" x1="397.77" y1="192.34" x2="397.77" y2="197.56"/><line class="f" x1="450.77" y1="192.34" x2="397.76" y2="192.34"/><line class="f" x1="450.77" y1="197.56" x2="450.77" y2="192.34"/><line class="f" x1="397.77" y1="197.56" x2="450.77" y2="197.56"/><rect class="d" x="413.67" y="241.15" width="1.06" height="2.43"/><line class="f" x1="414.73" y1="241.15" x2="413.67" y2="241.15"/><line class="f" x1="414.73" y1="243.58" x2="414.73" y2="241.15"/><line class="f" x1="413.67" y1="243.58" x2="414.73" y2="243.58"/><line class="f" x1="413.67" y1="241.15" x2="413.67" y2="243.58"/><rect class="d" x="413.67" y="240.11" width="21.2" height="1.04"/><line class="f" x1="413.67" y1="240.11" x2="413.67" y2="241.15"/><line class="f" x1="434.87" y1="240.11" x2="413.67" y2="240.11"/><line class="f" x1="434.87" y1="241.15" x2="434.87" y2="240.11"/><line class="f" x1="413.67" y1="241.15" x2="434.87" y2="241.15"/><rect class="d" x="433.81" y="241.15" width="1.06" height="2.43"/><line class="f" x1="434.87" y1="241.15" x2="433.81" y2="241.15"/><line class="f" x1="434.87" y1="243.58" x2="434.87" y2="241.15"/><line class="f" x1="433.81" y1="243.58" x2="434.87" y2="243.58"/><line class="f" x1="433.81" y1="241.15" x2="433.81" y2="243.58"/><polygon class="d" points="348.28 362.4 347.76 361.17 348.28 359.94 349.53 359.43 350.78 359.94 351.3 361.17 350.78 362.4 349.53 362.91 348.28 362.4"/><g class="g"><path class="f" d="M351.3,361.17a1.77,1.77,0,0,1-3.54,0"/><path class="f" d="M347.76,361.17a1.77,1.77,0,0,1,3.54,0"/></g><rect class="d" x="353.06" y="359.43" width="49.47" height="3.47"/><line class="f" x1="353.06" y1="359.43" x2="353.06" y2="362.91"/><line class="f" x1="402.54" y1="359.43" x2="353.06" y2="359.43"/><line class="f" x1="402.54" y1="362.91" x2="402.54" y2="359.43"/><line class="f" x1="353.06" y1="362.91" x2="402.54" y2="362.91"/><polygon class="d" points="408.25 339.76 408.25 328.94 406.83 327.22 406.08 325.07 406.08 322.77 406.83 320.62 408.25 318.91 408.25 308.08 410.21 308.08 412.17 316 412.17 318.31 413.25 321.99 413.25 325.85 412.17 329.53 412.17 331.84 410.21 339.76 408.25 339.76"/><line class="f" x1="408.25" y1="308.08" x2="408.25" y2="318.91"/><line class="f" x1="410.21" y1="308.08" x2="408.25" y2="308.08"/><line class="f" x1="412.18" y1="316" x2="410.21" y2="308.08"/><line class="f" x1="412.18" y1="318.31" x2="412.18" y2="316"/><line class="f" x1="413.25" y1="321.99" x2="412.18" y2="318.31"/><line class="f" x1="413.25" y1="325.85" x2="413.25" y2="321.99"/><line class="f" x1="412.18" y1="329.53" x2="413.25" y2="325.85"/><line class="f" x1="412.18" y1="331.84" x2="412.18" y2="329.53"/><line class="f" x1="410.21" y1="339.76" x2="412.18" y2="331.84"/><line class="f" x1="408.25" y1="339.76" x2="410.21" y2="339.76"/><line class="f" x1="408.25" y1="328.94" x2="408.25" y2="339.76"/><line class="f" x1="406.84" y1="327.22" x2="408.25" y2="328.94"/><line class="f" x1="406.08" y1="325.07" x2="406.84" y2="327.22"/><line class="f" x1="406.08" y1="322.77" x2="406.08" y2="325.07"/><line class="f" x1="406.84" y1="320.62" x2="406.08" y2="322.77"/><line class="f" x1="408.25" y1="318.91" x2="406.84" y2="320.62"/><line class="f" x1="408.25" y1="308.08" x2="408.25" y2="339.77"/><line class="f" x1="412.18" y1="331.84" x2="412.18" y2="316"/><line class="f" x1="410.21" y1="308.08" x2="408.25" y2="308.08"/><line class="f" x1="409.04" y1="337.65" x2="409.04" y2="335.54"/><line class="f" x1="409.04" y1="335.54" x2="409.53" y2="335.54"/><line class="f" x1="409.53" y1="335.54" x2="409.53" y2="337.65"/><line class="f" x1="409.53" y1="337.65" x2="409.04" y2="337.65"/><line class="f" x1="409.04" y1="335.01" x2="409.04" y2="332.9"/><line class="f" x1="409.04" y1="332.9" x2="409.53" y2="332.9"/><line class="f" x1="409.53" y1="332.9" x2="409.53" y2="335.01"/><line class="f" x1="409.53" y1="335.01" x2="409.04" y2="335.01"/><line class="f" x1="410.21" y1="308.08" x2="410.21" y2="339.77"/><line class="f" x1="409.53" y1="332.37" x2="409.04" y2="332.37"/><line class="f" x1="409.04" y1="332.37" x2="409.04" y2="331.32"/><line class="f" x1="409.04" y1="331.32" x2="409.53" y2="331.32"/><line class="f" x1="409.53" y1="331.32" x2="409.53" y2="332.37"/><g class="g"><path class="f" d="M408.25,328.94a6.67,6.67,0,0,1,0-10"/></g><polygon class="d" points="312.18 354.22 311.68 354.02 311.47 353.53 311.47 292.39 311.68 291.9 312.18 291.69 338 291.69 339.76 292.16 341.06 293.43 341.53 295.17 341.53 296.21 341.32 296.7 340.82 296.9 341.29 297.06 341.56 297.46 341.53 297.95 341.53 321.92 341.22 322.65 340.47 322.96 341.22 323.26 341.53 324 341.53 347.97 341.34 348.59 340.82 349.01 341.32 349.22 341.53 349.71 341.53 350.75 341.06 352.49 339.76 353.76 338 354.22 312.18 354.22"/><line class="f" x1="311.47" y1="353.53" x2="311.47" y2="292.39"/><line class="f" x1="311.47" y1="292.39" x2="311.68" y2="291.9"/><line class="f" x1="311.68" y1="291.9" x2="312.18" y2="291.69"/><line class="f" x1="312.18" y1="291.69" x2="338" y2="291.69"/><line class="f" x1="338" y1="291.69" x2="339.76" y2="292.16"/><line class="f" x1="339.76" y1="292.16" x2="341.06" y2="293.43"/><line class="f" x1="341.06" y1="293.43" x2="341.53" y2="295.17"/><line class="f" x1="341.53" y1="295.17" x2="341.53" y2="296.21"/><line class="f" x1="341.53" y1="296.21" x2="341.32" y2="296.7"/><line class="f" x1="341.32" y1="296.7" x2="340.82" y2="296.91"/><line class="f" x1="340.82" y1="296.91" x2="341.29" y2="297.06"/><line class="f" x1="341.29" y1="297.06" x2="341.56" y2="297.46"/><line class="f" x1="341.56" y1="297.46" x2="341.53" y2="297.95"/><line class="f" x1="341.53" y1="297.95" x2="341.53" y2="321.92"/><line class="f" x1="341.53" y1="321.92" x2="341.22" y2="322.65"/><line class="f" x1="341.22" y1="322.65" x2="340.47" y2="322.96"/><line class="f" x1="340.47" y1="322.96" x2="341.22" y2="323.26"/><line class="f" x1="341.22" y1="323.26" x2="341.53" y2="324"/><line class="f" x1="341.53" y1="324" x2="341.53" y2="347.97"/><line class="f" x1="341.53" y1="347.97" x2="341.34" y2="348.59"/><line class="f" x1="341.34" y1="348.59" x2="340.82" y2="349.01"/><line class="f" x1="340.82" y1="349.01" x2="341.32" y2="349.22"/><line class="f" x1="341.32" y1="349.22" x2="341.53" y2="349.71"/><line class="f" x1="341.53" y1="349.71" x2="341.53" y2="350.75"/><line class="f" x1="341.53" y1="350.75" x2="341.06" y2="352.48"/><line class="f" x1="341.06" y1="352.48" x2="339.76" y2="353.76"/><line class="f" x1="339.76" y1="353.76" x2="338" y2="354.22"/><line class="f" x1="338" y1="354.22" x2="312.18" y2="354.22"/><line class="f" x1="312.18" y1="354.22" x2="311.68" y2="354.02"/><line class="f" x1="311.68" y1="354.02" x2="311.47" y2="353.53"/><line class="f" x1="341.53" y1="296.21" x2="341.53" y2="295.17"/><line class="f" x1="338" y1="291.69" x2="312.18" y2="291.69"/><line class="f" x1="311.47" y1="292.39" x2="311.47" y2="296.21"/><line class="f" x1="312.18" y1="296.91" x2="340.82" y2="296.91"/><line class="f" x1="311.47" y1="296.21" x2="311.47" y2="322.96"/><line class="f" x1="311.47" y1="322.96" x2="313.95" y2="322.96"/><line class="f" x1="341.53" y1="321.92" x2="341.53" y2="297.95"/><line class="f" x1="340.47" y1="296.91" x2="322.74" y2="296.91"/><line class="f" x1="322.74" y1="322.96" x2="340.47" y2="322.96"/><line class="f" x1="312.89" y1="321.92" x2="312.89" y2="297.95"/><line class="f" x1="371.19" y1="296.91" x2="371.19" y2="302.12"/><line class="f" x1="371.19" y1="305.59" x2="371.19" y2="310.8"/><line class="f" x1="371.19" y1="314.27" x2="371.19" y2="319.48"/><line class="f" x1="371.19" y1="322.96" x2="371.19" y2="328.17"/><line class="f" x1="371.19" y1="331.64" x2="371.19" y2="336.85"/><line class="f" x1="371.19" y1="340.33" x2="371.19" y2="343.8"/><line class="f" x1="371.19" y1="343.8" x2="371.19" y2="349.01"/><line class="f" x1="341.53" y1="349.71" x2="341.53" y2="350.75"/><line class="f" x1="338" y1="354.22" x2="312.18" y2="354.22"/><line class="f" x1="311.47" y1="353.53" x2="311.47" y2="349.71"/><line class="f" x1="312.18" y1="349.01" x2="340.82" y2="349.01"/><line class="f" x1="311.47" y1="349.71" x2="311.47" y2="322.96"/><line class="f" x1="311.47" y1="322.96" x2="313.95" y2="322.96"/><line class="f" x1="341.53" y1="324" x2="341.53" y2="347.97"/><line class="f" x1="340.47" y1="349.01" x2="322.74" y2="349.01"/><line class="f" x1="313.95" y1="322.96" x2="340.47" y2="322.96"/><line class="f" x1="312.89" y1="324" x2="312.89" y2="347.97"/><line class="f" x1="340.47" y1="296.91" x2="345.77" y2="296.91"/><line class="f" x1="349.3" y1="296.91" x2="354.6" y2="296.91"/><line class="f" x1="358.14" y1="296.91" x2="363.44" y2="296.91"/><line class="f" x1="365.89" y1="296.91" x2="371.19" y2="296.91"/><line class="f" x1="340.47" y1="349.01" x2="345.77" y2="349.01"/><line class="f" x1="349.3" y1="349.01" x2="354.6" y2="349.01"/><line class="f" x1="358.14" y1="349.01" x2="363.44" y2="349.01"/><line class="f" x1="365.89" y1="349.01" x2="371.19" y2="349.01"/><g class="g"><path class="f" d="M311.47,292.39a.7.7,0,0,1,.71-.69"/><path class="f" d="M312.18,296.9a.7.7,0,0,1-.71-.69"/><path class="f" d="M341.53,296.21a.69.69,0,0,1-.7.69"/><path class="f" d="M340.47,296.91a1,1,0,0,1,1.06,1"/><path class="f" d="M341.53,321.92a1.05,1.05,0,0,1-1.06,1"/><path class="f" d="M312.18,354.22a.7.7,0,0,1-.71-.69"/><path class="f" d="M311.47,349.71a.7.7,0,0,1,.71-.7"/><path class="f" d="M340.83,349a.7.7,0,0,1,.7.7"/><path class="f" d="M341.53,348a1,1,0,0,1-1.06,1"/><path class="f" d="M340.47,323a1,1,0,0,1,1.06,1"/><path class="f" d="M316.71,297.84a93.66,93.66,0,0,1,0,24"/><path class="f" d="M316.71,323.89a97.42,97.42,0,0,1,0,24"/><path class="f" d="M338,291.69a3.51,3.51,0,0,1,3.54,3.48"/><path class="f" d="M341.53,350.75a3.51,3.51,0,0,1-3.54,3.47"/></g><polygon class="d" points="404.48 212.84 404.1 212.69 403.95 212.32 403.95 198.08 404.1 197.71 404.48 197.56 422.86 197.56 423.23 197.71 423.38 198.08 423.38 212.32 423.23 212.69 422.86 212.84 404.48 212.84"/><line class="f" x1="404.48" y1="197.56" x2="422.85" y2="197.56"/><g class="g"><path class="f" d="M422.85,197.56a.52.52,0,0,1,.53.52"/></g><line class="f" x1="423.38" y1="198.08" x2="423.38" y2="212.32"/><g class="g"><path class="f" d="M423.38,212.32a.52.52,0,0,1-.53.52"/></g><line class="f" x1="422.85" y1="212.84" x2="404.48" y2="212.84"/><g class="g"><path class="f" d="M404.48,212.84a.52.52,0,0,1-.53-.52"/></g><line class="f" x1="403.95" y1="212.32" x2="403.95" y2="198.08"/><g class="g"><path class="f" d="M404,198.08a.52.52,0,0,1,.53-.52"/></g><line class="f" x1="405.54" y1="201.38" x2="421.79" y2="201.38"/><line class="f" x1="422.32" y1="201.9" x2="422.32" y2="211.28"/><line class="f" x1="421.79" y1="211.8" x2="405.54" y2="211.8"/><line class="f" x1="405.01" y1="211.28" x2="405.01" y2="201.9"/><g class="g"><path class="f" d="M421.79,201.38a.52.52,0,0,1,.53.52"/><path class="f" d="M422.32,211.28a.53.53,0,0,1-.53.52"/><path class="f" d="M405.54,211.8a.52.52,0,0,1-.53-.52"/><path class="f" d="M405,201.9a.52.52,0,0,1,.53-.52"/></g><polygon class="d" points="413.41 203.51 413.27 203.27 413.04 201.43 412.93 201.1 412.78 199.64 413.04 199.03 413.67 198.77 414.29 199.03 414.55 199.64 414.41 201.1 414.29 201.43 414.06 203.27 413.93 203.51 413.67 203.61 413.41 203.51"/><g class="g"><path class="f" d="M412.78,199.64a.89.89,0,0,1,1.77,0"/></g><line class="f" x1="414.41" y1="201.1" x2="414.55" y2="199.64"/><g class="g"><path class="f" d="M414.41,201.1a.7.7,0,0,1-.12.33"/></g><line class="f" x1="414.06" y1="203.27" x2="414.29" y2="201.43"/><g class="g"><path class="f" d="M414.06,203.27a.4.4,0,0,1-.79,0"/></g><line class="f" x1="413.04" y1="201.43" x2="413.27" y2="203.27"/><g class="g"><path class="f" d="M413,201.43a.68.68,0,0,1-.11-.33"/></g><line class="f" x1="412.78" y1="199.64" x2="412.93" y2="201.1"/><line class="f" x1="414.15" y1="200.51" x2="414.15" y2="201.02"/><line class="f" x1="413.19" y1="201.02" x2="413.19" y2="200.51"/><line class="f" x1="413.19" y1="200.51" x2="414.15" y2="200.51"/><g class="g"><path class="f" d="M414.15,201a.48.48,0,0,1-.48.47.47.47,0,0,1-.48-.47"/><path class="f" d="M414.29,201.43a.73.73,0,0,1-.62.33.74.74,0,0,1-.63-.33"/></g><rect class="d" x="308.71" y="192.35" width="21.2" height="54.89"/><line class="f" x1="329.92" y1="247.23" x2="329.92" y2="192.34"/><line class="f" x1="329.92" y1="192.34" x2="308.71" y2="192.34"/><line class="f" x1="308.71" y1="192.34" x2="308.71" y2="247.23"/><line class="f" x1="308.71" y1="247.23" x2="329.92" y2="247.23"/><line class="f" x1="319.32" y1="244.49" x2="319.32" y2="195.09"/><line class="f" x1="325.55" y1="241.94" x2="312.85" y2="237.3"/><line class="f" x1="326.19" y1="236.7" x2="314.37" y2="234.79"/><line class="f" x1="311.67" y1="229.56" x2="324.64" y2="227.98"/><line class="f" x1="313.37" y1="221.46" x2="324.64" y2="223.6"/><line class="f" x1="312.73" y1="218.51" x2="326.61" y2="218.51"/><line class="f" x1="312.66" y1="210.17" x2="326.38" y2="212.15"/><line class="f" x1="312.89" y1="207.05" x2="325.43" y2="207.05"/><line class="f" x1="312.77" y1="198.82" x2="325.62" y2="197.24"/><line class="f" x1="313.64" y1="200.8" x2="324.51" y2="202.4"/><rect class="d" x="457.84" y="309.99" width="28.27" height="27.79"/><polygon class="d" points="448.3 330.83 446.53 330.36 445.24 329.09 444.76 327.36 444.76 320.41 445.24 318.67 446.53 317.4 448.3 316.93 457.84 316.93 457.84 330.83 448.3 330.83"/><polygon class="d" points="464.91 309.99 464.91 300.61 465.38 298.87 466.67 297.6 468.44 297.13 475.51 297.13 477.27 297.6 478.57 298.87 479.04 300.61 479.04 309.99 464.91 309.99"/><polygon class="d" points="468.44 350.63 466.67 350.16 465.38 348.89 464.91 347.16 464.91 337.78 479.04 337.78 479.04 347.16 478.57 348.89 477.27 350.16 475.51 350.63 468.44 350.63"/><line class="f" x1="446.53" y1="320.41" x2="446.53" y2="327.36"/><line class="f" x1="448.3" y1="330.83" x2="457.84" y2="330.83"/><line class="f" x1="444.76" y1="320.41" x2="444.76" y2="327.36"/><line class="f" x1="457.84" y1="316.93" x2="448.3" y2="316.93"/><g class="g"><path class="f" d="M448.3,329.09a1.75,1.75,0,0,1-1.77-1.73"/><path class="f" d="M446.53,320.41a1.75,1.75,0,0,1,1.77-1.74"/><path class="f" d="M448.3,330.83a3.51,3.51,0,0,1-3.54-3.47"/><path class="f" d="M444.76,320.41a3.51,3.51,0,0,1,3.54-3.48"/></g><line class="f" x1="475.51" y1="298.87" x2="468.44" y2="298.87"/><line class="f" x1="464.91" y1="300.61" x2="464.91" y2="309.99"/><line class="f" x1="475.51" y1="297.13" x2="468.44" y2="297.13"/><line class="f" x1="479.04" y1="309.99" x2="479.04" y2="300.61"/><g class="g"><path class="f" d="M466.67,300.61a1.75,1.75,0,0,1,1.77-1.74"/><path class="f" d="M475.51,298.87a1.75,1.75,0,0,1,1.76,1.74"/><path class="f" d="M464.91,300.61a3.51,3.51,0,0,1,3.53-3.48"/><path class="f" d="M475.51,297.13a3.51,3.51,0,0,1,3.53,3.48"/></g><line class="f" x1="475.51" y1="348.89" x2="468.44" y2="348.89"/><line class="f" x1="464.91" y1="347.16" x2="464.91" y2="337.78"/><line class="f" x1="475.51" y1="350.63" x2="468.44" y2="350.63"/><line class="f" x1="479.04" y1="337.78" x2="479.04" y2="347.16"/><g class="g"><path class="f" d="M468.44,348.89a1.75,1.75,0,0,1-1.77-1.73"/><path class="f" d="M477.27,347.16a1.74,1.74,0,0,1-1.76,1.73"/><path class="f" d="M468.44,350.63a3.5,3.5,0,0,1-3.53-3.47"/><path class="f" d="M479,347.16a3.5,3.5,0,0,1-3.53,3.47"/></g><line class="f" x1="486.11" y1="309.99" x2="486.11" y2="337.78"/><line class="f" x1="486.11" y1="309.99" x2="457.84" y2="309.99"/><line class="f" x1="457.84" y1="309.99" x2="457.84" y2="337.78"/><line class="f" x1="457.84" y1="337.78" x2="486.11" y2="337.78"/><polygon class="d" points="434.4 214.57 432.39 213.54 431.16 212.29 430.37 210.74 430.1 209.02 430.1 197.56 443.17 197.56 443.17 209.02 442.9 210.74 442.11 212.29 440.88 213.54 438.87 214.57 436.64 214.92 434.4 214.57"/><line class="f" x1="443.17" y1="197.56" x2="443.17" y2="209.02"/><line class="f" x1="443.17" y1="197.56" x2="430.1" y2="197.56"/><line class="f" x1="430.1" y1="197.56" x2="430.1" y2="209.02"/><line class="f" x1="441.05" y1="201.72" x2="441.05" y2="209.02"/><line class="f" x1="432.22" y1="201.72" x2="432.22" y2="209.02"/><line class="f" x1="432.22" y1="201.72" x2="441.05" y2="201.72"/><g class="g"><path class="f" d="M443.17,209a5.63,5.63,0,0,1-2.29,4.52"/><path class="f" d="M432.4,213.54a5.61,5.61,0,0,1-2.3-4.52"/><path class="f" d="M440.88,213.54a7.2,7.2,0,0,1-8.48,0"/><path class="f" d="M432.4,213.54a5.61,5.61,0,0,1-2.3-4.52"/><path class="f" d="M436.64,214.92a7.08,7.08,0,0,1-4.24-1.39"/><path class="f" d="M433.67,211.87a3.56,3.56,0,0,1-1.45-2.85"/><path class="f" d="M439.6,211.87a5,5,0,0,1-5.93,0"/><path class="f" d="M441.05,209a3.52,3.52,0,0,1-1.45,2.85"/></g><line class="f" x1="332.39" y1="192.34" x2="339.46" y2="192.34"/><line class="f" x1="343.35" y1="192.34" x2="344.14" y2="192.34"/><line class="f" x1="348.03" y1="192.34" x2="348.82" y2="192.34"/><line class="f" x1="352.71" y1="192.34" x2="359.78" y2="192.34"/><line class="f" x1="363.66" y1="192.34" x2="364.19" y2="192.34"/><line class="f" x1="364.19" y1="192.34" x2="371.26" y2="192.34"/><line class="f" x1="451.54" y1="262.69" x2="451.54" y2="256.87"/><line class="f" x1="451.54" y1="256.87" x2="453.95" y2="258.78"/><line class="f" x1="453.95" y1="258.78" x2="456.36" y2="256.87"/><line class="f" x1="456.36" y1="256.87" x2="456.36" y2="262.69"/><line class="f" x1="479.75" y1="432.38" x2="304.47" y2="432.38"/><line class="f" x1="300.23" y1="184.01" x2="300.23" y2="378.54"/><line class="f" x1="300.23" y1="378.54" x2="304.47" y2="378.54"/><line class="f" x1="304.47" y1="378.54" x2="304.47" y2="434.12"/><line class="f" x1="304.47" y1="434.12" x2="479.75" y2="434.12"/><line class="f" x1="479.75" y1="434.12" x2="479.75" y2="378.54"/><line class="f" x1="479.75" y1="378.54" x2="490.35" y2="378.54"/><line class="f" x1="490.35" y1="378.54" x2="490.35" y2="184.01"/><line class="f" x1="490.35" y1="184.01" x2="408.37" y2="184.01"/><line class="f" x1="408.37" y1="184.01" x2="300.23" y2="184.01"/><path class="h" d="M413.6,396.77v7h-.72v-6.36h-1.65v-.64Z"/><path class="h" d="M415.28,403.27a.53.53,0,0,1,.53-.54.54.54,0,0,1,.54.54.55.55,0,0,1-.54.55A.54.54,0,0,1,415.28,403.27Z"/><path class="h" d="M417.29,400.27c0-2.23,1.17-3.55,2.79-3.55s2.8,1.32,2.8,3.55-1.18,3.56-2.8,3.56S417.29,402.5,417.29,400.27Zm4.85,0c0-1.87-.84-2.9-2.06-2.9s-2.06,1-2.06,2.9.84,2.9,2.06,2.9S422.14,402.14,422.14,400.27Z"/><path class="h" d="M429.86,401.93h-1.4v1.84h-.72v-1.84h-3.95v-.52l3.71-4.64h.8l-3.58,4.52h3v-1.62h.7v1.62h1.4Z"/><path class="h" d="M415.76,225.52v7H415v-6.36h-1.65v-.64Z"/><path class="h" d="M417.44,232a.53.53,0,0,1,.53-.54.54.54,0,0,1,.54.54.55.55,0,0,1-.54.55A.54.54,0,0,1,417.44,232Z"/><path class="h" d="M419.45,229c0-2.23,1.17-3.55,2.79-3.55s2.8,1.32,2.8,3.55-1.18,3.56-2.8,3.56S419.45,231.25,419.45,229Zm4.85,0c0-1.87-.84-2.9-2.06-2.9s-2.06,1-2.06,2.9.84,2.9,2.06,2.9S424.3,230.89,424.3,229Z"/><path class="h" d="M430.61,230.51c0,1.17-.85,2.07-2.54,2.07a3.64,3.64,0,0,1-2.52-.9l.35-.57a3.07,3.07,0,0,0,2.17.81c1.16,0,1.8-.54,1.8-1.41s-.59-1.39-1.89-1.39h-.5v-.53l1.94-2.43h-3.58v-.64h4.5V226l-2,2.49C429.86,228.6,430.61,229.39,430.61,230.51Z"/><path class="h" d="M413.6,284.6v7h-.72v-6.36h-1.65v-.63Z"/><path class="h" d="M415.28,291.09a.53.53,0,0,1,.53-.54.54.54,0,0,1,.54.54.55.55,0,0,1-.54.55A.54.54,0,0,1,415.28,291.09Z"/><path class="h" d="M417.29,288.09c0-2.23,1.17-3.55,2.79-3.55s2.8,1.32,2.8,3.55-1.18,3.56-2.8,3.56S417.29,290.32,417.29,288.09Zm4.85,0c0-1.87-.84-2.9-2.06-2.9s-2.06,1-2.06,2.9.84,2.9,2.06,2.9S422.14,290,422.14,288.09Z"/><path class="h" d="M428.68,291v.64h-4.91v-.51l2.91-2.85c.79-.78.94-1.25.94-1.73,0-.81-.57-1.31-1.64-1.31a2.38,2.38,0,0,0-1.91.78l-.51-.44a3.14,3.14,0,0,1,2.48-1c1.42,0,2.32.71,2.32,1.88a2.88,2.88,0,0,1-1.15,2.19L424.83,291Z"/><path class="h" d="M343,225v7h-.72v-6.36h-1.65V225Z"/><path class="h" d="M344.63,231.52a.53.53,0,0,1,.53-.54.54.54,0,0,1,.54.54.55.55,0,0,1-.54.55A.54.54,0,0,1,344.63,231.52Z"/><path class="h" d="M346.64,228.52c0-2.23,1.17-3.55,2.79-3.55s2.8,1.32,2.8,3.55-1.18,3.56-2.8,3.56S346.64,230.75,346.64,228.52Zm4.85,0c0-1.87-.84-2.9-2.06-2.9s-2.06,1-2.06,2.9.84,2.9,2.06,2.9S351.49,230.39,351.49,228.52Z"/><path class="h" d="M355.19,225v7h-.72v-6.36h-1.65V225Z"/></svg>