<svg xmlns="http://www.w3.org/2000/svg" xmlns:xlink="http://www.w3.org/1999/xlink" viewBox="0 0 790.58 618.13"><defs><style>.a,.k{fill:none;}.b{clip-path:url(#a);}.c{clip-path:url(#d);}.d{clip-path:url(#g);}.e{clip-path:url(#j);}.f{fill:#595a5c;}.g{fill:#b6906c;}.h{fill:#fff;}.i{fill:#231f20;}.j{fill:url(#m);}.k{stroke:#000;stroke-linecap:round;stroke-linejoin:round;stroke-width:0.34px;}.l{clip-path:url(#n);}.m{fill:#58595b;}</style><clipPath id="a"><rect class="a" y="50" width="50" height="50"/></clipPath><clipPath id="d"><rect class="a" x="50" y="50" width="50" height="50"/></clipPath><clipPath id="g"><rect class="a" width="50" height="50"/></clipPath><clipPath id="j"><rect class="a" x="50" width="50" height="50"/></clipPath><pattern id="m" width="100" height="100" patternTransform="matrix(3.42, 0, 0, -3.43, -5063.27, 50193.19)" patternUnits="userSpaceOnUse" viewBox="0 0 100 100"><rect class="a" width="100" height="100"/><g class="b"><g class="b"><g class="b"><image width="210" height="210" transform="matrix(0.24, 0, 0, -0.24, -0.2, 100.2)" xlink:href="A303_pudorys1.png"/></g></g></g><g class="c"><g class="c"><g class="c"><image width="209" height="210" transform="matrix(0.24, 0, 0, -0.24, 49.96, 100.2)" xlink:href="A303_pudorys2.png"/></g></g></g><g class="d"><g class="d"><g class="d"><image width="210" height="209" transform="matrix(0.24, 0, 0, -0.24, -0.2, 50.04)" xlink:href="A303_pudorys3.png"/></g></g></g><g class="e"><g class="e"><g class="e"><image width="209" height="209" transform="matrix(0.24, 0, 0, -0.24, 49.96, 50.04)" xlink:href="A303_pudorys4.png"/></g></g></g></pattern><clipPath id="n"><polygon class="a" points="298.16 38.81 298.16 93.73 294.05 93.73 294.05 340.47 383.32 340.47 383.32 510.68 377.16 510.68 377.16 579.31 469.17 579.31 469.17 524.41 496.53 524.41 496.53 395.72 496.53 203.54 496.53 93.73 446.94 93.73 446.94 38.81 298.16 38.81"/></clipPath></defs><path class="f" d="M55.31,597.13H57.1V609.9H55.31Zm.92,6.11h4.09a1.89,1.89,0,0,0,1-.27,1.82,1.82,0,0,0,.68-.77,2.67,2.67,0,0,0,.24-1.16,2.7,2.7,0,0,0-.24-1.16,1.82,1.82,0,0,0-1.7-1H56.23v-1.7h4a4.09,4.09,0,0,1,2,.48A3.45,3.45,0,0,1,63.62,599a4.64,4.64,0,0,1,0,4.11,3.34,3.34,0,0,1-1.35,1.36,4,4,0,0,1-2,.49h-4Z"/><path class="f" d="M67.7,606.33a2.07,2.07,0,0,0,.49,1.48,1.76,1.76,0,0,0,1.37.52,1.89,1.89,0,0,0,1.37-.46,1.79,1.79,0,0,0,.48-1.33l.12,1.91A2.58,2.58,0,0,1,69.06,610a2.89,2.89,0,0,1-2.33-1,4.08,4.08,0,0,1-.82-2.73v-5.55H67.7Zm.22-7.86a1.93,1.93,0,0,1-.56-1.5,2.07,2.07,0,0,1,.56-1.57,2.56,2.56,0,0,1,3.18,0,2.08,2.08,0,0,1,.57,1.56,1.94,1.94,0,0,1-.57,1.5,2.65,2.65,0,0,1-3.18,0Zm2.26-.86a.94.94,0,0,0,.24-.68,1,1,0,0,0-.24-.7.91.91,0,0,0-.67-.25.92.92,0,0,0-.67.25,1,1,0,0,0-.23.7,1,1,0,0,0,.23.68.92.92,0,0,0,.67.24A.9.9,0,0,0,70.18,597.61Zm1.23,3.17h1.78v9.12H71.41Z"/><path class="f" d="M77.1,609.63A2.82,2.82,0,0,1,76,608.36a5.08,5.08,0,0,1-.36-2v-2a5.05,5.05,0,0,1,.36-2,2.71,2.71,0,0,1,1-1.27,3,3,0,0,1,1.65-.44,2.71,2.71,0,0,1,1.48.42,3.22,3.22,0,0,1,1.09,1.19l-.18,1.86a2.19,2.19,0,0,0-.22-1,1.48,1.48,0,0,0-.61-.63,2,2,0,0,0-1-.21,1.71,1.71,0,0,0-1.37.55,2.26,2.26,0,0,0-.49,1.56v2a2.19,2.19,0,0,0,.49,1.54,1.74,1.74,0,0,0,1.37.54,1.93,1.93,0,0,0,1-.23,1.45,1.45,0,0,0,.61-.64,2.25,2.25,0,0,0,.22-1l.12,1.92a2.66,2.66,0,0,1-.89,1.14,2.56,2.56,0,0,1-1.53.45A3.19,3.19,0,0,1,77.1,609.63Zm4-12.5H82.9V609.9H81.11Z"/><path class="f" d="M87.09,609.57a3.09,3.09,0,0,1-1.29-1.36,4.85,4.85,0,0,1-.44-2.15v-1.48a4.71,4.71,0,0,1,.44-2.12,3.12,3.12,0,0,1,1.29-1.35,4.71,4.71,0,0,1,4.06,0,3.12,3.12,0,0,1,1.29,1.35,4.71,4.71,0,0,1,.44,2.12v1.51a4.79,4.79,0,0,1-.44,2.13,3.12,3.12,0,0,1-1.29,1.35,4.62,4.62,0,0,1-4.06,0Zm3.49-1.83a2.43,2.43,0,0,0,.51-1.65v-1.51a2.43,2.43,0,0,0-.51-1.65,1.88,1.88,0,0,0-1.46-.58,1.85,1.85,0,0,0-1.45.58,2.38,2.38,0,0,0-.52,1.65v1.51a2.38,2.38,0,0,0,.52,1.65,1.82,1.82,0,0,0,1.45.59A1.85,1.85,0,0,0,90.58,607.74Z"/><path class="f" d="M95.43,600.78h1.79v9.12H95.43Zm4.42,1.72a2.16,2.16,0,0,0-.83-.15,1.83,1.83,0,0,0-1.33.47,1.79,1.79,0,0,0-.47,1.31L97,602.37a3.32,3.32,0,0,1,1.09-1.27,2.58,2.58,0,0,1,1.48-.45,3.39,3.39,0,0,1,1.13.18,2.62,2.62,0,0,1,.88.53l-1.17,1.58A1.56,1.56,0,0,0,99.85,602.5Z"/><path class="f" d="M102.15,600.78H104l2.81,7.93-1,1.94Zm8.07,0L106.34,612a2.6,2.6,0,0,1-.56,1,1.87,1.87,0,0,1-.84.52,4,4,0,0,1-1.23.16h-.36V612h.36a1.46,1.46,0,0,0,.8-.2,1.74,1.74,0,0,0,.51-.7l3.38-10.31Z"/><path class="f" d="M113.51,609.88a5.76,5.76,0,0,1-1.32-.48,4.89,4.89,0,0,1-1.13-.79l1.06-1.31a5.86,5.86,0,0,0,1.47.85,4.18,4.18,0,0,0,1.44.28,3.11,3.11,0,0,0,1.6-.33,1.1,1.1,0,0,0,.53-1,.79.79,0,0,0-.29-.66,1.66,1.66,0,0,0-.72-.29c-.29,0-.69-.1-1.22-.14h-.15l-.14,0h-.15a6.45,6.45,0,0,1-1.5-.26,2,2,0,0,1-1-.7,2.38,2.38,0,0,1-.41-1.49,3.07,3.07,0,0,1,.39-1.61,2.41,2.41,0,0,1,1.18-1,5.29,5.29,0,0,1,2-.32,6.38,6.38,0,0,1,2.6.52,6.16,6.16,0,0,1,1.13.66l-1.08,1.31a5.59,5.59,0,0,0-1.35-.66,4,4,0,0,0-1.3-.22,2.44,2.44,0,0,0-1.37.31,1.08,1.08,0,0,0-.46.94.64.64,0,0,0,.26.55,1.72,1.72,0,0,0,.66.25c.26,0,.64.07,1.12.1h.34a7.67,7.67,0,0,1,1.63.25,2.24,2.24,0,0,1,1.13.77,2.62,2.62,0,0,1,.45,1.65,2.92,2.92,0,0,1-.42,1.63,2.54,2.54,0,0,1-1.27,1A5.88,5.88,0,0,1,115,610,7.38,7.38,0,0,1,113.51,609.88Z"/><path class="f" d="M126,597.13h1.8V609.9H126Zm2.6,12.5a2.39,2.39,0,0,1-.93-1.16l.13-1.91a2.22,2.22,0,0,0,.21,1,1.48,1.48,0,0,0,.61.63,1.93,1.93,0,0,0,1,.22,1.74,1.74,0,0,0,1.37-.54,2.18,2.18,0,0,0,.49-1.53v-2a2.26,2.26,0,0,0-.49-1.56,1.71,1.71,0,0,0-1.37-.55,2,2,0,0,0-1,.21,1.36,1.36,0,0,0-.61.62,2.12,2.12,0,0,0-.21,1l-.19-1.76a3.37,3.37,0,0,1,1.08-1.24,2.67,2.67,0,0,1,1.49-.43,3,3,0,0,1,1.65.43,2.9,2.9,0,0,1,1.06,1.27,5.1,5.1,0,0,1,.36,2v2a4.94,4.94,0,0,1-.37,2,2.79,2.79,0,0,1-1.08,1.26,3.25,3.25,0,0,1-1.71.44A2.73,2.73,0,0,1,128.57,609.63Z"/><path class="f" d="M134.46,600.78h1.82l2.81,7.93-1,1.94Zm8.07,0L138.65,612a2.6,2.6,0,0,1-.56,1,1.87,1.87,0,0,1-.84.52,4,4,0,0,1-1.23.16h-.36V612H136a1.46,1.46,0,0,0,.8-.2,1.74,1.74,0,0,0,.51-.7l3.37-10.31Z"/><path class="f" d="M143.57,600.78h4.12v1.62h-4.12Zm1.46,8.56a2.77,2.77,0,0,1-.52-1.81v-9.4h1.8v9.42a.84.84,0,0,0,.13.51.46.46,0,0,0,.39.18h.86V610h-1A2,2,0,0,1,145,609.34Z"/><path class="f" d="M151.94,606.33a2.07,2.07,0,0,0,.49,1.48,1.76,1.76,0,0,0,1.37.52,1.91,1.91,0,0,0,1.37-.46,1.79,1.79,0,0,0,.48-1.33l.12,1.91A2.58,2.58,0,0,1,153.3,610a2.89,2.89,0,0,1-2.33-1,4.08,4.08,0,0,1-.82-2.73v-5.55h1.79Zm3.71-5.55h1.78v9.12h-1.78Z"/><rect class="g" x="612.92" y="591.68" width="35.43" height="2.83"/><path class="h" d="M648.48,594.64H612.79v-3.08h35.69ZM613,594.39h35.19v-2.58H613Z"/><rect class="g" x="612.92" y="601.6" width="70.74" height="2.83"/><path class="h" d="M683.78,604.56h-71v-3.08h71ZM613,604.31h70.49v-2.58H613Z"/><rect class="g" x="612.92" y="612.72" width="177.16" height="2.84"/><path class="h" d="M790.21,615.68H612.79V612.6H790.21ZM613,615.43H790v-2.58H613Z"/><path class="i" d="M587.26,596.28h-.8v-4.82l-.81.5v-.83l.81-.53h.8Z"/><path class="i" d="M589,595.91a1.67,1.67,0,0,1-.41-1.19v-2.58A1.65,1.65,0,0,1,589,591a2,2,0,0,1,2.42,0,1.65,1.65,0,0,1,.41,1.19v2.58a1.65,1.65,0,0,1-.41,1.19,2,2,0,0,1-2.42,0Zm1.83-.55a.89.89,0,0,0,.2-.64v-2.58a.89.89,0,0,0-.2-.64.82.82,0,0,0-.62-.22.86.86,0,0,0-.63.22.94.94,0,0,0-.2.64v2.58a.9.9,0,0,0,.21.64,1,1,0,0,0,1.24,0Z"/><path class="i" d="M593.22,595.91a1.67,1.67,0,0,1-.41-1.19v-2.58a1.65,1.65,0,0,1,.41-1.19,2,2,0,0,1,2.42,0,1.61,1.61,0,0,1,.41,1.19v2.58a1.65,1.65,0,0,1-.41,1.19,2,2,0,0,1-2.42,0Zm1.83-.55a.9.9,0,0,0,.21-.64v-2.58a.94.94,0,0,0-.2-.64.86.86,0,0,0-.63-.22.82.82,0,0,0-.62.22.89.89,0,0,0-.2.64v2.58a.89.89,0,0,0,.2.64,1,1,0,0,0,1.24,0Z"/><path class="i" d="M600.1,596.13a1.45,1.45,0,0,1-.6-.6,2.06,2.06,0,0,1-.21-1v-.67a2,2,0,0,1,.21-.94,1.37,1.37,0,0,1,.6-.59,2,2,0,0,1,.95-.21,2.21,2.21,0,0,1,.59.08,1.68,1.68,0,0,1,.51.22,1.54,1.54,0,0,1,.37.35l-.58.52a1.17,1.17,0,0,0-.4-.3,1.13,1.13,0,0,0-.48-.11.94.94,0,0,0-.71.26,1,1,0,0,0-.26.72v.67a1,1,0,0,0,.25.74.94.94,0,0,0,.72.27,1,1,0,0,0,.48-.12,1,1,0,0,0,.4-.32l.58.56a1.38,1.38,0,0,1-.38.34,1.62,1.62,0,0,1-.5.22,2.27,2.27,0,0,1-.59.07A2.12,2.12,0,0,1,600.1,596.13Z"/><path class="i" d="M603.4,592.22h.79v4.06h-.79Zm2.42,1.6a1,1,0,0,0-.21-.67.78.78,0,0,0-.6-.23.81.81,0,0,0-.6.21.73.73,0,0,0-.22.58l-.08-.78a1.46,1.46,0,0,1,.49-.57,1.22,1.22,0,0,1,.67-.2,1.33,1.33,0,0,1,.73.2,1.18,1.18,0,0,1,.46.56,2.4,2.4,0,0,1,.15.89v2.47h-.79Zm2.42,0a.93.93,0,0,0-.22-.67.85.85,0,0,0-.63-.23.72.72,0,0,0-.57.23.9.9,0,0,0-.21.64l-.16-.78a1.61,1.61,0,0,1,.51-.63,1.23,1.23,0,0,1,.69-.22,1.37,1.37,0,0,1,.75.2,1.09,1.09,0,0,1,.47.56,2.21,2.21,0,0,1,.17.89v2.47h-.8Z"/><path class="i" d="M584.33,605.5l2-2.64a1.85,1.85,0,0,0,.27-.47,1.29,1.29,0,0,0,.09-.45h0a.67.67,0,0,0-.2-.53.81.81,0,0,0-.56-.19.76.76,0,0,0-.56.21,1,1,0,0,0-.27.58h-.82a2,2,0,0,1,.29-.83,1.42,1.42,0,0,1,.56-.53,1.67,1.67,0,0,1,.79-.18,1.93,1.93,0,0,1,.87.17,1.21,1.21,0,0,1,.54.51,1.55,1.55,0,0,1,.19.8h0a1.84,1.84,0,0,1-.12.63,2.8,2.8,0,0,1-.35.63l-1.65,2.24h2.15v.76h-3.2Z"/><path class="i" d="M589,605.83a1.67,1.67,0,0,1-.41-1.19v-2.58a1.65,1.65,0,0,1,.41-1.19,2,2,0,0,1,2.42,0,1.65,1.65,0,0,1,.41,1.19v2.58a1.65,1.65,0,0,1-.41,1.19,2,2,0,0,1-2.42,0Zm1.83-.55a.89.89,0,0,0,.2-.64v-2.58a.89.89,0,0,0-.2-.64.82.82,0,0,0-.62-.22.86.86,0,0,0-.63.22.94.94,0,0,0-.19.64v2.58a.89.89,0,0,0,.2.64,1,1,0,0,0,1.24,0Z"/><path class="i" d="M593.22,605.83a1.67,1.67,0,0,1-.41-1.19v-2.58a1.61,1.61,0,0,1,.42-1.19,1.59,1.59,0,0,1,1.2-.42,1.45,1.45,0,0,1,1.62,1.61v2.58a1.61,1.61,0,0,1-.41,1.19,2,2,0,0,1-2.42,0Zm1.84-.55a.94.94,0,0,0,.2-.64v-2.58a.94.94,0,0,0-.2-.64.84.84,0,0,0-.63-.22.82.82,0,0,0-.62.22.89.89,0,0,0-.2.64v2.58a.89.89,0,0,0,.2.64.82.82,0,0,0,.62.22A.86.86,0,0,0,595.06,605.28Z"/><path class="i" d="M600.1,606.05a1.45,1.45,0,0,1-.6-.6,2.06,2.06,0,0,1-.2-1v-.67a2,2,0,0,1,.2-.94,1.37,1.37,0,0,1,.6-.59,2,2,0,0,1,.95-.21,2.35,2.35,0,0,1,.6.08,1.73,1.73,0,0,1,.5.22,1.38,1.38,0,0,1,.37.35l-.58.52a1.08,1.08,0,0,0-.4-.3,1.13,1.13,0,0,0-.48-.11,1,1,0,0,0-.71.26,1,1,0,0,0-.26.72v.67a1,1,0,0,0,.25.74.94.94,0,0,0,.72.27,1.14,1.14,0,0,0,.88-.44l.58.56a1.38,1.38,0,0,1-.38.34,1.62,1.62,0,0,1-.5.22,2.22,2.22,0,0,1-.59.07A2.12,2.12,0,0,1,600.1,606.05Z"/><path class="i" d="M603.4,602.14h.79v4.06h-.79Zm2.42,1.6a1,1,0,0,0-.21-.67.78.78,0,0,0-.6-.23.81.81,0,0,0-.6.21.73.73,0,0,0-.22.58l-.08-.78a1.46,1.46,0,0,1,.49-.57,1.22,1.22,0,0,1,.67-.2,1.3,1.3,0,0,1,.73.2,1.18,1.18,0,0,1,.46.56,2.4,2.4,0,0,1,.16.89v2.47h-.8Zm2.42,0a.93.93,0,0,0-.22-.67.85.85,0,0,0-.63-.23.73.73,0,0,0-.57.23.89.89,0,0,0-.2.64l-.16-.78a1.51,1.51,0,0,1,.5-.63,1.23,1.23,0,0,1,.69-.22,1.35,1.35,0,0,1,.75.2,1.16,1.16,0,0,1,.48.56,2.4,2.4,0,0,1,.16.89v2.47h-.8Z"/><path class="i" d="M585,615.58a1.34,1.34,0,0,1-.54-.49,2,2,0,0,1-.28-.77h.8a.75.75,0,0,0,.25.49.85.85,0,0,0,.54.17.72.72,0,0,0,.59-.25,1.1,1.1,0,0,0,.21-.72v-.48a1.1,1.1,0,0,0-.21-.72.72.72,0,0,0-.59-.25.83.83,0,0,0-.4.11,1.18,1.18,0,0,0-.34.33h-.72v-3h2.89v.76h-2.1V612a1,1,0,0,1,.34-.18.94.94,0,0,1,.37-.07,1.68,1.68,0,0,1,.84.2,1.29,1.29,0,0,1,.53.6,2.07,2.07,0,0,1,.19.94V614a2.25,2.25,0,0,1-.19.94,1.31,1.31,0,0,1-.55.59,1.69,1.69,0,0,1-.86.21A1.74,1.74,0,0,1,585,615.58Z"/><path class="i" d="M589,615.32a1.65,1.65,0,0,1-.41-1.19v-2.58a1.67,1.67,0,0,1,.41-1.19,2,2,0,0,1,2.42,0,1.65,1.65,0,0,1,.41,1.19v2.58a1.64,1.64,0,0,1-.41,1.19,1.92,1.92,0,0,1-2.42,0Zm1.83-.55a.89.89,0,0,0,.2-.64v-2.58a.88.88,0,0,0-.2-.63.78.78,0,0,0-.62-.22.82.82,0,0,0-.63.22.93.93,0,0,0-.2.63v2.58a.9.9,0,0,0,.21.64,1,1,0,0,0,1.24,0Z"/><path class="i" d="M593.22,615.32a1.65,1.65,0,0,1-.41-1.19v-2.58a1.67,1.67,0,0,1,.41-1.19,2,2,0,0,1,2.42,0,1.61,1.61,0,0,1,.41,1.19v2.58a1.64,1.64,0,0,1-.41,1.19,1.92,1.92,0,0,1-2.42,0Zm1.83-.55a.9.9,0,0,0,.21-.64v-2.58a.93.93,0,0,0-.2-.63.82.82,0,0,0-.63-.22.78.78,0,0,0-.62.22.88.88,0,0,0-.2.63v2.58a.89.89,0,0,0,.2.64,1,1,0,0,0,1.24,0Z"/><path class="i" d="M600.1,615.54a1.45,1.45,0,0,1-.6-.6,2,2,0,0,1-.21-1v-.67a2,2,0,0,1,.21-.94,1.45,1.45,0,0,1,.6-.6,2,2,0,0,1,.95-.2,2.22,2.22,0,0,1,.59.07,2,2,0,0,1,.51.22,1.76,1.76,0,0,1,.37.35l-.58.52a1.17,1.17,0,0,0-.4-.3,1.13,1.13,0,0,0-.48-.11.94.94,0,0,0-.71.26,1,1,0,0,0-.26.73V614a1.07,1.07,0,0,0,.25.74,1,1,0,0,0,.72.26,1.13,1.13,0,0,0,.48-.11,1.26,1.26,0,0,0,.4-.32l.58.55a1.42,1.42,0,0,1-.38.35,1.88,1.88,0,0,1-.5.21,2.27,2.27,0,0,1-.59.08A2,2,0,0,1,600.1,615.54Z"/><path class="i" d="M603.4,611.63h.79v4.06h-.79Zm2.42,1.6a1,1,0,0,0-.21-.66.75.75,0,0,0-.6-.24.81.81,0,0,0-.6.21.75.75,0,0,0-.22.58l-.08-.78a1.5,1.5,0,0,1,.49-.56,1.15,1.15,0,0,1,.67-.2,1.32,1.32,0,0,1,.73.19,1.28,1.28,0,0,1,.46.56,2.42,2.42,0,0,1,.15.9v2.46h-.79Zm2.42,0a.91.91,0,0,0-.22-.66.82.82,0,0,0-.63-.24.72.72,0,0,0-.57.23.9.9,0,0,0-.21.64l-.16-.78a1.51,1.51,0,0,1,.51-.62,1.16,1.16,0,0,1,.69-.22,1.37,1.37,0,0,1,.75.19,1.18,1.18,0,0,1,.47.56,2.22,2.22,0,0,1,.17.9v2.46h-.8Z"/><path class="g" d="M23.49,613.89A12.92,12.92,0,1,1,36.4,601,12.93,12.93,0,0,1,23.49,613.89Zm0-24.83A11.92,11.92,0,1,0,35.4,601,11.93,11.93,0,0,0,23.49,589.06Z"/><polygon class="h" points="35.77 588.74 9.42 600.98 35.77 613.21 32.02 600.98 35.77 588.74"/><path class="g" d="M36.58,614.14,8.23,601l28.35-13.17-4,13.17ZM10.61,601,35,612.29,31.5,601,35,589.66Z"/><path class="g" d="M2.52,605.19a5,5,0,0,1-1.11-.38,4.4,4.4,0,0,1-1-.64l.81-1a3.72,3.72,0,0,0,1.16.69,4.08,4.08,0,0,0,1.38.23,2.73,2.73,0,0,0,1.55-.38,1.17,1.17,0,0,0,.55-1.05h0a1.12,1.12,0,0,0-.25-.77,1.44,1.44,0,0,0-.64-.42,8.23,8.23,0,0,0-1-.25H3.89l-.1,0a9.48,9.48,0,0,1-1.5-.36,2.08,2.08,0,0,1-1-.73,2.42,2.42,0,0,1-.41-1.51h0a2.77,2.77,0,0,1,.38-1.47,2.44,2.44,0,0,1,1.12-.92,4.48,4.48,0,0,1,1.77-.32,4.6,4.6,0,0,1,1,.11,4.9,4.9,0,0,1,1.86.86l-.73,1a4.61,4.61,0,0,0-1-.58,3,3,0,0,0-1.06-.2,2.44,2.44,0,0,0-1.46.38,1.24,1.24,0,0,0-.53,1.07h0a1,1,0,0,0,.27.75,1.74,1.74,0,0,0,.67.4,9.3,9.3,0,0,0,1.12.27h.24a7.93,7.93,0,0,1,1.4.41,2.22,2.22,0,0,1,.94.76,2.4,2.4,0,0,1,.38,1.43h0a2.62,2.62,0,0,1-.4,1.45,2.54,2.54,0,0,1-1.16.91,4.8,4.8,0,0,1-1.83.31A6.44,6.44,0,0,1,2.52,605.19Z"/><rect class="g" x="612.5" y="600.68" width="1" height="4.68"/><rect class="g" x="612.5" y="590.76" width="1" height="4.68"/><rect class="g" x="612.5" y="611.45" width="1" height="5.24"/><rect class="g" x="789.58" y="611.45" width="1" height="5.24"/><rect class="g" x="682.59" y="600.68" width="1" height="4.68"/><rect class="g" x="647.3" y="590.76" width="1" height="4.68"/><rect class="a" width="790.34" height="618.13"/><path class="j" d="M294.05,340.47h0Z"/><line class="k" x1="294.05" y1="93.73" x2="296.79" y2="93.73"/><line class="k" x1="443.51" y1="42.26" x2="299.53" y2="42.26"/><line class="k" x1="443.51" y1="93.73" x2="443.51" y2="42.26"/><line class="k" x1="441.8" y1="93.73" x2="443.51" y2="93.73"/><line class="k" x1="441.8" y1="97.16" x2="441.8" y2="93.73"/><line class="k" x1="411.02" y1="97.16" x2="441.8" y2="97.16"/><line class="k" x1="411.02" y1="93.73" x2="411.02" y2="97.16"/><line class="k" x1="299.53" y1="93.73" x2="411.02" y2="93.73"/><line class="k" x1="299.53" y1="42.26" x2="299.53" y2="93.73"/><line class="k" x1="399.05" y1="524.41" x2="378.53" y2="524.41"/><line class="k" x1="399.05" y1="520.98" x2="399.05" y2="524.41"/><line class="k" x1="429.83" y1="520.98" x2="399.05" y2="520.98"/><line class="k" x1="429.83" y1="524.41" x2="429.83" y2="520.98"/><line class="k" x1="465.75" y1="524.41" x2="429.83" y2="524.41"/><line class="k" x1="465.75" y1="575.88" x2="465.75" y2="524.41"/><line class="k" x1="378.53" y1="575.88" x2="465.75" y2="575.88"/><line class="k" x1="378.53" y1="524.41" x2="378.53" y2="575.88"/><rect class="h" x="456.34" y="327.77" width="20.52" height="20.59"/><line class="k" x1="456.34" y1="327.77" x2="456.34" y2="348.36"/><line class="k" x1="476.86" y1="327.77" x2="456.34" y2="327.77"/><line class="k" x1="476.86" y1="348.36" x2="476.86" y2="327.77"/><line class="k" x1="456.34" y1="348.36" x2="476.86" y2="348.36"/><rect class="h" x="461.98" y="107.17" width="20.86" height="130.01"/><line class="k" x1="461.98" y1="107.17" x2="482.85" y2="107.17"/><line class="k" x1="482.85" y1="107.17" x2="482.85" y2="237.17"/><line class="k" x1="482.85" y1="237.17" x2="461.98" y2="237.17"/><line class="k" x1="461.98" y1="237.17" x2="461.98" y2="107.17"/><rect class="h" x="430.69" y="240.43" width="30.78" height="30.89"/><line class="k" x1="430.69" y1="240.44" x2="430.69" y2="271.32"/><line class="k" x1="461.47" y1="240.44" x2="430.69" y2="240.44"/><line class="k" x1="461.47" y1="271.32" x2="461.47" y2="240.44"/><line class="k" x1="430.69" y1="271.32" x2="461.47" y2="271.32"/><rect class="h" x="302.26" y="252.62" width="85.5" height="15.44"/><line class="k" x1="302.26" y1="252.62" x2="302.26" y2="268.06"/><line class="k" x1="387.77" y1="252.62" x2="302.26" y2="252.62"/><line class="k" x1="387.77" y1="268.06" x2="387.77" y2="252.62"/><line class="k" x1="302.26" y1="268.06" x2="387.77" y2="268.06"/><line class="k" x1="383.32" y1="418.03" x2="383.32" y2="397.09"/><polygon points="294.05 100.59 294.05 93.73 298.16 93.73 342.62 93.73 342.62 100.59 294.05 100.59"/><rect x="377.16" y="517.54" width="21.89" height="6.86"/><polygon points="441.81 100.59 441.81 93.73 446.94 93.73 493.96 93.73 493.96 100.59 441.81 100.59"/><polygon points="464.04 524.41 464.04 517.54 489.69 517.54 489.69 438.12 496.53 438.12 496.53 524.41 464.04 524.41"/><rect x="489.69" y="431.75" width="6.84" height="6.86"/><polygon points="493.96 431.75 493.96 93.73 496.53 93.73 496.53 203.54 496.53 395.72 496.53 431.75 493.96 431.75"/><polygon points="465.75 517.54 465.75 510.68 482.85 510.68 482.85 107.46 443.51 107.46 443.51 100.59 489.69 100.59 489.69 517.54 465.75 517.54"/><rect x="294.06" y="100.6" width="46.85" height="6.86"/><polygon points="377.16 517.54 377.16 510.68 383.32 510.68 397.34 510.68 397.34 517.54 377.16 517.54"/><rect x="489.69" y="100.6" width="4.28" height="331.16"/><polygon points="383.32 510.68 383.32 340.47 294.06 340.47 294.06 332.23 294.06 330.52 302.26 330.52 302.26 332.23 391.53 332.23 391.53 510.68 383.32 510.68"/><polygon points="294.05 292.77 294.05 285.91 294.05 277.67 294.05 107.46 302.26 107.46 302.26 292.77 294.05 292.77"/><polygon points="427.44 353.51 427.44 334.63 424.88 334.63 424.88 332.23 427.44 332.23 427.44 325.37 429.83 325.37 429.83 351.11 482.85 351.11 482.85 353.51 427.44 353.51"/><rect x="302.26" y="268.06" width="91.83" height="2.4"/><rect x="294.05" y="292.77" width="3.93" height="1.72"/><rect x="294.05" y="328.8" width="3.93" height="1.72"/><rect x="391.53" y="332.23" width="2.57" height="2.4"/><polygon points="427.44 297.92 427.44 270.46 424.88 270.46 424.88 268.06 427.44 268.06 427.44 237.18 482.85 237.18 482.85 239.58 429.83 239.58 429.83 297.92 427.44 297.92"/><path d="M349.12,340.47h0Z"/><polygon points="436.67 351.11 436.67 344.24 429.83 344.24 429.83 341.67 439.24 341.67 439.24 351.11 436.67 351.11"/><polygon points="462.32 270.46 462.32 239.58 465.75 239.58 465.75 267.03 482.85 267.03 482.85 270.46 462.32 270.46"/><rect x="377.16" y="524.41" width="1.37" height="51.48"/><rect x="298.16" y="42.25" width="1.37" height="51.48"/><line class="k" x1="496.53" y1="438.62" x2="496.53" y2="524.41"/><line class="k" x1="482.85" y1="107.46" x2="482.85" y2="237.17"/><line class="k" x1="482.85" y1="239.58" x2="482.85" y2="267.03"/><line class="k" x1="482.85" y1="270.46" x2="482.85" y2="351.11"/><line class="k" x1="482.85" y1="353.51" x2="482.85" y2="510.68"/><line class="k" x1="443.51" y1="107.46" x2="443.51" y2="100.59"/><line class="k" x1="298.16" y1="93.73" x2="294.05" y2="93.73"/><line class="k" x1="342.62" y1="93.73" x2="298.16" y2="93.73"/><line class="k" x1="340.91" y1="107.46" x2="302.26" y2="107.46"/><line class="k" x1="441.8" y1="93.73" x2="446.93" y2="93.73"/><line class="k" x1="446.93" y1="93.73" x2="487.12" y2="93.73"/><line class="k" x1="443.51" y1="107.46" x2="482.85" y2="107.46"/><line class="k" x1="399.05" y1="524.41" x2="377.16" y2="524.41"/><line class="k" x1="397.34" y1="510.68" x2="391.53" y2="510.68"/><line class="k" x1="383.32" y1="510.68" x2="377.16" y2="510.68"/><line class="k" x1="465.75" y1="510.68" x2="465.75" y2="517.54"/><line class="k" x1="496.53" y1="524.41" x2="464.03" y2="524.41"/><line class="k" x1="340.91" y1="107.46" x2="340.91" y2="100.59"/><line class="k" x1="397.34" y1="510.68" x2="397.34" y2="517.54"/><line class="k" x1="465.75" y1="510.68" x2="482.85" y2="510.68"/><line class="k" x1="378.53" y1="524.41" x2="378.53" y2="575.88"/><line class="k" x1="377.16" y1="575.88" x2="378.53" y2="575.88"/><line class="k" x1="299.53" y1="42.26" x2="299.53" y2="93.73"/><line class="k" x1="298.16" y1="42.26" x2="299.53" y2="42.26"/><line class="k" x1="342.62" y1="100.59" x2="342.62" y2="93.73"/><line class="k" x1="340.91" y1="100.59" x2="342.62" y2="100.59"/><line class="k" x1="441.8" y1="100.59" x2="441.8" y2="93.73"/><line class="k" x1="443.51" y1="100.59" x2="441.8" y2="100.59"/><line class="k" x1="399.05" y1="517.54" x2="399.05" y2="524.41"/><line class="k" x1="397.34" y1="517.54" x2="399.05" y2="517.54"/><line class="k" x1="464.04" y1="517.54" x2="464.04" y2="524.41"/><line class="k" x1="464.04" y1="517.54" x2="465.74" y2="517.54"/><line class="k" x1="482.85" y1="267.03" x2="482.85" y2="270.46"/><line class="k" x1="496.53" y1="438.62" x2="496.53" y2="438.62"/><line class="k" x1="409.31" y1="107.46" x2="443.51" y2="107.46"/><line class="k" x1="298.16" y1="42.26" x2="443.51" y2="42.26"/><line class="k" x1="298.16" y1="42.26" x2="443.51" y2="42.26"/><line class="k" x1="340.91" y1="107.46" x2="409.31" y2="107.46"/><line class="k" x1="377.16" y1="575.88" x2="465.74" y2="575.88"/><line class="k" x1="465.75" y1="524.41" x2="465.75" y2="575.88"/><line class="k" x1="465.75" y1="510.68" x2="431.54" y2="510.68"/><line class="k" x1="431.54" y1="510.68" x2="431.54" y2="517.54"/><line class="k" x1="429.83" y1="517.54" x2="429.83" y2="524.41"/><line class="k" x1="464.04" y1="524.41" x2="429.83" y2="524.41"/><line class="k" x1="431.54" y1="510.68" x2="397.34" y2="510.68"/><line class="k" x1="429.83" y1="520.98" x2="399.05" y2="520.98"/><line class="k" x1="431.54" y1="514.8" x2="431.54" y2="517.54"/><line class="k" x1="428.81" y1="516.86" x2="428.81" y2="517.54"/><line class="k" x1="428.81" y1="517.54" x2="431.54" y2="517.54"/><line class="k" x1="431.54" y1="517.54" x2="431.54" y2="514.8"/><line class="k" x1="431.54" y1="514.8" x2="430.18" y2="514.8"/><line class="k" x1="430.18" y1="514.11" x2="427.44" y2="514.11"/><line class="k" x1="427.44" y1="514.11" x2="427.44" y2="516.86"/><line class="k" x1="427.44" y1="516.86" x2="430.18" y2="516.86"/><line class="k" x1="430.18" y1="516.86" x2="430.18" y2="514.11"/><line class="k" x1="400.08" y1="516.86" x2="400.08" y2="517.54"/><line class="k" x1="400.08" y1="517.54" x2="397.34" y2="517.54"/><line class="k" x1="397.34" y1="517.54" x2="397.34" y2="514.8"/><line class="k" x1="397.34" y1="514.8" x2="398.71" y2="514.8"/><line class="k" x1="398.71" y1="514.11" x2="401.45" y2="514.11"/><line class="k" x1="401.45" y1="514.11" x2="401.45" y2="516.86"/><line class="k" x1="401.45" y1="516.86" x2="398.71" y2="516.86"/><line class="k" x1="398.71" y1="516.86" x2="398.71" y2="514.11"/><line class="k" x1="427.44" y1="514.11" x2="401.45" y2="514.11"/><line class="k" x1="401.45" y1="516.86" x2="427.44" y2="516.86"/><line class="k" x1="427.44" y1="515.48" x2="401.45" y2="515.48"/><line class="k" x1="434.28" y1="516.86" x2="434.28" y2="517.54"/><line class="k" x1="434.28" y1="517.54" x2="431.54" y2="517.54"/><line class="k" x1="431.54" y1="517.54" x2="431.54" y2="514.8"/><line class="k" x1="431.54" y1="514.8" x2="432.91" y2="514.8"/><line class="k" x1="432.91" y1="514.11" x2="435.65" y2="514.11"/><line class="k" x1="435.65" y1="514.11" x2="435.65" y2="516.86"/><line class="k" x1="435.65" y1="516.86" x2="432.91" y2="516.86"/><line class="k" x1="432.91" y1="516.86" x2="432.91" y2="514.11"/><line class="k" x1="463.01" y1="516.86" x2="463.01" y2="517.54"/><line class="k" x1="463.01" y1="517.54" x2="465.75" y2="517.54"/><line class="k" x1="465.75" y1="517.54" x2="465.75" y2="514.8"/><line class="k" x1="465.75" y1="514.8" x2="464.38" y2="514.8"/><line class="k" x1="464.38" y1="514.11" x2="461.64" y2="514.11"/><line class="k" x1="461.64" y1="514.11" x2="461.64" y2="516.86"/><line class="k" x1="461.64" y1="516.86" x2="464.38" y2="516.86"/><line class="k" x1="464.38" y1="516.86" x2="464.38" y2="514.11"/><line class="k" x1="435.65" y1="514.11" x2="461.64" y2="514.11"/><line class="k" x1="461.64" y1="516.86" x2="435.65" y2="516.86"/><line class="k" x1="435.65" y1="515.48" x2="461.64" y2="515.48"/><line class="k" x1="342.62" y1="93.73" x2="411.02" y2="93.73"/><line class="k" x1="400.76" y1="107.46" x2="400.76" y2="100.59"/><line class="k" x1="411.02" y1="100.59" x2="411.02" y2="93.73"/><line class="k" x1="411.02" y1="97.16" x2="441.8" y2="97.16"/><line class="k" x1="412.05" y1="101.28" x2="412.05" y2="100.59"/><line class="k" x1="412.05" y1="100.59" x2="409.31" y2="100.59"/><line class="k" x1="409.31" y1="100.59" x2="409.31" y2="103.34"/><line class="k" x1="409.31" y1="103.34" x2="410.68" y2="103.34"/><line class="k" x1="410.68" y1="104.03" x2="413.42" y2="104.03"/><line class="k" x1="413.42" y1="104.03" x2="413.42" y2="101.28"/><line class="k" x1="413.42" y1="101.28" x2="410.68" y2="101.28"/><line class="k" x1="410.68" y1="101.28" x2="410.68" y2="104.03"/><line class="k" x1="442.15" y1="104.03" x2="439.41" y2="104.03"/><line class="k" x1="439.41" y1="104.03" x2="439.41" y2="101.28"/><line class="k" x1="439.41" y1="101.28" x2="442.15" y2="101.28"/><line class="k" x1="442.15" y1="101.28" x2="442.15" y2="104.03"/><line class="k" x1="413.42" y1="104.03" x2="439.41" y2="104.03"/><line class="k" x1="439.41" y1="101.28" x2="413.42" y2="101.28"/><line class="k" x1="413.42" y1="102.65" x2="439.41" y2="102.65"/><line class="k" x1="440.78" y1="101.28" x2="440.78" y2="100.59"/><line class="k" x1="440.78" y1="100.59" x2="443.51" y2="100.59"/><line class="k" x1="443.51" y1="100.59" x2="443.51" y2="103.34"/><line class="k" x1="443.51" y1="103.34" x2="442.15" y2="103.34"/><line class="k" x1="343.65" y1="101.28" x2="343.65" y2="100.59"/><line class="k" x1="343.65" y1="100.59" x2="340.91" y2="100.59"/><line class="k" x1="340.91" y1="100.59" x2="340.91" y2="103.34"/><line class="k" x1="340.91" y1="103.34" x2="342.28" y2="103.34"/><line class="k" x1="342.28" y1="104.03" x2="345.01" y2="104.03"/><line class="k" x1="345.01" y1="104.03" x2="345.01" y2="101.28"/><line class="k" x1="345.01" y1="101.28" x2="342.28" y2="101.28"/><line class="k" x1="342.28" y1="101.28" x2="342.28" y2="104.03"/><line class="k" x1="373.74" y1="101.28" x2="373.74" y2="100.59"/><line class="k" x1="373.74" y1="100.59" x2="376.48" y2="100.59"/><line class="k" x1="376.48" y1="100.59" x2="376.48" y2="103.34"/><line class="k" x1="376.48" y1="103.34" x2="375.11" y2="103.34"/><line class="k" x1="375.11" y1="104.03" x2="372.37" y2="104.03"/><line class="k" x1="372.38" y1="104.03" x2="372.38" y2="101.28"/><line class="k" x1="372.38" y1="101.28" x2="375.11" y2="101.28"/><line class="k" x1="375.11" y1="101.28" x2="375.11" y2="104.03"/><line class="k" x1="345.01" y1="104.03" x2="372.37" y2="104.03"/><line class="k" x1="372.38" y1="101.28" x2="345.01" y2="101.28"/><line class="k" x1="345.01" y1="102.65" x2="372.37" y2="102.65"/><line class="k" x1="409.31" y1="103.34" x2="406.58" y2="103.34"/><line class="k" x1="406.58" y1="103.34" x2="406.58" y2="100.59"/><line class="k" x1="406.58" y1="100.59" x2="409.31" y2="100.59"/><line class="k" x1="409.31" y1="100.59" x2="409.31" y2="103.34"/><line class="k" x1="406.58" y1="103.34" x2="376.48" y2="103.34"/><line class="k" x1="406.58" y1="101.97" x2="376.48" y2="101.97"/><line class="k" x1="406.58" y1="100.59" x2="376.48" y2="100.59"/><line class="k" x1="302.26" y1="107.46" x2="302.26" y2="268.06"/><line class="k" x1="302.26" y1="270.46" x2="302.26" y2="292.77"/><line class="k" x1="294.05" y1="107.46" x2="294.05" y2="277.67"/><line class="k" x1="302.26" y1="332.23" x2="391.53" y2="332.23"/><line class="k" x1="391.53" y1="334.64" x2="391.53" y2="510.68"/><line class="k" x1="383.32" y1="397.09" x2="383.32" y2="510.68"/><line class="k" x1="302.26" y1="330.52" x2="302.26" y2="332.23"/><line class="k" x1="294.05" y1="285.91" x2="294.05" y2="292.77"/><line class="k" x1="294.05" y1="330.52" x2="294.05" y2="332.23"/><line class="k" x1="294.05" y1="285.91" x2="294.05" y2="285.91"/><line class="k" x1="294.05" y1="277.67" x2="294.05" y2="277.67"/><line class="k" x1="294.05" y1="332.23" x2="294.05" y2="332.23"/><line class="k" x1="294.05" y1="340.47" x2="349.12" y2="340.47"/><line class="k" x1="297.99" y1="294.49" x2="294.05" y2="294.49"/><line class="k" x1="297.99" y1="328.8" x2="294.05" y2="328.8"/><line class="k" x1="297.99" y1="328.8" x2="297.99" y2="330.52"/><line class="k" x1="297.99" y1="294.49" x2="297.99" y2="292.77"/><line class="k" x1="297.99" y1="292.77" x2="302.26" y2="292.77"/><line class="k" x1="297.99" y1="330.52" x2="302.26" y2="330.52"/><line class="k" x1="294.05" y1="328.8" x2="294.05" y2="330.52"/><line class="k" x1="294.05" y1="292.77" x2="294.05" y2="294.49"/><line class="k" x1="349.12" y1="340.47" x2="352.54" y2="340.47"/><line class="k" x1="427.44" y1="237.17" x2="427.44" y2="268.06"/><line class="k" x1="427.44" y1="270.46" x2="427.44" y2="297.92"/><line class="k" x1="429.83" y1="239.58" x2="429.83" y2="297.92"/><line class="k" x1="482.85" y1="237.17" x2="427.44" y2="237.17"/><line class="k" x1="302.26" y1="270.46" x2="394.09" y2="270.46"/><line class="k" x1="424.87" y1="270.46" x2="427.44" y2="270.46"/><line class="k" x1="302.26" y1="268.06" x2="394.09" y2="268.06"/><line class="k" x1="424.87" y1="268.06" x2="427.44" y2="268.06"/><line class="k" x1="394.09" y1="268.06" x2="394.09" y2="270.46"/><line class="k" x1="424.87" y1="268.06" x2="424.87" y2="270.46"/><line class="k" x1="427.44" y1="325.37" x2="427.44" y2="332.23"/><line class="k" x1="427.44" y1="334.64" x2="427.44" y2="353.51"/><line class="k" x1="429.83" y1="325.37" x2="429.83" y2="341.67"/><line class="k" x1="429.83" y1="344.24" x2="429.83" y2="351.11"/><line class="k" x1="482.85" y1="353.51" x2="427.44" y2="353.51"/><line class="k" x1="427.44" y1="334.64" x2="424.87" y2="334.64"/><line class="k" x1="394.09" y1="334.64" x2="391.53" y2="334.64"/><line class="k" x1="482.85" y1="351.11" x2="439.24" y2="351.11"/><line class="k" x1="436.67" y1="351.11" x2="429.83" y2="351.11"/><line class="k" x1="427.44" y1="332.23" x2="424.87" y2="332.23"/><line class="k" x1="394.09" y1="332.23" x2="391.53" y2="332.23"/><line class="k" x1="462.33" y1="239.58" x2="429.83" y2="239.58"/><line class="k" x1="394.09" y1="332.23" x2="394.09" y2="334.64"/><line class="k" x1="424.87" y1="332.23" x2="424.87" y2="334.64"/><line class="k" x1="427.44" y1="325.37" x2="429.83" y2="325.37"/><line class="k" x1="427.44" y1="297.92" x2="429.83" y2="297.92"/><line class="k" x1="398.71" y1="514.11" x2="398.71" y2="482.54"/><g class="l"><path class="k" d="M398.71,482.54a31.52,31.52,0,0,1,31.47,31.57"/><path class="k" d="M313.21,514.11a31.52,31.52,0,0,1,31.46-31.57"/></g><line class="k" x1="442.15" y1="104.03" x2="442.15" y2="135.6"/><g class="l"><path class="k" d="M442.15,135.6A31.52,31.52,0,0,1,410.68,104"/></g><line class="k" x1="461.98" y1="236.83" x2="461.98" y2="216.24"/><line class="k" x1="482.85" y1="237.17" x2="461.98" y2="237.17"/><line class="k" x1="461.98" y1="237.17" x2="461.98" y2="107.17"/><line class="k" x1="461.98" y1="107.17" x2="482.85" y2="107.17"/><line class="k" x1="482.85" y1="107.17" x2="482.85" y2="237.17"/><line class="k" x1="383.32" y1="397.09" x2="383.32" y2="418.03"/><g class="l"><path class="k" d="M274.56,364.49a24,24,0,0,1,23.94,24"/></g><line class="k" x1="427.44" y1="323.65" x2="427.44" y2="299.63"/><line class="k" x1="427.44" y1="323.65" x2="403.5" y2="323.65"/><g class="l"><path class="k" d="M403.5,323.65a24,24,0,0,1,23.94-24"/></g><line class="k" x1="429.83" y1="323.65" x2="427.44" y2="323.65"/><line class="k" x1="427.44" y1="299.63" x2="429.83" y2="299.63"/><line class="k" x1="427.44" y1="299.63" x2="427.44" y2="297.92"/><line class="k" x1="429.83" y1="299.63" x2="429.83" y2="297.92"/><line class="k" x1="427.44" y1="325.37" x2="427.44" y2="323.65"/><line class="k" x1="429.83" y1="325.37" x2="429.83" y2="323.65"/><line class="k" x1="429.83" y1="323.65" x2="429.83" y2="316.79"/><line class="k" x1="429.83" y1="313.02" x2="429.83" y2="312.24"/><line class="k" x1="429.83" y1="308.47" x2="429.83" y2="307.7"/><line class="k" x1="429.83" y1="306.5" x2="429.83" y2="299.63"/><line class="k" x1="427.44" y1="323.65" x2="426.59" y2="323.65"/><line class="k" x1="426.58" y1="323.65" x2="426.58" y2="327.09"/><line class="k" x1="426.58" y1="327.09" x2="427.44" y2="327.09"/><line class="k" x1="429.83" y1="323.65" x2="430.69" y2="323.65"/><line class="k" x1="430.69" y1="323.65" x2="430.69" y2="327.09"/><line class="k" x1="430.69" y1="327.09" x2="429.83" y2="327.09"/><line class="k" x1="426.58" y1="299.63" x2="426.58" y2="296.2"/><line class="k" x1="426.58" y1="296.2" x2="427.44" y2="296.2"/><line class="k" x1="429.83" y1="299.63" x2="430.69" y2="299.63"/><line class="k" x1="430.69" y1="299.63" x2="430.69" y2="296.2"/><line class="k" x1="430.69" y1="296.2" x2="429.83" y2="296.2"/><line class="k" x1="423.16" y1="268.06" x2="395.8" y2="268.06"/><line class="k" x1="423.16" y1="268.06" x2="423.16" y2="240.61"/><g class="l"><path class="k" d="M395.8,268.06a27.41,27.41,0,0,1,27.36-27.45"/></g><line class="k" x1="423.16" y1="270.46" x2="423.16" y2="268.06"/><line class="k" x1="395.8" y1="268.06" x2="395.8" y2="270.46"/><line class="k" x1="395.8" y1="268.06" x2="394.09" y2="268.06"/><line class="k" x1="395.8" y1="270.46" x2="394.09" y2="270.46"/><line class="k" x1="424.87" y1="268.06" x2="423.16" y2="268.06"/><line class="k" x1="424.87" y1="270.46" x2="423.16" y2="270.46"/><line class="k" x1="423.16" y1="270.46" x2="416.32" y2="270.46"/><line class="k" x1="412.56" y1="270.46" x2="411.79" y2="270.46"/><line class="k" x1="408.03" y1="270.46" x2="407.26" y2="270.46"/><line class="k" x1="403.5" y1="270.46" x2="402.64" y2="270.46"/><line class="k" x1="402.64" y1="270.46" x2="395.8" y2="270.46"/><line class="k" x1="423.16" y1="268.06" x2="423.16" y2="267.2"/><line class="k" x1="423.16" y1="267.2" x2="426.58" y2="267.2"/><line class="k" x1="426.58" y1="267.2" x2="426.58" y2="268.06"/><line class="k" x1="423.16" y1="270.46" x2="423.16" y2="271.32"/><line class="k" x1="423.16" y1="271.32" x2="426.58" y2="271.32"/><line class="k" x1="426.58" y1="271.32" x2="426.58" y2="270.46"/><line class="k" x1="395.8" y1="267.2" x2="392.38" y2="267.2"/><line class="k" x1="392.38" y1="267.2" x2="392.38" y2="268.06"/><line class="k" x1="395.8" y1="270.46" x2="395.8" y2="271.32"/><line class="k" x1="395.8" y1="271.32" x2="392.38" y2="271.32"/><line class="k" x1="392.38" y1="271.32" x2="392.38" y2="270.46"/><line class="k" x1="474.66" y1="115.67" x2="469.83" y2="120.52"/><line class="k" x1="469.83" y1="115.67" x2="474.66" y2="120.52"/><line class="k" x1="472.24" y1="121.53" x2="472.24" y2="114.66"/><line class="k" x1="475.66" y1="118.1" x2="468.82" y2="118.1"/><line class="k" x1="461.98" y1="107.8" x2="461.98" y2="128.39"/><line class="k" x1="482.5" y1="128.39" x2="461.98" y2="128.39"/><line class="k" x1="463.69" y1="215.38" x2="463.69" y2="196.51"/><line class="k" x1="463.69" y1="196.51" x2="480.79" y2="196.51"/><line class="k" x1="480.79" y1="196.51" x2="480.79" y2="215.38"/><line class="k" x1="480.79" y1="215.38" x2="463.69" y2="215.38"/><line class="k" x1="461.98" y1="216.24" x2="461.98" y2="195.65"/><line class="k" x1="465.4" y1="213.67" x2="465.4" y2="198.23"/><line class="k" x1="465.4" y1="198.23" x2="477.37" y2="198.23"/><line class="k" x1="477.37" y1="198.23" x2="477.37" y2="213.67"/><line class="k" x1="477.37" y1="213.67" x2="465.4" y2="213.67"/><g class="l"><path class="k" d="M474.64,206a.69.69,0,1,0-1.37,0,.69.69,0,0,0,1.37,0"/><path class="k" d="M480.64,158.32a3.36,3.36,0,1,0-3.36,3.37,3.36,3.36,0,0,0,3.36-3.37"/></g><line class="k" x1="482.5" y1="163.57" x2="461.98" y2="163.57"/><line class="k" x1="461.98" y1="163.57" x2="461.98" y2="142.98"/><line class="k" x1="461.98" y1="142.98" x2="482.5" y2="142.98"/><g class="l"><path class="k" d="M470.56,158.32a3.36,3.36,0,1,0-3.35,3.37,3.35,3.35,0,0,0,3.35-3.37"/><path class="k" d="M470.56,148.22a3.36,3.36,0,1,0-3.35,3.37,3.36,3.36,0,0,0,3.35-3.37"/></g><line class="k" x1="461.05" y1="145.78" x2="461.05" y2="160.76"/><g class="l"><path class="k" d="M373.4,406a.67.67,0,0,0-.68-.68.68.68,0,0,0-.69.68.69.69,0,0,0,.69.69.68.68,0,0,0,.68-.69"/><path class="k" d="M325.69,404a3.08,3.08,0,1,0-3.08,3.08,3.08,3.08,0,0,0,3.08-3.08"/><path class="k" d="M325.69,413.22a3.08,3.08,0,1,0-3.08,3.09,3.09,3.09,0,0,0,3.08-3.09"/><path class="k" d="M316.46,413.22a3.08,3.08,0,1,0-3.08,3.09,3.09,3.09,0,0,0,3.08-3.09"/></g><line class="k" x1="297.99" y1="327.09" x2="297.99" y2="296.2"/><line class="k" x1="294.05" y1="327.09" x2="294.05" y2="296.2"/><line class="k" x1="297.99" y1="327.09" x2="328.77" y2="327.09"/><g class="l"><path class="k" d="M298,296.2a30.83,30.83,0,0,1,30.78,30.89"/></g><line class="k" x1="294.05" y1="327.09" x2="297.99" y2="327.09"/><line class="k" x1="297.99" y1="296.2" x2="294.05" y2="296.2"/><line class="k" x1="297.99" y1="296.2" x2="297.99" y2="294.49"/><line class="k" x1="294.05" y1="296.2" x2="294.05" y2="294.49"/><line class="k" x1="297.99" y1="328.8" x2="297.99" y2="327.09"/><line class="k" x1="294.05" y1="328.8" x2="294.05" y2="327.09"/><line class="k" x1="395.8" y1="334.64" x2="423.16" y2="334.64"/><line class="k" x1="395.8" y1="334.64" x2="395.8" y2="362.09"/><g class="l"><path class="k" d="M423.16,334.64a27.4,27.4,0,0,1-27.36,27.45"/></g><line class="k" x1="395.8" y1="332.23" x2="395.8" y2="334.64"/><line class="k" x1="423.16" y1="334.64" x2="423.16" y2="332.23"/><line class="k" x1="423.16" y1="334.64" x2="424.87" y2="334.64"/><line class="k" x1="423.16" y1="332.23" x2="424.87" y2="332.23"/><line class="k" x1="394.09" y1="334.64" x2="395.8" y2="334.64"/><line class="k" x1="394.09" y1="332.23" x2="395.8" y2="332.23"/><line class="k" x1="395.8" y1="332.23" x2="402.64" y2="332.23"/><line class="k" x1="406.41" y1="332.23" x2="407.18" y2="332.23"/><line class="k" x1="410.94" y1="332.23" x2="411.71" y2="332.23"/><line class="k" x1="415.47" y1="332.23" x2="416.32" y2="332.23"/><line class="k" x1="416.32" y1="332.23" x2="423.16" y2="332.23"/><line class="k" x1="395.8" y1="334.64" x2="395.8" y2="335.49"/><line class="k" x1="395.8" y1="335.49" x2="392.38" y2="335.49"/><line class="k" x1="392.38" y1="335.49" x2="392.38" y2="334.64"/><line class="k" x1="395.8" y1="332.23" x2="395.8" y2="331.37"/><line class="k" x1="395.8" y1="331.37" x2="392.38" y2="331.37"/><line class="k" x1="392.38" y1="331.37" x2="392.38" y2="332.23"/><line class="k" x1="423.16" y1="335.49" x2="426.58" y2="335.49"/><line class="k" x1="426.58" y1="335.49" x2="426.58" y2="334.64"/><line class="k" x1="423.16" y1="332.23" x2="423.16" y2="331.37"/><line class="k" x1="423.16" y1="331.37" x2="426.58" y2="331.37"/><line class="k" x1="426.58" y1="331.37" x2="426.58" y2="332.23"/><g class="l"><path class="k" d="M374.77,365.35a.86.86,0,1,0-.86.86.85.85,0,0,0,.86-.86"/><path class="k" d="M350,365.35a3.43,3.43,0,0,1,3.42-3.43"/><path class="k" d="M353.39,389.37a3.43,3.43,0,0,1-3.42-3.43"/><path class="k" d="M373.91,361.92a3.42,3.42,0,0,1,3.42,3.43"/><path class="k" d="M377.33,385.94a3.42,3.42,0,0,1-3.42,3.43"/><path class="k" d="M457.2,245.58a.86.86,0,1,0-1.71,0,.86.86,0,1,0,1.71,0"/></g><line class="k" x1="461.47" y1="271.32" x2="430.69" y2="271.32"/><line class="k" x1="430.69" y1="271.32" x2="430.69" y2="240.44"/><line class="k" x1="430.69" y1="240.44" x2="461.47" y2="240.44"/><line class="k" x1="461.47" y1="240.44" x2="461.47" y2="271.32"/><line class="k" x1="456.34" y1="269.61" x2="435.82" y2="269.61"/><line class="k" x1="432.4" y1="266.17" x2="432.4" y2="245.58"/><line class="k" x1="435.82" y1="242.15" x2="456.34" y2="242.15"/><line class="k" x1="459.76" y1="245.58" x2="459.76" y2="266.17"/><g class="l"><path class="k" d="M459.76,266.17a3.42,3.42,0,0,1-3.42,3.43"/><path class="k" d="M435.82,269.61a3.43,3.43,0,0,1-3.42-3.44"/><path class="k" d="M456.34,242.15a3.43,3.43,0,0,1,3.42,3.43"/><path class="k" d="M432.4,245.58a3.43,3.43,0,0,1,3.42-3.43"/></g><line class="k" x1="477.72" y1="351.11" x2="477.72" y2="270.46"/><line class="k" x1="430.69" y1="273.89" x2="434.11" y2="273.89"/><line class="k" x1="434.11" y1="273.89" x2="434.11" y2="294.49"/><line class="k" x1="434.11" y1="294.49" x2="430.69" y2="294.49"/><line class="k" x1="430.69" y1="294.49" x2="430.69" y2="293.46"/><line class="k" x1="430.69" y1="293.46" x2="433.08" y2="293.46"/><line class="k" x1="433.08" y1="293.46" x2="433.08" y2="274.92"/><line class="k" x1="433.08" y1="274.92" x2="430.69" y2="274.92"/><line class="k" x1="430.69" y1="274.92" x2="430.69" y2="273.89"/><line class="k" x1="430.69" y1="273.89" x2="434.11" y2="273.89"/><line class="k" x1="430.69" y1="294.49" x2="434.11" y2="294.49"/><line class="k" x1="430.69" y1="274.92" x2="433.08" y2="274.92"/><line class="k" x1="430.69" y1="293.46" x2="433.08" y2="293.46"/><line class="k" x1="434.11" y1="273.89" x2="434.11" y2="294.49"/><line class="k" x1="433.08" y1="273.89" x2="433.08" y2="294.49"/><line class="k" x1="430.69" y1="273.89" x2="430.69" y2="274.92"/><line class="k" x1="430.69" y1="293.46" x2="430.69" y2="294.49"/><line class="k" x1="456.34" y1="327.77" x2="456.34" y2="348.36"/><line class="k" x1="456.34" y1="348.36" x2="476.86" y2="348.36"/><line class="k" x1="476.86" y1="348.36" x2="476.86" y2="327.77"/><line class="k" x1="476.86" y1="327.77" x2="456.34" y2="327.77"/><g class="l"><path class="k" d="M472.59,338.07a6,6,0,1,0-6,6,6,6,0,0,0,6-6"/><path class="k" d="M471.56,338.07a5,5,0,1,0-5,5,5,5,0,0,0,5-5"/></g><line class="k" x1="465.75" y1="267.03" x2="465.75" y2="270.46"/><line class="k" x1="465.75" y1="239.58" x2="482.85" y2="239.58"/><line class="k" x1="462.33" y1="270.46" x2="482.85" y2="270.46"/><line class="k" x1="462.33" y1="270.46" x2="462.33" y2="239.58"/><line class="k" x1="465.75" y1="267.03" x2="465.75" y2="239.58"/><line class="k" x1="349.12" y1="340.47" x2="352.54" y2="340.47"/><line class="k" x1="352.54" y1="340.47" x2="383.32" y2="340.47"/><line class="k" x1="383.32" y1="340.47" x2="383.32" y2="355.91"/><line class="k" x1="429.83" y1="344.24" x2="429.83" y2="351.11"/><line class="k" x1="436.67" y1="351.11" x2="429.83" y2="351.11"/><line class="k" x1="429.83" y1="341.67" x2="439.24" y2="341.67"/><line class="k" x1="439.24" y1="341.67" x2="439.24" y2="351.11"/><line class="k" x1="429.83" y1="344.24" x2="436.67" y2="344.24"/><line class="k" x1="436.67" y1="344.24" x2="436.67" y2="351.11"/><line class="k" x1="465.75" y1="508.96" x2="438.38" y2="508.96"/><line class="k" x1="438.38" y1="508.96" x2="438.38" y2="506.8"/><line class="k" x1="438.38" y1="506.8" x2="465.75" y2="506.8"/><line class="k" x1="465.75" y1="506.8" x2="465.75" y2="508.96"/><g class="l"><path class="k" d="M436.67,507.88A1.71,1.71,0,1,0,435,509.6a1.71,1.71,0,0,0,1.71-1.72"/></g><line class="k" x1="352.88" y1="109.17" x2="400.76" y2="109.17"/><line class="k" x1="400.76" y1="109.17" x2="400.76" y2="112.61"/><line class="k" x1="400.76" y1="112.61" x2="352.88" y2="112.61"/><line class="k" x1="352.88" y1="112.61" x2="352.88" y2="109.17"/><g class="l"><path class="k" d="M405.89,110.89a1.71,1.71,0,1,0-1.71,1.71,1.71,1.71,0,0,0,1.71-1.71"/></g><line class="k" x1="462.33" y1="267.03" x2="482.85" y2="267.03"/><line class="k" x1="441.8" y1="93.73" x2="434.96" y2="93.73"/><line class="k" x1="431.2" y1="93.73" x2="430.43" y2="93.73"/><line class="k" x1="426.67" y1="93.73" x2="425.9" y2="93.73"/><line class="k" x1="422.14" y1="93.73" x2="417.86" y2="93.73"/><line class="k" x1="417.86" y1="93.73" x2="411.02" y2="93.73"/><line class="k" x1="429.83" y1="524.41" x2="422.99" y2="524.41"/><line class="k" x1="419.23" y1="524.41" x2="418.46" y2="524.41"/><line class="k" x1="414.7" y1="524.41" x2="413.93" y2="524.41"/><line class="k" x1="410.17" y1="524.41" x2="405.89" y2="524.41"/><line class="k" x1="405.89" y1="524.41" x2="399.05" y2="524.41"/><line class="k" x1="482.85" y1="267.03" x2="465.75" y2="267.03"/><line class="k" x1="465.75" y1="267.03" x2="465.75" y2="239.58"/><line class="k" x1="465.75" y1="239.58" x2="469.17" y2="263.6"/><line class="k" x1="469.17" y1="263.6" x2="482.85" y2="267.03"/><rect class="h" x="340.96" y="150.35" width="17.1" height="27.45"/><line class="k" x1="340.96" y1="150.35" x2="340.96" y2="177.81"/><line class="k" x1="358.07" y1="150.35" x2="340.96" y2="150.35"/><line class="k" x1="358.07" y1="177.81" x2="358.07" y2="150.35"/><line class="k" x1="340.96" y1="177.81" x2="358.06" y2="177.81"/><path class="h" d="M297.82,340.47h0Z"/><line class="k" x1="349.12" y1="340.47" x2="297.82" y2="340.47"/><rect class="h" x="477.72" y="270.46" width="5.13" height="80.64"/><line class="k" x1="477.72" y1="270.46" x2="477.72" y2="351.11"/><line class="k" x1="482.85" y1="270.46" x2="477.72" y2="270.46"/><line class="k" x1="482.85" y1="351.11" x2="482.85" y2="270.46"/><line class="k" x1="477.72" y1="351.11" x2="482.85" y2="351.11"/><rect class="h" x="430.69" y="293.46" width="2.39" height="1.03"/><line class="k" x1="433.08" y1="294.49" x2="433.08" y2="293.46"/><line class="k" x1="430.69" y1="294.49" x2="433.08" y2="294.49"/><line class="k" x1="430.69" y1="293.46" x2="430.69" y2="294.49"/><line class="k" x1="433.08" y1="293.46" x2="430.69" y2="293.46"/><rect class="h" x="433.08" y="273.89" width="1.03" height="20.59"/><line class="k" x1="433.08" y1="294.49" x2="434.11" y2="294.49"/><line class="k" x1="433.08" y1="273.89" x2="433.08" y2="294.49"/><line class="k" x1="434.11" y1="273.89" x2="433.08" y2="273.89"/><line class="k" x1="434.11" y1="294.49" x2="434.11" y2="273.89"/><rect class="h" x="430.69" y="273.89" width="2.39" height="1.03"/><line class="k" x1="430.69" y1="274.92" x2="433.08" y2="274.92"/><line class="k" x1="430.69" y1="273.89" x2="430.69" y2="274.92"/><line class="k" x1="433.08" y1="273.89" x2="430.69" y2="273.89"/><line class="k" x1="433.08" y1="274.92" x2="433.08" y2="273.89"/><polygon class="h" points="433.76 509.1 433.25 507.88 433.76 506.67 434.96 506.17 436.17 506.67 436.67 507.88 436.17 509.1 434.96 509.6 433.76 509.1"/><g class="l"><path class="k" d="M436.67,507.88a1.71,1.71,0,1,1-3.42,0"/><path class="k" d="M433.25,507.88a1.71,1.71,0,0,1,3.42,0"/></g><rect class="h" x="438.38" y="506.8" width="27.36" height="2.16"/><line class="k" x1="438.38" y1="508.96" x2="465.75" y2="508.96"/><line class="k" x1="438.38" y1="506.8" x2="438.38" y2="508.96"/><line class="k" x1="465.75" y1="506.8" x2="438.38" y2="506.8"/><line class="k" x1="465.75" y1="508.96" x2="465.75" y2="506.8"/><polygon class="h" points="402.98 112.1 402.47 110.89 402.98 109.68 404.18 109.17 405.39 109.68 405.89 110.89 405.39 112.1 404.18 112.6 402.98 112.1"/><g class="l"><path class="k" d="M405.89,110.89a1.71,1.71,0,1,1-3.42,0"/><path class="k" d="M402.47,110.89a1.71,1.71,0,1,1,3.42,0"/></g><rect class="h" x="352.88" y="109.17" width="47.88" height="3.43"/><line class="k" x1="400.76" y1="109.17" x2="352.88" y2="109.17"/><line class="k" x1="400.76" y1="112.61" x2="400.76" y2="109.17"/><line class="k" x1="352.88" y1="112.61" x2="400.76" y2="112.61"/><line class="k" x1="352.88" y1="109.17" x2="352.88" y2="112.61"/><polygon class="h" points="424.08 172.54 421.25 170.37 417.94 169 414.4 168.54 418.24 161.89 419.49 160.63 421.2 160.17 422.92 160.63 428.84 164.05 430.09 165.3 430.55 167.02 430.09 168.74 426.25 175.38 424.08 172.54"/><polygon class="h" points="393.13 188.69 391.89 187.44 391.43 185.72 391.44 178.87 391.9 177.15 393.15 175.89 394.87 175.43 402.53 175.42 401.15 178.73 400.68 182.28 401.14 185.83 402.51 189.14 394.85 189.15 393.13 188.69"/><polygon class="h" points="419.43 203.87 418.17 202.62 414.36 195.98 417.9 195.51 421.21 194.13 424.05 191.95 426.23 189.1 430.05 195.74 430.5 197.45 430.04 199.17 428.79 200.43 422.85 203.86 421.14 204.32 419.43 203.87"/><polygon class="h" points="410.81 195.52 407.51 194.15 404.68 191.98 402.51 189.14 401.14 185.83 400.68 182.28 401.15 178.73 402.53 175.42 404.71 172.57 407.55 170.39 410.85 169.01 414.4 168.54 417.94 169 421.25 170.37 424.08 172.54 426.25 175.38 427.62 178.69 428.08 182.24 427.61 185.79 426.23 189.1 424.05 191.95 421.21 194.13 417.9 195.51 414.36 195.98 410.81 195.52"/><line class="k" x1="427.61" y1="178.69" x2="426.25" y2="175.38"/><line class="k" x1="428.08" y1="182.24" x2="427.61" y2="178.69"/><line class="k" x1="427.6" y1="185.79" x2="428.08" y2="182.24"/><line class="k" x1="426.23" y1="189.1" x2="427.6" y2="185.79"/><line class="k" x1="424.05" y1="191.95" x2="426.23" y2="189.1"/><line class="k" x1="421.21" y1="194.13" x2="424.05" y2="191.95"/><line class="k" x1="417.9" y1="195.51" x2="421.21" y2="194.13"/><line class="k" x1="414.36" y1="195.98" x2="417.9" y2="195.51"/><line class="k" x1="410.81" y1="195.52" x2="414.36" y2="195.98"/><line class="k" x1="407.51" y1="194.15" x2="410.81" y2="195.52"/><line class="k" x1="404.68" y1="191.98" x2="407.51" y2="194.15"/><line class="k" x1="402.51" y1="189.14" x2="404.68" y2="191.98"/><line class="k" x1="401.14" y1="185.83" x2="402.51" y2="189.14"/><line class="k" x1="400.68" y1="182.28" x2="401.14" y2="185.83"/><line class="k" x1="401.15" y1="178.73" x2="400.68" y2="182.28"/><line class="k" x1="402.53" y1="175.42" x2="401.15" y2="178.73"/><line class="k" x1="404.71" y1="172.57" x2="402.53" y2="175.42"/><line class="k" x1="407.55" y1="170.39" x2="404.71" y2="172.57"/><line class="k" x1="410.85" y1="169.01" x2="407.55" y2="170.39"/><line class="k" x1="414.4" y1="168.54" x2="410.85" y2="169.01"/><line class="k" x1="417.94" y1="169" x2="414.4" y2="168.54"/><line class="k" x1="421.25" y1="170.37" x2="417.94" y2="169"/><line class="k" x1="424.08" y1="172.54" x2="421.25" y2="170.37"/><line class="k" x1="426.25" y1="175.38" x2="424.08" y2="172.54"/><g class="l"><path class="k" d="M421.21,194.13a13.69,13.69,0,1,1-13.66-23.74"/><path class="k" d="M407.55,170.39a13.69,13.69,0,1,1,13.66,23.74"/></g><line class="k" x1="422.06" y1="162.12" x2="427.98" y2="165.54"/><line class="k" x1="430.09" y1="168.73" x2="426.25" y2="175.38"/><line class="k" x1="422.92" y1="160.63" x2="428.84" y2="164.05"/><line class="k" x1="414.4" y1="168.54" x2="418.24" y2="161.89"/><line class="k" x1="393.14" y1="185.72" x2="393.15" y2="178.86"/><line class="k" x1="394.87" y1="175.43" x2="402.53" y2="175.42"/><line class="k" x1="391.43" y1="185.72" x2="391.44" y2="178.87"/><line class="k" x1="402.51" y1="189.14" x2="394.85" y2="189.15"/><line class="k" x1="427.94" y1="198.94" x2="422" y2="202.38"/><line class="k" x1="418.17" y1="202.62" x2="414.36" y2="195.98"/><line class="k" x1="428.79" y1="200.42" x2="422.85" y2="203.86"/><line class="k" x1="426.23" y1="189.1" x2="430.05" y2="195.74"/><g class="l"><path class="k" d="M428,165.54a1.68,1.68,0,0,1,.62.62,1.73,1.73,0,0,1,0,1.72"/><path class="k" d="M419.72,162.75a1.7,1.7,0,0,1,2.34-.63"/><path class="k" d="M428.84,164.05a3.29,3.29,0,0,1,1.25,1.26,3.42,3.42,0,0,1,0,3.43"/><path class="k" d="M418.24,161.89a3.43,3.43,0,0,1,4.67-1.26"/><path class="k" d="M393.15,178.86a1.71,1.71,0,0,1,.86-1.48,1.61,1.61,0,0,1,.86-.23"/><path class="k" d="M394.85,187.43a1.69,1.69,0,0,1-1.48-.85,1.73,1.73,0,0,1-.23-.86"/><path class="k" d="M391.44,178.86a3.44,3.44,0,0,1,3.43-3.43"/><path class="k" d="M394.85,189.15a3.4,3.4,0,0,1-3.42-3.43"/><path class="k" d="M422,202.38a1.71,1.71,0,0,1-2.34-.63"/><path class="k" d="M428.56,196.6a1.7,1.7,0,0,1-.63,2.34"/><path class="k" d="M422.85,203.86a3.41,3.41,0,0,1-4.67-1.24"/><path class="k" d="M430.05,195.74a3.45,3.45,0,0,1-1.26,4.69"/></g><polygon class="h" points="305.74 201.83 305.25 201.63 305.05 201.14 305.05 114.32 361.48 114.32 361.48 115.35 361.79 114.62 362.51 114.32 380.3 114.32 382.91 114.84 385.13 116.33 386.61 118.56 387.14 121.18 387.14 136.63 386.61 139.25 385.13 141.48 382.91 142.97 380.3 143.49 362.51 143.49 361.78 143.38 361.45 142.73 361.08 143.28 360.46 143.49 335.15 143.49 334.43 143.19 334.13 142.46 333.82 143.19 333.1 143.49 333.82 143.79 334.13 144.52 334.13 171.63 333.82 172.36 333.1 172.66 333.82 172.96 334.13 173.69 334.13 195.65 334.15 196.13 333.89 196.53 333.44 196.68 333.92 196.88 334.13 197.37 334.13 198.4 333.67 200.11 332.41 201.37 330.7 201.83 305.74 201.83"/><line class="k" x1="334.12" y1="197.37" x2="334.12" y2="198.4"/><line class="k" x1="330.7" y1="201.83" x2="305.74" y2="201.83"/><line class="k" x1="305.05" y1="201.14" x2="305.05" y2="197.37"/><line class="k" x1="305.74" y1="196.68" x2="333.44" y2="196.68"/><line class="k" x1="305.05" y1="197.37" x2="305.05" y2="172.66"/><line class="k" x1="305.05" y1="172.66" x2="307.45" y2="172.66"/><line class="k" x1="313.9" y1="172.66" x2="315.95" y2="172.66"/><line class="k" x1="334.12" y1="173.69" x2="334.12" y2="195.65"/><line class="k" x1="333.1" y1="196.68" x2="315.95" y2="196.68"/><line class="k" x1="315.95" y1="172.66" x2="333.1" y2="172.66"/><line class="k" x1="306.42" y1="173.69" x2="306.42" y2="195.65"/><line class="k" x1="307.45" y1="196.68" x2="313.9" y2="196.68"/><line class="k" x1="313.9" y1="172.66" x2="307.45" y2="172.66"/><line class="k" x1="305.05" y1="143.49" x2="305.05" y2="172.66"/><line class="k" x1="305.05" y1="143.49" x2="307.45" y2="143.49"/><line class="k" x1="305.05" y1="172.66" x2="307.45" y2="172.66"/><line class="k" x1="313.9" y1="143.49" x2="315.95" y2="143.49"/><line class="k" x1="313.9" y1="172.66" x2="315.95" y2="172.66"/><line class="k" x1="334.12" y1="171.63" x2="334.12" y2="144.52"/><line class="k" x1="333.1" y1="143.49" x2="315.95" y2="143.49"/><line class="k" x1="315.95" y1="172.66" x2="333.1" y2="172.66"/><line class="k" x1="306.42" y1="171.63" x2="306.42" y2="144.52"/><line class="k" x1="307.45" y1="143.49" x2="313.9" y2="143.49"/><line class="k" x1="313.9" y1="172.66" x2="307.45" y2="172.66"/><line class="k" x1="387.14" y1="136.63" x2="387.14" y2="121.18"/><line class="k" x1="380.3" y1="114.32" x2="362.51" y2="114.32"/><line class="k" x1="361.49" y1="115.35" x2="361.49" y2="142.46"/><line class="k" x1="362.51" y1="143.49" x2="380.3" y2="143.49"/><line class="k" x1="315.95" y1="143.49" x2="333.1" y2="143.49"/><line class="k" x1="334.12" y1="142.46" x2="334.12" y2="125.26"/><line class="k" x1="306.42" y1="115.69" x2="333.1" y2="115.69"/><line class="k" x1="334.12" y1="116.72" x2="334.12" y2="123.2"/><line class="k" x1="313.9" y1="143.49" x2="307.45" y2="143.49"/><line class="k" x1="306.42" y1="142.46" x2="306.42" y2="115.69"/><line class="k" x1="334.12" y1="114.32" x2="305.05" y2="114.32"/><line class="k" x1="305.05" y1="114.32" x2="305.05" y2="143.49"/><line class="k" x1="334.12" y1="114.32" x2="334.12" y2="116.72"/><line class="k" x1="307.45" y1="143.49" x2="305.05" y2="143.49"/><line class="k" x1="313.9" y1="143.49" x2="315.95" y2="143.49"/><line class="k" x1="334.12" y1="123.2" x2="334.12" y2="125.26"/><line class="k" x1="361.49" y1="114.32" x2="334.12" y2="114.32"/><line class="k" x1="361.49" y1="114.32" x2="361.49" y2="116.72"/><line class="k" x1="334.12" y1="114.32" x2="334.12" y2="116.72"/><line class="k" x1="361.49" y1="123.2" x2="361.49" y2="125.26"/><line class="k" x1="334.12" y1="123.2" x2="334.12" y2="125.26"/><line class="k" x1="335.15" y1="143.49" x2="360.46" y2="143.49"/><line class="k" x1="361.49" y1="142.46" x2="361.49" y2="125.26"/><line class="k" x1="334.12" y1="125.26" x2="334.12" y2="142.46"/><line class="k" x1="335.15" y1="115.69" x2="360.46" y2="115.69"/><line class="k" x1="361.49" y1="116.72" x2="361.49" y2="123.2"/><line class="k" x1="334.12" y1="123.2" x2="334.12" y2="116.72"/><g class="l"><path class="k" d="M305.74,201.83a.69.69,0,0,1-.69-.69"/><path class="k" d="M305.05,197.37a.69.69,0,0,1,.69-.69"/><path class="k" d="M333.44,196.68a.68.68,0,0,1,.68.69"/><path class="k" d="M334.12,195.65a1,1,0,0,1-1,1"/><path class="k" d="M333.1,172.66a1,1,0,0,1,1,1"/><path class="k" d="M333.1,143.49a1,1,0,0,1,1,1"/><path class="k" d="M334.12,171.63a1,1,0,0,1-1,1"/><path class="k" d="M361.49,115.35a1,1,0,0,1,1-1"/><path class="k" d="M362.51,143.49a1,1,0,0,1-1-1"/><path class="k" d="M334.12,142.46a1,1,0,0,1-1,1"/><path class="k" d="M361.49,142.46a1,1,0,0,1-1,1"/><path class="k" d="M335.15,143.49a1,1,0,0,1-1-1"/><path class="k" d="M387.14,136.63a6.85,6.85,0,0,1-6.84,6.86"/><path class="k" d="M380.3,114.32a6.85,6.85,0,0,1,6.84,6.86"/><path class="k" d="M360.46,120.5a51.16,51.16,0,0,1-25.31,0"/><path class="k" d="M311.21,144.52a51.66,51.66,0,0,1,0,27.11"/><path class="k" d="M311.21,173.69a51.67,51.67,0,0,1,0,22"/><path class="k" d="M311.21,142.46a17.52,17.52,0,0,1,21.89-22"/><path class="k" d="M334.12,198.4a3.43,3.43,0,0,1-3.42,3.43"/><path class="k" d="M308,475.41a6.68,6.68,0,0,1,0-9.91"/><path class="k" d="M322.1,345.62a.51.51,0,0,1,.51.51"/><path class="k" d="M322.61,360.2a.51.51,0,0,1-.51.52"/><path class="k" d="M304.31,360.72a.51.51,0,0,1-.51-.52"/><path class="k" d="M303.8,346.13a.51.51,0,0,1,.51-.51"/><path class="k" d="M321.07,349.39a.52.52,0,0,1,.52.52"/><path class="k" d="M321.59,359.17a.52.52,0,0,1-.52.52"/><path class="k" d="M305.34,359.69a.51.51,0,0,1-.51-.52"/><path class="k" d="M304.83,349.91a.51.51,0,0,1,.51-.52"/><path class="k" d="M312.35,347.68a.86.86,0,1,1,1.71,0"/><path class="k" d="M313.92,349.11a.57.57,0,0,1-.11.33"/><path class="k" d="M313.59,351.26a.39.39,0,0,1-.38.33.37.37,0,0,1-.38-.33"/><path class="k" d="M312.6,349.44a.76.76,0,0,1-.11-.33"/><path class="k" d="M313.67,349a.47.47,0,1,1-.93,0"/><path class="k" d="M313.81,349.44a.72.72,0,0,1-1.21,0"/><path class="k" d="M346.72,475.56a1.72,1.72,0,0,1-1.71-1.72"/><path class="k" d="M345,467a1.72,1.72,0,0,1,1.71-1.71"/><path class="k" d="M346.72,477.28a3.44,3.44,0,0,1-3.42-3.44"/><path class="k" d="M343.3,467a3.43,3.43,0,0,1,3.42-3.43"/><path class="k" d="M364.51,447.42a1.7,1.7,0,0,1,1.71-1.71"/><path class="k" d="M373.06,445.71a1.71,1.71,0,0,1,1.71,1.71"/><path class="k" d="M362.8,447.42a3.42,3.42,0,0,1,3.42-3.43"/><path class="k" d="M373.06,444a3.42,3.42,0,0,1,3.42,3.43"/><path class="k" d="M366.22,495.12a1.72,1.72,0,0,1-1.71-1.71"/><path class="k" d="M374.77,493.41a1.72,1.72,0,0,1-1.71,1.71"/><path class="k" d="M366.22,496.84a3.43,3.43,0,0,1-3.42-3.43"/><path class="k" d="M376.48,493.41a3.43,3.43,0,0,1-3.42,3.43"/></g><line class="k" x1="383.32" y1="456.69" x2="383.32" y2="484.14"/><g class="l"><path class="k" d="M341.76,356.94a5.56,5.56,0,0,1-2.22,4.46"/><path class="k" d="M331.33,361.4a5.56,5.56,0,0,1-2.22-4.46"/><path class="k" d="M339.54,361.4a6.8,6.8,0,0,1-8.21,0"/><path class="k" d="M331.33,361.4a5.56,5.56,0,0,1-2.22-4.46"/><path class="k" d="M335.44,362.78a6.87,6.87,0,0,1-4.11-1.38"/><path class="k" d="M332.56,359.76a3.54,3.54,0,0,1-1.4-2.82"/><path class="k" d="M338.31,359.76a4.79,4.79,0,0,1-5.75,0"/><path class="k" d="M339.71,356.94a3.54,3.54,0,0,1-1.4,2.82"/></g><polygon class="h" points="421.29 476.37 418.67 475.84 416.45 474.35 414.96 472.13 414.44 469.5 414.44 421.46 414.96 418.83 416.45 416.61 418.67 415.12 421.29 414.59 472.59 414.59 482.85 414.59 482.85 476.37 421.29 476.37"/><rect class="h" x="472.59" y="476.37" width="10.26" height="12.01"/><rect class="h" x="472.59" y="402.58" width="10.26" height="12.01"/><line class="k" x1="471.47" y1="443.54" x2="474.43" y2="442.71"/><line class="k" x1="471.47" y1="472.35" x2="474.43" y2="471.53"/><line class="k" x1="414.44" y1="421.46" x2="414.44" y2="469.5"/><line class="k" x1="421.28" y1="476.36" x2="482.85" y2="476.36"/><line class="k" x1="482.85" y1="476.36" x2="482.85" y2="414.59"/><line class="k" x1="482.85" y1="414.59" x2="421.28" y2="414.59"/><line class="k" x1="482.85" y1="476.36" x2="482.85" y2="488.37"/><line class="k" x1="482.85" y1="488.37" x2="472.59" y2="488.37"/><line class="k" x1="472.59" y1="488.37" x2="472.59" y2="476.36"/><line class="k" x1="472.59" y1="476.36" x2="482.85" y2="476.36"/><line class="k" x1="482.85" y1="402.58" x2="482.85" y2="414.59"/><line class="k" x1="482.85" y1="414.59" x2="472.59" y2="414.59"/><line class="k" x1="472.59" y1="414.59" x2="472.59" y2="402.58"/><line class="k" x1="472.59" y1="402.58" x2="482.85" y2="402.58"/><line class="k" x1="460.09" y1="476.36" x2="460.09" y2="414.59"/><line class="k" x1="454.96" y1="476.36" x2="454.96" y2="414.59"/><g class="l"><path class="k" d="M465.27,448.08a95.26,95.26,0,0,1,.34,22.37"/><path class="k" d="M467.5,472.67h-.1a1.84,1.84,0,0,1-1.83-1.84,1.72,1.72,0,0,1,0-.39"/><path class="k" d="M471.47,472.35a14.64,14.64,0,0,1-3.16.35l-.81,0"/><path class="k" d="M479.11,472.54c-.82,0-1.65.06-2.47.06-1.73,0-3.45-.08-5.17-.25"/><path class="k" d="M479.6,472.09a.25.25,0,0,1,0,.08.38.38,0,0,1-.39.39.23.23,0,0,1-.11,0"/><path class="k" d="M479.6,472.09q-.56-7.36-.56-14.76c0-3.11.08-6.21.23-9.32"/><path class="k" d="M478,446.9a1.12,1.12,0,0,1,.31,0,1,1,0,0,1,1,1,1.5,1.5,0,0,1,0,.2"/><path class="k" d="M478,446.9a45.29,45.29,0,0,1-11.78.18"/><path class="k" d="M465.27,448.08a.93.93,0,0,1,0-.24.79.79,0,0,1,.79-.79l.21,0"/><path class="k" d="M421.28,476.36a6.85,6.85,0,0,1-6.84-6.86"/><path class="k" d="M414.44,421.46a6.86,6.86,0,0,1,6.84-6.87"/><path class="k" d="M465.27,419.27a95.26,95.26,0,0,1,.34,22.37"/><path class="k" d="M467.5,443.86h-.1a1.84,1.84,0,0,1-1.83-1.84,1.67,1.67,0,0,1,0-.39"/><path class="k" d="M471.47,443.54a14.63,14.63,0,0,1-3.16.34c-.27,0-.54,0-.81,0"/><path class="k" d="M479.11,443.73c-.82,0-1.65.06-2.47.06-1.73,0-3.45-.09-5.17-.25"/><path class="k" d="M479.6,443.28a.19.19,0,0,1,0,.08.39.39,0,0,1-.39.39l-.11,0"/><path class="k" d="M479.6,443.28q-.56-7.38-.56-14.76,0-4.66.23-9.32"/><path class="k" d="M478,418.09a1.12,1.12,0,0,1,.31,0,1,1,0,0,1,1,.95,1.49,1.49,0,0,1,0,.21"/><path class="k" d="M478,418.09a44.63,44.63,0,0,1-11.78.17"/><path class="k" d="M465.27,419.27a1,1,0,0,1,0-.24.79.79,0,0,1,.79-.8.52.52,0,0,1,.21,0"/></g><rect class="h" x="426.41" y="353.51" width="28.22" height="20.59"/><line class="k" x1="426.41" y1="374.1" x2="454.63" y2="374.1"/><line class="k" x1="454.63" y1="374.1" x2="454.63" y2="353.51"/><line class="k" x1="454.63" y1="353.51" x2="426.41" y2="353.51"/><line class="k" x1="426.41" y1="353.51" x2="426.41" y2="374.1"/><line class="k" x1="427.83" y1="363.81" x2="453.22" y2="363.81"/><line class="k" x1="429.13" y1="369.86" x2="431.52" y2="357.53"/><line class="k" x1="431.82" y1="370.48" x2="432.81" y2="359"/><line class="k" x1="435.5" y1="356.38" x2="436.31" y2="368.98"/><line class="k" x1="439.66" y1="358.03" x2="438.56" y2="368.98"/><line class="k" x1="441.18" y1="357.4" x2="441.18" y2="370.88"/><line class="k" x1="445.47" y1="357.35" x2="444.45" y2="370.67"/><line class="k" x1="447.07" y1="357.57" x2="447.07" y2="369.74"/><line class="k" x1="451.31" y1="357.45" x2="452.12" y2="369.92"/><line class="k" x1="450.29" y1="358.29" x2="449.46" y2="368.85"/><rect class="h" x="454.63" y="353.51" width="28.22" height="20.59"/><line class="k" x1="454.63" y1="374.1" x2="482.85" y2="374.1"/><line class="k" x1="482.85" y1="374.1" x2="482.85" y2="353.51"/><line class="k" x1="482.85" y1="353.51" x2="454.63" y2="353.51"/><line class="k" x1="454.63" y1="353.51" x2="454.63" y2="374.1"/><line class="k" x1="456.04" y1="363.81" x2="481.44" y2="363.81"/><line class="k" x1="457.35" y1="369.86" x2="459.74" y2="357.53"/><line class="k" x1="460.04" y1="370.48" x2="461.03" y2="359"/><line class="k" x1="463.71" y1="356.38" x2="464.53" y2="368.98"/><line class="k" x1="467.88" y1="358.03" x2="466.78" y2="368.98"/><line class="k" x1="469.4" y1="357.4" x2="469.4" y2="370.88"/><line class="k" x1="473.68" y1="357.35" x2="472.66" y2="370.67"/><line class="k" x1="475.29" y1="357.57" x2="475.29" y2="369.74"/><line class="k" x1="479.52" y1="357.45" x2="480.33" y2="369.92"/><line class="k" x1="478.5" y1="358.29" x2="477.68" y2="368.85"/><polygon class="h" points="463.18 319.37 462.82 319.21 462.67 318.85 462.67 301.01 462.82 300.64 463.18 300.49 477.2 300.49 477.57 300.64 477.72 301.01 477.72 318.85 477.57 319.21 477.2 319.37 463.18 319.37"/><line class="k" x1="477.72" y1="301.01" x2="477.72" y2="318.85"/><g class="l"><path class="k" d="M477.72,318.85a.51.51,0,0,1-.52.51"/></g><line class="k" x1="477.2" y1="319.36" x2="463.18" y2="319.36"/><g class="l"><path class="k" d="M463.18,319.36a.51.51,0,0,1-.51-.51"/></g><line class="k" x1="462.67" y1="318.85" x2="462.67" y2="301.01"/><g class="l"><path class="k" d="M462.67,301a.51.51,0,0,1,.51-.52"/></g><line class="k" x1="463.18" y1="300.49" x2="477.2" y2="300.49"/><g class="l"><path class="k" d="M477.2,300.49a.52.52,0,0,1,.52.52"/></g><line class="k" x1="473.95" y1="302.03" x2="473.95" y2="317.82"/><line class="k" x1="473.44" y1="318.33" x2="464.21" y2="318.33"/><line class="k" x1="463.69" y1="317.82" x2="463.69" y2="302.03"/><line class="k" x1="464.21" y1="301.52" x2="473.44" y2="301.52"/><g class="l"><path class="k" d="M474,317.82a.52.52,0,0,1-.51.52"/><path class="k" d="M464.21,318.33a.51.51,0,0,1-.52-.51"/><path class="k" d="M463.69,302a.51.51,0,0,1,.52-.51"/><path class="k" d="M473.44,301.52a.51.51,0,0,1,.51.51"/></g><polygon class="h" points="474.23 310.65 473.91 310.54 472.09 310.31 471.85 310.18 471.76 309.93 471.85 309.67 472.09 309.55 473.91 309.32 474.23 309.21 475.67 309.07 476.27 309.32 476.52 309.93 476.27 310.54 475.67 310.79 474.23 310.65"/><g class="l"><path class="k" d="M475.66,309.07a.86.86,0,1,1,0,1.72"/></g><line class="k" x1="474.23" y1="310.65" x2="475.66" y2="310.78"/><g class="l"><path class="k" d="M474.23,310.65a.63.63,0,0,1-.32-.12"/></g><line class="k" x1="472.09" y1="310.31" x2="473.91" y2="310.53"/><g class="l"><path class="k" d="M472.09,310.31a.39.39,0,0,1-.33-.38.37.37,0,0,1,.33-.38"/></g><line class="k" x1="473.91" y1="309.32" x2="472.09" y2="309.55"/><g class="l"><path class="k" d="M473.91,309.32a.62.62,0,0,1,.32-.11"/></g><line class="k" x1="475.66" y1="309.07" x2="474.23" y2="309.21"/><line class="k" x1="474.81" y1="310.39" x2="474.3" y2="310.39"/><line class="k" x1="474.3" y1="309.46" x2="474.81" y2="309.46"/><line class="k" x1="474.81" y1="309.46" x2="474.81" y2="310.39"/><g class="l"><path class="k" d="M474.3,310.39a.47.47,0,0,1,0-.93"/><path class="k" d="M473.91,310.53a.71.71,0,0,1,0-1.21"/></g><polygon class="h" points="466.43 292.25 464.74 291.99 463.21 291.22 461.98 290.02 460.97 288.07 460.62 285.91 460.97 283.74 461.98 281.79 463.21 280.59 464.74 279.82 466.43 279.56 477.72 279.56 477.72 292.25 466.43 292.25"/><line class="k" x1="477.72" y1="292.25" x2="466.43" y2="292.25"/><line class="k" x1="477.72" y1="292.25" x2="477.72" y2="279.56"/><line class="k" x1="477.72" y1="279.56" x2="466.43" y2="279.56"/><line class="k" x1="473.61" y1="290.2" x2="466.43" y2="290.2"/><line class="k" x1="473.61" y1="281.62" x2="466.43" y2="281.62"/><line class="k" x1="473.61" y1="281.62" x2="473.61" y2="290.2"/><g class="l"><path class="k" d="M466.43,292.25A5.54,5.54,0,0,1,462,290"/><path class="k" d="M462,281.79a5.54,5.54,0,0,1,4.45-2.23"/><path class="k" d="M462,290a6.91,6.91,0,0,1,0-8.23"/><path class="k" d="M462,281.79a5.54,5.54,0,0,1,4.45-2.23"/><path class="k" d="M460.62,285.91a6.9,6.9,0,0,1,1.36-4.12"/><path class="k" d="M463.63,283a3.5,3.5,0,0,1,2.8-1.4"/><path class="k" d="M463.63,288.79a4.82,4.82,0,0,1,0-5.77"/><path class="k" d="M466.43,290.2a3.51,3.51,0,0,1-2.8-1.41"/></g><rect class="h" x="302.26" y="270.46" width="42.75" height="20.59"/><line class="k" x1="302.26" y1="291.05" x2="345.01" y2="291.05"/><line class="k" x1="345.01" y1="291.05" x2="345.01" y2="270.46"/><line class="k" x1="345.01" y1="270.46" x2="302.26" y2="270.46"/><line class="k" x1="302.26" y1="270.46" x2="302.26" y2="291.05"/><line class="k" x1="304.4" y1="280.76" x2="342.88" y2="280.76"/><line class="k" x1="306.38" y1="286.81" x2="310" y2="274.48"/><line class="k" x1="310.46" y1="287.43" x2="311.96" y2="275.95"/><line class="k" x1="316.03" y1="273.34" x2="317.26" y2="285.93"/><line class="k" x1="322.33" y1="274.99" x2="320.67" y2="285.93"/><line class="k" x1="324.63" y1="274.36" x2="324.63" y2="287.84"/><line class="k" x1="331.13" y1="274.3" x2="329.59" y2="287.62"/><line class="k" x1="333.56" y1="274.52" x2="333.56" y2="286.69"/><line class="k" x1="339.97" y1="274.4" x2="341.2" y2="286.88"/><line class="k" x1="338.43" y1="275.25" x2="337.18" y2="285.8"/><rect class="h" x="345.01" y="270.46" width="42.75" height="20.59"/><line class="k" x1="345.01" y1="291.05" x2="387.77" y2="291.05"/><line class="k" x1="387.77" y1="291.05" x2="387.77" y2="270.46"/><line class="k" x1="387.77" y1="270.46" x2="345.01" y2="270.46"/><line class="k" x1="345.01" y1="270.46" x2="345.01" y2="291.05"/><line class="k" x1="347.15" y1="280.76" x2="385.63" y2="280.76"/><line class="k" x1="349.13" y1="286.81" x2="352.75" y2="274.48"/><line class="k" x1="353.21" y1="287.43" x2="354.71" y2="275.95"/><line class="k" x1="358.78" y1="273.34" x2="360.01" y2="285.93"/><line class="k" x1="365.09" y1="274.99" x2="363.42" y2="285.93"/><line class="k" x1="367.38" y1="274.36" x2="367.38" y2="287.84"/><line class="k" x1="373.88" y1="274.3" x2="372.34" y2="287.62"/><line class="k" x1="376.32" y1="274.52" x2="376.32" y2="286.69"/><line class="k" x1="382.72" y1="274.4" x2="383.96" y2="286.88"/><line class="k" x1="381.18" y1="275.25" x2="379.93" y2="285.8"/><polygon class="h" points="340.71 262.16 337.09 261.12 334.81 261.12 327.02 259.21 327.02 257.31 337.68 257.31 339.36 255.94 341.48 255.2 343.75 255.2 345.87 255.94 347.55 257.31 358.21 257.31 358.21 259.21 350.41 261.12 348.14 261.12 344.51 262.16 340.71 262.16"/><line class="k" x1="358.21" y1="257.31" x2="347.55" y2="257.31"/><line class="k" x1="358.21" y1="259.21" x2="358.21" y2="257.31"/><line class="k" x1="350.41" y1="261.12" x2="358.21" y2="259.21"/><line class="k" x1="348.14" y1="261.12" x2="350.41" y2="261.12"/><line class="k" x1="344.51" y1="262.16" x2="348.14" y2="261.12"/><line class="k" x1="340.71" y1="262.16" x2="344.51" y2="262.16"/><line class="k" x1="337.09" y1="261.12" x2="340.71" y2="262.16"/><line class="k" x1="334.81" y1="261.12" x2="337.09" y2="261.12"/><line class="k" x1="327.02" y1="259.21" x2="334.81" y2="261.12"/><line class="k" x1="327.02" y1="257.31" x2="327.02" y2="259.21"/><line class="k" x1="337.67" y1="257.31" x2="327.02" y2="257.31"/><line class="k" x1="339.36" y1="255.94" x2="337.67" y2="257.31"/><line class="k" x1="341.48" y1="255.2" x2="339.36" y2="255.94"/><line class="k" x1="343.74" y1="255.2" x2="341.48" y2="255.2"/><line class="k" x1="345.87" y1="255.94" x2="343.75" y2="255.2"/><line class="k" x1="347.55" y1="257.31" x2="345.87" y2="255.94"/><line class="k" x1="358.21" y1="257.31" x2="327.02" y2="257.31"/><line class="k" x1="334.81" y1="261.12" x2="350.41" y2="261.12"/><line class="k" x1="358.21" y1="259.21" x2="358.21" y2="257.31"/><line class="k" x1="329.1" y1="258.07" x2="331.18" y2="258.07"/><line class="k" x1="331.18" y1="258.07" x2="331.18" y2="258.55"/><line class="k" x1="331.18" y1="258.55" x2="329.1" y2="258.55"/><line class="k" x1="329.1" y1="258.55" x2="329.1" y2="258.07"/><line class="k" x1="331.7" y1="258.07" x2="333.77" y2="258.07"/><line class="k" x1="333.77" y1="258.07" x2="333.77" y2="258.55"/><line class="k" x1="333.77" y1="258.55" x2="331.7" y2="258.55"/><line class="k" x1="331.7" y1="258.55" x2="331.7" y2="258.07"/><line class="k" x1="358.21" y1="259.21" x2="327.02" y2="259.21"/><line class="k" x1="334.3" y1="258.55" x2="334.3" y2="258.07"/><line class="k" x1="334.3" y1="258.07" x2="335.34" y2="258.07"/><line class="k" x1="335.33" y1="258.07" x2="335.33" y2="258.55"/><line class="k" x1="335.33" y1="258.55" x2="334.29" y2="258.55"/><g class="l"><path class="k" d="M337.67,257.31a6.65,6.65,0,0,1,9.88,0"/></g><line class="k" x1="302.26" y1="292.77" x2="302.26" y2="299.63"/><line class="k" x1="302.26" y1="303.41" x2="302.26" y2="304.18"/><line class="k" x1="302.26" y1="307.95" x2="302.26" y2="308.73"/><line class="k" x1="302.26" y1="312.5" x2="302.26" y2="319.36"/><line class="k" x1="302.26" y1="323.14" x2="302.26" y2="323.65"/><line class="k" x1="302.26" y1="323.65" x2="302.26" y2="330.52"/><line class="k" x1="469.92" y1="229.26" x2="469.92" y2="223.51"/><line class="k" x1="469.92" y1="223.51" x2="472.25" y2="225.39"/><line class="k" x1="472.25" y1="225.39" x2="474.58" y2="223.51"/><line class="k" x1="474.58" y1="223.51" x2="474.58" y2="229.26"/><line class="k" x1="298.16" y1="42.26" x2="443.51" y2="42.26"/><line class="k" x1="443.51" y1="42.26" x2="443.51" y2="93.73"/><line class="k" x1="469.17" y1="524.41" x2="469.17" y2="579.31"/><line class="k" x1="467.46" y1="524.41" x2="467.46" y2="577.6"/><line class="k" x1="467.46" y1="577.6" x2="377.16" y2="577.6"/><line class="k" x1="298.16" y1="40.54" x2="445.22" y2="40.54"/><line class="k" x1="445.22" y1="40.54" x2="445.22" y2="93.73"/><line class="k" x1="298.16" y1="38.82" x2="446.94" y2="38.82"/><line class="k" x1="446.93" y1="38.82" x2="446.93" y2="93.73"/><g class="l"><path d="M313.85,377.52a6,6,0,0,1,.25-1.93,2.37,2.37,0,0,1,.72-1.12,1.9,1.9,0,0,1,1.22-.4,2,2,0,0,1,.95.22,1.92,1.92,0,0,1,.67.63,3.38,3.38,0,0,1,.42,1,6.82,6.82,0,0,1,.15,1.6,6.22,6.22,0,0,1-.24,1.91,2.42,2.42,0,0,1-.73,1.13A1.88,1.88,0,0,1,316,381a1.84,1.84,0,0,1-1.52-.69A4.41,4.41,0,0,1,313.85,377.52Zm.85,0a4.24,4.24,0,0,0,.39,2.21,1.12,1.12,0,0,0,1,.54,1.14,1.14,0,0,0,1-.55,6.59,6.59,0,0,0,0-4.41,1.14,1.14,0,0,0-1-.55,1.07,1.07,0,0,0-.91.48A4.35,4.35,0,0,0,314.7,377.52Z"/><path d="M319,379.06l.83-.11a1.74,1.74,0,0,0,.48,1,1.19,1.19,0,0,0,.83.31,1.34,1.34,0,0,0,1-.4,1.39,1.39,0,0,0,.4-1,1.28,1.28,0,0,0-1.32-1.31,2.42,2.42,0,0,0-.58.09l.09-.73h.13a1.7,1.7,0,0,0,.95-.27,1,1,0,0,0,.42-.85,1,1,0,0,0-.3-.76,1.1,1.1,0,0,0-.8-.3,1.14,1.14,0,0,0-.8.31,1.52,1.52,0,0,0-.41.91l-.82-.15a2.19,2.19,0,0,1,.68-1.29,2,2,0,0,1,1.34-.46,2.18,2.18,0,0,1,1,.24,1.72,1.72,0,0,1,.71.65,1.68,1.68,0,0,1,.24.87,1.46,1.46,0,0,1-.23.79,1.63,1.63,0,0,1-.69.57,1.55,1.55,0,0,1,.92.57,1.75,1.75,0,0,1,.33,1.09,2,2,0,0,1-.64,1.5,2.29,2.29,0,0,1-1.62.61,2.12,2.12,0,0,1-1.47-.53A2.07,2.07,0,0,1,319,379.06Z"/></g><g class="l"><path d="M286.67,438.05a6.33,6.33,0,0,1,.24-1.92,2.46,2.46,0,0,1,.73-1.12,1.85,1.85,0,0,1,1.22-.4,2,2,0,0,1,.95.22,1.92,1.92,0,0,1,.67.63,3.27,3.27,0,0,1,.42,1,6.79,6.79,0,0,1,.15,1.59,6.29,6.29,0,0,1-.24,1.92,2.55,2.55,0,0,1-.73,1.13,1.88,1.88,0,0,1-1.22.39,1.84,1.84,0,0,1-1.53-.7A4.47,4.47,0,0,1,286.67,438.05Zm.85,0a4.32,4.32,0,0,0,.38,2.21,1.14,1.14,0,0,0,1,.55,1.11,1.11,0,0,0,.95-.55,6.46,6.46,0,0,0,0-4.42,1.14,1.14,0,0,0-1-.54,1.07,1.07,0,0,0-.91.48A4.33,4.33,0,0,0,287.52,438.05Z"/><path d="M296.19,440.58v.8h-4.44a1.65,1.65,0,0,1,.1-.58,2.91,2.91,0,0,1,.54-.89,7.84,7.84,0,0,1,1.08-1,9.31,9.31,0,0,0,1.48-1.43,1.67,1.67,0,0,0,.38-1,1.1,1.1,0,0,0-.35-.83,1.27,1.27,0,0,0-.91-.33,1.26,1.26,0,0,0-.95.36,1.32,1.32,0,0,0-.36,1l-.85-.09a2.1,2.1,0,0,1,.65-1.45,2.25,2.25,0,0,1,1.53-.5,2.13,2.13,0,0,1,1.53.54,1.78,1.78,0,0,1,.56,1.33,2,2,0,0,1-.16.8,3.26,3.26,0,0,1-.55.82,15.08,15.08,0,0,1-1.27,1.19c-.5.41-.81.7-.95.84a2.29,2.29,0,0,0-.35.45Z"/></g><line class="k" x1="294.05" y1="340.47" x2="383.32" y2="340.47"/><line class="k" x1="383.32" y1="340.47" x2="383.32" y2="510.68"/><line class="k" x1="383.32" y1="510.68" x2="377.16" y2="510.68"/><line class="k" x1="377.16" y1="510.68" x2="377.16" y2="579.31"/><line class="k" x1="377.16" y1="579.31" x2="469.17" y2="579.31"/><line class="k" x1="469.17" y1="579.31" x2="469.17" y2="524.41"/><line class="k" x1="469.17" y1="524.41" x2="496.53" y2="524.41"/><line class="k" x1="496.53" y1="524.41" x2="496.53" y2="395.72"/><line class="k" x1="496.53" y1="395.72" x2="496.53" y2="203.54"/><line class="k" x1="496.53" y1="203.54" x2="496.53" y2="93.73"/><line class="k" x1="496.53" y1="93.73" x2="446.93" y2="93.73"/><line class="k" x1="446.93" y1="93.73" x2="446.93" y2="38.81"/><line class="k" x1="446.93" y1="38.81" x2="298.16" y2="38.81"/><line class="k" x1="298.16" y1="38.81" x2="298.16" y2="93.73"/><line class="k" x1="298.16" y1="93.73" x2="294.05" y2="93.73"/><line class="k" x1="294.05" y1="93.73" x2="294.05" y2="340.47"/><path class="m" d="M369.63,65v7h-.72V65.59h-1.65V65Z"/><path class="m" d="M371.31,71.45a.53.53,0,0,1,.53-.54.54.54,0,0,1,.54.54.55.55,0,0,1-.54.55A.54.54,0,0,1,371.31,71.45Z"/><path class="m" d="M373.32,68.45c0-2.23,1.17-3.56,2.79-3.56s2.8,1.33,2.8,3.56S377.73,72,376.11,72,373.32,70.68,373.32,68.45Zm4.85,0c0-1.87-.84-2.9-2.06-2.9s-2.06,1-2.06,2.9.84,2.9,2.06,2.9S378.17,70.32,378.17,68.45Z"/><path class="m" d="M384.69,69.89c0,1.19-.83,2.12-2.54,2.12a3.61,3.61,0,0,1-2.51-.9l.35-.57a3,3,0,0,0,2.15.81c1.19,0,1.82-.58,1.82-1.43s-.56-1.46-2.34-1.46h-1.49l.36-3.51h3.83v.64h-3.2l-.24,2.23h.9C383.89,67.82,384.69,68.65,384.69,69.89Z"/><path class="m" d="M409.4,547.89v7h-.72v-6.36H407v-.64Z"/><path class="m" d="M411.08,554.39a.53.53,0,0,1,.53-.54.54.54,0,0,1,.54.54.55.55,0,0,1-.54.55A.54.54,0,0,1,411.08,554.39Z"/><path class="m" d="M413.09,551.39c0-2.23,1.17-3.56,2.79-3.56s2.8,1.33,2.8,3.56-1.18,3.56-2.8,3.56S413.09,553.62,413.09,551.39Zm4.85,0c0-1.87-.84-2.9-2.06-2.9s-2.06,1-2.06,2.9.84,2.9,2.06,2.9S417.94,553.26,417.94,551.39Z"/><path class="m" d="M424.46,552.83c0,1.19-.83,2.12-2.54,2.12a3.61,3.61,0,0,1-2.51-.9l.35-.57a3,3,0,0,0,2.15.81c1.19,0,1.82-.58,1.82-1.43s-.56-1.46-2.34-1.46H419.9l.36-3.51h3.83v.64h-3.2l-.24,2.23h.9C423.66,550.76,424.46,551.59,424.46,552.83Z"/><path class="m" d="M407.24,394.45v7h-.72v-6.36h-1.65v-.64Z"/><path class="m" d="M408.92,401a.53.53,0,0,1,.53-.54.54.54,0,0,1,.54.54.55.55,0,0,1-.54.55A.54.54,0,0,1,408.92,401Z"/><path class="m" d="M410.93,398c0-2.23,1.17-3.56,2.79-3.56s2.8,1.33,2.8,3.56-1.18,3.56-2.8,3.56S410.93,400.18,410.93,398Zm4.85,0c0-1.87-.84-2.9-2.06-2.9s-2.06,1-2.06,2.9.84,2.9,2.06,2.9S415.78,399.82,415.78,398Z"/><path class="m" d="M423.5,399.61h-1.4v1.84h-.72v-1.84h-3.95v-.52l3.71-4.64h.8L418.36,399h3v-1.62h.7V399h1.4Z"/><path class="m" d="M441.4,303.09v7h-.72v-6.36H439v-.64Z"/><path class="m" d="M443.08,309.59a.53.53,0,0,1,.53-.54.54.54,0,0,1,.54.54.55.55,0,0,1-.54.55A.54.54,0,0,1,443.08,309.59Z"/><path class="m" d="M445.09,306.59c0-2.23,1.17-3.56,2.79-3.56s2.8,1.33,2.8,3.56-1.18,3.56-2.8,3.56S445.09,308.82,445.09,306.59Zm4.85,0c0-1.87-.84-2.9-2.06-2.9s-2.06,1-2.06,2.9.84,2.9,2.06,2.9S449.94,308.46,449.94,306.59Z"/><path class="m" d="M456.25,308.08c0,1.17-.85,2.07-2.54,2.07a3.64,3.64,0,0,1-2.52-.9l.35-.57a3.07,3.07,0,0,0,2.17.81c1.16,0,1.8-.54,1.8-1.41s-.59-1.39-1.89-1.39h-.5v-.53l1.94-2.43h-3.58v-.64H456v.51l-2,2.49C455.5,306.17,456.25,307,456.25,308.08Z"/><path class="m" d="M369.63,200.16v7h-.72V200.8h-1.65v-.64Z"/><path class="m" d="M371.31,206.66a.53.53,0,0,1,.53-.54.54.54,0,0,1,.54.54.55.55,0,0,1-.54.55A.54.54,0,0,1,371.31,206.66Z"/><path class="m" d="M373.32,203.66c0-2.23,1.17-3.56,2.79-3.56s2.8,1.33,2.8,3.56-1.18,3.56-2.8,3.56S373.32,205.89,373.32,203.66Zm4.85,0c0-1.87-.84-2.9-2.06-2.9s-2.06,1-2.06,2.9.84,2.9,2.06,2.9S378.17,205.53,378.17,203.66Z"/><path class="m" d="M384.71,206.52v.64H379.8v-.51l2.91-2.85c.79-.78.94-1.25.94-1.73,0-.81-.57-1.31-1.64-1.31a2.38,2.38,0,0,0-1.91.78l-.51-.44a3.15,3.15,0,0,1,2.48-1c1.42,0,2.32.72,2.32,1.89a2.88,2.88,0,0,1-1.15,2.19l-2.38,2.34Z"/><path class="m" d="M369.63,303.09v7h-.72v-6.36h-1.65v-.64Z"/><path class="m" d="M371.31,309.59a.53.53,0,0,1,.53-.54.54.54,0,0,1,.54.54.55.55,0,0,1-.54.55A.54.54,0,0,1,371.31,309.59Z"/><path class="m" d="M373.32,306.59c0-2.23,1.17-3.56,2.79-3.56s2.8,1.33,2.8,3.56-1.18,3.56-2.8,3.56S373.32,308.82,373.32,306.59Zm4.85,0c0-1.87-.84-2.9-2.06-2.9s-2.06,1-2.06,2.9.84,2.9,2.06,2.9S378.17,308.46,378.17,306.59Z"/><path class="m" d="M381.87,303.09v7h-.72v-6.36H379.5v-.64Z"/></svg>