<svg xmlns="http://www.w3.org/2000/svg" xmlns:xlink="http://www.w3.org/1999/xlink" viewBox="0 0 790.58 618.13"><defs><style>.a,.f{fill:none;}.b{fill:#595a5c;}.c{fill:#b6906c;}.d,.i{fill:#fff;}.e{fill:#231f20;}.f{stroke:#000;stroke-linecap:round;stroke-linejoin:round;stroke-width:0.35px;}.g,.i{fill-rule:evenodd;}.h{clip-path:url(#a);}.j{fill:#58595b;}</style><clipPath id="a"><polygon class="a" points="243.19 183.54 243.19 239.34 238.4 239.34 238.4 434.58 552.18 434.58 552.18 239.34 548 239.34 548 183.54 243.19 183.54"/></clipPath></defs><path class="b" d="M55.31,597.13H57.1V609.9H55.31Zm.92,6.11h4.09a1.89,1.89,0,0,0,1-.27,1.82,1.82,0,0,0,.68-.77,2.67,2.67,0,0,0,.24-1.16,2.7,2.7,0,0,0-.24-1.16,1.82,1.82,0,0,0-1.7-1H56.23v-1.7h4a4.09,4.09,0,0,1,2,.48A3.45,3.45,0,0,1,63.62,599a4.64,4.64,0,0,1,0,4.11,3.34,3.34,0,0,1-1.35,1.36,4,4,0,0,1-2,.49h-4Z"/><path class="b" d="M67.7,606.33a2.07,2.07,0,0,0,.49,1.48,1.76,1.76,0,0,0,1.37.52,1.89,1.89,0,0,0,1.37-.46,1.79,1.79,0,0,0,.48-1.33l.12,1.91A2.58,2.58,0,0,1,69.06,610a2.89,2.89,0,0,1-2.33-1,4.08,4.08,0,0,1-.82-2.73v-5.55H67.7Zm.22-7.86a1.93,1.93,0,0,1-.56-1.5,2.07,2.07,0,0,1,.56-1.57,2.56,2.56,0,0,1,3.18,0,2.08,2.08,0,0,1,.57,1.56,1.94,1.94,0,0,1-.57,1.5,2.65,2.65,0,0,1-3.18,0Zm2.26-.86a.94.94,0,0,0,.24-.68,1,1,0,0,0-.24-.7.91.91,0,0,0-.67-.25.92.92,0,0,0-.67.25,1,1,0,0,0-.23.7,1,1,0,0,0,.23.68.92.92,0,0,0,.67.24A.9.9,0,0,0,70.18,597.61Zm1.23,3.17h1.78v9.12H71.41Z"/><path class="b" d="M77.1,609.63A2.82,2.82,0,0,1,76,608.36a5.08,5.08,0,0,1-.36-2v-2a5.05,5.05,0,0,1,.36-2,2.71,2.71,0,0,1,1-1.27,3,3,0,0,1,1.65-.44,2.71,2.71,0,0,1,1.48.42,3.22,3.22,0,0,1,1.09,1.19l-.18,1.86a2.19,2.19,0,0,0-.22-1,1.48,1.48,0,0,0-.61-.63,2,2,0,0,0-1-.21,1.71,1.71,0,0,0-1.37.55,2.26,2.26,0,0,0-.49,1.56v2a2.19,2.19,0,0,0,.49,1.54,1.74,1.74,0,0,0,1.37.54,1.93,1.93,0,0,0,1-.23,1.45,1.45,0,0,0,.61-.64,2.25,2.25,0,0,0,.22-1l.12,1.92a2.66,2.66,0,0,1-.89,1.14,2.56,2.56,0,0,1-1.53.45A3.19,3.19,0,0,1,77.1,609.63Zm4-12.5H82.9V609.9H81.11Z"/><path class="b" d="M87.09,609.57a3.09,3.09,0,0,1-1.29-1.36,4.85,4.85,0,0,1-.44-2.15v-1.48a4.71,4.71,0,0,1,.44-2.12,3.12,3.12,0,0,1,1.29-1.35,4.71,4.71,0,0,1,4.06,0,3.12,3.12,0,0,1,1.29,1.35,4.71,4.71,0,0,1,.44,2.12v1.51a4.79,4.79,0,0,1-.44,2.13,3.12,3.12,0,0,1-1.29,1.35,4.62,4.62,0,0,1-4.06,0Zm3.49-1.83a2.43,2.43,0,0,0,.51-1.65v-1.51a2.43,2.43,0,0,0-.51-1.65,1.88,1.88,0,0,0-1.46-.58,1.85,1.85,0,0,0-1.45.58,2.38,2.38,0,0,0-.52,1.65v1.51a2.38,2.38,0,0,0,.52,1.65,1.82,1.82,0,0,0,1.45.59A1.85,1.85,0,0,0,90.58,607.74Z"/><path class="b" d="M95.43,600.78h1.79v9.12H95.43Zm4.42,1.72a2.16,2.16,0,0,0-.83-.15,1.83,1.83,0,0,0-1.33.47,1.79,1.79,0,0,0-.47,1.31L97,602.37a3.32,3.32,0,0,1,1.09-1.27,2.58,2.58,0,0,1,1.48-.45,3.39,3.39,0,0,1,1.13.18,2.62,2.62,0,0,1,.88.53l-1.17,1.58A1.56,1.56,0,0,0,99.85,602.5Z"/><path class="b" d="M102.15,600.78H104l2.81,7.93-1,1.94Zm8.07,0L106.34,612a2.6,2.6,0,0,1-.56,1,1.87,1.87,0,0,1-.84.52,4,4,0,0,1-1.23.16h-.36V612h.36a1.46,1.46,0,0,0,.8-.2,1.74,1.74,0,0,0,.51-.7l3.38-10.31Z"/><path class="b" d="M113.51,609.88a5.76,5.76,0,0,1-1.32-.48,4.89,4.89,0,0,1-1.13-.79l1.06-1.31a5.86,5.86,0,0,0,1.47.85,4.18,4.18,0,0,0,1.44.28,3.11,3.11,0,0,0,1.6-.33,1.1,1.1,0,0,0,.53-1,.79.79,0,0,0-.29-.66,1.66,1.66,0,0,0-.72-.29c-.29,0-.69-.1-1.22-.14h-.15l-.14,0h-.15a6.45,6.45,0,0,1-1.5-.26,2,2,0,0,1-1-.7,2.38,2.38,0,0,1-.41-1.49,3.07,3.07,0,0,1,.39-1.61,2.41,2.41,0,0,1,1.18-1,5.29,5.29,0,0,1,2-.32,6.38,6.38,0,0,1,2.6.52,6.16,6.16,0,0,1,1.13.66l-1.08,1.31a5.59,5.59,0,0,0-1.35-.66,4,4,0,0,0-1.3-.22,2.44,2.44,0,0,0-1.37.31,1.08,1.08,0,0,0-.46.94.64.64,0,0,0,.26.55,1.72,1.72,0,0,0,.66.25c.26,0,.64.07,1.12.1h.34a7.67,7.67,0,0,1,1.63.25,2.24,2.24,0,0,1,1.13.77,2.62,2.62,0,0,1,.45,1.65,2.92,2.92,0,0,1-.42,1.63,2.54,2.54,0,0,1-1.27,1A5.88,5.88,0,0,1,115,610,7.38,7.38,0,0,1,113.51,609.88Z"/><path class="b" d="M126,597.13h1.8V609.9H126Zm2.6,12.5a2.39,2.39,0,0,1-.93-1.16l.13-1.91a2.22,2.22,0,0,0,.21,1,1.48,1.48,0,0,0,.61.63,1.93,1.93,0,0,0,1,.22,1.74,1.74,0,0,0,1.37-.54,2.18,2.18,0,0,0,.49-1.53v-2a2.26,2.26,0,0,0-.49-1.56,1.71,1.71,0,0,0-1.37-.55,2,2,0,0,0-1,.21,1.36,1.36,0,0,0-.61.62,2.12,2.12,0,0,0-.21,1l-.19-1.76a3.37,3.37,0,0,1,1.08-1.24,2.67,2.67,0,0,1,1.49-.43,3,3,0,0,1,1.65.43,2.9,2.9,0,0,1,1.06,1.27,5.1,5.1,0,0,1,.36,2v2a4.94,4.94,0,0,1-.37,2,2.79,2.79,0,0,1-1.08,1.26,3.25,3.25,0,0,1-1.71.44A2.73,2.73,0,0,1,128.57,609.63Z"/><path class="b" d="M134.46,600.78h1.82l2.81,7.93-1,1.94Zm8.07,0L138.65,612a2.6,2.6,0,0,1-.56,1,1.87,1.87,0,0,1-.84.52,4,4,0,0,1-1.23.16h-.36V612H136a1.46,1.46,0,0,0,.8-.2,1.74,1.74,0,0,0,.51-.7l3.37-10.31Z"/><path class="b" d="M143.57,600.78h4.12v1.62h-4.12Zm1.46,8.56a2.77,2.77,0,0,1-.52-1.81v-9.4h1.8v9.42a.84.84,0,0,0,.13.51.46.46,0,0,0,.39.18h.86V610h-1A2,2,0,0,1,145,609.34Z"/><path class="b" d="M151.94,606.33a2.07,2.07,0,0,0,.49,1.48,1.76,1.76,0,0,0,1.37.52,1.91,1.91,0,0,0,1.37-.46,1.79,1.79,0,0,0,.48-1.33l.12,1.91A2.58,2.58,0,0,1,153.3,610a2.89,2.89,0,0,1-2.33-1,4.08,4.08,0,0,1-.82-2.73v-5.55h1.79Zm3.71-5.55h1.78v9.12h-1.78Z"/><rect class="c" x="612.92" y="591.68" width="35.43" height="2.83"/><path class="d" d="M648.48,594.64H612.79v-3.08h35.69ZM613,594.39h35.19v-2.58H613Z"/><rect class="c" x="612.92" y="601.6" width="70.74" height="2.83"/><path class="d" d="M683.78,604.56h-71v-3.08h71ZM613,604.31h70.49v-2.58H613Z"/><rect class="c" x="612.92" y="612.72" width="177.16" height="2.84"/><path class="d" d="M790.21,615.68H612.79V612.6H790.21ZM613,615.43H790v-2.58H613Z"/><path class="e" d="M587.26,596.28h-.8v-4.82l-.81.5v-.83l.81-.53h.8Z"/><path class="e" d="M589,595.91a1.67,1.67,0,0,1-.41-1.19v-2.58A1.65,1.65,0,0,1,589,591a2,2,0,0,1,2.42,0,1.65,1.65,0,0,1,.41,1.19v2.58a1.65,1.65,0,0,1-.41,1.19,2,2,0,0,1-2.42,0Zm1.83-.55a.89.89,0,0,0,.2-.64v-2.58a.89.89,0,0,0-.2-.64.82.82,0,0,0-.62-.22.86.86,0,0,0-.63.22.94.94,0,0,0-.2.64v2.58a.9.9,0,0,0,.21.64,1,1,0,0,0,1.24,0Z"/><path class="e" d="M593.22,595.91a1.67,1.67,0,0,1-.41-1.19v-2.58a1.65,1.65,0,0,1,.41-1.19,2,2,0,0,1,2.42,0,1.61,1.61,0,0,1,.41,1.19v2.58a1.65,1.65,0,0,1-.41,1.19,2,2,0,0,1-2.42,0Zm1.83-.55a.9.9,0,0,0,.21-.64v-2.58a.94.94,0,0,0-.2-.64.86.86,0,0,0-.63-.22.82.82,0,0,0-.62.22.89.89,0,0,0-.2.64v2.58a.89.89,0,0,0,.2.64,1,1,0,0,0,1.24,0Z"/><path class="e" d="M600.1,596.13a1.45,1.45,0,0,1-.6-.6,2.06,2.06,0,0,1-.21-1v-.67a2,2,0,0,1,.21-.94,1.37,1.37,0,0,1,.6-.59,2,2,0,0,1,.95-.21,2.21,2.21,0,0,1,.59.08,1.68,1.68,0,0,1,.51.22,1.54,1.54,0,0,1,.37.35l-.58.52a1.17,1.17,0,0,0-.4-.3,1.13,1.13,0,0,0-.48-.11.94.94,0,0,0-.71.26,1,1,0,0,0-.26.72v.67a1,1,0,0,0,.25.74.94.94,0,0,0,.72.27,1,1,0,0,0,.48-.12,1,1,0,0,0,.4-.32l.58.56a1.38,1.38,0,0,1-.38.34,1.62,1.62,0,0,1-.5.22,2.27,2.27,0,0,1-.59.07A2.12,2.12,0,0,1,600.1,596.13Z"/><path class="e" d="M603.4,592.22h.79v4.06h-.79Zm2.42,1.6a1,1,0,0,0-.21-.67.78.78,0,0,0-.6-.23.81.81,0,0,0-.6.21.73.73,0,0,0-.22.58l-.08-.78a1.46,1.46,0,0,1,.49-.57,1.22,1.22,0,0,1,.67-.2,1.33,1.33,0,0,1,.73.2,1.18,1.18,0,0,1,.46.56,2.4,2.4,0,0,1,.15.89v2.47h-.79Zm2.42,0a.93.93,0,0,0-.22-.67.85.85,0,0,0-.63-.23.72.72,0,0,0-.57.23.9.9,0,0,0-.21.64l-.16-.78a1.61,1.61,0,0,1,.51-.63,1.23,1.23,0,0,1,.69-.22,1.37,1.37,0,0,1,.75.2,1.09,1.09,0,0,1,.47.56,2.21,2.21,0,0,1,.17.89v2.47h-.8Z"/><path class="e" d="M584.33,605.5l2-2.64a1.85,1.85,0,0,0,.27-.47,1.29,1.29,0,0,0,.09-.45h0a.67.67,0,0,0-.2-.53.81.81,0,0,0-.56-.19.76.76,0,0,0-.56.21,1,1,0,0,0-.27.58h-.82a2,2,0,0,1,.29-.83,1.42,1.42,0,0,1,.56-.53,1.67,1.67,0,0,1,.79-.18,1.93,1.93,0,0,1,.87.17,1.21,1.21,0,0,1,.54.51,1.55,1.55,0,0,1,.19.8h0a1.84,1.84,0,0,1-.12.63,2.8,2.8,0,0,1-.35.63l-1.65,2.24h2.15v.76h-3.2Z"/><path class="e" d="M589,605.83a1.67,1.67,0,0,1-.41-1.19v-2.58a1.65,1.65,0,0,1,.41-1.19,2,2,0,0,1,2.42,0,1.65,1.65,0,0,1,.41,1.19v2.58a1.65,1.65,0,0,1-.41,1.19,2,2,0,0,1-2.42,0Zm1.83-.55a.89.89,0,0,0,.2-.64v-2.58a.89.89,0,0,0-.2-.64.82.82,0,0,0-.62-.22.86.86,0,0,0-.63.22.94.94,0,0,0-.19.64v2.58a.89.89,0,0,0,.2.64,1,1,0,0,0,1.24,0Z"/><path class="e" d="M593.22,605.83a1.67,1.67,0,0,1-.41-1.19v-2.58a1.61,1.61,0,0,1,.42-1.19,1.59,1.59,0,0,1,1.2-.42,1.45,1.45,0,0,1,1.62,1.61v2.58a1.61,1.61,0,0,1-.41,1.19,2,2,0,0,1-2.42,0Zm1.84-.55a.94.94,0,0,0,.2-.64v-2.58a.94.94,0,0,0-.2-.64.84.84,0,0,0-.63-.22.82.82,0,0,0-.62.22.89.89,0,0,0-.2.64v2.58a.89.89,0,0,0,.2.64.82.82,0,0,0,.62.22A.86.86,0,0,0,595.06,605.28Z"/><path class="e" d="M600.1,606.05a1.45,1.45,0,0,1-.6-.6,2.06,2.06,0,0,1-.2-1v-.67a2,2,0,0,1,.2-.94,1.37,1.37,0,0,1,.6-.59,2,2,0,0,1,.95-.21,2.35,2.35,0,0,1,.6.08,1.73,1.73,0,0,1,.5.22,1.38,1.38,0,0,1,.37.35l-.58.52a1.08,1.08,0,0,0-.4-.3,1.13,1.13,0,0,0-.48-.11,1,1,0,0,0-.71.26,1,1,0,0,0-.26.72v.67a1,1,0,0,0,.25.74.94.94,0,0,0,.72.27,1.14,1.14,0,0,0,.88-.44l.58.56a1.38,1.38,0,0,1-.38.34,1.62,1.62,0,0,1-.5.22,2.22,2.22,0,0,1-.59.07A2.12,2.12,0,0,1,600.1,606.05Z"/><path class="e" d="M603.4,602.14h.79v4.06h-.79Zm2.42,1.6a1,1,0,0,0-.21-.67.78.78,0,0,0-.6-.23.81.81,0,0,0-.6.21.73.73,0,0,0-.22.58l-.08-.78a1.46,1.46,0,0,1,.49-.57,1.22,1.22,0,0,1,.67-.2,1.3,1.3,0,0,1,.73.2,1.18,1.18,0,0,1,.46.56,2.4,2.4,0,0,1,.16.89v2.47h-.8Zm2.42,0a.93.93,0,0,0-.22-.67.85.85,0,0,0-.63-.23.73.73,0,0,0-.57.23.89.89,0,0,0-.2.64l-.16-.78a1.51,1.51,0,0,1,.5-.63,1.23,1.23,0,0,1,.69-.22,1.35,1.35,0,0,1,.75.2,1.16,1.16,0,0,1,.48.56,2.4,2.4,0,0,1,.16.89v2.47h-.8Z"/><path class="e" d="M585,615.58a1.34,1.34,0,0,1-.54-.49,2,2,0,0,1-.28-.77h.8a.75.75,0,0,0,.25.49.85.85,0,0,0,.54.17.72.72,0,0,0,.59-.25,1.1,1.1,0,0,0,.21-.72v-.48a1.1,1.1,0,0,0-.21-.72.72.72,0,0,0-.59-.25.83.83,0,0,0-.4.11,1.18,1.18,0,0,0-.34.33h-.72v-3h2.89v.76h-2.1V612a1,1,0,0,1,.34-.18.94.94,0,0,1,.37-.07,1.68,1.68,0,0,1,.84.2,1.29,1.29,0,0,1,.53.6,2.07,2.07,0,0,1,.19.94V614a2.25,2.25,0,0,1-.19.94,1.31,1.31,0,0,1-.55.59,1.69,1.69,0,0,1-.86.21A1.74,1.74,0,0,1,585,615.58Z"/><path class="e" d="M589,615.32a1.65,1.65,0,0,1-.41-1.19v-2.58a1.67,1.67,0,0,1,.41-1.19,2,2,0,0,1,2.42,0,1.65,1.65,0,0,1,.41,1.19v2.58a1.64,1.64,0,0,1-.41,1.19,1.92,1.92,0,0,1-2.42,0Zm1.83-.55a.89.89,0,0,0,.2-.64v-2.58a.88.88,0,0,0-.2-.63.78.78,0,0,0-.62-.22.82.82,0,0,0-.63.22.93.93,0,0,0-.2.63v2.58a.9.9,0,0,0,.21.64,1,1,0,0,0,1.24,0Z"/><path class="e" d="M593.22,615.32a1.65,1.65,0,0,1-.41-1.19v-2.58a1.67,1.67,0,0,1,.41-1.19,2,2,0,0,1,2.42,0,1.61,1.61,0,0,1,.41,1.19v2.58a1.64,1.64,0,0,1-.41,1.19,1.92,1.92,0,0,1-2.42,0Zm1.83-.55a.9.9,0,0,0,.21-.64v-2.58a.93.93,0,0,0-.2-.63.82.82,0,0,0-.63-.22.78.78,0,0,0-.62.22.88.88,0,0,0-.2.63v2.58a.89.89,0,0,0,.2.64,1,1,0,0,0,1.24,0Z"/><path class="e" d="M600.1,615.54a1.45,1.45,0,0,1-.6-.6,2,2,0,0,1-.21-1v-.67a2,2,0,0,1,.21-.94,1.45,1.45,0,0,1,.6-.6,2,2,0,0,1,.95-.2,2.22,2.22,0,0,1,.59.07,2,2,0,0,1,.51.22,1.76,1.76,0,0,1,.37.35l-.58.52a1.17,1.17,0,0,0-.4-.3,1.13,1.13,0,0,0-.48-.11.94.94,0,0,0-.71.26,1,1,0,0,0-.26.73V614a1.07,1.07,0,0,0,.25.74,1,1,0,0,0,.72.26,1.13,1.13,0,0,0,.48-.11,1.26,1.26,0,0,0,.4-.32l.58.55a1.42,1.42,0,0,1-.38.35,1.88,1.88,0,0,1-.5.21,2.27,2.27,0,0,1-.59.08A2,2,0,0,1,600.1,615.54Z"/><path class="e" d="M603.4,611.63h.79v4.06h-.79Zm2.42,1.6a1,1,0,0,0-.21-.66.75.75,0,0,0-.6-.24.81.81,0,0,0-.6.21.75.75,0,0,0-.22.58l-.08-.78a1.5,1.5,0,0,1,.49-.56,1.15,1.15,0,0,1,.67-.2,1.32,1.32,0,0,1,.73.19,1.28,1.28,0,0,1,.46.56,2.42,2.42,0,0,1,.15.9v2.46h-.79Zm2.42,0a.91.91,0,0,0-.22-.66.82.82,0,0,0-.63-.24.72.72,0,0,0-.57.23.9.9,0,0,0-.21.64l-.16-.78a1.51,1.51,0,0,1,.51-.62,1.16,1.16,0,0,1,.69-.22,1.37,1.37,0,0,1,.75.19,1.18,1.18,0,0,1,.47.56,2.22,2.22,0,0,1,.17.9v2.46h-.8Z"/><path class="c" d="M23.49,613.89A12.92,12.92,0,1,1,36.4,601,12.93,12.93,0,0,1,23.49,613.89Zm0-24.83A11.92,11.92,0,1,0,35.4,601,11.93,11.93,0,0,0,23.49,589.06Z"/><polygon class="d" points="35.77 588.74 9.42 600.98 35.77 613.21 32.02 600.98 35.77 588.74"/><path class="c" d="M36.58,614.14,8.23,601l28.35-13.17-4,13.17ZM10.61,601,35,612.29,31.5,601,35,589.66Z"/><path class="c" d="M2.52,605.19a5,5,0,0,1-1.11-.38,4.4,4.4,0,0,1-1-.64l.81-1a3.72,3.72,0,0,0,1.16.69,4.08,4.08,0,0,0,1.38.23,2.73,2.73,0,0,0,1.55-.38,1.17,1.17,0,0,0,.55-1.05h0a1.12,1.12,0,0,0-.25-.77,1.44,1.44,0,0,0-.64-.42,8.23,8.23,0,0,0-1-.25H3.89l-.1,0a9.48,9.48,0,0,1-1.5-.36,2.08,2.08,0,0,1-1-.73,2.42,2.42,0,0,1-.41-1.51h0a2.77,2.77,0,0,1,.38-1.47,2.44,2.44,0,0,1,1.12-.92,4.48,4.48,0,0,1,1.77-.32,4.6,4.6,0,0,1,1,.11,4.9,4.9,0,0,1,1.86.86l-.73,1a4.61,4.61,0,0,0-1-.58,3,3,0,0,0-1.06-.2,2.44,2.44,0,0,0-1.46.38,1.24,1.24,0,0,0-.53,1.07h0a1,1,0,0,0,.27.75,1.74,1.74,0,0,0,.67.4,9.3,9.3,0,0,0,1.12.27h.24a7.93,7.93,0,0,1,1.4.41,2.22,2.22,0,0,1,.94.76,2.4,2.4,0,0,1,.38,1.43h0a2.62,2.62,0,0,1-.4,1.45,2.54,2.54,0,0,1-1.16.91,4.8,4.8,0,0,1-1.83.31A6.44,6.44,0,0,1,2.52,605.19Z"/><rect class="c" x="612.5" y="600.68" width="1" height="4.68"/><rect class="c" x="612.5" y="590.76" width="1" height="4.68"/><rect class="c" x="612.5" y="611.45" width="1" height="5.24"/><rect class="c" x="789.58" y="611.45" width="1" height="5.24"/><rect class="c" x="682.59" y="600.68" width="1" height="4.68"/><rect class="c" x="647.3" y="590.76" width="1" height="4.68"/><rect class="a" width="790.34" height="618.13"/><line class="f" x1="238.4" y1="239.34" x2="241.54" y2="239.34"/><line class="f" x1="546.6" y1="187.04" x2="244.33" y2="187.04"/><line class="f" x1="546.6" y1="239.34" x2="546.6" y2="187.04"/><line class="f" x1="459.09" y1="239.34" x2="546.6" y2="239.34"/><line class="f" x1="459.09" y1="242.83" x2="459.09" y2="239.34"/><line class="f" x1="427.72" y1="242.83" x2="459.09" y2="242.83"/><line class="f" x1="427.72" y1="239.34" x2="427.72" y2="242.83"/><line class="f" x1="349.27" y1="239.34" x2="427.71" y2="239.34"/><line class="f" x1="349.27" y1="242.83" x2="349.27" y2="239.34"/><line class="f" x1="317.89" y1="242.83" x2="349.27" y2="242.83"/><line class="f" x1="317.89" y1="239.34" x2="317.89" y2="242.83"/><line class="f" x1="244.33" y1="239.34" x2="317.89" y2="239.34"/><line class="f" x1="244.33" y1="187.04" x2="244.33" y2="239.34"/><line class="f" x1="549.39" y1="239.34" x2="552.18" y2="239.34"/><rect class="d" x="337.41" y="405.29" width="20.92" height="20.92"/><line class="f" x1="337.42" y1="405.3" x2="337.42" y2="426.21"/><line class="f" x1="358.33" y1="405.3" x2="337.41" y2="405.3"/><line class="f" x1="358.33" y1="426.21" x2="358.33" y2="405.3"/><line class="f" x1="337.42" y1="426.21" x2="358.33" y2="426.21"/><rect class="d" x="445.5" y="404.95" width="98.32" height="21.27"/><line class="f" x1="445.5" y1="404.95" x2="445.5" y2="426.21"/><line class="f" x1="543.81" y1="404.95" x2="445.5" y2="404.95"/><line class="f" x1="543.81" y1="426.21" x2="543.81" y2="404.95"/><line class="f" x1="445.5" y1="426.21" x2="543.82" y2="426.21"/><rect class="d" x="522.55" y="352.65" width="21.27" height="52.3"/><line class="f" x1="522.55" y1="352.65" x2="522.55" y2="404.95"/><line class="f" x1="543.81" y1="352.65" x2="522.55" y2="352.65"/><line class="f" x1="543.81" y1="404.95" x2="543.81" y2="352.65"/><line class="f" x1="522.55" y1="404.95" x2="543.81" y2="404.95"/><rect class="d" x="247.64" y="360.84" width="27.89" height="41.84"/><line class="f" x1="275.53" y1="402.68" x2="247.64" y2="402.68"/><line class="f" x1="247.64" y1="402.68" x2="247.64" y2="360.84"/><line class="f" x1="247.64" y1="360.84" x2="275.53" y2="360.84"/><line class="f" x1="275.53" y1="360.84" x2="275.53" y2="402.68"/><polygon class="g" points="552.18 246.31 514.88 246.31 514.88 239.34 548 239.34 552.18 239.34 552.18 246.31"/><rect x="349.27" y="239.34" width="78.45" height="6.97"/><polygon class="g" points="238.4 239.34 243.19 239.34 262.11 239.34 262.11 246.31 238.4 246.31 238.4 239.34"/><rect x="238.4" y="246.31" width="21.97" height="6.97"/><rect x="351.01" y="246.31" width="74.96" height="6.97"/><rect x="516.62" y="246.31" width="35.56" height="6.97"/><polygon class="g" points="238.4 434.58 238.4 426.21 238.4 253.28 246.76 253.28 246.76 426.21 365.31 426.21 365.31 434.58 238.4 434.58"/><polygon class="g" points="403.66 426.21 543.82 426.21 543.82 253.28 552.18 253.28 552.18 434.58 543.82 434.58 403.66 434.58 403.66 426.21"/><polygon class="g" points="342.64 357.53 342.64 359.97 337.42 359.97 337.42 368.69 334.98 368.69 334.98 359.97 246.77 359.97 246.77 357.53 342.64 357.53"/><rect x="421.09" y="401.81" width="2.44" height="24.41"/><polygon class="g" points="421.09 370.43 421.09 359.97 374.02 359.97 374.02 357.53 400.17 357.53 400.17 253.28 402.61 253.28 402.61 357.53 423.53 357.53 423.53 370.43 421.09 370.43"/><rect x="365.31" y="430.57" width="1.74" height="4.01"/><rect x="401.91" y="430.57" width="1.74" height="4.01"/><rect x="334.97" y="396.58" width="2.44" height="29.64"/><rect x="271.17" y="407.1" width="3.49" height="19.12"/><polygon class="g" points="271.17 407.1 271.17 407.04 246.77 407.04 246.77 403.55 274.66 403.55 274.66 407.1 271.17 407.1"/><polygon class="g" points="403.66 426.21 403.66 408.78 421.09 408.78 421.09 412.27 407.14 412.27 407.14 426.21 403.66 426.21"/><polygon class="g" points="423.53 405.3 445.5 405.3 445.5 426.21 442.01 426.21 442.01 408.78 423.53 408.78 423.53 405.3"/><rect x="546.6" y="187.04" width="1.39" height="52.3"/><rect x="243.19" y="187.04" width="1.14" height="52.3"/><line class="f" x1="548" y1="239.34" x2="514.88" y2="239.34"/><line class="f" x1="552.18" y1="239.34" x2="548" y2="239.34"/><line class="f" x1="427.72" y1="239.34" x2="349.27" y2="239.34"/><line class="f" x1="243.19" y1="239.34" x2="238.4" y2="239.34"/><line class="f" x1="262.11" y1="239.34" x2="243.19" y2="239.34"/><line class="f" x1="552.18" y1="253.29" x2="552.18" y2="253.29"/><line class="f" x1="425.97" y1="253.29" x2="402.61" y2="253.29"/><line class="f" x1="400.17" y1="253.29" x2="351.01" y2="253.29"/><line class="f" x1="260.36" y1="253.29" x2="246.77" y2="253.29"/><line class="f" x1="543.81" y1="253.29" x2="516.62" y2="253.29"/><line class="f" x1="516.62" y1="253.29" x2="516.62" y2="246.31"/><line class="f" x1="425.97" y1="253.29" x2="425.97" y2="246.31"/><line class="f" x1="260.36" y1="253.29" x2="260.36" y2="246.31"/><line class="f" x1="351.01" y1="246.31" x2="351.01" y2="253.29"/><line class="f" x1="243.98" y1="187.04" x2="243.98" y2="239.34"/><line class="f" x1="243.19" y1="187.04" x2="243.98" y2="187.04"/><line class="f" x1="546.6" y1="187.04" x2="546.6" y2="239.34"/><line class="f" x1="546.6" y1="187.04" x2="548" y2="187.04"/><line class="f" x1="262.11" y1="246.31" x2="262.11" y2="239.34"/><line class="f" x1="260.36" y1="246.31" x2="262.11" y2="246.31"/><line class="f" x1="427.72" y1="246.31" x2="427.72" y2="239.34"/><line class="f" x1="425.97" y1="246.31" x2="427.71" y2="246.31"/><line class="f" x1="349.27" y1="246.31" x2="349.27" y2="239.34"/><line class="f" x1="351.01" y1="246.31" x2="349.27" y2="246.31"/><line class="f" x1="514.88" y1="246.31" x2="514.88" y2="239.34"/><line class="f" x1="516.62" y1="246.31" x2="514.88" y2="246.31"/><line class="f" x1="243.19" y1="187.04" x2="548" y2="187.04"/><line class="f" x1="243.19" y1="187.04" x2="548" y2="187.04"/><line class="f" x1="516.62" y1="253.29" x2="460.84" y2="253.29"/><line class="f" x1="460.84" y1="253.29" x2="425.97" y2="253.29"/><line class="f" x1="514.88" y1="239.34" x2="459.09" y2="239.34"/><line class="f" x1="460.84" y1="253.29" x2="460.84" y2="246.31"/><line class="f" x1="459.09" y1="246.31" x2="459.09" y2="239.34"/><line class="f" x1="459.09" y1="242.83" x2="427.71" y2="242.83"/><line class="f" x1="458.05" y1="247.01" x2="458.05" y2="246.31"/><line class="f" x1="458.05" y1="246.31" x2="460.84" y2="246.31"/><line class="f" x1="460.84" y1="246.31" x2="460.84" y2="249.1"/><line class="f" x1="460.84" y1="249.1" x2="459.44" y2="249.1"/><line class="f" x1="459.44" y1="249.8" x2="456.65" y2="249.8"/><line class="f" x1="456.65" y1="249.8" x2="456.65" y2="247.01"/><line class="f" x1="456.65" y1="247.01" x2="459.44" y2="247.01"/><line class="f" x1="459.44" y1="247.01" x2="459.44" y2="249.8"/><line class="f" x1="427.37" y1="249.8" x2="430.16" y2="249.8"/><line class="f" x1="430.16" y1="249.8" x2="430.16" y2="247.01"/><line class="f" x1="430.16" y1="247.01" x2="427.37" y2="247.01"/><line class="f" x1="427.37" y1="247.01" x2="427.37" y2="249.8"/><line class="f" x1="456.65" y1="249.8" x2="430.16" y2="249.8"/><line class="f" x1="430.16" y1="247.01" x2="456.65" y2="247.01"/><line class="f" x1="456.65" y1="248.4" x2="430.16" y2="248.4"/><line class="f" x1="428.76" y1="247.01" x2="428.76" y2="246.31"/><line class="f" x1="428.76" y1="246.31" x2="425.97" y2="246.31"/><line class="f" x1="425.97" y1="246.31" x2="425.97" y2="249.1"/><line class="f" x1="425.97" y1="249.1" x2="427.37" y2="249.1"/><line class="f" x1="460.84" y1="249.1" x2="463.63" y2="249.1"/><line class="f" x1="463.63" y1="249.1" x2="463.63" y2="246.31"/><line class="f" x1="463.63" y1="246.31" x2="460.84" y2="246.31"/><line class="f" x1="460.84" y1="246.31" x2="460.84" y2="249.1"/><line class="f" x1="463.63" y1="249.1" x2="487.33" y2="249.1"/><line class="f" x1="463.63" y1="247.71" x2="487.33" y2="247.71"/><line class="f" x1="463.63" y1="246.31" x2="487.33" y2="246.31"/><line class="f" x1="513.83" y1="247.01" x2="513.83" y2="246.31"/><line class="f" x1="513.83" y1="246.31" x2="516.62" y2="246.31"/><line class="f" x1="516.62" y1="246.31" x2="516.62" y2="249.1"/><line class="f" x1="516.62" y1="249.1" x2="515.23" y2="249.1"/><line class="f" x1="515.23" y1="249.8" x2="512.44" y2="249.8"/><line class="f" x1="512.44" y1="249.8" x2="512.44" y2="247.01"/><line class="f" x1="512.44" y1="247.01" x2="515.23" y2="247.01"/><line class="f" x1="515.23" y1="247.01" x2="515.23" y2="249.8"/><line class="f" x1="512.44" y1="249.8" x2="491.52" y2="249.8"/><line class="f" x1="491.52" y1="247.01" x2="512.44" y2="247.01"/><line class="f" x1="512.44" y1="248.4" x2="491.52" y2="248.4"/><line class="f" x1="490.12" y1="247.01" x2="490.12" y2="246.31"/><line class="f" x1="490.12" y1="246.31" x2="487.33" y2="246.31"/><line class="f" x1="487.33" y1="246.31" x2="487.33" y2="249.1"/><line class="f" x1="487.33" y1="249.1" x2="488.73" y2="249.1"/><line class="f" x1="488.73" y1="249.8" x2="491.52" y2="249.8"/><line class="f" x1="491.52" y1="249.8" x2="491.52" y2="247.01"/><line class="f" x1="491.52" y1="247.01" x2="488.73" y2="247.01"/><line class="f" x1="488.73" y1="247.01" x2="488.73" y2="249.8"/><line class="f" x1="260.36" y1="253.29" x2="316.15" y2="253.29"/><line class="f" x1="316.15" y1="253.29" x2="351.01" y2="253.29"/><line class="f" x1="262.11" y1="239.34" x2="317.89" y2="239.34"/><line class="f" x1="316.15" y1="253.29" x2="316.15" y2="246.31"/><line class="f" x1="317.89" y1="246.31" x2="317.89" y2="239.34"/><line class="f" x1="317.89" y1="242.83" x2="349.27" y2="242.83"/><line class="f" x1="318.94" y1="247.01" x2="318.94" y2="246.31"/><line class="f" x1="318.94" y1="246.31" x2="316.15" y2="246.31"/><line class="f" x1="316.15" y1="246.31" x2="316.15" y2="249.1"/><line class="f" x1="316.15" y1="249.1" x2="317.54" y2="249.1"/><line class="f" x1="317.54" y1="249.8" x2="320.33" y2="249.8"/><line class="f" x1="320.33" y1="249.8" x2="320.33" y2="247.01"/><line class="f" x1="320.33" y1="247.01" x2="317.54" y2="247.01"/><line class="f" x1="317.54" y1="247.01" x2="317.54" y2="249.8"/><line class="f" x1="349.62" y1="249.8" x2="346.83" y2="249.8"/><line class="f" x1="346.83" y1="249.8" x2="346.83" y2="247.01"/><line class="f" x1="346.83" y1="247.01" x2="349.62" y2="247.01"/><line class="f" x1="349.62" y1="247.01" x2="349.62" y2="249.8"/><line class="f" x1="320.33" y1="249.8" x2="346.83" y2="249.8"/><line class="f" x1="346.83" y1="247.01" x2="320.33" y2="247.01"/><line class="f" x1="320.33" y1="248.4" x2="346.83" y2="248.4"/><line class="f" x1="348.22" y1="247.01" x2="348.22" y2="246.31"/><line class="f" x1="348.22" y1="246.31" x2="351.01" y2="246.31"/><line class="f" x1="351.01" y1="246.31" x2="351.01" y2="249.1"/><line class="f" x1="351.01" y1="249.1" x2="349.62" y2="249.1"/><line class="f" x1="316.15" y1="249.1" x2="313.36" y2="249.1"/><line class="f" x1="313.36" y1="249.1" x2="313.36" y2="246.31"/><line class="f" x1="313.36" y1="246.31" x2="316.15" y2="246.31"/><line class="f" x1="316.15" y1="246.31" x2="316.15" y2="249.1"/><line class="f" x1="313.36" y1="249.1" x2="289.65" y2="249.1"/><line class="f" x1="313.36" y1="247.71" x2="289.65" y2="247.71"/><line class="f" x1="313.36" y1="246.31" x2="289.65" y2="246.31"/><line class="f" x1="263.15" y1="247.01" x2="263.15" y2="246.31"/><line class="f" x1="263.15" y1="246.31" x2="260.36" y2="246.31"/><line class="f" x1="260.36" y1="246.31" x2="260.36" y2="249.1"/><line class="f" x1="260.36" y1="249.1" x2="261.76" y2="249.1"/><line class="f" x1="261.76" y1="249.8" x2="264.55" y2="249.8"/><line class="f" x1="264.55" y1="249.8" x2="264.55" y2="247.01"/><line class="f" x1="264.55" y1="247.01" x2="261.76" y2="247.01"/><line class="f" x1="261.76" y1="247.01" x2="261.76" y2="249.8"/><line class="f" x1="264.55" y1="249.8" x2="285.47" y2="249.8"/><line class="f" x1="285.47" y1="247.01" x2="264.55" y2="247.01"/><line class="f" x1="264.55" y1="248.4" x2="285.47" y2="248.4"/><line class="f" x1="286.86" y1="247.01" x2="286.86" y2="246.31"/><line class="f" x1="286.86" y1="246.31" x2="289.65" y2="246.31"/><line class="f" x1="289.65" y1="246.31" x2="289.65" y2="249.1"/><line class="f" x1="289.65" y1="249.1" x2="288.25" y2="249.1"/><line class="f" x1="288.26" y1="249.8" x2="285.47" y2="249.8"/><line class="f" x1="285.47" y1="249.8" x2="285.47" y2="247.01"/><line class="f" x1="285.47" y1="247.01" x2="288.26" y2="247.01"/><line class="f" x1="288.26" y1="247.01" x2="288.26" y2="249.8"/><line class="f" x1="543.81" y1="253.29" x2="543.81" y2="426.21"/><line class="f" x1="238.4" y1="434.58" x2="365.31" y2="434.58"/><line class="f" x1="238.4" y1="426.21" x2="238.4" y2="426.21"/><line class="f" x1="246.77" y1="253.29" x2="246.77" y2="357.53"/><line class="f" x1="238.4" y1="253.29" x2="238.4" y2="255.26"/><line class="f" x1="238.4" y1="372.17" x2="238.4" y2="405.3"/><line class="f" x1="238.4" y1="408.78" x2="238.4" y2="426.21"/><line class="f" x1="238.4" y1="372.17" x2="238.4" y2="372.17"/><line class="f" x1="543.81" y1="434.58" x2="543.81" y2="434.58"/><line class="f" x1="421.09" y1="426.21" x2="407.14" y2="426.21"/><line class="f" x1="421.09" y1="412.27" x2="407.14" y2="412.27"/><line class="f" x1="421.09" y1="408.78" x2="403.66" y2="408.78"/><line class="f" x1="400.17" y1="357.53" x2="374.02" y2="357.53"/><line class="f" x1="421.09" y1="359.97" x2="374.02" y2="359.97"/><line class="f" x1="342.64" y1="359.97" x2="337.41" y2="359.97"/><line class="f" x1="400.17" y1="253.29" x2="400.17" y2="357.53"/><line class="f" x1="402.61" y1="253.29" x2="402.61" y2="357.53"/><line class="f" x1="421.09" y1="359.97" x2="421.09" y2="370.43"/><line class="f" x1="423.53" y1="401.81" x2="423.53" y2="405.3"/><line class="f" x1="423.53" y1="408.78" x2="423.53" y2="426.21"/><line class="f" x1="423.53" y1="357.53" x2="423.53" y2="370.43"/><line class="f" x1="423.53" y1="370.43" x2="421.09" y2="370.43"/><line class="f" x1="342.64" y1="359.97" x2="342.64" y2="357.53"/><line class="f" x1="374.02" y1="359.97" x2="374.02" y2="357.53"/><line class="f" x1="401.92" y1="430.57" x2="401.92" y2="434.58"/><line class="f" x1="367.05" y1="430.57" x2="367.05" y2="434.58"/><line class="f" x1="367.05" y1="430.57" x2="365.31" y2="430.57"/><line class="f" x1="401.92" y1="430.57" x2="403.66" y2="430.57"/><line class="f" x1="403.66" y1="430.57" x2="403.66" y2="426.21"/><line class="f" x1="365.31" y1="430.57" x2="365.31" y2="426.21"/><line class="f" x1="403.66" y1="434.58" x2="543.82" y2="434.58"/><line class="f" x1="445.5" y1="426.21" x2="543.82" y2="426.21"/><line class="f" x1="423.53" y1="408.78" x2="442.01" y2="408.78"/><line class="f" x1="442.01" y1="408.78" x2="442.01" y2="426.21"/><line class="f" x1="433.99" y1="405.3" x2="445.5" y2="405.3"/><line class="f" x1="445.5" y1="405.3" x2="445.5" y2="426.21"/><line class="f" x1="246.77" y1="359.97" x2="334.98" y2="359.97"/><line class="f" x1="246.77" y1="357.53" x2="342.65" y2="357.53"/><line class="f" x1="334.97" y1="359.97" x2="334.97" y2="368.69"/><line class="f" x1="334.97" y1="396.58" x2="334.97" y2="426.21"/><line class="f" x1="337.42" y1="359.97" x2="337.42" y2="368.69"/><line class="f" x1="337.42" y1="368.69" x2="334.98" y2="368.69"/><line class="f" x1="337.42" y1="396.58" x2="334.98" y2="396.58"/><line class="f" x1="337.42" y1="396.58" x2="337.42" y2="426.21"/><line class="f" x1="367.05" y1="434.58" x2="365.31" y2="434.58"/><line class="f" x1="401.92" y1="434.58" x2="403.66" y2="434.58"/><line class="f" x1="423.53" y1="401.81" x2="421.09" y2="401.81"/><line class="f" x1="421.09" y1="401.81" x2="421.09" y2="408.78"/><line class="f" x1="421.09" y1="412.27" x2="421.09" y2="426.21"/><line class="f" x1="423.53" y1="426.21" x2="442.01" y2="426.21"/><line class="f" x1="402.61" y1="357.53" x2="423.53" y2="357.53"/><line class="f" x1="407.14" y1="426.21" x2="407.14" y2="412.27"/><line class="f" x1="403.66" y1="426.21" x2="403.66" y2="408.78"/><line class="f" x1="427.37" y1="249.8" x2="427.37" y2="281.87"/><g class="h"><path class="f" d="M459.44,249.8a32.07,32.07,0,0,1-32.07,32.07"/></g><line class="f" x1="349.62" y1="249.8" x2="349.62" y2="281.87"/><g class="h"><path class="f" d="M349.62,281.87a32.07,32.07,0,0,1-32.08-32.07"/></g><line class="f" x1="400.17" y1="430.57" x2="368.79" y2="430.57"/><line class="f" x1="400.17" y1="434.58" x2="368.79" y2="434.58"/><line class="f" x1="400.17" y1="430.57" x2="400.17" y2="399.19"/><g class="h"><path class="f" d="M368.79,430.57a31.38,31.38,0,0,1,31.38-31.38"/></g><line class="f" x1="400.17" y1="434.58" x2="400.17" y2="430.57"/><line class="f" x1="368.79" y1="430.57" x2="368.79" y2="434.58"/><line class="f" x1="368.79" y1="430.57" x2="367.05" y2="430.57"/><line class="f" x1="368.79" y1="434.58" x2="367.05" y2="434.58"/><line class="f" x1="401.92" y1="430.57" x2="400.17" y2="430.57"/><line class="f" x1="401.92" y1="434.58" x2="400.17" y2="434.58"/><line class="f" x1="372.28" y1="357.53" x2="344.39" y2="357.53"/><line class="f" x1="372.28" y1="357.53" x2="372.28" y2="329.64"/><g class="h"><path class="f" d="M344.39,357.53a27.89,27.89,0,0,1,27.89-27.89"/></g><line class="f" x1="372.28" y1="359.97" x2="372.28" y2="357.53"/><line class="f" x1="344.39" y1="357.53" x2="344.39" y2="359.97"/><line class="f" x1="344.39" y1="357.53" x2="342.65" y2="357.53"/><line class="f" x1="344.39" y1="359.97" x2="342.65" y2="359.97"/><line class="f" x1="374.02" y1="357.53" x2="372.28" y2="357.53"/><line class="f" x1="374.02" y1="359.97" x2="372.28" y2="359.97"/><line class="f" x1="372.28" y1="359.97" x2="365.31" y2="359.97"/><line class="f" x1="361.47" y1="359.97" x2="360.69" y2="359.97"/><line class="f" x1="356.85" y1="359.97" x2="356.07" y2="359.97"/><line class="f" x1="352.23" y1="359.97" x2="351.36" y2="359.97"/><line class="f" x1="351.36" y1="359.97" x2="344.39" y2="359.97"/><line class="f" x1="372.28" y1="357.53" x2="372.28" y2="356.66"/><line class="f" x1="372.28" y1="356.66" x2="375.77" y2="356.66"/><line class="f" x1="375.77" y1="356.66" x2="375.77" y2="357.53"/><line class="f" x1="372.28" y1="359.97" x2="372.28" y2="360.84"/><line class="f" x1="372.28" y1="360.84" x2="375.77" y2="360.84"/><line class="f" x1="375.77" y1="360.84" x2="375.77" y2="359.97"/><line class="f" x1="344.39" y1="356.66" x2="340.9" y2="356.66"/><line class="f" x1="340.9" y1="356.66" x2="340.9" y2="357.53"/><line class="f" x1="344.39" y1="359.97" x2="344.39" y2="360.84"/><line class="f" x1="344.39" y1="360.84" x2="340.9" y2="360.84"/><line class="f" x1="340.9" y1="360.84" x2="340.9" y2="359.97"/><line class="f" x1="337.42" y1="394.84" x2="337.42" y2="370.43"/><line class="f" x1="337.42" y1="394.84" x2="361.82" y2="394.84"/><g class="h"><path class="f" d="M337.42,370.43a24.41,24.41,0,0,1,24.4,24.41"/></g><line class="f" x1="334.97" y1="394.84" x2="337.41" y2="394.84"/><line class="f" x1="337.42" y1="370.43" x2="334.98" y2="370.43"/><line class="f" x1="337.42" y1="370.43" x2="337.42" y2="368.69"/><line class="f" x1="334.97" y1="370.43" x2="334.97" y2="368.69"/><line class="f" x1="337.42" y1="396.58" x2="337.42" y2="394.84"/><line class="f" x1="334.97" y1="396.58" x2="334.97" y2="394.84"/><line class="f" x1="334.97" y1="394.84" x2="334.97" y2="387.86"/><line class="f" x1="334.97" y1="384.03" x2="334.97" y2="383.24"/><line class="f" x1="334.97" y1="379.41" x2="334.97" y2="378.62"/><line class="f" x1="334.97" y1="377.4" x2="334.97" y2="370.43"/><line class="f" x1="337.42" y1="394.84" x2="338.29" y2="394.84"/><line class="f" x1="338.29" y1="394.84" x2="338.29" y2="398.32"/><line class="f" x1="338.29" y1="398.32" x2="337.42" y2="398.32"/><line class="f" x1="334.97" y1="394.84" x2="334.1" y2="394.84"/><line class="f" x1="334.1" y1="394.84" x2="334.1" y2="398.32"/><line class="f" x1="334.1" y1="398.32" x2="334.97" y2="398.32"/><line class="f" x1="338.29" y1="370.43" x2="338.29" y2="366.94"/><line class="f" x1="338.29" y1="366.94" x2="337.42" y2="366.94"/><line class="f" x1="334.97" y1="370.43" x2="334.1" y2="370.43"/><line class="f" x1="334.1" y1="370.43" x2="334.1" y2="366.94"/><line class="f" x1="334.1" y1="366.94" x2="334.97" y2="366.94"/><line class="f" x1="423.53" y1="400.07" x2="423.53" y2="372.17"/><line class="f" x1="423.53" y1="400.07" x2="451.42" y2="400.07"/><g class="h"><path class="f" d="M423.53,372.17a27.89,27.89,0,0,1,27.89,27.9"/></g><line class="f" x1="421.09" y1="400.07" x2="423.53" y2="400.07"/><line class="f" x1="423.53" y1="372.17" x2="421.09" y2="372.17"/><line class="f" x1="423.53" y1="372.17" x2="423.53" y2="370.43"/><line class="f" x1="421.09" y1="372.17" x2="421.09" y2="370.43"/><line class="f" x1="423.53" y1="401.81" x2="423.53" y2="400.07"/><line class="f" x1="421.09" y1="401.81" x2="421.09" y2="400.07"/><line class="f" x1="421.09" y1="400.07" x2="421.09" y2="393.09"/><line class="f" x1="421.09" y1="389.26" x2="421.09" y2="388.47"/><line class="f" x1="421.09" y1="384.64" x2="421.09" y2="383.85"/><line class="f" x1="421.09" y1="380.02" x2="421.09" y2="379.15"/><line class="f" x1="421.09" y1="379.15" x2="421.09" y2="372.17"/><line class="f" x1="423.53" y1="400.07" x2="424.4" y2="400.07"/><line class="f" x1="424.4" y1="400.07" x2="424.4" y2="403.55"/><line class="f" x1="424.4" y1="403.55" x2="423.53" y2="403.55"/><line class="f" x1="421.09" y1="400.07" x2="420.22" y2="400.07"/><line class="f" x1="420.22" y1="400.07" x2="420.22" y2="403.55"/><line class="f" x1="420.22" y1="403.55" x2="421.09" y2="403.55"/><line class="f" x1="424.4" y1="372.17" x2="424.4" y2="368.69"/><line class="f" x1="424.4" y1="368.69" x2="423.53" y2="368.69"/><line class="f" x1="421.09" y1="372.17" x2="420.22" y2="372.17"/><line class="f" x1="420.22" y1="372.17" x2="420.22" y2="368.69"/><line class="f" x1="420.22" y1="368.69" x2="421.09" y2="368.69"/><line class="f" x1="337.42" y1="426.21" x2="365.31" y2="426.21"/><line class="f" x1="466.76" y1="425.87" x2="466.76" y2="404.95"/><line class="f" x1="458.77" y1="412.94" x2="453.84" y2="417.87"/><line class="f" x1="453.84" y1="412.94" x2="458.77" y2="417.87"/><line class="f" x1="456.3" y1="418.89" x2="456.3" y2="411.92"/><line class="f" x1="459.79" y1="415.41" x2="452.82" y2="415.41"/><line class="f" x1="466.76" y1="425.87" x2="445.84" y2="425.87"/><line class="f" x1="466.76" y1="404.95" x2="445.84" y2="404.95"/><line class="f" x1="467.64" y1="406.69" x2="486.81" y2="406.69"/><line class="f" x1="486.81" y1="406.69" x2="486.81" y2="424.12"/><line class="f" x1="486.81" y1="424.12" x2="467.64" y2="424.12"/><line class="f" x1="467.64" y1="424.12" x2="467.64" y2="406.69"/><line class="f" x1="466.76" y1="404.95" x2="487.68" y2="404.95"/><line class="f" x1="466.76" y1="425.87" x2="487.68" y2="425.87"/><line class="f" x1="469.38" y1="408.43" x2="485.07" y2="408.43"/><line class="f" x1="485.07" y1="408.43" x2="485.07" y2="420.64"/><line class="f" x1="485.07" y1="420.64" x2="469.38" y2="420.64"/><line class="f" x1="469.38" y1="420.64" x2="469.38" y2="408.43"/><g class="h"><path class="f" d="M477.92,417.15a.7.7,0,1,0-1.39,0,.7.7,0,1,0,1.39,0"/></g><line class="f" x1="487.68" y1="425.87" x2="487.68" y2="404.95"/><line class="f" x1="487.68" y1="404.95" x2="508.6" y2="404.95"/><line class="f" x1="508.6" y1="404.95" x2="508.6" y2="425.87"/><line class="f" x1="508.6" y1="425.87" x2="487.68" y2="425.87"/><line class="f" x1="522.55" y1="404.95" x2="522.55" y2="384.03"/><line class="f" x1="522.55" y1="384.03" x2="543.47" y2="384.03"/><line class="f" x1="543.47" y1="384.03" x2="543.47" y2="404.95"/><line class="f" x1="543.47" y1="404.95" x2="522.55" y2="404.95"/><g class="h"><path class="f" d="M539.11,394.49a6.11,6.11,0,1,0-6.1,6.1,6.11,6.11,0,0,0,6.1-6.1"/><path class="f" d="M538.06,394.49a5.06,5.06,0,1,0-5,5.05,5.05,5.05,0,0,0,5-5.05"/></g><line class="f" x1="377.16" y1="359.97" x2="421.09" y2="359.97"/><line class="f" x1="421.09" y1="359.97" x2="421.09" y2="367.29"/><line class="f" x1="421.09" y1="367.29" x2="377.16" y2="367.29"/><line class="f" x1="377.16" y1="367.29" x2="377.16" y2="359.97"/><g class="h"><path class="f" d="M541.56,378.7a3.42,3.42,0,1,0-3.42,3.43,3.42,3.42,0,0,0,3.42-3.43"/></g><line class="f" x1="543.47" y1="384.03" x2="522.55" y2="384.03"/><line class="f" x1="522.55" y1="384.03" x2="522.55" y2="363.11"/><line class="f" x1="522.55" y1="363.11" x2="543.47" y2="363.11"/><line class="f" x1="543.47" y1="363.11" x2="543.47" y2="384.03"/><g class="h"><path class="f" d="M531.3,378.7a3.43,3.43,0,1,0-3.43,3.43,3.43,3.43,0,0,0,3.43-3.43"/><path class="f" d="M531.3,368.43a3.43,3.43,0,1,0-3.43,3.43,3.43,3.43,0,0,0,3.43-3.43"/></g><line class="f" x1="521.6" y1="365.96" x2="521.6" y2="381.18"/><line class="f" x1="445.5" y1="425.87" x2="445.5" y2="404.95"/><line class="f" x1="445.5" y1="404.95" x2="522.55" y2="404.95"/><line class="f" x1="522.55" y1="404.95" x2="522.55" y2="352.65"/><line class="f" x1="522.55" y1="352.65" x2="543.47" y2="352.65"/><line class="f" x1="543.47" y1="352.65" x2="543.47" y2="425.87"/><line class="f" x1="543.47" y1="425.87" x2="447.59" y2="425.87"/><line class="f" x1="377.16" y1="359.97" x2="421.09" y2="359.97"/><line class="f" x1="421.09" y1="359.97" x2="421.09" y2="367.29"/><line class="f" x1="421.09" y1="367.29" x2="377.16" y2="367.29"/><line class="f" x1="377.16" y1="367.29" x2="377.16" y2="359.97"/><line class="f" x1="275.53" y1="420.98" x2="334.97" y2="420.98"/><line class="f" x1="281.28" y1="360.84" x2="281.28" y2="364.33"/><line class="f" x1="281.28" y1="364.33" x2="302.2" y2="364.33"/><line class="f" x1="302.2" y1="364.33" x2="302.2" y2="360.84"/><line class="f" x1="302.2" y1="360.84" x2="301.16" y2="360.84"/><line class="f" x1="301.16" y1="360.84" x2="301.16" y2="363.28"/><line class="f" x1="301.16" y1="363.28" x2="282.33" y2="363.28"/><line class="f" x1="282.33" y1="363.28" x2="282.33" y2="360.84"/><line class="f" x1="282.33" y1="360.84" x2="281.28" y2="360.84"/><line class="f" x1="281.28" y1="360.84" x2="281.28" y2="364.33"/><line class="f" x1="302.2" y1="360.84" x2="302.2" y2="364.33"/><line class="f" x1="282.33" y1="360.84" x2="282.33" y2="363.28"/><line class="f" x1="301.16" y1="360.84" x2="301.16" y2="363.28"/><line class="f" x1="281.28" y1="364.33" x2="302.2" y2="364.33"/><line class="f" x1="281.28" y1="363.28" x2="302.2" y2="363.28"/><line class="f" x1="281.28" y1="360.84" x2="282.33" y2="360.84"/><line class="f" x1="301.16" y1="360.84" x2="302.2" y2="360.84"/><g class="h"><path class="f" d="M253.74,397.45a.87.87,0,1,0-.87.87.87.87,0,0,0,.87-.87"/></g><line class="f" x1="275.53" y1="402.68" x2="275.53" y2="360.84"/><line class="f" x1="275.53" y1="360.84" x2="247.64" y2="360.84"/><line class="f" x1="247.64" y1="360.84" x2="247.64" y2="402.68"/><line class="f" x1="247.64" y1="402.68" x2="275.53" y2="402.68"/><line class="f" x1="273.79" y1="397.45" x2="273.79" y2="366.07"/><line class="f" x1="270.3" y1="362.59" x2="252.87" y2="362.59"/><line class="f" x1="249.38" y1="366.07" x2="249.38" y2="397.45"/><line class="f" x1="252.87" y1="400.94" x2="270.3" y2="400.94"/><g class="h"><path class="f" d="M273.79,397.45a3.49,3.49,0,0,1-3.49,3.49"/><path class="f" d="M270.3,362.59a3.49,3.49,0,0,1,3.49,3.48"/><path class="f" d="M252.87,400.94a3.49,3.49,0,0,1-3.49-3.49"/><path class="f" d="M249.38,366.07a3.48,3.48,0,0,1,3.49-3.48"/></g><line class="f" x1="271.17" y1="407.04" x2="271.17" y2="426.21"/><line class="f" x1="271.17" y1="426.21" x2="246.77" y2="426.21"/><line class="f" x1="246.77" y1="426.21" x2="246.77" y2="407.04"/><line class="f" x1="246.77" y1="407.04" x2="271.17" y2="407.04"/><line class="f" x1="246.77" y1="403.55" x2="274.66" y2="403.55"/><line class="f" x1="274.66" y1="403.55" x2="274.66" y2="426.21"/><line class="f" x1="246.77" y1="403.55" x2="246.77" y2="359.97"/><line class="f" x1="271.17" y1="407.1" x2="274.66" y2="407.1"/><line class="f" x1="274.66" y1="407.1" x2="274.66" y2="403.61"/><line class="f" x1="274.66" y1="426.21" x2="334.98" y2="426.21"/><line class="f" x1="423.53" y1="405.3" x2="433.99" y2="405.3"/><line class="f" x1="423.53" y1="408.78" x2="423.53" y2="405.3"/><line class="f" x1="274.31" y1="255.03" x2="302.2" y2="255.03"/><line class="f" x1="302.2" y1="255.03" x2="302.2" y2="257.23"/><line class="f" x1="302.2" y1="257.22" x2="274.31" y2="257.22"/><line class="f" x1="274.31" y1="257.22" x2="274.31" y2="255.03"/><g class="h"><path class="f" d="M307.43,256.13a1.75,1.75,0,1,0-1.74,1.74,1.74,1.74,0,0,0,1.74-1.74"/></g><line class="f" x1="460.84" y1="255.03" x2="509.65" y2="255.03"/><line class="f" x1="509.65" y1="255.03" x2="509.65" y2="258.51"/><line class="f" x1="509.65" y1="258.51" x2="460.84" y2="258.51"/><line class="f" x1="460.84" y1="258.51" x2="460.84" y2="255.03"/><g class="h"><path class="f" d="M514.88,256.77a1.75,1.75,0,1,0-1.75,1.75,1.74,1.74,0,0,0,1.75-1.75"/></g><line class="f" x1="349.27" y1="239.34" x2="342.3" y2="239.34"/><line class="f" x1="338.46" y1="239.34" x2="337.68" y2="239.34"/><line class="f" x1="333.84" y1="239.34" x2="333.06" y2="239.34"/><line class="f" x1="329.22" y1="239.34" x2="324.86" y2="239.34"/><line class="f" x1="324.86" y1="239.34" x2="317.89" y2="239.34"/><line class="f" x1="459.09" y1="239.34" x2="452.12" y2="239.34"/><line class="f" x1="448.29" y1="239.34" x2="447.5" y2="239.34"/><line class="f" x1="443.67" y1="239.34" x2="442.88" y2="239.34"/><line class="f" x1="439.05" y1="239.34" x2="434.69" y2="239.34"/><line class="f" x1="434.69" y1="239.34" x2="427.72" y2="239.34"/><line class="f" x1="442.01" y1="426.21" x2="423.53" y2="426.21"/><line class="f" x1="423.53" y1="426.21" x2="423.53" y2="408.78"/><line class="f" x1="423.53" y1="408.78" x2="427.02" y2="422.73"/><line class="f" x1="427.02" y1="422.73" x2="442.01" y2="426.21"/><line class="f" x1="246.77" y1="407.04" x2="246.77" y2="426.21"/><line class="f" x1="246.77" y1="426.21" x2="271.17" y2="426.21"/><line class="f" x1="271.17" y1="426.21" x2="250.25" y2="422.73"/><line class="f" x1="250.25" y1="422.73" x2="246.77" y2="407.04"/><line class="f" x1="421.09" y1="426.21" x2="407.14" y2="426.21"/><line class="f" x1="407.14" y1="426.21" x2="407.14" y2="412.27"/><line class="f" x1="407.14" y1="412.27" x2="410.63" y2="422.73"/><line class="f" x1="410.63" y1="422.73" x2="421.09" y2="426.21"/><rect class="d" x="486.29" y="295.12" width="17.43" height="27.89"/><line class="f" x1="486.29" y1="295.12" x2="486.29" y2="323.02"/><line class="f" x1="503.72" y1="295.12" x2="486.29" y2="295.12"/><line class="f" x1="503.72" y1="323.01" x2="503.72" y2="295.12"/><line class="f" x1="486.29" y1="323.01" x2="503.72" y2="323.01"/><rect class="d" x="274.66" y="420.98" width="60.32" height="5.23"/><line class="f" x1="274.66" y1="420.98" x2="274.66" y2="426.21"/><line class="f" x1="334.97" y1="420.98" x2="274.66" y2="420.98"/><line class="f" x1="334.97" y1="426.21" x2="334.97" y2="420.98"/><line class="f" x1="274.66" y1="426.21" x2="334.98" y2="426.21"/><rect class="d" x="281.28" y="360.84" width="1.04" height="2.44"/><line class="f" x1="281.28" y1="360.84" x2="281.28" y2="363.28"/><line class="f" x1="282.33" y1="360.84" x2="281.28" y2="360.84"/><line class="f" x1="282.33" y1="363.28" x2="282.33" y2="360.84"/><line class="f" x1="281.28" y1="363.28" x2="282.33" y2="363.28"/><rect class="d" x="281.28" y="363.28" width="20.92" height="1.04"/><line class="f" x1="302.2" y1="364.33" x2="302.2" y2="363.28"/><line class="f" x1="281.28" y1="364.33" x2="302.2" y2="364.33"/><line class="f" x1="281.28" y1="363.28" x2="281.28" y2="364.33"/><line class="f" x1="302.2" y1="363.28" x2="281.28" y2="363.28"/><rect class="d" x="301.16" y="360.84" width="1.05" height="2.44"/><line class="f" x1="301.16" y1="360.84" x2="301.16" y2="363.28"/><line class="f" x1="302.2" y1="360.84" x2="301.16" y2="360.84"/><line class="f" x1="302.2" y1="363.28" x2="302.2" y2="360.84"/><line class="f" x1="301.16" y1="363.28" x2="302.2" y2="363.28"/><rect class="d" x="377.16" y="359.97" width="43.93" height="7.32"/><line class="f" x1="377.16" y1="359.97" x2="377.16" y2="367.29"/><line class="f" x1="421.09" y1="359.97" x2="377.16" y2="359.97"/><line class="f" x1="421.09" y1="367.29" x2="421.09" y2="359.97"/><line class="f" x1="377.16" y1="367.29" x2="421.09" y2="367.29"/><rect class="d" x="402.61" y="253.28" width="16.74" height="104.25"/><line class="f" x1="402.61" y1="253.29" x2="402.61" y2="357.53"/><line class="f" x1="419.35" y1="253.29" x2="402.61" y2="253.29"/><line class="f" x1="419.35" y1="357.53" x2="419.35" y2="253.29"/><line class="f" x1="402.61" y1="357.53" x2="419.35" y2="357.53"/><rect class="d" x="460.84" y="255.03" width="48.81" height="3.49"/><line class="f" x1="509.65" y1="258.51" x2="509.65" y2="255.03"/><line class="f" x1="460.84" y1="258.51" x2="509.65" y2="258.51"/><line class="f" x1="460.84" y1="255.03" x2="460.84" y2="258.51"/><line class="f" x1="509.65" y1="255.03" x2="460.84" y2="255.03"/><polygon class="i" points="514.88 256.77 514.36 258 513.13 258.51 511.9 258 511.39 256.77 511.9 255.54 513.13 255.03 514.36 255.54 514.88 256.77"/><g class="h"><path class="f" d="M514.88,256.77a1.75,1.75,0,1,1-3.49,0"/><path class="f" d="M511.39,256.77a1.75,1.75,0,0,1,3.49,0"/></g><rect class="d" x="274.31" y="255.03" width="27.89" height="2.2"/><line class="f" x1="302.2" y1="255.03" x2="274.31" y2="255.03"/><line class="f" x1="302.2" y1="257.22" x2="302.2" y2="255.03"/><line class="f" x1="274.31" y1="257.22" x2="302.2" y2="257.22"/><line class="f" x1="274.31" y1="255.03" x2="274.31" y2="257.23"/><polygon class="i" points="307.43 256.13 306.92 257.36 305.69 257.87 304.46 257.36 303.94 256.13 304.46 254.9 305.69 254.38 306.92 254.9 307.43 256.13"/><g class="h"><path class="f" d="M307.43,256.13a1.75,1.75,0,0,1-3.49,0"/><path class="f" d="M303.94,256.13a1.75,1.75,0,1,1,3.49,0"/></g><polygon class="i" points="246.77 273.51 246.77 336.26 257.23 336.26 309.52 336.26 312.19 335.73 314.45 334.22 315.97 331.96 316.5 329.29 316.5 280.48 315.97 277.81 314.45 275.55 312.19 274.04 309.52 273.51 246.77 273.51"/><rect class="d" x="246.77" y="261.3" width="10.46" height="12.2"/><rect class="d" x="246.77" y="336.26" width="10.46" height="12.2"/><line class="f" x1="258.36" y1="306.86" x2="255.34" y2="307.69"/><line class="f" x1="258.36" y1="277.58" x2="255.34" y2="278.42"/><line class="f" x1="316.5" y1="329.29" x2="316.5" y2="280.48"/><line class="f" x1="309.52" y1="273.51" x2="246.77" y2="273.51"/><line class="f" x1="246.77" y1="273.51" x2="246.77" y2="336.26"/><line class="f" x1="246.77" y1="336.26" x2="309.52" y2="336.26"/><line class="f" x1="246.77" y1="273.51" x2="246.77" y2="261.3"/><line class="f" x1="246.77" y1="261.3" x2="257.23" y2="261.3"/><line class="f" x1="257.23" y1="261.3" x2="257.23" y2="273.51"/><line class="f" x1="257.23" y1="273.51" x2="246.77" y2="273.51"/><line class="f" x1="246.77" y1="348.47" x2="246.77" y2="336.26"/><line class="f" x1="246.77" y1="336.26" x2="257.23" y2="336.26"/><line class="f" x1="257.23" y1="336.26" x2="257.23" y2="348.47"/><line class="f" x1="257.23" y1="348.47" x2="246.77" y2="348.47"/><line class="f" x1="269.96" y1="273.51" x2="269.96" y2="336.26"/><line class="f" x1="275.19" y1="273.51" x2="275.19" y2="336.26"/><g class="h"><path class="f" d="M264.68,302.24a97.6,97.6,0,0,1-.35-22.72"/><path class="f" d="M262.41,277.25h.1a1.87,1.87,0,0,1,1.87,1.87,1.83,1.83,0,0,1-.05.4"/><path class="f" d="M258.36,277.58a15.22,15.22,0,0,1,3.23-.35l.82,0"/><path class="f" d="M250.57,277.39c.84,0,1.69-.06,2.53-.06,1.75,0,3.51.08,5.26.25"/><path class="f" d="M250.07,277.85a.28.28,0,0,1,0-.09.39.39,0,0,1,.4-.39.2.2,0,0,1,.11,0"/><path class="f" d="M250.07,277.85q.57,7.48.57,15,0,4.74-.22,9.47"/><path class="f" d="M251.67,303.44a1.06,1.06,0,0,1-.31.05,1,1,0,0,1-1-1,.76.76,0,0,1,0-.21"/><path class="f" d="M251.67,303.44a45.6,45.6,0,0,1,6.71-.49,44.9,44.9,0,0,1,5.31.31"/><path class="f" d="M264.68,302.24a.67.67,0,0,1,0,.24.81.81,0,0,1-.81.81.83.83,0,0,1-.22,0"/><path class="f" d="M309.52,273.51a7,7,0,0,1,7,7"/><path class="f" d="M316.5,329.29a7,7,0,0,1-7,7"/><path class="f" d="M264.68,331.51a97.6,97.6,0,0,1-.35-22.72"/><path class="f" d="M262.41,306.53h.1a1.87,1.87,0,0,1,1.87,1.87,1.75,1.75,0,0,1-.05.4"/><path class="f" d="M258.36,306.86a14.6,14.6,0,0,1,3.23-.36c.27,0,.55,0,.82,0"/><path class="f" d="M250.57,306.66c.84,0,1.69-.06,2.53-.06,1.75,0,3.51.09,5.26.26"/><path class="f" d="M250.07,307.12a.19.19,0,0,1,0-.08.4.4,0,0,1,.4-.4l.11,0"/><path class="f" d="M250.07,307.12q.57,7.49.57,15c0,3.16-.07,6.31-.22,9.47"/><path class="f" d="M251.67,332.71a1.06,1.06,0,0,1-.31.05,1,1,0,0,1-1-1,.64.64,0,0,1,0-.2"/><path class="f" d="M251.67,332.71a47.14,47.14,0,0,1,12-.18"/><path class="f" d="M264.68,331.51a.69.69,0,0,1,0,.25.8.8,0,0,1-.81.8.83.83,0,0,1-.22,0"/></g><polygon class="i" points="511.39 288.21 510.88 288.59 510.69 289.2 510.69 327.2 510.88 327.83 511.39 328.24 510.9 328.45 510.69 328.94 510.69 329.99 511.16 331.73 512.44 333.01 514.18 333.47 539.63 333.47 540.12 333.27 540.33 332.78 540.33 260.95 540.12 260.46 539.63 260.26 511.39 260.26 510.93 260.41 510.66 260.82 510.69 261.31 510.69 287.1 510.75 287.84 511.39 288.21"/><polygon class="i" points="488.03 288.15 485.37 287.62 483.1 286.11 481.59 283.85 481.06 281.18 481.06 267.23 481.59 264.56 483.1 262.3 485.37 260.79 488.03 260.26 509.65 260.26 510.39 260.56 510.69 261.3 510.69 287.1 510.39 287.84 509.65 288.15 488.03 288.15"/><g class="h"><path class="f" d="M488,288.15a7,7,0,0,1-7-7"/></g><line class="f" x1="481.06" y1="281.18" x2="481.06" y2="267.23"/><g class="h"><path class="f" d="M481.06,267.23a7,7,0,0,1,7-7"/></g><line class="f" x1="488.03" y1="260.26" x2="509.65" y2="260.26"/><g class="h"><path class="f" d="M509.65,260.26a1,1,0,0,1,1,1.05"/></g><line class="f" x1="510.69" y1="261.3" x2="510.69" y2="287.1"/><g class="h"><path class="f" d="M510.69,287.1a1,1,0,0,1-1,1"/></g><line class="f" x1="509.65" y1="288.15" x2="488.03" y2="288.15"/><line class="f" x1="510.69" y1="328.94" x2="510.69" y2="329.99"/><line class="f" x1="514.18" y1="333.47" x2="539.63" y2="333.47"/><line class="f" x1="540.33" y1="332.78" x2="540.33" y2="328.94"/><line class="f" x1="539.63" y1="328.24" x2="511.39" y2="328.24"/><line class="f" x1="540.33" y1="328.94" x2="540.33" y2="288.15"/><line class="f" x1="540.33" y1="288.15" x2="537.89" y2="288.15"/><line class="f" x1="510.69" y1="289.2" x2="510.69" y2="327.2"/><line class="f" x1="511.74" y1="328.24" x2="529.22" y2="328.24"/><line class="f" x1="529.22" y1="288.15" x2="511.74" y2="288.15"/><line class="f" x1="537.89" y1="328.24" x2="531.31" y2="328.24"/><line class="f" x1="531.31" y1="288.15" x2="537.89" y2="288.15"/><line class="f" x1="510.69" y1="264.79" x2="510.69" y2="260.96"/><line class="f" x1="511.39" y1="260.26" x2="539.63" y2="260.26"/><line class="f" x1="540.33" y1="260.96" x2="540.33" y2="264.79"/><line class="f" x1="540.33" y1="264.79" x2="540.33" y2="288.15"/><line class="f" x1="540.33" y1="288.15" x2="537.89" y2="288.15"/><line class="f" x1="510.69" y1="287.1" x2="510.69" y2="266.53"/><line class="f" x1="529.22" y1="288.15" x2="511.74" y2="288.15"/><line class="f" x1="529.22" y1="288.15" x2="537.89" y2="288.15"/><line class="f" x1="481.06" y1="281.18" x2="481.06" y2="267.23"/><line class="f" x1="488.03" y1="260.26" x2="509.65" y2="260.26"/><line class="f" x1="510.69" y1="261.3" x2="510.69" y2="287.1"/><line class="f" x1="509.65" y1="288.15" x2="488.03" y2="288.15"/><line class="f" x1="538.93" y1="287.1" x2="538.93" y2="261.31"/><line class="f" x1="538.93" y1="289.2" x2="538.93" y2="327.2"/><g class="h"><path class="f" d="M540.33,332.78a.7.7,0,0,1-.7.69"/><path class="f" d="M539.63,328.24a.7.7,0,0,1,.7.7"/><path class="f" d="M510.69,328.94a.7.7,0,0,1,.7-.7"/><path class="f" d="M511.74,328.24a1,1,0,0,1-1.05-1"/><path class="f" d="M510.69,289.2a1,1,0,0,1,1.05-1.05"/><path class="f" d="M510.69,261a.7.7,0,0,1,.7-.7"/><path class="f" d="M539.63,260.26a.7.7,0,0,1,.7.7"/><path class="f" d="M511.74,288.15a1,1,0,0,1-1.05-1"/><path class="f" d="M509.65,260.26a1,1,0,0,1,1,1.05"/><path class="f" d="M510.69,287.1a1,1,0,0,1-1,1"/></g><line class="f" x1="538.93" y1="261.3" x2="515.18" y2="261.3"/><g class="h"><path class="f" d="M520,262.57a19.76,19.76,0,0,1,14.9,24.57"/><path class="f" d="M534.05,327.2a119.51,119.51,0,0,1,0-38"/><path class="f" d="M488,288.15a7,7,0,0,1-7-7"/><path class="f" d="M481.06,267.23a7,7,0,0,1,7-7"/><path class="f" d="M514.18,333.47a3.49,3.49,0,0,1-3.49-3.48"/></g><rect class="d" x="379.25" y="253.28" width="20.92" height="52.47"/><line class="f" x1="400.17" y1="305.76" x2="400.17" y2="253.29"/><line class="f" x1="400.17" y1="253.29" x2="379.25" y2="253.29"/><line class="f" x1="379.25" y1="253.29" x2="379.25" y2="305.76"/><line class="f" x1="379.25" y1="305.76" x2="400.17" y2="305.76"/><line class="f" x1="389.71" y1="303.13" x2="389.71" y2="255.91"/><line class="f" x1="395.87" y1="300.7" x2="383.33" y2="296.26"/><line class="f" x1="396.49" y1="295.69" x2="384.83" y2="293.86"/><line class="f" x1="382.17" y1="288.86" x2="394.97" y2="287.35"/><line class="f" x1="383.85" y1="281.12" x2="394.97" y2="283.17"/><line class="f" x1="383.21" y1="278.3" x2="396.91" y2="278.3"/><line class="f" x1="383.15" y1="270.33" x2="396.68" y2="272.22"/><line class="f" x1="383.38" y1="267.34" x2="395.74" y2="267.34"/><line class="f" x1="383.25" y1="259.47" x2="395.93" y2="257.96"/><line class="f" x1="384.11" y1="261.37" x2="394.83" y2="262.9"/><rect class="d" x="379.25" y="305.76" width="20.92" height="51.77"/><line class="f" x1="400.17" y1="357.53" x2="400.17" y2="305.76"/><line class="f" x1="400.17" y1="305.76" x2="379.25" y2="305.76"/><line class="f" x1="379.25" y1="305.76" x2="379.25" y2="357.53"/><line class="f" x1="379.25" y1="357.53" x2="400.17" y2="357.53"/><line class="f" x1="389.71" y1="354.94" x2="389.71" y2="308.35"/><line class="f" x1="395.87" y1="352.54" x2="383.33" y2="348.16"/><line class="f" x1="396.49" y1="347.6" x2="384.83" y2="345.79"/><line class="f" x1="382.17" y1="340.86" x2="394.97" y2="339.37"/><line class="f" x1="383.85" y1="333.22" x2="394.97" y2="335.25"/><line class="f" x1="383.21" y1="330.44" x2="396.91" y2="330.44"/><line class="f" x1="383.15" y1="322.58" x2="396.68" y2="324.44"/><line class="f" x1="383.38" y1="319.63" x2="395.74" y2="319.63"/><line class="f" x1="383.25" y1="311.86" x2="395.93" y2="310.37"/><line class="f" x1="384.11" y1="313.73" x2="394.83" y2="315.25"/><polygon class="i" points="464.35 350.97 467.7 349.56 471.31 349.06 474.92 349.51 478.29 350.89 478.27 343.08 477.8 341.34 476.52 340.07 474.77 339.61 467.8 339.66 466.06 340.13 464.79 341.42 464.33 343.17 464.35 350.97"/><polygon class="i" points="464.42 375.15 461.52 372.96 459.3 370.07 457.9 366.71 457.41 363.1 450.68 367.05 449.4 368.33 448.94 370.08 449.41 371.82 452.91 377.85 454.19 379.12 455.94 379.58 457.68 379.1 464.42 375.15"/><polygon class="i" points="485.29 362.94 484.82 366.56 483.44 369.93 481.24 372.84 478.35 375.07 485.11 378.94 486.86 379.39 488.6 378.92 489.87 377.63 493.34 371.56 493.8 369.82 493.33 368.07 492.05 366.8 485.29 362.94"/><polygon class="i" points="478.29 350.89 474.92 349.51 471.31 349.06 467.7 349.56 464.35 350.97 461.47 353.21 459.26 356.11 457.88 359.49 457.41 363.1 457.9 366.71 459.3 370.07 461.52 372.95 464.42 375.15 467.78 376.53 471.39 376.99 475 376.49 478.35 375.07 481.24 372.84 483.44 369.93 484.82 366.56 485.29 362.94 484.81 359.33 483.4 355.97 481.18 353.09 478.29 350.89"/><line class="f" x1="481.18" y1="353.09" x2="478.29" y2="350.89"/><line class="f" x1="483.4" y1="355.97" x2="481.18" y2="353.09"/><line class="f" x1="484.81" y1="359.33" x2="483.4" y2="355.97"/><line class="f" x1="485.29" y1="362.94" x2="484.81" y2="359.33"/><line class="f" x1="484.82" y1="366.56" x2="485.29" y2="362.94"/><line class="f" x1="483.44" y1="369.93" x2="484.82" y2="366.56"/><line class="f" x1="481.24" y1="372.84" x2="483.44" y2="369.93"/><line class="f" x1="478.35" y1="375.08" x2="481.24" y2="372.84"/><line class="f" x1="475" y1="376.49" x2="478.35" y2="375.08"/><line class="f" x1="471.39" y1="376.99" x2="475" y2="376.49"/><line class="f" x1="467.78" y1="376.53" x2="471.39" y2="376.99"/><line class="f" x1="464.42" y1="375.15" x2="467.78" y2="376.53"/><line class="f" x1="461.52" y1="372.96" x2="464.42" y2="375.15"/><line class="f" x1="459.3" y1="370.07" x2="461.52" y2="372.96"/><line class="f" x1="457.9" y1="366.71" x2="459.3" y2="370.07"/><line class="f" x1="457.41" y1="363.1" x2="457.9" y2="366.71"/><line class="f" x1="457.88" y1="359.49" x2="457.41" y2="363.1"/><line class="f" x1="459.26" y1="356.11" x2="457.88" y2="359.49"/><line class="f" x1="461.47" y1="353.21" x2="459.26" y2="356.11"/><line class="f" x1="464.35" y1="350.97" x2="461.47" y2="353.21"/><line class="f" x1="467.7" y1="349.56" x2="464.35" y2="350.97"/><line class="f" x1="471.31" y1="349.06" x2="467.7" y2="349.56"/><line class="f" x1="474.92" y1="349.52" x2="471.31" y2="349.06"/><line class="f" x1="478.29" y1="350.89" x2="474.92" y2="349.52"/><g class="h"><path class="f" d="M483.44,369.93a13.93,13.93,0,1,1-24.18-13.82"/><path class="f" d="M459.26,356.11a13.93,13.93,0,1,1,24.18,13.82"/></g><line class="f" x1="467.81" y1="341.4" x2="474.78" y2="341.36"/><line class="f" x1="478.27" y1="343.08" x2="478.29" y2="350.89"/><line class="f" x1="467.8" y1="339.66" x2="474.77" y2="339.61"/><line class="f" x1="464.35" y1="350.97" x2="464.33" y2="343.17"/><line class="f" x1="454.42" y1="376.96" x2="450.92" y2="370.94"/><line class="f" x1="450.68" y1="367.05" x2="457.41" y2="363.1"/><line class="f" x1="452.92" y1="377.85" x2="449.42" y2="371.82"/><line class="f" x1="464.42" y1="375.15" x2="457.68" y2="379.1"/><line class="f" x1="491.82" y1="370.7" x2="488.36" y2="376.77"/><line class="f" x1="485.11" y1="378.94" x2="478.35" y2="375.08"/><line class="f" x1="493.34" y1="371.56" x2="489.87" y2="377.63"/><line class="f" x1="485.29" y1="362.94" x2="492.05" y2="366.8"/><g class="h"><path class="f" d="M474.78,341.36a1.69,1.69,0,0,1,.87.23,1.73,1.73,0,0,1,.87,1.5"/><path class="f" d="M466.07,343.16a1.81,1.81,0,0,1,.23-.88,1.74,1.74,0,0,1,1.51-.88"/><path class="f" d="M474.77,339.62a3.46,3.46,0,0,1,1.75.45,3.5,3.5,0,0,1,1.75,3"/><path class="f" d="M464.32,343.17a3.52,3.52,0,0,1,3.48-3.51"/><path class="f" d="M450.92,370.94a1.76,1.76,0,0,1,0-1.75,2,2,0,0,1,.64-.64"/><path class="f" d="M456.8,377.59a1.72,1.72,0,0,1-1.74,0,1.84,1.84,0,0,1-.64-.63"/><path class="f" d="M449.41,371.82a3.53,3.53,0,0,1,0-3.49,3.49,3.49,0,0,1,1.28-1.28"/><path class="f" d="M457.68,379.1a3.49,3.49,0,0,1-3.48,0,3.39,3.39,0,0,1-1.28-1.27"/><path class="f" d="M488.36,376.77h0a1.74,1.74,0,0,1-2.38.65"/><path class="f" d="M491.18,368.32a1.76,1.76,0,0,1,.65,2.38"/><path class="f" d="M489.87,377.63h0a3.49,3.49,0,0,1-4.76,1.31"/><path class="f" d="M492.05,366.8a3.5,3.5,0,0,1,1.29,4.77"/></g><polygon class="i" points="326.59 420.99 308.46 420.99 308.09 420.83 307.94 420.46 307.94 406.17 308.09 405.8 308.46 405.64 326.59 405.64 326.96 405.8 327.12 406.17 327.12 420.46 326.96 420.83 326.59 420.99"/><line class="f" x1="326.59" y1="420.98" x2="308.46" y2="420.98"/><g class="h"><path class="f" d="M308.46,421a.52.52,0,0,1-.52-.52"/></g><line class="f" x1="307.94" y1="420.46" x2="307.94" y2="406.17"/><g class="h"><path class="f" d="M307.94,406.17a.53.53,0,0,1,.52-.53"/></g><line class="f" x1="308.46" y1="405.64" x2="326.59" y2="405.64"/><g class="h"><path class="f" d="M326.59,405.64a.53.53,0,0,1,.53.53"/></g><line class="f" x1="327.12" y1="406.17" x2="327.12" y2="420.46"/><g class="h"><path class="f" d="M327.12,420.46a.53.53,0,0,1-.53.53"/></g><line class="f" x1="325.55" y1="417.15" x2="309.51" y2="417.15"/><line class="f" x1="308.99" y1="416.63" x2="308.99" y2="407.21"/><line class="f" x1="309.51" y1="406.69" x2="325.55" y2="406.69"/><line class="f" x1="326.07" y1="407.21" x2="326.07" y2="416.63"/><g class="h"><path class="f" d="M309.51,417.15a.52.52,0,0,1-.52-.52"/><path class="f" d="M309,407.21a.52.52,0,0,1,.52-.52"/><path class="f" d="M325.55,406.69a.52.52,0,0,1,.52.52"/><path class="f" d="M326.07,416.63a.52.52,0,0,1-.52.52"/></g><polygon class="i" points="318.4 418.89 318.26 417.43 318.15 417.1 317.92 415.25 317.79 415.01 317.53 414.91 317.27 415.01 317.14 415.25 316.91 417.1 316.8 417.43 316.66 418.89 316.91 419.51 317.53 419.76 318.14 419.51 318.4 418.89"/><g class="h"><path class="f" d="M318.4,418.89a.87.87,0,1,1-1.74,0"/></g><line class="f" x1="316.8" y1="417.43" x2="316.66" y2="418.89"/><g class="h"><path class="f" d="M316.8,417.43a.76.76,0,0,1,.11-.33"/></g><line class="f" x1="317.14" y1="415.25" x2="316.91" y2="417.1"/><g class="h"><path class="f" d="M317.14,415.25a.39.39,0,0,1,.78,0"/></g><line class="f" x1="318.15" y1="417.1" x2="317.92" y2="415.25"/><g class="h"><path class="f" d="M318.15,417.1a.76.76,0,0,1,.11.33"/></g><line class="f" x1="318.4" y1="418.89" x2="318.26" y2="417.43"/><line class="f" x1="317.05" y1="418.03" x2="317.05" y2="417.51"/><line class="f" x1="318" y1="417.51" x2="318" y2="418.03"/><line class="f" x1="318" y1="418.03" x2="317.06" y2="418.03"/><g class="h"><path class="f" d="M317.05,417.51a.48.48,0,0,1,.48-.48.47.47,0,0,1,.47.48"/><path class="f" d="M316.91,417.1a.74.74,0,0,1,1.24,0"/></g><polygon class="i" points="298.06 420.99 298.06 409.48 297.79 407.76 297.01 406.2 295.79 404.95 293.81 403.91 291.61 403.55 289.4 403.91 287.43 404.95 286.21 406.2 285.43 407.76 285.16 409.48 285.16 420.99 298.06 420.99"/><line class="f" x1="285.16" y1="420.98" x2="285.16" y2="409.48"/><line class="f" x1="285.16" y1="420.98" x2="298.06" y2="420.98"/><line class="f" x1="298.06" y1="420.98" x2="298.06" y2="409.48"/><line class="f" x1="287.25" y1="416.8" x2="287.25" y2="409.48"/><line class="f" x1="295.97" y1="416.8" x2="295.97" y2="409.48"/><line class="f" x1="295.97" y1="416.8" x2="287.25" y2="416.8"/><g class="h"><path class="f" d="M285.16,409.48a5.68,5.68,0,0,1,2.26-4.53"/><path class="f" d="M295.79,405a5.66,5.66,0,0,1,2.27,4.53"/><path class="f" d="M287.42,405a7,7,0,0,1,8.37,0"/><path class="f" d="M295.79,405a5.66,5.66,0,0,1,2.27,4.53"/><path class="f" d="M291.61,403.55a6.94,6.94,0,0,1,4.18,1.4"/><path class="f" d="M294.54,406.62a3.59,3.59,0,0,1,1.43,2.86"/><path class="f" d="M288.68,406.62a4.87,4.87,0,0,1,5.86,0"/><path class="f" d="M287.25,409.48a3.59,3.59,0,0,1,1.43-2.86"/></g><polygon class="i" points="411.88 309.92 413.27 308.2 414.02 306.04 414.02 303.73 413.27 301.57 411.88 299.85 411.88 288.99 409.94 288.99 408.01 296.94 408.01 299.25 406.95 302.95 406.95 306.82 408.01 310.52 408.01 312.83 409.94 320.78 411.88 320.78 411.88 309.92"/><line class="f" x1="411.88" y1="320.78" x2="411.88" y2="309.92"/><line class="f" x1="409.94" y1="320.78" x2="411.88" y2="320.78"/><line class="f" x1="408.01" y1="312.83" x2="409.94" y2="320.78"/><line class="f" x1="408.01" y1="310.52" x2="408.01" y2="312.83"/><line class="f" x1="406.95" y1="306.82" x2="408.01" y2="310.52"/><line class="f" x1="406.95" y1="302.95" x2="406.95" y2="306.82"/><line class="f" x1="408.01" y1="299.25" x2="406.95" y2="302.95"/><line class="f" x1="408.01" y1="296.94" x2="408.01" y2="299.25"/><line class="f" x1="409.94" y1="288.99" x2="408.01" y2="296.94"/><line class="f" x1="411.88" y1="288.99" x2="409.94" y2="288.99"/><line class="f" x1="411.88" y1="299.85" x2="411.88" y2="288.99"/><line class="f" x1="413.27" y1="301.57" x2="411.88" y2="299.85"/><line class="f" x1="414.02" y1="303.73" x2="413.27" y2="301.57"/><line class="f" x1="414.02" y1="306.04" x2="414.02" y2="303.73"/><line class="f" x1="413.27" y1="308.2" x2="414.02" y2="306.04"/><line class="f" x1="411.88" y1="309.92" x2="413.27" y2="308.2"/><line class="f" x1="411.88" y1="320.78" x2="411.88" y2="288.99"/><line class="f" x1="408.01" y1="296.94" x2="408.01" y2="312.83"/><line class="f" x1="409.94" y1="320.78" x2="411.88" y2="320.78"/><line class="f" x1="411.1" y1="291.11" x2="411.1" y2="293.23"/><line class="f" x1="411.1" y1="293.23" x2="410.62" y2="293.23"/><line class="f" x1="410.62" y1="293.23" x2="410.62" y2="291.11"/><line class="f" x1="410.62" y1="291.11" x2="411.1" y2="291.11"/><line class="f" x1="411.1" y1="293.76" x2="411.1" y2="295.88"/><line class="f" x1="411.1" y1="295.88" x2="410.62" y2="295.88"/><line class="f" x1="410.62" y1="295.88" x2="410.62" y2="293.76"/><line class="f" x1="410.62" y1="293.76" x2="411.1" y2="293.76"/><line class="f" x1="409.94" y1="320.78" x2="409.94" y2="288.99"/><line class="f" x1="410.62" y1="296.41" x2="411.1" y2="296.41"/><line class="f" x1="411.1" y1="296.41" x2="411.1" y2="297.47"/><line class="f" x1="411.1" y1="297.47" x2="410.62" y2="297.47"/><line class="f" x1="410.62" y1="297.47" x2="410.62" y2="296.41"/><g class="h"><path class="f" d="M411.88,299.85a6.78,6.78,0,0,1,0,10.07"/></g><line class="f" x1="365.31" y1="426.21" x2="372.28" y2="426.21"/><line class="f" x1="376.11" y1="426.21" x2="376.9" y2="426.21"/><line class="f" x1="380.73" y1="426.21" x2="381.52" y2="426.21"/><line class="f" x1="385.35" y1="426.21" x2="392.33" y2="426.21"/><line class="f" x1="396.16" y1="426.21" x2="396.69" y2="426.21"/><line class="f" x1="396.69" y1="426.21" x2="403.66" y2="426.21"/><line class="f" x1="495.75" y1="418.55" x2="495.75" y2="412.7"/><line class="f" x1="495.75" y1="412.7" x2="498.12" y2="414.62"/><line class="f" x1="498.12" y1="414.62" x2="500.5" y2="412.7"/><line class="f" x1="500.5" y1="412.7" x2="500.5" y2="418.55"/><line class="f" x1="243.19" y1="187.04" x2="548" y2="187.04"/><line class="f" x1="243.19" y1="185.3" x2="548" y2="185.3"/><line class="f" x1="243.19" y1="183.56" x2="548" y2="183.56"/><line class="f" x1="238.4" y1="434.58" x2="552.18" y2="434.58"/><line class="f" x1="552.18" y1="434.58" x2="552.18" y2="239.34"/><line class="f" x1="552.18" y1="239.34" x2="548" y2="239.34"/><line class="f" x1="548" y1="239.34" x2="548" y2="183.54"/><line class="f" x1="548" y1="183.54" x2="243.19" y2="183.54"/><line class="f" x1="243.19" y1="183.54" x2="243.19" y2="239.34"/><line class="f" x1="243.19" y1="239.34" x2="238.4" y2="239.34"/><line class="f" x1="238.4" y1="239.34" x2="238.4" y2="434.58"/><path class="j" d="M377.1,381.23v7h-.72v-6.35h-1.65v-.64Z"/><path class="j" d="M378.78,387.72a.53.53,0,0,1,.53-.54.54.54,0,0,1,.54.54.55.55,0,0,1-.54.55A.54.54,0,0,1,378.78,387.72Z"/><path class="j" d="M380.79,384.72c0-2.22,1.17-3.55,2.79-3.55s2.8,1.33,2.8,3.55-1.18,3.56-2.8,3.56S380.79,387,380.79,384.72Zm4.85,0c0-1.87-.84-2.89-2.06-2.89s-2.06,1-2.06,2.89.84,2.9,2.06,2.9S385.64,386.59,385.64,384.72Z"/><path class="j" d="M389.34,381.23v7h-.72v-6.35H387v-.64Z"/><path class="j" d="M448.8,303.65v7h-.72v-6.35h-1.65v-.64Z"/><path class="j" d="M450.48,310.14a.53.53,0,0,1,.53-.54.54.54,0,0,1,.54.54.55.55,0,0,1-.54.55A.54.54,0,0,1,450.48,310.14Z"/><path class="j" d="M452.49,307.14c0-2.23,1.17-3.55,2.79-3.55s2.8,1.32,2.8,3.55-1.18,3.56-2.8,3.56S452.49,309.37,452.49,307.14Zm4.85,0c0-1.87-.84-2.89-2.06-2.89s-2.06,1-2.06,2.89.84,2.9,2.06,2.9S457.34,309,457.34,307.14Z"/><path class="j" d="M463.88,310v.64H459v-.51l2.91-2.85c.79-.78.94-1.25.94-1.73,0-.8-.57-1.3-1.64-1.3a2.4,2.4,0,0,0-1.91.77l-.51-.44a3.17,3.17,0,0,1,2.48-1c1.42,0,2.32.71,2.32,1.88a2.88,2.88,0,0,1-1.15,2.19L460,310Z"/><path class="j" d="M342.84,303.65v7h-.72v-6.35h-1.65v-.64Z"/><path class="j" d="M344.52,310.14a.53.53,0,0,1,.53-.54.54.54,0,0,1,.54.54.55.55,0,0,1-.54.55A.54.54,0,0,1,344.52,310.14Z"/><path class="j" d="M346.53,307.14c0-2.23,1.17-3.55,2.79-3.55s2.8,1.32,2.8,3.55-1.18,3.56-2.8,3.56S346.53,309.37,346.53,307.14Zm4.85,0c0-1.87-.84-2.89-2.06-2.89s-2.06,1-2.06,2.89.84,2.9,2.06,2.9S351.38,309,351.38,307.14Z"/><path class="j" d="M357.69,308.63c0,1.17-.85,2.07-2.54,2.07a3.64,3.64,0,0,1-2.52-.9l.35-.57a3.07,3.07,0,0,0,2.17.81c1.16,0,1.8-.54,1.8-1.41s-.59-1.39-1.89-1.39h-.5v-.53l1.94-2.42h-3.58v-.64h4.5v.51l-2,2.48C356.94,306.72,357.69,307.51,357.69,308.63Z"/><path class="j" d="M297.53,380.48v7h-.72v-6.35h-1.65v-.64Z"/><path class="j" d="M299.21,387a.53.53,0,0,1,.53-.54.54.54,0,0,1,.54.54.55.55,0,0,1-.54.55A.54.54,0,0,1,299.21,387Z"/><path class="j" d="M301.22,384c0-2.22,1.17-3.55,2.79-3.55s2.8,1.33,2.8,3.55-1.18,3.56-2.8,3.56S301.22,386.2,301.22,384Zm4.85,0c0-1.87-.84-2.89-2.06-2.89S302,382.1,302,384s.84,2.9,2.06,2.9S306.07,385.84,306.07,384Z"/><path class="j" d="M313.79,385.63h-1.4v1.84h-.72v-1.84h-3.95v-.52l3.71-4.63h.8L308.65,385h3v-1.62h.7V385h1.4Z"/><path class="j" d="M448.8,209.23v7h-.72v-6.35h-1.65v-.64Z"/><path class="j" d="M450.48,215.72a.53.53,0,0,1,.53-.54.54.54,0,0,1,.54.54.55.55,0,0,1-.54.55A.54.54,0,0,1,450.48,215.72Z"/><path class="j" d="M452.49,212.72c0-2.22,1.17-3.55,2.79-3.55s2.8,1.33,2.8,3.55-1.18,3.56-2.8,3.56S452.49,215,452.49,212.72Zm4.85,0c0-1.87-.84-2.89-2.06-2.89s-2.06,1-2.06,2.89.84,2.9,2.06,2.9S457.34,214.59,457.34,212.72Z"/><path class="j" d="M463.86,214.16c0,1.19-.83,2.12-2.54,2.12a3.61,3.61,0,0,1-2.51-.9l.35-.57a3,3,0,0,0,2.15.81c1.19,0,1.82-.58,1.82-1.43s-.56-1.46-2.34-1.46H459.3l.36-3.5h3.83v.64h-3.2l-.24,2.22h.9C463.06,212.09,463.86,212.92,463.86,214.16Z"/></svg>