<svg xmlns="http://www.w3.org/2000/svg" xmlns:xlink="http://www.w3.org/1999/xlink" viewBox="0 0 790.58 618.13"><defs><style>.a,.f{fill:none;}.b{fill:#595a5c;}.c{fill:#b6906c;}.d,.g{fill:#fff;}.e{fill:#231f20;}.f{stroke:#000;stroke-linecap:round;stroke-linejoin:round;stroke-width:0.34px;}.g,.h{fill-rule:evenodd;}.i{clip-path:url(#a);}.j{fill:#58595b;}</style><clipPath id="a"><polygon class="a" points="261.92 184.67 261.92 239.97 257.95 239.97 257.95 433.46 532.64 433.46 532.64 239.97 528.84 239.97 528.84 184.67 261.92 184.67"/></clipPath></defs><path class="b" d="M55.31,597.13H57.1V609.9H55.31Zm.92,6.11h4.09a1.89,1.89,0,0,0,1-.27,1.82,1.82,0,0,0,.68-.77,2.67,2.67,0,0,0,.24-1.16,2.7,2.7,0,0,0-.24-1.16,1.82,1.82,0,0,0-1.7-1H56.23v-1.7h4a4.09,4.09,0,0,1,2,.48A3.45,3.45,0,0,1,63.62,599a4.64,4.64,0,0,1,0,4.11,3.34,3.34,0,0,1-1.35,1.36,4,4,0,0,1-2,.49h-4Z"/><path class="b" d="M67.7,606.33a2.07,2.07,0,0,0,.49,1.48,1.76,1.76,0,0,0,1.37.52,1.89,1.89,0,0,0,1.37-.46,1.79,1.79,0,0,0,.48-1.33l.12,1.91A2.58,2.58,0,0,1,69.06,610a2.89,2.89,0,0,1-2.33-1,4.08,4.08,0,0,1-.82-2.73v-5.55H67.7Zm.22-7.86a1.93,1.93,0,0,1-.56-1.5,2.07,2.07,0,0,1,.56-1.57,2.56,2.56,0,0,1,3.18,0,2.08,2.08,0,0,1,.57,1.56,1.94,1.94,0,0,1-.57,1.5,2.65,2.65,0,0,1-3.18,0Zm2.26-.86a.94.94,0,0,0,.24-.68,1,1,0,0,0-.24-.7.91.91,0,0,0-.67-.25.92.92,0,0,0-.67.25,1,1,0,0,0-.23.7,1,1,0,0,0,.23.68.92.92,0,0,0,.67.24A.9.9,0,0,0,70.18,597.61Zm1.23,3.17h1.78v9.12H71.41Z"/><path class="b" d="M77.1,609.63A2.82,2.82,0,0,1,76,608.36a5.08,5.08,0,0,1-.36-2v-2a5.05,5.05,0,0,1,.36-2,2.71,2.71,0,0,1,1-1.27,3,3,0,0,1,1.65-.44,2.71,2.71,0,0,1,1.48.42,3.22,3.22,0,0,1,1.09,1.19l-.18,1.86a2.19,2.19,0,0,0-.22-1,1.48,1.48,0,0,0-.61-.63,2,2,0,0,0-1-.21,1.71,1.71,0,0,0-1.37.55,2.26,2.26,0,0,0-.49,1.56v2a2.19,2.19,0,0,0,.49,1.54,1.74,1.74,0,0,0,1.37.54,1.93,1.93,0,0,0,1-.23,1.45,1.45,0,0,0,.61-.64,2.25,2.25,0,0,0,.22-1l.12,1.92a2.66,2.66,0,0,1-.89,1.14,2.56,2.56,0,0,1-1.53.45A3.19,3.19,0,0,1,77.1,609.63Zm4-12.5H82.9V609.9H81.11Z"/><path class="b" d="M87.09,609.57a3.09,3.09,0,0,1-1.29-1.36,4.85,4.85,0,0,1-.44-2.15v-1.48a4.71,4.71,0,0,1,.44-2.12,3.12,3.12,0,0,1,1.29-1.35,4.71,4.71,0,0,1,4.06,0,3.12,3.12,0,0,1,1.29,1.35,4.71,4.71,0,0,1,.44,2.12v1.51a4.79,4.79,0,0,1-.44,2.13,3.12,3.12,0,0,1-1.29,1.35,4.62,4.62,0,0,1-4.06,0Zm3.49-1.83a2.43,2.43,0,0,0,.51-1.65v-1.51a2.43,2.43,0,0,0-.51-1.65,1.88,1.88,0,0,0-1.46-.58,1.85,1.85,0,0,0-1.45.58,2.38,2.38,0,0,0-.52,1.65v1.51a2.38,2.38,0,0,0,.52,1.65,1.82,1.82,0,0,0,1.45.59A1.85,1.85,0,0,0,90.58,607.74Z"/><path class="b" d="M95.43,600.78h1.79v9.12H95.43Zm4.42,1.72a2.16,2.16,0,0,0-.83-.15,1.83,1.83,0,0,0-1.33.47,1.79,1.79,0,0,0-.47,1.31L97,602.37a3.32,3.32,0,0,1,1.09-1.27,2.58,2.58,0,0,1,1.48-.45,3.39,3.39,0,0,1,1.13.18,2.62,2.62,0,0,1,.88.53l-1.17,1.58A1.56,1.56,0,0,0,99.85,602.5Z"/><path class="b" d="M102.15,600.78H104l2.81,7.93-1,1.94Zm8.07,0L106.34,612a2.6,2.6,0,0,1-.56,1,1.87,1.87,0,0,1-.84.52,4,4,0,0,1-1.23.16h-.36V612h.36a1.46,1.46,0,0,0,.8-.2,1.74,1.74,0,0,0,.51-.7l3.38-10.31Z"/><path class="b" d="M113.51,609.88a5.76,5.76,0,0,1-1.32-.48,4.89,4.89,0,0,1-1.13-.79l1.06-1.31a5.86,5.86,0,0,0,1.47.85,4.18,4.18,0,0,0,1.44.28,3.11,3.11,0,0,0,1.6-.33,1.1,1.1,0,0,0,.53-1,.79.79,0,0,0-.29-.66,1.66,1.66,0,0,0-.72-.29c-.29,0-.69-.1-1.22-.14h-.15l-.14,0h-.15a6.45,6.45,0,0,1-1.5-.26,2,2,0,0,1-1-.7,2.38,2.38,0,0,1-.41-1.49,3.07,3.07,0,0,1,.39-1.61,2.41,2.41,0,0,1,1.18-1,5.29,5.29,0,0,1,2-.32,6.38,6.38,0,0,1,2.6.52,6.16,6.16,0,0,1,1.13.66l-1.08,1.31a5.59,5.59,0,0,0-1.35-.66,4,4,0,0,0-1.3-.22,2.44,2.44,0,0,0-1.37.31,1.08,1.08,0,0,0-.46.94.64.64,0,0,0,.26.55,1.72,1.72,0,0,0,.66.25c.26,0,.64.07,1.12.1h.34a7.67,7.67,0,0,1,1.63.25,2.24,2.24,0,0,1,1.13.77,2.62,2.62,0,0,1,.45,1.65,2.92,2.92,0,0,1-.42,1.63,2.54,2.54,0,0,1-1.27,1A5.88,5.88,0,0,1,115,610,7.38,7.38,0,0,1,113.51,609.88Z"/><path class="b" d="M126,597.13h1.8V609.9H126Zm2.6,12.5a2.39,2.39,0,0,1-.93-1.16l.13-1.91a2.22,2.22,0,0,0,.21,1,1.48,1.48,0,0,0,.61.63,1.93,1.93,0,0,0,1,.22,1.74,1.74,0,0,0,1.37-.54,2.18,2.18,0,0,0,.49-1.53v-2a2.26,2.26,0,0,0-.49-1.56,1.71,1.71,0,0,0-1.37-.55,2,2,0,0,0-1,.21,1.36,1.36,0,0,0-.61.62,2.12,2.12,0,0,0-.21,1l-.19-1.76a3.37,3.37,0,0,1,1.08-1.24,2.67,2.67,0,0,1,1.49-.43,3,3,0,0,1,1.65.43,2.9,2.9,0,0,1,1.06,1.27,5.1,5.1,0,0,1,.36,2v2a4.94,4.94,0,0,1-.37,2,2.79,2.79,0,0,1-1.08,1.26,3.25,3.25,0,0,1-1.71.44A2.73,2.73,0,0,1,128.57,609.63Z"/><path class="b" d="M134.46,600.78h1.82l2.81,7.93-1,1.94Zm8.07,0L138.65,612a2.6,2.6,0,0,1-.56,1,1.87,1.87,0,0,1-.84.52,4,4,0,0,1-1.23.16h-.36V612H136a1.46,1.46,0,0,0,.8-.2,1.74,1.74,0,0,0,.51-.7l3.37-10.31Z"/><path class="b" d="M143.57,600.78h4.12v1.62h-4.12Zm1.46,8.56a2.77,2.77,0,0,1-.52-1.81v-9.4h1.8v9.42a.84.84,0,0,0,.13.51.46.46,0,0,0,.39.18h.86V610h-1A2,2,0,0,1,145,609.34Z"/><path class="b" d="M151.94,606.33a2.07,2.07,0,0,0,.49,1.48,1.76,1.76,0,0,0,1.37.52,1.91,1.91,0,0,0,1.37-.46,1.79,1.79,0,0,0,.48-1.33l.12,1.91A2.58,2.58,0,0,1,153.3,610a2.89,2.89,0,0,1-2.33-1,4.08,4.08,0,0,1-.82-2.73v-5.55h1.79Zm3.71-5.55h1.78v9.12h-1.78Z"/><rect class="c" x="612.92" y="591.68" width="35.43" height="2.83"/><path class="d" d="M648.48,594.64H612.79v-3.08h35.69ZM613,594.39h35.19v-2.58H613Z"/><rect class="c" x="612.92" y="601.6" width="70.74" height="2.83"/><path class="d" d="M683.78,604.56h-71v-3.08h71ZM613,604.31h70.49v-2.58H613Z"/><rect class="c" x="612.92" y="612.72" width="177.16" height="2.84"/><path class="d" d="M790.21,615.68H612.79V612.6H790.21ZM613,615.43H790v-2.58H613Z"/><path class="e" d="M587.26,596.28h-.8v-4.82l-.81.5v-.83l.81-.53h.8Z"/><path class="e" d="M589,595.91a1.67,1.67,0,0,1-.41-1.19v-2.58A1.65,1.65,0,0,1,589,591a2,2,0,0,1,2.42,0,1.65,1.65,0,0,1,.41,1.19v2.58a1.65,1.65,0,0,1-.41,1.19,2,2,0,0,1-2.42,0Zm1.83-.55a.89.89,0,0,0,.2-.64v-2.58a.89.89,0,0,0-.2-.64.82.82,0,0,0-.62-.22.86.86,0,0,0-.63.22.94.94,0,0,0-.2.64v2.58a.9.9,0,0,0,.21.64,1,1,0,0,0,1.24,0Z"/><path class="e" d="M593.22,595.91a1.67,1.67,0,0,1-.41-1.19v-2.58a1.65,1.65,0,0,1,.41-1.19,2,2,0,0,1,2.42,0,1.61,1.61,0,0,1,.41,1.19v2.58a1.65,1.65,0,0,1-.41,1.19,2,2,0,0,1-2.42,0Zm1.83-.55a.9.9,0,0,0,.21-.64v-2.58a.94.94,0,0,0-.2-.64.86.86,0,0,0-.63-.22.82.82,0,0,0-.62.22.89.89,0,0,0-.2.64v2.58a.89.89,0,0,0,.2.64,1,1,0,0,0,1.24,0Z"/><path class="e" d="M600.1,596.13a1.45,1.45,0,0,1-.6-.6,2.06,2.06,0,0,1-.21-1v-.67a2,2,0,0,1,.21-.94,1.37,1.37,0,0,1,.6-.59,2,2,0,0,1,.95-.21,2.21,2.21,0,0,1,.59.08,1.68,1.68,0,0,1,.51.22,1.54,1.54,0,0,1,.37.35l-.58.52a1.17,1.17,0,0,0-.4-.3,1.13,1.13,0,0,0-.48-.11.94.94,0,0,0-.71.26,1,1,0,0,0-.26.72v.67a1,1,0,0,0,.25.74.94.94,0,0,0,.72.27,1,1,0,0,0,.48-.12,1,1,0,0,0,.4-.32l.58.56a1.38,1.38,0,0,1-.38.34,1.62,1.62,0,0,1-.5.22,2.27,2.27,0,0,1-.59.07A2.12,2.12,0,0,1,600.1,596.13Z"/><path class="e" d="M603.4,592.22h.79v4.06h-.79Zm2.42,1.6a1,1,0,0,0-.21-.67.78.78,0,0,0-.6-.23.81.81,0,0,0-.6.21.73.73,0,0,0-.22.58l-.08-.78a1.46,1.46,0,0,1,.49-.57,1.22,1.22,0,0,1,.67-.2,1.33,1.33,0,0,1,.73.2,1.18,1.18,0,0,1,.46.56,2.4,2.4,0,0,1,.15.89v2.47h-.79Zm2.42,0a.93.93,0,0,0-.22-.67.85.85,0,0,0-.63-.23.72.72,0,0,0-.57.23.9.9,0,0,0-.21.64l-.16-.78a1.61,1.61,0,0,1,.51-.63,1.23,1.23,0,0,1,.69-.22,1.37,1.37,0,0,1,.75.2,1.09,1.09,0,0,1,.47.56,2.21,2.21,0,0,1,.17.89v2.47h-.8Z"/><path class="e" d="M584.33,605.5l2-2.64a1.85,1.85,0,0,0,.27-.47,1.29,1.29,0,0,0,.09-.45h0a.67.67,0,0,0-.2-.53.81.81,0,0,0-.56-.19.76.76,0,0,0-.56.21,1,1,0,0,0-.27.58h-.82a2,2,0,0,1,.29-.83,1.42,1.42,0,0,1,.56-.53,1.67,1.67,0,0,1,.79-.18,1.93,1.93,0,0,1,.87.17,1.21,1.21,0,0,1,.54.51,1.55,1.55,0,0,1,.19.8h0a1.84,1.84,0,0,1-.12.63,2.8,2.8,0,0,1-.35.63l-1.65,2.24h2.15v.76h-3.2Z"/><path class="e" d="M589,605.83a1.67,1.67,0,0,1-.41-1.19v-2.58a1.65,1.65,0,0,1,.41-1.19,2,2,0,0,1,2.42,0,1.65,1.65,0,0,1,.41,1.19v2.58a1.65,1.65,0,0,1-.41,1.19,2,2,0,0,1-2.42,0Zm1.83-.55a.89.89,0,0,0,.2-.64v-2.58a.89.89,0,0,0-.2-.64.82.82,0,0,0-.62-.22.86.86,0,0,0-.63.22.94.94,0,0,0-.19.64v2.58a.89.89,0,0,0,.2.64,1,1,0,0,0,1.24,0Z"/><path class="e" d="M593.22,605.83a1.67,1.67,0,0,1-.41-1.19v-2.58a1.61,1.61,0,0,1,.42-1.19,1.59,1.59,0,0,1,1.2-.42,1.45,1.45,0,0,1,1.62,1.61v2.58a1.61,1.61,0,0,1-.41,1.19,2,2,0,0,1-2.42,0Zm1.84-.55a.94.94,0,0,0,.2-.64v-2.58a.94.94,0,0,0-.2-.64.84.84,0,0,0-.63-.22.82.82,0,0,0-.62.22.89.89,0,0,0-.2.64v2.58a.89.89,0,0,0,.2.64.82.82,0,0,0,.62.22A.86.86,0,0,0,595.06,605.28Z"/><path class="e" d="M600.1,606.05a1.45,1.45,0,0,1-.6-.6,2.06,2.06,0,0,1-.2-1v-.67a2,2,0,0,1,.2-.94,1.37,1.37,0,0,1,.6-.59,2,2,0,0,1,.95-.21,2.35,2.35,0,0,1,.6.08,1.73,1.73,0,0,1,.5.22,1.38,1.38,0,0,1,.37.35l-.58.52a1.08,1.08,0,0,0-.4-.3,1.13,1.13,0,0,0-.48-.11,1,1,0,0,0-.71.26,1,1,0,0,0-.26.72v.67a1,1,0,0,0,.25.74.94.94,0,0,0,.72.27,1.14,1.14,0,0,0,.88-.44l.58.56a1.38,1.38,0,0,1-.38.34,1.62,1.62,0,0,1-.5.22,2.22,2.22,0,0,1-.59.07A2.12,2.12,0,0,1,600.1,606.05Z"/><path class="e" d="M603.4,602.14h.79v4.06h-.79Zm2.42,1.6a1,1,0,0,0-.21-.67.78.78,0,0,0-.6-.23.81.81,0,0,0-.6.21.73.73,0,0,0-.22.58l-.08-.78a1.46,1.46,0,0,1,.49-.57,1.22,1.22,0,0,1,.67-.2,1.3,1.3,0,0,1,.73.2,1.18,1.18,0,0,1,.46.56,2.4,2.4,0,0,1,.16.89v2.47h-.8Zm2.42,0a.93.93,0,0,0-.22-.67.85.85,0,0,0-.63-.23.73.73,0,0,0-.57.23.89.89,0,0,0-.2.64l-.16-.78a1.51,1.51,0,0,1,.5-.63,1.23,1.23,0,0,1,.69-.22,1.35,1.35,0,0,1,.75.2,1.16,1.16,0,0,1,.48.56,2.4,2.4,0,0,1,.16.89v2.47h-.8Z"/><path class="e" d="M585,615.58a1.34,1.34,0,0,1-.54-.49,2,2,0,0,1-.28-.77h.8a.75.75,0,0,0,.25.49.85.85,0,0,0,.54.17.72.72,0,0,0,.59-.25,1.1,1.1,0,0,0,.21-.72v-.48a1.1,1.1,0,0,0-.21-.72.72.72,0,0,0-.59-.25.83.83,0,0,0-.4.11,1.18,1.18,0,0,0-.34.33h-.72v-3h2.89v.76h-2.1V612a1,1,0,0,1,.34-.18.94.94,0,0,1,.37-.07,1.68,1.68,0,0,1,.84.2,1.29,1.29,0,0,1,.53.6,2.07,2.07,0,0,1,.19.94V614a2.25,2.25,0,0,1-.19.94,1.31,1.31,0,0,1-.55.59,1.69,1.69,0,0,1-.86.21A1.74,1.74,0,0,1,585,615.58Z"/><path class="e" d="M589,615.32a1.65,1.65,0,0,1-.41-1.19v-2.58a1.67,1.67,0,0,1,.41-1.19,2,2,0,0,1,2.42,0,1.65,1.65,0,0,1,.41,1.19v2.58a1.64,1.64,0,0,1-.41,1.19,1.92,1.92,0,0,1-2.42,0Zm1.83-.55a.89.89,0,0,0,.2-.64v-2.58a.88.88,0,0,0-.2-.63.78.78,0,0,0-.62-.22.82.82,0,0,0-.63.22.93.93,0,0,0-.2.63v2.58a.9.9,0,0,0,.21.64,1,1,0,0,0,1.24,0Z"/><path class="e" d="M593.22,615.32a1.65,1.65,0,0,1-.41-1.19v-2.58a1.67,1.67,0,0,1,.41-1.19,2,2,0,0,1,2.42,0,1.61,1.61,0,0,1,.41,1.19v2.58a1.64,1.64,0,0,1-.41,1.19,1.92,1.92,0,0,1-2.42,0Zm1.83-.55a.9.9,0,0,0,.21-.64v-2.58a.93.93,0,0,0-.2-.63.82.82,0,0,0-.63-.22.78.78,0,0,0-.62.22.88.88,0,0,0-.2.63v2.58a.89.89,0,0,0,.2.64,1,1,0,0,0,1.24,0Z"/><path class="e" d="M600.1,615.54a1.45,1.45,0,0,1-.6-.6,2,2,0,0,1-.21-1v-.67a2,2,0,0,1,.21-.94,1.45,1.45,0,0,1,.6-.6,2,2,0,0,1,.95-.2,2.22,2.22,0,0,1,.59.07,2,2,0,0,1,.51.22,1.76,1.76,0,0,1,.37.35l-.58.52a1.17,1.17,0,0,0-.4-.3,1.13,1.13,0,0,0-.48-.11.94.94,0,0,0-.71.26,1,1,0,0,0-.26.73V614a1.07,1.07,0,0,0,.25.74,1,1,0,0,0,.72.26,1.13,1.13,0,0,0,.48-.11,1.26,1.26,0,0,0,.4-.32l.58.55a1.42,1.42,0,0,1-.38.35,1.88,1.88,0,0,1-.5.21,2.27,2.27,0,0,1-.59.08A2,2,0,0,1,600.1,615.54Z"/><path class="e" d="M603.4,611.63h.79v4.06h-.79Zm2.42,1.6a1,1,0,0,0-.21-.66.75.75,0,0,0-.6-.24.81.81,0,0,0-.6.21.75.75,0,0,0-.22.58l-.08-.78a1.5,1.5,0,0,1,.49-.56,1.15,1.15,0,0,1,.67-.2,1.32,1.32,0,0,1,.73.19,1.28,1.28,0,0,1,.46.56,2.42,2.42,0,0,1,.15.9v2.46h-.79Zm2.42,0a.91.91,0,0,0-.22-.66.82.82,0,0,0-.63-.24.72.72,0,0,0-.57.23.9.9,0,0,0-.21.64l-.16-.78a1.51,1.51,0,0,1,.51-.62,1.16,1.16,0,0,1,.69-.22,1.37,1.37,0,0,1,.75.19,1.18,1.18,0,0,1,.47.56,2.22,2.22,0,0,1,.17.9v2.46h-.8Z"/><path class="c" d="M23.49,613.89A12.92,12.92,0,1,1,36.4,601,12.93,12.93,0,0,1,23.49,613.89Zm0-24.83A11.92,11.92,0,1,0,35.4,601,11.93,11.93,0,0,0,23.49,589.06Z"/><polygon class="d" points="35.77 588.74 9.42 600.98 35.77 613.21 32.02 600.98 35.77 588.74"/><path class="c" d="M36.58,614.14,8.23,601l28.35-13.17-4,13.17ZM10.61,601,35,612.29,31.5,601,35,589.66Z"/><path class="c" d="M2.52,605.19a5,5,0,0,1-1.11-.38,4.4,4.4,0,0,1-1-.64l.81-1a3.72,3.72,0,0,0,1.16.69,4.08,4.08,0,0,0,1.38.23,2.73,2.73,0,0,0,1.55-.38,1.17,1.17,0,0,0,.55-1.05h0a1.12,1.12,0,0,0-.25-.77,1.44,1.44,0,0,0-.64-.42,8.23,8.23,0,0,0-1-.25H3.89l-.1,0a9.48,9.48,0,0,1-1.5-.36,2.08,2.08,0,0,1-1-.73,2.42,2.42,0,0,1-.41-1.51h0a2.77,2.77,0,0,1,.38-1.47,2.44,2.44,0,0,1,1.12-.92,4.48,4.48,0,0,1,1.77-.32,4.6,4.6,0,0,1,1,.11,4.9,4.9,0,0,1,1.86.86l-.73,1a4.61,4.61,0,0,0-1-.58,3,3,0,0,0-1.06-.2,2.44,2.44,0,0,0-1.46.38,1.24,1.24,0,0,0-.53,1.07h0a1,1,0,0,0,.27.75,1.74,1.74,0,0,0,.67.4,9.3,9.3,0,0,0,1.12.27h.24a7.93,7.93,0,0,1,1.4.41,2.22,2.22,0,0,1,.94.76,2.4,2.4,0,0,1,.38,1.43h0a2.62,2.62,0,0,1-.4,1.45,2.54,2.54,0,0,1-1.16.91,4.8,4.8,0,0,1-1.83.31A6.44,6.44,0,0,1,2.52,605.19Z"/><rect class="c" x="612.5" y="600.68" width="1" height="4.68"/><rect class="c" x="612.5" y="590.76" width="1" height="4.68"/><rect class="c" x="612.5" y="611.45" width="1" height="5.24"/><rect class="c" x="789.58" y="611.45" width="1" height="5.24"/><rect class="c" x="682.59" y="600.68" width="1" height="4.68"/><rect class="c" x="647.3" y="590.76" width="1" height="4.68"/><rect class="a" width="790.34" height="618.13"/><line class="f" x1="257.95" y1="239.96" x2="260.54" y2="239.96"/><line class="f" x1="527.45" y1="188.14" x2="263.3" y2="188.14"/><line class="f" x1="527.45" y1="239.96" x2="527.45" y2="188.14"/><line class="f" x1="470.96" y1="239.96" x2="527.45" y2="239.96"/><line class="f" x1="470.96" y1="243.42" x2="470.96" y2="239.97"/><line class="f" x1="439.86" y1="243.42" x2="470.96" y2="243.42"/><line class="f" x1="439.86" y1="239.96" x2="439.86" y2="243.42"/><line class="f" x1="371.62" y1="239.96" x2="439.86" y2="239.96"/><line class="f" x1="371.62" y1="243.42" x2="371.62" y2="239.97"/><line class="f" x1="340.53" y1="243.42" x2="371.62" y2="243.42"/><line class="f" x1="340.53" y1="239.96" x2="340.53" y2="243.42"/><line class="f" x1="263.3" y1="239.96" x2="340.52" y2="239.96"/><line class="f" x1="263.3" y1="188.14" x2="263.3" y2="239.96"/><line class="f" x1="530.22" y1="239.96" x2="532.64" y2="239.96"/><rect class="d" x="492.38" y="372.47" width="31.1" height="31.1"/><line class="f" x1="492.38" y1="372.47" x2="492.38" y2="403.57"/><line class="f" x1="523.48" y1="372.47" x2="492.38" y2="372.47"/><line class="f" x1="523.48" y1="403.57" x2="523.48" y2="372.47"/><line class="f" x1="492.38" y1="403.57" x2="523.48" y2="403.57"/><rect class="d" x="373" y="407.54" width="21.77" height="17.62"/><line class="f" x1="373.01" y1="407.54" x2="373.01" y2="425.16"/><line class="f" x1="394.77" y1="407.54" x2="373.01" y2="407.54"/><line class="f" x1="394.77" y1="425.16" x2="394.77" y2="407.54"/><line class="f" x1="373.01" y1="425.16" x2="394.77" y2="425.16"/><polygon class="g" points="266.24 425.17 266.24 404.43 266.24 342.24 287.32 342.24 287.32 404.09 340.87 404.09 340.87 425.17 266.24 425.17"/><line class="f" x1="266.24" y1="404.43" x2="266.24" y2="425.17"/><line class="f" x1="266.24" y1="342.24" x2="266.24" y2="404.43"/><line class="f" x1="287.32" y1="342.24" x2="266.24" y2="342.24"/><line class="f" x1="287.32" y1="404.09" x2="287.32" y2="342.24"/><line class="f" x1="340.87" y1="404.09" x2="287.32" y2="404.09"/><line class="f" x1="340.87" y1="425.16" x2="340.87" y2="404.09"/><line class="f" x1="266.24" y1="425.16" x2="340.87" y2="425.16"/><line class="f" x1="257.95" y1="404.09" x2="257.95" y2="404.09"/><line class="f" x1="257.95" y1="425.16" x2="257.95" y2="404.09"/><line class="f" x1="257.95" y1="425.16" x2="257.95" y2="425.16"/><line class="f" x1="257.95" y1="404.09" x2="257.95" y2="404.09"/><line class="f" x1="257.95" y1="352.26" x2="257.95" y2="352.26"/><line class="f" x1="257.95" y1="352.26" x2="257.95" y2="404.09"/><polygon class="h" points="257.94 239.96 261.92 239.96 285.24 239.96 285.24 246.87 257.94 246.87 257.94 239.96"/><rect x="371.62" y="239.97" width="68.24" height="6.91"/><polygon class="h" points="532.64 246.88 505.51 246.88 505.51 239.97 528.84 239.97 532.64 239.97 532.64 246.88"/><rect x="257.94" y="246.87" width="25.57" height="6.91"/><rect x="507.24" y="246.88" width="25.39" height="6.91"/><rect x="373.35" y="246.88" width="64.79" height="6.91"/><rect x="432.78" y="400.98" width="2.42" height="24.19"/><polygon class="h" points="524.35 369.19 524.35 371.61 435.2 371.61 435.2 373.34 432.78 373.34 432.78 371.61 429.33 371.61 429.33 369.19 524.35 369.19"/><polygon class="h" points="398.23 369.19 398.23 371.61 373 371.61 373 373.34 370.59 373.34 370.59 369.19 394.08 369.19 394.08 253.78 396.5 253.78 396.5 369.19 398.23 369.19"/><polygon class="h" points="257.94 433.46 257.94 425.16 257.94 253.78 266.24 253.78 266.24 425.16 394.77 425.16 394.77 433.46 257.94 433.46"/><rect x="370.59" y="404.43" width="2.42" height="20.73"/><polygon class="h" points="532.64 433.46 432.78 433.46 432.78 425.16 524.35 425.16 524.35 253.78 532.64 253.78 532.64 425.16 532.64 433.46"/><rect x="394.77" y="429.48" width="1.73" height="3.97"/><polygon class="h" points="493.25 425.06 493.25 404.43 524.35 404.43 524.35 407.89 496.7 407.89 496.7 425.06 493.25 425.06"/><polygon class="h" points="370.59 411.34 344.67 411.34 344.67 425.16 341.22 425.16 341.22 407.89 370.59 407.89 370.59 411.34"/><rect x="431.05" y="429.48" width="1.73" height="3.97"/><rect x="527.11" y="188.14" width="1.73" height="51.83"/><rect x="261.92" y="188.14" width="1.38" height="51.83"/><line class="f" x1="257.95" y1="239.96" x2="261.92" y2="239.96"/><line class="f" x1="261.92" y1="239.96" x2="285.24" y2="239.96"/><line class="f" x1="371.62" y1="239.96" x2="439.86" y2="239.96"/><line class="f" x1="266.24" y1="253.79" x2="283.51" y2="253.79"/><line class="f" x1="373.35" y1="253.79" x2="394.08" y2="253.79"/><line class="f" x1="396.5" y1="253.79" x2="438.14" y2="253.79"/><line class="f" x1="528.84" y1="239.96" x2="505.51" y2="239.96"/><line class="f" x1="532.64" y1="239.96" x2="528.84" y2="239.96"/><line class="f" x1="532.64" y1="253.79" x2="532.64" y2="253.79"/><line class="f" x1="283.51" y1="253.79" x2="283.51" y2="246.88"/><line class="f" x1="283.51" y1="253.79" x2="283.51" y2="246.88"/><line class="f" x1="373.35" y1="253.79" x2="373.35" y2="246.88"/><line class="f" x1="438.14" y1="253.79" x2="438.14" y2="246.88"/><line class="f" x1="507.24" y1="246.87" x2="507.24" y2="253.78"/><line class="f" x1="524.35" y1="253.79" x2="507.24" y2="253.79"/><line class="f" x1="263.3" y1="188.14" x2="263.3" y2="239.96"/><line class="f" x1="261.92" y1="188.14" x2="263.3" y2="188.14"/><line class="f" x1="527.11" y1="188.14" x2="527.11" y2="239.96"/><line class="f" x1="527.11" y1="188.14" x2="528.84" y2="188.14"/><line class="f" x1="285.24" y1="246.87" x2="285.24" y2="239.97"/><line class="f" x1="283.51" y1="246.87" x2="285.24" y2="246.87"/><line class="f" x1="439.86" y1="246.87" x2="439.86" y2="239.97"/><line class="f" x1="438.14" y1="246.87" x2="439.86" y2="246.87"/><line class="f" x1="371.62" y1="246.87" x2="371.62" y2="239.97"/><line class="f" x1="373.35" y1="246.87" x2="371.62" y2="246.87"/><line class="f" x1="505.51" y1="246.87" x2="505.51" y2="239.97"/><line class="f" x1="507.24" y1="246.87" x2="505.51" y2="246.87"/><line class="f" x1="261.92" y1="188.14" x2="528.84" y2="188.14"/><line class="f" x1="261.92" y1="188.14" x2="528.84" y2="188.14"/><line class="f" x1="283.51" y1="253.79" x2="338.8" y2="253.79"/><line class="f" x1="338.8" y1="253.79" x2="373.35" y2="253.79"/><line class="f" x1="507.24" y1="253.79" x2="472.69" y2="253.79"/><line class="f" x1="472.69" y1="253.79" x2="438.14" y2="253.79"/><line class="f" x1="507.24" y1="253.79" x2="472.69" y2="253.79"/><line class="f" x1="472.69" y1="253.79" x2="472.69" y2="246.88"/><line class="f" x1="470.96" y1="246.87" x2="470.96" y2="239.97"/><line class="f" x1="505.51" y1="239.96" x2="470.96" y2="239.96"/><line class="f" x1="472.69" y1="253.79" x2="438.14" y2="253.79"/><line class="f" x1="470.96" y1="243.42" x2="439.86" y2="243.42"/><line class="f" x1="472.69" y1="249.64" x2="472.69" y2="246.87"/><line class="f" x1="469.93" y1="247.57" x2="469.93" y2="246.87"/><line class="f" x1="469.93" y1="246.87" x2="472.69" y2="246.87"/><line class="f" x1="472.69" y1="246.87" x2="472.69" y2="249.64"/><line class="f" x1="472.69" y1="249.64" x2="471.31" y2="249.64"/><line class="f" x1="471.31" y1="250.33" x2="468.54" y2="250.33"/><line class="f" x1="468.54" y1="250.33" x2="468.54" y2="247.56"/><line class="f" x1="468.54" y1="247.57" x2="471.31" y2="247.57"/><line class="f" x1="471.31" y1="247.57" x2="471.31" y2="250.33"/><line class="f" x1="440.9" y1="247.57" x2="440.9" y2="246.87"/><line class="f" x1="440.9" y1="246.87" x2="438.14" y2="246.87"/><line class="f" x1="438.14" y1="246.87" x2="438.14" y2="249.64"/><line class="f" x1="438.14" y1="249.64" x2="439.52" y2="249.64"/><line class="f" x1="439.52" y1="250.33" x2="442.28" y2="250.33"/><line class="f" x1="442.28" y1="250.33" x2="442.28" y2="247.56"/><line class="f" x1="442.28" y1="247.57" x2="439.52" y2="247.57"/><line class="f" x1="439.52" y1="247.57" x2="439.52" y2="250.33"/><line class="f" x1="468.54" y1="250.33" x2="442.28" y2="250.33"/><line class="f" x1="442.28" y1="247.57" x2="468.54" y2="247.57"/><line class="f" x1="468.54" y1="248.95" x2="442.28" y2="248.95"/><line class="f" x1="475.45" y1="247.57" x2="475.45" y2="246.87"/><line class="f" x1="475.45" y1="246.87" x2="472.69" y2="246.87"/><line class="f" x1="472.69" y1="246.87" x2="472.69" y2="249.64"/><line class="f" x1="472.69" y1="249.64" x2="474.07" y2="249.64"/><line class="f" x1="474.07" y1="250.33" x2="476.84" y2="250.33"/><line class="f" x1="476.84" y1="250.33" x2="476.84" y2="247.56"/><line class="f" x1="476.84" y1="247.57" x2="474.07" y2="247.57"/><line class="f" x1="474.07" y1="247.57" x2="474.07" y2="250.33"/><line class="f" x1="504.48" y1="247.57" x2="504.48" y2="246.87"/><line class="f" x1="504.48" y1="246.87" x2="507.24" y2="246.87"/><line class="f" x1="507.24" y1="246.87" x2="507.24" y2="249.64"/><line class="f" x1="507.24" y1="249.64" x2="505.86" y2="249.64"/><line class="f" x1="505.86" y1="250.33" x2="503.09" y2="250.33"/><line class="f" x1="503.1" y1="250.33" x2="503.1" y2="247.56"/><line class="f" x1="503.1" y1="247.57" x2="505.86" y2="247.57"/><line class="f" x1="505.86" y1="247.57" x2="505.86" y2="250.33"/><line class="f" x1="476.84" y1="250.33" x2="503.09" y2="250.33"/><line class="f" x1="503.1" y1="247.57" x2="476.84" y2="247.57"/><line class="f" x1="476.84" y1="248.95" x2="503.09" y2="248.95"/><line class="f" x1="283.51" y1="253.79" x2="338.8" y2="253.79"/><line class="f" x1="338.8" y1="253.79" x2="373.35" y2="253.79"/><line class="f" x1="285.24" y1="239.96" x2="340.52" y2="239.96"/><line class="f" x1="338.8" y1="253.79" x2="338.8" y2="246.88"/><line class="f" x1="340.53" y1="246.87" x2="340.53" y2="239.97"/><line class="f" x1="340.53" y1="243.42" x2="371.62" y2="243.42"/><line class="f" x1="341.56" y1="247.57" x2="341.56" y2="246.87"/><line class="f" x1="341.56" y1="246.87" x2="338.8" y2="246.87"/><line class="f" x1="338.8" y1="246.87" x2="338.8" y2="249.64"/><line class="f" x1="338.8" y1="249.64" x2="340.18" y2="249.64"/><line class="f" x1="340.18" y1="250.33" x2="342.95" y2="250.33"/><line class="f" x1="342.94" y1="250.33" x2="342.94" y2="247.56"/><line class="f" x1="342.94" y1="247.57" x2="340.18" y2="247.57"/><line class="f" x1="340.18" y1="247.57" x2="340.18" y2="250.33"/><line class="f" x1="371.97" y1="250.33" x2="369.2" y2="250.33"/><line class="f" x1="369.2" y1="250.33" x2="369.2" y2="247.56"/><line class="f" x1="369.2" y1="247.57" x2="371.97" y2="247.57"/><line class="f" x1="371.97" y1="247.57" x2="371.97" y2="250.33"/><line class="f" x1="342.94" y1="250.33" x2="369.2" y2="250.33"/><line class="f" x1="369.2" y1="247.57" x2="342.95" y2="247.57"/><line class="f" x1="342.94" y1="248.95" x2="369.2" y2="248.95"/><line class="f" x1="370.59" y1="247.57" x2="370.59" y2="246.87"/><line class="f" x1="370.59" y1="246.87" x2="373.35" y2="246.87"/><line class="f" x1="373.35" y1="246.87" x2="373.35" y2="249.64"/><line class="f" x1="373.35" y1="249.64" x2="371.97" y2="249.64"/><line class="f" x1="338.8" y1="249.64" x2="336.03" y2="249.64"/><line class="f" x1="336.03" y1="249.64" x2="336.03" y2="246.87"/><line class="f" x1="336.03" y1="246.87" x2="338.8" y2="246.87"/><line class="f" x1="338.8" y1="246.87" x2="338.8" y2="249.64"/><line class="f" x1="336.03" y1="249.64" x2="312.54" y2="249.64"/><line class="f" x1="336.03" y1="248.26" x2="312.54" y2="248.26"/><line class="f" x1="336.03" y1="246.87" x2="312.54" y2="246.87"/><line class="f" x1="286.28" y1="247.57" x2="286.28" y2="246.87"/><line class="f" x1="286.28" y1="246.87" x2="283.51" y2="246.87"/><line class="f" x1="283.51" y1="246.87" x2="283.51" y2="249.64"/><line class="f" x1="283.51" y1="249.64" x2="284.9" y2="249.64"/><line class="f" x1="284.9" y1="250.33" x2="287.66" y2="250.33"/><line class="f" x1="287.66" y1="250.33" x2="287.66" y2="247.56"/><line class="f" x1="287.66" y1="247.57" x2="284.9" y2="247.57"/><line class="f" x1="284.9" y1="247.57" x2="284.9" y2="250.33"/><line class="f" x1="287.66" y1="250.33" x2="308.39" y2="250.33"/><line class="f" x1="308.39" y1="247.57" x2="287.66" y2="247.57"/><line class="f" x1="287.66" y1="248.95" x2="308.39" y2="248.95"/><line class="f" x1="309.77" y1="247.57" x2="309.77" y2="246.87"/><line class="f" x1="309.77" y1="246.87" x2="312.54" y2="246.87"/><line class="f" x1="312.54" y1="246.87" x2="312.54" y2="249.64"/><line class="f" x1="312.54" y1="249.64" x2="311.16" y2="249.64"/><line class="f" x1="311.16" y1="250.33" x2="308.39" y2="250.33"/><line class="f" x1="308.39" y1="250.33" x2="308.39" y2="247.56"/><line class="f" x1="308.39" y1="247.57" x2="311.16" y2="247.57"/><line class="f" x1="311.16" y1="247.57" x2="311.16" y2="250.33"/><line class="f" x1="432.78" y1="433.46" x2="532.64" y2="433.46"/><line class="f" x1="266.24" y1="425.16" x2="341.22" y2="425.16"/><line class="f" x1="344.67" y1="425.16" x2="370.59" y2="425.16"/><line class="f" x1="373.01" y1="425.16" x2="394.77" y2="425.16"/><line class="f" x1="435.2" y1="425.16" x2="493.25" y2="425.16"/><line class="f" x1="496.7" y1="425.16" x2="524.34" y2="425.16"/><line class="f" x1="266.24" y1="253.79" x2="266.24" y2="425.16"/><line class="f" x1="524.35" y1="253.79" x2="524.35" y2="369.19"/><line class="f" x1="524.35" y1="371.61" x2="524.35" y2="404.43"/><line class="f" x1="524.35" y1="407.89" x2="524.35" y2="425.16"/><line class="f" x1="257.95" y1="253.79" x2="257.95" y2="425.16"/><line class="f" x1="396.5" y1="253.79" x2="396.5" y2="369.19"/><line class="f" x1="394.08" y1="253.79" x2="394.08" y2="369.19"/><line class="f" x1="524.35" y1="371.61" x2="435.2" y2="371.61"/><line class="f" x1="524.35" y1="369.19" x2="429.33" y2="369.19"/><line class="f" x1="435.2" y1="371.61" x2="435.2" y2="373.34"/><line class="f" x1="435.2" y1="400.98" x2="435.2" y2="425.16"/><line class="f" x1="373.01" y1="404.43" x2="373.01" y2="425.17"/><line class="f" x1="370.59" y1="369.19" x2="370.59" y2="373.34"/><line class="f" x1="370.59" y1="411.34" x2="370.59" y2="425.16"/><line class="f" x1="341.22" y1="407.89" x2="341.22" y2="425.16"/><line class="f" x1="344.67" y1="411.34" x2="344.67" y2="425.16"/><line class="f" x1="432.78" y1="400.98" x2="435.2" y2="400.98"/><line class="f" x1="432.78" y1="373.34" x2="435.2" y2="373.34"/><line class="f" x1="432.78" y1="371.61" x2="429.33" y2="371.61"/><line class="f" x1="429.33" y1="371.61" x2="429.33" y2="369.19"/><line class="f" x1="398.23" y1="371.61" x2="398.23" y2="369.19"/><line class="f" x1="398.23" y1="369.19" x2="396.5" y2="369.19"/><line class="f" x1="396.5" y1="429.48" x2="396.5" y2="433.46"/><line class="f" x1="396.5" y1="429.48" x2="394.77" y2="429.48"/><line class="f" x1="394.77" y1="429.48" x2="394.77" y2="425.16"/><line class="f" x1="398.23" y1="371.61" x2="373.01" y2="371.61"/><line class="f" x1="394.08" y1="369.19" x2="370.59" y2="369.19"/><line class="f" x1="373.01" y1="373.34" x2="370.59" y2="373.34"/><line class="f" x1="370.59" y1="404.43" x2="373" y2="404.43"/><line class="f" x1="373.01" y1="373.34" x2="373.01" y2="371.61"/><line class="f" x1="341.22" y1="407.89" x2="370.59" y2="407.89"/><line class="f" x1="344.67" y1="411.34" x2="370.59" y2="411.34"/><line class="f" x1="370.59" y1="407.89" x2="370.59" y2="404.43"/><line class="f" x1="257.95" y1="425.16" x2="257.95" y2="425.16"/><line class="f" x1="257.95" y1="433.46" x2="394.77" y2="433.46"/><line class="f" x1="396.5" y1="433.46" x2="394.77" y2="433.46"/><line class="f" x1="493.25" y1="425.16" x2="496.7" y2="425.16"/><line class="f" x1="439.52" y1="250.33" x2="439.52" y2="282.12"/><g class="i"><path class="f" d="M471.31,250.33a31.79,31.79,0,0,1-31.79,31.79"/></g><line class="f" x1="371.97" y1="250.33" x2="371.97" y2="282.12"/><g class="i"><path class="f" d="M372,282.12a31.79,31.79,0,0,1-31.79-31.79"/></g><line class="f" x1="429.33" y1="429.48" x2="398.23" y2="429.48"/><line class="f" x1="429.33" y1="433.46" x2="398.23" y2="433.46"/><line class="f" x1="429.33" y1="429.48" x2="429.33" y2="398.39"/><g class="i"><path class="f" d="M398.23,429.48a31.09,31.09,0,0,1,31.1-31.09"/></g><line class="f" x1="429.33" y1="433.46" x2="429.33" y2="429.48"/><line class="f" x1="398.23" y1="429.48" x2="398.23" y2="433.46"/><line class="f" x1="398.23" y1="429.48" x2="396.5" y2="429.48"/><line class="f" x1="398.23" y1="433.46" x2="396.5" y2="433.46"/><line class="f" x1="431.05" y1="429.48" x2="429.33" y2="429.48"/><line class="f" x1="431.05" y1="433.46" x2="429.33" y2="433.46"/><line class="f" x1="370.59" y1="402.71" x2="370.59" y2="375.06"/><line class="f" x1="370.59" y1="402.71" x2="342.94" y2="402.71"/><g class="i"><path class="f" d="M342.94,402.71a27.65,27.65,0,0,1,27.65-27.65"/></g><line class="f" x1="373.01" y1="402.71" x2="370.59" y2="402.71"/><line class="f" x1="370.59" y1="375.06" x2="373" y2="375.06"/><line class="f" x1="370.59" y1="375.06" x2="370.59" y2="373.34"/><line class="f" x1="373.01" y1="375.06" x2="373.01" y2="373.34"/><line class="f" x1="370.59" y1="404.43" x2="370.59" y2="402.71"/><line class="f" x1="373.01" y1="404.43" x2="373.01" y2="402.71"/><line class="f" x1="373.01" y1="402.71" x2="373.01" y2="395.8"/><line class="f" x1="373.01" y1="391.99" x2="373.01" y2="391.22"/><line class="f" x1="373.01" y1="387.42" x2="373.01" y2="386.64"/><line class="f" x1="373.01" y1="382.84" x2="373.01" y2="381.97"/><line class="f" x1="373.01" y1="381.97" x2="373.01" y2="375.06"/><line class="f" x1="370.59" y1="402.71" x2="369.72" y2="402.71"/><line class="f" x1="369.72" y1="402.71" x2="369.72" y2="406.16"/><line class="f" x1="369.72" y1="406.16" x2="370.59" y2="406.16"/><line class="f" x1="373.01" y1="402.71" x2="373.87" y2="402.71"/><line class="f" x1="373.87" y1="402.71" x2="373.87" y2="406.16"/><line class="f" x1="373.87" y1="406.16" x2="373.01" y2="406.16"/><line class="f" x1="369.72" y1="375.06" x2="369.72" y2="371.61"/><line class="f" x1="369.72" y1="371.61" x2="370.59" y2="371.61"/><line class="f" x1="373.01" y1="375.06" x2="373.87" y2="375.06"/><line class="f" x1="373.87" y1="375.06" x2="373.87" y2="371.61"/><line class="f" x1="373.87" y1="371.61" x2="373.01" y2="371.61"/><line class="f" x1="399.96" y1="369.19" x2="427.6" y2="369.19"/><line class="f" x1="399.96" y1="369.19" x2="399.96" y2="341.55"/><g class="i"><path class="f" d="M400,341.55a27.64,27.64,0,0,1,27.64,27.64"/></g><line class="f" x1="399.96" y1="371.61" x2="399.96" y2="369.19"/><line class="f" x1="427.6" y1="369.19" x2="427.6" y2="371.61"/><line class="f" x1="427.6" y1="369.19" x2="429.33" y2="369.19"/><line class="f" x1="427.6" y1="371.61" x2="429.33" y2="371.61"/><line class="f" x1="398.23" y1="369.19" x2="399.96" y2="369.19"/><line class="f" x1="398.23" y1="371.61" x2="399.96" y2="371.61"/><line class="f" x1="399.96" y1="371.61" x2="406.87" y2="371.61"/><line class="f" x1="410.67" y1="371.61" x2="411.45" y2="371.61"/><line class="f" x1="415.25" y1="371.61" x2="416.02" y2="371.61"/><line class="f" x1="419.82" y1="371.61" x2="420.69" y2="371.61"/><line class="f" x1="420.69" y1="371.61" x2="427.6" y2="371.61"/><line class="f" x1="399.96" y1="369.19" x2="399.96" y2="368.33"/><line class="f" x1="399.96" y1="368.33" x2="396.5" y2="368.33"/><line class="f" x1="396.5" y1="368.33" x2="396.5" y2="369.19"/><line class="f" x1="399.96" y1="371.61" x2="399.96" y2="372.47"/><line class="f" x1="399.96" y1="372.47" x2="396.5" y2="372.47"/><line class="f" x1="396.5" y1="372.47" x2="396.5" y2="371.61"/><line class="f" x1="427.6" y1="368.33" x2="431.05" y2="368.33"/><line class="f" x1="431.05" y1="368.33" x2="431.05" y2="369.19"/><line class="f" x1="427.6" y1="371.61" x2="427.6" y2="372.47"/><line class="f" x1="427.6" y1="372.47" x2="431.05" y2="372.47"/><line class="f" x1="431.05" y1="372.47" x2="431.05" y2="371.61"/><line class="f" x1="432.78" y1="399.25" x2="432.78" y2="375.06"/><line class="f" x1="432.78" y1="399.25" x2="408.59" y2="399.25"/><g class="i"><path class="f" d="M408.59,399.25a24.19,24.19,0,0,1,24.19-24.19"/></g><line class="f" x1="435.2" y1="399.25" x2="432.78" y2="399.25"/><line class="f" x1="432.78" y1="375.06" x2="435.2" y2="375.06"/><line class="f" x1="432.78" y1="375.06" x2="432.78" y2="373.34"/><line class="f" x1="435.2" y1="375.06" x2="435.2" y2="373.34"/><line class="f" x1="432.78" y1="400.98" x2="432.78" y2="399.25"/><line class="f" x1="435.2" y1="400.98" x2="435.2" y2="399.25"/><line class="f" x1="435.2" y1="399.25" x2="435.2" y2="392.34"/><line class="f" x1="435.2" y1="388.54" x2="435.2" y2="387.76"/><line class="f" x1="435.2" y1="383.96" x2="435.2" y2="383.18"/><line class="f" x1="435.2" y1="381.97" x2="435.2" y2="375.06"/><line class="f" x1="432.78" y1="399.25" x2="431.92" y2="399.25"/><line class="f" x1="431.92" y1="399.25" x2="431.92" y2="402.71"/><line class="f" x1="431.92" y1="402.71" x2="432.78" y2="402.71"/><line class="f" x1="435.2" y1="399.25" x2="436.06" y2="399.25"/><line class="f" x1="436.06" y1="399.25" x2="436.06" y2="402.71"/><line class="f" x1="436.06" y1="402.71" x2="435.2" y2="402.71"/><line class="f" x1="431.92" y1="375.06" x2="431.92" y2="371.61"/><line class="f" x1="431.92" y1="371.61" x2="432.78" y2="371.61"/><line class="f" x1="435.2" y1="375.06" x2="436.06" y2="375.06"/><line class="f" x1="436.06" y1="375.06" x2="436.06" y2="371.61"/><line class="f" x1="436.06" y1="371.61" x2="435.2" y2="371.61"/><line class="f" x1="257.95" y1="383.36" x2="257.95" y2="383.36"/><line class="f" x1="257.95" y1="383.36" x2="257.95" y2="404.09"/><line class="f" x1="257.95" y1="404.09" x2="257.95" y2="404.09"/><line class="f" x1="257.95" y1="352.26" x2="257.95" y2="352.26"/><line class="f" x1="257.95" y1="352.26" x2="257.95" y2="425.17"/><line class="f" x1="257.95" y1="425.16" x2="257.95" y2="425.16"/><line class="f" x1="340.87" y1="424.82" x2="340.87" y2="404.09"/><line class="f" x1="332.95" y1="412.01" x2="328.06" y2="416.9"/><line class="f" x1="328.06" y1="412.01" x2="332.95" y2="416.9"/><line class="f" x1="330.51" y1="417.91" x2="330.51" y2="411"/><line class="f" x1="333.96" y1="414.45" x2="327.05" y2="414.45"/><line class="f" x1="320.14" y1="404.09" x2="320.14" y2="424.82"/><line class="f" x1="340.87" y1="404.09" x2="320.14" y2="404.09"/><line class="f" x1="266.24" y1="393.72" x2="266.24" y2="372.99"/><line class="f" x1="266.24" y1="372.99" x2="287.32" y2="372.99"/><line class="f" x1="287.32" y1="372.99" x2="287.32" y2="393.72"/><line class="f" x1="287.32" y1="393.72" x2="266.24" y2="393.72"/><g class="i"><path class="f" d="M283,383.36a6.05,6.05,0,1,0-6.05,6,6.05,6.05,0,0,0,6.05-6"/><path class="f" d="M282,383.36a5,5,0,1,0-5,5,5,5,0,0,0,5-5"/><path class="f" d="M519.16,398.39a.86.86,0,1,0-.86.86.86.86,0,0,0,.86-.86"/></g><line class="f" x1="492.38" y1="403.57" x2="492.38" y2="372.47"/><line class="f" x1="492.38" y1="372.47" x2="523.48" y2="372.47"/><line class="f" x1="523.48" y1="372.47" x2="523.48" y2="403.57"/><line class="f" x1="523.48" y1="403.57" x2="492.38" y2="403.57"/><line class="f" x1="494.11" y1="398.39" x2="494.11" y2="377.65"/><line class="f" x1="497.57" y1="374.2" x2="518.3" y2="374.2"/><line class="f" x1="521.75" y1="377.65" x2="521.75" y2="398.39"/><line class="f" x1="518.3" y1="401.84" x2="497.57" y2="401.84"/><g class="i"><path class="f" d="M497.57,401.84a3.46,3.46,0,0,1-3.46-3.45"/><path class="f" d="M494.11,377.65a3.46,3.46,0,0,1,3.46-3.45"/><path class="f" d="M521.75,398.39a3.45,3.45,0,0,1-3.45,3.45"/><path class="f" d="M518.3,374.2a3.45,3.45,0,0,1,3.45,3.45"/></g><line class="f" x1="435.2" y1="419.98" x2="493.25" y2="419.98"/><line class="f" x1="524" y1="343.62" x2="524" y2="355.71"/><line class="f" x1="474.59" y1="372.47" x2="474.59" y2="375.93"/><line class="f" x1="474.59" y1="375.93" x2="453.86" y2="375.93"/><line class="f" x1="453.86" y1="375.93" x2="453.86" y2="372.47"/><line class="f" x1="453.86" y1="372.47" x2="454.89" y2="372.47"/><line class="f" x1="454.89" y1="372.47" x2="454.89" y2="374.89"/><line class="f" x1="454.89" y1="374.89" x2="473.55" y2="374.89"/><line class="f" x1="473.55" y1="374.89" x2="473.55" y2="372.47"/><line class="f" x1="473.55" y1="372.47" x2="474.59" y2="372.47"/><line class="f" x1="474.59" y1="372.47" x2="474.59" y2="375.93"/><line class="f" x1="453.86" y1="372.47" x2="453.86" y2="375.93"/><line class="f" x1="473.55" y1="372.47" x2="473.55" y2="374.89"/><line class="f" x1="454.89" y1="372.47" x2="454.89" y2="374.89"/><line class="f" x1="474.59" y1="375.93" x2="453.86" y2="375.93"/><line class="f" x1="474.59" y1="374.89" x2="453.86" y2="374.89"/><line class="f" x1="474.59" y1="372.47" x2="473.55" y2="372.47"/><line class="f" x1="454.89" y1="372.47" x2="453.86" y2="372.47"/><g class="i"><path class="f" d="M286.3,412.76a7.78,7.78,0,1,0-7.78,7.78,7.77,7.77,0,0,0,7.78-7.78"/><path class="f" d="M285.09,412.76a6.57,6.57,0,1,0-6.57,6.57,6.57,6.57,0,0,0,6.57-6.57"/><path class="f" d="M277.06,415.08a.86.86,0,1,0-.86.87.85.85,0,0,0,.86-.87"/><path class="f" d="M275.25,357.54a3.39,3.39,0,1,0-3.39,3.39,3.39,3.39,0,0,0,3.39-3.39"/></g><line class="f" x1="266.58" y1="352.26" x2="287.32" y2="352.26"/><line class="f" x1="287.32" y1="352.26" x2="287.32" y2="372.99"/><line class="f" x1="287.32" y1="372.99" x2="266.58" y2="372.99"/><g class="i"><path class="f" d="M285.43,357.54a3.39,3.39,0,1,0-3.39,3.39,3.39,3.39,0,0,0,3.39-3.39"/><path class="f" d="M285.43,367.71a3.39,3.39,0,1,0-3.39,3.4,3.39,3.39,0,0,0,3.39-3.4"/></g><line class="f" x1="288.26" y1="370.16" x2="288.26" y2="355.09"/><line class="f" x1="299.41" y1="424.82" x2="299.41" y2="404.09"/><line class="f" x1="299.41" y1="404.09" x2="320.14" y2="404.09"/><line class="f" x1="320.14" y1="404.09" x2="320.14" y2="424.82"/><line class="f" x1="266.24" y1="342.24" x2="266.24" y2="425.16"/><line class="f" x1="266.24" y1="425.16" x2="340.87" y2="425.16"/><line class="f" x1="340.87" y1="425.16" x2="340.87" y2="404.09"/><line class="f" x1="340.87" y1="404.09" x2="287.32" y2="404.09"/><line class="f" x1="287.32" y1="404.09" x2="287.32" y2="342.24"/><line class="f" x1="287.32" y1="342.24" x2="266.24" y2="342.24"/><line class="f" x1="493.25" y1="404.43" x2="493.25" y2="425.17"/><line class="f" x1="493.25" y1="404.43" x2="524.35" y2="404.43"/><line class="f" x1="496.7" y1="407.89" x2="524.34" y2="407.89"/><line class="f" x1="431.05" y1="429.48" x2="431.05" y2="433.46"/><line class="f" x1="431.05" y1="429.48" x2="432.78" y2="429.48"/><line class="f" x1="431.05" y1="433.46" x2="432.78" y2="433.46"/><line class="f" x1="432.78" y1="400.98" x2="432.78" y2="429.48"/><line class="f" x1="432.78" y1="371.61" x2="432.78" y2="373.34"/><line class="f" x1="370.59" y1="411.34" x2="370.59" y2="407.89"/><line class="f" x1="360.22" y1="411.34" x2="360.22" y2="407.89"/><line class="f" x1="283.51" y1="255.51" x2="331.89" y2="255.51"/><line class="f" x1="331.89" y1="255.51" x2="331.89" y2="258.97"/><line class="f" x1="331.89" y1="258.97" x2="283.51" y2="258.97"/><line class="f" x1="283.51" y1="258.97" x2="283.51" y2="255.51"/><g class="i"><path class="f" d="M337.07,257.24a1.73,1.73,0,1,0-1.73,1.73,1.73,1.73,0,0,0,1.73-1.73"/></g><line class="f" x1="474.42" y1="255.51" x2="502.06" y2="255.51"/><line class="f" x1="502.06" y1="255.51" x2="502.06" y2="257.69"/><line class="f" x1="502.06" y1="257.69" x2="474.42" y2="257.69"/><line class="f" x1="474.42" y1="257.69" x2="474.42" y2="255.51"/><g class="i"><path class="f" d="M507.24,256.6a1.73,1.73,0,1,0-1.73,1.73,1.73,1.73,0,0,0,1.73-1.73"/></g><line class="f" x1="496.7" y1="404.43" x2="496.7" y2="425.17"/><line class="f" x1="371.62" y1="239.96" x2="364.71" y2="239.96"/><line class="f" x1="360.91" y1="239.96" x2="360.13" y2="239.96"/><line class="f" x1="356.33" y1="239.96" x2="355.56" y2="239.96"/><line class="f" x1="351.76" y1="239.96" x2="347.44" y2="239.96"/><line class="f" x1="347.44" y1="239.96" x2="340.53" y2="239.96"/><line class="f" x1="470.96" y1="239.96" x2="464.05" y2="239.96"/><line class="f" x1="460.25" y1="239.96" x2="459.47" y2="239.96"/><line class="f" x1="455.67" y1="239.96" x2="454.89" y2="239.96"/><line class="f" x1="451.09" y1="239.96" x2="446.77" y2="239.96"/><line class="f" x1="446.78" y1="239.96" x2="439.87" y2="239.96"/><line class="f" x1="496.7" y1="407.89" x2="496.7" y2="425.16"/><line class="f" x1="496.7" y1="425.16" x2="524.34" y2="425.16"/><line class="f" x1="524.35" y1="425.16" x2="500.16" y2="421.71"/><line class="f" x1="500.16" y1="421.71" x2="496.7" y2="407.89"/><line class="f" x1="344.67" y1="411.34" x2="344.67" y2="425.16"/><line class="f" x1="344.67" y1="425.16" x2="370.59" y2="425.16"/><line class="f" x1="370.59" y1="425.16" x2="348.13" y2="421.71"/><line class="f" x1="348.13" y1="421.71" x2="344.67" y2="411.34"/><rect class="d" x="305.97" y="295.25" width="17.28" height="27.64"/><line class="f" x1="305.97" y1="295.25" x2="305.97" y2="322.89"/><line class="f" x1="323.24" y1="295.25" x2="305.97" y2="295.25"/><line class="f" x1="323.24" y1="322.89" x2="323.24" y2="295.25"/><line class="f" x1="305.97" y1="322.89" x2="323.24" y2="322.89"/><rect class="d" x="435.2" y="419.98" width="58.05" height="5.18"/><line class="f" x1="435.2" y1="419.98" x2="435.2" y2="425.16"/><line class="f" x1="493.25" y1="419.98" x2="435.2" y2="419.98"/><line class="f" x1="493.25" y1="425.16" x2="493.25" y2="419.98"/><line class="f" x1="435.2" y1="425.16" x2="493.25" y2="425.16"/><rect class="d" x="453.86" y="372.47" width="1.04" height="2.42"/><line class="f" x1="453.86" y1="374.89" x2="454.89" y2="374.89"/><line class="f" x1="453.86" y1="372.47" x2="453.86" y2="374.89"/><line class="f" x1="454.89" y1="372.47" x2="453.86" y2="372.47"/><line class="f" x1="454.89" y1="374.89" x2="454.89" y2="372.47"/><polygon class="d" points="473.55 374.89 454.89 374.89 453.86 374.89 453.86 375.93 474.59 375.93 474.59 374.89 473.55 374.89"/><line class="f" x1="453.86" y1="374.89" x2="453.86" y2="375.93"/><line class="f" x1="454.89" y1="374.89" x2="453.86" y2="374.89"/><line class="f" x1="473.55" y1="374.89" x2="454.89" y2="374.89"/><line class="f" x1="474.59" y1="374.89" x2="473.55" y2="374.89"/><line class="f" x1="474.59" y1="375.93" x2="474.59" y2="374.89"/><line class="f" x1="453.86" y1="375.93" x2="474.59" y2="375.93"/><rect class="d" x="473.55" y="372.47" width="1.04" height="2.42"/><line class="f" x1="473.55" y1="374.89" x2="474.59" y2="374.89"/><line class="f" x1="473.55" y1="372.47" x2="473.55" y2="374.89"/><line class="f" x1="474.59" y1="372.47" x2="473.55" y2="372.47"/><line class="f" x1="474.59" y1="374.89" x2="474.59" y2="372.47"/><rect class="d" x="377.5" y="253.78" width="16.58" height="115.4"/><line class="f" x1="377.5" y1="253.79" x2="394.08" y2="253.79"/><line class="f" x1="394.08" y1="253.79" x2="394.08" y2="369.19"/><line class="f" x1="394.08" y1="369.19" x2="377.5" y2="369.19"/><line class="f" x1="377.5" y1="369.19" x2="377.5" y2="253.79"/><rect class="d" x="474.42" y="255.51" width="27.64" height="2.18"/><line class="f" x1="502.06" y1="255.51" x2="474.42" y2="255.51"/><line class="f" x1="502.06" y1="257.69" x2="502.06" y2="255.51"/><line class="f" x1="474.42" y1="257.69" x2="502.06" y2="257.69"/><line class="f" x1="474.42" y1="255.51" x2="474.42" y2="257.69"/><polygon class="g" points="507.24 256.6 506.73 257.82 505.51 258.33 504.29 257.82 503.79 256.6 504.29 255.38 505.51 254.87 506.73 255.38 507.24 256.6"/><g class="i"><path class="f" d="M507.24,256.6a1.73,1.73,0,1,1-3.45,0"/><path class="f" d="M503.79,256.6a1.73,1.73,0,1,1,3.45,0"/></g><rect class="d" x="283.51" y="255.51" width="48.37" height="3.45"/><line class="f" x1="331.89" y1="255.51" x2="283.51" y2="255.51"/><line class="f" x1="331.89" y1="258.97" x2="331.89" y2="255.51"/><line class="f" x1="283.51" y1="258.97" x2="331.89" y2="258.97"/><line class="f" x1="283.51" y1="255.51" x2="283.51" y2="258.97"/><polygon class="g" points="337.07 257.24 336.56 258.46 335.34 258.97 334.12 258.46 333.62 257.24 334.12 256.02 335.34 255.51 336.56 256.02 337.07 257.24"/><g class="i"><path class="f" d="M337.07,257.24a1.73,1.73,0,1,1-3.45,0"/><path class="f" d="M333.62,257.24a1.73,1.73,0,1,1,3.45,0"/></g><polygon class="g" points="524.35 343.62 524.35 281.43 513.98 281.43 462.15 281.43 459.51 281.95 457.26 283.45 455.76 285.69 455.24 288.34 455.24 336.71 455.76 339.36 457.26 341.6 459.51 343.1 462.15 343.62 524.35 343.62"/><rect class="d" x="513.98" y="343.62" width="10.37" height="12.09"/><rect class="d" x="513.98" y="269.33" width="10.37" height="12.09"/><line class="f" x1="512.86" y1="310.57" x2="515.84" y2="309.74"/><line class="f" x1="512.86" y1="339.58" x2="515.84" y2="338.75"/><line class="f" x1="455.24" y1="288.34" x2="455.24" y2="336.71"/><line class="f" x1="462.15" y1="343.62" x2="524.34" y2="343.62"/><line class="f" x1="524.35" y1="343.62" x2="524.35" y2="281.43"/><line class="f" x1="524.35" y1="281.43" x2="462.15" y2="281.43"/><line class="f" x1="524.35" y1="343.62" x2="524.35" y2="355.71"/><line class="f" x1="524.35" y1="355.71" x2="513.98" y2="355.71"/><line class="f" x1="513.98" y1="355.71" x2="513.98" y2="343.62"/><line class="f" x1="513.98" y1="343.62" x2="524.35" y2="343.62"/><line class="f" x1="524.35" y1="269.33" x2="524.35" y2="281.43"/><line class="f" x1="524.35" y1="281.43" x2="513.98" y2="281.43"/><line class="f" x1="513.98" y1="281.43" x2="513.98" y2="269.33"/><line class="f" x1="513.98" y1="269.33" x2="524.35" y2="269.33"/><line class="f" x1="501.35" y1="343.62" x2="501.35" y2="281.43"/><line class="f" x1="496.17" y1="343.62" x2="496.17" y2="281.43"/><g class="i"><path class="f" d="M506.59,315.15a96.54,96.54,0,0,1,.34,22.52"/><path class="f" d="M508.83,339.91h-.09a1.85,1.85,0,0,1-1.85-1.85,2.58,2.58,0,0,1,0-.39"/><path class="f" d="M512.86,339.58a15,15,0,0,1-3.2.35l-.83,0"/><path class="f" d="M520.57,339.78c-.83,0-1.67.05-2.5.05-1.74,0-3.48-.08-5.21-.25"/><path class="f" d="M521.07,339.32a.22.22,0,0,1,0,.08.4.4,0,0,1-.39.4l-.12,0"/><path class="f" d="M521.07,339.32q-.57-7.43-.57-14.86,0-4.69.23-9.39"/><path class="f" d="M519.48,314a1.06,1.06,0,0,1,.31,0,1,1,0,0,1,1,1,1.49,1.49,0,0,1,0,.21"/><path class="f" d="M519.48,314a46.29,46.29,0,0,1-11.91.18"/><path class="f" d="M506.59,315.15a1,1,0,0,1,0-.25.79.79,0,0,1,.8-.79.83.83,0,0,1,.22,0"/><path class="f" d="M462.15,343.62a6.91,6.91,0,0,1-6.91-6.91"/><path class="f" d="M455.24,288.34a6.91,6.91,0,0,1,6.91-6.91"/><path class="f" d="M506.59,286.13a96.54,96.54,0,0,1,.34,22.52"/><path class="f" d="M508.83,310.9h-.09a1.85,1.85,0,0,1-1.85-1.85,2.71,2.71,0,0,1,0-.4"/><path class="f" d="M512.86,310.57a15,15,0,0,1-3.2.35l-.83,0"/><path class="f" d="M520.57,310.76c-.83,0-1.67.06-2.5.06-1.74,0-3.48-.08-5.21-.25"/><path class="f" d="M521.07,310.31a.19.19,0,0,1,0,.08.39.39,0,0,1-.39.39.25.25,0,0,1-.12,0"/><path class="f" d="M521.07,310.31q-.57-7.43-.57-14.86,0-4.69.23-9.39"/><path class="f" d="M519.48,285a.81.81,0,0,1,.31-.05,1,1,0,0,1,1,1,1.36,1.36,0,0,1,0,.2"/><path class="f" d="M519.48,285a46.29,46.29,0,0,1-11.91.18"/><path class="f" d="M506.59,286.13a.93.93,0,0,1,0-.24.8.8,0,0,1,.8-.8.85.85,0,0,1,.22,0"/></g><polygon class="g" points="384.9 296.36 383.52 298.06 382.77 300.2 382.77 302.49 383.52 304.63 384.9 306.34 384.9 317.1 386.82 317.1 388.74 309.22 388.74 306.93 389.78 303.26 389.78 299.43 388.74 295.76 388.74 293.47 386.82 285.59 384.9 285.59 384.9 296.36"/><line class="f" x1="384.9" y1="285.59" x2="384.9" y2="296.36"/><line class="f" x1="386.82" y1="285.59" x2="384.9" y2="285.59"/><line class="f" x1="388.74" y1="293.47" x2="386.82" y2="285.59"/><line class="f" x1="388.74" y1="295.76" x2="388.74" y2="293.47"/><line class="f" x1="389.78" y1="299.42" x2="388.74" y2="295.76"/><line class="f" x1="389.78" y1="303.27" x2="389.78" y2="299.42"/><line class="f" x1="388.74" y1="306.93" x2="389.78" y2="303.27"/><line class="f" x1="388.74" y1="309.22" x2="388.74" y2="306.93"/><line class="f" x1="386.82" y1="317.1" x2="388.74" y2="309.22"/><line class="f" x1="384.9" y1="317.1" x2="386.82" y2="317.1"/><line class="f" x1="384.9" y1="306.33" x2="384.9" y2="317.1"/><line class="f" x1="383.52" y1="304.63" x2="384.9" y2="306.33"/><line class="f" x1="382.77" y1="302.49" x2="383.52" y2="304.63"/><line class="f" x1="382.77" y1="300.2" x2="382.77" y2="302.49"/><line class="f" x1="383.52" y1="298.06" x2="382.77" y2="300.2"/><line class="f" x1="384.9" y1="296.35" x2="383.52" y2="298.06"/><line class="f" x1="384.9" y1="285.59" x2="384.9" y2="317.1"/><line class="f" x1="388.74" y1="309.22" x2="388.74" y2="293.47"/><line class="f" x1="386.82" y1="285.59" x2="384.9" y2="285.59"/><line class="f" x1="385.67" y1="315" x2="385.67" y2="312.9"/><line class="f" x1="385.67" y1="312.9" x2="386.15" y2="312.9"/><line class="f" x1="386.15" y1="312.9" x2="386.15" y2="315"/><line class="f" x1="386.15" y1="315" x2="385.67" y2="315"/><line class="f" x1="385.67" y1="312.37" x2="385.67" y2="310.27"/><line class="f" x1="385.67" y1="310.27" x2="386.15" y2="310.27"/><line class="f" x1="386.15" y1="310.27" x2="386.15" y2="312.37"/><line class="f" x1="386.15" y1="312.37" x2="385.67" y2="312.37"/><line class="f" x1="386.82" y1="285.59" x2="386.82" y2="317.1"/><line class="f" x1="386.15" y1="309.75" x2="385.67" y2="309.75"/><line class="f" x1="385.67" y1="309.75" x2="385.67" y2="308.7"/><line class="f" x1="385.67" y1="308.7" x2="386.15" y2="308.7"/><line class="f" x1="386.15" y1="308.7" x2="386.15" y2="309.75"/><g class="i"><path class="f" d="M384.9,306.33a6.71,6.71,0,0,1,0-10"/></g><polygon class="g" points="298.71 288.4 299.34 288.03 299.4 287.3 299.4 261.73 299.43 261.25 299.17 260.85 298.71 260.7 270.72 260.7 270.23 260.9 270.03 261.39 270.03 332.56 270.23 333.06 270.72 333.25 295.94 333.25 297.67 332.79 298.94 331.53 299.4 329.8 299.4 328.76 299.2 328.28 298.71 328.07 299.21 327.66 299.4 327.04 299.4 289.38 299.21 288.78 298.71 288.4"/><polygon class="g" points="321.86 288.34 324.5 287.81 326.75 286.31 328.24 284.07 328.77 281.43 328.77 267.61 328.24 264.96 326.75 262.72 324.5 261.22 321.86 260.7 300.44 260.7 299.7 261 299.4 261.73 299.4 287.3 299.7 288.03 300.44 288.34 321.86 288.34"/><line class="f" x1="300.44" y1="288.34" x2="321.86" y2="288.34"/><g class="i"><path class="f" d="M300.44,288.34a1,1,0,0,1-1-1"/></g><line class="f" x1="299.4" y1="261.73" x2="299.4" y2="287.3"/><g class="i"><path class="f" d="M299.4,261.73a1,1,0,0,1,1-1"/></g><line class="f" x1="321.86" y1="260.7" x2="300.44" y2="260.7"/><g class="i"><path class="f" d="M321.86,260.7a6.91,6.91,0,0,1,6.91,6.91"/></g><line class="f" x1="328.77" y1="281.43" x2="328.77" y2="267.61"/><g class="i"><path class="f" d="M328.77,281.43a6.91,6.91,0,0,1-6.91,6.91"/></g><line class="f" x1="299.4" y1="328.76" x2="299.4" y2="329.8"/><line class="f" x1="295.95" y1="333.26" x2="270.72" y2="333.26"/><line class="f" x1="270.03" y1="332.56" x2="270.03" y2="328.76"/><line class="f" x1="270.72" y1="328.07" x2="298.71" y2="328.07"/><line class="f" x1="270.03" y1="328.76" x2="270.03" y2="288.34"/><line class="f" x1="270.03" y1="288.34" x2="272.45" y2="288.34"/><line class="f" x1="299.4" y1="289.37" x2="299.4" y2="327.04"/><line class="f" x1="298.36" y1="328.07" x2="281.04" y2="328.07"/><line class="f" x1="281.04" y1="288.34" x2="298.36" y2="288.34"/><line class="f" x1="272.45" y1="328.07" x2="278.97" y2="328.07"/><line class="f" x1="278.97" y1="288.34" x2="272.45" y2="288.34"/><line class="f" x1="299.4" y1="265.19" x2="299.4" y2="261.39"/><line class="f" x1="298.71" y1="260.7" x2="270.72" y2="260.7"/><line class="f" x1="270.03" y1="261.39" x2="270.03" y2="265.19"/><line class="f" x1="270.03" y1="265.19" x2="270.03" y2="288.34"/><line class="f" x1="270.03" y1="288.34" x2="272.45" y2="288.34"/><line class="f" x1="299.4" y1="287.3" x2="299.4" y2="266.92"/><line class="f" x1="281.04" y1="288.34" x2="298.36" y2="288.34"/><line class="f" x1="281.04" y1="288.34" x2="272.45" y2="288.34"/><line class="f" x1="328.77" y1="281.43" x2="328.77" y2="267.61"/><line class="f" x1="321.86" y1="260.7" x2="300.44" y2="260.7"/><line class="f" x1="299.4" y1="261.73" x2="299.4" y2="287.3"/><line class="f" x1="300.44" y1="288.34" x2="321.86" y2="288.34"/><line class="f" x1="271.41" y1="287.3" x2="271.41" y2="261.73"/><line class="f" x1="271.41" y1="289.37" x2="271.41" y2="327.04"/><g class="i"><path class="f" d="M270.72,333.26a.69.69,0,0,1-.69-.7"/><path class="f" d="M270,328.76a.69.69,0,0,1,.69-.69"/><path class="f" d="M298.71,328.07a.69.69,0,0,1,.69.69"/><path class="f" d="M299.4,327a1,1,0,0,1-1,1"/><path class="f" d="M298.36,288.34a1,1,0,0,1,1,1"/><path class="f" d="M298.71,260.7a.69.69,0,0,1,.69.69"/><path class="f" d="M270,261.39a.69.69,0,0,1,.69-.69"/><path class="f" d="M299.4,287.3a1,1,0,0,1-1,1"/><path class="f" d="M299.4,261.73a1,1,0,0,1,1-1"/><path class="f" d="M300.44,288.34a1,1,0,0,1-1-1"/></g><line class="f" x1="271.41" y1="261.73" x2="294.95" y2="261.73"/><g class="i"><path class="f" d="M275.44,287.34A19.57,19.57,0,0,1,290.2,263"/><path class="f" d="M276.25,289.37a118.22,118.22,0,0,1,0,37.67"/><path class="f" d="M328.77,281.43a6.91,6.91,0,0,1-6.91,6.91"/><path class="f" d="M321.86,260.7a6.91,6.91,0,0,1,6.91,6.91"/><path class="f" d="M299.4,329.8a3.46,3.46,0,0,1-3.45,3.46"/></g><polygon class="g" points="316.85 348.74 319.04 345.87 321.89 343.67 325.22 342.28 328.79 341.8 324.92 335.1 323.66 333.84 321.93 333.37 320.21 333.84 314.24 337.31 312.98 338.58 312.52 340.31 312.98 342.04 316.85 348.74"/><polygon class="g" points="328.83 369.5 325.26 369.03 321.93 367.65 319.07 365.46 316.87 362.59 313.02 369.3 312.56 371.04 313.03 372.77 314.29 374.03 320.27 377.48 322 377.94 323.72 377.48 324.99 376.21 328.83 369.5"/><polygon class="g" points="340.75 348.7 342.14 352.05 342.61 355.63 342.15 359.21 340.77 362.56 348.49 362.55 350.21 362.08 351.48 360.81 351.94 359.08 351.93 352.15 351.46 350.42 350.19 349.16 348.47 348.69 340.75 348.7"/><polygon class="g" points="328.79 341.8 325.22 342.28 321.89 343.67 319.04 345.87 316.85 348.74 315.47 352.08 315.01 355.67 315.49 359.25 316.87 362.59 319.07 365.46 321.93 367.65 325.26 369.03 328.83 369.5 332.4 369.02 335.73 367.63 338.58 365.43 340.77 362.55 342.15 359.21 342.61 355.63 342.14 352.05 340.75 348.7 338.56 345.84 335.69 343.64 332.36 342.27 328.79 341.8"/><line class="f" x1="332.36" y1="342.27" x2="328.79" y2="341.8"/><line class="f" x1="335.69" y1="343.64" x2="332.36" y2="342.27"/><line class="f" x1="338.56" y1="345.84" x2="335.69" y2="343.64"/><line class="f" x1="340.75" y1="348.7" x2="338.56" y2="345.84"/><line class="f" x1="342.14" y1="352.05" x2="340.75" y2="348.7"/><line class="f" x1="342.61" y1="355.63" x2="342.14" y2="352.05"/><line class="f" x1="342.15" y1="359.21" x2="342.61" y2="355.63"/><line class="f" x1="340.77" y1="362.56" x2="342.15" y2="359.22"/><line class="f" x1="338.59" y1="365.43" x2="340.77" y2="362.56"/><line class="f" x1="335.73" y1="367.63" x2="338.59" y2="365.43"/><line class="f" x1="332.4" y1="369.02" x2="335.73" y2="367.63"/><line class="f" x1="328.83" y1="369.5" x2="332.4" y2="369.02"/><line class="f" x1="325.26" y1="369.03" x2="328.83" y2="369.5"/><line class="f" x1="321.93" y1="367.65" x2="325.26" y2="369.03"/><line class="f" x1="319.07" y1="365.46" x2="321.93" y2="367.65"/><line class="f" x1="316.87" y1="362.59" x2="319.07" y2="365.46"/><line class="f" x1="315.49" y1="359.25" x2="316.87" y2="362.59"/><line class="f" x1="315.01" y1="355.67" x2="315.49" y2="359.25"/><line class="f" x1="315.47" y1="352.08" x2="315.01" y2="355.67"/><line class="f" x1="316.85" y1="348.74" x2="315.47" y2="352.08"/><line class="f" x1="319.04" y1="345.87" x2="316.85" y2="348.74"/><line class="f" x1="321.89" y1="343.67" x2="319.04" y2="345.87"/><line class="f" x1="325.22" y1="342.28" x2="321.89" y2="343.67"/><line class="f" x1="328.79" y1="341.8" x2="325.22" y2="342.28"/><g class="i"><path class="f" d="M342.61,355.63a13.8,13.8,0,1,1-27.6,0"/><path class="f" d="M315,355.67a13.8,13.8,0,1,1,27.6,0"/></g><line class="f" x1="315.1" y1="338.81" x2="321.07" y2="335.34"/><line class="f" x1="324.92" y1="335.1" x2="328.79" y2="341.8"/><line class="f" x1="314.24" y1="337.31" x2="320.21" y2="333.84"/><line class="f" x1="316.85" y1="348.74" x2="312.98" y2="342.04"/><line class="f" x1="321.13" y1="375.98" x2="315.15" y2="372.53"/><line class="f" x1="313.02" y1="369.3" x2="316.87" y2="362.59"/><line class="f" x1="320.27" y1="377.48" x2="314.29" y2="374.03"/><line class="f" x1="328.83" y1="369.5" x2="324.99" y2="376.21"/><line class="f" x1="350.2" y1="352.15" x2="350.21" y2="359.08"/><line class="f" x1="348.49" y1="362.55" x2="340.77" y2="362.56"/><line class="f" x1="351.93" y1="352.15" x2="351.94" y2="359.08"/><line class="f" x1="340.75" y1="348.7" x2="348.47" y2="348.69"/><g class="i"><path class="f" d="M321.07,335.34a1.75,1.75,0,0,1,.87-.24,1.72,1.72,0,0,1,1.49.87"/><path class="f" d="M314.48,341.17a1.64,1.64,0,0,1-.24-.86,1.74,1.74,0,0,1,.86-1.5"/><path class="f" d="M320.21,333.84a3.37,3.37,0,0,1,1.72-.47,3.48,3.48,0,0,1,3,1.73"/><path class="f" d="M313,342a3.48,3.48,0,0,1,1.26-4.73"/><path class="f" d="M315.15,372.53a1.73,1.73,0,0,1-.63-2.36"/><path class="f" d="M323.49,375.35a1.72,1.72,0,0,1-1.49.86,1.74,1.74,0,0,1-.87-.23"/><path class="f" d="M314.29,374a3.46,3.46,0,0,1-1.73-3,3.54,3.54,0,0,1,.46-1.74"/><path class="f" d="M325,376.21a3.49,3.49,0,0,1-3,1.74,3.41,3.41,0,0,1-1.73-.47"/><path class="f" d="M350.21,359.08h0a1.73,1.73,0,0,1-1.72,1.73"/><path class="f" d="M348.47,350.43a1.72,1.72,0,0,1,1.73,1.72"/><path class="f" d="M351.93,359.08a3.44,3.44,0,0,1-3.44,3.46"/><path class="f" d="M348.47,348.69a3.46,3.46,0,0,1,3.45,3.46"/></g><polygon class="g" points="462.5 419.98 444.53 419.98 444.16 419.83 444.01 419.46 444.01 405.3 444.16 404.93 444.53 404.78 462.5 404.78 462.86 404.93 463.01 405.3 463.01 419.46 462.86 419.83 462.5 419.98"/><line class="f" x1="462.5" y1="419.98" x2="444.53" y2="419.98"/><g class="i"><path class="f" d="M444.53,420a.52.52,0,0,1-.52-.52"/></g><line class="f" x1="444.01" y1="419.46" x2="444.01" y2="405.3"/><g class="i"><path class="f" d="M444,405.3a.52.52,0,0,1,.52-.52"/></g><line class="f" x1="444.53" y1="404.78" x2="462.5" y2="404.78"/><g class="i"><path class="f" d="M462.5,404.78a.51.51,0,0,1,.51.52"/></g><line class="f" x1="463.01" y1="405.3" x2="463.01" y2="419.46"/><g class="i"><path class="f" d="M463,419.46a.51.51,0,0,1-.51.52"/></g><line class="f" x1="461.46" y1="416.18" x2="445.57" y2="416.18"/><line class="f" x1="445.05" y1="415.66" x2="445.05" y2="406.33"/><line class="f" x1="445.57" y1="405.82" x2="461.46" y2="405.82"/><line class="f" x1="461.98" y1="406.33" x2="461.98" y2="415.66"/><g class="i"><path class="f" d="M445.57,416.18a.52.52,0,0,1-.52-.52"/><path class="f" d="M445.05,406.33a.51.51,0,0,1,.52-.51"/><path class="f" d="M461.46,405.82a.51.51,0,0,1,.52.51"/><path class="f" d="M462,415.66a.52.52,0,0,1-.52.52"/></g><polygon class="g" points="454.38 417.91 454.24 416.46 454.13 416.13 453.9 414.3 453.77 414.06 453.51 413.96 453.26 414.06 453.13 414.3 452.9 416.13 452.79 416.46 452.65 417.91 452.9 418.52 453.51 418.77 454.13 418.52 454.38 417.91"/><g class="i"><path class="f" d="M454.38,417.91a.87.87,0,0,1-1.73,0"/></g><line class="f" x1="452.79" y1="416.46" x2="452.65" y2="417.91"/><g class="i"><path class="f" d="M452.79,416.46a.76.76,0,0,1,.11-.33"/></g><line class="f" x1="453.13" y1="414.3" x2="452.9" y2="416.13"/><g class="i"><path class="f" d="M453.13,414.3a.39.39,0,0,1,.38-.34.4.4,0,0,1,.39.34"/></g><line class="f" x1="454.12" y1="416.13" x2="453.9" y2="414.3"/><g class="i"><path class="f" d="M454.12,416.13a.66.66,0,0,1,.12.33"/></g><line class="f" x1="454.38" y1="417.91" x2="454.24" y2="416.46"/><line class="f" x1="453.04" y1="417.05" x2="453.04" y2="416.53"/><line class="f" x1="453.98" y1="416.53" x2="453.98" y2="417.05"/><line class="f" x1="453.98" y1="417.05" x2="453.04" y2="417.05"/><g class="i"><path class="f" d="M453,416.53a.47.47,0,0,1,.94,0"/><path class="f" d="M452.9,416.13a.73.73,0,0,1,1.22,0"/></g><rect class="d" x="396.5" y="253.78" width="20.73" height="41.46"/><line class="f" x1="417.23" y1="295.25" x2="417.23" y2="253.79"/><line class="f" x1="417.23" y1="253.79" x2="396.5" y2="253.79"/><line class="f" x1="396.5" y1="253.79" x2="396.5" y2="295.25"/><line class="f" x1="396.5" y1="295.25" x2="417.23" y2="295.25"/><line class="f" x1="406.87" y1="293.17" x2="406.87" y2="255.86"/><line class="f" x1="412.97" y1="291.25" x2="400.54" y2="287.74"/><line class="f" x1="413.58" y1="287.3" x2="402.03" y2="285.85"/><line class="f" x1="399.39" y1="281.9" x2="412.07" y2="280.71"/><line class="f" x1="401.05" y1="275.78" x2="412.07" y2="277.4"/><line class="f" x1="400.42" y1="273.56" x2="414" y2="273.56"/><line class="f" x1="400.36" y1="267.25" x2="413.78" y2="268.75"/><line class="f" x1="400.59" y1="264.89" x2="412.84" y2="264.89"/><line class="f" x1="400.46" y1="258.67" x2="413.03" y2="257.48"/><line class="f" x1="401.32" y1="260.17" x2="411.94" y2="261.38"/><rect class="d" x="396.5" y="295.25" width="20.73" height="41.46"/><line class="f" x1="417.23" y1="336.71" x2="417.23" y2="295.25"/><line class="f" x1="417.23" y1="295.25" x2="396.5" y2="295.25"/><line class="f" x1="396.5" y1="295.25" x2="396.5" y2="336.71"/><line class="f" x1="396.5" y1="336.71" x2="417.23" y2="336.71"/><line class="f" x1="406.87" y1="334.64" x2="406.87" y2="297.32"/><line class="f" x1="412.97" y1="332.71" x2="400.54" y2="329.21"/><line class="f" x1="413.58" y1="328.76" x2="402.03" y2="327.31"/><line class="f" x1="399.39" y1="323.36" x2="412.07" y2="322.17"/><line class="f" x1="401.05" y1="317.24" x2="412.07" y2="318.86"/><line class="f" x1="400.42" y1="315.02" x2="414" y2="315.02"/><line class="f" x1="400.36" y1="308.72" x2="413.78" y2="310.21"/><line class="f" x1="400.59" y1="306.36" x2="412.84" y2="306.36"/><line class="f" x1="400.46" y1="300.14" x2="413.03" y2="298.94"/><line class="f" x1="401.32" y1="301.63" x2="411.94" y2="302.85"/><polygon class="g" points="484.09 419.98 484.09 408.58 483.83 406.87 483.05 405.33 481.85 404.09 479.88 403.06 477.7 402.71 475.51 403.06 473.55 404.09 472.35 405.33 471.57 406.87 471.31 408.58 471.31 419.98 484.09 419.98"/><line class="f" x1="471.31" y1="419.98" x2="471.31" y2="408.58"/><line class="f" x1="471.31" y1="419.98" x2="484.09" y2="419.98"/><line class="f" x1="484.09" y1="419.98" x2="484.09" y2="408.58"/><line class="f" x1="473.38" y1="415.84" x2="473.38" y2="408.58"/><line class="f" x1="482.02" y1="415.84" x2="482.02" y2="408.58"/><line class="f" x1="482.02" y1="415.84" x2="473.38" y2="415.84"/><g class="i"><path class="f" d="M471.31,408.58a5.61,5.61,0,0,1,2.24-4.49"/><path class="f" d="M481.85,404.09a5.61,5.61,0,0,1,2.24,4.49"/><path class="f" d="M473.55,404.09a6.92,6.92,0,0,1,8.29,0"/><path class="f" d="M481.85,404.09a5.61,5.61,0,0,1,2.24,4.49"/><path class="f" d="M477.7,402.71a6.9,6.9,0,0,1,4.15,1.38"/><path class="f" d="M480.6,405.75a3.55,3.55,0,0,1,1.42,2.83"/><path class="f" d="M474.8,405.75a4.82,4.82,0,0,1,5.8,0"/><path class="f" d="M473.38,408.58a3.55,3.55,0,0,1,1.42-2.83"/></g><line class="f" x1="394.77" y1="425.16" x2="401.68" y2="425.16"/><line class="f" x1="405.48" y1="425.16" x2="406.26" y2="425.16"/><line class="f" x1="410.06" y1="425.16" x2="410.84" y2="425.16"/><line class="f" x1="414.64" y1="425.16" x2="421.55" y2="425.16"/><line class="f" x1="425.35" y1="425.16" x2="426.13" y2="425.16"/><line class="f" x1="427.08" y1="425.16" x2="433.99" y2="425.16"/><line class="f" x1="307.01" y1="417.49" x2="307.01" y2="411.69"/><line class="f" x1="307.01" y1="411.69" x2="309.37" y2="413.6"/><line class="f" x1="309.37" y1="413.6" x2="311.72" y2="411.69"/><line class="f" x1="311.72" y1="411.69" x2="311.72" y2="417.49"/><line class="f" x1="261.92" y1="188.14" x2="528.84" y2="188.14"/><line class="f" x1="261.92" y1="186.41" x2="528.84" y2="186.41"/><line class="f" x1="261.92" y1="184.68" x2="528.84" y2="184.68"/><line class="f" x1="257.95" y1="433.46" x2="532.64" y2="433.46"/><line class="f" x1="532.64" y1="433.46" x2="532.64" y2="239.96"/><line class="f" x1="532.64" y1="239.96" x2="528.84" y2="239.96"/><line class="f" x1="528.84" y1="239.96" x2="528.84" y2="184.67"/><line class="f" x1="528.84" y1="184.67" x2="261.92" y2="184.67"/><line class="f" x1="261.92" y1="184.67" x2="261.92" y2="239.96"/><line class="f" x1="261.92" y1="239.96" x2="257.94" y2="239.96"/><line class="f" x1="257.95" y1="239.96" x2="257.95" y2="433.46"/><path class="j" d="M386,386.46v7h-.72V387.1H383.6v-.64Z"/><path class="j" d="M387.65,393a.53.53,0,0,1,.53-.54.54.54,0,0,1,.54.54.55.55,0,0,1-.54.55A.54.54,0,0,1,387.65,393Z"/><path class="j" d="M389.66,390c0-2.23,1.17-3.56,2.79-3.56s2.8,1.33,2.8,3.56-1.18,3.56-2.8,3.56S389.66,392.19,389.66,390Zm4.85,0c0-1.87-.84-2.9-2.06-2.9s-2.06,1-2.06,2.9.84,2.9,2.06,2.9S394.51,391.83,394.51,390Z"/><path class="j" d="M398.21,386.46v7h-.72V387.1h-1.65v-.64Z"/><path class="j" d="M345.73,307.38v7H345V308h-1.65v-.64Z"/><path class="j" d="M347.41,313.88a.53.53,0,0,1,.53-.54.54.54,0,0,1,.54.54.55.55,0,0,1-.54.55A.54.54,0,0,1,347.41,313.88Z"/><path class="j" d="M349.42,310.88c0-2.23,1.17-3.56,2.79-3.56s2.8,1.33,2.8,3.56-1.18,3.56-2.8,3.56S349.42,313.11,349.42,310.88Zm4.84,0c0-1.87-.83-2.9-2.05-2.9s-2.06,1-2.06,2.9.84,2.9,2.06,2.9S354.26,312.75,354.26,310.88Z"/><path class="j" d="M360.8,313.74v.64h-4.9v-.51l2.91-2.85c.79-.78.94-1.25.94-1.73,0-.81-.57-1.31-1.64-1.31a2.38,2.38,0,0,0-1.91.78l-.51-.44a3.15,3.15,0,0,1,2.48-1c1.42,0,2.32.72,2.32,1.89a2.88,2.88,0,0,1-1.15,2.19L357,313.74Z"/><path class="j" d="M429.91,305.78v7h-.72v-6.36h-1.65v-.64Z"/><path class="j" d="M431.59,312.28a.53.53,0,0,1,.53-.54.54.54,0,0,1,.54.54.55.55,0,0,1-.54.55A.54.54,0,0,1,431.59,312.28Z"/><path class="j" d="M433.6,309.28c0-2.23,1.17-3.56,2.79-3.56s2.79,1.33,2.79,3.56-1.17,3.56-2.79,3.56S433.6,311.51,433.6,309.28Zm4.85,0c0-1.87-.84-2.9-2.06-2.9s-2.06,1-2.06,2.9.84,2.9,2.06,2.9S438.45,311.15,438.45,309.28Z"/><path class="j" d="M444.76,310.77c0,1.17-.85,2.07-2.54,2.07a3.64,3.64,0,0,1-2.52-.9l.35-.57a3.07,3.07,0,0,0,2.17.81c1.16,0,1.8-.54,1.8-1.41s-.59-1.39-1.89-1.39h-.5v-.53l1.94-2.43H440v-.64h4.5v.51l-2,2.49C444,308.86,444.76,309.65,444.76,310.77Z"/><path class="j" d="M456.13,386.46v7h-.72V387.1h-1.65v-.64Z"/><path class="j" d="M457.81,393a.53.53,0,0,1,.53-.54.54.54,0,0,1,.54.54.55.55,0,0,1-.54.55A.54.54,0,0,1,457.81,393Z"/><path class="j" d="M459.82,390c0-2.23,1.17-3.56,2.79-3.56s2.79,1.33,2.79,3.56-1.17,3.56-2.79,3.56S459.82,392.19,459.82,390Zm4.85,0c0-1.87-.84-2.9-2.06-2.9s-2.06,1-2.06,2.9.84,2.9,2.06,2.9S464.67,391.83,464.67,390Z"/><path class="j" d="M472.38,391.62H471v1.84h-.72v-1.84h-3.95v-.52l3.71-4.64h.8L467.25,391h3v-1.62h.7V391h1.39Z"/><path class="j" d="M429.91,210.83v7h-.72v-6.36h-1.65v-.64Z"/><path class="j" d="M431.59,217.33a.53.53,0,0,1,.53-.54.54.54,0,0,1,.54.54.55.55,0,0,1-.54.55A.54.54,0,0,1,431.59,217.33Z"/><path class="j" d="M433.6,214.33c0-2.23,1.17-3.56,2.79-3.56s2.79,1.33,2.79,3.56-1.17,3.56-2.79,3.56S433.6,216.56,433.6,214.33Zm4.85,0c0-1.87-.84-2.9-2.06-2.9s-2.06,1-2.06,2.9.84,2.9,2.06,2.9S438.45,216.2,438.45,214.33Z"/><path class="j" d="M445,215.77c0,1.19-.83,2.12-2.54,2.12a3.61,3.61,0,0,1-2.51-.9l.35-.57a3,3,0,0,0,2.15.81c1.19,0,1.82-.58,1.82-1.43s-.56-1.46-2.34-1.46h-1.49l.36-3.51h3.83v.64h-3.2l-.24,2.23h.9C444.17,213.7,445,214.53,445,215.77Z"/></svg>