<svg xmlns="http://www.w3.org/2000/svg" xmlns:xlink="http://www.w3.org/1999/xlink" viewBox="0 0 790.58 618.13"><defs><style>.a,.f{fill:none;}.b{fill:#595a5c;}.c{fill:#b6906c;}.d{fill:#fff;}.e{fill:#231f20;}.f{stroke:#000;stroke-linecap:round;stroke-linejoin:round;stroke-width:0.35px;}.g{clip-path:url(#a);}.h{fill:#58595b;}</style><clipPath id="a"><polygon class="a" points="241.21 183.28 241.21 239.2 237.18 239.2 237.18 434.84 553.4 434.84 553.4 239.2 549.03 239.2 549.03 183.28 241.21 183.28"/></clipPath></defs><path class="b" d="M55.31,597.13H57.1V609.9H55.31Zm.92,6.11h4.09a1.89,1.89,0,0,0,1-.27,1.82,1.82,0,0,0,.68-.77,2.67,2.67,0,0,0,.24-1.16,2.7,2.7,0,0,0-.24-1.16,1.82,1.82,0,0,0-1.7-1H56.23v-1.7h4a4.09,4.09,0,0,1,2,.48A3.45,3.45,0,0,1,63.62,599a4.64,4.64,0,0,1,0,4.11,3.34,3.34,0,0,1-1.35,1.36,4,4,0,0,1-2,.49h-4Z"/><path class="b" d="M67.7,606.33a2.07,2.07,0,0,0,.49,1.48,1.76,1.76,0,0,0,1.37.52,1.89,1.89,0,0,0,1.37-.46,1.79,1.79,0,0,0,.48-1.33l.12,1.91A2.58,2.58,0,0,1,69.06,610a2.89,2.89,0,0,1-2.33-1,4.08,4.08,0,0,1-.82-2.73v-5.55H67.7Zm.22-7.86a1.93,1.93,0,0,1-.56-1.5,2.07,2.07,0,0,1,.56-1.57,2.56,2.56,0,0,1,3.18,0,2.08,2.08,0,0,1,.57,1.56,1.94,1.94,0,0,1-.57,1.5,2.65,2.65,0,0,1-3.18,0Zm2.26-.86a.94.94,0,0,0,.24-.68,1,1,0,0,0-.24-.7.91.91,0,0,0-.67-.25.92.92,0,0,0-.67.25,1,1,0,0,0-.23.7,1,1,0,0,0,.23.68.92.92,0,0,0,.67.24A.9.9,0,0,0,70.18,597.61Zm1.23,3.17h1.78v9.12H71.41Z"/><path class="b" d="M77.1,609.63A2.82,2.82,0,0,1,76,608.36a5.08,5.08,0,0,1-.36-2v-2a5.05,5.05,0,0,1,.36-2,2.71,2.71,0,0,1,1-1.27,3,3,0,0,1,1.65-.44,2.71,2.71,0,0,1,1.48.42,3.22,3.22,0,0,1,1.09,1.19l-.18,1.86a2.19,2.19,0,0,0-.22-1,1.48,1.48,0,0,0-.61-.63,2,2,0,0,0-1-.21,1.71,1.71,0,0,0-1.37.55,2.26,2.26,0,0,0-.49,1.56v2a2.19,2.19,0,0,0,.49,1.54,1.74,1.74,0,0,0,1.37.54,1.93,1.93,0,0,0,1-.23,1.45,1.45,0,0,0,.61-.64,2.25,2.25,0,0,0,.22-1l.12,1.92a2.66,2.66,0,0,1-.89,1.14,2.56,2.56,0,0,1-1.53.45A3.19,3.19,0,0,1,77.1,609.63Zm4-12.5H82.9V609.9H81.11Z"/><path class="b" d="M87.09,609.57a3.09,3.09,0,0,1-1.29-1.36,4.85,4.85,0,0,1-.44-2.15v-1.48a4.71,4.71,0,0,1,.44-2.12,3.12,3.12,0,0,1,1.29-1.35,4.71,4.71,0,0,1,4.06,0,3.12,3.12,0,0,1,1.29,1.35,4.71,4.71,0,0,1,.44,2.12v1.51a4.79,4.79,0,0,1-.44,2.13,3.12,3.12,0,0,1-1.29,1.35,4.62,4.62,0,0,1-4.06,0Zm3.49-1.83a2.43,2.43,0,0,0,.51-1.65v-1.51a2.43,2.43,0,0,0-.51-1.65,1.88,1.88,0,0,0-1.46-.58,1.85,1.85,0,0,0-1.45.58,2.38,2.38,0,0,0-.52,1.65v1.51a2.38,2.38,0,0,0,.52,1.65,1.82,1.82,0,0,0,1.45.59A1.85,1.85,0,0,0,90.58,607.74Z"/><path class="b" d="M95.43,600.78h1.79v9.12H95.43Zm4.42,1.72a2.16,2.16,0,0,0-.83-.15,1.83,1.83,0,0,0-1.33.47,1.79,1.79,0,0,0-.47,1.31L97,602.37a3.32,3.32,0,0,1,1.09-1.27,2.58,2.58,0,0,1,1.48-.45,3.39,3.39,0,0,1,1.13.18,2.62,2.62,0,0,1,.88.53l-1.17,1.58A1.56,1.56,0,0,0,99.85,602.5Z"/><path class="b" d="M102.15,600.78H104l2.81,7.93-1,1.94Zm8.07,0L106.34,612a2.6,2.6,0,0,1-.56,1,1.87,1.87,0,0,1-.84.52,4,4,0,0,1-1.23.16h-.36V612h.36a1.46,1.46,0,0,0,.8-.2,1.74,1.74,0,0,0,.51-.7l3.38-10.31Z"/><path class="b" d="M113.51,609.88a5.76,5.76,0,0,1-1.32-.48,4.89,4.89,0,0,1-1.13-.79l1.06-1.31a5.86,5.86,0,0,0,1.47.85,4.18,4.18,0,0,0,1.44.28,3.11,3.11,0,0,0,1.6-.33,1.1,1.1,0,0,0,.53-1,.79.79,0,0,0-.29-.66,1.66,1.66,0,0,0-.72-.29c-.29,0-.69-.1-1.22-.14h-.15l-.14,0h-.15a6.45,6.45,0,0,1-1.5-.26,2,2,0,0,1-1-.7,2.38,2.38,0,0,1-.41-1.49,3.07,3.07,0,0,1,.39-1.61,2.41,2.41,0,0,1,1.18-1,5.29,5.29,0,0,1,2-.32,6.38,6.38,0,0,1,2.6.52,6.16,6.16,0,0,1,1.13.66l-1.08,1.31a5.59,5.59,0,0,0-1.35-.66,4,4,0,0,0-1.3-.22,2.44,2.44,0,0,0-1.37.31,1.08,1.08,0,0,0-.46.94.64.64,0,0,0,.26.55,1.72,1.72,0,0,0,.66.25c.26,0,.64.07,1.12.1h.34a7.67,7.67,0,0,1,1.63.25,2.24,2.24,0,0,1,1.13.77,2.62,2.62,0,0,1,.45,1.65,2.92,2.92,0,0,1-.42,1.63,2.54,2.54,0,0,1-1.27,1A5.88,5.88,0,0,1,115,610,7.38,7.38,0,0,1,113.51,609.88Z"/><path class="b" d="M126,597.13h1.8V609.9H126Zm2.6,12.5a2.39,2.39,0,0,1-.93-1.16l.13-1.91a2.22,2.22,0,0,0,.21,1,1.48,1.48,0,0,0,.61.63,1.93,1.93,0,0,0,1,.22,1.74,1.74,0,0,0,1.37-.54,2.18,2.18,0,0,0,.49-1.53v-2a2.26,2.26,0,0,0-.49-1.56,1.71,1.71,0,0,0-1.37-.55,2,2,0,0,0-1,.21,1.36,1.36,0,0,0-.61.62,2.12,2.12,0,0,0-.21,1l-.19-1.76a3.37,3.37,0,0,1,1.08-1.24,2.67,2.67,0,0,1,1.49-.43,3,3,0,0,1,1.65.43,2.9,2.9,0,0,1,1.06,1.27,5.1,5.1,0,0,1,.36,2v2a4.94,4.94,0,0,1-.37,2,2.79,2.79,0,0,1-1.08,1.26,3.25,3.25,0,0,1-1.71.44A2.73,2.73,0,0,1,128.57,609.63Z"/><path class="b" d="M134.46,600.78h1.82l2.81,7.93-1,1.94Zm8.07,0L138.65,612a2.6,2.6,0,0,1-.56,1,1.87,1.87,0,0,1-.84.52,4,4,0,0,1-1.23.16h-.36V612H136a1.46,1.46,0,0,0,.8-.2,1.74,1.74,0,0,0,.51-.7l3.37-10.31Z"/><path class="b" d="M143.57,600.78h4.12v1.62h-4.12Zm1.46,8.56a2.77,2.77,0,0,1-.52-1.81v-9.4h1.8v9.42a.84.84,0,0,0,.13.51.46.46,0,0,0,.39.18h.86V610h-1A2,2,0,0,1,145,609.34Z"/><path class="b" d="M151.94,606.33a2.07,2.07,0,0,0,.49,1.48,1.76,1.76,0,0,0,1.37.52,1.91,1.91,0,0,0,1.37-.46,1.79,1.79,0,0,0,.48-1.33l.12,1.91A2.58,2.58,0,0,1,153.3,610a2.89,2.89,0,0,1-2.33-1,4.08,4.08,0,0,1-.82-2.73v-5.55h1.79Zm3.71-5.55h1.78v9.12h-1.78Z"/><rect class="c" x="612.92" y="591.68" width="35.43" height="2.83"/><path class="d" d="M648.48,594.64H612.79v-3.08h35.69ZM613,594.39h35.19v-2.58H613Z"/><rect class="c" x="612.92" y="601.6" width="70.74" height="2.83"/><path class="d" d="M683.78,604.56h-71v-3.08h71ZM613,604.31h70.49v-2.58H613Z"/><rect class="c" x="612.92" y="612.72" width="177.16" height="2.84"/><path class="d" d="M790.21,615.68H612.79V612.6H790.21ZM613,615.43H790v-2.58H613Z"/><path class="e" d="M587.26,596.28h-.8v-4.82l-.81.5v-.83l.81-.53h.8Z"/><path class="e" d="M589,595.91a1.67,1.67,0,0,1-.41-1.19v-2.58A1.65,1.65,0,0,1,589,591a2,2,0,0,1,2.42,0,1.65,1.65,0,0,1,.41,1.19v2.58a1.65,1.65,0,0,1-.41,1.19,2,2,0,0,1-2.42,0Zm1.83-.55a.89.89,0,0,0,.2-.64v-2.58a.89.89,0,0,0-.2-.64.82.82,0,0,0-.62-.22.86.86,0,0,0-.63.22.94.94,0,0,0-.2.64v2.58a.9.9,0,0,0,.21.64,1,1,0,0,0,1.24,0Z"/><path class="e" d="M593.22,595.91a1.67,1.67,0,0,1-.41-1.19v-2.58a1.65,1.65,0,0,1,.41-1.19,2,2,0,0,1,2.42,0,1.61,1.61,0,0,1,.41,1.19v2.58a1.65,1.65,0,0,1-.41,1.19,2,2,0,0,1-2.42,0Zm1.83-.55a.9.9,0,0,0,.21-.64v-2.58a.94.94,0,0,0-.2-.64.86.86,0,0,0-.63-.22.82.82,0,0,0-.62.22.89.89,0,0,0-.2.64v2.58a.89.89,0,0,0,.2.64,1,1,0,0,0,1.24,0Z"/><path class="e" d="M600.1,596.13a1.45,1.45,0,0,1-.6-.6,2.06,2.06,0,0,1-.21-1v-.67a2,2,0,0,1,.21-.94,1.37,1.37,0,0,1,.6-.59,2,2,0,0,1,.95-.21,2.21,2.21,0,0,1,.59.08,1.68,1.68,0,0,1,.51.22,1.54,1.54,0,0,1,.37.35l-.58.52a1.17,1.17,0,0,0-.4-.3,1.13,1.13,0,0,0-.48-.11.94.94,0,0,0-.71.26,1,1,0,0,0-.26.72v.67a1,1,0,0,0,.25.74.94.94,0,0,0,.72.27,1,1,0,0,0,.48-.12,1,1,0,0,0,.4-.32l.58.56a1.38,1.38,0,0,1-.38.34,1.62,1.62,0,0,1-.5.22,2.27,2.27,0,0,1-.59.07A2.12,2.12,0,0,1,600.1,596.13Z"/><path class="e" d="M603.4,592.22h.79v4.06h-.79Zm2.42,1.6a1,1,0,0,0-.21-.67.78.78,0,0,0-.6-.23.81.81,0,0,0-.6.21.73.73,0,0,0-.22.58l-.08-.78a1.46,1.46,0,0,1,.49-.57,1.22,1.22,0,0,1,.67-.2,1.33,1.33,0,0,1,.73.2,1.18,1.18,0,0,1,.46.56,2.4,2.4,0,0,1,.15.89v2.47h-.79Zm2.42,0a.93.93,0,0,0-.22-.67.85.85,0,0,0-.63-.23.72.72,0,0,0-.57.23.9.9,0,0,0-.21.64l-.16-.78a1.61,1.61,0,0,1,.51-.63,1.23,1.23,0,0,1,.69-.22,1.37,1.37,0,0,1,.75.2,1.09,1.09,0,0,1,.47.56,2.21,2.21,0,0,1,.17.89v2.47h-.8Z"/><path class="e" d="M584.33,605.5l2-2.64a1.85,1.85,0,0,0,.27-.47,1.29,1.29,0,0,0,.09-.45h0a.67.67,0,0,0-.2-.53.81.81,0,0,0-.56-.19.76.76,0,0,0-.56.21,1,1,0,0,0-.27.58h-.82a2,2,0,0,1,.29-.83,1.42,1.42,0,0,1,.56-.53,1.67,1.67,0,0,1,.79-.18,1.93,1.93,0,0,1,.87.17,1.21,1.21,0,0,1,.54.51,1.55,1.55,0,0,1,.19.8h0a1.84,1.84,0,0,1-.12.63,2.8,2.8,0,0,1-.35.63l-1.65,2.24h2.15v.76h-3.2Z"/><path class="e" d="M589,605.83a1.67,1.67,0,0,1-.41-1.19v-2.58a1.65,1.65,0,0,1,.41-1.19,2,2,0,0,1,2.42,0,1.65,1.65,0,0,1,.41,1.19v2.58a1.65,1.65,0,0,1-.41,1.19,2,2,0,0,1-2.42,0Zm1.83-.55a.89.89,0,0,0,.2-.64v-2.58a.89.89,0,0,0-.2-.64.82.82,0,0,0-.62-.22.86.86,0,0,0-.63.22.94.94,0,0,0-.19.64v2.58a.89.89,0,0,0,.2.64,1,1,0,0,0,1.24,0Z"/><path class="e" d="M593.22,605.83a1.67,1.67,0,0,1-.41-1.19v-2.58a1.61,1.61,0,0,1,.42-1.19,1.59,1.59,0,0,1,1.2-.42,1.45,1.45,0,0,1,1.62,1.61v2.58a1.61,1.61,0,0,1-.41,1.19,2,2,0,0,1-2.42,0Zm1.84-.55a.94.94,0,0,0,.2-.64v-2.58a.94.94,0,0,0-.2-.64.84.84,0,0,0-.63-.22.82.82,0,0,0-.62.22.89.89,0,0,0-.2.64v2.58a.89.89,0,0,0,.2.64.82.82,0,0,0,.62.22A.86.86,0,0,0,595.06,605.28Z"/><path class="e" d="M600.1,606.05a1.45,1.45,0,0,1-.6-.6,2.06,2.06,0,0,1-.2-1v-.67a2,2,0,0,1,.2-.94,1.37,1.37,0,0,1,.6-.59,2,2,0,0,1,.95-.21,2.35,2.35,0,0,1,.6.08,1.73,1.73,0,0,1,.5.22,1.38,1.38,0,0,1,.37.35l-.58.52a1.08,1.08,0,0,0-.4-.3,1.13,1.13,0,0,0-.48-.11,1,1,0,0,0-.71.26,1,1,0,0,0-.26.72v.67a1,1,0,0,0,.25.74.94.94,0,0,0,.72.27,1.14,1.14,0,0,0,.88-.44l.58.56a1.38,1.38,0,0,1-.38.34,1.62,1.62,0,0,1-.5.22,2.22,2.22,0,0,1-.59.07A2.12,2.12,0,0,1,600.1,606.05Z"/><path class="e" d="M603.4,602.14h.79v4.06h-.79Zm2.42,1.6a1,1,0,0,0-.21-.67.78.78,0,0,0-.6-.23.81.81,0,0,0-.6.21.73.73,0,0,0-.22.58l-.08-.78a1.46,1.46,0,0,1,.49-.57,1.22,1.22,0,0,1,.67-.2,1.3,1.3,0,0,1,.73.2,1.18,1.18,0,0,1,.46.56,2.4,2.4,0,0,1,.16.89v2.47h-.8Zm2.42,0a.93.93,0,0,0-.22-.67.85.85,0,0,0-.63-.23.73.73,0,0,0-.57.23.89.89,0,0,0-.2.64l-.16-.78a1.51,1.51,0,0,1,.5-.63,1.23,1.23,0,0,1,.69-.22,1.35,1.35,0,0,1,.75.2,1.16,1.16,0,0,1,.48.56,2.4,2.4,0,0,1,.16.89v2.47h-.8Z"/><path class="e" d="M585,615.58a1.34,1.34,0,0,1-.54-.49,2,2,0,0,1-.28-.77h.8a.75.75,0,0,0,.25.49.85.85,0,0,0,.54.17.72.72,0,0,0,.59-.25,1.1,1.1,0,0,0,.21-.72v-.48a1.1,1.1,0,0,0-.21-.72.72.72,0,0,0-.59-.25.83.83,0,0,0-.4.11,1.18,1.18,0,0,0-.34.33h-.72v-3h2.89v.76h-2.1V612a1,1,0,0,1,.34-.18.94.94,0,0,1,.37-.07,1.68,1.68,0,0,1,.84.2,1.29,1.29,0,0,1,.53.6,2.07,2.07,0,0,1,.19.94V614a2.25,2.25,0,0,1-.19.94,1.31,1.31,0,0,1-.55.59,1.69,1.69,0,0,1-.86.21A1.74,1.74,0,0,1,585,615.58Z"/><path class="e" d="M589,615.32a1.65,1.65,0,0,1-.41-1.19v-2.58a1.67,1.67,0,0,1,.41-1.19,2,2,0,0,1,2.42,0,1.65,1.65,0,0,1,.41,1.19v2.58a1.64,1.64,0,0,1-.41,1.19,1.92,1.92,0,0,1-2.42,0Zm1.83-.55a.89.89,0,0,0,.2-.64v-2.58a.88.88,0,0,0-.2-.63.78.78,0,0,0-.62-.22.82.82,0,0,0-.63.22.93.93,0,0,0-.2.63v2.58a.9.9,0,0,0,.21.64,1,1,0,0,0,1.24,0Z"/><path class="e" d="M593.22,615.32a1.65,1.65,0,0,1-.41-1.19v-2.58a1.67,1.67,0,0,1,.41-1.19,2,2,0,0,1,2.42,0,1.61,1.61,0,0,1,.41,1.19v2.58a1.64,1.64,0,0,1-.41,1.19,1.92,1.92,0,0,1-2.42,0Zm1.83-.55a.9.9,0,0,0,.21-.64v-2.58a.93.93,0,0,0-.2-.63.82.82,0,0,0-.63-.22.78.78,0,0,0-.62.22.88.88,0,0,0-.2.63v2.58a.89.89,0,0,0,.2.64,1,1,0,0,0,1.24,0Z"/><path class="e" d="M600.1,615.54a1.45,1.45,0,0,1-.6-.6,2,2,0,0,1-.21-1v-.67a2,2,0,0,1,.21-.94,1.45,1.45,0,0,1,.6-.6,2,2,0,0,1,.95-.2,2.22,2.22,0,0,1,.59.07,2,2,0,0,1,.51.22,1.76,1.76,0,0,1,.37.35l-.58.52a1.17,1.17,0,0,0-.4-.3,1.13,1.13,0,0,0-.48-.11.94.94,0,0,0-.71.26,1,1,0,0,0-.26.73V614a1.07,1.07,0,0,0,.25.74,1,1,0,0,0,.72.26,1.13,1.13,0,0,0,.48-.11,1.26,1.26,0,0,0,.4-.32l.58.55a1.42,1.42,0,0,1-.38.35,1.88,1.88,0,0,1-.5.21,2.27,2.27,0,0,1-.59.08A2,2,0,0,1,600.1,615.54Z"/><path class="e" d="M603.4,611.63h.79v4.06h-.79Zm2.42,1.6a1,1,0,0,0-.21-.66.75.75,0,0,0-.6-.24.81.81,0,0,0-.6.21.75.75,0,0,0-.22.58l-.08-.78a1.5,1.5,0,0,1,.49-.56,1.15,1.15,0,0,1,.67-.2,1.32,1.32,0,0,1,.73.19,1.28,1.28,0,0,1,.46.56,2.42,2.42,0,0,1,.15.9v2.46h-.79Zm2.42,0a.91.91,0,0,0-.22-.66.82.82,0,0,0-.63-.24.72.72,0,0,0-.57.23.9.9,0,0,0-.21.64l-.16-.78a1.51,1.51,0,0,1,.51-.62,1.16,1.16,0,0,1,.69-.22,1.37,1.37,0,0,1,.75.19,1.18,1.18,0,0,1,.47.56,2.22,2.22,0,0,1,.17.9v2.46h-.8Z"/><path class="c" d="M23.49,613.89A12.92,12.92,0,1,1,36.4,601,12.93,12.93,0,0,1,23.49,613.89Zm0-24.83A11.92,11.92,0,1,0,35.4,601,11.93,11.93,0,0,0,23.49,589.06Z"/><polygon class="d" points="35.77 588.74 9.42 600.98 35.77 613.21 32.02 600.98 35.77 588.74"/><path class="c" d="M36.58,614.14,8.23,601l28.35-13.17-4,13.17ZM10.61,601,35,612.29,31.5,601,35,589.66Z"/><path class="c" d="M2.52,605.19a5,5,0,0,1-1.11-.38,4.4,4.4,0,0,1-1-.64l.81-1a3.72,3.72,0,0,0,1.16.69,4.08,4.08,0,0,0,1.38.23,2.73,2.73,0,0,0,1.55-.38,1.17,1.17,0,0,0,.55-1.05h0a1.12,1.12,0,0,0-.25-.77,1.44,1.44,0,0,0-.64-.42,8.23,8.23,0,0,0-1-.25H3.89l-.1,0a9.48,9.48,0,0,1-1.5-.36,2.08,2.08,0,0,1-1-.73,2.42,2.42,0,0,1-.41-1.51h0a2.77,2.77,0,0,1,.38-1.47,2.44,2.44,0,0,1,1.12-.92,4.48,4.48,0,0,1,1.77-.32,4.6,4.6,0,0,1,1,.11,4.9,4.9,0,0,1,1.86.86l-.73,1a4.61,4.61,0,0,0-1-.58,3,3,0,0,0-1.06-.2,2.44,2.44,0,0,0-1.46.38,1.24,1.24,0,0,0-.53,1.07h0a1,1,0,0,0,.27.75,1.74,1.74,0,0,0,.67.4,9.3,9.3,0,0,0,1.12.27h.24a7.93,7.93,0,0,1,1.4.41,2.22,2.22,0,0,1,.94.76,2.4,2.4,0,0,1,.38,1.43h0a2.62,2.62,0,0,1-.4,1.45,2.54,2.54,0,0,1-1.16.91,4.8,4.8,0,0,1-1.83.31A6.44,6.44,0,0,1,2.52,605.19Z"/><rect class="c" x="612.5" y="600.68" width="1" height="4.68"/><rect class="c" x="612.5" y="590.76" width="1" height="4.68"/><rect class="c" x="612.5" y="611.45" width="1" height="5.24"/><rect class="c" x="789.58" y="611.45" width="1" height="5.24"/><rect class="c" x="682.59" y="600.68" width="1" height="4.68"/><rect class="c" x="647.3" y="590.76" width="1" height="4.68"/><rect class="a" width="790.34" height="618.13"/><line class="f" x1="237.18" y1="239.2" x2="239.98" y2="239.2"/><line class="f" x1="547.63" y1="186.79" x2="242.78" y2="186.79"/><line class="f" x1="547.63" y1="239.2" x2="547.63" y2="186.79"/><line class="f" x1="458.85" y1="239.2" x2="547.63" y2="239.2"/><line class="f" x1="458.85" y1="242.69" x2="458.85" y2="239.2"/><line class="f" x1="427.33" y1="242.69" x2="458.85" y2="242.69"/><line class="f" x1="427.33" y1="239.2" x2="427.33" y2="242.69"/><line class="f" x1="374.8" y1="239.2" x2="427.33" y2="239.2"/><line class="f" x1="374.8" y1="242.69" x2="374.8" y2="239.2"/><line class="f" x1="343.29" y1="242.69" x2="374.81" y2="242.69"/><line class="f" x1="343.29" y1="239.2" x2="343.29" y2="242.69"/><line class="f" x1="242.78" y1="239.2" x2="343.29" y2="239.2"/><line class="f" x1="242.78" y1="186.79" x2="242.78" y2="239.2"/><line class="f" x1="550.43" y1="239.2" x2="553.4" y2="239.2"/><rect class="d" x="336.63" y="408.99" width="28.02" height="17.47"/><line class="f" x1="336.63" y1="408.99" x2="336.63" y2="426.46"/><line class="f" x1="364.65" y1="408.99" x2="336.63" y2="408.99"/><line class="f" x1="364.65" y1="426.46" x2="364.65" y2="408.99"/><line class="f" x1="336.63" y1="426.46" x2="364.65" y2="426.46"/><rect class="d" x="246.46" y="360.95" width="28.01" height="41.92"/><line class="f" x1="246.46" y1="360.95" x2="246.46" y2="402.87"/><line class="f" x1="274.47" y1="360.95" x2="246.46" y2="360.95"/><line class="f" x1="274.47" y1="402.87" x2="274.47" y2="360.95"/><line class="f" x1="246.46" y1="402.87" x2="274.47" y2="402.87"/><line class="f" x1="553.4" y1="405.49" x2="553.4" y2="426.46"/><line class="f" x1="553.4" y1="342.61" x2="553.4" y2="405.49"/><line class="f" x1="553.4" y1="342.61" x2="553.4" y2="342.61"/><line class="f" x1="553.4" y1="426.46" x2="553.4" y2="426.46"/><rect class="d" x="445.54" y="405.14" width="99.46" height="21.31"/><line class="f" x1="445.54" y1="405.15" x2="445.54" y2="426.46"/><line class="f" x1="545" y1="405.15" x2="445.54" y2="405.15"/><line class="f" x1="545" y1="426.46" x2="545" y2="405.15"/><line class="f" x1="445.54" y1="426.46" x2="545" y2="426.46"/><rect class="d" x="523.64" y="352.74" width="21.36" height="52.41"/><line class="f" x1="545" y1="405.15" x2="523.64" y2="405.15"/><line class="f" x1="523.64" y1="405.15" x2="523.64" y2="352.74"/><line class="f" x1="523.64" y1="352.74" x2="545" y2="352.74"/><line class="f" x1="545" y1="352.74" x2="545" y2="405.15"/><polygon points="237.18 246.18 237.18 239.2 241.21 239.2 287.26 239.2 287.26 246.18 237.18 246.18"/><polygon points="514.88 246.18 514.88 239.2 549.03 239.2 553.4 239.2 553.4 246.18 514.88 246.18"/><rect x="374.8" y="239.2" width="52.53" height="6.99"/><rect x="376.56" y="246.18" width="49.03" height="6.99"/><rect x="237.18" y="246.18" width="48.33" height="6.99"/><rect x="516.63" y="246.18" width="36.77" height="6.99"/><polygon points="334.18 368.81 334.18 360.08 245.58 360.08 245.58 357.63 341.89 357.63 341.89 360.08 336.63 360.08 336.63 368.81 334.18 368.81"/><polygon points="245.58 434.84 237.18 434.84 237.18 253.17 245.58 253.17 245.58 426.46 373.4 426.46 373.4 434.84 245.58 434.84"/><polygon points="411.93 434.84 411.93 426.46 545 426.46 545 253.17 553.4 253.17 553.4 426.46 553.4 434.84 411.93 434.84"/><polygon points="418.23 368.81 418.23 360.08 373.4 360.08 373.4 357.63 399.67 357.63 399.67 253.17 402.12 253.17 402.12 357.63 420.68 357.63 420.68 368.81 418.23 368.81"/><rect x="410.18" y="430.82" width="1.75" height="4.02"/><rect x="373.4" y="430.82" width="1.75" height="4.02"/><rect x="334.18" y="396.76" width="2.45" height="29.7"/><polygon points="418.23 426.46 418.23 400.25 420.68 400.25 420.68 405.5 420.68 426.46 418.23 426.46"/><rect x="245.58" y="403.75" width="28.02" height="3.49"/><rect x="270.1" y="407.24" width="3.5" height="19.22"/><polygon points="441.69 426.46 441.69 408.99 420.68 408.99 420.68 405.5 445.19 405.5 445.19 426.46 441.69 426.46"/><rect x="547.63" y="186.79" width="1.4" height="52.41"/><rect x="241.21" y="186.79" width="1.58" height="52.41"/><line class="f" x1="285.51" y1="253.17" x2="285.51" y2="246.18"/><line class="f" x1="376.56" y1="253.17" x2="376.56" y2="246.18"/><line class="f" x1="425.58" y1="253.17" x2="425.58" y2="246.18"/><line class="f" x1="237.18" y1="239.2" x2="241.21" y2="239.2"/><line class="f" x1="241.21" y1="239.2" x2="287.26" y2="239.2"/><line class="f" x1="374.8" y1="239.2" x2="427.33" y2="239.2"/><line class="f" x1="514.88" y1="239.2" x2="549.03" y2="239.2"/><line class="f" x1="549.03" y1="239.2" x2="553.4" y2="239.2"/><line class="f" x1="245.58" y1="253.17" x2="285.51" y2="253.17"/><line class="f" x1="376.56" y1="253.17" x2="399.67" y2="253.17"/><line class="f" x1="402.12" y1="253.17" x2="425.58" y2="253.17"/><line class="f" x1="516.63" y1="253.17" x2="545" y2="253.17"/><line class="f" x1="553.4" y1="253.17" x2="553.4" y2="253.17"/><line class="f" x1="516.63" y1="253.17" x2="516.63" y2="246.18"/><line class="f" x1="425.58" y1="253.17" x2="425.58" y2="246.18"/><line class="f" x1="242.78" y1="186.79" x2="242.78" y2="239.2"/><line class="f" x1="241.21" y1="186.79" x2="242.78" y2="186.79"/><line class="f" x1="547.63" y1="186.79" x2="547.63" y2="239.2"/><line class="f" x1="547.63" y1="186.79" x2="549.03" y2="186.79"/><line class="f" x1="287.26" y1="246.18" x2="287.26" y2="239.2"/><line class="f" x1="285.51" y1="246.18" x2="287.26" y2="246.18"/><line class="f" x1="427.33" y1="246.18" x2="427.33" y2="239.2"/><line class="f" x1="425.58" y1="246.18" x2="427.33" y2="246.18"/><line class="f" x1="374.8" y1="246.18" x2="374.8" y2="239.2"/><line class="f" x1="376.56" y1="246.18" x2="374.81" y2="246.18"/><line class="f" x1="514.88" y1="246.18" x2="514.88" y2="239.2"/><line class="f" x1="516.63" y1="246.18" x2="514.88" y2="246.18"/><line class="f" x1="241.21" y1="186.79" x2="549.03" y2="186.79"/><line class="f" x1="241.21" y1="186.79" x2="549.03" y2="186.79"/><line class="f" x1="516.63" y1="253.17" x2="460.6" y2="253.17"/><line class="f" x1="460.6" y1="253.17" x2="425.58" y2="253.17"/><line class="f" x1="514.88" y1="239.2" x2="458.85" y2="239.2"/><line class="f" x1="460.6" y1="253.17" x2="460.6" y2="246.18"/><line class="f" x1="458.85" y1="246.18" x2="458.85" y2="239.2"/><line class="f" x1="458.85" y1="242.69" x2="427.33" y2="242.69"/><line class="f" x1="457.8" y1="246.88" x2="457.8" y2="246.18"/><line class="f" x1="457.8" y1="246.18" x2="460.6" y2="246.18"/><line class="f" x1="460.6" y1="246.18" x2="460.6" y2="248.98"/><line class="f" x1="460.6" y1="248.98" x2="459.2" y2="248.98"/><line class="f" x1="459.2" y1="249.68" x2="456.4" y2="249.68"/><line class="f" x1="456.4" y1="249.68" x2="456.4" y2="246.88"/><line class="f" x1="456.4" y1="246.88" x2="459.2" y2="246.88"/><line class="f" x1="459.2" y1="246.88" x2="459.2" y2="249.68"/><line class="f" x1="426.98" y1="249.68" x2="429.79" y2="249.68"/><line class="f" x1="429.79" y1="249.68" x2="429.79" y2="246.88"/><line class="f" x1="429.79" y1="246.88" x2="426.98" y2="246.88"/><line class="f" x1="426.98" y1="246.88" x2="426.98" y2="249.68"/><line class="f" x1="456.4" y1="249.68" x2="429.79" y2="249.68"/><line class="f" x1="429.79" y1="246.88" x2="456.4" y2="246.88"/><line class="f" x1="456.4" y1="248.28" x2="429.79" y2="248.28"/><line class="f" x1="428.38" y1="246.88" x2="428.38" y2="246.18"/><line class="f" x1="428.38" y1="246.18" x2="425.58" y2="246.18"/><line class="f" x1="425.58" y1="246.18" x2="425.58" y2="248.98"/><line class="f" x1="425.58" y1="248.98" x2="426.98" y2="248.98"/><line class="f" x1="460.6" y1="248.98" x2="463.4" y2="248.98"/><line class="f" x1="463.4" y1="248.98" x2="463.4" y2="246.18"/><line class="f" x1="463.4" y1="246.18" x2="460.6" y2="246.18"/><line class="f" x1="460.6" y1="246.18" x2="460.6" y2="248.98"/><line class="f" x1="463.4" y1="248.98" x2="487.22" y2="248.98"/><line class="f" x1="463.4" y1="247.58" x2="487.22" y2="247.58"/><line class="f" x1="463.4" y1="246.18" x2="487.22" y2="246.18"/><line class="f" x1="513.83" y1="246.88" x2="513.83" y2="246.18"/><line class="f" x1="513.83" y1="246.18" x2="516.63" y2="246.18"/><line class="f" x1="516.63" y1="246.18" x2="516.63" y2="248.98"/><line class="f" x1="516.63" y1="248.98" x2="515.23" y2="248.98"/><line class="f" x1="515.23" y1="249.68" x2="512.43" y2="249.68"/><line class="f" x1="512.43" y1="249.68" x2="512.43" y2="246.88"/><line class="f" x1="512.43" y1="246.88" x2="515.23" y2="246.88"/><line class="f" x1="515.23" y1="246.88" x2="515.23" y2="249.68"/><line class="f" x1="512.43" y1="249.68" x2="491.42" y2="249.68"/><line class="f" x1="491.42" y1="246.88" x2="512.43" y2="246.88"/><line class="f" x1="512.43" y1="248.28" x2="491.42" y2="248.28"/><line class="f" x1="490.02" y1="246.88" x2="490.02" y2="246.18"/><line class="f" x1="490.02" y1="246.18" x2="487.22" y2="246.18"/><line class="f" x1="487.22" y1="246.18" x2="487.22" y2="248.98"/><line class="f" x1="487.22" y1="248.98" x2="488.62" y2="248.98"/><line class="f" x1="488.62" y1="249.68" x2="491.42" y2="249.68"/><line class="f" x1="491.42" y1="249.68" x2="491.42" y2="246.88"/><line class="f" x1="491.42" y1="246.88" x2="488.62" y2="246.88"/><line class="f" x1="488.62" y1="246.88" x2="488.62" y2="249.68"/><line class="f" x1="285.51" y1="253.17" x2="341.54" y2="253.17"/><line class="f" x1="341.54" y1="253.17" x2="376.56" y2="253.17"/><line class="f" x1="287.26" y1="239.2" x2="343.29" y2="239.2"/><line class="f" x1="341.54" y1="253.17" x2="341.54" y2="246.18"/><line class="f" x1="343.29" y1="246.18" x2="343.29" y2="239.2"/><line class="f" x1="343.29" y1="242.69" x2="374.81" y2="242.69"/><line class="f" x1="344.34" y1="246.88" x2="344.34" y2="246.18"/><line class="f" x1="344.34" y1="246.18" x2="341.54" y2="246.18"/><line class="f" x1="341.54" y1="246.18" x2="341.54" y2="248.98"/><line class="f" x1="341.54" y1="248.98" x2="342.94" y2="248.98"/><line class="f" x1="342.94" y1="249.68" x2="345.74" y2="249.68"/><line class="f" x1="345.74" y1="249.68" x2="345.74" y2="246.88"/><line class="f" x1="345.74" y1="246.88" x2="342.94" y2="246.88"/><line class="f" x1="342.94" y1="246.88" x2="342.94" y2="249.68"/><line class="f" x1="375.16" y1="249.68" x2="372.35" y2="249.68"/><line class="f" x1="372.35" y1="249.68" x2="372.35" y2="246.88"/><line class="f" x1="372.35" y1="246.88" x2="375.16" y2="246.88"/><line class="f" x1="375.16" y1="246.88" x2="375.16" y2="249.68"/><line class="f" x1="345.74" y1="249.68" x2="372.35" y2="249.68"/><line class="f" x1="372.35" y1="246.88" x2="345.74" y2="246.88"/><line class="f" x1="345.74" y1="248.28" x2="372.35" y2="248.28"/><line class="f" x1="373.75" y1="246.88" x2="373.75" y2="246.18"/><line class="f" x1="373.75" y1="246.18" x2="376.56" y2="246.18"/><line class="f" x1="376.56" y1="246.18" x2="376.56" y2="248.98"/><line class="f" x1="376.56" y1="248.98" x2="375.16" y2="248.98"/><line class="f" x1="341.54" y1="248.98" x2="338.73" y2="248.98"/><line class="f" x1="338.73" y1="248.98" x2="338.73" y2="246.18"/><line class="f" x1="338.73" y1="246.18" x2="341.54" y2="246.18"/><line class="f" x1="341.54" y1="246.18" x2="341.54" y2="248.98"/><line class="f" x1="338.73" y1="248.98" x2="314.92" y2="248.98"/><line class="f" x1="338.73" y1="247.58" x2="314.92" y2="247.58"/><line class="f" x1="338.73" y1="246.18" x2="314.92" y2="246.18"/><line class="f" x1="288.31" y1="246.88" x2="288.31" y2="246.18"/><line class="f" x1="288.31" y1="246.18" x2="285.5" y2="246.18"/><line class="f" x1="285.51" y1="246.18" x2="285.51" y2="248.98"/><line class="f" x1="285.51" y1="248.98" x2="286.91" y2="248.98"/><line class="f" x1="286.91" y1="249.68" x2="289.71" y2="249.68"/><line class="f" x1="289.71" y1="249.68" x2="289.71" y2="246.88"/><line class="f" x1="289.71" y1="246.88" x2="286.91" y2="246.88"/><line class="f" x1="286.91" y1="246.88" x2="286.91" y2="249.68"/><line class="f" x1="289.71" y1="249.68" x2="310.72" y2="249.68"/><line class="f" x1="310.72" y1="246.88" x2="289.71" y2="246.88"/><line class="f" x1="289.71" y1="248.28" x2="310.72" y2="248.28"/><line class="f" x1="312.12" y1="246.88" x2="312.12" y2="246.18"/><line class="f" x1="312.12" y1="246.18" x2="314.92" y2="246.18"/><line class="f" x1="314.92" y1="246.18" x2="314.92" y2="248.98"/><line class="f" x1="314.92" y1="248.98" x2="313.52" y2="248.98"/><line class="f" x1="313.52" y1="249.68" x2="310.72" y2="249.68"/><line class="f" x1="310.72" y1="249.68" x2="310.72" y2="246.88"/><line class="f" x1="310.72" y1="246.88" x2="313.52" y2="246.88"/><line class="f" x1="313.52" y1="246.88" x2="313.52" y2="249.68"/><line class="f" x1="411.93" y1="426.46" x2="418.23" y2="426.46"/><line class="f" x1="545" y1="253.17" x2="545" y2="426.46"/><line class="f" x1="237.18" y1="431.35" x2="237.18" y2="413.88"/><line class="f" x1="237.18" y1="411.43" x2="237.18" y2="253.17"/><line class="f" x1="245.58" y1="357.63" x2="245.58" y2="253.17"/><line class="f" x1="334.18" y1="368.81" x2="334.18" y2="360.08"/><line class="f" x1="336.63" y1="368.81" x2="336.63" y2="360.08"/><line class="f" x1="399.67" y1="357.63" x2="399.67" y2="253.17"/><line class="f" x1="402.12" y1="357.63" x2="402.12" y2="253.17"/><line class="f" x1="245.58" y1="357.63" x2="341.89" y2="357.63"/><line class="f" x1="373.4" y1="357.63" x2="399.67" y2="357.63"/><line class="f" x1="245.58" y1="360.08" x2="334.18" y2="360.08"/><line class="f" x1="336.63" y1="360.08" x2="341.89" y2="360.08"/><line class="f" x1="237.18" y1="411.43" x2="237.18" y2="411.43"/><line class="f" x1="237.18" y1="413.88" x2="237.18" y2="413.88"/><line class="f" x1="237.18" y1="431.35" x2="237.18" y2="431.35"/><line class="f" x1="237.18" y1="434.84" x2="237.18" y2="434.84"/><line class="f" x1="445.19" y1="426.46" x2="545" y2="426.46"/><line class="f" x1="245.58" y1="434.84" x2="373.4" y2="434.84"/><line class="f" x1="411.93" y1="434.84" x2="553.4" y2="434.84"/><line class="f" x1="245.58" y1="434.84" x2="245.58" y2="434.84"/><line class="f" x1="445.19" y1="405.49" x2="445.19" y2="426.46"/><line class="f" x1="334.18" y1="396.76" x2="336.63" y2="396.76"/><line class="f" x1="334.18" y1="368.81" x2="336.63" y2="368.81"/><line class="f" x1="373.4" y1="357.63" x2="373.4" y2="360.08"/><line class="f" x1="341.89" y1="357.63" x2="341.89" y2="360.08"/><line class="f" x1="237.18" y1="434.84" x2="237.18" y2="434.84"/><line class="f" x1="426.98" y1="249.68" x2="426.98" y2="281.82"/><g class="g"><path class="f" d="M459.2,249.68A32.18,32.18,0,0,1,427,281.82"/></g><line class="f" x1="375.16" y1="249.68" x2="375.16" y2="281.82"/><g class="g"><path class="f" d="M375.16,281.82a32.18,32.18,0,0,1-32.22-32.14"/></g><line class="f" x1="371.65" y1="357.63" x2="343.64" y2="357.63"/><line class="f" x1="371.65" y1="357.63" x2="371.65" y2="329.68"/><g class="g"><path class="f" d="M343.64,357.63a28,28,0,0,1,28-27.95"/></g><line class="f" x1="371.65" y1="360.08" x2="371.65" y2="357.63"/><line class="f" x1="343.64" y1="357.63" x2="343.64" y2="360.08"/><line class="f" x1="343.64" y1="357.63" x2="341.89" y2="357.63"/><line class="f" x1="343.64" y1="360.08" x2="341.89" y2="360.08"/><line class="f" x1="373.4" y1="357.63" x2="371.65" y2="357.63"/><line class="f" x1="373.4" y1="360.08" x2="371.65" y2="360.08"/><line class="f" x1="371.65" y1="360.08" x2="364.65" y2="360.08"/><line class="f" x1="360.8" y1="360.08" x2="360.01" y2="360.08"/><line class="f" x1="356.16" y1="360.08" x2="355.37" y2="360.08"/><line class="f" x1="351.52" y1="360.08" x2="350.64" y2="360.08"/><line class="f" x1="350.64" y1="360.08" x2="343.64" y2="360.08"/><line class="f" x1="371.65" y1="357.63" x2="371.65" y2="356.76"/><line class="f" x1="371.65" y1="356.76" x2="375.15" y2="356.76"/><line class="f" x1="375.16" y1="356.76" x2="375.16" y2="357.63"/><line class="f" x1="371.65" y1="360.08" x2="371.65" y2="360.95"/><line class="f" x1="371.65" y1="360.95" x2="375.15" y2="360.95"/><line class="f" x1="375.16" y1="360.95" x2="375.16" y2="360.08"/><line class="f" x1="343.64" y1="356.76" x2="340.14" y2="356.76"/><line class="f" x1="340.14" y1="356.76" x2="340.14" y2="357.63"/><line class="f" x1="343.64" y1="360.08" x2="343.64" y2="360.95"/><line class="f" x1="343.64" y1="360.95" x2="340.14" y2="360.95"/><line class="f" x1="340.14" y1="360.95" x2="340.14" y2="360.08"/><line class="f" x1="336.63" y1="395.01" x2="336.63" y2="370.56"/><line class="f" x1="336.63" y1="395.01" x2="361.15" y2="395.01"/><g class="g"><path class="f" d="M336.63,370.56A24.49,24.49,0,0,1,361.15,395"/></g><line class="f" x1="334.18" y1="395.01" x2="336.63" y2="395.01"/><line class="f" x1="336.63" y1="370.56" x2="334.18" y2="370.56"/><line class="f" x1="336.63" y1="370.56" x2="336.63" y2="368.81"/><line class="f" x1="334.18" y1="370.56" x2="334.18" y2="368.81"/><line class="f" x1="336.63" y1="396.76" x2="336.63" y2="395.01"/><line class="f" x1="334.18" y1="396.76" x2="334.18" y2="395.01"/><line class="f" x1="334.18" y1="395.01" x2="334.18" y2="388.03"/><line class="f" x1="334.18" y1="384.18" x2="334.18" y2="383.4"/><line class="f" x1="334.18" y1="379.55" x2="334.18" y2="378.77"/><line class="f" x1="334.18" y1="377.55" x2="334.18" y2="370.56"/><line class="f" x1="336.63" y1="395.01" x2="337.51" y2="395.01"/><line class="f" x1="337.51" y1="395.01" x2="337.51" y2="398.51"/><line class="f" x1="337.51" y1="398.51" x2="336.63" y2="398.51"/><line class="f" x1="334.18" y1="395.01" x2="333.31" y2="395.01"/><line class="f" x1="333.31" y1="395.01" x2="333.31" y2="398.51"/><line class="f" x1="333.31" y1="398.51" x2="334.18" y2="398.51"/><line class="f" x1="337.51" y1="370.56" x2="337.51" y2="367.06"/><line class="f" x1="337.51" y1="367.06" x2="336.63" y2="367.06"/><line class="f" x1="334.18" y1="370.56" x2="333.31" y2="370.56"/><line class="f" x1="333.31" y1="370.56" x2="333.31" y2="367.06"/><line class="f" x1="333.31" y1="367.06" x2="334.18" y2="367.06"/><line class="f" x1="466.56" y1="426.11" x2="466.56" y2="405.15"/><line class="f" x1="458.53" y1="413.16" x2="453.57" y2="418.1"/><line class="f" x1="453.57" y1="413.16" x2="458.53" y2="418.1"/><line class="f" x1="456.05" y1="419.12" x2="456.05" y2="412.13"/><line class="f" x1="459.55" y1="415.63" x2="452.55" y2="415.63"/><line class="f" x1="445.54" y1="405.15" x2="445.54" y2="426.11"/><line class="f" x1="466.56" y1="405.15" x2="445.54" y2="405.15"/><line class="f" x1="467.43" y1="406.89" x2="486.69" y2="406.89"/><line class="f" x1="486.69" y1="406.89" x2="486.69" y2="424.36"/><line class="f" x1="486.69" y1="424.36" x2="467.43" y2="424.36"/><line class="f" x1="467.43" y1="424.36" x2="467.43" y2="406.89"/><line class="f" x1="466.56" y1="405.15" x2="487.57" y2="405.15"/><line class="f" x1="469.18" y1="408.64" x2="484.94" y2="408.64"/><line class="f" x1="484.94" y1="408.64" x2="484.94" y2="420.87"/><line class="f" x1="484.94" y1="420.87" x2="469.18" y2="420.87"/><line class="f" x1="469.18" y1="420.87" x2="469.18" y2="408.64"/><g class="g"><path class="f" d="M477.76,417.37a.7.7,0,1,0-.7.7.69.69,0,0,0,.7-.7"/></g><line class="f" x1="487.57" y1="426.11" x2="487.57" y2="405.15"/><line class="f" x1="487.57" y1="405.15" x2="508.58" y2="405.15"/><line class="f" x1="508.58" y1="405.15" x2="508.58" y2="426.11"/><line class="f" x1="523.64" y1="405.15" x2="523.64" y2="384.18"/><line class="f" x1="523.64" y1="384.18" x2="545" y2="384.18"/><line class="f" x1="545" y1="384.18" x2="545" y2="405.15"/><line class="f" x1="545" y1="405.15" x2="523.64" y2="405.15"/><g class="g"><path class="f" d="M540.27,394.66a6.13,6.13,0,1,0-6.13,6.12,6.12,6.12,0,0,0,6.13-6.12"/><path class="f" d="M539.22,394.66a5.08,5.08,0,1,0-5.08,5.07,5.07,5.07,0,0,0,5.08-5.07"/><path class="f" d="M542.74,378.85a3.44,3.44,0,1,0-3.44,3.43,3.43,3.43,0,0,0,3.44-3.43"/></g><line class="f" x1="544.65" y1="384.18" x2="523.64" y2="384.18"/><line class="f" x1="523.64" y1="384.18" x2="523.64" y2="363.22"/><line class="f" x1="523.64" y1="363.22" x2="544.65" y2="363.22"/><g class="g"><path class="f" d="M532.42,378.85a3.44,3.44,0,1,0-3.43,3.43,3.43,3.43,0,0,0,3.43-3.43"/><path class="f" d="M532.42,368.56A3.44,3.44,0,1,0,529,372a3.43,3.43,0,0,0,3.43-3.43"/></g><line class="f" x1="522.68" y1="366.08" x2="522.68" y2="381.32"/><line class="f" x1="445.54" y1="426.11" x2="445.54" y2="405.15"/><line class="f" x1="445.54" y1="405.15" x2="523.64" y2="405.15"/><line class="f" x1="523.64" y1="405.15" x2="523.64" y2="352.74"/><line class="f" x1="523.64" y1="352.74" x2="545" y2="352.74"/><line class="f" x1="545" y1="352.74" x2="545" y2="426.46"/><line class="f" x1="545" y1="426.46" x2="447.3" y2="426.46"/><line class="f" x1="402.12" y1="357.63" x2="420.68" y2="357.63"/><line class="f" x1="373.4" y1="360.08" x2="418.23" y2="360.08"/><line class="f" x1="245.58" y1="403.75" x2="245.58" y2="360.08"/><line class="f" x1="418.23" y1="400.25" x2="420.68" y2="400.25"/><line class="f" x1="410.18" y1="430.82" x2="410.18" y2="434.84"/><line class="f" x1="373.4" y1="434.84" x2="375.15" y2="434.84"/><line class="f" x1="408.42" y1="430.82" x2="376.91" y2="430.82"/><line class="f" x1="408.42" y1="434.84" x2="376.91" y2="434.84"/><line class="f" x1="408.42" y1="430.82" x2="408.42" y2="399.38"/><g class="g"><path class="f" d="M376.91,430.82a31.47,31.47,0,0,1,31.51-31.44"/></g><line class="f" x1="408.42" y1="434.84" x2="408.42" y2="430.82"/><line class="f" x1="376.91" y1="430.82" x2="376.91" y2="434.84"/><line class="f" x1="376.91" y1="430.82" x2="375.16" y2="430.82"/><line class="f" x1="376.91" y1="434.84" x2="375.16" y2="434.84"/><line class="f" x1="410.18" y1="430.82" x2="408.42" y2="430.82"/><line class="f" x1="410.18" y1="434.84" x2="408.42" y2="434.84"/><line class="f" x1="420.68" y1="398.51" x2="420.68" y2="370.56"/><line class="f" x1="420.68" y1="398.51" x2="448.7" y2="398.51"/><g class="g"><path class="f" d="M420.68,370.56a28,28,0,0,1,28,27.95"/></g><line class="f" x1="418.23" y1="398.51" x2="420.68" y2="398.51"/><line class="f" x1="420.68" y1="370.56" x2="418.23" y2="370.56"/><line class="f" x1="420.68" y1="370.56" x2="420.68" y2="368.81"/><line class="f" x1="418.23" y1="370.56" x2="418.23" y2="368.81"/><line class="f" x1="420.68" y1="400.25" x2="420.68" y2="398.51"/><line class="f" x1="418.23" y1="400.25" x2="418.23" y2="398.51"/><line class="f" x1="418.23" y1="398.51" x2="418.23" y2="391.52"/><line class="f" x1="418.23" y1="387.68" x2="418.23" y2="386.89"/><line class="f" x1="418.23" y1="383.05" x2="418.23" y2="382.26"/><line class="f" x1="418.23" y1="378.42" x2="418.23" y2="377.55"/><line class="f" x1="418.23" y1="377.55" x2="418.23" y2="370.56"/><line class="f" x1="420.68" y1="398.51" x2="421.56" y2="398.51"/><line class="f" x1="421.56" y1="398.51" x2="421.56" y2="402"/><line class="f" x1="421.56" y1="402" x2="420.68" y2="402"/><line class="f" x1="418.23" y1="398.51" x2="417.35" y2="398.51"/><line class="f" x1="417.35" y1="398.51" x2="417.35" y2="402"/><line class="f" x1="417.35" y1="402" x2="418.23" y2="402"/><line class="f" x1="421.56" y1="370.56" x2="421.56" y2="367.06"/><line class="f" x1="421.56" y1="367.06" x2="420.68" y2="367.06"/><line class="f" x1="418.23" y1="370.56" x2="417.35" y2="370.56"/><line class="f" x1="417.35" y1="370.56" x2="417.35" y2="367.06"/><line class="f" x1="417.35" y1="367.06" x2="418.23" y2="367.06"/><line class="f" x1="273.6" y1="421.22" x2="334.18" y2="421.22"/><line class="f" x1="420.68" y1="408.99" x2="441.69" y2="408.99"/><line class="f" x1="441.69" y1="408.99" x2="441.69" y2="426.46"/><line class="f" x1="441.69" y1="426.46" x2="420.68" y2="426.46"/><line class="f" x1="420.68" y1="426.46" x2="420.68" y2="408.99"/><line class="f" x1="334.18" y1="426.46" x2="334.18" y2="396.76"/><line class="f" x1="336.63" y1="426.46" x2="336.63" y2="396.76"/><line class="f" x1="418.23" y1="426.46" x2="418.23" y2="400.25"/><line class="f" x1="418.23" y1="368.81" x2="418.23" y2="360.08"/><line class="f" x1="420.68" y1="405.49" x2="420.68" y2="400.25"/><line class="f" x1="375.16" y1="430.82" x2="375.16" y2="434.84"/><line class="f" x1="411.93" y1="430.82" x2="411.93" y2="426.46"/><g class="g"><path class="f" d="M252.59,397.63a.88.88,0,1,0-.88.88.87.87,0,0,0,.88-.88"/></g><line class="f" x1="274.47" y1="402.87" x2="274.47" y2="360.95"/><line class="f" x1="274.47" y1="360.95" x2="246.46" y2="360.95"/><line class="f" x1="246.46" y1="360.95" x2="246.46" y2="402.87"/><line class="f" x1="246.46" y1="402.87" x2="274.47" y2="402.87"/><line class="f" x1="272.72" y1="397.63" x2="272.72" y2="366.19"/><line class="f" x1="269.22" y1="362.7" x2="251.71" y2="362.7"/><line class="f" x1="248.21" y1="366.19" x2="248.21" y2="397.63"/><line class="f" x1="251.71" y1="401.13" x2="269.22" y2="401.13"/><g class="g"><path class="f" d="M272.72,397.63a3.5,3.5,0,0,1-3.5,3.5"/><path class="f" d="M269.22,362.7a3.5,3.5,0,0,1,3.5,3.49"/><path class="f" d="M251.71,401.13a3.5,3.5,0,0,1-3.5-3.5"/><path class="f" d="M248.21,366.19a3.5,3.5,0,0,1,3.5-3.49"/></g><line class="f" x1="270.1" y1="407.24" x2="270.1" y2="426.46"/><line class="f" x1="270.1" y1="426.46" x2="245.58" y2="426.46"/><line class="f" x1="245.58" y1="426.46" x2="245.58" y2="407.24"/><line class="f" x1="245.58" y1="407.24" x2="270.1" y2="407.24"/><line class="f" x1="245.58" y1="403.75" x2="273.6" y2="403.75"/><line class="f" x1="273.6" y1="403.75" x2="273.6" y2="407.24"/><line class="f" x1="273.6" y1="407.24" x2="273.6" y2="426.46"/><line class="f" x1="270.1" y1="407.24" x2="273.6" y2="407.24"/><line class="f" x1="273.6" y1="426.46" x2="334.18" y2="426.46"/><line class="f" x1="336.63" y1="426.46" x2="373.4" y2="426.46"/><line class="f" x1="410.18" y1="434.84" x2="411.93" y2="434.84"/><line class="f" x1="410.18" y1="430.82" x2="411.93" y2="430.82"/><line class="f" x1="373.4" y1="430.82" x2="375.15" y2="430.82"/><line class="f" x1="373.4" y1="430.82" x2="373.4" y2="426.46"/><line class="f" x1="418.23" y1="368.81" x2="420.68" y2="368.81"/><line class="f" x1="420.68" y1="368.81" x2="420.68" y2="357.63"/><line class="f" x1="431.19" y1="405.49" x2="445.19" y2="405.49"/><line class="f" x1="420.68" y1="408.99" x2="420.68" y2="405.49"/><line class="f" x1="420.68" y1="405.49" x2="431.19" y2="405.49"/><line class="f" x1="280.25" y1="360.95" x2="280.25" y2="364.44"/><line class="f" x1="280.25" y1="364.44" x2="301.26" y2="364.44"/><line class="f" x1="301.26" y1="364.44" x2="301.26" y2="360.95"/><line class="f" x1="301.26" y1="360.95" x2="300.21" y2="360.95"/><line class="f" x1="300.21" y1="360.95" x2="300.21" y2="363.4"/><line class="f" x1="300.21" y1="363.4" x2="281.3" y2="363.4"/><line class="f" x1="281.3" y1="363.4" x2="281.3" y2="360.95"/><line class="f" x1="281.3" y1="360.95" x2="280.25" y2="360.95"/><line class="f" x1="280.25" y1="360.95" x2="280.25" y2="364.44"/><line class="f" x1="301.26" y1="360.95" x2="301.26" y2="364.44"/><line class="f" x1="281.3" y1="360.95" x2="281.3" y2="363.4"/><line class="f" x1="300.21" y1="360.95" x2="300.21" y2="363.4"/><line class="f" x1="280.25" y1="364.44" x2="301.26" y2="364.44"/><line class="f" x1="280.25" y1="363.4" x2="301.26" y2="363.4"/><line class="f" x1="280.25" y1="360.95" x2="281.3" y2="360.95"/><line class="f" x1="300.21" y1="360.95" x2="301.26" y2="360.95"/><line class="f" x1="289.01" y1="254.92" x2="317.02" y2="254.92"/><line class="f" x1="317.02" y1="254.92" x2="317.02" y2="257.12"/><line class="f" x1="317.02" y1="257.12" x2="289.01" y2="257.12"/><line class="f" x1="289.01" y1="257.12" x2="289.01" y2="254.92"/><g class="g"><path class="f" d="M322.28,256a1.76,1.76,0,1,0-1.76,1.74,1.75,1.75,0,0,0,1.76-1.74"/></g><line class="f" x1="462.35" y1="254.92" x2="511.38" y2="254.92"/><line class="f" x1="511.38" y1="254.92" x2="511.38" y2="258.41"/><line class="f" x1="511.38" y1="258.41" x2="462.35" y2="258.41"/><line class="f" x1="462.35" y1="258.41" x2="462.35" y2="254.92"/><g class="g"><path class="f" d="M516.63,256.66a1.75,1.75,0,1,0-1.75,1.75,1.74,1.74,0,0,0,1.75-1.75"/></g><line class="f" x1="374.8" y1="239.2" x2="367.8" y2="239.2"/><line class="f" x1="363.95" y1="239.2" x2="363.16" y2="239.2"/><line class="f" x1="359.31" y1="239.2" x2="358.52" y2="239.2"/><line class="f" x1="354.67" y1="239.2" x2="350.29" y2="239.2"/><line class="f" x1="350.29" y1="239.2" x2="343.29" y2="239.2"/><line class="f" x1="458.85" y1="239.2" x2="451.85" y2="239.2"/><line class="f" x1="448" y1="239.2" x2="447.21" y2="239.2"/><line class="f" x1="443.36" y1="239.2" x2="442.57" y2="239.2"/><line class="f" x1="438.72" y1="239.2" x2="434.34" y2="239.2"/><line class="f" x1="434.34" y1="239.2" x2="427.33" y2="239.2"/><line class="f" x1="270.1" y1="426.46" x2="249.41" y2="422.95"/><line class="f" x1="249.41" y1="422.95" x2="245.58" y2="407.24"/><line class="f" x1="245.58" y1="407.24" x2="245.58" y2="426.46"/><line class="f" x1="245.58" y1="426.46" x2="270.1" y2="426.46"/><line class="f" x1="441.69" y1="426.46" x2="424.5" y2="422.95"/><line class="f" x1="424.5" y1="422.95" x2="420.68" y2="408.99"/><line class="f" x1="420.68" y1="408.99" x2="420.68" y2="426.46"/><line class="f" x1="420.68" y1="426.46" x2="441.69" y2="426.46"/><line class="f" x1="237.18" y1="431.35" x2="237.18" y2="431.35"/><line class="f" x1="237.18" y1="431.35" x2="237.18" y2="431.35"/><rect class="d" x="376.56" y="360.08" width="41.67" height="5.59"/><line class="f" x1="376.56" y1="360.08" x2="376.56" y2="365.67"/><line class="f" x1="418.23" y1="360.08" x2="376.56" y2="360.08"/><line class="f" x1="418.23" y1="365.67" x2="418.23" y2="360.08"/><line class="f" x1="376.56" y1="365.67" x2="418.23" y2="365.67"/><rect class="d" x="486.88" y="295.09" width="17.51" height="27.95"/><line class="f" x1="486.87" y1="295.09" x2="486.87" y2="323.04"/><line class="f" x1="504.38" y1="295.09" x2="486.87" y2="295.09"/><line class="f" x1="504.38" y1="323.04" x2="504.38" y2="295.09"/><line class="f" x1="486.87" y1="323.04" x2="504.38" y2="323.04"/><rect class="d" x="273.6" y="421.22" width="60.58" height="5.24"/><line class="f" x1="273.6" y1="421.22" x2="273.6" y2="426.46"/><line class="f" x1="334.18" y1="421.22" x2="273.6" y2="421.22"/><line class="f" x1="334.18" y1="426.46" x2="334.18" y2="421.22"/><line class="f" x1="273.6" y1="426.46" x2="334.18" y2="426.46"/><rect class="d" x="402.12" y="253.17" width="15.76" height="104.46"/><line class="f" x1="402.12" y1="253.17" x2="402.12" y2="357.63"/><line class="f" x1="417.88" y1="253.17" x2="402.12" y2="253.17"/><line class="f" x1="417.88" y1="357.63" x2="417.88" y2="253.17"/><line class="f" x1="402.12" y1="357.63" x2="417.88" y2="357.63"/><rect class="d" x="280.25" y="360.95" width="1.05" height="2.45"/><line class="f" x1="280.25" y1="360.95" x2="280.25" y2="363.4"/><line class="f" x1="281.3" y1="360.95" x2="280.25" y2="360.95"/><line class="f" x1="281.3" y1="363.4" x2="281.3" y2="360.95"/><line class="f" x1="280.25" y1="363.4" x2="281.3" y2="363.4"/><rect class="d" x="280.25" y="363.39" width="21.01" height="1.05"/><line class="f" x1="301.26" y1="363.4" x2="280.25" y2="363.4"/><line class="f" x1="301.26" y1="364.44" x2="301.26" y2="363.4"/><line class="f" x1="280.25" y1="364.44" x2="301.26" y2="364.44"/><line class="f" x1="280.25" y1="363.4" x2="280.25" y2="364.44"/><rect class="d" x="300.22" y="360.95" width="1.05" height="2.45"/><line class="f" x1="300.21" y1="360.95" x2="300.21" y2="363.4"/><line class="f" x1="301.26" y1="360.95" x2="300.21" y2="360.95"/><line class="f" x1="301.26" y1="363.4" x2="301.26" y2="360.95"/><line class="f" x1="300.21" y1="363.4" x2="301.26" y2="363.4"/><rect class="d" x="462.35" y="254.92" width="49.03" height="3.49"/><line class="f" x1="511.38" y1="258.41" x2="511.38" y2="254.92"/><line class="f" x1="462.35" y1="258.41" x2="511.38" y2="258.41"/><line class="f" x1="462.35" y1="254.92" x2="462.35" y2="258.41"/><line class="f" x1="511.38" y1="254.92" x2="462.35" y2="254.92"/><polygon class="d" points="513.64 257.9 513.13 256.66 513.64 255.43 514.88 254.92 516.12 255.43 516.63 256.66 516.12 257.9 514.88 258.41 513.64 257.9"/><g class="g"><path class="f" d="M516.63,256.66a1.75,1.75,0,0,1-3.5,0"/><path class="f" d="M513.13,256.66a1.75,1.75,0,0,1,3.5,0"/></g><rect class="d" x="289.01" y="254.92" width="28.01" height="2.2"/><line class="f" x1="317.02" y1="254.92" x2="289.01" y2="254.92"/><line class="f" x1="317.02" y1="257.12" x2="317.02" y2="254.92"/><line class="f" x1="289.01" y1="257.12" x2="317.02" y2="257.12"/><line class="f" x1="289.01" y1="254.92" x2="289.01" y2="257.12"/><polygon class="d" points="319.29 257.25 318.77 256.02 319.29 254.78 320.52 254.27 321.76 254.78 322.27 256.02 321.76 257.25 320.52 257.76 319.29 257.25"/><g class="g"><path class="f" d="M322.28,256a1.76,1.76,0,0,1-3.51,0"/><path class="f" d="M318.77,256a1.75,1.75,0,0,1,3.5,0"/></g><line class="f" x1="237.18" y1="411.43" x2="237.18" y2="411.43"/><line class="f" x1="237.18" y1="411.43" x2="237.18" y2="345.05"/><line class="f" x1="237.18" y1="388.19" x2="237.18" y2="388.19"/><line class="f" x1="237.18" y1="382.95" x2="237.18" y2="382.95"/><g class="g"><path class="f" d="M233.68,341.56a3.5,3.5,0,0,1,3.5,3.49"/></g><polygon class="d" points="256.09 337.02 245.58 337.02 245.58 274.13 308.62 274.13 311.3 274.66 313.57 276.18 315.09 278.45 315.62 281.12 315.62 330.03 315.09 332.71 313.57 334.97 311.3 336.49 308.62 337.02 256.09 337.02"/><rect class="d" x="245.58" y="261.9" width="10.51" height="12.23"/><rect class="d" x="245.58" y="337.02" width="10.51" height="12.23"/><line class="f" x1="257.23" y1="307.55" x2="254.2" y2="308.39"/><line class="f" x1="257.23" y1="278.22" x2="254.2" y2="279.06"/><line class="f" x1="315.62" y1="330.03" x2="315.62" y2="281.12"/><line class="f" x1="308.62" y1="274.13" x2="245.58" y2="274.13"/><line class="f" x1="245.58" y1="274.13" x2="245.58" y2="337.02"/><line class="f" x1="245.58" y1="337.02" x2="308.62" y2="337.02"/><line class="f" x1="245.58" y1="274.13" x2="245.58" y2="261.91"/><line class="f" x1="245.58" y1="261.9" x2="256.09" y2="261.9"/><line class="f" x1="256.09" y1="261.9" x2="256.09" y2="274.13"/><line class="f" x1="256.09" y1="274.13" x2="245.58" y2="274.13"/><line class="f" x1="245.58" y1="349.25" x2="245.58" y2="337.02"/><line class="f" x1="245.58" y1="337.02" x2="256.09" y2="337.02"/><line class="f" x1="256.09" y1="337.02" x2="256.09" y2="349.25"/><line class="f" x1="256.09" y1="349.25" x2="245.58" y2="349.25"/><line class="f" x1="268.88" y1="274.13" x2="268.88" y2="337.02"/><line class="f" x1="274.14" y1="274.13" x2="274.14" y2="337.02"/><g class="g"><path class="f" d="M263.58,302.92a97,97,0,0,1-.85-12.87c0-3.3.17-6.61.5-9.9"/><path class="f" d="M261.3,277.89h.1a1.87,1.87,0,0,1,1.87,1.87,1.75,1.75,0,0,1,0,.4"/><path class="f" d="M257.23,278.22a14.69,14.69,0,0,1,3.24-.36c.28,0,.56,0,.83,0"/><path class="f" d="M249.41,278c.84,0,1.69-.06,2.53-.06,1.77,0,3.53.09,5.29.26"/><path class="f" d="M248.9,278.48s0-.05,0-.08a.4.4,0,0,1,.4-.4l.12,0"/><path class="f" d="M248.9,278.48q.58,7.5.58,15c0,3.16-.08,6.33-.23,9.49"/><path class="f" d="M250.51,304.12a.85.85,0,0,1-.31.06,1,1,0,0,1-1-1,.71.71,0,0,1,0-.2"/><path class="f" d="M250.51,304.12a47.53,47.53,0,0,1,12.07-.18"/><path class="f" d="M263.58,302.92a1.07,1.07,0,0,1,0,.25.8.8,0,0,1-.8.8.91.91,0,0,1-.23,0"/><path class="f" d="M308.62,274.13a7,7,0,0,1,7,7"/><path class="f" d="M315.62,330a7,7,0,0,1-7,7"/><path class="f" d="M263.58,332.26a97.27,97.27,0,0,1-.85-12.87q0-5,.5-9.9"/><path class="f" d="M261.3,307.22h.1a1.87,1.87,0,0,1,1.87,1.87,1.81,1.81,0,0,1,0,.4"/><path class="f" d="M257.23,307.55a15.31,15.31,0,0,1,3.24-.35l.83,0"/><path class="f" d="M249.41,307.35c.84,0,1.69-.05,2.53-.05,1.77,0,3.53.08,5.29.25"/><path class="f" d="M248.9,307.82s0-.06,0-.09a.39.39,0,0,1,.4-.39.25.25,0,0,1,.12,0"/><path class="f" d="M248.9,307.82q.58,7.5.58,15,0,4.76-.23,9.49"/><path class="f" d="M250.51,333.46a1.12,1.12,0,0,1-.31.05,1,1,0,0,1-1-1,.75.75,0,0,1,0-.21"/><path class="f" d="M250.51,333.46a46.32,46.32,0,0,1,12.07-.18"/><path class="f" d="M263.58,332.26a1,1,0,0,1,0,.24.8.8,0,0,1-.8.81.91.91,0,0,1-.23,0"/></g><polygon class="d" points="409.48 317.19 407.54 309.23 407.54 306.9 406.48 303.2 406.48 299.32 407.54 295.62 407.54 293.29 409.48 285.33 411.43 285.33 411.43 296.21 412.83 297.94 413.58 300.1 413.58 302.42 412.83 304.58 411.43 306.31 411.43 317.19 409.48 317.19"/><line class="f" x1="411.42" y1="317.19" x2="411.42" y2="306.3"/><line class="f" x1="409.48" y1="317.19" x2="411.42" y2="317.19"/><line class="f" x1="407.54" y1="309.23" x2="409.48" y2="317.19"/><line class="f" x1="407.54" y1="306.9" x2="407.54" y2="309.22"/><line class="f" x1="406.48" y1="303.2" x2="407.54" y2="306.9"/><line class="f" x1="406.48" y1="299.32" x2="406.48" y2="303.2"/><line class="f" x1="407.54" y1="295.61" x2="406.48" y2="299.32"/><line class="f" x1="407.54" y1="293.29" x2="407.54" y2="295.61"/><line class="f" x1="409.48" y1="285.33" x2="407.54" y2="293.29"/><line class="f" x1="411.42" y1="285.33" x2="409.48" y2="285.33"/><line class="f" x1="411.42" y1="296.21" x2="411.42" y2="285.33"/><line class="f" x1="412.83" y1="297.94" x2="411.42" y2="296.21"/><line class="f" x1="413.58" y1="300.1" x2="412.83" y2="297.94"/><line class="f" x1="413.58" y1="302.42" x2="413.58" y2="300.1"/><line class="f" x1="412.83" y1="304.58" x2="413.58" y2="302.42"/><line class="f" x1="411.42" y1="306.3" x2="412.83" y2="304.58"/><line class="f" x1="411.42" y1="317.19" x2="411.42" y2="285.33"/><line class="f" x1="407.54" y1="293.29" x2="407.54" y2="309.22"/><line class="f" x1="409.48" y1="317.19" x2="411.42" y2="317.19"/><line class="f" x1="410.65" y1="287.45" x2="410.65" y2="289.58"/><line class="f" x1="410.65" y1="289.58" x2="410.16" y2="289.58"/><line class="f" x1="410.16" y1="289.58" x2="410.16" y2="287.45"/><line class="f" x1="410.16" y1="287.45" x2="410.65" y2="287.45"/><line class="f" x1="410.65" y1="290.11" x2="410.65" y2="292.23"/><line class="f" x1="410.65" y1="292.23" x2="410.16" y2="292.23"/><line class="f" x1="410.16" y1="292.23" x2="410.16" y2="290.11"/><line class="f" x1="410.16" y1="290.11" x2="410.65" y2="290.11"/><line class="f" x1="409.48" y1="317.19" x2="409.48" y2="285.33"/><line class="f" x1="410.16" y1="292.76" x2="410.65" y2="292.76"/><line class="f" x1="410.65" y1="292.76" x2="410.65" y2="293.82"/><line class="f" x1="410.65" y1="293.82" x2="410.16" y2="293.82"/><line class="f" x1="410.16" y1="293.82" x2="410.16" y2="292.76"/><g class="g"><path class="f" d="M411.43,296.21a6.78,6.78,0,0,1,0,10.09"/></g><polygon class="d" points="514.89 333.52 513.14 333.06 511.86 331.78 511.39 330.03 511.39 328.98 511.59 328.49 512.09 328.28 511.58 327.87 511.39 327.24 511.39 289.16 511.58 288.55 512.09 288.17 511.45 287.79 511.39 287.06 511.39 261.21 511.36 260.72 511.63 260.31 512.09 260.16 540.45 260.16 540.95 260.36 541.15 260.86 541.15 332.83 540.95 333.32 540.45 333.52 514.89 333.52"/><polygon class="d" points="488.63 288.11 485.95 287.57 483.67 286.06 482.15 283.79 481.62 281.12 481.62 267.15 482.15 264.47 483.67 262.2 485.95 260.69 488.63 260.16 510.34 260.16 511.08 260.47 511.39 261.2 511.39 287.06 511.08 287.8 510.34 288.11 488.63 288.11"/><g class="g"><path class="f" d="M488.62,288.11a7,7,0,0,1-7-7"/></g><line class="f" x1="481.62" y1="281.12" x2="481.62" y2="267.15"/><g class="g"><path class="f" d="M481.62,267.15a7,7,0,0,1,7-7"/></g><line class="f" x1="488.62" y1="260.16" x2="510.34" y2="260.16"/><g class="g"><path class="f" d="M510.34,260.16a1,1,0,0,1,1.05,1"/></g><line class="f" x1="511.39" y1="261.21" x2="511.39" y2="287.06"/><g class="g"><path class="f" d="M511.39,287.06a1,1,0,0,1-1.05,1.05"/></g><line class="f" x1="510.34" y1="288.11" x2="488.62" y2="288.11"/><line class="f" x1="511.39" y1="328.98" x2="511.39" y2="330.03"/><line class="f" x1="514.89" y1="333.52" x2="540.45" y2="333.52"/><line class="f" x1="541.15" y1="332.83" x2="541.15" y2="328.98"/><line class="f" x1="540.45" y1="328.28" x2="512.09" y2="328.28"/><line class="f" x1="541.15" y1="328.98" x2="541.15" y2="288.11"/><line class="f" x1="541.15" y1="288.11" x2="538.7" y2="288.11"/><line class="f" x1="511.39" y1="289.16" x2="511.39" y2="327.24"/><line class="f" x1="512.44" y1="328.28" x2="530" y2="328.28"/><line class="f" x1="530" y1="288.11" x2="512.44" y2="288.11"/><line class="f" x1="538.7" y1="328.28" x2="532.1" y2="328.28"/><line class="f" x1="532.1" y1="288.11" x2="538.7" y2="288.11"/><line class="f" x1="511.39" y1="264.7" x2="511.39" y2="260.86"/><line class="f" x1="512.09" y1="260.16" x2="540.45" y2="260.16"/><line class="f" x1="541.15" y1="260.86" x2="541.15" y2="264.7"/><line class="f" x1="541.15" y1="264.7" x2="541.15" y2="288.11"/><line class="f" x1="541.15" y1="288.11" x2="538.7" y2="288.11"/><line class="f" x1="511.39" y1="287.06" x2="511.39" y2="266.45"/><line class="f" x1="530" y1="288.11" x2="512.44" y2="288.11"/><line class="f" x1="530" y1="288.11" x2="538.7" y2="288.11"/><line class="f" x1="481.62" y1="281.12" x2="481.62" y2="267.15"/><line class="f" x1="488.62" y1="260.16" x2="510.34" y2="260.16"/><line class="f" x1="511.39" y1="261.21" x2="511.39" y2="287.06"/><line class="f" x1="510.34" y1="288.11" x2="488.62" y2="288.11"/><line class="f" x1="539.75" y1="287.06" x2="539.75" y2="261.21"/><line class="f" x1="539.75" y1="289.16" x2="539.75" y2="327.24"/><g class="g"><path class="f" d="M541.15,332.83a.69.69,0,0,1-.7.69"/><path class="f" d="M540.45,328.28a.7.7,0,0,1,.7.7"/><path class="f" d="M511.39,329a.7.7,0,0,1,.7-.7"/><path class="f" d="M512.44,328.28a1,1,0,0,1-1.05-1"/><path class="f" d="M511.39,289.16a1,1,0,0,1,1.05-1.05"/><path class="f" d="M511.39,260.86a.7.7,0,0,1,.7-.7"/><path class="f" d="M540.45,260.16a.7.7,0,0,1,.7.7"/><path class="f" d="M512.44,288.11a1,1,0,0,1-1.05-1.05"/><path class="f" d="M510.34,260.16a1,1,0,0,1,1.05,1"/><path class="f" d="M511.39,287.06a1,1,0,0,1-1.05,1.05"/></g><line class="f" x1="539.75" y1="261.21" x2="515.9" y2="261.21"/><g class="g"><path class="f" d="M520.72,262.47a19.81,19.81,0,0,1,15,24.63"/><path class="f" d="M534.85,327.24a119.24,119.24,0,0,1,0-38.08"/><path class="f" d="M488.62,288.11a7,7,0,0,1-7-7"/><path class="f" d="M481.62,267.15a7,7,0,0,1,7-7"/><path class="f" d="M514.89,333.52a3.5,3.5,0,0,1-3.5-3.49"/></g><polygon class="d" points="460.35 342.41 459.88 340.66 460.35 338.91 461.63 337.63 467.68 334.12 469.42 333.64 471.18 334.11 472.46 335.39 476.37 342.16 472.76 342.65 469.39 344.05 466.49 346.28 464.27 349.18 460.35 342.41"/><polygon class="d" points="467.75 378.24 461.68 374.75 460.4 373.48 459.93 371.73 460.4 369.97 464.3 363.19 466.52 366.09 469.42 368.3 472.8 369.7 476.42 370.17 472.52 376.96 471.24 378.24 469.49 378.71 467.75 378.24"/><polygon class="d" points="489.92 359.77 490.39 356.15 489.9 352.52 488.5 349.14 496.32 349.13 498.07 349.6 499.35 350.88 499.82 352.63 499.83 359.63 499.37 361.38 498.09 362.67 496.34 363.14 488.52 363.15 489.92 359.77"/><polygon class="d" points="472.8 369.7 469.43 368.3 466.52 366.09 464.29 363.19 462.89 359.81 462.41 356.19 462.88 352.56 464.27 349.18 466.49 346.28 469.38 344.05 472.76 342.65 476.38 342.16 480 342.64 483.37 344.03 486.28 346.25 488.5 349.14 489.9 352.52 490.39 356.15 489.91 359.77 488.52 363.15 486.3 366.06 483.41 368.28 480.04 369.69 476.42 370.17 472.8 369.7"/><line class="f" x1="480" y1="342.64" x2="476.38" y2="342.16"/><line class="f" x1="483.37" y1="344.03" x2="480" y2="342.64"/><line class="f" x1="486.28" y1="346.25" x2="483.37" y2="344.03"/><line class="f" x1="488.5" y1="349.15" x2="486.28" y2="346.25"/><line class="f" x1="489.9" y1="352.52" x2="488.5" y2="349.15"/><line class="f" x1="490.39" y1="356.15" x2="489.9" y2="352.52"/><line class="f" x1="489.91" y1="359.77" x2="490.39" y2="356.15"/><line class="f" x1="488.52" y1="363.15" x2="489.91" y2="359.77"/><line class="f" x1="486.3" y1="366.05" x2="488.52" y2="363.15"/><line class="f" x1="483.41" y1="368.28" x2="486.3" y2="366.05"/><line class="f" x1="480.04" y1="369.69" x2="483.41" y2="368.28"/><line class="f" x1="476.42" y1="370.17" x2="480.04" y2="369.69"/><line class="f" x1="472.8" y1="369.7" x2="476.42" y2="370.17"/><line class="f" x1="469.42" y1="368.3" x2="472.8" y2="369.7"/><line class="f" x1="466.52" y1="366.09" x2="469.42" y2="368.3"/><line class="f" x1="464.29" y1="363.19" x2="466.52" y2="366.09"/><line class="f" x1="462.89" y1="359.81" x2="464.29" y2="363.19"/><line class="f" x1="462.41" y1="356.19" x2="462.89" y2="359.81"/><line class="f" x1="462.88" y1="352.56" x2="462.41" y2="356.19"/><line class="f" x1="464.27" y1="349.18" x2="462.88" y2="352.56"/><line class="f" x1="466.49" y1="346.28" x2="464.27" y2="349.18"/><line class="f" x1="469.39" y1="344.05" x2="466.49" y2="346.28"/><line class="f" x1="472.76" y1="342.65" x2="469.39" y2="344.05"/><line class="f" x1="476.38" y1="342.16" x2="472.76" y2="342.65"/><g class="g"><path class="f" d="M490.39,356.14a14,14,0,1,1-28,.05"/><path class="f" d="M462.41,356.19a14,14,0,1,1,28-.05"/></g><line class="f" x1="462.5" y1="339.14" x2="468.56" y2="335.63"/><line class="f" x1="472.46" y1="335.39" x2="476.38" y2="342.16"/><line class="f" x1="461.63" y1="337.63" x2="467.68" y2="334.12"/><line class="f" x1="464.27" y1="349.18" x2="460.35" y2="342.41"/><line class="f" x1="468.62" y1="376.73" x2="462.55" y2="373.24"/><line class="f" x1="460.4" y1="369.97" x2="464.29" y2="363.19"/><line class="f" x1="467.75" y1="378.24" x2="461.68" y2="374.75"/><line class="f" x1="476.42" y1="370.17" x2="472.52" y2="376.96"/><line class="f" x1="498.07" y1="352.63" x2="498.08" y2="359.64"/><line class="f" x1="496.34" y1="363.14" x2="488.52" y2="363.15"/><line class="f" x1="499.82" y1="352.63" x2="499.84" y2="359.63"/><line class="f" x1="488.5" y1="349.15" x2="496.32" y2="349.13"/><g class="g"><path class="f" d="M468.56,335.63a1.75,1.75,0,0,1,.87-.24,1.73,1.73,0,0,1,1.51.88"/><path class="f" d="M461.87,341.53a1.68,1.68,0,0,1-.24-.87,1.75,1.75,0,0,1,.87-1.52"/><path class="f" d="M467.68,334.11a3.66,3.66,0,0,1,1.75-.47,3.51,3.51,0,0,1,3,1.75"/><path class="f" d="M460.35,342.41a3.66,3.66,0,0,1-.47-1.75,3.5,3.5,0,0,1,1.75-3"/><path class="f" d="M462.56,373.24a1.76,1.76,0,0,1-.65-2.39"/><path class="f" d="M471,376.08a1.76,1.76,0,0,1-2.39.65"/><path class="f" d="M461.68,374.75A3.5,3.5,0,0,1,460.4,370"/><path class="f" d="M472.52,377a3.49,3.49,0,0,1-3,1.75,3.44,3.44,0,0,1-1.74-.47"/><path class="f" d="M498.09,359.63h0a1.76,1.76,0,0,1-1.75,1.76"/><path class="f" d="M496.32,350.89a1.74,1.74,0,0,1,1.75,1.74"/><path class="f" d="M499.83,359.63a3.5,3.5,0,0,1-3.49,3.51"/><path class="f" d="M496.32,349.14a3.49,3.49,0,0,1,3.5,3.49"/></g><polygon class="d" points="308.27 421.22 307.9 421.06 307.74 420.69 307.74 406.37 307.9 406 308.27 405.84 326.48 405.84 326.85 406 327 406.37 327 420.69 326.85 421.06 326.48 421.22 308.27 421.22"/><line class="f" x1="326.48" y1="421.22" x2="308.27" y2="421.22"/><g class="g"><path class="f" d="M308.27,421.22a.53.53,0,0,1-.53-.53"/></g><line class="f" x1="307.74" y1="420.69" x2="307.74" y2="406.37"/><g class="g"><path class="f" d="M307.74,406.37a.53.53,0,0,1,.53-.53"/></g><line class="f" x1="308.27" y1="405.84" x2="326.48" y2="405.84"/><g class="g"><path class="f" d="M326.48,405.84a.52.52,0,0,1,.52.53"/></g><line class="f" x1="327" y1="406.37" x2="327" y2="420.69"/><g class="g"><path class="f" d="M327,420.69a.52.52,0,0,1-.52.53"/></g><line class="f" x1="325.43" y1="417.37" x2="309.32" y2="417.37"/><line class="f" x1="308.79" y1="416.85" x2="308.79" y2="407.42"/><line class="f" x1="309.32" y1="406.89" x2="325.43" y2="406.89"/><line class="f" x1="325.95" y1="407.42" x2="325.95" y2="416.85"/><g class="g"><path class="f" d="M309.32,417.37a.52.52,0,0,1-.53-.52"/><path class="f" d="M308.79,407.42a.53.53,0,0,1,.53-.53"/><path class="f" d="M325.43,406.89a.52.52,0,0,1,.52.53"/><path class="f" d="M326,416.85a.52.52,0,0,1-.52.52"/></g><polygon class="d" points="316.75 419.74 316.5 419.12 316.64 417.66 316.75 417.32 316.98 415.47 317.12 415.23 317.37 415.13 317.63 415.23 317.76 415.47 317.99 417.32 318.11 417.66 318.25 419.12 317.99 419.74 317.37 419.99 316.75 419.74"/><g class="g"><path class="f" d="M318.25,419.12a.88.88,0,0,1-1.75,0"/></g><line class="f" x1="316.64" y1="417.66" x2="316.5" y2="419.12"/><g class="g"><path class="f" d="M316.64,417.66a.8.8,0,0,1,.11-.34"/></g><line class="f" x1="316.98" y1="415.47" x2="316.75" y2="417.32"/><g class="g"><path class="f" d="M317,415.47a.41.41,0,0,1,.39-.34.39.39,0,0,1,.39.34"/></g><line class="f" x1="317.99" y1="417.32" x2="317.76" y2="415.47"/><g class="g"><path class="f" d="M318,417.32a.7.7,0,0,1,.12.33"/></g><line class="f" x1="318.25" y1="419.12" x2="318.11" y2="417.66"/><line class="f" x1="316.9" y1="418.25" x2="316.9" y2="417.73"/><line class="f" x1="317.85" y1="417.73" x2="317.85" y2="418.25"/><line class="f" x1="317.85" y1="418.25" x2="316.9" y2="418.25"/><g class="g"><path class="f" d="M316.9,417.73a.48.48,0,1,1,1,0"/><path class="f" d="M316.75,417.32a.74.74,0,0,1,.62-.33.73.73,0,0,1,.62.33"/></g><rect class="d" x="378.66" y="253.17" width="21.01" height="52.58"/><line class="f" x1="399.67" y1="305.75" x2="399.67" y2="253.17"/><line class="f" x1="399.67" y1="253.17" x2="378.66" y2="253.17"/><line class="f" x1="378.66" y1="253.17" x2="378.66" y2="305.75"/><line class="f" x1="378.66" y1="305.75" x2="399.67" y2="305.75"/><line class="f" x1="389.16" y1="303.12" x2="389.16" y2="255.8"/><line class="f" x1="395.34" y1="300.68" x2="382.76" y2="296.23"/><line class="f" x1="395.97" y1="295.67" x2="384.26" y2="293.83"/><line class="f" x1="381.59" y1="288.82" x2="394.44" y2="287.31"/><line class="f" x1="383.27" y1="281.06" x2="394.44" y2="283.12"/><line class="f" x1="382.63" y1="278.24" x2="396.39" y2="278.24"/><line class="f" x1="382.57" y1="270.25" x2="396.17" y2="272.15"/><line class="f" x1="382.8" y1="267.26" x2="395.22" y2="267.26"/><line class="f" x1="382.67" y1="259.37" x2="395.41" y2="257.86"/><line class="f" x1="383.54" y1="261.27" x2="394.31" y2="262.81"/><rect class="d" x="378.66" y="305.75" width="21.01" height="51.88"/><line class="f" x1="399.67" y1="357.63" x2="399.67" y2="305.75"/><line class="f" x1="399.67" y1="305.75" x2="378.66" y2="305.75"/><line class="f" x1="378.66" y1="305.75" x2="378.66" y2="357.63"/><line class="f" x1="378.66" y1="357.63" x2="399.67" y2="357.63"/><line class="f" x1="389.16" y1="355.04" x2="389.16" y2="308.35"/><line class="f" x1="395.34" y1="352.63" x2="382.76" y2="348.24"/><line class="f" x1="395.97" y1="347.68" x2="384.26" y2="345.87"/><line class="f" x1="381.59" y1="340.93" x2="394.44" y2="339.44"/><line class="f" x1="383.27" y1="333.27" x2="394.44" y2="335.3"/><line class="f" x1="382.63" y1="330.49" x2="396.39" y2="330.49"/><line class="f" x1="382.57" y1="322.6" x2="396.17" y2="324.47"/><line class="f" x1="382.8" y1="319.65" x2="395.22" y2="319.65"/><line class="f" x1="382.67" y1="311.87" x2="395.41" y2="310.37"/><line class="f" x1="383.54" y1="313.74" x2="394.31" y2="315.26"/><polygon class="d" points="285.25 421.22 285.25 409.69 285.52 407.96 286.3 406.4 287.52 405.14 289.51 404.11 291.73 403.75 293.94 404.11 295.93 405.14 297.15 406.4 297.94 407.96 298.21 409.69 298.21 421.22 285.25 421.22"/><line class="f" x1="285.25" y1="421.22" x2="285.25" y2="409.69"/><line class="f" x1="285.25" y1="421.22" x2="298.21" y2="421.22"/><line class="f" x1="298.21" y1="421.22" x2="298.21" y2="409.69"/><line class="f" x1="287.35" y1="417.02" x2="287.35" y2="409.69"/><line class="f" x1="296.11" y1="417.02" x2="296.11" y2="409.69"/><line class="f" x1="296.11" y1="417.02" x2="287.35" y2="417.02"/><g class="g"><path class="f" d="M285.25,409.69a5.68,5.68,0,0,1,2.28-4.55"/><path class="f" d="M295.93,405.15a5.67,5.67,0,0,1,2.28,4.54"/><path class="f" d="M287.53,405.15a7,7,0,0,1,8.4,0"/><path class="f" d="M295.93,405.15a5.67,5.67,0,0,1,2.28,4.54"/><path class="f" d="M291.73,403.75a7,7,0,0,1,4.2,1.4"/><path class="f" d="M294.67,406.82a3.59,3.59,0,0,1,1.43,2.87"/><path class="f" d="M288.79,406.82a4.9,4.9,0,0,1,5.88,0"/><path class="f" d="M287.35,409.69a3.58,3.58,0,0,1,1.44-2.87"/></g><line class="f" x1="373.4" y1="426.46" x2="380.41" y2="426.46"/><line class="f" x1="384.26" y1="426.46" x2="385.05" y2="426.46"/><line class="f" x1="388.9" y1="426.46" x2="389.69" y2="426.46"/><line class="f" x1="393.54" y1="426.46" x2="400.54" y2="426.46"/><line class="f" x1="404.4" y1="426.46" x2="404.92" y2="426.46"/><line class="f" x1="404.92" y1="426.46" x2="411.93" y2="426.46"/><line class="f" x1="495.68" y1="418.69" x2="495.68" y2="412.84"/><line class="f" x1="495.68" y1="412.84" x2="498.07" y2="414.76"/><line class="f" x1="498.07" y1="414.76" x2="500.46" y2="412.83"/><line class="f" x1="500.45" y1="412.84" x2="500.45" y2="418.69"/><line class="f" x1="241.21" y1="186.79" x2="549.03" y2="186.79"/><line class="f" x1="241.21" y1="185.04" x2="549.03" y2="185.04"/><line class="f" x1="241.21" y1="183.3" x2="549.03" y2="183.3"/><line class="f" x1="237.18" y1="434.84" x2="553.4" y2="434.84"/><line class="f" x1="553.4" y1="434.84" x2="553.4" y2="239.2"/><line class="f" x1="553.4" y1="239.2" x2="549.03" y2="239.2"/><line class="f" x1="549.03" y1="239.2" x2="549.03" y2="183.28"/><line class="f" x1="549.03" y1="183.28" x2="241.21" y2="183.28"/><line class="f" x1="241.21" y1="183.28" x2="241.21" y2="239.2"/><line class="f" x1="241.21" y1="239.2" x2="237.18" y2="239.2"/><line class="f" x1="237.18" y1="239.2" x2="237.18" y2="434.84"/><path class="h" d="M442.49,211.92v7h-.72v-6.36h-1.65v-.64Z"/><path class="h" d="M444.17,218.42a.53.53,0,0,1,.53-.54.54.54,0,0,1,.54.54.55.55,0,0,1-.54.55A.54.54,0,0,1,444.17,218.42Z"/><path class="h" d="M446.18,215.42c0-2.23,1.17-3.56,2.79-3.56s2.8,1.33,2.8,3.56S450.59,219,449,219,446.18,217.65,446.18,215.42Zm4.85,0c0-1.87-.84-2.9-2.06-2.9s-2.06,1-2.06,2.9.84,2.9,2.06,2.9S451,217.29,451,215.42Z"/><path class="h" d="M457.55,216.86c0,1.19-.83,2.12-2.54,2.12a3.61,3.61,0,0,1-2.51-.9l.35-.57a3,3,0,0,0,2.15.81c1.19,0,1.82-.58,1.82-1.43s-.56-1.46-2.34-1.46H453l.36-3.51h3.83v.64H454l-.24,2.23h.9C456.75,214.79,457.55,215.62,457.55,216.86Z"/><path class="h" d="M297.52,381.29v7h-.72v-6.36h-1.65v-.64Z"/><path class="h" d="M299.2,387.79a.53.53,0,0,1,.53-.54.54.54,0,0,1,.54.54.55.55,0,0,1-.54.55A.54.54,0,0,1,299.2,387.79Z"/><path class="h" d="M301.21,384.79c0-2.23,1.17-3.56,2.79-3.56s2.8,1.33,2.8,3.56-1.18,3.56-2.8,3.56S301.21,387,301.21,384.79Zm4.85,0c0-1.87-.84-2.9-2.06-2.9s-2.06,1-2.06,2.9.84,2.9,2.06,2.9S306.06,386.66,306.06,384.79Z"/><path class="h" d="M313.78,386.45h-1.4v1.84h-.72v-1.84h-4v-.52l3.71-4.64h.8l-3.58,4.52h3v-1.62h.7v1.62h1.4Z"/><path class="h" d="M337.41,302.63v7h-.72v-6.36H335v-.64Z"/><path class="h" d="M339.09,309.13a.53.53,0,0,1,.53-.54.54.54,0,0,1,.54.54.55.55,0,0,1-.54.55A.54.54,0,0,1,339.09,309.13Z"/><path class="h" d="M341.1,306.13c0-2.23,1.17-3.56,2.79-3.56s2.8,1.33,2.8,3.56-1.18,3.56-2.8,3.56S341.1,308.36,341.1,306.13Zm4.85,0c0-1.87-.84-2.9-2.06-2.9s-2.06,1-2.06,2.9.84,2.9,2.06,2.9S346,308,346,306.13Z"/><path class="h" d="M352.26,307.62c0,1.17-.85,2.07-2.54,2.07a3.64,3.64,0,0,1-2.52-.9l.35-.57a3.07,3.07,0,0,0,2.17.81c1.16,0,1.8-.54,1.8-1.41s-.59-1.39-1.89-1.39h-.5v-.53l1.94-2.43h-3.58v-.64H352v.51l-2,2.49C351.51,305.71,352.26,306.5,352.26,307.62Z"/><path class="h" d="M442.49,304v7h-.72V304.6h-1.65V304Z"/><path class="h" d="M444.17,310.46a.53.53,0,0,1,.53-.54.54.54,0,0,1,.54.54.55.55,0,0,1-.54.55A.54.54,0,0,1,444.17,310.46Z"/><path class="h" d="M446.18,307.46c0-2.23,1.17-3.56,2.79-3.56s2.8,1.33,2.8,3.56S450.59,311,449,311,446.18,309.69,446.18,307.46Zm4.85,0c0-1.87-.84-2.9-2.06-2.9s-2.06,1-2.06,2.9.84,2.9,2.06,2.9S451,309.33,451,307.46Z"/><path class="h" d="M457.57,310.32V311h-4.91v-.51l2.91-2.85c.79-.78.94-1.25.94-1.73,0-.81-.57-1.31-1.64-1.31a2.38,2.38,0,0,0-1.91.78l-.51-.44a3.15,3.15,0,0,1,2.48-1c1.42,0,2.32.72,2.32,1.89A2.88,2.88,0,0,1,456.1,308l-2.38,2.34Z"/><path class="h" d="M380.58,381.54v7h-.72v-6.36h-1.65v-.64Z"/><path class="h" d="M382.26,388a.53.53,0,0,1,.53-.54.54.54,0,0,1,.54.54.55.55,0,0,1-.54.55A.54.54,0,0,1,382.26,388Z"/><path class="h" d="M384.27,385c0-2.23,1.17-3.56,2.79-3.56s2.8,1.33,2.8,3.56-1.18,3.56-2.8,3.56S384.27,387.27,384.27,385Zm4.85,0c0-1.87-.84-2.9-2.06-2.9s-2.06,1-2.06,2.9.84,2.9,2.06,2.9S389.12,386.91,389.12,385Z"/><path class="h" d="M392.82,381.54v7h-.72v-6.36h-1.65v-.64Z"/></svg>