<svg xmlns="http://www.w3.org/2000/svg" xmlns:xlink="http://www.w3.org/1999/xlink" viewBox="0 0 790.58 618.13"><defs><style>.a,.l{fill:none;}.b{clip-path:url(#a);}.c{clip-path:url(#d);}.d{clip-path:url(#g);}.e{clip-path:url(#j);}.f{fill:#595a5c;}.g{fill:#b6906c;}.h{fill:#fff;}.i{fill:#231f20;}.j{fill:url(#y);}.k{fill:url(#z);}.l{stroke:#000;stroke-linecap:round;stroke-linejoin:round;stroke-width:0.34px;}.m{clip-path:url(#aa);}.n{fill:#58595b;}</style><clipPath id="a"><rect class="a" y="59.93" width="90" height="59.93"/></clipPath><clipPath id="d"><rect class="a" x="90" y="59.93" width="90" height="59.93"/></clipPath><clipPath id="g"><rect class="a" width="90" height="59.93"/></clipPath><clipPath id="j"><rect class="a" x="90" width="90" height="59.93"/></clipPath><pattern id="y" width="180" height="119.85" patternTransform="matrix(0, -3.38, -3.4, 0, 38796.25, 14291.01)" patternUnits="userSpaceOnUse" viewBox="0 0 180 119.85"><rect class="a" width="180" height="119.85"/><g class="b"><g class="b"><g class="b"><image width="376" height="251" transform="matrix(0.24, 0, 0, -0.24, -0.2, 120.05)" xlink:href="A308_pudorys1.png"/></g></g></g><g class="c"><g class="c"><g class="c"><image width="376" height="251" transform="matrix(0.24, 0, 0, -0.24, 89.8, 120.05)" xlink:href="A308_pudorys2.png"/></g></g></g><g class="d"><g class="d"><g class="d"><image width="376" height="251" transform="matrix(0.24, 0, 0, -0.24, -0.2, 60.05)" xlink:href="A308_pudorys3.png"/></g></g></g><g class="e"><g class="e"><g class="e"><image width="376" height="251" transform="matrix(0.24, 0, 0, -0.24, 89.8, 60.05)" xlink:href="A308_pudorys4.png"/></g></g></g></pattern><pattern id="z" width="180" height="119.85" patternTransform="matrix(0, -3.38, -3.4, 0, 38796.25, 14291.01)" patternUnits="userSpaceOnUse" viewBox="0 0 180 119.85"><rect class="a" width="180" height="119.85"/><g class="b"><g class="b"><g class="b"><image width="376" height="251" transform="matrix(0.24, 0, 0, -0.24, -0.2, 120.05)" xlink:href="A308_pudorys5.png"/></g></g></g><g class="c"><g class="c"><g class="c"><image width="376" height="251" transform="matrix(0.24, 0, 0, -0.24, 89.8, 120.05)" xlink:href="A308_pudorys6.png"/></g></g></g><g class="d"><g class="d"><g class="d"><image width="376" height="251" transform="matrix(0.24, 0, 0, -0.24, -0.2, 60.05)" xlink:href="A308_pudorys7.png"/></g></g></g><g class="e"><g class="e"><g class="e"><image width="376" height="251" transform="matrix(0.24, 0, 0, -0.24, 89.8, 60.05)" xlink:href="A308_pudorys8.png"/></g></g></g></pattern><clipPath id="aa"><polygon class="a" points="365.18 187.38 292.7 187.38 198.78 187.38 198.78 376.66 202.18 376.66 202.18 430.75 522.04 430.75 522.04 376.66 591.8 376.66 591.8 187.38 365.18 187.38"/></clipPath></defs><path class="f" d="M55.31,597.13H57.1V609.9H55.31Zm.92,6.11h4.09a1.89,1.89,0,0,0,1-.27,1.82,1.82,0,0,0,.68-.77,2.67,2.67,0,0,0,.24-1.16,2.7,2.7,0,0,0-.24-1.16,1.82,1.82,0,0,0-1.7-1H56.23v-1.7h4a4.09,4.09,0,0,1,2,.48A3.45,3.45,0,0,1,63.62,599a4.64,4.64,0,0,1,0,4.11,3.34,3.34,0,0,1-1.35,1.36,4,4,0,0,1-2,.49h-4Z"/><path class="f" d="M67.7,606.33a2.07,2.07,0,0,0,.49,1.48,1.76,1.76,0,0,0,1.37.52,1.89,1.89,0,0,0,1.37-.46,1.79,1.79,0,0,0,.48-1.33l.12,1.91A2.58,2.58,0,0,1,69.06,610a2.89,2.89,0,0,1-2.33-1,4.08,4.08,0,0,1-.82-2.73v-5.55H67.7Zm.22-7.86a1.93,1.93,0,0,1-.56-1.5,2.07,2.07,0,0,1,.56-1.57,2.56,2.56,0,0,1,3.18,0,2.08,2.08,0,0,1,.57,1.56,1.94,1.94,0,0,1-.57,1.5,2.65,2.65,0,0,1-3.18,0Zm2.26-.86a.94.94,0,0,0,.24-.68,1,1,0,0,0-.24-.7.91.91,0,0,0-.67-.25.92.92,0,0,0-.67.25,1,1,0,0,0-.23.7,1,1,0,0,0,.23.68.92.92,0,0,0,.67.24A.9.9,0,0,0,70.18,597.61Zm1.23,3.17h1.78v9.12H71.41Z"/><path class="f" d="M77.1,609.63A2.82,2.82,0,0,1,76,608.36a5.08,5.08,0,0,1-.36-2v-2a5.05,5.05,0,0,1,.36-2,2.71,2.71,0,0,1,1-1.27,3,3,0,0,1,1.65-.44,2.71,2.71,0,0,1,1.48.42,3.22,3.22,0,0,1,1.09,1.19l-.18,1.86a2.19,2.19,0,0,0-.22-1,1.48,1.48,0,0,0-.61-.63,2,2,0,0,0-1-.21,1.71,1.71,0,0,0-1.37.55,2.26,2.26,0,0,0-.49,1.56v2a2.19,2.19,0,0,0,.49,1.54,1.74,1.74,0,0,0,1.37.54,1.93,1.93,0,0,0,1-.23,1.45,1.45,0,0,0,.61-.64,2.25,2.25,0,0,0,.22-1l.12,1.92a2.66,2.66,0,0,1-.89,1.14,2.56,2.56,0,0,1-1.53.45A3.19,3.19,0,0,1,77.1,609.63Zm4-12.5H82.9V609.9H81.11Z"/><path class="f" d="M87.09,609.57a3.09,3.09,0,0,1-1.29-1.36,4.85,4.85,0,0,1-.44-2.15v-1.48a4.71,4.71,0,0,1,.44-2.12,3.12,3.12,0,0,1,1.29-1.35,4.71,4.71,0,0,1,4.06,0,3.12,3.12,0,0,1,1.29,1.35,4.71,4.71,0,0,1,.44,2.12v1.51a4.79,4.79,0,0,1-.44,2.13,3.12,3.12,0,0,1-1.29,1.35,4.62,4.62,0,0,1-4.06,0Zm3.49-1.83a2.43,2.43,0,0,0,.51-1.65v-1.51a2.43,2.43,0,0,0-.51-1.65,1.88,1.88,0,0,0-1.46-.58,1.85,1.85,0,0,0-1.45.58,2.38,2.38,0,0,0-.52,1.65v1.51a2.38,2.38,0,0,0,.52,1.65,1.82,1.82,0,0,0,1.45.59A1.85,1.85,0,0,0,90.58,607.74Z"/><path class="f" d="M95.43,600.78h1.79v9.12H95.43Zm4.42,1.72a2.16,2.16,0,0,0-.83-.15,1.83,1.83,0,0,0-1.33.47,1.79,1.79,0,0,0-.47,1.31L97,602.37a3.32,3.32,0,0,1,1.09-1.27,2.58,2.58,0,0,1,1.48-.45,3.39,3.39,0,0,1,1.13.18,2.62,2.62,0,0,1,.88.53l-1.17,1.58A1.56,1.56,0,0,0,99.85,602.5Z"/><path class="f" d="M102.15,600.78H104l2.81,7.93-1,1.94Zm8.07,0L106.34,612a2.6,2.6,0,0,1-.56,1,1.87,1.87,0,0,1-.84.52,4,4,0,0,1-1.23.16h-.36V612h.36a1.46,1.46,0,0,0,.8-.2,1.74,1.74,0,0,0,.51-.7l3.38-10.31Z"/><path class="f" d="M113.51,609.88a5.76,5.76,0,0,1-1.32-.48,4.89,4.89,0,0,1-1.13-.79l1.06-1.31a5.86,5.86,0,0,0,1.47.85,4.18,4.18,0,0,0,1.44.28,3.11,3.11,0,0,0,1.6-.33,1.1,1.1,0,0,0,.53-1,.79.79,0,0,0-.29-.66,1.66,1.66,0,0,0-.72-.29c-.29,0-.69-.1-1.22-.14h-.15l-.14,0h-.15a6.45,6.45,0,0,1-1.5-.26,2,2,0,0,1-1-.7,2.38,2.38,0,0,1-.41-1.49,3.07,3.07,0,0,1,.39-1.61,2.41,2.41,0,0,1,1.18-1,5.29,5.29,0,0,1,2-.32,6.38,6.38,0,0,1,2.6.52,6.16,6.16,0,0,1,1.13.66l-1.08,1.31a5.59,5.59,0,0,0-1.35-.66,4,4,0,0,0-1.3-.22,2.44,2.44,0,0,0-1.37.31,1.08,1.08,0,0,0-.46.94.64.64,0,0,0,.26.55,1.72,1.72,0,0,0,.66.25c.26,0,.64.07,1.12.1h.34a7.67,7.67,0,0,1,1.63.25,2.24,2.24,0,0,1,1.13.77,2.62,2.62,0,0,1,.45,1.65,2.92,2.92,0,0,1-.42,1.63,2.54,2.54,0,0,1-1.27,1A5.88,5.88,0,0,1,115,610,7.38,7.38,0,0,1,113.51,609.88Z"/><path class="f" d="M126,597.13h1.8V609.9H126Zm2.6,12.5a2.39,2.39,0,0,1-.93-1.16l.13-1.91a2.22,2.22,0,0,0,.21,1,1.48,1.48,0,0,0,.61.63,1.93,1.93,0,0,0,1,.22,1.74,1.74,0,0,0,1.37-.54,2.18,2.18,0,0,0,.49-1.53v-2a2.26,2.26,0,0,0-.49-1.56,1.71,1.71,0,0,0-1.37-.55,2,2,0,0,0-1,.21,1.36,1.36,0,0,0-.61.62,2.12,2.12,0,0,0-.21,1l-.19-1.76a3.37,3.37,0,0,1,1.08-1.24,2.67,2.67,0,0,1,1.49-.43,3,3,0,0,1,1.65.43,2.9,2.9,0,0,1,1.06,1.27,5.1,5.1,0,0,1,.36,2v2a4.94,4.94,0,0,1-.37,2,2.79,2.79,0,0,1-1.08,1.26,3.25,3.25,0,0,1-1.71.44A2.73,2.73,0,0,1,128.57,609.63Z"/><path class="f" d="M134.46,600.78h1.82l2.81,7.93-1,1.94Zm8.07,0L138.65,612a2.6,2.6,0,0,1-.56,1,1.87,1.87,0,0,1-.84.52,4,4,0,0,1-1.23.16h-.36V612H136a1.46,1.46,0,0,0,.8-.2,1.74,1.74,0,0,0,.51-.7l3.37-10.31Z"/><path class="f" d="M143.57,600.78h4.12v1.62h-4.12Zm1.46,8.56a2.77,2.77,0,0,1-.52-1.81v-9.4h1.8v9.42a.84.84,0,0,0,.13.51.46.46,0,0,0,.39.18h.86V610h-1A2,2,0,0,1,145,609.34Z"/><path class="f" d="M151.94,606.33a2.07,2.07,0,0,0,.49,1.48,1.76,1.76,0,0,0,1.37.52,1.91,1.91,0,0,0,1.37-.46,1.79,1.79,0,0,0,.48-1.33l.12,1.91A2.58,2.58,0,0,1,153.3,610a2.89,2.89,0,0,1-2.33-1,4.08,4.08,0,0,1-.82-2.73v-5.55h1.79Zm3.71-5.55h1.78v9.12h-1.78Z"/><rect class="g" x="612.92" y="591.68" width="35.43" height="2.83"/><path class="h" d="M648.48,594.64H612.79v-3.08h35.69ZM613,594.39h35.19v-2.58H613Z"/><rect class="g" x="612.92" y="601.6" width="70.74" height="2.83"/><path class="h" d="M683.78,604.56h-71v-3.08h71ZM613,604.31h70.49v-2.58H613Z"/><rect class="g" x="612.92" y="612.72" width="177.16" height="2.84"/><path class="h" d="M790.21,615.68H612.79V612.6H790.21ZM613,615.43H790v-2.58H613Z"/><path class="i" d="M587.26,596.28h-.8v-4.82l-.81.5v-.83l.81-.53h.8Z"/><path class="i" d="M589,595.91a1.67,1.67,0,0,1-.41-1.19v-2.58A1.65,1.65,0,0,1,589,591a2,2,0,0,1,2.42,0,1.65,1.65,0,0,1,.41,1.19v2.58a1.65,1.65,0,0,1-.41,1.19,2,2,0,0,1-2.42,0Zm1.83-.55a.89.89,0,0,0,.2-.64v-2.58a.89.89,0,0,0-.2-.64.82.82,0,0,0-.62-.22.86.86,0,0,0-.63.22.94.94,0,0,0-.2.64v2.58a.9.9,0,0,0,.21.64,1,1,0,0,0,1.24,0Z"/><path class="i" d="M593.22,595.91a1.67,1.67,0,0,1-.41-1.19v-2.58a1.65,1.65,0,0,1,.41-1.19,2,2,0,0,1,2.42,0,1.61,1.61,0,0,1,.41,1.19v2.58a1.65,1.65,0,0,1-.41,1.19,2,2,0,0,1-2.42,0Zm1.83-.55a.9.9,0,0,0,.21-.64v-2.58a.94.94,0,0,0-.2-.64.86.86,0,0,0-.63-.22.82.82,0,0,0-.62.22.89.89,0,0,0-.2.64v2.58a.89.89,0,0,0,.2.64,1,1,0,0,0,1.24,0Z"/><path class="i" d="M600.1,596.13a1.45,1.45,0,0,1-.6-.6,2.06,2.06,0,0,1-.21-1v-.67a2,2,0,0,1,.21-.94,1.37,1.37,0,0,1,.6-.59,2,2,0,0,1,.95-.21,2.21,2.21,0,0,1,.59.08,1.68,1.68,0,0,1,.51.22,1.54,1.54,0,0,1,.37.35l-.58.52a1.17,1.17,0,0,0-.4-.3,1.13,1.13,0,0,0-.48-.11.94.94,0,0,0-.71.26,1,1,0,0,0-.26.72v.67a1,1,0,0,0,.25.74.94.94,0,0,0,.72.27,1,1,0,0,0,.48-.12,1,1,0,0,0,.4-.32l.58.56a1.38,1.38,0,0,1-.38.34,1.62,1.62,0,0,1-.5.22,2.27,2.27,0,0,1-.59.07A2.12,2.12,0,0,1,600.1,596.13Z"/><path class="i" d="M603.4,592.22h.79v4.06h-.79Zm2.42,1.6a1,1,0,0,0-.21-.67.78.78,0,0,0-.6-.23.81.81,0,0,0-.6.21.73.73,0,0,0-.22.58l-.08-.78a1.46,1.46,0,0,1,.49-.57,1.22,1.22,0,0,1,.67-.2,1.33,1.33,0,0,1,.73.2,1.18,1.18,0,0,1,.46.56,2.4,2.4,0,0,1,.15.89v2.47h-.79Zm2.42,0a.93.93,0,0,0-.22-.67.85.85,0,0,0-.63-.23.72.72,0,0,0-.57.23.9.9,0,0,0-.21.64l-.16-.78a1.61,1.61,0,0,1,.51-.63,1.23,1.23,0,0,1,.69-.22,1.37,1.37,0,0,1,.75.2,1.09,1.09,0,0,1,.47.56,2.21,2.21,0,0,1,.17.89v2.47h-.8Z"/><path class="i" d="M584.33,605.5l2-2.64a1.85,1.85,0,0,0,.27-.47,1.29,1.29,0,0,0,.09-.45h0a.67.67,0,0,0-.2-.53.81.81,0,0,0-.56-.19.76.76,0,0,0-.56.21,1,1,0,0,0-.27.58h-.82a2,2,0,0,1,.29-.83,1.42,1.42,0,0,1,.56-.53,1.67,1.67,0,0,1,.79-.18,1.93,1.93,0,0,1,.87.17,1.21,1.21,0,0,1,.54.51,1.55,1.55,0,0,1,.19.8h0a1.84,1.84,0,0,1-.12.63,2.8,2.8,0,0,1-.35.63l-1.65,2.24h2.15v.76h-3.2Z"/><path class="i" d="M589,605.83a1.67,1.67,0,0,1-.41-1.19v-2.58a1.65,1.65,0,0,1,.41-1.19,2,2,0,0,1,2.42,0,1.65,1.65,0,0,1,.41,1.19v2.58a1.65,1.65,0,0,1-.41,1.19,2,2,0,0,1-2.42,0Zm1.83-.55a.89.89,0,0,0,.2-.64v-2.58a.89.89,0,0,0-.2-.64.82.82,0,0,0-.62-.22.86.86,0,0,0-.63.22.94.94,0,0,0-.19.64v2.58a.89.89,0,0,0,.2.64,1,1,0,0,0,1.24,0Z"/><path class="i" d="M593.22,605.83a1.67,1.67,0,0,1-.41-1.19v-2.58a1.61,1.61,0,0,1,.42-1.19,1.59,1.59,0,0,1,1.2-.42,1.45,1.45,0,0,1,1.62,1.61v2.58a1.61,1.61,0,0,1-.41,1.19,2,2,0,0,1-2.42,0Zm1.84-.55a.94.94,0,0,0,.2-.64v-2.58a.94.94,0,0,0-.2-.64.84.84,0,0,0-.63-.22.82.82,0,0,0-.62.22.89.89,0,0,0-.2.64v2.58a.89.89,0,0,0,.2.64.82.82,0,0,0,.62.22A.86.86,0,0,0,595.06,605.28Z"/><path class="i" d="M600.1,606.05a1.45,1.45,0,0,1-.6-.6,2.06,2.06,0,0,1-.2-1v-.67a2,2,0,0,1,.2-.94,1.37,1.37,0,0,1,.6-.59,2,2,0,0,1,.95-.21,2.35,2.35,0,0,1,.6.08,1.73,1.73,0,0,1,.5.22,1.38,1.38,0,0,1,.37.35l-.58.52a1.08,1.08,0,0,0-.4-.3,1.13,1.13,0,0,0-.48-.11,1,1,0,0,0-.71.26,1,1,0,0,0-.26.72v.67a1,1,0,0,0,.25.74.94.94,0,0,0,.72.27,1.14,1.14,0,0,0,.88-.44l.58.56a1.38,1.38,0,0,1-.38.34,1.62,1.62,0,0,1-.5.22,2.22,2.22,0,0,1-.59.07A2.12,2.12,0,0,1,600.1,606.05Z"/><path class="i" d="M603.4,602.14h.79v4.06h-.79Zm2.42,1.6a1,1,0,0,0-.21-.67.78.78,0,0,0-.6-.23.81.81,0,0,0-.6.21.73.73,0,0,0-.22.58l-.08-.78a1.46,1.46,0,0,1,.49-.57,1.22,1.22,0,0,1,.67-.2,1.3,1.3,0,0,1,.73.2,1.18,1.18,0,0,1,.46.56,2.4,2.4,0,0,1,.16.89v2.47h-.8Zm2.42,0a.93.93,0,0,0-.22-.67.85.85,0,0,0-.63-.23.73.73,0,0,0-.57.23.89.89,0,0,0-.2.64l-.16-.78a1.51,1.51,0,0,1,.5-.63,1.23,1.23,0,0,1,.69-.22,1.35,1.35,0,0,1,.75.2,1.16,1.16,0,0,1,.48.56,2.4,2.4,0,0,1,.16.89v2.47h-.8Z"/><path class="i" d="M585,615.58a1.34,1.34,0,0,1-.54-.49,2,2,0,0,1-.28-.77h.8a.75.75,0,0,0,.25.49.85.85,0,0,0,.54.17.72.72,0,0,0,.59-.25,1.1,1.1,0,0,0,.21-.72v-.48a1.1,1.1,0,0,0-.21-.72.72.72,0,0,0-.59-.25.83.83,0,0,0-.4.11,1.18,1.18,0,0,0-.34.33h-.72v-3h2.89v.76h-2.1V612a1,1,0,0,1,.34-.18.94.94,0,0,1,.37-.07,1.68,1.68,0,0,1,.84.2,1.29,1.29,0,0,1,.53.6,2.07,2.07,0,0,1,.19.94V614a2.25,2.25,0,0,1-.19.94,1.31,1.31,0,0,1-.55.59,1.69,1.69,0,0,1-.86.21A1.74,1.74,0,0,1,585,615.58Z"/><path class="i" d="M589,615.32a1.65,1.65,0,0,1-.41-1.19v-2.58a1.67,1.67,0,0,1,.41-1.19,2,2,0,0,1,2.42,0,1.65,1.65,0,0,1,.41,1.19v2.58a1.64,1.64,0,0,1-.41,1.19,1.92,1.92,0,0,1-2.42,0Zm1.83-.55a.89.89,0,0,0,.2-.64v-2.58a.88.88,0,0,0-.2-.63.78.78,0,0,0-.62-.22.82.82,0,0,0-.63.22.93.93,0,0,0-.2.63v2.58a.9.9,0,0,0,.21.64,1,1,0,0,0,1.24,0Z"/><path class="i" d="M593.22,615.32a1.65,1.65,0,0,1-.41-1.19v-2.58a1.67,1.67,0,0,1,.41-1.19,2,2,0,0,1,2.42,0,1.61,1.61,0,0,1,.41,1.19v2.58a1.64,1.64,0,0,1-.41,1.19,1.92,1.92,0,0,1-2.42,0Zm1.83-.55a.9.9,0,0,0,.21-.64v-2.58a.93.93,0,0,0-.2-.63.82.82,0,0,0-.63-.22.78.78,0,0,0-.62.22.88.88,0,0,0-.2.63v2.58a.89.89,0,0,0,.2.64,1,1,0,0,0,1.24,0Z"/><path class="i" d="M600.1,615.54a1.45,1.45,0,0,1-.6-.6,2,2,0,0,1-.21-1v-.67a2,2,0,0,1,.21-.94,1.45,1.45,0,0,1,.6-.6,2,2,0,0,1,.95-.2,2.22,2.22,0,0,1,.59.07,2,2,0,0,1,.51.22,1.76,1.76,0,0,1,.37.35l-.58.52a1.17,1.17,0,0,0-.4-.3,1.13,1.13,0,0,0-.48-.11.94.94,0,0,0-.71.26,1,1,0,0,0-.26.73V614a1.07,1.07,0,0,0,.25.74,1,1,0,0,0,.72.26,1.13,1.13,0,0,0,.48-.11,1.26,1.26,0,0,0,.4-.32l.58.55a1.42,1.42,0,0,1-.38.35,1.88,1.88,0,0,1-.5.21,2.27,2.27,0,0,1-.59.08A2,2,0,0,1,600.1,615.54Z"/><path class="i" d="M603.4,611.63h.79v4.06h-.79Zm2.42,1.6a1,1,0,0,0-.21-.66.75.75,0,0,0-.6-.24.81.81,0,0,0-.6.21.75.75,0,0,0-.22.58l-.08-.78a1.5,1.5,0,0,1,.49-.56,1.15,1.15,0,0,1,.67-.2,1.32,1.32,0,0,1,.73.19,1.28,1.28,0,0,1,.46.56,2.42,2.42,0,0,1,.15.9v2.46h-.79Zm2.42,0a.91.91,0,0,0-.22-.66.82.82,0,0,0-.63-.24.72.72,0,0,0-.57.23.9.9,0,0,0-.21.64l-.16-.78a1.51,1.51,0,0,1,.51-.62,1.16,1.16,0,0,1,.69-.22,1.37,1.37,0,0,1,.75.19,1.18,1.18,0,0,1,.47.56,2.22,2.22,0,0,1,.17.9v2.46h-.8Z"/><path class="g" d="M23.49,613.89A12.92,12.92,0,1,1,36.4,601,12.93,12.93,0,0,1,23.49,613.89Zm0-24.83A11.92,11.92,0,1,0,35.4,601,11.93,11.93,0,0,0,23.49,589.06Z"/><polygon class="h" points="35.77 588.74 9.42 600.98 35.77 613.21 32.02 600.98 35.77 588.74"/><path class="g" d="M36.58,614.14,8.23,601l28.35-13.17-4,13.17ZM10.61,601,35,612.29,31.5,601,35,589.66Z"/><path class="g" d="M2.52,605.19a5,5,0,0,1-1.11-.38,4.4,4.4,0,0,1-1-.64l.81-1a3.72,3.72,0,0,0,1.16.69,4.08,4.08,0,0,0,1.38.23,2.73,2.73,0,0,0,1.55-.38,1.17,1.17,0,0,0,.55-1.05h0a1.12,1.12,0,0,0-.25-.77,1.44,1.44,0,0,0-.64-.42,8.23,8.23,0,0,0-1-.25H3.89l-.1,0a9.48,9.48,0,0,1-1.5-.36,2.08,2.08,0,0,1-1-.73,2.42,2.42,0,0,1-.41-1.51h0a2.77,2.77,0,0,1,.38-1.47,2.44,2.44,0,0,1,1.12-.92,4.48,4.48,0,0,1,1.77-.32,4.6,4.6,0,0,1,1,.11,4.9,4.9,0,0,1,1.86.86l-.73,1a4.61,4.61,0,0,0-1-.58,3,3,0,0,0-1.06-.2,2.44,2.44,0,0,0-1.46.38,1.24,1.24,0,0,0-.53,1.07h0a1,1,0,0,0,.27.75,1.74,1.74,0,0,0,.67.4,9.3,9.3,0,0,0,1.12.27h.24a7.93,7.93,0,0,1,1.4.41,2.22,2.22,0,0,1,.94.76,2.4,2.4,0,0,1,.38,1.43h0a2.62,2.62,0,0,1-.4,1.45,2.54,2.54,0,0,1-1.16.91,4.8,4.8,0,0,1-1.83.31A6.44,6.44,0,0,1,2.52,605.19Z"/><rect class="g" x="612.5" y="600.68" width="1" height="4.68"/><rect class="g" x="612.5" y="590.76" width="1" height="4.68"/><rect class="g" x="612.5" y="611.45" width="1" height="5.24"/><rect class="g" x="789.58" y="611.45" width="1" height="5.24"/><rect class="g" x="682.59" y="600.68" width="1" height="4.68"/><rect class="g" x="647.3" y="590.76" width="1" height="4.68"/><rect class="a" width="790.34" height="618.13"/><path class="j" d="M198.78,220.17v0Z"/><polygon class="k" points="198.78 187.38 284.53 187.38 198.78 187.38 198.78 217.8 198.78 187.38"/><line class="l" x1="200.82" y1="376.67" x2="198.78" y2="376.67"/><line class="l" x1="203.54" y1="376.67" x2="203.54" y2="427.37"/><line class="l" x1="307.67" y1="376.67" x2="203.54" y2="376.67"/><line class="l" x1="307.67" y1="373.29" x2="307.67" y2="376.67"/><line class="l" x1="338.29" y1="373.29" x2="307.67" y2="373.29"/><line class="l" x1="338.29" y1="376.67" x2="338.29" y2="373.29"/><line class="l" x1="392.74" y1="376.67" x2="338.29" y2="376.67"/><line class="l" x1="392.74" y1="373.29" x2="392.74" y2="376.67"/><line class="l" x1="423.36" y1="373.29" x2="392.74" y2="373.29"/><line class="l" x1="423.36" y1="376.67" x2="423.36" y2="373.29"/><line class="l" x1="518.64" y1="376.67" x2="423.36" y2="376.67"/><line class="l" x1="518.64" y1="427.37" x2="518.64" y2="376.66"/><line class="l" x1="203.54" y1="427.37" x2="518.64" y2="427.37"/><polygon class="h" points="491.08 260.73 491.08 216.11 404.65 216.11 404.65 195.49 511.84 195.49 511.84 215.77 511.84 260.73 491.08 260.73"/><line class="l" x1="511.84" y1="195.49" x2="404.65" y2="195.49"/><line class="l" x1="511.84" y1="215.77" x2="511.84" y2="195.49"/><line class="l" x1="511.84" y1="260.73" x2="511.84" y2="215.77"/><line class="l" x1="491.08" y1="260.73" x2="511.84" y2="260.73"/><line class="l" x1="491.08" y1="216.11" x2="491.08" y2="260.73"/><line class="l" x1="404.65" y1="216.11" x2="491.08" y2="216.11"/><line class="l" x1="404.65" y1="195.49" x2="404.65" y2="216.11"/><path class="h" d="M198.78,274.92v0Z"/><line class="l" x1="198.78" y1="274.92" x2="198.78" y2="274.92"/><line class="l" x1="198.78" y1="356.38" x2="198.78" y2="274.92"/><line class="l" x1="198.78" y1="356.38" x2="198.78" y2="356.38"/><rect class="h" x="206.94" y="200.56" width="27.39" height="59.15"/><line class="l" x1="206.95" y1="200.56" x2="206.95" y2="259.71"/><line class="l" x1="234.34" y1="200.56" x2="206.95" y2="200.56"/><line class="l" x1="234.34" y1="259.71" x2="234.34" y2="200.56"/><line class="l" x1="206.95" y1="259.71" x2="234.34" y2="259.71"/><rect class="h" x="514.22" y="215.77" width="11.23" height="42.25"/><line class="l" x1="514.22" y1="215.77" x2="514.22" y2="258.02"/><line class="l" x1="525.45" y1="215.77" x2="514.22" y2="215.77"/><line class="l" x1="525.45" y1="258.02" x2="525.45" y2="215.77"/><line class="l" x1="514.22" y1="258.02" x2="525.45" y2="258.02"/><rect class="h" x="514.22" y="288.44" width="11.91" height="67.62"/><line class="l" x1="514.22" y1="288.44" x2="514.22" y2="356.06"/><line class="l" x1="526.13" y1="288.44" x2="514.22" y2="288.44"/><line class="l" x1="526.13" y1="356.06" x2="526.13" y2="288.44"/><line class="l" x1="514.22" y1="356.06" x2="526.13" y2="356.06"/><rect class="h" x="366.54" y="195.49" width="20.42" height="21.97"/><line class="l" x1="366.54" y1="195.49" x2="366.54" y2="217.46"/><line class="l" x1="386.95" y1="195.49" x2="366.54" y2="195.49"/><line class="l" x1="386.95" y1="217.46" x2="386.95" y2="195.49"/><line class="l" x1="366.54" y1="217.46" x2="386.95" y2="217.46"/><line class="l" x1="198.78" y1="187.38" x2="198.78" y2="187.38"/><line class="l" x1="288.78" y1="187.38" x2="288.78" y2="187.38"/><line class="l" x1="198.78" y1="187.38" x2="288.78" y2="187.38"/><polygon points="583.29 376.67 583.29 187.38 591.8 187.38 591.8 195.83 591.8 376.67 583.29 376.67"/><rect x="338.29" y="369.91" width="54.45" height="6.76"/><rect x="491.42" y="369.91" width="37.43" height="6.76"/><polygon points="578.19 376.67 559.48 376.67 559.48 369.9 583.3 369.9 583.3 376.67 578.19 376.67"/><rect x="198.78" y="369.91" width="40.83" height="6.76"/><rect x="561.18" y="363.15" width="22.12" height="6.76"/><rect x="493.12" y="363.15" width="34.03" height="6.76"/><rect x="340" y="363.15" width="51.04" height="6.76"/><rect x="198.78" y="363.15" width="39.13" height="6.76"/><path d="M198.78,217.8v0Z"/><polygon points="206.94 262.08 206.94 259.71 298.48 259.71 298.48 251.26 300.86 251.26 300.86 259.71 307.67 259.71 307.67 262.08 206.94 262.08"/><rect x="386.95" y="195.49" width="2.38" height="25.35"/><polygon points="372.32 363.14 372.32 262.08 338.29 262.08 338.29 259.71 386.95 259.71 386.95 251.26 389.33 251.26 389.33 262.08 374.7 262.08 374.7 363.14 372.32 363.14"/><polygon points="198.78 363.15 198.78 187.38 284.53 187.38 292.7 187.38 328.09 187.38 328.09 195.49 206.95 195.49 206.95 363.15 198.78 363.15"/><rect x="365.52" y="187.38" width="217.78" height="8.11"/><polygon points="363.81 191.27 363.81 187.38 365.18 187.38 365.52 187.38 365.52 191.27 363.81 191.27"/><rect x="328.09" y="187.38" width="1.7" height="3.89"/><rect x="511.84" y="287.43" width="2.38" height="75.72"/><rect x="559.48" y="258.02" width="23.82" height="2.37"/><polygon points="511.84 260.39 511.84 195.49 514.22 195.49 514.22 258.02 528.85 258.02 528.85 260.39 511.84 260.39"/><polygon points="298.48 224.22 298.48 195.49 300.86 195.49 300.86 210.7 300.86 214.08 300.86 224.22 298.48 224.22"/><polygon points="300.86 214.08 300.86 210.7 324.68 210.7 324.68 195.49 328.08 195.49 328.08 214.08 300.86 214.08"/><polygon points="389.34 215.77 389.34 212.39 401.25 212.39 401.25 195.49 404.65 195.49 404.65 215.77 389.34 215.77"/><path d="M200.82,376.66h0Zm1.36,0h1.36v50.71h-1.36Z"/><line class="l" x1="198.78" y1="376.67" x2="239.61" y2="376.67"/><line class="l" x1="338.29" y1="376.67" x2="392.74" y2="376.67"/><line class="l" x1="491.42" y1="376.67" x2="528.85" y2="376.67"/><line class="l" x1="559.48" y1="376.67" x2="578.19" y2="376.67"/><line class="l" x1="198.78" y1="363.15" x2="198.78" y2="363.15"/><line class="l" x1="206.95" y1="363.15" x2="237.91" y2="363.15"/><line class="l" x1="374.7" y1="363.15" x2="391.04" y2="363.15"/><line class="l" x1="493.12" y1="363.15" x2="511.84" y2="363.15"/><line class="l" x1="514.22" y1="363.15" x2="527.15" y2="363.15"/><line class="l" x1="561.18" y1="363.15" x2="583.3" y2="363.15"/><line class="l" x1="340" y1="363.15" x2="340" y2="369.91"/><line class="l" x1="391.04" y1="363.15" x2="391.04" y2="369.91"/><line class="l" x1="493.12" y1="363.15" x2="493.12" y2="369.91"/><line class="l" x1="340" y1="363.15" x2="372.32" y2="363.15"/><line class="l" x1="527.15" y1="363.15" x2="527.15" y2="369.91"/><line class="l" x1="561.18" y1="363.15" x2="561.18" y2="369.91"/><line class="l" x1="203.54" y1="376.67" x2="203.54" y2="427.37"/><line class="l" x1="202.18" y1="427.37" x2="203.54" y2="427.37"/><line class="l" x1="392.74" y1="369.91" x2="392.74" y2="376.67"/><line class="l" x1="391.04" y1="369.91" x2="392.74" y2="369.91"/><line class="l" x1="528.85" y1="369.91" x2="528.85" y2="376.67"/><line class="l" x1="527.15" y1="369.91" x2="528.85" y2="369.91"/><line class="l" x1="338.29" y1="369.91" x2="338.29" y2="376.67"/><line class="l" x1="338.29" y1="369.91" x2="339.99" y2="369.91"/><line class="l" x1="491.42" y1="369.91" x2="491.42" y2="376.67"/><line class="l" x1="491.42" y1="369.91" x2="493.12" y2="369.91"/><line class="l" x1="559.48" y1="369.91" x2="559.48" y2="376.67"/><line class="l" x1="559.48" y1="369.91" x2="561.18" y2="369.91"/><line class="l" x1="237.91" y1="363.15" x2="237.91" y2="369.91"/><line class="l" x1="239.61" y1="369.91" x2="239.61" y2="376.67"/><line class="l" x1="239.61" y1="369.91" x2="237.91" y2="369.91"/><line class="l" x1="583.3" y1="363.15" x2="583.3" y2="260.39"/><line class="l" x1="583.3" y1="258.02" x2="583.3" y2="195.49"/><line class="l" x1="202.18" y1="427.37" x2="518.64" y2="427.37"/><line class="l" x1="518.64" y1="376.67" x2="518.64" y2="427.37"/><line class="l" x1="528.85" y1="376.67" x2="559.48" y2="376.67"/><line class="l" x1="527.15" y1="363.15" x2="561.18" y2="363.15"/><line class="l" x1="491.42" y1="376.67" x2="423.36" y2="376.67"/><line class="l" x1="493.12" y1="363.15" x2="425.07" y2="363.15"/><line class="l" x1="425.07" y1="363.15" x2="425.07" y2="369.91"/><line class="l" x1="425.07" y1="363.15" x2="391.04" y2="363.15"/><line class="l" x1="423.36" y1="369.91" x2="423.36" y2="376.67"/><line class="l" x1="423.36" y1="373.29" x2="392.74" y2="373.29"/><line class="l" x1="422.34" y1="369.23" x2="422.34" y2="369.9"/><line class="l" x1="422.34" y1="369.91" x2="425.07" y2="369.91"/><line class="l" x1="425.07" y1="369.91" x2="425.07" y2="367.2"/><line class="l" x1="425.07" y1="367.2" x2="423.7" y2="367.2"/><line class="l" x1="423.7" y1="366.52" x2="420.98" y2="366.52"/><line class="l" x1="420.98" y1="366.52" x2="420.98" y2="369.23"/><line class="l" x1="420.98" y1="369.23" x2="423.7" y2="369.23"/><line class="l" x1="423.7" y1="369.23" x2="423.7" y2="366.52"/><line class="l" x1="392.4" y1="366.52" x2="395.12" y2="366.52"/><line class="l" x1="395.12" y1="366.52" x2="395.12" y2="369.23"/><line class="l" x1="395.12" y1="369.23" x2="392.4" y2="369.23"/><line class="l" x1="392.4" y1="369.23" x2="392.4" y2="366.52"/><line class="l" x1="420.98" y1="366.52" x2="395.12" y2="366.52"/><line class="l" x1="395.12" y1="369.23" x2="420.98" y2="369.23"/><line class="l" x1="420.98" y1="367.88" x2="395.12" y2="367.88"/><line class="l" x1="393.76" y1="369.23" x2="393.76" y2="369.9"/><line class="l" x1="393.76" y1="369.91" x2="391.04" y2="369.91"/><line class="l" x1="391.04" y1="369.91" x2="391.04" y2="367.2"/><line class="l" x1="391.04" y1="367.2" x2="392.4" y2="367.2"/><line class="l" x1="490.4" y1="369.23" x2="490.4" y2="369.9"/><line class="l" x1="490.4" y1="369.91" x2="493.12" y2="369.91"/><line class="l" x1="493.12" y1="369.91" x2="493.12" y2="367.2"/><line class="l" x1="493.12" y1="367.2" x2="491.76" y2="367.2"/><line class="l" x1="491.76" y1="366.52" x2="489.04" y2="366.52"/><line class="l" x1="489.04" y1="366.52" x2="489.04" y2="369.23"/><line class="l" x1="489.04" y1="369.23" x2="491.76" y2="369.23"/><line class="l" x1="491.76" y1="369.23" x2="491.76" y2="366.52"/><line class="l" x1="460.45" y1="369.23" x2="460.45" y2="369.9"/><line class="l" x1="460.45" y1="369.91" x2="457.73" y2="369.91"/><line class="l" x1="457.73" y1="369.91" x2="457.73" y2="367.2"/><line class="l" x1="457.73" y1="367.2" x2="459.09" y2="367.2"/><line class="l" x1="459.09" y1="366.52" x2="461.82" y2="366.52"/><line class="l" x1="461.82" y1="366.52" x2="461.82" y2="369.23"/><line class="l" x1="461.82" y1="369.23" x2="459.09" y2="369.23"/><line class="l" x1="459.09" y1="369.23" x2="459.09" y2="366.52"/><line class="l" x1="489.04" y1="366.52" x2="461.82" y2="366.52"/><line class="l" x1="461.82" y1="369.23" x2="489.04" y2="369.23"/><line class="l" x1="489.04" y1="367.88" x2="461.82" y2="367.88"/><line class="l" x1="558.46" y1="369.23" x2="558.46" y2="369.9"/><line class="l" x1="558.46" y1="369.91" x2="561.18" y2="369.91"/><line class="l" x1="561.18" y1="369.91" x2="561.18" y2="367.2"/><line class="l" x1="561.18" y1="367.2" x2="559.82" y2="367.2"/><line class="l" x1="559.82" y1="366.52" x2="557.09" y2="366.52"/><line class="l" x1="557.09" y1="366.52" x2="557.09" y2="369.23"/><line class="l" x1="557.09" y1="369.23" x2="559.82" y2="369.23"/><line class="l" x1="559.82" y1="369.23" x2="559.82" y2="366.52"/><line class="l" x1="529.87" y1="369.23" x2="529.87" y2="369.9"/><line class="l" x1="529.87" y1="369.91" x2="527.15" y2="369.91"/><line class="l" x1="527.15" y1="369.91" x2="527.15" y2="367.2"/><line class="l" x1="527.15" y1="367.2" x2="528.51" y2="367.2"/><line class="l" x1="528.51" y1="366.52" x2="531.23" y2="366.52"/><line class="l" x1="531.23" y1="366.52" x2="531.23" y2="369.23"/><line class="l" x1="531.23" y1="369.23" x2="528.51" y2="369.23"/><line class="l" x1="528.51" y1="369.23" x2="528.51" y2="366.52"/><line class="l" x1="557.09" y1="366.52" x2="531.23" y2="366.52"/><line class="l" x1="531.23" y1="369.23" x2="557.09" y2="369.23"/><line class="l" x1="557.09" y1="367.88" x2="531.23" y2="367.88"/><line class="l" x1="425.07" y1="367.2" x2="427.79" y2="367.2"/><line class="l" x1="427.79" y1="367.2" x2="427.79" y2="369.91"/><line class="l" x1="427.79" y1="369.91" x2="425.06" y2="369.91"/><line class="l" x1="425.07" y1="369.91" x2="425.07" y2="367.2"/><line class="l" x1="427.79" y1="367.2" x2="457.73" y2="367.2"/><line class="l" x1="427.79" y1="368.55" x2="457.73" y2="368.55"/><line class="l" x1="427.79" y1="369.91" x2="457.73" y2="369.91"/><line class="l" x1="239.61" y1="376.67" x2="307.67" y2="376.67"/><line class="l" x1="237.91" y1="363.15" x2="305.97" y2="363.15"/><line class="l" x1="305.97" y1="363.15" x2="305.97" y2="369.91"/><line class="l" x1="305.97" y1="363.15" x2="339.99" y2="363.15"/><line class="l" x1="307.67" y1="369.91" x2="307.67" y2="376.67"/><line class="l" x1="307.67" y1="373.29" x2="338.29" y2="373.29"/><line class="l" x1="308.69" y1="369.23" x2="308.69" y2="369.9"/><line class="l" x1="308.69" y1="369.91" x2="305.97" y2="369.91"/><line class="l" x1="305.97" y1="369.91" x2="305.97" y2="367.2"/><line class="l" x1="305.97" y1="367.2" x2="307.33" y2="367.2"/><line class="l" x1="307.33" y1="366.52" x2="310.05" y2="366.52"/><line class="l" x1="310.05" y1="366.52" x2="310.05" y2="369.23"/><line class="l" x1="310.05" y1="369.23" x2="307.33" y2="369.23"/><line class="l" x1="307.33" y1="369.23" x2="307.33" y2="366.52"/><line class="l" x1="338.63" y1="366.52" x2="335.91" y2="366.52"/><line class="l" x1="335.91" y1="366.52" x2="335.91" y2="369.23"/><line class="l" x1="335.91" y1="369.23" x2="338.63" y2="369.23"/><line class="l" x1="338.63" y1="369.23" x2="338.63" y2="366.52"/><line class="l" x1="310.05" y1="366.52" x2="335.91" y2="366.52"/><line class="l" x1="335.91" y1="369.23" x2="310.05" y2="369.23"/><line class="l" x1="310.05" y1="367.88" x2="335.91" y2="367.88"/><line class="l" x1="337.27" y1="369.23" x2="337.27" y2="369.9"/><line class="l" x1="337.27" y1="369.91" x2="340" y2="369.91"/><line class="l" x1="340" y1="369.91" x2="340" y2="367.2"/><line class="l" x1="340" y1="367.2" x2="338.63" y2="367.2"/><line class="l" x1="240.63" y1="369.23" x2="240.63" y2="369.9"/><line class="l" x1="240.63" y1="369.91" x2="237.91" y2="369.91"/><line class="l" x1="237.91" y1="369.91" x2="237.91" y2="367.2"/><line class="l" x1="237.91" y1="367.2" x2="239.27" y2="367.2"/><line class="l" x1="239.27" y1="366.52" x2="242" y2="366.52"/><line class="l" x1="242" y1="366.52" x2="242" y2="369.23"/><line class="l" x1="242" y1="369.23" x2="239.27" y2="369.23"/><line class="l" x1="239.27" y1="369.23" x2="239.27" y2="366.52"/><line class="l" x1="270.58" y1="369.23" x2="270.58" y2="369.9"/><line class="l" x1="270.58" y1="369.91" x2="273.3" y2="369.91"/><line class="l" x1="273.3" y1="369.91" x2="273.3" y2="367.2"/><line class="l" x1="273.3" y1="367.2" x2="271.94" y2="367.2"/><line class="l" x1="271.94" y1="366.52" x2="269.22" y2="366.52"/><line class="l" x1="269.22" y1="366.52" x2="269.22" y2="369.23"/><line class="l" x1="269.22" y1="369.23" x2="271.94" y2="369.23"/><line class="l" x1="271.94" y1="369.23" x2="271.94" y2="366.52"/><line class="l" x1="242" y1="366.52" x2="269.22" y2="366.52"/><line class="l" x1="269.22" y1="369.23" x2="242" y2="369.23"/><line class="l" x1="242" y1="367.88" x2="269.22" y2="367.88"/><line class="l" x1="305.97" y1="367.2" x2="303.24" y2="367.2"/><line class="l" x1="303.25" y1="367.2" x2="303.25" y2="369.91"/><line class="l" x1="303.25" y1="369.91" x2="305.97" y2="369.91"/><line class="l" x1="305.97" y1="369.91" x2="305.97" y2="367.2"/><line class="l" x1="303.25" y1="367.2" x2="273.3" y2="367.2"/><line class="l" x1="303.25" y1="368.55" x2="273.3" y2="368.55"/><line class="l" x1="303.25" y1="369.91" x2="273.3" y2="369.91"/><line class="l" x1="198.78" y1="220.17" x2="198.78" y2="220.17"/><line class="l" x1="206.95" y1="195.49" x2="298.48" y2="195.49"/><line class="l" x1="365.52" y1="195.49" x2="386.95" y2="195.49"/><line class="l" x1="404.65" y1="195.49" x2="511.84" y2="195.49"/><line class="l" x1="514.22" y1="195.49" x2="583.3" y2="195.49"/><line class="l" x1="198.78" y1="187.38" x2="284.53" y2="187.38"/><line class="l" x1="292.7" y1="187.38" x2="328.09" y2="187.38"/><line class="l" x1="206.95" y1="363.15" x2="206.95" y2="262.08"/><line class="l" x1="206.95" y1="259.71" x2="206.95" y2="195.49"/><line class="l" x1="298.48" y1="224.22" x2="298.48" y2="195.49"/><line class="l" x1="300.86" y1="224.22" x2="300.86" y2="214.08"/><line class="l" x1="198.78" y1="363.15" x2="198.78" y2="220.17"/><line class="l" x1="198.78" y1="217.8" x2="198.78" y2="187.38"/><line class="l" x1="198.78" y1="217.8" x2="198.78" y2="217.8"/><line class="l" x1="389.34" y1="262.08" x2="389.34" y2="251.26"/><line class="l" x1="389.34" y1="220.84" x2="389.34" y2="215.77"/><line class="l" x1="300.86" y1="251.26" x2="300.86" y2="259.71"/><line class="l" x1="300.86" y1="259.71" x2="307.67" y2="259.71"/><line class="l" x1="338.29" y1="259.71" x2="386.95" y2="259.71"/><line class="l" x1="386.95" y1="259.71" x2="386.95" y2="251.26"/><line class="l" x1="386.95" y1="220.84" x2="386.95" y2="195.49"/><line class="l" x1="328.09" y1="214.08" x2="300.86" y2="214.08"/><line class="l" x1="404.65" y1="195.49" x2="404.65" y2="215.77"/><line class="l" x1="404.65" y1="215.77" x2="389.34" y2="215.77"/><line class="l" x1="298.48" y1="224.22" x2="300.86" y2="224.22"/><line class="l" x1="298.48" y1="251.26" x2="300.86" y2="251.26"/><line class="l" x1="338.29" y1="259.71" x2="338.29" y2="262.08"/><line class="l" x1="307.67" y1="259.71" x2="307.67" y2="262.08"/><line class="l" x1="328.09" y1="187.38" x2="329.79" y2="187.38"/><line class="l" x1="329.79" y1="191.27" x2="329.79" y2="187.38"/><line class="l" x1="363.81" y1="191.27" x2="363.81" y2="187.38"/><line class="l" x1="329.79" y1="191.27" x2="328.09" y2="191.27"/><line class="l" x1="328.09" y1="191.27" x2="328.09" y2="195.49"/><line class="l" x1="363.81" y1="191.27" x2="365.52" y2="191.27"/><line class="l" x1="365.52" y1="191.27" x2="365.52" y2="195.49"/><line class="l" x1="284.53" y1="187.38" x2="284.53" y2="187.38"/><line class="l" x1="292.7" y1="187.38" x2="292.7" y2="187.38"/><line class="l" x1="338.29" y1="262.08" x2="372.32" y2="262.08"/><line class="l" x1="374.7" y1="262.08" x2="389.34" y2="262.08"/><line class="l" x1="386.95" y1="251.26" x2="389.34" y2="251.26"/><line class="l" x1="386.95" y1="220.84" x2="389.34" y2="220.84"/><line class="l" x1="324.68" y1="195.49" x2="328.09" y2="195.49"/><line class="l" x1="528.85" y1="260.39" x2="511.84" y2="260.39"/><line class="l" x1="511.84" y1="260.39" x2="511.84" y2="195.49"/><line class="l" x1="528.85" y1="258.02" x2="514.22" y2="258.02"/><line class="l" x1="514.22" y1="258.02" x2="514.22" y2="195.49"/><line class="l" x1="511.84" y1="363.15" x2="511.84" y2="287.43"/><line class="l" x1="514.22" y1="363.15" x2="514.22" y2="287.43"/><line class="l" x1="528.85" y1="258.02" x2="528.85" y2="260.39"/><line class="l" x1="559.48" y1="258.02" x2="559.48" y2="260.39"/><line class="l" x1="362.11" y1="187.38" x2="365.18" y2="187.38"/><line class="l" x1="365.18" y1="187.38" x2="591.8" y2="187.38"/><line class="l" x1="392.4" y1="366.52" x2="392.4" y2="335.43"/><g class="m"><path class="l" d="M392.4,335.43a31.19,31.19,0,0,1,31.3,31.09"/></g><line class="l" x1="338.63" y1="366.52" x2="338.63" y2="335.43"/><g class="m"><path class="l" d="M307.33,366.52a31.2,31.2,0,0,1,31.3-31.09"/></g><line class="l" x1="336.59" y1="262.08" x2="309.37" y2="262.08"/><line class="l" x1="336.59" y1="262.08" x2="336.59" y2="289.12"/><g class="m"><path class="l" d="M336.59,289.12a27.13,27.13,0,0,1-27.22-27"/></g><line class="l" x1="336.59" y1="259.71" x2="336.59" y2="262.08"/><line class="l" x1="309.37" y1="262.08" x2="309.37" y2="259.71"/><line class="l" x1="309.37" y1="262.08" x2="307.67" y2="262.08"/><line class="l" x1="309.37" y1="259.71" x2="307.67" y2="259.71"/><line class="l" x1="338.29" y1="262.08" x2="336.59" y2="262.08"/><line class="l" x1="338.29" y1="259.71" x2="336.59" y2="259.71"/><line class="l" x1="336.59" y1="259.71" x2="329.79" y2="259.71"/><line class="l" x1="326.04" y1="259.71" x2="325.28" y2="259.71"/><line class="l" x1="321.54" y1="259.71" x2="320.77" y2="259.71"/><line class="l" x1="317.03" y1="259.71" x2="316.18" y2="259.71"/><line class="l" x1="316.18" y1="259.71" x2="309.37" y2="259.71"/><line class="l" x1="336.59" y1="262.08" x2="336.59" y2="262.92"/><line class="l" x1="336.59" y1="262.92" x2="339.99" y2="262.92"/><line class="l" x1="340" y1="262.92" x2="340" y2="262.08"/><line class="l" x1="336.59" y1="259.71" x2="336.59" y2="258.87"/><line class="l" x1="336.59" y1="258.87" x2="339.99" y2="258.87"/><line class="l" x1="340" y1="258.87" x2="340" y2="259.71"/><line class="l" x1="309.37" y1="262.92" x2="305.97" y2="262.92"/><line class="l" x1="305.97" y1="262.92" x2="305.97" y2="262.08"/><line class="l" x1="309.37" y1="259.71" x2="309.37" y2="258.87"/><line class="l" x1="309.37" y1="258.87" x2="305.97" y2="258.87"/><line class="l" x1="305.97" y1="258.87" x2="305.97" y2="259.71"/><line class="l" x1="331.49" y1="191.27" x2="362.11" y2="191.27"/><line class="l" x1="331.49" y1="187.38" x2="362.11" y2="187.38"/><line class="l" x1="331.49" y1="191.27" x2="331.49" y2="221.69"/><g class="m"><path class="l" d="M362.11,191.27a30.52,30.52,0,0,1-30.62,30.42"/></g><line class="l" x1="331.49" y1="187.38" x2="331.49" y2="191.27"/><line class="l" x1="362.11" y1="191.27" x2="362.11" y2="187.38"/><line class="l" x1="362.11" y1="191.27" x2="363.81" y2="191.27"/><line class="l" x1="329.79" y1="191.27" x2="331.49" y2="191.27"/><line class="l" x1="329.79" y1="187.38" x2="331.49" y2="187.38"/><line class="l" x1="374.7" y1="363.15" x2="374.7" y2="262.08"/><line class="l" x1="206.95" y1="262.08" x2="307.67" y2="262.08"/><line class="l" x1="206.95" y1="259.71" x2="298.48" y2="259.71"/><line class="l" x1="298.48" y1="259.71" x2="298.48" y2="251.26"/><line class="l" x1="372.32" y1="262.08" x2="372.32" y2="363.14"/><line class="l" x1="389.34" y1="195.49" x2="401.25" y2="195.49"/><line class="l" x1="401.25" y1="195.49" x2="401.25" y2="212.39"/><line class="l" x1="401.25" y1="212.39" x2="389.34" y2="212.39"/><line class="l" x1="389.34" y1="212.39" x2="389.34" y2="195.49"/><line class="l" x1="300.86" y1="225.91" x2="300.86" y2="249.57"/><line class="l" x1="300.86" y1="225.91" x2="324.68" y2="225.91"/><g class="m"><path class="l" d="M324.68,225.91a23.74,23.74,0,0,1-23.82,23.66"/></g><line class="l" x1="298.48" y1="225.91" x2="300.86" y2="225.91"/><line class="l" x1="300.86" y1="249.57" x2="298.48" y2="249.57"/><line class="l" x1="300.86" y1="249.57" x2="300.86" y2="251.26"/><line class="l" x1="298.48" y1="249.57" x2="298.48" y2="251.26"/><line class="l" x1="300.86" y1="224.22" x2="300.86" y2="225.91"/><line class="l" x1="298.48" y1="224.22" x2="298.48" y2="225.91"/><line class="l" x1="298.48" y1="225.91" x2="298.48" y2="232.67"/><line class="l" x1="298.48" y1="236.39" x2="298.48" y2="237.15"/><line class="l" x1="298.48" y1="240.87" x2="298.48" y2="241.63"/><line class="l" x1="298.48" y1="242.81" x2="298.48" y2="249.57"/><line class="l" x1="300.86" y1="225.91" x2="301.71" y2="225.91"/><line class="l" x1="301.71" y1="225.91" x2="301.71" y2="222.53"/><line class="l" x1="301.71" y1="222.53" x2="300.86" y2="222.53"/><line class="l" x1="298.48" y1="225.91" x2="297.63" y2="225.91"/><line class="l" x1="297.63" y1="225.91" x2="297.63" y2="222.53"/><line class="l" x1="297.63" y1="222.53" x2="298.48" y2="222.53"/><line class="l" x1="301.71" y1="249.57" x2="301.71" y2="252.95"/><line class="l" x1="301.71" y1="252.95" x2="300.86" y2="252.95"/><line class="l" x1="298.48" y1="249.57" x2="297.63" y2="249.57"/><line class="l" x1="297.63" y1="249.57" x2="297.63" y2="252.95"/><line class="l" x1="297.63" y1="252.95" x2="298.48" y2="252.95"/><line class="l" x1="389.34" y1="222.53" x2="389.34" y2="249.57"/><line class="l" x1="389.34" y1="222.53" x2="416.56" y2="222.53"/><g class="m"><path class="l" d="M416.56,222.53a27.13,27.13,0,0,1-27.22,27"/></g><line class="l" x1="386.95" y1="222.53" x2="389.34" y2="222.53"/><line class="l" x1="389.34" y1="249.57" x2="386.95" y2="249.57"/><line class="l" x1="389.34" y1="249.57" x2="389.34" y2="251.26"/><line class="l" x1="386.95" y1="249.57" x2="386.95" y2="251.26"/><line class="l" x1="389.34" y1="220.84" x2="389.34" y2="222.53"/><line class="l" x1="386.95" y1="220.84" x2="386.95" y2="222.53"/><line class="l" x1="386.95" y1="222.53" x2="386.95" y2="229.29"/><line class="l" x1="386.95" y1="233.01" x2="386.95" y2="233.77"/><line class="l" x1="386.95" y1="237.49" x2="386.95" y2="238.25"/><line class="l" x1="386.95" y1="241.97" x2="386.95" y2="242.81"/><line class="l" x1="386.95" y1="242.81" x2="386.95" y2="249.57"/><line class="l" x1="389.34" y1="222.53" x2="390.19" y2="222.53"/><line class="l" x1="390.19" y1="222.53" x2="390.19" y2="219.15"/><line class="l" x1="390.19" y1="219.15" x2="389.34" y2="219.15"/><line class="l" x1="386.95" y1="222.53" x2="386.1" y2="222.53"/><line class="l" x1="386.1" y1="222.53" x2="386.1" y2="219.15"/><line class="l" x1="386.1" y1="219.15" x2="386.95" y2="219.15"/><line class="l" x1="390.19" y1="249.57" x2="390.19" y2="252.95"/><line class="l" x1="390.19" y1="252.95" x2="389.34" y2="252.95"/><line class="l" x1="386.95" y1="249.57" x2="386.1" y2="249.57"/><line class="l" x1="386.1" y1="249.57" x2="386.1" y2="252.95"/><line class="l" x1="386.1" y1="252.95" x2="386.95" y2="252.95"/><line class="l" x1="206.95" y1="200.56" x2="298.48" y2="200.56"/><line class="l" x1="240.12" y1="258.87" x2="240.12" y2="255.49"/><line class="l" x1="240.12" y1="255.49" x2="260.54" y2="255.49"/><line class="l" x1="260.54" y1="255.49" x2="260.54" y2="258.87"/><line class="l" x1="260.54" y1="258.87" x2="259.52" y2="258.87"/><line class="l" x1="259.52" y1="258.87" x2="259.52" y2="256.5"/><line class="l" x1="259.52" y1="256.5" x2="241.14" y2="256.5"/><line class="l" x1="241.14" y1="256.5" x2="241.14" y2="258.87"/><line class="l" x1="241.14" y1="258.87" x2="240.12" y2="258.87"/><line class="l" x1="240.12" y1="258.87" x2="240.12" y2="255.49"/><line class="l" x1="260.54" y1="258.87" x2="260.54" y2="255.49"/><line class="l" x1="241.14" y1="258.87" x2="241.14" y2="256.5"/><line class="l" x1="259.52" y1="258.87" x2="259.52" y2="256.5"/><line class="l" x1="240.12" y1="255.49" x2="260.54" y2="255.49"/><line class="l" x1="240.12" y1="256.5" x2="260.54" y2="256.5"/><line class="l" x1="240.12" y1="258.87" x2="241.14" y2="258.87"/><line class="l" x1="259.52" y1="258.87" x2="260.54" y2="258.87"/><line class="l" x1="231.28" y1="207.91" x2="231.2" y2="207.11"/><line class="l" x1="231.2" y1="207.11" x2="230.97" y2="206.32"/><line class="l" x1="230.97" y1="206.32" x2="230.59" y2="205.59"/><line class="l" x1="230.59" y1="205.59" x2="230.08" y2="204.93"/><line class="l" x1="230.08" y1="204.93" x2="229.45" y2="204.35"/><line class="l" x1="229.45" y1="204.35" x2="228.72" y2="203.89"/><line class="l" x1="228.72" y1="203.89" x2="227.92" y2="203.55"/><line class="l" x1="227.92" y1="203.55" x2="227.06" y2="203.34"/><line class="l" x1="227.06" y1="203.34" x2="226.17" y2="203.27"/><line class="l" x1="226.17" y1="203.27" x2="214.94" y2="203.27"/><line class="l" x1="214.94" y1="203.27" x2="214.06" y2="203.34"/><line class="l" x1="214.06" y1="203.34" x2="213.2" y2="203.55"/><line class="l" x1="213.2" y1="203.55" x2="212.39" y2="203.89"/><line class="l" x1="212.39" y1="203.89" x2="211.66" y2="204.35"/><line class="l" x1="211.66" y1="204.35" x2="211.03" y2="204.93"/><line class="l" x1="211.03" y1="204.93" x2="210.52" y2="205.59"/><line class="l" x1="210.52" y1="205.59" x2="210.15" y2="206.32"/><line class="l" x1="210.15" y1="206.32" x2="209.92" y2="207.11"/><line class="l" x1="209.92" y1="207.11" x2="209.84" y2="207.91"/><line class="l" x1="209.84" y1="207.91" x2="209.84" y2="247.25"/><line class="l" x1="209.84" y1="247.25" x2="210" y2="248.94"/><line class="l" x1="210" y1="248.94" x2="210.49" y2="250.59"/><line class="l" x1="210.48" y1="250.59" x2="211.27" y2="252.13"/><line class="l" x1="211.27" y1="252.13" x2="212.35" y2="253.52"/><line class="l" x1="212.35" y1="253.52" x2="213.67" y2="254.73"/><line class="l" x1="213.67" y1="254.73" x2="215.2" y2="255.7"/><line class="l" x1="215.2" y1="255.7" x2="216.89" y2="256.42"/><line class="l" x1="216.89" y1="256.42" x2="218.7" y2="256.86"/><line class="l" x1="218.7" y1="256.86" x2="220.56" y2="257.01"/><line class="l" x1="220.56" y1="257.01" x2="222.42" y2="256.86"/><line class="l" x1="222.42" y1="256.86" x2="224.22" y2="256.42"/><line class="l" x1="224.22" y1="256.42" x2="225.92" y2="255.7"/><line class="l" x1="225.92" y1="255.7" x2="227.45" y2="254.73"/><line class="l" x1="227.45" y1="254.73" x2="228.77" y2="253.52"/><line class="l" x1="228.77" y1="253.52" x2="229.84" y2="252.13"/><line class="l" x1="229.84" y1="252.13" x2="230.63" y2="250.59"/><line class="l" x1="230.63" y1="250.59" x2="231.11" y2="248.94"/><line class="l" x1="231.11" y1="248.94" x2="231.28" y2="247.25"/><line class="l" x1="231.28" y1="247.25" x2="231.28" y2="207.91"/><g class="m"><path class="l" d="M221.41,209.52a.85.85,0,0,0-1.7,0,.85.85,0,0,0,1.7,0"/></g><line class="l" x1="219.71" y1="202.41" x2="219.84" y2="203.83"/><g class="m"><path class="l" d="M220,204.15a.76.76,0,0,1-.11-.32"/></g><line class="l" x1="219.95" y1="204.15" x2="219.96" y2="204.15"/><line class="l" x1="219.95" y1="204.15" x2="220.18" y2="205.94"/><g class="m"><path class="l" d="M220.93,205.94a.37.37,0,0,1-.37.33.38.38,0,0,1-.38-.33"/></g><line class="l" x1="220.93" y1="205.94" x2="220.94" y2="205.94"/><line class="l" x1="220.93" y1="205.94" x2="221.16" y2="204.15"/><g class="m"><path class="l" d="M221.27,203.83a.76.76,0,0,1-.11.32"/></g><line class="l" x1="221.27" y1="203.83" x2="221.27" y2="203.83"/><line class="l" x1="221.27" y1="203.83" x2="221.41" y2="202.41"/><g class="m"><path class="l" d="M219.71,202.41a.85.85,0,0,1,1.7,0"/></g><line class="l" x1="219.71" y1="202.41" x2="219.71" y2="202.41"/><line class="l" x1="221.02" y1="203.25" x2="221.02" y2="203.75"/><line class="l" x1="220.09" y1="203.75" x2="220.09" y2="203.25"/><line class="l" x1="220.09" y1="203.25" x2="221.02" y2="203.25"/><g class="m"><path class="l" d="M221,203.75a.47.47,0,0,1-.93,0"/><path class="l" d="M221.16,204.15a.72.72,0,0,1-.6.32.74.74,0,0,1-.61-.32"/></g><line class="l" x1="425.41" y1="216.11" x2="425.41" y2="195.83"/><line class="l" x1="417.6" y1="203.58" x2="412.79" y2="208.36"/><line class="l" x1="412.79" y1="203.58" x2="417.6" y2="208.36"/><line class="l" x1="415.2" y1="209.35" x2="415.2" y2="202.59"/><line class="l" x1="418.6" y1="205.97" x2="411.79" y2="205.97"/><line class="l" x1="425.41" y1="216.11" x2="404.99" y2="216.11"/><line class="l" x1="583.3" y1="260.39" x2="559.47" y2="260.39"/><line class="l" x1="583.3" y1="258.02" x2="559.47" y2="258.02"/><line class="l" x1="514.22" y1="287.43" x2="511.84" y2="287.43"/><line class="l" x1="445.99" y1="214.42" x2="427.28" y2="214.42"/><line class="l" x1="427.28" y1="214.42" x2="427.28" y2="197.52"/><line class="l" x1="427.28" y1="197.52" x2="445.99" y2="197.52"/><line class="l" x1="445.99" y1="197.52" x2="445.99" y2="214.42"/><line class="l" x1="446.84" y1="216.11" x2="426.43" y2="216.11"/><line class="l" x1="444.29" y1="212.73" x2="428.98" y2="212.73"/><line class="l" x1="428.98" y1="212.73" x2="428.98" y2="200.9"/><line class="l" x1="428.98" y1="200.9" x2="444.29" y2="200.9"/><line class="l" x1="444.29" y1="200.9" x2="444.29" y2="212.73"/><g class="m"><path class="l" d="M437.31,204.28a.68.68,0,1,0-.68.68.68.68,0,0,0,.68-.68"/><path class="l" d="M381.8,312.34a6.17,6.17,0,1,1,0,12.34"/><path class="l" d="M381.8,324.68a12.3,12.3,0,0,1,0-12.34"/></g><line class="l" x1="385.6" y1="303.09" x2="385.6" y2="333.93"/><line class="l" x1="385.6" y1="333.93" x2="383.51" y2="333.93"/><line class="l" x1="383.51" y1="333.93" x2="381.42" y2="326.22"/><line class="l" x1="381.42" y1="326.22" x2="381.42" y2="310.8"/><line class="l" x1="381.42" y1="310.8" x2="383.51" y2="303.09"/><line class="l" x1="383.51" y1="303.09" x2="385.6" y2="303.09"/><line class="l" x1="384.76" y1="331.87" x2="384.76" y2="329.82"/><line class="l" x1="384.76" y1="329.82" x2="384.24" y2="329.82"/><line class="l" x1="384.24" y1="329.82" x2="384.24" y2="331.87"/><line class="l" x1="384.24" y1="331.87" x2="384.76" y2="331.87"/><line class="l" x1="384.76" y1="329.3" x2="384.76" y2="327.24"/><line class="l" x1="384.76" y1="327.24" x2="384.24" y2="327.24"/><line class="l" x1="384.24" y1="327.24" x2="384.24" y2="329.3"/><line class="l" x1="384.24" y1="329.3" x2="384.76" y2="329.3"/><line class="l" x1="384.76" y1="326.73" x2="384.76" y2="325.7"/><line class="l" x1="384.76" y1="325.7" x2="384.24" y2="325.7"/><line class="l" x1="384.24" y1="325.7" x2="384.24" y2="326.73"/><line class="l" x1="384.24" y1="326.73" x2="384.76" y2="326.73"/><line class="l" x1="383.51" y1="303.09" x2="383.51" y2="333.93"/><line class="l" x1="467.26" y1="195.83" x2="467.26" y2="216.11"/><line class="l" x1="467.26" y1="216.11" x2="446.84" y2="216.11"/><line class="l" x1="446.84" y1="216.11" x2="446.84" y2="195.83"/><g class="m"><path class="l" d="M509.64,243.9a3.34,3.34,0,1,0-3.34,3.32,3.32,3.32,0,0,0,3.34-3.32"/></g><line class="l" x1="511.5" y1="249.07" x2="491.08" y2="249.07"/><line class="l" x1="491.08" y1="249.07" x2="491.08" y2="228.79"/><line class="l" x1="491.08" y1="228.79" x2="511.5" y2="228.79"/><g class="m"><path class="l" d="M499.62,243.9a3.34,3.34,0,1,0-3.34,3.32,3.33,3.33,0,0,0,3.34-3.32"/><path class="l" d="M499.62,234a3.34,3.34,0,1,0-3.34,3.32,3.34,3.34,0,0,0,3.34-3.32"/></g><line class="l" x1="490.15" y1="231.55" x2="490.15" y2="246.3"/><line class="l" x1="467.26" y1="216.11" x2="467.26" y2="195.49"/><line class="l" x1="467.26" y1="195.49" x2="487.68" y2="195.49"/><line class="l" x1="487.68" y1="195.49" x2="487.68" y2="216.11"/><line class="l" x1="487.68" y1="216.11" x2="467.26" y2="216.11"/><g class="m"><path class="l" d="M483.42,206a6,6,0,1,0-5.95,5.92,5.93,5.93,0,0,0,5.95-5.92"/><path class="l" d="M482.4,206a4.94,4.94,0,1,0-4.93,4.9,4.91,4.91,0,0,0,4.93-4.9"/></g><line class="l" x1="404.65" y1="216.11" x2="404.65" y2="195.49"/><line class="l" x1="404.65" y1="195.49" x2="511.84" y2="195.49"/><line class="l" x1="511.84" y1="195.49" x2="511.84" y2="260.73"/><line class="l" x1="511.84" y1="260.73" x2="491.08" y2="260.73"/><line class="l" x1="491.08" y1="260.73" x2="491.08" y2="216.11"/><line class="l" x1="491.08" y1="216.11" x2="404.65" y2="216.11"/><line class="l" x1="328.09" y1="195.49" x2="328.09" y2="214.08"/><line class="l" x1="324.68" y1="195.49" x2="324.68" y2="210.7"/><line class="l" x1="324.68" y1="210.7" x2="300.86" y2="210.7"/><line class="l" x1="300.86" y1="210.7" x2="300.86" y2="195.49"/><line class="l" x1="300.86" y1="195.49" x2="324.68" y2="195.49"/><line class="l" x1="591.8" y1="339.48" x2="591.8" y2="339.48"/><line class="l" x1="486.32" y1="361.45" x2="431.87" y2="361.45"/><line class="l" x1="431.87" y1="361.45" x2="431.87" y2="358.08"/><line class="l" x1="431.87" y1="358.08" x2="486.32" y2="358.08"/><line class="l" x1="486.32" y1="358.08" x2="486.32" y2="361.45"/><g class="m"><path class="l" d="M430.17,359.76a1.7,1.7,0,1,0-1.7,1.69,1.69,1.69,0,0,0,1.7-1.69"/></g><line class="l" x1="560.71" y1="361.45" x2="533.49" y2="361.45"/><line class="l" x1="533.49" y1="361.45" x2="533.49" y2="359.22"/><line class="l" x1="533.49" y1="359.22" x2="560.71" y2="359.22"/><line class="l" x1="560.71" y1="359.22" x2="560.71" y2="361.45"/><g class="m"><path class="l" d="M531.79,360.34a1.7,1.7,0,1,0-1.7,1.69,1.7,1.7,0,0,0,1.7-1.69"/></g><line class="l" x1="282.15" y1="361.45" x2="254.93" y2="361.45"/><line class="l" x1="254.93" y1="361.45" x2="254.93" y2="359.33"/><line class="l" x1="254.93" y1="359.33" x2="282.15" y2="359.33"/><line class="l" x1="282.15" y1="359.33" x2="282.15" y2="361.45"/><g class="m"><path class="l" d="M253.22,360.39a1.7,1.7,0,1,0-1.7,1.69,1.7,1.7,0,0,0,1.7-1.69"/></g><line class="l" x1="423.36" y1="376.67" x2="416.56" y2="376.67"/><line class="l" x1="412.82" y1="376.67" x2="412.05" y2="376.67"/><line class="l" x1="408.31" y1="376.67" x2="407.54" y2="376.67"/><line class="l" x1="403.8" y1="376.67" x2="399.54" y2="376.67"/><line class="l" x1="399.54" y1="376.67" x2="392.74" y2="376.67"/><line class="l" x1="338.29" y1="376.67" x2="331.49" y2="376.67"/><line class="l" x1="327.75" y1="376.67" x2="326.98" y2="376.67"/><line class="l" x1="323.24" y1="376.67" x2="322.47" y2="376.67"/><line class="l" x1="318.73" y1="376.67" x2="314.48" y2="376.67"/><line class="l" x1="314.47" y1="376.67" x2="307.67" y2="376.67"/><line class="l" x1="401.25" y1="212.39" x2="393.05" y2="209"/><line class="l" x1="393.05" y1="209" x2="389.34" y2="195.49"/><line class="l" x1="389.34" y1="195.49" x2="389.34" y2="212.39"/><line class="l" x1="389.34" y1="212.39" x2="401.25" y2="212.39"/><line class="l" x1="324.68" y1="210.7" x2="304.58" y2="207.31"/><line class="l" x1="304.58" y1="207.31" x2="300.86" y2="195.49"/><line class="l" x1="300.86" y1="195.49" x2="300.86" y2="210.7"/><line class="l" x1="300.86" y1="210.7" x2="324.68" y2="210.7"/><rect class="h" x="459.09" y="298.58" width="17.01" height="27.04"/><line class="l" x1="459.09" y1="298.58" x2="459.09" y2="325.63"/><line class="l" x1="476.11" y1="298.58" x2="459.09" y2="298.58"/><line class="l" x1="476.11" y1="325.63" x2="476.11" y2="298.58"/><line class="l" x1="459.09" y1="325.63" x2="476.11" y2="325.63"/><rect class="h" x="206.94" y="195.49" width="91.54" height="5.07"/><line class="l" x1="206.95" y1="195.49" x2="206.95" y2="200.56"/><line class="l" x1="298.48" y1="195.49" x2="206.95" y2="195.49"/><line class="l" x1="298.48" y1="200.56" x2="298.48" y2="195.49"/><line class="l" x1="206.95" y1="200.56" x2="298.48" y2="200.56"/><rect class="h" x="562.88" y="195.49" width="20.42" height="20.28"/><line class="l" x1="562.88" y1="195.49" x2="562.88" y2="215.77"/><line class="l" x1="583.3" y1="195.49" x2="562.88" y2="195.49"/><line class="l" x1="583.3" y1="215.77" x2="583.3" y2="195.49"/><line class="l" x1="562.88" y1="215.77" x2="583.3" y2="215.77"/><rect class="h" x="374.71" y="262.08" width="14.63" height="101.07"/><line class="l" x1="374.7" y1="262.08" x2="374.7" y2="363.14"/><line class="l" x1="389.34" y1="262.08" x2="374.7" y2="262.08"/><line class="l" x1="389.34" y1="363.15" x2="389.34" y2="262.08"/><line class="l" x1="374.7" y1="363.15" x2="389.34" y2="363.15"/><rect class="h" x="240.12" y="256.5" width="1.02" height="2.37"/><line class="l" x1="240.12" y1="258.87" x2="241.14" y2="258.87"/><line class="l" x1="240.12" y1="256.5" x2="240.12" y2="258.87"/><line class="l" x1="241.14" y1="256.5" x2="240.12" y2="256.5"/><line class="l" x1="241.14" y1="258.87" x2="241.14" y2="256.5"/><rect class="h" x="240.12" y="255.49" width="20.42" height="1.01"/><line class="l" x1="260.54" y1="256.5" x2="260.54" y2="255.49"/><line class="l" x1="240.12" y1="256.5" x2="260.54" y2="256.5"/><line class="l" x1="240.12" y1="255.49" x2="240.12" y2="256.5"/><line class="l" x1="260.54" y1="255.49" x2="240.12" y2="255.49"/><rect class="h" x="259.52" y="256.5" width="1.02" height="2.37"/><line class="l" x1="259.52" y1="258.87" x2="260.54" y2="258.87"/><line class="l" x1="259.52" y1="256.5" x2="259.52" y2="258.87"/><line class="l" x1="260.54" y1="256.5" x2="259.52" y2="256.5"/><line class="l" x1="260.54" y1="258.87" x2="260.54" y2="256.5"/><rect class="h" x="341.36" y="254.31" width="45.6" height="5.41"/><line class="l" x1="341.36" y1="254.31" x2="341.36" y2="259.71"/><line class="l" x1="386.95" y1="254.31" x2="341.36" y2="254.31"/><line class="l" x1="386.95" y1="259.71" x2="386.95" y2="254.31"/><line class="l" x1="341.36" y1="259.71" x2="386.95" y2="259.71"/><polygon class="h" points="250.32 361.59 249.82 360.39 250.32 359.2 251.52 358.7 252.72 359.2 253.22 360.39 252.72 361.59 251.52 362.08 250.32 361.59"/><g class="m"><path class="l" d="M253.22,360.39a1.7,1.7,0,0,1-3.4,0"/><path class="l" d="M249.82,360.39a1.7,1.7,0,0,1,3.4,0"/></g><rect class="h" x="254.92" y="359.33" width="27.22" height="2.13"/><line class="l" x1="254.93" y1="361.45" x2="282.15" y2="361.45"/><line class="l" x1="254.93" y1="359.33" x2="254.93" y2="361.45"/><line class="l" x1="282.15" y1="359.33" x2="254.93" y2="359.33"/><line class="l" x1="282.15" y1="361.45" x2="282.15" y2="359.33"/><polygon class="h" points="427.27 360.96 426.77 359.76 427.27 358.57 428.47 358.07 429.67 358.57 430.17 359.76 429.67 360.96 428.47 361.45 427.27 360.96"/><g class="m"><path class="l" d="M430.17,359.76a1.7,1.7,0,0,1-3.4,0"/><path class="l" d="M426.77,359.76a1.7,1.7,0,0,1,3.4,0"/></g><rect class="h" x="431.87" y="358.07" width="54.44" height="3.38"/><line class="l" x1="431.87" y1="361.45" x2="486.32" y2="361.45"/><line class="l" x1="431.87" y1="358.08" x2="431.87" y2="361.45"/><line class="l" x1="486.32" y1="358.08" x2="431.87" y2="358.08"/><line class="l" x1="486.32" y1="361.45" x2="486.32" y2="358.08"/><polygon class="h" points="528.88 361.54 528.39 360.34 528.88 359.15 530.09 358.65 531.29 359.15 531.79 360.34 531.29 361.54 530.09 362.03 528.88 361.54"/><g class="m"><path class="l" d="M531.79,360.34a1.7,1.7,0,0,1-3.4,0"/><path class="l" d="M528.39,360.34a1.7,1.7,0,0,1,3.4,0"/></g><rect class="h" x="533.49" y="359.22" width="27.22" height="2.23"/><line class="l" x1="533.49" y1="361.45" x2="560.71" y2="361.45"/><line class="l" x1="533.49" y1="359.22" x2="533.49" y2="361.45"/><line class="l" x1="560.71" y1="359.22" x2="533.49" y2="359.22"/><line class="l" x1="560.71" y1="361.45" x2="560.71" y2="359.22"/><polygon class="h" points="217.15 343.42 206.95 343.42 206.95 282.58 268.2 282.58 270.8 283.1 273.01 284.56 274.48 286.75 275 289.34 275 336.67 274.48 339.25 273.01 341.44 270.8 342.91 268.2 343.42 217.15 343.42"/><rect class="h" x="206.94" y="270.75" width="10.21" height="11.83"/><rect class="h" x="206.94" y="343.42" width="10.21" height="11.83"/><line class="l" x1="218.26" y1="314.92" x2="215.32" y2="315.73"/><line class="l" x1="218.26" y1="286.53" x2="215.32" y2="287.34"/><line class="l" x1="275" y1="336.66" x2="275" y2="289.34"/><line class="l" x1="268.2" y1="282.58" x2="206.95" y2="282.58"/><line class="l" x1="206.95" y1="282.58" x2="206.95" y2="343.42"/><line class="l" x1="206.95" y1="343.42" x2="268.2" y2="343.42"/><line class="l" x1="206.95" y1="282.58" x2="206.95" y2="270.75"/><line class="l" x1="206.95" y1="270.75" x2="217.15" y2="270.75"/><line class="l" x1="217.15" y1="270.75" x2="217.15" y2="282.58"/><line class="l" x1="217.15" y1="282.58" x2="206.95" y2="282.58"/><line class="l" x1="206.95" y1="355.26" x2="206.95" y2="343.42"/><line class="l" x1="206.95" y1="343.42" x2="217.15" y2="343.42"/><line class="l" x1="217.15" y1="343.42" x2="217.15" y2="355.26"/><line class="l" x1="217.15" y1="355.26" x2="206.95" y2="355.26"/><line class="l" x1="229.59" y1="282.58" x2="229.59" y2="343.42"/><line class="l" x1="234.69" y1="282.58" x2="234.69" y2="343.42"/><g class="m"><path class="l" d="M224.43,310.44a94.32,94.32,0,0,1-.82-12.45,95.72,95.72,0,0,1,.48-9.58"/><path class="l" d="M222.22,286.21h.09a1.81,1.81,0,0,1,1.82,1.81,1.72,1.72,0,0,1,0,.39"/><path class="l" d="M218.26,286.53a14.54,14.54,0,0,1,3.15-.34l.81,0"/><path class="l" d="M210.66,286.34c.82,0,1.64-.06,2.47-.06,1.71,0,3.42.09,5.13.25"/><path class="l" d="M210.17,286.79s0-.05,0-.08a.4.4,0,0,1,.39-.39l.11,0"/><path class="l" d="M210.17,286.79q.56,7.26.56,14.54,0,4.59-.22,9.18"/><path class="l" d="M211.73,311.6a1,1,0,0,1-.3,0,.94.94,0,0,1-.94-.94.65.65,0,0,1,0-.2"/><path class="l" d="M211.73,311.6a46.33,46.33,0,0,1,6.55-.47,47.19,47.19,0,0,1,5.18.29"/><path class="l" d="M224.43,310.44a.59.59,0,0,1,0,.23.78.78,0,0,1-.79.78l-.22,0"/><path class="l" d="M268.2,282.58a6.78,6.78,0,0,1,6.8,6.76"/><path class="l" d="M275,336.66a6.77,6.77,0,0,1-6.8,6.76"/><path class="l" d="M224.43,338.82a94.32,94.32,0,0,1-.82-12.45,95.72,95.72,0,0,1,.48-9.58"/><path class="l" d="M222.22,314.6h.09a1.81,1.81,0,0,1,1.82,1.81,1.72,1.72,0,0,1,0,.39"/><path class="l" d="M218.26,314.92a14.55,14.55,0,0,1,3.15-.35l.81,0"/><path class="l" d="M210.66,314.72c.82,0,1.64-.05,2.47-.05,1.71,0,3.42.08,5.13.25"/><path class="l" d="M210.17,315.17s0-.05,0-.08a.39.39,0,0,1,.39-.38h.11"/><path class="l" d="M210.17,315.17q.56,7.26.56,14.54,0,4.59-.22,9.18"/><path class="l" d="M211.73,340a1,1,0,0,1-.3,0,.94.94,0,0,1-.94-.94.68.68,0,0,1,0-.2"/><path class="l" d="M211.73,340a46.33,46.33,0,0,1,6.55-.47,44.85,44.85,0,0,1,5.18.3"/><path class="l" d="M224.43,338.82a.66.66,0,0,1,0,.23.79.79,0,0,1-.79.79l-.22,0"/></g><polygon class="h" points="381.86 331.86 379.97 324.15 379.97 321.9 378.94 318.32 378.94 314.56 379.97 310.98 379.97 308.74 381.86 301.03 383.75 301.03 383.75 311.56 385.11 313.23 385.84 315.32 385.84 317.56 385.11 319.66 383.75 321.33 383.75 331.86 381.86 331.86"/><line class="l" x1="383.75" y1="331.86" x2="383.75" y2="321.33"/><line class="l" x1="381.86" y1="331.86" x2="383.74" y2="331.86"/><line class="l" x1="379.97" y1="324.15" x2="381.86" y2="331.86"/><line class="l" x1="379.97" y1="321.9" x2="379.97" y2="324.15"/><line class="l" x1="378.94" y1="318.32" x2="379.97" y2="321.9"/><line class="l" x1="378.94" y1="314.57" x2="378.94" y2="318.32"/><line class="l" x1="379.97" y1="310.98" x2="378.94" y2="314.57"/><line class="l" x1="379.97" y1="308.74" x2="379.97" y2="310.98"/><line class="l" x1="381.86" y1="301.03" x2="379.97" y2="308.74"/><line class="l" x1="383.75" y1="301.03" x2="381.86" y2="301.03"/><line class="l" x1="383.75" y1="311.56" x2="383.75" y2="301.03"/><line class="l" x1="385.11" y1="313.23" x2="383.74" y2="311.56"/><line class="l" x1="385.84" y1="315.32" x2="385.11" y2="313.23"/><line class="l" x1="385.84" y1="317.56" x2="385.84" y2="315.32"/><line class="l" x1="385.11" y1="319.66" x2="385.84" y2="317.56"/><line class="l" x1="383.75" y1="321.33" x2="385.11" y2="319.66"/><line class="l" x1="383.75" y1="331.86" x2="383.75" y2="301.03"/><line class="l" x1="379.97" y1="308.74" x2="379.97" y2="324.15"/><line class="l" x1="381.86" y1="331.86" x2="383.74" y2="331.86"/><line class="l" x1="382.99" y1="303.09" x2="382.99" y2="305.14"/><line class="l" x1="382.99" y1="305.14" x2="382.52" y2="305.14"/><line class="l" x1="382.52" y1="305.14" x2="382.52" y2="303.09"/><line class="l" x1="382.52" y1="303.09" x2="382.99" y2="303.09"/><line class="l" x1="382.99" y1="305.66" x2="382.99" y2="307.71"/><line class="l" x1="382.99" y1="307.71" x2="382.52" y2="307.71"/><line class="l" x1="382.52" y1="307.71" x2="382.52" y2="305.66"/><line class="l" x1="382.52" y1="305.66" x2="382.99" y2="305.66"/><line class="l" x1="381.86" y1="331.86" x2="381.86" y2="301.03"/><line class="l" x1="382.52" y1="308.22" x2="382.99" y2="308.22"/><line class="l" x1="382.99" y1="308.22" x2="382.99" y2="309.25"/><line class="l" x1="382.99" y1="309.25" x2="382.52" y2="309.25"/><line class="l" x1="382.52" y1="309.25" x2="382.52" y2="308.22"/><g class="m"><path class="l" d="M383.75,311.56a6.56,6.56,0,0,1,0,9.77"/></g><polygon class="h" points="481.89 356.05 481.44 355.9 481.18 355.53 481.21 355.08 481.21 331.26 481.27 330.58 481.89 330.24 481.4 329.88 481.21 329.33 481.21 294.24 481.4 293.66 481.89 293.27 481.41 293.09 481.21 292.63 481.21 291.66 481.67 290.06 482.91 288.88 484.62 288.44 509.45 288.44 509.94 288.63 510.14 289.09 510.14 355.4 509.94 355.86 509.45 356.05 481.89 356.05"/><polygon class="h" points="459.09 356.05 456.49 355.56 454.28 354.16 452.8 352.07 452.29 349.61 452.29 336.73 452.8 334.27 454.28 332.18 456.49 330.78 459.09 330.29 480.19 330.29 480.91 330.58 481.21 331.26 481.21 355.08 480.91 355.76 480.19 356.05 459.09 356.05"/><line class="l" x1="480.19" y1="330.29" x2="459.09" y2="330.29"/><line class="l" x1="480.91" y1="330.58" x2="480.19" y2="330.29"/><line class="l" x1="481.21" y1="331.26" x2="480.91" y2="330.58"/><line class="l" x1="481.21" y1="355.08" x2="481.21" y2="331.26"/><line class="l" x1="480.91" y1="355.77" x2="481.21" y2="355.08"/><line class="l" x1="480.19" y1="356.05" x2="480.91" y2="355.77"/><line class="l" x1="459.09" y1="356.05" x2="480.19" y2="356.05"/><line class="l" x1="456.49" y1="355.56" x2="459.09" y2="356.05"/><line class="l" x1="454.28" y1="354.16" x2="456.49" y2="355.56"/><line class="l" x1="452.8" y1="352.07" x2="454.28" y2="354.16"/><line class="l" x1="452.29" y1="349.61" x2="452.8" y2="352.07"/><line class="l" x1="452.29" y1="336.73" x2="452.29" y2="349.61"/><line class="l" x1="452.8" y1="334.27" x2="452.29" y2="336.73"/><line class="l" x1="454.28" y1="332.18" x2="452.81" y2="334.27"/><line class="l" x1="456.49" y1="330.78" x2="454.28" y2="332.18"/><line class="l" x1="459.09" y1="330.29" x2="456.49" y2="330.78"/><line class="l" x1="481.21" y1="292.63" x2="481.21" y2="291.66"/><line class="l" x1="484.61" y1="288.44" x2="509.45" y2="288.44"/><line class="l" x1="510.14" y1="289.09" x2="510.14" y2="292.63"/><line class="l" x1="509.45" y1="293.27" x2="481.89" y2="293.27"/><line class="l" x1="510.14" y1="292.63" x2="510.14" y2="330.29"/><line class="l" x1="510.14" y1="330.29" x2="507.75" y2="330.29"/><line class="l" x1="481.21" y1="329.33" x2="481.21" y2="294.24"/><line class="l" x1="482.23" y1="293.27" x2="499.29" y2="293.27"/><line class="l" x1="499.29" y1="330.29" x2="482.23" y2="330.29"/><line class="l" x1="507.75" y1="293.27" x2="501.33" y2="293.27"/><line class="l" x1="501.34" y1="330.29" x2="507.75" y2="330.29"/><line class="l" x1="481.21" y1="351.86" x2="481.21" y2="355.4"/><line class="l" x1="481.89" y1="356.05" x2="509.45" y2="356.05"/><line class="l" x1="510.14" y1="355.4" x2="510.14" y2="351.86"/><line class="l" x1="510.14" y1="351.86" x2="510.14" y2="330.29"/><line class="l" x1="510.14" y1="330.29" x2="507.75" y2="330.29"/><line class="l" x1="481.21" y1="331.26" x2="481.21" y2="350.25"/><line class="l" x1="499.29" y1="330.29" x2="482.23" y2="330.29"/><line class="l" x1="499.29" y1="330.29" x2="507.75" y2="330.29"/><line class="l" x1="452.29" y1="336.73" x2="452.29" y2="349.61"/><line class="l" x1="459.09" y1="356.05" x2="480.19" y2="356.05"/><line class="l" x1="481.21" y1="355.08" x2="481.21" y2="331.26"/><line class="l" x1="480.19" y1="330.29" x2="459.09" y2="330.29"/><line class="l" x1="508.77" y1="331.26" x2="508.77" y2="355.08"/><line class="l" x1="508.77" y1="329.33" x2="508.77" y2="294.24"/><g class="m"><path class="l" d="M509.45,288.45a.66.66,0,0,1,.69.64"/><path class="l" d="M510.14,292.63a.66.66,0,0,1-.68.64"/><path class="l" d="M481.89,293.27a.65.65,0,0,1-.68-.64"/><path class="l" d="M481.21,294.24a1,1,0,0,1,1-1"/><path class="l" d="M482.23,330.29a1,1,0,0,1-1-1"/><path class="l" d="M481.89,356.05a.66.66,0,0,1-.68-.65"/><path class="l" d="M510.14,355.4a.67.67,0,0,1-.68.65"/><path class="l" d="M481.21,331.26a1,1,0,0,1,1-1"/><path class="l" d="M481.21,355.08a1,1,0,0,1-1,1"/><path class="l" d="M480.19,330.29a1,1,0,0,1,1,1"/></g><line class="l" x1="508.77" y1="355.08" x2="485.59" y2="355.08"/><g class="m"><path class="l" d="M504.82,331.22a17.4,17.4,0,0,1,.69,4.86c0,8.6-6.35,16-15.23,17.84"/><path class="l" d="M504,329.33a104,104,0,0,1,0-35.09"/><path class="l" d="M452.29,336.73a6.63,6.63,0,0,1,6.8-6.44"/><path class="l" d="M459.09,356.05a6.63,6.63,0,0,1-6.8-6.44"/><path class="l" d="M481.21,291.67a3.32,3.32,0,0,1,3.4-3.22"/></g><polygon class="h" points="455.31 253.26 453.94 250.01 451.78 247.21 448.95 245.06 455.56 241.29 457.26 240.84 458.97 241.29 460.22 242.53 463.63 248.37 464.08 250.06 463.63 251.75 462.38 252.98 455.77 256.76 455.31 253.26"/><polygon class="h" points="421.89 252.98 420.64 251.75 420.19 250.06 420.64 248.37 424.05 242.53 425.3 241.29 427 240.84 428.71 241.29 435.31 245.06 432.49 247.21 430.32 250.01 428.96 253.26 428.49 256.76 421.89 252.98"/><polygon class="h" points="438.72 279.37 437.02 278.92 435.77 277.68 435.31 276 435.31 268.45 438.6 269.8 442.13 270.26 445.66 269.8 448.95 268.45 448.95 276 448.5 277.68 447.25 278.92 445.54 279.37 438.72 279.37"/><polygon class="h" points="438.6 269.8 435.31 268.45 432.49 266.3 430.32 263.51 428.96 260.25 428.49 256.76 428.96 253.26 430.32 250.01 432.49 247.21 435.31 245.06 438.6 243.72 442.13 243.25 445.66 243.72 448.95 245.06 451.78 247.21 453.94 250.01 455.31 253.26 455.77 256.76 455.31 260.25 453.94 263.51 451.78 266.3 448.95 268.45 445.66 269.8 442.13 270.26 438.6 269.8"/><line class="l" x1="455.31" y1="260.25" x2="455.77" y2="256.76"/><line class="l" x1="453.94" y1="263.51" x2="455.31" y2="260.25"/><line class="l" x1="451.78" y1="266.3" x2="453.95" y2="263.51"/><line class="l" x1="448.95" y1="268.45" x2="451.78" y2="266.3"/><line class="l" x1="445.66" y1="269.8" x2="448.95" y2="268.45"/><line class="l" x1="442.13" y1="270.26" x2="445.66" y2="269.8"/><line class="l" x1="438.6" y1="269.8" x2="442.13" y2="270.26"/><line class="l" x1="435.31" y1="268.45" x2="438.6" y2="269.8"/><line class="l" x1="432.49" y1="266.3" x2="435.31" y2="268.45"/><line class="l" x1="430.32" y1="263.51" x2="432.49" y2="266.3"/><line class="l" x1="428.96" y1="260.25" x2="430.32" y2="263.51"/><line class="l" x1="428.49" y1="256.76" x2="428.96" y2="260.25"/><line class="l" x1="428.96" y1="253.26" x2="428.49" y2="256.76"/><line class="l" x1="430.32" y1="250.01" x2="428.96" y2="253.26"/><line class="l" x1="432.49" y1="247.21" x2="430.32" y2="250.01"/><line class="l" x1="435.31" y1="245.06" x2="432.49" y2="247.21"/><line class="l" x1="438.6" y1="243.72" x2="435.31" y2="245.06"/><line class="l" x1="442.13" y1="243.25" x2="438.6" y2="243.71"/><line class="l" x1="445.66" y1="243.72" x2="442.13" y2="243.25"/><line class="l" x1="448.95" y1="245.06" x2="445.66" y2="243.71"/><line class="l" x1="451.78" y1="247.21" x2="448.95" y2="245.06"/><line class="l" x1="453.94" y1="250.01" x2="451.78" y2="247.21"/><line class="l" x1="455.31" y1="253.26" x2="453.94" y2="250.01"/><line class="l" x1="455.77" y1="256.76" x2="455.31" y2="253.26"/><g class="m"><path class="l" d="M442.13,270.26a13.51,13.51,0,1,1,0-27"/><path class="l" d="M442.13,243.25a13.51,13.51,0,1,1,0,27"/></g><line class="l" x1="458.74" y1="243.37" x2="462.15" y2="249.22"/><line class="l" x1="462.38" y1="252.98" x2="455.77" y2="256.76"/><line class="l" x1="460.22" y1="242.53" x2="463.63" y2="248.37"/><line class="l" x1="448.95" y1="245.06" x2="455.56" y2="241.29"/><line class="l" x1="422.12" y1="249.22" x2="425.53" y2="243.37"/><line class="l" x1="428.71" y1="241.29" x2="435.31" y2="245.06"/><line class="l" x1="420.64" y1="248.37" x2="424.05" y2="242.53"/><line class="l" x1="428.49" y1="256.76" x2="421.89" y2="252.98"/><line class="l" x1="445.54" y1="277.68" x2="438.72" y2="277.68"/><line class="l" x1="435.31" y1="275.99" x2="435.31" y2="268.45"/><line class="l" x1="445.54" y1="279.37" x2="438.72" y2="279.37"/><line class="l" x1="448.95" y1="268.45" x2="448.95" y2="275.99"/><g class="m"><path class="l" d="M462.15,249.22a1.63,1.63,0,0,1,.23.84,1.7,1.7,0,0,1-.85,1.46"/><path class="l" d="M456.41,242.75a1.68,1.68,0,0,1,.85-.22,1.72,1.72,0,0,1,1.48.84"/><path class="l" d="M463.63,248.37a3.37,3.37,0,0,1-1.25,4.61"/><path class="l" d="M455.55,241.29a3.44,3.44,0,0,1,4.66,1.23"/><path class="l" d="M425.53,243.37a1.7,1.7,0,0,1,2.33-.62"/><path class="l" d="M422.74,251.52a1.68,1.68,0,0,1-.85-1.46,1.63,1.63,0,0,1,.23-.84"/><path class="l" d="M424.05,242.52a3.44,3.44,0,0,1,4.66-1.23"/><path class="l" d="M421.89,253a3.37,3.37,0,0,1-1.25-4.61"/><path class="l" d="M438.72,277.68A1.69,1.69,0,0,1,437,276"/><path class="l" d="M447.25,276a1.7,1.7,0,0,1-1.71,1.69"/><path class="l" d="M438.72,279.37a3.39,3.39,0,0,1-3.41-3.37"/><path class="l" d="M449,276a3.39,3.39,0,0,1-3.41,3.37"/></g><polygon class="h" points="243.36 215.43 243 215.29 242.84 214.93 242.84 201.07 243 200.71 243.36 200.56 261.05 200.56 261.41 200.71 261.56 201.07 261.56 214.93 261.41 215.29 261.05 215.43 243.36 215.43"/><line class="l" x1="243.36" y1="200.56" x2="261.05" y2="200.56"/><g class="m"><path class="l" d="M261.05,200.56a.51.51,0,0,1,.51.51"/></g><line class="l" x1="261.56" y1="201.07" x2="261.56" y2="214.93"/><g class="m"><path class="l" d="M261.56,214.93a.5.5,0,0,1-.51.5"/></g><line class="l" x1="261.05" y1="215.43" x2="243.36" y2="215.43"/><g class="m"><path class="l" d="M243.36,215.43a.5.5,0,0,1-.51-.5"/></g><line class="l" x1="242.85" y1="214.93" x2="242.85" y2="201.07"/><g class="m"><path class="l" d="M242.85,201.07a.51.51,0,0,1,.51-.51"/></g><line class="l" x1="244.38" y1="204.28" x2="260.03" y2="204.28"/><line class="l" x1="260.54" y1="204.79" x2="260.54" y2="213.91"/><line class="l" x1="260.03" y1="214.42" x2="244.38" y2="214.42"/><line class="l" x1="243.87" y1="213.91" x2="243.87" y2="204.79"/><g class="m"><path class="l" d="M260,204.28a.51.51,0,0,1,.51.51"/><path class="l" d="M260.54,213.91a.51.51,0,0,1-.51.51"/><path class="l" d="M244.38,214.42a.51.51,0,0,1-.51-.51"/><path class="l" d="M243.87,204.79a.51.51,0,0,1,.51-.51"/></g><polygon class="h" points="251.95 206.35 251.83 206.12 251.6 204.33 251.49 204.01 251.35 202.59 251.6 201.99 252.2 201.75 252.81 201.99 253.05 202.59 252.92 204.01 252.81 204.33 252.58 206.12 252.45 206.35 252.2 206.45 251.95 206.35"/><g class="m"><path class="l" d="M251.35,202.59a.85.85,0,0,1,1.7,0"/></g><line class="l" x1="252.92" y1="204.01" x2="253.05" y2="202.59"/><g class="m"><path class="l" d="M252.92,204a.76.76,0,0,1-.11.32"/></g><line class="l" x1="252.58" y1="206.12" x2="252.81" y2="204.33"/><g class="m"><path class="l" d="M252.58,206.12a.38.38,0,0,1-.38.33.37.37,0,0,1-.37-.33"/></g><line class="l" x1="251.6" y1="204.33" x2="251.82" y2="206.12"/><g class="m"><path class="l" d="M251.6,204.33a.76.76,0,0,1-.11-.32"/></g><line class="l" x1="251.35" y1="202.59" x2="251.49" y2="204.01"/><line class="l" x1="252.67" y1="203.43" x2="252.67" y2="203.93"/><line class="l" x1="251.74" y1="203.93" x2="251.74" y2="203.43"/><line class="l" x1="251.74" y1="203.43" x2="252.67" y2="203.43"/><g class="m"><path class="l" d="M252.67,203.93a.47.47,0,0,1-.93,0"/><path class="l" d="M252.81,204.33a.75.75,0,0,1-.61.33.73.73,0,0,1-.6-.33"/></g><rect class="h" x="562.88" y="215.77" width="20.42" height="42.25"/><line class="l" x1="583.3" y1="258.02" x2="583.3" y2="215.77"/><line class="l" x1="583.3" y1="215.77" x2="562.88" y2="215.77"/><line class="l" x1="562.88" y1="215.77" x2="562.88" y2="258.02"/><line class="l" x1="562.88" y1="258.02" x2="583.3" y2="258.02"/><line class="l" x1="573.09" y1="255.91" x2="573.09" y2="217.88"/><line class="l" x1="579.09" y1="253.95" x2="566.86" y2="250.38"/><line class="l" x1="579.7" y1="249.92" x2="568.33" y2="248.45"/><line class="l" x1="565.73" y1="244.42" x2="578.22" y2="243.2"/><line class="l" x1="567.37" y1="238.19" x2="578.22" y2="239.84"/><line class="l" x1="566.74" y1="235.92" x2="580.11" y2="235.92"/><line class="l" x1="566.68" y1="229.5" x2="579.9" y2="231.02"/><line class="l" x1="566.9" y1="227.09" x2="578.97" y2="227.09"/><line class="l" x1="566.78" y1="220.75" x2="579.16" y2="219.54"/><line class="l" x1="567.62" y1="222.28" x2="578.09" y2="223.52"/><rect class="h" x="514.22" y="195.49" width="48.66" height="20.28"/><line class="l" x1="562.88" y1="195.49" x2="514.22" y2="195.49"/><line class="l" x1="514.22" y1="195.49" x2="514.22" y2="215.77"/><line class="l" x1="514.22" y1="215.77" x2="562.88" y2="215.77"/><line class="l" x1="562.88" y1="215.77" x2="562.88" y2="195.49"/><line class="l" x1="560.45" y1="205.63" x2="516.65" y2="205.63"/><line class="l" x1="558.19" y1="199.67" x2="554.07" y2="211.82"/><line class="l" x1="553.55" y1="199.06" x2="551.85" y2="210.36"/><line class="l" x1="547.21" y1="212.94" x2="545.81" y2="200.54"/><line class="l" x1="540.03" y1="211.32" x2="541.93" y2="200.54"/><line class="l" x1="537.42" y1="211.94" x2="537.42" y2="198.66"/><line class="l" x1="530.02" y1="211.99" x2="531.78" y2="198.87"/><line class="l" x1="527.25" y1="211.77" x2="527.25" y2="199.79"/><line class="l" x1="519.96" y1="211.9" x2="518.55" y2="199.6"/><line class="l" x1="521.71" y1="211.06" x2="523.14" y2="200.67"/><rect class="h" x="351.9" y="312.27" width="20.42" height="50.87"/><line class="l" x1="372.32" y1="363.15" x2="372.32" y2="312.27"/><line class="l" x1="372.32" y1="312.27" x2="351.9" y2="312.27"/><line class="l" x1="351.91" y1="312.27" x2="351.91" y2="363.15"/><line class="l" x1="351.91" y1="363.15" x2="372.32" y2="363.15"/><line class="l" x1="362.11" y1="360.6" x2="362.11" y2="314.82"/><line class="l" x1="368.12" y1="358.24" x2="355.89" y2="353.94"/><line class="l" x1="368.73" y1="353.39" x2="357.35" y2="351.61"/><line class="l" x1="354.75" y1="346.77" x2="367.24" y2="345.3"/><line class="l" x1="356.39" y1="339.26" x2="367.24" y2="341.25"/><line class="l" x1="355.77" y1="336.53" x2="369.14" y2="336.53"/><line class="l" x1="355.71" y1="328.8" x2="368.92" y2="330.64"/><line class="l" x1="355.93" y1="325.9" x2="368" y2="325.9"/><line class="l" x1="355.81" y1="318.27" x2="368.18" y2="316.81"/><line class="l" x1="356.65" y1="320.11" x2="367.11" y2="321.6"/><rect class="h" x="351.9" y="262.08" width="20.42" height="50.19"/><line class="l" x1="372.32" y1="312.27" x2="372.32" y2="262.08"/><line class="l" x1="372.32" y1="262.08" x2="351.9" y2="262.08"/><line class="l" x1="351.91" y1="262.08" x2="351.91" y2="312.27"/><line class="l" x1="351.91" y1="312.27" x2="372.32" y2="312.27"/><line class="l" x1="362.11" y1="309.77" x2="362.11" y2="264.59"/><line class="l" x1="368.12" y1="307.44" x2="355.89" y2="303.19"/><line class="l" x1="368.73" y1="302.65" x2="357.35" y2="300.9"/><line class="l" x1="354.75" y1="296.11" x2="367.24" y2="294.67"/><line class="l" x1="356.39" y1="288.71" x2="367.24" y2="290.67"/><line class="l" x1="355.77" y1="286.01" x2="369.14" y2="286.01"/><line class="l" x1="355.71" y1="278.38" x2="368.92" y2="280.2"/><line class="l" x1="355.93" y1="275.53" x2="368" y2="275.53"/><line class="l" x1="355.81" y1="268" x2="368.18" y2="266.55"/><line class="l" x1="356.65" y1="269.81" x2="367.11" y2="271.28"/><polygon class="h" points="273.7 217.12 271.77 216.11 270.58 214.9 269.82 213.38 269.56 211.72 269.56 200.56 282.15 200.56 282.15 211.72 281.89 213.38 281.13 214.9 279.94 216.11 278 217.12 275.85 217.46 273.7 217.12"/><line class="l" x1="282.15" y1="200.56" x2="282.15" y2="211.72"/><line class="l" x1="282.15" y1="200.56" x2="269.56" y2="200.56"/><line class="l" x1="269.56" y1="200.56" x2="269.56" y2="211.72"/><line class="l" x1="280.11" y1="204.62" x2="280.11" y2="211.72"/><line class="l" x1="271.6" y1="204.62" x2="271.6" y2="211.72"/><line class="l" x1="271.6" y1="204.62" x2="280.11" y2="204.62"/><g class="m"><path class="l" d="M282.15,211.72a5.49,5.49,0,0,1-2.21,4.39"/><path class="l" d="M271.77,216.11a5.49,5.49,0,0,1-2.21-4.39"/><path class="l" d="M279.94,216.11a6.86,6.86,0,0,1-8.17,0"/><path class="l" d="M271.77,216.11a5.49,5.49,0,0,1-2.21-4.39"/><path class="l" d="M275.85,217.46a6.82,6.82,0,0,1-4.08-1.35"/><path class="l" d="M273,214.49a3.48,3.48,0,0,1-1.39-2.77"/><path class="l" d="M278.71,214.49a4.82,4.82,0,0,1-5.72,0"/><path class="l" d="M280.11,211.72a3.46,3.46,0,0,1-1.4,2.77"/></g><rect class="h" x="559.48" y="303.32" width="23.82" height="40.56"/><polygon class="h" points="550.29 330.76 548.59 330.31 547.34 329.07 546.89 327.38 546.89 319.82 547.34 318.13 548.59 316.89 550.29 316.44 559.48 316.44 559.48 330.76 550.29 330.76"/><line class="l" x1="583.3" y1="303.32" x2="559.47" y2="303.32"/><line class="l" x1="559.48" y1="303.32" x2="559.48" y2="343.88"/><line class="l" x1="559.48" y1="343.88" x2="583.3" y2="343.88"/><line class="l" x1="583.3" y1="343.88" x2="583.3" y2="303.32"/><line class="l" x1="546.89" y1="319.82" x2="546.89" y2="327.38"/><line class="l" x1="550.29" y1="330.76" x2="559.47" y2="330.76"/><line class="l" x1="548.59" y1="319.82" x2="548.59" y2="327.38"/><line class="l" x1="559.48" y1="316.44" x2="550.29" y2="316.44"/><g class="m"><path class="l" d="M546.89,319.82a3.39,3.39,0,0,1,3.4-3.38"/><path class="l" d="M550.29,330.76a3.39,3.39,0,0,1-3.4-3.38"/><path class="l" d="M548.59,319.82a1.7,1.7,0,0,1,1.7-1.69"/><path class="l" d="M550.29,329.07a1.7,1.7,0,0,1-1.7-1.69"/></g><line class="l" x1="365.52" y1="195.49" x2="358.71" y2="195.49"/><line class="l" x1="354.97" y1="195.49" x2="354.2" y2="195.49"/><line class="l" x1="350.46" y1="195.49" x2="349.69" y2="195.49"/><line class="l" x1="345.95" y1="195.49" x2="339.14" y2="195.49"/><line class="l" x1="335.4" y1="195.49" x2="334.89" y2="195.49"/><line class="l" x1="334.89" y1="195.49" x2="328.09" y2="195.49"/><line class="l" x1="528.85" y1="258.02" x2="535.66" y2="258.02"/><line class="l" x1="539.4" y1="258.02" x2="540.17" y2="258.02"/><line class="l" x1="543.91" y1="258.02" x2="544.67" y2="258.02"/><line class="l" x1="548.42" y1="258.02" x2="552.67" y2="258.02"/><line class="l" x1="552.67" y1="258.02" x2="559.48" y2="258.02"/><line class="l" x1="559.48" y1="260.39" x2="552.67" y2="260.39"/><line class="l" x1="548.93" y1="260.39" x2="548.16" y2="260.39"/><line class="l" x1="544.42" y1="260.39" x2="543.65" y2="260.39"/><line class="l" x1="539.91" y1="260.39" x2="535.66" y2="260.39"/><line class="l" x1="535.66" y1="260.39" x2="528.85" y2="260.39"/><line class="l" x1="454.74" y1="207.53" x2="454.74" y2="201.86"/><line class="l" x1="454.74" y1="201.86" x2="457.06" y2="203.72"/><line class="l" x1="457.06" y1="203.72" x2="459.38" y2="201.86"/><line class="l" x1="459.38" y1="201.86" x2="459.38" y2="207.53"/><line class="l" x1="520.34" y1="376.67" x2="520.34" y2="429.06"/><line class="l" x1="520.34" y1="429.06" x2="202.18" y2="429.06"/><line class="l" x1="522.05" y1="376.67" x2="522.05" y2="430.75"/><line class="l" x1="522.05" y1="430.75" x2="202.18" y2="430.75"/><line class="l" x1="198.78" y1="187.38" x2="198.78" y2="376.67"/><line class="l" x1="198.78" y1="376.67" x2="202.18" y2="376.67"/><line class="l" x1="202.18" y1="376.67" x2="202.18" y2="430.75"/><line class="l" x1="202.18" y1="430.75" x2="522.05" y2="430.75"/><line class="l" x1="522.05" y1="430.75" x2="522.05" y2="376.67"/><line class="l" x1="522.05" y1="376.67" x2="591.8" y2="376.67"/><line class="l" x1="591.8" y1="376.67" x2="591.8" y2="187.38"/><line class="l" x1="591.8" y1="187.38" x2="365.18" y2="187.38"/><line class="l" x1="365.18" y1="187.38" x2="292.7" y2="187.38"/><line class="l" x1="292.7" y1="187.38" x2="198.78" y2="187.38"/><path class="n" d="M421.25,396.52v7h-.72v-6.36h-1.65v-.64Z"/><path class="n" d="M422.93,403a.53.53,0,0,1,.53-.54.54.54,0,0,1,.54.54.55.55,0,0,1-.54.55A.54.54,0,0,1,422.93,403Z"/><path class="n" d="M424.94,400c0-2.23,1.17-3.56,2.79-3.56s2.8,1.33,2.8,3.56-1.18,3.56-2.8,3.56S424.94,402.25,424.94,400Zm4.85,0c0-1.87-.84-2.9-2.06-2.9s-2.06,1-2.06,2.9.84,2.9,2.06,2.9S429.79,401.89,429.79,400Z"/><path class="n" d="M436.43,396.52V397l-2.93,6.49h-.78l2.88-6.36H432v1.31h-.71v-2Z"/><path class="n" d="M260.32,228.5v7h-.72v-6.36H258v-.64Z"/><path class="n" d="M262,235a.53.53,0,0,1,.53-.54.54.54,0,0,1,.54.54.55.55,0,0,1-.54.55A.54.54,0,0,1,262,235Z"/><path class="n" d="M264,232c0-2.23,1.17-3.56,2.79-3.56s2.8,1.33,2.8,3.56-1.18,3.56-2.8,3.56S264,234.23,264,232Zm4.85,0c0-1.87-.84-2.9-2.06-2.9s-2.06,1-2.06,2.9.84,2.9,2.06,2.9S268.86,233.87,268.86,232Z"/><path class="n" d="M275.89,233.41a2.18,2.18,0,0,1-2.39,2.15c-1.86,0-2.87-1.29-2.87-3.5,0-2.38,1.3-3.62,3.2-3.62a3.21,3.21,0,0,1,1.66.38l-.29.58a2.45,2.45,0,0,0-1.36-.33c-1.51,0-2.48,1-2.48,2.87,0,.16,0,.36,0,.57a2.24,2.24,0,0,1,2.14-1.2A2.12,2.12,0,0,1,275.89,233.41Zm-.71,0c0-.92-.68-1.51-1.76-1.51a1.62,1.62,0,0,0-1.8,1.53c0,.77.64,1.5,1.85,1.5A1.53,1.53,0,0,0,275.18,233.43Z"/><path class="n" d="M298.77,297.83v7h-.72v-6.36H296.4v-.64Z"/><path class="n" d="M300.45,304.33a.53.53,0,0,1,.53-.54.54.54,0,0,1,.54.54.55.55,0,0,1-.54.55A.54.54,0,0,1,300.45,304.33Z"/><path class="n" d="M302.46,301.33c0-2.23,1.17-3.56,2.79-3.56s2.8,1.33,2.8,3.56-1.18,3.56-2.8,3.56S302.46,303.56,302.46,301.33Zm4.85,0c0-1.87-.84-2.9-2.06-2.9s-2.06,1-2.06,2.9.84,2.9,2.06,2.9S307.31,303.2,307.31,301.33Z"/><path class="n" d="M313.83,302.77c0,1.19-.83,2.12-2.54,2.12a3.61,3.61,0,0,1-2.51-.9l.35-.57a3,3,0,0,0,2.15.81c1.19,0,1.82-.58,1.82-1.43s-.56-1.46-2.34-1.46h-1.49l.36-3.51h3.83v.64h-3.2L310,300.7h.9C313,300.7,313.83,301.53,313.83,302.77Z"/><path class="n" d="M535.93,297.83v7h-.72v-6.36h-1.65v-.64Z"/><path class="n" d="M537.61,304.33a.53.53,0,0,1,.53-.54.54.54,0,0,1,.54.54.55.55,0,0,1-.54.55A.54.54,0,0,1,537.61,304.33Z"/><path class="n" d="M539.62,301.33c0-2.23,1.17-3.56,2.79-3.56s2.8,1.33,2.8,3.56-1.18,3.56-2.8,3.56S539.62,303.56,539.62,301.33Zm4.85,0c0-1.87-.84-2.9-2.06-2.9s-2.06,1-2.06,2.9.84,2.9,2.06,2.9S544.47,303.2,544.47,301.33Z"/><path class="n" d="M552.19,303h-1.4v1.84h-.72V303h-4v-.52l3.71-4.64h.8l-3.58,4.52h3v-1.62h.7v1.62h1.4Z"/><path class="n" d="M538.09,235.34v7h-.72V236h-1.65v-.64Z"/><path class="n" d="M539.77,241.84a.53.53,0,0,1,.53-.54.54.54,0,0,1,.54.54.55.55,0,0,1-.54.55A.54.54,0,0,1,539.77,241.84Z"/><path class="n" d="M541.78,238.84c0-2.23,1.17-3.56,2.79-3.56s2.8,1.33,2.8,3.56-1.18,3.56-2.8,3.56S541.78,241.07,541.78,238.84Zm4.85,0c0-1.87-.84-2.9-2.06-2.9s-2.06,1-2.06,2.9.84,2.9,2.06,2.9S546.63,240.71,546.63,238.84Z"/><path class="n" d="M552.94,240.33c0,1.17-.85,2.07-2.54,2.07a3.64,3.64,0,0,1-2.52-.9l.35-.57a3.07,3.07,0,0,0,2.17.81c1.16,0,1.8-.54,1.8-1.41s-.59-1.39-1.89-1.39h-.5v-.53l1.94-2.43h-3.58v-.64h4.5v.51l-2,2.49C552.19,238.42,552.94,239.21,552.94,240.33Z"/><path class="n" d="M421.25,298v7h-.72V298.6h-1.65V298Z"/><path class="n" d="M422.93,304.46a.53.53,0,0,1,.53-.54.54.54,0,0,1,.54.54.55.55,0,0,1-.54.55A.54.54,0,0,1,422.93,304.46Z"/><path class="n" d="M424.94,301.46c0-2.23,1.17-3.56,2.79-3.56s2.8,1.33,2.8,3.56-1.18,3.56-2.8,3.56S424.94,303.69,424.94,301.46Zm4.85,0c0-1.87-.84-2.9-2.06-2.9s-2.06,1-2.06,2.9.84,2.9,2.06,2.9S429.79,303.33,429.79,301.46Z"/><path class="n" d="M436.33,304.32V305h-4.91v-.51l2.91-2.85c.79-.78.94-1.25.94-1.73,0-.81-.57-1.31-1.64-1.31a2.38,2.38,0,0,0-1.91.78l-.51-.44a3.15,3.15,0,0,1,2.48-1c1.42,0,2.32.72,2.32,1.89a2.88,2.88,0,0,1-1.15,2.19l-2.38,2.34Z"/><path class="n" d="M345.72,228.5v7H345v-6.36h-1.65v-.64Z"/><path class="n" d="M347.4,235a.53.53,0,0,1,.53-.54.54.54,0,0,1,.54.54.55.55,0,0,1-.54.55A.54.54,0,0,1,347.4,235Z"/><path class="n" d="M349.41,232c0-2.23,1.17-3.56,2.79-3.56s2.8,1.33,2.8,3.56-1.18,3.56-2.8,3.56S349.41,234.23,349.41,232Zm4.85,0c0-1.87-.84-2.9-2.06-2.9s-2.06,1-2.06,2.9.84,2.9,2.06,2.9S354.26,233.87,354.26,232Z"/><path class="n" d="M358,228.5v7h-.72v-6.36h-1.65v-.64Z"/></svg>