<svg xmlns="http://www.w3.org/2000/svg" xmlns:xlink="http://www.w3.org/1999/xlink" viewBox="0 0 790.58 618.13"><defs><style>.a,.k{fill:none;}.b{clip-path:url(#a);}.c{clip-path:url(#d);}.d{clip-path:url(#g);}.e{clip-path:url(#j);}.f{fill:#595a5c;}.g{fill:#b6906c;}.h,.n{fill:#fff;}.i{fill:#231f20;}.j{fill:url(#m);}.k{stroke:#000;stroke-linecap:round;stroke-linejoin:round;stroke-width:0.34px;}.l,.n{fill-rule:evenodd;}.m{clip-path:url(#n);}.o{fill:#58595b;}</style><clipPath id="a"><rect class="a" y="59.93" width="90" height="59.93"/></clipPath><clipPath id="d"><rect class="a" x="90" y="59.93" width="90" height="59.93"/></clipPath><clipPath id="g"><rect class="a" width="90" height="59.93"/></clipPath><clipPath id="j"><rect class="a" x="90" width="90" height="59.93"/></clipPath><pattern id="m" width="180" height="119.85" patternTransform="matrix(0, -3.42, -3.42, 0, 37059.26, 13591.27)" patternUnits="userSpaceOnUse" viewBox="0 0 180 119.85"><rect class="a" width="180" height="119.85"/><g class="b"><g class="b"><g class="b"><image width="376" height="251" transform="matrix(0.24, 0, 0, -0.24, -0.2, 120.05)" xlink:href="A402_pudorys1.png"/></g></g></g><g class="c"><g class="c"><g class="c"><image width="376" height="251" transform="matrix(0.24, 0, 0, -0.24, 89.8, 120.05)" xlink:href="A402_pudorys2.png"/></g></g></g><g class="d"><g class="d"><g class="d"><image width="376" height="251" transform="matrix(0.24, 0, 0, -0.24, -0.2, 60.05)" xlink:href="A402_pudorys3.png"/></g></g></g><g class="e"><g class="e"><g class="e"><image width="376" height="251" transform="matrix(0.24, 0, 0, -0.24, 89.8, 60.05)" xlink:href="A402_pudorys4.png"/></g></g></g></pattern><clipPath id="n"><polygon class="a" points="41.51 213.2 41.51 262.85 37.41 262.85 37.41 404.92 414.68 404.92 633.1 404.92 641.31 404.92 641.31 262.85 637.21 262.85 637.21 213.2 41.51 213.2"/></clipPath></defs><path class="f" d="M55.31,597.13H57.1V609.9H55.31Zm.92,6.11h4.09a1.89,1.89,0,0,0,1-.27,1.82,1.82,0,0,0,.68-.77,2.67,2.67,0,0,0,.24-1.16,2.7,2.7,0,0,0-.24-1.16,1.82,1.82,0,0,0-1.7-1H56.23v-1.7h4a4.09,4.09,0,0,1,2,.48A3.45,3.45,0,0,1,63.62,599a4.64,4.64,0,0,1,0,4.11,3.34,3.34,0,0,1-1.35,1.36,4,4,0,0,1-2,.49h-4Z"/><path class="f" d="M67.7,606.33a2.07,2.07,0,0,0,.49,1.48,1.76,1.76,0,0,0,1.37.52,1.89,1.89,0,0,0,1.37-.46,1.79,1.79,0,0,0,.48-1.33l.12,1.91A2.58,2.58,0,0,1,69.06,610a2.89,2.89,0,0,1-2.33-1,4.08,4.08,0,0,1-.82-2.73v-5.55H67.7Zm.22-7.86a1.93,1.93,0,0,1-.56-1.5,2.07,2.07,0,0,1,.56-1.57,2.56,2.56,0,0,1,3.18,0,2.08,2.08,0,0,1,.57,1.56,1.94,1.94,0,0,1-.57,1.5,2.65,2.65,0,0,1-3.18,0Zm2.26-.86a.94.94,0,0,0,.24-.68,1,1,0,0,0-.24-.7.91.91,0,0,0-.67-.25.92.92,0,0,0-.67.25,1,1,0,0,0-.23.7,1,1,0,0,0,.23.68.92.92,0,0,0,.67.24A.9.9,0,0,0,70.18,597.61Zm1.23,3.17h1.78v9.12H71.41Z"/><path class="f" d="M77.1,609.63A2.82,2.82,0,0,1,76,608.36a5.08,5.08,0,0,1-.36-2v-2a5.05,5.05,0,0,1,.36-2,2.71,2.71,0,0,1,1-1.27,3,3,0,0,1,1.65-.44,2.71,2.71,0,0,1,1.48.42,3.22,3.22,0,0,1,1.09,1.19l-.18,1.86a2.19,2.19,0,0,0-.22-1,1.48,1.48,0,0,0-.61-.63,2,2,0,0,0-1-.21,1.71,1.71,0,0,0-1.37.55,2.26,2.26,0,0,0-.49,1.56v2a2.19,2.19,0,0,0,.49,1.54,1.74,1.74,0,0,0,1.37.54,1.93,1.93,0,0,0,1-.23,1.45,1.45,0,0,0,.61-.64,2.25,2.25,0,0,0,.22-1l.12,1.92a2.66,2.66,0,0,1-.89,1.14,2.56,2.56,0,0,1-1.53.45A3.19,3.19,0,0,1,77.1,609.63Zm4-12.5H82.9V609.9H81.11Z"/><path class="f" d="M87.09,609.57a3.09,3.09,0,0,1-1.29-1.36,4.85,4.85,0,0,1-.44-2.15v-1.48a4.71,4.71,0,0,1,.44-2.12,3.12,3.12,0,0,1,1.29-1.35,4.71,4.71,0,0,1,4.06,0,3.12,3.12,0,0,1,1.29,1.35,4.71,4.71,0,0,1,.44,2.12v1.51a4.79,4.79,0,0,1-.44,2.13,3.12,3.12,0,0,1-1.29,1.35,4.62,4.62,0,0,1-4.06,0Zm3.49-1.83a2.43,2.43,0,0,0,.51-1.65v-1.51a2.43,2.43,0,0,0-.51-1.65,1.88,1.88,0,0,0-1.46-.58,1.85,1.85,0,0,0-1.45.58,2.38,2.38,0,0,0-.52,1.65v1.51a2.38,2.38,0,0,0,.52,1.65,1.82,1.82,0,0,0,1.45.59A1.85,1.85,0,0,0,90.58,607.74Z"/><path class="f" d="M95.43,600.78h1.79v9.12H95.43Zm4.42,1.72a2.16,2.16,0,0,0-.83-.15,1.83,1.83,0,0,0-1.33.47,1.79,1.79,0,0,0-.47,1.31L97,602.37a3.32,3.32,0,0,1,1.09-1.27,2.58,2.58,0,0,1,1.48-.45,3.39,3.39,0,0,1,1.13.18,2.62,2.62,0,0,1,.88.53l-1.17,1.58A1.56,1.56,0,0,0,99.85,602.5Z"/><path class="f" d="M102.15,600.78H104l2.81,7.93-1,1.94Zm8.07,0L106.34,612a2.6,2.6,0,0,1-.56,1,1.87,1.87,0,0,1-.84.52,4,4,0,0,1-1.23.16h-.36V612h.36a1.46,1.46,0,0,0,.8-.2,1.74,1.74,0,0,0,.51-.7l3.38-10.31Z"/><path class="f" d="M113.51,609.88a5.76,5.76,0,0,1-1.32-.48,4.89,4.89,0,0,1-1.13-.79l1.06-1.31a5.86,5.86,0,0,0,1.47.85,4.18,4.18,0,0,0,1.44.28,3.11,3.11,0,0,0,1.6-.33,1.1,1.1,0,0,0,.53-1,.79.79,0,0,0-.29-.66,1.66,1.66,0,0,0-.72-.29c-.29,0-.69-.1-1.22-.14h-.15l-.14,0h-.15a6.45,6.45,0,0,1-1.5-.26,2,2,0,0,1-1-.7,2.38,2.38,0,0,1-.41-1.49,3.07,3.07,0,0,1,.39-1.61,2.41,2.41,0,0,1,1.18-1,5.29,5.29,0,0,1,2-.32,6.38,6.38,0,0,1,2.6.52,6.16,6.16,0,0,1,1.13.66l-1.08,1.31a5.59,5.59,0,0,0-1.35-.66,4,4,0,0,0-1.3-.22,2.44,2.44,0,0,0-1.37.31,1.08,1.08,0,0,0-.46.94.64.64,0,0,0,.26.55,1.72,1.72,0,0,0,.66.25c.26,0,.64.07,1.12.1h.34a7.67,7.67,0,0,1,1.63.25,2.24,2.24,0,0,1,1.13.77,2.62,2.62,0,0,1,.45,1.65,2.92,2.92,0,0,1-.42,1.63,2.54,2.54,0,0,1-1.27,1A5.88,5.88,0,0,1,115,610,7.38,7.38,0,0,1,113.51,609.88Z"/><path class="f" d="M126,597.13h1.8V609.9H126Zm2.6,12.5a2.39,2.39,0,0,1-.93-1.16l.13-1.91a2.22,2.22,0,0,0,.21,1,1.48,1.48,0,0,0,.61.63,1.93,1.93,0,0,0,1,.22,1.74,1.74,0,0,0,1.37-.54,2.18,2.18,0,0,0,.49-1.53v-2a2.26,2.26,0,0,0-.49-1.56,1.71,1.71,0,0,0-1.37-.55,2,2,0,0,0-1,.21,1.36,1.36,0,0,0-.61.62,2.12,2.12,0,0,0-.21,1l-.19-1.76a3.37,3.37,0,0,1,1.08-1.24,2.67,2.67,0,0,1,1.49-.43,3,3,0,0,1,1.65.43,2.9,2.9,0,0,1,1.06,1.27,5.1,5.1,0,0,1,.36,2v2a4.94,4.94,0,0,1-.37,2,2.79,2.79,0,0,1-1.08,1.26,3.25,3.25,0,0,1-1.71.44A2.73,2.73,0,0,1,128.57,609.63Z"/><path class="f" d="M134.46,600.78h1.82l2.81,7.93-1,1.94Zm8.07,0L138.65,612a2.6,2.6,0,0,1-.56,1,1.87,1.87,0,0,1-.84.52,4,4,0,0,1-1.23.16h-.36V612H136a1.46,1.46,0,0,0,.8-.2,1.74,1.74,0,0,0,.51-.7l3.37-10.31Z"/><path class="f" d="M143.57,600.78h4.12v1.62h-4.12Zm1.46,8.56a2.77,2.77,0,0,1-.52-1.81v-9.4h1.8v9.42a.84.84,0,0,0,.13.51.46.46,0,0,0,.39.18h.86V610h-1A2,2,0,0,1,145,609.34Z"/><path class="f" d="M151.94,606.33a2.07,2.07,0,0,0,.49,1.48,1.76,1.76,0,0,0,1.37.52,1.91,1.91,0,0,0,1.37-.46,1.79,1.79,0,0,0,.48-1.33l.12,1.91A2.58,2.58,0,0,1,153.3,610a2.89,2.89,0,0,1-2.33-1,4.08,4.08,0,0,1-.82-2.73v-5.55h1.79Zm3.71-5.55h1.78v9.12h-1.78Z"/><rect class="g" x="612.92" y="591.68" width="35.43" height="2.83"/><path class="h" d="M648.48,594.64H612.79v-3.08h35.69ZM613,594.39h35.19v-2.58H613Z"/><rect class="g" x="612.92" y="601.6" width="70.74" height="2.83"/><path class="h" d="M683.78,604.56h-71v-3.08h71ZM613,604.31h70.49v-2.58H613Z"/><rect class="g" x="612.92" y="612.72" width="177.16" height="2.84"/><path class="h" d="M790.21,615.68H612.79V612.6H790.21ZM613,615.43H790v-2.58H613Z"/><path class="i" d="M587.26,596.28h-.8v-4.82l-.81.5v-.83l.81-.53h.8Z"/><path class="i" d="M589,595.91a1.67,1.67,0,0,1-.41-1.19v-2.58A1.65,1.65,0,0,1,589,591a2,2,0,0,1,2.42,0,1.65,1.65,0,0,1,.41,1.19v2.58a1.65,1.65,0,0,1-.41,1.19,2,2,0,0,1-2.42,0Zm1.83-.55a.89.89,0,0,0,.2-.64v-2.58a.89.89,0,0,0-.2-.64.82.82,0,0,0-.62-.22.86.86,0,0,0-.63.22.94.94,0,0,0-.2.64v2.58a.9.9,0,0,0,.21.64,1,1,0,0,0,1.24,0Z"/><path class="i" d="M593.22,595.91a1.67,1.67,0,0,1-.41-1.19v-2.58a1.65,1.65,0,0,1,.41-1.19,2,2,0,0,1,2.42,0,1.61,1.61,0,0,1,.41,1.19v2.58a1.65,1.65,0,0,1-.41,1.19,2,2,0,0,1-2.42,0Zm1.83-.55a.9.9,0,0,0,.21-.64v-2.58a.94.94,0,0,0-.2-.64.86.86,0,0,0-.63-.22.82.82,0,0,0-.62.22.89.89,0,0,0-.2.64v2.58a.89.89,0,0,0,.2.64,1,1,0,0,0,1.24,0Z"/><path class="i" d="M600.1,596.13a1.45,1.45,0,0,1-.6-.6,2.06,2.06,0,0,1-.21-1v-.67a2,2,0,0,1,.21-.94,1.37,1.37,0,0,1,.6-.59,2,2,0,0,1,.95-.21,2.21,2.21,0,0,1,.59.08,1.68,1.68,0,0,1,.51.22,1.54,1.54,0,0,1,.37.35l-.58.52a1.17,1.17,0,0,0-.4-.3,1.13,1.13,0,0,0-.48-.11.94.94,0,0,0-.71.26,1,1,0,0,0-.26.72v.67a1,1,0,0,0,.25.74.94.94,0,0,0,.72.27,1,1,0,0,0,.48-.12,1,1,0,0,0,.4-.32l.58.56a1.38,1.38,0,0,1-.38.34,1.62,1.62,0,0,1-.5.22,2.27,2.27,0,0,1-.59.07A2.12,2.12,0,0,1,600.1,596.13Z"/><path class="i" d="M603.4,592.22h.79v4.06h-.79Zm2.42,1.6a1,1,0,0,0-.21-.67.78.78,0,0,0-.6-.23.81.81,0,0,0-.6.21.73.73,0,0,0-.22.58l-.08-.78a1.46,1.46,0,0,1,.49-.57,1.22,1.22,0,0,1,.67-.2,1.33,1.33,0,0,1,.73.2,1.18,1.18,0,0,1,.46.56,2.4,2.4,0,0,1,.15.89v2.47h-.79Zm2.42,0a.93.93,0,0,0-.22-.67.85.85,0,0,0-.63-.23.72.72,0,0,0-.57.23.9.9,0,0,0-.21.64l-.16-.78a1.61,1.61,0,0,1,.51-.63,1.23,1.23,0,0,1,.69-.22,1.37,1.37,0,0,1,.75.2,1.09,1.09,0,0,1,.47.56,2.21,2.21,0,0,1,.17.89v2.47h-.8Z"/><path class="i" d="M584.33,605.5l2-2.64a1.85,1.85,0,0,0,.27-.47,1.29,1.29,0,0,0,.09-.45h0a.67.67,0,0,0-.2-.53.81.81,0,0,0-.56-.19.76.76,0,0,0-.56.21,1,1,0,0,0-.27.58h-.82a2,2,0,0,1,.29-.83,1.42,1.42,0,0,1,.56-.53,1.67,1.67,0,0,1,.79-.18,1.93,1.93,0,0,1,.87.17,1.21,1.21,0,0,1,.54.51,1.55,1.55,0,0,1,.19.8h0a1.84,1.84,0,0,1-.12.63,2.8,2.8,0,0,1-.35.63l-1.65,2.24h2.15v.76h-3.2Z"/><path class="i" d="M589,605.83a1.67,1.67,0,0,1-.41-1.19v-2.58a1.65,1.65,0,0,1,.41-1.19,2,2,0,0,1,2.42,0,1.65,1.65,0,0,1,.41,1.19v2.58a1.65,1.65,0,0,1-.41,1.19,2,2,0,0,1-2.42,0Zm1.83-.55a.89.89,0,0,0,.2-.64v-2.58a.89.89,0,0,0-.2-.64.82.82,0,0,0-.62-.22.86.86,0,0,0-.63.22.94.94,0,0,0-.19.64v2.58a.89.89,0,0,0,.2.64,1,1,0,0,0,1.24,0Z"/><path class="i" d="M593.22,605.83a1.67,1.67,0,0,1-.41-1.19v-2.58a1.61,1.61,0,0,1,.42-1.19,1.59,1.59,0,0,1,1.2-.42,1.45,1.45,0,0,1,1.62,1.61v2.58a1.61,1.61,0,0,1-.41,1.19,2,2,0,0,1-2.42,0Zm1.84-.55a.94.94,0,0,0,.2-.64v-2.58a.94.94,0,0,0-.2-.64.84.84,0,0,0-.63-.22.82.82,0,0,0-.62.22.89.89,0,0,0-.2.64v2.58a.89.89,0,0,0,.2.64.82.82,0,0,0,.62.22A.86.86,0,0,0,595.06,605.28Z"/><path class="i" d="M600.1,606.05a1.45,1.45,0,0,1-.6-.6,2.06,2.06,0,0,1-.2-1v-.67a2,2,0,0,1,.2-.94,1.37,1.37,0,0,1,.6-.59,2,2,0,0,1,.95-.21,2.35,2.35,0,0,1,.6.08,1.73,1.73,0,0,1,.5.22,1.38,1.38,0,0,1,.37.35l-.58.52a1.08,1.08,0,0,0-.4-.3,1.13,1.13,0,0,0-.48-.11,1,1,0,0,0-.71.26,1,1,0,0,0-.26.72v.67a1,1,0,0,0,.25.74.94.94,0,0,0,.72.27,1.14,1.14,0,0,0,.88-.44l.58.56a1.38,1.38,0,0,1-.38.34,1.62,1.62,0,0,1-.5.22,2.22,2.22,0,0,1-.59.07A2.12,2.12,0,0,1,600.1,606.05Z"/><path class="i" d="M603.4,602.14h.79v4.06h-.79Zm2.42,1.6a1,1,0,0,0-.21-.67.78.78,0,0,0-.6-.23.81.81,0,0,0-.6.21.73.73,0,0,0-.22.58l-.08-.78a1.46,1.46,0,0,1,.49-.57,1.22,1.22,0,0,1,.67-.2,1.3,1.3,0,0,1,.73.2,1.18,1.18,0,0,1,.46.56,2.4,2.4,0,0,1,.16.89v2.47h-.8Zm2.42,0a.93.93,0,0,0-.22-.67.85.85,0,0,0-.63-.23.73.73,0,0,0-.57.23.89.89,0,0,0-.2.64l-.16-.78a1.51,1.51,0,0,1,.5-.63,1.23,1.23,0,0,1,.69-.22,1.35,1.35,0,0,1,.75.2,1.16,1.16,0,0,1,.48.56,2.4,2.4,0,0,1,.16.89v2.47h-.8Z"/><path class="i" d="M585,615.58a1.34,1.34,0,0,1-.54-.49,2,2,0,0,1-.28-.77h.8a.75.75,0,0,0,.25.49.85.85,0,0,0,.54.17.72.72,0,0,0,.59-.25,1.1,1.1,0,0,0,.21-.72v-.48a1.1,1.1,0,0,0-.21-.72.72.72,0,0,0-.59-.25.83.83,0,0,0-.4.11,1.18,1.18,0,0,0-.34.33h-.72v-3h2.89v.76h-2.1V612a1,1,0,0,1,.34-.18.94.94,0,0,1,.37-.07,1.68,1.68,0,0,1,.84.2,1.29,1.29,0,0,1,.53.6,2.07,2.07,0,0,1,.19.94V614a2.25,2.25,0,0,1-.19.94,1.31,1.31,0,0,1-.55.59,1.69,1.69,0,0,1-.86.21A1.74,1.74,0,0,1,585,615.58Z"/><path class="i" d="M589,615.32a1.65,1.65,0,0,1-.41-1.19v-2.58a1.67,1.67,0,0,1,.41-1.19,2,2,0,0,1,2.42,0,1.65,1.65,0,0,1,.41,1.19v2.58a1.64,1.64,0,0,1-.41,1.19,1.92,1.92,0,0,1-2.42,0Zm1.83-.55a.89.89,0,0,0,.2-.64v-2.58a.88.88,0,0,0-.2-.63.78.78,0,0,0-.62-.22.82.82,0,0,0-.63.22.93.93,0,0,0-.2.63v2.58a.9.9,0,0,0,.21.64,1,1,0,0,0,1.24,0Z"/><path class="i" d="M593.22,615.32a1.65,1.65,0,0,1-.41-1.19v-2.58a1.67,1.67,0,0,1,.41-1.19,2,2,0,0,1,2.42,0,1.61,1.61,0,0,1,.41,1.19v2.58a1.64,1.64,0,0,1-.41,1.19,1.92,1.92,0,0,1-2.42,0Zm1.83-.55a.9.9,0,0,0,.21-.64v-2.58a.93.93,0,0,0-.2-.63.82.82,0,0,0-.63-.22.78.78,0,0,0-.62.22.88.88,0,0,0-.2.63v2.58a.89.89,0,0,0,.2.64,1,1,0,0,0,1.24,0Z"/><path class="i" d="M600.1,615.54a1.45,1.45,0,0,1-.6-.6,2,2,0,0,1-.21-1v-.67a2,2,0,0,1,.21-.94,1.45,1.45,0,0,1,.6-.6,2,2,0,0,1,.95-.2,2.22,2.22,0,0,1,.59.07,2,2,0,0,1,.51.22,1.76,1.76,0,0,1,.37.35l-.58.52a1.17,1.17,0,0,0-.4-.3,1.13,1.13,0,0,0-.48-.11.94.94,0,0,0-.71.26,1,1,0,0,0-.26.73V614a1.07,1.07,0,0,0,.25.74,1,1,0,0,0,.72.26,1.13,1.13,0,0,0,.48-.11,1.26,1.26,0,0,0,.4-.32l.58.55a1.42,1.42,0,0,1-.38.35,1.88,1.88,0,0,1-.5.21,2.27,2.27,0,0,1-.59.08A2,2,0,0,1,600.1,615.54Z"/><path class="i" d="M603.4,611.63h.79v4.06h-.79Zm2.42,1.6a1,1,0,0,0-.21-.66.75.75,0,0,0-.6-.24.81.81,0,0,0-.6.21.75.75,0,0,0-.22.58l-.08-.78a1.5,1.5,0,0,1,.49-.56,1.15,1.15,0,0,1,.67-.2,1.32,1.32,0,0,1,.73.19,1.28,1.28,0,0,1,.46.56,2.42,2.42,0,0,1,.15.9v2.46h-.79Zm2.42,0a.91.91,0,0,0-.22-.66.82.82,0,0,0-.63-.24.72.72,0,0,0-.57.23.9.9,0,0,0-.21.64l-.16-.78a1.51,1.51,0,0,1,.51-.62,1.16,1.16,0,0,1,.69-.22,1.37,1.37,0,0,1,.75.19,1.18,1.18,0,0,1,.47.56,2.22,2.22,0,0,1,.17.9v2.46h-.8Z"/><path class="g" d="M23.49,613.89A12.92,12.92,0,1,1,36.4,601,12.93,12.93,0,0,1,23.49,613.89Zm0-24.83A11.92,11.92,0,1,0,35.4,601,11.93,11.93,0,0,0,23.49,589.06Z"/><polygon class="h" points="35.77 588.74 9.42 600.98 35.77 613.21 32.02 600.98 35.77 588.74"/><path class="g" d="M36.58,614.14,8.23,601l28.35-13.17-4,13.17ZM10.61,601,35,612.29,31.5,601,35,589.66Z"/><path class="g" d="M2.52,605.19a5,5,0,0,1-1.11-.38,4.4,4.4,0,0,1-1-.64l.81-1a3.72,3.72,0,0,0,1.16.69,4.08,4.08,0,0,0,1.38.23,2.73,2.73,0,0,0,1.55-.38,1.17,1.17,0,0,0,.55-1.05h0a1.12,1.12,0,0,0-.25-.77,1.44,1.44,0,0,0-.64-.42,8.23,8.23,0,0,0-1-.25H3.89l-.1,0a9.48,9.48,0,0,1-1.5-.36,2.08,2.08,0,0,1-1-.73,2.42,2.42,0,0,1-.41-1.51h0a2.77,2.77,0,0,1,.38-1.47,2.44,2.44,0,0,1,1.12-.92,4.48,4.48,0,0,1,1.77-.32,4.6,4.6,0,0,1,1,.11,4.9,4.9,0,0,1,1.86.86l-.73,1a4.61,4.61,0,0,0-1-.58,3,3,0,0,0-1.06-.2,2.44,2.44,0,0,0-1.46.38,1.24,1.24,0,0,0-.53,1.07h0a1,1,0,0,0,.27.75,1.74,1.74,0,0,0,.67.4,9.3,9.3,0,0,0,1.12.27h.24a7.93,7.93,0,0,1,1.4.41,2.22,2.22,0,0,1,.94.76,2.4,2.4,0,0,1,.38,1.43h0a2.62,2.62,0,0,1-.4,1.45,2.54,2.54,0,0,1-1.16.91,4.8,4.8,0,0,1-1.83.31A6.44,6.44,0,0,1,2.52,605.19Z"/><rect class="g" x="612.5" y="600.68" width="1" height="4.68"/><rect class="g" x="612.5" y="590.76" width="1" height="4.68"/><rect class="g" x="612.5" y="611.45" width="1" height="5.24"/><rect class="g" x="789.58" y="611.45" width="1" height="5.24"/><rect class="g" x="682.59" y="600.68" width="1" height="4.68"/><rect class="g" x="647.3" y="590.76" width="1" height="4.68"/><rect class="a" width="790.34" height="618.13"/><polygon class="j" points="37.41 404.92 250.35 404.92 253.26 404.92 37.41 404.92"/><rect class="h" x="153.12" y="375.82" width="121.19" height="20.88"/><line class="k" x1="153.12" y1="375.82" x2="153.12" y2="396.71"/><line class="k" x1="274.31" y1="375.82" x2="153.12" y2="375.82"/><line class="k" x1="274.31" y1="396.71" x2="274.31" y2="375.82"/><line class="k" x1="153.12" y1="396.71" x2="274.31" y2="396.71"/><rect class="h" x="276.71" y="376.16" width="18.14" height="20.54"/><line class="k" x1="276.71" y1="376.16" x2="276.71" y2="396.71"/><line class="k" x1="294.86" y1="376.16" x2="276.71" y2="376.16"/><line class="k" x1="294.86" y1="396.71" x2="294.86" y2="376.16"/><line class="k" x1="276.71" y1="396.71" x2="294.85" y2="396.71"/><rect class="h" x="437.61" y="316.25" width="59.91" height="27.22"/><line class="k" x1="437.61" y1="316.25" x2="437.61" y2="343.47"/><line class="k" x1="497.53" y1="316.25" x2="437.62" y2="316.25"/><line class="k" x1="497.53" y1="343.47" x2="497.53" y2="316.25"/><line class="k" x1="437.61" y1="343.47" x2="497.53" y2="343.47"/><line class="k" x1="168.19" y1="404.92" x2="168.19" y2="404.92"/><line class="k" x1="253.26" y1="404.92" x2="168.18" y2="404.92"/><line class="k" x1="253.26" y1="404.92" x2="253.26" y2="404.92"/><line class="k" x1="418.61" y1="404.92" x2="418.61" y2="404.92"/><line class="k" x1="418.61" y1="404.92" x2="462.61" y2="404.92"/><line class="k" x1="462.61" y1="404.92" x2="462.61" y2="404.92"/><line class="k" x1="333.2" y1="379.59" x2="333.2" y2="374.45"/><line class="k" x1="333.2" y1="374.45" x2="365.72" y2="374.45"/><line class="k" x1="365.72" y1="374.45" x2="365.72" y2="379.59"/><rect x="466.03" y="269.69" width="68.47" height="6.85"/><polygon class="l" points="431.8 269.69 431.8 276.54 397.56 276.54 397.56 331.32 370.17 331.32 370.17 324.47 390.71 324.47 390.71 269.69 431.8 269.69"/><rect x="601.26" y="262.85" width="40.05" height="6.85"/><rect x="417.24" y="262.85" width="16.26" height="6.85"/><rect x="464.32" y="262.85" width="71.89" height="6.85"/><polygon class="l" points="368.46 317.62 383.87 317.62 383.87 262.85 417.25 262.85 417.25 269.69 390.71 269.69 390.71 324.47 368.46 324.47 368.46 317.62"/><rect x="144.22" y="262.85" width="37.66" height="6.85"/><polygon class="l" points="288.01 262.85 288.01 317.62 303.41 317.62 303.41 324.47 281.16 324.47 281.16 269.69 246.93 269.69 246.93 262.85 288.01 262.85"/><polygon class="l" points="281.16 269.69 281.16 324.47 301.7 324.47 301.7 331.32 274.31 331.32 274.31 276.54 248.64 276.54 248.64 269.69 281.16 269.69"/><rect x="500.95" y="276.54" width="2.4" height="3.42"/><rect x="37.41" y="262.85" width="41.77" height="6.85"/><rect x="602.97" y="269.69" width="38.34" height="6.85"/><rect x="37.41" y="269.69" width="40.06" height="6.85"/><rect x="145.93" y="269.69" width="34.24" height="6.85"/><rect x="37.41" y="276.54" width="8.22" height="128.38"/><rect x="633.1" y="276.54" width="8.22" height="128.38"/><rect x="331.49" y="400.98" width="1.71" height="3.94"/><rect x="295.54" y="400.98" width="1.71" height="3.94"/><rect x="274.31" y="363.84" width="2.4" height="32.87"/><rect x="274.31" y="331.32" width="2.4" height="1.71"/><rect x="435.22" y="372.74" width="2.4" height="23.97"/><rect x="45.62" y="396.71" width="249.92" height="8.22"/><polygon class="l" points="333.2 404.92 333.2 396.7 633.1 396.7 633.1 404.92 414.68 404.92 333.2 404.92"/><polygon class="l" points="435.22 345.35 435.22 313.86 500.95 313.86 500.95 310.77 503.35 310.77 503.35 377.19 537.58 377.19 537.58 396.71 535.18 396.71 535.18 379.59 487.26 379.59 487.26 396.71 484.86 396.71 484.86 377.19 500.95 377.19 500.95 316.25 437.62 316.25 437.62 345.35 435.22 345.35"/><polygon class="l" points="40.15 262.85 40.15 262.85 41.52 262.85 41.52 230.32 42.88 230.32 42.88 262.85 40.15 262.85"/><polygon class="l" points="635.84 262.85 635.84 230.32 637.21 230.32 637.21 262.85 638.58 262.85 635.84 262.85"/><rect x="125.73" y="376.16" width="3.42" height="20.54"/><polygon class="l" points="129.16 376.17 153.12 376.17 153.12 396.71 149.7 396.71 149.7 379.59 129.16 379.59 129.16 376.17"/><polygon class="l" points="365.72 379.59 365.72 396.71 362.3 396.71 362.3 383.01 336.62 383.01 336.62 396.71 333.2 396.71 333.2 379.59 365.72 379.59"/><polygon class="l" points="514.64 396.71 514.64 391.23 514.64 379.59 518.07 379.59 518.07 396.71 514.64 396.71"/><line class="k" x1="484.86" y1="396.71" x2="487.26" y2="396.71"/><line class="k" x1="336.62" y1="383.01" x2="362.3" y2="383.01"/><line class="k" x1="641.31" y1="262.85" x2="601.26" y2="262.85"/><line class="k" x1="536.21" y1="262.85" x2="464.32" y2="262.85"/><line class="k" x1="433.51" y1="262.85" x2="383.86" y2="262.85"/><line class="k" x1="641.31" y1="276.54" x2="641.31" y2="276.54"/><line class="k" x1="633.1" y1="276.54" x2="602.97" y2="276.54"/><line class="k" x1="534.5" y1="276.54" x2="503.35" y2="276.54"/><line class="k" x1="500.95" y1="276.54" x2="466.03" y2="276.54"/><line class="k" x1="431.79" y1="276.54" x2="397.56" y2="276.54"/><line class="k" x1="258.91" y1="404.92" x2="258.91" y2="404.92"/><line class="k" x1="246.93" y1="262.85" x2="288.01" y2="262.85"/><line class="k" x1="248.64" y1="276.54" x2="274.32" y2="276.54"/><line class="k" x1="276.71" y1="331.32" x2="301.7" y2="331.32"/><line class="k" x1="370.17" y1="331.32" x2="397.56" y2="331.32"/><line class="k" x1="288.01" y1="262.85" x2="288.01" y2="317.62"/><line class="k" x1="397.56" y1="276.54" x2="397.56" y2="331.32"/><line class="k" x1="435.22" y1="313.86" x2="435.22" y2="345.35"/><line class="k" x1="435.22" y1="372.74" x2="435.22" y2="396.71"/><line class="k" x1="437.61" y1="316.25" x2="437.61" y2="345.35"/><line class="k" x1="437.61" y1="372.74" x2="437.61" y2="396.71"/><line class="k" x1="500.95" y1="276.54" x2="500.95" y2="279.96"/><line class="k" x1="500.95" y1="310.78" x2="500.95" y2="313.86"/><line class="k" x1="500.95" y1="316.25" x2="500.95" y2="377.19"/><line class="k" x1="503.35" y1="276.54" x2="503.35" y2="279.96"/><line class="k" x1="503.35" y1="310.78" x2="503.35" y2="377.19"/><line class="k" x1="383.87" y1="262.85" x2="383.87" y2="317.62"/><line class="k" x1="274.31" y1="276.54" x2="274.31" y2="331.32"/><line class="k" x1="248.64" y1="276.54" x2="248.64" y2="269.69"/><line class="k" x1="246.93" y1="262.85" x2="246.93" y2="269.69"/><line class="k" x1="246.93" y1="269.69" x2="248.64" y2="269.69"/><line class="k" x1="370.17" y1="331.32" x2="370.17" y2="324.47"/><line class="k" x1="301.7" y1="331.32" x2="301.7" y2="324.47"/><line class="k" x1="301.7" y1="324.47" x2="303.41" y2="324.47"/><line class="k" x1="303.41" y1="324.47" x2="303.41" y2="317.62"/><line class="k" x1="368.46" y1="317.62" x2="368.46" y2="324.47"/><line class="k" x1="368.46" y1="324.47" x2="370.17" y2="324.47"/><line class="k" x1="288.01" y1="317.62" x2="303.41" y2="317.62"/><line class="k" x1="368.46" y1="317.62" x2="383.87" y2="317.62"/><line class="k" x1="487.26" y1="379.59" x2="514.64" y2="379.59"/><line class="k" x1="514.64" y1="379.59" x2="514.64" y2="396.71"/><line class="k" x1="514.64" y1="396.71" x2="487.26" y2="396.71"/><line class="k" x1="484.86" y1="379.59" x2="484.86" y2="377.19"/><line class="k" x1="484.86" y1="377.19" x2="500.95" y2="377.19"/><line class="k" x1="503.35" y1="377.19" x2="518.07" y2="377.19"/><line class="k" x1="518.07" y1="379.59" x2="518.07" y2="396.71"/><line class="k" x1="37.41" y1="404.92" x2="253.26" y2="404.92"/><line class="k" x1="258.91" y1="404.92" x2="295.54" y2="404.92"/><line class="k" x1="333.2" y1="404.92" x2="412.97" y2="404.92"/><line class="k" x1="418.61" y1="404.92" x2="633.1" y2="404.92"/><line class="k" x1="633.1" y1="404.92" x2="641.31" y2="404.92"/><line class="k" x1="45.62" y1="396.71" x2="125.73" y2="396.71"/><line class="k" x1="129.16" y1="396.71" x2="149.7" y2="396.71"/><line class="k" x1="153.12" y1="396.71" x2="274.31" y2="396.71"/><line class="k" x1="276.71" y1="396.71" x2="295.54" y2="396.71"/><line class="k" x1="336.62" y1="396.71" x2="362.3" y2="396.71"/><line class="k" x1="365.72" y1="396.71" x2="435.22" y2="396.71"/><line class="k" x1="437.61" y1="396.71" x2="484.86" y2="396.71"/><line class="k" x1="487.26" y1="396.71" x2="514.64" y2="396.71"/><line class="k" x1="518.07" y1="396.71" x2="535.19" y2="396.71"/><line class="k" x1="537.58" y1="396.71" x2="633.1" y2="396.71"/><line class="k" x1="437.61" y1="316.25" x2="500.95" y2="316.25"/><line class="k" x1="435.22" y1="313.86" x2="500.95" y2="313.86"/><line class="k" x1="274.31" y1="331.32" x2="274.31" y2="333.03"/><line class="k" x1="274.31" y1="363.84" x2="274.31" y2="396.71"/><line class="k" x1="276.71" y1="331.32" x2="276.71" y2="333.03"/><line class="k" x1="276.71" y1="363.84" x2="276.71" y2="396.71"/><line class="k" x1="45.62" y1="276.54" x2="45.62" y2="376.16"/><line class="k" x1="45.62" y1="376.16" x2="45.62" y2="396.71"/><line class="k" x1="37.41" y1="262.85" x2="79.17" y2="262.85"/><line class="k" x1="144.22" y1="262.85" x2="181.88" y2="262.85"/><line class="k" x1="145.93" y1="276.54" x2="180.17" y2="276.54"/><line class="k" x1="248.64" y1="276.54" x2="248.64" y2="269.69"/><line class="k" x1="180.17" y1="276.54" x2="180.17" y2="269.69"/><line class="k" x1="145.93" y1="276.54" x2="145.93" y2="269.69"/><line class="k" x1="180.17" y1="269.69" x2="181.88" y2="269.69"/><line class="k" x1="181.88" y1="269.69" x2="181.88" y2="262.85"/><line class="k" x1="246.93" y1="262.85" x2="246.93" y2="269.69"/><line class="k" x1="246.93" y1="269.69" x2="248.64" y2="269.69"/><line class="k" x1="145.93" y1="269.69" x2="144.22" y2="269.69"/><line class="k" x1="144.22" y1="269.69" x2="144.22" y2="262.85"/><line class="k" x1="79.17" y1="262.85" x2="79.17" y2="269.69"/><line class="k" x1="79.17" y1="269.69" x2="77.46" y2="269.69"/><line class="k" x1="77.46" y1="276.54" x2="77.46" y2="269.69"/><line class="k" x1="641.31" y1="276.54" x2="641.31" y2="402.52"/><line class="k" x1="633.1" y1="276.54" x2="633.1" y2="396.7"/><line class="k" x1="641.31" y1="402.52" x2="641.31" y2="402.52"/><line class="k" x1="153.12" y1="376.16" x2="153.12" y2="396.71"/><line class="k" x1="45.62" y1="276.54" x2="77.46" y2="276.54"/><line class="k" x1="274.31" y1="333.03" x2="276.71" y2="333.03"/><line class="k" x1="274.31" y1="363.84" x2="276.71" y2="363.84"/><line class="k" x1="253.26" y1="404.92" x2="253.26" y2="404.92"/><line class="k" x1="418.61" y1="404.92" x2="418.61" y2="404.92"/><line class="k" x1="412.97" y1="404.92" x2="412.97" y2="404.92"/><line class="k" x1="297.25" y1="400.98" x2="297.25" y2="404.92"/><line class="k" x1="331.49" y1="400.98" x2="331.49" y2="404.92"/><line class="k" x1="297.25" y1="400.98" x2="295.54" y2="400.98"/><line class="k" x1="295.54" y1="400.98" x2="295.54" y2="396.71"/><line class="k" x1="331.49" y1="400.98" x2="333.2" y2="400.98"/><line class="k" x1="333.2" y1="400.98" x2="333.2" y2="396.71"/><line class="k" x1="297.25" y1="404.92" x2="295.54" y2="404.92"/><line class="k" x1="331.49" y1="404.92" x2="333.2" y2="404.92"/><line class="k" x1="333.2" y1="396.71" x2="333.2" y2="379.59"/><line class="k" x1="336.62" y1="396.71" x2="336.62" y2="383.01"/><line class="k" x1="333.2" y1="379.59" x2="365.72" y2="379.59"/><line class="k" x1="365.72" y1="379.59" x2="365.72" y2="396.71"/><line class="k" x1="362.3" y1="383.01" x2="362.3" y2="396.71"/><line class="k" x1="435.22" y1="345.35" x2="437.61" y2="345.35"/><line class="k" x1="435.22" y1="372.74" x2="437.61" y2="372.74"/><line class="k" x1="503.35" y1="279.96" x2="500.95" y2="279.96"/><line class="k" x1="503.35" y1="310.78" x2="500.95" y2="310.78"/><line class="k" x1="602.97" y1="276.54" x2="602.97" y2="269.69"/><line class="k" x1="602.97" y1="269.69" x2="601.26" y2="269.69"/><line class="k" x1="601.26" y1="269.69" x2="601.26" y2="262.85"/><line class="k" x1="534.5" y1="276.54" x2="534.5" y2="269.69"/><line class="k" x1="534.5" y1="269.69" x2="536.21" y2="269.69"/><line class="k" x1="536.21" y1="269.69" x2="536.21" y2="262.85"/><line class="k" x1="431.79" y1="276.54" x2="431.79" y2="269.69"/><line class="k" x1="466.03" y1="276.54" x2="466.03" y2="269.69"/><line class="k" x1="466.03" y1="269.69" x2="464.32" y2="269.69"/><line class="k" x1="464.32" y1="269.69" x2="464.32" y2="262.85"/><line class="k" x1="433.51" y1="262.85" x2="433.51" y2="269.69"/><line class="k" x1="431.79" y1="269.69" x2="433.51" y2="269.69"/><line class="k" x1="42.88" y1="230.32" x2="42.88" y2="262.85"/><line class="k" x1="41.51" y1="230.32" x2="42.88" y2="230.32"/><line class="k" x1="635.84" y1="230.32" x2="635.84" y2="262.85"/><line class="k" x1="635.84" y1="230.32" x2="637.21" y2="230.32"/><line class="k" x1="153.12" y1="375.82" x2="274.31" y2="375.82"/><line class="k" x1="274.31" y1="375.82" x2="274.31" y2="396.71"/><line class="k" x1="274.31" y1="396.71" x2="153.12" y2="396.71"/><line class="k" x1="153.12" y1="396.71" x2="153.12" y2="375.82"/><line class="k" x1="301.7" y1="331.32" x2="370.17" y2="331.32"/><line class="k" x1="303.41" y1="321.05" x2="368.46" y2="321.05"/><line class="k" x1="248.64" y1="269.69" x2="248.64" y2="272.43"/><line class="k" x1="248.64" y1="272.43" x2="245.9" y2="272.43"/><line class="k" x1="245.9" y1="272.43" x2="245.9" y2="269.69"/><line class="k" x1="245.9" y1="269.69" x2="248.64" y2="269.69"/><line class="k" x1="337.31" y1="325.15" x2="337.31" y2="324.47"/><line class="k" x1="337.31" y1="324.47" x2="334.57" y2="324.47"/><line class="k" x1="334.57" y1="324.47" x2="334.57" y2="327.21"/><line class="k" x1="334.57" y1="327.21" x2="335.94" y2="327.21"/><line class="k" x1="335.94" y1="327.89" x2="338.68" y2="327.89"/><line class="k" x1="338.67" y1="327.89" x2="338.67" y2="325.15"/><line class="k" x1="338.67" y1="325.15" x2="335.94" y2="325.15"/><line class="k" x1="335.94" y1="325.15" x2="335.94" y2="327.89"/><line class="k" x1="367.43" y1="325.15" x2="367.43" y2="324.47"/><line class="k" x1="367.43" y1="324.47" x2="370.17" y2="324.47"/><line class="k" x1="370.17" y1="324.47" x2="370.17" y2="327.21"/><line class="k" x1="370.17" y1="327.21" x2="368.8" y2="327.21"/><line class="k" x1="368.8" y1="327.89" x2="366.06" y2="327.89"/><line class="k" x1="366.06" y1="327.89" x2="366.06" y2="325.15"/><line class="k" x1="366.06" y1="325.15" x2="368.8" y2="325.15"/><line class="k" x1="368.8" y1="325.15" x2="368.8" y2="327.89"/><line class="k" x1="338.67" y1="327.89" x2="366.06" y2="327.89"/><line class="k" x1="366.06" y1="325.15" x2="338.68" y2="325.15"/><line class="k" x1="338.67" y1="326.52" x2="366.06" y2="326.52"/><line class="k" x1="301.7" y1="324.47" x2="301.7" y2="327.21"/><line class="k" x1="301.7" y1="327.21" x2="304.44" y2="327.21"/><line class="k" x1="304.44" y1="327.21" x2="304.44" y2="324.47"/><line class="k" x1="304.44" y1="324.47" x2="301.7" y2="324.47"/><line class="k" x1="334.57" y1="324.47" x2="304.44" y2="324.47"/><line class="k" x1="334.57" y1="327.21" x2="304.44" y2="327.21"/><line class="k" x1="304.44" y1="325.84" x2="334.57" y2="325.84"/><line class="k" x1="335.94" y1="331.32" x2="335.94" y2="341.59"/><line class="k" x1="335.94" y1="341.59" x2="370.17" y2="341.59"/><line class="k" x1="370.17" y1="341.59" x2="370.17" y2="331.32"/><line class="k" x1="368.8" y1="327.89" x2="368.8" y2="360.76"/><g class="m"><path class="k" d="M368.8,360.76a32.87,32.87,0,0,1-32.86-32.87"/></g><line class="k" x1="181.88" y1="266.27" x2="246.93" y2="266.27"/><line class="k" x1="145.93" y1="276.54" x2="77.46" y2="276.54"/><line class="k" x1="248.64" y1="276.54" x2="180.17" y2="276.54"/><line class="k" x1="111.7" y1="276.54" x2="111.7" y2="286.81"/><line class="k" x1="111.7" y1="286.81" x2="145.93" y2="286.81"/><line class="k" x1="145.93" y1="286.81" x2="145.93" y2="276.54"/><line class="k" x1="113.07" y1="270.38" x2="113.07" y2="269.69"/><line class="k" x1="113.07" y1="269.69" x2="110.33" y2="269.69"/><line class="k" x1="110.33" y1="269.69" x2="110.33" y2="272.43"/><line class="k" x1="110.33" y1="272.43" x2="111.7" y2="272.43"/><line class="k" x1="111.7" y1="273.12" x2="114.44" y2="273.12"/><line class="k" x1="114.44" y1="273.12" x2="114.44" y2="270.38"/><line class="k" x1="114.44" y1="270.38" x2="111.7" y2="270.38"/><line class="k" x1="111.7" y1="270.38" x2="111.7" y2="273.12"/><line class="k" x1="143.19" y1="270.38" x2="143.19" y2="269.69"/><line class="k" x1="143.19" y1="269.69" x2="145.93" y2="269.69"/><line class="k" x1="145.93" y1="269.69" x2="145.93" y2="272.43"/><line class="k" x1="145.93" y1="272.43" x2="144.56" y2="272.43"/><line class="k" x1="144.56" y1="273.12" x2="141.82" y2="273.12"/><line class="k" x1="141.82" y1="273.12" x2="141.82" y2="270.38"/><line class="k" x1="141.82" y1="270.38" x2="144.56" y2="270.38"/><line class="k" x1="144.56" y1="270.38" x2="144.56" y2="273.12"/><line class="k" x1="114.44" y1="273.12" x2="141.82" y2="273.12"/><line class="k" x1="141.82" y1="270.38" x2="114.44" y2="270.38"/><line class="k" x1="114.44" y1="271.75" x2="141.82" y2="271.75"/><line class="k" x1="77.46" y1="269.69" x2="77.46" y2="272.43"/><line class="k" x1="77.46" y1="272.43" x2="80.2" y2="272.43"/><line class="k" x1="80.2" y1="272.43" x2="80.2" y2="269.69"/><line class="k" x1="80.2" y1="269.69" x2="77.46" y2="269.69"/><line class="k" x1="110.33" y1="269.69" x2="80.2" y2="269.69"/><line class="k" x1="110.33" y1="272.43" x2="80.2" y2="272.43"/><line class="k" x1="144.56" y1="273.12" x2="144.56" y2="305.98"/><g class="m"><path class="k" d="M144.56,306a32.86,32.86,0,0,1-32.86-32.86"/></g><line class="k" x1="80.2" y1="271.06" x2="110.33" y2="271.06"/><line class="k" x1="144.22" y1="266.27" x2="79.17" y2="266.27"/><line class="k" x1="213.03" y1="270.38" x2="213.03" y2="269.69"/><line class="k" x1="213.03" y1="269.69" x2="215.77" y2="269.69"/><line class="k" x1="215.77" y1="269.69" x2="215.77" y2="272.43"/><line class="k" x1="215.77" y1="272.43" x2="214.4" y2="272.43"/><line class="k" x1="214.4" y1="273.12" x2="211.66" y2="273.12"/><line class="k" x1="211.66" y1="273.12" x2="211.66" y2="270.38"/><line class="k" x1="211.66" y1="270.38" x2="214.4" y2="270.38"/><line class="k" x1="214.4" y1="270.38" x2="214.4" y2="273.12"/><line class="k" x1="182.91" y1="270.38" x2="182.91" y2="269.69"/><line class="k" x1="182.91" y1="269.69" x2="180.17" y2="269.69"/><line class="k" x1="180.17" y1="269.69" x2="180.17" y2="272.43"/><line class="k" x1="180.17" y1="272.43" x2="181.54" y2="272.43"/><line class="k" x1="181.54" y1="273.12" x2="184.28" y2="273.12"/><line class="k" x1="184.28" y1="273.12" x2="184.28" y2="270.38"/><line class="k" x1="184.28" y1="270.38" x2="181.54" y2="270.38"/><line class="k" x1="181.54" y1="270.38" x2="181.54" y2="273.12"/><line class="k" x1="211.66" y1="273.12" x2="184.28" y2="273.12"/><line class="k" x1="184.28" y1="270.38" x2="211.66" y2="270.38"/><line class="k" x1="211.66" y1="271.75" x2="184.28" y2="271.75"/><line class="k" x1="248.64" y1="269.69" x2="248.64" y2="272.43"/><line class="k" x1="248.64" y1="272.43" x2="245.9" y2="272.43"/><line class="k" x1="245.9" y1="272.43" x2="245.9" y2="269.69"/><line class="k" x1="245.9" y1="269.69" x2="248.64" y2="269.69"/><line class="k" x1="215.77" y1="269.69" x2="245.9" y2="269.69"/><line class="k" x1="215.77" y1="272.43" x2="245.9" y2="272.43"/><line class="k" x1="245.9" y1="271.06" x2="215.77" y2="271.06"/><line class="k" x1="276.71" y1="334.74" x2="276.71" y2="362.13"/><line class="k" x1="276.71" y1="334.74" x2="304.1" y2="334.74"/><g class="m"><path class="k" d="M304.1,334.74a27.39,27.39,0,0,1-27.39,27.39"/></g><line class="k" x1="274.31" y1="334.74" x2="276.71" y2="334.74"/><line class="k" x1="276.71" y1="362.13" x2="274.31" y2="362.13"/><line class="k" x1="276.71" y1="362.13" x2="276.71" y2="363.84"/><line class="k" x1="274.31" y1="362.13" x2="274.31" y2="363.84"/><line class="k" x1="276.71" y1="333.03" x2="276.71" y2="334.74"/><line class="k" x1="274.31" y1="333.03" x2="274.31" y2="334.74"/><line class="k" x1="274.31" y1="334.74" x2="274.31" y2="341.59"/><line class="k" x1="274.31" y1="345.35" x2="274.31" y2="346.12"/><line class="k" x1="274.31" y1="349.89" x2="274.31" y2="350.66"/><line class="k" x1="274.31" y1="354.43" x2="274.31" y2="355.28"/><line class="k" x1="274.31" y1="355.28" x2="274.31" y2="362.13"/><line class="k" x1="276.71" y1="334.74" x2="277.57" y2="334.74"/><line class="k" x1="277.57" y1="334.74" x2="277.57" y2="331.32"/><line class="k" x1="277.57" y1="331.32" x2="276.71" y2="331.32"/><line class="k" x1="274.31" y1="334.74" x2="273.46" y2="334.74"/><line class="k" x1="273.46" y1="334.74" x2="273.46" y2="331.32"/><line class="k" x1="273.46" y1="331.32" x2="274.31" y2="331.32"/><line class="k" x1="277.57" y1="362.13" x2="277.57" y2="365.55"/><line class="k" x1="277.57" y1="365.55" x2="276.71" y2="365.55"/><line class="k" x1="274.31" y1="362.13" x2="273.46" y2="362.13"/><line class="k" x1="273.46" y1="362.13" x2="273.46" y2="365.55"/><line class="k" x1="273.46" y1="365.55" x2="274.31" y2="365.55"/><line class="k" x1="41.51" y1="228.61" x2="637.21" y2="228.61"/><line class="k" x1="329.77" y1="400.98" x2="298.96" y2="400.98"/><line class="k" x1="329.77" y1="404.92" x2="298.96" y2="404.92"/><line class="k" x1="329.77" y1="400.98" x2="329.77" y2="370.17"/><g class="m"><path class="k" d="M299,401a30.82,30.82,0,0,1,30.81-30.81"/></g><line class="k" x1="329.77" y1="404.92" x2="329.77" y2="400.98"/><line class="k" x1="298.96" y1="400.98" x2="298.96" y2="404.92"/><line class="k" x1="298.96" y1="400.98" x2="297.25" y2="400.98"/><line class="k" x1="298.96" y1="404.92" x2="297.25" y2="404.92"/><line class="k" x1="331.49" y1="400.98" x2="329.77" y2="400.98"/><line class="k" x1="331.49" y1="404.92" x2="329.77" y2="404.92"/><line class="k" x1="490.08" y1="340.73" x2="490.9" y2="340.65"/><line class="k" x1="490.9" y1="340.65" x2="491.69" y2="340.42"/><line class="k" x1="491.69" y1="340.42" x2="492.44" y2="340.04"/><line class="k" x1="492.44" y1="340.04" x2="493.11" y2="339.53"/><line class="k" x1="493.11" y1="339.53" x2="493.69" y2="338.9"/><line class="k" x1="493.69" y1="338.9" x2="494.16" y2="338.16"/><line class="k" x1="494.16" y1="338.16" x2="494.5" y2="337.35"/><line class="k" x1="494.5" y1="337.35" x2="494.72" y2="336.49"/><line class="k" x1="494.72" y1="336.49" x2="494.79" y2="335.6"/><line class="k" x1="494.79" y1="335.6" x2="494.79" y2="324.3"/><line class="k" x1="494.79" y1="324.3" x2="494.72" y2="323.41"/><line class="k" x1="494.72" y1="323.41" x2="494.5" y2="322.54"/><line class="k" x1="494.5" y1="322.54" x2="494.16" y2="321.73"/><line class="k" x1="494.16" y1="321.73" x2="493.69" y2="321"/><line class="k" x1="493.69" y1="321" x2="493.11" y2="320.36"/><line class="k" x1="493.11" y1="320.36" x2="492.43" y2="319.85"/><line class="k" x1="492.44" y1="319.85" x2="491.69" y2="319.47"/><line class="k" x1="491.69" y1="319.47" x2="490.9" y2="319.24"/><line class="k" x1="490.9" y1="319.24" x2="490.08" y2="319.16"/><line class="k" x1="490.08" y1="319.16" x2="450.24" y2="319.16"/><line class="k" x1="450.24" y1="319.16" x2="448.52" y2="319.33"/><line class="k" x1="448.52" y1="319.33" x2="446.86" y2="319.81"/><line class="k" x1="446.86" y1="319.81" x2="445.3" y2="320.61"/><line class="k" x1="445.3" y1="320.61" x2="443.89" y2="321.69"/><line class="k" x1="443.89" y1="321.69" x2="442.67" y2="323.02"/><line class="k" x1="442.67" y1="323.01" x2="441.68" y2="324.55"/><line class="k" x1="441.68" y1="324.55" x2="440.95" y2="326.26"/><line class="k" x1="440.95" y1="326.26" x2="440.5" y2="328.07"/><line class="k" x1="440.5" y1="328.07" x2="440.35" y2="329.95"/><line class="k" x1="440.35" y1="329.95" x2="440.51" y2="331.82"/><line class="k" x1="440.5" y1="331.82" x2="440.95" y2="333.63"/><line class="k" x1="440.95" y1="333.63" x2="441.68" y2="335.34"/><line class="k" x1="441.68" y1="335.34" x2="442.67" y2="336.88"/><line class="k" x1="442.67" y1="336.88" x2="443.89" y2="338.21"/><line class="k" x1="443.89" y1="338.21" x2="445.3" y2="339.29"/><line class="k" x1="445.3" y1="339.29" x2="446.86" y2="340.08"/><line class="k" x1="446.86" y1="340.08" x2="448.52" y2="340.57"/><line class="k" x1="448.52" y1="340.57" x2="450.24" y2="340.73"/><line class="k" x1="450.24" y1="340.73" x2="490.08" y2="340.73"/><g class="m"><path class="k" d="M489.31,330a.86.86,0,1,0-.86.85.85.85,0,0,0,.86-.85"/></g><line class="k" x1="495.66" y1="329.09" x2="494.22" y2="329.23"/><g class="m"><path class="k" d="M493.89,329.34a.76.76,0,0,1,.33-.11"/></g><line class="k" x1="493.89" y1="329.34" x2="493.9" y2="329.34"/><line class="k" x1="493.89" y1="329.34" x2="492.08" y2="329.57"/><g class="m"><path class="k" d="M492.08,330.33a.39.39,0,0,1-.33-.38.37.37,0,0,1,.33-.38"/></g><line class="k" x1="492.08" y1="330.33" x2="492.08" y2="330.33"/><line class="k" x1="492.08" y1="330.33" x2="493.89" y2="330.55"/><g class="m"><path class="k" d="M494.22,330.67a.77.77,0,0,1-.33-.12"/></g><line class="k" x1="494.22" y1="330.67" x2="494.22" y2="330.67"/><line class="k" x1="494.22" y1="330.67" x2="495.66" y2="330.8"/><g class="m"><path class="k" d="M495.66,329.09a.86.86,0,0,1,0,1.71"/></g><line class="k" x1="495.66" y1="329.09" x2="495.66" y2="329.09"/><line class="k" x1="494.81" y1="330.41" x2="494.29" y2="330.41"/><line class="k" x1="494.29" y1="329.48" x2="494.81" y2="329.48"/><line class="k" x1="494.81" y1="329.48" x2="494.81" y2="330.41"/><g class="m"><path class="k" d="M494.29,330.41a.47.47,0,0,1,0-.93"/><path class="k" d="M493.89,330.55a.72.72,0,0,1,0-1.21"/></g><line class="k" x1="497.53" y1="316.25" x2="497.53" y2="377.19"/><line class="k" x1="484.86" y1="391.57" x2="449.6" y2="391.57"/><line class="k" x1="435.22" y1="371.03" x2="435.22" y2="347.06"/><line class="k" x1="435.22" y1="371.03" x2="411.25" y2="371.03"/><g class="m"><path class="k" d="M411.25,371a24,24,0,0,1,24-24"/></g><line class="k" x1="437.61" y1="371.03" x2="435.22" y2="371.03"/><line class="k" x1="435.22" y1="347.06" x2="437.61" y2="347.06"/><line class="k" x1="435.22" y1="347.06" x2="435.22" y2="345.35"/><line class="k" x1="437.61" y1="347.06" x2="437.61" y2="345.35"/><line class="k" x1="435.22" y1="372.74" x2="435.22" y2="371.03"/><line class="k" x1="437.61" y1="372.74" x2="437.61" y2="371.03"/><line class="k" x1="437.61" y1="371.03" x2="437.61" y2="364.18"/><line class="k" x1="437.61" y1="360.42" x2="437.61" y2="359.64"/><line class="k" x1="437.61" y1="355.88" x2="437.61" y2="355.11"/><line class="k" x1="437.61" y1="353.91" x2="437.61" y2="347.06"/><line class="k" x1="435.22" y1="371.03" x2="434.36" y2="371.03"/><line class="k" x1="434.36" y1="371.03" x2="434.36" y2="374.45"/><line class="k" x1="434.36" y1="374.45" x2="435.22" y2="374.45"/><line class="k" x1="437.61" y1="371.03" x2="438.47" y2="371.03"/><line class="k" x1="438.47" y1="371.03" x2="438.47" y2="374.45"/><line class="k" x1="438.47" y1="374.45" x2="437.62" y2="374.45"/><line class="k" x1="434.36" y1="347.06" x2="434.36" y2="343.64"/><line class="k" x1="434.36" y1="343.64" x2="435.22" y2="343.64"/><line class="k" x1="437.61" y1="347.06" x2="438.47" y2="347.06"/><line class="k" x1="438.47" y1="347.06" x2="438.47" y2="343.64"/><line class="k" x1="438.47" y1="343.64" x2="437.62" y2="343.64"/><line class="k" x1="503.35" y1="281.68" x2="503.35" y2="309.06"/><line class="k" x1="503.35" y1="281.68" x2="530.74" y2="281.68"/><g class="m"><path class="k" d="M530.74,281.68a27.38,27.38,0,0,1-27.39,27.38"/></g><line class="k" x1="500.95" y1="281.68" x2="503.35" y2="281.68"/><line class="k" x1="503.35" y1="309.06" x2="500.95" y2="309.06"/><line class="k" x1="503.35" y1="309.06" x2="503.35" y2="310.78"/><line class="k" x1="500.95" y1="309.06" x2="500.95" y2="310.78"/><line class="k" x1="503.35" y1="279.96" x2="503.35" y2="281.67"/><line class="k" x1="500.95" y1="279.96" x2="500.95" y2="281.67"/><line class="k" x1="500.95" y1="281.68" x2="500.95" y2="288.52"/><line class="k" x1="500.95" y1="292.29" x2="500.95" y2="293.06"/><line class="k" x1="500.95" y1="296.82" x2="500.95" y2="297.59"/><line class="k" x1="500.95" y1="301.36" x2="500.95" y2="302.22"/><line class="k" x1="500.95" y1="302.22" x2="500.95" y2="309.06"/><line class="k" x1="503.35" y1="281.68" x2="504.2" y2="281.68"/><line class="k" x1="504.2" y1="281.68" x2="504.2" y2="278.25"/><line class="k" x1="504.2" y1="278.25" x2="503.35" y2="278.25"/><line class="k" x1="500.95" y1="281.68" x2="500.09" y2="281.68"/><line class="k" x1="500.09" y1="281.68" x2="500.09" y2="278.25"/><line class="k" x1="500.09" y1="278.25" x2="500.95" y2="278.25"/><line class="k" x1="504.2" y1="309.06" x2="504.2" y2="312.49"/><line class="k" x1="504.2" y1="312.49" x2="503.35" y2="312.49"/><line class="k" x1="500.95" y1="309.06" x2="500.09" y2="309.06"/><line class="k" x1="500.09" y1="309.06" x2="500.09" y2="312.49"/><line class="k" x1="500.09" y1="312.49" x2="500.95" y2="312.49"/><line class="k" x1="602.97" y1="276.54" x2="534.5" y2="276.54"/><line class="k" x1="536.21" y1="266.27" x2="601.26" y2="266.27"/><line class="k" x1="601.6" y1="273.12" x2="601.6" y2="305.98"/><line class="k" x1="570.1" y1="270.38" x2="570.1" y2="269.69"/><line class="k" x1="570.1" y1="269.69" x2="567.37" y2="269.69"/><line class="k" x1="567.37" y1="269.69" x2="567.37" y2="272.43"/><line class="k" x1="567.37" y1="272.43" x2="568.74" y2="272.43"/><line class="k" x1="568.74" y1="273.12" x2="571.48" y2="273.12"/><line class="k" x1="571.48" y1="273.12" x2="571.48" y2="270.38"/><line class="k" x1="571.48" y1="270.38" x2="568.74" y2="270.38"/><line class="k" x1="568.74" y1="270.38" x2="568.74" y2="273.12"/><line class="k" x1="600.23" y1="270.38" x2="600.23" y2="269.69"/><line class="k" x1="600.23" y1="269.69" x2="602.97" y2="269.69"/><line class="k" x1="602.97" y1="269.69" x2="602.97" y2="272.43"/><line class="k" x1="602.97" y1="272.43" x2="601.6" y2="272.43"/><line class="k" x1="601.6" y1="273.12" x2="598.86" y2="273.12"/><line class="k" x1="598.86" y1="273.12" x2="598.86" y2="270.38"/><line class="k" x1="598.86" y1="270.38" x2="601.6" y2="270.38"/><line class="k" x1="601.6" y1="270.38" x2="601.6" y2="273.12"/><line class="k" x1="571.48" y1="273.12" x2="598.86" y2="273.12"/><line class="k" x1="598.86" y1="270.38" x2="571.48" y2="270.38"/><line class="k" x1="571.48" y1="271.75" x2="598.86" y2="271.75"/><line class="k" x1="567.37" y1="272.43" x2="537.24" y2="272.43"/><line class="k" x1="537.24" y1="269.69" x2="567.37" y2="269.69"/><line class="k" x1="567.37" y1="271.06" x2="537.24" y2="271.06"/><line class="k" x1="537.24" y1="272.43" x2="534.5" y2="272.43"/><line class="k" x1="534.5" y1="272.43" x2="534.5" y2="269.69"/><line class="k" x1="534.5" y1="269.69" x2="537.24" y2="269.69"/><line class="k" x1="537.24" y1="269.69" x2="537.24" y2="272.43"/><g class="m"><path class="k" d="M601.6,306a32.86,32.86,0,0,1-32.86-32.86"/></g><line class="k" x1="602.97" y1="276.54" x2="602.97" y2="286.81"/><line class="k" x1="602.97" y1="286.81" x2="568.73" y2="286.81"/><line class="k" x1="568.74" y1="286.81" x2="568.74" y2="276.54"/><line class="k" x1="431.79" y1="269.69" x2="431.79" y2="272.43"/><line class="k" x1="431.79" y1="272.43" x2="434.53" y2="272.43"/><line class="k" x1="434.53" y1="272.43" x2="434.53" y2="269.69"/><line class="k" x1="434.53" y1="269.69" x2="433.51" y2="269.69"/><line class="k" x1="464.32" y1="262.85" x2="433.51" y2="262.85"/><line class="k" x1="466.03" y1="276.54" x2="431.79" y2="276.54"/><line class="k" x1="466.03" y1="272.43" x2="463.29" y2="272.43"/><line class="k" x1="463.29" y1="272.43" x2="463.29" y2="269.69"/><line class="k" x1="463.29" y1="269.69" x2="466.03" y2="269.69"/><line class="k" x1="466.03" y1="269.69" x2="466.03" y2="272.43"/><line class="k" x1="434.53" y1="272.43" x2="463.29" y2="272.43"/><line class="k" x1="463.29" y1="269.69" x2="434.53" y2="269.69"/><line class="k" x1="434.53" y1="271.06" x2="463.29" y2="271.06"/><line class="k" x1="641.31" y1="401.67" x2="641.31" y2="401.67"/><line class="k" x1="641.31" y1="401.67" x2="641.31" y2="402.52"/><line class="k" x1="641.31" y1="404.92" x2="641.31" y2="404.92"/><line class="k" x1="449.6" y1="391.57" x2="449.6" y2="396.71"/><line class="k" x1="438.47" y1="374.62" x2="441.89" y2="374.62"/><line class="k" x1="441.89" y1="374.62" x2="441.89" y2="395.17"/><line class="k" x1="441.89" y1="395.17" x2="438.47" y2="395.17"/><line class="k" x1="438.47" y1="395.17" x2="438.47" y2="394.14"/><line class="k" x1="438.47" y1="394.14" x2="440.87" y2="394.14"/><line class="k" x1="440.87" y1="394.14" x2="440.87" y2="375.65"/><line class="k" x1="440.87" y1="375.65" x2="438.47" y2="375.65"/><line class="k" x1="438.47" y1="375.65" x2="438.47" y2="374.62"/><line class="k" x1="438.47" y1="374.62" x2="441.89" y2="374.62"/><line class="k" x1="438.47" y1="395.17" x2="441.89" y2="395.17"/><line class="k" x1="438.47" y1="375.65" x2="440.87" y2="375.65"/><line class="k" x1="438.47" y1="394.14" x2="440.87" y2="394.14"/><line class="k" x1="441.89" y1="374.62" x2="441.89" y2="395.17"/><line class="k" x1="440.87" y1="374.62" x2="440.87" y2="395.17"/><line class="k" x1="438.47" y1="374.62" x2="438.47" y2="375.65"/><line class="k" x1="438.47" y1="394.14" x2="438.47" y2="395.17"/><line class="k" x1="266.12" y1="383.67" x2="261.28" y2="388.51"/><line class="k" x1="261.28" y1="383.67" x2="266.12" y2="388.51"/><line class="k" x1="263.7" y1="389.52" x2="263.7" y2="382.67"/><line class="k" x1="267.13" y1="386.09" x2="260.28" y2="386.09"/><line class="k" x1="253.43" y1="375.82" x2="253.43" y2="396.36"/><line class="k" x1="273.97" y1="375.82" x2="253.43" y2="375.82"/><line class="k" x1="181.54" y1="273.12" x2="181.54" y2="305.98"/><g class="m"><path class="k" d="M214.4,273.12A32.86,32.86,0,0,1,181.54,306"/></g><line class="k" x1="487.26" y1="379.59" x2="484.86" y2="379.59"/><line class="k" x1="174.01" y1="396.36" x2="174.01" y2="375.82"/><line class="k" x1="174.01" y1="375.82" x2="194.55" y2="375.82"/><line class="k" x1="194.55" y1="375.82" x2="194.55" y2="396.36"/><line class="k" x1="154.32" y1="377.53" x2="173.15" y2="377.53"/><line class="k" x1="173.15" y1="377.53" x2="173.15" y2="394.65"/><line class="k" x1="173.15" y1="394.65" x2="154.32" y2="394.65"/><line class="k" x1="154.32" y1="394.65" x2="154.32" y2="377.53"/><line class="k" x1="153.46" y1="375.82" x2="174" y2="375.82"/><line class="k" x1="156.03" y1="379.25" x2="171.44" y2="379.25"/><line class="k" x1="171.44" y1="379.25" x2="171.44" y2="391.23"/><line class="k" x1="171.44" y1="391.23" x2="156.03" y2="391.23"/><line class="k" x1="156.03" y1="391.23" x2="156.03" y2="379.25"/><g class="m"><path class="k" d="M164.42,387.8a.69.69,0,1,0-.69.69.69.69,0,0,0,.69-.69"/><path class="k" d="M223.68,391.14a3.36,3.36,0,1,0-3.36,3.36,3.37,3.37,0,0,0,3.36-3.36"/></g><line class="k" x1="215.09" y1="396.36" x2="215.09" y2="375.82"/><line class="k" x1="215.09" y1="375.82" x2="235.63" y2="375.82"/><line class="k" x1="235.63" y1="375.82" x2="235.63" y2="396.36"/><g class="m"><path class="k" d="M223.68,381.05a3.36,3.36,0,1,0-3.36,3.36,3.36,3.36,0,0,0,3.36-3.36"/><path class="k" d="M233.76,381.05a3.36,3.36,0,1,0-3.36,3.36,3.35,3.35,0,0,0,3.36-3.36"/></g><line class="k" x1="232.83" y1="374.89" x2="217.89" y2="374.89"/><line class="k" x1="194.55" y1="375.82" x2="194.55" y2="396.71"/><line class="k" x1="194.55" y1="396.71" x2="215.09" y2="396.71"/><line class="k" x1="215.09" y1="396.71" x2="215.09" y2="375.82"/><line class="k" x1="215.09" y1="375.82" x2="194.55" y2="375.82"/><g class="m"><path class="k" d="M210.81,386.09a6,6,0,1,0-6,6,6,6,0,0,0,6-6"/><path class="k" d="M209.78,386.09a5,5,0,1,0-5,5,5,5,0,0,0,5-5"/></g><line class="k" x1="288.01" y1="262.85" x2="383.87" y2="262.85"/><line class="k" x1="41.51" y1="223.48" x2="637.21" y2="223.48"/><line class="k" x1="637.21" y1="221.76" x2="41.51" y2="221.76"/><line class="k" x1="129.16" y1="379.59" x2="149.7" y2="379.59"/><line class="k" x1="125.73" y1="396.71" x2="125.73" y2="376.16"/><line class="k" x1="129.16" y1="396.71" x2="129.16" y2="379.59"/><line class="k" x1="125.73" y1="376.16" x2="153.12" y2="376.16"/><line class="k" x1="149.7" y1="379.59" x2="149.7" y2="396.71"/><line class="k" x1="129.16" y1="396.71" x2="149.7" y2="396.71"/><line class="k" x1="129.16" y1="379.59" x2="129.16" y2="376.16"/><line class="k" x1="503.35" y1="377.19" x2="537.58" y2="377.19"/><line class="k" x1="518.07" y1="379.59" x2="535.19" y2="379.59"/><line class="k" x1="535.19" y1="379.59" x2="535.19" y2="396.71"/><line class="k" x1="537.58" y1="377.19" x2="537.58" y2="396.7"/><line class="k" x1="434.88" y1="278.94" x2="462.26" y2="278.94"/><line class="k" x1="462.26" y1="278.94" x2="462.26" y2="284.24"/><line class="k" x1="462.26" y1="284.24" x2="434.88" y2="284.24"/><line class="k" x1="434.88" y1="284.24" x2="434.88" y2="278.94"/><g class="m"><path class="k" d="M467.4,281.59a1.71,1.71,0,1,0-1.71,1.71,1.7,1.7,0,0,0,1.71-1.71"/></g><line class="k" x1="534.16" y1="278.94" x2="561.55" y2="278.94"/><line class="k" x1="561.55" y1="278.94" x2="561.55" y2="284.24"/><line class="k" x1="561.55" y1="284.24" x2="534.16" y2="284.24"/><line class="k" x1="534.16" y1="284.24" x2="534.16" y2="278.94"/><g class="m"><path class="k" d="M566.68,281.59A1.71,1.71,0,1,0,565,283.3a1.7,1.7,0,0,0,1.71-1.71"/></g><line class="k" x1="63.42" y1="278.94" x2="104.51" y2="278.94"/><line class="k" x1="104.51" y1="278.94" x2="104.51" y2="284.24"/><line class="k" x1="104.51" y1="284.24" x2="63.42" y2="284.24"/><line class="k" x1="63.42" y1="284.24" x2="63.42" y2="278.94"/><g class="m"><path class="k" d="M109.64,281.59a1.71,1.71,0,1,0-1.71,1.71,1.7,1.7,0,0,0,1.71-1.71"/></g><line class="k" x1="216.25" y1="278.94" x2="257.33" y2="278.94"/><line class="k" x1="257.33" y1="278.94" x2="257.33" y2="284.24"/><line class="k" x1="257.33" y1="284.24" x2="216.25" y2="284.24"/><line class="k" x1="216.25" y1="284.24" x2="216.25" y2="278.94"/><g class="m"><path class="k" d="M262.47,281.59a1.71,1.71,0,1,0-1.71,1.71,1.71,1.71,0,0,0,1.71-1.71"/></g><line class="k" x1="484.86" y1="379.59" x2="484.86" y2="396.71"/><line class="k" x1="487.26" y1="377.19" x2="487.26" y2="396.7"/><line class="k" x1="144.22" y1="262.85" x2="137.37" y2="262.85"/><line class="k" x1="133.61" y1="262.85" x2="132.84" y2="262.85"/><line class="k" x1="129.07" y1="262.85" x2="128.3" y2="262.85"/><line class="k" x1="124.53" y1="262.85" x2="117.69" y2="262.85"/><line class="k" x1="113.92" y1="262.85" x2="113.15" y2="262.85"/><line class="k" x1="109.39" y1="262.85" x2="108.61" y2="262.85"/><line class="k" x1="104.85" y1="262.85" x2="98" y2="262.85"/><line class="k" x1="94.24" y1="262.85" x2="93.47" y2="262.85"/><line class="k" x1="89.7" y1="262.85" x2="88.93" y2="262.85"/><line class="k" x1="86.02" y1="262.85" x2="79.17" y2="262.85"/><line class="k" x1="246.93" y1="262.85" x2="240.08" y2="262.85"/><line class="k" x1="236.31" y1="262.85" x2="235.54" y2="262.85"/><line class="k" x1="231.78" y1="262.85" x2="231.01" y2="262.85"/><line class="k" x1="227.24" y1="262.85" x2="220.39" y2="262.85"/><line class="k" x1="216.63" y1="262.85" x2="215.86" y2="262.85"/><line class="k" x1="212.09" y1="262.85" x2="211.32" y2="262.85"/><line class="k" x1="207.56" y1="262.85" x2="200.71" y2="262.85"/><line class="k" x1="196.94" y1="262.85" x2="196.17" y2="262.85"/><line class="k" x1="192.41" y1="262.85" x2="191.64" y2="262.85"/><line class="k" x1="188.73" y1="262.85" x2="181.88" y2="262.85"/><line class="k" x1="368.46" y1="317.62" x2="361.61" y2="317.62"/><line class="k" x1="357.85" y1="317.62" x2="357.08" y2="317.62"/><line class="k" x1="353.31" y1="317.62" x2="352.54" y2="317.62"/><line class="k" x1="348.77" y1="317.62" x2="341.93" y2="317.62"/><line class="k" x1="338.16" y1="317.62" x2="337.39" y2="317.62"/><line class="k" x1="333.63" y1="317.62" x2="332.85" y2="317.62"/><line class="k" x1="329.09" y1="317.62" x2="322.24" y2="317.62"/><line class="k" x1="318.48" y1="317.62" x2="317.71" y2="317.62"/><line class="k" x1="313.94" y1="317.62" x2="313.17" y2="317.62"/><line class="k" x1="310.26" y1="317.62" x2="303.41" y2="317.62"/><line class="k" x1="601.26" y1="262.85" x2="594.41" y2="262.85"/><line class="k" x1="590.65" y1="262.85" x2="589.88" y2="262.85"/><line class="k" x1="586.11" y1="262.85" x2="585.34" y2="262.85"/><line class="k" x1="581.57" y1="262.85" x2="574.73" y2="262.85"/><line class="k" x1="570.96" y1="262.85" x2="570.19" y2="262.85"/><line class="k" x1="566.43" y1="262.85" x2="565.65" y2="262.85"/><line class="k" x1="561.89" y1="262.85" x2="555.04" y2="262.85"/><line class="k" x1="551.28" y1="262.85" x2="550.51" y2="262.85"/><line class="k" x1="546.74" y1="262.85" x2="545.97" y2="262.85"/><line class="k" x1="543.06" y1="262.85" x2="536.21" y2="262.85"/><line class="k" x1="180.17" y1="276.54" x2="180.17" y2="286.81"/><line class="k" x1="180.17" y1="286.81" x2="214.4" y2="286.81"/><line class="k" x1="214.4" y1="286.81" x2="214.4" y2="276.54"/><line class="k" x1="487.26" y1="379.59" x2="487.26" y2="396.71"/><line class="k" x1="487.26" y1="396.71" x2="514.64" y2="396.71"/><line class="k" x1="514.64" y1="396.71" x2="490.68" y2="393.28"/><line class="k" x1="490.68" y1="393.28" x2="487.26" y2="379.59"/><line class="k" x1="336.62" y1="383.01" x2="336.62" y2="396.71"/><line class="k" x1="336.62" y1="396.71" x2="362.3" y2="396.71"/><line class="k" x1="362.3" y1="396.71" x2="340.04" y2="393.28"/><line class="k" x1="340.04" y1="393.28" x2="336.62" y2="383.01"/><line class="k" x1="149.7" y1="396.71" x2="132.9" y2="393.27"/><line class="k" x1="132.9" y1="393.27" x2="129.16" y2="379.59"/><line class="k" x1="129.16" y1="379.59" x2="129.16" y2="396.71"/><line class="k" x1="129.16" y1="396.71" x2="149.7" y2="396.71"/><line class="k" x1="518.07" y1="379.59" x2="518.07" y2="396.71"/><line class="k" x1="518.07" y1="396.71" x2="535.19" y2="396.71"/><line class="k" x1="535.19" y1="396.71" x2="521.49" y2="393.28"/><line class="k" x1="521.49" y1="393.28" x2="518.07" y2="379.59"/><rect class="h" x="156.2" y="285.1" width="13.69" height="58.2"/><line class="k" x1="156.2" y1="285.1" x2="156.2" y2="343.3"/><line class="k" x1="169.9" y1="285.1" x2="156.2" y2="285.1"/><line class="k" x1="169.9" y1="343.3" x2="169.9" y2="285.1"/><line class="k" x1="156.2" y1="343.3" x2="169.9" y2="343.3"/><rect class="h" x="86.98" y="320.19" width="27.39" height="27.39"/><line class="k" x1="86.99" y1="320.19" x2="86.99" y2="347.58"/><line class="k" x1="114.37" y1="320.19" x2="86.99" y2="320.19"/><line class="k" x1="114.37" y1="347.58" x2="114.37" y2="320.19"/><line class="k" x1="86.99" y1="347.58" x2="114.37" y2="347.58"/><rect class="h" x="333.2" y="374.45" width="32.52" height="5.14"/><line class="k" x1="333.2" y1="374.45" x2="333.2" y2="379.59"/><line class="k" x1="365.72" y1="374.45" x2="333.2" y2="374.45"/><line class="k" x1="365.72" y1="379.59" x2="365.72" y2="374.45"/><line class="k" x1="333.2" y1="379.59" x2="365.72" y2="379.59"/><rect class="h" x="449.6" y="391.57" width="35.26" height="5.14"/><line class="k" x1="449.6" y1="391.57" x2="449.6" y2="396.71"/><line class="k" x1="484.86" y1="391.57" x2="449.6" y2="391.57"/><line class="k" x1="484.86" y1="396.71" x2="484.86" y2="391.57"/><line class="k" x1="449.6" y1="396.71" x2="484.86" y2="396.71"/><rect class="h" x="497.53" y="316.25" width="3.42" height="60.94"/><line class="k" x1="497.53" y1="316.25" x2="497.53" y2="377.19"/><line class="k" x1="500.95" y1="316.25" x2="497.53" y2="316.25"/><line class="k" x1="500.95" y1="377.19" x2="500.95" y2="316.25"/><line class="k" x1="497.53" y1="377.19" x2="500.95" y2="377.19"/><rect class="h" x="438.47" y="394.14" width="2.4" height="1.03"/><line class="k" x1="438.47" y1="395.17" x2="440.87" y2="395.17"/><line class="k" x1="438.47" y1="394.14" x2="438.47" y2="395.17"/><line class="k" x1="440.87" y1="394.14" x2="438.47" y2="394.14"/><line class="k" x1="440.87" y1="395.17" x2="440.87" y2="394.14"/><rect class="h" x="440.87" y="374.62" width="1.03" height="20.54"/><line class="k" x1="440.87" y1="374.62" x2="440.87" y2="395.17"/><line class="k" x1="441.89" y1="374.62" x2="440.87" y2="374.62"/><line class="k" x1="441.89" y1="395.17" x2="441.89" y2="374.62"/><line class="k" x1="440.87" y1="395.17" x2="441.9" y2="395.17"/><rect class="h" x="438.47" y="374.62" width="2.4" height="1.03"/><line class="k" x1="440.87" y1="375.65" x2="440.87" y2="374.62"/><line class="k" x1="438.47" y1="375.65" x2="440.87" y2="375.65"/><line class="k" x1="438.47" y1="374.62" x2="438.47" y2="375.65"/><line class="k" x1="440.87" y1="374.62" x2="438.47" y2="374.62"/><rect class="h" x="503.35" y="315.57" width="10.27" height="61.62"/><line class="k" x1="503.35" y1="377.19" x2="513.62" y2="377.19"/><line class="k" x1="503.35" y1="315.57" x2="503.35" y2="377.19"/><line class="k" x1="513.62" y1="315.57" x2="503.35" y2="315.57"/><line class="k" x1="513.62" y1="377.19" x2="513.62" y2="315.57"/><rect class="h" x="45.62" y="376.16" width="80.11" height="20.54"/><line class="k" x1="45.62" y1="376.16" x2="45.62" y2="396.71"/><line class="k" x1="125.73" y1="376.16" x2="45.62" y2="376.16"/><line class="k" x1="125.73" y1="396.71" x2="125.73" y2="376.16"/><line class="k" x1="45.62" y1="396.71" x2="125.73" y2="396.71"/><rect class="h" x="216.25" y="278.94" width="41.08" height="5.31"/><line class="k" x1="257.33" y1="278.94" x2="216.25" y2="278.94"/><line class="k" x1="257.33" y1="284.24" x2="257.33" y2="278.94"/><line class="k" x1="216.25" y1="284.24" x2="257.33" y2="284.24"/><line class="k" x1="216.25" y1="278.94" x2="216.25" y2="284.24"/><polygon class="n" points="262.47 281.59 261.97 282.8 260.76 283.3 259.55 282.8 259.05 281.59 259.55 280.38 260.76 279.88 261.97 280.38 262.47 281.59"/><g class="m"><path class="k" d="M262.47,281.59a1.71,1.71,0,0,1-3.42,0"/><path class="k" d="M259.05,281.59a1.71,1.71,0,0,1,3.42,0"/></g><rect class="h" x="434.88" y="278.94" width="27.39" height="5.31"/><line class="k" x1="462.26" y1="278.94" x2="434.88" y2="278.94"/><line class="k" x1="462.26" y1="284.24" x2="462.26" y2="278.94"/><line class="k" x1="434.88" y1="284.24" x2="462.26" y2="284.24"/><line class="k" x1="434.88" y1="278.94" x2="434.88" y2="284.24"/><polygon class="n" points="467.4 281.59 466.9 282.8 465.69 283.3 464.48 282.8 463.98 281.59 464.48 280.38 465.69 279.88 466.9 280.38 467.4 281.59"/><g class="m"><path class="k" d="M467.4,281.59a1.71,1.71,0,0,1-3.42,0"/><path class="k" d="M464,281.59a1.71,1.71,0,0,1,3.42,0"/></g><rect class="h" x="534.16" y="278.94" width="27.39" height="5.31"/><line class="k" x1="561.55" y1="278.94" x2="534.16" y2="278.94"/><line class="k" x1="561.55" y1="284.24" x2="561.55" y2="278.94"/><line class="k" x1="534.16" y1="284.24" x2="561.55" y2="284.24"/><line class="k" x1="534.16" y1="278.94" x2="534.16" y2="284.24"/><polygon class="n" points="566.68 281.59 566.18 282.8 564.97 283.3 563.76 282.8 563.26 281.59 563.76 280.38 564.97 279.88 566.18 280.38 566.68 281.59"/><g class="m"><path class="k" d="M566.68,281.59a1.71,1.71,0,1,1-3.42,0"/><path class="k" d="M563.26,281.59a1.71,1.71,0,1,1,3.42,0"/></g><rect class="h" x="63.42" y="278.94" width="41.08" height="5.31"/><line class="k" x1="104.51" y1="278.94" x2="63.42" y2="278.94"/><line class="k" x1="104.51" y1="284.24" x2="104.51" y2="278.94"/><line class="k" x1="63.42" y1="284.24" x2="104.51" y2="284.24"/><line class="k" x1="63.42" y1="278.94" x2="63.42" y2="284.24"/><polygon class="n" points="109.64 281.59 109.14 282.8 107.93 283.3 106.72 282.8 106.22 281.59 106.72 280.38 107.93 279.88 109.14 280.38 109.64 281.59"/><g class="m"><path class="k" d="M109.64,281.59a1.71,1.71,0,0,1-3.42,0"/><path class="k" d="M106.22,281.59a1.71,1.71,0,0,1,3.42,0"/></g><polygon class="n" points="161.83 309.25 160.46 310.95 159.72 313.06 159.72 315.33 160.46 317.45 161.83 319.14 161.83 329.81 163.73 329.81 165.63 322.01 165.63 319.73 166.66 316.1 166.66 312.3 165.63 308.67 165.63 306.4 163.73 298.59 161.83 298.59 161.83 309.25"/><line class="k" x1="161.83" y1="298.59" x2="161.83" y2="309.25"/><line class="k" x1="163.73" y1="298.59" x2="161.83" y2="298.59"/><line class="k" x1="165.63" y1="306.4" x2="163.73" y2="298.59"/><line class="k" x1="165.63" y1="308.67" x2="165.63" y2="306.4"/><line class="k" x1="166.66" y1="312.3" x2="165.63" y2="308.67"/><line class="k" x1="166.66" y1="316.1" x2="166.66" y2="312.3"/><line class="k" x1="165.63" y1="319.73" x2="166.66" y2="316.1"/><line class="k" x1="165.63" y1="322.01" x2="165.63" y2="319.73"/><line class="k" x1="163.73" y1="329.81" x2="165.63" y2="322.01"/><line class="k" x1="161.83" y1="329.81" x2="163.73" y2="329.81"/><line class="k" x1="161.83" y1="319.15" x2="161.83" y2="329.81"/><line class="k" x1="160.46" y1="317.45" x2="161.83" y2="319.15"/><line class="k" x1="159.72" y1="315.34" x2="160.45" y2="317.46"/><line class="k" x1="159.72" y1="313.06" x2="159.72" y2="315.34"/><line class="k" x1="160.46" y1="310.95" x2="159.72" y2="313.06"/><line class="k" x1="161.83" y1="309.26" x2="160.45" y2="310.95"/><line class="k" x1="161.83" y1="298.59" x2="161.83" y2="329.81"/><line class="k" x1="165.63" y1="322.01" x2="165.63" y2="306.4"/><line class="k" x1="163.73" y1="298.59" x2="161.83" y2="298.59"/><line class="k" x1="162.59" y1="327.73" x2="162.59" y2="325.65"/><line class="k" x1="162.59" y1="325.65" x2="163.06" y2="325.65"/><line class="k" x1="163.06" y1="325.65" x2="163.06" y2="327.73"/><line class="k" x1="163.06" y1="327.73" x2="162.59" y2="327.73"/><line class="k" x1="162.59" y1="325.13" x2="162.59" y2="323.05"/><line class="k" x1="162.59" y1="323.05" x2="163.06" y2="323.05"/><line class="k" x1="163.06" y1="323.05" x2="163.06" y2="325.13"/><line class="k" x1="163.06" y1="325.13" x2="162.59" y2="325.13"/><line class="k" x1="163.73" y1="298.59" x2="163.73" y2="329.81"/><line class="k" x1="163.06" y1="322.53" x2="162.59" y2="322.53"/><line class="k" x1="162.59" y1="322.53" x2="162.59" y2="321.49"/><line class="k" x1="162.59" y1="321.49" x2="163.06" y2="321.49"/><line class="k" x1="163.06" y1="321.49" x2="163.06" y2="322.53"/><g class="m"><path class="k" d="M161.83,319.14a6.63,6.63,0,0,1,0-9.88"/></g><rect class="h" x="212.17" y="285.1" width="27.39" height="47.93"/><line class="k" x1="212.17" y1="285.1" x2="212.17" y2="333.03"/><line class="k" x1="239.56" y1="285.1" x2="212.17" y2="285.1"/><line class="k" x1="239.56" y1="333.03" x2="239.56" y2="285.1"/><line class="k" x1="212.17" y1="333.03" x2="239.56" y2="333.03"/><polygon class="n" points="211.15 314.2 198.48 314.2 196.77 314.66 195.51 315.91 195.06 317.62 195.06 324.47 195.51 326.18 196.77 327.43 198.48 327.89 211.15 327.89 211.15 314.2"/><polygon class="n" points="211.15 290.23 198.48 290.23 196.77 290.69 195.51 291.94 195.06 293.66 195.06 300.5 195.51 302.22 196.77 303.47 198.48 303.93 211.15 303.93 211.15 290.23"/><polygon class="n" points="240.59 314.2 240.59 327.89 253.26 327.89 254.97 327.43 256.22 326.18 256.68 324.47 256.68 317.62 256.22 315.91 254.97 314.66 253.26 314.2 240.59 314.2"/><polygon class="n" points="240.59 290.23 240.59 303.93 253.26 303.93 254.97 303.47 256.22 302.22 256.68 300.5 256.68 293.66 256.22 291.94 254.97 290.69 253.26 290.23 240.59 290.23"/><line class="k" x1="196.77" y1="317.62" x2="196.77" y2="324.47"/><line class="k" x1="198.48" y1="327.89" x2="211.15" y2="327.89"/><line class="k" x1="195.06" y1="317.62" x2="195.06" y2="324.47"/><line class="k" x1="211.15" y1="314.2" x2="198.48" y2="314.2"/><line class="k" x1="211.15" y1="327.89" x2="211.15" y2="314.2"/><line class="k" x1="196.77" y1="293.66" x2="196.77" y2="300.5"/><line class="k" x1="198.48" y1="303.93" x2="211.15" y2="303.93"/><line class="k" x1="195.06" y1="293.66" x2="195.06" y2="300.5"/><line class="k" x1="211.15" y1="290.23" x2="198.48" y2="290.23"/><line class="k" x1="211.15" y1="303.93" x2="211.15" y2="290.23"/><line class="k" x1="254.97" y1="317.62" x2="254.97" y2="324.47"/><line class="k" x1="253.26" y1="327.89" x2="240.59" y2="327.89"/><line class="k" x1="256.68" y1="317.62" x2="256.68" y2="324.47"/><line class="k" x1="240.59" y1="314.2" x2="253.26" y2="314.2"/><line class="k" x1="240.59" y1="327.89" x2="240.59" y2="314.2"/><line class="k" x1="254.97" y1="293.66" x2="254.97" y2="300.5"/><line class="k" x1="253.26" y1="303.93" x2="240.59" y2="303.93"/><line class="k" x1="256.68" y1="293.66" x2="256.68" y2="300.5"/><line class="k" x1="240.59" y1="290.23" x2="253.26" y2="290.23"/><line class="k" x1="240.59" y1="303.93" x2="240.59" y2="290.23"/><g class="m"><path class="k" d="M198.48,326.18a1.71,1.71,0,0,1-1.71-1.71"/><path class="k" d="M196.77,317.62a1.72,1.72,0,0,1,1.71-1.71"/><path class="k" d="M198.48,327.89a3.42,3.42,0,0,1-3.42-3.42"/><path class="k" d="M195.06,317.62a3.42,3.42,0,0,1,3.42-3.42"/><path class="k" d="M198.48,302.22a1.71,1.71,0,0,1-1.71-1.71"/><path class="k" d="M196.77,293.66a1.71,1.71,0,0,1,1.71-1.71"/><path class="k" d="M198.48,303.93a3.43,3.43,0,0,1-3.42-3.43"/><path class="k" d="M195.06,293.66a3.43,3.43,0,0,1,3.42-3.43"/><path class="k" d="M255,324.47a1.72,1.72,0,0,1-1.71,1.71"/><path class="k" d="M253.26,315.91a1.72,1.72,0,0,1,1.71,1.71"/><path class="k" d="M256.68,324.47a3.42,3.42,0,0,1-3.42,3.42"/><path class="k" d="M253.26,314.2a3.42,3.42,0,0,1,3.42,3.42"/><path class="k" d="M255,300.5a1.72,1.72,0,0,1-1.71,1.72"/><path class="k" d="M253.26,292a1.71,1.71,0,0,1,1.71,1.71"/><path class="k" d="M256.68,300.5a3.43,3.43,0,0,1-3.42,3.43"/><path class="k" d="M253.26,290.23a3.43,3.43,0,0,1,3.42,3.43"/></g><polygon class="n" points="77.77 312.52 78.39 312.15 78.45 311.44 78.45 286.1 78.48 285.63 78.22 285.23 77.77 285.07 50.04 285.07 49.55 285.27 49.35 285.76 49.35 356.28 49.55 356.77 50.04 356.97 75.03 356.97 76.74 356.51 77.99 355.26 78.45 353.55 78.45 352.52 78.25 352.04 77.77 351.83 78.27 351.42 78.45 350.81 78.45 313.49 78.26 312.9 77.77 312.52"/><polygon class="n" points="100.71 312.46 103.33 311.94 105.55 310.46 107.03 308.24 107.55 305.62 107.55 291.92 107.03 289.3 105.55 287.08 103.33 285.6 100.71 285.07 79.48 285.07 78.75 285.38 78.45 286.1 78.45 311.44 78.75 312.16 79.48 312.46 100.71 312.46"/><line class="k" x1="79.48" y1="312.46" x2="100.71" y2="312.46"/><g class="m"><path class="k" d="M79.48,312.46a1,1,0,0,1-1-1"/></g><line class="k" x1="78.45" y1="286.1" x2="78.45" y2="311.44"/><g class="m"><path class="k" d="M78.45,286.1a1,1,0,0,1,1-1"/></g><line class="k" x1="100.71" y1="285.07" x2="79.48" y2="285.07"/><g class="m"><path class="k" d="M100.71,285.07a6.85,6.85,0,0,1,6.84,6.85"/></g><line class="k" x1="107.55" y1="305.62" x2="107.55" y2="291.92"/><g class="m"><path class="k" d="M107.55,305.62a6.84,6.84,0,0,1-6.84,6.84"/></g><line class="k" x1="78.45" y1="352.52" x2="78.45" y2="353.55"/><line class="k" x1="75.03" y1="356.97" x2="50.04" y2="356.97"/><line class="k" x1="49.35" y1="356.28" x2="49.35" y2="352.52"/><line class="k" x1="50.04" y1="351.83" x2="77.77" y2="351.83"/><line class="k" x1="49.35" y1="352.52" x2="49.35" y2="312.46"/><line class="k" x1="49.35" y1="312.46" x2="51.75" y2="312.46"/><line class="k" x1="78.45" y1="313.49" x2="78.45" y2="350.81"/><line class="k" x1="77.43" y1="351.83" x2="60.26" y2="351.83"/><line class="k" x1="60.26" y1="312.46" x2="77.43" y2="312.46"/><line class="k" x1="51.75" y1="351.83" x2="58.21" y2="351.83"/><line class="k" x1="58.21" y1="312.46" x2="51.75" y2="312.46"/><line class="k" x1="78.45" y1="289.53" x2="78.45" y2="285.76"/><line class="k" x1="77.77" y1="285.07" x2="50.04" y2="285.07"/><line class="k" x1="49.35" y1="285.76" x2="49.35" y2="289.53"/><line class="k" x1="49.35" y1="289.53" x2="49.35" y2="312.46"/><line class="k" x1="49.35" y1="312.46" x2="51.75" y2="312.46"/><line class="k" x1="78.45" y1="311.44" x2="78.45" y2="291.24"/><line class="k" x1="60.26" y1="312.46" x2="77.43" y2="312.46"/><line class="k" x1="60.26" y1="312.46" x2="51.75" y2="312.46"/><line class="k" x1="107.55" y1="305.62" x2="107.55" y2="291.92"/><line class="k" x1="100.71" y1="285.07" x2="79.48" y2="285.07"/><line class="k" x1="78.45" y1="286.1" x2="78.45" y2="311.44"/><line class="k" x1="79.48" y1="312.46" x2="100.71" y2="312.46"/><line class="k" x1="50.72" y1="311.44" x2="50.72" y2="286.1"/><line class="k" x1="50.72" y1="313.49" x2="50.72" y2="350.81"/><g class="m"><path class="k" d="M50,357a.69.69,0,0,1-.69-.69"/><path class="k" d="M49.35,352.52a.69.69,0,0,1,.69-.69"/><path class="k" d="M77.77,351.83a.68.68,0,0,1,.68.69"/><path class="k" d="M78.45,350.81a1,1,0,0,1-1,1"/><path class="k" d="M77.43,312.46a1,1,0,0,1,1,1"/><path class="k" d="M77.77,285.07a.68.68,0,0,1,.68.69"/><path class="k" d="M49.35,285.76a.69.69,0,0,1,.69-.69"/><path class="k" d="M78.45,311.44a1,1,0,0,1-1,1"/><path class="k" d="M78.45,286.1a1,1,0,0,1,1-1"/><path class="k" d="M79.48,312.46a1,1,0,0,1-1-1"/></g><line class="k" x1="50.72" y1="286.1" x2="74.04" y2="286.1"/><g class="m"><path class="k" d="M54.71,311.47a19.11,19.11,0,0,1-.7-5.16,19.4,19.4,0,0,1,15.32-19"/><path class="k" d="M55.51,313.49A116.63,116.63,0,0,1,57,332.15a116.63,116.63,0,0,1-1.5,18.66"/><path class="k" d="M107.55,305.62a6.84,6.84,0,0,1-6.84,6.84"/><path class="k" d="M100.71,285.07a6.85,6.85,0,0,1,6.84,6.85"/><path class="k" d="M78.45,353.55A3.42,3.42,0,0,1,75,357"/></g><rect class="h" x="365.72" y="374.45" width="34.75" height="22.25"/><line class="k" x1="365.72" y1="396.71" x2="400.47" y2="396.71"/><line class="k" x1="400.47" y1="396.71" x2="400.47" y2="374.45"/><line class="k" x1="400.47" y1="374.45" x2="365.72" y2="374.45"/><line class="k" x1="365.72" y1="374.45" x2="365.72" y2="396.71"/><line class="k" x1="367.46" y1="385.58" x2="398.73" y2="385.58"/><line class="k" x1="369.07" y1="392.12" x2="372.01" y2="378.79"/><line class="k" x1="372.39" y1="392.79" x2="373.6" y2="380.39"/><line class="k" x1="376.91" y1="377.56" x2="377.91" y2="391.17"/><line class="k" x1="382.04" y1="379.34" x2="380.68" y2="391.17"/><line class="k" x1="383.9" y1="378.66" x2="383.9" y2="393.23"/><line class="k" x1="389.18" y1="378.6" x2="387.93" y2="393"/><line class="k" x1="391.16" y1="378.84" x2="391.16" y2="391.99"/><line class="k" x1="396.38" y1="378.71" x2="397.38" y2="392.19"/><line class="k" x1="395.12" y1="379.62" x2="394.1" y2="391.02"/><polygon class="n" points="497.53 350.14 497.53 367.95 497.38 368.31 497.01 368.46 482.98 368.46 482.61 368.31 482.46 367.95 482.46 350.14 482.61 349.78 482.98 349.63 497.01 349.63 497.38 349.78 497.53 350.14"/><line class="k" x1="497.53" y1="350.15" x2="497.53" y2="367.95"/><g class="m"><path class="k" d="M497.53,368a.51.51,0,0,1-.52.51"/></g><line class="k" x1="497.01" y1="368.46" x2="482.98" y2="368.46"/><g class="m"><path class="k" d="M483,368.46a.52.52,0,0,1-.52-.51"/></g><line class="k" x1="482.46" y1="367.95" x2="482.46" y2="350.15"/><g class="m"><path class="k" d="M482.46,350.15a.52.52,0,0,1,.52-.52"/></g><line class="k" x1="482.98" y1="349.63" x2="497.01" y2="349.63"/><g class="m"><path class="k" d="M497,349.63a.51.51,0,0,1,.52.51"/></g><line class="k" x1="493.76" y1="351.17" x2="493.76" y2="366.92"/><line class="k" x1="493.25" y1="367.43" x2="484" y2="367.43"/><line class="k" x1="483.49" y1="366.92" x2="483.49" y2="351.17"/><line class="k" x1="484" y1="350.66" x2="493.25" y2="350.66"/><g class="m"><path class="k" d="M493.76,366.92a.51.51,0,0,1-.51.51"/><path class="k" d="M484,367.43a.51.51,0,0,1-.51-.51"/><path class="k" d="M483.49,351.17a.51.51,0,0,1,.51-.51"/><path class="k" d="M493.25,350.66a.51.51,0,0,1,.51.51"/></g><polygon class="n" points="495.47 358.19 494.04 358.33 493.71 358.44 491.9 358.67 491.66 358.79 491.56 359.05 491.66 359.3 491.9 359.43 493.71 359.65 494.04 359.77 495.47 359.9 496.08 359.65 496.33 359.05 496.08 358.44 495.47 358.19"/><g class="m"><path class="k" d="M495.47,358.19a.86.86,0,1,1,0,1.71"/></g><line class="k" x1="494.04" y1="359.77" x2="495.47" y2="359.9"/><g class="m"><path class="k" d="M494,359.77a.77.77,0,0,1-.33-.12"/></g><line class="k" x1="491.9" y1="359.43" x2="493.71" y2="359.65"/><g class="m"><path class="k" d="M491.9,359.43a.4.4,0,0,1-.34-.38.39.39,0,0,1,.34-.38"/></g><line class="k" x1="493.71" y1="358.44" x2="491.9" y2="358.67"/><g class="m"><path class="k" d="M493.71,358.44a.76.76,0,0,1,.33-.11"/></g><line class="k" x1="495.47" y1="358.19" x2="494.04" y2="358.33"/><line class="k" x1="494.62" y1="359.51" x2="494.11" y2="359.51"/><line class="k" x1="494.11" y1="358.58" x2="494.62" y2="358.58"/><line class="k" x1="494.62" y1="358.58" x2="494.62" y2="359.51"/><g class="m"><path class="k" d="M494.11,359.51a.47.47,0,0,1,0-.93"/><path class="k" d="M493.71,359.65a.72.72,0,0,1,0-1.21"/></g><polygon class="n" points="471.82 391.57 471.82 380.27 471.56 378.58 470.79 377.05 469.6 375.82 467.66 374.8 465.49 374.45 463.32 374.8 461.38 375.82 460.19 377.05 459.42 378.58 459.16 380.27 459.16 391.57 471.82 391.57"/><line class="k" x1="459.16" y1="391.57" x2="459.16" y2="380.27"/><line class="k" x1="459.16" y1="391.57" x2="471.82" y2="391.57"/><line class="k" x1="471.82" y1="391.57" x2="471.82" y2="380.27"/><line class="k" x1="461.21" y1="387.46" x2="461.21" y2="380.27"/><line class="k" x1="469.77" y1="387.46" x2="469.77" y2="380.27"/><line class="k" x1="469.77" y1="387.46" x2="461.21" y2="387.46"/><g class="m"><path class="k" d="M459.16,380.27a5.56,5.56,0,0,1,2.22-4.45"/><path class="k" d="M469.6,375.82a5.56,5.56,0,0,1,2.22,4.45"/><path class="k" d="M461.38,375.82a6.85,6.85,0,0,1,8.22,0"/><path class="k" d="M469.6,375.82a5.56,5.56,0,0,1,2.22,4.45"/><path class="k" d="M465.49,374.45a6.86,6.86,0,0,1,4.11,1.37"/><path class="k" d="M468.37,377.47a3.5,3.5,0,0,1,1.4,2.8"/><path class="k" d="M462.61,377.47a4.75,4.75,0,0,1,2.88-1,4.7,4.7,0,0,1,2.87,1"/><path class="k" d="M461.21,380.27a3.5,3.5,0,0,1,1.4-2.8"/></g><rect class="h" x="613.24" y="276.54" width="19.86" height="40.06"/><line class="k" x1="633.1" y1="316.59" x2="633.1" y2="276.54"/><line class="k" x1="633.1" y1="276.54" x2="613.24" y2="276.54"/><line class="k" x1="613.24" y1="276.54" x2="613.24" y2="316.59"/><line class="k" x1="613.24" y1="316.59" x2="633.1" y2="316.59"/><line class="k" x1="623.17" y1="314.59" x2="623.17" y2="278.54"/><line class="k" x1="629.01" y1="312.73" x2="617.11" y2="309.35"/><line class="k" x1="629.61" y1="308.91" x2="618.54" y2="307.52"/><line class="k" x1="616.01" y1="303.7" x2="628.16" y2="302.55"/><line class="k" x1="617.61" y1="297.79" x2="628.16" y2="299.35"/><line class="k" x1="617" y1="295.64" x2="630" y2="295.64"/><line class="k" x1="616.94" y1="289.55" x2="629.79" y2="290.99"/><line class="k" x1="617.16" y1="287.27" x2="628.89" y2="287.27"/><line class="k" x1="617.04" y1="281.26" x2="629.07" y2="280.11"/><line class="k" x1="617.86" y1="282.71" x2="628.03" y2="283.88"/><line class="k" x1="641.31" y1="276.54" x2="641.31" y2="276.54"/><line class="k" x1="641.31" y1="276.54" x2="641.31" y2="297.08"/><line class="k" x1="641.31" y1="297.08" x2="641.31" y2="297.08"/><rect class="h" x="400.47" y="374.45" width="34.75" height="22.25"/><line class="k" x1="400.47" y1="396.71" x2="435.22" y2="396.71"/><line class="k" x1="435.22" y1="396.71" x2="435.22" y2="374.45"/><line class="k" x1="435.22" y1="374.45" x2="400.47" y2="374.45"/><line class="k" x1="400.47" y1="374.45" x2="400.47" y2="396.71"/><line class="k" x1="402.21" y1="385.58" x2="433.48" y2="385.58"/><line class="k" x1="403.82" y1="392.12" x2="406.76" y2="378.79"/><line class="k" x1="407.14" y1="392.79" x2="408.35" y2="380.39"/><line class="k" x1="411.66" y1="377.56" x2="412.66" y2="391.17"/><line class="k" x1="416.79" y1="379.34" x2="415.43" y2="391.17"/><line class="k" x1="418.65" y1="378.66" x2="418.65" y2="393.23"/><line class="k" x1="423.93" y1="378.6" x2="422.68" y2="393"/><line class="k" x1="425.91" y1="378.84" x2="425.91" y2="391.99"/><line class="k" x1="431.12" y1="378.71" x2="432.12" y2="392.19"/><line class="k" x1="429.87" y1="379.62" x2="428.85" y2="391.02"/><polygon class="n" points="513.62 315.57 513.62 377.19 524.12 377.19 575.27 377.19 575.98 377.15 576.69 377.04 577.38 376.86 578.04 376.6 578.68 376.27 579.28 375.88 579.83 375.43 580.34 374.93 580.79 374.37 581.17 373.77 581.5 373.13 581.75 372.46 581.94 371.77 582.05 371.06 582.09 370.35 582.09 322.42 582.05 321.7 581.94 320.99 581.75 320.3 581.5 319.63 581.17 318.99 580.79 318.39 580.34 317.83 579.83 317.33 579.28 316.88 578.68 316.49 578.04 316.16 577.38 315.9 576.69 315.72 575.98 315.61 575.27 315.57 513.62 315.57"/><line class="k" x1="524.96" y1="348.32" x2="522.01" y2="349.14"/><line class="k" x1="524.96" y1="319.57" x2="522.01" y2="320.39"/><line class="k" x1="582.09" y1="370.34" x2="582.09" y2="322.42"/><line class="k" x1="575.27" y1="315.57" x2="513.62" y2="315.57"/><line class="k" x1="513.62" y1="315.57" x2="513.62" y2="377.19"/><line class="k" x1="513.62" y1="377.19" x2="575.27" y2="377.19"/><line class="k" x1="523.85" y1="315.57" x2="513.62" y2="315.57"/><line class="k" x1="513.62" y1="377.19" x2="523.85" y2="377.19"/><line class="k" x1="536.3" y1="315.57" x2="536.3" y2="377.19"/><line class="k" x1="541.42" y1="315.57" x2="541.42" y2="377.19"/><g class="m"><path class="k" d="M531.14,343.78a95.69,95.69,0,0,1-.83-12.54,96.7,96.7,0,0,1,.49-9.77"/><path class="k" d="M528.92,319.24h.1a1.83,1.83,0,0,1,1.82,1.84,1.72,1.72,0,0,1,0,.39"/><path class="k" d="M525,319.57a14.48,14.48,0,0,1,3.15-.35l.81,0"/><path class="k" d="M517.34,319.38q1.21-.06,2.43-.06c1.73,0,3.46.08,5.18.25"/><path class="k" d="M516.85,319.83a.22.22,0,0,1,0-.08.39.39,0,0,1,.39-.39l.11,0"/><path class="k" d="M516.85,319.83q.55,7.28.56,14.59c0,3.15-.07,6.29-.22,9.43"/><path class="k" d="M518.42,345a1,1,0,0,1-.3.05,1,1,0,0,1-1-.95.75.75,0,0,1,0-.21"/><path class="k" d="M531.14,343.78a1,1,0,0,1,0,.24.79.79,0,0,1-1,.76"/><path class="k" d="M575.27,315.57a6.83,6.83,0,0,1,6.82,6.84h0"/><path class="k" d="M582.09,370.35a6.82,6.82,0,0,1-6.81,6.84h0"/><path class="k" d="M531.14,372.53a96.22,96.22,0,0,1-.34-22.31"/><path class="k" d="M528.92,348H529a1.83,1.83,0,0,1,1.83,1.83,1.67,1.67,0,0,1,0,.39"/><path class="k" d="M525,348.32a14.39,14.39,0,0,1,3.14-.35l.82,0"/><path class="k" d="M517.34,348.12c.81,0,1.62-.05,2.43-.05,1.73,0,3.46.08,5.19.25"/><path class="k" d="M516.85,348.58s0-.06,0-.08a.39.39,0,0,1,.39-.39h.12"/><path class="k" d="M516.85,348.58q.55,7.28.56,14.59c0,3.14-.07,6.29-.22,9.43"/><path class="k" d="M518.41,373.7a.73.73,0,0,1-.3.05,1,1,0,0,1-1-.95.69.69,0,0,1,0-.2"/><path class="k" d="M518.42,373.7a45.58,45.58,0,0,1,11.75-.17"/><path class="k" d="M531.14,372.53a1,1,0,0,1,0,.24.79.79,0,0,1-.78.79.83.83,0,0,1-.22,0"/><path class="k" d="M518.41,345a44.74,44.74,0,0,1,6.53-.48,45.72,45.72,0,0,1,5.23.3"/></g><rect class="h" x="613.24" y="316.59" width="19.86" height="40.06"/><line class="k" x1="633.1" y1="356.65" x2="633.1" y2="316.59"/><line class="k" x1="633.1" y1="316.59" x2="613.24" y2="316.59"/><line class="k" x1="613.24" y1="316.59" x2="613.24" y2="356.65"/><line class="k" x1="613.24" y1="356.65" x2="633.1" y2="356.65"/><line class="k" x1="623.17" y1="354.65" x2="623.17" y2="318.6"/><line class="k" x1="629.01" y1="352.79" x2="617.11" y2="349.4"/><line class="k" x1="629.61" y1="348.97" x2="618.54" y2="347.57"/><line class="k" x1="616.01" y1="343.75" x2="628.16" y2="342.6"/><line class="k" x1="617.61" y1="337.84" x2="628.16" y2="339.41"/><line class="k" x1="617" y1="335.69" x2="630" y2="335.69"/><line class="k" x1="616.94" y1="329.6" x2="629.79" y2="331.05"/><line class="k" x1="617.16" y1="327.32" x2="628.89" y2="327.32"/><line class="k" x1="617.04" y1="321.32" x2="629.07" y2="320.17"/><line class="k" x1="617.86" y1="322.76" x2="628.03" y2="323.94"/><rect class="h" x="613.24" y="356.65" width="19.86" height="40.06"/><line class="k" x1="633.1" y1="396.71" x2="633.1" y2="356.65"/><line class="k" x1="633.1" y1="356.65" x2="613.24" y2="356.65"/><line class="k" x1="613.24" y1="356.65" x2="613.24" y2="396.71"/><line class="k" x1="613.24" y1="396.71" x2="633.1" y2="396.71"/><line class="k" x1="623.17" y1="394.7" x2="623.17" y2="358.65"/><line class="k" x1="629.01" y1="392.84" x2="617.11" y2="389.46"/><line class="k" x1="629.61" y1="389.02" x2="618.54" y2="387.63"/><line class="k" x1="616.01" y1="383.81" x2="628.16" y2="382.66"/><line class="k" x1="617.61" y1="377.9" x2="628.16" y2="379.46"/><line class="k" x1="617" y1="375.75" x2="630" y2="375.75"/><line class="k" x1="616.94" y1="369.66" x2="629.79" y2="371.1"/><line class="k" x1="617.16" y1="367.38" x2="628.89" y2="367.38"/><line class="k" x1="617.04" y1="361.37" x2="629.07" y2="360.22"/><line class="k" x1="617.86" y1="362.82" x2="628.03" y2="363.99"/><line class="k" x1="295.54" y1="396.71" x2="302.39" y2="396.71"/><line class="k" x1="306.15" y1="396.71" x2="306.92" y2="396.71"/><line class="k" x1="310.69" y1="396.71" x2="311.46" y2="396.71"/><line class="k" x1="315.22" y1="396.71" x2="322.07" y2="396.71"/><line class="k" x1="325.84" y1="396.71" x2="326.35" y2="396.71"/><line class="k" x1="326.35" y1="396.71" x2="333.2" y2="396.71"/><line class="k" x1="421.52" y1="404.92" x2="421.52" y2="404.17"/><line class="k" x1="182.38" y1="389.32" x2="182.38" y2="383.58"/><line class="k" x1="182.38" y1="383.58" x2="184.71" y2="385.46"/><line class="k" x1="184.71" y1="385.46" x2="187.04" y2="383.58"/><line class="k" x1="187.04" y1="383.58" x2="187.04" y2="389.32"/><line class="k" x1="41.51" y1="262.85" x2="37.41" y2="262.85"/><line class="k" x1="37.41" y1="262.85" x2="37.41" y2="404.92"/><line class="k" x1="37.41" y1="404.92" x2="414.68" y2="404.92"/><line class="k" x1="414.68" y1="404.92" x2="633.1" y2="404.92"/><line class="k" x1="633.1" y1="404.92" x2="641.31" y2="404.92"/><line class="k" x1="641.31" y1="404.92" x2="641.31" y2="262.85"/><line class="k" x1="641.31" y1="262.85" x2="637.21" y2="262.85"/><line class="k" x1="637.21" y1="262.85" x2="637.21" y2="213.2"/><line class="k" x1="637.21" y1="213.2" x2="41.51" y2="213.2"/><line class="k" x1="41.51" y1="213.2" x2="41.51" y2="262.85"/><path class="o" d="M315.07,349.61v7h-.72v-6.36H312.7v-.64Z"/><path class="o" d="M316.75,356.11a.53.53,0,0,1,.53-.54.54.54,0,0,1,.54.54.55.55,0,0,1-.54.55A.54.54,0,0,1,316.75,356.11Z"/><path class="o" d="M318.76,353.11c0-2.23,1.17-3.55,2.79-3.55s2.79,1.32,2.79,3.55-1.18,3.56-2.79,3.56S318.76,355.34,318.76,353.11Zm4.85,0c0-1.87-.84-2.9-2.06-2.9s-2.06,1-2.06,2.9.84,2.9,2.06,2.9S323.61,355,323.61,353.11Z"/><path class="o" d="M327.31,349.61v7h-.72v-6.36h-1.65v-.64Z"/><path class="o" d="M205.72,349.61v7H205v-6.36h-1.65v-.64Z"/><path class="o" d="M207.4,356.11a.53.53,0,0,1,.53-.54.54.54,0,0,1,.54.54.55.55,0,0,1-.54.55A.54.54,0,0,1,207.4,356.11Z"/><path class="o" d="M209.41,353.11c0-2.23,1.17-3.55,2.79-3.55s2.79,1.32,2.79,3.55-1.17,3.56-2.79,3.56S209.41,355.34,209.41,353.11Zm4.84,0c0-1.87-.84-2.9-2.05-2.9s-2.06,1-2.06,2.9.84,2.9,2.06,2.9S214.25,355,214.25,353.11Z"/><path class="o" d="M220.79,356v.64h-4.9v-.51l2.91-2.85c.79-.78.94-1.25.94-1.73,0-.81-.57-1.31-1.64-1.31a2.38,2.38,0,0,0-1.91.78l-.51-.44a3.14,3.14,0,0,1,2.48-1c1.41,0,2.31.71,2.31,1.88a2.86,2.86,0,0,1-1.14,2.19L217,356Z"/><path class="o" d="M454.85,355.86v7h-.72v-6.36h-1.65v-.63Z"/><path class="o" d="M456.53,362.35a.53.53,0,0,1,.53-.54.54.54,0,0,1,.54.54.55.55,0,0,1-.54.55A.54.54,0,0,1,456.53,362.35Z"/><path class="o" d="M458.54,359.35c0-2.23,1.17-3.55,2.79-3.55s2.79,1.32,2.79,3.55-1.17,3.56-2.79,3.56S458.54,361.58,458.54,359.35Zm4.84,0c0-1.87-.84-2.9-2.05-2.9s-2.06,1-2.06,2.9.84,2.9,2.06,2.9S463.38,361.22,463.38,359.35Z"/><path class="o" d="M469.7,360.84c0,1.17-.85,2.07-2.54,2.07a3.64,3.64,0,0,1-2.52-.9l.35-.57a3.07,3.07,0,0,0,2.17.81c1.16,0,1.79-.54,1.79-1.41s-.59-1.39-1.88-1.39h-.5v-.53l1.94-2.43h-3.58v-.63h4.49v.5l-2,2.49C469,358.93,469.7,359.72,469.7,360.84Z"/><path class="o" d="M591.13,334.94v7h-.72v-6.36h-1.65v-.64Z"/><path class="o" d="M592.81,341.44a.53.53,0,0,1,.53-.54.54.54,0,0,1,.54.54.55.55,0,0,1-.54.55A.54.54,0,0,1,592.81,341.44Z"/><path class="o" d="M594.82,338.44c0-2.23,1.17-3.55,2.79-3.55s2.79,1.32,2.79,3.55-1.18,3.56-2.79,3.56S594.82,340.67,594.82,338.44Zm4.84,0c0-1.87-.84-2.9-2-2.9s-2.06,1-2.06,2.9.84,2.9,2.06,2.9S599.66,340.31,599.66,338.44Z"/><path class="o" d="M607.38,340.1H606v1.84h-.72V340.1h-3.95v-.52l3.71-4.64h.79l-3.57,4.52h3v-1.62H606v1.62h1.39Z"/><path class="o" d="M324.46,283.44v7h-.72v-6.36h-1.65v-.64Z"/><path class="o" d="M326.14,289.94a.53.53,0,0,1,.53-.54.54.54,0,0,1,.54.54.55.55,0,0,1-.54.55A.54.54,0,0,1,326.14,289.94Z"/><path class="o" d="M328.15,286.94c0-2.23,1.17-3.55,2.79-3.55s2.79,1.32,2.79,3.55-1.18,3.56-2.79,3.56S328.15,289.17,328.15,286.94Zm4.84,0c0-1.87-.84-2.9-2.05-2.9s-2.06,1-2.06,2.9.84,2.9,2.06,2.9S333,288.81,333,286.94Z"/><path class="o" d="M339.51,288.38c0,1.19-.82,2.12-2.53,2.12a3.61,3.61,0,0,1-2.51-.9l.35-.57a3,3,0,0,0,2.15.81c1.18,0,1.81-.58,1.81-1.43s-.55-1.46-2.33-1.46H335l.36-3.51h3.83v.64H336l-.24,2.23h.9C338.71,286.31,339.51,287.14,339.51,288.38Z"/></svg>