<svg xmlns="http://www.w3.org/2000/svg" xmlns:xlink="http://www.w3.org/1999/xlink" viewBox="0 0 790.58 618.13"><defs><style>.a,.p{fill:none;}.b{clip-path:url(#a);}.c{clip-path:url(#d);}.d{clip-path:url(#g);}.e{clip-path:url(#j);}.f{clip-path:url(#n);}.g{clip-path:url(#q);}.h{clip-path:url(#t);}.i{clip-path:url(#w);}.j{fill:#595a5c;}.k{fill:#b6906c;}.l,.q{fill:#fff;}.m{fill:#231f20;}.n{fill:url(#aa);}.o{fill:url(#ab);}.p{stroke:#000;stroke-linecap:round;stroke-linejoin:round;stroke-width:0.35px;}.q,.r{fill-rule:evenodd;}.s{clip-path:url(#ac);}.t{fill:#58595b;}</style><clipPath id="a"><rect class="a" y="50" width="50" height="50"/></clipPath><clipPath id="d"><rect class="a" x="50" y="50" width="50" height="50"/></clipPath><clipPath id="g"><rect class="a" width="50" height="50"/></clipPath><clipPath id="j"><rect class="a" x="50" width="50" height="50"/></clipPath><clipPath id="n"><rect class="a" y="59.93" width="90" height="59.93"/></clipPath><clipPath id="q"><rect class="a" x="90" y="59.93" width="90" height="59.93"/></clipPath><clipPath id="t"><rect class="a" width="90" height="59.93"/></clipPath><clipPath id="w"><rect class="a" x="90" width="90" height="59.93"/></clipPath><pattern id="aa" width="100" height="100" patternTransform="matrix(3.49, 0, 0, -3.49, -9225.9, 50955.27)" patternUnits="userSpaceOnUse" viewBox="0 0 100 100"><rect class="a" width="100" height="100"/><g class="b"><g class="b"><g class="b"><image width="210" height="210" transform="matrix(0.24, 0, 0, -0.24, -0.2, 100.2)" xlink:href="B101_pudorys1.png"/></g></g></g><g class="c"><g class="c"><g class="c"><image width="209" height="210" transform="matrix(0.24, 0, 0, -0.24, 49.96, 100.2)" xlink:href="B101_pudorys2.png"/></g></g></g><g class="d"><g class="d"><g class="d"><image width="210" height="209" transform="matrix(0.24, 0, 0, -0.24, -0.2, 50.04)" xlink:href="B101_pudorys3.png"/></g></g></g><g class="e"><g class="e"><g class="e"><g class="e"><image width="209" height="209" transform="matrix(0.24, 0, 0, -0.24, 49.96, 50.04)" xlink:href="B101_pudorys4.png"/></g></g></g></g></pattern><pattern id="ab" width="180" height="119.85" patternTransform="matrix(0, -3.49, -3.49, 0, 34812.87, 14438.16)" patternUnits="userSpaceOnUse" viewBox="0 0 180 119.85"><rect class="a" width="180" height="119.85"/><g class="f"><g class="f"><g class="f"><image width="376" height="251" transform="matrix(0.24, 0, 0, -0.24, -0.2, 120.05)" xlink:href="B101_pudorys5.png"/></g></g></g><g class="g"><g class="g"><g class="g"><image width="376" height="251" transform="matrix(0.24, 0, 0, -0.24, 89.8, 120.05)" xlink:href="B101_pudorys6.png"/></g></g></g><g class="h"><g class="h"><g class="h"><image width="376" height="251" transform="matrix(0.24, 0, 0, -0.24, -0.2, 60.05)" xlink:href="B101_pudorys7.png"/></g></g></g><g class="i"><g class="i"><g class="i"><g class="i"><image width="376" height="251" transform="matrix(0.24, 0, 0, -0.24, 89.8, 60.05)" xlink:href="B101_pudorys8.png"/></g></g></g></g></pattern><clipPath id="ac"><polygon class="a" points="219.84 167.54 219.84 363.23 224.04 363.23 224.04 450.59 543.91 450.59 543.91 363.23 545.53 363.23 545.53 167.54 219.84 167.54"/></clipPath></defs><path class="j" d="M55.31,597.13H57.1V609.9H55.31Zm.92,6.11h4.09a1.89,1.89,0,0,0,1-.27,1.82,1.82,0,0,0,.68-.77,2.67,2.67,0,0,0,.24-1.16,2.7,2.7,0,0,0-.24-1.16,1.82,1.82,0,0,0-1.7-1H56.23v-1.7h4a4.09,4.09,0,0,1,2,.48A3.45,3.45,0,0,1,63.62,599a4.64,4.64,0,0,1,0,4.11,3.34,3.34,0,0,1-1.35,1.36,4,4,0,0,1-2,.49h-4Z"/><path class="j" d="M67.7,606.33a2.07,2.07,0,0,0,.49,1.48,1.76,1.76,0,0,0,1.37.52,1.89,1.89,0,0,0,1.37-.46,1.79,1.79,0,0,0,.48-1.33l.12,1.91A2.58,2.58,0,0,1,69.06,610a2.89,2.89,0,0,1-2.33-1,4.08,4.08,0,0,1-.82-2.73v-5.55H67.7Zm.22-7.86a1.93,1.93,0,0,1-.56-1.5,2.07,2.07,0,0,1,.56-1.57,2.56,2.56,0,0,1,3.18,0,2.08,2.08,0,0,1,.57,1.56,1.94,1.94,0,0,1-.57,1.5,2.65,2.65,0,0,1-3.18,0Zm2.26-.86a.94.94,0,0,0,.24-.68,1,1,0,0,0-.24-.7.91.91,0,0,0-.67-.25.92.92,0,0,0-.67.25,1,1,0,0,0-.23.7,1,1,0,0,0,.23.68.92.92,0,0,0,.67.24A.9.9,0,0,0,70.18,597.61Zm1.23,3.17h1.78v9.12H71.41Z"/><path class="j" d="M77.1,609.63A2.82,2.82,0,0,1,76,608.36a5.08,5.08,0,0,1-.36-2v-2a5.05,5.05,0,0,1,.36-2,2.71,2.71,0,0,1,1-1.27,3,3,0,0,1,1.65-.44,2.71,2.71,0,0,1,1.48.42,3.22,3.22,0,0,1,1.09,1.19l-.18,1.86a2.19,2.19,0,0,0-.22-1,1.48,1.48,0,0,0-.61-.63,2,2,0,0,0-1-.21,1.71,1.71,0,0,0-1.37.55,2.26,2.26,0,0,0-.49,1.56v2a2.19,2.19,0,0,0,.49,1.54,1.74,1.74,0,0,0,1.37.54,1.93,1.93,0,0,0,1-.23,1.45,1.45,0,0,0,.61-.64,2.25,2.25,0,0,0,.22-1l.12,1.92a2.66,2.66,0,0,1-.89,1.14,2.56,2.56,0,0,1-1.53.45A3.19,3.19,0,0,1,77.1,609.63Zm4-12.5H82.9V609.9H81.11Z"/><path class="j" d="M87.09,609.57a3.09,3.09,0,0,1-1.29-1.36,4.85,4.85,0,0,1-.44-2.15v-1.48a4.71,4.71,0,0,1,.44-2.12,3.12,3.12,0,0,1,1.29-1.35,4.71,4.71,0,0,1,4.06,0,3.12,3.12,0,0,1,1.29,1.35,4.71,4.71,0,0,1,.44,2.12v1.51a4.79,4.79,0,0,1-.44,2.13,3.12,3.12,0,0,1-1.29,1.35,4.62,4.62,0,0,1-4.06,0Zm3.49-1.83a2.43,2.43,0,0,0,.51-1.65v-1.51a2.43,2.43,0,0,0-.51-1.65,1.88,1.88,0,0,0-1.46-.58,1.85,1.85,0,0,0-1.45.58,2.38,2.38,0,0,0-.52,1.65v1.51a2.38,2.38,0,0,0,.52,1.65,1.82,1.82,0,0,0,1.45.59A1.85,1.85,0,0,0,90.58,607.74Z"/><path class="j" d="M95.43,600.78h1.79v9.12H95.43Zm4.42,1.72a2.16,2.16,0,0,0-.83-.15,1.83,1.83,0,0,0-1.33.47,1.79,1.79,0,0,0-.47,1.31L97,602.37a3.32,3.32,0,0,1,1.09-1.27,2.58,2.58,0,0,1,1.48-.45,3.39,3.39,0,0,1,1.13.18,2.62,2.62,0,0,1,.88.53l-1.17,1.58A1.56,1.56,0,0,0,99.85,602.5Z"/><path class="j" d="M102.15,600.78H104l2.81,7.93-1,1.94Zm8.07,0L106.34,612a2.6,2.6,0,0,1-.56,1,1.87,1.87,0,0,1-.84.52,4,4,0,0,1-1.23.16h-.36V612h.36a1.46,1.46,0,0,0,.8-.2,1.74,1.74,0,0,0,.51-.7l3.38-10.31Z"/><path class="j" d="M113.51,609.88a5.76,5.76,0,0,1-1.32-.48,4.89,4.89,0,0,1-1.13-.79l1.06-1.31a5.86,5.86,0,0,0,1.47.85,4.18,4.18,0,0,0,1.44.28,3.11,3.11,0,0,0,1.6-.33,1.1,1.1,0,0,0,.53-1,.79.79,0,0,0-.29-.66,1.66,1.66,0,0,0-.72-.29c-.29,0-.69-.1-1.22-.14h-.15l-.14,0h-.15a6.45,6.45,0,0,1-1.5-.26,2,2,0,0,1-1-.7,2.38,2.38,0,0,1-.41-1.49,3.07,3.07,0,0,1,.39-1.61,2.41,2.41,0,0,1,1.18-1,5.29,5.29,0,0,1,2-.32,6.38,6.38,0,0,1,2.6.52,6.16,6.16,0,0,1,1.13.66l-1.08,1.31a5.59,5.59,0,0,0-1.35-.66,4,4,0,0,0-1.3-.22,2.44,2.44,0,0,0-1.37.31,1.08,1.08,0,0,0-.46.94.64.64,0,0,0,.26.55,1.72,1.72,0,0,0,.66.25c.26,0,.64.07,1.12.1h.34a7.67,7.67,0,0,1,1.63.25,2.24,2.24,0,0,1,1.13.77,2.62,2.62,0,0,1,.45,1.65,2.92,2.92,0,0,1-.42,1.63,2.54,2.54,0,0,1-1.27,1A5.88,5.88,0,0,1,115,610,7.38,7.38,0,0,1,113.51,609.88Z"/><path class="j" d="M126,597.13h1.8V609.9H126Zm2.6,12.5a2.39,2.39,0,0,1-.93-1.16l.13-1.91a2.22,2.22,0,0,0,.21,1,1.48,1.48,0,0,0,.61.63,1.93,1.93,0,0,0,1,.22,1.74,1.74,0,0,0,1.37-.54,2.18,2.18,0,0,0,.49-1.53v-2a2.26,2.26,0,0,0-.49-1.56,1.71,1.71,0,0,0-1.37-.55,2,2,0,0,0-1,.21,1.36,1.36,0,0,0-.61.62,2.12,2.12,0,0,0-.21,1l-.19-1.76a3.37,3.37,0,0,1,1.08-1.24,2.67,2.67,0,0,1,1.49-.43,3,3,0,0,1,1.65.43,2.9,2.9,0,0,1,1.06,1.27,5.1,5.1,0,0,1,.36,2v2a4.94,4.94,0,0,1-.37,2,2.79,2.79,0,0,1-1.08,1.26,3.25,3.25,0,0,1-1.71.44A2.73,2.73,0,0,1,128.57,609.63Z"/><path class="j" d="M134.46,600.78h1.82l2.81,7.93-1,1.94Zm8.07,0L138.65,612a2.6,2.6,0,0,1-.56,1,1.87,1.87,0,0,1-.84.52,4,4,0,0,1-1.23.16h-.36V612H136a1.46,1.46,0,0,0,.8-.2,1.74,1.74,0,0,0,.51-.7l3.37-10.31Z"/><path class="j" d="M143.57,600.78h4.12v1.62h-4.12Zm1.46,8.56a2.77,2.77,0,0,1-.52-1.81v-9.4h1.8v9.42a.84.84,0,0,0,.13.51.46.46,0,0,0,.39.18h.86V610h-1A2,2,0,0,1,145,609.34Z"/><path class="j" d="M151.94,606.33a2.07,2.07,0,0,0,.49,1.48,1.76,1.76,0,0,0,1.37.52,1.91,1.91,0,0,0,1.37-.46,1.79,1.79,0,0,0,.48-1.33l.12,1.91A2.58,2.58,0,0,1,153.3,610a2.89,2.89,0,0,1-2.33-1,4.08,4.08,0,0,1-.82-2.73v-5.55h1.79Zm3.71-5.55h1.78v9.12h-1.78Z"/><rect class="k" x="612.92" y="591.68" width="35.43" height="2.83"/><path class="l" d="M648.48,594.64H612.79v-3.08h35.69ZM613,594.39h35.19v-2.58H613Z"/><rect class="k" x="612.92" y="601.6" width="70.74" height="2.83"/><path class="l" d="M683.78,604.56h-71v-3.08h71ZM613,604.31h70.49v-2.58H613Z"/><rect class="k" x="612.92" y="612.72" width="177.16" height="2.84"/><path class="l" d="M790.21,615.68H612.79V612.6H790.21ZM613,615.43H790v-2.58H613Z"/><path class="m" d="M587.26,596.28h-.8v-4.82l-.81.5v-.83l.81-.53h.8Z"/><path class="m" d="M589,595.91a1.67,1.67,0,0,1-.41-1.19v-2.58A1.65,1.65,0,0,1,589,591a2,2,0,0,1,2.42,0,1.65,1.65,0,0,1,.41,1.19v2.58a1.65,1.65,0,0,1-.41,1.19,2,2,0,0,1-2.42,0Zm1.83-.55a.89.89,0,0,0,.2-.64v-2.58a.89.89,0,0,0-.2-.64.82.82,0,0,0-.62-.22.86.86,0,0,0-.63.22.94.94,0,0,0-.2.64v2.58a.9.9,0,0,0,.21.64,1,1,0,0,0,1.24,0Z"/><path class="m" d="M593.22,595.91a1.67,1.67,0,0,1-.41-1.19v-2.58a1.65,1.65,0,0,1,.41-1.19,2,2,0,0,1,2.42,0,1.61,1.61,0,0,1,.41,1.19v2.58a1.65,1.65,0,0,1-.41,1.19,2,2,0,0,1-2.42,0Zm1.83-.55a.9.9,0,0,0,.21-.64v-2.58a.94.94,0,0,0-.2-.64.86.86,0,0,0-.63-.22.82.82,0,0,0-.62.22.89.89,0,0,0-.2.64v2.58a.89.89,0,0,0,.2.64,1,1,0,0,0,1.24,0Z"/><path class="m" d="M600.1,596.13a1.45,1.45,0,0,1-.6-.6,2.06,2.06,0,0,1-.21-1v-.67a2,2,0,0,1,.21-.94,1.37,1.37,0,0,1,.6-.59,2,2,0,0,1,.95-.21,2.21,2.21,0,0,1,.59.08,1.68,1.68,0,0,1,.51.22,1.54,1.54,0,0,1,.37.35l-.58.52a1.17,1.17,0,0,0-.4-.3,1.13,1.13,0,0,0-.48-.11.94.94,0,0,0-.71.26,1,1,0,0,0-.26.72v.67a1,1,0,0,0,.25.74.94.94,0,0,0,.72.27,1,1,0,0,0,.48-.12,1,1,0,0,0,.4-.32l.58.56a1.38,1.38,0,0,1-.38.34,1.62,1.62,0,0,1-.5.22,2.27,2.27,0,0,1-.59.07A2.12,2.12,0,0,1,600.1,596.13Z"/><path class="m" d="M603.4,592.22h.79v4.06h-.79Zm2.42,1.6a1,1,0,0,0-.21-.67.78.78,0,0,0-.6-.23.81.81,0,0,0-.6.21.73.73,0,0,0-.22.58l-.08-.78a1.46,1.46,0,0,1,.49-.57,1.22,1.22,0,0,1,.67-.2,1.33,1.33,0,0,1,.73.2,1.18,1.18,0,0,1,.46.56,2.4,2.4,0,0,1,.15.89v2.47h-.79Zm2.42,0a.93.93,0,0,0-.22-.67.85.85,0,0,0-.63-.23.72.72,0,0,0-.57.23.9.9,0,0,0-.21.64l-.16-.78a1.61,1.61,0,0,1,.51-.63,1.23,1.23,0,0,1,.69-.22,1.37,1.37,0,0,1,.75.2,1.09,1.09,0,0,1,.47.56,2.21,2.21,0,0,1,.17.89v2.47h-.8Z"/><path class="m" d="M584.33,605.5l2-2.64a1.85,1.85,0,0,0,.27-.47,1.29,1.29,0,0,0,.09-.45h0a.67.67,0,0,0-.2-.53.81.81,0,0,0-.56-.19.76.76,0,0,0-.56.21,1,1,0,0,0-.27.58h-.82a2,2,0,0,1,.29-.83,1.42,1.42,0,0,1,.56-.53,1.67,1.67,0,0,1,.79-.18,1.93,1.93,0,0,1,.87.17,1.21,1.21,0,0,1,.54.51,1.55,1.55,0,0,1,.19.8h0a1.84,1.84,0,0,1-.12.63,2.8,2.8,0,0,1-.35.63l-1.65,2.24h2.15v.76h-3.2Z"/><path class="m" d="M589,605.83a1.67,1.67,0,0,1-.41-1.19v-2.58a1.65,1.65,0,0,1,.41-1.19,2,2,0,0,1,2.42,0,1.65,1.65,0,0,1,.41,1.19v2.58a1.65,1.65,0,0,1-.41,1.19,2,2,0,0,1-2.42,0Zm1.83-.55a.89.89,0,0,0,.2-.64v-2.58a.89.89,0,0,0-.2-.64.82.82,0,0,0-.62-.22.86.86,0,0,0-.63.22.94.94,0,0,0-.19.64v2.58a.89.89,0,0,0,.2.64,1,1,0,0,0,1.24,0Z"/><path class="m" d="M593.22,605.83a1.67,1.67,0,0,1-.41-1.19v-2.58a1.61,1.61,0,0,1,.42-1.19,1.59,1.59,0,0,1,1.2-.42,1.45,1.45,0,0,1,1.62,1.61v2.58a1.61,1.61,0,0,1-.41,1.19,2,2,0,0,1-2.42,0Zm1.84-.55a.94.94,0,0,0,.2-.64v-2.58a.94.94,0,0,0-.2-.64.84.84,0,0,0-.63-.22.82.82,0,0,0-.62.22.89.89,0,0,0-.2.64v2.58a.89.89,0,0,0,.2.64.82.82,0,0,0,.62.22A.86.86,0,0,0,595.06,605.28Z"/><path class="m" d="M600.1,606.05a1.45,1.45,0,0,1-.6-.6,2.06,2.06,0,0,1-.2-1v-.67a2,2,0,0,1,.2-.94,1.37,1.37,0,0,1,.6-.59,2,2,0,0,1,.95-.21,2.35,2.35,0,0,1,.6.08,1.73,1.73,0,0,1,.5.22,1.38,1.38,0,0,1,.37.35l-.58.52a1.08,1.08,0,0,0-.4-.3,1.13,1.13,0,0,0-.48-.11,1,1,0,0,0-.71.26,1,1,0,0,0-.26.72v.67a1,1,0,0,0,.25.74.94.94,0,0,0,.72.27,1.14,1.14,0,0,0,.88-.44l.58.56a1.38,1.38,0,0,1-.38.34,1.62,1.62,0,0,1-.5.22,2.22,2.22,0,0,1-.59.07A2.12,2.12,0,0,1,600.1,606.05Z"/><path class="m" d="M603.4,602.14h.79v4.06h-.79Zm2.42,1.6a1,1,0,0,0-.21-.67.78.78,0,0,0-.6-.23.81.81,0,0,0-.6.21.73.73,0,0,0-.22.58l-.08-.78a1.46,1.46,0,0,1,.49-.57,1.22,1.22,0,0,1,.67-.2,1.3,1.3,0,0,1,.73.2,1.18,1.18,0,0,1,.46.56,2.4,2.4,0,0,1,.16.89v2.47h-.8Zm2.42,0a.93.93,0,0,0-.22-.67.85.85,0,0,0-.63-.23.73.73,0,0,0-.57.23.89.89,0,0,0-.2.64l-.16-.78a1.51,1.51,0,0,1,.5-.63,1.23,1.23,0,0,1,.69-.22,1.35,1.35,0,0,1,.75.2,1.16,1.16,0,0,1,.48.56,2.4,2.4,0,0,1,.16.89v2.47h-.8Z"/><path class="m" d="M585,615.58a1.34,1.34,0,0,1-.54-.49,2,2,0,0,1-.28-.77h.8a.75.75,0,0,0,.25.49.85.85,0,0,0,.54.17.72.72,0,0,0,.59-.25,1.1,1.1,0,0,0,.21-.72v-.48a1.1,1.1,0,0,0-.21-.72.72.72,0,0,0-.59-.25.83.83,0,0,0-.4.11,1.18,1.18,0,0,0-.34.33h-.72v-3h2.89v.76h-2.1V612a1,1,0,0,1,.34-.18.94.94,0,0,1,.37-.07,1.68,1.68,0,0,1,.84.2,1.29,1.29,0,0,1,.53.6,2.07,2.07,0,0,1,.19.94V614a2.25,2.25,0,0,1-.19.94,1.31,1.31,0,0,1-.55.59,1.69,1.69,0,0,1-.86.21A1.74,1.74,0,0,1,585,615.58Z"/><path class="m" d="M589,615.32a1.65,1.65,0,0,1-.41-1.19v-2.58a1.67,1.67,0,0,1,.41-1.19,2,2,0,0,1,2.42,0,1.65,1.65,0,0,1,.41,1.19v2.58a1.64,1.64,0,0,1-.41,1.19,1.92,1.92,0,0,1-2.42,0Zm1.83-.55a.89.89,0,0,0,.2-.64v-2.58a.88.88,0,0,0-.2-.63.78.78,0,0,0-.62-.22.82.82,0,0,0-.63.22.93.93,0,0,0-.2.63v2.58a.9.9,0,0,0,.21.64,1,1,0,0,0,1.24,0Z"/><path class="m" d="M593.22,615.32a1.65,1.65,0,0,1-.41-1.19v-2.58a1.67,1.67,0,0,1,.41-1.19,2,2,0,0,1,2.42,0,1.61,1.61,0,0,1,.41,1.19v2.58a1.64,1.64,0,0,1-.41,1.19,1.92,1.92,0,0,1-2.42,0Zm1.83-.55a.9.9,0,0,0,.21-.64v-2.58a.93.93,0,0,0-.2-.63.82.82,0,0,0-.63-.22.78.78,0,0,0-.62.22.88.88,0,0,0-.2.63v2.58a.89.89,0,0,0,.2.64,1,1,0,0,0,1.24,0Z"/><path class="m" d="M600.1,615.54a1.45,1.45,0,0,1-.6-.6,2,2,0,0,1-.21-1v-.67a2,2,0,0,1,.21-.94,1.45,1.45,0,0,1,.6-.6,2,2,0,0,1,.95-.2,2.22,2.22,0,0,1,.59.07,2,2,0,0,1,.51.22,1.76,1.76,0,0,1,.37.35l-.58.52a1.17,1.17,0,0,0-.4-.3,1.13,1.13,0,0,0-.48-.11.94.94,0,0,0-.71.26,1,1,0,0,0-.26.73V614a1.07,1.07,0,0,0,.25.74,1,1,0,0,0,.72.26,1.13,1.13,0,0,0,.48-.11,1.26,1.26,0,0,0,.4-.32l.58.55a1.42,1.42,0,0,1-.38.35,1.88,1.88,0,0,1-.5.21,2.27,2.27,0,0,1-.59.08A2,2,0,0,1,600.1,615.54Z"/><path class="m" d="M603.4,611.63h.79v4.06h-.79Zm2.42,1.6a1,1,0,0,0-.21-.66.75.75,0,0,0-.6-.24.81.81,0,0,0-.6.21.75.75,0,0,0-.22.58l-.08-.78a1.5,1.5,0,0,1,.49-.56,1.15,1.15,0,0,1,.67-.2,1.32,1.32,0,0,1,.73.19,1.28,1.28,0,0,1,.46.56,2.42,2.42,0,0,1,.15.9v2.46h-.79Zm2.42,0a.91.91,0,0,0-.22-.66.82.82,0,0,0-.63-.24.72.72,0,0,0-.57.23.9.9,0,0,0-.21.64l-.16-.78a1.51,1.51,0,0,1,.51-.62,1.16,1.16,0,0,1,.69-.22,1.37,1.37,0,0,1,.75.19,1.18,1.18,0,0,1,.47.56,2.22,2.22,0,0,1,.17.9v2.46h-.8Z"/><path class="k" d="M23.49,613.89A12.92,12.92,0,1,1,36.4,601,12.93,12.93,0,0,1,23.49,613.89Zm0-24.83A11.92,11.92,0,1,0,35.4,601,11.93,11.93,0,0,0,23.49,589.06Z"/><polygon class="l" points="35.77 588.74 9.42 600.98 35.77 613.21 32.02 600.98 35.77 588.74"/><path class="k" d="M36.58,614.14,8.23,601l28.35-13.17-4,13.17ZM10.61,601,35,612.29,31.5,601,35,589.66Z"/><path class="k" d="M2.52,605.19a5,5,0,0,1-1.11-.38,4.4,4.4,0,0,1-1-.64l.81-1a3.72,3.72,0,0,0,1.16.69,4.08,4.08,0,0,0,1.38.23,2.73,2.73,0,0,0,1.55-.38,1.17,1.17,0,0,0,.55-1.05h0a1.12,1.12,0,0,0-.25-.77,1.44,1.44,0,0,0-.64-.42,8.23,8.23,0,0,0-1-.25H3.89l-.1,0a9.48,9.48,0,0,1-1.5-.36,2.08,2.08,0,0,1-1-.73,2.42,2.42,0,0,1-.41-1.51h0a2.77,2.77,0,0,1,.38-1.47,2.44,2.44,0,0,1,1.12-.92,4.48,4.48,0,0,1,1.77-.32,4.6,4.6,0,0,1,1,.11,4.9,4.9,0,0,1,1.86.86l-.73,1a4.61,4.61,0,0,0-1-.58,3,3,0,0,0-1.06-.2,2.44,2.44,0,0,0-1.46.38,1.24,1.24,0,0,0-.53,1.07h0a1,1,0,0,0,.27.75,1.74,1.74,0,0,0,.67.4,9.3,9.3,0,0,0,1.12.27h.24a7.93,7.93,0,0,1,1.4.41,2.22,2.22,0,0,1,.94.76,2.4,2.4,0,0,1,.38,1.43h0a2.62,2.62,0,0,1-.4,1.45,2.54,2.54,0,0,1-1.16.91,4.8,4.8,0,0,1-1.83.31A6.44,6.44,0,0,1,2.52,605.19Z"/><rect class="k" x="612.5" y="600.68" width="1" height="4.68"/><rect class="k" x="612.5" y="590.76" width="1" height="4.68"/><rect class="k" x="612.5" y="611.45" width="1" height="5.24"/><rect class="k" x="789.58" y="611.45" width="1" height="5.24"/><rect class="k" x="682.59" y="600.68" width="1" height="4.68"/><rect class="k" x="647.3" y="590.76" width="1" height="4.68"/><rect class="a" width="790.34" height="618.13"/><rect class="n" x="219.84" y="175.92" width="0.13" height="52.42"/><rect class="o" x="219.84" y="235.33" width="0.13" height="113.92"/><rect class="l" x="219.84" y="235.33" width="0.13" height="20.96"/><line class="p" x1="219.84" y1="256.3" x2="219.98" y2="256.3"/><line class="p" x1="219.98" y1="235.33" x2="219.84" y2="235.33"/><line class="p" x1="219.98" y1="256.3" x2="219.98" y2="235.33"/><rect class="l" x="319.22" y="175.92" width="27.96" height="20.97"/><line class="p" x1="347.17" y1="196.89" x2="319.22" y2="196.89"/><line class="p" x1="319.22" y1="196.89" x2="319.22" y2="175.92"/><line class="p" x1="319.22" y1="175.92" x2="347.17" y2="175.92"/><line class="p" x1="347.17" y1="175.92" x2="347.17" y2="196.89"/><polygon class="q" points="515.96 175.93 536.92 175.93 536.92 244.07 515.26 244.07 515.26 196.89 427.2 196.89 427.2 175.93 515.96 175.93"/><line class="p" x1="536.92" y1="175.92" x2="515.96" y2="175.92"/><line class="p" x1="536.92" y1="244.07" x2="536.92" y2="175.93"/><line class="p" x1="515.26" y1="244.07" x2="536.92" y2="244.07"/><line class="p" x1="515.26" y1="196.89" x2="515.26" y2="244.07"/><line class="p" x1="427.2" y1="196.89" x2="515.26" y2="196.89"/><line class="p" x1="427.2" y1="175.92" x2="427.2" y2="196.89"/><line class="p" x1="515.96" y1="175.92" x2="427.2" y2="175.92"/><rect class="l" x="229.24" y="199.51" width="27.95" height="41.93"/><line class="p" x1="229.24" y1="199.51" x2="229.24" y2="241.45"/><line class="p" x1="257.19" y1="199.51" x2="229.24" y2="199.51"/><line class="p" x1="257.19" y1="241.45" x2="257.19" y2="199.51"/><line class="p" x1="229.24" y1="241.45" x2="257.19" y2="241.45"/><line class="p" x1="407.63" y1="193.4" x2="423.35" y2="193.4"/><line class="p" x1="423.35" y1="193.4" x2="423.35" y2="175.92"/><line class="p" x1="423.35" y1="175.92" x2="419.86" y2="189.9"/><line class="p" x1="419.86" y1="189.9" x2="407.63" y2="193.4"/><line class="p" x1="228.36" y1="195.14" x2="249.01" y2="191.64"/><line class="p" x1="249.01" y1="191.64" x2="252.83" y2="175.92"/><line class="p" x1="252.83" y1="175.92" x2="252.83" y2="195.14"/><line class="p" x1="252.83" y1="195.14" x2="228.36" y2="195.14"/><rect x="360.45" y="356.24" width="52.42" height="6.99"/><polygon class="r" points="219.84 363.23 219.84 356.24 250.38 356.24 250.38 363.23 224.04 363.23 219.84 363.23"/><rect x="219.84" y="349.25" width="28.79" height="6.99"/><rect x="501.98" y="349.25" width="34.95" height="6.99"/><rect x="304.54" y="349.25" width="22.71" height="6.99"/><rect x="302.8" y="356.24" width="26.21" height="6.99"/><rect x="362.2" y="349.25" width="48.92" height="6.99"/><polygon class="r" points="500.23 356.24 536.92 356.24 536.92 450.59 531.68 450.59 531.68 363.23 500.23 363.23 500.23 356.24"/><polygon class="r" points="396.1 175.93 396.1 167.54 545.53 167.54 545.53 363.23 543.91 363.23 543.91 450.59 536.92 450.59 536.92 175.93 396.1 175.93"/><polygon class="r" points="219.84 167.54 357.66 167.54 357.66 175.93 228.36 175.93 228.36 242.32 329.7 242.32 329.7 249.31 228.36 249.31 228.36 349.25 219.98 349.25 219.98 175.93 219.84 175.93 219.84 167.54"/><rect x="357.66" y="167.54" width="1.75" height="4.02"/><rect x="394.35" y="167.54" width="1.75" height="4.02"/><rect x="224.04" y="363.23" width="1.53" height="71.64"/><rect x="400.64" y="175.92" width="6.99" height="26.21"/><polygon class="r" points="407.63 249.31 361.15 249.31 361.15 242.32 400.64 242.32 400.64 233.58 407.63 233.58 407.63 249.31"/><rect x="316.77" y="233.58" width="2.45" height="8.74"/><rect x="386.66" y="249.31" width="2.45" height="99.94"/><polygon class="r" points="407.63 193.4 423.35 193.4 423.35 175.93 426.85 175.93 426.85 196.89 407.63 196.89 407.63 193.4"/><rect x="228.36" y="195.14" width="27.95" height="3.49"/><rect x="252.83" y="175.92" width="3.49" height="19.22"/><rect x="316.77" y="175.92" width="2.45" height="29.7"/><rect x="219.84" y="228.34" width="0.13" height="6.99"/><line class="p" x1="228.36" y1="198.64" x2="228.36" y2="242.32"/><line class="p" x1="219.84" y1="363.23" x2="224.04" y2="363.23"/><line class="p" x1="224.04" y1="363.23" x2="250.38" y2="363.23"/><line class="p" x1="360.45" y1="363.23" x2="412.87" y2="363.23"/><line class="p" x1="219.84" y1="349.25" x2="219.98" y2="349.25"/><line class="p" x1="362.2" y1="349.25" x2="386.66" y2="349.25"/><line class="p" x1="389.11" y1="349.25" x2="411.12" y2="349.25"/><line class="p" x1="500.23" y1="363.23" x2="531.68" y2="363.23"/><line class="p" x1="501.98" y1="349.25" x2="536.92" y2="349.25"/><line class="p" x1="248.63" y1="349.25" x2="248.63" y2="356.24"/><line class="p" x1="228.36" y1="349.25" x2="248.63" y2="349.25"/><line class="p" x1="248.63" y1="356.24" x2="248.63" y2="349.25"/><line class="p" x1="362.2" y1="356.24" x2="362.2" y2="349.25"/><line class="p" x1="411.12" y1="356.24" x2="411.12" y2="349.25"/><line class="p" x1="501.98" y1="356.24" x2="501.98" y2="349.25"/><line class="p" x1="500.23" y1="356.24" x2="500.23" y2="363.23"/><line class="p" x1="501.98" y1="356.24" x2="500.23" y2="356.24"/><line class="p" x1="360.45" y1="356.24" x2="360.45" y2="363.23"/><line class="p" x1="362.2" y1="356.24" x2="360.45" y2="356.24"/><line class="p" x1="412.87" y1="356.24" x2="412.87" y2="363.23"/><line class="p" x1="412.87" y1="356.24" x2="411.12" y2="356.24"/><line class="p" x1="329" y1="356.24" x2="329" y2="363.23"/><line class="p" x1="327.26" y1="356.24" x2="327.26" y2="349.25"/><line class="p" x1="329" y1="356.24" x2="327.26" y2="356.24"/><line class="p" x1="250.38" y1="356.24" x2="250.38" y2="363.23"/><line class="p" x1="250.38" y1="356.24" x2="248.63" y2="356.24"/><line class="p" x1="304.54" y1="356.24" x2="304.54" y2="349.25"/><line class="p" x1="302.8" y1="356.24" x2="302.8" y2="363.23"/><line class="p" x1="304.54" y1="356.24" x2="302.8" y2="356.24"/><line class="p" x1="304.54" y1="349.25" x2="327.26" y2="349.25"/><line class="p" x1="302.8" y1="363.23" x2="329" y2="363.23"/><line class="p" x1="222.77" y1="363.23" x2="224.04" y2="363.23"/><line class="p" x1="224.04" y1="363.23" x2="225.57" y2="363.23"/><line class="p" x1="225.57" y1="363.23" x2="225.57" y2="434.86"/><line class="p" x1="224.04" y1="434.86" x2="225.57" y2="434.86"/><line class="p" x1="536.92" y1="349.25" x2="536.92" y2="175.93"/><line class="p" x1="428.6" y1="175.92" x2="536.92" y2="175.92"/><line class="p" x1="543.91" y1="447.09" x2="543.91" y2="368.47"/><line class="p" x1="531.68" y1="363.23" x2="531.68" y2="450.59"/><line class="p" x1="228.36" y1="349.25" x2="228.36" y2="249.31"/><line class="p" x1="219.98" y1="175.92" x2="219.84" y2="175.92"/><line class="p" x1="219.98" y1="175.92" x2="219.98" y2="228.34"/><line class="p" x1="219.98" y1="235.33" x2="219.98" y2="349.25"/><line class="p" x1="426.85" y1="175.92" x2="536.92" y2="175.92"/><line class="p" x1="359.4" y1="171.56" x2="359.4" y2="167.54"/><line class="p" x1="394.35" y1="171.56" x2="394.35" y2="167.54"/><line class="p" x1="394.35" y1="171.56" x2="396.1" y2="171.56"/><line class="p" x1="359.4" y1="171.56" x2="357.66" y2="171.56"/><line class="p" x1="357.66" y1="171.56" x2="357.66" y2="175.92"/><line class="p" x1="396.1" y1="171.56" x2="396.1" y2="175.92"/><line class="p" x1="400.64" y1="175.92" x2="396.1" y2="175.92"/><line class="p" x1="531.68" y1="438.36" x2="224.04" y2="438.36"/><line class="p" x1="248.63" y1="349.25" x2="304.54" y2="349.25"/><line class="p" x1="327.26" y1="349.25" x2="362.2" y2="349.25"/><line class="p" x1="501.98" y1="349.25" x2="446.07" y2="349.25"/><line class="p" x1="446.07" y1="349.25" x2="411.12" y2="349.25"/><line class="p" x1="500.23" y1="363.23" x2="444.32" y2="363.23"/><line class="p" x1="446.07" y1="349.25" x2="446.07" y2="356.24"/><line class="p" x1="444.32" y1="356.24" x2="444.32" y2="363.23"/><line class="p" x1="444.32" y1="359.73" x2="412.87" y2="359.73"/><line class="p" x1="412.52" y1="352.74" x2="412.52" y2="320.6"/><line class="p" x1="443.27" y1="355.54" x2="443.27" y2="356.24"/><line class="p" x1="443.27" y1="356.24" x2="446.07" y2="356.24"/><line class="p" x1="446.07" y1="356.24" x2="446.07" y2="353.44"/><line class="p" x1="446.07" y1="353.44" x2="444.67" y2="353.44"/><line class="p" x1="444.67" y1="352.74" x2="441.87" y2="352.74"/><line class="p" x1="441.87" y1="352.74" x2="441.87" y2="355.54"/><line class="p" x1="441.87" y1="355.54" x2="444.67" y2="355.54"/><line class="p" x1="444.67" y1="355.54" x2="444.67" y2="352.74"/><line class="p" x1="412.52" y1="352.74" x2="415.32" y2="352.74"/><line class="p" x1="415.32" y1="352.74" x2="415.32" y2="355.54"/><line class="p" x1="415.32" y1="355.54" x2="412.52" y2="355.54"/><line class="p" x1="412.52" y1="355.54" x2="412.52" y2="352.74"/><line class="p" x1="441.87" y1="352.74" x2="415.32" y2="352.74"/><line class="p" x1="415.32" y1="355.54" x2="441.87" y2="355.54"/><line class="p" x1="441.87" y1="354.14" x2="415.32" y2="354.14"/><g class="s"><path class="p" d="M412.52,320.59a32.15,32.15,0,0,1,32.15,32.15"/></g><line class="p" x1="413.92" y1="355.54" x2="413.92" y2="356.24"/><line class="p" x1="413.92" y1="356.24" x2="411.12" y2="356.24"/><line class="p" x1="411.12" y1="356.24" x2="411.12" y2="353.44"/><line class="p" x1="411.12" y1="353.44" x2="412.52" y2="353.44"/><line class="p" x1="446.07" y1="353.44" x2="448.86" y2="353.44"/><line class="p" x1="448.86" y1="353.44" x2="448.86" y2="356.24"/><line class="p" x1="448.86" y1="356.24" x2="446.07" y2="356.24"/><line class="p" x1="446.07" y1="356.24" x2="446.07" y2="353.44"/><line class="p" x1="448.86" y1="353.44" x2="472.63" y2="353.44"/><line class="p" x1="448.86" y1="354.84" x2="472.63" y2="354.84"/><line class="p" x1="448.86" y1="356.24" x2="472.63" y2="356.24"/><line class="p" x1="499.18" y1="355.54" x2="499.18" y2="356.24"/><line class="p" x1="499.18" y1="356.24" x2="501.98" y2="356.24"/><line class="p" x1="501.98" y1="356.24" x2="501.98" y2="353.44"/><line class="p" x1="501.98" y1="353.44" x2="500.58" y2="353.44"/><line class="p" x1="500.58" y1="352.74" x2="497.79" y2="352.74"/><line class="p" x1="497.79" y1="352.74" x2="497.79" y2="355.54"/><line class="p" x1="497.79" y1="355.54" x2="500.58" y2="355.54"/><line class="p" x1="500.58" y1="355.54" x2="500.58" y2="352.74"/><line class="p" x1="497.79" y1="352.74" x2="476.82" y2="352.74"/><line class="p" x1="476.82" y1="355.54" x2="497.79" y2="355.54"/><line class="p" x1="497.79" y1="354.14" x2="476.82" y2="354.14"/><line class="p" x1="250.38" y1="363.23" x2="302.8" y2="363.23"/><line class="p" x1="327.26" y1="349.25" x2="327.26" y2="356.24"/><line class="p" x1="329" y1="359.73" x2="360.45" y2="359.73"/><line class="p" x1="360.8" y1="352.74" x2="360.8" y2="320.6"/><line class="p" x1="330.05" y1="355.54" x2="330.05" y2="356.24"/><line class="p" x1="330.05" y1="356.24" x2="327.26" y2="356.24"/><line class="p" x1="327.26" y1="356.24" x2="327.26" y2="353.44"/><line class="p" x1="327.26" y1="353.44" x2="328.65" y2="353.44"/><line class="p" x1="328.65" y1="352.74" x2="331.45" y2="352.74"/><line class="p" x1="331.45" y1="352.74" x2="331.45" y2="355.54"/><line class="p" x1="331.45" y1="355.54" x2="328.65" y2="355.54"/><line class="p" x1="328.65" y1="355.54" x2="328.65" y2="352.74"/><line class="p" x1="360.8" y1="352.74" x2="358.01" y2="352.74"/><line class="p" x1="358.01" y1="352.74" x2="358.01" y2="355.54"/><line class="p" x1="358.01" y1="355.54" x2="360.8" y2="355.54"/><line class="p" x1="360.8" y1="355.54" x2="360.8" y2="352.74"/><line class="p" x1="331.45" y1="352.74" x2="358.01" y2="352.74"/><line class="p" x1="358.01" y1="355.54" x2="331.45" y2="355.54"/><line class="p" x1="331.45" y1="354.14" x2="358.01" y2="354.14"/><g class="s"><path class="p" d="M328.65,352.74A32.15,32.15,0,0,1,360.8,320.6"/></g><line class="p" x1="359.4" y1="355.54" x2="359.4" y2="356.24"/><line class="p" x1="359.4" y1="356.24" x2="362.2" y2="356.24"/><line class="p" x1="362.2" y1="356.24" x2="362.2" y2="353.44"/><line class="p" x1="362.2" y1="353.44" x2="360.8" y2="353.44"/><line class="p" x1="475.42" y1="355.54" x2="475.42" y2="356.24"/><line class="p" x1="475.42" y1="356.24" x2="472.63" y2="356.24"/><line class="p" x1="472.63" y1="356.24" x2="472.63" y2="353.44"/><line class="p" x1="472.63" y1="353.44" x2="474.02" y2="353.44"/><line class="p" x1="474.02" y1="352.74" x2="476.82" y2="352.74"/><line class="p" x1="476.82" y1="352.74" x2="476.82" y2="355.54"/><line class="p" x1="476.82" y1="355.54" x2="474.02" y2="355.54"/><line class="p" x1="474.02" y1="355.54" x2="474.02" y2="352.74"/><line class="p" x1="248.63" y1="353.44" x2="251.43" y2="353.44"/><line class="p" x1="251.43" y1="353.44" x2="251.43" y2="356.24"/><line class="p" x1="251.43" y1="356.24" x2="248.63" y2="356.24"/><line class="p" x1="248.63" y1="356.24" x2="248.63" y2="353.44"/><line class="p" x1="251.43" y1="353.44" x2="275.19" y2="353.44"/><line class="p" x1="251.43" y1="354.84" x2="275.19" y2="354.84"/><line class="p" x1="251.43" y1="356.24" x2="275.19" y2="356.24"/><line class="p" x1="301.75" y1="355.54" x2="301.75" y2="356.24"/><line class="p" x1="301.75" y1="356.24" x2="304.54" y2="356.24"/><line class="p" x1="304.54" y1="356.24" x2="304.54" y2="353.44"/><line class="p" x1="304.54" y1="353.44" x2="303.15" y2="353.44"/><line class="p" x1="303.15" y1="352.74" x2="300.35" y2="352.74"/><line class="p" x1="300.35" y1="352.74" x2="300.35" y2="355.54"/><line class="p" x1="300.35" y1="355.54" x2="303.15" y2="355.54"/><line class="p" x1="303.15" y1="355.54" x2="303.15" y2="352.74"/><line class="p" x1="300.35" y1="352.74" x2="279.38" y2="352.74"/><line class="p" x1="279.38" y1="355.54" x2="300.35" y2="355.54"/><line class="p" x1="300.35" y1="354.14" x2="279.38" y2="354.14"/><line class="p" x1="277.99" y1="355.54" x2="277.99" y2="356.24"/><line class="p" x1="277.99" y1="356.24" x2="275.19" y2="356.24"/><line class="p" x1="275.19" y1="356.24" x2="275.19" y2="353.44"/><line class="p" x1="275.19" y1="353.44" x2="276.59" y2="353.44"/><line class="p" x1="276.59" y1="352.74" x2="279.38" y2="352.74"/><line class="p" x1="279.38" y1="352.74" x2="279.38" y2="355.54"/><line class="p" x1="279.38" y1="355.54" x2="276.59" y2="355.54"/><line class="p" x1="276.59" y1="355.54" x2="276.59" y2="352.74"/><line class="p" x1="357.66" y1="175.92" x2="319.22" y2="175.92"/><line class="p" x1="256.32" y1="175.92" x2="316.77" y2="175.92"/><line class="p" x1="228.36" y1="242.32" x2="316.77" y2="242.32"/><g class="s"><path class="p" d="M235.35,204.75a.87.87,0,1,0-.87.88.87.87,0,0,0,.87-.88"/></g><line class="p" x1="257.19" y1="199.51" x2="257.19" y2="241.45"/><line class="p" x1="257.19" y1="241.45" x2="229.24" y2="241.45"/><line class="p" x1="229.24" y1="241.45" x2="229.24" y2="199.51"/><line class="p" x1="229.24" y1="199.51" x2="257.19" y2="199.51"/><line class="p" x1="255.45" y1="204.75" x2="255.45" y2="236.2"/><line class="p" x1="251.95" y1="239.7" x2="234.48" y2="239.7"/><line class="p" x1="230.98" y1="236.2" x2="230.98" y2="204.75"/><line class="p" x1="234.48" y1="201.26" x2="251.95" y2="201.26"/><g class="s"><path class="p" d="M252,201.26a3.5,3.5,0,0,1,3.5,3.49"/><path class="p" d="M255.45,236.2a3.5,3.5,0,0,1-3.5,3.5"/><path class="p" d="M231,204.75a3.5,3.5,0,0,1,3.5-3.49"/><path class="p" d="M234.48,239.7a3.5,3.5,0,0,1-3.5-3.5"/></g><line class="p" x1="423.35" y1="175.92" x2="407.63" y2="175.92"/><line class="p" x1="407.63" y1="175.92" x2="407.63" y2="193.4"/><line class="p" x1="418.11" y1="193.4" x2="423.35" y2="193.4"/><line class="p" x1="423.35" y1="193.4" x2="423.35" y2="175.92"/><line class="p" x1="319.22" y1="242.32" x2="329.7" y2="242.32"/><line class="p" x1="361.15" y1="242.32" x2="400.64" y2="242.32"/><line class="p" x1="228.36" y1="249.31" x2="329.7" y2="249.31"/><line class="p" x1="361.15" y1="249.31" x2="386.66" y2="249.31"/><line class="p" x1="389.11" y1="249.31" x2="407.63" y2="249.31"/><line class="p" x1="426.85" y1="175.92" x2="536.92" y2="175.92"/><line class="p" x1="316.77" y1="242.32" x2="316.77" y2="233.58"/><line class="p" x1="316.77" y1="205.63" x2="316.77" y2="175.93"/><line class="p" x1="319.22" y1="242.32" x2="319.22" y2="233.58"/><line class="p" x1="319.22" y1="205.63" x2="319.22" y2="175.93"/><line class="p" x1="389.11" y1="349.25" x2="389.11" y2="249.31"/><line class="p" x1="400.64" y1="242.32" x2="400.64" y2="233.58"/><line class="p" x1="400.64" y1="202.13" x2="400.64" y2="175.92"/><line class="p" x1="407.63" y1="249.31" x2="407.63" y2="233.58"/><line class="p" x1="407.63" y1="202.13" x2="407.63" y2="196.89"/><line class="p" x1="386.66" y1="349.25" x2="386.66" y2="249.31"/><line class="p" x1="319.22" y1="233.58" x2="316.77" y2="233.58"/><line class="p" x1="319.22" y1="205.63" x2="316.77" y2="205.63"/><line class="p" x1="329.7" y1="242.32" x2="329.7" y2="249.31"/><line class="p" x1="407.63" y1="196.89" x2="426.85" y2="196.89"/><line class="p" x1="426.85" y1="196.89" x2="426.85" y2="175.92"/><line class="p" x1="407.63" y1="202.13" x2="400.64" y2="202.13"/><line class="p" x1="407.63" y1="233.58" x2="400.64" y2="233.58"/><line class="p" x1="515.61" y1="239.17" x2="536.57" y2="239.17"/><g class="s"><path class="p" d="M534.67,213.24a3.43,3.43,0,1,0-3.43,3.43,3.44,3.44,0,0,0,3.43-3.43"/></g><line class="p" x1="536.57" y1="207.9" x2="515.61" y2="207.9"/><line class="p" x1="515.61" y1="207.9" x2="515.61" y2="228.87"/><line class="p" x1="515.61" y1="228.87" x2="536.57" y2="228.87"/><line class="p" x1="536.57" y1="228.87" x2="536.57" y2="207.9"/><g class="s"><path class="p" d="M524.38,213.24a3.43,3.43,0,1,0-3.43,3.43,3.44,3.44,0,0,0,3.43-3.43"/><path class="p" d="M524.38,223.53A3.43,3.43,0,1,0,521,227a3.43,3.43,0,0,0,3.43-3.43"/></g><line class="p" x1="514.66" y1="226.01" x2="514.66" y2="210.76"/><line class="p" x1="511.06" y1="197.24" x2="511.06" y2="176.27"/><line class="p" x1="511.06" y1="176.27" x2="490.1" y2="176.27"/><line class="p" x1="490.1" y1="176.27" x2="490.1" y2="197.24"/><line class="p" x1="490.1" y1="197.24" x2="511.07" y2="197.24"/><g class="s"><path class="p" d="M506.7,186.76a6.12,6.12,0,1,0-6.12,6.11,6.12,6.12,0,0,0,6.12-6.11"/><path class="p" d="M505.65,186.76a5.07,5.07,0,1,0-5.07,5.06,5.07,5.07,0,0,0,5.07-5.06"/></g><line class="p" x1="427.2" y1="197.24" x2="427.2" y2="176.27"/><line class="p" x1="435.21" y1="184.29" x2="440.16" y2="189.23"/><line class="p" x1="440.16" y1="184.29" x2="435.21" y2="189.23"/><line class="p" x1="437.68" y1="190.25" x2="437.68" y2="183.26"/><line class="p" x1="434.19" y1="186.76" x2="441.18" y2="186.76"/><line class="p" x1="448.16" y1="176.27" x2="448.16" y2="197.24"/><line class="p" x1="427.2" y1="197.24" x2="448.16" y2="197.24"/><line class="p" x1="427.2" y1="176.27" x2="448.16" y2="176.27"/><line class="p" x1="449.04" y1="195.49" x2="468.26" y2="195.49"/><line class="p" x1="468.26" y1="195.49" x2="468.26" y2="178.02"/><line class="p" x1="468.26" y1="178.02" x2="449.04" y2="178.02"/><line class="p" x1="449.04" y1="178.02" x2="449.04" y2="195.49"/><line class="p" x1="448.16" y1="197.24" x2="469.13" y2="197.24"/><line class="p" x1="448.16" y1="176.27" x2="469.13" y2="176.27"/><line class="p" x1="450.78" y1="193.75" x2="466.51" y2="193.75"/><line class="p" x1="466.51" y1="193.75" x2="466.51" y2="181.52"/><line class="p" x1="466.51" y1="181.52" x2="450.79" y2="181.52"/><line class="p" x1="450.78" y1="181.52" x2="450.78" y2="193.75"/><g class="s"><path class="p" d="M459.35,185a.7.7,0,1,0-.7.7.7.7,0,0,0,.7-.7"/></g><line class="p" x1="469.13" y1="176.27" x2="469.13" y2="197.24"/><line class="p" x1="469.13" y1="197.24" x2="490.1" y2="197.24"/><line class="p" x1="490.1" y1="197.24" x2="490.1" y2="176.27"/><line class="p" x1="490.1" y1="176.27" x2="469.13" y2="176.27"/><line class="p" x1="536.57" y1="239.17" x2="536.57" y2="176.27"/><line class="p" x1="536.57" y1="176.27" x2="427.2" y2="176.27"/><line class="p" x1="427.2" y1="176.27" x2="427.2" y2="197.24"/><line class="p" x1="427.2" y1="197.24" x2="515.61" y2="197.24"/><line class="p" x1="515.61" y1="197.24" x2="515.61" y2="239.17"/><line class="p" x1="515.61" y1="239.17" x2="536.57" y2="239.17"/><line class="p" x1="256.32" y1="181.17" x2="316.77" y2="181.17"/><line class="p" x1="262.96" y1="241.45" x2="262.96" y2="237.95"/><line class="p" x1="262.96" y1="237.95" x2="283.93" y2="237.95"/><line class="p" x1="283.93" y1="237.95" x2="283.93" y2="241.45"/><line class="p" x1="283.93" y1="241.45" x2="282.88" y2="241.45"/><line class="p" x1="282.88" y1="241.45" x2="282.88" y2="239"/><line class="p" x1="282.88" y1="239" x2="264.01" y2="239"/><line class="p" x1="264.01" y1="239" x2="264.01" y2="241.45"/><line class="p" x1="264.01" y1="241.45" x2="262.96" y2="241.45"/><line class="p" x1="262.96" y1="241.45" x2="262.96" y2="237.95"/><line class="p" x1="283.93" y1="241.45" x2="283.93" y2="237.95"/><line class="p" x1="264.01" y1="241.45" x2="264.01" y2="239"/><line class="p" x1="282.88" y1="241.45" x2="282.88" y2="239"/><line class="p" x1="262.96" y1="237.95" x2="283.93" y2="237.95"/><line class="p" x1="262.96" y1="239" x2="283.93" y2="239"/><line class="p" x1="262.96" y1="241.45" x2="264.01" y2="241.45"/><line class="p" x1="282.88" y1="241.45" x2="283.93" y2="241.45"/><line class="p" x1="252.83" y1="181.17" x2="252.83" y2="175.92"/><line class="p" x1="252.83" y1="175.92" x2="228.36" y2="175.92"/><line class="p" x1="228.36" y1="175.92" x2="228.36" y2="195.14"/><line class="p" x1="228.36" y1="195.14" x2="252.83" y2="195.14"/><line class="p" x1="228.36" y1="198.64" x2="256.32" y2="198.64"/><line class="p" x1="256.32" y1="198.64" x2="256.32" y2="195.14"/><line class="p" x1="256.32" y1="195.14" x2="256.32" y2="175.92"/><line class="p" x1="252.83" y1="195.14" x2="256.32" y2="195.14"/><line class="p" x1="252.83" y1="181.17" x2="252.83" y2="195.14"/><line class="p" x1="219.84" y1="228.34" x2="219.98" y2="228.34"/><line class="p" x1="219.84" y1="235.33" x2="219.98" y2="235.33"/><line class="p" x1="361.15" y1="242.32" x2="361.15" y2="249.31"/><line class="p" x1="407.63" y1="193.4" x2="418.11" y2="193.4"/><line class="p" x1="407.63" y1="196.89" x2="407.63" y2="193.4"/><line class="p" x1="359.4" y1="249.31" x2="331.45" y2="249.31"/><line class="p" x1="359.4" y1="249.31" x2="359.4" y2="277.26"/><g class="s"><path class="p" d="M359.4,277.26a28,28,0,0,1-27.95-27.95"/></g><line class="p" x1="359.4" y1="242.32" x2="359.4" y2="249.31"/><line class="p" x1="331.45" y1="249.31" x2="331.45" y2="242.32"/><line class="p" x1="331.45" y1="249.31" x2="329.7" y2="249.31"/><line class="p" x1="331.45" y1="242.32" x2="329.7" y2="242.32"/><line class="p" x1="361.15" y1="249.31" x2="359.41" y2="249.31"/><line class="p" x1="361.15" y1="242.32" x2="359.41" y2="242.32"/><line class="p" x1="359.4" y1="242.32" x2="352.42" y2="242.32"/><line class="p" x1="348.57" y1="242.32" x2="347.79" y2="242.32"/><line class="p" x1="343.94" y1="242.32" x2="343.15" y2="242.32"/><line class="p" x1="339.31" y1="242.32" x2="338.44" y2="242.32"/><line class="p" x1="338.44" y1="242.32" x2="331.45" y2="242.32"/><line class="p" x1="359.4" y1="249.31" x2="359.4" y2="250.18"/><line class="p" x1="359.4" y1="250.18" x2="362.9" y2="250.18"/><line class="p" x1="362.9" y1="250.18" x2="362.9" y2="249.31"/><line class="p" x1="359.4" y1="242.32" x2="359.4" y2="241.45"/><line class="p" x1="359.4" y1="241.45" x2="362.9" y2="241.45"/><line class="p" x1="362.9" y1="241.45" x2="362.9" y2="242.32"/><line class="p" x1="331.45" y1="250.18" x2="327.96" y2="250.18"/><line class="p" x1="327.95" y1="250.18" x2="327.95" y2="249.31"/><line class="p" x1="331.45" y1="242.32" x2="331.45" y2="241.45"/><line class="p" x1="331.45" y1="241.45" x2="327.96" y2="241.45"/><line class="p" x1="327.95" y1="241.45" x2="327.95" y2="242.32"/><line class="p" x1="392.6" y1="171.56" x2="361.15" y2="171.56"/><line class="p" x1="392.6" y1="171.56" x2="392.6" y2="203.01"/><g class="s"><path class="p" d="M392.6,203a31.46,31.46,0,0,1-31.45-31.45"/></g><line class="p" x1="392.6" y1="167.54" x2="392.6" y2="171.56"/><line class="p" x1="361.15" y1="171.56" x2="361.15" y2="167.54"/><line class="p" x1="361.15" y1="171.56" x2="359.41" y2="171.56"/><line class="p" x1="394.35" y1="171.56" x2="392.6" y2="171.56"/><line class="p" x1="407.63" y1="231.84" x2="407.63" y2="203.88"/><line class="p" x1="407.63" y1="231.84" x2="435.58" y2="231.84"/><g class="s"><path class="p" d="M407.63,203.88a28,28,0,0,1,27.95,28"/></g><line class="p" x1="400.64" y1="231.84" x2="407.63" y2="231.84"/><line class="p" x1="407.63" y1="203.88" x2="400.64" y2="203.88"/><line class="p" x1="407.63" y1="203.88" x2="407.63" y2="202.13"/><line class="p" x1="400.64" y1="203.88" x2="400.64" y2="202.13"/><line class="p" x1="407.63" y1="233.58" x2="407.63" y2="231.84"/><line class="p" x1="400.64" y1="233.58" x2="400.64" y2="231.84"/><line class="p" x1="400.64" y1="231.84" x2="400.64" y2="224.85"/><line class="p" x1="400.64" y1="221" x2="400.64" y2="220.22"/><line class="p" x1="400.64" y1="216.37" x2="400.64" y2="215.59"/><line class="p" x1="400.64" y1="211.74" x2="400.64" y2="210.87"/><line class="p" x1="400.64" y1="210.87" x2="400.64" y2="203.88"/><line class="p" x1="407.63" y1="231.84" x2="408.5" y2="231.84"/><line class="p" x1="408.5" y1="231.84" x2="408.5" y2="235.33"/><line class="p" x1="408.5" y1="235.33" x2="407.63" y2="235.33"/><line class="p" x1="400.64" y1="231.84" x2="399.77" y2="231.84"/><line class="p" x1="399.77" y1="231.84" x2="399.77" y2="235.33"/><line class="p" x1="399.77" y1="235.33" x2="400.64" y2="235.33"/><line class="p" x1="408.5" y1="203.88" x2="408.5" y2="200.39"/><line class="p" x1="408.5" y1="200.39" x2="407.63" y2="200.39"/><line class="p" x1="400.64" y1="203.88" x2="399.77" y2="203.88"/><line class="p" x1="399.77" y1="203.88" x2="399.77" y2="200.39"/><line class="p" x1="399.77" y1="200.39" x2="400.64" y2="200.39"/><line class="p" x1="319.22" y1="231.84" x2="319.22" y2="207.37"/><line class="p" x1="319.22" y1="231.84" x2="343.68" y2="231.84"/><g class="s"><path class="p" d="M319.22,207.37a24.47,24.47,0,0,1,24.46,24.47"/></g><line class="p" x1="316.77" y1="231.84" x2="319.22" y2="231.84"/><line class="p" x1="319.22" y1="207.37" x2="316.77" y2="207.37"/><line class="p" x1="319.22" y1="207.37" x2="319.22" y2="205.63"/><line class="p" x1="316.77" y1="207.37" x2="316.77" y2="205.63"/><line class="p" x1="319.22" y1="233.58" x2="319.22" y2="231.84"/><line class="p" x1="316.77" y1="233.58" x2="316.77" y2="231.84"/><line class="p" x1="316.77" y1="231.84" x2="316.77" y2="224.85"/><line class="p" x1="316.77" y1="221" x2="316.77" y2="220.22"/><line class="p" x1="316.77" y1="216.37" x2="316.77" y2="215.59"/><line class="p" x1="316.77" y1="214.36" x2="316.77" y2="207.37"/><line class="p" x1="319.22" y1="231.84" x2="320.09" y2="231.84"/><line class="p" x1="320.09" y1="231.84" x2="320.09" y2="235.33"/><line class="p" x1="320.09" y1="235.33" x2="319.22" y2="235.33"/><line class="p" x1="316.77" y1="231.84" x2="315.9" y2="231.84"/><line class="p" x1="315.9" y1="231.84" x2="315.9" y2="235.33"/><line class="p" x1="315.9" y1="235.33" x2="316.77" y2="235.33"/><line class="p" x1="320.09" y1="207.37" x2="320.09" y2="203.88"/><line class="p" x1="320.09" y1="203.88" x2="319.22" y2="203.88"/><line class="p" x1="316.77" y1="207.37" x2="315.9" y2="207.37"/><line class="p" x1="315.9" y1="207.37" x2="315.9" y2="203.88"/><line class="p" x1="315.9" y1="203.88" x2="316.77" y2="203.88"/><line class="p" x1="411.12" y1="349.25" x2="411.12" y2="338.77"/><line class="p" x1="411.12" y1="338.77" x2="446.07" y2="338.77"/><line class="p" x1="446.07" y1="338.77" x2="446.07" y2="349.25"/><line class="p" x1="327.26" y1="349.25" x2="327.26" y2="338.77"/><line class="p" x1="327.26" y1="338.77" x2="362.2" y2="338.77"/><line class="p" x1="362.2" y1="338.77" x2="362.2" y2="349.25"/><line class="p" x1="262.61" y1="347.5" x2="290.56" y2="347.5"/><line class="p" x1="290.57" y1="347.5" x2="290.57" y2="345.3"/><line class="p" x1="290.57" y1="345.3" x2="262.61" y2="345.3"/><line class="p" x1="262.61" y1="345.3" x2="262.61" y2="347.5"/><line class="p" x1="453.06" y1="347.5" x2="508.97" y2="347.5"/><line class="p" x1="508.97" y1="347.5" x2="508.97" y2="344.01"/><line class="p" x1="508.97" y1="344.01" x2="453.06" y2="344.01"/><line class="p" x1="453.06" y1="344.01" x2="453.06" y2="347.5"/><g class="s"><path class="p" d="M451.31,345.75a1.75,1.75,0,1,0-1.75,1.75,1.74,1.74,0,0,0,1.75-1.75"/><path class="p" d="M260.86,346.4a1.75,1.75,0,1,0-1.74,1.75,1.75,1.75,0,0,0,1.74-1.75"/></g><line class="p" x1="444.32" y1="363.23" x2="437.33" y2="363.23"/><line class="p" x1="433.49" y1="363.23" x2="432.7" y2="363.23"/><line class="p" x1="428.86" y1="363.23" x2="428.07" y2="363.23"/><line class="p" x1="424.23" y1="363.23" x2="419.86" y2="363.23"/><line class="p" x1="419.86" y1="363.23" x2="412.87" y2="363.23"/><line class="p" x1="360.45" y1="363.23" x2="353.46" y2="363.23"/><line class="p" x1="349.62" y1="363.23" x2="348.83" y2="363.23"/><line class="p" x1="344.99" y1="363.23" x2="344.2" y2="363.23"/><line class="p" x1="340.36" y1="363.23" x2="335.99" y2="363.23"/><line class="p" x1="335.99" y1="363.23" x2="329" y2="363.23"/><line class="p" x1="501.98" y1="363.23" x2="501.98" y2="370.22"/><line class="p" x1="501.98" y1="374.06" x2="501.98" y2="374.85"/><line class="p" x1="501.98" y1="378.69" x2="501.98" y2="379.48"/><line class="p" x1="501.98" y1="383.32" x2="501.98" y2="390.31"/><line class="p" x1="501.98" y1="394.15" x2="501.98" y2="394.94"/><line class="p" x1="501.98" y1="398.78" x2="501.98" y2="399.57"/><line class="p" x1="501.98" y1="403.41" x2="501.98" y2="408.65"/><line class="p" x1="501.98" y1="408.65" x2="501.98" y2="415.64"/><line class="p" x1="501.98" y1="415.64" x2="494.99" y2="415.64"/><line class="p" x1="491.15" y1="415.64" x2="490.36" y2="415.64"/><line class="p" x1="486.52" y1="415.64" x2="485.73" y2="415.64"/><line class="p" x1="481.89" y1="415.64" x2="474.9" y2="415.64"/><line class="p" x1="471.05" y1="415.64" x2="470.27" y2="415.64"/><line class="p" x1="466.42" y1="415.64" x2="465.64" y2="415.64"/><line class="p" x1="461.79" y1="415.64" x2="454.8" y2="415.64"/><line class="p" x1="450.96" y1="415.64" x2="450.17" y2="415.64"/><line class="p" x1="446.33" y1="415.64" x2="445.54" y2="415.64"/><line class="p" x1="441.7" y1="415.64" x2="434.71" y2="415.64"/><line class="p" x1="430.87" y1="415.64" x2="430.08" y2="415.64"/><line class="p" x1="426.24" y1="415.64" x2="425.45" y2="415.64"/><line class="p" x1="421.61" y1="415.64" x2="414.62" y2="415.64"/><line class="p" x1="410.77" y1="415.64" x2="409.99" y2="415.64"/><line class="p" x1="406.14" y1="415.64" x2="405.36" y2="415.64"/><line class="p" x1="401.51" y1="415.64" x2="394.52" y2="415.64"/><line class="p" x1="390.68" y1="415.64" x2="389.89" y2="415.64"/><line class="p" x1="386.05" y1="415.64" x2="385.26" y2="415.64"/><line class="p" x1="381.42" y1="415.64" x2="374.43" y2="415.64"/><line class="p" x1="370.59" y1="415.64" x2="369.8" y2="415.64"/><line class="p" x1="365.96" y1="415.64" x2="365.17" y2="415.64"/><line class="p" x1="361.33" y1="415.64" x2="354.34" y2="415.64"/><line class="p" x1="350.49" y1="415.64" x2="349.71" y2="415.64"/><line class="p" x1="345.86" y1="415.64" x2="345.08" y2="415.64"/><line class="p" x1="341.23" y1="415.64" x2="334.24" y2="415.64"/><line class="p" x1="330.4" y1="415.64" x2="329.62" y2="415.64"/><line class="p" x1="325.77" y1="415.64" x2="324.99" y2="415.64"/><line class="p" x1="321.14" y1="415.64" x2="314.15" y2="415.64"/><line class="p" x1="310.31" y1="415.64" x2="309.52" y2="415.64"/><line class="p" x1="305.68" y1="415.64" x2="304.89" y2="415.64"/><line class="p" x1="301.05" y1="415.64" x2="294.06" y2="415.64"/><line class="p" x1="290.22" y1="415.64" x2="289.43" y2="415.64"/><line class="p" x1="285.59" y1="415.64" x2="284.8" y2="415.64"/><line class="p" x1="280.96" y1="415.64" x2="273.97" y2="415.64"/><line class="p" x1="270.12" y1="415.64" x2="269.34" y2="415.64"/><line class="p" x1="265.49" y1="415.64" x2="264.71" y2="415.64"/><line class="p" x1="260.86" y1="415.64" x2="253.87" y2="415.64"/><line class="p" x1="250.03" y1="415.64" x2="249.24" y2="415.64"/><line class="p" x1="245.4" y1="415.64" x2="244.61" y2="415.64"/><line class="p" x1="240.77" y1="415.64" x2="233.78" y2="415.64"/><line class="p" x1="229.94" y1="415.64" x2="229.15" y2="415.64"/><line class="p" x1="226.83" y1="415.64" x2="224.04" y2="415.64"/><rect class="l" x="480.31" y="279.36" width="17.47" height="27.96"/><line class="p" x1="480.31" y1="307.32" x2="497.79" y2="307.32"/><line class="p" x1="480.31" y1="279.36" x2="480.31" y2="307.32"/><line class="p" x1="497.79" y1="279.36" x2="480.31" y2="279.36"/><line class="p" x1="497.79" y1="307.32" x2="497.79" y2="279.36"/><rect class="l" x="390.16" y="249.31" width="17.47" height="99.94"/><line class="p" x1="390.16" y1="349.25" x2="407.63" y2="349.25"/><line class="p" x1="390.16" y1="249.31" x2="390.16" y2="349.25"/><line class="p" x1="407.63" y1="249.31" x2="390.16" y2="249.31"/><line class="p" x1="407.63" y1="349.25" x2="407.63" y2="249.31"/><rect class="l" x="256.32" y="175.92" width="60.45" height="5.24"/><line class="p" x1="256.32" y1="175.92" x2="256.32" y2="181.17"/><line class="p" x1="316.77" y1="175.92" x2="256.32" y2="175.92"/><line class="p" x1="316.77" y1="181.17" x2="316.77" y2="175.92"/><line class="p" x1="256.32" y1="181.17" x2="316.77" y2="181.17"/><rect class="l" x="282.88" y="239" width="1.05" height="2.45"/><line class="p" x1="283.93" y1="241.45" x2="283.93" y2="239"/><line class="p" x1="282.88" y1="241.45" x2="283.93" y2="241.45"/><line class="p" x1="282.88" y1="239" x2="282.88" y2="241.45"/><line class="p" x1="283.93" y1="239" x2="282.88" y2="239"/><polygon class="l" points="262.96 237.95 262.96 239 282.88 239 283.93 239 283.93 237.95 262.96 237.95"/><line class="p" x1="262.96" y1="237.95" x2="262.96" y2="239"/><line class="p" x1="283.93" y1="237.95" x2="262.96" y2="237.95"/><line class="p" x1="283.93" y1="239" x2="283.93" y2="237.95"/><line class="p" x1="282.88" y1="239" x2="283.93" y2="239"/><line class="p" x1="262.96" y1="239" x2="282.88" y2="239"/><rect class="l" x="262.96" y="239" width="1.05" height="2.45"/><line class="p" x1="262.96" y1="239" x2="262.96" y2="241.45"/><line class="p" x1="264.01" y1="239" x2="262.96" y2="239"/><line class="p" x1="264.01" y1="241.45" x2="264.01" y2="239"/><line class="p" x1="262.96" y1="241.45" x2="264.01" y2="241.45"/><rect class="l" x="364.65" y="237.08" width="35.99" height="5.24"/><line class="p" x1="400.64" y1="242.32" x2="400.64" y2="237.08"/><line class="p" x1="364.65" y1="242.32" x2="400.64" y2="242.32"/><line class="p" x1="364.65" y1="237.08" x2="364.65" y2="242.32"/><line class="p" x1="400.64" y1="237.08" x2="364.65" y2="237.08"/><polygon class="q" points="260.86 346.4 260.35 347.64 259.12 348.15 257.88 347.64 257.37 346.4 257.88 345.17 259.12 344.65 260.35 345.17 260.86 346.4"/><g class="s"><path class="p" d="M260.86,346.4a1.75,1.75,0,1,1-3.49,0"/><path class="p" d="M257.37,346.4a1.75,1.75,0,1,1,3.49,0"/></g><rect class="l" x="262.61" y="345.3" width="27.95" height="2.2"/><line class="p" x1="262.61" y1="345.3" x2="262.61" y2="347.5"/><line class="p" x1="290.57" y1="345.3" x2="262.61" y2="345.3"/><line class="p" x1="290.57" y1="347.5" x2="290.57" y2="345.3"/><line class="p" x1="262.61" y1="347.5" x2="290.56" y2="347.5"/><polygon class="q" points="451.31 345.75 450.8 346.99 449.56 347.5 448.33 346.99 447.81 345.75 448.33 344.52 449.56 344.01 450.8 344.52 451.31 345.75"/><g class="s"><path class="p" d="M451.31,345.75a1.75,1.75,0,1,1-3.49,0"/><path class="p" d="M447.81,345.75a1.75,1.75,0,0,1,3.5,0"/></g><polygon class="q" points="451.31 345.75 450.8 346.99 449.56 347.5 448.33 346.99 447.81 345.75 448.33 344.52 449.56 344.01 450.8 344.52 451.31 345.75"/><g class="s"><path class="p" d="M451.31,345.75a1.75,1.75,0,1,1-3.49,0"/><path class="p" d="M447.81,345.75a1.75,1.75,0,0,1,3.5,0"/></g><rect class="l" x="453.06" y="344.01" width="55.91" height="3.49"/><line class="p" x1="453.06" y1="344.01" x2="453.06" y2="347.5"/><line class="p" x1="508.97" y1="344.01" x2="453.06" y2="344.01"/><line class="p" x1="508.97" y1="347.5" x2="508.97" y2="344.01"/><line class="p" x1="453.06" y1="347.5" x2="508.97" y2="347.5"/><polygon class="q" points="398.4 289.44 399.79 291.16 400.55 293.32 400.55 295.64 399.79 297.8 398.4 299.53 398.4 310.42 396.46 310.42 394.52 302.45 394.52 300.13 393.45 296.42 393.45 292.54 394.52 288.83 394.52 286.51 396.46 278.55 398.4 278.55 398.4 289.44"/><line class="p" x1="398.4" y1="289.43" x2="399.79" y2="291.16"/><line class="p" x1="399.79" y1="291.16" x2="400.55" y2="293.32"/><line class="p" x1="400.55" y1="293.32" x2="400.55" y2="295.64"/><line class="p" x1="400.55" y1="295.64" x2="399.79" y2="297.8"/><line class="p" x1="399.79" y1="297.8" x2="398.4" y2="299.53"/><line class="p" x1="398.4" y1="299.53" x2="398.4" y2="310.41"/><line class="p" x1="398.4" y1="310.41" x2="396.46" y2="310.41"/><line class="p" x1="396.46" y1="310.41" x2="394.52" y2="302.45"/><line class="p" x1="394.52" y1="302.45" x2="394.52" y2="300.13"/><line class="p" x1="394.52" y1="300.13" x2="393.45" y2="296.42"/><line class="p" x1="393.46" y1="296.42" x2="393.46" y2="292.54"/><line class="p" x1="393.46" y1="292.54" x2="394.52" y2="288.83"/><line class="p" x1="394.52" y1="288.83" x2="394.52" y2="286.51"/><line class="p" x1="394.52" y1="286.51" x2="396.46" y2="278.55"/><line class="p" x1="396.46" y1="278.55" x2="398.4" y2="278.55"/><line class="p" x1="398.4" y1="278.55" x2="398.4" y2="289.43"/><line class="p" x1="398.4" y1="278.55" x2="398.4" y2="310.41"/><line class="p" x1="394.52" y1="302.45" x2="394.52" y2="286.51"/><line class="p" x1="396.46" y1="278.55" x2="398.4" y2="278.55"/><line class="p" x1="397.62" y1="308.29" x2="397.62" y2="306.17"/><line class="p" x1="397.62" y1="306.17" x2="397.13" y2="306.17"/><line class="p" x1="397.13" y1="306.17" x2="397.13" y2="308.29"/><line class="p" x1="397.13" y1="308.29" x2="397.62" y2="308.29"/><line class="p" x1="397.62" y1="305.63" x2="397.62" y2="303.51"/><line class="p" x1="397.62" y1="303.51" x2="397.13" y2="303.51"/><line class="p" x1="397.13" y1="303.51" x2="397.13" y2="305.63"/><line class="p" x1="397.13" y1="305.63" x2="397.62" y2="305.63"/><line class="p" x1="396.46" y1="278.55" x2="396.46" y2="310.41"/><line class="p" x1="397.13" y1="302.98" x2="397.62" y2="302.98"/><line class="p" x1="397.62" y1="302.98" x2="397.62" y2="301.92"/><line class="p" x1="397.62" y1="301.92" x2="397.13" y2="301.92"/><line class="p" x1="397.13" y1="301.92" x2="397.13" y2="302.98"/><g class="s"><path class="p" d="M398.4,289.43a6.81,6.81,0,0,1,0,10.1"/></g><rect class="l" x="365.7" y="299.28" width="20.97" height="49.97"/><line class="p" x1="365.7" y1="349.25" x2="365.7" y2="299.28"/><line class="p" x1="365.7" y1="299.28" x2="386.66" y2="299.28"/><line class="p" x1="386.66" y1="299.28" x2="386.66" y2="349.25"/><line class="p" x1="386.66" y1="349.25" x2="365.69" y2="349.25"/><line class="p" x1="376.18" y1="346.75" x2="376.18" y2="301.78"/><line class="p" x1="370.01" y1="344.43" x2="382.58" y2="340.21"/><line class="p" x1="369.39" y1="339.67" x2="381.07" y2="337.92"/><line class="p" x1="383.74" y1="333.16" x2="370.92" y2="331.72"/><line class="p" x1="382.06" y1="325.79" x2="370.92" y2="327.74"/><line class="p" x1="382.7" y1="323.11" x2="368.97" y2="323.11"/><line class="p" x1="382.76" y1="315.51" x2="369.19" y2="317.31"/><line class="p" x1="382.53" y1="312.67" x2="370.14" y2="312.67"/><line class="p" x1="382.66" y1="305.17" x2="369.95" y2="303.73"/><line class="p" x1="381.79" y1="306.97" x2="371.05" y2="308.44"/><polygon class="q" points="457.75 227.17 450.97 223.27 449.21 222.81 447.46 223.27 446.18 224.55 442.68 230.59 442.21 232.34 442.68 234.08 443.96 235.36 450.74 239.26 451.22 235.65 452.62 232.28 454.85 229.39 457.75 227.17"/><polygon class="q" points="478.76 239.26 485.54 235.36 486.82 234.08 487.29 232.34 486.82 230.59 483.32 224.55 482.04 223.27 480.29 222.81 478.54 223.27 471.75 227.17 474.66 229.39 476.88 232.28 478.28 235.65 478.76 239.26"/><polygon class="q" points="457.75 251.35 457.75 259.15 458.21 260.9 459.5 262.17 461.25 262.64 468.25 262.64 470 262.17 471.28 260.9 471.75 259.15 471.75 251.35 468.38 252.75 464.75 253.22 461.13 252.75 457.75 251.35"/><polygon class="q" points="450.74 239.26 451.22 235.65 452.62 232.28 454.85 229.39 457.75 227.17 461.13 225.78 464.75 225.3 468.38 225.78 471.75 227.17 474.65 229.39 476.88 232.28 478.28 235.65 478.76 239.26 478.28 242.87 476.88 246.24 474.65 249.13 471.75 251.35 468.38 252.75 464.75 253.22 461.13 252.75 457.75 251.35 454.85 249.13 452.62 246.24 451.22 242.87 450.74 239.26"/><line class="p" x1="450.74" y1="239.26" x2="451.22" y2="235.65"/><line class="p" x1="451.22" y1="235.65" x2="452.62" y2="232.28"/><line class="p" x1="452.62" y1="232.28" x2="454.85" y2="229.39"/><line class="p" x1="454.85" y1="229.39" x2="457.75" y2="227.17"/><line class="p" x1="457.75" y1="227.17" x2="461.13" y2="225.78"/><line class="p" x1="461.13" y1="225.78" x2="464.75" y2="225.3"/><line class="p" x1="464.75" y1="225.3" x2="468.38" y2="225.78"/><line class="p" x1="468.38" y1="225.78" x2="471.75" y2="227.17"/><line class="p" x1="471.75" y1="227.17" x2="474.66" y2="229.39"/><line class="p" x1="474.66" y1="229.39" x2="476.88" y2="232.28"/><line class="p" x1="476.88" y1="232.28" x2="478.28" y2="235.65"/><line class="p" x1="478.28" y1="235.65" x2="478.76" y2="239.26"/><line class="p" x1="478.76" y1="239.26" x2="478.28" y2="242.87"/><line class="p" x1="478.28" y1="242.87" x2="476.88" y2="246.24"/><line class="p" x1="476.88" y1="246.24" x2="474.66" y2="249.13"/><line class="p" x1="474.66" y1="249.13" x2="471.75" y2="251.35"/><line class="p" x1="471.75" y1="251.35" x2="468.38" y2="252.75"/><line class="p" x1="468.38" y1="252.75" x2="464.75" y2="253.22"/><line class="p" x1="464.75" y1="253.22" x2="461.13" y2="252.75"/><line class="p" x1="461.13" y1="252.75" x2="457.75" y2="251.35"/><line class="p" x1="457.75" y1="251.35" x2="454.85" y2="249.13"/><line class="p" x1="454.85" y1="249.13" x2="452.62" y2="246.24"/><line class="p" x1="452.62" y1="246.24" x2="451.22" y2="242.87"/><line class="p" x1="451.22" y1="242.87" x2="450.74" y2="239.26"/><g class="s"><path class="p" d="M464.75,225.3h0a14,14,0,1,1,0,27.92"/><path class="p" d="M464.75,253.22h0a14,14,0,1,1,0-27.92"/></g><line class="p" x1="447.7" y1="225.42" x2="444.19" y2="231.47"/><line class="p" x1="443.96" y1="235.36" x2="450.74" y2="239.26"/><line class="p" x1="446.18" y1="224.55" x2="442.68" y2="230.59"/><line class="p" x1="457.75" y1="227.17" x2="450.97" y2="223.27"/><line class="p" x1="485.3" y1="231.47" x2="481.8" y2="225.42"/><line class="p" x1="478.53" y1="223.27" x2="471.75" y2="227.17"/><line class="p" x1="486.82" y1="230.59" x2="483.32" y2="224.55"/><line class="p" x1="478.76" y1="239.26" x2="485.54" y2="235.36"/><line class="p" x1="461.25" y1="260.9" x2="468.25" y2="260.9"/><line class="p" x1="471.75" y1="259.15" x2="471.75" y2="251.35"/><line class="p" x1="461.25" y1="262.64" x2="468.25" y2="262.64"/><line class="p" x1="457.75" y1="251.35" x2="457.75" y2="259.15"/><g class="s"><path class="p" d="M444.84,233.85a1.75,1.75,0,0,1-.88-1.51,1.65,1.65,0,0,1,.24-.87"/><path class="p" d="M447.7,225.42a1.75,1.75,0,0,1,1.52-.87,1.8,1.8,0,0,1,.87.23"/><path class="p" d="M444,235.36a3.48,3.48,0,0,1-1.28-4.77"/><path class="p" d="M446.18,224.55a3.51,3.51,0,0,1,3-1.75,3.61,3.61,0,0,1,1.75.47"/><path class="p" d="M479.41,224.78a1.8,1.8,0,0,1,.87-.23,1.75,1.75,0,0,1,1.52.87"/><path class="p" d="M485.3,231.47a1.65,1.65,0,0,1,.24.87,1.75,1.75,0,0,1-.88,1.51"/><path class="p" d="M478.53,223.27a3.61,3.61,0,0,1,1.76-.46,3.5,3.5,0,0,1,3,1.74"/><path class="p" d="M486.82,230.59a3.48,3.48,0,0,1-1.28,4.77"/><path class="p" d="M470,259.15h0a1.75,1.75,0,0,1-1.75,1.75"/><path class="p" d="M461.25,260.9h0a1.75,1.75,0,0,1-1.75-1.75"/><path class="p" d="M471.76,259.15h0a3.5,3.5,0,0,1-3.51,3.49"/><path class="p" d="M461.25,262.64h0a3.49,3.49,0,0,1-3.5-3.49"/></g><polygon class="q" points="249.33 249.31 249.33 312.21 249.86 314.88 251.38 317.15 253.65 318.67 256.32 319.2 305.24 319.2 307.92 318.67 310.19 317.15 311.7 314.88 312.23 312.21 312.23 259.79 312.23 249.31 249.33 249.31"/><rect class="l" x="237.1" y="249.31" width="12.23" height="10.48"/><rect class="l" x="312.23" y="249.31" width="12.23" height="10.48"/><line class="p" x1="282.76" y1="260.93" x2="283.6" y2="257.91"/><line class="p" x1="253.42" y1="260.93" x2="254.26" y2="257.91"/><line class="p" x1="305.24" y1="319.2" x2="256.32" y2="319.2"/><line class="p" x1="249.33" y1="312.21" x2="249.33" y2="249.31"/><line class="p" x1="249.33" y1="249.31" x2="312.23" y2="249.31"/><line class="p" x1="312.23" y1="249.31" x2="312.23" y2="312.21"/><line class="p" x1="249.33" y1="249.31" x2="237.1" y2="249.31"/><line class="p" x1="237.1" y1="249.31" x2="237.1" y2="259.79"/><line class="p" x1="237.1" y1="259.79" x2="249.33" y2="259.79"/><line class="p" x1="249.33" y1="259.79" x2="249.33" y2="249.31"/><line class="p" x1="324.46" y1="249.31" x2="312.23" y2="249.31"/><line class="p" x1="312.23" y1="249.31" x2="312.23" y2="259.79"/><line class="p" x1="312.23" y1="259.79" x2="324.46" y2="259.79"/><line class="p" x1="324.46" y1="259.79" x2="324.46" y2="249.31"/><line class="p" x1="249.33" y1="272.56" x2="312.23" y2="272.56"/><line class="p" x1="249.33" y1="277.8" x2="312.23" y2="277.8"/><g class="s"><path class="p" d="M255.35,266.92a96.43,96.43,0,0,1,9.91-.5,99,99,0,0,1,12.87.84"/><path class="p" d="M255.35,266.92a2.58,2.58,0,0,1-.4,0,1.87,1.87,0,0,1-1.87-1.87.38.38,0,0,1,0-.1"/><path class="p" d="M253.09,265c0-.27,0-.55,0-.83a14.67,14.67,0,0,1,.36-3.23"/><path class="p" d="M253.42,260.93c-.17-1.75-.26-3.52-.26-5.28q0-1.26.06-2.52"/><path class="p" d="M253.22,253.13a.5.5,0,0,1,0-.12.4.4,0,0,1,.4-.4h.08"/><path class="p" d="M278.2,253q-4.74.22-9.49.23c-5,0-10-.2-15-.58"/><path class="p" d="M278.2,253a.76.76,0,0,1,.21,0,1,1,0,0,1,1,1,1,1,0,0,1-.05.3"/><path class="p" d="M279.15,266.27a46.17,46.17,0,0,1,.18-12"/><path class="p" d="M279.15,266.27a.83.83,0,0,1,0,.22.81.81,0,0,1-.81.81.67.67,0,0,1-.24,0"/><path class="p" d="M256.32,319.2a7,7,0,0,1-7-7"/><path class="p" d="M312.23,312.21a7,7,0,0,1-7,7"/><path class="p" d="M284.7,266.92a96.23,96.23,0,0,1,9.9-.5,99,99,0,0,1,12.87.84"/><path class="p" d="M284.7,266.92a2.85,2.85,0,0,1-.4,0,1.88,1.88,0,0,1-1.88-1.87s0-.06,0-.1"/><path class="p" d="M282.43,265c0-.27,0-.55,0-.83a14.67,14.67,0,0,1,.36-3.23"/><path class="p" d="M282.76,260.93c-.17-1.75-.26-3.52-.26-5.28q0-1.26.06-2.52"/><path class="p" d="M282.56,253.13a.5.5,0,0,1,0-.12.4.4,0,0,1,.4-.4H283"/><path class="p" d="M307.54,253q-4.74.22-9.49.23c-5,0-10-.2-15-.58"/><path class="p" d="M307.54,253a.76.76,0,0,1,.21,0,1,1,0,0,1,1,1,1,1,0,0,1-.05.3"/><path class="p" d="M308.49,266.27a47.38,47.38,0,0,1,.18-12"/><path class="p" d="M308.49,266.27a.83.83,0,0,1,0,.22.8.8,0,0,1-.8.81.69.69,0,0,1-.25,0"/></g><rect class="l" x="365.7" y="249.31" width="20.97" height="49.97"/><line class="p" x1="365.7" y1="299.28" x2="365.7" y2="249.31"/><line class="p" x1="365.7" y1="249.31" x2="386.66" y2="249.31"/><line class="p" x1="386.66" y1="249.31" x2="386.66" y2="299.28"/><line class="p" x1="386.66" y1="299.28" x2="365.69" y2="299.28"/><line class="p" x1="376.18" y1="296.78" x2="376.18" y2="251.81"/><line class="p" x1="370.01" y1="294.46" x2="382.58" y2="290.23"/><line class="p" x1="369.39" y1="289.7" x2="381.07" y2="287.95"/><line class="p" x1="383.74" y1="283.19" x2="370.92" y2="281.75"/><line class="p" x1="382.06" y1="275.82" x2="370.92" y2="277.77"/><line class="p" x1="382.7" y1="273.14" x2="368.97" y2="273.14"/><line class="p" x1="382.76" y1="265.54" x2="369.19" y2="267.34"/><line class="p" x1="382.53" y1="262.69" x2="370.14" y2="262.69"/><line class="p" x1="382.66" y1="255.2" x2="369.95" y2="253.76"/><line class="p" x1="381.79" y1="257" x2="371.05" y2="258.47"/><polygon class="q" points="505.47 314.25 504.84 314.62 504.77 315.35 504.77 341.21 504.74 341.7 505.01 342.1 505.47 342.26 533.78 342.26 534.27 342.06 534.48 341.56 534.48 269.58 534.27 269.08 533.78 268.88 508.27 268.88 506.52 269.34 505.24 270.62 504.77 272.37 504.77 273.42 504.98 273.92 505.47 274.12 504.97 274.54 504.77 275.17 504.77 313.25 504.97 313.86 505.47 314.25"/><polygon class="q" points="482.06 314.3 479.39 314.83 477.12 316.35 475.61 318.62 475.07 321.29 475.07 335.27 475.61 337.95 477.12 340.21 479.39 341.73 482.06 342.26 503.73 342.26 504.47 341.95 504.77 341.21 504.77 315.35 504.47 314.61 503.73 314.3 482.06 314.3"/><line class="p" x1="503.73" y1="314.3" x2="482.06" y2="314.3"/><g class="s"><path class="p" d="M503.73,314.3a1,1,0,0,1,1,1.05"/></g><line class="p" x1="504.77" y1="341.21" x2="504.77" y2="315.35"/><g class="s"><path class="p" d="M504.77,341.21a1,1,0,0,1-1,1.05"/></g><line class="p" x1="482.06" y1="342.26" x2="503.73" y2="342.26"/><g class="s"><path class="p" d="M482.06,342.26a7,7,0,0,1-7-7"/></g><line class="p" x1="475.07" y1="321.29" x2="475.07" y2="335.27"/><g class="s"><path class="p" d="M475.07,321.29a7,7,0,0,1,7-7"/></g><line class="p" x1="504.77" y1="273.42" x2="504.77" y2="272.37"/><line class="p" x1="508.27" y1="268.88" x2="533.78" y2="268.88"/><line class="p" x1="534.48" y1="269.58" x2="534.48" y2="273.42"/><line class="p" x1="533.78" y1="274.12" x2="505.47" y2="274.12"/><line class="p" x1="534.48" y1="273.42" x2="534.48" y2="314.3"/><line class="p" x1="534.48" y1="314.3" x2="532.03" y2="314.3"/><line class="p" x1="504.77" y1="313.26" x2="504.77" y2="275.17"/><line class="p" x1="505.82" y1="274.12" x2="523.34" y2="274.12"/><line class="p" x1="523.34" y1="314.3" x2="505.82" y2="314.3"/><line class="p" x1="532.03" y1="274.12" x2="525.44" y2="274.12"/><line class="p" x1="525.44" y1="314.3" x2="532.03" y2="314.3"/><line class="p" x1="504.77" y1="337.72" x2="504.77" y2="341.56"/><line class="p" x1="505.47" y1="342.26" x2="533.78" y2="342.26"/><line class="p" x1="534.48" y1="341.56" x2="534.48" y2="337.72"/><line class="p" x1="534.48" y1="337.72" x2="534.48" y2="314.3"/><line class="p" x1="534.48" y1="314.3" x2="532.03" y2="314.3"/><line class="p" x1="504.77" y1="315.35" x2="504.77" y2="335.97"/><line class="p" x1="523.34" y1="314.3" x2="505.82" y2="314.3"/><line class="p" x1="523.34" y1="314.3" x2="532.03" y2="314.3"/><line class="p" x1="475.07" y1="321.29" x2="475.07" y2="335.27"/><line class="p" x1="482.06" y1="342.26" x2="503.73" y2="342.26"/><line class="p" x1="504.77" y1="341.21" x2="504.77" y2="315.35"/><line class="p" x1="503.73" y1="314.3" x2="482.06" y2="314.3"/><line class="p" x1="533.08" y1="315.35" x2="533.08" y2="341.21"/><line class="p" x1="533.08" y1="313.26" x2="533.08" y2="275.17"/><g class="s"><path class="p" d="M533.78,268.88a.7.7,0,0,1,.7.7"/><path class="p" d="M534.48,273.42a.7.7,0,0,1-.7.7"/><path class="p" d="M505.47,274.12a.7.7,0,0,1-.7-.7"/><path class="p" d="M504.77,275.17a1.06,1.06,0,0,1,1.05-1.05"/><path class="p" d="M505.82,314.3a1,1,0,0,1-1.05-1"/><path class="p" d="M505.47,342.26a.7.7,0,0,1-.7-.7"/><path class="p" d="M534.48,341.56a.7.7,0,0,1-.7.7"/><path class="p" d="M504.77,315.35a1.06,1.06,0,0,1,1.05-1.05"/><path class="p" d="M504.77,341.21a1,1,0,0,1-1,1.05"/><path class="p" d="M503.73,314.3a1,1,0,0,1,1,1.05"/></g><line class="p" x1="533.08" y1="341.21" x2="509.27" y2="341.21"/><g class="s"><path class="p" d="M529,315.31a19.59,19.59,0,0,1,.72,5.27A19.81,19.81,0,0,1,514.08,340"/><path class="p" d="M528.19,313.26a120.07,120.07,0,0,1,0-38.09"/><path class="p" d="M475.07,321.29a7,7,0,0,1,7-7"/><path class="p" d="M482.06,342.26a7,7,0,0,1-7-7"/><path class="p" d="M504.77,272.37a3.5,3.5,0,0,1,3.5-3.49"/></g><polygon class="q" points="278.51 181.17 265.58 181.17 265.58 192.7 265.85 194.42 266.63 195.99 267.85 197.24 269.83 198.28 272.05 198.64 274.26 198.28 276.24 197.24 277.46 195.99 278.24 194.42 278.51 192.7 278.51 181.17"/><line class="p" x1="265.58" y1="181.17" x2="265.58" y2="192.7"/><line class="p" x1="265.58" y1="181.17" x2="278.51" y2="181.17"/><line class="p" x1="278.51" y1="181.17" x2="278.51" y2="192.7"/><line class="p" x1="267.68" y1="185.36" x2="267.68" y2="192.7"/><line class="p" x1="276.41" y1="185.36" x2="276.41" y2="192.7"/><line class="p" x1="276.41" y1="185.36" x2="267.68" y2="185.36"/><g class="s"><path class="p" d="M267.85,197.24a5.68,5.68,0,0,1-2.27-4.54"/><path class="p" d="M278.51,192.7a5.66,5.66,0,0,1-2.27,4.54"/><path class="p" d="M276.24,197.24a7,7,0,0,1-8.39,0"/><path class="p" d="M278.51,192.7a5.66,5.66,0,0,1-2.27,4.54"/><path class="p" d="M276.24,197.24a7,7,0,0,1-4.2,1.4"/><path class="p" d="M276.41,192.7a3.56,3.56,0,0,1-1.43,2.86"/><path class="p" d="M275,195.56a4.89,4.89,0,0,1-5.87,0"/><path class="p" d="M269.11,195.56a3.56,3.56,0,0,1-1.43-2.86"/></g><polygon class="q" points="307.54 181.17 289.37 181.17 289 181.32 288.84 181.69 288.84 196.02 289 196.39 289.37 196.54 307.54 196.54 307.91 196.39 308.06 196.02 308.06 181.69 307.91 181.32 307.54 181.17"/><g class="s"><path class="p" d="M307.54,181.17a.52.52,0,0,1,.52.52"/></g><line class="p" x1="308.06" y1="196.02" x2="308.06" y2="181.69"/><g class="s"><path class="p" d="M308.06,196a.52.52,0,0,1-.52.52"/></g><line class="p" x1="289.37" y1="196.54" x2="307.54" y2="196.54"/><g class="s"><path class="p" d="M289.37,196.54a.52.52,0,0,1-.52-.52"/></g><line class="p" x1="288.84" y1="181.69" x2="288.84" y2="196.02"/><g class="s"><path class="p" d="M288.84,181.69a.52.52,0,0,1,.53-.52"/></g><line class="p" x1="307.54" y1="181.17" x2="289.37" y2="181.17"/><line class="p" x1="306.49" y1="185.01" x2="290.42" y2="185.01"/><line class="p" x1="289.89" y1="185.53" x2="289.89" y2="194.97"/><line class="p" x1="290.42" y1="195.49" x2="306.49" y2="195.49"/><line class="p" x1="307.02" y1="194.97" x2="307.02" y2="185.54"/><g class="s"><path class="p" d="M289.89,185.53a.52.52,0,0,1,.53-.52"/><path class="p" d="M290.42,195.49a.52.52,0,0,1-.53-.52"/><path class="p" d="M307,195a.52.52,0,0,1-.53.52"/><path class="p" d="M306.49,185a.52.52,0,0,1,.53.52"/></g><polygon class="q" points="299.33 183.26 299.19 184.73 299.07 185.06 298.84 186.91 298.71 187.16 298.45 187.25 298.2 187.16 298.07 186.91 297.83 185.06 297.72 184.73 297.58 183.26 297.84 182.65 298.45 182.39 299.07 182.65 299.33 183.26"/><line class="p" x1="299.33" y1="183.26" x2="299.19" y2="184.73"/><g class="s"><path class="p" d="M299.19,184.73a.66.66,0,0,1-.12.33"/></g><line class="p" x1="299.07" y1="185.06" x2="298.84" y2="186.91"/><g class="s"><path class="p" d="M298.84,186.91a.39.39,0,0,1-.77,0"/></g><line class="p" x1="298.07" y1="186.91" x2="297.84" y2="185.06"/><g class="s"><path class="p" d="M297.84,185.06a.66.66,0,0,1-.12-.33"/></g><line class="p" x1="297.72" y1="184.73" x2="297.58" y2="183.26"/><g class="s"><path class="p" d="M297.58,183.26a.88.88,0,0,1,1.75,0"/></g><line class="p" x1="297.98" y1="184.13" x2="297.98" y2="184.65"/><line class="p" x1="298.93" y1="184.65" x2="298.93" y2="184.13"/><line class="p" x1="298.93" y1="184.13" x2="297.98" y2="184.13"/><g class="s"><path class="p" d="M298.93,184.65a.48.48,0,1,1-.95,0"/><path class="p" d="M299.07,185.06a.73.73,0,0,1-1.23,0"/></g><rect class="l" x="219.84" y="175.92" width="0.13" height="52.42"/><line class="p" x1="219.84" y1="175.92" x2="219.98" y2="175.92"/><line class="p" x1="219.98" y1="175.92" x2="219.98" y2="228.34"/><line class="p" x1="219.98" y1="228.34" x2="219.84" y2="228.34"/><line class="p" x1="357.66" y1="175.92" x2="364.65" y2="175.92"/><line class="p" x1="368.49" y1="175.92" x2="369.28" y2="175.92"/><line class="p" x1="373.12" y1="175.92" x2="373.91" y2="175.92"/><line class="p" x1="377.75" y1="175.92" x2="384.74" y2="175.92"/><line class="p" x1="388.58" y1="175.92" x2="389.11" y2="175.92"/><line class="p" x1="389.11" y1="175.92" x2="396.1" y2="175.92"/><line class="p" x1="482" y1="188.03" x2="482" y2="182.17"/><line class="p" x1="482" y1="182.17" x2="479.63" y2="184.1"/><line class="p" x1="479.63" y1="184.09" x2="477.24" y2="182.17"/><line class="p" x1="477.24" y1="182.17" x2="477.24" y2="188.03"/><line class="p" x1="219.84" y1="167.54" x2="219.84" y2="363.23"/><line class="p" x1="219.84" y1="363.23" x2="224.04" y2="363.23"/><line class="p" x1="224.04" y1="363.23" x2="224.04" y2="450.59"/><line class="p" x1="224.04" y1="450.59" x2="543.91" y2="450.59"/><line class="p" x1="543.91" y1="450.59" x2="543.91" y2="363.23"/><line class="p" x1="543.91" y1="363.23" x2="545.53" y2="363.23"/><line class="p" x1="545.53" y1="363.23" x2="545.53" y2="167.54"/><line class="p" x1="545.53" y1="167.54" x2="219.84" y2="167.54"/><path class="t" d="M433.6,385v7h-.72v-6.36h-1.65V385Z"/><path class="t" d="M435.28,391.51a.53.53,0,0,1,.53-.54.54.54,0,0,1,.54.54.55.55,0,0,1-.54.55A.54.54,0,0,1,435.28,391.51Z"/><path class="t" d="M437.29,388.51c0-2.23,1.17-3.56,2.79-3.56s2.8,1.33,2.8,3.56-1.18,3.56-2.8,3.56S437.29,390.74,437.29,388.51Zm4.85,0c0-1.87-.84-2.9-2.06-2.9s-2.06,1-2.06,2.9.84,2.9,2.06,2.9S442.14,390.38,442.14,388.51Z"/><path class="t" d="M448.66,390c0,1.19-.83,2.12-2.54,2.12a3.61,3.61,0,0,1-2.51-.9l.35-.57a3,3,0,0,0,2.15.81c1.19,0,1.82-.58,1.82-1.43s-.56-1.46-2.34-1.46H444.1l.36-3.51h3.83v.64h-3.2l-.24,2.23h.9C447.86,387.88,448.66,388.71,448.66,390Z"/><path class="t" d="M273.37,215.2v7h-.72v-6.36H271v-.64Z"/><path class="t" d="M275.05,221.7a.53.53,0,0,1,.53-.54.54.54,0,0,1,.54.54.55.55,0,0,1-.54.55A.54.54,0,0,1,275.05,221.7Z"/><path class="t" d="M277.06,218.7c0-2.23,1.17-3.56,2.79-3.56s2.8,1.33,2.8,3.56-1.18,3.56-2.8,3.56S277.06,220.93,277.06,218.7Zm4.85,0c0-1.87-.84-2.9-2.06-2.9s-2.06,1-2.06,2.9.84,2.9,2.06,2.9S281.91,220.57,281.91,218.7Z"/><path class="t" d="M289.63,220.36h-1.4v1.84h-.72v-1.84h-3.95v-.52l3.71-4.64h.8l-3.58,4.52h3V218.1h.7v1.62h1.4Z"/><path class="t" d="M330.14,295.45v7h-.72v-6.36h-1.65v-.64Z"/><path class="t" d="M331.82,302a.53.53,0,0,1,.53-.54.54.54,0,0,1,.54.54.55.55,0,0,1-.54.55A.54.54,0,0,1,331.82,302Z"/><path class="t" d="M333.83,299c0-2.23,1.17-3.56,2.79-3.56s2.8,1.33,2.8,3.56-1.18,3.56-2.8,3.56S333.83,301.18,333.83,299Zm4.85,0c0-1.87-.84-2.9-2.06-2.9s-2.06,1-2.06,2.9.84,2.9,2.06,2.9S338.68,300.82,338.68,299Z"/><path class="t" d="M345,300.44c0,1.17-.85,2.07-2.54,2.07a3.64,3.64,0,0,1-2.52-.9l.35-.57a3.07,3.07,0,0,0,2.17.81c1.16,0,1.8-.54,1.8-1.41s-.59-1.39-1.89-1.39h-.5v-.53l1.94-2.43h-3.58v-.64h4.5V296l-2,2.49C344.24,298.53,345,299.32,345,300.44Z"/><path class="t" d="M433.6,295.45v7h-.72v-6.36h-1.65v-.64Z"/><path class="t" d="M435.28,302a.53.53,0,0,1,.53-.54.54.54,0,0,1,.54.54.55.55,0,0,1-.54.55A.54.54,0,0,1,435.28,302Z"/><path class="t" d="M437.29,299c0-2.23,1.17-3.56,2.79-3.56s2.8,1.33,2.8,3.56-1.18,3.56-2.8,3.56S437.29,301.18,437.29,299Zm4.85,0c0-1.87-.84-2.9-2.06-2.9s-2.06,1-2.06,2.9.84,2.9,2.06,2.9S442.14,300.82,442.14,299Z"/><path class="t" d="M448.68,301.81v.64h-4.91v-.51l2.91-2.85c.79-.78.94-1.25.94-1.73,0-.81-.57-1.31-1.64-1.31a2.38,2.38,0,0,0-1.91.78l-.51-.44a3.15,3.15,0,0,1,2.48-1c1.42,0,2.32.72,2.32,1.89a2.88,2.88,0,0,1-1.15,2.19l-2.38,2.34Z"/><path class="t" d="M359,215.2v7h-.72v-6.36h-1.65v-.64Z"/><path class="t" d="M360.66,221.7a.53.53,0,0,1,.53-.54.54.54,0,0,1,.54.54.55.55,0,0,1-.54.55A.54.54,0,0,1,360.66,221.7Z"/><path class="t" d="M362.67,218.7c0-2.23,1.17-3.56,2.79-3.56s2.8,1.33,2.8,3.56-1.18,3.56-2.8,3.56S362.67,220.93,362.67,218.7Zm4.85,0c0-1.87-.84-2.9-2.06-2.9s-2.06,1-2.06,2.9.84,2.9,2.06,2.9S367.52,220.57,367.52,218.7Z"/><path class="t" d="M371.22,215.2v7h-.72v-6.36h-1.65v-.64Z"/></svg>