<svg xmlns="http://www.w3.org/2000/svg" xmlns:xlink="http://www.w3.org/1999/xlink" viewBox="0 0 790.58 618.13"><defs><style>.a,.k{fill:none;}.b{clip-path:url(#a);}.c{clip-path:url(#d);}.d{clip-path:url(#g);}.e{clip-path:url(#j);}.f{fill:#595a5c;}.g{fill:#b6906c;}.h,.n{fill:#fff;}.i{fill:#231f20;}.j{fill:url(#n);}.k{stroke:#000;stroke-linecap:round;stroke-linejoin:round;stroke-width:0.35px;}.l,.n{fill-rule:evenodd;}.m{clip-path:url(#o);}.o{fill:#58595b;}</style><clipPath id="a"><rect class="a" y="59.93" width="90" height="59.93"/></clipPath><clipPath id="d"><rect class="a" x="90" y="59.93" width="90" height="59.93"/></clipPath><clipPath id="g"><rect class="a" width="90" height="59.93"/></clipPath><clipPath id="j"><rect class="a" x="90" width="90" height="59.93"/></clipPath><pattern id="n" width="180" height="119.85" patternTransform="matrix(0, -3.51, -3.51, 0, 35116.96, 14448.26)" patternUnits="userSpaceOnUse" viewBox="0 0 180 119.85"><rect class="a" width="180" height="119.85"/><g class="b"><g class="b"><g class="b"><image width="376" height="251" transform="matrix(0.24, 0, 0, -0.24, -0.2, 120.05)" xlink:href="B102_pudorys1.png"/></g></g></g><g class="c"><g class="c"><g class="c"><image width="376" height="251" transform="matrix(0.24, 0, 0, -0.24, 89.8, 120.05)" xlink:href="B102_pudorys2.png"/></g></g></g><g class="d"><g class="d"><g class="d"><image width="376" height="251" transform="matrix(0.24, 0, 0, -0.24, -0.2, 60.05)" xlink:href="B102_pudorys3.png"/></g></g></g><g class="e"><g class="e"><g class="e"><g class="e"><image width="376" height="251" transform="matrix(0.24, 0, 0, -0.24, 89.8, 60.05)" xlink:href="B102_pudorys4.png"/></g></g></g></g></pattern><clipPath id="o"><polygon class="a" points="298.85 167.06 298.85 363.44 303.2 363.44 303.2 451.07 487.52 451.07 487.52 363.44 491.73 363.44 491.73 167.06 298.85 167.06"/></clipPath></defs><path class="f" d="M55.31,597.13H57.1V609.9H55.31Zm.92,6.11h4.09a1.89,1.89,0,0,0,1-.27,1.82,1.82,0,0,0,.68-.77,2.67,2.67,0,0,0,.24-1.16,2.7,2.7,0,0,0-.24-1.16,1.82,1.82,0,0,0-1.7-1H56.23v-1.7h4a4.09,4.09,0,0,1,2,.48A3.45,3.45,0,0,1,63.62,599a4.64,4.64,0,0,1,0,4.11,3.34,3.34,0,0,1-1.35,1.36,4,4,0,0,1-2,.49h-4Z"/><path class="f" d="M67.7,606.33a2.07,2.07,0,0,0,.49,1.48,1.76,1.76,0,0,0,1.37.52,1.89,1.89,0,0,0,1.37-.46,1.79,1.79,0,0,0,.48-1.33l.12,1.91A2.58,2.58,0,0,1,69.06,610a2.89,2.89,0,0,1-2.33-1,4.08,4.08,0,0,1-.82-2.73v-5.55H67.7Zm.22-7.86a1.93,1.93,0,0,1-.56-1.5,2.07,2.07,0,0,1,.56-1.57,2.56,2.56,0,0,1,3.18,0,2.08,2.08,0,0,1,.57,1.56,1.94,1.94,0,0,1-.57,1.5,2.65,2.65,0,0,1-3.18,0Zm2.26-.86a.94.94,0,0,0,.24-.68,1,1,0,0,0-.24-.7.91.91,0,0,0-.67-.25.92.92,0,0,0-.67.25,1,1,0,0,0-.23.7,1,1,0,0,0,.23.68.92.92,0,0,0,.67.24A.9.9,0,0,0,70.18,597.61Zm1.23,3.17h1.78v9.12H71.41Z"/><path class="f" d="M77.1,609.63A2.82,2.82,0,0,1,76,608.36a5.08,5.08,0,0,1-.36-2v-2a5.05,5.05,0,0,1,.36-2,2.71,2.71,0,0,1,1-1.27,3,3,0,0,1,1.65-.44,2.71,2.71,0,0,1,1.48.42,3.22,3.22,0,0,1,1.09,1.19l-.18,1.86a2.19,2.19,0,0,0-.22-1,1.48,1.48,0,0,0-.61-.63,2,2,0,0,0-1-.21,1.71,1.71,0,0,0-1.37.55,2.26,2.26,0,0,0-.49,1.56v2a2.19,2.19,0,0,0,.49,1.54,1.74,1.74,0,0,0,1.37.54,1.93,1.93,0,0,0,1-.23,1.45,1.45,0,0,0,.61-.64,2.25,2.25,0,0,0,.22-1l.12,1.92a2.66,2.66,0,0,1-.89,1.14,2.56,2.56,0,0,1-1.53.45A3.19,3.19,0,0,1,77.1,609.63Zm4-12.5H82.9V609.9H81.11Z"/><path class="f" d="M87.09,609.57a3.09,3.09,0,0,1-1.29-1.36,4.85,4.85,0,0,1-.44-2.15v-1.48a4.71,4.71,0,0,1,.44-2.12,3.12,3.12,0,0,1,1.29-1.35,4.71,4.71,0,0,1,4.06,0,3.12,3.12,0,0,1,1.29,1.35,4.71,4.71,0,0,1,.44,2.12v1.51a4.79,4.79,0,0,1-.44,2.13,3.12,3.12,0,0,1-1.29,1.35,4.62,4.62,0,0,1-4.06,0Zm3.49-1.83a2.43,2.43,0,0,0,.51-1.65v-1.51a2.43,2.43,0,0,0-.51-1.65,1.88,1.88,0,0,0-1.46-.58,1.85,1.85,0,0,0-1.45.58,2.38,2.38,0,0,0-.52,1.65v1.51a2.38,2.38,0,0,0,.52,1.65,1.82,1.82,0,0,0,1.45.59A1.85,1.85,0,0,0,90.58,607.74Z"/><path class="f" d="M95.43,600.78h1.79v9.12H95.43Zm4.42,1.72a2.16,2.16,0,0,0-.83-.15,1.83,1.83,0,0,0-1.33.47,1.79,1.79,0,0,0-.47,1.31L97,602.37a3.32,3.32,0,0,1,1.09-1.27,2.58,2.58,0,0,1,1.48-.45,3.39,3.39,0,0,1,1.13.18,2.62,2.62,0,0,1,.88.53l-1.17,1.58A1.56,1.56,0,0,0,99.85,602.5Z"/><path class="f" d="M102.15,600.78H104l2.81,7.93-1,1.94Zm8.07,0L106.34,612a2.6,2.6,0,0,1-.56,1,1.87,1.87,0,0,1-.84.52,4,4,0,0,1-1.23.16h-.36V612h.36a1.46,1.46,0,0,0,.8-.2,1.74,1.74,0,0,0,.51-.7l3.38-10.31Z"/><path class="f" d="M113.51,609.88a5.76,5.76,0,0,1-1.32-.48,4.89,4.89,0,0,1-1.13-.79l1.06-1.31a5.86,5.86,0,0,0,1.47.85,4.18,4.18,0,0,0,1.44.28,3.11,3.11,0,0,0,1.6-.33,1.1,1.1,0,0,0,.53-1,.79.79,0,0,0-.29-.66,1.66,1.66,0,0,0-.72-.29c-.29,0-.69-.1-1.22-.14h-.15l-.14,0h-.15a6.45,6.45,0,0,1-1.5-.26,2,2,0,0,1-1-.7,2.38,2.38,0,0,1-.41-1.49,3.07,3.07,0,0,1,.39-1.61,2.41,2.41,0,0,1,1.18-1,5.29,5.29,0,0,1,2-.32,6.38,6.38,0,0,1,2.6.52,6.16,6.16,0,0,1,1.13.66l-1.08,1.31a5.59,5.59,0,0,0-1.35-.66,4,4,0,0,0-1.3-.22,2.44,2.44,0,0,0-1.37.31,1.08,1.08,0,0,0-.46.94.64.64,0,0,0,.26.55,1.72,1.72,0,0,0,.66.25c.26,0,.64.07,1.12.1h.34a7.67,7.67,0,0,1,1.63.25,2.24,2.24,0,0,1,1.13.77,2.62,2.62,0,0,1,.45,1.65,2.92,2.92,0,0,1-.42,1.63,2.54,2.54,0,0,1-1.27,1A5.88,5.88,0,0,1,115,610,7.38,7.38,0,0,1,113.51,609.88Z"/><path class="f" d="M126,597.13h1.8V609.9H126Zm2.6,12.5a2.39,2.39,0,0,1-.93-1.16l.13-1.91a2.22,2.22,0,0,0,.21,1,1.48,1.48,0,0,0,.61.63,1.93,1.93,0,0,0,1,.22,1.74,1.74,0,0,0,1.37-.54,2.18,2.18,0,0,0,.49-1.53v-2a2.26,2.26,0,0,0-.49-1.56,1.71,1.71,0,0,0-1.37-.55,2,2,0,0,0-1,.21,1.36,1.36,0,0,0-.61.62,2.12,2.12,0,0,0-.21,1l-.19-1.76a3.37,3.37,0,0,1,1.08-1.24,2.67,2.67,0,0,1,1.49-.43,3,3,0,0,1,1.65.43,2.9,2.9,0,0,1,1.06,1.27,5.1,5.1,0,0,1,.36,2v2a4.94,4.94,0,0,1-.37,2,2.79,2.79,0,0,1-1.08,1.26,3.25,3.25,0,0,1-1.71.44A2.73,2.73,0,0,1,128.57,609.63Z"/><path class="f" d="M134.46,600.78h1.82l2.81,7.93-1,1.94Zm8.07,0L138.65,612a2.6,2.6,0,0,1-.56,1,1.87,1.87,0,0,1-.84.52,4,4,0,0,1-1.23.16h-.36V612H136a1.46,1.46,0,0,0,.8-.2,1.74,1.74,0,0,0,.51-.7l3.37-10.31Z"/><path class="f" d="M143.57,600.78h4.12v1.62h-4.12Zm1.46,8.56a2.77,2.77,0,0,1-.52-1.81v-9.4h1.8v9.42a.84.84,0,0,0,.13.51.46.46,0,0,0,.39.18h.86V610h-1A2,2,0,0,1,145,609.34Z"/><path class="f" d="M151.94,606.33a2.07,2.07,0,0,0,.49,1.48,1.76,1.76,0,0,0,1.37.52,1.91,1.91,0,0,0,1.37-.46,1.79,1.79,0,0,0,.48-1.33l.12,1.91A2.58,2.58,0,0,1,153.3,610a2.89,2.89,0,0,1-2.33-1,4.08,4.08,0,0,1-.82-2.73v-5.55h1.79Zm3.71-5.55h1.78v9.12h-1.78Z"/><rect class="g" x="612.92" y="591.68" width="35.43" height="2.83"/><path class="h" d="M648.48,594.64H612.79v-3.08h35.69ZM613,594.39h35.19v-2.58H613Z"/><rect class="g" x="612.92" y="601.6" width="70.74" height="2.83"/><path class="h" d="M683.78,604.56h-71v-3.08h71ZM613,604.31h70.49v-2.58H613Z"/><rect class="g" x="612.92" y="612.72" width="177.16" height="2.84"/><path class="h" d="M790.21,615.68H612.79V612.6H790.21ZM613,615.43H790v-2.58H613Z"/><path class="i" d="M587.26,596.28h-.8v-4.82l-.81.5v-.83l.81-.53h.8Z"/><path class="i" d="M589,595.91a1.67,1.67,0,0,1-.41-1.19v-2.58A1.65,1.65,0,0,1,589,591a2,2,0,0,1,2.42,0,1.65,1.65,0,0,1,.41,1.19v2.58a1.65,1.65,0,0,1-.41,1.19,2,2,0,0,1-2.42,0Zm1.83-.55a.89.89,0,0,0,.2-.64v-2.58a.89.89,0,0,0-.2-.64.82.82,0,0,0-.62-.22.86.86,0,0,0-.63.22.94.94,0,0,0-.2.64v2.58a.9.9,0,0,0,.21.64,1,1,0,0,0,1.24,0Z"/><path class="i" d="M593.22,595.91a1.67,1.67,0,0,1-.41-1.19v-2.58a1.65,1.65,0,0,1,.41-1.19,2,2,0,0,1,2.42,0,1.61,1.61,0,0,1,.41,1.19v2.58a1.65,1.65,0,0,1-.41,1.19,2,2,0,0,1-2.42,0Zm1.83-.55a.9.9,0,0,0,.21-.64v-2.58a.94.94,0,0,0-.2-.64.86.86,0,0,0-.63-.22.82.82,0,0,0-.62.22.89.89,0,0,0-.2.64v2.58a.89.89,0,0,0,.2.64,1,1,0,0,0,1.24,0Z"/><path class="i" d="M600.1,596.13a1.45,1.45,0,0,1-.6-.6,2.06,2.06,0,0,1-.21-1v-.67a2,2,0,0,1,.21-.94,1.37,1.37,0,0,1,.6-.59,2,2,0,0,1,.95-.21,2.21,2.21,0,0,1,.59.08,1.68,1.68,0,0,1,.51.22,1.54,1.54,0,0,1,.37.35l-.58.52a1.17,1.17,0,0,0-.4-.3,1.13,1.13,0,0,0-.48-.11.94.94,0,0,0-.71.26,1,1,0,0,0-.26.72v.67a1,1,0,0,0,.25.74.94.94,0,0,0,.72.27,1,1,0,0,0,.48-.12,1,1,0,0,0,.4-.32l.58.56a1.38,1.38,0,0,1-.38.34,1.62,1.62,0,0,1-.5.22,2.27,2.27,0,0,1-.59.07A2.12,2.12,0,0,1,600.1,596.13Z"/><path class="i" d="M603.4,592.22h.79v4.06h-.79Zm2.42,1.6a1,1,0,0,0-.21-.67.78.78,0,0,0-.6-.23.81.81,0,0,0-.6.21.73.73,0,0,0-.22.58l-.08-.78a1.46,1.46,0,0,1,.49-.57,1.22,1.22,0,0,1,.67-.2,1.33,1.33,0,0,1,.73.2,1.18,1.18,0,0,1,.46.56,2.4,2.4,0,0,1,.15.89v2.47h-.79Zm2.42,0a.93.93,0,0,0-.22-.67.85.85,0,0,0-.63-.23.72.72,0,0,0-.57.23.9.9,0,0,0-.21.64l-.16-.78a1.61,1.61,0,0,1,.51-.63,1.23,1.23,0,0,1,.69-.22,1.37,1.37,0,0,1,.75.2,1.09,1.09,0,0,1,.47.56,2.21,2.21,0,0,1,.17.89v2.47h-.8Z"/><path class="i" d="M584.33,605.5l2-2.64a1.85,1.85,0,0,0,.27-.47,1.29,1.29,0,0,0,.09-.45h0a.67.67,0,0,0-.2-.53.81.81,0,0,0-.56-.19.76.76,0,0,0-.56.21,1,1,0,0,0-.27.58h-.82a2,2,0,0,1,.29-.83,1.42,1.42,0,0,1,.56-.53,1.67,1.67,0,0,1,.79-.18,1.93,1.93,0,0,1,.87.17,1.21,1.21,0,0,1,.54.51,1.55,1.55,0,0,1,.19.8h0a1.84,1.84,0,0,1-.12.63,2.8,2.8,0,0,1-.35.63l-1.65,2.24h2.15v.76h-3.2Z"/><path class="i" d="M589,605.83a1.67,1.67,0,0,1-.41-1.19v-2.58a1.65,1.65,0,0,1,.41-1.19,2,2,0,0,1,2.42,0,1.65,1.65,0,0,1,.41,1.19v2.58a1.65,1.65,0,0,1-.41,1.19,2,2,0,0,1-2.42,0Zm1.83-.55a.89.89,0,0,0,.2-.64v-2.58a.89.89,0,0,0-.2-.64.82.82,0,0,0-.62-.22.86.86,0,0,0-.63.22.94.94,0,0,0-.19.64v2.58a.89.89,0,0,0,.2.64,1,1,0,0,0,1.24,0Z"/><path class="i" d="M593.22,605.83a1.67,1.67,0,0,1-.41-1.19v-2.58a1.61,1.61,0,0,1,.42-1.19,1.59,1.59,0,0,1,1.2-.42,1.45,1.45,0,0,1,1.62,1.61v2.58a1.61,1.61,0,0,1-.41,1.19,2,2,0,0,1-2.42,0Zm1.84-.55a.94.94,0,0,0,.2-.64v-2.58a.94.94,0,0,0-.2-.64.84.84,0,0,0-.63-.22.82.82,0,0,0-.62.22.89.89,0,0,0-.2.64v2.58a.89.89,0,0,0,.2.64.82.82,0,0,0,.62.22A.86.86,0,0,0,595.06,605.28Z"/><path class="i" d="M600.1,606.05a1.45,1.45,0,0,1-.6-.6,2.06,2.06,0,0,1-.2-1v-.67a2,2,0,0,1,.2-.94,1.37,1.37,0,0,1,.6-.59,2,2,0,0,1,.95-.21,2.35,2.35,0,0,1,.6.08,1.73,1.73,0,0,1,.5.22,1.38,1.38,0,0,1,.37.35l-.58.52a1.08,1.08,0,0,0-.4-.3,1.13,1.13,0,0,0-.48-.11,1,1,0,0,0-.71.26,1,1,0,0,0-.26.72v.67a1,1,0,0,0,.25.74.94.94,0,0,0,.72.27,1.14,1.14,0,0,0,.88-.44l.58.56a1.38,1.38,0,0,1-.38.34,1.62,1.62,0,0,1-.5.22,2.22,2.22,0,0,1-.59.07A2.12,2.12,0,0,1,600.1,606.05Z"/><path class="i" d="M603.4,602.14h.79v4.06h-.79Zm2.42,1.6a1,1,0,0,0-.21-.67.78.78,0,0,0-.6-.23.81.81,0,0,0-.6.21.73.73,0,0,0-.22.58l-.08-.78a1.46,1.46,0,0,1,.49-.57,1.22,1.22,0,0,1,.67-.2,1.3,1.3,0,0,1,.73.2,1.18,1.18,0,0,1,.46.56,2.4,2.4,0,0,1,.16.89v2.47h-.8Zm2.42,0a.93.93,0,0,0-.22-.67.85.85,0,0,0-.63-.23.73.73,0,0,0-.57.23.89.89,0,0,0-.2.64l-.16-.78a1.51,1.51,0,0,1,.5-.63,1.23,1.23,0,0,1,.69-.22,1.35,1.35,0,0,1,.75.2,1.16,1.16,0,0,1,.48.56,2.4,2.4,0,0,1,.16.89v2.47h-.8Z"/><path class="i" d="M585,615.58a1.34,1.34,0,0,1-.54-.49,2,2,0,0,1-.28-.77h.8a.75.75,0,0,0,.25.49.85.85,0,0,0,.54.17.72.72,0,0,0,.59-.25,1.1,1.1,0,0,0,.21-.72v-.48a1.1,1.1,0,0,0-.21-.72.72.72,0,0,0-.59-.25.83.83,0,0,0-.4.11,1.18,1.18,0,0,0-.34.33h-.72v-3h2.89v.76h-2.1V612a1,1,0,0,1,.34-.18.94.94,0,0,1,.37-.07,1.68,1.68,0,0,1,.84.2,1.29,1.29,0,0,1,.53.6,2.07,2.07,0,0,1,.19.94V614a2.25,2.25,0,0,1-.19.94,1.31,1.31,0,0,1-.55.59,1.69,1.69,0,0,1-.86.21A1.74,1.74,0,0,1,585,615.58Z"/><path class="i" d="M589,615.32a1.65,1.65,0,0,1-.41-1.19v-2.58a1.67,1.67,0,0,1,.41-1.19,2,2,0,0,1,2.42,0,1.65,1.65,0,0,1,.41,1.19v2.58a1.64,1.64,0,0,1-.41,1.19,1.92,1.92,0,0,1-2.42,0Zm1.83-.55a.89.89,0,0,0,.2-.64v-2.58a.88.88,0,0,0-.2-.63.78.78,0,0,0-.62-.22.82.82,0,0,0-.63.22.93.93,0,0,0-.2.63v2.58a.9.9,0,0,0,.21.64,1,1,0,0,0,1.24,0Z"/><path class="i" d="M593.22,615.32a1.65,1.65,0,0,1-.41-1.19v-2.58a1.67,1.67,0,0,1,.41-1.19,2,2,0,0,1,2.42,0,1.61,1.61,0,0,1,.41,1.19v2.58a1.64,1.64,0,0,1-.41,1.19,1.92,1.92,0,0,1-2.42,0Zm1.83-.55a.9.9,0,0,0,.21-.64v-2.58a.93.93,0,0,0-.2-.63.82.82,0,0,0-.63-.22.78.78,0,0,0-.62.22.88.88,0,0,0-.2.63v2.58a.89.89,0,0,0,.2.64,1,1,0,0,0,1.24,0Z"/><path class="i" d="M600.1,615.54a1.45,1.45,0,0,1-.6-.6,2,2,0,0,1-.21-1v-.67a2,2,0,0,1,.21-.94,1.45,1.45,0,0,1,.6-.6,2,2,0,0,1,.95-.2,2.22,2.22,0,0,1,.59.07,2,2,0,0,1,.51.22,1.76,1.76,0,0,1,.37.35l-.58.52a1.17,1.17,0,0,0-.4-.3,1.13,1.13,0,0,0-.48-.11.94.94,0,0,0-.71.26,1,1,0,0,0-.26.73V614a1.07,1.07,0,0,0,.25.74,1,1,0,0,0,.72.26,1.13,1.13,0,0,0,.48-.11,1.26,1.26,0,0,0,.4-.32l.58.55a1.42,1.42,0,0,1-.38.35,1.88,1.88,0,0,1-.5.21,2.27,2.27,0,0,1-.59.08A2,2,0,0,1,600.1,615.54Z"/><path class="i" d="M603.4,611.63h.79v4.06h-.79Zm2.42,1.6a1,1,0,0,0-.21-.66.75.75,0,0,0-.6-.24.81.81,0,0,0-.6.21.75.75,0,0,0-.22.58l-.08-.78a1.5,1.5,0,0,1,.49-.56,1.15,1.15,0,0,1,.67-.2,1.32,1.32,0,0,1,.73.19,1.28,1.28,0,0,1,.46.56,2.42,2.42,0,0,1,.15.9v2.46h-.79Zm2.42,0a.91.91,0,0,0-.22-.66.82.82,0,0,0-.63-.24.72.72,0,0,0-.57.23.9.9,0,0,0-.21.64l-.16-.78a1.51,1.51,0,0,1,.51-.62,1.16,1.16,0,0,1,.69-.22,1.37,1.37,0,0,1,.75.19,1.18,1.18,0,0,1,.47.56,2.22,2.22,0,0,1,.17.9v2.46h-.8Z"/><path class="g" d="M23.49,613.89A12.92,12.92,0,1,1,36.4,601,12.93,12.93,0,0,1,23.49,613.89Zm0-24.83A11.92,11.92,0,1,0,35.4,601,11.93,11.93,0,0,0,23.49,589.06Z"/><polygon class="h" points="35.77 588.74 9.42 600.98 35.77 613.21 32.02 600.98 35.77 588.74"/><path class="g" d="M36.58,614.14,8.23,601l28.35-13.17-4,13.17ZM10.61,601,35,612.29,31.5,601,35,589.66Z"/><path class="g" d="M2.52,605.19a5,5,0,0,1-1.11-.38,4.4,4.4,0,0,1-1-.64l.81-1a3.72,3.72,0,0,0,1.16.69,4.08,4.08,0,0,0,1.38.23,2.73,2.73,0,0,0,1.55-.38,1.17,1.17,0,0,0,.55-1.05h0a1.12,1.12,0,0,0-.25-.77,1.44,1.44,0,0,0-.64-.42,8.23,8.23,0,0,0-1-.25H3.89l-.1,0a9.48,9.48,0,0,1-1.5-.36,2.08,2.08,0,0,1-1-.73,2.42,2.42,0,0,1-.41-1.51h0a2.77,2.77,0,0,1,.38-1.47,2.44,2.44,0,0,1,1.12-.92,4.48,4.48,0,0,1,1.77-.32,4.6,4.6,0,0,1,1,.11,4.9,4.9,0,0,1,1.86.86l-.73,1a4.61,4.61,0,0,0-1-.58,3,3,0,0,0-1.06-.2,2.44,2.44,0,0,0-1.46.38,1.24,1.24,0,0,0-.53,1.07h0a1,1,0,0,0,.27.75,1.74,1.74,0,0,0,.67.4,9.3,9.3,0,0,0,1.12.27h.24a7.93,7.93,0,0,1,1.4.41,2.22,2.22,0,0,1,.94.76,2.4,2.4,0,0,1,.38,1.43h0a2.62,2.62,0,0,1-.4,1.45,2.54,2.54,0,0,1-1.16.91,4.8,4.8,0,0,1-1.83.31A6.44,6.44,0,0,1,2.52,605.19Z"/><rect class="g" x="612.5" y="600.68" width="1" height="4.68"/><rect class="g" x="612.5" y="590.76" width="1" height="4.68"/><rect class="g" x="612.5" y="611.45" width="1" height="5.24"/><rect class="g" x="789.58" y="611.45" width="1" height="5.24"/><rect class="g" x="682.59" y="600.68" width="1" height="4.68"/><rect class="g" x="647.3" y="590.76" width="1" height="4.68"/><rect class="a" width="790.34" height="618.13"/><polygon class="j" points="298.85 169.51 298.85 349.41 298.99 349.41 298.99 189.85 298.99 169.51 298.85 169.51"/><rect class="h" x="462.4" y="235.09" width="21.04" height="21.04"/><line class="k" x1="462.4" y1="256.13" x2="483.45" y2="256.13"/><line class="k" x1="462.4" y1="235.09" x2="462.4" y2="256.13"/><line class="k" x1="483.45" y1="235.09" x2="462.4" y2="235.09"/><line class="k" x1="483.45" y1="256.13" x2="483.45" y2="235.09"/><rect class="h" x="307.4" y="235.09" width="112.57" height="21.39"/><line class="k" x1="419.97" y1="256.48" x2="307.4" y2="256.48"/><line class="k" x1="307.4" y1="256.48" x2="307.4" y2="235.09"/><line class="k" x1="307.4" y1="235.09" x2="419.97" y2="235.09"/><line class="k" x1="419.97" y1="235.09" x2="419.97" y2="256.48"/><rect class="h" x="397" y="176.35" width="21.04" height="21.04"/><line class="k" x1="397" y1="197.39" x2="418.04" y2="197.39"/><line class="k" x1="397" y1="176.35" x2="397" y2="197.39"/><line class="k" x1="418.04" y1="176.35" x2="397" y2="176.35"/><line class="k" x1="418.04" y1="197.39" x2="418.04" y2="176.35"/><rect class="h" x="311.79" y="195.64" width="31.56" height="31.56"/><line class="k" x1="311.79" y1="227.2" x2="343.35" y2="227.2"/><line class="k" x1="311.79" y1="195.64" x2="311.79" y2="227.2"/><line class="k" x1="343.35" y1="195.64" x2="311.79" y2="195.64"/><line class="k" x1="343.35" y1="227.2" x2="343.35" y2="195.64"/><line class="k" x1="307.4" y1="191.25" x2="338.96" y2="191.25"/><line class="k" x1="338.96" y1="191.25" x2="338.96" y2="175.47"/><line class="k" x1="338.96" y1="175.47" x2="335.46" y2="187.75"/><line class="k" x1="335.46" y1="187.75" x2="307.4" y2="191.25"/><polygon class="l" points="449.08 363.44 449.08 356.42 491.73 356.42 491.73 363.44 487.52 363.44 449.08 363.44"/><polygon class="l" points="298.85 363.44 298.85 356.42 347.38 356.42 347.38 363.44 303.2 363.44 298.85 363.44"/><rect x="298.85" y="349.41" width="46.77" height="7.01"/><rect x="450.83" y="349.41" width="40.9" height="7.01"/><rect x="380.7" y="349.41" width="35.07" height="7.01"/><rect x="378.94" y="356.42" width="38.57" height="7.01"/><polygon class="l" points="459.95 175.47 459.95 167.06 491.73 167.06 491.73 349.41 483.44 349.41 483.44 175.47 459.95 175.47"/><polygon class="l" points="298.99 349.41 298.99 167.06 390.51 167.06 398.93 167.06 421.38 167.06 421.38 175.47 307.4 175.47 307.4 349.41 298.99 349.41"/><rect x="421.38" y="167.06" width="1.75" height="4.03"/><rect x="458.2" y="167.06" width="1.75" height="4.03"/><rect x="303.2" y="363.44" width="1.4" height="71.89"/><rect x="486.25" y="363.44" width="1.27" height="71.89"/><rect x="418.92" y="226.32" width="2.45" height="1.75"/><rect x="418.92" y="175.47" width="2.45" height="22.79"/><rect x="307.4" y="228.08" width="119.23" height="7.01"/><rect x="458.2" y="228.08" width="25.25" height="7.01"/><rect x="307.4" y="194.76" width="3.51" height="33.31"/><polygon class="l" points="338.96 175.47 342.47 175.47 342.47 194.76 307.4 194.76 307.4 191.25 338.96 191.25 338.96 175.47"/><rect x="298.85" y="167.06" width="0.14" height="2.45"/><line class="k" x1="298.85" y1="363.44" x2="303.2" y2="363.44"/><line class="k" x1="303.2" y1="363.44" x2="347.38" y2="363.44"/><line class="k" x1="449.08" y1="363.44" x2="487.52" y2="363.44"/><line class="k" x1="487.52" y1="363.44" x2="491.73" y2="363.44"/><line class="k" x1="298.85" y1="349.41" x2="298.99" y2="349.41"/><line class="k" x1="307.4" y1="349.41" x2="345.63" y2="349.41"/><line class="k" x1="450.83" y1="349.41" x2="483.44" y2="349.41"/><line class="k" x1="345.63" y1="349.41" x2="345.63" y2="356.42"/><line class="k" x1="450.83" y1="349.41" x2="450.83" y2="356.42"/><line class="k" x1="449.08" y1="356.42" x2="449.08" y2="363.44"/><line class="k" x1="450.83" y1="356.42" x2="449.08" y2="356.42"/><line class="k" x1="347.38" y1="356.42" x2="347.38" y2="363.44"/><line class="k" x1="347.38" y1="356.42" x2="345.63" y2="356.42"/><line class="k" x1="380.7" y1="349.41" x2="380.7" y2="356.42"/><line class="k" x1="378.94" y1="356.42" x2="378.94" y2="363.44"/><line class="k" x1="380.7" y1="356.42" x2="378.94" y2="356.42"/><line class="k" x1="415.76" y1="349.41" x2="415.76" y2="356.42"/><line class="k" x1="417.52" y1="356.42" x2="417.52" y2="363.44"/><line class="k" x1="417.52" y1="356.42" x2="415.76" y2="356.42"/><line class="k" x1="380.7" y1="349.41" x2="415.76" y2="349.41"/><line class="k" x1="378.94" y1="363.44" x2="417.52" y2="363.44"/><line class="k" x1="301.79" y1="363.44" x2="303.2" y2="363.44"/><line class="k" x1="303.2" y1="363.44" x2="304.6" y2="363.44"/><line class="k" x1="304.6" y1="363.44" x2="304.6" y2="435.33"/><line class="k" x1="303.2" y1="435.33" x2="304.6" y2="435.33"/><line class="k" x1="486.25" y1="363.44" x2="487.52" y2="363.44"/><line class="k" x1="487.52" y1="363.44" x2="489.06" y2="363.44"/><line class="k" x1="486.25" y1="363.44" x2="486.25" y2="435.33"/><line class="k" x1="486.25" y1="435.33" x2="487.52" y2="435.33"/><line class="k" x1="483.45" y1="175.47" x2="459.95" y2="175.47"/><line class="k" x1="298.99" y1="169.51" x2="298.99" y2="349.41"/><line class="k" x1="307.4" y1="235.09" x2="307.4" y2="349.41"/><line class="k" x1="483.45" y1="175.47" x2="483.45" y2="228.08"/><line class="k" x1="483.45" y1="235.09" x2="483.45" y2="349.41"/><line class="k" x1="418.92" y1="175.47" x2="342.47" y2="175.47"/><line class="k" x1="423.13" y1="171.09" x2="423.13" y2="167.06"/><line class="k" x1="458.2" y1="171.09" x2="458.2" y2="167.06"/><line class="k" x1="458.2" y1="171.09" x2="459.95" y2="171.09"/><line class="k" x1="423.13" y1="171.09" x2="421.38" y2="171.09"/><line class="k" x1="421.37" y1="171.09" x2="421.37" y2="175.47"/><line class="k" x1="459.95" y1="171.09" x2="459.95" y2="175.47"/><line class="k" x1="342.47" y1="175.47" x2="338.97" y2="175.47"/><line class="k" x1="487.52" y1="438.83" x2="303.2" y2="438.83"/><line class="k" x1="449.08" y1="363.44" x2="417.52" y2="363.44"/><line class="k" x1="450.83" y1="349.41" x2="415.76" y2="349.41"/><line class="k" x1="380.7" y1="349.41" x2="380.7" y2="356.42"/><line class="k" x1="380.7" y1="349.41" x2="345.63" y2="349.41"/><line class="k" x1="378.94" y1="356.42" x2="378.94" y2="363.44"/><line class="k" x1="378.94" y1="359.93" x2="347.38" y2="359.93"/><line class="k" x1="347.03" y1="352.92" x2="347.03" y2="320.65"/><line class="k" x1="377.89" y1="355.72" x2="377.89" y2="356.42"/><line class="k" x1="377.89" y1="356.42" x2="380.7" y2="356.42"/><line class="k" x1="380.7" y1="356.42" x2="380.7" y2="353.62"/><line class="k" x1="380.7" y1="353.62" x2="379.29" y2="353.62"/><line class="k" x1="379.29" y1="352.92" x2="376.49" y2="352.92"/><line class="k" x1="376.49" y1="352.92" x2="376.49" y2="355.72"/><line class="k" x1="376.49" y1="355.72" x2="379.29" y2="355.72"/><line class="k" x1="379.29" y1="355.72" x2="379.29" y2="352.92"/><line class="k" x1="347.03" y1="352.92" x2="349.84" y2="352.92"/><line class="k" x1="349.84" y1="352.92" x2="349.84" y2="355.72"/><line class="k" x1="349.84" y1="355.72" x2="347.03" y2="355.72"/><line class="k" x1="347.03" y1="355.72" x2="347.03" y2="352.92"/><line class="k" x1="376.49" y1="352.92" x2="349.84" y2="352.92"/><line class="k" x1="349.84" y1="355.72" x2="376.49" y2="355.72"/><line class="k" x1="376.49" y1="354.32" x2="349.84" y2="354.32"/><g class="m"><path class="k" d="M347,320.65a32.26,32.26,0,0,1,32.26,32.27"/></g><line class="k" x1="348.43" y1="355.72" x2="348.43" y2="356.42"/><line class="k" x1="348.43" y1="356.42" x2="345.63" y2="356.42"/><line class="k" x1="345.63" y1="356.42" x2="345.63" y2="353.62"/><line class="k" x1="345.63" y1="353.62" x2="347.03" y2="353.62"/><line class="k" x1="448.03" y1="355.72" x2="448.03" y2="356.42"/><line class="k" x1="448.03" y1="356.42" x2="450.83" y2="356.42"/><line class="k" x1="450.83" y1="356.42" x2="450.83" y2="353.62"/><line class="k" x1="450.83" y1="353.62" x2="449.43" y2="353.62"/><line class="k" x1="449.43" y1="352.92" x2="446.62" y2="352.92"/><line class="k" x1="446.62" y1="352.92" x2="446.62" y2="355.72"/><line class="k" x1="446.62" y1="355.72" x2="449.43" y2="355.72"/><line class="k" x1="449.43" y1="355.72" x2="449.43" y2="352.92"/><line class="k" x1="417.17" y1="352.92" x2="419.97" y2="352.92"/><line class="k" x1="419.97" y1="352.92" x2="419.97" y2="355.72"/><line class="k" x1="419.97" y1="355.72" x2="417.17" y2="355.72"/><line class="k" x1="417.17" y1="355.72" x2="417.17" y2="352.92"/><line class="k" x1="446.62" y1="352.92" x2="419.97" y2="352.92"/><line class="k" x1="419.97" y1="355.72" x2="446.62" y2="355.72"/><line class="k" x1="446.62" y1="354.32" x2="419.97" y2="354.32"/><line class="k" x1="418.57" y1="355.72" x2="418.57" y2="356.42"/><line class="k" x1="418.57" y1="356.42" x2="415.76" y2="356.42"/><line class="k" x1="415.76" y1="356.42" x2="415.76" y2="353.62"/><line class="k" x1="415.76" y1="353.62" x2="417.17" y2="353.62"/><line class="k" x1="345.63" y1="349.41" x2="345.63" y2="338.89"/><line class="k" x1="345.63" y1="338.89" x2="380.7" y2="338.89"/><line class="k" x1="380.7" y1="338.89" x2="380.7" y2="349.41"/><line class="k" x1="310.91" y1="228.08" x2="418.92" y2="228.08"/><line class="k" x1="418.92" y1="226.32" x2="418.92" y2="228.08"/><line class="k" x1="418.92" y1="175.47" x2="418.92" y2="198.27"/><line class="k" x1="421.37" y1="226.32" x2="421.37" y2="228.08"/><line class="k" x1="421.37" y1="175.47" x2="421.37" y2="198.27"/><line class="k" x1="421.37" y1="226.32" x2="418.92" y2="226.32"/><line class="k" x1="421.37" y1="198.27" x2="418.92" y2="198.27"/><line class="k" x1="421.37" y1="228.08" x2="426.63" y2="228.08"/><line class="k" x1="458.2" y1="228.08" x2="483.45" y2="228.08"/><line class="k" x1="307.4" y1="235.09" x2="426.63" y2="235.09"/><line class="k" x1="458.2" y1="235.09" x2="483.45" y2="235.09"/><line class="k" x1="458.2" y1="228.08" x2="458.2" y2="235.09"/><line class="k" x1="426.63" y1="228.08" x2="426.63" y2="235.09"/><line class="k" x1="310.91" y1="194.76" x2="310.91" y2="228.07"/><line class="k" x1="418.04" y1="176.35" x2="418.04" y2="197.39"/><line class="k" x1="418.04" y1="197.39" x2="397" y2="197.39"/><line class="k" x1="397" y1="197.39" x2="397" y2="176.35"/><line class="k" x1="397" y1="176.35" x2="418.04" y2="176.35"/><g class="m"><path class="k" d="M413.66,186.87a6.14,6.14,0,1,0-6.14,6.14,6.14,6.14,0,0,0,6.14-6.14"/><path class="k" d="M412.61,186.87a5.09,5.09,0,1,0-5.09,5.09,5.08,5.08,0,0,0,5.09-5.09"/><path class="k" d="M317.92,200.9a.88.88,0,1,0-.87.87.87.87,0,0,0,.87-.87"/></g><line class="k" x1="343.35" y1="195.64" x2="343.35" y2="227.2"/><line class="k" x1="343.35" y1="227.2" x2="311.79" y2="227.2"/><line class="k" x1="311.79" y1="227.2" x2="311.79" y2="195.64"/><line class="k" x1="311.79" y1="195.64" x2="343.35" y2="195.64"/><line class="k" x1="341.59" y1="200.9" x2="341.59" y2="221.94"/><line class="k" x1="338.09" y1="225.45" x2="317.05" y2="225.45"/><line class="k" x1="313.54" y1="221.94" x2="313.54" y2="200.9"/><line class="k" x1="317.05" y1="197.39" x2="338.09" y2="197.39"/><g class="m"><path class="k" d="M338.09,197.39a3.5,3.5,0,0,1,3.5,3.51"/><path class="k" d="M341.59,221.94a3.5,3.5,0,0,1-3.5,3.5"/><path class="k" d="M313.54,200.9a3.51,3.51,0,0,1,3.51-3.51"/><path class="k" d="M317.05,225.45a3.51,3.51,0,0,1-3.51-3.51"/></g><line class="k" x1="395.07" y1="180.73" x2="342.47" y2="180.73"/><line class="k" x1="395.07" y1="180.73" x2="395.07" y2="175.47"/><line class="k" x1="358.25" y1="227.2" x2="358.25" y2="223.69"/><line class="k" x1="358.25" y1="223.69" x2="379.29" y2="223.69"/><line class="k" x1="379.29" y1="223.69" x2="379.29" y2="227.2"/><line class="k" x1="379.29" y1="227.2" x2="378.24" y2="227.2"/><line class="k" x1="378.24" y1="227.2" x2="378.24" y2="224.74"/><line class="k" x1="378.24" y1="224.74" x2="359.3" y2="224.74"/><line class="k" x1="359.3" y1="224.74" x2="359.3" y2="227.2"/><line class="k" x1="359.3" y1="227.2" x2="358.25" y2="227.2"/><line class="k" x1="358.25" y1="227.2" x2="358.25" y2="223.69"/><line class="k" x1="379.29" y1="227.2" x2="379.29" y2="223.69"/><line class="k" x1="359.3" y1="227.2" x2="359.3" y2="224.74"/><line class="k" x1="378.24" y1="227.2" x2="378.24" y2="224.74"/><line class="k" x1="358.25" y1="223.69" x2="379.29" y2="223.69"/><line class="k" x1="358.25" y1="224.74" x2="379.29" y2="224.74"/><line class="k" x1="358.25" y1="227.2" x2="359.3" y2="227.2"/><line class="k" x1="378.24" y1="227.2" x2="379.29" y2="227.2"/><line class="k" x1="419.97" y1="235.09" x2="307.4" y2="235.09"/><line class="k" x1="307.4" y1="235.09" x2="307.4" y2="256.48"/><line class="k" x1="307.4" y1="256.48" x2="419.97" y2="256.48"/><line class="k" x1="419.97" y1="256.48" x2="419.97" y2="235.09"/><line class="k" x1="398.93" y1="256.48" x2="398.93" y2="235.44"/><line class="k" x1="406.97" y1="243.48" x2="411.93" y2="248.44"/><line class="k" x1="411.93" y1="243.48" x2="406.97" y2="248.44"/><line class="k" x1="409.45" y1="249.47" x2="409.45" y2="242.45"/><line class="k" x1="405.94" y1="245.96" x2="412.96" y2="245.96"/><line class="k" x1="419.97" y1="235.44" x2="419.97" y2="256.48"/><line class="k" x1="398.93" y1="256.48" x2="419.97" y2="256.48"/><line class="k" x1="308.63" y1="254.73" x2="327.92" y2="254.73"/><line class="k" x1="327.92" y1="254.73" x2="327.92" y2="237.19"/><line class="k" x1="327.92" y1="237.19" x2="308.63" y2="237.19"/><line class="k" x1="308.63" y1="237.19" x2="308.63" y2="254.73"/><line class="k" x1="307.76" y1="256.48" x2="328.8" y2="256.48"/><line class="k" x1="310.39" y1="252.97" x2="326.16" y2="252.97"/><line class="k" x1="326.16" y1="252.97" x2="326.16" y2="240.7"/><line class="k" x1="326.16" y1="240.7" x2="310.39" y2="240.7"/><line class="k" x1="310.39" y1="240.7" x2="310.39" y2="252.97"/><g class="m"><path class="k" d="M319,244.21a.71.71,0,0,0-1.41,0,.71.71,0,0,0,1.41,0"/><path class="k" d="M372.81,242.1a3.16,3.16,0,1,0-3.16,3.16,3.16,3.16,0,0,0,3.16-3.16"/></g><line class="k" x1="364.74" y1="237.19" x2="364.74" y2="256.48"/><line class="k" x1="364.74" y1="256.48" x2="384.03" y2="256.48"/><line class="k" x1="384.03" y1="256.48" x2="384.03" y2="237.19"/><line class="k" x1="384.03" y1="237.19" x2="364.74" y2="237.19"/><g class="m"><path class="k" d="M372.81,251.57a3.16,3.16,0,1,0-3.16,3.16,3.17,3.17,0,0,0,3.16-3.16"/><path class="k" d="M382.27,251.57a3.16,3.16,0,1,0-3.15,3.16,3.16,3.16,0,0,0,3.15-3.16"/></g><line class="k" x1="381.4" y1="257.36" x2="367.37" y2="257.36"/><line class="k" x1="328.79" y1="235.44" x2="328.79" y2="256.48"/><line class="k" x1="328.79" y1="256.48" x2="349.84" y2="256.48"/><line class="k" x1="349.84" y1="256.48" x2="349.84" y2="235.44"/><line class="k" x1="342.47" y1="194.76" x2="342.47" y2="175.47"/><line class="k" x1="342.47" y1="194.76" x2="310.91" y2="194.76"/><line class="k" x1="338.96" y1="175.47" x2="307.4" y2="175.47"/><line class="k" x1="307.4" y1="175.47" x2="307.4" y2="191.25"/><line class="k" x1="307.4" y1="191.25" x2="338.96" y2="191.25"/><line class="k" x1="338.96" y1="191.25" x2="338.96" y2="175.47"/><line class="k" x1="298.85" y1="169.51" x2="298.99" y2="169.51"/><line class="k" x1="456.44" y1="235.09" x2="428.39" y2="235.09"/><line class="k" x1="456.44" y1="235.09" x2="456.44" y2="263.14"/><g class="m"><path class="k" d="M456.44,263.14a28.05,28.05,0,0,1-28.05-28"/></g><line class="k" x1="456.44" y1="228.08" x2="456.44" y2="235.09"/><line class="k" x1="428.39" y1="235.09" x2="428.39" y2="228.08"/><line class="k" x1="428.39" y1="235.09" x2="426.64" y2="235.09"/><line class="k" x1="428.39" y1="228.08" x2="426.64" y2="228.08"/><line class="k" x1="458.2" y1="235.09" x2="456.44" y2="235.09"/><line class="k" x1="458.2" y1="228.08" x2="456.44" y2="228.08"/><line class="k" x1="456.44" y1="228.08" x2="449.43" y2="228.08"/><line class="k" x1="445.57" y1="228.08" x2="444.78" y2="228.08"/><line class="k" x1="440.93" y1="228.08" x2="440.14" y2="228.08"/><line class="k" x1="436.28" y1="228.08" x2="435.4" y2="228.08"/><line class="k" x1="435.4" y1="228.08" x2="428.39" y2="228.08"/><line class="k" x1="456.44" y1="235.09" x2="456.44" y2="235.96"/><line class="k" x1="456.44" y1="235.97" x2="459.95" y2="235.97"/><line class="k" x1="459.95" y1="235.97" x2="459.95" y2="235.09"/><line class="k" x1="456.44" y1="228.08" x2="456.44" y2="227.2"/><line class="k" x1="456.44" y1="227.2" x2="459.95" y2="227.2"/><line class="k" x1="459.95" y1="227.2" x2="459.95" y2="228.07"/><line class="k" x1="428.39" y1="235.97" x2="424.88" y2="235.97"/><line class="k" x1="424.88" y1="235.97" x2="424.88" y2="235.09"/><line class="k" x1="428.39" y1="228.08" x2="428.39" y2="227.2"/><line class="k" x1="428.39" y1="227.2" x2="424.88" y2="227.2"/><line class="k" x1="424.88" y1="227.2" x2="424.88" y2="228.07"/><line class="k" x1="424.88" y1="171.09" x2="456.44" y2="171.09"/><line class="k" x1="424.88" y1="171.09" x2="424.88" y2="202.65"/><g class="m"><path class="k" d="M456.44,171.09a31.56,31.56,0,0,1-31.56,31.56"/></g><line class="k" x1="424.88" y1="167.06" x2="424.88" y2="171.09"/><line class="k" x1="456.44" y1="171.09" x2="456.44" y2="167.06"/><line class="k" x1="456.44" y1="171.09" x2="458.2" y2="171.09"/><line class="k" x1="423.13" y1="171.09" x2="424.88" y2="171.09"/><line class="k" x1="418.92" y1="224.57" x2="418.92" y2="200.02"/><line class="k" x1="418.92" y1="224.57" x2="394.37" y2="224.57"/><g class="m"><path class="k" d="M394.37,224.57A24.55,24.55,0,0,1,418.92,200"/></g><line class="k" x1="421.37" y1="224.57" x2="418.92" y2="224.57"/><line class="k" x1="418.92" y1="200.02" x2="421.37" y2="200.02"/><line class="k" x1="418.92" y1="200.02" x2="418.92" y2="198.27"/><line class="k" x1="421.37" y1="200.02" x2="421.37" y2="198.27"/><line class="k" x1="418.92" y1="226.32" x2="418.92" y2="224.57"/><line class="k" x1="421.37" y1="226.32" x2="421.37" y2="224.57"/><line class="k" x1="421.37" y1="224.57" x2="421.37" y2="217.56"/><line class="k" x1="421.37" y1="213.7" x2="421.37" y2="212.91"/><line class="k" x1="421.37" y1="209.05" x2="421.37" y2="208.26"/><line class="k" x1="421.37" y1="207.03" x2="421.37" y2="200.02"/><line class="k" x1="418.92" y1="224.57" x2="418.04" y2="224.57"/><line class="k" x1="418.04" y1="224.57" x2="418.04" y2="228.07"/><line class="k" x1="418.04" y1="228.08" x2="418.92" y2="228.08"/><line class="k" x1="421.37" y1="224.57" x2="422.25" y2="224.57"/><line class="k" x1="422.25" y1="224.57" x2="422.25" y2="228.07"/><line class="k" x1="422.25" y1="228.08" x2="421.38" y2="228.08"/><line class="k" x1="418.04" y1="200.02" x2="418.04" y2="196.51"/><line class="k" x1="418.04" y1="196.51" x2="418.92" y2="196.51"/><line class="k" x1="421.37" y1="200.02" x2="422.25" y2="200.02"/><line class="k" x1="422.25" y1="200.02" x2="422.25" y2="196.51"/><line class="k" x1="422.25" y1="196.51" x2="421.38" y2="196.51"/><line class="k" x1="411.73" y1="347.66" x2="453.81" y2="347.66"/><line class="k" x1="453.81" y1="347.66" x2="453.81" y2="344.15"/><line class="k" x1="453.81" y1="344.15" x2="411.73" y2="344.15"/><line class="k" x1="411.73" y1="344.15" x2="411.73" y2="347.66"/><g class="m"><path class="k" d="M410,345.9a1.76,1.76,0,1,0-1.76,1.76A1.76,1.76,0,0,0,410,345.9"/></g><line class="k" x1="378.94" y1="363.44" x2="371.93" y2="363.44"/><line class="k" x1="368.07" y1="363.44" x2="367.28" y2="363.44"/><line class="k" x1="363.42" y1="363.44" x2="362.64" y2="363.44"/><line class="k" x1="358.78" y1="363.44" x2="354.4" y2="363.44"/><line class="k" x1="354.39" y1="363.44" x2="347.38" y2="363.44"/><line class="k" x1="484.15" y1="416.04" x2="477.13" y2="416.04"/><line class="k" x1="473.28" y1="416.04" x2="472.49" y2="416.04"/><line class="k" x1="468.63" y1="416.04" x2="467.84" y2="416.04"/><line class="k" x1="463.98" y1="416.04" x2="456.97" y2="416.04"/><line class="k" x1="453.11" y1="416.04" x2="452.32" y2="416.04"/><line class="k" x1="448.46" y1="416.04" x2="447.68" y2="416.04"/><line class="k" x1="443.82" y1="416.04" x2="436.81" y2="416.04"/><line class="k" x1="432.95" y1="416.04" x2="432.16" y2="416.04"/><line class="k" x1="428.3" y1="416.04" x2="427.51" y2="416.04"/><line class="k" x1="423.65" y1="416.04" x2="416.64" y2="416.04"/><line class="k" x1="412.78" y1="416.04" x2="411.99" y2="416.04"/><line class="k" x1="408.14" y1="416.04" x2="407.35" y2="416.04"/><line class="k" x1="403.49" y1="416.04" x2="396.48" y2="416.04"/><line class="k" x1="392.62" y1="416.04" x2="391.83" y2="416.04"/><line class="k" x1="387.97" y1="416.04" x2="387.18" y2="416.04"/><line class="k" x1="383.33" y1="416.04" x2="376.31" y2="416.04"/><line class="k" x1="372.45" y1="416.04" x2="371.67" y2="416.04"/><line class="k" x1="367.81" y1="416.04" x2="367.02" y2="416.04"/><line class="k" x1="363.16" y1="416.04" x2="356.15" y2="416.04"/><line class="k" x1="352.29" y1="416.04" x2="351.5" y2="416.04"/><line class="k" x1="347.64" y1="416.04" x2="346.85" y2="416.04"/><line class="k" x1="343" y1="416.04" x2="335.98" y2="416.04"/><line class="k" x1="332.13" y1="416.04" x2="331.34" y2="416.04"/><line class="k" x1="327.48" y1="416.04" x2="326.69" y2="416.04"/><line class="k" x1="322.83" y1="416.04" x2="315.82" y2="416.04"/><line class="k" x1="311.96" y1="416.04" x2="311.17" y2="416.04"/><line class="k" x1="307.32" y1="416.04" x2="306.53" y2="416.04"/><line class="k" x1="305.87" y1="416.04" x2="303.2" y2="416.04"/><rect class="h" x="414.19" y="293.3" width="17.53" height="28.05"/><line class="k" x1="414.19" y1="321.36" x2="431.72" y2="321.36"/><line class="k" x1="414.19" y1="293.3" x2="414.19" y2="321.36"/><line class="k" x1="431.72" y1="293.3" x2="414.19" y2="293.3"/><line class="k" x1="431.72" y1="321.36" x2="431.72" y2="293.3"/><rect class="h" x="377.82" y="287.62" width="10.52" height="41.28"/><line class="k" x1="377.82" y1="328.9" x2="388.34" y2="328.9"/><line class="k" x1="377.82" y1="287.62" x2="377.82" y2="328.9"/><line class="k" x1="388.34" y1="287.62" x2="377.82" y2="287.62"/><line class="k" x1="388.34" y1="328.9" x2="388.34" y2="287.62"/><rect class="h" x="342.47" y="175.47" width="52.6" height="5.26"/><line class="k" x1="342.47" y1="180.73" x2="395.07" y2="180.73"/><line class="k" x1="342.47" y1="175.47" x2="342.47" y2="180.73"/><line class="k" x1="395.07" y1="175.47" x2="342.47" y2="175.47"/><line class="k" x1="395.07" y1="180.73" x2="395.07" y2="175.47"/><rect class="h" x="378.24" y="224.74" width="1.05" height="2.45"/><line class="k" x1="379.29" y1="227.2" x2="379.29" y2="224.74"/><line class="k" x1="378.24" y1="227.2" x2="379.29" y2="227.2"/><line class="k" x1="378.24" y1="224.74" x2="378.24" y2="227.2"/><line class="k" x1="379.29" y1="224.74" x2="378.24" y2="224.74"/><rect class="h" x="358.25" y="223.69" width="21.04" height="1.05"/><line class="k" x1="358.25" y1="224.74" x2="379.29" y2="224.74"/><line class="k" x1="358.25" y1="223.69" x2="358.25" y2="224.74"/><line class="k" x1="379.29" y1="223.69" x2="358.25" y2="223.69"/><line class="k" x1="379.29" y1="224.74" x2="379.29" y2="223.69"/><rect class="h" x="358.25" y="224.74" width="1.05" height="2.45"/><line class="k" x1="359.3" y1="227.2" x2="359.3" y2="224.74"/><line class="k" x1="358.25" y1="227.2" x2="359.3" y2="227.2"/><line class="k" x1="358.25" y1="224.74" x2="358.25" y2="227.2"/><line class="k" x1="359.3" y1="224.74" x2="358.25" y2="224.74"/><polygon class="n" points="409.98 345.9 409.47 347.14 408.23 347.66 406.99 347.14 406.47 345.9 406.99 344.67 408.23 344.15 409.47 344.67 409.98 345.9"/><g class="m"><path class="k" d="M410,345.9a1.76,1.76,0,1,1-3.51,0"/><path class="k" d="M406.47,345.9a1.76,1.76,0,0,1,3.51,0"/></g><rect class="h" x="411.73" y="344.15" width="42.08" height="3.51"/><line class="k" x1="411.73" y1="344.15" x2="411.73" y2="347.66"/><line class="k" x1="453.81" y1="344.15" x2="411.73" y2="344.15"/><line class="k" x1="453.81" y1="347.66" x2="453.81" y2="344.15"/><line class="k" x1="411.73" y1="347.66" x2="453.81" y2="347.66"/><rect class="h" x="307.4" y="294.23" width="28.05" height="28.05"/><polygon class="n" points="335.46 301.25 335.46 315.27 344.93 315.27 346.68 314.81 347.96 313.52 348.43 311.77 348.43 304.75 347.96 303 346.68 301.72 344.93 301.25 335.46 301.25"/><polygon class="n" points="314.42 294.23 328.44 294.23 328.44 284.77 327.97 283.01 326.69 281.73 324.94 281.26 317.92 281.26 316.17 281.73 314.89 283.01 314.42 284.77 314.42 294.23"/><polygon class="n" points="314.42 322.29 314.42 331.76 314.89 333.51 316.17 334.79 317.92 335.26 324.94 335.26 326.69 334.79 327.97 333.51 328.44 331.76 328.44 322.29 314.42 322.29"/><line class="k" x1="346.68" y1="304.75" x2="346.68" y2="311.77"/><line class="k" x1="344.93" y1="315.27" x2="335.46" y2="315.27"/><line class="k" x1="348.43" y1="304.75" x2="348.43" y2="311.77"/><line class="k" x1="335.46" y1="301.25" x2="344.93" y2="301.25"/><g class="m"><path class="k" d="M346.68,311.77a1.75,1.75,0,0,1-1.75,1.75"/><path class="k" d="M344.93,303a1.76,1.76,0,0,1,1.75,1.75"/><path class="k" d="M348.43,311.77a3.5,3.5,0,0,1-3.5,3.5"/><path class="k" d="M344.93,301.25a3.5,3.5,0,0,1,3.5,3.5"/></g><line class="k" x1="317.92" y1="283.01" x2="324.94" y2="283.01"/><line class="k" x1="328.44" y1="284.77" x2="328.44" y2="294.23"/><line class="k" x1="317.92" y1="281.26" x2="324.94" y2="281.26"/><line class="k" x1="314.42" y1="294.23" x2="314.42" y2="284.77"/><g class="m"><path class="k" d="M324.94,283a1.75,1.75,0,0,1,1.75,1.76"/><path class="k" d="M316.17,284.77a1.76,1.76,0,0,1,1.75-1.76"/><path class="k" d="M324.94,281.26a3.5,3.5,0,0,1,3.5,3.51"/><path class="k" d="M314.42,284.77a3.51,3.51,0,0,1,3.5-3.51"/></g><line class="k" x1="317.92" y1="333.51" x2="324.94" y2="333.51"/><line class="k" x1="328.44" y1="331.76" x2="328.44" y2="322.29"/><line class="k" x1="317.92" y1="335.26" x2="324.94" y2="335.26"/><line class="k" x1="314.42" y1="322.29" x2="314.42" y2="331.76"/><g class="m"><path class="k" d="M326.69,331.76a1.76,1.76,0,0,1-1.75,1.75"/><path class="k" d="M317.92,333.51a1.76,1.76,0,0,1-1.75-1.75"/><path class="k" d="M328.44,331.76a3.5,3.5,0,0,1-3.5,3.5"/><path class="k" d="M317.92,335.26a3.5,3.5,0,0,1-3.5-3.5"/></g><line class="k" x1="307.4" y1="294.23" x2="307.4" y2="322.29"/><line class="k" x1="307.4" y1="294.23" x2="335.46" y2="294.23"/><line class="k" x1="335.46" y1="294.23" x2="335.46" y2="322.29"/><line class="k" x1="335.46" y1="322.29" x2="307.4" y2="322.29"/><polygon class="n" points="362.99 180.73 350.01 180.73 350.01 192.31 350.28 194.04 351.07 195.61 352.29 196.87 354.28 197.91 356.5 198.27 358.72 197.91 360.71 196.87 361.93 195.61 362.72 194.04 362.99 192.31 362.99 180.73"/><line class="k" x1="350.01" y1="180.73" x2="350.01" y2="192.31"/><line class="k" x1="350.01" y1="180.73" x2="362.99" y2="180.73"/><line class="k" x1="362.99" y1="180.73" x2="362.99" y2="192.31"/><line class="k" x1="352.12" y1="184.94" x2="352.12" y2="192.31"/><line class="k" x1="360.88" y1="184.94" x2="360.88" y2="192.31"/><line class="k" x1="360.88" y1="184.94" x2="352.12" y2="184.94"/><g class="m"><path class="k" d="M352.29,196.87a5.73,5.73,0,0,1-2.28-4.56"/><path class="k" d="M363,192.31a5.73,5.73,0,0,1-2.28,4.56"/><path class="k" d="M360.71,196.87a7,7,0,0,1-8.42,0"/><path class="k" d="M363,192.31a5.73,5.73,0,0,1-2.28,4.56"/><path class="k" d="M360.71,196.87a7,7,0,0,1-4.21,1.4"/><path class="k" d="M360.88,192.31a3.58,3.58,0,0,1-1.44,2.87"/><path class="k" d="M359.44,195.18a4.86,4.86,0,0,1-2.94,1,4.93,4.93,0,0,1-2.95-1"/><path class="k" d="M353.55,195.18a3.6,3.6,0,0,1-1.44-2.87"/></g><rect class="h" x="462.4" y="175.47" width="21.04" height="52.6"/><line class="k" x1="462.4" y1="228.08" x2="462.4" y2="175.47"/><line class="k" x1="462.4" y1="175.47" x2="483.45" y2="175.47"/><line class="k" x1="483.45" y1="175.47" x2="483.45" y2="228.08"/><line class="k" x1="483.45" y1="228.08" x2="462.4" y2="228.08"/><line class="k" x1="472.92" y1="225.45" x2="472.92" y2="178.1"/><line class="k" x1="466.73" y1="223" x2="479.34" y2="218.55"/><line class="k" x1="466.11" y1="217.99" x2="477.83" y2="216.15"/><line class="k" x1="480.51" y1="211.14" x2="467.64" y2="209.63"/><line class="k" x1="478.82" y1="203.38" x2="467.64" y2="205.43"/><line class="k" x1="479.46" y1="200.55" x2="465.69" y2="200.55"/><line class="k" x1="479.53" y1="192.56" x2="465.91" y2="194.46"/><line class="k" x1="479.3" y1="189.56" x2="466.86" y2="189.56"/><line class="k" x1="479.42" y1="181.68" x2="466.67" y2="180.16"/><line class="k" x1="478.56" y1="183.57" x2="467.78" y2="185.11"/><polygon class="n" points="384.67 303.24 386.07 304.97 386.82 307.14 386.82 309.46 386.07 311.63 384.67 313.37 384.67 324.3 382.72 324.3 380.77 316.3 380.77 313.97 379.71 310.25 379.71 306.35 380.77 302.64 380.77 300.31 382.72 292.31 384.67 292.31 384.67 303.24"/><line class="k" x1="384.67" y1="303.24" x2="386.07" y2="304.97"/><line class="k" x1="386.07" y1="304.97" x2="386.82" y2="307.14"/><line class="k" x1="386.82" y1="307.14" x2="386.82" y2="309.46"/><line class="k" x1="386.82" y1="309.46" x2="386.07" y2="311.63"/><line class="k" x1="386.07" y1="311.63" x2="384.66" y2="313.37"/><line class="k" x1="384.67" y1="313.37" x2="384.67" y2="324.29"/><line class="k" x1="384.67" y1="324.29" x2="382.72" y2="324.29"/><line class="k" x1="382.72" y1="324.29" x2="380.77" y2="316.3"/><line class="k" x1="380.77" y1="316.3" x2="380.77" y2="313.97"/><line class="k" x1="380.77" y1="313.97" x2="379.71" y2="310.25"/><line class="k" x1="379.71" y1="310.25" x2="379.71" y2="306.35"/><line class="k" x1="379.71" y1="306.35" x2="380.77" y2="302.64"/><line class="k" x1="380.77" y1="302.64" x2="380.77" y2="300.31"/><line class="k" x1="380.77" y1="300.31" x2="382.72" y2="292.31"/><line class="k" x1="382.72" y1="292.31" x2="384.66" y2="292.31"/><line class="k" x1="384.67" y1="292.31" x2="384.67" y2="303.24"/><line class="k" x1="384.67" y1="292.31" x2="384.67" y2="324.29"/><line class="k" x1="380.77" y1="316.3" x2="380.77" y2="300.31"/><line class="k" x1="382.72" y1="292.31" x2="384.66" y2="292.31"/><line class="k" x1="383.89" y1="322.16" x2="383.89" y2="320.03"/><line class="k" x1="383.89" y1="320.03" x2="383.4" y2="320.03"/><line class="k" x1="383.4" y1="320.03" x2="383.4" y2="322.16"/><line class="k" x1="383.4" y1="322.16" x2="383.89" y2="322.16"/><line class="k" x1="383.89" y1="319.5" x2="383.89" y2="317.36"/><line class="k" x1="383.89" y1="317.36" x2="383.4" y2="317.36"/><line class="k" x1="383.4" y1="317.36" x2="383.4" y2="319.5"/><line class="k" x1="383.4" y1="319.5" x2="383.89" y2="319.5"/><line class="k" x1="382.72" y1="292.31" x2="382.72" y2="324.29"/><line class="k" x1="383.4" y1="316.83" x2="383.89" y2="316.83"/><line class="k" x1="383.89" y1="316.83" x2="383.89" y2="315.77"/><line class="k" x1="383.89" y1="315.77" x2="383.4" y2="315.77"/><line class="k" x1="383.4" y1="315.77" x2="383.4" y2="316.83"/><g class="m"><path class="k" d="M384.67,303.24a6.83,6.83,0,0,1,0,10.13"/></g><polygon class="n" points="388.41 180.73 370.18 180.73 369.8 180.89 369.65 181.26 369.65 195.64 369.8 196.01 370.18 196.16 388.41 196.16 388.78 196.01 388.94 195.64 388.94 181.26 388.78 180.89 388.41 180.73"/><g class="m"><path class="k" d="M388.41,180.73a.53.53,0,0,1,.53.53"/></g><line class="k" x1="388.94" y1="195.64" x2="388.94" y2="181.26"/><g class="m"><path class="k" d="M388.94,195.64a.52.52,0,0,1-.53.52"/></g><line class="k" x1="370.18" y1="196.16" x2="388.41" y2="196.16"/><g class="m"><path class="k" d="M370.18,196.16a.52.52,0,0,1-.53-.52"/></g><line class="k" x1="369.65" y1="181.26" x2="369.65" y2="195.64"/><g class="m"><path class="k" d="M369.65,181.26a.53.53,0,0,1,.53-.53"/></g><line class="k" x1="388.41" y1="180.73" x2="370.18" y2="180.73"/><line class="k" x1="387.36" y1="184.59" x2="371.23" y2="184.59"/><line class="k" x1="370.7" y1="185.12" x2="370.7" y2="194.59"/><line class="k" x1="371.23" y1="195.11" x2="387.36" y2="195.11"/><line class="k" x1="387.88" y1="194.59" x2="387.88" y2="185.12"/><g class="m"><path class="k" d="M370.7,185.12a.53.53,0,0,1,.53-.53"/><path class="k" d="M371.23,195.11a.52.52,0,0,1-.53-.52"/><path class="k" d="M387.88,194.59a.52.52,0,0,1-.52.52"/><path class="k" d="M387.36,184.59a.52.52,0,0,1,.52.53"/></g><polygon class="n" points="380.17 182.84 380.03 184.31 379.92 184.64 379.68 186.5 379.55 186.75 379.29 186.84 379.03 186.75 378.9 186.5 378.67 184.64 378.56 184.31 378.42 182.84 378.68 182.22 379.29 181.96 379.91 182.22 380.17 182.84"/><line class="k" x1="380.17" y1="182.84" x2="380.03" y2="184.31"/><g class="m"><path class="k" d="M380,184.31a.76.76,0,0,1-.11.33"/></g><line class="k" x1="379.92" y1="184.64" x2="379.68" y2="186.5"/><g class="m"><path class="k" d="M379.68,186.5a.39.39,0,0,1-.39.34.41.41,0,0,1-.39-.34"/></g><line class="k" x1="378.9" y1="186.5" x2="378.67" y2="184.64"/><g class="m"><path class="k" d="M378.67,184.64a.76.76,0,0,1-.11-.33"/></g><line class="k" x1="378.56" y1="184.31" x2="378.42" y2="182.84"/><g class="m"><path class="k" d="M378.42,182.84a.88.88,0,1,1,1.75,0"/></g><line class="k" x1="378.82" y1="183.71" x2="378.82" y2="184.23"/><line class="k" x1="379.77" y1="184.23" x2="379.77" y2="183.71"/><line class="k" x1="379.77" y1="183.71" x2="378.82" y2="183.71"/><g class="m"><path class="k" d="M379.77,184.23a.48.48,0,1,1-.95,0"/><path class="k" d="M379.92,184.64a.74.74,0,0,1-1.25,0"/></g><polygon class="n" points="480.71 338.19 480.71 276.47 480.51 275.97 480.01 275.77 454.39 275.77 452.63 276.24 451.35 277.52 450.88 279.27 450.88 280.33 451.08 280.82 451.58 281.03 451.12 281.19 450.85 281.59 450.88 282.08 450.88 306.28 451.19 307.02 451.93 307.33 451.19 307.64 450.88 308.38 450.88 332.58 451.07 333.21 451.58 333.63 451.08 333.84 450.88 334.33 450.88 335.38 451.35 337.13 452.63 338.42 454.39 338.89 480.01 338.89 480.51 338.69 480.71 338.19"/><line class="k" x1="480.51" y1="338.69" x2="480.71" y2="338.19"/><line class="k" x1="480.01" y1="338.89" x2="480.51" y2="338.69"/><line class="k" x1="454.39" y1="338.89" x2="480.01" y2="338.89"/><line class="k" x1="452.63" y1="338.42" x2="454.39" y2="338.89"/><line class="k" x1="451.35" y1="337.14" x2="452.63" y2="338.42"/><line class="k" x1="450.88" y1="335.38" x2="451.35" y2="337.14"/><line class="k" x1="450.88" y1="334.33" x2="450.88" y2="335.38"/><line class="k" x1="451.08" y1="333.84" x2="450.88" y2="334.33"/><line class="k" x1="451.58" y1="333.63" x2="451.09" y2="333.84"/><line class="k" x1="451.07" y1="333.21" x2="451.58" y2="333.63"/><line class="k" x1="450.88" y1="332.58" x2="451.07" y2="333.21"/><line class="k" x1="450.88" y1="308.38" x2="450.88" y2="332.58"/><line class="k" x1="451.19" y1="307.64" x2="450.88" y2="308.38"/><line class="k" x1="451.93" y1="307.33" x2="451.19" y2="307.64"/><line class="k" x1="451.19" y1="307.02" x2="451.93" y2="307.33"/><line class="k" x1="450.88" y1="306.28" x2="451.19" y2="307.02"/><line class="k" x1="450.88" y1="282.08" x2="450.88" y2="306.28"/><line class="k" x1="450.85" y1="281.59" x2="450.88" y2="282.08"/><line class="k" x1="451.12" y1="281.18" x2="450.85" y2="281.59"/><line class="k" x1="451.58" y1="281.03" x2="451.12" y2="281.18"/><line class="k" x1="451.08" y1="280.82" x2="451.58" y2="281.03"/><line class="k" x1="450.88" y1="280.33" x2="451.08" y2="280.82"/><line class="k" x1="450.88" y1="279.27" x2="450.88" y2="280.33"/><line class="k" x1="451.35" y1="277.52" x2="450.88" y2="279.27"/><line class="k" x1="452.63" y1="276.24" x2="451.35" y2="277.52"/><line class="k" x1="454.39" y1="275.77" x2="452.63" y2="276.24"/><line class="k" x1="480.01" y1="275.77" x2="454.39" y2="275.77"/><line class="k" x1="480.51" y1="275.97" x2="480.01" y2="275.77"/><line class="k" x1="480.71" y1="276.47" x2="480.51" y2="275.97"/><line class="k" x1="480.71" y1="338.19" x2="480.71" y2="276.47"/><line class="k" x1="450.88" y1="280.33" x2="450.88" y2="279.27"/><line class="k" x1="454.39" y1="275.77" x2="480.01" y2="275.77"/><line class="k" x1="480.71" y1="276.47" x2="480.71" y2="280.33"/><line class="k" x1="480.01" y1="281.03" x2="451.58" y2="281.03"/><line class="k" x1="480.71" y1="280.33" x2="480.71" y2="307.33"/><line class="k" x1="480.71" y1="307.33" x2="478.26" y2="307.33"/><line class="k" x1="450.88" y1="306.28" x2="450.88" y2="282.08"/><line class="k" x1="451.93" y1="281.03" x2="469.53" y2="281.03"/><line class="k" x1="469.53" y1="307.33" x2="451.93" y2="307.33"/><line class="k" x1="479.31" y1="306.28" x2="479.31" y2="282.08"/><line class="k" x1="421.44" y1="281.03" x2="421.44" y2="286.29"/><line class="k" x1="421.44" y1="289.79" x2="421.44" y2="295.05"/><line class="k" x1="421.44" y1="298.56" x2="421.44" y2="303.82"/><line class="k" x1="421.44" y1="307.33" x2="421.44" y2="312.59"/><line class="k" x1="421.44" y1="316.1" x2="421.44" y2="321.36"/><line class="k" x1="421.44" y1="324.86" x2="421.44" y2="328.37"/><line class="k" x1="421.44" y1="328.37" x2="421.44" y2="333.63"/><line class="k" x1="450.88" y1="334.33" x2="450.88" y2="335.38"/><line class="k" x1="454.39" y1="338.89" x2="480.01" y2="338.89"/><line class="k" x1="480.71" y1="338.19" x2="480.71" y2="334.33"/><line class="k" x1="480.01" y1="333.63" x2="451.58" y2="333.63"/><line class="k" x1="480.71" y1="334.33" x2="480.71" y2="307.33"/><line class="k" x1="480.71" y1="307.33" x2="478.26" y2="307.33"/><line class="k" x1="450.88" y1="308.38" x2="450.88" y2="332.58"/><line class="k" x1="451.93" y1="333.63" x2="469.53" y2="333.63"/><line class="k" x1="478.26" y1="307.33" x2="451.93" y2="307.33"/><line class="k" x1="479.31" y1="308.38" x2="479.31" y2="332.58"/><line class="k" x1="451.93" y1="281.03" x2="446.67" y2="281.03"/><line class="k" x1="443.17" y1="281.03" x2="437.91" y2="281.03"/><line class="k" x1="434.4" y1="281.03" x2="429.14" y2="281.03"/><line class="k" x1="426.7" y1="281.03" x2="421.44" y2="281.03"/><line class="k" x1="451.93" y1="333.63" x2="446.67" y2="333.63"/><line class="k" x1="443.17" y1="333.63" x2="437.91" y2="333.63"/><line class="k" x1="434.4" y1="333.63" x2="429.14" y2="333.63"/><line class="k" x1="426.7" y1="333.63" x2="421.44" y2="333.63"/><g class="m"><path class="k" d="M480,275.77a.7.7,0,0,1,.7.7"/><path class="k" d="M480.71,280.33a.7.7,0,0,1-.7.7"/><path class="k" d="M451.58,281a.71.71,0,0,1-.7-.7"/><path class="k" d="M450.88,282.08a1,1,0,0,1,1.05-1.05"/><path class="k" d="M451.93,307.33a1,1,0,0,1-1.05-1.05"/><path class="k" d="M480.71,338.19a.7.7,0,0,1-.7.7"/><path class="k" d="M480,333.63a.7.7,0,0,1,.7.7"/><path class="k" d="M450.88,334.33a.7.7,0,0,1,.7-.7"/><path class="k" d="M451.93,333.63a1,1,0,0,1-1.05-1.05"/><path class="k" d="M450.88,308.38a1,1,0,0,1,1.05-1.05"/><path class="k" d="M475.51,306.17a96.7,96.7,0,0,1,0-24.2"/><path class="k" d="M475.51,332.47a100.65,100.65,0,0,1,0-24.2"/><path class="k" d="M450.88,279.27a3.51,3.51,0,0,1,3.51-3.5"/><path class="k" d="M454.39,338.89a3.51,3.51,0,0,1-3.51-3.51"/></g><line class="k" x1="459.95" y1="175.47" x2="452.94" y2="175.47"/><line class="k" x1="449.08" y1="175.47" x2="448.29" y2="175.47"/><line class="k" x1="444.43" y1="175.47" x2="443.64" y2="175.47"/><line class="k" x1="439.79" y1="175.47" x2="432.77" y2="175.47"/><line class="k" x1="428.91" y1="175.47" x2="428.39" y2="175.47"/><line class="k" x1="428.39" y1="175.47" x2="421.38" y2="175.47"/><line class="k" x1="341.34" y1="247.71" x2="341.34" y2="241.82"/><line class="k" x1="341.34" y1="241.82" x2="338.95" y2="243.75"/><line class="k" x1="338.95" y1="243.75" x2="336.56" y2="241.82"/><line class="k" x1="336.56" y1="241.82" x2="336.56" y2="247.71"/><line class="k" x1="298.85" y1="167.06" x2="298.85" y2="363.44"/><line class="k" x1="298.85" y1="363.44" x2="303.2" y2="363.44"/><line class="k" x1="303.2" y1="363.44" x2="303.2" y2="451.07"/><line class="k" x1="303.2" y1="451.07" x2="487.52" y2="451.07"/><line class="k" x1="487.52" y1="451.07" x2="487.52" y2="363.44"/><line class="k" x1="487.52" y1="363.44" x2="491.73" y2="363.44"/><line class="k" x1="491.73" y1="363.44" x2="491.73" y2="167.06"/><line class="k" x1="491.73" y1="167.06" x2="298.85" y2="167.06"/><path class="o" d="M397,387.35v7h-.72V388h-1.65v-.64Z"/><path class="o" d="M398.63,393.85a.53.53,0,0,1,.53-.54.54.54,0,0,1,.54.54.55.55,0,0,1-.54.55A.54.54,0,0,1,398.63,393.85Z"/><path class="o" d="M400.64,390.85c0-2.23,1.17-3.56,2.79-3.56s2.8,1.33,2.8,3.56-1.18,3.56-2.8,3.56S400.64,393.08,400.64,390.85Zm4.85,0c0-1.87-.84-2.9-2.06-2.9s-2.06,1-2.06,2.9.84,2.9,2.06,2.9S405.49,392.72,405.49,390.85Z"/><path class="o" d="M413.21,392.51h-1.4v1.84h-.72v-1.84h-3.95V392l3.71-4.64h.8l-3.58,4.52h3v-1.62h.7v1.62h1.4Z"/><path class="o" d="M363.85,206.26v7h-.72V206.9h-1.65v-.64Z"/><path class="o" d="M365.53,212.76a.53.53,0,0,1,.53-.54.54.54,0,0,1,.54.54.55.55,0,0,1-.54.55A.54.54,0,0,1,365.53,212.76Z"/><path class="o" d="M367.54,209.76c0-2.23,1.17-3.56,2.79-3.56s2.8,1.33,2.8,3.56-1.18,3.56-2.8,3.56S367.54,212,367.54,209.76Zm4.85,0c0-1.87-.84-2.9-2.06-2.9s-2.06,1-2.06,2.9.84,2.9,2.06,2.9S372.39,211.63,372.39,209.76Z"/><path class="o" d="M378.7,211.25c0,1.17-.85,2.07-2.54,2.07a3.64,3.64,0,0,1-2.52-.9l.35-.57a3.07,3.07,0,0,0,2.17.81c1.16,0,1.8-.54,1.8-1.41s-.59-1.39-1.89-1.39h-.5v-.53l1.94-2.43h-3.58v-.64h4.5v.51l-2,2.49C378,209.34,378.7,210.13,378.7,211.25Z"/><path class="o" d="M397,271v7h-.72V271.6h-1.65V271Z"/><path class="o" d="M398.63,277.46a.53.53,0,0,1,.53-.54.54.54,0,0,1,.54.54.55.55,0,0,1-.54.55A.54.54,0,0,1,398.63,277.46Z"/><path class="o" d="M400.64,274.46c0-2.23,1.17-3.56,2.79-3.56s2.8,1.33,2.8,3.56-1.18,3.56-2.8,3.56S400.64,276.69,400.64,274.46Zm4.85,0c0-1.87-.84-2.9-2.06-2.9s-2.06,1-2.06,2.9.84,2.9,2.06,2.9S405.49,276.33,405.49,274.46Z"/><path class="o" d="M412,277.32V278h-4.91v-.51L410,274.6c.79-.78.94-1.25.94-1.73,0-.81-.57-1.31-1.64-1.31a2.38,2.38,0,0,0-1.91.78l-.51-.44a3.15,3.15,0,0,1,2.48-1c1.42,0,2.32.72,2.32,1.89a2.88,2.88,0,0,1-1.15,2.19l-2.38,2.34Z"/><path class="o" d="M436.64,206.26v7h-.72V206.9h-1.64v-.64Z"/><path class="o" d="M438.32,212.76a.53.53,0,0,1,.53-.54.54.54,0,0,1,.54.54.55.55,0,0,1-.54.55A.54.54,0,0,1,438.32,212.76Z"/><path class="o" d="M440.33,209.76c0-2.23,1.17-3.56,2.79-3.56s2.8,1.33,2.8,3.56-1.18,3.56-2.8,3.56S440.33,212,440.33,209.76Zm4.85,0c0-1.87-.84-2.9-2.06-2.9s-2.06,1-2.06,2.9.84,2.9,2.06,2.9S445.18,211.63,445.18,209.76Z"/><path class="o" d="M448.88,206.26v7h-.72V206.9h-1.65v-.64Z"/></svg>