<svg xmlns="http://www.w3.org/2000/svg" xmlns:xlink="http://www.w3.org/1999/xlink" viewBox="0 0 790.58 618.13"><defs><style>.a,.f{fill:none;}.b{fill:#595a5c;}.c{fill:#b6906c;}.d{fill:#fff;}.e{fill:#231f20;}.f{stroke:#000;stroke-linecap:round;stroke-linejoin:round;stroke-width:0.34px;}.g{clip-path:url(#a);}.h{fill:#58595b;}</style><clipPath id="a"><polygon class="a" points="295.05 5.72 295.05 92.15 293.19 92.15 293.19 340.69 293.19 525.98 293.19 612.4 403.36 612.4 403.36 525.98 407.36 525.98 407.36 512.15 407.36 340.69 497.39 340.69 497.39 202.77 497.39 92.15 493.25 92.15 493.25 5.72 295.05 5.72"/></clipPath></defs><path class="b" d="M55.31,597.13H57.1V609.9H55.31Zm.92,6.11h4.09a1.89,1.89,0,0,0,1-.27,1.82,1.82,0,0,0,.68-.77,2.67,2.67,0,0,0,.24-1.16,2.7,2.7,0,0,0-.24-1.16,1.82,1.82,0,0,0-1.7-1H56.23v-1.7h4a4.09,4.09,0,0,1,2,.48A3.45,3.45,0,0,1,63.62,599a4.64,4.64,0,0,1,0,4.11,3.34,3.34,0,0,1-1.35,1.36,4,4,0,0,1-2,.49h-4Z"/><path class="b" d="M67.7,606.33a2.07,2.07,0,0,0,.49,1.48,1.76,1.76,0,0,0,1.37.52,1.89,1.89,0,0,0,1.37-.46,1.79,1.79,0,0,0,.48-1.33l.12,1.91A2.58,2.58,0,0,1,69.06,610a2.89,2.89,0,0,1-2.33-1,4.08,4.08,0,0,1-.82-2.73v-5.55H67.7Zm.22-7.86a1.93,1.93,0,0,1-.56-1.5,2.07,2.07,0,0,1,.56-1.57,2.56,2.56,0,0,1,3.18,0,2.08,2.08,0,0,1,.57,1.56,1.94,1.94,0,0,1-.57,1.5,2.65,2.65,0,0,1-3.18,0Zm2.26-.86a.94.94,0,0,0,.24-.68,1,1,0,0,0-.24-.7.91.91,0,0,0-.67-.25.92.92,0,0,0-.67.25,1,1,0,0,0-.23.7,1,1,0,0,0,.23.68.92.92,0,0,0,.67.24A.9.9,0,0,0,70.18,597.61Zm1.23,3.17h1.78v9.12H71.41Z"/><path class="b" d="M77.1,609.63A2.82,2.82,0,0,1,76,608.36a5.08,5.08,0,0,1-.36-2v-2a5.05,5.05,0,0,1,.36-2,2.71,2.71,0,0,1,1-1.27,3,3,0,0,1,1.65-.44,2.71,2.71,0,0,1,1.48.42,3.22,3.22,0,0,1,1.09,1.19l-.18,1.86a2.19,2.19,0,0,0-.22-1,1.48,1.48,0,0,0-.61-.63,2,2,0,0,0-1-.21,1.71,1.71,0,0,0-1.37.55,2.26,2.26,0,0,0-.49,1.56v2a2.19,2.19,0,0,0,.49,1.54,1.74,1.74,0,0,0,1.37.54,1.93,1.93,0,0,0,1-.23,1.45,1.45,0,0,0,.61-.64,2.25,2.25,0,0,0,.22-1l.12,1.92a2.66,2.66,0,0,1-.89,1.14,2.56,2.56,0,0,1-1.53.45A3.19,3.19,0,0,1,77.1,609.63Zm4-12.5H82.9V609.9H81.11Z"/><path class="b" d="M87.09,609.57a3.09,3.09,0,0,1-1.29-1.36,4.85,4.85,0,0,1-.44-2.15v-1.48a4.71,4.71,0,0,1,.44-2.12,3.12,3.12,0,0,1,1.29-1.35,4.71,4.71,0,0,1,4.06,0,3.12,3.12,0,0,1,1.29,1.35,4.71,4.71,0,0,1,.44,2.12v1.51a4.79,4.79,0,0,1-.44,2.13,3.12,3.12,0,0,1-1.29,1.35,4.62,4.62,0,0,1-4.06,0Zm3.49-1.83a2.43,2.43,0,0,0,.51-1.65v-1.51a2.43,2.43,0,0,0-.51-1.65,1.88,1.88,0,0,0-1.46-.58,1.85,1.85,0,0,0-1.45.58,2.38,2.38,0,0,0-.52,1.65v1.51a2.38,2.38,0,0,0,.52,1.65,1.82,1.82,0,0,0,1.45.59A1.85,1.85,0,0,0,90.58,607.74Z"/><path class="b" d="M95.43,600.78h1.79v9.12H95.43Zm4.42,1.72a2.16,2.16,0,0,0-.83-.15,1.83,1.83,0,0,0-1.33.47,1.79,1.79,0,0,0-.47,1.31L97,602.37a3.32,3.32,0,0,1,1.09-1.27,2.58,2.58,0,0,1,1.48-.45,3.39,3.39,0,0,1,1.13.18,2.62,2.62,0,0,1,.88.53l-1.17,1.58A1.56,1.56,0,0,0,99.85,602.5Z"/><path class="b" d="M102.15,600.78H104l2.81,7.93-1,1.94Zm8.07,0L106.34,612a2.6,2.6,0,0,1-.56,1,1.87,1.87,0,0,1-.84.52,4,4,0,0,1-1.23.16h-.36V612h.36a1.46,1.46,0,0,0,.8-.2,1.74,1.74,0,0,0,.51-.7l3.38-10.31Z"/><path class="b" d="M113.51,609.88a5.76,5.76,0,0,1-1.32-.48,4.89,4.89,0,0,1-1.13-.79l1.06-1.31a5.86,5.86,0,0,0,1.47.85,4.18,4.18,0,0,0,1.44.28,3.11,3.11,0,0,0,1.6-.33,1.1,1.1,0,0,0,.53-1,.79.79,0,0,0-.29-.66,1.66,1.66,0,0,0-.72-.29c-.29,0-.69-.1-1.22-.14h-.15l-.14,0h-.15a6.45,6.45,0,0,1-1.5-.26,2,2,0,0,1-1-.7,2.38,2.38,0,0,1-.41-1.49,3.07,3.07,0,0,1,.39-1.61,2.41,2.41,0,0,1,1.18-1,5.29,5.29,0,0,1,2-.32,6.38,6.38,0,0,1,2.6.52,6.16,6.16,0,0,1,1.13.66l-1.08,1.31a5.59,5.59,0,0,0-1.35-.66,4,4,0,0,0-1.3-.22,2.44,2.44,0,0,0-1.37.31,1.08,1.08,0,0,0-.46.94.64.64,0,0,0,.26.55,1.72,1.72,0,0,0,.66.25c.26,0,.64.07,1.12.1h.34a7.67,7.67,0,0,1,1.63.25,2.24,2.24,0,0,1,1.13.77,2.62,2.62,0,0,1,.45,1.65,2.92,2.92,0,0,1-.42,1.63,2.54,2.54,0,0,1-1.27,1A5.88,5.88,0,0,1,115,610,7.38,7.38,0,0,1,113.51,609.88Z"/><path class="b" d="M126,597.13h1.8V609.9H126Zm2.6,12.5a2.39,2.39,0,0,1-.93-1.16l.13-1.91a2.22,2.22,0,0,0,.21,1,1.48,1.48,0,0,0,.61.63,1.93,1.93,0,0,0,1,.22,1.74,1.74,0,0,0,1.37-.54,2.18,2.18,0,0,0,.49-1.53v-2a2.26,2.26,0,0,0-.49-1.56,1.71,1.71,0,0,0-1.37-.55,2,2,0,0,0-1,.21,1.36,1.36,0,0,0-.61.62,2.12,2.12,0,0,0-.21,1l-.19-1.76a3.37,3.37,0,0,1,1.08-1.24,2.67,2.67,0,0,1,1.49-.43,3,3,0,0,1,1.65.43,2.9,2.9,0,0,1,1.06,1.27,5.1,5.1,0,0,1,.36,2v2a4.94,4.94,0,0,1-.37,2,2.79,2.79,0,0,1-1.08,1.26,3.25,3.25,0,0,1-1.71.44A2.73,2.73,0,0,1,128.57,609.63Z"/><path class="b" d="M134.46,600.78h1.82l2.81,7.93-1,1.94Zm8.07,0L138.65,612a2.6,2.6,0,0,1-.56,1,1.87,1.87,0,0,1-.84.52,4,4,0,0,1-1.23.16h-.36V612H136a1.46,1.46,0,0,0,.8-.2,1.74,1.74,0,0,0,.51-.7l3.37-10.31Z"/><path class="b" d="M143.57,600.78h4.12v1.62h-4.12Zm1.46,8.56a2.77,2.77,0,0,1-.52-1.81v-9.4h1.8v9.42a.84.84,0,0,0,.13.51.46.46,0,0,0,.39.18h.86V610h-1A2,2,0,0,1,145,609.34Z"/><path class="b" d="M151.94,606.33a2.07,2.07,0,0,0,.49,1.48,1.76,1.76,0,0,0,1.37.52,1.91,1.91,0,0,0,1.37-.46,1.79,1.79,0,0,0,.48-1.33l.12,1.91A2.58,2.58,0,0,1,153.3,610a2.89,2.89,0,0,1-2.33-1,4.08,4.08,0,0,1-.82-2.73v-5.55h1.79Zm3.71-5.55h1.78v9.12h-1.78Z"/><rect class="c" x="612.92" y="591.68" width="35.43" height="2.83"/><path class="d" d="M648.48,594.64H612.79v-3.08h35.69ZM613,594.39h35.19v-2.58H613Z"/><rect class="c" x="612.92" y="601.6" width="70.74" height="2.83"/><path class="d" d="M683.78,604.56h-71v-3.08h71ZM613,604.31h70.49v-2.58H613Z"/><rect class="c" x="612.92" y="612.72" width="177.16" height="2.84"/><path class="d" d="M790.21,615.68H612.79V612.6H790.21ZM613,615.43H790v-2.58H613Z"/><path class="e" d="M587.26,596.28h-.8v-4.82l-.81.5v-.83l.81-.53h.8Z"/><path class="e" d="M589,595.91a1.67,1.67,0,0,1-.41-1.19v-2.58A1.65,1.65,0,0,1,589,591a2,2,0,0,1,2.42,0,1.65,1.65,0,0,1,.41,1.19v2.58a1.65,1.65,0,0,1-.41,1.19,2,2,0,0,1-2.42,0Zm1.83-.55a.89.89,0,0,0,.2-.64v-2.58a.89.89,0,0,0-.2-.64.82.82,0,0,0-.62-.22.86.86,0,0,0-.63.22.94.94,0,0,0-.2.64v2.58a.9.9,0,0,0,.21.64,1,1,0,0,0,1.24,0Z"/><path class="e" d="M593.22,595.91a1.67,1.67,0,0,1-.41-1.19v-2.58a1.65,1.65,0,0,1,.41-1.19,2,2,0,0,1,2.42,0,1.61,1.61,0,0,1,.41,1.19v2.58a1.65,1.65,0,0,1-.41,1.19,2,2,0,0,1-2.42,0Zm1.83-.55a.9.9,0,0,0,.21-.64v-2.58a.94.94,0,0,0-.2-.64.86.86,0,0,0-.63-.22.82.82,0,0,0-.62.22.89.89,0,0,0-.2.64v2.58a.89.89,0,0,0,.2.64,1,1,0,0,0,1.24,0Z"/><path class="e" d="M600.1,596.13a1.45,1.45,0,0,1-.6-.6,2.06,2.06,0,0,1-.21-1v-.67a2,2,0,0,1,.21-.94,1.37,1.37,0,0,1,.6-.59,2,2,0,0,1,.95-.21,2.21,2.21,0,0,1,.59.08,1.68,1.68,0,0,1,.51.22,1.54,1.54,0,0,1,.37.35l-.58.52a1.17,1.17,0,0,0-.4-.3,1.13,1.13,0,0,0-.48-.11.94.94,0,0,0-.71.26,1,1,0,0,0-.26.72v.67a1,1,0,0,0,.25.74.94.94,0,0,0,.72.27,1,1,0,0,0,.48-.12,1,1,0,0,0,.4-.32l.58.56a1.38,1.38,0,0,1-.38.34,1.62,1.62,0,0,1-.5.22,2.27,2.27,0,0,1-.59.07A2.12,2.12,0,0,1,600.1,596.13Z"/><path class="e" d="M603.4,592.22h.79v4.06h-.79Zm2.42,1.6a1,1,0,0,0-.21-.67.78.78,0,0,0-.6-.23.81.81,0,0,0-.6.21.73.73,0,0,0-.22.58l-.08-.78a1.46,1.46,0,0,1,.49-.57,1.22,1.22,0,0,1,.67-.2,1.33,1.33,0,0,1,.73.2,1.18,1.18,0,0,1,.46.56,2.4,2.4,0,0,1,.15.89v2.47h-.79Zm2.42,0a.93.93,0,0,0-.22-.67.85.85,0,0,0-.63-.23.72.72,0,0,0-.57.23.9.9,0,0,0-.21.64l-.16-.78a1.61,1.61,0,0,1,.51-.63,1.23,1.23,0,0,1,.69-.22,1.37,1.37,0,0,1,.75.2,1.09,1.09,0,0,1,.47.56,2.21,2.21,0,0,1,.17.89v2.47h-.8Z"/><path class="e" d="M584.33,605.5l2-2.64a1.85,1.85,0,0,0,.27-.47,1.29,1.29,0,0,0,.09-.45h0a.67.67,0,0,0-.2-.53.81.81,0,0,0-.56-.19.76.76,0,0,0-.56.21,1,1,0,0,0-.27.58h-.82a2,2,0,0,1,.29-.83,1.42,1.42,0,0,1,.56-.53,1.67,1.67,0,0,1,.79-.18,1.93,1.93,0,0,1,.87.17,1.21,1.21,0,0,1,.54.51,1.55,1.55,0,0,1,.19.8h0a1.84,1.84,0,0,1-.12.63,2.8,2.8,0,0,1-.35.63l-1.65,2.24h2.15v.76h-3.2Z"/><path class="e" d="M589,605.83a1.67,1.67,0,0,1-.41-1.19v-2.58a1.65,1.65,0,0,1,.41-1.19,2,2,0,0,1,2.42,0,1.65,1.65,0,0,1,.41,1.19v2.58a1.65,1.65,0,0,1-.41,1.19,2,2,0,0,1-2.42,0Zm1.83-.55a.89.89,0,0,0,.2-.64v-2.58a.89.89,0,0,0-.2-.64.82.82,0,0,0-.62-.22.86.86,0,0,0-.63.22.94.94,0,0,0-.19.64v2.58a.89.89,0,0,0,.2.64,1,1,0,0,0,1.24,0Z"/><path class="e" d="M593.22,605.83a1.67,1.67,0,0,1-.41-1.19v-2.58a1.61,1.61,0,0,1,.42-1.19,1.59,1.59,0,0,1,1.2-.42,1.45,1.45,0,0,1,1.62,1.61v2.58a1.61,1.61,0,0,1-.41,1.19,2,2,0,0,1-2.42,0Zm1.84-.55a.94.94,0,0,0,.2-.64v-2.58a.94.94,0,0,0-.2-.64.84.84,0,0,0-.63-.22.82.82,0,0,0-.62.22.89.89,0,0,0-.2.64v2.58a.89.89,0,0,0,.2.64.82.82,0,0,0,.62.22A.86.86,0,0,0,595.06,605.28Z"/><path class="e" d="M600.1,606.05a1.45,1.45,0,0,1-.6-.6,2.06,2.06,0,0,1-.2-1v-.67a2,2,0,0,1,.2-.94,1.37,1.37,0,0,1,.6-.59,2,2,0,0,1,.95-.21,2.35,2.35,0,0,1,.6.08,1.73,1.73,0,0,1,.5.22,1.38,1.38,0,0,1,.37.35l-.58.52a1.08,1.08,0,0,0-.4-.3,1.13,1.13,0,0,0-.48-.11,1,1,0,0,0-.71.26,1,1,0,0,0-.26.72v.67a1,1,0,0,0,.25.74.94.94,0,0,0,.72.27,1.14,1.14,0,0,0,.88-.44l.58.56a1.38,1.38,0,0,1-.38.34,1.62,1.62,0,0,1-.5.22,2.22,2.22,0,0,1-.59.07A2.12,2.12,0,0,1,600.1,606.05Z"/><path class="e" d="M603.4,602.14h.79v4.06h-.79Zm2.42,1.6a1,1,0,0,0-.21-.67.78.78,0,0,0-.6-.23.81.81,0,0,0-.6.21.73.73,0,0,0-.22.58l-.08-.78a1.46,1.46,0,0,1,.49-.57,1.22,1.22,0,0,1,.67-.2,1.3,1.3,0,0,1,.73.2,1.18,1.18,0,0,1,.46.56,2.4,2.4,0,0,1,.16.89v2.47h-.8Zm2.42,0a.93.93,0,0,0-.22-.67.85.85,0,0,0-.63-.23.73.73,0,0,0-.57.23.89.89,0,0,0-.2.64l-.16-.78a1.51,1.51,0,0,1,.5-.63,1.23,1.23,0,0,1,.69-.22,1.35,1.35,0,0,1,.75.2,1.16,1.16,0,0,1,.48.56,2.4,2.4,0,0,1,.16.89v2.47h-.8Z"/><path class="e" d="M585,615.58a1.34,1.34,0,0,1-.54-.49,2,2,0,0,1-.28-.77h.8a.75.75,0,0,0,.25.49.85.85,0,0,0,.54.17.72.72,0,0,0,.59-.25,1.1,1.1,0,0,0,.21-.72v-.48a1.1,1.1,0,0,0-.21-.72.72.72,0,0,0-.59-.25.83.83,0,0,0-.4.11,1.18,1.18,0,0,0-.34.33h-.72v-3h2.89v.76h-2.1V612a1,1,0,0,1,.34-.18.94.94,0,0,1,.37-.07,1.68,1.68,0,0,1,.84.2,1.29,1.29,0,0,1,.53.6,2.07,2.07,0,0,1,.19.94V614a2.25,2.25,0,0,1-.19.94,1.31,1.31,0,0,1-.55.59,1.69,1.69,0,0,1-.86.21A1.74,1.74,0,0,1,585,615.58Z"/><path class="e" d="M589,615.32a1.65,1.65,0,0,1-.41-1.19v-2.58a1.67,1.67,0,0,1,.41-1.19,2,2,0,0,1,2.42,0,1.65,1.65,0,0,1,.41,1.19v2.58a1.64,1.64,0,0,1-.41,1.19,1.92,1.92,0,0,1-2.42,0Zm1.83-.55a.89.89,0,0,0,.2-.64v-2.58a.88.88,0,0,0-.2-.63.78.78,0,0,0-.62-.22.82.82,0,0,0-.63.22.93.93,0,0,0-.2.63v2.58a.9.9,0,0,0,.21.64,1,1,0,0,0,1.24,0Z"/><path class="e" d="M593.22,615.32a1.65,1.65,0,0,1-.41-1.19v-2.58a1.67,1.67,0,0,1,.41-1.19,2,2,0,0,1,2.42,0,1.61,1.61,0,0,1,.41,1.19v2.58a1.64,1.64,0,0,1-.41,1.19,1.92,1.92,0,0,1-2.42,0Zm1.83-.55a.9.9,0,0,0,.21-.64v-2.58a.93.93,0,0,0-.2-.63.82.82,0,0,0-.63-.22.78.78,0,0,0-.62.22.88.88,0,0,0-.2.63v2.58a.89.89,0,0,0,.2.64,1,1,0,0,0,1.24,0Z"/><path class="e" d="M600.1,615.54a1.45,1.45,0,0,1-.6-.6,2,2,0,0,1-.21-1v-.67a2,2,0,0,1,.21-.94,1.45,1.45,0,0,1,.6-.6,2,2,0,0,1,.95-.2,2.22,2.22,0,0,1,.59.07,2,2,0,0,1,.51.22,1.76,1.76,0,0,1,.37.35l-.58.52a1.17,1.17,0,0,0-.4-.3,1.13,1.13,0,0,0-.48-.11.94.94,0,0,0-.71.26,1,1,0,0,0-.26.73V614a1.07,1.07,0,0,0,.25.74,1,1,0,0,0,.72.26,1.13,1.13,0,0,0,.48-.11,1.26,1.26,0,0,0,.4-.32l.58.55a1.42,1.42,0,0,1-.38.35,1.88,1.88,0,0,1-.5.21,2.27,2.27,0,0,1-.59.08A2,2,0,0,1,600.1,615.54Z"/><path class="e" d="M603.4,611.63h.79v4.06h-.79Zm2.42,1.6a1,1,0,0,0-.21-.66.75.75,0,0,0-.6-.24.81.81,0,0,0-.6.21.75.75,0,0,0-.22.58l-.08-.78a1.5,1.5,0,0,1,.49-.56,1.15,1.15,0,0,1,.67-.2,1.32,1.32,0,0,1,.73.19,1.28,1.28,0,0,1,.46.56,2.42,2.42,0,0,1,.15.9v2.46h-.79Zm2.42,0a.91.91,0,0,0-.22-.66.82.82,0,0,0-.63-.24.72.72,0,0,0-.57.23.9.9,0,0,0-.21.64l-.16-.78a1.51,1.51,0,0,1,.51-.62,1.16,1.16,0,0,1,.69-.22,1.37,1.37,0,0,1,.75.19,1.18,1.18,0,0,1,.47.56,2.22,2.22,0,0,1,.17.9v2.46h-.8Z"/><path class="c" d="M23.49,613.89A12.92,12.92,0,1,1,36.4,601,12.93,12.93,0,0,1,23.49,613.89Zm0-24.83A11.92,11.92,0,1,0,35.4,601,11.93,11.93,0,0,0,23.49,589.06Z"/><polygon class="d" points="35.77 588.74 9.42 600.98 35.77 613.21 32.02 600.98 35.77 588.74"/><path class="c" d="M36.58,614.14,8.23,601l28.35-13.17-4,13.17ZM10.61,601,35,612.29,31.5,601,35,589.66Z"/><path class="c" d="M2.52,605.19a5,5,0,0,1-1.11-.38,4.4,4.4,0,0,1-1-.64l.81-1a3.72,3.72,0,0,0,1.16.69,4.08,4.08,0,0,0,1.38.23,2.73,2.73,0,0,0,1.55-.38,1.17,1.17,0,0,0,.55-1.05h0a1.12,1.12,0,0,0-.25-.77,1.44,1.44,0,0,0-.64-.42,8.23,8.23,0,0,0-1-.25H3.89l-.1,0a9.48,9.48,0,0,1-1.5-.36,2.08,2.08,0,0,1-1-.73,2.42,2.42,0,0,1-.41-1.51h0a2.77,2.77,0,0,1,.38-1.47,2.44,2.44,0,0,1,1.12-.92,4.48,4.48,0,0,1,1.77-.32,4.6,4.6,0,0,1,1,.11,4.9,4.9,0,0,1,1.86.86l-.73,1a4.61,4.61,0,0,0-1-.58,3,3,0,0,0-1.06-.2,2.44,2.44,0,0,0-1.46.38,1.24,1.24,0,0,0-.53,1.07h0a1,1,0,0,0,.27.75,1.74,1.74,0,0,0,.67.4,9.3,9.3,0,0,0,1.12.27h.24a7.93,7.93,0,0,1,1.4.41,2.22,2.22,0,0,1,.94.76,2.4,2.4,0,0,1,.38,1.43h0a2.62,2.62,0,0,1-.4,1.45,2.54,2.54,0,0,1-1.16.91,4.8,4.8,0,0,1-1.83.31A6.44,6.44,0,0,1,2.52,605.19Z"/><rect class="c" x="612.5" y="600.68" width="1" height="4.68"/><rect class="c" x="612.5" y="590.76" width="1" height="4.68"/><rect class="c" x="612.5" y="611.45" width="1" height="5.24"/><rect class="c" x="789.58" y="611.45" width="1" height="5.24"/><rect class="c" x="682.59" y="600.68" width="1" height="4.68"/><rect class="c" x="647.3" y="590.76" width="1" height="4.68"/><rect class="a" width="790.34" height="618.13"/><rect class="d" x="313.15" y="328.08" width="20.7" height="20.74"/><line class="f" x1="313.15" y1="348.82" x2="333.85" y2="348.82"/><line class="f" x1="313.15" y1="328.08" x2="313.15" y2="348.82"/><line class="f" x1="333.85" y1="328.08" x2="313.16" y2="328.08"/><line class="f" x1="333.85" y1="348.82" x2="333.85" y2="328.08"/><rect class="d" x="307.12" y="105.97" width="21.04" height="130.67"/><line class="f" x1="328.16" y1="236.64" x2="328.16" y2="105.97"/><line class="f" x1="307.12" y1="236.64" x2="328.16" y2="236.64"/><line class="f" x1="307.12" y1="105.97" x2="307.12" y2="236.64"/><line class="f" x1="328.16" y1="105.97" x2="307.12" y2="105.97"/><rect class="d" x="328.68" y="239.93" width="31.04" height="31.11"/><line class="f" x1="328.68" y1="271.04" x2="359.72" y2="271.04"/><line class="f" x1="328.68" y1="239.93" x2="328.68" y2="271.04"/><line class="f" x1="359.72" y1="239.93" x2="328.68" y2="239.93"/><line class="f" x1="359.72" y1="271.04" x2="359.72" y2="239.93"/><rect class="d" x="403.01" y="252.2" width="86.24" height="15.56"/><line class="f" x1="403.01" y1="267.75" x2="489.25" y2="267.75"/><line class="f" x1="403.01" y1="252.2" x2="403.01" y2="267.75"/><line class="f" x1="489.25" y1="252.2" x2="403.01" y2="252.2"/><line class="f" x1="489.25" y1="267.75" x2="489.25" y2="252.2"/><line class="f" x1="307.12" y1="266.72" x2="324.37" y2="266.72"/><line class="f" x1="324.37" y1="266.72" x2="324.37" y2="239.06"/><line class="f" x1="324.37" y1="239.06" x2="320.92" y2="263.26"/><line class="f" x1="320.92" y1="263.26" x2="307.12" y2="266.72"/><polygon points="293.19 605.49 293.19 525.98 293.19 340.69 293.19 185.48 295.91 185.48 295.91 605.49 293.19 605.49"/><polygon points="448.55 99.06 448.55 92.15 493.25 92.15 497.39 92.15 497.39 99.06 448.55 99.06"/><rect x="391.63" y="519.07" width="15.73" height="6.91"/><rect x="450.27" y="99.06" width="47.12" height="6.91"/><rect x="393.36" y="512.15" width="14.01" height="6.91"/><rect x="293.19" y="178.57" width="7.03" height="6.91"/><polygon points="293.19 612.4 293.19 605.49 295.91 605.49 295.91 525.98 302.81 525.98 302.81 612.4 293.19 612.4"/><polygon points="293.32 178.57 293.32 92.15 295.05 92.15 348.51 92.15 348.51 99.06 300.22 99.06 300.22 178.57 293.32 178.57"/><rect x="295.91" y="519.07" width="30.18" height="6.91"/><rect x="295.91" y="185.48" width="4.31" height="333.59"/><polygon points="489.25 292.64 489.25 105.97 497.39 105.97 497.39 202.76 497.39 292.64 489.25 292.64"/><polygon points="399.22 512.15 399.22 332.4 489.25 332.4 489.25 330.67 497.39 330.67 497.39 340.69 407.5 340.69 407.36 340.69 407.36 512.15 399.22 512.15"/><rect x="493.56" y="292.64" width="3.83" height="1.73"/><rect x="493.56" y="328.94" width="3.83" height="1.73"/><polygon points="401.98 596.85 401.98 525.98 404.74 525.98 403.36 525.98 403.36 596.85 401.98 596.85"/><rect x="492.01" y="21.28" width="1.24" height="70.86"/><path d="M438.54,340.7h0Z"/><polygon points="300.22 519.07 300.22 99.06 346.79 99.06 346.79 105.97 307.12 105.97 307.12 512.15 324.37 512.15 324.37 519.07 300.22 519.07"/><polygon points="307.12 353.83 307.12 351.41 360.59 351.41 360.59 325.49 363 325.49 363 332.4 365.59 332.4 365.59 334.82 363 334.82 363 353.83 307.12 353.83"/><rect x="396.63" y="267.75" width="92.62" height="2.42"/><rect x="396.63" y="332.4" width="2.59" height="2.42"/><polygon points="360.59 297.83 360.59 239.06 307.12 239.06 307.12 236.64 363 236.64 363 267.75 365.59 267.75 365.59 270.18 363 270.18 363 297.83 360.59 297.83"/><polygon points="351.1 351.41 351.1 341.9 360.58 341.9 360.58 344.5 353.69 344.5 353.69 351.41 351.1 351.41"/><polygon points="307.14 270.17 307.14 266.72 324.37 266.72 324.37 239.06 327.81 239.06 327.81 270.17 307.14 270.17"/><line class="f" x1="295.05" y1="92.15" x2="293.32" y2="92.15"/><line class="f" x1="348.51" y1="92.15" x2="295.04" y2="92.15"/><line class="f" x1="346.79" y1="105.97" x2="307.12" y2="105.97"/><line class="f" x1="293.32" y1="178.57" x2="293.32" y2="92.15"/><line class="f" x1="307.12" y1="178.57" x2="307.12" y2="105.97"/><line class="f" x1="302.81" y1="525.98" x2="302.81" y2="612.4"/><line class="f" x1="293.19" y1="178.57" x2="293.32" y2="178.57"/><line class="f" x1="307.12" y1="105.97" x2="307.12" y2="236.64"/><line class="f" x1="307.12" y1="239.06" x2="307.12" y2="266.72"/><line class="f" x1="307.12" y1="270.17" x2="307.12" y2="351.41"/><line class="f" x1="307.12" y1="353.83" x2="307.12" y2="512.15"/><line class="f" x1="346.79" y1="105.97" x2="346.79" y2="99.06"/><line class="f" x1="448.55" y1="92.15" x2="493.25" y2="92.15"/><line class="f" x1="493.25" y1="92.15" x2="497.39" y2="92.15"/><line class="f" x1="450.27" y1="105.97" x2="489.25" y2="105.97"/><line class="f" x1="391.63" y1="525.98" x2="407.36" y2="525.98"/><line class="f" x1="393.36" y1="512.15" x2="399.22" y2="512.15"/><line class="f" x1="324.37" y1="512.15" x2="324.37" y2="519.07"/><line class="f" x1="302.81" y1="525.98" x2="326.09" y2="525.98"/><line class="f" x1="450.27" y1="105.97" x2="450.27" y2="99.06"/><line class="f" x1="393.36" y1="512.15" x2="393.36" y2="519.07"/><line class="f" x1="324.37" y1="512.15" x2="307.12" y2="512.15"/><line class="f" x1="448.55" y1="99.06" x2="448.55" y2="92.15"/><line class="f" x1="450.27" y1="99.06" x2="448.55" y2="99.06"/><line class="f" x1="348.51" y1="99.06" x2="348.51" y2="92.15"/><line class="f" x1="346.79" y1="99.06" x2="348.51" y2="99.06"/><line class="f" x1="391.63" y1="519.07" x2="391.63" y2="525.98"/><line class="f" x1="393.36" y1="519.07" x2="391.63" y2="519.07"/><line class="f" x1="326.09" y1="519.07" x2="326.09" y2="525.98"/><line class="f" x1="326.09" y1="519.07" x2="324.37" y2="519.07"/><line class="f" x1="401.98" y1="525.98" x2="404.74" y2="525.98"/><line class="f" x1="401.98" y1="525.98" x2="401.98" y2="596.85"/><line class="f" x1="401.98" y1="596.85" x2="403.36" y2="596.85"/><line class="f" x1="492.01" y1="21.28" x2="493.25" y2="21.28"/><line class="f" x1="492.01" y1="21.28" x2="492.01" y2="92.15"/><line class="f" x1="492.01" y1="92.15" x2="493.25" y2="92.15"/><line class="f" x1="493.25" y1="92.15" x2="494.77" y2="92.15"/><line class="f" x1="489.25" y1="105.97" x2="489.25" y2="267.75"/><line class="f" x1="489.25" y1="270.17" x2="489.25" y2="292.64"/><line class="f" x1="489.25" y1="332.4" x2="399.22" y2="332.4"/><line class="f" x1="399.22" y1="334.82" x2="399.22" y2="512.15"/><line class="f" x1="489.25" y1="330.67" x2="489.25" y2="332.4"/><line class="f" x1="497.39" y1="340.69" x2="441.99" y2="340.69"/><line class="f" x1="493.56" y1="294.37" x2="497.39" y2="294.37"/><line class="f" x1="493.56" y1="328.94" x2="497.39" y2="328.94"/><line class="f" x1="493.56" y1="328.94" x2="493.56" y2="330.67"/><line class="f" x1="493.56" y1="294.37" x2="493.56" y2="292.64"/><line class="f" x1="493.56" y1="292.64" x2="489.25" y2="292.64"/><line class="f" x1="493.56" y1="330.67" x2="489.25" y2="330.67"/><line class="f" x1="441.99" y1="340.69" x2="438.54" y2="340.69"/><line class="f" x1="293.19" y1="92.15" x2="293.32" y2="92.15"/><line class="f" x1="381.28" y1="105.97" x2="346.79" y2="105.97"/><line class="f" x1="403.36" y1="600.3" x2="302.81" y2="600.3"/><line class="f" x1="493.25" y1="5.72" x2="295.04" y2="5.72"/><line class="f" x1="450.27" y1="105.97" x2="381.28" y2="105.97"/><line class="f" x1="324.37" y1="512.15" x2="358.86" y2="512.15"/><line class="f" x1="358.86" y1="512.15" x2="358.86" y2="519.07"/><line class="f" x1="360.59" y1="519.07" x2="360.59" y2="525.98"/><line class="f" x1="326.09" y1="525.98" x2="360.59" y2="525.98"/><line class="f" x1="358.86" y1="512.15" x2="393.36" y2="512.15"/><line class="f" x1="360.59" y1="522.52" x2="391.63" y2="522.52"/><line class="f" x1="358.86" y1="516.3" x2="358.86" y2="519.07"/><line class="f" x1="391.98" y1="515.61" x2="391.98" y2="483.81"/><line class="f" x1="361.62" y1="518.38" x2="361.62" y2="519.07"/><line class="f" x1="361.62" y1="519.07" x2="358.86" y2="519.07"/><line class="f" x1="358.86" y1="519.07" x2="358.86" y2="516.3"/><line class="f" x1="358.86" y1="516.3" x2="360.24" y2="516.3"/><line class="f" x1="360.24" y1="515.61" x2="363" y2="515.61"/><line class="f" x1="363" y1="515.61" x2="363" y2="518.38"/><line class="f" x1="363" y1="518.38" x2="360.24" y2="518.38"/><line class="f" x1="360.24" y1="518.38" x2="360.24" y2="515.61"/><line class="f" x1="390.6" y1="518.38" x2="390.6" y2="519.07"/><line class="f" x1="390.6" y1="519.07" x2="393.36" y2="519.07"/><line class="f" x1="393.36" y1="519.07" x2="393.36" y2="516.3"/><line class="f" x1="393.36" y1="516.3" x2="391.98" y2="516.3"/><line class="f" x1="391.98" y1="515.61" x2="389.22" y2="515.61"/><line class="f" x1="389.22" y1="515.61" x2="389.22" y2="518.38"/><line class="f" x1="389.22" y1="518.38" x2="391.98" y2="518.38"/><line class="f" x1="391.98" y1="518.38" x2="391.98" y2="515.61"/><line class="f" x1="363" y1="515.61" x2="389.22" y2="515.61"/><line class="f" x1="389.22" y1="518.38" x2="363" y2="518.38"/><line class="f" x1="363" y1="516.99" x2="389.22" y2="516.99"/><g class="g"><path class="f" d="M360.24,515.61A31.77,31.77,0,0,1,392,483.81"/></g><line class="f" x1="356.1" y1="518.38" x2="356.1" y2="519.07"/><line class="f" x1="356.1" y1="519.07" x2="358.86" y2="519.07"/><line class="f" x1="358.86" y1="519.07" x2="358.86" y2="516.3"/><line class="f" x1="358.86" y1="516.3" x2="357.48" y2="516.3"/><line class="f" x1="357.48" y1="515.61" x2="354.72" y2="515.61"/><line class="f" x1="354.72" y1="515.61" x2="354.72" y2="518.38"/><line class="f" x1="354.72" y1="518.38" x2="357.48" y2="518.38"/><line class="f" x1="357.48" y1="518.38" x2="357.48" y2="515.61"/><line class="f" x1="327.13" y1="518.38" x2="327.13" y2="519.07"/><line class="f" x1="327.13" y1="519.07" x2="324.37" y2="519.07"/><line class="f" x1="324.37" y1="519.07" x2="324.37" y2="516.3"/><line class="f" x1="324.37" y1="516.3" x2="325.75" y2="516.3"/><line class="f" x1="325.75" y1="515.61" x2="328.51" y2="515.61"/><line class="f" x1="328.51" y1="515.61" x2="328.51" y2="518.38"/><line class="f" x1="328.51" y1="518.38" x2="325.75" y2="518.38"/><line class="f" x1="325.75" y1="518.38" x2="325.75" y2="515.61"/><line class="f" x1="354.72" y1="515.61" x2="328.51" y2="515.61"/><line class="f" x1="328.51" y1="518.38" x2="354.72" y2="518.38"/><line class="f" x1="354.72" y1="516.99" x2="328.51" y2="516.99"/><g class="g"><path class="f" d="M446.48,483.81a31.77,31.77,0,0,1,31.73,31.8"/></g><line class="f" x1="448.55" y1="92.15" x2="379.56" y2="92.15"/><line class="f" x1="379.56" y1="99.06" x2="379.56" y2="92.15"/><line class="f" x1="379.56" y1="95.6" x2="348.51" y2="95.6"/><line class="f" x1="348.17" y1="102.52" x2="348.17" y2="134.32"/><line class="f" x1="378.52" y1="99.75" x2="378.52" y2="99.06"/><line class="f" x1="378.52" y1="99.06" x2="381.28" y2="99.06"/><line class="f" x1="381.28" y1="99.06" x2="381.28" y2="101.83"/><line class="f" x1="381.28" y1="101.82" x2="379.9" y2="101.82"/><line class="f" x1="379.9" y1="102.52" x2="377.14" y2="102.52"/><line class="f" x1="377.14" y1="102.52" x2="377.14" y2="99.75"/><line class="f" x1="377.14" y1="99.75" x2="379.9" y2="99.75"/><line class="f" x1="379.9" y1="99.75" x2="379.9" y2="102.52"/><line class="f" x1="348.17" y1="102.52" x2="350.93" y2="102.52"/><line class="f" x1="350.93" y1="102.52" x2="350.93" y2="99.75"/><line class="f" x1="350.93" y1="99.75" x2="348.17" y2="99.75"/><line class="f" x1="348.17" y1="99.75" x2="348.17" y2="102.52"/><line class="f" x1="377.14" y1="102.52" x2="350.93" y2="102.52"/><line class="f" x1="350.93" y1="99.75" x2="377.14" y2="99.75"/><line class="f" x1="377.14" y1="101.13" x2="350.93" y2="101.13"/><g class="g"><path class="f" d="M379.9,102.52a31.77,31.77,0,0,1-31.73,31.8"/></g><line class="f" x1="349.55" y1="99.75" x2="349.55" y2="99.06"/><line class="f" x1="349.55" y1="99.06" x2="346.79" y2="99.06"/><line class="f" x1="346.79" y1="99.06" x2="346.79" y2="101.83"/><line class="f" x1="346.79" y1="101.82" x2="348.17" y2="101.82"/><line class="f" x1="447.51" y1="99.75" x2="447.51" y2="99.06"/><line class="f" x1="447.51" y1="99.06" x2="450.27" y2="99.06"/><line class="f" x1="450.27" y1="99.06" x2="450.27" y2="101.83"/><line class="f" x1="450.27" y1="101.82" x2="448.89" y2="101.82"/><line class="f" x1="448.89" y1="102.52" x2="446.13" y2="102.52"/><line class="f" x1="446.13" y1="102.52" x2="446.13" y2="99.75"/><line class="f" x1="446.13" y1="99.75" x2="448.89" y2="99.75"/><line class="f" x1="448.89" y1="99.75" x2="448.89" y2="102.52"/><line class="f" x1="417.16" y1="99.75" x2="417.16" y2="99.06"/><line class="f" x1="417.16" y1="99.06" x2="414.4" y2="99.06"/><line class="f" x1="414.4" y1="99.06" x2="414.4" y2="101.83"/><line class="f" x1="414.4" y1="101.82" x2="415.78" y2="101.82"/><line class="f" x1="415.78" y1="102.52" x2="418.54" y2="102.52"/><line class="f" x1="418.54" y1="102.52" x2="418.54" y2="99.75"/><line class="f" x1="418.54" y1="99.75" x2="415.78" y2="99.75"/><line class="f" x1="415.78" y1="99.75" x2="415.78" y2="102.52"/><line class="f" x1="446.13" y1="102.52" x2="418.54" y2="102.52"/><line class="f" x1="418.54" y1="99.75" x2="446.13" y2="99.75"/><line class="f" x1="446.13" y1="101.13" x2="418.54" y2="101.13"/><line class="f" x1="381.28" y1="101.82" x2="384.04" y2="101.82"/><line class="f" x1="384.04" y1="101.82" x2="384.04" y2="99.06"/><line class="f" x1="384.04" y1="99.06" x2="381.28" y2="99.06"/><line class="f" x1="381.28" y1="99.06" x2="381.28" y2="101.83"/><line class="f" x1="384.04" y1="101.82" x2="414.4" y2="101.82"/><line class="f" x1="384.04" y1="100.44" x2="414.4" y2="100.44"/><line class="f" x1="384.04" y1="99.06" x2="414.4" y2="99.06"/><line class="f" x1="307.12" y1="266.72" x2="307.12" y2="270.17"/><line class="f" x1="295.05" y1="92.15" x2="295.05" y2="5.72"/><line class="f" x1="293.19" y1="104.24" x2="293.32" y2="104.24"/><line class="f" x1="307.12" y1="17.82" x2="493.25" y2="17.82"/><line class="f" x1="307.12" y1="92.15" x2="307.12" y2="17.82"/><line class="f" x1="358.86" y1="512.15" x2="358.86" y2="501.78"/><line class="f" x1="358.86" y1="501.78" x2="393.36" y2="501.78"/><line class="f" x1="393.36" y1="501.78" x2="393.36" y2="512.15"/><g class="g"><path class="f" d="M417.85,365.76a.87.87,0,1,0-.87.86.87.87,0,0,0,.87-.86"/><path class="f" d="M437.68,362.3a3.46,3.46,0,0,1,3.45,3.46"/><path class="f" d="M441.13,386.5a3.46,3.46,0,0,1-3.45,3.45"/><path class="f" d="M413.53,365.76A3.46,3.46,0,0,1,417,362.3"/><path class="f" d="M417,390a3.46,3.46,0,0,1-3.45-3.45"/><path class="f" d="M418.88,408.45a.69.69,0,1,0-.69.69.69.69,0,0,0,.69-.69"/><path class="f" d="M471.83,406.37a3.11,3.11,0,1,0-3.1,3.12,3.11,3.11,0,0,0,3.1-3.12"/><path class="f" d="M471.83,415.71a3.11,3.11,0,1,0-3.1,3.11,3.1,3.1,0,0,0,3.1-3.11"/><path class="f" d="M481.14,415.71a3.1,3.1,0,1,0-3.1,3.11,3.1,3.1,0,0,0,3.1-3.11"/></g><line class="f" x1="438.54" y1="340.69" x2="407.5" y2="340.69"/><line class="f" x1="346.79" y1="105.97" x2="346.79" y2="99.06"/><line class="f" x1="450.27" y1="105.97" x2="489.25" y2="105.97"/><line class="f" x1="346.79" y1="105.97" x2="307.12" y2="105.97"/><line class="f" x1="450.27" y1="105.97" x2="450.27" y2="99.06"/><line class="f" x1="363" y1="236.64" x2="363" y2="267.75"/><line class="f" x1="363" y1="270.17" x2="363" y2="297.83"/><line class="f" x1="360.59" y1="239.06" x2="360.59" y2="297.83"/><line class="f" x1="307.12" y1="236.64" x2="363" y2="236.64"/><line class="f" x1="489.25" y1="270.17" x2="396.63" y2="270.17"/><line class="f" x1="365.59" y1="270.17" x2="363" y2="270.17"/><line class="f" x1="489.25" y1="267.75" x2="396.63" y2="267.75"/><line class="f" x1="365.59" y1="267.75" x2="363" y2="267.75"/><line class="f" x1="396.63" y1="267.75" x2="396.63" y2="270.17"/><line class="f" x1="365.59" y1="267.75" x2="365.59" y2="270.17"/><line class="f" x1="363" y1="325.48" x2="363" y2="332.4"/><line class="f" x1="363" y1="334.82" x2="363" y2="353.83"/><line class="f" x1="360.59" y1="325.48" x2="360.59" y2="341.9"/><line class="f" x1="360.59" y1="344.5" x2="360.59" y2="351.41"/><line class="f" x1="307.12" y1="353.83" x2="363" y2="353.83"/><line class="f" x1="363" y1="334.82" x2="365.59" y2="334.82"/><line class="f" x1="396.63" y1="334.82" x2="399.22" y2="334.82"/><line class="f" x1="307.12" y1="351.41" x2="351.1" y2="351.41"/><line class="f" x1="353.69" y1="351.41" x2="360.58" y2="351.41"/><line class="f" x1="363" y1="332.4" x2="365.59" y2="332.4"/><line class="f" x1="396.63" y1="332.4" x2="399.22" y2="332.4"/><line class="f" x1="327.82" y1="239.06" x2="360.59" y2="239.06"/><line class="f" x1="396.63" y1="332.4" x2="396.63" y2="334.82"/><line class="f" x1="365.59" y1="332.4" x2="365.59" y2="334.82"/><line class="f" x1="363" y1="325.48" x2="360.59" y2="325.48"/><line class="f" x1="363" y1="297.83" x2="360.59" y2="297.83"/><line class="f" x1="381.28" y1="105.97" x2="346.79" y2="105.97"/><line class="f" x1="450.27" y1="105.97" x2="381.28" y2="105.97"/><line class="f" x1="391.98" y1="515.61" x2="391.98" y2="483.81"/><g class="g"><path class="f" d="M360.24,515.61A31.77,31.77,0,0,1,392,483.81"/></g><line class="f" x1="381.28" y1="105.97" x2="381.28" y2="99.06"/><line class="f" x1="348.17" y1="102.52" x2="348.17" y2="134.32"/><g class="g"><path class="f" d="M379.9,102.52a31.77,31.77,0,0,1-31.73,31.8"/><path class="f" d="M334.71,245.11a.86.86,0,1,0-.86.86.85.85,0,0,0,.86-.86"/></g><line class="f" x1="328.68" y1="271.04" x2="359.72" y2="271.04"/><line class="f" x1="359.72" y1="271.04" x2="359.72" y2="239.93"/><line class="f" x1="359.72" y1="239.93" x2="328.68" y2="239.93"/><line class="f" x1="328.68" y1="239.93" x2="328.68" y2="271.04"/><line class="f" x1="333.85" y1="269.31" x2="354.55" y2="269.31"/><line class="f" x1="358" y1="265.85" x2="358" y2="245.11"/><line class="f" x1="354.55" y1="241.65" x2="333.85" y2="241.65"/><line class="f" x1="330.4" y1="245.11" x2="330.4" y2="265.85"/><g class="g"><path class="f" d="M333.85,269.31a3.46,3.46,0,0,1-3.45-3.46"/><path class="f" d="M358,265.85a3.46,3.46,0,0,1-3.45,3.46"/><path class="f" d="M330.4,245.11a3.46,3.46,0,0,1,3.45-3.46"/><path class="f" d="M354.55,241.65a3.46,3.46,0,0,1,3.45,3.46"/></g><line class="f" x1="312.29" y1="351.41" x2="312.29" y2="270.17"/><line class="f" x1="359.72" y1="273.63" x2="356.27" y2="273.63"/><line class="f" x1="356.27" y1="273.63" x2="356.27" y2="294.37"/><line class="f" x1="356.27" y1="294.37" x2="359.72" y2="294.37"/><line class="f" x1="359.72" y1="294.37" x2="359.72" y2="293.33"/><line class="f" x1="359.72" y1="293.34" x2="357.31" y2="293.34"/><line class="f" x1="357.31" y1="293.34" x2="357.31" y2="274.67"/><line class="f" x1="357.31" y1="274.67" x2="359.72" y2="274.67"/><line class="f" x1="359.72" y1="274.67" x2="359.72" y2="273.63"/><line class="f" x1="359.72" y1="273.63" x2="356.27" y2="273.63"/><line class="f" x1="359.72" y1="294.37" x2="356.27" y2="294.37"/><line class="f" x1="359.72" y1="274.67" x2="357.31" y2="274.67"/><line class="f" x1="359.72" y1="293.34" x2="357.31" y2="293.34"/><line class="f" x1="356.27" y1="273.63" x2="356.27" y2="294.37"/><line class="f" x1="357.31" y1="273.63" x2="357.31" y2="294.37"/><line class="f" x1="359.72" y1="273.63" x2="359.72" y2="274.67"/><line class="f" x1="359.72" y1="293.34" x2="359.72" y2="294.37"/><line class="f" x1="333.85" y1="328.08" x2="333.85" y2="348.82"/><line class="f" x1="333.85" y1="348.82" x2="313.16" y2="348.82"/><line class="f" x1="313.15" y1="348.82" x2="313.15" y2="328.08"/><line class="f" x1="313.15" y1="328.08" x2="333.85" y2="328.08"/><g class="g"><path class="f" d="M329.54,338.45a6,6,0,1,0-6,6.05,6,6,0,0,0,6-6.05"/><path class="f" d="M328.51,338.45a5,5,0,1,0-5,5,5,5,0,0,0,5-5"/></g><line class="f" x1="393.36" y1="512.15" x2="393.36" y2="501.78"/><line class="f" x1="393.36" y1="501.78" x2="358.86" y2="501.78"/><line class="f" x1="358.86" y1="501.78" x2="358.86" y2="512.15"/><line class="f" x1="328.16" y1="236.3" x2="328.16" y2="215.56"/><line class="f" x1="328.16" y1="215.56" x2="307.46" y2="215.56"/><line class="f" x1="307.12" y1="236.64" x2="328.16" y2="236.64"/><line class="f" x1="328.16" y1="236.64" x2="328.16" y2="105.97"/><line class="f" x1="328.16" y1="105.97" x2="307.12" y2="105.97"/><line class="f" x1="307.12" y1="105.97" x2="307.12" y2="236.64"/><line class="f" x1="315.37" y1="114.24" x2="320.25" y2="119.13"/><line class="f" x1="320.25" y1="114.24" x2="315.37" y2="119.13"/><line class="f" x1="317.81" y1="120.15" x2="317.81" y2="113.23"/><line class="f" x1="314.36" y1="116.69" x2="321.26" y2="116.69"/><line class="f" x1="328.16" y1="106.32" x2="328.16" y2="127.06"/><line class="f" x1="307.46" y1="127.06" x2="328.16" y2="127.06"/><line class="f" x1="326.44" y1="214.69" x2="326.44" y2="195.68"/><line class="f" x1="326.44" y1="195.68" x2="309.19" y2="195.68"/><line class="f" x1="309.19" y1="195.68" x2="309.19" y2="214.69"/><line class="f" x1="309.19" y1="214.69" x2="326.44" y2="214.69"/><line class="f" x1="328.16" y1="215.56" x2="328.16" y2="194.81"/><line class="f" x1="324.71" y1="212.96" x2="324.71" y2="197.41"/><line class="f" x1="324.71" y1="197.41" x2="312.64" y2="197.41"/><line class="f" x1="312.64" y1="197.41" x2="312.64" y2="212.96"/><line class="f" x1="312.64" y1="212.96" x2="324.71" y2="212.96"/><g class="g"><path class="f" d="M316.78,205.18a.69.69,0,1,0-.69.7.69.69,0,0,0,.69-.7"/><path class="f" d="M316.12,157.21a3.39,3.39,0,1,0-3.39,3.4,3.39,3.39,0,0,0,3.39-3.4"/></g><line class="f" x1="307.46" y1="162.49" x2="328.16" y2="162.49"/><line class="f" x1="328.16" y1="162.49" x2="328.16" y2="141.75"/><line class="f" x1="328.16" y1="141.75" x2="307.46" y2="141.75"/><g class="g"><path class="f" d="M326.28,157.21a3.39,3.39,0,1,0-3.39,3.4,3.39,3.39,0,0,0,3.39-3.4"/><path class="f" d="M326.28,147a3.39,3.39,0,1,0-3.39,3.4,3.39,3.39,0,0,0,3.39-3.4"/></g><line class="f" x1="329.1" y1="144.58" x2="329.1" y2="159.66"/><line class="f" x1="324.37" y1="266.72" x2="307.12" y2="266.72"/><line class="f" x1="324.37" y1="239.06" x2="307.12" y2="239.06"/><line class="f" x1="327.82" y1="270.17" x2="307.12" y2="270.17"/><line class="f" x1="327.82" y1="270.17" x2="327.82" y2="239.06"/><line class="f" x1="324.37" y1="266.72" x2="324.37" y2="239.06"/><line class="f" x1="360.59" y1="344.5" x2="360.59" y2="351.41"/><line class="f" x1="353.69" y1="351.41" x2="360.58" y2="351.41"/><line class="f" x1="360.59" y1="341.9" x2="351.1" y2="341.9"/><line class="f" x1="351.1" y1="341.9" x2="351.1" y2="351.41"/><line class="f" x1="360.59" y1="344.5" x2="353.69" y2="344.5"/><line class="f" x1="353.69" y1="344.5" x2="353.69" y2="351.41"/><line class="f" x1="394.91" y1="334.82" x2="367.31" y2="334.82"/><line class="f" x1="394.91" y1="334.82" x2="394.91" y2="362.47"/><g class="g"><path class="f" d="M394.91,362.47a27.63,27.63,0,0,1-27.6-27.65"/></g><line class="f" x1="394.91" y1="332.4" x2="394.91" y2="334.82"/><line class="f" x1="367.31" y1="334.82" x2="367.31" y2="332.4"/><line class="f" x1="367.31" y1="334.82" x2="365.59" y2="334.82"/><line class="f" x1="367.31" y1="332.4" x2="365.59" y2="332.4"/><line class="f" x1="396.63" y1="334.82" x2="394.91" y2="334.82"/><line class="f" x1="396.63" y1="332.4" x2="394.91" y2="332.4"/><line class="f" x1="394.91" y1="332.4" x2="388.01" y2="332.4"/><line class="f" x1="384.21" y1="332.4" x2="383.44" y2="332.4"/><line class="f" x1="379.64" y1="332.4" x2="378.87" y2="332.4"/><line class="f" x1="375.07" y1="332.4" x2="374.21" y2="332.4"/><line class="f" x1="374.21" y1="332.4" x2="367.31" y2="332.4"/><line class="f" x1="394.91" y1="334.82" x2="394.91" y2="335.68"/><line class="f" x1="394.91" y1="335.68" x2="398.36" y2="335.68"/><line class="f" x1="398.36" y1="335.68" x2="398.36" y2="334.82"/><line class="f" x1="394.91" y1="332.4" x2="394.91" y2="331.53"/><line class="f" x1="394.91" y1="331.53" x2="398.36" y2="331.53"/><line class="f" x1="398.36" y1="331.53" x2="398.36" y2="332.4"/><line class="f" x1="367.31" y1="335.68" x2="363.86" y2="335.68"/><line class="f" x1="363.86" y1="335.68" x2="363.86" y2="334.82"/><line class="f" x1="367.31" y1="332.4" x2="367.31" y2="331.53"/><line class="f" x1="367.31" y1="331.53" x2="363.86" y2="331.53"/><line class="f" x1="363.86" y1="331.53" x2="363.86" y2="332.4"/><line class="f" x1="367.31" y1="267.75" x2="394.91" y2="267.75"/><line class="f" x1="367.31" y1="267.75" x2="367.31" y2="240.1"/><g class="g"><path class="f" d="M367.31,240.1a27.63,27.63,0,0,1,27.6,27.65"/></g><line class="f" x1="367.31" y1="270.17" x2="367.31" y2="267.75"/><line class="f" x1="394.91" y1="267.75" x2="394.91" y2="270.17"/><line class="f" x1="394.91" y1="267.75" x2="396.63" y2="267.75"/><line class="f" x1="394.91" y1="270.17" x2="396.63" y2="270.17"/><line class="f" x1="365.59" y1="267.75" x2="367.31" y2="267.75"/><line class="f" x1="365.59" y1="270.17" x2="367.31" y2="270.17"/><line class="f" x1="367.31" y1="270.17" x2="374.21" y2="270.17"/><line class="f" x1="378.01" y1="270.17" x2="378.78" y2="270.17"/><line class="f" x1="382.58" y1="270.17" x2="383.35" y2="270.17"/><line class="f" x1="387.15" y1="270.17" x2="388.01" y2="270.17"/><line class="f" x1="388.01" y1="270.17" x2="394.91" y2="270.17"/><line class="f" x1="367.31" y1="267.75" x2="367.31" y2="266.89"/><line class="f" x1="367.31" y1="266.89" x2="363.86" y2="266.89"/><line class="f" x1="363.86" y1="266.89" x2="363.86" y2="267.75"/><line class="f" x1="367.31" y1="270.17" x2="367.31" y2="271.04"/><line class="f" x1="367.31" y1="271.04" x2="363.86" y2="271.04"/><line class="f" x1="363.86" y1="271.04" x2="363.86" y2="270.17"/><line class="f" x1="394.91" y1="266.89" x2="398.36" y2="266.89"/><line class="f" x1="398.36" y1="266.89" x2="398.36" y2="267.75"/><line class="f" x1="394.91" y1="270.17" x2="394.91" y2="271.04"/><line class="f" x1="394.91" y1="271.04" x2="398.36" y2="271.04"/><line class="f" x1="398.36" y1="271.04" x2="398.36" y2="270.17"/><line class="f" x1="493.56" y1="327.21" x2="493.56" y2="296.1"/><line class="f" x1="493.56" y1="327.21" x2="462.52" y2="327.21"/><g class="g"><path class="f" d="M462.52,327.21a31.07,31.07,0,0,1,31-31.11"/></g><line class="f" x1="497.39" y1="327.21" x2="493.56" y2="327.21"/><line class="f" x1="493.56" y1="296.1" x2="497.39" y2="296.1"/><line class="f" x1="493.56" y1="296.1" x2="493.56" y2="294.37"/><line class="f" x1="493.56" y1="328.94" x2="493.56" y2="327.21"/><line class="f" x1="363" y1="323.75" x2="363" y2="299.56"/><line class="f" x1="363" y1="323.75" x2="387.15" y2="323.75"/><g class="g"><path class="f" d="M363,299.56a24.17,24.17,0,0,1,24.15,24.19"/></g><line class="f" x1="360.59" y1="323.75" x2="363" y2="323.75"/><line class="f" x1="363" y1="299.56" x2="360.59" y2="299.56"/><line class="f" x1="363" y1="299.56" x2="363" y2="297.83"/><line class="f" x1="360.59" y1="299.56" x2="360.59" y2="297.83"/><line class="f" x1="363" y1="325.48" x2="363" y2="323.75"/><line class="f" x1="360.59" y1="325.48" x2="360.59" y2="323.75"/><line class="f" x1="360.59" y1="323.75" x2="360.59" y2="316.84"/><line class="f" x1="360.59" y1="313.04" x2="360.59" y2="312.26"/><line class="f" x1="360.59" y1="308.46" x2="360.59" y2="307.68"/><line class="f" x1="360.59" y1="306.47" x2="360.59" y2="299.56"/><line class="f" x1="363" y1="323.75" x2="363.86" y2="323.75"/><line class="f" x1="363.86" y1="323.75" x2="363.86" y2="327.21"/><line class="f" x1="363.86" y1="327.21" x2="363" y2="327.21"/><line class="f" x1="360.59" y1="323.75" x2="359.72" y2="323.75"/><line class="f" x1="359.72" y1="323.75" x2="359.72" y2="327.21"/><line class="f" x1="359.72" y1="327.21" x2="360.58" y2="327.21"/><line class="f" x1="363.86" y1="299.56" x2="363.86" y2="296.1"/><line class="f" x1="363.86" y1="296.1" x2="363" y2="296.1"/><line class="f" x1="360.59" y1="299.56" x2="359.72" y2="299.56"/><line class="f" x1="359.72" y1="299.56" x2="359.72" y2="296.1"/><line class="f" x1="359.72" y1="296.1" x2="360.58" y2="296.1"/><g class="g"><path class="f" d="M493,389.09a24.17,24.17,0,0,1,24.15-24.2"/></g><line class="f" x1="346.79" y1="105.97" x2="346.79" y2="116.34"/><line class="f" x1="346.79" y1="116.34" x2="381.28" y2="116.34"/><line class="f" x1="381.28" y1="116.34" x2="381.28" y2="105.97"/><line class="f" x1="327.82" y1="510.42" x2="355.41" y2="510.42"/><line class="f" x1="355.41" y1="510.42" x2="355.41" y2="508.25"/><line class="f" x1="355.41" y1="508.25" x2="327.82" y2="508.25"/><line class="f" x1="327.82" y1="508.25" x2="327.82" y2="510.42"/><line class="f" x1="438.2" y1="107.7" x2="389.91" y2="107.7"/><line class="f" x1="389.91" y1="107.7" x2="389.91" y2="111.16"/><line class="f" x1="389.91" y1="111.16" x2="438.2" y2="111.16"/><line class="f" x1="438.2" y1="111.16" x2="438.2" y2="107.7"/><g class="g"><path class="f" d="M443.37,109.43a1.73,1.73,0,1,0-1.72,1.73,1.73,1.73,0,0,0,1.72-1.73"/><path class="f" d="M326.09,509.34a1.73,1.73,0,1,0-1.72,1.72,1.72,1.72,0,0,0,1.72-1.72"/></g><line class="f" x1="379.56" y1="92.15" x2="372.66" y2="92.15"/><line class="f" x1="368.86" y1="92.15" x2="368.09" y2="92.15"/><line class="f" x1="364.29" y1="92.15" x2="363.52" y2="92.15"/><line class="f" x1="359.72" y1="92.15" x2="355.41" y2="92.15"/><line class="f" x1="355.41" y1="92.15" x2="348.51" y2="92.15"/><line class="f" x1="391.63" y1="525.98" x2="384.73" y2="525.98"/><line class="f" x1="380.94" y1="525.98" x2="380.16" y2="525.98"/><line class="f" x1="376.37" y1="525.98" x2="375.59" y2="525.98"/><line class="f" x1="371.8" y1="525.98" x2="367.48" y2="525.98"/><line class="f" x1="367.48" y1="525.98" x2="360.59" y2="525.98"/><line class="f" x1="346.79" y1="92.15" x2="346.79" y2="85.23"/><line class="f" x1="346.79" y1="81.43" x2="346.79" y2="80.65"/><line class="f" x1="346.79" y1="76.85" x2="346.79" y2="76.07"/><line class="f" x1="346.79" y1="72.27" x2="346.79" y2="65.36"/><line class="f" x1="346.79" y1="61.55" x2="346.79" y2="60.77"/><line class="f" x1="346.79" y1="56.97" x2="346.79" y2="56.19"/><line class="f" x1="346.79" y1="52.39" x2="346.79" y2="47.21"/><line class="f" x1="346.79" y1="47.21" x2="346.79" y2="40.29"/><line class="f" x1="493.25" y1="40.29" x2="492.53" y2="40.29"/><line class="f" x1="488.73" y1="40.29" x2="487.96" y2="40.29"/><line class="f" x1="484.16" y1="40.29" x2="483.39" y2="40.29"/><line class="f" x1="479.59" y1="40.29" x2="472.69" y2="40.29"/><line class="f" x1="468.9" y1="40.29" x2="468.12" y2="40.29"/><line class="f" x1="464.33" y1="40.29" x2="463.55" y2="40.29"/><line class="f" x1="459.76" y1="40.29" x2="452.86" y2="40.29"/><line class="f" x1="449.06" y1="40.29" x2="448.29" y2="40.29"/><line class="f" x1="444.49" y1="40.29" x2="443.72" y2="40.29"/><line class="f" x1="439.92" y1="40.29" x2="433.02" y2="40.29"/><line class="f" x1="429.23" y1="40.29" x2="428.45" y2="40.29"/><line class="f" x1="424.66" y1="40.29" x2="423.88" y2="40.29"/><line class="f" x1="420.09" y1="40.29" x2="413.19" y2="40.29"/><line class="f" x1="409.4" y1="40.29" x2="408.62" y2="40.29"/><line class="f" x1="404.82" y1="40.29" x2="404.05" y2="40.29"/><line class="f" x1="400.25" y1="40.29" x2="393.36" y2="40.29"/><line class="f" x1="389.56" y1="40.29" x2="388.78" y2="40.29"/><line class="f" x1="384.99" y1="40.29" x2="384.21" y2="40.29"/><line class="f" x1="380.42" y1="40.29" x2="373.52" y2="40.29"/><line class="f" x1="369.73" y1="40.29" x2="368.95" y2="40.29"/><line class="f" x1="365.16" y1="40.29" x2="364.38" y2="40.29"/><line class="f" x1="360.59" y1="40.29" x2="353.69" y2="40.29"/><line class="f" x1="353.69" y1="40.29" x2="346.79" y2="40.29"/><line class="f" x1="402.84" y1="577.83" x2="395.94" y2="577.83"/><line class="f" x1="392.15" y1="577.83" x2="391.37" y2="577.83"/><line class="f" x1="387.58" y1="577.83" x2="386.8" y2="577.83"/><line class="f" x1="383.01" y1="577.83" x2="376.11" y2="577.83"/><line class="f" x1="372.31" y1="577.83" x2="371.54" y2="577.83"/><line class="f" x1="367.74" y1="577.83" x2="366.97" y2="577.83"/><line class="f" x1="363.17" y1="577.83" x2="356.27" y2="577.83"/><line class="f" x1="352.48" y1="577.83" x2="351.7" y2="577.83"/><line class="f" x1="347.91" y1="577.83" x2="347.13" y2="577.83"/><line class="f" x1="343.34" y1="577.83" x2="336.44" y2="577.83"/><line class="f" x1="332.65" y1="577.83" x2="331.87" y2="577.83"/><line class="f" x1="331.26" y1="577.83" x2="324.37" y2="577.83"/><line class="f" x1="324.37" y1="525.98" x2="324.37" y2="532.89"/><line class="f" x1="324.37" y1="536.7" x2="324.37" y2="537.48"/><line class="f" x1="324.37" y1="541.28" x2="324.37" y2="542.06"/><line class="f" x1="324.37" y1="545.86" x2="324.37" y2="552.77"/><line class="f" x1="324.37" y1="556.57" x2="324.37" y2="557.35"/><line class="f" x1="324.37" y1="561.15" x2="324.37" y2="561.93"/><line class="f" x1="324.37" y1="565.73" x2="324.37" y2="570.92"/><line class="f" x1="324.37" y1="570.92" x2="324.37" y2="577.83"/><line class="f" x1="493.73" y1="340.69" x2="441.99" y2="340.69"/><rect class="d" x="432.97" y="149.18" width="17.25" height="27.65"/><line class="f" x1="432.97" y1="176.84" x2="450.22" y2="176.84"/><line class="f" x1="432.97" y1="149.18" x2="432.97" y2="176.84"/><line class="f" x1="450.22" y1="149.18" x2="432.97" y2="149.18"/><line class="f" x1="450.22" y1="176.84" x2="450.22" y2="149.18"/><rect class="d" x="307.12" y="270.17" width="5.18" height="81.24"/><line class="f" x1="307.12" y1="351.41" x2="312.29" y2="351.41"/><line class="f" x1="307.12" y1="270.17" x2="307.12" y2="351.41"/><line class="f" x1="312.29" y1="270.17" x2="307.12" y2="270.17"/><line class="f" x1="312.29" y1="351.41" x2="312.29" y2="270.17"/><rect class="d" x="357.31" y="293.34" width="2.41" height="1.04"/><line class="f" x1="359.72" y1="293.34" x2="357.31" y2="293.34"/><line class="f" x1="359.72" y1="294.37" x2="359.72" y2="293.33"/><line class="f" x1="357.31" y1="294.37" x2="359.72" y2="294.37"/><line class="f" x1="357.31" y1="293.34" x2="357.31" y2="294.37"/><rect class="d" x="356.27" y="273.63" width="1.04" height="20.74"/><line class="f" x1="356.27" y1="273.63" x2="356.27" y2="294.37"/><line class="f" x1="357.31" y1="273.63" x2="356.27" y2="273.63"/><line class="f" x1="357.31" y1="294.37" x2="357.31" y2="273.63"/><line class="f" x1="356.27" y1="294.37" x2="357.31" y2="294.37"/><rect class="d" x="357.31" y="273.63" width="2.41" height="1.04"/><line class="f" x1="357.31" y1="273.63" x2="357.31" y2="274.67"/><line class="f" x1="359.72" y1="273.63" x2="357.31" y2="273.63"/><line class="f" x1="359.72" y1="274.67" x2="359.72" y2="273.63"/><line class="f" x1="357.31" y1="274.67" x2="359.72" y2="274.67"/><rect class="d" x="389.91" y="107.7" width="48.29" height="3.46"/><line class="f" x1="438.2" y1="111.16" x2="438.2" y2="107.7"/><line class="f" x1="389.91" y1="111.16" x2="438.2" y2="111.16"/><line class="f" x1="389.91" y1="107.7" x2="389.91" y2="111.16"/><line class="f" x1="438.2" y1="107.7" x2="389.91" y2="107.7"/><rect class="d" x="389.91" y="107.7" width="48.29" height="3.46"/><line class="f" x1="438.2" y1="111.16" x2="438.2" y2="107.7"/><line class="f" x1="389.91" y1="111.16" x2="438.2" y2="111.16"/><line class="f" x1="389.91" y1="107.7" x2="389.91" y2="111.16"/><line class="f" x1="438.2" y1="107.7" x2="389.91" y2="107.7"/><polygon class="d" points="440.43 110.65 439.92 109.43 440.43 108.21 441.65 107.7 442.86 108.21 443.37 109.43 442.86 110.65 441.65 111.16 440.43 110.65"/><g class="g"><path class="f" d="M443.37,109.43a1.73,1.73,0,1,1-3.45,0"/><path class="f" d="M439.92,109.43a1.73,1.73,0,1,1,3.45,0"/></g><polygon class="d" points="323.15 510.56 322.64 509.34 323.15 508.11 324.37 507.61 325.58 508.11 326.09 509.34 325.58 510.56 324.37 511.06 323.15 510.56"/><g class="g"><path class="f" d="M326.09,509.34a1.73,1.73,0,0,1-3.45,0"/><path class="f" d="M322.64,509.34a1.73,1.73,0,1,1,3.45,0"/></g><rect class="d" x="327.81" y="508.25" width="27.6" height="2.18"/><line class="f" x1="327.82" y1="508.25" x2="327.82" y2="510.42"/><line class="f" x1="355.41" y1="508.25" x2="327.82" y2="508.25"/><line class="f" x1="355.41" y1="510.42" x2="355.41" y2="508.25"/><line class="f" x1="327.82" y1="510.42" x2="355.41" y2="510.42"/><g class="g"><path class="f" d="M446.13,475.05a1.73,1.73,0,0,1-1.72,1.73"/><path class="f" d="M444.41,466.4a1.73,1.73,0,0,1,1.72,1.73"/><path class="f" d="M447.86,475.05a3.46,3.46,0,0,1-3.45,3.45"/><path class="f" d="M444.41,464.68a3.45,3.45,0,0,1,3.45,3.45"/><path class="f" d="M424.75,446.7a1.73,1.73,0,0,1,1.72,1.73"/><path class="f" d="M416.12,448.43a1.73,1.73,0,0,1,1.73-1.73"/><path class="f" d="M424.75,445a3.45,3.45,0,0,1,3.44,3.46"/><path class="f" d="M414.4,448.43a3.45,3.45,0,0,1,3.45-3.46"/><path class="f" d="M426.47,494.75a1.72,1.72,0,0,1-1.72,1.73"/><path class="f" d="M417.85,496.48a1.72,1.72,0,0,1-1.73-1.73"/><path class="f" d="M428.19,494.75a3.45,3.45,0,0,1-3.44,3.46"/><path class="f" d="M417.85,498.21a3.45,3.45,0,0,1-3.45-3.46"/><path class="f" d="M451.65,361.78a5.63,5.63,0,0,1-2.24-4.49"/><path class="f" d="M462.17,357.29a5.63,5.63,0,0,1-2.24,4.49"/><path class="f" d="M459.93,361.78a6.9,6.9,0,0,1-8.28,0"/><path class="f" d="M462.17,357.29a5.63,5.63,0,0,1-2.24,4.49"/><path class="f" d="M459.93,361.78a6.87,6.87,0,0,1-4.14,1.38"/><path class="f" d="M460.1,357.29a3.54,3.54,0,0,1-1.41,2.83"/><path class="f" d="M458.69,360.12a4.82,4.82,0,0,1-5.8,0"/><path class="f" d="M452.89,360.12a3.54,3.54,0,0,1-1.41-2.83"/><path class="f" d="M483.5,466.64a6.72,6.72,0,0,1,0,10"/><path class="f" d="M487.18,345.88a.52.52,0,0,1,.52.52"/><path class="f" d="M487.7,360.57a.52.52,0,0,1-.52.52"/><path class="f" d="M469.24,361.09a.51.51,0,0,1-.51-.52"/><path class="f" d="M468.73,346.4a.51.51,0,0,1,.51-.52"/><path class="f" d="M469.76,350.2a.52.52,0,0,1,.52-.52"/><path class="f" d="M470.28,360.05a.52.52,0,0,1-.52-.52"/><path class="f" d="M486.66,359.53a.51.51,0,0,1-.51.52"/><path class="f" d="M486.15,349.68a.51.51,0,0,1,.51.52"/><path class="f" d="M478.94,349.4a.66.66,0,0,1-.12.33"/><path class="f" d="M478.59,351.56a.38.38,0,0,1-.76,0"/><path class="f" d="M477.6,349.73a.76.76,0,0,1-.11-.33"/><path class="f" d="M477.35,348a.86.86,0,0,1,1.72,0"/><path class="f" d="M478.68,349.33a.47.47,0,0,1-.94,0"/><path class="f" d="M478.82,349.73a.72.72,0,0,1-1.22,0"/></g><polygon class="d" points="360.33 167.7 359.86 165.97 360.32 164.25 361.58 162.98 367.56 159.54 369.29 159.07 371.02 159.54 372.28 160.81 376.15 167.5 372.58 167.97 369.25 169.34 366.39 171.54 364.2 174.4 360.33 167.7"/><polygon class="d" points="388.15 188.25 389.52 184.92 389.99 181.34 389.51 177.77 388.13 174.43 395.85 174.44 397.58 174.91 398.84 176.18 399.31 177.91 399.32 184.81 398.86 186.54 397.6 187.8 395.87 188.26 388.15 188.25"/><polygon class="d" points="367.63 203.09 361.64 199.62 360.38 198.35 359.91 196.63 360.37 194.9 364.22 188.22 366.42 191.08 369.29 193.28 372.62 194.67 376.19 195.14 372.34 201.83 371.08 203.09 369.35 203.55 367.63 203.09"/><polygon class="d" points="372.62 194.67 369.29 193.28 366.42 191.08 364.22 188.22 362.83 184.88 362.36 181.3 362.82 177.73 364.2 174.4 366.39 171.54 369.25 169.34 372.58 167.97 376.15 167.5 379.73 167.98 383.06 169.37 385.93 171.57 388.13 174.43 389.51 177.77 389.99 181.34 389.52 184.92 388.15 188.25 385.96 191.11 383.1 193.3 379.77 194.68 376.19 195.14 372.62 194.67"/><line class="f" x1="364.2" y1="174.4" x2="366.39" y2="171.54"/><line class="f" x1="366.39" y1="171.54" x2="369.25" y2="169.35"/><line class="f" x1="369.25" y1="169.34" x2="372.58" y2="167.97"/><line class="f" x1="372.58" y1="167.97" x2="376.15" y2="167.5"/><line class="f" x1="376.15" y1="167.5" x2="379.73" y2="167.98"/><line class="f" x1="379.73" y1="167.98" x2="383.06" y2="169.37"/><line class="f" x1="383.06" y1="169.37" x2="385.93" y2="171.57"/><line class="f" x1="385.93" y1="171.57" x2="388.13" y2="174.43"/><line class="f" x1="388.13" y1="174.43" x2="389.51" y2="177.77"/><line class="f" x1="389.51" y1="177.77" x2="389.99" y2="181.35"/><line class="f" x1="389.99" y1="181.35" x2="389.52" y2="184.92"/><line class="f" x1="389.52" y1="184.92" x2="388.15" y2="188.25"/><line class="f" x1="388.15" y1="188.25" x2="385.96" y2="191.11"/><line class="f" x1="385.96" y1="191.11" x2="383.1" y2="193.3"/><line class="f" x1="383.1" y1="193.3" x2="379.77" y2="194.68"/><line class="f" x1="379.77" y1="194.68" x2="376.19" y2="195.14"/><line class="f" x1="376.19" y1="195.14" x2="372.62" y2="194.67"/><line class="f" x1="372.62" y1="194.67" x2="369.29" y2="193.28"/><line class="f" x1="369.28" y1="193.28" x2="366.42" y2="191.08"/><line class="f" x1="366.42" y1="191.08" x2="364.22" y2="188.22"/><line class="f" x1="364.22" y1="188.22" x2="362.83" y2="184.88"/><line class="f" x1="362.83" y1="184.88" x2="362.36" y2="181.3"/><line class="f" x1="362.36" y1="181.3" x2="362.82" y2="177.73"/><line class="f" x1="362.82" y1="177.73" x2="364.2" y2="174.4"/><g class="g"><path class="f" d="M383.06,169.37h0a13.8,13.8,0,1,1-13.78,23.91"/><path class="f" d="M369.28,193.28h0a13.8,13.8,0,1,1,13.78-23.91"/></g><line class="f" x1="368.43" y1="161.03" x2="362.45" y2="164.48"/><line class="f" x1="360.33" y1="167.7" x2="364.2" y2="174.4"/><line class="f" x1="367.56" y1="159.54" x2="361.59" y2="162.98"/><line class="f" x1="376.15" y1="167.5" x2="372.28" y2="160.81"/><line class="f" x1="397.59" y1="184.81" x2="397.58" y2="177.9"/><line class="f" x1="395.85" y1="174.44" x2="388.13" y2="174.43"/><line class="f" x1="399.32" y1="184.81" x2="399.31" y2="177.9"/><line class="f" x1="388.15" y1="188.25" x2="395.87" y2="188.26"/><line class="f" x1="362.5" y1="198.13" x2="368.49" y2="201.59"/><line class="f" x1="372.34" y1="201.83" x2="376.19" y2="195.14"/><line class="f" x1="361.64" y1="199.62" x2="367.63" y2="203.09"/><line class="f" x1="364.22" y1="188.22" x2="360.37" y2="194.9"/><g class="g"><path class="f" d="M361.82,166.84a1.73,1.73,0,0,1,.63-2.36"/><path class="f" d="M368.43,161a1.76,1.76,0,0,1,1.72,0,1.78,1.78,0,0,1,.64.64"/><path class="f" d="M360.33,167.7a3.46,3.46,0,0,1,1.25-4.72"/><path class="f" d="M367.56,159.54a3.46,3.46,0,0,1,4.72,1.27"/><path class="f" d="M395.85,176.17a1.77,1.77,0,0,1,.87.23,1.74,1.74,0,0,1,.86,1.5"/><path class="f" d="M397.59,184.81a1.77,1.77,0,0,1-.23.87,1.72,1.72,0,0,1-1.49.86"/><path class="f" d="M395.85,174.44a3.48,3.48,0,0,1,3.46,3.46"/><path class="f" d="M399.32,184.82a3.45,3.45,0,0,1-3.45,3.45"/><path class="f" d="M370.85,201h0a1.72,1.72,0,0,1-2.36.63"/><path class="f" d="M362.5,198.13a1.72,1.72,0,0,1-.63-2.36"/><path class="f" d="M372.34,201.83h0a3.45,3.45,0,0,1-4.71,1.26"/><path class="f" d="M361.64,199.62h0a3.46,3.46,0,0,1-1.27-4.72"/></g><polygon class="d" points="460.56 201.04 458.84 200.57 457.58 199.31 457.12 197.58 457.12 196.54 457.32 196.05 457.8 195.85 457.35 195.69 457.08 195.29 457.12 194.81 457.12 172.69 457.42 171.96 458.15 171.65 457.42 171.35 457.12 170.62 457.12 143.31 457.42 142.57 458.15 142.27 457.42 141.96 457.12 141.23 456.81 141.97 456.08 142.27 430.56 142.27 429.93 142.06 429.56 141.51 429.22 142.16 428.49 142.27 410.55 142.27 407.91 141.74 405.67 140.25 404.18 138 403.65 135.36 403.65 119.8 404.18 117.16 405.67 114.91 407.91 113.41 410.55 112.89 428.49 112.89 429.22 113.19 429.52 113.92 429.52 112.89 486.44 112.89 486.44 200.34 486.24 200.83 485.75 201.04 460.56 201.04"/><line class="f" x1="457.11" y1="196.54" x2="457.11" y2="197.58"/><line class="f" x1="460.56" y1="201.04" x2="485.75" y2="201.04"/><line class="f" x1="486.44" y1="200.35" x2="486.44" y2="196.54"/><line class="f" x1="485.75" y1="195.85" x2="457.8" y2="195.85"/><line class="f" x1="486.44" y1="196.54" x2="486.44" y2="171.65"/><line class="f" x1="486.44" y1="171.65" x2="484.02" y2="171.65"/><line class="f" x1="477.52" y1="171.65" x2="475.45" y2="171.65"/><line class="f" x1="457.11" y1="172.69" x2="457.11" y2="194.81"/><line class="f" x1="458.15" y1="195.85" x2="475.45" y2="195.85"/><line class="f" x1="475.45" y1="171.65" x2="458.15" y2="171.65"/><line class="f" x1="485.06" y1="172.69" x2="485.06" y2="194.81"/><line class="f" x1="484.02" y1="195.85" x2="477.52" y2="195.85"/><line class="f" x1="477.52" y1="171.65" x2="484.02" y2="171.65"/><line class="f" x1="486.44" y1="142.27" x2="486.44" y2="171.65"/><line class="f" x1="486.44" y1="142.27" x2="484.02" y2="142.27"/><line class="f" x1="486.44" y1="171.65" x2="484.02" y2="171.65"/><line class="f" x1="477.52" y1="142.27" x2="475.45" y2="142.27"/><line class="f" x1="477.52" y1="171.65" x2="475.45" y2="171.65"/><line class="f" x1="457.11" y1="170.62" x2="457.11" y2="143.31"/><line class="f" x1="458.15" y1="142.27" x2="475.45" y2="142.27"/><line class="f" x1="475.45" y1="171.65" x2="458.15" y2="171.65"/><line class="f" x1="485.06" y1="170.62" x2="485.06" y2="143.31"/><line class="f" x1="484.02" y1="142.27" x2="477.52" y2="142.27"/><line class="f" x1="477.52" y1="171.65" x2="484.02" y2="171.65"/><line class="f" x1="403.65" y1="135.36" x2="403.65" y2="119.8"/><line class="f" x1="410.55" y1="112.89" x2="428.48" y2="112.89"/><line class="f" x1="429.52" y1="113.92" x2="429.52" y2="141.23"/><line class="f" x1="428.48" y1="142.27" x2="410.55" y2="142.27"/><line class="f" x1="475.45" y1="142.27" x2="458.15" y2="142.27"/><line class="f" x1="457.11" y1="141.23" x2="457.11" y2="123.9"/><line class="f" x1="485.06" y1="114.27" x2="458.15" y2="114.27"/><line class="f" x1="457.11" y1="115.31" x2="457.11" y2="121.83"/><line class="f" x1="477.52" y1="142.27" x2="484.02" y2="142.27"/><line class="f" x1="485.06" y1="141.23" x2="485.06" y2="114.27"/><line class="f" x1="457.11" y1="112.89" x2="486.44" y2="112.89"/><line class="f" x1="486.44" y1="112.89" x2="486.44" y2="142.27"/><line class="f" x1="457.11" y1="112.89" x2="457.11" y2="115.31"/><line class="f" x1="484.02" y1="142.27" x2="486.44" y2="142.27"/><line class="f" x1="477.52" y1="142.27" x2="475.45" y2="142.27"/><line class="f" x1="457.11" y1="121.83" x2="457.11" y2="123.9"/><line class="f" x1="429.52" y1="112.89" x2="457.11" y2="112.89"/><line class="f" x1="429.52" y1="112.89" x2="429.52" y2="115.31"/><line class="f" x1="457.11" y1="112.89" x2="457.11" y2="115.31"/><line class="f" x1="429.52" y1="121.83" x2="429.52" y2="123.9"/><line class="f" x1="457.11" y1="121.83" x2="457.11" y2="123.9"/><line class="f" x1="456.08" y1="142.27" x2="430.55" y2="142.27"/><line class="f" x1="429.52" y1="141.23" x2="429.52" y2="123.9"/><line class="f" x1="457.11" y1="123.9" x2="457.11" y2="141.23"/><line class="f" x1="456.08" y1="114.27" x2="430.55" y2="114.27"/><line class="f" x1="429.52" y1="115.31" x2="429.52" y2="121.83"/><line class="f" x1="457.11" y1="121.83" x2="457.11" y2="115.31"/><g class="g"><path class="f" d="M486.44,200.35a.69.69,0,0,1-.69.69"/><path class="f" d="M485.75,195.85a.69.69,0,0,1,.69.69"/><path class="f" d="M457.11,196.54a.7.7,0,0,1,.69-.69"/><path class="f" d="M458.15,195.85a1,1,0,0,1-1-1"/><path class="f" d="M457.11,172.69a1,1,0,0,1,1-1"/><path class="f" d="M457.11,143.31a1,1,0,0,1,1-1"/><path class="f" d="M458.15,171.65a1,1,0,0,1-1-1"/><path class="f" d="M428.48,112.89a1,1,0,0,1,1,1"/><path class="f" d="M429.52,141.23a1,1,0,0,1-1,1"/><path class="f" d="M458.15,142.27a1,1,0,0,1-1-1"/><path class="f" d="M430.55,142.27a1,1,0,0,1-1-1"/><path class="f" d="M457.11,141.23a1,1,0,0,1-1,1"/><path class="f" d="M410.55,142.27a6.91,6.91,0,0,1-6.9-6.91"/><path class="f" d="M403.65,119.8a6.9,6.9,0,0,1,6.9-6.91"/><path class="f" d="M456.08,119.11a51.72,51.72,0,0,1-25.53,0"/><path class="f" d="M480.23,170.62a51.86,51.86,0,0,1,0-27.31"/><path class="f" d="M480.23,194.81a52,52,0,0,1,0-22.12"/><path class="f" d="M458.15,119.11a17.69,17.69,0,0,1,22.08,22.12"/><path class="f" d="M460.56,201a3.46,3.46,0,0,1-3.45-3.46"/></g><polygon class="d" points="307.12 477.58 307.12 415.36 317.47 415.36 369.21 415.36 371.85 415.89 374.09 417.39 375.58 419.63 376.11 422.27 376.11 470.67 375.58 473.32 374.09 475.56 371.85 477.06 369.21 477.58 307.12 477.58"/><rect class="d" x="307.12" y="477.58" width="10.35" height="12.1"/><rect class="d" x="307.12" y="403.26" width="10.35" height="12.1"/><line class="f" x1="318.59" y1="444.52" x2="315.6" y2="443.69"/><line class="f" x1="318.59" y1="473.54" x2="315.6" y2="472.71"/><line class="f" x1="376.11" y1="422.28" x2="376.11" y2="470.67"/><line class="f" x1="369.21" y1="477.59" x2="307.12" y2="477.59"/><line class="f" x1="307.12" y1="477.59" x2="307.12" y2="415.36"/><line class="f" x1="307.12" y1="415.36" x2="369.21" y2="415.36"/><line class="f" x1="307.12" y1="477.59" x2="307.12" y2="489.68"/><line class="f" x1="307.12" y1="489.68" x2="317.47" y2="489.68"/><line class="f" x1="317.47" y1="489.68" x2="317.47" y2="477.58"/><line class="f" x1="317.47" y1="477.59" x2="307.12" y2="477.59"/><line class="f" x1="307.12" y1="403.26" x2="307.12" y2="415.36"/><line class="f" x1="307.12" y1="415.36" x2="317.47" y2="415.36"/><line class="f" x1="317.47" y1="415.36" x2="317.47" y2="403.26"/><line class="f" x1="317.47" y1="403.26" x2="307.12" y2="403.26"/><line class="f" x1="330.07" y1="477.59" x2="330.07" y2="415.36"/><line class="f" x1="335.25" y1="477.59" x2="335.25" y2="415.36"/><g class="g"><path class="f" d="M324.5,471.63a98.13,98.13,0,0,1,.34-22.53"/><path class="f" d="M324.5,471.63a1.72,1.72,0,0,1,0,.39,1.85,1.85,0,0,1-1.84,1.85h-.1"/><path class="f" d="M322.6,473.87c-.27,0-.55,0-.82,0a14.3,14.3,0,0,1-3.19-.35"/><path class="f" d="M318.59,473.54c-1.73.17-3.47.26-5.21.26-.83,0-1.66,0-2.49-.06"/><path class="f" d="M310.89,473.74l-.12,0a.39.39,0,0,1-.39-.4.25.25,0,0,1,0-.08"/><path class="f" d="M310.73,449q.22,4.69.23,9.39,0,7.44-.57,14.87"/><path class="f" d="M310.73,449a.65.65,0,0,1,0-.2,1,1,0,0,1,1-1,.79.79,0,0,1,.3.05"/><path class="f" d="M323.86,448.09a46.13,46.13,0,0,1-11.89-.18"/><path class="f" d="M323.86,448.09l.22,0a.8.8,0,0,1,.8.8.71.71,0,0,1,0,.24"/><path class="f" d="M376.11,470.67a6.91,6.91,0,0,1-6.9,6.92"/><path class="f" d="M369.21,415.36a6.91,6.91,0,0,1,6.9,6.92"/><path class="f" d="M324.5,442.6a98.13,98.13,0,0,1,.34-22.53"/><path class="f" d="M324.5,442.6a1.75,1.75,0,0,1,0,.4,1.85,1.85,0,0,1-1.84,1.85h-.1"/><path class="f" d="M322.6,444.84c-.27,0-.55,0-.82,0a14.92,14.92,0,0,1-3.19-.35"/><path class="f" d="M318.59,444.52c-1.73.17-3.47.25-5.21.25q-1.25,0-2.49-.06"/><path class="f" d="M310.89,444.71l-.12,0a.38.38,0,0,1-.39-.39.28.28,0,0,1,0-.09"/><path class="f" d="M310.73,420c.15,3.13.23,6.25.23,9.39q0,7.44-.57,14.86"/><path class="f" d="M310.73,420a.75.75,0,0,1,0-.21,1,1,0,0,1,1-1,1,1,0,0,1,.3.05"/><path class="f" d="M323.86,419.06a46.13,46.13,0,0,1-11.89-.18"/><path class="f" d="M323.86,419.06l.22,0a.8.8,0,0,1,.8.8.67.67,0,0,1,0,.24"/></g><rect class="d" x="335.58" y="353.83" width="25.87" height="20.74"/><line class="f" x1="361.45" y1="374.57" x2="335.58" y2="374.57"/><line class="f" x1="335.58" y1="374.57" x2="335.58" y2="353.83"/><line class="f" x1="335.58" y1="353.83" x2="361.45" y2="353.83"/><line class="f" x1="361.45" y1="353.83" x2="361.45" y2="374.57"/><line class="f" x1="360.15" y1="364.2" x2="336.87" y2="364.2"/><line class="f" x1="358.95" y1="370.3" x2="356.76" y2="357.87"/><line class="f" x1="356.48" y1="370.92" x2="355.58" y2="359.36"/><line class="f" x1="353.12" y1="356.72" x2="352.37" y2="369.41"/><line class="f" x1="349.3" y1="358.39" x2="350.31" y2="369.41"/><line class="f" x1="347.91" y1="357.75" x2="347.91" y2="371.33"/><line class="f" x1="343.98" y1="357.69" x2="344.91" y2="371.11"/><line class="f" x1="342.51" y1="357.92" x2="342.51" y2="370.18"/><line class="f" x1="338.63" y1="357.79" x2="337.88" y2="370.36"/><line class="f" x1="339.56" y1="358.65" x2="340.32" y2="369.28"/><rect class="d" x="307.12" y="353.83" width="28.46" height="20.74"/><line class="f" x1="335.58" y1="374.57" x2="307.12" y2="374.57"/><line class="f" x1="307.12" y1="374.57" x2="307.12" y2="353.83"/><line class="f" x1="307.12" y1="353.83" x2="335.58" y2="353.83"/><line class="f" x1="335.58" y1="353.83" x2="335.58" y2="374.57"/><line class="f" x1="334.15" y1="364.2" x2="308.54" y2="364.2"/><line class="f" x1="332.83" y1="370.3" x2="330.43" y2="357.87"/><line class="f" x1="330.12" y1="370.92" x2="329.12" y2="359.36"/><line class="f" x1="326.42" y1="356.72" x2="325.59" y2="369.41"/><line class="f" x1="322.21" y1="358.39" x2="323.32" y2="369.41"/><line class="f" x1="320.69" y1="357.75" x2="320.69" y2="371.33"/><line class="f" x1="316.36" y1="357.69" x2="317.39" y2="371.11"/><line class="f" x1="314.74" y1="357.92" x2="314.74" y2="370.18"/><line class="f" x1="310.47" y1="357.79" x2="309.65" y2="370.36"/><line class="f" x1="311.5" y1="358.65" x2="312.33" y2="369.28"/><polygon class="d" points="312.81 319.43 312.44 319.28 312.29 318.92 312.29 300.94 312.44 300.57 312.81 300.42 326.95 300.42 327.32 300.57 327.47 300.94 327.47 318.92 327.32 319.28 326.95 319.43 312.81 319.43"/><g class="g"><path class="f" d="M312.29,300.94a.52.52,0,0,1,.52-.52"/></g><line class="f" x1="326.95" y1="300.42" x2="312.81" y2="300.42"/><g class="g"><path class="f" d="M327,300.42a.52.52,0,0,1,.52.52"/></g><line class="f" x1="327.47" y1="318.92" x2="327.47" y2="300.94"/><g class="g"><path class="f" d="M327.47,318.92a.51.51,0,0,1-.52.51"/></g><line class="f" x1="312.81" y1="319.43" x2="326.95" y2="319.43"/><g class="g"><path class="f" d="M312.81,319.43a.51.51,0,0,1-.52-.51"/></g><line class="f" x1="312.29" y1="300.94" x2="312.29" y2="318.92"/><line class="f" x1="316.09" y1="301.98" x2="316.09" y2="317.88"/><line class="f" x1="316.6" y1="318.4" x2="325.92" y2="318.4"/><line class="f" x1="326.44" y1="317.88" x2="326.44" y2="301.98"/><line class="f" x1="325.92" y1="301.46" x2="316.6" y2="301.46"/><g class="g"><path class="f" d="M316.6,318.4a.51.51,0,0,1-.51-.52"/><path class="f" d="M326.44,317.88a.52.52,0,0,1-.52.52"/><path class="f" d="M325.92,301.46a.52.52,0,0,1,.52.52"/><path class="f" d="M316.09,302a.51.51,0,0,1,.51-.52"/></g><polygon class="d" points="313.75 310.54 313.5 309.93 313.75 309.32 314.36 309.06 315.81 309.2 316.14 309.31 317.96 309.55 318.2 309.67 318.3 309.93 318.2 310.18 317.96 310.31 316.14 310.54 315.81 310.65 314.36 310.79 313.75 310.54"/><line class="f" x1="314.36" y1="309.06" x2="315.81" y2="309.2"/><g class="g"><path class="f" d="M315.81,309.2a.76.76,0,0,1,.33.11"/></g><line class="f" x1="316.14" y1="309.31" x2="317.96" y2="309.54"/><g class="g"><path class="f" d="M318,309.54a.39.39,0,0,1,.34.39.38.38,0,0,1-.34.38"/></g><line class="f" x1="317.96" y1="310.31" x2="316.14" y2="310.54"/><g class="g"><path class="f" d="M316.14,310.54a.65.65,0,0,1-.33.11"/></g><line class="f" x1="315.81" y1="310.65" x2="314.36" y2="310.79"/><g class="g"><path class="f" d="M314.36,310.79a.87.87,0,0,1,0-1.73"/></g><line class="f" x1="315.22" y1="310.4" x2="315.73" y2="310.4"/><line class="f" x1="315.73" y1="309.46" x2="315.22" y2="309.46"/><line class="f" x1="315.22" y1="309.46" x2="315.22" y2="310.4"/><g class="g"><path class="f" d="M315.73,309.46a.47.47,0,0,1,0,.94"/><path class="f" d="M316.14,309.31a.74.74,0,0,1,.33.62.72.72,0,0,1-.33.61"/></g><polygon class="d" points="312.29 292.13 312.29 279.33 323.68 279.33 325.38 279.6 326.93 280.38 328.16 281.58 329.19 283.55 329.54 285.73 329.19 287.91 328.16 289.88 326.93 291.08 325.38 291.86 323.68 292.13 312.29 292.13"/><line class="f" x1="312.29" y1="292.13" x2="323.68" y2="292.13"/><line class="f" x1="312.29" y1="292.13" x2="312.29" y2="279.34"/><line class="f" x1="312.29" y1="279.33" x2="323.68" y2="279.33"/><line class="f" x1="316.43" y1="290.05" x2="323.68" y2="290.05"/><line class="f" x1="316.43" y1="281.41" x2="323.68" y2="281.41"/><line class="f" x1="316.43" y1="281.41" x2="316.43" y2="290.05"/><g class="g"><path class="f" d="M328.16,289.88a5.62,5.62,0,0,1-4.48,2.25"/><path class="f" d="M323.68,279.33a5.62,5.62,0,0,1,4.48,2.25"/><path class="f" d="M328.16,281.58a6.93,6.93,0,0,1,0,8.3"/><path class="f" d="M323.68,279.33a5.62,5.62,0,0,1,4.48,2.25"/><path class="f" d="M328.16,281.58a7,7,0,0,1,1.38,4.15"/><path class="f" d="M323.68,281.41a3.49,3.49,0,0,1,2.82,1.42"/><path class="f" d="M326.5,282.83a4.82,4.82,0,0,1,0,5.8"/><path class="f" d="M326.5,288.63a3.52,3.52,0,0,1-2.82,1.42"/></g><rect class="d" x="446.13" y="270.17" width="43.12" height="20.74"/><line class="f" x1="489.25" y1="290.92" x2="446.13" y2="290.92"/><line class="f" x1="446.13" y1="290.92" x2="446.13" y2="270.17"/><line class="f" x1="446.13" y1="270.17" x2="489.25" y2="270.17"/><line class="f" x1="489.25" y1="270.17" x2="489.25" y2="290.92"/><line class="f" x1="487.09" y1="280.54" x2="448.29" y2="280.54"/><line class="f" x1="485.09" y1="286.65" x2="481.45" y2="274.22"/><line class="f" x1="480.98" y1="287.27" x2="479.47" y2="275.71"/><line class="f" x1="475.37" y1="273.07" x2="474.12" y2="285.75"/><line class="f" x1="469.01" y1="274.73" x2="470.69" y2="285.75"/><line class="f" x1="466.69" y1="274.1" x2="466.69" y2="287.68"/><line class="f" x1="460.14" y1="274.04" x2="461.69" y2="287.46"/><line class="f" x1="457.68" y1="274.26" x2="457.68" y2="286.52"/><line class="f" x1="451.22" y1="274.14" x2="449.97" y2="286.71"/><line class="f" x1="452.77" y1="274.99" x2="454.04" y2="285.62"/><rect class="d" x="403.01" y="270.17" width="43.12" height="20.74"/><line class="f" x1="446.13" y1="290.92" x2="403.01" y2="290.92"/><line class="f" x1="403.01" y1="290.92" x2="403.01" y2="270.17"/><line class="f" x1="403.01" y1="270.17" x2="446.13" y2="270.17"/><line class="f" x1="446.13" y1="270.17" x2="446.13" y2="290.92"/><line class="f" x1="443.98" y1="280.54" x2="405.17" y2="280.54"/><line class="f" x1="441.98" y1="286.65" x2="438.33" y2="274.22"/><line class="f" x1="437.86" y1="287.27" x2="436.36" y2="275.71"/><line class="f" x1="432.25" y1="273.07" x2="431.01" y2="285.75"/><line class="f" x1="425.89" y1="274.73" x2="427.57" y2="285.75"/><line class="f" x1="423.57" y1="274.1" x2="423.57" y2="287.68"/><line class="f" x1="417.02" y1="274.04" x2="418.57" y2="287.46"/><line class="f" x1="414.56" y1="274.26" x2="414.56" y2="286.52"/><line class="f" x1="408.1" y1="274.14" x2="406.86" y2="286.71"/><line class="f" x1="409.65" y1="274.99" x2="410.92" y2="285.62"/><polygon class="d" points="447.24 262.42 443.59 261.37 441.3 261.37 433.43 259.45 433.43 257.53 444.18 257.53 445.88 256.15 448.02 255.41 450.31 255.41 452.44 256.15 454.14 257.53 464.89 257.53 464.89 259.45 457.03 261.37 454.74 261.37 451.08 262.42 447.24 262.42"/><line class="f" x1="464.89" y1="257.53" x2="454.14" y2="257.53"/><line class="f" x1="464.89" y1="259.45" x2="464.89" y2="257.53"/><line class="f" x1="457.03" y1="261.37" x2="464.89" y2="259.45"/><line class="f" x1="454.73" y1="261.37" x2="457.02" y2="261.37"/><line class="f" x1="451.08" y1="262.42" x2="454.73" y2="261.37"/><line class="f" x1="447.24" y1="262.42" x2="451.08" y2="262.42"/><line class="f" x1="443.59" y1="261.37" x2="447.24" y2="262.42"/><line class="f" x1="441.3" y1="261.37" x2="443.59" y2="261.37"/><line class="f" x1="433.43" y1="259.45" x2="441.3" y2="261.37"/><line class="f" x1="433.43" y1="257.53" x2="433.43" y2="259.45"/><line class="f" x1="444.18" y1="257.53" x2="433.43" y2="257.53"/><line class="f" x1="445.88" y1="256.15" x2="444.18" y2="257.53"/><line class="f" x1="448.02" y1="255.41" x2="445.88" y2="256.15"/><line class="f" x1="450.31" y1="255.41" x2="448.02" y2="255.41"/><line class="f" x1="452.44" y1="256.15" x2="450.31" y2="255.41"/><line class="f" x1="454.14" y1="257.53" x2="452.44" y2="256.15"/><line class="f" x1="464.89" y1="257.53" x2="433.43" y2="257.53"/><line class="f" x1="441.3" y1="261.37" x2="457.03" y2="261.37"/><line class="f" x1="464.89" y1="259.45" x2="464.89" y2="257.53"/><line class="f" x1="435.53" y1="258.3" x2="437.63" y2="258.3"/><line class="f" x1="437.63" y1="258.3" x2="437.63" y2="258.78"/><line class="f" x1="437.63" y1="258.78" x2="435.53" y2="258.78"/><line class="f" x1="435.53" y1="258.78" x2="435.53" y2="258.3"/><line class="f" x1="438.15" y1="258.3" x2="440.25" y2="258.3"/><line class="f" x1="440.25" y1="258.3" x2="440.25" y2="258.78"/><line class="f" x1="440.25" y1="258.78" x2="438.15" y2="258.78"/><line class="f" x1="438.15" y1="258.78" x2="438.15" y2="258.3"/><line class="f" x1="464.89" y1="259.45" x2="433.43" y2="259.45"/><line class="f" x1="440.77" y1="258.78" x2="440.77" y2="258.3"/><line class="f" x1="440.77" y1="258.3" x2="441.82" y2="258.3"/><line class="f" x1="441.82" y1="258.3" x2="441.82" y2="258.78"/><line class="f" x1="441.82" y1="258.78" x2="440.77" y2="258.78"/><g class="g"><path class="f" d="M444.18,257.53a6.7,6.7,0,0,1,10,0"/></g><line class="f" x1="489.25" y1="292.64" x2="489.25" y2="299.56"/><line class="f" x1="489.25" y1="303.36" x2="489.25" y2="304.14"/><line class="f" x1="489.25" y1="307.94" x2="489.25" y2="308.72"/><line class="f" x1="489.25" y1="312.52" x2="489.25" y2="319.43"/><line class="f" x1="489.25" y1="323.24" x2="489.25" y2="323.75"/><line class="f" x1="489.25" y1="323.75" x2="489.25" y2="330.67"/><line class="f" x1="320.17" y1="228.67" x2="320.17" y2="222.87"/><line class="f" x1="320.17" y1="222.87" x2="317.82" y2="224.77"/><line class="f" x1="317.82" y1="224.77" x2="315.47" y2="222.87"/><line class="f" x1="315.47" y1="222.87" x2="315.47" y2="228.67"/><g class="g"><path d="M467.83,378a6.39,6.39,0,0,1,.25-1.94,2.43,2.43,0,0,1,.74-1.13,1.88,1.88,0,0,1,1.22-.4,2.06,2.06,0,0,1,1,.22,1.89,1.89,0,0,1,.68.64,3.23,3.23,0,0,1,.42,1,6.76,6.76,0,0,1,.15,1.6,6.36,6.36,0,0,1-.24,1.93,2.38,2.38,0,0,1-.74,1.13,1.84,1.84,0,0,1-1.23.41,1.88,1.88,0,0,1-1.54-.71A4.51,4.51,0,0,1,467.83,378Zm.86,0a4.28,4.28,0,0,0,.39,2.23,1.14,1.14,0,0,0,1,.55,1.15,1.15,0,0,0,1-.56,6.54,6.54,0,0,0,0-4.45,1.18,1.18,0,0,0-1-.55,1.08,1.08,0,0,0-.91.49A4.27,4.27,0,0,0,468.69,378Z"/><path d="M473.07,379.57l.83-.11a1.88,1.88,0,0,0,.49,1,1.2,1.2,0,0,0,.84.31,1.35,1.35,0,0,0,1-.41,1.37,1.37,0,0,0,.4-1,1.25,1.25,0,0,0-.37-.94,1.3,1.3,0,0,0-.95-.38,2.13,2.13,0,0,0-.59.1l.09-.74h.14a1.73,1.73,0,0,0,.95-.27,1,1,0,0,0,.43-.86,1,1,0,0,0-.31-.76,1.1,1.1,0,0,0-.8-.3,1.16,1.16,0,0,0-.81.3,1.58,1.58,0,0,0-.41.92l-.83-.15a2.14,2.14,0,0,1,.69-1.3,2,2,0,0,1,1.34-.46,2.19,2.19,0,0,1,1,.24,1.82,1.82,0,0,1,.72.65,1.74,1.74,0,0,1,.24.88,1.41,1.41,0,0,1-.23.8.62.62,0,1,0,.23,1.15,1.71,1.71,0,0,1,.34,1.09,2,2,0,0,1-.65,1.51,2.29,2.29,0,0,1-1.64.62,2.17,2.17,0,0,1-1.48-.53A2.11,2.11,0,0,1,473.07,379.57Z"/></g><g class="g"><path d="M495.25,439a6,6,0,0,1,.25-1.93,2.45,2.45,0,0,1,.73-1.14,1.91,1.91,0,0,1,1.23-.39,1.93,1.93,0,0,1,1,.22,1.71,1.71,0,0,1,.68.63,3.34,3.34,0,0,1,.42,1,6.26,6.26,0,0,1,.16,1.6,6.32,6.32,0,0,1-.25,1.93,2.45,2.45,0,0,1-.73,1.14,1.93,1.93,0,0,1-1.23.4,1.85,1.85,0,0,1-1.54-.71A4.44,4.44,0,0,1,495.25,439Zm.85,0a4.28,4.28,0,0,0,.39,2.23,1.16,1.16,0,0,0,1,.55,1.14,1.14,0,0,0,1-.55,4.28,4.28,0,0,0,.39-2.23,4.24,4.24,0,0,0-.39-2.22,1.14,1.14,0,0,0-1-.55,1.08,1.08,0,0,0-.92.48A4.39,4.39,0,0,0,496.1,439Z"/><path d="M504.85,441.54v.8h-4.48a1.65,1.65,0,0,1,.1-.58,3.36,3.36,0,0,1,.55-.9,8,8,0,0,1,1.09-1,9,9,0,0,0,1.49-1.44,1.69,1.69,0,0,0,.39-1,1.08,1.08,0,0,0-.36-.83,1.25,1.25,0,0,0-.92-.34,1.3,1.3,0,0,0-1,.36,1.35,1.35,0,0,0-.36,1l-.86-.09a2.11,2.11,0,0,1,.66-1.46,2.23,2.23,0,0,1,1.54-.5,2.13,2.13,0,0,1,1.54.54,1.78,1.78,0,0,1,.57,1.34,2,2,0,0,1-.16.8,3.11,3.11,0,0,1-.56.83,12.63,12.63,0,0,1-1.28,1.2,11.64,11.64,0,0,0-1,.85,2.75,2.75,0,0,0-.35.45Z"/></g><line class="f" x1="293.19" y1="612.4" x2="403.36" y2="612.4"/><line class="f" x1="403.36" y1="612.4" x2="403.36" y2="525.98"/><line class="f" x1="403.36" y1="525.98" x2="407.36" y2="525.98"/><line class="f" x1="407.36" y1="525.98" x2="407.36" y2="512.15"/><line class="f" x1="407.36" y1="512.15" x2="407.36" y2="340.69"/><line class="f" x1="407.36" y1="340.69" x2="497.39" y2="340.69"/><line class="f" x1="497.39" y1="340.69" x2="497.39" y2="202.76"/><line class="f" x1="497.39" y1="202.76" x2="497.39" y2="92.15"/><line class="f" x1="497.39" y1="92.15" x2="493.25" y2="92.15"/><line class="f" x1="493.25" y1="92.15" x2="493.25" y2="5.72"/><line class="f" x1="493.25" y1="5.72" x2="295.04" y2="5.72"/><line class="f" x1="295.05" y1="5.72" x2="295.05" y2="92.15"/><line class="f" x1="295.05" y1="92.15" x2="293.19" y2="92.15"/><line class="f" x1="293.19" y1="92.15" x2="293.19" y2="340.69"/><line class="f" x1="293.19" y1="340.69" x2="293.19" y2="525.98"/><line class="f" x1="293.19" y1="525.98" x2="293.19" y2="612.4"/><path class="h" d="M421.24,65.24v7h-.71V65.87h-1.65v-.63Z"/><path class="h" d="M422.93,71.73a.53.53,0,0,1,.53-.54.54.54,0,0,1,.53.54.54.54,0,0,1-.53.55A.54.54,0,0,1,422.93,71.73Z"/><path class="h" d="M424.94,68.73c0-2.23,1.17-3.55,2.78-3.55s2.8,1.32,2.8,3.55-1.18,3.56-2.8,3.56S424.94,71,424.94,68.73Zm4.84,0c0-1.87-.84-2.9-2.06-2.9s-2.06,1-2.06,2.9.84,2.9,2.06,2.9S429.78,70.6,429.78,68.73Z"/><path class="h" d="M436.3,70.17c0,1.19-.83,2.12-2.54,2.12a3.59,3.59,0,0,1-2.5-.9l.35-.57a3,3,0,0,0,2.14.81c1.19,0,1.82-.58,1.82-1.43s-.56-1.46-2.34-1.46h-1.48l.36-3.5h3.82v.63h-3.19l-.25,2.23h.9C435.5,68.1,436.3,68.93,436.3,70.17Z"/><path class="h" d="M355,549.19v7h-.72v-6.36h-1.64v-.63Z"/><path class="h" d="M356.66,555.68a.53.53,0,0,1,.53-.54.54.54,0,0,1,.54.54.55.55,0,0,1-.54.55A.54.54,0,0,1,356.66,555.68Z"/><path class="h" d="M358.67,552.68c0-2.23,1.16-3.55,2.78-3.55s2.8,1.32,2.8,3.55-1.18,3.56-2.8,3.56S358.67,554.91,358.67,552.68Zm4.84,0c0-1.87-.84-2.9-2.06-2.9s-2.05,1-2.05,2.9.84,2.9,2.05,2.9S363.51,554.55,363.51,552.68Z"/><path class="h" d="M370,554.12c0,1.19-.83,2.12-2.54,2.12a3.61,3.61,0,0,1-2.5-.9l.35-.57a3,3,0,0,0,2.14.81c1.19,0,1.82-.58,1.82-1.43s-.56-1.46-2.34-1.46h-1.48l.36-3.5h3.82v.63h-3.2l-.23,2.23h.89C369.23,552.05,370,552.88,370,554.12Z"/><path class="h" d="M355.68,387.77v7H355V388.4h-1.64v-.63Z"/><path class="h" d="M357.37,394.26a.53.53,0,0,1,.53-.54.54.54,0,0,1,.54.54.55.55,0,0,1-.54.55A.54.54,0,0,1,357.37,394.26Z"/><path class="h" d="M359.38,391.26c0-2.23,1.16-3.55,2.78-3.55s2.8,1.32,2.8,3.55-1.18,3.56-2.8,3.56S359.38,393.49,359.38,391.26Zm4.84,0c0-1.87-.84-2.9-2.06-2.9s-2.05,1-2.05,2.9.84,2.9,2.05,2.9S364.22,393.13,364.22,391.26Z"/><path class="h" d="M371.94,392.92h-1.4v1.84h-.72v-1.84h-3.94v-.52l3.7-4.63h.8l-3.57,4.51h3v-1.62h.7v1.62h1.4Z"/><path class="h" d="M329.81,291v7h-.71v-6.36h-1.65V291Z"/><path class="h" d="M331.5,297.48a.53.53,0,0,1,.53-.54.54.54,0,0,1,.54.54.55.55,0,0,1-.54.55A.54.54,0,0,1,331.5,297.48Z"/><path class="h" d="M333.51,294.48c0-2.23,1.16-3.55,2.78-3.55s2.8,1.32,2.8,3.55-1.18,3.56-2.8,3.56S333.51,296.71,333.51,294.48Zm4.84,0c0-1.87-.84-2.9-2.06-2.9s-2.05,1-2.05,2.9.84,2.9,2.05,2.9S338.35,296.35,338.35,294.48Z"/><path class="h" d="M344.66,296c0,1.17-.85,2.07-2.54,2.07a3.63,3.63,0,0,1-2.51-.9l.35-.57a3,3,0,0,0,2.16.81c1.16,0,1.8-.54,1.8-1.41s-.59-1.39-1.89-1.39h-.5v-.53l1.94-2.43H339.9V291h4.49v.5l-2,2.49C343.91,294.06,344.66,294.85,344.66,296Z"/><path class="h" d="M421.24,211.12v7h-.71v-6.35h-1.65v-.64Z"/><path class="h" d="M422.93,217.61a.53.53,0,0,1,.53-.54.54.54,0,0,1,.53.54.54.54,0,0,1-.53.55A.54.54,0,0,1,422.93,217.61Z"/><path class="h" d="M424.94,214.61c0-2.22,1.17-3.55,2.78-3.55s2.8,1.33,2.8,3.55-1.18,3.56-2.8,3.56S424.94,216.84,424.94,214.61Zm4.84,0c0-1.87-.84-2.89-2.06-2.89s-2.06,1-2.06,2.89.84,2.9,2.06,2.9S429.78,216.48,429.78,214.61Z"/><path class="h" d="M436.32,217.47v.64h-4.9v-.51l2.9-2.85c.79-.78.94-1.25.94-1.72,0-.81-.57-1.31-1.64-1.31a2.38,2.38,0,0,0-1.9.77l-.51-.43a3.14,3.14,0,0,1,2.47-1c1.42,0,2.32.72,2.32,1.88a2.88,2.88,0,0,1-1.15,2.19l-2.37,2.34Z"/><path class="h" d="M421.24,305.16v7h-.71V305.8h-1.65v-.64Z"/><path class="h" d="M422.93,311.65a.53.53,0,0,1,.53-.54.54.54,0,0,1,.53.54.54.54,0,0,1-.53.55A.54.54,0,0,1,422.93,311.65Z"/><path class="h" d="M424.94,308.65c0-2.22,1.17-3.55,2.78-3.55s2.8,1.33,2.8,3.55-1.18,3.56-2.8,3.56S424.94,310.88,424.94,308.65Zm4.84,0c0-1.87-.84-2.89-2.06-2.89s-2.06,1-2.06,2.89.84,2.9,2.06,2.9S429.78,310.52,429.78,308.65Z"/><path class="h" d="M433.48,305.16v7h-.72V305.8h-1.64v-.64Z"/></svg>