<svg xmlns="http://www.w3.org/2000/svg" xmlns:xlink="http://www.w3.org/1999/xlink" viewBox="0 0 790.58 618.13"><defs><style>.a,.p{fill:none;}.b{clip-path:url(#a);}.c{clip-path:url(#d);}.d{clip-path:url(#g);}.e{clip-path:url(#j);}.f{clip-path:url(#m);}.g{clip-path:url(#p);}.h{clip-path:url(#s);}.i{clip-path:url(#v);}.j{fill:#595a5c;}.k{fill:#b6906c;}.l{fill:#fff;}.m{fill:#231f20;}.n{fill:url(#y);}.o{fill:url(#z);}.p{stroke:#000;stroke-linecap:round;stroke-linejoin:round;stroke-width:0.35px;}.q{clip-path:url(#aa);}.r{fill:#58595b;}</style><clipPath id="a"><rect class="a" y="59.93" width="90" height="59.93"/></clipPath><clipPath id="d"><rect class="a" x="90" y="59.93" width="90" height="59.93"/></clipPath><clipPath id="g"><rect class="a" width="90" height="59.93"/></clipPath><clipPath id="j"><rect class="a" x="90" width="90" height="59.93"/></clipPath><clipPath id="m"><rect class="a" y="50" width="50" height="50"/></clipPath><clipPath id="p"><rect class="a" x="50" y="50" width="50" height="50"/></clipPath><clipPath id="s"><rect class="a" width="50" height="50"/></clipPath><clipPath id="v"><rect class="a" x="50" width="50" height="50"/></clipPath><pattern id="y" width="100" height="100" patternTransform="matrix(3.5, 0, 0, -3.49, -9146.37, 51245.28)" patternUnits="userSpaceOnUse" viewBox="0 0 100 100"><rect class="a" width="100" height="100"/><g class="f"><g class="f"><g class="f"><image width="210" height="210" transform="matrix(0.24, 0, 0, -0.24, -0.2, 100.2)" xlink:href="B104_pudorys1.png"/></g></g></g><g class="g"><g class="g"><g class="g"><image width="209" height="210" transform="matrix(0.24, 0, 0, -0.24, 49.96, 100.2)" xlink:href="B104_pudorys2.png"/></g></g></g><g class="h"><g class="h"><g class="h"><image width="210" height="209" transform="matrix(0.24, 0, 0, -0.24, -0.2, 50.04)" xlink:href="B104_pudorys3.png"/></g></g></g><g class="i"><g class="i"><g class="i"><image width="209" height="209" transform="matrix(0.24, 0, 0, -0.24, 49.96, 50.04)" xlink:href="B104_pudorys4.png"/></g></g></g></pattern><pattern id="z" width="180" height="119.85" patternTransform="matrix(0, -3.49, -3.5, 0, 34949.36, 14765.17)" patternUnits="userSpaceOnUse" viewBox="0 0 180 119.85"><rect class="a" width="180" height="119.85"/><g class="b"><g class="b"><g class="b"><image width="376" height="251" transform="matrix(0.24, 0, 0, -0.24, -0.2, 120.05)" xlink:href="B104_pudorys5.png"/></g></g></g><g class="c"><g class="c"><g class="c"><image width="376" height="251" transform="matrix(0.24, 0, 0, -0.24, 89.8, 120.05)" xlink:href="B104_pudorys6.png"/></g></g></g><g class="d"><g class="d"><g class="d"><image width="376" height="251" transform="matrix(0.24, 0, 0, -0.24, -0.2, 60.05)" xlink:href="B104_pudorys7.png"/></g></g></g><g class="e"><g class="e"><g class="e"><image width="376" height="251" transform="matrix(0.24, 0, 0, -0.24, 89.8, 60.05)" xlink:href="B104_pudorys8.png"/></g></g></g></pattern><clipPath id="aa"><polygon class="a" points="242.04 167.64 242.04 255 237.84 255 237.84 450.49 552.75 450.49 552.75 255 548.55 255 548.55 167.64 242.04 167.64"/></clipPath></defs><path class="j" d="M55.31,597.13H57.1V609.9H55.31Zm.92,6.11h4.09a1.89,1.89,0,0,0,1-.27,1.82,1.82,0,0,0,.68-.77,2.67,2.67,0,0,0,.24-1.16,2.7,2.7,0,0,0-.24-1.16,1.82,1.82,0,0,0-1.7-1H56.23v-1.7h4a4.09,4.09,0,0,1,2,.48A3.45,3.45,0,0,1,63.62,599a4.64,4.64,0,0,1,0,4.11,3.34,3.34,0,0,1-1.35,1.36,4,4,0,0,1-2,.49h-4Z"/><path class="j" d="M67.7,606.33a2.07,2.07,0,0,0,.49,1.48,1.76,1.76,0,0,0,1.37.52,1.89,1.89,0,0,0,1.37-.46,1.79,1.79,0,0,0,.48-1.33l.12,1.91A2.58,2.58,0,0,1,69.06,610a2.89,2.89,0,0,1-2.33-1,4.08,4.08,0,0,1-.82-2.73v-5.55H67.7Zm.22-7.86a1.93,1.93,0,0,1-.56-1.5,2.07,2.07,0,0,1,.56-1.57,2.56,2.56,0,0,1,3.18,0,2.08,2.08,0,0,1,.57,1.56,1.94,1.94,0,0,1-.57,1.5,2.65,2.65,0,0,1-3.18,0Zm2.26-.86a.94.94,0,0,0,.24-.68,1,1,0,0,0-.24-.7.91.91,0,0,0-.67-.25.92.92,0,0,0-.67.25,1,1,0,0,0-.23.7,1,1,0,0,0,.23.68.92.92,0,0,0,.67.24A.9.9,0,0,0,70.18,597.61Zm1.23,3.17h1.78v9.12H71.41Z"/><path class="j" d="M77.1,609.63A2.82,2.82,0,0,1,76,608.36a5.08,5.08,0,0,1-.36-2v-2a5.05,5.05,0,0,1,.36-2,2.71,2.71,0,0,1,1-1.27,3,3,0,0,1,1.65-.44,2.71,2.71,0,0,1,1.48.42,3.22,3.22,0,0,1,1.09,1.19l-.18,1.86a2.19,2.19,0,0,0-.22-1,1.48,1.48,0,0,0-.61-.63,2,2,0,0,0-1-.21,1.71,1.71,0,0,0-1.37.55,2.26,2.26,0,0,0-.49,1.56v2a2.19,2.19,0,0,0,.49,1.54,1.74,1.74,0,0,0,1.37.54,1.93,1.93,0,0,0,1-.23,1.45,1.45,0,0,0,.61-.64,2.25,2.25,0,0,0,.22-1l.12,1.92a2.66,2.66,0,0,1-.89,1.14,2.56,2.56,0,0,1-1.53.45A3.19,3.19,0,0,1,77.1,609.63Zm4-12.5H82.9V609.9H81.11Z"/><path class="j" d="M87.09,609.57a3.09,3.09,0,0,1-1.29-1.36,4.85,4.85,0,0,1-.44-2.15v-1.48a4.71,4.71,0,0,1,.44-2.12,3.12,3.12,0,0,1,1.29-1.35,4.71,4.71,0,0,1,4.06,0,3.12,3.12,0,0,1,1.29,1.35,4.71,4.71,0,0,1,.44,2.12v1.51a4.79,4.79,0,0,1-.44,2.13,3.12,3.12,0,0,1-1.29,1.35,4.62,4.62,0,0,1-4.06,0Zm3.49-1.83a2.43,2.43,0,0,0,.51-1.65v-1.51a2.43,2.43,0,0,0-.51-1.65,1.88,1.88,0,0,0-1.46-.58,1.85,1.85,0,0,0-1.45.58,2.38,2.38,0,0,0-.52,1.65v1.51a2.38,2.38,0,0,0,.52,1.65,1.82,1.82,0,0,0,1.45.59A1.85,1.85,0,0,0,90.58,607.74Z"/><path class="j" d="M95.43,600.78h1.79v9.12H95.43Zm4.42,1.72a2.16,2.16,0,0,0-.83-.15,1.83,1.83,0,0,0-1.33.47,1.79,1.79,0,0,0-.47,1.31L97,602.37a3.32,3.32,0,0,1,1.09-1.27,2.58,2.58,0,0,1,1.48-.45,3.39,3.39,0,0,1,1.13.18,2.62,2.62,0,0,1,.88.53l-1.17,1.58A1.56,1.56,0,0,0,99.85,602.5Z"/><path class="j" d="M102.15,600.78H104l2.81,7.93-1,1.94Zm8.07,0L106.34,612a2.6,2.6,0,0,1-.56,1,1.87,1.87,0,0,1-.84.52,4,4,0,0,1-1.23.16h-.36V612h.36a1.46,1.46,0,0,0,.8-.2,1.74,1.74,0,0,0,.51-.7l3.38-10.31Z"/><path class="j" d="M113.51,609.88a5.76,5.76,0,0,1-1.32-.48,4.89,4.89,0,0,1-1.13-.79l1.06-1.31a5.86,5.86,0,0,0,1.47.85,4.18,4.18,0,0,0,1.44.28,3.11,3.11,0,0,0,1.6-.33,1.1,1.1,0,0,0,.53-1,.79.79,0,0,0-.29-.66,1.66,1.66,0,0,0-.72-.29c-.29,0-.69-.1-1.22-.14h-.15l-.14,0h-.15a6.45,6.45,0,0,1-1.5-.26,2,2,0,0,1-1-.7,2.38,2.38,0,0,1-.41-1.49,3.07,3.07,0,0,1,.39-1.61,2.41,2.41,0,0,1,1.18-1,5.29,5.29,0,0,1,2-.32,6.38,6.38,0,0,1,2.6.52,6.16,6.16,0,0,1,1.13.66l-1.08,1.31a5.59,5.59,0,0,0-1.35-.66,4,4,0,0,0-1.3-.22,2.44,2.44,0,0,0-1.37.31,1.08,1.08,0,0,0-.46.94.64.64,0,0,0,.26.55,1.72,1.72,0,0,0,.66.25c.26,0,.64.07,1.12.1h.34a7.67,7.67,0,0,1,1.63.25,2.24,2.24,0,0,1,1.13.77,2.62,2.62,0,0,1,.45,1.65,2.92,2.92,0,0,1-.42,1.63,2.54,2.54,0,0,1-1.27,1A5.88,5.88,0,0,1,115,610,7.38,7.38,0,0,1,113.51,609.88Z"/><path class="j" d="M126,597.13h1.8V609.9H126Zm2.6,12.5a2.39,2.39,0,0,1-.93-1.16l.13-1.91a2.22,2.22,0,0,0,.21,1,1.48,1.48,0,0,0,.61.63,1.93,1.93,0,0,0,1,.22,1.74,1.74,0,0,0,1.37-.54,2.18,2.18,0,0,0,.49-1.53v-2a2.26,2.26,0,0,0-.49-1.56,1.71,1.71,0,0,0-1.37-.55,2,2,0,0,0-1,.21,1.36,1.36,0,0,0-.61.62,2.12,2.12,0,0,0-.21,1l-.19-1.76a3.37,3.37,0,0,1,1.08-1.24,2.67,2.67,0,0,1,1.49-.43,3,3,0,0,1,1.65.43,2.9,2.9,0,0,1,1.06,1.27,5.1,5.1,0,0,1,.36,2v2a4.94,4.94,0,0,1-.37,2,2.79,2.79,0,0,1-1.08,1.26,3.25,3.25,0,0,1-1.71.44A2.73,2.73,0,0,1,128.57,609.63Z"/><path class="j" d="M134.46,600.78h1.82l2.81,7.93-1,1.94Zm8.07,0L138.65,612a2.6,2.6,0,0,1-.56,1,1.87,1.87,0,0,1-.84.52,4,4,0,0,1-1.23.16h-.36V612H136a1.46,1.46,0,0,0,.8-.2,1.74,1.74,0,0,0,.51-.7l3.37-10.31Z"/><path class="j" d="M143.57,600.78h4.12v1.62h-4.12Zm1.46,8.56a2.77,2.77,0,0,1-.52-1.81v-9.4h1.8v9.42a.84.84,0,0,0,.13.51.46.46,0,0,0,.39.18h.86V610h-1A2,2,0,0,1,145,609.34Z"/><path class="j" d="M151.94,606.33a2.07,2.07,0,0,0,.49,1.48,1.76,1.76,0,0,0,1.37.52,1.91,1.91,0,0,0,1.37-.46,1.79,1.79,0,0,0,.48-1.33l.12,1.91A2.58,2.58,0,0,1,153.3,610a2.89,2.89,0,0,1-2.33-1,4.08,4.08,0,0,1-.82-2.73v-5.55h1.79Zm3.71-5.55h1.78v9.12h-1.78Z"/><rect class="k" x="612.92" y="591.68" width="35.43" height="2.83"/><path class="l" d="M648.48,594.64H612.79v-3.08h35.69ZM613,594.39h35.19v-2.58H613Z"/><rect class="k" x="612.92" y="601.6" width="70.74" height="2.83"/><path class="l" d="M683.78,604.56h-71v-3.08h71ZM613,604.31h70.49v-2.58H613Z"/><rect class="k" x="612.92" y="612.72" width="177.16" height="2.84"/><path class="l" d="M790.21,615.68H612.79V612.6H790.21ZM613,615.43H790v-2.58H613Z"/><path class="m" d="M587.26,596.28h-.8v-4.82l-.81.5v-.83l.81-.53h.8Z"/><path class="m" d="M589,595.91a1.67,1.67,0,0,1-.41-1.19v-2.58A1.65,1.65,0,0,1,589,591a2,2,0,0,1,2.42,0,1.65,1.65,0,0,1,.41,1.19v2.58a1.65,1.65,0,0,1-.41,1.19,2,2,0,0,1-2.42,0Zm1.83-.55a.89.89,0,0,0,.2-.64v-2.58a.89.89,0,0,0-.2-.64.82.82,0,0,0-.62-.22.86.86,0,0,0-.63.22.94.94,0,0,0-.2.64v2.58a.9.9,0,0,0,.21.64,1,1,0,0,0,1.24,0Z"/><path class="m" d="M593.22,595.91a1.67,1.67,0,0,1-.41-1.19v-2.58a1.65,1.65,0,0,1,.41-1.19,2,2,0,0,1,2.42,0,1.61,1.61,0,0,1,.41,1.19v2.58a1.65,1.65,0,0,1-.41,1.19,2,2,0,0,1-2.42,0Zm1.83-.55a.9.9,0,0,0,.21-.64v-2.58a.94.94,0,0,0-.2-.64.86.86,0,0,0-.63-.22.82.82,0,0,0-.62.22.89.89,0,0,0-.2.64v2.58a.89.89,0,0,0,.2.64,1,1,0,0,0,1.24,0Z"/><path class="m" d="M600.1,596.13a1.45,1.45,0,0,1-.6-.6,2.06,2.06,0,0,1-.21-1v-.67a2,2,0,0,1,.21-.94,1.37,1.37,0,0,1,.6-.59,2,2,0,0,1,.95-.21,2.21,2.21,0,0,1,.59.08,1.68,1.68,0,0,1,.51.22,1.54,1.54,0,0,1,.37.35l-.58.52a1.17,1.17,0,0,0-.4-.3,1.13,1.13,0,0,0-.48-.11.94.94,0,0,0-.71.26,1,1,0,0,0-.26.72v.67a1,1,0,0,0,.25.74.94.94,0,0,0,.72.27,1,1,0,0,0,.48-.12,1,1,0,0,0,.4-.32l.58.56a1.38,1.38,0,0,1-.38.34,1.62,1.62,0,0,1-.5.22,2.27,2.27,0,0,1-.59.07A2.12,2.12,0,0,1,600.1,596.13Z"/><path class="m" d="M603.4,592.22h.79v4.06h-.79Zm2.42,1.6a1,1,0,0,0-.21-.67.78.78,0,0,0-.6-.23.81.81,0,0,0-.6.21.73.73,0,0,0-.22.58l-.08-.78a1.46,1.46,0,0,1,.49-.57,1.22,1.22,0,0,1,.67-.2,1.33,1.33,0,0,1,.73.2,1.18,1.18,0,0,1,.46.56,2.4,2.4,0,0,1,.15.89v2.47h-.79Zm2.42,0a.93.93,0,0,0-.22-.67.85.85,0,0,0-.63-.23.72.72,0,0,0-.57.23.9.9,0,0,0-.21.64l-.16-.78a1.61,1.61,0,0,1,.51-.63,1.23,1.23,0,0,1,.69-.22,1.37,1.37,0,0,1,.75.2,1.09,1.09,0,0,1,.47.56,2.21,2.21,0,0,1,.17.89v2.47h-.8Z"/><path class="m" d="M584.33,605.5l2-2.64a1.85,1.85,0,0,0,.27-.47,1.29,1.29,0,0,0,.09-.45h0a.67.67,0,0,0-.2-.53.81.81,0,0,0-.56-.19.76.76,0,0,0-.56.21,1,1,0,0,0-.27.58h-.82a2,2,0,0,1,.29-.83,1.42,1.42,0,0,1,.56-.53,1.67,1.67,0,0,1,.79-.18,1.93,1.93,0,0,1,.87.17,1.21,1.21,0,0,1,.54.51,1.55,1.55,0,0,1,.19.8h0a1.84,1.84,0,0,1-.12.63,2.8,2.8,0,0,1-.35.63l-1.65,2.24h2.15v.76h-3.2Z"/><path class="m" d="M589,605.83a1.67,1.67,0,0,1-.41-1.19v-2.58a1.65,1.65,0,0,1,.41-1.19,2,2,0,0,1,2.42,0,1.65,1.65,0,0,1,.41,1.19v2.58a1.65,1.65,0,0,1-.41,1.19,2,2,0,0,1-2.42,0Zm1.83-.55a.89.89,0,0,0,.2-.64v-2.58a.89.89,0,0,0-.2-.64.82.82,0,0,0-.62-.22.86.86,0,0,0-.63.22.94.94,0,0,0-.19.64v2.58a.89.89,0,0,0,.2.64,1,1,0,0,0,1.24,0Z"/><path class="m" d="M593.22,605.83a1.67,1.67,0,0,1-.41-1.19v-2.58a1.61,1.61,0,0,1,.42-1.19,1.59,1.59,0,0,1,1.2-.42,1.45,1.45,0,0,1,1.62,1.61v2.58a1.61,1.61,0,0,1-.41,1.19,2,2,0,0,1-2.42,0Zm1.84-.55a.94.94,0,0,0,.2-.64v-2.58a.94.94,0,0,0-.2-.64.84.84,0,0,0-.63-.22.82.82,0,0,0-.62.22.89.89,0,0,0-.2.64v2.58a.89.89,0,0,0,.2.64.82.82,0,0,0,.62.22A.86.86,0,0,0,595.06,605.28Z"/><path class="m" d="M600.1,606.05a1.45,1.45,0,0,1-.6-.6,2.06,2.06,0,0,1-.2-1v-.67a2,2,0,0,1,.2-.94,1.37,1.37,0,0,1,.6-.59,2,2,0,0,1,.95-.21,2.35,2.35,0,0,1,.6.08,1.73,1.73,0,0,1,.5.22,1.38,1.38,0,0,1,.37.35l-.58.52a1.08,1.08,0,0,0-.4-.3,1.13,1.13,0,0,0-.48-.11,1,1,0,0,0-.71.26,1,1,0,0,0-.26.72v.67a1,1,0,0,0,.25.74.94.94,0,0,0,.72.27,1.14,1.14,0,0,0,.88-.44l.58.56a1.38,1.38,0,0,1-.38.34,1.62,1.62,0,0,1-.5.22,2.22,2.22,0,0,1-.59.07A2.12,2.12,0,0,1,600.1,606.05Z"/><path class="m" d="M603.4,602.14h.79v4.06h-.79Zm2.42,1.6a1,1,0,0,0-.21-.67.78.78,0,0,0-.6-.23.81.81,0,0,0-.6.21.73.73,0,0,0-.22.58l-.08-.78a1.46,1.46,0,0,1,.49-.57,1.22,1.22,0,0,1,.67-.2,1.3,1.3,0,0,1,.73.2,1.18,1.18,0,0,1,.46.56,2.4,2.4,0,0,1,.16.89v2.47h-.8Zm2.42,0a.93.93,0,0,0-.22-.67.85.85,0,0,0-.63-.23.73.73,0,0,0-.57.23.89.89,0,0,0-.2.64l-.16-.78a1.51,1.51,0,0,1,.5-.63,1.23,1.23,0,0,1,.69-.22,1.35,1.35,0,0,1,.75.2,1.16,1.16,0,0,1,.48.56,2.4,2.4,0,0,1,.16.89v2.47h-.8Z"/><path class="m" d="M585,615.58a1.34,1.34,0,0,1-.54-.49,2,2,0,0,1-.28-.77h.8a.75.75,0,0,0,.25.49.85.85,0,0,0,.54.17.72.72,0,0,0,.59-.25,1.1,1.1,0,0,0,.21-.72v-.48a1.1,1.1,0,0,0-.21-.72.72.72,0,0,0-.59-.25.83.83,0,0,0-.4.11,1.18,1.18,0,0,0-.34.33h-.72v-3h2.89v.76h-2.1V612a1,1,0,0,1,.34-.18.94.94,0,0,1,.37-.07,1.68,1.68,0,0,1,.84.2,1.29,1.29,0,0,1,.53.6,2.07,2.07,0,0,1,.19.94V614a2.25,2.25,0,0,1-.19.94,1.31,1.31,0,0,1-.55.59,1.69,1.69,0,0,1-.86.21A1.74,1.74,0,0,1,585,615.58Z"/><path class="m" d="M589,615.32a1.65,1.65,0,0,1-.41-1.19v-2.58a1.67,1.67,0,0,1,.41-1.19,2,2,0,0,1,2.42,0,1.65,1.65,0,0,1,.41,1.19v2.58a1.64,1.64,0,0,1-.41,1.19,1.92,1.92,0,0,1-2.42,0Zm1.83-.55a.89.89,0,0,0,.2-.64v-2.58a.88.88,0,0,0-.2-.63.78.78,0,0,0-.62-.22.82.82,0,0,0-.63.22.93.93,0,0,0-.2.63v2.58a.9.9,0,0,0,.21.64,1,1,0,0,0,1.24,0Z"/><path class="m" d="M593.22,615.32a1.65,1.65,0,0,1-.41-1.19v-2.58a1.67,1.67,0,0,1,.41-1.19,2,2,0,0,1,2.42,0,1.61,1.61,0,0,1,.41,1.19v2.58a1.64,1.64,0,0,1-.41,1.19,1.92,1.92,0,0,1-2.42,0Zm1.83-.55a.9.9,0,0,0,.21-.64v-2.58a.93.93,0,0,0-.2-.63.82.82,0,0,0-.63-.22.78.78,0,0,0-.62.22.88.88,0,0,0-.2.63v2.58a.89.89,0,0,0,.2.64,1,1,0,0,0,1.24,0Z"/><path class="m" d="M600.1,615.54a1.45,1.45,0,0,1-.6-.6,2,2,0,0,1-.21-1v-.67a2,2,0,0,1,.21-.94,1.45,1.45,0,0,1,.6-.6,2,2,0,0,1,.95-.2,2.22,2.22,0,0,1,.59.07,2,2,0,0,1,.51.22,1.76,1.76,0,0,1,.37.35l-.58.52a1.17,1.17,0,0,0-.4-.3,1.13,1.13,0,0,0-.48-.11.94.94,0,0,0-.71.26,1,1,0,0,0-.26.73V614a1.07,1.07,0,0,0,.25.74,1,1,0,0,0,.72.26,1.13,1.13,0,0,0,.48-.11,1.26,1.26,0,0,0,.4-.32l.58.55a1.42,1.42,0,0,1-.38.35,1.88,1.88,0,0,1-.5.21,2.27,2.27,0,0,1-.59.08A2,2,0,0,1,600.1,615.54Z"/><path class="m" d="M603.4,611.63h.79v4.06h-.79Zm2.42,1.6a1,1,0,0,0-.21-.66.75.75,0,0,0-.6-.24.81.81,0,0,0-.6.21.75.75,0,0,0-.22.58l-.08-.78a1.5,1.5,0,0,1,.49-.56,1.15,1.15,0,0,1,.67-.2,1.32,1.32,0,0,1,.73.19,1.28,1.28,0,0,1,.46.56,2.42,2.42,0,0,1,.15.9v2.46h-.79Zm2.42,0a.91.91,0,0,0-.22-.66.82.82,0,0,0-.63-.24.72.72,0,0,0-.57.23.9.9,0,0,0-.21.64l-.16-.78a1.51,1.51,0,0,1,.51-.62,1.16,1.16,0,0,1,.69-.22,1.37,1.37,0,0,1,.75.19,1.18,1.18,0,0,1,.47.56,2.22,2.22,0,0,1,.17.9v2.46h-.8Z"/><path class="k" d="M23.49,613.89A12.92,12.92,0,1,1,36.4,601,12.93,12.93,0,0,1,23.49,613.89Zm0-24.83A11.92,11.92,0,1,0,35.4,601,11.93,11.93,0,0,0,23.49,589.06Z"/><polygon class="l" points="35.77 588.74 9.42 600.98 35.77 613.21 32.02 600.98 35.77 588.74"/><path class="k" d="M36.58,614.14,8.23,601l28.35-13.17-4,13.17ZM10.61,601,35,612.29,31.5,601,35,589.66Z"/><path class="k" d="M2.52,605.19a5,5,0,0,1-1.11-.38,4.4,4.4,0,0,1-1-.64l.81-1a3.72,3.72,0,0,0,1.16.69,4.08,4.08,0,0,0,1.38.23,2.73,2.73,0,0,0,1.55-.38,1.17,1.17,0,0,0,.55-1.05h0a1.12,1.12,0,0,0-.25-.77,1.44,1.44,0,0,0-.64-.42,8.23,8.23,0,0,0-1-.25H3.89l-.1,0a9.48,9.48,0,0,1-1.5-.36,2.08,2.08,0,0,1-1-.73,2.42,2.42,0,0,1-.41-1.51h0a2.77,2.77,0,0,1,.38-1.47,2.44,2.44,0,0,1,1.12-.92,4.48,4.48,0,0,1,1.77-.32,4.6,4.6,0,0,1,1,.11,4.9,4.9,0,0,1,1.86.86l-.73,1a4.61,4.61,0,0,0-1-.58,3,3,0,0,0-1.06-.2,2.44,2.44,0,0,0-1.46.38,1.24,1.24,0,0,0-.53,1.07h0a1,1,0,0,0,.27.75,1.74,1.74,0,0,0,.67.4,9.3,9.3,0,0,0,1.12.27h.24a7.93,7.93,0,0,1,1.4.41,2.22,2.22,0,0,1,.94.76,2.4,2.4,0,0,1,.38,1.43h0a2.62,2.62,0,0,1-.4,1.45,2.54,2.54,0,0,1-1.16.91,4.8,4.8,0,0,1-1.83.31A6.44,6.44,0,0,1,2.52,605.19Z"/><rect class="k" x="612.5" y="600.68" width="1" height="4.68"/><rect class="k" x="612.5" y="590.76" width="1" height="4.68"/><rect class="k" x="612.5" y="611.45" width="1" height="5.24"/><rect class="k" x="789.58" y="611.45" width="1" height="5.24"/><rect class="k" x="682.59" y="600.68" width="1" height="4.68"/><rect class="k" x="647.3" y="590.76" width="1" height="4.68"/><rect class="a" width="790.34" height="618.13"/><rect class="n" x="237.84" y="434.78" width="0.14" height="15.71"/><rect class="o" x="237.84" y="268.96" width="0.14" height="163.38"/><rect class="l" x="515.61" y="376.65" width="27.99" height="41.89"/><line class="p" x1="515.61" y1="376.65" x2="515.61" y2="418.54"/><line class="p" x1="543.61" y1="376.65" x2="515.61" y2="376.65"/><line class="p" x1="543.61" y1="418.54" x2="543.61" y2="376.65"/><line class="p" x1="515.61" y1="418.54" x2="543.61" y2="418.54"/><rect class="l" x="246.37" y="368.8" width="21.35" height="52.01"/><line class="p" x1="267.71" y1="420.81" x2="246.37" y2="420.81"/><line class="p" x1="246.37" y1="420.81" x2="246.37" y2="368.8"/><line class="p" x1="246.37" y1="368.8" x2="267.71" y2="368.8"/><line class="p" x1="267.71" y1="368.8" x2="267.71" y2="420.81"/><rect class="l" x="246.37" y="420.81" width="98.67" height="21.3"/><line class="p" x1="345.04" y1="442.11" x2="246.37" y2="442.11"/><line class="p" x1="246.37" y1="442.11" x2="246.37" y2="420.81"/><line class="p" x1="246.37" y1="420.81" x2="345.04" y2="420.81"/><line class="p" x1="345.04" y1="420.81" x2="345.04" y2="442.11"/><rect class="l" x="432.51" y="421.16" width="20.99" height="20.95"/><line class="p" x1="432.51" y1="442.11" x2="453.51" y2="442.11"/><line class="p" x1="432.51" y1="421.16" x2="432.51" y2="442.11"/><line class="p" x1="453.51" y1="421.16" x2="432.51" y2="421.16"/><line class="p" x1="453.51" y1="442.11" x2="453.51" y2="421.16"/><rect class="l" x="237.84" y="416.62" width="0.14" height="15.71"/><line class="p" x1="237.84" y1="432.33" x2="237.97" y2="432.33"/><line class="p" x1="237.97" y1="416.62" x2="237.84" y2="416.62"/><line class="p" x1="237.97" y1="432.33" x2="237.97" y2="416.62"/><line class="p" x1="348.54" y1="442.11" x2="367.08" y2="442.11"/><line class="p" x1="367.08" y1="442.11" x2="367.08" y2="424.65"/><line class="p" x1="367.08" y1="424.65" x2="363.58" y2="438.62"/><line class="p" x1="363.58" y1="438.62" x2="348.54" y2="442.11"/><line class="p" x1="520.47" y1="442.11" x2="540.66" y2="438.61"/><line class="p" x1="540.66" y1="438.61" x2="544.48" y2="422.91"/><line class="p" x1="544.48" y1="422.91" x2="544.48" y2="442.11"/><line class="p" x1="544.48" y1="442.11" x2="520.47" y2="442.11"/><polygon points="237.84 261.98 237.84 255 242.03 255 275.41 255 275.41 261.98 237.84 261.98"/><rect x="362.88" y="255" width="78.73" height="6.98"/><polygon points="529.09 261.98 529.09 255 548.55 255 552.75 255 552.75 261.98 529.09 261.98"/><rect x="530.84" y="261.98" width="21.91" height="6.98"/><rect x="237.84" y="261.98" width="35.82" height="6.98"/><rect x="364.63" y="261.98" width="75.23" height="6.98"/><polygon points="246.37 450.49 237.97 450.49 237.97 268.96 246.37 268.96 246.37 442.11 387.03 442.11 387.03 450.49 246.37 450.49"/><polygon points="425.52 450.49 425.52 442.11 544.48 442.11 544.48 268.96 552.75 268.96 552.75 450.49 425.52 450.49"/><rect x="423.77" y="446.47" width="1.75" height="4.02"/><rect x="387.03" y="446.47" width="1.75" height="4.02"/><rect x="547.28" y="183.43" width="1.27" height="71.56"/><rect x="242.04" y="183.43" width="1.53" height="71.56"/><rect x="448.26" y="368.8" width="96.22" height="6.98"/><polygon points="383.53 375.78 383.53 268.96 390.52 268.96 390.52 368.8 416.77 368.8 416.77 375.78 383.53 375.78"/><rect x="237.84" y="432.33" width="0.14" height="2.44"/><polygon points="367.08 386.25 367.08 373.34 383.53 373.34 383.53 375.78 369.53 375.78 369.53 386.25 367.08 386.25"/><rect x="367.08" y="417.67" width="2.45" height="24.44"/><rect x="453.51" y="375.78" width="2.45" height="8.73"/><rect x="453.51" y="412.43" width="2.45" height="29.67"/><rect x="516.49" y="419.42" width="27.99" height="3.49"/><polygon points="383.53 442.11 383.53 428.14 369.53 428.14 369.53 424.65 387.03 424.65 387.03 442.11 383.53 442.11"/><polygon points="345.04 442.11 345.04 421.16 367.08 421.16 367.08 424.65 348.54 424.65 348.54 442.11 345.04 442.11"/><rect x="516.49" y="422.91" width="3.5" height="19.2"/><line class="p" x1="237.84" y1="255" x2="242.03" y2="255"/><line class="p" x1="242.04" y1="255" x2="275.41" y2="255"/><line class="p" x1="362.88" y1="255" x2="441.61" y2="255"/><line class="p" x1="529.09" y1="255" x2="548.55" y2="255"/><line class="p" x1="548.55" y1="255" x2="552.75" y2="255"/><line class="p" x1="237.84" y1="268.96" x2="237.97" y2="268.96"/><line class="p" x1="364.63" y1="268.96" x2="383.53" y2="268.96"/><line class="p" x1="390.53" y1="268.96" x2="439.86" y2="268.96"/><line class="p" x1="530.83" y1="268.96" x2="544.48" y2="268.96"/><line class="p" x1="246.37" y1="268.96" x2="273.66" y2="268.96"/><line class="p" x1="273.66" y1="268.96" x2="273.66" y2="261.98"/><line class="p" x1="364.63" y1="268.96" x2="364.63" y2="261.98"/><line class="p" x1="530.83" y1="268.96" x2="530.83" y2="261.98"/><line class="p" x1="439.86" y1="261.98" x2="439.86" y2="268.96"/><line class="p" x1="529.09" y1="261.98" x2="529.09" y2="255"/><line class="p" x1="530.83" y1="261.98" x2="529.09" y2="261.98"/><line class="p" x1="362.88" y1="261.98" x2="362.88" y2="255"/><line class="p" x1="364.63" y1="261.98" x2="362.88" y2="261.98"/><line class="p" x1="441.61" y1="261.98" x2="441.61" y2="255"/><line class="p" x1="439.86" y1="261.98" x2="441.61" y2="261.98"/><line class="p" x1="275.41" y1="261.98" x2="275.41" y2="255"/><line class="p" x1="273.66" y1="261.98" x2="275.41" y2="261.98"/><line class="p" x1="242.04" y1="183.43" x2="243.57" y2="183.43"/><line class="p" x1="243.57" y1="183.43" x2="243.57" y2="254.99"/><line class="p" x1="240.77" y1="255" x2="242.03" y2="255"/><line class="p" x1="242.04" y1="255" x2="243.57" y2="255"/><line class="p" x1="547.28" y1="183.43" x2="548.55" y2="183.43"/><line class="p" x1="547.28" y1="183.43" x2="547.28" y2="254.99"/><line class="p" x1="547.28" y1="255" x2="548.55" y2="255"/><line class="p" x1="548.55" y1="255" x2="550.08" y2="255"/><line class="p" x1="237.97" y1="268.96" x2="237.97" y2="432.33"/><line class="p" x1="237.97" y1="434.78" x2="237.97" y2="450.49"/><line class="p" x1="246.37" y1="268.96" x2="246.37" y2="442.11"/><line class="p" x1="544.48" y1="268.96" x2="544.48" y2="368.8"/><line class="p" x1="369.53" y1="442.11" x2="383.53" y2="442.11"/><line class="p" x1="516.49" y1="442.11" x2="455.96" y2="442.11"/><line class="p" x1="388.78" y1="446.47" x2="388.78" y2="450.49"/><line class="p" x1="423.77" y1="446.47" x2="423.77" y2="450.49"/><line class="p" x1="423.77" y1="446.47" x2="425.52" y2="446.47"/><line class="p" x1="388.78" y1="446.47" x2="387.03" y2="446.47"/><line class="p" x1="345.04" y1="442.11" x2="246.37" y2="442.11"/><line class="p" x1="544.48" y1="375.78" x2="544.48" y2="419.42"/><line class="p" x1="367.08" y1="442.11" x2="348.54" y2="442.11"/><line class="p" x1="548.55" y1="167.72" x2="242.04" y2="167.72"/><line class="p" x1="273.66" y1="268.96" x2="329.64" y2="268.96"/><line class="p" x1="329.64" y1="268.96" x2="364.63" y2="268.96"/><line class="p" x1="275.41" y1="255" x2="331.39" y2="255"/><line class="p" x1="329.64" y1="268.96" x2="329.64" y2="261.98"/><line class="p" x1="331.39" y1="261.98" x2="331.39" y2="255"/><line class="p" x1="331.39" y1="258.49" x2="362.88" y2="258.49"/><line class="p" x1="363.23" y1="265.47" x2="363.23" y2="297.58"/><line class="p" x1="332.44" y1="262.68" x2="332.44" y2="261.98"/><line class="p" x1="332.44" y1="261.98" x2="329.64" y2="261.98"/><line class="p" x1="329.64" y1="261.98" x2="329.64" y2="264.77"/><line class="p" x1="329.64" y1="264.77" x2="331.04" y2="264.77"/><line class="p" x1="331.04" y1="265.47" x2="333.84" y2="265.47"/><line class="p" x1="333.84" y1="265.47" x2="333.84" y2="262.67"/><line class="p" x1="333.84" y1="262.68" x2="331.04" y2="262.68"/><line class="p" x1="331.04" y1="262.68" x2="331.04" y2="265.47"/><line class="p" x1="363.23" y1="265.47" x2="360.43" y2="265.47"/><line class="p" x1="360.43" y1="265.47" x2="360.43" y2="262.67"/><line class="p" x1="360.43" y1="262.68" x2="363.23" y2="262.68"/><line class="p" x1="363.23" y1="262.68" x2="363.23" y2="265.47"/><line class="p" x1="333.84" y1="265.47" x2="360.43" y2="265.47"/><line class="p" x1="360.43" y1="262.68" x2="333.84" y2="262.68"/><line class="p" x1="333.84" y1="264.07" x2="360.43" y2="264.07"/><g class="q"><path class="p" d="M363.23,297.58A32.16,32.16,0,0,1,331,265.47"/></g><line class="p" x1="361.83" y1="262.68" x2="361.83" y2="261.98"/><line class="p" x1="361.83" y1="261.98" x2="364.63" y2="261.98"/><line class="p" x1="364.63" y1="261.98" x2="364.63" y2="264.77"/><line class="p" x1="364.63" y1="264.77" x2="363.23" y2="264.77"/><line class="p" x1="329.64" y1="264.77" x2="326.84" y2="264.77"/><line class="p" x1="326.84" y1="264.77" x2="326.84" y2="261.98"/><line class="p" x1="326.84" y1="261.98" x2="329.64" y2="261.98"/><line class="p" x1="329.64" y1="261.98" x2="329.64" y2="264.77"/><line class="p" x1="326.84" y1="264.77" x2="303.05" y2="264.77"/><line class="p" x1="326.84" y1="263.37" x2="303.05" y2="263.37"/><line class="p" x1="326.84" y1="261.98" x2="303.05" y2="261.98"/><line class="p" x1="276.46" y1="262.68" x2="276.46" y2="261.98"/><line class="p" x1="276.46" y1="261.98" x2="273.66" y2="261.98"/><line class="p" x1="273.66" y1="261.98" x2="273.66" y2="264.77"/><line class="p" x1="273.66" y1="264.77" x2="275.06" y2="264.77"/><line class="p" x1="275.06" y1="265.47" x2="277.86" y2="265.47"/><line class="p" x1="277.86" y1="265.47" x2="277.86" y2="262.67"/><line class="p" x1="277.86" y1="262.68" x2="275.06" y2="262.68"/><line class="p" x1="275.06" y1="262.68" x2="275.06" y2="265.47"/><line class="p" x1="277.86" y1="265.47" x2="298.85" y2="265.47"/><line class="p" x1="298.85" y1="262.68" x2="277.86" y2="262.68"/><line class="p" x1="277.86" y1="264.07" x2="298.85" y2="264.07"/><line class="p" x1="300.25" y1="262.68" x2="300.25" y2="261.98"/><line class="p" x1="300.25" y1="261.98" x2="303.05" y2="261.98"/><line class="p" x1="303.05" y1="261.98" x2="303.05" y2="264.77"/><line class="p" x1="303.05" y1="264.77" x2="301.65" y2="264.77"/><line class="p" x1="301.65" y1="265.47" x2="298.85" y2="265.47"/><line class="p" x1="298.85" y1="265.47" x2="298.85" y2="262.67"/><line class="p" x1="298.85" y1="262.68" x2="301.65" y2="262.68"/><line class="p" x1="301.65" y1="262.68" x2="301.65" y2="265.47"/><line class="p" x1="530.83" y1="268.96" x2="474.85" y2="268.96"/><line class="p" x1="474.85" y1="268.96" x2="439.86" y2="268.96"/><line class="p" x1="529.09" y1="255" x2="473.1" y2="255"/><line class="p" x1="474.85" y1="268.96" x2="474.85" y2="261.98"/><line class="p" x1="473.1" y1="261.98" x2="473.1" y2="255"/><line class="p" x1="473.1" y1="258.49" x2="441.61" y2="258.49"/><line class="p" x1="441.26" y1="265.47" x2="441.26" y2="297.58"/><line class="p" x1="472.05" y1="262.68" x2="472.05" y2="261.98"/><line class="p" x1="472.05" y1="261.98" x2="474.85" y2="261.98"/><line class="p" x1="474.85" y1="261.98" x2="474.85" y2="264.77"/><line class="p" x1="474.85" y1="264.77" x2="473.45" y2="264.77"/><line class="p" x1="473.45" y1="265.47" x2="470.65" y2="265.47"/><line class="p" x1="470.65" y1="265.47" x2="470.65" y2="262.67"/><line class="p" x1="470.65" y1="262.68" x2="473.45" y2="262.68"/><line class="p" x1="473.45" y1="262.68" x2="473.45" y2="265.47"/><line class="p" x1="441.26" y1="265.47" x2="444.06" y2="265.47"/><line class="p" x1="444.06" y1="265.47" x2="444.06" y2="262.67"/><line class="p" x1="444.06" y1="262.68" x2="441.26" y2="262.68"/><line class="p" x1="441.26" y1="262.68" x2="441.26" y2="265.47"/><line class="p" x1="470.65" y1="265.47" x2="444.06" y2="265.47"/><line class="p" x1="444.06" y1="262.68" x2="470.65" y2="262.68"/><line class="p" x1="470.65" y1="264.07" x2="444.06" y2="264.07"/><g class="q"><path class="p" d="M473.45,265.47a32.14,32.14,0,0,1-32.19,32.11"/></g><line class="p" x1="442.66" y1="262.68" x2="442.66" y2="261.98"/><line class="p" x1="442.66" y1="261.98" x2="439.86" y2="261.98"/><line class="p" x1="439.86" y1="261.98" x2="439.86" y2="264.77"/><line class="p" x1="439.86" y1="264.77" x2="441.26" y2="264.77"/><line class="p" x1="474.85" y1="264.77" x2="477.65" y2="264.77"/><line class="p" x1="477.65" y1="264.77" x2="477.65" y2="261.98"/><line class="p" x1="477.65" y1="261.98" x2="474.85" y2="261.98"/><line class="p" x1="474.85" y1="261.98" x2="474.85" y2="264.77"/><line class="p" x1="477.65" y1="264.77" x2="501.44" y2="264.77"/><line class="p" x1="477.65" y1="263.37" x2="501.44" y2="263.37"/><line class="p" x1="477.65" y1="261.98" x2="501.44" y2="261.98"/><line class="p" x1="528.04" y1="262.68" x2="528.04" y2="261.98"/><line class="p" x1="528.04" y1="261.98" x2="530.84" y2="261.98"/><line class="p" x1="530.83" y1="261.98" x2="530.83" y2="264.77"/><line class="p" x1="530.83" y1="264.77" x2="529.44" y2="264.77"/><line class="p" x1="529.44" y1="265.47" x2="526.64" y2="265.47"/><line class="p" x1="526.64" y1="265.47" x2="526.64" y2="262.67"/><line class="p" x1="526.64" y1="262.68" x2="529.44" y2="262.68"/><line class="p" x1="529.44" y1="262.68" x2="529.44" y2="265.47"/><line class="p" x1="526.64" y1="265.47" x2="505.64" y2="265.47"/><line class="p" x1="505.64" y1="262.68" x2="526.64" y2="262.68"/><line class="p" x1="526.64" y1="264.07" x2="505.64" y2="264.07"/><line class="p" x1="504.24" y1="262.68" x2="504.24" y2="261.98"/><line class="p" x1="504.24" y1="261.98" x2="501.44" y2="261.98"/><line class="p" x1="501.44" y1="261.98" x2="501.44" y2="264.77"/><line class="p" x1="501.44" y1="264.77" x2="502.84" y2="264.77"/><line class="p" x1="502.84" y1="265.47" x2="505.64" y2="265.47"/><line class="p" x1="505.64" y1="265.47" x2="505.64" y2="262.67"/><line class="p" x1="505.64" y1="262.68" x2="502.84" y2="262.68"/><line class="p" x1="502.84" y1="262.68" x2="502.84" y2="265.47"/><line class="p" x1="242.04" y1="179.94" x2="548.55" y2="179.94"/><line class="p" x1="329.64" y1="268.96" x2="329.64" y2="279.43"/><line class="p" x1="329.64" y1="279.43" x2="364.63" y2="279.43"/><line class="p" x1="364.63" y1="279.43" x2="364.63" y2="268.96"/><line class="p" x1="439.86" y1="268.96" x2="439.86" y2="279.43"/><line class="p" x1="439.86" y1="279.43" x2="474.85" y2="279.43"/><line class="p" x1="474.85" y1="279.43" x2="474.85" y2="268.96"/><line class="p" x1="453.51" y1="442.11" x2="425.52" y2="442.11"/><line class="p" x1="425.52" y1="446.47" x2="425.52" y2="442.11"/><line class="p" x1="544.48" y1="419.42" x2="544.48" y2="375.78"/><line class="p" x1="237.84" y1="268.96" x2="237.97" y2="268.96"/><line class="p" x1="390.53" y1="368.8" x2="416.77" y2="368.8"/><line class="p" x1="448.26" y1="375.78" x2="453.51" y2="375.78"/><line class="p" x1="390.53" y1="268.96" x2="390.53" y2="368.8"/><line class="p" x1="383.53" y1="268.96" x2="383.53" y2="373.34"/><line class="p" x1="448.26" y1="375.78" x2="448.26" y2="368.8"/><line class="p" x1="416.77" y1="375.78" x2="416.77" y2="368.8"/><line class="p" x1="387.03" y1="446.47" x2="387.03" y2="424.65"/><line class="p" x1="544.48" y1="375.78" x2="455.96" y2="375.78"/><line class="p" x1="544.48" y1="368.8" x2="448.26" y2="368.8"/><line class="p" x1="237.97" y1="434.78" x2="237.84" y2="434.78"/><line class="p" x1="237.97" y1="432.33" x2="237.84" y2="432.33"/><line class="p" x1="369.53" y1="375.78" x2="416.77" y2="375.78"/><line class="p" x1="369.53" y1="375.78" x2="369.53" y2="386.25"/><line class="p" x1="367.08" y1="417.67" x2="367.08" y2="421.16"/><line class="p" x1="367.08" y1="424.65" x2="367.08" y2="442.11"/><line class="p" x1="367.08" y1="373.34" x2="367.08" y2="386.25"/><line class="p" x1="367.08" y1="386.25" x2="369.53" y2="386.25"/><line class="p" x1="367.08" y1="424.65" x2="348.54" y2="424.65"/><line class="p" x1="348.54" y1="424.65" x2="348.54" y2="442.11"/><line class="p" x1="367.08" y1="421.16" x2="345.04" y2="421.16"/><line class="p" x1="345.04" y1="421.16" x2="345.04" y2="442.11"/><line class="p" x1="455.96" y1="375.78" x2="455.96" y2="384.51"/><line class="p" x1="455.96" y1="412.43" x2="455.96" y2="442.11"/><line class="p" x1="453.51" y1="375.78" x2="453.51" y2="384.51"/><line class="p" x1="453.51" y1="384.51" x2="455.96" y2="384.51"/><line class="p" x1="453.51" y1="412.43" x2="453.51" y2="442.11"/><line class="p" x1="367.08" y1="417.67" x2="369.53" y2="417.67"/><line class="p" x1="369.53" y1="428.14" x2="369.53" y2="442.11"/><line class="p" x1="383.53" y1="373.34" x2="367.08" y2="373.34"/><line class="p" x1="369.53" y1="417.67" x2="369.53" y2="424.65"/><line class="p" x1="369.53" y1="424.65" x2="387.03" y2="424.65"/><line class="p" x1="369.53" y1="428.14" x2="383.53" y2="428.14"/><line class="p" x1="383.53" y1="428.14" x2="383.53" y2="442.11"/><line class="p" x1="363.23" y1="265.47" x2="363.23" y2="297.58"/><g class="q"><path class="p" d="M363.23,297.58A32.16,32.16,0,0,1,331,265.47"/></g><line class="p" x1="441.26" y1="265.47" x2="441.26" y2="297.58"/><g class="q"><path class="p" d="M473.45,265.47a32.14,32.14,0,0,1-32.19,32.11"/></g><line class="p" x1="474.85" y1="268.96" x2="474.85" y2="279.43"/><line class="p" x1="474.85" y1="279.43" x2="439.86" y2="279.43"/><line class="p" x1="439.86" y1="279.43" x2="439.86" y2="268.96"/><line class="p" x1="364.63" y1="268.96" x2="364.63" y2="279.43"/><line class="p" x1="364.63" y1="279.43" x2="329.64" y2="279.43"/><line class="p" x1="329.64" y1="279.43" x2="329.64" y2="268.96"/><line class="p" x1="323.7" y1="441.76" x2="323.7" y2="420.81"/><line class="p" x1="331.72" y1="428.82" x2="336.67" y2="433.75"/><line class="p" x1="336.67" y1="428.82" x2="331.72" y2="433.75"/><line class="p" x1="334.19" y1="434.78" x2="334.19" y2="427.79"/><line class="p" x1="330.69" y1="431.29" x2="337.69" y2="431.29"/><line class="p" x1="323.7" y1="420.81" x2="344.69" y2="420.81"/><line class="p" x1="322.82" y1="422.56" x2="303.58" y2="422.56"/><line class="p" x1="303.58" y1="422.56" x2="303.58" y2="440.01"/><line class="p" x1="303.58" y1="440.01" x2="322.82" y2="440.01"/><line class="p" x1="322.82" y1="440.01" x2="322.82" y2="422.56"/><line class="p" x1="323.7" y1="420.81" x2="302.7" y2="420.81"/><line class="p" x1="321.07" y1="424.3" x2="305.33" y2="424.3"/><line class="p" x1="305.33" y1="424.3" x2="305.33" y2="436.52"/><line class="p" x1="305.33" y1="436.52" x2="321.07" y2="436.52"/><line class="p" x1="321.07" y1="436.52" x2="321.07" y2="424.3"/><g class="q"><path class="p" d="M313.9,433a.7.7,0,1,0-.7.7.7.7,0,0,0,.7-.7"/></g><line class="p" x1="302.7" y1="441.76" x2="302.7" y2="420.81"/><line class="p" x1="302.7" y1="420.81" x2="281.71" y2="420.81"/><line class="p" x1="281.71" y1="420.81" x2="281.71" y2="441.76"/><line class="p" x1="267.71" y1="420.81" x2="267.71" y2="399.87"/><line class="p" x1="267.71" y1="399.87" x2="246.37" y2="399.87"/><line class="p" x1="246.37" y1="399.87" x2="246.37" y2="420.81"/><line class="p" x1="246.37" y1="420.81" x2="267.71" y2="420.81"/><g class="q"><path class="p" d="M263.34,410.34a6.13,6.13,0,1,0-6.12,6.11,6.12,6.12,0,0,0,6.12-6.11"/><path class="p" d="M262.29,410.34a5.08,5.08,0,1,0-5.07,5.06,5.06,5.06,0,0,0,5.07-5.06"/><path class="p" d="M255.5,394.54a3.44,3.44,0,1,0-3.44,3.42,3.43,3.43,0,0,0,3.44-3.42"/></g><line class="p" x1="246.72" y1="399.87" x2="267.71" y2="399.87"/><line class="p" x1="267.71" y1="399.87" x2="267.71" y2="378.92"/><line class="p" x1="267.71" y1="378.92" x2="246.72" y2="378.92"/><g class="q"><path class="p" d="M265.8,394.54a3.44,3.44,0,1,0-3.43,3.42,3.42,3.42,0,0,0,3.43-3.42"/><path class="p" d="M265.8,384.25a3.44,3.44,0,1,0-3.43,3.43,3.42,3.42,0,0,0,3.43-3.43"/></g><line class="p" x1="268.67" y1="381.78" x2="268.67" y2="397.01"/><line class="p" x1="345.04" y1="442.11" x2="345.04" y2="420.81"/><line class="p" x1="345.04" y1="420.81" x2="267.71" y2="420.81"/><line class="p" x1="267.71" y1="420.81" x2="267.71" y2="368.8"/><line class="p" x1="267.71" y1="368.8" x2="246.37" y2="368.8"/><line class="p" x1="246.37" y1="368.8" x2="246.37" y2="442.11"/><line class="p" x1="246.37" y1="442.11" x2="345.04" y2="442.11"/><line class="p" x1="509.84" y1="376.65" x2="509.84" y2="380.14"/><line class="p" x1="509.84" y1="380.14" x2="488.85" y2="380.14"/><line class="p" x1="488.85" y1="380.14" x2="488.85" y2="376.65"/><line class="p" x1="488.85" y1="376.65" x2="489.9" y2="376.65"/><line class="p" x1="489.9" y1="376.65" x2="489.9" y2="379.1"/><line class="p" x1="489.9" y1="379.1" x2="508.79" y2="379.1"/><line class="p" x1="508.79" y1="379.1" x2="508.79" y2="376.65"/><line class="p" x1="508.79" y1="376.65" x2="509.84" y2="376.65"/><line class="p" x1="509.84" y1="376.65" x2="509.84" y2="380.14"/><line class="p" x1="488.85" y1="376.65" x2="488.85" y2="380.14"/><line class="p" x1="508.79" y1="376.65" x2="508.79" y2="379.1"/><line class="p" x1="489.9" y1="376.65" x2="489.9" y2="379.1"/><line class="p" x1="509.84" y1="380.14" x2="488.85" y2="380.14"/><line class="p" x1="509.84" y1="379.1" x2="488.85" y2="379.1"/><line class="p" x1="509.84" y1="376.65" x2="508.79" y2="376.65"/><line class="p" x1="489.9" y1="376.65" x2="488.85" y2="376.65"/><g class="q"><path class="p" d="M539.23,413.31a.88.88,0,1,0-.87.87.87.87,0,0,0,.87-.87"/></g><line class="p" x1="515.61" y1="418.54" x2="515.61" y2="376.65"/><line class="p" x1="515.61" y1="376.65" x2="543.61" y2="376.65"/><line class="p" x1="543.61" y1="376.65" x2="543.61" y2="418.54"/><line class="p" x1="543.61" y1="418.54" x2="515.61" y2="418.54"/><line class="p" x1="517.36" y1="413.31" x2="517.36" y2="381.89"/><line class="p" x1="520.86" y1="378.4" x2="538.36" y2="378.4"/><line class="p" x1="541.86" y1="381.89" x2="541.86" y2="413.31"/><line class="p" x1="538.36" y1="416.8" x2="520.86" y2="416.8"/><g class="q"><path class="p" d="M520.86,416.8a3.5,3.5,0,0,1-3.5-3.49"/><path class="p" d="M517.36,381.89a3.5,3.5,0,0,1,3.5-3.49"/><path class="p" d="M541.86,413.31a3.5,3.5,0,0,1-3.5,3.49"/><path class="p" d="M538.36,378.4a3.5,3.5,0,0,1,3.5,3.49"/></g><line class="p" x1="544.48" y1="422.91" x2="519.99" y2="422.91"/><line class="p" x1="544.48" y1="419.42" x2="516.49" y2="419.42"/><line class="p" x1="516.49" y1="419.42" x2="516.49" y2="422.91"/><line class="p" x1="519.99" y1="422.91" x2="516.49" y2="422.91"/><line class="p" x1="453.51" y1="412.43" x2="455.96" y2="412.43"/><line class="p" x1="516.49" y1="436.87" x2="516.49" y2="442.11"/><line class="p" x1="519.99" y1="436.87" x2="519.99" y2="442.11"/><line class="p" x1="516.49" y1="436.87" x2="516.49" y2="419.42"/><line class="p" x1="544.48" y1="422.91" x2="544.48" y2="442.11"/><line class="p" x1="544.48" y1="442.11" x2="519.99" y2="442.11"/><line class="p" x1="519.99" y1="442.11" x2="519.99" y2="422.91"/><line class="p" x1="519.99" y1="422.91" x2="544.48" y2="422.91"/><line class="p" x1="356.59" y1="424.65" x2="356.59" y2="421.16"/><line class="p" x1="367.08" y1="424.65" x2="367.08" y2="421.16"/><line class="p" x1="418.52" y1="368.8" x2="446.51" y2="368.8"/><line class="p" x1="418.52" y1="368.8" x2="418.52" y2="340.87"/><g class="q"><path class="p" d="M418.52,340.87a28,28,0,0,1,28,27.93"/></g><line class="p" x1="418.52" y1="375.78" x2="418.52" y2="368.8"/><line class="p" x1="446.51" y1="368.8" x2="446.51" y2="375.78"/><line class="p" x1="446.51" y1="368.8" x2="448.26" y2="368.8"/><line class="p" x1="446.51" y1="375.78" x2="448.26" y2="375.78"/><line class="p" x1="416.77" y1="368.8" x2="418.52" y2="368.8"/><line class="p" x1="416.77" y1="375.78" x2="418.52" y2="375.78"/><line class="p" x1="418.52" y1="375.78" x2="425.52" y2="375.78"/><line class="p" x1="429.36" y1="375.78" x2="430.15" y2="375.78"/><line class="p" x1="434" y1="375.78" x2="434.79" y2="375.78"/><line class="p" x1="438.64" y1="375.78" x2="439.51" y2="375.78"/><line class="p" x1="439.51" y1="375.78" x2="446.51" y2="375.78"/><line class="p" x1="418.52" y1="368.8" x2="418.52" y2="367.93"/><line class="p" x1="418.52" y1="367.93" x2="415.02" y2="367.93"/><line class="p" x1="415.02" y1="367.93" x2="415.02" y2="368.8"/><line class="p" x1="418.52" y1="375.78" x2="418.52" y2="376.65"/><line class="p" x1="418.52" y1="376.65" x2="415.02" y2="376.65"/><line class="p" x1="415.02" y1="376.65" x2="415.02" y2="375.78"/><line class="p" x1="446.51" y1="367.93" x2="450.01" y2="367.93"/><line class="p" x1="450.01" y1="367.93" x2="450.01" y2="368.8"/><line class="p" x1="446.51" y1="375.78" x2="446.51" y2="376.65"/><line class="p" x1="446.51" y1="376.65" x2="450.01" y2="376.65"/><line class="p" x1="450.01" y1="376.65" x2="450.01" y2="375.78"/><line class="p" x1="453.51" y1="410.69" x2="453.51" y2="386.25"/><line class="p" x1="453.51" y1="410.69" x2="429.01" y2="410.69"/><g class="q"><path class="p" d="M429,410.69a24.47,24.47,0,0,1,24.5-24.44"/></g><line class="p" x1="455.96" y1="410.69" x2="453.51" y2="410.69"/><line class="p" x1="453.51" y1="386.25" x2="455.96" y2="386.25"/><line class="p" x1="453.51" y1="386.25" x2="453.51" y2="384.51"/><line class="p" x1="455.96" y1="386.25" x2="455.96" y2="384.51"/><line class="p" x1="453.51" y1="412.43" x2="453.51" y2="410.69"/><line class="p" x1="455.96" y1="412.43" x2="455.96" y2="410.69"/><line class="p" x1="455.96" y1="410.69" x2="455.96" y2="403.71"/><line class="p" x1="455.96" y1="399.87" x2="455.96" y2="399.08"/><line class="p" x1="455.96" y1="395.24" x2="455.96" y2="394.46"/><line class="p" x1="455.96" y1="393.24" x2="455.96" y2="386.25"/><line class="p" x1="453.51" y1="410.69" x2="452.63" y2="410.69"/><line class="p" x1="452.63" y1="410.69" x2="452.63" y2="414.18"/><line class="p" x1="452.63" y1="414.18" x2="453.51" y2="414.18"/><line class="p" x1="455.96" y1="410.69" x2="456.83" y2="410.69"/><line class="p" x1="456.83" y1="410.69" x2="456.83" y2="414.18"/><line class="p" x1="456.83" y1="414.18" x2="455.96" y2="414.18"/><line class="p" x1="452.63" y1="386.25" x2="452.63" y2="382.76"/><line class="p" x1="452.63" y1="382.76" x2="453.51" y2="382.76"/><line class="p" x1="455.96" y1="386.25" x2="456.83" y2="386.25"/><line class="p" x1="456.83" y1="386.25" x2="456.83" y2="382.76"/><line class="p" x1="456.83" y1="382.76" x2="455.96" y2="382.76"/><line class="p" x1="390.53" y1="446.47" x2="422.02" y2="446.47"/><line class="p" x1="390.53" y1="446.47" x2="390.53" y2="415.05"/><g class="q"><path class="p" d="M390.53,415.05A31.46,31.46,0,0,1,422,446.47"/></g><line class="p" x1="390.53" y1="450.49" x2="390.53" y2="446.47"/><line class="p" x1="422.02" y1="446.47" x2="422.02" y2="450.49"/><line class="p" x1="422.02" y1="446.47" x2="423.77" y2="446.47"/><line class="p" x1="388.78" y1="446.47" x2="390.53" y2="446.47"/><line class="p" x1="367.08" y1="415.93" x2="367.08" y2="388"/><line class="p" x1="367.08" y1="415.93" x2="339.09" y2="415.93"/><g class="q"><path class="p" d="M339.09,415.93a28,28,0,0,1,28-27.93"/></g><line class="p" x1="369.53" y1="415.93" x2="367.08" y2="415.93"/><line class="p" x1="367.08" y1="388" x2="369.53" y2="388"/><line class="p" x1="367.08" y1="388" x2="367.08" y2="386.25"/><line class="p" x1="369.53" y1="388" x2="369.53" y2="386.25"/><line class="p" x1="367.08" y1="417.67" x2="367.08" y2="415.93"/><line class="p" x1="369.53" y1="417.67" x2="369.53" y2="415.93"/><line class="p" x1="369.53" y1="415.93" x2="369.53" y2="408.94"/><line class="p" x1="369.53" y1="405.1" x2="369.53" y2="404.32"/><line class="p" x1="369.53" y1="400.48" x2="369.53" y2="399.69"/><line class="p" x1="369.53" y1="395.85" x2="369.53" y2="394.98"/><line class="p" x1="369.53" y1="394.98" x2="369.53" y2="388"/><line class="p" x1="367.08" y1="415.93" x2="366.21" y2="415.93"/><line class="p" x1="366.21" y1="415.93" x2="366.21" y2="419.42"/><line class="p" x1="366.21" y1="419.42" x2="367.08" y2="419.42"/><line class="p" x1="369.53" y1="415.93" x2="370.41" y2="415.93"/><line class="p" x1="370.41" y1="415.93" x2="370.41" y2="419.42"/><line class="p" x1="370.41" y1="419.42" x2="369.53" y2="419.42"/><line class="p" x1="366.21" y1="388" x2="366.21" y2="384.51"/><line class="p" x1="366.21" y1="384.51" x2="367.08" y2="384.51"/><line class="p" x1="369.53" y1="388" x2="370.41" y2="388"/><line class="p" x1="370.41" y1="388" x2="370.41" y2="384.51"/><line class="p" x1="370.41" y1="384.51" x2="369.53" y2="384.51"/><line class="p" x1="516.84" y1="270.7" x2="488.85" y2="270.7"/><line class="p" x1="488.85" y1="270.7" x2="488.85" y2="272.9"/><line class="p" x1="488.85" y1="272.9" x2="516.84" y2="272.9"/><line class="p" x1="516.84" y1="272.9" x2="516.84" y2="270.7"/><line class="p" x1="322.65" y1="270.7" x2="273.66" y2="270.7"/><line class="p" x1="273.66" y1="270.7" x2="273.66" y2="274.19"/><line class="p" x1="273.66" y1="274.19" x2="322.65" y2="274.19"/><line class="p" x1="322.65" y1="274.19" x2="322.65" y2="270.7"/><g class="q"><path class="p" d="M327.89,272.45a1.75,1.75,0,1,0-1.75,1.74,1.75,1.75,0,0,0,1.75-1.74"/><path class="p" d="M522.09,271.8a1.75,1.75,0,1,0-1.75,1.75,1.74,1.74,0,0,0,1.75-1.75"/></g><line class="p" x1="516.49" y1="436.87" x2="455.96" y2="436.87"/><line class="p" x1="369.53" y1="442.11" x2="383.53" y2="442.11"/><line class="p" x1="383.53" y1="442.11" x2="383.53" y2="428.14"/><line class="p" x1="383.53" y1="428.14" x2="380.03" y2="438.62"/><line class="p" x1="380.03" y1="438.62" x2="369.53" y2="442.11"/><line class="p" x1="362.88" y1="255" x2="355.89" y2="255"/><line class="p" x1="352.04" y1="255" x2="351.25" y2="255"/><line class="p" x1="347.4" y1="255" x2="346.61" y2="255"/><line class="p" x1="342.76" y1="255" x2="338.39" y2="255"/><line class="p" x1="338.39" y1="255" x2="331.39" y2="255"/><line class="p" x1="473.1" y1="255" x2="466.1" y2="255"/><line class="p" x1="462.25" y1="255" x2="461.47" y2="255"/><line class="p" x1="457.62" y1="255" x2="456.83" y2="255"/><line class="p" x1="452.98" y1="255" x2="448.61" y2="255"/><line class="p" x1="448.61" y1="255" x2="441.61" y2="255"/><line class="p" x1="548.55" y1="202.63" x2="543.08" y2="202.63"/><line class="p" x1="539.23" y1="202.63" x2="538.44" y2="202.63"/><line class="p" x1="534.6" y1="202.63" x2="533.81" y2="202.63"/><line class="p" x1="529.96" y1="202.63" x2="522.96" y2="202.63"/><line class="p" x1="519.11" y1="202.63" x2="518.33" y2="202.63"/><line class="p" x1="514.48" y1="202.63" x2="513.69" y2="202.63"/><line class="p" x1="509.84" y1="202.63" x2="502.84" y2="202.63"/><line class="p" x1="498.99" y1="202.63" x2="498.21" y2="202.63"/><line class="p" x1="494.36" y1="202.63" x2="493.57" y2="202.63"/><line class="p" x1="489.72" y1="202.63" x2="482.72" y2="202.63"/><line class="p" x1="478.87" y1="202.63" x2="478.09" y2="202.63"/><line class="p" x1="474.24" y1="202.63" x2="473.45" y2="202.63"/><line class="p" x1="469.6" y1="202.63" x2="462.6" y2="202.63"/><line class="p" x1="458.76" y1="202.63" x2="457.97" y2="202.63"/><line class="p" x1="454.12" y1="202.63" x2="453.33" y2="202.63"/><line class="p" x1="449.48" y1="202.63" x2="442.49" y2="202.63"/><line class="p" x1="438.64" y1="202.63" x2="437.85" y2="202.63"/><line class="p" x1="434" y1="202.63" x2="433.21" y2="202.63"/><line class="p" x1="429.36" y1="202.63" x2="422.37" y2="202.63"/><line class="p" x1="418.52" y1="202.63" x2="417.73" y2="202.63"/><line class="p" x1="413.88" y1="202.63" x2="413.09" y2="202.63"/><line class="p" x1="409.25" y1="202.63" x2="402.25" y2="202.63"/><line class="p" x1="398.4" y1="202.63" x2="397.61" y2="202.63"/><line class="p" x1="393.76" y1="202.63" x2="392.97" y2="202.63"/><line class="p" x1="389.13" y1="202.63" x2="382.13" y2="202.63"/><line class="p" x1="378.28" y1="202.63" x2="377.49" y2="202.63"/><line class="p" x1="373.64" y1="202.63" x2="372.86" y2="202.63"/><line class="p" x1="369.01" y1="202.63" x2="362.01" y2="202.63"/><line class="p" x1="358.16" y1="202.63" x2="357.37" y2="202.63"/><line class="p" x1="353.52" y1="202.63" x2="352.74" y2="202.63"/><line class="p" x1="348.89" y1="202.63" x2="341.89" y2="202.63"/><line class="p" x1="338.04" y1="202.63" x2="337.25" y2="202.63"/><line class="p" x1="333.4" y1="202.63" x2="332.62" y2="202.63"/><line class="p" x1="328.77" y1="202.63" x2="321.77" y2="202.63"/><line class="p" x1="317.92" y1="202.63" x2="317.14" y2="202.63"/><line class="p" x1="313.29" y1="202.63" x2="312.5" y2="202.63"/><line class="p" x1="308.65" y1="202.63" x2="301.65" y2="202.63"/><line class="p" x1="297.8" y1="202.63" x2="297.02" y2="202.63"/><line class="p" x1="293.17" y1="202.63" x2="292.38" y2="202.63"/><line class="p" x1="288.53" y1="202.63" x2="281.53" y2="202.63"/><line class="p" x1="277.68" y1="202.63" x2="276.9" y2="202.63"/><line class="p" x1="273.05" y1="202.63" x2="272.26" y2="202.63"/><line class="p" x1="268.41" y1="202.63" x2="261.42" y2="202.63"/><line class="p" x1="257.57" y1="202.63" x2="256.78" y2="202.63"/><line class="p" x1="252.93" y1="202.63" x2="252.14" y2="202.63"/><line class="p" x1="248.29" y1="202.63" x2="244.83" y2="202.63"/><line class="p" x1="244.83" y1="202.63" x2="242.04" y2="202.63"/><rect class="l" x="508.79" y="376.65" width="1.05" height="2.44"/><line class="p" x1="508.79" y1="379.1" x2="509.84" y2="379.1"/><line class="p" x1="508.79" y1="376.65" x2="508.79" y2="379.1"/><line class="p" x1="509.84" y1="376.65" x2="508.79" y2="376.65"/><line class="p" x1="509.84" y1="379.1" x2="509.84" y2="376.65"/><rect class="l" x="488.85" y="379.1" width="20.99" height="1.05"/><line class="p" x1="509.84" y1="379.1" x2="488.85" y2="379.1"/><line class="p" x1="509.84" y1="380.14" x2="509.84" y2="379.1"/><line class="p" x1="488.85" y1="380.14" x2="509.84" y2="380.14"/><line class="p" x1="488.85" y1="379.1" x2="488.85" y2="380.14"/><rect class="l" x="488.85" y="376.65" width="1.05" height="2.44"/><line class="p" x1="488.85" y1="379.1" x2="489.9" y2="379.1"/><line class="p" x1="488.85" y1="376.65" x2="488.85" y2="379.1"/><line class="p" x1="489.9" y1="376.65" x2="488.85" y2="376.65"/><line class="p" x1="489.9" y1="379.1" x2="489.9" y2="376.65"/><rect class="l" x="369.53" y="375.78" width="44.09" height="7.33"/><line class="p" x1="413.62" y1="383.11" x2="369.53" y2="383.11"/><line class="p" x1="369.53" y1="383.11" x2="369.53" y2="375.78"/><line class="p" x1="369.53" y1="375.78" x2="413.62" y2="375.78"/><line class="p" x1="413.62" y1="375.78" x2="413.62" y2="383.11"/><rect class="l" x="367.78" y="268.96" width="15.75" height="104.38"/><line class="p" x1="383.53" y1="373.34" x2="367.78" y2="373.34"/><line class="p" x1="367.78" y1="373.34" x2="367.78" y2="268.96"/><line class="p" x1="367.78" y1="268.96" x2="383.53" y2="268.96"/><line class="p" x1="383.53" y1="268.96" x2="383.53" y2="373.34"/><rect class="l" x="286.61" y="310.85" width="17.49" height="27.93"/><line class="p" x1="286.61" y1="338.78" x2="304.1" y2="338.78"/><line class="p" x1="286.61" y1="310.85" x2="286.61" y2="338.78"/><line class="p" x1="304.1" y1="310.85" x2="286.61" y2="310.85"/><line class="p" x1="304.1" y1="338.78" x2="304.1" y2="310.85"/><rect class="l" x="455.96" y="436.87" width="60.53" height="5.24"/><line class="p" x1="516.49" y1="442.11" x2="455.96" y2="442.11"/><line class="p" x1="455.96" y1="442.11" x2="455.96" y2="436.87"/><line class="p" x1="455.96" y1="436.87" x2="516.49" y2="436.87"/><line class="p" x1="516.49" y1="436.87" x2="516.49" y2="442.11"/><rect class="l" x="273.66" y="270.7" width="48.99" height="3.49"/><line class="p" x1="322.65" y1="274.19" x2="322.65" y2="270.7"/><line class="p" x1="273.66" y1="274.19" x2="322.65" y2="274.19"/><line class="p" x1="273.66" y1="270.7" x2="273.66" y2="274.19"/><line class="p" x1="322.65" y1="270.7" x2="273.66" y2="270.7"/><polygon class="l" points="324.91 273.68 324.4 272.45 324.91 271.22 326.14 270.7 327.38 271.22 327.89 272.45 327.38 273.68 326.14 274.19 324.91 273.68"/><g class="q"><path class="p" d="M327.89,272.45a1.75,1.75,0,0,1-3.49,0"/><path class="p" d="M324.4,272.45a1.75,1.75,0,1,1,3.49,0"/></g><rect class="l" x="488.85" y="270.7" width="27.99" height="2.2"/><line class="p" x1="516.84" y1="272.9" x2="516.84" y2="270.7"/><line class="p" x1="488.85" y1="272.9" x2="516.84" y2="272.9"/><line class="p" x1="488.85" y1="270.7" x2="488.85" y2="272.9"/><line class="p" x1="516.84" y1="270.7" x2="488.85" y2="270.7"/><polygon class="l" points="519.1 273.04 518.59 271.8 519.1 270.57 520.34 270.06 521.58 270.57 522.09 271.8 521.58 273.04 520.34 273.55 519.1 273.04"/><g class="q"><path class="p" d="M522.09,271.8a1.75,1.75,0,1,1-3.5,0"/><path class="p" d="M518.59,271.8a1.75,1.75,0,0,1,3.5,0"/></g><polygon class="l" points="489.9 436.87 489.52 436.72 489.37 436.35 489.37 422.04 489.52 421.67 489.9 421.51 508.09 421.51 508.46 421.67 508.62 422.04 508.62 436.35 508.46 436.72 508.09 436.87 489.9 436.87"/><g class="q"><path class="p" d="M489.9,436.87a.52.52,0,0,1-.53-.52"/></g><line class="p" x1="489.37" y1="422.04" x2="489.37" y2="436.35"/><g class="q"><path class="p" d="M489.37,422a.53.53,0,0,1,.53-.53"/></g><line class="p" x1="508.09" y1="421.51" x2="489.9" y2="421.51"/><g class="q"><path class="p" d="M508.09,421.51a.53.53,0,0,1,.53.53"/></g><line class="p" x1="508.62" y1="436.35" x2="508.62" y2="422.04"/><g class="q"><path class="p" d="M508.62,436.35a.52.52,0,0,1-.53.52"/></g><line class="p" x1="489.9" y1="436.87" x2="508.09" y2="436.87"/><line class="p" x1="490.95" y1="433.03" x2="507.04" y2="433.03"/><line class="p" x1="507.57" y1="432.51" x2="507.57" y2="423.08"/><line class="p" x1="507.04" y1="422.56" x2="490.95" y2="422.56"/><line class="p" x1="490.42" y1="423.08" x2="490.42" y2="432.51"/><g class="q"><path class="p" d="M507.57,432.51a.52.52,0,0,1-.53.52"/><path class="p" d="M507,422.56a.52.52,0,0,1,.53.52"/><path class="p" d="M490.42,423.08a.52.52,0,0,1,.53-.52"/><path class="p" d="M491,433a.52.52,0,0,1-.53-.52"/></g><polygon class="l" points="498.38 435.39 498.12 434.78 498.26 433.31 498.38 432.98 498.61 431.13 498.74 430.89 499 430.79 499.25 430.89 499.38 431.13 499.62 432.98 499.73 433.31 499.87 434.78 499.61 435.39 499 435.65 498.38 435.39"/><line class="p" x1="498.12" y1="434.78" x2="498.26" y2="433.31"/><g class="q"><path class="p" d="M498.26,433.31a.7.7,0,0,1,.12-.33"/></g><line class="p" x1="498.38" y1="432.98" x2="498.61" y2="431.13"/><g class="q"><path class="p" d="M498.61,431.13a.39.39,0,0,1,.77,0"/></g><line class="p" x1="499.38" y1="431.13" x2="499.62" y2="432.98"/><g class="q"><path class="p" d="M499.62,433a.81.81,0,0,1,.11.33"/></g><line class="p" x1="499.73" y1="433.31" x2="499.87" y2="434.78"/><g class="q"><path class="p" d="M499.87,434.78a.88.88,0,0,1-1.75,0"/></g><line class="p" x1="499.47" y1="433.91" x2="499.47" y2="433.39"/><line class="p" x1="498.52" y1="433.39" x2="498.52" y2="433.91"/><line class="p" x1="498.52" y1="433.91" x2="499.47" y2="433.91"/><g class="q"><path class="p" d="M498.52,433.39a.48.48,0,1,1,1,0"/><path class="p" d="M498.38,433a.73.73,0,0,1,.61-.34.75.75,0,0,1,.63.34"/></g><polygon class="l" points="466.28 436.87 466.28 425.35 466.55 423.63 467.33 422.06 468.55 420.81 470.54 419.77 472.75 419.42 474.97 419.77 476.95 420.81 478.18 422.06 478.96 423.63 479.23 425.35 479.23 436.87 466.28 436.87"/><line class="p" x1="479.22" y1="436.87" x2="479.22" y2="425.35"/><line class="p" x1="479.22" y1="436.87" x2="466.28" y2="436.87"/><line class="p" x1="466.28" y1="436.87" x2="466.28" y2="425.35"/><line class="p" x1="477.13" y1="432.68" x2="477.13" y2="425.35"/><line class="p" x1="468.38" y1="432.68" x2="468.38" y2="425.35"/><line class="p" x1="468.38" y1="432.68" x2="477.13" y2="432.68"/><g class="q"><path class="p" d="M477,420.81a5.68,5.68,0,0,1,2.27,4.54"/><path class="p" d="M466.28,425.35a5.69,5.69,0,0,1,2.27-4.54"/><path class="p" d="M468.55,420.81a7,7,0,0,1,8.4,0"/><path class="p" d="M466.28,425.35a5.69,5.69,0,0,1,2.27-4.54"/><path class="p" d="M468.55,420.81a7.05,7.05,0,0,1,4.2-1.39"/><path class="p" d="M468.38,425.35a3.59,3.59,0,0,1,1.43-2.86"/><path class="p" d="M469.81,422.49a4.9,4.9,0,0,1,5.88,0"/><path class="p" d="M475.69,422.49a3.6,3.6,0,0,1,1.44,2.86"/></g><polygon class="l" points="375.28 336.54 375.28 325.67 373.88 323.94 373.13 321.78 373.13 319.47 373.88 317.31 375.28 315.58 375.28 304.7 377.22 304.7 379.16 312.66 379.16 314.98 380.22 318.68 380.22 322.56 379.16 326.26 379.16 328.58 377.22 336.54 375.28 336.54"/><line class="p" x1="375.28" y1="325.67" x2="373.88" y2="323.94"/><line class="p" x1="373.88" y1="323.94" x2="373.13" y2="321.78"/><line class="p" x1="373.13" y1="321.78" x2="373.13" y2="319.47"/><line class="p" x1="373.13" y1="319.47" x2="373.88" y2="317.31"/><line class="p" x1="373.88" y1="317.31" x2="375.28" y2="315.58"/><line class="p" x1="375.28" y1="315.58" x2="375.28" y2="304.71"/><line class="p" x1="375.28" y1="304.71" x2="377.22" y2="304.71"/><line class="p" x1="377.22" y1="304.71" x2="379.16" y2="312.66"/><line class="p" x1="379.16" y1="312.66" x2="379.16" y2="314.98"/><line class="p" x1="379.16" y1="314.98" x2="380.22" y2="318.68"/><line class="p" x1="380.22" y1="318.68" x2="380.22" y2="322.56"/><line class="p" x1="380.22" y1="322.56" x2="379.16" y2="326.26"/><line class="p" x1="379.16" y1="326.26" x2="379.16" y2="328.58"/><line class="p" x1="379.16" y1="328.58" x2="377.22" y2="336.54"/><line class="p" x1="377.22" y1="336.54" x2="375.28" y2="336.54"/><line class="p" x1="375.28" y1="336.54" x2="375.28" y2="325.67"/><line class="p" x1="375.28" y1="336.54" x2="375.28" y2="304.71"/><line class="p" x1="379.16" y1="312.66" x2="379.16" y2="328.58"/><line class="p" x1="377.22" y1="336.54" x2="375.28" y2="336.54"/><line class="p" x1="376.06" y1="306.83" x2="376.06" y2="308.95"/><line class="p" x1="376.06" y1="308.95" x2="376.54" y2="308.95"/><line class="p" x1="376.54" y1="308.95" x2="376.54" y2="306.83"/><line class="p" x1="376.54" y1="306.83" x2="376.06" y2="306.83"/><line class="p" x1="376.06" y1="309.48" x2="376.06" y2="311.6"/><line class="p" x1="376.06" y1="311.6" x2="376.54" y2="311.6"/><line class="p" x1="376.54" y1="311.6" x2="376.54" y2="309.48"/><line class="p" x1="376.54" y1="309.48" x2="376.06" y2="309.48"/><line class="p" x1="377.22" y1="336.54" x2="377.22" y2="304.71"/><line class="p" x1="376.54" y1="312.13" x2="376.06" y2="312.13"/><line class="p" x1="376.06" y1="312.13" x2="376.06" y2="313.2"/><line class="p" x1="376.06" y1="313.2" x2="376.54" y2="313.2"/><line class="p" x1="376.54" y1="313.2" x2="376.54" y2="312.13"/><g class="q"><path class="p" d="M375.28,325.67a6.78,6.78,0,0,1,0-10.09"/></g><polygon class="l" points="322.75 365.35 319.13 364.85 315.51 365.31 312.13 366.69 312.15 358.87 312.63 357.12 313.91 355.85 315.66 355.4 322.65 355.44 324.4 355.92 325.68 357.2 326.14 358.95 326.12 366.77 322.75 365.35"/><polygon class="l" points="332.81 394.93 326.05 390.98 328.95 388.78 331.19 385.9 332.59 382.53 333.08 378.92 339.84 382.86 341.12 384.15 341.58 385.9 341.11 387.64 337.59 393.68 336.31 394.95 334.56 395.41 332.81 394.93"/><polygon class="l" points="301.78 394.75 300.51 393.46 297.03 387.39 296.56 385.64 297.04 383.89 298.32 382.62 305.1 378.75 305.57 382.37 306.96 385.75 309.17 388.66 312.06 390.9 305.28 394.77 303.53 395.23 301.78 394.75"/><polygon class="l" points="315.43 392.32 312.06 390.9 309.17 388.66 306.96 385.75 305.57 382.37 305.1 378.75 305.59 375.14 307 371.77 309.23 368.89 312.13 366.69 315.51 365.31 319.13 364.85 322.75 365.35 326.12 366.77 329.01 369.01 331.23 371.92 332.62 375.3 333.08 378.92 332.59 382.53 331.19 385.9 328.95 388.78 326.05 390.98 322.68 392.36 319.05 392.82 315.43 392.32"/><line class="p" x1="312.13" y1="366.69" x2="315.51" y2="365.31"/><line class="p" x1="315.51" y1="365.31" x2="319.13" y2="364.85"/><line class="p" x1="319.13" y1="364.85" x2="322.75" y2="365.35"/><line class="p" x1="322.75" y1="365.35" x2="326.12" y2="366.77"/><line class="p" x1="326.12" y1="366.77" x2="329.01" y2="369.01"/><line class="p" x1="329.01" y1="369.01" x2="331.22" y2="371.92"/><line class="p" x1="331.23" y1="371.92" x2="332.61" y2="375.3"/><line class="p" x1="332.61" y1="375.3" x2="333.08" y2="378.91"/><line class="p" x1="333.08" y1="378.92" x2="332.59" y2="382.53"/><line class="p" x1="332.59" y1="382.53" x2="331.19" y2="385.9"/><line class="p" x1="331.19" y1="385.9" x2="328.95" y2="388.78"/><line class="p" x1="328.95" y1="388.78" x2="326.05" y2="390.98"/><line class="p" x1="326.05" y1="390.98" x2="322.67" y2="392.36"/><line class="p" x1="322.68" y1="392.36" x2="319.05" y2="392.82"/><line class="p" x1="319.05" y1="392.82" x2="315.43" y2="392.32"/><line class="p" x1="315.43" y1="392.32" x2="312.06" y2="390.9"/><line class="p" x1="312.06" y1="390.9" x2="309.17" y2="388.66"/><line class="p" x1="309.17" y1="388.66" x2="306.96" y2="385.75"/><line class="p" x1="306.96" y1="385.75" x2="305.57" y2="382.37"/><line class="p" x1="305.57" y1="382.37" x2="305.1" y2="378.75"/><line class="p" x1="305.1" y1="378.75" x2="305.59" y2="375.14"/><line class="p" x1="305.59" y1="375.14" x2="307" y2="371.77"/><line class="p" x1="307" y1="371.77" x2="309.23" y2="368.89"/><line class="p" x1="309.23" y1="368.89" x2="312.13" y2="366.69"/><g class="q"><path class="p" d="M331.23,371.92h0A14,14,0,1,1,307,385.75"/><path class="p" d="M307,385.75h0a14,14,0,1,1,24.27-13.83"/></g><line class="p" x1="322.65" y1="357.18" x2="315.66" y2="357.15"/><line class="p" x1="312.15" y1="358.87" x2="312.13" y2="366.69"/><line class="p" x1="322.66" y1="355.44" x2="315.66" y2="355.4"/><line class="p" x1="326.12" y1="366.77" x2="326.14" y2="358.95"/><line class="p" x1="336.08" y1="392.79" x2="339.59" y2="386.76"/><line class="p" x1="339.84" y1="382.86" x2="333.08" y2="378.92"/><line class="p" x1="337.59" y1="393.68" x2="341.11" y2="387.65"/><line class="p" x1="326.05" y1="390.98" x2="332.81" y2="394.93"/><line class="p" x1="298.54" y1="386.53" x2="302.02" y2="392.6"/><line class="p" x1="305.28" y1="394.77" x2="312.06" y2="390.9"/><line class="p" x1="297.03" y1="387.39" x2="300.51" y2="393.46"/><line class="p" x1="305.1" y1="378.75" x2="298.32" y2="382.62"/><g class="q"><path class="p" d="M313.9,358.88a1.77,1.77,0,0,1,.88-1.51,1.81,1.81,0,0,1,.88-.23"/><path class="p" d="M322.65,357.18a1.77,1.77,0,0,1,1.51.89,1.89,1.89,0,0,1,.24.87"/><path class="p" d="M312.16,358.87a3.46,3.46,0,0,1,3.5-3.47"/><path class="p" d="M322.65,355.44a3.53,3.53,0,0,1,3,1.76,3.37,3.37,0,0,1,.46,1.75"/><path class="p" d="M339,384.37a1.78,1.78,0,0,1,.64.64,1.74,1.74,0,0,1,0,1.75"/><path class="p" d="M336.08,392.8a1.68,1.68,0,0,1-.64.63,1.74,1.74,0,0,1-1.75,0"/><path class="p" d="M339.84,382.86a3.68,3.68,0,0,1,1.28,1.29,3.5,3.5,0,0,1,0,3.5"/><path class="p" d="M337.6,393.68a3.5,3.5,0,0,1-4.78,1.25"/><path class="p" d="M304.41,393.25a1.74,1.74,0,0,1-2.38-.65"/><path class="p" d="M298.54,386.52a1.75,1.75,0,0,1,.65-2.38"/><path class="p" d="M305.28,394.77a3.5,3.5,0,0,1-4.77-1.31"/><path class="p" d="M297,387.39a3.5,3.5,0,0,1,1.29-4.77"/></g><rect class="l" x="390.53" y="318.88" width="20.99" height="49.92"/><line class="p" x1="390.53" y1="368.8" x2="390.53" y2="318.88"/><line class="p" x1="390.53" y1="318.88" x2="411.52" y2="318.88"/><line class="p" x1="411.52" y1="318.88" x2="411.52" y2="368.8"/><line class="p" x1="411.52" y1="368.8" x2="390.53" y2="368.8"/><line class="p" x1="401.02" y1="366.3" x2="401.02" y2="321.37"/><line class="p" x1="394.85" y1="363.99" x2="407.43" y2="359.76"/><line class="p" x1="394.22" y1="359.23" x2="405.92" y2="357.48"/><line class="p" x1="408.59" y1="352.73" x2="395.75" y2="351.29"/><line class="p" x1="406.91" y1="345.36" x2="395.75" y2="347.31"/><line class="p" x1="407.55" y1="342.68" x2="393.8" y2="342.68"/><line class="p" x1="407.61" y1="335.09" x2="394.02" y2="336.89"/><line class="p" x1="407.38" y1="332.25" x2="394.97" y2="332.25"/><line class="p" x1="407.51" y1="324.76" x2="394.78" y2="323.33"/><line class="p" x1="406.64" y1="326.57" x2="395.89" y2="328.03"/><rect class="l" x="390.53" y="268.96" width="20.99" height="49.92"/><line class="p" x1="390.53" y1="318.88" x2="390.53" y2="268.96"/><line class="p" x1="390.53" y1="268.96" x2="411.52" y2="268.96"/><line class="p" x1="411.52" y1="268.96" x2="411.52" y2="318.88"/><line class="p" x1="411.52" y1="318.88" x2="390.53" y2="318.88"/><line class="p" x1="401.02" y1="316.38" x2="401.02" y2="271.45"/><line class="p" x1="394.85" y1="314.07" x2="407.43" y2="309.84"/><line class="p" x1="394.22" y1="309.31" x2="405.92" y2="307.56"/><line class="p" x1="408.59" y1="302.81" x2="395.75" y2="301.37"/><line class="p" x1="406.91" y1="295.44" x2="395.75" y2="297.39"/><line class="p" x1="407.55" y1="292.76" x2="393.8" y2="292.76"/><line class="p" x1="407.61" y1="285.17" x2="394.02" y2="286.97"/><line class="p" x1="407.38" y1="282.33" x2="394.97" y2="282.33"/><line class="p" x1="407.51" y1="274.84" x2="394.78" y2="273.41"/><line class="p" x1="406.64" y1="276.65" x2="395.89" y2="278.11"/><polygon class="l" points="533.98 351.99 481.5 351.99 478.82 351.46 476.55 349.95 475.04 347.68 474.5 345.01 474.5 296.14 475.04 293.47 476.55 291.2 478.82 289.69 481.5 289.16 544.48 289.16 544.48 351.99 533.98 351.99"/><rect class="l" x="533.98" y="276.94" width="10.5" height="12.22"/><rect class="l" x="533.98" y="351.99" width="10.5" height="12.22"/><line class="p" x1="532.85" y1="322.55" x2="535.87" y2="323.39"/><line class="p" x1="532.85" y1="293.24" x2="535.87" y2="294.07"/><line class="p" x1="474.5" y1="345.01" x2="474.5" y2="296.14"/><line class="p" x1="481.5" y1="289.16" x2="544.48" y2="289.16"/><line class="p" x1="544.48" y1="289.16" x2="544.48" y2="351.99"/><line class="p" x1="544.48" y1="351.99" x2="481.5" y2="351.99"/><line class="p" x1="544.48" y1="289.16" x2="544.48" y2="276.94"/><line class="p" x1="544.48" y1="276.94" x2="533.98" y2="276.94"/><line class="p" x1="533.98" y1="276.94" x2="533.98" y2="289.15"/><line class="p" x1="533.98" y1="289.16" x2="544.48" y2="289.16"/><line class="p" x1="544.48" y1="364.21" x2="544.48" y2="351.99"/><line class="p" x1="544.48" y1="351.99" x2="533.98" y2="351.99"/><line class="p" x1="533.98" y1="351.99" x2="533.98" y2="364.21"/><line class="p" x1="533.98" y1="364.21" x2="544.48" y2="364.21"/><line class="p" x1="521.2" y1="289.16" x2="521.2" y2="351.99"/><line class="p" x1="515.95" y1="289.16" x2="515.95" y2="351.99"/><g class="q"><path class="p" d="M526.85,295.17a97.86,97.86,0,0,1-.35,22.75"/><path class="p" d="M526.85,295.17a1.75,1.75,0,0,1,0-.4,1.87,1.87,0,0,1,1.87-1.87h.1"/><path class="p" d="M528.78,292.91c.27,0,.55,0,.83,0a14.76,14.76,0,0,1,3.24.36"/><path class="p" d="M532.85,293.24c1.75-.17,3.52-.26,5.28-.26.84,0,1.69,0,2.53.06"/><path class="p" d="M540.66,293l.12,0a.4.4,0,0,1,.39.4v.08"/><path class="p" d="M540.82,318q-.23-4.74-.23-9.48,0-7.53.58-15"/><path class="p" d="M540.82,318a.65.65,0,0,1,0,.2,1,1,0,0,1-1,1,.84.84,0,0,1-.31-.05"/><path class="p" d="M527.5,318.94a47.45,47.45,0,0,1,12.06.18"/><path class="p" d="M527.5,318.94a.91.91,0,0,1-.23,0,.8.8,0,0,1-.8-.8,1,1,0,0,1,0-.25"/><path class="p" d="M474.5,296.14a7,7,0,0,1,7-7"/><path class="p" d="M481.5,352a7,7,0,0,1-7-7"/><path class="p" d="M526.85,324.48a96.18,96.18,0,0,1,.5,9.89,97.16,97.16,0,0,1-.85,12.87"/><path class="p" d="M526.85,324.48a1.75,1.75,0,0,1,0-.4,1.87,1.87,0,0,1,1.87-1.87h.1"/><path class="p" d="M528.78,322.22c.27,0,.55,0,.83,0a14.76,14.76,0,0,1,3.24.36"/><path class="p" d="M532.85,322.55c1.75-.17,3.52-.26,5.28-.26.84,0,1.69,0,2.53.06"/><path class="p" d="M540.66,322.35l.12,0a.4.4,0,0,1,.39.4v.08"/><path class="p" d="M540.82,347.31q-.23-4.74-.23-9.48,0-7.51.58-15"/><path class="p" d="M540.82,347.31a.75.75,0,0,1,0,.21,1,1,0,0,1-1,1,1.12,1.12,0,0,1-.31-.05"/><path class="p" d="M527.5,348.25a47.34,47.34,0,0,1,5.33-.3,46,46,0,0,1,6.73.49"/><path class="p" d="M527.5,348.25a.61.61,0,0,1-.23,0,.8.8,0,0,1-.8-.8.93.93,0,0,1,0-.24"/></g><polygon class="l" points="250.57 349.25 250.07 349.05 249.87 348.55 249.87 276.64 250.07 276.15 250.57 275.94 278.91 275.94 279.37 276.1 279.64 276.5 279.61 276.99 279.61 302.82 279.55 303.56 278.91 303.93 279.42 304.31 279.61 304.92 279.61 342.97 279.42 343.59 278.91 344.01 279.4 344.22 279.61 344.71 279.61 345.76 279.14 347.5 277.86 348.78 276.11 349.25 250.57 349.25"/><polygon class="l" points="280.66 303.87 279.92 303.56 279.61 302.82 279.61 276.99 279.92 276.25 280.66 275.94 302.35 275.94 305.03 276.47 307.3 277.99 308.82 280.25 309.35 282.92 309.35 296.89 308.82 299.56 307.3 301.82 305.03 303.34 302.35 303.87 280.66 303.87"/><line class="p" x1="280.66" y1="303.87" x2="302.35" y2="303.87"/><g class="q"><path class="p" d="M280.66,303.87a1,1,0,0,1-1.05-1.05"/></g><line class="p" x1="279.61" y1="276.99" x2="279.61" y2="302.82"/><g class="q"><path class="p" d="M279.61,277a1,1,0,0,1,1.05-1.05"/></g><line class="p" x1="302.35" y1="275.94" x2="280.66" y2="275.94"/><g class="q"><path class="p" d="M302.35,275.94a7,7,0,0,1,7,7"/></g><line class="p" x1="309.35" y1="296.89" x2="309.35" y2="282.92"/><g class="q"><path class="p" d="M309.35,296.89a7,7,0,0,1-7,7"/></g><line class="p" x1="279.61" y1="344.71" x2="279.61" y2="345.76"/><line class="p" x1="276.11" y1="349.25" x2="250.57" y2="349.25"/><line class="p" x1="249.87" y1="348.55" x2="249.87" y2="344.71"/><line class="p" x1="250.57" y1="344.01" x2="278.91" y2="344.01"/><line class="p" x1="249.87" y1="344.71" x2="249.87" y2="303.87"/><line class="p" x1="249.87" y1="303.87" x2="252.32" y2="303.87"/><line class="p" x1="279.61" y1="304.92" x2="279.61" y2="342.97"/><line class="p" x1="278.56" y1="344.01" x2="261.02" y2="344.01"/><line class="p" x1="261.02" y1="303.87" x2="278.56" y2="303.87"/><line class="p" x1="252.32" y1="344.01" x2="258.92" y2="344.01"/><line class="p" x1="258.92" y1="303.87" x2="252.32" y2="303.87"/><line class="p" x1="279.61" y1="280.48" x2="279.61" y2="276.64"/><line class="p" x1="278.91" y1="275.94" x2="250.57" y2="275.94"/><line class="p" x1="249.87" y1="276.64" x2="249.87" y2="280.48"/><line class="p" x1="249.87" y1="280.48" x2="249.87" y2="303.87"/><line class="p" x1="249.87" y1="303.87" x2="252.32" y2="303.87"/><line class="p" x1="279.61" y1="302.82" x2="279.61" y2="282.22"/><line class="p" x1="261.02" y1="303.87" x2="278.56" y2="303.87"/><line class="p" x1="261.02" y1="303.87" x2="252.32" y2="303.87"/><line class="p" x1="309.35" y1="296.89" x2="309.35" y2="282.92"/><line class="p" x1="302.35" y1="275.94" x2="280.66" y2="275.94"/><line class="p" x1="279.61" y1="276.99" x2="279.61" y2="302.82"/><line class="p" x1="280.66" y1="303.87" x2="302.35" y2="303.87"/><line class="p" x1="251.27" y1="302.82" x2="251.27" y2="276.99"/><line class="p" x1="251.27" y1="304.92" x2="251.27" y2="342.97"/><g class="q"><path class="p" d="M250.57,349.25a.7.7,0,0,1-.7-.7"/><path class="p" d="M249.87,344.71a.7.7,0,0,1,.7-.7"/><path class="p" d="M278.91,344a.7.7,0,0,1,.7.7"/><path class="p" d="M279.61,343a1,1,0,0,1-1.05,1"/><path class="p" d="M278.56,303.87a1,1,0,0,1,1.05,1.05"/><path class="p" d="M278.91,275.94a.7.7,0,0,1,.7.7"/><path class="p" d="M249.87,276.64a.7.7,0,0,1,.7-.7"/><path class="p" d="M279.61,302.82a1,1,0,0,1-1.05,1.05"/><path class="p" d="M279.61,277a1,1,0,0,1,1.05-1.05"/><path class="p" d="M280.66,303.87a1,1,0,0,1-1.05-1.05"/></g><line class="p" x1="251.27" y1="276.99" x2="275.1" y2="276.99"/><g class="q"><path class="p" d="M255.34,302.86a19.79,19.79,0,0,1,15-24.61"/><path class="p" d="M256.17,304.92a119.82,119.82,0,0,1,0,38.05"/><path class="p" d="M309.35,296.89a7,7,0,0,1-7,7"/><path class="p" d="M302.35,275.94a7,7,0,0,1,7,7"/><path class="p" d="M279.61,345.76a3.5,3.5,0,0,1-3.5,3.49"/></g><rect class="l" x="237.84" y="434.78" width="0.14" height="15.71"/><line class="p" x1="237.84" y1="434.78" x2="237.97" y2="434.78"/><line class="p" x1="237.97" y1="434.78" x2="237.97" y2="450.49"/><line class="p" x1="425.52" y1="442.11" x2="418.52" y2="442.11"/><line class="p" x1="414.67" y1="442.11" x2="413.88" y2="442.11"/><line class="p" x1="410.03" y1="442.11" x2="409.25" y2="442.11"/><line class="p" x1="405.4" y1="442.11" x2="398.4" y2="442.11"/><line class="p" x1="394.55" y1="442.11" x2="394.02" y2="442.11"/><line class="p" x1="394.02" y1="442.11" x2="387.03" y2="442.11"/><line class="p" x1="294.58" y1="434.49" x2="294.58" y2="428.63"/><line class="p" x1="294.58" y1="428.63" x2="292.19" y2="430.55"/><line class="p" x1="292.19" y1="430.55" x2="289.81" y2="428.63"/><line class="p" x1="289.81" y1="428.63" x2="289.81" y2="434.49"/><line class="p" x1="237.84" y1="450.49" x2="552.75" y2="450.49"/><line class="p" x1="552.75" y1="450.49" x2="552.75" y2="255"/><line class="p" x1="552.75" y1="255" x2="548.55" y2="255"/><line class="p" x1="548.55" y1="255" x2="548.55" y2="167.64"/><line class="p" x1="548.55" y1="167.64" x2="242.04" y2="167.64"/><line class="p" x1="242.04" y1="167.64" x2="242.04" y2="255"/><line class="p" x1="242.04" y1="255" x2="237.84" y2="255"/><line class="p" x1="237.84" y1="255" x2="237.84" y2="450.49"/><path class="r" d="M435.57,223.48v7h-.72v-6.36H433.2v-.64Z"/><path class="r" d="M437.25,230a.53.53,0,0,1,.53-.54.54.54,0,0,1,.54.54.55.55,0,0,1-.54.55A.54.54,0,0,1,437.25,230Z"/><path class="r" d="M439.26,227c0-2.23,1.17-3.56,2.79-3.56s2.8,1.33,2.8,3.56-1.18,3.56-2.8,3.56S439.26,229.21,439.26,227Zm4.85,0c0-1.87-.84-2.9-2.06-2.9s-2.06,1-2.06,2.9.84,2.9,2.06,2.9S444.11,228.85,444.11,227Z"/><path class="r" d="M450.63,228.42c0,1.19-.83,2.12-2.54,2.12a3.61,3.61,0,0,1-2.51-.9l.35-.57a3,3,0,0,0,2.15.81c1.19,0,1.82-.58,1.82-1.43s-.56-1.46-2.34-1.46h-1.49l.36-3.51h3.83v.64h-3.2l-.24,2.23h.9C449.83,226.35,450.63,227.18,450.63,228.42Z"/><path class="r" d="M486.16,395.23v7h-.72v-6.36H483.8v-.64Z"/><path class="r" d="M487.84,401.73a.53.53,0,0,1,.53-.54.54.54,0,0,1,.54.54.55.55,0,0,1-.54.55A.54.54,0,0,1,487.84,401.73Z"/><path class="r" d="M489.85,398.73c0-2.23,1.17-3.56,2.79-3.56s2.8,1.33,2.8,3.56-1.18,3.56-2.8,3.56S489.85,401,489.85,398.73Zm4.85,0c0-1.87-.84-2.9-2.06-2.9s-2.06,1-2.06,2.9.84,2.9,2.06,2.9S494.7,400.6,494.7,398.73Z"/><path class="r" d="M502.42,400.39H501v1.84h-.72v-1.84h-3.95v-.52l3.71-4.64h.8l-3.58,4.52h3v-1.62h.7v1.62h1.4Z"/><path class="r" d="M435.57,315.83v7h-.72v-6.36H433.2v-.64Z"/><path class="r" d="M437.25,322.33a.53.53,0,0,1,.53-.54.54.54,0,0,1,.54.54.55.55,0,0,1-.54.55A.54.54,0,0,1,437.25,322.33Z"/><path class="r" d="M439.26,319.33c0-2.23,1.17-3.56,2.79-3.56s2.8,1.33,2.8,3.56-1.18,3.56-2.8,3.56S439.26,321.56,439.26,319.33Zm4.85,0c0-1.87-.84-2.9-2.06-2.9s-2.06,1-2.06,2.9.84,2.9,2.06,2.9S444.11,321.2,444.11,319.33Z"/><path class="r" d="M450.42,320.82c0,1.17-.85,2.07-2.54,2.07a3.64,3.64,0,0,1-2.52-.9l.35-.57a3.07,3.07,0,0,0,2.17.81c1.16,0,1.8-.54,1.8-1.41s-.59-1.39-1.89-1.39h-.5v-.53l1.94-2.43h-3.58v-.64h4.5v.51l-2,2.49C449.67,318.91,450.42,319.7,450.42,320.82Z"/><path class="r" d="M329.74,316.4v7H329V317h-1.65v-.64Z"/><path class="r" d="M331.42,322.9a.53.53,0,0,1,.53-.54.54.54,0,0,1,.54.54.55.55,0,0,1-.54.55A.54.54,0,0,1,331.42,322.9Z"/><path class="r" d="M333.43,319.9c0-2.23,1.17-3.56,2.79-3.56s2.8,1.33,2.8,3.56-1.18,3.56-2.8,3.56S333.43,322.13,333.43,319.9Zm4.85,0c0-1.87-.84-2.9-2.06-2.9s-2.06,1-2.06,2.9.84,2.9,2.06,2.9S338.28,321.77,338.28,319.9Z"/><path class="r" d="M344.82,322.76v.64h-4.91v-.51l2.91-2.85c.79-.78.94-1.25.94-1.73,0-.81-.57-1.31-1.64-1.31a2.38,2.38,0,0,0-1.91.78l-.51-.44a3.15,3.15,0,0,1,2.48-1c1.42,0,2.32.72,2.32,1.89a2.88,2.88,0,0,1-1.15,2.19L341,322.76Z"/><path class="r" d="M401.9,395.22v7h-.72v-6.36h-1.65v-.64Z"/><path class="r" d="M403.58,401.72a.53.53,0,0,1,.53-.54.54.54,0,0,1,.54.54.55.55,0,0,1-.54.55A.54.54,0,0,1,403.58,401.72Z"/><path class="r" d="M405.59,398.72c0-2.23,1.17-3.56,2.79-3.56s2.8,1.33,2.8,3.56-1.18,3.56-2.8,3.56S405.59,401,405.59,398.72Zm4.85,0c0-1.87-.84-2.9-2.06-2.9s-2.06,1-2.06,2.9.84,2.9,2.06,2.9S410.44,400.59,410.44,398.72Z"/><path class="r" d="M414.14,395.22v7h-.72v-6.36h-1.64v-.64Z"/></svg>