<svg xmlns="http://www.w3.org/2000/svg" xmlns:xlink="http://www.w3.org/1999/xlink" viewBox="0 0 790.58 618.13"><defs><style>.a,.p{fill:none;}.b{clip-path:url(#a);}.c{clip-path:url(#d);}.d{clip-path:url(#g);}.e{clip-path:url(#j);}.f{clip-path:url(#m);}.g{clip-path:url(#p);}.h{clip-path:url(#s);}.i{clip-path:url(#v);}.j{fill:#595a5c;}.k{fill:#b6906c;}.l,.q{fill:#fff;}.m{fill:#231f20;}.n{fill:url(#y);}.o{fill:url(#z);}.p{stroke:#000;stroke-linecap:round;stroke-linejoin:round;stroke-width:0.35px;}.q,.r{fill-rule:evenodd;}.s{clip-path:url(#aa);}.t{fill:#58595b;}</style><clipPath id="a"><rect class="a" y="59.93" width="90" height="59.93"/></clipPath><clipPath id="d"><rect class="a" x="90" y="59.93" width="90" height="59.93"/></clipPath><clipPath id="g"><rect class="a" width="90" height="59.93"/></clipPath><clipPath id="j"><rect class="a" x="90" width="90" height="59.93"/></clipPath><clipPath id="m"><rect class="a" y="50" width="50" height="50"/></clipPath><clipPath id="p"><rect class="a" x="50" y="50" width="50" height="50"/></clipPath><clipPath id="s"><rect class="a" width="50" height="50"/></clipPath><clipPath id="v"><rect class="a" x="50" width="50" height="50"/></clipPath><pattern id="y" width="100" height="100" patternTransform="matrix(3.51, 0, 0, -3.51, -9477.84, 51432.87)" patternUnits="userSpaceOnUse" viewBox="0 0 100 100"><rect class="a" width="100" height="100"/><g class="f"><g class="f"><g class="f"><image width="210" height="210" transform="matrix(0.24, 0, 0, -0.24, -0.2, 100.2)" xlink:href="B105_pudorys1.png"/></g></g></g><g class="g"><g class="g"><g class="g"><image width="209" height="210" transform="matrix(0.24, 0, 0, -0.24, 49.96, 100.2)" xlink:href="B105_pudorys2.png"/></g></g></g><g class="h"><g class="h"><g class="h"><image width="210" height="209" transform="matrix(0.24, 0, 0, -0.24, -0.2, 50.04)" xlink:href="B105_pudorys3.png"/></g></g></g><g class="i"><g class="i"><g class="i"><image width="209" height="209" transform="matrix(0.24, 0, 0, -0.24, 49.96, 50.04)" xlink:href="B105_pudorys4.png"/></g></g></g></pattern><pattern id="z" width="180" height="119.85" patternTransform="matrix(0, -3.51, -3.51, 0, 34723.62, 14780.86)" patternUnits="userSpaceOnUse" viewBox="0 0 180 119.85"><rect class="a" width="180" height="119.85"/><g class="b"><g class="b"><g class="b"><image width="376" height="251" transform="matrix(0.24, 0, 0, -0.24, -0.2, 120.05)" xlink:href="B105_pudorys5.png"/></g></g></g><g class="c"><g class="c"><g class="c"><image width="376" height="251" transform="matrix(0.24, 0, 0, -0.24, 89.8, 120.05)" xlink:href="B105_pudorys6.png"/></g></g></g><g class="d"><g class="d"><g class="d"><image width="376" height="251" transform="matrix(0.24, 0, 0, -0.24, -0.2, 60.05)" xlink:href="B105_pudorys7.png"/></g></g></g><g class="e"><g class="e"><g class="e"><image width="376" height="251" transform="matrix(0.24, 0, 0, -0.24, 89.8, 60.05)" xlink:href="B105_pudorys8.png"/></g></g></g></pattern><clipPath id="aa"><polygon class="a" points="259.9 167.29 259.9 254.43 255.87 254.43 255.87 450.84 534.71 450.84 534.71 254.43 530.85 254.43 530.85 167.29 259.9 167.29"/></clipPath></defs><path class="j" d="M55.31,597.13H57.1V609.9H55.31Zm.92,6.11h4.09a1.89,1.89,0,0,0,1-.27,1.82,1.82,0,0,0,.68-.77,2.67,2.67,0,0,0,.24-1.16,2.7,2.7,0,0,0-.24-1.16,1.82,1.82,0,0,0-1.7-1H56.23v-1.7h4a4.09,4.09,0,0,1,2,.48A3.45,3.45,0,0,1,63.62,599a4.64,4.64,0,0,1,0,4.11,3.34,3.34,0,0,1-1.35,1.36,4,4,0,0,1-2,.49h-4Z"/><path class="j" d="M67.7,606.33a2.07,2.07,0,0,0,.49,1.48,1.76,1.76,0,0,0,1.37.52,1.89,1.89,0,0,0,1.37-.46,1.79,1.79,0,0,0,.48-1.33l.12,1.91A2.58,2.58,0,0,1,69.06,610a2.89,2.89,0,0,1-2.33-1,4.08,4.08,0,0,1-.82-2.73v-5.55H67.7Zm.22-7.86a1.93,1.93,0,0,1-.56-1.5,2.07,2.07,0,0,1,.56-1.57,2.56,2.56,0,0,1,3.18,0,2.08,2.08,0,0,1,.57,1.56,1.94,1.94,0,0,1-.57,1.5,2.65,2.65,0,0,1-3.18,0Zm2.26-.86a.94.94,0,0,0,.24-.68,1,1,0,0,0-.24-.7.91.91,0,0,0-.67-.25.92.92,0,0,0-.67.25,1,1,0,0,0-.23.7,1,1,0,0,0,.23.68.92.92,0,0,0,.67.24A.9.9,0,0,0,70.18,597.61Zm1.23,3.17h1.78v9.12H71.41Z"/><path class="j" d="M77.1,609.63A2.82,2.82,0,0,1,76,608.36a5.08,5.08,0,0,1-.36-2v-2a5.05,5.05,0,0,1,.36-2,2.71,2.71,0,0,1,1-1.27,3,3,0,0,1,1.65-.44,2.71,2.71,0,0,1,1.48.42,3.22,3.22,0,0,1,1.09,1.19l-.18,1.86a2.19,2.19,0,0,0-.22-1,1.48,1.48,0,0,0-.61-.63,2,2,0,0,0-1-.21,1.71,1.71,0,0,0-1.37.55,2.26,2.26,0,0,0-.49,1.56v2a2.19,2.19,0,0,0,.49,1.54,1.74,1.74,0,0,0,1.37.54,1.93,1.93,0,0,0,1-.23,1.45,1.45,0,0,0,.61-.64,2.25,2.25,0,0,0,.22-1l.12,1.92a2.66,2.66,0,0,1-.89,1.14,2.56,2.56,0,0,1-1.53.45A3.19,3.19,0,0,1,77.1,609.63Zm4-12.5H82.9V609.9H81.11Z"/><path class="j" d="M87.09,609.57a3.09,3.09,0,0,1-1.29-1.36,4.85,4.85,0,0,1-.44-2.15v-1.48a4.71,4.71,0,0,1,.44-2.12,3.12,3.12,0,0,1,1.29-1.35,4.71,4.71,0,0,1,4.06,0,3.12,3.12,0,0,1,1.29,1.35,4.71,4.71,0,0,1,.44,2.12v1.51a4.79,4.79,0,0,1-.44,2.13,3.12,3.12,0,0,1-1.29,1.35,4.62,4.62,0,0,1-4.06,0Zm3.49-1.83a2.43,2.43,0,0,0,.51-1.65v-1.51a2.43,2.43,0,0,0-.51-1.65,1.88,1.88,0,0,0-1.46-.58,1.85,1.85,0,0,0-1.45.58,2.38,2.38,0,0,0-.52,1.65v1.51a2.38,2.38,0,0,0,.52,1.65,1.82,1.82,0,0,0,1.45.59A1.85,1.85,0,0,0,90.58,607.74Z"/><path class="j" d="M95.43,600.78h1.79v9.12H95.43Zm4.42,1.72a2.16,2.16,0,0,0-.83-.15,1.83,1.83,0,0,0-1.33.47,1.79,1.79,0,0,0-.47,1.31L97,602.37a3.32,3.32,0,0,1,1.09-1.27,2.58,2.58,0,0,1,1.48-.45,3.39,3.39,0,0,1,1.13.18,2.62,2.62,0,0,1,.88.53l-1.17,1.58A1.56,1.56,0,0,0,99.85,602.5Z"/><path class="j" d="M102.15,600.78H104l2.81,7.93-1,1.94Zm8.07,0L106.34,612a2.6,2.6,0,0,1-.56,1,1.87,1.87,0,0,1-.84.52,4,4,0,0,1-1.23.16h-.36V612h.36a1.46,1.46,0,0,0,.8-.2,1.74,1.74,0,0,0,.51-.7l3.38-10.31Z"/><path class="j" d="M113.51,609.88a5.76,5.76,0,0,1-1.32-.48,4.89,4.89,0,0,1-1.13-.79l1.06-1.31a5.86,5.86,0,0,0,1.47.85,4.18,4.18,0,0,0,1.44.28,3.11,3.11,0,0,0,1.6-.33,1.1,1.1,0,0,0,.53-1,.79.79,0,0,0-.29-.66,1.66,1.66,0,0,0-.72-.29c-.29,0-.69-.1-1.22-.14h-.15l-.14,0h-.15a6.45,6.45,0,0,1-1.5-.26,2,2,0,0,1-1-.7,2.38,2.38,0,0,1-.41-1.49,3.07,3.07,0,0,1,.39-1.61,2.41,2.41,0,0,1,1.18-1,5.29,5.29,0,0,1,2-.32,6.38,6.38,0,0,1,2.6.52,6.16,6.16,0,0,1,1.13.66l-1.08,1.31a5.59,5.59,0,0,0-1.35-.66,4,4,0,0,0-1.3-.22,2.44,2.44,0,0,0-1.37.31,1.08,1.08,0,0,0-.46.94.64.64,0,0,0,.26.55,1.72,1.72,0,0,0,.66.25c.26,0,.64.07,1.12.1h.34a7.67,7.67,0,0,1,1.63.25,2.24,2.24,0,0,1,1.13.77,2.62,2.62,0,0,1,.45,1.65,2.92,2.92,0,0,1-.42,1.63,2.54,2.54,0,0,1-1.27,1A5.88,5.88,0,0,1,115,610,7.38,7.38,0,0,1,113.51,609.88Z"/><path class="j" d="M126,597.13h1.8V609.9H126Zm2.6,12.5a2.39,2.39,0,0,1-.93-1.16l.13-1.91a2.22,2.22,0,0,0,.21,1,1.48,1.48,0,0,0,.61.63,1.93,1.93,0,0,0,1,.22,1.74,1.74,0,0,0,1.37-.54,2.18,2.18,0,0,0,.49-1.53v-2a2.26,2.26,0,0,0-.49-1.56,1.71,1.71,0,0,0-1.37-.55,2,2,0,0,0-1,.21,1.36,1.36,0,0,0-.61.62,2.12,2.12,0,0,0-.21,1l-.19-1.76a3.37,3.37,0,0,1,1.08-1.24,2.67,2.67,0,0,1,1.49-.43,3,3,0,0,1,1.65.43,2.9,2.9,0,0,1,1.06,1.27,5.1,5.1,0,0,1,.36,2v2a4.94,4.94,0,0,1-.37,2,2.79,2.79,0,0,1-1.08,1.26,3.25,3.25,0,0,1-1.71.44A2.73,2.73,0,0,1,128.57,609.63Z"/><path class="j" d="M134.46,600.78h1.82l2.81,7.93-1,1.94Zm8.07,0L138.65,612a2.6,2.6,0,0,1-.56,1,1.87,1.87,0,0,1-.84.52,4,4,0,0,1-1.23.16h-.36V612H136a1.46,1.46,0,0,0,.8-.2,1.74,1.74,0,0,0,.51-.7l3.37-10.31Z"/><path class="j" d="M143.57,600.78h4.12v1.62h-4.12Zm1.46,8.56a2.77,2.77,0,0,1-.52-1.81v-9.4h1.8v9.42a.84.84,0,0,0,.13.51.46.46,0,0,0,.39.18h.86V610h-1A2,2,0,0,1,145,609.34Z"/><path class="j" d="M151.94,606.33a2.07,2.07,0,0,0,.49,1.48,1.76,1.76,0,0,0,1.37.52,1.91,1.91,0,0,0,1.37-.46,1.79,1.79,0,0,0,.48-1.33l.12,1.91A2.58,2.58,0,0,1,153.3,610a2.89,2.89,0,0,1-2.33-1,4.08,4.08,0,0,1-.82-2.73v-5.55h1.79Zm3.71-5.55h1.78v9.12h-1.78Z"/><rect class="k" x="612.92" y="591.68" width="35.43" height="2.83"/><path class="l" d="M648.48,594.64H612.79v-3.08h35.69ZM613,594.39h35.19v-2.58H613Z"/><rect class="k" x="612.92" y="601.6" width="70.74" height="2.83"/><path class="l" d="M683.78,604.56h-71v-3.08h71ZM613,604.31h70.49v-2.58H613Z"/><rect class="k" x="612.92" y="612.72" width="177.16" height="2.84"/><path class="l" d="M790.21,615.68H612.79V612.6H790.21ZM613,615.43H790v-2.58H613Z"/><path class="m" d="M587.26,596.28h-.8v-4.82l-.81.5v-.83l.81-.53h.8Z"/><path class="m" d="M589,595.91a1.67,1.67,0,0,1-.41-1.19v-2.58A1.65,1.65,0,0,1,589,591a2,2,0,0,1,2.42,0,1.65,1.65,0,0,1,.41,1.19v2.58a1.65,1.65,0,0,1-.41,1.19,2,2,0,0,1-2.42,0Zm1.83-.55a.89.89,0,0,0,.2-.64v-2.58a.89.89,0,0,0-.2-.64.82.82,0,0,0-.62-.22.86.86,0,0,0-.63.22.94.94,0,0,0-.2.64v2.58a.9.9,0,0,0,.21.64,1,1,0,0,0,1.24,0Z"/><path class="m" d="M593.22,595.91a1.67,1.67,0,0,1-.41-1.19v-2.58a1.65,1.65,0,0,1,.41-1.19,2,2,0,0,1,2.42,0,1.61,1.61,0,0,1,.41,1.19v2.58a1.65,1.65,0,0,1-.41,1.19,2,2,0,0,1-2.42,0Zm1.83-.55a.9.9,0,0,0,.21-.64v-2.58a.94.94,0,0,0-.2-.64.86.86,0,0,0-.63-.22.82.82,0,0,0-.62.22.89.89,0,0,0-.2.64v2.58a.89.89,0,0,0,.2.64,1,1,0,0,0,1.24,0Z"/><path class="m" d="M600.1,596.13a1.45,1.45,0,0,1-.6-.6,2.06,2.06,0,0,1-.21-1v-.67a2,2,0,0,1,.21-.94,1.37,1.37,0,0,1,.6-.59,2,2,0,0,1,.95-.21,2.21,2.21,0,0,1,.59.08,1.68,1.68,0,0,1,.51.22,1.54,1.54,0,0,1,.37.35l-.58.52a1.17,1.17,0,0,0-.4-.3,1.13,1.13,0,0,0-.48-.11.94.94,0,0,0-.71.26,1,1,0,0,0-.26.72v.67a1,1,0,0,0,.25.74.94.94,0,0,0,.72.27,1,1,0,0,0,.48-.12,1,1,0,0,0,.4-.32l.58.56a1.38,1.38,0,0,1-.38.34,1.62,1.62,0,0,1-.5.22,2.27,2.27,0,0,1-.59.07A2.12,2.12,0,0,1,600.1,596.13Z"/><path class="m" d="M603.4,592.22h.79v4.06h-.79Zm2.42,1.6a1,1,0,0,0-.21-.67.78.78,0,0,0-.6-.23.81.81,0,0,0-.6.21.73.73,0,0,0-.22.58l-.08-.78a1.46,1.46,0,0,1,.49-.57,1.22,1.22,0,0,1,.67-.2,1.33,1.33,0,0,1,.73.2,1.18,1.18,0,0,1,.46.56,2.4,2.4,0,0,1,.15.89v2.47h-.79Zm2.42,0a.93.93,0,0,0-.22-.67.85.85,0,0,0-.63-.23.72.72,0,0,0-.57.23.9.9,0,0,0-.21.64l-.16-.78a1.61,1.61,0,0,1,.51-.63,1.23,1.23,0,0,1,.69-.22,1.37,1.37,0,0,1,.75.2,1.09,1.09,0,0,1,.47.56,2.21,2.21,0,0,1,.17.89v2.47h-.8Z"/><path class="m" d="M584.33,605.5l2-2.64a1.85,1.85,0,0,0,.27-.47,1.29,1.29,0,0,0,.09-.45h0a.67.67,0,0,0-.2-.53.81.81,0,0,0-.56-.19.76.76,0,0,0-.56.21,1,1,0,0,0-.27.58h-.82a2,2,0,0,1,.29-.83,1.42,1.42,0,0,1,.56-.53,1.67,1.67,0,0,1,.79-.18,1.93,1.93,0,0,1,.87.17,1.21,1.21,0,0,1,.54.51,1.55,1.55,0,0,1,.19.8h0a1.84,1.84,0,0,1-.12.63,2.8,2.8,0,0,1-.35.63l-1.65,2.24h2.15v.76h-3.2Z"/><path class="m" d="M589,605.83a1.67,1.67,0,0,1-.41-1.19v-2.58a1.65,1.65,0,0,1,.41-1.19,2,2,0,0,1,2.42,0,1.65,1.65,0,0,1,.41,1.19v2.58a1.65,1.65,0,0,1-.41,1.19,2,2,0,0,1-2.42,0Zm1.83-.55a.89.89,0,0,0,.2-.64v-2.58a.89.89,0,0,0-.2-.64.82.82,0,0,0-.62-.22.86.86,0,0,0-.63.22.94.94,0,0,0-.19.64v2.58a.89.89,0,0,0,.2.64,1,1,0,0,0,1.24,0Z"/><path class="m" d="M593.22,605.83a1.67,1.67,0,0,1-.41-1.19v-2.58a1.61,1.61,0,0,1,.42-1.19,1.59,1.59,0,0,1,1.2-.42,1.45,1.45,0,0,1,1.62,1.61v2.58a1.61,1.61,0,0,1-.41,1.19,2,2,0,0,1-2.42,0Zm1.84-.55a.94.94,0,0,0,.2-.64v-2.58a.94.94,0,0,0-.2-.64.84.84,0,0,0-.63-.22.82.82,0,0,0-.62.22.89.89,0,0,0-.2.64v2.58a.89.89,0,0,0,.2.64.82.82,0,0,0,.62.22A.86.86,0,0,0,595.06,605.28Z"/><path class="m" d="M600.1,606.05a1.45,1.45,0,0,1-.6-.6,2.06,2.06,0,0,1-.2-1v-.67a2,2,0,0,1,.2-.94,1.37,1.37,0,0,1,.6-.59,2,2,0,0,1,.95-.21,2.35,2.35,0,0,1,.6.08,1.73,1.73,0,0,1,.5.22,1.38,1.38,0,0,1,.37.35l-.58.52a1.08,1.08,0,0,0-.4-.3,1.13,1.13,0,0,0-.48-.11,1,1,0,0,0-.71.26,1,1,0,0,0-.26.72v.67a1,1,0,0,0,.25.74.94.94,0,0,0,.72.27,1.14,1.14,0,0,0,.88-.44l.58.56a1.38,1.38,0,0,1-.38.34,1.62,1.62,0,0,1-.5.22,2.22,2.22,0,0,1-.59.07A2.12,2.12,0,0,1,600.1,606.05Z"/><path class="m" d="M603.4,602.14h.79v4.06h-.79Zm2.42,1.6a1,1,0,0,0-.21-.67.78.78,0,0,0-.6-.23.81.81,0,0,0-.6.21.73.73,0,0,0-.22.58l-.08-.78a1.46,1.46,0,0,1,.49-.57,1.22,1.22,0,0,1,.67-.2,1.3,1.3,0,0,1,.73.2,1.18,1.18,0,0,1,.46.56,2.4,2.4,0,0,1,.16.89v2.47h-.8Zm2.42,0a.93.93,0,0,0-.22-.67.85.85,0,0,0-.63-.23.73.73,0,0,0-.57.23.89.89,0,0,0-.2.64l-.16-.78a1.51,1.51,0,0,1,.5-.63,1.23,1.23,0,0,1,.69-.22,1.35,1.35,0,0,1,.75.2,1.16,1.16,0,0,1,.48.56,2.4,2.4,0,0,1,.16.89v2.47h-.8Z"/><path class="m" d="M585,615.58a1.34,1.34,0,0,1-.54-.49,2,2,0,0,1-.28-.77h.8a.75.75,0,0,0,.25.49.85.85,0,0,0,.54.17.72.72,0,0,0,.59-.25,1.1,1.1,0,0,0,.21-.72v-.48a1.1,1.1,0,0,0-.21-.72.72.72,0,0,0-.59-.25.83.83,0,0,0-.4.11,1.18,1.18,0,0,0-.34.33h-.72v-3h2.89v.76h-2.1V612a1,1,0,0,1,.34-.18.94.94,0,0,1,.37-.07,1.68,1.68,0,0,1,.84.2,1.29,1.29,0,0,1,.53.6,2.07,2.07,0,0,1,.19.94V614a2.25,2.25,0,0,1-.19.94,1.31,1.31,0,0,1-.55.59,1.69,1.69,0,0,1-.86.21A1.74,1.74,0,0,1,585,615.58Z"/><path class="m" d="M589,615.32a1.65,1.65,0,0,1-.41-1.19v-2.58a1.67,1.67,0,0,1,.41-1.19,2,2,0,0,1,2.42,0,1.65,1.65,0,0,1,.41,1.19v2.58a1.64,1.64,0,0,1-.41,1.19,1.92,1.92,0,0,1-2.42,0Zm1.83-.55a.89.89,0,0,0,.2-.64v-2.58a.88.88,0,0,0-.2-.63.78.78,0,0,0-.62-.22.82.82,0,0,0-.63.22.93.93,0,0,0-.2.63v2.58a.9.9,0,0,0,.21.64,1,1,0,0,0,1.24,0Z"/><path class="m" d="M593.22,615.32a1.65,1.65,0,0,1-.41-1.19v-2.58a1.67,1.67,0,0,1,.41-1.19,2,2,0,0,1,2.42,0,1.61,1.61,0,0,1,.41,1.19v2.58a1.64,1.64,0,0,1-.41,1.19,1.92,1.92,0,0,1-2.42,0Zm1.83-.55a.9.9,0,0,0,.21-.64v-2.58a.93.93,0,0,0-.2-.63.82.82,0,0,0-.63-.22.78.78,0,0,0-.62.22.88.88,0,0,0-.2.63v2.58a.89.89,0,0,0,.2.64,1,1,0,0,0,1.24,0Z"/><path class="m" d="M600.1,615.54a1.45,1.45,0,0,1-.6-.6,2,2,0,0,1-.21-1v-.67a2,2,0,0,1,.21-.94,1.45,1.45,0,0,1,.6-.6,2,2,0,0,1,.95-.2,2.22,2.22,0,0,1,.59.07,2,2,0,0,1,.51.22,1.76,1.76,0,0,1,.37.35l-.58.52a1.17,1.17,0,0,0-.4-.3,1.13,1.13,0,0,0-.48-.11.94.94,0,0,0-.71.26,1,1,0,0,0-.26.73V614a1.07,1.07,0,0,0,.25.74,1,1,0,0,0,.72.26,1.13,1.13,0,0,0,.48-.11,1.26,1.26,0,0,0,.4-.32l.58.55a1.42,1.42,0,0,1-.38.35,1.88,1.88,0,0,1-.5.21,2.27,2.27,0,0,1-.59.08A2,2,0,0,1,600.1,615.54Z"/><path class="m" d="M603.4,611.63h.79v4.06h-.79Zm2.42,1.6a1,1,0,0,0-.21-.66.75.75,0,0,0-.6-.24.81.81,0,0,0-.6.21.75.75,0,0,0-.22.58l-.08-.78a1.5,1.5,0,0,1,.49-.56,1.15,1.15,0,0,1,.67-.2,1.32,1.32,0,0,1,.73.19,1.28,1.28,0,0,1,.46.56,2.42,2.42,0,0,1,.15.9v2.46h-.79Zm2.42,0a.91.91,0,0,0-.22-.66.82.82,0,0,0-.63-.24.72.72,0,0,0-.57.23.9.9,0,0,0-.21.64l-.16-.78a1.51,1.51,0,0,1,.51-.62,1.16,1.16,0,0,1,.69-.22,1.37,1.37,0,0,1,.75.19,1.18,1.18,0,0,1,.47.56,2.22,2.22,0,0,1,.17.9v2.46h-.8Z"/><path class="k" d="M23.49,613.89A12.92,12.92,0,1,1,36.4,601,12.93,12.93,0,0,1,23.49,613.89Zm0-24.83A11.92,11.92,0,1,0,35.4,601,11.93,11.93,0,0,0,23.49,589.06Z"/><polygon class="l" points="35.77 588.74 9.42 600.98 35.77 613.21 32.02 600.98 35.77 588.74"/><path class="k" d="M36.58,614.14,8.23,601l28.35-13.17-4,13.17ZM10.61,601,35,612.29,31.5,601,35,589.66Z"/><path class="k" d="M2.52,605.19a5,5,0,0,1-1.11-.38,4.4,4.4,0,0,1-1-.64l.81-1a3.72,3.72,0,0,0,1.16.69,4.08,4.08,0,0,0,1.38.23,2.73,2.73,0,0,0,1.55-.38,1.17,1.17,0,0,0,.55-1.05h0a1.12,1.12,0,0,0-.25-.77,1.44,1.44,0,0,0-.64-.42,8.23,8.23,0,0,0-1-.25H3.89l-.1,0a9.48,9.48,0,0,1-1.5-.36,2.08,2.08,0,0,1-1-.73,2.42,2.42,0,0,1-.41-1.51h0a2.77,2.77,0,0,1,.38-1.47,2.44,2.44,0,0,1,1.12-.92,4.48,4.48,0,0,1,1.77-.32,4.6,4.6,0,0,1,1,.11,4.9,4.9,0,0,1,1.86.86l-.73,1a4.61,4.61,0,0,0-1-.58,3,3,0,0,0-1.06-.2,2.44,2.44,0,0,0-1.46.38,1.24,1.24,0,0,0-.53,1.07h0a1,1,0,0,0,.27.75,1.74,1.74,0,0,0,.67.4,9.3,9.3,0,0,0,1.12.27h.24a7.93,7.93,0,0,1,1.4.41,2.22,2.22,0,0,1,.94.76,2.4,2.4,0,0,1,.38,1.43h0a2.62,2.62,0,0,1-.4,1.45,2.54,2.54,0,0,1-1.16.91,4.8,4.8,0,0,1-1.83.31A6.44,6.44,0,0,1,2.52,605.19Z"/><rect class="k" x="612.5" y="600.68" width="1" height="4.68"/><rect class="k" x="612.5" y="590.76" width="1" height="4.68"/><rect class="k" x="612.5" y="611.45" width="1" height="5.24"/><rect class="k" x="789.58" y="611.45" width="1" height="5.24"/><rect class="k" x="682.59" y="600.68" width="1" height="4.68"/><rect class="k" x="647.3" y="590.76" width="1" height="4.68"/><rect class="a" width="790.34" height="618.13"/><rect class="n" x="255.87" y="376.52" width="0.14" height="43.84"/><rect class="o" x="255.87" y="269.2" width="0.14" height="100.31"/><rect class="l" x="397" y="429.13" width="21.04" height="14.03"/><line class="p" x1="397" y1="443.16" x2="418.05" y2="443.16"/><line class="p" x1="397" y1="429.13" x2="397" y2="443.16"/><line class="p" x1="418.05" y1="429.13" x2="397" y2="429.13"/><line class="p" x1="418.05" y1="443.16" x2="418.05" y2="429.13"/><polygon class="q" points="526.42 443.16 450.31 443.16 450.31 421.77 505.03 421.77 505.03 358.63 526.42 358.63 526.42 422.12 526.42 443.16"/><line class="p" x1="526.42" y1="443.16" x2="450.31" y2="443.16"/><line class="p" x1="450.32" y1="443.16" x2="450.32" y2="421.77"/><line class="p" x1="450.32" y1="421.77" x2="505.03" y2="421.77"/><line class="p" x1="505.03" y1="421.77" x2="505.03" y2="358.63"/><line class="p" x1="505.03" y1="358.63" x2="526.43" y2="358.63"/><line class="p" x1="526.42" y1="358.63" x2="526.42" y2="422.12"/><line class="p" x1="526.42" y1="422.12" x2="526.42" y2="443.16"/><rect class="l" x="265.3" y="389.67" width="31.57" height="31.57"/><line class="p" x1="296.87" y1="421.24" x2="265.3" y2="421.24"/><line class="p" x1="265.3" y1="421.24" x2="265.3" y2="389.67"/><line class="p" x1="265.3" y1="389.67" x2="296.87" y2="389.67"/><line class="p" x1="296.87" y1="389.67" x2="296.87" y2="421.24"/><line class="p" x1="292.48" y1="425.62" x2="292.48" y2="443.16"/><line class="p" x1="292.48" y1="443.16" x2="264.43" y2="443.16"/><line class="p" x1="264.43" y1="443.16" x2="288.98" y2="439.65"/><line class="p" x1="288.98" y1="439.65" x2="292.48" y2="425.62"/><line class="p" x1="446.81" y1="429.13" x2="446.81" y2="443.16"/><line class="p" x1="446.81" y1="443.16" x2="420.5" y2="443.16"/><line class="p" x1="420.5" y1="443.16" x2="443.3" y2="439.65"/><line class="p" x1="443.3" y1="439.65" x2="446.81" y2="429.13"/><line class="p" x1="255.87" y1="424.43" x2="256.01" y2="423.87"/><line class="p" x1="256.01" y1="423.87" x2="256.01" y2="443.16"/><line class="p" x1="256.01" y1="443.16" x2="255.87" y2="443.16"/><rect x="507.13" y="255.17" width="27.57" height="7.01"/><rect x="350.18" y="255.17" width="69.27" height="7.01"/><rect x="255.87" y="255.17" width="27.67" height="7.01"/><rect x="255.87" y="262.18" width="25.91" height="7.01"/><rect x="508.89" y="262.18" width="25.82" height="7.01"/><rect x="351.93" y="262.18" width="65.76" height="7.01"/><polygon class="r" points="255.87 450.84 255.87 443.16 256.01 443.16 256.01 269.2 264.43 269.2 264.43 443.16 357.37 443.16 357.37 450.84 255.87 450.84"/><polygon class="r" points="534.71 450.84 395.95 450.84 395.95 443.16 526.42 443.16 526.42 269.2 534.71 269.2 534.71 450.84"/><rect x="394.2" y="447.55" width="1.75" height="3.29"/><rect x="357.37" y="447.55" width="1.75" height="3.29"/><polygon class="r" points="529.41 255.17 529.41 183.26 530.85 183.26 530.85 254.43 532.21 254.43 532.21 255.17 529.41 255.17"/><polygon class="r" points="258.81 255.17 258.81 254.43 259.91 254.43 259.91 183.26 261.62 183.26 261.62 255.17 258.81 255.17"/><rect x="255.87" y="369.51" width="0.14" height="7.02"/><rect x="354.91" y="418.61" width="2.46" height="24.55"/><polygon class="r" points="264.43 386.34 360.88 386.34 360.88 388.8 357.37 388.8 357.37 390.55 354.92 390.55 354.92 388.8 264.43 388.8 264.43 386.34"/><polygon class="r" points="392.44 386.34 394.2 386.34 394.2 283.93 379.47 283.93 379.47 269.2 381.92 269.2 381.92 281.47 394.2 281.47 394.2 269.2 396.65 269.2 396.65 386.34 420.5 386.34 420.5 390.55 418.05 390.55 418.05 388.8 392.44 388.8 392.44 386.34"/><rect x="418.05" y="422.12" width="2.46" height="21.05"/><rect x="255.87" y="420.36" width="0.14" height="3.51"/><polygon class="r" points="420.5 425.63 450.31 425.63 450.31 443.16 446.79 443.16 446.81 429.13 420.5 429.13 420.5 425.63"/><rect x="264.43" y="422.12" width="31.57" height="3.51"/><line class="p" x1="534.71" y1="255.17" x2="507.13" y2="255.17"/><line class="p" x1="419.45" y1="255.17" x2="350.18" y2="255.17"/><line class="p" x1="526.42" y1="269.2" x2="508.89" y2="269.2"/><line class="p" x1="255.87" y1="255.17" x2="283.54" y2="255.17"/><line class="p" x1="255.87" y1="269.2" x2="256.01" y2="269.2"/><line class="p" x1="508.89" y1="269.2" x2="508.89" y2="262.18"/><line class="p" x1="417.7" y1="269.2" x2="417.7" y2="262.18"/><line class="p" x1="351.93" y1="269.2" x2="351.93" y2="262.18"/><line class="p" x1="281.79" y1="262.18" x2="281.79" y2="269.2"/><line class="p" x1="264.43" y1="269.2" x2="281.79" y2="269.2"/><line class="p" x1="507.13" y1="262.18" x2="507.13" y2="255.17"/><line class="p" x1="508.89" y1="262.18" x2="507.14" y2="262.18"/><line class="p" x1="350.18" y1="262.18" x2="350.18" y2="255.17"/><line class="p" x1="351.93" y1="262.18" x2="350.18" y2="262.18"/><line class="p" x1="419.45" y1="262.18" x2="419.45" y2="255.17"/><line class="p" x1="417.7" y1="262.18" x2="419.45" y2="262.18"/><line class="p" x1="283.54" y1="262.18" x2="283.54" y2="255.17"/><line class="p" x1="281.79" y1="262.18" x2="283.54" y2="262.18"/><line class="p" x1="529.41" y1="183.27" x2="530.85" y2="183.27"/><line class="p" x1="532.21" y1="254.43" x2="532.21" y2="255.17"/><line class="p" x1="529.41" y1="183.27" x2="529.41" y2="255.17"/><line class="p" x1="529.41" y1="255.17" x2="532.21" y2="255.17"/><line class="p" x1="259.91" y1="183.27" x2="261.62" y2="183.27"/><line class="p" x1="261.62" y1="183.27" x2="261.62" y2="255.17"/><line class="p" x1="258.81" y1="254.43" x2="258.81" y2="255.17"/><line class="p" x1="258.81" y1="255.17" x2="261.62" y2="255.17"/><line class="p" x1="379.47" y1="269.2" x2="351.93" y2="269.2"/><line class="p" x1="396.65" y1="269.2" x2="417.7" y2="269.2"/><line class="p" x1="526.42" y1="443.16" x2="450.31" y2="443.16"/><line class="p" x1="446.46" y1="443.16" x2="420.5" y2="443.16"/><line class="p" x1="354.91" y1="443.16" x2="295.99" y2="443.16"/><line class="p" x1="292.48" y1="443.16" x2="264.43" y2="443.16"/><line class="p" x1="526.42" y1="269.2" x2="526.42" y2="443.16"/><line class="p" x1="256.01" y1="269.2" x2="256.01" y2="369.51"/><line class="p" x1="264.43" y1="388.8" x2="264.43" y2="422.12"/><line class="p" x1="264.43" y1="425.62" x2="264.43" y2="443.16"/><line class="p" x1="394.2" y1="447.55" x2="394.2" y2="450.84"/><line class="p" x1="359.12" y1="447.55" x2="359.12" y2="450.84"/><line class="p" x1="359.12" y1="447.55" x2="357.37" y2="447.55"/><line class="p" x1="357.37" y1="447.55" x2="357.37" y2="443.16"/><line class="p" x1="394.2" y1="447.55" x2="395.95" y2="447.55"/><line class="p" x1="395.95" y1="447.55" x2="395.95" y2="443.16"/><line class="p" x1="256.01" y1="376.52" x2="256.01" y2="420.36"/><line class="p" x1="295.99" y1="443.16" x2="292.48" y2="443.16"/><line class="p" x1="530.85" y1="167.48" x2="259.91" y2="167.48"/><line class="p" x1="508.89" y1="269.2" x2="452.77" y2="269.2"/><line class="p" x1="452.77" y1="269.2" x2="417.7" y2="269.2"/><line class="p" x1="281.79" y1="269.2" x2="316.86" y2="269.2"/><line class="p" x1="316.86" y1="269.2" x2="351.93" y2="269.2"/><line class="p" x1="281.79" y1="269.2" x2="316.86" y2="269.2"/><line class="p" x1="316.86" y1="269.2" x2="316.86" y2="262.18"/><line class="p" x1="318.61" y1="262.18" x2="318.61" y2="255.17"/><line class="p" x1="283.54" y1="255.17" x2="318.61" y2="255.17"/><line class="p" x1="316.86" y1="269.2" x2="351.93" y2="269.2"/><line class="p" x1="318.61" y1="258.67" x2="350.18" y2="258.67"/><line class="p" x1="316.86" y1="264.99" x2="316.86" y2="262.18"/><line class="p" x1="319.67" y1="262.88" x2="319.67" y2="262.18"/><line class="p" x1="319.67" y1="262.18" x2="316.86" y2="262.18"/><line class="p" x1="316.86" y1="262.18" x2="316.86" y2="264.99"/><line class="p" x1="316.86" y1="264.99" x2="318.26" y2="264.99"/><line class="p" x1="318.26" y1="265.69" x2="321.07" y2="265.69"/><line class="p" x1="321.07" y1="265.69" x2="321.07" y2="262.88"/><line class="p" x1="321.07" y1="262.88" x2="318.26" y2="262.88"/><line class="p" x1="318.26" y1="262.88" x2="318.26" y2="265.69"/><line class="p" x1="349.13" y1="262.88" x2="349.13" y2="262.18"/><line class="p" x1="349.13" y1="262.18" x2="351.93" y2="262.18"/><line class="p" x1="351.93" y1="262.18" x2="351.93" y2="264.99"/><line class="p" x1="351.93" y1="264.99" x2="350.53" y2="264.99"/><line class="p" x1="350.53" y1="265.69" x2="347.72" y2="265.69"/><line class="p" x1="347.72" y1="265.69" x2="347.72" y2="262.88"/><line class="p" x1="347.72" y1="262.88" x2="350.53" y2="262.88"/><line class="p" x1="350.53" y1="262.88" x2="350.53" y2="265.69"/><line class="p" x1="321.07" y1="265.69" x2="347.72" y2="265.69"/><line class="p" x1="347.72" y1="262.88" x2="321.07" y2="262.88"/><line class="p" x1="321.07" y1="264.29" x2="347.72" y2="264.29"/><line class="p" x1="314.06" y1="262.88" x2="314.06" y2="262.18"/><line class="p" x1="314.06" y1="262.18" x2="316.86" y2="262.18"/><line class="p" x1="316.86" y1="262.18" x2="316.86" y2="264.99"/><line class="p" x1="316.86" y1="264.99" x2="315.46" y2="264.99"/><line class="p" x1="315.46" y1="265.69" x2="312.65" y2="265.69"/><line class="p" x1="312.65" y1="265.69" x2="312.65" y2="262.88"/><line class="p" x1="312.65" y1="262.88" x2="315.46" y2="262.88"/><line class="p" x1="315.46" y1="262.88" x2="315.46" y2="265.69"/><line class="p" x1="284.59" y1="262.88" x2="284.59" y2="262.18"/><line class="p" x1="284.59" y1="262.18" x2="281.79" y2="262.18"/><line class="p" x1="281.79" y1="262.18" x2="281.79" y2="264.99"/><line class="p" x1="281.79" y1="264.99" x2="283.19" y2="264.99"/><line class="p" x1="283.19" y1="265.69" x2="286" y2="265.69"/><line class="p" x1="286" y1="265.69" x2="286" y2="262.88"/><line class="p" x1="286" y1="262.88" x2="283.19" y2="262.88"/><line class="p" x1="283.19" y1="262.88" x2="283.19" y2="265.69"/><line class="p" x1="312.65" y1="265.69" x2="286" y2="265.69"/><line class="p" x1="286" y1="262.88" x2="312.65" y2="262.88"/><line class="p" x1="312.65" y1="264.29" x2="286" y2="264.29"/><line class="p" x1="508.89" y1="269.2" x2="452.77" y2="269.2"/><line class="p" x1="452.77" y1="269.2" x2="417.7" y2="269.2"/><line class="p" x1="507.13" y1="255.17" x2="451.02" y2="255.17"/><line class="p" x1="452.77" y1="269.2" x2="452.77" y2="262.18"/><line class="p" x1="451.02" y1="262.18" x2="451.02" y2="255.17"/><line class="p" x1="451.02" y1="258.67" x2="419.45" y2="258.67"/><line class="p" x1="449.96" y1="262.88" x2="449.96" y2="262.18"/><line class="p" x1="449.96" y1="262.18" x2="452.77" y2="262.18"/><line class="p" x1="452.77" y1="262.18" x2="452.77" y2="264.99"/><line class="p" x1="452.77" y1="264.99" x2="451.37" y2="264.99"/><line class="p" x1="451.37" y1="265.69" x2="448.56" y2="265.69"/><line class="p" x1="448.56" y1="265.69" x2="448.56" y2="262.88"/><line class="p" x1="448.56" y1="262.88" x2="451.37" y2="262.88"/><line class="p" x1="451.37" y1="262.88" x2="451.37" y2="265.69"/><line class="p" x1="419.1" y1="265.69" x2="421.91" y2="265.69"/><line class="p" x1="421.91" y1="265.69" x2="421.91" y2="262.88"/><line class="p" x1="421.91" y1="262.88" x2="419.1" y2="262.88"/><line class="p" x1="419.1" y1="262.88" x2="419.1" y2="265.69"/><line class="p" x1="448.56" y1="265.69" x2="421.91" y2="265.69"/><line class="p" x1="421.91" y1="262.88" x2="448.56" y2="262.88"/><line class="p" x1="448.56" y1="264.29" x2="421.91" y2="264.29"/><line class="p" x1="420.5" y1="262.88" x2="420.5" y2="262.18"/><line class="p" x1="420.5" y1="262.18" x2="417.7" y2="262.18"/><line class="p" x1="417.7" y1="262.18" x2="417.7" y2="264.99"/><line class="p" x1="417.7" y1="264.99" x2="419.1" y2="264.99"/><line class="p" x1="452.77" y1="264.99" x2="455.58" y2="264.99"/><line class="p" x1="455.58" y1="264.99" x2="455.58" y2="262.18"/><line class="p" x1="455.58" y1="262.18" x2="452.77" y2="262.18"/><line class="p" x1="452.77" y1="262.18" x2="452.77" y2="264.99"/><line class="p" x1="455.58" y1="264.99" x2="479.43" y2="264.99"/><line class="p" x1="455.58" y1="263.58" x2="479.43" y2="263.58"/><line class="p" x1="455.58" y1="262.18" x2="479.43" y2="262.18"/><line class="p" x1="506.08" y1="262.88" x2="506.08" y2="262.18"/><line class="p" x1="506.08" y1="262.18" x2="508.89" y2="262.18"/><line class="p" x1="508.89" y1="262.18" x2="508.89" y2="264.99"/><line class="p" x1="508.89" y1="264.99" x2="507.49" y2="264.99"/><line class="p" x1="507.49" y1="265.69" x2="504.68" y2="265.69"/><line class="p" x1="504.68" y1="265.69" x2="504.68" y2="262.88"/><line class="p" x1="504.68" y1="262.88" x2="507.49" y2="262.88"/><line class="p" x1="507.49" y1="262.88" x2="507.49" y2="265.69"/><line class="p" x1="504.68" y1="265.69" x2="483.64" y2="265.69"/><line class="p" x1="483.64" y1="262.88" x2="504.68" y2="262.88"/><line class="p" x1="504.68" y1="264.29" x2="483.64" y2="264.29"/><line class="p" x1="482.23" y1="262.88" x2="482.23" y2="262.18"/><line class="p" x1="482.23" y1="262.18" x2="479.43" y2="262.18"/><line class="p" x1="479.43" y1="262.18" x2="479.43" y2="264.99"/><line class="p" x1="479.43" y1="264.99" x2="480.83" y2="264.99"/><line class="p" x1="480.83" y1="265.69" x2="483.64" y2="265.69"/><line class="p" x1="483.64" y1="265.69" x2="483.64" y2="262.88"/><line class="p" x1="483.64" y1="262.88" x2="480.83" y2="262.88"/><line class="p" x1="480.83" y1="262.88" x2="480.83" y2="265.69"/><line class="p" x1="259.91" y1="179.76" x2="530.85" y2="179.76"/><line class="p" x1="256.01" y1="420.36" x2="256.01" y2="376.52"/><line class="p" x1="394.2" y1="269.2" x2="394.2" y2="281.47"/><line class="p" x1="394.2" y1="283.93" x2="394.2" y2="386.34"/><line class="p" x1="396.65" y1="269.2" x2="396.65" y2="386.34"/><line class="p" x1="295.99" y1="422.12" x2="264.43" y2="422.12"/><line class="p" x1="292.48" y1="425.62" x2="264.43" y2="425.62"/><line class="p" x1="264.43" y1="388.8" x2="354.91" y2="388.8"/><line class="p" x1="264.43" y1="386.34" x2="360.88" y2="386.34"/><line class="p" x1="354.91" y1="388.8" x2="354.91" y2="390.55"/><line class="p" x1="354.91" y1="418.61" x2="354.91" y2="443.16"/><line class="p" x1="357.37" y1="388.8" x2="357.37" y2="390.55"/><line class="p" x1="357.37" y1="418.61" x2="357.37" y2="443.16"/><line class="p" x1="418.05" y1="422.12" x2="418.05" y2="443.16"/><line class="p" x1="420.5" y1="386.34" x2="420.5" y2="390.55"/><line class="p" x1="420.5" y1="429.13" x2="420.5" y2="443.16"/><line class="p" x1="450.32" y1="425.62" x2="450.32" y2="443.16"/><line class="p" x1="446.81" y1="429.13" x2="446.81" y2="443.16"/><line class="p" x1="357.37" y1="418.61" x2="354.91" y2="418.61"/><line class="p" x1="357.37" y1="390.55" x2="354.91" y2="390.55"/><line class="p" x1="357.37" y1="388.8" x2="360.88" y2="388.8"/><line class="p" x1="360.88" y1="388.8" x2="360.88" y2="386.34"/><line class="p" x1="392.44" y1="388.8" x2="392.44" y2="386.34"/><line class="p" x1="392.44" y1="386.34" x2="394.2" y2="386.34"/><line class="p" x1="392.44" y1="388.8" x2="418.05" y2="388.8"/><line class="p" x1="396.65" y1="386.34" x2="420.5" y2="386.34"/><line class="p" x1="418.05" y1="390.55" x2="420.5" y2="390.55"/><line class="p" x1="420.5" y1="422.12" x2="418.05" y2="422.12"/><line class="p" x1="418.05" y1="390.55" x2="418.05" y2="388.8"/><line class="p" x1="450.32" y1="425.62" x2="431.03" y2="425.62"/><line class="p" x1="446.81" y1="429.13" x2="420.5" y2="429.13"/><line class="p" x1="420.5" y1="425.62" x2="420.5" y2="422.12"/><line class="p" x1="256.01" y1="376.52" x2="255.87" y2="376.52"/><line class="p" x1="256.01" y1="369.51" x2="255.87" y2="369.51"/><line class="p" x1="350.53" y1="265.69" x2="350.53" y2="297.96"/><g class="s"><path class="p" d="M350.53,298a32.27,32.27,0,0,1-32.27-32.27"/></g><line class="p" x1="419.1" y1="265.69" x2="419.1" y2="297.96"/><g class="s"><path class="p" d="M451.37,265.69A32.27,32.27,0,0,1,419.1,298"/><path class="p" d="M271.44,416a.88.88,0,1,0-.88.88.88.88,0,0,0,.88-.88"/></g><line class="p" x1="296.87" y1="421.24" x2="296.87" y2="389.67"/><line class="p" x1="296.87" y1="389.67" x2="265.3" y2="389.67"/><line class="p" x1="265.3" y1="389.67" x2="265.3" y2="421.24"/><line class="p" x1="265.3" y1="421.24" x2="296.87" y2="421.24"/><line class="p" x1="295.12" y1="415.98" x2="295.12" y2="394.94"/><line class="p" x1="291.61" y1="391.43" x2="270.56" y2="391.43"/><line class="p" x1="267.06" y1="394.94" x2="267.06" y2="415.98"/><line class="p" x1="270.56" y1="419.49" x2="291.61" y2="419.49"/><g class="s"><path class="p" d="M295.12,416a3.51,3.51,0,0,1-3.51,3.51"/><path class="p" d="M291.61,391.43a3.51,3.51,0,0,1,3.51,3.51"/><path class="p" d="M270.56,419.49a3.51,3.51,0,0,1-3.5-3.51"/><path class="p" d="M267.06,394.94a3.51,3.51,0,0,1,3.5-3.51"/></g><line class="p" x1="354.91" y1="437.9" x2="295.99" y2="437.9"/><line class="p" x1="314.93" y1="389.67" x2="314.93" y2="393.18"/><line class="p" x1="314.93" y1="393.18" x2="335.98" y2="393.18"/><line class="p" x1="335.98" y1="393.18" x2="335.98" y2="389.67"/><line class="p" x1="335.98" y1="389.67" x2="334.92" y2="389.67"/><line class="p" x1="334.92" y1="389.67" x2="334.92" y2="392.13"/><line class="p" x1="334.92" y1="392.13" x2="315.98" y2="392.13"/><line class="p" x1="315.98" y1="392.13" x2="315.98" y2="389.68"/><line class="p" x1="315.98" y1="389.67" x2="314.93" y2="389.67"/><line class="p" x1="314.93" y1="389.67" x2="314.93" y2="393.18"/><line class="p" x1="335.98" y1="389.67" x2="335.98" y2="393.18"/><line class="p" x1="315.98" y1="389.67" x2="315.98" y2="392.13"/><line class="p" x1="334.92" y1="389.67" x2="334.92" y2="392.13"/><line class="p" x1="314.93" y1="393.18" x2="335.98" y2="393.18"/><line class="p" x1="314.93" y1="392.13" x2="335.98" y2="392.13"/><line class="p" x1="314.93" y1="389.67" x2="315.98" y2="389.67"/><line class="p" x1="334.92" y1="389.67" x2="335.98" y2="389.67"/><line class="p" x1="452.77" y1="269.2" x2="452.77" y2="279.72"/><line class="p" x1="452.77" y1="279.72" x2="417.7" y2="279.72"/><line class="p" x1="417.7" y1="279.72" x2="417.7" y2="269.2"/><line class="p" x1="351.93" y1="269.2" x2="351.93" y2="279.72"/><line class="p" x1="351.93" y1="279.72" x2="316.86" y2="279.72"/><line class="p" x1="316.86" y1="279.72" x2="316.86" y2="269.2"/><line class="p" x1="458.71" y1="429.81" x2="463.67" y2="434.77"/><line class="p" x1="463.67" y1="429.81" x2="458.71" y2="434.77"/><line class="p" x1="461.19" y1="435.8" x2="461.19" y2="428.78"/><line class="p" x1="457.68" y1="432.29" x2="464.69" y2="432.29"/><line class="p" x1="471.71" y1="421.77" x2="471.71" y2="442.81"/><line class="p" x1="450.67" y1="421.77" x2="471.71" y2="421.77"/><line class="p" x1="526.42" y1="411.24" x2="526.42" y2="390.2"/><line class="p" x1="526.42" y1="390.2" x2="505.03" y2="390.2"/><line class="p" x1="505.03" y1="390.2" x2="505.03" y2="411.24"/><line class="p" x1="505.03" y1="411.24" x2="526.43" y2="411.24"/><g class="s"><path class="p" d="M521.69,400.72a6.14,6.14,0,1,0-6.14,6.14,6.14,6.14,0,0,0,6.14-6.14"/><path class="p" d="M520.64,400.72a5.09,5.09,0,1,0-5.09,5.09,5.08,5.08,0,0,0,5.09-5.09"/><path class="p" d="M521.85,430.57a7.89,7.89,0,1,0-7.89,7.89,7.89,7.89,0,0,0,7.89-7.89"/><path class="p" d="M520.62,430.57a6.67,6.67,0,1,0-6.66,6.66,6.66,6.66,0,0,0,6.66-6.66"/><path class="p" d="M517.19,432.93a.88.88,0,1,0-.88.87.87.87,0,0,0,.88-.87"/><path class="p" d="M524.16,374.51a3.45,3.45,0,1,0-3.44,3.45,3.44,3.44,0,0,0,3.44-3.45"/></g><line class="p" x1="526.07" y1="369.16" x2="505.03" y2="369.16"/><line class="p" x1="505.03" y1="369.16" x2="505.03" y2="390.2"/><line class="p" x1="505.03" y1="390.2" x2="526.07" y2="390.2"/><g class="s"><path class="p" d="M513.83,374.51a3.44,3.44,0,1,0-3.44,3.45,3.44,3.44,0,0,0,3.44-3.45"/><path class="p" d="M513.83,384.85a3.44,3.44,0,1,0-3.44,3.44,3.44,3.44,0,0,0,3.44-3.44"/></g><line class="p" x1="504.08" y1="387.33" x2="504.08" y2="372.02"/><line class="p" x1="492.75" y1="442.81" x2="492.75" y2="421.77"/><line class="p" x1="492.75" y1="421.77" x2="471.71" y2="421.77"/><line class="p" x1="471.71" y1="421.77" x2="471.71" y2="442.81"/><line class="p" x1="526.42" y1="358.63" x2="526.42" y2="443.16"/><line class="p" x1="526.42" y1="443.16" x2="450.31" y2="443.16"/><line class="p" x1="450.32" y1="443.16" x2="450.32" y2="421.77"/><line class="p" x1="450.32" y1="421.77" x2="505.03" y2="421.77"/><line class="p" x1="505.03" y1="421.77" x2="505.03" y2="358.63"/><line class="p" x1="505.03" y1="358.63" x2="526.43" y2="358.63"/><line class="p" x1="295.99" y1="422.12" x2="295.99" y2="425.63"/><line class="p" x1="295.99" y1="422.12" x2="264.43" y2="422.12"/><line class="p" x1="292.48" y1="425.62" x2="264.43" y2="425.62"/><line class="p" x1="292.48" y1="425.62" x2="295.99" y2="425.62"/><line class="p" x1="256.01" y1="423.87" x2="255.87" y2="423.87"/><line class="p" x1="256.01" y1="420.36" x2="255.87" y2="420.36"/><line class="p" x1="256.01" y1="423.87" x2="256.01" y2="443.16"/><line class="p" x1="256.01" y1="443.16" x2="255.87" y2="443.16"/><line class="p" x1="255.87" y1="423.87" x2="256.01" y2="423.87"/><line class="p" x1="418.05" y1="443.16" x2="395.95" y2="443.16"/><line class="p" x1="264.43" y1="269.2" x2="264.43" y2="386.34"/><line class="p" x1="394.2" y1="283.93" x2="379.47" y2="283.93"/><line class="p" x1="379.47" y1="283.93" x2="379.47" y2="269.2"/><line class="p" x1="394.2" y1="281.47" x2="381.92" y2="281.47"/><line class="p" x1="381.92" y1="281.47" x2="381.92" y2="269.2"/><line class="p" x1="381.92" y1="269.2" x2="394.2" y2="269.2"/><line class="p" x1="420.5" y1="425.62" x2="431.02" y2="425.62"/><line class="p" x1="420.5" y1="429.13" x2="420.5" y2="425.62"/><line class="p" x1="390.69" y1="386.34" x2="362.63" y2="386.34"/><line class="p" x1="390.69" y1="386.34" x2="390.69" y2="358.28"/><g class="s"><path class="p" d="M362.63,386.34a28.06,28.06,0,0,1,28.06-28.06"/></g><line class="p" x1="390.69" y1="388.8" x2="390.69" y2="386.34"/><line class="p" x1="362.63" y1="386.34" x2="362.63" y2="388.8"/><line class="p" x1="362.63" y1="386.34" x2="360.88" y2="386.34"/><line class="p" x1="362.63" y1="388.8" x2="360.88" y2="388.8"/><line class="p" x1="392.44" y1="386.34" x2="390.69" y2="386.34"/><line class="p" x1="392.44" y1="388.8" x2="390.69" y2="388.8"/><line class="p" x1="390.69" y1="388.8" x2="383.68" y2="388.8"/><line class="p" x1="379.82" y1="388.8" x2="379.03" y2="388.8"/><line class="p" x1="375.17" y1="388.8" x2="374.38" y2="388.8"/><line class="p" x1="370.52" y1="388.8" x2="369.65" y2="388.8"/><line class="p" x1="369.65" y1="388.8" x2="362.63" y2="388.8"/><line class="p" x1="390.69" y1="386.34" x2="390.69" y2="385.47"/><line class="p" x1="390.69" y1="385.47" x2="394.2" y2="385.47"/><line class="p" x1="394.2" y1="385.47" x2="394.2" y2="386.34"/><line class="p" x1="390.69" y1="388.8" x2="390.69" y2="389.67"/><line class="p" x1="390.69" y1="389.67" x2="394.2" y2="389.67"/><line class="p" x1="394.2" y1="389.67" x2="394.2" y2="388.8"/><line class="p" x1="362.63" y1="385.47" x2="359.12" y2="385.47"/><line class="p" x1="359.12" y1="385.47" x2="359.12" y2="386.34"/><line class="p" x1="362.63" y1="388.8" x2="362.63" y2="389.67"/><line class="p" x1="362.63" y1="389.67" x2="359.12" y2="389.67"/><line class="p" x1="359.12" y1="389.67" x2="359.12" y2="388.8"/><line class="p" x1="360.88" y1="447.55" x2="392.44" y2="447.55"/><line class="p" x1="360.88" y1="447.55" x2="360.88" y2="415.98"/><g class="s"><path class="p" d="M360.88,416a31.56,31.56,0,0,1,31.56,31.57"/></g><line class="p" x1="360.88" y1="450.84" x2="360.88" y2="447.55"/><line class="p" x1="392.44" y1="447.55" x2="392.44" y2="450.84"/><line class="p" x1="392.44" y1="447.55" x2="394.2" y2="447.55"/><line class="p" x1="359.12" y1="447.55" x2="360.88" y2="447.55"/><line class="p" x1="357.37" y1="416.86" x2="357.37" y2="392.31"/><line class="p" x1="357.37" y1="416.86" x2="381.92" y2="416.86"/><g class="s"><path class="p" d="M357.37,392.31a24.55,24.55,0,0,1,24.55,24.55"/></g><line class="p" x1="354.91" y1="416.86" x2="357.37" y2="416.86"/><line class="p" x1="357.37" y1="392.31" x2="354.91" y2="392.31"/><line class="p" x1="357.37" y1="392.31" x2="357.37" y2="390.55"/><line class="p" x1="354.91" y1="392.31" x2="354.91" y2="390.55"/><line class="p" x1="357.37" y1="418.61" x2="357.37" y2="416.86"/><line class="p" x1="354.91" y1="418.61" x2="354.91" y2="416.86"/><line class="p" x1="354.91" y1="416.86" x2="354.91" y2="409.84"/><line class="p" x1="354.91" y1="405.98" x2="354.91" y2="405.19"/><line class="p" x1="354.91" y1="401.34" x2="354.91" y2="400.55"/><line class="p" x1="354.91" y1="399.32" x2="354.91" y2="392.31"/><line class="p" x1="357.37" y1="416.86" x2="358.25" y2="416.86"/><line class="p" x1="358.25" y1="416.86" x2="358.25" y2="420.36"/><line class="p" x1="358.25" y1="420.36" x2="357.37" y2="420.36"/><line class="p" x1="354.91" y1="416.86" x2="354.04" y2="416.86"/><line class="p" x1="354.04" y1="416.86" x2="354.04" y2="420.36"/><line class="p" x1="354.04" y1="420.36" x2="354.91" y2="420.36"/><line class="p" x1="358.25" y1="392.31" x2="358.25" y2="388.8"/><line class="p" x1="358.25" y1="388.8" x2="357.37" y2="388.8"/><line class="p" x1="354.91" y1="392.31" x2="354.04" y2="392.31"/><line class="p" x1="354.04" y1="392.31" x2="354.04" y2="388.8"/><line class="p" x1="354.04" y1="388.8" x2="354.91" y2="388.8"/><line class="p" x1="420.5" y1="420.36" x2="420.5" y2="392.3"/><line class="p" x1="420.5" y1="420.36" x2="448.56" y2="420.36"/><g class="s"><path class="p" d="M420.5,392.31a28.05,28.05,0,0,1,28.06,28.05"/></g><line class="p" x1="418.05" y1="420.36" x2="420.5" y2="420.36"/><line class="p" x1="420.5" y1="392.31" x2="418.05" y2="392.31"/><line class="p" x1="420.5" y1="392.31" x2="420.5" y2="390.55"/><line class="p" x1="418.05" y1="392.31" x2="418.05" y2="390.55"/><line class="p" x1="420.5" y1="422.12" x2="420.5" y2="420.36"/><line class="p" x1="418.05" y1="422.12" x2="418.05" y2="420.36"/><line class="p" x1="418.05" y1="420.36" x2="418.05" y2="413.35"/><line class="p" x1="418.05" y1="409.49" x2="418.05" y2="408.7"/><line class="p" x1="418.05" y1="404.84" x2="418.05" y2="404.06"/><line class="p" x1="418.05" y1="400.2" x2="418.05" y2="399.32"/><line class="p" x1="418.05" y1="399.32" x2="418.05" y2="392.31"/><line class="p" x1="420.5" y1="420.36" x2="421.38" y2="420.36"/><line class="p" x1="421.38" y1="420.36" x2="421.38" y2="423.87"/><line class="p" x1="421.38" y1="423.87" x2="420.5" y2="423.87"/><line class="p" x1="418.05" y1="420.36" x2="417.17" y2="420.36"/><line class="p" x1="417.17" y1="420.36" x2="417.17" y2="423.87"/><line class="p" x1="417.17" y1="423.87" x2="418.05" y2="423.87"/><line class="p" x1="421.38" y1="392.31" x2="421.38" y2="388.8"/><line class="p" x1="421.38" y1="388.8" x2="420.5" y2="388.8"/><line class="p" x1="418.05" y1="392.31" x2="417.17" y2="392.31"/><line class="p" x1="417.17" y1="392.31" x2="417.17" y2="388.8"/><line class="p" x1="417.17" y1="388.8" x2="418.05" y2="388.8"/><line class="p" x1="503.63" y1="270.95" x2="454.52" y2="270.95"/><line class="p" x1="454.52" y1="270.95" x2="454.52" y2="274.46"/><line class="p" x1="454.52" y1="274.46" x2="503.63" y2="274.46"/><line class="p" x1="503.63" y1="274.46" x2="503.63" y2="270.95"/><line class="p" x1="309.85" y1="270.95" x2="281.79" y2="270.95"/><line class="p" x1="281.79" y1="270.95" x2="281.79" y2="273.16"/><line class="p" x1="281.79" y1="273.16" x2="309.85" y2="273.16"/><line class="p" x1="309.85" y1="273.16" x2="309.85" y2="270.95"/><g class="s"><path class="p" d="M508.89,272.7a1.76,1.76,0,1,0-1.75,1.76,1.75,1.75,0,0,0,1.75-1.76"/><path class="p" d="M315.11,272.05a1.76,1.76,0,1,0-1.76,1.76,1.76,1.76,0,0,0,1.76-1.76"/></g><rect x="292.48" y="425.62" width="3.51" height="17.54"/><line class="p" x1="292.49" y1="443.16" x2="292.49" y2="425.62"/><line class="p" x1="295.99" y1="443.16" x2="295.99" y2="425.62"/><line class="p" x1="350.18" y1="255.17" x2="343.17" y2="255.17"/><line class="p" x1="339.31" y1="255.17" x2="338.52" y2="255.17"/><line class="p" x1="334.66" y1="255.17" x2="333.87" y2="255.17"/><line class="p" x1="330.01" y1="255.17" x2="325.63" y2="255.17"/><line class="p" x1="325.63" y1="255.17" x2="318.62" y2="255.17"/><line class="p" x1="451.02" y1="255.17" x2="444" y2="255.17"/><line class="p" x1="440.14" y1="255.17" x2="439.35" y2="255.17"/><line class="p" x1="435.5" y1="255.17" x2="434.71" y2="255.17"/><line class="p" x1="430.85" y1="255.17" x2="426.47" y2="255.17"/><line class="p" x1="426.47" y1="255.17" x2="419.45" y2="255.17"/><line class="p" x1="528.44" y1="202.56" x2="527.65" y2="202.56"/><line class="p" x1="523.79" y1="202.56" x2="516.78" y2="202.56"/><line class="p" x1="512.92" y1="202.56" x2="512.13" y2="202.56"/><line class="p" x1="508.27" y1="202.56" x2="507.49" y2="202.56"/><line class="p" x1="503.63" y1="202.56" x2="496.61" y2="202.56"/><line class="p" x1="492.75" y1="202.56" x2="491.97" y2="202.56"/><line class="p" x1="488.11" y1="202.56" x2="487.32" y2="202.56"/><line class="p" x1="483.46" y1="202.56" x2="476.45" y2="202.56"/><line class="p" x1="472.59" y1="202.56" x2="471.8" y2="202.56"/><line class="p" x1="467.94" y1="202.56" x2="467.15" y2="202.56"/><line class="p" x1="463.29" y1="202.56" x2="456.28" y2="202.56"/><line class="p" x1="452.42" y1="202.56" x2="451.63" y2="202.56"/><line class="p" x1="447.77" y1="202.56" x2="446.98" y2="202.56"/><line class="p" x1="443.12" y1="202.56" x2="436.11" y2="202.56"/><line class="p" x1="432.25" y1="202.56" x2="431.46" y2="202.56"/><line class="p" x1="427.61" y1="202.56" x2="426.82" y2="202.56"/><line class="p" x1="422.96" y1="202.56" x2="415.94" y2="202.56"/><line class="p" x1="412.08" y1="202.56" x2="411.3" y2="202.56"/><line class="p" x1="407.44" y1="202.56" x2="406.65" y2="202.56"/><line class="p" x1="402.79" y1="202.56" x2="395.78" y2="202.56"/><line class="p" x1="391.92" y1="202.56" x2="391.13" y2="202.56"/><line class="p" x1="387.27" y1="202.56" x2="386.48" y2="202.56"/><line class="p" x1="382.62" y1="202.56" x2="375.61" y2="202.56"/><line class="p" x1="371.75" y1="202.56" x2="370.96" y2="202.56"/><line class="p" x1="367.1" y1="202.56" x2="366.31" y2="202.56"/><line class="p" x1="362.46" y1="202.56" x2="355.44" y2="202.56"/><line class="p" x1="351.58" y1="202.56" x2="350.79" y2="202.56"/><line class="p" x1="346.94" y1="202.56" x2="346.15" y2="202.56"/><line class="p" x1="342.29" y1="202.56" x2="335.27" y2="202.56"/><line class="p" x1="331.42" y1="202.56" x2="330.63" y2="202.56"/><line class="p" x1="326.77" y1="202.56" x2="325.98" y2="202.56"/><line class="p" x1="322.12" y1="202.56" x2="315.11" y2="202.56"/><line class="p" x1="311.25" y1="202.56" x2="310.46" y2="202.56"/><line class="p" x1="306.6" y1="202.56" x2="305.81" y2="202.56"/><line class="p" x1="301.95" y1="202.56" x2="294.94" y2="202.56"/><line class="p" x1="291.08" y1="202.56" x2="290.29" y2="202.56"/><line class="p" x1="286.43" y1="202.56" x2="285.65" y2="202.56"/><line class="p" x1="281.79" y1="202.56" x2="274.77" y2="202.56"/><line class="p" x1="270.91" y1="202.56" x2="270.13" y2="202.56"/><line class="p" x1="266.27" y1="202.56" x2="265.48" y2="202.56"/><line class="p" x1="262.89" y1="202.56" x2="259.91" y2="202.56"/><rect class="l" x="314.93" y="389.68" width="1.05" height="2.46"/><line class="p" x1="314.93" y1="389.67" x2="314.93" y2="392.13"/><line class="p" x1="315.98" y1="389.67" x2="314.93" y2="389.67"/><line class="p" x1="315.98" y1="392.13" x2="315.98" y2="389.68"/><line class="p" x1="314.93" y1="392.13" x2="315.98" y2="392.13"/><rect class="l" x="295.99" y="437.9" width="58.92" height="5.26"/><line class="p" x1="354.91" y1="443.16" x2="295.99" y2="443.16"/><line class="p" x1="295.99" y1="443.16" x2="295.99" y2="437.9"/><line class="p" x1="295.99" y1="437.9" x2="354.91" y2="437.9"/><line class="p" x1="354.91" y1="437.9" x2="354.91" y2="443.16"/><rect class="l" x="334.92" y="389.68" width="1.05" height="2.46"/><line class="p" x1="334.92" y1="389.67" x2="334.92" y2="392.13"/><line class="p" x1="335.98" y1="389.67" x2="334.92" y2="389.67"/><line class="p" x1="335.98" y1="392.13" x2="335.98" y2="389.68"/><line class="p" x1="334.92" y1="392.13" x2="335.98" y2="392.13"/><polygon class="l" points="334.92 392.13 315.98 392.13 314.93 392.13 314.93 393.18 335.98 393.18 335.98 392.13 334.92 392.13"/><line class="p" x1="314.93" y1="393.18" x2="335.98" y2="393.18"/><line class="p" x1="314.93" y1="392.13" x2="314.93" y2="393.18"/><line class="p" x1="315.98" y1="392.13" x2="314.93" y2="392.13"/><line class="p" x1="334.92" y1="392.13" x2="315.98" y2="392.13"/><line class="p" x1="335.98" y1="392.13" x2="334.92" y2="392.13"/><line class="p" x1="335.98" y1="393.18" x2="335.98" y2="392.13"/><rect class="l" x="468.56" y="311.28" width="17.54" height="28.06"/><line class="p" x1="468.56" y1="339.34" x2="486.1" y2="339.34"/><line class="p" x1="468.56" y1="311.28" x2="468.56" y2="339.34"/><line class="p" x1="486.1" y1="311.28" x2="468.56" y2="311.28"/><line class="p" x1="486.1" y1="339.34" x2="486.1" y2="311.28"/><rect class="l" x="396.65" y="269.2" width="16.84" height="117.15"/><line class="p" x1="413.49" y1="386.34" x2="413.49" y2="269.2"/><line class="p" x1="396.65" y1="386.34" x2="413.49" y2="386.34"/><line class="p" x1="396.65" y1="269.2" x2="396.65" y2="386.34"/><line class="p" x1="413.49" y1="269.2" x2="396.65" y2="269.2"/><rect class="l" x="373.15" y="269.2" width="6.31" height="14.73"/><line class="p" x1="373.15" y1="269.2" x2="373.15" y2="283.93"/><line class="p" x1="379.47" y1="269.2" x2="373.15" y2="269.2"/><line class="p" x1="379.47" y1="283.93" x2="379.47" y2="269.2"/><line class="p" x1="373.15" y1="283.93" x2="379.47" y2="283.93"/><rect class="l" x="281.79" y="270.95" width="28.06" height="2.21"/><line class="p" x1="309.85" y1="273.16" x2="309.85" y2="270.95"/><line class="p" x1="281.79" y1="273.16" x2="309.85" y2="273.16"/><line class="p" x1="281.79" y1="270.95" x2="281.79" y2="273.16"/><line class="p" x1="309.85" y1="270.95" x2="281.79" y2="270.95"/><polygon class="q" points="315.11 272.05 314.59 273.29 313.35 273.81 312.11 273.29 311.6 272.05 312.11 270.81 313.35 270.3 314.59 270.81 315.11 272.05"/><g class="s"><path class="p" d="M315.11,272.05a1.76,1.76,0,1,1-3.51,0"/><path class="p" d="M311.6,272.05a1.76,1.76,0,0,1,3.51,0"/></g><polygon class="q" points="508.89 272.7 508.38 273.94 507.13 274.46 505.9 273.94 505.38 272.7 505.9 271.46 507.13 270.95 508.38 271.46 508.89 272.7"/><g class="s"><path class="p" d="M508.89,272.7a1.76,1.76,0,1,1-3.51,0"/><path class="p" d="M505.38,272.7a1.76,1.76,0,0,1,3.51,0"/></g><polygon class="q" points="508.89 272.7 508.38 273.94 507.13 274.46 505.9 273.94 505.38 272.7 505.9 271.46 507.13 270.95 508.38 271.46 508.89 272.7"/><g class="s"><path class="p" d="M508.89,272.7a1.76,1.76,0,1,1-3.51,0"/><path class="p" d="M505.38,272.7a1.76,1.76,0,0,1,3.51,0"/></g><rect class="l" x="454.52" y="270.95" width="49.1" height="3.51"/><line class="p" x1="503.63" y1="274.46" x2="503.63" y2="270.95"/><line class="p" x1="454.52" y1="274.46" x2="503.63" y2="274.46"/><line class="p" x1="454.52" y1="270.95" x2="454.52" y2="274.46"/><line class="p" x1="503.63" y1="270.95" x2="454.52" y2="270.95"/><polygon class="q" points="305.29 437.9 318.26 437.9 318.26 426.33 317.99 424.59 317.21 423.02 315.99 421.77 313.99 420.73 311.78 420.36 309.56 420.73 307.57 421.77 306.34 423.02 305.56 424.59 305.29 426.33 305.29 437.9"/><line class="p" x1="318.26" y1="437.9" x2="318.26" y2="426.33"/><line class="p" x1="318.26" y1="437.9" x2="305.29" y2="437.9"/><line class="p" x1="305.29" y1="437.9" x2="305.29" y2="426.33"/><line class="p" x1="316.16" y1="433.69" x2="316.16" y2="426.33"/><line class="p" x1="307.39" y1="433.69" x2="307.39" y2="426.33"/><line class="p" x1="307.39" y1="433.69" x2="316.16" y2="433.69"/><g class="s"><path class="p" d="M316,421.77a5.67,5.67,0,0,1,2.28,4.56"/><path class="p" d="M305.29,426.33a5.67,5.67,0,0,1,2.28-4.56"/><path class="p" d="M307.57,421.77a7,7,0,0,1,8.41,0"/><path class="p" d="M305.29,426.33a5.67,5.67,0,0,1,2.28-4.56"/><path class="p" d="M307.57,421.77a7,7,0,0,1,4.21-1.41"/><path class="p" d="M307.39,426.33a3.58,3.58,0,0,1,1.44-2.88"/><path class="p" d="M308.83,423.45a4.92,4.92,0,0,1,5.89,0"/><path class="p" d="M314.72,423.45a3.58,3.58,0,0,1,1.44,2.88"/></g><rect class="l" x="373.15" y="283.93" width="21.04" height="69.45"/><line class="p" x1="373.15" y1="353.37" x2="373.15" y2="283.93"/><line class="p" x1="373.15" y1="283.93" x2="394.2" y2="283.93"/><line class="p" x1="394.2" y1="283.93" x2="394.2" y2="353.37"/><line class="p" x1="394.2" y1="353.37" x2="373.15" y2="353.37"/><line class="p" x1="383.67" y1="349.9" x2="383.67" y2="287.4"/><line class="p" x1="377.49" y1="346.68" x2="390.1" y2="340.8"/><line class="p" x1="376.86" y1="340.06" x2="388.59" y2="337.63"/><line class="p" x1="391.26" y1="331.01" x2="378.39" y2="329.02"/><line class="p" x1="389.57" y1="320.77" x2="378.39" y2="323.48"/><line class="p" x1="390.22" y1="317.04" x2="376.44" y2="317.04"/><line class="p" x1="390.28" y1="306.48" x2="376.66" y2="308.99"/><line class="p" x1="390.05" y1="302.53" x2="377.61" y2="302.53"/><line class="p" x1="390.18" y1="292.11" x2="377.42" y2="290.11"/><line class="p" x1="389.31" y1="294.62" x2="378.53" y2="296.66"/><polygon class="q" points="493.46 304.33 492.96 304.72 492.76 305.32 492.76 343.55 492.95 344.18 493.47 344.61 492.97 344.81 492.76 345.31 492.76 346.36 493.24 348.11 494.52 349.4 496.27 349.87 521.88 349.87 522.37 349.66 522.58 349.16 522.58 276.91 522.37 276.42 521.88 276.21 493.47 276.21 493 276.37 492.73 276.77 492.76 277.26 492.76 303.22 492.82 303.95 493.46 304.33"/><polygon class="q" points="469.97 304.27 467.28 303.74 465 302.21 463.49 299.94 462.95 297.26 462.95 283.23 463.49 280.54 465 278.26 467.28 276.75 469.97 276.21 491.71 276.21 492.46 276.52 492.76 277.26 492.76 303.22 492.46 303.96 491.71 304.27 469.97 304.27"/><g class="s"><path class="p" d="M470,304.27a7,7,0,0,1-7-7"/></g><line class="p" x1="462.95" y1="297.26" x2="462.95" y2="283.23"/><g class="s"><path class="p" d="M463,283.23a7,7,0,0,1,7-7"/></g><line class="p" x1="469.97" y1="276.21" x2="491.71" y2="276.21"/><g class="s"><path class="p" d="M491.71,276.21a1.06,1.06,0,0,1,1.06,1.05"/></g><line class="p" x1="492.77" y1="277.26" x2="492.77" y2="303.22"/><g class="s"><path class="p" d="M492.77,303.22a1.06,1.06,0,0,1-1.06,1"/></g><line class="p" x1="491.71" y1="304.27" x2="469.97" y2="304.27"/><line class="p" x1="492.77" y1="345.31" x2="492.77" y2="346.36"/><line class="p" x1="496.27" y1="349.87" x2="521.88" y2="349.87"/><line class="p" x1="522.58" y1="349.16" x2="522.58" y2="345.31"/><line class="p" x1="521.88" y1="344.6" x2="493.47" y2="344.6"/><line class="p" x1="522.58" y1="345.31" x2="522.58" y2="304.27"/><line class="p" x1="522.58" y1="304.27" x2="520.12" y2="304.27"/><line class="p" x1="492.77" y1="305.32" x2="492.77" y2="343.55"/><line class="p" x1="493.82" y1="344.6" x2="511.4" y2="344.6"/><line class="p" x1="511.4" y1="304.27" x2="493.82" y2="304.27"/><line class="p" x1="520.12" y1="344.6" x2="513.5" y2="344.6"/><line class="p" x1="513.5" y1="304.27" x2="520.12" y2="304.27"/><line class="p" x1="492.77" y1="280.77" x2="492.77" y2="276.91"/><line class="p" x1="493.47" y1="276.21" x2="521.88" y2="276.21"/><line class="p" x1="522.58" y1="276.91" x2="522.58" y2="280.77"/><line class="p" x1="522.58" y1="280.77" x2="522.58" y2="304.27"/><line class="p" x1="522.58" y1="304.27" x2="520.12" y2="304.27"/><line class="p" x1="492.77" y1="303.22" x2="492.77" y2="282.52"/><line class="p" x1="511.4" y1="304.27" x2="493.82" y2="304.27"/><line class="p" x1="511.4" y1="304.27" x2="520.12" y2="304.27"/><line class="p" x1="462.95" y1="297.26" x2="462.95" y2="283.23"/><line class="p" x1="469.97" y1="276.21" x2="491.71" y2="276.21"/><line class="p" x1="492.77" y1="277.26" x2="492.77" y2="303.22"/><line class="p" x1="491.71" y1="304.27" x2="469.97" y2="304.27"/><line class="p" x1="521.17" y1="303.22" x2="521.17" y2="277.26"/><line class="p" x1="521.17" y1="305.32" x2="521.17" y2="343.55"/><g class="s"><path class="p" d="M522.58,349.16a.71.71,0,0,1-.7.71"/><path class="p" d="M521.88,344.6a.71.71,0,0,1,.7.71"/><path class="p" d="M492.77,345.31a.7.7,0,0,1,.7-.71"/><path class="p" d="M493.82,344.6a1.05,1.05,0,0,1-1.06-1.05"/><path class="p" d="M492.77,305.32a1,1,0,0,1,1.05-1.05"/><path class="p" d="M492.77,276.91a.7.7,0,0,1,.7-.7"/><path class="p" d="M521.88,276.21a.7.7,0,0,1,.7.7"/><path class="p" d="M493.82,304.27a1.05,1.05,0,0,1-1.06-1"/><path class="p" d="M491.71,276.21a1.06,1.06,0,0,1,1.06,1.05"/><path class="p" d="M492.77,303.22a1.06,1.06,0,0,1-1.06,1"/></g><line class="p" x1="521.17" y1="277.26" x2="497.28" y2="277.26"/><g class="s"><path class="p" d="M502.11,278.53A19.88,19.88,0,0,1,517.81,298a19.68,19.68,0,0,1-.72,5.29"/><path class="p" d="M516.26,343.55a120.17,120.17,0,0,1,0-38.23"/><path class="p" d="M470,304.27a7,7,0,0,1-7-7"/><path class="p" d="M463,283.23a7,7,0,0,1,7-7"/><path class="p" d="M496.27,349.87a3.51,3.51,0,0,1-3.5-3.51"/></g><polygon class="q" points="327.21 437.9 345.44 437.9 345.82 437.75 345.97 437.37 345.97 422.99 345.82 422.62 345.44 422.47 327.21 422.47 326.84 422.62 326.68 422.99 326.68 437.37 326.84 437.75 327.21 437.9"/><g class="s"><path class="p" d="M327.21,437.9a.53.53,0,0,1-.53-.53"/></g><line class="p" x1="326.68" y1="422.99" x2="326.68" y2="437.37"/><g class="s"><path class="p" d="M326.68,423a.52.52,0,0,1,.53-.52"/></g><line class="p" x1="345.44" y1="422.47" x2="327.21" y2="422.47"/><g class="s"><path class="p" d="M345.44,422.47a.52.52,0,0,1,.53.52"/></g><line class="p" x1="345.97" y1="437.37" x2="345.97" y2="422.99"/><g class="s"><path class="p" d="M346,437.37a.52.52,0,0,1-.53.53"/></g><line class="p" x1="327.21" y1="437.9" x2="345.44" y2="437.9"/><line class="p" x1="328.26" y1="434.04" x2="344.39" y2="434.04"/><line class="p" x1="344.92" y1="433.52" x2="344.92" y2="424.05"/><line class="p" x1="344.39" y1="423.52" x2="328.26" y2="423.52"/><line class="p" x1="327.73" y1="424.05" x2="327.73" y2="433.52"/><g class="s"><path class="p" d="M344.92,433.52a.52.52,0,0,1-.53.52"/><path class="p" d="M344.39,423.52a.53.53,0,0,1,.53.53"/><path class="p" d="M327.73,424.05a.53.53,0,0,1,.53-.53"/><path class="p" d="M328.26,434a.52.52,0,0,1-.53-.52"/></g><polygon class="q" points="335.45 435.8 335.59 434.32 335.7 433.99 335.94 432.14 336.07 431.89 336.33 431.79 336.59 431.89 336.72 432.14 336.95 433.99 337.06 434.32 337.2 435.8 336.95 436.42 336.33 436.67 335.71 436.42 335.45 435.8"/><line class="p" x1="335.45" y1="435.8" x2="335.59" y2="434.32"/><g class="s"><path class="p" d="M335.59,434.32a.66.66,0,0,1,.12-.33"/></g><line class="p" x1="335.71" y1="433.99" x2="335.94" y2="432.14"/><g class="s"><path class="p" d="M335.94,432.14a.39.39,0,0,1,.39-.35.4.4,0,0,1,.39.35"/></g><line class="p" x1="336.72" y1="432.14" x2="336.95" y2="433.99"/><g class="s"><path class="p" d="M337,434a.76.76,0,0,1,.11.33"/></g><line class="p" x1="337.06" y1="434.32" x2="337.2" y2="435.8"/><g class="s"><path class="p" d="M337.2,435.8a.88.88,0,0,1-1.75,0"/></g><line class="p" x1="336.8" y1="434.92" x2="336.8" y2="434.4"/><line class="p" x1="335.85" y1="434.4" x2="335.85" y2="434.92"/><line class="p" x1="335.85" y1="434.92" x2="336.8" y2="434.92"/><g class="s"><path class="p" d="M335.85,434.4a.48.48,0,1,1,.95,0"/><path class="p" d="M335.71,434a.73.73,0,0,1,.62-.34.75.75,0,0,1,.62.34"/></g><polygon class="q" points="475.05 365.59 478.98 358.79 479.45 357.03 478.98 355.27 477.7 353.98 471.64 350.46 469.89 349.99 468.14 350.45 466.86 351.74 462.93 358.54 466.55 359.02 469.93 360.43 472.83 362.67 475.05 365.59"/><polygon class="q" points="462.89 386.65 466.79 393.46 468.07 394.76 469.82 395.23 471.58 394.76 477.65 391.26 478.93 389.97 479.4 388.22 478.94 386.45 475.03 379.64 472.8 382.55 469.9 384.78 466.52 386.18 462.89 386.65"/><polygon class="q" points="450.79 365.55 442.96 365.54 441.2 366 439.92 367.29 439.45 369.04 439.44 376.08 439.91 377.83 441.19 379.12 442.94 379.59 450.76 379.61 449.37 376.21 448.9 372.58 449.38 368.94 450.79 365.55"/><polygon class="q" points="462.93 358.54 466.55 359.02 469.93 360.43 472.83 362.67 475.05 365.58 476.45 368.98 476.92 372.62 476.44 376.25 475.03 379.64 472.8 382.55 469.9 384.78 466.52 386.18 462.89 386.65 459.26 386.17 455.88 384.76 452.99 382.52 450.76 379.61 449.37 376.21 448.9 372.58 449.38 368.93 450.79 365.55 453.02 362.64 455.92 360.41 459.3 359.01 462.93 358.54"/><line class="p" x1="462.93" y1="358.54" x2="466.55" y2="359.02"/><line class="p" x1="466.55" y1="359.02" x2="469.93" y2="360.43"/><line class="p" x1="469.93" y1="360.43" x2="472.83" y2="362.67"/><line class="p" x1="472.83" y1="362.67" x2="475.05" y2="365.59"/><line class="p" x1="475.05" y1="365.59" x2="476.45" y2="368.98"/><line class="p" x1="476.45" y1="368.98" x2="476.92" y2="372.62"/><line class="p" x1="476.92" y1="372.62" x2="476.43" y2="376.25"/><line class="p" x1="476.43" y1="376.26" x2="475.03" y2="379.64"/><line class="p" x1="475.03" y1="379.64" x2="472.8" y2="382.55"/><line class="p" x1="472.8" y1="382.55" x2="469.9" y2="384.78"/><line class="p" x1="469.9" y1="384.78" x2="466.51" y2="386.18"/><line class="p" x1="466.52" y1="386.18" x2="462.89" y2="386.65"/><line class="p" x1="462.89" y1="386.65" x2="459.26" y2="386.17"/><line class="p" x1="459.26" y1="386.17" x2="455.88" y2="384.76"/><line class="p" x1="455.88" y1="384.76" x2="452.99" y2="382.52"/><line class="p" x1="452.99" y1="382.52" x2="450.76" y2="379.61"/><line class="p" x1="450.76" y1="379.61" x2="449.37" y2="376.21"/><line class="p" x1="449.37" y1="376.21" x2="448.9" y2="372.58"/><line class="p" x1="448.9" y1="372.58" x2="449.38" y2="368.94"/><line class="p" x1="449.38" y1="368.94" x2="450.79" y2="365.55"/><line class="p" x1="450.79" y1="365.55" x2="453.02" y2="362.64"/><line class="p" x1="453.02" y1="362.64" x2="455.92" y2="360.41"/><line class="p" x1="455.92" y1="360.41" x2="459.31" y2="359.01"/><line class="p" x1="459.3" y1="359.01" x2="462.93" y2="358.54"/><g class="s"><path class="p" d="M476.92,372.62h0a14,14,0,1,1-28,0"/><path class="p" d="M448.9,372.58h0a14,14,0,1,1,28,0"/></g><line class="p" x1="476.83" y1="355.5" x2="470.77" y2="351.98"/><line class="p" x1="466.86" y1="351.74" x2="462.93" y2="358.54"/><line class="p" x1="477.7" y1="353.98" x2="471.64" y2="350.46"/><line class="p" x1="475.05" y1="365.59" x2="478.98" y2="358.79"/><line class="p" x1="470.7" y1="393.24" x2="476.78" y2="389.73"/><line class="p" x1="478.94" y1="386.45" x2="475.03" y2="379.64"/><line class="p" x1="471.58" y1="394.76" x2="477.65" y2="391.26"/><line class="p" x1="462.89" y1="386.65" x2="466.79" y2="393.47"/><line class="p" x1="441.2" y1="369.05" x2="441.19" y2="376.08"/><line class="p" x1="442.94" y1="379.59" x2="450.76" y2="379.61"/><line class="p" x1="439.45" y1="369.04" x2="439.44" y2="376.08"/><line class="p" x1="450.79" y1="365.55" x2="442.96" y2="365.54"/><g class="s"><path class="p" d="M468.37,352.62a1.76,1.76,0,0,1,1.52-.88,1.65,1.65,0,0,1,.87.24"/><path class="p" d="M476.83,355.5a1.77,1.77,0,0,1,.87,1.52,1.69,1.69,0,0,1-.24.88"/><path class="p" d="M466.85,351.74a3.48,3.48,0,0,1,4.79-1.28"/><path class="p" d="M477.71,354a3.52,3.52,0,0,1,1.74,3,3.48,3.48,0,0,1-.47,1.75"/><path class="p" d="M477.42,387.33a1.81,1.81,0,0,1,.23.88,1.75,1.75,0,0,1-.87,1.52"/><path class="p" d="M470.7,393.24a1.81,1.81,0,0,1-.88.23,1.75,1.75,0,0,1-1.51-.88"/><path class="p" d="M478.94,386.46a3.58,3.58,0,0,1,.46,1.76,3.53,3.53,0,0,1-1.75,3"/><path class="p" d="M471.58,394.76a3.5,3.5,0,0,1-4.79-1.29"/><path class="p" d="M442.94,377.84h0a1.75,1.75,0,0,1-1.75-1.76"/><path class="p" d="M441.2,369.05h0a1.76,1.76,0,0,1,1.75-1.76"/><path class="p" d="M442.94,379.59a3.5,3.5,0,0,1-3.5-3.52"/><path class="p" d="M439.45,369a3.5,3.5,0,0,1,3.51-3.5"/></g><polygon class="q" points="405.98 312.41 407.38 314.14 408.13 316.31 408.13 318.64 407.38 320.81 405.98 322.54 405.98 333.47 404.03 333.47 402.08 325.47 402.08 323.14 401.02 319.42 401.02 315.52 402.08 311.81 402.08 309.48 404.03 301.48 405.98 301.48 405.98 312.41"/><line class="p" x1="405.97" y1="312.41" x2="407.38" y2="314.14"/><line class="p" x1="407.38" y1="314.14" x2="408.13" y2="316.31"/><line class="p" x1="408.13" y1="316.31" x2="408.13" y2="318.64"/><line class="p" x1="408.13" y1="318.64" x2="407.38" y2="320.81"/><line class="p" x1="407.38" y1="320.81" x2="405.97" y2="322.54"/><line class="p" x1="405.97" y1="322.54" x2="405.97" y2="333.47"/><line class="p" x1="405.97" y1="333.47" x2="404.03" y2="333.47"/><line class="p" x1="404.03" y1="333.47" x2="402.08" y2="325.47"/><line class="p" x1="402.08" y1="325.47" x2="402.08" y2="323.14"/><line class="p" x1="402.08" y1="323.14" x2="401.01" y2="319.42"/><line class="p" x1="401.02" y1="319.42" x2="401.02" y2="315.52"/><line class="p" x1="401.02" y1="315.52" x2="402.08" y2="311.81"/><line class="p" x1="402.08" y1="311.81" x2="402.08" y2="309.48"/><line class="p" x1="402.08" y1="309.48" x2="404.03" y2="301.48"/><line class="p" x1="404.03" y1="301.48" x2="405.97" y2="301.48"/><line class="p" x1="405.97" y1="301.48" x2="405.97" y2="312.41"/><line class="p" x1="405.97" y1="301.48" x2="405.97" y2="333.47"/><line class="p" x1="402.08" y1="325.47" x2="402.08" y2="309.48"/><line class="p" x1="404.03" y1="301.48" x2="405.97" y2="301.48"/><line class="p" x1="405.2" y1="331.33" x2="405.2" y2="329.2"/><line class="p" x1="405.2" y1="329.2" x2="404.71" y2="329.2"/><line class="p" x1="404.71" y1="329.2" x2="404.71" y2="331.33"/><line class="p" x1="404.71" y1="331.33" x2="405.2" y2="331.33"/><line class="p" x1="405.2" y1="328.67" x2="405.2" y2="326.54"/><line class="p" x1="405.2" y1="326.54" x2="404.71" y2="326.54"/><line class="p" x1="404.71" y1="326.54" x2="404.71" y2="328.67"/><line class="p" x1="404.71" y1="328.67" x2="405.2" y2="328.67"/><line class="p" x1="404.03" y1="301.48" x2="404.03" y2="333.47"/><line class="p" x1="404.71" y1="326" x2="405.2" y2="326"/><line class="p" x1="405.2" y1="326" x2="405.2" y2="324.94"/><line class="p" x1="405.2" y1="324.94" x2="404.71" y2="324.94"/><line class="p" x1="404.71" y1="324.94" x2="404.71" y2="326"/><g class="s"><path class="p" d="M406,312.41a6.81,6.81,0,0,1,0,10.13"/></g><polygon class="q" points="264.43 360.39 327.56 360.39 330.24 359.86 332.52 358.33 334.04 356.06 334.57 353.37 334.57 304.27 334.04 301.59 332.52 299.31 330.24 297.79 327.56 297.26 274.95 297.26 264.43 297.26 264.43 360.39"/><rect class="l" x="264.43" y="360.39" width="10.52" height="12.28"/><rect class="l" x="264.43" y="284.98" width="10.52" height="12.27"/><line class="p" x1="276.09" y1="326.84" x2="273.05" y2="326"/><line class="p" x1="276.09" y1="356.29" x2="273.05" y2="355.44"/><line class="p" x1="334.57" y1="304.27" x2="334.57" y2="353.37"/><line class="p" x1="327.56" y1="360.39" x2="264.43" y2="360.39"/><line class="p" x1="264.43" y1="360.39" x2="264.43" y2="297.26"/><line class="p" x1="264.43" y1="297.26" x2="327.56" y2="297.26"/><line class="p" x1="264.43" y1="360.39" x2="264.43" y2="372.66"/><line class="p" x1="264.43" y1="372.66" x2="274.95" y2="372.66"/><line class="p" x1="274.95" y1="372.66" x2="274.95" y2="360.39"/><line class="p" x1="274.95" y1="360.39" x2="264.43" y2="360.39"/><line class="p" x1="264.43" y1="284.98" x2="264.43" y2="297.25"/><line class="p" x1="264.43" y1="297.26" x2="274.95" y2="297.26"/><line class="p" x1="274.95" y1="297.26" x2="274.95" y2="284.98"/><line class="p" x1="274.95" y1="284.98" x2="264.43" y2="284.98"/><line class="p" x1="287.76" y1="360.39" x2="287.76" y2="297.26"/><line class="p" x1="293.02" y1="360.39" x2="293.02" y2="297.26"/><g class="s"><path class="p" d="M282.1,354.34a97,97,0,0,1-.5-9.93,98.06,98.06,0,0,1,.85-12.93"/><path class="p" d="M282.1,354.34a1.81,1.81,0,0,1,0,.4,1.88,1.88,0,0,1-1.88,1.88h-.09"/><path class="p" d="M280.17,356.62c-.28,0-.56,0-.83,0a15.33,15.33,0,0,1-3.25-.35"/><path class="p" d="M276.09,356.29c-1.76.17-3.53.25-5.3.25-.84,0-1.69,0-2.53-.06"/><path class="p" d="M268.26,356.48a.25.25,0,0,1-.12,0,.4.4,0,0,1-.4-.4s0-.05,0-.08"/><path class="p" d="M268.1,331.41q.22,4.75.23,9.53,0,7.55-.58,15.08"/><path class="p" d="M268.1,331.41a.75.75,0,0,1,0-.21,1,1,0,0,1,1-1,.81.81,0,0,1,.31,0"/><path class="p" d="M281.45,330.46a46.48,46.48,0,0,1-12.09-.18"/><path class="p" d="M281.45,330.46a.91.91,0,0,1,.23,0,.8.8,0,0,1,.8.81,1,1,0,0,1,0,.24"/><path class="p" d="M334.57,353.37a7,7,0,0,1-7,7"/><path class="p" d="M327.56,297.26a7,7,0,0,1,7,7"/><path class="p" d="M282.1,324.89a97,97,0,0,1-.5-9.93,98.06,98.06,0,0,1,.85-12.93"/><path class="p" d="M282.1,324.89a1.81,1.81,0,0,1,0,.4,1.88,1.88,0,0,1-1.88,1.88h-.09"/><path class="p" d="M280.17,327.17c-.28,0-.56,0-.83,0a15.33,15.33,0,0,1-3.25-.35"/><path class="p" d="M276.09,326.84c-1.76.17-3.53.25-5.3.25-.84,0-1.69,0-2.53-.06"/><path class="p" d="M268.26,327a.25.25,0,0,1-.12,0,.4.4,0,0,1-.4-.4s0,0,0-.08"/><path class="p" d="M268.1,302q.22,4.76.23,9.53,0,7.54-.58,15.08"/><path class="p" d="M268.1,302a.75.75,0,0,1,0-.21,1,1,0,0,1,1-1,.81.81,0,0,1,.31.05"/><path class="p" d="M281.45,301a46.48,46.48,0,0,1-12.09-.18"/><path class="p" d="M281.45,301a.91.91,0,0,1,.23,0,.8.8,0,0,1,.8.81,1,1,0,0,1,0,.24"/></g><rect class="l" x="255.87" y="289.49" width="0.14" height="63.13"/><rect class="l" x="255.87" y="277.21" width="0.14" height="12.28"/><rect class="l" x="255.87" y="352.62" width="0.14" height="12.28"/><line class="p" x1="255.87" y1="289.49" x2="256.01" y2="289.49"/><line class="p" x1="256.01" y1="289.49" x2="256.01" y2="352.62"/><line class="p" x1="256.01" y1="352.62" x2="255.87" y2="352.62"/><line class="p" x1="256.01" y1="289.49" x2="256.01" y2="277.21"/><line class="p" x1="256.01" y1="277.21" x2="255.87" y2="277.21"/><line class="p" x1="255.87" y1="289.49" x2="256.01" y2="289.49"/><line class="p" x1="256.01" y1="364.89" x2="256.01" y2="352.62"/><line class="p" x1="256.01" y1="352.62" x2="255.87" y2="352.62"/><line class="p" x1="255.87" y1="364.89" x2="256.01" y2="364.89"/><line class="p" x1="395.95" y1="443.16" x2="388.94" y2="443.16"/><line class="p" x1="385.08" y1="443.16" x2="384.29" y2="443.16"/><line class="p" x1="380.43" y1="443.16" x2="379.64" y2="443.16"/><line class="p" x1="375.78" y1="443.16" x2="368.77" y2="443.16"/><line class="p" x1="364.91" y1="443.16" x2="364.38" y2="443.16"/><line class="p" x1="364.38" y1="443.16" x2="357.37" y2="443.16"/><line class="p" x1="484.51" y1="435.51" x2="484.51" y2="429.62"/><line class="p" x1="484.51" y1="429.62" x2="482.12" y2="431.55"/><line class="p" x1="482.12" y1="431.55" x2="479.73" y2="429.62"/><line class="p" x1="479.73" y1="429.62" x2="479.73" y2="435.51"/><line class="p" x1="255.87" y1="450.84" x2="534.71" y2="450.84"/><line class="p" x1="534.71" y1="450.84" x2="534.71" y2="254.43"/><line class="p" x1="534.71" y1="254.43" x2="530.85" y2="254.43"/><line class="p" x1="530.85" y1="254.43" x2="530.85" y2="167.29"/><line class="p" x1="530.85" y1="167.29" x2="259.91" y2="167.29"/><line class="p" x1="259.91" y1="167.29" x2="259.91" y2="254.43"/><line class="p" x1="259.91" y1="254.43" x2="255.87" y2="254.43"/><line class="p" x1="255.87" y1="254.43" x2="255.87" y2="450.84"/><path class="t" d="M433.77,230.7v7h-.72v-6.36H431.4v-.64Z"/><path class="t" d="M435.45,237.2a.53.53,0,0,1,.53-.54.54.54,0,0,1,.54.54.55.55,0,0,1-.54.55A.54.54,0,0,1,435.45,237.2Z"/><path class="t" d="M437.46,234.2c0-2.23,1.17-3.56,2.79-3.56S443,232,443,234.2s-1.18,3.56-2.79,3.56S437.46,236.43,437.46,234.2Zm4.84,0c0-1.87-.83-2.9-2.05-2.9s-2.06,1-2.06,2.9.84,2.9,2.06,2.9S442.3,236.07,442.3,234.2Z"/><path class="t" d="M448.82,235.64c0,1.19-.82,2.12-2.53,2.12a3.61,3.61,0,0,1-2.51-.9l.35-.57a3,3,0,0,0,2.15.81c1.19,0,1.81-.58,1.81-1.43s-.55-1.46-2.33-1.46h-1.49l.36-3.51h3.82v.64h-3.19l-.24,2.23h.9C448,233.57,448.82,234.4,448.82,235.64Z"/><path class="t" d="M319.18,403.64v7h-.72v-6.36h-1.65v-.64Z"/><path class="t" d="M320.86,410.14a.53.53,0,0,1,.53-.54.54.54,0,0,1,.54.54.55.55,0,0,1-.54.55A.54.54,0,0,1,320.86,410.14Z"/><path class="t" d="M322.87,407.14c0-2.23,1.17-3.56,2.79-3.56s2.79,1.33,2.79,3.56-1.18,3.56-2.79,3.56S322.87,409.37,322.87,407.14Zm4.84,0c0-1.87-.83-2.9-2-2.9s-2.06,1-2.06,2.9.84,2.9,2.06,2.9S327.71,409,327.71,407.14Z"/><path class="t" d="M335.43,408.8H334v1.84h-.72V408.8h-3.94v-.52l3.71-4.64h.79l-3.57,4.52h3v-1.62H334v1.62h1.4Z"/><path class="t" d="M342.72,323.39v7H342V324h-1.65v-.64Z"/><path class="t" d="M344.4,329.89a.53.53,0,0,1,.53-.54.54.54,0,0,1,.54.54.55.55,0,0,1-.54.55A.54.54,0,0,1,344.4,329.89Z"/><path class="t" d="M346.41,326.89c0-2.23,1.17-3.56,2.79-3.56s2.79,1.33,2.79,3.56-1.18,3.56-2.79,3.56S346.41,329.12,346.41,326.89Zm4.84,0c0-1.87-.83-2.9-2.05-2.9s-2.06,1-2.06,2.9.84,2.9,2.06,2.9S351.25,328.76,351.25,326.89Z"/><path class="t" d="M357.56,328.38c0,1.17-.84,2.07-2.53,2.07a3.64,3.64,0,0,1-2.52-.9l.35-.57a3.07,3.07,0,0,0,2.17.81c1.15,0,1.79-.54,1.79-1.41s-.58-1.39-1.88-1.39h-.5v-.53l1.94-2.43H352.8v-.64h4.49v.51l-2,2.49C356.81,326.47,357.56,327.26,357.56,328.38Z"/><path class="t" d="M433.77,323.39v7h-.72V324H431.4v-.64Z"/><path class="t" d="M435.45,329.89a.53.53,0,0,1,.53-.54.54.54,0,0,1,.54.54.55.55,0,0,1-.54.55A.54.54,0,0,1,435.45,329.89Z"/><path class="t" d="M437.46,326.89c0-2.23,1.17-3.56,2.79-3.56s2.79,1.33,2.79,3.56-1.18,3.56-2.79,3.56S437.46,329.12,437.46,326.89Zm4.84,0c0-1.87-.83-2.9-2.05-2.9s-2.06,1-2.06,2.9.84,2.9,2.06,2.9S442.3,328.76,442.3,326.89Z"/><path class="t" d="M448.84,329.75v.64h-4.9v-.51l2.91-2.85c.78-.78.94-1.25.94-1.73,0-.81-.57-1.31-1.64-1.31a2.38,2.38,0,0,0-1.91.78l-.51-.44a3.15,3.15,0,0,1,2.48-1c1.42,0,2.31.72,2.31,1.89a2.9,2.9,0,0,1-1.14,2.19L445,329.75Z"/><path class="t" d="M391.23,403.64v7h-.72v-6.36h-1.65v-.64Z"/><path class="t" d="M392.91,410.14a.53.53,0,0,1,.53-.54.54.54,0,0,1,.54.54.55.55,0,0,1-.54.55A.54.54,0,0,1,392.91,410.14Z"/><path class="t" d="M394.92,407.14c0-2.23,1.17-3.56,2.79-3.56s2.79,1.33,2.79,3.56-1.18,3.56-2.79,3.56S394.92,409.37,394.92,407.14Zm4.84,0c0-1.87-.83-2.9-2.05-2.9s-2.06,1-2.06,2.9.84,2.9,2.06,2.9S399.76,409,399.76,407.14Z"/><path class="t" d="M403.47,403.64v7h-.72v-6.36H401.1v-.64Z"/></svg>