<svg xmlns="http://www.w3.org/2000/svg" xmlns:xlink="http://www.w3.org/1999/xlink" viewBox="0 0 790.58 618.13"><defs><style>.a,.k{fill:none;}.b{clip-path:url(#a);}.c{clip-path:url(#d);}.d{clip-path:url(#g);}.e{clip-path:url(#j);}.f{fill:#595a5c;}.g{fill:#b6906c;}.h,.n{fill:#fff;}.i{fill:#231f20;}.j{fill:url(#m);}.k{stroke:#000;stroke-linecap:round;stroke-linejoin:round;stroke-width:0.35px;}.l,.n{fill-rule:evenodd;}.m{clip-path:url(#n);}.o{fill:#58595b;}</style><clipPath id="a"><rect class="a" y="59.93" width="90" height="59.93"/></clipPath><clipPath id="d"><rect class="a" x="90" y="59.93" width="90" height="59.93"/></clipPath><clipPath id="g"><rect class="a" width="90" height="59.93"/></clipPath><clipPath id="j"><rect class="a" x="90" width="90" height="59.93"/></clipPath><pattern id="m" width="180" height="119.85" patternTransform="matrix(0, -3.48, -3.48, 0, 34203.68, 14756.37)" patternUnits="userSpaceOnUse" viewBox="0 0 180 119.85"><rect class="a" width="180" height="119.85"/><g class="b"><g class="b"><g class="b"><image width="376" height="251" transform="matrix(0.24, 0, 0, -0.24, -0.2, 120.05)" xlink:href="B106_pudorys1.png"/></g></g></g><g class="c"><g class="c"><g class="c"><image width="376" height="251" transform="matrix(0.24, 0, 0, -0.24, 89.8, 120.05)" xlink:href="B106_pudorys2.png"/></g></g></g><g class="d"><g class="d"><g class="d"><image width="376" height="251" transform="matrix(0.24, 0, 0, -0.24, -0.2, 60.05)" xlink:href="B106_pudorys3.png"/></g></g></g><g class="e"><g class="e"><g class="e"><image width="376" height="251" transform="matrix(0.24, 0, 0, -0.24, 89.8, 60.05)" xlink:href="B106_pudorys4.png"/></g></g></g></pattern><clipPath id="n"><polygon class="a" points="242.47 168.19 242.47 254.99 238.11 254.99 238.11 449.94 552.47 449.94 552.47 254.99 548.12 254.99 548.12 168.19 242.47 168.19"/></clipPath></defs><path class="f" d="M55.31,597.13H57.1V609.9H55.31Zm.92,6.11h4.09a1.89,1.89,0,0,0,1-.27,1.82,1.82,0,0,0,.68-.77,2.67,2.67,0,0,0,.24-1.16,2.7,2.7,0,0,0-.24-1.16,1.82,1.82,0,0,0-1.7-1H56.23v-1.7h4a4.09,4.09,0,0,1,2,.48A3.45,3.45,0,0,1,63.62,599a4.64,4.64,0,0,1,0,4.11,3.34,3.34,0,0,1-1.35,1.36,4,4,0,0,1-2,.49h-4Z"/><path class="f" d="M67.7,606.33a2.07,2.07,0,0,0,.49,1.48,1.76,1.76,0,0,0,1.37.52,1.89,1.89,0,0,0,1.37-.46,1.79,1.79,0,0,0,.48-1.33l.12,1.91A2.58,2.58,0,0,1,69.06,610a2.89,2.89,0,0,1-2.33-1,4.08,4.08,0,0,1-.82-2.73v-5.55H67.7Zm.22-7.86a1.93,1.93,0,0,1-.56-1.5,2.07,2.07,0,0,1,.56-1.57,2.56,2.56,0,0,1,3.18,0,2.08,2.08,0,0,1,.57,1.56,1.94,1.94,0,0,1-.57,1.5,2.65,2.65,0,0,1-3.18,0Zm2.26-.86a.94.94,0,0,0,.24-.68,1,1,0,0,0-.24-.7.91.91,0,0,0-.67-.25.92.92,0,0,0-.67.25,1,1,0,0,0-.23.7,1,1,0,0,0,.23.68.92.92,0,0,0,.67.24A.9.9,0,0,0,70.18,597.61Zm1.23,3.17h1.78v9.12H71.41Z"/><path class="f" d="M77.1,609.63A2.82,2.82,0,0,1,76,608.36a5.08,5.08,0,0,1-.36-2v-2a5.05,5.05,0,0,1,.36-2,2.71,2.71,0,0,1,1-1.27,3,3,0,0,1,1.65-.44,2.71,2.71,0,0,1,1.48.42,3.22,3.22,0,0,1,1.09,1.19l-.18,1.86a2.19,2.19,0,0,0-.22-1,1.48,1.48,0,0,0-.61-.63,2,2,0,0,0-1-.21,1.71,1.71,0,0,0-1.37.55,2.26,2.26,0,0,0-.49,1.56v2a2.19,2.19,0,0,0,.49,1.54,1.74,1.74,0,0,0,1.37.54,1.93,1.93,0,0,0,1-.23,1.45,1.45,0,0,0,.61-.64,2.25,2.25,0,0,0,.22-1l.12,1.92a2.66,2.66,0,0,1-.89,1.14,2.56,2.56,0,0,1-1.53.45A3.19,3.19,0,0,1,77.1,609.63Zm4-12.5H82.9V609.9H81.11Z"/><path class="f" d="M87.09,609.57a3.09,3.09,0,0,1-1.29-1.36,4.85,4.85,0,0,1-.44-2.15v-1.48a4.71,4.71,0,0,1,.44-2.12,3.12,3.12,0,0,1,1.29-1.35,4.71,4.71,0,0,1,4.06,0,3.12,3.12,0,0,1,1.29,1.35,4.71,4.71,0,0,1,.44,2.12v1.51a4.79,4.79,0,0,1-.44,2.13,3.12,3.12,0,0,1-1.29,1.35,4.62,4.62,0,0,1-4.06,0Zm3.49-1.83a2.43,2.43,0,0,0,.51-1.65v-1.51a2.43,2.43,0,0,0-.51-1.65,1.88,1.88,0,0,0-1.46-.58,1.85,1.85,0,0,0-1.45.58,2.38,2.38,0,0,0-.52,1.65v1.51a2.38,2.38,0,0,0,.52,1.65,1.82,1.82,0,0,0,1.45.59A1.85,1.85,0,0,0,90.58,607.74Z"/><path class="f" d="M95.43,600.78h1.79v9.12H95.43Zm4.42,1.72a2.16,2.16,0,0,0-.83-.15,1.83,1.83,0,0,0-1.33.47,1.79,1.79,0,0,0-.47,1.31L97,602.37a3.32,3.32,0,0,1,1.09-1.27,2.58,2.58,0,0,1,1.48-.45,3.39,3.39,0,0,1,1.13.18,2.62,2.62,0,0,1,.88.53l-1.17,1.58A1.56,1.56,0,0,0,99.85,602.5Z"/><path class="f" d="M102.15,600.78H104l2.81,7.93-1,1.94Zm8.07,0L106.34,612a2.6,2.6,0,0,1-.56,1,1.87,1.87,0,0,1-.84.52,4,4,0,0,1-1.23.16h-.36V612h.36a1.46,1.46,0,0,0,.8-.2,1.74,1.74,0,0,0,.51-.7l3.38-10.31Z"/><path class="f" d="M113.51,609.88a5.76,5.76,0,0,1-1.32-.48,4.89,4.89,0,0,1-1.13-.79l1.06-1.31a5.86,5.86,0,0,0,1.47.85,4.18,4.18,0,0,0,1.44.28,3.11,3.11,0,0,0,1.6-.33,1.1,1.1,0,0,0,.53-1,.79.79,0,0,0-.29-.66,1.66,1.66,0,0,0-.72-.29c-.29,0-.69-.1-1.22-.14h-.15l-.14,0h-.15a6.45,6.45,0,0,1-1.5-.26,2,2,0,0,1-1-.7,2.38,2.38,0,0,1-.41-1.49,3.07,3.07,0,0,1,.39-1.61,2.41,2.41,0,0,1,1.18-1,5.29,5.29,0,0,1,2-.32,6.38,6.38,0,0,1,2.6.52,6.16,6.16,0,0,1,1.13.66l-1.08,1.31a5.59,5.59,0,0,0-1.35-.66,4,4,0,0,0-1.3-.22,2.44,2.44,0,0,0-1.37.31,1.08,1.08,0,0,0-.46.94.64.64,0,0,0,.26.55,1.72,1.72,0,0,0,.66.25c.26,0,.64.07,1.12.1h.34a7.67,7.67,0,0,1,1.63.25,2.24,2.24,0,0,1,1.13.77,2.62,2.62,0,0,1,.45,1.65,2.92,2.92,0,0,1-.42,1.63,2.54,2.54,0,0,1-1.27,1A5.88,5.88,0,0,1,115,610,7.38,7.38,0,0,1,113.51,609.88Z"/><path class="f" d="M126,597.13h1.8V609.9H126Zm2.6,12.5a2.39,2.39,0,0,1-.93-1.16l.13-1.91a2.22,2.22,0,0,0,.21,1,1.48,1.48,0,0,0,.61.63,1.93,1.93,0,0,0,1,.22,1.74,1.74,0,0,0,1.37-.54,2.18,2.18,0,0,0,.49-1.53v-2a2.26,2.26,0,0,0-.49-1.56,1.71,1.71,0,0,0-1.37-.55,2,2,0,0,0-1,.21,1.36,1.36,0,0,0-.61.62,2.12,2.12,0,0,0-.21,1l-.19-1.76a3.37,3.37,0,0,1,1.08-1.24,2.67,2.67,0,0,1,1.49-.43,3,3,0,0,1,1.65.43,2.9,2.9,0,0,1,1.06,1.27,5.1,5.1,0,0,1,.36,2v2a4.94,4.94,0,0,1-.37,2,2.79,2.79,0,0,1-1.08,1.26,3.25,3.25,0,0,1-1.71.44A2.73,2.73,0,0,1,128.57,609.63Z"/><path class="f" d="M134.46,600.78h1.82l2.81,7.93-1,1.94Zm8.07,0L138.65,612a2.6,2.6,0,0,1-.56,1,1.87,1.87,0,0,1-.84.52,4,4,0,0,1-1.23.16h-.36V612H136a1.46,1.46,0,0,0,.8-.2,1.74,1.74,0,0,0,.51-.7l3.37-10.31Z"/><path class="f" d="M143.57,600.78h4.12v1.62h-4.12Zm1.46,8.56a2.77,2.77,0,0,1-.52-1.81v-9.4h1.8v9.42a.84.84,0,0,0,.13.51.46.46,0,0,0,.39.18h.86V610h-1A2,2,0,0,1,145,609.34Z"/><path class="f" d="M151.94,606.33a2.07,2.07,0,0,0,.49,1.48,1.76,1.76,0,0,0,1.37.52,1.91,1.91,0,0,0,1.37-.46,1.79,1.79,0,0,0,.48-1.33l.12,1.91A2.58,2.58,0,0,1,153.3,610a2.89,2.89,0,0,1-2.33-1,4.08,4.08,0,0,1-.82-2.73v-5.55h1.79Zm3.71-5.55h1.78v9.12h-1.78Z"/><rect class="g" x="612.92" y="591.68" width="35.43" height="2.83"/><path class="h" d="M648.48,594.64H612.79v-3.08h35.69ZM613,594.39h35.19v-2.58H613Z"/><rect class="g" x="612.92" y="601.6" width="70.74" height="2.83"/><path class="h" d="M683.78,604.56h-71v-3.08h71ZM613,604.31h70.49v-2.58H613Z"/><rect class="g" x="612.92" y="612.72" width="177.16" height="2.84"/><path class="h" d="M790.21,615.68H612.79V612.6H790.21ZM613,615.43H790v-2.58H613Z"/><path class="i" d="M587.26,596.28h-.8v-4.82l-.81.5v-.83l.81-.53h.8Z"/><path class="i" d="M589,595.91a1.67,1.67,0,0,1-.41-1.19v-2.58A1.65,1.65,0,0,1,589,591a2,2,0,0,1,2.42,0,1.65,1.65,0,0,1,.41,1.19v2.58a1.65,1.65,0,0,1-.41,1.19,2,2,0,0,1-2.42,0Zm1.83-.55a.89.89,0,0,0,.2-.64v-2.58a.89.89,0,0,0-.2-.64.82.82,0,0,0-.62-.22.86.86,0,0,0-.63.22.94.94,0,0,0-.2.64v2.58a.9.9,0,0,0,.21.64,1,1,0,0,0,1.24,0Z"/><path class="i" d="M593.22,595.91a1.67,1.67,0,0,1-.41-1.19v-2.58a1.65,1.65,0,0,1,.41-1.19,2,2,0,0,1,2.42,0,1.61,1.61,0,0,1,.41,1.19v2.58a1.65,1.65,0,0,1-.41,1.19,2,2,0,0,1-2.42,0Zm1.83-.55a.9.9,0,0,0,.21-.64v-2.58a.94.94,0,0,0-.2-.64.86.86,0,0,0-.63-.22.82.82,0,0,0-.62.22.89.89,0,0,0-.2.64v2.58a.89.89,0,0,0,.2.64,1,1,0,0,0,1.24,0Z"/><path class="i" d="M600.1,596.13a1.45,1.45,0,0,1-.6-.6,2.06,2.06,0,0,1-.21-1v-.67a2,2,0,0,1,.21-.94,1.37,1.37,0,0,1,.6-.59,2,2,0,0,1,.95-.21,2.21,2.21,0,0,1,.59.08,1.68,1.68,0,0,1,.51.22,1.54,1.54,0,0,1,.37.35l-.58.52a1.17,1.17,0,0,0-.4-.3,1.13,1.13,0,0,0-.48-.11.94.94,0,0,0-.71.26,1,1,0,0,0-.26.72v.67a1,1,0,0,0,.25.74.94.94,0,0,0,.72.27,1,1,0,0,0,.48-.12,1,1,0,0,0,.4-.32l.58.56a1.38,1.38,0,0,1-.38.34,1.62,1.62,0,0,1-.5.22,2.27,2.27,0,0,1-.59.07A2.12,2.12,0,0,1,600.1,596.13Z"/><path class="i" d="M603.4,592.22h.79v4.06h-.79Zm2.42,1.6a1,1,0,0,0-.21-.67.78.78,0,0,0-.6-.23.81.81,0,0,0-.6.21.73.73,0,0,0-.22.58l-.08-.78a1.46,1.46,0,0,1,.49-.57,1.22,1.22,0,0,1,.67-.2,1.33,1.33,0,0,1,.73.2,1.18,1.18,0,0,1,.46.56,2.4,2.4,0,0,1,.15.89v2.47h-.79Zm2.42,0a.93.93,0,0,0-.22-.67.85.85,0,0,0-.63-.23.72.72,0,0,0-.57.23.9.9,0,0,0-.21.64l-.16-.78a1.61,1.61,0,0,1,.51-.63,1.23,1.23,0,0,1,.69-.22,1.37,1.37,0,0,1,.75.2,1.09,1.09,0,0,1,.47.56,2.21,2.21,0,0,1,.17.89v2.47h-.8Z"/><path class="i" d="M584.33,605.5l2-2.64a1.85,1.85,0,0,0,.27-.47,1.29,1.29,0,0,0,.09-.45h0a.67.67,0,0,0-.2-.53.81.81,0,0,0-.56-.19.76.76,0,0,0-.56.21,1,1,0,0,0-.27.58h-.82a2,2,0,0,1,.29-.83,1.42,1.42,0,0,1,.56-.53,1.67,1.67,0,0,1,.79-.18,1.93,1.93,0,0,1,.87.17,1.21,1.21,0,0,1,.54.51,1.55,1.55,0,0,1,.19.8h0a1.84,1.84,0,0,1-.12.63,2.8,2.8,0,0,1-.35.63l-1.65,2.24h2.15v.76h-3.2Z"/><path class="i" d="M589,605.83a1.67,1.67,0,0,1-.41-1.19v-2.58a1.65,1.65,0,0,1,.41-1.19,2,2,0,0,1,2.42,0,1.65,1.65,0,0,1,.41,1.19v2.58a1.65,1.65,0,0,1-.41,1.19,2,2,0,0,1-2.42,0Zm1.83-.55a.89.89,0,0,0,.2-.64v-2.58a.89.89,0,0,0-.2-.64.82.82,0,0,0-.62-.22.86.86,0,0,0-.63.22.94.94,0,0,0-.19.64v2.58a.89.89,0,0,0,.2.64,1,1,0,0,0,1.24,0Z"/><path class="i" d="M593.22,605.83a1.67,1.67,0,0,1-.41-1.19v-2.58a1.61,1.61,0,0,1,.42-1.19,1.59,1.59,0,0,1,1.2-.42,1.45,1.45,0,0,1,1.62,1.61v2.58a1.61,1.61,0,0,1-.41,1.19,2,2,0,0,1-2.42,0Zm1.84-.55a.94.94,0,0,0,.2-.64v-2.58a.94.94,0,0,0-.2-.64.84.84,0,0,0-.63-.22.82.82,0,0,0-.62.22.89.89,0,0,0-.2.64v2.58a.89.89,0,0,0,.2.64.82.82,0,0,0,.62.22A.86.86,0,0,0,595.06,605.28Z"/><path class="i" d="M600.1,606.05a1.45,1.45,0,0,1-.6-.6,2.06,2.06,0,0,1-.2-1v-.67a2,2,0,0,1,.2-.94,1.37,1.37,0,0,1,.6-.59,2,2,0,0,1,.95-.21,2.35,2.35,0,0,1,.6.08,1.73,1.73,0,0,1,.5.22,1.38,1.38,0,0,1,.37.35l-.58.52a1.08,1.08,0,0,0-.4-.3,1.13,1.13,0,0,0-.48-.11,1,1,0,0,0-.71.26,1,1,0,0,0-.26.72v.67a1,1,0,0,0,.25.74.94.94,0,0,0,.72.27,1.14,1.14,0,0,0,.88-.44l.58.56a1.38,1.38,0,0,1-.38.34,1.62,1.62,0,0,1-.5.22,2.22,2.22,0,0,1-.59.07A2.12,2.12,0,0,1,600.1,606.05Z"/><path class="i" d="M603.4,602.14h.79v4.06h-.79Zm2.42,1.6a1,1,0,0,0-.21-.67.78.78,0,0,0-.6-.23.81.81,0,0,0-.6.21.73.73,0,0,0-.22.58l-.08-.78a1.46,1.46,0,0,1,.49-.57,1.22,1.22,0,0,1,.67-.2,1.3,1.3,0,0,1,.73.2,1.18,1.18,0,0,1,.46.56,2.4,2.4,0,0,1,.16.89v2.47h-.8Zm2.42,0a.93.93,0,0,0-.22-.67.85.85,0,0,0-.63-.23.73.73,0,0,0-.57.23.89.89,0,0,0-.2.64l-.16-.78a1.51,1.51,0,0,1,.5-.63,1.23,1.23,0,0,1,.69-.22,1.35,1.35,0,0,1,.75.2,1.16,1.16,0,0,1,.48.56,2.4,2.4,0,0,1,.16.89v2.47h-.8Z"/><path class="i" d="M585,615.58a1.34,1.34,0,0,1-.54-.49,2,2,0,0,1-.28-.77h.8a.75.75,0,0,0,.25.49.85.85,0,0,0,.54.17.72.72,0,0,0,.59-.25,1.1,1.1,0,0,0,.21-.72v-.48a1.1,1.1,0,0,0-.21-.72.72.72,0,0,0-.59-.25.83.83,0,0,0-.4.11,1.18,1.18,0,0,0-.34.33h-.72v-3h2.89v.76h-2.1V612a1,1,0,0,1,.34-.18.94.94,0,0,1,.37-.07,1.68,1.68,0,0,1,.84.2,1.29,1.29,0,0,1,.53.6,2.07,2.07,0,0,1,.19.94V614a2.25,2.25,0,0,1-.19.94,1.31,1.31,0,0,1-.55.59,1.69,1.69,0,0,1-.86.21A1.74,1.74,0,0,1,585,615.58Z"/><path class="i" d="M589,615.32a1.65,1.65,0,0,1-.41-1.19v-2.58a1.67,1.67,0,0,1,.41-1.19,2,2,0,0,1,2.42,0,1.65,1.65,0,0,1,.41,1.19v2.58a1.64,1.64,0,0,1-.41,1.19,1.92,1.92,0,0,1-2.42,0Zm1.83-.55a.89.89,0,0,0,.2-.64v-2.58a.88.88,0,0,0-.2-.63.78.78,0,0,0-.62-.22.82.82,0,0,0-.63.22.93.93,0,0,0-.2.63v2.58a.9.9,0,0,0,.21.64,1,1,0,0,0,1.24,0Z"/><path class="i" d="M593.22,615.32a1.65,1.65,0,0,1-.41-1.19v-2.58a1.67,1.67,0,0,1,.41-1.19,2,2,0,0,1,2.42,0,1.61,1.61,0,0,1,.41,1.19v2.58a1.64,1.64,0,0,1-.41,1.19,1.92,1.92,0,0,1-2.42,0Zm1.83-.55a.9.9,0,0,0,.21-.64v-2.58a.93.93,0,0,0-.2-.63.82.82,0,0,0-.63-.22.78.78,0,0,0-.62.22.88.88,0,0,0-.2.63v2.58a.89.89,0,0,0,.2.64,1,1,0,0,0,1.24,0Z"/><path class="i" d="M600.1,615.54a1.45,1.45,0,0,1-.6-.6,2,2,0,0,1-.21-1v-.67a2,2,0,0,1,.21-.94,1.45,1.45,0,0,1,.6-.6,2,2,0,0,1,.95-.2,2.22,2.22,0,0,1,.59.07,2,2,0,0,1,.51.22,1.76,1.76,0,0,1,.37.35l-.58.52a1.17,1.17,0,0,0-.4-.3,1.13,1.13,0,0,0-.48-.11.94.94,0,0,0-.71.26,1,1,0,0,0-.26.73V614a1.07,1.07,0,0,0,.25.74,1,1,0,0,0,.72.26,1.13,1.13,0,0,0,.48-.11,1.26,1.26,0,0,0,.4-.32l.58.55a1.42,1.42,0,0,1-.38.35,1.88,1.88,0,0,1-.5.21,2.27,2.27,0,0,1-.59.08A2,2,0,0,1,600.1,615.54Z"/><path class="i" d="M603.4,611.63h.79v4.06h-.79Zm2.42,1.6a1,1,0,0,0-.21-.66.75.75,0,0,0-.6-.24.81.81,0,0,0-.6.21.75.75,0,0,0-.22.58l-.08-.78a1.5,1.5,0,0,1,.49-.56,1.15,1.15,0,0,1,.67-.2,1.32,1.32,0,0,1,.73.19,1.28,1.28,0,0,1,.46.56,2.42,2.42,0,0,1,.15.9v2.46h-.79Zm2.42,0a.91.91,0,0,0-.22-.66.82.82,0,0,0-.63-.24.72.72,0,0,0-.57.23.9.9,0,0,0-.21.64l-.16-.78a1.51,1.51,0,0,1,.51-.62,1.16,1.16,0,0,1,.69-.22,1.37,1.37,0,0,1,.75.19,1.18,1.18,0,0,1,.47.56,2.22,2.22,0,0,1,.17.9v2.46h-.8Z"/><path class="g" d="M23.49,613.89A12.92,12.92,0,1,1,36.4,601,12.93,12.93,0,0,1,23.49,613.89Zm0-24.83A11.92,11.92,0,1,0,35.4,601,11.93,11.93,0,0,0,23.49,589.06Z"/><polygon class="h" points="35.77 588.74 9.42 600.98 35.77 613.21 32.02 600.98 35.77 588.74"/><path class="g" d="M36.58,614.14,8.23,601l28.35-13.17-4,13.17ZM10.61,601,35,612.29,31.5,601,35,589.66Z"/><path class="g" d="M2.52,605.19a5,5,0,0,1-1.11-.38,4.4,4.4,0,0,1-1-.64l.81-1a3.72,3.72,0,0,0,1.16.69,4.08,4.08,0,0,0,1.38.23,2.73,2.73,0,0,0,1.55-.38,1.17,1.17,0,0,0,.55-1.05h0a1.12,1.12,0,0,0-.25-.77,1.44,1.44,0,0,0-.64-.42,8.23,8.23,0,0,0-1-.25H3.89l-.1,0a9.48,9.48,0,0,1-1.5-.36,2.08,2.08,0,0,1-1-.73,2.42,2.42,0,0,1-.41-1.51h0a2.77,2.77,0,0,1,.38-1.47,2.44,2.44,0,0,1,1.12-.92,4.48,4.48,0,0,1,1.77-.32,4.6,4.6,0,0,1,1,.11,4.9,4.9,0,0,1,1.86.86l-.73,1a4.61,4.61,0,0,0-1-.58,3,3,0,0,0-1.06-.2,2.44,2.44,0,0,0-1.46.38,1.24,1.24,0,0,0-.53,1.07h0a1,1,0,0,0,.27.75,1.74,1.74,0,0,0,.67.4,9.3,9.3,0,0,0,1.12.27h.24a7.93,7.93,0,0,1,1.4.41,2.22,2.22,0,0,1,.94.76,2.4,2.4,0,0,1,.38,1.43h0a2.62,2.62,0,0,1-.4,1.45,2.54,2.54,0,0,1-1.16.91,4.8,4.8,0,0,1-1.83.31A6.44,6.44,0,0,1,2.52,605.19Z"/><rect class="g" x="612.5" y="600.68" width="1" height="4.68"/><rect class="g" x="612.5" y="590.76" width="1" height="4.68"/><rect class="g" x="612.5" y="611.45" width="1" height="5.24"/><rect class="g" x="789.58" y="611.45" width="1" height="5.24"/><rect class="g" x="682.59" y="600.68" width="1" height="4.68"/><rect class="g" x="647.3" y="590.76" width="1" height="4.68"/><rect class="a" width="790.34" height="618.13"/><rect class="j" x="238.11" y="268.91" width="0.13" height="172.67"/><rect class="h" x="246.6" y="420.34" width="99.21" height="21.23"/><line class="k" x1="345.82" y1="441.58" x2="246.6" y2="441.58"/><line class="k" x1="246.6" y1="441.58" x2="246.6" y2="420.34"/><line class="k" x1="246.6" y1="420.34" x2="345.82" y2="420.34"/><line class="k" x1="345.82" y1="420.34" x2="345.82" y2="441.58"/><rect class="h" x="246.6" y="368.13" width="21.24" height="52.22"/><line class="k" x1="246.6" y1="368.13" x2="246.6" y2="420.35"/><line class="k" x1="267.84" y1="368.13" x2="246.6" y2="368.13"/><line class="k" x1="267.84" y1="420.34" x2="267.84" y2="368.13"/><line class="k" x1="246.6" y1="420.34" x2="267.84" y2="420.34"/><rect class="h" x="425.88" y="420.69" width="27.85" height="20.89"/><line class="k" x1="453.73" y1="441.58" x2="425.88" y2="441.58"/><line class="k" x1="425.88" y1="441.58" x2="425.88" y2="420.69"/><line class="k" x1="425.88" y1="420.69" x2="453.73" y2="420.69"/><line class="k" x1="453.73" y1="420.69" x2="453.73" y2="441.58"/><rect class="h" x="515.53" y="376.31" width="27.85" height="41.78"/><line class="k" x1="543.38" y1="418.08" x2="515.53" y2="418.08"/><line class="k" x1="515.53" y1="418.08" x2="515.53" y2="376.31"/><line class="k" x1="515.53" y1="376.31" x2="543.38" y2="376.31"/><line class="k" x1="543.38" y1="376.31" x2="543.38" y2="418.08"/><polygon class="h" points="238.11 357.68 238.11 441.58 238.25 441.58 238.25 420.69 238.25 357.68 238.11 357.68"/><line class="k" x1="238.25" y1="441.58" x2="238.11" y2="441.58"/><line class="k" x1="238.11" y1="357.68" x2="238.25" y2="357.68"/><line class="k" x1="238.25" y1="357.68" x2="238.25" y2="420.69"/><line class="k" x1="238.25" y1="420.69" x2="238.25" y2="441.58"/><line class="k" x1="548.25" y1="449.94" x2="548.25" y2="449.94"/><line class="k" x1="552.47" y1="449.94" x2="548.25" y2="449.94"/><line class="k" x1="519.88" y1="441.58" x2="540.45" y2="438.09"/><line class="k" x1="540.45" y1="438.09" x2="544.25" y2="422.43"/><line class="k" x1="544.25" y1="422.43" x2="544.25" y2="441.58"/><line class="k" x1="544.25" y1="441.58" x2="519.88" y2="441.58"/><line class="k" x1="349.3" y1="441.58" x2="366.38" y2="438.09"/><line class="k" x1="366.38" y1="438.09" x2="370.18" y2="424.17"/><line class="k" x1="370.18" y1="424.17" x2="370.18" y2="441.58"/><line class="k" x1="370.18" y1="441.58" x2="349.3" y2="441.58"/><polygon class="l" points="502.82 254.99 548.12 254.99 552.47 254.99 552.47 261.95 502.82 261.95 502.82 254.99"/><polygon class="l" points="238.11 254.99 242.46 254.99 276.54 254.99 276.54 261.95 238.11 261.95 238.11 254.99"/><rect x="363.57" y="254.99" width="52.22" height="6.96"/><rect x="238.11" y="261.95" width="36.69" height="6.96"/><rect x="504.56" y="261.95" width="47.91" height="6.96"/><rect x="365.31" y="261.95" width="48.74" height="6.96"/><polygon class="l" points="238.11 449.94 238.11 441.58 238.25 441.58 238.25 268.91 246.6 268.91 246.6 441.58 378.89 441.58 378.89 449.94 238.11 449.94"/><polygon class="l" points="544.25 449.94 417.18 449.94 417.18 441.58 544.25 441.58 544.25 268.91 552.47 268.91 552.47 449.94 544.25 449.94"/><rect x="378.89" y="445.93" width="1.74" height="4.01"/><rect x="415.44" y="445.93" width="1.74" height="4.01"/><rect x="448.86" y="261.95" width="20.89" height="6.96"/><rect x="447.12" y="254.99" width="24.37" height="6.96"/><rect x="547.03" y="183.62" width="1.09" height="71.37"/><rect x="242.46" y="183.62" width="1.53" height="71.36"/><rect x="453.73" y="375.44" width="2.44" height="8.7"/><polygon class="l" points="385.85 268.91 392.81 268.91 392.81 368.48 417.18 368.48 417.18 375.44 384.11 375.44 385.85 371.95 385.85 268.91"/><rect x="448.51" y="368.47" width="95.73" height="6.96"/><polygon class="l" points="370.18 373 385.85 373 385.85 375.44 372.62 375.44 372.62 384.14 370.18 384.14 370.18 373"/><polygon class="l" points="370.18 441.58 370.18 420.69 370.18 415.47 372.62 415.47 372.62 441.58 370.18 441.58"/><rect x="453.73" y="411.99" width="2.44" height="29.59"/><polygon class="l" points="516.4 418.95 544.25 418.95 544.25 422.43 519.88 422.43 519.9 422.43 519.88 422.43 516.4 422.43 516.4 418.95"/><polygon class="l" points="370.18 424.17 349.3 424.17 349.32 441.58 345.82 441.58 345.82 420.69 370.18 420.69 370.18 424.17"/><polygon class="l" points="516.4 422.43 519.88 422.43 519.88 439.84 519.88 439.84 519.9 439.84 519.88 441.58 516.4 441.58 516.4 422.43"/><line class="k" x1="544.25" y1="418.95" x2="544.25" y2="375.44"/><line class="k" x1="504.56" y1="268.91" x2="504.56" y2="261.95"/><line class="k" x1="414.05" y1="268.91" x2="414.05" y2="261.95"/><line class="k" x1="365.31" y1="268.91" x2="365.31" y2="261.95"/><line class="k" x1="548.12" y1="254.99" x2="502.82" y2="254.99"/><line class="k" x1="552.47" y1="254.99" x2="548.12" y2="254.99"/><line class="k" x1="415.79" y1="254.99" x2="363.57" y2="254.99"/><line class="k" x1="242.46" y1="254.99" x2="238.11" y2="254.99"/><line class="k" x1="276.54" y1="254.99" x2="242.46" y2="254.99"/><line class="k" x1="544.25" y1="268.91" x2="504.56" y2="268.91"/><line class="k" x1="414.05" y1="268.91" x2="392.81" y2="268.91"/><line class="k" x1="385.85" y1="268.91" x2="365.31" y2="268.91"/><line class="k" x1="274.8" y1="268.91" x2="246.6" y2="268.91"/><line class="k" x1="238.25" y1="268.91" x2="238.11" y2="268.91"/><line class="k" x1="274.8" y1="268.91" x2="274.8" y2="261.95"/><line class="k" x1="365.31" y1="268.91" x2="365.31" y2="261.95"/><line class="k" x1="502.82" y1="261.95" x2="502.82" y2="254.99"/><line class="k" x1="504.56" y1="261.95" x2="502.82" y2="261.95"/><line class="k" x1="363.57" y1="261.95" x2="363.57" y2="254.99"/><line class="k" x1="365.31" y1="261.95" x2="363.57" y2="261.95"/><line class="k" x1="415.79" y1="261.95" x2="415.79" y2="254.99"/><line class="k" x1="414.05" y1="261.95" x2="415.79" y2="261.95"/><line class="k" x1="276.54" y1="261.95" x2="276.54" y2="254.99"/><line class="k" x1="274.8" y1="261.95" x2="276.54" y2="261.95"/><line class="k" x1="242.46" y1="183.62" x2="243.99" y2="183.62"/><line class="k" x1="243.99" y1="183.62" x2="243.99" y2="254.99"/><line class="k" x1="241.21" y1="254.99" x2="242.46" y2="254.99"/><line class="k" x1="242.46" y1="254.99" x2="243.99" y2="254.99"/><line class="k" x1="547.03" y1="183.62" x2="548.12" y2="183.62"/><line class="k" x1="547.03" y1="183.62" x2="547.03" y2="254.99"/><line class="k" x1="547.03" y1="254.99" x2="548.12" y2="254.99"/><line class="k" x1="548.12" y1="254.99" x2="549.82" y2="254.99"/><line class="k" x1="238.25" y1="441.58" x2="238.11" y2="441.58"/><line class="k" x1="238.25" y1="268.91" x2="238.25" y2="441.58"/><line class="k" x1="246.6" y1="268.91" x2="246.6" y2="441.58"/><line class="k" x1="544.25" y1="368.47" x2="544.25" y2="268.91"/><line class="k" x1="345.82" y1="441.58" x2="246.6" y2="441.58"/><line class="k" x1="544.25" y1="449.94" x2="417.18" y2="449.94"/><line class="k" x1="544.25" y1="449.94" x2="544.25" y2="449.94"/><line class="k" x1="274.8" y1="268.91" x2="330.5" y2="268.91"/><line class="k" x1="330.5" y1="268.91" x2="365.31" y2="268.91"/><line class="k" x1="276.54" y1="254.99" x2="332.24" y2="254.99"/><line class="k" x1="330.5" y1="268.91" x2="330.5" y2="261.95"/><line class="k" x1="332.24" y1="261.95" x2="332.24" y2="254.99"/><line class="k" x1="332.24" y1="258.47" x2="363.57" y2="258.47"/><line class="k" x1="333.28" y1="262.64" x2="333.28" y2="261.95"/><line class="k" x1="333.28" y1="261.95" x2="330.5" y2="261.95"/><line class="k" x1="330.5" y1="261.95" x2="330.5" y2="264.73"/><line class="k" x1="330.5" y1="264.73" x2="331.89" y2="264.73"/><line class="k" x1="331.89" y1="265.43" x2="334.68" y2="265.43"/><line class="k" x1="334.68" y1="265.43" x2="334.68" y2="262.64"/><line class="k" x1="334.68" y1="262.64" x2="331.89" y2="262.64"/><line class="k" x1="331.89" y1="262.64" x2="331.89" y2="265.43"/><line class="k" x1="363.92" y1="265.43" x2="361.13" y2="265.43"/><line class="k" x1="361.13" y1="265.43" x2="361.13" y2="262.64"/><line class="k" x1="361.13" y1="262.64" x2="363.92" y2="262.64"/><line class="k" x1="363.92" y1="262.64" x2="363.92" y2="265.43"/><line class="k" x1="334.68" y1="265.43" x2="361.13" y2="265.43"/><line class="k" x1="361.13" y1="262.64" x2="334.68" y2="262.64"/><line class="k" x1="334.68" y1="264.04" x2="361.13" y2="264.04"/><line class="k" x1="362.53" y1="262.64" x2="362.53" y2="261.95"/><line class="k" x1="362.53" y1="261.95" x2="365.31" y2="261.95"/><line class="k" x1="365.31" y1="261.95" x2="365.31" y2="264.73"/><line class="k" x1="365.31" y1="264.73" x2="363.92" y2="264.73"/><line class="k" x1="330.5" y1="264.73" x2="327.71" y2="264.73"/><line class="k" x1="327.71" y1="264.73" x2="327.71" y2="261.95"/><line class="k" x1="327.71" y1="261.95" x2="330.5" y2="261.95"/><line class="k" x1="330.5" y1="261.95" x2="330.5" y2="264.73"/><line class="k" x1="327.71" y1="264.73" x2="304.04" y2="264.73"/><line class="k" x1="327.71" y1="263.34" x2="304.04" y2="263.34"/><line class="k" x1="327.71" y1="261.95" x2="304.04" y2="261.95"/><line class="k" x1="277.58" y1="262.64" x2="277.58" y2="261.95"/><line class="k" x1="277.58" y1="261.95" x2="274.8" y2="261.95"/><line class="k" x1="274.8" y1="261.95" x2="274.8" y2="264.73"/><line class="k" x1="274.8" y1="264.73" x2="276.19" y2="264.73"/><line class="k" x1="276.19" y1="265.43" x2="278.98" y2="265.43"/><line class="k" x1="278.98" y1="265.43" x2="278.98" y2="262.64"/><line class="k" x1="278.98" y1="262.64" x2="276.19" y2="262.64"/><line class="k" x1="276.19" y1="262.64" x2="276.19" y2="265.43"/><line class="k" x1="278.98" y1="265.43" x2="299.87" y2="265.43"/><line class="k" x1="299.86" y1="262.64" x2="278.98" y2="262.64"/><line class="k" x1="278.98" y1="264.04" x2="299.87" y2="264.04"/><line class="k" x1="301.26" y1="262.64" x2="301.26" y2="261.95"/><line class="k" x1="301.26" y1="261.95" x2="304.04" y2="261.95"/><line class="k" x1="304.04" y1="261.95" x2="304.04" y2="264.73"/><line class="k" x1="304.04" y1="264.73" x2="302.65" y2="264.73"/><line class="k" x1="302.65" y1="265.43" x2="299.86" y2="265.43"/><line class="k" x1="299.86" y1="265.43" x2="299.86" y2="262.64"/><line class="k" x1="299.86" y1="262.64" x2="302.65" y2="262.64"/><line class="k" x1="302.65" y1="262.64" x2="302.65" y2="265.43"/><line class="k" x1="504.56" y1="268.91" x2="469.75" y2="268.91"/><line class="k" x1="448.86" y1="268.91" x2="414.05" y2="268.91"/><line class="k" x1="502.82" y1="254.99" x2="471.49" y2="254.99"/><line class="k" x1="448.86" y1="268.91" x2="448.86" y2="261.95"/><line class="k" x1="447.12" y1="261.95" x2="447.12" y2="254.99"/><line class="k" x1="447.12" y1="258.47" x2="415.79" y2="258.47"/><line class="k" x1="446.08" y1="262.64" x2="446.08" y2="261.95"/><line class="k" x1="446.08" y1="261.95" x2="448.86" y2="261.95"/><line class="k" x1="448.86" y1="261.95" x2="448.86" y2="264.73"/><line class="k" x1="448.86" y1="264.73" x2="447.47" y2="264.73"/><line class="k" x1="447.47" y1="265.43" x2="444.68" y2="265.43"/><line class="k" x1="444.68" y1="265.43" x2="444.68" y2="262.64"/><line class="k" x1="444.68" y1="262.64" x2="447.47" y2="262.64"/><line class="k" x1="447.47" y1="262.64" x2="447.47" y2="265.43"/><line class="k" x1="415.44" y1="265.43" x2="418.23" y2="265.43"/><line class="k" x1="418.23" y1="265.43" x2="418.23" y2="262.64"/><line class="k" x1="418.23" y1="262.64" x2="415.44" y2="262.64"/><line class="k" x1="415.44" y1="262.64" x2="415.44" y2="265.43"/><line class="k" x1="444.68" y1="265.43" x2="418.23" y2="265.43"/><line class="k" x1="418.23" y1="262.64" x2="444.68" y2="262.64"/><line class="k" x1="444.68" y1="264.04" x2="418.23" y2="264.04"/><line class="k" x1="416.83" y1="262.64" x2="416.83" y2="261.95"/><line class="k" x1="416.83" y1="261.95" x2="414.05" y2="261.95"/><line class="k" x1="414.05" y1="261.95" x2="414.05" y2="264.73"/><line class="k" x1="414.05" y1="264.73" x2="415.44" y2="264.73"/><line class="k" x1="501.78" y1="262.64" x2="501.78" y2="261.95"/><line class="k" x1="501.78" y1="261.95" x2="504.56" y2="261.95"/><line class="k" x1="504.56" y1="261.95" x2="504.56" y2="264.73"/><line class="k" x1="504.56" y1="264.73" x2="503.17" y2="264.73"/><line class="k" x1="503.17" y1="265.43" x2="500.38" y2="265.43"/><line class="k" x1="500.38" y1="265.43" x2="500.38" y2="262.64"/><line class="k" x1="500.38" y1="262.64" x2="503.17" y2="262.64"/><line class="k" x1="503.17" y1="262.64" x2="503.17" y2="265.43"/><line class="k" x1="500.38" y1="265.43" x2="473.93" y2="265.43"/><line class="k" x1="473.93" y1="262.64" x2="500.38" y2="262.64"/><line class="k" x1="500.38" y1="264.04" x2="473.93" y2="264.04"/><line class="k" x1="472.53" y1="262.64" x2="472.53" y2="261.95"/><line class="k" x1="472.53" y1="261.95" x2="469.75" y2="261.95"/><line class="k" x1="469.75" y1="261.95" x2="469.75" y2="264.73"/><line class="k" x1="469.75" y1="264.73" x2="471.14" y2="264.73"/><line class="k" x1="471.14" y1="265.43" x2="473.93" y2="265.43"/><line class="k" x1="473.93" y1="265.43" x2="473.93" y2="262.64"/><line class="k" x1="473.93" y1="262.64" x2="471.14" y2="262.64"/><line class="k" x1="471.14" y1="262.64" x2="471.14" y2="265.43"/><line class="k" x1="242.46" y1="180.14" x2="548.12" y2="180.14"/><line class="k" x1="380.63" y1="445.93" x2="380.63" y2="449.94"/><line class="k" x1="417.18" y1="449.94" x2="415.44" y2="449.94"/><line class="k" x1="453.73" y1="441.58" x2="417.18" y2="441.58"/><line class="k" x1="378.89" y1="441.58" x2="372.62" y2="441.58"/><line class="k" x1="415.44" y1="445.93" x2="415.44" y2="449.94"/><line class="k" x1="378.89" y1="445.93" x2="378.89" y2="441.58"/><line class="k" x1="415.44" y1="445.93" x2="417.18" y2="445.93"/><line class="k" x1="417.18" y1="445.93" x2="417.18" y2="441.58"/><line class="k" x1="516.4" y1="441.58" x2="456.17" y2="441.58"/><line class="k" x1="380.63" y1="449.94" x2="378.89" y2="449.94"/><line class="k" x1="378.89" y1="445.93" x2="380.63" y2="445.93"/><line class="k" x1="238.11" y1="449.94" x2="378.89" y2="449.94"/><line class="k" x1="448.86" y1="268.91" x2="448.86" y2="261.95"/><line class="k" x1="447.12" y1="261.95" x2="447.12" y2="254.99"/><line class="k" x1="448.86" y1="261.95" x2="447.12" y2="261.95"/><line class="k" x1="469.75" y1="268.91" x2="469.75" y2="261.95"/><line class="k" x1="471.49" y1="261.95" x2="471.49" y2="254.99"/><line class="k" x1="469.75" y1="261.95" x2="471.49" y2="261.95"/><line class="k" x1="447.12" y1="254.99" x2="471.49" y2="254.99"/><line class="k" x1="448.86" y1="268.91" x2="469.75" y2="268.91"/><line class="k" x1="456.17" y1="384.14" x2="456.17" y2="375.44"/><line class="k" x1="453.73" y1="384.14" x2="453.73" y2="375.44"/><line class="k" x1="392.81" y1="368.47" x2="392.81" y2="268.91"/><line class="k" x1="385.85" y1="373" x2="385.85" y2="268.91"/><line class="k" x1="544.25" y1="368.47" x2="448.51" y2="368.47"/><line class="k" x1="417.18" y1="368.47" x2="392.81" y2="368.47"/><line class="k" x1="544.25" y1="375.44" x2="456.17" y2="375.44"/><line class="k" x1="453.73" y1="375.44" x2="448.51" y2="375.44"/><line class="k" x1="417.18" y1="375.44" x2="384.11" y2="375.44"/><line class="k" x1="456.17" y1="411.99" x2="453.73" y2="411.99"/><line class="k" x1="456.17" y1="384.14" x2="453.73" y2="384.14"/><line class="k" x1="417.18" y1="368.47" x2="417.18" y2="375.44"/><line class="k" x1="448.51" y1="368.47" x2="448.51" y2="375.44"/><line class="k" x1="363.92" y1="265.43" x2="363.92" y2="297.46"/><g class="m"><path class="k" d="M363.92,297.46a32,32,0,0,1-32-32"/></g><line class="k" x1="415.44" y1="265.43" x2="415.44" y2="297.46"/><g class="m"><path class="k" d="M447.47,265.43a32,32,0,0,1-32,32"/></g><line class="k" x1="448.86" y1="268.91" x2="448.86" y2="279.35"/><line class="k" x1="448.86" y1="279.35" x2="414.05" y2="279.35"/><line class="k" x1="414.05" y1="279.35" x2="414.05" y2="268.91"/><line class="k" x1="365.31" y1="268.91" x2="365.31" y2="279.35"/><line class="k" x1="365.31" y1="279.35" x2="330.5" y2="279.35"/><line class="k" x1="330.5" y1="279.35" x2="330.5" y2="268.91"/><line class="k" x1="324.58" y1="441.23" x2="324.58" y2="420.34"/><line class="k" x1="332.56" y1="428.33" x2="337.49" y2="433.25"/><line class="k" x1="337.49" y1="428.33" x2="332.56" y2="433.25"/><line class="k" x1="335.02" y1="434.27" x2="335.02" y2="427.31"/><line class="k" x1="331.54" y1="430.79" x2="338.5" y2="430.79"/><line class="k" x1="324.58" y1="420.34" x2="345.47" y2="420.34"/><line class="k" x1="323.71" y1="422.08" x2="304.57" y2="422.08"/><line class="k" x1="304.56" y1="422.08" x2="304.56" y2="439.49"/><line class="k" x1="304.56" y1="439.49" x2="323.71" y2="439.49"/><line class="k" x1="323.71" y1="439.49" x2="323.71" y2="422.08"/><line class="k" x1="324.58" y1="420.34" x2="303.69" y2="420.34"/><line class="k" x1="321.97" y1="423.82" x2="306.3" y2="423.82"/><line class="k" x1="306.3" y1="423.82" x2="306.3" y2="436.01"/><line class="k" x1="306.3" y1="436.01" x2="321.97" y2="436.01"/><line class="k" x1="321.97" y1="436.01" x2="321.97" y2="423.83"/><g class="m"><path class="k" d="M314.83,432.53a.7.7,0,1,0-.69.69.69.69,0,0,0,.69-.69"/></g><line class="k" x1="303.69" y1="441.23" x2="303.69" y2="420.34"/><line class="k" x1="303.69" y1="420.34" x2="282.81" y2="420.34"/><line class="k" x1="282.81" y1="420.34" x2="282.81" y2="441.23"/><line class="k" x1="267.84" y1="420.34" x2="267.84" y2="399.46"/><line class="k" x1="267.84" y1="399.46" x2="246.6" y2="399.46"/><line class="k" x1="246.6" y1="399.46" x2="246.6" y2="420.35"/><line class="k" x1="246.6" y1="420.34" x2="267.84" y2="420.34"/><g class="m"><path class="k" d="M263.49,409.9a6.1,6.1,0,1,0-6.1,6.09,6.1,6.1,0,0,0,6.1-6.09"/><path class="k" d="M262.44,409.9a5,5,0,1,0-5.05,5.05,5,5,0,0,0,5.05-5.05"/><path class="k" d="M255.68,394.14a3.42,3.42,0,1,0-3.41,3.42,3.42,3.42,0,0,0,3.41-3.42"/></g><line class="k" x1="246.95" y1="399.46" x2="267.84" y2="399.46"/><line class="k" x1="267.84" y1="399.46" x2="267.84" y2="378.57"/><line class="k" x1="267.84" y1="378.57" x2="246.95" y2="378.57"/><g class="m"><path class="k" d="M265.94,394.14a3.42,3.42,0,1,0-3.42,3.42,3.42,3.42,0,0,0,3.42-3.42"/><path class="k" d="M265.94,383.89a3.42,3.42,0,1,0-3.42,3.41,3.42,3.42,0,0,0,3.42-3.41"/></g><line class="k" x1="268.79" y1="381.42" x2="268.79" y2="396.61"/><line class="k" x1="345.82" y1="441.58" x2="345.82" y2="420.34"/><line class="k" x1="345.82" y1="420.34" x2="267.84" y2="420.34"/><line class="k" x1="267.84" y1="420.34" x2="267.84" y2="368.13"/><line class="k" x1="267.84" y1="368.13" x2="246.6" y2="368.13"/><line class="k" x1="246.6" y1="368.13" x2="246.6" y2="441.58"/><line class="k" x1="246.6" y1="441.58" x2="345.82" y2="441.58"/><line class="k" x1="238.25" y1="409.9" x2="238.25" y2="389.01"/><line class="k" x1="238.25" y1="389.01" x2="238.11" y2="389.01"/><line class="k" x1="238.11" y1="409.9" x2="238.25" y2="409.9"/><line class="k" x1="238.25" y1="357.68" x2="238.25" y2="441.58"/><line class="k" x1="238.25" y1="441.58" x2="238.11" y2="441.58"/><line class="k" x1="238.11" y1="357.68" x2="238.25" y2="357.68"/><line class="k" x1="372.62" y1="415.47" x2="370.18" y2="415.47"/><line class="k" x1="372.62" y1="384.14" x2="370.18" y2="384.14"/><line class="k" x1="516.4" y1="436.36" x2="456.17" y2="436.36"/><line class="k" x1="509.35" y1="376.31" x2="509.35" y2="379.79"/><line class="k" x1="509.35" y1="379.79" x2="488.46" y2="379.79"/><line class="k" x1="488.46" y1="379.79" x2="488.46" y2="376.31"/><line class="k" x1="488.46" y1="376.31" x2="489.5" y2="376.31"/><line class="k" x1="489.5" y1="376.31" x2="489.5" y2="378.74"/><line class="k" x1="489.5" y1="378.74" x2="508.3" y2="378.74"/><line class="k" x1="508.3" y1="378.74" x2="508.3" y2="376.31"/><line class="k" x1="508.3" y1="376.31" x2="509.35" y2="376.31"/><line class="k" x1="509.35" y1="376.31" x2="509.35" y2="379.79"/><line class="k" x1="488.46" y1="376.31" x2="488.46" y2="379.79"/><line class="k" x1="508.3" y1="376.31" x2="508.3" y2="378.74"/><line class="k" x1="489.5" y1="376.31" x2="489.5" y2="378.74"/><line class="k" x1="509.35" y1="379.79" x2="488.46" y2="379.79"/><line class="k" x1="509.35" y1="378.74" x2="488.46" y2="378.74"/><line class="k" x1="509.35" y1="376.31" x2="508.3" y2="376.31"/><line class="k" x1="489.5" y1="376.31" x2="488.46" y2="376.31"/><line class="k" x1="370.18" y1="424.17" x2="349.3" y2="424.17"/><line class="k" x1="349.3" y1="424.17" x2="349.3" y2="441.58"/><line class="k" x1="349.3" y1="441.58" x2="370.18" y2="441.58"/><line class="k" x1="370.18" y1="441.58" x2="370.18" y2="424.17"/><line class="k" x1="359.74" y1="420.69" x2="345.82" y2="420.69"/><line class="k" x1="345.82" y1="420.69" x2="345.82" y2="441.58"/><line class="k" x1="456.17" y1="441.58" x2="456.17" y2="411.99"/><line class="k" x1="453.73" y1="441.58" x2="453.73" y2="411.99"/><line class="k" x1="372.62" y1="441.58" x2="372.62" y2="415.47"/><line class="k" x1="372.62" y1="384.14" x2="372.62" y2="375.44"/><line class="k" x1="370.18" y1="420.69" x2="370.18" y2="415.47"/><line class="k" x1="370.18" y1="384.14" x2="370.18" y2="373"/><line class="k" x1="385.85" y1="373" x2="370.18" y2="373"/><line class="k" x1="417.18" y1="375.44" x2="372.62" y2="375.44"/><g class="m"><path class="k" d="M539,412.86a.87.87,0,1,0-.87.87.86.86,0,0,0,.87-.87"/></g><line class="k" x1="515.53" y1="418.08" x2="515.53" y2="376.31"/><line class="k" x1="515.53" y1="376.31" x2="543.38" y2="376.31"/><line class="k" x1="543.38" y1="376.31" x2="543.38" y2="418.08"/><line class="k" x1="543.38" y1="418.08" x2="515.53" y2="418.08"/><line class="k" x1="517.27" y1="412.86" x2="517.27" y2="381.53"/><line class="k" x1="520.75" y1="378.05" x2="538.16" y2="378.05"/><line class="k" x1="541.64" y1="381.53" x2="541.64" y2="412.86"/><line class="k" x1="538.16" y1="416.34" x2="520.75" y2="416.34"/><g class="m"><path class="k" d="M520.75,416.34a3.48,3.48,0,0,1-3.48-3.48"/><path class="k" d="M517.27,381.53a3.48,3.48,0,0,1,3.48-3.48"/><path class="k" d="M541.64,412.86a3.48,3.48,0,0,1-3.48,3.48"/><path class="k" d="M538.16,378.05a3.48,3.48,0,0,1,3.48,3.48"/></g><line class="k" x1="519.88" y1="436.36" x2="519.88" y2="441.58"/><line class="k" x1="519.88" y1="441.58" x2="544.25" y2="441.58"/><line class="k" x1="544.25" y1="441.58" x2="544.25" y2="422.43"/><line class="k" x1="544.25" y1="422.43" x2="519.88" y2="422.43"/><line class="k" x1="544.25" y1="418.95" x2="516.4" y2="418.95"/><line class="k" x1="516.4" y1="418.95" x2="516.4" y2="422.43"/><line class="k" x1="516.4" y1="436.36" x2="516.4" y2="441.58"/><line class="k" x1="519.88" y1="422.43" x2="516.4" y2="422.43"/><line class="k" x1="519.88" y1="436.36" x2="519.88" y2="422.43"/><line class="k" x1="370.18" y1="420.69" x2="359.74" y2="420.69"/><line class="k" x1="370.18" y1="424.17" x2="370.18" y2="420.69"/><line class="k" x1="418.92" y1="368.47" x2="446.77" y2="368.47"/><line class="k" x1="418.92" y1="368.47" x2="418.92" y2="340.62"/><g class="m"><path class="k" d="M418.92,340.62a27.85,27.85,0,0,1,27.85,27.85"/></g><line class="k" x1="418.92" y1="375.44" x2="418.92" y2="368.47"/><line class="k" x1="446.77" y1="368.47" x2="446.77" y2="375.44"/><line class="k" x1="446.77" y1="368.47" x2="448.51" y2="368.47"/><line class="k" x1="446.77" y1="375.44" x2="448.51" y2="375.44"/><line class="k" x1="417.18" y1="368.47" x2="418.92" y2="368.47"/><line class="k" x1="417.18" y1="375.44" x2="418.92" y2="375.44"/><line class="k" x1="418.92" y1="375.44" x2="425.88" y2="375.44"/><line class="k" x1="429.71" y1="375.44" x2="430.5" y2="375.44"/><line class="k" x1="434.33" y1="375.44" x2="435.11" y2="375.44"/><line class="k" x1="438.94" y1="375.44" x2="439.81" y2="375.44"/><line class="k" x1="439.81" y1="375.44" x2="446.77" y2="375.44"/><line class="k" x1="418.92" y1="368.47" x2="418.92" y2="367.6"/><line class="k" x1="418.92" y1="367.6" x2="415.44" y2="367.6"/><line class="k" x1="415.44" y1="367.6" x2="415.44" y2="368.47"/><line class="k" x1="418.92" y1="375.44" x2="418.92" y2="376.31"/><line class="k" x1="418.92" y1="376.31" x2="415.44" y2="376.31"/><line class="k" x1="415.44" y1="376.31" x2="415.44" y2="375.44"/><line class="k" x1="446.77" y1="367.6" x2="450.25" y2="367.6"/><line class="k" x1="450.25" y1="367.6" x2="450.25" y2="368.47"/><line class="k" x1="446.77" y1="375.44" x2="446.77" y2="376.31"/><line class="k" x1="446.77" y1="376.31" x2="450.25" y2="376.31"/><line class="k" x1="450.25" y1="376.31" x2="450.25" y2="375.44"/><line class="k" x1="453.73" y1="410.25" x2="453.73" y2="385.88"/><line class="k" x1="453.73" y1="410.25" x2="429.37" y2="410.25"/><g class="m"><path class="k" d="M429.37,410.25a24.37,24.37,0,0,1,24.36-24.37"/></g><line class="k" x1="456.17" y1="410.25" x2="453.73" y2="410.25"/><line class="k" x1="453.73" y1="385.88" x2="456.17" y2="385.88"/><line class="k" x1="453.73" y1="385.88" x2="453.73" y2="384.14"/><line class="k" x1="456.17" y1="385.88" x2="456.17" y2="384.14"/><line class="k" x1="453.73" y1="411.99" x2="453.73" y2="410.25"/><line class="k" x1="456.17" y1="411.99" x2="456.17" y2="410.25"/><line class="k" x1="456.17" y1="410.25" x2="456.17" y2="403.29"/><line class="k" x1="456.17" y1="399.46" x2="456.17" y2="398.67"/><line class="k" x1="456.17" y1="394.84" x2="456.17" y2="394.06"/><line class="k" x1="456.17" y1="392.84" x2="456.17" y2="385.88"/><line class="k" x1="453.73" y1="410.25" x2="452.86" y2="410.25"/><line class="k" x1="452.86" y1="410.25" x2="452.86" y2="413.73"/><line class="k" x1="452.86" y1="413.73" x2="453.73" y2="413.73"/><line class="k" x1="456.17" y1="410.25" x2="457.04" y2="410.25"/><line class="k" x1="457.04" y1="410.25" x2="457.04" y2="413.73"/><line class="k" x1="457.04" y1="413.73" x2="456.17" y2="413.73"/><line class="k" x1="452.86" y1="385.88" x2="452.86" y2="382.4"/><line class="k" x1="452.86" y1="382.4" x2="453.73" y2="382.4"/><line class="k" x1="456.17" y1="385.88" x2="457.04" y2="385.88"/><line class="k" x1="457.04" y1="385.88" x2="457.04" y2="382.4"/><line class="k" x1="457.04" y1="382.4" x2="456.17" y2="382.4"/><line class="k" x1="370.18" y1="413.73" x2="370.18" y2="385.88"/><line class="k" x1="370.18" y1="413.73" x2="342.33" y2="413.73"/><g class="m"><path class="k" d="M342.33,413.73a27.85,27.85,0,0,1,27.85-27.85"/></g><line class="k" x1="372.62" y1="413.73" x2="370.18" y2="413.73"/><line class="k" x1="370.18" y1="385.88" x2="372.62" y2="385.88"/><line class="k" x1="370.18" y1="385.88" x2="370.18" y2="384.14"/><line class="k" x1="372.62" y1="385.88" x2="372.62" y2="384.14"/><line class="k" x1="370.18" y1="415.47" x2="370.18" y2="413.73"/><line class="k" x1="372.62" y1="415.47" x2="372.62" y2="413.73"/><line class="k" x1="372.62" y1="413.73" x2="372.62" y2="406.77"/><line class="k" x1="372.62" y1="402.94" x2="372.62" y2="402.15"/><line class="k" x1="372.62" y1="398.33" x2="372.62" y2="397.54"/><line class="k" x1="372.62" y1="393.71" x2="372.62" y2="392.84"/><line class="k" x1="372.62" y1="392.84" x2="372.62" y2="385.88"/><line class="k" x1="370.18" y1="413.73" x2="369.31" y2="413.73"/><line class="k" x1="369.31" y1="413.73" x2="369.31" y2="417.21"/><line class="k" x1="369.31" y1="417.21" x2="370.18" y2="417.21"/><line class="k" x1="372.62" y1="413.73" x2="373.49" y2="413.73"/><line class="k" x1="373.49" y1="413.73" x2="373.49" y2="417.21"/><line class="k" x1="373.49" y1="417.21" x2="372.62" y2="417.21"/><line class="k" x1="369.31" y1="385.88" x2="369.31" y2="382.4"/><line class="k" x1="369.31" y1="382.4" x2="370.18" y2="382.4"/><line class="k" x1="372.62" y1="385.88" x2="373.49" y2="385.88"/><line class="k" x1="373.49" y1="385.88" x2="373.49" y2="382.4"/><line class="k" x1="373.49" y1="382.4" x2="372.62" y2="382.4"/><line class="k" x1="382.37" y1="445.93" x2="413.7" y2="445.93"/><line class="k" x1="382.37" y1="449.94" x2="413.7" y2="449.94"/><line class="k" x1="382.37" y1="445.93" x2="382.37" y2="414.6"/><g class="m"><path class="k" d="M382.37,414.6a31.33,31.33,0,0,1,31.33,31.33"/></g><line class="k" x1="382.37" y1="449.94" x2="382.37" y2="445.93"/><line class="k" x1="413.7" y1="445.93" x2="413.7" y2="449.94"/><line class="k" x1="413.7" y1="445.93" x2="415.44" y2="445.93"/><line class="k" x1="413.7" y1="449.94" x2="415.44" y2="449.94"/><line class="k" x1="380.63" y1="445.93" x2="382.37" y2="445.93"/><line class="k" x1="380.63" y1="449.94" x2="382.37" y2="449.94"/><line class="k" x1="500.21" y1="270.65" x2="472.36" y2="270.65"/><line class="k" x1="472.36" y1="270.65" x2="472.36" y2="272.84"/><line class="k" x1="472.36" y1="272.84" x2="500.21" y2="272.84"/><line class="k" x1="500.21" y1="272.84" x2="500.21" y2="270.65"/><line class="k" x1="323.54" y1="270.65" x2="274.8" y2="270.65"/><line class="k" x1="274.8" y1="270.65" x2="274.8" y2="274.13"/><line class="k" x1="274.8" y1="274.13" x2="323.54" y2="274.13"/><line class="k" x1="323.54" y1="274.13" x2="323.54" y2="270.65"/><g class="m"><path class="k" d="M328.76,272.39a1.74,1.74,0,1,0-1.74,1.74,1.74,1.74,0,0,0,1.74-1.74"/><path class="k" d="M505.43,271.75a1.74,1.74,0,1,0-1.74,1.74,1.74,1.74,0,0,0,1.74-1.74"/></g><line class="k" x1="516.4" y1="422.43" x2="516.4" y2="436.36"/><line class="k" x1="519.88" y1="422.43" x2="516.4" y2="422.43"/><line class="k" x1="363.57" y1="254.99" x2="356.61" y2="254.99"/><line class="k" x1="352.78" y1="254.99" x2="351.99" y2="254.99"/><line class="k" x1="348.17" y1="254.99" x2="347.38" y2="254.99"/><line class="k" x1="343.55" y1="254.99" x2="339.2" y2="254.99"/><line class="k" x1="339.2" y1="254.99" x2="332.24" y2="254.99"/><line class="k" x1="447.12" y1="254.99" x2="440.16" y2="254.99"/><line class="k" x1="436.33" y1="254.99" x2="435.54" y2="254.99"/><line class="k" x1="431.72" y1="254.99" x2="430.93" y2="254.99"/><line class="k" x1="427.1" y1="254.99" x2="422.75" y2="254.99"/><line class="k" x1="422.75" y1="254.99" x2="415.79" y2="254.99"/><line class="k" x1="545.12" y1="202.77" x2="544.33" y2="202.77"/><line class="k" x1="540.5" y1="202.77" x2="539.72" y2="202.77"/><line class="k" x1="535.89" y1="202.77" x2="528.93" y2="202.77"/><line class="k" x1="525.1" y1="202.77" x2="524.32" y2="202.77"/><line class="k" x1="520.49" y1="202.77" x2="519.7" y2="202.77"/><line class="k" x1="515.87" y1="202.77" x2="508.91" y2="202.77"/><line class="k" x1="505.08" y1="202.77" x2="504.3" y2="202.77"/><line class="k" x1="500.47" y1="202.77" x2="499.69" y2="202.77"/><line class="k" x1="495.86" y1="202.77" x2="488.9" y2="202.77"/><line class="k" x1="485.07" y1="202.77" x2="484.28" y2="202.77"/><line class="k" x1="480.45" y1="202.77" x2="479.67" y2="202.77"/><line class="k" x1="475.84" y1="202.77" x2="468.88" y2="202.77"/><line class="k" x1="465.05" y1="202.77" x2="464.26" y2="202.77"/><line class="k" x1="460.44" y1="202.77" x2="459.65" y2="202.77"/><line class="k" x1="455.82" y1="202.77" x2="448.86" y2="202.77"/><line class="k" x1="445.03" y1="202.77" x2="444.25" y2="202.77"/><line class="k" x1="440.42" y1="202.77" x2="439.63" y2="202.77"/><line class="k" x1="435.81" y1="202.77" x2="428.84" y2="202.77"/><line class="k" x1="425.01" y1="202.77" x2="424.23" y2="202.77"/><line class="k" x1="420.4" y1="202.77" x2="419.62" y2="202.77"/><line class="k" x1="415.79" y1="202.77" x2="408.83" y2="202.77"/><line class="k" x1="405" y1="202.77" x2="404.21" y2="202.77"/><line class="k" x1="400.38" y1="202.77" x2="399.6" y2="202.77"/><line class="k" x1="395.77" y1="202.77" x2="388.81" y2="202.77"/><line class="k" x1="384.98" y1="202.77" x2="384.2" y2="202.77"/><line class="k" x1="380.37" y1="202.77" x2="379.58" y2="202.77"/><line class="k" x1="375.75" y1="202.77" x2="368.79" y2="202.77"/><line class="k" x1="364.96" y1="202.77" x2="364.18" y2="202.77"/><line class="k" x1="360.35" y1="202.77" x2="359.57" y2="202.77"/><line class="k" x1="355.74" y1="202.77" x2="348.78" y2="202.77"/><line class="k" x1="344.95" y1="202.77" x2="344.16" y2="202.77"/><line class="k" x1="340.33" y1="202.77" x2="339.55" y2="202.77"/><line class="k" x1="335.72" y1="202.77" x2="328.76" y2="202.77"/><line class="k" x1="324.93" y1="202.77" x2="324.14" y2="202.77"/><line class="k" x1="320.32" y1="202.77" x2="319.53" y2="202.77"/><line class="k" x1="315.7" y1="202.77" x2="308.74" y2="202.77"/><line class="k" x1="304.91" y1="202.77" x2="304.13" y2="202.77"/><line class="k" x1="300.3" y1="202.77" x2="299.52" y2="202.77"/><line class="k" x1="295.69" y1="202.77" x2="288.73" y2="202.77"/><line class="k" x1="284.9" y1="202.77" x2="284.11" y2="202.77"/><line class="k" x1="280.28" y1="202.77" x2="279.5" y2="202.77"/><line class="k" x1="275.67" y1="202.77" x2="268.71" y2="202.77"/><line class="k" x1="264.88" y1="202.77" x2="264.09" y2="202.77"/><line class="k" x1="260.27" y1="202.77" x2="259.48" y2="202.77"/><line class="k" x1="255.65" y1="202.77" x2="248.69" y2="202.77"/><line class="k" x1="245.08" y1="202.77" x2="242.46" y2="202.77"/><rect class="h" x="488.46" y="378.74" width="20.89" height="1.04"/><line class="k" x1="509.35" y1="379.79" x2="509.35" y2="378.74"/><line class="k" x1="488.46" y1="379.79" x2="509.35" y2="379.79"/><line class="k" x1="488.46" y1="378.74" x2="488.46" y2="379.79"/><line class="k" x1="509.35" y1="378.74" x2="488.46" y2="378.74"/><rect class="h" x="508.3" y="376.31" width="1.04" height="2.44"/><line class="k" x1="508.3" y1="378.74" x2="509.35" y2="378.74"/><line class="k" x1="508.3" y1="376.31" x2="508.3" y2="378.74"/><line class="k" x1="509.35" y1="376.31" x2="508.3" y2="376.31"/><line class="k" x1="509.35" y1="378.74" x2="509.35" y2="376.31"/><rect class="h" x="488.46" y="376.31" width="1.04" height="2.44"/><line class="k" x1="488.46" y1="378.74" x2="489.5" y2="378.74"/><line class="k" x1="488.46" y1="376.31" x2="488.46" y2="378.74"/><line class="k" x1="489.5" y1="376.31" x2="488.46" y2="376.31"/><line class="k" x1="489.5" y1="378.74" x2="489.5" y2="376.31"/><rect class="h" x="372.62" y="375.44" width="39.34" height="5.22"/><line class="k" x1="411.96" y1="380.66" x2="372.62" y2="380.66"/><line class="k" x1="372.62" y1="380.66" x2="372.62" y2="375.44"/><line class="k" x1="372.62" y1="375.44" x2="411.96" y2="375.44"/><line class="k" x1="411.96" y1="375.44" x2="411.96" y2="380.66"/><rect class="h" x="456.17" y="436.36" width="60.23" height="5.22"/><line class="k" x1="516.4" y1="441.58" x2="456.17" y2="441.58"/><line class="k" x1="456.17" y1="441.58" x2="456.17" y2="436.36"/><line class="k" x1="456.17" y1="436.36" x2="516.4" y2="436.36"/><line class="k" x1="516.4" y1="436.36" x2="516.4" y2="441.58"/><rect class="h" x="369.84" y="268.91" width="16.01" height="104.09"/><line class="k" x1="385.85" y1="373" x2="369.84" y2="373"/><line class="k" x1="369.84" y1="373" x2="369.84" y2="268.91"/><line class="k" x1="369.84" y1="268.91" x2="385.85" y2="268.91"/><line class="k" x1="385.85" y1="268.91" x2="385.85" y2="373"/><rect class="h" x="286.98" y="310.69" width="17.41" height="27.85"/><line class="k" x1="286.98" y1="338.54" x2="304.38" y2="338.54"/><line class="k" x1="286.98" y1="310.69" x2="286.98" y2="338.54"/><line class="k" x1="304.38" y1="310.69" x2="286.98" y2="310.69"/><line class="k" x1="304.38" y1="338.54" x2="304.38" y2="310.69"/><rect class="h" x="274.8" y="270.65" width="48.74" height="3.48"/><line class="k" x1="323.54" y1="274.13" x2="323.54" y2="270.65"/><line class="k" x1="274.8" y1="274.13" x2="323.54" y2="274.13"/><line class="k" x1="274.8" y1="270.65" x2="274.8" y2="274.13"/><line class="k" x1="323.54" y1="270.65" x2="274.8" y2="270.65"/><polygon class="n" points="328.76 272.39 328.25 273.62 327.02 274.13 325.79 273.62 325.28 272.39 325.79 271.16 327.02 270.65 328.25 271.16 328.76 272.39"/><g class="m"><path class="k" d="M328.76,272.39a1.74,1.74,0,0,1-3.48,0"/><path class="k" d="M325.28,272.39a1.74,1.74,0,0,1,3.48,0"/></g><rect class="h" x="472.36" y="270.65" width="27.85" height="2.19"/><line class="k" x1="500.21" y1="272.84" x2="500.21" y2="270.65"/><line class="k" x1="472.36" y1="272.84" x2="500.21" y2="272.84"/><line class="k" x1="472.36" y1="270.65" x2="472.36" y2="272.84"/><line class="k" x1="500.21" y1="270.65" x2="472.36" y2="270.65"/><polygon class="n" points="505.43 271.75 504.92 272.98 503.69 273.49 502.46 272.98 501.95 271.75 502.46 270.52 503.69 270.01 504.92 270.52 505.43 271.75"/><g class="m"><path class="k" d="M505.43,271.75a1.74,1.74,0,0,1-3.48,0"/><path class="k" d="M502,271.75a1.74,1.74,0,0,1,3.48,0"/></g><polygon class="n" points="466.44 436.36 479.32 436.36 479.32 424.87 479.05 423.15 478.28 421.59 477.06 420.35 475.09 419.31 472.88 418.95 470.68 419.31 468.7 420.35 467.49 421.59 466.71 423.15 466.44 424.87 466.44 436.36"/><line class="k" x1="479.32" y1="436.36" x2="479.32" y2="424.87"/><line class="k" x1="479.32" y1="436.36" x2="466.44" y2="436.36"/><line class="k" x1="466.44" y1="436.36" x2="466.44" y2="424.87"/><line class="k" x1="477.23" y1="432.18" x2="477.23" y2="424.87"/><line class="k" x1="468.53" y1="432.18" x2="468.53" y2="424.87"/><line class="k" x1="468.53" y1="432.18" x2="477.23" y2="432.18"/><g class="m"><path class="k" d="M477.06,420.34a5.65,5.65,0,0,1,2.26,4.53"/><path class="k" d="M466.44,424.87a5.68,5.68,0,0,1,2.26-4.53"/><path class="k" d="M468.7,420.34a7,7,0,0,1,8.36,0"/><path class="k" d="M466.44,424.87a5.68,5.68,0,0,1,2.26-4.53"/><path class="k" d="M468.7,420.34a7,7,0,0,1,4.18-1.39"/><path class="k" d="M468.53,424.87A3.56,3.56,0,0,1,470,422"/><path class="k" d="M470,422a4.84,4.84,0,0,1,5.84,0"/><path class="k" d="M475.81,422a3.55,3.55,0,0,1,1.42,2.85"/></g><polygon class="n" points="279.32 303.78 279.95 303.41 280.01 302.68 280.01 276.92 280.05 276.43 279.78 276.03 279.32 275.87 251.12 275.87 250.63 276.08 250.42 276.57 250.42 348.28 250.63 348.78 251.12 348.98 276.53 348.98 278.27 348.51 279.55 347.24 280.01 345.5 280.01 344.45 279.81 343.96 279.32 343.76 279.82 343.34 280.01 342.71 280.01 304.77 279.82 304.17 279.32 303.78"/><polygon class="n" points="302.64 303.72 305.31 303.19 307.56 301.68 309.07 299.43 309.6 296.76 309.6 282.83 309.07 280.17 307.56 277.91 305.31 276.4 302.64 275.87 281.06 275.87 280.32 276.18 280.01 276.92 280.01 302.68 280.32 303.42 281.06 303.72 302.64 303.72"/><line class="k" x1="281.06" y1="303.72" x2="302.64" y2="303.72"/><g class="m"><path class="k" d="M281.06,303.72a1,1,0,0,1-1.05-1"/></g><line class="k" x1="280.01" y1="276.92" x2="280.01" y2="302.68"/><g class="m"><path class="k" d="M280,276.92a1,1,0,0,1,1.05-1.05"/></g><line class="k" x1="302.64" y1="275.87" x2="281.06" y2="275.87"/><g class="m"><path class="k" d="M302.64,275.87a7,7,0,0,1,7,7"/></g><line class="k" x1="309.6" y1="296.76" x2="309.6" y2="282.84"/><g class="m"><path class="k" d="M309.6,296.76a7,7,0,0,1-7,7"/></g><line class="k" x1="280.01" y1="344.45" x2="280.01" y2="345.5"/><line class="k" x1="276.53" y1="348.98" x2="251.12" y2="348.98"/><line class="k" x1="250.42" y1="348.28" x2="250.42" y2="344.45"/><line class="k" x1="251.12" y1="343.76" x2="279.32" y2="343.76"/><line class="k" x1="250.42" y1="344.45" x2="250.42" y2="303.72"/><line class="k" x1="250.42" y1="303.72" x2="252.86" y2="303.72"/><line class="k" x1="280.01" y1="304.77" x2="280.01" y2="342.71"/><line class="k" x1="278.97" y1="343.76" x2="261.52" y2="343.76"/><line class="k" x1="261.52" y1="303.72" x2="278.97" y2="303.72"/><line class="k" x1="252.86" y1="343.76" x2="259.43" y2="343.76"/><line class="k" x1="259.43" y1="303.72" x2="252.86" y2="303.72"/><line class="k" x1="280.01" y1="280.4" x2="280.01" y2="276.57"/><line class="k" x1="279.32" y1="275.87" x2="251.12" y2="275.87"/><line class="k" x1="250.42" y1="276.57" x2="250.42" y2="280.4"/><line class="k" x1="250.42" y1="280.4" x2="250.42" y2="303.72"/><line class="k" x1="250.42" y1="303.72" x2="252.86" y2="303.72"/><line class="k" x1="280.01" y1="302.68" x2="280.01" y2="282.14"/><line class="k" x1="261.52" y1="303.72" x2="278.97" y2="303.72"/><line class="k" x1="261.52" y1="303.72" x2="252.86" y2="303.72"/><line class="k" x1="309.6" y1="296.76" x2="309.6" y2="282.84"/><line class="k" x1="302.64" y1="275.87" x2="281.06" y2="275.87"/><line class="k" x1="280.01" y1="276.92" x2="280.01" y2="302.68"/><line class="k" x1="281.06" y1="303.72" x2="302.64" y2="303.72"/><line class="k" x1="251.82" y1="302.68" x2="251.82" y2="276.92"/><line class="k" x1="251.82" y1="304.77" x2="251.82" y2="342.71"/><g class="m"><path class="k" d="M251.12,349a.7.7,0,0,1-.7-.7"/><path class="k" d="M250.42,344.45a.69.69,0,0,1,.7-.69"/><path class="k" d="M279.32,343.76a.69.69,0,0,1,.69.69"/><path class="k" d="M280,342.71a1,1,0,0,1-1,1.05"/><path class="k" d="M279,303.72a1,1,0,0,1,1,1"/><path class="k" d="M279.32,275.87a.7.7,0,0,1,.69.7"/><path class="k" d="M250.42,276.57a.7.7,0,0,1,.7-.7"/><path class="k" d="M280,302.68a1,1,0,0,1-1,1"/><path class="k" d="M280,276.92a1,1,0,0,1,1.05-1.05"/><path class="k" d="M281.06,303.72a1,1,0,0,1-1.05-1"/></g><line class="k" x1="251.82" y1="276.92" x2="275.53" y2="276.92"/><g class="m"><path class="k" d="M255.87,302.72a19.74,19.74,0,0,1,14.87-24.54"/><path class="k" d="M256.69,304.77a119.14,119.14,0,0,1,0,37.94"/><path class="k" d="M309.6,296.76a7,7,0,0,1-7,7"/><path class="k" d="M302.64,275.87a7,7,0,0,1,7,7"/><path class="k" d="M280,345.5a3.48,3.48,0,0,1-3.48,3.48"/></g><rect class="h" x="391.07" y="318.69" width="20.89" height="49.78"/><line class="k" x1="391.07" y1="368.47" x2="391.07" y2="318.69"/><line class="k" x1="391.07" y1="318.69" x2="411.96" y2="318.69"/><line class="k" x1="411.96" y1="318.69" x2="411.96" y2="368.47"/><line class="k" x1="411.96" y1="368.47" x2="391.07" y2="368.47"/><line class="k" x1="401.52" y1="365.98" x2="401.52" y2="321.18"/><line class="k" x1="395.37" y1="363.68" x2="407.89" y2="359.46"/><line class="k" x1="394.75" y1="358.93" x2="406.39" y2="357.19"/><line class="k" x1="409.05" y1="352.45" x2="396.27" y2="351.01"/><line class="k" x1="407.37" y1="345.1" x2="396.27" y2="347.05"/><line class="k" x1="408.01" y1="342.43" x2="394.33" y2="342.43"/><line class="k" x1="408.07" y1="334.86" x2="394.55" y2="336.66"/><line class="k" x1="407.84" y1="332.03" x2="395.5" y2="332.03"/><line class="k" x1="407.97" y1="324.56" x2="395.31" y2="323.13"/><line class="k" x1="407.11" y1="326.36" x2="396.4" y2="327.82"/><rect class="h" x="391.07" y="268.91" width="20.89" height="49.78"/><line class="k" x1="391.07" y1="318.69" x2="391.07" y2="268.91"/><line class="k" x1="391.07" y1="268.91" x2="411.96" y2="268.91"/><line class="k" x1="411.96" y1="268.91" x2="411.96" y2="318.69"/><line class="k" x1="411.96" y1="318.69" x2="391.07" y2="318.69"/><line class="k" x1="401.52" y1="316.2" x2="401.52" y2="271.4"/><line class="k" x1="395.37" y1="313.89" x2="407.89" y2="309.68"/><line class="k" x1="394.75" y1="309.15" x2="406.39" y2="307.41"/><line class="k" x1="409.05" y1="302.66" x2="396.27" y2="301.23"/><line class="k" x1="407.37" y1="295.32" x2="396.27" y2="297.26"/><line class="k" x1="408.01" y1="292.65" x2="394.33" y2="292.65"/><line class="k" x1="408.07" y1="285.08" x2="394.55" y2="286.88"/><line class="k" x1="407.84" y1="282.25" x2="395.5" y2="282.25"/><line class="k" x1="407.97" y1="274.78" x2="395.31" y2="273.35"/><line class="k" x1="407.11" y1="276.58" x2="396.4" y2="278.04"/><polygon class="n" points="489.77 436.36 507.87 436.36 508.24 436.2 508.39 435.84 508.39 421.56 508.24 421.19 507.87 421.04 489.77 421.04 489.4 421.19 489.24 421.56 489.24 435.84 489.4 436.2 489.77 436.36"/><g class="m"><path class="k" d="M489.77,436.36a.52.52,0,0,1-.53-.52"/></g><line class="k" x1="489.24" y1="421.56" x2="489.24" y2="435.84"/><g class="m"><path class="k" d="M489.24,421.56a.52.52,0,0,1,.53-.52"/></g><line class="k" x1="507.87" y1="421.04" x2="489.77" y2="421.04"/><g class="m"><path class="k" d="M507.87,421a.52.52,0,0,1,.52.52"/></g><line class="k" x1="508.39" y1="435.84" x2="508.39" y2="421.56"/><g class="m"><path class="k" d="M508.39,435.84a.52.52,0,0,1-.52.52"/></g><line class="k" x1="489.77" y1="436.36" x2="507.87" y2="436.36"/><line class="k" x1="490.81" y1="432.53" x2="506.82" y2="432.53"/><line class="k" x1="507.35" y1="432.01" x2="507.35" y2="422.61"/><line class="k" x1="506.82" y1="422.08" x2="490.81" y2="422.08"/><line class="k" x1="490.29" y1="422.61" x2="490.29" y2="432.01"/><g class="m"><path class="k" d="M507.35,432a.52.52,0,0,1-.53.52"/><path class="k" d="M506.82,422.08a.53.53,0,0,1,.53.53"/><path class="k" d="M490.29,422.61a.52.52,0,0,1,.52-.53"/><path class="k" d="M490.81,432.53a.52.52,0,0,1-.52-.52"/></g><polygon class="n" points="497.95 434.27 498.09 432.81 498.2 432.48 498.43 430.63 498.56 430.39 498.82 430.3 499.07 430.39 499.2 430.63 499.44 432.48 499.55 432.81 499.69 434.27 499.43 434.89 498.82 435.14 498.2 434.89 497.95 434.27"/><line class="k" x1="497.95" y1="434.27" x2="498.09" y2="432.81"/><g class="m"><path class="k" d="M498.09,432.81a.76.76,0,0,1,.11-.33"/></g><line class="k" x1="498.2" y1="432.48" x2="498.43" y2="430.63"/><g class="m"><path class="k" d="M498.43,430.63a.39.39,0,0,1,.39-.34.38.38,0,0,1,.38.34"/></g><line class="k" x1="499.2" y1="430.63" x2="499.44" y2="432.48"/><g class="m"><path class="k" d="M499.44,432.48a.76.76,0,0,1,.11.33"/></g><line class="k" x1="499.55" y1="432.81" x2="499.69" y2="434.27"/><g class="m"><path class="k" d="M499.69,434.27a.87.87,0,0,1-1.74,0"/></g><line class="k" x1="499.29" y1="433.4" x2="499.29" y2="432.88"/><line class="k" x1="498.34" y1="432.88" x2="498.34" y2="433.4"/><line class="k" x1="498.34" y1="433.4" x2="499.29" y2="433.4"/><g class="m"><path class="k" d="M498.34,432.88a.48.48,0,0,1,.48-.47.47.47,0,0,1,.47.47"/><path class="k" d="M498.2,432.48a.74.74,0,0,1,1.24,0"/></g><polygon class="n" points="326.85 364.58 330.75 357.83 331.22 356.09 330.75 354.34 329.48 353.07 323.47 349.57 321.73 349.1 319.99 349.56 318.71 350.84 314.82 357.58 318.42 358.07 321.77 359.47 324.65 361.69 326.85 364.58"/><polygon class="n" points="314.78 385.49 318.65 392.26 319.92 393.54 321.66 394.01 323.4 393.54 329.43 390.06 330.7 388.79 331.17 387.04 330.7 385.3 326.83 378.54 324.61 381.43 321.73 383.63 318.38 385.02 314.78 385.49"/><polygon class="n" points="302.77 364.54 294.99 364.53 293.25 365 291.98 366.27 291.51 368.02 291.5 375 291.96 376.74 293.24 378.02 294.97 378.49 302.75 378.5 301.36 375.13 300.89 371.52 301.37 367.91 302.77 364.54"/><polygon class="n" points="314.82 357.58 318.42 358.07 321.77 359.47 324.65 361.69 326.85 364.58 328.24 367.95 328.7 371.56 328.23 375.17 326.83 378.54 324.62 381.42 321.73 383.63 318.38 385.02 314.78 385.49 311.18 385.01 307.83 383.61 304.95 381.39 302.74 378.5 301.36 375.13 300.89 371.52 301.37 367.91 302.77 364.54 304.98 361.66 307.86 359.44 311.22 358.06 314.82 357.58"/><line class="k" x1="314.82" y1="357.58" x2="318.42" y2="358.07"/><line class="k" x1="318.42" y1="358.07" x2="321.77" y2="359.47"/><line class="k" x1="321.77" y1="359.47" x2="324.65" y2="361.69"/><line class="k" x1="324.65" y1="361.69" x2="326.85" y2="364.58"/><line class="k" x1="326.85" y1="364.58" x2="328.23" y2="367.95"/><line class="k" x1="328.24" y1="367.95" x2="328.7" y2="371.56"/><line class="k" x1="328.7" y1="371.56" x2="328.22" y2="375.17"/><line class="k" x1="328.22" y1="375.17" x2="326.83" y2="378.54"/><line class="k" x1="326.83" y1="378.54" x2="324.61" y2="381.43"/><line class="k" x1="324.61" y1="381.42" x2="321.73" y2="383.64"/><line class="k" x1="321.73" y1="383.63" x2="318.38" y2="385.02"/><line class="k" x1="318.38" y1="385.02" x2="314.78" y2="385.49"/><line class="k" x1="314.78" y1="385.49" x2="311.18" y2="385.01"/><line class="k" x1="311.18" y1="385.01" x2="307.83" y2="383.61"/><line class="k" x1="307.83" y1="383.61" x2="304.95" y2="381.39"/><line class="k" x1="304.95" y1="381.39" x2="302.75" y2="378.5"/><line class="k" x1="302.74" y1="378.5" x2="301.36" y2="375.13"/><line class="k" x1="301.36" y1="375.13" x2="300.89" y2="371.52"/><line class="k" x1="300.89" y1="371.52" x2="301.37" y2="367.91"/><line class="k" x1="301.37" y1="367.91" x2="302.77" y2="364.54"/><line class="k" x1="302.77" y1="364.54" x2="304.98" y2="361.66"/><line class="k" x1="304.98" y1="361.66" x2="307.86" y2="359.44"/><line class="k" x1="307.86" y1="359.44" x2="311.22" y2="358.06"/><line class="k" x1="311.22" y1="358.06" x2="314.82" y2="357.58"/><g class="m"><path class="k" d="M328.7,371.56h0a13.91,13.91,0,1,1-27.81,0"/><path class="k" d="M300.89,371.52h0a13.91,13.91,0,1,1,27.81,0"/></g><line class="k" x1="328.61" y1="354.57" x2="322.6" y2="351.08"/><line class="k" x1="318.72" y1="350.84" x2="314.82" y2="357.58"/><line class="k" x1="329.48" y1="353.07" x2="323.47" y2="349.57"/><line class="k" x1="326.85" y1="364.58" x2="330.75" y2="357.83"/><line class="k" x1="322.53" y1="392.03" x2="328.56" y2="388.55"/><line class="k" x1="330.7" y1="385.3" x2="326.83" y2="378.54"/><line class="k" x1="323.4" y1="393.54" x2="329.43" y2="390.06"/><line class="k" x1="314.78" y1="385.49" x2="318.65" y2="392.26"/><line class="k" x1="293.25" y1="368.02" x2="293.24" y2="375"/><line class="k" x1="294.97" y1="378.49" x2="302.75" y2="378.5"/><line class="k" x1="291.51" y1="368.02" x2="291.5" y2="375"/><line class="k" x1="302.77" y1="364.54" x2="294.99" y2="364.53"/><g class="m"><path class="k" d="M320.22,351.71a1.73,1.73,0,0,1,1.51-.87,1.7,1.7,0,0,1,.87.24"/><path class="k" d="M328.61,354.58a1.73,1.73,0,0,1,.87,1.51,1.8,1.8,0,0,1-.23.87"/><path class="k" d="M318.71,350.84a3.5,3.5,0,0,1,3-1.74,3.38,3.38,0,0,1,1.73.47"/><path class="k" d="M329.48,353.07a3.48,3.48,0,0,1,1.27,4.76"/><path class="k" d="M329.2,386.17a1.75,1.75,0,0,1-.64,2.38"/><path class="k" d="M322.53,392a1.74,1.74,0,0,1-2.37-.64"/><path class="k" d="M330.71,385.3a3.54,3.54,0,0,1,.46,1.74,3.49,3.49,0,0,1-1.74,3"/><path class="k" d="M323.4,393.54a3.34,3.34,0,0,1-1.74.46,3.47,3.47,0,0,1-3-1.74"/><path class="k" d="M295,376.74h0a1.74,1.74,0,0,1-1.74-1.74"/><path class="k" d="M293.25,368h0a1.74,1.74,0,0,1,1.74-1.74"/><path class="k" d="M295,378.49a3.49,3.49,0,0,1-3.47-3.5"/><path class="k" d="M291.51,368a3.48,3.48,0,0,1,3.48-3.49"/></g><polygon class="n" points="375.9 321.86 374.51 320.14 373.76 317.98 373.76 315.68 374.51 313.52 375.9 311.8 375.9 300.95 377.84 300.95 379.77 308.89 379.77 311.2 380.82 314.89 380.82 318.76 379.77 322.45 379.77 324.77 377.84 332.7 375.9 332.7 375.9 321.86"/><line class="k" x1="375.9" y1="321.86" x2="374.51" y2="320.14"/><line class="k" x1="374.51" y1="320.14" x2="373.76" y2="317.98"/><line class="k" x1="373.76" y1="317.98" x2="373.76" y2="315.67"/><line class="k" x1="373.76" y1="315.67" x2="374.51" y2="313.52"/><line class="k" x1="374.51" y1="313.52" x2="375.91" y2="311.8"/><line class="k" x1="375.9" y1="311.8" x2="375.9" y2="300.95"/><line class="k" x1="375.9" y1="300.95" x2="377.84" y2="300.95"/><line class="k" x1="377.84" y1="300.95" x2="379.77" y2="308.89"/><line class="k" x1="379.77" y1="308.89" x2="379.77" y2="311.2"/><line class="k" x1="379.77" y1="311.2" x2="380.82" y2="314.89"/><line class="k" x1="380.82" y1="314.89" x2="380.82" y2="318.76"/><line class="k" x1="380.82" y1="318.76" x2="379.77" y2="322.45"/><line class="k" x1="379.77" y1="322.45" x2="379.77" y2="324.77"/><line class="k" x1="379.77" y1="324.77" x2="377.84" y2="332.7"/><line class="k" x1="377.84" y1="332.7" x2="375.9" y2="332.7"/><line class="k" x1="375.9" y1="332.7" x2="375.9" y2="321.86"/><line class="k" x1="375.9" y1="332.7" x2="375.9" y2="300.95"/><line class="k" x1="379.77" y1="308.89" x2="379.77" y2="324.77"/><line class="k" x1="377.84" y1="332.7" x2="375.9" y2="332.7"/><line class="k" x1="376.68" y1="303.07" x2="376.68" y2="305.19"/><line class="k" x1="376.68" y1="305.19" x2="377.16" y2="305.19"/><line class="k" x1="377.16" y1="305.19" x2="377.16" y2="303.07"/><line class="k" x1="377.16" y1="303.07" x2="376.68" y2="303.07"/><line class="k" x1="376.68" y1="305.72" x2="376.68" y2="307.83"/><line class="k" x1="376.68" y1="307.83" x2="377.16" y2="307.83"/><line class="k" x1="377.16" y1="307.83" x2="377.16" y2="305.72"/><line class="k" x1="377.16" y1="305.72" x2="376.68" y2="305.72"/><line class="k" x1="377.84" y1="332.7" x2="377.84" y2="300.95"/><line class="k" x1="377.16" y1="308.36" x2="376.68" y2="308.36"/><line class="k" x1="376.68" y1="308.36" x2="376.68" y2="309.42"/><line class="k" x1="376.68" y1="309.42" x2="377.16" y2="309.42"/><line class="k" x1="377.16" y1="309.42" x2="377.16" y2="308.36"/><g class="m"><path class="k" d="M375.91,321.86a6.77,6.77,0,0,1,0-10.06"/></g><polygon class="n" points="544.25 287.35 481.58 287.35 478.92 287.88 476.66 289.38 475.15 291.64 474.62 294.31 474.62 343.04 475.15 345.71 476.66 347.97 478.92 349.48 481.58 350 533.8 350 544.25 350 544.25 287.35"/><rect class="h" x="533.8" y="275.16" width="10.44" height="12.18"/><rect class="h" x="533.8" y="350.01" width="10.44" height="12.18"/><line class="k" x1="532.67" y1="320.65" x2="535.68" y2="321.48"/><line class="k" x1="532.67" y1="291.42" x2="535.68" y2="292.25"/><line class="k" x1="474.62" y1="343.04" x2="474.62" y2="294.31"/><line class="k" x1="481.58" y1="287.34" x2="544.25" y2="287.34"/><line class="k" x1="544.25" y1="287.34" x2="544.25" y2="350"/><line class="k" x1="544.25" y1="350.01" x2="481.58" y2="350.01"/><line class="k" x1="544.25" y1="287.34" x2="544.25" y2="275.16"/><line class="k" x1="544.25" y1="275.16" x2="533.8" y2="275.16"/><line class="k" x1="533.8" y1="275.16" x2="533.8" y2="287.34"/><line class="k" x1="533.8" y1="287.34" x2="544.25" y2="287.34"/><line class="k" x1="544.25" y1="362.19" x2="544.25" y2="350.01"/><line class="k" x1="544.25" y1="350.01" x2="533.8" y2="350.01"/><line class="k" x1="533.8" y1="350.01" x2="533.8" y2="362.19"/><line class="k" x1="533.8" y1="362.19" x2="544.25" y2="362.19"/><line class="k" x1="521.09" y1="287.34" x2="521.09" y2="350"/><line class="k" x1="515.86" y1="287.34" x2="515.86" y2="350"/><g class="m"><path class="k" d="M526.71,293.35a97.35,97.35,0,0,1-.35,22.69"/><path class="k" d="M526.71,293.35a1.83,1.83,0,0,1-.05-.4,1.87,1.87,0,0,1,1.87-1.87h.09"/><path class="k" d="M528.62,291.08l.83,0a14.58,14.58,0,0,1,3.22.36"/><path class="k" d="M532.67,291.42a51.32,51.32,0,0,1,5.26-.26q1.26,0,2.52.06"/><path class="k" d="M540.45,291.22l.11,0a.4.4,0,0,1,.4.4s0,0,0,.08"/><path class="k" d="M540.61,316.11c-.16-3.15-.23-6.3-.23-9.46,0-5,.19-10,.57-15"/><path class="k" d="M540.61,316.11a1.23,1.23,0,0,1,0,.2,1,1,0,0,1-1,1,1.06,1.06,0,0,1-.31,0"/><path class="k" d="M527.35,317.05a47,47,0,0,1,12,.18"/><path class="k" d="M527.35,317.05a.83.83,0,0,1-.22,0,.8.8,0,0,1-.8-.8.88.88,0,0,1,0-.24"/><path class="k" d="M474.62,294.31a7,7,0,0,1,7-7"/><path class="k" d="M481.58,350a7,7,0,0,1-7-7"/><path class="k" d="M526.71,322.58a97.26,97.26,0,0,1-.35,22.68"/><path class="k" d="M526.71,322.58a1.83,1.83,0,0,1-.05-.4,1.87,1.87,0,0,1,1.87-1.87h.09"/><path class="k" d="M528.62,320.32c.28,0,.55,0,.83,0a14.58,14.58,0,0,1,3.22.36"/><path class="k" d="M532.67,320.65c1.75-.17,3.5-.26,5.26-.26q1.26,0,2.52.06"/><path class="k" d="M540.45,320.45l.11,0a.4.4,0,0,1,.4.4s0,.05,0,.08"/><path class="k" d="M540.61,345.34c-.16-3.15-.23-6.3-.23-9.46,0-5,.19-10,.57-15"/><path class="k" d="M540.61,345.34a1.23,1.23,0,0,1,0,.2,1,1,0,0,1-1,1,1.06,1.06,0,0,1-.31-.05"/><path class="k" d="M527.35,346.28a47,47,0,0,1,12,.18"/><path class="k" d="M527.35,346.28a.83.83,0,0,1-.22,0,.8.8,0,0,1-.8-.8,1,1,0,0,1,0-.25"/></g><line class="k" x1="378.89" y1="441.58" x2="385.85" y2="441.58"/><line class="k" x1="389.68" y1="441.58" x2="390.46" y2="441.58"/><line class="k" x1="394.29" y1="441.58" x2="395.08" y2="441.58"/><line class="k" x1="398.91" y1="441.58" x2="405.87" y2="441.58"/><line class="k" x1="409.7" y1="441.58" x2="410.22" y2="441.58"/><line class="k" x1="410.22" y1="441.58" x2="417.18" y2="441.58"/><line class="k" x1="295.73" y1="433.98" x2="295.73" y2="428.14"/><line class="k" x1="295.73" y1="428.14" x2="293.36" y2="430.06"/><line class="k" x1="293.36" y1="430.06" x2="290.99" y2="428.14"/><line class="k" x1="290.99" y1="428.14" x2="290.99" y2="433.98"/><line class="k" x1="238.11" y1="449.94" x2="552.47" y2="449.94"/><line class="k" x1="552.47" y1="449.94" x2="552.47" y2="254.99"/><line class="k" x1="552.47" y1="254.99" x2="548.12" y2="254.99"/><line class="k" x1="548.12" y1="254.99" x2="548.12" y2="168.19"/><line class="k" x1="548.12" y1="168.19" x2="242.46" y2="168.19"/><line class="k" x1="242.46" y1="168.19" x2="242.46" y2="254.99"/><line class="k" x1="242.46" y1="254.99" x2="238.11" y2="254.99"/><line class="k" x1="238.11" y1="254.99" x2="238.11" y2="449.93"/><path class="o" d="M433.1,224v7h-.72V224.6h-1.65V224Z"/><path class="o" d="M434.78,230.45a.53.53,0,0,1,.53-.54.54.54,0,0,1,.54.54.55.55,0,0,1-.54.55A.54.54,0,0,1,434.78,230.45Z"/><path class="o" d="M436.79,227.45c0-2.22,1.17-3.55,2.79-3.55s2.8,1.33,2.8,3.55-1.18,3.56-2.8,3.56S436.79,229.68,436.79,227.45Zm4.85,0c0-1.86-.84-2.89-2.06-2.89s-2.06,1-2.06,2.89.84,2.9,2.06,2.9S441.64,229.32,441.64,227.45Z"/><path class="o" d="M448.16,228.89c0,1.19-.83,2.12-2.54,2.12a3.61,3.61,0,0,1-2.51-.9l.35-.57a3,3,0,0,0,2.15.81c1.19,0,1.82-.58,1.82-1.43s-.56-1.46-2.34-1.46H443.6L444,224h3.83v.64h-3.2l-.24,2.22h.9C447.36,226.82,448.16,227.65,448.16,228.89Z"/><path class="o" d="M480.93,394.94v7h-.72v-6.35h-1.65v-.64Z"/><path class="o" d="M482.61,401.43a.53.53,0,0,1,.53-.54.54.54,0,0,1,.54.54.55.55,0,0,1-.54.55A.54.54,0,0,1,482.61,401.43Z"/><path class="o" d="M484.62,398.44c0-2.23,1.17-3.56,2.79-3.56s2.8,1.33,2.8,3.56S489,402,487.41,402,484.62,400.66,484.62,398.44Zm4.85,0c0-1.87-.84-2.9-2.06-2.9s-2.06,1-2.06,2.9.84,2.89,2.06,2.89S489.47,400.3,489.47,398.44Z"/><path class="o" d="M497.19,400.09h-1.4v1.84h-.72v-1.84h-3.95v-.52l3.71-4.63h.8l-3.58,4.51h3v-1.61h.7v1.61h1.4Z"/><path class="o" d="M433.1,316.32v7h-.72V317h-1.65v-.64Z"/><path class="o" d="M434.78,322.81a.53.53,0,0,1,.53-.54.54.54,0,0,1,.54.54.55.55,0,0,1-.54.55A.54.54,0,0,1,434.78,322.81Z"/><path class="o" d="M436.79,319.82c0-2.23,1.17-3.56,2.79-3.56s2.8,1.33,2.8,3.56-1.18,3.55-2.8,3.55S436.79,322,436.79,319.82Zm4.85,0c0-1.87-.84-2.9-2.06-2.9s-2.06,1-2.06,2.9.84,2.89,2.06,2.89S441.64,321.68,441.64,319.82Z"/><path class="o" d="M448,321.3c0,1.17-.85,2.07-2.54,2.07a3.64,3.64,0,0,1-2.52-.9l.35-.57a3.07,3.07,0,0,0,2.17.81c1.16,0,1.8-.54,1.8-1.41s-.59-1.39-1.89-1.39h-.5v-.52l1.94-2.43h-3.58v-.64h4.5v.51l-2,2.49C447.2,319.4,448,320.19,448,321.3Z"/><path class="o" d="M326,316.32v7h-.72V317H323.6v-.64Z"/><path class="o" d="M327.65,322.81a.53.53,0,0,1,.53-.54.54.54,0,0,1,.54.54.55.55,0,0,1-.54.55A.54.54,0,0,1,327.65,322.81Z"/><path class="o" d="M329.66,319.82c0-2.23,1.17-3.56,2.79-3.56s2.8,1.33,2.8,3.56-1.18,3.55-2.8,3.55S329.66,322,329.66,319.82Zm4.85,0c0-1.87-.84-2.9-2.06-2.9s-2.06,1-2.06,2.9.84,2.89,2.06,2.89S334.51,321.68,334.51,319.82Z"/><path class="o" d="M341.05,322.67v.64h-4.91v-.51l2.91-2.85c.79-.77.94-1.24.94-1.72,0-.81-.57-1.31-1.64-1.31a2.38,2.38,0,0,0-1.91.78l-.51-.44a3.15,3.15,0,0,1,2.48-1c1.42,0,2.32.72,2.32,1.89a2.85,2.85,0,0,1-1.15,2.18l-2.38,2.34Z"/><path class="o" d="M404.92,394.94v7h-.72v-6.35h-1.65v-.64Z"/><path class="o" d="M406.6,401.43a.53.53,0,0,1,.53-.54.54.54,0,0,1,.54.54.55.55,0,0,1-.54.55A.54.54,0,0,1,406.6,401.43Z"/><path class="o" d="M408.61,398.44c0-2.23,1.17-3.56,2.79-3.56s2.8,1.33,2.8,3.56S413,402,411.4,402,408.61,400.66,408.61,398.44Zm4.85,0c0-1.87-.84-2.9-2.06-2.9s-2.06,1-2.06,2.9.84,2.89,2.06,2.89S413.46,400.3,413.46,398.44Z"/><path class="o" d="M417.16,394.94v7h-.72v-6.35h-1.65v-.64Z"/></svg>