<svg xmlns="http://www.w3.org/2000/svg" xmlns:xlink="http://www.w3.org/1999/xlink" viewBox="0 0 790.58 618.13"><defs><style>.a,.f{fill:none;}.b{fill:#595a5c;}.c{fill:#b6906c;}.d{fill:#fff;}.e{fill:#231f20;}.f{stroke:#000;stroke-linecap:round;stroke-linejoin:round;stroke-width:0.35px;}.g{clip-path:url(#a);}.h{fill:#58595b;}</style><clipPath id="a"><polygon class="a" points="364.52 169.08 290.44 169.08 194.46 169.08 194.46 362.64 196.33 362.64 196.33 449.05 592.65 449.05 592.65 362.64 596.12 362.64 596.12 169.08 364.52 169.08"/></clipPath></defs><path class="b" d="M55.31,597.13H57.1V609.9H55.31Zm.92,6.11h4.09a1.89,1.89,0,0,0,1-.27,1.82,1.82,0,0,0,.68-.77,2.67,2.67,0,0,0,.24-1.16,2.7,2.7,0,0,0-.24-1.16,1.82,1.82,0,0,0-1.7-1H56.23v-1.7h4a4.09,4.09,0,0,1,2,.48A3.45,3.45,0,0,1,63.62,599a4.64,4.64,0,0,1,0,4.11,3.34,3.34,0,0,1-1.35,1.36,4,4,0,0,1-2,.49h-4Z"/><path class="b" d="M67.7,606.33a2.07,2.07,0,0,0,.49,1.48,1.76,1.76,0,0,0,1.37.52,1.89,1.89,0,0,0,1.37-.46,1.79,1.79,0,0,0,.48-1.33l.12,1.91A2.58,2.58,0,0,1,69.06,610a2.89,2.89,0,0,1-2.33-1,4.08,4.08,0,0,1-.82-2.73v-5.55H67.7Zm.22-7.86a1.93,1.93,0,0,1-.56-1.5,2.07,2.07,0,0,1,.56-1.57,2.56,2.56,0,0,1,3.18,0,2.08,2.08,0,0,1,.57,1.56,1.94,1.94,0,0,1-.57,1.5,2.65,2.65,0,0,1-3.18,0Zm2.26-.86a.94.94,0,0,0,.24-.68,1,1,0,0,0-.24-.7.91.91,0,0,0-.67-.25.92.92,0,0,0-.67.25,1,1,0,0,0-.23.7,1,1,0,0,0,.23.68.92.92,0,0,0,.67.24A.9.9,0,0,0,70.18,597.61Zm1.23,3.17h1.78v9.12H71.41Z"/><path class="b" d="M77.1,609.63A2.82,2.82,0,0,1,76,608.36a5.08,5.08,0,0,1-.36-2v-2a5.05,5.05,0,0,1,.36-2,2.71,2.71,0,0,1,1-1.27,3,3,0,0,1,1.65-.44,2.71,2.71,0,0,1,1.48.42,3.22,3.22,0,0,1,1.09,1.19l-.18,1.86a2.19,2.19,0,0,0-.22-1,1.48,1.48,0,0,0-.61-.63,2,2,0,0,0-1-.21,1.71,1.71,0,0,0-1.37.55,2.26,2.26,0,0,0-.49,1.56v2a2.19,2.19,0,0,0,.49,1.54,1.74,1.74,0,0,0,1.37.54,1.93,1.93,0,0,0,1-.23,1.45,1.45,0,0,0,.61-.64,2.25,2.25,0,0,0,.22-1l.12,1.92a2.66,2.66,0,0,1-.89,1.14,2.56,2.56,0,0,1-1.53.45A3.19,3.19,0,0,1,77.1,609.63Zm4-12.5H82.9V609.9H81.11Z"/><path class="b" d="M87.09,609.57a3.09,3.09,0,0,1-1.29-1.36,4.85,4.85,0,0,1-.44-2.15v-1.48a4.71,4.71,0,0,1,.44-2.12,3.12,3.12,0,0,1,1.29-1.35,4.71,4.71,0,0,1,4.06,0,3.12,3.12,0,0,1,1.29,1.35,4.71,4.71,0,0,1,.44,2.12v1.51a4.79,4.79,0,0,1-.44,2.13,3.12,3.12,0,0,1-1.29,1.35,4.62,4.62,0,0,1-4.06,0Zm3.49-1.83a2.43,2.43,0,0,0,.51-1.65v-1.51a2.43,2.43,0,0,0-.51-1.65,1.88,1.88,0,0,0-1.46-.58,1.85,1.85,0,0,0-1.45.58,2.38,2.38,0,0,0-.52,1.65v1.51a2.38,2.38,0,0,0,.52,1.65,1.82,1.82,0,0,0,1.45.59A1.85,1.85,0,0,0,90.58,607.74Z"/><path class="b" d="M95.43,600.78h1.79v9.12H95.43Zm4.42,1.72a2.16,2.16,0,0,0-.83-.15,1.83,1.83,0,0,0-1.33.47,1.79,1.79,0,0,0-.47,1.31L97,602.37a3.32,3.32,0,0,1,1.09-1.27,2.58,2.58,0,0,1,1.48-.45,3.39,3.39,0,0,1,1.13.18,2.62,2.62,0,0,1,.88.53l-1.17,1.58A1.56,1.56,0,0,0,99.85,602.5Z"/><path class="b" d="M102.15,600.78H104l2.81,7.93-1,1.94Zm8.07,0L106.34,612a2.6,2.6,0,0,1-.56,1,1.87,1.87,0,0,1-.84.52,4,4,0,0,1-1.23.16h-.36V612h.36a1.46,1.46,0,0,0,.8-.2,1.74,1.74,0,0,0,.51-.7l3.38-10.31Z"/><path class="b" d="M113.51,609.88a5.76,5.76,0,0,1-1.32-.48,4.89,4.89,0,0,1-1.13-.79l1.06-1.31a5.86,5.86,0,0,0,1.47.85,4.18,4.18,0,0,0,1.44.28,3.11,3.11,0,0,0,1.6-.33,1.1,1.1,0,0,0,.53-1,.79.79,0,0,0-.29-.66,1.66,1.66,0,0,0-.72-.29c-.29,0-.69-.1-1.22-.14h-.15l-.14,0h-.15a6.45,6.45,0,0,1-1.5-.26,2,2,0,0,1-1-.7,2.38,2.38,0,0,1-.41-1.49,3.07,3.07,0,0,1,.39-1.61,2.41,2.41,0,0,1,1.18-1,5.29,5.29,0,0,1,2-.32,6.38,6.38,0,0,1,2.6.52,6.16,6.16,0,0,1,1.13.66l-1.08,1.31a5.59,5.59,0,0,0-1.35-.66,4,4,0,0,0-1.3-.22,2.44,2.44,0,0,0-1.37.31,1.08,1.08,0,0,0-.46.94.64.64,0,0,0,.26.55,1.72,1.72,0,0,0,.66.25c.26,0,.64.07,1.12.1h.34a7.67,7.67,0,0,1,1.63.25,2.24,2.24,0,0,1,1.13.77,2.62,2.62,0,0,1,.45,1.65,2.92,2.92,0,0,1-.42,1.63,2.54,2.54,0,0,1-1.27,1A5.88,5.88,0,0,1,115,610,7.38,7.38,0,0,1,113.51,609.88Z"/><path class="b" d="M126,597.13h1.8V609.9H126Zm2.6,12.5a2.39,2.39,0,0,1-.93-1.16l.13-1.91a2.22,2.22,0,0,0,.21,1,1.48,1.48,0,0,0,.61.63,1.93,1.93,0,0,0,1,.22,1.74,1.74,0,0,0,1.37-.54,2.18,2.18,0,0,0,.49-1.53v-2a2.26,2.26,0,0,0-.49-1.56,1.71,1.71,0,0,0-1.37-.55,2,2,0,0,0-1,.21,1.36,1.36,0,0,0-.61.62,2.12,2.12,0,0,0-.21,1l-.19-1.76a3.37,3.37,0,0,1,1.08-1.24,2.67,2.67,0,0,1,1.49-.43,3,3,0,0,1,1.65.43,2.9,2.9,0,0,1,1.06,1.27,5.1,5.1,0,0,1,.36,2v2a4.94,4.94,0,0,1-.37,2,2.79,2.79,0,0,1-1.08,1.26,3.25,3.25,0,0,1-1.71.44A2.73,2.73,0,0,1,128.57,609.63Z"/><path class="b" d="M134.46,600.78h1.82l2.81,7.93-1,1.94Zm8.07,0L138.65,612a2.6,2.6,0,0,1-.56,1,1.87,1.87,0,0,1-.84.52,4,4,0,0,1-1.23.16h-.36V612H136a1.46,1.46,0,0,0,.8-.2,1.74,1.74,0,0,0,.51-.7l3.37-10.31Z"/><path class="b" d="M143.57,600.78h4.12v1.62h-4.12Zm1.46,8.56a2.77,2.77,0,0,1-.52-1.81v-9.4h1.8v9.42a.84.84,0,0,0,.13.51.46.46,0,0,0,.39.18h.86V610h-1A2,2,0,0,1,145,609.34Z"/><path class="b" d="M151.94,606.33a2.07,2.07,0,0,0,.49,1.48,1.76,1.76,0,0,0,1.37.52,1.91,1.91,0,0,0,1.37-.46,1.79,1.79,0,0,0,.48-1.33l.12,1.91A2.58,2.58,0,0,1,153.3,610a2.89,2.89,0,0,1-2.33-1,4.08,4.08,0,0,1-.82-2.73v-5.55h1.79Zm3.71-5.55h1.78v9.12h-1.78Z"/><rect class="c" x="612.92" y="591.68" width="35.43" height="2.83"/><path class="d" d="M648.48,594.64H612.79v-3.08h35.69ZM613,594.39h35.19v-2.58H613Z"/><rect class="c" x="612.92" y="601.6" width="70.74" height="2.83"/><path class="d" d="M683.78,604.56h-71v-3.08h71ZM613,604.31h70.49v-2.58H613Z"/><rect class="c" x="612.92" y="612.72" width="177.16" height="2.84"/><path class="d" d="M790.21,615.68H612.79V612.6H790.21ZM613,615.43H790v-2.58H613Z"/><path class="e" d="M587.26,596.28h-.8v-4.82l-.81.5v-.83l.81-.53h.8Z"/><path class="e" d="M589,595.91a1.67,1.67,0,0,1-.41-1.19v-2.58A1.65,1.65,0,0,1,589,591a2,2,0,0,1,2.42,0,1.65,1.65,0,0,1,.41,1.19v2.58a1.65,1.65,0,0,1-.41,1.19,2,2,0,0,1-2.42,0Zm1.83-.55a.89.89,0,0,0,.2-.64v-2.58a.89.89,0,0,0-.2-.64.82.82,0,0,0-.62-.22.86.86,0,0,0-.63.22.94.94,0,0,0-.2.64v2.58a.9.9,0,0,0,.21.64,1,1,0,0,0,1.24,0Z"/><path class="e" d="M593.22,595.91a1.67,1.67,0,0,1-.41-1.19v-2.58a1.65,1.65,0,0,1,.41-1.19,2,2,0,0,1,2.42,0,1.61,1.61,0,0,1,.41,1.19v2.58a1.65,1.65,0,0,1-.41,1.19,2,2,0,0,1-2.42,0Zm1.83-.55a.9.9,0,0,0,.21-.64v-2.58a.94.94,0,0,0-.2-.64.86.86,0,0,0-.63-.22.82.82,0,0,0-.62.22.89.89,0,0,0-.2.64v2.58a.89.89,0,0,0,.2.64,1,1,0,0,0,1.24,0Z"/><path class="e" d="M600.1,596.13a1.45,1.45,0,0,1-.6-.6,2.06,2.06,0,0,1-.21-1v-.67a2,2,0,0,1,.21-.94,1.37,1.37,0,0,1,.6-.59,2,2,0,0,1,.95-.21,2.21,2.21,0,0,1,.59.08,1.68,1.68,0,0,1,.51.22,1.54,1.54,0,0,1,.37.35l-.58.52a1.17,1.17,0,0,0-.4-.3,1.13,1.13,0,0,0-.48-.11.94.94,0,0,0-.71.26,1,1,0,0,0-.26.72v.67a1,1,0,0,0,.25.74.94.94,0,0,0,.72.27,1,1,0,0,0,.48-.12,1,1,0,0,0,.4-.32l.58.56a1.38,1.38,0,0,1-.38.34,1.62,1.62,0,0,1-.5.22,2.27,2.27,0,0,1-.59.07A2.12,2.12,0,0,1,600.1,596.13Z"/><path class="e" d="M603.4,592.22h.79v4.06h-.79Zm2.42,1.6a1,1,0,0,0-.21-.67.78.78,0,0,0-.6-.23.81.81,0,0,0-.6.21.73.73,0,0,0-.22.58l-.08-.78a1.46,1.46,0,0,1,.49-.57,1.22,1.22,0,0,1,.67-.2,1.33,1.33,0,0,1,.73.2,1.18,1.18,0,0,1,.46.56,2.4,2.4,0,0,1,.15.89v2.47h-.79Zm2.42,0a.93.93,0,0,0-.22-.67.85.85,0,0,0-.63-.23.72.72,0,0,0-.57.23.9.9,0,0,0-.21.64l-.16-.78a1.61,1.61,0,0,1,.51-.63,1.23,1.23,0,0,1,.69-.22,1.37,1.37,0,0,1,.75.2,1.09,1.09,0,0,1,.47.56,2.21,2.21,0,0,1,.17.89v2.47h-.8Z"/><path class="e" d="M584.33,605.5l2-2.64a1.85,1.85,0,0,0,.27-.47,1.29,1.29,0,0,0,.09-.45h0a.67.67,0,0,0-.2-.53.81.81,0,0,0-.56-.19.76.76,0,0,0-.56.21,1,1,0,0,0-.27.58h-.82a2,2,0,0,1,.29-.83,1.42,1.42,0,0,1,.56-.53,1.67,1.67,0,0,1,.79-.18,1.93,1.93,0,0,1,.87.17,1.21,1.21,0,0,1,.54.51,1.55,1.55,0,0,1,.19.8h0a1.84,1.84,0,0,1-.12.63,2.8,2.8,0,0,1-.35.63l-1.65,2.24h2.15v.76h-3.2Z"/><path class="e" d="M589,605.83a1.67,1.67,0,0,1-.41-1.19v-2.58a1.65,1.65,0,0,1,.41-1.19,2,2,0,0,1,2.42,0,1.65,1.65,0,0,1,.41,1.19v2.58a1.65,1.65,0,0,1-.41,1.19,2,2,0,0,1-2.42,0Zm1.83-.55a.89.89,0,0,0,.2-.64v-2.58a.89.89,0,0,0-.2-.64.82.82,0,0,0-.62-.22.86.86,0,0,0-.63.22.94.94,0,0,0-.19.64v2.58a.89.89,0,0,0,.2.64,1,1,0,0,0,1.24,0Z"/><path class="e" d="M593.22,605.83a1.67,1.67,0,0,1-.41-1.19v-2.58a1.61,1.61,0,0,1,.42-1.19,1.59,1.59,0,0,1,1.2-.42,1.45,1.45,0,0,1,1.62,1.61v2.58a1.61,1.61,0,0,1-.41,1.19,2,2,0,0,1-2.42,0Zm1.84-.55a.94.94,0,0,0,.2-.64v-2.58a.94.94,0,0,0-.2-.64.84.84,0,0,0-.63-.22.82.82,0,0,0-.62.22.89.89,0,0,0-.2.64v2.58a.89.89,0,0,0,.2.64.82.82,0,0,0,.62.22A.86.86,0,0,0,595.06,605.28Z"/><path class="e" d="M600.1,606.05a1.45,1.45,0,0,1-.6-.6,2.06,2.06,0,0,1-.2-1v-.67a2,2,0,0,1,.2-.94,1.37,1.37,0,0,1,.6-.59,2,2,0,0,1,.95-.21,2.35,2.35,0,0,1,.6.08,1.73,1.73,0,0,1,.5.22,1.38,1.38,0,0,1,.37.35l-.58.52a1.08,1.08,0,0,0-.4-.3,1.13,1.13,0,0,0-.48-.11,1,1,0,0,0-.71.26,1,1,0,0,0-.26.72v.67a1,1,0,0,0,.25.74.94.94,0,0,0,.72.27,1.14,1.14,0,0,0,.88-.44l.58.56a1.38,1.38,0,0,1-.38.34,1.62,1.62,0,0,1-.5.22,2.22,2.22,0,0,1-.59.07A2.12,2.12,0,0,1,600.1,606.05Z"/><path class="e" d="M603.4,602.14h.79v4.06h-.79Zm2.42,1.6a1,1,0,0,0-.21-.67.78.78,0,0,0-.6-.23.81.81,0,0,0-.6.21.73.73,0,0,0-.22.58l-.08-.78a1.46,1.46,0,0,1,.49-.57,1.22,1.22,0,0,1,.67-.2,1.3,1.3,0,0,1,.73.2,1.18,1.18,0,0,1,.46.56,2.4,2.4,0,0,1,.16.89v2.47h-.8Zm2.42,0a.93.93,0,0,0-.22-.67.85.85,0,0,0-.63-.23.73.73,0,0,0-.57.23.89.89,0,0,0-.2.64l-.16-.78a1.51,1.51,0,0,1,.5-.63,1.23,1.23,0,0,1,.69-.22,1.35,1.35,0,0,1,.75.2,1.16,1.16,0,0,1,.48.56,2.4,2.4,0,0,1,.16.89v2.47h-.8Z"/><path class="e" d="M585,615.58a1.34,1.34,0,0,1-.54-.49,2,2,0,0,1-.28-.77h.8a.75.75,0,0,0,.25.49.85.85,0,0,0,.54.17.72.72,0,0,0,.59-.25,1.1,1.1,0,0,0,.21-.72v-.48a1.1,1.1,0,0,0-.21-.72.72.72,0,0,0-.59-.25.83.83,0,0,0-.4.11,1.18,1.18,0,0,0-.34.33h-.72v-3h2.89v.76h-2.1V612a1,1,0,0,1,.34-.18.94.94,0,0,1,.37-.07,1.68,1.68,0,0,1,.84.2,1.29,1.29,0,0,1,.53.6,2.07,2.07,0,0,1,.19.94V614a2.25,2.25,0,0,1-.19.94,1.31,1.31,0,0,1-.55.59,1.69,1.69,0,0,1-.86.21A1.74,1.74,0,0,1,585,615.58Z"/><path class="e" d="M589,615.32a1.65,1.65,0,0,1-.41-1.19v-2.58a1.67,1.67,0,0,1,.41-1.19,2,2,0,0,1,2.42,0,1.65,1.65,0,0,1,.41,1.19v2.58a1.64,1.64,0,0,1-.41,1.19,1.92,1.92,0,0,1-2.42,0Zm1.83-.55a.89.89,0,0,0,.2-.64v-2.58a.88.88,0,0,0-.2-.63.78.78,0,0,0-.62-.22.82.82,0,0,0-.63.22.93.93,0,0,0-.2.63v2.58a.9.9,0,0,0,.21.64,1,1,0,0,0,1.24,0Z"/><path class="e" d="M593.22,615.32a1.65,1.65,0,0,1-.41-1.19v-2.58a1.67,1.67,0,0,1,.41-1.19,2,2,0,0,1,2.42,0,1.61,1.61,0,0,1,.41,1.19v2.58a1.64,1.64,0,0,1-.41,1.19,1.92,1.92,0,0,1-2.42,0Zm1.83-.55a.9.9,0,0,0,.21-.64v-2.58a.93.93,0,0,0-.2-.63.82.82,0,0,0-.63-.22.78.78,0,0,0-.62.22.88.88,0,0,0-.2.63v2.58a.89.89,0,0,0,.2.64,1,1,0,0,0,1.24,0Z"/><path class="e" d="M600.1,615.54a1.45,1.45,0,0,1-.6-.6,2,2,0,0,1-.21-1v-.67a2,2,0,0,1,.21-.94,1.45,1.45,0,0,1,.6-.6,2,2,0,0,1,.95-.2,2.22,2.22,0,0,1,.59.07,2,2,0,0,1,.51.22,1.76,1.76,0,0,1,.37.35l-.58.52a1.17,1.17,0,0,0-.4-.3,1.13,1.13,0,0,0-.48-.11.94.94,0,0,0-.71.26,1,1,0,0,0-.26.73V614a1.07,1.07,0,0,0,.25.74,1,1,0,0,0,.72.26,1.13,1.13,0,0,0,.48-.11,1.26,1.26,0,0,0,.4-.32l.58.55a1.42,1.42,0,0,1-.38.35,1.88,1.88,0,0,1-.5.21,2.27,2.27,0,0,1-.59.08A2,2,0,0,1,600.1,615.54Z"/><path class="e" d="M603.4,611.63h.79v4.06h-.79Zm2.42,1.6a1,1,0,0,0-.21-.66.75.75,0,0,0-.6-.24.81.81,0,0,0-.6.21.75.75,0,0,0-.22.58l-.08-.78a1.5,1.5,0,0,1,.49-.56,1.15,1.15,0,0,1,.67-.2,1.32,1.32,0,0,1,.73.19,1.28,1.28,0,0,1,.46.56,2.42,2.42,0,0,1,.15.9v2.46h-.79Zm2.42,0a.91.91,0,0,0-.22-.66.82.82,0,0,0-.63-.24.72.72,0,0,0-.57.23.9.9,0,0,0-.21.64l-.16-.78a1.51,1.51,0,0,1,.51-.62,1.16,1.16,0,0,1,.69-.22,1.37,1.37,0,0,1,.75.19,1.18,1.18,0,0,1,.47.56,2.22,2.22,0,0,1,.17.9v2.46h-.8Z"/><path class="c" d="M23.49,613.89A12.92,12.92,0,1,1,36.4,601,12.93,12.93,0,0,1,23.49,613.89Zm0-24.83A11.92,11.92,0,1,0,35.4,601,11.93,11.93,0,0,0,23.49,589.06Z"/><polygon class="d" points="35.77 588.74 9.42 600.98 35.77 613.21 32.02 600.98 35.77 588.74"/><path class="c" d="M36.58,614.14,8.23,601l28.35-13.17-4,13.17ZM10.61,601,35,612.29,31.5,601,35,589.66Z"/><path class="c" d="M2.52,605.19a5,5,0,0,1-1.11-.38,4.4,4.4,0,0,1-1-.64l.81-1a3.72,3.72,0,0,0,1.16.69,4.08,4.08,0,0,0,1.38.23,2.73,2.73,0,0,0,1.55-.38,1.17,1.17,0,0,0,.55-1.05h0a1.12,1.12,0,0,0-.25-.77,1.44,1.44,0,0,0-.64-.42,8.23,8.23,0,0,0-1-.25H3.89l-.1,0a9.48,9.48,0,0,1-1.5-.36,2.08,2.08,0,0,1-1-.73,2.42,2.42,0,0,1-.41-1.51h0a2.77,2.77,0,0,1,.38-1.47,2.44,2.44,0,0,1,1.12-.92,4.48,4.48,0,0,1,1.77-.32,4.6,4.6,0,0,1,1,.11,4.9,4.9,0,0,1,1.86.86l-.73,1a4.61,4.61,0,0,0-1-.58,3,3,0,0,0-1.06-.2,2.44,2.44,0,0,0-1.46.38,1.24,1.24,0,0,0-.53,1.07h0a1,1,0,0,0,.27.75,1.74,1.74,0,0,0,.67.4,9.3,9.3,0,0,0,1.12.27h.24a7.93,7.93,0,0,1,1.4.41,2.22,2.22,0,0,1,.94.76,2.4,2.4,0,0,1,.38,1.43h0a2.62,2.62,0,0,1-.4,1.45,2.54,2.54,0,0,1-1.16.91,4.8,4.8,0,0,1-1.83.31A6.44,6.44,0,0,1,2.52,605.19Z"/><rect class="c" x="612.5" y="600.68" width="1" height="4.68"/><rect class="c" x="612.5" y="590.76" width="1" height="4.68"/><rect class="c" x="612.5" y="611.45" width="1" height="5.24"/><rect class="c" x="789.58" y="611.45" width="1" height="5.24"/><rect class="c" x="682.59" y="600.68" width="1" height="4.68"/><rect class="c" x="647.3" y="590.76" width="1" height="4.68"/><rect class="a" width="790.34" height="618.13"/><polygon class="d" points="276.32 243.74 276.32 198.11 276.32 177.38 385.86 177.38 385.86 198.46 297.53 198.46 297.53 243.74 276.32 243.74"/><line class="f" x1="385.86" y1="177.38" x2="385.86" y2="198.46"/><line class="f" x1="385.86" y1="198.46" x2="297.53" y2="198.46"/><line class="f" x1="297.53" y1="198.46" x2="297.53" y2="243.74"/><line class="f" x1="297.53" y1="243.74" x2="276.32" y2="243.74"/><line class="f" x1="276.32" y1="243.74" x2="276.32" y2="198.11"/><line class="f" x1="276.32" y1="198.11" x2="276.32" y2="177.38"/><line class="f" x1="276.32" y1="177.38" x2="385.86" y2="177.38"/><rect class="d" x="403.95" y="177.37" width="20.86" height="22.47"/><line class="f" x1="403.95" y1="199.84" x2="424.81" y2="199.84"/><line class="f" x1="403.95" y1="177.38" x2="403.95" y2="199.84"/><line class="f" x1="424.81" y1="177.38" x2="403.95" y2="177.38"/><line class="f" x1="424.81" y1="199.84" x2="424.81" y2="177.38"/><rect class="d" x="261.71" y="272.42" width="12.17" height="65.67"/><line class="f" x1="273.88" y1="338.1" x2="261.71" y2="338.1"/><line class="f" x1="261.71" y1="338.1" x2="261.71" y2="272.43"/><line class="f" x1="261.71" y1="272.42" x2="273.88" y2="272.42"/><line class="f" x1="273.88" y1="272.42" x2="273.88" y2="338.1"/><rect class="d" x="262.41" y="198.11" width="11.48" height="43.2"/><line class="f" x1="273.88" y1="241.32" x2="262.41" y2="241.32"/><line class="f" x1="262.41" y1="241.32" x2="262.41" y2="198.11"/><line class="f" x1="262.41" y1="198.11" x2="273.88" y2="198.11"/><line class="f" x1="273.88" y1="198.11" x2="273.88" y2="241.32"/><line class="f" x1="504.28" y1="169.08" x2="504.28" y2="169.08"/><line class="f" x1="504.28" y1="169.08" x2="596.12" y2="169.08"/><line class="f" x1="389.34" y1="194.66" x2="397.71" y2="191.19"/><line class="f" x1="397.71" y1="191.19" x2="401.51" y2="177.38"/><line class="f" x1="401.51" y1="177.38" x2="401.51" y2="194.66"/><line class="f" x1="401.51" y1="194.66" x2="389.34" y2="194.66"/><line class="f" x1="467.59" y1="192.93" x2="487.45" y2="189.57"/><line class="f" x1="487.45" y1="189.57" x2="491.93" y2="177.38"/><line class="f" x1="491.93" y1="177.38" x2="491.93" y2="192.93"/><line class="f" x1="491.93" y1="192.93" x2="467.59" y2="192.93"/><rect x="398.03" y="355.72" width="55.64" height="6.91"/><rect x="258.93" y="355.72" width="38.25" height="6.91"/><rect x="202.94" y="348.81" width="22.95" height="6.91"/><rect x="260.67" y="348.81" width="34.78" height="6.91"/><rect x="399.77" y="348.81" width="52.16" height="6.91"/><polygon points="203.29 449.05 203.29 355.72 227.63 355.72 227.63 362.64 208.5 362.64 208.5 449.05 203.29 449.05"/><polygon points="587.91 348.81 587.91 177.38 464.11 177.38 464.11 169.08 500.28 169.08 508.62 169.08 596.12 169.08 596.12 348.81 587.91 348.81"/><polygon points="196.33 449.05 196.33 445.59 196.33 438.68 196.33 374.74 196.33 362.64 194.59 362.64 194.59 177.72 194.46 177.72 194.46 169.08 290.44 169.08 364.52 169.08 425.86 169.08 425.86 177.38 203.29 177.38 203.29 449.05 196.33 449.05"/><rect x="425.85" y="169.08" width="1.74" height="3.98"/><rect x="462.37" y="169.08" width="1.74" height="3.98"/><rect x="491.93" y="177.38" width="2.43" height="29.38"/><rect x="411.94" y="245.47" width="6.95" height="103.35"/><rect x="203.29" y="241.32" width="24.34" height="2.42"/><polygon points="258.93 243.74 258.93 241.32 273.88 241.32 273.88 177.38 276.32 177.38 276.32 243.74 258.93 243.74"/><polygon points="484.98 245.47 484.98 243.05 491.93 243.05 491.93 234.41 494.36 234.41 494.36 243.05 587.91 243.05 587.91 245.47 484.98 245.47"/><rect x="273.88" y="271.39" width="2.43" height="77.42"/><polygon points="401.51 245.47 401.51 234.41 403.95 234.41 403.95 243.05 453.68 243.05 453.68 245.47 401.51 245.47"/><rect x="401.51" y="177.38" width="2.43" height="25.92"/><polygon points="385.86 198.11 385.86 177.38 389.34 177.38 389.34 194.66 401.51 194.66 401.51 198.11 385.86 198.11"/><polygon points="464.11 196.38 464.11 177.38 467.59 177.38 467.59 192.93 491.93 192.93 491.93 196.38 464.11 196.38"/><line class="f" x1="425.85" y1="177.38" x2="404.99" y2="177.38"/><line class="f" x1="453.68" y1="362.64" x2="398.03" y2="362.64"/><line class="f" x1="297.18" y1="362.64" x2="258.93" y2="362.64"/><line class="f" x1="227.63" y1="362.64" x2="208.5" y2="362.64"/><line class="f" x1="411.94" y1="348.81" x2="399.77" y2="348.81"/><line class="f" x1="295.44" y1="348.81" x2="276.32" y2="348.81"/><line class="f" x1="273.88" y1="348.81" x2="260.67" y2="348.81"/><line class="f" x1="225.89" y1="348.81" x2="203.29" y2="348.81"/><line class="f" x1="451.94" y1="348.81" x2="451.94" y2="355.72"/><line class="f" x1="399.77" y1="348.81" x2="399.77" y2="355.72"/><line class="f" x1="295.44" y1="348.81" x2="295.44" y2="355.72"/><line class="f" x1="382.38" y1="177.38" x2="276.32" y2="177.38"/><line class="f" x1="273.88" y1="177.38" x2="203.29" y2="177.38"/><line class="f" x1="290.44" y1="169.08" x2="194.46" y2="169.08"/><line class="f" x1="364.52" y1="169.08" x2="290.44" y2="169.08"/><line class="f" x1="427.59" y1="169.08" x2="364.52" y2="169.08"/><line class="f" x1="425.85" y1="173.05" x2="425.85" y2="177.38"/><line class="f" x1="451.94" y1="348.81" x2="418.9" y2="348.81"/><line class="f" x1="260.67" y1="348.81" x2="260.67" y2="355.72"/><line class="f" x1="225.89" y1="348.81" x2="225.89" y2="355.72"/><line class="f" x1="398.03" y1="355.72" x2="398.03" y2="362.64"/><line class="f" x1="399.77" y1="355.72" x2="398.03" y2="355.72"/><line class="f" x1="258.93" y1="355.72" x2="258.93" y2="362.64"/><line class="f" x1="260.67" y1="355.72" x2="258.93" y2="355.72"/><line class="f" x1="453.68" y1="355.72" x2="453.68" y2="362.64"/><line class="f" x1="453.68" y1="355.72" x2="451.94" y2="355.72"/><line class="f" x1="297.18" y1="355.72" x2="297.18" y2="362.64"/><line class="f" x1="297.18" y1="355.72" x2="295.44" y2="355.72"/><line class="f" x1="227.63" y1="355.72" x2="227.63" y2="362.64"/><line class="f" x1="227.63" y1="355.72" x2="225.89" y2="355.72"/><line class="f" x1="208.5" y1="362.64" x2="208.5" y2="449.05"/><line class="f" x1="203.29" y1="348.81" x2="203.29" y2="243.74"/><line class="f" x1="203.29" y1="241.32" x2="203.29" y2="177.38"/><line class="f" x1="208.5" y1="362.64" x2="208.5" y2="449.05"/><line class="f" x1="196.33" y1="374.73" x2="196.33" y2="438.68"/><line class="f" x1="194.59" y1="177.72" x2="194.59" y2="362.64"/><line class="f" x1="194.46" y1="177.72" x2="194.59" y2="177.72"/><line class="f" x1="425.85" y1="177.38" x2="403.95" y2="177.38"/><line class="f" x1="587.91" y1="177.38" x2="495.41" y2="177.38"/><line class="f" x1="385.86" y1="177.38" x2="276.32" y2="177.38"/><line class="f" x1="272.84" y1="177.38" x2="203.29" y2="177.38"/><line class="f" x1="596.12" y1="169.08" x2="508.62" y2="169.08"/><line class="f" x1="500.28" y1="169.08" x2="464.11" y2="169.08"/><line class="f" x1="290.44" y1="169.08" x2="194.46" y2="169.08"/><line class="f" x1="364.52" y1="169.08" x2="290.44" y2="169.08"/><line class="f" x1="427.59" y1="169.08" x2="364.52" y2="169.08"/><line class="f" x1="464.11" y1="169.08" x2="462.37" y2="169.08"/><line class="f" x1="462.37" y1="173.05" x2="462.37" y2="169.08"/><line class="f" x1="427.59" y1="173.05" x2="427.59" y2="169.08"/><line class="f" x1="462.37" y1="173.05" x2="464.11" y2="173.05"/><line class="f" x1="464.11" y1="173.05" x2="464.11" y2="177.38"/><line class="f" x1="427.59" y1="173.05" x2="425.86" y2="173.05"/><line class="f" x1="425.85" y1="173.05" x2="425.85" y2="177.38"/><line class="f" x1="427.59" y1="169.08" x2="425.86" y2="169.08"/><line class="f" x1="508.62" y1="169.08" x2="508.62" y2="169.08"/><line class="f" x1="500.28" y1="169.08" x2="500.28" y2="169.08"/><line class="f" x1="194.46" y1="231.29" x2="194.59" y2="231.29"/><line class="f" x1="194.46" y1="241.66" x2="194.59" y2="241.66"/><line class="f" x1="194.46" y1="252.03" x2="194.59" y2="252.03"/><line class="f" x1="194.46" y1="262.4" x2="194.59" y2="262.4"/><line class="f" x1="194.46" y1="272.77" x2="194.59" y2="272.77"/><line class="f" x1="194.46" y1="283.14" x2="194.59" y2="283.14"/><line class="f" x1="194.46" y1="293.51" x2="194.59" y2="293.51"/><line class="f" x1="194.46" y1="303.88" x2="194.59" y2="303.88"/><line class="f" x1="194.46" y1="314.25" x2="194.59" y2="314.25"/><line class="f" x1="258.93" y1="362.64" x2="227.63" y2="362.64"/><line class="f" x1="260.67" y1="348.81" x2="225.89" y2="348.81"/><line class="f" x1="297.18" y1="362.64" x2="366.74" y2="362.64"/><line class="f" x1="295.44" y1="348.81" x2="365" y2="348.81"/><line class="f" x1="365" y1="348.81" x2="365" y2="355.72"/><line class="f" x1="365" y1="348.81" x2="399.77" y2="348.81"/><line class="f" x1="366.74" y1="355.72" x2="366.74" y2="362.64"/><line class="f" x1="366.74" y1="359.18" x2="398.03" y2="359.18"/><line class="f" x1="367.78" y1="355.03" x2="367.78" y2="355.72"/><line class="f" x1="367.78" y1="355.72" x2="365" y2="355.72"/><line class="f" x1="365" y1="355.72" x2="365" y2="352.96"/><line class="f" x1="365" y1="352.96" x2="366.39" y2="352.96"/><line class="f" x1="366.39" y1="352.27" x2="369.17" y2="352.27"/><line class="f" x1="369.17" y1="352.27" x2="369.17" y2="355.03"/><line class="f" x1="369.17" y1="355.03" x2="366.39" y2="355.03"/><line class="f" x1="366.39" y1="355.03" x2="366.39" y2="352.27"/><line class="f" x1="398.38" y1="352.27" x2="395.6" y2="352.27"/><line class="f" x1="395.6" y1="352.27" x2="395.6" y2="355.03"/><line class="f" x1="395.6" y1="355.03" x2="398.38" y2="355.03"/><line class="f" x1="398.38" y1="355.03" x2="398.38" y2="352.27"/><line class="f" x1="369.17" y1="352.27" x2="395.6" y2="352.27"/><line class="f" x1="395.6" y1="355.03" x2="369.17" y2="355.03"/><line class="f" x1="369.17" y1="353.65" x2="395.6" y2="353.65"/><line class="f" x1="396.99" y1="355.03" x2="396.99" y2="355.72"/><line class="f" x1="396.99" y1="355.72" x2="399.77" y2="355.72"/><line class="f" x1="399.77" y1="355.72" x2="399.77" y2="352.96"/><line class="f" x1="399.77" y1="352.96" x2="398.38" y2="352.96"/><line class="f" x1="298.23" y1="355.03" x2="298.23" y2="355.72"/><line class="f" x1="298.23" y1="355.72" x2="295.44" y2="355.72"/><line class="f" x1="295.44" y1="355.72" x2="295.44" y2="352.96"/><line class="f" x1="295.44" y1="352.96" x2="296.83" y2="352.96"/><line class="f" x1="296.83" y1="352.27" x2="299.62" y2="352.27"/><line class="f" x1="299.62" y1="352.27" x2="299.62" y2="355.03"/><line class="f" x1="299.62" y1="355.03" x2="296.83" y2="355.03"/><line class="f" x1="296.83" y1="355.03" x2="296.83" y2="352.27"/><line class="f" x1="328.83" y1="355.03" x2="328.83" y2="355.72"/><line class="f" x1="328.83" y1="355.72" x2="331.61" y2="355.72"/><line class="f" x1="331.61" y1="355.72" x2="331.61" y2="352.96"/><line class="f" x1="331.61" y1="352.96" x2="330.22" y2="352.96"/><line class="f" x1="330.22" y1="352.27" x2="327.44" y2="352.27"/><line class="f" x1="327.44" y1="352.27" x2="327.44" y2="355.03"/><line class="f" x1="327.44" y1="355.03" x2="330.22" y2="355.03"/><line class="f" x1="330.22" y1="355.03" x2="330.22" y2="352.27"/><line class="f" x1="299.62" y1="352.27" x2="327.44" y2="352.27"/><line class="f" x1="327.44" y1="355.03" x2="299.62" y2="355.03"/><line class="f" x1="299.62" y1="353.65" x2="327.44" y2="353.65"/><line class="f" x1="228.67" y1="355.03" x2="228.67" y2="355.72"/><line class="f" x1="228.67" y1="355.72" x2="225.89" y2="355.72"/><line class="f" x1="225.89" y1="355.72" x2="225.89" y2="352.96"/><line class="f" x1="225.89" y1="352.96" x2="227.28" y2="352.96"/><line class="f" x1="227.28" y1="352.27" x2="230.06" y2="352.27"/><line class="f" x1="230.06" y1="352.27" x2="230.06" y2="355.03"/><line class="f" x1="230.06" y1="355.03" x2="227.28" y2="355.03"/><line class="f" x1="227.28" y1="355.03" x2="227.28" y2="352.27"/><line class="f" x1="257.88" y1="355.03" x2="257.88" y2="355.72"/><line class="f" x1="257.88" y1="355.72" x2="260.67" y2="355.72"/><line class="f" x1="260.67" y1="355.72" x2="260.67" y2="352.96"/><line class="f" x1="260.67" y1="352.96" x2="259.28" y2="352.96"/><line class="f" x1="259.28" y1="352.27" x2="256.49" y2="352.27"/><line class="f" x1="256.49" y1="352.27" x2="256.49" y2="355.03"/><line class="f" x1="256.49" y1="355.03" x2="259.28" y2="355.03"/><line class="f" x1="259.28" y1="355.03" x2="259.28" y2="352.27"/><line class="f" x1="230.06" y1="352.27" x2="256.49" y2="352.27"/><line class="f" x1="256.49" y1="355.03" x2="230.06" y2="355.03"/><line class="f" x1="230.06" y1="353.65" x2="256.49" y2="353.65"/><line class="f" x1="365" y1="352.96" x2="362.21" y2="352.96"/><line class="f" x1="362.21" y1="352.96" x2="362.21" y2="355.72"/><line class="f" x1="362.21" y1="355.72" x2="365" y2="355.72"/><line class="f" x1="365" y1="355.72" x2="365" y2="352.96"/><line class="f" x1="362.21" y1="352.96" x2="331.61" y2="352.96"/><line class="f" x1="362.21" y1="354.34" x2="331.61" y2="354.34"/><line class="f" x1="362.21" y1="355.72" x2="331.61" y2="355.72"/><line class="f" x1="554.53" y1="362.64" x2="484.98" y2="362.64"/><line class="f" x1="556.27" y1="348.81" x2="486.71" y2="348.81"/><line class="f" x1="486.71" y1="348.81" x2="486.71" y2="355.72"/><line class="f" x1="486.71" y1="348.81" x2="451.94" y2="348.81"/><line class="f" x1="484.98" y1="355.72" x2="484.98" y2="362.64"/><line class="f" x1="484.98" y1="359.18" x2="453.68" y2="359.18"/><line class="f" x1="483.93" y1="355.03" x2="483.93" y2="355.72"/><line class="f" x1="483.93" y1="355.72" x2="486.71" y2="355.72"/><line class="f" x1="486.71" y1="355.72" x2="486.71" y2="352.96"/><line class="f" x1="486.71" y1="352.96" x2="485.32" y2="352.96"/><line class="f" x1="485.32" y1="352.27" x2="482.54" y2="352.27"/><line class="f" x1="482.54" y1="352.27" x2="482.54" y2="355.03"/><line class="f" x1="482.54" y1="355.03" x2="485.32" y2="355.03"/><line class="f" x1="485.32" y1="355.03" x2="485.32" y2="352.27"/><line class="f" x1="453.33" y1="352.27" x2="456.11" y2="352.27"/><line class="f" x1="456.11" y1="352.27" x2="456.11" y2="355.03"/><line class="f" x1="456.11" y1="355.03" x2="453.33" y2="355.03"/><line class="f" x1="453.33" y1="355.03" x2="453.33" y2="352.27"/><line class="f" x1="482.54" y1="352.27" x2="456.11" y2="352.27"/><line class="f" x1="456.11" y1="355.03" x2="482.54" y2="355.03"/><line class="f" x1="482.54" y1="353.65" x2="456.11" y2="353.65"/><line class="f" x1="454.72" y1="355.03" x2="454.72" y2="355.72"/><line class="f" x1="454.72" y1="355.72" x2="451.94" y2="355.72"/><line class="f" x1="451.94" y1="355.72" x2="451.94" y2="352.96"/><line class="f" x1="451.94" y1="352.96" x2="453.33" y2="352.96"/><line class="f" x1="486.71" y1="352.96" x2="489.5" y2="352.96"/><line class="f" x1="489.5" y1="352.96" x2="489.5" y2="355.72"/><line class="f" x1="489.5" y1="355.72" x2="486.71" y2="355.72"/><line class="f" x1="486.71" y1="355.72" x2="486.71" y2="352.96"/><line class="f" x1="489.5" y1="352.96" x2="520.1" y2="352.96"/><line class="f" x1="489.5" y1="354.34" x2="520.1" y2="354.34"/><line class="f" x1="489.5" y1="355.72" x2="520.1" y2="355.72"/><line class="f" x1="208.5" y1="436.95" x2="592.65" y2="436.95"/><line class="f" x1="194.46" y1="274.21" x2="194.59" y2="274.15"/><line class="f" x1="194.59" y1="292.82" x2="194.46" y2="292.82"/><line class="f" x1="194.59" y1="301.8" x2="194.46" y2="301.8"/><line class="f" x1="194.59" y1="310.79" x2="194.46" y2="310.79"/><line class="f" x1="194.59" y1="319.78" x2="194.46" y2="319.78"/><line class="f" x1="194.46" y1="220.93" x2="194.59" y2="220.93"/><line class="f" x1="194.46" y1="328.76" x2="194.59" y2="328.76"/><line class="f" x1="258.93" y1="243.74" x2="276.32" y2="243.74"/><line class="f" x1="276.32" y1="243.74" x2="276.32" y2="177.38"/><line class="f" x1="258.93" y1="241.32" x2="273.88" y2="241.32"/><line class="f" x1="273.88" y1="241.32" x2="273.88" y2="177.38"/><line class="f" x1="258.93" y1="241.32" x2="258.93" y2="243.74"/><line class="f" x1="227.63" y1="241.32" x2="227.63" y2="243.74"/><line class="f" x1="494.36" y1="206.75" x2="494.36" y2="177.38"/><line class="f" x1="491.93" y1="206.75" x2="491.93" y2="196.39"/><line class="f" x1="401.51" y1="245.47" x2="401.51" y2="234.41"/><line class="f" x1="401.51" y1="203.3" x2="401.51" y2="198.11"/><line class="f" x1="491.93" y1="234.41" x2="491.93" y2="243.05"/><line class="f" x1="491.93" y1="243.05" x2="484.98" y2="243.05"/><line class="f" x1="453.68" y1="243.05" x2="403.95" y2="243.05"/><line class="f" x1="403.95" y1="243.05" x2="403.95" y2="234.41"/><line class="f" x1="403.95" y1="203.3" x2="403.95" y2="177.38"/><line class="f" x1="464.11" y1="196.39" x2="491.93" y2="196.39"/><line class="f" x1="385.86" y1="177.38" x2="385.86" y2="198.11"/><line class="f" x1="385.86" y1="198.11" x2="401.51" y2="198.11"/><line class="f" x1="276.32" y1="348.81" x2="276.32" y2="271.39"/><line class="f" x1="273.88" y1="348.81" x2="273.88" y2="271.39"/><line class="f" x1="494.36" y1="206.75" x2="491.93" y2="206.75"/><line class="f" x1="494.36" y1="234.41" x2="491.93" y2="234.41"/><line class="f" x1="453.68" y1="243.05" x2="453.68" y2="245.47"/><line class="f" x1="484.98" y1="243.05" x2="484.98" y2="245.47"/><line class="f" x1="453.68" y1="245.47" x2="418.9" y2="245.47"/><line class="f" x1="403.95" y1="234.41" x2="401.51" y2="234.41"/><line class="f" x1="403.95" y1="203.3" x2="401.51" y2="203.3"/><line class="f" x1="411.94" y1="245.47" x2="401.51" y2="245.47"/><line class="f" x1="411.94" y1="348.81" x2="411.94" y2="245.47"/><line class="f" x1="418.9" y1="245.47" x2="418.9" y2="348.81"/><line class="f" x1="398.38" y1="352.27" x2="398.38" y2="320.47"/><g class="g"><path class="f" d="M366.39,352.27a31.9,31.9,0,0,1,32-31.8"/></g><line class="f" x1="453.33" y1="352.27" x2="453.33" y2="320.47"/><g class="g"><path class="f" d="M453.33,320.47a31.9,31.9,0,0,1,32,31.8"/></g><line class="f" x1="203.29" y1="243.74" x2="227.63" y2="243.74"/><line class="f" x1="203.29" y1="241.32" x2="227.63" y2="241.32"/><line class="f" x1="587.91" y1="245.47" x2="484.98" y2="245.47"/><line class="f" x1="587.91" y1="243.05" x2="494.37" y2="243.05"/><line class="f" x1="494.36" y1="243.05" x2="494.36" y2="234.41"/><line class="f" x1="401.51" y1="177.38" x2="389.34" y2="177.38"/><line class="f" x1="389.34" y1="177.38" x2="389.34" y2="194.66"/><line class="f" x1="389.34" y1="194.66" x2="401.51" y2="194.66"/><line class="f" x1="401.51" y1="194.66" x2="401.51" y2="177.38"/><line class="f" x1="273.88" y1="271.39" x2="276.32" y2="271.39"/><line class="f" x1="587.91" y1="182.56" x2="494.37" y2="182.56"/><g class="g"><path class="f" d="M574.87,191.72a.87.87,0,1,0-.87.86.86.86,0,0,0,.87-.86"/></g><g class="g"><path class="f" d="M574.73,185.9a.76.76,0,0,1-.11.33"/></g><g class="g"><path class="f" d="M574.39,188.06a.4.4,0,0,1-.39.34.38.38,0,0,1-.38-.34"/></g><g class="g"><path class="f" d="M573.38,186.23a.76.76,0,0,1-.11-.33"/></g><g class="g"><path class="f" d="M573.13,184.45a.87.87,0,0,1,1.74,0"/></g><g class="g"><path class="f" d="M574.48,185.82a.48.48,0,0,1-.48.47.47.47,0,0,1-.47-.47"/><path class="f" d="M574.62,186.23a.75.75,0,0,1-1.24,0"/></g><line class="f" x1="467.59" y1="191.2" x2="464.11" y2="191.2"/><line class="f" x1="364.65" y1="198.46" x2="364.65" y2="177.72"/><line class="f" x1="372.62" y1="185.65" x2="377.54" y2="190.53"/><line class="f" x1="377.54" y1="185.65" x2="372.62" y2="190.53"/><line class="f" x1="375.08" y1="191.55" x2="375.08" y2="184.63"/><line class="f" x1="371.6" y1="188.09" x2="378.56" y2="188.09"/><line class="f" x1="364.65" y1="198.46" x2="385.51" y2="198.46"/><line class="f" x1="343.61" y1="196.73" x2="362.74" y2="196.73"/><line class="f" x1="362.74" y1="196.73" x2="362.74" y2="179.45"/><line class="f" x1="362.74" y1="179.45" x2="343.61" y2="179.45"/><line class="f" x1="343.61" y1="179.45" x2="343.61" y2="196.73"/><line class="f" x1="342.74" y1="198.46" x2="363.61" y2="198.46"/><line class="f" x1="345.35" y1="195" x2="361" y2="195"/><line class="f" x1="361" y1="195" x2="361" y2="182.91"/><line class="f" x1="361" y1="182.91" x2="345.35" y2="182.91"/><line class="f" x1="345.35" y1="182.91" x2="345.35" y2="195"/><g class="g"><path class="f" d="M353.87,186.36a.7.7,0,1,0-.7.69.69.69,0,0,0,.7-.69"/></g><line class="f" x1="321.87" y1="177.72" x2="321.87" y2="198.46"/><line class="f" x1="321.87" y1="198.46" x2="342.74" y2="198.46"/><line class="f" x1="342.74" y1="198.46" x2="342.74" y2="177.72"/><g class="g"><path class="f" d="M285.39,226.88a3.42,3.42,0,1,0-3.41,3.39,3.4,3.4,0,0,0,3.41-3.39"/></g><line class="f" x1="276.66" y1="232.16" x2="297.53" y2="232.16"/><line class="f" x1="297.53" y1="232.16" x2="297.53" y2="211.42"/><line class="f" x1="297.53" y1="211.42" x2="276.66" y2="211.42"/><g class="g"><path class="f" d="M295.63,226.88a3.42,3.42,0,1,0-3.41,3.39,3.4,3.4,0,0,0,3.41-3.39"/><path class="f" d="M295.63,216.7a3.42,3.42,0,1,0-3.41,3.39,3.4,3.4,0,0,0,3.41-3.39"/></g><line class="f" x1="298.48" y1="214.25" x2="298.48" y2="229.33"/><line class="f" x1="321.87" y1="198.46" x2="321.87" y2="177.38"/><line class="f" x1="321.87" y1="177.38" x2="301.01" y2="177.38"/><line class="f" x1="301.01" y1="177.38" x2="301.01" y2="198.46"/><line class="f" x1="301.01" y1="198.46" x2="321.87" y2="198.46"/><g class="g"><path class="f" d="M317.53,188.09a6.09,6.09,0,1,0-6.09,6,6.07,6.07,0,0,0,6.09-6"/><path class="f" d="M316.48,188.09a5,5,0,1,0-5,5,5,5,0,0,0,5-5"/></g><line class="f" x1="385.86" y1="198.46" x2="385.86" y2="177.38"/><line class="f" x1="385.86" y1="177.38" x2="276.32" y2="177.38"/><line class="f" x1="276.32" y1="177.38" x2="276.32" y2="243.74"/><line class="f" x1="276.32" y1="243.74" x2="297.53" y2="243.74"/><line class="f" x1="297.53" y1="243.74" x2="297.53" y2="198.46"/><line class="f" x1="297.53" y1="198.46" x2="385.86" y2="198.46"/><line class="f" x1="464.11" y1="191.2" x2="464.11" y2="196.39"/><line class="f" x1="464.11" y1="177.38" x2="464.11" y2="191.2"/><line class="f" x1="467.59" y1="177.38" x2="467.59" y2="192.93"/><line class="f" x1="467.59" y1="192.93" x2="491.93" y2="192.93"/><line class="f" x1="491.93" y1="192.93" x2="491.93" y2="177.38"/><line class="f" x1="491.93" y1="177.38" x2="467.59" y2="177.38"/><line class="f" x1="455.42" y1="245.47" x2="483.24" y2="245.47"/><line class="f" x1="455.42" y1="245.47" x2="455.42" y2="273.12"/><g class="g"><path class="f" d="M483.24,245.47a27.74,27.74,0,0,1-27.82,27.65"/></g><line class="f" x1="455.42" y1="243.05" x2="455.42" y2="245.47"/><line class="f" x1="483.24" y1="245.47" x2="483.24" y2="243.05"/><line class="f" x1="483.24" y1="245.47" x2="484.97" y2="245.47"/><line class="f" x1="483.24" y1="243.05" x2="484.97" y2="243.05"/><line class="f" x1="453.68" y1="245.47" x2="455.41" y2="245.47"/><line class="f" x1="453.68" y1="243.05" x2="455.41" y2="243.05"/><line class="f" x1="455.42" y1="243.05" x2="462.37" y2="243.05"/><line class="f" x1="466.2" y1="243.05" x2="466.98" y2="243.05"/><line class="f" x1="470.8" y1="243.05" x2="471.59" y2="243.05"/><line class="f" x1="475.41" y1="243.05" x2="476.28" y2="243.05"/><line class="f" x1="476.28" y1="243.05" x2="483.24" y2="243.05"/><line class="f" x1="455.42" y1="245.47" x2="455.42" y2="246.33"/><line class="f" x1="455.42" y1="246.33" x2="451.94" y2="246.33"/><line class="f" x1="451.94" y1="246.33" x2="451.94" y2="245.47"/><line class="f" x1="455.42" y1="243.05" x2="455.42" y2="242.18"/><line class="f" x1="455.42" y1="242.18" x2="451.94" y2="242.18"/><line class="f" x1="451.94" y1="242.18" x2="451.94" y2="243.05"/><line class="f" x1="483.24" y1="246.33" x2="486.71" y2="246.33"/><line class="f" x1="486.71" y1="246.33" x2="486.71" y2="245.47"/><line class="f" x1="483.24" y1="243.05" x2="483.24" y2="242.18"/><line class="f" x1="483.24" y1="242.18" x2="486.71" y2="242.18"/><line class="f" x1="486.71" y1="242.18" x2="486.71" y2="243.05"/><line class="f" x1="491.93" y1="208.48" x2="491.93" y2="232.68"/><line class="f" x1="491.93" y1="208.48" x2="467.59" y2="208.48"/><g class="g"><path class="f" d="M491.93,232.68a24.28,24.28,0,0,1-24.34-24.2"/></g><line class="f" x1="494.36" y1="208.48" x2="491.93" y2="208.48"/><line class="f" x1="491.93" y1="232.68" x2="494.36" y2="232.68"/><line class="f" x1="491.93" y1="232.68" x2="491.93" y2="234.41"/><line class="f" x1="494.36" y1="232.68" x2="494.36" y2="234.41"/><line class="f" x1="491.93" y1="206.75" x2="491.93" y2="208.48"/><line class="f" x1="494.36" y1="206.75" x2="494.36" y2="208.48"/><line class="f" x1="494.36" y1="208.48" x2="494.36" y2="215.4"/><line class="f" x1="494.36" y1="219.2" x2="494.36" y2="219.98"/><line class="f" x1="494.36" y1="223.78" x2="494.36" y2="224.56"/><line class="f" x1="494.36" y1="225.77" x2="494.36" y2="232.68"/><line class="f" x1="491.93" y1="208.48" x2="491.06" y2="208.48"/><line class="f" x1="491.06" y1="208.48" x2="491.06" y2="205.03"/><line class="f" x1="491.06" y1="205.03" x2="491.93" y2="205.03"/><line class="f" x1="494.36" y1="208.48" x2="495.23" y2="208.48"/><line class="f" x1="495.23" y1="208.48" x2="495.23" y2="205.03"/><line class="f" x1="495.23" y1="205.03" x2="494.36" y2="205.03"/><line class="f" x1="491.06" y1="232.68" x2="491.06" y2="236.13"/><line class="f" x1="491.06" y1="236.13" x2="491.93" y2="236.13"/><line class="f" x1="494.36" y1="232.68" x2="495.23" y2="232.68"/><line class="f" x1="495.23" y1="232.68" x2="495.23" y2="236.13"/><line class="f" x1="495.23" y1="236.13" x2="494.36" y2="236.13"/><line class="f" x1="401.51" y1="205.03" x2="401.51" y2="232.68"/><line class="f" x1="401.51" y1="205.03" x2="373.69" y2="205.03"/><g class="g"><path class="f" d="M401.51,232.68A27.73,27.73,0,0,1,373.69,205"/></g><line class="f" x1="403.95" y1="205.03" x2="401.51" y2="205.03"/><line class="f" x1="401.51" y1="232.68" x2="403.95" y2="232.68"/><line class="f" x1="401.51" y1="232.68" x2="401.51" y2="234.41"/><line class="f" x1="403.95" y1="232.68" x2="403.95" y2="234.41"/><line class="f" x1="401.51" y1="203.3" x2="401.51" y2="205.03"/><line class="f" x1="403.95" y1="203.3" x2="403.95" y2="205.03"/><line class="f" x1="403.95" y1="205.03" x2="403.95" y2="211.94"/><line class="f" x1="403.95" y1="215.74" x2="403.95" y2="216.52"/><line class="f" x1="403.95" y1="220.32" x2="403.95" y2="221.1"/><line class="f" x1="403.95" y1="224.9" x2="403.95" y2="225.77"/><line class="f" x1="403.95" y1="225.77" x2="403.95" y2="232.68"/><line class="f" x1="401.51" y1="205.03" x2="400.64" y2="205.03"/><line class="f" x1="400.64" y1="205.03" x2="400.64" y2="201.57"/><line class="f" x1="400.64" y1="201.57" x2="401.51" y2="201.57"/><line class="f" x1="403.95" y1="205.03" x2="404.81" y2="205.03"/><line class="f" x1="404.82" y1="205.03" x2="404.82" y2="201.57"/><line class="f" x1="404.82" y1="201.57" x2="403.95" y2="201.57"/><line class="f" x1="400.64" y1="232.68" x2="400.64" y2="236.13"/><line class="f" x1="400.64" y1="236.13" x2="401.51" y2="236.13"/><line class="f" x1="403.95" y1="232.68" x2="404.81" y2="232.68"/><line class="f" x1="404.82" y1="232.68" x2="404.82" y2="236.13"/><line class="f" x1="404.82" y1="236.13" x2="403.95" y2="236.13"/><line class="f" x1="460.63" y1="173.05" x2="429.33" y2="173.05"/><line class="f" x1="460.63" y1="169.08" x2="429.33" y2="169.08"/><line class="f" x1="460.63" y1="173.05" x2="460.63" y2="204.16"/><g class="g"><path class="f" d="M460.63,204.16a31.2,31.2,0,0,1-31.3-31.11"/></g><line class="f" x1="460.63" y1="169.08" x2="460.63" y2="173.06"/><line class="f" x1="429.33" y1="173.05" x2="429.33" y2="169.08"/><line class="f" x1="429.33" y1="173.05" x2="427.59" y2="173.05"/><line class="f" x1="429.33" y1="169.08" x2="427.59" y2="169.08"/><line class="f" x1="462.37" y1="173.05" x2="460.63" y2="173.05"/><line class="f" x1="462.37" y1="169.08" x2="460.63" y2="169.08"/><line class="f" x1="307.61" y1="347.08" x2="363.26" y2="347.08"/><line class="f" x1="363.26" y1="347.08" x2="363.26" y2="343.63"/><line class="f" x1="363.26" y1="343.63" x2="307.62" y2="343.63"/><line class="f" x1="307.61" y1="343.63" x2="307.61" y2="347.08"/><line class="f" x1="229.84" y1="347.08" x2="257.66" y2="347.08"/><line class="f" x1="257.66" y1="347.08" x2="257.66" y2="344.91"/><line class="f" x1="257.66" y1="344.91" x2="229.84" y2="344.91"/><line class="f" x1="229.84" y1="344.91" x2="229.84" y2="347.08"/><line class="f" x1="504.1" y1="347.08" x2="531.92" y2="347.08"/><line class="f" x1="531.92" y1="344.91" x2="504.1" y2="344.91"/><line class="f" x1="504.1" y1="344.91" x2="504.1" y2="347.08"/><g class="g"><path class="f" d="M502.36,346a1.74,1.74,0,1,0-1.74,1.73,1.73,1.73,0,0,0,1.74-1.73"/><path class="f" d="M228.1,346a1.74,1.74,0,1,0-1.73,1.73A1.72,1.72,0,0,0,228.1,346"/><path class="f" d="M305.88,345.36a1.74,1.74,0,1,0-1.74,1.72,1.73,1.73,0,0,0,1.74-1.72"/></g><line class="f" x1="484.98" y1="362.64" x2="478.02" y2="362.64"/><line class="f" x1="474.19" y1="362.64" x2="473.41" y2="362.64"/><line class="f" x1="469.59" y1="362.64" x2="468.8" y2="362.64"/><line class="f" x1="464.98" y1="362.64" x2="460.63" y2="362.64"/><line class="f" x1="460.63" y1="362.64" x2="453.68" y2="362.64"/><line class="f" x1="398.03" y1="362.64" x2="391.08" y2="362.64"/><line class="f" x1="387.25" y1="362.64" x2="386.47" y2="362.64"/><line class="f" x1="382.65" y1="362.64" x2="381.86" y2="362.64"/><line class="f" x1="378.04" y1="362.64" x2="373.69" y2="362.64"/><line class="f" x1="373.69" y1="362.64" x2="366.74" y2="362.64"/><line class="f" x1="517.14" y1="414.48" x2="510.19" y2="414.48"/><line class="f" x1="506.36" y1="414.48" x2="505.58" y2="414.48"/><line class="f" x1="501.76" y1="414.48" x2="500.97" y2="414.48"/><line class="f" x1="497.15" y1="414.48" x2="490.19" y2="414.48"/><line class="f" x1="486.37" y1="414.48" x2="485.58" y2="414.48"/><line class="f" x1="481.76" y1="414.48" x2="480.98" y2="414.48"/><line class="f" x1="477.15" y1="414.48" x2="470.2" y2="414.48"/><line class="f" x1="466.37" y1="414.48" x2="465.59" y2="414.48"/><line class="f" x1="461.76" y1="414.48" x2="460.98" y2="414.48"/><line class="f" x1="457.15" y1="414.48" x2="450.2" y2="414.48"/><line class="f" x1="446.37" y1="414.48" x2="445.59" y2="414.48"/><line class="f" x1="441.77" y1="414.48" x2="440.98" y2="414.48"/><line class="f" x1="437.16" y1="414.48" x2="430.2" y2="414.48"/><line class="f" x1="426.38" y1="414.48" x2="425.59" y2="414.48"/><line class="f" x1="421.77" y1="414.48" x2="420.99" y2="414.48"/><line class="f" x1="417.16" y1="414.48" x2="410.21" y2="414.48"/><line class="f" x1="406.38" y1="414.48" x2="405.6" y2="414.48"/><line class="f" x1="401.77" y1="414.48" x2="400.99" y2="414.48"/><line class="f" x1="397.16" y1="414.48" x2="390.21" y2="414.48"/><line class="f" x1="386.38" y1="414.48" x2="385.6" y2="414.48"/><line class="f" x1="381.78" y1="414.48" x2="380.99" y2="414.48"/><line class="f" x1="377.17" y1="414.48" x2="370.21" y2="414.48"/><line class="f" x1="366.39" y1="414.48" x2="365.61" y2="414.48"/><line class="f" x1="361.78" y1="414.48" x2="361" y2="414.48"/><line class="f" x1="357.17" y1="414.48" x2="350.22" y2="414.48"/><line class="f" x1="346.39" y1="414.48" x2="345.61" y2="414.48"/><line class="f" x1="341.78" y1="414.48" x2="341" y2="414.48"/><line class="f" x1="337.18" y1="414.48" x2="330.22" y2="414.48"/><line class="f" x1="326.39" y1="414.48" x2="325.61" y2="414.48"/><line class="f" x1="321.79" y1="414.48" x2="321" y2="414.48"/><line class="f" x1="317.18" y1="414.48" x2="310.22" y2="414.48"/><line class="f" x1="306.4" y1="414.48" x2="305.62" y2="414.48"/><line class="f" x1="301.79" y1="414.48" x2="301.01" y2="414.48"/><line class="f" x1="297.18" y1="414.48" x2="290.23" y2="414.48"/><line class="f" x1="286.4" y1="414.48" x2="285.62" y2="414.48"/><line class="f" x1="281.79" y1="414.48" x2="281.01" y2="414.48"/><line class="f" x1="277.18" y1="414.48" x2="276.32" y2="414.48"/><line class="f" x1="276.32" y1="414.48" x2="269.36" y2="414.48"/><line class="f" x1="269.36" y1="362.64" x2="269.36" y2="369.55"/><line class="f" x1="269.36" y1="373.35" x2="269.36" y2="374.13"/><line class="f" x1="269.36" y1="377.93" x2="269.36" y2="378.71"/><line class="f" x1="269.36" y1="382.51" x2="269.36" y2="389.42"/><line class="f" x1="269.36" y1="393.23" x2="269.36" y2="394"/><line class="f" x1="269.36" y1="397.81" x2="269.36" y2="398.58"/><line class="f" x1="269.36" y1="402.39" x2="269.36" y2="407.57"/><line class="f" x1="269.36" y1="407.57" x2="269.36" y2="414.48"/><rect class="d" x="403.95" y="237.86" width="45.21" height="5.18"/><line class="f" x1="403.95" y1="243.05" x2="449.16" y2="243.05"/><line class="f" x1="403.95" y1="237.86" x2="403.95" y2="243.05"/><line class="f" x1="449.16" y1="237.86" x2="403.95" y2="237.86"/><line class="f" x1="449.16" y1="243.05" x2="449.16" y2="237.86"/><rect class="d" x="401.51" y="245.47" width="10.43" height="103.35"/><line class="f" x1="411.94" y1="348.81" x2="401.51" y2="348.81"/><line class="f" x1="401.51" y1="348.81" x2="401.51" y2="245.47"/><line class="f" x1="401.51" y1="245.47" x2="411.95" y2="245.47"/><line class="f" x1="411.94" y1="245.47" x2="411.94" y2="348.81"/><rect class="d" x="203.29" y="177.37" width="20.87" height="20.74"/><line class="f" x1="203.29" y1="198.11" x2="224.15" y2="198.11"/><line class="f" x1="203.29" y1="177.38" x2="203.29" y2="198.11"/><line class="f" x1="224.15" y1="177.38" x2="203.29" y2="177.38"/><line class="f" x1="224.15" y1="198.11" x2="224.15" y2="177.38"/><rect class="d" x="494.37" y="177.37" width="93.55" height="5.18"/><line class="f" x1="587.91" y1="182.56" x2="494.37" y2="182.56"/><line class="f" x1="494.36" y1="182.56" x2="494.36" y2="177.38"/><line class="f" x1="494.36" y1="177.38" x2="587.91" y2="177.38"/><rect class="d" x="312.83" y="282.79" width="17.39" height="27.65"/><line class="f" x1="312.83" y1="310.45" x2="330.22" y2="310.45"/><line class="f" x1="312.83" y1="282.79" x2="312.83" y2="310.45"/><line class="f" x1="330.22" y1="282.79" x2="312.83" y2="282.79"/><line class="f" x1="330.22" y1="310.45" x2="330.22" y2="282.79"/><polygon class="d" points="499.39 347.22 498.89 345.99 499.39 344.77 500.62 344.27 501.85 344.77 502.36 345.99 501.85 347.22 500.62 347.72 499.39 347.22"/><g class="g"><path class="f" d="M502.36,346a1.74,1.74,0,0,1-3.47,0"/><path class="f" d="M498.89,346a1.74,1.74,0,0,1,3.47,0"/></g><rect class="d" x="504.1" y="344.91" width="27.82" height="2.18"/><line class="f" x1="504.1" y1="344.91" x2="504.1" y2="347.08"/><line class="f" x1="531.92" y1="344.91" x2="504.1" y2="344.91"/><line class="f" x1="504.1" y1="347.08" x2="531.92" y2="347.08"/><rect class="d" x="307.61" y="343.63" width="55.64" height="3.45"/><line class="f" x1="307.61" y1="343.63" x2="307.61" y2="347.08"/><line class="f" x1="363.26" y1="343.63" x2="307.62" y2="343.63"/><line class="f" x1="363.26" y1="347.08" x2="363.26" y2="343.63"/><line class="f" x1="307.61" y1="347.08" x2="363.26" y2="347.08"/><polygon class="d" points="302.91 346.58 302.4 345.36 302.91 344.13 304.14 343.63 305.37 344.13 305.88 345.36 305.37 346.58 304.14 347.08 302.91 346.58"/><g class="g"><path class="f" d="M305.88,345.36a1.74,1.74,0,0,1-3.48,0"/><path class="f" d="M302.4,345.36a1.74,1.74,0,0,1,3.48,0"/></g><polygon class="d" points="225.14 347.22 224.63 345.99 225.14 344.77 226.37 344.27 227.59 344.77 228.1 345.99 227.59 347.22 226.37 347.72 225.14 347.22"/><g class="g"><path class="f" d="M228.1,346a1.74,1.74,0,0,1-3.47,0"/><path class="f" d="M224.63,346a1.74,1.74,0,0,1,3.47,0"/></g><rect class="d" x="229.84" y="344.91" width="27.82" height="2.18"/><line class="f" x1="229.84" y1="344.91" x2="229.84" y2="347.08"/><line class="f" x1="257.66" y1="344.91" x2="229.84" y2="344.91"/><line class="f" x1="257.66" y1="347.08" x2="257.66" y2="344.91"/><line class="f" x1="229.84" y1="347.08" x2="257.66" y2="347.08"/><g class="g"><path class="f" d="M570.39,272.39a96.62,96.62,0,0,1-.34,22.53"/><path class="f" d="M570.39,272.39a1.81,1.81,0,0,1,0-.4,1.85,1.85,0,0,1,1.86-1.85h.09"/><path class="f" d="M572.3,270.14l.83,0a15.19,15.19,0,0,1,3.22.35"/><path class="f" d="M576.35,270.47c1.74-.17,3.5-.25,5.25-.25.84,0,1.67,0,2.51,0"/><path class="f" d="M584.11,270.28a.25.25,0,0,1,.12,0,.38.38,0,0,1,.39.39v.08"/><path class="f" d="M584.27,295q-.22-4.68-.23-9.38,0-7.44.58-14.87"/><path class="f" d="M584.27,295a.75.75,0,0,1,0,.21,1,1,0,0,1-1,1,.81.81,0,0,1-.31,0"/><path class="f" d="M571,295.92a46.91,46.91,0,0,1,12,.18"/><path class="f" d="M571,295.92a.83.83,0,0,1-.22,0,.79.79,0,0,1-.8-.79.64.64,0,0,1,0-.24"/><path class="f" d="M518.36,273.34a6.93,6.93,0,0,1,7-6.91"/><path class="f" d="M525.32,328.65a6.94,6.94,0,0,1-7-6.92"/><path class="f" d="M570.39,301.41a96.62,96.62,0,0,1-.34,22.53"/><path class="f" d="M570.39,301.41a1.75,1.75,0,0,1,0-.4,1.85,1.85,0,0,1,1.86-1.85h.09"/><path class="f" d="M572.3,299.17c.28,0,.55,0,.83,0a14.58,14.58,0,0,1,3.22.36"/><path class="f" d="M576.35,299.5c1.74-.17,3.5-.26,5.25-.26.84,0,1.67,0,2.51.06"/><path class="f" d="M584.11,299.3l.12,0a.39.39,0,0,1,.39.39v.08"/><path class="f" d="M584.27,324q-.22-4.69-.23-9.39,0-7.44.58-14.87"/><path class="f" d="M584.27,324a.75.75,0,0,1,0,.21,1,1,0,0,1-1,1,1.06,1.06,0,0,1-.31-.05"/><path class="f" d="M571,325a44.73,44.73,0,0,1,5.3-.31,46.73,46.73,0,0,1,6.69.48"/><path class="f" d="M571,325a.83.83,0,0,1-.22,0,.8.8,0,0,1-.8-.8.64.64,0,0,1,0-.24"/></g><polygon class="d" points="278.05 341.5 277.56 341.31 277.36 340.85 277.36 273.04 277.56 272.57 278.05 272.38 303.44 272.38 305.18 272.82 306.45 274.02 306.92 275.67 306.92 276.65 306.71 277.12 306.22 277.31 306.73 277.71 306.92 278.3 306.92 314.18 306.73 314.75 306.22 315.12 306.86 315.46 306.92 316.16 306.92 340.51 306.95 340.98 306.68 341.36 306.22 341.5 278.05 341.5"/><polygon class="d" points="307.96 341.5 307.22 341.21 306.92 340.51 306.92 316.16 307.22 315.46 307.96 315.17 329.52 315.17 332.18 315.67 334.44 317.1 335.95 319.23 336.48 321.75 336.48 334.92 335.95 337.44 334.44 339.58 332.18 341 329.52 341.5 307.96 341.5"/><line class="f" x1="329.52" y1="315.17" x2="332.18" y2="315.67"/><line class="f" x1="332.19" y1="315.67" x2="334.44" y2="317.1"/><line class="f" x1="334.44" y1="317.1" x2="335.95" y2="319.23"/><line class="f" x1="335.95" y1="319.23" x2="336.48" y2="321.75"/><line class="f" x1="336.48" y1="321.75" x2="336.48" y2="334.92"/><line class="f" x1="336.48" y1="334.92" x2="335.95" y2="337.44"/><line class="f" x1="335.95" y1="337.44" x2="334.44" y2="339.58"/><line class="f" x1="334.44" y1="339.58" x2="332.18" y2="341"/><line class="f" x1="332.19" y1="341" x2="329.52" y2="341.5"/><line class="f" x1="329.52" y1="341.5" x2="307.96" y2="341.5"/><line class="f" x1="307.96" y1="341.5" x2="307.22" y2="341.22"/><line class="f" x1="307.22" y1="341.21" x2="306.92" y2="340.52"/><line class="f" x1="306.92" y1="340.52" x2="306.92" y2="316.16"/><line class="f" x1="306.92" y1="316.16" x2="307.22" y2="315.46"/><line class="f" x1="307.22" y1="315.46" x2="307.96" y2="315.17"/><line class="f" x1="307.96" y1="315.17" x2="329.52" y2="315.17"/><line class="f" x1="306.92" y1="276.66" x2="306.92" y2="275.67"/><line class="f" x1="303.44" y1="272.38" x2="278.05" y2="272.38"/><line class="f" x1="277.36" y1="273.04" x2="277.36" y2="276.66"/><line class="f" x1="278.05" y1="277.32" x2="306.22" y2="277.32"/><line class="f" x1="277.36" y1="276.66" x2="277.36" y2="315.17"/><line class="f" x1="277.36" y1="315.17" x2="279.79" y2="315.17"/><line class="f" x1="306.92" y1="314.18" x2="306.92" y2="278.3"/><line class="f" x1="305.87" y1="277.32" x2="288.44" y2="277.32"/><line class="f" x1="288.44" y1="315.17" x2="305.87" y2="315.17"/><line class="f" x1="279.79" y1="277.32" x2="286.35" y2="277.32"/><line class="f" x1="286.35" y1="315.17" x2="279.79" y2="315.17"/><line class="f" x1="306.92" y1="337.23" x2="306.92" y2="340.85"/><line class="f" x1="306.22" y1="341.5" x2="278.05" y2="341.5"/><line class="f" x1="277.36" y1="340.85" x2="277.36" y2="337.23"/><line class="f" x1="277.36" y1="337.23" x2="277.36" y2="315.17"/><line class="f" x1="277.36" y1="315.17" x2="279.79" y2="315.17"/><line class="f" x1="306.92" y1="316.16" x2="306.92" y2="335.58"/><line class="f" x1="288.44" y1="315.17" x2="305.87" y2="315.17"/><line class="f" x1="288.44" y1="315.17" x2="279.79" y2="315.17"/><line class="f" x1="336.48" y1="321.75" x2="336.48" y2="334.92"/><line class="f" x1="329.52" y1="341.5" x2="307.96" y2="341.5"/><line class="f" x1="306.92" y1="340.52" x2="306.92" y2="316.16"/><line class="f" x1="307.96" y1="315.17" x2="329.52" y2="315.17"/><line class="f" x1="278.75" y1="316.16" x2="278.75" y2="340.52"/><line class="f" x1="278.75" y1="314.18" x2="278.75" y2="278.3"/><g class="g"><path class="f" d="M277.36,273a.67.67,0,0,1,.69-.65"/><path class="f" d="M278.05,277.31a.67.67,0,0,1-.69-.65"/><path class="f" d="M306.92,276.66a.67.67,0,0,1-.7.65"/><path class="f" d="M305.88,277.32a1,1,0,0,1,1,1"/><path class="f" d="M306.92,314.19a1,1,0,0,1-1.05,1"/><path class="f" d="M306.92,340.84a.68.68,0,0,1-.7.66"/><path class="f" d="M278.05,341.5a.67.67,0,0,1-.69-.66"/><path class="f" d="M305.88,315.17a1,1,0,0,1,1,1"/><path class="f" d="M308,341.5a1,1,0,0,1-1-1"/><path class="f" d="M306.92,316.16a1,1,0,0,1,1-1"/></g><line class="f" x1="278.75" y1="340.52" x2="302.44" y2="340.52"/><g class="g"><path class="f" d="M297.65,339.33c-9.08-1.85-15.56-9.45-15.56-18.25a17.81,17.81,0,0,1,.71-5"/><path class="f" d="M283.62,278.3a106.69,106.69,0,0,1,0,35.89"/><path class="f" d="M329.52,315.17a6.78,6.78,0,0,1,7,6.58"/><path class="f" d="M336.48,334.92a6.78,6.78,0,0,1-7,6.58"/><path class="f" d="M303.44,272.38a3.39,3.39,0,0,1,3.48,3.29"/></g><polygon class="d" points="404.97 316.82 404.97 306.05 403.58 304.34 402.83 302.2 402.83 299.91 403.58 297.77 404.97 296.06 404.97 285.3 406.9 285.3 408.83 293.18 408.83 295.47 409.89 299.13 409.89 302.98 408.83 306.64 408.83 308.94 406.9 316.82 404.97 316.82"/><line class="f" x1="404.97" y1="306.05" x2="403.58" y2="304.34"/><line class="f" x1="403.58" y1="304.34" x2="402.83" y2="302.2"/><line class="f" x1="402.83" y1="302.2" x2="402.83" y2="299.91"/><line class="f" x1="402.83" y1="299.91" x2="403.58" y2="297.77"/><line class="f" x1="403.58" y1="297.77" x2="404.97" y2="296.06"/><line class="f" x1="404.97" y1="296.06" x2="404.97" y2="285.3"/><line class="f" x1="404.97" y1="285.3" x2="406.9" y2="285.3"/><line class="f" x1="406.9" y1="285.3" x2="408.83" y2="293.18"/><line class="f" x1="408.83" y1="293.18" x2="408.83" y2="295.47"/><line class="f" x1="408.83" y1="295.47" x2="409.89" y2="299.14"/><line class="f" x1="409.89" y1="299.14" x2="409.89" y2="302.98"/><line class="f" x1="409.89" y1="302.98" x2="408.83" y2="306.64"/><line class="f" x1="408.83" y1="306.64" x2="408.83" y2="308.94"/><line class="f" x1="408.83" y1="308.94" x2="406.9" y2="316.82"/><line class="f" x1="406.9" y1="316.82" x2="404.97" y2="316.82"/><line class="f" x1="404.97" y1="316.82" x2="404.97" y2="306.05"/><line class="f" x1="404.97" y1="316.82" x2="404.97" y2="285.3"/><line class="f" x1="408.83" y1="293.18" x2="408.83" y2="308.94"/><line class="f" x1="406.9" y1="316.82" x2="404.97" y2="316.82"/><line class="f" x1="405.74" y1="287.4" x2="405.74" y2="289.5"/><line class="f" x1="405.74" y1="289.5" x2="406.22" y2="289.5"/><line class="f" x1="406.22" y1="289.5" x2="406.22" y2="287.4"/><line class="f" x1="406.22" y1="287.4" x2="405.74" y2="287.4"/><line class="f" x1="405.74" y1="290.03" x2="405.74" y2="292.13"/><line class="f" x1="405.74" y1="292.13" x2="406.22" y2="292.13"/><line class="f" x1="406.22" y1="292.13" x2="406.22" y2="290.02"/><line class="f" x1="406.22" y1="290.03" x2="405.74" y2="290.03"/><line class="f" x1="406.9" y1="316.82" x2="406.9" y2="285.3"/><line class="f" x1="406.22" y1="292.65" x2="405.74" y2="292.65"/><line class="f" x1="405.74" y1="292.65" x2="405.74" y2="293.7"/><line class="f" x1="405.74" y1="293.7" x2="406.22" y2="293.7"/><line class="f" x1="406.22" y1="293.7" x2="406.22" y2="292.65"/><g class="g"><path class="f" d="M405,306.05a6.71,6.71,0,0,1,0-10"/></g><polygon class="d" points="326.86 236.16 325.59 234.9 325.12 233.18 325.59 231.45 329.07 225.47 330.35 224.21 332.09 223.75 333.83 224.21 340.58 228.07 337.7 230.26 335.48 233.12 334.09 236.45 333.62 240.02 326.86 236.16"/><polygon class="d" points="361.02 236.45 359.62 233.12 357.41 230.26 354.52 228.07 361.27 224.21 363.01 223.75 364.76 224.21 366.03 225.47 369.52 231.45 369.98 233.18 369.52 234.9 368.24 236.16 361.49 240.02 361.02 236.45"/><polygon class="d" points="344.07 263.15 342.33 262.69 341.05 261.42 340.58 259.69 340.58 251.98 343.95 253.36 347.55 253.83 351.16 253.36 354.52 251.98 354.52 259.69 354.06 261.42 352.78 262.69 351.04 263.15 344.07 263.15"/><polygon class="d" points="343.95 253.36 340.58 251.98 337.7 249.79 335.48 246.93 334.09 243.6 333.62 240.02 334.09 236.45 335.48 233.12 337.7 230.26 340.58 228.07 343.95 226.69 347.55 226.22 351.16 226.69 354.52 228.07 357.41 230.26 359.62 233.12 361.02 236.45 361.49 240.02 361.02 243.6 359.62 246.93 357.41 249.79 354.52 251.98 351.16 253.36 347.55 253.83 343.95 253.36"/><line class="f" x1="333.61" y1="240.02" x2="334.09" y2="236.45"/><line class="f" x1="334.09" y1="236.45" x2="335.48" y2="233.12"/><line class="f" x1="335.48" y1="233.12" x2="337.7" y2="230.26"/><line class="f" x1="337.7" y1="230.26" x2="340.58" y2="228.07"/><line class="f" x1="340.58" y1="228.07" x2="343.95" y2="226.69"/><line class="f" x1="343.95" y1="226.69" x2="347.55" y2="226.22"/><line class="f" x1="347.55" y1="226.22" x2="351.16" y2="226.69"/><line class="f" x1="351.16" y1="226.69" x2="354.52" y2="228.07"/><line class="f" x1="354.52" y1="228.07" x2="357.41" y2="230.26"/><line class="f" x1="357.41" y1="230.26" x2="359.62" y2="233.12"/><line class="f" x1="359.62" y1="233.12" x2="361.02" y2="236.45"/><line class="f" x1="361.02" y1="236.45" x2="361.49" y2="240.02"/><line class="f" x1="361.49" y1="240.02" x2="361.02" y2="243.6"/><line class="f" x1="361.02" y1="243.6" x2="359.62" y2="246.93"/><line class="f" x1="359.62" y1="246.93" x2="357.41" y2="249.79"/><line class="f" x1="357.41" y1="249.79" x2="354.52" y2="251.98"/><line class="f" x1="354.52" y1="251.98" x2="351.16" y2="253.36"/><line class="f" x1="351.16" y1="253.36" x2="347.55" y2="253.83"/><line class="f" x1="347.55" y1="253.83" x2="343.95" y2="253.36"/><line class="f" x1="343.95" y1="253.36" x2="340.58" y2="251.98"/><line class="f" x1="340.58" y1="251.98" x2="337.7" y2="249.79"/><line class="f" x1="337.7" y1="249.79" x2="335.48" y2="246.93"/><line class="f" x1="335.48" y1="246.93" x2="334.09" y2="243.6"/><line class="f" x1="334.09" y1="243.6" x2="333.61" y2="240.02"/><g class="g"><path class="f" d="M347.55,226.22h0a13.81,13.81,0,1,1,0,27.61"/><path class="f" d="M347.55,253.83h0a13.81,13.81,0,1,1,0-27.61"/></g><line class="f" x1="330.58" y1="226.33" x2="327.1" y2="232.31"/><line class="f" x1="326.86" y1="236.16" x2="333.61" y2="240.02"/><line class="f" x1="329.07" y1="225.47" x2="325.59" y2="231.45"/><line class="f" x1="340.58" y1="228.07" x2="333.83" y2="224.21"/><line class="f" x1="368.01" y1="232.31" x2="364.52" y2="226.33"/><line class="f" x1="361.27" y1="224.21" x2="354.52" y2="228.07"/><line class="f" x1="369.52" y1="231.45" x2="366.03" y2="225.47"/><line class="f" x1="361.49" y1="240.02" x2="368.24" y2="236.16"/><line class="f" x1="344.07" y1="261.42" x2="351.04" y2="261.42"/><line class="f" x1="354.52" y1="259.7" x2="354.52" y2="251.98"/><line class="f" x1="344.07" y1="263.15" x2="351.04" y2="263.15"/><line class="f" x1="340.58" y1="251.98" x2="340.58" y2="259.7"/><g class="g"><path class="f" d="M327.73,234.67a1.73,1.73,0,0,1-.86-1.49,1.67,1.67,0,0,1,.23-.87"/><path class="f" d="M330.58,226.33a1.76,1.76,0,0,1,2.38-.63"/><path class="f" d="M326.86,236.17a3.47,3.47,0,0,1-1.74-3,3.41,3.41,0,0,1,.47-1.73"/><path class="f" d="M329.07,225.47a3.5,3.5,0,0,1,3-1.73,3.44,3.44,0,0,1,1.74.47"/><path class="f" d="M362.14,225.7a1.76,1.76,0,0,1,2.38.63"/><path class="f" d="M368,232.31a1.77,1.77,0,0,1,.23.87,1.72,1.72,0,0,1-.87,1.49"/><path class="f" d="M361.27,224.21a3.44,3.44,0,0,1,1.74-.47,3.48,3.48,0,0,1,3,1.73"/><path class="f" d="M369.52,231.45a3.5,3.5,0,0,1,.46,1.73,3.45,3.45,0,0,1-1.74,3"/><path class="f" d="M352.78,259.7h0a1.73,1.73,0,0,1-1.74,1.72"/><path class="f" d="M344.07,261.42h0a1.73,1.73,0,0,1-1.74-1.72"/><path class="f" d="M354.52,259.7h0a3.47,3.47,0,0,1-3.48,3.45"/><path class="f" d="M344.07,263.15h0a3.48,3.48,0,0,1-3.49-3.45"/></g><rect class="d" x="224.15" y="177.37" width="49.73" height="20.74"/><line class="f" x1="224.15" y1="177.38" x2="273.88" y2="177.38"/><line class="f" x1="273.88" y1="177.38" x2="273.88" y2="198.11"/><line class="f" x1="273.88" y1="198.11" x2="224.15" y2="198.11"/><line class="f" x1="224.15" y1="198.11" x2="224.15" y2="177.38"/><line class="f" x1="226.64" y1="187.74" x2="271.4" y2="187.74"/><line class="f" x1="228.95" y1="181.64" x2="233.15" y2="194.07"/><line class="f" x1="233.69" y1="181.03" x2="235.43" y2="192.58"/><line class="f" x1="240.16" y1="195.22" x2="241.59" y2="182.54"/><line class="f" x1="247.5" y1="193.56" x2="245.56" y2="182.54"/><line class="f" x1="250.17" y1="194.19" x2="250.17" y2="180.61"/><line class="f" x1="257.73" y1="194.25" x2="255.94" y2="180.83"/><line class="f" x1="260.56" y1="194.03" x2="260.56" y2="181.77"/><line class="f" x1="268.02" y1="194.15" x2="269.45" y2="181.58"/><line class="f" x1="266.22" y1="193.29" x2="264.77" y2="182.67"/><rect class="d" x="203.29" y="198.11" width="20.87" height="43.2"/><line class="f" x1="203.29" y1="241.32" x2="203.29" y2="198.11"/><line class="f" x1="203.29" y1="198.11" x2="224.15" y2="198.11"/><line class="f" x1="224.15" y1="198.11" x2="224.15" y2="241.32"/><line class="f" x1="224.15" y1="241.32" x2="203.29" y2="241.32"/><line class="f" x1="213.72" y1="239.16" x2="213.72" y2="200.27"/><line class="f" x1="207.58" y1="237.15" x2="220.08" y2="233.5"/><line class="f" x1="206.96" y1="233.03" x2="218.59" y2="231.52"/><line class="f" x1="221.24" y1="227.41" x2="208.48" y2="226.16"/><line class="f" x1="219.57" y1="221.03" x2="208.48" y2="222.72"/><line class="f" x1="220.2" y1="218.71" x2="206.54" y2="218.71"/><line class="f" x1="220.26" y1="212.15" x2="206.76" y2="213.71"/><line class="f" x1="220.04" y1="209.69" x2="207.71" y2="209.69"/><line class="f" x1="220.16" y1="203.21" x2="207.52" y2="201.96"/><line class="f" x1="219.3" y1="204.77" x2="208.61" y2="206.03"/><g class="g"><path class="f" d="M550.7,182.56a.52.52,0,0,1,.52.52"/></g><g class="g"><path class="f" d="M551.22,197.25a.52.52,0,0,1-.52.52"/></g><g class="g"><path class="f" d="M532.62,197.77a.52.52,0,0,1-.52-.52"/></g><g class="g"><path class="f" d="M532.1,183.08a.52.52,0,0,1,.52-.52"/></g><g class="g"><path class="f" d="M533.14,186.88a.52.52,0,0,1,.52-.52"/><path class="f" d="M533.66,196.73a.52.52,0,0,1-.52-.52"/><path class="f" d="M550.18,196.21a.52.52,0,0,1-.52.52"/><path class="f" d="M549.66,186.36a.52.52,0,0,1,.52.52"/></g><g class="g"><path class="f" d="M542.39,186.08a.76.76,0,0,1-.11.33"/></g><g class="g"><path class="f" d="M542.05,188.24a.39.39,0,0,1-.78,0"/></g><g class="g"><path class="f" d="M541,186.41a.76.76,0,0,1-.11-.33"/></g><g class="g"><path class="f" d="M540.79,184.63a.87.87,0,0,1,1.74,0"/></g><g class="g"><path class="f" d="M542.13,186a.47.47,0,1,1-.94,0"/><path class="f" d="M542.28,186.41a.74.74,0,0,1-1.24,0"/></g><rect class="d" x="203.29" y="293.51" width="24.34" height="41.48"/><polygon class="d" points="227.63 321.57 227.63 306.93 237.02 306.93 238.76 307.39 240.03 308.65 240.5 310.38 240.5 318.12 240.03 319.84 238.76 321.11 237.02 321.57 227.63 321.57"/><line class="f" x1="203.29" y1="293.51" x2="227.63" y2="293.51"/><line class="f" x1="227.63" y1="293.51" x2="227.63" y2="334.99"/><line class="f" x1="227.63" y1="334.99" x2="203.29" y2="334.99"/><line class="f" x1="203.29" y1="334.99" x2="203.29" y2="293.51"/><line class="f" x1="240.5" y1="310.38" x2="240.5" y2="318.12"/><line class="f" x1="237.02" y1="321.57" x2="227.63" y2="321.57"/><line class="f" x1="238.76" y1="310.38" x2="238.76" y2="318.12"/><line class="f" x1="227.63" y1="306.93" x2="237.02" y2="306.93"/><g class="g"><path class="f" d="M237,306.93a3.47,3.47,0,0,1,3.48,3.45"/><path class="f" d="M240.5,318.12a3.47,3.47,0,0,1-3.48,3.45"/><path class="f" d="M237,308.65a1.74,1.74,0,0,1,1.74,1.73"/><path class="f" d="M238.76,318.12a1.73,1.73,0,0,1-1.74,1.72"/></g><polygon class="d" points="512.68 199.49 510.71 198.46 509.49 197.22 508.72 195.67 508.45 193.97 508.45 182.56 521.32 182.56 521.32 193.97 521.05 195.67 520.27 197.22 519.06 198.46 517.08 199.49 514.88 199.84 512.68 199.49"/><line class="f" x1="508.45" y1="182.56" x2="508.45" y2="193.97"/><line class="f" x1="508.45" y1="182.56" x2="521.32" y2="182.56"/><line class="f" x1="510.54" y1="186.71" x2="510.54" y2="193.97"/><line class="f" x1="519.23" y1="186.71" x2="510.54" y2="186.71"/><g class="g"><path class="f" d="M510.71,198.46a5.59,5.59,0,0,1-2.26-4.49"/><path class="f" d="M521.32,194a5.62,5.62,0,0,1-2.26,4.49"/><path class="f" d="M519.06,198.46a7,7,0,0,1-8.35,0"/><path class="f" d="M521.32,194a5.62,5.62,0,0,1-2.26,4.49"/><path class="f" d="M519.06,198.46a7,7,0,0,1-4.18,1.38"/><path class="f" d="M519.23,194a3.53,3.53,0,0,1-1.43,2.83"/><path class="f" d="M517.8,196.8a4.88,4.88,0,0,1-5.84,0"/><path class="f" d="M512,196.8a3.52,3.52,0,0,1-1.42-2.83"/></g><rect class="d" x="418.9" y="245.47" width="20.87" height="51.33"/><line class="f" x1="418.9" y1="296.79" x2="418.9" y2="245.47"/><line class="f" x1="418.9" y1="245.47" x2="439.77" y2="245.47"/><line class="f" x1="439.77" y1="245.47" x2="439.77" y2="296.79"/><line class="f" x1="439.77" y1="296.79" x2="418.9" y2="296.79"/><line class="f" x1="429.33" y1="294.23" x2="429.33" y2="248.03"/><line class="f" x1="423.19" y1="291.85" x2="435.7" y2="287.5"/><line class="f" x1="422.57" y1="286.95" x2="434.2" y2="285.16"/><line class="f" x1="436.86" y1="280.27" x2="424.09" y2="278.79"/><line class="f" x1="435.18" y1="272.69" x2="424.09" y2="274.7"/><line class="f" x1="435.82" y1="269.94" x2="422.16" y2="269.94"/><line class="f" x1="435.88" y1="262.14" x2="422.37" y2="263.99"/><line class="f" x1="435.65" y1="259.21" x2="423.32" y2="259.21"/><line class="f" x1="435.78" y1="251.52" x2="423.13" y2="250.04"/><line class="f" x1="434.91" y1="253.37" x2="424.23" y2="254.87"/><rect class="d" x="418.9" y="296.79" width="20.87" height="52.02"/><line class="f" x1="418.9" y1="348.81" x2="418.9" y2="296.79"/><line class="f" x1="418.9" y1="296.79" x2="439.77" y2="296.79"/><line class="f" x1="439.77" y1="296.79" x2="439.77" y2="348.81"/><line class="f" x1="439.77" y1="348.81" x2="418.9" y2="348.81"/><line class="f" x1="429.33" y1="346.21" x2="429.33" y2="299.39"/><line class="f" x1="423.19" y1="343.8" x2="435.7" y2="339.4"/><line class="f" x1="422.57" y1="338.84" x2="434.2" y2="337.02"/><line class="f" x1="436.86" y1="332.06" x2="424.09" y2="330.57"/><line class="f" x1="435.18" y1="324.39" x2="424.09" y2="326.42"/><line class="f" x1="435.82" y1="321.6" x2="422.16" y2="321.6"/><line class="f" x1="435.88" y1="313.69" x2="422.37" y2="315.57"/><line class="f" x1="435.65" y1="310.73" x2="423.32" y2="310.73"/><line class="f" x1="435.78" y1="302.93" x2="423.13" y2="301.43"/><line class="f" x1="434.91" y1="304.8" x2="424.23" y2="306.33"/><line class="f" x1="227.63" y1="241.32" x2="234.58" y2="241.32"/><line class="f" x1="238.41" y1="241.32" x2="239.19" y2="241.32"/><line class="f" x1="243.02" y1="241.32" x2="243.8" y2="241.32"/><line class="f" x1="247.63" y1="241.32" x2="251.97" y2="241.32"/><line class="f" x1="251.97" y1="241.32" x2="258.93" y2="241.32"/><line class="f" x1="258.93" y1="243.74" x2="251.97" y2="243.74"/><line class="f" x1="248.15" y1="243.74" x2="247.36" y2="243.74"/><line class="f" x1="243.54" y1="243.74" x2="242.76" y2="243.74"/><line class="f" x1="238.93" y1="243.74" x2="234.58" y2="243.74"/><line class="f" x1="234.58" y1="243.74" x2="227.63" y2="243.74"/><line class="f" x1="425.85" y1="177.38" x2="432.81" y2="177.38"/><line class="f" x1="436.64" y1="177.38" x2="437.42" y2="177.38"/><line class="f" x1="441.24" y1="177.38" x2="442.03" y2="177.38"/><line class="f" x1="445.85" y1="177.38" x2="452.81" y2="177.38"/><line class="f" x1="456.63" y1="177.38" x2="457.15" y2="177.38"/><line class="f" x1="457.15" y1="177.38" x2="464.11" y2="177.38"/><line class="f" x1="334.66" y1="190.92" x2="334.66" y2="185.12"/><line class="f" x1="334.66" y1="185.12" x2="332.3" y2="187.02"/><line class="f" x1="332.3" y1="187.02" x2="329.93" y2="185.12"/><line class="f" x1="329.93" y1="185.12" x2="329.93" y2="190.92"/><line class="f" x1="194.46" y1="169.08" x2="194.46" y2="362.64"/><line class="f" x1="194.46" y1="362.64" x2="196.33" y2="362.64"/><line class="f" x1="196.33" y1="362.64" x2="196.33" y2="449.05"/><line class="f" x1="196.33" y1="449.05" x2="592.65" y2="449.05"/><line class="f" x1="596.12" y1="169.08" x2="364.52" y2="169.08"/><line class="f" x1="364.52" y1="169.08" x2="290.44" y2="169.08"/><line class="f" x1="290.44" y1="169.08" x2="194.46" y2="169.08"/><path class="h" d="M430.65,385.7v7h-.72v-6.35h-1.65v-.64Z"/><path class="h" d="M432.33,392.19a.53.53,0,0,1,.53-.54.54.54,0,0,1,.54.54.55.55,0,0,1-.54.55A.54.54,0,0,1,432.33,392.19Z"/><path class="h" d="M434.34,389.19c0-2.22,1.17-3.55,2.79-3.55s2.8,1.33,2.8,3.55-1.18,3.56-2.8,3.56S434.34,391.42,434.34,389.19Zm4.85,0c0-1.87-.84-2.89-2.06-2.89s-2.06,1-2.06,2.89.84,2.9,2.06,2.9S439.19,391.06,439.19,389.19Z"/><path class="h" d="M445.83,385.7v.51l-2.93,6.48h-.78l2.88-6.35h-3.6v1.3h-.71V385.7Z"/><path class="h" d="M478.8,290.09v7h-.72v-6.36h-1.65v-.63Z"/><path class="h" d="M480.48,296.58A.53.53,0,0,1,481,296a.54.54,0,0,1,.54.54.55.55,0,0,1-.54.55A.54.54,0,0,1,480.48,296.58Z"/><path class="h" d="M482.49,293.58c0-2.23,1.17-3.55,2.79-3.55s2.8,1.32,2.8,3.55-1.18,3.56-2.8,3.56S482.49,295.81,482.49,293.58Zm4.85,0c0-1.87-.84-2.9-2.06-2.9s-2.06,1-2.06,2.9.84,2.9,2.06,2.9S487.34,295.45,487.34,293.58Z"/><path class="h" d="M493.86,295c0,1.19-.83,2.12-2.54,2.12a3.61,3.61,0,0,1-2.51-.9l.35-.57a3,3,0,0,0,2.15.81c1.19,0,1.82-.58,1.82-1.43s-.56-1.46-2.34-1.46H489.3l.36-3.5h3.83v.63h-3.2l-.24,2.23h.9C493.06,293,493.86,293.78,493.86,295Z"/><path class="h" d="M235.37,271.66v7h-.72V272.3H233v-.64Z"/><path class="h" d="M237.05,278.15a.53.53,0,0,1,.53-.54.54.54,0,0,1,.54.54.55.55,0,0,1-.54.55A.54.54,0,0,1,237.05,278.15Z"/><path class="h" d="M239.06,275.15c0-2.23,1.17-3.55,2.79-3.55s2.8,1.32,2.8,3.55-1.18,3.56-2.8,3.56S239.06,277.38,239.06,275.15Zm4.85,0c0-1.87-.84-2.89-2.06-2.89s-2.06,1-2.06,2.89.84,2.9,2.06,2.9S243.91,277,243.91,275.15Z"/><path class="h" d="M251.63,276.81h-1.4v1.84h-.72v-1.84h-3.95v-.52l3.71-4.63h.8l-3.58,4.51h3v-1.62h.7v1.62h1.4Z"/><path class="h" d="M235.37,214v7h-.72v-6.36H233V214Z"/><path class="h" d="M237.05,220.47a.53.53,0,0,1,.53-.54.54.54,0,0,1,.54.54.55.55,0,0,1-.54.55A.54.54,0,0,1,237.05,220.47Z"/><path class="h" d="M239.06,217.47c0-2.23,1.17-3.55,2.79-3.55s2.8,1.32,2.8,3.55-1.18,3.56-2.8,3.56S239.06,219.7,239.06,217.47Zm4.85,0c0-1.87-.84-2.9-2.06-2.9s-2.06,1-2.06,2.9.84,2.9,2.06,2.9S243.91,219.34,243.91,217.47Z"/><path class="h" d="M250.22,219c0,1.17-.85,2.07-2.54,2.07a3.64,3.64,0,0,1-2.52-.9l.35-.57a3.07,3.07,0,0,0,2.17.81c1.16,0,1.8-.54,1.8-1.41s-.59-1.39-1.89-1.39h-.5V217l1.94-2.43h-3.58V214H250v.51L248,217C249.47,217.05,250.22,217.84,250.22,219Z"/><path class="h" d="M352.8,290.58v7h-.72v-6.35h-1.65v-.64Z"/><path class="h" d="M354.48,297.07a.53.53,0,0,1,.53-.54.54.54,0,0,1,.54.54.55.55,0,0,1-.54.55A.54.54,0,0,1,354.48,297.07Z"/><path class="h" d="M356.49,294.07c0-2.23,1.17-3.55,2.79-3.55s2.8,1.32,2.8,3.55-1.18,3.56-2.8,3.56S356.49,296.3,356.49,294.07Zm4.85,0c0-1.87-.84-2.9-2.06-2.9s-2.06,1-2.06,2.9.84,2.9,2.06,2.9S361.34,295.94,361.34,294.07Z"/><path class="h" d="M367.88,296.93v.64H363v-.51l2.91-2.85c.79-.78.94-1.25.94-1.73,0-.81-.57-1.31-1.64-1.31a2.38,2.38,0,0,0-1.91.78l-.51-.44a3.17,3.17,0,0,1,2.48-1c1.42,0,2.32.71,2.32,1.88a2.88,2.88,0,0,1-1.15,2.19L364,296.93Z"/><path class="h" d="M434.09,214v7h-.72v-6.36h-1.65V214Z"/><path class="h" d="M435.77,220.47a.53.53,0,0,1,.53-.54.54.54,0,0,1,.54.54.55.55,0,0,1-.54.55A.54.54,0,0,1,435.77,220.47Z"/><path class="h" d="M437.78,217.47c0-2.23,1.17-3.55,2.79-3.55s2.8,1.32,2.8,3.55-1.18,3.56-2.8,3.56S437.78,219.7,437.78,217.47Zm4.85,0c0-1.87-.84-2.9-2.06-2.9s-2.06,1-2.06,2.9.84,2.9,2.06,2.9S442.63,219.34,442.63,217.47Z"/><path class="h" d="M446.33,214v7h-.72v-6.36H444V214Z"/></svg>