<svg xmlns="http://www.w3.org/2000/svg" xmlns:xlink="http://www.w3.org/1999/xlink" viewBox="0 0 790.58 618.13"><defs><style>.a,.f{fill:none;}.b{fill:#595a5c;}.c{fill:#b6906c;}.d,.g{fill:#fff;}.e{fill:#231f20;}.f{stroke:#000;stroke-linecap:round;stroke-linejoin:round;stroke-width:0.34px;}.g,.h{fill-rule:evenodd;}.i{clip-path:url(#a);}.j{fill:#58595b;}</style><clipPath id="a"><polygon class="a" points="235.82 185.87 235.82 377.5 239.93 377.5 239.93 432.26 515.41 432.26 515.41 377.5 554.76 377.5 554.76 185.87 235.82 185.87"/></clipPath></defs><path class="b" d="M55.31,597.13H57.1V609.9H55.31Zm.92,6.11h4.09a1.89,1.89,0,0,0,1-.27,1.82,1.82,0,0,0,.68-.77,2.67,2.67,0,0,0,.24-1.16,2.7,2.7,0,0,0-.24-1.16,1.82,1.82,0,0,0-1.7-1H56.23v-1.7h4a4.09,4.09,0,0,1,2,.48A3.45,3.45,0,0,1,63.62,599a4.64,4.64,0,0,1,0,4.11,3.34,3.34,0,0,1-1.35,1.36,4,4,0,0,1-2,.49h-4Z"/><path class="b" d="M67.7,606.33a2.07,2.07,0,0,0,.49,1.48,1.76,1.76,0,0,0,1.37.52,1.89,1.89,0,0,0,1.37-.46,1.79,1.79,0,0,0,.48-1.33l.12,1.91A2.58,2.58,0,0,1,69.06,610a2.89,2.89,0,0,1-2.33-1,4.08,4.08,0,0,1-.82-2.73v-5.55H67.7Zm.22-7.86a1.93,1.93,0,0,1-.56-1.5,2.07,2.07,0,0,1,.56-1.57,2.56,2.56,0,0,1,3.18,0,2.08,2.08,0,0,1,.57,1.56,1.94,1.94,0,0,1-.57,1.5,2.65,2.65,0,0,1-3.18,0Zm2.26-.86a.94.94,0,0,0,.24-.68,1,1,0,0,0-.24-.7.91.91,0,0,0-.67-.25.92.92,0,0,0-.67.25,1,1,0,0,0-.23.7,1,1,0,0,0,.23.68.92.92,0,0,0,.67.24A.9.9,0,0,0,70.18,597.61Zm1.23,3.17h1.78v9.12H71.41Z"/><path class="b" d="M77.1,609.63A2.82,2.82,0,0,1,76,608.36a5.08,5.08,0,0,1-.36-2v-2a5.05,5.05,0,0,1,.36-2,2.71,2.71,0,0,1,1-1.27,3,3,0,0,1,1.65-.44,2.71,2.71,0,0,1,1.48.42,3.22,3.22,0,0,1,1.09,1.19l-.18,1.86a2.19,2.19,0,0,0-.22-1,1.48,1.48,0,0,0-.61-.63,2,2,0,0,0-1-.21,1.71,1.71,0,0,0-1.37.55,2.26,2.26,0,0,0-.49,1.56v2a2.19,2.19,0,0,0,.49,1.54,1.74,1.74,0,0,0,1.37.54,1.93,1.93,0,0,0,1-.23,1.45,1.45,0,0,0,.61-.64,2.25,2.25,0,0,0,.22-1l.12,1.92a2.66,2.66,0,0,1-.89,1.14,2.56,2.56,0,0,1-1.53.45A3.19,3.19,0,0,1,77.1,609.63Zm4-12.5H82.9V609.9H81.11Z"/><path class="b" d="M87.09,609.57a3.09,3.09,0,0,1-1.29-1.36,4.85,4.85,0,0,1-.44-2.15v-1.48a4.71,4.71,0,0,1,.44-2.12,3.12,3.12,0,0,1,1.29-1.35,4.71,4.71,0,0,1,4.06,0,3.12,3.12,0,0,1,1.29,1.35,4.71,4.71,0,0,1,.44,2.12v1.51a4.79,4.79,0,0,1-.44,2.13,3.12,3.12,0,0,1-1.29,1.35,4.62,4.62,0,0,1-4.06,0Zm3.49-1.83a2.43,2.43,0,0,0,.51-1.65v-1.51a2.43,2.43,0,0,0-.51-1.65,1.88,1.88,0,0,0-1.46-.58,1.85,1.85,0,0,0-1.45.58,2.38,2.38,0,0,0-.52,1.65v1.51a2.38,2.38,0,0,0,.52,1.65,1.82,1.82,0,0,0,1.45.59A1.85,1.85,0,0,0,90.58,607.74Z"/><path class="b" d="M95.43,600.78h1.79v9.12H95.43Zm4.42,1.72a2.16,2.16,0,0,0-.83-.15,1.83,1.83,0,0,0-1.33.47,1.79,1.79,0,0,0-.47,1.31L97,602.37a3.32,3.32,0,0,1,1.09-1.27,2.58,2.58,0,0,1,1.48-.45,3.39,3.39,0,0,1,1.13.18,2.62,2.62,0,0,1,.88.53l-1.17,1.58A1.56,1.56,0,0,0,99.85,602.5Z"/><path class="b" d="M102.15,600.78H104l2.81,7.93-1,1.94Zm8.07,0L106.34,612a2.6,2.6,0,0,1-.56,1,1.87,1.87,0,0,1-.84.52,4,4,0,0,1-1.23.16h-.36V612h.36a1.46,1.46,0,0,0,.8-.2,1.74,1.74,0,0,0,.51-.7l3.38-10.31Z"/><path class="b" d="M113.51,609.88a5.76,5.76,0,0,1-1.32-.48,4.89,4.89,0,0,1-1.13-.79l1.06-1.31a5.86,5.86,0,0,0,1.47.85,4.18,4.18,0,0,0,1.44.28,3.11,3.11,0,0,0,1.6-.33,1.1,1.1,0,0,0,.53-1,.79.79,0,0,0-.29-.66,1.66,1.66,0,0,0-.72-.29c-.29,0-.69-.1-1.22-.14h-.15l-.14,0h-.15a6.45,6.45,0,0,1-1.5-.26,2,2,0,0,1-1-.7,2.38,2.38,0,0,1-.41-1.49,3.07,3.07,0,0,1,.39-1.61,2.41,2.41,0,0,1,1.18-1,5.29,5.29,0,0,1,2-.32,6.38,6.38,0,0,1,2.6.52,6.16,6.16,0,0,1,1.13.66l-1.08,1.31a5.59,5.59,0,0,0-1.35-.66,4,4,0,0,0-1.3-.22,2.44,2.44,0,0,0-1.37.31,1.08,1.08,0,0,0-.46.94.64.64,0,0,0,.26.55,1.72,1.72,0,0,0,.66.25c.26,0,.64.07,1.12.1h.34a7.67,7.67,0,0,1,1.63.25,2.24,2.24,0,0,1,1.13.77,2.62,2.62,0,0,1,.45,1.65,2.92,2.92,0,0,1-.42,1.63,2.54,2.54,0,0,1-1.27,1A5.88,5.88,0,0,1,115,610,7.38,7.38,0,0,1,113.51,609.88Z"/><path class="b" d="M126,597.13h1.8V609.9H126Zm2.6,12.5a2.39,2.39,0,0,1-.93-1.16l.13-1.91a2.22,2.22,0,0,0,.21,1,1.48,1.48,0,0,0,.61.63,1.93,1.93,0,0,0,1,.22,1.74,1.74,0,0,0,1.37-.54,2.18,2.18,0,0,0,.49-1.53v-2a2.26,2.26,0,0,0-.49-1.56,1.71,1.71,0,0,0-1.37-.55,2,2,0,0,0-1,.21,1.36,1.36,0,0,0-.61.62,2.12,2.12,0,0,0-.21,1l-.19-1.76a3.37,3.37,0,0,1,1.08-1.24,2.67,2.67,0,0,1,1.49-.43,3,3,0,0,1,1.65.43,2.9,2.9,0,0,1,1.06,1.27,5.1,5.1,0,0,1,.36,2v2a4.94,4.94,0,0,1-.37,2,2.79,2.79,0,0,1-1.08,1.26,3.25,3.25,0,0,1-1.71.44A2.73,2.73,0,0,1,128.57,609.63Z"/><path class="b" d="M134.46,600.78h1.82l2.81,7.93-1,1.94Zm8.07,0L138.65,612a2.6,2.6,0,0,1-.56,1,1.87,1.87,0,0,1-.84.52,4,4,0,0,1-1.23.16h-.36V612H136a1.46,1.46,0,0,0,.8-.2,1.74,1.74,0,0,0,.51-.7l3.37-10.31Z"/><path class="b" d="M143.57,600.78h4.12v1.62h-4.12Zm1.46,8.56a2.77,2.77,0,0,1-.52-1.81v-9.4h1.8v9.42a.84.84,0,0,0,.13.51.46.46,0,0,0,.39.18h.86V610h-1A2,2,0,0,1,145,609.34Z"/><path class="b" d="M151.94,606.33a2.07,2.07,0,0,0,.49,1.48,1.76,1.76,0,0,0,1.37.52,1.91,1.91,0,0,0,1.37-.46,1.79,1.79,0,0,0,.48-1.33l.12,1.91A2.58,2.58,0,0,1,153.3,610a2.89,2.89,0,0,1-2.33-1,4.08,4.08,0,0,1-.82-2.73v-5.55h1.79Zm3.71-5.55h1.78v9.12h-1.78Z"/><rect class="c" x="612.92" y="591.68" width="35.43" height="2.83"/><path class="d" d="M648.48,594.64H612.79v-3.08h35.69ZM613,594.39h35.19v-2.58H613Z"/><rect class="c" x="612.92" y="601.6" width="70.74" height="2.83"/><path class="d" d="M683.78,604.56h-71v-3.08h71ZM613,604.31h70.49v-2.58H613Z"/><rect class="c" x="612.92" y="612.72" width="177.16" height="2.84"/><path class="d" d="M790.21,615.68H612.79V612.6H790.21ZM613,615.43H790v-2.58H613Z"/><path class="e" d="M587.26,596.28h-.8v-4.82l-.81.5v-.83l.81-.53h.8Z"/><path class="e" d="M589,595.91a1.67,1.67,0,0,1-.41-1.19v-2.58A1.65,1.65,0,0,1,589,591a2,2,0,0,1,2.42,0,1.65,1.65,0,0,1,.41,1.19v2.58a1.65,1.65,0,0,1-.41,1.19,2,2,0,0,1-2.42,0Zm1.83-.55a.89.89,0,0,0,.2-.64v-2.58a.89.89,0,0,0-.2-.64.82.82,0,0,0-.62-.22.86.86,0,0,0-.63.22.94.94,0,0,0-.2.64v2.58a.9.9,0,0,0,.21.64,1,1,0,0,0,1.24,0Z"/><path class="e" d="M593.22,595.91a1.67,1.67,0,0,1-.41-1.19v-2.58a1.65,1.65,0,0,1,.41-1.19,2,2,0,0,1,2.42,0,1.61,1.61,0,0,1,.41,1.19v2.58a1.65,1.65,0,0,1-.41,1.19,2,2,0,0,1-2.42,0Zm1.83-.55a.9.9,0,0,0,.21-.64v-2.58a.94.94,0,0,0-.2-.64.86.86,0,0,0-.63-.22.82.82,0,0,0-.62.22.89.89,0,0,0-.2.64v2.58a.89.89,0,0,0,.2.64,1,1,0,0,0,1.24,0Z"/><path class="e" d="M600.1,596.13a1.45,1.45,0,0,1-.6-.6,2.06,2.06,0,0,1-.21-1v-.67a2,2,0,0,1,.21-.94,1.37,1.37,0,0,1,.6-.59,2,2,0,0,1,.95-.21,2.21,2.21,0,0,1,.59.08,1.68,1.68,0,0,1,.51.22,1.54,1.54,0,0,1,.37.35l-.58.52a1.17,1.17,0,0,0-.4-.3,1.13,1.13,0,0,0-.48-.11.94.94,0,0,0-.71.26,1,1,0,0,0-.26.72v.67a1,1,0,0,0,.25.74.94.94,0,0,0,.72.27,1,1,0,0,0,.48-.12,1,1,0,0,0,.4-.32l.58.56a1.38,1.38,0,0,1-.38.34,1.62,1.62,0,0,1-.5.22,2.27,2.27,0,0,1-.59.07A2.12,2.12,0,0,1,600.1,596.13Z"/><path class="e" d="M603.4,592.22h.79v4.06h-.79Zm2.42,1.6a1,1,0,0,0-.21-.67.78.78,0,0,0-.6-.23.81.81,0,0,0-.6.21.73.73,0,0,0-.22.58l-.08-.78a1.46,1.46,0,0,1,.49-.57,1.22,1.22,0,0,1,.67-.2,1.33,1.33,0,0,1,.73.2,1.18,1.18,0,0,1,.46.56,2.4,2.4,0,0,1,.15.89v2.47h-.79Zm2.42,0a.93.93,0,0,0-.22-.67.85.85,0,0,0-.63-.23.72.72,0,0,0-.57.23.9.9,0,0,0-.21.64l-.16-.78a1.61,1.61,0,0,1,.51-.63,1.23,1.23,0,0,1,.69-.22,1.37,1.37,0,0,1,.75.2,1.09,1.09,0,0,1,.47.56,2.21,2.21,0,0,1,.17.89v2.47h-.8Z"/><path class="e" d="M584.33,605.5l2-2.64a1.85,1.85,0,0,0,.27-.47,1.29,1.29,0,0,0,.09-.45h0a.67.67,0,0,0-.2-.53.81.81,0,0,0-.56-.19.76.76,0,0,0-.56.21,1,1,0,0,0-.27.58h-.82a2,2,0,0,1,.29-.83,1.42,1.42,0,0,1,.56-.53,1.67,1.67,0,0,1,.79-.18,1.93,1.93,0,0,1,.87.17,1.21,1.21,0,0,1,.54.51,1.55,1.55,0,0,1,.19.8h0a1.84,1.84,0,0,1-.12.63,2.8,2.8,0,0,1-.35.63l-1.65,2.24h2.15v.76h-3.2Z"/><path class="e" d="M589,605.83a1.67,1.67,0,0,1-.41-1.19v-2.58a1.65,1.65,0,0,1,.41-1.19,2,2,0,0,1,2.42,0,1.65,1.65,0,0,1,.41,1.19v2.58a1.65,1.65,0,0,1-.41,1.19,2,2,0,0,1-2.42,0Zm1.83-.55a.89.89,0,0,0,.2-.64v-2.58a.89.89,0,0,0-.2-.64.82.82,0,0,0-.62-.22.86.86,0,0,0-.63.22.94.94,0,0,0-.19.64v2.58a.89.89,0,0,0,.2.64,1,1,0,0,0,1.24,0Z"/><path class="e" d="M593.22,605.83a1.67,1.67,0,0,1-.41-1.19v-2.58a1.61,1.61,0,0,1,.42-1.19,1.59,1.59,0,0,1,1.2-.42,1.45,1.45,0,0,1,1.62,1.61v2.58a1.61,1.61,0,0,1-.41,1.19,2,2,0,0,1-2.42,0Zm1.84-.55a.94.94,0,0,0,.2-.64v-2.58a.94.94,0,0,0-.2-.64.84.84,0,0,0-.63-.22.82.82,0,0,0-.62.22.89.89,0,0,0-.2.64v2.58a.89.89,0,0,0,.2.64.82.82,0,0,0,.62.22A.86.86,0,0,0,595.06,605.28Z"/><path class="e" d="M600.1,606.05a1.45,1.45,0,0,1-.6-.6,2.06,2.06,0,0,1-.2-1v-.67a2,2,0,0,1,.2-.94,1.37,1.37,0,0,1,.6-.59,2,2,0,0,1,.95-.21,2.35,2.35,0,0,1,.6.08,1.73,1.73,0,0,1,.5.22,1.38,1.38,0,0,1,.37.35l-.58.52a1.08,1.08,0,0,0-.4-.3,1.13,1.13,0,0,0-.48-.11,1,1,0,0,0-.71.26,1,1,0,0,0-.26.72v.67a1,1,0,0,0,.25.74.94.94,0,0,0,.72.27,1.14,1.14,0,0,0,.88-.44l.58.56a1.38,1.38,0,0,1-.38.34,1.62,1.62,0,0,1-.5.22,2.22,2.22,0,0,1-.59.07A2.12,2.12,0,0,1,600.1,606.05Z"/><path class="e" d="M603.4,602.14h.79v4.06h-.79Zm2.42,1.6a1,1,0,0,0-.21-.67.78.78,0,0,0-.6-.23.81.81,0,0,0-.6.21.73.73,0,0,0-.22.58l-.08-.78a1.46,1.46,0,0,1,.49-.57,1.22,1.22,0,0,1,.67-.2,1.3,1.3,0,0,1,.73.2,1.18,1.18,0,0,1,.46.56,2.4,2.4,0,0,1,.16.89v2.47h-.8Zm2.42,0a.93.93,0,0,0-.22-.67.85.85,0,0,0-.63-.23.73.73,0,0,0-.57.23.89.89,0,0,0-.2.64l-.16-.78a1.51,1.51,0,0,1,.5-.63,1.23,1.23,0,0,1,.69-.22,1.35,1.35,0,0,1,.75.2,1.16,1.16,0,0,1,.48.56,2.4,2.4,0,0,1,.16.89v2.47h-.8Z"/><path class="e" d="M585,615.58a1.34,1.34,0,0,1-.54-.49,2,2,0,0,1-.28-.77h.8a.75.75,0,0,0,.25.49.85.85,0,0,0,.54.17.72.72,0,0,0,.59-.25,1.1,1.1,0,0,0,.21-.72v-.48a1.1,1.1,0,0,0-.21-.72.72.72,0,0,0-.59-.25.83.83,0,0,0-.4.11,1.18,1.18,0,0,0-.34.33h-.72v-3h2.89v.76h-2.1V612a1,1,0,0,1,.34-.18.94.94,0,0,1,.37-.07,1.68,1.68,0,0,1,.84.2,1.29,1.29,0,0,1,.53.6,2.07,2.07,0,0,1,.19.94V614a2.25,2.25,0,0,1-.19.94,1.31,1.31,0,0,1-.55.59,1.69,1.69,0,0,1-.86.21A1.74,1.74,0,0,1,585,615.58Z"/><path class="e" d="M589,615.32a1.65,1.65,0,0,1-.41-1.19v-2.58a1.67,1.67,0,0,1,.41-1.19,2,2,0,0,1,2.42,0,1.65,1.65,0,0,1,.41,1.19v2.58a1.64,1.64,0,0,1-.41,1.19,1.92,1.92,0,0,1-2.42,0Zm1.83-.55a.89.89,0,0,0,.2-.64v-2.58a.88.88,0,0,0-.2-.63.78.78,0,0,0-.62-.22.82.82,0,0,0-.63.22.93.93,0,0,0-.2.63v2.58a.9.9,0,0,0,.21.64,1,1,0,0,0,1.24,0Z"/><path class="e" d="M593.22,615.32a1.65,1.65,0,0,1-.41-1.19v-2.58a1.67,1.67,0,0,1,.41-1.19,2,2,0,0,1,2.42,0,1.61,1.61,0,0,1,.41,1.19v2.58a1.64,1.64,0,0,1-.41,1.19,1.92,1.92,0,0,1-2.42,0Zm1.83-.55a.9.9,0,0,0,.21-.64v-2.58a.93.93,0,0,0-.2-.63.82.82,0,0,0-.63-.22.78.78,0,0,0-.62.22.88.88,0,0,0-.2.63v2.58a.89.89,0,0,0,.2.64,1,1,0,0,0,1.24,0Z"/><path class="e" d="M600.1,615.54a1.45,1.45,0,0,1-.6-.6,2,2,0,0,1-.21-1v-.67a2,2,0,0,1,.21-.94,1.45,1.45,0,0,1,.6-.6,2,2,0,0,1,.95-.2,2.22,2.22,0,0,1,.59.07,2,2,0,0,1,.51.22,1.76,1.76,0,0,1,.37.35l-.58.52a1.17,1.17,0,0,0-.4-.3,1.13,1.13,0,0,0-.48-.11.94.94,0,0,0-.71.26,1,1,0,0,0-.26.73V614a1.07,1.07,0,0,0,.25.74,1,1,0,0,0,.72.26,1.13,1.13,0,0,0,.48-.11,1.26,1.26,0,0,0,.4-.32l.58.55a1.42,1.42,0,0,1-.38.35,1.88,1.88,0,0,1-.5.21,2.27,2.27,0,0,1-.59.08A2,2,0,0,1,600.1,615.54Z"/><path class="e" d="M603.4,611.63h.79v4.06h-.79Zm2.42,1.6a1,1,0,0,0-.21-.66.75.75,0,0,0-.6-.24.81.81,0,0,0-.6.21.75.75,0,0,0-.22.58l-.08-.78a1.5,1.5,0,0,1,.49-.56,1.15,1.15,0,0,1,.67-.2,1.32,1.32,0,0,1,.73.19,1.28,1.28,0,0,1,.46.56,2.42,2.42,0,0,1,.15.9v2.46h-.79Zm2.42,0a.91.91,0,0,0-.22-.66.82.82,0,0,0-.63-.24.72.72,0,0,0-.57.23.9.9,0,0,0-.21.64l-.16-.78a1.51,1.51,0,0,1,.51-.62,1.16,1.16,0,0,1,.69-.22,1.37,1.37,0,0,1,.75.19,1.18,1.18,0,0,1,.47.56,2.22,2.22,0,0,1,.17.9v2.46h-.8Z"/><path class="c" d="M23.49,613.89A12.92,12.92,0,1,1,36.4,601,12.93,12.93,0,0,1,23.49,613.89Zm0-24.83A11.92,11.92,0,1,0,35.4,601,11.93,11.93,0,0,0,23.49,589.06Z"/><polygon class="d" points="35.77 588.74 9.42 600.98 35.77 613.21 32.02 600.98 35.77 588.74"/><path class="c" d="M36.58,614.14,8.23,601l28.35-13.17-4,13.17ZM10.61,601,35,612.29,31.5,601,35,589.66Z"/><path class="c" d="M2.52,605.19a5,5,0,0,1-1.11-.38,4.4,4.4,0,0,1-1-.64l.81-1a3.72,3.72,0,0,0,1.16.69,4.08,4.08,0,0,0,1.38.23,2.73,2.73,0,0,0,1.55-.38,1.17,1.17,0,0,0,.55-1.05h0a1.12,1.12,0,0,0-.25-.77,1.44,1.44,0,0,0-.64-.42,8.23,8.23,0,0,0-1-.25H3.89l-.1,0a9.48,9.48,0,0,1-1.5-.36,2.08,2.08,0,0,1-1-.73,2.42,2.42,0,0,1-.41-1.51h0a2.77,2.77,0,0,1,.38-1.47,2.44,2.44,0,0,1,1.12-.92,4.48,4.48,0,0,1,1.77-.32,4.6,4.6,0,0,1,1,.11,4.9,4.9,0,0,1,1.86.86l-.73,1a4.61,4.61,0,0,0-1-.58,3,3,0,0,0-1.06-.2,2.44,2.44,0,0,0-1.46.38,1.24,1.24,0,0,0-.53,1.07h0a1,1,0,0,0,.27.75,1.74,1.74,0,0,0,.67.4,9.3,9.3,0,0,0,1.12.27h.24a7.93,7.93,0,0,1,1.4.41,2.22,2.22,0,0,1,.94.76,2.4,2.4,0,0,1,.38,1.43h0a2.62,2.62,0,0,1-.4,1.45,2.54,2.54,0,0,1-1.16.91,4.8,4.8,0,0,1-1.83.31A6.44,6.44,0,0,1,2.52,605.19Z"/><rect class="c" x="612.5" y="600.68" width="1" height="4.68"/><rect class="c" x="612.5" y="590.76" width="1" height="4.68"/><rect class="c" x="612.5" y="611.45" width="1" height="5.24"/><rect class="c" x="789.58" y="611.45" width="1" height="5.24"/><rect class="c" x="682.59" y="600.68" width="1" height="4.68"/><rect class="c" x="647.3" y="590.76" width="1" height="4.68"/><rect class="a" width="790.34" height="618.13"/><line class="f" x1="238.56" y1="377.51" x2="235.82" y2="377.51"/><line class="f" x1="241.3" y1="428.84" x2="511.98" y2="428.84"/><line class="f" x1="241.3" y1="377.51" x2="241.3" y2="428.84"/><line class="f" x1="334.04" y1="377.51" x2="241.3" y2="377.51"/><line class="f" x1="334.04" y1="374.08" x2="334.04" y2="377.51"/><line class="f" x1="364.83" y1="374.08" x2="334.04" y2="374.08"/><line class="f" x1="364.83" y1="377.51" x2="364.83" y2="374.08"/><line class="f" x1="424.72" y1="377.51" x2="364.84" y2="377.51"/><line class="f" x1="424.72" y1="374.08" x2="424.72" y2="377.51"/><line class="f" x1="455.52" y1="374.08" x2="424.72" y2="374.08"/><line class="f" x1="455.52" y1="377.51" x2="455.52" y2="374.08"/><line class="f" x1="511.98" y1="377.51" x2="455.52" y2="377.51"/><line class="f" x1="511.98" y1="428.84" x2="511.98" y2="377.5"/><polygon class="g" points="525.67 194.08 546.21 194.08 546.21 256.02 525.33 256.02 525.33 214.96 438.33 214.96 438.33 194.08 525.67 194.08"/><line class="f" x1="546.2" y1="194.08" x2="525.67" y2="194.08"/><line class="f" x1="546.2" y1="256.02" x2="546.2" y2="194.08"/><line class="f" x1="525.33" y1="256.02" x2="546.2" y2="256.02"/><line class="f" x1="525.33" y1="214.96" x2="525.33" y2="256.02"/><line class="f" x1="438.33" y1="214.96" x2="525.33" y2="214.96"/><line class="f" x1="438.33" y1="194.08" x2="438.33" y2="214.96"/><line class="f" x1="525.67" y1="194.08" x2="438.33" y2="194.08"/><rect class="d" x="244.89" y="217.18" width="27.38" height="41.07"/><line class="f" x1="244.89" y1="217.18" x2="244.89" y2="258.25"/><line class="f" x1="272.27" y1="217.18" x2="244.89" y2="217.18"/><line class="f" x1="272.27" y1="258.25" x2="272.27" y2="217.18"/><line class="f" x1="244.89" y1="258.25" x2="272.27" y2="258.25"/><rect class="d" x="333.01" y="194.08" width="30.8" height="20.53"/><line class="f" x1="363.81" y1="214.61" x2="333.01" y2="214.61"/><line class="f" x1="333.01" y1="214.61" x2="333.01" y2="194.08"/><line class="f" x1="333.01" y1="194.08" x2="363.81" y2="194.08"/><line class="f" x1="363.81" y1="194.08" x2="363.81" y2="214.61"/><polygon class="h" points="546.21 185.87 554.76 185.87 554.76 194.42 554.76 377.5 546.21 377.5 546.21 185.87"/><rect x="364.83" y="370.66" width="59.89" height="6.85"/><polygon class="h" points="510.27 377.5 510.27 370.66 546.21 370.66 546.21 377.5 541.07 377.5 515.41 377.5 510.27 377.5"/><polygon class="h" points="235.82 377.5 235.82 370.66 265.6 370.66 265.6 377.5 239.93 377.5 235.82 377.5"/><rect x="366.55" y="363.82" width="56.46" height="6.84"/><rect x="235.82" y="363.82" width="28.06" height="6.84"/><rect x="511.98" y="363.82" width="34.22" height="6.84"/><rect x="408.29" y="185.87" width="137.91" height="8.21"/><polygon class="h" points="244.03 363.82 235.82 363.82 235.82 194.08 235.82 185.87 370.65 185.87 370.65 194.08 244.03 194.08 244.03 363.82"/><polygon class="h" points="343.27 261.5 244.03 261.5 244.03 259.1 330.61 259.1 330.61 250.54 333.01 250.54 333.01 259.1 343.27 259.1 343.27 261.5"/><polygon class="h" points="374.07 259.1 417.19 259.1 417.19 250.54 419.59 250.54 419.59 261.5 401.45 261.5 401.45 363.82 399.06 363.82 399.06 261.5 374.07 261.5 374.07 259.1"/><rect x="417.19" y="194.08" width="2.4" height="25.67"/><rect x="370.65" y="185.87" width="1.71" height="3.94"/><rect x="406.58" y="185.87" width="1.71" height="3.94"/><rect x="330.61" y="194.08" width="2.39" height="29.09"/><rect x="244.03" y="212.9" width="27.38" height="3.42"/><rect x="267.99" y="194.08" width="3.42" height="18.82"/><polygon class="h" points="419.59 211.19 434.99 211.19 434.99 194.08 438.41 194.08 438.41 214.61 419.59 214.61 419.59 211.19"/><rect x="239.93" y="377.5" width="1.37" height="51.33"/><line class="f" x1="546.2" y1="194.08" x2="546.2" y2="363.82"/><line class="f" x1="235.82" y1="377.51" x2="239.93" y2="377.51"/><line class="f" x1="239.93" y1="377.51" x2="265.59" y2="377.51"/><line class="f" x1="364.83" y1="377.51" x2="424.72" y2="377.51"/><line class="f" x1="366.55" y1="363.82" x2="399.06" y2="363.82"/><line class="f" x1="401.45" y1="363.82" x2="423.01" y2="363.82"/><line class="f" x1="510.27" y1="377.51" x2="515.41" y2="377.51"/><line class="f" x1="515.41" y1="377.51" x2="541.07" y2="377.51"/><line class="f" x1="511.98" y1="363.82" x2="546.2" y2="363.82"/><line class="f" x1="263.88" y1="363.82" x2="263.88" y2="370.66"/><line class="f" x1="244.03" y1="363.82" x2="263.88" y2="363.82"/><line class="f" x1="263.88" y1="370.66" x2="263.88" y2="363.82"/><line class="f" x1="366.55" y1="370.66" x2="366.55" y2="363.82"/><line class="f" x1="423.01" y1="370.66" x2="423.01" y2="363.82"/><line class="f" x1="511.98" y1="370.66" x2="511.98" y2="363.82"/><line class="f" x1="241.3" y1="377.51" x2="241.3" y2="428.84"/><line class="f" x1="241.3" y1="428.84" x2="239.93" y2="428.84"/><line class="f" x1="510.27" y1="370.66" x2="510.27" y2="377.51"/><line class="f" x1="511.98" y1="370.66" x2="510.27" y2="370.66"/><line class="f" x1="364.83" y1="370.66" x2="364.83" y2="377.51"/><line class="f" x1="366.55" y1="370.66" x2="364.83" y2="370.66"/><line class="f" x1="424.72" y1="370.66" x2="424.72" y2="377.51"/><line class="f" x1="424.72" y1="370.66" x2="423.01" y2="370.66"/><line class="f" x1="265.59" y1="370.66" x2="265.59" y2="377.51"/><line class="f" x1="265.59" y1="370.66" x2="263.88" y2="370.66"/><line class="f" x1="554.76" y1="194.42" x2="554.76" y2="377.51"/><line class="f" x1="554.76" y1="194.42" x2="554.76" y2="194.42"/><line class="f" x1="511.98" y1="377.51" x2="511.98" y2="428.84"/><line class="f" x1="554.76" y1="247.47" x2="554.76" y2="247.47"/><line class="f" x1="554.76" y1="257.73" x2="554.76" y2="257.73"/><line class="f" x1="554.76" y1="268" x2="554.76" y2="268"/><line class="f" x1="554.76" y1="278.26" x2="554.76" y2="278.26"/><line class="f" x1="554.76" y1="288.53" x2="554.76" y2="288.53"/><line class="f" x1="554.76" y1="298.8" x2="554.76" y2="298.8"/><line class="f" x1="554.76" y1="309.06" x2="554.76" y2="309.06"/><line class="f" x1="554.76" y1="319.33" x2="554.76" y2="319.33"/><line class="f" x1="554.76" y1="329.6" x2="554.76" y2="329.6"/><line class="f" x1="511.98" y1="428.84" x2="239.93" y2="428.84"/><line class="f" x1="263.88" y1="363.82" x2="332.32" y2="363.82"/><line class="f" x1="332.32" y1="363.82" x2="366.54" y2="363.82"/><line class="f" x1="511.98" y1="363.82" x2="457.23" y2="363.82"/><line class="f" x1="457.23" y1="363.82" x2="423.01" y2="363.82"/><line class="f" x1="510.27" y1="377.51" x2="455.52" y2="377.51"/><line class="f" x1="457.23" y1="363.82" x2="457.23" y2="370.66"/><line class="f" x1="455.52" y1="370.66" x2="455.52" y2="377.51"/><line class="f" x1="455.52" y1="374.08" x2="424.72" y2="374.08"/><line class="f" x1="454.49" y1="369.98" x2="454.49" y2="370.66"/><line class="f" x1="454.49" y1="370.66" x2="457.23" y2="370.66"/><line class="f" x1="457.23" y1="370.66" x2="457.23" y2="367.92"/><line class="f" x1="457.23" y1="367.92" x2="455.86" y2="367.92"/><line class="f" x1="455.86" y1="367.24" x2="453.12" y2="367.24"/><line class="f" x1="453.12" y1="367.24" x2="453.12" y2="369.98"/><line class="f" x1="453.12" y1="369.98" x2="455.86" y2="369.98"/><line class="f" x1="455.86" y1="369.98" x2="455.86" y2="367.24"/><line class="f" x1="424.38" y1="367.24" x2="427.12" y2="367.24"/><line class="f" x1="427.12" y1="367.24" x2="427.12" y2="369.98"/><line class="f" x1="427.12" y1="369.98" x2="424.38" y2="369.98"/><line class="f" x1="424.38" y1="369.98" x2="424.38" y2="367.24"/><line class="f" x1="453.12" y1="367.24" x2="427.12" y2="367.24"/><line class="f" x1="427.12" y1="369.98" x2="453.12" y2="369.98"/><line class="f" x1="453.12" y1="368.61" x2="427.12" y2="368.61"/><line class="f" x1="425.75" y1="369.98" x2="425.75" y2="370.66"/><line class="f" x1="425.75" y1="370.66" x2="423.01" y2="370.66"/><line class="f" x1="423.01" y1="370.66" x2="423.01" y2="367.92"/><line class="f" x1="423.01" y1="367.92" x2="424.38" y2="367.92"/><line class="f" x1="457.23" y1="367.92" x2="459.97" y2="367.92"/><line class="f" x1="459.97" y1="367.92" x2="459.97" y2="370.66"/><line class="f" x1="459.97" y1="370.66" x2="457.23" y2="370.66"/><line class="f" x1="457.23" y1="370.66" x2="457.23" y2="367.92"/><line class="f" x1="459.97" y1="367.92" x2="483.24" y2="367.92"/><line class="f" x1="459.97" y1="369.29" x2="483.24" y2="369.29"/><line class="f" x1="459.97" y1="370.66" x2="483.24" y2="370.66"/><line class="f" x1="509.25" y1="369.98" x2="509.25" y2="370.66"/><line class="f" x1="509.25" y1="370.66" x2="511.99" y2="370.66"/><line class="f" x1="511.98" y1="370.66" x2="511.98" y2="367.92"/><line class="f" x1="511.98" y1="367.92" x2="510.62" y2="367.92"/><line class="f" x1="510.62" y1="367.24" x2="507.88" y2="367.24"/><line class="f" x1="507.88" y1="367.24" x2="507.88" y2="369.98"/><line class="f" x1="507.88" y1="369.98" x2="510.62" y2="369.98"/><line class="f" x1="510.62" y1="369.98" x2="510.62" y2="367.24"/><line class="f" x1="507.88" y1="367.24" x2="487.34" y2="367.24"/><line class="f" x1="487.34" y1="369.98" x2="507.88" y2="369.98"/><line class="f" x1="507.88" y1="368.61" x2="487.34" y2="368.61"/><line class="f" x1="265.59" y1="377.51" x2="334.04" y2="377.51"/><line class="f" x1="332.32" y1="363.82" x2="332.32" y2="370.66"/><line class="f" x1="334.04" y1="370.66" x2="334.04" y2="377.51"/><line class="f" x1="334.04" y1="374.08" x2="364.83" y2="374.08"/><line class="f" x1="335.06" y1="369.98" x2="335.06" y2="370.66"/><line class="f" x1="335.06" y1="370.66" x2="332.32" y2="370.66"/><line class="f" x1="332.32" y1="370.66" x2="332.32" y2="367.92"/><line class="f" x1="332.32" y1="367.92" x2="333.69" y2="367.92"/><line class="f" x1="333.69" y1="367.24" x2="336.43" y2="367.24"/><line class="f" x1="336.43" y1="367.24" x2="336.43" y2="369.98"/><line class="f" x1="336.43" y1="369.98" x2="333.69" y2="369.98"/><line class="f" x1="333.69" y1="369.98" x2="333.69" y2="367.24"/><line class="f" x1="365.18" y1="367.24" x2="362.44" y2="367.24"/><line class="f" x1="362.44" y1="367.24" x2="362.44" y2="369.98"/><line class="f" x1="362.44" y1="369.98" x2="365.18" y2="369.98"/><line class="f" x1="365.18" y1="369.98" x2="365.18" y2="367.24"/><line class="f" x1="336.43" y1="367.24" x2="362.44" y2="367.24"/><line class="f" x1="362.44" y1="369.98" x2="336.43" y2="369.98"/><line class="f" x1="336.43" y1="368.61" x2="362.44" y2="368.61"/><line class="f" x1="363.81" y1="369.98" x2="363.81" y2="370.66"/><line class="f" x1="363.81" y1="370.66" x2="366.55" y2="370.66"/><line class="f" x1="366.55" y1="370.66" x2="366.55" y2="367.92"/><line class="f" x1="366.55" y1="367.92" x2="365.18" y2="367.92"/><line class="f" x1="266.62" y1="369.98" x2="266.62" y2="370.66"/><line class="f" x1="266.62" y1="370.66" x2="263.88" y2="370.66"/><line class="f" x1="263.88" y1="370.66" x2="263.88" y2="367.92"/><line class="f" x1="263.88" y1="367.92" x2="265.25" y2="367.92"/><line class="f" x1="265.25" y1="367.24" x2="267.99" y2="367.24"/><line class="f" x1="267.99" y1="367.24" x2="267.99" y2="369.98"/><line class="f" x1="267.99" y1="369.98" x2="265.25" y2="369.98"/><line class="f" x1="265.25" y1="369.98" x2="265.25" y2="367.24"/><line class="f" x1="296.73" y1="369.98" x2="296.73" y2="370.66"/><line class="f" x1="296.73" y1="370.66" x2="299.47" y2="370.66"/><line class="f" x1="299.47" y1="370.66" x2="299.47" y2="367.92"/><line class="f" x1="299.47" y1="367.92" x2="298.1" y2="367.92"/><line class="f" x1="298.1" y1="367.24" x2="295.37" y2="367.24"/><line class="f" x1="295.37" y1="367.24" x2="295.37" y2="369.98"/><line class="f" x1="295.37" y1="369.98" x2="298.1" y2="369.98"/><line class="f" x1="298.1" y1="369.98" x2="298.1" y2="367.24"/><line class="f" x1="267.99" y1="367.24" x2="295.36" y2="367.24"/><line class="f" x1="295.37" y1="369.98" x2="267.99" y2="369.98"/><line class="f" x1="267.99" y1="368.61" x2="295.36" y2="368.61"/><line class="f" x1="332.32" y1="367.92" x2="329.59" y2="367.92"/><line class="f" x1="329.59" y1="367.92" x2="329.59" y2="370.66"/><line class="f" x1="329.59" y1="370.66" x2="332.33" y2="370.66"/><line class="f" x1="332.32" y1="370.66" x2="332.32" y2="367.92"/><line class="f" x1="329.59" y1="367.92" x2="299.47" y2="367.92"/><line class="f" x1="329.59" y1="369.29" x2="299.47" y2="369.29"/><line class="f" x1="329.59" y1="370.66" x2="299.47" y2="370.66"/><line class="f" x1="485.98" y1="369.98" x2="485.98" y2="370.66"/><line class="f" x1="485.98" y1="370.66" x2="483.24" y2="370.66"/><line class="f" x1="483.24" y1="370.66" x2="483.24" y2="367.92"/><line class="f" x1="483.24" y1="367.92" x2="484.61" y2="367.92"/><line class="f" x1="484.61" y1="367.24" x2="487.35" y2="367.24"/><line class="f" x1="487.34" y1="367.24" x2="487.34" y2="369.98"/><line class="f" x1="487.34" y1="369.98" x2="484.61" y2="369.98"/><line class="f" x1="484.61" y1="369.98" x2="484.61" y2="367.24"/><line class="f" x1="244.03" y1="363.82" x2="244.03" y2="261.5"/><line class="f" x1="244.03" y1="259.1" x2="330.61" y2="259.1"/><line class="f" x1="333.01" y1="259.1" x2="343.28" y2="259.1"/><line class="f" x1="374.07" y1="259.1" x2="417.19" y2="259.1"/><line class="f" x1="244.03" y1="261.5" x2="343.28" y2="261.5"/><line class="f" x1="374.07" y1="261.5" x2="399.06" y2="261.5"/><line class="f" x1="401.45" y1="261.5" x2="419.59" y2="261.5"/><line class="f" x1="438.41" y1="194.08" x2="546.2" y2="194.08"/><line class="f" x1="330.61" y1="259.1" x2="330.61" y2="250.55"/><line class="f" x1="330.61" y1="223.17" x2="330.61" y2="194.08"/><line class="f" x1="333.01" y1="259.1" x2="333.01" y2="250.55"/><line class="f" x1="333.01" y1="223.17" x2="333.01" y2="194.08"/><line class="f" x1="401.45" y1="363.82" x2="401.45" y2="261.5"/><line class="f" x1="417.19" y1="259.1" x2="417.19" y2="250.55"/><line class="f" x1="417.19" y1="219.75" x2="417.19" y2="194.08"/><line class="f" x1="419.59" y1="261.5" x2="419.59" y2="250.55"/><line class="f" x1="419.59" y1="219.75" x2="419.59" y2="214.61"/><line class="f" x1="399.06" y1="363.82" x2="399.06" y2="261.5"/><line class="f" x1="372.36" y1="189.8" x2="372.36" y2="185.87"/><line class="f" x1="406.58" y1="189.8" x2="406.58" y2="185.87"/><line class="f" x1="406.58" y1="189.8" x2="408.29" y2="189.8"/><line class="f" x1="372.36" y1="189.8" x2="370.65" y2="189.8"/><line class="f" x1="370.65" y1="189.8" x2="370.65" y2="194.08"/><line class="f" x1="408.3" y1="189.8" x2="408.3" y2="194.08"/><line class="f" x1="333.01" y1="250.55" x2="330.61" y2="250.55"/><line class="f" x1="333.01" y1="223.17" x2="330.61" y2="223.17"/><line class="f" x1="374.07" y1="259.1" x2="374.07" y2="261.5"/><line class="f" x1="343.28" y1="259.1" x2="343.28" y2="261.5"/><line class="f" x1="438.41" y1="214.61" x2="438.41" y2="194.08"/><line class="f" x1="419.59" y1="219.75" x2="417.19" y2="219.75"/><line class="f" x1="419.59" y1="250.55" x2="417.19" y2="250.55"/><line class="f" x1="417.19" y1="194.08" x2="408.3" y2="194.08"/><line class="f" x1="424.38" y1="367.24" x2="424.38" y2="335.76"/><g class="i"><path class="f" d="M424.38,335.76a31.47,31.47,0,0,1,31.48,31.48"/></g><line class="f" x1="365.18" y1="367.24" x2="365.18" y2="335.76"/><g class="i"><path class="f" d="M333.69,367.24a31.48,31.48,0,0,1,31.49-31.48"/></g><line class="f" x1="438.33" y1="214.61" x2="419.59" y2="214.61"/><line class="f" x1="419.59" y1="211.19" x2="434.99" y2="211.19"/><line class="f" x1="434.99" y1="211.19" x2="434.99" y2="194.08"/><line class="f" x1="434.99" y1="194.08" x2="419.59" y2="194.08"/><line class="f" x1="419.59" y1="194.08" x2="419.59" y2="211.19"/><line class="f" x1="520.88" y1="214.96" x2="520.88" y2="194.08"/><line class="f" x1="520.88" y1="194.08" x2="500.35" y2="194.08"/><line class="f" x1="500.35" y1="194.08" x2="500.35" y2="214.96"/><line class="f" x1="500.35" y1="214.96" x2="520.88" y2="214.96"/><g class="i"><path class="f" d="M516.6,204.69a6,6,0,1,0-6,6,6,6,0,0,0,6-6"/><path class="f" d="M515.58,204.69a5,5,0,1,0-5,5,5,5,0,0,0,5-5"/></g><line class="f" x1="446.6" y1="202.27" x2="451.44" y2="207.11"/><line class="f" x1="451.44" y1="202.27" x2="446.6" y2="207.11"/><line class="f" x1="449.02" y1="208.11" x2="449.02" y2="201.27"/><line class="f" x1="445.6" y1="204.69" x2="452.44" y2="204.69"/><line class="f" x1="459.28" y1="194.42" x2="459.28" y2="214.96"/><line class="f" x1="438.75" y1="214.96" x2="459.28" y2="214.96"/><line class="f" x1="460.14" y1="213.25" x2="478.96" y2="213.25"/><line class="f" x1="478.96" y1="213.25" x2="478.96" y2="196.14"/><line class="f" x1="478.96" y1="196.13" x2="460.14" y2="196.13"/><line class="f" x1="460.14" y1="196.13" x2="460.14" y2="213.24"/><line class="f" x1="459.28" y1="214.96" x2="479.82" y2="214.96"/><line class="f" x1="461.85" y1="211.53" x2="477.25" y2="211.53"/><line class="f" x1="477.25" y1="211.53" x2="477.25" y2="199.56"/><line class="f" x1="477.25" y1="199.56" x2="461.85" y2="199.56"/><line class="f" x1="461.85" y1="199.56" x2="461.85" y2="211.53"/><g class="i"><path class="f" d="M470.23,203a.68.68,0,1,0-.68.68.67.67,0,0,0,.68-.68"/></g><line class="f" x1="479.82" y1="194.42" x2="479.82" y2="214.96"/><line class="f" x1="479.82" y1="214.96" x2="500.35" y2="214.96"/><line class="f" x1="500.35" y1="214.96" x2="500.35" y2="194.42"/><line class="f" x1="525.33" y1="256.02" x2="545.86" y2="256.02"/><g class="i"><path class="f" d="M544,230.62a3.36,3.36,0,1,0-3.35,3.36,3.35,3.35,0,0,0,3.35-3.36"/></g><line class="f" x1="545.86" y1="225.39" x2="525.33" y2="225.39"/><line class="f" x1="525.33" y1="225.39" x2="525.33" y2="245.93"/><line class="f" x1="525.33" y1="245.93" x2="545.86" y2="245.93"/><g class="i"><path class="f" d="M533.92,230.62a3.36,3.36,0,1,0-3.36,3.36,3.36,3.36,0,0,0,3.36-3.36"/><path class="f" d="M533.92,240.7a3.36,3.36,0,1,0-3.36,3.36,3.36,3.36,0,0,0,3.36-3.36"/></g><line class="f" x1="524.4" y1="243.13" x2="524.4" y2="228.19"/><line class="f" x1="546.2" y1="256.02" x2="546.2" y2="194.08"/><line class="f" x1="546.2" y1="194.08" x2="438.41" y2="194.08"/><line class="f" x1="438.41" y1="194.08" x2="438.41" y2="214.96"/><line class="f" x1="438.41" y1="214.96" x2="525.33" y2="214.96"/><line class="f" x1="525.33" y1="214.96" x2="525.33" y2="256.02"/><line class="f" x1="525.33" y1="256.02" x2="546.2" y2="256.02"/><line class="f" x1="370.65" y1="194.08" x2="333.01" y2="194.08"/><g class="i"><path class="f" d="M250.88,222.31a.86.86,0,1,0-.86.86.85.85,0,0,0,.86-.86"/></g><line class="f" x1="272.27" y1="217.18" x2="272.27" y2="258.25"/><line class="f" x1="272.27" y1="258.25" x2="244.89" y2="258.25"/><line class="f" x1="244.89" y1="258.25" x2="244.89" y2="217.18"/><line class="f" x1="244.89" y1="217.18" x2="272.27" y2="217.18"/><line class="f" x1="270.56" y1="222.31" x2="270.56" y2="253.11"/><line class="f" x1="267.13" y1="256.53" x2="250.02" y2="256.53"/><line class="f" x1="246.6" y1="253.11" x2="246.6" y2="222.31"/><line class="f" x1="250.02" y1="218.89" x2="267.13" y2="218.89"/><g class="i"><path class="f" d="M267.13,218.89a3.42,3.42,0,0,1,3.42,3.42"/><path class="f" d="M270.56,253.11a3.44,3.44,0,0,1-3.43,3.43"/><path class="f" d="M246.6,222.31a3.42,3.42,0,0,1,3.42-3.42"/><path class="f" d="M250,256.53a3.42,3.42,0,0,1-3.42-3.42"/></g><line class="f" x1="271.41" y1="199.21" x2="330.61" y2="199.21"/><line class="f" x1="277.91" y1="258.25" x2="277.91" y2="254.82"/><line class="f" x1="277.91" y1="254.82" x2="298.45" y2="254.82"/><line class="f" x1="298.45" y1="254.82" x2="298.45" y2="258.24"/><line class="f" x1="298.45" y1="258.25" x2="297.42" y2="258.25"/><line class="f" x1="297.42" y1="258.25" x2="297.42" y2="255.85"/><line class="f" x1="297.42" y1="255.85" x2="278.94" y2="255.85"/><line class="f" x1="278.94" y1="255.85" x2="278.94" y2="258.25"/><line class="f" x1="278.94" y1="258.25" x2="277.91" y2="258.25"/><line class="f" x1="277.91" y1="258.25" x2="277.91" y2="254.82"/><line class="f" x1="298.45" y1="258.25" x2="298.45" y2="254.82"/><line class="f" x1="278.94" y1="258.25" x2="278.94" y2="255.85"/><line class="f" x1="297.42" y1="258.25" x2="297.42" y2="255.85"/><line class="f" x1="277.91" y1="254.82" x2="298.45" y2="254.82"/><line class="f" x1="277.91" y1="255.85" x2="298.45" y2="255.85"/><line class="f" x1="277.91" y1="258.25" x2="278.94" y2="258.25"/><line class="f" x1="297.42" y1="258.25" x2="298.45" y2="258.25"/><line class="f" x1="267.99" y1="212.9" x2="267.99" y2="194.08"/><line class="f" x1="267.99" y1="194.08" x2="244.03" y2="194.08"/><line class="f" x1="244.03" y1="194.08" x2="244.03" y2="212.9"/><line class="f" x1="244.03" y1="212.9" x2="267.99" y2="212.9"/><line class="f" x1="244.03" y1="216.33" x2="271.41" y2="216.33"/><line class="f" x1="271.41" y1="216.33" x2="271.41" y2="212.9"/><line class="f" x1="271.41" y1="216.33" x2="271.41" y2="194.08"/><line class="f" x1="267.99" y1="212.9" x2="271.41" y2="212.9"/><line class="f" x1="244.03" y1="216.33" x2="244.03" y2="259.1"/><line class="f" x1="267.99" y1="199.21" x2="271.41" y2="199.21"/><line class="f" x1="330.61" y1="194.08" x2="271.41" y2="194.08"/><line class="f" x1="554.76" y1="237.2" x2="554.76" y2="237.2"/><line class="f" x1="554.76" y1="339.86" x2="554.76" y2="339.86"/><line class="f" x1="419.59" y1="214.61" x2="419.59" y2="211.19"/><line class="f" x1="372.36" y1="261.5" x2="344.99" y2="261.5"/><line class="f" x1="372.36" y1="261.5" x2="372.36" y2="288.87"/><g class="i"><path class="f" d="M372.36,288.87A27.37,27.37,0,0,1,345,261.5"/></g><line class="f" x1="372.36" y1="259.1" x2="372.36" y2="261.5"/><line class="f" x1="344.99" y1="261.5" x2="344.99" y2="259.1"/><line class="f" x1="344.99" y1="261.5" x2="343.28" y2="261.5"/><line class="f" x1="344.99" y1="259.1" x2="343.28" y2="259.1"/><line class="f" x1="374.07" y1="261.5" x2="372.36" y2="261.5"/><line class="f" x1="374.07" y1="259.1" x2="372.36" y2="259.1"/><line class="f" x1="372.36" y1="259.1" x2="365.52" y2="259.1"/><line class="f" x1="361.75" y1="259.1" x2="360.98" y2="259.1"/><line class="f" x1="357.22" y1="259.1" x2="356.45" y2="259.1"/><line class="f" x1="352.69" y1="259.1" x2="351.83" y2="259.1"/><line class="f" x1="351.83" y1="259.1" x2="344.99" y2="259.1"/><line class="f" x1="372.36" y1="261.5" x2="372.36" y2="262.35"/><line class="f" x1="372.36" y1="262.35" x2="375.78" y2="262.35"/><line class="f" x1="375.79" y1="262.35" x2="375.79" y2="261.5"/><line class="f" x1="372.36" y1="259.1" x2="372.36" y2="258.25"/><line class="f" x1="372.36" y1="258.25" x2="375.78" y2="258.25"/><line class="f" x1="375.79" y1="258.25" x2="375.79" y2="259.1"/><line class="f" x1="344.99" y1="262.35" x2="341.56" y2="262.35"/><line class="f" x1="341.56" y1="262.35" x2="341.56" y2="261.5"/><line class="f" x1="344.99" y1="259.1" x2="344.99" y2="258.25"/><line class="f" x1="344.99" y1="258.25" x2="341.56" y2="258.25"/><line class="f" x1="341.56" y1="258.25" x2="341.56" y2="259.1"/><line class="f" x1="404.87" y1="189.8" x2="374.07" y2="189.8"/><line class="f" x1="404.87" y1="189.8" x2="404.87" y2="220.6"/><g class="i"><path class="f" d="M404.87,220.6a30.8,30.8,0,0,1-30.8-30.8"/></g><line class="f" x1="404.87" y1="185.87" x2="404.87" y2="189.8"/><line class="f" x1="374.07" y1="189.8" x2="374.07" y2="185.87"/><line class="f" x1="374.07" y1="189.8" x2="372.36" y2="189.8"/><line class="f" x1="406.58" y1="189.8" x2="404.87" y2="189.8"/><line class="f" x1="419.59" y1="248.84" x2="419.59" y2="221.46"/><line class="f" x1="419.59" y1="248.84" x2="446.96" y2="248.84"/><g class="i"><path class="f" d="M419.59,221.46A27.37,27.37,0,0,1,447,248.83"/></g><line class="f" x1="417.19" y1="248.84" x2="419.59" y2="248.84"/><line class="f" x1="419.59" y1="221.46" x2="417.19" y2="221.46"/><line class="f" x1="419.59" y1="221.46" x2="419.59" y2="219.75"/><line class="f" x1="417.19" y1="221.46" x2="417.19" y2="219.75"/><line class="f" x1="419.59" y1="250.55" x2="419.59" y2="248.83"/><line class="f" x1="417.19" y1="250.55" x2="417.19" y2="248.83"/><line class="f" x1="417.19" y1="248.84" x2="417.19" y2="241.99"/><line class="f" x1="417.19" y1="238.23" x2="417.19" y2="237.46"/><line class="f" x1="417.19" y1="233.69" x2="417.19" y2="232.92"/><line class="f" x1="417.19" y1="229.16" x2="417.19" y2="228.3"/><line class="f" x1="417.19" y1="228.3" x2="417.19" y2="221.46"/><line class="f" x1="419.59" y1="248.84" x2="420.44" y2="248.84"/><line class="f" x1="420.44" y1="248.84" x2="420.44" y2="252.26"/><line class="f" x1="420.44" y1="252.26" x2="419.59" y2="252.26"/><line class="f" x1="417.19" y1="248.84" x2="416.34" y2="248.84"/><line class="f" x1="416.34" y1="248.84" x2="416.34" y2="252.26"/><line class="f" x1="416.34" y1="252.26" x2="417.19" y2="252.26"/><line class="f" x1="420.44" y1="221.46" x2="420.44" y2="218.04"/><line class="f" x1="420.44" y1="218.04" x2="419.59" y2="218.04"/><line class="f" x1="417.19" y1="221.46" x2="416.34" y2="221.46"/><line class="f" x1="416.34" y1="221.46" x2="416.34" y2="218.04"/><line class="f" x1="416.34" y1="218.04" x2="417.19" y2="218.04"/><line class="f" x1="333.01" y1="248.84" x2="333.01" y2="224.88"/><line class="f" x1="333.01" y1="248.84" x2="356.96" y2="248.84"/><g class="i"><path class="f" d="M333,224.88a24,24,0,0,1,23.95,24"/></g><line class="f" x1="330.61" y1="248.84" x2="333.01" y2="248.84"/><line class="f" x1="333.01" y1="224.88" x2="330.61" y2="224.88"/><line class="f" x1="333.01" y1="224.88" x2="333.01" y2="223.17"/><line class="f" x1="330.61" y1="224.88" x2="330.61" y2="223.17"/><line class="f" x1="333.01" y1="250.55" x2="333.01" y2="248.83"/><line class="f" x1="330.61" y1="250.55" x2="330.61" y2="248.83"/><line class="f" x1="330.61" y1="248.84" x2="330.61" y2="241.99"/><line class="f" x1="330.61" y1="238.23" x2="330.61" y2="237.46"/><line class="f" x1="330.61" y1="233.69" x2="330.61" y2="232.92"/><line class="f" x1="330.61" y1="231.72" x2="330.61" y2="224.88"/><line class="f" x1="333.01" y1="248.84" x2="333.86" y2="248.84"/><line class="f" x1="333.86" y1="248.84" x2="333.86" y2="252.26"/><line class="f" x1="333.86" y1="252.26" x2="333.01" y2="252.26"/><line class="f" x1="330.61" y1="248.84" x2="329.76" y2="248.84"/><line class="f" x1="329.76" y1="248.84" x2="329.76" y2="252.26"/><line class="f" x1="329.76" y1="252.26" x2="330.61" y2="252.26"/><line class="f" x1="333.86" y1="224.88" x2="333.86" y2="221.46"/><line class="f" x1="333.86" y1="221.46" x2="333.01" y2="221.46"/><line class="f" x1="330.61" y1="224.88" x2="329.76" y2="224.88"/><line class="f" x1="329.76" y1="224.88" x2="329.76" y2="221.46"/><line class="f" x1="329.76" y1="221.46" x2="330.61" y2="221.46"/><line class="f" x1="284.76" y1="362.1" x2="312.13" y2="362.1"/><line class="f" x1="312.13" y1="362.1" x2="312.13" y2="359.95"/><line class="f" x1="312.13" y1="359.95" x2="284.76" y2="359.95"/><line class="f" x1="284.76" y1="359.95" x2="284.76" y2="362.1"/><line class="f" x1="462.71" y1="362.1" x2="510.62" y2="362.1"/><line class="f" x1="510.62" y1="362.1" x2="510.62" y2="358.68"/><line class="f" x1="510.62" y1="358.68" x2="462.71" y2="358.68"/><line class="f" x1="462.71" y1="358.68" x2="462.71" y2="362.1"/><g class="i"><path class="f" d="M461,360.39a1.72,1.72,0,1,0-1.72,1.71,1.72,1.72,0,0,0,1.72-1.71"/><path class="f" d="M283.05,361a1.71,1.71,0,1,0-1.71,1.71,1.71,1.71,0,0,0,1.71-1.71"/></g><line class="f" x1="455.52" y1="377.51" x2="448.68" y2="377.51"/><line class="f" x1="444.91" y1="377.51" x2="444.14" y2="377.51"/><line class="f" x1="440.38" y1="377.51" x2="439.61" y2="377.51"/><line class="f" x1="435.84" y1="377.51" x2="431.57" y2="377.51"/><line class="f" x1="431.56" y1="377.51" x2="424.72" y2="377.51"/><line class="f" x1="364.83" y1="377.51" x2="357.99" y2="377.51"/><line class="f" x1="354.23" y1="377.51" x2="353.46" y2="377.51"/><line class="f" x1="349.69" y1="377.51" x2="348.92" y2="377.51"/><line class="f" x1="345.16" y1="377.51" x2="340.88" y2="377.51"/><line class="f" x1="340.88" y1="377.51" x2="334.04" y2="377.51"/><line class="f" x1="419.59" y1="211.19" x2="434.99" y2="211.19"/><line class="f" x1="434.99" y1="211.19" x2="434.99" y2="194.08"/><line class="f" x1="434.99" y1="194.08" x2="431.56" y2="207.77"/><line class="f" x1="431.56" y1="207.77" x2="419.59" y2="211.19"/><line class="f" x1="244.03" y1="212.9" x2="264.25" y2="209.47"/><line class="f" x1="264.25" y1="209.47" x2="267.99" y2="194.08"/><line class="f" x1="267.99" y1="194.08" x2="267.99" y2="212.9"/><line class="f" x1="267.99" y1="212.9" x2="244.03" y2="212.9"/><rect class="d" x="490.77" y="295.37" width="17.11" height="27.38"/><line class="f" x1="490.77" y1="322.75" x2="507.88" y2="322.75"/><line class="f" x1="490.77" y1="295.37" x2="490.77" y2="322.75"/><line class="f" x1="507.88" y1="295.37" x2="490.77" y2="295.37"/><line class="f" x1="507.88" y1="322.75" x2="507.88" y2="295.37"/><rect class="d" x="401.45" y="261.5" width="17.11" height="102.32"/><line class="f" x1="418.56" y1="363.82" x2="401.45" y2="363.82"/><line class="f" x1="401.45" y1="363.82" x2="401.45" y2="261.5"/><line class="f" x1="401.45" y1="261.5" x2="418.56" y2="261.5"/><line class="f" x1="418.56" y1="261.5" x2="418.56" y2="363.82"/><rect class="d" x="271.41" y="194.08" width="59.2" height="5.13"/><line class="f" x1="271.41" y1="194.08" x2="271.41" y2="199.21"/><line class="f" x1="330.61" y1="194.08" x2="271.41" y2="194.08"/><line class="f" x1="330.61" y1="199.21" x2="330.61" y2="194.08"/><line class="f" x1="271.41" y1="199.21" x2="330.61" y2="199.21"/><rect class="d" x="297.42" y="255.85" width="1.03" height="2.4"/><line class="f" x1="298.45" y1="258.25" x2="298.45" y2="255.85"/><line class="f" x1="297.42" y1="258.25" x2="298.45" y2="258.25"/><line class="f" x1="297.42" y1="255.85" x2="297.42" y2="258.25"/><line class="f" x1="298.45" y1="255.85" x2="297.42" y2="255.85"/><polygon class="d" points="277.91 254.82 277.91 255.85 297.42 255.85 298.44 255.85 298.44 254.82 277.91 254.82"/><line class="f" x1="277.91" y1="254.82" x2="277.91" y2="255.85"/><line class="f" x1="298.45" y1="254.82" x2="277.91" y2="254.82"/><line class="f" x1="298.45" y1="255.85" x2="298.45" y2="254.82"/><line class="f" x1="297.42" y1="255.85" x2="298.45" y2="255.85"/><line class="f" x1="277.91" y1="255.85" x2="297.42" y2="255.85"/><rect class="d" x="277.91" y="255.85" width="1.03" height="2.4"/><line class="f" x1="277.91" y1="255.85" x2="277.91" y2="258.25"/><line class="f" x1="278.94" y1="255.85" x2="277.91" y2="255.85"/><line class="f" x1="278.94" y1="258.25" x2="278.94" y2="255.85"/><line class="f" x1="277.91" y1="258.25" x2="278.94" y2="258.25"/><polygon class="g" points="283.05 361.03 282.55 362.24 281.33 362.74 280.13 362.24 279.63 361.03 280.13 359.82 281.33 359.32 282.55 359.82 283.05 361.03"/><g class="i"><path class="f" d="M283.05,361a1.71,1.71,0,0,1-3.42,0"/><path class="f" d="M279.62,361a1.72,1.72,0,0,1,3.43,0"/></g><rect class="d" x="284.76" y="359.95" width="27.38" height="2.15"/><line class="f" x1="284.76" y1="362.1" x2="312.13" y2="362.1"/><line class="f" x1="284.76" y1="359.95" x2="284.76" y2="362.1"/><line class="f" x1="312.13" y1="359.95" x2="284.76" y2="359.95"/><line class="f" x1="312.13" y1="362.1" x2="312.13" y2="359.95"/><polygon class="g" points="461 360.39 460.49 361.61 459.28 362.11 458.07 361.61 457.57 360.39 458.07 359.19 459.28 358.68 460.49 359.19 461 360.39"/><g class="i"><path class="f" d="M461,360.39a1.72,1.72,0,0,1-3.43,0"/><path class="f" d="M457.57,360.39a1.72,1.72,0,0,1,3.43,0"/></g><rect class="d" x="462.71" y="358.68" width="47.91" height="3.42"/><line class="f" x1="510.62" y1="358.68" x2="462.71" y2="358.68"/><line class="f" x1="510.62" y1="362.1" x2="510.62" y2="358.68"/><line class="f" x1="462.71" y1="362.1" x2="510.62" y2="362.1"/><line class="f" x1="462.71" y1="358.68" x2="462.71" y2="362.1"/><rect class="d" x="377.15" y="253.63" width="40.04" height="5.48"/><line class="f" x1="377.15" y1="253.63" x2="377.15" y2="259.1"/><line class="f" x1="417.19" y1="253.63" x2="377.15" y2="253.63"/><line class="f" x1="417.19" y1="259.1" x2="417.19" y2="253.63"/><line class="f" x1="377.15" y1="259.1" x2="417.19" y2="259.1"/><polygon class="g" points="264.57 261.5 264.57 323.09 265.09 325.71 266.57 327.93 268.79 329.42 271.41 329.94 319.32 329.94 321.94 329.42 324.16 327.93 325.64 325.71 326.17 323.09 326.17 271.76 326.17 261.5 264.57 261.5"/><rect class="d" x="252.59" y="261.5" width="11.98" height="10.26"/><rect class="d" x="326.16" y="261.5" width="11.98" height="10.26"/><line class="f" x1="297.3" y1="272.87" x2="298.12" y2="269.92"/><line class="f" x1="268.57" y1="272.87" x2="269.39" y2="269.92"/><line class="f" x1="319.32" y1="329.94" x2="271.41" y2="329.94"/><line class="f" x1="264.57" y1="323.09" x2="264.57" y2="261.5"/><line class="f" x1="264.57" y1="261.5" x2="326.17" y2="261.5"/><line class="f" x1="326.16" y1="261.5" x2="326.16" y2="323.09"/><line class="f" x1="264.57" y1="261.5" x2="252.59" y2="261.5"/><line class="f" x1="252.59" y1="261.5" x2="252.59" y2="271.76"/><line class="f" x1="252.59" y1="271.76" x2="264.57" y2="271.76"/><line class="f" x1="264.57" y1="271.76" x2="264.57" y2="261.5"/><line class="f" x1="338.14" y1="261.5" x2="326.17" y2="261.5"/><line class="f" x1="326.16" y1="261.5" x2="326.16" y2="271.76"/><line class="f" x1="326.16" y1="271.76" x2="338.14" y2="271.76"/><line class="f" x1="338.14" y1="271.76" x2="338.14" y2="261.5"/><line class="f" x1="264.57" y1="284.27" x2="326.17" y2="284.27"/><line class="f" x1="264.57" y1="289.4" x2="326.17" y2="289.4"/><g class="i"><path class="f" d="M270.47,278.74a95,95,0,0,1,9.69-.49,96.64,96.64,0,0,1,12.61.83"/><path class="f" d="M270.47,278.74a1.75,1.75,0,0,1-.4,0,1.83,1.83,0,0,1-1.83-1.83v-.09"/><path class="f" d="M268.24,276.86c0-.27,0-.54,0-.82a14.73,14.73,0,0,1,.35-3.17"/><path class="f" d="M268.57,272.87c-.17-1.71-.25-3.43-.25-5.16,0-.82,0-1.65.06-2.47"/><path class="f" d="M268.38,265.24a.25.25,0,0,1,0-.12.38.38,0,0,1,.39-.39h.08"/><path class="f" d="M292.84,265.08c-3.1.15-6.19.23-9.29.23q-7.37,0-14.72-.57"/><path class="f" d="M292.84,265.08l.2,0a.94.94,0,0,1,.95.95,1,1,0,0,1,0,.3"/><path class="f" d="M293.77,278.11a45.44,45.44,0,0,1,.18-11.8"/><path class="f" d="M293.77,278.11a.78.78,0,0,1,0,.22.8.8,0,0,1-.79.79,1,1,0,0,1-.24,0"/><path class="f" d="M271.41,329.94a6.85,6.85,0,0,1-6.84-6.85"/><path class="f" d="M326.16,323.09a6.85,6.85,0,0,1-6.84,6.85"/><path class="f" d="M299.2,278.74a95.12,95.12,0,0,1,9.69-.49,96.64,96.64,0,0,1,12.61.83"/><path class="f" d="M299.2,278.74a1.72,1.72,0,0,1-.39,0A1.83,1.83,0,0,1,297,277v-.09"/><path class="f" d="M297,276.86c0-.27,0-.54,0-.82a14.73,14.73,0,0,1,.35-3.17"/><path class="f" d="M297.3,272.87c-.17-1.71-.25-3.43-.25-5.16,0-.82,0-1.65.06-2.47"/><path class="f" d="M297.11,265.24a.5.5,0,0,1,0-.12.39.39,0,0,1,.39-.39h.08"/><path class="f" d="M321.57,265.08q-4.63.23-9.29.23-7.36,0-14.72-.57"/><path class="f" d="M321.57,265.08l.21,0a1,1,0,0,1,1,.95,1,1,0,0,1-.05.3"/><path class="f" d="M322.5,278.11a45.44,45.44,0,0,1,.18-11.8"/><path class="f" d="M322.5,278.11a.78.78,0,0,1,0,.22.79.79,0,0,1-.79.79,1,1,0,0,1-.24,0"/></g><polygon class="g" points="410.54 305.24 411.92 306.93 412.65 309.05 412.65 311.32 411.92 313.44 410.54 315.13 410.54 325.79 408.64 325.79 406.75 317.99 406.75 315.71 405.71 312.08 405.71 308.28 406.75 304.65 406.75 302.38 408.64 294.58 410.54 294.58 410.54 305.24"/><line class="f" x1="410.54" y1="305.24" x2="411.92" y2="306.93"/><line class="f" x1="411.92" y1="306.93" x2="412.65" y2="309.05"/><line class="f" x1="412.65" y1="309.05" x2="412.65" y2="311.32"/><line class="f" x1="412.65" y1="311.32" x2="411.92" y2="313.44"/><line class="f" x1="411.92" y1="313.44" x2="410.54" y2="315.12"/><line class="f" x1="410.54" y1="315.12" x2="410.54" y2="325.79"/><line class="f" x1="410.54" y1="325.79" x2="408.64" y2="325.79"/><line class="f" x1="408.64" y1="325.79" x2="406.75" y2="317.98"/><line class="f" x1="406.74" y1="317.98" x2="406.74" y2="315.71"/><line class="f" x1="406.74" y1="315.71" x2="405.71" y2="312.08"/><line class="f" x1="405.71" y1="312.08" x2="405.71" y2="308.28"/><line class="f" x1="405.71" y1="308.28" x2="406.74" y2="304.65"/><line class="f" x1="406.74" y1="304.65" x2="406.74" y2="302.38"/><line class="f" x1="406.74" y1="302.38" x2="408.64" y2="294.58"/><line class="f" x1="408.64" y1="294.58" x2="410.54" y2="294.58"/><line class="f" x1="410.54" y1="294.58" x2="410.54" y2="305.24"/><line class="f" x1="410.54" y1="294.58" x2="410.54" y2="325.79"/><line class="f" x1="406.74" y1="317.98" x2="406.74" y2="302.38"/><line class="f" x1="408.64" y1="294.58" x2="410.54" y2="294.58"/><line class="f" x1="409.78" y1="323.71" x2="409.78" y2="321.63"/><line class="f" x1="409.78" y1="321.63" x2="409.31" y2="321.63"/><line class="f" x1="409.31" y1="321.63" x2="409.31" y2="323.71"/><line class="f" x1="409.31" y1="323.71" x2="409.78" y2="323.71"/><line class="f" x1="409.78" y1="321.1" x2="409.78" y2="319.02"/><line class="f" x1="409.78" y1="319.02" x2="409.31" y2="319.02"/><line class="f" x1="409.31" y1="319.02" x2="409.31" y2="321.1"/><line class="f" x1="409.31" y1="321.1" x2="409.78" y2="321.1"/><line class="f" x1="408.64" y1="294.58" x2="408.64" y2="325.79"/><line class="f" x1="409.31" y1="318.5" x2="409.78" y2="318.5"/><line class="f" x1="409.78" y1="318.5" x2="409.78" y2="317.46"/><line class="f" x1="409.78" y1="317.46" x2="409.31" y2="317.46"/><line class="f" x1="409.31" y1="317.46" x2="409.31" y2="318.5"/><g class="i"><path class="f" d="M410.54,305.24a6.65,6.65,0,0,1,0,9.88"/></g><polygon class="g" points="468.66 244.27 462.02 240.45 460.31 239.99 458.6 240.45 457.34 241.7 453.91 247.62 453.45 249.33 453.91 251.04 455.17 252.29 461.81 256.11 462.27 252.57 463.64 249.27 465.82 246.44 468.66 244.27"/><polygon class="g" points="489.24 256.11 495.88 252.29 497.13 251.03 497.6 249.33 497.13 247.62 493.71 241.7 492.45 240.45 490.74 239.99 489.02 240.45 482.38 244.27 485.22 246.44 487.4 249.27 488.77 252.57 489.24 256.11"/><polygon class="g" points="468.66 267.94 468.66 275.58 469.13 277.3 470.38 278.55 472.1 279 478.95 279 480.67 278.55 481.92 277.3 482.38 275.58 482.38 267.94 479.07 269.31 475.53 269.78 471.97 269.31 468.66 267.94"/><polygon class="g" points="461.81 256.11 462.28 252.57 463.64 249.27 465.82 246.44 468.66 244.27 471.97 242.9 475.52 242.44 479.07 242.9 482.38 244.27 485.22 246.44 487.4 249.27 488.78 252.57 489.24 256.11 488.78 259.64 487.4 262.94 485.22 265.77 482.38 267.94 479.07 269.31 475.52 269.78 471.97 269.31 468.66 267.94 465.82 265.77 463.64 262.94 462.28 259.64 461.81 256.11"/><line class="f" x1="461.81" y1="256.11" x2="462.28" y2="252.57"/><line class="f" x1="462.28" y1="252.57" x2="463.64" y2="249.27"/><line class="f" x1="463.64" y1="249.27" x2="465.82" y2="246.44"/><line class="f" x1="465.82" y1="246.44" x2="468.66" y2="244.27"/><line class="f" x1="468.66" y1="244.27" x2="471.97" y2="242.9"/><line class="f" x1="471.97" y1="242.9" x2="475.53" y2="242.44"/><line class="f" x1="475.53" y1="242.44" x2="479.07" y2="242.9"/><line class="f" x1="479.07" y1="242.9" x2="482.38" y2="244.27"/><line class="f" x1="482.38" y1="244.27" x2="485.22" y2="246.44"/><line class="f" x1="485.22" y1="246.44" x2="487.4" y2="249.27"/><line class="f" x1="487.4" y1="249.27" x2="488.78" y2="252.57"/><line class="f" x1="488.78" y1="252.57" x2="489.24" y2="256.11"/><line class="f" x1="489.24" y1="256.11" x2="488.78" y2="259.64"/><line class="f" x1="488.78" y1="259.64" x2="487.4" y2="262.94"/><line class="f" x1="487.4" y1="262.94" x2="485.22" y2="265.77"/><line class="f" x1="485.22" y1="265.77" x2="482.38" y2="267.94"/><line class="f" x1="482.38" y1="267.94" x2="479.07" y2="269.31"/><line class="f" x1="479.07" y1="269.31" x2="475.53" y2="269.78"/><line class="f" x1="475.53" y1="269.78" x2="471.97" y2="269.31"/><line class="f" x1="471.97" y1="269.31" x2="468.66" y2="267.94"/><line class="f" x1="468.66" y1="267.94" x2="465.82" y2="265.77"/><line class="f" x1="465.82" y1="265.77" x2="463.64" y2="262.94"/><line class="f" x1="463.64" y1="262.94" x2="462.27" y2="259.64"/><line class="f" x1="462.28" y1="259.64" x2="461.81" y2="256.11"/><g class="i"><path class="f" d="M475.52,242.43h0a13.67,13.67,0,1,1,0,27.34"/><path class="f" d="M475.52,269.77h0a13.67,13.67,0,1,1,0-27.33"/></g><line class="f" x1="458.83" y1="242.55" x2="455.4" y2="248.47"/><line class="f" x1="455.17" y1="252.29" x2="461.81" y2="256.11"/><line class="f" x1="457.34" y1="241.7" x2="453.91" y2="247.62"/><line class="f" x1="468.66" y1="244.27" x2="462.02" y2="240.45"/><line class="f" x1="495.65" y1="248.47" x2="492.22" y2="242.55"/><line class="f" x1="489.02" y1="240.45" x2="482.38" y2="244.27"/><line class="f" x1="497.14" y1="247.62" x2="493.71" y2="241.7"/><line class="f" x1="489.24" y1="256.11" x2="495.88" y2="252.29"/><line class="f" x1="472.1" y1="277.3" x2="478.95" y2="277.3"/><line class="f" x1="482.38" y1="275.58" x2="482.38" y2="267.94"/><line class="f" x1="472.1" y1="279" x2="478.95" y2="279"/><line class="f" x1="468.66" y1="267.94" x2="468.66" y2="275.59"/><g class="i"><path class="f" d="M456,250.81a1.71,1.71,0,0,1-.63-2.34"/><path class="f" d="M458.83,242.55a1.72,1.72,0,0,1,2.34-.62"/><path class="f" d="M455.17,252.29a3.41,3.41,0,0,1-1.26-4.67"/><path class="f" d="M457.34,241.7a3.44,3.44,0,0,1,4.69-1.25"/><path class="f" d="M489.88,241.93a1.72,1.72,0,0,1,2.34.62"/><path class="f" d="M495.65,248.47a1.73,1.73,0,0,1,.23.86,1.7,1.7,0,0,1-.86,1.48"/><path class="f" d="M489,240.45a3.49,3.49,0,0,1,1.72-.46,3.43,3.43,0,0,1,3,1.71"/><path class="f" d="M497.14,247.62a3.41,3.41,0,0,1-1.26,4.67"/><path class="f" d="M480.67,275.58h0a1.71,1.71,0,0,1-1.72,1.71"/><path class="f" d="M472.09,277.29h0a1.71,1.71,0,0,1-1.71-1.71"/><path class="f" d="M482.38,275.58h0A3.42,3.42,0,0,1,479,279"/><path class="f" d="M472.09,279h0a3.43,3.43,0,0,1-3.43-3.42"/></g><rect class="d" x="378.52" y="313.17" width="20.53" height="50.65"/><line class="f" x1="378.52" y1="363.82" x2="378.52" y2="313.17"/><line class="f" x1="378.52" y1="313.17" x2="399.06" y2="313.17"/><line class="f" x1="399.06" y1="313.17" x2="399.06" y2="363.82"/><line class="f" x1="399.06" y1="363.82" x2="378.52" y2="363.82"/><line class="f" x1="388.79" y1="361.28" x2="388.79" y2="315.7"/><line class="f" x1="382.75" y1="358.94" x2="395.05" y2="354.65"/><line class="f" x1="382.14" y1="354.1" x2="393.58" y2="352.33"/><line class="f" x1="396.19" y1="347.51" x2="383.63" y2="346.05"/><line class="f" x1="394.55" y1="340.04" x2="383.63" y2="342.01"/><line class="f" x1="395.17" y1="337.32" x2="381.73" y2="337.32"/><line class="f" x1="395.23" y1="329.62" x2="381.95" y2="331.45"/><line class="f" x1="395.01" y1="326.74" x2="382.87" y2="326.74"/><line class="f" x1="395.13" y1="319.14" x2="382.69" y2="317.68"/><line class="f" x1="394.29" y1="320.97" x2="383.76" y2="322.45"/><rect class="d" x="378.52" y="261.5" width="20.53" height="51.67"/><line class="f" x1="378.52" y1="313.17" x2="378.52" y2="261.5"/><line class="f" x1="378.52" y1="261.5" x2="399.06" y2="261.5"/><line class="f" x1="399.06" y1="261.5" x2="399.06" y2="313.17"/><line class="f" x1="399.06" y1="313.17" x2="378.52" y2="313.17"/><line class="f" x1="388.79" y1="310.59" x2="388.79" y2="264.08"/><line class="f" x1="382.75" y1="308.19" x2="395.05" y2="303.82"/><line class="f" x1="382.14" y1="303.26" x2="393.58" y2="301.46"/><line class="f" x1="396.19" y1="296.53" x2="383.63" y2="295.05"/><line class="f" x1="394.55" y1="288.91" x2="383.63" y2="290.93"/><line class="f" x1="395.17" y1="286.13" x2="381.73" y2="286.13"/><line class="f" x1="395.23" y1="278.28" x2="381.95" y2="280.15"/><line class="f" x1="395.01" y1="275.34" x2="382.87" y2="275.34"/><line class="f" x1="395.13" y1="267.59" x2="382.69" y2="266.1"/><line class="f" x1="394.29" y1="269.46" x2="383.76" y2="270.97"/><polygon class="g" points="515.4 329.54 514.78 329.9 514.72 330.62 514.72 355.95 514.69 356.42 514.95 356.82 515.4 356.97 543.13 356.97 543.61 356.77 543.81 356.29 543.81 285.79 543.61 285.31 543.13 285.11 518.14 285.11 516.43 285.57 515.18 286.82 514.72 288.53 514.72 289.56 514.92 290.04 515.4 290.24 514.91 290.65 514.72 291.27 514.72 328.57 514.91 329.16 515.4 329.54"/><polygon class="g" points="492.48 329.6 489.86 330.12 487.64 331.6 486.15 333.82 485.63 336.44 485.63 350.13 486.15 352.75 487.64 354.97 489.86 356.45 492.48 356.97 513.7 356.97 514.42 356.67 514.72 355.94 514.72 330.62 514.42 329.9 513.7 329.6 492.48 329.6"/><line class="f" x1="513.7" y1="329.6" x2="492.48" y2="329.6"/><g class="i"><path class="f" d="M513.7,329.6a1,1,0,0,1,1,1"/></g><line class="f" x1="514.72" y1="355.95" x2="514.72" y2="330.62"/><g class="i"><path class="f" d="M514.72,356a1,1,0,0,1-1,1"/></g><line class="f" x1="492.48" y1="356.97" x2="513.69" y2="356.97"/><g class="i"><path class="f" d="M492.48,357a6.85,6.85,0,0,1-6.85-6.84"/></g><line class="f" x1="485.63" y1="336.44" x2="485.63" y2="350.13"/><g class="i"><path class="f" d="M485.63,336.44a6.85,6.85,0,0,1,6.85-6.84"/></g><line class="f" x1="514.72" y1="289.56" x2="514.72" y2="288.53"/><line class="f" x1="518.14" y1="285.11" x2="543.12" y2="285.11"/><line class="f" x1="543.81" y1="285.79" x2="543.81" y2="289.56"/><line class="f" x1="543.13" y1="290.24" x2="515.41" y2="290.24"/><line class="f" x1="543.81" y1="289.56" x2="543.81" y2="329.6"/><line class="f" x1="543.81" y1="329.6" x2="541.42" y2="329.6"/><line class="f" x1="514.72" y1="328.57" x2="514.72" y2="291.27"/><line class="f" x1="515.75" y1="290.24" x2="532.9" y2="290.24"/><line class="f" x1="532.9" y1="329.6" x2="515.75" y2="329.6"/><line class="f" x1="541.41" y1="290.24" x2="534.96" y2="290.24"/><line class="f" x1="534.96" y1="329.6" x2="541.42" y2="329.6"/><line class="f" x1="514.72" y1="352.52" x2="514.72" y2="356.29"/><line class="f" x1="515.41" y1="356.97" x2="543.12" y2="356.97"/><line class="f" x1="543.81" y1="356.29" x2="543.81" y2="352.52"/><line class="f" x1="543.81" y1="352.52" x2="543.81" y2="329.6"/><line class="f" x1="543.81" y1="329.6" x2="541.42" y2="329.6"/><line class="f" x1="514.72" y1="330.62" x2="514.72" y2="350.81"/><line class="f" x1="532.9" y1="329.6" x2="515.75" y2="329.6"/><line class="f" x1="532.9" y1="329.6" x2="541.41" y2="329.6"/><line class="f" x1="485.63" y1="336.44" x2="485.63" y2="350.13"/><line class="f" x1="492.48" y1="356.97" x2="513.69" y2="356.97"/><line class="f" x1="514.72" y1="355.95" x2="514.72" y2="330.62"/><line class="f" x1="513.7" y1="329.6" x2="492.48" y2="329.6"/><line class="f" x1="542.44" y1="330.62" x2="542.44" y2="355.95"/><line class="f" x1="542.44" y1="328.57" x2="542.44" y2="291.27"/><g class="i"><path class="f" d="M543.13,285.11a.69.69,0,0,1,.68.68"/><path class="f" d="M543.81,289.56a.68.68,0,0,1-.68.68"/><path class="f" d="M515.41,290.24a.68.68,0,0,1-.69-.68"/><path class="f" d="M514.72,291.27a1,1,0,0,1,1-1"/><path class="f" d="M515.75,329.6a1,1,0,0,1-1-1"/><path class="f" d="M515.41,357a.68.68,0,0,1-.69-.68"/><path class="f" d="M543.81,356.29a.68.68,0,0,1-.68.68"/><path class="f" d="M514.72,330.62a1,1,0,0,1,1-1"/><path class="f" d="M514.72,356a1,1,0,0,1-1,1"/><path class="f" d="M513.7,329.6a1,1,0,0,1,1,1"/></g><line class="f" x1="542.44" y1="355.95" x2="519.13" y2="355.95"/><g class="i"><path class="f" d="M538.46,330.58a19.4,19.4,0,0,1-14.62,24.13"/><path class="f" d="M537.65,328.57a116.69,116.69,0,0,1,0-37.3"/><path class="f" d="M485.63,336.44a6.85,6.85,0,0,1,6.85-6.84"/><path class="f" d="M492.48,357a6.85,6.85,0,0,1-6.85-6.84"/><path class="f" d="M514.72,288.53a3.42,3.42,0,0,1,3.42-3.42"/></g><polygon class="g" points="318.81 199.22 306.15 199.22 306.15 210.51 306.41 212.2 307.18 213.73 308.37 214.96 310.31 215.97 312.48 216.32 314.64 215.97 316.58 214.96 317.78 213.73 318.55 212.2 318.81 210.51 318.81 199.22"/><line class="f" x1="306.15" y1="199.21" x2="306.15" y2="210.51"/><line class="f" x1="306.15" y1="199.21" x2="318.81" y2="199.21"/><line class="f" x1="318.81" y1="199.21" x2="318.81" y2="210.51"/><line class="f" x1="308.2" y1="203.32" x2="308.2" y2="210.51"/><line class="f" x1="316.75" y1="203.32" x2="316.75" y2="210.51"/><line class="f" x1="316.75" y1="203.32" x2="308.2" y2="203.32"/><g class="i"><path class="f" d="M308.37,215a5.56,5.56,0,0,1-2.22-4.45"/><path class="f" d="M318.81,210.51a5.57,5.57,0,0,1-2.23,4.45"/><path class="f" d="M316.58,215a6.84,6.84,0,0,1-8.21,0"/><path class="f" d="M318.81,210.51a5.57,5.57,0,0,1-2.23,4.45"/><path class="f" d="M316.58,215a6.81,6.81,0,0,1-4.1,1.37"/><path class="f" d="M316.75,210.51a3.5,3.5,0,0,1-1.4,2.8"/><path class="f" d="M315.35,213.31a4.79,4.79,0,0,1-5.75,0"/><path class="f" d="M309.6,213.31a3.5,3.5,0,0,1-1.4-2.8"/></g><polygon class="g" points="295.71 199.22 277.91 199.22 277.55 199.37 277.4 199.73 277.4 213.76 277.55 214.12 277.91 214.27 295.71 214.27 296.07 214.12 296.22 213.76 296.22 199.73 296.07 199.37 295.71 199.22"/><g class="i"><path class="f" d="M295.71,199.21a.51.51,0,0,1,.51.52"/></g><line class="f" x1="296.22" y1="213.76" x2="296.22" y2="199.73"/><g class="i"><path class="f" d="M296.22,213.76a.51.51,0,0,1-.51.51"/></g><line class="f" x1="277.91" y1="214.27" x2="295.71" y2="214.27"/><g class="i"><path class="f" d="M277.91,214.27a.51.51,0,0,1-.51-.51"/></g><line class="f" x1="277.4" y1="199.73" x2="277.4" y2="213.76"/><g class="i"><path class="f" d="M277.4,199.73a.51.51,0,0,1,.51-.51"/></g><line class="f" x1="295.71" y1="199.21" x2="277.91" y2="199.21"/><line class="f" x1="294.68" y1="202.98" x2="278.94" y2="202.98"/><line class="f" x1="278.43" y1="203.49" x2="278.43" y2="212.73"/><line class="f" x1="278.94" y1="213.25" x2="294.68" y2="213.25"/><line class="f" x1="295.19" y1="212.73" x2="295.19" y2="203.49"/><g class="i"><path class="f" d="M278.43,203.49a.51.51,0,0,1,.51-.51"/><path class="f" d="M278.94,213.25a.51.51,0,0,1-.51-.52"/><path class="f" d="M295.19,212.73a.5.5,0,0,1-.51.51"/><path class="f" d="M294.68,203a.51.51,0,0,1,.51.51"/></g><polygon class="g" points="287.67 201.27 287.53 202.7 287.42 203.03 287.19 204.84 287.06 205.08 286.81 205.18 286.56 205.08 286.43 204.84 286.2 203.03 286.09 202.7 285.95 201.27 286.21 200.66 286.81 200.41 287.42 200.66 287.67 201.27"/><line class="f" x1="287.67" y1="201.27" x2="287.53" y2="202.7"/><g class="i"><path class="f" d="M287.53,202.7a.76.76,0,0,1-.11.33"/></g><line class="f" x1="287.42" y1="203.03" x2="287.19" y2="204.84"/><g class="i"><path class="f" d="M287.19,204.84a.38.38,0,0,1-.38.33.39.39,0,0,1-.38-.33"/></g><line class="f" x1="286.43" y1="204.84" x2="286.2" y2="203.03"/><g class="i"><path class="f" d="M286.2,203a.76.76,0,0,1-.11-.33"/></g><line class="f" x1="286.09" y1="202.7" x2="285.96" y2="201.27"/><g class="i"><path class="f" d="M286,201.27a.86.86,0,1,1,1.71,0"/></g><line class="f" x1="286.34" y1="202.12" x2="286.34" y2="202.63"/><line class="f" x1="287.28" y1="202.63" x2="287.28" y2="202.12"/><line class="f" x1="287.28" y1="202.12" x2="286.34" y2="202.12"/><g class="i"><path class="f" d="M287.28,202.63a.47.47,0,0,1-.94,0"/><path class="f" d="M287.42,203a.72.72,0,0,1-.61.33.73.73,0,0,1-.61-.33"/></g><line class="f" x1="370.65" y1="194.08" x2="377.5" y2="194.08"/><line class="f" x1="381.26" y1="194.08" x2="382.03" y2="194.08"/><line class="f" x1="385.79" y1="194.08" x2="386.56" y2="194.08"/><line class="f" x1="390.33" y1="194.08" x2="397.17" y2="194.08"/><line class="f" x1="400.94" y1="194.08" x2="401.45" y2="194.08"/><line class="f" x1="401.45" y1="194.08" x2="408.29" y2="194.08"/><line class="f" x1="492.42" y1="207.26" x2="492.42" y2="201.52"/><line class="f" x1="492.42" y1="201.52" x2="490.09" y2="203.4"/><line class="f" x1="490.09" y1="203.4" x2="487.76" y2="201.52"/><line class="f" x1="487.76" y1="201.52" x2="487.76" y2="207.26"/><line class="f" x1="239.93" y1="432.26" x2="515.4" y2="432.26"/><line class="f" x1="515.41" y1="432.26" x2="515.41" y2="377.5"/><line class="f" x1="239.93" y1="430.55" x2="513.69" y2="430.55"/><line class="f" x1="513.7" y1="430.55" x2="513.7" y2="377.5"/><line class="f" x1="235.82" y1="185.87" x2="235.82" y2="377.5"/><line class="f" x1="235.82" y1="377.51" x2="239.93" y2="377.51"/><line class="f" x1="239.93" y1="377.51" x2="239.93" y2="432.26"/><line class="f" x1="239.93" y1="432.26" x2="515.4" y2="432.26"/><line class="f" x1="515.41" y1="432.26" x2="515.41" y2="377.5"/><line class="f" x1="515.41" y1="377.51" x2="554.76" y2="377.51"/><line class="f" x1="554.76" y1="377.51" x2="554.76" y2="185.87"/><line class="f" x1="554.76" y1="185.87" x2="235.82" y2="185.87"/><path class="j" d="M394.11,402.31v7h-.72V403h-1.65v-.64Z"/><path class="j" d="M395.79,408.81a.53.53,0,0,1,.53-.54.54.54,0,0,1,.54.54.55.55,0,0,1-.54.55A.54.54,0,0,1,395.79,408.81Z"/><path class="j" d="M397.8,405.81c0-2.23,1.17-3.56,2.79-3.56s2.8,1.33,2.8,3.56-1.18,3.56-2.8,3.56S397.8,408,397.8,405.81Zm4.85,0c0-1.87-.84-2.9-2.06-2.9s-2.06,1-2.06,2.9.84,2.9,2.06,2.9S402.65,407.68,402.65,405.81Z"/><path class="j" d="M409.17,407.25c0,1.19-.83,2.12-2.54,2.12a3.61,3.61,0,0,1-2.51-.9l.35-.57a3,3,0,0,0,2.15.81c1.19,0,1.82-.58,1.82-1.43s-.56-1.46-2.34-1.46h-1.49l.36-3.51h3.83V403h-3.2l-.24,2.23h.9C408.37,405.18,409.17,406,409.17,407.25Z"/><path class="j" d="M293.84,231.08v7h-.72v-6.36h-1.65v-.64Z"/><path class="j" d="M295.52,237.58a.53.53,0,0,1,.53-.54.54.54,0,0,1,.54.54.55.55,0,0,1-.54.55A.54.54,0,0,1,295.52,237.58Z"/><path class="j" d="M297.53,234.58c0-2.23,1.17-3.56,2.79-3.56s2.8,1.33,2.8,3.56-1.18,3.56-2.8,3.56S297.53,236.81,297.53,234.58Zm4.85,0c0-1.87-.84-2.9-2.06-2.9s-2.06,1-2.06,2.9.84,2.9,2.06,2.9S302.38,236.45,302.38,234.58Z"/><path class="j" d="M310.1,236.24h-1.4v1.84H308v-1.84h-4v-.52l3.71-4.64h.8L305,235.6h3V234h.7v1.62h1.4Z"/><path class="j" d="M345.72,304v7H345v-6.36h-1.65V304Z"/><path class="j" d="M347.4,310.5a.53.53,0,0,1,.53-.54.54.54,0,0,1,.54.54.55.55,0,0,1-.54.55A.54.54,0,0,1,347.4,310.5Z"/><path class="j" d="M349.41,307.5c0-2.23,1.17-3.56,2.79-3.56s2.8,1.33,2.8,3.56-1.18,3.56-2.8,3.56S349.41,309.73,349.41,307.5Zm4.85,0c0-1.87-.84-2.9-2.06-2.9s-2.06,1-2.06,2.9.84,2.9,2.06,2.9S354.26,309.37,354.26,307.5Z"/><path class="j" d="M360.57,309c0,1.17-.85,2.07-2.54,2.07a3.64,3.64,0,0,1-2.52-.9l.35-.57a3.07,3.07,0,0,0,2.17.81c1.16,0,1.8-.54,1.8-1.41s-.59-1.39-1.89-1.39h-.5v-.53l1.94-2.43H355.8V304h4.5v.51l-2,2.49C359.82,307.08,360.57,307.87,360.57,309Z"/><path class="j" d="M449.74,302v7H449v-6.36h-1.65V302Z"/><path class="j" d="M451.42,308.53A.53.53,0,0,1,452,308a.54.54,0,0,1,.54.54.55.55,0,0,1-.54.55A.54.54,0,0,1,451.42,308.53Z"/><path class="j" d="M453.43,305.53c0-2.23,1.17-3.56,2.79-3.56s2.8,1.33,2.8,3.56-1.18,3.56-2.8,3.56S453.43,307.76,453.43,305.53Zm4.85,0c0-1.87-.84-2.9-2.06-2.9s-2.06,1-2.06,2.9.84,2.9,2.06,2.9S458.28,307.4,458.28,305.53Z"/><path class="j" d="M464.82,308.39V309h-4.91v-.51l2.91-2.85c.79-.78.94-1.25.94-1.73,0-.81-.57-1.31-1.64-1.31a2.38,2.38,0,0,0-1.91.78l-.51-.44a3.15,3.15,0,0,1,2.48-1c1.42,0,2.32.72,2.32,1.89a2.88,2.88,0,0,1-1.15,2.19L461,308.39Z"/><path class="j" d="M381,231.09v7h-.72v-6.36h-1.65v-.64Z"/><path class="j" d="M382.68,237.59a.53.53,0,0,1,.53-.54.54.54,0,0,1,.54.54.55.55,0,0,1-.54.55A.54.54,0,0,1,382.68,237.59Z"/><path class="j" d="M384.69,234.59c0-2.23,1.17-3.56,2.79-3.56s2.8,1.33,2.8,3.56-1.18,3.56-2.8,3.56S384.69,236.82,384.69,234.59Zm4.85,0c0-1.87-.84-2.9-2.06-2.9s-2.06,1-2.06,2.9.84,2.9,2.06,2.9S389.54,236.46,389.54,234.59Z"/><path class="j" d="M393.24,231.09v7h-.72v-6.36h-1.65v-.64Z"/></svg>