<svg xmlns="http://www.w3.org/2000/svg" xmlns:xlink="http://www.w3.org/1999/xlink" viewBox="0 0 790.58 618.13"><defs><style>.a,.f{fill:none;}.b{fill:#595a5c;}.c{fill:#b6906c;}.d{fill:#fff;}.e{fill:#231f20;}.f{stroke:#000;stroke-linecap:round;stroke-linejoin:round;stroke-width:0.35px;}.g{clip-path:url(#a);}.h{fill:#58595b;}</style><clipPath id="a"><polygon class="a" points="299.62 184.42 299.62 378.31 314.23 378.31 314.23 433.71 486.79 433.71 486.79 378.31 490.96 378.31 490.96 184.42 299.62 184.42"/></clipPath></defs><path class="b" d="M55.31,597.13H57.1V609.9H55.31Zm.92,6.11h4.09a1.89,1.89,0,0,0,1-.27,1.82,1.82,0,0,0,.68-.77,2.67,2.67,0,0,0,.24-1.16,2.7,2.7,0,0,0-.24-1.16,1.82,1.82,0,0,0-1.7-1H56.23v-1.7h4a4.09,4.09,0,0,1,2,.48A3.45,3.45,0,0,1,63.62,599a4.64,4.64,0,0,1,0,4.11,3.34,3.34,0,0,1-1.35,1.36,4,4,0,0,1-2,.49h-4Z"/><path class="b" d="M67.7,606.33a2.07,2.07,0,0,0,.49,1.48,1.76,1.76,0,0,0,1.37.52,1.89,1.89,0,0,0,1.37-.46,1.79,1.79,0,0,0,.48-1.33l.12,1.91A2.58,2.58,0,0,1,69.06,610a2.89,2.89,0,0,1-2.33-1,4.08,4.08,0,0,1-.82-2.73v-5.55H67.7Zm.22-7.86a1.93,1.93,0,0,1-.56-1.5,2.07,2.07,0,0,1,.56-1.57,2.56,2.56,0,0,1,3.18,0,2.08,2.08,0,0,1,.57,1.56,1.94,1.94,0,0,1-.57,1.5,2.65,2.65,0,0,1-3.18,0Zm2.26-.86a.94.94,0,0,0,.24-.68,1,1,0,0,0-.24-.7.91.91,0,0,0-.67-.25.92.92,0,0,0-.67.25,1,1,0,0,0-.23.7,1,1,0,0,0,.23.68.92.92,0,0,0,.67.24A.9.9,0,0,0,70.18,597.61Zm1.23,3.17h1.78v9.12H71.41Z"/><path class="b" d="M77.1,609.63A2.82,2.82,0,0,1,76,608.36a5.08,5.08,0,0,1-.36-2v-2a5.05,5.05,0,0,1,.36-2,2.71,2.71,0,0,1,1-1.27,3,3,0,0,1,1.65-.44,2.71,2.71,0,0,1,1.48.42,3.22,3.22,0,0,1,1.09,1.19l-.18,1.86a2.19,2.19,0,0,0-.22-1,1.48,1.48,0,0,0-.61-.63,2,2,0,0,0-1-.21,1.71,1.71,0,0,0-1.37.55,2.26,2.26,0,0,0-.49,1.56v2a2.19,2.19,0,0,0,.49,1.54,1.74,1.74,0,0,0,1.37.54,1.93,1.93,0,0,0,1-.23,1.45,1.45,0,0,0,.61-.64,2.25,2.25,0,0,0,.22-1l.12,1.92a2.66,2.66,0,0,1-.89,1.14,2.56,2.56,0,0,1-1.53.45A3.19,3.19,0,0,1,77.1,609.63Zm4-12.5H82.9V609.9H81.11Z"/><path class="b" d="M87.09,609.57a3.09,3.09,0,0,1-1.29-1.36,4.85,4.85,0,0,1-.44-2.15v-1.48a4.71,4.71,0,0,1,.44-2.12,3.12,3.12,0,0,1,1.29-1.35,4.71,4.71,0,0,1,4.06,0,3.12,3.12,0,0,1,1.29,1.35,4.71,4.71,0,0,1,.44,2.12v1.51a4.79,4.79,0,0,1-.44,2.13,3.12,3.12,0,0,1-1.29,1.35,4.62,4.62,0,0,1-4.06,0Zm3.49-1.83a2.43,2.43,0,0,0,.51-1.65v-1.51a2.43,2.43,0,0,0-.51-1.65,1.88,1.88,0,0,0-1.46-.58,1.85,1.85,0,0,0-1.45.58,2.38,2.38,0,0,0-.52,1.65v1.51a2.38,2.38,0,0,0,.52,1.65,1.82,1.82,0,0,0,1.45.59A1.85,1.85,0,0,0,90.58,607.74Z"/><path class="b" d="M95.43,600.78h1.79v9.12H95.43Zm4.42,1.72a2.16,2.16,0,0,0-.83-.15,1.83,1.83,0,0,0-1.33.47,1.79,1.79,0,0,0-.47,1.31L97,602.37a3.32,3.32,0,0,1,1.09-1.27,2.58,2.58,0,0,1,1.48-.45,3.39,3.39,0,0,1,1.13.18,2.62,2.62,0,0,1,.88.53l-1.17,1.58A1.56,1.56,0,0,0,99.85,602.5Z"/><path class="b" d="M102.15,600.78H104l2.81,7.93-1,1.94Zm8.07,0L106.34,612a2.6,2.6,0,0,1-.56,1,1.87,1.87,0,0,1-.84.52,4,4,0,0,1-1.23.16h-.36V612h.36a1.46,1.46,0,0,0,.8-.2,1.74,1.74,0,0,0,.51-.7l3.38-10.31Z"/><path class="b" d="M113.51,609.88a5.76,5.76,0,0,1-1.32-.48,4.89,4.89,0,0,1-1.13-.79l1.06-1.31a5.86,5.86,0,0,0,1.47.85,4.18,4.18,0,0,0,1.44.28,3.11,3.11,0,0,0,1.6-.33,1.1,1.1,0,0,0,.53-1,.79.79,0,0,0-.29-.66,1.66,1.66,0,0,0-.72-.29c-.29,0-.69-.1-1.22-.14h-.15l-.14,0h-.15a6.45,6.45,0,0,1-1.5-.26,2,2,0,0,1-1-.7,2.38,2.38,0,0,1-.41-1.49,3.07,3.07,0,0,1,.39-1.61,2.41,2.41,0,0,1,1.18-1,5.29,5.29,0,0,1,2-.32,6.38,6.38,0,0,1,2.6.52,6.16,6.16,0,0,1,1.13.66l-1.08,1.31a5.59,5.59,0,0,0-1.35-.66,4,4,0,0,0-1.3-.22,2.44,2.44,0,0,0-1.37.31,1.08,1.08,0,0,0-.46.94.64.64,0,0,0,.26.55,1.72,1.72,0,0,0,.66.25c.26,0,.64.07,1.12.1h.34a7.67,7.67,0,0,1,1.63.25,2.24,2.24,0,0,1,1.13.77,2.62,2.62,0,0,1,.45,1.65,2.92,2.92,0,0,1-.42,1.63,2.54,2.54,0,0,1-1.27,1A5.88,5.88,0,0,1,115,610,7.38,7.38,0,0,1,113.51,609.88Z"/><path class="b" d="M126,597.13h1.8V609.9H126Zm2.6,12.5a2.39,2.39,0,0,1-.93-1.16l.13-1.91a2.22,2.22,0,0,0,.21,1,1.48,1.48,0,0,0,.61.63,1.93,1.93,0,0,0,1,.22,1.74,1.74,0,0,0,1.37-.54,2.18,2.18,0,0,0,.49-1.53v-2a2.26,2.26,0,0,0-.49-1.56,1.71,1.71,0,0,0-1.37-.55,2,2,0,0,0-1,.21,1.36,1.36,0,0,0-.61.62,2.12,2.12,0,0,0-.21,1l-.19-1.76a3.37,3.37,0,0,1,1.08-1.24,2.67,2.67,0,0,1,1.49-.43,3,3,0,0,1,1.65.43,2.9,2.9,0,0,1,1.06,1.27,5.1,5.1,0,0,1,.36,2v2a4.94,4.94,0,0,1-.37,2,2.79,2.79,0,0,1-1.08,1.26,3.25,3.25,0,0,1-1.71.44A2.73,2.73,0,0,1,128.57,609.63Z"/><path class="b" d="M134.46,600.78h1.82l2.81,7.93-1,1.94Zm8.07,0L138.65,612a2.6,2.6,0,0,1-.56,1,1.87,1.87,0,0,1-.84.52,4,4,0,0,1-1.23.16h-.36V612H136a1.46,1.46,0,0,0,.8-.2,1.74,1.74,0,0,0,.51-.7l3.37-10.31Z"/><path class="b" d="M143.57,600.78h4.12v1.62h-4.12Zm1.46,8.56a2.77,2.77,0,0,1-.52-1.81v-9.4h1.8v9.42a.84.84,0,0,0,.13.51.46.46,0,0,0,.39.18h.86V610h-1A2,2,0,0,1,145,609.34Z"/><path class="b" d="M151.94,606.33a2.07,2.07,0,0,0,.49,1.48,1.76,1.76,0,0,0,1.37.52,1.91,1.91,0,0,0,1.37-.46,1.79,1.79,0,0,0,.48-1.33l.12,1.91A2.58,2.58,0,0,1,153.3,610a2.89,2.89,0,0,1-2.33-1,4.08,4.08,0,0,1-.82-2.73v-5.55h1.79Zm3.71-5.55h1.78v9.12h-1.78Z"/><rect class="c" x="612.92" y="591.68" width="35.43" height="2.83"/><path class="d" d="M648.48,594.64H612.79v-3.08h35.69ZM613,594.39h35.19v-2.58H613Z"/><rect class="c" x="612.92" y="601.6" width="70.74" height="2.83"/><path class="d" d="M683.78,604.56h-71v-3.08h71ZM613,604.31h70.49v-2.58H613Z"/><rect class="c" x="612.92" y="612.72" width="177.16" height="2.84"/><path class="d" d="M790.21,615.68H612.79V612.6H790.21ZM613,615.43H790v-2.58H613Z"/><path class="e" d="M587.26,596.28h-.8v-4.82l-.81.5v-.83l.81-.53h.8Z"/><path class="e" d="M589,595.91a1.67,1.67,0,0,1-.41-1.19v-2.58A1.65,1.65,0,0,1,589,591a2,2,0,0,1,2.42,0,1.65,1.65,0,0,1,.41,1.19v2.58a1.65,1.65,0,0,1-.41,1.19,2,2,0,0,1-2.42,0Zm1.83-.55a.89.89,0,0,0,.2-.64v-2.58a.89.89,0,0,0-.2-.64.82.82,0,0,0-.62-.22.86.86,0,0,0-.63.22.94.94,0,0,0-.2.64v2.58a.9.9,0,0,0,.21.64,1,1,0,0,0,1.24,0Z"/><path class="e" d="M593.22,595.91a1.67,1.67,0,0,1-.41-1.19v-2.58a1.65,1.65,0,0,1,.41-1.19,2,2,0,0,1,2.42,0,1.61,1.61,0,0,1,.41,1.19v2.58a1.65,1.65,0,0,1-.41,1.19,2,2,0,0,1-2.42,0Zm1.83-.55a.9.9,0,0,0,.21-.64v-2.58a.94.94,0,0,0-.2-.64.86.86,0,0,0-.63-.22.82.82,0,0,0-.62.22.89.89,0,0,0-.2.64v2.58a.89.89,0,0,0,.2.64,1,1,0,0,0,1.24,0Z"/><path class="e" d="M600.1,596.13a1.45,1.45,0,0,1-.6-.6,2.06,2.06,0,0,1-.21-1v-.67a2,2,0,0,1,.21-.94,1.37,1.37,0,0,1,.6-.59,2,2,0,0,1,.95-.21,2.21,2.21,0,0,1,.59.08,1.68,1.68,0,0,1,.51.22,1.54,1.54,0,0,1,.37.35l-.58.52a1.17,1.17,0,0,0-.4-.3,1.13,1.13,0,0,0-.48-.11.94.94,0,0,0-.71.26,1,1,0,0,0-.26.72v.67a1,1,0,0,0,.25.74.94.94,0,0,0,.72.27,1,1,0,0,0,.48-.12,1,1,0,0,0,.4-.32l.58.56a1.38,1.38,0,0,1-.38.34,1.62,1.62,0,0,1-.5.22,2.27,2.27,0,0,1-.59.07A2.12,2.12,0,0,1,600.1,596.13Z"/><path class="e" d="M603.4,592.22h.79v4.06h-.79Zm2.42,1.6a1,1,0,0,0-.21-.67.78.78,0,0,0-.6-.23.81.81,0,0,0-.6.21.73.73,0,0,0-.22.58l-.08-.78a1.46,1.46,0,0,1,.49-.57,1.22,1.22,0,0,1,.67-.2,1.33,1.33,0,0,1,.73.2,1.18,1.18,0,0,1,.46.56,2.4,2.4,0,0,1,.15.89v2.47h-.79Zm2.42,0a.93.93,0,0,0-.22-.67.85.85,0,0,0-.63-.23.72.72,0,0,0-.57.23.9.9,0,0,0-.21.64l-.16-.78a1.61,1.61,0,0,1,.51-.63,1.23,1.23,0,0,1,.69-.22,1.37,1.37,0,0,1,.75.2,1.09,1.09,0,0,1,.47.56,2.21,2.21,0,0,1,.17.89v2.47h-.8Z"/><path class="e" d="M584.33,605.5l2-2.64a1.85,1.85,0,0,0,.27-.47,1.29,1.29,0,0,0,.09-.45h0a.67.67,0,0,0-.2-.53.81.81,0,0,0-.56-.19.76.76,0,0,0-.56.21,1,1,0,0,0-.27.58h-.82a2,2,0,0,1,.29-.83,1.42,1.42,0,0,1,.56-.53,1.67,1.67,0,0,1,.79-.18,1.93,1.93,0,0,1,.87.17,1.21,1.21,0,0,1,.54.51,1.55,1.55,0,0,1,.19.8h0a1.84,1.84,0,0,1-.12.63,2.8,2.8,0,0,1-.35.63l-1.65,2.24h2.15v.76h-3.2Z"/><path class="e" d="M589,605.83a1.67,1.67,0,0,1-.41-1.19v-2.58a1.65,1.65,0,0,1,.41-1.19,2,2,0,0,1,2.42,0,1.65,1.65,0,0,1,.41,1.19v2.58a1.65,1.65,0,0,1-.41,1.19,2,2,0,0,1-2.42,0Zm1.83-.55a.89.89,0,0,0,.2-.64v-2.58a.89.89,0,0,0-.2-.64.82.82,0,0,0-.62-.22.86.86,0,0,0-.63.22.94.94,0,0,0-.19.64v2.58a.89.89,0,0,0,.2.64,1,1,0,0,0,1.24,0Z"/><path class="e" d="M593.22,605.83a1.67,1.67,0,0,1-.41-1.19v-2.58a1.61,1.61,0,0,1,.42-1.19,1.59,1.59,0,0,1,1.2-.42,1.45,1.45,0,0,1,1.62,1.61v2.58a1.61,1.61,0,0,1-.41,1.19,2,2,0,0,1-2.42,0Zm1.84-.55a.94.94,0,0,0,.2-.64v-2.58a.94.94,0,0,0-.2-.64.84.84,0,0,0-.63-.22.82.82,0,0,0-.62.22.89.89,0,0,0-.2.64v2.58a.89.89,0,0,0,.2.64.82.82,0,0,0,.62.22A.86.86,0,0,0,595.06,605.28Z"/><path class="e" d="M600.1,606.05a1.45,1.45,0,0,1-.6-.6,2.06,2.06,0,0,1-.2-1v-.67a2,2,0,0,1,.2-.94,1.37,1.37,0,0,1,.6-.59,2,2,0,0,1,.95-.21,2.35,2.35,0,0,1,.6.08,1.73,1.73,0,0,1,.5.22,1.38,1.38,0,0,1,.37.35l-.58.52a1.08,1.08,0,0,0-.4-.3,1.13,1.13,0,0,0-.48-.11,1,1,0,0,0-.71.26,1,1,0,0,0-.26.72v.67a1,1,0,0,0,.25.74.94.94,0,0,0,.72.27,1.14,1.14,0,0,0,.88-.44l.58.56a1.38,1.38,0,0,1-.38.34,1.62,1.62,0,0,1-.5.22,2.22,2.22,0,0,1-.59.07A2.12,2.12,0,0,1,600.1,606.05Z"/><path class="e" d="M603.4,602.14h.79v4.06h-.79Zm2.42,1.6a1,1,0,0,0-.21-.67.78.78,0,0,0-.6-.23.81.81,0,0,0-.6.21.73.73,0,0,0-.22.58l-.08-.78a1.46,1.46,0,0,1,.49-.57,1.22,1.22,0,0,1,.67-.2,1.3,1.3,0,0,1,.73.2,1.18,1.18,0,0,1,.46.56,2.4,2.4,0,0,1,.16.89v2.47h-.8Zm2.42,0a.93.93,0,0,0-.22-.67.85.85,0,0,0-.63-.23.73.73,0,0,0-.57.23.89.89,0,0,0-.2.64l-.16-.78a1.51,1.51,0,0,1,.5-.63,1.23,1.23,0,0,1,.69-.22,1.35,1.35,0,0,1,.75.2,1.16,1.16,0,0,1,.48.56,2.4,2.4,0,0,1,.16.89v2.47h-.8Z"/><path class="e" d="M585,615.58a1.34,1.34,0,0,1-.54-.49,2,2,0,0,1-.28-.77h.8a.75.75,0,0,0,.25.49.85.85,0,0,0,.54.17.72.72,0,0,0,.59-.25,1.1,1.1,0,0,0,.21-.72v-.48a1.1,1.1,0,0,0-.21-.72.72.72,0,0,0-.59-.25.83.83,0,0,0-.4.11,1.18,1.18,0,0,0-.34.33h-.72v-3h2.89v.76h-2.1V612a1,1,0,0,1,.34-.18.94.94,0,0,1,.37-.07,1.68,1.68,0,0,1,.84.2,1.29,1.29,0,0,1,.53.6,2.07,2.07,0,0,1,.19.94V614a2.25,2.25,0,0,1-.19.94,1.31,1.31,0,0,1-.55.59,1.69,1.69,0,0,1-.86.21A1.74,1.74,0,0,1,585,615.58Z"/><path class="e" d="M589,615.32a1.65,1.65,0,0,1-.41-1.19v-2.58a1.67,1.67,0,0,1,.41-1.19,2,2,0,0,1,2.42,0,1.65,1.65,0,0,1,.41,1.19v2.58a1.64,1.64,0,0,1-.41,1.19,1.92,1.92,0,0,1-2.42,0Zm1.83-.55a.89.89,0,0,0,.2-.64v-2.58a.88.88,0,0,0-.2-.63.78.78,0,0,0-.62-.22.82.82,0,0,0-.63.22.93.93,0,0,0-.2.63v2.58a.9.9,0,0,0,.21.64,1,1,0,0,0,1.24,0Z"/><path class="e" d="M593.22,615.32a1.65,1.65,0,0,1-.41-1.19v-2.58a1.67,1.67,0,0,1,.41-1.19,2,2,0,0,1,2.42,0,1.61,1.61,0,0,1,.41,1.19v2.58a1.64,1.64,0,0,1-.41,1.19,1.92,1.92,0,0,1-2.42,0Zm1.83-.55a.9.9,0,0,0,.21-.64v-2.58a.93.93,0,0,0-.2-.63.82.82,0,0,0-.63-.22.78.78,0,0,0-.62.22.88.88,0,0,0-.2.63v2.58a.89.89,0,0,0,.2.64,1,1,0,0,0,1.24,0Z"/><path class="e" d="M600.1,615.54a1.45,1.45,0,0,1-.6-.6,2,2,0,0,1-.21-1v-.67a2,2,0,0,1,.21-.94,1.45,1.45,0,0,1,.6-.6,2,2,0,0,1,.95-.2,2.22,2.22,0,0,1,.59.07,2,2,0,0,1,.51.22,1.76,1.76,0,0,1,.37.35l-.58.52a1.17,1.17,0,0,0-.4-.3,1.13,1.13,0,0,0-.48-.11.94.94,0,0,0-.71.26,1,1,0,0,0-.26.73V614a1.07,1.07,0,0,0,.25.74,1,1,0,0,0,.72.26,1.13,1.13,0,0,0,.48-.11,1.26,1.26,0,0,0,.4-.32l.58.55a1.42,1.42,0,0,1-.38.35,1.88,1.88,0,0,1-.5.21,2.27,2.27,0,0,1-.59.08A2,2,0,0,1,600.1,615.54Z"/><path class="e" d="M603.4,611.63h.79v4.06h-.79Zm2.42,1.6a1,1,0,0,0-.21-.66.75.75,0,0,0-.6-.24.81.81,0,0,0-.6.21.75.75,0,0,0-.22.58l-.08-.78a1.5,1.5,0,0,1,.49-.56,1.15,1.15,0,0,1,.67-.2,1.32,1.32,0,0,1,.73.19,1.28,1.28,0,0,1,.46.56,2.42,2.42,0,0,1,.15.9v2.46h-.79Zm2.42,0a.91.91,0,0,0-.22-.66.82.82,0,0,0-.63-.24.72.72,0,0,0-.57.23.9.9,0,0,0-.21.64l-.16-.78a1.51,1.51,0,0,1,.51-.62,1.16,1.16,0,0,1,.69-.22,1.37,1.37,0,0,1,.75.19,1.18,1.18,0,0,1,.47.56,2.22,2.22,0,0,1,.17.9v2.46h-.8Z"/><path class="c" d="M23.49,613.89A12.92,12.92,0,1,1,36.4,601,12.93,12.93,0,0,1,23.49,613.89Zm0-24.83A11.92,11.92,0,1,0,35.4,601,11.93,11.93,0,0,0,23.49,589.06Z"/><polygon class="d" points="35.77 588.74 9.42 600.98 35.77 613.21 32.02 600.98 35.77 588.74"/><path class="c" d="M36.58,614.14,8.23,601l28.35-13.17-4,13.17ZM10.61,601,35,612.29,31.5,601,35,589.66Z"/><path class="c" d="M2.52,605.19a5,5,0,0,1-1.11-.38,4.4,4.4,0,0,1-1-.64l.81-1a3.72,3.72,0,0,0,1.16.69,4.08,4.08,0,0,0,1.38.23,2.73,2.73,0,0,0,1.55-.38,1.17,1.17,0,0,0,.55-1.05h0a1.12,1.12,0,0,0-.25-.77,1.44,1.44,0,0,0-.64-.42,8.23,8.23,0,0,0-1-.25H3.89l-.1,0a9.48,9.48,0,0,1-1.5-.36,2.08,2.08,0,0,1-1-.73,2.42,2.42,0,0,1-.41-1.51h0a2.77,2.77,0,0,1,.38-1.47,2.44,2.44,0,0,1,1.12-.92,4.48,4.48,0,0,1,1.77-.32,4.6,4.6,0,0,1,1,.11,4.9,4.9,0,0,1,1.86.86l-.73,1a4.61,4.61,0,0,0-1-.58,3,3,0,0,0-1.06-.2,2.44,2.44,0,0,0-1.46.38,1.24,1.24,0,0,0-.53,1.07h0a1,1,0,0,0,.27.75,1.74,1.74,0,0,0,.67.4,9.3,9.3,0,0,0,1.12.27h.24a7.93,7.93,0,0,1,1.4.41,2.22,2.22,0,0,1,.94.76,2.4,2.4,0,0,1,.38,1.43h0a2.62,2.62,0,0,1-.4,1.45,2.54,2.54,0,0,1-1.16.91,4.8,4.8,0,0,1-1.83.31A6.44,6.44,0,0,1,2.52,605.19Z"/><rect class="c" x="612.5" y="600.68" width="1" height="4.68"/><rect class="c" x="612.5" y="590.76" width="1" height="4.68"/><rect class="c" x="612.5" y="611.45" width="1" height="5.24"/><rect class="c" x="789.58" y="611.45" width="1" height="5.24"/><rect class="c" x="682.59" y="600.68" width="1" height="4.68"/><rect class="c" x="647.3" y="590.76" width="1" height="4.68"/><rect class="a" width="790.34" height="618.13"/><line class="f" x1="312.84" y1="378.31" x2="299.62" y2="378.31"/><line class="f" x1="485.39" y1="430.25" x2="485.39" y2="378.31"/><line class="f" x1="315.62" y1="430.25" x2="485.39" y2="430.25"/><line class="f" x1="315.62" y1="378.31" x2="315.62" y2="430.25"/><line class="f" x1="347.63" y1="378.31" x2="315.62" y2="378.31"/><line class="f" x1="347.63" y1="374.85" x2="347.63" y2="378.31"/><line class="f" x1="378.94" y1="374.85" x2="347.63" y2="374.85"/><line class="f" x1="378.94" y1="378.31" x2="378.94" y2="374.85"/><line class="f" x1="485.39" y1="378.31" x2="378.94" y2="378.31"/><line class="f" x1="490.96" y1="378.31" x2="488.18" y2="378.31"/><rect class="d" x="461.74" y="249.86" width="20.87" height="20.77"/><line class="f" x1="461.74" y1="270.63" x2="482.61" y2="270.63"/><line class="f" x1="461.74" y1="249.86" x2="461.74" y2="270.63"/><line class="f" x1="482.61" y1="249.86" x2="461.74" y2="249.86"/><line class="f" x1="482.61" y1="270.63" x2="482.61" y2="249.86"/><rect class="d" x="395.81" y="193.59" width="20.87" height="20.77"/><line class="f" x1="395.81" y1="214.37" x2="416.69" y2="214.37"/><line class="f" x1="395.81" y1="193.59" x2="395.81" y2="214.37"/><line class="f" x1="416.69" y1="193.59" x2="395.81" y2="193.59"/><line class="f" x1="416.69" y1="214.37" x2="416.69" y2="193.59"/><rect class="d" x="312.32" y="212.64" width="31.31" height="31.16"/><line class="f" x1="312.32" y1="243.8" x2="343.63" y2="243.8"/><line class="f" x1="312.32" y1="212.64" x2="312.32" y2="243.8"/><line class="f" x1="343.63" y1="212.64" x2="312.32" y2="212.64"/><line class="f" x1="343.63" y1="243.8" x2="343.63" y2="212.64"/><rect class="d" x="307.97" y="249.86" width="111.67" height="21.12"/><line class="f" x1="419.64" y1="270.98" x2="307.97" y2="270.98"/><line class="f" x1="307.97" y1="270.98" x2="307.97" y2="249.86"/><line class="f" x1="307.97" y1="249.86" x2="419.64" y2="249.86"/><line class="f" x1="419.64" y1="249.86" x2="419.64" y2="270.98"/><polygon points="486.79 378.31 448.52 378.31 448.52 371.38 490.96 371.38 490.96 378.31 486.79 378.31"/><polygon points="314.23 378.31 299.62 378.31 299.62 371.38 347.63 371.38 347.63 378.31 314.23 378.31"/><rect x="450.26" y="364.46" width="40.7" height="6.92"/><rect x="299.62" y="364.46" width="46.27" height="6.92"/><rect x="307.97" y="211.77" width="3.48" height="32.89"/><polygon points="482.61 364.46 482.61 192.73 459.3 192.73 459.3 184.42 490.96 184.42 490.96 192.73 490.96 364.46 482.61 364.46"/><polygon points="299.62 364.46 299.62 184.42 390.42 184.42 398.77 184.42 421.03 184.42 421.03 192.73 307.97 192.73 307.97 364.46 299.62 364.46"/><rect x="418.6" y="192.73" width="2.43" height="22.51"/><rect x="421.03" y="184.42" width="1.74" height="3.98"/><rect x="457.56" y="184.42" width="1.74" height="3.98"/><polygon points="307.97 211.77 307.97 208.31 339.28 208.31 339.28 192.73 342.76 192.73 342.76 211.77 307.97 211.77"/><rect x="457.56" y="247.43" width="25.05" height="2.42"/><rect x="485.39" y="378.31" width="1.39" height="51.94"/><rect x="314.23" y="378.31" width="1.39" height="51.94"/><polygon points="307.97 249.86 307.97 247.43 418.6 247.43 418.6 242.93 421.03 242.93 421.03 247.43 426.25 247.43 426.25 249.86 307.97 249.86"/><rect x="307.97" y="244.66" width="110.63" height="2.77"/><line class="f" x1="299.62" y1="378.31" x2="314.23" y2="378.31"/><line class="f" x1="314.23" y1="378.31" x2="347.63" y2="378.31"/><line class="f" x1="448.52" y1="378.31" x2="486.79" y2="378.31"/><line class="f" x1="486.79" y1="378.31" x2="490.96" y2="378.31"/><line class="f" x1="307.97" y1="364.46" x2="345.89" y2="364.46"/><line class="f" x1="450.26" y1="364.46" x2="482.61" y2="364.46"/><line class="f" x1="345.89" y1="364.46" x2="345.89" y2="371.39"/><line class="f" x1="450.26" y1="364.46" x2="450.26" y2="371.39"/><line class="f" x1="490.96" y1="364.46" x2="490.96" y2="364.46"/><line class="f" x1="315.62" y1="378.31" x2="315.62" y2="430.25"/><line class="f" x1="315.62" y1="430.25" x2="314.23" y2="430.25"/><line class="f" x1="485.39" y1="378.31" x2="485.39" y2="430.25"/><line class="f" x1="486.79" y1="430.25" x2="485.39" y2="430.25"/><line class="f" x1="448.52" y1="371.39" x2="448.52" y2="378.31"/><line class="f" x1="450.26" y1="371.39" x2="448.52" y2="371.39"/><line class="f" x1="347.63" y1="371.39" x2="347.63" y2="378.31"/><line class="f" x1="347.63" y1="371.39" x2="345.89" y2="371.39"/><line class="f" x1="486.79" y1="430.25" x2="314.23" y2="430.25"/><line class="f" x1="448.52" y1="378.31" x2="378.94" y2="378.31"/><line class="f" x1="450.26" y1="364.46" x2="380.68" y2="364.46"/><line class="f" x1="380.68" y1="364.46" x2="345.89" y2="364.46"/><line class="f" x1="378.94" y1="371.39" x2="378.94" y2="378.31"/><line class="f" x1="378.94" y1="374.85" x2="347.63" y2="374.85"/><line class="f" x1="377.9" y1="370.69" x2="377.9" y2="371.38"/><line class="f" x1="377.9" y1="371.39" x2="380.68" y2="371.39"/><line class="f" x1="380.68" y1="371.39" x2="380.68" y2="368.61"/><line class="f" x1="380.68" y1="368.62" x2="379.29" y2="368.62"/><line class="f" x1="379.29" y1="367.92" x2="376.5" y2="367.92"/><line class="f" x1="376.51" y1="367.92" x2="376.51" y2="370.69"/><line class="f" x1="376.51" y1="370.69" x2="379.29" y2="370.69"/><line class="f" x1="379.29" y1="370.69" x2="379.29" y2="367.92"/><line class="f" x1="347.28" y1="367.92" x2="350.07" y2="367.92"/><line class="f" x1="350.07" y1="367.92" x2="350.07" y2="370.69"/><line class="f" x1="350.07" y1="370.69" x2="347.28" y2="370.69"/><line class="f" x1="347.28" y1="370.69" x2="347.28" y2="367.92"/><line class="f" x1="376.51" y1="367.92" x2="350.07" y2="367.92"/><line class="f" x1="350.07" y1="370.69" x2="376.5" y2="370.69"/><line class="f" x1="376.51" y1="369.31" x2="350.07" y2="369.31"/><line class="f" x1="348.67" y1="370.69" x2="348.67" y2="371.38"/><line class="f" x1="348.67" y1="371.39" x2="345.89" y2="371.39"/><line class="f" x1="345.89" y1="371.39" x2="345.89" y2="368.61"/><line class="f" x1="345.89" y1="368.62" x2="347.28" y2="368.62"/><line class="f" x1="447.47" y1="370.69" x2="447.47" y2="371.38"/><line class="f" x1="447.47" y1="371.39" x2="450.26" y2="371.39"/><line class="f" x1="450.26" y1="371.39" x2="450.26" y2="368.61"/><line class="f" x1="450.26" y1="368.62" x2="448.87" y2="368.62"/><line class="f" x1="448.87" y1="367.92" x2="446.08" y2="367.92"/><line class="f" x1="446.08" y1="367.92" x2="446.08" y2="370.69"/><line class="f" x1="446.08" y1="370.69" x2="448.87" y2="370.69"/><line class="f" x1="448.87" y1="370.69" x2="448.87" y2="367.92"/><line class="f" x1="416.86" y1="370.69" x2="416.86" y2="371.38"/><line class="f" x1="416.86" y1="371.39" x2="414.08" y2="371.39"/><line class="f" x1="414.08" y1="371.39" x2="414.08" y2="368.61"/><line class="f" x1="414.08" y1="368.62" x2="415.47" y2="368.62"/><line class="f" x1="415.47" y1="367.92" x2="418.25" y2="367.92"/><line class="f" x1="418.25" y1="367.92" x2="418.25" y2="370.69"/><line class="f" x1="418.25" y1="370.69" x2="415.47" y2="370.69"/><line class="f" x1="415.47" y1="370.69" x2="415.47" y2="367.92"/><line class="f" x1="446.08" y1="367.92" x2="418.25" y2="367.92"/><line class="f" x1="418.25" y1="370.69" x2="446.08" y2="370.69"/><line class="f" x1="446.08" y1="369.31" x2="418.25" y2="369.31"/><line class="f" x1="380.68" y1="368.62" x2="383.46" y2="368.62"/><line class="f" x1="383.46" y1="368.62" x2="383.46" y2="371.39"/><line class="f" x1="383.46" y1="371.39" x2="380.68" y2="371.39"/><line class="f" x1="380.68" y1="371.39" x2="380.68" y2="368.61"/><line class="f" x1="383.46" y1="368.62" x2="414.08" y2="368.62"/><line class="f" x1="383.46" y1="370" x2="414.08" y2="370"/><line class="f" x1="383.46" y1="371.39" x2="414.08" y2="371.39"/><line class="f" x1="490.96" y1="364.46" x2="490.96" y2="260.94"/><line class="f" x1="482.61" y1="192.73" x2="459.3" y2="192.73"/><line class="f" x1="307.97" y1="249.86" x2="307.97" y2="364.46"/><line class="f" x1="482.61" y1="192.73" x2="482.61" y2="247.43"/><line class="f" x1="482.61" y1="249.86" x2="482.61" y2="364.46"/><line class="f" x1="490.96" y1="258.51" x2="490.96" y2="258.51"/><line class="f" x1="490.96" y1="260.94" x2="490.96" y2="260.94"/><line class="f" x1="418.6" y1="192.73" x2="342.76" y2="192.73"/><line class="f" x1="311.45" y1="244.66" x2="418.6" y2="244.66"/><line class="f" x1="418.6" y1="242.93" x2="418.6" y2="244.66"/><line class="f" x1="418.6" y1="192.73" x2="418.6" y2="215.23"/><line class="f" x1="421.03" y1="242.93" x2="421.03" y2="247.43"/><line class="f" x1="421.03" y1="192.73" x2="421.03" y2="215.23"/><line class="f" x1="421.03" y1="242.93" x2="418.6" y2="242.93"/><line class="f" x1="421.03" y1="215.23" x2="418.6" y2="215.23"/><line class="f" x1="342.76" y1="211.77" x2="311.45" y2="211.77"/><line class="f" x1="421.03" y1="247.43" x2="426.25" y2="247.43"/><line class="f" x1="457.56" y1="247.43" x2="482.61" y2="247.43"/><line class="f" x1="307.97" y1="249.86" x2="426.25" y2="249.86"/><line class="f" x1="457.56" y1="249.86" x2="482.61" y2="249.86"/><line class="f" x1="422.77" y1="188.4" x2="422.77" y2="184.42"/><line class="f" x1="457.56" y1="188.4" x2="457.56" y2="184.42"/><line class="f" x1="457.56" y1="188.4" x2="459.3" y2="188.4"/><line class="f" x1="422.77" y1="188.4" x2="421.03" y2="188.4"/><line class="f" x1="421.03" y1="188.4" x2="421.03" y2="192.73"/><line class="f" x1="459.3" y1="188.4" x2="459.3" y2="192.73"/><line class="f" x1="457.56" y1="247.43" x2="457.56" y2="249.86"/><line class="f" x1="426.25" y1="247.43" x2="426.25" y2="249.86"/><line class="f" x1="342.76" y1="192.73" x2="339.28" y2="192.73"/><line class="f" x1="311.45" y1="211.77" x2="311.45" y2="244.66"/><line class="f" x1="347.28" y1="367.92" x2="347.28" y2="336.07"/><g class="g"><path class="f" d="M347.28,336.07a31.93,31.93,0,0,1,32,31.85"/></g><line class="f" x1="419.64" y1="249.86" x2="307.97" y2="249.86"/><line class="f" x1="307.97" y1="249.86" x2="307.97" y2="270.98"/><line class="f" x1="307.97" y1="270.98" x2="419.64" y2="270.98"/><line class="f" x1="419.64" y1="270.98" x2="419.64" y2="249.86"/><line class="f" x1="398.77" y1="270.98" x2="398.77" y2="250.2"/><line class="f" x1="406.75" y1="258.14" x2="411.67" y2="263.04"/><line class="f" x1="411.67" y1="258.14" x2="406.75" y2="263.04"/><line class="f" x1="409.21" y1="264.05" x2="409.21" y2="257.13"/><line class="f" x1="405.73" y1="260.59" x2="412.69" y2="260.59"/><line class="f" x1="419.64" y1="250.2" x2="419.64" y2="270.98"/><line class="f" x1="398.77" y1="270.98" x2="419.64" y2="270.98"/><line class="f" x1="309.19" y1="269.25" x2="328.32" y2="269.25"/><line class="f" x1="328.32" y1="269.25" x2="328.32" y2="251.93"/><line class="f" x1="328.32" y1="251.93" x2="309.19" y2="251.93"/><line class="f" x1="309.19" y1="251.93" x2="309.19" y2="269.25"/><line class="f" x1="308.32" y1="270.98" x2="329.19" y2="270.98"/><line class="f" x1="310.93" y1="267.51" x2="326.58" y2="267.51"/><line class="f" x1="326.58" y1="267.51" x2="326.58" y2="255.4"/><line class="f" x1="326.58" y1="255.4" x2="310.93" y2="255.4"/><line class="f" x1="310.93" y1="255.4" x2="310.93" y2="267.51"/><g class="g"><path class="f" d="M319.45,258.86a.7.7,0,1,0-.69.69.69.69,0,0,0,.69-.69"/><path class="f" d="M372.85,256.78a3.13,3.13,0,1,0-3.13,3.12,3.12,3.12,0,0,0,3.13-3.12"/></g><line class="f" x1="364.85" y1="251.93" x2="364.85" y2="270.98"/><line class="f" x1="364.85" y1="270.98" x2="383.98" y2="270.98"/><line class="f" x1="383.98" y1="270.98" x2="383.98" y2="251.93"/><line class="f" x1="383.98" y1="251.93" x2="364.85" y2="251.93"/><g class="g"><path class="f" d="M372.85,266.13a3.13,3.13,0,1,0-3.13,3.11,3.13,3.13,0,0,0,3.13-3.11"/><path class="f" d="M382.24,266.13a3.13,3.13,0,1,0-3.13,3.11,3.13,3.13,0,0,0,3.13-3.11"/></g><line class="f" x1="381.38" y1="271.84" x2="367.46" y2="271.84"/><line class="f" x1="329.19" y1="250.2" x2="329.19" y2="270.98"/><line class="f" x1="329.19" y1="270.98" x2="350.07" y2="270.98"/><line class="f" x1="350.07" y1="270.98" x2="350.07" y2="250.2"/><line class="f" x1="416.69" y1="193.59" x2="416.69" y2="214.37"/><line class="f" x1="416.69" y1="214.37" x2="395.81" y2="214.37"/><line class="f" x1="395.81" y1="214.37" x2="395.81" y2="193.59"/><line class="f" x1="395.81" y1="193.59" x2="416.69" y2="193.59"/><g class="g"><path class="f" d="M412.34,204a6.09,6.09,0,1,0-6.09,6.06,6.08,6.08,0,0,0,6.09-6.06"/><path class="f" d="M411.29,204a5,5,0,1,0-5,5,5,5,0,0,0,5-5"/><path class="f" d="M318.41,217.83a.87.87,0,1,0-.87.86.87.87,0,0,0,.87-.86"/></g><line class="f" x1="343.63" y1="212.64" x2="343.63" y2="243.8"/><line class="f" x1="343.63" y1="243.8" x2="312.32" y2="243.8"/><line class="f" x1="312.32" y1="243.8" x2="312.32" y2="212.64"/><line class="f" x1="312.32" y1="212.64" x2="343.63" y2="212.64"/><line class="f" x1="341.89" y1="217.83" x2="341.89" y2="238.6"/><line class="f" x1="338.41" y1="242.07" x2="317.54" y2="242.07"/><line class="f" x1="314.06" y1="238.6" x2="314.06" y2="217.83"/><line class="f" x1="317.54" y1="214.37" x2="338.41" y2="214.37"/><g class="g"><path class="f" d="M338.41,214.37a3.47,3.47,0,0,1,3.48,3.46"/><path class="f" d="M341.89,238.6a3.47,3.47,0,0,1-3.48,3.47"/><path class="f" d="M314.06,217.83a3.47,3.47,0,0,1,3.48-3.46"/><path class="f" d="M317.54,242.07a3.47,3.47,0,0,1-3.48-3.47"/></g><line class="f" x1="394.94" y1="197.92" x2="342.76" y2="197.92"/><line class="f" x1="394.94" y1="197.92" x2="394.94" y2="192.73"/><line class="f" x1="358.41" y1="243.8" x2="358.41" y2="240.34"/><line class="f" x1="358.41" y1="240.34" x2="379.29" y2="240.34"/><line class="f" x1="379.29" y1="240.34" x2="379.29" y2="243.8"/><line class="f" x1="379.29" y1="243.8" x2="378.24" y2="243.8"/><line class="f" x1="378.24" y1="243.8" x2="378.24" y2="241.37"/><line class="f" x1="378.24" y1="241.37" x2="359.46" y2="241.37"/><line class="f" x1="359.46" y1="241.37" x2="359.46" y2="243.8"/><line class="f" x1="359.46" y1="243.8" x2="358.42" y2="243.8"/><line class="f" x1="358.41" y1="243.8" x2="358.41" y2="240.34"/><line class="f" x1="379.29" y1="243.8" x2="379.29" y2="240.34"/><line class="f" x1="359.46" y1="243.8" x2="359.46" y2="241.37"/><line class="f" x1="378.24" y1="243.8" x2="378.24" y2="241.37"/><line class="f" x1="358.41" y1="240.34" x2="379.29" y2="240.34"/><line class="f" x1="358.41" y1="241.37" x2="379.29" y2="241.37"/><line class="f" x1="358.41" y1="243.8" x2="359.46" y2="243.8"/><line class="f" x1="378.24" y1="243.8" x2="379.29" y2="243.8"/><line class="f" x1="342.76" y1="211.77" x2="342.76" y2="192.73"/><line class="f" x1="342.76" y1="211.77" x2="311.45" y2="211.77"/><line class="f" x1="342.76" y1="192.73" x2="339.28" y2="192.73"/><line class="f" x1="339.28" y1="192.73" x2="307.97" y2="192.73"/><line class="f" x1="307.97" y1="192.73" x2="307.97" y2="208.31"/><line class="f" x1="307.97" y1="208.31" x2="339.28" y2="208.31"/><line class="f" x1="339.28" y1="208.31" x2="339.28" y2="192.73"/><line class="f" x1="455.82" y1="249.86" x2="427.99" y2="249.86"/><line class="f" x1="455.82" y1="249.86" x2="455.82" y2="277.56"/><g class="g"><path class="f" d="M455.82,277.56A27.77,27.77,0,0,1,428,249.86"/></g><line class="f" x1="455.82" y1="247.43" x2="455.82" y2="249.86"/><line class="f" x1="427.99" y1="249.86" x2="427.99" y2="247.43"/><line class="f" x1="427.99" y1="249.86" x2="426.25" y2="249.86"/><line class="f" x1="427.99" y1="247.43" x2="426.25" y2="247.43"/><line class="f" x1="457.56" y1="249.86" x2="455.82" y2="249.86"/><line class="f" x1="457.56" y1="247.43" x2="455.82" y2="247.43"/><line class="f" x1="455.82" y1="247.43" x2="448.87" y2="247.43"/><line class="f" x1="445.04" y1="247.43" x2="444.26" y2="247.43"/><line class="f" x1="440.43" y1="247.43" x2="439.65" y2="247.43"/><line class="f" x1="435.82" y1="247.43" x2="434.95" y2="247.43"/><line class="f" x1="434.95" y1="247.43" x2="427.99" y2="247.43"/><line class="f" x1="455.82" y1="249.86" x2="455.82" y2="250.72"/><line class="f" x1="455.82" y1="250.72" x2="459.3" y2="250.72"/><line class="f" x1="459.3" y1="250.72" x2="459.3" y2="249.86"/><line class="f" x1="455.82" y1="247.43" x2="455.82" y2="246.57"/><line class="f" x1="455.82" y1="246.57" x2="459.3" y2="246.57"/><line class="f" x1="459.3" y1="246.57" x2="459.3" y2="247.43"/><line class="f" x1="427.99" y1="250.72" x2="424.51" y2="250.72"/><line class="f" x1="424.51" y1="250.72" x2="424.51" y2="249.86"/><line class="f" x1="427.99" y1="247.43" x2="427.99" y2="246.57"/><line class="f" x1="427.99" y1="246.57" x2="424.51" y2="246.57"/><line class="f" x1="424.51" y1="246.57" x2="424.51" y2="247.43"/><line class="f" x1="424.51" y1="188.4" x2="455.82" y2="188.4"/><line class="f" x1="424.51" y1="188.4" x2="424.51" y2="219.56"/><g class="g"><path class="f" d="M455.82,188.4a31.24,31.24,0,0,1-31.31,31.16"/></g><line class="f" x1="424.51" y1="184.42" x2="424.51" y2="188.4"/><line class="f" x1="455.82" y1="188.4" x2="455.82" y2="184.42"/><line class="f" x1="455.82" y1="188.4" x2="457.56" y2="188.4"/><line class="f" x1="422.77" y1="188.4" x2="424.51" y2="188.4"/><line class="f" x1="418.6" y1="241.2" x2="418.6" y2="216.96"/><line class="f" x1="418.6" y1="241.2" x2="394.25" y2="241.2"/><g class="g"><path class="f" d="M394.25,241.2A24.3,24.3,0,0,1,418.6,217"/></g><line class="f" x1="421.03" y1="241.2" x2="418.6" y2="241.2"/><line class="f" x1="418.6" y1="216.96" x2="421.03" y2="216.96"/><line class="f" x1="418.6" y1="216.96" x2="418.6" y2="215.23"/><line class="f" x1="421.03" y1="216.96" x2="421.03" y2="215.23"/><line class="f" x1="418.6" y1="242.93" x2="418.6" y2="241.2"/><line class="f" x1="421.03" y1="242.93" x2="421.03" y2="241.2"/><line class="f" x1="421.03" y1="241.2" x2="421.03" y2="234.28"/><line class="f" x1="421.03" y1="230.47" x2="421.03" y2="229.69"/><line class="f" x1="421.03" y1="225.88" x2="421.03" y2="225.1"/><line class="f" x1="421.03" y1="223.89" x2="421.03" y2="216.96"/><line class="f" x1="418.6" y1="241.2" x2="417.73" y2="241.2"/><line class="f" x1="417.73" y1="241.2" x2="417.73" y2="244.66"/><line class="f" x1="417.73" y1="244.66" x2="418.6" y2="244.66"/><line class="f" x1="421.03" y1="241.2" x2="421.9" y2="241.2"/><line class="f" x1="421.9" y1="241.2" x2="421.9" y2="244.66"/><line class="f" x1="421.9" y1="244.66" x2="421.03" y2="244.66"/><line class="f" x1="417.73" y1="216.96" x2="417.73" y2="213.5"/><line class="f" x1="417.73" y1="213.5" x2="418.6" y2="213.5"/><line class="f" x1="421.03" y1="216.96" x2="421.9" y2="216.96"/><line class="f" x1="421.9" y1="216.96" x2="421.9" y2="213.5"/><line class="f" x1="421.9" y1="213.5" x2="421.03" y2="213.5"/><line class="f" x1="390.59" y1="362.73" x2="439.3" y2="362.73"/><line class="f" x1="439.3" y1="362.73" x2="439.3" y2="359.27"/><line class="f" x1="439.3" y1="359.27" x2="390.59" y2="359.27"/><line class="f" x1="390.59" y1="359.27" x2="390.59" y2="362.73"/><g class="g"><path class="f" d="M388.86,361a1.74,1.74,0,1,0-1.74,1.73,1.73,1.73,0,0,0,1.74-1.73"/></g><line class="f" x1="378.94" y1="378.31" x2="371.98" y2="378.31"/><line class="f" x1="368.16" y1="378.31" x2="367.37" y2="378.31"/><line class="f" x1="363.55" y1="378.31" x2="362.76" y2="378.31"/><line class="f" x1="358.94" y1="378.31" x2="354.59" y2="378.31"/><line class="f" x1="354.59" y1="378.31" x2="347.63" y2="378.31"/><line class="f" x1="307.97" y1="208.31" x2="339.28" y2="208.31"/><line class="f" x1="339.28" y1="208.31" x2="339.28" y2="192.73"/><line class="f" x1="339.28" y1="192.73" x2="335.8" y2="204.85"/><line class="f" x1="335.8" y1="204.85" x2="307.97" y2="208.31"/><rect class="d" x="413.9" y="309.06" width="17.39" height="27.7"/><line class="f" x1="413.9" y1="336.76" x2="431.3" y2="336.76"/><line class="f" x1="413.9" y1="309.06" x2="413.9" y2="336.76"/><line class="f" x1="431.3" y1="309.06" x2="413.9" y2="309.06"/><line class="f" x1="431.3" y1="336.76" x2="431.3" y2="309.06"/><rect class="d" x="377.82" y="303.46" width="10.44" height="40.75"/><line class="f" x1="377.82" y1="344.21" x2="388.26" y2="344.21"/><line class="f" x1="377.82" y1="303.46" x2="377.82" y2="344.21"/><line class="f" x1="388.26" y1="303.46" x2="377.82" y2="303.46"/><line class="f" x1="388.26" y1="344.21" x2="388.26" y2="303.46"/><rect class="d" x="342.76" y="192.73" width="52.18" height="5.19"/><line class="f" x1="342.76" y1="197.92" x2="394.94" y2="197.92"/><line class="f" x1="342.76" y1="192.73" x2="342.76" y2="197.92"/><line class="f" x1="394.94" y1="192.73" x2="342.76" y2="192.73"/><line class="f" x1="394.94" y1="197.92" x2="394.94" y2="192.73"/><rect class="d" x="378.24" y="241.37" width="1.04" height="2.42"/><line class="f" x1="379.29" y1="243.8" x2="379.29" y2="241.37"/><line class="f" x1="378.24" y1="243.8" x2="379.29" y2="243.8"/><line class="f" x1="378.24" y1="241.37" x2="378.24" y2="243.8"/><line class="f" x1="379.29" y1="241.37" x2="378.24" y2="241.37"/><rect class="d" x="358.41" y="240.33" width="20.87" height="1.04"/><line class="f" x1="358.41" y1="241.37" x2="379.29" y2="241.37"/><line class="f" x1="358.41" y1="240.34" x2="358.41" y2="241.37"/><line class="f" x1="379.29" y1="240.34" x2="358.41" y2="240.34"/><line class="f" x1="379.29" y1="241.37" x2="379.29" y2="240.34"/><rect class="d" x="358.41" y="241.37" width="1.04" height="2.42"/><line class="f" x1="359.46" y1="243.8" x2="359.46" y2="241.37"/><line class="f" x1="358.41" y1="243.8" x2="359.46" y2="243.8"/><line class="f" x1="358.41" y1="241.37" x2="358.41" y2="243.8"/><line class="f" x1="359.46" y1="241.37" x2="358.42" y2="241.37"/><polygon class="d" points="385.88 362.23 385.38 361 385.88 359.78 387.12 359.27 388.34 359.78 388.86 361 388.34 362.23 387.12 362.73 385.88 362.23"/><g class="g"><path class="f" d="M388.86,361a1.74,1.74,0,0,1-3.48,0"/><path class="f" d="M385.38,361a1.74,1.74,0,0,1,3.48,0"/></g><rect class="d" x="390.59" y="359.27" width="48.7" height="3.46"/><line class="f" x1="390.59" y1="362.73" x2="439.3" y2="362.73"/><line class="f" x1="390.59" y1="359.27" x2="390.59" y2="362.73"/><line class="f" x1="439.3" y1="359.27" x2="390.59" y2="359.27"/><line class="f" x1="439.3" y1="362.73" x2="439.3" y2="359.27"/><polygon class="d" points="382.69 339.66 380.76 331.77 380.76 329.47 379.7 325.8 379.7 321.95 380.76 318.28 380.76 315.98 382.69 308.09 384.61 308.09 384.61 318.88 386.01 320.58 386.76 322.73 386.76 325.02 386.01 327.16 384.61 328.88 384.61 339.66 382.69 339.66"/><line class="f" x1="384.61" y1="318.87" x2="386.01" y2="320.58"/><line class="f" x1="386.01" y1="320.58" x2="386.76" y2="322.73"/><line class="f" x1="386.76" y1="322.73" x2="386.76" y2="325.02"/><line class="f" x1="386.76" y1="325.02" x2="386.01" y2="327.16"/><line class="f" x1="386.01" y1="327.16" x2="384.61" y2="328.87"/><line class="f" x1="384.61" y1="328.87" x2="384.61" y2="339.66"/><line class="f" x1="384.61" y1="339.66" x2="382.69" y2="339.66"/><line class="f" x1="382.69" y1="339.66" x2="380.76" y2="331.77"/><line class="f" x1="380.76" y1="331.77" x2="380.76" y2="329.47"/><line class="f" x1="380.76" y1="329.47" x2="379.7" y2="325.8"/><line class="f" x1="379.7" y1="325.8" x2="379.7" y2="321.95"/><line class="f" x1="379.7" y1="321.95" x2="380.76" y2="318.28"/><line class="f" x1="380.76" y1="318.28" x2="380.76" y2="315.98"/><line class="f" x1="380.76" y1="315.98" x2="382.69" y2="308.09"/><line class="f" x1="382.69" y1="308.09" x2="384.61" y2="308.09"/><line class="f" x1="384.61" y1="308.09" x2="384.61" y2="318.87"/><line class="f" x1="384.61" y1="308.09" x2="384.61" y2="339.66"/><line class="f" x1="380.76" y1="331.77" x2="380.76" y2="315.98"/><line class="f" x1="382.69" y1="308.09" x2="384.61" y2="308.09"/><line class="f" x1="383.84" y1="337.56" x2="383.84" y2="335.45"/><line class="f" x1="383.84" y1="335.45" x2="383.36" y2="335.45"/><line class="f" x1="383.36" y1="335.45" x2="383.36" y2="337.56"/><line class="f" x1="383.36" y1="337.56" x2="383.84" y2="337.56"/><line class="f" x1="383.84" y1="334.93" x2="383.84" y2="332.82"/><line class="f" x1="383.84" y1="332.82" x2="383.36" y2="332.82"/><line class="f" x1="383.36" y1="332.82" x2="383.36" y2="334.93"/><line class="f" x1="383.36" y1="334.93" x2="383.84" y2="334.93"/><line class="f" x1="382.69" y1="308.09" x2="382.69" y2="339.66"/><line class="f" x1="383.36" y1="332.3" x2="383.84" y2="332.3"/><line class="f" x1="383.84" y1="332.3" x2="383.84" y2="331.24"/><line class="f" x1="383.84" y1="331.24" x2="383.36" y2="331.24"/><line class="f" x1="383.36" y1="331.24" x2="383.36" y2="332.29"/><g class="g"><path class="f" d="M384.61,318.87a6.71,6.71,0,0,1,0,10"/></g><polygon class="d" points="453.78 354.07 452.05 353.61 450.77 352.34 450.3 350.61 450.3 349.57 450.51 349.08 451 348.88 450.49 348.46 450.3 347.84 450.3 323.95 450.61 323.22 451.35 322.91 450.61 322.61 450.3 321.87 450.3 297.98 450.27 297.5 450.54 297.1 451 296.94 450.51 296.74 450.3 296.25 450.3 295.21 450.77 293.48 452.05 292.21 453.78 291.75 479.2 291.75 479.69 291.95 479.9 292.44 479.9 353.38 479.69 353.87 479.2 354.07 453.78 354.07"/><line class="f" x1="479.69" y1="353.87" x2="479.9" y2="353.38"/><line class="f" x1="479.2" y1="354.07" x2="479.69" y2="353.87"/><line class="f" x1="453.78" y1="354.07" x2="479.2" y2="354.07"/><line class="f" x1="452.05" y1="353.61" x2="453.78" y2="354.07"/><line class="f" x1="450.77" y1="352.34" x2="452.05" y2="353.61"/><line class="f" x1="450.3" y1="350.61" x2="450.77" y2="352.34"/><line class="f" x1="450.3" y1="349.57" x2="450.3" y2="350.61"/><line class="f" x1="450.51" y1="349.08" x2="450.3" y2="349.57"/><line class="f" x1="451" y1="348.88" x2="450.51" y2="349.08"/><line class="f" x1="450.49" y1="348.46" x2="451" y2="348.88"/><line class="f" x1="450.3" y1="347.84" x2="450.49" y2="348.46"/><line class="f" x1="450.3" y1="323.95" x2="450.3" y2="347.84"/><line class="f" x1="450.61" y1="323.22" x2="450.3" y2="323.95"/><line class="f" x1="451.35" y1="322.91" x2="450.61" y2="323.22"/><line class="f" x1="450.61" y1="322.61" x2="451.35" y2="322.91"/><line class="f" x1="450.3" y1="321.87" x2="450.61" y2="322.61"/><line class="f" x1="450.3" y1="297.98" x2="450.3" y2="321.87"/><line class="f" x1="450.27" y1="297.5" x2="450.3" y2="297.98"/><line class="f" x1="450.54" y1="297.1" x2="450.27" y2="297.5"/><line class="f" x1="451" y1="296.94" x2="450.54" y2="297.1"/><line class="f" x1="450.51" y1="296.74" x2="451" y2="296.94"/><line class="f" x1="450.3" y1="296.25" x2="450.51" y2="296.74"/><line class="f" x1="450.3" y1="295.21" x2="450.3" y2="296.25"/><line class="f" x1="450.77" y1="293.48" x2="450.3" y2="295.21"/><line class="f" x1="452.05" y1="292.21" x2="450.77" y2="293.48"/><line class="f" x1="453.78" y1="291.75" x2="452.05" y2="292.21"/><line class="f" x1="479.2" y1="291.75" x2="453.78" y2="291.75"/><line class="f" x1="479.69" y1="291.96" x2="479.2" y2="291.75"/><line class="f" x1="479.9" y1="292.44" x2="479.69" y2="291.96"/><line class="f" x1="479.9" y1="353.38" x2="479.9" y2="292.44"/><line class="f" x1="450.3" y1="296.25" x2="450.3" y2="295.21"/><line class="f" x1="453.78" y1="291.75" x2="479.2" y2="291.75"/><line class="f" x1="479.9" y1="292.44" x2="479.9" y2="296.25"/><line class="f" x1="479.2" y1="296.94" x2="451" y2="296.94"/><line class="f" x1="479.9" y1="296.25" x2="479.9" y2="322.91"/><line class="f" x1="479.9" y1="322.91" x2="477.46" y2="322.91"/><line class="f" x1="450.3" y1="321.87" x2="450.3" y2="297.98"/><line class="f" x1="451.35" y1="296.94" x2="468.8" y2="296.94"/><line class="f" x1="468.8" y1="322.91" x2="451.35" y2="322.91"/><line class="f" x1="478.51" y1="321.87" x2="478.51" y2="297.98"/><line class="f" x1="421.1" y1="296.94" x2="421.1" y2="302.14"/><line class="f" x1="421.1" y1="305.6" x2="421.1" y2="310.79"/><line class="f" x1="421.1" y1="314.26" x2="421.1" y2="319.45"/><line class="f" x1="421.1" y1="322.91" x2="421.1" y2="328.11"/><line class="f" x1="421.1" y1="331.57" x2="421.1" y2="336.76"/><line class="f" x1="421.1" y1="340.22" x2="421.1" y2="343.69"/><line class="f" x1="421.1" y1="343.69" x2="421.1" y2="348.88"/><line class="f" x1="450.3" y1="349.57" x2="450.3" y2="350.61"/><line class="f" x1="453.78" y1="354.07" x2="479.2" y2="354.07"/><line class="f" x1="479.9" y1="353.38" x2="479.9" y2="349.57"/><line class="f" x1="479.2" y1="348.88" x2="451" y2="348.88"/><line class="f" x1="479.9" y1="349.57" x2="479.9" y2="322.91"/><line class="f" x1="479.9" y1="322.91" x2="477.46" y2="322.91"/><line class="f" x1="450.3" y1="323.95" x2="450.3" y2="347.84"/><line class="f" x1="451.35" y1="348.88" x2="468.8" y2="348.88"/><line class="f" x1="477.46" y1="322.91" x2="451.35" y2="322.91"/><line class="f" x1="478.51" y1="323.95" x2="478.51" y2="347.84"/><line class="f" x1="451.35" y1="296.94" x2="446.13" y2="296.94"/><line class="f" x1="442.65" y1="296.94" x2="437.43" y2="296.94"/><line class="f" x1="433.95" y1="296.94" x2="428.73" y2="296.94"/><line class="f" x1="426.32" y1="296.94" x2="421.1" y2="296.94"/><line class="f" x1="451.35" y1="348.88" x2="446.13" y2="348.88"/><line class="f" x1="442.65" y1="348.88" x2="437.43" y2="348.88"/><line class="f" x1="433.95" y1="348.88" x2="428.73" y2="348.88"/><line class="f" x1="426.32" y1="348.88" x2="421.1" y2="348.88"/><g class="g"><path class="f" d="M479.2,291.75a.69.69,0,0,1,.69.69"/><path class="f" d="M479.89,296.25a.69.69,0,0,1-.69.69"/><path class="f" d="M451,296.94a.69.69,0,0,1-.69-.69"/><path class="f" d="M450.3,298a1,1,0,0,1,1.05-1"/><path class="f" d="M451.35,322.91a1,1,0,0,1-1.05-1"/><path class="f" d="M479.89,353.38a.69.69,0,0,1-.69.69"/><path class="f" d="M479.2,348.88a.69.69,0,0,1,.69.69"/><path class="f" d="M450.31,349.57a.69.69,0,0,1,.69-.69"/><path class="f" d="M451.35,348.88a1,1,0,0,1-1.05-1"/><path class="f" d="M450.3,324a1,1,0,0,1,1.05-1"/><path class="f" d="M474.74,321.77a95.58,95.58,0,0,1,0-23.9"/><path class="f" d="M474.74,347.73a98.09,98.09,0,0,1,0-23.89"/><path class="f" d="M450.3,295.21a3.47,3.47,0,0,1,3.48-3.46"/><path class="f" d="M453.78,354.07a3.47,3.47,0,0,1-3.48-3.46"/></g><polygon class="d" points="370.24 213.16 369.87 213 369.72 212.64 369.72 198.44 369.87 198.07 370.24 197.92 388.33 197.92 388.7 198.07 388.86 198.44 388.86 212.64 388.7 213 388.33 213.16 370.24 213.16"/><g class="g"><path class="f" d="M388.33,197.92a.52.52,0,0,1,.52.52"/></g><line class="f" x1="388.86" y1="212.64" x2="388.86" y2="198.44"/><g class="g"><path class="f" d="M388.86,212.64a.53.53,0,0,1-.53.52"/></g><line class="f" x1="370.24" y1="213.16" x2="388.33" y2="213.16"/><g class="g"><path class="f" d="M370.24,213.16a.52.52,0,0,1-.52-.52"/></g><line class="f" x1="369.72" y1="198.44" x2="369.72" y2="212.64"/><g class="g"><path class="f" d="M369.72,198.44a.52.52,0,0,1,.52-.52"/></g><line class="f" x1="388.33" y1="197.92" x2="370.24" y2="197.92"/><line class="f" x1="387.29" y1="201.73" x2="371.29" y2="201.73"/><line class="f" x1="370.76" y1="202.25" x2="370.76" y2="211.6"/><line class="f" x1="371.29" y1="212.12" x2="387.29" y2="212.12"/><line class="f" x1="387.81" y1="211.6" x2="387.81" y2="202.25"/><g class="g"><path class="f" d="M370.76,202.25a.52.52,0,0,1,.53-.52"/><path class="f" d="M371.29,212.12a.52.52,0,0,1-.52-.52"/><path class="f" d="M387.81,211.6a.52.52,0,0,1-.52.52"/><path class="f" d="M387.29,201.73a.52.52,0,0,1,.52.52"/></g><polygon class="d" points="379.03 203.86 378.9 203.61 378.67 201.78 378.56 201.45 378.42 200 378.67 199.39 379.29 199.13 379.9 199.39 380.16 200 380.02 201.45 379.9 201.78 379.67 203.61 379.55 203.86 379.29 203.95 379.03 203.86"/><line class="f" x1="380.16" y1="200" x2="380.02" y2="201.45"/><g class="g"><path class="f" d="M380,201.45a.66.66,0,0,1-.12.33"/></g><line class="f" x1="379.9" y1="201.78" x2="379.67" y2="203.61"/><g class="g"><path class="f" d="M379.67,203.61a.38.38,0,0,1-.38.34.39.39,0,0,1-.39-.34"/></g><line class="f" x1="378.9" y1="203.61" x2="378.67" y2="201.78"/><g class="g"><path class="f" d="M378.67,201.78a.76.76,0,0,1-.11-.33"/></g><line class="f" x1="378.56" y1="201.45" x2="378.42" y2="200"/><g class="g"><path class="f" d="M378.42,200a.87.87,0,1,1,1.74,0"/></g><line class="f" x1="378.81" y1="200.86" x2="378.81" y2="201.38"/><line class="f" x1="379.76" y1="201.38" x2="379.76" y2="200.86"/><line class="f" x1="379.76" y1="200.86" x2="378.82" y2="200.86"/><g class="g"><path class="f" d="M379.76,201.38a.47.47,0,0,1-.94,0"/><path class="f" d="M379.9,201.78a.73.73,0,0,1-1.23,0"/></g><rect class="d" x="461.74" y="192.73" width="20.87" height="54.71"/><line class="f" x1="461.74" y1="247.43" x2="461.74" y2="192.73"/><line class="f" x1="461.74" y1="192.73" x2="482.61" y2="192.73"/><line class="f" x1="482.61" y1="192.73" x2="482.61" y2="247.43"/><line class="f" x1="482.61" y1="247.43" x2="461.74" y2="247.43"/><line class="f" x1="472.18" y1="244.7" x2="472.18" y2="195.46"/><line class="f" x1="466.04" y1="242.16" x2="478.54" y2="237.53"/><line class="f" x1="465.41" y1="236.94" x2="477.05" y2="235.03"/><line class="f" x1="479.7" y1="229.82" x2="466.94" y2="228.25"/><line class="f" x1="478.03" y1="221.75" x2="466.94" y2="223.88"/><line class="f" x1="478.66" y1="218.81" x2="465" y2="218.81"/><line class="f" x1="478.72" y1="210.5" x2="465.22" y2="212.47"/><line class="f" x1="478.5" y1="207.38" x2="466.16" y2="207.38"/><line class="f" x1="478.62" y1="199.18" x2="465.97" y2="197.6"/><line class="f" x1="477.76" y1="201.15" x2="467.07" y2="202.75"/><rect class="d" x="307.97" y="309.98" width="27.83" height="27.7"/><polygon class="d" points="335.8 330.76 335.8 316.91 345.19 316.91 346.93 317.37 348.21 318.64 348.68 320.37 348.68 327.3 348.21 329.03 346.93 330.29 345.19 330.76 335.8 330.76"/><polygon class="d" points="314.93 309.98 314.93 300.64 315.39 298.9 316.67 297.64 318.41 297.17 325.37 297.17 327.11 297.64 328.38 298.9 328.84 300.64 328.84 309.98 314.93 309.98"/><polygon class="d" points="318.41 350.49 316.67 350.03 315.39 348.76 314.93 347.03 314.93 337.68 328.84 337.68 328.84 347.03 328.38 348.76 327.11 350.03 325.37 350.49 318.41 350.49"/><line class="f" x1="346.93" y1="320.37" x2="346.93" y2="327.3"/><line class="f" x1="345.19" y1="330.76" x2="335.8" y2="330.76"/><line class="f" x1="348.67" y1="320.37" x2="348.67" y2="327.3"/><line class="f" x1="335.8" y1="316.91" x2="345.19" y2="316.91"/><g class="g"><path class="f" d="M346.93,327.3A1.73,1.73,0,0,1,345.2,329"/><path class="f" d="M345.19,318.64a1.73,1.73,0,0,1,1.74,1.73"/><path class="f" d="M348.67,327.3a3.47,3.47,0,0,1-3.48,3.46"/><path class="f" d="M345.19,316.91a3.47,3.47,0,0,1,3.48,3.46"/></g><line class="f" x1="318.41" y1="298.9" x2="325.37" y2="298.9"/><line class="f" x1="328.84" y1="300.64" x2="328.84" y2="309.98"/><line class="f" x1="318.41" y1="297.17" x2="325.37" y2="297.17"/><line class="f" x1="314.93" y1="309.98" x2="314.93" y2="300.64"/><g class="g"><path class="f" d="M325.37,298.9a1.73,1.73,0,0,1,1.73,1.74"/><path class="f" d="M316.67,300.64a1.74,1.74,0,0,1,1.74-1.74"/><path class="f" d="M325.37,297.17a3.47,3.47,0,0,1,3.47,3.47"/><path class="f" d="M314.93,300.64a3.47,3.47,0,0,1,3.48-3.47"/></g><line class="f" x1="318.41" y1="348.76" x2="325.37" y2="348.76"/><line class="f" x1="328.84" y1="347.03" x2="328.84" y2="337.68"/><line class="f" x1="318.41" y1="350.49" x2="325.37" y2="350.49"/><line class="f" x1="314.93" y1="337.68" x2="314.93" y2="347.03"/><g class="g"><path class="f" d="M327.11,347a1.73,1.73,0,0,1-1.74,1.73"/><path class="f" d="M318.41,348.76a1.73,1.73,0,0,1-1.74-1.73"/><path class="f" d="M328.84,347a3.46,3.46,0,0,1-3.47,3.46"/><path class="f" d="M318.41,350.49a3.47,3.47,0,0,1-3.48-3.46"/></g><line class="f" x1="307.97" y1="309.98" x2="307.97" y2="337.68"/><line class="f" x1="307.97" y1="309.98" x2="335.8" y2="309.98"/><line class="f" x1="335.8" y1="309.98" x2="335.8" y2="337.68"/><line class="f" x1="335.8" y1="337.68" x2="307.97" y2="337.68"/><polygon class="d" points="354.47 214.88 352.5 213.85 351.29 212.61 350.51 211.06 350.24 209.35 350.24 197.92 363.11 197.92 363.11 209.35 362.84 211.06 362.06 212.61 360.85 213.85 358.87 214.88 356.68 215.23 354.47 214.88"/><line class="f" x1="350.24" y1="197.92" x2="350.24" y2="209.35"/><line class="f" x1="350.24" y1="197.92" x2="363.11" y2="197.92"/><line class="f" x1="363.11" y1="197.92" x2="363.11" y2="209.35"/><line class="f" x1="352.33" y1="202.08" x2="352.33" y2="209.35"/><line class="f" x1="361.02" y1="202.08" x2="361.02" y2="209.35"/><line class="f" x1="361.02" y1="202.08" x2="352.33" y2="202.08"/><g class="g"><path class="f" d="M352.5,213.85a5.62,5.62,0,0,1-2.26-4.5"/><path class="f" d="M363.11,209.35a5.64,5.64,0,0,1-2.26,4.5"/><path class="f" d="M360.85,213.85a7,7,0,0,1-8.35,0"/><path class="f" d="M363.11,209.35a5.64,5.64,0,0,1-2.26,4.5"/><path class="f" d="M360.85,213.85a7,7,0,0,1-4.17,1.38"/><path class="f" d="M361,209.35a3.54,3.54,0,0,1-1.42,2.84"/><path class="f" d="M359.6,212.19a4.94,4.94,0,0,1-5.85,0"/><path class="f" d="M353.75,212.19a3.57,3.57,0,0,1-1.42-2.84"/></g><line class="f" x1="459.3" y1="192.73" x2="452.34" y2="192.73"/><line class="f" x1="448.52" y1="192.73" x2="447.73" y2="192.73"/><line class="f" x1="443.91" y1="192.73" x2="443.13" y2="192.73"/><line class="f" x1="439.3" y1="192.73" x2="432.34" y2="192.73"/><line class="f" x1="428.51" y1="192.73" x2="427.99" y2="192.73"/><line class="f" x1="427.99" y1="192.73" x2="421.03" y2="192.73"/><line class="f" x1="342" y1="262.88" x2="342" y2="257.07"/><line class="f" x1="342" y1="257.07" x2="339.63" y2="258.98"/><line class="f" x1="339.63" y1="258.98" x2="337.26" y2="257.07"/><line class="f" x1="337.26" y1="257.07" x2="337.26" y2="262.88"/><line class="f" x1="314.23" y1="433.71" x2="486.79" y2="433.71"/><line class="f" x1="314.23" y1="431.98" x2="486.79" y2="431.98"/><line class="f" x1="299.62" y1="184.42" x2="299.62" y2="378.31"/><line class="f" x1="299.62" y1="378.31" x2="314.23" y2="378.31"/><line class="f" x1="314.23" y1="378.31" x2="314.23" y2="433.71"/><line class="f" x1="314.23" y1="433.71" x2="486.79" y2="433.71"/><line class="f" x1="486.79" y1="433.71" x2="486.79" y2="378.31"/><line class="f" x1="486.79" y1="378.31" x2="490.96" y2="378.31"/><line class="f" x1="490.96" y1="378.31" x2="490.96" y2="184.42"/><line class="f" x1="490.96" y1="184.42" x2="299.62" y2="184.42"/><path class="h" d="M397.13,401.2v7h-.72v-6.36h-1.65v-.64Z"/><path class="h" d="M398.81,407.7a.53.53,0,0,1,.53-.54.54.54,0,0,1,0,1.08A.53.53,0,0,1,398.81,407.7Z"/><path class="h" d="M400.82,404.7c0-2.23,1.17-3.56,2.79-3.56s2.8,1.33,2.8,3.56-1.18,3.55-2.8,3.55S400.82,406.93,400.82,404.7Zm4.85,0c0-1.87-.84-2.9-2.06-2.9s-2.06,1-2.06,2.9.84,2.9,2.06,2.9S405.67,406.57,405.67,404.7Z"/><path class="h" d="M413.39,406.36H412v1.84h-.72v-1.84h-3.95v-.52L411,401.2h.8l-3.58,4.52h3V404.1h.7v1.62h1.4Z"/><path class="h" d="M368.37,221.48v7h-.72v-6.36H366v-.64Z"/><path class="h" d="M370.05,228a.53.53,0,0,1,.53-.54.54.54,0,0,1,.54.54.55.55,0,0,1-.54.55A.54.54,0,0,1,370.05,228Z"/><path class="h" d="M372.06,225c0-2.23,1.17-3.56,2.79-3.56s2.8,1.33,2.8,3.56-1.18,3.55-2.8,3.55S372.06,227.21,372.06,225Zm4.85,0c0-1.87-.84-2.9-2.06-2.9s-2.06,1-2.06,2.9.84,2.9,2.06,2.9S376.91,226.85,376.91,225Z"/><path class="h" d="M383.22,226.47c0,1.17-.85,2.06-2.54,2.06a3.64,3.64,0,0,1-2.52-.89l.35-.57a3.07,3.07,0,0,0,2.17.81c1.16,0,1.8-.54,1.8-1.41s-.59-1.39-1.89-1.39h-.5v-.53l1.94-2.43h-3.58v-.64H383V222l-2,2.49C382.47,224.56,383.22,225.35,383.22,226.47Z"/><path class="h" d="M368.37,285.81v7h-.72v-6.36H366v-.64Z"/><path class="h" d="M370.05,292.31a.53.53,0,0,1,.53-.54.54.54,0,0,1,.54.54.55.55,0,0,1-.54.55A.54.54,0,0,1,370.05,292.31Z"/><path class="h" d="M372.06,289.31c0-2.23,1.17-3.56,2.79-3.56s2.8,1.33,2.8,3.56-1.18,3.56-2.8,3.56S372.06,291.54,372.06,289.31Zm4.85,0c0-1.87-.84-2.9-2.06-2.9s-2.06,1-2.06,2.9.84,2.9,2.06,2.9S376.91,291.18,376.91,289.31Z"/><path class="h" d="M383.45,292.17v.64h-4.91v-.51l2.91-2.85c.79-.78.94-1.25.94-1.73,0-.81-.57-1.31-1.64-1.31a2.38,2.38,0,0,0-1.91.78l-.51-.44a3.15,3.15,0,0,1,2.48-1c1.42,0,2.32.72,2.32,1.89a2.88,2.88,0,0,1-1.15,2.19l-2.38,2.34Z"/><path class="h" d="M437.36,221.48v7h-.72v-6.36H435v-.64Z"/><path class="h" d="M439,228a.53.53,0,0,1,.53-.54.54.54,0,0,1,.54.54.55.55,0,0,1-.54.55A.54.54,0,0,1,439,228Z"/><path class="h" d="M441.05,225c0-2.23,1.17-3.56,2.79-3.56s2.8,1.33,2.8,3.56-1.18,3.55-2.8,3.55S441.05,227.21,441.05,225Zm4.85,0c0-1.87-.84-2.9-2.06-2.9s-2.06,1-2.06,2.9.84,2.9,2.06,2.9S445.9,226.85,445.9,225Z"/><path class="h" d="M449.6,221.48v7h-.72v-6.36h-1.65v-.64Z"/></svg>