<svg xmlns="http://www.w3.org/2000/svg" xmlns:xlink="http://www.w3.org/1999/xlink" viewBox="0 0 790.58 618.13"><defs><style>.a,.f{fill:none;}.b{fill:#595a5c;}.c{fill:#b6906c;}.d,.i{fill:#fff;}.e{fill:#231f20;}.f{stroke:#000;stroke-linecap:round;stroke-linejoin:round;stroke-width:0.35px;}.g,.i{fill-rule:evenodd;}.h{clip-path:url(#a);}.j{fill:#58595b;}</style><clipPath id="a"><polygon class="a" points="342.77 35.16 342.77 90.82 292.34 90.82 292.34 340.89 292.34 527.32 320.17 527.32 320.17 582.96 413.72 582.96 413.72 527.32 413.72 513.4 407.46 513.4 407.46 340.89 498.24 340.89 498.24 202.12 498.24 90.82 494.07 90.82 494.07 35.16 342.77 35.16"/></clipPath></defs><path class="b" d="M55.31,597.13H57.1V609.9H55.31Zm.92,6.11h4.09a1.89,1.89,0,0,0,1-.27,1.82,1.82,0,0,0,.68-.77,2.67,2.67,0,0,0,.24-1.16,2.7,2.7,0,0,0-.24-1.16,1.82,1.82,0,0,0-1.7-1H56.23v-1.7h4a4.09,4.09,0,0,1,2,.48A3.45,3.45,0,0,1,63.62,599a4.64,4.64,0,0,1,0,4.11,3.34,3.34,0,0,1-1.35,1.36,4,4,0,0,1-2,.49h-4Z"/><path class="b" d="M67.7,606.33a2.07,2.07,0,0,0,.49,1.48,1.76,1.76,0,0,0,1.37.52,1.89,1.89,0,0,0,1.37-.46,1.79,1.79,0,0,0,.48-1.33l.12,1.91A2.58,2.58,0,0,1,69.06,610a2.89,2.89,0,0,1-2.33-1,4.08,4.08,0,0,1-.82-2.73v-5.55H67.7Zm.22-7.86a1.93,1.93,0,0,1-.56-1.5,2.07,2.07,0,0,1,.56-1.57,2.56,2.56,0,0,1,3.18,0,2.08,2.08,0,0,1,.57,1.56,1.94,1.94,0,0,1-.57,1.5,2.65,2.65,0,0,1-3.18,0Zm2.26-.86a.94.94,0,0,0,.24-.68,1,1,0,0,0-.24-.7.91.91,0,0,0-.67-.25.92.92,0,0,0-.67.25,1,1,0,0,0-.23.7,1,1,0,0,0,.23.68.92.92,0,0,0,.67.24A.9.9,0,0,0,70.18,597.61Zm1.23,3.17h1.78v9.12H71.41Z"/><path class="b" d="M77.1,609.63A2.82,2.82,0,0,1,76,608.36a5.08,5.08,0,0,1-.36-2v-2a5.05,5.05,0,0,1,.36-2,2.71,2.71,0,0,1,1-1.27,3,3,0,0,1,1.65-.44,2.71,2.71,0,0,1,1.48.42,3.22,3.22,0,0,1,1.09,1.19l-.18,1.86a2.19,2.19,0,0,0-.22-1,1.48,1.48,0,0,0-.61-.63,2,2,0,0,0-1-.21,1.71,1.71,0,0,0-1.37.55,2.26,2.26,0,0,0-.49,1.56v2a2.19,2.19,0,0,0,.49,1.54,1.74,1.74,0,0,0,1.37.54,1.93,1.93,0,0,0,1-.23,1.45,1.45,0,0,0,.61-.64,2.25,2.25,0,0,0,.22-1l.12,1.92a2.66,2.66,0,0,1-.89,1.14,2.56,2.56,0,0,1-1.53.45A3.19,3.19,0,0,1,77.1,609.63Zm4-12.5H82.9V609.9H81.11Z"/><path class="b" d="M87.09,609.57a3.09,3.09,0,0,1-1.29-1.36,4.85,4.85,0,0,1-.44-2.15v-1.48a4.71,4.71,0,0,1,.44-2.12,3.12,3.12,0,0,1,1.29-1.35,4.71,4.71,0,0,1,4.06,0,3.12,3.12,0,0,1,1.29,1.35,4.71,4.71,0,0,1,.44,2.12v1.51a4.79,4.79,0,0,1-.44,2.13,3.12,3.12,0,0,1-1.29,1.35,4.62,4.62,0,0,1-4.06,0Zm3.49-1.83a2.43,2.43,0,0,0,.51-1.65v-1.51a2.43,2.43,0,0,0-.51-1.65,1.88,1.88,0,0,0-1.46-.58,1.85,1.85,0,0,0-1.45.58,2.38,2.38,0,0,0-.52,1.65v1.51a2.38,2.38,0,0,0,.52,1.65,1.82,1.82,0,0,0,1.45.59A1.85,1.85,0,0,0,90.58,607.74Z"/><path class="b" d="M95.43,600.78h1.79v9.12H95.43Zm4.42,1.72a2.16,2.16,0,0,0-.83-.15,1.83,1.83,0,0,0-1.33.47,1.79,1.79,0,0,0-.47,1.31L97,602.37a3.32,3.32,0,0,1,1.09-1.27,2.58,2.58,0,0,1,1.48-.45,3.39,3.39,0,0,1,1.13.18,2.62,2.62,0,0,1,.88.53l-1.17,1.58A1.56,1.56,0,0,0,99.85,602.5Z"/><path class="b" d="M102.15,600.78H104l2.81,7.93-1,1.94Zm8.07,0L106.34,612a2.6,2.6,0,0,1-.56,1,1.87,1.87,0,0,1-.84.52,4,4,0,0,1-1.23.16h-.36V612h.36a1.46,1.46,0,0,0,.8-.2,1.74,1.74,0,0,0,.51-.7l3.38-10.31Z"/><path class="b" d="M113.51,609.88a5.76,5.76,0,0,1-1.32-.48,4.89,4.89,0,0,1-1.13-.79l1.06-1.31a5.86,5.86,0,0,0,1.47.85,4.18,4.18,0,0,0,1.44.28,3.11,3.11,0,0,0,1.6-.33,1.1,1.1,0,0,0,.53-1,.79.79,0,0,0-.29-.66,1.66,1.66,0,0,0-.72-.29c-.29,0-.69-.1-1.22-.14h-.15l-.14,0h-.15a6.45,6.45,0,0,1-1.5-.26,2,2,0,0,1-1-.7,2.38,2.38,0,0,1-.41-1.49,3.07,3.07,0,0,1,.39-1.61,2.41,2.41,0,0,1,1.18-1,5.29,5.29,0,0,1,2-.32,6.38,6.38,0,0,1,2.6.52,6.16,6.16,0,0,1,1.13.66l-1.08,1.31a5.59,5.59,0,0,0-1.35-.66,4,4,0,0,0-1.3-.22,2.44,2.44,0,0,0-1.37.31,1.08,1.08,0,0,0-.46.94.64.64,0,0,0,.26.55,1.72,1.72,0,0,0,.66.25c.26,0,.64.07,1.12.1h.34a7.67,7.67,0,0,1,1.63.25,2.24,2.24,0,0,1,1.13.77,2.62,2.62,0,0,1,.45,1.65,2.92,2.92,0,0,1-.42,1.63,2.54,2.54,0,0,1-1.27,1A5.88,5.88,0,0,1,115,610,7.38,7.38,0,0,1,113.51,609.88Z"/><path class="b" d="M126,597.13h1.8V609.9H126Zm2.6,12.5a2.39,2.39,0,0,1-.93-1.16l.13-1.91a2.22,2.22,0,0,0,.21,1,1.48,1.48,0,0,0,.61.63,1.93,1.93,0,0,0,1,.22,1.74,1.74,0,0,0,1.37-.54,2.18,2.18,0,0,0,.49-1.53v-2a2.26,2.26,0,0,0-.49-1.56,1.71,1.71,0,0,0-1.37-.55,2,2,0,0,0-1,.21,1.36,1.36,0,0,0-.61.62,2.12,2.12,0,0,0-.21,1l-.19-1.76a3.37,3.37,0,0,1,1.08-1.24,2.67,2.67,0,0,1,1.49-.43,3,3,0,0,1,1.65.43,2.9,2.9,0,0,1,1.06,1.27,5.1,5.1,0,0,1,.36,2v2a4.94,4.94,0,0,1-.37,2,2.79,2.79,0,0,1-1.08,1.26,3.25,3.25,0,0,1-1.71.44A2.73,2.73,0,0,1,128.57,609.63Z"/><path class="b" d="M134.46,600.78h1.82l2.81,7.93-1,1.94Zm8.07,0L138.65,612a2.6,2.6,0,0,1-.56,1,1.87,1.87,0,0,1-.84.52,4,4,0,0,1-1.23.16h-.36V612H136a1.46,1.46,0,0,0,.8-.2,1.74,1.74,0,0,0,.51-.7l3.37-10.31Z"/><path class="b" d="M143.57,600.78h4.12v1.62h-4.12Zm1.46,8.56a2.77,2.77,0,0,1-.52-1.81v-9.4h1.8v9.42a.84.84,0,0,0,.13.51.46.46,0,0,0,.39.18h.86V610h-1A2,2,0,0,1,145,609.34Z"/><path class="b" d="M151.94,606.33a2.07,2.07,0,0,0,.49,1.48,1.76,1.76,0,0,0,1.37.52,1.91,1.91,0,0,0,1.37-.46,1.79,1.79,0,0,0,.48-1.33l.12,1.91A2.58,2.58,0,0,1,153.3,610a2.89,2.89,0,0,1-2.33-1,4.08,4.08,0,0,1-.82-2.73v-5.55h1.79Zm3.71-5.55h1.78v9.12h-1.78Z"/><rect class="c" x="612.92" y="591.68" width="35.43" height="2.83"/><path class="d" d="M648.48,594.64H612.79v-3.08h35.69ZM613,594.39h35.19v-2.58H613Z"/><rect class="c" x="612.92" y="601.6" width="70.74" height="2.83"/><path class="d" d="M683.78,604.56h-71v-3.08h71ZM613,604.31h70.49v-2.58H613Z"/><rect class="c" x="612.92" y="612.72" width="177.16" height="2.84"/><path class="d" d="M790.21,615.68H612.79V612.6H790.21ZM613,615.43H790v-2.58H613Z"/><path class="e" d="M587.26,596.28h-.8v-4.82l-.81.5v-.83l.81-.53h.8Z"/><path class="e" d="M589,595.91a1.67,1.67,0,0,1-.41-1.19v-2.58A1.65,1.65,0,0,1,589,591a2,2,0,0,1,2.42,0,1.65,1.65,0,0,1,.41,1.19v2.58a1.65,1.65,0,0,1-.41,1.19,2,2,0,0,1-2.42,0Zm1.83-.55a.89.89,0,0,0,.2-.64v-2.58a.89.89,0,0,0-.2-.64.82.82,0,0,0-.62-.22.86.86,0,0,0-.63.22.94.94,0,0,0-.2.64v2.58a.9.9,0,0,0,.21.64,1,1,0,0,0,1.24,0Z"/><path class="e" d="M593.22,595.91a1.67,1.67,0,0,1-.41-1.19v-2.58a1.65,1.65,0,0,1,.41-1.19,2,2,0,0,1,2.42,0,1.61,1.61,0,0,1,.41,1.19v2.58a1.65,1.65,0,0,1-.41,1.19,2,2,0,0,1-2.42,0Zm1.83-.55a.9.9,0,0,0,.21-.64v-2.58a.94.94,0,0,0-.2-.64.86.86,0,0,0-.63-.22.82.82,0,0,0-.62.22.89.89,0,0,0-.2.64v2.58a.89.89,0,0,0,.2.64,1,1,0,0,0,1.24,0Z"/><path class="e" d="M600.1,596.13a1.45,1.45,0,0,1-.6-.6,2.06,2.06,0,0,1-.21-1v-.67a2,2,0,0,1,.21-.94,1.37,1.37,0,0,1,.6-.59,2,2,0,0,1,.95-.21,2.21,2.21,0,0,1,.59.08,1.68,1.68,0,0,1,.51.22,1.54,1.54,0,0,1,.37.35l-.58.52a1.17,1.17,0,0,0-.4-.3,1.13,1.13,0,0,0-.48-.11.94.94,0,0,0-.71.26,1,1,0,0,0-.26.72v.67a1,1,0,0,0,.25.74.94.94,0,0,0,.72.27,1,1,0,0,0,.48-.12,1,1,0,0,0,.4-.32l.58.56a1.38,1.38,0,0,1-.38.34,1.62,1.62,0,0,1-.5.22,2.27,2.27,0,0,1-.59.07A2.12,2.12,0,0,1,600.1,596.13Z"/><path class="e" d="M603.4,592.22h.79v4.06h-.79Zm2.42,1.6a1,1,0,0,0-.21-.67.78.78,0,0,0-.6-.23.81.81,0,0,0-.6.21.73.73,0,0,0-.22.58l-.08-.78a1.46,1.46,0,0,1,.49-.57,1.22,1.22,0,0,1,.67-.2,1.33,1.33,0,0,1,.73.2,1.18,1.18,0,0,1,.46.56,2.4,2.4,0,0,1,.15.89v2.47h-.79Zm2.42,0a.93.93,0,0,0-.22-.67.85.85,0,0,0-.63-.23.72.72,0,0,0-.57.23.9.9,0,0,0-.21.64l-.16-.78a1.61,1.61,0,0,1,.51-.63,1.23,1.23,0,0,1,.69-.22,1.37,1.37,0,0,1,.75.2,1.09,1.09,0,0,1,.47.56,2.21,2.21,0,0,1,.17.89v2.47h-.8Z"/><path class="e" d="M584.33,605.5l2-2.64a1.85,1.85,0,0,0,.27-.47,1.29,1.29,0,0,0,.09-.45h0a.67.67,0,0,0-.2-.53.81.81,0,0,0-.56-.19.76.76,0,0,0-.56.21,1,1,0,0,0-.27.58h-.82a2,2,0,0,1,.29-.83,1.42,1.42,0,0,1,.56-.53,1.67,1.67,0,0,1,.79-.18,1.93,1.93,0,0,1,.87.17,1.21,1.21,0,0,1,.54.51,1.55,1.55,0,0,1,.19.8h0a1.84,1.84,0,0,1-.12.63,2.8,2.8,0,0,1-.35.63l-1.65,2.24h2.15v.76h-3.2Z"/><path class="e" d="M589,605.83a1.67,1.67,0,0,1-.41-1.19v-2.58a1.65,1.65,0,0,1,.41-1.19,2,2,0,0,1,2.42,0,1.65,1.65,0,0,1,.41,1.19v2.58a1.65,1.65,0,0,1-.41,1.19,2,2,0,0,1-2.42,0Zm1.83-.55a.89.89,0,0,0,.2-.64v-2.58a.89.89,0,0,0-.2-.64.82.82,0,0,0-.62-.22.86.86,0,0,0-.63.22.94.94,0,0,0-.19.64v2.58a.89.89,0,0,0,.2.64,1,1,0,0,0,1.24,0Z"/><path class="e" d="M593.22,605.83a1.67,1.67,0,0,1-.41-1.19v-2.58a1.61,1.61,0,0,1,.42-1.19,1.59,1.59,0,0,1,1.2-.42,1.45,1.45,0,0,1,1.62,1.61v2.58a1.61,1.61,0,0,1-.41,1.19,2,2,0,0,1-2.42,0Zm1.84-.55a.94.94,0,0,0,.2-.64v-2.58a.94.94,0,0,0-.2-.64.84.84,0,0,0-.63-.22.82.82,0,0,0-.62.22.89.89,0,0,0-.2.64v2.58a.89.89,0,0,0,.2.64.82.82,0,0,0,.62.22A.86.86,0,0,0,595.06,605.28Z"/><path class="e" d="M600.1,606.05a1.45,1.45,0,0,1-.6-.6,2.06,2.06,0,0,1-.2-1v-.67a2,2,0,0,1,.2-.94,1.37,1.37,0,0,1,.6-.59,2,2,0,0,1,.95-.21,2.35,2.35,0,0,1,.6.08,1.73,1.73,0,0,1,.5.22,1.38,1.38,0,0,1,.37.35l-.58.52a1.08,1.08,0,0,0-.4-.3,1.13,1.13,0,0,0-.48-.11,1,1,0,0,0-.71.26,1,1,0,0,0-.26.72v.67a1,1,0,0,0,.25.74.94.94,0,0,0,.72.27,1.14,1.14,0,0,0,.88-.44l.58.56a1.38,1.38,0,0,1-.38.34,1.62,1.62,0,0,1-.5.22,2.22,2.22,0,0,1-.59.07A2.12,2.12,0,0,1,600.1,606.05Z"/><path class="e" d="M603.4,602.14h.79v4.06h-.79Zm2.42,1.6a1,1,0,0,0-.21-.67.78.78,0,0,0-.6-.23.81.81,0,0,0-.6.21.73.73,0,0,0-.22.58l-.08-.78a1.46,1.46,0,0,1,.49-.57,1.22,1.22,0,0,1,.67-.2,1.3,1.3,0,0,1,.73.2,1.18,1.18,0,0,1,.46.56,2.4,2.4,0,0,1,.16.89v2.47h-.8Zm2.42,0a.93.93,0,0,0-.22-.67.85.85,0,0,0-.63-.23.73.73,0,0,0-.57.23.89.89,0,0,0-.2.64l-.16-.78a1.51,1.51,0,0,1,.5-.63,1.23,1.23,0,0,1,.69-.22,1.35,1.35,0,0,1,.75.2,1.16,1.16,0,0,1,.48.56,2.4,2.4,0,0,1,.16.89v2.47h-.8Z"/><path class="e" d="M585,615.58a1.34,1.34,0,0,1-.54-.49,2,2,0,0,1-.28-.77h.8a.75.75,0,0,0,.25.49.85.85,0,0,0,.54.17.72.72,0,0,0,.59-.25,1.1,1.1,0,0,0,.21-.72v-.48a1.1,1.1,0,0,0-.21-.72.72.72,0,0,0-.59-.25.83.83,0,0,0-.4.11,1.18,1.18,0,0,0-.34.33h-.72v-3h2.89v.76h-2.1V612a1,1,0,0,1,.34-.18.94.94,0,0,1,.37-.07,1.68,1.68,0,0,1,.84.2,1.29,1.29,0,0,1,.53.6,2.07,2.07,0,0,1,.19.94V614a2.25,2.25,0,0,1-.19.94,1.31,1.31,0,0,1-.55.59,1.69,1.69,0,0,1-.86.21A1.74,1.74,0,0,1,585,615.58Z"/><path class="e" d="M589,615.32a1.65,1.65,0,0,1-.41-1.19v-2.58a1.67,1.67,0,0,1,.41-1.19,2,2,0,0,1,2.42,0,1.65,1.65,0,0,1,.41,1.19v2.58a1.64,1.64,0,0,1-.41,1.19,1.92,1.92,0,0,1-2.42,0Zm1.83-.55a.89.89,0,0,0,.2-.64v-2.58a.88.88,0,0,0-.2-.63.78.78,0,0,0-.62-.22.82.82,0,0,0-.63.22.93.93,0,0,0-.2.63v2.58a.9.9,0,0,0,.21.64,1,1,0,0,0,1.24,0Z"/><path class="e" d="M593.22,615.32a1.65,1.65,0,0,1-.41-1.19v-2.58a1.67,1.67,0,0,1,.41-1.19,2,2,0,0,1,2.42,0,1.61,1.61,0,0,1,.41,1.19v2.58a1.64,1.64,0,0,1-.41,1.19,1.92,1.92,0,0,1-2.42,0Zm1.83-.55a.9.9,0,0,0,.21-.64v-2.58a.93.93,0,0,0-.2-.63.82.82,0,0,0-.63-.22.78.78,0,0,0-.62.22.88.88,0,0,0-.2.63v2.58a.89.89,0,0,0,.2.64,1,1,0,0,0,1.24,0Z"/><path class="e" d="M600.1,615.54a1.45,1.45,0,0,1-.6-.6,2,2,0,0,1-.21-1v-.67a2,2,0,0,1,.21-.94,1.45,1.45,0,0,1,.6-.6,2,2,0,0,1,.95-.2,2.22,2.22,0,0,1,.59.07,2,2,0,0,1,.51.22,1.76,1.76,0,0,1,.37.35l-.58.52a1.17,1.17,0,0,0-.4-.3,1.13,1.13,0,0,0-.48-.11.94.94,0,0,0-.71.26,1,1,0,0,0-.26.73V614a1.07,1.07,0,0,0,.25.74,1,1,0,0,0,.72.26,1.13,1.13,0,0,0,.48-.11,1.26,1.26,0,0,0,.4-.32l.58.55a1.42,1.42,0,0,1-.38.35,1.88,1.88,0,0,1-.5.21,2.27,2.27,0,0,1-.59.08A2,2,0,0,1,600.1,615.54Z"/><path class="e" d="M603.4,611.63h.79v4.06h-.79Zm2.42,1.6a1,1,0,0,0-.21-.66.75.75,0,0,0-.6-.24.81.81,0,0,0-.6.21.75.75,0,0,0-.22.58l-.08-.78a1.5,1.5,0,0,1,.49-.56,1.15,1.15,0,0,1,.67-.2,1.32,1.32,0,0,1,.73.19,1.28,1.28,0,0,1,.46.56,2.42,2.42,0,0,1,.15.9v2.46h-.79Zm2.42,0a.91.91,0,0,0-.22-.66.82.82,0,0,0-.63-.24.72.72,0,0,0-.57.23.9.9,0,0,0-.21.64l-.16-.78a1.51,1.51,0,0,1,.51-.62,1.16,1.16,0,0,1,.69-.22,1.37,1.37,0,0,1,.75.19,1.18,1.18,0,0,1,.47.56,2.22,2.22,0,0,1,.17.9v2.46h-.8Z"/><path class="c" d="M23.49,613.89A12.92,12.92,0,1,1,36.4,601,12.93,12.93,0,0,1,23.49,613.89Zm0-24.83A11.92,11.92,0,1,0,35.4,601,11.93,11.93,0,0,0,23.49,589.06Z"/><polygon class="d" points="35.77 588.74 9.42 600.98 35.77 613.21 32.02 600.98 35.77 588.74"/><path class="c" d="M36.58,614.14,8.23,601l28.35-13.17-4,13.17ZM10.61,601,35,612.29,31.5,601,35,589.66Z"/><path class="c" d="M2.52,605.19a5,5,0,0,1-1.11-.38,4.4,4.4,0,0,1-1-.64l.81-1a3.72,3.72,0,0,0,1.16.69,4.08,4.08,0,0,0,1.38.23,2.73,2.73,0,0,0,1.55-.38,1.17,1.17,0,0,0,.55-1.05h0a1.12,1.12,0,0,0-.25-.77,1.44,1.44,0,0,0-.64-.42,8.23,8.23,0,0,0-1-.25H3.89l-.1,0a9.48,9.48,0,0,1-1.5-.36,2.08,2.08,0,0,1-1-.73,2.42,2.42,0,0,1-.41-1.51h0a2.77,2.77,0,0,1,.38-1.47,2.44,2.44,0,0,1,1.12-.92,4.48,4.48,0,0,1,1.77-.32,4.6,4.6,0,0,1,1,.11,4.9,4.9,0,0,1,1.86.86l-.73,1a4.61,4.61,0,0,0-1-.58,3,3,0,0,0-1.06-.2,2.44,2.44,0,0,0-1.46.38,1.24,1.24,0,0,0-.53,1.07h0a1,1,0,0,0,.27.75,1.74,1.74,0,0,0,.67.4,9.3,9.3,0,0,0,1.12.27h.24a7.93,7.93,0,0,1,1.4.41,2.22,2.22,0,0,1,.94.76,2.4,2.4,0,0,1,.38,1.43h0a2.62,2.62,0,0,1-.4,1.45,2.54,2.54,0,0,1-1.16.91,4.8,4.8,0,0,1-1.83.31A6.44,6.44,0,0,1,2.52,605.19Z"/><rect class="c" x="612.5" y="600.68" width="1" height="4.68"/><rect class="c" x="612.5" y="590.76" width="1" height="4.68"/><rect class="c" x="612.5" y="611.45" width="1" height="5.24"/><rect class="c" x="789.58" y="611.45" width="1" height="5.24"/><rect class="c" x="682.59" y="600.68" width="1" height="4.68"/><rect class="c" x="647.3" y="590.76" width="1" height="4.68"/><rect class="a" width="790.34" height="618.13"/><line class="f" x1="495.46" y1="90.82" x2="498.24" y2="90.82"/><line class="f" x1="492.67" y1="90.82" x2="492.67" y2="38.65"/><line class="f" x1="379.29" y1="90.82" x2="492.67" y2="90.82"/><line class="f" x1="379.29" y1="94.3" x2="379.29" y2="90.82"/><line class="f" x1="347.99" y1="94.3" x2="379.29" y2="94.3"/><line class="f" x1="347.99" y1="90.82" x2="347.99" y2="94.3"/><line class="f" x1="346.25" y1="90.82" x2="347.99" y2="90.82"/><line class="f" x1="346.25" y1="38.65" x2="346.25" y2="90.82"/><line class="f" x1="492.67" y1="38.65" x2="346.25" y2="38.65"/><line class="f" x1="412.33" y1="579.49" x2="412.33" y2="527.31"/><line class="f" x1="323.64" y1="579.49" x2="412.33" y2="579.49"/><line class="f" x1="323.64" y1="527.32" x2="323.64" y2="579.49"/><line class="f" x1="360.16" y1="527.32" x2="323.64" y2="527.32"/><line class="f" x1="360.16" y1="523.84" x2="360.16" y2="527.31"/><line class="f" x1="391.46" y1="523.84" x2="360.16" y2="523.84"/><line class="f" x1="391.46" y1="527.32" x2="391.46" y2="523.84"/><line class="f" x1="412.33" y1="527.32" x2="391.46" y2="527.32"/><rect class="d" x="312.34" y="328.02" width="20.87" height="20.87"/><line class="f" x1="312.34" y1="348.89" x2="333.21" y2="348.89"/><line class="f" x1="312.34" y1="328.03" x2="312.34" y2="348.89"/><line class="f" x1="333.21" y1="328.03" x2="312.34" y2="328.03"/><line class="f" x1="333.21" y1="348.89" x2="333.21" y2="328.03"/><rect class="d" x="306.25" y="104.74" width="21.22" height="131.47"/><line class="f" x1="327.47" y1="236.2" x2="327.47" y2="104.74"/><line class="f" x1="306.25" y1="236.2" x2="327.47" y2="236.2"/><line class="f" x1="306.25" y1="104.73" x2="306.25" y2="236.2"/><line class="f" x1="327.47" y1="104.73" x2="306.25" y2="104.73"/><rect class="d" x="327.99" y="239.51" width="31.3" height="31.3"/><line class="f" x1="327.99" y1="270.81" x2="359.29" y2="270.81"/><line class="f" x1="327.99" y1="239.51" x2="327.99" y2="270.81"/><line class="f" x1="359.29" y1="239.51" x2="327.99" y2="239.51"/><line class="f" x1="359.29" y1="270.81" x2="359.29" y2="239.51"/><line class="f" x1="498.24" y1="277.24" x2="498.24" y2="277.24"/><line class="f" x1="498.24" y1="277.24" x2="498.24" y2="256.03"/><line class="f" x1="498.24" y1="256.03" x2="498.24" y2="256.03"/><line class="f" x1="498.24" y1="256.03" x2="498.24" y2="256.03"/><line class="f" x1="498.24" y1="256.03" x2="498.24" y2="203.86"/><line class="f" x1="498.24" y1="203.86" x2="498.24" y2="203.86"/><rect class="d" x="402.94" y="251.86" width="86.95" height="15.65"/><line class="f" x1="402.94" y1="267.51" x2="489.89" y2="267.51"/><line class="f" x1="402.94" y1="251.86" x2="402.94" y2="267.51"/><line class="f" x1="489.89" y1="251.86" x2="402.94" y2="251.86"/><line class="f" x1="489.89" y1="267.51" x2="489.89" y2="251.86"/><line class="f" x1="407.46" y1="419.5" x2="407.46" y2="398.28"/><polygon class="g" points="448.85 97.78 448.85 90.82 494.07 90.82 498.24 90.82 498.24 97.78 448.85 97.78"/><rect x="391.46" y="520.36" width="22.26" height="6.96"/><rect x="292.34" y="177.77" width="6.96" height="6.96"/><rect x="294.95" y="526.81" width="6.95" height="0.51"/><polygon class="g" points="299.3 177.77 292.34 177.77 292.34 90.82 342.77 90.82 347.99 90.82 347.99 97.78 299.3 97.78 299.3 177.77"/><polygon class="g" points="294.95 527.32 294.95 520.36 325.38 520.36 325.38 527.32 320.17 527.32 294.95 527.32"/><rect x="450.59" y="97.78" width="47.65" height="6.96"/><polygon class="g" points="299.3 97.78 346.25 97.78 346.25 104.73 306.25 104.73 306.25 513.4 323.64 513.4 323.64 520.36 299.3 520.36 299.3 97.78"/><polygon class="g" points="292.34 340.89 292.34 184.73 294.95 184.73 294.95 527.32 292.34 527.32 292.34 340.89"/><polygon class="g" points="393.2 513.4 407.46 513.4 413.72 513.4 413.72 520.36 393.2 520.36 393.2 513.4"/><rect x="294.95" y="184.73" width="4.35" height="335.63"/><polygon class="g" points="399.12 332.55 489.89 332.55 489.89 330.81 498.24 330.81 498.24 332.55 498.24 340.89 407.46 340.89 407.46 513.4 399.12 513.4 399.12 332.55"/><polygon class="g" points="498.24 292.55 489.89 292.55 489.89 104.73 498.24 104.73 498.24 277.24 498.24 285.59 498.24 292.55"/><polygon class="g" points="360.16 325.59 362.6 325.59 362.6 332.55 365.2 332.55 365.2 334.98 362.6 334.98 362.6 354.11 306.25 354.11 306.25 351.68 360.16 351.68 360.16 325.59"/><rect x="396.51" y="267.51" width="93.38" height="2.43"/><rect x="494.24" y="292.55" width="4" height="1.74"/><rect x="494.24" y="329.07" width="4" height="1.74"/><rect x="396.51" y="332.55" width="2.61" height="2.43"/><polygon class="g" points="360.16 238.64 306.25 238.64 306.25 236.2 362.6 236.2 362.6 267.51 365.2 267.51 365.2 269.94 362.6 269.94 362.6 297.76 360.16 297.76 360.16 238.64"/><polygon class="g" points="350.6 342.11 360.16 342.11 360.16 344.72 353.21 344.72 353.21 351.68 350.6 351.68 350.6 342.11"/><polygon class="g" points="327.12 269.94 306.25 269.94 306.25 266.46 323.64 266.46 323.64 238.64 327.12 238.64 327.12 269.94"/><rect x="412.33" y="527.31" width="1.39" height="52.17"/><rect x="492.67" y="38.65" width="1.39" height="52.17"/><line class="f" x1="342.77" y1="90.82" x2="292.34" y2="90.82"/><line class="f" x1="347.99" y1="90.82" x2="342.77" y2="90.82"/><line class="f" x1="346.25" y1="104.73" x2="306.25" y2="104.73"/><line class="f" x1="306.25" y1="177.77" x2="306.25" y2="104.73"/><line class="f" x1="306.25" y1="104.73" x2="306.25" y2="236.2"/><line class="f" x1="306.25" y1="238.64" x2="306.25" y2="266.46"/><line class="f" x1="306.25" y1="269.94" x2="306.25" y2="351.67"/><line class="f" x1="306.25" y1="354.11" x2="306.25" y2="513.4"/><line class="f" x1="346.25" y1="104.73" x2="346.25" y2="97.78"/><line class="f" x1="448.85" y1="90.82" x2="494.07" y2="90.82"/><line class="f" x1="494.07" y1="90.82" x2="498.24" y2="90.82"/><line class="f" x1="450.59" y1="104.73" x2="489.89" y2="104.73"/><line class="f" x1="498.24" y1="104.73" x2="498.24" y2="104.73"/><line class="f" x1="391.46" y1="527.32" x2="413.72" y2="527.32"/><line class="f" x1="393.2" y1="513.4" x2="399.12" y2="513.4"/><line class="f" x1="407.46" y1="513.4" x2="413.72" y2="513.4"/><line class="f" x1="323.64" y1="513.4" x2="323.64" y2="520.36"/><line class="f" x1="301.91" y1="527.32" x2="320.17" y2="527.32"/><line class="f" x1="320.17" y1="527.32" x2="325.38" y2="527.32"/><line class="f" x1="450.59" y1="104.73" x2="450.59" y2="97.78"/><line class="f" x1="393.2" y1="513.4" x2="393.2" y2="520.36"/><line class="f" x1="323.64" y1="513.4" x2="306.25" y2="513.4"/><line class="f" x1="412.33" y1="527.32" x2="412.33" y2="579.49"/><line class="f" x1="413.72" y1="579.49" x2="412.33" y2="579.49"/><line class="f" x1="492.67" y1="38.65" x2="492.67" y2="90.82"/><line class="f" x1="494.07" y1="38.65" x2="492.67" y2="38.65"/><line class="f" x1="448.85" y1="97.78" x2="448.85" y2="90.82"/><line class="f" x1="450.59" y1="97.78" x2="448.85" y2="97.78"/><line class="f" x1="347.99" y1="97.78" x2="347.99" y2="90.82"/><line class="f" x1="346.25" y1="97.78" x2="347.99" y2="97.78"/><line class="f" x1="391.46" y1="520.36" x2="391.46" y2="527.32"/><line class="f" x1="393.2" y1="520.36" x2="391.46" y2="520.36"/><line class="f" x1="325.38" y1="520.36" x2="325.38" y2="527.32"/><line class="f" x1="325.38" y1="520.36" x2="323.64" y2="520.36"/><line class="f" x1="381.03" y1="104.73" x2="346.25" y2="104.73"/><line class="f" x1="346.25" y1="90.82" x2="346.25" y2="38.65"/><line class="f" x1="494.07" y1="38.65" x2="346.25" y2="38.65"/><line class="f" x1="450.59" y1="104.73" x2="381.03" y2="104.73"/><line class="f" x1="413.72" y1="579.49" x2="323.64" y2="579.49"/><line class="f" x1="323.64" y1="527.32" x2="323.64" y2="579.49"/><line class="f" x1="323.64" y1="513.4" x2="358.42" y2="513.4"/><line class="f" x1="358.42" y1="513.4" x2="358.42" y2="520.36"/><line class="f" x1="360.16" y1="520.36" x2="360.16" y2="527.32"/><line class="f" x1="325.38" y1="527.32" x2="360.16" y2="527.32"/><line class="f" x1="358.42" y1="513.4" x2="393.2" y2="513.4"/><line class="f" x1="360.16" y1="523.84" x2="391.46" y2="523.84"/><line class="f" x1="358.42" y1="517.58" x2="358.42" y2="520.36"/><line class="f" x1="361.21" y1="519.66" x2="361.21" y2="520.36"/><line class="f" x1="361.21" y1="520.36" x2="358.42" y2="520.36"/><line class="f" x1="358.42" y1="520.36" x2="358.42" y2="517.58"/><line class="f" x1="358.42" y1="517.58" x2="359.81" y2="517.58"/><line class="f" x1="359.81" y1="516.88" x2="362.6" y2="516.88"/><line class="f" x1="362.6" y1="516.88" x2="362.6" y2="519.66"/><line class="f" x1="362.6" y1="519.66" x2="359.81" y2="519.66"/><line class="f" x1="359.81" y1="519.66" x2="359.81" y2="516.88"/><line class="f" x1="390.42" y1="519.66" x2="390.42" y2="520.36"/><line class="f" x1="390.42" y1="520.36" x2="393.2" y2="520.36"/><line class="f" x1="393.2" y1="520.36" x2="393.2" y2="517.58"/><line class="f" x1="393.2" y1="517.58" x2="391.81" y2="517.58"/><line class="f" x1="391.81" y1="516.88" x2="389.03" y2="516.88"/><line class="f" x1="389.03" y1="516.88" x2="389.03" y2="519.66"/><line class="f" x1="389.03" y1="519.66" x2="391.81" y2="519.66"/><line class="f" x1="391.81" y1="519.66" x2="391.81" y2="516.88"/><line class="f" x1="362.6" y1="516.88" x2="389.03" y2="516.88"/><line class="f" x1="389.03" y1="519.66" x2="362.6" y2="519.66"/><line class="f" x1="362.6" y1="518.27" x2="389.03" y2="518.27"/><line class="f" x1="355.64" y1="519.66" x2="355.64" y2="520.36"/><line class="f" x1="355.64" y1="520.36" x2="358.42" y2="520.36"/><line class="f" x1="358.42" y1="520.36" x2="358.42" y2="517.58"/><line class="f" x1="358.42" y1="517.58" x2="357.03" y2="517.58"/><line class="f" x1="357.03" y1="516.88" x2="354.25" y2="516.88"/><line class="f" x1="354.25" y1="516.88" x2="354.25" y2="519.66"/><line class="f" x1="354.25" y1="519.66" x2="357.03" y2="519.66"/><line class="f" x1="357.03" y1="519.66" x2="357.03" y2="516.88"/><line class="f" x1="326.42" y1="519.66" x2="326.42" y2="520.36"/><line class="f" x1="326.42" y1="520.36" x2="323.64" y2="520.36"/><line class="f" x1="323.64" y1="520.36" x2="323.64" y2="517.58"/><line class="f" x1="323.64" y1="517.58" x2="325.03" y2="517.58"/><line class="f" x1="325.03" y1="516.88" x2="327.82" y2="516.88"/><line class="f" x1="327.82" y1="516.88" x2="327.82" y2="519.66"/><line class="f" x1="327.82" y1="519.66" x2="325.03" y2="519.66"/><line class="f" x1="325.03" y1="519.66" x2="325.03" y2="516.88"/><line class="f" x1="354.25" y1="516.88" x2="327.82" y2="516.88"/><line class="f" x1="327.82" y1="519.66" x2="354.25" y2="519.66"/><line class="f" x1="354.25" y1="518.27" x2="327.82" y2="518.27"/><line class="f" x1="448.85" y1="90.82" x2="379.29" y2="90.82"/><line class="f" x1="381.03" y1="104.73" x2="381.03" y2="97.78"/><line class="f" x1="379.29" y1="97.78" x2="379.29" y2="90.82"/><line class="f" x1="379.29" y1="94.3" x2="347.99" y2="94.3"/><line class="f" x1="378.25" y1="98.47" x2="378.25" y2="97.78"/><line class="f" x1="378.25" y1="97.78" x2="381.03" y2="97.78"/><line class="f" x1="381.03" y1="97.78" x2="381.03" y2="100.56"/><line class="f" x1="381.03" y1="100.56" x2="379.64" y2="100.56"/><line class="f" x1="379.64" y1="101.26" x2="376.86" y2="101.26"/><line class="f" x1="376.86" y1="101.26" x2="376.86" y2="98.47"/><line class="f" x1="376.86" y1="98.47" x2="379.64" y2="98.47"/><line class="f" x1="379.64" y1="98.47" x2="379.64" y2="101.26"/><line class="f" x1="347.64" y1="101.26" x2="350.42" y2="101.26"/><line class="f" x1="350.42" y1="101.26" x2="350.42" y2="98.47"/><line class="f" x1="350.42" y1="98.47" x2="347.64" y2="98.47"/><line class="f" x1="347.64" y1="98.47" x2="347.64" y2="101.26"/><line class="f" x1="376.86" y1="101.26" x2="350.42" y2="101.26"/><line class="f" x1="350.42" y1="98.47" x2="376.86" y2="98.47"/><line class="f" x1="376.86" y1="99.87" x2="350.42" y2="99.87"/><line class="f" x1="349.03" y1="98.47" x2="349.03" y2="97.78"/><line class="f" x1="349.03" y1="97.78" x2="346.25" y2="97.78"/><line class="f" x1="346.25" y1="97.78" x2="346.25" y2="100.56"/><line class="f" x1="346.25" y1="100.56" x2="347.64" y2="100.56"/><line class="f" x1="447.81" y1="98.47" x2="447.81" y2="97.78"/><line class="f" x1="447.81" y1="97.78" x2="450.59" y2="97.78"/><line class="f" x1="450.59" y1="97.78" x2="450.59" y2="100.56"/><line class="f" x1="450.59" y1="100.56" x2="449.2" y2="100.56"/><line class="f" x1="449.2" y1="101.26" x2="446.42" y2="101.26"/><line class="f" x1="446.42" y1="101.26" x2="446.42" y2="98.47"/><line class="f" x1="446.42" y1="98.47" x2="449.2" y2="98.47"/><line class="f" x1="449.2" y1="98.47" x2="449.2" y2="101.26"/><line class="f" x1="417.2" y1="98.47" x2="417.2" y2="97.78"/><line class="f" x1="417.2" y1="97.78" x2="414.42" y2="97.78"/><line class="f" x1="414.42" y1="97.78" x2="414.42" y2="100.56"/><line class="f" x1="414.42" y1="100.56" x2="415.81" y2="100.56"/><line class="f" x1="415.81" y1="101.26" x2="418.59" y2="101.26"/><line class="f" x1="418.59" y1="101.26" x2="418.59" y2="98.47"/><line class="f" x1="418.59" y1="98.47" x2="415.81" y2="98.47"/><line class="f" x1="415.81" y1="98.47" x2="415.81" y2="101.26"/><line class="f" x1="446.42" y1="101.26" x2="418.59" y2="101.26"/><line class="f" x1="418.59" y1="98.47" x2="446.42" y2="98.47"/><line class="f" x1="446.42" y1="99.87" x2="418.59" y2="99.87"/><line class="f" x1="381.03" y1="100.56" x2="383.81" y2="100.56"/><line class="f" x1="383.81" y1="100.56" x2="383.81" y2="97.78"/><line class="f" x1="383.81" y1="97.78" x2="381.03" y2="97.78"/><line class="f" x1="381.03" y1="97.78" x2="381.03" y2="100.56"/><line class="f" x1="383.81" y1="100.56" x2="414.42" y2="100.56"/><line class="f" x1="383.81" y1="99.17" x2="414.42" y2="99.17"/><line class="f" x1="383.81" y1="97.78" x2="414.42" y2="97.78"/><line class="f" x1="306.25" y1="266.46" x2="306.25" y2="269.94"/><line class="f" x1="489.89" y1="104.73" x2="489.89" y2="267.51"/><line class="f" x1="489.89" y1="269.94" x2="489.89" y2="292.55"/><line class="f" x1="498.24" y1="104.73" x2="498.24" y2="277.25"/><line class="f" x1="489.89" y1="332.55" x2="399.12" y2="332.55"/><line class="f" x1="399.12" y1="334.98" x2="399.12" y2="513.4"/><line class="f" x1="407.46" y1="398.28" x2="407.46" y2="513.4"/><line class="f" x1="489.89" y1="330.81" x2="489.89" y2="332.55"/><line class="f" x1="498.24" y1="285.59" x2="498.24" y2="292.55"/><line class="f" x1="498.24" y1="330.81" x2="498.24" y2="332.55"/><line class="f" x1="498.24" y1="285.59" x2="498.24" y2="285.59"/><line class="f" x1="498.24" y1="277.24" x2="498.24" y2="277.24"/><line class="f" x1="498.24" y1="332.55" x2="498.24" y2="332.55"/><line class="f" x1="498.24" y1="340.89" x2="442.24" y2="340.89"/><line class="f" x1="494.24" y1="294.29" x2="498.24" y2="294.29"/><line class="f" x1="494.24" y1="329.07" x2="498.24" y2="329.07"/><line class="f" x1="494.24" y1="329.07" x2="494.24" y2="330.81"/><line class="f" x1="494.24" y1="294.29" x2="494.24" y2="292.55"/><line class="f" x1="494.24" y1="292.55" x2="489.89" y2="292.55"/><line class="f" x1="494.24" y1="330.81" x2="489.89" y2="330.81"/><line class="f" x1="498.24" y1="329.07" x2="498.24" y2="330.81"/><line class="f" x1="498.24" y1="292.55" x2="498.24" y2="294.29"/><line class="f" x1="442.24" y1="340.89" x2="438.77" y2="340.89"/><line class="f" x1="362.6" y1="236.2" x2="362.6" y2="267.51"/><line class="f" x1="362.6" y1="269.94" x2="362.6" y2="297.77"/><line class="f" x1="360.16" y1="238.64" x2="360.16" y2="297.76"/><line class="f" x1="306.25" y1="236.2" x2="362.6" y2="236.2"/><line class="f" x1="489.89" y1="269.94" x2="396.51" y2="269.94"/><line class="f" x1="365.21" y1="269.94" x2="362.6" y2="269.94"/><line class="f" x1="489.89" y1="267.51" x2="396.51" y2="267.51"/><line class="f" x1="365.21" y1="267.51" x2="362.6" y2="267.51"/><line class="f" x1="396.51" y1="267.51" x2="396.51" y2="269.94"/><line class="f" x1="365.21" y1="267.51" x2="365.21" y2="269.94"/><line class="f" x1="362.6" y1="325.59" x2="362.6" y2="332.55"/><line class="f" x1="362.6" y1="334.98" x2="362.6" y2="354.11"/><line class="f" x1="360.16" y1="325.59" x2="360.16" y2="342.11"/><line class="f" x1="360.16" y1="344.72" x2="360.16" y2="351.68"/><line class="f" x1="306.25" y1="354.11" x2="362.6" y2="354.11"/><line class="f" x1="362.6" y1="334.98" x2="365.21" y2="334.98"/><line class="f" x1="396.51" y1="334.98" x2="399.12" y2="334.98"/><line class="f" x1="306.25" y1="351.68" x2="350.6" y2="351.68"/><line class="f" x1="353.21" y1="351.68" x2="360.16" y2="351.68"/><line class="f" x1="362.6" y1="332.55" x2="365.21" y2="332.55"/><line class="f" x1="396.51" y1="332.55" x2="399.12" y2="332.55"/><line class="f" x1="327.12" y1="238.64" x2="360.16" y2="238.64"/><line class="f" x1="396.51" y1="332.55" x2="396.51" y2="334.98"/><line class="f" x1="365.21" y1="332.55" x2="365.21" y2="334.98"/><line class="f" x1="362.6" y1="325.59" x2="360.16" y2="325.59"/><line class="f" x1="362.6" y1="297.77" x2="360.16" y2="297.77"/><line class="f" x1="391.81" y1="516.88" x2="391.81" y2="484.88"/><g class="h"><path class="f" d="M359.81,516.88a32,32,0,0,1,32-32"/><path class="f" d="M446.76,484.88a32,32,0,0,1,32,32"/></g><line class="f" x1="347.64" y1="101.26" x2="347.64" y2="133.25"/><g class="h"><path class="f" d="M379.64,101.26a32,32,0,0,1-32,32"/></g><line class="f" x1="327.47" y1="235.86" x2="327.47" y2="214.99"/><line class="f" x1="327.47" y1="214.99" x2="306.6" y2="214.99"/><line class="f" x1="306.25" y1="236.2" x2="327.47" y2="236.2"/><line class="f" x1="327.47" y1="236.2" x2="327.47" y2="104.74"/><line class="f" x1="327.47" y1="104.73" x2="306.25" y2="104.73"/><line class="f" x1="306.25" y1="104.73" x2="306.25" y2="236.2"/><line class="f" x1="407.46" y1="398.28" x2="407.46" y2="419.5"/><line class="f" x1="314.58" y1="113.06" x2="319.49" y2="117.98"/><line class="f" x1="319.5" y1="113.06" x2="314.58" y2="117.98"/><line class="f" x1="317.04" y1="118.99" x2="317.04" y2="112.04"/><line class="f" x1="313.56" y1="115.52" x2="320.51" y2="115.52"/><line class="f" x1="327.47" y1="105.08" x2="327.47" y2="125.95"/><line class="f" x1="306.6" y1="125.95" x2="327.47" y2="125.95"/><line class="f" x1="325.73" y1="214.12" x2="325.73" y2="194.99"/><line class="f" x1="325.73" y1="194.99" x2="308.34" y2="194.99"/><line class="f" x1="308.34" y1="194.99" x2="308.34" y2="214.12"/><line class="f" x1="308.34" y1="214.12" x2="325.73" y2="214.12"/><line class="f" x1="327.47" y1="214.99" x2="327.47" y2="194.12"/><line class="f" x1="323.99" y1="212.38" x2="323.99" y2="196.73"/><line class="f" x1="323.99" y1="196.73" x2="311.82" y2="196.73"/><line class="f" x1="311.82" y1="196.73" x2="311.82" y2="212.38"/><line class="f" x1="311.82" y1="212.38" x2="323.99" y2="212.38"/><g class="h"><path class="f" d="M316,204.55a.7.7,0,1,0-.69.7.69.69,0,0,0,.69-.7"/><path class="f" d="M315.33,156.29a3.42,3.42,0,1,0-3.42,3.41,3.42,3.42,0,0,0,3.42-3.41"/></g><line class="f" x1="306.6" y1="161.6" x2="327.47" y2="161.6"/><line class="f" x1="327.47" y1="161.6" x2="327.47" y2="140.73"/><line class="f" x1="327.47" y1="140.73" x2="306.6" y2="140.73"/><g class="h"><path class="f" d="M325.57,156.29a3.42,3.42,0,1,0-3.41,3.41,3.42,3.42,0,0,0,3.41-3.41"/><path class="f" d="M325.57,146a3.42,3.42,0,1,0-3.41,3.42,3.41,3.41,0,0,0,3.41-3.42"/></g><line class="f" x1="328.42" y1="143.58" x2="328.42" y2="158.76"/><g class="h"><path class="f" d="M418.94,407.32a.7.7,0,1,0-.7.7.69.69,0,0,0,.7-.7"/><path class="f" d="M472.33,405.24a3.13,3.13,0,1,0-3.13,3.13,3.13,3.13,0,0,0,3.13-3.13"/><path class="f" d="M472.33,414.63a3.13,3.13,0,1,0-3.13,3.13,3.13,3.13,0,0,0,3.13-3.13"/><path class="f" d="M481.72,414.63a3.13,3.13,0,1,0-3.13,3.13,3.13,3.13,0,0,0,3.13-3.13"/></g><line class="f" x1="498.24" y1="235.16" x2="498.24" y2="235.16"/><line class="f" x1="498.24" y1="235.16" x2="498.24" y2="256.03"/><line class="f" x1="498.24" y1="256.03" x2="498.24" y2="256.03"/><line class="f" x1="498.24" y1="203.86" x2="498.24" y2="203.86"/><line class="f" x1="498.24" y1="203.86" x2="498.24" y2="277.24"/><line class="f" x1="498.24" y1="277.24" x2="498.24" y2="277.24"/><g class="h"><path class="f" d="M417.9,366.11a.87.87,0,1,0-.87.87.87.87,0,0,0,.87-.87"/><path class="f" d="M437.9,362.63a3.47,3.47,0,0,1,3.47,3.48"/><path class="f" d="M441.37,387a3.47,3.47,0,0,1-3.47,3.47"/><path class="f" d="M413.55,366.11a3.48,3.48,0,0,1,3.48-3.48"/><path class="f" d="M417,390.46a3.48,3.48,0,0,1-3.48-3.48"/><path class="f" d="M334.08,244.73a.87.87,0,1,0-.87.86.86.86,0,0,0,.87-.86"/></g><line class="f" x1="327.99" y1="270.81" x2="359.29" y2="270.81"/><line class="f" x1="359.29" y1="270.81" x2="359.29" y2="239.51"/><line class="f" x1="359.29" y1="239.51" x2="327.99" y2="239.51"/><line class="f" x1="327.99" y1="239.51" x2="327.99" y2="270.81"/><line class="f" x1="333.21" y1="269.07" x2="354.08" y2="269.07"/><line class="f" x1="357.55" y1="265.59" x2="357.55" y2="244.73"/><line class="f" x1="354.08" y1="241.25" x2="333.21" y2="241.25"/><line class="f" x1="329.73" y1="244.73" x2="329.73" y2="265.59"/><g class="h"><path class="f" d="M333.21,269.07a3.48,3.48,0,0,1-3.48-3.48"/><path class="f" d="M357.55,265.59a3.47,3.47,0,0,1-3.47,3.48"/><path class="f" d="M329.73,244.73a3.48,3.48,0,0,1,3.48-3.48"/><path class="f" d="M354.08,241.25a3.47,3.47,0,0,1,3.47,3.48"/></g><line class="f" x1="311.47" y1="351.68" x2="311.47" y2="269.94"/><line class="f" x1="359.29" y1="273.42" x2="355.82" y2="273.42"/><line class="f" x1="355.81" y1="273.42" x2="355.81" y2="294.29"/><line class="f" x1="355.81" y1="294.29" x2="359.29" y2="294.29"/><line class="f" x1="359.29" y1="294.29" x2="359.29" y2="293.24"/><line class="f" x1="359.29" y1="293.24" x2="356.86" y2="293.24"/><line class="f" x1="356.86" y1="293.24" x2="356.86" y2="274.46"/><line class="f" x1="356.86" y1="274.46" x2="359.29" y2="274.46"/><line class="f" x1="359.29" y1="274.46" x2="359.29" y2="273.42"/><line class="f" x1="359.29" y1="273.42" x2="355.82" y2="273.42"/><line class="f" x1="359.29" y1="294.29" x2="355.82" y2="294.29"/><line class="f" x1="359.29" y1="274.46" x2="356.86" y2="274.46"/><line class="f" x1="359.29" y1="293.24" x2="356.86" y2="293.24"/><line class="f" x1="355.81" y1="273.42" x2="355.81" y2="294.29"/><line class="f" x1="356.86" y1="273.42" x2="356.86" y2="294.29"/><line class="f" x1="359.29" y1="273.42" x2="359.29" y2="274.46"/><line class="f" x1="359.29" y1="293.24" x2="359.29" y2="294.29"/><line class="f" x1="333.21" y1="328.03" x2="333.21" y2="348.89"/><line class="f" x1="333.21" y1="348.89" x2="312.34" y2="348.89"/><line class="f" x1="312.34" y1="348.89" x2="312.34" y2="328.03"/><line class="f" x1="312.34" y1="328.03" x2="333.21" y2="328.03"/><g class="h"><path class="f" d="M328.86,338.46a6.09,6.09,0,1,0-6.09,6.09,6.09,6.09,0,0,0,6.09-6.09"/><path class="f" d="M327.82,338.46a5,5,0,1,0-5.05,5,5,5,0,0,0,5.05-5"/></g><line class="f" x1="323.64" y1="266.46" x2="323.64" y2="269.94"/><line class="f" x1="323.64" y1="238.64" x2="306.25" y2="238.64"/><line class="f" x1="327.12" y1="269.94" x2="306.25" y2="269.94"/><line class="f" x1="327.12" y1="269.94" x2="327.12" y2="238.64"/><line class="f" x1="323.64" y1="266.46" x2="323.64" y2="238.64"/><line class="f" x1="442.24" y1="340.89" x2="438.77" y2="340.89"/><line class="f" x1="438.77" y1="340.89" x2="407.46" y2="340.89"/><line class="f" x1="407.46" y1="340.89" x2="407.46" y2="356.54"/><line class="f" x1="360.16" y1="344.72" x2="360.16" y2="351.68"/><line class="f" x1="353.21" y1="351.68" x2="360.16" y2="351.68"/><line class="f" x1="360.16" y1="342.11" x2="350.6" y2="342.11"/><line class="f" x1="350.6" y1="342.11" x2="350.6" y2="351.67"/><line class="f" x1="360.16" y1="344.72" x2="353.21" y2="344.72"/><line class="f" x1="353.21" y1="344.72" x2="353.21" y2="351.68"/><line class="f" x1="394.77" y1="334.98" x2="366.94" y2="334.98"/><line class="f" x1="394.77" y1="334.98" x2="394.77" y2="362.8"/><g class="h"><path class="f" d="M394.77,362.8A27.82,27.82,0,0,1,366.94,335"/></g><line class="f" x1="394.77" y1="332.55" x2="394.77" y2="334.98"/><line class="f" x1="366.94" y1="334.98" x2="366.94" y2="332.55"/><line class="f" x1="366.94" y1="334.98" x2="365.21" y2="334.98"/><line class="f" x1="366.94" y1="332.55" x2="365.21" y2="332.55"/><line class="f" x1="396.51" y1="334.98" x2="394.77" y2="334.98"/><line class="f" x1="396.51" y1="332.55" x2="394.77" y2="332.55"/><line class="f" x1="394.77" y1="332.55" x2="387.81" y2="332.55"/><line class="f" x1="383.99" y1="332.55" x2="383.2" y2="332.55"/><line class="f" x1="379.38" y1="332.55" x2="378.6" y2="332.55"/><line class="f" x1="374.77" y1="332.55" x2="373.9" y2="332.55"/><line class="f" x1="373.9" y1="332.55" x2="366.94" y2="332.55"/><line class="f" x1="394.77" y1="334.98" x2="394.77" y2="335.85"/><line class="f" x1="394.77" y1="335.85" x2="398.25" y2="335.85"/><line class="f" x1="398.25" y1="335.85" x2="398.25" y2="334.98"/><line class="f" x1="394.77" y1="332.55" x2="394.77" y2="331.68"/><line class="f" x1="394.77" y1="331.68" x2="398.25" y2="331.68"/><line class="f" x1="398.25" y1="331.68" x2="398.25" y2="332.55"/><line class="f" x1="366.94" y1="335.85" x2="363.47" y2="335.85"/><line class="f" x1="363.47" y1="335.85" x2="363.47" y2="334.98"/><line class="f" x1="366.94" y1="332.55" x2="366.94" y2="331.68"/><line class="f" x1="366.94" y1="331.68" x2="363.47" y2="331.68"/><line class="f" x1="363.47" y1="331.68" x2="363.47" y2="332.55"/><line class="f" x1="366.94" y1="267.51" x2="394.77" y2="267.51"/><line class="f" x1="366.94" y1="267.51" x2="366.94" y2="239.68"/><g class="h"><path class="f" d="M366.94,239.68a27.83,27.83,0,0,1,27.83,27.83"/></g><line class="f" x1="366.94" y1="269.94" x2="366.94" y2="267.51"/><line class="f" x1="394.77" y1="267.51" x2="394.77" y2="269.94"/><line class="f" x1="394.77" y1="267.51" x2="396.51" y2="267.51"/><line class="f" x1="394.77" y1="269.94" x2="396.51" y2="269.94"/><line class="f" x1="365.21" y1="267.51" x2="366.94" y2="267.51"/><line class="f" x1="365.21" y1="269.94" x2="366.94" y2="269.94"/><line class="f" x1="366.94" y1="269.94" x2="373.9" y2="269.94"/><line class="f" x1="377.73" y1="269.94" x2="378.51" y2="269.94"/><line class="f" x1="382.33" y1="269.94" x2="383.12" y2="269.94"/><line class="f" x1="386.94" y1="269.94" x2="387.81" y2="269.94"/><line class="f" x1="387.81" y1="269.94" x2="394.77" y2="269.94"/><line class="f" x1="366.94" y1="267.51" x2="366.94" y2="266.64"/><line class="f" x1="366.94" y1="266.64" x2="363.47" y2="266.64"/><line class="f" x1="363.47" y1="266.64" x2="363.47" y2="267.51"/><line class="f" x1="366.94" y1="269.94" x2="366.94" y2="270.81"/><line class="f" x1="366.94" y1="270.81" x2="363.47" y2="270.81"/><line class="f" x1="363.47" y1="270.81" x2="363.47" y2="269.94"/><line class="f" x1="394.77" y1="266.64" x2="398.25" y2="266.64"/><line class="f" x1="398.25" y1="266.64" x2="398.25" y2="267.51"/><line class="f" x1="394.77" y1="269.94" x2="394.77" y2="270.81"/><line class="f" x1="394.77" y1="270.81" x2="398.25" y2="270.81"/><line class="f" x1="398.25" y1="270.81" x2="398.25" y2="269.94"/><line class="f" x1="494.24" y1="327.33" x2="494.24" y2="296.03"/><line class="f" x1="498.24" y1="327.33" x2="498.24" y2="296.03"/><line class="f" x1="494.24" y1="327.33" x2="462.94" y2="327.33"/><g class="h"><path class="f" d="M462.94,327.33a31.3,31.3,0,0,1,31.3-31.3"/></g><line class="f" x1="498.24" y1="327.33" x2="494.24" y2="327.33"/><line class="f" x1="494.24" y1="296.03" x2="498.24" y2="296.03"/><line class="f" x1="494.24" y1="296.03" x2="494.24" y2="294.29"/><line class="f" x1="498.24" y1="296.03" x2="498.24" y2="294.29"/><line class="f" x1="494.24" y1="329.07" x2="494.24" y2="327.33"/><line class="f" x1="498.24" y1="329.07" x2="498.24" y2="327.33"/><line class="f" x1="362.6" y1="323.85" x2="362.6" y2="299.51"/><line class="f" x1="362.6" y1="323.85" x2="386.94" y2="323.85"/><g class="h"><path class="f" d="M362.6,299.51a24.34,24.34,0,0,1,24.34,24.34"/></g><line class="f" x1="360.16" y1="323.85" x2="362.6" y2="323.85"/><line class="f" x1="362.6" y1="299.51" x2="360.16" y2="299.51"/><line class="f" x1="362.6" y1="299.51" x2="362.6" y2="297.77"/><line class="f" x1="360.16" y1="299.51" x2="360.16" y2="297.77"/><line class="f" x1="362.6" y1="325.59" x2="362.6" y2="323.85"/><line class="f" x1="360.16" y1="325.59" x2="360.16" y2="323.85"/><line class="f" x1="360.16" y1="323.85" x2="360.16" y2="316.89"/><line class="f" x1="360.16" y1="313.07" x2="360.16" y2="312.29"/><line class="f" x1="360.16" y1="308.46" x2="360.16" y2="307.68"/><line class="f" x1="360.16" y1="306.46" x2="360.16" y2="299.5"/><line class="f" x1="362.6" y1="323.85" x2="363.47" y2="323.85"/><line class="f" x1="363.47" y1="323.85" x2="363.47" y2="327.33"/><line class="f" x1="363.47" y1="327.33" x2="362.6" y2="327.33"/><line class="f" x1="360.16" y1="323.85" x2="359.29" y2="323.85"/><line class="f" x1="359.29" y1="323.85" x2="359.29" y2="327.33"/><line class="f" x1="359.29" y1="327.33" x2="360.16" y2="327.33"/><line class="f" x1="363.47" y1="299.51" x2="363.47" y2="296.03"/><line class="f" x1="363.47" y1="296.03" x2="362.6" y2="296.03"/><line class="f" x1="360.16" y1="299.51" x2="359.29" y2="299.51"/><line class="f" x1="359.29" y1="299.51" x2="359.29" y2="296.03"/><line class="f" x1="359.29" y1="296.03" x2="360.16" y2="296.03"/><g class="h"><path class="f" d="M493.72,389.59a24.35,24.35,0,0,1,24.35-24.35"/><path class="f" d="M488.33,509.93a1.74,1.74,0,1,0-1.74,1.73,1.74,1.74,0,0,0,1.74-1.73"/></g><line class="f" x1="327.12" y1="511.66" x2="354.95" y2="511.66"/><line class="f" x1="354.94" y1="511.66" x2="354.94" y2="509.47"/><line class="f" x1="354.94" y1="509.47" x2="327.12" y2="509.47"/><line class="f" x1="327.12" y1="509.47" x2="327.12" y2="511.66"/><line class="f" x1="434.94" y1="106.47" x2="386.25" y2="106.47"/><line class="f" x1="386.25" y1="106.47" x2="386.25" y2="109.95"/><line class="f" x1="386.25" y1="109.95" x2="434.94" y2="109.95"/><line class="f" x1="434.94" y1="109.95" x2="434.94" y2="106.47"/><g class="h"><path class="f" d="M440.16,108.21a1.74,1.74,0,1,0-1.74,1.74,1.74,1.74,0,0,0,1.74-1.74"/><path class="f" d="M325.38,510.57a1.74,1.74,0,1,0-1.74,1.74,1.74,1.74,0,0,0,1.74-1.74"/></g><line class="f" x1="327.12" y1="266.46" x2="306.25" y2="266.46"/><line class="f" x1="379.29" y1="90.82" x2="372.34" y2="90.82"/><line class="f" x1="368.51" y1="90.82" x2="367.73" y2="90.82"/><line class="f" x1="363.9" y1="90.82" x2="363.12" y2="90.82"/><line class="f" x1="359.29" y1="90.82" x2="354.95" y2="90.82"/><line class="f" x1="354.94" y1="90.82" x2="347.99" y2="90.82"/><line class="f" x1="391.46" y1="527.32" x2="384.51" y2="527.32"/><line class="f" x1="380.68" y1="527.32" x2="379.9" y2="527.32"/><line class="f" x1="376.07" y1="527.32" x2="375.29" y2="527.32"/><line class="f" x1="371.47" y1="527.32" x2="367.12" y2="527.32"/><line class="f" x1="367.12" y1="527.32" x2="360.16" y2="527.32"/><line class="f" x1="306.25" y1="266.46" x2="323.64" y2="266.46"/><line class="f" x1="323.64" y1="266.46" x2="323.64" y2="238.64"/><line class="f" x1="323.64" y1="238.64" x2="320.17" y2="262.99"/><line class="f" x1="320.17" y1="262.99" x2="306.25" y2="266.46"/><rect class="d" x="433.15" y="148.21" width="17.39" height="27.82"/><line class="f" x1="433.15" y1="176.03" x2="450.54" y2="176.03"/><line class="f" x1="433.15" y1="148.21" x2="433.15" y2="176.03"/><line class="f" x1="450.54" y1="148.21" x2="433.15" y2="148.21"/><line class="f" x1="450.54" y1="176.03" x2="450.54" y2="148.21"/><line class="f" x1="494.41" y1="340.89" x2="442.24" y2="340.89"/><rect class="d" x="306.25" y="269.94" width="5.22" height="81.73"/><line class="f" x1="306.25" y1="351.68" x2="311.47" y2="351.68"/><line class="f" x1="306.25" y1="269.94" x2="306.25" y2="351.67"/><line class="f" x1="311.47" y1="269.94" x2="306.25" y2="269.94"/><line class="f" x1="311.47" y1="351.68" x2="311.47" y2="269.94"/><rect class="d" x="356.86" y="293.25" width="2.44" height="1.04"/><line class="f" x1="359.29" y1="293.24" x2="356.86" y2="293.24"/><line class="f" x1="359.29" y1="294.29" x2="359.29" y2="293.24"/><line class="f" x1="356.86" y1="294.29" x2="359.29" y2="294.29"/><line class="f" x1="356.86" y1="293.24" x2="356.86" y2="294.29"/><rect class="d" x="355.81" y="273.42" width="1.04" height="20.87"/><line class="f" x1="355.81" y1="273.42" x2="355.81" y2="294.29"/><line class="f" x1="356.86" y1="273.42" x2="355.81" y2="273.42"/><line class="f" x1="356.86" y1="294.29" x2="356.86" y2="273.42"/><line class="f" x1="355.81" y1="294.29" x2="356.86" y2="294.29"/><rect class="d" x="356.86" y="273.42" width="2.44" height="1.04"/><line class="f" x1="356.86" y1="273.42" x2="356.86" y2="274.46"/><line class="f" x1="359.29" y1="273.42" x2="356.86" y2="273.42"/><line class="f" x1="359.29" y1="274.46" x2="359.29" y2="273.42"/><line class="f" x1="356.86" y1="274.46" x2="359.29" y2="274.46"/><rect class="d" x="386.25" y="106.47" width="48.69" height="3.48"/><line class="f" x1="386.25" y1="109.95" x2="434.94" y2="109.95"/><line class="f" x1="386.25" y1="106.47" x2="386.25" y2="109.95"/><line class="f" x1="434.94" y1="106.47" x2="386.25" y2="106.47"/><line class="f" x1="434.94" y1="109.95" x2="434.94" y2="106.47"/><polygon class="i" points="440.16 108.21 439.65 109.44 438.42 109.95 437.19 109.44 436.68 108.21 437.19 106.98 438.42 106.47 439.65 106.98 440.16 108.21"/><g class="h"><path class="f" d="M440.16,108.21a1.74,1.74,0,0,1-3.48,0"/><path class="f" d="M436.68,108.21a1.74,1.74,0,0,1,3.48,0"/></g><polygon class="i" points="325.38 510.57 324.87 511.8 323.64 512.31 322.42 511.8 321.9 510.57 322.42 509.34 323.64 508.83 324.87 509.34 325.38 510.57"/><g class="h"><path class="f" d="M325.38,510.57a1.74,1.74,0,1,1-3.48,0"/><path class="f" d="M321.9,510.57a1.74,1.74,0,0,1,3.48,0"/></g><rect class="d" x="327.12" y="509.47" width="27.82" height="2.19"/><line class="f" x1="327.12" y1="509.47" x2="327.12" y2="511.66"/><line class="f" x1="354.94" y1="509.47" x2="327.12" y2="509.47"/><line class="f" x1="354.94" y1="511.66" x2="354.94" y2="509.47"/><line class="f" x1="327.12" y1="511.66" x2="354.95" y2="511.66"/><g class="h"><path class="f" d="M488.33,509.93a1.74,1.74,0,0,1-3.48,0"/><path class="f" d="M484.85,509.93a1.74,1.74,0,0,1,3.48,0"/></g><polygon class="i" points="375.86 166.64 371.95 159.91 370.68 158.63 368.94 158.16 367.2 158.63 361.17 162.09 359.9 163.36 359.44 165.1 359.9 166.84 363.81 173.58 366.01 170.7 368.9 168.5 372.25 167.11 375.86 166.64"/><polygon class="i" points="387.95 187.52 395.74 187.53 397.48 187.07 398.75 185.8 399.22 184.06 399.21 177.11 398.74 175.37 397.46 174.09 395.72 173.63 387.93 173.61 389.33 176.97 389.81 180.57 389.34 184.17 387.95 187.52"/><polygon class="i" points="363.83 187.48 359.95 194.21 359.48 195.94 359.95 197.68 361.23 198.96 367.26 202.44 369.01 202.91 370.75 202.45 372.02 201.18 375.9 194.45 372.3 193.97 368.94 192.58 366.05 190.36 363.83 187.48"/><polygon class="i" points="363.81 173.58 366.02 170.7 368.9 168.5 372.25 167.11 375.86 166.64 379.46 167.12 382.83 168.52 385.71 170.73 387.93 173.61 389.33 176.97 389.81 180.57 389.34 184.17 387.95 187.52 385.75 190.4 382.86 192.6 379.51 193.98 375.9 194.45 372.3 193.97 368.93 192.58 366.05 190.36 363.83 187.48 362.43 184.13 361.95 180.53 362.42 176.93 363.81 173.58"/><line class="f" x1="363.81" y1="173.58" x2="366.02" y2="170.7"/><line class="f" x1="366.02" y1="170.7" x2="368.9" y2="168.49"/><line class="f" x1="368.9" y1="168.49" x2="372.26" y2="167.11"/><line class="f" x1="372.26" y1="167.11" x2="375.86" y2="166.64"/><line class="f" x1="375.86" y1="166.64" x2="379.46" y2="167.12"/><line class="f" x1="379.47" y1="167.12" x2="382.83" y2="168.52"/><line class="f" x1="382.83" y1="168.52" x2="385.72" y2="170.73"/><line class="f" x1="385.72" y1="170.73" x2="387.93" y2="173.61"/><line class="f" x1="387.93" y1="173.61" x2="389.33" y2="176.97"/><line class="f" x1="389.33" y1="176.97" x2="389.81" y2="180.57"/><line class="f" x1="389.81" y1="180.57" x2="389.34" y2="184.17"/><line class="f" x1="389.34" y1="184.17" x2="387.96" y2="187.52"/><line class="f" x1="387.95" y1="187.52" x2="385.75" y2="190.39"/><line class="f" x1="385.75" y1="190.39" x2="382.86" y2="192.6"/><line class="f" x1="382.86" y1="192.6" x2="379.51" y2="193.98"/><line class="f" x1="379.51" y1="193.98" x2="375.9" y2="194.45"/><line class="f" x1="375.9" y1="194.45" x2="372.3" y2="193.97"/><line class="f" x1="372.3" y1="193.97" x2="368.93" y2="192.58"/><line class="f" x1="368.93" y1="192.58" x2="366.05" y2="190.36"/><line class="f" x1="366.05" y1="190.36" x2="363.83" y2="187.48"/><line class="f" x1="363.83" y1="187.48" x2="362.43" y2="184.13"/><line class="f" x1="362.43" y1="184.13" x2="361.95" y2="180.53"/><line class="f" x1="361.95" y1="180.53" x2="362.42" y2="176.93"/><line class="f" x1="362.42" y1="176.93" x2="363.81" y2="173.58"/><g class="h"><path class="f" d="M382.83,168.52h0a13.89,13.89,0,1,1-13.89,24.06"/><path class="f" d="M368.94,192.58h0a13.89,13.89,0,1,1,13.89-24.06"/></g><line class="f" x1="368.07" y1="160.13" x2="362.04" y2="163.6"/><line class="f" x1="359.9" y1="166.84" x2="363.81" y2="173.58"/><line class="f" x1="367.2" y1="158.63" x2="361.17" y2="162.09"/><line class="f" x1="375.86" y1="166.64" x2="371.96" y2="159.91"/><line class="f" x1="397.48" y1="184.06" x2="397.47" y2="177.1"/><line class="f" x1="395.72" y1="173.63" x2="387.93" y2="173.61"/><line class="f" x1="399.22" y1="184.06" x2="399.21" y2="177.11"/><line class="f" x1="387.95" y1="187.52" x2="395.74" y2="187.53"/><line class="f" x1="362.1" y1="197.45" x2="368.13" y2="200.94"/><line class="f" x1="372.02" y1="201.18" x2="375.9" y2="194.45"/><line class="f" x1="361.23" y1="198.96" x2="367.26" y2="202.44"/><line class="f" x1="363.83" y1="187.48" x2="359.95" y2="194.21"/><g class="h"><path class="f" d="M361.41,166a1.73,1.73,0,0,1,.63-2.37"/><path class="f" d="M368.07,160.13a1.74,1.74,0,0,1,1.74,0,1.78,1.78,0,0,1,.64.64"/><path class="f" d="M359.9,166.84a3.49,3.49,0,0,1,0-3.48,3.44,3.44,0,0,1,1.27-1.27"/><path class="f" d="M367.2,158.63a3.49,3.49,0,0,1,3.48,0,3.57,3.57,0,0,1,1.28,1.28"/><path class="f" d="M395.72,175.36a1.65,1.65,0,0,1,.87.24,1.76,1.76,0,0,1,.88,1.5"/><path class="f" d="M397.48,184.06a1.7,1.7,0,0,1-.24.87,1.74,1.74,0,0,1-1.5.86"/><path class="f" d="M395.72,173.62a3.55,3.55,0,0,1,1.74.47,3.49,3.49,0,0,1,1.75,3"/><path class="f" d="M399.22,184.06a3.48,3.48,0,0,1-3.48,3.47"/><path class="f" d="M370.51,200.31h0a1.74,1.74,0,0,1-2.38.63"/><path class="f" d="M362.1,197.45h0a1.73,1.73,0,0,1-.64-2.37"/><path class="f" d="M372,201.18h0a3.49,3.49,0,0,1-4.76,1.26"/><path class="f" d="M361.23,199h0a3.48,3.48,0,0,1-1.28-4.75"/></g><polygon class="i" points="487.06 111.69 429.67 111.69 429.67 112.73 429.37 112 428.63 111.69 410.54 111.69 407.88 112.22 405.62 113.73 404.11 115.98 403.58 118.65 403.58 134.3 404.11 136.96 405.62 139.22 407.88 140.72 410.54 141.25 428.63 141.25 429.37 141.15 429.71 140.49 430.08 141.04 430.71 141.25 456.45 141.25 457.19 140.95 457.5 140.21 457.81 140.94 458.54 141.25 457.8 141.56 457.5 142.3 457.5 169.77 457.8 170.51 458.54 170.82 457.8 171.12 457.5 171.86 457.5 194.12 457.46 194.6 457.73 195.01 458.19 195.16 457.7 195.37 457.5 195.86 457.5 196.9 457.96 198.64 459.23 199.91 460.97 200.38 486.36 200.38 486.85 200.18 487.06 199.69 487.06 111.69"/><line class="f" x1="457.49" y1="195.86" x2="457.49" y2="196.9"/><line class="f" x1="460.97" y1="200.38" x2="486.36" y2="200.38"/><line class="f" x1="487.06" y1="199.68" x2="487.06" y2="195.86"/><line class="f" x1="486.36" y1="195.16" x2="458.19" y2="195.16"/><line class="f" x1="487.06" y1="195.86" x2="487.06" y2="170.82"/><line class="f" x1="487.06" y1="170.82" x2="484.62" y2="170.82"/><line class="f" x1="478.06" y1="170.82" x2="475.97" y2="170.82"/><line class="f" x1="457.49" y1="171.86" x2="457.49" y2="194.12"/><line class="f" x1="458.54" y1="195.16" x2="475.97" y2="195.16"/><line class="f" x1="475.97" y1="170.82" x2="458.54" y2="170.82"/><line class="f" x1="485.67" y1="171.86" x2="485.67" y2="194.12"/><line class="f" x1="484.62" y1="195.16" x2="478.06" y2="195.16"/><line class="f" x1="478.06" y1="170.82" x2="484.62" y2="170.82"/><line class="f" x1="487.06" y1="141.25" x2="487.06" y2="170.82"/><line class="f" x1="487.06" y1="141.25" x2="484.62" y2="141.25"/><line class="f" x1="487.06" y1="170.82" x2="484.62" y2="170.82"/><line class="f" x1="478.06" y1="141.25" x2="475.97" y2="141.25"/><line class="f" x1="478.06" y1="170.82" x2="475.97" y2="170.82"/><line class="f" x1="457.49" y1="169.77" x2="457.49" y2="142.3"/><line class="f" x1="458.54" y1="141.25" x2="475.97" y2="141.25"/><line class="f" x1="475.97" y1="170.82" x2="458.54" y2="170.82"/><line class="f" x1="485.67" y1="169.77" x2="485.67" y2="142.3"/><line class="f" x1="484.62" y1="141.25" x2="478.06" y2="141.25"/><line class="f" x1="478.06" y1="170.82" x2="484.62" y2="170.82"/><line class="f" x1="403.59" y1="134.3" x2="403.59" y2="118.65"/><line class="f" x1="410.54" y1="111.69" x2="428.63" y2="111.69"/><line class="f" x1="429.67" y1="112.73" x2="429.67" y2="140.21"/><line class="f" x1="428.63" y1="141.25" x2="410.54" y2="141.25"/><line class="f" x1="475.97" y1="141.25" x2="458.54" y2="141.25"/><line class="f" x1="457.49" y1="140.21" x2="457.49" y2="122.77"/><line class="f" x1="485.67" y1="113.08" x2="458.54" y2="113.08"/><line class="f" x1="457.49" y1="114.13" x2="457.49" y2="120.69"/><line class="f" x1="478.06" y1="141.25" x2="484.62" y2="141.25"/><line class="f" x1="485.67" y1="140.21" x2="485.67" y2="113.08"/><line class="f" x1="457.49" y1="111.69" x2="487.06" y2="111.69"/><line class="f" x1="487.06" y1="111.69" x2="487.06" y2="141.25"/><line class="f" x1="457.49" y1="111.69" x2="457.49" y2="114.12"/><line class="f" x1="484.62" y1="141.25" x2="487.06" y2="141.25"/><line class="f" x1="478.06" y1="141.25" x2="475.97" y2="141.25"/><line class="f" x1="457.49" y1="120.69" x2="457.49" y2="122.77"/><line class="f" x1="429.67" y1="111.69" x2="457.49" y2="111.69"/><line class="f" x1="429.67" y1="111.69" x2="429.67" y2="114.12"/><line class="f" x1="457.49" y1="111.69" x2="457.49" y2="114.12"/><line class="f" x1="429.67" y1="120.69" x2="429.67" y2="122.77"/><line class="f" x1="457.49" y1="120.69" x2="457.49" y2="122.77"/><line class="f" x1="456.45" y1="141.25" x2="430.71" y2="141.25"/><line class="f" x1="429.67" y1="140.21" x2="429.67" y2="122.77"/><line class="f" x1="457.49" y1="122.77" x2="457.49" y2="140.21"/><line class="f" x1="456.45" y1="113.08" x2="430.71" y2="113.08"/><line class="f" x1="429.67" y1="114.13" x2="429.67" y2="120.69"/><line class="f" x1="457.49" y1="120.69" x2="457.49" y2="114.13"/><g class="h"><path class="f" d="M487.06,199.68a.7.7,0,0,1-.7.7"/><path class="f" d="M486.36,195.16a.7.7,0,0,1,.7.7"/><path class="f" d="M457.49,195.86a.7.7,0,0,1,.7-.7"/><path class="f" d="M458.54,195.16a1,1,0,0,1-1-1"/><path class="f" d="M457.49,171.86a1,1,0,0,1,1.05-1"/><path class="f" d="M457.49,142.3a1,1,0,0,1,1.05-1.05"/><path class="f" d="M458.54,170.82a1,1,0,0,1-1-1"/><path class="f" d="M428.63,111.69a1,1,0,0,1,1,1"/><path class="f" d="M429.67,140.21a1,1,0,0,1-1,1"/><path class="f" d="M458.54,141.25a1,1,0,0,1-1-1"/><path class="f" d="M430.71,141.25a1,1,0,0,1-1-1"/><path class="f" d="M457.49,140.21a1,1,0,0,1-1,1"/><path class="f" d="M410.54,141.25a7,7,0,0,1-7-6.95"/><path class="f" d="M403.59,118.65a7,7,0,0,1,7-7"/><path class="f" d="M456.45,118a52.25,52.25,0,0,1-25.74,0"/><path class="f" d="M480.8,169.77a51.91,51.91,0,0,1,0-27.47"/><path class="f" d="M480.8,194.12a52.22,52.22,0,0,1,0-22.26"/><path class="f" d="M458.54,118a17.81,17.81,0,0,1,22.26,22.26"/><path class="f" d="M461,200.38a3.47,3.47,0,0,1-3.47-3.48"/><path class="f" d="M484.09,467.61a6.75,6.75,0,0,1,0,10"/><path class="f" d="M487.81,346.11a.52.52,0,0,1,.52.52"/><path class="f" d="M488.33,360.89a.52.52,0,0,1-.52.52"/><path class="f" d="M469.72,361.41a.52.52,0,0,1-.52-.52"/><path class="f" d="M469.2,346.63a.52.52,0,0,1,.52-.52"/><path class="f" d="M470.24,350.46a.52.52,0,0,1,.52-.52"/><path class="f" d="M470.76,360.37a.52.52,0,0,1-.52-.52"/><path class="f" d="M487.28,359.85a.52.52,0,0,1-.52.52"/><path class="f" d="M486.76,349.94a.52.52,0,0,1,.52.52"/><path class="f" d="M479.49,349.65a.72.72,0,0,1-.11.33"/><path class="f" d="M479.15,351.83a.4.4,0,0,1-.39.34.39.39,0,0,1-.38-.34"/><path class="f" d="M478.15,350a.63.63,0,0,1-.12-.33"/><path class="f" d="M477.89,348.2a.87.87,0,0,1,1.74,0"/><path class="f" d="M479.24,349.58a.48.48,0,0,1-.48.47.47.47,0,0,1-.47-.47"/><path class="f" d="M479.38,350a.73.73,0,0,1-1.23,0"/><path class="f" d="M446.42,476.07a1.74,1.74,0,0,1-1.74,1.74"/><path class="f" d="M444.68,467.37a1.74,1.74,0,0,1,1.74,1.74"/><path class="f" d="M448.16,476.07a3.48,3.48,0,0,1-3.48,3.48"/><path class="f" d="M444.68,465.64a3.47,3.47,0,0,1,3.48,3.47"/><path class="f" d="M424.85,447.55a1.74,1.74,0,0,1,1.74,1.74"/><path class="f" d="M416.16,449.29a1.74,1.74,0,0,1,1.74-1.74"/><path class="f" d="M424.85,445.81a3.48,3.48,0,0,1,3.48,3.48"/><path class="f" d="M414.42,449.29a3.48,3.48,0,0,1,3.48-3.48"/><path class="f" d="M426.59,495.89a1.73,1.73,0,0,1-1.74,1.74"/><path class="f" d="M417.9,497.63a1.73,1.73,0,0,1-1.74-1.74"/><path class="f" d="M428.33,495.89a3.48,3.48,0,0,1-3.48,3.48"/><path class="f" d="M417.9,499.37a3.48,3.48,0,0,1-3.48-3.48"/></g><line class="f" x1="407.46" y1="458.68" x2="407.46" y2="486.5"/><g class="h"><path class="f" d="M452,362.11a5.66,5.66,0,0,1-2.26-4.52"/><path class="f" d="M462.59,357.59a5.66,5.66,0,0,1-2.26,4.52"/><path class="f" d="M460.33,362.11a7,7,0,0,1-8.35,0"/><path class="f" d="M462.59,357.59a5.66,5.66,0,0,1-2.26,4.52"/><path class="f" d="M460.33,362.11a7,7,0,0,1-4.17,1.39"/><path class="f" d="M460.5,357.59a3.59,3.59,0,0,1-1.42,2.85"/><path class="f" d="M459.08,360.44a4.9,4.9,0,0,1-5.85,0"/><path class="f" d="M453.23,360.44a3.59,3.59,0,0,1-1.42-2.85"/></g><polygon class="i" points="306.25 478.62 368.86 478.62 371.52 478.09 373.77 476.58 375.28 474.33 375.81 471.67 375.81 422.98 375.28 420.31 373.77 418.06 371.52 416.55 368.86 416.02 316.69 416.02 306.25 416.02 306.25 478.62"/><rect class="d" x="306.25" y="478.62" width="10.43" height="12.17"/><rect class="d" x="306.25" y="403.84" width="10.43" height="12.17"/><line class="f" x1="317.82" y1="445.35" x2="314.81" y2="444.52"/><line class="f" x1="317.82" y1="474.55" x2="314.81" y2="473.72"/><line class="f" x1="375.81" y1="422.97" x2="375.81" y2="471.67"/><line class="f" x1="368.86" y1="478.62" x2="306.25" y2="478.62"/><line class="f" x1="306.25" y1="478.62" x2="306.25" y2="416.02"/><line class="f" x1="306.25" y1="416.02" x2="368.86" y2="416.02"/><line class="f" x1="306.25" y1="478.62" x2="306.25" y2="490.8"/><line class="f" x1="306.25" y1="490.8" x2="316.69" y2="490.8"/><line class="f" x1="316.69" y1="490.8" x2="316.69" y2="478.62"/><line class="f" x1="316.69" y1="478.62" x2="306.25" y2="478.62"/><line class="f" x1="306.25" y1="403.85" x2="306.25" y2="416.02"/><line class="f" x1="306.25" y1="416.02" x2="316.69" y2="416.02"/><line class="f" x1="316.69" y1="416.02" x2="316.69" y2="403.84"/><line class="f" x1="316.69" y1="403.85" x2="306.25" y2="403.85"/><line class="f" x1="329.4" y1="478.62" x2="329.4" y2="416.02"/><line class="f" x1="334.61" y1="478.62" x2="334.61" y2="416.02"/><g class="h"><path class="f" d="M323.78,472.63a97.82,97.82,0,0,1,.34-22.67"/><path class="f" d="M323.78,472.63a1.75,1.75,0,0,1,0,.4,1.86,1.86,0,0,1-1.86,1.86h-.09"/><path class="f" d="M321.87,474.88c-.28,0-.55,0-.83,0a14.58,14.58,0,0,1-3.22-.36"/><path class="f" d="M317.82,474.55a51.26,51.26,0,0,1-5.25.26q-1.26,0-2.52-.06"/><path class="f" d="M310.05,474.75l-.11,0a.4.4,0,0,1-.4-.39.28.28,0,0,1,0-.09"/><path class="f" d="M309.89,449.89c.16,3.14.23,6.29.23,9.44q0,7.5-.57,15"/><path class="f" d="M309.89,449.89a1.49,1.49,0,0,1,0-.21,1,1,0,0,1,1-1,1.12,1.12,0,0,1,.31.05"/><path class="f" d="M323.14,448.94a44.73,44.73,0,0,1-5.3.31,45.33,45.33,0,0,1-6.69-.49"/><path class="f" d="M323.14,448.94a.78.78,0,0,1,.22,0,.8.8,0,0,1,.8.81.67.67,0,0,1,0,.24"/><path class="f" d="M375.81,471.67a7,7,0,0,1-6.95,6.95"/><path class="f" d="M368.86,416a7,7,0,0,1,6.95,7"/><path class="f" d="M323.78,443.43a97.91,97.91,0,0,1,.34-22.68"/><path class="f" d="M323.78,443.43a1.67,1.67,0,0,1,0,.39,1.87,1.87,0,0,1-1.86,1.87h-.09"/><path class="f" d="M321.87,445.68c-.28,0-.55,0-.83,0a14.57,14.57,0,0,1-3.22-.35"/><path class="f" d="M317.82,445.35c-1.75.17-3.5.26-5.25.26q-1.26,0-2.52-.06"/><path class="f" d="M310.05,445.55l-.11,0a.4.4,0,0,1-.4-.4.19.19,0,0,1,0-.08"/><path class="f" d="M309.89,420.68c.16,3.15.23,6.3.23,9.45q0,7.49-.57,15"/><path class="f" d="M309.89,420.68a1.23,1.23,0,0,1,0-.2,1,1,0,0,1,1-1,1.12,1.12,0,0,1,.31.05"/><path class="f" d="M323.14,419.74a45.71,45.71,0,0,1-12-.18"/><path class="f" d="M323.14,419.74a.78.78,0,0,1,.22,0,.8.8,0,0,1,.8.8.73.73,0,0,1,0,.25"/></g><rect class="d" x="334.59" y="354.11" width="28" height="20.87"/><line class="f" x1="362.6" y1="374.98" x2="334.59" y2="374.98"/><line class="f" x1="334.59" y1="374.98" x2="334.59" y2="354.11"/><line class="f" x1="334.59" y1="354.11" x2="362.6" y2="354.11"/><line class="f" x1="362.6" y1="354.11" x2="362.6" y2="374.98"/><line class="f" x1="361.2" y1="364.54" x2="336" y2="364.54"/><line class="f" x1="359.9" y1="370.68" x2="357.53" y2="358.18"/><line class="f" x1="357.23" y1="371.31" x2="356.25" y2="359.68"/><line class="f" x1="353.58" y1="357.02" x2="352.77" y2="369.78"/><line class="f" x1="349.45" y1="358.69" x2="350.55" y2="369.79"/><line class="f" x1="347.95" y1="358.06" x2="347.95" y2="371.72"/><line class="f" x1="343.69" y1="358" x2="344.7" y2="371.5"/><line class="f" x1="342.1" y1="358.22" x2="342.1" y2="370.56"/><line class="f" x1="337.9" y1="358.1" x2="337.09" y2="370.74"/><line class="f" x1="338.91" y1="358.96" x2="339.73" y2="369.65"/><rect class="d" x="306.25" y="354.11" width="28.34" height="20.87"/><line class="f" x1="334.59" y1="374.98" x2="306.25" y2="374.98"/><line class="f" x1="306.25" y1="374.98" x2="306.25" y2="354.11"/><line class="f" x1="306.25" y1="354.11" x2="334.6" y2="354.11"/><line class="f" x1="334.59" y1="354.11" x2="334.59" y2="374.98"/><line class="f" x1="333.18" y1="364.54" x2="307.67" y2="364.54"/><line class="f" x1="331.86" y1="370.68" x2="329.47" y2="358.18"/><line class="f" x1="329.16" y1="371.31" x2="328.17" y2="359.68"/><line class="f" x1="325.47" y1="357.02" x2="324.66" y2="369.78"/><line class="f" x1="321.29" y1="358.69" x2="322.4" y2="369.79"/><line class="f" x1="319.77" y1="358.06" x2="319.77" y2="371.72"/><line class="f" x1="315.46" y1="358" x2="316.48" y2="371.5"/><line class="f" x1="313.85" y1="358.22" x2="313.85" y2="370.56"/><line class="f" x1="309.6" y1="358.1" x2="308.78" y2="370.74"/><line class="f" x1="310.62" y1="358.96" x2="311.45" y2="369.65"/><polygon class="i" points="311.47 300.9 311.47 318.98 311.62 319.35 311.99 319.5 326.25 319.5 326.62 319.35 326.77 318.98 326.77 300.9 326.62 300.53 326.25 300.37 311.99 300.37 311.62 300.53 311.47 300.9"/><g class="h"><path class="f" d="M311.47,300.9a.52.52,0,0,1,.52-.53"/></g><line class="f" x1="326.25" y1="300.37" x2="311.99" y2="300.37"/><g class="h"><path class="f" d="M326.25,300.37a.52.52,0,0,1,.52.53"/></g><line class="f" x1="326.77" y1="318.98" x2="326.77" y2="300.9"/><g class="h"><path class="f" d="M326.77,319a.52.52,0,0,1-.52.52"/></g><line class="f" x1="311.99" y1="319.5" x2="326.25" y2="319.5"/><g class="h"><path class="f" d="M312,319.5a.52.52,0,0,1-.52-.52"/></g><line class="f" x1="311.47" y1="300.9" x2="311.47" y2="318.98"/><line class="f" x1="315.3" y1="301.94" x2="315.3" y2="317.94"/><line class="f" x1="315.82" y1="318.46" x2="325.21" y2="318.46"/><line class="f" x1="325.73" y1="317.94" x2="325.73" y2="301.94"/><line class="f" x1="325.21" y1="301.42" x2="315.82" y2="301.42"/><g class="h"><path class="f" d="M315.82,318.46a.52.52,0,0,1-.52-.52"/><path class="f" d="M325.73,317.94a.52.52,0,0,1-.52.52"/><path class="f" d="M325.21,301.42a.52.52,0,0,1,.52.52"/><path class="f" d="M315.3,301.94a.52.52,0,0,1,.52-.52"/></g><polygon class="i" points="313.56 309.07 315.02 309.21 315.35 309.32 317.19 309.55 317.43 309.68 317.53 309.94 317.43 310.19 317.19 310.32 315.35 310.55 315.02 310.67 313.56 310.81 312.94 310.55 312.69 309.94 312.94 309.32 313.56 309.07"/><line class="f" x1="313.56" y1="309.07" x2="315.02" y2="309.21"/><g class="h"><path class="f" d="M315,309.21a.81.81,0,0,1,.33.11"/></g><line class="f" x1="315.35" y1="309.32" x2="317.19" y2="309.55"/><g class="h"><path class="f" d="M317.19,309.55a.4.4,0,0,1,.34.39.41.41,0,0,1-.34.39"/></g><line class="f" x1="317.19" y1="310.32" x2="315.35" y2="310.55"/><g class="h"><path class="f" d="M315.35,310.55a.66.66,0,0,1-.33.12"/></g><line class="f" x1="315.02" y1="310.67" x2="313.56" y2="310.81"/><g class="h"><path class="f" d="M313.56,310.81a.87.87,0,0,1,0-1.74"/></g><line class="f" x1="314.42" y1="310.41" x2="314.94" y2="310.41"/><line class="f" x1="314.94" y1="309.47" x2="314.42" y2="309.47"/><line class="f" x1="314.42" y1="309.47" x2="314.42" y2="310.41"/><g class="h"><path class="f" d="M314.94,309.47a.47.47,0,1,1,0,.94"/><path class="f" d="M315.35,309.32a.73.73,0,0,1,.33.62.71.71,0,0,1-.33.61"/></g><polygon class="i" points="311.47 279.16 311.47 292.03 322.95 292.03 324.67 291.76 326.22 290.98 327.47 289.77 328.5 287.79 328.86 285.59 328.5 283.39 327.47 281.42 326.22 280.21 324.67 279.43 322.95 279.16 311.47 279.16"/><line class="f" x1="311.47" y1="292.03" x2="322.95" y2="292.03"/><line class="f" x1="311.47" y1="292.03" x2="311.47" y2="279.16"/><line class="f" x1="311.47" y1="279.16" x2="322.95" y2="279.16"/><line class="f" x1="315.64" y1="289.94" x2="322.95" y2="289.94"/><line class="f" x1="315.64" y1="281.25" x2="322.95" y2="281.25"/><line class="f" x1="315.64" y1="281.25" x2="315.64" y2="289.94"/><g class="h"><path class="f" d="M327.47,289.77A5.66,5.66,0,0,1,323,292"/><path class="f" d="M323,279.16a5.66,5.66,0,0,1,4.52,2.26"/><path class="f" d="M327.47,281.42a7,7,0,0,1,0,8.35"/><path class="f" d="M323,279.16a5.66,5.66,0,0,1,4.52,2.26"/><path class="f" d="M327.47,281.42a7,7,0,0,1,1.39,4.17"/><path class="f" d="M323,281.25a3.55,3.55,0,0,1,2.85,1.42"/><path class="f" d="M325.8,282.67a4.88,4.88,0,0,1,0,5.84"/><path class="f" d="M325.8,288.51a3.56,3.56,0,0,1-2.85,1.43"/></g><rect class="d" x="446.42" y="269.94" width="43.47" height="20.87"/><line class="f" x1="489.89" y1="290.81" x2="446.42" y2="290.81"/><line class="f" x1="446.42" y1="290.81" x2="446.42" y2="269.94"/><line class="f" x1="446.42" y1="269.94" x2="489.89" y2="269.94"/><line class="f" x1="489.89" y1="269.94" x2="489.89" y2="290.81"/><line class="f" x1="487.72" y1="280.38" x2="448.59" y2="280.38"/><line class="f" x1="485.7" y1="286.51" x2="482.03" y2="274.01"/><line class="f" x1="481.56" y1="287.14" x2="480.04" y2="275.51"/><line class="f" x1="475.9" y1="272.85" x2="474.64" y2="285.62"/><line class="f" x1="469.48" y1="274.53" x2="471.18" y2="285.62"/><line class="f" x1="467.15" y1="273.89" x2="467.15" y2="287.55"/><line class="f" x1="460.54" y1="273.83" x2="462.11" y2="287.33"/><line class="f" x1="458.07" y1="274.06" x2="458.07" y2="286.39"/><line class="f" x1="451.54" y1="273.93" x2="450.29" y2="286.58"/><line class="f" x1="453.11" y1="274.79" x2="454.39" y2="285.48"/><rect class="d" x="402.94" y="269.94" width="43.48" height="20.87"/><line class="f" x1="446.42" y1="290.81" x2="402.94" y2="290.81"/><line class="f" x1="402.94" y1="290.81" x2="402.94" y2="269.94"/><line class="f" x1="402.94" y1="269.94" x2="446.42" y2="269.94"/><line class="f" x1="446.42" y1="269.94" x2="446.42" y2="290.81"/><line class="f" x1="444.24" y1="280.38" x2="405.12" y2="280.38"/><line class="f" x1="442.23" y1="286.51" x2="438.55" y2="274.01"/><line class="f" x1="438.08" y1="287.14" x2="436.56" y2="275.51"/><line class="f" x1="432.42" y1="272.85" x2="431.17" y2="285.62"/><line class="f" x1="426" y1="274.53" x2="427.7" y2="285.62"/><line class="f" x1="423.67" y1="273.89" x2="423.67" y2="287.55"/><line class="f" x1="417.06" y1="273.83" x2="418.63" y2="287.33"/><line class="f" x1="414.59" y1="274.06" x2="414.59" y2="286.39"/><line class="f" x1="408.07" y1="273.93" x2="406.82" y2="286.58"/><line class="f" x1="409.64" y1="274.79" x2="410.91" y2="285.48"/><line class="f" x1="489.89" y1="292.55" x2="489.89" y2="299.51"/><line class="f" x1="489.89" y1="303.33" x2="489.89" y2="304.11"/><line class="f" x1="489.89" y1="307.94" x2="489.89" y2="308.72"/><line class="f" x1="489.89" y1="312.55" x2="489.89" y2="319.5"/><line class="f" x1="489.89" y1="323.33" x2="489.89" y2="323.85"/><line class="f" x1="489.89" y1="323.85" x2="489.89" y2="330.81"/><line class="f" x1="319.41" y1="228.18" x2="319.41" y2="222.35"/><line class="f" x1="319.41" y1="222.35" x2="317.04" y2="224.26"/><line class="f" x1="317.04" y1="224.26" x2="314.67" y2="222.35"/><line class="f" x1="314.67" y1="222.35" x2="314.67" y2="228.18"/><line class="f" x1="320.17" y1="527.32" x2="320.17" y2="582.96"/><line class="f" x1="320.17" y1="527.32" x2="320.17" y2="527.32"/><line class="f" x1="320.17" y1="582.96" x2="413.72" y2="582.96"/><line class="f" x1="321.9" y1="527.32" x2="321.9" y2="581.23"/><line class="f" x1="321.9" y1="581.22" x2="413.72" y2="581.22"/><line class="f" x1="344.51" y1="90.82" x2="344.51" y2="36.91"/><line class="f" x1="344.51" y1="36.91" x2="494.07" y2="36.91"/><line class="f" x1="342.77" y1="90.82" x2="342.77" y2="35.17"/><line class="f" x1="342.77" y1="35.17" x2="494.07" y2="35.17"/><g class="h"><path d="M468.3,378.44a6.12,6.12,0,0,1,.25-1.95,2.47,2.47,0,0,1,.74-1.14,1.88,1.88,0,0,1,1.24-.4,2,2,0,0,1,1,.22,1.84,1.84,0,0,1,.69.64,3.4,3.4,0,0,1,.42,1,6.8,6.8,0,0,1,.15,1.61,6.43,6.43,0,0,1-.24,1.94,2.47,2.47,0,0,1-.74,1.14,1.88,1.88,0,0,1-1.24.4,1.86,1.86,0,0,1-1.55-.7A4.52,4.52,0,0,1,468.3,378.44Zm.86,0a4.2,4.2,0,0,0,.4,2.24,1.14,1.14,0,0,0,1,.55,1.16,1.16,0,0,0,1-.55,6.63,6.63,0,0,0,0-4.48,1.17,1.17,0,0,0-1-.56,1.08,1.08,0,0,0-.92.49A4.34,4.34,0,0,0,469.16,378.44Z"/><path d="M473.58,380l.84-.11a1.87,1.87,0,0,0,.49,1,1.2,1.2,0,0,0,.85.31,1.38,1.38,0,0,0,1-.4,1.41,1.41,0,0,0,.4-1,1.27,1.27,0,0,0-.37-.95,1.32,1.32,0,0,0-1-.38,2.19,2.19,0,0,0-.6.1l.1-.74h.13a1.8,1.8,0,0,0,1-.28,1,1,0,0,0,.43-.86,1,1,0,0,0-.32-.77,1.09,1.09,0,0,0-.8-.3,1.13,1.13,0,0,0-.82.31,1.61,1.61,0,0,0-.42.92l-.83-.15a2.17,2.17,0,0,1,.69-1.31,2.09,2.09,0,0,1,1.36-.46,2.23,2.23,0,0,1,1,.24,1.77,1.77,0,0,1,.72.66,1.61,1.61,0,0,1,.25.88,1.42,1.42,0,0,1-.24.8.63.63,0,1,0,.24,1.16,1.78,1.78,0,0,1,.33,1.1,2,2,0,0,1-.65,1.52,2.3,2.3,0,0,1-1.65.62,2.12,2.12,0,0,1-1.49-.54A2.06,2.06,0,0,1,473.58,380Z"/></g><g class="h"><path d="M495.94,439.79a6.39,6.39,0,0,1,.25-1.94,2.44,2.44,0,0,1,.74-1.14,1.88,1.88,0,0,1,1.24-.4,2,2,0,0,1,1,.22,1.81,1.81,0,0,1,.68.64,3.23,3.23,0,0,1,.42,1,6.34,6.34,0,0,1,.16,1.61,6.46,6.46,0,0,1-.25,1.95,2.39,2.39,0,0,1-.74,1.14,2.08,2.08,0,0,1-2.79-.31A4.5,4.5,0,0,1,495.94,439.79Zm.87,0a4.3,4.3,0,0,0,.39,2.24,1.17,1.17,0,0,0,1,.56,1.15,1.15,0,0,0,1-.56,6.47,6.47,0,0,0,0-4.48,1.18,1.18,0,0,0-1-.55,1.07,1.07,0,0,0-.92.49A4.31,4.31,0,0,0,496.81,439.79Z"/><path d="M505.63,442.36v.8h-4.52a1.65,1.65,0,0,1,.1-.58,3,3,0,0,1,.55-.91,8.85,8.85,0,0,1,1.1-1,9.13,9.13,0,0,0,1.5-1.45,1.74,1.74,0,0,0,.4-1,1.12,1.12,0,0,0-.36-.84,1.29,1.29,0,0,0-.93-.34,1.32,1.32,0,0,0-1,.36,1.43,1.43,0,0,0-.37,1l-.86-.09a2.12,2.12,0,0,1,.67-1.47,2.24,2.24,0,0,1,1.55-.5,2.17,2.17,0,0,1,1.55.54,1.76,1.76,0,0,1,.58,1.35,2.1,2.1,0,0,1-.17.81,3.11,3.11,0,0,1-.56.83,14.27,14.27,0,0,1-1.29,1.2c-.5.43-.83.71-1,.86a2.44,2.44,0,0,0-.35.46Z"/></g><line class="f" x1="320.17" y1="582.96" x2="413.72" y2="582.96"/><line class="f" x1="413.72" y1="582.96" x2="413.72" y2="527.32"/><line class="f" x1="413.72" y1="527.32" x2="413.72" y2="513.4"/><line class="f" x1="413.72" y1="513.4" x2="407.46" y2="513.4"/><line class="f" x1="407.46" y1="513.4" x2="407.46" y2="340.89"/><line class="f" x1="407.46" y1="340.89" x2="498.24" y2="340.89"/><line class="f" x1="498.24" y1="340.89" x2="498.24" y2="202.12"/><line class="f" x1="498.24" y1="202.12" x2="498.24" y2="90.82"/><line class="f" x1="498.24" y1="90.82" x2="494.07" y2="90.82"/><line class="f" x1="494.07" y1="90.82" x2="494.07" y2="35.16"/><line class="f" x1="494.07" y1="35.16" x2="342.77" y2="35.16"/><line class="f" x1="342.77" y1="35.16" x2="342.77" y2="90.82"/><line class="f" x1="342.77" y1="90.82" x2="292.34" y2="90.82"/><line class="f" x1="292.34" y1="90.82" x2="292.34" y2="340.89"/><line class="f" x1="292.34" y1="340.89" x2="292.34" y2="527.32"/><line class="f" x1="292.34" y1="527.32" x2="320.17" y2="527.32"/><line class="f" x1="320.17" y1="527.32" x2="320.17" y2="582.96"/><path class="j" d="M402.53,66v7h-.72V66.66h-1.65V66Z"/><path class="j" d="M404.21,72.52a.53.53,0,0,1,.53-.54.54.54,0,0,1,.54.54.55.55,0,0,1-.54.55A.54.54,0,0,1,404.21,72.52Z"/><path class="j" d="M406.22,69.52c0-2.23,1.17-3.56,2.79-3.56s2.8,1.33,2.8,3.56-1.18,3.56-2.8,3.56S406.22,71.75,406.22,69.52Zm4.84,0c0-1.87-.83-2.9-2.05-2.9s-2.06,1-2.06,2.9.84,2.9,2.06,2.9S411.06,71.39,411.06,69.52Z"/><path class="j" d="M417.58,71c0,1.19-.82,2.12-2.53,2.12a3.61,3.61,0,0,1-2.51-.9l.35-.57a3,3,0,0,0,2.15.81c1.19,0,1.81-.58,1.81-1.43s-.55-1.46-2.33-1.46H413l.36-3.51h3.83v.64H414l-.24,2.23h.9C416.79,68.89,417.58,69.72,417.58,71Z"/><path class="j" d="M353.76,550.22v7H353v-6.36h-1.65v-.64Z"/><path class="j" d="M355.44,556.72a.53.53,0,0,1,.53-.54.54.54,0,0,1,.54.54.55.55,0,0,1-.54.55A.54.54,0,0,1,355.44,556.72Z"/><path class="j" d="M357.45,553.72c0-2.23,1.17-3.56,2.79-3.56s2.79,1.33,2.79,3.56-1.18,3.56-2.79,3.56S357.45,556,357.45,553.72Zm4.85,0c0-1.87-.84-2.9-2.06-2.9s-2.06,1-2.06,2.9.84,2.9,2.06,2.9S362.3,555.59,362.3,553.72Z"/><path class="j" d="M368.81,555.16c0,1.19-.83,2.12-2.53,2.12a3.61,3.61,0,0,1-2.51-.9l.35-.57a3,3,0,0,0,2.15.81c1.19,0,1.82-.58,1.82-1.43s-.56-1.46-2.34-1.46h-1.49l.36-3.51h3.82v.64h-3.19l-.24,2.23h.9C368,553.09,368.81,553.92,368.81,555.16Z"/><path class="j" d="M353.76,388.6v7H353v-6.36h-1.65v-.64Z"/><path class="j" d="M355.44,395.1a.53.53,0,0,1,.53-.54.54.54,0,0,1,.54.54.55.55,0,0,1-.54.55A.54.54,0,0,1,355.44,395.1Z"/><path class="j" d="M357.45,392.1c0-2.23,1.17-3.56,2.79-3.56s2.79,1.33,2.79,3.56-1.18,3.56-2.79,3.56S357.45,394.33,357.45,392.1Zm4.85,0c0-1.87-.84-2.9-2.06-2.9s-2.06,1-2.06,2.9.84,2.9,2.06,2.9S362.3,394,362.3,392.1Z"/><path class="j" d="M370,393.76h-1.4v1.84h-.72v-1.84H364v-.52l3.71-4.64h.8l-3.58,4.52h3V391.5h.69v1.62H370Z"/><path class="j" d="M336.8,304.44v7h-.72v-6.36h-1.65v-.64Z"/><path class="j" d="M338.48,310.94a.53.53,0,0,1,.53-.54.54.54,0,0,1,.54.54.55.55,0,0,1-.54.55A.54.54,0,0,1,338.48,310.94Z"/><path class="j" d="M340.49,307.94c0-2.23,1.17-3.56,2.79-3.56s2.79,1.33,2.79,3.56-1.18,3.56-2.79,3.56S340.49,310.17,340.49,307.94Zm4.85,0c0-1.87-.84-2.9-2.06-2.9s-2.06,1-2.06,2.9.84,2.9,2.06,2.9S345.34,309.81,345.34,307.94Z"/><path class="j" d="M351.64,309.43c0,1.17-.84,2.07-2.53,2.07a3.64,3.64,0,0,1-2.52-.9l.35-.57a3.07,3.07,0,0,0,2.17.81c1.16,0,1.8-.54,1.8-1.41S350.32,308,349,308h-.5v-.53l1.94-2.43h-3.58v-.64h4.5V305l-2,2.49C350.89,307.52,351.64,308.31,351.64,309.43Z"/><path class="j" d="M402.53,206.56v7h-.72V207.2h-1.65v-.64Z"/><path class="j" d="M404.21,213.06a.53.53,0,0,1,.53-.54.54.54,0,0,1,.54.54.55.55,0,0,1-.54.55A.54.54,0,0,1,404.21,213.06Z"/><path class="j" d="M406.22,210.06c0-2.23,1.17-3.56,2.79-3.56s2.8,1.33,2.8,3.56-1.18,3.56-2.8,3.56S406.22,212.29,406.22,210.06Zm4.84,0c0-1.87-.83-2.9-2.05-2.9s-2.06,1-2.06,2.9.84,2.9,2.06,2.9S411.06,211.93,411.06,210.06Z"/><path class="j" d="M417.6,212.92v.64h-4.9v-.51l2.91-2.85c.79-.78.94-1.25.94-1.73,0-.81-.57-1.31-1.64-1.31a2.38,2.38,0,0,0-1.91.78l-.51-.44a3.15,3.15,0,0,1,2.48-1c1.42,0,2.32.72,2.32,1.89a2.91,2.91,0,0,1-1.15,2.19l-2.38,2.34Z"/><path class="j" d="M402.53,304.44v7h-.72v-6.36h-1.65v-.64Z"/><path class="j" d="M404.21,310.94a.53.53,0,0,1,.53-.54.54.54,0,0,1,.54.54.55.55,0,0,1-.54.55A.54.54,0,0,1,404.21,310.94Z"/><path class="j" d="M406.22,307.94c0-2.23,1.17-3.56,2.79-3.56s2.8,1.33,2.8,3.56-1.18,3.56-2.8,3.56S406.22,310.17,406.22,307.94Zm4.84,0c0-1.87-.83-2.9-2.05-2.9s-2.06,1-2.06,2.9.84,2.9,2.06,2.9S411.06,309.81,411.06,307.94Z"/><path class="j" d="M414.77,304.44v7h-.72v-6.36H412.4v-.64Z"/></svg>