<svg xmlns="http://www.w3.org/2000/svg" xmlns:xlink="http://www.w3.org/1999/xlink" viewBox="0 0 790.58 618.13"><defs><style>.a,.f{fill:none;}.b{fill:#595a5c;}.c{fill:#b6906c;}.d,.i{fill:#fff;}.e{fill:#231f20;}.f{stroke:#000;stroke-linecap:round;stroke-linejoin:round;stroke-width:0.34px;}.g,.i{fill-rule:evenodd;}.h{clip-path:url(#a);}.j{fill:#58595b;}</style><clipPath id="a"><polygon class="a" points="244.63 185.23 244.63 240.27 240.5 240.27 240.5 432.9 550.08 432.9 550.08 240.27 545.95 240.27 545.95 185.23 244.63 185.23"/></clipPath></defs><path class="b" d="M55.31,597.13H57.1V609.9H55.31Zm.92,6.11h4.09a1.89,1.89,0,0,0,1-.27,1.82,1.82,0,0,0,.68-.77,2.67,2.67,0,0,0,.24-1.16,2.7,2.7,0,0,0-.24-1.16,1.82,1.82,0,0,0-1.7-1H56.23v-1.7h4a4.09,4.09,0,0,1,2,.48A3.45,3.45,0,0,1,63.62,599a4.64,4.64,0,0,1,0,4.11,3.34,3.34,0,0,1-1.35,1.36,4,4,0,0,1-2,.49h-4Z"/><path class="b" d="M67.7,606.33a2.07,2.07,0,0,0,.49,1.48,1.76,1.76,0,0,0,1.37.52,1.89,1.89,0,0,0,1.37-.46,1.79,1.79,0,0,0,.48-1.33l.12,1.91A2.58,2.58,0,0,1,69.06,610a2.89,2.89,0,0,1-2.33-1,4.08,4.08,0,0,1-.82-2.73v-5.55H67.7Zm.22-7.86a1.93,1.93,0,0,1-.56-1.5,2.07,2.07,0,0,1,.56-1.57,2.56,2.56,0,0,1,3.18,0,2.08,2.08,0,0,1,.57,1.56,1.94,1.94,0,0,1-.57,1.5,2.65,2.65,0,0,1-3.18,0Zm2.26-.86a.94.94,0,0,0,.24-.68,1,1,0,0,0-.24-.7.91.91,0,0,0-.67-.25.92.92,0,0,0-.67.25,1,1,0,0,0-.23.7,1,1,0,0,0,.23.68.92.92,0,0,0,.67.24A.9.9,0,0,0,70.18,597.61Zm1.23,3.17h1.78v9.12H71.41Z"/><path class="b" d="M77.1,609.63A2.82,2.82,0,0,1,76,608.36a5.08,5.08,0,0,1-.36-2v-2a5.05,5.05,0,0,1,.36-2,2.71,2.71,0,0,1,1-1.27,3,3,0,0,1,1.65-.44,2.71,2.71,0,0,1,1.48.42,3.22,3.22,0,0,1,1.09,1.19l-.18,1.86a2.19,2.19,0,0,0-.22-1,1.48,1.48,0,0,0-.61-.63,2,2,0,0,0-1-.21,1.71,1.71,0,0,0-1.37.55,2.26,2.26,0,0,0-.49,1.56v2a2.19,2.19,0,0,0,.49,1.54,1.74,1.74,0,0,0,1.37.54,1.93,1.93,0,0,0,1-.23,1.45,1.45,0,0,0,.61-.64,2.25,2.25,0,0,0,.22-1l.12,1.92a2.66,2.66,0,0,1-.89,1.14,2.56,2.56,0,0,1-1.53.45A3.19,3.19,0,0,1,77.1,609.63Zm4-12.5H82.9V609.9H81.11Z"/><path class="b" d="M87.09,609.57a3.09,3.09,0,0,1-1.29-1.36,4.85,4.85,0,0,1-.44-2.15v-1.48a4.71,4.71,0,0,1,.44-2.12,3.12,3.12,0,0,1,1.29-1.35,4.71,4.71,0,0,1,4.06,0,3.12,3.12,0,0,1,1.29,1.35,4.71,4.71,0,0,1,.44,2.12v1.51a4.79,4.79,0,0,1-.44,2.13,3.12,3.12,0,0,1-1.29,1.35,4.62,4.62,0,0,1-4.06,0Zm3.49-1.83a2.43,2.43,0,0,0,.51-1.65v-1.51a2.43,2.43,0,0,0-.51-1.65,1.88,1.88,0,0,0-1.46-.58,1.85,1.85,0,0,0-1.45.58,2.38,2.38,0,0,0-.52,1.65v1.51a2.38,2.38,0,0,0,.52,1.65,1.82,1.82,0,0,0,1.45.59A1.85,1.85,0,0,0,90.58,607.74Z"/><path class="b" d="M95.43,600.78h1.79v9.12H95.43Zm4.42,1.72a2.16,2.16,0,0,0-.83-.15,1.83,1.83,0,0,0-1.33.47,1.79,1.79,0,0,0-.47,1.31L97,602.37a3.32,3.32,0,0,1,1.09-1.27,2.58,2.58,0,0,1,1.48-.45,3.39,3.39,0,0,1,1.13.18,2.62,2.62,0,0,1,.88.53l-1.17,1.58A1.56,1.56,0,0,0,99.85,602.5Z"/><path class="b" d="M102.15,600.78H104l2.81,7.93-1,1.94Zm8.07,0L106.34,612a2.6,2.6,0,0,1-.56,1,1.87,1.87,0,0,1-.84.52,4,4,0,0,1-1.23.16h-.36V612h.36a1.46,1.46,0,0,0,.8-.2,1.74,1.74,0,0,0,.51-.7l3.38-10.31Z"/><path class="b" d="M113.51,609.88a5.76,5.76,0,0,1-1.32-.48,4.89,4.89,0,0,1-1.13-.79l1.06-1.31a5.86,5.86,0,0,0,1.47.85,4.18,4.18,0,0,0,1.44.28,3.11,3.11,0,0,0,1.6-.33,1.1,1.1,0,0,0,.53-1,.79.79,0,0,0-.29-.66,1.66,1.66,0,0,0-.72-.29c-.29,0-.69-.1-1.22-.14h-.15l-.14,0h-.15a6.45,6.45,0,0,1-1.5-.26,2,2,0,0,1-1-.7,2.38,2.38,0,0,1-.41-1.49,3.07,3.07,0,0,1,.39-1.61,2.41,2.41,0,0,1,1.18-1,5.29,5.29,0,0,1,2-.32,6.38,6.38,0,0,1,2.6.52,6.16,6.16,0,0,1,1.13.66l-1.08,1.31a5.59,5.59,0,0,0-1.35-.66,4,4,0,0,0-1.3-.22,2.44,2.44,0,0,0-1.37.31,1.08,1.08,0,0,0-.46.94.64.64,0,0,0,.26.55,1.72,1.72,0,0,0,.66.25c.26,0,.64.07,1.12.1h.34a7.67,7.67,0,0,1,1.63.25,2.24,2.24,0,0,1,1.13.77,2.62,2.62,0,0,1,.45,1.65,2.92,2.92,0,0,1-.42,1.63,2.54,2.54,0,0,1-1.27,1A5.88,5.88,0,0,1,115,610,7.38,7.38,0,0,1,113.51,609.88Z"/><path class="b" d="M126,597.13h1.8V609.9H126Zm2.6,12.5a2.39,2.39,0,0,1-.93-1.16l.13-1.91a2.22,2.22,0,0,0,.21,1,1.48,1.48,0,0,0,.61.63,1.93,1.93,0,0,0,1,.22,1.74,1.74,0,0,0,1.37-.54,2.18,2.18,0,0,0,.49-1.53v-2a2.26,2.26,0,0,0-.49-1.56,1.71,1.71,0,0,0-1.37-.55,2,2,0,0,0-1,.21,1.36,1.36,0,0,0-.61.62,2.12,2.12,0,0,0-.21,1l-.19-1.76a3.37,3.37,0,0,1,1.08-1.24,2.67,2.67,0,0,1,1.49-.43,3,3,0,0,1,1.65.43,2.9,2.9,0,0,1,1.06,1.27,5.1,5.1,0,0,1,.36,2v2a4.94,4.94,0,0,1-.37,2,2.79,2.79,0,0,1-1.08,1.26,3.25,3.25,0,0,1-1.71.44A2.73,2.73,0,0,1,128.57,609.63Z"/><path class="b" d="M134.46,600.78h1.82l2.81,7.93-1,1.94Zm8.07,0L138.65,612a2.6,2.6,0,0,1-.56,1,1.87,1.87,0,0,1-.84.52,4,4,0,0,1-1.23.16h-.36V612H136a1.46,1.46,0,0,0,.8-.2,1.74,1.74,0,0,0,.51-.7l3.37-10.31Z"/><path class="b" d="M143.57,600.78h4.12v1.62h-4.12Zm1.46,8.56a2.77,2.77,0,0,1-.52-1.81v-9.4h1.8v9.42a.84.84,0,0,0,.13.51.46.46,0,0,0,.39.18h.86V610h-1A2,2,0,0,1,145,609.34Z"/><path class="b" d="M151.94,606.33a2.07,2.07,0,0,0,.49,1.48,1.76,1.76,0,0,0,1.37.52,1.91,1.91,0,0,0,1.37-.46,1.79,1.79,0,0,0,.48-1.33l.12,1.91A2.58,2.58,0,0,1,153.3,610a2.89,2.89,0,0,1-2.33-1,4.08,4.08,0,0,1-.82-2.73v-5.55h1.79Zm3.71-5.55h1.78v9.12h-1.78Z"/><rect class="c" x="612.92" y="591.68" width="35.43" height="2.83"/><path class="d" d="M648.48,594.64H612.79v-3.08h35.69ZM613,594.39h35.19v-2.58H613Z"/><rect class="c" x="612.92" y="601.6" width="70.74" height="2.83"/><path class="d" d="M683.78,604.56h-71v-3.08h71ZM613,604.31h70.49v-2.58H613Z"/><rect class="c" x="612.92" y="612.72" width="177.16" height="2.84"/><path class="d" d="M790.21,615.68H612.79V612.6H790.21ZM613,615.43H790v-2.58H613Z"/><path class="e" d="M587.26,596.28h-.8v-4.82l-.81.5v-.83l.81-.53h.8Z"/><path class="e" d="M589,595.91a1.67,1.67,0,0,1-.41-1.19v-2.58A1.65,1.65,0,0,1,589,591a2,2,0,0,1,2.42,0,1.65,1.65,0,0,1,.41,1.19v2.58a1.65,1.65,0,0,1-.41,1.19,2,2,0,0,1-2.42,0Zm1.83-.55a.89.89,0,0,0,.2-.64v-2.58a.89.89,0,0,0-.2-.64.82.82,0,0,0-.62-.22.86.86,0,0,0-.63.22.94.94,0,0,0-.2.64v2.58a.9.9,0,0,0,.21.64,1,1,0,0,0,1.24,0Z"/><path class="e" d="M593.22,595.91a1.67,1.67,0,0,1-.41-1.19v-2.58a1.65,1.65,0,0,1,.41-1.19,2,2,0,0,1,2.42,0,1.61,1.61,0,0,1,.41,1.19v2.58a1.65,1.65,0,0,1-.41,1.19,2,2,0,0,1-2.42,0Zm1.83-.55a.9.9,0,0,0,.21-.64v-2.58a.94.94,0,0,0-.2-.64.86.86,0,0,0-.63-.22.82.82,0,0,0-.62.22.89.89,0,0,0-.2.64v2.58a.89.89,0,0,0,.2.64,1,1,0,0,0,1.24,0Z"/><path class="e" d="M600.1,596.13a1.45,1.45,0,0,1-.6-.6,2.06,2.06,0,0,1-.21-1v-.67a2,2,0,0,1,.21-.94,1.37,1.37,0,0,1,.6-.59,2,2,0,0,1,.95-.21,2.21,2.21,0,0,1,.59.08,1.68,1.68,0,0,1,.51.22,1.54,1.54,0,0,1,.37.35l-.58.52a1.17,1.17,0,0,0-.4-.3,1.13,1.13,0,0,0-.48-.11.94.94,0,0,0-.71.26,1,1,0,0,0-.26.72v.67a1,1,0,0,0,.25.74.94.94,0,0,0,.72.27,1,1,0,0,0,.48-.12,1,1,0,0,0,.4-.32l.58.56a1.38,1.38,0,0,1-.38.34,1.62,1.62,0,0,1-.5.22,2.27,2.27,0,0,1-.59.07A2.12,2.12,0,0,1,600.1,596.13Z"/><path class="e" d="M603.4,592.22h.79v4.06h-.79Zm2.42,1.6a1,1,0,0,0-.21-.67.78.78,0,0,0-.6-.23.81.81,0,0,0-.6.21.73.73,0,0,0-.22.58l-.08-.78a1.46,1.46,0,0,1,.49-.57,1.22,1.22,0,0,1,.67-.2,1.33,1.33,0,0,1,.73.2,1.18,1.18,0,0,1,.46.56,2.4,2.4,0,0,1,.15.89v2.47h-.79Zm2.42,0a.93.93,0,0,0-.22-.67.85.85,0,0,0-.63-.23.72.72,0,0,0-.57.23.9.9,0,0,0-.21.64l-.16-.78a1.61,1.61,0,0,1,.51-.63,1.23,1.23,0,0,1,.69-.22,1.37,1.37,0,0,1,.75.2,1.09,1.09,0,0,1,.47.56,2.21,2.21,0,0,1,.17.89v2.47h-.8Z"/><path class="e" d="M584.33,605.5l2-2.64a1.85,1.85,0,0,0,.27-.47,1.29,1.29,0,0,0,.09-.45h0a.67.67,0,0,0-.2-.53.81.81,0,0,0-.56-.19.76.76,0,0,0-.56.21,1,1,0,0,0-.27.58h-.82a2,2,0,0,1,.29-.83,1.42,1.42,0,0,1,.56-.53,1.67,1.67,0,0,1,.79-.18,1.93,1.93,0,0,1,.87.17,1.21,1.21,0,0,1,.54.51,1.55,1.55,0,0,1,.19.8h0a1.84,1.84,0,0,1-.12.63,2.8,2.8,0,0,1-.35.63l-1.65,2.24h2.15v.76h-3.2Z"/><path class="e" d="M589,605.83a1.67,1.67,0,0,1-.41-1.19v-2.58a1.65,1.65,0,0,1,.41-1.19,2,2,0,0,1,2.42,0,1.65,1.65,0,0,1,.41,1.19v2.58a1.65,1.65,0,0,1-.41,1.19,2,2,0,0,1-2.42,0Zm1.83-.55a.89.89,0,0,0,.2-.64v-2.58a.89.89,0,0,0-.2-.64.82.82,0,0,0-.62-.22.86.86,0,0,0-.63.22.94.94,0,0,0-.19.64v2.58a.89.89,0,0,0,.2.64,1,1,0,0,0,1.24,0Z"/><path class="e" d="M593.22,605.83a1.67,1.67,0,0,1-.41-1.19v-2.58a1.61,1.61,0,0,1,.42-1.19,1.59,1.59,0,0,1,1.2-.42,1.45,1.45,0,0,1,1.62,1.61v2.58a1.61,1.61,0,0,1-.41,1.19,2,2,0,0,1-2.42,0Zm1.84-.55a.94.94,0,0,0,.2-.64v-2.58a.94.94,0,0,0-.2-.64.84.84,0,0,0-.63-.22.82.82,0,0,0-.62.22.89.89,0,0,0-.2.64v2.58a.89.89,0,0,0,.2.64.82.82,0,0,0,.62.22A.86.86,0,0,0,595.06,605.28Z"/><path class="e" d="M600.1,606.05a1.45,1.45,0,0,1-.6-.6,2.06,2.06,0,0,1-.2-1v-.67a2,2,0,0,1,.2-.94,1.37,1.37,0,0,1,.6-.59,2,2,0,0,1,.95-.21,2.35,2.35,0,0,1,.6.08,1.73,1.73,0,0,1,.5.22,1.38,1.38,0,0,1,.37.35l-.58.52a1.08,1.08,0,0,0-.4-.3,1.13,1.13,0,0,0-.48-.11,1,1,0,0,0-.71.26,1,1,0,0,0-.26.72v.67a1,1,0,0,0,.25.74.94.94,0,0,0,.72.27,1.14,1.14,0,0,0,.88-.44l.58.56a1.38,1.38,0,0,1-.38.34,1.62,1.62,0,0,1-.5.22,2.22,2.22,0,0,1-.59.07A2.12,2.12,0,0,1,600.1,606.05Z"/><path class="e" d="M603.4,602.14h.79v4.06h-.79Zm2.42,1.6a1,1,0,0,0-.21-.67.78.78,0,0,0-.6-.23.81.81,0,0,0-.6.21.73.73,0,0,0-.22.58l-.08-.78a1.46,1.46,0,0,1,.49-.57,1.22,1.22,0,0,1,.67-.2,1.3,1.3,0,0,1,.73.2,1.18,1.18,0,0,1,.46.56,2.4,2.4,0,0,1,.16.89v2.47h-.8Zm2.42,0a.93.93,0,0,0-.22-.67.85.85,0,0,0-.63-.23.73.73,0,0,0-.57.23.89.89,0,0,0-.2.64l-.16-.78a1.51,1.51,0,0,1,.5-.63,1.23,1.23,0,0,1,.69-.22,1.35,1.35,0,0,1,.75.2,1.16,1.16,0,0,1,.48.56,2.4,2.4,0,0,1,.16.89v2.47h-.8Z"/><path class="e" d="M585,615.58a1.34,1.34,0,0,1-.54-.49,2,2,0,0,1-.28-.77h.8a.75.75,0,0,0,.25.49.85.85,0,0,0,.54.17.72.72,0,0,0,.59-.25,1.1,1.1,0,0,0,.21-.72v-.48a1.1,1.1,0,0,0-.21-.72.72.72,0,0,0-.59-.25.83.83,0,0,0-.4.11,1.18,1.18,0,0,0-.34.33h-.72v-3h2.89v.76h-2.1V612a1,1,0,0,1,.34-.18.94.94,0,0,1,.37-.07,1.68,1.68,0,0,1,.84.2,1.29,1.29,0,0,1,.53.6,2.07,2.07,0,0,1,.19.94V614a2.25,2.25,0,0,1-.19.94,1.31,1.31,0,0,1-.55.59,1.69,1.69,0,0,1-.86.21A1.74,1.74,0,0,1,585,615.58Z"/><path class="e" d="M589,615.32a1.65,1.65,0,0,1-.41-1.19v-2.58a1.67,1.67,0,0,1,.41-1.19,2,2,0,0,1,2.42,0,1.65,1.65,0,0,1,.41,1.19v2.58a1.64,1.64,0,0,1-.41,1.19,1.92,1.92,0,0,1-2.42,0Zm1.83-.55a.89.89,0,0,0,.2-.64v-2.58a.88.88,0,0,0-.2-.63.78.78,0,0,0-.62-.22.82.82,0,0,0-.63.22.93.93,0,0,0-.2.63v2.58a.9.9,0,0,0,.21.64,1,1,0,0,0,1.24,0Z"/><path class="e" d="M593.22,615.32a1.65,1.65,0,0,1-.41-1.19v-2.58a1.67,1.67,0,0,1,.41-1.19,2,2,0,0,1,2.42,0,1.61,1.61,0,0,1,.41,1.19v2.58a1.64,1.64,0,0,1-.41,1.19,1.92,1.92,0,0,1-2.42,0Zm1.83-.55a.9.9,0,0,0,.21-.64v-2.58a.93.93,0,0,0-.2-.63.82.82,0,0,0-.63-.22.78.78,0,0,0-.62.22.88.88,0,0,0-.2.63v2.58a.89.89,0,0,0,.2.64,1,1,0,0,0,1.24,0Z"/><path class="e" d="M600.1,615.54a1.45,1.45,0,0,1-.6-.6,2,2,0,0,1-.21-1v-.67a2,2,0,0,1,.21-.94,1.45,1.45,0,0,1,.6-.6,2,2,0,0,1,.95-.2,2.22,2.22,0,0,1,.59.07,2,2,0,0,1,.51.22,1.76,1.76,0,0,1,.37.35l-.58.52a1.17,1.17,0,0,0-.4-.3,1.13,1.13,0,0,0-.48-.11.94.94,0,0,0-.71.26,1,1,0,0,0-.26.73V614a1.07,1.07,0,0,0,.25.74,1,1,0,0,0,.72.26,1.13,1.13,0,0,0,.48-.11,1.26,1.26,0,0,0,.4-.32l.58.55a1.42,1.42,0,0,1-.38.35,1.88,1.88,0,0,1-.5.21,2.27,2.27,0,0,1-.59.08A2,2,0,0,1,600.1,615.54Z"/><path class="e" d="M603.4,611.63h.79v4.06h-.79Zm2.42,1.6a1,1,0,0,0-.21-.66.75.75,0,0,0-.6-.24.81.81,0,0,0-.6.21.75.75,0,0,0-.22.58l-.08-.78a1.5,1.5,0,0,1,.49-.56,1.15,1.15,0,0,1,.67-.2,1.32,1.32,0,0,1,.73.19,1.28,1.28,0,0,1,.46.56,2.42,2.42,0,0,1,.15.9v2.46h-.79Zm2.42,0a.91.91,0,0,0-.22-.66.82.82,0,0,0-.63-.24.72.72,0,0,0-.57.23.9.9,0,0,0-.21.64l-.16-.78a1.51,1.51,0,0,1,.51-.62,1.16,1.16,0,0,1,.69-.22,1.37,1.37,0,0,1,.75.19,1.18,1.18,0,0,1,.47.56,2.22,2.22,0,0,1,.17.9v2.46h-.8Z"/><path class="c" d="M23.49,613.89A12.92,12.92,0,1,1,36.4,601,12.93,12.93,0,0,1,23.49,613.89Zm0-24.83A11.92,11.92,0,1,0,35.4,601,11.93,11.93,0,0,0,23.49,589.06Z"/><polygon class="d" points="35.77 588.74 9.42 600.98 35.77 613.21 32.02 600.98 35.77 588.74"/><path class="c" d="M36.58,614.14,8.23,601l28.35-13.17-4,13.17ZM10.61,601,35,612.29,31.5,601,35,589.66Z"/><path class="c" d="M2.52,605.19a5,5,0,0,1-1.11-.38,4.4,4.4,0,0,1-1-.64l.81-1a3.72,3.72,0,0,0,1.16.69,4.08,4.08,0,0,0,1.38.23,2.73,2.73,0,0,0,1.55-.38,1.17,1.17,0,0,0,.55-1.05h0a1.12,1.12,0,0,0-.25-.77,1.44,1.44,0,0,0-.64-.42,8.23,8.23,0,0,0-1-.25H3.89l-.1,0a9.48,9.48,0,0,1-1.5-.36,2.08,2.08,0,0,1-1-.73,2.42,2.42,0,0,1-.41-1.51h0a2.77,2.77,0,0,1,.38-1.47,2.44,2.44,0,0,1,1.12-.92,4.48,4.48,0,0,1,1.77-.32,4.6,4.6,0,0,1,1,.11,4.9,4.9,0,0,1,1.86.86l-.73,1a4.61,4.61,0,0,0-1-.58,3,3,0,0,0-1.06-.2,2.44,2.44,0,0,0-1.46.38,1.24,1.24,0,0,0-.53,1.07h0a1,1,0,0,0,.27.75,1.74,1.74,0,0,0,.67.4,9.3,9.3,0,0,0,1.12.27h.24a7.93,7.93,0,0,1,1.4.41,2.22,2.22,0,0,1,.94.76,2.4,2.4,0,0,1,.38,1.43h0a2.62,2.62,0,0,1-.4,1.45,2.54,2.54,0,0,1-1.16.91,4.8,4.8,0,0,1-1.83.31A6.44,6.44,0,0,1,2.52,605.19Z"/><rect class="c" x="612.5" y="600.68" width="1" height="4.68"/><rect class="c" x="612.5" y="590.76" width="1" height="4.68"/><rect class="c" x="612.5" y="611.45" width="1" height="5.24"/><rect class="c" x="789.58" y="611.45" width="1" height="5.24"/><rect class="c" x="682.59" y="600.68" width="1" height="4.68"/><rect class="c" x="647.3" y="590.76" width="1" height="4.68"/><rect class="a" width="790.34" height="618.13"/><line class="f" x1="546.98" y1="240.28" x2="550.08" y2="240.28"/><line class="f" x1="544.23" y1="240.28" x2="544.23" y2="188.68"/><line class="f" x1="471.65" y1="240.28" x2="544.23" y2="240.28"/><line class="f" x1="471.65" y1="243.71" x2="471.65" y2="240.28"/><line class="f" x1="440.69" y1="243.71" x2="471.65" y2="243.71"/><line class="f" x1="440.69" y1="240.28" x2="440.69" y2="243.71"/><line class="f" x1="363.3" y1="240.28" x2="440.69" y2="240.28"/><line class="f" x1="363.3" y1="243.71" x2="363.3" y2="240.28"/><line class="f" x1="332.34" y1="243.71" x2="363.3" y2="243.71"/><line class="f" x1="332.34" y1="240.28" x2="332.34" y2="243.71"/><line class="f" x1="246.01" y1="240.28" x2="332.35" y2="240.28"/><line class="f" x1="246.01" y1="188.68" x2="246.01" y2="240.28"/><line class="f" x1="544.23" y1="188.68" x2="246.01" y2="188.68"/><line class="f" x1="240.51" y1="240.28" x2="243.26" y2="240.28"/><rect class="d" x="431.75" y="404" width="20.64" height="20.64"/><line class="f" x1="431.75" y1="424.64" x2="452.39" y2="424.64"/><line class="f" x1="431.75" y1="404" x2="431.75" y2="424.64"/><line class="f" x1="452.39" y1="404" x2="431.75" y2="404"/><line class="f" x1="452.39" y1="424.64" x2="452.39" y2="404"/><rect class="d" x="248.76" y="403.66" width="97" height="20.98"/><line class="f" x1="345.76" y1="424.64" x2="248.76" y2="424.64"/><line class="f" x1="248.76" y1="424.64" x2="248.76" y2="403.66"/><line class="f" x1="248.76" y1="403.66" x2="345.76" y2="403.66"/><line class="f" x1="345.76" y1="403.66" x2="345.76" y2="424.64"/><rect class="d" x="248.76" y="352.06" width="20.98" height="51.6"/><line class="f" x1="269.74" y1="403.66" x2="248.76" y2="403.66"/><line class="f" x1="248.76" y1="403.66" x2="248.76" y2="352.06"/><line class="f" x1="248.76" y1="352.06" x2="269.74" y2="352.06"/><line class="f" x1="269.74" y1="352.06" x2="269.74" y2="403.66"/><rect class="d" x="513.44" y="360.15" width="27.52" height="41.28"/><line class="f" x1="513.44" y1="360.15" x2="513.44" y2="401.42"/><line class="f" x1="540.96" y1="360.15" x2="513.44" y2="360.15"/><line class="f" x1="540.96" y1="401.42" x2="540.96" y2="360.15"/><line class="f" x1="513.44" y1="401.42" x2="540.96" y2="401.42"/><polygon class="g" points="240.5 240.28 244.63 240.28 277.31 240.28 277.31 247.15 240.5 247.15 240.5 240.28"/><rect x="363.3" y="240.28" width="77.39" height="6.88"/><polygon class="g" points="550.08 247.16 526.69 247.16 526.69 240.28 545.95 240.28 550.08 240.28 550.08 247.16"/><rect x="240.51" y="247.15" width="35.08" height="6.88"/><rect x="528.41" y="247.15" width="21.67" height="6.88"/><rect x="365.02" y="247.15" width="73.95" height="6.88"/><polygon class="g" points="424.87 432.9 424.87 424.64 541.82 424.64 541.82 254.03 550.08 254.03 550.08 424.64 550.08 432.9 424.87 432.9"/><polygon class="g" points="240.5 254.03 248.76 254.03 248.76 424.64 387.04 424.64 387.04 432.9 248.76 432.9 240.5 432.9 240.5 254.03"/><polygon class="g" points="447.23 356.88 541.82 356.88 541.82 359.29 454.8 359.29 454.8 367.89 452.39 367.89 452.39 359.29 447.23 359.29 447.23 356.88"/><rect x="367.43" y="400.56" width="2.41" height="24.08"/><polygon class="g" points="369.84 369.61 367.43 369.61 367.43 356.88 388.07 356.88 388.07 254.03 390.48 254.03 390.48 356.88 416.27 356.88 416.27 359.29 369.84 359.29 369.84 369.61"/><rect x="423.15" y="428.94" width="1.72" height="3.96"/><rect x="387.04" y="428.94" width="1.72" height="3.96"/><rect x="452.39" y="395.4" width="2.41" height="29.24"/><rect x="514.3" y="405.72" width="3.44" height="18.92"/><polygon class="g" points="517.74 405.78 514.3 405.78 514.3 402.28 541.82 402.28 541.82 405.72 517.74 405.72 517.74 405.78"/><polygon class="g" points="387.04 424.64 383.6 424.64 383.6 410.88 369.84 410.88 369.84 407.44 387.04 407.44 387.04 424.64"/><polygon class="g" points="367.43 407.44 349.2 407.44 349.2 424.64 345.76 424.64 345.76 404 367.43 404 367.43 407.44"/><rect x="244.63" y="188.68" width="1.38" height="51.6"/><rect x="544.57" y="188.68" width="1.38" height="51.6"/><line class="f" x1="240.51" y1="240.28" x2="244.63" y2="240.28"/><line class="f" x1="244.63" y1="240.28" x2="277.31" y2="240.28"/><line class="f" x1="363.3" y1="240.28" x2="440.69" y2="240.28"/><line class="f" x1="526.69" y1="240.28" x2="545.95" y2="240.28"/><line class="f" x1="545.95" y1="240.28" x2="550.08" y2="240.28"/><line class="f" x1="365.02" y1="254.03" x2="388.07" y2="254.03"/><line class="f" x1="390.47" y1="254.03" x2="438.97" y2="254.03"/><line class="f" x1="528.41" y1="254.03" x2="541.82" y2="254.03"/><line class="f" x1="248.76" y1="254.03" x2="275.59" y2="254.03"/><line class="f" x1="550.08" y1="254.03" x2="550.08" y2="254.03"/><line class="f" x1="275.59" y1="254.03" x2="275.59" y2="247.15"/><line class="f" x1="365.02" y1="254.03" x2="365.02" y2="247.15"/><line class="f" x1="528.41" y1="254.03" x2="528.41" y2="247.15"/><line class="f" x1="438.97" y1="247.15" x2="438.97" y2="254.03"/><line class="f" x1="544.57" y1="188.68" x2="544.57" y2="240.28"/><line class="f" x1="545.95" y1="188.68" x2="544.57" y2="188.68"/><line class="f" x1="246.01" y1="188.68" x2="246.01" y2="240.28"/><line class="f" x1="246.01" y1="188.68" x2="244.63" y2="188.68"/><line class="f" x1="526.69" y1="247.15" x2="526.69" y2="240.28"/><line class="f" x1="528.41" y1="247.15" x2="526.68" y2="247.15"/><line class="f" x1="363.3" y1="247.15" x2="363.3" y2="240.28"/><line class="f" x1="365.02" y1="247.15" x2="363.3" y2="247.15"/><line class="f" x1="440.69" y1="247.15" x2="440.69" y2="240.28"/><line class="f" x1="438.97" y1="247.15" x2="440.69" y2="247.15"/><line class="f" x1="277.31" y1="247.15" x2="277.31" y2="240.28"/><line class="f" x1="275.59" y1="247.15" x2="277.31" y2="247.15"/><line class="f" x1="545.95" y1="188.68" x2="244.63" y2="188.68"/><line class="f" x1="275.59" y1="254.03" x2="330.62" y2="254.03"/><line class="f" x1="330.62" y1="254.03" x2="365.02" y2="254.03"/><line class="f" x1="277.31" y1="240.28" x2="332.34" y2="240.28"/><line class="f" x1="330.62" y1="254.03" x2="330.62" y2="247.15"/><line class="f" x1="332.34" y1="247.15" x2="332.34" y2="240.28"/><line class="f" x1="332.34" y1="243.71" x2="363.3" y2="243.71"/><line class="f" x1="333.38" y1="247.84" x2="333.38" y2="247.15"/><line class="f" x1="333.38" y1="247.15" x2="330.62" y2="247.15"/><line class="f" x1="330.62" y1="247.15" x2="330.62" y2="249.91"/><line class="f" x1="330.62" y1="249.91" x2="332" y2="249.91"/><line class="f" x1="332" y1="250.59" x2="334.75" y2="250.59"/><line class="f" x1="334.75" y1="250.59" x2="334.75" y2="247.84"/><line class="f" x1="334.75" y1="247.84" x2="332" y2="247.84"/><line class="f" x1="332" y1="247.84" x2="332" y2="250.59"/><line class="f" x1="363.65" y1="250.59" x2="360.89" y2="250.59"/><line class="f" x1="360.89" y1="250.59" x2="360.89" y2="247.84"/><line class="f" x1="360.89" y1="247.84" x2="363.65" y2="247.84"/><line class="f" x1="363.65" y1="247.84" x2="363.65" y2="250.59"/><line class="f" x1="334.75" y1="250.59" x2="360.89" y2="250.59"/><line class="f" x1="360.89" y1="247.84" x2="334.75" y2="247.84"/><line class="f" x1="334.75" y1="249.22" x2="360.89" y2="249.22"/><line class="f" x1="362.27" y1="247.84" x2="362.27" y2="247.15"/><line class="f" x1="362.27" y1="247.15" x2="365.02" y2="247.15"/><line class="f" x1="365.02" y1="247.15" x2="365.02" y2="249.91"/><line class="f" x1="365.02" y1="249.91" x2="363.65" y2="249.91"/><line class="f" x1="330.62" y1="249.91" x2="327.87" y2="249.91"/><line class="f" x1="327.87" y1="249.91" x2="327.87" y2="247.15"/><line class="f" x1="327.87" y1="247.15" x2="330.63" y2="247.15"/><line class="f" x1="330.62" y1="247.15" x2="330.62" y2="249.91"/><line class="f" x1="327.87" y1="249.91" x2="304.48" y2="249.91"/><line class="f" x1="327.87" y1="248.53" x2="304.48" y2="248.53"/><line class="f" x1="327.87" y1="247.15" x2="304.48" y2="247.15"/><line class="f" x1="278.34" y1="247.84" x2="278.34" y2="247.15"/><line class="f" x1="278.34" y1="247.15" x2="275.59" y2="247.15"/><line class="f" x1="275.59" y1="247.15" x2="275.59" y2="249.91"/><line class="f" x1="275.59" y1="249.91" x2="276.97" y2="249.91"/><line class="f" x1="276.97" y1="250.59" x2="279.72" y2="250.59"/><line class="f" x1="279.72" y1="250.59" x2="279.72" y2="247.84"/><line class="f" x1="279.72" y1="247.84" x2="276.97" y2="247.84"/><line class="f" x1="276.97" y1="247.84" x2="276.97" y2="250.59"/><line class="f" x1="279.72" y1="250.59" x2="300.36" y2="250.59"/><line class="f" x1="300.36" y1="247.84" x2="279.72" y2="247.84"/><line class="f" x1="279.72" y1="249.22" x2="300.36" y2="249.22"/><line class="f" x1="301.73" y1="247.84" x2="301.73" y2="247.15"/><line class="f" x1="301.73" y1="247.15" x2="304.48" y2="247.15"/><line class="f" x1="304.48" y1="247.15" x2="304.48" y2="249.91"/><line class="f" x1="304.48" y1="249.91" x2="303.11" y2="249.91"/><line class="f" x1="303.11" y1="250.59" x2="300.36" y2="250.59"/><line class="f" x1="300.36" y1="250.59" x2="300.36" y2="247.84"/><line class="f" x1="300.36" y1="247.84" x2="303.11" y2="247.84"/><line class="f" x1="303.11" y1="247.84" x2="303.11" y2="250.59"/><line class="f" x1="528.41" y1="254.03" x2="473.37" y2="254.03"/><line class="f" x1="473.37" y1="254.03" x2="438.97" y2="254.03"/><line class="f" x1="526.69" y1="240.28" x2="471.65" y2="240.28"/><line class="f" x1="473.37" y1="254.03" x2="473.37" y2="247.15"/><line class="f" x1="471.65" y1="247.15" x2="471.65" y2="240.28"/><line class="f" x1="471.65" y1="243.71" x2="440.69" y2="243.71"/><line class="f" x1="470.62" y1="247.84" x2="470.62" y2="247.15"/><line class="f" x1="470.62" y1="247.15" x2="473.37" y2="247.15"/><line class="f" x1="473.37" y1="247.15" x2="473.37" y2="249.91"/><line class="f" x1="473.37" y1="249.91" x2="472" y2="249.91"/><line class="f" x1="472" y1="250.59" x2="469.24" y2="250.59"/><line class="f" x1="469.24" y1="250.59" x2="469.24" y2="247.84"/><line class="f" x1="469.24" y1="247.84" x2="472" y2="247.84"/><line class="f" x1="472" y1="247.84" x2="472" y2="250.59"/><line class="f" x1="440.35" y1="250.59" x2="443.1" y2="250.59"/><line class="f" x1="443.1" y1="250.59" x2="443.1" y2="247.84"/><line class="f" x1="443.1" y1="247.84" x2="440.35" y2="247.84"/><line class="f" x1="440.35" y1="247.84" x2="440.35" y2="250.59"/><line class="f" x1="469.24" y1="250.59" x2="443.1" y2="250.59"/><line class="f" x1="443.1" y1="247.84" x2="469.24" y2="247.84"/><line class="f" x1="469.24" y1="249.22" x2="443.1" y2="249.22"/><line class="f" x1="441.73" y1="247.84" x2="441.73" y2="247.15"/><line class="f" x1="441.73" y1="247.15" x2="438.97" y2="247.15"/><line class="f" x1="438.97" y1="247.15" x2="438.97" y2="249.91"/><line class="f" x1="438.97" y1="249.91" x2="440.35" y2="249.91"/><line class="f" x1="473.37" y1="249.91" x2="476.12" y2="249.91"/><line class="f" x1="476.12" y1="249.91" x2="476.12" y2="247.15"/><line class="f" x1="476.12" y1="247.15" x2="473.37" y2="247.15"/><line class="f" x1="473.37" y1="247.15" x2="473.37" y2="249.91"/><line class="f" x1="476.12" y1="249.91" x2="499.51" y2="249.91"/><line class="f" x1="476.12" y1="248.53" x2="499.51" y2="248.53"/><line class="f" x1="476.12" y1="247.15" x2="499.51" y2="247.15"/><line class="f" x1="525.65" y1="247.84" x2="525.65" y2="247.15"/><line class="f" x1="525.65" y1="247.15" x2="528.41" y2="247.15"/><line class="f" x1="528.41" y1="247.15" x2="528.41" y2="249.91"/><line class="f" x1="528.41" y1="249.91" x2="527.03" y2="249.91"/><line class="f" x1="527.03" y1="250.59" x2="524.28" y2="250.59"/><line class="f" x1="524.28" y1="250.59" x2="524.28" y2="247.84"/><line class="f" x1="524.28" y1="247.84" x2="527.03" y2="247.84"/><line class="f" x1="527.03" y1="247.84" x2="527.03" y2="250.59"/><line class="f" x1="524.28" y1="250.59" x2="503.64" y2="250.59"/><line class="f" x1="503.64" y1="247.84" x2="524.28" y2="247.84"/><line class="f" x1="524.28" y1="249.22" x2="503.64" y2="249.22"/><line class="f" x1="502.26" y1="247.84" x2="502.26" y2="247.15"/><line class="f" x1="502.26" y1="247.15" x2="499.51" y2="247.15"/><line class="f" x1="499.51" y1="247.15" x2="499.51" y2="249.91"/><line class="f" x1="499.51" y1="249.91" x2="500.89" y2="249.91"/><line class="f" x1="500.89" y1="250.59" x2="503.64" y2="250.59"/><line class="f" x1="503.64" y1="250.59" x2="503.64" y2="247.84"/><line class="f" x1="503.64" y1="247.84" x2="500.89" y2="247.84"/><line class="f" x1="500.89" y1="247.84" x2="500.89" y2="250.59"/><line class="f" x1="248.76" y1="254.03" x2="248.76" y2="424.64"/><line class="f" x1="550.08" y1="432.9" x2="424.87" y2="432.9"/><line class="f" x1="550.08" y1="424.64" x2="550.08" y2="424.64"/><line class="f" x1="541.82" y1="254.03" x2="541.82" y2="356.88"/><line class="f" x1="550.08" y1="254.03" x2="550.08" y2="260.09"/><line class="f" x1="550.08" y1="371.33" x2="550.08" y2="404"/><line class="f" x1="550.08" y1="407.44" x2="550.08" y2="424.64"/><line class="f" x1="550.08" y1="371.33" x2="550.08" y2="371.33"/><line class="f" x1="248.76" y1="432.9" x2="248.76" y2="432.9"/><line class="f" x1="369.84" y1="424.64" x2="383.6" y2="424.64"/><line class="f" x1="369.84" y1="410.88" x2="383.6" y2="410.88"/><line class="f" x1="369.84" y1="407.44" x2="387.04" y2="407.44"/><line class="f" x1="390.47" y1="356.88" x2="416.27" y2="356.88"/><line class="f" x1="369.84" y1="359.29" x2="416.27" y2="359.29"/><line class="f" x1="447.23" y1="359.29" x2="452.39" y2="359.29"/><line class="f" x1="390.47" y1="254.03" x2="390.47" y2="356.88"/><line class="f" x1="388.07" y1="254.03" x2="388.07" y2="356.88"/><line class="f" x1="369.84" y1="359.29" x2="369.84" y2="369.61"/><line class="f" x1="367.43" y1="400.56" x2="367.43" y2="404"/><line class="f" x1="367.43" y1="407.44" x2="367.43" y2="424.64"/><line class="f" x1="367.43" y1="356.88" x2="367.43" y2="369.61"/><line class="f" x1="367.43" y1="369.61" x2="369.84" y2="369.61"/><line class="f" x1="447.23" y1="359.29" x2="447.23" y2="356.88"/><line class="f" x1="416.27" y1="359.29" x2="416.27" y2="356.88"/><line class="f" x1="388.76" y1="428.94" x2="388.76" y2="432.9"/><line class="f" x1="423.15" y1="428.94" x2="423.15" y2="432.9"/><line class="f" x1="423.15" y1="428.94" x2="424.87" y2="428.94"/><line class="f" x1="388.76" y1="428.94" x2="387.04" y2="428.94"/><line class="f" x1="387.04" y1="428.94" x2="387.04" y2="424.64"/><line class="f" x1="424.87" y1="428.94" x2="424.87" y2="424.64"/><line class="f" x1="387.04" y1="432.9" x2="248.76" y2="432.9"/><line class="f" x1="345.76" y1="424.64" x2="248.76" y2="424.64"/><line class="f" x1="367.43" y1="407.44" x2="349.2" y2="407.44"/><line class="f" x1="349.2" y1="407.44" x2="349.2" y2="424.64"/><line class="f" x1="367.43" y1="404" x2="345.76" y2="404"/><line class="f" x1="345.76" y1="404" x2="345.76" y2="424.64"/><line class="f" x1="541.82" y1="359.29" x2="454.8" y2="359.29"/><line class="f" x1="541.82" y1="356.88" x2="447.23" y2="356.88"/><line class="f" x1="454.8" y1="359.29" x2="454.8" y2="367.89"/><line class="f" x1="454.8" y1="395.4" x2="454.8" y2="424.64"/><line class="f" x1="452.39" y1="359.29" x2="452.39" y2="367.89"/><line class="f" x1="452.39" y1="367.89" x2="454.8" y2="367.89"/><line class="f" x1="452.39" y1="395.4" x2="454.8" y2="395.4"/><line class="f" x1="452.39" y1="395.4" x2="452.39" y2="424.64"/><line class="f" x1="423.15" y1="432.9" x2="424.87" y2="432.9"/><line class="f" x1="388.76" y1="432.9" x2="387.04" y2="432.9"/><line class="f" x1="367.43" y1="400.56" x2="369.84" y2="400.56"/><line class="f" x1="369.84" y1="400.56" x2="369.84" y2="407.44"/><line class="f" x1="369.84" y1="410.88" x2="369.84" y2="424.64"/><line class="f" x1="367.43" y1="424.64" x2="349.2" y2="424.64"/><line class="f" x1="388.07" y1="356.88" x2="367.43" y2="356.88"/><line class="f" x1="383.6" y1="424.64" x2="383.6" y2="410.88"/><line class="f" x1="387.04" y1="424.64" x2="387.04" y2="407.44"/><line class="f" x1="363.65" y1="250.59" x2="363.65" y2="282.24"/><g class="h"><path class="f" d="M363.65,282.24A31.65,31.65,0,0,1,332,250.59"/></g><line class="f" x1="440.35" y1="250.59" x2="440.35" y2="282.24"/><g class="h"><path class="f" d="M472,250.59a31.65,31.65,0,0,1-31.65,31.65"/></g><line class="f" x1="452.39" y1="424.64" x2="424.87" y2="424.64"/><line class="f" x1="324.78" y1="424.3" x2="324.78" y2="403.66"/><line class="f" x1="332.66" y1="411.55" x2="337.53" y2="416.41"/><line class="f" x1="337.53" y1="411.55" x2="332.67" y2="416.41"/><line class="f" x1="335.1" y1="417.42" x2="335.1" y2="410.54"/><line class="f" x1="331.66" y1="413.98" x2="338.54" y2="413.98"/><line class="f" x1="324.78" y1="403.66" x2="345.42" y2="403.66"/><line class="f" x1="323.92" y1="405.38" x2="305" y2="405.38"/><line class="f" x1="305" y1="405.38" x2="305" y2="422.58"/><line class="f" x1="305" y1="422.58" x2="323.92" y2="422.58"/><line class="f" x1="323.92" y1="422.58" x2="323.92" y2="405.38"/><line class="f" x1="324.78" y1="403.66" x2="304.14" y2="403.66"/><line class="f" x1="322.2" y1="407.1" x2="306.72" y2="407.1"/><line class="f" x1="306.72" y1="407.1" x2="306.72" y2="419.14"/><line class="f" x1="306.72" y1="419.14" x2="322.2" y2="419.14"/><line class="f" x1="322.2" y1="419.14" x2="322.2" y2="407.1"/><g class="h"><path class="f" d="M315.15,415.7a.69.69,0,1,0-.69.69.69.69,0,0,0,.69-.69"/></g><line class="f" x1="304.14" y1="424.3" x2="304.14" y2="403.66"/><line class="f" x1="304.14" y1="403.66" x2="283.5" y2="403.66"/><line class="f" x1="283.5" y1="403.66" x2="283.5" y2="424.3"/><line class="f" x1="269.74" y1="403.66" x2="269.74" y2="383.02"/><line class="f" x1="269.74" y1="383.02" x2="248.76" y2="383.02"/><line class="f" x1="248.76" y1="383.02" x2="248.76" y2="403.66"/><line class="f" x1="248.76" y1="403.66" x2="269.74" y2="403.66"/><g class="h"><path class="f" d="M265.44,393.34a6,6,0,1,0-6,6,6,6,0,0,0,6-6"/><path class="f" d="M264.41,393.34a5,5,0,1,0-5,5,5,5,0,0,0,5-5"/><path class="f" d="M257.74,377.77a3.38,3.38,0,1,0-3.38,3.38,3.38,3.38,0,0,0,3.38-3.38"/></g><line class="f" x1="249.1" y1="383.02" x2="269.74" y2="383.02"/><line class="f" x1="269.74" y1="383.02" x2="269.74" y2="362.38"/><line class="f" x1="269.74" y1="362.38" x2="249.1" y2="362.38"/><g class="h"><path class="f" d="M267.87,377.77a3.38,3.38,0,1,0-3.38,3.38,3.38,3.38,0,0,0,3.38-3.38"/><path class="f" d="M267.87,367.64a3.38,3.38,0,1,0-3.38,3.37,3.38,3.38,0,0,0,3.38-3.37"/></g><line class="f" x1="270.68" y1="365.2" x2="270.68" y2="380.21"/><line class="f" x1="345.76" y1="424.64" x2="345.76" y2="403.66"/><line class="f" x1="345.76" y1="403.66" x2="269.74" y2="403.66"/><line class="f" x1="269.74" y1="403.66" x2="269.74" y2="352.06"/><line class="f" x1="269.74" y1="352.06" x2="248.76" y2="352.06"/><line class="f" x1="248.76" y1="352.06" x2="248.76" y2="424.64"/><line class="f" x1="248.76" y1="424.64" x2="345.76" y2="424.64"/><line class="f" x1="550.08" y1="404" x2="550.08" y2="404"/><line class="f" x1="550.08" y1="407.44" x2="550.08" y2="407.44"/><line class="f" x1="514.3" y1="419.48" x2="454.8" y2="419.48"/><line class="f" x1="507.77" y1="360.15" x2="507.77" y2="363.59"/><line class="f" x1="507.77" y1="363.59" x2="487.13" y2="363.59"/><line class="f" x1="487.13" y1="363.59" x2="487.13" y2="360.15"/><line class="f" x1="487.13" y1="360.15" x2="488.16" y2="360.15"/><line class="f" x1="488.16" y1="360.15" x2="488.16" y2="362.55"/><line class="f" x1="488.16" y1="362.56" x2="506.74" y2="362.56"/><line class="f" x1="506.74" y1="362.56" x2="506.74" y2="360.15"/><line class="f" x1="506.74" y1="360.15" x2="507.77" y2="360.15"/><line class="f" x1="507.77" y1="360.15" x2="507.77" y2="363.59"/><line class="f" x1="487.13" y1="360.15" x2="487.13" y2="363.59"/><line class="f" x1="506.74" y1="360.15" x2="506.74" y2="362.55"/><line class="f" x1="488.16" y1="360.15" x2="488.16" y2="362.55"/><line class="f" x1="507.77" y1="363.59" x2="487.13" y2="363.59"/><line class="f" x1="507.77" y1="362.56" x2="487.13" y2="362.56"/><line class="f" x1="507.77" y1="360.15" x2="506.74" y2="360.15"/><line class="f" x1="488.16" y1="360.15" x2="487.13" y2="360.15"/><g class="h"><path class="f" d="M536.66,396.26a.86.86,0,1,0-.86.86.86.86,0,0,0,.86-.86"/></g><line class="f" x1="513.44" y1="401.42" x2="513.44" y2="360.15"/><line class="f" x1="513.44" y1="360.15" x2="540.96" y2="360.15"/><line class="f" x1="540.96" y1="360.15" x2="540.96" y2="401.42"/><line class="f" x1="540.96" y1="401.42" x2="513.44" y2="401.42"/><line class="f" x1="515.16" y1="396.26" x2="515.16" y2="365.31"/><line class="f" x1="518.6" y1="361.87" x2="535.8" y2="361.87"/><line class="f" x1="539.24" y1="365.31" x2="539.24" y2="396.26"/><line class="f" x1="535.8" y1="399.7" x2="518.6" y2="399.7"/><g class="h"><path class="f" d="M518.6,399.7a3.44,3.44,0,0,1-3.44-3.44"/><path class="f" d="M515.16,365.31a3.44,3.44,0,0,1,3.44-3.44"/><path class="f" d="M539.24,396.26a3.44,3.44,0,0,1-3.44,3.44"/><path class="f" d="M535.8,361.87a3.44,3.44,0,0,1,3.44,3.44"/></g><line class="f" x1="517.74" y1="405.72" x2="517.74" y2="424.64"/><line class="f" x1="517.74" y1="424.64" x2="541.82" y2="424.64"/><line class="f" x1="541.82" y1="424.64" x2="541.82" y2="405.72"/><line class="f" x1="541.82" y1="405.72" x2="517.74" y2="405.72"/><line class="f" x1="541.82" y1="402.28" x2="514.3" y2="402.28"/><line class="f" x1="514.3" y1="402.28" x2="514.3" y2="424.64"/><line class="f" x1="541.82" y1="402.28" x2="541.82" y2="359.29"/><line class="f" x1="514.3" y1="405.78" x2="514.3" y2="402.34"/><line class="f" x1="514.3" y1="424.64" x2="454.8" y2="424.64"/><line class="f" x1="367.43" y1="407.44" x2="367.43" y2="404"/><line class="f" x1="417.99" y1="356.88" x2="445.51" y2="356.88"/><line class="f" x1="417.99" y1="356.88" x2="417.99" y2="329.36"/><g class="h"><path class="f" d="M418,329.36a27.52,27.52,0,0,1,27.52,27.52"/></g><line class="f" x1="417.99" y1="359.29" x2="417.99" y2="356.88"/><line class="f" x1="445.51" y1="356.88" x2="445.51" y2="359.29"/><line class="f" x1="445.51" y1="356.88" x2="447.23" y2="356.88"/><line class="f" x1="445.51" y1="359.29" x2="447.23" y2="359.29"/><line class="f" x1="416.27" y1="356.88" x2="417.99" y2="356.88"/><line class="f" x1="416.27" y1="359.29" x2="417.99" y2="359.29"/><line class="f" x1="417.99" y1="359.29" x2="424.87" y2="359.29"/><line class="f" x1="428.66" y1="359.29" x2="429.43" y2="359.29"/><line class="f" x1="433.21" y1="359.29" x2="433.99" y2="359.29"/><line class="f" x1="437.77" y1="359.29" x2="438.63" y2="359.29"/><line class="f" x1="438.63" y1="359.29" x2="445.51" y2="359.29"/><line class="f" x1="417.99" y1="356.88" x2="417.99" y2="356.02"/><line class="f" x1="417.99" y1="356.02" x2="414.55" y2="356.02"/><line class="f" x1="414.55" y1="356.02" x2="414.55" y2="356.88"/><line class="f" x1="417.99" y1="359.29" x2="417.99" y2="360.15"/><line class="f" x1="417.99" y1="360.15" x2="414.55" y2="360.15"/><line class="f" x1="414.55" y1="360.15" x2="414.55" y2="359.29"/><line class="f" x1="445.51" y1="356.02" x2="448.95" y2="356.02"/><line class="f" x1="448.95" y1="356.02" x2="448.95" y2="356.88"/><line class="f" x1="445.51" y1="359.29" x2="445.51" y2="360.15"/><line class="f" x1="445.51" y1="360.15" x2="448.95" y2="360.15"/><line class="f" x1="448.95" y1="360.15" x2="448.95" y2="359.29"/><line class="f" x1="452.39" y1="393.68" x2="452.39" y2="369.61"/><line class="f" x1="452.39" y1="393.68" x2="428.31" y2="393.68"/><g class="h"><path class="f" d="M428.31,393.68a24.08,24.08,0,0,1,24.08-24.07"/></g><line class="f" x1="454.8" y1="393.68" x2="452.39" y2="393.68"/><line class="f" x1="452.39" y1="369.61" x2="454.8" y2="369.61"/><line class="f" x1="452.39" y1="369.61" x2="452.39" y2="367.89"/><line class="f" x1="454.8" y1="369.61" x2="454.8" y2="367.89"/><line class="f" x1="452.39" y1="395.4" x2="452.39" y2="393.68"/><line class="f" x1="454.8" y1="395.4" x2="454.8" y2="393.68"/><line class="f" x1="454.8" y1="393.68" x2="454.8" y2="386.8"/><line class="f" x1="454.8" y1="383.02" x2="454.8" y2="382.25"/><line class="f" x1="454.8" y1="378.46" x2="454.8" y2="377.69"/><line class="f" x1="454.8" y1="376.49" x2="454.8" y2="369.61"/><line class="f" x1="452.39" y1="393.68" x2="451.53" y2="393.68"/><line class="f" x1="451.53" y1="393.68" x2="451.53" y2="397.12"/><line class="f" x1="451.53" y1="397.12" x2="452.39" y2="397.12"/><line class="f" x1="454.8" y1="393.68" x2="455.66" y2="393.68"/><line class="f" x1="455.66" y1="393.68" x2="455.66" y2="397.12"/><line class="f" x1="455.66" y1="397.12" x2="454.8" y2="397.12"/><line class="f" x1="451.53" y1="369.61" x2="451.53" y2="366.17"/><line class="f" x1="451.53" y1="366.17" x2="452.39" y2="366.17"/><line class="f" x1="454.8" y1="369.61" x2="455.66" y2="369.61"/><line class="f" x1="455.66" y1="369.61" x2="455.66" y2="366.17"/><line class="f" x1="455.66" y1="366.17" x2="454.8" y2="366.17"/><line class="f" x1="390.47" y1="428.94" x2="421.43" y2="428.94"/><line class="f" x1="390.47" y1="428.94" x2="390.47" y2="397.98"/><g class="h"><path class="f" d="M390.47,398a31,31,0,0,1,31,31"/></g><line class="f" x1="390.47" y1="432.9" x2="390.47" y2="428.94"/><line class="f" x1="421.43" y1="428.94" x2="421.43" y2="432.9"/><line class="f" x1="421.43" y1="428.94" x2="423.15" y2="428.94"/><line class="f" x1="388.76" y1="428.94" x2="390.47" y2="428.94"/><line class="f" x1="367.43" y1="398.84" x2="367.43" y2="371.33"/><line class="f" x1="367.43" y1="398.84" x2="339.91" y2="398.84"/><g class="h"><path class="f" d="M339.91,398.84a27.52,27.52,0,0,1,27.52-27.51"/></g><line class="f" x1="369.84" y1="398.84" x2="367.43" y2="398.84"/><line class="f" x1="367.43" y1="371.33" x2="369.84" y2="371.33"/><line class="f" x1="367.43" y1="371.33" x2="367.43" y2="369.61"/><line class="f" x1="369.84" y1="371.33" x2="369.84" y2="369.61"/><line class="f" x1="367.43" y1="400.56" x2="367.43" y2="398.84"/><line class="f" x1="369.84" y1="400.56" x2="369.84" y2="398.84"/><line class="f" x1="369.84" y1="398.84" x2="369.84" y2="391.96"/><line class="f" x1="369.84" y1="388.18" x2="369.84" y2="387.41"/><line class="f" x1="369.84" y1="383.62" x2="369.84" y2="382.85"/><line class="f" x1="369.84" y1="379.07" x2="369.84" y2="378.21"/><line class="f" x1="369.84" y1="378.21" x2="369.84" y2="371.33"/><line class="f" x1="367.43" y1="398.84" x2="366.57" y2="398.84"/><line class="f" x1="366.57" y1="398.84" x2="366.57" y2="402.28"/><line class="f" x1="366.57" y1="402.28" x2="367.43" y2="402.28"/><line class="f" x1="369.84" y1="398.84" x2="370.7" y2="398.84"/><line class="f" x1="370.7" y1="398.84" x2="370.7" y2="402.28"/><line class="f" x1="370.7" y1="402.28" x2="369.84" y2="402.28"/><line class="f" x1="366.57" y1="371.33" x2="366.57" y2="367.89"/><line class="f" x1="366.57" y1="367.89" x2="367.43" y2="367.89"/><line class="f" x1="369.84" y1="371.33" x2="370.7" y2="371.33"/><line class="f" x1="370.7" y1="371.33" x2="370.7" y2="367.89"/><line class="f" x1="370.7" y1="367.89" x2="369.84" y2="367.89"/><line class="f" x1="511.21" y1="255.75" x2="483.69" y2="255.75"/><line class="f" x1="483.69" y1="255.75" x2="483.69" y2="257.92"/><line class="f" x1="483.69" y1="257.92" x2="511.21" y2="257.92"/><line class="f" x1="511.21" y1="257.92" x2="511.21" y2="255.75"/><line class="f" x1="323.75" y1="255.75" x2="275.59" y2="255.75"/><line class="f" x1="275.59" y1="255.75" x2="275.59" y2="259.19"/><line class="f" x1="275.59" y1="259.19" x2="323.75" y2="259.19"/><line class="f" x1="323.75" y1="259.19" x2="323.75" y2="255.75"/><g class="h"><path class="f" d="M328.9,257.47a1.72,1.72,0,1,0-1.71,1.72,1.72,1.72,0,0,0,1.71-1.72"/><path class="f" d="M516.37,256.84a1.72,1.72,0,1,0-1.72,1.72,1.72,1.72,0,0,0,1.72-1.72"/></g><line class="f" x1="363.3" y1="240.28" x2="356.42" y2="240.28"/><line class="f" x1="352.64" y1="240.28" x2="351.86" y2="240.28"/><line class="f" x1="348.08" y1="240.28" x2="347.31" y2="240.28"/><line class="f" x1="343.52" y1="240.28" x2="339.22" y2="240.28"/><line class="f" x1="339.22" y1="240.28" x2="332.34" y2="240.28"/><line class="f" x1="471.65" y1="240.28" x2="464.77" y2="240.28"/><line class="f" x1="460.99" y1="240.28" x2="460.21" y2="240.28"/><line class="f" x1="456.43" y1="240.28" x2="455.66" y2="240.28"/><line class="f" x1="451.87" y1="240.28" x2="447.57" y2="240.28"/><line class="f" x1="447.57" y1="240.28" x2="440.69" y2="240.28"/><line class="f" x1="349.2" y1="424.64" x2="367.43" y2="424.64"/><line class="f" x1="367.43" y1="424.64" x2="367.43" y2="407.44"/><line class="f" x1="367.43" y1="407.44" x2="363.99" y2="421.2"/><line class="f" x1="363.99" y1="421.2" x2="349.2" y2="424.64"/><line class="f" x1="550.08" y1="424.64" x2="550.08" y2="424.64"/><line class="f" x1="550.08" y1="424.64" x2="550.08" y2="424.64"/><line class="f" x1="518.22" y1="424.64" x2="538.06" y2="421.19"/><line class="f" x1="538.06" y1="421.19" x2="541.82" y2="405.72"/><line class="f" x1="541.82" y1="405.72" x2="541.82" y2="424.64"/><line class="f" x1="541.82" y1="424.64" x2="518.22" y2="424.64"/><line class="f" x1="369.84" y1="424.64" x2="383.6" y2="424.64"/><line class="f" x1="383.6" y1="424.64" x2="383.6" y2="410.88"/><line class="f" x1="383.6" y1="410.88" x2="380.16" y2="421.2"/><line class="f" x1="380.16" y1="421.2" x2="369.84" y2="424.64"/><rect class="d" x="288.32" y="295.31" width="17.2" height="27.52"/><line class="f" x1="288.32" y1="322.83" x2="305.52" y2="322.83"/><line class="f" x1="288.32" y1="295.31" x2="288.32" y2="322.83"/><line class="f" x1="305.51" y1="295.31" x2="288.32" y2="295.31"/><line class="f" x1="305.51" y1="322.83" x2="305.51" y2="295.31"/><rect class="d" x="454.8" y="419.48" width="59.51" height="5.16"/><line class="f" x1="514.3" y1="424.64" x2="454.8" y2="424.64"/><line class="f" x1="454.8" y1="424.64" x2="454.8" y2="419.48"/><line class="f" x1="454.8" y1="419.48" x2="514.3" y2="419.48"/><line class="f" x1="514.3" y1="419.48" x2="514.3" y2="424.64"/><rect class="d" x="506.74" y="360.15" width="1.03" height="2.41"/><line class="f" x1="506.74" y1="362.56" x2="507.77" y2="362.56"/><line class="f" x1="506.74" y1="360.15" x2="506.74" y2="362.55"/><line class="f" x1="507.77" y1="360.15" x2="506.74" y2="360.15"/><line class="f" x1="507.77" y1="362.56" x2="507.77" y2="360.15"/><rect class="d" x="487.13" y="362.55" width="20.64" height="1.03"/><line class="f" x1="507.77" y1="362.56" x2="487.13" y2="362.56"/><line class="f" x1="507.77" y1="363.59" x2="507.77" y2="362.56"/><line class="f" x1="487.13" y1="363.59" x2="507.77" y2="363.59"/><line class="f" x1="487.13" y1="362.56" x2="487.13" y2="363.59"/><rect class="d" x="487.13" y="360.15" width="1.03" height="2.41"/><line class="f" x1="487.13" y1="362.56" x2="488.16" y2="362.56"/><line class="f" x1="487.13" y1="360.15" x2="487.13" y2="362.55"/><line class="f" x1="488.16" y1="360.15" x2="487.13" y2="360.15"/><line class="f" x1="488.16" y1="362.56" x2="488.16" y2="360.15"/><rect class="d" x="369.84" y="359.29" width="43.34" height="7.22"/><line class="f" x1="413.18" y1="366.51" x2="369.84" y2="366.51"/><line class="f" x1="369.84" y1="366.51" x2="369.84" y2="359.29"/><line class="f" x1="369.84" y1="359.29" x2="413.18" y2="359.29"/><line class="f" x1="413.18" y1="359.29" x2="413.18" y2="366.51"/><polygon class="i" points="516.37 256.84 515.86 258.05 514.65 258.56 513.43 258.05 512.93 256.84 513.43 255.62 514.65 255.12 515.86 255.62 516.37 256.84"/><g class="h"><path class="f" d="M516.37,256.84a1.72,1.72,0,1,1-3.44,0"/><path class="f" d="M512.93,256.84a1.72,1.72,0,0,1,3.44,0"/></g><rect class="d" x="483.69" y="255.75" width="27.52" height="2.17"/><line class="f" x1="511.21" y1="257.92" x2="511.21" y2="255.75"/><line class="f" x1="483.69" y1="257.92" x2="511.21" y2="257.92"/><line class="f" x1="483.69" y1="255.75" x2="483.69" y2="257.92"/><line class="f" x1="511.21" y1="255.75" x2="483.69" y2="255.75"/><rect class="d" x="275.59" y="255.75" width="48.15" height="3.44"/><line class="f" x1="323.75" y1="255.75" x2="275.59" y2="255.75"/><line class="f" x1="323.75" y1="259.19" x2="323.75" y2="255.75"/><line class="f" x1="275.59" y1="259.19" x2="323.75" y2="259.19"/><line class="f" x1="275.59" y1="255.75" x2="275.59" y2="259.19"/><polygon class="i" points="328.9 257.47 328.4 258.69 327.19 259.19 325.97 258.69 325.47 257.47 325.97 256.26 327.19 255.75 328.4 256.26 328.9 257.47"/><g class="h"><path class="f" d="M328.9,257.47a1.72,1.72,0,1,1-3.43,0"/><path class="f" d="M325.47,257.47a1.72,1.72,0,1,1,3.43,0"/></g><rect class="d" x="372.59" y="254.03" width="15.48" height="102.85"/><line class="f" x1="388.07" y1="356.88" x2="372.59" y2="356.88"/><line class="f" x1="372.59" y1="356.88" x2="372.59" y2="254.03"/><line class="f" x1="372.59" y1="254.03" x2="388.07" y2="254.03"/><line class="f" x1="388.07" y1="254.03" x2="388.07" y2="356.88"/><polygon class="i" points="541.82 273.98 479.91 273.98 477.27 274.51 475.04 276 473.55 278.23 473.03 280.86 473.03 329.02 473.55 331.65 475.04 333.88 477.27 335.37 479.91 335.9 531.5 335.9 541.82 335.9 541.82 273.98"/><rect class="d" x="531.5" y="261.94" width="10.32" height="12.04"/><rect class="d" x="531.5" y="335.9" width="10.32" height="12.04"/><line class="f" x1="530.38" y1="306.89" x2="533.36" y2="307.71"/><line class="f" x1="530.38" y1="278.01" x2="533.36" y2="278.83"/><line class="f" x1="473.03" y1="329.02" x2="473.03" y2="280.86"/><line class="f" x1="479.91" y1="273.98" x2="541.82" y2="273.98"/><line class="f" x1="541.82" y1="273.98" x2="541.82" y2="335.9"/><line class="f" x1="541.82" y1="335.9" x2="479.91" y2="335.9"/><line class="f" x1="541.82" y1="273.98" x2="541.82" y2="261.95"/><line class="f" x1="541.82" y1="261.95" x2="531.5" y2="261.95"/><line class="f" x1="531.5" y1="261.95" x2="531.5" y2="273.98"/><line class="f" x1="531.5" y1="273.98" x2="541.82" y2="273.98"/><line class="f" x1="541.82" y1="347.94" x2="541.82" y2="335.9"/><line class="f" x1="541.82" y1="335.9" x2="531.5" y2="335.9"/><line class="f" x1="531.5" y1="335.9" x2="531.5" y2="347.94"/><line class="f" x1="531.5" y1="347.94" x2="541.82" y2="347.94"/><line class="f" x1="518.93" y1="273.98" x2="518.93" y2="335.9"/><line class="f" x1="513.77" y1="273.98" x2="513.77" y2="335.9"/><g class="h"><path class="f" d="M524.49,279.91c.32,3.24.49,6.49.49,9.75a97.56,97.56,0,0,1-.83,12.67"/><path class="f" d="M524.49,279.91a1.72,1.72,0,0,1,0-.39,1.84,1.84,0,0,1,1.84-1.84h.09"/><path class="f" d="M526.38,277.68c.27,0,.54,0,.82,0a14.15,14.15,0,0,1,3.18.35"/><path class="f" d="M530.38,278c1.73-.17,3.46-.26,5.19-.26q1.24,0,2.49.06"/><path class="f" d="M538.06,277.81l.12,0a.4.4,0,0,1,.39.39.28.28,0,0,1,0,.09"/><path class="f" d="M538.22,302.4q-.22-4.66-.23-9.34,0-7.41.57-14.79"/><path class="f" d="M538.22,302.4a1.49,1.49,0,0,1,0,.21,1,1,0,0,1-1,.95.81.81,0,0,1-.31-.05"/><path class="f" d="M525.12,303.33a45.9,45.9,0,0,1,11.86.18"/><path class="f" d="M525.12,303.33a.79.79,0,0,1-1-.76.67.67,0,0,1,0-.24"/><path class="f" d="M473,280.86a6.88,6.88,0,0,1,6.88-6.88"/><path class="f" d="M479.91,335.9A6.88,6.88,0,0,1,473,329"/><path class="f" d="M524.49,308.79c.32,3.24.49,6.5.49,9.75a97.56,97.56,0,0,1-.83,12.67"/><path class="f" d="M524.49,308.79a1.67,1.67,0,0,1,0-.39,1.84,1.84,0,0,1,1.84-1.84h.09"/><path class="f" d="M526.38,306.56l.82,0a14.76,14.76,0,0,1,3.18.35"/><path class="f" d="M530.38,306.89c1.73-.17,3.46-.25,5.19-.25.83,0,1.66,0,2.49.05"/><path class="f" d="M538.06,306.69h.12a.39.39,0,0,1,.39.39.25.25,0,0,1,0,.08"/><path class="f" d="M538.22,331.28q-.22-4.66-.23-9.34,0-7.41.57-14.79"/><path class="f" d="M538.22,331.28a1.49,1.49,0,0,1,0,.21,1,1,0,0,1-1,.95,1.06,1.06,0,0,1-.31,0"/><path class="f" d="M525.12,332.22a45.9,45.9,0,0,1,5.24-.31,47.22,47.22,0,0,1,6.62.48"/><path class="f" d="M525.12,332.22a.78.78,0,0,1-.22,0,.79.79,0,0,1-.79-.8.67.67,0,0,1,0-.24"/></g><polygon class="i" points="280.75 288.49 281.38 288.12 281.44 287.4 281.44 261.95 281.47 261.47 281.2 261.07 280.75 260.91 252.89 260.91 252.4 261.12 252.2 261.6 252.2 332.46 252.4 332.95 252.89 333.15 278 333.15 279.72 332.69 280.98 331.43 281.44 329.71 281.44 328.67 281.24 328.19 280.75 327.99 281.25 327.57 281.44 326.95 281.44 289.46 281.25 288.87 280.75 288.49"/><polygon class="i" points="303.8 288.43 306.43 287.91 308.66 286.42 310.15 284.18 310.67 281.55 310.67 267.79 310.15 265.16 308.66 262.93 306.43 261.44 303.8 260.91 282.47 260.91 281.74 261.22 281.44 261.94 281.44 287.4 281.74 288.13 282.47 288.43 303.8 288.43"/><line class="f" x1="282.47" y1="288.43" x2="303.8" y2="288.43"/><g class="h"><path class="f" d="M282.47,288.43a1,1,0,0,1-1-1"/></g><line class="f" x1="281.44" y1="261.95" x2="281.44" y2="287.4"/><g class="h"><path class="f" d="M281.44,262a1,1,0,0,1,1-1"/></g><line class="f" x1="303.8" y1="260.91" x2="282.47" y2="260.91"/><g class="h"><path class="f" d="M303.8,260.91a6.88,6.88,0,0,1,6.87,6.88"/></g><line class="f" x1="310.67" y1="281.55" x2="310.67" y2="267.79"/><g class="h"><path class="f" d="M310.67,281.55a6.88,6.88,0,0,1-6.87,6.88"/></g><line class="f" x1="281.44" y1="328.67" x2="281.44" y2="329.71"/><line class="f" x1="278" y1="333.15" x2="252.89" y2="333.15"/><line class="f" x1="252.2" y1="332.46" x2="252.2" y2="328.67"/><line class="f" x1="252.89" y1="327.99" x2="280.75" y2="327.99"/><line class="f" x1="252.2" y1="328.67" x2="252.2" y2="288.43"/><line class="f" x1="252.2" y1="288.43" x2="254.61" y2="288.43"/><line class="f" x1="281.44" y1="289.46" x2="281.44" y2="326.95"/><line class="f" x1="280.41" y1="327.99" x2="263.16" y2="327.99"/><line class="f" x1="263.16" y1="288.43" x2="280.41" y2="288.43"/><line class="f" x1="254.61" y1="327.99" x2="261.1" y2="327.99"/><line class="f" x1="261.1" y1="288.43" x2="254.61" y2="288.43"/><line class="f" x1="281.44" y1="265.38" x2="281.44" y2="261.6"/><line class="f" x1="280.75" y1="260.91" x2="252.89" y2="260.91"/><line class="f" x1="252.2" y1="261.6" x2="252.2" y2="265.39"/><line class="f" x1="252.2" y1="265.38" x2="252.2" y2="288.43"/><line class="f" x1="252.2" y1="288.43" x2="254.61" y2="288.43"/><line class="f" x1="281.44" y1="287.4" x2="281.44" y2="267.1"/><line class="f" x1="263.16" y1="288.43" x2="280.41" y2="288.43"/><line class="f" x1="263.16" y1="288.43" x2="254.61" y2="288.43"/><line class="f" x1="310.67" y1="281.55" x2="310.67" y2="267.79"/><line class="f" x1="303.8" y1="260.91" x2="282.47" y2="260.91"/><line class="f" x1="281.44" y1="261.95" x2="281.44" y2="287.4"/><line class="f" x1="282.47" y1="288.43" x2="303.8" y2="288.43"/><line class="f" x1="253.58" y1="287.4" x2="253.58" y2="261.95"/><line class="f" x1="253.58" y1="289.46" x2="253.58" y2="326.95"/><g class="h"><path class="f" d="M252.89,333.15a.69.69,0,0,1-.69-.69"/><path class="f" d="M252.2,328.67a.69.69,0,0,1,.69-.68"/><path class="f" d="M280.75,328a.69.69,0,0,1,.69.68"/><path class="f" d="M281.44,327a1,1,0,0,1-1,1"/><path class="f" d="M280.41,288.43a1,1,0,0,1,1,1"/><path class="f" d="M280.75,260.91a.69.69,0,0,1,.69.69"/><path class="f" d="M252.2,261.6a.69.69,0,0,1,.69-.69"/><path class="f" d="M281.44,287.4a1,1,0,0,1-1,1"/><path class="f" d="M281.44,262a1,1,0,0,1,1-1"/><path class="f" d="M282.47,288.43a1,1,0,0,1-1-1"/></g><line class="f" x1="253.58" y1="261.95" x2="277.01" y2="261.95"/><g class="h"><path class="f" d="M257.58,287.44a19.51,19.51,0,0,1,14.69-24.25"/><path class="f" d="M258.39,289.46a117.88,117.88,0,0,1,0,37.49"/><path class="f" d="M310.67,281.55a6.88,6.88,0,0,1-6.87,6.88"/><path class="f" d="M303.8,260.91a6.88,6.88,0,0,1,6.87,6.88"/><path class="f" d="M281.44,329.71a3.45,3.45,0,0,1-3.44,3.44"/></g><rect class="d" x="390.48" y="254.03" width="20.64" height="51.77"/><line class="f" x1="390.47" y1="305.8" x2="390.47" y2="254.03"/><line class="f" x1="390.47" y1="254.03" x2="411.11" y2="254.03"/><line class="f" x1="411.11" y1="254.03" x2="411.11" y2="305.8"/><line class="f" x1="411.11" y1="305.8" x2="390.48" y2="305.8"/><line class="f" x1="400.79" y1="303.21" x2="400.79" y2="256.62"/><line class="f" x1="394.72" y1="300.81" x2="407.09" y2="296.43"/><line class="f" x1="394.11" y1="295.87" x2="405.61" y2="294.06"/><line class="f" x1="408.23" y1="289.13" x2="395.61" y2="287.64"/><line class="f" x1="406.58" y1="281.5" x2="395.61" y2="283.52"/><line class="f" x1="407.21" y1="278.72" x2="393.69" y2="278.72"/><line class="f" x1="407.27" y1="270.85" x2="393.91" y2="272.72"/><line class="f" x1="407.04" y1="267.9" x2="394.85" y2="267.9"/><line class="f" x1="407.17" y1="260.14" x2="394.66" y2="258.65"/><line class="f" x1="406.32" y1="262.01" x2="395.74" y2="263.52"/><rect class="d" x="390.48" y="305.8" width="20.64" height="51.08"/><line class="f" x1="390.47" y1="356.88" x2="390.47" y2="305.8"/><line class="f" x1="390.47" y1="305.8" x2="411.11" y2="305.8"/><line class="f" x1="411.11" y1="305.8" x2="411.11" y2="356.88"/><line class="f" x1="411.11" y1="356.88" x2="390.48" y2="356.88"/><line class="f" x1="400.79" y1="354.33" x2="400.79" y2="308.36"/><line class="f" x1="394.72" y1="351.96" x2="407.09" y2="347.64"/><line class="f" x1="394.11" y1="347.08" x2="405.61" y2="345.3"/><line class="f" x1="408.23" y1="340.43" x2="395.61" y2="338.97"/><line class="f" x1="406.58" y1="332.9" x2="395.61" y2="334.89"/><line class="f" x1="407.21" y1="330.16" x2="393.69" y2="330.16"/><line class="f" x1="407.27" y1="322.39" x2="393.91" y2="324.23"/><line class="f" x1="407.04" y1="319.48" x2="394.85" y2="319.48"/><line class="f" x1="407.17" y1="311.82" x2="394.66" y2="310.35"/><line class="f" x1="406.32" y1="313.67" x2="395.74" y2="315.16"/><polygon class="i" points="327.16 350.4 327.18 342.71 326.72 340.98 325.47 339.71 323.75 339.24 316.88 339.2 315.16 339.65 313.9 340.9 313.43 342.63 313.41 350.33 316.73 348.97 320.29 348.52 323.85 349.01 327.16 350.4"/><polygon class="i" points="327.09 374.27 333.74 378.16 335.46 378.63 337.18 378.18 338.44 376.92 341.89 370.98 342.36 369.26 341.9 367.54 340.65 366.27 334 362.38 333.52 365.94 332.14 369.25 329.95 372.1 327.09 374.27"/><polygon class="i" points="306.5 362.22 299.83 366.03 298.57 367.28 298.11 369 298.56 370.72 301.98 376.71 303.24 377.98 304.95 378.45 306.68 378 313.34 374.19 310.5 371.98 308.32 369.11 306.96 365.78 306.5 362.22"/><polygon class="i" points="313.41 350.33 316.73 348.97 320.29 348.52 323.85 349.01 327.16 350.4 330 352.61 332.18 355.48 333.54 358.81 334 362.38 333.52 365.94 332.14 369.25 329.95 372.1 327.09 374.27 323.77 375.63 320.21 376.07 316.65 375.58 313.34 374.19 310.5 371.98 308.32 369.11 306.96 365.78 306.5 362.22 306.98 358.65 308.36 355.34 310.56 352.5 313.41 350.33"/><line class="f" x1="313.41" y1="350.33" x2="316.73" y2="348.97"/><line class="f" x1="316.73" y1="348.97" x2="320.29" y2="348.52"/><line class="f" x1="320.29" y1="348.52" x2="323.85" y2="349.01"/><line class="f" x1="323.85" y1="349.01" x2="327.16" y2="350.4"/><line class="f" x1="327.16" y1="350.41" x2="330" y2="352.61"/><line class="f" x1="330" y1="352.61" x2="332.18" y2="355.48"/><line class="f" x1="332.18" y1="355.48" x2="333.54" y2="358.81"/><line class="f" x1="333.54" y1="358.81" x2="334" y2="362.38"/><line class="f" x1="334" y1="362.38" x2="333.52" y2="365.94"/><line class="f" x1="333.52" y1="365.94" x2="332.14" y2="369.25"/><line class="f" x1="332.14" y1="369.26" x2="329.95" y2="372.1"/><line class="f" x1="329.95" y1="372.1" x2="327.09" y2="374.27"/><line class="f" x1="327.09" y1="374.27" x2="323.77" y2="375.63"/><line class="f" x1="323.77" y1="375.63" x2="320.21" y2="376.07"/><line class="f" x1="320.21" y1="376.07" x2="316.65" y2="375.58"/><line class="f" x1="316.65" y1="375.58" x2="313.34" y2="374.19"/><line class="f" x1="313.34" y1="374.19" x2="310.5" y2="371.98"/><line class="f" x1="310.5" y1="371.98" x2="308.32" y2="369.11"/><line class="f" x1="308.32" y1="369.11" x2="306.96" y2="365.78"/><line class="f" x1="306.96" y1="365.78" x2="306.5" y2="362.22"/><line class="f" x1="306.5" y1="362.22" x2="306.98" y2="358.65"/><line class="f" x1="306.98" y1="358.65" x2="308.36" y2="355.34"/><line class="f" x1="308.36" y1="355.34" x2="310.56" y2="352.5"/><line class="f" x1="310.55" y1="352.5" x2="313.41" y2="350.33"/><g class="h"><path class="f" d="M332.18,355.48h0a13.74,13.74,0,1,1-23.86,13.63"/><path class="f" d="M308.32,369.12h0a13.74,13.74,0,1,1,23.86-13.64"/></g><line class="f" x1="323.75" y1="340.96" x2="316.87" y2="340.93"/><line class="f" x1="313.43" y1="342.63" x2="313.41" y2="350.33"/><line class="f" x1="323.75" y1="339.24" x2="316.88" y2="339.2"/><line class="f" x1="327.16" y1="350.41" x2="327.18" y2="342.71"/><line class="f" x1="336.95" y1="376.05" x2="340.41" y2="370.11"/><line class="f" x1="340.65" y1="366.27" x2="334" y2="362.38"/><line class="f" x1="338.44" y1="376.92" x2="341.89" y2="370.98"/><line class="f" x1="327.09" y1="374.27" x2="333.74" y2="378.16"/><line class="f" x1="300.05" y1="369.87" x2="303.47" y2="375.86"/><line class="f" x1="306.67" y1="378" x2="313.34" y2="374.19"/><line class="f" x1="298.56" y1="370.72" x2="301.98" y2="376.71"/><line class="f" x1="306.5" y1="362.22" x2="299.83" y2="366.03"/><g class="h"><path class="f" d="M315.15,342.64a1.71,1.71,0,0,1,.86-1.49,1.62,1.62,0,0,1,.86-.22"/><path class="f" d="M323.75,341a1.75,1.75,0,0,1,1.71,1.74"/><path class="f" d="M313.43,342.63a3.43,3.43,0,0,1,1.73-3,3.53,3.53,0,0,1,1.72-.45"/><path class="f" d="M323.75,339.24a3.47,3.47,0,0,1,3,1.74,3.6,3.6,0,0,1,.45,1.73"/><path class="f" d="M339.78,367.75a1.68,1.68,0,0,1,.63.64,1.71,1.71,0,0,1,0,1.72"/><path class="f" d="M337,376.05a1.73,1.73,0,0,1-.63.63,1.71,1.71,0,0,1-1.72,0"/><path class="f" d="M340.65,366.27a3.39,3.39,0,0,1,1.25,1.27,3.44,3.44,0,0,1,0,3.44"/><path class="f" d="M338.44,376.92a3.49,3.49,0,0,1-1.27,1.26,3.42,3.42,0,0,1-3.43,0"/><path class="f" d="M305.82,376.5a1.73,1.73,0,0,1-2.35-.64"/><path class="f" d="M300.05,369.87a1.73,1.73,0,0,1,.64-2.35"/><path class="f" d="M306.67,378h0a3.45,3.45,0,0,1-4.69-1.29"/><path class="f" d="M298.56,370.72a3.44,3.44,0,0,1,1.27-4.69"/></g><polygon class="i" points="464.33 419.48 482.21 419.48 482.58 419.33 482.73 418.96 482.73 404.86 482.58 404.5 482.21 404.35 464.33 404.35 463.96 404.5 463.81 404.86 463.81 418.96 463.96 419.33 464.33 419.48"/><g class="h"><path class="f" d="M464.33,419.48a.51.51,0,0,1-.52-.51"/></g><line class="f" x1="463.81" y1="404.86" x2="463.81" y2="418.97"/><g class="h"><path class="f" d="M463.81,404.86a.51.51,0,0,1,.52-.51"/></g><line class="f" x1="482.21" y1="404.35" x2="464.33" y2="404.35"/><g class="h"><path class="f" d="M482.21,404.35a.51.51,0,0,1,.52.51"/></g><line class="f" x1="482.73" y1="418.97" x2="482.73" y2="404.86"/><g class="h"><path class="f" d="M482.73,419a.51.51,0,0,1-.52.51"/></g><line class="f" x1="464.33" y1="419.48" x2="482.21" y2="419.48"/><line class="f" x1="465.36" y1="415.7" x2="481.18" y2="415.7"/><line class="f" x1="481.7" y1="415.18" x2="481.7" y2="405.89"/><line class="f" x1="481.18" y1="405.38" x2="465.36" y2="405.38"/><line class="f" x1="464.84" y1="405.89" x2="464.84" y2="415.18"/><g class="h"><path class="f" d="M481.7,415.18a.52.52,0,0,1-.52.52"/><path class="f" d="M481.18,405.38a.51.51,0,0,1,.52.51"/><path class="f" d="M464.84,405.89a.52.52,0,0,1,.52-.51"/><path class="f" d="M465.36,415.7a.52.52,0,0,1-.52-.52"/></g><polygon class="i" points="472.41 417.42 472.55 415.98 472.66 415.65 472.89 413.83 473.02 413.59 473.27 413.49 473.52 413.59 473.65 413.83 473.88 415.65 473.99 415.98 474.13 417.42 473.88 418.03 473.27 418.28 472.66 418.03 472.41 417.42"/><line class="f" x1="472.41" y1="417.42" x2="472.55" y2="415.98"/><g class="h"><path class="f" d="M472.55,416a.76.76,0,0,1,.11-.33"/></g><line class="f" x1="472.66" y1="415.65" x2="472.89" y2="413.83"/><g class="h"><path class="f" d="M472.89,413.83a.38.38,0,0,1,.76,0"/></g><line class="f" x1="473.65" y1="413.83" x2="473.88" y2="415.65"/><g class="h"><path class="f" d="M473.88,415.65a.65.65,0,0,1,.11.33"/></g><line class="f" x1="473.99" y1="415.98" x2="474.13" y2="417.42"/><g class="h"><path class="f" d="M474.13,417.42a.86.86,0,0,1-1.72,0"/></g><line class="f" x1="473.74" y1="416.56" x2="473.74" y2="416.05"/><line class="f" x1="472.8" y1="416.05" x2="472.8" y2="416.56"/><line class="f" x1="472.8" y1="416.56" x2="473.74" y2="416.56"/><g class="h"><path class="f" d="M472.8,416.05a.47.47,0,1,1,.94,0"/><path class="f" d="M472.66,415.65a.73.73,0,0,1,1.22,0"/></g><polygon class="i" points="490.74 419.48 503.47 419.48 503.47 408.13 503.2 406.43 502.43 404.89 501.23 403.66 499.28 402.64 497.11 402.28 494.93 402.64 492.98 403.66 491.78 404.89 491.01 406.43 490.74 408.13 490.74 419.48"/><line class="f" x1="503.47" y1="419.48" x2="503.47" y2="408.13"/><line class="f" x1="503.47" y1="419.48" x2="490.74" y2="419.48"/><line class="f" x1="490.74" y1="419.48" x2="490.74" y2="408.13"/><line class="f" x1="501.4" y1="415.35" x2="501.4" y2="408.13"/><line class="f" x1="492.81" y1="415.35" x2="492.81" y2="408.13"/><line class="f" x1="492.81" y1="415.35" x2="501.41" y2="415.35"/><g class="h"><path class="f" d="M501.23,403.66a5.57,5.57,0,0,1,2.24,4.47"/><path class="f" d="M490.74,408.13a5.59,5.59,0,0,1,2.24-4.47"/><path class="f" d="M493,403.66a6.86,6.86,0,0,1,8.25,0"/><path class="f" d="M490.74,408.13a5.59,5.59,0,0,1,2.24-4.47"/><path class="f" d="M493,403.66a6.9,6.9,0,0,1,4.12-1.38"/><path class="f" d="M492.81,408.13a3.52,3.52,0,0,1,1.41-2.82"/><path class="f" d="M494.22,405.31a4.75,4.75,0,0,1,2.88-1,4.81,4.81,0,0,1,2.9,1"/><path class="f" d="M500,405.31a3.52,3.52,0,0,1,1.41,2.82"/></g><polygon class="i" points="378.93 309.91 377.55 308.21 376.81 306.08 376.81 303.8 377.55 301.67 378.93 299.97 378.93 289.26 380.84 289.26 382.75 297.1 382.75 299.38 383.79 303.03 383.79 306.85 382.75 310.5 382.75 312.78 380.84 320.63 378.93 320.63 378.93 309.91"/><line class="f" x1="378.93" y1="309.91" x2="377.55" y2="308.21"/><line class="f" x1="377.55" y1="308.21" x2="376.81" y2="306.08"/><line class="f" x1="376.81" y1="306.08" x2="376.81" y2="303.8"/><line class="f" x1="376.81" y1="303.8" x2="377.55" y2="301.67"/><line class="f" x1="377.55" y1="301.67" x2="378.93" y2="299.97"/><line class="f" x1="378.93" y1="299.97" x2="378.93" y2="289.26"/><line class="f" x1="378.93" y1="289.26" x2="380.84" y2="289.26"/><line class="f" x1="380.84" y1="289.26" x2="382.75" y2="297.1"/><line class="f" x1="382.75" y1="297.1" x2="382.75" y2="299.38"/><line class="f" x1="382.75" y1="299.38" x2="383.79" y2="303.03"/><line class="f" x1="383.79" y1="303.03" x2="383.79" y2="306.85"/><line class="f" x1="383.79" y1="306.85" x2="382.75" y2="310.5"/><line class="f" x1="382.75" y1="310.5" x2="382.75" y2="312.78"/><line class="f" x1="382.75" y1="312.78" x2="380.84" y2="320.62"/><line class="f" x1="380.84" y1="320.63" x2="378.93" y2="320.63"/><line class="f" x1="378.93" y1="320.63" x2="378.93" y2="309.91"/><line class="f" x1="378.93" y1="320.63" x2="378.93" y2="289.26"/><line class="f" x1="382.75" y1="297.1" x2="382.75" y2="312.78"/><line class="f" x1="380.84" y1="320.63" x2="378.93" y2="320.63"/><line class="f" x1="379.69" y1="291.35" x2="379.69" y2="293.44"/><line class="f" x1="379.69" y1="293.44" x2="380.17" y2="293.44"/><line class="f" x1="380.17" y1="293.44" x2="380.17" y2="291.35"/><line class="f" x1="380.17" y1="291.35" x2="379.69" y2="291.35"/><line class="f" x1="379.69" y1="293.96" x2="379.69" y2="296.05"/><line class="f" x1="379.69" y1="296.05" x2="380.17" y2="296.05"/><line class="f" x1="380.17" y1="296.05" x2="380.17" y2="293.96"/><line class="f" x1="380.17" y1="293.96" x2="379.69" y2="293.96"/><line class="f" x1="380.84" y1="320.63" x2="380.84" y2="289.26"/><line class="f" x1="380.17" y1="296.58" x2="379.69" y2="296.58"/><line class="f" x1="379.69" y1="296.58" x2="379.69" y2="297.62"/><line class="f" x1="379.69" y1="297.62" x2="380.17" y2="297.62"/><line class="f" x1="380.17" y1="297.62" x2="380.17" y2="296.58"/><g class="h"><path class="f" d="M378.93,309.91a6.69,6.69,0,0,1,0-9.94"/></g><line class="f" x1="424.87" y1="424.64" x2="417.99" y2="424.64"/><line class="f" x1="414.21" y1="424.64" x2="413.43" y2="424.64"/><line class="f" x1="409.65" y1="424.64" x2="408.88" y2="424.64"/><line class="f" x1="405.09" y1="424.64" x2="398.21" y2="424.64"/><line class="f" x1="394.43" y1="424.64" x2="393.92" y2="424.64"/><line class="f" x1="393.91" y1="424.64" x2="387.04" y2="424.64"/><line class="f" x1="296.52" y1="417.3" x2="296.52" y2="411.54"/><line class="f" x1="296.52" y1="411.54" x2="294.18" y2="413.43"/><line class="f" x1="294.18" y1="413.43" x2="291.83" y2="411.53"/><line class="f" x1="291.83" y1="411.54" x2="291.83" y2="417.3"/><line class="f" x1="244.63" y1="186.96" x2="545.95" y2="186.96"/><line class="f" x1="244.63" y1="185.24" x2="545.95" y2="185.24"/><line class="f" x1="240.51" y1="432.9" x2="550.08" y2="432.9"/><line class="f" x1="550.08" y1="432.9" x2="550.08" y2="240.28"/><line class="f" x1="550.08" y1="240.28" x2="545.95" y2="240.28"/><line class="f" x1="545.95" y1="240.28" x2="545.95" y2="185.23"/><line class="f" x1="545.95" y1="185.23" x2="244.63" y2="185.23"/><line class="f" x1="244.63" y1="185.23" x2="244.63" y2="240.28"/><line class="f" x1="244.63" y1="240.28" x2="240.51" y2="240.28"/><line class="f" x1="240.51" y1="240.28" x2="240.51" y2="432.9"/><path class="j" d="M435.21,214.08v7h-.72v-6.36h-1.65v-.64Z"/><path class="j" d="M436.89,220.58a.53.53,0,0,1,.53-.54.54.54,0,0,1,.54.54.55.55,0,0,1-.54.55A.54.54,0,0,1,436.89,220.58Z"/><path class="j" d="M438.9,217.58c0-2.23,1.17-3.56,2.79-3.56s2.8,1.33,2.8,3.56-1.18,3.56-2.8,3.56S438.9,219.81,438.9,217.58Zm4.85,0c0-1.87-.84-2.9-2.06-2.9s-2.06,1-2.06,2.9.84,2.9,2.06,2.9S443.75,219.45,443.75,217.58Z"/><path class="j" d="M450.27,219c0,1.19-.83,2.12-2.54,2.12a3.61,3.61,0,0,1-2.51-.9l.35-.57a3,3,0,0,0,2.15.81c1.19,0,1.82-.58,1.82-1.43s-.56-1.46-2.34-1.46h-1.49l.36-3.51h3.83v.64h-3.2l-.24,2.23h.9C449.47,217,450.27,217.78,450.27,219Z"/><path class="j" d="M483.76,378.54v7H483v-6.36h-1.65v-.64Z"/><path class="j" d="M485.44,385a.53.53,0,0,1,.53-.54.54.54,0,0,1,.54.54.55.55,0,0,1-.54.55A.54.54,0,0,1,485.44,385Z"/><path class="j" d="M487.45,382c0-2.23,1.17-3.56,2.79-3.56s2.8,1.33,2.8,3.56-1.18,3.56-2.8,3.56S487.45,384.27,487.45,382Zm4.85,0c0-1.87-.84-2.9-2.06-2.9s-2.06,1-2.06,2.9.84,2.9,2.06,2.9S492.3,383.91,492.3,382Z"/><path class="j" d="M500,383.7h-1.4v1.84h-.72V383.7H494v-.52l3.71-4.64h.8l-3.58,4.52h3v-1.62h.7v1.62H500Z"/><path class="j" d="M435.21,302.32v7h-.72V303h-1.65v-.64Z"/><path class="j" d="M436.89,308.82a.53.53,0,0,1,.53-.54.54.54,0,0,1,.54.54.55.55,0,0,1-.54.55A.54.54,0,0,1,436.89,308.82Z"/><path class="j" d="M438.9,305.82c0-2.23,1.17-3.56,2.79-3.56s2.8,1.33,2.8,3.56-1.18,3.56-2.8,3.56S438.9,308.05,438.9,305.82Zm4.85,0c0-1.87-.84-2.9-2.06-2.9s-2.06,1-2.06,2.9.84,2.9,2.06,2.9S443.75,307.69,443.75,305.82Z"/><path class="j" d="M450.06,307.31c0,1.17-.85,2.07-2.54,2.07a3.64,3.64,0,0,1-2.52-.9l.35-.57a3.07,3.07,0,0,0,2.17.81c1.16,0,1.8-.54,1.8-1.41s-.59-1.39-1.89-1.39h-.5v-.53l1.94-2.43h-3.58v-.64h4.5v.51l-2,2.49C449.31,305.4,450.06,306.19,450.06,307.31Z"/><path class="j" d="M331.26,302.32v7h-.72V303h-1.65v-.64Z"/><path class="j" d="M332.94,308.82a.53.53,0,0,1,.53-.54.54.54,0,0,1,.54.54.55.55,0,0,1-.54.55A.54.54,0,0,1,332.94,308.82Z"/><path class="j" d="M335,305.82c0-2.23,1.17-3.56,2.79-3.56s2.8,1.33,2.8,3.56-1.18,3.56-2.8,3.56S335,308.05,335,305.82Zm4.85,0c0-1.87-.84-2.9-2.06-2.9s-2.06,1-2.06,2.9.84,2.9,2.06,2.9S339.8,307.69,339.8,305.82Z"/><path class="j" d="M346.34,308.68v.64h-4.91v-.51l2.91-2.85c.79-.78.94-1.25.94-1.73,0-.81-.57-1.31-1.64-1.31a2.38,2.38,0,0,0-1.91.78l-.51-.44a3.15,3.15,0,0,1,2.48-1c1.42,0,2.32.72,2.32,1.89a2.88,2.88,0,0,1-1.15,2.19l-2.38,2.34Z"/><path class="j" d="M394.76,378.54v7H394v-6.36h-1.65v-.64Z"/><path class="j" d="M396.44,385a.53.53,0,0,1,.53-.54.54.54,0,0,1,.54.54.55.55,0,0,1-.54.55A.54.54,0,0,1,396.44,385Z"/><path class="j" d="M398.45,382c0-2.23,1.17-3.56,2.79-3.56s2.8,1.33,2.8,3.56-1.18,3.56-2.8,3.56S398.45,384.27,398.45,382Zm4.85,0c0-1.87-.84-2.9-2.06-2.9s-2.06,1-2.06,2.9.84,2.9,2.06,2.9S403.3,383.91,403.3,382Z"/><path class="j" d="M407,378.54v7h-.72v-6.36h-1.65v-.64Z"/></svg>