<svg xmlns="http://www.w3.org/2000/svg" xmlns:xlink="http://www.w3.org/1999/xlink" viewBox="0 0 790.58 618.13"><defs><style>.a,.f{fill:none;}.b{fill:#595a5c;}.c{fill:#b6906c;}.d,.g{fill:#fff;}.e{fill:#231f20;}.f{stroke:#000;stroke-linecap:round;stroke-linejoin:round;stroke-width:0.35px;}.g,.h{fill-rule:evenodd;}.i{clip-path:url(#a);}.j{fill:#58595b;}</style><clipPath id="a"><polygon class="a" points="261.65 184.41 261.65 239.82 257.67 239.82 257.67 433.71 532.92 433.71 532.92 239.82 529.11 239.82 529.11 184.41 261.65 184.41"/></clipPath></defs><path class="b" d="M55.31,597.13H57.1V609.9H55.31Zm.92,6.11h4.09a1.89,1.89,0,0,0,1-.27,1.82,1.82,0,0,0,.68-.77,2.67,2.67,0,0,0,.24-1.16,2.7,2.7,0,0,0-.24-1.16,1.82,1.82,0,0,0-1.7-1H56.23v-1.7h4a4.09,4.09,0,0,1,2,.48A3.45,3.45,0,0,1,63.62,599a4.64,4.64,0,0,1,0,4.11,3.34,3.34,0,0,1-1.35,1.36,4,4,0,0,1-2,.49h-4Z"/><path class="b" d="M67.7,606.33a2.07,2.07,0,0,0,.49,1.48,1.76,1.76,0,0,0,1.37.52,1.89,1.89,0,0,0,1.37-.46,1.79,1.79,0,0,0,.48-1.33l.12,1.91A2.58,2.58,0,0,1,69.06,610a2.89,2.89,0,0,1-2.33-1,4.08,4.08,0,0,1-.82-2.73v-5.55H67.7Zm.22-7.86a1.93,1.93,0,0,1-.56-1.5,2.07,2.07,0,0,1,.56-1.57,2.56,2.56,0,0,1,3.18,0,2.08,2.08,0,0,1,.57,1.56,1.94,1.94,0,0,1-.57,1.5,2.65,2.65,0,0,1-3.18,0Zm2.26-.86a.94.94,0,0,0,.24-.68,1,1,0,0,0-.24-.7.91.91,0,0,0-.67-.25.92.92,0,0,0-.67.25,1,1,0,0,0-.23.7,1,1,0,0,0,.23.68.92.92,0,0,0,.67.24A.9.9,0,0,0,70.18,597.61Zm1.23,3.17h1.78v9.12H71.41Z"/><path class="b" d="M77.1,609.63A2.82,2.82,0,0,1,76,608.36a5.08,5.08,0,0,1-.36-2v-2a5.05,5.05,0,0,1,.36-2,2.71,2.71,0,0,1,1-1.27,3,3,0,0,1,1.65-.44,2.71,2.71,0,0,1,1.48.42,3.22,3.22,0,0,1,1.09,1.19l-.18,1.86a2.19,2.19,0,0,0-.22-1,1.48,1.48,0,0,0-.61-.63,2,2,0,0,0-1-.21,1.71,1.71,0,0,0-1.37.55,2.26,2.26,0,0,0-.49,1.56v2a2.19,2.19,0,0,0,.49,1.54,1.74,1.74,0,0,0,1.37.54,1.93,1.93,0,0,0,1-.23,1.45,1.45,0,0,0,.61-.64,2.25,2.25,0,0,0,.22-1l.12,1.92a2.66,2.66,0,0,1-.89,1.14,2.56,2.56,0,0,1-1.53.45A3.19,3.19,0,0,1,77.1,609.63Zm4-12.5H82.9V609.9H81.11Z"/><path class="b" d="M87.09,609.57a3.09,3.09,0,0,1-1.29-1.36,4.85,4.85,0,0,1-.44-2.15v-1.48a4.71,4.71,0,0,1,.44-2.12,3.12,3.12,0,0,1,1.29-1.35,4.71,4.71,0,0,1,4.06,0,3.12,3.12,0,0,1,1.29,1.35,4.71,4.71,0,0,1,.44,2.12v1.51a4.79,4.79,0,0,1-.44,2.13,3.12,3.12,0,0,1-1.29,1.35,4.62,4.62,0,0,1-4.06,0Zm3.49-1.83a2.43,2.43,0,0,0,.51-1.65v-1.51a2.43,2.43,0,0,0-.51-1.65,1.88,1.88,0,0,0-1.46-.58,1.85,1.85,0,0,0-1.45.58,2.38,2.38,0,0,0-.52,1.65v1.51a2.38,2.38,0,0,0,.52,1.65,1.82,1.82,0,0,0,1.45.59A1.85,1.85,0,0,0,90.58,607.74Z"/><path class="b" d="M95.43,600.78h1.79v9.12H95.43Zm4.42,1.72a2.16,2.16,0,0,0-.83-.15,1.83,1.83,0,0,0-1.33.47,1.79,1.79,0,0,0-.47,1.31L97,602.37a3.32,3.32,0,0,1,1.09-1.27,2.58,2.58,0,0,1,1.48-.45,3.39,3.39,0,0,1,1.13.18,2.62,2.62,0,0,1,.88.53l-1.17,1.58A1.56,1.56,0,0,0,99.85,602.5Z"/><path class="b" d="M102.15,600.78H104l2.81,7.93-1,1.94Zm8.07,0L106.34,612a2.6,2.6,0,0,1-.56,1,1.87,1.87,0,0,1-.84.52,4,4,0,0,1-1.23.16h-.36V612h.36a1.46,1.46,0,0,0,.8-.2,1.74,1.74,0,0,0,.51-.7l3.38-10.31Z"/><path class="b" d="M113.51,609.88a5.76,5.76,0,0,1-1.32-.48,4.89,4.89,0,0,1-1.13-.79l1.06-1.31a5.86,5.86,0,0,0,1.47.85,4.18,4.18,0,0,0,1.44.28,3.11,3.11,0,0,0,1.6-.33,1.1,1.1,0,0,0,.53-1,.79.79,0,0,0-.29-.66,1.66,1.66,0,0,0-.72-.29c-.29,0-.69-.1-1.22-.14h-.15l-.14,0h-.15a6.45,6.45,0,0,1-1.5-.26,2,2,0,0,1-1-.7,2.38,2.38,0,0,1-.41-1.49,3.07,3.07,0,0,1,.39-1.61,2.41,2.41,0,0,1,1.18-1,5.29,5.29,0,0,1,2-.32,6.38,6.38,0,0,1,2.6.52,6.16,6.16,0,0,1,1.13.66l-1.08,1.31a5.59,5.59,0,0,0-1.35-.66,4,4,0,0,0-1.3-.22,2.44,2.44,0,0,0-1.37.31,1.08,1.08,0,0,0-.46.94.64.64,0,0,0,.26.55,1.72,1.72,0,0,0,.66.25c.26,0,.64.07,1.12.1h.34a7.67,7.67,0,0,1,1.63.25,2.24,2.24,0,0,1,1.13.77,2.62,2.62,0,0,1,.45,1.65,2.92,2.92,0,0,1-.42,1.63,2.54,2.54,0,0,1-1.27,1A5.88,5.88,0,0,1,115,610,7.38,7.38,0,0,1,113.51,609.88Z"/><path class="b" d="M126,597.13h1.8V609.9H126Zm2.6,12.5a2.39,2.39,0,0,1-.93-1.16l.13-1.91a2.22,2.22,0,0,0,.21,1,1.48,1.48,0,0,0,.61.63,1.93,1.93,0,0,0,1,.22,1.74,1.74,0,0,0,1.37-.54,2.18,2.18,0,0,0,.49-1.53v-2a2.26,2.26,0,0,0-.49-1.56,1.71,1.71,0,0,0-1.37-.55,2,2,0,0,0-1,.21,1.36,1.36,0,0,0-.61.62,2.12,2.12,0,0,0-.21,1l-.19-1.76a3.37,3.37,0,0,1,1.08-1.24,2.67,2.67,0,0,1,1.49-.43,3,3,0,0,1,1.65.43,2.9,2.9,0,0,1,1.06,1.27,5.1,5.1,0,0,1,.36,2v2a4.94,4.94,0,0,1-.37,2,2.79,2.79,0,0,1-1.08,1.26,3.25,3.25,0,0,1-1.71.44A2.73,2.73,0,0,1,128.57,609.63Z"/><path class="b" d="M134.46,600.78h1.82l2.81,7.93-1,1.94Zm8.07,0L138.65,612a2.6,2.6,0,0,1-.56,1,1.87,1.87,0,0,1-.84.52,4,4,0,0,1-1.23.16h-.36V612H136a1.46,1.46,0,0,0,.8-.2,1.74,1.74,0,0,0,.51-.7l3.37-10.31Z"/><path class="b" d="M143.57,600.78h4.12v1.62h-4.12Zm1.46,8.56a2.77,2.77,0,0,1-.52-1.81v-9.4h1.8v9.42a.84.84,0,0,0,.13.51.46.46,0,0,0,.39.18h.86V610h-1A2,2,0,0,1,145,609.34Z"/><path class="b" d="M151.94,606.33a2.07,2.07,0,0,0,.49,1.48,1.76,1.76,0,0,0,1.37.52,1.91,1.91,0,0,0,1.37-.46,1.79,1.79,0,0,0,.48-1.33l.12,1.91A2.58,2.58,0,0,1,153.3,610a2.89,2.89,0,0,1-2.33-1,4.08,4.08,0,0,1-.82-2.73v-5.55h1.79Zm3.71-5.55h1.78v9.12h-1.78Z"/><rect class="c" x="612.92" y="591.68" width="35.43" height="2.83"/><path class="d" d="M648.48,594.64H612.79v-3.08h35.69ZM613,594.39h35.19v-2.58H613Z"/><rect class="c" x="612.92" y="601.6" width="70.74" height="2.83"/><path class="d" d="M683.78,604.56h-71v-3.08h71ZM613,604.31h70.49v-2.58H613Z"/><rect class="c" x="612.92" y="612.72" width="177.16" height="2.84"/><path class="d" d="M790.21,615.68H612.79V612.6H790.21ZM613,615.43H790v-2.58H613Z"/><path class="e" d="M587.26,596.28h-.8v-4.82l-.81.5v-.83l.81-.53h.8Z"/><path class="e" d="M589,595.91a1.67,1.67,0,0,1-.41-1.19v-2.58A1.65,1.65,0,0,1,589,591a2,2,0,0,1,2.42,0,1.65,1.65,0,0,1,.41,1.19v2.58a1.65,1.65,0,0,1-.41,1.19,2,2,0,0,1-2.42,0Zm1.83-.55a.89.89,0,0,0,.2-.64v-2.58a.89.89,0,0,0-.2-.64.82.82,0,0,0-.62-.22.86.86,0,0,0-.63.22.94.94,0,0,0-.2.64v2.58a.9.9,0,0,0,.21.64,1,1,0,0,0,1.24,0Z"/><path class="e" d="M593.22,595.91a1.67,1.67,0,0,1-.41-1.19v-2.58a1.65,1.65,0,0,1,.41-1.19,2,2,0,0,1,2.42,0,1.61,1.61,0,0,1,.41,1.19v2.58a1.65,1.65,0,0,1-.41,1.19,2,2,0,0,1-2.42,0Zm1.83-.55a.9.9,0,0,0,.21-.64v-2.58a.94.94,0,0,0-.2-.64.86.86,0,0,0-.63-.22.82.82,0,0,0-.62.22.89.89,0,0,0-.2.64v2.58a.89.89,0,0,0,.2.64,1,1,0,0,0,1.24,0Z"/><path class="e" d="M600.1,596.13a1.45,1.45,0,0,1-.6-.6,2.06,2.06,0,0,1-.21-1v-.67a2,2,0,0,1,.21-.94,1.37,1.37,0,0,1,.6-.59,2,2,0,0,1,.95-.21,2.21,2.21,0,0,1,.59.08,1.68,1.68,0,0,1,.51.22,1.54,1.54,0,0,1,.37.35l-.58.52a1.17,1.17,0,0,0-.4-.3,1.13,1.13,0,0,0-.48-.11.94.94,0,0,0-.71.26,1,1,0,0,0-.26.72v.67a1,1,0,0,0,.25.74.94.94,0,0,0,.72.27,1,1,0,0,0,.48-.12,1,1,0,0,0,.4-.32l.58.56a1.38,1.38,0,0,1-.38.34,1.62,1.62,0,0,1-.5.22,2.27,2.27,0,0,1-.59.07A2.12,2.12,0,0,1,600.1,596.13Z"/><path class="e" d="M603.4,592.22h.79v4.06h-.79Zm2.42,1.6a1,1,0,0,0-.21-.67.78.78,0,0,0-.6-.23.81.81,0,0,0-.6.21.73.73,0,0,0-.22.58l-.08-.78a1.46,1.46,0,0,1,.49-.57,1.22,1.22,0,0,1,.67-.2,1.33,1.33,0,0,1,.73.2,1.18,1.18,0,0,1,.46.56,2.4,2.4,0,0,1,.15.89v2.47h-.79Zm2.42,0a.93.93,0,0,0-.22-.67.85.85,0,0,0-.63-.23.72.72,0,0,0-.57.23.9.9,0,0,0-.21.64l-.16-.78a1.61,1.61,0,0,1,.51-.63,1.23,1.23,0,0,1,.69-.22,1.37,1.37,0,0,1,.75.2,1.09,1.09,0,0,1,.47.56,2.21,2.21,0,0,1,.17.89v2.47h-.8Z"/><path class="e" d="M584.33,605.5l2-2.64a1.85,1.85,0,0,0,.27-.47,1.29,1.29,0,0,0,.09-.45h0a.67.67,0,0,0-.2-.53.81.81,0,0,0-.56-.19.76.76,0,0,0-.56.21,1,1,0,0,0-.27.58h-.82a2,2,0,0,1,.29-.83,1.42,1.42,0,0,1,.56-.53,1.67,1.67,0,0,1,.79-.18,1.93,1.93,0,0,1,.87.17,1.21,1.21,0,0,1,.54.51,1.55,1.55,0,0,1,.19.8h0a1.84,1.84,0,0,1-.12.63,2.8,2.8,0,0,1-.35.63l-1.65,2.24h2.15v.76h-3.2Z"/><path class="e" d="M589,605.83a1.67,1.67,0,0,1-.41-1.19v-2.58a1.65,1.65,0,0,1,.41-1.19,2,2,0,0,1,2.42,0,1.65,1.65,0,0,1,.41,1.19v2.58a1.65,1.65,0,0,1-.41,1.19,2,2,0,0,1-2.42,0Zm1.83-.55a.89.89,0,0,0,.2-.64v-2.58a.89.89,0,0,0-.2-.64.82.82,0,0,0-.62-.22.86.86,0,0,0-.63.22.94.94,0,0,0-.19.64v2.58a.89.89,0,0,0,.2.64,1,1,0,0,0,1.24,0Z"/><path class="e" d="M593.22,605.83a1.67,1.67,0,0,1-.41-1.19v-2.58a1.61,1.61,0,0,1,.42-1.19,1.59,1.59,0,0,1,1.2-.42,1.45,1.45,0,0,1,1.62,1.61v2.58a1.61,1.61,0,0,1-.41,1.19,2,2,0,0,1-2.42,0Zm1.84-.55a.94.94,0,0,0,.2-.64v-2.58a.94.94,0,0,0-.2-.64.84.84,0,0,0-.63-.22.82.82,0,0,0-.62.22.89.89,0,0,0-.2.64v2.58a.89.89,0,0,0,.2.64.82.82,0,0,0,.62.22A.86.86,0,0,0,595.06,605.28Z"/><path class="e" d="M600.1,606.05a1.45,1.45,0,0,1-.6-.6,2.06,2.06,0,0,1-.2-1v-.67a2,2,0,0,1,.2-.94,1.37,1.37,0,0,1,.6-.59,2,2,0,0,1,.95-.21,2.35,2.35,0,0,1,.6.08,1.73,1.73,0,0,1,.5.22,1.38,1.38,0,0,1,.37.35l-.58.52a1.08,1.08,0,0,0-.4-.3,1.13,1.13,0,0,0-.48-.11,1,1,0,0,0-.71.26,1,1,0,0,0-.26.72v.67a1,1,0,0,0,.25.74.94.94,0,0,0,.72.27,1.14,1.14,0,0,0,.88-.44l.58.56a1.38,1.38,0,0,1-.38.34,1.62,1.62,0,0,1-.5.22,2.22,2.22,0,0,1-.59.07A2.12,2.12,0,0,1,600.1,606.05Z"/><path class="e" d="M603.4,602.14h.79v4.06h-.79Zm2.42,1.6a1,1,0,0,0-.21-.67.78.78,0,0,0-.6-.23.81.81,0,0,0-.6.21.73.73,0,0,0-.22.58l-.08-.78a1.46,1.46,0,0,1,.49-.57,1.22,1.22,0,0,1,.67-.2,1.3,1.3,0,0,1,.73.2,1.18,1.18,0,0,1,.46.56,2.4,2.4,0,0,1,.16.89v2.47h-.8Zm2.42,0a.93.93,0,0,0-.22-.67.85.85,0,0,0-.63-.23.73.73,0,0,0-.57.23.89.89,0,0,0-.2.64l-.16-.78a1.51,1.51,0,0,1,.5-.63,1.23,1.23,0,0,1,.69-.22,1.35,1.35,0,0,1,.75.2,1.16,1.16,0,0,1,.48.56,2.4,2.4,0,0,1,.16.89v2.47h-.8Z"/><path class="e" d="M585,615.58a1.34,1.34,0,0,1-.54-.49,2,2,0,0,1-.28-.77h.8a.75.75,0,0,0,.25.49.85.85,0,0,0,.54.17.72.72,0,0,0,.59-.25,1.1,1.1,0,0,0,.21-.72v-.48a1.1,1.1,0,0,0-.21-.72.72.72,0,0,0-.59-.25.83.83,0,0,0-.4.11,1.18,1.18,0,0,0-.34.33h-.72v-3h2.89v.76h-2.1V612a1,1,0,0,1,.34-.18.94.94,0,0,1,.37-.07,1.68,1.68,0,0,1,.84.2,1.29,1.29,0,0,1,.53.6,2.07,2.07,0,0,1,.19.94V614a2.25,2.25,0,0,1-.19.94,1.31,1.31,0,0,1-.55.59,1.69,1.69,0,0,1-.86.21A1.74,1.74,0,0,1,585,615.58Z"/><path class="e" d="M589,615.32a1.65,1.65,0,0,1-.41-1.19v-2.58a1.67,1.67,0,0,1,.41-1.19,2,2,0,0,1,2.42,0,1.65,1.65,0,0,1,.41,1.19v2.58a1.64,1.64,0,0,1-.41,1.19,1.92,1.92,0,0,1-2.42,0Zm1.83-.55a.89.89,0,0,0,.2-.64v-2.58a.88.88,0,0,0-.2-.63.78.78,0,0,0-.62-.22.82.82,0,0,0-.63.22.93.93,0,0,0-.2.63v2.58a.9.9,0,0,0,.21.64,1,1,0,0,0,1.24,0Z"/><path class="e" d="M593.22,615.32a1.65,1.65,0,0,1-.41-1.19v-2.58a1.67,1.67,0,0,1,.41-1.19,2,2,0,0,1,2.42,0,1.61,1.61,0,0,1,.41,1.19v2.58a1.64,1.64,0,0,1-.41,1.19,1.92,1.92,0,0,1-2.42,0Zm1.83-.55a.9.9,0,0,0,.21-.64v-2.58a.93.93,0,0,0-.2-.63.82.82,0,0,0-.63-.22.78.78,0,0,0-.62.22.88.88,0,0,0-.2.63v2.58a.89.89,0,0,0,.2.64,1,1,0,0,0,1.24,0Z"/><path class="e" d="M600.1,615.54a1.45,1.45,0,0,1-.6-.6,2,2,0,0,1-.21-1v-.67a2,2,0,0,1,.21-.94,1.45,1.45,0,0,1,.6-.6,2,2,0,0,1,.95-.2,2.22,2.22,0,0,1,.59.07,2,2,0,0,1,.51.22,1.76,1.76,0,0,1,.37.35l-.58.52a1.17,1.17,0,0,0-.4-.3,1.13,1.13,0,0,0-.48-.11.94.94,0,0,0-.71.26,1,1,0,0,0-.26.73V614a1.07,1.07,0,0,0,.25.74,1,1,0,0,0,.72.26,1.13,1.13,0,0,0,.48-.11,1.26,1.26,0,0,0,.4-.32l.58.55a1.42,1.42,0,0,1-.38.35,1.88,1.88,0,0,1-.5.21,2.27,2.27,0,0,1-.59.08A2,2,0,0,1,600.1,615.54Z"/><path class="e" d="M603.4,611.63h.79v4.06h-.79Zm2.42,1.6a1,1,0,0,0-.21-.66.75.75,0,0,0-.6-.24.81.81,0,0,0-.6.21.75.75,0,0,0-.22.58l-.08-.78a1.5,1.5,0,0,1,.49-.56,1.15,1.15,0,0,1,.67-.2,1.32,1.32,0,0,1,.73.19,1.28,1.28,0,0,1,.46.56,2.42,2.42,0,0,1,.15.9v2.46h-.79Zm2.42,0a.91.91,0,0,0-.22-.66.82.82,0,0,0-.63-.24.72.72,0,0,0-.57.23.9.9,0,0,0-.21.64l-.16-.78a1.51,1.51,0,0,1,.51-.62,1.16,1.16,0,0,1,.69-.22,1.37,1.37,0,0,1,.75.19,1.18,1.18,0,0,1,.47.56,2.22,2.22,0,0,1,.17.9v2.46h-.8Z"/><path class="c" d="M23.49,613.89A12.92,12.92,0,1,1,36.4,601,12.93,12.93,0,0,1,23.49,613.89Zm0-24.83A11.92,11.92,0,1,0,35.4,601,11.93,11.93,0,0,0,23.49,589.06Z"/><polygon class="d" points="35.77 588.74 9.42 600.98 35.77 613.21 32.02 600.98 35.77 588.74"/><path class="c" d="M36.58,614.14,8.23,601l28.35-13.17-4,13.17ZM10.61,601,35,612.29,31.5,601,35,589.66Z"/><path class="c" d="M2.52,605.19a5,5,0,0,1-1.11-.38,4.4,4.4,0,0,1-1-.64l.81-1a3.72,3.72,0,0,0,1.16.69,4.08,4.08,0,0,0,1.38.23,2.73,2.73,0,0,0,1.55-.38,1.17,1.17,0,0,0,.55-1.05h0a1.12,1.12,0,0,0-.25-.77,1.44,1.44,0,0,0-.64-.42,8.23,8.23,0,0,0-1-.25H3.89l-.1,0a9.48,9.48,0,0,1-1.5-.36,2.08,2.08,0,0,1-1-.73,2.42,2.42,0,0,1-.41-1.51h0a2.77,2.77,0,0,1,.38-1.47,2.44,2.44,0,0,1,1.12-.92,4.48,4.48,0,0,1,1.77-.32,4.6,4.6,0,0,1,1,.11,4.9,4.9,0,0,1,1.86.86l-.73,1a4.61,4.61,0,0,0-1-.58,3,3,0,0,0-1.06-.2,2.44,2.44,0,0,0-1.46.38,1.24,1.24,0,0,0-.53,1.07h0a1,1,0,0,0,.27.75,1.74,1.74,0,0,0,.67.4,9.3,9.3,0,0,0,1.12.27h.24a7.93,7.93,0,0,1,1.4.41,2.22,2.22,0,0,1,.94.76,2.4,2.4,0,0,1,.38,1.43h0a2.62,2.62,0,0,1-.4,1.45,2.54,2.54,0,0,1-1.16.91,4.8,4.8,0,0,1-1.83.31A6.44,6.44,0,0,1,2.52,605.19Z"/><rect class="c" x="612.5" y="600.68" width="1" height="4.68"/><rect class="c" x="612.5" y="590.76" width="1" height="4.68"/><rect class="c" x="612.5" y="611.45" width="1" height="5.24"/><rect class="c" x="789.58" y="611.45" width="1" height="5.24"/><rect class="c" x="682.59" y="600.68" width="1" height="4.68"/><rect class="c" x="647.3" y="590.76" width="1" height="4.68"/><rect class="a" width="790.34" height="618.13"/><line class="f" x1="530.32" y1="240.55" x2="532.92" y2="240.55"/><line class="f" x1="530.32" y1="239.82" x2="530.32" y2="240.55"/><line class="f" x1="527.55" y1="240.55" x2="527.55" y2="188.62"/><line class="f" x1="459.69" y1="240.55" x2="527.55" y2="240.55"/><line class="f" x1="459.69" y1="244.01" x2="459.69" y2="240.55"/><line class="f" x1="428.53" y1="244.01" x2="459.69" y2="244.01"/><line class="f" x1="428.53" y1="240.55" x2="428.53" y2="244.01"/><line class="f" x1="350.63" y1="240.55" x2="428.53" y2="240.55"/><line class="f" x1="350.63" y1="244.01" x2="350.63" y2="240.55"/><line class="f" x1="319.47" y1="244.01" x2="350.63" y2="244.01"/><line class="f" x1="319.47" y1="240.55" x2="319.47" y2="244.01"/><line class="f" x1="262.86" y1="240.55" x2="319.47" y2="240.55"/><line class="f" x1="262.86" y1="188.62" x2="262.86" y2="240.55"/><line class="f" x1="527.55" y1="188.62" x2="262.86" y2="188.62"/><line class="f" x1="260.09" y1="240.55" x2="260.09" y2="239.82"/><line class="f" x1="257.66" y1="240.55" x2="260.09" y2="240.55"/><rect class="d" x="266.84" y="373.33" width="31.16" height="31.16"/><line class="f" x1="298" y1="404.49" x2="266.84" y2="404.49"/><line class="f" x1="266.84" y1="404.49" x2="266.84" y2="373.33"/><line class="f" x1="266.84" y1="373.33" x2="298" y2="373.33"/><line class="f" x1="298" y1="373.33" x2="298" y2="404.49"/><rect class="d" x="395.81" y="408.48" width="21.81" height="17.66"/><line class="f" x1="417.62" y1="426.13" x2="395.81" y2="426.13"/><line class="f" x1="395.81" y1="426.13" x2="395.81" y2="408.48"/><line class="f" x1="395.81" y1="408.48" x2="417.62" y2="408.48"/><line class="f" x1="417.62" y1="408.48" x2="417.62" y2="426.13"/><polygon class="g" points="524.61 426.13 449.48 426.13 449.48 405.01 503.49 405.01 503.49 342.69 524.61 342.69 524.61 405.36 524.61 426.13"/><line class="f" x1="524.61" y1="426.13" x2="449.48" y2="426.13"/><line class="f" x1="449.48" y1="426.13" x2="449.48" y2="405.01"/><line class="f" x1="449.48" y1="405.01" x2="503.49" y2="405.01"/><line class="f" x1="503.49" y1="405.01" x2="503.49" y2="342.69"/><line class="f" x1="503.49" y1="342.69" x2="524.61" y2="342.69"/><line class="f" x1="524.61" y1="342.69" x2="524.61" y2="405.36"/><line class="f" x1="524.61" y1="405.36" x2="524.61" y2="426.13"/><rect x="505.57" y="240.55" width="27.35" height="6.92"/><rect x="350.63" y="240.55" width="68.38" height="6.92"/><rect x="257.66" y="240.55" width="27.18" height="6.92"/><rect x="352.36" y="247.48" width="64.92" height="6.92"/><rect x="257.66" y="247.48" width="25.45" height="6.92"/><rect x="507.3" y="247.48" width="25.62" height="6.92"/><rect x="355.3" y="401.9" width="2.42" height="24.24"/><polygon class="h" points="265.97 370.04 361.19 370.04 361.19 372.47 357.73 372.47 357.73 374.2 355.3 374.2 355.3 372.47 265.97 372.47 265.97 370.04"/><polygon class="h" points="395.81 426.13 524.61 426.13 524.61 254.4 532.92 254.4 532.92 426.13 532.92 433.71 395.81 433.71 395.81 426.13"/><rect x="417.62" y="405.36" width="2.42" height="20.77"/><polygon class="h" points="257.67 254.4 265.97 254.4 265.97 426.13 357.73 426.13 357.73 433.71 257.67 433.71 257.67 426.13 257.67 254.4"/><rect x="394.08" y="430.46" width="1.73" height="3.25"/><rect x="265.97" y="405.36" width="31.16" height="3.46"/><polygon class="h" points="420.05 408.82 449.48 408.82 449.48 426.13 446.01 426.13 446.01 412.28 420.05 412.28 420.05 408.82"/><rect x="357.73" y="430.46" width="1.73" height="3.25"/><polygon class="h" points="260.43 240.55 260.43 239.82 261.65 239.82 261.65 188.62 263.2 188.62 263.2 240.55 260.43 240.55"/><polygon class="h" points="527.55 240.55 527.55 188.62 529.11 188.62 529.11 239.82 530.32 239.82 530.32 240.55 527.55 240.55"/><polygon class="h" points="392.35 370.04 394.08 370.04 394.08 268.94 379.54 268.94 379.54 254.4 381.96 254.4 381.96 266.52 394.08 266.52 394.08 254.4 396.5 254.4 396.5 370.04 420.05 370.04 420.05 374.2 417.62 374.2 417.62 372.47 392.35 372.47 392.35 370.04"/><line class="f" x1="532.92" y1="240.55" x2="505.57" y2="240.55"/><line class="f" x1="419.01" y1="240.55" x2="350.63" y2="240.55"/><line class="f" x1="524.61" y1="254.4" x2="507.3" y2="254.4"/><line class="f" x1="378.5" y1="254.4" x2="352.36" y2="254.4"/><line class="f" x1="257.66" y1="240.55" x2="284.84" y2="240.55"/><line class="f" x1="257.66" y1="254.4" x2="257.66" y2="254.4"/><line class="f" x1="507.3" y1="254.4" x2="507.3" y2="247.48"/><line class="f" x1="507.3" y1="254.4" x2="507.3" y2="247.48"/><line class="f" x1="417.28" y1="254.4" x2="417.28" y2="247.48"/><line class="f" x1="352.36" y1="254.4" x2="352.36" y2="247.48"/><line class="f" x1="283.11" y1="247.48" x2="283.11" y2="254.4"/><line class="f" x1="265.97" y1="254.4" x2="283.11" y2="254.4"/><line class="f" x1="527.55" y1="188.62" x2="527.55" y2="240.55"/><line class="f" x1="530.32" y1="239.82" x2="530.32" y2="240.55"/><line class="f" x1="529.11" y1="188.62" x2="527.55" y2="188.62"/><line class="f" x1="260.43" y1="239.82" x2="260.43" y2="240.55"/><line class="f" x1="263.2" y1="188.62" x2="263.2" y2="240.55"/><line class="f" x1="263.2" y1="188.62" x2="261.65" y2="188.62"/><line class="f" x1="505.57" y1="247.48" x2="505.57" y2="240.55"/><line class="f" x1="507.3" y1="247.48" x2="505.57" y2="247.48"/><line class="f" x1="350.63" y1="247.48" x2="350.63" y2="240.55"/><line class="f" x1="352.36" y1="247.48" x2="350.63" y2="247.48"/><line class="f" x1="419.01" y1="247.48" x2="419.01" y2="240.55"/><line class="f" x1="417.28" y1="247.48" x2="419.01" y2="247.48"/><line class="f" x1="284.84" y1="247.48" x2="284.84" y2="240.55"/><line class="f" x1="283.11" y1="247.48" x2="284.84" y2="247.48"/><line class="f" x1="396.5" y1="254.4" x2="417.28" y2="254.4"/><line class="f" x1="529.11" y1="188.62" x2="261.65" y2="188.62"/><line class="f" x1="497.78" y1="254.4" x2="442.38" y2="254.4"/><line class="f" x1="283.11" y1="254.4" x2="317.74" y2="254.4"/><line class="f" x1="317.74" y1="254.4" x2="352.36" y2="254.4"/><line class="f" x1="283.11" y1="254.4" x2="317.74" y2="254.4"/><line class="f" x1="317.74" y1="254.4" x2="317.74" y2="247.48"/><line class="f" x1="319.47" y1="247.48" x2="319.47" y2="240.55"/><line class="f" x1="284.84" y1="240.55" x2="319.47" y2="240.55"/><line class="f" x1="317.74" y1="254.4" x2="352.36" y2="254.4"/><line class="f" x1="319.47" y1="244.01" x2="350.63" y2="244.01"/><line class="f" x1="317.74" y1="250.25" x2="317.74" y2="247.48"/><line class="f" x1="320.51" y1="248.17" x2="320.51" y2="247.48"/><line class="f" x1="320.51" y1="247.48" x2="317.74" y2="247.48"/><line class="f" x1="317.74" y1="247.48" x2="317.74" y2="250.25"/><line class="f" x1="317.74" y1="250.25" x2="319.12" y2="250.25"/><line class="f" x1="319.12" y1="250.94" x2="321.89" y2="250.94"/><line class="f" x1="321.89" y1="250.94" x2="321.89" y2="248.17"/><line class="f" x1="321.89" y1="248.17" x2="319.12" y2="248.17"/><line class="f" x1="319.12" y1="248.17" x2="319.12" y2="250.94"/><line class="f" x1="349.59" y1="248.17" x2="349.59" y2="247.48"/><line class="f" x1="349.59" y1="247.48" x2="352.36" y2="247.48"/><line class="f" x1="352.36" y1="247.48" x2="352.36" y2="250.25"/><line class="f" x1="352.36" y1="250.25" x2="350.97" y2="250.25"/><line class="f" x1="350.97" y1="250.94" x2="348.2" y2="250.94"/><line class="f" x1="348.2" y1="250.94" x2="348.2" y2="248.17"/><line class="f" x1="348.2" y1="248.17" x2="350.97" y2="248.17"/><line class="f" x1="350.97" y1="248.17" x2="350.97" y2="250.94"/><line class="f" x1="321.89" y1="250.94" x2="348.2" y2="250.94"/><line class="f" x1="348.2" y1="248.17" x2="321.89" y2="248.17"/><line class="f" x1="321.89" y1="249.55" x2="348.2" y2="249.55"/><line class="f" x1="314.97" y1="248.17" x2="314.97" y2="247.48"/><line class="f" x1="314.97" y1="247.48" x2="317.74" y2="247.48"/><line class="f" x1="317.74" y1="247.48" x2="317.74" y2="250.25"/><line class="f" x1="317.74" y1="250.25" x2="316.35" y2="250.25"/><line class="f" x1="316.35" y1="250.94" x2="313.58" y2="250.94"/><line class="f" x1="313.58" y1="250.94" x2="313.58" y2="248.17"/><line class="f" x1="313.58" y1="248.17" x2="316.35" y2="248.17"/><line class="f" x1="316.35" y1="248.17" x2="316.35" y2="250.94"/><line class="f" x1="285.88" y1="248.17" x2="285.88" y2="247.48"/><line class="f" x1="285.88" y1="247.48" x2="283.11" y2="247.48"/><line class="f" x1="283.11" y1="247.48" x2="283.11" y2="250.25"/><line class="f" x1="283.11" y1="250.25" x2="284.5" y2="250.25"/><line class="f" x1="284.5" y1="250.94" x2="287.27" y2="250.94"/><line class="f" x1="287.27" y1="250.94" x2="287.27" y2="248.17"/><line class="f" x1="287.27" y1="248.17" x2="284.5" y2="248.17"/><line class="f" x1="284.5" y1="248.17" x2="284.5" y2="250.94"/><line class="f" x1="313.58" y1="250.94" x2="287.27" y2="250.94"/><line class="f" x1="287.27" y1="248.17" x2="313.58" y2="248.17"/><line class="f" x1="313.58" y1="249.55" x2="287.27" y2="249.55"/><line class="f" x1="507.3" y1="254.4" x2="451.9" y2="254.4"/><line class="f" x1="451.9" y1="254.4" x2="417.28" y2="254.4"/><line class="f" x1="505.57" y1="240.55" x2="450.17" y2="240.55"/><line class="f" x1="451.9" y1="254.4" x2="451.9" y2="247.48"/><line class="f" x1="450.17" y1="247.48" x2="450.17" y2="240.55"/><line class="f" x1="450.17" y1="244.01" x2="419.01" y2="244.01"/><line class="f" x1="449.13" y1="248.17" x2="449.13" y2="247.48"/><line class="f" x1="449.13" y1="247.48" x2="451.9" y2="247.48"/><line class="f" x1="451.9" y1="247.48" x2="451.9" y2="250.25"/><line class="f" x1="451.9" y1="250.25" x2="450.52" y2="250.25"/><line class="f" x1="450.52" y1="250.94" x2="447.75" y2="250.94"/><line class="f" x1="447.75" y1="250.94" x2="447.75" y2="248.17"/><line class="f" x1="447.75" y1="248.17" x2="450.52" y2="248.17"/><line class="f" x1="450.52" y1="248.17" x2="450.52" y2="250.94"/><line class="f" x1="418.66" y1="250.94" x2="421.43" y2="250.94"/><line class="f" x1="421.43" y1="250.94" x2="421.43" y2="248.17"/><line class="f" x1="421.43" y1="248.17" x2="418.66" y2="248.17"/><line class="f" x1="418.66" y1="248.17" x2="418.66" y2="250.94"/><line class="f" x1="447.75" y1="250.94" x2="421.43" y2="250.94"/><line class="f" x1="421.43" y1="248.17" x2="447.74" y2="248.17"/><line class="f" x1="447.75" y1="249.55" x2="421.43" y2="249.55"/><line class="f" x1="420.05" y1="248.17" x2="420.05" y2="247.48"/><line class="f" x1="420.05" y1="247.48" x2="417.28" y2="247.48"/><line class="f" x1="417.28" y1="247.48" x2="417.28" y2="250.25"/><line class="f" x1="417.28" y1="250.25" x2="418.66" y2="250.25"/><line class="f" x1="451.9" y1="250.25" x2="454.67" y2="250.25"/><line class="f" x1="454.67" y1="250.25" x2="454.67" y2="247.48"/><line class="f" x1="454.67" y1="247.48" x2="451.9" y2="247.48"/><line class="f" x1="451.9" y1="247.48" x2="451.9" y2="250.25"/><line class="f" x1="454.67" y1="250.25" x2="478.21" y2="250.25"/><line class="f" x1="454.67" y1="248.86" x2="478.21" y2="248.86"/><line class="f" x1="454.67" y1="247.48" x2="478.21" y2="247.48"/><line class="f" x1="504.53" y1="248.17" x2="504.53" y2="247.48"/><line class="f" x1="504.53" y1="247.48" x2="507.3" y2="247.48"/><line class="f" x1="507.3" y1="247.48" x2="507.3" y2="250.25"/><line class="f" x1="507.3" y1="250.25" x2="505.91" y2="250.25"/><line class="f" x1="505.91" y1="250.94" x2="503.14" y2="250.94"/><line class="f" x1="503.14" y1="250.94" x2="503.14" y2="248.17"/><line class="f" x1="503.14" y1="248.17" x2="505.91" y2="248.17"/><line class="f" x1="505.91" y1="248.17" x2="505.91" y2="250.94"/><line class="f" x1="503.14" y1="250.94" x2="482.37" y2="250.94"/><line class="f" x1="482.37" y1="248.17" x2="503.14" y2="248.17"/><line class="f" x1="503.14" y1="249.55" x2="482.37" y2="249.55"/><line class="f" x1="480.98" y1="248.17" x2="480.98" y2="247.48"/><line class="f" x1="480.98" y1="247.48" x2="478.21" y2="247.48"/><line class="f" x1="478.21" y1="247.48" x2="478.21" y2="250.25"/><line class="f" x1="478.21" y1="250.25" x2="479.6" y2="250.25"/><line class="f" x1="479.6" y1="250.94" x2="482.37" y2="250.94"/><line class="f" x1="482.37" y1="250.94" x2="482.37" y2="248.17"/><line class="f" x1="482.37" y1="248.17" x2="479.6" y2="248.17"/><line class="f" x1="479.6" y1="248.17" x2="479.6" y2="250.94"/><line class="f" x1="524.61" y1="426.13" x2="449.48" y2="426.13"/><line class="f" x1="446.01" y1="426.13" x2="420.05" y2="426.13"/><line class="f" x1="417.62" y1="426.13" x2="395.81" y2="426.13"/><line class="f" x1="355.3" y1="426.13" x2="297.13" y2="426.13"/><line class="f" x1="293.67" y1="426.13" x2="265.97" y2="426.13"/><line class="f" x1="524.61" y1="254.4" x2="524.61" y2="426.13"/><line class="f" x1="265.97" y1="254.4" x2="265.97" y2="370.04"/><line class="f" x1="265.97" y1="372.47" x2="265.97" y2="405.36"/><line class="f" x1="265.97" y1="408.82" x2="265.97" y2="426.13"/><line class="f" x1="532.92" y1="254.4" x2="532.92" y2="426.13"/><line class="f" x1="396.5" y1="254.4" x2="396.5" y2="370.04"/><line class="f" x1="265.97" y1="372.47" x2="355.3" y2="372.47"/><line class="f" x1="265.97" y1="370.04" x2="361.19" y2="370.04"/><line class="f" x1="355.3" y1="372.47" x2="355.3" y2="374.2"/><line class="f" x1="355.3" y1="401.9" x2="355.3" y2="426.13"/><line class="f" x1="417.62" y1="405.36" x2="417.62" y2="426.13"/><line class="f" x1="420.05" y1="370.04" x2="420.05" y2="374.2"/><line class="f" x1="420.05" y1="412.28" x2="420.05" y2="426.13"/><line class="f" x1="449.48" y1="408.82" x2="449.48" y2="426.13"/><line class="f" x1="446.01" y1="412.28" x2="446.01" y2="426.13"/><line class="f" x1="357.73" y1="401.9" x2="355.3" y2="401.9"/><line class="f" x1="357.73" y1="374.2" x2="355.3" y2="374.2"/><line class="f" x1="357.73" y1="372.47" x2="361.19" y2="372.47"/><line class="f" x1="361.19" y1="372.47" x2="361.19" y2="370.04"/><line class="f" x1="392.35" y1="372.47" x2="392.35" y2="370.04"/><line class="f" x1="392.35" y1="370.04" x2="394.08" y2="370.04"/><line class="f" x1="394.08" y1="430.46" x2="394.08" y2="433.71"/><line class="f" x1="394.08" y1="430.46" x2="395.81" y2="430.46"/><line class="f" x1="395.81" y1="430.46" x2="395.81" y2="426.13"/><line class="f" x1="392.35" y1="372.47" x2="417.62" y2="372.47"/><line class="f" x1="396.5" y1="370.04" x2="420.05" y2="370.04"/><line class="f" x1="417.62" y1="374.2" x2="420.05" y2="374.2"/><line class="f" x1="420.05" y1="405.36" x2="417.62" y2="405.36"/><line class="f" x1="417.62" y1="374.2" x2="417.62" y2="372.47"/><line class="f" x1="449.48" y1="408.82" x2="420.05" y2="408.82"/><line class="f" x1="446.01" y1="412.28" x2="420.05" y2="412.28"/><line class="f" x1="420.05" y1="408.82" x2="420.05" y2="405.36"/><line class="f" x1="532.92" y1="426.13" x2="532.92" y2="426.13"/><line class="f" x1="297.13" y1="426.13" x2="293.67" y2="426.13"/><line class="f" x1="350.97" y1="250.94" x2="350.97" y2="282.79"/><g class="i"><path class="f" d="M351,282.79a31.85,31.85,0,0,1-31.85-31.85"/></g><line class="f" x1="418.66" y1="250.94" x2="418.66" y2="282.79"/><g class="i"><path class="f" d="M450.52,250.94a31.86,31.86,0,0,1-31.86,31.85"/></g><line class="f" x1="532.92" y1="384.24" x2="532.92" y2="384.24"/><line class="f" x1="532.92" y1="384.24" x2="532.92" y2="405.01"/><line class="f" x1="532.92" y1="405.01" x2="532.92" y2="405.01"/><line class="f" x1="532.92" y1="353.08" x2="532.92" y2="353.08"/><line class="f" x1="532.92" y1="353.08" x2="532.92" y2="426.13"/><line class="f" x1="532.92" y1="426.13" x2="532.92" y2="426.13"/><line class="f" x1="457.76" y1="412.95" x2="462.66" y2="417.85"/><line class="f" x1="462.66" y1="412.95" x2="457.76" y2="417.85"/><line class="f" x1="460.21" y1="418.86" x2="460.21" y2="411.94"/><line class="f" x1="456.75" y1="415.4" x2="463.67" y2="415.4"/><line class="f" x1="470.6" y1="405.01" x2="470.6" y2="425.79"/><line class="f" x1="449.82" y1="405.01" x2="470.6" y2="405.01"/><line class="f" x1="524.61" y1="394.63" x2="524.61" y2="373.85"/><line class="f" x1="524.61" y1="373.85" x2="503.49" y2="373.85"/><line class="f" x1="503.49" y1="373.85" x2="503.49" y2="394.63"/><line class="f" x1="503.49" y1="394.63" x2="524.61" y2="394.63"/><g class="i"><path class="f" d="M519.93,384.24a6.06,6.06,0,1,0-6,6.06,6.05,6.05,0,0,0,6-6.06"/><path class="f" d="M518.9,384.24a5,5,0,1,0-5,5,5,5,0,0,0,5-5"/><path class="f" d="M272.9,399.3a.87.87,0,1,0-.87.87.87.87,0,0,0,.87-.87"/></g><line class="f" x1="298" y1="404.49" x2="298" y2="373.33"/><line class="f" x1="298" y1="373.33" x2="266.84" y2="373.33"/><line class="f" x1="266.84" y1="373.33" x2="266.84" y2="404.49"/><line class="f" x1="266.84" y1="404.49" x2="298" y2="404.49"/><line class="f" x1="296.27" y1="399.3" x2="296.27" y2="378.53"/><line class="f" x1="292.81" y1="375.06" x2="272.03" y2="375.06"/><line class="f" x1="268.57" y1="378.53" x2="268.57" y2="399.3"/><line class="f" x1="272.03" y1="402.76" x2="292.81" y2="402.76"/><g class="i"><path class="f" d="M296.27,399.3a3.46,3.46,0,0,1-3.46,3.46"/><path class="f" d="M292.81,375.06a3.46,3.46,0,0,1,3.46,3.47"/><path class="f" d="M272,402.76a3.46,3.46,0,0,1-3.46-3.46"/><path class="f" d="M268.57,378.53a3.46,3.46,0,0,1,3.46-3.47"/></g><line class="f" x1="355.3" y1="420.94" x2="297.13" y2="420.94"/><line class="f" x1="315.83" y1="373.33" x2="315.83" y2="376.8"/><line class="f" x1="315.83" y1="376.79" x2="336.61" y2="376.79"/><line class="f" x1="336.6" y1="376.79" x2="336.6" y2="373.33"/><line class="f" x1="336.6" y1="373.33" x2="335.57" y2="373.33"/><line class="f" x1="335.57" y1="373.33" x2="335.57" y2="375.76"/><line class="f" x1="335.57" y1="375.76" x2="316.87" y2="375.76"/><line class="f" x1="316.87" y1="375.76" x2="316.87" y2="373.33"/><line class="f" x1="316.87" y1="373.33" x2="315.83" y2="373.33"/><line class="f" x1="315.83" y1="373.33" x2="315.83" y2="376.8"/><line class="f" x1="336.6" y1="373.33" x2="336.6" y2="376.8"/><line class="f" x1="316.87" y1="373.33" x2="316.87" y2="375.76"/><line class="f" x1="335.57" y1="373.33" x2="335.57" y2="375.76"/><line class="f" x1="315.83" y1="376.79" x2="336.61" y2="376.79"/><line class="f" x1="315.83" y1="375.76" x2="336.61" y2="375.76"/><line class="f" x1="315.83" y1="373.33" x2="316.87" y2="373.33"/><line class="f" x1="335.57" y1="373.33" x2="336.6" y2="373.33"/><g class="i"><path class="f" d="M520.09,413.7a7.79,7.79,0,1,0-7.79,7.79,7.79,7.79,0,0,0,7.79-7.79"/><path class="f" d="M518.88,413.7a6.58,6.58,0,1,0-6.58,6.58,6.59,6.59,0,0,0,6.58-6.58"/><path class="f" d="M515.49,416a.87.87,0,1,0-.87.87.87.87,0,0,0,.87-.87"/><path class="f" d="M522.37,358.36a3.4,3.4,0,1,0-3.39,3.4,3.39,3.39,0,0,0,3.39-3.4"/></g><line class="f" x1="524.26" y1="353.08" x2="503.49" y2="353.08"/><line class="f" x1="503.49" y1="353.08" x2="503.49" y2="373.85"/><line class="f" x1="503.49" y1="373.85" x2="524.26" y2="373.85"/><g class="i"><path class="f" d="M512.18,358.36a3.4,3.4,0,1,0-3.4,3.4,3.4,3.4,0,0,0,3.4-3.4"/><path class="f" d="M512.18,368.57a3.4,3.4,0,1,0-3.4,3.39,3.4,3.4,0,0,0,3.4-3.39"/></g><line class="f" x1="502.54" y1="371.02" x2="502.54" y2="355.91"/><line class="f" x1="491.37" y1="426.13" x2="491.37" y2="405.01"/><line class="f" x1="491.37" y1="405.01" x2="470.6" y2="405.01"/><line class="f" x1="470.6" y1="405.01" x2="470.6" y2="426.13"/><line class="f" x1="524.61" y1="342.69" x2="524.61" y2="426.13"/><line class="f" x1="524.61" y1="426.13" x2="449.48" y2="426.13"/><line class="f" x1="449.48" y1="426.13" x2="449.48" y2="405.01"/><line class="f" x1="449.48" y1="405.01" x2="503.49" y2="405.01"/><line class="f" x1="503.49" y1="405.01" x2="503.49" y2="342.69"/><line class="f" x1="503.49" y1="342.69" x2="524.61" y2="342.69"/><line class="f" x1="297.13" y1="405.36" x2="297.13" y2="408.82"/><line class="f" x1="297.13" y1="405.36" x2="265.97" y2="405.36"/><line class="f" x1="293.67" y1="408.82" x2="265.97" y2="408.82"/><line class="f" x1="293.67" y1="408.82" x2="297.13" y2="408.82"/><line class="f" x1="359.46" y1="430.46" x2="359.46" y2="433.71"/><line class="f" x1="359.46" y1="430.46" x2="357.73" y2="430.46"/><line class="f" x1="357.73" y1="401.9" x2="357.73" y2="430.46"/><line class="f" x1="357.73" y1="372.47" x2="357.73" y2="374.2"/><line class="f" x1="394.08" y1="254.4" x2="394.08" y2="266.52"/><line class="f" x1="394.08" y1="268.94" x2="394.08" y2="370.04"/><line class="f" x1="394.08" y1="268.94" x2="379.54" y2="268.94"/><line class="f" x1="379.54" y1="268.94" x2="379.54" y2="254.4"/><line class="f" x1="394.08" y1="266.52" x2="381.96" y2="266.52"/><line class="f" x1="381.96" y1="266.52" x2="381.96" y2="254.4"/><line class="f" x1="381.96" y1="254.4" x2="394.08" y2="254.4"/><line class="f" x1="420.05" y1="412.28" x2="420.05" y2="408.82"/><line class="f" x1="390.62" y1="370.04" x2="362.92" y2="370.04"/><line class="f" x1="390.62" y1="370.04" x2="390.62" y2="342.35"/><g class="i"><path class="f" d="M362.92,370a27.7,27.7,0,0,1,27.7-27.69"/></g><line class="f" x1="390.62" y1="372.47" x2="390.62" y2="370.04"/><line class="f" x1="362.92" y1="370.04" x2="362.92" y2="372.47"/><line class="f" x1="362.92" y1="370.04" x2="361.19" y2="370.04"/><line class="f" x1="362.92" y1="372.47" x2="361.19" y2="372.47"/><line class="f" x1="392.35" y1="370.04" x2="390.62" y2="370.04"/><line class="f" x1="392.35" y1="372.47" x2="390.62" y2="372.47"/><line class="f" x1="390.62" y1="372.47" x2="383.69" y2="372.47"/><line class="f" x1="379.88" y1="372.47" x2="379.11" y2="372.47"/><line class="f" x1="375.3" y1="372.47" x2="374.52" y2="372.47"/><line class="f" x1="370.71" y1="372.47" x2="369.84" y2="372.47"/><line class="f" x1="369.84" y1="372.47" x2="362.92" y2="372.47"/><line class="f" x1="390.62" y1="370.04" x2="390.62" y2="369.18"/><line class="f" x1="390.62" y1="369.18" x2="394.08" y2="369.18"/><line class="f" x1="394.08" y1="369.18" x2="394.08" y2="370.04"/><line class="f" x1="390.62" y1="372.47" x2="390.62" y2="373.33"/><line class="f" x1="390.62" y1="373.33" x2="394.08" y2="373.33"/><line class="f" x1="394.08" y1="373.33" x2="394.08" y2="372.47"/><line class="f" x1="362.92" y1="369.18" x2="359.46" y2="369.18"/><line class="f" x1="359.46" y1="369.18" x2="359.46" y2="370.04"/><line class="f" x1="362.92" y1="372.47" x2="362.92" y2="373.33"/><line class="f" x1="362.92" y1="373.33" x2="359.46" y2="373.33"/><line class="f" x1="359.46" y1="373.33" x2="359.46" y2="372.47"/><line class="f" x1="361.19" y1="430.46" x2="392.35" y2="430.46"/><line class="f" x1="361.19" y1="430.46" x2="361.19" y2="399.3"/><g class="i"><path class="f" d="M361.19,399.3a31.17,31.17,0,0,1,31.16,31.16"/></g><line class="f" x1="361.19" y1="433.71" x2="361.19" y2="430.46"/><line class="f" x1="392.35" y1="430.46" x2="392.35" y2="433.71"/><line class="f" x1="392.35" y1="430.46" x2="394.08" y2="430.46"/><line class="f" x1="359.46" y1="430.46" x2="361.19" y2="430.46"/><line class="f" x1="357.73" y1="400.16" x2="357.73" y2="375.93"/><line class="f" x1="357.73" y1="400.16" x2="381.96" y2="400.16"/><g class="i"><path class="f" d="M357.73,375.93A24.23,24.23,0,0,1,382,400.16"/></g><line class="f" x1="355.3" y1="400.16" x2="357.73" y2="400.16"/><line class="f" x1="357.73" y1="375.93" x2="355.3" y2="375.93"/><line class="f" x1="357.73" y1="375.93" x2="357.73" y2="374.2"/><line class="f" x1="355.3" y1="375.93" x2="355.3" y2="374.2"/><line class="f" x1="357.73" y1="401.9" x2="357.73" y2="400.16"/><line class="f" x1="355.3" y1="401.9" x2="355.3" y2="400.16"/><line class="f" x1="355.3" y1="400.16" x2="355.3" y2="393.24"/><line class="f" x1="355.3" y1="389.43" x2="355.3" y2="388.65"/><line class="f" x1="355.3" y1="384.84" x2="355.3" y2="384.07"/><line class="f" x1="355.3" y1="382.85" x2="355.3" y2="375.93"/><line class="f" x1="357.73" y1="400.16" x2="358.59" y2="400.16"/><line class="f" x1="358.59" y1="400.16" x2="358.59" y2="403.63"/><line class="f" x1="358.59" y1="403.63" x2="357.73" y2="403.63"/><line class="f" x1="355.3" y1="400.16" x2="354.44" y2="400.16"/><line class="f" x1="354.44" y1="400.16" x2="354.44" y2="403.63"/><line class="f" x1="354.44" y1="403.63" x2="355.3" y2="403.63"/><line class="f" x1="358.59" y1="375.93" x2="358.59" y2="372.47"/><line class="f" x1="358.59" y1="372.47" x2="357.73" y2="372.47"/><line class="f" x1="355.3" y1="375.93" x2="354.44" y2="375.93"/><line class="f" x1="354.44" y1="375.93" x2="354.44" y2="372.47"/><line class="f" x1="354.44" y1="372.47" x2="355.3" y2="372.47"/><line class="f" x1="420.05" y1="403.63" x2="420.05" y2="375.93"/><line class="f" x1="420.05" y1="403.63" x2="447.74" y2="403.63"/><g class="i"><path class="f" d="M420.05,375.93a27.7,27.7,0,0,1,27.69,27.7"/></g><line class="f" x1="417.62" y1="403.63" x2="420.05" y2="403.63"/><line class="f" x1="420.05" y1="375.93" x2="417.62" y2="375.93"/><line class="f" x1="420.05" y1="375.93" x2="420.05" y2="374.2"/><line class="f" x1="417.62" y1="375.93" x2="417.62" y2="374.2"/><line class="f" x1="420.05" y1="405.36" x2="420.05" y2="403.63"/><line class="f" x1="417.62" y1="405.36" x2="417.62" y2="403.63"/><line class="f" x1="417.62" y1="403.63" x2="417.62" y2="396.7"/><line class="f" x1="417.62" y1="392.89" x2="417.62" y2="392.12"/><line class="f" x1="417.62" y1="388.31" x2="417.62" y2="387.53"/><line class="f" x1="417.62" y1="383.72" x2="417.62" y2="382.85"/><line class="f" x1="417.62" y1="382.85" x2="417.62" y2="375.93"/><line class="f" x1="420.05" y1="403.63" x2="420.91" y2="403.63"/><line class="f" x1="420.91" y1="403.63" x2="420.91" y2="407.09"/><line class="f" x1="420.91" y1="407.09" x2="420.05" y2="407.09"/><line class="f" x1="417.62" y1="403.63" x2="416.76" y2="403.63"/><line class="f" x1="416.76" y1="403.63" x2="416.76" y2="407.09"/><line class="f" x1="416.76" y1="407.09" x2="417.62" y2="407.09"/><line class="f" x1="420.91" y1="375.93" x2="420.91" y2="372.47"/><line class="f" x1="420.91" y1="372.47" x2="420.05" y2="372.47"/><line class="f" x1="417.62" y1="375.93" x2="416.76" y2="375.93"/><line class="f" x1="416.76" y1="375.93" x2="416.76" y2="372.47"/><line class="f" x1="416.76" y1="372.47" x2="417.62" y2="372.47"/><line class="f" x1="503.83" y1="256.13" x2="455.36" y2="256.13"/><line class="f" x1="455.36" y1="256.13" x2="455.36" y2="259.6"/><line class="f" x1="455.36" y1="259.6" x2="503.83" y2="259.6"/><line class="f" x1="503.83" y1="259.6" x2="503.83" y2="256.13"/><line class="f" x1="310.81" y1="256.13" x2="283.11" y2="256.13"/><line class="f" x1="283.11" y1="256.13" x2="283.11" y2="258.31"/><line class="f" x1="283.11" y1="258.31" x2="310.81" y2="258.31"/><line class="f" x1="310.81" y1="258.31" x2="310.81" y2="256.13"/><g class="i"><path class="f" d="M316,257.22a1.73,1.73,0,1,0-1.73,1.73,1.73,1.73,0,0,0,1.73-1.73"/><path class="f" d="M509,257.86a1.73,1.73,0,1,0-1.73,1.74,1.74,1.74,0,0,0,1.73-1.74"/></g><rect x="293.67" y="408.82" width="3.46" height="17.31"/><line class="f" x1="297.13" y1="408.82" x2="297.13" y2="426.13"/><line class="f" x1="293.67" y1="405.36" x2="293.67" y2="426.13"/><line class="f" x1="350.63" y1="240.55" x2="343.7" y2="240.55"/><line class="f" x1="339.89" y1="240.55" x2="339.12" y2="240.55"/><line class="f" x1="335.31" y1="240.55" x2="334.53" y2="240.55"/><line class="f" x1="330.72" y1="240.55" x2="326.39" y2="240.55"/><line class="f" x1="326.39" y1="240.55" x2="319.47" y2="240.55"/><line class="f" x1="450.17" y1="240.55" x2="443.25" y2="240.55"/><line class="f" x1="439.44" y1="240.55" x2="438.66" y2="240.55"/><line class="f" x1="434.85" y1="240.55" x2="434.07" y2="240.55"/><line class="f" x1="430.26" y1="240.55" x2="425.93" y2="240.55"/><line class="f" x1="425.93" y1="240.55" x2="419.01" y2="240.55"/><line class="f" x1="293.67" y1="408.82" x2="293.67" y2="426.13"/><line class="f" x1="293.67" y1="426.13" x2="265.97" y2="426.13"/><line class="f" x1="265.97" y1="426.13" x2="290.21" y2="422.67"/><line class="f" x1="290.21" y1="422.67" x2="293.67" y2="408.82"/><line class="f" x1="446.01" y1="412.28" x2="446.01" y2="426.13"/><line class="f" x1="446.01" y1="426.13" x2="420.05" y2="426.13"/><line class="f" x1="420.05" y1="426.13" x2="442.55" y2="422.67"/><line class="f" x1="442.55" y1="422.67" x2="446.01" y2="412.28"/><rect class="d" x="467.49" y="295.95" width="17.31" height="27.7"/><line class="f" x1="467.49" y1="323.65" x2="484.8" y2="323.65"/><line class="f" x1="467.49" y1="295.95" x2="467.49" y2="323.65"/><line class="f" x1="484.8" y1="295.95" x2="467.49" y2="295.95"/><line class="f" x1="484.8" y1="323.65" x2="484.8" y2="295.95"/><rect class="d" x="297.13" y="420.94" width="58.17" height="5.19"/><line class="f" x1="355.3" y1="426.13" x2="297.13" y2="426.13"/><line class="f" x1="297.13" y1="426.13" x2="297.13" y2="420.94"/><line class="f" x1="297.13" y1="420.94" x2="355.3" y2="420.94"/><line class="f" x1="355.3" y1="420.94" x2="355.3" y2="426.13"/><rect class="d" x="335.57" y="373.33" width="1.04" height="2.42"/><line class="f" x1="335.57" y1="373.33" x2="335.57" y2="375.76"/><line class="f" x1="336.6" y1="373.33" x2="335.57" y2="373.33"/><line class="f" x1="336.6" y1="375.76" x2="336.6" y2="373.33"/><line class="f" x1="335.57" y1="375.76" x2="336.6" y2="375.76"/><polygon class="d" points="335.57 375.76 316.87 375.76 315.83 375.76 315.83 376.79 336.61 376.79 336.61 375.76 335.57 375.76"/><line class="f" x1="315.83" y1="376.79" x2="336.61" y2="376.79"/><line class="f" x1="315.83" y1="375.76" x2="315.83" y2="376.79"/><line class="f" x1="316.87" y1="375.76" x2="315.83" y2="375.76"/><line class="f" x1="335.57" y1="375.76" x2="316.87" y2="375.76"/><line class="f" x1="336.6" y1="375.76" x2="335.57" y2="375.76"/><line class="f" x1="336.6" y1="376.79" x2="336.6" y2="375.76"/><rect class="d" x="315.83" y="373.33" width="1.04" height="2.42"/><line class="f" x1="315.83" y1="373.33" x2="315.83" y2="375.76"/><line class="f" x1="316.87" y1="373.33" x2="315.83" y2="373.33"/><line class="f" x1="316.87" y1="375.76" x2="316.87" y2="373.33"/><line class="f" x1="315.83" y1="375.76" x2="316.87" y2="375.76"/><rect class="d" x="396.5" y="254.4" width="15.58" height="115.64"/><line class="f" x1="412.08" y1="370.04" x2="412.08" y2="254.4"/><line class="f" x1="396.5" y1="370.04" x2="412.08" y2="370.04"/><line class="f" x1="396.5" y1="254.4" x2="396.5" y2="370.04"/><line class="f" x1="412.08" y1="254.4" x2="396.5" y2="254.4"/><rect class="d" x="373.31" y="254.4" width="6.23" height="14.55"/><line class="f" x1="373.31" y1="254.4" x2="373.31" y2="268.96"/><line class="f" x1="379.54" y1="254.4" x2="373.31" y2="254.4"/><line class="f" x1="379.54" y1="268.96" x2="379.54" y2="254.4"/><line class="f" x1="373.31" y1="268.96" x2="379.54" y2="268.96"/><rect class="d" x="455.36" y="256.13" width="48.47" height="3.46"/><line class="f" x1="503.83" y1="259.6" x2="503.83" y2="256.13"/><line class="f" x1="455.36" y1="259.6" x2="503.83" y2="259.6"/><line class="f" x1="455.36" y1="256.13" x2="455.36" y2="259.6"/><line class="f" x1="503.83" y1="256.13" x2="455.36" y2="256.13"/><polygon class="g" points="509.03 257.86 508.52 259.09 507.3 259.6 506.07 259.09 505.57 257.86 506.07 256.64 507.3 256.13 508.52 256.64 509.03 257.86"/><g class="i"><path class="f" d="M509,257.86a1.73,1.73,0,1,1-3.46,0"/><path class="f" d="M505.57,257.86a1.73,1.73,0,1,1,3.46,0"/></g><rect class="d" x="283.11" y="256.13" width="27.7" height="2.18"/><line class="f" x1="310.81" y1="258.31" x2="310.81" y2="256.13"/><line class="f" x1="283.11" y1="258.31" x2="310.81" y2="258.31"/><line class="f" x1="283.11" y1="256.13" x2="283.11" y2="258.31"/><line class="f" x1="310.81" y1="256.13" x2="283.11" y2="256.13"/><polygon class="g" points="316 257.22 315.5 258.45 314.27 258.95 313.05 258.45 312.54 257.22 313.05 256 314.27 255.49 315.5 256 316 257.22"/><g class="i"><path class="f" d="M316,257.22a1.73,1.73,0,1,1-3.46,0"/><path class="f" d="M312.54,257.22a1.73,1.73,0,1,1,3.46,0"/></g><line class="f" x1="257.66" y1="274.48" x2="257.66" y2="274.48"/><line class="f" x1="257.66" y1="274.48" x2="257.66" y2="336.81"/><line class="f" x1="257.66" y1="336.81" x2="257.66" y2="336.81"/><line class="f" x1="257.66" y1="274.48" x2="257.66" y2="262.37"/><line class="f" x1="257.66" y1="262.37" x2="257.66" y2="262.37"/><line class="f" x1="257.66" y1="274.48" x2="257.66" y2="274.48"/><line class="f" x1="257.66" y1="348.92" x2="257.66" y2="336.81"/><line class="f" x1="257.66" y1="336.81" x2="257.66" y2="336.81"/><line class="f" x1="257.66" y1="348.92" x2="257.66" y2="348.92"/><polygon class="g" points="265.97 344.42 328.3 344.42 330.94 343.9 333.19 342.39 334.69 340.15 335.22 337.5 335.22 289.03 334.69 286.38 333.19 284.13 330.94 282.63 328.3 282.1 276.36 282.1 265.97 282.1 265.97 344.42"/><rect class="d" x="265.97" y="344.42" width="10.39" height="12.12"/><rect class="d" x="265.97" y="269.98" width="10.39" height="12.12"/><line class="f" x1="277.49" y1="311.3" x2="274.49" y2="310.47"/><line class="f" x1="277.49" y1="340.37" x2="274.49" y2="339.54"/><line class="f" x1="335.22" y1="289.03" x2="335.22" y2="337.5"/><line class="f" x1="328.3" y1="344.42" x2="265.97" y2="344.42"/><line class="f" x1="265.97" y1="344.42" x2="265.97" y2="282.1"/><line class="f" x1="265.97" y1="282.1" x2="328.3" y2="282.1"/><line class="f" x1="265.97" y1="344.42" x2="265.97" y2="356.54"/><line class="f" x1="265.97" y1="356.54" x2="276.36" y2="356.54"/><line class="f" x1="276.36" y1="356.54" x2="276.36" y2="344.42"/><line class="f" x1="276.36" y1="344.42" x2="265.97" y2="344.42"/><line class="f" x1="265.97" y1="269.98" x2="265.97" y2="282.1"/><line class="f" x1="265.97" y1="282.1" x2="276.36" y2="282.1"/><line class="f" x1="276.36" y1="282.1" x2="276.36" y2="269.98"/><line class="f" x1="276.36" y1="269.98" x2="265.97" y2="269.98"/><line class="f" x1="289.01" y1="344.42" x2="289.01" y2="282.1"/><line class="f" x1="294.2" y1="344.42" x2="294.2" y2="282.1"/><g class="i"><path class="f" d="M283.42,338.45a97.15,97.15,0,0,1-.5-9.8,99,99,0,0,1,.84-12.76"/><path class="f" d="M283.42,338.45a1.81,1.81,0,0,1,0,.4,1.85,1.85,0,0,1-1.85,1.85h-.09"/><path class="f" d="M281.51,340.7c-.27,0-.54,0-.82,0a14.4,14.4,0,0,1-3.2-.36"/><path class="f" d="M277.49,340.37c-1.74.17-3.48.26-5.23.26-.83,0-1.67,0-2.5-.06"/><path class="f" d="M269.76,340.57l-.12,0a.39.39,0,0,1-.39-.4.25.25,0,0,1,0-.08"/><path class="f" d="M269.6,315.82q.22,4.69.23,9.4,0,7.45-.57,14.89"/><path class="f" d="M269.6,315.82a.75.75,0,0,1,0-.21,1,1,0,0,1,1-1,.84.84,0,0,1,.31.05"/><path class="f" d="M282.78,314.88a46.44,46.44,0,0,1-11.93-.18"/><path class="f" d="M282.78,314.88a.83.83,0,0,1,.22,0,.8.8,0,0,1,.8.8.67.67,0,0,1,0,.24"/><path class="f" d="M335.22,337.5a6.92,6.92,0,0,1-6.92,6.92"/><path class="f" d="M328.3,282.1a6.92,6.92,0,0,1,6.92,6.92"/><path class="f" d="M283.42,309.38a97.35,97.35,0,0,1-.5-9.81,98.91,98.91,0,0,1,.84-12.75"/><path class="f" d="M283.42,309.38a1.81,1.81,0,0,1,0,.4,1.85,1.85,0,0,1-1.85,1.85h-.09"/><path class="f" d="M281.51,311.63c-.27,0-.54,0-.82,0a14.39,14.39,0,0,1-3.2-.35"/><path class="f" d="M277.49,311.3c-1.74.17-3.48.26-5.23.26-.83,0-1.67,0-2.5-.06"/><path class="f" d="M269.76,311.5l-.12,0a.39.39,0,0,1-.39-.4.22.22,0,0,1,0-.08"/><path class="f" d="M269.6,286.75q.22,4.69.23,9.4,0,7.46-.57,14.89"/><path class="f" d="M269.6,286.75a.75.75,0,0,1,0-.21,1,1,0,0,1,1-1,.84.84,0,0,1,.31.05"/><path class="f" d="M282.78,285.81a46.44,46.44,0,0,1-11.93-.18"/><path class="f" d="M282.78,285.81a.83.83,0,0,1,.22,0,.79.79,0,0,1,.8.79.69.69,0,0,1,0,.25"/></g><polygon class="g" points="405.7 297.06 407.09 298.77 407.83 300.91 407.83 303.21 407.09 305.35 405.7 307.06 405.7 317.85 403.78 317.85 401.86 309.95 401.86 307.65 400.81 303.98 400.81 300.13 401.86 296.46 401.86 294.16 403.78 286.27 405.7 286.27 405.7 297.06"/><line class="f" x1="405.7" y1="297.06" x2="407.09" y2="298.77"/><line class="f" x1="407.09" y1="298.77" x2="407.83" y2="300.91"/><line class="f" x1="407.83" y1="300.91" x2="407.83" y2="303.21"/><line class="f" x1="407.83" y1="303.21" x2="407.09" y2="305.35"/><line class="f" x1="407.09" y1="305.35" x2="405.7" y2="307.06"/><line class="f" x1="405.7" y1="307.06" x2="405.7" y2="317.85"/><line class="f" x1="405.7" y1="317.85" x2="403.78" y2="317.85"/><line class="f" x1="403.78" y1="317.85" x2="401.86" y2="309.95"/><line class="f" x1="401.86" y1="309.95" x2="401.86" y2="307.65"/><line class="f" x1="401.86" y1="307.65" x2="400.81" y2="303.98"/><line class="f" x1="400.81" y1="303.98" x2="400.81" y2="300.13"/><line class="f" x1="400.81" y1="300.13" x2="401.86" y2="296.47"/><line class="f" x1="401.86" y1="296.47" x2="401.86" y2="294.17"/><line class="f" x1="401.86" y1="294.16" x2="403.78" y2="286.27"/><line class="f" x1="403.78" y1="286.27" x2="405.7" y2="286.27"/><line class="f" x1="405.7" y1="286.27" x2="405.7" y2="297.06"/><line class="f" x1="405.7" y1="286.27" x2="405.7" y2="317.85"/><line class="f" x1="401.86" y1="309.95" x2="401.86" y2="294.17"/><line class="f" x1="403.78" y1="286.27" x2="405.7" y2="286.27"/><line class="f" x1="404.93" y1="315.74" x2="404.93" y2="313.64"/><line class="f" x1="404.93" y1="313.64" x2="404.45" y2="313.64"/><line class="f" x1="404.45" y1="313.64" x2="404.45" y2="315.74"/><line class="f" x1="404.45" y1="315.74" x2="404.93" y2="315.74"/><line class="f" x1="404.93" y1="313.11" x2="404.93" y2="311.01"/><line class="f" x1="404.93" y1="311.01" x2="404.45" y2="311.01"/><line class="f" x1="404.45" y1="311.01" x2="404.45" y2="313.11"/><line class="f" x1="404.45" y1="313.11" x2="404.93" y2="313.11"/><line class="f" x1="403.78" y1="286.27" x2="403.78" y2="317.85"/><line class="f" x1="404.45" y1="310.48" x2="404.93" y2="310.48"/><line class="f" x1="404.93" y1="310.48" x2="404.93" y2="309.43"/><line class="f" x1="404.93" y1="309.43" x2="404.45" y2="309.43"/><line class="f" x1="404.45" y1="309.43" x2="404.45" y2="310.48"/><g class="i"><path class="f" d="M405.7,297.06a6.72,6.72,0,0,1,0,10"/></g><polygon class="g" points="492.07 289.08 491.57 289.46 491.38 290.06 491.38 327.8 491.57 328.43 492.07 328.84 491.58 329.04 491.38 329.54 491.38 330.57 491.84 332.3 493.11 333.57 494.84 334.04 520.11 334.04 520.61 333.83 520.81 333.34 520.81 262.02 520.61 261.53 520.11 261.33 492.07 261.33 491.61 261.48 491.35 261.88 491.38 262.37 491.38 287.99 491.44 288.71 492.07 289.08"/><polygon class="g" points="468.87 289.02 466.22 288.5 463.98 287 462.47 284.75 461.95 282.1 461.95 268.25 462.47 265.6 463.98 263.35 466.22 261.85 468.87 261.33 490.34 261.33 491.07 261.63 491.38 262.37 491.38 287.99 491.07 288.72 490.34 289.02 468.87 289.02"/><g class="i"><path class="f" d="M468.87,289A6.92,6.92,0,0,1,462,282.1"/></g><line class="f" x1="461.95" y1="282.1" x2="461.95" y2="268.25"/><g class="i"><path class="f" d="M462,268.25a6.92,6.92,0,0,1,6.92-6.92"/></g><line class="f" x1="468.87" y1="261.33" x2="490.34" y2="261.33"/><g class="i"><path class="f" d="M490.34,261.33a1,1,0,0,1,1,1"/></g><line class="f" x1="491.38" y1="262.37" x2="491.38" y2="287.99"/><g class="i"><path class="f" d="M491.38,288a1,1,0,0,1-1,1"/></g><line class="f" x1="490.34" y1="289.03" x2="468.87" y2="289.03"/><line class="f" x1="491.38" y1="329.53" x2="491.38" y2="330.57"/><line class="f" x1="494.84" y1="334.04" x2="520.11" y2="334.04"/><line class="f" x1="520.81" y1="333.34" x2="520.81" y2="329.53"/><line class="f" x1="520.11" y1="328.84" x2="492.07" y2="328.84"/><line class="f" x1="520.81" y1="329.53" x2="520.81" y2="289.02"/><line class="f" x1="520.81" y1="289.03" x2="518.38" y2="289.03"/><line class="f" x1="491.38" y1="290.06" x2="491.38" y2="327.8"/><line class="f" x1="492.42" y1="328.84" x2="509.78" y2="328.84"/><line class="f" x1="509.78" y1="289.03" x2="492.42" y2="289.03"/><line class="f" x1="518.38" y1="328.84" x2="511.85" y2="328.84"/><line class="f" x1="511.85" y1="289.03" x2="518.38" y2="289.03"/><line class="f" x1="491.38" y1="265.83" x2="491.38" y2="262.02"/><line class="f" x1="492.07" y1="261.33" x2="520.11" y2="261.33"/><line class="f" x1="520.81" y1="262.02" x2="520.81" y2="265.83"/><line class="f" x1="520.81" y1="265.83" x2="520.81" y2="289.02"/><line class="f" x1="520.81" y1="289.03" x2="518.38" y2="289.03"/><line class="f" x1="491.38" y1="287.99" x2="491.38" y2="267.56"/><line class="f" x1="509.78" y1="289.03" x2="492.42" y2="289.03"/><line class="f" x1="509.78" y1="289.03" x2="518.38" y2="289.03"/><line class="f" x1="461.95" y1="282.1" x2="461.95" y2="268.25"/><line class="f" x1="468.87" y1="261.33" x2="490.34" y2="261.33"/><line class="f" x1="491.38" y1="262.37" x2="491.38" y2="287.99"/><line class="f" x1="490.34" y1="289.03" x2="468.87" y2="289.03"/><line class="f" x1="519.42" y1="287.99" x2="519.42" y2="262.36"/><line class="f" x1="519.42" y1="290.06" x2="519.42" y2="327.8"/><g class="i"><path class="f" d="M520.81,333.34a.7.7,0,0,1-.7.7"/><path class="f" d="M520.11,328.84a.69.69,0,0,1,.7.69"/><path class="f" d="M491.38,329.53a.69.69,0,0,1,.69-.69"/><path class="f" d="M492.42,328.84a1,1,0,0,1-1-1"/><path class="f" d="M491.38,290.06a1,1,0,0,1,1-1"/><path class="f" d="M491.38,262a.69.69,0,0,1,.69-.69"/><path class="f" d="M520.11,261.33a.69.69,0,0,1,.7.69"/><path class="f" d="M492.42,289a1,1,0,0,1-1-1"/><path class="f" d="M490.34,261.33a1,1,0,0,1,1,1"/><path class="f" d="M491.38,288a1,1,0,0,1-1,1"/></g><line class="f" x1="519.42" y1="262.37" x2="495.84" y2="262.37"/><g class="i"><path class="f" d="M500.6,263.62A19.62,19.62,0,0,1,515.39,288"/><path class="f" d="M514.57,327.8a119.44,119.44,0,0,1,0-37.74"/><path class="f" d="M468.87,289A6.92,6.92,0,0,1,462,282.1"/><path class="f" d="M462,268.25a6.92,6.92,0,0,1,6.92-6.92"/><path class="f" d="M494.84,334a3.47,3.47,0,0,1-3.46-3.47"/></g><polygon class="g" points="473.89 349.55 477.77 342.84 478.24 341.11 477.77 339.37 476.51 338.1 470.53 334.62 468.8 334.15 467.07 334.61 465.81 335.88 461.93 342.6 465.51 343.07 468.84 344.46 471.7 346.68 473.89 349.55"/><polygon class="g" points="461.89 370.35 465.74 377.07 467 378.35 468.74 378.82 470.46 378.35 476.45 374.89 477.72 373.62 478.19 371.89 477.73 370.15 473.87 363.43 471.67 366.3 468.8 368.5 465.47 369.88 461.89 370.35"/><polygon class="g" points="449.94 349.51 442.21 349.5 440.48 349.96 439.21 351.24 438.75 352.97 438.74 359.91 439.2 361.64 440.46 362.92 442.19 363.38 449.92 363.39 448.54 360.04 448.08 356.45 448.56 352.86 449.94 349.51"/><polygon class="g" points="461.93 342.6 465.51 343.07 468.84 344.46 471.7 346.68 473.89 349.55 475.27 352.9 475.74 356.5 475.26 360.09 473.87 363.43 471.67 366.3 468.8 368.5 465.46 369.88 461.88 370.35 458.31 369.87 454.98 368.48 452.11 366.27 449.92 363.4 448.54 360.04 448.08 356.45 448.56 352.86 449.94 349.52 452.14 346.64 455.01 344.44 458.35 343.06 461.93 342.6"/><line class="f" x1="461.93" y1="342.59" x2="465.51" y2="343.07"/><line class="f" x1="465.51" y1="343.07" x2="468.84" y2="344.46"/><line class="f" x1="468.84" y1="344.46" x2="471.7" y2="346.68"/><line class="f" x1="471.7" y1="346.68" x2="473.9" y2="349.55"/><line class="f" x1="473.9" y1="349.55" x2="475.27" y2="352.9"/><line class="f" x1="475.27" y1="352.9" x2="475.74" y2="356.49"/><line class="f" x1="475.74" y1="356.5" x2="475.26" y2="360.09"/><line class="f" x1="475.26" y1="360.09" x2="473.87" y2="363.43"/><line class="f" x1="473.87" y1="363.43" x2="471.67" y2="366.3"/><line class="f" x1="471.67" y1="366.3" x2="468.8" y2="368.5"/><line class="f" x1="468.8" y1="368.5" x2="465.47" y2="369.89"/><line class="f" x1="465.47" y1="369.88" x2="461.89" y2="370.35"/><line class="f" x1="461.89" y1="370.35" x2="458.31" y2="369.87"/><line class="f" x1="458.31" y1="369.87" x2="454.97" y2="368.48"/><line class="f" x1="454.97" y1="368.48" x2="452.11" y2="366.27"/><line class="f" x1="452.11" y1="366.27" x2="449.92" y2="363.4"/><line class="f" x1="449.92" y1="363.4" x2="448.54" y2="360.04"/><line class="f" x1="448.54" y1="360.04" x2="448.08" y2="356.45"/><line class="f" x1="448.08" y1="356.45" x2="448.56" y2="352.86"/><line class="f" x1="448.56" y1="352.86" x2="449.94" y2="349.52"/><line class="f" x1="449.94" y1="349.52" x2="452.14" y2="346.65"/><line class="f" x1="452.14" y1="346.65" x2="455.01" y2="344.44"/><line class="f" x1="455.01" y1="344.44" x2="458.35" y2="343.06"/><line class="f" x1="458.35" y1="343.06" x2="461.93" y2="342.59"/><g class="i"><path class="f" d="M475.74,356.49h0a13.83,13.83,0,1,1-27.66,0"/><path class="f" d="M448.08,356.45h0a13.83,13.83,0,1,1,27.66,0"/></g><line class="f" x1="475.64" y1="339.6" x2="469.66" y2="336.12"/><line class="f" x1="465.8" y1="335.88" x2="461.93" y2="342.6"/><line class="f" x1="476.51" y1="338.1" x2="470.53" y2="334.62"/><line class="f" x1="473.9" y1="349.55" x2="477.77" y2="342.84"/><line class="f" x1="469.6" y1="376.85" x2="475.59" y2="373.39"/><line class="f" x1="477.73" y1="370.15" x2="473.87" y2="363.43"/><line class="f" x1="470.46" y1="378.35" x2="476.46" y2="374.89"/><line class="f" x1="461.89" y1="370.35" x2="465.74" y2="377.08"/><line class="f" x1="440.47" y1="352.97" x2="440.46" y2="359.91"/><line class="f" x1="442.19" y1="363.38" x2="449.92" y2="363.4"/><line class="f" x1="438.75" y1="352.97" x2="438.74" y2="359.91"/><line class="f" x1="449.94" y1="349.52" x2="442.21" y2="349.5"/><g class="i"><path class="f" d="M467.3,336.75a1.73,1.73,0,0,1,2.36-.63"/><path class="f" d="M475.64,339.6a1.74,1.74,0,0,1,.87,1.5,1.65,1.65,0,0,1-.24.87"/><path class="f" d="M465.8,335.88a3.45,3.45,0,0,1,4.73-1.26"/><path class="f" d="M476.51,338.1a3.48,3.48,0,0,1,1.73,3,3.62,3.62,0,0,1-.47,1.73"/><path class="f" d="M476.23,371a1.77,1.77,0,0,1,.23.87,1.73,1.73,0,0,1-.87,1.5"/><path class="f" d="M469.6,376.85a1.74,1.74,0,0,1-.87.23,1.72,1.72,0,0,1-1.49-.87"/><path class="f" d="M477.73,370.15a3.56,3.56,0,0,1,.46,1.74,3.46,3.46,0,0,1-1.73,3"/><path class="f" d="M470.46,378.35a3.38,3.38,0,0,1-1.73.47,3.49,3.49,0,0,1-3-1.74"/><path class="f" d="M442.19,361.65a1.72,1.72,0,0,1-1.72-1.74"/><path class="f" d="M440.48,353h0a1.72,1.72,0,0,1,1.73-1.73"/><path class="f" d="M442.19,363.38h0a3.47,3.47,0,0,1-3.46-3.47"/><path class="f" d="M438.75,353a3.45,3.45,0,0,1,3.46-3.46"/></g><polygon class="g" points="327.95 420.94 345.95 420.94 346.32 420.79 346.47 420.42 346.47 406.22 346.32 405.86 345.95 405.7 327.95 405.7 327.58 405.86 327.43 406.22 327.43 420.42 327.58 420.79 327.95 420.94"/><g class="i"><path class="f" d="M328,420.94a.52.52,0,0,1-.52-.52"/></g><line class="f" x1="327.43" y1="406.22" x2="327.43" y2="420.42"/><g class="i"><path class="f" d="M327.43,406.22a.51.51,0,0,1,.52-.51"/></g><line class="f" x1="345.95" y1="405.71" x2="327.95" y2="405.71"/><g class="i"><path class="f" d="M346,405.71a.51.51,0,0,1,.52.51"/></g><line class="f" x1="346.47" y1="420.42" x2="346.47" y2="406.22"/><g class="i"><path class="f" d="M346.47,420.42a.52.52,0,0,1-.52.52"/></g><line class="f" x1="327.95" y1="420.94" x2="345.95" y2="420.94"/><line class="f" x1="328.99" y1="417.13" x2="344.91" y2="417.13"/><line class="f" x1="345.43" y1="416.61" x2="345.43" y2="407.26"/><line class="f" x1="344.92" y1="406.74" x2="328.99" y2="406.74"/><line class="f" x1="328.47" y1="407.26" x2="328.47" y2="416.61"/><g class="i"><path class="f" d="M345.43,416.61a.51.51,0,0,1-.51.52"/><path class="f" d="M344.92,406.74a.52.52,0,0,1,.51.52"/><path class="f" d="M328.47,407.26a.52.52,0,0,1,.52-.52"/><path class="f" d="M329,417.13a.52.52,0,0,1-.52-.52"/></g><polygon class="g" points="336.09 418.86 336.22 417.41 336.34 417.08 336.57 415.25 336.69 415 336.95 414.91 337.21 415 337.34 415.25 337.56 417.08 337.68 417.41 337.82 418.86 337.56 419.48 336.95 419.73 336.34 419.48 336.09 418.86"/><line class="f" x1="336.09" y1="418.86" x2="336.22" y2="417.41"/><g class="i"><path class="f" d="M336.22,417.41a.77.77,0,0,1,.12-.33"/></g><line class="f" x1="336.34" y1="417.08" x2="336.57" y2="415.25"/><g class="i"><path class="f" d="M336.57,415.25a.38.38,0,0,1,.38-.34.37.37,0,0,1,.38.34"/></g><line class="f" x1="337.34" y1="415.25" x2="337.57" y2="417.08"/><g class="i"><path class="f" d="M337.57,417.08a.76.76,0,0,1,.11.33"/></g><line class="f" x1="337.68" y1="417.41" x2="337.82" y2="418.86"/><g class="i"><path class="f" d="M337.82,418.86a.87.87,0,1,1-1.73,0"/></g><line class="f" x1="337.42" y1="418" x2="337.42" y2="417.48"/><line class="f" x1="336.48" y1="417.48" x2="336.48" y2="418"/><line class="f" x1="336.48" y1="418" x2="337.42" y2="418"/><g class="i"><path class="f" d="M336.48,417.48a.47.47,0,1,1,.94,0"/><path class="f" d="M336.34,417.08a.72.72,0,0,1,.61-.34.75.75,0,0,1,.62.34"/></g><rect class="d" x="373.31" y="268.94" width="20.77" height="68.55"/><line class="f" x1="373.31" y1="337.5" x2="373.31" y2="268.94"/><line class="f" x1="373.31" y1="268.94" x2="394.08" y2="268.94"/><line class="f" x1="394.08" y1="268.94" x2="394.08" y2="337.5"/><line class="f" x1="394.08" y1="337.5" x2="373.31" y2="337.5"/><line class="f" x1="383.69" y1="334.07" x2="383.69" y2="272.37"/><line class="f" x1="377.58" y1="330.89" x2="390.03" y2="325.09"/><line class="f" x1="376.96" y1="324.35" x2="388.54" y2="321.96"/><line class="f" x1="391.18" y1="315.43" x2="378.48" y2="313.45"/><line class="f" x1="389.52" y1="305.31" x2="378.47" y2="307.99"/><line class="f" x1="390.15" y1="301.63" x2="376.55" y2="301.63"/><line class="f" x1="390.21" y1="291.21" x2="376.77" y2="293.68"/><line class="f" x1="389.98" y1="287.31" x2="377.71" y2="287.31"/><line class="f" x1="390.11" y1="277.03" x2="377.52" y2="275.05"/><line class="f" x1="389.25" y1="279.5" x2="378.61" y2="281.51"/><polygon class="g" points="306.31 420.94 319.12 420.94 319.12 409.51 318.85 407.8 318.08 406.25 316.87 405.01 314.9 403.98 312.71 403.63 310.53 403.98 308.56 405.01 307.35 406.25 306.58 407.8 306.31 409.51 306.31 420.94"/><line class="f" x1="319.12" y1="420.94" x2="319.12" y2="409.51"/><line class="f" x1="319.12" y1="420.94" x2="306.31" y2="420.94"/><line class="f" x1="306.31" y1="420.94" x2="306.31" y2="409.51"/><line class="f" x1="317.04" y1="416.78" x2="317.04" y2="409.51"/><line class="f" x1="308.39" y1="416.78" x2="308.39" y2="409.51"/><line class="f" x1="308.39" y1="416.78" x2="317.04" y2="416.78"/><g class="i"><path class="f" d="M316.87,405a5.63,5.63,0,0,1,2.25,4.5"/><path class="f" d="M306.31,409.51a5.63,5.63,0,0,1,2.25-4.5"/><path class="f" d="M308.56,405a6.95,6.95,0,0,1,8.31,0"/><path class="f" d="M306.31,409.51a5.63,5.63,0,0,1,2.25-4.5"/><path class="f" d="M308.56,405a6.92,6.92,0,0,1,4.15-1.38"/><path class="f" d="M308.39,409.51a3.54,3.54,0,0,1,1.42-2.84"/><path class="f" d="M309.81,406.67a4.88,4.88,0,0,1,5.81,0"/><path class="f" d="M315.62,406.67a3.54,3.54,0,0,1,1.42,2.84"/></g><line class="f" x1="395.81" y1="426.13" x2="388.89" y2="426.13"/><line class="f" x1="385.08" y1="426.13" x2="384.3" y2="426.13"/><line class="f" x1="380.49" y1="426.13" x2="379.71" y2="426.13"/><line class="f" x1="375.9" y1="426.13" x2="368.98" y2="426.13"/><line class="f" x1="365.17" y1="426.13" x2="364.65" y2="426.13"/><line class="f" x1="364.65" y1="426.13" x2="357.73" y2="426.13"/><line class="f" x1="483.75" y1="418.28" x2="483.75" y2="412.47"/><line class="f" x1="483.75" y1="412.47" x2="481.39" y2="414.38"/><line class="f" x1="481.39" y1="414.37" x2="479.03" y2="412.47"/><line class="f" x1="479.03" y1="412.47" x2="479.03" y2="418.28"/><line class="f" x1="261.65" y1="186.89" x2="529.11" y2="186.89"/><line class="f" x1="261.65" y1="185.16" x2="529.11" y2="185.16"/><line class="f" x1="257.66" y1="433.71" x2="532.92" y2="433.71"/><line class="f" x1="532.92" y1="433.71" x2="532.92" y2="239.82"/><line class="f" x1="532.92" y1="239.82" x2="529.11" y2="239.82"/><line class="f" x1="529.11" y1="239.82" x2="529.11" y2="184.41"/><line class="f" x1="529.11" y1="184.41" x2="261.65" y2="184.41"/><line class="f" x1="261.65" y1="184.41" x2="261.65" y2="239.82"/><line class="f" x1="261.65" y1="239.82" x2="257.66" y2="239.82"/><line class="f" x1="257.66" y1="239.82" x2="257.66" y2="433.71"/><path class="j" d="M390.79,386.46v7h-.72V387.1h-1.65v-.64Z"/><path class="j" d="M392.47,393a.53.53,0,0,1,.53-.54.54.54,0,0,1,.54.54.55.55,0,0,1-.54.55A.54.54,0,0,1,392.47,393Z"/><path class="j" d="M394.48,390c0-2.23,1.17-3.56,2.79-3.56s2.79,1.33,2.79,3.56-1.17,3.56-2.79,3.56S394.48,392.19,394.48,390Zm4.85,0c0-1.87-.84-2.9-2.06-2.9s-2.06,1-2.06,2.9.84,2.9,2.06,2.9S399.33,391.83,399.33,390Z"/><path class="j" d="M403,386.46v7h-.72V387.1h-1.65v-.64Z"/><path class="j" d="M428.49,305.33v7h-.72V306h-1.65v-.64Z"/><path class="j" d="M430.17,311.83a.53.53,0,0,1,.53-.54.54.54,0,0,1,.54.54.55.55,0,0,1-.54.55A.54.54,0,0,1,430.17,311.83Z"/><path class="j" d="M432.18,308.83c0-2.23,1.17-3.56,2.79-3.56s2.79,1.33,2.79,3.56-1.17,3.56-2.79,3.56S432.18,311.06,432.18,308.83Zm4.85,0c0-1.87-.84-2.9-2.06-2.9s-2.06,1-2.06,2.9.84,2.9,2.06,2.9S437,310.7,437,308.83Z"/><path class="j" d="M443.57,311.69v.64h-4.91v-.51l2.91-2.85c.79-.78.94-1.25.94-1.73,0-.81-.57-1.31-1.64-1.31a2.38,2.38,0,0,0-1.91.78l-.51-.44a3.15,3.15,0,0,1,2.48-1c1.42,0,2.31.72,2.31,1.89a2.86,2.86,0,0,1-1.14,2.19l-2.38,2.34Z"/><path class="j" d="M349.33,305.33v7h-.72V306H347v-.64Z"/><path class="j" d="M351,311.83a.53.53,0,0,1,.53-.54.54.54,0,0,1,.54.54.55.55,0,0,1-.54.55A.54.54,0,0,1,351,311.83Z"/><path class="j" d="M353,308.83c0-2.23,1.17-3.56,2.79-3.56s2.79,1.33,2.79,3.56-1.17,3.56-2.79,3.56S353,311.06,353,308.83Zm4.85,0c0-1.87-.84-2.9-2.06-2.9s-2.06,1-2.06,2.9.84,2.9,2.06,2.9S357.87,310.7,357.87,308.83Z"/><path class="j" d="M364.17,310.32c0,1.17-.84,2.07-2.53,2.07a3.64,3.64,0,0,1-2.52-.9l.35-.57a3.07,3.07,0,0,0,2.17.81c1.16,0,1.8-.54,1.8-1.41s-.59-1.39-1.89-1.39h-.5v-.53L363,306h-3.58v-.64h4.5v.51l-2,2.49C363.43,308.41,364.17,309.2,364.17,310.32Z"/><path class="j" d="M319.36,386.46v7h-.72V387.1H317v-.64Z"/><path class="j" d="M321,393a.53.53,0,0,1,.53-.54.54.54,0,0,1,.54.54.55.55,0,0,1-.54.55A.54.54,0,0,1,321,393Z"/><path class="j" d="M323.05,390c0-2.23,1.17-3.56,2.79-3.56s2.79,1.33,2.79,3.56-1.18,3.56-2.79,3.56S323.05,392.19,323.05,390Zm4.85,0c0-1.87-.84-2.9-2.06-2.9s-2.06,1-2.06,2.9.84,2.9,2.06,2.9S327.9,391.83,327.9,390Z"/><path class="j" d="M335.61,391.62h-1.4v1.84h-.71v-1.84h-3.95v-.52l3.71-4.64h.8L330.48,391h3v-1.62h.69V391h1.4Z"/><path class="j" d="M428.49,216.54v7h-.72v-6.36h-1.65v-.64Z"/><path class="j" d="M430.17,223a.53.53,0,0,1,.53-.54.54.54,0,0,1,.54.54.55.55,0,0,1-.54.55A.54.54,0,0,1,430.17,223Z"/><path class="j" d="M432.18,220c0-2.23,1.17-3.56,2.79-3.56s2.79,1.33,2.79,3.56-1.17,3.56-2.79,3.56S432.18,222.27,432.18,220Zm4.85,0c0-1.87-.84-2.9-2.06-2.9s-2.06,1-2.06,2.9.84,2.9,2.06,2.9S437,221.91,437,220Z"/><path class="j" d="M443.54,221.48c0,1.19-.82,2.12-2.53,2.12a3.61,3.61,0,0,1-2.51-.9l.35-.57a3,3,0,0,0,2.15.81c1.19,0,1.82-.58,1.82-1.43s-.56-1.46-2.34-1.46H439l.36-3.51h3.83v.64H440l-.24,2.23h.9C442.75,219.41,443.54,220.24,443.54,221.48Z"/></svg>