<svg xmlns="http://www.w3.org/2000/svg" xmlns:xlink="http://www.w3.org/1999/xlink" viewBox="0 0 790.58 618.13"><defs><style>.a,.f{fill:none;}.b{fill:#595a5c;}.c{fill:#b6906c;}.d{fill:#fff;}.e{fill:#231f20;}.f{stroke:#000;stroke-linecap:round;stroke-linejoin:round;stroke-width:0.34px;}.g{clip-path:url(#a);}.h{fill:#58595b;}</style><clipPath id="a"><polygon class="a" points="245.2 185.81 245.2 240.6 240.92 240.6 240.92 432.32 549.66 432.32 549.66 240.6 545.38 240.6 545.38 185.81 245.2 185.81"/></clipPath></defs><path class="b" d="M55.31,597.13H57.1V609.9H55.31Zm.92,6.11h4.09a1.89,1.89,0,0,0,1-.27,1.82,1.82,0,0,0,.68-.77,2.67,2.67,0,0,0,.24-1.16,2.7,2.7,0,0,0-.24-1.16,1.82,1.82,0,0,0-1.7-1H56.23v-1.7h4a4.09,4.09,0,0,1,2,.48A3.45,3.45,0,0,1,63.62,599a4.64,4.64,0,0,1,0,4.11,3.34,3.34,0,0,1-1.35,1.36,4,4,0,0,1-2,.49h-4Z"/><path class="b" d="M67.7,606.33a2.07,2.07,0,0,0,.49,1.48,1.76,1.76,0,0,0,1.37.52,1.89,1.89,0,0,0,1.37-.46,1.79,1.79,0,0,0,.48-1.33l.12,1.91A2.58,2.58,0,0,1,69.06,610a2.89,2.89,0,0,1-2.33-1,4.08,4.08,0,0,1-.82-2.73v-5.55H67.7Zm.22-7.86a1.93,1.93,0,0,1-.56-1.5,2.07,2.07,0,0,1,.56-1.57,2.56,2.56,0,0,1,3.18,0,2.08,2.08,0,0,1,.57,1.56,1.94,1.94,0,0,1-.57,1.5,2.65,2.65,0,0,1-3.18,0Zm2.26-.86a.94.94,0,0,0,.24-.68,1,1,0,0,0-.24-.7.91.91,0,0,0-.67-.25.92.92,0,0,0-.67.25,1,1,0,0,0-.23.7,1,1,0,0,0,.23.68.92.92,0,0,0,.67.24A.9.9,0,0,0,70.18,597.61Zm1.23,3.17h1.78v9.12H71.41Z"/><path class="b" d="M77.1,609.63A2.82,2.82,0,0,1,76,608.36a5.08,5.08,0,0,1-.36-2v-2a5.05,5.05,0,0,1,.36-2,2.71,2.71,0,0,1,1-1.27,3,3,0,0,1,1.65-.44,2.71,2.71,0,0,1,1.48.42,3.22,3.22,0,0,1,1.09,1.19l-.18,1.86a2.19,2.19,0,0,0-.22-1,1.48,1.48,0,0,0-.61-.63,2,2,0,0,0-1-.21,1.71,1.71,0,0,0-1.37.55,2.26,2.26,0,0,0-.49,1.56v2a2.19,2.19,0,0,0,.49,1.54,1.74,1.74,0,0,0,1.37.54,1.93,1.93,0,0,0,1-.23,1.45,1.45,0,0,0,.61-.64,2.25,2.25,0,0,0,.22-1l.12,1.92a2.66,2.66,0,0,1-.89,1.14,2.56,2.56,0,0,1-1.53.45A3.19,3.19,0,0,1,77.1,609.63Zm4-12.5H82.9V609.9H81.11Z"/><path class="b" d="M87.09,609.57a3.09,3.09,0,0,1-1.29-1.36,4.85,4.85,0,0,1-.44-2.15v-1.48a4.71,4.71,0,0,1,.44-2.12,3.12,3.12,0,0,1,1.29-1.35,4.71,4.71,0,0,1,4.06,0,3.12,3.12,0,0,1,1.29,1.35,4.71,4.71,0,0,1,.44,2.12v1.51a4.79,4.79,0,0,1-.44,2.13,3.12,3.12,0,0,1-1.29,1.35,4.62,4.62,0,0,1-4.06,0Zm3.49-1.83a2.43,2.43,0,0,0,.51-1.65v-1.51a2.43,2.43,0,0,0-.51-1.65,1.88,1.88,0,0,0-1.46-.58,1.85,1.85,0,0,0-1.45.58,2.38,2.38,0,0,0-.52,1.65v1.51a2.38,2.38,0,0,0,.52,1.65,1.82,1.82,0,0,0,1.45.59A1.85,1.85,0,0,0,90.58,607.74Z"/><path class="b" d="M95.43,600.78h1.79v9.12H95.43Zm4.42,1.72a2.16,2.16,0,0,0-.83-.15,1.83,1.83,0,0,0-1.33.47,1.79,1.79,0,0,0-.47,1.31L97,602.37a3.32,3.32,0,0,1,1.09-1.27,2.58,2.58,0,0,1,1.48-.45,3.39,3.39,0,0,1,1.13.18,2.62,2.62,0,0,1,.88.53l-1.17,1.58A1.56,1.56,0,0,0,99.85,602.5Z"/><path class="b" d="M102.15,600.78H104l2.81,7.93-1,1.94Zm8.07,0L106.34,612a2.6,2.6,0,0,1-.56,1,1.87,1.87,0,0,1-.84.52,4,4,0,0,1-1.23.16h-.36V612h.36a1.46,1.46,0,0,0,.8-.2,1.74,1.74,0,0,0,.51-.7l3.38-10.31Z"/><path class="b" d="M113.51,609.88a5.76,5.76,0,0,1-1.32-.48,4.89,4.89,0,0,1-1.13-.79l1.06-1.31a5.86,5.86,0,0,0,1.47.85,4.18,4.18,0,0,0,1.44.28,3.11,3.11,0,0,0,1.6-.33,1.1,1.1,0,0,0,.53-1,.79.79,0,0,0-.29-.66,1.66,1.66,0,0,0-.72-.29c-.29,0-.69-.1-1.22-.14h-.15l-.14,0h-.15a6.45,6.45,0,0,1-1.5-.26,2,2,0,0,1-1-.7,2.38,2.38,0,0,1-.41-1.49,3.07,3.07,0,0,1,.39-1.61,2.41,2.41,0,0,1,1.18-1,5.29,5.29,0,0,1,2-.32,6.38,6.38,0,0,1,2.6.52,6.16,6.16,0,0,1,1.13.66l-1.08,1.31a5.59,5.59,0,0,0-1.35-.66,4,4,0,0,0-1.3-.22,2.44,2.44,0,0,0-1.37.31,1.08,1.08,0,0,0-.46.94.64.64,0,0,0,.26.55,1.72,1.72,0,0,0,.66.25c.26,0,.64.07,1.12.1h.34a7.67,7.67,0,0,1,1.63.25,2.24,2.24,0,0,1,1.13.77,2.62,2.62,0,0,1,.45,1.65,2.92,2.92,0,0,1-.42,1.63,2.54,2.54,0,0,1-1.27,1A5.88,5.88,0,0,1,115,610,7.38,7.38,0,0,1,113.51,609.88Z"/><path class="b" d="M126,597.13h1.8V609.9H126Zm2.6,12.5a2.39,2.39,0,0,1-.93-1.16l.13-1.91a2.22,2.22,0,0,0,.21,1,1.48,1.48,0,0,0,.61.63,1.93,1.93,0,0,0,1,.22,1.74,1.74,0,0,0,1.37-.54,2.18,2.18,0,0,0,.49-1.53v-2a2.26,2.26,0,0,0-.49-1.56,1.71,1.71,0,0,0-1.37-.55,2,2,0,0,0-1,.21,1.36,1.36,0,0,0-.61.62,2.12,2.12,0,0,0-.21,1l-.19-1.76a3.37,3.37,0,0,1,1.08-1.24,2.67,2.67,0,0,1,1.49-.43,3,3,0,0,1,1.65.43,2.9,2.9,0,0,1,1.06,1.27,5.1,5.1,0,0,1,.36,2v2a4.94,4.94,0,0,1-.37,2,2.79,2.79,0,0,1-1.08,1.26,3.25,3.25,0,0,1-1.71.44A2.73,2.73,0,0,1,128.57,609.63Z"/><path class="b" d="M134.46,600.78h1.82l2.81,7.93-1,1.94Zm8.07,0L138.65,612a2.6,2.6,0,0,1-.56,1,1.87,1.87,0,0,1-.84.52,4,4,0,0,1-1.23.16h-.36V612H136a1.46,1.46,0,0,0,.8-.2,1.74,1.74,0,0,0,.51-.7l3.37-10.31Z"/><path class="b" d="M143.57,600.78h4.12v1.62h-4.12Zm1.46,8.56a2.77,2.77,0,0,1-.52-1.81v-9.4h1.8v9.42a.84.84,0,0,0,.13.51.46.46,0,0,0,.39.18h.86V610h-1A2,2,0,0,1,145,609.34Z"/><path class="b" d="M151.94,606.33a2.07,2.07,0,0,0,.49,1.48,1.76,1.76,0,0,0,1.37.52,1.91,1.91,0,0,0,1.37-.46,1.79,1.79,0,0,0,.48-1.33l.12,1.91A2.58,2.58,0,0,1,153.3,610a2.89,2.89,0,0,1-2.33-1,4.08,4.08,0,0,1-.82-2.73v-5.55h1.79Zm3.71-5.55h1.78v9.12h-1.78Z"/><rect class="c" x="612.92" y="591.68" width="35.43" height="2.83"/><path class="d" d="M648.48,594.64H612.79v-3.08h35.69ZM613,594.39h35.19v-2.58H613Z"/><rect class="c" x="612.92" y="601.6" width="70.74" height="2.83"/><path class="d" d="M683.78,604.56h-71v-3.08h71ZM613,604.31h70.49v-2.58H613Z"/><rect class="c" x="612.92" y="612.72" width="177.16" height="2.84"/><path class="d" d="M790.21,615.68H612.79V612.6H790.21ZM613,615.43H790v-2.58H613Z"/><path class="e" d="M587.26,596.28h-.8v-4.82l-.81.5v-.83l.81-.53h.8Z"/><path class="e" d="M589,595.91a1.67,1.67,0,0,1-.41-1.19v-2.58A1.65,1.65,0,0,1,589,591a2,2,0,0,1,2.42,0,1.65,1.65,0,0,1,.41,1.19v2.58a1.65,1.65,0,0,1-.41,1.19,2,2,0,0,1-2.42,0Zm1.83-.55a.89.89,0,0,0,.2-.64v-2.58a.89.89,0,0,0-.2-.64.82.82,0,0,0-.62-.22.86.86,0,0,0-.63.22.94.94,0,0,0-.2.64v2.58a.9.9,0,0,0,.21.64,1,1,0,0,0,1.24,0Z"/><path class="e" d="M593.22,595.91a1.67,1.67,0,0,1-.41-1.19v-2.58a1.65,1.65,0,0,1,.41-1.19,2,2,0,0,1,2.42,0,1.61,1.61,0,0,1,.41,1.19v2.58a1.65,1.65,0,0,1-.41,1.19,2,2,0,0,1-2.42,0Zm1.83-.55a.9.9,0,0,0,.21-.64v-2.58a.94.94,0,0,0-.2-.64.86.86,0,0,0-.63-.22.82.82,0,0,0-.62.22.89.89,0,0,0-.2.64v2.58a.89.89,0,0,0,.2.64,1,1,0,0,0,1.24,0Z"/><path class="e" d="M600.1,596.13a1.45,1.45,0,0,1-.6-.6,2.06,2.06,0,0,1-.21-1v-.67a2,2,0,0,1,.21-.94,1.37,1.37,0,0,1,.6-.59,2,2,0,0,1,.95-.21,2.21,2.21,0,0,1,.59.08,1.68,1.68,0,0,1,.51.22,1.54,1.54,0,0,1,.37.35l-.58.52a1.17,1.17,0,0,0-.4-.3,1.13,1.13,0,0,0-.48-.11.94.94,0,0,0-.71.26,1,1,0,0,0-.26.72v.67a1,1,0,0,0,.25.74.94.94,0,0,0,.72.27,1,1,0,0,0,.48-.12,1,1,0,0,0,.4-.32l.58.56a1.38,1.38,0,0,1-.38.34,1.62,1.62,0,0,1-.5.22,2.27,2.27,0,0,1-.59.07A2.12,2.12,0,0,1,600.1,596.13Z"/><path class="e" d="M603.4,592.22h.79v4.06h-.79Zm2.42,1.6a1,1,0,0,0-.21-.67.78.78,0,0,0-.6-.23.81.81,0,0,0-.6.21.73.73,0,0,0-.22.58l-.08-.78a1.46,1.46,0,0,1,.49-.57,1.22,1.22,0,0,1,.67-.2,1.33,1.33,0,0,1,.73.2,1.18,1.18,0,0,1,.46.56,2.4,2.4,0,0,1,.15.89v2.47h-.79Zm2.42,0a.93.93,0,0,0-.22-.67.85.85,0,0,0-.63-.23.72.72,0,0,0-.57.23.9.9,0,0,0-.21.64l-.16-.78a1.61,1.61,0,0,1,.51-.63,1.23,1.23,0,0,1,.69-.22,1.37,1.37,0,0,1,.75.2,1.09,1.09,0,0,1,.47.56,2.21,2.21,0,0,1,.17.89v2.47h-.8Z"/><path class="e" d="M584.33,605.5l2-2.64a1.85,1.85,0,0,0,.27-.47,1.29,1.29,0,0,0,.09-.45h0a.67.67,0,0,0-.2-.53.81.81,0,0,0-.56-.19.76.76,0,0,0-.56.21,1,1,0,0,0-.27.58h-.82a2,2,0,0,1,.29-.83,1.42,1.42,0,0,1,.56-.53,1.67,1.67,0,0,1,.79-.18,1.93,1.93,0,0,1,.87.17,1.21,1.21,0,0,1,.54.51,1.55,1.55,0,0,1,.19.8h0a1.84,1.84,0,0,1-.12.63,2.8,2.8,0,0,1-.35.63l-1.65,2.24h2.15v.76h-3.2Z"/><path class="e" d="M589,605.83a1.67,1.67,0,0,1-.41-1.19v-2.58a1.65,1.65,0,0,1,.41-1.19,2,2,0,0,1,2.42,0,1.65,1.65,0,0,1,.41,1.19v2.58a1.65,1.65,0,0,1-.41,1.19,2,2,0,0,1-2.42,0Zm1.83-.55a.89.89,0,0,0,.2-.64v-2.58a.89.89,0,0,0-.2-.64.82.82,0,0,0-.62-.22.86.86,0,0,0-.63.22.94.94,0,0,0-.19.64v2.58a.89.89,0,0,0,.2.64,1,1,0,0,0,1.24,0Z"/><path class="e" d="M593.22,605.83a1.67,1.67,0,0,1-.41-1.19v-2.58a1.61,1.61,0,0,1,.42-1.19,1.59,1.59,0,0,1,1.2-.42,1.45,1.45,0,0,1,1.62,1.61v2.58a1.61,1.61,0,0,1-.41,1.19,2,2,0,0,1-2.42,0Zm1.84-.55a.94.94,0,0,0,.2-.64v-2.58a.94.94,0,0,0-.2-.64.84.84,0,0,0-.63-.22.82.82,0,0,0-.62.22.89.89,0,0,0-.2.64v2.58a.89.89,0,0,0,.2.64.82.82,0,0,0,.62.22A.86.86,0,0,0,595.06,605.28Z"/><path class="e" d="M600.1,606.05a1.45,1.45,0,0,1-.6-.6,2.06,2.06,0,0,1-.2-1v-.67a2,2,0,0,1,.2-.94,1.37,1.37,0,0,1,.6-.59,2,2,0,0,1,.95-.21,2.35,2.35,0,0,1,.6.08,1.73,1.73,0,0,1,.5.22,1.38,1.38,0,0,1,.37.35l-.58.52a1.08,1.08,0,0,0-.4-.3,1.13,1.13,0,0,0-.48-.11,1,1,0,0,0-.71.26,1,1,0,0,0-.26.72v.67a1,1,0,0,0,.25.74.94.94,0,0,0,.72.27,1.14,1.14,0,0,0,.88-.44l.58.56a1.38,1.38,0,0,1-.38.34,1.62,1.62,0,0,1-.5.22,2.22,2.22,0,0,1-.59.07A2.12,2.12,0,0,1,600.1,606.05Z"/><path class="e" d="M603.4,602.14h.79v4.06h-.79Zm2.42,1.6a1,1,0,0,0-.21-.67.78.78,0,0,0-.6-.23.81.81,0,0,0-.6.21.73.73,0,0,0-.22.58l-.08-.78a1.46,1.46,0,0,1,.49-.57,1.22,1.22,0,0,1,.67-.2,1.3,1.3,0,0,1,.73.2,1.18,1.18,0,0,1,.46.56,2.4,2.4,0,0,1,.16.89v2.47h-.8Zm2.42,0a.93.93,0,0,0-.22-.67.85.85,0,0,0-.63-.23.73.73,0,0,0-.57.23.89.89,0,0,0-.2.64l-.16-.78a1.51,1.51,0,0,1,.5-.63,1.23,1.23,0,0,1,.69-.22,1.35,1.35,0,0,1,.75.2,1.16,1.16,0,0,1,.48.56,2.4,2.4,0,0,1,.16.89v2.47h-.8Z"/><path class="e" d="M585,615.58a1.34,1.34,0,0,1-.54-.49,2,2,0,0,1-.28-.77h.8a.75.75,0,0,0,.25.49.85.85,0,0,0,.54.17.72.72,0,0,0,.59-.25,1.1,1.1,0,0,0,.21-.72v-.48a1.1,1.1,0,0,0-.21-.72.72.72,0,0,0-.59-.25.83.83,0,0,0-.4.11,1.18,1.18,0,0,0-.34.33h-.72v-3h2.89v.76h-2.1V612a1,1,0,0,1,.34-.18.94.94,0,0,1,.37-.07,1.68,1.68,0,0,1,.84.2,1.29,1.29,0,0,1,.53.6,2.07,2.07,0,0,1,.19.94V614a2.25,2.25,0,0,1-.19.94,1.31,1.31,0,0,1-.55.59,1.69,1.69,0,0,1-.86.21A1.74,1.74,0,0,1,585,615.58Z"/><path class="e" d="M589,615.32a1.65,1.65,0,0,1-.41-1.19v-2.58a1.67,1.67,0,0,1,.41-1.19,2,2,0,0,1,2.42,0,1.65,1.65,0,0,1,.41,1.19v2.58a1.64,1.64,0,0,1-.41,1.19,1.92,1.92,0,0,1-2.42,0Zm1.83-.55a.89.89,0,0,0,.2-.64v-2.58a.88.88,0,0,0-.2-.63.78.78,0,0,0-.62-.22.82.82,0,0,0-.63.22.93.93,0,0,0-.2.63v2.58a.9.9,0,0,0,.21.64,1,1,0,0,0,1.24,0Z"/><path class="e" d="M593.22,615.32a1.65,1.65,0,0,1-.41-1.19v-2.58a1.67,1.67,0,0,1,.41-1.19,2,2,0,0,1,2.42,0,1.61,1.61,0,0,1,.41,1.19v2.58a1.64,1.64,0,0,1-.41,1.19,1.92,1.92,0,0,1-2.42,0Zm1.83-.55a.9.9,0,0,0,.21-.64v-2.58a.93.93,0,0,0-.2-.63.82.82,0,0,0-.63-.22.78.78,0,0,0-.62.22.88.88,0,0,0-.2.63v2.58a.89.89,0,0,0,.2.64,1,1,0,0,0,1.24,0Z"/><path class="e" d="M600.1,615.54a1.45,1.45,0,0,1-.6-.6,2,2,0,0,1-.21-1v-.67a2,2,0,0,1,.21-.94,1.45,1.45,0,0,1,.6-.6,2,2,0,0,1,.95-.2,2.22,2.22,0,0,1,.59.07,2,2,0,0,1,.51.22,1.76,1.76,0,0,1,.37.35l-.58.52a1.17,1.17,0,0,0-.4-.3,1.13,1.13,0,0,0-.48-.11.94.94,0,0,0-.71.26,1,1,0,0,0-.26.73V614a1.07,1.07,0,0,0,.25.74,1,1,0,0,0,.72.26,1.13,1.13,0,0,0,.48-.11,1.26,1.26,0,0,0,.4-.32l.58.55a1.42,1.42,0,0,1-.38.35,1.88,1.88,0,0,1-.5.21,2.27,2.27,0,0,1-.59.08A2,2,0,0,1,600.1,615.54Z"/><path class="e" d="M603.4,611.63h.79v4.06h-.79Zm2.42,1.6a1,1,0,0,0-.21-.66.75.75,0,0,0-.6-.24.81.81,0,0,0-.6.21.75.75,0,0,0-.22.58l-.08-.78a1.5,1.5,0,0,1,.49-.56,1.15,1.15,0,0,1,.67-.2,1.32,1.32,0,0,1,.73.19,1.28,1.28,0,0,1,.46.56,2.42,2.42,0,0,1,.15.9v2.46h-.79Zm2.42,0a.91.91,0,0,0-.22-.66.82.82,0,0,0-.63-.24.72.72,0,0,0-.57.23.9.9,0,0,0-.21.64l-.16-.78a1.51,1.51,0,0,1,.51-.62,1.16,1.16,0,0,1,.69-.22,1.37,1.37,0,0,1,.75.19,1.18,1.18,0,0,1,.47.56,2.22,2.22,0,0,1,.17.9v2.46h-.8Z"/><path class="c" d="M23.49,613.89A12.92,12.92,0,1,1,36.4,601,12.93,12.93,0,0,1,23.49,613.89Zm0-24.83A11.92,11.92,0,1,0,35.4,601,11.93,11.93,0,0,0,23.49,589.06Z"/><polygon class="d" points="35.77 588.74 9.42 600.98 35.77 613.21 32.02 600.98 35.77 588.74"/><path class="c" d="M36.58,614.14,8.23,601l28.35-13.17-4,13.17ZM10.61,601,35,612.29,31.5,601,35,589.66Z"/><path class="c" d="M2.52,605.19a5,5,0,0,1-1.11-.38,4.4,4.4,0,0,1-1-.64l.81-1a3.72,3.72,0,0,0,1.16.69,4.08,4.08,0,0,0,1.38.23,2.73,2.73,0,0,0,1.55-.38,1.17,1.17,0,0,0,.55-1.05h0a1.12,1.12,0,0,0-.25-.77,1.44,1.44,0,0,0-.64-.42,8.23,8.23,0,0,0-1-.25H3.89l-.1,0a9.48,9.48,0,0,1-1.5-.36,2.08,2.08,0,0,1-1-.73,2.42,2.42,0,0,1-.41-1.51h0a2.77,2.77,0,0,1,.38-1.47,2.44,2.44,0,0,1,1.12-.92,4.48,4.48,0,0,1,1.77-.32,4.6,4.6,0,0,1,1,.11,4.9,4.9,0,0,1,1.86.86l-.73,1a4.61,4.61,0,0,0-1-.58,3,3,0,0,0-1.06-.2,2.44,2.44,0,0,0-1.46.38,1.24,1.24,0,0,0-.53,1.07h0a1,1,0,0,0,.27.75,1.74,1.74,0,0,0,.67.4,9.3,9.3,0,0,0,1.12.27h.24a7.93,7.93,0,0,1,1.4.41,2.22,2.22,0,0,1,.94.76,2.4,2.4,0,0,1,.38,1.43h0a2.62,2.62,0,0,1-.4,1.45,2.54,2.54,0,0,1-1.16.91,4.8,4.8,0,0,1-1.83.31A6.44,6.44,0,0,1,2.52,605.19Z"/><rect class="c" x="612.5" y="600.68" width="1" height="4.68"/><rect class="c" x="612.5" y="590.76" width="1" height="4.68"/><rect class="c" x="612.5" y="611.45" width="1" height="5.24"/><rect class="c" x="789.58" y="611.45" width="1" height="5.24"/><rect class="c" x="682.59" y="600.68" width="1" height="4.68"/><rect class="c" x="647.3" y="590.76" width="1" height="4.68"/><rect class="a" width="790.34" height="618.13"/><line class="f" x1="546.92" y1="240.6" x2="549.66" y2="240.6"/><line class="f" x1="544.19" y1="240.6" x2="544.19" y2="189.24"/><line class="f" x1="446.06" y1="240.6" x2="544.19" y2="240.6"/><line class="f" x1="446.06" y1="244.02" x2="446.06" y2="240.6"/><line class="f" x1="415.29" y1="244.02" x2="446.06" y2="244.02"/><line class="f" x1="415.29" y1="240.6" x2="415.29" y2="244.02"/><line class="f" x1="364.01" y1="240.6" x2="415.29" y2="240.6"/><line class="f" x1="364.01" y1="244.02" x2="364.01" y2="240.6"/><line class="f" x1="333.24" y1="244.02" x2="364.01" y2="244.02"/><line class="f" x1="333.24" y1="240.6" x2="333.24" y2="244.02"/><line class="f" x1="246.56" y1="240.6" x2="333.23" y2="240.6"/><line class="f" x1="246.56" y1="189.24" x2="246.56" y2="240.6"/><line class="f" x1="544.19" y1="189.24" x2="246.56" y2="189.24"/><line class="f" x1="240.92" y1="240.6" x2="243.83" y2="240.6"/><rect class="d" x="432.04" y="403.56" width="20.51" height="20.54"/><line class="f" x1="432.04" y1="424.1" x2="452.56" y2="424.1"/><line class="f" x1="432.04" y1="403.56" x2="432.04" y2="424.1"/><line class="f" x1="452.56" y1="403.56" x2="432.05" y2="403.56"/><line class="f" x1="452.56" y1="424.1" x2="452.56" y2="403.56"/><rect class="d" x="513.25" y="359.91" width="27.35" height="41.08"/><line class="f" x1="540.6" y1="400.99" x2="513.25" y2="400.99"/><line class="f" x1="513.25" y1="400.99" x2="513.25" y2="359.91"/><line class="f" x1="513.25" y1="359.91" x2="540.6" y2="359.91"/><line class="f" x1="540.6" y1="359.91" x2="540.6" y2="400.99"/><line class="f" x1="240.92" y1="424.1" x2="240.92" y2="424.1"/><line class="f" x1="240.92" y1="341.59" x2="240.92" y2="341.59"/><line class="f" x1="240.92" y1="341.59" x2="240.92" y2="403.56"/><line class="f" x1="240.92" y1="403.56" x2="240.92" y2="424.1"/><rect class="d" x="249.13" y="403.22" width="97.44" height="20.88"/><line class="f" x1="346.57" y1="424.1" x2="249.13" y2="424.1"/><line class="f" x1="249.13" y1="424.1" x2="249.13" y2="403.22"/><line class="f" x1="249.13" y1="403.22" x2="346.57" y2="403.22"/><line class="f" x1="346.57" y1="403.22" x2="346.57" y2="424.1"/><rect class="d" x="249.13" y="351.86" width="20.86" height="51.35"/><line class="f" x1="249.13" y1="351.86" x2="249.13" y2="403.22"/><line class="f" x1="269.98" y1="351.86" x2="249.13" y2="351.86"/><line class="f" x1="269.98" y1="403.22" x2="269.98" y2="351.86"/><line class="f" x1="249.13" y1="403.22" x2="269.98" y2="403.22"/><line class="f" x1="545.39" y1="432.32" x2="545.39" y2="432.32"/><line class="f" x1="549.66" y1="432.32" x2="545.39" y2="432.32"/><polygon points="500.77 247.44 500.77 240.6 545.38 240.6 549.66 240.6 549.66 247.44 500.77 247.44"/><polygon points="240.92 247.44 240.92 240.6 245.19 240.6 278.53 240.6 278.53 247.44 240.92 247.44"/><rect x="364.01" y="240.6" width="51.29" height="6.85"/><rect x="240.92" y="247.44" width="35.9" height="6.85"/><rect x="365.72" y="247.44" width="47.87" height="6.85"/><rect x="502.48" y="247.44" width="47.18" height="6.85"/><polygon points="452.56 367.61 452.56 359.05 447.43 359.05 447.43 356.66 541.45 356.66 541.45 359.05 454.95 359.05 454.95 367.61 452.56 367.61"/><polygon points="541.45 432.32 416.66 432.32 416.66 424.1 541.45 424.1 541.45 254.29 549.66 254.29 549.66 432.32 541.45 432.32"/><polygon points="240.92 432.32 240.92 424.1 240.92 254.29 249.13 254.29 249.13 424.1 379.05 424.1 379.05 432.32 240.92 432.32"/><polygon points="370.5 367.61 370.5 356.66 388.62 356.66 388.62 254.29 391.02 254.29 391.02 356.66 416.66 356.66 416.66 359.05 372.9 359.05 372.9 367.61 370.5 367.61"/><rect x="379.05" y="428.38" width="1.71" height="3.94"/><rect x="414.95" y="428.38" width="1.71" height="3.94"/><rect x="452.56" y="395" width="2.39" height="29.1"/><polygon points="370.5 424.1 370.5 403.56 370.5 398.42 372.9 398.42 372.9 424.1 370.5 424.1"/><rect x="514.1" y="401.85" width="27.35" height="3.42"/><rect x="514.1" y="405.27" width="3.42" height="18.83"/><polygon points="346.57 424.1 346.57 403.56 370.5 403.56 370.5 406.98 349.99 406.98 349.99 424.1 346.57 424.1"/><rect x="245.2" y="189.24" width="1.37" height="51.36"/><rect x="544.19" y="189.24" width="1.2" height="51.36"/><line class="f" x1="502.48" y1="254.29" x2="502.48" y2="247.44"/><line class="f" x1="413.58" y1="254.29" x2="413.58" y2="247.44"/><line class="f" x1="365.72" y1="254.29" x2="365.72" y2="247.44"/><line class="f" x1="545.39" y1="240.6" x2="500.77" y2="240.6"/><line class="f" x1="549.66" y1="240.6" x2="545.39" y2="240.6"/><line class="f" x1="415.29" y1="240.6" x2="364.01" y2="240.6"/><line class="f" x1="245.2" y1="240.6" x2="240.92" y2="240.6"/><line class="f" x1="278.53" y1="240.6" x2="245.2" y2="240.6"/><line class="f" x1="549.66" y1="254.29" x2="549.66" y2="254.29"/><line class="f" x1="541.45" y1="254.29" x2="502.48" y2="254.29"/><line class="f" x1="413.58" y1="254.29" x2="391.02" y2="254.29"/><line class="f" x1="388.62" y1="254.29" x2="365.72" y2="254.29"/><line class="f" x1="276.82" y1="254.29" x2="249.13" y2="254.29"/><line class="f" x1="276.82" y1="254.29" x2="276.82" y2="247.44"/><line class="f" x1="365.72" y1="254.29" x2="365.72" y2="247.44"/><line class="f" x1="544.19" y1="189.24" x2="544.19" y2="240.6"/><line class="f" x1="545.39" y1="189.24" x2="544.19" y2="189.24"/><line class="f" x1="246.56" y1="189.24" x2="246.56" y2="240.6"/><line class="f" x1="246.56" y1="189.24" x2="245.2" y2="189.24"/><line class="f" x1="500.77" y1="247.44" x2="500.77" y2="240.6"/><line class="f" x1="502.48" y1="247.44" x2="500.77" y2="247.44"/><line class="f" x1="364.01" y1="247.44" x2="364.01" y2="240.6"/><line class="f" x1="365.72" y1="247.44" x2="364.01" y2="247.44"/><line class="f" x1="415.29" y1="247.44" x2="415.29" y2="240.6"/><line class="f" x1="413.58" y1="247.44" x2="415.29" y2="247.44"/><line class="f" x1="278.53" y1="247.44" x2="278.53" y2="240.6"/><line class="f" x1="276.82" y1="247.44" x2="278.53" y2="247.44"/><line class="f" x1="545.39" y1="189.24" x2="245.2" y2="189.24"/><line class="f" x1="276.82" y1="254.29" x2="331.53" y2="254.29"/><line class="f" x1="331.53" y1="254.29" x2="365.72" y2="254.29"/><line class="f" x1="278.53" y1="240.6" x2="333.23" y2="240.6"/><line class="f" x1="331.53" y1="254.29" x2="331.53" y2="247.44"/><line class="f" x1="333.24" y1="247.44" x2="333.24" y2="240.6"/><line class="f" x1="333.24" y1="244.02" x2="364.01" y2="244.02"/><line class="f" x1="334.26" y1="248.13" x2="334.26" y2="247.44"/><line class="f" x1="334.26" y1="247.44" x2="331.53" y2="247.44"/><line class="f" x1="331.53" y1="247.44" x2="331.53" y2="250.18"/><line class="f" x1="331.53" y1="250.18" x2="332.89" y2="250.18"/><line class="f" x1="332.89" y1="250.87" x2="335.63" y2="250.87"/><line class="f" x1="335.63" y1="250.87" x2="335.63" y2="248.13"/><line class="f" x1="335.63" y1="248.13" x2="332.89" y2="248.13"/><line class="f" x1="332.89" y1="248.13" x2="332.89" y2="250.87"/><line class="f" x1="364.35" y1="250.87" x2="361.61" y2="250.87"/><line class="f" x1="361.61" y1="250.87" x2="361.61" y2="248.13"/><line class="f" x1="361.61" y1="248.13" x2="364.35" y2="248.13"/><line class="f" x1="364.35" y1="248.13" x2="364.35" y2="250.87"/><line class="f" x1="335.63" y1="250.87" x2="361.61" y2="250.87"/><line class="f" x1="361.61" y1="248.13" x2="335.63" y2="248.13"/><line class="f" x1="335.63" y1="249.5" x2="361.61" y2="249.5"/><line class="f" x1="362.98" y1="248.13" x2="362.98" y2="247.44"/><line class="f" x1="362.98" y1="247.44" x2="365.72" y2="247.44"/><line class="f" x1="365.72" y1="247.44" x2="365.72" y2="250.18"/><line class="f" x1="365.72" y1="250.18" x2="364.35" y2="250.18"/><line class="f" x1="331.53" y1="250.18" x2="328.79" y2="250.18"/><line class="f" x1="328.79" y1="250.18" x2="328.79" y2="247.44"/><line class="f" x1="328.79" y1="247.44" x2="331.53" y2="247.44"/><line class="f" x1="331.53" y1="247.44" x2="331.53" y2="250.18"/><line class="f" x1="328.79" y1="250.18" x2="305.54" y2="250.18"/><line class="f" x1="328.79" y1="248.81" x2="305.54" y2="248.81"/><line class="f" x1="328.79" y1="247.44" x2="305.54" y2="247.44"/><line class="f" x1="279.56" y1="248.13" x2="279.56" y2="247.44"/><line class="f" x1="279.56" y1="247.44" x2="276.82" y2="247.44"/><line class="f" x1="276.82" y1="247.44" x2="276.82" y2="250.18"/><line class="f" x1="276.82" y1="250.18" x2="278.19" y2="250.18"/><line class="f" x1="278.19" y1="250.87" x2="280.92" y2="250.87"/><line class="f" x1="280.92" y1="250.87" x2="280.92" y2="248.13"/><line class="f" x1="280.92" y1="248.13" x2="278.19" y2="248.13"/><line class="f" x1="278.19" y1="248.13" x2="278.19" y2="250.87"/><line class="f" x1="280.92" y1="250.87" x2="301.44" y2="250.87"/><line class="f" x1="301.44" y1="248.13" x2="280.92" y2="248.13"/><line class="f" x1="280.92" y1="249.5" x2="301.44" y2="249.5"/><line class="f" x1="302.81" y1="248.13" x2="302.81" y2="247.44"/><line class="f" x1="302.81" y1="247.44" x2="305.54" y2="247.44"/><line class="f" x1="305.54" y1="247.44" x2="305.54" y2="250.18"/><line class="f" x1="305.54" y1="250.18" x2="304.17" y2="250.18"/><line class="f" x1="304.17" y1="250.87" x2="301.44" y2="250.87"/><line class="f" x1="301.44" y1="250.87" x2="301.44" y2="248.13"/><line class="f" x1="301.44" y1="248.13" x2="304.17" y2="248.13"/><line class="f" x1="304.17" y1="248.13" x2="304.17" y2="250.87"/><line class="f" x1="502.48" y1="254.29" x2="447.77" y2="254.29"/><line class="f" x1="447.77" y1="254.29" x2="413.58" y2="254.29"/><line class="f" x1="500.77" y1="240.6" x2="446.06" y2="240.6"/><line class="f" x1="447.77" y1="254.29" x2="447.77" y2="247.44"/><line class="f" x1="446.06" y1="247.44" x2="446.06" y2="240.6"/><line class="f" x1="446.06" y1="244.02" x2="415.29" y2="244.02"/><line class="f" x1="445.04" y1="248.13" x2="445.04" y2="247.44"/><line class="f" x1="445.04" y1="247.44" x2="447.77" y2="247.44"/><line class="f" x1="447.77" y1="247.44" x2="447.77" y2="250.18"/><line class="f" x1="447.77" y1="250.18" x2="446.4" y2="250.18"/><line class="f" x1="446.41" y1="250.87" x2="443.67" y2="250.87"/><line class="f" x1="443.67" y1="250.87" x2="443.67" y2="248.13"/><line class="f" x1="443.67" y1="248.13" x2="446.41" y2="248.13"/><line class="f" x1="446.41" y1="248.13" x2="446.41" y2="250.87"/><line class="f" x1="414.95" y1="250.87" x2="417.69" y2="250.87"/><line class="f" x1="417.69" y1="250.87" x2="417.69" y2="248.13"/><line class="f" x1="417.69" y1="248.13" x2="414.95" y2="248.13"/><line class="f" x1="414.95" y1="248.13" x2="414.95" y2="250.87"/><line class="f" x1="443.67" y1="250.87" x2="417.69" y2="250.87"/><line class="f" x1="417.69" y1="248.13" x2="443.67" y2="248.13"/><line class="f" x1="443.67" y1="249.5" x2="417.69" y2="249.5"/><line class="f" x1="416.32" y1="248.13" x2="416.32" y2="247.44"/><line class="f" x1="416.32" y1="247.44" x2="413.58" y2="247.44"/><line class="f" x1="413.58" y1="247.44" x2="413.58" y2="250.18"/><line class="f" x1="413.58" y1="250.18" x2="414.95" y2="250.18"/><line class="f" x1="447.77" y1="250.18" x2="450.51" y2="250.18"/><line class="f" x1="450.51" y1="250.18" x2="450.51" y2="247.44"/><line class="f" x1="450.51" y1="247.44" x2="447.77" y2="247.44"/><line class="f" x1="447.77" y1="247.44" x2="447.77" y2="250.18"/><line class="f" x1="450.51" y1="250.18" x2="473.76" y2="250.18"/><line class="f" x1="450.51" y1="248.81" x2="473.76" y2="248.81"/><line class="f" x1="450.51" y1="247.44" x2="473.76" y2="247.44"/><line class="f" x1="499.74" y1="248.13" x2="499.74" y2="247.44"/><line class="f" x1="499.74" y1="247.44" x2="502.48" y2="247.44"/><line class="f" x1="502.48" y1="247.44" x2="502.48" y2="250.18"/><line class="f" x1="502.48" y1="250.18" x2="501.11" y2="250.18"/><line class="f" x1="501.11" y1="250.87" x2="498.37" y2="250.87"/><line class="f" x1="498.37" y1="250.87" x2="498.37" y2="248.13"/><line class="f" x1="498.37" y1="248.13" x2="501.11" y2="248.13"/><line class="f" x1="501.11" y1="248.13" x2="501.11" y2="250.87"/><line class="f" x1="498.37" y1="250.87" x2="477.86" y2="250.87"/><line class="f" x1="477.86" y1="248.13" x2="498.37" y2="248.13"/><line class="f" x1="498.37" y1="249.5" x2="477.86" y2="249.5"/><line class="f" x1="476.49" y1="248.13" x2="476.49" y2="247.44"/><line class="f" x1="476.49" y1="247.44" x2="473.76" y2="247.44"/><line class="f" x1="473.76" y1="247.44" x2="473.76" y2="250.18"/><line class="f" x1="473.76" y1="250.18" x2="475.13" y2="250.18"/><line class="f" x1="475.12" y1="250.87" x2="477.86" y2="250.87"/><line class="f" x1="477.86" y1="250.87" x2="477.86" y2="248.13"/><line class="f" x1="477.86" y1="248.13" x2="475.12" y2="248.13"/><line class="f" x1="475.12" y1="248.13" x2="475.12" y2="250.87"/><line class="f" x1="379.05" y1="424.1" x2="372.9" y2="424.1"/><line class="f" x1="249.13" y1="254.29" x2="249.13" y2="424.1"/><line class="f" x1="549.66" y1="428.89" x2="549.66" y2="411.78"/><line class="f" x1="549.66" y1="409.38" x2="549.66" y2="254.29"/><line class="f" x1="541.45" y1="356.66" x2="541.45" y2="254.29"/><line class="f" x1="454.95" y1="367.61" x2="454.95" y2="359.05"/><line class="f" x1="452.56" y1="367.61" x2="452.56" y2="359.05"/><line class="f" x1="391.02" y1="356.66" x2="391.02" y2="254.29"/><line class="f" x1="388.62" y1="356.66" x2="388.62" y2="254.29"/><line class="f" x1="541.45" y1="356.66" x2="447.43" y2="356.66"/><line class="f" x1="416.66" y1="356.66" x2="391.02" y2="356.66"/><line class="f" x1="541.45" y1="359.05" x2="454.95" y2="359.05"/><line class="f" x1="452.56" y1="359.05" x2="447.43" y2="359.05"/><line class="f" x1="549.66" y1="409.38" x2="549.66" y2="409.38"/><line class="f" x1="549.66" y1="411.78" x2="549.66" y2="411.78"/><line class="f" x1="549.66" y1="428.89" x2="549.66" y2="428.89"/><line class="f" x1="549.66" y1="432.32" x2="549.66" y2="432.32"/><line class="f" x1="346.57" y1="424.1" x2="249.13" y2="424.1"/><line class="f" x1="541.45" y1="432.32" x2="416.66" y2="432.32"/><line class="f" x1="379.05" y1="432.32" x2="240.92" y2="432.32"/><line class="f" x1="541.45" y1="432.32" x2="541.45" y2="432.32"/><line class="f" x1="346.57" y1="403.56" x2="346.57" y2="424.1"/><line class="f" x1="454.95" y1="395" x2="452.56" y2="395"/><line class="f" x1="454.95" y1="367.61" x2="452.56" y2="367.61"/><line class="f" x1="416.66" y1="356.66" x2="416.66" y2="359.05"/><line class="f" x1="447.43" y1="356.66" x2="447.43" y2="359.05"/><line class="f" x1="549.66" y1="432.32" x2="549.66" y2="432.32"/><line class="f" x1="364.35" y1="250.87" x2="364.35" y2="282.36"/><g class="g"><path class="f" d="M364.35,282.36a31.48,31.48,0,0,1-31.46-31.49"/></g><line class="f" x1="414.95" y1="250.87" x2="414.95" y2="282.36"/><g class="g"><path class="f" d="M446.41,250.87A31.48,31.48,0,0,1,415,282.36"/></g><line class="f" x1="325.71" y1="423.76" x2="325.71" y2="403.22"/><line class="f" x1="333.55" y1="411.07" x2="338.39" y2="415.91"/><line class="f" x1="338.39" y1="411.07" x2="333.55" y2="415.91"/><line class="f" x1="335.97" y1="416.91" x2="335.97" y2="410.06"/><line class="f" x1="332.55" y1="413.49" x2="339.39" y2="413.49"/><line class="f" x1="325.71" y1="403.22" x2="346.23" y2="403.22"/><line class="f" x1="324.86" y1="404.93" x2="306.05" y2="404.93"/><line class="f" x1="306.05" y1="404.93" x2="306.05" y2="422.05"/><line class="f" x1="306.05" y1="422.05" x2="324.86" y2="422.05"/><line class="f" x1="324.86" y1="422.05" x2="324.86" y2="404.93"/><line class="f" x1="325.71" y1="403.22" x2="305.2" y2="403.22"/><line class="f" x1="323.15" y1="406.64" x2="307.76" y2="406.64"/><line class="f" x1="307.76" y1="406.64" x2="307.76" y2="418.62"/><line class="f" x1="307.76" y1="418.62" x2="323.15" y2="418.62"/><line class="f" x1="323.15" y1="418.62" x2="323.15" y2="406.64"/><g class="g"><path class="f" d="M316.14,415.2a.69.69,0,1,0-.68.68.68.68,0,0,0,.68-.68"/></g><line class="f" x1="305.2" y1="423.76" x2="305.2" y2="403.22"/><line class="f" x1="305.2" y1="403.22" x2="284.69" y2="403.22"/><line class="f" x1="284.69" y1="403.22" x2="284.69" y2="423.76"/><line class="f" x1="269.98" y1="403.22" x2="269.98" y2="382.68"/><line class="f" x1="269.98" y1="382.68" x2="249.13" y2="382.68"/><line class="f" x1="249.13" y1="382.68" x2="249.13" y2="403.22"/><line class="f" x1="249.13" y1="403.22" x2="269.98" y2="403.22"/><g class="g"><path class="f" d="M265.71,393a6,6,0,1,0-6,6,6,6,0,0,0,6-6"/><path class="f" d="M264.68,393a5,5,0,1,0-4.95,5,5,5,0,0,0,4.95-5"/><path class="f" d="M258.05,377.45a3.36,3.36,0,1,0-3.36,3.36,3.35,3.35,0,0,0,3.36-3.36"/></g><line class="f" x1="249.47" y1="382.68" x2="269.98" y2="382.68"/><line class="f" x1="269.98" y1="382.68" x2="269.98" y2="362.13"/><line class="f" x1="269.98" y1="362.13" x2="249.47" y2="362.13"/><g class="g"><path class="f" d="M268.12,377.45a3.36,3.36,0,1,0-3.36,3.36,3.35,3.35,0,0,0,3.36-3.36"/><path class="f" d="M268.12,367.36a3.36,3.36,0,1,0-3.36,3.36,3.36,3.36,0,0,0,3.36-3.36"/></g><line class="f" x1="270.92" y1="364.93" x2="270.92" y2="379.87"/><line class="f" x1="346.57" y1="424.1" x2="346.57" y2="403.22"/><line class="f" x1="346.57" y1="403.22" x2="269.98" y2="403.22"/><line class="f" x1="269.98" y1="403.22" x2="269.98" y2="351.86"/><line class="f" x1="269.98" y1="351.86" x2="249.13" y2="351.86"/><line class="f" x1="249.13" y1="351.86" x2="249.13" y2="424.1"/><line class="f" x1="249.13" y1="424.1" x2="346.57" y2="424.1"/><line class="f" x1="388.62" y1="356.66" x2="370.5" y2="356.66"/><line class="f" x1="416.66" y1="359.05" x2="372.9" y2="359.05"/><line class="f" x1="541.45" y1="401.85" x2="541.45" y2="359.05"/><line class="f" x1="372.9" y1="398.42" x2="370.5" y2="398.42"/><line class="f" x1="380.76" y1="428.38" x2="380.76" y2="432.32"/><line class="f" x1="416.66" y1="432.32" x2="414.95" y2="432.32"/><line class="f" x1="514.1" y1="418.97" x2="454.95" y2="418.97"/><line class="f" x1="507.18" y1="359.91" x2="507.18" y2="363.33"/><line class="f" x1="507.18" y1="363.33" x2="486.66" y2="363.33"/><line class="f" x1="486.66" y1="363.33" x2="486.66" y2="359.91"/><line class="f" x1="486.66" y1="359.91" x2="487.69" y2="359.91"/><line class="f" x1="487.69" y1="359.91" x2="487.69" y2="362.3"/><line class="f" x1="487.69" y1="362.31" x2="506.15" y2="362.31"/><line class="f" x1="506.15" y1="362.31" x2="506.15" y2="359.91"/><line class="f" x1="506.15" y1="359.91" x2="507.18" y2="359.91"/><line class="f" x1="507.18" y1="359.91" x2="507.18" y2="363.33"/><line class="f" x1="486.66" y1="359.91" x2="486.66" y2="363.33"/><line class="f" x1="506.15" y1="359.91" x2="506.15" y2="362.3"/><line class="f" x1="487.69" y1="359.91" x2="487.69" y2="362.3"/><line class="f" x1="507.18" y1="363.33" x2="486.66" y2="363.33"/><line class="f" x1="507.18" y1="362.31" x2="486.66" y2="362.31"/><line class="f" x1="507.18" y1="359.91" x2="506.15" y2="359.91"/><line class="f" x1="487.69" y1="359.91" x2="486.66" y2="359.91"/><line class="f" x1="370.5" y1="406.98" x2="349.99" y2="406.98"/><line class="f" x1="349.99" y1="406.98" x2="349.99" y2="424.1"/><line class="f" x1="349.99" y1="424.1" x2="370.5" y2="424.1"/><line class="f" x1="370.5" y1="424.1" x2="370.5" y2="406.98"/><line class="f" x1="454.95" y1="424.1" x2="454.95" y2="395"/><line class="f" x1="452.56" y1="424.1" x2="452.56" y2="395"/><line class="f" x1="372.9" y1="424.1" x2="372.9" y2="398.42"/><line class="f" x1="372.9" y1="367.61" x2="372.9" y2="359.05"/><line class="f" x1="370.5" y1="403.56" x2="370.5" y2="398.42"/><line class="f" x1="414.95" y1="428.38" x2="414.95" y2="432.32"/><line class="f" x1="379.05" y1="428.38" x2="379.05" y2="424.1"/><g class="g"><path class="f" d="M536.33,395.86a.86.86,0,1,0-1.71,0,.85.85,0,0,0,.85.85.86.86,0,0,0,.86-.85"/></g><line class="f" x1="513.25" y1="400.99" x2="513.25" y2="359.91"/><line class="f" x1="513.25" y1="359.91" x2="540.6" y2="359.91"/><line class="f" x1="540.6" y1="359.91" x2="540.6" y2="400.99"/><line class="f" x1="540.6" y1="400.99" x2="513.25" y2="400.99"/><line class="f" x1="514.96" y1="395.86" x2="514.96" y2="365.04"/><line class="f" x1="518.38" y1="361.62" x2="535.47" y2="361.62"/><line class="f" x1="538.89" y1="365.04" x2="538.89" y2="395.86"/><line class="f" x1="535.47" y1="399.28" x2="518.38" y2="399.28"/><g class="g"><path class="f" d="M518.38,399.28a3.42,3.42,0,0,1-3.42-3.42"/><path class="f" d="M515,365a3.42,3.42,0,0,1,3.42-3.42"/><path class="f" d="M538.89,395.86a3.42,3.42,0,0,1-3.42,3.42"/><path class="f" d="M535.47,361.62a3.42,3.42,0,0,1,3.42,3.42"/></g><line class="f" x1="517.52" y1="405.27" x2="517.52" y2="424.1"/><line class="f" x1="517.52" y1="424.1" x2="541.45" y2="424.1"/><line class="f" x1="541.45" y1="424.1" x2="541.45" y2="405.27"/><line class="f" x1="541.45" y1="405.27" x2="517.52" y2="405.27"/><line class="f" x1="541.45" y1="401.85" x2="514.1" y2="401.85"/><line class="f" x1="514.1" y1="401.85" x2="514.1" y2="419.38"/><line class="f" x1="514.1" y1="418.97" x2="514.1" y2="424.1"/><line class="f" x1="514.1" y1="424.1" x2="454.95" y2="424.1"/><line class="f" x1="452.56" y1="424.1" x2="416.66" y2="424.1"/><line class="f" x1="380.76" y1="432.32" x2="379.05" y2="432.32"/><line class="f" x1="380.76" y1="428.38" x2="379.05" y2="428.38"/><line class="f" x1="416.66" y1="428.38" x2="414.95" y2="428.38"/><line class="f" x1="416.66" y1="428.38" x2="416.66" y2="424.1"/><line class="f" x1="372.9" y1="367.61" x2="370.5" y2="367.61"/><line class="f" x1="370.5" y1="367.61" x2="370.5" y2="356.66"/><line class="f" x1="370.5" y1="403.56" x2="346.57" y2="403.56"/><line class="f" x1="370.5" y1="406.98" x2="370.5" y2="403.56"/><line class="f" x1="418.37" y1="356.66" x2="445.72" y2="356.66"/><line class="f" x1="418.37" y1="356.66" x2="418.37" y2="329.27"/><g class="g"><path class="f" d="M418.37,329.27a27.37,27.37,0,0,1,27.35,27.39"/></g><line class="f" x1="418.37" y1="359.05" x2="418.37" y2="356.66"/><line class="f" x1="445.72" y1="356.66" x2="445.72" y2="359.05"/><line class="f" x1="445.72" y1="356.66" x2="447.43" y2="356.66"/><line class="f" x1="445.72" y1="359.05" x2="447.43" y2="359.05"/><line class="f" x1="416.66" y1="356.66" x2="418.37" y2="356.66"/><line class="f" x1="416.66" y1="359.05" x2="418.37" y2="359.05"/><line class="f" x1="418.37" y1="359.05" x2="425.21" y2="359.05"/><line class="f" x1="428.97" y1="359.05" x2="429.74" y2="359.05"/><line class="f" x1="433.5" y1="359.05" x2="434.27" y2="359.05"/><line class="f" x1="438.03" y1="359.05" x2="438.88" y2="359.05"/><line class="f" x1="438.88" y1="359.05" x2="445.72" y2="359.05"/><line class="f" x1="418.37" y1="356.66" x2="418.37" y2="355.8"/><line class="f" x1="418.37" y1="355.8" x2="414.95" y2="355.8"/><line class="f" x1="414.95" y1="355.8" x2="414.95" y2="356.66"/><line class="f" x1="418.37" y1="359.05" x2="418.37" y2="359.91"/><line class="f" x1="418.37" y1="359.91" x2="414.95" y2="359.91"/><line class="f" x1="414.95" y1="359.91" x2="414.95" y2="359.05"/><line class="f" x1="445.72" y1="355.8" x2="449.14" y2="355.8"/><line class="f" x1="449.14" y1="355.8" x2="449.14" y2="356.66"/><line class="f" x1="445.72" y1="359.05" x2="445.72" y2="359.91"/><line class="f" x1="445.72" y1="359.91" x2="449.14" y2="359.91"/><line class="f" x1="449.14" y1="359.91" x2="449.14" y2="359.05"/><line class="f" x1="452.56" y1="393.29" x2="452.56" y2="369.32"/><line class="f" x1="452.56" y1="393.29" x2="428.63" y2="393.29"/><g class="g"><path class="f" d="M428.63,393.29a24,24,0,0,1,23.93-24"/></g><line class="f" x1="454.95" y1="393.29" x2="452.56" y2="393.29"/><line class="f" x1="452.56" y1="369.32" x2="454.95" y2="369.32"/><line class="f" x1="452.56" y1="369.32" x2="452.56" y2="367.61"/><line class="f" x1="454.95" y1="369.32" x2="454.95" y2="367.61"/><line class="f" x1="452.56" y1="395" x2="452.56" y2="393.29"/><line class="f" x1="454.95" y1="395" x2="454.95" y2="393.29"/><line class="f" x1="454.95" y1="393.29" x2="454.95" y2="386.44"/><line class="f" x1="454.95" y1="382.68" x2="454.95" y2="381.91"/><line class="f" x1="454.95" y1="378.14" x2="454.95" y2="377.37"/><line class="f" x1="454.95" y1="376.17" x2="454.95" y2="369.32"/><line class="f" x1="452.56" y1="393.29" x2="451.7" y2="393.29"/><line class="f" x1="451.7" y1="393.29" x2="451.7" y2="396.71"/><line class="f" x1="451.7" y1="396.71" x2="452.56" y2="396.71"/><line class="f" x1="454.95" y1="393.29" x2="455.81" y2="393.29"/><line class="f" x1="455.81" y1="393.29" x2="455.81" y2="396.71"/><line class="f" x1="455.81" y1="396.71" x2="454.95" y2="396.71"/><line class="f" x1="451.7" y1="369.32" x2="451.7" y2="365.9"/><line class="f" x1="451.7" y1="365.9" x2="452.56" y2="365.9"/><line class="f" x1="454.95" y1="369.32" x2="455.81" y2="369.32"/><line class="f" x1="455.81" y1="369.32" x2="455.81" y2="365.9"/><line class="f" x1="455.81" y1="365.9" x2="454.95" y2="365.9"/><line class="f" x1="370.5" y1="396.71" x2="370.5" y2="369.32"/><line class="f" x1="370.5" y1="396.71" x2="343.15" y2="396.71"/><g class="g"><path class="f" d="M343.15,396.71a27.38,27.38,0,0,1,27.35-27.39"/></g><line class="f" x1="372.9" y1="396.71" x2="370.5" y2="396.71"/><line class="f" x1="370.5" y1="369.32" x2="372.9" y2="369.32"/><line class="f" x1="370.5" y1="369.32" x2="370.5" y2="367.61"/><line class="f" x1="372.9" y1="369.32" x2="372.9" y2="367.61"/><line class="f" x1="370.5" y1="398.42" x2="370.5" y2="396.71"/><line class="f" x1="372.9" y1="398.42" x2="372.9" y2="396.71"/><line class="f" x1="372.9" y1="396.71" x2="372.9" y2="389.86"/><line class="f" x1="372.9" y1="386.1" x2="372.9" y2="385.33"/><line class="f" x1="372.9" y1="381.56" x2="372.9" y2="380.79"/><line class="f" x1="372.9" y1="377.03" x2="372.9" y2="376.17"/><line class="f" x1="372.9" y1="376.17" x2="372.9" y2="369.32"/><line class="f" x1="370.5" y1="396.71" x2="369.65" y2="396.71"/><line class="f" x1="369.65" y1="396.71" x2="369.65" y2="400.14"/><line class="f" x1="369.65" y1="400.14" x2="370.5" y2="400.14"/><line class="f" x1="372.9" y1="396.71" x2="373.75" y2="396.71"/><line class="f" x1="373.75" y1="396.71" x2="373.75" y2="400.14"/><line class="f" x1="373.75" y1="400.14" x2="372.9" y2="400.14"/><line class="f" x1="369.65" y1="369.32" x2="369.65" y2="365.9"/><line class="f" x1="369.65" y1="365.9" x2="370.5" y2="365.9"/><line class="f" x1="372.9" y1="369.32" x2="373.75" y2="369.32"/><line class="f" x1="373.75" y1="369.32" x2="373.75" y2="365.9"/><line class="f" x1="373.75" y1="365.9" x2="372.9" y2="365.9"/><line class="f" x1="382.47" y1="428.38" x2="413.24" y2="428.38"/><line class="f" x1="382.47" y1="432.32" x2="413.24" y2="432.32"/><line class="f" x1="382.47" y1="428.38" x2="382.47" y2="397.57"/><g class="g"><path class="f" d="M382.47,397.57a30.8,30.8,0,0,1,30.77,30.81"/></g><line class="f" x1="382.47" y1="432.32" x2="382.47" y2="428.38"/><line class="f" x1="413.24" y1="428.38" x2="413.24" y2="432.32"/><line class="f" x1="413.24" y1="428.38" x2="414.95" y2="428.38"/><line class="f" x1="413.24" y1="432.32" x2="414.95" y2="432.32"/><line class="f" x1="380.76" y1="428.38" x2="382.47" y2="428.38"/><line class="f" x1="380.76" y1="432.32" x2="382.47" y2="432.32"/><line class="f" x1="485.38" y1="256" x2="458.03" y2="256"/><line class="f" x1="458.03" y1="256" x2="458.03" y2="258.16"/><line class="f" x1="458.03" y1="258.16" x2="485.38" y2="258.16"/><line class="f" x1="485.38" y1="258.16" x2="485.38" y2="256"/><line class="f" x1="324.69" y1="256" x2="276.82" y2="256"/><line class="f" x1="276.82" y1="256" x2="276.82" y2="259.43"/><line class="f" x1="276.82" y1="259.43" x2="324.69" y2="259.43"/><line class="f" x1="324.69" y1="259.43" x2="324.69" y2="256"/><g class="g"><path class="f" d="M329.82,257.71a1.71,1.71,0,1,0-1.71,1.72,1.72,1.72,0,0,0,1.71-1.72"/><path class="f" d="M490.51,257.08a1.71,1.71,0,1,0-1.71,1.71,1.72,1.72,0,0,0,1.71-1.71"/></g><line class="f" x1="364.01" y1="240.6" x2="357.17" y2="240.6"/><line class="f" x1="353.41" y1="240.6" x2="352.64" y2="240.6"/><line class="f" x1="348.88" y1="240.6" x2="348.11" y2="240.6"/><line class="f" x1="344.35" y1="240.6" x2="340.07" y2="240.6"/><line class="f" x1="340.07" y1="240.6" x2="333.24" y2="240.6"/><line class="f" x1="446.06" y1="240.6" x2="439.23" y2="240.6"/><line class="f" x1="435.46" y1="240.6" x2="434.69" y2="240.6"/><line class="f" x1="430.93" y1="240.6" x2="430.16" y2="240.6"/><line class="f" x1="426.4" y1="240.6" x2="422.13" y2="240.6"/><line class="f" x1="422.13" y1="240.6" x2="415.29" y2="240.6"/><line class="f" x1="517.52" y1="424.1" x2="537.72" y2="420.67"/><line class="f" x1="537.72" y1="420.67" x2="541.45" y2="405.27"/><line class="f" x1="541.45" y1="405.27" x2="541.45" y2="424.1"/><line class="f" x1="541.45" y1="424.1" x2="517.52" y2="424.1"/><line class="f" x1="349.99" y1="424.1" x2="366.77" y2="420.67"/><line class="f" x1="366.77" y1="420.67" x2="370.5" y2="406.98"/><line class="f" x1="370.5" y1="406.98" x2="370.5" y2="424.1"/><line class="f" x1="370.5" y1="424.1" x2="349.99" y2="424.1"/><line class="f" x1="549.66" y1="428.89" x2="549.66" y2="428.89"/><line class="f" x1="549.66" y1="428.89" x2="549.66" y2="428.89"/><rect class="d" x="372.89" y="359.05" width="40.69" height="5.48"/><line class="f" x1="413.58" y1="364.53" x2="372.9" y2="364.53"/><line class="f" x1="372.9" y1="364.53" x2="372.9" y2="359.05"/><line class="f" x1="372.9" y1="359.05" x2="413.58" y2="359.05"/><line class="f" x1="413.58" y1="359.05" x2="413.58" y2="364.53"/><rect class="d" x="288.78" y="295.37" width="17.09" height="27.39"/><line class="f" x1="288.78" y1="322.76" x2="305.88" y2="322.76"/><line class="f" x1="288.78" y1="295.37" x2="288.78" y2="322.76"/><line class="f" x1="305.88" y1="295.37" x2="288.78" y2="295.37"/><line class="f" x1="305.88" y1="322.76" x2="305.88" y2="295.37"/><rect class="d" x="454.95" y="418.97" width="59.15" height="5.14"/><line class="f" x1="514.1" y1="424.1" x2="454.95" y2="424.1"/><line class="f" x1="454.95" y1="424.1" x2="454.95" y2="418.97"/><line class="f" x1="454.95" y1="418.97" x2="514.1" y2="418.97"/><line class="f" x1="514.1" y1="418.97" x2="514.1" y2="424.1"/><rect class="d" x="372.21" y="254.29" width="16.41" height="102.36"/><line class="f" x1="388.62" y1="356.66" x2="372.21" y2="356.66"/><line class="f" x1="372.21" y1="356.66" x2="372.21" y2="254.29"/><line class="f" x1="372.21" y1="254.29" x2="388.62" y2="254.29"/><line class="f" x1="388.62" y1="254.29" x2="388.62" y2="356.66"/><rect class="d" x="506.15" y="359.91" width="1.03" height="2.4"/><line class="f" x1="506.15" y1="362.31" x2="507.18" y2="362.31"/><line class="f" x1="506.15" y1="359.91" x2="506.15" y2="362.3"/><line class="f" x1="507.18" y1="359.91" x2="506.15" y2="359.91"/><line class="f" x1="507.18" y1="362.31" x2="507.18" y2="359.91"/><rect class="d" x="486.66" y="362.3" width="20.52" height="1.03"/><line class="f" x1="507.18" y1="363.33" x2="507.18" y2="362.3"/><line class="f" x1="486.66" y1="363.33" x2="507.18" y2="363.33"/><line class="f" x1="486.66" y1="362.31" x2="486.66" y2="363.33"/><line class="f" x1="507.18" y1="362.31" x2="486.66" y2="362.31"/><rect class="d" x="486.66" y="359.91" width="1.03" height="2.4"/><line class="f" x1="486.66" y1="362.31" x2="487.69" y2="362.31"/><line class="f" x1="486.66" y1="359.91" x2="486.66" y2="362.3"/><line class="f" x1="487.69" y1="359.91" x2="486.66" y2="359.91"/><line class="f" x1="487.69" y1="362.31" x2="487.69" y2="359.91"/><rect class="d" x="458.03" y="256" width="27.35" height="2.16"/><line class="f" x1="458.03" y1="258.16" x2="485.38" y2="258.16"/><line class="f" x1="458.03" y1="256" x2="458.03" y2="258.16"/><line class="f" x1="485.38" y1="256" x2="458.03" y2="256"/><line class="f" x1="485.38" y1="258.16" x2="485.38" y2="256"/><polygon class="d" points="487.59 258.29 487.09 257.08 487.59 255.87 488.8 255.37 490.01 255.87 490.51 257.08 490.01 258.29 488.8 258.79 487.59 258.29"/><g class="g"><path class="f" d="M490.51,257.08a1.71,1.71,0,1,1-3.42,0"/><path class="f" d="M487.09,257.08a1.71,1.71,0,1,1,3.42,0"/></g><rect class="d" x="276.82" y="256" width="47.87" height="3.42"/><line class="f" x1="324.69" y1="256" x2="276.82" y2="256"/><line class="f" x1="324.69" y1="259.43" x2="324.69" y2="256"/><line class="f" x1="276.82" y1="259.43" x2="324.69" y2="259.43"/><line class="f" x1="276.82" y1="256" x2="276.82" y2="259.43"/><polygon class="d" points="326.9 258.92 326.4 257.71 326.9 256.5 328.11 256 329.31 256.5 329.82 257.71 329.31 258.92 328.11 259.43 326.9 258.92"/><g class="g"><path class="f" d="M329.82,257.71a1.71,1.71,0,1,1-3.42,0"/><path class="f" d="M326.4,257.71a1.71,1.71,0,1,1,3.42,0"/></g><line class="f" x1="549.66" y1="409.38" x2="549.66" y2="409.38"/><line class="f" x1="549.66" y1="409.38" x2="549.66" y2="344.33"/><line class="f" x1="549.66" y1="386.6" x2="549.66" y2="386.6"/><line class="f" x1="549.66" y1="381.46" x2="549.66" y2="381.46"/><g class="g"><path class="f" d="M549.66,344.33a3.42,3.42,0,0,1,3.42-3.42"/></g><line class="f" x1="549.66" y1="265.9" x2="549.66" y2="265.9"/><line class="f" x1="549.66" y1="306.98" x2="549.66" y2="306.98"/><line class="f" x1="549.66" y1="306.98" x2="549.66" y2="265.9"/><polygon class="d" points="531.2 336.46 479.91 336.46 477.3 335.94 475.08 334.45 473.59 332.23 473.07 329.61 473.07 281.68 473.59 279.06 475.08 276.84 477.3 275.35 479.91 274.83 541.45 274.83 541.45 336.46 531.2 336.46"/><rect class="d" x="531.2" y="262.85" width="10.26" height="11.98"/><rect class="d" x="531.2" y="336.46" width="10.26" height="11.98"/><line class="f" x1="530.09" y1="307.58" x2="533.04" y2="308.4"/><line class="f" x1="530.09" y1="278.84" x2="533.04" y2="279.66"/><line class="f" x1="473.07" y1="329.61" x2="473.07" y2="281.68"/><line class="f" x1="479.91" y1="274.83" x2="541.45" y2="274.83"/><line class="f" x1="541.45" y1="274.83" x2="541.45" y2="336.46"/><line class="f" x1="541.45" y1="336.46" x2="479.91" y2="336.46"/><line class="f" x1="541.45" y1="274.83" x2="541.45" y2="262.85"/><line class="f" x1="541.45" y1="262.85" x2="531.2" y2="262.85"/><line class="f" x1="531.2" y1="262.85" x2="531.2" y2="274.83"/><line class="f" x1="531.2" y1="274.83" x2="541.45" y2="274.83"/><line class="f" x1="541.45" y1="348.44" x2="541.45" y2="336.46"/><line class="f" x1="541.45" y1="336.46" x2="531.2" y2="336.46"/><line class="f" x1="531.2" y1="336.46" x2="531.2" y2="348.44"/><line class="f" x1="531.2" y1="348.44" x2="541.45" y2="348.44"/><line class="f" x1="518.7" y1="274.83" x2="518.7" y2="336.46"/><line class="f" x1="513.58" y1="274.83" x2="513.58" y2="336.46"/><g class="g"><path class="f" d="M524.22,280.73a95.32,95.32,0,0,1,.49,9.7,96.9,96.9,0,0,1-.82,12.62"/><path class="f" d="M524.22,280.73a2.58,2.58,0,0,1,0-.39,1.83,1.83,0,0,1,1.83-1.83h.1"/><path class="f" d="M526.11,278.51l.81,0a14.13,14.13,0,0,1,3.17.35"/><path class="f" d="M530.09,278.84c1.71-.17,3.43-.26,5.15-.26.83,0,1.66,0,2.48.06"/><path class="f" d="M537.72,278.64l.11,0a.39.39,0,0,1,.39.39.19.19,0,0,1,0,.08"/><path class="f" d="M537.87,303.12q-.23-4.65-.22-9.3c0-4.91.19-9.83.56-14.73"/><path class="f" d="M537.87,303.12a.64.64,0,0,1,0,.2,1,1,0,0,1-.95.95.81.81,0,0,1-.31,0"/><path class="f" d="M524.85,304a47.88,47.88,0,0,1,5.21-.29,46.54,46.54,0,0,1,6.58.47"/><path class="f" d="M524.85,304a.49.49,0,0,1-.21,0,.79.79,0,0,1-.79-.79.61.61,0,0,1,0-.24"/><path class="f" d="M473.07,281.68a6.85,6.85,0,0,1,6.84-6.85"/><path class="f" d="M479.91,336.46a6.85,6.85,0,0,1-6.84-6.85"/><path class="f" d="M524.22,309.48a95.18,95.18,0,0,1,.49,9.7,96.63,96.63,0,0,1-.82,12.61"/><path class="f" d="M524.22,309.48a2.58,2.58,0,0,1,0-.39,1.83,1.83,0,0,1,1.83-1.83h.1"/><path class="f" d="M526.11,307.26l.81,0a14.73,14.73,0,0,1,3.17.35"/><path class="f" d="M530.09,307.58c1.71-.17,3.43-.25,5.15-.25.83,0,1.66,0,2.48.06"/><path class="f" d="M537.72,307.39l.11,0a.39.39,0,0,1,.39.39.22.22,0,0,1,0,.08"/><path class="f" d="M537.87,331.87q-.23-4.65-.22-9.3,0-7.38.56-14.73"/><path class="f" d="M537.87,331.87a.64.64,0,0,1,0,.2,1,1,0,0,1-.95.95,1.06,1.06,0,0,1-.31,0"/><path class="f" d="M524.85,332.79a45.36,45.36,0,0,1,11.79.18"/><path class="f" d="M524.85,332.79a.71.71,0,0,1-.21,0,.79.79,0,0,1-.79-.79.67.67,0,0,1,0-.24"/></g><polygon class="d" points="379.54 317.03 379.54 306.36 378.17 304.67 377.43 302.55 377.43 300.28 378.17 298.16 379.54 296.47 379.54 285.8 381.44 285.8 383.33 293.61 383.33 295.88 384.37 299.51 384.37 303.32 383.33 306.94 383.33 309.22 381.44 317.03 379.54 317.03"/><line class="f" x1="379.54" y1="306.36" x2="378.17" y2="304.67"/><line class="f" x1="378.17" y1="304.67" x2="377.43" y2="302.55"/><line class="f" x1="377.43" y1="302.55" x2="377.43" y2="300.28"/><line class="f" x1="377.43" y1="300.28" x2="378.17" y2="298.16"/><line class="f" x1="378.17" y1="298.16" x2="379.54" y2="296.47"/><line class="f" x1="379.54" y1="296.47" x2="379.54" y2="285.8"/><line class="f" x1="379.54" y1="285.8" x2="381.44" y2="285.8"/><line class="f" x1="381.44" y1="285.8" x2="383.33" y2="293.61"/><line class="f" x1="383.33" y1="293.61" x2="383.33" y2="295.88"/><line class="f" x1="383.33" y1="295.88" x2="384.37" y2="299.51"/><line class="f" x1="384.37" y1="299.51" x2="384.37" y2="303.32"/><line class="f" x1="384.37" y1="303.32" x2="383.33" y2="306.95"/><line class="f" x1="383.33" y1="306.95" x2="383.33" y2="309.22"/><line class="f" x1="383.33" y1="309.22" x2="381.44" y2="317.03"/><line class="f" x1="381.44" y1="317.03" x2="379.54" y2="317.03"/><line class="f" x1="379.54" y1="317.03" x2="379.54" y2="306.36"/><line class="f" x1="379.54" y1="317.03" x2="379.54" y2="285.8"/><line class="f" x1="383.33" y1="293.61" x2="383.33" y2="309.22"/><line class="f" x1="381.44" y1="317.03" x2="379.54" y2="317.03"/><line class="f" x1="380.3" y1="287.88" x2="380.3" y2="289.97"/><line class="f" x1="380.3" y1="289.97" x2="380.77" y2="289.97"/><line class="f" x1="380.77" y1="289.97" x2="380.77" y2="287.88"/><line class="f" x1="380.77" y1="287.88" x2="380.3" y2="287.88"/><line class="f" x1="380.3" y1="290.49" x2="380.3" y2="292.57"/><line class="f" x1="380.3" y1="292.57" x2="380.77" y2="292.57"/><line class="f" x1="380.77" y1="292.57" x2="380.77" y2="290.49"/><line class="f" x1="380.77" y1="290.49" x2="380.3" y2="290.49"/><line class="f" x1="381.44" y1="317.03" x2="381.44" y2="285.8"/><line class="f" x1="380.77" y1="293.09" x2="380.3" y2="293.09"/><line class="f" x1="380.3" y1="293.09" x2="380.3" y2="294.13"/><line class="f" x1="380.3" y1="294.13" x2="380.77" y2="294.13"/><line class="f" x1="380.77" y1="294.13" x2="380.77" y2="293.09"/><g class="g"><path class="f" d="M379.54,306.36a6.66,6.66,0,0,1,0-9.89"/></g><polygon class="d" points="253.56 333.03 253.08 332.83 252.88 332.35 252.88 261.82 253.08 261.34 253.56 261.14 281.26 261.14 281.71 261.29 281.97 261.69 281.94 262.17 281.94 287.5 281.88 288.22 281.26 288.59 281.75 288.96 281.94 289.56 281.94 326.87 281.76 327.49 281.26 327.9 281.74 328.1 281.94 328.58 281.94 329.61 281.49 331.32 280.23 332.57 278.52 333.03 253.56 333.03"/><polygon class="d" points="282.97 288.53 282.24 288.23 281.94 287.5 281.94 262.16 282.24 261.44 282.97 261.14 304.17 261.14 306.78 261.66 309 263.14 310.48 265.36 311 267.99 311 281.68 310.48 284.3 309 286.52 306.78 288 304.17 288.53 282.97 288.53"/><line class="f" x1="282.97" y1="288.53" x2="304.17" y2="288.53"/><g class="g"><path class="f" d="M283,288.53a1,1,0,0,1-1-1"/></g><line class="f" x1="281.94" y1="262.17" x2="281.94" y2="287.5"/><g class="g"><path class="f" d="M281.94,262.17a1,1,0,0,1,1-1"/></g><line class="f" x1="304.17" y1="261.14" x2="282.97" y2="261.14"/><g class="g"><path class="f" d="M304.17,261.14A6.83,6.83,0,0,1,311,268"/></g><line class="f" x1="311" y1="281.68" x2="311" y2="267.99"/><g class="g"><path class="f" d="M311,281.68a6.84,6.84,0,0,1-6.83,6.85"/></g><line class="f" x1="281.94" y1="328.58" x2="281.94" y2="329.61"/><line class="f" x1="278.52" y1="333.03" x2="253.56" y2="333.03"/><line class="f" x1="252.88" y1="332.35" x2="252.88" y2="328.58"/><line class="f" x1="253.56" y1="327.9" x2="281.26" y2="327.9"/><line class="f" x1="252.88" y1="328.58" x2="252.88" y2="288.53"/><line class="f" x1="252.88" y1="288.53" x2="255.27" y2="288.53"/><line class="f" x1="281.94" y1="289.55" x2="281.94" y2="326.87"/><line class="f" x1="280.92" y1="327.9" x2="263.78" y2="327.9"/><line class="f" x1="263.78" y1="288.53" x2="280.92" y2="288.53"/><line class="f" x1="255.27" y1="327.9" x2="261.72" y2="327.9"/><line class="f" x1="261.72" y1="288.53" x2="255.27" y2="288.53"/><line class="f" x1="281.94" y1="265.59" x2="281.94" y2="261.82"/><line class="f" x1="281.26" y1="261.14" x2="253.57" y2="261.14"/><line class="f" x1="252.88" y1="261.82" x2="252.88" y2="265.59"/><line class="f" x1="252.88" y1="265.59" x2="252.88" y2="288.53"/><line class="f" x1="252.88" y1="288.53" x2="255.27" y2="288.53"/><line class="f" x1="281.94" y1="287.5" x2="281.94" y2="267.3"/><line class="f" x1="263.78" y1="288.53" x2="280.92" y2="288.53"/><line class="f" x1="263.78" y1="288.53" x2="255.27" y2="288.53"/><line class="f" x1="311" y1="281.68" x2="311" y2="267.99"/><line class="f" x1="304.17" y1="261.14" x2="282.97" y2="261.14"/><line class="f" x1="281.94" y1="262.17" x2="281.94" y2="287.5"/><line class="f" x1="282.97" y1="288.53" x2="304.17" y2="288.53"/><line class="f" x1="254.25" y1="287.5" x2="254.25" y2="262.17"/><line class="f" x1="254.25" y1="289.55" x2="254.25" y2="326.87"/><g class="g"><path class="f" d="M253.56,333a.68.68,0,0,1-.68-.68"/><path class="f" d="M252.88,328.58a.69.69,0,0,1,.68-.68"/><path class="f" d="M281.26,327.9a.68.68,0,0,1,.68.68"/><path class="f" d="M281.94,326.87a1,1,0,0,1-1,1"/><path class="f" d="M280.92,288.53a1,1,0,0,1,1,1"/><path class="f" d="M281.26,261.14a.67.67,0,0,1,.68.68"/><path class="f" d="M252.88,261.82a.68.68,0,0,1,.68-.68"/><path class="f" d="M281.94,287.5a1,1,0,0,1-1,1"/><path class="f" d="M281.94,262.17a1,1,0,0,1,1-1"/><path class="f" d="M283,288.53a1,1,0,0,1-1-1"/></g><line class="f" x1="254.25" y1="262.17" x2="277.54" y2="262.17"/><g class="g"><path class="f" d="M258.23,287.54a19.17,19.17,0,0,1-.7-5.16,19.41,19.41,0,0,1,15.3-19"/><path class="f" d="M259,289.55a116.82,116.82,0,0,1,0,37.32"/><path class="f" d="M311,281.68a6.84,6.84,0,0,1-6.83,6.85"/><path class="f" d="M304.17,261.14A6.83,6.83,0,0,1,311,268"/><path class="f" d="M281.94,329.61a3.42,3.42,0,0,1-3.42,3.42"/></g><polygon class="d" points="325.77 345.53 322.95 343.35 319.66 341.97 316.13 341.5 319.95 334.86 321.2 333.6 322.91 333.15 324.62 333.61 330.53 337.05 331.77 338.31 332.23 340.02 331.77 341.74 327.94 348.38 325.77 345.53"/><polygon class="d" points="321.14 376.85 319.89 375.6 316.08 368.94 319.62 368.48 322.92 367.12 325.74 364.94 327.92 362.1 331.73 368.75 332.18 370.47 331.72 372.18 330.47 373.44 324.55 376.86 322.84 377.31 321.14 376.85"/><polygon class="d" points="296.63 362.06 294.93 361.59 293.68 360.33 293.22 358.62 293.23 351.76 293.69 350.04 294.95 348.79 296.65 348.33 304.29 348.34 302.92 351.65 302.45 355.2 302.91 358.76 304.27 362.06 296.63 362.06"/><polygon class="d" points="312.55 368.47 309.26 367.1 306.43 364.91 304.26 362.06 302.91 358.75 302.45 355.2 302.92 351.65 304.29 348.34 306.46 345.5 309.29 343.32 312.59 341.96 316.13 341.5 319.66 341.97 322.95 343.35 325.78 345.53 327.94 348.38 329.3 351.69 329.76 355.24 329.29 358.79 327.92 362.1 325.74 364.94 322.91 367.12 319.62 368.48 316.08 368.94 312.55 368.47"/><line class="f" x1="316.12" y1="341.5" x2="319.66" y2="341.97"/><line class="f" x1="319.66" y1="341.97" x2="322.95" y2="343.35"/><line class="f" x1="322.95" y1="343.35" x2="325.78" y2="345.53"/><line class="f" x1="325.78" y1="345.53" x2="327.94" y2="348.38"/><line class="f" x1="327.94" y1="348.38" x2="329.3" y2="351.69"/><line class="f" x1="329.3" y1="351.69" x2="329.76" y2="355.24"/><line class="f" x1="329.76" y1="355.24" x2="329.29" y2="358.79"/><line class="f" x1="329.29" y1="358.79" x2="327.92" y2="362.1"/><line class="f" x1="327.92" y1="362.1" x2="325.74" y2="364.94"/><line class="f" x1="325.74" y1="364.94" x2="322.92" y2="367.12"/><line class="f" x1="322.91" y1="367.12" x2="319.62" y2="368.48"/><line class="f" x1="319.62" y1="368.48" x2="316.08" y2="368.94"/><line class="f" x1="316.08" y1="368.94" x2="312.55" y2="368.47"/><line class="f" x1="312.55" y1="368.47" x2="309.26" y2="367.09"/><line class="f" x1="309.26" y1="367.1" x2="306.43" y2="364.91"/><line class="f" x1="306.43" y1="364.91" x2="304.27" y2="362.07"/><line class="f" x1="304.27" y1="362.06" x2="302.91" y2="358.76"/><line class="f" x1="302.91" y1="358.76" x2="302.45" y2="355.2"/><line class="f" x1="302.45" y1="355.2" x2="302.92" y2="351.65"/><line class="f" x1="302.92" y1="351.65" x2="304.29" y2="348.34"/><line class="f" x1="304.29" y1="348.34" x2="306.46" y2="345.5"/><line class="f" x1="306.46" y1="345.5" x2="309.29" y2="343.32"/><line class="f" x1="309.29" y1="343.32" x2="312.59" y2="341.96"/><line class="f" x1="312.59" y1="341.96" x2="316.12" y2="341.5"/><g class="g"><path class="f" d="M329.76,355.24h0a13.66,13.66,0,1,1-27.31,0"/><path class="f" d="M302.45,355.2h0a13.66,13.66,0,1,1,27.31,0"/></g><line class="f" x1="329.67" y1="338.53" x2="323.76" y2="335.1"/><line class="f" x1="319.95" y1="334.86" x2="316.12" y2="341.5"/><line class="f" x1="330.53" y1="337.05" x2="324.62" y2="333.61"/><line class="f" x1="327.94" y1="348.38" x2="331.77" y2="341.74"/><line class="f" x1="323.7" y1="375.37" x2="329.62" y2="371.95"/><line class="f" x1="331.73" y1="368.75" x2="327.92" y2="362.1"/><line class="f" x1="324.55" y1="376.86" x2="330.47" y2="373.43"/><line class="f" x1="316.08" y1="368.94" x2="319.89" y2="375.6"/><line class="f" x1="294.94" y1="351.76" x2="294.93" y2="358.62"/><line class="f" x1="296.63" y1="362.06" x2="304.27" y2="362.06"/><line class="f" x1="293.23" y1="351.76" x2="293.22" y2="358.62"/><line class="f" x1="304.29" y1="348.34" x2="296.65" y2="348.33"/><g class="g"><path class="f" d="M321.43,335.72a1.72,1.72,0,0,1,1.48-.86,1.58,1.58,0,0,1,.85.24"/><path class="f" d="M329.67,338.54a1.7,1.7,0,0,1,.85,1.48,1.73,1.73,0,0,1-.23.86"/><path class="f" d="M320,334.86a3.41,3.41,0,0,1,4.67-1.25"/><path class="f" d="M330.52,337.05a3.44,3.44,0,0,1,1.25,4.69"/><path class="f" d="M330.25,369.61a1.59,1.59,0,0,1,.22.85,1.71,1.71,0,0,1-.85,1.49"/><path class="f" d="M323.7,375.37a1.7,1.7,0,0,1-2.33-.63"/><path class="f" d="M331.73,368.75a3.45,3.45,0,0,1-1.26,4.68"/><path class="f" d="M324.55,376.86a3.42,3.42,0,0,1-4.66-1.27"/><path class="f" d="M296.64,360.34a1.71,1.71,0,0,1-1.71-1.72"/><path class="f" d="M294.94,351.76h0a1.7,1.7,0,0,1,1.71-1.71"/><path class="f" d="M296.63,362.05h0a3.42,3.42,0,0,1-3.41-3.43"/><path class="f" d="M293.23,351.76a3.43,3.43,0,0,1,3.42-3.43"/></g><polygon class="d" points="487.95 418.97 487.58 418.81 487.43 418.45 487.43 404.42 487.58 404.05 487.95 403.9 505.72 403.9 506.09 404.05 506.24 404.42 506.24 418.45 506.09 418.81 505.72 418.97 487.95 418.97"/><g class="g"><path class="f" d="M488,419a.52.52,0,0,1-.52-.52"/></g><line class="f" x1="487.43" y1="404.42" x2="487.43" y2="418.45"/><g class="g"><path class="f" d="M487.43,404.42a.52.52,0,0,1,.52-.52"/></g><line class="f" x1="505.72" y1="403.9" x2="487.95" y2="403.9"/><g class="g"><path class="f" d="M505.72,403.9a.52.52,0,0,1,.52.52"/></g><line class="f" x1="506.24" y1="418.45" x2="506.24" y2="404.42"/><g class="g"><path class="f" d="M506.24,418.45a.52.52,0,0,1-.52.52"/></g><line class="f" x1="487.95" y1="418.97" x2="505.72" y2="418.97"/><line class="f" x1="488.97" y1="415.2" x2="504.7" y2="415.2"/><line class="f" x1="505.21" y1="414.69" x2="505.21" y2="405.44"/><line class="f" x1="504.7" y1="404.93" x2="488.97" y2="404.93"/><line class="f" x1="488.46" y1="405.44" x2="488.46" y2="414.69"/><g class="g"><path class="f" d="M505.21,414.69a.51.51,0,0,1-.51.51"/><path class="f" d="M504.7,404.93a.51.51,0,0,1,.51.51"/><path class="f" d="M488.46,405.44a.51.51,0,0,1,.51-.51"/><path class="f" d="M489,415.2a.51.51,0,0,1-.51-.51"/></g><polygon class="d" points="496.23 417.52 495.98 416.91 496.12 415.48 496.23 415.15 496.46 413.34 496.58 413.1 496.83 413 497.09 413.1 497.21 413.34 497.44 415.15 497.55 415.48 497.69 416.91 497.44 417.52 496.83 417.77 496.23 417.52"/><line class="f" x1="495.98" y1="416.91" x2="496.12" y2="415.48"/><g class="g"><path class="f" d="M496.12,415.48a.76.76,0,0,1,.11-.33"/></g><line class="f" x1="496.23" y1="415.15" x2="496.46" y2="413.34"/><g class="g"><path class="f" d="M496.46,413.34a.38.38,0,0,1,.75,0"/></g><line class="f" x1="497.21" y1="413.34" x2="497.44" y2="415.15"/><g class="g"><path class="f" d="M497.44,415.15a.65.65,0,0,1,.11.33"/></g><line class="f" x1="497.55" y1="415.48" x2="497.69" y2="416.91"/><g class="g"><path class="f" d="M497.69,416.91a.86.86,0,1,1-1.71,0"/></g><line class="f" x1="497.3" y1="416.06" x2="497.3" y2="415.55"/><line class="f" x1="496.37" y1="415.55" x2="496.37" y2="416.06"/><line class="f" x1="496.37" y1="416.06" x2="497.3" y2="416.06"/><g class="g"><path class="f" d="M496.37,415.55a.47.47,0,1,1,.93,0"/><path class="f" d="M496.23,415.15a.72.72,0,0,1,1.21,0"/></g><rect class="d" x="391.02" y="254.29" width="20.51" height="51.53"/><line class="f" x1="391.02" y1="305.82" x2="391.02" y2="254.29"/><line class="f" x1="391.02" y1="254.29" x2="411.53" y2="254.29"/><line class="f" x1="411.53" y1="254.29" x2="411.53" y2="305.82"/><line class="f" x1="411.53" y1="305.82" x2="391.02" y2="305.82"/><line class="f" x1="401.27" y1="303.24" x2="401.27" y2="256.87"/><line class="f" x1="395.24" y1="300.85" x2="407.53" y2="296.49"/><line class="f" x1="394.63" y1="295.93" x2="406.06" y2="294.13"/><line class="f" x1="408.67" y1="289.23" x2="396.12" y2="287.74"/><line class="f" x1="407.02" y1="281.62" x2="396.12" y2="283.64"/><line class="f" x1="407.65" y1="278.86" x2="394.22" y2="278.86"/><line class="f" x1="407.71" y1="271.03" x2="394.44" y2="272.89"/><line class="f" x1="407.49" y1="268.09" x2="395.36" y2="268.09"/><line class="f" x1="407.61" y1="260.37" x2="395.18" y2="258.88"/><line class="f" x1="406.77" y1="262.23" x2="396.25" y2="263.73"/><rect class="d" x="391.02" y="305.82" width="20.51" height="50.84"/><line class="f" x1="391.02" y1="356.66" x2="391.02" y2="305.82"/><line class="f" x1="391.02" y1="305.82" x2="411.53" y2="305.82"/><line class="f" x1="411.53" y1="305.82" x2="411.53" y2="356.66"/><line class="f" x1="411.53" y1="356.66" x2="391.02" y2="356.66"/><line class="f" x1="401.27" y1="354.12" x2="401.27" y2="308.36"/><line class="f" x1="395.24" y1="351.76" x2="407.53" y2="347.46"/><line class="f" x1="394.63" y1="346.91" x2="406.06" y2="345.13"/><line class="f" x1="408.67" y1="340.29" x2="396.12" y2="338.83"/><line class="f" x1="407.02" y1="332.79" x2="396.12" y2="334.77"/><line class="f" x1="407.65" y1="330.06" x2="394.22" y2="330.06"/><line class="f" x1="407.71" y1="322.33" x2="394.44" y2="324.16"/><line class="f" x1="407.49" y1="319.43" x2="395.36" y2="319.43"/><line class="f" x1="407.61" y1="311.81" x2="395.18" y2="310.35"/><line class="f" x1="406.77" y1="313.65" x2="396.25" y2="315.13"/><polygon class="d" points="465.04 418.97 465.04 407.67 465.3 405.98 466.07 404.44 467.26 403.22 469.2 402.2 471.36 401.85 473.52 402.2 475.47 403.22 476.66 404.44 477.43 405.98 477.69 407.67 477.69 418.97 465.04 418.97"/><line class="f" x1="477.69" y1="418.97" x2="477.69" y2="407.67"/><line class="f" x1="477.69" y1="418.97" x2="465.04" y2="418.97"/><line class="f" x1="465.04" y1="418.97" x2="465.04" y2="407.67"/><line class="f" x1="475.64" y1="414.86" x2="475.64" y2="407.67"/><line class="f" x1="467.09" y1="414.86" x2="467.09" y2="407.67"/><line class="f" x1="467.09" y1="414.86" x2="475.64" y2="414.86"/><g class="g"><path class="f" d="M475.47,403.22a5.59,5.59,0,0,1,2.22,4.45"/><path class="f" d="M465,407.67a5.56,5.56,0,0,1,2.22-4.45"/><path class="f" d="M467.26,403.22a6.84,6.84,0,0,1,8.21,0"/><path class="f" d="M465,407.67a5.56,5.56,0,0,1,2.22-4.45"/><path class="f" d="M467.26,403.22a6.81,6.81,0,0,1,4.1-1.37"/><path class="f" d="M467.09,407.67a3.54,3.54,0,0,1,1.4-2.81"/><path class="f" d="M468.49,404.86a4.79,4.79,0,0,1,5.75,0"/><path class="f" d="M474.24,404.86a3.52,3.52,0,0,1,1.4,2.81"/></g><line class="f" x1="379.05" y1="424.1" x2="385.89" y2="424.1"/><line class="f" x1="389.65" y1="424.1" x2="390.42" y2="424.1"/><line class="f" x1="394.18" y1="424.1" x2="394.95" y2="424.1"/><line class="f" x1="398.71" y1="424.1" x2="405.55" y2="424.1"/><line class="f" x1="409.31" y1="424.1" x2="409.82" y2="424.1"/><line class="f" x1="409.82" y1="424.1" x2="416.66" y2="424.1"/><line class="f" x1="297.38" y1="416.45" x2="297.38" y2="410.7"/><line class="f" x1="297.38" y1="410.7" x2="295.05" y2="412.59"/><line class="f" x1="295.05" y1="412.59" x2="292.72" y2="410.7"/><line class="f" x1="292.72" y1="410.7" x2="292.72" y2="416.45"/><line class="f" x1="245.2" y1="187.53" x2="545.38" y2="187.53"/><line class="f" x1="245.2" y1="185.82" x2="545.38" y2="185.82"/><line class="f" x1="240.92" y1="432.32" x2="549.66" y2="432.32"/><line class="f" x1="549.66" y1="432.32" x2="549.66" y2="240.6"/><line class="f" x1="549.66" y1="240.6" x2="545.39" y2="240.6"/><line class="f" x1="545.39" y1="240.6" x2="545.39" y2="185.81"/><line class="f" x1="545.39" y1="185.81" x2="245.2" y2="185.81"/><line class="f" x1="245.2" y1="185.81" x2="245.2" y2="240.6"/><line class="f" x1="245.2" y1="240.6" x2="240.92" y2="240.6"/><line class="f" x1="240.92" y1="240.6" x2="240.92" y2="432.32"/><path class="h" d="M399.93,378.86v7h-.72V379.5h-1.65v-.64Z"/><path class="h" d="M401.61,385.35a.53.53,0,0,1,.53-.53.54.54,0,1,1-.53.53Z"/><path class="h" d="M403.62,382.36c0-2.23,1.17-3.56,2.79-3.56s2.8,1.33,2.8,3.56-1.18,3.55-2.8,3.55S403.62,384.59,403.62,382.36Zm4.85,0c0-1.87-.84-2.9-2.06-2.9s-2.06,1-2.06,2.9.84,2.9,2.06,2.9S408.47,384.23,408.47,382.36Z"/><path class="h" d="M412.17,378.86v7h-.72V379.5H409.8v-.64Z"/><path class="h" d="M333.53,299.07v7h-.72v-6.35h-1.65v-.64Z"/><path class="h" d="M335.21,305.56a.53.53,0,0,1,.53-.53.54.54,0,1,1-.53.53Z"/><path class="h" d="M337.22,302.57c0-2.23,1.17-3.56,2.79-3.56s2.8,1.33,2.8,3.56-1.18,3.55-2.8,3.55S337.22,304.8,337.22,302.57Zm4.85,0c0-1.87-.84-2.9-2.06-2.9s-2.06,1-2.06,2.9.84,2.9,2.06,2.9S342.07,304.44,342.07,302.57Z"/><path class="h" d="M348.61,305.43v.63H343.7v-.5l2.91-2.85c.79-.78.94-1.25.94-1.73,0-.81-.57-1.31-1.64-1.31a2.38,2.38,0,0,0-1.91.78l-.51-.44a3.15,3.15,0,0,1,2.48-1c1.42,0,2.32.72,2.32,1.89a2.88,2.88,0,0,1-1.15,2.19l-2.38,2.34Z"/><path class="h" d="M434.87,299.07v7h-.72v-6.35H432.5v-.64Z"/><path class="h" d="M436.55,305.56a.53.53,0,0,1,.53-.53.54.54,0,1,1-.53.53Z"/><path class="h" d="M438.56,302.57c0-2.23,1.17-3.56,2.79-3.56s2.8,1.33,2.8,3.56-1.18,3.55-2.8,3.55S438.56,304.8,438.56,302.57Zm4.85,0c0-1.87-.84-2.9-2.06-2.9s-2.06,1-2.06,2.9.84,2.9,2.06,2.9S443.41,304.44,443.41,302.57Z"/><path class="h" d="M449.72,304.06c0,1.16-.85,2.06-2.54,2.06a3.64,3.64,0,0,1-2.52-.9l.35-.56a3.07,3.07,0,0,0,2.17.81c1.16,0,1.8-.54,1.8-1.41s-.59-1.39-1.89-1.39h-.5v-.53l1.94-2.43H445v-.64h4.5v.51l-2,2.49C449,302.15,449.72,302.94,449.72,304.06Z"/><path class="h" d="M477.67,378.86v7H477V379.5H475.3v-.64Z"/><path class="h" d="M479.35,385.35a.53.53,0,0,1,.53-.53.54.54,0,1,1-.53.53Z"/><path class="h" d="M481.36,382.36c0-2.23,1.17-3.56,2.79-3.56s2.8,1.33,2.8,3.56-1.18,3.55-2.8,3.55S481.36,384.59,481.36,382.36Zm4.85,0c0-1.87-.84-2.9-2.06-2.9s-2.06,1-2.06,2.9.84,2.9,2.06,2.9S486.21,384.23,486.21,382.36Z"/><path class="h" d="M493.93,384h-1.4v1.83h-.72V384h-3.95v-.52l3.71-4.64h.8l-3.58,4.52h3v-1.62h.7v1.62h1.4Z"/><path class="h" d="M434.87,214.4v7h-.72V215H432.5v-.64Z"/><path class="h" d="M436.55,220.89a.53.53,0,0,1,.53-.53.54.54,0,1,1-.53.53Z"/><path class="h" d="M438.56,217.9c0-2.23,1.17-3.56,2.79-3.56s2.8,1.33,2.8,3.56-1.18,3.55-2.8,3.55S438.56,220.13,438.56,217.9Zm4.85,0c0-1.87-.84-2.9-2.06-2.9s-2.06,1-2.06,2.9.84,2.9,2.06,2.9S443.41,219.77,443.41,217.9Z"/><path class="h" d="M449.93,219.34c0,1.19-.83,2.11-2.54,2.11a3.66,3.66,0,0,1-2.51-.89l.35-.57a3,3,0,0,0,2.15.81c1.19,0,1.82-.58,1.82-1.43s-.56-1.46-2.34-1.46h-1.49l.36-3.51h3.83V215h-3.2l-.24,2.23h.9C449.13,217.27,449.93,218.1,449.93,219.34Z"/></svg>