<svg xmlns="http://www.w3.org/2000/svg" xmlns:xlink="http://www.w3.org/1999/xlink" viewBox="0 0 790.58 618.13"><defs><style>.a,.f{fill:none;}.b{fill:#595a5c;}.c{fill:#b6906c;}.d,.g{fill:#fff;}.e{fill:#231f20;}.f{stroke:#000;stroke-linecap:round;stroke-linejoin:round;stroke-width:0.34px;}.g,.h{fill-rule:evenodd;}.i{clip-path:url(#a);}.j{fill:#58595b;}</style><clipPath id="a"><polygon class="a" points="364.83 185.15 291.51 185.15 196.5 185.15 196.5 377.91 267.07 377.91 267.07 432.98 590.64 432.98 590.64 377.91 594.08 377.91 594.08 185.15 364.83 185.15"/></clipPath></defs><path class="b" d="M55.31,597.13H57.1V609.9H55.31Zm.92,6.11h4.09a1.89,1.89,0,0,0,1-.27,1.82,1.82,0,0,0,.68-.77,2.67,2.67,0,0,0,.24-1.16,2.7,2.7,0,0,0-.24-1.16,1.82,1.82,0,0,0-1.7-1H56.23v-1.7h4a4.09,4.09,0,0,1,2,.48A3.45,3.45,0,0,1,63.62,599a4.64,4.64,0,0,1,0,4.11,3.34,3.34,0,0,1-1.35,1.36,4,4,0,0,1-2,.49h-4Z"/><path class="b" d="M67.7,606.33a2.07,2.07,0,0,0,.49,1.48,1.76,1.76,0,0,0,1.37.52,1.89,1.89,0,0,0,1.37-.46,1.79,1.79,0,0,0,.48-1.33l.12,1.91A2.58,2.58,0,0,1,69.06,610a2.89,2.89,0,0,1-2.33-1,4.08,4.08,0,0,1-.82-2.73v-5.55H67.7Zm.22-7.86a1.93,1.93,0,0,1-.56-1.5,2.07,2.07,0,0,1,.56-1.57,2.56,2.56,0,0,1,3.18,0,2.08,2.08,0,0,1,.57,1.56,1.94,1.94,0,0,1-.57,1.5,2.65,2.65,0,0,1-3.18,0Zm2.26-.86a.94.94,0,0,0,.24-.68,1,1,0,0,0-.24-.7.91.91,0,0,0-.67-.25.92.92,0,0,0-.67.25,1,1,0,0,0-.23.7,1,1,0,0,0,.23.68.92.92,0,0,0,.67.24A.9.9,0,0,0,70.18,597.61Zm1.23,3.17h1.78v9.12H71.41Z"/><path class="b" d="M77.1,609.63A2.82,2.82,0,0,1,76,608.36a5.08,5.08,0,0,1-.36-2v-2a5.05,5.05,0,0,1,.36-2,2.71,2.71,0,0,1,1-1.27,3,3,0,0,1,1.65-.44,2.71,2.71,0,0,1,1.48.42,3.22,3.22,0,0,1,1.09,1.19l-.18,1.86a2.19,2.19,0,0,0-.22-1,1.48,1.48,0,0,0-.61-.63,2,2,0,0,0-1-.21,1.71,1.71,0,0,0-1.37.55,2.26,2.26,0,0,0-.49,1.56v2a2.19,2.19,0,0,0,.49,1.54,1.74,1.74,0,0,0,1.37.54,1.93,1.93,0,0,0,1-.23,1.45,1.45,0,0,0,.61-.64,2.25,2.25,0,0,0,.22-1l.12,1.92a2.66,2.66,0,0,1-.89,1.14,2.56,2.56,0,0,1-1.53.45A3.19,3.19,0,0,1,77.1,609.63Zm4-12.5H82.9V609.9H81.11Z"/><path class="b" d="M87.09,609.57a3.09,3.09,0,0,1-1.29-1.36,4.85,4.85,0,0,1-.44-2.15v-1.48a4.71,4.71,0,0,1,.44-2.12,3.12,3.12,0,0,1,1.29-1.35,4.71,4.71,0,0,1,4.06,0,3.12,3.12,0,0,1,1.29,1.35,4.71,4.71,0,0,1,.44,2.12v1.51a4.79,4.79,0,0,1-.44,2.13,3.12,3.12,0,0,1-1.29,1.35,4.62,4.62,0,0,1-4.06,0Zm3.49-1.83a2.43,2.43,0,0,0,.51-1.65v-1.51a2.43,2.43,0,0,0-.51-1.65,1.88,1.88,0,0,0-1.46-.58,1.85,1.85,0,0,0-1.45.58,2.38,2.38,0,0,0-.52,1.65v1.51a2.38,2.38,0,0,0,.52,1.65,1.82,1.82,0,0,0,1.45.59A1.85,1.85,0,0,0,90.58,607.74Z"/><path class="b" d="M95.43,600.78h1.79v9.12H95.43Zm4.42,1.72a2.16,2.16,0,0,0-.83-.15,1.83,1.83,0,0,0-1.33.47,1.79,1.79,0,0,0-.47,1.31L97,602.37a3.32,3.32,0,0,1,1.09-1.27,2.58,2.58,0,0,1,1.48-.45,3.39,3.39,0,0,1,1.13.18,2.62,2.62,0,0,1,.88.53l-1.17,1.58A1.56,1.56,0,0,0,99.85,602.5Z"/><path class="b" d="M102.15,600.78H104l2.81,7.93-1,1.94Zm8.07,0L106.34,612a2.6,2.6,0,0,1-.56,1,1.87,1.87,0,0,1-.84.52,4,4,0,0,1-1.23.16h-.36V612h.36a1.46,1.46,0,0,0,.8-.2,1.74,1.74,0,0,0,.51-.7l3.38-10.31Z"/><path class="b" d="M113.51,609.88a5.76,5.76,0,0,1-1.32-.48,4.89,4.89,0,0,1-1.13-.79l1.06-1.31a5.86,5.86,0,0,0,1.47.85,4.18,4.18,0,0,0,1.44.28,3.11,3.11,0,0,0,1.6-.33,1.1,1.1,0,0,0,.53-1,.79.79,0,0,0-.29-.66,1.66,1.66,0,0,0-.72-.29c-.29,0-.69-.1-1.22-.14h-.15l-.14,0h-.15a6.45,6.45,0,0,1-1.5-.26,2,2,0,0,1-1-.7,2.38,2.38,0,0,1-.41-1.49,3.07,3.07,0,0,1,.39-1.61,2.41,2.41,0,0,1,1.18-1,5.29,5.29,0,0,1,2-.32,6.38,6.38,0,0,1,2.6.52,6.16,6.16,0,0,1,1.13.66l-1.08,1.31a5.59,5.59,0,0,0-1.35-.66,4,4,0,0,0-1.3-.22,2.44,2.44,0,0,0-1.37.31,1.08,1.08,0,0,0-.46.94.64.64,0,0,0,.26.55,1.72,1.72,0,0,0,.66.25c.26,0,.64.07,1.12.1h.34a7.67,7.67,0,0,1,1.63.25,2.24,2.24,0,0,1,1.13.77,2.62,2.62,0,0,1,.45,1.65,2.92,2.92,0,0,1-.42,1.63,2.54,2.54,0,0,1-1.27,1A5.88,5.88,0,0,1,115,610,7.38,7.38,0,0,1,113.51,609.88Z"/><path class="b" d="M126,597.13h1.8V609.9H126Zm2.6,12.5a2.39,2.39,0,0,1-.93-1.16l.13-1.91a2.22,2.22,0,0,0,.21,1,1.48,1.48,0,0,0,.61.63,1.93,1.93,0,0,0,1,.22,1.74,1.74,0,0,0,1.37-.54,2.18,2.18,0,0,0,.49-1.53v-2a2.26,2.26,0,0,0-.49-1.56,1.71,1.71,0,0,0-1.37-.55,2,2,0,0,0-1,.21,1.36,1.36,0,0,0-.61.62,2.12,2.12,0,0,0-.21,1l-.19-1.76a3.37,3.37,0,0,1,1.08-1.24,2.67,2.67,0,0,1,1.49-.43,3,3,0,0,1,1.65.43,2.9,2.9,0,0,1,1.06,1.27,5.1,5.1,0,0,1,.36,2v2a4.94,4.94,0,0,1-.37,2,2.79,2.79,0,0,1-1.08,1.26,3.25,3.25,0,0,1-1.71.44A2.73,2.73,0,0,1,128.57,609.63Z"/><path class="b" d="M134.46,600.78h1.82l2.81,7.93-1,1.94Zm8.07,0L138.65,612a2.6,2.6,0,0,1-.56,1,1.87,1.87,0,0,1-.84.52,4,4,0,0,1-1.23.16h-.36V612H136a1.46,1.46,0,0,0,.8-.2,1.74,1.74,0,0,0,.51-.7l3.37-10.31Z"/><path class="b" d="M143.57,600.78h4.12v1.62h-4.12Zm1.46,8.56a2.77,2.77,0,0,1-.52-1.81v-9.4h1.8v9.42a.84.84,0,0,0,.13.51.46.46,0,0,0,.39.18h.86V610h-1A2,2,0,0,1,145,609.34Z"/><path class="b" d="M151.94,606.33a2.07,2.07,0,0,0,.49,1.48,1.76,1.76,0,0,0,1.37.52,1.91,1.91,0,0,0,1.37-.46,1.79,1.79,0,0,0,.48-1.33l.12,1.91A2.58,2.58,0,0,1,153.3,610a2.89,2.89,0,0,1-2.33-1,4.08,4.08,0,0,1-.82-2.73v-5.55h1.79Zm3.71-5.55h1.78v9.12h-1.78Z"/><rect class="c" x="612.92" y="591.68" width="35.43" height="2.83"/><path class="d" d="M648.48,594.64H612.79v-3.08h35.69ZM613,594.39h35.19v-2.58H613Z"/><rect class="c" x="612.92" y="601.6" width="70.74" height="2.83"/><path class="d" d="M683.78,604.56h-71v-3.08h71ZM613,604.31h70.49v-2.58H613Z"/><rect class="c" x="612.92" y="612.72" width="177.16" height="2.84"/><path class="d" d="M790.21,615.68H612.79V612.6H790.21ZM613,615.43H790v-2.58H613Z"/><path class="e" d="M587.26,596.28h-.8v-4.82l-.81.5v-.83l.81-.53h.8Z"/><path class="e" d="M589,595.91a1.67,1.67,0,0,1-.41-1.19v-2.58A1.65,1.65,0,0,1,589,591a2,2,0,0,1,2.42,0,1.65,1.65,0,0,1,.41,1.19v2.58a1.65,1.65,0,0,1-.41,1.19,2,2,0,0,1-2.42,0Zm1.83-.55a.89.89,0,0,0,.2-.64v-2.58a.89.89,0,0,0-.2-.64.82.82,0,0,0-.62-.22.86.86,0,0,0-.63.22.94.94,0,0,0-.2.64v2.58a.9.9,0,0,0,.21.64,1,1,0,0,0,1.24,0Z"/><path class="e" d="M593.22,595.91a1.67,1.67,0,0,1-.41-1.19v-2.58a1.65,1.65,0,0,1,.41-1.19,2,2,0,0,1,2.42,0,1.61,1.61,0,0,1,.41,1.19v2.58a1.65,1.65,0,0,1-.41,1.19,2,2,0,0,1-2.42,0Zm1.83-.55a.9.9,0,0,0,.21-.64v-2.58a.94.94,0,0,0-.2-.64.86.86,0,0,0-.63-.22.82.82,0,0,0-.62.22.89.89,0,0,0-.2.64v2.58a.89.89,0,0,0,.2.64,1,1,0,0,0,1.24,0Z"/><path class="e" d="M600.1,596.13a1.45,1.45,0,0,1-.6-.6,2.06,2.06,0,0,1-.21-1v-.67a2,2,0,0,1,.21-.94,1.37,1.37,0,0,1,.6-.59,2,2,0,0,1,.95-.21,2.21,2.21,0,0,1,.59.08,1.68,1.68,0,0,1,.51.22,1.54,1.54,0,0,1,.37.35l-.58.52a1.17,1.17,0,0,0-.4-.3,1.13,1.13,0,0,0-.48-.11.94.94,0,0,0-.71.26,1,1,0,0,0-.26.72v.67a1,1,0,0,0,.25.74.94.94,0,0,0,.72.27,1,1,0,0,0,.48-.12,1,1,0,0,0,.4-.32l.58.56a1.38,1.38,0,0,1-.38.34,1.62,1.62,0,0,1-.5.22,2.27,2.27,0,0,1-.59.07A2.12,2.12,0,0,1,600.1,596.13Z"/><path class="e" d="M603.4,592.22h.79v4.06h-.79Zm2.42,1.6a1,1,0,0,0-.21-.67.78.78,0,0,0-.6-.23.81.81,0,0,0-.6.21.73.73,0,0,0-.22.58l-.08-.78a1.46,1.46,0,0,1,.49-.57,1.22,1.22,0,0,1,.67-.2,1.33,1.33,0,0,1,.73.2,1.18,1.18,0,0,1,.46.56,2.4,2.4,0,0,1,.15.89v2.47h-.79Zm2.42,0a.93.93,0,0,0-.22-.67.85.85,0,0,0-.63-.23.72.72,0,0,0-.57.23.9.9,0,0,0-.21.64l-.16-.78a1.61,1.61,0,0,1,.51-.63,1.23,1.23,0,0,1,.69-.22,1.37,1.37,0,0,1,.75.2,1.09,1.09,0,0,1,.47.56,2.21,2.21,0,0,1,.17.89v2.47h-.8Z"/><path class="e" d="M584.33,605.5l2-2.64a1.85,1.85,0,0,0,.27-.47,1.29,1.29,0,0,0,.09-.45h0a.67.67,0,0,0-.2-.53.81.81,0,0,0-.56-.19.76.76,0,0,0-.56.21,1,1,0,0,0-.27.58h-.82a2,2,0,0,1,.29-.83,1.42,1.42,0,0,1,.56-.53,1.67,1.67,0,0,1,.79-.18,1.93,1.93,0,0,1,.87.17,1.21,1.21,0,0,1,.54.51,1.55,1.55,0,0,1,.19.8h0a1.84,1.84,0,0,1-.12.63,2.8,2.8,0,0,1-.35.63l-1.65,2.24h2.15v.76h-3.2Z"/><path class="e" d="M589,605.83a1.67,1.67,0,0,1-.41-1.19v-2.58a1.65,1.65,0,0,1,.41-1.19,2,2,0,0,1,2.42,0,1.65,1.65,0,0,1,.41,1.19v2.58a1.65,1.65,0,0,1-.41,1.19,2,2,0,0,1-2.42,0Zm1.83-.55a.89.89,0,0,0,.2-.64v-2.58a.89.89,0,0,0-.2-.64.82.82,0,0,0-.62-.22.86.86,0,0,0-.63.22.94.94,0,0,0-.19.64v2.58a.89.89,0,0,0,.2.64,1,1,0,0,0,1.24,0Z"/><path class="e" d="M593.22,605.83a1.67,1.67,0,0,1-.41-1.19v-2.58a1.61,1.61,0,0,1,.42-1.19,1.59,1.59,0,0,1,1.2-.42,1.45,1.45,0,0,1,1.62,1.61v2.58a1.61,1.61,0,0,1-.41,1.19,2,2,0,0,1-2.42,0Zm1.84-.55a.94.94,0,0,0,.2-.64v-2.58a.94.94,0,0,0-.2-.64.84.84,0,0,0-.63-.22.82.82,0,0,0-.62.22.89.89,0,0,0-.2.64v2.58a.89.89,0,0,0,.2.64.82.82,0,0,0,.62.22A.86.86,0,0,0,595.06,605.28Z"/><path class="e" d="M600.1,606.05a1.45,1.45,0,0,1-.6-.6,2.06,2.06,0,0,1-.2-1v-.67a2,2,0,0,1,.2-.94,1.37,1.37,0,0,1,.6-.59,2,2,0,0,1,.95-.21,2.35,2.35,0,0,1,.6.08,1.73,1.73,0,0,1,.5.22,1.38,1.38,0,0,1,.37.35l-.58.52a1.08,1.08,0,0,0-.4-.3,1.13,1.13,0,0,0-.48-.11,1,1,0,0,0-.71.26,1,1,0,0,0-.26.72v.67a1,1,0,0,0,.25.74.94.94,0,0,0,.72.27,1.14,1.14,0,0,0,.88-.44l.58.56a1.38,1.38,0,0,1-.38.34,1.62,1.62,0,0,1-.5.22,2.22,2.22,0,0,1-.59.07A2.12,2.12,0,0,1,600.1,606.05Z"/><path class="e" d="M603.4,602.14h.79v4.06h-.79Zm2.42,1.6a1,1,0,0,0-.21-.67.78.78,0,0,0-.6-.23.81.81,0,0,0-.6.21.73.73,0,0,0-.22.58l-.08-.78a1.46,1.46,0,0,1,.49-.57,1.22,1.22,0,0,1,.67-.2,1.3,1.3,0,0,1,.73.2,1.18,1.18,0,0,1,.46.56,2.4,2.4,0,0,1,.16.89v2.47h-.8Zm2.42,0a.93.93,0,0,0-.22-.67.85.85,0,0,0-.63-.23.73.73,0,0,0-.57.23.89.89,0,0,0-.2.64l-.16-.78a1.51,1.51,0,0,1,.5-.63,1.23,1.23,0,0,1,.69-.22,1.35,1.35,0,0,1,.75.2,1.16,1.16,0,0,1,.48.56,2.4,2.4,0,0,1,.16.89v2.47h-.8Z"/><path class="e" d="M585,615.58a1.34,1.34,0,0,1-.54-.49,2,2,0,0,1-.28-.77h.8a.75.75,0,0,0,.25.49.85.85,0,0,0,.54.17.72.72,0,0,0,.59-.25,1.1,1.1,0,0,0,.21-.72v-.48a1.1,1.1,0,0,0-.21-.72.72.72,0,0,0-.59-.25.83.83,0,0,0-.4.11,1.18,1.18,0,0,0-.34.33h-.72v-3h2.89v.76h-2.1V612a1,1,0,0,1,.34-.18.94.94,0,0,1,.37-.07,1.68,1.68,0,0,1,.84.2,1.29,1.29,0,0,1,.53.6,2.07,2.07,0,0,1,.19.94V614a2.25,2.25,0,0,1-.19.94,1.31,1.31,0,0,1-.55.59,1.69,1.69,0,0,1-.86.21A1.74,1.74,0,0,1,585,615.58Z"/><path class="e" d="M589,615.32a1.65,1.65,0,0,1-.41-1.19v-2.58a1.67,1.67,0,0,1,.41-1.19,2,2,0,0,1,2.42,0,1.65,1.65,0,0,1,.41,1.19v2.58a1.64,1.64,0,0,1-.41,1.19,1.92,1.92,0,0,1-2.42,0Zm1.83-.55a.89.89,0,0,0,.2-.64v-2.58a.88.88,0,0,0-.2-.63.78.78,0,0,0-.62-.22.82.82,0,0,0-.63.22.93.93,0,0,0-.2.63v2.58a.9.9,0,0,0,.21.64,1,1,0,0,0,1.24,0Z"/><path class="e" d="M593.22,615.32a1.65,1.65,0,0,1-.41-1.19v-2.58a1.67,1.67,0,0,1,.41-1.19,2,2,0,0,1,2.42,0,1.61,1.61,0,0,1,.41,1.19v2.58a1.64,1.64,0,0,1-.41,1.19,1.92,1.92,0,0,1-2.42,0Zm1.83-.55a.9.9,0,0,0,.21-.64v-2.58a.93.93,0,0,0-.2-.63.82.82,0,0,0-.63-.22.78.78,0,0,0-.62.22.88.88,0,0,0-.2.63v2.58a.89.89,0,0,0,.2.64,1,1,0,0,0,1.24,0Z"/><path class="e" d="M600.1,615.54a1.45,1.45,0,0,1-.6-.6,2,2,0,0,1-.21-1v-.67a2,2,0,0,1,.21-.94,1.45,1.45,0,0,1,.6-.6,2,2,0,0,1,.95-.2,2.22,2.22,0,0,1,.59.07,2,2,0,0,1,.51.22,1.76,1.76,0,0,1,.37.35l-.58.52a1.17,1.17,0,0,0-.4-.3,1.13,1.13,0,0,0-.48-.11.94.94,0,0,0-.71.26,1,1,0,0,0-.26.73V614a1.07,1.07,0,0,0,.25.74,1,1,0,0,0,.72.26,1.13,1.13,0,0,0,.48-.11,1.26,1.26,0,0,0,.4-.32l.58.55a1.42,1.42,0,0,1-.38.35,1.88,1.88,0,0,1-.5.21,2.27,2.27,0,0,1-.59.08A2,2,0,0,1,600.1,615.54Z"/><path class="e" d="M603.4,611.63h.79v4.06h-.79Zm2.42,1.6a1,1,0,0,0-.21-.66.75.75,0,0,0-.6-.24.81.81,0,0,0-.6.21.75.75,0,0,0-.22.58l-.08-.78a1.5,1.5,0,0,1,.49-.56,1.15,1.15,0,0,1,.67-.2,1.32,1.32,0,0,1,.73.19,1.28,1.28,0,0,1,.46.56,2.42,2.42,0,0,1,.15.9v2.46h-.79Zm2.42,0a.91.91,0,0,0-.22-.66.82.82,0,0,0-.63-.24.72.72,0,0,0-.57.23.9.9,0,0,0-.21.64l-.16-.78a1.51,1.51,0,0,1,.51-.62,1.16,1.16,0,0,1,.69-.22,1.37,1.37,0,0,1,.75.19,1.18,1.18,0,0,1,.47.56,2.22,2.22,0,0,1,.17.9v2.46h-.8Z"/><path class="c" d="M23.49,613.89A12.92,12.92,0,1,1,36.4,601,12.93,12.93,0,0,1,23.49,613.89Zm0-24.83A11.92,11.92,0,1,0,35.4,601,11.93,11.93,0,0,0,23.49,589.06Z"/><polygon class="d" points="35.77 588.74 9.42 600.98 35.77 613.21 32.02 600.98 35.77 588.74"/><path class="c" d="M36.58,614.14,8.23,601l28.35-13.17-4,13.17ZM10.61,601,35,612.29,31.5,601,35,589.66Z"/><path class="c" d="M2.52,605.19a5,5,0,0,1-1.11-.38,4.4,4.4,0,0,1-1-.64l.81-1a3.72,3.72,0,0,0,1.16.69,4.08,4.08,0,0,0,1.38.23,2.73,2.73,0,0,0,1.55-.38,1.17,1.17,0,0,0,.55-1.05h0a1.12,1.12,0,0,0-.25-.77,1.44,1.44,0,0,0-.64-.42,8.23,8.23,0,0,0-1-.25H3.89l-.1,0a9.48,9.48,0,0,1-1.5-.36,2.08,2.08,0,0,1-1-.73,2.42,2.42,0,0,1-.41-1.51h0a2.77,2.77,0,0,1,.38-1.47,2.44,2.44,0,0,1,1.12-.92,4.48,4.48,0,0,1,1.77-.32,4.6,4.6,0,0,1,1,.11,4.9,4.9,0,0,1,1.86.86l-.73,1a4.61,4.61,0,0,0-1-.58,3,3,0,0,0-1.06-.2,2.44,2.44,0,0,0-1.46.38,1.24,1.24,0,0,0-.53,1.07h0a1,1,0,0,0,.27.75,1.74,1.74,0,0,0,.67.4,9.3,9.3,0,0,0,1.12.27h.24a7.93,7.93,0,0,1,1.4.41,2.22,2.22,0,0,1,.94.76,2.4,2.4,0,0,1,.38,1.43h0a2.62,2.62,0,0,1-.4,1.45,2.54,2.54,0,0,1-1.16.91,4.8,4.8,0,0,1-1.83.31A6.44,6.44,0,0,1,2.52,605.19Z"/><rect class="c" x="612.5" y="600.68" width="1" height="4.68"/><rect class="c" x="612.5" y="590.76" width="1" height="4.68"/><rect class="c" x="612.5" y="611.45" width="1" height="5.24"/><rect class="c" x="789.58" y="611.45" width="1" height="5.24"/><rect class="c" x="682.59" y="600.68" width="1" height="4.68"/><rect class="c" x="647.3" y="590.76" width="1" height="4.68"/><rect class="a" width="790.34" height="618.13"/><line class="f" x1="594.08" y1="377.91" x2="592.01" y2="377.91"/><line class="f" x1="270.51" y1="429.54" x2="589.26" y2="429.54"/><line class="f" x1="270.51" y1="377.91" x2="270.51" y2="429.54"/><line class="f" x1="366.89" y1="377.91" x2="270.51" y2="377.91"/><line class="f" x1="366.89" y1="374.46" x2="366.89" y2="377.91"/><line class="f" x1="397.87" y1="374.46" x2="366.89" y2="374.46"/><line class="f" x1="397.87" y1="377.91" x2="397.87" y2="374.47"/><line class="f" x1="452.95" y1="377.91" x2="397.87" y2="377.91"/><line class="f" x1="452.95" y1="374.46" x2="452.95" y2="377.91"/><line class="f" x1="483.93" y1="374.46" x2="452.95" y2="374.46"/><line class="f" x1="483.93" y1="377.91" x2="483.93" y2="374.47"/><line class="f" x1="589.26" y1="377.91" x2="483.93" y2="377.91"/><line class="f" x1="589.26" y1="429.54" x2="589.26" y2="377.91"/><polygon class="g" points="385.82 193.41 385.82 214.4 298.39 214.4 298.39 259.84 277.39 259.84 277.39 214.06 277.39 193.41 385.82 193.41"/><line class="f" x1="385.82" y1="193.41" x2="385.82" y2="214.4"/><line class="f" x1="385.82" y1="214.4" x2="298.39" y2="214.4"/><line class="f" x1="298.39" y1="214.4" x2="298.39" y2="259.84"/><line class="f" x1="298.39" y1="259.84" x2="277.4" y2="259.84"/><line class="f" x1="277.4" y1="259.84" x2="277.4" y2="214.06"/><line class="f" x1="277.4" y1="214.06" x2="277.4" y2="193.41"/><line class="f" x1="277.4" y1="193.41" x2="385.82" y2="193.41"/><line class="f" x1="594.08" y1="357.25" x2="594.08" y2="357.25"/><line class="f" x1="594.08" y1="357.25" x2="594.08" y2="274.3"/><line class="f" x1="594.08" y1="274.3" x2="594.08" y2="274.3"/><rect class="d" x="559.14" y="198.57" width="25.82" height="59.38"/><line class="f" x1="584.96" y1="257.95" x2="559.14" y2="257.95"/><line class="f" x1="559.14" y1="257.95" x2="559.14" y2="198.57"/><line class="f" x1="559.14" y1="198.57" x2="584.96" y2="198.57"/><line class="f" x1="584.96" y1="198.57" x2="584.96" y2="257.95"/><rect class="d" x="263.63" y="214.06" width="11.36" height="43.03"/><line class="f" x1="274.99" y1="257.09" x2="263.63" y2="257.09"/><line class="f" x1="263.63" y1="257.09" x2="263.63" y2="214.06"/><line class="f" x1="263.63" y1="214.06" x2="274.99" y2="214.06"/><line class="f" x1="274.99" y1="214.06" x2="274.99" y2="257.09"/><rect class="d" x="262.94" y="288.07" width="12.05" height="65.4"/><line class="f" x1="274.99" y1="353.47" x2="262.94" y2="353.47"/><line class="f" x1="262.94" y1="353.47" x2="262.94" y2="288.07"/><line class="f" x1="262.94" y1="288.06" x2="274.99" y2="288.06"/><line class="f" x1="274.99" y1="288.06" x2="274.99" y2="353.47"/><rect class="d" x="403.72" y="193.41" width="19.96" height="18.93"/><line class="f" x1="423.69" y1="212.34" x2="403.72" y2="212.34"/><line class="f" x1="403.72" y1="212.34" x2="403.72" y2="193.41"/><line class="f" x1="403.72" y1="193.41" x2="423.69" y2="193.41"/><line class="f" x1="423.69" y1="193.41" x2="423.69" y2="212.34"/><line class="f" x1="503.03" y1="185.14" x2="503.03" y2="185.14"/><line class="f" x1="594.08" y1="185.14" x2="594.08" y2="185.14"/><line class="f" x1="503.03" y1="185.14" x2="594.08" y2="185.14"/><polygon class="h" points="196.5 193.75 196.5 185.15 205.11 185.15 205.11 260.53 205.28 364.14 205.11 371.02 205.11 377.91 196.5 377.91 196.5 193.75"/><rect x="397.87" y="371.02" width="55.08" height="6.88"/><rect x="260.18" y="371.02" width="37.86" height="6.88"/><polygon class="h" points="210.27 377.91 205.11 377.91 205.11 371.02 229.21 371.02 229.21 377.91 210.27 377.91"/><rect x="552.77" y="371.02" width="41.31" height="6.88"/><rect x="554.49" y="364.14" width="39.59" height="6.88"/><rect x="399.59" y="364.14" width="51.63" height="6.88"/><rect x="261.91" y="364.14" width="34.42" height="6.88"/><rect x="205.11" y="364.14" width="22.37" height="6.88"/><polygon class="h" points="483.93 258.81 490.81 258.81 490.81 250.2 493.22 250.2 493.22 258.81 585.82 258.81 585.82 261.22 483.93 261.22 483.93 258.81"/><rect x="401.31" y="193.41" width="2.41" height="25.82"/><polygon class="h" points="401.31 250.2 403.72 250.2 403.72 258.81 452.95 258.81 452.95 261.22 418.52 261.22 418.52 364.14 416.12 364.14 416.12 261.22 401.31 261.22 401.31 250.2"/><polygon class="h" points="463.27 185.15 499.07 185.15 507.33 185.15 594.08 185.15 594.08 364.14 585.82 364.14 585.82 193.41 463.27 193.41 463.27 185.15"/><polygon class="h" points="205.11 193.41 205.11 185.15 291.51 185.15 364.83 185.15 425.41 185.15 425.41 193.41 205.11 193.41"/><rect x="425.41" y="185.14" width="1.72" height="3.96"/><rect x="461.55" y="185.14" width="1.72" height="3.96"/><rect x="274.99" y="287.03" width="2.41" height="77.11"/><rect x="205.11" y="257.09" width="24.1" height="2.41"/><polygon class="h" points="260.18 257.09 274.99 257.09 274.99 193.41 277.39 193.41 277.39 259.5 260.18 259.5 260.18 257.09"/><polygon class="h" points="490.81 208.9 490.81 193.41 493.22 193.41 493.22 222.66 490.81 222.66 490.81 212.34 490.81 208.9"/><polygon class="h" points="490.81 208.9 490.81 212.34 463.27 212.34 463.27 193.42 466.72 193.42 466.72 208.9 490.81 208.9"/><polygon class="h" points="401.31 210.62 401.31 214.06 385.82 214.06 385.82 193.41 389.27 193.41 389.27 210.62 401.31 210.62"/><polygon class="h" points="589.26 377.91 592.01 377.91 590.63 377.91 590.63 429.54 589.26 429.54 589.26 377.91"/><line class="f" x1="594.08" y1="377.91" x2="552.77" y2="377.91"/><line class="f" x1="452.95" y1="377.91" x2="397.87" y2="377.91"/><line class="f" x1="298.05" y1="377.91" x2="260.18" y2="377.91"/><line class="f" x1="229.2" y1="377.91" x2="210.27" y2="377.91"/><line class="f" x1="594.08" y1="364.14" x2="594.08" y2="364.14"/><line class="f" x1="585.82" y1="364.14" x2="554.49" y2="364.14"/><line class="f" x1="415.98" y1="364.14" x2="399.59" y2="364.14"/><line class="f" x1="296.33" y1="364.14" x2="277.4" y2="364.14"/><line class="f" x1="274.99" y1="364.14" x2="261.91" y2="364.14"/><line class="f" x1="227.48" y1="364.14" x2="205.11" y2="364.14"/><line class="f" x1="205.11" y1="193.41" x2="205.11" y2="257.09"/><line class="f" x1="205.11" y1="259.5" x2="205.11" y2="364.14"/><line class="f" x1="451.23" y1="364.14" x2="451.23" y2="371.02"/><line class="f" x1="399.59" y1="364.14" x2="399.59" y2="371.02"/><line class="f" x1="296.33" y1="364.14" x2="296.33" y2="371.02"/><line class="f" x1="451.23" y1="364.14" x2="418.52" y2="364.14"/><line class="f" x1="261.91" y1="364.14" x2="261.91" y2="371.02"/><line class="f" x1="227.48" y1="364.14" x2="227.48" y2="371.02"/><line class="f" x1="589.26" y1="377.91" x2="589.26" y2="429.54"/><line class="f" x1="590.64" y1="429.54" x2="589.26" y2="429.54"/><line class="f" x1="397.87" y1="371.02" x2="397.87" y2="377.91"/><line class="f" x1="399.59" y1="371.02" x2="397.87" y2="371.02"/><line class="f" x1="260.18" y1="371.02" x2="260.18" y2="377.91"/><line class="f" x1="261.91" y1="371.02" x2="260.18" y2="371.02"/><line class="f" x1="452.95" y1="371.02" x2="452.95" y2="377.91"/><line class="f" x1="452.95" y1="371.02" x2="451.23" y2="371.02"/><line class="f" x1="298.05" y1="371.02" x2="298.05" y2="377.91"/><line class="f" x1="298.05" y1="371.02" x2="296.33" y2="371.02"/><line class="f" x1="229.2" y1="371.02" x2="229.2" y2="377.91"/><line class="f" x1="229.2" y1="371.02" x2="227.48" y2="371.02"/><line class="f" x1="554.49" y1="364.14" x2="554.49" y2="371.02"/><line class="f" x1="552.77" y1="371.02" x2="552.77" y2="377.91"/><line class="f" x1="552.77" y1="371.02" x2="554.49" y2="371.02"/><line class="f" x1="196.5" y1="193.75" x2="196.5" y2="377.91"/><line class="f" x1="196.5" y1="193.75" x2="196.5" y2="193.75"/><line class="f" x1="590.64" y1="429.54" x2="270.51" y2="429.54"/><line class="f" x1="270.51" y1="377.91" x2="270.51" y2="429.54"/><line class="f" x1="196.5" y1="247.1" x2="196.5" y2="247.1"/><line class="f" x1="196.5" y1="257.43" x2="196.5" y2="257.43"/><line class="f" x1="196.5" y1="267.76" x2="196.5" y2="267.76"/><line class="f" x1="196.5" y1="278.08" x2="196.5" y2="278.08"/><line class="f" x1="196.5" y1="288.41" x2="196.5" y2="288.41"/><line class="f" x1="196.5" y1="298.74" x2="196.5" y2="298.74"/><line class="f" x1="196.5" y1="309.06" x2="196.5" y2="309.06"/><line class="f" x1="196.5" y1="319.39" x2="196.5" y2="319.39"/><line class="f" x1="196.5" y1="329.72" x2="196.5" y2="329.72"/><line class="f" x1="260.18" y1="377.91" x2="229.2" y2="377.91"/><line class="f" x1="261.91" y1="364.14" x2="227.48" y2="364.14"/><line class="f" x1="298.05" y1="377.91" x2="366.89" y2="377.91"/><line class="f" x1="296.33" y1="364.14" x2="365.17" y2="364.14"/><line class="f" x1="365.17" y1="364.14" x2="365.17" y2="371.02"/><line class="f" x1="365.17" y1="364.14" x2="399.59" y2="364.14"/><line class="f" x1="366.89" y1="371.02" x2="366.89" y2="377.91"/><line class="f" x1="366.89" y1="374.46" x2="397.87" y2="374.46"/><line class="f" x1="398.22" y1="367.58" x2="398.22" y2="335.91"/><line class="f" x1="367.92" y1="370.33" x2="367.92" y2="371.02"/><line class="f" x1="367.92" y1="371.02" x2="365.17" y2="371.02"/><line class="f" x1="365.17" y1="371.02" x2="365.17" y2="368.27"/><line class="f" x1="365.17" y1="368.27" x2="366.55" y2="368.27"/><line class="f" x1="366.55" y1="367.58" x2="369.3" y2="367.58"/><line class="f" x1="369.3" y1="367.58" x2="369.3" y2="370.33"/><line class="f" x1="369.3" y1="370.33" x2="366.55" y2="370.33"/><line class="f" x1="366.55" y1="370.33" x2="366.55" y2="367.58"/><line class="f" x1="398.22" y1="367.58" x2="395.46" y2="367.58"/><line class="f" x1="395.46" y1="367.58" x2="395.46" y2="370.33"/><line class="f" x1="395.46" y1="370.33" x2="398.22" y2="370.33"/><line class="f" x1="398.22" y1="370.33" x2="398.22" y2="367.58"/><line class="f" x1="369.3" y1="367.58" x2="395.46" y2="367.58"/><line class="f" x1="395.46" y1="370.33" x2="369.3" y2="370.33"/><line class="f" x1="369.3" y1="368.96" x2="395.46" y2="368.96"/><g class="i"><path class="f" d="M366.55,367.58a31.67,31.67,0,0,1,31.67-31.67"/></g><line class="f" x1="396.84" y1="370.33" x2="396.84" y2="371.02"/><line class="f" x1="396.84" y1="371.02" x2="399.59" y2="371.02"/><line class="f" x1="399.59" y1="371.02" x2="399.59" y2="368.27"/><line class="f" x1="399.59" y1="368.27" x2="398.22" y2="368.27"/><line class="f" x1="299.08" y1="370.33" x2="299.08" y2="371.02"/><line class="f" x1="299.08" y1="371.02" x2="296.33" y2="371.02"/><line class="f" x1="296.33" y1="371.02" x2="296.33" y2="368.27"/><line class="f" x1="296.33" y1="368.27" x2="297.7" y2="368.27"/><line class="f" x1="297.7" y1="367.58" x2="300.46" y2="367.58"/><line class="f" x1="300.46" y1="367.58" x2="300.46" y2="370.33"/><line class="f" x1="300.46" y1="370.33" x2="297.7" y2="370.33"/><line class="f" x1="297.7" y1="370.33" x2="297.7" y2="367.58"/><line class="f" x1="329.37" y1="370.33" x2="329.37" y2="371.02"/><line class="f" x1="329.37" y1="371.02" x2="332.13" y2="371.02"/><line class="f" x1="332.13" y1="371.02" x2="332.13" y2="368.27"/><line class="f" x1="332.13" y1="368.27" x2="330.75" y2="368.27"/><line class="f" x1="330.75" y1="367.58" x2="328" y2="367.58"/><line class="f" x1="328" y1="367.58" x2="328" y2="370.33"/><line class="f" x1="328" y1="370.33" x2="330.75" y2="370.33"/><line class="f" x1="330.75" y1="370.33" x2="330.75" y2="367.58"/><line class="f" x1="300.46" y1="367.58" x2="328" y2="367.58"/><line class="f" x1="328" y1="370.33" x2="300.46" y2="370.33"/><line class="f" x1="300.46" y1="368.96" x2="328" y2="368.96"/><line class="f" x1="230.24" y1="370.33" x2="230.24" y2="371.02"/><line class="f" x1="230.24" y1="371.02" x2="227.48" y2="371.02"/><line class="f" x1="227.48" y1="371.02" x2="227.48" y2="368.27"/><line class="f" x1="227.48" y1="368.27" x2="228.86" y2="368.27"/><line class="f" x1="228.86" y1="367.58" x2="231.61" y2="367.58"/><line class="f" x1="231.61" y1="367.58" x2="231.61" y2="370.33"/><line class="f" x1="231.61" y1="370.33" x2="228.86" y2="370.33"/><line class="f" x1="228.86" y1="370.33" x2="228.86" y2="367.58"/><line class="f" x1="259.15" y1="370.33" x2="259.15" y2="371.02"/><line class="f" x1="259.15" y1="371.02" x2="261.91" y2="371.02"/><line class="f" x1="261.91" y1="371.02" x2="261.91" y2="368.27"/><line class="f" x1="261.91" y1="368.27" x2="260.53" y2="368.27"/><line class="f" x1="260.53" y1="367.58" x2="257.77" y2="367.58"/><line class="f" x1="257.77" y1="367.58" x2="257.77" y2="370.33"/><line class="f" x1="257.77" y1="370.33" x2="260.53" y2="370.33"/><line class="f" x1="260.53" y1="370.33" x2="260.53" y2="367.58"/><line class="f" x1="231.61" y1="367.58" x2="257.77" y2="367.58"/><line class="f" x1="257.77" y1="370.33" x2="231.61" y2="370.33"/><line class="f" x1="231.61" y1="368.96" x2="257.77" y2="368.96"/><line class="f" x1="365.17" y1="368.27" x2="362.42" y2="368.27"/><line class="f" x1="362.42" y1="368.27" x2="362.42" y2="371.02"/><line class="f" x1="362.42" y1="371.02" x2="365.17" y2="371.02"/><line class="f" x1="365.17" y1="371.02" x2="365.17" y2="368.27"/><line class="f" x1="362.42" y1="368.27" x2="332.13" y2="368.27"/><line class="f" x1="362.42" y1="369.65" x2="332.13" y2="369.65"/><line class="f" x1="362.42" y1="371.02" x2="332.13" y2="371.02"/><line class="f" x1="552.77" y1="377.91" x2="483.93" y2="377.91"/><line class="f" x1="554.49" y1="364.14" x2="485.65" y2="364.14"/><line class="f" x1="485.65" y1="364.14" x2="485.65" y2="371.02"/><line class="f" x1="485.65" y1="364.14" x2="451.23" y2="364.14"/><line class="f" x1="483.93" y1="371.02" x2="483.93" y2="377.91"/><line class="f" x1="483.93" y1="374.46" x2="452.95" y2="374.46"/><line class="f" x1="452.6" y1="367.58" x2="452.6" y2="335.91"/><line class="f" x1="482.89" y1="370.33" x2="482.89" y2="371.02"/><line class="f" x1="482.89" y1="371.02" x2="485.65" y2="371.02"/><line class="f" x1="485.65" y1="371.02" x2="485.65" y2="368.27"/><line class="f" x1="485.65" y1="368.27" x2="484.27" y2="368.27"/><line class="f" x1="484.27" y1="367.58" x2="481.52" y2="367.58"/><line class="f" x1="481.52" y1="367.58" x2="481.52" y2="370.33"/><line class="f" x1="481.52" y1="370.33" x2="484.27" y2="370.33"/><line class="f" x1="484.27" y1="370.33" x2="484.27" y2="367.58"/><line class="f" x1="452.6" y1="367.58" x2="455.36" y2="367.58"/><line class="f" x1="455.36" y1="367.58" x2="455.36" y2="370.33"/><line class="f" x1="455.36" y1="370.33" x2="452.6" y2="370.33"/><line class="f" x1="452.6" y1="370.33" x2="452.6" y2="367.58"/><line class="f" x1="481.52" y1="367.58" x2="455.36" y2="367.58"/><line class="f" x1="455.36" y1="370.33" x2="481.52" y2="370.33"/><line class="f" x1="481.52" y1="368.96" x2="455.36" y2="368.96"/><g class="i"><path class="f" d="M452.6,335.91a31.67,31.67,0,0,1,31.67,31.67"/></g><line class="f" x1="453.98" y1="370.33" x2="453.98" y2="371.02"/><line class="f" x1="453.98" y1="371.02" x2="451.23" y2="371.02"/><line class="f" x1="451.23" y1="371.02" x2="451.23" y2="368.27"/><line class="f" x1="451.23" y1="368.27" x2="452.6" y2="368.27"/><line class="f" x1="551.74" y1="370.33" x2="551.74" y2="371.02"/><line class="f" x1="551.74" y1="371.02" x2="554.49" y2="371.02"/><line class="f" x1="554.49" y1="371.02" x2="554.49" y2="368.27"/><line class="f" x1="554.49" y1="368.27" x2="553.12" y2="368.27"/><line class="f" x1="553.12" y1="367.58" x2="550.36" y2="367.58"/><line class="f" x1="550.36" y1="367.58" x2="550.36" y2="370.33"/><line class="f" x1="550.36" y1="370.33" x2="553.12" y2="370.33"/><line class="f" x1="553.12" y1="370.33" x2="553.12" y2="367.58"/><line class="f" x1="521.45" y1="370.33" x2="521.45" y2="371.02"/><line class="f" x1="521.45" y1="371.02" x2="518.69" y2="371.02"/><line class="f" x1="518.69" y1="371.02" x2="518.69" y2="368.27"/><line class="f" x1="518.69" y1="368.27" x2="520.07" y2="368.27"/><line class="f" x1="520.07" y1="367.58" x2="522.82" y2="367.58"/><line class="f" x1="522.82" y1="367.58" x2="522.82" y2="370.33"/><line class="f" x1="522.82" y1="370.33" x2="520.07" y2="370.33"/><line class="f" x1="520.07" y1="370.33" x2="520.07" y2="367.58"/><line class="f" x1="550.36" y1="367.58" x2="522.82" y2="367.58"/><line class="f" x1="522.82" y1="370.33" x2="550.36" y2="370.33"/><line class="f" x1="550.36" y1="368.96" x2="522.82" y2="368.96"/><line class="f" x1="485.65" y1="368.27" x2="488.4" y2="368.27"/><line class="f" x1="488.4" y1="368.27" x2="488.4" y2="371.02"/><line class="f" x1="488.4" y1="371.02" x2="485.65" y2="371.02"/><line class="f" x1="485.65" y1="371.02" x2="485.65" y2="368.27"/><line class="f" x1="488.4" y1="368.27" x2="518.69" y2="368.27"/><line class="f" x1="488.4" y1="369.65" x2="518.69" y2="369.65"/><line class="f" x1="488.4" y1="371.02" x2="518.69" y2="371.02"/><line class="f" x1="196.5" y1="289.79" x2="196.5" y2="289.79"/><line class="f" x1="594.08" y1="218.53" x2="594.08" y2="218.53"/><line class="f" x1="585.82" y1="193.41" x2="493.22" y2="193.41"/><line class="f" x1="425.41" y1="193.41" x2="403.72" y2="193.41"/><line class="f" x1="385.82" y1="193.41" x2="277.39" y2="193.41"/><line class="f" x1="274.99" y1="193.41" x2="205.11" y2="193.41"/><line class="f" x1="585.82" y1="364.14" x2="585.82" y2="261.22"/><line class="f" x1="585.82" y1="258.81" x2="585.82" y2="193.41"/><line class="f" x1="493.22" y1="222.66" x2="493.22" y2="193.41"/><line class="f" x1="490.81" y1="222.66" x2="490.81" y2="212.34"/><line class="f" x1="594.08" y1="364.14" x2="594.08" y2="218.53"/><line class="f" x1="594.08" y1="216.12" x2="594.08" y2="185.14"/><line class="f" x1="594.08" y1="216.12" x2="594.08" y2="216.12"/><line class="f" x1="401.31" y1="261.22" x2="401.31" y2="250.2"/><line class="f" x1="401.31" y1="219.22" x2="401.31" y2="214.06"/><line class="f" x1="490.81" y1="250.2" x2="490.81" y2="258.81"/><line class="f" x1="490.81" y1="258.81" x2="483.93" y2="258.81"/><line class="f" x1="452.95" y1="258.81" x2="403.72" y2="258.81"/><line class="f" x1="403.72" y1="258.81" x2="403.72" y2="250.2"/><line class="f" x1="403.72" y1="219.22" x2="403.72" y2="193.41"/><line class="f" x1="463.27" y1="212.34" x2="490.81" y2="212.34"/><line class="f" x1="385.82" y1="193.41" x2="385.82" y2="214.06"/><line class="f" x1="385.82" y1="214.06" x2="401.31" y2="214.06"/><line class="f" x1="493.22" y1="222.66" x2="490.81" y2="222.66"/><line class="f" x1="493.22" y1="250.2" x2="490.81" y2="250.2"/><line class="f" x1="452.95" y1="258.81" x2="452.95" y2="261.22"/><line class="f" x1="483.93" y1="258.81" x2="483.93" y2="261.22"/><line class="f" x1="461.55" y1="189.1" x2="461.55" y2="185.14"/><line class="f" x1="427.13" y1="189.1" x2="427.13" y2="185.14"/><line class="f" x1="461.55" y1="189.1" x2="463.27" y2="189.1"/><line class="f" x1="463.27" y1="189.1" x2="463.27" y2="193.41"/><line class="f" x1="427.13" y1="189.1" x2="425.41" y2="189.1"/><line class="f" x1="425.41" y1="189.1" x2="425.41" y2="193.41"/><line class="f" x1="452.95" y1="261.22" x2="418.52" y2="261.22"/><line class="f" x1="416.12" y1="261.22" x2="401.31" y2="261.22"/><line class="f" x1="403.72" y1="250.2" x2="401.31" y2="250.2"/><line class="f" x1="403.72" y1="219.22" x2="401.31" y2="219.22"/><line class="f" x1="466.72" y1="193.41" x2="463.27" y2="193.41"/><line class="f" x1="260.18" y1="259.5" x2="277.4" y2="259.5"/><line class="f" x1="277.4" y1="259.5" x2="277.4" y2="193.41"/><line class="f" x1="260.18" y1="257.09" x2="274.99" y2="257.09"/><line class="f" x1="274.99" y1="257.09" x2="274.99" y2="193.41"/><line class="f" x1="277.4" y1="364.14" x2="277.4" y2="287.03"/><line class="f" x1="274.99" y1="364.14" x2="274.99" y2="287.03"/><line class="f" x1="260.18" y1="257.09" x2="260.18" y2="259.5"/><line class="f" x1="229.2" y1="257.09" x2="229.2" y2="259.5"/><line class="f" x1="398.22" y1="367.58" x2="398.22" y2="335.91"/><g class="i"><path class="f" d="M366.55,367.58a31.67,31.67,0,0,1,31.67-31.67"/></g><line class="f" x1="452.6" y1="367.58" x2="452.6" y2="335.91"/><g class="i"><path class="f" d="M452.6,335.91a31.67,31.67,0,0,1,31.67,31.67"/></g><line class="f" x1="416.12" y1="364.14" x2="416.12" y2="261.22"/><line class="f" x1="585.82" y1="261.22" x2="483.93" y2="261.22"/><line class="f" x1="585.82" y1="258.81" x2="493.22" y2="258.81"/><line class="f" x1="493.22" y1="258.81" x2="493.22" y2="250.2"/><line class="f" x1="418.52" y1="261.22" x2="418.52" y2="364.14"/><line class="f" x1="401.31" y1="193.41" x2="389.27" y2="193.41"/><line class="f" x1="389.27" y1="193.41" x2="389.27" y2="210.62"/><line class="f" x1="389.27" y1="210.62" x2="401.31" y2="210.62"/><line class="f" x1="401.31" y1="210.62" x2="401.31" y2="193.41"/><line class="f" x1="585.82" y1="198.57" x2="493.22" y2="198.57"/><line class="f" x1="552.25" y1="257.95" x2="552.25" y2="254.51"/><line class="f" x1="552.25" y1="254.51" x2="531.6" y2="254.51"/><line class="f" x1="531.6" y1="254.51" x2="531.6" y2="257.95"/><line class="f" x1="531.6" y1="257.95" x2="532.63" y2="257.95"/><line class="f" x1="532.63" y1="257.95" x2="532.63" y2="255.54"/><line class="f" x1="532.63" y1="255.54" x2="551.22" y2="255.54"/><line class="f" x1="551.22" y1="255.54" x2="551.22" y2="257.95"/><line class="f" x1="551.22" y1="257.95" x2="552.25" y2="257.95"/><line class="f" x1="552.25" y1="257.95" x2="552.25" y2="254.51"/><line class="f" x1="531.6" y1="257.95" x2="531.6" y2="254.51"/><line class="f" x1="551.22" y1="257.95" x2="551.22" y2="255.54"/><line class="f" x1="532.63" y1="257.95" x2="532.63" y2="255.54"/><line class="f" x1="552.25" y1="254.51" x2="531.6" y2="254.51"/><line class="f" x1="552.25" y1="255.54" x2="531.6" y2="255.54"/><line class="f" x1="552.25" y1="257.95" x2="551.22" y2="257.95"/><line class="f" x1="532.63" y1="257.95" x2="531.6" y2="257.95"/><line class="f" x1="584.96" y1="199.43" x2="584.96" y2="257.95"/><line class="f" x1="584.96" y1="257.95" x2="559.14" y2="257.95"/><line class="f" x1="559.14" y1="257.95" x2="559.14" y2="199.43"/><line class="f" x1="561.2" y1="206.06" x2="561.28" y2="205.23"/><line class="f" x1="561.28" y1="205.23" x2="561.52" y2="204.44"/><line class="f" x1="561.52" y1="204.44" x2="561.9" y2="203.69"/><line class="f" x1="561.9" y1="203.69" x2="562.41" y2="203.01"/><line class="f" x1="562.41" y1="203.01" x2="563.05" y2="202.43"/><line class="f" x1="563.05" y1="202.43" x2="563.79" y2="201.96"/><line class="f" x1="563.79" y1="201.96" x2="564.6" y2="201.61"/><line class="f" x1="564.6" y1="201.61" x2="565.47" y2="201.39"/><line class="f" x1="565.47" y1="201.39" x2="566.37" y2="201.32"/><line class="f" x1="566.37" y1="201.32" x2="577.73" y2="201.32"/><line class="f" x1="577.73" y1="201.32" x2="578.63" y2="201.39"/><line class="f" x1="578.63" y1="201.39" x2="579.49" y2="201.61"/><line class="f" x1="579.49" y1="201.61" x2="580.31" y2="201.96"/><line class="f" x1="580.31" y1="201.96" x2="581.04" y2="202.43"/><line class="f" x1="581.04" y1="202.43" x2="581.68" y2="203.01"/><line class="f" x1="581.68" y1="203.01" x2="582.2" y2="203.69"/><line class="f" x1="582.2" y1="203.69" x2="582.58" y2="204.44"/><line class="f" x1="582.58" y1="204.44" x2="582.81" y2="205.23"/><line class="f" x1="582.81" y1="205.23" x2="582.89" y2="206.06"/><line class="f" x1="582.89" y1="206.06" x2="582.89" y2="246.11"/><line class="f" x1="582.89" y1="246.11" x2="582.73" y2="247.84"/><line class="f" x1="582.73" y1="247.84" x2="582.24" y2="249.51"/><line class="f" x1="582.24" y1="249.51" x2="581.44" y2="251.08"/><line class="f" x1="581.44" y1="251.08" x2="580.35" y2="252.5"/><line class="f" x1="580.35" y1="252.5" x2="579.02" y2="253.73"/><line class="f" x1="579.02" y1="253.73" x2="577.47" y2="254.72"/><line class="f" x1="577.47" y1="254.72" x2="575.76" y2="255.45"/><line class="f" x1="575.76" y1="255.45" x2="573.93" y2="255.9"/><line class="f" x1="573.93" y1="255.9" x2="572.05" y2="256.05"/><line class="f" x1="572.05" y1="256.05" x2="570.16" y2="255.9"/><line class="f" x1="570.16" y1="255.9" x2="568.34" y2="255.45"/><line class="f" x1="568.34" y1="255.45" x2="566.63" y2="254.72"/><line class="f" x1="566.63" y1="254.72" x2="565.08" y2="253.73"/><line class="f" x1="565.08" y1="253.73" x2="563.74" y2="252.5"/><line class="f" x1="563.74" y1="252.5" x2="562.66" y2="251.08"/><line class="f" x1="562.66" y1="251.08" x2="561.86" y2="249.51"/><line class="f" x1="561.86" y1="249.51" x2="561.37" y2="247.84"/><line class="f" x1="561.37" y1="247.84" x2="561.2" y2="246.11"/><line class="f" x1="561.2" y1="246.11" x2="561.2" y2="206.06"/><g class="i"><path class="f" d="M572.91,207.69a.86.86,0,0,0-1.72,0,.86.86,0,0,0,1.72,0"/></g><line class="f" x1="572.91" y1="200.45" x2="572.77" y2="201.89"/><g class="i"><path class="f" d="M572.77,201.89a.76.76,0,0,1-.11.33"/></g><line class="f" x1="572.66" y1="202.22" x2="572.66" y2="202.22"/><line class="f" x1="572.66" y1="202.22" x2="572.43" y2="204.04"/><g class="i"><path class="f" d="M572.43,204a.38.38,0,0,1-.38.34.37.37,0,0,1-.38-.34"/></g><line class="f" x1="571.67" y1="204.04" x2="571.67" y2="204.04"/><line class="f" x1="571.67" y1="204.04" x2="571.44" y2="202.22"/><g class="i"><path class="f" d="M571.44,202.22a.77.77,0,0,1-.12-.33"/></g><line class="f" x1="571.32" y1="201.89" x2="571.33" y2="201.89"/><line class="f" x1="571.32" y1="201.89" x2="571.19" y2="200.45"/><g class="i"><path class="f" d="M571.19,200.45a.86.86,0,0,1,1.72,0"/></g><line class="f" x1="572.91" y1="200.45" x2="572.91" y2="200.45"/><line class="f" x1="571.58" y1="201.31" x2="571.58" y2="201.82"/><line class="f" x1="572.52" y1="201.82" x2="572.52" y2="201.31"/><line class="f" x1="572.52" y1="201.31" x2="571.58" y2="201.31"/><g class="i"><path class="f" d="M572.52,201.82a.47.47,0,1,1-.94,0"/><path class="f" d="M572.66,202.22a.73.73,0,0,1-1.22,0"/></g><line class="f" x1="364.83" y1="214.4" x2="364.83" y2="193.75"/><line class="f" x1="372.72" y1="201.64" x2="377.59" y2="206.51"/><line class="f" x1="377.59" y1="201.64" x2="372.72" y2="206.51"/><line class="f" x1="375.15" y1="207.52" x2="375.15" y2="200.64"/><line class="f" x1="371.71" y1="204.08" x2="378.59" y2="204.08"/><line class="f" x1="364.83" y1="214.4" x2="385.48" y2="214.4"/><line class="f" x1="205.11" y1="259.5" x2="229.21" y2="259.5"/><line class="f" x1="205.11" y1="257.09" x2="229.21" y2="257.09"/><line class="f" x1="274.99" y1="287.03" x2="277.39" y2="287.03"/><line class="f" x1="344" y1="212.68" x2="362.93" y2="212.68"/><line class="f" x1="362.93" y1="212.68" x2="362.93" y2="195.47"/><line class="f" x1="362.93" y1="195.47" x2="344" y2="195.47"/><line class="f" x1="344" y1="195.47" x2="344" y2="212.68"/><line class="f" x1="343.14" y1="214.4" x2="363.79" y2="214.4"/><line class="f" x1="345.72" y1="210.96" x2="361.21" y2="210.96"/><line class="f" x1="361.21" y1="210.96" x2="361.21" y2="198.91"/><line class="f" x1="361.21" y1="198.91" x2="345.72" y2="198.91"/><line class="f" x1="345.72" y1="198.91" x2="345.72" y2="210.96"/><g class="i"><path class="f" d="M354.16,202.36a.69.69,0,1,0-1.38,0,.69.69,0,0,0,1.38,0"/></g><line class="f" x1="322.49" y1="193.75" x2="322.49" y2="214.4"/><line class="f" x1="322.49" y1="214.4" x2="343.14" y2="214.4"/><line class="f" x1="343.14" y1="214.4" x2="343.14" y2="193.75"/><g class="i"><path class="f" d="M286.38,242.71a3.38,3.38,0,1,0-3.38,3.38,3.38,3.38,0,0,0,3.38-3.38"/></g><line class="f" x1="277.74" y1="247.97" x2="298.39" y2="247.97"/><line class="f" x1="298.39" y1="247.97" x2="298.39" y2="227.31"/><line class="f" x1="298.39" y1="227.31" x2="277.74" y2="227.31"/><g class="i"><path class="f" d="M296.52,242.71a3.38,3.38,0,1,0-3.38,3.38,3.38,3.38,0,0,0,3.38-3.38"/><path class="f" d="M296.52,232.57a3.38,3.38,0,1,0-3.38,3.38,3.38,3.38,0,0,0,3.38-3.38"/></g><line class="f" x1="299.33" y1="230.13" x2="299.33" y2="245.15"/><line class="f" x1="322.49" y1="214.4" x2="322.49" y2="193.41"/><line class="f" x1="322.49" y1="193.41" x2="301.84" y2="193.41"/><line class="f" x1="301.84" y1="193.41" x2="301.84" y2="214.4"/><line class="f" x1="301.84" y1="214.4" x2="322.49" y2="214.4"/><g class="i"><path class="f" d="M318.19,204.08a6,6,0,1,0-6,6,6,6,0,0,0,6-6"/><path class="f" d="M317.15,204.08a5,5,0,1,0-5,5,5,5,0,0,0,5-5"/></g><line class="f" x1="385.82" y1="214.4" x2="385.82" y2="193.41"/><line class="f" x1="385.82" y1="193.41" x2="277.39" y2="193.41"/><line class="f" x1="277.4" y1="193.41" x2="277.4" y2="259.84"/><line class="f" x1="277.4" y1="259.84" x2="298.39" y2="259.84"/><line class="f" x1="298.39" y1="259.84" x2="298.39" y2="214.4"/><line class="f" x1="298.39" y1="214.4" x2="382.04" y2="214.4"/><line class="f" x1="463.27" y1="193.41" x2="463.27" y2="212.34"/><line class="f" x1="466.72" y1="193.41" x2="466.72" y2="208.9"/><line class="f" x1="466.72" y1="208.9" x2="490.81" y2="208.9"/><line class="f" x1="490.81" y1="208.9" x2="490.81" y2="193.41"/><line class="f" x1="490.81" y1="193.41" x2="466.72" y2="193.41"/><line class="f" x1="196.5" y1="236.78" x2="196.5" y2="236.78"/><line class="f" x1="196.5" y1="340.04" x2="196.5" y2="340.04"/><line class="f" x1="454.67" y1="261.22" x2="482.21" y2="261.22"/><line class="f" x1="454.67" y1="261.22" x2="454.67" y2="288.75"/><g class="i"><path class="f" d="M482.21,261.22a27.53,27.53,0,0,1-27.54,27.53"/></g><line class="f" x1="454.67" y1="258.81" x2="454.67" y2="261.22"/><line class="f" x1="482.21" y1="261.22" x2="482.21" y2="258.81"/><line class="f" x1="482.21" y1="261.22" x2="483.93" y2="261.22"/><line class="f" x1="482.21" y1="258.81" x2="483.93" y2="258.81"/><line class="f" x1="452.95" y1="261.22" x2="454.67" y2="261.22"/><line class="f" x1="452.95" y1="258.81" x2="454.67" y2="258.81"/><line class="f" x1="454.67" y1="258.81" x2="461.55" y2="258.81"/><line class="f" x1="465.34" y1="258.81" x2="466.11" y2="258.81"/><line class="f" x1="469.9" y1="258.81" x2="470.67" y2="258.81"/><line class="f" x1="474.46" y1="258.81" x2="475.32" y2="258.81"/><line class="f" x1="475.32" y1="258.81" x2="482.21" y2="258.81"/><line class="f" x1="454.67" y1="261.22" x2="454.67" y2="262.08"/><line class="f" x1="454.67" y1="262.08" x2="451.23" y2="262.08"/><line class="f" x1="451.23" y1="262.08" x2="451.23" y2="261.22"/><line class="f" x1="454.67" y1="258.81" x2="454.67" y2="257.95"/><line class="f" x1="454.67" y1="257.95" x2="451.23" y2="257.95"/><line class="f" x1="451.23" y1="257.95" x2="451.23" y2="258.81"/><line class="f" x1="482.21" y1="262.08" x2="485.65" y2="262.08"/><line class="f" x1="485.65" y1="262.08" x2="485.65" y2="261.22"/><line class="f" x1="482.21" y1="258.81" x2="482.21" y2="257.95"/><line class="f" x1="482.21" y1="257.95" x2="485.65" y2="257.95"/><line class="f" x1="485.65" y1="257.95" x2="485.65" y2="258.81"/><line class="f" x1="490.81" y1="224.39" x2="490.81" y2="248.48"/><line class="f" x1="490.81" y1="224.39" x2="466.72" y2="224.39"/><g class="i"><path class="f" d="M490.81,248.48a24.09,24.09,0,0,1-24.09-24.09"/></g><line class="f" x1="493.22" y1="224.39" x2="490.81" y2="224.39"/><line class="f" x1="490.81" y1="248.48" x2="493.22" y2="248.48"/><line class="f" x1="490.81" y1="248.48" x2="490.81" y2="250.2"/><line class="f" x1="493.22" y1="248.48" x2="493.22" y2="250.2"/><line class="f" x1="490.81" y1="222.66" x2="490.81" y2="224.39"/><line class="f" x1="493.22" y1="222.66" x2="493.22" y2="224.39"/><line class="f" x1="493.22" y1="224.39" x2="493.22" y2="231.27"/><line class="f" x1="493.22" y1="235.06" x2="493.22" y2="235.83"/><line class="f" x1="493.22" y1="239.62" x2="493.22" y2="240.39"/><line class="f" x1="493.22" y1="241.6" x2="493.22" y2="248.48"/><line class="f" x1="490.81" y1="224.39" x2="489.95" y2="224.39"/><line class="f" x1="489.95" y1="224.39" x2="489.95" y2="220.94"/><line class="f" x1="489.95" y1="220.94" x2="490.81" y2="220.94"/><line class="f" x1="493.22" y1="224.39" x2="494.08" y2="224.39"/><line class="f" x1="494.08" y1="224.39" x2="494.08" y2="220.94"/><line class="f" x1="494.08" y1="220.94" x2="493.22" y2="220.94"/><line class="f" x1="489.95" y1="248.48" x2="489.95" y2="251.92"/><line class="f" x1="489.95" y1="251.92" x2="490.81" y2="251.92"/><line class="f" x1="493.22" y1="248.48" x2="494.08" y2="248.48"/><line class="f" x1="494.08" y1="248.48" x2="494.08" y2="251.92"/><line class="f" x1="494.08" y1="251.92" x2="493.22" y2="251.92"/><line class="f" x1="401.31" y1="220.94" x2="401.31" y2="248.48"/><line class="f" x1="401.31" y1="220.94" x2="373.78" y2="220.94"/><g class="i"><path class="f" d="M401.31,248.48a27.54,27.54,0,0,1-27.53-27.54"/></g><line class="f" x1="403.72" y1="220.94" x2="401.31" y2="220.94"/><line class="f" x1="401.31" y1="248.48" x2="403.72" y2="248.48"/><line class="f" x1="401.31" y1="248.48" x2="401.31" y2="250.2"/><line class="f" x1="403.72" y1="248.48" x2="403.72" y2="250.2"/><line class="f" x1="401.31" y1="219.22" x2="401.31" y2="220.94"/><line class="f" x1="403.72" y1="219.22" x2="403.72" y2="220.94"/><line class="f" x1="403.72" y1="220.94" x2="403.72" y2="227.83"/><line class="f" x1="403.72" y1="231.61" x2="403.72" y2="232.39"/><line class="f" x1="403.72" y1="236.18" x2="403.72" y2="236.95"/><line class="f" x1="403.72" y1="240.74" x2="403.72" y2="241.6"/><line class="f" x1="403.72" y1="241.6" x2="403.72" y2="248.48"/><line class="f" x1="401.31" y1="220.94" x2="400.45" y2="220.94"/><line class="f" x1="400.45" y1="220.94" x2="400.45" y2="217.5"/><line class="f" x1="400.45" y1="217.5" x2="401.31" y2="217.5"/><line class="f" x1="403.72" y1="220.94" x2="404.58" y2="220.94"/><line class="f" x1="404.58" y1="220.94" x2="404.58" y2="217.5"/><line class="f" x1="404.58" y1="217.5" x2="403.72" y2="217.5"/><line class="f" x1="400.45" y1="248.48" x2="400.45" y2="251.92"/><line class="f" x1="400.45" y1="251.92" x2="401.31" y2="251.92"/><line class="f" x1="403.72" y1="248.48" x2="404.58" y2="248.48"/><line class="f" x1="404.58" y1="248.48" x2="404.58" y2="251.92"/><line class="f" x1="404.58" y1="251.92" x2="403.72" y2="251.92"/><line class="f" x1="459.83" y1="189.1" x2="428.85" y2="189.1"/><line class="f" x1="459.83" y1="185.14" x2="428.85" y2="185.14"/><line class="f" x1="459.83" y1="189.1" x2="459.83" y2="220.08"/><g class="i"><path class="f" d="M459.83,220.08a31,31,0,0,1-31-31"/></g><line class="f" x1="459.83" y1="185.14" x2="459.83" y2="189.1"/><line class="f" x1="428.85" y1="189.1" x2="428.85" y2="185.14"/><line class="f" x1="428.85" y1="189.1" x2="427.13" y2="189.1"/><line class="f" x1="428.85" y1="185.14" x2="427.13" y2="185.14"/><line class="f" x1="461.55" y1="189.1" x2="459.83" y2="189.1"/><line class="f" x1="461.55" y1="185.14" x2="459.83" y2="185.14"/><line class="f" x1="303.21" y1="362.42" x2="358.29" y2="362.42"/><line class="f" x1="358.29" y1="362.42" x2="358.29" y2="358.98"/><line class="f" x1="358.29" y1="358.98" x2="303.21" y2="358.98"/><line class="f" x1="303.21" y1="358.98" x2="303.21" y2="362.42"/><line class="f" x1="231.4" y1="362.42" x2="258.93" y2="362.42"/><line class="f" x1="258.93" y1="362.42" x2="258.93" y2="360.15"/><line class="f" x1="258.93" y1="360.15" x2="231.4" y2="360.15"/><line class="f" x1="231.4" y1="360.15" x2="231.4" y2="362.42"/><line class="f" x1="509.74" y1="362.42" x2="537.28" y2="362.42"/><line class="f" x1="537.28" y1="362.42" x2="537.28" y2="360.25"/><line class="f" x1="537.28" y1="360.25" x2="509.74" y2="360.25"/><line class="f" x1="509.74" y1="360.25" x2="509.74" y2="362.42"/><g class="i"><path class="f" d="M229.67,361.28A1.72,1.72,0,1,0,228,363a1.72,1.72,0,0,0,1.72-1.72"/><path class="f" d="M301.49,360.7a1.72,1.72,0,1,0-1.72,1.72,1.73,1.73,0,0,0,1.72-1.72"/><path class="f" d="M508,361.33a1.72,1.72,0,1,0-1.72,1.72,1.72,1.72,0,0,0,1.72-1.72"/></g><line class="f" x1="483.93" y1="377.91" x2="477.04" y2="377.91"/><line class="f" x1="473.26" y1="377.91" x2="472.48" y2="377.91"/><line class="f" x1="468.7" y1="377.91" x2="467.92" y2="377.91"/><line class="f" x1="464.13" y1="377.91" x2="459.83" y2="377.91"/><line class="f" x1="459.83" y1="377.91" x2="452.95" y2="377.91"/><line class="f" x1="397.87" y1="377.91" x2="390.99" y2="377.91"/><line class="f" x1="387.2" y1="377.91" x2="386.43" y2="377.91"/><line class="f" x1="382.64" y1="377.91" x2="381.86" y2="377.91"/><line class="f" x1="378.08" y1="377.91" x2="373.78" y2="377.91"/><line class="f" x1="373.78" y1="377.91" x2="366.89" y2="377.91"/><line class="f" x1="389.27" y1="210.62" x2="397.56" y2="207.16"/><line class="f" x1="397.56" y1="207.16" x2="401.32" y2="193.41"/><line class="f" x1="401.31" y1="193.41" x2="401.31" y2="210.62"/><line class="f" x1="401.31" y1="210.62" x2="389.27" y2="210.62"/><line class="f" x1="466.72" y1="208.9" x2="486.39" y2="205.55"/><line class="f" x1="486.38" y1="205.56" x2="490.81" y2="193.41"/><line class="f" x1="490.81" y1="193.41" x2="490.81" y2="208.9"/><line class="f" x1="490.81" y1="208.9" x2="466.72" y2="208.9"/><rect class="d" x="313.54" y="298.39" width="17.21" height="27.54"/><line class="f" x1="313.54" y1="325.93" x2="330.75" y2="325.93"/><line class="f" x1="313.54" y1="298.39" x2="313.54" y2="325.93"/><line class="f" x1="330.75" y1="298.39" x2="313.54" y2="298.39"/><line class="f" x1="330.75" y1="325.93" x2="330.75" y2="298.39"/><rect class="d" x="493.22" y="193.41" width="92.6" height="5.16"/><line class="f" x1="585.82" y1="198.57" x2="493.22" y2="198.57"/><line class="f" x1="493.22" y1="198.57" x2="493.22" y2="193.41"/><line class="f" x1="493.22" y1="193.41" x2="585.82" y2="193.41"/><line class="f" x1="585.82" y1="193.41" x2="585.82" y2="198.57"/><rect class="d" x="205.11" y="193.41" width="20.65" height="20.65"/><line class="f" x1="205.11" y1="214.06" x2="225.76" y2="214.06"/><line class="f" x1="205.11" y1="193.41" x2="205.11" y2="214.06"/><line class="f" x1="225.76" y1="193.41" x2="205.11" y2="193.41"/><line class="f" x1="225.76" y1="214.06" x2="225.76" y2="193.41"/><rect class="d" x="400.97" y="261.22" width="15.15" height="102.92"/><line class="f" x1="416.12" y1="364.14" x2="400.97" y2="364.14"/><line class="f" x1="400.97" y1="364.14" x2="400.97" y2="261.22"/><line class="f" x1="400.97" y1="261.22" x2="416.12" y2="261.22"/><line class="f" x1="416.12" y1="261.22" x2="416.12" y2="364.14"/><rect class="d" x="551.22" y="255.54" width="1.03" height="2.41"/><line class="f" x1="551.22" y1="255.54" x2="551.22" y2="257.95"/><line class="f" x1="552.25" y1="255.54" x2="551.22" y2="255.54"/><line class="f" x1="552.25" y1="257.95" x2="552.25" y2="255.54"/><line class="f" x1="551.22" y1="257.95" x2="552.25" y2="257.95"/><rect class="d" x="531.6" y="254.5" width="20.65" height="1.03"/><line class="f" x1="552.25" y1="254.51" x2="531.6" y2="254.51"/><line class="f" x1="552.25" y1="255.54" x2="552.25" y2="254.51"/><line class="f" x1="531.6" y1="255.54" x2="552.25" y2="255.54"/><line class="f" x1="531.6" y1="254.51" x2="531.6" y2="255.54"/><rect class="d" x="531.6" y="255.54" width="1.03" height="2.41"/><line class="f" x1="531.6" y1="255.54" x2="531.6" y2="257.95"/><line class="f" x1="532.63" y1="255.54" x2="531.6" y2="255.54"/><line class="f" x1="532.63" y1="257.95" x2="532.63" y2="255.54"/><line class="f" x1="531.6" y1="257.95" x2="532.63" y2="257.95"/><rect class="d" x="403.72" y="253.3" width="46.13" height="5.51"/><line class="f" x1="449.85" y1="258.81" x2="403.72" y2="258.81"/><line class="f" x1="403.72" y1="258.81" x2="403.72" y2="253.3"/><line class="f" x1="403.72" y1="253.3" x2="449.85" y2="253.3"/><line class="f" x1="449.85" y1="253.3" x2="449.85" y2="258.81"/><polygon class="g" points="229.68 361.28 229.17 362.5 227.95 363 226.74 362.5 226.23 361.28 226.74 360.07 227.95 359.56 229.17 360.07 229.68 361.28"/><g class="i"><path class="f" d="M229.67,361.28a1.72,1.72,0,0,1-3.44,0"/><path class="f" d="M226.23,361.28a1.73,1.73,0,0,1,3.45,0"/></g><rect class="d" x="231.4" y="360.15" width="27.54" height="2.27"/><line class="f" x1="231.4" y1="362.42" x2="258.93" y2="362.42"/><line class="f" x1="231.4" y1="360.15" x2="231.4" y2="362.42"/><line class="f" x1="258.93" y1="360.15" x2="231.4" y2="360.15"/><line class="f" x1="258.93" y1="362.42" x2="258.93" y2="360.15"/><polygon class="g" points="301.49 360.7 300.99 361.91 299.77 362.42 298.55 361.91 298.05 360.7 298.55 359.48 299.77 358.98 300.99 359.48 301.49 360.7"/><g class="i"><path class="f" d="M301.49,360.7a1.72,1.72,0,0,1-3.44,0"/><path class="f" d="M298.05,360.7a1.72,1.72,0,1,1,3.44,0"/></g><rect class="d" x="303.21" y="358.97" width="55.08" height="3.44"/><line class="f" x1="358.29" y1="358.98" x2="303.21" y2="358.98"/><line class="f" x1="358.29" y1="362.42" x2="358.29" y2="358.98"/><line class="f" x1="303.21" y1="362.42" x2="358.29" y2="362.42"/><line class="f" x1="303.21" y1="358.98" x2="303.21" y2="362.42"/><polygon class="g" points="504.58 361.33 505.09 360.12 506.3 359.61 507.52 360.12 508.02 361.33 507.52 362.55 506.3 363.05 505.09 362.55 504.58 361.33"/><g class="i"><path class="f" d="M504.58,361.33a1.72,1.72,0,1,1,3.44,0"/><path class="f" d="M508,361.33a1.72,1.72,0,1,1-3.44,0"/></g><rect class="d" x="509.74" y="360.25" width="27.54" height="2.17"/><line class="f" x1="537.28" y1="360.25" x2="509.74" y2="360.25"/><line class="f" x1="537.28" y1="362.42" x2="537.28" y2="360.25"/><line class="f" x1="509.74" y1="362.42" x2="537.28" y2="362.42"/><line class="f" x1="509.74" y1="360.25" x2="509.74" y2="362.42"/><polygon class="g" points="585.82 282.1 523.86 282.1 521.22 282.62 518.99 284.11 517.5 286.34 516.97 288.98 516.97 337.17 517.5 339.81 518.99 342.04 521.22 343.53 523.86 344.06 575.49 344.06 585.82 344.06 585.82 282.1"/><rect class="d" x="575.49" y="270.05" width="10.33" height="12.05"/><rect class="d" x="575.49" y="344.06" width="10.33" height="12.05"/><line class="f" x1="574.37" y1="315.02" x2="577.35" y2="315.85"/><line class="f" x1="574.37" y1="286.12" x2="577.35" y2="286.95"/><line class="f" x1="516.97" y1="337.17" x2="516.97" y2="288.98"/><line class="f" x1="523.86" y1="282.1" x2="585.82" y2="282.1"/><line class="f" x1="585.82" y1="282.1" x2="585.82" y2="344.06"/><line class="f" x1="585.82" y1="344.06" x2="523.86" y2="344.06"/><line class="f" x1="585.82" y1="282.1" x2="585.82" y2="270.05"/><line class="f" x1="585.82" y1="270.05" x2="575.49" y2="270.05"/><line class="f" x1="575.49" y1="270.05" x2="575.49" y2="282.1"/><line class="f" x1="575.49" y1="282.1" x2="585.82" y2="282.1"/><line class="f" x1="585.82" y1="356.1" x2="585.82" y2="344.06"/><line class="f" x1="585.82" y1="344.06" x2="575.49" y2="344.06"/><line class="f" x1="575.49" y1="344.06" x2="575.49" y2="356.1"/><line class="f" x1="575.49" y1="356.1" x2="585.82" y2="356.1"/><line class="f" x1="562.91" y1="282.1" x2="562.91" y2="344.06"/><line class="f" x1="557.75" y1="282.1" x2="557.75" y2="344.06"/><g class="i"><path class="f" d="M568.47,288a97.26,97.26,0,0,1-.34,22.43"/><path class="f" d="M568.47,288a1.72,1.72,0,0,1,0-.39,1.85,1.85,0,0,1,1.84-1.85h.1"/><path class="f" d="M570.37,285.79l.81,0a14.85,14.85,0,0,1,3.19.35"/><path class="f" d="M574.37,286.12c1.73-.17,3.46-.25,5.19-.25.84,0,1.67,0,2.5.05"/><path class="f" d="M582.06,285.92h.11a.38.38,0,0,1,.39.39.22.22,0,0,1,0,.08"/><path class="f" d="M582.21,310.53c-.15-3.11-.22-6.23-.22-9.34q0-7.43.56-14.81"/><path class="f" d="M582.21,310.53a.76.76,0,0,1,0,.21,1,1,0,0,1-1,1,.85.85,0,0,1-.31-.06"/><path class="f" d="M569.11,311.47a45.89,45.89,0,0,1,5.24-.3,47.21,47.21,0,0,1,6.62.47"/><path class="f" d="M569.11,311.47l-.22,0a.8.8,0,0,1-.8-.8,1,1,0,0,1,0-.24"/><path class="f" d="M517,289a6.89,6.89,0,0,1,6.89-6.88"/><path class="f" d="M523.86,344.06a6.9,6.9,0,0,1-6.89-6.89"/><path class="f" d="M568.47,316.93a97.35,97.35,0,0,1-.34,22.44"/><path class="f" d="M568.47,316.93a1.72,1.72,0,0,1,0-.39,1.85,1.85,0,0,1,1.84-1.85h.1"/><path class="f" d="M570.37,314.7l.81,0a14.25,14.25,0,0,1,3.19.36"/><path class="f" d="M574.37,315c1.73-.16,3.46-.25,5.19-.25.84,0,1.67,0,2.5.06"/><path class="f" d="M582.06,314.83l.11,0a.39.39,0,0,1,.39.39.19.19,0,0,1,0,.08"/><path class="f" d="M582.21,339.44c-.15-3.12-.22-6.23-.22-9.35q0-7.41.56-14.81"/><path class="f" d="M582.21,339.44a.69.69,0,0,1,0,.2,1,1,0,0,1-1,1,1.12,1.12,0,0,1-.31-.05"/><path class="f" d="M569.11,340.37a45.9,45.9,0,0,1,11.86.18"/><path class="f" d="M569.11,340.37l-.22,0a.8.8,0,0,1-.8-.8,1.09,1.09,0,0,1,0-.24"/></g><polygon class="g" points="406.97 321.55 405.59 319.85 404.85 317.72 404.85 315.44 405.59 313.31 406.97 311.61 406.97 300.88 408.88 300.88 410.79 308.73 410.79 311.02 411.83 314.67 411.83 318.49 410.79 322.14 410.79 324.43 408.88 332.28 406.97 332.28 406.97 321.55"/><line class="f" x1="406.97" y1="321.55" x2="405.59" y2="319.85"/><line class="f" x1="405.59" y1="319.85" x2="404.85" y2="317.72"/><line class="f" x1="404.85" y1="317.72" x2="404.85" y2="315.44"/><line class="f" x1="404.85" y1="315.44" x2="405.59" y2="313.31"/><line class="f" x1="405.59" y1="313.31" x2="406.97" y2="311.61"/><line class="f" x1="406.97" y1="311.61" x2="406.97" y2="300.88"/><line class="f" x1="406.97" y1="300.88" x2="408.88" y2="300.88"/><line class="f" x1="408.88" y1="300.88" x2="410.79" y2="308.73"/><line class="f" x1="410.79" y1="308.73" x2="410.79" y2="311.02"/><line class="f" x1="410.79" y1="311.02" x2="411.83" y2="314.67"/><line class="f" x1="411.83" y1="314.67" x2="411.83" y2="318.49"/><line class="f" x1="411.83" y1="318.49" x2="410.79" y2="322.14"/><line class="f" x1="410.79" y1="322.14" x2="410.79" y2="324.43"/><line class="f" x1="410.79" y1="324.43" x2="408.88" y2="332.28"/><line class="f" x1="408.88" y1="332.28" x2="406.97" y2="332.28"/><line class="f" x1="406.97" y1="332.28" x2="406.97" y2="321.55"/><line class="f" x1="406.97" y1="332.28" x2="406.97" y2="300.88"/><line class="f" x1="410.79" y1="308.73" x2="410.79" y2="324.43"/><line class="f" x1="408.88" y1="332.28" x2="406.97" y2="332.28"/><line class="f" x1="407.73" y1="302.98" x2="407.73" y2="305.07"/><line class="f" x1="407.73" y1="305.07" x2="408.21" y2="305.07"/><line class="f" x1="408.21" y1="305.07" x2="408.21" y2="302.98"/><line class="f" x1="408.21" y1="302.98" x2="407.73" y2="302.98"/><line class="f" x1="407.73" y1="305.59" x2="407.73" y2="307.69"/><line class="f" x1="407.73" y1="307.69" x2="408.21" y2="307.69"/><line class="f" x1="408.21" y1="307.69" x2="408.21" y2="305.59"/><line class="f" x1="408.21" y1="305.59" x2="407.73" y2="305.59"/><line class="f" x1="408.88" y1="332.28" x2="408.88" y2="300.88"/><line class="f" x1="408.21" y1="308.21" x2="407.73" y2="308.21"/><line class="f" x1="407.73" y1="308.21" x2="407.73" y2="309.26"/><line class="f" x1="407.73" y1="309.25" x2="408.21" y2="309.25"/><line class="f" x1="408.21" y1="309.25" x2="408.21" y2="308.21"/><g class="i"><path class="f" d="M407,321.55a6.69,6.69,0,0,1,0-9.94"/></g><polygon class="g" points="307 330.63 307.5 330.27 307.69 329.7 307.69 293.97 307.5 293.38 307 292.98 307.49 292.79 307.69 292.33 307.69 291.35 307.23 289.71 305.96 288.5 304.25 288.06 279.12 288.06 278.63 288.26 278.43 288.72 278.43 356.25 278.63 356.72 279.12 356.91 307 356.91 307.45 356.76 307.72 356.38 307.69 355.93 307.69 331.67 307.63 330.98 307 330.63"/><polygon class="g" points="330.06 330.68 332.7 331.18 334.93 332.6 336.42 334.73 336.94 337.24 336.94 350.35 336.42 352.86 334.93 354.99 332.7 356.41 330.06 356.91 308.72 356.91 307.99 356.62 307.69 355.93 307.69 331.67 307.99 330.97 308.72 330.68 330.06 330.68"/><line class="f" x1="330.06" y1="330.68" x2="332.7" y2="331.18"/><line class="f" x1="332.7" y1="331.18" x2="334.93" y2="332.6"/><line class="f" x1="334.93" y1="332.6" x2="336.42" y2="334.73"/><line class="f" x1="336.42" y1="334.73" x2="336.94" y2="337.24"/><line class="f" x1="336.94" y1="337.24" x2="336.94" y2="350.36"/><line class="f" x1="336.94" y1="350.35" x2="336.42" y2="352.86"/><line class="f" x1="336.42" y1="352.86" x2="334.93" y2="354.99"/><line class="f" x1="334.93" y1="354.99" x2="332.7" y2="356.41"/><line class="f" x1="332.7" y1="356.41" x2="330.06" y2="356.91"/><line class="f" x1="330.06" y1="356.91" x2="308.72" y2="356.91"/><line class="f" x1="308.72" y1="356.91" x2="307.99" y2="356.62"/><line class="f" x1="307.99" y1="356.62" x2="307.69" y2="355.93"/><line class="f" x1="307.69" y1="355.93" x2="307.69" y2="331.67"/><line class="f" x1="307.69" y1="331.67" x2="307.99" y2="330.97"/><line class="f" x1="307.99" y1="330.97" x2="308.72" y2="330.68"/><line class="f" x1="308.72" y1="330.68" x2="330.06" y2="330.68"/><line class="f" x1="307.69" y1="292.33" x2="307.69" y2="291.35"/><line class="f" x1="304.24" y1="288.06" x2="279.12" y2="288.06"/><line class="f" x1="278.43" y1="288.72" x2="278.43" y2="292.33"/><line class="f" x1="279.12" y1="292.98" x2="307" y2="292.98"/><line class="f" x1="278.43" y1="292.33" x2="278.43" y2="330.68"/><line class="f" x1="278.43" y1="330.68" x2="280.84" y2="330.68"/><line class="f" x1="307.69" y1="329.7" x2="307.69" y2="293.97"/><line class="f" x1="306.65" y1="292.98" x2="289.4" y2="292.98"/><line class="f" x1="289.4" y1="330.68" x2="306.65" y2="330.68"/><line class="f" x1="280.84" y1="292.98" x2="287.33" y2="292.98"/><line class="f" x1="287.33" y1="330.68" x2="280.84" y2="330.68"/><line class="f" x1="307.69" y1="352.65" x2="307.69" y2="356.26"/><line class="f" x1="307" y1="356.91" x2="279.12" y2="356.91"/><line class="f" x1="278.43" y1="356.25" x2="278.43" y2="352.65"/><line class="f" x1="278.43" y1="352.65" x2="278.43" y2="330.68"/><line class="f" x1="278.43" y1="330.68" x2="280.84" y2="330.68"/><line class="f" x1="307.69" y1="331.67" x2="307.69" y2="351.01"/><line class="f" x1="289.4" y1="330.68" x2="306.65" y2="330.68"/><line class="f" x1="289.4" y1="330.68" x2="280.84" y2="330.68"/><line class="f" x1="336.94" y1="337.24" x2="336.94" y2="350.36"/><line class="f" x1="330.06" y1="356.91" x2="308.72" y2="356.91"/><line class="f" x1="307.69" y1="355.93" x2="307.69" y2="331.67"/><line class="f" x1="308.72" y1="330.68" x2="330.06" y2="330.68"/><line class="f" x1="279.8" y1="331.67" x2="279.8" y2="355.93"/><line class="f" x1="279.8" y1="329.7" x2="279.8" y2="293.97"/><g class="i"><path class="f" d="M278.43,288.72a.66.66,0,0,1,.69-.65"/><path class="f" d="M279.12,293a.67.67,0,0,1-.69-.65"/><path class="f" d="M307.69,292.33a.67.67,0,0,1-.69.65"/><path class="f" d="M306.65,293a1,1,0,0,1,1,1"/><path class="f" d="M307.69,329.7a1,1,0,0,1-1,1"/><path class="f" d="M307.69,356.26a.67.67,0,0,1-.69.65"/><path class="f" d="M279.12,356.91a.67.67,0,0,1-.69-.65"/><path class="f" d="M306.65,330.68a1,1,0,0,1,1,1"/><path class="f" d="M308.72,356.91a1,1,0,0,1-1-1"/><path class="f" d="M307.69,331.67a1,1,0,0,1,1-1"/></g><line class="f" x1="279.8" y1="355.93" x2="303.25" y2="355.93"/><g class="i"><path class="f" d="M298.52,354.74c-9-1.84-15.41-9.41-15.41-18.16a17.62,17.62,0,0,1,.7-4.95"/><path class="f" d="M284.63,294a107.14,107.14,0,0,1,0,35.73"/><path class="f" d="M330.06,330.68a6.73,6.73,0,0,1,6.88,6.56"/><path class="f" d="M336.94,350.35a6.73,6.73,0,0,1-6.88,6.56"/><path class="f" d="M304.24,288.07a3.36,3.36,0,0,1,3.44,3.28"/></g><polygon class="g" points="341.01 243.89 334.33 240.05 332.61 239.59 330.88 240.05 329.62 241.31 326.17 247.26 325.7 248.98 326.17 250.69 327.43 251.95 334.11 255.8 334.58 252.24 335.96 248.92 338.15 246.07 341.01 243.89"/><polygon class="g" points="361.7 255.8 368.38 251.95 369.65 250.69 370.11 248.98 369.65 247.26 366.2 241.3 364.93 240.05 363.21 239.59 361.48 240.05 354.81 243.89 357.66 246.07 359.86 248.92 361.23 252.24 361.7 255.8"/><polygon class="g" points="341.01 267.7 341.01 275.39 341.47 277.11 342.73 278.37 344.46 278.83 351.36 278.83 353.08 278.37 354.34 277.11 354.81 275.39 354.81 267.7 351.48 269.08 347.91 269.55 344.33 269.08 341.01 267.7"/><polygon class="g" points="334.11 255.8 334.58 252.24 335.96 248.92 338.15 246.07 341.01 243.89 344.33 242.51 347.9 242.05 351.48 242.51 354.81 243.89 357.66 246.07 359.86 248.92 361.23 252.24 361.7 255.8 361.23 259.36 359.86 262.67 357.66 265.52 354.81 267.7 351.48 269.08 347.9 269.55 344.33 269.08 341.01 267.7 338.15 265.52 335.96 262.67 334.58 259.36 334.11 255.8"/><line class="f" x1="334.11" y1="255.8" x2="334.58" y2="252.24"/><line class="f" x1="334.58" y1="252.24" x2="335.96" y2="248.92"/><line class="f" x1="335.96" y1="248.92" x2="338.15" y2="246.07"/><line class="f" x1="338.15" y1="246.07" x2="341.01" y2="243.89"/><line class="f" x1="341.01" y1="243.89" x2="344.33" y2="242.52"/><line class="f" x1="344.33" y1="242.52" x2="347.9" y2="242.05"/><line class="f" x1="347.91" y1="242.05" x2="351.48" y2="242.52"/><line class="f" x1="351.48" y1="242.52" x2="354.81" y2="243.89"/><line class="f" x1="354.81" y1="243.89" x2="357.66" y2="246.07"/><line class="f" x1="357.66" y1="246.07" x2="359.86" y2="248.92"/><line class="f" x1="359.86" y1="248.92" x2="361.23" y2="252.24"/><line class="f" x1="361.23" y1="252.24" x2="361.7" y2="255.8"/><line class="f" x1="361.7" y1="255.8" x2="361.23" y2="259.35"/><line class="f" x1="361.23" y1="259.35" x2="359.86" y2="262.67"/><line class="f" x1="359.86" y1="262.67" x2="357.66" y2="265.52"/><line class="f" x1="357.66" y1="265.52" x2="354.81" y2="267.7"/><line class="f" x1="354.81" y1="267.7" x2="351.48" y2="269.08"/><line class="f" x1="351.48" y1="269.08" x2="347.91" y2="269.55"/><line class="f" x1="347.91" y1="269.55" x2="344.34" y2="269.08"/><line class="f" x1="344.33" y1="269.08" x2="341.01" y2="267.7"/><line class="f" x1="341.01" y1="267.7" x2="338.15" y2="265.52"/><line class="f" x1="338.15" y1="265.52" x2="335.96" y2="262.67"/><line class="f" x1="335.96" y1="262.67" x2="334.58" y2="259.36"/><line class="f" x1="334.58" y1="259.35" x2="334.11" y2="255.8"/><g class="i"><path class="f" d="M347.91,242.05h0a13.75,13.75,0,1,1,0,27.5"/><path class="f" d="M347.91,269.55h0a13.75,13.75,0,1,1,0-27.5"/></g><line class="f" x1="331.11" y1="242.16" x2="327.66" y2="248.12"/><line class="f" x1="327.43" y1="251.95" x2="334.11" y2="255.8"/><line class="f" x1="329.62" y1="241.3" x2="326.17" y2="247.26"/><line class="f" x1="341.01" y1="243.89" x2="334.33" y2="240.05"/><line class="f" x1="368.15" y1="248.12" x2="364.7" y2="242.16"/><line class="f" x1="361.48" y1="240.05" x2="354.81" y2="243.89"/><line class="f" x1="369.65" y1="247.26" x2="366.2" y2="241.3"/><line class="f" x1="361.7" y1="255.8" x2="368.38" y2="251.95"/><line class="f" x1="344.46" y1="277.11" x2="351.36" y2="277.11"/><line class="f" x1="354.81" y1="275.39" x2="354.81" y2="267.7"/><line class="f" x1="344.46" y1="278.83" x2="351.36" y2="278.83"/><line class="f" x1="341.01" y1="267.7" x2="341.01" y2="275.39"/><g class="i"><path class="f" d="M328.29,250.47a1.72,1.72,0,0,1-.63-2.35"/><path class="f" d="M331.11,242.16a1.72,1.72,0,0,1,2.35-.63"/><path class="f" d="M327.43,252a3.42,3.42,0,0,1-1.73-3,3.34,3.34,0,0,1,.47-1.72"/><path class="f" d="M329.61,241.3a3.47,3.47,0,0,1,4.72-1.26"/><path class="f" d="M362.34,241.53a1.8,1.8,0,0,1,.87-.23,1.73,1.73,0,0,1,1.49.86"/><path class="f" d="M368.15,248.12a1.64,1.64,0,0,1,.24.86,1.74,1.74,0,0,1-.87,1.49"/><path class="f" d="M361.48,240a3.47,3.47,0,0,1,4.72,1.26"/><path class="f" d="M369.65,247.26a3.44,3.44,0,0,1-1.26,4.7"/><path class="f" d="M353.08,275.39h0a1.72,1.72,0,0,1-1.73,1.72"/><path class="f" d="M344.46,277.11h0a1.73,1.73,0,0,1-1.73-1.72"/><path class="f" d="M354.81,275.39h0a3.45,3.45,0,0,1-3.46,3.44"/><path class="f" d="M344.46,278.83h0a3.44,3.44,0,0,1-3.45-3.44"/></g><polygon class="g" points="548.99 198.57 531.09 198.57 530.72 198.72 530.57 199.09 530.57 213.2 530.72 213.56 531.09 213.71 548.99 213.71 549.35 213.56 549.5 213.2 549.5 199.09 549.35 198.72 548.99 198.57"/><g class="i"><path class="f" d="M549,198.57a.52.52,0,0,1,.52.52"/></g><line class="f" x1="549.5" y1="213.2" x2="549.5" y2="199.09"/><g class="i"><path class="f" d="M549.5,213.2a.51.51,0,0,1-.52.51"/></g><line class="f" x1="531.09" y1="213.71" x2="548.98" y2="213.71"/><g class="i"><path class="f" d="M531.09,213.71a.51.51,0,0,1-.52-.51"/></g><line class="f" x1="530.57" y1="199.09" x2="530.57" y2="213.2"/><g class="i"><path class="f" d="M530.57,199.09a.52.52,0,0,1,.52-.52"/></g><line class="f" x1="548.98" y1="198.57" x2="531.09" y2="198.57"/><line class="f" x1="547.95" y1="202.36" x2="532.12" y2="202.36"/><line class="f" x1="531.6" y1="202.87" x2="531.6" y2="212.17"/><line class="f" x1="532.12" y1="212.68" x2="547.95" y2="212.68"/><line class="f" x1="548.47" y1="212.17" x2="548.47" y2="202.87"/><g class="i"><path class="f" d="M531.6,202.87a.51.51,0,0,1,.52-.51"/><path class="f" d="M532.12,212.68a.51.51,0,0,1-.52-.51"/><path class="f" d="M548.47,212.17a.51.51,0,0,1-.52.51"/><path class="f" d="M548,202.36a.51.51,0,0,1,.52.51"/></g><polygon class="g" points="540.9 200.63 540.76 202.08 540.64 202.41 540.42 204.23 540.29 204.47 540.03 204.57 539.78 204.47 539.65 204.23 539.42 202.41 539.31 202.08 539.17 200.63 539.42 200.03 540.03 199.78 540.64 200.03 540.9 200.63"/><line class="f" x1="540.9" y1="200.63" x2="540.76" y2="202.08"/><g class="i"><path class="f" d="M540.76,202.08a.66.66,0,0,1-.12.33"/></g><line class="f" x1="540.64" y1="202.41" x2="540.42" y2="204.23"/><g class="i"><path class="f" d="M540.42,204.23a.39.39,0,0,1-.77,0"/></g><line class="f" x1="539.65" y1="204.23" x2="539.43" y2="202.41"/><g class="i"><path class="f" d="M539.43,202.41a.66.66,0,0,1-.12-.33"/></g><line class="f" x1="539.31" y1="202.08" x2="539.17" y2="200.63"/><g class="i"><path class="f" d="M539.17,200.63a.87.87,0,0,1,1.73,0"/></g><line class="f" x1="539.57" y1="201.49" x2="539.57" y2="202"/><line class="f" x1="540.5" y1="202" x2="540.5" y2="201.49"/><line class="f" x1="540.5" y1="201.49" x2="539.57" y2="201.49"/><g class="i"><path class="f" d="M540.5,202a.47.47,0,1,1-.93,0"/><path class="f" d="M540.64,202.41a.72.72,0,0,1-1.21,0"/></g><rect class="d" x="205.11" y="214.06" width="20.65" height="43.03"/><line class="f" x1="205.11" y1="257.09" x2="205.11" y2="214.06"/><line class="f" x1="205.11" y1="214.06" x2="225.76" y2="214.06"/><line class="f" x1="225.76" y1="214.06" x2="225.76" y2="257.09"/><line class="f" x1="225.76" y1="257.09" x2="205.11" y2="257.09"/><line class="f" x1="215.44" y1="254.94" x2="215.44" y2="216.21"/><line class="f" x1="209.36" y1="252.94" x2="221.74" y2="249.3"/><line class="f" x1="208.74" y1="248.83" x2="220.25" y2="247.33"/><line class="f" x1="222.88" y1="243.23" x2="210.25" y2="241.99"/><line class="f" x1="221.22" y1="236.88" x2="210.25" y2="238.57"/><line class="f" x1="221.85" y1="234.58" x2="208.33" y2="234.58"/><line class="f" x1="221.92" y1="228.04" x2="208.55" y2="229.59"/><line class="f" x1="221.69" y1="225.59" x2="209.48" y2="225.59"/><line class="f" x1="221.81" y1="219.13" x2="209.3" y2="217.89"/><line class="f" x1="220.96" y1="220.69" x2="210.38" y2="221.94"/><rect class="d" x="225.76" y="193.41" width="49.22" height="20.65"/><line class="f" x1="225.76" y1="193.41" x2="274.99" y2="193.41"/><line class="f" x1="274.99" y1="193.41" x2="274.99" y2="214.06"/><line class="f" x1="274.99" y1="214.06" x2="225.76" y2="214.06"/><line class="f" x1="225.76" y1="214.06" x2="225.76" y2="193.41"/><line class="f" x1="228.22" y1="203.73" x2="272.52" y2="203.73"/><line class="f" x1="230.51" y1="197.66" x2="234.67" y2="210.03"/><line class="f" x1="235.2" y1="197.04" x2="236.92" y2="208.55"/><line class="f" x1="241.61" y1="211.18" x2="243.03" y2="198.55"/><line class="f" x1="248.87" y1="209.52" x2="246.95" y2="198.55"/><line class="f" x1="251.52" y1="210.15" x2="251.52" y2="196.63"/><line class="f" x1="259" y1="210.21" x2="257.22" y2="196.85"/><line class="f" x1="261.8" y1="209.99" x2="261.8" y2="197.78"/><line class="f" x1="269.18" y1="210.11" x2="270.6" y2="197.59"/><line class="f" x1="267.41" y1="209.26" x2="265.96" y2="198.68"/><rect class="d" x="418.52" y="312.33" width="20.65" height="51.81"/><line class="f" x1="418.52" y1="364.14" x2="418.52" y2="312.33"/><line class="f" x1="418.52" y1="312.33" x2="439.18" y2="312.33"/><line class="f" x1="439.18" y1="312.33" x2="439.18" y2="364.14"/><line class="f" x1="439.18" y1="364.14" x2="418.53" y2="364.14"/><line class="f" x1="428.85" y1="361.55" x2="428.85" y2="314.92"/><line class="f" x1="422.78" y1="359.15" x2="435.15" y2="354.77"/><line class="f" x1="422.16" y1="354.2" x2="433.67" y2="352.39"/><line class="f" x1="436.3" y1="347.46" x2="423.66" y2="345.97"/><line class="f" x1="434.64" y1="339.81" x2="423.66" y2="341.84"/><line class="f" x1="435.27" y1="337.03" x2="421.75" y2="337.03"/><line class="f" x1="435.33" y1="329.16" x2="421.97" y2="331.03"/><line class="f" x1="435.11" y1="326.21" x2="422.9" y2="326.21"/><line class="f" x1="435.23" y1="318.44" x2="422.71" y2="316.95"/><line class="f" x1="434.38" y1="320.31" x2="423.8" y2="321.83"/><rect class="d" x="418.52" y="261.22" width="20.65" height="51.12"/><line class="f" x1="418.52" y1="312.33" x2="418.52" y2="261.22"/><line class="f" x1="418.52" y1="261.22" x2="439.18" y2="261.22"/><line class="f" x1="439.18" y1="261.22" x2="439.18" y2="312.33"/><line class="f" x1="439.18" y1="312.33" x2="418.53" y2="312.33"/><line class="f" x1="428.85" y1="309.78" x2="428.85" y2="263.77"/><line class="f" x1="422.78" y1="307.41" x2="435.15" y2="303.08"/><line class="f" x1="422.16" y1="302.53" x2="433.67" y2="300.75"/><line class="f" x1="436.3" y1="295.88" x2="423.66" y2="294.41"/><line class="f" x1="434.64" y1="288.33" x2="423.66" y2="290.33"/><line class="f" x1="435.27" y1="285.59" x2="421.75" y2="285.59"/><line class="f" x1="435.33" y1="277.82" x2="421.97" y2="279.67"/><line class="f" x1="435.11" y1="274.91" x2="422.9" y2="274.91"/><line class="f" x1="435.23" y1="267.24" x2="422.71" y2="265.77"/><line class="f" x1="434.38" y1="269.09" x2="423.8" y2="270.59"/><polygon class="g" points="522.48 198.57 509.74 198.57 509.74 209.93 510.01 211.63 510.78 213.17 511.98 214.4 513.94 215.43 516.11 215.78 518.29 215.43 520.24 214.4 521.44 213.17 522.22 211.63 522.48 209.93 522.48 198.57"/><line class="f" x1="509.74" y1="198.57" x2="509.74" y2="209.93"/><line class="f" x1="509.74" y1="198.57" x2="522.48" y2="198.57"/><line class="f" x1="522.48" y1="198.57" x2="522.48" y2="209.93"/><line class="f" x1="511.81" y1="202.7" x2="511.81" y2="209.93"/><line class="f" x1="520.41" y1="202.7" x2="520.41" y2="209.93"/><line class="f" x1="520.41" y1="202.7" x2="511.81" y2="202.7"/><g class="i"><path class="f" d="M512,214.4a5.57,5.57,0,0,1-2.24-4.47"/><path class="f" d="M522.48,209.93a5.57,5.57,0,0,1-2.24,4.47"/><path class="f" d="M520.24,214.4a6.87,6.87,0,0,1-8.26,0"/><path class="f" d="M522.48,209.93a5.57,5.57,0,0,1-2.24,4.47"/><path class="f" d="M520.24,214.4a6.84,6.84,0,0,1-4.13,1.38"/><path class="f" d="M520.41,209.93a3.51,3.51,0,0,1-1.41,2.82"/><path class="f" d="M519,212.75a4.83,4.83,0,0,1-5.78,0"/><path class="f" d="M513.22,212.75a3.52,3.52,0,0,1-1.41-2.82"/></g><rect class="d" x="205.11" y="309.06" width="24.1" height="41.31"/><polygon class="g" points="229.21 337.01 238.5 337.01 240.22 336.55 241.48 335.29 241.94 333.57 241.94 325.87 241.48 324.14 240.22 322.89 238.5 322.43 229.21 322.43 229.21 337.01"/><line class="f" x1="205.11" y1="309.06" x2="229.21" y2="309.06"/><line class="f" x1="229.2" y1="309.06" x2="229.2" y2="350.37"/><line class="f" x1="229.2" y1="350.37" x2="205.11" y2="350.37"/><line class="f" x1="205.11" y1="350.37" x2="205.11" y2="309.06"/><line class="f" x1="241.94" y1="325.87" x2="241.94" y2="333.57"/><line class="f" x1="238.5" y1="337.01" x2="229.21" y2="337.01"/><line class="f" x1="240.22" y1="325.87" x2="240.22" y2="333.57"/><line class="f" x1="229.2" y1="322.43" x2="238.5" y2="322.43"/><g class="i"><path class="f" d="M238.5,322.43a3.44,3.44,0,0,1,3.44,3.44"/><path class="f" d="M241.94,333.57A3.44,3.44,0,0,1,238.5,337"/><path class="f" d="M238.5,324.15a1.72,1.72,0,0,1,1.72,1.72"/><path class="f" d="M240.22,333.57a1.72,1.72,0,0,1-1.72,1.72"/></g><line class="f" x1="425.41" y1="193.41" x2="432.29" y2="193.41"/><line class="f" x1="436.08" y1="193.41" x2="436.86" y2="193.41"/><line class="f" x1="440.64" y1="193.41" x2="441.42" y2="193.41"/><line class="f" x1="445.2" y1="193.41" x2="452.09" y2="193.41"/><line class="f" x1="455.87" y1="193.41" x2="456.39" y2="193.41"/><line class="f" x1="456.39" y1="193.41" x2="463.27" y2="193.41"/><line class="f" x1="229.2" y1="257.09" x2="236.09" y2="257.09"/><line class="f" x1="239.88" y1="257.09" x2="240.65" y2="257.09"/><line class="f" x1="244.44" y1="257.09" x2="245.21" y2="257.09"/><line class="f" x1="249" y1="257.09" x2="253.3" y2="257.09"/><line class="f" x1="253.3" y1="257.09" x2="260.18" y2="257.09"/><line class="f" x1="229.2" y1="259.5" x2="236.09" y2="259.5"/><line class="f" x1="239.88" y1="259.5" x2="240.65" y2="259.5"/><line class="f" x1="244.44" y1="259.5" x2="245.21" y2="259.5"/><line class="f" x1="249" y1="259.5" x2="253.3" y2="259.5"/><line class="f" x1="253.3" y1="259.5" x2="260.18" y2="259.5"/><line class="f" x1="335.65" y1="206.16" x2="335.65" y2="200.39"/><line class="f" x1="335.65" y1="200.39" x2="333.3" y2="202.28"/><line class="f" x1="333.3" y1="202.28" x2="330.96" y2="200.39"/><line class="f" x1="330.96" y1="200.39" x2="330.96" y2="206.16"/><line class="f" x1="268.79" y1="377.91" x2="268.79" y2="431.26"/><line class="f" x1="268.79" y1="431.26" x2="590.63" y2="431.26"/><line class="f" x1="267.07" y1="377.91" x2="267.07" y2="432.98"/><line class="f" x1="267.07" y1="432.98" x2="336.09" y2="432.98"/><line class="f" x1="196.5" y1="185.14" x2="196.5" y2="377.91"/><line class="f" x1="196.5" y1="377.91" x2="267.07" y2="377.91"/><line class="f" x1="267.07" y1="377.91" x2="267.07" y2="432.98"/><line class="f" x1="267.07" y1="432.98" x2="590.64" y2="432.98"/><line class="f" x1="590.64" y1="432.98" x2="590.64" y2="377.91"/><line class="f" x1="590.64" y1="377.91" x2="594.08" y2="377.91"/><line class="f" x1="594.08" y1="377.91" x2="594.08" y2="185.14"/><line class="f" x1="594.08" y1="185.14" x2="364.83" y2="185.14"/><line class="f" x1="364.83" y1="185.14" x2="291.51" y2="185.14"/><line class="f" x1="291.51" y1="185.14" x2="196.5" y2="185.14"/><path class="j" d="M438.47,229v7h-.72v-6.36h-1.64V229Z"/><path class="j" d="M440.15,235.45a.53.53,0,0,1,.53-.54.54.54,0,0,1,.54.54.55.55,0,0,1-.54.55A.54.54,0,0,1,440.15,235.45Z"/><path class="j" d="M442.17,232.45c0-2.23,1.16-3.56,2.78-3.56s2.8,1.33,2.8,3.56S446.57,236,445,236,442.17,234.68,442.17,232.45Zm4.84,0c0-1.87-.84-2.9-2.06-2.9s-2.06,1-2.06,2.9.84,2.9,2.06,2.9S447,234.32,447,232.45Z"/><path class="j" d="M450.71,229v7H450v-6.36h-1.65V229Z"/><path class="j" d="M352.16,304.64v7h-.72v-6.36H349.8v-.64Z"/><path class="j" d="M353.84,311.14a.53.53,0,0,1,.53-.54.54.54,0,0,1,.54.54.55.55,0,0,1-.54.55A.54.54,0,0,1,353.84,311.14Z"/><path class="j" d="M355.85,308.14c0-2.23,1.17-3.56,2.79-3.56s2.8,1.33,2.8,3.56-1.18,3.56-2.8,3.56S355.85,310.37,355.85,308.14Zm4.85,0c0-1.87-.84-2.9-2.06-2.9s-2.06,1-2.06,2.9.84,2.9,2.06,2.9S360.7,310,360.7,308.14Z"/><path class="j" d="M367.24,311v.64h-4.9v-.51l2.9-2.85c.79-.78.94-1.25.94-1.73,0-.81-.57-1.31-1.64-1.31a2.38,2.38,0,0,0-1.91.78l-.5-.44a3.11,3.11,0,0,1,2.47-1c1.42,0,2.32.72,2.32,1.89a2.88,2.88,0,0,1-1.15,2.19L363.39,311Z"/><path class="j" d="M237.28,233.25v7h-.72v-6.36h-1.64v-.64Z"/><path class="j" d="M239,239.75a.54.54,0,1,1,1.07,0,.54.54,0,1,1-1.07,0Z"/><path class="j" d="M241,236.75c0-2.23,1.17-3.56,2.79-3.56s2.8,1.33,2.8,3.56-1.18,3.56-2.8,3.56S241,239,241,236.75Zm4.85,0c0-1.87-.84-2.9-2.06-2.9s-2.06,1-2.06,2.9.84,2.9,2.06,2.9S245.82,238.62,245.82,236.75Z"/><path class="j" d="M252.13,238.24c0,1.17-.85,2.07-2.54,2.07a3.6,3.6,0,0,1-2.51-.9l.34-.57a3.07,3.07,0,0,0,2.17.81c1.16,0,1.8-.54,1.8-1.41s-.59-1.39-1.89-1.39H249v-.53l1.94-2.43h-3.58v-.64h4.5v.51l-2,2.49C251.38,236.33,252.13,237.12,252.13,238.24Z"/><path class="j" d="M235.12,290v7h-.72v-6.36h-1.64V290Z"/><path class="j" d="M236.8,296.47a.54.54,0,1,1,1.07,0,.54.54,0,1,1-1.07,0Z"/><path class="j" d="M238.81,293.47c0-2.23,1.17-3.56,2.79-3.56s2.8,1.33,2.8,3.56-1.18,3.56-2.8,3.56S238.81,295.7,238.81,293.47Zm4.85,0c0-1.87-.84-2.9-2.06-2.9s-2.06,1-2.06,2.9.84,2.9,2.06,2.9S243.66,295.34,243.66,293.47Z"/><path class="j" d="M251.38,295.13H250V297h-.72v-1.84h-3.95v-.52L249,290h.8l-3.58,4.52h3v-1.62h.7v1.62h1.4Z"/><path class="j" d="M482.15,304.64v7h-.72v-6.36h-1.64v-.64Z"/><path class="j" d="M483.84,311.14a.52.52,0,0,1,.52-.54.54.54,0,0,1,.54.54.55.55,0,0,1-.54.55A.53.53,0,0,1,483.84,311.14Z"/><path class="j" d="M485.84,308.14c0-2.23,1.17-3.56,2.79-3.56s2.8,1.33,2.8,3.56-1.18,3.56-2.8,3.56S485.84,310.37,485.84,308.14Zm4.85,0c0-1.87-.84-2.9-2.06-2.9s-2.06,1-2.06,2.9.84,2.9,2.06,2.9S490.69,310,490.69,308.14Z"/><path class="j" d="M497.21,309.58c0,1.19-.83,2.12-2.54,2.12a3.57,3.57,0,0,1-2.5-.9l.34-.57a3,3,0,0,0,2.15.81c1.19,0,1.82-.58,1.82-1.43s-.56-1.46-2.34-1.46h-1.49l.36-3.51h3.83v.64h-3.2l-.24,2.23h.9C496.41,307.51,497.21,308.34,497.21,309.58Z"/><path class="j" d="M524.92,229.45v7h-.72v-6.36h-1.65v-.64Z"/><path class="j" d="M526.6,236a.53.53,0,0,1,.53-.54.54.54,0,0,1,.54.54.55.55,0,0,1-.54.55A.54.54,0,0,1,526.6,236Z"/><path class="j" d="M528.62,233c0-2.23,1.16-3.56,2.78-3.56s2.8,1.33,2.8,3.56-1.18,3.56-2.8,3.56S528.62,235.18,528.62,233Zm4.84,0c0-1.87-.84-2.9-2.06-2.9s-2.06,1-2.06,2.9.84,2.9,2.06,2.9S533.46,234.82,533.46,233Z"/><path class="j" d="M540.49,234.36a2.18,2.18,0,0,1-2.39,2.15c-1.86,0-2.87-1.29-2.87-3.5,0-2.38,1.3-3.62,3.2-3.62a3.21,3.21,0,0,1,1.66.38l-.29.58a2.45,2.45,0,0,0-1.36-.33c-1.51,0-2.48,1-2.48,2.87,0,.16,0,.36,0,.57a2.24,2.24,0,0,1,2.14-1.2A2.12,2.12,0,0,1,540.49,234.36Zm-.71,0c0-.92-.68-1.51-1.76-1.51a1.62,1.62,0,0,0-1.8,1.53c0,.77.64,1.5,1.85,1.5A1.53,1.53,0,0,0,539.78,234.38Z"/><path class="j" d="M482.15,396.79v7h-.72v-6.36h-1.64v-.64Z"/><path class="j" d="M483.84,403.29a.52.52,0,0,1,.52-.54.54.54,0,0,1,.54.54.55.55,0,0,1-.54.55A.53.53,0,0,1,483.84,403.29Z"/><path class="j" d="M485.84,400.29c0-2.23,1.17-3.56,2.79-3.56s2.8,1.33,2.8,3.56-1.18,3.56-2.8,3.56S485.84,402.52,485.84,400.29Zm4.85,0c0-1.87-.84-2.9-2.06-2.9s-2.06,1-2.06,2.9.84,2.9,2.06,2.9S490.69,402.16,490.69,400.29Z"/><path class="j" d="M497.33,396.79v.51l-2.93,6.49h-.78l2.88-6.36h-3.6v1.31h-.71v-1.95Z"/></svg>