<svg xmlns="http://www.w3.org/2000/svg" xmlns:xlink="http://www.w3.org/1999/xlink" viewBox="0 0 790.58 618.13"><defs><style>.a,.f{fill:none;}.b{fill:#595a5c;}.c{fill:#b6906c;}.d,.g{fill:#fff;}.e{fill:#231f20;}.f{stroke:#000;stroke-linecap:round;stroke-linejoin:round;stroke-width:0.35px;}.g,.h{fill-rule:evenodd;}.i{clip-path:url(#a);}.j{fill:#58595b;}</style><clipPath id="a"><polygon class="a" points="232.55 183.34 232.55 378.91 236.74 378.91 236.74 434.78 517.87 434.78 517.87 378.91 558.03 378.91 558.03 183.34 232.55 183.34"/></clipPath></defs><path class="b" d="M55.31,597.13H57.1V609.9H55.31Zm.92,6.11h4.09a1.89,1.89,0,0,0,1-.27,1.82,1.82,0,0,0,.68-.77,2.67,2.67,0,0,0,.24-1.16,2.7,2.7,0,0,0-.24-1.16,1.82,1.82,0,0,0-1.7-1H56.23v-1.7h4a4.09,4.09,0,0,1,2,.48A3.45,3.45,0,0,1,63.62,599a4.64,4.64,0,0,1,0,4.11,3.34,3.34,0,0,1-1.35,1.36,4,4,0,0,1-2,.49h-4Z"/><path class="b" d="M67.7,606.33a2.07,2.07,0,0,0,.49,1.48,1.76,1.76,0,0,0,1.37.52,1.89,1.89,0,0,0,1.37-.46,1.79,1.79,0,0,0,.48-1.33l.12,1.91A2.58,2.58,0,0,1,69.06,610a2.89,2.89,0,0,1-2.33-1,4.08,4.08,0,0,1-.82-2.73v-5.55H67.7Zm.22-7.86a1.93,1.93,0,0,1-.56-1.5,2.07,2.07,0,0,1,.56-1.57,2.56,2.56,0,0,1,3.18,0,2.08,2.08,0,0,1,.57,1.56,1.94,1.94,0,0,1-.57,1.5,2.65,2.65,0,0,1-3.18,0Zm2.26-.86a.94.94,0,0,0,.24-.68,1,1,0,0,0-.24-.7.91.91,0,0,0-.67-.25.92.92,0,0,0-.67.25,1,1,0,0,0-.23.7,1,1,0,0,0,.23.68.92.92,0,0,0,.67.24A.9.9,0,0,0,70.18,597.61Zm1.23,3.17h1.78v9.12H71.41Z"/><path class="b" d="M77.1,609.63A2.82,2.82,0,0,1,76,608.36a5.08,5.08,0,0,1-.36-2v-2a5.05,5.05,0,0,1,.36-2,2.71,2.71,0,0,1,1-1.27,3,3,0,0,1,1.65-.44,2.71,2.71,0,0,1,1.48.42,3.22,3.22,0,0,1,1.09,1.19l-.18,1.86a2.19,2.19,0,0,0-.22-1,1.48,1.48,0,0,0-.61-.63,2,2,0,0,0-1-.21,1.71,1.71,0,0,0-1.37.55,2.26,2.26,0,0,0-.49,1.56v2a2.19,2.19,0,0,0,.49,1.54,1.74,1.74,0,0,0,1.37.54,1.93,1.93,0,0,0,1-.23,1.45,1.45,0,0,0,.61-.64,2.25,2.25,0,0,0,.22-1l.12,1.92a2.66,2.66,0,0,1-.89,1.14,2.56,2.56,0,0,1-1.53.45A3.19,3.19,0,0,1,77.1,609.63Zm4-12.5H82.9V609.9H81.11Z"/><path class="b" d="M87.09,609.57a3.09,3.09,0,0,1-1.29-1.36,4.85,4.85,0,0,1-.44-2.15v-1.48a4.71,4.71,0,0,1,.44-2.12,3.12,3.12,0,0,1,1.29-1.35,4.71,4.71,0,0,1,4.06,0,3.12,3.12,0,0,1,1.29,1.35,4.71,4.71,0,0,1,.44,2.12v1.51a4.79,4.79,0,0,1-.44,2.13,3.12,3.12,0,0,1-1.29,1.35,4.62,4.62,0,0,1-4.06,0Zm3.49-1.83a2.43,2.43,0,0,0,.51-1.65v-1.51a2.43,2.43,0,0,0-.51-1.65,1.88,1.88,0,0,0-1.46-.58,1.85,1.85,0,0,0-1.45.58,2.38,2.38,0,0,0-.52,1.65v1.51a2.38,2.38,0,0,0,.52,1.65,1.82,1.82,0,0,0,1.45.59A1.85,1.85,0,0,0,90.58,607.74Z"/><path class="b" d="M95.43,600.78h1.79v9.12H95.43Zm4.42,1.72a2.16,2.16,0,0,0-.83-.15,1.83,1.83,0,0,0-1.33.47,1.79,1.79,0,0,0-.47,1.31L97,602.37a3.32,3.32,0,0,1,1.09-1.27,2.58,2.58,0,0,1,1.48-.45,3.39,3.39,0,0,1,1.13.18,2.62,2.62,0,0,1,.88.53l-1.17,1.58A1.56,1.56,0,0,0,99.85,602.5Z"/><path class="b" d="M102.15,600.78H104l2.81,7.93-1,1.94Zm8.07,0L106.34,612a2.6,2.6,0,0,1-.56,1,1.87,1.87,0,0,1-.84.52,4,4,0,0,1-1.23.16h-.36V612h.36a1.46,1.46,0,0,0,.8-.2,1.74,1.74,0,0,0,.51-.7l3.38-10.31Z"/><path class="b" d="M113.51,609.88a5.76,5.76,0,0,1-1.32-.48,4.89,4.89,0,0,1-1.13-.79l1.06-1.31a5.86,5.86,0,0,0,1.47.85,4.18,4.18,0,0,0,1.44.28,3.11,3.11,0,0,0,1.6-.33,1.1,1.1,0,0,0,.53-1,.79.79,0,0,0-.29-.66,1.66,1.66,0,0,0-.72-.29c-.29,0-.69-.1-1.22-.14h-.15l-.14,0h-.15a6.45,6.45,0,0,1-1.5-.26,2,2,0,0,1-1-.7,2.38,2.38,0,0,1-.41-1.49,3.07,3.07,0,0,1,.39-1.61,2.41,2.41,0,0,1,1.18-1,5.29,5.29,0,0,1,2-.32,6.38,6.38,0,0,1,2.6.52,6.16,6.16,0,0,1,1.13.66l-1.08,1.31a5.59,5.59,0,0,0-1.35-.66,4,4,0,0,0-1.3-.22,2.44,2.44,0,0,0-1.37.31,1.08,1.08,0,0,0-.46.94.64.64,0,0,0,.26.55,1.72,1.72,0,0,0,.66.25c.26,0,.64.07,1.12.1h.34a7.67,7.67,0,0,1,1.63.25,2.24,2.24,0,0,1,1.13.77,2.62,2.62,0,0,1,.45,1.65,2.92,2.92,0,0,1-.42,1.63,2.54,2.54,0,0,1-1.27,1A5.88,5.88,0,0,1,115,610,7.38,7.38,0,0,1,113.51,609.88Z"/><path class="b" d="M126,597.13h1.8V609.9H126Zm2.6,12.5a2.39,2.39,0,0,1-.93-1.16l.13-1.91a2.22,2.22,0,0,0,.21,1,1.48,1.48,0,0,0,.61.63,1.93,1.93,0,0,0,1,.22,1.74,1.74,0,0,0,1.37-.54,2.18,2.18,0,0,0,.49-1.53v-2a2.26,2.26,0,0,0-.49-1.56,1.71,1.71,0,0,0-1.37-.55,2,2,0,0,0-1,.21,1.36,1.36,0,0,0-.61.62,2.12,2.12,0,0,0-.21,1l-.19-1.76a3.37,3.37,0,0,1,1.08-1.24,2.67,2.67,0,0,1,1.49-.43,3,3,0,0,1,1.65.43,2.9,2.9,0,0,1,1.06,1.27,5.1,5.1,0,0,1,.36,2v2a4.94,4.94,0,0,1-.37,2,2.79,2.79,0,0,1-1.08,1.26,3.25,3.25,0,0,1-1.71.44A2.73,2.73,0,0,1,128.57,609.63Z"/><path class="b" d="M134.46,600.78h1.82l2.81,7.93-1,1.94Zm8.07,0L138.65,612a2.6,2.6,0,0,1-.56,1,1.87,1.87,0,0,1-.84.52,4,4,0,0,1-1.23.16h-.36V612H136a1.46,1.46,0,0,0,.8-.2,1.74,1.74,0,0,0,.51-.7l3.37-10.31Z"/><path class="b" d="M143.57,600.78h4.12v1.62h-4.12Zm1.46,8.56a2.77,2.77,0,0,1-.52-1.81v-9.4h1.8v9.42a.84.84,0,0,0,.13.51.46.46,0,0,0,.39.18h.86V610h-1A2,2,0,0,1,145,609.34Z"/><path class="b" d="M151.94,606.33a2.07,2.07,0,0,0,.49,1.48,1.76,1.76,0,0,0,1.37.52,1.91,1.91,0,0,0,1.37-.46,1.79,1.79,0,0,0,.48-1.33l.12,1.91A2.58,2.58,0,0,1,153.3,610a2.89,2.89,0,0,1-2.33-1,4.08,4.08,0,0,1-.82-2.73v-5.55h1.79Zm3.71-5.55h1.78v9.12h-1.78Z"/><rect class="c" x="612.92" y="591.68" width="35.43" height="2.83"/><path class="d" d="M648.48,594.64H612.79v-3.08h35.69ZM613,594.39h35.19v-2.58H613Z"/><rect class="c" x="612.92" y="601.6" width="70.74" height="2.83"/><path class="d" d="M683.78,604.56h-71v-3.08h71ZM613,604.31h70.49v-2.58H613Z"/><rect class="c" x="612.92" y="612.72" width="177.16" height="2.84"/><path class="d" d="M790.21,615.68H612.79V612.6H790.21ZM613,615.43H790v-2.58H613Z"/><path class="e" d="M587.26,596.28h-.8v-4.82l-.81.5v-.83l.81-.53h.8Z"/><path class="e" d="M589,595.91a1.67,1.67,0,0,1-.41-1.19v-2.58A1.65,1.65,0,0,1,589,591a2,2,0,0,1,2.42,0,1.65,1.65,0,0,1,.41,1.19v2.58a1.65,1.65,0,0,1-.41,1.19,2,2,0,0,1-2.42,0Zm1.83-.55a.89.89,0,0,0,.2-.64v-2.58a.89.89,0,0,0-.2-.64.82.82,0,0,0-.62-.22.86.86,0,0,0-.63.22.94.94,0,0,0-.2.64v2.58a.9.9,0,0,0,.21.64,1,1,0,0,0,1.24,0Z"/><path class="e" d="M593.22,595.91a1.67,1.67,0,0,1-.41-1.19v-2.58a1.65,1.65,0,0,1,.41-1.19,2,2,0,0,1,2.42,0,1.61,1.61,0,0,1,.41,1.19v2.58a1.65,1.65,0,0,1-.41,1.19,2,2,0,0,1-2.42,0Zm1.83-.55a.9.9,0,0,0,.21-.64v-2.58a.94.94,0,0,0-.2-.64.86.86,0,0,0-.63-.22.82.82,0,0,0-.62.22.89.89,0,0,0-.2.64v2.58a.89.89,0,0,0,.2.64,1,1,0,0,0,1.24,0Z"/><path class="e" d="M600.1,596.13a1.45,1.45,0,0,1-.6-.6,2.06,2.06,0,0,1-.21-1v-.67a2,2,0,0,1,.21-.94,1.37,1.37,0,0,1,.6-.59,2,2,0,0,1,.95-.21,2.21,2.21,0,0,1,.59.08,1.68,1.68,0,0,1,.51.22,1.54,1.54,0,0,1,.37.35l-.58.52a1.17,1.17,0,0,0-.4-.3,1.13,1.13,0,0,0-.48-.11.94.94,0,0,0-.71.26,1,1,0,0,0-.26.72v.67a1,1,0,0,0,.25.74.94.94,0,0,0,.72.27,1,1,0,0,0,.48-.12,1,1,0,0,0,.4-.32l.58.56a1.38,1.38,0,0,1-.38.34,1.62,1.62,0,0,1-.5.22,2.27,2.27,0,0,1-.59.07A2.12,2.12,0,0,1,600.1,596.13Z"/><path class="e" d="M603.4,592.22h.79v4.06h-.79Zm2.42,1.6a1,1,0,0,0-.21-.67.78.78,0,0,0-.6-.23.81.81,0,0,0-.6.21.73.73,0,0,0-.22.58l-.08-.78a1.46,1.46,0,0,1,.49-.57,1.22,1.22,0,0,1,.67-.2,1.33,1.33,0,0,1,.73.2,1.18,1.18,0,0,1,.46.56,2.4,2.4,0,0,1,.15.89v2.47h-.79Zm2.42,0a.93.93,0,0,0-.22-.67.85.85,0,0,0-.63-.23.72.72,0,0,0-.57.23.9.9,0,0,0-.21.64l-.16-.78a1.61,1.61,0,0,1,.51-.63,1.23,1.23,0,0,1,.69-.22,1.37,1.37,0,0,1,.75.2,1.09,1.09,0,0,1,.47.56,2.21,2.21,0,0,1,.17.89v2.47h-.8Z"/><path class="e" d="M584.33,605.5l2-2.64a1.85,1.85,0,0,0,.27-.47,1.29,1.29,0,0,0,.09-.45h0a.67.67,0,0,0-.2-.53.81.81,0,0,0-.56-.19.76.76,0,0,0-.56.21,1,1,0,0,0-.27.58h-.82a2,2,0,0,1,.29-.83,1.42,1.42,0,0,1,.56-.53,1.67,1.67,0,0,1,.79-.18,1.93,1.93,0,0,1,.87.17,1.21,1.21,0,0,1,.54.51,1.55,1.55,0,0,1,.19.8h0a1.84,1.84,0,0,1-.12.63,2.8,2.8,0,0,1-.35.63l-1.65,2.24h2.15v.76h-3.2Z"/><path class="e" d="M589,605.83a1.67,1.67,0,0,1-.41-1.19v-2.58a1.65,1.65,0,0,1,.41-1.19,2,2,0,0,1,2.42,0,1.65,1.65,0,0,1,.41,1.19v2.58a1.65,1.65,0,0,1-.41,1.19,2,2,0,0,1-2.42,0Zm1.83-.55a.89.89,0,0,0,.2-.64v-2.58a.89.89,0,0,0-.2-.64.82.82,0,0,0-.62-.22.86.86,0,0,0-.63.22.94.94,0,0,0-.19.64v2.58a.89.89,0,0,0,.2.64,1,1,0,0,0,1.24,0Z"/><path class="e" d="M593.22,605.83a1.67,1.67,0,0,1-.41-1.19v-2.58a1.61,1.61,0,0,1,.42-1.19,1.59,1.59,0,0,1,1.2-.42,1.45,1.45,0,0,1,1.62,1.61v2.58a1.61,1.61,0,0,1-.41,1.19,2,2,0,0,1-2.42,0Zm1.84-.55a.94.94,0,0,0,.2-.64v-2.58a.94.94,0,0,0-.2-.64.84.84,0,0,0-.63-.22.82.82,0,0,0-.62.22.89.89,0,0,0-.2.64v2.58a.89.89,0,0,0,.2.64.82.82,0,0,0,.62.22A.86.86,0,0,0,595.06,605.28Z"/><path class="e" d="M600.1,606.05a1.45,1.45,0,0,1-.6-.6,2.06,2.06,0,0,1-.2-1v-.67a2,2,0,0,1,.2-.94,1.37,1.37,0,0,1,.6-.59,2,2,0,0,1,.95-.21,2.35,2.35,0,0,1,.6.08,1.73,1.73,0,0,1,.5.22,1.38,1.38,0,0,1,.37.35l-.58.52a1.08,1.08,0,0,0-.4-.3,1.13,1.13,0,0,0-.48-.11,1,1,0,0,0-.71.26,1,1,0,0,0-.26.72v.67a1,1,0,0,0,.25.74.94.94,0,0,0,.72.27,1.14,1.14,0,0,0,.88-.44l.58.56a1.38,1.38,0,0,1-.38.34,1.62,1.62,0,0,1-.5.22,2.22,2.22,0,0,1-.59.07A2.12,2.12,0,0,1,600.1,606.05Z"/><path class="e" d="M603.4,602.14h.79v4.06h-.79Zm2.42,1.6a1,1,0,0,0-.21-.67.78.78,0,0,0-.6-.23.81.81,0,0,0-.6.21.73.73,0,0,0-.22.58l-.08-.78a1.46,1.46,0,0,1,.49-.57,1.22,1.22,0,0,1,.67-.2,1.3,1.3,0,0,1,.73.2,1.18,1.18,0,0,1,.46.56,2.4,2.4,0,0,1,.16.89v2.47h-.8Zm2.42,0a.93.93,0,0,0-.22-.67.85.85,0,0,0-.63-.23.73.73,0,0,0-.57.23.89.89,0,0,0-.2.64l-.16-.78a1.51,1.51,0,0,1,.5-.63,1.23,1.23,0,0,1,.69-.22,1.35,1.35,0,0,1,.75.2,1.16,1.16,0,0,1,.48.56,2.4,2.4,0,0,1,.16.89v2.47h-.8Z"/><path class="e" d="M585,615.58a1.34,1.34,0,0,1-.54-.49,2,2,0,0,1-.28-.77h.8a.75.75,0,0,0,.25.49.85.85,0,0,0,.54.17.72.72,0,0,0,.59-.25,1.1,1.1,0,0,0,.21-.72v-.48a1.1,1.1,0,0,0-.21-.72.72.72,0,0,0-.59-.25.83.83,0,0,0-.4.11,1.18,1.18,0,0,0-.34.33h-.72v-3h2.89v.76h-2.1V612a1,1,0,0,1,.34-.18.94.94,0,0,1,.37-.07,1.68,1.68,0,0,1,.84.2,1.29,1.29,0,0,1,.53.6,2.07,2.07,0,0,1,.19.94V614a2.25,2.25,0,0,1-.19.94,1.31,1.31,0,0,1-.55.59,1.69,1.69,0,0,1-.86.21A1.74,1.74,0,0,1,585,615.58Z"/><path class="e" d="M589,615.32a1.65,1.65,0,0,1-.41-1.19v-2.58a1.67,1.67,0,0,1,.41-1.19,2,2,0,0,1,2.42,0,1.65,1.65,0,0,1,.41,1.19v2.58a1.64,1.64,0,0,1-.41,1.19,1.92,1.92,0,0,1-2.42,0Zm1.83-.55a.89.89,0,0,0,.2-.64v-2.58a.88.88,0,0,0-.2-.63.78.78,0,0,0-.62-.22.82.82,0,0,0-.63.22.93.93,0,0,0-.2.63v2.58a.9.9,0,0,0,.21.64,1,1,0,0,0,1.24,0Z"/><path class="e" d="M593.22,615.32a1.65,1.65,0,0,1-.41-1.19v-2.58a1.67,1.67,0,0,1,.41-1.19,2,2,0,0,1,2.42,0,1.61,1.61,0,0,1,.41,1.19v2.58a1.64,1.64,0,0,1-.41,1.19,1.92,1.92,0,0,1-2.42,0Zm1.83-.55a.9.9,0,0,0,.21-.64v-2.58a.93.93,0,0,0-.2-.63.82.82,0,0,0-.63-.22.78.78,0,0,0-.62.22.88.88,0,0,0-.2.63v2.58a.89.89,0,0,0,.2.64,1,1,0,0,0,1.24,0Z"/><path class="e" d="M600.1,615.54a1.45,1.45,0,0,1-.6-.6,2,2,0,0,1-.21-1v-.67a2,2,0,0,1,.21-.94,1.45,1.45,0,0,1,.6-.6,2,2,0,0,1,.95-.2,2.22,2.22,0,0,1,.59.07,2,2,0,0,1,.51.22,1.76,1.76,0,0,1,.37.35l-.58.52a1.17,1.17,0,0,0-.4-.3,1.13,1.13,0,0,0-.48-.11.94.94,0,0,0-.71.26,1,1,0,0,0-.26.73V614a1.07,1.07,0,0,0,.25.74,1,1,0,0,0,.72.26,1.13,1.13,0,0,0,.48-.11,1.26,1.26,0,0,0,.4-.32l.58.55a1.42,1.42,0,0,1-.38.35,1.88,1.88,0,0,1-.5.21,2.27,2.27,0,0,1-.59.08A2,2,0,0,1,600.1,615.54Z"/><path class="e" d="M603.4,611.63h.79v4.06h-.79Zm2.42,1.6a1,1,0,0,0-.21-.66.75.75,0,0,0-.6-.24.81.81,0,0,0-.6.21.75.75,0,0,0-.22.58l-.08-.78a1.5,1.5,0,0,1,.49-.56,1.15,1.15,0,0,1,.67-.2,1.32,1.32,0,0,1,.73.19,1.28,1.28,0,0,1,.46.56,2.42,2.42,0,0,1,.15.9v2.46h-.79Zm2.42,0a.91.91,0,0,0-.22-.66.82.82,0,0,0-.63-.24.72.72,0,0,0-.57.23.9.9,0,0,0-.21.64l-.16-.78a1.51,1.51,0,0,1,.51-.62,1.16,1.16,0,0,1,.69-.22,1.37,1.37,0,0,1,.75.19,1.18,1.18,0,0,1,.47.56,2.22,2.22,0,0,1,.17.9v2.46h-.8Z"/><path class="c" d="M23.49,613.89A12.92,12.92,0,1,1,36.4,601,12.93,12.93,0,0,1,23.49,613.89Zm0-24.83A11.92,11.92,0,1,0,35.4,601,11.93,11.93,0,0,0,23.49,589.06Z"/><polygon class="d" points="35.77 588.74 9.42 600.98 35.77 613.21 32.02 600.98 35.77 588.74"/><path class="c" d="M36.58,614.14,8.23,601l28.35-13.17-4,13.17ZM10.61,601,35,612.29,31.5,601,35,589.66Z"/><path class="c" d="M2.52,605.19a5,5,0,0,1-1.11-.38,4.4,4.4,0,0,1-1-.64l.81-1a3.72,3.72,0,0,0,1.16.69,4.08,4.08,0,0,0,1.38.23,2.73,2.73,0,0,0,1.55-.38,1.17,1.17,0,0,0,.55-1.05h0a1.12,1.12,0,0,0-.25-.77,1.44,1.44,0,0,0-.64-.42,8.23,8.23,0,0,0-1-.25H3.89l-.1,0a9.48,9.48,0,0,1-1.5-.36,2.08,2.08,0,0,1-1-.73,2.42,2.42,0,0,1-.41-1.51h0a2.77,2.77,0,0,1,.38-1.47,2.44,2.44,0,0,1,1.12-.92,4.48,4.48,0,0,1,1.77-.32,4.6,4.6,0,0,1,1,.11,4.9,4.9,0,0,1,1.86.86l-.73,1a4.61,4.61,0,0,0-1-.58,3,3,0,0,0-1.06-.2,2.44,2.44,0,0,0-1.46.38,1.24,1.24,0,0,0-.53,1.07h0a1,1,0,0,0,.27.75,1.74,1.74,0,0,0,.67.4,9.3,9.3,0,0,0,1.12.27h.24a7.93,7.93,0,0,1,1.4.41,2.22,2.22,0,0,1,.94.76,2.4,2.4,0,0,1,.38,1.43h0a2.62,2.62,0,0,1-.4,1.45,2.54,2.54,0,0,1-1.16.91,4.8,4.8,0,0,1-1.83.31A6.44,6.44,0,0,1,2.52,605.19Z"/><rect class="c" x="612.5" y="600.68" width="1" height="4.68"/><rect class="c" x="612.5" y="590.76" width="1" height="4.68"/><rect class="c" x="612.5" y="611.45" width="1" height="5.24"/><rect class="c" x="789.58" y="611.45" width="1" height="5.24"/><rect class="c" x="682.59" y="600.68" width="1" height="4.68"/><rect class="c" x="647.3" y="590.76" width="1" height="4.68"/><rect class="a" width="790.34" height="618.13"/><line class="f" x1="235.35" y1="378.91" x2="232.55" y2="378.91"/><line class="f" x1="238.14" y1="431.29" x2="514.38" y2="431.29"/><line class="f" x1="238.14" y1="378.91" x2="238.14" y2="431.29"/><line class="f" x1="332.78" y1="378.91" x2="238.14" y2="378.91"/><line class="f" x1="332.78" y1="375.42" x2="332.78" y2="378.91"/><line class="f" x1="364.21" y1="375.42" x2="332.78" y2="375.42"/><line class="f" x1="364.21" y1="378.91" x2="364.21" y2="375.41"/><line class="f" x1="425.32" y1="378.91" x2="364.21" y2="378.91"/><line class="f" x1="425.32" y1="375.42" x2="425.32" y2="378.91"/><line class="f" x1="456.75" y1="375.42" x2="425.32" y2="375.42"/><line class="f" x1="456.75" y1="378.91" x2="456.75" y2="375.41"/><line class="f" x1="514.38" y1="378.91" x2="456.75" y2="378.91"/><line class="f" x1="514.38" y1="431.29" x2="514.38" y2="378.91"/><polygon class="g" points="528.35 191.72 549.3 191.72 549.3 254.93 528 254.93 528 213.03 439.21 213.03 439.21 191.72 528.35 191.72"/><line class="f" x1="549.3" y1="191.73" x2="528.34" y2="191.73"/><line class="f" x1="549.3" y1="254.93" x2="549.3" y2="191.73"/><line class="f" x1="528" y1="254.93" x2="549.3" y2="254.93"/><line class="f" x1="528" y1="213.03" x2="528" y2="254.93"/><line class="f" x1="439.21" y1="213.03" x2="528" y2="213.03"/><line class="f" x1="439.21" y1="191.73" x2="439.21" y2="213.03"/><line class="f" x1="528.34" y1="191.73" x2="439.21" y2="191.73"/><rect class="d" x="241.81" y="215.3" width="27.94" height="41.91"/><line class="f" x1="241.81" y1="215.3" x2="241.81" y2="257.2"/><line class="f" x1="269.75" y1="215.3" x2="241.81" y2="215.3"/><line class="f" x1="269.75" y1="257.2" x2="269.75" y2="215.3"/><line class="f" x1="241.81" y1="257.2" x2="269.75" y2="257.2"/><rect class="d" x="331.73" y="191.73" width="31.43" height="20.95"/><line class="f" x1="363.16" y1="212.68" x2="331.73" y2="212.68"/><line class="f" x1="331.73" y1="212.68" x2="331.73" y2="191.73"/><line class="f" x1="331.73" y1="191.73" x2="363.16" y2="191.73"/><line class="f" x1="363.16" y1="191.73" x2="363.16" y2="212.68"/><polygon class="h" points="549.3 183.34 558.03 183.34 558.03 192.07 558.03 378.91 549.3 378.91 549.3 183.34"/><rect x="364.21" y="371.92" width="61.11" height="6.99"/><polygon class="h" points="512.63 378.91 512.63 371.92 549.3 371.92 549.3 378.91 544.06 378.91 517.87 378.91 512.63 378.91"/><polygon class="h" points="232.55 378.91 232.55 371.92 262.94 371.92 262.94 378.91 236.74 378.91 232.55 378.91"/><rect x="365.96" y="364.94" width="57.62" height="6.98"/><rect x="232.55" y="364.94" width="28.64" height="6.98"/><rect x="514.37" y="364.94" width="34.92" height="6.98"/><rect x="408.56" y="183.34" width="140.74" height="8.38"/><polygon class="h" points="240.94 364.94 232.55 364.94 232.55 191.73 232.55 183.34 370.15 183.34 370.15 191.73 240.94 191.73 240.94 364.94"/><polygon class="h" points="342.21 260.52 240.94 260.52 240.94 258.08 329.29 258.08 329.29 249.35 331.73 249.35 331.73 258.08 342.21 258.08 342.21 260.52"/><polygon class="h" points="373.64 258.08 417.64 258.08 417.64 249.35 420.09 249.35 420.09 260.52 401.58 260.52 401.58 364.94 399.13 364.94 399.13 260.52 373.64 260.52 373.64 258.08"/><rect x="417.64" y="191.72" width="2.44" height="26.19"/><rect x="370.15" y="183.34" width="1.75" height="4.02"/><rect x="406.82" y="183.34" width="1.75" height="4.02"/><rect x="329.29" y="191.72" width="2.44" height="29.68"/><rect x="240.93" y="210.93" width="27.94" height="3.49"/><rect x="265.38" y="191.73" width="3.49" height="19.21"/><polygon class="h" points="420.09 209.19 435.8 209.19 435.8 191.72 439.29 191.72 439.29 212.68 420.09 212.68 420.09 209.19"/><rect x="236.74" y="378.91" width="1.4" height="52.38"/><line class="f" x1="549.3" y1="191.73" x2="549.3" y2="364.94"/><line class="f" x1="232.55" y1="378.91" x2="236.74" y2="378.91"/><line class="f" x1="236.74" y1="378.91" x2="262.94" y2="378.91"/><line class="f" x1="364.21" y1="378.91" x2="425.32" y2="378.91"/><line class="f" x1="365.96" y1="364.94" x2="399.13" y2="364.94"/><line class="f" x1="401.58" y1="364.94" x2="423.58" y2="364.94"/><line class="f" x1="512.63" y1="378.91" x2="517.87" y2="378.91"/><line class="f" x1="517.87" y1="378.91" x2="544.06" y2="378.91"/><line class="f" x1="514.38" y1="364.94" x2="549.3" y2="364.94"/><line class="f" x1="261.19" y1="364.94" x2="261.19" y2="371.92"/><line class="f" x1="240.94" y1="364.94" x2="261.19" y2="364.94"/><line class="f" x1="261.19" y1="371.92" x2="261.19" y2="364.94"/><line class="f" x1="365.96" y1="371.92" x2="365.96" y2="364.94"/><line class="f" x1="423.58" y1="371.92" x2="423.58" y2="364.94"/><line class="f" x1="514.38" y1="371.92" x2="514.38" y2="364.94"/><line class="f" x1="238.14" y1="378.91" x2="238.14" y2="431.29"/><line class="f" x1="238.14" y1="431.29" x2="236.74" y2="431.29"/><line class="f" x1="512.63" y1="371.92" x2="512.63" y2="378.91"/><line class="f" x1="514.38" y1="371.92" x2="512.63" y2="371.92"/><line class="f" x1="364.21" y1="371.92" x2="364.21" y2="378.91"/><line class="f" x1="365.96" y1="371.92" x2="364.21" y2="371.92"/><line class="f" x1="425.32" y1="371.92" x2="425.32" y2="378.91"/><line class="f" x1="425.32" y1="371.92" x2="423.58" y2="371.92"/><line class="f" x1="262.94" y1="371.92" x2="262.94" y2="378.91"/><line class="f" x1="262.94" y1="371.92" x2="261.19" y2="371.92"/><line class="f" x1="558.03" y1="192.07" x2="558.03" y2="378.91"/><line class="f" x1="558.03" y1="192.07" x2="558.03" y2="192.07"/><line class="f" x1="514.38" y1="378.91" x2="514.38" y2="431.29"/><line class="f" x1="558.03" y1="246.2" x2="558.03" y2="246.2"/><line class="f" x1="558.03" y1="256.68" x2="558.03" y2="256.68"/><line class="f" x1="558.03" y1="267.16" x2="558.03" y2="267.16"/><line class="f" x1="558.03" y1="277.63" x2="558.03" y2="277.63"/><line class="f" x1="558.03" y1="288.11" x2="558.03" y2="288.11"/><line class="f" x1="558.03" y1="298.59" x2="558.03" y2="298.59"/><line class="f" x1="558.03" y1="309.06" x2="558.03" y2="309.06"/><line class="f" x1="558.03" y1="319.54" x2="558.03" y2="319.54"/><line class="f" x1="558.03" y1="330.02" x2="558.03" y2="330.02"/><line class="f" x1="514.38" y1="431.29" x2="236.74" y2="431.29"/><line class="f" x1="261.19" y1="364.94" x2="331.03" y2="364.94"/><line class="f" x1="331.03" y1="364.94" x2="365.96" y2="364.94"/><line class="f" x1="514.38" y1="364.94" x2="458.5" y2="364.94"/><line class="f" x1="458.5" y1="364.94" x2="423.58" y2="364.94"/><line class="f" x1="512.63" y1="378.91" x2="456.75" y2="378.91"/><line class="f" x1="458.5" y1="364.94" x2="458.5" y2="371.92"/><line class="f" x1="456.75" y1="371.92" x2="456.75" y2="378.91"/><line class="f" x1="456.75" y1="375.42" x2="425.32" y2="375.42"/><line class="f" x1="455.71" y1="371.22" x2="455.71" y2="371.92"/><line class="f" x1="455.71" y1="371.92" x2="458.5" y2="371.92"/><line class="f" x1="458.5" y1="371.92" x2="458.5" y2="369.13"/><line class="f" x1="458.5" y1="369.13" x2="457.1" y2="369.13"/><line class="f" x1="457.1" y1="368.43" x2="454.31" y2="368.43"/><line class="f" x1="454.31" y1="368.43" x2="454.31" y2="371.23"/><line class="f" x1="454.31" y1="371.22" x2="457.1" y2="371.22"/><line class="f" x1="457.1" y1="371.22" x2="457.1" y2="368.43"/><line class="f" x1="424.98" y1="368.43" x2="427.77" y2="368.43"/><line class="f" x1="427.77" y1="368.43" x2="427.77" y2="371.23"/><line class="f" x1="427.77" y1="371.22" x2="424.97" y2="371.22"/><line class="f" x1="424.98" y1="371.22" x2="424.98" y2="368.43"/><line class="f" x1="454.31" y1="368.43" x2="427.77" y2="368.43"/><line class="f" x1="427.77" y1="371.22" x2="454.31" y2="371.22"/><line class="f" x1="454.31" y1="369.83" x2="427.77" y2="369.83"/><line class="f" x1="426.37" y1="371.22" x2="426.37" y2="371.92"/><line class="f" x1="426.37" y1="371.92" x2="423.58" y2="371.92"/><line class="f" x1="423.58" y1="371.92" x2="423.58" y2="369.13"/><line class="f" x1="423.58" y1="369.13" x2="424.98" y2="369.13"/><line class="f" x1="458.5" y1="369.13" x2="461.29" y2="369.13"/><line class="f" x1="461.29" y1="369.13" x2="461.29" y2="371.92"/><line class="f" x1="461.29" y1="371.92" x2="458.5" y2="371.92"/><line class="f" x1="458.5" y1="371.92" x2="458.5" y2="369.13"/><line class="f" x1="461.29" y1="369.13" x2="485.04" y2="369.13"/><line class="f" x1="461.29" y1="370.53" x2="485.04" y2="370.53"/><line class="f" x1="461.29" y1="371.92" x2="485.04" y2="371.92"/><line class="f" x1="511.58" y1="371.22" x2="511.58" y2="371.92"/><line class="f" x1="511.58" y1="371.92" x2="514.38" y2="371.92"/><line class="f" x1="514.38" y1="371.92" x2="514.38" y2="369.13"/><line class="f" x1="514.38" y1="369.13" x2="512.98" y2="369.13"/><line class="f" x1="512.98" y1="368.43" x2="510.18" y2="368.43"/><line class="f" x1="510.18" y1="368.43" x2="510.18" y2="371.23"/><line class="f" x1="510.18" y1="371.22" x2="512.98" y2="371.22"/><line class="f" x1="512.98" y1="371.22" x2="512.98" y2="368.43"/><line class="f" x1="510.18" y1="368.43" x2="489.23" y2="368.43"/><line class="f" x1="489.23" y1="371.22" x2="510.18" y2="371.22"/><line class="f" x1="510.18" y1="369.83" x2="489.23" y2="369.83"/><line class="f" x1="262.94" y1="378.91" x2="332.78" y2="378.91"/><line class="f" x1="331.03" y1="364.94" x2="331.03" y2="371.92"/><line class="f" x1="332.78" y1="371.92" x2="332.78" y2="378.91"/><line class="f" x1="332.78" y1="375.42" x2="364.21" y2="375.42"/><line class="f" x1="333.83" y1="371.22" x2="333.83" y2="371.92"/><line class="f" x1="333.83" y1="371.92" x2="331.03" y2="371.92"/><line class="f" x1="331.03" y1="371.92" x2="331.03" y2="369.13"/><line class="f" x1="331.03" y1="369.13" x2="332.43" y2="369.13"/><line class="f" x1="332.43" y1="368.43" x2="335.23" y2="368.43"/><line class="f" x1="335.23" y1="368.43" x2="335.23" y2="371.23"/><line class="f" x1="335.23" y1="371.22" x2="332.43" y2="371.22"/><line class="f" x1="332.43" y1="371.22" x2="332.43" y2="368.43"/><line class="f" x1="364.56" y1="368.43" x2="361.77" y2="368.43"/><line class="f" x1="361.77" y1="368.43" x2="361.77" y2="371.23"/><line class="f" x1="361.77" y1="371.22" x2="364.56" y2="371.22"/><line class="f" x1="364.56" y1="371.22" x2="364.56" y2="368.43"/><line class="f" x1="335.23" y1="368.43" x2="361.77" y2="368.43"/><line class="f" x1="361.77" y1="371.22" x2="335.23" y2="371.22"/><line class="f" x1="335.23" y1="369.83" x2="361.77" y2="369.83"/><line class="f" x1="363.16" y1="371.22" x2="363.16" y2="371.92"/><line class="f" x1="363.16" y1="371.92" x2="365.96" y2="371.92"/><line class="f" x1="365.96" y1="371.92" x2="365.96" y2="369.13"/><line class="f" x1="365.96" y1="369.13" x2="364.56" y2="369.13"/><line class="f" x1="263.98" y1="371.22" x2="263.98" y2="371.92"/><line class="f" x1="263.98" y1="371.92" x2="261.19" y2="371.92"/><line class="f" x1="261.19" y1="371.92" x2="261.19" y2="369.13"/><line class="f" x1="261.19" y1="369.13" x2="262.59" y2="369.13"/><line class="f" x1="262.59" y1="368.43" x2="265.38" y2="368.43"/><line class="f" x1="265.38" y1="368.43" x2="265.38" y2="371.23"/><line class="f" x1="265.38" y1="371.22" x2="262.59" y2="371.22"/><line class="f" x1="262.59" y1="371.22" x2="262.59" y2="368.43"/><line class="f" x1="294.71" y1="371.22" x2="294.71" y2="371.92"/><line class="f" x1="294.71" y1="371.92" x2="297.51" y2="371.92"/><line class="f" x1="297.51" y1="371.92" x2="297.51" y2="369.13"/><line class="f" x1="297.51" y1="369.13" x2="296.11" y2="369.13"/><line class="f" x1="296.11" y1="368.43" x2="293.32" y2="368.43"/><line class="f" x1="293.32" y1="368.43" x2="293.32" y2="371.23"/><line class="f" x1="293.32" y1="371.22" x2="296.11" y2="371.22"/><line class="f" x1="296.11" y1="371.22" x2="296.11" y2="368.43"/><line class="f" x1="265.38" y1="368.43" x2="293.32" y2="368.43"/><line class="f" x1="293.32" y1="371.22" x2="265.38" y2="371.22"/><line class="f" x1="265.38" y1="369.83" x2="293.32" y2="369.83"/><line class="f" x1="331.03" y1="369.13" x2="328.24" y2="369.13"/><line class="f" x1="328.24" y1="369.13" x2="328.24" y2="371.92"/><line class="f" x1="328.24" y1="371.92" x2="331.04" y2="371.92"/><line class="f" x1="331.03" y1="371.92" x2="331.03" y2="369.13"/><line class="f" x1="328.24" y1="369.13" x2="297.51" y2="369.13"/><line class="f" x1="328.24" y1="370.53" x2="297.51" y2="370.53"/><line class="f" x1="328.24" y1="371.92" x2="297.51" y2="371.92"/><line class="f" x1="487.83" y1="371.22" x2="487.83" y2="371.92"/><line class="f" x1="487.83" y1="371.92" x2="485.04" y2="371.92"/><line class="f" x1="485.04" y1="371.92" x2="485.04" y2="369.13"/><line class="f" x1="485.04" y1="369.13" x2="486.44" y2="369.13"/><line class="f" x1="486.44" y1="368.43" x2="489.23" y2="368.43"/><line class="f" x1="489.23" y1="368.43" x2="489.23" y2="371.23"/><line class="f" x1="489.23" y1="371.22" x2="486.44" y2="371.22"/><line class="f" x1="486.44" y1="371.22" x2="486.44" y2="368.43"/><line class="f" x1="240.94" y1="364.94" x2="240.94" y2="260.52"/><line class="f" x1="240.94" y1="258.08" x2="329.29" y2="258.08"/><line class="f" x1="331.73" y1="258.08" x2="342.21" y2="258.08"/><line class="f" x1="373.64" y1="258.08" x2="417.64" y2="258.08"/><line class="f" x1="240.94" y1="260.52" x2="342.21" y2="260.52"/><line class="f" x1="373.64" y1="260.52" x2="399.13" y2="260.52"/><line class="f" x1="401.58" y1="260.52" x2="420.09" y2="260.52"/><line class="f" x1="439.29" y1="191.73" x2="549.3" y2="191.73"/><line class="f" x1="329.29" y1="258.08" x2="329.29" y2="249.35"/><line class="f" x1="329.29" y1="221.41" x2="329.29" y2="191.73"/><line class="f" x1="331.73" y1="258.08" x2="331.73" y2="249.35"/><line class="f" x1="331.73" y1="221.41" x2="331.73" y2="191.73"/><line class="f" x1="401.58" y1="364.94" x2="401.58" y2="260.52"/><line class="f" x1="417.64" y1="258.08" x2="417.64" y2="249.35"/><line class="f" x1="417.64" y1="217.92" x2="417.64" y2="191.72"/><line class="f" x1="420.09" y1="260.52" x2="420.09" y2="249.35"/><line class="f" x1="420.09" y1="217.92" x2="420.09" y2="212.68"/><line class="f" x1="399.13" y1="364.94" x2="399.13" y2="260.52"/><line class="f" x1="371.89" y1="187.36" x2="371.89" y2="183.34"/><line class="f" x1="406.82" y1="187.36" x2="406.82" y2="183.34"/><line class="f" x1="406.82" y1="187.36" x2="408.56" y2="187.36"/><line class="f" x1="371.89" y1="187.36" x2="370.15" y2="187.36"/><line class="f" x1="370.15" y1="187.36" x2="370.15" y2="191.72"/><line class="f" x1="408.56" y1="187.36" x2="408.56" y2="191.72"/><line class="f" x1="331.73" y1="249.35" x2="329.29" y2="249.35"/><line class="f" x1="331.73" y1="221.41" x2="329.29" y2="221.41"/><line class="f" x1="373.64" y1="258.08" x2="373.64" y2="260.52"/><line class="f" x1="342.21" y1="258.08" x2="342.21" y2="260.52"/><line class="f" x1="439.29" y1="212.68" x2="439.29" y2="191.73"/><line class="f" x1="420.09" y1="217.92" x2="417.64" y2="217.92"/><line class="f" x1="420.09" y1="249.35" x2="417.64" y2="249.35"/><line class="f" x1="417.64" y1="191.73" x2="408.56" y2="191.73"/><line class="f" x1="424.98" y1="368.43" x2="424.98" y2="336.3"/><g class="i"><path class="f" d="M425,336.3a32.13,32.13,0,0,1,32.12,32.13"/></g><line class="f" x1="364.56" y1="368.43" x2="364.56" y2="336.3"/><g class="i"><path class="f" d="M332.43,368.43a32.14,32.14,0,0,1,32.13-32.13"/></g><line class="f" x1="439.21" y1="212.68" x2="420.09" y2="212.68"/><line class="f" x1="420.09" y1="209.19" x2="435.8" y2="209.19"/><line class="f" x1="435.8" y1="209.19" x2="435.8" y2="191.73"/><line class="f" x1="435.8" y1="191.73" x2="420.09" y2="191.73"/><line class="f" x1="420.09" y1="191.73" x2="420.09" y2="209.19"/><line class="f" x1="523.46" y1="213.03" x2="523.46" y2="191.72"/><line class="f" x1="523.46" y1="191.73" x2="502.5" y2="191.73"/><line class="f" x1="502.5" y1="191.73" x2="502.5" y2="213.03"/><line class="f" x1="502.5" y1="213.03" x2="523.46" y2="213.03"/><g class="i"><path class="f" d="M519.09,202.55a6.11,6.11,0,1,0-6.11,6.11,6.11,6.11,0,0,0,6.11-6.11"/><path class="f" d="M518,202.55a5.06,5.06,0,1,0-5.06,5.06,5.05,5.05,0,0,0,5.06-5.06"/></g><line class="f" x1="447.65" y1="200.08" x2="452.59" y2="205.02"/><line class="f" x1="452.59" y1="200.08" x2="447.65" y2="205.02"/><line class="f" x1="450.12" y1="206.04" x2="450.12" y2="199.06"/><line class="f" x1="446.63" y1="202.55" x2="453.61" y2="202.55"/><line class="f" x1="460.6" y1="192.07" x2="460.6" y2="213.03"/><line class="f" x1="439.64" y1="213.03" x2="460.6" y2="213.03"/><line class="f" x1="461.47" y1="211.28" x2="480.68" y2="211.28"/><line class="f" x1="480.68" y1="211.28" x2="480.68" y2="193.82"/><line class="f" x1="480.68" y1="193.82" x2="461.47" y2="193.82"/><line class="f" x1="461.47" y1="193.82" x2="461.47" y2="211.28"/><line class="f" x1="460.6" y1="213.03" x2="481.55" y2="213.03"/><line class="f" x1="463.22" y1="209.54" x2="478.93" y2="209.54"/><line class="f" x1="478.93" y1="209.54" x2="478.93" y2="197.31"/><line class="f" x1="478.93" y1="197.31" x2="463.22" y2="197.31"/><line class="f" x1="463.22" y1="197.31" x2="463.22" y2="209.53"/><g class="i"><path class="f" d="M471.77,200.8a.7.7,0,1,0-.7.7.69.69,0,0,0,.7-.7"/></g><line class="f" x1="481.55" y1="192.07" x2="481.55" y2="213.03"/><line class="f" x1="481.55" y1="213.03" x2="502.5" y2="213.03"/><line class="f" x1="502.5" y1="213.03" x2="502.5" y2="192.07"/><line class="f" x1="528" y1="254.93" x2="548.95" y2="254.93"/><g class="i"><path class="f" d="M547,229a3.43,3.43,0,1,0-3.42,3.43A3.43,3.43,0,0,0,547,229"/></g><line class="f" x1="548.95" y1="223.68" x2="528" y2="223.68"/><line class="f" x1="528" y1="223.68" x2="528" y2="244.63"/><line class="f" x1="528" y1="244.63" x2="548.95" y2="244.63"/><g class="i"><path class="f" d="M536.76,229a3.43,3.43,0,1,0-3.43,3.43,3.44,3.44,0,0,0,3.43-3.43"/><path class="f" d="M536.76,239.3a3.43,3.43,0,1,0-3.43,3.43,3.43,3.43,0,0,0,3.43-3.43"/></g><line class="f" x1="527.04" y1="241.77" x2="527.04" y2="226.53"/><line class="f" x1="549.3" y1="254.93" x2="549.3" y2="191.73"/><line class="f" x1="549.3" y1="191.73" x2="439.29" y2="191.73"/><line class="f" x1="439.29" y1="191.73" x2="439.29" y2="213.03"/><line class="f" x1="439.29" y1="213.03" x2="528" y2="213.03"/><line class="f" x1="528" y1="213.03" x2="528" y2="254.93"/><line class="f" x1="528" y1="254.93" x2="549.3" y2="254.93"/><line class="f" x1="370.15" y1="191.73" x2="331.73" y2="191.73"/><g class="i"><path class="f" d="M247.92,220.54a.88.88,0,1,0-.87.87.87.87,0,0,0,.87-.87"/></g><line class="f" x1="269.75" y1="215.3" x2="269.75" y2="257.2"/><line class="f" x1="269.75" y1="257.2" x2="241.81" y2="257.2"/><line class="f" x1="241.81" y1="257.2" x2="241.81" y2="215.3"/><line class="f" x1="241.81" y1="215.3" x2="269.75" y2="215.3"/><line class="f" x1="268" y1="220.54" x2="268" y2="251.97"/><line class="f" x1="264.51" y1="255.46" x2="247.05" y2="255.46"/><line class="f" x1="243.55" y1="251.97" x2="243.55" y2="220.54"/><line class="f" x1="247.05" y1="217.04" x2="264.51" y2="217.04"/><g class="i"><path class="f" d="M264.51,217a3.49,3.49,0,0,1,3.49,3.49"/><path class="f" d="M268,252a3.49,3.49,0,0,1-3.49,3.49"/><path class="f" d="M243.55,220.54a3.5,3.5,0,0,1,3.5-3.5"/><path class="f" d="M247.05,255.46a3.49,3.49,0,0,1-3.49-3.49"/></g><line class="f" x1="268.87" y1="196.96" x2="329.29" y2="196.96"/><line class="f" x1="275.51" y1="257.2" x2="275.51" y2="253.71"/><line class="f" x1="275.51" y1="253.71" x2="296.46" y2="253.71"/><line class="f" x1="296.46" y1="253.71" x2="296.46" y2="257.2"/><line class="f" x1="296.46" y1="257.2" x2="295.41" y2="257.2"/><line class="f" x1="295.41" y1="257.2" x2="295.41" y2="254.76"/><line class="f" x1="295.41" y1="254.76" x2="276.56" y2="254.76"/><line class="f" x1="276.56" y1="254.76" x2="276.56" y2="257.2"/><line class="f" x1="276.56" y1="257.2" x2="275.51" y2="257.2"/><line class="f" x1="275.51" y1="257.2" x2="275.51" y2="253.71"/><line class="f" x1="296.46" y1="257.2" x2="296.46" y2="253.71"/><line class="f" x1="276.56" y1="257.2" x2="276.56" y2="254.76"/><line class="f" x1="295.41" y1="257.2" x2="295.41" y2="254.76"/><line class="f" x1="275.51" y1="253.71" x2="296.46" y2="253.71"/><line class="f" x1="275.51" y1="254.76" x2="296.46" y2="254.76"/><line class="f" x1="275.51" y1="257.2" x2="276.56" y2="257.2"/><line class="f" x1="295.41" y1="257.2" x2="296.46" y2="257.2"/><line class="f" x1="265.38" y1="210.93" x2="265.38" y2="191.73"/><line class="f" x1="265.38" y1="191.73" x2="240.94" y2="191.73"/><line class="f" x1="240.94" y1="191.73" x2="240.94" y2="210.93"/><line class="f" x1="240.94" y1="210.93" x2="265.38" y2="210.93"/><line class="f" x1="240.94" y1="214.42" x2="268.87" y2="214.42"/><line class="f" x1="268.87" y1="214.42" x2="268.87" y2="210.93"/><line class="f" x1="268.87" y1="214.42" x2="268.87" y2="191.73"/><line class="f" x1="265.38" y1="210.93" x2="268.87" y2="210.93"/><line class="f" x1="240.94" y1="214.42" x2="240.94" y2="258.08"/><line class="f" x1="265.38" y1="196.96" x2="268.87" y2="196.96"/><line class="f" x1="329.29" y1="191.73" x2="268.87" y2="191.73"/><line class="f" x1="558.03" y1="235.73" x2="558.03" y2="235.73"/><line class="f" x1="558.03" y1="340.49" x2="558.03" y2="340.49"/><line class="f" x1="420.09" y1="212.68" x2="420.09" y2="209.19"/><line class="f" x1="371.89" y1="260.52" x2="343.96" y2="260.52"/><line class="f" x1="371.89" y1="260.52" x2="371.89" y2="288.46"/><g class="i"><path class="f" d="M371.89,288.46A27.93,27.93,0,0,1,344,260.52"/></g><line class="f" x1="371.89" y1="258.08" x2="371.89" y2="260.52"/><line class="f" x1="343.96" y1="260.52" x2="343.96" y2="258.08"/><line class="f" x1="343.96" y1="260.52" x2="342.21" y2="260.52"/><line class="f" x1="343.96" y1="258.08" x2="342.21" y2="258.08"/><line class="f" x1="373.64" y1="260.52" x2="371.89" y2="260.52"/><line class="f" x1="373.64" y1="258.08" x2="371.89" y2="258.08"/><line class="f" x1="371.89" y1="258.08" x2="364.91" y2="258.08"/><line class="f" x1="361.07" y1="258.08" x2="360.28" y2="258.08"/><line class="f" x1="356.44" y1="258.08" x2="355.65" y2="258.08"/><line class="f" x1="351.81" y1="258.08" x2="350.94" y2="258.08"/><line class="f" x1="350.94" y1="258.08" x2="343.96" y2="258.08"/><line class="f" x1="371.89" y1="260.52" x2="371.89" y2="261.39"/><line class="f" x1="371.89" y1="261.39" x2="375.38" y2="261.39"/><line class="f" x1="375.39" y1="261.39" x2="375.39" y2="260.52"/><line class="f" x1="371.89" y1="258.08" x2="371.89" y2="257.2"/><line class="f" x1="371.89" y1="257.2" x2="375.38" y2="257.2"/><line class="f" x1="375.39" y1="257.2" x2="375.39" y2="258.08"/><line class="f" x1="343.96" y1="261.39" x2="340.46" y2="261.39"/><line class="f" x1="340.46" y1="261.39" x2="340.46" y2="260.52"/><line class="f" x1="343.96" y1="258.08" x2="343.96" y2="257.2"/><line class="f" x1="343.96" y1="257.2" x2="340.46" y2="257.2"/><line class="f" x1="340.46" y1="257.2" x2="340.46" y2="258.08"/><line class="f" x1="405.07" y1="187.36" x2="373.64" y2="187.36"/><line class="f" x1="405.07" y1="187.36" x2="405.07" y2="218.79"/><g class="i"><path class="f" d="M405.07,218.79a31.43,31.43,0,0,1-31.43-31.43"/></g><line class="f" x1="405.07" y1="183.34" x2="405.07" y2="187.36"/><line class="f" x1="373.64" y1="187.36" x2="373.64" y2="183.34"/><line class="f" x1="373.64" y1="187.36" x2="371.89" y2="187.36"/><line class="f" x1="406.82" y1="187.36" x2="405.07" y2="187.36"/><line class="f" x1="420.09" y1="247.6" x2="420.09" y2="219.66"/><line class="f" x1="420.09" y1="247.6" x2="448.02" y2="247.6"/><g class="i"><path class="f" d="M420.09,219.66A27.94,27.94,0,0,1,448,247.6"/></g><line class="f" x1="417.64" y1="247.6" x2="420.09" y2="247.6"/><line class="f" x1="420.09" y1="219.66" x2="417.64" y2="219.66"/><line class="f" x1="420.09" y1="219.66" x2="420.09" y2="217.92"/><line class="f" x1="417.64" y1="219.66" x2="417.64" y2="217.92"/><line class="f" x1="420.09" y1="249.35" x2="420.09" y2="247.6"/><line class="f" x1="417.64" y1="249.35" x2="417.64" y2="247.6"/><line class="f" x1="417.64" y1="247.6" x2="417.64" y2="240.62"/><line class="f" x1="417.64" y1="236.77" x2="417.64" y2="235.99"/><line class="f" x1="417.64" y1="232.15" x2="417.64" y2="231.36"/><line class="f" x1="417.64" y1="227.52" x2="417.64" y2="226.65"/><line class="f" x1="417.64" y1="226.65" x2="417.64" y2="219.66"/><line class="f" x1="420.09" y1="247.6" x2="420.96" y2="247.6"/><line class="f" x1="420.96" y1="247.6" x2="420.96" y2="251.09"/><line class="f" x1="420.96" y1="251.09" x2="420.09" y2="251.09"/><line class="f" x1="417.64" y1="247.6" x2="416.77" y2="247.6"/><line class="f" x1="416.77" y1="247.6" x2="416.77" y2="251.09"/><line class="f" x1="416.77" y1="251.09" x2="417.64" y2="251.09"/><line class="f" x1="420.96" y1="219.66" x2="420.96" y2="216.17"/><line class="f" x1="420.96" y1="216.17" x2="420.09" y2="216.17"/><line class="f" x1="417.64" y1="219.66" x2="416.77" y2="219.66"/><line class="f" x1="416.77" y1="219.66" x2="416.77" y2="216.17"/><line class="f" x1="416.77" y1="216.17" x2="417.64" y2="216.17"/><line class="f" x1="331.73" y1="247.6" x2="331.73" y2="223.15"/><line class="f" x1="331.73" y1="247.6" x2="356.18" y2="247.6"/><g class="i"><path class="f" d="M331.73,223.15a24.45,24.45,0,0,1,24.45,24.45"/></g><line class="f" x1="329.29" y1="247.6" x2="331.73" y2="247.6"/><line class="f" x1="331.73" y1="223.15" x2="329.29" y2="223.15"/><line class="f" x1="331.73" y1="223.15" x2="331.73" y2="221.41"/><line class="f" x1="329.29" y1="223.15" x2="329.29" y2="221.41"/><line class="f" x1="331.73" y1="249.35" x2="331.73" y2="247.6"/><line class="f" x1="329.29" y1="249.35" x2="329.29" y2="247.6"/><line class="f" x1="329.29" y1="247.6" x2="329.29" y2="240.62"/><line class="f" x1="329.29" y1="236.77" x2="329.29" y2="235.99"/><line class="f" x1="329.29" y1="232.15" x2="329.29" y2="231.36"/><line class="f" x1="329.29" y1="230.14" x2="329.29" y2="223.16"/><line class="f" x1="331.73" y1="247.6" x2="332.61" y2="247.6"/><line class="f" x1="332.61" y1="247.6" x2="332.61" y2="251.09"/><line class="f" x1="332.61" y1="251.09" x2="331.73" y2="251.09"/><line class="f" x1="329.29" y1="247.6" x2="328.42" y2="247.6"/><line class="f" x1="328.42" y1="247.6" x2="328.42" y2="251.09"/><line class="f" x1="328.42" y1="251.09" x2="329.29" y2="251.09"/><line class="f" x1="332.61" y1="223.15" x2="332.61" y2="219.66"/><line class="f" x1="332.61" y1="219.66" x2="331.73" y2="219.66"/><line class="f" x1="329.29" y1="223.15" x2="328.42" y2="223.15"/><line class="f" x1="328.42" y1="223.15" x2="328.42" y2="219.66"/><line class="f" x1="328.42" y1="219.66" x2="329.29" y2="219.66"/><line class="f" x1="282.49" y1="363.19" x2="310.43" y2="363.19"/><line class="f" x1="310.43" y1="363.19" x2="310.43" y2="360.99"/><line class="f" x1="310.43" y1="360.99" x2="282.49" y2="360.99"/><line class="f" x1="282.49" y1="360.99" x2="282.49" y2="363.19"/><line class="f" x1="464.09" y1="363.19" x2="512.98" y2="363.19"/><line class="f" x1="512.98" y1="363.19" x2="512.98" y2="359.7"/><line class="f" x1="512.98" y1="359.7" x2="464.09" y2="359.7"/><line class="f" x1="464.09" y1="359.7" x2="464.09" y2="363.19"/><g class="i"><path class="f" d="M462.34,361.45a1.75,1.75,0,1,0-1.74,1.74,1.74,1.74,0,0,0,1.74-1.74"/><path class="f" d="M280.75,362.09a1.75,1.75,0,1,0-1.75,1.75,1.74,1.74,0,0,0,1.75-1.75"/></g><line class="f" x1="456.75" y1="378.91" x2="449.77" y2="378.91"/><line class="f" x1="445.93" y1="378.91" x2="445.14" y2="378.91"/><line class="f" x1="441.3" y1="378.91" x2="440.52" y2="378.91"/><line class="f" x1="436.67" y1="378.91" x2="432.31" y2="378.91"/><line class="f" x1="432.31" y1="378.91" x2="425.32" y2="378.91"/><line class="f" x1="364.21" y1="378.91" x2="357.23" y2="378.91"/><line class="f" x1="353.38" y1="378.91" x2="352.6" y2="378.91"/><line class="f" x1="348.76" y1="378.91" x2="347.97" y2="378.91"/><line class="f" x1="344.13" y1="378.91" x2="339.77" y2="378.91"/><line class="f" x1="339.77" y1="378.91" x2="332.78" y2="378.91"/><line class="f" x1="420.09" y1="209.19" x2="435.8" y2="209.19"/><line class="f" x1="435.8" y1="209.19" x2="435.8" y2="191.73"/><line class="f" x1="435.8" y1="191.73" x2="432.31" y2="205.69"/><line class="f" x1="432.31" y1="205.69" x2="420.09" y2="209.19"/><line class="f" x1="240.94" y1="210.93" x2="261.57" y2="207.43"/><line class="f" x1="261.57" y1="207.43" x2="265.38" y2="191.72"/><line class="f" x1="265.38" y1="191.73" x2="265.38" y2="210.93"/><line class="f" x1="265.38" y1="210.93" x2="240.94" y2="210.93"/><rect class="d" x="492.72" y="295.09" width="17.46" height="27.94"/><line class="f" x1="492.72" y1="323.03" x2="510.19" y2="323.03"/><line class="f" x1="492.72" y1="295.09" x2="492.72" y2="323.03"/><line class="f" x1="510.18" y1="295.09" x2="492.72" y2="295.09"/><line class="f" x1="510.18" y1="323.03" x2="510.18" y2="295.09"/><rect class="d" x="401.58" y="260.52" width="17.46" height="104.42"/><line class="f" x1="419.04" y1="364.94" x2="401.58" y2="364.94"/><line class="f" x1="401.58" y1="364.94" x2="401.58" y2="260.52"/><line class="f" x1="401.58" y1="260.52" x2="419.04" y2="260.52"/><line class="f" x1="419.04" y1="260.52" x2="419.04" y2="364.94"/><rect class="d" x="268.87" y="191.72" width="60.42" height="5.24"/><line class="f" x1="268.87" y1="191.73" x2="268.87" y2="196.96"/><line class="f" x1="329.29" y1="191.73" x2="268.87" y2="191.73"/><line class="f" x1="329.29" y1="196.96" x2="329.29" y2="191.73"/><line class="f" x1="268.87" y1="196.96" x2="329.29" y2="196.96"/><rect class="d" x="295.41" y="254.76" width="1.05" height="2.44"/><line class="f" x1="296.46" y1="257.2" x2="296.46" y2="254.76"/><line class="f" x1="295.41" y1="257.2" x2="296.46" y2="257.2"/><line class="f" x1="295.41" y1="254.76" x2="295.41" y2="257.2"/><line class="f" x1="296.46" y1="254.76" x2="295.41" y2="254.76"/><polygon class="d" points="275.51 253.71 275.51 254.76 295.41 254.76 296.46 254.76 296.46 253.71 275.51 253.71"/><line class="f" x1="275.51" y1="253.71" x2="275.51" y2="254.76"/><line class="f" x1="296.46" y1="253.71" x2="275.51" y2="253.71"/><line class="f" x1="296.46" y1="254.76" x2="296.46" y2="253.71"/><line class="f" x1="295.41" y1="254.76" x2="296.46" y2="254.76"/><line class="f" x1="275.51" y1="254.76" x2="295.41" y2="254.76"/><rect class="d" x="275.51" y="254.76" width="1.05" height="2.44"/><line class="f" x1="275.51" y1="254.76" x2="275.51" y2="257.2"/><line class="f" x1="276.56" y1="254.76" x2="275.51" y2="254.76"/><line class="f" x1="276.56" y1="257.2" x2="276.56" y2="254.76"/><line class="f" x1="275.51" y1="257.2" x2="276.56" y2="257.2"/><polygon class="g" points="280.75 362.09 280.24 363.33 279 363.84 277.77 363.33 277.25 362.09 277.77 360.86 279 360.35 280.24 360.86 280.75 362.09"/><g class="i"><path class="f" d="M280.75,362.09a1.75,1.75,0,1,1-3.49,0"/><path class="f" d="M277.25,362.09a1.75,1.75,0,0,1,3.5,0"/></g><rect class="d" x="282.49" y="360.99" width="27.94" height="2.2"/><line class="f" x1="282.49" y1="363.19" x2="310.43" y2="363.19"/><line class="f" x1="282.49" y1="360.99" x2="282.49" y2="363.19"/><line class="f" x1="310.43" y1="360.99" x2="282.49" y2="360.99"/><line class="f" x1="310.43" y1="363.19" x2="310.43" y2="360.99"/><polygon class="g" points="462.34 361.45 461.83 362.68 460.6 363.19 459.36 362.68 458.85 361.45 459.36 360.21 460.6 359.7 461.83 360.21 462.34 361.45"/><g class="i"><path class="f" d="M462.34,361.45a1.75,1.75,0,0,1-3.49,0"/><path class="f" d="M458.85,361.45a1.75,1.75,0,1,1,3.49,0"/></g><rect class="d" x="464.09" y="359.7" width="48.89" height="3.49"/><line class="f" x1="512.98" y1="359.7" x2="464.09" y2="359.7"/><line class="f" x1="512.98" y1="363.19" x2="512.98" y2="359.7"/><line class="f" x1="464.09" y1="363.19" x2="512.98" y2="363.19"/><line class="f" x1="464.09" y1="359.7" x2="464.09" y2="363.19"/><rect class="d" x="376.78" y="252.49" width="40.86" height="5.59"/><line class="f" x1="376.78" y1="252.49" x2="376.78" y2="258.08"/><line class="f" x1="417.64" y1="252.49" x2="376.78" y2="252.49"/><line class="f" x1="417.64" y1="258.08" x2="417.64" y2="252.49"/><line class="f" x1="376.78" y1="258.08" x2="417.64" y2="258.08"/><polygon class="g" points="261.89 260.52 261.89 323.38 262.42 326.06 263.93 328.32 266.2 329.83 268.87 330.36 317.76 330.36 320.44 329.83 322.7 328.32 324.22 326.06 324.75 323.38 324.75 271 324.75 260.52 261.89 260.52"/><rect class="d" x="249.66" y="260.52" width="12.22" height="10.48"/><rect class="d" x="324.75" y="260.52" width="12.22" height="10.48"/><line class="f" x1="295.29" y1="272.13" x2="296.13" y2="269.12"/><line class="f" x1="265.97" y1="272.13" x2="266.81" y2="269.12"/><line class="f" x1="317.76" y1="330.36" x2="268.87" y2="330.36"/><line class="f" x1="261.89" y1="323.38" x2="261.89" y2="260.52"/><line class="f" x1="261.89" y1="260.52" x2="324.75" y2="260.52"/><line class="f" x1="324.75" y1="260.52" x2="324.75" y2="323.38"/><line class="f" x1="261.89" y1="260.52" x2="249.67" y2="260.52"/><line class="f" x1="249.67" y1="260.52" x2="249.67" y2="271"/><line class="f" x1="249.67" y1="271" x2="261.89" y2="271"/><line class="f" x1="261.89" y1="271" x2="261.89" y2="260.52"/><line class="f" x1="336.97" y1="260.52" x2="324.75" y2="260.52"/><line class="f" x1="324.75" y1="260.52" x2="324.75" y2="271"/><line class="f" x1="324.75" y1="271" x2="336.97" y2="271"/><line class="f" x1="336.97" y1="271" x2="336.97" y2="260.52"/><line class="f" x1="261.89" y1="283.76" x2="324.75" y2="283.76"/><line class="f" x1="261.89" y1="289" x2="324.75" y2="289"/><g class="i"><path class="f" d="M267.91,278.12a98.6,98.6,0,0,1,22.76.34"/><path class="f" d="M267.91,278.12a1.81,1.81,0,0,1-.4,0,1.86,1.86,0,0,1-1.87-1.87v-.09"/><path class="f" d="M265.64,276.2c0-.28,0-.55,0-.83a15.31,15.31,0,0,1,.35-3.24"/><path class="f" d="M266,272.13c-.17-1.75-.25-3.51-.25-5.27,0-.84,0-1.68,0-2.52"/><path class="f" d="M265.77,264.34a.49.49,0,0,1,0-.12.39.39,0,0,1,.39-.4h.09"/><path class="f" d="M290.74,264.18q-4.74.22-9.48.23-7.53,0-15-.58"/><path class="f" d="M290.74,264.18a.75.75,0,0,1,.21,0,1,1,0,0,1,1,1,1,1,0,0,1-.05.3"/><path class="f" d="M291.69,277.48a45.24,45.24,0,0,1-.31-5.33,45.84,45.84,0,0,1,.49-6.72"/><path class="f" d="M291.69,277.48a.78.78,0,0,1,0,.22.8.8,0,0,1-.81.8.67.67,0,0,1-.24,0"/><path class="f" d="M268.87,330.36a7,7,0,0,1-7-7"/><path class="f" d="M324.75,323.38a7,7,0,0,1-7,7"/><path class="f" d="M297.23,278.12q4.93-.5,9.89-.5a98.75,98.75,0,0,1,12.87.84"/><path class="f" d="M297.23,278.12a1.81,1.81,0,0,1-.4,0,1.87,1.87,0,0,1-1.87-1.87v-.09"/><path class="f" d="M295,276.2c0-.28,0-.55,0-.83a15.31,15.31,0,0,1,.35-3.24"/><path class="f" d="M295.29,272.13c-.17-1.75-.25-3.51-.25-5.27q0-1.26.06-2.52"/><path class="f" d="M295.1,264.34a.5.5,0,0,1,0-.12.4.4,0,0,1,.4-.4h.08"/><path class="f" d="M320.06,264.18q-4.74.22-9.48.23-7.51,0-15-.58"/><path class="f" d="M320.06,264.18a.75.75,0,0,1,.21,0,1,1,0,0,1,1,1,1,1,0,0,1-.05.3"/><path class="f" d="M321,277.48a46.17,46.17,0,0,1,.18-12.05"/><path class="f" d="M321,277.48a.78.78,0,0,1,0,.22.8.8,0,0,1-.8.8.69.69,0,0,1-.25,0"/></g><polygon class="g" points="410.86 305.16 412.26 306.88 413 309.05 413 311.36 412.26 313.53 410.86 315.25 410.86 326.13 408.92 326.13 406.98 318.17 406.98 315.85 405.92 312.15 405.92 308.26 406.98 304.56 406.98 302.24 408.92 294.28 410.86 294.28 410.86 305.16"/><line class="f" x1="410.86" y1="305.16" x2="412.26" y2="306.88"/><line class="f" x1="412.26" y1="306.88" x2="413" y2="309.05"/><line class="f" x1="413" y1="309.05" x2="413" y2="311.36"/><line class="f" x1="413" y1="311.36" x2="412.26" y2="313.53"/><line class="f" x1="412.26" y1="313.53" x2="410.86" y2="315.25"/><line class="f" x1="410.86" y1="315.25" x2="410.86" y2="326.13"/><line class="f" x1="410.86" y1="326.13" x2="408.92" y2="326.13"/><line class="f" x1="408.92" y1="326.13" x2="406.98" y2="318.17"/><line class="f" x1="406.98" y1="318.17" x2="406.98" y2="315.85"/><line class="f" x1="406.98" y1="315.85" x2="405.92" y2="312.15"/><line class="f" x1="405.92" y1="312.15" x2="405.92" y2="308.26"/><line class="f" x1="405.92" y1="308.26" x2="406.98" y2="304.56"/><line class="f" x1="406.98" y1="304.56" x2="406.98" y2="302.24"/><line class="f" x1="406.98" y1="302.24" x2="408.92" y2="294.28"/><line class="f" x1="408.92" y1="294.28" x2="410.86" y2="294.28"/><line class="f" x1="410.86" y1="294.28" x2="410.86" y2="305.16"/><line class="f" x1="410.86" y1="294.28" x2="410.86" y2="326.13"/><line class="f" x1="406.98" y1="318.17" x2="406.98" y2="302.24"/><line class="f" x1="408.92" y1="294.28" x2="410.86" y2="294.28"/><line class="f" x1="410.08" y1="324.01" x2="410.08" y2="321.88"/><line class="f" x1="410.08" y1="321.88" x2="409.6" y2="321.88"/><line class="f" x1="409.6" y1="321.88" x2="409.6" y2="324.01"/><line class="f" x1="409.6" y1="324.01" x2="410.08" y2="324.01"/><line class="f" x1="410.08" y1="321.35" x2="410.08" y2="319.23"/><line class="f" x1="410.08" y1="319.23" x2="409.6" y2="319.23"/><line class="f" x1="409.6" y1="319.23" x2="409.6" y2="321.35"/><line class="f" x1="409.6" y1="321.35" x2="410.08" y2="321.35"/><line class="f" x1="408.92" y1="294.28" x2="408.92" y2="326.13"/><line class="f" x1="409.6" y1="318.7" x2="410.08" y2="318.7"/><line class="f" x1="410.08" y1="318.7" x2="410.08" y2="317.64"/><line class="f" x1="410.08" y1="317.64" x2="409.6" y2="317.64"/><line class="f" x1="409.6" y1="317.64" x2="409.6" y2="318.7"/><g class="i"><path class="f" d="M410.86,305.16a6.8,6.8,0,0,1,0,10.09"/></g><polygon class="g" points="470.17 242.94 463.39 239.04 461.64 238.57 459.89 239.04 458.61 240.32 455.11 246.36 454.64 248.1 455.11 249.85 456.39 251.12 463.17 255.02 463.65 251.41 465.05 248.05 467.27 245.16 470.17 242.94"/><polygon class="g" points="491.17 255.02 497.95 251.12 499.22 249.85 499.69 248.1 499.22 246.36 495.72 240.32 494.45 239.04 492.69 238.57 490.94 239.04 484.17 242.94 487.07 245.16 489.29 248.05 490.69 251.41 491.17 255.02"/><polygon class="g" points="470.17 267.1 470.17 274.9 470.64 276.64 471.92 277.92 473.67 278.39 480.67 278.39 482.42 277.92 483.7 276.64 484.17 274.9 484.17 267.1 480.79 268.5 477.17 268.97 473.55 268.5 470.17 267.1"/><polygon class="g" points="463.17 255.02 463.65 251.41 465.04 248.05 467.27 245.16 470.17 242.94 473.55 241.55 477.17 241.07 480.79 241.55 484.17 242.94 487.07 245.16 489.29 248.05 490.69 251.41 491.17 255.02 490.69 258.63 489.29 262 487.07 264.89 484.17 267.1 480.79 268.5 477.17 268.97 473.55 268.5 470.17 267.1 467.27 264.89 465.04 262 463.65 258.63 463.17 255.02"/><line class="f" x1="463.17" y1="255.02" x2="463.65" y2="251.41"/><line class="f" x1="463.65" y1="251.41" x2="465.05" y2="248.05"/><line class="f" x1="465.05" y1="248.05" x2="467.27" y2="245.16"/><line class="f" x1="467.27" y1="245.16" x2="470.17" y2="242.94"/><line class="f" x1="470.17" y1="242.94" x2="473.54" y2="241.55"/><line class="f" x1="473.55" y1="241.55" x2="477.17" y2="241.07"/><line class="f" x1="477.17" y1="241.07" x2="480.79" y2="241.55"/><line class="f" x1="480.79" y1="241.55" x2="484.17" y2="242.94"/><line class="f" x1="484.17" y1="242.94" x2="487.07" y2="245.16"/><line class="f" x1="487.07" y1="245.16" x2="489.29" y2="248.05"/><line class="f" x1="489.29" y1="248.05" x2="490.69" y2="251.41"/><line class="f" x1="490.69" y1="251.41" x2="491.17" y2="255.02"/><line class="f" x1="491.17" y1="255.02" x2="490.69" y2="258.63"/><line class="f" x1="490.69" y1="258.63" x2="489.29" y2="262"/><line class="f" x1="489.29" y1="262" x2="487.07" y2="264.89"/><line class="f" x1="487.07" y1="264.89" x2="484.17" y2="267.1"/><line class="f" x1="484.17" y1="267.1" x2="480.79" y2="268.5"/><line class="f" x1="480.79" y1="268.5" x2="477.17" y2="268.97"/><line class="f" x1="477.17" y1="268.97" x2="473.55" y2="268.5"/><line class="f" x1="473.55" y1="268.5" x2="470.17" y2="267.1"/><line class="f" x1="470.17" y1="267.1" x2="467.27" y2="264.89"/><line class="f" x1="467.27" y1="264.89" x2="465.04" y2="262"/><line class="f" x1="465.05" y1="262" x2="463.65" y2="258.63"/><line class="f" x1="463.65" y1="258.63" x2="463.17" y2="255.02"/><g class="i"><path class="f" d="M477.17,241.07h0a14,14,0,1,1,0,27.9"/><path class="f" d="M477.17,269h0a14,14,0,1,1,0-27.9"/></g><line class="f" x1="460.13" y1="241.19" x2="456.63" y2="247.23"/><line class="f" x1="456.39" y1="251.12" x2="463.17" y2="255.02"/><line class="f" x1="458.61" y1="240.32" x2="455.11" y2="246.36"/><line class="f" x1="470.17" y1="242.94" x2="463.39" y2="239.04"/><line class="f" x1="497.71" y1="247.23" x2="494.21" y2="241.19"/><line class="f" x1="490.94" y1="239.04" x2="484.17" y2="242.94"/><line class="f" x1="499.22" y1="246.36" x2="495.72" y2="240.32"/><line class="f" x1="491.17" y1="255.02" x2="497.95" y2="251.12"/><line class="f" x1="473.67" y1="276.64" x2="480.67" y2="276.64"/><line class="f" x1="484.17" y1="274.9" x2="484.17" y2="267.1"/><line class="f" x1="473.67" y1="278.39" x2="480.67" y2="278.39"/><line class="f" x1="470.17" y1="267.1" x2="470.17" y2="274.9"/><g class="i"><path class="f" d="M457.27,249.61a1.73,1.73,0,0,1-.87-1.51,1.8,1.8,0,0,1,.23-.87"/><path class="f" d="M460.13,241.19a1.74,1.74,0,0,1,1.51-.87,1.81,1.81,0,0,1,.88.23"/><path class="f" d="M456.39,251.12a3.47,3.47,0,0,1-1.74-3,3.54,3.54,0,0,1,.46-1.74"/><path class="f" d="M458.61,240.32a3.5,3.5,0,0,1,3-1.74,3.55,3.55,0,0,1,1.75.46"/><path class="f" d="M491.82,240.55a1.81,1.81,0,0,1,.88-.23,1.74,1.74,0,0,1,1.51.87"/><path class="f" d="M497.71,247.23a1.8,1.8,0,0,1,.23.87,1.74,1.74,0,0,1-.87,1.51"/><path class="f" d="M490.94,239a3.61,3.61,0,0,1,1.76-.46,3.47,3.47,0,0,1,3,1.74"/><path class="f" d="M499.22,246.36a3.45,3.45,0,0,1-1.28,4.76"/><path class="f" d="M482.42,274.9h0a1.74,1.74,0,0,1-1.75,1.74"/><path class="f" d="M473.67,276.64h0a1.74,1.74,0,0,1-1.75-1.74"/><path class="f" d="M484.17,274.9h0a3.49,3.49,0,0,1-3.5,3.48"/><path class="f" d="M473.67,278.38h0a3.49,3.49,0,0,1-3.5-3.48"/></g><rect class="d" x="378.18" y="313.25" width="20.95" height="51.68"/><line class="f" x1="378.18" y1="364.94" x2="378.18" y2="313.25"/><line class="f" x1="378.18" y1="313.25" x2="399.13" y2="313.25"/><line class="f" x1="399.13" y1="313.25" x2="399.13" y2="364.94"/><line class="f" x1="399.13" y1="364.94" x2="378.18" y2="364.94"/><line class="f" x1="388.66" y1="362.35" x2="388.66" y2="315.84"/><line class="f" x1="382.49" y1="359.96" x2="395.05" y2="355.58"/><line class="f" x1="381.87" y1="355.03" x2="393.54" y2="353.22"/><line class="f" x1="396.21" y1="348.3" x2="383.39" y2="346.81"/><line class="f" x1="394.53" y1="340.67" x2="383.39" y2="342.69"/><line class="f" x1="395.17" y1="337.9" x2="381.45" y2="337.9"/><line class="f" x1="395.23" y1="330.04" x2="381.67" y2="331.91"/><line class="f" x1="395" y1="327.1" x2="382.62" y2="327.1"/><line class="f" x1="395.13" y1="319.35" x2="382.43" y2="317.86"/><line class="f" x1="394.26" y1="321.21" x2="383.53" y2="322.73"/><rect class="d" x="378.18" y="260.52" width="20.95" height="52.73"/><line class="f" x1="378.18" y1="313.25" x2="378.18" y2="260.52"/><line class="f" x1="378.18" y1="260.52" x2="399.13" y2="260.52"/><line class="f" x1="399.13" y1="260.52" x2="399.13" y2="313.25"/><line class="f" x1="399.13" y1="313.25" x2="378.18" y2="313.25"/><line class="f" x1="388.66" y1="310.62" x2="388.66" y2="263.16"/><line class="f" x1="382.49" y1="308.17" x2="395.05" y2="303.71"/><line class="f" x1="381.87" y1="303.14" x2="393.54" y2="301.3"/><line class="f" x1="396.21" y1="296.27" x2="383.39" y2="294.76"/><line class="f" x1="394.53" y1="288.5" x2="383.39" y2="290.55"/><line class="f" x1="395.17" y1="285.66" x2="381.45" y2="285.66"/><line class="f" x1="395.23" y1="277.65" x2="381.67" y2="279.55"/><line class="f" x1="395" y1="274.65" x2="382.62" y2="274.65"/><line class="f" x1="395.13" y1="266.74" x2="382.43" y2="265.22"/><line class="f" x1="394.26" y1="268.64" x2="383.53" y2="270.19"/><polygon class="g" points="517.87 329.96 517.23 330.33 517.17 331.06 517.17 356.91 517.14 357.39 517.41 357.8 517.87 357.95 546.15 357.95 546.65 357.75 546.85 357.25 546.85 285.32 546.65 284.82 546.15 284.62 520.66 284.62 518.92 285.08 517.64 286.36 517.17 288.11 517.17 289.16 517.37 289.65 517.87 289.86 517.36 290.27 517.17 290.9 517.17 328.97 517.36 329.57 517.87 329.96"/><polygon class="g" points="494.47 330.02 491.8 330.55 489.53 332.06 488.02 334.33 487.49 337 487.49 350.97 488.02 353.64 489.53 355.91 491.8 357.42 494.47 357.95 516.12 357.95 516.86 357.65 517.17 356.91 517.17 331.06 516.86 330.32 516.12 330.02 494.47 330.02"/><line class="f" x1="516.12" y1="330.02" x2="494.47" y2="330.02"/><g class="i"><path class="f" d="M516.12,330a1,1,0,0,1,1,1"/></g><line class="f" x1="517.17" y1="356.91" x2="517.17" y2="331.06"/><g class="i"><path class="f" d="M517.17,356.91a1,1,0,0,1-1,1"/></g><line class="f" x1="494.47" y1="357.95" x2="516.12" y2="357.95"/><g class="i"><path class="f" d="M494.47,358a7,7,0,0,1-7-7"/></g><line class="f" x1="487.49" y1="337" x2="487.49" y2="350.97"/><g class="i"><path class="f" d="M487.49,337a7,7,0,0,1,7-7"/></g><line class="f" x1="517.17" y1="289.16" x2="517.17" y2="288.11"/><line class="f" x1="520.66" y1="284.62" x2="546.15" y2="284.62"/><line class="f" x1="546.85" y1="285.32" x2="546.85" y2="289.16"/><line class="f" x1="546.16" y1="289.86" x2="517.87" y2="289.86"/><line class="f" x1="546.85" y1="289.16" x2="546.85" y2="330.02"/><line class="f" x1="546.85" y1="330.02" x2="544.41" y2="330.02"/><line class="f" x1="517.17" y1="328.97" x2="517.17" y2="290.9"/><line class="f" x1="518.22" y1="289.86" x2="535.72" y2="289.86"/><line class="f" x1="535.72" y1="330.02" x2="518.22" y2="330.02"/><line class="f" x1="544.41" y1="289.86" x2="537.82" y2="289.86"/><line class="f" x1="537.82" y1="330.02" x2="544.41" y2="330.02"/><line class="f" x1="517.17" y1="353.41" x2="517.17" y2="357.26"/><line class="f" x1="517.87" y1="357.95" x2="546.15" y2="357.95"/><line class="f" x1="546.85" y1="357.26" x2="546.85" y2="353.41"/><line class="f" x1="546.85" y1="353.41" x2="546.85" y2="330.02"/><line class="f" x1="546.85" y1="330.02" x2="544.41" y2="330.02"/><line class="f" x1="517.17" y1="331.06" x2="517.17" y2="351.67"/><line class="f" x1="535.72" y1="330.02" x2="518.22" y2="330.02"/><line class="f" x1="535.72" y1="330.02" x2="544.41" y2="330.02"/><line class="f" x1="487.49" y1="337" x2="487.49" y2="350.97"/><line class="f" x1="494.47" y1="357.95" x2="516.12" y2="357.95"/><line class="f" x1="517.17" y1="356.91" x2="517.17" y2="331.06"/><line class="f" x1="516.12" y1="330.02" x2="494.47" y2="330.02"/><line class="f" x1="545.46" y1="331.06" x2="545.46" y2="356.91"/><line class="f" x1="545.46" y1="328.97" x2="545.46" y2="290.9"/><g class="i"><path class="f" d="M546.16,284.62a.69.69,0,0,1,.69.7"/><path class="f" d="M546.85,289.16a.69.69,0,0,1-.69.69"/><path class="f" d="M517.87,289.86a.7.7,0,0,1-.7-.7"/><path class="f" d="M517.17,290.9a1,1,0,0,1,1.05-1"/><path class="f" d="M518.22,330a1,1,0,0,1-1.05-1"/><path class="f" d="M517.87,358a.69.69,0,0,1-.7-.69"/><path class="f" d="M546.85,357.26a.69.69,0,0,1-.69.69"/><path class="f" d="M517.17,331.06a1,1,0,0,1,1.05-1"/><path class="f" d="M517.17,356.91a1,1,0,0,1-1,1"/><path class="f" d="M516.12,330a1,1,0,0,1,1,1"/></g><line class="f" x1="545.46" y1="356.91" x2="521.67" y2="356.91"/><g class="i"><path class="f" d="M541.39,331a19.81,19.81,0,0,1-14.92,24.62"/><path class="f" d="M540.57,329a119.17,119.17,0,0,1,0-38.07"/><path class="f" d="M487.49,337a7,7,0,0,1,7-7"/><path class="f" d="M494.47,358a7,7,0,0,1-7-7"/><path class="f" d="M517.17,288.11a3.49,3.49,0,0,1,3.49-3.49"/></g><polygon class="g" points="317.24 196.96 304.32 196.96 304.32 208.49 304.59 210.21 305.37 211.78 306.59 213.03 308.57 214.06 310.78 214.42 312.99 214.06 314.97 213.03 316.19 211.78 316.97 210.21 317.24 208.49 317.24 196.96"/><line class="f" x1="304.32" y1="196.96" x2="304.32" y2="208.49"/><line class="f" x1="304.32" y1="196.96" x2="317.24" y2="196.96"/><line class="f" x1="317.24" y1="196.96" x2="317.24" y2="208.49"/><line class="f" x1="306.42" y1="201.15" x2="306.42" y2="208.49"/><line class="f" x1="315.15" y1="201.15" x2="315.15" y2="208.49"/><line class="f" x1="315.15" y1="201.15" x2="306.42" y2="201.15"/><g class="i"><path class="f" d="M306.59,213a5.68,5.68,0,0,1-2.27-4.54"/><path class="f" d="M317.24,208.49A5.68,5.68,0,0,1,315,213"/><path class="f" d="M315,213a7,7,0,0,1-8.38,0"/><path class="f" d="M317.24,208.49A5.68,5.68,0,0,1,315,213"/><path class="f" d="M315,213a7,7,0,0,1-4.19,1.39"/><path class="f" d="M315.15,208.49a3.59,3.59,0,0,1-1.44,2.86"/><path class="f" d="M313.71,211.35a4.87,4.87,0,0,1-5.86,0"/><path class="f" d="M307.85,211.35a3.56,3.56,0,0,1-1.44-2.86"/></g><polygon class="g" points="293.67 196.96 275.51 196.96 275.14 197.12 274.98 197.49 274.98 211.81 275.14 212.18 275.51 212.33 293.67 212.33 294.04 212.18 294.19 211.81 294.19 197.49 294.04 197.12 293.67 196.96"/><g class="i"><path class="f" d="M293.67,197a.52.52,0,0,1,.52.53"/></g><line class="f" x1="294.19" y1="211.81" x2="294.19" y2="197.49"/><g class="i"><path class="f" d="M294.19,211.81a.52.52,0,0,1-.52.52"/></g><line class="f" x1="275.51" y1="212.33" x2="293.67" y2="212.33"/><g class="i"><path class="f" d="M275.51,212.33a.53.53,0,0,1-.53-.53"/></g><line class="f" x1="274.98" y1="197.49" x2="274.98" y2="211.81"/><g class="i"><path class="f" d="M275,197.49a.53.53,0,0,1,.53-.53"/></g><line class="f" x1="293.67" y1="196.96" x2="275.51" y2="196.96"/><line class="f" x1="292.62" y1="200.8" x2="276.56" y2="200.8"/><line class="f" x1="276.03" y1="201.33" x2="276.03" y2="210.76"/><line class="f" x1="276.56" y1="211.28" x2="292.62" y2="211.28"/><line class="f" x1="293.14" y1="210.76" x2="293.14" y2="201.33"/><g class="i"><path class="f" d="M276,201.33a.53.53,0,0,1,.53-.53"/><path class="f" d="M276.56,211.28a.52.52,0,0,1-.53-.52"/><path class="f" d="M293.14,210.76a.52.52,0,0,1-.52.52"/><path class="f" d="M292.62,200.8a.52.52,0,0,1,.52.53"/></g><polygon class="g" points="285.46 199.06 285.32 200.52 285.21 200.86 284.98 202.7 284.85 202.95 284.59 203.05 284.33 202.95 284.2 202.7 283.97 200.86 283.85 200.52 283.71 199.06 283.97 198.44 284.59 198.19 285.2 198.44 285.46 199.06"/><line class="f" x1="285.46" y1="199.06" x2="285.32" y2="200.52"/><g class="i"><path class="f" d="M285.32,200.52a.8.8,0,0,1-.11.34"/></g><line class="f" x1="285.21" y1="200.86" x2="284.97" y2="202.7"/><g class="i"><path class="f" d="M285,202.7a.41.41,0,0,1-.39.35.4.4,0,0,1-.39-.35"/></g><line class="f" x1="284.2" y1="202.7" x2="283.97" y2="200.86"/><g class="i"><path class="f" d="M284,200.86a.87.87,0,0,1-.12-.34"/></g><line class="f" x1="283.85" y1="200.52" x2="283.72" y2="199.06"/><g class="i"><path class="f" d="M283.71,199.06a.88.88,0,0,1,1.75,0"/></g><line class="f" x1="284.11" y1="199.93" x2="284.11" y2="200.45"/><line class="f" x1="285.06" y1="200.45" x2="285.06" y2="199.93"/><line class="f" x1="285.06" y1="199.93" x2="284.11" y2="199.93"/><g class="i"><path class="f" d="M285.06,200.45a.47.47,0,0,1-.47.47.48.48,0,0,1-.48-.47"/><path class="f" d="M285.21,200.86a.74.74,0,0,1-.62.33.73.73,0,0,1-.62-.33"/></g><line class="f" x1="370.15" y1="191.73" x2="377.13" y2="191.73"/><line class="f" x1="380.97" y1="191.73" x2="381.76" y2="191.73"/><line class="f" x1="385.6" y1="191.73" x2="386.39" y2="191.73"/><line class="f" x1="390.23" y1="191.73" x2="397.21" y2="191.73"/><line class="f" x1="401.05" y1="191.73" x2="401.58" y2="191.73"/><line class="f" x1="401.58" y1="191.73" x2="408.56" y2="191.73"/><line class="f" x1="494.41" y1="205.17" x2="494.41" y2="199.31"/><line class="f" x1="494.41" y1="199.31" x2="492.03" y2="201.24"/><line class="f" x1="492.03" y1="201.23" x2="489.65" y2="199.31"/><line class="f" x1="489.66" y1="199.31" x2="489.66" y2="205.17"/><line class="f" x1="236.74" y1="434.78" x2="517.87" y2="434.78"/><line class="f" x1="517.87" y1="434.78" x2="517.87" y2="378.91"/><line class="f" x1="236.74" y1="433.04" x2="516.12" y2="433.04"/><line class="f" x1="516.12" y1="433.04" x2="516.12" y2="378.91"/><line class="f" x1="232.55" y1="183.34" x2="232.55" y2="378.91"/><line class="f" x1="232.55" y1="378.91" x2="236.74" y2="378.91"/><line class="f" x1="236.74" y1="378.91" x2="236.74" y2="434.78"/><line class="f" x1="236.74" y1="434.78" x2="517.87" y2="434.78"/><line class="f" x1="517.87" y1="434.78" x2="517.87" y2="378.91"/><line class="f" x1="517.87" y1="378.91" x2="558.03" y2="378.91"/><line class="f" x1="558.03" y1="378.91" x2="558.03" y2="183.34"/><line class="f" x1="558.03" y1="183.34" x2="232.55" y2="183.34"/><path class="j" d="M412,402.31v7h-.72V403h-1.65v-.64Z"/><path class="j" d="M413.63,408.81a.53.53,0,0,1,.53-.54.54.54,0,0,1,.54.54.55.55,0,0,1-.54.55A.54.54,0,0,1,413.63,408.81Z"/><path class="j" d="M415.64,405.81c0-2.23,1.17-3.56,2.79-3.56s2.8,1.33,2.8,3.56-1.18,3.56-2.8,3.56S415.64,408,415.64,405.81Zm4.85,0c0-1.87-.84-2.9-2.06-2.9s-2.06,1-2.06,2.9.84,2.9,2.06,2.9S420.49,407.68,420.49,405.81Z"/><path class="j" d="M427,407.25c0,1.19-.83,2.12-2.54,2.12a3.61,3.61,0,0,1-2.51-.9l.35-.57a3,3,0,0,0,2.15.81c1.19,0,1.82-.58,1.82-1.43s-.56-1.46-2.34-1.46h-1.49l.36-3.51h3.83V403h-3.2l-.24,2.23h.9C426.21,405.18,427,406,427,407.25Z"/><path class="j" d="M291,227.8v7h-.72v-6.36h-1.65v-.64Z"/><path class="j" d="M292.66,234.3a.53.53,0,0,1,.53-.54.54.54,0,0,1,.54.54.55.55,0,0,1-.54.55A.54.54,0,0,1,292.66,234.3Z"/><path class="j" d="M294.67,231.3c0-2.23,1.17-3.56,2.79-3.56s2.8,1.33,2.8,3.56-1.18,3.56-2.8,3.56S294.67,233.53,294.67,231.3Zm4.85,0c0-1.87-.84-2.9-2.06-2.9s-2.06,1-2.06,2.9.84,2.9,2.06,2.9S299.52,233.17,299.52,231.3Z"/><path class="j" d="M307.24,233h-1.4v1.84h-.72V233h-3.95v-.52l3.71-4.64h.8l-3.58,4.52h3V230.7h.7v1.62h1.4Z"/><path class="j" d="M347.21,306.92v7h-.72v-6.36h-1.65v-.64Z"/><path class="j" d="M348.89,313.42a.53.53,0,0,1,.53-.54.54.54,0,0,1,.54.54.55.55,0,0,1-.54.55A.54.54,0,0,1,348.89,313.42Z"/><path class="j" d="M350.9,310.42c0-2.23,1.17-3.56,2.79-3.56s2.8,1.33,2.8,3.56-1.18,3.56-2.8,3.56S350.9,312.65,350.9,310.42Zm4.85,0c0-1.87-.84-2.9-2.06-2.9s-2.06,1-2.06,2.9.84,2.9,2.06,2.9S355.75,312.29,355.75,310.42Z"/><path class="j" d="M362.06,311.91c0,1.17-.85,2.07-2.54,2.07a3.64,3.64,0,0,1-2.52-.9l.35-.57a3.07,3.07,0,0,0,2.17.81c1.16,0,1.8-.54,1.8-1.41s-.59-1.39-1.89-1.39h-.5V310l1.94-2.43h-3.58v-.64h4.5v.51l-2,2.49C361.31,310,362.06,310.79,362.06,311.91Z"/><path class="j" d="M456.36,306.92v7h-.72v-6.36H454v-.64Z"/><path class="j" d="M458,313.42a.53.53,0,0,1,.53-.54.54.54,0,0,1,.54.54.55.55,0,0,1-.54.55A.54.54,0,0,1,458,313.42Z"/><path class="j" d="M460.05,310.42c0-2.23,1.17-3.56,2.79-3.56s2.8,1.33,2.8,3.56-1.18,3.56-2.8,3.56S460.05,312.65,460.05,310.42Zm4.85,0c0-1.87-.84-2.9-2.06-2.9s-2.06,1-2.06,2.9.84,2.9,2.06,2.9S464.9,312.29,464.9,310.42Z"/><path class="j" d="M471.44,313.28v.64h-4.91v-.51l2.91-2.85c.79-.78.94-1.25.94-1.73,0-.81-.57-1.31-1.64-1.31a2.38,2.38,0,0,0-1.91.78l-.51-.44a3.15,3.15,0,0,1,2.48-1c1.42,0,2.32.72,2.32,1.89a2.88,2.88,0,0,1-1.15,2.19l-2.38,2.34Z"/><path class="j" d="M379.82,227.8v7h-.72v-6.36h-1.65v-.64Z"/><path class="j" d="M381.5,234.3a.53.53,0,0,1,.53-.54.54.54,0,0,1,.54.54.55.55,0,0,1-.54.55A.54.54,0,0,1,381.5,234.3Z"/><path class="j" d="M383.51,231.3c0-2.23,1.17-3.56,2.79-3.56s2.8,1.33,2.8,3.56-1.18,3.56-2.8,3.56S383.51,233.53,383.51,231.3Zm4.85,0c0-1.87-.84-2.9-2.06-2.9s-2.06,1-2.06,2.9.84,2.9,2.06,2.9S388.36,233.17,388.36,231.3Z"/><path class="j" d="M392.06,227.8v7h-.72v-6.36h-1.65v-.64Z"/></svg>