<svg xmlns="http://www.w3.org/2000/svg" xmlns:xlink="http://www.w3.org/1999/xlink" viewBox="0 0 790.58 618.13"><defs><style>.a,.f{fill:none;}.b{fill:#595a5c;}.c{fill:#b6906c;}.d{fill:#fff;}.e{fill:#231f20;}.f{stroke:#000;stroke-linecap:round;stroke-linejoin:round;stroke-width:0.34px;}.g{clip-path:url(#a);}.h{fill:#58595b;}</style><clipPath id="a"><polygon class="a" points="301.77 186.12 301.77 377.37 316.05 377.37 316.05 432.01 484.73 432.01 484.73 377.37 488.81 377.37 488.81 186.12 301.77 186.12"/></clipPath></defs><path class="b" d="M55.31,597.13H57.1V609.9H55.31Zm.92,6.11h4.09a1.89,1.89,0,0,0,1-.27,1.82,1.82,0,0,0,.68-.77,2.67,2.67,0,0,0,.24-1.16,2.7,2.7,0,0,0-.24-1.16,1.82,1.82,0,0,0-1.7-1H56.23v-1.7h4a4.09,4.09,0,0,1,2,.48A3.45,3.45,0,0,1,63.62,599a4.64,4.64,0,0,1,0,4.11,3.34,3.34,0,0,1-1.35,1.36,4,4,0,0,1-2,.49h-4Z"/><path class="b" d="M67.7,606.33a2.07,2.07,0,0,0,.49,1.48,1.76,1.76,0,0,0,1.37.52,1.89,1.89,0,0,0,1.37-.46,1.79,1.79,0,0,0,.48-1.33l.12,1.91A2.58,2.58,0,0,1,69.06,610a2.89,2.89,0,0,1-2.33-1,4.08,4.08,0,0,1-.82-2.73v-5.55H67.7Zm.22-7.86a1.93,1.93,0,0,1-.56-1.5,2.07,2.07,0,0,1,.56-1.57,2.56,2.56,0,0,1,3.18,0,2.08,2.08,0,0,1,.57,1.56,1.94,1.94,0,0,1-.57,1.5,2.65,2.65,0,0,1-3.18,0Zm2.26-.86a.94.94,0,0,0,.24-.68,1,1,0,0,0-.24-.7.91.91,0,0,0-.67-.25.92.92,0,0,0-.67.25,1,1,0,0,0-.23.7,1,1,0,0,0,.23.68.92.92,0,0,0,.67.24A.9.9,0,0,0,70.18,597.61Zm1.23,3.17h1.78v9.12H71.41Z"/><path class="b" d="M77.1,609.63A2.82,2.82,0,0,1,76,608.36a5.08,5.08,0,0,1-.36-2v-2a5.05,5.05,0,0,1,.36-2,2.71,2.71,0,0,1,1-1.27,3,3,0,0,1,1.65-.44,2.71,2.71,0,0,1,1.48.42,3.22,3.22,0,0,1,1.09,1.19l-.18,1.86a2.19,2.19,0,0,0-.22-1,1.48,1.48,0,0,0-.61-.63,2,2,0,0,0-1-.21,1.71,1.71,0,0,0-1.37.55,2.26,2.26,0,0,0-.49,1.56v2a2.19,2.19,0,0,0,.49,1.54,1.74,1.74,0,0,0,1.37.54,1.93,1.93,0,0,0,1-.23,1.45,1.45,0,0,0,.61-.64,2.25,2.25,0,0,0,.22-1l.12,1.92a2.66,2.66,0,0,1-.89,1.14,2.56,2.56,0,0,1-1.53.45A3.19,3.19,0,0,1,77.1,609.63Zm4-12.5H82.9V609.9H81.11Z"/><path class="b" d="M87.09,609.57a3.09,3.09,0,0,1-1.29-1.36,4.85,4.85,0,0,1-.44-2.15v-1.48a4.71,4.71,0,0,1,.44-2.12,3.12,3.12,0,0,1,1.29-1.35,4.71,4.71,0,0,1,4.06,0,3.12,3.12,0,0,1,1.29,1.35,4.71,4.71,0,0,1,.44,2.12v1.51a4.79,4.79,0,0,1-.44,2.13,3.12,3.12,0,0,1-1.29,1.35,4.62,4.62,0,0,1-4.06,0Zm3.49-1.83a2.43,2.43,0,0,0,.51-1.65v-1.51a2.43,2.43,0,0,0-.51-1.65,1.88,1.88,0,0,0-1.46-.58,1.85,1.85,0,0,0-1.45.58,2.38,2.38,0,0,0-.52,1.65v1.51a2.38,2.38,0,0,0,.52,1.65,1.82,1.82,0,0,0,1.45.59A1.85,1.85,0,0,0,90.58,607.74Z"/><path class="b" d="M95.43,600.78h1.79v9.12H95.43Zm4.42,1.72a2.16,2.16,0,0,0-.83-.15,1.83,1.83,0,0,0-1.33.47,1.79,1.79,0,0,0-.47,1.31L97,602.37a3.32,3.32,0,0,1,1.09-1.27,2.58,2.58,0,0,1,1.48-.45,3.39,3.39,0,0,1,1.13.18,2.62,2.62,0,0,1,.88.53l-1.17,1.58A1.56,1.56,0,0,0,99.85,602.5Z"/><path class="b" d="M102.15,600.78H104l2.81,7.93-1,1.94Zm8.07,0L106.34,612a2.6,2.6,0,0,1-.56,1,1.87,1.87,0,0,1-.84.52,4,4,0,0,1-1.23.16h-.36V612h.36a1.46,1.46,0,0,0,.8-.2,1.74,1.74,0,0,0,.51-.7l3.38-10.31Z"/><path class="b" d="M113.51,609.88a5.76,5.76,0,0,1-1.32-.48,4.89,4.89,0,0,1-1.13-.79l1.06-1.31a5.86,5.86,0,0,0,1.47.85,4.18,4.18,0,0,0,1.44.28,3.11,3.11,0,0,0,1.6-.33,1.1,1.1,0,0,0,.53-1,.79.79,0,0,0-.29-.66,1.66,1.66,0,0,0-.72-.29c-.29,0-.69-.1-1.22-.14h-.15l-.14,0h-.15a6.45,6.45,0,0,1-1.5-.26,2,2,0,0,1-1-.7,2.38,2.38,0,0,1-.41-1.49,3.07,3.07,0,0,1,.39-1.61,2.41,2.41,0,0,1,1.18-1,5.29,5.29,0,0,1,2-.32,6.38,6.38,0,0,1,2.6.52,6.16,6.16,0,0,1,1.13.66l-1.08,1.31a5.59,5.59,0,0,0-1.35-.66,4,4,0,0,0-1.3-.22,2.44,2.44,0,0,0-1.37.31,1.08,1.08,0,0,0-.46.94.64.64,0,0,0,.26.55,1.72,1.72,0,0,0,.66.25c.26,0,.64.07,1.12.1h.34a7.67,7.67,0,0,1,1.63.25,2.24,2.24,0,0,1,1.13.77,2.62,2.62,0,0,1,.45,1.65,2.92,2.92,0,0,1-.42,1.63,2.54,2.54,0,0,1-1.27,1A5.88,5.88,0,0,1,115,610,7.38,7.38,0,0,1,113.51,609.88Z"/><path class="b" d="M126,597.13h1.8V609.9H126Zm2.6,12.5a2.39,2.39,0,0,1-.93-1.16l.13-1.91a2.22,2.22,0,0,0,.21,1,1.48,1.48,0,0,0,.61.63,1.93,1.93,0,0,0,1,.22,1.74,1.74,0,0,0,1.37-.54,2.18,2.18,0,0,0,.49-1.53v-2a2.26,2.26,0,0,0-.49-1.56,1.71,1.71,0,0,0-1.37-.55,2,2,0,0,0-1,.21,1.36,1.36,0,0,0-.61.62,2.12,2.12,0,0,0-.21,1l-.19-1.76a3.37,3.37,0,0,1,1.08-1.24,2.67,2.67,0,0,1,1.49-.43,3,3,0,0,1,1.65.43,2.9,2.9,0,0,1,1.06,1.27,5.1,5.1,0,0,1,.36,2v2a4.94,4.94,0,0,1-.37,2,2.79,2.79,0,0,1-1.08,1.26,3.25,3.25,0,0,1-1.71.44A2.73,2.73,0,0,1,128.57,609.63Z"/><path class="b" d="M134.46,600.78h1.82l2.81,7.93-1,1.94Zm8.07,0L138.65,612a2.6,2.6,0,0,1-.56,1,1.87,1.87,0,0,1-.84.52,4,4,0,0,1-1.23.16h-.36V612H136a1.46,1.46,0,0,0,.8-.2,1.74,1.74,0,0,0,.51-.7l3.37-10.31Z"/><path class="b" d="M143.57,600.78h4.12v1.62h-4.12Zm1.46,8.56a2.77,2.77,0,0,1-.52-1.81v-9.4h1.8v9.42a.84.84,0,0,0,.13.51.46.46,0,0,0,.39.18h.86V610h-1A2,2,0,0,1,145,609.34Z"/><path class="b" d="M151.94,606.33a2.07,2.07,0,0,0,.49,1.48,1.76,1.76,0,0,0,1.37.52,1.91,1.91,0,0,0,1.37-.46,1.79,1.79,0,0,0,.48-1.33l.12,1.91A2.58,2.58,0,0,1,153.3,610a2.89,2.89,0,0,1-2.33-1,4.08,4.08,0,0,1-.82-2.73v-5.55h1.79Zm3.71-5.55h1.78v9.12h-1.78Z"/><rect class="c" x="612.92" y="591.68" width="35.43" height="2.83"/><path class="d" d="M648.48,594.64H612.79v-3.08h35.69ZM613,594.39h35.19v-2.58H613Z"/><rect class="c" x="612.92" y="601.6" width="70.74" height="2.83"/><path class="d" d="M683.78,604.56h-71v-3.08h71ZM613,604.31h70.49v-2.58H613Z"/><rect class="c" x="612.92" y="612.72" width="177.16" height="2.84"/><path class="d" d="M790.21,615.68H612.79V612.6H790.21ZM613,615.43H790v-2.58H613Z"/><path class="e" d="M587.26,596.28h-.8v-4.82l-.81.5v-.83l.81-.53h.8Z"/><path class="e" d="M589,595.91a1.67,1.67,0,0,1-.41-1.19v-2.58A1.65,1.65,0,0,1,589,591a2,2,0,0,1,2.42,0,1.65,1.65,0,0,1,.41,1.19v2.58a1.65,1.65,0,0,1-.41,1.19,2,2,0,0,1-2.42,0Zm1.83-.55a.89.89,0,0,0,.2-.64v-2.58a.89.89,0,0,0-.2-.64.82.82,0,0,0-.62-.22.86.86,0,0,0-.63.22.94.94,0,0,0-.2.64v2.58a.9.9,0,0,0,.21.64,1,1,0,0,0,1.24,0Z"/><path class="e" d="M593.22,595.91a1.67,1.67,0,0,1-.41-1.19v-2.58a1.65,1.65,0,0,1,.41-1.19,2,2,0,0,1,2.42,0,1.61,1.61,0,0,1,.41,1.19v2.58a1.65,1.65,0,0,1-.41,1.19,2,2,0,0,1-2.42,0Zm1.83-.55a.9.9,0,0,0,.21-.64v-2.58a.94.94,0,0,0-.2-.64.86.86,0,0,0-.63-.22.82.82,0,0,0-.62.22.89.89,0,0,0-.2.64v2.58a.89.89,0,0,0,.2.64,1,1,0,0,0,1.24,0Z"/><path class="e" d="M600.1,596.13a1.45,1.45,0,0,1-.6-.6,2.06,2.06,0,0,1-.21-1v-.67a2,2,0,0,1,.21-.94,1.37,1.37,0,0,1,.6-.59,2,2,0,0,1,.95-.21,2.21,2.21,0,0,1,.59.08,1.68,1.68,0,0,1,.51.22,1.54,1.54,0,0,1,.37.35l-.58.52a1.17,1.17,0,0,0-.4-.3,1.13,1.13,0,0,0-.48-.11.94.94,0,0,0-.71.26,1,1,0,0,0-.26.72v.67a1,1,0,0,0,.25.74.94.94,0,0,0,.72.27,1,1,0,0,0,.48-.12,1,1,0,0,0,.4-.32l.58.56a1.38,1.38,0,0,1-.38.34,1.62,1.62,0,0,1-.5.22,2.27,2.27,0,0,1-.59.07A2.12,2.12,0,0,1,600.1,596.13Z"/><path class="e" d="M603.4,592.22h.79v4.06h-.79Zm2.42,1.6a1,1,0,0,0-.21-.67.78.78,0,0,0-.6-.23.81.81,0,0,0-.6.21.73.73,0,0,0-.22.58l-.08-.78a1.46,1.46,0,0,1,.49-.57,1.22,1.22,0,0,1,.67-.2,1.33,1.33,0,0,1,.73.2,1.18,1.18,0,0,1,.46.56,2.4,2.4,0,0,1,.15.89v2.47h-.79Zm2.42,0a.93.93,0,0,0-.22-.67.85.85,0,0,0-.63-.23.72.72,0,0,0-.57.23.9.9,0,0,0-.21.64l-.16-.78a1.61,1.61,0,0,1,.51-.63,1.23,1.23,0,0,1,.69-.22,1.37,1.37,0,0,1,.75.2,1.09,1.09,0,0,1,.47.56,2.21,2.21,0,0,1,.17.89v2.47h-.8Z"/><path class="e" d="M584.33,605.5l2-2.64a1.85,1.85,0,0,0,.27-.47,1.29,1.29,0,0,0,.09-.45h0a.67.67,0,0,0-.2-.53.81.81,0,0,0-.56-.19.76.76,0,0,0-.56.21,1,1,0,0,0-.27.58h-.82a2,2,0,0,1,.29-.83,1.42,1.42,0,0,1,.56-.53,1.67,1.67,0,0,1,.79-.18,1.93,1.93,0,0,1,.87.17,1.21,1.21,0,0,1,.54.51,1.55,1.55,0,0,1,.19.8h0a1.84,1.84,0,0,1-.12.63,2.8,2.8,0,0,1-.35.63l-1.65,2.24h2.15v.76h-3.2Z"/><path class="e" d="M589,605.83a1.67,1.67,0,0,1-.41-1.19v-2.58a1.65,1.65,0,0,1,.41-1.19,2,2,0,0,1,2.42,0,1.65,1.65,0,0,1,.41,1.19v2.58a1.65,1.65,0,0,1-.41,1.19,2,2,0,0,1-2.42,0Zm1.83-.55a.89.89,0,0,0,.2-.64v-2.58a.89.89,0,0,0-.2-.64.82.82,0,0,0-.62-.22.86.86,0,0,0-.63.22.94.94,0,0,0-.19.64v2.58a.89.89,0,0,0,.2.64,1,1,0,0,0,1.24,0Z"/><path class="e" d="M593.22,605.83a1.67,1.67,0,0,1-.41-1.19v-2.58a1.61,1.61,0,0,1,.42-1.19,1.59,1.59,0,0,1,1.2-.42,1.45,1.45,0,0,1,1.62,1.61v2.58a1.61,1.61,0,0,1-.41,1.19,2,2,0,0,1-2.42,0Zm1.84-.55a.94.94,0,0,0,.2-.64v-2.58a.94.94,0,0,0-.2-.64.84.84,0,0,0-.63-.22.82.82,0,0,0-.62.22.89.89,0,0,0-.2.64v2.58a.89.89,0,0,0,.2.64.82.82,0,0,0,.62.22A.86.86,0,0,0,595.06,605.28Z"/><path class="e" d="M600.1,606.05a1.45,1.45,0,0,1-.6-.6,2.06,2.06,0,0,1-.2-1v-.67a2,2,0,0,1,.2-.94,1.37,1.37,0,0,1,.6-.59,2,2,0,0,1,.95-.21,2.35,2.35,0,0,1,.6.08,1.73,1.73,0,0,1,.5.22,1.38,1.38,0,0,1,.37.35l-.58.52a1.08,1.08,0,0,0-.4-.3,1.13,1.13,0,0,0-.48-.11,1,1,0,0,0-.71.26,1,1,0,0,0-.26.72v.67a1,1,0,0,0,.25.74.94.94,0,0,0,.72.27,1.14,1.14,0,0,0,.88-.44l.58.56a1.38,1.38,0,0,1-.38.34,1.62,1.62,0,0,1-.5.22,2.22,2.22,0,0,1-.59.07A2.12,2.12,0,0,1,600.1,606.05Z"/><path class="e" d="M603.4,602.14h.79v4.06h-.79Zm2.42,1.6a1,1,0,0,0-.21-.67.78.78,0,0,0-.6-.23.81.81,0,0,0-.6.21.73.73,0,0,0-.22.58l-.08-.78a1.46,1.46,0,0,1,.49-.57,1.22,1.22,0,0,1,.67-.2,1.3,1.3,0,0,1,.73.2,1.18,1.18,0,0,1,.46.56,2.4,2.4,0,0,1,.16.89v2.47h-.8Zm2.42,0a.93.93,0,0,0-.22-.67.85.85,0,0,0-.63-.23.73.73,0,0,0-.57.23.89.89,0,0,0-.2.64l-.16-.78a1.51,1.51,0,0,1,.5-.63,1.23,1.23,0,0,1,.69-.22,1.35,1.35,0,0,1,.75.2,1.16,1.16,0,0,1,.48.56,2.4,2.4,0,0,1,.16.89v2.47h-.8Z"/><path class="e" d="M585,615.58a1.34,1.34,0,0,1-.54-.49,2,2,0,0,1-.28-.77h.8a.75.75,0,0,0,.25.49.85.85,0,0,0,.54.17.72.72,0,0,0,.59-.25,1.1,1.1,0,0,0,.21-.72v-.48a1.1,1.1,0,0,0-.21-.72.72.72,0,0,0-.59-.25.83.83,0,0,0-.4.11,1.18,1.18,0,0,0-.34.33h-.72v-3h2.89v.76h-2.1V612a1,1,0,0,1,.34-.18.94.94,0,0,1,.37-.07,1.68,1.68,0,0,1,.84.2,1.29,1.29,0,0,1,.53.6,2.07,2.07,0,0,1,.19.94V614a2.25,2.25,0,0,1-.19.94,1.31,1.31,0,0,1-.55.59,1.69,1.69,0,0,1-.86.21A1.74,1.74,0,0,1,585,615.58Z"/><path class="e" d="M589,615.32a1.65,1.65,0,0,1-.41-1.19v-2.58a1.67,1.67,0,0,1,.41-1.19,2,2,0,0,1,2.42,0,1.65,1.65,0,0,1,.41,1.19v2.58a1.64,1.64,0,0,1-.41,1.19,1.92,1.92,0,0,1-2.42,0Zm1.83-.55a.89.89,0,0,0,.2-.64v-2.58a.88.88,0,0,0-.2-.63.78.78,0,0,0-.62-.22.82.82,0,0,0-.63.22.93.93,0,0,0-.2.63v2.58a.9.9,0,0,0,.21.64,1,1,0,0,0,1.24,0Z"/><path class="e" d="M593.22,615.32a1.65,1.65,0,0,1-.41-1.19v-2.58a1.67,1.67,0,0,1,.41-1.19,2,2,0,0,1,2.42,0,1.61,1.61,0,0,1,.41,1.19v2.58a1.64,1.64,0,0,1-.41,1.19,1.92,1.92,0,0,1-2.42,0Zm1.83-.55a.9.9,0,0,0,.21-.64v-2.58a.93.93,0,0,0-.2-.63.82.82,0,0,0-.63-.22.78.78,0,0,0-.62.22.88.88,0,0,0-.2.63v2.58a.89.89,0,0,0,.2.64,1,1,0,0,0,1.24,0Z"/><path class="e" d="M600.1,615.54a1.45,1.45,0,0,1-.6-.6,2,2,0,0,1-.21-1v-.67a2,2,0,0,1,.21-.94,1.45,1.45,0,0,1,.6-.6,2,2,0,0,1,.95-.2,2.22,2.22,0,0,1,.59.07,2,2,0,0,1,.51.22,1.76,1.76,0,0,1,.37.35l-.58.52a1.17,1.17,0,0,0-.4-.3,1.13,1.13,0,0,0-.48-.11.94.94,0,0,0-.71.26,1,1,0,0,0-.26.73V614a1.07,1.07,0,0,0,.25.74,1,1,0,0,0,.72.26,1.13,1.13,0,0,0,.48-.11,1.26,1.26,0,0,0,.4-.32l.58.55a1.42,1.42,0,0,1-.38.35,1.88,1.88,0,0,1-.5.21,2.27,2.27,0,0,1-.59.08A2,2,0,0,1,600.1,615.54Z"/><path class="e" d="M603.4,611.63h.79v4.06h-.79Zm2.42,1.6a1,1,0,0,0-.21-.66.75.75,0,0,0-.6-.24.81.81,0,0,0-.6.21.75.75,0,0,0-.22.58l-.08-.78a1.5,1.5,0,0,1,.49-.56,1.15,1.15,0,0,1,.67-.2,1.32,1.32,0,0,1,.73.19,1.28,1.28,0,0,1,.46.56,2.42,2.42,0,0,1,.15.9v2.46h-.79Zm2.42,0a.91.91,0,0,0-.22-.66.82.82,0,0,0-.63-.24.72.72,0,0,0-.57.23.9.9,0,0,0-.21.64l-.16-.78a1.51,1.51,0,0,1,.51-.62,1.16,1.16,0,0,1,.69-.22,1.37,1.37,0,0,1,.75.19,1.18,1.18,0,0,1,.47.56,2.22,2.22,0,0,1,.17.9v2.46h-.8Z"/><path class="c" d="M23.49,613.89A12.92,12.92,0,1,1,36.4,601,12.93,12.93,0,0,1,23.49,613.89Zm0-24.83A11.92,11.92,0,1,0,35.4,601,11.93,11.93,0,0,0,23.49,589.06Z"/><polygon class="d" points="35.77 588.74 9.42 600.98 35.77 613.21 32.02 600.98 35.77 588.74"/><path class="c" d="M36.58,614.14,8.23,601l28.35-13.17-4,13.17ZM10.61,601,35,612.29,31.5,601,35,589.66Z"/><path class="c" d="M2.52,605.19a5,5,0,0,1-1.11-.38,4.4,4.4,0,0,1-1-.64l.81-1a3.72,3.72,0,0,0,1.16.69,4.08,4.08,0,0,0,1.38.23,2.73,2.73,0,0,0,1.55-.38,1.17,1.17,0,0,0,.55-1.05h0a1.12,1.12,0,0,0-.25-.77,1.44,1.44,0,0,0-.64-.42,8.23,8.23,0,0,0-1-.25H3.89l-.1,0a9.48,9.48,0,0,1-1.5-.36,2.08,2.08,0,0,1-1-.73,2.42,2.42,0,0,1-.41-1.51h0a2.77,2.77,0,0,1,.38-1.47,2.44,2.44,0,0,1,1.12-.92,4.48,4.48,0,0,1,1.77-.32,4.6,4.6,0,0,1,1,.11,4.9,4.9,0,0,1,1.86.86l-.73,1a4.61,4.61,0,0,0-1-.58,3,3,0,0,0-1.06-.2,2.44,2.44,0,0,0-1.46.38,1.24,1.24,0,0,0-.53,1.07h0a1,1,0,0,0,.27.75,1.74,1.74,0,0,0,.67.4,9.3,9.3,0,0,0,1.12.27h.24a7.93,7.93,0,0,1,1.4.41,2.22,2.22,0,0,1,.94.76,2.4,2.4,0,0,1,.38,1.43h0a2.62,2.62,0,0,1-.4,1.45,2.54,2.54,0,0,1-1.16.91,4.8,4.8,0,0,1-1.83.31A6.44,6.44,0,0,1,2.52,605.19Z"/><rect class="c" x="612.5" y="600.68" width="1" height="4.68"/><rect class="c" x="612.5" y="590.76" width="1" height="4.68"/><rect class="c" x="612.5" y="611.45" width="1" height="5.24"/><rect class="c" x="789.58" y="611.45" width="1" height="5.24"/><rect class="c" x="682.59" y="600.68" width="1" height="4.68"/><rect class="c" x="647.3" y="590.76" width="1" height="4.68"/><rect class="a" width="790.34" height="618.13"/><line class="f" x1="314.69" y1="377.37" x2="301.77" y2="377.37"/><line class="f" x1="483.37" y1="428.59" x2="483.37" y2="377.37"/><line class="f" x1="317.41" y1="428.59" x2="483.37" y2="428.59"/><line class="f" x1="317.41" y1="377.37" x2="317.41" y2="428.59"/><line class="f" x1="348.7" y1="377.37" x2="317.42" y2="377.37"/><line class="f" x1="348.7" y1="373.95" x2="348.7" y2="377.37"/><line class="f" x1="379.31" y1="373.95" x2="348.7" y2="373.95"/><line class="f" x1="379.31" y1="377.37" x2="379.31" y2="373.95"/><line class="f" x1="483.37" y1="377.37" x2="379.31" y2="377.37"/><line class="f" x1="488.81" y1="377.37" x2="486.09" y2="377.37"/><rect class="d" x="460.24" y="250.66" width="20.4" height="20.49"/><line class="f" x1="460.24" y1="271.16" x2="480.65" y2="271.16"/><line class="f" x1="460.24" y1="250.67" x2="460.24" y2="271.15"/><line class="f" x1="480.65" y1="250.67" x2="460.24" y2="250.67"/><line class="f" x1="480.65" y1="271.16" x2="480.65" y2="250.67"/><rect class="d" x="395.8" y="195.17" width="20.4" height="20.49"/><line class="f" x1="395.8" y1="215.66" x2="416.21" y2="215.66"/><line class="f" x1="395.8" y1="195.17" x2="395.8" y2="215.66"/><line class="f" x1="416.21" y1="195.17" x2="395.8" y2="195.17"/><line class="f" x1="416.21" y1="215.66" x2="416.21" y2="195.17"/><rect class="d" x="314.18" y="213.95" width="30.61" height="30.74"/><line class="f" x1="314.18" y1="244.69" x2="344.79" y2="244.69"/><line class="f" x1="314.18" y1="213.95" x2="314.18" y2="244.69"/><line class="f" x1="344.79" y1="213.95" x2="314.18" y2="213.95"/><line class="f" x1="344.79" y1="244.69" x2="344.79" y2="213.95"/><rect class="d" x="309.93" y="250.66" width="109.16" height="20.83"/><line class="f" x1="419.1" y1="271.5" x2="309.93" y2="271.5"/><line class="f" x1="309.93" y1="271.5" x2="309.93" y2="250.67"/><line class="f" x1="309.93" y1="250.67" x2="419.1" y2="250.67"/><line class="f" x1="419.1" y1="250.67" x2="419.1" y2="271.5"/><polygon points="484.73 377.37 447.32 377.37 447.32 370.54 488.81 370.54 488.81 377.37 484.73 377.37"/><polygon points="316.05 377.37 301.77 377.37 301.77 370.54 348.7 370.54 348.7 377.37 316.05 377.37"/><rect x="449.02" y="363.7" width="39.79" height="6.83"/><rect x="301.77" y="363.7" width="45.23" height="6.83"/><rect x="309.93" y="213.1" width="3.4" height="32.44"/><polygon points="480.65 363.7 480.65 194.31 457.86 194.31 457.86 186.12 488.81 186.12 488.81 194.31 488.81 363.7 480.65 363.7"/><polygon points="301.77 363.7 301.77 186.12 390.53 186.12 398.69 186.12 420.45 186.12 420.45 194.32 309.93 194.32 309.93 363.7 301.77 363.7"/><rect x="418.08" y="194.32" width="2.38" height="22.2"/><rect x="420.46" y="186.12" width="1.7" height="3.93"/><rect x="456.16" y="186.12" width="1.7" height="3.93"/><polygon points="309.93 213.1 309.93 209.68 340.54 209.68 340.54 194.32 343.94 194.32 343.94 213.1 309.93 213.1"/><rect x="456.16" y="248.28" width="24.48" height="2.39"/><rect x="483.37" y="377.37" width="1.36" height="51.23"/><rect x="316.05" y="377.37" width="1.36" height="51.23"/><polygon points="309.93 250.66 309.93 248.28 418.08 248.28 418.08 243.84 420.45 243.84 420.45 248.28 425.56 248.28 425.56 250.66 309.93 250.66"/><rect x="309.93" y="245.54" width="108.14" height="2.73"/><line class="f" x1="301.77" y1="377.37" x2="316.05" y2="377.37"/><line class="f" x1="316.05" y1="377.37" x2="348.7" y2="377.37"/><line class="f" x1="447.32" y1="377.37" x2="484.73" y2="377.37"/><line class="f" x1="484.73" y1="377.37" x2="488.81" y2="377.37"/><line class="f" x1="309.93" y1="363.7" x2="347" y2="363.7"/><line class="f" x1="449.02" y1="363.7" x2="480.65" y2="363.7"/><line class="f" x1="347" y1="363.7" x2="347" y2="370.53"/><line class="f" x1="449.02" y1="363.7" x2="449.02" y2="370.53"/><line class="f" x1="488.81" y1="363.7" x2="488.81" y2="363.7"/><line class="f" x1="317.41" y1="377.37" x2="317.41" y2="428.59"/><line class="f" x1="317.41" y1="428.59" x2="316.05" y2="428.59"/><line class="f" x1="483.37" y1="377.37" x2="483.37" y2="428.59"/><line class="f" x1="484.73" y1="428.59" x2="483.37" y2="428.59"/><line class="f" x1="447.32" y1="370.53" x2="447.32" y2="377.37"/><line class="f" x1="449.02" y1="370.53" x2="447.32" y2="370.53"/><line class="f" x1="348.7" y1="370.53" x2="348.7" y2="377.37"/><line class="f" x1="348.7" y1="370.53" x2="347" y2="370.53"/><line class="f" x1="484.73" y1="428.59" x2="316.05" y2="428.59"/><line class="f" x1="447.32" y1="377.37" x2="379.31" y2="377.37"/><line class="f" x1="449.02" y1="363.7" x2="381.01" y2="363.7"/><line class="f" x1="381.01" y1="363.7" x2="347" y2="363.7"/><line class="f" x1="379.31" y1="370.53" x2="379.31" y2="377.37"/><line class="f" x1="379.31" y1="373.95" x2="348.7" y2="373.95"/><line class="f" x1="378.29" y1="369.85" x2="378.29" y2="370.53"/><line class="f" x1="378.29" y1="370.53" x2="381.01" y2="370.53"/><line class="f" x1="381.01" y1="370.53" x2="381.01" y2="367.8"/><line class="f" x1="381.01" y1="367.8" x2="379.65" y2="367.8"/><line class="f" x1="379.65" y1="367.12" x2="376.93" y2="367.12"/><line class="f" x1="376.93" y1="367.12" x2="376.93" y2="369.85"/><line class="f" x1="376.93" y1="369.85" x2="379.65" y2="369.85"/><line class="f" x1="379.65" y1="369.85" x2="379.65" y2="367.12"/><line class="f" x1="348.36" y1="367.12" x2="351.08" y2="367.12"/><line class="f" x1="351.08" y1="367.12" x2="351.08" y2="369.85"/><line class="f" x1="351.08" y1="369.85" x2="348.36" y2="369.85"/><line class="f" x1="348.36" y1="369.85" x2="348.36" y2="367.12"/><line class="f" x1="376.93" y1="367.12" x2="351.08" y2="367.12"/><line class="f" x1="351.08" y1="369.85" x2="376.93" y2="369.85"/><line class="f" x1="376.93" y1="368.49" x2="351.08" y2="368.49"/><line class="f" x1="349.72" y1="369.85" x2="349.72" y2="370.53"/><line class="f" x1="349.72" y1="370.53" x2="347" y2="370.53"/><line class="f" x1="347" y1="370.53" x2="347" y2="367.8"/><line class="f" x1="347" y1="367.8" x2="348.36" y2="367.8"/><line class="f" x1="446.3" y1="369.85" x2="446.3" y2="370.53"/><line class="f" x1="446.3" y1="370.53" x2="449.02" y2="370.53"/><line class="f" x1="449.02" y1="370.53" x2="449.02" y2="367.8"/><line class="f" x1="449.02" y1="367.8" x2="447.66" y2="367.8"/><line class="f" x1="447.66" y1="367.12" x2="444.94" y2="367.12"/><line class="f" x1="444.94" y1="367.12" x2="444.94" y2="369.85"/><line class="f" x1="444.94" y1="369.85" x2="447.66" y2="369.85"/><line class="f" x1="447.66" y1="369.85" x2="447.66" y2="367.12"/><line class="f" x1="416.38" y1="369.85" x2="416.38" y2="370.53"/><line class="f" x1="416.38" y1="370.53" x2="413.65" y2="370.53"/><line class="f" x1="413.66" y1="370.53" x2="413.66" y2="367.8"/><line class="f" x1="413.66" y1="367.8" x2="415.02" y2="367.8"/><line class="f" x1="415.02" y1="367.12" x2="417.74" y2="367.12"/><line class="f" x1="417.74" y1="367.12" x2="417.74" y2="369.85"/><line class="f" x1="417.74" y1="369.85" x2="415.01" y2="369.85"/><line class="f" x1="415.02" y1="369.85" x2="415.02" y2="367.12"/><line class="f" x1="444.94" y1="367.12" x2="417.74" y2="367.12"/><line class="f" x1="417.74" y1="369.85" x2="444.94" y2="369.85"/><line class="f" x1="444.94" y1="368.49" x2="417.74" y2="368.49"/><line class="f" x1="381.01" y1="367.8" x2="383.73" y2="367.8"/><line class="f" x1="383.73" y1="367.8" x2="383.73" y2="370.54"/><line class="f" x1="383.73" y1="370.53" x2="381.01" y2="370.53"/><line class="f" x1="381.01" y1="370.53" x2="381.01" y2="367.8"/><line class="f" x1="383.73" y1="367.8" x2="413.65" y2="367.8"/><line class="f" x1="383.73" y1="369.17" x2="413.65" y2="369.17"/><line class="f" x1="383.73" y1="370.53" x2="413.65" y2="370.53"/><line class="f" x1="488.81" y1="363.7" x2="488.81" y2="261.59"/><line class="f" x1="480.65" y1="194.32" x2="457.86" y2="194.32"/><line class="f" x1="309.93" y1="250.67" x2="309.93" y2="363.71"/><line class="f" x1="480.65" y1="194.32" x2="480.65" y2="248.28"/><line class="f" x1="480.65" y1="250.67" x2="480.65" y2="363.71"/><line class="f" x1="488.81" y1="259.2" x2="488.81" y2="259.2"/><line class="f" x1="488.81" y1="261.59" x2="488.81" y2="261.59"/><line class="f" x1="418.08" y1="194.32" x2="343.94" y2="194.32"/><line class="f" x1="313.33" y1="245.54" x2="418.08" y2="245.54"/><line class="f" x1="418.08" y1="243.84" x2="418.08" y2="245.54"/><line class="f" x1="418.08" y1="194.32" x2="418.08" y2="216.51"/><line class="f" x1="420.46" y1="243.84" x2="420.46" y2="248.27"/><line class="f" x1="420.46" y1="194.32" x2="420.46" y2="216.51"/><line class="f" x1="420.46" y1="243.84" x2="418.08" y2="243.84"/><line class="f" x1="420.46" y1="216.51" x2="418.08" y2="216.51"/><line class="f" x1="343.94" y1="213.1" x2="313.33" y2="213.1"/><line class="f" x1="420.46" y1="248.27" x2="425.56" y2="248.27"/><line class="f" x1="456.16" y1="248.27" x2="480.65" y2="248.27"/><line class="f" x1="309.93" y1="250.67" x2="425.56" y2="250.67"/><line class="f" x1="456.16" y1="250.67" x2="480.65" y2="250.67"/><line class="f" x1="422.16" y1="190.05" x2="422.16" y2="186.12"/><line class="f" x1="456.16" y1="190.05" x2="456.16" y2="186.12"/><line class="f" x1="456.16" y1="190.05" x2="457.86" y2="190.05"/><line class="f" x1="422.16" y1="190.05" x2="420.46" y2="190.05"/><line class="f" x1="420.46" y1="190.05" x2="420.46" y2="194.32"/><line class="f" x1="457.86" y1="190.05" x2="457.86" y2="194.32"/><line class="f" x1="456.16" y1="248.27" x2="456.16" y2="250.67"/><line class="f" x1="425.56" y1="248.27" x2="425.56" y2="250.67"/><line class="f" x1="343.94" y1="194.32" x2="340.54" y2="194.32"/><line class="f" x1="313.33" y1="213.1" x2="313.33" y2="245.54"/><line class="f" x1="348.36" y1="367.12" x2="348.36" y2="335.7"/><g class="g"><path class="f" d="M348.36,335.7a31.36,31.36,0,0,1,31.29,31.42"/></g><line class="f" x1="419.1" y1="250.67" x2="309.93" y2="250.67"/><line class="f" x1="309.93" y1="250.67" x2="309.93" y2="271.5"/><line class="f" x1="309.93" y1="271.5" x2="419.1" y2="271.5"/><line class="f" x1="419.1" y1="271.5" x2="419.1" y2="250.67"/><line class="f" x1="398.69" y1="271.5" x2="398.69" y2="251.01"/><line class="f" x1="406.49" y1="258.84" x2="411.3" y2="263.67"/><line class="f" x1="411.3" y1="258.84" x2="406.49" y2="263.67"/><line class="f" x1="408.89" y1="264.67" x2="408.89" y2="257.84"/><line class="f" x1="405.49" y1="261.25" x2="412.29" y2="261.25"/><line class="f" x1="419.1" y1="251.01" x2="419.1" y2="271.5"/><line class="f" x1="398.69" y1="271.5" x2="419.1" y2="271.5"/><line class="f" x1="311.12" y1="269.79" x2="329.83" y2="269.79"/><line class="f" x1="329.83" y1="269.79" x2="329.83" y2="252.71"/><line class="f" x1="329.83" y1="252.71" x2="311.12" y2="252.71"/><line class="f" x1="311.12" y1="252.71" x2="311.12" y2="269.79"/><line class="f" x1="310.27" y1="271.5" x2="330.68" y2="271.5"/><line class="f" x1="312.82" y1="268.08" x2="328.13" y2="268.08"/><line class="f" x1="328.13" y1="268.08" x2="328.13" y2="256.13"/><line class="f" x1="328.13" y1="256.13" x2="312.82" y2="256.13"/><line class="f" x1="312.82" y1="256.13" x2="312.82" y2="268.08"/><g class="g"><path class="f" d="M321.16,259.54a.68.68,0,1,0-.68.69.69.69,0,0,0,.68-.69"/><path class="f" d="M373.36,257.5a3.07,3.07,0,1,0-3.06,3.07,3.07,3.07,0,0,0,3.06-3.07"/></g><line class="f" x1="365.54" y1="252.71" x2="365.54" y2="271.5"/><line class="f" x1="365.54" y1="271.5" x2="384.24" y2="271.5"/><line class="f" x1="384.24" y1="271.5" x2="384.24" y2="252.71"/><line class="f" x1="384.24" y1="252.71" x2="365.54" y2="252.71"/><g class="g"><path class="f" d="M373.36,266.72a3.07,3.07,0,1,0-3.06,3.07,3.07,3.07,0,0,0,3.06-3.07"/><path class="f" d="M382.54,266.72a3.06,3.06,0,1,0-3.06,3.07,3.07,3.07,0,0,0,3.06-3.07"/></g><line class="f" x1="381.69" y1="272.35" x2="368.09" y2="272.35"/><line class="f" x1="330.68" y1="251.01" x2="330.68" y2="271.5"/><line class="f" x1="330.68" y1="271.5" x2="351.08" y2="271.5"/><line class="f" x1="351.08" y1="271.5" x2="351.08" y2="251.01"/><line class="f" x1="416.21" y1="195.17" x2="416.21" y2="215.66"/><line class="f" x1="416.21" y1="215.66" x2="395.8" y2="215.66"/><line class="f" x1="395.8" y1="215.66" x2="395.8" y2="195.17"/><line class="f" x1="395.8" y1="195.17" x2="416.21" y2="195.17"/><g class="g"><path class="f" d="M412,205.41a6,6,0,1,0-5.95,6,6,6,0,0,0,5.95-6"/><path class="f" d="M410.93,205.41a4.93,4.93,0,1,0-4.93,5,4.94,4.94,0,0,0,4.93-5"/><path class="f" d="M320.14,219.08a.85.85,0,1,0-.85.85.85.85,0,0,0,.85-.85"/></g><line class="f" x1="344.79" y1="213.95" x2="344.79" y2="244.69"/><line class="f" x1="344.79" y1="244.69" x2="314.18" y2="244.69"/><line class="f" x1="314.18" y1="244.69" x2="314.18" y2="213.95"/><line class="f" x1="314.18" y1="213.95" x2="344.79" y2="213.95"/><line class="f" x1="343.09" y1="219.08" x2="343.09" y2="239.57"/><line class="f" x1="339.69" y1="242.98" x2="319.29" y2="242.98"/><line class="f" x1="315.88" y1="239.57" x2="315.88" y2="219.08"/><line class="f" x1="319.29" y1="215.66" x2="339.69" y2="215.66"/><g class="g"><path class="f" d="M339.69,215.66a3.41,3.41,0,0,1,3.4,3.42"/><path class="f" d="M343.09,239.57a3.41,3.41,0,0,1-3.4,3.41"/><path class="f" d="M315.88,219.08a3.42,3.42,0,0,1,3.41-3.42"/><path class="f" d="M319.29,243a3.41,3.41,0,0,1-3.41-3.41"/></g><line class="f" x1="394.95" y1="199.44" x2="343.94" y2="199.44"/><line class="f" x1="394.95" y1="199.44" x2="394.95" y2="194.32"/><line class="f" x1="359.24" y1="244.69" x2="359.24" y2="241.27"/><line class="f" x1="359.24" y1="241.27" x2="379.65" y2="241.27"/><line class="f" x1="379.65" y1="241.27" x2="379.65" y2="244.69"/><line class="f" x1="379.65" y1="244.69" x2="378.63" y2="244.69"/><line class="f" x1="378.63" y1="244.69" x2="378.63" y2="242.3"/><line class="f" x1="378.63" y1="242.3" x2="360.26" y2="242.3"/><line class="f" x1="360.26" y1="242.3" x2="360.26" y2="244.69"/><line class="f" x1="360.26" y1="244.69" x2="359.24" y2="244.69"/><line class="f" x1="359.24" y1="244.69" x2="359.24" y2="241.27"/><line class="f" x1="379.65" y1="244.69" x2="379.65" y2="241.27"/><line class="f" x1="360.26" y1="244.69" x2="360.26" y2="242.3"/><line class="f" x1="378.63" y1="244.69" x2="378.63" y2="242.3"/><line class="f" x1="359.24" y1="241.27" x2="379.65" y2="241.27"/><line class="f" x1="359.24" y1="242.3" x2="379.65" y2="242.3"/><line class="f" x1="359.24" y1="244.69" x2="360.26" y2="244.69"/><line class="f" x1="378.63" y1="244.69" x2="379.65" y2="244.69"/><line class="f" x1="343.94" y1="213.1" x2="343.94" y2="194.32"/><line class="f" x1="343.94" y1="213.1" x2="313.33" y2="213.1"/><line class="f" x1="343.94" y1="194.32" x2="340.54" y2="194.32"/><line class="f" x1="340.54" y1="194.32" x2="309.93" y2="194.32"/><line class="f" x1="309.93" y1="194.32" x2="309.93" y2="209.68"/><line class="f" x1="309.93" y1="209.68" x2="340.54" y2="209.68"/><line class="f" x1="340.54" y1="209.68" x2="340.54" y2="194.32"/><line class="f" x1="454.46" y1="250.67" x2="427.26" y2="250.67"/><line class="f" x1="454.46" y1="250.67" x2="454.46" y2="277.99"/><g class="g"><path class="f" d="M454.46,278a27.27,27.27,0,0,1-27.2-27.33"/></g><line class="f" x1="454.46" y1="248.27" x2="454.46" y2="250.67"/><line class="f" x1="427.26" y1="250.67" x2="427.26" y2="248.27"/><line class="f" x1="427.26" y1="250.67" x2="425.56" y2="250.67"/><line class="f" x1="427.26" y1="248.27" x2="425.56" y2="248.27"/><line class="f" x1="456.16" y1="250.67" x2="454.46" y2="250.67"/><line class="f" x1="456.16" y1="248.27" x2="454.46" y2="248.27"/><line class="f" x1="454.46" y1="248.27" x2="447.66" y2="248.27"/><line class="f" x1="443.92" y1="248.27" x2="443.16" y2="248.27"/><line class="f" x1="439.42" y1="248.27" x2="438.65" y2="248.27"/><line class="f" x1="434.91" y1="248.27" x2="434.06" y2="248.27"/><line class="f" x1="434.06" y1="248.27" x2="427.26" y2="248.27"/><line class="f" x1="454.46" y1="250.67" x2="454.46" y2="251.52"/><line class="f" x1="454.46" y1="251.52" x2="457.86" y2="251.52"/><line class="f" x1="457.86" y1="251.52" x2="457.86" y2="250.67"/><line class="f" x1="454.46" y1="248.27" x2="454.46" y2="247.42"/><line class="f" x1="454.46" y1="247.42" x2="457.86" y2="247.42"/><line class="f" x1="457.86" y1="247.42" x2="457.86" y2="248.28"/><line class="f" x1="427.26" y1="251.52" x2="423.86" y2="251.52"/><line class="f" x1="423.86" y1="251.52" x2="423.86" y2="250.67"/><line class="f" x1="427.26" y1="248.27" x2="427.26" y2="247.42"/><line class="f" x1="427.26" y1="247.42" x2="423.86" y2="247.42"/><line class="f" x1="423.86" y1="247.42" x2="423.86" y2="248.28"/><line class="f" x1="423.86" y1="190.05" x2="454.46" y2="190.05"/><line class="f" x1="423.86" y1="190.05" x2="423.86" y2="220.78"/><g class="g"><path class="f" d="M454.46,190.05a30.67,30.67,0,0,1-30.6,30.73"/></g><line class="f" x1="423.86" y1="186.12" x2="423.86" y2="190.05"/><line class="f" x1="454.46" y1="190.05" x2="454.46" y2="186.12"/><line class="f" x1="454.46" y1="190.05" x2="456.16" y2="190.05"/><line class="f" x1="422.16" y1="190.05" x2="423.86" y2="190.05"/><line class="f" x1="418.08" y1="242.13" x2="418.08" y2="218.22"/><line class="f" x1="418.08" y1="242.13" x2="394.27" y2="242.13"/><g class="g"><path class="f" d="M394.27,242.13a23.86,23.86,0,0,1,23.81-23.91"/></g><line class="f" x1="420.46" y1="242.13" x2="418.08" y2="242.13"/><line class="f" x1="418.08" y1="218.22" x2="420.46" y2="218.22"/><line class="f" x1="418.08" y1="218.22" x2="418.08" y2="216.51"/><line class="f" x1="420.46" y1="218.22" x2="420.46" y2="216.51"/><line class="f" x1="418.08" y1="243.84" x2="418.08" y2="242.13"/><line class="f" x1="420.46" y1="243.84" x2="420.46" y2="242.13"/><line class="f" x1="420.46" y1="242.13" x2="420.46" y2="235.3"/><line class="f" x1="420.46" y1="231.54" x2="420.46" y2="230.77"/><line class="f" x1="420.46" y1="227.02" x2="420.46" y2="226.25"/><line class="f" x1="420.46" y1="225.05" x2="420.46" y2="218.22"/><line class="f" x1="418.08" y1="242.13" x2="417.23" y2="242.13"/><line class="f" x1="417.23" y1="242.13" x2="417.23" y2="245.54"/><line class="f" x1="417.23" y1="245.54" x2="418.08" y2="245.54"/><line class="f" x1="420.46" y1="242.13" x2="421.31" y2="242.13"/><line class="f" x1="421.31" y1="242.13" x2="421.31" y2="245.54"/><line class="f" x1="421.31" y1="245.54" x2="420.46" y2="245.54"/><line class="f" x1="417.23" y1="218.22" x2="417.23" y2="214.81"/><line class="f" x1="417.23" y1="214.81" x2="418.08" y2="214.81"/><line class="f" x1="420.46" y1="218.22" x2="421.31" y2="218.22"/><line class="f" x1="421.31" y1="218.22" x2="421.31" y2="214.81"/><line class="f" x1="421.31" y1="214.81" x2="420.46" y2="214.81"/><line class="f" x1="390.7" y1="362" x2="438.31" y2="362"/><line class="f" x1="438.31" y1="362" x2="438.31" y2="358.58"/><line class="f" x1="438.31" y1="358.58" x2="390.7" y2="358.58"/><line class="f" x1="390.7" y1="358.58" x2="390.7" y2="362"/><g class="g"><path class="f" d="M389,360.29a1.7,1.7,0,1,0-1.7,1.71,1.71,1.71,0,0,0,1.7-1.71"/></g><line class="f" x1="379.31" y1="377.37" x2="372.51" y2="377.37"/><line class="f" x1="368.77" y1="377.37" x2="368" y2="377.37"/><line class="f" x1="364.26" y1="377.37" x2="363.49" y2="377.37"/><line class="f" x1="359.75" y1="377.37" x2="355.5" y2="377.37"/><line class="f" x1="355.5" y1="377.37" x2="348.7" y2="377.37"/><line class="f" x1="309.93" y1="209.68" x2="340.54" y2="209.68"/><line class="f" x1="340.54" y1="209.68" x2="340.54" y2="194.32"/><line class="f" x1="340.54" y1="194.32" x2="337.14" y2="206.27"/><line class="f" x1="337.14" y1="206.27" x2="309.93" y2="209.68"/><rect class="d" x="413.48" y="309.06" width="17" height="27.32"/><line class="f" x1="413.48" y1="336.38" x2="430.49" y2="336.38"/><line class="f" x1="413.48" y1="309.06" x2="413.48" y2="336.38"/><line class="f" x1="430.49" y1="309.06" x2="413.49" y2="309.06"/><line class="f" x1="430.49" y1="336.38" x2="430.49" y2="309.06"/><rect class="d" x="378.22" y="303.53" width="10.2" height="40.2"/><line class="f" x1="378.22" y1="343.73" x2="388.42" y2="343.73"/><line class="f" x1="378.22" y1="303.53" x2="378.22" y2="343.73"/><line class="f" x1="388.42" y1="303.53" x2="378.22" y2="303.53"/><line class="f" x1="388.42" y1="343.73" x2="388.42" y2="303.53"/><rect class="d" x="343.94" y="194.32" width="51.01" height="5.12"/><line class="f" x1="343.94" y1="199.44" x2="394.95" y2="199.44"/><line class="f" x1="343.94" y1="194.32" x2="343.94" y2="199.44"/><line class="f" x1="394.95" y1="194.32" x2="343.94" y2="194.32"/><line class="f" x1="394.95" y1="199.44" x2="394.95" y2="194.32"/><rect class="d" x="378.63" y="242.3" width="1.02" height="2.39"/><line class="f" x1="379.65" y1="244.69" x2="379.65" y2="242.3"/><line class="f" x1="378.63" y1="244.69" x2="379.65" y2="244.69"/><line class="f" x1="378.63" y1="242.3" x2="378.63" y2="244.69"/><line class="f" x1="379.65" y1="242.3" x2="378.63" y2="242.3"/><rect class="d" x="359.24" y="241.27" width="20.4" height="1.02"/><line class="f" x1="359.24" y1="242.3" x2="379.65" y2="242.3"/><line class="f" x1="359.24" y1="241.27" x2="359.24" y2="242.3"/><line class="f" x1="379.65" y1="241.27" x2="359.24" y2="241.27"/><line class="f" x1="379.65" y1="242.3" x2="379.65" y2="241.27"/><rect class="d" x="359.24" y="242.3" width="1.02" height="2.39"/><line class="f" x1="360.26" y1="244.69" x2="360.26" y2="242.3"/><line class="f" x1="359.24" y1="244.69" x2="360.26" y2="244.69"/><line class="f" x1="359.24" y1="242.3" x2="359.24" y2="244.69"/><line class="f" x1="360.26" y1="242.3" x2="359.24" y2="242.3"/><polygon class="d" points="386.1 361.5 385.6 360.29 386.1 359.08 387.3 358.58 388.5 359.08 389 360.29 388.5 361.5 387.3 362 386.1 361.5"/><g class="g"><path class="f" d="M389,360.29a1.7,1.7,0,1,1-3.4,0"/><path class="f" d="M385.6,360.29a1.7,1.7,0,1,1,3.4,0"/></g><rect class="d" x="390.7" y="358.58" width="47.61" height="3.41"/><line class="f" x1="390.7" y1="362" x2="438.31" y2="362"/><line class="f" x1="390.7" y1="358.58" x2="390.7" y2="362"/><line class="f" x1="438.31" y1="358.58" x2="390.7" y2="358.58"/><line class="f" x1="438.31" y1="362" x2="438.31" y2="358.58"/><polygon class="d" points="382.97 339.25 381.08 331.46 381.08 329.19 380.05 325.57 380.05 321.77 381.08 318.15 381.08 315.88 382.97 308.1 384.85 308.1 384.85 318.74 386.22 320.42 386.95 322.54 386.95 324.8 386.22 326.92 384.85 328.61 384.85 339.25 382.97 339.25"/><line class="f" x1="384.85" y1="318.74" x2="386.22" y2="320.42"/><line class="f" x1="386.22" y1="320.42" x2="386.95" y2="322.54"/><line class="f" x1="386.95" y1="322.54" x2="386.95" y2="324.8"/><line class="f" x1="386.95" y1="324.8" x2="386.22" y2="326.92"/><line class="f" x1="386.22" y1="326.92" x2="384.85" y2="328.6"/><line class="f" x1="384.85" y1="328.6" x2="384.85" y2="339.25"/><line class="f" x1="384.85" y1="339.25" x2="382.97" y2="339.25"/><line class="f" x1="382.97" y1="339.25" x2="381.08" y2="331.46"/><line class="f" x1="381.08" y1="331.46" x2="381.08" y2="329.19"/><line class="f" x1="381.08" y1="329.19" x2="380.05" y2="325.57"/><line class="f" x1="380.05" y1="325.57" x2="380.05" y2="321.77"/><line class="f" x1="380.05" y1="321.77" x2="381.08" y2="318.15"/><line class="f" x1="381.08" y1="318.15" x2="381.08" y2="315.89"/><line class="f" x1="381.08" y1="315.89" x2="382.97" y2="308.1"/><line class="f" x1="382.97" y1="308.1" x2="384.85" y2="308.1"/><line class="f" x1="384.85" y1="308.1" x2="384.85" y2="318.74"/><line class="f" x1="384.85" y1="308.1" x2="384.85" y2="339.25"/><line class="f" x1="381.08" y1="331.46" x2="381.08" y2="315.89"/><line class="f" x1="382.97" y1="308.1" x2="384.85" y2="308.1"/><line class="f" x1="384.1" y1="337.17" x2="384.1" y2="335.09"/><line class="f" x1="384.1" y1="335.09" x2="383.63" y2="335.09"/><line class="f" x1="383.63" y1="335.09" x2="383.63" y2="337.17"/><line class="f" x1="383.63" y1="337.17" x2="384.1" y2="337.17"/><line class="f" x1="384.1" y1="334.57" x2="384.1" y2="332.5"/><line class="f" x1="384.1" y1="332.5" x2="383.63" y2="332.5"/><line class="f" x1="383.63" y1="332.5" x2="383.63" y2="334.57"/><line class="f" x1="383.63" y1="334.57" x2="384.1" y2="334.57"/><line class="f" x1="382.97" y1="308.1" x2="382.97" y2="339.25"/><line class="f" x1="383.63" y1="331.98" x2="384.1" y2="331.98"/><line class="f" x1="384.1" y1="331.98" x2="384.1" y2="330.94"/><line class="f" x1="384.1" y1="330.94" x2="383.63" y2="330.94"/><line class="f" x1="383.63" y1="330.94" x2="383.63" y2="331.98"/><g class="g"><path class="f" d="M384.85,318.74a6.64,6.64,0,0,1,0,9.86"/></g><polygon class="d" points="452.47 353.46 450.77 353 449.52 351.75 449.07 350.04 449.07 349.02 449.27 348.54 449.75 348.34 449.25 347.93 449.07 347.31 449.07 323.75 449.37 323.02 450.09 322.73 449.37 322.42 449.07 321.7 449.07 298.13 449.04 297.66 449.3 297.26 449.75 297.11 449.27 296.91 449.07 296.43 449.07 295.4 449.52 293.7 450.77 292.44 452.47 291.99 477.31 291.99 477.8 292.19 478 292.67 478 352.78 477.8 353.26 477.31 353.46 452.47 353.46"/><line class="f" x1="477.79" y1="353.26" x2="478" y2="352.78"/><line class="f" x1="477.32" y1="353.46" x2="477.79" y2="353.26"/><line class="f" x1="452.47" y1="353.46" x2="477.32" y2="353.46"/><line class="f" x1="450.77" y1="353" x2="452.47" y2="353.46"/><line class="f" x1="449.52" y1="351.75" x2="450.77" y2="353"/><line class="f" x1="449.07" y1="350.04" x2="449.52" y2="351.75"/><line class="f" x1="449.07" y1="349.02" x2="449.07" y2="350.04"/><line class="f" x1="449.27" y1="348.54" x2="449.07" y2="349.02"/><line class="f" x1="449.75" y1="348.34" x2="449.27" y2="348.54"/><line class="f" x1="449.25" y1="347.93" x2="449.75" y2="348.34"/><line class="f" x1="449.07" y1="347.31" x2="449.25" y2="347.93"/><line class="f" x1="449.07" y1="323.75" x2="449.07" y2="347.31"/><line class="f" x1="449.37" y1="323.02" x2="449.07" y2="323.75"/><line class="f" x1="450.09" y1="322.72" x2="449.37" y2="323.02"/><line class="f" x1="449.37" y1="322.42" x2="450.09" y2="322.72"/><line class="f" x1="449.07" y1="321.7" x2="449.37" y2="322.42"/><line class="f" x1="449.07" y1="298.13" x2="449.07" y2="321.7"/><line class="f" x1="449.04" y1="297.66" x2="449.07" y2="298.13"/><line class="f" x1="449.3" y1="297.26" x2="449.04" y2="297.66"/><line class="f" x1="449.75" y1="297.11" x2="449.3" y2="297.26"/><line class="f" x1="449.27" y1="296.91" x2="449.75" y2="297.11"/><line class="f" x1="449.07" y1="296.43" x2="449.27" y2="296.91"/><line class="f" x1="449.07" y1="295.4" x2="449.07" y2="296.43"/><line class="f" x1="449.52" y1="293.7" x2="449.07" y2="295.4"/><line class="f" x1="450.77" y1="292.44" x2="449.52" y2="293.7"/><line class="f" x1="452.47" y1="291.99" x2="450.77" y2="292.44"/><line class="f" x1="477.32" y1="291.99" x2="452.47" y2="291.99"/><line class="f" x1="477.79" y1="292.19" x2="477.32" y2="291.99"/><line class="f" x1="478" y1="292.67" x2="477.8" y2="292.19"/><line class="f" x1="478" y1="352.78" x2="478" y2="292.67"/><line class="f" x1="449.07" y1="296.43" x2="449.07" y2="295.4"/><line class="f" x1="452.47" y1="291.99" x2="477.32" y2="291.99"/><line class="f" x1="478" y1="292.67" x2="478" y2="296.43"/><line class="f" x1="477.32" y1="297.11" x2="449.75" y2="297.11"/><line class="f" x1="478" y1="296.43" x2="478" y2="322.72"/><line class="f" x1="478" y1="322.72" x2="475.61" y2="322.72"/><line class="f" x1="449.07" y1="321.7" x2="449.07" y2="298.13"/><line class="f" x1="450.09" y1="297.11" x2="467.15" y2="297.11"/><line class="f" x1="467.15" y1="322.72" x2="450.09" y2="322.72"/><line class="f" x1="476.64" y1="321.7" x2="476.64" y2="298.13"/><line class="f" x1="420.52" y1="297.11" x2="420.52" y2="302.23"/><line class="f" x1="420.52" y1="305.65" x2="420.52" y2="310.77"/><line class="f" x1="420.52" y1="314.19" x2="420.52" y2="319.31"/><line class="f" x1="420.52" y1="322.72" x2="420.52" y2="327.85"/><line class="f" x1="420.52" y1="331.26" x2="420.52" y2="336.38"/><line class="f" x1="420.52" y1="339.8" x2="420.52" y2="343.21"/><line class="f" x1="420.52" y1="343.21" x2="420.52" y2="348.34"/><line class="f" x1="449.07" y1="349.02" x2="449.07" y2="350.04"/><line class="f" x1="452.47" y1="353.46" x2="477.32" y2="353.46"/><line class="f" x1="478" y1="352.78" x2="478" y2="349.02"/><line class="f" x1="477.32" y1="348.34" x2="449.75" y2="348.34"/><line class="f" x1="478" y1="349.02" x2="478" y2="322.72"/><line class="f" x1="478" y1="322.72" x2="475.61" y2="322.72"/><line class="f" x1="449.07" y1="323.75" x2="449.07" y2="347.31"/><line class="f" x1="450.09" y1="348.34" x2="467.15" y2="348.34"/><line class="f" x1="475.61" y1="322.72" x2="450.09" y2="322.72"/><line class="f" x1="476.64" y1="323.75" x2="476.64" y2="347.31"/><line class="f" x1="450.09" y1="297.11" x2="444.99" y2="297.11"/><line class="f" x1="441.58" y1="297.11" x2="436.48" y2="297.11"/><line class="f" x1="433.08" y1="297.11" x2="427.98" y2="297.11"/><line class="f" x1="425.62" y1="297.11" x2="420.52" y2="297.11"/><line class="f" x1="450.09" y1="348.34" x2="444.99" y2="348.34"/><line class="f" x1="441.58" y1="348.34" x2="436.48" y2="348.34"/><line class="f" x1="433.08" y1="348.34" x2="427.98" y2="348.34"/><line class="f" x1="425.62" y1="348.34" x2="420.52" y2="348.34"/><g class="g"><path class="f" d="M477.31,292a.67.67,0,0,1,.68.68"/><path class="f" d="M478,296.43a.68.68,0,0,1-.68.68"/><path class="f" d="M449.75,297.11a.68.68,0,0,1-.68-.68"/><path class="f" d="M449.07,298.13a1,1,0,0,1,1-1"/><path class="f" d="M450.09,322.72a1,1,0,0,1-1-1"/><path class="f" d="M478,352.78a.68.68,0,0,1-.68.68"/><path class="f" d="M477.31,348.34a.67.67,0,0,1,.68.68"/><path class="f" d="M449.07,349a.67.67,0,0,1,.68-.68"/><path class="f" d="M450.09,348.34a1,1,0,0,1-1-1"/><path class="f" d="M449.07,323.75a1,1,0,0,1,1-1"/><path class="f" d="M473,321.59A94.13,94.13,0,0,1,473,298"/><path class="f" d="M473,347.21a98.16,98.16,0,0,1,0-23.57"/><path class="f" d="M449.07,295.4a3.41,3.41,0,0,1,3.4-3.41"/><path class="f" d="M452.47,353.46a3.41,3.41,0,0,1-3.4-3.42"/></g><polygon class="d" points="370.81 214.47 370.44 214.31 370.3 213.95 370.3 199.95 370.44 199.59 370.81 199.44 388.49 199.44 388.85 199.59 389 199.95 389 213.95 388.85 214.31 388.49 214.47 370.81 214.47"/><g class="g"><path class="f" d="M388.49,199.44a.51.51,0,0,1,.51.51"/></g><line class="f" x1="389" y1="213.95" x2="389" y2="199.95"/><g class="g"><path class="f" d="M389,214a.52.52,0,0,1-.51.52"/></g><line class="f" x1="370.81" y1="214.46" x2="388.49" y2="214.46"/><g class="g"><path class="f" d="M370.81,214.46a.5.5,0,0,1-.51-.51"/></g><line class="f" x1="370.3" y1="199.95" x2="370.3" y2="213.95"/><g class="g"><path class="f" d="M370.3,200a.51.51,0,0,1,.51-.51"/></g><line class="f" x1="388.49" y1="199.44" x2="370.81" y2="199.44"/><line class="f" x1="387.47" y1="203.2" x2="371.83" y2="203.2"/><line class="f" x1="371.32" y1="203.71" x2="371.32" y2="212.93"/><line class="f" x1="371.83" y1="213.44" x2="387.47" y2="213.44"/><line class="f" x1="387.98" y1="212.93" x2="387.98" y2="203.71"/><g class="g"><path class="f" d="M371.32,203.71a.5.5,0,0,1,.51-.51"/><path class="f" d="M371.83,213.44a.51.51,0,0,1-.51-.51"/><path class="f" d="M388,212.93a.51.51,0,0,1-.51.51"/><path class="f" d="M387.47,203.2a.51.51,0,0,1,.51.51"/></g><polygon class="d" points="379.4 205.29 379.27 205.05 379.04 203.25 378.93 202.92 378.8 201.49 379.05 200.88 379.65 200.63 380.25 200.88 380.5 201.49 380.36 202.92 380.25 203.25 380.02 205.05 379.9 205.29 379.65 205.39 379.4 205.29"/><line class="f" x1="380.5" y1="201.49" x2="380.36" y2="202.92"/><g class="g"><path class="f" d="M380.36,202.92a.76.76,0,0,1-.11.33"/></g><line class="f" x1="380.25" y1="203.25" x2="380.03" y2="205.05"/><g class="g"><path class="f" d="M380,205.05a.4.4,0,0,1-.38.34.38.38,0,0,1-.38-.34"/></g><line class="f" x1="379.27" y1="205.05" x2="379.04" y2="203.25"/><g class="g"><path class="f" d="M379,203.25a.76.76,0,0,1-.11-.33"/></g><line class="f" x1="378.93" y1="202.92" x2="378.8" y2="201.49"/><g class="g"><path class="f" d="M378.8,201.49a.85.85,0,1,1,1.7,0"/></g><line class="f" x1="379.19" y1="202.34" x2="379.19" y2="202.85"/><line class="f" x1="380.11" y1="202.85" x2="380.11" y2="202.34"/><line class="f" x1="380.11" y1="202.34" x2="379.19" y2="202.34"/><g class="g"><path class="f" d="M380.11,202.85a.47.47,0,0,1-.46.46.46.46,0,0,1-.46-.46"/><path class="f" d="M380.25,203.25a.73.73,0,0,1-.6.33.75.75,0,0,1-.61-.33"/></g><rect class="d" x="460.25" y="194.32" width="20.4" height="53.96"/><line class="f" x1="460.25" y1="248.27" x2="460.25" y2="194.32"/><line class="f" x1="460.25" y1="194.32" x2="480.65" y2="194.32"/><line class="f" x1="480.65" y1="194.32" x2="480.65" y2="248.28"/><line class="f" x1="480.65" y1="248.27" x2="460.25" y2="248.27"/><line class="f" x1="470.45" y1="245.58" x2="470.45" y2="197.01"/><line class="f" x1="464.45" y1="243.07" x2="476.67" y2="238.51"/><line class="f" x1="463.84" y1="237.93" x2="475.21" y2="236.04"/><line class="f" x1="477.8" y1="230.9" x2="465.33" y2="229.35"/><line class="f" x1="476.17" y1="222.94" x2="465.33" y2="225.05"/><line class="f" x1="476.79" y1="220.04" x2="463.43" y2="220.04"/><line class="f" x1="476.85" y1="211.84" x2="463.65" y2="213.79"/><line class="f" x1="476.63" y1="208.77" x2="464.57" y2="208.77"/><line class="f" x1="476.75" y1="200.68" x2="464.39" y2="199.12"/><line class="f" x1="475.91" y1="202.63" x2="465.46" y2="204.21"/><rect class="d" x="309.93" y="309.97" width="27.21" height="27.32"/><polygon class="d" points="337.14 330.46 337.14 316.8 346.32 316.8 348.02 317.26 349.27 318.51 349.72 320.22 349.72 327.05 349.27 328.75 348.02 330 346.32 330.46 337.14 330.46"/><polygon class="d" points="316.73 309.97 316.73 300.75 317.19 299.04 318.43 297.79 320.13 297.33 326.94 297.33 328.64 297.79 329.88 299.04 330.34 300.75 330.34 309.97 316.73 309.97"/><polygon class="d" points="320.13 349.93 318.43 349.47 317.19 348.22 316.74 346.51 316.74 337.29 330.34 337.29 330.34 346.51 329.88 348.22 328.64 349.47 326.94 349.93 320.13 349.93"/><line class="f" x1="348.02" y1="320.22" x2="348.02" y2="327.05"/><line class="f" x1="346.32" y1="330.46" x2="337.14" y2="330.46"/><line class="f" x1="349.72" y1="320.22" x2="349.72" y2="327.05"/><line class="f" x1="337.14" y1="316.8" x2="346.32" y2="316.8"/><g class="g"><path class="f" d="M348,327.05a1.7,1.7,0,0,1-1.7,1.7"/><path class="f" d="M346.32,318.51a1.7,1.7,0,0,1,1.7,1.71"/><path class="f" d="M349.72,327.05a3.41,3.41,0,0,1-3.4,3.41"/><path class="f" d="M346.32,316.8a3.41,3.41,0,0,1,3.4,3.42"/></g><line class="f" x1="320.14" y1="299.04" x2="326.94" y2="299.04"/><line class="f" x1="330.34" y1="300.75" x2="330.34" y2="309.97"/><line class="f" x1="320.14" y1="297.34" x2="326.94" y2="297.34"/><line class="f" x1="316.73" y1="309.97" x2="316.73" y2="300.75"/><g class="g"><path class="f" d="M326.94,299a1.71,1.71,0,0,1,1.7,1.71"/><path class="f" d="M318.43,300.75a1.71,1.71,0,0,1,1.7-1.71"/><path class="f" d="M326.94,297.34a3.41,3.41,0,0,1,3.4,3.41"/><path class="f" d="M316.73,300.75a3.41,3.41,0,0,1,3.4-3.41"/></g><line class="f" x1="320.14" y1="348.22" x2="326.94" y2="348.22"/><line class="f" x1="330.34" y1="346.51" x2="330.34" y2="337.29"/><line class="f" x1="320.14" y1="349.93" x2="326.94" y2="349.93"/><line class="f" x1="316.73" y1="337.29" x2="316.73" y2="346.51"/><g class="g"><path class="f" d="M328.64,346.51a1.7,1.7,0,0,1-1.7,1.71"/><path class="f" d="M320.14,348.22a1.7,1.7,0,0,1-1.7-1.71"/><path class="f" d="M330.34,346.51a3.41,3.41,0,0,1-3.4,3.42"/><path class="f" d="M320.14,349.93a3.41,3.41,0,0,1-3.4-3.42"/></g><line class="f" x1="309.93" y1="309.97" x2="309.93" y2="337.29"/><line class="f" x1="309.93" y1="309.97" x2="337.14" y2="309.97"/><line class="f" x1="337.14" y1="309.97" x2="337.14" y2="337.29"/><line class="f" x1="337.14" y1="337.29" x2="309.93" y2="337.29"/><polygon class="d" points="355.39 216.16 353.46 215.15 352.28 213.92 351.51 212.4 351.25 210.71 351.25 199.44 363.83 199.44 363.83 210.71 363.57 212.4 362.81 213.92 361.63 215.15 359.69 216.16 357.54 216.51 355.39 216.16"/><line class="f" x1="351.25" y1="199.44" x2="351.25" y2="210.71"/><line class="f" x1="351.25" y1="199.44" x2="363.83" y2="199.44"/><line class="f" x1="363.83" y1="199.44" x2="363.83" y2="210.71"/><line class="f" x1="353.29" y1="203.54" x2="353.29" y2="210.71"/><line class="f" x1="361.79" y1="203.54" x2="361.79" y2="210.71"/><line class="f" x1="361.79" y1="203.54" x2="353.29" y2="203.54"/><g class="g"><path class="f" d="M353.46,215.15a5.57,5.57,0,0,1-2.21-4.44"/><path class="f" d="M363.83,210.71a5.55,5.55,0,0,1-2.2,4.44"/><path class="f" d="M361.62,215.15a6.8,6.8,0,0,1-8.16,0"/><path class="f" d="M363.83,210.71a5.55,5.55,0,0,1-2.2,4.44"/><path class="f" d="M361.62,215.15a6.72,6.72,0,0,1-4.08,1.36"/><path class="f" d="M361.79,210.71a3.5,3.5,0,0,1-1.39,2.8"/><path class="f" d="M360.4,213.51a4.77,4.77,0,0,1-2.86,1,4.72,4.72,0,0,1-2.85-1"/><path class="f" d="M354.69,213.51a3.5,3.5,0,0,1-1.4-2.8"/></g><line class="f" x1="457.86" y1="194.32" x2="451.06" y2="194.32"/><line class="f" x1="447.32" y1="194.32" x2="446.56" y2="194.32"/><line class="f" x1="442.82" y1="194.32" x2="442.05" y2="194.32"/><line class="f" x1="438.31" y1="194.32" x2="431.51" y2="194.32"/><line class="f" x1="427.77" y1="194.32" x2="427.26" y2="194.32"/><line class="f" x1="427.26" y1="194.32" x2="420.46" y2="194.32"/><line class="f" x1="343.2" y1="263.51" x2="343.2" y2="257.78"/><line class="f" x1="343.2" y1="257.78" x2="340.88" y2="259.66"/><line class="f" x1="340.88" y1="259.66" x2="338.56" y2="257.78"/><line class="f" x1="338.56" y1="257.78" x2="338.56" y2="263.51"/><line class="f" x1="316.05" y1="432.01" x2="484.73" y2="432.01"/><line class="f" x1="316.05" y1="430.3" x2="484.73" y2="430.3"/><line class="f" x1="301.77" y1="186.12" x2="301.77" y2="377.37"/><line class="f" x1="301.77" y1="377.37" x2="316.05" y2="377.37"/><line class="f" x1="316.05" y1="377.37" x2="316.05" y2="432.01"/><line class="f" x1="316.05" y1="432.01" x2="484.73" y2="432.01"/><line class="f" x1="484.73" y1="432.01" x2="484.73" y2="377.37"/><line class="f" x1="484.73" y1="377.37" x2="488.81" y2="377.37"/><line class="f" x1="488.81" y1="377.37" x2="488.81" y2="186.12"/><line class="f" x1="488.81" y1="186.12" x2="301.77" y2="186.12"/><path class="h" d="M377.76,398.77v7H377v-6.36h-1.65v-.64Z"/><path class="h" d="M379.44,405.27a.53.53,0,0,1,.53-.54.54.54,0,0,1,.54.54.55.55,0,0,1-.54.55A.54.54,0,0,1,379.44,405.27Z"/><path class="h" d="M381.45,402.27c0-2.23,1.17-3.55,2.79-3.55s2.8,1.32,2.8,3.55-1.18,3.56-2.8,3.56S381.45,404.5,381.45,402.27Zm4.85,0c0-1.87-.84-2.9-2.06-2.9s-2.06,1-2.06,2.9.84,2.9,2.06,2.9S386.3,404.14,386.3,402.27Z"/><path class="h" d="M394,403.93h-1.4v1.84h-.72v-1.84H388v-.52l3.71-4.64h.8l-3.58,4.52h3v-1.62h.7v1.62H394Z"/><path class="h" d="M368.37,221.9v7h-.72v-6.36H366v-.64Z"/><path class="h" d="M370.05,228.4a.53.53,0,0,1,.53-.54.54.54,0,0,1,.54.54.55.55,0,0,1-.54.55A.54.54,0,0,1,370.05,228.4Z"/><path class="h" d="M372.06,225.4c0-2.23,1.17-3.55,2.79-3.55s2.8,1.32,2.8,3.55-1.18,3.56-2.8,3.56S372.06,227.63,372.06,225.4Zm4.85,0c0-1.87-.84-2.9-2.06-2.9s-2.06,1-2.06,2.9.84,2.9,2.06,2.9S376.91,227.27,376.91,225.4Z"/><path class="h" d="M383.22,226.89c0,1.17-.85,2.07-2.54,2.07a3.64,3.64,0,0,1-2.52-.9l.35-.57a3.07,3.07,0,0,0,2.17.81c1.16,0,1.8-.54,1.8-1.41s-.59-1.39-1.89-1.39h-.5V225l1.94-2.43h-3.58v-.64H383v.51l-2,2.49C382.47,225,383.22,225.77,383.22,226.89Z"/><path class="h" d="M377.76,283.14v7H377v-6.36h-1.65v-.63Z"/><path class="h" d="M379.44,289.63a.53.53,0,0,1,.53-.54.54.54,0,0,1,.54.54.55.55,0,0,1-.54.55A.54.54,0,0,1,379.44,289.63Z"/><path class="h" d="M381.45,286.63c0-2.23,1.17-3.55,2.79-3.55s2.8,1.32,2.8,3.55-1.18,3.56-2.8,3.56S381.45,288.86,381.45,286.63Zm4.85,0c0-1.87-.84-2.9-2.06-2.9s-2.06,1-2.06,2.9.84,2.9,2.06,2.9S386.3,288.5,386.3,286.63Z"/><path class="h" d="M392.84,289.49v.64h-4.91v-.51l2.91-2.85c.79-.78.94-1.25.94-1.73,0-.81-.57-1.31-1.64-1.31a2.38,2.38,0,0,0-1.91.78l-.51-.44a3.17,3.17,0,0,1,2.48-1c1.42,0,2.32.71,2.32,1.88a2.88,2.88,0,0,1-1.15,2.19L389,289.49Z"/><path class="h" d="M436.65,224.4v7h-.72V225h-1.65v-.63Z"/><path class="h" d="M438.33,230.89a.53.53,0,0,1,.53-.54.54.54,0,0,1,.54.54.55.55,0,0,1-.54.55A.54.54,0,0,1,438.33,230.89Z"/><path class="h" d="M440.34,227.89c0-2.23,1.17-3.55,2.79-3.55s2.8,1.32,2.8,3.55-1.18,3.56-2.8,3.56S440.34,230.12,440.34,227.89Zm4.85,0c0-1.87-.84-2.9-2.06-2.9s-2.06,1-2.06,2.9.84,2.9,2.06,2.9S445.19,229.76,445.19,227.89Z"/><path class="h" d="M448.89,224.4v7h-.72V225h-1.65v-.63Z"/></svg>