<svg xmlns="http://www.w3.org/2000/svg" xmlns:xlink="http://www.w3.org/1999/xlink" viewBox="0 0 790.58 618.13"><defs><style>.a,.f{fill:none;}.b{fill:#595a5c;}.c{fill:#b6906c;}.d{fill:#fff;}.e{fill:#231f20;}.f{stroke:#000;stroke-linecap:round;stroke-linejoin:round;stroke-width:0.35px;}.g{clip-path:url(#a);}.h{fill:#58595b;}</style><clipPath id="a"><polygon class="a" points="342.01 32.2 342.01 88.47 290.85 88.47 290.85 341.24 290.85 529.67 319.08 529.67 319.08 585.92 413.99 585.92 413.99 529.67 413.99 515.61 407.64 515.61 407.64 341.24 499.73 341.24 499.73 200.97 499.73 88.47 495.49 88.47 495.49 32.2 342.01 32.2"/></clipPath></defs><path class="b" d="M55.31,597.13H57.1V609.9H55.31Zm.92,6.11h4.09a1.89,1.89,0,0,0,1-.27,1.82,1.82,0,0,0,.68-.77,2.67,2.67,0,0,0,.24-1.16,2.7,2.7,0,0,0-.24-1.16,1.82,1.82,0,0,0-1.7-1H56.23v-1.7h4a4.09,4.09,0,0,1,2,.48A3.45,3.45,0,0,1,63.62,599a4.64,4.64,0,0,1,0,4.11,3.34,3.34,0,0,1-1.35,1.36,4,4,0,0,1-2,.49h-4Z"/><path class="b" d="M67.7,606.33a2.07,2.07,0,0,0,.49,1.48,1.76,1.76,0,0,0,1.37.52,1.89,1.89,0,0,0,1.37-.46,1.79,1.79,0,0,0,.48-1.33l.12,1.91A2.58,2.58,0,0,1,69.06,610a2.89,2.89,0,0,1-2.33-1,4.08,4.08,0,0,1-.82-2.73v-5.55H67.7Zm.22-7.86a1.93,1.93,0,0,1-.56-1.5,2.07,2.07,0,0,1,.56-1.57,2.56,2.56,0,0,1,3.18,0,2.08,2.08,0,0,1,.57,1.56,1.94,1.94,0,0,1-.57,1.5,2.65,2.65,0,0,1-3.18,0Zm2.26-.86a.94.94,0,0,0,.24-.68,1,1,0,0,0-.24-.7.91.91,0,0,0-.67-.25.92.92,0,0,0-.67.25,1,1,0,0,0-.23.7,1,1,0,0,0,.23.68.92.92,0,0,0,.67.24A.9.9,0,0,0,70.18,597.61Zm1.23,3.17h1.78v9.12H71.41Z"/><path class="b" d="M77.1,609.63A2.82,2.82,0,0,1,76,608.36a5.08,5.08,0,0,1-.36-2v-2a5.05,5.05,0,0,1,.36-2,2.71,2.71,0,0,1,1-1.27,3,3,0,0,1,1.65-.44,2.71,2.71,0,0,1,1.48.42,3.22,3.22,0,0,1,1.09,1.19l-.18,1.86a2.19,2.19,0,0,0-.22-1,1.48,1.48,0,0,0-.61-.63,2,2,0,0,0-1-.21,1.71,1.71,0,0,0-1.37.55,2.26,2.26,0,0,0-.49,1.56v2a2.19,2.19,0,0,0,.49,1.54,1.74,1.74,0,0,0,1.37.54,1.93,1.93,0,0,0,1-.23,1.45,1.45,0,0,0,.61-.64,2.25,2.25,0,0,0,.22-1l.12,1.92a2.66,2.66,0,0,1-.89,1.14,2.56,2.56,0,0,1-1.53.45A3.19,3.19,0,0,1,77.1,609.63Zm4-12.5H82.9V609.9H81.11Z"/><path class="b" d="M87.09,609.57a3.09,3.09,0,0,1-1.29-1.36,4.85,4.85,0,0,1-.44-2.15v-1.48a4.71,4.71,0,0,1,.44-2.12,3.12,3.12,0,0,1,1.29-1.35,4.71,4.71,0,0,1,4.06,0,3.12,3.12,0,0,1,1.29,1.35,4.71,4.71,0,0,1,.44,2.12v1.51a4.79,4.79,0,0,1-.44,2.13,3.12,3.12,0,0,1-1.29,1.35,4.62,4.62,0,0,1-4.06,0Zm3.49-1.83a2.43,2.43,0,0,0,.51-1.65v-1.51a2.43,2.43,0,0,0-.51-1.65,1.88,1.88,0,0,0-1.46-.58,1.85,1.85,0,0,0-1.45.58,2.38,2.38,0,0,0-.52,1.65v1.51a2.38,2.38,0,0,0,.52,1.65,1.82,1.82,0,0,0,1.45.59A1.85,1.85,0,0,0,90.58,607.74Z"/><path class="b" d="M95.43,600.78h1.79v9.12H95.43Zm4.42,1.72a2.16,2.16,0,0,0-.83-.15,1.83,1.83,0,0,0-1.33.47,1.79,1.79,0,0,0-.47,1.31L97,602.37a3.32,3.32,0,0,1,1.09-1.27,2.58,2.58,0,0,1,1.48-.45,3.39,3.39,0,0,1,1.13.18,2.62,2.62,0,0,1,.88.53l-1.17,1.58A1.56,1.56,0,0,0,99.85,602.5Z"/><path class="b" d="M102.15,600.78H104l2.81,7.93-1,1.94Zm8.07,0L106.34,612a2.6,2.6,0,0,1-.56,1,1.87,1.87,0,0,1-.84.52,4,4,0,0,1-1.23.16h-.36V612h.36a1.46,1.46,0,0,0,.8-.2,1.74,1.74,0,0,0,.51-.7l3.38-10.31Z"/><path class="b" d="M113.51,609.88a5.76,5.76,0,0,1-1.32-.48,4.89,4.89,0,0,1-1.13-.79l1.06-1.31a5.86,5.86,0,0,0,1.47.85,4.18,4.18,0,0,0,1.44.28,3.11,3.11,0,0,0,1.6-.33,1.1,1.1,0,0,0,.53-1,.79.79,0,0,0-.29-.66,1.66,1.66,0,0,0-.72-.29c-.29,0-.69-.1-1.22-.14h-.15l-.14,0h-.15a6.45,6.45,0,0,1-1.5-.26,2,2,0,0,1-1-.7,2.38,2.38,0,0,1-.41-1.49,3.07,3.07,0,0,1,.39-1.61,2.41,2.41,0,0,1,1.18-1,5.29,5.29,0,0,1,2-.32,6.38,6.38,0,0,1,2.6.52,6.16,6.16,0,0,1,1.13.66l-1.08,1.31a5.59,5.59,0,0,0-1.35-.66,4,4,0,0,0-1.3-.22,2.44,2.44,0,0,0-1.37.31,1.08,1.08,0,0,0-.46.94.64.64,0,0,0,.26.55,1.72,1.72,0,0,0,.66.25c.26,0,.64.07,1.12.1h.34a7.67,7.67,0,0,1,1.63.25,2.24,2.24,0,0,1,1.13.77,2.62,2.62,0,0,1,.45,1.65,2.92,2.92,0,0,1-.42,1.63,2.54,2.54,0,0,1-1.27,1A5.88,5.88,0,0,1,115,610,7.38,7.38,0,0,1,113.51,609.88Z"/><path class="b" d="M126,597.13h1.8V609.9H126Zm2.6,12.5a2.39,2.39,0,0,1-.93-1.16l.13-1.91a2.22,2.22,0,0,0,.21,1,1.48,1.48,0,0,0,.61.63,1.93,1.93,0,0,0,1,.22,1.74,1.74,0,0,0,1.37-.54,2.18,2.18,0,0,0,.49-1.53v-2a2.26,2.26,0,0,0-.49-1.56,1.71,1.71,0,0,0-1.37-.55,2,2,0,0,0-1,.21,1.36,1.36,0,0,0-.61.62,2.12,2.12,0,0,0-.21,1l-.19-1.76a3.37,3.37,0,0,1,1.08-1.24,2.67,2.67,0,0,1,1.49-.43,3,3,0,0,1,1.65.43,2.9,2.9,0,0,1,1.06,1.27,5.1,5.1,0,0,1,.36,2v2a4.94,4.94,0,0,1-.37,2,2.79,2.79,0,0,1-1.08,1.26,3.25,3.25,0,0,1-1.71.44A2.73,2.73,0,0,1,128.57,609.63Z"/><path class="b" d="M134.46,600.78h1.82l2.81,7.93-1,1.94Zm8.07,0L138.65,612a2.6,2.6,0,0,1-.56,1,1.87,1.87,0,0,1-.84.52,4,4,0,0,1-1.23.16h-.36V612H136a1.46,1.46,0,0,0,.8-.2,1.74,1.74,0,0,0,.51-.7l3.37-10.31Z"/><path class="b" d="M143.57,600.78h4.12v1.62h-4.12Zm1.46,8.56a2.77,2.77,0,0,1-.52-1.81v-9.4h1.8v9.42a.84.84,0,0,0,.13.51.46.46,0,0,0,.39.18h.86V610h-1A2,2,0,0,1,145,609.34Z"/><path class="b" d="M151.94,606.33a2.07,2.07,0,0,0,.49,1.48,1.76,1.76,0,0,0,1.37.52,1.91,1.91,0,0,0,1.37-.46,1.79,1.79,0,0,0,.48-1.33l.12,1.91A2.58,2.58,0,0,1,153.3,610a2.89,2.89,0,0,1-2.33-1,4.08,4.08,0,0,1-.82-2.73v-5.55h1.79Zm3.71-5.55h1.78v9.12h-1.78Z"/><rect class="c" x="612.92" y="591.68" width="35.43" height="2.83"/><path class="d" d="M648.48,594.64H612.79v-3.08h35.69ZM613,594.39h35.19v-2.58H613Z"/><rect class="c" x="612.92" y="601.6" width="70.74" height="2.83"/><path class="d" d="M683.78,604.56h-71v-3.08h71ZM613,604.31h70.49v-2.58H613Z"/><rect class="c" x="612.92" y="612.72" width="177.16" height="2.84"/><path class="d" d="M790.21,615.68H612.79V612.6H790.21ZM613,615.43H790v-2.58H613Z"/><path class="e" d="M587.26,596.28h-.8v-4.82l-.81.5v-.83l.81-.53h.8Z"/><path class="e" d="M589,595.91a1.67,1.67,0,0,1-.41-1.19v-2.58A1.65,1.65,0,0,1,589,591a2,2,0,0,1,2.42,0,1.65,1.65,0,0,1,.41,1.19v2.58a1.65,1.65,0,0,1-.41,1.19,2,2,0,0,1-2.42,0Zm1.83-.55a.89.89,0,0,0,.2-.64v-2.58a.89.89,0,0,0-.2-.64.82.82,0,0,0-.62-.22.86.86,0,0,0-.63.22.94.94,0,0,0-.2.64v2.58a.9.9,0,0,0,.21.64,1,1,0,0,0,1.24,0Z"/><path class="e" d="M593.22,595.91a1.67,1.67,0,0,1-.41-1.19v-2.58a1.65,1.65,0,0,1,.41-1.19,2,2,0,0,1,2.42,0,1.61,1.61,0,0,1,.41,1.19v2.58a1.65,1.65,0,0,1-.41,1.19,2,2,0,0,1-2.42,0Zm1.83-.55a.9.9,0,0,0,.21-.64v-2.58a.94.94,0,0,0-.2-.64.86.86,0,0,0-.63-.22.82.82,0,0,0-.62.22.89.89,0,0,0-.2.64v2.58a.89.89,0,0,0,.2.64,1,1,0,0,0,1.24,0Z"/><path class="e" d="M600.1,596.13a1.45,1.45,0,0,1-.6-.6,2.06,2.06,0,0,1-.21-1v-.67a2,2,0,0,1,.21-.94,1.37,1.37,0,0,1,.6-.59,2,2,0,0,1,.95-.21,2.21,2.21,0,0,1,.59.08,1.68,1.68,0,0,1,.51.22,1.54,1.54,0,0,1,.37.35l-.58.52a1.17,1.17,0,0,0-.4-.3,1.13,1.13,0,0,0-.48-.11.94.94,0,0,0-.71.26,1,1,0,0,0-.26.72v.67a1,1,0,0,0,.25.74.94.94,0,0,0,.72.27,1,1,0,0,0,.48-.12,1,1,0,0,0,.4-.32l.58.56a1.38,1.38,0,0,1-.38.34,1.62,1.62,0,0,1-.5.22,2.27,2.27,0,0,1-.59.07A2.12,2.12,0,0,1,600.1,596.13Z"/><path class="e" d="M603.4,592.22h.79v4.06h-.79Zm2.42,1.6a1,1,0,0,0-.21-.67.78.78,0,0,0-.6-.23.81.81,0,0,0-.6.21.73.73,0,0,0-.22.58l-.08-.78a1.46,1.46,0,0,1,.49-.57,1.22,1.22,0,0,1,.67-.2,1.33,1.33,0,0,1,.73.2,1.18,1.18,0,0,1,.46.56,2.4,2.4,0,0,1,.15.89v2.47h-.79Zm2.42,0a.93.93,0,0,0-.22-.67.85.85,0,0,0-.63-.23.72.72,0,0,0-.57.23.9.9,0,0,0-.21.64l-.16-.78a1.61,1.61,0,0,1,.51-.63,1.23,1.23,0,0,1,.69-.22,1.37,1.37,0,0,1,.75.2,1.09,1.09,0,0,1,.47.56,2.21,2.21,0,0,1,.17.89v2.47h-.8Z"/><path class="e" d="M584.33,605.5l2-2.64a1.85,1.85,0,0,0,.27-.47,1.29,1.29,0,0,0,.09-.45h0a.67.67,0,0,0-.2-.53.81.81,0,0,0-.56-.19.76.76,0,0,0-.56.21,1,1,0,0,0-.27.58h-.82a2,2,0,0,1,.29-.83,1.42,1.42,0,0,1,.56-.53,1.67,1.67,0,0,1,.79-.18,1.93,1.93,0,0,1,.87.17,1.21,1.21,0,0,1,.54.51,1.55,1.55,0,0,1,.19.8h0a1.84,1.84,0,0,1-.12.63,2.8,2.8,0,0,1-.35.63l-1.65,2.24h2.15v.76h-3.2Z"/><path class="e" d="M589,605.83a1.67,1.67,0,0,1-.41-1.19v-2.58a1.65,1.65,0,0,1,.41-1.19,2,2,0,0,1,2.42,0,1.65,1.65,0,0,1,.41,1.19v2.58a1.65,1.65,0,0,1-.41,1.19,2,2,0,0,1-2.42,0Zm1.83-.55a.89.89,0,0,0,.2-.64v-2.58a.89.89,0,0,0-.2-.64.82.82,0,0,0-.62-.22.86.86,0,0,0-.63.22.94.94,0,0,0-.19.64v2.58a.89.89,0,0,0,.2.64,1,1,0,0,0,1.24,0Z"/><path class="e" d="M593.22,605.83a1.67,1.67,0,0,1-.41-1.19v-2.58a1.61,1.61,0,0,1,.42-1.19,1.59,1.59,0,0,1,1.2-.42,1.45,1.45,0,0,1,1.62,1.61v2.58a1.61,1.61,0,0,1-.41,1.19,2,2,0,0,1-2.42,0Zm1.84-.55a.94.94,0,0,0,.2-.64v-2.58a.94.94,0,0,0-.2-.64.84.84,0,0,0-.63-.22.82.82,0,0,0-.62.22.89.89,0,0,0-.2.64v2.58a.89.89,0,0,0,.2.64.82.82,0,0,0,.62.22A.86.86,0,0,0,595.06,605.28Z"/><path class="e" d="M600.1,606.05a1.45,1.45,0,0,1-.6-.6,2.06,2.06,0,0,1-.2-1v-.67a2,2,0,0,1,.2-.94,1.37,1.37,0,0,1,.6-.59,2,2,0,0,1,.95-.21,2.35,2.35,0,0,1,.6.08,1.73,1.73,0,0,1,.5.22,1.38,1.38,0,0,1,.37.35l-.58.52a1.08,1.08,0,0,0-.4-.3,1.13,1.13,0,0,0-.48-.11,1,1,0,0,0-.71.26,1,1,0,0,0-.26.72v.67a1,1,0,0,0,.25.74.94.94,0,0,0,.72.27,1.14,1.14,0,0,0,.88-.44l.58.56a1.38,1.38,0,0,1-.38.34,1.62,1.62,0,0,1-.5.22,2.22,2.22,0,0,1-.59.07A2.12,2.12,0,0,1,600.1,606.05Z"/><path class="e" d="M603.4,602.14h.79v4.06h-.79Zm2.42,1.6a1,1,0,0,0-.21-.67.78.78,0,0,0-.6-.23.81.81,0,0,0-.6.21.73.73,0,0,0-.22.58l-.08-.78a1.46,1.46,0,0,1,.49-.57,1.22,1.22,0,0,1,.67-.2,1.3,1.3,0,0,1,.73.2,1.18,1.18,0,0,1,.46.56,2.4,2.4,0,0,1,.16.89v2.47h-.8Zm2.42,0a.93.93,0,0,0-.22-.67.85.85,0,0,0-.63-.23.73.73,0,0,0-.57.23.89.89,0,0,0-.2.64l-.16-.78a1.51,1.51,0,0,1,.5-.63,1.23,1.23,0,0,1,.69-.22,1.35,1.35,0,0,1,.75.2,1.16,1.16,0,0,1,.48.56,2.4,2.4,0,0,1,.16.89v2.47h-.8Z"/><path class="e" d="M585,615.58a1.34,1.34,0,0,1-.54-.49,2,2,0,0,1-.28-.77h.8a.75.75,0,0,0,.25.49.85.85,0,0,0,.54.17.72.72,0,0,0,.59-.25,1.1,1.1,0,0,0,.21-.72v-.48a1.1,1.1,0,0,0-.21-.72.72.72,0,0,0-.59-.25.83.83,0,0,0-.4.11,1.18,1.18,0,0,0-.34.33h-.72v-3h2.89v.76h-2.1V612a1,1,0,0,1,.34-.18.94.94,0,0,1,.37-.07,1.68,1.68,0,0,1,.84.2,1.29,1.29,0,0,1,.53.6,2.07,2.07,0,0,1,.19.94V614a2.25,2.25,0,0,1-.19.94,1.31,1.31,0,0,1-.55.59,1.69,1.69,0,0,1-.86.21A1.74,1.74,0,0,1,585,615.58Z"/><path class="e" d="M589,615.32a1.65,1.65,0,0,1-.41-1.19v-2.58a1.67,1.67,0,0,1,.41-1.19,2,2,0,0,1,2.42,0,1.65,1.65,0,0,1,.41,1.19v2.58a1.64,1.64,0,0,1-.41,1.19,1.92,1.92,0,0,1-2.42,0Zm1.83-.55a.89.89,0,0,0,.2-.64v-2.58a.88.88,0,0,0-.2-.63.78.78,0,0,0-.62-.22.82.82,0,0,0-.63.22.93.93,0,0,0-.2.63v2.58a.9.9,0,0,0,.21.64,1,1,0,0,0,1.24,0Z"/><path class="e" d="M593.22,615.32a1.65,1.65,0,0,1-.41-1.19v-2.58a1.67,1.67,0,0,1,.41-1.19,2,2,0,0,1,2.42,0,1.61,1.61,0,0,1,.41,1.19v2.58a1.64,1.64,0,0,1-.41,1.19,1.92,1.92,0,0,1-2.42,0Zm1.83-.55a.9.9,0,0,0,.21-.64v-2.58a.93.93,0,0,0-.2-.63.82.82,0,0,0-.63-.22.78.78,0,0,0-.62.22.88.88,0,0,0-.2.63v2.58a.89.89,0,0,0,.2.64,1,1,0,0,0,1.24,0Z"/><path class="e" d="M600.1,615.54a1.45,1.45,0,0,1-.6-.6,2,2,0,0,1-.21-1v-.67a2,2,0,0,1,.21-.94,1.45,1.45,0,0,1,.6-.6,2,2,0,0,1,.95-.2,2.22,2.22,0,0,1,.59.07,2,2,0,0,1,.51.22,1.76,1.76,0,0,1,.37.35l-.58.52a1.17,1.17,0,0,0-.4-.3,1.13,1.13,0,0,0-.48-.11.94.94,0,0,0-.71.26,1,1,0,0,0-.26.73V614a1.07,1.07,0,0,0,.25.74,1,1,0,0,0,.72.26,1.13,1.13,0,0,0,.48-.11,1.26,1.26,0,0,0,.4-.32l.58.55a1.42,1.42,0,0,1-.38.35,1.88,1.88,0,0,1-.5.21,2.27,2.27,0,0,1-.59.08A2,2,0,0,1,600.1,615.54Z"/><path class="e" d="M603.4,611.63h.79v4.06h-.79Zm2.42,1.6a1,1,0,0,0-.21-.66.75.75,0,0,0-.6-.24.81.81,0,0,0-.6.21.75.75,0,0,0-.22.58l-.08-.78a1.5,1.5,0,0,1,.49-.56,1.15,1.15,0,0,1,.67-.2,1.32,1.32,0,0,1,.73.19,1.28,1.28,0,0,1,.46.56,2.42,2.42,0,0,1,.15.9v2.46h-.79Zm2.42,0a.91.91,0,0,0-.22-.66.82.82,0,0,0-.63-.24.72.72,0,0,0-.57.23.9.9,0,0,0-.21.64l-.16-.78a1.51,1.51,0,0,1,.51-.62,1.16,1.16,0,0,1,.69-.22,1.37,1.37,0,0,1,.75.19,1.18,1.18,0,0,1,.47.56,2.22,2.22,0,0,1,.17.9v2.46h-.8Z"/><path class="c" d="M23.49,613.89A12.92,12.92,0,1,1,36.4,601,12.93,12.93,0,0,1,23.49,613.89Zm0-24.83A11.92,11.92,0,1,0,35.4,601,11.93,11.93,0,0,0,23.49,589.06Z"/><polygon class="d" points="35.77 588.74 9.42 600.98 35.77 613.21 32.02 600.98 35.77 588.74"/><path class="c" d="M36.58,614.14,8.23,601l28.35-13.17-4,13.17ZM10.61,601,35,612.29,31.5,601,35,589.66Z"/><path class="c" d="M2.52,605.19a5,5,0,0,1-1.11-.38,4.4,4.4,0,0,1-1-.64l.81-1a3.72,3.72,0,0,0,1.16.69,4.08,4.08,0,0,0,1.38.23,2.73,2.73,0,0,0,1.55-.38,1.17,1.17,0,0,0,.55-1.05h0a1.12,1.12,0,0,0-.25-.77,1.44,1.44,0,0,0-.64-.42,8.23,8.23,0,0,0-1-.25H3.89l-.1,0a9.48,9.48,0,0,1-1.5-.36,2.08,2.08,0,0,1-1-.73,2.42,2.42,0,0,1-.41-1.51h0a2.77,2.77,0,0,1,.38-1.47,2.44,2.44,0,0,1,1.12-.92,4.48,4.48,0,0,1,1.77-.32,4.6,4.6,0,0,1,1,.11,4.9,4.9,0,0,1,1.86.86l-.73,1a4.61,4.61,0,0,0-1-.58,3,3,0,0,0-1.06-.2,2.44,2.44,0,0,0-1.46.38,1.24,1.24,0,0,0-.53,1.07h0a1,1,0,0,0,.27.75,1.74,1.74,0,0,0,.67.4,9.3,9.3,0,0,0,1.12.27h.24a7.93,7.93,0,0,1,1.4.41,2.22,2.22,0,0,1,.94.76,2.4,2.4,0,0,1,.38,1.43h0a2.62,2.62,0,0,1-.4,1.45,2.54,2.54,0,0,1-1.16.91,4.8,4.8,0,0,1-1.83.31A6.44,6.44,0,0,1,2.52,605.19Z"/><rect class="c" x="612.5" y="600.68" width="1" height="4.68"/><rect class="c" x="612.5" y="590.76" width="1" height="4.68"/><rect class="c" x="612.5" y="611.45" width="1" height="5.24"/><rect class="c" x="789.58" y="611.45" width="1" height="5.24"/><rect class="c" x="682.59" y="600.68" width="1" height="4.68"/><rect class="c" x="647.3" y="590.76" width="1" height="4.68"/><rect class="a" width="790.34" height="618.13"/><line class="f" x1="496.91" y1="88.47" x2="499.73" y2="88.47"/><line class="f" x1="494.08" y1="88.47" x2="494.08" y2="35.73"/><line class="f" x1="379.06" y1="88.47" x2="494.08" y2="88.47"/><line class="f" x1="379.06" y1="91.98" x2="379.06" y2="88.47"/><line class="f" x1="347.3" y1="91.98" x2="379.06" y2="91.98"/><line class="f" x1="347.3" y1="88.47" x2="347.3" y2="91.98"/><line class="f" x1="345.54" y1="88.47" x2="347.3" y2="88.47"/><line class="f" x1="345.54" y1="35.73" x2="345.54" y2="88.47"/><line class="f" x1="494.08" y1="35.73" x2="345.54" y2="35.73"/><line class="f" x1="412.58" y1="582.41" x2="412.58" y2="529.67"/><line class="f" x1="322.61" y1="582.41" x2="412.58" y2="582.41"/><line class="f" x1="322.61" y1="529.67" x2="322.61" y2="582.41"/><line class="f" x1="359.65" y1="529.67" x2="322.61" y2="529.67"/><line class="f" x1="359.65" y1="526.16" x2="359.65" y2="529.67"/><line class="f" x1="391.41" y1="526.16" x2="359.65" y2="526.16"/><line class="f" x1="391.41" y1="529.67" x2="391.41" y2="526.16"/><line class="f" x1="412.58" y1="529.67" x2="391.41" y2="529.67"/><rect class="d" x="311.14" y="328.23" width="21.17" height="21.09"/><line class="f" x1="311.14" y1="349.32" x2="332.31" y2="349.32"/><line class="f" x1="311.14" y1="328.23" x2="311.14" y2="349.32"/><line class="f" x1="332.31" y1="328.23" x2="311.14" y2="328.23"/><line class="f" x1="332.31" y1="349.32" x2="332.31" y2="328.23"/><rect class="d" x="304.96" y="102.53" width="21.52" height="132.89"/><line class="f" x1="326.49" y1="235.42" x2="326.49" y2="102.53"/><line class="f" x1="304.97" y1="235.42" x2="326.49" y2="235.42"/><line class="f" x1="304.97" y1="102.53" x2="304.97" y2="235.42"/><line class="f" x1="326.49" y1="102.53" x2="304.97" y2="102.53"/><rect class="d" x="327.02" y="238.76" width="31.76" height="31.64"/><line class="f" x1="327.02" y1="270.4" x2="358.77" y2="270.4"/><line class="f" x1="327.02" y1="238.76" x2="327.02" y2="270.4"/><line class="f" x1="358.77" y1="238.76" x2="327.02" y2="238.76"/><line class="f" x1="358.77" y1="270.4" x2="358.77" y2="238.76"/><line class="f" x1="499.73" y1="276.9" x2="499.73" y2="276.9"/><line class="f" x1="499.73" y1="276.9" x2="499.73" y2="255.46"/><line class="f" x1="499.73" y1="255.46" x2="499.73" y2="255.46"/><line class="f" x1="499.73" y1="255.46" x2="499.73" y2="255.46"/><line class="f" x1="499.73" y1="255.46" x2="499.73" y2="202.72"/><line class="f" x1="499.73" y1="202.72" x2="499.73" y2="202.72"/><rect class="d" x="403.05" y="251.24" width="88.21" height="15.82"/><line class="f" x1="403.05" y1="267.06" x2="491.26" y2="267.06"/><line class="f" x1="403.05" y1="251.24" x2="403.05" y2="267.06"/><line class="f" x1="491.26" y1="251.24" x2="403.05" y2="251.24"/><line class="f" x1="491.26" y1="267.06" x2="491.26" y2="251.24"/><line class="f" x1="407.64" y1="420.69" x2="407.64" y2="399.24"/><polygon points="449.63 95.5 449.63 88.47 495.5 88.47 499.73 88.47 499.73 95.5 449.63 95.5"/><rect x="391.41" y="522.64" width="22.58" height="7.03"/><rect x="290.85" y="176.36" width="7.06" height="7.03"/><rect x="293.5" y="529.16" width="7.06" height="0.51"/><polygon points="290.85 176.36 290.85 88.47 342.01 88.47 347.31 88.47 347.31 95.5 297.91 95.5 297.91 176.36 290.85 176.36"/><polygon points="319.08 529.67 293.5 529.67 293.5 522.64 324.37 522.64 324.37 529.67 319.08 529.67"/><rect x="451.39" y="95.5" width="48.34" height="7.03"/><polygon points="297.91 522.64 297.91 95.5 345.54 95.5 345.54 102.53 304.96 102.53 304.96 515.61 322.61 515.61 322.61 522.64 297.91 522.64"/><polygon points="290.85 529.67 290.85 341.24 290.85 183.39 293.5 183.39 293.5 529.67 290.85 529.67"/><polygon points="393.17 522.64 393.17 515.61 407.64 515.61 413.99 515.61 413.99 522.64 393.17 522.64"/><rect x="293.5" y="183.39" width="4.41" height="339.25"/><polygon points="399.17 515.61 399.17 332.8 491.26 332.8 491.26 331.04 499.73 331.04 499.73 332.8 499.73 341.24 407.64 341.24 407.64 515.61 399.17 515.61"/><polygon points="491.26 292.37 491.26 102.53 499.73 102.53 499.73 276.9 499.73 285.34 499.73 292.37 491.26 292.37"/><polygon points="304.96 354.6 304.96 352.14 359.65 352.14 359.65 325.77 362.12 325.77 362.12 332.8 364.77 332.8 364.77 335.26 362.12 335.26 362.12 354.6 304.96 354.6"/><rect x="396.52" y="267.06" width="94.74" height="2.46"/><rect x="495.67" y="292.37" width="4.06" height="1.76"/><rect x="495.67" y="329.28" width="4.06" height="1.76"/><rect x="396.52" y="332.8" width="2.65" height="2.46"/><polygon points="359.65 297.64 359.65 237.88 304.96 237.88 304.96 235.42 362.12 235.42 362.12 267.06 364.77 267.06 364.77 269.52 362.12 269.52 362.12 297.64 359.65 297.64"/><polygon points="349.95 352.14 349.95 342.47 359.65 342.47 359.65 345.1 352.6 345.1 352.6 352.14 349.95 352.14"/><polygon points="304.97 269.52 304.97 266 322.61 266 322.61 237.88 326.13 237.88 326.13 269.52 304.97 269.52"/><rect x="412.58" y="529.67" width="1.41" height="52.73"/><rect x="494.08" y="35.73" width="1.41" height="52.73"/><line class="f" x1="342.01" y1="88.47" x2="290.85" y2="88.47"/><line class="f" x1="347.3" y1="88.47" x2="342.01" y2="88.47"/><line class="f" x1="345.54" y1="102.53" x2="304.97" y2="102.53"/><line class="f" x1="304.97" y1="176.36" x2="304.97" y2="102.53"/><line class="f" x1="304.97" y1="102.53" x2="304.97" y2="235.42"/><line class="f" x1="304.97" y1="237.88" x2="304.97" y2="266"/><line class="f" x1="304.97" y1="269.52" x2="304.97" y2="352.14"/><line class="f" x1="304.97" y1="354.6" x2="304.97" y2="515.61"/><line class="f" x1="345.54" y1="102.53" x2="345.54" y2="95.5"/><line class="f" x1="449.63" y1="88.47" x2="495.49" y2="88.47"/><line class="f" x1="495.49" y1="88.47" x2="499.73" y2="88.47"/><line class="f" x1="451.39" y1="102.53" x2="491.26" y2="102.53"/><line class="f" x1="499.73" y1="102.53" x2="499.73" y2="102.53"/><line class="f" x1="391.41" y1="529.67" x2="413.99" y2="529.67"/><line class="f" x1="393.17" y1="515.61" x2="399.17" y2="515.61"/><line class="f" x1="407.64" y1="515.61" x2="413.99" y2="515.61"/><line class="f" x1="322.61" y1="515.61" x2="322.61" y2="522.64"/><line class="f" x1="300.55" y1="529.67" x2="319.08" y2="529.67"/><line class="f" x1="319.08" y1="529.67" x2="324.37" y2="529.67"/><line class="f" x1="451.39" y1="102.53" x2="451.39" y2="95.5"/><line class="f" x1="393.17" y1="515.61" x2="393.17" y2="522.64"/><line class="f" x1="322.61" y1="515.61" x2="304.97" y2="515.61"/><line class="f" x1="412.58" y1="529.67" x2="412.58" y2="582.41"/><line class="f" x1="413.99" y1="582.41" x2="412.58" y2="582.41"/><line class="f" x1="494.08" y1="35.73" x2="494.08" y2="88.47"/><line class="f" x1="495.49" y1="35.73" x2="494.08" y2="35.73"/><line class="f" x1="449.63" y1="95.5" x2="449.63" y2="88.47"/><line class="f" x1="451.39" y1="95.5" x2="449.63" y2="95.5"/><line class="f" x1="347.3" y1="95.5" x2="347.3" y2="88.47"/><line class="f" x1="345.54" y1="95.5" x2="347.3" y2="95.5"/><line class="f" x1="391.41" y1="522.64" x2="391.41" y2="529.67"/><line class="f" x1="393.17" y1="522.64" x2="391.41" y2="522.64"/><line class="f" x1="324.37" y1="522.64" x2="324.37" y2="529.67"/><line class="f" x1="324.37" y1="522.64" x2="322.61" y2="522.64"/><line class="f" x1="380.82" y1="102.53" x2="345.54" y2="102.53"/><line class="f" x1="345.54" y1="88.47" x2="345.54" y2="35.73"/><line class="f" x1="495.49" y1="35.73" x2="345.54" y2="35.73"/><line class="f" x1="451.39" y1="102.53" x2="380.82" y2="102.53"/><line class="f" x1="413.99" y1="582.41" x2="322.61" y2="582.41"/><line class="f" x1="322.61" y1="529.67" x2="322.61" y2="582.41"/><line class="f" x1="322.61" y1="515.61" x2="357.89" y2="515.61"/><line class="f" x1="357.89" y1="515.61" x2="357.89" y2="522.64"/><line class="f" x1="359.65" y1="522.64" x2="359.65" y2="529.67"/><line class="f" x1="324.37" y1="529.67" x2="359.65" y2="529.67"/><line class="f" x1="357.89" y1="515.61" x2="393.17" y2="515.61"/><line class="f" x1="359.65" y1="526.16" x2="391.41" y2="526.16"/><line class="f" x1="357.89" y1="519.83" x2="357.89" y2="522.64"/><line class="f" x1="360.71" y1="521.94" x2="360.71" y2="522.64"/><line class="f" x1="360.71" y1="522.64" x2="357.89" y2="522.64"/><line class="f" x1="357.89" y1="522.64" x2="357.89" y2="519.83"/><line class="f" x1="357.89" y1="519.83" x2="359.3" y2="519.83"/><line class="f" x1="359.3" y1="519.13" x2="362.12" y2="519.13"/><line class="f" x1="362.12" y1="519.13" x2="362.12" y2="521.94"/><line class="f" x1="362.12" y1="521.94" x2="359.3" y2="521.94"/><line class="f" x1="359.3" y1="521.94" x2="359.3" y2="519.12"/><line class="f" x1="390.35" y1="521.94" x2="390.35" y2="522.64"/><line class="f" x1="390.35" y1="522.64" x2="393.17" y2="522.64"/><line class="f" x1="393.17" y1="522.64" x2="393.17" y2="519.83"/><line class="f" x1="393.17" y1="519.83" x2="391.76" y2="519.83"/><line class="f" x1="391.76" y1="519.13" x2="388.94" y2="519.13"/><line class="f" x1="388.94" y1="519.13" x2="388.94" y2="521.94"/><line class="f" x1="388.94" y1="521.94" x2="391.76" y2="521.94"/><line class="f" x1="391.76" y1="521.94" x2="391.76" y2="519.12"/><line class="f" x1="362.12" y1="519.13" x2="388.94" y2="519.13"/><line class="f" x1="388.94" y1="521.94" x2="362.12" y2="521.94"/><line class="f" x1="362.12" y1="520.53" x2="388.94" y2="520.53"/><line class="f" x1="355.07" y1="521.94" x2="355.07" y2="522.64"/><line class="f" x1="355.07" y1="522.64" x2="357.89" y2="522.64"/><line class="f" x1="357.89" y1="522.64" x2="357.89" y2="519.83"/><line class="f" x1="357.89" y1="519.83" x2="356.48" y2="519.83"/><line class="f" x1="356.48" y1="519.13" x2="353.66" y2="519.13"/><line class="f" x1="353.66" y1="519.13" x2="353.66" y2="521.94"/><line class="f" x1="353.66" y1="521.94" x2="356.48" y2="521.94"/><line class="f" x1="356.48" y1="521.94" x2="356.48" y2="519.12"/><line class="f" x1="325.43" y1="521.94" x2="325.43" y2="522.64"/><line class="f" x1="325.43" y1="522.64" x2="322.61" y2="522.64"/><line class="f" x1="322.61" y1="522.64" x2="322.61" y2="519.83"/><line class="f" x1="322.61" y1="519.83" x2="324.02" y2="519.83"/><line class="f" x1="324.02" y1="519.13" x2="326.84" y2="519.13"/><line class="f" x1="326.84" y1="519.13" x2="326.84" y2="521.94"/><line class="f" x1="326.84" y1="521.94" x2="324.02" y2="521.94"/><line class="f" x1="324.02" y1="521.94" x2="324.02" y2="519.12"/><line class="f" x1="353.66" y1="519.13" x2="326.84" y2="519.13"/><line class="f" x1="326.84" y1="521.94" x2="353.66" y2="521.94"/><line class="f" x1="353.66" y1="520.53" x2="326.84" y2="520.53"/><line class="f" x1="449.63" y1="88.47" x2="379.06" y2="88.47"/><line class="f" x1="380.82" y1="102.53" x2="380.82" y2="95.5"/><line class="f" x1="379.06" y1="95.5" x2="379.06" y2="88.47"/><line class="f" x1="379.06" y1="91.98" x2="347.3" y2="91.98"/><line class="f" x1="378" y1="96.2" x2="378" y2="95.5"/><line class="f" x1="378" y1="95.5" x2="380.82" y2="95.5"/><line class="f" x1="380.82" y1="95.5" x2="380.82" y2="98.31"/><line class="f" x1="380.82" y1="98.31" x2="379.41" y2="98.31"/><line class="f" x1="379.41" y1="99.01" x2="376.59" y2="99.01"/><line class="f" x1="376.59" y1="99.01" x2="376.59" y2="96.2"/><line class="f" x1="376.59" y1="96.2" x2="379.41" y2="96.2"/><line class="f" x1="379.41" y1="96.2" x2="379.41" y2="99.01"/><line class="f" x1="346.95" y1="99.01" x2="349.77" y2="99.01"/><line class="f" x1="349.77" y1="99.01" x2="349.77" y2="96.2"/><line class="f" x1="349.77" y1="96.2" x2="346.95" y2="96.2"/><line class="f" x1="346.95" y1="96.2" x2="346.95" y2="99.01"/><line class="f" x1="376.59" y1="99.01" x2="349.77" y2="99.01"/><line class="f" x1="349.77" y1="96.2" x2="376.59" y2="96.2"/><line class="f" x1="376.59" y1="97.61" x2="349.77" y2="97.61"/><line class="f" x1="348.36" y1="96.2" x2="348.36" y2="95.5"/><line class="f" x1="348.36" y1="95.5" x2="345.54" y2="95.5"/><line class="f" x1="345.54" y1="95.5" x2="345.54" y2="98.31"/><line class="f" x1="345.54" y1="98.31" x2="346.95" y2="98.31"/><line class="f" x1="448.57" y1="96.2" x2="448.57" y2="95.5"/><line class="f" x1="448.57" y1="95.5" x2="451.39" y2="95.5"/><line class="f" x1="451.39" y1="95.5" x2="451.39" y2="98.31"/><line class="f" x1="451.39" y1="98.31" x2="449.98" y2="98.31"/><line class="f" x1="449.98" y1="99.01" x2="447.16" y2="99.01"/><line class="f" x1="447.16" y1="99.01" x2="447.16" y2="96.2"/><line class="f" x1="447.16" y1="96.2" x2="449.98" y2="96.2"/><line class="f" x1="449.98" y1="96.2" x2="449.98" y2="99.01"/><line class="f" x1="417.52" y1="96.2" x2="417.52" y2="95.5"/><line class="f" x1="417.52" y1="95.5" x2="414.7" y2="95.5"/><line class="f" x1="414.7" y1="95.5" x2="414.7" y2="98.31"/><line class="f" x1="414.7" y1="98.31" x2="416.11" y2="98.31"/><line class="f" x1="416.11" y1="99.01" x2="418.93" y2="99.01"/><line class="f" x1="418.93" y1="99.01" x2="418.93" y2="96.2"/><line class="f" x1="418.93" y1="96.2" x2="416.11" y2="96.2"/><line class="f" x1="416.11" y1="96.2" x2="416.11" y2="99.01"/><line class="f" x1="447.16" y1="99.01" x2="418.93" y2="99.01"/><line class="f" x1="418.93" y1="96.2" x2="447.16" y2="96.2"/><line class="f" x1="447.16" y1="97.61" x2="418.93" y2="97.61"/><line class="f" x1="380.82" y1="98.31" x2="383.65" y2="98.31"/><line class="f" x1="383.65" y1="98.31" x2="383.65" y2="95.5"/><line class="f" x1="383.65" y1="95.5" x2="380.82" y2="95.5"/><line class="f" x1="380.82" y1="95.5" x2="380.82" y2="98.31"/><line class="f" x1="383.65" y1="98.31" x2="414.7" y2="98.31"/><line class="f" x1="383.65" y1="96.9" x2="414.7" y2="96.9"/><line class="f" x1="383.65" y1="95.5" x2="414.7" y2="95.5"/><line class="f" x1="304.97" y1="266" x2="304.97" y2="269.52"/><line class="f" x1="491.26" y1="102.53" x2="491.26" y2="267.06"/><line class="f" x1="491.26" y1="269.52" x2="491.26" y2="292.37"/><line class="f" x1="499.73" y1="102.53" x2="499.73" y2="276.9"/><line class="f" x1="491.26" y1="332.8" x2="399.17" y2="332.8"/><line class="f" x1="399.17" y1="335.26" x2="399.17" y2="515.61"/><line class="f" x1="407.64" y1="399.24" x2="407.64" y2="515.61"/><line class="f" x1="491.26" y1="331.04" x2="491.26" y2="332.8"/><line class="f" x1="499.73" y1="285.34" x2="499.73" y2="292.37"/><line class="f" x1="499.73" y1="331.04" x2="499.73" y2="332.8"/><line class="f" x1="499.73" y1="285.34" x2="499.73" y2="285.34"/><line class="f" x1="499.73" y1="276.9" x2="499.73" y2="276.9"/><line class="f" x1="499.73" y1="332.8" x2="499.73" y2="332.8"/><line class="f" x1="499.73" y1="341.24" x2="442.92" y2="341.24"/><line class="f" x1="495.67" y1="294.13" x2="499.73" y2="294.13"/><line class="f" x1="495.67" y1="329.28" x2="499.73" y2="329.28"/><line class="f" x1="495.67" y1="329.28" x2="495.67" y2="331.04"/><line class="f" x1="495.67" y1="294.13" x2="495.67" y2="292.37"/><line class="f" x1="495.67" y1="292.37" x2="491.26" y2="292.37"/><line class="f" x1="495.67" y1="331.04" x2="491.26" y2="331.04"/><line class="f" x1="499.73" y1="329.28" x2="499.73" y2="331.04"/><line class="f" x1="499.73" y1="292.37" x2="499.73" y2="294.13"/><line class="f" x1="442.92" y1="341.24" x2="439.39" y2="341.24"/><line class="f" x1="362.12" y1="235.42" x2="362.12" y2="267.06"/><line class="f" x1="362.12" y1="269.52" x2="362.12" y2="297.64"/><line class="f" x1="359.65" y1="237.88" x2="359.65" y2="297.64"/><line class="f" x1="304.97" y1="235.42" x2="362.12" y2="235.42"/><line class="f" x1="491.26" y1="269.52" x2="396.52" y2="269.52"/><line class="f" x1="364.77" y1="269.52" x2="362.12" y2="269.52"/><line class="f" x1="491.26" y1="267.06" x2="396.52" y2="267.06"/><line class="f" x1="364.77" y1="267.06" x2="362.12" y2="267.06"/><line class="f" x1="396.53" y1="267.06" x2="396.53" y2="269.52"/><line class="f" x1="364.77" y1="267.06" x2="364.77" y2="269.52"/><line class="f" x1="362.12" y1="325.77" x2="362.12" y2="332.8"/><line class="f" x1="362.12" y1="335.26" x2="362.12" y2="354.6"/><line class="f" x1="359.65" y1="325.77" x2="359.65" y2="342.47"/><line class="f" x1="359.65" y1="345.1" x2="359.65" y2="352.14"/><line class="f" x1="304.97" y1="354.6" x2="362.12" y2="354.6"/><line class="f" x1="362.12" y1="335.26" x2="364.77" y2="335.26"/><line class="f" x1="396.53" y1="335.26" x2="399.17" y2="335.26"/><line class="f" x1="304.97" y1="352.14" x2="349.95" y2="352.14"/><line class="f" x1="352.6" y1="352.14" x2="359.65" y2="352.14"/><line class="f" x1="362.12" y1="332.8" x2="364.77" y2="332.8"/><line class="f" x1="396.53" y1="332.8" x2="399.17" y2="332.8"/><line class="f" x1="326.13" y1="237.88" x2="359.65" y2="237.88"/><line class="f" x1="396.53" y1="332.8" x2="396.53" y2="335.26"/><line class="f" x1="364.77" y1="332.8" x2="364.77" y2="335.26"/><line class="f" x1="362.12" y1="325.77" x2="359.65" y2="325.77"/><line class="f" x1="362.12" y1="297.64" x2="359.65" y2="297.64"/><line class="f" x1="391.76" y1="519.13" x2="391.76" y2="486.78"/><g class="g"><path class="f" d="M359.3,519.13a32.4,32.4,0,0,1,32.46-32.35"/><path class="f" d="M447.51,486.78A32.4,32.4,0,0,1,480,519.13"/></g><line class="f" x1="346.95" y1="99.01" x2="346.95" y2="131.36"/><g class="g"><path class="f" d="M379.41,99A32.4,32.4,0,0,1,347,131.36"/></g><line class="f" x1="326.49" y1="235.07" x2="326.49" y2="213.97"/><line class="f" x1="326.49" y1="213.97" x2="305.32" y2="213.97"/><line class="f" x1="304.97" y1="235.42" x2="326.49" y2="235.42"/><line class="f" x1="326.49" y1="235.42" x2="326.49" y2="102.53"/><line class="f" x1="326.49" y1="102.53" x2="304.97" y2="102.53"/><line class="f" x1="304.97" y1="102.53" x2="304.97" y2="235.42"/><line class="f" x1="407.64" y1="399.24" x2="407.64" y2="420.69"/><line class="f" x1="313.41" y1="110.94" x2="318.4" y2="115.91"/><line class="f" x1="318.4" y1="110.94" x2="313.41" y2="115.91"/><line class="f" x1="315.9" y1="116.94" x2="315.9" y2="109.91"/><line class="f" x1="312.37" y1="113.43" x2="319.43" y2="113.43"/><line class="f" x1="326.49" y1="102.88" x2="326.49" y2="123.97"/><line class="f" x1="305.32" y1="123.97" x2="326.49" y2="123.97"/><line class="f" x1="324.72" y1="213.09" x2="324.72" y2="193.76"/><line class="f" x1="324.72" y1="193.76" x2="307.08" y2="193.76"/><line class="f" x1="307.08" y1="193.76" x2="307.08" y2="213.09"/><line class="f" x1="307.08" y1="213.09" x2="324.72" y2="213.09"/><line class="f" x1="326.49" y1="213.97" x2="326.49" y2="192.88"/><line class="f" x1="322.96" y1="211.34" x2="322.96" y2="195.52"/><line class="f" x1="322.96" y1="195.52" x2="310.61" y2="195.52"/><line class="f" x1="310.61" y1="195.52" x2="310.61" y2="211.34"/><line class="f" x1="310.61" y1="211.34" x2="322.96" y2="211.34"/><g class="g"><path class="f" d="M314.84,203.43a.7.7,0,0,0-.7-.71.71.71,0,1,0,0,1.41.7.7,0,0,0,.7-.7"/><path class="f" d="M314.17,154.64a3.47,3.47,0,1,0-3.46,3.45,3.45,3.45,0,0,0,3.46-3.45"/></g><line class="f" x1="305.32" y1="160.01" x2="326.49" y2="160.01"/><line class="f" x1="326.49" y1="160.01" x2="326.49" y2="138.91"/><line class="f" x1="326.49" y1="138.91" x2="305.32" y2="138.91"/><g class="g"><path class="f" d="M324.56,154.64a3.46,3.46,0,1,0-3.46,3.45,3.45,3.45,0,0,0,3.46-3.45"/><path class="f" d="M324.56,144.28a3.46,3.46,0,1,0-3.46,3.46,3.46,3.46,0,0,0,3.46-3.46"/></g><line class="f" x1="327.45" y1="141.79" x2="327.45" y2="157.13"/><g class="g"><path class="f" d="M419.28,408.39a.7.7,0,0,0-.7-.71.71.71,0,1,0,0,1.41.7.7,0,0,0,.7-.7"/><path class="f" d="M473.44,406.28a3.18,3.18,0,1,0-3.17,3.16,3.17,3.17,0,0,0,3.17-3.16"/><path class="f" d="M473.44,415.77a3.18,3.18,0,1,0-3.17,3.16,3.17,3.17,0,0,0,3.17-3.16"/><path class="f" d="M483,415.77a3.18,3.18,0,1,0-3.18,3.16,3.17,3.17,0,0,0,3.18-3.16"/></g><line class="f" x1="499.73" y1="234.36" x2="499.73" y2="234.36"/><line class="f" x1="499.73" y1="234.36" x2="499.73" y2="255.46"/><line class="f" x1="499.73" y1="255.46" x2="499.73" y2="255.46"/><line class="f" x1="499.73" y1="202.72" x2="499.73" y2="202.72"/><line class="f" x1="499.73" y1="202.72" x2="499.73" y2="276.9"/><line class="f" x1="499.73" y1="276.9" x2="499.73" y2="276.9"/><g class="g"><path class="f" d="M418.22,366.73a.88.88,0,1,0-.88.87.87.87,0,0,0,.88-.87"/><path class="f" d="M438.51,363.21a3.53,3.53,0,0,1,3.53,3.52"/><path class="f" d="M442,387.82a3.52,3.52,0,0,1-3.53,3.51"/><path class="f" d="M413.81,366.73a3.53,3.53,0,0,1,3.53-3.52"/><path class="f" d="M417.34,391.33a3.53,3.53,0,0,1-3.53-3.51"/><path class="f" d="M333.19,244a.88.88,0,1,0-.88.88.87.87,0,0,0,.88-.88"/></g><line class="f" x1="327.02" y1="270.4" x2="358.77" y2="270.4"/><line class="f" x1="358.77" y1="270.4" x2="358.77" y2="238.76"/><line class="f" x1="358.77" y1="238.76" x2="327.02" y2="238.76"/><line class="f" x1="327.02" y1="238.76" x2="327.02" y2="270.4"/><line class="f" x1="332.31" y1="268.64" x2="353.48" y2="268.64"/><line class="f" x1="357.01" y1="265.12" x2="357.01" y2="244.03"/><line class="f" x1="353.48" y1="240.51" x2="332.31" y2="240.51"/><line class="f" x1="328.78" y1="244.03" x2="328.78" y2="265.12"/><g class="g"><path class="f" d="M332.31,268.64a3.52,3.52,0,0,1-3.53-3.51"/><path class="f" d="M357,265.12a3.52,3.52,0,0,1-3.53,3.52"/><path class="f" d="M328.78,244a3.53,3.53,0,0,1,3.53-3.52"/><path class="f" d="M353.48,240.51A3.53,3.53,0,0,1,357,244"/></g><line class="f" x1="310.26" y1="352.14" x2="310.26" y2="269.52"/><line class="f" x1="358.77" y1="273.03" x2="355.24" y2="273.03"/><line class="f" x1="355.24" y1="273.03" x2="355.24" y2="294.13"/><line class="f" x1="355.24" y1="294.13" x2="358.77" y2="294.13"/><line class="f" x1="358.77" y1="294.13" x2="358.77" y2="293.07"/><line class="f" x1="358.77" y1="293.07" x2="356.3" y2="293.07"/><line class="f" x1="356.3" y1="293.07" x2="356.3" y2="274.09"/><line class="f" x1="356.3" y1="274.09" x2="358.77" y2="274.09"/><line class="f" x1="358.77" y1="274.09" x2="358.77" y2="273.03"/><line class="f" x1="358.77" y1="273.03" x2="355.24" y2="273.03"/><line class="f" x1="358.77" y1="294.13" x2="355.24" y2="294.13"/><line class="f" x1="358.77" y1="274.09" x2="356.3" y2="274.09"/><line class="f" x1="358.77" y1="293.07" x2="356.3" y2="293.07"/><line class="f" x1="355.24" y1="273.03" x2="355.24" y2="294.13"/><line class="f" x1="356.3" y1="273.03" x2="356.3" y2="294.13"/><line class="f" x1="358.77" y1="273.03" x2="358.77" y2="274.09"/><line class="f" x1="358.77" y1="293.07" x2="358.77" y2="294.13"/><line class="f" x1="332.31" y1="328.23" x2="332.31" y2="349.32"/><line class="f" x1="332.31" y1="349.32" x2="311.14" y2="349.32"/><line class="f" x1="311.14" y1="349.32" x2="311.14" y2="328.23"/><line class="f" x1="311.14" y1="328.23" x2="332.31" y2="328.23"/><g class="g"><path class="f" d="M327.9,338.78a6.18,6.18,0,1,0-6.18,6.15,6.17,6.17,0,0,0,6.18-6.15"/><path class="f" d="M326.84,338.78a5.12,5.12,0,1,0-5.12,5.09,5.11,5.11,0,0,0,5.12-5.09"/></g><line class="f" x1="322.61" y1="266" x2="322.61" y2="269.52"/><line class="f" x1="322.61" y1="237.88" x2="304.97" y2="237.88"/><line class="f" x1="326.13" y1="269.52" x2="304.97" y2="269.52"/><line class="f" x1="326.13" y1="269.52" x2="326.13" y2="237.88"/><line class="f" x1="322.61" y1="266" x2="322.61" y2="237.88"/><line class="f" x1="442.92" y1="341.24" x2="439.39" y2="341.24"/><line class="f" x1="439.39" y1="341.24" x2="407.64" y2="341.24"/><line class="f" x1="407.64" y1="341.24" x2="407.64" y2="357.06"/><line class="f" x1="359.65" y1="345.1" x2="359.65" y2="352.14"/><line class="f" x1="352.6" y1="352.14" x2="359.65" y2="352.14"/><line class="f" x1="359.65" y1="342.47" x2="349.95" y2="342.47"/><line class="f" x1="349.95" y1="342.47" x2="349.95" y2="352.14"/><line class="f" x1="359.65" y1="345.1" x2="352.6" y2="345.1"/><line class="f" x1="352.6" y1="345.1" x2="352.6" y2="352.14"/><line class="f" x1="394.76" y1="335.26" x2="366.53" y2="335.26"/><line class="f" x1="394.76" y1="335.26" x2="394.76" y2="363.39"/><g class="g"><path class="f" d="M394.76,363.38a28.18,28.18,0,0,1-28.23-28.12"/></g><line class="f" x1="394.76" y1="332.8" x2="394.76" y2="335.26"/><line class="f" x1="366.53" y1="335.26" x2="366.53" y2="332.8"/><line class="f" x1="366.53" y1="335.26" x2="364.77" y2="335.26"/><line class="f" x1="366.53" y1="332.8" x2="364.77" y2="332.8"/><line class="f" x1="396.53" y1="335.26" x2="394.76" y2="335.26"/><line class="f" x1="396.53" y1="332.8" x2="394.76" y2="332.8"/><line class="f" x1="394.76" y1="332.8" x2="387.7" y2="332.8"/><line class="f" x1="383.82" y1="332.8" x2="383.03" y2="332.8"/><line class="f" x1="379.15" y1="332.8" x2="378.35" y2="332.8"/><line class="f" x1="374.47" y1="332.8" x2="373.59" y2="332.8"/><line class="f" x1="373.59" y1="332.8" x2="366.53" y2="332.8"/><line class="f" x1="394.76" y1="335.26" x2="394.76" y2="336.14"/><line class="f" x1="394.76" y1="336.14" x2="398.29" y2="336.14"/><line class="f" x1="398.29" y1="336.14" x2="398.29" y2="335.26"/><line class="f" x1="394.76" y1="332.8" x2="394.76" y2="331.92"/><line class="f" x1="394.76" y1="331.92" x2="398.29" y2="331.92"/><line class="f" x1="398.29" y1="331.92" x2="398.29" y2="332.8"/><line class="f" x1="366.53" y1="336.14" x2="363.01" y2="336.14"/><line class="f" x1="363.01" y1="336.14" x2="363.01" y2="335.26"/><line class="f" x1="366.53" y1="332.8" x2="366.53" y2="331.92"/><line class="f" x1="366.53" y1="331.92" x2="363.01" y2="331.92"/><line class="f" x1="363.01" y1="331.92" x2="363.01" y2="332.8"/><line class="f" x1="366.53" y1="267.06" x2="394.76" y2="267.06"/><line class="f" x1="366.53" y1="267.06" x2="366.53" y2="238.93"/><g class="g"><path class="f" d="M366.53,238.93a28.18,28.18,0,0,1,28.23,28.13"/></g><line class="f" x1="366.53" y1="269.52" x2="366.53" y2="267.06"/><line class="f" x1="394.76" y1="267.06" x2="394.76" y2="269.52"/><line class="f" x1="394.76" y1="267.06" x2="396.52" y2="267.06"/><line class="f" x1="394.76" y1="269.52" x2="396.52" y2="269.52"/><line class="f" x1="364.77" y1="267.06" x2="366.53" y2="267.06"/><line class="f" x1="364.77" y1="269.52" x2="366.53" y2="269.52"/><line class="f" x1="366.53" y1="269.52" x2="373.59" y2="269.52"/><line class="f" x1="377.47" y1="269.52" x2="378.27" y2="269.52"/><line class="f" x1="382.15" y1="269.52" x2="382.94" y2="269.52"/><line class="f" x1="386.82" y1="269.52" x2="387.7" y2="269.52"/><line class="f" x1="387.7" y1="269.52" x2="394.76" y2="269.52"/><line class="f" x1="366.53" y1="267.06" x2="366.53" y2="266.18"/><line class="f" x1="366.53" y1="266.18" x2="363.01" y2="266.18"/><line class="f" x1="363.01" y1="266.18" x2="363.01" y2="267.06"/><line class="f" x1="366.53" y1="269.52" x2="366.53" y2="270.4"/><line class="f" x1="366.53" y1="270.4" x2="363.01" y2="270.4"/><line class="f" x1="363.01" y1="270.4" x2="363.01" y2="269.52"/><line class="f" x1="394.76" y1="266.18" x2="398.29" y2="266.18"/><line class="f" x1="398.29" y1="266.18" x2="398.29" y2="267.06"/><line class="f" x1="394.76" y1="269.52" x2="394.76" y2="270.4"/><line class="f" x1="394.76" y1="270.4" x2="398.29" y2="270.4"/><line class="f" x1="398.29" y1="270.4" x2="398.29" y2="269.52"/><line class="f" x1="495.67" y1="327.53" x2="495.67" y2="295.89"/><line class="f" x1="499.73" y1="327.53" x2="499.73" y2="295.89"/><line class="f" x1="495.67" y1="327.53" x2="463.92" y2="327.53"/><g class="g"><path class="f" d="M463.92,327.53a31.69,31.69,0,0,1,31.75-31.64"/></g><line class="f" x1="499.73" y1="327.53" x2="495.67" y2="327.53"/><line class="f" x1="495.67" y1="295.89" x2="499.73" y2="295.89"/><line class="f" x1="495.67" y1="295.89" x2="495.67" y2="294.13"/><line class="f" x1="499.73" y1="295.89" x2="499.73" y2="294.13"/><line class="f" x1="495.67" y1="329.28" x2="495.67" y2="327.53"/><line class="f" x1="499.73" y1="329.28" x2="499.73" y2="327.53"/><line class="f" x1="362.12" y1="324.01" x2="362.12" y2="299.4"/><line class="f" x1="362.12" y1="324.01" x2="386.82" y2="324.01"/><g class="g"><path class="f" d="M362.12,299.4A24.66,24.66,0,0,1,386.82,324"/></g><line class="f" x1="359.65" y1="324.01" x2="362.12" y2="324.01"/><line class="f" x1="362.12" y1="299.4" x2="359.65" y2="299.4"/><line class="f" x1="362.12" y1="299.4" x2="362.12" y2="297.64"/><line class="f" x1="359.65" y1="299.4" x2="359.65" y2="297.64"/><line class="f" x1="362.12" y1="325.77" x2="362.12" y2="324.01"/><line class="f" x1="359.65" y1="325.77" x2="359.65" y2="324.01"/><line class="f" x1="359.65" y1="324.01" x2="359.65" y2="316.98"/><line class="f" x1="359.65" y1="313.11" x2="359.65" y2="312.32"/><line class="f" x1="359.65" y1="308.45" x2="359.65" y2="307.66"/><line class="f" x1="359.65" y1="306.43" x2="359.65" y2="299.4"/><line class="f" x1="362.12" y1="324.01" x2="363.01" y2="324.01"/><line class="f" x1="363.01" y1="324.01" x2="363.01" y2="327.53"/><line class="f" x1="363.01" y1="327.53" x2="362.12" y2="327.53"/><line class="f" x1="359.65" y1="324.01" x2="358.77" y2="324.01"/><line class="f" x1="358.77" y1="324.01" x2="358.77" y2="327.53"/><line class="f" x1="358.77" y1="327.53" x2="359.65" y2="327.53"/><line class="f" x1="363.01" y1="299.4" x2="363.01" y2="295.89"/><line class="f" x1="363.01" y1="295.89" x2="362.12" y2="295.89"/><line class="f" x1="359.65" y1="299.4" x2="358.77" y2="299.4"/><line class="f" x1="358.77" y1="299.4" x2="358.77" y2="295.89"/><line class="f" x1="358.77" y1="295.89" x2="359.65" y2="295.89"/><g class="g"><path class="f" d="M495.14,390.46a24.65,24.65,0,0,1,24.7-24.61"/><path class="f" d="M489.67,512.09a1.76,1.76,0,1,0-1.76,1.76,1.75,1.75,0,0,0,1.76-1.76"/></g><line class="f" x1="326.13" y1="513.85" x2="354.36" y2="513.85"/><line class="f" x1="354.36" y1="513.85" x2="354.36" y2="511.64"/><line class="f" x1="354.36" y1="511.64" x2="326.13" y2="511.64"/><line class="f" x1="326.13" y1="511.64" x2="326.13" y2="513.85"/><line class="f" x1="435.51" y1="104.29" x2="386.12" y2="104.29"/><line class="f" x1="386.12" y1="104.29" x2="386.12" y2="107.8"/><line class="f" x1="386.12" y1="107.8" x2="435.51" y2="107.8"/><line class="f" x1="435.51" y1="107.8" x2="435.51" y2="104.29"/><g class="g"><path class="f" d="M440.81,106A1.77,1.77,0,1,0,439,107.8a1.76,1.76,0,0,0,1.77-1.76"/><path class="f" d="M324.37,512.75a1.77,1.77,0,1,0-1.76,1.75,1.76,1.76,0,0,0,1.76-1.75"/></g><line class="f" x1="326.13" y1="266" x2="304.97" y2="266"/><line class="f" x1="379.06" y1="88.47" x2="372" y2="88.47"/><line class="f" x1="368.12" y1="88.47" x2="367.33" y2="88.47"/><line class="f" x1="363.45" y1="88.47" x2="362.65" y2="88.47"/><line class="f" x1="358.77" y1="88.47" x2="354.36" y2="88.47"/><line class="f" x1="354.36" y1="88.47" x2="347.3" y2="88.47"/><line class="f" x1="391.41" y1="529.67" x2="384.35" y2="529.67"/><line class="f" x1="380.47" y1="529.67" x2="379.68" y2="529.67"/><line class="f" x1="375.8" y1="529.67" x2="375" y2="529.67"/><line class="f" x1="371.12" y1="529.67" x2="366.71" y2="529.67"/><line class="f" x1="366.71" y1="529.67" x2="359.65" y2="529.67"/><line class="f" x1="304.97" y1="266" x2="322.61" y2="266"/><line class="f" x1="322.61" y1="266" x2="322.61" y2="237.88"/><line class="f" x1="322.61" y1="237.88" x2="319.08" y2="262.49"/><line class="f" x1="319.08" y1="262.49" x2="304.97" y2="266"/><rect class="d" x="433.7" y="146.47" width="17.64" height="28.12"/><line class="f" x1="433.7" y1="174.6" x2="451.34" y2="174.6"/><line class="f" x1="433.7" y1="146.47" x2="433.7" y2="174.6"/><line class="f" x1="451.34" y1="146.47" x2="433.7" y2="146.47"/><line class="f" x1="451.34" y1="174.6" x2="451.34" y2="146.47"/><line class="f" x1="495.85" y1="341.24" x2="442.92" y2="341.24"/><rect class="d" x="304.97" y="269.52" width="5.29" height="82.62"/><line class="f" x1="304.97" y1="352.14" x2="310.26" y2="352.14"/><line class="f" x1="304.97" y1="269.52" x2="304.97" y2="352.14"/><line class="f" x1="310.26" y1="269.52" x2="304.97" y2="269.52"/><line class="f" x1="310.26" y1="352.14" x2="310.26" y2="269.52"/><rect class="d" x="356.3" y="293.07" width="2.47" height="1.05"/><line class="f" x1="358.77" y1="293.07" x2="356.3" y2="293.07"/><line class="f" x1="358.77" y1="294.13" x2="358.77" y2="293.07"/><line class="f" x1="356.3" y1="294.13" x2="358.77" y2="294.13"/><line class="f" x1="356.3" y1="293.07" x2="356.3" y2="294.13"/><rect class="d" x="355.24" y="273.03" width="1.06" height="21.09"/><line class="f" x1="355.24" y1="273.03" x2="355.24" y2="294.13"/><line class="f" x1="356.3" y1="273.03" x2="355.24" y2="273.03"/><line class="f" x1="356.3" y1="294.13" x2="356.3" y2="273.03"/><line class="f" x1="355.24" y1="294.13" x2="356.3" y2="294.13"/><rect class="d" x="356.3" y="273.03" width="2.47" height="1.05"/><line class="f" x1="356.3" y1="273.03" x2="356.3" y2="274.09"/><line class="f" x1="358.77" y1="273.03" x2="356.3" y2="273.03"/><line class="f" x1="358.77" y1="274.09" x2="358.77" y2="273.03"/><line class="f" x1="356.3" y1="274.09" x2="358.77" y2="274.09"/><rect class="d" x="386.12" y="104.28" width="49.4" height="3.52"/><line class="f" x1="386.12" y1="107.8" x2="435.51" y2="107.8"/><line class="f" x1="386.12" y1="104.29" x2="386.12" y2="107.8"/><line class="f" x1="435.51" y1="104.29" x2="386.12" y2="104.29"/><line class="f" x1="435.51" y1="107.8" x2="435.51" y2="104.29"/><polygon class="d" points="437.8 107.29 437.28 106.04 437.8 104.8 439.04 104.29 440.29 104.8 440.81 106.04 440.29 107.29 439.04 107.8 437.8 107.29"/><g class="g"><path class="f" d="M440.81,106a1.77,1.77,0,0,1-3.53,0"/><path class="f" d="M437.28,106a1.77,1.77,0,0,1,3.53,0"/></g><polygon class="d" points="321.36 513.99 320.84 512.75 321.36 511.5 322.61 510.99 323.85 511.5 324.37 512.75 323.85 513.99 322.61 514.5 321.36 513.99"/><g class="g"><path class="f" d="M324.37,512.75a1.77,1.77,0,0,1-3.53,0"/><path class="f" d="M320.84,512.75a1.77,1.77,0,0,1,3.53,0"/></g><rect class="d" x="326.13" y="511.64" width="28.23" height="2.21"/><line class="f" x1="326.13" y1="511.64" x2="326.13" y2="513.85"/><line class="f" x1="354.36" y1="511.64" x2="326.13" y2="511.64"/><line class="f" x1="354.36" y1="513.85" x2="354.36" y2="511.64"/><line class="f" x1="326.13" y1="513.85" x2="354.36" y2="513.85"/><g class="g"><path class="f" d="M489.67,512.09a1.76,1.76,0,1,1-3.52,0"/><path class="f" d="M486.14,512.09a1.77,1.77,0,0,1,3.53,0"/></g><polygon class="d" points="359.39 165.3 358.92 163.55 359.39 161.79 360.68 160.51 366.79 157 368.56 156.53 370.32 157.01 371.62 158.29 375.58 165.1 371.92 165.58 368.52 166.98 365.59 169.21 363.35 172.11 359.39 165.3"/><polygon class="d" points="387.85 186.21 389.26 182.82 389.73 179.18 389.24 175.54 387.83 172.15 395.73 172.16 397.49 172.64 398.79 173.92 399.26 175.68 399.27 182.71 398.8 184.47 397.51 185.75 395.75 186.22 387.85 186.21"/><polygon class="d" points="366.86 201.29 360.73 197.77 359.44 196.48 358.96 194.72 359.44 192.97 363.37 186.17 365.62 189.08 368.55 191.32 371.96 192.73 375.62 193.22 371.68 200.01 370.39 201.3 368.63 201.77 366.86 201.29"/><polygon class="d" points="371.96 192.73 368.55 191.32 365.62 189.08 363.37 186.17 361.96 182.78 361.47 179.14 361.94 175.5 363.35 172.11 365.59 169.21 368.52 166.98 371.92 165.58 375.58 165.11 379.24 165.59 382.65 167 385.58 169.24 387.83 172.15 389.24 175.54 389.73 179.18 389.26 182.82 387.85 186.21 385.61 189.11 382.68 191.34 379.28 192.74 375.62 193.22 371.96 192.73"/><line class="f" x1="363.35" y1="172.11" x2="365.59" y2="169.21"/><line class="f" x1="365.59" y1="169.21" x2="368.52" y2="166.98"/><line class="f" x1="368.52" y1="166.98" x2="371.92" y2="165.58"/><line class="f" x1="371.92" y1="165.58" x2="375.58" y2="165.11"/><line class="f" x1="375.58" y1="165.1" x2="379.24" y2="165.59"/><line class="f" x1="379.24" y1="165.59" x2="382.65" y2="167"/><line class="f" x1="382.65" y1="167" x2="385.58" y2="169.24"/><line class="f" x1="385.58" y1="169.24" x2="387.83" y2="172.15"/><line class="f" x1="387.83" y1="172.15" x2="389.24" y2="175.54"/><line class="f" x1="389.24" y1="175.54" x2="389.73" y2="179.18"/><line class="f" x1="389.73" y1="179.18" x2="389.26" y2="182.82"/><line class="f" x1="389.26" y1="182.82" x2="387.85" y2="186.21"/><line class="f" x1="387.85" y1="186.21" x2="385.61" y2="189.11"/><line class="f" x1="385.61" y1="189.11" x2="382.68" y2="191.34"/><line class="f" x1="382.68" y1="191.34" x2="379.28" y2="192.74"/><line class="f" x1="379.28" y1="192.74" x2="375.62" y2="193.21"/><line class="f" x1="375.62" y1="193.21" x2="371.96" y2="192.73"/><line class="f" x1="371.96" y1="192.73" x2="368.55" y2="191.32"/><line class="f" x1="368.55" y1="191.32" x2="365.62" y2="189.08"/><line class="f" x1="365.62" y1="189.08" x2="363.37" y2="186.17"/><line class="f" x1="363.37" y1="186.17" x2="361.96" y2="182.78"/><line class="f" x1="361.96" y1="182.78" x2="361.47" y2="179.14"/><line class="f" x1="361.47" y1="179.14" x2="361.94" y2="175.5"/><line class="f" x1="361.94" y1="175.5" x2="363.35" y2="172.11"/><g class="g"><path class="f" d="M382.65,167h0a14.06,14.06,0,1,1-14.1,24.32"/><path class="f" d="M368.55,191.32h0A14.06,14.06,0,1,1,382.65,167"/></g><line class="f" x1="367.68" y1="158.52" x2="361.56" y2="162.03"/><line class="f" x1="359.39" y1="165.3" x2="363.35" y2="172.11"/><line class="f" x1="366.79" y1="157" x2="360.68" y2="160.51"/><line class="f" x1="375.58" y1="165.1" x2="371.62" y2="158.29"/><line class="f" x1="397.51" y1="182.71" x2="397.5" y2="175.68"/><line class="f" x1="395.73" y1="172.16" x2="387.83" y2="172.15"/><line class="f" x1="399.27" y1="182.71" x2="399.26" y2="175.68"/><line class="f" x1="387.85" y1="186.21" x2="395.75" y2="186.22"/><line class="f" x1="361.62" y1="196.25" x2="367.74" y2="199.77"/><line class="f" x1="371.68" y1="200.01" x2="375.62" y2="193.22"/><line class="f" x1="360.73" y1="197.77" x2="366.86" y2="201.29"/><line class="f" x1="363.37" y1="186.17" x2="359.44" y2="192.97"/><g class="g"><path class="f" d="M360.92,164.43a1.76,1.76,0,0,1,0-1.76,1.64,1.64,0,0,1,.64-.64"/><path class="f" d="M367.68,158.52a1.76,1.76,0,0,1,1.76,0,1.74,1.74,0,0,1,.65.64"/><path class="f" d="M359.39,165.3a3.5,3.5,0,0,1,0-3.51,3.45,3.45,0,0,1,1.29-1.28"/><path class="f" d="M366.79,157a3.57,3.57,0,0,1,4.83,1.29"/><path class="f" d="M395.73,173.92a1.71,1.71,0,0,1,.88.24,1.77,1.77,0,0,1,.89,1.52"/><path class="f" d="M397.51,182.71a1.65,1.65,0,0,1-.24.87,1.74,1.74,0,0,1-1.52.88"/><path class="f" d="M395.73,172.16a3.55,3.55,0,0,1,1.76.48,3.49,3.49,0,0,1,1.77,3"/><path class="f" d="M399.27,182.71a3.42,3.42,0,0,1-.47,1.76,3.53,3.53,0,0,1-3.05,1.75"/><path class="f" d="M370.15,199.13h0a1.76,1.76,0,0,1-2.41.64"/><path class="f" d="M361.62,196.25h0a1.75,1.75,0,0,1-.65-2.4"/><path class="f" d="M371.68,200h0a3.53,3.53,0,0,1-4.82,1.28"/><path class="f" d="M360.74,197.77h0a3.5,3.5,0,0,1-1.3-4.8"/></g><polygon class="d" points="461.92 199.21 460.16 198.74 458.87 197.45 458.39 195.69 458.39 194.64 458.6 194.14 459.1 193.93 458.63 193.78 458.36 193.37 458.39 192.88 458.39 170.38 458.7 169.63 459.45 169.32 458.7 169.02 458.39 168.27 458.39 140.5 458.7 139.75 459.45 139.44 458.71 139.13 458.39 138.39 458.08 139.13 457.33 139.44 431.23 139.44 430.58 139.23 430.2 138.66 429.86 139.33 429.11 139.44 410.76 139.44 408.06 138.91 405.77 137.38 404.24 135.1 403.7 132.41 403.7 116.59 404.24 113.9 405.77 111.62 408.06 110.09 410.76 109.56 429.11 109.56 429.86 109.87 430.17 110.61 430.17 109.56 488.38 109.56 488.38 198.5 488.18 199 487.68 199.21 461.92 199.21"/><line class="f" x1="458.39" y1="194.64" x2="458.39" y2="195.69"/><line class="f" x1="461.92" y1="199.21" x2="487.68" y2="199.21"/><line class="f" x1="488.38" y1="198.5" x2="488.38" y2="194.64"/><line class="f" x1="487.68" y1="193.93" x2="459.1" y2="193.93"/><line class="f" x1="488.38" y1="194.64" x2="488.38" y2="169.32"/><line class="f" x1="488.38" y1="169.32" x2="485.92" y2="169.32"/><line class="f" x1="479.26" y1="169.32" x2="477.14" y2="169.32"/><line class="f" x1="458.39" y1="170.38" x2="458.39" y2="192.88"/><line class="f" x1="459.45" y1="193.93" x2="477.14" y2="193.93"/><line class="f" x1="477.14" y1="169.32" x2="459.45" y2="169.32"/><line class="f" x1="486.97" y1="170.38" x2="486.97" y2="192.88"/><line class="f" x1="485.91" y1="193.93" x2="479.26" y2="193.93"/><line class="f" x1="479.26" y1="169.32" x2="485.92" y2="169.32"/><line class="f" x1="488.38" y1="139.44" x2="488.38" y2="169.32"/><line class="f" x1="488.38" y1="139.44" x2="485.92" y2="139.44"/><line class="f" x1="488.38" y1="169.32" x2="485.92" y2="169.32"/><line class="f" x1="479.26" y1="139.44" x2="477.14" y2="139.44"/><line class="f" x1="479.26" y1="169.32" x2="477.14" y2="169.32"/><line class="f" x1="458.39" y1="168.27" x2="458.39" y2="140.5"/><line class="f" x1="459.45" y1="139.44" x2="477.14" y2="139.44"/><line class="f" x1="477.14" y1="169.32" x2="459.45" y2="169.32"/><line class="f" x1="486.97" y1="168.27" x2="486.97" y2="140.5"/><line class="f" x1="485.91" y1="139.44" x2="479.26" y2="139.44"/><line class="f" x1="479.26" y1="169.32" x2="485.92" y2="169.32"/><line class="f" x1="403.7" y1="132.41" x2="403.7" y2="116.59"/><line class="f" x1="410.76" y1="109.56" x2="429.11" y2="109.56"/><line class="f" x1="430.17" y1="110.61" x2="430.17" y2="138.39"/><line class="f" x1="429.11" y1="139.44" x2="410.76" y2="139.44"/><line class="f" x1="477.14" y1="139.44" x2="459.45" y2="139.44"/><line class="f" x1="458.39" y1="138.39" x2="458.39" y2="120.76"/><line class="f" x1="486.97" y1="110.97" x2="459.45" y2="110.97"/><line class="f" x1="458.39" y1="112.02" x2="458.39" y2="118.65"/><line class="f" x1="479.26" y1="139.44" x2="485.92" y2="139.44"/><line class="f" x1="486.97" y1="138.39" x2="486.97" y2="110.97"/><line class="f" x1="458.39" y1="109.56" x2="488.38" y2="109.56"/><line class="f" x1="488.38" y1="109.56" x2="488.38" y2="139.44"/><line class="f" x1="458.39" y1="109.56" x2="458.39" y2="112.02"/><line class="f" x1="485.91" y1="139.44" x2="488.38" y2="139.44"/><line class="f" x1="479.26" y1="139.44" x2="477.14" y2="139.44"/><line class="f" x1="458.39" y1="118.65" x2="458.39" y2="120.76"/><line class="f" x1="430.17" y1="109.56" x2="458.39" y2="109.56"/><line class="f" x1="430.17" y1="109.56" x2="430.17" y2="112.02"/><line class="f" x1="458.39" y1="109.56" x2="458.39" y2="112.02"/><line class="f" x1="430.17" y1="118.65" x2="430.17" y2="120.76"/><line class="f" x1="458.39" y1="118.65" x2="458.39" y2="120.76"/><line class="f" x1="457.34" y1="139.44" x2="431.23" y2="139.44"/><line class="f" x1="430.17" y1="138.39" x2="430.17" y2="120.76"/><line class="f" x1="458.39" y1="120.76" x2="458.39" y2="138.39"/><line class="f" x1="457.34" y1="110.97" x2="431.23" y2="110.97"/><line class="f" x1="430.17" y1="112.02" x2="430.17" y2="118.65"/><line class="f" x1="458.39" y1="118.65" x2="458.39" y2="112.02"/><g class="g"><path class="f" d="M488.38,198.5a.7.7,0,0,1-.7.71"/><path class="f" d="M487.68,193.93a.7.7,0,0,1,.7.71"/><path class="f" d="M458.39,194.64a.71.71,0,0,1,.71-.71"/><path class="f" d="M459.45,193.93a1.06,1.06,0,0,1-1.06-1.05"/><path class="f" d="M458.39,170.38a1.07,1.07,0,0,1,1.06-1.06"/><path class="f" d="M458.39,140.5a1.06,1.06,0,0,1,1.06-1.06"/><path class="f" d="M459.45,169.32a1.06,1.06,0,0,1-1.06-1"/><path class="f" d="M429.11,109.56a1.05,1.05,0,0,1,1.06,1"/><path class="f" d="M430.17,138.39a1.06,1.06,0,0,1-1.06,1.05"/><path class="f" d="M459.45,139.44a1.06,1.06,0,0,1-1.06-1.05"/><path class="f" d="M431.23,139.44a1.05,1.05,0,0,1-1.06-1.05"/><path class="f" d="M458.39,138.39a1,1,0,0,1-1.05,1.05"/><path class="f" d="M410.76,139.44a7,7,0,0,1-7.05-7"/><path class="f" d="M403.7,116.59a7,7,0,0,1,7.06-7"/><path class="f" d="M457.34,115.89a53.1,53.1,0,0,1-26.11,0"/><path class="f" d="M482,168.27a52.48,52.48,0,0,1,0-27.77"/><path class="f" d="M482,192.88a52.9,52.9,0,0,1,0-22.5"/><path class="f" d="M459.45,115.89A18,18,0,0,1,482,138.39"/><path class="f" d="M461.92,199.21a3.53,3.53,0,0,1-3.53-3.52"/><path class="f" d="M485.38,469.32a6.84,6.84,0,0,1,0,10.16"/><path class="f" d="M489.14,346.51a.53.53,0,0,1,.53.53"/><path class="f" d="M489.67,361.45a.53.53,0,0,1-.53.53"/><path class="f" d="M470.8,362a.53.53,0,0,1-.53-.53"/><path class="f" d="M470.27,347a.53.53,0,0,1,.53-.53"/><path class="f" d="M471.33,350.91a.52.52,0,0,1,.52-.53"/><path class="f" d="M471.85,360.93a.52.52,0,0,1-.52-.53"/><path class="f" d="M488.61,360.4a.52.52,0,0,1-.52.53"/><path class="f" d="M488.09,350.38a.52.52,0,0,1,.52.53"/><path class="f" d="M480.71,350.09a.8.8,0,0,1-.11.34"/><path class="f" d="M480.36,352.29a.39.39,0,0,1-.78,0"/><path class="f" d="M479.35,350.43a.7.7,0,0,1-.12-.34"/><path class="f" d="M479.09,348.62a.88.88,0,1,1,1.76,0"/><path class="f" d="M480.45,350a.48.48,0,1,1-1,0"/><path class="f" d="M480.6,350.43a.77.77,0,0,1-.63.34.73.73,0,0,1-.62-.34"/><path class="f" d="M447.16,477.87a1.76,1.76,0,0,1-1.77,1.76"/><path class="f" d="M445.39,469.08a1.76,1.76,0,0,1,1.77,1.76"/><path class="f" d="M448.92,477.87a3.53,3.53,0,0,1-3.53,3.52"/><path class="f" d="M445.39,467.33a3.52,3.52,0,0,1,3.53,3.51"/><path class="f" d="M425.28,449.05A1.75,1.75,0,0,1,427,450.8"/><path class="f" d="M416.46,450.8a1.75,1.75,0,0,1,1.76-1.75"/><path class="f" d="M425.28,447.29a3.52,3.52,0,0,1,3.53,3.51"/><path class="f" d="M414.7,450.8a3.52,3.52,0,0,1,3.52-3.51"/><path class="f" d="M427,497.91a1.76,1.76,0,0,1-1.76,1.76"/><path class="f" d="M418.22,499.67a1.76,1.76,0,0,1-1.76-1.76"/><path class="f" d="M428.81,497.91a3.53,3.53,0,0,1-3.53,3.52"/><path class="f" d="M418.22,501.43a3.53,3.53,0,0,1-3.52-3.52"/></g><line class="f" x1="407.64" y1="460.3" x2="407.64" y2="488.42"/><g class="g"><path class="f" d="M452.8,362.68a5.71,5.71,0,0,1-2.29-4.57"/><path class="f" d="M463.56,358.11a5.71,5.71,0,0,1-2.29,4.57"/><path class="f" d="M461.27,362.68a7.07,7.07,0,0,1-8.47,0"/><path class="f" d="M463.56,358.11a5.71,5.71,0,0,1-2.29,4.57"/><path class="f" d="M461.27,362.68a7.1,7.1,0,0,1-4.23,1.41"/><path class="f" d="M461.45,358.11A3.64,3.64,0,0,1,460,361"/><path class="f" d="M460,361a4.92,4.92,0,0,1-3,1,5,5,0,0,1-3-1"/><path class="f" d="M454.07,361a3.63,3.63,0,0,1-1.44-2.89"/></g><polygon class="d" points="304.96 480.45 304.96 417.17 315.55 417.17 368.48 417.17 371.18 417.71 373.46 419.23 375 421.51 375.53 424.21 375.53 473.42 375 476.11 373.46 478.39 371.18 479.92 368.48 480.45 304.96 480.45"/><rect class="d" x="304.97" y="480.45" width="10.59" height="12.31"/><rect class="d" x="304.97" y="404.87" width="10.59" height="12.31"/><line class="f" x1="316.7" y1="446.82" x2="313.65" y2="445.98"/><line class="f" x1="316.7" y1="476.34" x2="313.65" y2="475.5"/><line class="f" x1="375.53" y1="424.21" x2="375.53" y2="473.42"/><line class="f" x1="368.47" y1="480.45" x2="304.97" y2="480.45"/><line class="f" x1="304.97" y1="480.45" x2="304.97" y2="417.17"/><line class="f" x1="304.97" y1="417.17" x2="368.47" y2="417.17"/><line class="f" x1="304.97" y1="480.45" x2="304.97" y2="492.76"/><line class="f" x1="304.97" y1="492.76" x2="315.55" y2="492.76"/><line class="f" x1="315.55" y1="492.76" x2="315.55" y2="480.45"/><line class="f" x1="315.55" y1="480.45" x2="304.97" y2="480.45"/><line class="f" x1="304.97" y1="404.87" x2="304.97" y2="417.17"/><line class="f" x1="304.97" y1="417.17" x2="315.55" y2="417.17"/><line class="f" x1="315.55" y1="417.17" x2="315.55" y2="404.87"/><line class="f" x1="315.55" y1="404.87" x2="304.97" y2="404.87"/><line class="f" x1="328.44" y1="480.45" x2="328.44" y2="417.17"/><line class="f" x1="333.73" y1="480.45" x2="333.73" y2="417.17"/><g class="g"><path class="f" d="M322.74,474.39c-.33-3.3-.5-6.63-.5-10a98.36,98.36,0,0,1,.85-12.95"/><path class="f" d="M322.74,474.39a1.92,1.92,0,0,1,.05.41,1.89,1.89,0,0,1-1.89,1.88h-.1"/><path class="f" d="M320.8,476.67c-.28,0-.55,0-.83,0a15,15,0,0,1-3.27-.36"/><path class="f" d="M316.7,476.34c-1.77.17-3.55.26-5.33.26q-1.28,0-2.55-.06"/><path class="f" d="M308.82,476.54l-.12,0a.4.4,0,0,1-.4-.4.19.19,0,0,1,0-.08"/><path class="f" d="M308.66,451.41q.22,4.77.23,9.55c0,5-.19,10.09-.58,15.12"/><path class="f" d="M308.66,451.41a.75.75,0,0,1,0-.21,1,1,0,0,1,1-1,1.12,1.12,0,0,1,.31,0"/><path class="f" d="M322.09,450.46a48.19,48.19,0,0,1-5.37.3,46.79,46.79,0,0,1-6.79-.49"/><path class="f" d="M322.09,450.46a.62.62,0,0,1,.23,0,.82.82,0,0,1,.81.82.67.67,0,0,1,0,.24"/><path class="f" d="M375.53,473.42a7,7,0,0,1-7,7"/><path class="f" d="M368.47,417.17a7,7,0,0,1,7.06,7"/><path class="f" d="M322.74,444.88q-.5-5-.5-10a98.36,98.36,0,0,1,.85-13"/><path class="f" d="M322.74,444.88a1.75,1.75,0,0,1,.05.4,1.89,1.89,0,0,1-1.89,1.88h-.1"/><path class="f" d="M320.8,447.16l-.83,0a15,15,0,0,1-3.27-.36"/><path class="f" d="M316.7,446.82a52.69,52.69,0,0,1-5.33.26q-1.28,0-2.55-.06"/><path class="f" d="M308.82,447a.25.25,0,0,1-.12,0,.4.4,0,0,1-.4-.4.19.19,0,0,1,0-.08"/><path class="f" d="M308.66,421.89q.22,4.77.23,9.55c0,5-.19,10.09-.58,15.12"/><path class="f" d="M308.66,421.89a.75.75,0,0,1,0-.21,1,1,0,0,1,1-1,1.12,1.12,0,0,1,.31.05"/><path class="f" d="M322.09,420.94a48.2,48.2,0,0,1-5.37.31,46.8,46.8,0,0,1-6.79-.5"/><path class="f" d="M322.09,420.94a.62.62,0,0,1,.23,0,.82.82,0,0,1,.81.82.67.67,0,0,1,0,.24"/></g><rect class="d" x="333.72" y="354.6" width="28.41" height="21.09"/><line class="f" x1="362.12" y1="375.69" x2="333.72" y2="375.69"/><line class="f" x1="333.72" y1="375.69" x2="333.72" y2="354.6"/><line class="f" x1="333.72" y1="354.6" x2="362.12" y2="354.6"/><line class="f" x1="362.12" y1="354.6" x2="362.12" y2="375.69"/><line class="f" x1="360.7" y1="365.14" x2="335.14" y2="365.14"/><line class="f" x1="359.39" y1="371.35" x2="356.98" y2="358.71"/><line class="f" x1="356.68" y1="371.98" x2="355.69" y2="360.22"/><line class="f" x1="352.98" y1="357.54" x2="352.16" y2="370.44"/><line class="f" x1="348.79" y1="359.23" x2="349.9" y2="370.44"/><line class="f" x1="347.26" y1="358.59" x2="347.26" y2="372.4"/><line class="f" x1="342.94" y1="358.53" x2="343.97" y2="372.17"/><line class="f" x1="341.33" y1="358.76" x2="341.33" y2="371.22"/><line class="f" x1="337.07" y1="358.63" x2="336.25" y2="371.41"/><line class="f" x1="338.09" y1="359.5" x2="338.92" y2="370.31"/><rect class="d" x="304.96" y="354.6" width="28.75" height="21.09"/><line class="f" x1="333.72" y1="375.69" x2="304.96" y2="375.69"/><line class="f" x1="304.97" y1="375.69" x2="304.97" y2="354.6"/><line class="f" x1="304.97" y1="354.6" x2="333.72" y2="354.6"/><line class="f" x1="333.72" y1="354.6" x2="333.72" y2="375.69"/><line class="f" x1="332.28" y1="365.14" x2="306.4" y2="365.14"/><line class="f" x1="330.95" y1="371.35" x2="328.52" y2="358.71"/><line class="f" x1="328.21" y1="371.98" x2="327.2" y2="360.22"/><line class="f" x1="324.46" y1="357.54" x2="323.63" y2="370.44"/><line class="f" x1="320.22" y1="359.23" x2="321.34" y2="370.44"/><line class="f" x1="318.68" y1="358.59" x2="318.68" y2="372.4"/><line class="f" x1="314.3" y1="358.53" x2="315.34" y2="372.17"/><line class="f" x1="312.67" y1="358.76" x2="312.67" y2="371.22"/><line class="f" x1="308.36" y1="358.63" x2="307.53" y2="371.41"/><line class="f" x1="309.39" y1="359.5" x2="310.24" y2="370.31"/><polygon class="d" points="310.79 319.62 310.41 319.46 310.26 319.09 310.26 300.81 310.41 300.44 310.79 300.28 325.25 300.28 325.63 300.44 325.78 300.81 325.78 319.09 325.63 319.46 325.25 319.62 310.79 319.62"/><g class="g"><path class="f" d="M310.26,300.81a.53.53,0,0,1,.53-.53"/></g><line class="f" x1="325.25" y1="300.28" x2="310.79" y2="300.28"/><g class="g"><path class="f" d="M325.25,300.28a.53.53,0,0,1,.53.53"/></g><line class="f" x1="325.78" y1="319.09" x2="325.78" y2="300.81"/><g class="g"><path class="f" d="M325.78,319.09a.53.53,0,0,1-.53.53"/></g><line class="f" x1="310.79" y1="319.62" x2="325.25" y2="319.62"/><g class="g"><path class="f" d="M310.79,319.62a.53.53,0,0,1-.53-.53"/></g><line class="f" x1="310.26" y1="300.81" x2="310.26" y2="319.09"/><line class="f" x1="314.14" y1="301.86" x2="314.14" y2="318.03"/><line class="f" x1="314.67" y1="318.56" x2="324.19" y2="318.56"/><line class="f" x1="324.72" y1="318.03" x2="324.72" y2="301.86"/><line class="f" x1="324.19" y1="301.34" x2="314.67" y2="301.34"/><g class="g"><path class="f" d="M314.67,318.56a.53.53,0,0,1-.53-.53"/><path class="f" d="M324.72,318a.52.52,0,0,1-.53.53"/><path class="f" d="M324.19,301.34a.52.52,0,0,1,.53.52"/><path class="f" d="M314.14,301.86a.53.53,0,0,1,.53-.53"/></g><polygon class="d" points="311.75 310.57 311.49 309.95 311.75 309.33 312.38 309.07 313.86 309.21 314.19 309.32 316.06 309.56 316.31 309.69 316.4 309.95 316.31 310.21 316.06 310.34 314.19 310.57 313.86 310.69 312.38 310.83 311.75 310.57"/><line class="f" x1="312.37" y1="309.07" x2="313.85" y2="309.21"/><g class="g"><path class="f" d="M313.86,309.21a.81.81,0,0,1,.33.11"/></g><line class="f" x1="314.19" y1="309.32" x2="316.06" y2="309.56"/><g class="g"><path class="f" d="M316.06,309.56a.38.38,0,0,1,.34.39.39.39,0,0,1-.34.39"/></g><line class="f" x1="316.06" y1="310.34" x2="314.19" y2="310.57"/><g class="g"><path class="f" d="M314.19,310.57a.66.66,0,0,1-.34.12"/></g><line class="f" x1="313.86" y1="310.69" x2="312.38" y2="310.83"/><g class="g"><path class="f" d="M312.37,310.83a.88.88,0,0,1,0-1.76"/></g><line class="f" x1="313.25" y1="310.43" x2="313.78" y2="310.43"/><line class="f" x1="313.78" y1="309.47" x2="313.25" y2="309.47"/><line class="f" x1="313.25" y1="309.47" x2="313.25" y2="310.43"/><g class="g"><path class="f" d="M313.78,309.47a.48.48,0,1,1,0,1"/><path class="f" d="M314.19,309.32a.77.77,0,0,1,.34.63.75.75,0,0,1-.34.62"/></g><polygon class="d" points="310.26 291.84 310.26 278.84 321.9 278.84 323.65 279.11 325.23 279.89 326.49 281.12 327.54 283.12 327.9 285.34 327.54 287.56 326.49 289.56 325.23 290.79 323.65 291.57 321.9 291.84 310.26 291.84"/><line class="f" x1="310.26" y1="291.84" x2="321.9" y2="291.84"/><line class="f" x1="310.26" y1="291.84" x2="310.26" y2="278.84"/><line class="f" x1="310.26" y1="278.84" x2="321.9" y2="278.84"/><line class="f" x1="314.49" y1="289.73" x2="321.9" y2="289.73"/><line class="f" x1="314.49" y1="280.95" x2="321.9" y2="280.95"/><line class="f" x1="314.49" y1="280.95" x2="314.49" y2="289.73"/><g class="g"><path class="f" d="M326.49,289.56a5.74,5.74,0,0,1-4.59,2.28"/><path class="f" d="M321.9,278.84a5.74,5.74,0,0,1,4.59,2.28"/><path class="f" d="M326.49,281.12a7,7,0,0,1,0,8.44"/><path class="f" d="M321.9,278.84a5.74,5.74,0,0,1,4.59,2.28"/><path class="f" d="M326.49,281.12a7.07,7.07,0,0,1,1.41,4.22"/><path class="f" d="M321.9,281a3.6,3.6,0,0,1,2.89,1.44"/><path class="f" d="M324.79,282.39a4.89,4.89,0,0,1,0,5.9"/><path class="f" d="M324.79,288.29a3.6,3.6,0,0,1-2.89,1.44"/></g><rect class="d" x="447.16" y="269.52" width="44.1" height="21.09"/><line class="f" x1="491.26" y1="290.61" x2="447.16" y2="290.61"/><line class="f" x1="447.16" y1="290.61" x2="447.16" y2="269.52"/><line class="f" x1="447.16" y1="269.52" x2="491.26" y2="269.52"/><line class="f" x1="491.26" y1="269.52" x2="491.26" y2="290.61"/><line class="f" x1="489.06" y1="280.07" x2="449.36" y2="280.07"/><line class="f" x1="487.01" y1="286.27" x2="483.28" y2="273.63"/><line class="f" x1="482.8" y1="286.9" x2="481.26" y2="275.14"/><line class="f" x1="477.06" y1="272.46" x2="475.79" y2="285.36"/><line class="f" x1="470.55" y1="274.15" x2="472.27" y2="285.36"/><line class="f" x1="468.19" y1="273.51" x2="468.19" y2="287.32"/><line class="f" x1="461.48" y1="273.45" x2="463.07" y2="287.1"/><line class="f" x1="458.97" y1="273.68" x2="458.97" y2="286.15"/><line class="f" x1="452.36" y1="273.55" x2="451.09" y2="286.33"/><line class="f" x1="453.95" y1="274.42" x2="455.24" y2="285.23"/><rect class="d" x="403.05" y="269.52" width="44.11" height="21.09"/><line class="f" x1="447.16" y1="290.61" x2="403.05" y2="290.61"/><line class="f" x1="403.05" y1="290.61" x2="403.05" y2="269.52"/><line class="f" x1="403.05" y1="269.52" x2="447.16" y2="269.52"/><line class="f" x1="447.16" y1="269.52" x2="447.16" y2="290.61"/><line class="f" x1="444.95" y1="280.07" x2="405.26" y2="280.07"/><line class="f" x1="442.9" y1="286.27" x2="439.18" y2="273.63"/><line class="f" x1="438.7" y1="286.9" x2="437.16" y2="275.14"/><line class="f" x1="432.96" y1="272.46" x2="431.69" y2="285.36"/><line class="f" x1="426.45" y1="274.15" x2="428.17" y2="285.36"/><line class="f" x1="424.08" y1="273.51" x2="424.08" y2="287.32"/><line class="f" x1="417.38" y1="273.45" x2="418.97" y2="287.1"/><line class="f" x1="414.87" y1="273.68" x2="414.87" y2="286.15"/><line class="f" x1="408.25" y1="273.55" x2="406.98" y2="286.33"/><line class="f" x1="409.84" y1="274.42" x2="411.14" y2="285.23"/><line class="f" x1="491.26" y1="292.37" x2="491.26" y2="299.4"/><line class="f" x1="491.26" y1="303.27" x2="491.26" y2="304.06"/><line class="f" x1="491.26" y1="307.93" x2="491.26" y2="308.72"/><line class="f" x1="491.26" y1="312.59" x2="491.26" y2="319.62"/><line class="f" x1="491.26" y1="323.48" x2="491.26" y2="324.01"/><line class="f" x1="491.26" y1="324.01" x2="491.26" y2="331.04"/><line class="f" x1="318.32" y1="227.31" x2="318.32" y2="221.41"/><line class="f" x1="318.32" y1="221.41" x2="315.91" y2="223.35"/><line class="f" x1="315.91" y1="223.35" x2="313.51" y2="221.41"/><line class="f" x1="313.51" y1="221.41" x2="313.51" y2="227.31"/><line class="f" x1="319.08" y1="529.67" x2="319.08" y2="585.92"/><line class="f" x1="319.08" y1="529.67" x2="319.08" y2="529.67"/><line class="f" x1="319.08" y1="585.92" x2="413.99" y2="585.92"/><line class="f" x1="320.84" y1="529.67" x2="320.84" y2="584.16"/><line class="f" x1="320.84" y1="584.16" x2="413.99" y2="584.16"/><line class="f" x1="343.78" y1="88.47" x2="343.78" y2="33.97"/><line class="f" x1="343.78" y1="33.97" x2="495.49" y2="33.97"/><line class="f" x1="342.01" y1="88.47" x2="342.01" y2="32.22"/><line class="f" x1="342.01" y1="32.22" x2="495.49" y2="32.22"/><g class="g"><path d="M469.36,379.19a6.25,6.25,0,0,1,.25-2,2.46,2.46,0,0,1,.75-1.15,1.93,1.93,0,0,1,1.26-.41,2,2,0,0,1,1,.23,1.79,1.79,0,0,1,.7.64,3.36,3.36,0,0,1,.43,1,6.9,6.9,0,0,1,.16,1.63,6.19,6.19,0,0,1-.26,2,2.37,2.37,0,0,1-.74,1.15A2.12,2.12,0,0,1,470,382,4.6,4.6,0,0,1,469.36,379.19Zm.87,0a4.26,4.26,0,0,0,.4,2.26,1.18,1.18,0,0,0,1,.56,1.16,1.16,0,0,0,1-.56,6.61,6.61,0,0,0,0-4.53,1.2,1.2,0,0,0-1-.56,1.1,1.1,0,0,0-.94.5A4.4,4.4,0,0,0,470.23,379.19Z"/><path d="M474.71,380.77l.85-.11a2,2,0,0,0,.5,1,1.25,1.25,0,0,0,.86.31,1.34,1.34,0,0,0,1-.41,1.4,1.4,0,0,0,.42-1,1.27,1.27,0,0,0-.39-1,1.31,1.31,0,0,0-1-.38,2.19,2.19,0,0,0-.6.1l.1-.75h.13a1.73,1.73,0,0,0,1-.28,1,1,0,0,0,.44-.87,1,1,0,0,0-.32-.77,1.1,1.1,0,0,0-.82-.31,1.13,1.13,0,0,0-.82.31,1.5,1.5,0,0,0-.43.93l-.85-.15a2.14,2.14,0,0,1,.71-1.32,2.05,2.05,0,0,1,1.37-.47,2.31,2.31,0,0,1,1.05.24,1.83,1.83,0,0,1,.73.67,1.67,1.67,0,0,1,.25.89,1.45,1.45,0,0,1-.24.81,1.59,1.59,0,0,1-.71.58,1.62,1.62,0,0,1,1,.59,1.77,1.77,0,0,1,.34,1.11,2,2,0,0,1-.66,1.54,2.33,2.33,0,0,1-1.67.63,2.15,2.15,0,0,1-1.52-.55A2.09,2.09,0,0,1,474.71,380.77Z"/></g><g class="g"><path d="M497.4,441.21a6.21,6.21,0,0,1,.25-2,2.46,2.46,0,0,1,.75-1.15,2,2,0,0,1,1.26-.41,2.18,2.18,0,0,1,1,.22,1.87,1.87,0,0,1,.69.65,3.36,3.36,0,0,1,.43,1,6.41,6.41,0,0,1,.16,1.63,6.53,6.53,0,0,1-.25,2,2.46,2.46,0,0,1-.75,1.15,2.11,2.11,0,0,1-2.84-.31A4.57,4.57,0,0,1,497.4,441.21Zm.87,0a4.36,4.36,0,0,0,.4,2.26,1.15,1.15,0,0,0,2,0,6.61,6.61,0,0,0,0-4.53,1.17,1.17,0,0,0-1-.56,1.11,1.11,0,0,0-.94.5A4.37,4.37,0,0,0,498.27,441.21Z"/><path d="M507.22,443.8v.81h-4.58a1.7,1.7,0,0,1,.1-.59,3.5,3.5,0,0,1,.56-.92,9.25,9.25,0,0,1,1.12-1,9.43,9.43,0,0,0,1.52-1.46,1.72,1.72,0,0,0,.4-1,1.13,1.13,0,0,0-.36-.85,1.32,1.32,0,0,0-1-.35,1.37,1.37,0,0,0-1,.37,1.38,1.38,0,0,0-.37,1l-.88-.09a2.16,2.16,0,0,1,.68-1.49,2.3,2.3,0,0,1,1.57-.51,2.19,2.19,0,0,1,1.58.55,1.8,1.8,0,0,1,.58,1.37,1.93,1.93,0,0,1-.17.81,3,3,0,0,1-.56.84,14.7,14.7,0,0,1-1.31,1.22q-.76.64-1,.87a3,3,0,0,0-.36.46Z"/></g><line class="f" x1="319.08" y1="585.92" x2="413.99" y2="585.92"/><line class="f" x1="413.99" y1="585.92" x2="413.99" y2="529.67"/><line class="f" x1="413.99" y1="529.67" x2="413.99" y2="515.61"/><line class="f" x1="413.99" y1="515.61" x2="407.64" y2="515.61"/><line class="f" x1="407.64" y1="515.61" x2="407.64" y2="341.24"/><line class="f" x1="407.64" y1="341.24" x2="499.73" y2="341.24"/><line class="f" x1="499.73" y1="341.24" x2="499.73" y2="200.96"/><line class="f" x1="499.73" y1="200.96" x2="499.73" y2="88.47"/><line class="f" x1="499.73" y1="88.47" x2="495.49" y2="88.47"/><line class="f" x1="495.49" y1="88.47" x2="495.49" y2="32.2"/><line class="f" x1="495.49" y1="32.2" x2="342.01" y2="32.2"/><line class="f" x1="342.01" y1="32.2" x2="342.01" y2="88.47"/><line class="f" x1="342.01" y1="88.47" x2="290.85" y2="88.47"/><line class="f" x1="290.85" y1="88.47" x2="290.85" y2="341.24"/><line class="f" x1="290.85" y1="341.24" x2="290.85" y2="529.67"/><line class="f" x1="290.85" y1="529.67" x2="319.08" y2="529.67"/><line class="f" x1="319.08" y1="529.67" x2="319.08" y2="585.92"/><path class="h" d="M397.22,60.6v7h-.72V61.24h-1.65V60.6Z"/><path class="h" d="M398.9,67.1a.53.53,0,0,1,.53-.54.54.54,0,0,1,.54.54.55.55,0,0,1-.54.55A.54.54,0,0,1,398.9,67.1Z"/><path class="h" d="M400.91,64.1c0-2.23,1.17-3.56,2.79-3.56s2.8,1.33,2.8,3.56-1.18,3.56-2.8,3.56S400.91,66.33,400.91,64.1Zm4.85,0c0-1.87-.84-2.9-2.06-2.9s-2.06,1-2.06,2.9.84,2.9,2.06,2.9S405.76,66,405.76,64.1Z"/><path class="h" d="M412.28,65.54c0,1.19-.83,2.12-2.54,2.12a3.61,3.61,0,0,1-2.51-.9l.35-.57a3,3,0,0,0,2.15.81c1.19,0,1.82-.58,1.82-1.43s-.56-1.46-2.34-1.46h-1.49l.36-3.51h3.83v.64h-3.2l-.24,2.23h.9C411.48,63.47,412.28,64.3,412.28,65.54Z"/><path class="h" d="M360.72,553.8v7H360v-6.36h-1.65v-.64Z"/><path class="h" d="M362.4,560.3a.53.53,0,0,1,.53-.54.54.54,0,0,1,.54.54.55.55,0,0,1-.54.55A.54.54,0,0,1,362.4,560.3Z"/><path class="h" d="M364.41,557.3c0-2.23,1.17-3.56,2.79-3.56s2.8,1.33,2.8,3.56-1.18,3.56-2.8,3.56S364.41,559.53,364.41,557.3Zm4.85,0c0-1.87-.84-2.9-2.06-2.9s-2.06,1-2.06,2.9.84,2.9,2.06,2.9S369.26,559.17,369.26,557.3Z"/><path class="h" d="M375.78,558.74c0,1.19-.83,2.12-2.54,2.12a3.61,3.61,0,0,1-2.51-.9l.35-.57a3,3,0,0,0,2.15.81c1.19,0,1.82-.58,1.82-1.43s-.56-1.46-2.34-1.46h-1.49l.36-3.51h3.83v.64h-3.2l-.24,2.23h.9C375,556.67,375.78,557.5,375.78,558.74Z"/><path class="h" d="M335.15,393.77v7h-.72v-6.36h-1.65v-.64Z"/><path class="h" d="M336.83,400.27a.53.53,0,0,1,.53-.54.54.54,0,0,1,.54.54.55.55,0,0,1-.54.55A.54.54,0,0,1,336.83,400.27Z"/><path class="h" d="M338.84,397.27c0-2.23,1.17-3.56,2.79-3.56s2.8,1.33,2.8,3.56-1.18,3.56-2.8,3.56S338.84,399.5,338.84,397.27Zm4.85,0c0-1.87-.84-2.9-2.06-2.9s-2.06,1-2.06,2.9.84,2.9,2.06,2.9S343.69,399.14,343.69,397.27Z"/><path class="h" d="M351.41,398.93H350v1.84h-.72v-1.84h-4v-.52l3.71-4.64h.8l-3.58,4.52h3v-1.62h.7v1.62h1.4Z"/><path class="h" d="M335.15,303.19v7h-.72v-6.36h-1.65v-.64Z"/><path class="h" d="M336.83,309.69a.53.53,0,0,1,.53-.54.54.54,0,0,1,.54.54.55.55,0,0,1-.54.55A.54.54,0,0,1,336.83,309.69Z"/><path class="h" d="M338.84,306.69c0-2.23,1.17-3.56,2.79-3.56s2.8,1.33,2.8,3.56-1.18,3.56-2.8,3.56S338.84,308.92,338.84,306.69Zm4.85,0c0-1.87-.84-2.9-2.06-2.9s-2.06,1-2.06,2.9.84,2.9,2.06,2.9S343.69,308.56,343.69,306.69Z"/><path class="h" d="M350,308.18c0,1.17-.85,2.07-2.54,2.07a3.64,3.64,0,0,1-2.52-.9l.35-.57a3.07,3.07,0,0,0,2.17.81c1.16,0,1.8-.54,1.8-1.41s-.59-1.39-1.89-1.39h-.5v-.53l1.94-2.43h-3.58v-.64h4.5v.51l-2,2.49C349.25,306.27,350,307.06,350,308.18Z"/><path class="h" d="M397.22,204.61v7h-.72v-6.36h-1.65v-.64Z"/><path class="h" d="M398.9,211.11a.53.53,0,0,1,.53-.54.54.54,0,0,1,.54.54.55.55,0,0,1-.54.55A.54.54,0,0,1,398.9,211.11Z"/><path class="h" d="M400.91,208.11c0-2.23,1.17-3.56,2.79-3.56s2.8,1.33,2.8,3.56-1.18,3.56-2.8,3.56S400.91,210.34,400.91,208.11Zm4.85,0c0-1.87-.84-2.9-2.06-2.9s-2.06,1-2.06,2.9.84,2.9,2.06,2.9S405.76,210,405.76,208.11Z"/><path class="h" d="M412.3,211v.64h-4.91v-.51l2.91-2.85c.79-.78.94-1.25.94-1.73,0-.81-.57-1.31-1.64-1.31a2.38,2.38,0,0,0-1.91.78l-.51-.44a3.15,3.15,0,0,1,2.48-1c1.42,0,2.32.72,2.32,1.89a2.88,2.88,0,0,1-1.15,2.19L408.45,211Z"/><path class="h" d="M397.22,303.82v7h-.72v-6.36h-1.65v-.64Z"/><path class="h" d="M398.9,310.32a.53.53,0,0,1,.53-.54.54.54,0,0,1,.54.54.55.55,0,0,1-.54.55A.54.54,0,0,1,398.9,310.32Z"/><path class="h" d="M400.91,307.32c0-2.23,1.17-3.56,2.79-3.56s2.8,1.33,2.8,3.56-1.18,3.56-2.8,3.56S400.91,309.55,400.91,307.32Zm4.85,0c0-1.87-.84-2.9-2.06-2.9s-2.06,1-2.06,2.9.84,2.9,2.06,2.9S405.76,309.19,405.76,307.32Z"/><path class="h" d="M409.46,303.82v7h-.72v-6.36h-1.65v-.64Z"/></svg>