<svg xmlns="http://www.w3.org/2000/svg" xmlns:xlink="http://www.w3.org/1999/xlink" viewBox="0 0 790.58 618.13"><defs><style>.a,.f{fill:none;}.b{fill:#595a5c;}.c{fill:#b6906c;}.d{fill:#fff;}.e{fill:#231f20;}.f{stroke:#000;stroke-linecap:round;stroke-linejoin:round;stroke-width:0.34px;}.g{clip-path:url(#a);}.h{fill:#58595b;}</style><clipPath id="a"><polygon class="a" points="245.04 186.32 245.04 240.88 240.93 240.88 240.93 431.81 549.65 431.81 549.65 240.88 545.54 240.88 545.54 186.32 245.04 186.32"/></clipPath></defs><path class="b" d="M55.31,597.13H57.1V609.9H55.31Zm.92,6.11h4.09a1.89,1.89,0,0,0,1-.27,1.82,1.82,0,0,0,.68-.77,2.67,2.67,0,0,0,.24-1.16,2.7,2.7,0,0,0-.24-1.16,1.82,1.82,0,0,0-1.7-1H56.23v-1.7h4a4.09,4.09,0,0,1,2,.48A3.45,3.45,0,0,1,63.62,599a4.64,4.64,0,0,1,0,4.11,3.34,3.34,0,0,1-1.35,1.36,4,4,0,0,1-2,.49h-4Z"/><path class="b" d="M67.7,606.33a2.07,2.07,0,0,0,.49,1.48,1.76,1.76,0,0,0,1.37.52,1.89,1.89,0,0,0,1.37-.46,1.79,1.79,0,0,0,.48-1.33l.12,1.91A2.58,2.58,0,0,1,69.06,610a2.89,2.89,0,0,1-2.33-1,4.08,4.08,0,0,1-.82-2.73v-5.55H67.7Zm.22-7.86a1.93,1.93,0,0,1-.56-1.5,2.07,2.07,0,0,1,.56-1.57,2.56,2.56,0,0,1,3.18,0,2.08,2.08,0,0,1,.57,1.56,1.94,1.94,0,0,1-.57,1.5,2.65,2.65,0,0,1-3.18,0Zm2.26-.86a.94.94,0,0,0,.24-.68,1,1,0,0,0-.24-.7.91.91,0,0,0-.67-.25.92.92,0,0,0-.67.25,1,1,0,0,0-.23.7,1,1,0,0,0,.23.68.92.92,0,0,0,.67.24A.9.9,0,0,0,70.18,597.61Zm1.23,3.17h1.78v9.12H71.41Z"/><path class="b" d="M77.1,609.63A2.82,2.82,0,0,1,76,608.36a5.08,5.08,0,0,1-.36-2v-2a5.05,5.05,0,0,1,.36-2,2.71,2.71,0,0,1,1-1.27,3,3,0,0,1,1.65-.44,2.71,2.71,0,0,1,1.48.42,3.22,3.22,0,0,1,1.09,1.19l-.18,1.86a2.19,2.19,0,0,0-.22-1,1.48,1.48,0,0,0-.61-.63,2,2,0,0,0-1-.21,1.71,1.71,0,0,0-1.37.55,2.26,2.26,0,0,0-.49,1.56v2a2.19,2.19,0,0,0,.49,1.54,1.74,1.74,0,0,0,1.37.54,1.93,1.93,0,0,0,1-.23,1.45,1.45,0,0,0,.61-.64,2.25,2.25,0,0,0,.22-1l.12,1.92a2.66,2.66,0,0,1-.89,1.14,2.56,2.56,0,0,1-1.53.45A3.19,3.19,0,0,1,77.1,609.63Zm4-12.5H82.9V609.9H81.11Z"/><path class="b" d="M87.09,609.57a3.09,3.09,0,0,1-1.29-1.36,4.85,4.85,0,0,1-.44-2.15v-1.48a4.71,4.71,0,0,1,.44-2.12,3.12,3.12,0,0,1,1.29-1.35,4.71,4.71,0,0,1,4.06,0,3.12,3.12,0,0,1,1.29,1.35,4.71,4.71,0,0,1,.44,2.12v1.51a4.79,4.79,0,0,1-.44,2.13,3.12,3.12,0,0,1-1.29,1.35,4.62,4.62,0,0,1-4.06,0Zm3.49-1.83a2.43,2.43,0,0,0,.51-1.65v-1.51a2.43,2.43,0,0,0-.51-1.65,1.88,1.88,0,0,0-1.46-.58,1.85,1.85,0,0,0-1.45.58,2.38,2.38,0,0,0-.52,1.65v1.51a2.38,2.38,0,0,0,.52,1.65,1.82,1.82,0,0,0,1.45.59A1.85,1.85,0,0,0,90.58,607.74Z"/><path class="b" d="M95.43,600.78h1.79v9.12H95.43Zm4.42,1.72a2.16,2.16,0,0,0-.83-.15,1.83,1.83,0,0,0-1.33.47,1.79,1.79,0,0,0-.47,1.31L97,602.37a3.32,3.32,0,0,1,1.09-1.27,2.58,2.58,0,0,1,1.48-.45,3.39,3.39,0,0,1,1.13.18,2.62,2.62,0,0,1,.88.53l-1.17,1.58A1.56,1.56,0,0,0,99.85,602.5Z"/><path class="b" d="M102.15,600.78H104l2.81,7.93-1,1.94Zm8.07,0L106.34,612a2.6,2.6,0,0,1-.56,1,1.87,1.87,0,0,1-.84.52,4,4,0,0,1-1.23.16h-.36V612h.36a1.46,1.46,0,0,0,.8-.2,1.74,1.74,0,0,0,.51-.7l3.38-10.31Z"/><path class="b" d="M113.51,609.88a5.76,5.76,0,0,1-1.32-.48,4.89,4.89,0,0,1-1.13-.79l1.06-1.31a5.86,5.86,0,0,0,1.47.85,4.18,4.18,0,0,0,1.44.28,3.11,3.11,0,0,0,1.6-.33,1.1,1.1,0,0,0,.53-1,.79.79,0,0,0-.29-.66,1.66,1.66,0,0,0-.72-.29c-.29,0-.69-.1-1.22-.14h-.15l-.14,0h-.15a6.45,6.45,0,0,1-1.5-.26,2,2,0,0,1-1-.7,2.38,2.38,0,0,1-.41-1.49,3.07,3.07,0,0,1,.39-1.61,2.41,2.41,0,0,1,1.18-1,5.29,5.29,0,0,1,2-.32,6.38,6.38,0,0,1,2.6.52,6.16,6.16,0,0,1,1.13.66l-1.08,1.31a5.59,5.59,0,0,0-1.35-.66,4,4,0,0,0-1.3-.22,2.44,2.44,0,0,0-1.37.31,1.08,1.08,0,0,0-.46.94.64.64,0,0,0,.26.55,1.72,1.72,0,0,0,.66.25c.26,0,.64.07,1.12.1h.34a7.67,7.67,0,0,1,1.63.25,2.24,2.24,0,0,1,1.13.77,2.62,2.62,0,0,1,.45,1.65,2.92,2.92,0,0,1-.42,1.63,2.54,2.54,0,0,1-1.27,1A5.88,5.88,0,0,1,115,610,7.38,7.38,0,0,1,113.51,609.88Z"/><path class="b" d="M126,597.13h1.8V609.9H126Zm2.6,12.5a2.39,2.39,0,0,1-.93-1.16l.13-1.91a2.22,2.22,0,0,0,.21,1,1.48,1.48,0,0,0,.61.63,1.93,1.93,0,0,0,1,.22,1.74,1.74,0,0,0,1.37-.54,2.18,2.18,0,0,0,.49-1.53v-2a2.26,2.26,0,0,0-.49-1.56,1.71,1.71,0,0,0-1.37-.55,2,2,0,0,0-1,.21,1.36,1.36,0,0,0-.61.62,2.12,2.12,0,0,0-.21,1l-.19-1.76a3.37,3.37,0,0,1,1.08-1.24,2.67,2.67,0,0,1,1.49-.43,3,3,0,0,1,1.65.43,2.9,2.9,0,0,1,1.06,1.27,5.1,5.1,0,0,1,.36,2v2a4.94,4.94,0,0,1-.37,2,2.79,2.79,0,0,1-1.08,1.26,3.25,3.25,0,0,1-1.71.44A2.73,2.73,0,0,1,128.57,609.63Z"/><path class="b" d="M134.46,600.78h1.82l2.81,7.93-1,1.94Zm8.07,0L138.65,612a2.6,2.6,0,0,1-.56,1,1.87,1.87,0,0,1-.84.52,4,4,0,0,1-1.23.16h-.36V612H136a1.46,1.46,0,0,0,.8-.2,1.74,1.74,0,0,0,.51-.7l3.37-10.31Z"/><path class="b" d="M143.57,600.78h4.12v1.62h-4.12Zm1.46,8.56a2.77,2.77,0,0,1-.52-1.81v-9.4h1.8v9.42a.84.84,0,0,0,.13.51.46.46,0,0,0,.39.18h.86V610h-1A2,2,0,0,1,145,609.34Z"/><path class="b" d="M151.94,606.33a2.07,2.07,0,0,0,.49,1.48,1.76,1.76,0,0,0,1.37.52,1.91,1.91,0,0,0,1.37-.46,1.79,1.79,0,0,0,.48-1.33l.12,1.91A2.58,2.58,0,0,1,153.3,610a2.89,2.89,0,0,1-2.33-1,4.08,4.08,0,0,1-.82-2.73v-5.55h1.79Zm3.71-5.55h1.78v9.12h-1.78Z"/><rect class="c" x="612.92" y="591.68" width="35.43" height="2.83"/><path class="d" d="M648.48,594.64H612.79v-3.08h35.69ZM613,594.39h35.19v-2.58H613Z"/><rect class="c" x="612.92" y="601.6" width="70.74" height="2.83"/><path class="d" d="M683.78,604.56h-71v-3.08h71ZM613,604.31h70.49v-2.58H613Z"/><rect class="c" x="612.92" y="612.72" width="177.16" height="2.84"/><path class="d" d="M790.21,615.68H612.79V612.6H790.21ZM613,615.43H790v-2.58H613Z"/><path class="e" d="M587.26,596.28h-.8v-4.82l-.81.5v-.83l.81-.53h.8Z"/><path class="e" d="M589,595.91a1.67,1.67,0,0,1-.41-1.19v-2.58A1.65,1.65,0,0,1,589,591a2,2,0,0,1,2.42,0,1.65,1.65,0,0,1,.41,1.19v2.58a1.65,1.65,0,0,1-.41,1.19,2,2,0,0,1-2.42,0Zm1.83-.55a.89.89,0,0,0,.2-.64v-2.58a.89.89,0,0,0-.2-.64.82.82,0,0,0-.62-.22.86.86,0,0,0-.63.22.94.94,0,0,0-.2.64v2.58a.9.9,0,0,0,.21.64,1,1,0,0,0,1.24,0Z"/><path class="e" d="M593.22,595.91a1.67,1.67,0,0,1-.41-1.19v-2.58a1.65,1.65,0,0,1,.41-1.19,2,2,0,0,1,2.42,0,1.61,1.61,0,0,1,.41,1.19v2.58a1.65,1.65,0,0,1-.41,1.19,2,2,0,0,1-2.42,0Zm1.83-.55a.9.9,0,0,0,.21-.64v-2.58a.94.94,0,0,0-.2-.64.86.86,0,0,0-.63-.22.82.82,0,0,0-.62.22.89.89,0,0,0-.2.64v2.58a.89.89,0,0,0,.2.64,1,1,0,0,0,1.24,0Z"/><path class="e" d="M600.1,596.13a1.45,1.45,0,0,1-.6-.6,2.06,2.06,0,0,1-.21-1v-.67a2,2,0,0,1,.21-.94,1.37,1.37,0,0,1,.6-.59,2,2,0,0,1,.95-.21,2.21,2.21,0,0,1,.59.08,1.68,1.68,0,0,1,.51.22,1.54,1.54,0,0,1,.37.35l-.58.52a1.17,1.17,0,0,0-.4-.3,1.13,1.13,0,0,0-.48-.11.94.94,0,0,0-.71.26,1,1,0,0,0-.26.72v.67a1,1,0,0,0,.25.74.94.94,0,0,0,.72.27,1,1,0,0,0,.48-.12,1,1,0,0,0,.4-.32l.58.56a1.38,1.38,0,0,1-.38.34,1.62,1.62,0,0,1-.5.22,2.27,2.27,0,0,1-.59.07A2.12,2.12,0,0,1,600.1,596.13Z"/><path class="e" d="M603.4,592.22h.79v4.06h-.79Zm2.42,1.6a1,1,0,0,0-.21-.67.78.78,0,0,0-.6-.23.81.81,0,0,0-.6.21.73.73,0,0,0-.22.58l-.08-.78a1.46,1.46,0,0,1,.49-.57,1.22,1.22,0,0,1,.67-.2,1.33,1.33,0,0,1,.73.2,1.18,1.18,0,0,1,.46.56,2.4,2.4,0,0,1,.15.89v2.47h-.79Zm2.42,0a.93.93,0,0,0-.22-.67.85.85,0,0,0-.63-.23.72.72,0,0,0-.57.23.9.9,0,0,0-.21.64l-.16-.78a1.61,1.61,0,0,1,.51-.63,1.23,1.23,0,0,1,.69-.22,1.37,1.37,0,0,1,.75.2,1.09,1.09,0,0,1,.47.56,2.21,2.21,0,0,1,.17.89v2.47h-.8Z"/><path class="e" d="M584.33,605.5l2-2.64a1.85,1.85,0,0,0,.27-.47,1.29,1.29,0,0,0,.09-.45h0a.67.67,0,0,0-.2-.53.81.81,0,0,0-.56-.19.76.76,0,0,0-.56.21,1,1,0,0,0-.27.58h-.82a2,2,0,0,1,.29-.83,1.42,1.42,0,0,1,.56-.53,1.67,1.67,0,0,1,.79-.18,1.93,1.93,0,0,1,.87.17,1.21,1.21,0,0,1,.54.51,1.55,1.55,0,0,1,.19.8h0a1.84,1.84,0,0,1-.12.63,2.8,2.8,0,0,1-.35.63l-1.65,2.24h2.15v.76h-3.2Z"/><path class="e" d="M589,605.83a1.67,1.67,0,0,1-.41-1.19v-2.58a1.65,1.65,0,0,1,.41-1.19,2,2,0,0,1,2.42,0,1.65,1.65,0,0,1,.41,1.19v2.58a1.65,1.65,0,0,1-.41,1.19,2,2,0,0,1-2.42,0Zm1.83-.55a.89.89,0,0,0,.2-.64v-2.58a.89.89,0,0,0-.2-.64.82.82,0,0,0-.62-.22.86.86,0,0,0-.63.22.94.94,0,0,0-.19.64v2.58a.89.89,0,0,0,.2.64,1,1,0,0,0,1.24,0Z"/><path class="e" d="M593.22,605.83a1.67,1.67,0,0,1-.41-1.19v-2.58a1.61,1.61,0,0,1,.42-1.19,1.59,1.59,0,0,1,1.2-.42,1.45,1.45,0,0,1,1.62,1.61v2.58a1.61,1.61,0,0,1-.41,1.19,2,2,0,0,1-2.42,0Zm1.84-.55a.94.94,0,0,0,.2-.64v-2.58a.94.94,0,0,0-.2-.64.84.84,0,0,0-.63-.22.82.82,0,0,0-.62.22.89.89,0,0,0-.2.64v2.58a.89.89,0,0,0,.2.64.82.82,0,0,0,.62.22A.86.86,0,0,0,595.06,605.28Z"/><path class="e" d="M600.1,606.05a1.45,1.45,0,0,1-.6-.6,2.06,2.06,0,0,1-.2-1v-.67a2,2,0,0,1,.2-.94,1.37,1.37,0,0,1,.6-.59,2,2,0,0,1,.95-.21,2.35,2.35,0,0,1,.6.08,1.73,1.73,0,0,1,.5.22,1.38,1.38,0,0,1,.37.35l-.58.52a1.08,1.08,0,0,0-.4-.3,1.13,1.13,0,0,0-.48-.11,1,1,0,0,0-.71.26,1,1,0,0,0-.26.72v.67a1,1,0,0,0,.25.74.94.94,0,0,0,.72.27,1.14,1.14,0,0,0,.88-.44l.58.56a1.38,1.38,0,0,1-.38.34,1.62,1.62,0,0,1-.5.22,2.22,2.22,0,0,1-.59.07A2.12,2.12,0,0,1,600.1,606.05Z"/><path class="e" d="M603.4,602.14h.79v4.06h-.79Zm2.42,1.6a1,1,0,0,0-.21-.67.78.78,0,0,0-.6-.23.81.81,0,0,0-.6.21.73.73,0,0,0-.22.58l-.08-.78a1.46,1.46,0,0,1,.49-.57,1.22,1.22,0,0,1,.67-.2,1.3,1.3,0,0,1,.73.2,1.18,1.18,0,0,1,.46.56,2.4,2.4,0,0,1,.16.89v2.47h-.8Zm2.42,0a.93.93,0,0,0-.22-.67.85.85,0,0,0-.63-.23.73.73,0,0,0-.57.23.89.89,0,0,0-.2.64l-.16-.78a1.51,1.51,0,0,1,.5-.63,1.23,1.23,0,0,1,.69-.22,1.35,1.35,0,0,1,.75.2,1.16,1.16,0,0,1,.48.56,2.4,2.4,0,0,1,.16.89v2.47h-.8Z"/><path class="e" d="M585,615.58a1.34,1.34,0,0,1-.54-.49,2,2,0,0,1-.28-.77h.8a.75.75,0,0,0,.25.49.85.85,0,0,0,.54.17.72.72,0,0,0,.59-.25,1.1,1.1,0,0,0,.21-.72v-.48a1.1,1.1,0,0,0-.21-.72.72.72,0,0,0-.59-.25.83.83,0,0,0-.4.11,1.18,1.18,0,0,0-.34.33h-.72v-3h2.89v.76h-2.1V612a1,1,0,0,1,.34-.18.94.94,0,0,1,.37-.07,1.68,1.68,0,0,1,.84.2,1.29,1.29,0,0,1,.53.6,2.07,2.07,0,0,1,.19.94V614a2.25,2.25,0,0,1-.19.94,1.31,1.31,0,0,1-.55.59,1.69,1.69,0,0,1-.86.21A1.74,1.74,0,0,1,585,615.58Z"/><path class="e" d="M589,615.32a1.65,1.65,0,0,1-.41-1.19v-2.58a1.67,1.67,0,0,1,.41-1.19,2,2,0,0,1,2.42,0,1.65,1.65,0,0,1,.41,1.19v2.58a1.64,1.64,0,0,1-.41,1.19,1.92,1.92,0,0,1-2.42,0Zm1.83-.55a.89.89,0,0,0,.2-.64v-2.58a.88.88,0,0,0-.2-.63.78.78,0,0,0-.62-.22.82.82,0,0,0-.63.22.93.93,0,0,0-.2.63v2.58a.9.9,0,0,0,.21.64,1,1,0,0,0,1.24,0Z"/><path class="e" d="M593.22,615.32a1.65,1.65,0,0,1-.41-1.19v-2.58a1.67,1.67,0,0,1,.41-1.19,2,2,0,0,1,2.42,0,1.61,1.61,0,0,1,.41,1.19v2.58a1.64,1.64,0,0,1-.41,1.19,1.92,1.92,0,0,1-2.42,0Zm1.83-.55a.9.9,0,0,0,.21-.64v-2.58a.93.93,0,0,0-.2-.63.82.82,0,0,0-.63-.22.78.78,0,0,0-.62.22.88.88,0,0,0-.2.63v2.58a.89.89,0,0,0,.2.64,1,1,0,0,0,1.24,0Z"/><path class="e" d="M600.1,615.54a1.45,1.45,0,0,1-.6-.6,2,2,0,0,1-.21-1v-.67a2,2,0,0,1,.21-.94,1.45,1.45,0,0,1,.6-.6,2,2,0,0,1,.95-.2,2.22,2.22,0,0,1,.59.07,2,2,0,0,1,.51.22,1.76,1.76,0,0,1,.37.35l-.58.52a1.17,1.17,0,0,0-.4-.3,1.13,1.13,0,0,0-.48-.11.94.94,0,0,0-.71.26,1,1,0,0,0-.26.73V614a1.07,1.07,0,0,0,.25.74,1,1,0,0,0,.72.26,1.13,1.13,0,0,0,.48-.11,1.26,1.26,0,0,0,.4-.32l.58.55a1.42,1.42,0,0,1-.38.35,1.88,1.88,0,0,1-.5.21,2.27,2.27,0,0,1-.59.08A2,2,0,0,1,600.1,615.54Z"/><path class="e" d="M603.4,611.63h.79v4.06h-.79Zm2.42,1.6a1,1,0,0,0-.21-.66.75.75,0,0,0-.6-.24.81.81,0,0,0-.6.21.75.75,0,0,0-.22.58l-.08-.78a1.5,1.5,0,0,1,.49-.56,1.15,1.15,0,0,1,.67-.2,1.32,1.32,0,0,1,.73.19,1.28,1.28,0,0,1,.46.56,2.42,2.42,0,0,1,.15.9v2.46h-.79Zm2.42,0a.91.91,0,0,0-.22-.66.82.82,0,0,0-.63-.24.72.72,0,0,0-.57.23.9.9,0,0,0-.21.64l-.16-.78a1.51,1.51,0,0,1,.51-.62,1.16,1.16,0,0,1,.69-.22,1.37,1.37,0,0,1,.75.19,1.18,1.18,0,0,1,.47.56,2.22,2.22,0,0,1,.17.9v2.46h-.8Z"/><path class="c" d="M23.49,613.89A12.92,12.92,0,1,1,36.4,601,12.93,12.93,0,0,1,23.49,613.89Zm0-24.83A11.92,11.92,0,1,0,35.4,601,11.93,11.93,0,0,0,23.49,589.06Z"/><polygon class="d" points="35.77 588.74 9.42 600.98 35.77 613.21 32.02 600.98 35.77 588.74"/><path class="c" d="M36.58,614.14,8.23,601l28.35-13.17-4,13.17ZM10.61,601,35,612.29,31.5,601,35,589.66Z"/><path class="c" d="M2.52,605.19a5,5,0,0,1-1.11-.38,4.4,4.4,0,0,1-1-.64l.81-1a3.72,3.72,0,0,0,1.16.69,4.08,4.08,0,0,0,1.38.23,2.73,2.73,0,0,0,1.55-.38,1.17,1.17,0,0,0,.55-1.05h0a1.12,1.12,0,0,0-.25-.77,1.44,1.44,0,0,0-.64-.42,8.23,8.23,0,0,0-1-.25H3.89l-.1,0a9.48,9.48,0,0,1-1.5-.36,2.08,2.08,0,0,1-1-.73,2.42,2.42,0,0,1-.41-1.51h0a2.77,2.77,0,0,1,.38-1.47,2.44,2.44,0,0,1,1.12-.92,4.48,4.48,0,0,1,1.77-.32,4.6,4.6,0,0,1,1,.11,4.9,4.9,0,0,1,1.86.86l-.73,1a4.61,4.61,0,0,0-1-.58,3,3,0,0,0-1.06-.2,2.44,2.44,0,0,0-1.46.38,1.24,1.24,0,0,0-.53,1.07h0a1,1,0,0,0,.27.75,1.74,1.74,0,0,0,.67.4,9.3,9.3,0,0,0,1.12.27h.24a7.93,7.93,0,0,1,1.4.41,2.22,2.22,0,0,1,.94.76,2.4,2.4,0,0,1,.38,1.43h0a2.62,2.62,0,0,1-.4,1.45,2.54,2.54,0,0,1-1.16.91,4.8,4.8,0,0,1-1.83.31A6.44,6.44,0,0,1,2.52,605.19Z"/><rect class="c" x="612.5" y="600.68" width="1" height="4.68"/><rect class="c" x="612.5" y="590.76" width="1" height="4.68"/><rect class="c" x="612.5" y="611.45" width="1" height="5.24"/><rect class="c" x="789.58" y="611.45" width="1" height="5.24"/><rect class="c" x="682.59" y="600.68" width="1" height="4.68"/><rect class="c" x="647.3" y="590.76" width="1" height="4.68"/><rect class="a" width="790.34" height="618.13"/><line class="f" x1="546.57" y1="240.88" x2="549.66" y2="240.88"/><line class="f" x1="543.82" y1="240.88" x2="543.82" y2="189.74"/><line class="f" x1="471.44" y1="240.88" x2="543.82" y2="240.88"/><line class="f" x1="471.44" y1="244.29" x2="471.44" y2="240.88"/><line class="f" x1="440.57" y1="244.29" x2="471.44" y2="244.29"/><line class="f" x1="440.57" y1="240.88" x2="440.57" y2="244.29"/><line class="f" x1="363.39" y1="240.88" x2="440.57" y2="240.88"/><line class="f" x1="363.39" y1="244.29" x2="363.39" y2="240.88"/><line class="f" x1="332.52" y1="244.29" x2="363.39" y2="244.29"/><line class="f" x1="332.52" y1="240.88" x2="332.52" y2="244.29"/><line class="f" x1="246.42" y1="240.88" x2="332.52" y2="240.88"/><line class="f" x1="246.42" y1="189.74" x2="246.42" y2="240.88"/><line class="f" x1="543.82" y1="189.74" x2="246.42" y2="189.74"/><line class="f" x1="240.93" y1="240.88" x2="243.67" y2="240.88"/><rect class="d" x="431.65" y="403.16" width="20.58" height="20.46"/><line class="f" x1="431.65" y1="423.62" x2="452.23" y2="423.62"/><line class="f" x1="431.65" y1="403.17" x2="431.65" y2="423.62"/><line class="f" x1="452.23" y1="403.17" x2="431.65" y2="403.17"/><line class="f" x1="452.23" y1="423.62" x2="452.23" y2="403.17"/><rect class="d" x="249.16" y="402.82" width="96.74" height="20.8"/><line class="f" x1="345.89" y1="423.62" x2="249.16" y2="423.62"/><line class="f" x1="249.16" y1="423.62" x2="249.16" y2="402.82"/><line class="f" x1="249.16" y1="402.82" x2="345.9" y2="402.82"/><line class="f" x1="345.89" y1="402.82" x2="345.89" y2="423.62"/><rect class="d" x="249.16" y="351.68" width="20.93" height="51.14"/><line class="f" x1="270.08" y1="402.82" x2="249.16" y2="402.82"/><line class="f" x1="249.16" y1="402.82" x2="249.16" y2="351.68"/><line class="f" x1="249.16" y1="351.69" x2="270.09" y2="351.69"/><line class="f" x1="270.08" y1="351.69" x2="270.08" y2="402.83"/><rect class="d" x="513.12" y="359.7" width="27.44" height="40.91"/><line class="f" x1="513.12" y1="359.7" x2="513.12" y2="400.61"/><line class="f" x1="540.56" y1="359.7" x2="513.12" y2="359.7"/><line class="f" x1="540.56" y1="400.61" x2="540.56" y2="359.7"/><line class="f" x1="513.12" y1="400.61" x2="540.57" y2="400.61"/><polygon points="240.93 247.7 240.93 240.88 245.04 240.88 277.63 240.88 277.63 247.7 240.93 247.7"/><rect x="363.39" y="240.88" width="77.18" height="6.82"/><polygon points="526.33 247.7 526.33 240.88 545.54 240.88 549.65 240.88 549.65 247.7 526.33 247.7"/><rect x="240.93" y="247.7" width="34.99" height="6.82"/><rect x="528.04" y="247.7" width="21.61" height="6.82"/><rect x="365.1" y="247.7" width="73.75" height="6.82"/><polygon points="424.79 431.8 424.79 423.62 541.42 423.62 541.42 254.52 549.65 254.52 549.65 423.62 549.65 431.8 424.79 431.8"/><polygon points="249.16 431.8 240.93 431.8 240.93 254.52 249.16 254.52 249.16 423.62 387.06 423.62 387.06 431.8 249.16 431.8"/><polygon points="452.23 367.37 452.23 358.84 447.09 358.84 447.09 356.46 541.42 356.46 541.42 358.84 454.63 358.84 454.63 367.37 452.23 367.37"/><rect x="367.5" y="399.76" width="2.4" height="23.87"/><polygon points="367.5 369.07 367.5 356.46 388.09 356.46 388.09 254.52 390.49 254.52 390.49 356.46 416.22 356.46 416.22 358.84 369.91 358.84 369.91 369.07 367.5 369.07"/><rect x="423.08" y="427.88" width="1.71" height="3.92"/><rect x="387.06" y="427.88" width="1.71" height="3.92"/><rect x="452.23" y="394.64" width="2.4" height="28.98"/><rect x="513.98" y="404.87" width="3.43" height="18.75"/><polygon points="513.98 404.93 513.98 401.46 541.42 401.46 541.42 404.87 517.41 404.87 517.41 404.93 513.98 404.93"/><polygon points="383.63 423.62 383.63 409.98 369.91 409.98 369.91 406.57 387.06 406.57 387.06 423.62 383.63 423.62"/><polygon points="345.89 423.62 345.89 403.17 367.5 403.17 367.5 406.57 349.33 406.57 349.33 423.62 345.89 423.62"/><rect x="245.04" y="189.74" width="1.37" height="51.14"/><rect x="544.17" y="189.74" width="1.37" height="51.14"/><line class="f" x1="240.93" y1="240.88" x2="245.04" y2="240.88"/><line class="f" x1="245.04" y1="240.88" x2="277.63" y2="240.88"/><line class="f" x1="363.39" y1="240.88" x2="440.57" y2="240.88"/><line class="f" x1="526.33" y1="240.88" x2="545.54" y2="240.88"/><line class="f" x1="545.54" y1="240.88" x2="549.65" y2="240.88"/><line class="f" x1="365.1" y1="254.52" x2="388.09" y2="254.52"/><line class="f" x1="390.49" y1="254.52" x2="438.86" y2="254.52"/><line class="f" x1="528.04" y1="254.52" x2="541.42" y2="254.52"/><line class="f" x1="249.16" y1="254.52" x2="275.92" y2="254.52"/><line class="f" x1="549.65" y1="254.52" x2="549.65" y2="254.52"/><line class="f" x1="275.92" y1="254.52" x2="275.92" y2="247.7"/><line class="f" x1="365.1" y1="254.52" x2="365.1" y2="247.7"/><line class="f" x1="528.04" y1="254.52" x2="528.04" y2="247.7"/><line class="f" x1="438.86" y1="247.7" x2="438.86" y2="254.52"/><line class="f" x1="544.17" y1="189.74" x2="544.17" y2="240.88"/><line class="f" x1="545.54" y1="189.74" x2="544.17" y2="189.74"/><line class="f" x1="246.42" y1="189.74" x2="246.42" y2="240.88"/><line class="f" x1="246.42" y1="189.74" x2="245.04" y2="189.74"/><line class="f" x1="526.33" y1="247.7" x2="526.33" y2="240.88"/><line class="f" x1="528.04" y1="247.7" x2="526.33" y2="247.7"/><line class="f" x1="363.39" y1="247.7" x2="363.39" y2="240.88"/><line class="f" x1="365.1" y1="247.7" x2="363.39" y2="247.7"/><line class="f" x1="440.57" y1="247.7" x2="440.57" y2="240.88"/><line class="f" x1="438.86" y1="247.7" x2="440.57" y2="247.7"/><line class="f" x1="277.63" y1="247.7" x2="277.63" y2="240.88"/><line class="f" x1="275.92" y1="247.7" x2="277.63" y2="247.7"/><line class="f" x1="545.54" y1="189.74" x2="245.04" y2="189.74"/><line class="f" x1="275.92" y1="254.52" x2="330.8" y2="254.52"/><line class="f" x1="330.8" y1="254.52" x2="365.1" y2="254.52"/><line class="f" x1="277.63" y1="240.88" x2="332.52" y2="240.88"/><line class="f" x1="330.8" y1="254.52" x2="330.8" y2="247.7"/><line class="f" x1="332.52" y1="247.7" x2="332.52" y2="240.88"/><line class="f" x1="332.52" y1="244.29" x2="363.39" y2="244.29"/><line class="f" x1="333.55" y1="248.38" x2="333.55" y2="247.7"/><line class="f" x1="333.55" y1="247.7" x2="330.8" y2="247.7"/><line class="f" x1="330.8" y1="247.7" x2="330.8" y2="250.43"/><line class="f" x1="330.8" y1="250.43" x2="332.17" y2="250.43"/><line class="f" x1="332.17" y1="251.11" x2="334.92" y2="251.11"/><line class="f" x1="334.92" y1="251.11" x2="334.92" y2="248.38"/><line class="f" x1="334.92" y1="248.38" x2="332.17" y2="248.38"/><line class="f" x1="332.17" y1="248.38" x2="332.17" y2="251.11"/><line class="f" x1="363.73" y1="251.11" x2="360.99" y2="251.11"/><line class="f" x1="360.99" y1="251.11" x2="360.99" y2="248.38"/><line class="f" x1="360.99" y1="248.38" x2="363.73" y2="248.38"/><line class="f" x1="363.73" y1="248.38" x2="363.73" y2="251.11"/><line class="f" x1="334.92" y1="251.11" x2="360.99" y2="251.11"/><line class="f" x1="360.99" y1="248.38" x2="334.92" y2="248.38"/><line class="f" x1="334.92" y1="249.75" x2="360.99" y2="249.75"/><line class="f" x1="362.36" y1="248.38" x2="362.36" y2="247.7"/><line class="f" x1="362.36" y1="247.7" x2="365.1" y2="247.7"/><line class="f" x1="365.1" y1="247.7" x2="365.1" y2="250.43"/><line class="f" x1="365.1" y1="250.43" x2="363.73" y2="250.43"/><line class="f" x1="330.8" y1="250.43" x2="328.06" y2="250.43"/><line class="f" x1="328.06" y1="250.43" x2="328.06" y2="247.7"/><line class="f" x1="328.06" y1="247.7" x2="330.8" y2="247.7"/><line class="f" x1="330.8" y1="247.7" x2="330.8" y2="250.43"/><line class="f" x1="328.06" y1="250.43" x2="304.73" y2="250.43"/><line class="f" x1="328.06" y1="249.06" x2="304.73" y2="249.06"/><line class="f" x1="328.06" y1="247.7" x2="304.73" y2="247.7"/><line class="f" x1="278.66" y1="248.38" x2="278.66" y2="247.7"/><line class="f" x1="278.66" y1="247.7" x2="275.92" y2="247.7"/><line class="f" x1="275.92" y1="247.7" x2="275.92" y2="250.43"/><line class="f" x1="275.92" y1="250.43" x2="277.29" y2="250.43"/><line class="f" x1="277.29" y1="251.11" x2="280.03" y2="251.11"/><line class="f" x1="280.03" y1="251.11" x2="280.03" y2="248.38"/><line class="f" x1="280.03" y1="248.38" x2="277.29" y2="248.38"/><line class="f" x1="277.29" y1="248.38" x2="277.29" y2="251.11"/><line class="f" x1="280.03" y1="251.11" x2="300.61" y2="251.11"/><line class="f" x1="300.61" y1="248.38" x2="280.03" y2="248.38"/><line class="f" x1="280.03" y1="249.75" x2="300.61" y2="249.75"/><line class="f" x1="301.99" y1="248.38" x2="301.99" y2="247.7"/><line class="f" x1="301.99" y1="247.7" x2="304.73" y2="247.7"/><line class="f" x1="304.73" y1="247.7" x2="304.73" y2="250.43"/><line class="f" x1="304.73" y1="250.43" x2="303.36" y2="250.43"/><line class="f" x1="303.36" y1="251.11" x2="300.61" y2="251.11"/><line class="f" x1="300.61" y1="251.11" x2="300.61" y2="248.38"/><line class="f" x1="300.61" y1="248.38" x2="303.36" y2="248.38"/><line class="f" x1="303.36" y1="248.38" x2="303.36" y2="251.11"/><line class="f" x1="528.04" y1="254.52" x2="473.16" y2="254.52"/><line class="f" x1="473.16" y1="254.52" x2="438.86" y2="254.52"/><line class="f" x1="526.33" y1="240.88" x2="471.44" y2="240.88"/><line class="f" x1="473.16" y1="254.52" x2="473.16" y2="247.7"/><line class="f" x1="471.44" y1="247.7" x2="471.44" y2="240.88"/><line class="f" x1="471.44" y1="244.29" x2="440.57" y2="244.29"/><line class="f" x1="470.41" y1="248.38" x2="470.41" y2="247.7"/><line class="f" x1="470.41" y1="247.7" x2="473.16" y2="247.7"/><line class="f" x1="473.16" y1="247.7" x2="473.16" y2="250.43"/><line class="f" x1="473.16" y1="250.43" x2="471.79" y2="250.43"/><line class="f" x1="471.79" y1="251.11" x2="469.04" y2="251.11"/><line class="f" x1="469.04" y1="251.11" x2="469.04" y2="248.38"/><line class="f" x1="469.04" y1="248.38" x2="471.79" y2="248.38"/><line class="f" x1="471.79" y1="248.38" x2="471.79" y2="251.11"/><line class="f" x1="440.23" y1="251.11" x2="442.97" y2="251.11"/><line class="f" x1="442.97" y1="251.11" x2="442.97" y2="248.38"/><line class="f" x1="442.97" y1="248.38" x2="440.23" y2="248.38"/><line class="f" x1="440.23" y1="248.38" x2="440.23" y2="251.11"/><line class="f" x1="469.04" y1="251.11" x2="442.97" y2="251.11"/><line class="f" x1="442.97" y1="248.38" x2="469.04" y2="248.38"/><line class="f" x1="469.04" y1="249.75" x2="442.97" y2="249.75"/><line class="f" x1="441.6" y1="248.38" x2="441.6" y2="247.7"/><line class="f" x1="441.6" y1="247.7" x2="438.86" y2="247.7"/><line class="f" x1="438.86" y1="247.7" x2="438.86" y2="250.43"/><line class="f" x1="438.86" y1="250.43" x2="440.23" y2="250.43"/><line class="f" x1="473.16" y1="250.43" x2="475.9" y2="250.43"/><line class="f" x1="475.9" y1="250.43" x2="475.9" y2="247.7"/><line class="f" x1="475.9" y1="247.7" x2="473.16" y2="247.7"/><line class="f" x1="473.16" y1="247.7" x2="473.16" y2="250.43"/><line class="f" x1="475.9" y1="250.43" x2="499.23" y2="250.43"/><line class="f" x1="475.9" y1="249.06" x2="499.23" y2="249.06"/><line class="f" x1="475.9" y1="247.7" x2="499.23" y2="247.7"/><line class="f" x1="525.3" y1="248.38" x2="525.3" y2="247.7"/><line class="f" x1="525.3" y1="247.7" x2="528.04" y2="247.7"/><line class="f" x1="528.04" y1="247.7" x2="528.04" y2="250.43"/><line class="f" x1="528.04" y1="250.43" x2="526.67" y2="250.43"/><line class="f" x1="526.67" y1="251.11" x2="523.93" y2="251.11"/><line class="f" x1="523.93" y1="251.11" x2="523.93" y2="248.38"/><line class="f" x1="523.93" y1="248.38" x2="526.67" y2="248.38"/><line class="f" x1="526.67" y1="248.38" x2="526.67" y2="251.11"/><line class="f" x1="523.93" y1="251.11" x2="503.34" y2="251.11"/><line class="f" x1="503.34" y1="248.38" x2="523.93" y2="248.38"/><line class="f" x1="523.93" y1="249.75" x2="503.34" y2="249.75"/><line class="f" x1="501.97" y1="248.38" x2="501.97" y2="247.7"/><line class="f" x1="501.97" y1="247.7" x2="499.23" y2="247.7"/><line class="f" x1="499.23" y1="247.7" x2="499.23" y2="250.43"/><line class="f" x1="499.23" y1="250.43" x2="500.6" y2="250.43"/><line class="f" x1="500.6" y1="251.11" x2="503.35" y2="251.11"/><line class="f" x1="503.34" y1="251.11" x2="503.34" y2="248.38"/><line class="f" x1="503.34" y1="248.38" x2="500.6" y2="248.38"/><line class="f" x1="500.6" y1="248.38" x2="500.6" y2="251.11"/><line class="f" x1="249.16" y1="254.52" x2="249.16" y2="423.62"/><line class="f" x1="549.65" y1="431.8" x2="424.79" y2="431.8"/><line class="f" x1="549.65" y1="423.62" x2="549.65" y2="423.62"/><line class="f" x1="541.42" y1="254.52" x2="541.42" y2="356.46"/><line class="f" x1="549.65" y1="254.52" x2="549.65" y2="260.52"/><line class="f" x1="549.65" y1="370.78" x2="549.65" y2="403.17"/><line class="f" x1="549.65" y1="406.57" x2="549.65" y2="423.62"/><line class="f" x1="549.65" y1="370.78" x2="549.65" y2="370.78"/><line class="f" x1="249.16" y1="431.8" x2="249.16" y2="431.8"/><line class="f" x1="369.91" y1="423.62" x2="383.63" y2="423.62"/><line class="f" x1="369.91" y1="409.98" x2="383.63" y2="409.98"/><line class="f" x1="369.91" y1="406.57" x2="387.06" y2="406.57"/><line class="f" x1="390.49" y1="356.46" x2="416.22" y2="356.46"/><line class="f" x1="369.91" y1="358.84" x2="416.22" y2="358.84"/><line class="f" x1="447.09" y1="358.84" x2="452.23" y2="358.84"/><line class="f" x1="390.49" y1="254.52" x2="390.49" y2="356.46"/><line class="f" x1="388.09" y1="254.52" x2="388.09" y2="356.46"/><line class="f" x1="369.91" y1="358.84" x2="369.91" y2="369.07"/><line class="f" x1="367.51" y1="399.76" x2="367.51" y2="403.17"/><line class="f" x1="367.51" y1="406.57" x2="367.51" y2="423.62"/><line class="f" x1="367.51" y1="356.46" x2="367.51" y2="369.07"/><line class="f" x1="367.51" y1="369.07" x2="369.91" y2="369.07"/><line class="f" x1="447.09" y1="358.84" x2="447.09" y2="356.46"/><line class="f" x1="416.22" y1="358.84" x2="416.22" y2="356.46"/><line class="f" x1="388.77" y1="427.88" x2="388.77" y2="431.8"/><line class="f" x1="423.08" y1="427.88" x2="423.08" y2="431.8"/><line class="f" x1="423.08" y1="427.88" x2="424.79" y2="427.88"/><line class="f" x1="388.77" y1="427.88" x2="387.06" y2="427.88"/><line class="f" x1="387.06" y1="427.88" x2="387.06" y2="423.62"/><line class="f" x1="424.79" y1="427.88" x2="424.79" y2="423.62"/><line class="f" x1="387.06" y1="431.8" x2="249.16" y2="431.8"/><line class="f" x1="345.89" y1="423.62" x2="249.16" y2="423.62"/><line class="f" x1="367.51" y1="406.57" x2="349.33" y2="406.57"/><line class="f" x1="349.32" y1="406.57" x2="349.32" y2="423.62"/><line class="f" x1="367.51" y1="403.17" x2="345.89" y2="403.17"/><line class="f" x1="345.89" y1="403.17" x2="345.89" y2="423.62"/><line class="f" x1="541.42" y1="358.84" x2="454.64" y2="358.84"/><line class="f" x1="541.42" y1="356.46" x2="447.09" y2="356.46"/><line class="f" x1="454.64" y1="358.84" x2="454.64" y2="367.37"/><line class="f" x1="454.64" y1="394.64" x2="454.64" y2="423.62"/><line class="f" x1="452.23" y1="358.84" x2="452.23" y2="367.37"/><line class="f" x1="452.23" y1="367.37" x2="454.63" y2="367.37"/><line class="f" x1="452.23" y1="394.64" x2="454.63" y2="394.64"/><line class="f" x1="452.23" y1="394.64" x2="452.23" y2="423.62"/><line class="f" x1="423.08" y1="431.8" x2="424.79" y2="431.8"/><line class="f" x1="388.77" y1="431.8" x2="387.06" y2="431.8"/><line class="f" x1="367.51" y1="399.76" x2="369.91" y2="399.76"/><line class="f" x1="369.91" y1="399.76" x2="369.91" y2="406.58"/><line class="f" x1="369.91" y1="409.98" x2="369.91" y2="423.62"/><line class="f" x1="367.51" y1="423.62" x2="349.33" y2="423.62"/><line class="f" x1="388.09" y1="356.46" x2="367.51" y2="356.46"/><line class="f" x1="383.63" y1="423.62" x2="383.63" y2="409.98"/><line class="f" x1="387.06" y1="423.62" x2="387.06" y2="406.57"/><line class="f" x1="363.73" y1="251.11" x2="363.73" y2="282.48"/><g class="g"><path class="f" d="M363.73,282.48a31.47,31.47,0,0,1-31.56-31.37"/></g><line class="f" x1="440.23" y1="251.11" x2="440.23" y2="282.48"/><g class="g"><path class="f" d="M471.79,251.11a31.47,31.47,0,0,1-31.56,31.37"/></g><line class="f" x1="452.23" y1="423.62" x2="424.79" y2="423.62"/><line class="f" x1="324.97" y1="423.28" x2="324.97" y2="402.82"/><line class="f" x1="332.84" y1="410.64" x2="337.69" y2="415.46"/><line class="f" x1="337.69" y1="410.64" x2="332.84" y2="415.46"/><line class="f" x1="335.26" y1="416.46" x2="335.26" y2="409.64"/><line class="f" x1="331.83" y1="413.05" x2="338.69" y2="413.05"/><line class="f" x1="324.97" y1="402.82" x2="345.55" y2="402.82"/><line class="f" x1="324.11" y1="404.53" x2="305.25" y2="404.53"/><line class="f" x1="305.25" y1="404.53" x2="305.25" y2="421.58"/><line class="f" x1="305.25" y1="421.58" x2="324.11" y2="421.58"/><line class="f" x1="324.11" y1="421.58" x2="324.11" y2="404.53"/><line class="f" x1="324.97" y1="402.82" x2="304.39" y2="402.82"/><line class="f" x1="322.4" y1="406.23" x2="306.96" y2="406.23"/><line class="f" x1="306.96" y1="406.23" x2="306.96" y2="418.17"/><line class="f" x1="306.96" y1="418.17" x2="322.4" y2="418.17"/><line class="f" x1="322.4" y1="418.17" x2="322.4" y2="406.23"/><g class="g"><path class="f" d="M315.36,414.76a.67.67,0,0,0-.68-.68.68.68,0,1,0,.68.68"/></g><line class="f" x1="304.39" y1="423.28" x2="304.39" y2="402.82"/><line class="f" x1="304.39" y1="402.82" x2="283.81" y2="402.82"/><line class="f" x1="283.81" y1="402.82" x2="283.81" y2="423.28"/><line class="f" x1="270.08" y1="402.82" x2="270.08" y2="382.37"/><line class="f" x1="270.08" y1="382.37" x2="249.16" y2="382.37"/><line class="f" x1="249.16" y1="382.37" x2="249.16" y2="402.82"/><line class="f" x1="249.16" y1="402.82" x2="270.09" y2="402.82"/><g class="g"><path class="f" d="M265.8,392.6a6,6,0,1,0-6,6,6,6,0,0,0,6-6"/><path class="f" d="M264.77,392.6a5,5,0,1,0-5,4.94,5,5,0,0,0,5-4.94"/><path class="f" d="M258.11,377.16a3.37,3.37,0,1,0-3.37,3.35,3.36,3.36,0,0,0,3.37-3.35"/></g><line class="f" x1="249.5" y1="382.37" x2="270.08" y2="382.37"/><line class="f" x1="270.08" y1="382.37" x2="270.08" y2="361.91"/><line class="f" x1="270.08" y1="361.91" x2="249.5" y2="361.91"/><g class="g"><path class="f" d="M268.21,377.16a3.37,3.37,0,1,0-3.36,3.35,3.35,3.35,0,0,0,3.36-3.35"/><path class="f" d="M268.21,367.12a3.37,3.37,0,1,0-3.36,3.35,3.35,3.35,0,0,0,3.36-3.35"/></g><line class="f" x1="271.02" y1="364.7" x2="271.02" y2="379.58"/><line class="f" x1="345.89" y1="423.62" x2="345.89" y2="402.82"/><line class="f" x1="345.89" y1="402.82" x2="270.08" y2="402.82"/><line class="f" x1="270.08" y1="402.82" x2="270.08" y2="351.68"/><line class="f" x1="270.08" y1="351.69" x2="249.16" y2="351.69"/><line class="f" x1="249.16" y1="351.69" x2="249.16" y2="423.62"/><line class="f" x1="249.16" y1="423.62" x2="345.9" y2="423.62"/><line class="f" x1="549.65" y1="403.17" x2="549.65" y2="403.17"/><line class="f" x1="549.65" y1="406.57" x2="549.65" y2="406.57"/><line class="f" x1="513.98" y1="418.51" x2="454.63" y2="418.51"/><line class="f" x1="507.46" y1="359.7" x2="507.46" y2="363.11"/><line class="f" x1="507.46" y1="363.11" x2="486.88" y2="363.11"/><line class="f" x1="486.88" y1="363.11" x2="486.88" y2="359.7"/><line class="f" x1="486.88" y1="359.7" x2="487.91" y2="359.7"/><line class="f" x1="487.91" y1="359.7" x2="487.91" y2="362.08"/><line class="f" x1="487.91" y1="362.08" x2="506.43" y2="362.08"/><line class="f" x1="506.43" y1="362.08" x2="506.43" y2="359.7"/><line class="f" x1="506.43" y1="359.7" x2="507.46" y2="359.7"/><line class="f" x1="507.46" y1="359.7" x2="507.46" y2="363.11"/><line class="f" x1="486.88" y1="359.7" x2="486.88" y2="363.11"/><line class="f" x1="506.43" y1="359.7" x2="506.43" y2="362.08"/><line class="f" x1="487.91" y1="359.7" x2="487.91" y2="362.08"/><line class="f" x1="507.46" y1="363.11" x2="486.88" y2="363.11"/><line class="f" x1="507.46" y1="362.08" x2="486.88" y2="362.08"/><line class="f" x1="507.46" y1="359.7" x2="506.43" y2="359.7"/><line class="f" x1="487.91" y1="359.7" x2="486.88" y2="359.7"/><g class="g"><path class="f" d="M536.28,395.49a.86.86,0,1,0-.86.86.86.86,0,0,0,.86-.86"/></g><line class="f" x1="513.12" y1="400.61" x2="513.12" y2="359.7"/><line class="f" x1="513.12" y1="359.7" x2="540.57" y2="359.7"/><line class="f" x1="540.56" y1="359.7" x2="540.56" y2="400.61"/><line class="f" x1="540.56" y1="400.61" x2="513.12" y2="400.61"/><line class="f" x1="514.84" y1="395.49" x2="514.84" y2="364.81"/><line class="f" x1="518.27" y1="361.4" x2="535.42" y2="361.4"/><line class="f" x1="538.85" y1="364.81" x2="538.85" y2="395.49"/><line class="f" x1="535.42" y1="398.9" x2="518.27" y2="398.9"/><g class="g"><path class="f" d="M518.27,398.9a3.41,3.41,0,0,1-3.43-3.41"/><path class="f" d="M514.84,364.81a3.42,3.42,0,0,1,3.43-3.41"/><path class="f" d="M538.85,395.49a3.42,3.42,0,0,1-3.43,3.41"/><path class="f" d="M535.42,361.4a3.42,3.42,0,0,1,3.43,3.41"/></g><line class="f" x1="517.41" y1="404.87" x2="517.41" y2="423.62"/><line class="f" x1="517.41" y1="423.62" x2="541.42" y2="423.62"/><line class="f" x1="541.42" y1="423.62" x2="541.42" y2="404.87"/><line class="f" x1="541.42" y1="404.87" x2="517.41" y2="404.87"/><line class="f" x1="541.42" y1="401.46" x2="513.98" y2="401.46"/><line class="f" x1="513.98" y1="401.46" x2="513.98" y2="423.62"/><line class="f" x1="541.42" y1="401.46" x2="541.42" y2="358.84"/><line class="f" x1="513.98" y1="404.93" x2="513.98" y2="401.52"/><line class="f" x1="513.98" y1="423.62" x2="454.63" y2="423.62"/><line class="f" x1="367.51" y1="406.57" x2="367.51" y2="403.17"/><line class="f" x1="417.93" y1="356.46" x2="445.37" y2="356.46"/><line class="f" x1="417.93" y1="356.46" x2="417.93" y2="329.18"/><g class="g"><path class="f" d="M417.93,329.18a27.35,27.35,0,0,1,27.44,27.28"/></g><line class="f" x1="417.93" y1="358.84" x2="417.93" y2="356.46"/><line class="f" x1="445.37" y1="356.46" x2="445.37" y2="358.84"/><line class="f" x1="445.37" y1="356.46" x2="447.09" y2="356.46"/><line class="f" x1="445.37" y1="358.84" x2="447.09" y2="358.84"/><line class="f" x1="416.22" y1="356.46" x2="417.93" y2="356.46"/><line class="f" x1="416.22" y1="358.84" x2="417.93" y2="358.84"/><line class="f" x1="417.93" y1="358.84" x2="424.79" y2="358.84"/><line class="f" x1="428.56" y1="358.84" x2="429.34" y2="358.84"/><line class="f" x1="433.11" y1="358.84" x2="433.88" y2="358.84"/><line class="f" x1="437.66" y1="358.84" x2="438.51" y2="358.84"/><line class="f" x1="438.51" y1="358.84" x2="445.37" y2="358.84"/><line class="f" x1="417.93" y1="356.46" x2="417.93" y2="355.61"/><line class="f" x1="417.93" y1="355.61" x2="414.5" y2="355.61"/><line class="f" x1="414.5" y1="355.61" x2="414.5" y2="356.46"/><line class="f" x1="417.93" y1="358.84" x2="417.93" y2="359.7"/><line class="f" x1="417.93" y1="359.7" x2="414.5" y2="359.7"/><line class="f" x1="414.5" y1="359.7" x2="414.5" y2="358.84"/><line class="f" x1="445.37" y1="355.61" x2="448.8" y2="355.61"/><line class="f" x1="448.8" y1="355.61" x2="448.8" y2="356.46"/><line class="f" x1="445.37" y1="358.84" x2="445.37" y2="359.7"/><line class="f" x1="445.37" y1="359.7" x2="448.8" y2="359.7"/><line class="f" x1="448.8" y1="359.7" x2="448.8" y2="358.84"/><line class="f" x1="452.23" y1="392.94" x2="452.23" y2="369.07"/><line class="f" x1="452.23" y1="392.94" x2="428.22" y2="392.94"/><g class="g"><path class="f" d="M428.22,392.94a23.94,23.94,0,0,1,24-23.87"/></g><line class="f" x1="454.64" y1="392.94" x2="452.23" y2="392.94"/><line class="f" x1="452.23" y1="369.07" x2="454.63" y2="369.07"/><line class="f" x1="452.23" y1="369.07" x2="452.23" y2="367.37"/><line class="f" x1="454.64" y1="369.07" x2="454.64" y2="367.37"/><line class="f" x1="452.23" y1="394.64" x2="452.23" y2="392.94"/><line class="f" x1="454.64" y1="394.64" x2="454.64" y2="392.94"/><line class="f" x1="454.64" y1="392.94" x2="454.64" y2="386.12"/><line class="f" x1="454.64" y1="382.37" x2="454.64" y2="381.6"/><line class="f" x1="454.64" y1="377.85" x2="454.64" y2="377.08"/><line class="f" x1="454.64" y1="375.89" x2="454.64" y2="369.07"/><line class="f" x1="452.23" y1="392.94" x2="451.38" y2="392.94"/><line class="f" x1="451.38" y1="392.94" x2="451.38" y2="396.35"/><line class="f" x1="451.38" y1="396.35" x2="452.23" y2="396.35"/><line class="f" x1="454.64" y1="392.94" x2="455.49" y2="392.94"/><line class="f" x1="455.49" y1="392.94" x2="455.49" y2="396.35"/><line class="f" x1="455.49" y1="396.35" x2="454.64" y2="396.35"/><line class="f" x1="451.38" y1="369.07" x2="451.38" y2="365.66"/><line class="f" x1="451.38" y1="365.66" x2="452.23" y2="365.66"/><line class="f" x1="454.64" y1="369.07" x2="455.49" y2="369.07"/><line class="f" x1="455.49" y1="369.07" x2="455.49" y2="365.66"/><line class="f" x1="455.49" y1="365.66" x2="454.64" y2="365.66"/><line class="f" x1="390.49" y1="427.88" x2="421.36" y2="427.88"/><line class="f" x1="390.49" y1="427.88" x2="390.49" y2="397.2"/><g class="g"><path class="f" d="M390.49,397.2a30.78,30.78,0,0,1,30.87,30.68"/></g><line class="f" x1="390.49" y1="431.8" x2="390.49" y2="427.88"/><line class="f" x1="421.36" y1="427.88" x2="421.36" y2="431.8"/><line class="f" x1="421.36" y1="427.88" x2="423.08" y2="427.88"/><line class="f" x1="388.77" y1="427.88" x2="390.49" y2="427.88"/><line class="f" x1="367.51" y1="398.05" x2="367.51" y2="370.78"/><line class="f" x1="367.51" y1="398.05" x2="340.06" y2="398.05"/><g class="g"><path class="f" d="M340.06,398.05a27.36,27.36,0,0,1,27.45-27.27"/></g><line class="f" x1="369.91" y1="398.05" x2="367.51" y2="398.05"/><line class="f" x1="367.51" y1="370.78" x2="369.91" y2="370.78"/><line class="f" x1="367.51" y1="370.78" x2="367.51" y2="369.07"/><line class="f" x1="369.91" y1="370.78" x2="369.91" y2="369.07"/><line class="f" x1="367.51" y1="399.76" x2="367.51" y2="398.05"/><line class="f" x1="369.91" y1="399.76" x2="369.91" y2="398.05"/><line class="f" x1="369.91" y1="398.05" x2="369.91" y2="391.23"/><line class="f" x1="369.91" y1="387.48" x2="369.91" y2="386.72"/><line class="f" x1="369.91" y1="382.97" x2="369.91" y2="382.2"/><line class="f" x1="369.91" y1="378.45" x2="369.91" y2="377.6"/><line class="f" x1="369.91" y1="377.6" x2="369.91" y2="370.78"/><line class="f" x1="367.51" y1="398.05" x2="366.65" y2="398.05"/><line class="f" x1="366.65" y1="398.05" x2="366.65" y2="401.46"/><line class="f" x1="366.65" y1="401.46" x2="367.5" y2="401.46"/><line class="f" x1="369.91" y1="398.05" x2="370.76" y2="398.05"/><line class="f" x1="370.76" y1="398.05" x2="370.76" y2="401.46"/><line class="f" x1="370.76" y1="401.46" x2="369.91" y2="401.46"/><line class="f" x1="366.65" y1="370.78" x2="366.65" y2="367.37"/><line class="f" x1="366.65" y1="367.37" x2="367.5" y2="367.37"/><line class="f" x1="369.91" y1="370.78" x2="370.76" y2="370.78"/><line class="f" x1="370.76" y1="370.78" x2="370.76" y2="367.37"/><line class="f" x1="370.76" y1="367.37" x2="369.91" y2="367.37"/><line class="f" x1="510.89" y1="256.22" x2="483.45" y2="256.22"/><line class="f" x1="483.45" y1="256.22" x2="483.45" y2="258.37"/><line class="f" x1="483.45" y1="258.37" x2="510.89" y2="258.37"/><line class="f" x1="510.89" y1="258.37" x2="510.89" y2="256.22"/><line class="f" x1="323.94" y1="256.22" x2="275.92" y2="256.22"/><line class="f" x1="275.92" y1="256.22" x2="275.92" y2="259.63"/><line class="f" x1="275.92" y1="259.63" x2="323.94" y2="259.63"/><line class="f" x1="323.94" y1="259.63" x2="323.94" y2="256.23"/><g class="g"><path class="f" d="M329.09,257.93a1.72,1.72,0,1,0-1.72,1.7,1.71,1.71,0,0,0,1.72-1.7"/><path class="f" d="M516,257.3a1.72,1.72,0,1,0-1.72,1.7,1.72,1.72,0,0,0,1.72-1.7"/></g><line class="f" x1="363.39" y1="240.88" x2="356.53" y2="240.88"/><line class="f" x1="352.76" y1="240.88" x2="351.98" y2="240.88"/><line class="f" x1="348.21" y1="240.88" x2="347.44" y2="240.88"/><line class="f" x1="343.66" y1="240.88" x2="339.38" y2="240.88"/><line class="f" x1="339.38" y1="240.88" x2="332.52" y2="240.88"/><line class="f" x1="471.44" y1="240.88" x2="464.58" y2="240.88"/><line class="f" x1="460.81" y1="240.88" x2="460.04" y2="240.88"/><line class="f" x1="456.26" y1="240.88" x2="455.49" y2="240.88"/><line class="f" x1="451.72" y1="240.88" x2="447.43" y2="240.88"/><line class="f" x1="447.43" y1="240.88" x2="440.57" y2="240.88"/><line class="f" x1="349.32" y1="423.62" x2="367.5" y2="423.62"/><line class="f" x1="367.51" y1="423.62" x2="367.51" y2="406.57"/><line class="f" x1="367.51" y1="406.57" x2="364.08" y2="420.21"/><line class="f" x1="364.08" y1="420.21" x2="349.32" y2="423.62"/><line class="f" x1="549.65" y1="423.62" x2="549.65" y2="423.62"/><line class="f" x1="549.65" y1="423.62" x2="549.65" y2="423.62"/><line class="f" x1="517.88" y1="423.62" x2="537.67" y2="420.2"/><line class="f" x1="537.68" y1="420.2" x2="541.42" y2="404.87"/><line class="f" x1="541.42" y1="404.87" x2="541.42" y2="423.62"/><line class="f" x1="541.42" y1="423.62" x2="517.88" y2="423.62"/><line class="f" x1="369.91" y1="423.62" x2="383.63" y2="423.62"/><line class="f" x1="383.63" y1="423.62" x2="383.63" y2="409.98"/><line class="f" x1="383.63" y1="409.98" x2="380.2" y2="420.21"/><line class="f" x1="380.2" y1="420.21" x2="369.91" y2="423.62"/><rect class="d" x="288.61" y="295.43" width="17.15" height="27.27"/><line class="f" x1="288.61" y1="322.71" x2="305.76" y2="322.71"/><line class="f" x1="288.61" y1="295.43" x2="288.61" y2="322.71"/><line class="f" x1="305.76" y1="295.43" x2="288.61" y2="295.43"/><line class="f" x1="305.76" y1="322.71" x2="305.76" y2="295.43"/><rect class="d" x="454.63" y="418.51" width="59.34" height="5.12"/><line class="f" x1="513.98" y1="423.62" x2="454.63" y2="423.62"/><line class="f" x1="454.64" y1="423.62" x2="454.64" y2="418.51"/><line class="f" x1="454.64" y1="418.51" x2="513.98" y2="418.51"/><line class="f" x1="513.98" y1="418.51" x2="513.98" y2="423.62"/><rect class="d" x="506.43" y="359.7" width="1.03" height="2.39"/><line class="f" x1="506.43" y1="362.08" x2="507.46" y2="362.08"/><line class="f" x1="506.43" y1="359.7" x2="506.43" y2="362.08"/><line class="f" x1="507.46" y1="359.7" x2="506.43" y2="359.7"/><line class="f" x1="507.46" y1="362.08" x2="507.46" y2="359.7"/><rect class="d" x="486.88" y="362.08" width="20.58" height="1.02"/><line class="f" x1="507.46" y1="362.08" x2="486.88" y2="362.08"/><line class="f" x1="507.46" y1="363.11" x2="507.46" y2="362.08"/><line class="f" x1="486.88" y1="363.11" x2="507.46" y2="363.11"/><line class="f" x1="486.88" y1="362.08" x2="486.88" y2="363.11"/><rect class="d" x="486.88" y="359.7" width="1.03" height="2.39"/><line class="f" x1="486.88" y1="362.08" x2="487.91" y2="362.08"/><line class="f" x1="486.88" y1="359.7" x2="486.88" y2="362.08"/><line class="f" x1="487.91" y1="359.7" x2="486.88" y2="359.7"/><line class="f" x1="487.91" y1="362.08" x2="487.91" y2="359.7"/><rect class="d" x="369.91" y="358.84" width="43.22" height="7.16"/><line class="f" x1="413.13" y1="366" x2="369.91" y2="366"/><line class="f" x1="369.91" y1="366" x2="369.91" y2="358.84"/><line class="f" x1="369.91" y1="358.84" x2="413.13" y2="358.84"/><line class="f" x1="413.13" y1="358.84" x2="413.13" y2="366"/><polygon class="d" points="513.11 258.5 512.61 257.3 513.11 256.09 514.32 255.59 515.53 256.09 516.04 257.3 515.53 258.5 514.32 259 513.11 258.5"/><g class="g"><path class="f" d="M516,257.3a1.72,1.72,0,0,1-3.43,0"/><path class="f" d="M512.61,257.3a1.72,1.72,0,0,1,3.43,0"/></g><rect class="d" x="483.45" y="256.22" width="27.44" height="2.15"/><line class="f" x1="510.89" y1="258.37" x2="510.89" y2="256.22"/><line class="f" x1="483.45" y1="258.37" x2="510.89" y2="258.37"/><line class="f" x1="483.45" y1="256.22" x2="483.45" y2="258.37"/><line class="f" x1="510.89" y1="256.22" x2="483.45" y2="256.22"/><rect class="d" x="275.92" y="256.22" width="48.02" height="3.41"/><line class="f" x1="323.94" y1="256.22" x2="275.92" y2="256.22"/><line class="f" x1="323.94" y1="259.63" x2="323.94" y2="256.23"/><line class="f" x1="275.92" y1="259.63" x2="323.94" y2="259.63"/><line class="f" x1="275.92" y1="256.22" x2="275.92" y2="259.63"/><polygon class="d" points="326.16 259.13 325.66 257.93 326.16 256.73 327.37 256.23 328.58 256.73 329.08 257.93 328.58 259.13 327.37 259.63 326.16 259.13"/><g class="g"><path class="f" d="M329.09,257.93a1.72,1.72,0,0,1-3.43,0"/><path class="f" d="M325.66,257.93a1.72,1.72,0,0,1,3.43,0"/></g><rect class="d" x="372.65" y="254.52" width="15.44" height="101.94"/><line class="f" x1="388.09" y1="356.46" x2="372.65" y2="356.46"/><line class="f" x1="372.65" y1="356.46" x2="372.65" y2="254.52"/><line class="f" x1="372.65" y1="254.52" x2="388.09" y2="254.52"/><line class="f" x1="388.09" y1="254.52" x2="388.09" y2="356.46"/><polygon class="d" points="531.13 335.66 479.68 335.66 477.05 335.14 474.83 333.66 473.34 331.45 472.81 328.84 472.81 281.11 473.34 278.5 474.83 276.29 477.05 274.81 479.68 274.29 541.42 274.29 541.42 335.66 531.13 335.66"/><rect class="d" x="531.13" y="262.36" width="10.29" height="11.93"/><rect class="d" x="531.13" y="335.66" width="10.29" height="11.93"/><line class="f" x1="530.02" y1="306.91" x2="532.98" y2="307.72"/><line class="f" x1="530.02" y1="278.28" x2="532.98" y2="279.1"/><line class="f" x1="472.82" y1="328.84" x2="472.82" y2="281.11"/><line class="f" x1="479.68" y1="274.29" x2="541.42" y2="274.29"/><line class="f" x1="541.42" y1="274.29" x2="541.42" y2="335.66"/><line class="f" x1="541.42" y1="335.66" x2="479.68" y2="335.66"/><line class="f" x1="541.42" y1="274.29" x2="541.42" y2="262.36"/><line class="f" x1="541.42" y1="262.36" x2="531.13" y2="262.36"/><line class="f" x1="531.13" y1="262.36" x2="531.13" y2="274.29"/><line class="f" x1="531.13" y1="274.29" x2="541.42" y2="274.29"/><line class="f" x1="541.42" y1="347.59" x2="541.42" y2="335.66"/><line class="f" x1="541.42" y1="335.66" x2="531.13" y2="335.66"/><line class="f" x1="531.13" y1="335.66" x2="531.13" y2="347.59"/><line class="f" x1="531.13" y1="347.59" x2="541.42" y2="347.59"/><line class="f" x1="518.6" y1="274.29" x2="518.6" y2="335.66"/><line class="f" x1="513.45" y1="274.29" x2="513.45" y2="335.66"/><g class="g"><path class="f" d="M524.14,280.17c.32,3.21.49,6.43.49,9.66a95.88,95.88,0,0,1-.83,12.56"/><path class="f" d="M524.14,280.17a1.72,1.72,0,0,1,0-.39,1.83,1.83,0,0,1,1.83-1.83H526"/><path class="f" d="M526,278c.27,0,.55,0,.82,0a14.82,14.82,0,0,1,3.18.35"/><path class="f" d="M530,278.28c1.71-.17,3.44-.25,5.17-.25q1.24,0,2.49.06"/><path class="f" d="M537.68,278.09l.11,0a.39.39,0,0,1,.39.39.25.25,0,0,1,0,.08"/><path class="f" d="M537.83,302.46q-.23-4.62-.22-9.26,0-7.33.56-14.66"/><path class="f" d="M537.83,302.46a1.5,1.5,0,0,1,0,.2.94.94,0,0,1-1,.95.81.81,0,0,1-.31-.05"/><path class="f" d="M524.77,303.38a47.92,47.92,0,0,1,5.22-.29,46.82,46.82,0,0,1,6.6.47"/><path class="f" d="M524.77,303.38a.83.83,0,0,1-.22,0,.78.78,0,0,1-.79-.78.67.67,0,0,1,0-.24"/><path class="f" d="M472.82,281.11a6.84,6.84,0,0,1,6.86-6.82"/><path class="f" d="M479.68,335.66a6.84,6.84,0,0,1-6.86-6.82"/><path class="f" d="M524.14,308.8c.32,3.21.49,6.43.49,9.66A96,96,0,0,1,523.8,331"/><path class="f" d="M524.14,308.8a1.72,1.72,0,0,1,0-.39,1.83,1.83,0,0,1,1.83-1.83H526"/><path class="f" d="M526,306.58l.82,0a14.82,14.82,0,0,1,3.18.35"/><path class="f" d="M530,306.91c1.71-.17,3.44-.25,5.17-.25.83,0,1.66,0,2.49,0"/><path class="f" d="M537.68,306.71h.11a.39.39,0,0,1,.39.38.19.19,0,0,1,0,.08"/><path class="f" d="M537.83,331.09c-.15-3.09-.22-6.17-.22-9.26q0-7.33.56-14.67"/><path class="f" d="M537.83,331.09a1.23,1.23,0,0,1,0,.2.94.94,0,0,1-1,.95,1.06,1.06,0,0,1-.31-.05"/><path class="f" d="M524.77,332a45.59,45.59,0,0,1,11.82.18"/><path class="f" d="M524.77,332a.83.83,0,0,1-.22,0,.78.78,0,0,1-.79-.78.64.64,0,0,1,0-.24"/></g><polygon class="d" points="253.28 332.93 252.79 332.74 252.59 332.25 252.59 262.02 252.79 261.54 253.28 261.34 281.06 261.34 281.51 261.49 281.78 261.89 281.75 262.36 281.75 287.59 281.69 288.31 281.06 288.67 281.56 289.05 281.75 289.64 281.75 326.8 281.56 327.41 281.06 327.82 281.55 328.02 281.75 328.5 281.75 329.52 281.29 331.23 280.03 332.48 278.32 332.93 253.28 332.93"/><polygon class="d" points="282.78 288.61 282.05 288.31 281.75 287.59 281.75 262.36 282.05 261.64 282.78 261.34 304.04 261.34 306.67 261.86 308.9 263.33 310.38 265.55 310.9 268.16 310.9 281.79 310.38 284.4 308.9 286.62 306.67 288.09 304.04 288.61 282.78 288.61"/><line class="f" x1="282.78" y1="288.61" x2="304.04" y2="288.61"/><g class="g"><path class="f" d="M282.78,288.61a1,1,0,0,1-1-1"/></g><line class="f" x1="281.75" y1="262.36" x2="281.75" y2="287.59"/><g class="g"><path class="f" d="M281.75,262.36a1,1,0,0,1,1-1"/></g><line class="f" x1="304.04" y1="261.34" x2="282.78" y2="261.34"/><g class="g"><path class="f" d="M304,261.34a6.85,6.85,0,0,1,6.87,6.82"/></g><line class="f" x1="310.91" y1="281.79" x2="310.91" y2="268.16"/><g class="g"><path class="f" d="M310.91,281.79a6.85,6.85,0,0,1-6.87,6.82"/></g><line class="f" x1="281.75" y1="328.5" x2="281.75" y2="329.52"/><line class="f" x1="278.32" y1="332.93" x2="253.28" y2="332.93"/><line class="f" x1="252.59" y1="332.25" x2="252.59" y2="328.5"/><line class="f" x1="253.28" y1="327.82" x2="281.06" y2="327.82"/><line class="f" x1="252.59" y1="328.5" x2="252.59" y2="288.61"/><line class="f" x1="252.59" y1="288.61" x2="254.99" y2="288.61"/><line class="f" x1="281.75" y1="289.64" x2="281.75" y2="326.8"/><line class="f" x1="280.72" y1="327.82" x2="263.52" y2="327.82"/><line class="f" x1="263.52" y1="288.61" x2="280.72" y2="288.61"/><line class="f" x1="254.99" y1="327.82" x2="261.46" y2="327.82"/><line class="f" x1="261.46" y1="288.61" x2="254.99" y2="288.61"/><line class="f" x1="281.75" y1="265.77" x2="281.75" y2="262.02"/><line class="f" x1="281.06" y1="261.34" x2="253.28" y2="261.34"/><line class="f" x1="252.59" y1="262.02" x2="252.59" y2="265.77"/><line class="f" x1="252.59" y1="265.77" x2="252.59" y2="288.61"/><line class="f" x1="252.59" y1="288.61" x2="254.99" y2="288.61"/><line class="f" x1="281.75" y1="287.59" x2="281.75" y2="267.48"/><line class="f" x1="263.52" y1="288.61" x2="280.72" y2="288.61"/><line class="f" x1="263.52" y1="288.61" x2="254.99" y2="288.61"/><line class="f" x1="310.91" y1="281.79" x2="310.91" y2="268.16"/><line class="f" x1="304.04" y1="261.34" x2="282.78" y2="261.34"/><line class="f" x1="281.75" y1="262.36" x2="281.75" y2="287.59"/><line class="f" x1="282.78" y1="288.61" x2="304.04" y2="288.61"/><line class="f" x1="253.96" y1="287.59" x2="253.96" y2="262.36"/><line class="f" x1="253.96" y1="289.64" x2="253.96" y2="326.8"/><g class="g"><path class="f" d="M253.28,332.93a.68.68,0,0,1-.69-.68"/><path class="f" d="M252.59,328.5a.69.69,0,0,1,.69-.68"/><path class="f" d="M281.06,327.82a.69.69,0,0,1,.69.68"/><path class="f" d="M281.75,326.8a1,1,0,0,1-1,1"/><path class="f" d="M280.72,288.61a1,1,0,0,1,1,1"/><path class="f" d="M281.06,261.34a.68.68,0,0,1,.69.68"/><path class="f" d="M252.59,262a.68.68,0,0,1,.69-.68"/><path class="f" d="M281.75,287.59a1,1,0,0,1-1,1"/><path class="f" d="M281.75,262.36a1,1,0,0,1,1-1"/><path class="f" d="M282.78,288.61a1,1,0,0,1-1-1"/></g><line class="f" x1="253.96" y1="262.36" x2="277.33" y2="262.36"/><g class="g"><path class="f" d="M258,287.63a19,19,0,0,1-.71-5.14,19.36,19.36,0,0,1,15.36-18.9"/><path class="f" d="M258.76,289.64a115.82,115.82,0,0,1,0,37.16"/><path class="f" d="M310.91,281.79a6.85,6.85,0,0,1-6.87,6.82"/><path class="f" d="M304,261.34a6.85,6.85,0,0,1,6.87,6.82"/><path class="f" d="M281.75,329.52a3.42,3.42,0,0,1-3.43,3.41"/></g><rect class="d" x="390.49" y="254.52" width="20.58" height="51.31"/><line class="f" x1="390.49" y1="305.83" x2="390.49" y2="254.52"/><line class="f" x1="390.49" y1="254.52" x2="411.07" y2="254.52"/><line class="f" x1="411.07" y1="254.52" x2="411.07" y2="305.83"/><line class="f" x1="411.07" y1="305.83" x2="390.49" y2="305.83"/><line class="f" x1="400.78" y1="303.26" x2="400.78" y2="257.08"/><line class="f" x1="394.72" y1="300.88" x2="407.06" y2="296.54"/><line class="f" x1="394.11" y1="295.99" x2="405.58" y2="294.2"/><line class="f" x1="408.2" y1="289.31" x2="395.61" y2="287.83"/><line class="f" x1="406.55" y1="281.74" x2="395.61" y2="283.74"/><line class="f" x1="407.18" y1="278.99" x2="393.7" y2="278.99"/><line class="f" x1="407.24" y1="271.19" x2="393.92" y2="273.04"/><line class="f" x1="407.01" y1="268.26" x2="394.85" y2="268.26"/><line class="f" x1="407.14" y1="260.57" x2="394.66" y2="259.09"/><line class="f" x1="406.29" y1="262.42" x2="395.74" y2="263.92"/><rect class="d" x="390.49" y="305.83" width="20.58" height="50.63"/><line class="f" x1="390.49" y1="356.46" x2="390.49" y2="305.83"/><line class="f" x1="390.49" y1="305.83" x2="411.07" y2="305.83"/><line class="f" x1="411.07" y1="305.83" x2="411.07" y2="356.46"/><line class="f" x1="411.07" y1="356.46" x2="390.49" y2="356.46"/><line class="f" x1="400.78" y1="353.93" x2="400.78" y2="308.36"/><line class="f" x1="394.72" y1="351.58" x2="407.06" y2="347.3"/><line class="f" x1="394.11" y1="346.75" x2="405.58" y2="344.98"/><line class="f" x1="408.2" y1="340.16" x2="395.61" y2="338.7"/><line class="f" x1="406.55" y1="332.69" x2="395.61" y2="334.67"/><line class="f" x1="407.18" y1="329.97" x2="393.7" y2="329.97"/><line class="f" x1="407.24" y1="322.28" x2="393.92" y2="324.1"/><line class="f" x1="407.01" y1="319.39" x2="394.85" y2="319.39"/><line class="f" x1="407.14" y1="311.8" x2="394.66" y2="310.34"/><line class="f" x1="406.29" y1="313.63" x2="395.74" y2="315.11"/><polygon class="d" points="324.04 348.66 320.5 348.17 316.94 348.62 313.63 349.96 313.65 342.33 314.12 340.62 315.38 339.38 317.09 338.94 323.95 338.98 325.66 339.44 326.91 340.7 327.37 342.41 327.35 350.04 324.04 348.66"/><polygon class="d" points="333.91 377.55 327.28 373.69 330.13 371.54 332.31 368.72 333.69 365.44 334.17 361.91 340.8 365.76 342.05 367.02 342.5 368.73 342.04 370.43 338.6 376.32 337.33 377.57 335.62 378.01 333.91 377.55"/><polygon class="d" points="303.49 377.37 302.24 376.11 298.82 370.18 298.37 368.47 298.83 366.77 300.09 365.53 306.74 361.75 307.2 365.28 308.56 368.58 310.73 371.43 313.57 373.61 306.92 377.39 305.2 377.84 303.49 377.37"/><polygon class="d" points="316.87 375 313.56 373.61 310.73 371.43 308.56 368.58 307.2 365.28 306.74 361.75 307.22 358.22 308.6 354.93 310.79 352.12 313.63 349.96 316.94 348.62 320.49 348.17 324.04 348.66 327.35 350.04 330.18 352.23 332.35 355.07 333.71 358.37 334.17 361.9 333.69 365.44 332.31 368.73 330.13 371.54 327.28 373.69 323.97 375.04 320.42 375.48 316.87 375"/><line class="f" x1="313.63" y1="349.96" x2="316.94" y2="348.62"/><line class="f" x1="316.94" y1="348.62" x2="320.49" y2="348.17"/><line class="f" x1="320.49" y1="348.17" x2="324.04" y2="348.66"/><line class="f" x1="324.04" y1="348.66" x2="327.35" y2="350.04"/><line class="f" x1="327.35" y1="350.04" x2="330.18" y2="352.23"/><line class="f" x1="330.18" y1="352.23" x2="332.35" y2="355.07"/><line class="f" x1="332.35" y1="355.07" x2="333.71" y2="358.37"/><line class="f" x1="333.71" y1="358.37" x2="334.17" y2="361.91"/><line class="f" x1="334.17" y1="361.91" x2="333.69" y2="365.44"/><line class="f" x1="333.69" y1="365.44" x2="332.31" y2="368.72"/><line class="f" x1="332.31" y1="368.72" x2="330.12" y2="371.54"/><line class="f" x1="330.13" y1="371.54" x2="327.28" y2="373.69"/><line class="f" x1="327.28" y1="373.69" x2="323.97" y2="375.04"/><line class="f" x1="323.97" y1="375.04" x2="320.42" y2="375.48"/><line class="f" x1="320.42" y1="375.48" x2="316.87" y2="375"/><line class="f" x1="316.87" y1="375" x2="313.57" y2="373.61"/><line class="f" x1="313.57" y1="373.61" x2="310.73" y2="371.42"/><line class="f" x1="310.73" y1="371.42" x2="308.56" y2="368.58"/><line class="f" x1="308.56" y1="368.58" x2="307.2" y2="365.28"/><line class="f" x1="307.2" y1="365.28" x2="306.74" y2="361.75"/><line class="f" x1="306.74" y1="361.75" x2="307.22" y2="358.22"/><line class="f" x1="307.22" y1="358.22" x2="308.6" y2="354.93"/><line class="f" x1="308.6" y1="354.93" x2="310.79" y2="352.12"/><line class="f" x1="310.79" y1="352.12" x2="313.63" y2="349.96"/><g class="g"><path class="f" d="M332.35,355.07h0a13.59,13.59,0,0,1-5.07,18.62,13.78,13.78,0,0,1-18.72-5.1"/><path class="f" d="M308.56,368.59h0A13.6,13.6,0,0,1,313.63,350a13.78,13.78,0,0,1,18.72,5.11"/></g><line class="f" x1="323.94" y1="340.68" x2="317.09" y2="340.65"/><line class="f" x1="313.65" y1="342.33" x2="313.63" y2="349.96"/><line class="f" x1="323.95" y1="338.98" x2="317.09" y2="338.94"/><line class="f" x1="327.35" y1="350.04" x2="327.37" y2="342.41"/><line class="f" x1="337.11" y1="375.46" x2="340.56" y2="369.57"/><line class="f" x1="340.8" y1="365.76" x2="334.17" y2="361.91"/><line class="f" x1="338.6" y1="376.32" x2="342.04" y2="370.43"/><line class="f" x1="327.28" y1="373.69" x2="333.91" y2="377.55"/><line class="f" x1="300.31" y1="369.34" x2="303.72" y2="375.27"/><line class="f" x1="306.92" y1="377.39" x2="313.57" y2="373.61"/><line class="f" x1="298.82" y1="370.18" x2="302.24" y2="376.11"/><line class="f" x1="306.74" y1="361.75" x2="300.09" y2="365.53"/><g class="g"><path class="f" d="M315.37,342.34a1.67,1.67,0,0,1,.86-1.47,1.72,1.72,0,0,1,.85-.23"/><path class="f" d="M323.94,340.68a1.74,1.74,0,0,1,1.48.87,1.69,1.69,0,0,1,.23.85"/><path class="f" d="M313.65,342.33a3.4,3.4,0,0,1,3.44-3.39"/><path class="f" d="M324,339a3.44,3.44,0,0,1,3.42,3.43"/><path class="f" d="M339.94,367.23a1.78,1.78,0,0,1,.62.63,1.69,1.69,0,0,1,0,1.71"/><path class="f" d="M337.11,375.46a1.73,1.73,0,0,1-.63.63,1.71,1.71,0,0,1-1.71,0"/><path class="f" d="M340.8,365.76a3.51,3.51,0,0,1,1.25,1.26,3.38,3.38,0,0,1,0,3.41"/><path class="f" d="M338.59,376.32a3.36,3.36,0,0,1-1.26,1.25,3.45,3.45,0,0,1-3.42,0"/><path class="f" d="M306.06,375.91a1.72,1.72,0,0,1-2.34-.64"/><path class="f" d="M300.31,369.34A1.7,1.7,0,0,1,301,367"/><path class="f" d="M306.91,377.39h0a3.43,3.43,0,0,1-4.67-1.28"/><path class="f" d="M298.83,370.18a3.38,3.38,0,0,1,1.26-4.65"/></g><polygon class="d" points="464.14 418.51 463.78 418.36 463.63 418 463.63 404.02 463.78 403.66 464.14 403.51 481.98 403.51 482.34 403.66 482.49 404.02 482.49 418 482.34 418.36 481.98 418.51 464.14 418.51"/><g class="g"><path class="f" d="M464.14,418.51a.51.51,0,0,1-.51-.51"/></g><line class="f" x1="463.63" y1="404.02" x2="463.63" y2="418"/><g class="g"><path class="f" d="M463.63,404a.51.51,0,0,1,.51-.51"/></g><line class="f" x1="481.98" y1="403.51" x2="464.14" y2="403.51"/><g class="g"><path class="f" d="M482,403.51a.51.51,0,0,1,.51.51"/></g><line class="f" x1="482.49" y1="418" x2="482.49" y2="404.02"/><g class="g"><path class="f" d="M482.49,418a.51.51,0,0,1-.51.51"/></g><line class="f" x1="464.14" y1="418.51" x2="481.98" y2="418.51"/><line class="f" x1="465.17" y1="414.76" x2="480.95" y2="414.76"/><line class="f" x1="481.46" y1="414.25" x2="481.46" y2="405.04"/><line class="f" x1="480.95" y1="404.53" x2="465.17" y2="404.53"/><line class="f" x1="464.66" y1="405.04" x2="464.66" y2="414.25"/><g class="g"><path class="f" d="M481.46,414.25a.51.51,0,0,1-.51.51"/><path class="f" d="M481,404.53a.51.51,0,0,1,.51.51"/><path class="f" d="M464.66,405a.51.51,0,0,1,.51-.51"/><path class="f" d="M465.17,414.76a.51.51,0,0,1-.51-.51"/></g><polygon class="d" points="472.45 417.06 472.2 416.46 472.34 415.03 472.45 414.71 472.68 412.9 472.81 412.67 473.06 412.57 473.31 412.67 473.44 412.9 473.67 414.71 473.78 415.03 473.92 416.46 473.67 417.06 473.06 417.31 472.45 417.06"/><line class="f" x1="472.2" y1="416.46" x2="472.34" y2="415.03"/><g class="g"><path class="f" d="M472.34,415a.76.76,0,0,1,.11-.32"/></g><line class="f" x1="472.45" y1="414.71" x2="472.68" y2="412.9"/><g class="g"><path class="f" d="M472.68,412.9a.37.37,0,0,1,.38-.33.38.38,0,0,1,.38.33"/></g><line class="f" x1="473.44" y1="412.9" x2="473.67" y2="414.71"/><g class="g"><path class="f" d="M473.67,414.71a.72.72,0,0,1,.11.32"/></g><line class="f" x1="473.78" y1="415.03" x2="473.92" y2="416.46"/><g class="g"><path class="f" d="M473.92,416.46a.86.86,0,0,1-1.72,0"/></g><line class="f" x1="473.53" y1="415.61" x2="473.53" y2="415.1"/><line class="f" x1="472.59" y1="415.1" x2="472.59" y2="415.61"/><line class="f" x1="472.59" y1="415.61" x2="473.53" y2="415.61"/><g class="g"><path class="f" d="M472.59,415.1a.47.47,0,0,1,.94,0"/><path class="f" d="M472.45,414.71a.71.71,0,0,1,.61-.33.72.72,0,0,1,.61.33"/></g><polygon class="d" points="490.48 418.51 490.48 407.26 490.75 405.57 491.51 404.05 492.71 402.82 494.66 401.81 496.83 401.46 499 401.81 500.94 402.82 502.14 404.05 502.91 405.57 503.17 407.26 503.17 418.51 490.48 418.51"/><line class="f" x1="503.17" y1="418.51" x2="503.17" y2="407.26"/><line class="f" x1="503.17" y1="418.51" x2="490.48" y2="418.51"/><line class="f" x1="490.48" y1="418.51" x2="490.48" y2="407.26"/><line class="f" x1="501.12" y1="414.42" x2="501.12" y2="407.26"/><line class="f" x1="492.54" y1="414.42" x2="492.54" y2="407.26"/><line class="f" x1="492.54" y1="414.42" x2="501.12" y2="414.42"/><g class="g"><path class="f" d="M500.94,402.82a5.52,5.52,0,0,1,2.23,4.44"/><path class="f" d="M490.48,407.26a5.55,5.55,0,0,1,2.23-4.44"/><path class="f" d="M492.71,402.82a6.92,6.92,0,0,1,8.24,0"/><path class="f" d="M490.48,407.26a5.55,5.55,0,0,1,2.23-4.44"/><path class="f" d="M492.71,402.82a6.92,6.92,0,0,1,4.12-1.36"/><path class="f" d="M492.54,407.26a3.49,3.49,0,0,1,1.41-2.8"/><path class="f" d="M494,404.46a4.84,4.84,0,0,1,5.76,0"/><path class="f" d="M499.71,404.46a3.51,3.51,0,0,1,1.41,2.8"/></g><polygon class="d" points="378.97 320.52 378.97 309.9 377.6 308.22 376.86 306.11 376.86 303.85 377.6 301.74 378.97 300.05 378.97 289.43 380.88 289.43 382.78 297.2 382.78 299.47 383.82 303.08 383.82 306.87 382.78 310.49 382.78 312.75 380.88 320.52 378.97 320.52"/><line class="f" x1="378.97" y1="309.9" x2="377.6" y2="308.22"/><line class="f" x1="377.6" y1="308.22" x2="376.86" y2="306.11"/><line class="f" x1="376.86" y1="306.11" x2="376.86" y2="303.85"/><line class="f" x1="376.86" y1="303.85" x2="377.6" y2="301.74"/><line class="f" x1="377.6" y1="301.74" x2="378.97" y2="300.05"/><line class="f" x1="378.97" y1="300.05" x2="378.97" y2="289.43"/><line class="f" x1="378.97" y1="289.43" x2="380.88" y2="289.43"/><line class="f" x1="380.88" y1="289.43" x2="382.78" y2="297.2"/><line class="f" x1="382.78" y1="297.2" x2="382.78" y2="299.47"/><line class="f" x1="382.78" y1="299.47" x2="383.82" y2="303.08"/><line class="f" x1="383.82" y1="303.08" x2="383.82" y2="306.87"/><line class="f" x1="383.82" y1="306.87" x2="382.78" y2="310.49"/><line class="f" x1="382.78" y1="310.49" x2="382.78" y2="312.75"/><line class="f" x1="382.78" y1="312.75" x2="380.88" y2="320.52"/><line class="f" x1="380.88" y1="320.52" x2="378.97" y2="320.52"/><line class="f" x1="378.97" y1="320.52" x2="378.97" y2="309.9"/><line class="f" x1="378.97" y1="320.52" x2="378.97" y2="289.43"/><line class="f" x1="382.78" y1="297.2" x2="382.78" y2="312.75"/><line class="f" x1="380.88" y1="320.52" x2="378.97" y2="320.52"/><line class="f" x1="379.73" y1="291.5" x2="379.73" y2="293.58"/><line class="f" x1="379.73" y1="293.58" x2="380.21" y2="293.58"/><line class="f" x1="380.21" y1="293.58" x2="380.21" y2="291.5"/><line class="f" x1="380.21" y1="291.5" x2="379.73" y2="291.5"/><line class="f" x1="379.73" y1="294.1" x2="379.73" y2="296.17"/><line class="f" x1="379.73" y1="296.17" x2="380.21" y2="296.17"/><line class="f" x1="380.21" y1="296.17" x2="380.21" y2="294.09"/><line class="f" x1="380.21" y1="294.1" x2="379.73" y2="294.1"/><line class="f" x1="380.88" y1="320.52" x2="380.88" y2="289.43"/><line class="f" x1="380.21" y1="296.69" x2="379.73" y2="296.69"/><line class="f" x1="379.73" y1="296.69" x2="379.73" y2="297.72"/><line class="f" x1="379.73" y1="297.72" x2="380.21" y2="297.72"/><line class="f" x1="380.21" y1="297.72" x2="380.21" y2="296.69"/><g class="g"><path class="f" d="M379,309.9a6.61,6.61,0,0,1,0-9.85"/></g><line class="f" x1="424.79" y1="423.62" x2="417.93" y2="423.62"/><line class="f" x1="414.16" y1="423.62" x2="413.39" y2="423.62"/><line class="f" x1="409.61" y1="423.62" x2="408.84" y2="423.62"/><line class="f" x1="405.07" y1="423.62" x2="398.21" y2="423.62"/><line class="f" x1="394.43" y1="423.62" x2="393.92" y2="423.62"/><line class="f" x1="393.92" y1="423.62" x2="387.06" y2="423.62"/><line class="f" x1="296.79" y1="416.35" x2="296.79" y2="410.63"/><line class="f" x1="296.79" y1="410.63" x2="294.45" y2="412.51"/><line class="f" x1="294.45" y1="412.51" x2="292.11" y2="410.63"/><line class="f" x1="292.11" y1="410.63" x2="292.11" y2="416.35"/><line class="f" x1="245.04" y1="188.04" x2="545.54" y2="188.04"/><line class="f" x1="245.04" y1="186.33" x2="545.54" y2="186.33"/><line class="f" x1="240.93" y1="431.8" x2="549.65" y2="431.8"/><line class="f" x1="549.65" y1="431.8" x2="549.65" y2="240.88"/><line class="f" x1="549.65" y1="240.88" x2="545.54" y2="240.88"/><line class="f" x1="545.54" y1="240.88" x2="545.54" y2="186.32"/><line class="f" x1="545.54" y1="186.32" x2="245.04" y2="186.32"/><line class="f" x1="245.04" y1="186.32" x2="245.04" y2="240.88"/><line class="f" x1="245.04" y1="240.88" x2="240.93" y2="240.88"/><line class="f" x1="240.93" y1="240.88" x2="240.93" y2="431.8"/><path class="h" d="M438.21,214.08v7h-.72v-6.36h-1.65v-.64Z"/><path class="h" d="M439.89,220.58a.53.53,0,0,1,.53-.54.54.54,0,0,1,.54.54.55.55,0,0,1-.54.55A.54.54,0,0,1,439.89,220.58Z"/><path class="h" d="M441.9,217.58c0-2.23,1.17-3.56,2.79-3.56s2.8,1.33,2.8,3.56-1.18,3.56-2.8,3.56S441.9,219.81,441.9,217.58Zm4.85,0c0-1.87-.84-2.9-2.06-2.9s-2.06,1-2.06,2.9.84,2.9,2.06,2.9S446.75,219.45,446.75,217.58Z"/><path class="h" d="M453.27,219c0,1.19-.83,2.12-2.54,2.12a3.61,3.61,0,0,1-2.51-.9l.35-.57a3,3,0,0,0,2.15.81c1.19,0,1.82-.58,1.82-1.43s-.56-1.46-2.34-1.46h-1.49l.36-3.51h3.83v.64h-3.2l-.24,2.23h.9C452.47,217,453.27,217.78,453.27,219Z"/><path class="h" d="M480.93,380v7h-.72V380.6h-1.65V380Z"/><path class="h" d="M482.61,386.46a.53.53,0,0,1,.53-.54.54.54,0,0,1,.54.54.55.55,0,0,1-.54.55A.54.54,0,0,1,482.61,386.46Z"/><path class="h" d="M484.62,383.46c0-2.23,1.17-3.56,2.79-3.56s2.8,1.33,2.8,3.56S489,387,487.41,387,484.62,385.69,484.62,383.46Zm4.85,0c0-1.87-.84-2.9-2.06-2.9s-2.06,1-2.06,2.9.84,2.9,2.06,2.9S489.47,385.33,489.47,383.46Z"/><path class="h" d="M497.19,385.12h-1.4V387h-.72v-1.84h-3.95v-.52l3.71-4.64h.8l-3.58,4.52h3v-1.62h.7v1.62h1.4Z"/><path class="h" d="M438.21,303.65v7h-.72v-6.36h-1.65v-.64Z"/><path class="h" d="M439.89,310.15a.53.53,0,0,1,.53-.54.54.54,0,0,1,.54.54.55.55,0,0,1-.54.55A.54.54,0,0,1,439.89,310.15Z"/><path class="h" d="M441.9,307.15c0-2.23,1.17-3.56,2.79-3.56s2.8,1.33,2.8,3.56-1.18,3.56-2.8,3.56S441.9,309.38,441.9,307.15Zm4.85,0c0-1.87-.84-2.9-2.06-2.9s-2.06,1-2.06,2.9.84,2.9,2.06,2.9S446.75,309,446.75,307.15Z"/><path class="h" d="M453.06,308.64c0,1.17-.85,2.07-2.54,2.07a3.64,3.64,0,0,1-2.52-.9l.35-.57a3.07,3.07,0,0,0,2.17.81c1.16,0,1.8-.54,1.8-1.41s-.59-1.39-1.89-1.39h-.5v-.53l1.94-2.43h-3.58v-.64h4.5v.51l-2,2.49C452.31,306.73,453.06,307.52,453.06,308.64Z"/><path class="h" d="M332.82,303.65v7h-.72v-6.36h-1.65v-.64Z"/><path class="h" d="M334.5,310.15a.53.53,0,0,1,.53-.54.54.54,0,0,1,.54.54.55.55,0,0,1-.54.55A.54.54,0,0,1,334.5,310.15Z"/><path class="h" d="M336.51,307.15c0-2.23,1.17-3.56,2.79-3.56s2.8,1.33,2.8,3.56-1.18,3.56-2.8,3.56S336.51,309.38,336.51,307.15Zm4.85,0c0-1.87-.84-2.9-2.06-2.9s-2.06,1-2.06,2.9.84,2.9,2.06,2.9S341.36,309,341.36,307.15Z"/><path class="h" d="M347.9,310v.64H343v-.51l2.91-2.85c.79-.78.94-1.25.94-1.73,0-.81-.57-1.31-1.64-1.31a2.38,2.38,0,0,0-1.91.78l-.51-.44a3.15,3.15,0,0,1,2.48-1c1.42,0,2.32.72,2.32,1.89a2.88,2.88,0,0,1-1.15,2.19L344.05,310Z"/><path class="h" d="M400.64,380.48v7h-.72v-6.36h-1.65v-.64Z"/><path class="h" d="M402.32,387a.53.53,0,0,1,.53-.54.54.54,0,0,1,.54.54.55.55,0,0,1-.54.55A.54.54,0,0,1,402.32,387Z"/><path class="h" d="M404.33,384c0-2.23,1.17-3.56,2.79-3.56s2.8,1.33,2.8,3.56-1.18,3.56-2.8,3.56S404.33,386.21,404.33,384Zm4.85,0c0-1.87-.84-2.9-2.06-2.9s-2.06,1-2.06,2.9.84,2.9,2.06,2.9S409.18,385.85,409.18,384Z"/><path class="h" d="M412.88,380.48v7h-.72v-6.36h-1.65v-.64Z"/></svg>