<svg xmlns="http://www.w3.org/2000/svg" xmlns:xlink="http://www.w3.org/1999/xlink" viewBox="0 0 790.58 618.13"><defs><style>.a,.f{fill:none;}.b{fill:#595a5c;}.c{fill:#b6906c;}.d,.g{fill:#fff;}.e{fill:#231f20;}.f{stroke:#000;stroke-linecap:round;stroke-linejoin:round;stroke-width:0.34px;}.g,.h{fill-rule:evenodd;}.i{clip-path:url(#a);}.j{fill:#58595b;}</style><clipPath id="a"><polygon class="a" points="263.55 186.19 263.55 240.81 259.63 240.81 259.63 431.93 530.95 431.93 530.95 240.81 527.2 240.81 527.2 186.19 263.55 186.19"/></clipPath></defs><path class="b" d="M55.31,597.13H57.1V609.9H55.31Zm.92,6.11h4.09a1.89,1.89,0,0,0,1-.27,1.82,1.82,0,0,0,.68-.77,2.67,2.67,0,0,0,.24-1.16,2.7,2.7,0,0,0-.24-1.16,1.82,1.82,0,0,0-1.7-1H56.23v-1.7h4a4.09,4.09,0,0,1,2,.48A3.45,3.45,0,0,1,63.62,599a4.64,4.64,0,0,1,0,4.11,3.34,3.34,0,0,1-1.35,1.36,4,4,0,0,1-2,.49h-4Z"/><path class="b" d="M67.7,606.33a2.07,2.07,0,0,0,.49,1.48,1.76,1.76,0,0,0,1.37.52,1.89,1.89,0,0,0,1.37-.46,1.79,1.79,0,0,0,.48-1.33l.12,1.91A2.58,2.58,0,0,1,69.06,610a2.89,2.89,0,0,1-2.33-1,4.08,4.08,0,0,1-.82-2.73v-5.55H67.7Zm.22-7.86a1.93,1.93,0,0,1-.56-1.5,2.07,2.07,0,0,1,.56-1.57,2.56,2.56,0,0,1,3.18,0,2.08,2.08,0,0,1,.57,1.56,1.94,1.94,0,0,1-.57,1.5,2.65,2.65,0,0,1-3.18,0Zm2.26-.86a.94.94,0,0,0,.24-.68,1,1,0,0,0-.24-.7.91.91,0,0,0-.67-.25.92.92,0,0,0-.67.25,1,1,0,0,0-.23.7,1,1,0,0,0,.23.68.92.92,0,0,0,.67.24A.9.9,0,0,0,70.18,597.61Zm1.23,3.17h1.78v9.12H71.41Z"/><path class="b" d="M77.1,609.63A2.82,2.82,0,0,1,76,608.36a5.08,5.08,0,0,1-.36-2v-2a5.05,5.05,0,0,1,.36-2,2.71,2.71,0,0,1,1-1.27,3,3,0,0,1,1.65-.44,2.71,2.71,0,0,1,1.48.42,3.22,3.22,0,0,1,1.09,1.19l-.18,1.86a2.19,2.19,0,0,0-.22-1,1.48,1.48,0,0,0-.61-.63,2,2,0,0,0-1-.21,1.71,1.71,0,0,0-1.37.55,2.26,2.26,0,0,0-.49,1.56v2a2.19,2.19,0,0,0,.49,1.54,1.74,1.74,0,0,0,1.37.54,1.93,1.93,0,0,0,1-.23,1.45,1.45,0,0,0,.61-.64,2.25,2.25,0,0,0,.22-1l.12,1.92a2.66,2.66,0,0,1-.89,1.14,2.56,2.56,0,0,1-1.53.45A3.19,3.19,0,0,1,77.1,609.63Zm4-12.5H82.9V609.9H81.11Z"/><path class="b" d="M87.09,609.57a3.09,3.09,0,0,1-1.29-1.36,4.85,4.85,0,0,1-.44-2.15v-1.48a4.71,4.71,0,0,1,.44-2.12,3.12,3.12,0,0,1,1.29-1.35,4.71,4.71,0,0,1,4.06,0,3.12,3.12,0,0,1,1.29,1.35,4.71,4.71,0,0,1,.44,2.12v1.51a4.79,4.79,0,0,1-.44,2.13,3.12,3.12,0,0,1-1.29,1.35,4.62,4.62,0,0,1-4.06,0Zm3.49-1.83a2.43,2.43,0,0,0,.51-1.65v-1.51a2.43,2.43,0,0,0-.51-1.65,1.88,1.88,0,0,0-1.46-.58,1.85,1.85,0,0,0-1.45.58,2.38,2.38,0,0,0-.52,1.65v1.51a2.38,2.38,0,0,0,.52,1.65,1.82,1.82,0,0,0,1.45.59A1.85,1.85,0,0,0,90.58,607.74Z"/><path class="b" d="M95.43,600.78h1.79v9.12H95.43Zm4.42,1.72a2.16,2.16,0,0,0-.83-.15,1.83,1.83,0,0,0-1.33.47,1.79,1.79,0,0,0-.47,1.31L97,602.37a3.32,3.32,0,0,1,1.09-1.27,2.58,2.58,0,0,1,1.48-.45,3.39,3.39,0,0,1,1.13.18,2.62,2.62,0,0,1,.88.53l-1.17,1.58A1.56,1.56,0,0,0,99.85,602.5Z"/><path class="b" d="M102.15,600.78H104l2.81,7.93-1,1.94Zm8.07,0L106.34,612a2.6,2.6,0,0,1-.56,1,1.87,1.87,0,0,1-.84.52,4,4,0,0,1-1.23.16h-.36V612h.36a1.46,1.46,0,0,0,.8-.2,1.74,1.74,0,0,0,.51-.7l3.38-10.31Z"/><path class="b" d="M113.51,609.88a5.76,5.76,0,0,1-1.32-.48,4.89,4.89,0,0,1-1.13-.79l1.06-1.31a5.86,5.86,0,0,0,1.47.85,4.18,4.18,0,0,0,1.44.28,3.11,3.11,0,0,0,1.6-.33,1.1,1.1,0,0,0,.53-1,.79.79,0,0,0-.29-.66,1.66,1.66,0,0,0-.72-.29c-.29,0-.69-.1-1.22-.14h-.15l-.14,0h-.15a6.45,6.45,0,0,1-1.5-.26,2,2,0,0,1-1-.7,2.38,2.38,0,0,1-.41-1.49,3.07,3.07,0,0,1,.39-1.61,2.41,2.41,0,0,1,1.18-1,5.29,5.29,0,0,1,2-.32,6.38,6.38,0,0,1,2.6.52,6.16,6.16,0,0,1,1.13.66l-1.08,1.31a5.59,5.59,0,0,0-1.35-.66,4,4,0,0,0-1.3-.22,2.44,2.44,0,0,0-1.37.31,1.08,1.08,0,0,0-.46.94.64.64,0,0,0,.26.55,1.72,1.72,0,0,0,.66.25c.26,0,.64.07,1.12.1h.34a7.67,7.67,0,0,1,1.63.25,2.24,2.24,0,0,1,1.13.77,2.62,2.62,0,0,1,.45,1.65,2.92,2.92,0,0,1-.42,1.63,2.54,2.54,0,0,1-1.27,1A5.88,5.88,0,0,1,115,610,7.38,7.38,0,0,1,113.51,609.88Z"/><path class="b" d="M126,597.13h1.8V609.9H126Zm2.6,12.5a2.39,2.39,0,0,1-.93-1.16l.13-1.91a2.22,2.22,0,0,0,.21,1,1.48,1.48,0,0,0,.61.63,1.93,1.93,0,0,0,1,.22,1.74,1.74,0,0,0,1.37-.54,2.18,2.18,0,0,0,.49-1.53v-2a2.26,2.26,0,0,0-.49-1.56,1.71,1.71,0,0,0-1.37-.55,2,2,0,0,0-1,.21,1.36,1.36,0,0,0-.61.62,2.12,2.12,0,0,0-.21,1l-.19-1.76a3.37,3.37,0,0,1,1.08-1.24,2.67,2.67,0,0,1,1.49-.43,3,3,0,0,1,1.65.43,2.9,2.9,0,0,1,1.06,1.27,5.1,5.1,0,0,1,.36,2v2a4.94,4.94,0,0,1-.37,2,2.79,2.79,0,0,1-1.08,1.26,3.25,3.25,0,0,1-1.71.44A2.73,2.73,0,0,1,128.57,609.63Z"/><path class="b" d="M134.46,600.78h1.82l2.81,7.93-1,1.94Zm8.07,0L138.65,612a2.6,2.6,0,0,1-.56,1,1.87,1.87,0,0,1-.84.52,4,4,0,0,1-1.23.16h-.36V612H136a1.46,1.46,0,0,0,.8-.2,1.74,1.74,0,0,0,.51-.7l3.37-10.31Z"/><path class="b" d="M143.57,600.78h4.12v1.62h-4.12Zm1.46,8.56a2.77,2.77,0,0,1-.52-1.81v-9.4h1.8v9.42a.84.84,0,0,0,.13.51.46.46,0,0,0,.39.18h.86V610h-1A2,2,0,0,1,145,609.34Z"/><path class="b" d="M151.94,606.33a2.07,2.07,0,0,0,.49,1.48,1.76,1.76,0,0,0,1.37.52,1.91,1.91,0,0,0,1.37-.46,1.79,1.79,0,0,0,.48-1.33l.12,1.91A2.58,2.58,0,0,1,153.3,610a2.89,2.89,0,0,1-2.33-1,4.08,4.08,0,0,1-.82-2.73v-5.55h1.79Zm3.71-5.55h1.78v9.12h-1.78Z"/><rect class="c" x="612.92" y="591.68" width="35.43" height="2.83"/><path class="d" d="M648.48,594.64H612.79v-3.08h35.69ZM613,594.39h35.19v-2.58H613Z"/><rect class="c" x="612.92" y="601.6" width="70.74" height="2.83"/><path class="d" d="M683.78,604.56h-71v-3.08h71ZM613,604.31h70.49v-2.58H613Z"/><rect class="c" x="612.92" y="612.72" width="177.16" height="2.84"/><path class="d" d="M790.21,615.68H612.79V612.6H790.21ZM613,615.43H790v-2.58H613Z"/><path class="e" d="M587.26,596.28h-.8v-4.82l-.81.5v-.83l.81-.53h.8Z"/><path class="e" d="M589,595.91a1.67,1.67,0,0,1-.41-1.19v-2.58A1.65,1.65,0,0,1,589,591a2,2,0,0,1,2.42,0,1.65,1.65,0,0,1,.41,1.19v2.58a1.65,1.65,0,0,1-.41,1.19,2,2,0,0,1-2.42,0Zm1.83-.55a.89.89,0,0,0,.2-.64v-2.58a.89.89,0,0,0-.2-.64.82.82,0,0,0-.62-.22.86.86,0,0,0-.63.22.94.94,0,0,0-.2.64v2.58a.9.9,0,0,0,.21.64,1,1,0,0,0,1.24,0Z"/><path class="e" d="M593.22,595.91a1.67,1.67,0,0,1-.41-1.19v-2.58a1.65,1.65,0,0,1,.41-1.19,2,2,0,0,1,2.42,0,1.61,1.61,0,0,1,.41,1.19v2.58a1.65,1.65,0,0,1-.41,1.19,2,2,0,0,1-2.42,0Zm1.83-.55a.9.9,0,0,0,.21-.64v-2.58a.94.94,0,0,0-.2-.64.86.86,0,0,0-.63-.22.82.82,0,0,0-.62.22.89.89,0,0,0-.2.64v2.58a.89.89,0,0,0,.2.64,1,1,0,0,0,1.24,0Z"/><path class="e" d="M600.1,596.13a1.45,1.45,0,0,1-.6-.6,2.06,2.06,0,0,1-.21-1v-.67a2,2,0,0,1,.21-.94,1.37,1.37,0,0,1,.6-.59,2,2,0,0,1,.95-.21,2.21,2.21,0,0,1,.59.08,1.68,1.68,0,0,1,.51.22,1.54,1.54,0,0,1,.37.35l-.58.52a1.17,1.17,0,0,0-.4-.3,1.13,1.13,0,0,0-.48-.11.94.94,0,0,0-.71.26,1,1,0,0,0-.26.72v.67a1,1,0,0,0,.25.74.94.94,0,0,0,.72.27,1,1,0,0,0,.48-.12,1,1,0,0,0,.4-.32l.58.56a1.38,1.38,0,0,1-.38.34,1.62,1.62,0,0,1-.5.22,2.27,2.27,0,0,1-.59.07A2.12,2.12,0,0,1,600.1,596.13Z"/><path class="e" d="M603.4,592.22h.79v4.06h-.79Zm2.42,1.6a1,1,0,0,0-.21-.67.78.78,0,0,0-.6-.23.81.81,0,0,0-.6.21.73.73,0,0,0-.22.58l-.08-.78a1.46,1.46,0,0,1,.49-.57,1.22,1.22,0,0,1,.67-.2,1.33,1.33,0,0,1,.73.2,1.18,1.18,0,0,1,.46.56,2.4,2.4,0,0,1,.15.89v2.47h-.79Zm2.42,0a.93.93,0,0,0-.22-.67.85.85,0,0,0-.63-.23.72.72,0,0,0-.57.23.9.9,0,0,0-.21.64l-.16-.78a1.61,1.61,0,0,1,.51-.63,1.23,1.23,0,0,1,.69-.22,1.37,1.37,0,0,1,.75.2,1.09,1.09,0,0,1,.47.56,2.21,2.21,0,0,1,.17.89v2.47h-.8Z"/><path class="e" d="M584.33,605.5l2-2.64a1.85,1.85,0,0,0,.27-.47,1.29,1.29,0,0,0,.09-.45h0a.67.67,0,0,0-.2-.53.81.81,0,0,0-.56-.19.76.76,0,0,0-.56.21,1,1,0,0,0-.27.58h-.82a2,2,0,0,1,.29-.83,1.42,1.42,0,0,1,.56-.53,1.67,1.67,0,0,1,.79-.18,1.93,1.93,0,0,1,.87.17,1.21,1.21,0,0,1,.54.51,1.55,1.55,0,0,1,.19.8h0a1.84,1.84,0,0,1-.12.63,2.8,2.8,0,0,1-.35.63l-1.65,2.24h2.15v.76h-3.2Z"/><path class="e" d="M589,605.83a1.67,1.67,0,0,1-.41-1.19v-2.58a1.65,1.65,0,0,1,.41-1.19,2,2,0,0,1,2.42,0,1.65,1.65,0,0,1,.41,1.19v2.58a1.65,1.65,0,0,1-.41,1.19,2,2,0,0,1-2.42,0Zm1.83-.55a.89.89,0,0,0,.2-.64v-2.58a.89.89,0,0,0-.2-.64.82.82,0,0,0-.62-.22.86.86,0,0,0-.63.22.94.94,0,0,0-.19.64v2.58a.89.89,0,0,0,.2.64,1,1,0,0,0,1.24,0Z"/><path class="e" d="M593.22,605.83a1.67,1.67,0,0,1-.41-1.19v-2.58a1.61,1.61,0,0,1,.42-1.19,1.59,1.59,0,0,1,1.2-.42,1.45,1.45,0,0,1,1.62,1.61v2.58a1.61,1.61,0,0,1-.41,1.19,2,2,0,0,1-2.42,0Zm1.84-.55a.94.94,0,0,0,.2-.64v-2.58a.94.94,0,0,0-.2-.64.84.84,0,0,0-.63-.22.82.82,0,0,0-.62.22.89.89,0,0,0-.2.64v2.58a.89.89,0,0,0,.2.64.82.82,0,0,0,.62.22A.86.86,0,0,0,595.06,605.28Z"/><path class="e" d="M600.1,606.05a1.45,1.45,0,0,1-.6-.6,2.06,2.06,0,0,1-.2-1v-.67a2,2,0,0,1,.2-.94,1.37,1.37,0,0,1,.6-.59,2,2,0,0,1,.95-.21,2.35,2.35,0,0,1,.6.08,1.73,1.73,0,0,1,.5.22,1.38,1.38,0,0,1,.37.35l-.58.52a1.08,1.08,0,0,0-.4-.3,1.13,1.13,0,0,0-.48-.11,1,1,0,0,0-.71.26,1,1,0,0,0-.26.72v.67a1,1,0,0,0,.25.74.94.94,0,0,0,.72.27,1.14,1.14,0,0,0,.88-.44l.58.56a1.38,1.38,0,0,1-.38.34,1.62,1.62,0,0,1-.5.22,2.22,2.22,0,0,1-.59.07A2.12,2.12,0,0,1,600.1,606.05Z"/><path class="e" d="M603.4,602.14h.79v4.06h-.79Zm2.42,1.6a1,1,0,0,0-.21-.67.78.78,0,0,0-.6-.23.81.81,0,0,0-.6.21.73.73,0,0,0-.22.58l-.08-.78a1.46,1.46,0,0,1,.49-.57,1.22,1.22,0,0,1,.67-.2,1.3,1.3,0,0,1,.73.2,1.18,1.18,0,0,1,.46.56,2.4,2.4,0,0,1,.16.89v2.47h-.8Zm2.42,0a.93.93,0,0,0-.22-.67.85.85,0,0,0-.63-.23.73.73,0,0,0-.57.23.89.89,0,0,0-.2.64l-.16-.78a1.51,1.51,0,0,1,.5-.63,1.23,1.23,0,0,1,.69-.22,1.35,1.35,0,0,1,.75.2,1.16,1.16,0,0,1,.48.56,2.4,2.4,0,0,1,.16.89v2.47h-.8Z"/><path class="e" d="M585,615.58a1.34,1.34,0,0,1-.54-.49,2,2,0,0,1-.28-.77h.8a.75.75,0,0,0,.25.49.85.85,0,0,0,.54.17.72.72,0,0,0,.59-.25,1.1,1.1,0,0,0,.21-.72v-.48a1.1,1.1,0,0,0-.21-.72.72.72,0,0,0-.59-.25.83.83,0,0,0-.4.11,1.18,1.18,0,0,0-.34.33h-.72v-3h2.89v.76h-2.1V612a1,1,0,0,1,.34-.18.94.94,0,0,1,.37-.07,1.68,1.68,0,0,1,.84.2,1.29,1.29,0,0,1,.53.6,2.07,2.07,0,0,1,.19.94V614a2.25,2.25,0,0,1-.19.94,1.31,1.31,0,0,1-.55.59,1.69,1.69,0,0,1-.86.21A1.74,1.74,0,0,1,585,615.58Z"/><path class="e" d="M589,615.32a1.65,1.65,0,0,1-.41-1.19v-2.58a1.67,1.67,0,0,1,.41-1.19,2,2,0,0,1,2.42,0,1.65,1.65,0,0,1,.41,1.19v2.58a1.64,1.64,0,0,1-.41,1.19,1.92,1.92,0,0,1-2.42,0Zm1.83-.55a.89.89,0,0,0,.2-.64v-2.58a.88.88,0,0,0-.2-.63.78.78,0,0,0-.62-.22.82.82,0,0,0-.63.22.93.93,0,0,0-.2.63v2.58a.9.9,0,0,0,.21.64,1,1,0,0,0,1.24,0Z"/><path class="e" d="M593.22,615.32a1.65,1.65,0,0,1-.41-1.19v-2.58a1.67,1.67,0,0,1,.41-1.19,2,2,0,0,1,2.42,0,1.61,1.61,0,0,1,.41,1.19v2.58a1.64,1.64,0,0,1-.41,1.19,1.92,1.92,0,0,1-2.42,0Zm1.83-.55a.9.9,0,0,0,.21-.64v-2.58a.93.93,0,0,0-.2-.63.82.82,0,0,0-.63-.22.78.78,0,0,0-.62.22.88.88,0,0,0-.2.63v2.58a.89.89,0,0,0,.2.64,1,1,0,0,0,1.24,0Z"/><path class="e" d="M600.1,615.54a1.45,1.45,0,0,1-.6-.6,2,2,0,0,1-.21-1v-.67a2,2,0,0,1,.21-.94,1.45,1.45,0,0,1,.6-.6,2,2,0,0,1,.95-.2,2.22,2.22,0,0,1,.59.07,2,2,0,0,1,.51.22,1.76,1.76,0,0,1,.37.35l-.58.52a1.17,1.17,0,0,0-.4-.3,1.13,1.13,0,0,0-.48-.11.94.94,0,0,0-.71.26,1,1,0,0,0-.26.73V614a1.07,1.07,0,0,0,.25.74,1,1,0,0,0,.72.26,1.13,1.13,0,0,0,.48-.11,1.26,1.26,0,0,0,.4-.32l.58.55a1.42,1.42,0,0,1-.38.35,1.88,1.88,0,0,1-.5.21,2.27,2.27,0,0,1-.59.08A2,2,0,0,1,600.1,615.54Z"/><path class="e" d="M603.4,611.63h.79v4.06h-.79Zm2.42,1.6a1,1,0,0,0-.21-.66.75.75,0,0,0-.6-.24.81.81,0,0,0-.6.21.75.75,0,0,0-.22.58l-.08-.78a1.5,1.5,0,0,1,.49-.56,1.15,1.15,0,0,1,.67-.2,1.32,1.32,0,0,1,.73.19,1.28,1.28,0,0,1,.46.56,2.42,2.42,0,0,1,.15.9v2.46h-.79Zm2.42,0a.91.91,0,0,0-.22-.66.82.82,0,0,0-.63-.24.72.72,0,0,0-.57.23.9.9,0,0,0-.21.64l-.16-.78a1.51,1.51,0,0,1,.51-.62,1.16,1.16,0,0,1,.69-.22,1.37,1.37,0,0,1,.75.19,1.18,1.18,0,0,1,.47.56,2.22,2.22,0,0,1,.17.9v2.46h-.8Z"/><path class="c" d="M23.49,613.89A12.92,12.92,0,1,1,36.4,601,12.93,12.93,0,0,1,23.49,613.89Zm0-24.83A11.92,11.92,0,1,0,35.4,601,11.93,11.93,0,0,0,23.49,589.06Z"/><polygon class="d" points="35.77 588.74 9.42 600.98 35.77 613.21 32.02 600.98 35.77 588.74"/><path class="c" d="M36.58,614.14,8.23,601l28.35-13.17-4,13.17ZM10.61,601,35,612.29,31.5,601,35,589.66Z"/><path class="c" d="M2.52,605.19a5,5,0,0,1-1.11-.38,4.4,4.4,0,0,1-1-.64l.81-1a3.72,3.72,0,0,0,1.16.69,4.08,4.08,0,0,0,1.38.23,2.73,2.73,0,0,0,1.55-.38,1.17,1.17,0,0,0,.55-1.05h0a1.12,1.12,0,0,0-.25-.77,1.44,1.44,0,0,0-.64-.42,8.23,8.23,0,0,0-1-.25H3.89l-.1,0a9.48,9.48,0,0,1-1.5-.36,2.08,2.08,0,0,1-1-.73,2.42,2.42,0,0,1-.41-1.51h0a2.77,2.77,0,0,1,.38-1.47,2.44,2.44,0,0,1,1.12-.92,4.48,4.48,0,0,1,1.77-.32,4.6,4.6,0,0,1,1,.11,4.9,4.9,0,0,1,1.86.86l-.73,1a4.61,4.61,0,0,0-1-.58,3,3,0,0,0-1.06-.2,2.44,2.44,0,0,0-1.46.38,1.24,1.24,0,0,0-.53,1.07h0a1,1,0,0,0,.27.75,1.74,1.74,0,0,0,.67.4,9.3,9.3,0,0,0,1.12.27h.24a7.93,7.93,0,0,1,1.4.41,2.22,2.22,0,0,1,.94.76,2.4,2.4,0,0,1,.38,1.43h0a2.62,2.62,0,0,1-.4,1.45,2.54,2.54,0,0,1-1.16.91,4.8,4.8,0,0,1-1.83.31A6.44,6.44,0,0,1,2.52,605.19Z"/><rect class="c" x="612.5" y="600.68" width="1" height="4.68"/><rect class="c" x="612.5" y="590.76" width="1" height="4.68"/><rect class="c" x="612.5" y="611.45" width="1" height="5.24"/><rect class="c" x="789.58" y="611.45" width="1" height="5.24"/><rect class="c" x="682.59" y="600.68" width="1" height="4.68"/><rect class="c" x="647.3" y="590.76" width="1" height="4.68"/><rect class="a" width="790.34" height="618.13"/><line class="f" x1="528.39" y1="241.53" x2="530.95" y2="241.53"/><line class="f" x1="528.39" y1="240.81" x2="528.39" y2="241.53"/><line class="f" x1="525.66" y1="241.53" x2="525.66" y2="190.34"/><line class="f" x1="458.77" y1="241.53" x2="525.66" y2="241.53"/><line class="f" x1="458.77" y1="244.94" x2="458.77" y2="241.53"/><line class="f" x1="428.05" y1="244.94" x2="458.77" y2="244.94"/><line class="f" x1="428.05" y1="241.53" x2="428.05" y2="244.94"/><line class="f" x1="351.27" y1="241.53" x2="428.05" y2="241.53"/><line class="f" x1="351.27" y1="244.94" x2="351.27" y2="241.53"/><line class="f" x1="320.55" y1="244.94" x2="351.26" y2="244.94"/><line class="f" x1="320.55" y1="241.53" x2="320.55" y2="244.94"/><line class="f" x1="264.75" y1="241.53" x2="320.55" y2="241.53"/><line class="f" x1="264.75" y1="190.34" x2="264.75" y2="241.53"/><line class="f" x1="525.66" y1="190.34" x2="264.75" y2="190.34"/><line class="f" x1="262.02" y1="241.53" x2="262.02" y2="240.81"/><line class="f" x1="259.63" y1="241.53" x2="262.02" y2="241.53"/><rect class="d" x="268.67" y="372.42" width="30.72" height="30.72"/><line class="f" x1="299.39" y1="403.13" x2="268.67" y2="403.13"/><line class="f" x1="268.67" y1="403.13" x2="268.67" y2="372.42"/><line class="f" x1="268.67" y1="372.42" x2="299.39" y2="372.42"/><line class="f" x1="299.39" y1="372.42" x2="299.39" y2="403.13"/><rect class="d" x="395.8" y="407.06" width="21.5" height="17.41"/><line class="f" x1="417.3" y1="424.46" x2="395.8" y2="424.46"/><line class="f" x1="395.8" y1="424.46" x2="395.8" y2="407.06"/><line class="f" x1="395.8" y1="407.06" x2="417.3" y2="407.06"/><line class="f" x1="417.3" y1="407.06" x2="417.3" y2="424.46"/><polygon class="g" points="522.76 424.46 448.7 424.46 448.7 403.64 501.94 403.64 501.94 342.21 522.76 342.21 522.76 403.98 522.76 424.46"/><line class="f" x1="522.76" y1="424.46" x2="448.7" y2="424.46"/><line class="f" x1="448.7" y1="424.46" x2="448.7" y2="403.64"/><line class="f" x1="448.7" y1="403.64" x2="501.94" y2="403.64"/><line class="f" x1="501.94" y1="403.64" x2="501.94" y2="342.21"/><line class="f" x1="501.94" y1="342.21" x2="522.76" y2="342.21"/><line class="f" x1="522.76" y1="342.21" x2="522.76" y2="403.98"/><line class="f" x1="522.76" y1="403.98" x2="522.76" y2="424.46"/><rect x="503.99" y="241.53" width="26.96" height="6.82"/><rect x="351.27" y="241.53" width="67.4" height="6.82"/><rect x="259.63" y="241.53" width="26.79" height="6.82"/><rect x="352.97" y="248.36" width="63.99" height="6.82"/><rect x="259.63" y="248.36" width="25.08" height="6.82"/><rect x="505.7" y="248.36" width="25.26" height="6.82"/><rect x="355.87" y="400.57" width="2.39" height="23.89"/><polygon class="h" points="267.82 369.17 361.68 369.17 361.68 371.56 358.26 371.56 358.26 373.27 355.87 373.27 355.87 371.56 267.82 371.56 267.82 369.17"/><polygon class="h" points="395.8 424.46 522.76 424.46 522.76 255.18 530.95 255.18 530.95 424.46 530.95 431.93 395.8 431.93 395.8 424.46"/><rect x="417.3" y="403.98" width="2.39" height="20.48"/><polygon class="h" points="259.63 255.18 267.82 255.18 267.82 424.46 358.26 424.46 358.26 431.93 259.63 431.93 259.63 424.46 259.63 255.18"/><rect x="394.1" y="428.73" width="1.71" height="3.21"/><rect x="267.82" y="403.98" width="30.72" height="3.41"/><polygon class="h" points="419.69 407.4 448.7 407.4 448.7 424.46 445.29 424.46 445.29 410.81 419.69 410.81 419.69 407.4"/><rect x="358.26" y="428.73" width="1.71" height="3.21"/><polygon class="h" points="262.36 241.53 262.36 240.81 263.55 240.81 263.55 190.34 265.09 190.34 265.09 241.53 262.36 241.53"/><polygon class="h" points="525.66 241.53 525.66 190.34 527.2 190.34 527.2 240.81 528.39 240.81 528.39 241.53 525.66 241.53"/><polygon class="h" points="392.39 369.17 394.1 369.17 394.1 269.52 379.76 269.52 379.76 255.18 382.15 255.18 382.15 267.13 394.1 267.13 394.1 255.18 396.49 255.18 396.49 369.17 419.69 369.17 419.69 373.27 417.3 373.27 417.3 371.56 392.39 371.56 392.39 369.17"/><line class="f" x1="530.95" y1="241.53" x2="503.99" y2="241.53"/><line class="f" x1="418.67" y1="241.53" x2="351.27" y2="241.53"/><line class="f" x1="522.76" y1="255.18" x2="505.7" y2="255.18"/><line class="f" x1="378.74" y1="255.18" x2="352.97" y2="255.18"/><line class="f" x1="259.63" y1="241.53" x2="286.42" y2="241.53"/><line class="f" x1="259.63" y1="255.18" x2="259.63" y2="255.18"/><line class="f" x1="505.7" y1="255.18" x2="505.7" y2="248.36"/><line class="f" x1="505.7" y1="255.18" x2="505.7" y2="248.36"/><line class="f" x1="416.96" y1="255.18" x2="416.96" y2="248.36"/><line class="f" x1="352.97" y1="255.18" x2="352.97" y2="248.36"/><line class="f" x1="284.71" y1="248.36" x2="284.71" y2="255.18"/><line class="f" x1="267.82" y1="255.18" x2="284.71" y2="255.18"/><line class="f" x1="525.66" y1="190.34" x2="525.66" y2="241.53"/><line class="f" x1="528.39" y1="240.81" x2="528.39" y2="241.53"/><line class="f" x1="527.2" y1="190.34" x2="525.66" y2="190.34"/><line class="f" x1="262.36" y1="240.81" x2="262.36" y2="241.53"/><line class="f" x1="265.09" y1="190.34" x2="265.09" y2="241.53"/><line class="f" x1="265.09" y1="190.34" x2="263.55" y2="190.34"/><line class="f" x1="503.99" y1="248.36" x2="503.99" y2="241.53"/><line class="f" x1="505.7" y1="248.36" x2="503.99" y2="248.36"/><line class="f" x1="351.27" y1="248.36" x2="351.27" y2="241.53"/><line class="f" x1="352.97" y1="248.36" x2="351.27" y2="248.36"/><line class="f" x1="418.67" y1="248.36" x2="418.67" y2="241.53"/><line class="f" x1="416.96" y1="248.36" x2="418.67" y2="248.36"/><line class="f" x1="286.42" y1="248.36" x2="286.42" y2="241.53"/><line class="f" x1="284.71" y1="248.36" x2="286.42" y2="248.36"/><line class="f" x1="396.49" y1="255.18" x2="416.96" y2="255.18"/><line class="f" x1="527.2" y1="190.34" x2="263.55" y2="190.34"/><line class="f" x1="496.31" y1="255.18" x2="441.71" y2="255.18"/><line class="f" x1="284.71" y1="255.18" x2="318.84" y2="255.18"/><line class="f" x1="318.84" y1="255.18" x2="352.97" y2="255.18"/><line class="f" x1="284.71" y1="255.18" x2="318.84" y2="255.18"/><line class="f" x1="318.84" y1="255.18" x2="318.84" y2="248.36"/><line class="f" x1="320.55" y1="248.36" x2="320.55" y2="241.53"/><line class="f" x1="286.42" y1="241.53" x2="320.55" y2="241.53"/><line class="f" x1="318.84" y1="255.18" x2="352.97" y2="255.18"/><line class="f" x1="320.55" y1="244.94" x2="351.26" y2="244.94"/><line class="f" x1="318.84" y1="251.09" x2="318.84" y2="248.36"/><line class="f" x1="321.57" y1="249.04" x2="321.57" y2="248.36"/><line class="f" x1="321.57" y1="248.36" x2="318.84" y2="248.36"/><line class="f" x1="318.84" y1="248.36" x2="318.84" y2="251.09"/><line class="f" x1="318.84" y1="251.09" x2="320.21" y2="251.09"/><line class="f" x1="320.21" y1="251.77" x2="322.94" y2="251.77"/><line class="f" x1="322.94" y1="251.77" x2="322.94" y2="249.04"/><line class="f" x1="322.94" y1="249.04" x2="320.21" y2="249.04"/><line class="f" x1="320.21" y1="249.04" x2="320.21" y2="251.77"/><line class="f" x1="350.24" y1="249.04" x2="350.24" y2="248.36"/><line class="f" x1="350.24" y1="248.36" x2="352.97" y2="248.36"/><line class="f" x1="352.97" y1="248.36" x2="352.97" y2="251.09"/><line class="f" x1="352.97" y1="251.09" x2="351.61" y2="251.09"/><line class="f" x1="351.61" y1="251.77" x2="348.88" y2="251.77"/><line class="f" x1="348.88" y1="251.77" x2="348.88" y2="249.04"/><line class="f" x1="348.88" y1="249.04" x2="351.61" y2="249.04"/><line class="f" x1="351.61" y1="249.04" x2="351.61" y2="251.77"/><line class="f" x1="322.94" y1="251.77" x2="348.88" y2="251.77"/><line class="f" x1="348.88" y1="249.04" x2="322.94" y2="249.04"/><line class="f" x1="322.94" y1="250.4" x2="348.88" y2="250.4"/><line class="f" x1="316.11" y1="249.04" x2="316.11" y2="248.36"/><line class="f" x1="316.11" y1="248.36" x2="318.84" y2="248.36"/><line class="f" x1="318.84" y1="248.36" x2="318.84" y2="251.09"/><line class="f" x1="318.84" y1="251.09" x2="317.48" y2="251.09"/><line class="f" x1="317.48" y1="251.77" x2="314.75" y2="251.77"/><line class="f" x1="314.75" y1="251.77" x2="314.75" y2="249.04"/><line class="f" x1="314.75" y1="249.04" x2="317.48" y2="249.04"/><line class="f" x1="317.48" y1="249.04" x2="317.48" y2="251.77"/><line class="f" x1="287.44" y1="249.04" x2="287.44" y2="248.36"/><line class="f" x1="287.44" y1="248.36" x2="284.71" y2="248.36"/><line class="f" x1="284.71" y1="248.36" x2="284.71" y2="251.09"/><line class="f" x1="284.71" y1="251.09" x2="286.08" y2="251.09"/><line class="f" x1="286.08" y1="251.77" x2="288.81" y2="251.77"/><line class="f" x1="288.81" y1="251.77" x2="288.81" y2="249.04"/><line class="f" x1="288.81" y1="249.04" x2="286.08" y2="249.04"/><line class="f" x1="286.08" y1="249.04" x2="286.08" y2="251.77"/><line class="f" x1="314.75" y1="251.77" x2="288.81" y2="251.77"/><line class="f" x1="288.81" y1="249.04" x2="314.75" y2="249.04"/><line class="f" x1="314.75" y1="250.4" x2="288.81" y2="250.4"/><line class="f" x1="505.7" y1="255.18" x2="451.09" y2="255.18"/><line class="f" x1="451.09" y1="255.18" x2="416.96" y2="255.18"/><line class="f" x1="503.99" y1="241.53" x2="449.39" y2="241.53"/><line class="f" x1="451.09" y1="255.18" x2="451.09" y2="248.36"/><line class="f" x1="449.39" y1="248.36" x2="449.39" y2="241.53"/><line class="f" x1="449.39" y1="244.94" x2="418.67" y2="244.94"/><line class="f" x1="448.36" y1="249.04" x2="448.36" y2="248.36"/><line class="f" x1="448.36" y1="248.36" x2="451.09" y2="248.36"/><line class="f" x1="451.09" y1="248.36" x2="451.09" y2="251.09"/><line class="f" x1="451.09" y1="251.09" x2="449.73" y2="251.09"/><line class="f" x1="449.73" y1="251.77" x2="447" y2="251.77"/><line class="f" x1="447" y1="251.77" x2="447" y2="249.04"/><line class="f" x1="447" y1="249.04" x2="449.73" y2="249.04"/><line class="f" x1="449.73" y1="249.04" x2="449.73" y2="251.77"/><line class="f" x1="418.33" y1="251.77" x2="421.06" y2="251.77"/><line class="f" x1="421.06" y1="251.77" x2="421.06" y2="249.04"/><line class="f" x1="421.06" y1="249.04" x2="418.33" y2="249.04"/><line class="f" x1="418.33" y1="249.04" x2="418.33" y2="251.77"/><line class="f" x1="447" y1="251.77" x2="421.06" y2="251.77"/><line class="f" x1="421.06" y1="249.04" x2="447" y2="249.04"/><line class="f" x1="447" y1="250.4" x2="421.06" y2="250.4"/><line class="f" x1="419.69" y1="249.04" x2="419.69" y2="248.36"/><line class="f" x1="419.69" y1="248.36" x2="416.96" y2="248.36"/><line class="f" x1="416.96" y1="248.36" x2="416.96" y2="251.09"/><line class="f" x1="416.96" y1="251.09" x2="418.33" y2="251.09"/><line class="f" x1="451.09" y1="251.09" x2="453.82" y2="251.09"/><line class="f" x1="453.82" y1="251.09" x2="453.82" y2="248.36"/><line class="f" x1="453.82" y1="248.36" x2="451.09" y2="248.36"/><line class="f" x1="451.09" y1="248.36" x2="451.09" y2="251.09"/><line class="f" x1="453.82" y1="251.09" x2="477.03" y2="251.09"/><line class="f" x1="453.82" y1="249.72" x2="477.03" y2="249.72"/><line class="f" x1="453.82" y1="248.36" x2="477.03" y2="248.36"/><line class="f" x1="502.97" y1="249.04" x2="502.97" y2="248.36"/><line class="f" x1="502.97" y1="248.36" x2="505.7" y2="248.36"/><line class="f" x1="505.7" y1="248.36" x2="505.7" y2="251.09"/><line class="f" x1="505.7" y1="251.09" x2="504.33" y2="251.09"/><line class="f" x1="504.33" y1="251.77" x2="501.6" y2="251.77"/><line class="f" x1="501.6" y1="251.77" x2="501.6" y2="249.04"/><line class="f" x1="501.6" y1="249.04" x2="504.33" y2="249.04"/><line class="f" x1="504.33" y1="249.04" x2="504.33" y2="251.77"/><line class="f" x1="501.6" y1="251.77" x2="481.13" y2="251.77"/><line class="f" x1="481.13" y1="249.04" x2="501.6" y2="249.04"/><line class="f" x1="501.6" y1="250.4" x2="481.13" y2="250.4"/><line class="f" x1="479.76" y1="249.04" x2="479.76" y2="248.36"/><line class="f" x1="479.76" y1="248.36" x2="477.03" y2="248.36"/><line class="f" x1="477.03" y1="248.36" x2="477.03" y2="251.09"/><line class="f" x1="477.03" y1="251.09" x2="478.4" y2="251.09"/><line class="f" x1="478.4" y1="251.77" x2="481.13" y2="251.77"/><line class="f" x1="481.13" y1="251.77" x2="481.13" y2="249.04"/><line class="f" x1="481.13" y1="249.04" x2="478.39" y2="249.04"/><line class="f" x1="478.4" y1="249.04" x2="478.4" y2="251.77"/><line class="f" x1="522.76" y1="424.46" x2="448.7" y2="424.46"/><line class="f" x1="445.29" y1="424.46" x2="419.69" y2="424.46"/><line class="f" x1="417.3" y1="424.46" x2="395.8" y2="424.46"/><line class="f" x1="355.87" y1="424.46" x2="298.53" y2="424.46"/><line class="f" x1="295.12" y1="424.46" x2="267.82" y2="424.46"/><line class="f" x1="522.76" y1="255.18" x2="522.76" y2="424.46"/><line class="f" x1="267.82" y1="255.18" x2="267.82" y2="369.17"/><line class="f" x1="267.82" y1="371.56" x2="267.82" y2="403.98"/><line class="f" x1="267.82" y1="407.4" x2="267.82" y2="424.46"/><line class="f" x1="530.95" y1="255.18" x2="530.95" y2="424.46"/><line class="f" x1="396.49" y1="255.18" x2="396.49" y2="369.17"/><line class="f" x1="267.82" y1="371.56" x2="355.87" y2="371.56"/><line class="f" x1="267.82" y1="369.17" x2="361.67" y2="369.17"/><line class="f" x1="355.87" y1="371.56" x2="355.87" y2="373.27"/><line class="f" x1="355.87" y1="400.57" x2="355.87" y2="424.46"/><line class="f" x1="417.3" y1="403.98" x2="417.3" y2="424.46"/><line class="f" x1="419.69" y1="369.17" x2="419.69" y2="373.27"/><line class="f" x1="419.69" y1="410.81" x2="419.69" y2="424.46"/><line class="f" x1="448.7" y1="407.4" x2="448.7" y2="424.46"/><line class="f" x1="445.29" y1="410.81" x2="445.29" y2="424.46"/><line class="f" x1="358.26" y1="400.57" x2="355.87" y2="400.57"/><line class="f" x1="358.26" y1="373.27" x2="355.87" y2="373.27"/><line class="f" x1="358.26" y1="371.56" x2="361.67" y2="371.56"/><line class="f" x1="361.67" y1="371.56" x2="361.67" y2="369.17"/><line class="f" x1="392.39" y1="371.56" x2="392.39" y2="369.17"/><line class="f" x1="392.39" y1="369.17" x2="394.1" y2="369.17"/><line class="f" x1="394.1" y1="428.73" x2="394.1" y2="431.93"/><line class="f" x1="394.1" y1="428.73" x2="395.8" y2="428.73"/><line class="f" x1="395.8" y1="428.73" x2="395.8" y2="424.46"/><line class="f" x1="392.39" y1="371.56" x2="417.3" y2="371.56"/><line class="f" x1="396.49" y1="369.17" x2="419.69" y2="369.17"/><line class="f" x1="417.3" y1="373.27" x2="419.69" y2="373.27"/><line class="f" x1="419.69" y1="403.98" x2="417.3" y2="403.98"/><line class="f" x1="417.3" y1="373.27" x2="417.3" y2="371.56"/><line class="f" x1="448.7" y1="407.4" x2="419.69" y2="407.4"/><line class="f" x1="445.29" y1="410.81" x2="419.69" y2="410.81"/><line class="f" x1="419.69" y1="407.4" x2="419.69" y2="403.98"/><line class="f" x1="530.95" y1="424.46" x2="530.95" y2="424.46"/><line class="f" x1="298.54" y1="424.46" x2="295.12" y2="424.46"/><line class="f" x1="351.61" y1="251.77" x2="351.61" y2="283.17"/><g class="i"><path class="f" d="M351.61,283.17a31.4,31.4,0,0,1-31.4-31.4"/></g><line class="f" x1="418.33" y1="251.77" x2="418.33" y2="283.17"/><g class="i"><path class="f" d="M449.73,251.77a31.4,31.4,0,0,1-31.4,31.4"/></g><line class="f" x1="530.95" y1="383.17" x2="530.95" y2="383.17"/><line class="f" x1="530.95" y1="383.17" x2="530.95" y2="403.64"/><line class="f" x1="530.95" y1="403.64" x2="530.95" y2="403.64"/><line class="f" x1="530.95" y1="352.45" x2="530.95" y2="352.45"/><line class="f" x1="530.95" y1="352.45" x2="530.95" y2="424.46"/><line class="f" x1="530.95" y1="424.46" x2="530.95" y2="424.46"/><line class="f" x1="456.87" y1="411.47" x2="461.7" y2="416.29"/><line class="f" x1="461.7" y1="411.47" x2="456.87" y2="416.29"/><line class="f" x1="459.28" y1="417.29" x2="459.28" y2="410.47"/><line class="f" x1="455.87" y1="413.88" x2="462.7" y2="413.88"/><line class="f" x1="469.52" y1="403.64" x2="469.52" y2="424.12"/><line class="f" x1="449.04" y1="403.64" x2="469.52" y2="403.64"/><line class="f" x1="522.76" y1="393.4" x2="522.76" y2="372.93"/><line class="f" x1="522.76" y1="372.93" x2="501.94" y2="372.93"/><line class="f" x1="501.94" y1="372.93" x2="501.94" y2="393.4"/><line class="f" x1="501.94" y1="393.4" x2="522.76" y2="393.4"/><g class="i"><path class="f" d="M518.15,383.17a6,6,0,1,0-6,6,6,6,0,0,0,6-6"/><path class="f" d="M517.13,383.17a5,5,0,1,0-5,4.94,4.94,4.94,0,0,0,5-4.94"/><path class="f" d="M274.65,398a.86.86,0,0,0-.86-.85.85.85,0,1,0,0,1.7.86.86,0,0,0,.86-.85"/></g><line class="f" x1="299.39" y1="403.13" x2="299.39" y2="372.42"/><line class="f" x1="299.39" y1="372.42" x2="268.67" y2="372.42"/><line class="f" x1="268.67" y1="372.42" x2="268.67" y2="403.13"/><line class="f" x1="268.67" y1="403.13" x2="299.39" y2="403.13"/><line class="f" x1="297.68" y1="398.01" x2="297.68" y2="377.54"/><line class="f" x1="294.27" y1="374.12" x2="273.79" y2="374.12"/><line class="f" x1="270.38" y1="377.53" x2="270.38" y2="398.01"/><line class="f" x1="273.79" y1="401.42" x2="294.27" y2="401.42"/><g class="i"><path class="f" d="M297.68,398a3.41,3.41,0,0,1-3.41,3.41"/><path class="f" d="M294.27,374.12a3.41,3.41,0,0,1,3.41,3.41"/><path class="f" d="M273.79,401.42a3.41,3.41,0,0,1-3.41-3.41"/><path class="f" d="M270.38,377.53a3.41,3.41,0,0,1,3.41-3.41"/></g><line class="f" x1="355.87" y1="419.34" x2="298.53" y2="419.34"/><line class="f" x1="316.97" y1="372.42" x2="316.97" y2="375.83"/><line class="f" x1="316.97" y1="375.83" x2="337.44" y2="375.83"/><line class="f" x1="337.44" y1="375.83" x2="337.44" y2="372.42"/><line class="f" x1="337.44" y1="372.42" x2="336.42" y2="372.42"/><line class="f" x1="336.42" y1="372.42" x2="336.42" y2="374.8"/><line class="f" x1="336.42" y1="374.8" x2="317.99" y2="374.8"/><line class="f" x1="317.99" y1="374.8" x2="317.99" y2="372.42"/><line class="f" x1="317.99" y1="372.42" x2="316.96" y2="372.42"/><line class="f" x1="316.97" y1="372.42" x2="316.97" y2="375.83"/><line class="f" x1="337.44" y1="372.42" x2="337.44" y2="375.83"/><line class="f" x1="317.99" y1="372.42" x2="317.99" y2="374.8"/><line class="f" x1="336.42" y1="372.42" x2="336.42" y2="374.8"/><line class="f" x1="316.97" y1="375.83" x2="337.44" y2="375.83"/><line class="f" x1="316.97" y1="374.8" x2="337.44" y2="374.8"/><line class="f" x1="316.97" y1="372.42" x2="317.99" y2="372.42"/><line class="f" x1="336.42" y1="372.42" x2="337.44" y2="372.42"/><g class="i"><path class="f" d="M518.31,412.21a7.68,7.68,0,1,0-7.68,7.68,7.68,7.68,0,0,0,7.68-7.68"/><path class="f" d="M517.11,412.21a6.48,6.48,0,1,0-6.48,6.48,6.49,6.49,0,0,0,6.48-6.48"/><path class="f" d="M513.77,414.5a.85.85,0,0,0-1.7,0,.85.85,0,1,0,1.7,0"/><path class="f" d="M520.56,357.66a3.35,3.35,0,1,0-3.35,3.35,3.35,3.35,0,0,0,3.35-3.35"/></g><line class="f" x1="522.42" y1="352.45" x2="501.94" y2="352.45"/><line class="f" x1="501.94" y1="352.45" x2="501.94" y2="372.93"/><line class="f" x1="501.94" y1="372.93" x2="522.42" y2="372.93"/><g class="i"><path class="f" d="M510.51,357.66a3.36,3.36,0,1,0-3.35,3.35,3.36,3.36,0,0,0,3.35-3.35"/><path class="f" d="M510.51,367.72a3.36,3.36,0,1,0-3.35,3.34,3.36,3.36,0,0,0,3.35-3.34"/></g><line class="f" x1="501.01" y1="370.14" x2="501.01" y2="355.24"/><line class="f" x1="490" y1="424.46" x2="490" y2="403.64"/><line class="f" x1="490" y1="403.64" x2="469.52" y2="403.64"/><line class="f" x1="469.52" y1="403.64" x2="469.52" y2="424.46"/><line class="f" x1="522.76" y1="342.21" x2="522.76" y2="424.46"/><line class="f" x1="522.76" y1="424.46" x2="448.7" y2="424.46"/><line class="f" x1="448.7" y1="424.46" x2="448.7" y2="403.64"/><line class="f" x1="448.7" y1="403.64" x2="501.94" y2="403.64"/><line class="f" x1="501.94" y1="403.64" x2="501.94" y2="342.21"/><line class="f" x1="501.94" y1="342.21" x2="522.76" y2="342.21"/><line class="f" x1="298.54" y1="403.98" x2="298.54" y2="407.4"/><line class="f" x1="298.54" y1="403.98" x2="267.82" y2="403.98"/><line class="f" x1="295.12" y1="407.4" x2="267.82" y2="407.4"/><line class="f" x1="295.12" y1="407.4" x2="298.53" y2="407.4"/><line class="f" x1="359.97" y1="428.73" x2="359.97" y2="431.93"/><line class="f" x1="359.97" y1="428.73" x2="358.26" y2="428.73"/><line class="f" x1="358.26" y1="400.57" x2="358.26" y2="428.73"/><line class="f" x1="358.26" y1="371.56" x2="358.26" y2="373.27"/><line class="f" x1="394.1" y1="255.18" x2="394.1" y2="267.13"/><line class="f" x1="394.1" y1="269.52" x2="394.1" y2="369.17"/><line class="f" x1="394.1" y1="269.52" x2="379.76" y2="269.52"/><line class="f" x1="379.76" y1="269.52" x2="379.76" y2="255.18"/><line class="f" x1="394.1" y1="267.13" x2="382.15" y2="267.13"/><line class="f" x1="382.15" y1="267.13" x2="382.15" y2="255.18"/><line class="f" x1="382.15" y1="255.18" x2="394.1" y2="255.18"/><line class="f" x1="419.69" y1="410.81" x2="419.69" y2="407.4"/><line class="f" x1="390.68" y1="369.17" x2="363.38" y2="369.17"/><line class="f" x1="390.68" y1="369.17" x2="390.68" y2="341.87"/><g class="i"><path class="f" d="M363.38,369.17a27.3,27.3,0,0,1,27.3-27.3"/></g><line class="f" x1="390.68" y1="371.56" x2="390.68" y2="369.17"/><line class="f" x1="363.38" y1="369.17" x2="363.38" y2="371.56"/><line class="f" x1="363.38" y1="369.17" x2="361.68" y2="369.17"/><line class="f" x1="363.38" y1="371.56" x2="361.68" y2="371.56"/><line class="f" x1="392.39" y1="369.17" x2="390.68" y2="369.17"/><line class="f" x1="392.39" y1="371.56" x2="390.68" y2="371.56"/><line class="f" x1="390.68" y1="371.56" x2="383.86" y2="371.56"/><line class="f" x1="380.1" y1="371.56" x2="379.34" y2="371.56"/><line class="f" x1="375.58" y1="371.56" x2="374.81" y2="371.56"/><line class="f" x1="371.06" y1="371.56" x2="370.21" y2="371.56"/><line class="f" x1="370.21" y1="371.56" x2="363.38" y2="371.56"/><line class="f" x1="390.68" y1="369.17" x2="390.68" y2="368.32"/><line class="f" x1="390.68" y1="368.32" x2="394.1" y2="368.32"/><line class="f" x1="394.1" y1="368.32" x2="394.1" y2="369.17"/><line class="f" x1="390.68" y1="371.56" x2="390.68" y2="372.42"/><line class="f" x1="390.68" y1="372.42" x2="394.1" y2="372.42"/><line class="f" x1="394.1" y1="372.42" x2="394.1" y2="371.56"/><line class="f" x1="363.38" y1="368.32" x2="359.97" y2="368.32"/><line class="f" x1="359.97" y1="368.32" x2="359.97" y2="369.17"/><line class="f" x1="363.38" y1="371.56" x2="363.38" y2="372.42"/><line class="f" x1="363.38" y1="372.42" x2="359.97" y2="372.42"/><line class="f" x1="359.97" y1="372.42" x2="359.97" y2="371.56"/><line class="f" x1="361.67" y1="428.73" x2="392.39" y2="428.73"/><line class="f" x1="361.67" y1="428.73" x2="361.67" y2="398.01"/><g class="i"><path class="f" d="M361.67,398a30.72,30.72,0,0,1,30.72,30.72"/></g><line class="f" x1="361.67" y1="431.93" x2="361.67" y2="428.73"/><line class="f" x1="392.39" y1="428.73" x2="392.39" y2="431.93"/><line class="f" x1="392.39" y1="428.73" x2="394.1" y2="428.73"/><line class="f" x1="359.97" y1="428.73" x2="361.67" y2="428.73"/><line class="f" x1="358.26" y1="398.86" x2="358.26" y2="374.97"/><line class="f" x1="358.26" y1="398.86" x2="382.15" y2="398.86"/><g class="i"><path class="f" d="M358.26,375a23.89,23.89,0,0,1,23.89,23.89"/></g><line class="f" x1="355.87" y1="398.86" x2="358.26" y2="398.86"/><line class="f" x1="358.26" y1="374.98" x2="355.87" y2="374.98"/><line class="f" x1="358.26" y1="374.98" x2="358.26" y2="373.27"/><line class="f" x1="355.87" y1="374.98" x2="355.87" y2="373.27"/><line class="f" x1="358.26" y1="400.57" x2="358.26" y2="398.86"/><line class="f" x1="355.87" y1="400.57" x2="355.87" y2="398.86"/><line class="f" x1="355.87" y1="398.86" x2="355.87" y2="392.04"/><line class="f" x1="355.87" y1="388.28" x2="355.87" y2="387.52"/><line class="f" x1="355.87" y1="383.76" x2="355.87" y2="383"/><line class="f" x1="355.87" y1="381.8" x2="355.87" y2="374.98"/><line class="f" x1="358.26" y1="398.86" x2="359.11" y2="398.86"/><line class="f" x1="359.11" y1="398.86" x2="359.11" y2="402.28"/><line class="f" x1="359.11" y1="402.28" x2="358.26" y2="402.28"/><line class="f" x1="355.87" y1="398.86" x2="355.02" y2="398.86"/><line class="f" x1="355.02" y1="398.86" x2="355.02" y2="402.28"/><line class="f" x1="355.02" y1="402.28" x2="355.87" y2="402.28"/><line class="f" x1="359.11" y1="374.98" x2="359.11" y2="371.56"/><line class="f" x1="359.11" y1="371.56" x2="358.26" y2="371.56"/><line class="f" x1="355.87" y1="374.98" x2="355.02" y2="374.98"/><line class="f" x1="355.02" y1="374.98" x2="355.02" y2="371.56"/><line class="f" x1="355.02" y1="371.56" x2="355.87" y2="371.56"/><line class="f" x1="419.69" y1="402.28" x2="419.69" y2="374.97"/><line class="f" x1="419.69" y1="402.28" x2="447" y2="402.28"/><g class="i"><path class="f" d="M419.69,375A27.31,27.31,0,0,1,447,402.28"/></g><line class="f" x1="417.3" y1="402.28" x2="419.69" y2="402.28"/><line class="f" x1="419.69" y1="374.98" x2="417.3" y2="374.98"/><line class="f" x1="419.69" y1="374.98" x2="419.69" y2="373.27"/><line class="f" x1="417.3" y1="374.98" x2="417.3" y2="373.27"/><line class="f" x1="419.69" y1="403.98" x2="419.69" y2="402.28"/><line class="f" x1="417.3" y1="403.98" x2="417.3" y2="402.28"/><line class="f" x1="417.3" y1="402.28" x2="417.3" y2="395.45"/><line class="f" x1="417.3" y1="391.7" x2="417.3" y2="390.93"/><line class="f" x1="417.3" y1="387.18" x2="417.3" y2="386.41"/><line class="f" x1="417.3" y1="382.65" x2="417.3" y2="381.8"/><line class="f" x1="417.3" y1="381.8" x2="417.3" y2="374.98"/><line class="f" x1="419.69" y1="402.28" x2="420.55" y2="402.28"/><line class="f" x1="420.55" y1="402.28" x2="420.55" y2="405.69"/><line class="f" x1="420.55" y1="405.69" x2="419.69" y2="405.69"/><line class="f" x1="417.3" y1="402.28" x2="416.45" y2="402.28"/><line class="f" x1="416.45" y1="402.28" x2="416.45" y2="405.69"/><line class="f" x1="416.45" y1="405.69" x2="417.3" y2="405.69"/><line class="f" x1="420.55" y1="374.98" x2="420.55" y2="371.56"/><line class="f" x1="420.55" y1="371.56" x2="419.69" y2="371.56"/><line class="f" x1="417.3" y1="374.98" x2="416.45" y2="374.98"/><line class="f" x1="416.45" y1="374.98" x2="416.45" y2="371.56"/><line class="f" x1="416.45" y1="371.56" x2="417.3" y2="371.56"/><line class="f" x1="502.29" y1="256.89" x2="454.51" y2="256.89"/><line class="f" x1="454.51" y1="256.89" x2="454.51" y2="260.3"/><line class="f" x1="454.51" y1="260.3" x2="502.29" y2="260.3"/><line class="f" x1="502.29" y1="260.3" x2="502.29" y2="256.89"/><line class="f" x1="312.02" y1="256.89" x2="284.71" y2="256.89"/><line class="f" x1="284.71" y1="256.89" x2="284.71" y2="259.04"/><line class="f" x1="284.71" y1="259.04" x2="312.02" y2="259.04"/><line class="f" x1="312.02" y1="259.04" x2="312.02" y2="256.89"/><g class="i"><path class="f" d="M317.14,258a1.71,1.71,0,1,0-1.71,1.71,1.71,1.71,0,0,0,1.71-1.71"/><path class="f" d="M507.4,258.6a1.71,1.71,0,1,0-1.7,1.7,1.7,1.7,0,0,0,1.7-1.7"/></g><rect x="295.12" y="407.4" width="3.41" height="17.07"/><line class="f" x1="298.54" y1="407.4" x2="298.54" y2="424.46"/><line class="f" x1="295.12" y1="403.98" x2="295.12" y2="424.46"/><line class="f" x1="351.27" y1="241.53" x2="344.44" y2="241.53"/><line class="f" x1="340.68" y1="241.53" x2="339.92" y2="241.53"/><line class="f" x1="336.16" y1="241.53" x2="335.39" y2="241.53"/><line class="f" x1="331.64" y1="241.53" x2="327.37" y2="241.53"/><line class="f" x1="327.37" y1="241.53" x2="320.55" y2="241.53"/><line class="f" x1="449.39" y1="241.53" x2="442.56" y2="241.53"/><line class="f" x1="438.81" y1="241.53" x2="438.04" y2="241.53"/><line class="f" x1="434.28" y1="241.53" x2="433.52" y2="241.53"/><line class="f" x1="429.76" y1="241.53" x2="425.5" y2="241.53"/><line class="f" x1="425.5" y1="241.53" x2="418.67" y2="241.53"/><line class="f" x1="295.12" y1="407.4" x2="295.12" y2="424.46"/><line class="f" x1="295.12" y1="424.46" x2="267.82" y2="424.46"/><line class="f" x1="267.82" y1="424.46" x2="291.71" y2="421.05"/><line class="f" x1="291.71" y1="421.05" x2="295.12" y2="407.4"/><line class="f" x1="445.29" y1="410.81" x2="445.29" y2="424.46"/><line class="f" x1="445.29" y1="424.46" x2="419.69" y2="424.46"/><line class="f" x1="419.69" y1="424.46" x2="441.88" y2="421.05"/><line class="f" x1="441.88" y1="421.05" x2="445.29" y2="410.81"/><rect class="d" x="466.46" y="296.14" width="17.06" height="27.3"/><line class="f" x1="466.46" y1="323.44" x2="483.52" y2="323.44"/><line class="f" x1="466.46" y1="296.14" x2="466.46" y2="323.44"/><line class="f" x1="483.52" y1="296.14" x2="466.46" y2="296.14"/><line class="f" x1="483.52" y1="323.44" x2="483.52" y2="296.14"/><rect class="d" x="298.53" y="419.34" width="57.34" height="5.12"/><line class="f" x1="355.87" y1="424.46" x2="298.53" y2="424.46"/><line class="f" x1="298.54" y1="424.46" x2="298.54" y2="419.34"/><line class="f" x1="298.54" y1="419.34" x2="355.87" y2="419.34"/><line class="f" x1="355.87" y1="419.34" x2="355.87" y2="424.46"/><rect class="d" x="336.42" y="372.42" width="1.02" height="2.39"/><line class="f" x1="336.42" y1="372.42" x2="336.42" y2="374.8"/><line class="f" x1="337.44" y1="372.42" x2="336.42" y2="372.42"/><line class="f" x1="337.44" y1="374.8" x2="337.44" y2="372.42"/><line class="f" x1="336.42" y1="374.8" x2="337.44" y2="374.8"/><polygon class="d" points="336.42 374.81 317.99 374.81 316.96 374.81 316.96 375.83 337.44 375.83 337.44 374.81 336.42 374.81"/><line class="f" x1="316.97" y1="375.83" x2="337.44" y2="375.83"/><line class="f" x1="316.97" y1="374.8" x2="316.97" y2="375.83"/><line class="f" x1="317.99" y1="374.8" x2="316.96" y2="374.8"/><line class="f" x1="336.42" y1="374.8" x2="317.99" y2="374.8"/><line class="f" x1="337.44" y1="374.8" x2="336.42" y2="374.8"/><line class="f" x1="337.44" y1="375.83" x2="337.44" y2="374.8"/><rect class="d" x="316.97" y="372.42" width="1.02" height="2.39"/><line class="f" x1="316.97" y1="372.42" x2="316.97" y2="374.8"/><line class="f" x1="317.99" y1="372.42" x2="316.96" y2="372.42"/><line class="f" x1="317.99" y1="374.8" x2="317.99" y2="372.42"/><line class="f" x1="316.97" y1="374.8" x2="317.99" y2="374.8"/><rect class="d" x="396.49" y="255.18" width="15.36" height="113.99"/><line class="f" x1="411.84" y1="369.17" x2="411.84" y2="255.18"/><line class="f" x1="396.49" y1="369.17" x2="411.84" y2="369.17"/><line class="f" x1="396.49" y1="255.18" x2="396.49" y2="369.17"/><line class="f" x1="411.84" y1="255.18" x2="396.49" y2="255.18"/><rect class="d" x="373.62" y="255.18" width="6.14" height="14.35"/><line class="f" x1="373.62" y1="255.18" x2="373.62" y2="269.53"/><line class="f" x1="379.76" y1="255.18" x2="373.62" y2="255.18"/><line class="f" x1="379.76" y1="269.53" x2="379.76" y2="255.18"/><line class="f" x1="373.62" y1="269.53" x2="379.76" y2="269.53"/><rect class="d" x="454.51" y="256.89" width="47.78" height="3.41"/><line class="f" x1="502.29" y1="260.3" x2="502.29" y2="256.89"/><line class="f" x1="454.51" y1="260.3" x2="502.29" y2="260.3"/><line class="f" x1="454.51" y1="256.89" x2="454.51" y2="260.3"/><line class="f" x1="502.29" y1="256.89" x2="454.51" y2="256.89"/><polygon class="g" points="507.4 258.6 506.9 259.8 505.7 260.3 504.49 259.8 503.99 258.6 504.49 257.39 505.7 256.89 506.9 257.39 507.4 258.6"/><g class="i"><path class="f" d="M507.4,258.6a1.71,1.71,0,0,1-3.41,0"/><path class="f" d="M504,258.6a1.71,1.71,0,1,1,3.41,0"/></g><rect class="d" x="284.71" y="256.89" width="27.3" height="2.15"/><line class="f" x1="312.02" y1="259.04" x2="312.02" y2="256.89"/><line class="f" x1="284.71" y1="259.04" x2="312.02" y2="259.04"/><line class="f" x1="284.71" y1="256.89" x2="284.71" y2="259.04"/><line class="f" x1="312.02" y1="256.89" x2="284.71" y2="256.89"/><polygon class="g" points="317.14 257.96 316.64 259.17 315.43 259.67 314.22 259.17 313.72 257.96 314.22 256.76 315.43 256.26 316.64 256.76 317.14 257.96"/><g class="i"><path class="f" d="M317.14,258a1.71,1.71,0,0,1-3.42,0"/><path class="f" d="M313.72,258a1.71,1.71,0,0,1,3.41,0"/></g><line class="f" x1="259.63" y1="274.98" x2="259.63" y2="274.98"/><line class="f" x1="259.63" y1="274.98" x2="259.63" y2="336.41"/><line class="f" x1="259.63" y1="336.41" x2="259.63" y2="336.41"/><line class="f" x1="259.63" y1="274.98" x2="259.63" y2="263.03"/><line class="f" x1="259.63" y1="263.03" x2="259.63" y2="263.03"/><line class="f" x1="259.63" y1="274.98" x2="259.63" y2="274.98"/><line class="f" x1="259.63" y1="348.35" x2="259.63" y2="336.41"/><line class="f" x1="259.63" y1="336.41" x2="259.63" y2="336.41"/><line class="f" x1="259.63" y1="348.35" x2="259.63" y2="348.35"/><polygon class="g" points="267.82 343.92 329.25 343.92 331.86 343.4 334.08 341.92 335.56 339.7 336.08 337.09 336.08 289.31 335.56 286.7 334.08 284.48 331.86 283 329.25 282.49 278.06 282.49 267.82 282.49 267.82 343.92"/><rect class="d" x="267.82" y="343.92" width="10.24" height="11.95"/><rect class="d" x="267.82" y="270.54" width="10.24" height="11.94"/><line class="f" x1="279.17" y1="311.27" x2="276.22" y2="310.45"/><line class="f" x1="279.17" y1="339.93" x2="276.22" y2="339.11"/><line class="f" x1="336.08" y1="289.31" x2="336.08" y2="337.09"/><line class="f" x1="329.25" y1="343.92" x2="267.82" y2="343.92"/><line class="f" x1="267.82" y1="343.92" x2="267.82" y2="282.49"/><line class="f" x1="267.82" y1="282.49" x2="329.25" y2="282.49"/><line class="f" x1="267.82" y1="343.92" x2="267.82" y2="355.86"/><line class="f" x1="267.82" y1="355.86" x2="278.06" y2="355.86"/><line class="f" x1="278.06" y1="355.86" x2="278.06" y2="343.92"/><line class="f" x1="278.06" y1="343.92" x2="267.82" y2="343.92"/><line class="f" x1="267.82" y1="270.54" x2="267.82" y2="282.49"/><line class="f" x1="267.82" y1="282.49" x2="278.06" y2="282.49"/><line class="f" x1="278.06" y1="282.49" x2="278.06" y2="270.54"/><line class="f" x1="278.06" y1="270.54" x2="267.82" y2="270.54"/><line class="f" x1="290.53" y1="343.92" x2="290.53" y2="282.49"/><line class="f" x1="295.65" y1="343.92" x2="295.65" y2="282.49"/><g class="i"><path class="f" d="M285,338a94.54,94.54,0,0,1-.49-9.66,96.17,96.17,0,0,1,.82-12.58"/><path class="f" d="M285,338a2.58,2.58,0,0,1,0,.4,1.82,1.82,0,0,1-1.83,1.82h-.09"/><path class="f" d="M283.14,340.25c-.27,0-.54,0-.81,0a14.63,14.63,0,0,1-3.16-.34"/><path class="f" d="M279.17,339.93c-1.71.16-3.43.25-5.15.25-.83,0-1.65,0-2.47-.06"/><path class="f" d="M271.55,340.12l-.12,0a.39.39,0,0,1-.38-.39v-.08"/><path class="f" d="M271.39,315.72q.23,4.63.23,9.27,0,7.35-.57,14.68"/><path class="f" d="M271.39,315.72a1.36,1.36,0,0,1,0-.2.94.94,0,0,1,.95-.95,1,1,0,0,1,.3.05"/><path class="f" d="M284.39,314.8a47.7,47.7,0,0,1-5.2.29,46.61,46.61,0,0,1-6.57-.47"/><path class="f" d="M284.39,314.8a.79.79,0,0,1,1,.75,1,1,0,0,1,0,.24"/><path class="f" d="M336.08,337.09a6.83,6.83,0,0,1-6.83,6.83"/><path class="f" d="M329.25,282.49a6.82,6.82,0,0,1,6.83,6.82"/><path class="f" d="M285,309.38a94.59,94.59,0,0,1-.49-9.67,96.17,96.17,0,0,1,.82-12.58"/><path class="f" d="M285,309.38a2.58,2.58,0,0,1,0,.39,1.83,1.83,0,0,1-1.83,1.83h-.09"/><path class="f" d="M283.14,311.59q-.4,0-.81,0a14.64,14.64,0,0,1-3.16-.35"/><path class="f" d="M279.17,311.27c-1.71.17-3.43.25-5.15.25-.83,0-1.65,0-2.47-.06"/><path class="f" d="M271.55,311.46l-.12,0a.38.38,0,0,1-.38-.39V311"/><path class="f" d="M271.39,287.06q.23,4.63.23,9.27,0,7.35-.57,14.68"/><path class="f" d="M271.39,287.06a1.23,1.23,0,0,1,0-.2,1,1,0,0,1,.95-.95,1,1,0,0,1,.3,0"/><path class="f" d="M284.39,286.14a45.21,45.21,0,0,1-11.77-.18"/><path class="f" d="M284.39,286.14a.79.79,0,0,1,1,.76.85.85,0,0,1,0,.23"/></g><polygon class="g" points="405.55 297.23 406.92 298.91 407.65 301.03 407.65 303.29 406.92 305.4 405.55 307.09 405.55 317.72 403.66 317.72 401.77 309.94 401.77 307.67 400.73 304.06 400.73 300.26 401.77 296.64 401.77 294.38 403.66 286.6 405.55 286.6 405.55 297.23"/><line class="f" x1="405.55" y1="297.23" x2="406.92" y2="298.91"/><line class="f" x1="406.92" y1="298.91" x2="407.65" y2="301.03"/><line class="f" x1="407.65" y1="301.03" x2="407.65" y2="303.29"/><line class="f" x1="407.65" y1="303.29" x2="406.92" y2="305.4"/><line class="f" x1="406.92" y1="305.4" x2="405.55" y2="307.09"/><line class="f" x1="405.55" y1="307.09" x2="405.55" y2="317.72"/><line class="f" x1="405.55" y1="317.72" x2="403.66" y2="317.72"/><line class="f" x1="403.66" y1="317.72" x2="401.77" y2="309.94"/><line class="f" x1="401.77" y1="309.94" x2="401.77" y2="307.67"/><line class="f" x1="401.77" y1="307.67" x2="400.73" y2="304.06"/><line class="f" x1="400.73" y1="304.06" x2="400.73" y2="300.26"/><line class="f" x1="400.73" y1="300.26" x2="401.77" y2="296.65"/><line class="f" x1="401.77" y1="296.64" x2="401.77" y2="294.38"/><line class="f" x1="401.77" y1="294.38" x2="403.66" y2="286.6"/><line class="f" x1="403.66" y1="286.6" x2="405.55" y2="286.6"/><line class="f" x1="405.55" y1="286.6" x2="405.55" y2="297.23"/><line class="f" x1="405.55" y1="286.6" x2="405.55" y2="317.72"/><line class="f" x1="401.77" y1="309.94" x2="401.77" y2="294.38"/><line class="f" x1="403.66" y1="286.6" x2="405.55" y2="286.6"/><line class="f" x1="404.8" y1="315.65" x2="404.8" y2="313.57"/><line class="f" x1="404.8" y1="313.57" x2="404.32" y2="313.57"/><line class="f" x1="404.32" y1="313.57" x2="404.32" y2="315.65"/><line class="f" x1="404.32" y1="315.65" x2="404.8" y2="315.65"/><line class="f" x1="404.8" y1="313.05" x2="404.8" y2="310.98"/><line class="f" x1="404.8" y1="310.98" x2="404.32" y2="310.98"/><line class="f" x1="404.32" y1="310.98" x2="404.32" y2="313.05"/><line class="f" x1="404.32" y1="313.05" x2="404.8" y2="313.05"/><line class="f" x1="403.66" y1="286.6" x2="403.66" y2="317.72"/><line class="f" x1="404.32" y1="310.46" x2="404.8" y2="310.46"/><line class="f" x1="404.8" y1="310.46" x2="404.8" y2="309.42"/><line class="f" x1="404.8" y1="309.42" x2="404.32" y2="309.42"/><line class="f" x1="404.32" y1="309.42" x2="404.32" y2="310.46"/><g class="i"><path class="f" d="M405.55,297.23a6.62,6.62,0,0,1,0,9.86"/></g><polygon class="g" points="490.69 289.37 490.19 289.74 490 290.33 490 327.54 490.19 328.15 490.69 328.56 490.21 328.76 490 329.24 490 330.27 490.46 331.97 491.71 333.22 493.42 333.68 518.33 333.68 518.82 333.48 519.01 333 519.01 262.69 518.82 262.21 518.33 262.01 490.69 262.01 490.24 262.16 489.98 262.56 490 263.03 490 288.29 490.07 289 490.69 289.37"/><polygon class="g" points="467.82 289.31 465.21 288.79 463 287.31 461.51 285.1 461 282.49 461 268.83 461.51 266.22 463 264.01 465.21 262.53 467.82 262.01 488.98 262.01 489.71 262.31 490.01 263.03 490.01 288.29 489.71 289.01 488.98 289.31 467.82 289.31"/><g class="i"><path class="f" d="M467.82,289.31a6.82,6.82,0,0,1-6.82-6.82"/></g><line class="f" x1="461" y1="282.49" x2="461" y2="268.83"/><g class="i"><path class="f" d="M461,268.83a6.82,6.82,0,0,1,6.82-6.82"/></g><line class="f" x1="467.82" y1="262.01" x2="488.98" y2="262.01"/><g class="i"><path class="f" d="M489,262a1,1,0,0,1,1,1"/></g><line class="f" x1="490.01" y1="263.03" x2="490.01" y2="288.29"/><g class="i"><path class="f" d="M490,288.29a1,1,0,0,1-1,1"/></g><line class="f" x1="488.98" y1="289.31" x2="467.82" y2="289.31"/><line class="f" x1="490.01" y1="329.24" x2="490.01" y2="330.27"/><line class="f" x1="493.42" y1="333.68" x2="518.33" y2="333.68"/><line class="f" x1="519.02" y1="333" x2="519.02" y2="329.24"/><line class="f" x1="518.33" y1="328.56" x2="490.69" y2="328.56"/><line class="f" x1="519.02" y1="329.24" x2="519.02" y2="289.31"/><line class="f" x1="519.02" y1="289.31" x2="516.63" y2="289.31"/><line class="f" x1="490.01" y1="290.33" x2="490.01" y2="327.54"/><line class="f" x1="491.03" y1="328.56" x2="508.14" y2="328.56"/><line class="f" x1="508.14" y1="289.31" x2="491.03" y2="289.31"/><line class="f" x1="516.63" y1="328.56" x2="510.19" y2="328.56"/><line class="f" x1="510.19" y1="289.31" x2="516.63" y2="289.31"/><line class="f" x1="490.01" y1="266.44" x2="490.01" y2="262.69"/><line class="f" x1="490.69" y1="262.01" x2="518.33" y2="262.01"/><line class="f" x1="519.02" y1="262.69" x2="519.02" y2="266.44"/><line class="f" x1="519.02" y1="266.44" x2="519.02" y2="289.31"/><line class="f" x1="519.02" y1="289.31" x2="516.63" y2="289.31"/><line class="f" x1="490.01" y1="288.29" x2="490.01" y2="268.15"/><line class="f" x1="508.14" y1="289.31" x2="491.03" y2="289.31"/><line class="f" x1="508.14" y1="289.31" x2="516.63" y2="289.31"/><line class="f" x1="461" y1="282.49" x2="461" y2="268.83"/><line class="f" x1="467.82" y1="262.01" x2="488.98" y2="262.01"/><line class="f" x1="490.01" y1="263.03" x2="490.01" y2="288.29"/><line class="f" x1="488.98" y1="289.31" x2="467.82" y2="289.31"/><line class="f" x1="517.65" y1="288.29" x2="517.65" y2="263.03"/><line class="f" x1="517.65" y1="290.33" x2="517.65" y2="327.54"/><g class="i"><path class="f" d="M519,333a.69.69,0,0,1-.69.68"/><path class="f" d="M518.33,328.56a.68.68,0,0,1,.69.68"/><path class="f" d="M490,329.24a.67.67,0,0,1,.68-.68"/><path class="f" d="M491,328.56a1,1,0,0,1-1-1"/><path class="f" d="M490,290.33a1,1,0,0,1,1-1"/><path class="f" d="M490,262.69a.67.67,0,0,1,.68-.68"/><path class="f" d="M518.33,262a.68.68,0,0,1,.69.68"/><path class="f" d="M491,289.31a1,1,0,0,1-1-1"/><path class="f" d="M489,262a1,1,0,0,1,1,1"/><path class="f" d="M490,288.29a1,1,0,0,1-1,1"/></g><line class="f" x1="517.65" y1="263.03" x2="494.4" y2="263.03"/><g class="i"><path class="f" d="M499.1,264.27a19.38,19.38,0,0,1,14.58,24.06"/><path class="f" d="M512.87,327.54a117.68,117.68,0,0,1,0-37.21"/><path class="f" d="M467.82,289.31a6.82,6.82,0,0,1-6.82-6.82"/><path class="f" d="M461,268.83a6.82,6.82,0,0,1,6.82-6.82"/><path class="f" d="M493.42,333.68a3.41,3.41,0,0,1-3.41-3.41"/></g><polygon class="g" points="472.77 348.98 476.59 342.36 477.05 340.65 476.6 338.94 475.35 337.68 469.45 334.25 467.75 333.8 466.05 334.25 464.8 335.5 460.98 342.12 464.51 342.58 467.79 343.96 470.61 346.14 472.77 348.98"/><polygon class="g" points="460.94 369.48 464.74 376.1 465.98 377.36 467.69 377.82 469.39 377.37 475.3 373.95 476.55 372.7 477.01 371 476.55 369.28 472.75 362.65 470.58 365.48 467.75 367.65 464.46 369.02 460.94 369.48"/><polygon class="g" points="449.16 348.94 441.54 348.93 439.84 349.38 438.59 350.63 438.13 352.34 438.12 359.18 438.57 360.89 439.82 362.15 441.52 362.61 449.14 362.62 447.78 359.32 447.32 355.78 447.8 352.24 449.16 348.94"/><polygon class="g" points="460.98 342.12 464.5 342.59 467.79 343.96 470.61 346.14 472.77 348.98 474.13 352.27 474.59 355.82 474.12 359.36 472.75 362.65 470.58 365.48 467.75 367.65 464.46 369.02 460.94 369.48 457.41 369.01 454.12 367.63 451.3 365.46 449.14 362.62 447.78 359.32 447.32 355.78 447.8 352.23 449.16 348.94 451.33 346.11 454.16 343.94 457.45 342.58 460.98 342.12"/><line class="f" x1="460.98" y1="342.12" x2="464.51" y2="342.59"/><line class="f" x1="464.51" y1="342.59" x2="467.79" y2="343.96"/><line class="f" x1="467.79" y1="343.96" x2="470.61" y2="346.14"/><line class="f" x1="470.61" y1="346.14" x2="472.77" y2="348.97"/><line class="f" x1="472.77" y1="348.98" x2="474.13" y2="352.28"/><line class="f" x1="474.13" y1="352.28" x2="474.59" y2="355.82"/><line class="f" x1="474.59" y1="355.82" x2="474.12" y2="359.36"/><line class="f" x1="474.12" y1="359.36" x2="472.75" y2="362.65"/><line class="f" x1="472.75" y1="362.65" x2="470.58" y2="365.48"/><line class="f" x1="470.58" y1="365.48" x2="467.75" y2="367.65"/><line class="f" x1="467.75" y1="367.65" x2="464.46" y2="369.02"/><line class="f" x1="464.46" y1="369.02" x2="460.93" y2="369.48"/><line class="f" x1="460.93" y1="369.48" x2="457.41" y2="369.01"/><line class="f" x1="457.41" y1="369.01" x2="454.12" y2="367.63"/><line class="f" x1="454.12" y1="367.63" x2="451.3" y2="365.46"/><line class="f" x1="451.3" y1="365.46" x2="449.14" y2="362.62"/><line class="f" x1="449.14" y1="362.62" x2="447.78" y2="359.32"/><line class="f" x1="447.78" y1="359.32" x2="447.32" y2="355.78"/><line class="f" x1="447.32" y1="355.78" x2="447.8" y2="352.24"/><line class="f" x1="447.8" y1="352.23" x2="449.16" y2="348.94"/><line class="f" x1="449.16" y1="348.94" x2="451.33" y2="346.11"/><line class="f" x1="451.33" y1="346.11" x2="454.16" y2="343.94"/><line class="f" x1="454.16" y1="343.94" x2="457.45" y2="342.58"/><line class="f" x1="457.45" y1="342.58" x2="460.98" y2="342.12"/><g class="i"><path class="f" d="M474.59,355.82h0a13.64,13.64,0,1,1-27.27,0"/><path class="f" d="M447.32,355.77h0a13.64,13.64,0,1,1,27.27.05"/></g><line class="f" x1="474.5" y1="339.16" x2="468.6" y2="335.73"/><line class="f" x1="464.8" y1="335.5" x2="460.98" y2="342.12"/><line class="f" x1="475.35" y1="337.68" x2="469.45" y2="334.26"/><line class="f" x1="472.77" y1="348.98" x2="476.59" y2="342.36"/><line class="f" x1="468.54" y1="375.88" x2="474.45" y2="372.47"/><line class="f" x1="476.55" y1="369.28" x2="472.75" y2="362.65"/><line class="f" x1="469.39" y1="377.36" x2="475.3" y2="373.95"/><line class="f" x1="460.93" y1="369.48" x2="464.74" y2="376.1"/><line class="f" x1="439.83" y1="352.34" x2="439.82" y2="359.18"/><line class="f" x1="441.52" y1="362.61" x2="449.14" y2="362.62"/><line class="f" x1="438.13" y1="352.34" x2="438.12" y2="359.18"/><line class="f" x1="449.16" y1="348.94" x2="441.54" y2="348.93"/><g class="i"><path class="f" d="M466.27,336.36a1.69,1.69,0,0,1,1.48-.85,1.6,1.6,0,0,1,.85.23"/><path class="f" d="M474.5,339.16a1.72,1.72,0,0,1,.85,1.49,1.69,1.69,0,0,1-.23.85"/><path class="f" d="M464.8,335.5a3.37,3.37,0,0,1,2.95-1.7,3.26,3.26,0,0,1,1.7.46"/><path class="f" d="M475.35,337.68a3.43,3.43,0,0,1,1.24,4.68"/><path class="f" d="M475.07,370.14a1.69,1.69,0,0,1,.23.85,1.72,1.72,0,0,1-.85,1.48"/><path class="f" d="M468.54,375.88a1.69,1.69,0,0,1-.85.23,1.72,1.72,0,0,1-1.48-.86"/><path class="f" d="M476.55,369.28A3.44,3.44,0,0,1,475.3,374"/><path class="f" d="M469.39,377.36a3.39,3.39,0,0,1-4.65-1.25"/><path class="f" d="M441.52,360.9a1.71,1.71,0,0,1-1.7-1.71"/><path class="f" d="M439.83,352.35h0a1.7,1.7,0,0,1,1.71-1.71"/><path class="f" d="M441.52,362.61h0a3.43,3.43,0,0,1-3.41-3.43"/><path class="f" d="M438.13,352.34a3.4,3.4,0,0,1,3.41-3.41"/></g><polygon class="g" points="328.91 419.34 346.66 419.34 347.02 419.19 347.17 418.83 347.17 404.84 347.02 404.48 346.66 404.33 328.91 404.33 328.55 404.48 328.4 404.84 328.4 418.83 328.55 419.19 328.91 419.34"/><g class="i"><path class="f" d="M328.91,419.34a.51.51,0,0,1-.51-.51"/></g><line class="f" x1="328.4" y1="404.84" x2="328.4" y2="418.83"/><g class="i"><path class="f" d="M328.4,404.84a.51.51,0,0,1,.51-.51"/></g><line class="f" x1="346.66" y1="404.33" x2="328.91" y2="404.33"/><g class="i"><path class="f" d="M346.66,404.33a.51.51,0,0,1,.51.51"/></g><line class="f" x1="347.17" y1="418.83" x2="347.17" y2="404.84"/><g class="i"><path class="f" d="M347.17,418.83a.51.51,0,0,1-.51.51"/></g><line class="f" x1="328.91" y1="419.34" x2="346.66" y2="419.34"/><line class="f" x1="329.93" y1="415.59" x2="345.63" y2="415.59"/><line class="f" x1="346.15" y1="415.08" x2="346.15" y2="405.86"/><line class="f" x1="345.63" y1="405.35" x2="329.93" y2="405.35"/><line class="f" x1="329.42" y1="405.86" x2="329.42" y2="415.08"/><g class="i"><path class="f" d="M346.15,415.08a.51.51,0,0,1-.52.51"/><path class="f" d="M345.63,405.35a.51.51,0,0,1,.52.51"/><path class="f" d="M329.42,405.86a.51.51,0,0,1,.51-.51"/><path class="f" d="M329.93,415.59a.51.51,0,0,1-.51-.51"/></g><polygon class="g" points="336.93 417.3 337.07 415.86 337.18 415.54 337.4 413.73 337.53 413.49 337.78 413.4 338.04 413.49 338.16 413.73 338.39 415.54 338.5 415.86 338.64 417.3 338.39 417.9 337.78 418.15 337.18 417.9 336.93 417.3"/><line class="f" x1="336.93" y1="417.29" x2="337.07" y2="415.86"/><g class="i"><path class="f" d="M337.07,415.86a.72.72,0,0,1,.11-.32"/></g><line class="f" x1="337.18" y1="415.54" x2="337.4" y2="413.73"/><g class="i"><path class="f" d="M337.4,413.73a.39.39,0,0,1,.38-.33.37.37,0,0,1,.38.33"/></g><line class="f" x1="338.16" y1="413.73" x2="338.39" y2="415.54"/><g class="i"><path class="f" d="M338.39,415.54a.76.76,0,0,1,.11.32"/></g><line class="f" x1="338.5" y1="415.86" x2="338.64" y2="417.29"/><g class="i"><path class="f" d="M338.64,417.29a.86.86,0,1,1-1.71,0"/></g><line class="f" x1="338.25" y1="416.44" x2="338.25" y2="415.94"/><line class="f" x1="337.32" y1="415.94" x2="337.32" y2="416.44"/><line class="f" x1="337.32" y1="416.44" x2="338.25" y2="416.44"/><g class="i"><path class="f" d="M337.32,415.94a.47.47,0,1,1,.93,0"/><path class="f" d="M337.18,415.54a.72.72,0,0,1,1.21,0"/></g><rect class="d" x="373.62" y="269.52" width="20.48" height="67.57"/><line class="f" x1="373.62" y1="337.09" x2="373.62" y2="269.52"/><line class="f" x1="373.62" y1="269.52" x2="394.1" y2="269.52"/><line class="f" x1="394.1" y1="269.52" x2="394.1" y2="337.09"/><line class="f" x1="394.1" y1="337.09" x2="373.62" y2="337.09"/><line class="f" x1="383.86" y1="333.71" x2="383.86" y2="272.9"/><line class="f" x1="377.83" y1="330.58" x2="390.1" y2="324.86"/><line class="f" x1="377.22" y1="324.13" x2="388.63" y2="321.77"/><line class="f" x1="391.24" y1="315.33" x2="378.72" y2="313.39"/><line class="f" x1="389.6" y1="305.36" x2="378.71" y2="308"/><line class="f" x1="390.22" y1="301.74" x2="376.81" y2="301.74"/><line class="f" x1="390.28" y1="291.47" x2="377.03" y2="293.9"/><line class="f" x1="390.06" y1="287.62" x2="377.96" y2="287.62"/><line class="f" x1="390.18" y1="277.48" x2="377.77" y2="275.54"/><line class="f" x1="389.34" y1="279.92" x2="378.85" y2="281.9"/><polygon class="g" points="307.58 419.34 320.21 419.34 320.21 408.08 319.94 406.39 319.18 404.87 317.99 403.64 316.05 402.63 313.89 402.28 311.74 402.63 309.8 403.64 308.61 404.87 307.84 406.39 307.58 408.08 307.58 419.34"/><line class="f" x1="320.21" y1="419.34" x2="320.21" y2="408.08"/><line class="f" x1="320.21" y1="419.34" x2="307.58" y2="419.34"/><line class="f" x1="307.58" y1="419.34" x2="307.58" y2="408.08"/><line class="f" x1="318.16" y1="415.25" x2="318.16" y2="408.08"/><line class="f" x1="309.63" y1="415.25" x2="309.63" y2="408.08"/><line class="f" x1="309.63" y1="415.25" x2="318.16" y2="415.25"/><g class="i"><path class="f" d="M318,403.64a5.54,5.54,0,0,1,2.22,4.44"/><path class="f" d="M307.58,408.08a5.54,5.54,0,0,1,2.22-4.44"/><path class="f" d="M309.8,403.64a6.85,6.85,0,0,1,8.19,0"/><path class="f" d="M307.58,408.08a5.54,5.54,0,0,1,2.22-4.44"/><path class="f" d="M309.8,403.64a6.86,6.86,0,0,1,4.09-1.36"/><path class="f" d="M309.63,408.08a3.5,3.5,0,0,1,1.4-2.8"/><path class="f" d="M311,405.28a4.8,4.8,0,0,1,5.73,0"/><path class="f" d="M316.76,405.28a3.5,3.5,0,0,1,1.4,2.8"/></g><line class="f" x1="395.8" y1="424.46" x2="388.98" y2="424.46"/><line class="f" x1="385.22" y1="424.46" x2="384.46" y2="424.46"/><line class="f" x1="380.7" y1="424.46" x2="379.93" y2="424.46"/><line class="f" x1="376.18" y1="424.46" x2="369.35" y2="424.46"/><line class="f" x1="365.6" y1="424.46" x2="365.09" y2="424.46"/><line class="f" x1="365.09" y1="424.46" x2="358.26" y2="424.46"/><line class="f" x1="482.49" y1="416.72" x2="482.49" y2="410.99"/><line class="f" x1="482.49" y1="410.99" x2="480.16" y2="412.87"/><line class="f" x1="480.16" y1="412.87" x2="477.83" y2="410.99"/><line class="f" x1="477.84" y1="410.99" x2="477.84" y2="416.72"/><line class="f" x1="263.55" y1="188.63" x2="527.2" y2="188.63"/><line class="f" x1="263.55" y1="186.92" x2="527.2" y2="186.92"/><line class="f" x1="259.63" y1="431.93" x2="530.95" y2="431.93"/><line class="f" x1="530.95" y1="431.93" x2="530.95" y2="240.81"/><line class="f" x1="530.95" y1="240.81" x2="527.2" y2="240.81"/><line class="f" x1="527.2" y1="240.81" x2="527.2" y2="186.19"/><line class="f" x1="527.2" y1="186.19" x2="263.55" y2="186.19"/><line class="f" x1="263.55" y1="186.19" x2="263.55" y2="240.81"/><line class="f" x1="263.55" y1="240.81" x2="259.63" y2="240.81"/><line class="f" x1="259.63" y1="240.81" x2="259.63" y2="431.93"/><path class="j" d="M396.37,386.46v7h-.72V387.1H394v-.64Z"/><path class="j" d="M398.05,393a.53.53,0,0,1,.53-.54.54.54,0,0,1,.54.54.55.55,0,0,1-.54.55A.54.54,0,0,1,398.05,393Z"/><path class="j" d="M400.06,390c0-2.23,1.17-3.56,2.79-3.56s2.8,1.33,2.8,3.56-1.18,3.56-2.8,3.56S400.06,392.19,400.06,390Zm4.85,0c0-1.87-.84-2.9-2.06-2.9s-2.06,1-2.06,2.9.84,2.9,2.06,2.9S404.91,391.83,404.91,390Z"/><path class="j" d="M408.61,386.46v7h-.72V387.1h-1.65v-.64Z"/><path class="j" d="M433.94,312.87v7h-.72v-6.36h-1.65v-.64Z"/><path class="j" d="M435.62,319.37a.53.53,0,0,1,.53-.54.54.54,0,0,1,.54.54.55.55,0,0,1-.54.55A.54.54,0,0,1,435.62,319.37Z"/><path class="j" d="M437.63,316.37c0-2.23,1.17-3.56,2.79-3.56s2.8,1.33,2.8,3.56-1.18,3.56-2.8,3.56S437.63,318.6,437.63,316.37Zm4.85,0c0-1.87-.84-2.9-2.06-2.9s-2.06,1-2.06,2.9.84,2.9,2.06,2.9S442.48,318.24,442.48,316.37Z"/><path class="j" d="M449,319.23v.64h-4.91v-.51l2.91-2.85c.79-.78.94-1.25.94-1.73,0-.81-.57-1.31-1.64-1.31a2.38,2.38,0,0,0-1.91.78l-.51-.44a3.15,3.15,0,0,1,2.48-1c1.42,0,2.32.72,2.32,1.89a2.88,2.88,0,0,1-1.15,2.19l-2.38,2.34Z"/><path class="j" d="M349.59,312.87v7h-.72v-6.36h-1.65v-.64Z"/><path class="j" d="M351.27,319.37a.53.53,0,0,1,.53-.54.54.54,0,0,1,.54.54.55.55,0,0,1-.54.55A.54.54,0,0,1,351.27,319.37Z"/><path class="j" d="M353.28,316.37c0-2.23,1.17-3.56,2.79-3.56s2.8,1.33,2.8,3.56-1.18,3.56-2.8,3.56S353.28,318.6,353.28,316.37Zm4.85,0c0-1.87-.84-2.9-2.06-2.9s-2.06,1-2.06,2.9.84,2.9,2.06,2.9S358.13,318.24,358.13,316.37Z"/><path class="j" d="M364.44,317.86c0,1.17-.85,2.07-2.54,2.07a3.64,3.64,0,0,1-2.52-.9l.35-.57a3.07,3.07,0,0,0,2.17.81c1.16,0,1.8-.54,1.8-1.41s-.59-1.39-1.89-1.39h-.5v-.53l1.94-2.43h-3.58v-.64h4.5v.51l-2,2.49C363.69,316,364.44,316.74,364.44,317.86Z"/><path class="j" d="M320.3,386.46v7h-.72V387.1h-1.65v-.64Z"/><path class="j" d="M322,393a.53.53,0,0,1,.53-.54.54.54,0,0,1,.54.54.55.55,0,0,1-.54.55A.54.54,0,0,1,322,393Z"/><path class="j" d="M324,390c0-2.23,1.17-3.56,2.79-3.56s2.8,1.33,2.8,3.56-1.18,3.56-2.8,3.56S324,392.19,324,390Zm4.85,0c0-1.87-.84-2.9-2.06-2.9s-2.06,1-2.06,2.9.84,2.9,2.06,2.9S328.84,391.83,328.84,390Z"/><path class="j" d="M336.56,391.62h-1.4v1.84h-.72v-1.84h-3.95v-.52l3.71-4.64h.8L331.42,391h3v-1.62h.7V391h1.4Z"/><path class="j" d="M433.94,215.48v7h-.72v-6.36h-1.65v-.64Z"/><path class="j" d="M435.62,222a.53.53,0,0,1,.53-.54.54.54,0,0,1,.54.54.55.55,0,0,1-.54.55A.54.54,0,0,1,435.62,222Z"/><path class="j" d="M437.63,219c0-2.23,1.17-3.56,2.79-3.56s2.8,1.33,2.8,3.56-1.18,3.56-2.8,3.56S437.63,221.21,437.63,219Zm4.85,0c0-1.87-.84-2.9-2.06-2.9s-2.06,1-2.06,2.9.84,2.9,2.06,2.9S442.48,220.85,442.48,219Z"/><path class="j" d="M449,220.42c0,1.19-.83,2.12-2.54,2.12a3.61,3.61,0,0,1-2.51-.9l.35-.57a3,3,0,0,0,2.15.81c1.19,0,1.82-.58,1.82-1.43s-.56-1.46-2.34-1.46h-1.49l.36-3.51h3.83v.64h-3.2l-.24,2.23h.9C448.2,218.35,449,219.18,449,220.42Z"/></svg>