<svg xmlns="http://www.w3.org/2000/svg" xmlns:xlink="http://www.w3.org/1999/xlink" viewBox="0 0 790.58 618.13"><defs><style>.a,.f{fill:none;}.b{fill:#595a5c;}.c{fill:#b6906c;}.d,.i{fill:#fff;}.e{fill:#231f20;}.f{stroke:#000;stroke-linecap:round;stroke-linejoin:round;stroke-width:0.34px;}.g,.i{fill-rule:evenodd;}.h{clip-path:url(#a);}.j{fill:#58595b;}</style><clipPath id="a"><polygon class="a" points="244.1 185.07 244.1 240.19 239.8 240.19 239.8 433.05 550.78 433.05 550.78 240.19 546.48 240.19 546.48 185.07 244.1 185.07"/></clipPath></defs><path class="b" d="M55.31,597.13H57.1V609.9H55.31Zm.92,6.11h4.09a1.89,1.89,0,0,0,1-.27,1.82,1.82,0,0,0,.68-.77,2.67,2.67,0,0,0,.24-1.16,2.7,2.7,0,0,0-.24-1.16,1.82,1.82,0,0,0-1.7-1H56.23v-1.7h4a4.09,4.09,0,0,1,2,.48A3.45,3.45,0,0,1,63.62,599a4.64,4.64,0,0,1,0,4.11,3.34,3.34,0,0,1-1.35,1.36,4,4,0,0,1-2,.49h-4Z"/><path class="b" d="M67.7,606.33a2.07,2.07,0,0,0,.49,1.48,1.76,1.76,0,0,0,1.37.52,1.89,1.89,0,0,0,1.37-.46,1.79,1.79,0,0,0,.48-1.33l.12,1.91A2.58,2.58,0,0,1,69.06,610a2.89,2.89,0,0,1-2.33-1,4.08,4.08,0,0,1-.82-2.73v-5.55H67.7Zm.22-7.86a1.93,1.93,0,0,1-.56-1.5,2.07,2.07,0,0,1,.56-1.57,2.56,2.56,0,0,1,3.18,0,2.08,2.08,0,0,1,.57,1.56,1.94,1.94,0,0,1-.57,1.5,2.65,2.65,0,0,1-3.18,0Zm2.26-.86a.94.94,0,0,0,.24-.68,1,1,0,0,0-.24-.7.91.91,0,0,0-.67-.25.92.92,0,0,0-.67.25,1,1,0,0,0-.23.7,1,1,0,0,0,.23.68.92.92,0,0,0,.67.24A.9.9,0,0,0,70.18,597.61Zm1.23,3.17h1.78v9.12H71.41Z"/><path class="b" d="M77.1,609.63A2.82,2.82,0,0,1,76,608.36a5.08,5.08,0,0,1-.36-2v-2a5.05,5.05,0,0,1,.36-2,2.71,2.71,0,0,1,1-1.27,3,3,0,0,1,1.65-.44,2.71,2.71,0,0,1,1.48.42,3.22,3.22,0,0,1,1.09,1.19l-.18,1.86a2.19,2.19,0,0,0-.22-1,1.48,1.48,0,0,0-.61-.63,2,2,0,0,0-1-.21,1.71,1.71,0,0,0-1.37.55,2.26,2.26,0,0,0-.49,1.56v2a2.19,2.19,0,0,0,.49,1.54,1.74,1.74,0,0,0,1.37.54,1.93,1.93,0,0,0,1-.23,1.45,1.45,0,0,0,.61-.64,2.25,2.25,0,0,0,.22-1l.12,1.92a2.66,2.66,0,0,1-.89,1.14,2.56,2.56,0,0,1-1.53.45A3.19,3.19,0,0,1,77.1,609.63Zm4-12.5H82.9V609.9H81.11Z"/><path class="b" d="M87.09,609.57a3.09,3.09,0,0,1-1.29-1.36,4.85,4.85,0,0,1-.44-2.15v-1.48a4.71,4.71,0,0,1,.44-2.12,3.12,3.12,0,0,1,1.29-1.35,4.71,4.71,0,0,1,4.06,0,3.12,3.12,0,0,1,1.29,1.35,4.71,4.71,0,0,1,.44,2.12v1.51a4.79,4.79,0,0,1-.44,2.13,3.12,3.12,0,0,1-1.29,1.35,4.62,4.62,0,0,1-4.06,0Zm3.49-1.83a2.43,2.43,0,0,0,.51-1.65v-1.51a2.43,2.43,0,0,0-.51-1.65,1.88,1.88,0,0,0-1.46-.58,1.85,1.85,0,0,0-1.45.58,2.38,2.38,0,0,0-.52,1.65v1.51a2.38,2.38,0,0,0,.52,1.65,1.82,1.82,0,0,0,1.45.59A1.85,1.85,0,0,0,90.58,607.74Z"/><path class="b" d="M95.43,600.78h1.79v9.12H95.43Zm4.42,1.72a2.16,2.16,0,0,0-.83-.15,1.83,1.83,0,0,0-1.33.47,1.79,1.79,0,0,0-.47,1.31L97,602.37a3.32,3.32,0,0,1,1.09-1.27,2.58,2.58,0,0,1,1.48-.45,3.39,3.39,0,0,1,1.13.18,2.62,2.62,0,0,1,.88.53l-1.17,1.58A1.56,1.56,0,0,0,99.85,602.5Z"/><path class="b" d="M102.15,600.78H104l2.81,7.93-1,1.94Zm8.07,0L106.34,612a2.6,2.6,0,0,1-.56,1,1.87,1.87,0,0,1-.84.52,4,4,0,0,1-1.23.16h-.36V612h.36a1.46,1.46,0,0,0,.8-.2,1.74,1.74,0,0,0,.51-.7l3.38-10.31Z"/><path class="b" d="M113.51,609.88a5.76,5.76,0,0,1-1.32-.48,4.89,4.89,0,0,1-1.13-.79l1.06-1.31a5.86,5.86,0,0,0,1.47.85,4.18,4.18,0,0,0,1.44.28,3.11,3.11,0,0,0,1.6-.33,1.1,1.1,0,0,0,.53-1,.79.79,0,0,0-.29-.66,1.66,1.66,0,0,0-.72-.29c-.29,0-.69-.1-1.22-.14h-.15l-.14,0h-.15a6.45,6.45,0,0,1-1.5-.26,2,2,0,0,1-1-.7,2.38,2.38,0,0,1-.41-1.49,3.07,3.07,0,0,1,.39-1.61,2.41,2.41,0,0,1,1.18-1,5.29,5.29,0,0,1,2-.32,6.38,6.38,0,0,1,2.6.52,6.16,6.16,0,0,1,1.13.66l-1.08,1.31a5.59,5.59,0,0,0-1.35-.66,4,4,0,0,0-1.3-.22,2.44,2.44,0,0,0-1.37.31,1.08,1.08,0,0,0-.46.94.64.64,0,0,0,.26.55,1.72,1.72,0,0,0,.66.25c.26,0,.64.07,1.12.1h.34a7.67,7.67,0,0,1,1.63.25,2.24,2.24,0,0,1,1.13.77,2.62,2.62,0,0,1,.45,1.65,2.92,2.92,0,0,1-.42,1.63,2.54,2.54,0,0,1-1.27,1A5.88,5.88,0,0,1,115,610,7.38,7.38,0,0,1,113.51,609.88Z"/><path class="b" d="M126,597.13h1.8V609.9H126Zm2.6,12.5a2.39,2.39,0,0,1-.93-1.16l.13-1.91a2.22,2.22,0,0,0,.21,1,1.48,1.48,0,0,0,.61.63,1.93,1.93,0,0,0,1,.22,1.74,1.74,0,0,0,1.37-.54,2.18,2.18,0,0,0,.49-1.53v-2a2.26,2.26,0,0,0-.49-1.56,1.71,1.71,0,0,0-1.37-.55,2,2,0,0,0-1,.21,1.36,1.36,0,0,0-.61.62,2.12,2.12,0,0,0-.21,1l-.19-1.76a3.37,3.37,0,0,1,1.08-1.24,2.67,2.67,0,0,1,1.49-.43,3,3,0,0,1,1.65.43,2.9,2.9,0,0,1,1.06,1.27,5.1,5.1,0,0,1,.36,2v2a4.94,4.94,0,0,1-.37,2,2.79,2.79,0,0,1-1.08,1.26,3.25,3.25,0,0,1-1.71.44A2.73,2.73,0,0,1,128.57,609.63Z"/><path class="b" d="M134.46,600.78h1.82l2.81,7.93-1,1.94Zm8.07,0L138.65,612a2.6,2.6,0,0,1-.56,1,1.87,1.87,0,0,1-.84.52,4,4,0,0,1-1.23.16h-.36V612H136a1.46,1.46,0,0,0,.8-.2,1.74,1.74,0,0,0,.51-.7l3.37-10.31Z"/><path class="b" d="M143.57,600.78h4.12v1.62h-4.12Zm1.46,8.56a2.77,2.77,0,0,1-.52-1.81v-9.4h1.8v9.42a.84.84,0,0,0,.13.51.46.46,0,0,0,.39.18h.86V610h-1A2,2,0,0,1,145,609.34Z"/><path class="b" d="M151.94,606.33a2.07,2.07,0,0,0,.49,1.48,1.76,1.76,0,0,0,1.37.52,1.91,1.91,0,0,0,1.37-.46,1.79,1.79,0,0,0,.48-1.33l.12,1.91A2.58,2.58,0,0,1,153.3,610a2.89,2.89,0,0,1-2.33-1,4.08,4.08,0,0,1-.82-2.73v-5.55h1.79Zm3.71-5.55h1.78v9.12h-1.78Z"/><rect class="c" x="612.92" y="591.68" width="35.43" height="2.83"/><path class="d" d="M648.48,594.64H612.79v-3.08h35.69ZM613,594.39h35.19v-2.58H613Z"/><rect class="c" x="612.92" y="601.6" width="70.74" height="2.83"/><path class="d" d="M683.78,604.56h-71v-3.08h71ZM613,604.31h70.49v-2.58H613Z"/><rect class="c" x="612.92" y="612.72" width="177.16" height="2.84"/><path class="d" d="M790.21,615.68H612.79V612.6H790.21ZM613,615.43H790v-2.58H613Z"/><path class="e" d="M587.26,596.28h-.8v-4.82l-.81.5v-.83l.81-.53h.8Z"/><path class="e" d="M589,595.91a1.67,1.67,0,0,1-.41-1.19v-2.58A1.65,1.65,0,0,1,589,591a2,2,0,0,1,2.42,0,1.65,1.65,0,0,1,.41,1.19v2.58a1.65,1.65,0,0,1-.41,1.19,2,2,0,0,1-2.42,0Zm1.83-.55a.89.89,0,0,0,.2-.64v-2.58a.89.89,0,0,0-.2-.64.82.82,0,0,0-.62-.22.86.86,0,0,0-.63.22.94.94,0,0,0-.2.64v2.58a.9.9,0,0,0,.21.64,1,1,0,0,0,1.24,0Z"/><path class="e" d="M593.22,595.91a1.67,1.67,0,0,1-.41-1.19v-2.58a1.65,1.65,0,0,1,.41-1.19,2,2,0,0,1,2.42,0,1.61,1.61,0,0,1,.41,1.19v2.58a1.65,1.65,0,0,1-.41,1.19,2,2,0,0,1-2.42,0Zm1.83-.55a.9.9,0,0,0,.21-.64v-2.58a.94.94,0,0,0-.2-.64.86.86,0,0,0-.63-.22.82.82,0,0,0-.62.22.89.89,0,0,0-.2.64v2.58a.89.89,0,0,0,.2.64,1,1,0,0,0,1.24,0Z"/><path class="e" d="M600.1,596.13a1.45,1.45,0,0,1-.6-.6,2.06,2.06,0,0,1-.21-1v-.67a2,2,0,0,1,.21-.94,1.37,1.37,0,0,1,.6-.59,2,2,0,0,1,.95-.21,2.21,2.21,0,0,1,.59.08,1.68,1.68,0,0,1,.51.22,1.54,1.54,0,0,1,.37.35l-.58.52a1.17,1.17,0,0,0-.4-.3,1.13,1.13,0,0,0-.48-.11.94.94,0,0,0-.71.26,1,1,0,0,0-.26.72v.67a1,1,0,0,0,.25.74.94.94,0,0,0,.72.27,1,1,0,0,0,.48-.12,1,1,0,0,0,.4-.32l.58.56a1.38,1.38,0,0,1-.38.34,1.62,1.62,0,0,1-.5.22,2.27,2.27,0,0,1-.59.07A2.12,2.12,0,0,1,600.1,596.13Z"/><path class="e" d="M603.4,592.22h.79v4.06h-.79Zm2.42,1.6a1,1,0,0,0-.21-.67.78.78,0,0,0-.6-.23.81.81,0,0,0-.6.21.73.73,0,0,0-.22.58l-.08-.78a1.46,1.46,0,0,1,.49-.57,1.22,1.22,0,0,1,.67-.2,1.33,1.33,0,0,1,.73.2,1.18,1.18,0,0,1,.46.56,2.4,2.4,0,0,1,.15.89v2.47h-.79Zm2.42,0a.93.93,0,0,0-.22-.67.85.85,0,0,0-.63-.23.72.72,0,0,0-.57.23.9.9,0,0,0-.21.64l-.16-.78a1.61,1.61,0,0,1,.51-.63,1.23,1.23,0,0,1,.69-.22,1.37,1.37,0,0,1,.75.2,1.09,1.09,0,0,1,.47.56,2.21,2.21,0,0,1,.17.89v2.47h-.8Z"/><path class="e" d="M584.33,605.5l2-2.64a1.85,1.85,0,0,0,.27-.47,1.29,1.29,0,0,0,.09-.45h0a.67.67,0,0,0-.2-.53.81.81,0,0,0-.56-.19.76.76,0,0,0-.56.21,1,1,0,0,0-.27.58h-.82a2,2,0,0,1,.29-.83,1.42,1.42,0,0,1,.56-.53,1.67,1.67,0,0,1,.79-.18,1.93,1.93,0,0,1,.87.17,1.21,1.21,0,0,1,.54.51,1.55,1.55,0,0,1,.19.8h0a1.84,1.84,0,0,1-.12.63,2.8,2.8,0,0,1-.35.63l-1.65,2.24h2.15v.76h-3.2Z"/><path class="e" d="M589,605.83a1.67,1.67,0,0,1-.41-1.19v-2.58a1.65,1.65,0,0,1,.41-1.19,2,2,0,0,1,2.42,0,1.65,1.65,0,0,1,.41,1.19v2.58a1.65,1.65,0,0,1-.41,1.19,2,2,0,0,1-2.42,0Zm1.83-.55a.89.89,0,0,0,.2-.64v-2.58a.89.89,0,0,0-.2-.64.82.82,0,0,0-.62-.22.86.86,0,0,0-.63.22.94.94,0,0,0-.19.64v2.58a.89.89,0,0,0,.2.64,1,1,0,0,0,1.24,0Z"/><path class="e" d="M593.22,605.83a1.67,1.67,0,0,1-.41-1.19v-2.58a1.61,1.61,0,0,1,.42-1.19,1.59,1.59,0,0,1,1.2-.42,1.45,1.45,0,0,1,1.62,1.61v2.58a1.61,1.61,0,0,1-.41,1.19,2,2,0,0,1-2.42,0Zm1.84-.55a.94.94,0,0,0,.2-.64v-2.58a.94.94,0,0,0-.2-.64.84.84,0,0,0-.63-.22.82.82,0,0,0-.62.22.89.89,0,0,0-.2.64v2.58a.89.89,0,0,0,.2.64.82.82,0,0,0,.62.22A.86.86,0,0,0,595.06,605.28Z"/><path class="e" d="M600.1,606.05a1.45,1.45,0,0,1-.6-.6,2.06,2.06,0,0,1-.2-1v-.67a2,2,0,0,1,.2-.94,1.37,1.37,0,0,1,.6-.59,2,2,0,0,1,.95-.21,2.35,2.35,0,0,1,.6.08,1.73,1.73,0,0,1,.5.22,1.38,1.38,0,0,1,.37.35l-.58.52a1.08,1.08,0,0,0-.4-.3,1.13,1.13,0,0,0-.48-.11,1,1,0,0,0-.71.26,1,1,0,0,0-.26.72v.67a1,1,0,0,0,.25.74.94.94,0,0,0,.72.27,1.14,1.14,0,0,0,.88-.44l.58.56a1.38,1.38,0,0,1-.38.34,1.62,1.62,0,0,1-.5.22,2.22,2.22,0,0,1-.59.07A2.12,2.12,0,0,1,600.1,606.05Z"/><path class="e" d="M603.4,602.14h.79v4.06h-.79Zm2.42,1.6a1,1,0,0,0-.21-.67.78.78,0,0,0-.6-.23.81.81,0,0,0-.6.21.73.73,0,0,0-.22.58l-.08-.78a1.46,1.46,0,0,1,.49-.57,1.22,1.22,0,0,1,.67-.2,1.3,1.3,0,0,1,.73.2,1.18,1.18,0,0,1,.46.56,2.4,2.4,0,0,1,.16.89v2.47h-.8Zm2.42,0a.93.93,0,0,0-.22-.67.85.85,0,0,0-.63-.23.73.73,0,0,0-.57.23.89.89,0,0,0-.2.64l-.16-.78a1.51,1.51,0,0,1,.5-.63,1.23,1.23,0,0,1,.69-.22,1.35,1.35,0,0,1,.75.2,1.16,1.16,0,0,1,.48.56,2.4,2.4,0,0,1,.16.89v2.47h-.8Z"/><path class="e" d="M585,615.58a1.34,1.34,0,0,1-.54-.49,2,2,0,0,1-.28-.77h.8a.75.75,0,0,0,.25.49.85.85,0,0,0,.54.17.72.72,0,0,0,.59-.25,1.1,1.1,0,0,0,.21-.72v-.48a1.1,1.1,0,0,0-.21-.72.72.72,0,0,0-.59-.25.83.83,0,0,0-.4.11,1.18,1.18,0,0,0-.34.33h-.72v-3h2.89v.76h-2.1V612a1,1,0,0,1,.34-.18.94.94,0,0,1,.37-.07,1.68,1.68,0,0,1,.84.2,1.29,1.29,0,0,1,.53.6,2.07,2.07,0,0,1,.19.94V614a2.25,2.25,0,0,1-.19.94,1.31,1.31,0,0,1-.55.59,1.69,1.69,0,0,1-.86.21A1.74,1.74,0,0,1,585,615.58Z"/><path class="e" d="M589,615.32a1.65,1.65,0,0,1-.41-1.19v-2.58a1.67,1.67,0,0,1,.41-1.19,2,2,0,0,1,2.42,0,1.65,1.65,0,0,1,.41,1.19v2.58a1.64,1.64,0,0,1-.41,1.19,1.92,1.92,0,0,1-2.42,0Zm1.83-.55a.89.89,0,0,0,.2-.64v-2.58a.88.88,0,0,0-.2-.63.78.78,0,0,0-.62-.22.82.82,0,0,0-.63.22.93.93,0,0,0-.2.63v2.58a.9.9,0,0,0,.21.64,1,1,0,0,0,1.24,0Z"/><path class="e" d="M593.22,615.32a1.65,1.65,0,0,1-.41-1.19v-2.58a1.67,1.67,0,0,1,.41-1.19,2,2,0,0,1,2.42,0,1.61,1.61,0,0,1,.41,1.19v2.58a1.64,1.64,0,0,1-.41,1.19,1.92,1.92,0,0,1-2.42,0Zm1.83-.55a.9.9,0,0,0,.21-.64v-2.58a.93.93,0,0,0-.2-.63.82.82,0,0,0-.63-.22.78.78,0,0,0-.62.22.88.88,0,0,0-.2.63v2.58a.89.89,0,0,0,.2.64,1,1,0,0,0,1.24,0Z"/><path class="e" d="M600.1,615.54a1.45,1.45,0,0,1-.6-.6,2,2,0,0,1-.21-1v-.67a2,2,0,0,1,.21-.94,1.45,1.45,0,0,1,.6-.6,2,2,0,0,1,.95-.2,2.22,2.22,0,0,1,.59.07,2,2,0,0,1,.51.22,1.76,1.76,0,0,1,.37.35l-.58.52a1.17,1.17,0,0,0-.4-.3,1.13,1.13,0,0,0-.48-.11.94.94,0,0,0-.71.26,1,1,0,0,0-.26.73V614a1.07,1.07,0,0,0,.25.74,1,1,0,0,0,.72.26,1.13,1.13,0,0,0,.48-.11,1.26,1.26,0,0,0,.4-.32l.58.55a1.42,1.42,0,0,1-.38.35,1.88,1.88,0,0,1-.5.21,2.27,2.27,0,0,1-.59.08A2,2,0,0,1,600.1,615.54Z"/><path class="e" d="M603.4,611.63h.79v4.06h-.79Zm2.42,1.6a1,1,0,0,0-.21-.66.75.75,0,0,0-.6-.24.81.81,0,0,0-.6.21.75.75,0,0,0-.22.58l-.08-.78a1.5,1.5,0,0,1,.49-.56,1.15,1.15,0,0,1,.67-.2,1.32,1.32,0,0,1,.73.19,1.28,1.28,0,0,1,.46.56,2.42,2.42,0,0,1,.15.9v2.46h-.79Zm2.42,0a.91.91,0,0,0-.22-.66.82.82,0,0,0-.63-.24.72.72,0,0,0-.57.23.9.9,0,0,0-.21.64l-.16-.78a1.51,1.51,0,0,1,.51-.62,1.16,1.16,0,0,1,.69-.22,1.37,1.37,0,0,1,.75.19,1.18,1.18,0,0,1,.47.56,2.22,2.22,0,0,1,.17.9v2.46h-.8Z"/><path class="c" d="M23.49,613.89A12.92,12.92,0,1,1,36.4,601,12.93,12.93,0,0,1,23.49,613.89Zm0-24.83A11.92,11.92,0,1,0,35.4,601,11.93,11.93,0,0,0,23.49,589.06Z"/><polygon class="d" points="35.77 588.74 9.42 600.98 35.77 613.21 32.02 600.98 35.77 588.74"/><path class="c" d="M36.58,614.14,8.23,601l28.35-13.17-4,13.17ZM10.61,601,35,612.29,31.5,601,35,589.66Z"/><path class="c" d="M2.52,605.19a5,5,0,0,1-1.11-.38,4.4,4.4,0,0,1-1-.64l.81-1a3.72,3.72,0,0,0,1.16.69,4.08,4.08,0,0,0,1.38.23,2.73,2.73,0,0,0,1.55-.38,1.17,1.17,0,0,0,.55-1.05h0a1.12,1.12,0,0,0-.25-.77,1.44,1.44,0,0,0-.64-.42,8.23,8.23,0,0,0-1-.25H3.89l-.1,0a9.48,9.48,0,0,1-1.5-.36,2.08,2.08,0,0,1-1-.73,2.42,2.42,0,0,1-.41-1.51h0a2.77,2.77,0,0,1,.38-1.47,2.44,2.44,0,0,1,1.12-.92,4.48,4.48,0,0,1,1.77-.32,4.6,4.6,0,0,1,1,.11,4.9,4.9,0,0,1,1.86.86l-.73,1a4.61,4.61,0,0,0-1-.58,3,3,0,0,0-1.06-.2,2.44,2.44,0,0,0-1.46.38,1.24,1.24,0,0,0-.53,1.07h0a1,1,0,0,0,.27.75,1.74,1.74,0,0,0,.67.4,9.3,9.3,0,0,0,1.12.27h.24a7.93,7.93,0,0,1,1.4.41,2.22,2.22,0,0,1,.94.76,2.4,2.4,0,0,1,.38,1.43h0a2.62,2.62,0,0,1-.4,1.45,2.54,2.54,0,0,1-1.16.91,4.8,4.8,0,0,1-1.83.31A6.44,6.44,0,0,1,2.52,605.19Z"/><rect class="c" x="612.5" y="600.68" width="1" height="4.68"/><rect class="c" x="612.5" y="590.76" width="1" height="4.68"/><rect class="c" x="612.5" y="611.45" width="1" height="5.24"/><rect class="c" x="789.58" y="611.45" width="1" height="5.24"/><rect class="c" x="682.59" y="600.68" width="1" height="4.68"/><rect class="c" x="647.3" y="590.76" width="1" height="4.68"/><rect class="a" width="790.34" height="618.13"/><line class="f" x1="548.03" y1="240.19" x2="550.78" y2="240.19"/><line class="f" x1="545.27" y1="240.19" x2="545.27" y2="188.53"/><line class="f" x1="446.43" y1="240.19" x2="545.27" y2="240.19"/><line class="f" x1="446.43" y1="243.63" x2="446.43" y2="240.19"/><line class="f" x1="415.44" y1="243.63" x2="446.43" y2="243.63"/><line class="f" x1="415.44" y1="240.19" x2="415.44" y2="243.63"/><line class="f" x1="363.78" y1="240.19" x2="415.44" y2="240.19"/><line class="f" x1="363.78" y1="243.63" x2="363.78" y2="240.19"/><line class="f" x1="332.78" y1="243.63" x2="363.78" y2="243.63"/><line class="f" x1="332.78" y1="240.19" x2="332.78" y2="243.63"/><line class="f" x1="245.48" y1="240.19" x2="332.78" y2="240.19"/><line class="f" x1="245.48" y1="188.53" x2="245.48" y2="240.19"/><line class="f" x1="545.27" y1="188.53" x2="245.48" y2="188.53"/><line class="f" x1="239.8" y1="240.19" x2="242.73" y2="240.19"/><rect class="d" x="432.31" y="404.12" width="20.66" height="20.66"/><line class="f" x1="432.31" y1="424.78" x2="452.98" y2="424.78"/><line class="f" x1="432.31" y1="404.12" x2="432.31" y2="424.78"/><line class="f" x1="452.98" y1="404.12" x2="432.31" y2="404.12"/><line class="f" x1="452.98" y1="424.78" x2="452.98" y2="404.12"/><rect class="d" x="514.11" y="360.21" width="27.55" height="41.33"/><line class="f" x1="541.66" y1="401.54" x2="514.11" y2="401.54"/><line class="f" x1="514.11" y1="401.54" x2="514.11" y2="360.21"/><line class="f" x1="514.11" y1="360.21" x2="541.66" y2="360.21"/><line class="f" x1="541.66" y1="360.21" x2="541.66" y2="401.54"/><line class="f" x1="239.8" y1="424.78" x2="239.8" y2="424.78"/><line class="f" x1="239.8" y1="341.78" x2="239.8" y2="341.78"/><line class="f" x1="239.8" y1="341.78" x2="239.8" y2="404.12"/><line class="f" x1="239.8" y1="404.12" x2="239.8" y2="424.78"/><rect class="d" x="248.06" y="403.78" width="98.15" height="21.01"/><line class="f" x1="346.22" y1="424.78" x2="248.06" y2="424.78"/><line class="f" x1="248.06" y1="424.78" x2="248.06" y2="403.78"/><line class="f" x1="248.06" y1="403.78" x2="346.22" y2="403.78"/><line class="f" x1="346.22" y1="403.78" x2="346.22" y2="424.78"/><rect class="d" x="248.06" y="352.12" width="21.01" height="51.66"/><line class="f" x1="248.06" y1="352.12" x2="248.06" y2="403.78"/><line class="f" x1="269.07" y1="352.12" x2="248.06" y2="352.12"/><line class="f" x1="269.07" y1="403.78" x2="269.07" y2="352.12"/><line class="f" x1="248.06" y1="403.78" x2="269.07" y2="403.78"/><line class="f" x1="546.48" y1="433.05" x2="546.48" y2="433.05"/><line class="f" x1="550.78" y1="433.05" x2="546.48" y2="433.05"/><polygon class="g" points="501.54 240.19 546.48 240.19 550.78 240.19 550.78 247.08 501.54 247.08 501.54 240.19"/><polygon class="g" points="239.8 240.19 244.1 240.19 277.68 240.19 277.68 247.08 239.8 247.08 239.8 240.19"/><rect x="363.78" y="240.19" width="51.66" height="6.89"/><rect x="239.8" y="247.08" width="36.16" height="6.89"/><rect x="365.5" y="247.08" width="48.22" height="6.89"/><rect x="503.26" y="247.08" width="47.53" height="6.89"/><polygon class="g" points="447.81 356.94 542.52 356.94 542.52 359.35 455.39 359.35 455.39 367.96 452.98 367.96 452.98 359.35 447.81 359.35 447.81 356.94"/><polygon class="g" points="416.81 433.05 416.81 424.78 542.52 424.78 542.52 253.97 550.78 253.97 550.78 433.05 542.52 433.05 416.81 433.05"/><polygon class="g" points="239.8 424.78 239.8 253.97 248.06 253.97 248.06 424.78 378.93 424.78 378.93 433.05 239.8 433.05 239.8 424.78"/><polygon class="g" points="370.32 356.94 388.57 356.94 388.57 253.97 390.99 253.97 390.99 356.94 416.82 356.94 416.82 359.35 372.73 359.35 372.73 367.96 370.32 367.96 370.32 356.94"/><rect x="378.93" y="429.09" width="1.72" height="3.96"/><rect x="415.09" y="429.09" width="1.72" height="3.96"/><rect x="452.98" y="395.51" width="2.41" height="29.27"/><polygon class="g" points="370.32 424.78 370.32 404.12 370.32 398.95 372.73 398.95 372.73 424.78 370.32 424.78"/><rect x="514.97" y="402.4" width="27.55" height="3.44"/><rect x="514.97" y="405.84" width="3.44" height="18.94"/><polygon class="g" points="370.32 407.56 349.66 407.56 349.66 424.78 346.21 424.78 346.21 404.12 370.32 404.12 370.32 407.56"/><rect x="244.1" y="188.53" width="1.38" height="51.66"/><rect x="545.27" y="188.53" width="1.21" height="51.66"/><line class="f" x1="503.26" y1="253.97" x2="503.26" y2="247.08"/><line class="f" x1="413.72" y1="253.97" x2="413.72" y2="247.08"/><line class="f" x1="365.5" y1="253.97" x2="365.5" y2="247.08"/><line class="f" x1="546.48" y1="240.19" x2="501.54" y2="240.19"/><line class="f" x1="550.78" y1="240.19" x2="546.48" y2="240.19"/><line class="f" x1="415.44" y1="240.19" x2="363.78" y2="240.19"/><line class="f" x1="244.1" y1="240.19" x2="239.8" y2="240.19"/><line class="f" x1="277.68" y1="240.19" x2="244.1" y2="240.19"/><line class="f" x1="550.78" y1="253.97" x2="550.78" y2="253.97"/><line class="f" x1="542.52" y1="253.97" x2="503.26" y2="253.97"/><line class="f" x1="413.72" y1="253.97" x2="390.99" y2="253.97"/><line class="f" x1="388.58" y1="253.97" x2="365.5" y2="253.97"/><line class="f" x1="275.96" y1="253.97" x2="248.06" y2="253.97"/><line class="f" x1="275.96" y1="253.97" x2="275.96" y2="247.08"/><line class="f" x1="365.5" y1="253.97" x2="365.5" y2="247.08"/><line class="f" x1="545.27" y1="188.53" x2="545.27" y2="240.19"/><line class="f" x1="546.48" y1="188.53" x2="545.27" y2="188.53"/><line class="f" x1="245.48" y1="188.53" x2="245.48" y2="240.19"/><line class="f" x1="245.48" y1="188.53" x2="244.1" y2="188.53"/><line class="f" x1="501.54" y1="247.08" x2="501.54" y2="240.19"/><line class="f" x1="503.26" y1="247.08" x2="501.54" y2="247.08"/><line class="f" x1="363.78" y1="247.08" x2="363.78" y2="240.19"/><line class="f" x1="365.5" y1="247.08" x2="363.78" y2="247.08"/><line class="f" x1="415.44" y1="247.08" x2="415.44" y2="240.19"/><line class="f" x1="413.72" y1="247.08" x2="415.44" y2="247.08"/><line class="f" x1="277.68" y1="247.08" x2="277.68" y2="240.19"/><line class="f" x1="275.96" y1="247.08" x2="277.68" y2="247.08"/><line class="f" x1="546.48" y1="188.53" x2="244.1" y2="188.53"/><line class="f" x1="275.96" y1="253.97" x2="331.06" y2="253.97"/><line class="f" x1="331.06" y1="253.97" x2="365.5" y2="253.97"/><line class="f" x1="277.68" y1="240.19" x2="332.78" y2="240.19"/><line class="f" x1="331.06" y1="253.97" x2="331.06" y2="247.08"/><line class="f" x1="332.78" y1="247.08" x2="332.78" y2="240.19"/><line class="f" x1="332.78" y1="243.63" x2="363.78" y2="243.63"/><line class="f" x1="333.82" y1="247.77" x2="333.82" y2="247.08"/><line class="f" x1="333.82" y1="247.08" x2="331.06" y2="247.08"/><line class="f" x1="331.06" y1="247.08" x2="331.06" y2="249.83"/><line class="f" x1="331.06" y1="249.83" x2="332.44" y2="249.83"/><line class="f" x1="332.44" y1="250.52" x2="335.19" y2="250.52"/><line class="f" x1="335.19" y1="250.52" x2="335.19" y2="247.77"/><line class="f" x1="335.19" y1="247.77" x2="332.44" y2="247.77"/><line class="f" x1="332.44" y1="247.77" x2="332.44" y2="250.52"/><line class="f" x1="364.12" y1="250.52" x2="361.37" y2="250.52"/><line class="f" x1="361.37" y1="250.52" x2="361.37" y2="247.77"/><line class="f" x1="361.37" y1="247.77" x2="364.12" y2="247.77"/><line class="f" x1="364.12" y1="247.77" x2="364.12" y2="250.52"/><line class="f" x1="335.19" y1="250.52" x2="361.37" y2="250.52"/><line class="f" x1="361.37" y1="247.77" x2="335.2" y2="247.77"/><line class="f" x1="335.19" y1="249.14" x2="361.37" y2="249.14"/><line class="f" x1="362.75" y1="247.77" x2="362.75" y2="247.08"/><line class="f" x1="362.75" y1="247.08" x2="365.5" y2="247.08"/><line class="f" x1="365.5" y1="247.08" x2="365.5" y2="249.83"/><line class="f" x1="365.5" y1="249.83" x2="364.12" y2="249.83"/><line class="f" x1="331.06" y1="249.83" x2="328.31" y2="249.83"/><line class="f" x1="328.31" y1="249.83" x2="328.31" y2="247.08"/><line class="f" x1="328.31" y1="247.08" x2="331.06" y2="247.08"/><line class="f" x1="331.06" y1="247.08" x2="331.06" y2="249.83"/><line class="f" x1="328.31" y1="249.83" x2="304.89" y2="249.83"/><line class="f" x1="328.31" y1="248.46" x2="304.89" y2="248.46"/><line class="f" x1="328.31" y1="247.08" x2="304.89" y2="247.08"/><line class="f" x1="278.71" y1="247.77" x2="278.71" y2="247.08"/><line class="f" x1="278.71" y1="247.08" x2="275.96" y2="247.08"/><line class="f" x1="275.96" y1="247.08" x2="275.96" y2="249.83"/><line class="f" x1="275.96" y1="249.83" x2="277.34" y2="249.83"/><line class="f" x1="277.34" y1="250.52" x2="280.09" y2="250.52"/><line class="f" x1="280.09" y1="250.52" x2="280.09" y2="247.77"/><line class="f" x1="280.09" y1="247.77" x2="277.34" y2="247.77"/><line class="f" x1="277.34" y1="247.77" x2="277.34" y2="250.52"/><line class="f" x1="280.09" y1="250.52" x2="300.76" y2="250.52"/><line class="f" x1="300.76" y1="247.77" x2="280.09" y2="247.77"/><line class="f" x1="280.09" y1="249.14" x2="300.76" y2="249.14"/><line class="f" x1="302.13" y1="247.77" x2="302.13" y2="247.08"/><line class="f" x1="302.13" y1="247.08" x2="304.89" y2="247.08"/><line class="f" x1="304.89" y1="247.08" x2="304.89" y2="249.83"/><line class="f" x1="304.89" y1="249.83" x2="303.51" y2="249.83"/><line class="f" x1="303.51" y1="250.52" x2="300.76" y2="250.52"/><line class="f" x1="300.76" y1="250.52" x2="300.76" y2="247.77"/><line class="f" x1="300.76" y1="247.77" x2="303.51" y2="247.77"/><line class="f" x1="303.51" y1="247.77" x2="303.51" y2="250.52"/><line class="f" x1="503.26" y1="253.97" x2="448.16" y2="253.97"/><line class="f" x1="448.16" y1="253.97" x2="413.72" y2="253.97"/><line class="f" x1="501.54" y1="240.19" x2="446.43" y2="240.19"/><line class="f" x1="448.16" y1="253.97" x2="448.16" y2="247.08"/><line class="f" x1="446.43" y1="247.08" x2="446.43" y2="240.19"/><line class="f" x1="446.43" y1="243.63" x2="415.44" y2="243.63"/><line class="f" x1="445.4" y1="247.77" x2="445.4" y2="247.08"/><line class="f" x1="445.4" y1="247.08" x2="448.16" y2="247.08"/><line class="f" x1="448.16" y1="247.08" x2="448.16" y2="249.83"/><line class="f" x1="448.16" y1="249.83" x2="446.78" y2="249.83"/><line class="f" x1="446.78" y1="250.52" x2="444.02" y2="250.52"/><line class="f" x1="444.02" y1="250.52" x2="444.02" y2="247.77"/><line class="f" x1="444.02" y1="247.77" x2="446.78" y2="247.77"/><line class="f" x1="446.78" y1="247.77" x2="446.78" y2="250.52"/><line class="f" x1="415.09" y1="250.52" x2="417.85" y2="250.52"/><line class="f" x1="417.85" y1="250.52" x2="417.85" y2="247.77"/><line class="f" x1="417.85" y1="247.77" x2="415.09" y2="247.77"/><line class="f" x1="415.09" y1="247.77" x2="415.09" y2="250.52"/><line class="f" x1="444.02" y1="250.52" x2="417.85" y2="250.52"/><line class="f" x1="417.85" y1="247.77" x2="444.02" y2="247.77"/><line class="f" x1="444.02" y1="249.14" x2="417.85" y2="249.14"/><line class="f" x1="416.47" y1="247.77" x2="416.47" y2="247.08"/><line class="f" x1="416.47" y1="247.08" x2="413.72" y2="247.08"/><line class="f" x1="413.72" y1="247.08" x2="413.72" y2="249.83"/><line class="f" x1="413.72" y1="249.83" x2="415.09" y2="249.83"/><line class="f" x1="448.16" y1="249.83" x2="450.91" y2="249.83"/><line class="f" x1="450.91" y1="249.83" x2="450.91" y2="247.08"/><line class="f" x1="450.91" y1="247.08" x2="448.15" y2="247.08"/><line class="f" x1="448.16" y1="247.08" x2="448.16" y2="249.83"/><line class="f" x1="450.91" y1="249.83" x2="474.33" y2="249.83"/><line class="f" x1="450.91" y1="248.46" x2="474.33" y2="248.46"/><line class="f" x1="450.91" y1="247.08" x2="474.33" y2="247.08"/><line class="f" x1="500.5" y1="247.77" x2="500.5" y2="247.08"/><line class="f" x1="500.5" y1="247.08" x2="503.26" y2="247.08"/><line class="f" x1="503.26" y1="247.08" x2="503.26" y2="249.83"/><line class="f" x1="503.26" y1="249.83" x2="501.88" y2="249.83"/><line class="f" x1="501.88" y1="250.52" x2="499.12" y2="250.52"/><line class="f" x1="499.12" y1="250.52" x2="499.12" y2="247.77"/><line class="f" x1="499.12" y1="247.77" x2="501.88" y2="247.77"/><line class="f" x1="501.88" y1="247.77" x2="501.88" y2="250.52"/><line class="f" x1="499.12" y1="250.52" x2="478.46" y2="250.52"/><line class="f" x1="478.46" y1="247.77" x2="499.13" y2="247.77"/><line class="f" x1="499.12" y1="249.14" x2="478.46" y2="249.14"/><line class="f" x1="477.08" y1="247.77" x2="477.08" y2="247.08"/><line class="f" x1="477.08" y1="247.08" x2="474.33" y2="247.08"/><line class="f" x1="474.33" y1="247.08" x2="474.33" y2="249.83"/><line class="f" x1="474.33" y1="249.83" x2="475.71" y2="249.83"/><line class="f" x1="475.71" y1="250.52" x2="478.46" y2="250.52"/><line class="f" x1="478.46" y1="250.52" x2="478.46" y2="247.77"/><line class="f" x1="478.46" y1="247.77" x2="475.71" y2="247.77"/><line class="f" x1="475.71" y1="247.77" x2="475.71" y2="250.52"/><line class="f" x1="378.93" y1="424.78" x2="372.73" y2="424.78"/><line class="f" x1="248.06" y1="253.97" x2="248.06" y2="424.78"/><line class="f" x1="550.78" y1="429.6" x2="550.78" y2="412.38"/><line class="f" x1="550.78" y1="409.98" x2="550.78" y2="253.97"/><line class="f" x1="542.52" y1="356.94" x2="542.52" y2="253.97"/><line class="f" x1="455.39" y1="367.96" x2="455.39" y2="359.35"/><line class="f" x1="452.98" y1="367.96" x2="452.98" y2="359.35"/><line class="f" x1="390.99" y1="356.94" x2="390.99" y2="253.97"/><line class="f" x1="388.58" y1="356.94" x2="388.58" y2="253.97"/><line class="f" x1="542.52" y1="356.94" x2="447.81" y2="356.94"/><line class="f" x1="416.82" y1="356.94" x2="390.99" y2="356.94"/><line class="f" x1="542.52" y1="359.35" x2="455.39" y2="359.35"/><line class="f" x1="452.98" y1="359.35" x2="447.81" y2="359.35"/><line class="f" x1="550.78" y1="409.98" x2="550.78" y2="409.98"/><line class="f" x1="550.78" y1="412.38" x2="550.78" y2="412.38"/><line class="f" x1="550.78" y1="429.6" x2="550.78" y2="429.6"/><line class="f" x1="550.78" y1="433.05" x2="550.78" y2="433.05"/><line class="f" x1="346.22" y1="424.78" x2="248.06" y2="424.78"/><line class="f" x1="542.52" y1="433.05" x2="416.82" y2="433.05"/><line class="f" x1="378.93" y1="433.05" x2="239.8" y2="433.05"/><line class="f" x1="542.52" y1="433.05" x2="542.52" y2="433.05"/><line class="f" x1="346.22" y1="404.12" x2="346.22" y2="424.78"/><line class="f" x1="455.39" y1="395.51" x2="452.98" y2="395.51"/><line class="f" x1="455.39" y1="367.96" x2="452.98" y2="367.96"/><line class="f" x1="416.82" y1="356.94" x2="416.82" y2="359.35"/><line class="f" x1="447.81" y1="356.94" x2="447.81" y2="359.35"/><line class="f" x1="550.78" y1="433.05" x2="550.78" y2="433.05"/><line class="f" x1="364.12" y1="250.52" x2="364.12" y2="282.21"/><g class="h"><path class="f" d="M364.12,282.21a31.68,31.68,0,0,1-31.68-31.69"/></g><line class="f" x1="415.09" y1="250.52" x2="415.09" y2="282.21"/><g class="h"><path class="f" d="M446.78,250.52a31.69,31.69,0,0,1-31.69,31.69"/></g><line class="f" x1="325.21" y1="424.44" x2="325.21" y2="403.78"/><line class="f" x1="333.1" y1="411.67" x2="337.97" y2="416.54"/><line class="f" x1="337.97" y1="411.67" x2="333.11" y2="416.54"/><line class="f" x1="335.54" y1="417.55" x2="335.54" y2="410.66"/><line class="f" x1="332.1" y1="414.11" x2="338.98" y2="414.11"/><line class="f" x1="325.21" y1="403.78" x2="345.87" y2="403.78"/><line class="f" x1="324.35" y1="405.5" x2="305.4" y2="405.5"/><line class="f" x1="305.4" y1="405.5" x2="305.4" y2="422.72"/><line class="f" x1="305.4" y1="422.72" x2="324.35" y2="422.72"/><line class="f" x1="324.35" y1="422.72" x2="324.35" y2="405.5"/><line class="f" x1="325.21" y1="403.78" x2="304.54" y2="403.78"/><line class="f" x1="322.62" y1="407.22" x2="307.13" y2="407.22"/><line class="f" x1="307.13" y1="407.22" x2="307.13" y2="419.27"/><line class="f" x1="307.13" y1="419.27" x2="322.62" y2="419.27"/><line class="f" x1="322.62" y1="419.27" x2="322.62" y2="407.22"/><g class="h"><path class="f" d="M315.56,415.83a.68.68,0,0,0-.68-.69.69.69,0,1,0,0,1.38.68.68,0,0,0,.68-.69"/></g><line class="f" x1="304.54" y1="424.44" x2="304.54" y2="403.78"/><line class="f" x1="304.54" y1="403.78" x2="283.88" y2="403.78"/><line class="f" x1="283.88" y1="403.78" x2="283.88" y2="424.44"/><line class="f" x1="269.07" y1="403.78" x2="269.07" y2="383.11"/><line class="f" x1="269.07" y1="383.11" x2="248.06" y2="383.11"/><line class="f" x1="248.06" y1="383.11" x2="248.06" y2="403.78"/><line class="f" x1="248.06" y1="403.78" x2="269.07" y2="403.78"/><g class="h"><path class="f" d="M264.77,393.44a6,6,0,1,0-6,6,6,6,0,0,0,6-6"/><path class="f" d="M263.73,393.44a5,5,0,1,0-5,5,5,5,0,0,0,5-5"/><path class="f" d="M257.05,377.85a3.38,3.38,0,1,0-3.38,3.38,3.38,3.38,0,0,0,3.38-3.38"/></g><line class="f" x1="248.41" y1="383.11" x2="269.07" y2="383.11"/><line class="f" x1="269.07" y1="383.11" x2="269.07" y2="362.45"/><line class="f" x1="269.07" y1="362.45" x2="248.41" y2="362.45"/><g class="h"><path class="f" d="M267.19,377.85a3.38,3.38,0,1,0-3.38,3.38,3.38,3.38,0,0,0,3.38-3.38"/><path class="f" d="M267.19,367.71a3.38,3.38,0,1,0-3.38,3.38,3.38,3.38,0,0,0,3.38-3.38"/></g><line class="f" x1="270.01" y1="365.27" x2="270.01" y2="380.29"/><line class="f" x1="346.22" y1="424.78" x2="346.22" y2="403.78"/><line class="f" x1="346.22" y1="403.78" x2="269.07" y2="403.78"/><line class="f" x1="269.07" y1="403.78" x2="269.07" y2="352.12"/><line class="f" x1="269.07" y1="352.12" x2="248.06" y2="352.12"/><line class="f" x1="248.06" y1="352.12" x2="248.06" y2="424.78"/><line class="f" x1="248.06" y1="424.78" x2="346.22" y2="424.78"/><line class="f" x1="388.58" y1="356.94" x2="370.32" y2="356.94"/><line class="f" x1="416.82" y1="359.35" x2="372.73" y2="359.35"/><line class="f" x1="542.52" y1="402.4" x2="542.52" y2="359.35"/><line class="f" x1="372.73" y1="398.95" x2="370.32" y2="398.95"/><line class="f" x1="380.65" y1="429.09" x2="380.65" y2="433.05"/><line class="f" x1="416.82" y1="433.05" x2="415.09" y2="433.05"/><line class="f" x1="514.97" y1="419.62" x2="455.39" y2="419.62"/><line class="f" x1="507.99" y1="360.21" x2="507.99" y2="363.65"/><line class="f" x1="507.99" y1="363.65" x2="487.33" y2="363.65"/><line class="f" x1="487.33" y1="363.65" x2="487.33" y2="360.21"/><line class="f" x1="487.33" y1="360.21" x2="488.36" y2="360.21"/><line class="f" x1="488.36" y1="360.21" x2="488.36" y2="362.62"/><line class="f" x1="488.36" y1="362.62" x2="506.96" y2="362.62"/><line class="f" x1="506.96" y1="362.62" x2="506.96" y2="360.21"/><line class="f" x1="506.96" y1="360.21" x2="507.99" y2="360.21"/><line class="f" x1="507.99" y1="360.21" x2="507.99" y2="363.65"/><line class="f" x1="487.33" y1="360.21" x2="487.33" y2="363.65"/><line class="f" x1="506.96" y1="360.21" x2="506.96" y2="362.62"/><line class="f" x1="488.36" y1="360.21" x2="488.36" y2="362.62"/><line class="f" x1="507.99" y1="363.65" x2="487.33" y2="363.65"/><line class="f" x1="507.99" y1="362.62" x2="487.33" y2="362.62"/><line class="f" x1="507.99" y1="360.21" x2="506.96" y2="360.21"/><line class="f" x1="488.36" y1="360.21" x2="487.33" y2="360.21"/><line class="f" x1="370.32" y1="407.56" x2="349.66" y2="407.56"/><line class="f" x1="349.66" y1="407.56" x2="349.66" y2="424.78"/><line class="f" x1="349.66" y1="424.78" x2="370.32" y2="424.78"/><line class="f" x1="370.32" y1="424.78" x2="370.32" y2="407.56"/><line class="f" x1="455.39" y1="424.78" x2="455.39" y2="395.51"/><line class="f" x1="452.98" y1="424.78" x2="452.98" y2="395.51"/><line class="f" x1="372.73" y1="424.78" x2="372.73" y2="398.95"/><line class="f" x1="372.73" y1="367.96" x2="372.73" y2="359.35"/><line class="f" x1="370.32" y1="404.12" x2="370.32" y2="398.95"/><line class="f" x1="415.09" y1="429.09" x2="415.09" y2="433.05"/><line class="f" x1="378.93" y1="429.09" x2="378.93" y2="424.78"/><g class="h"><path class="f" d="M537.35,396.37a.86.86,0,1,0-.86.86.86.86,0,0,0,.86-.86"/></g><line class="f" x1="514.11" y1="401.54" x2="514.11" y2="360.21"/><line class="f" x1="514.11" y1="360.21" x2="541.66" y2="360.21"/><line class="f" x1="541.66" y1="360.21" x2="541.66" y2="401.54"/><line class="f" x1="541.66" y1="401.54" x2="514.11" y2="401.54"/><line class="f" x1="515.83" y1="396.37" x2="515.83" y2="365.38"/><line class="f" x1="519.27" y1="361.93" x2="536.49" y2="361.93"/><line class="f" x1="539.94" y1="365.38" x2="539.94" y2="396.37"/><line class="f" x1="536.49" y1="399.82" x2="519.27" y2="399.82"/><g class="h"><path class="f" d="M519.27,399.82a3.45,3.45,0,0,1-3.44-3.45"/><path class="f" d="M515.83,365.38a3.45,3.45,0,0,1,3.44-3.45"/><path class="f" d="M539.94,396.37a3.46,3.46,0,0,1-3.45,3.45"/><path class="f" d="M536.49,361.93a3.45,3.45,0,0,1,3.44,3.45"/></g><line class="f" x1="518.41" y1="405.84" x2="518.41" y2="424.78"/><line class="f" x1="518.41" y1="424.78" x2="542.52" y2="424.78"/><line class="f" x1="542.52" y1="424.78" x2="542.52" y2="405.84"/><line class="f" x1="542.52" y1="405.84" x2="518.41" y2="405.84"/><line class="f" x1="542.52" y1="402.4" x2="514.97" y2="402.4"/><line class="f" x1="514.97" y1="402.4" x2="514.97" y2="420.03"/><line class="f" x1="514.97" y1="419.62" x2="514.97" y2="424.78"/><line class="f" x1="514.97" y1="424.78" x2="455.39" y2="424.78"/><line class="f" x1="452.98" y1="424.78" x2="416.82" y2="424.78"/><line class="f" x1="380.65" y1="433.05" x2="378.93" y2="433.05"/><line class="f" x1="380.65" y1="429.09" x2="378.93" y2="429.09"/><line class="f" x1="416.82" y1="429.09" x2="415.09" y2="429.09"/><line class="f" x1="416.82" y1="429.09" x2="416.82" y2="424.78"/><line class="f" x1="372.73" y1="367.96" x2="370.32" y2="367.96"/><line class="f" x1="370.32" y1="367.96" x2="370.32" y2="356.94"/><line class="f" x1="370.32" y1="404.12" x2="346.21" y2="404.12"/><line class="f" x1="370.32" y1="407.56" x2="370.32" y2="404.12"/><line class="f" x1="418.54" y1="356.94" x2="446.09" y2="356.94"/><line class="f" x1="418.54" y1="356.94" x2="418.54" y2="329.39"/><g class="h"><path class="f" d="M418.54,329.39a27.55,27.55,0,0,1,27.55,27.55"/></g><line class="f" x1="418.54" y1="359.35" x2="418.54" y2="356.94"/><line class="f" x1="446.09" y1="356.94" x2="446.09" y2="359.35"/><line class="f" x1="446.09" y1="356.94" x2="447.81" y2="356.94"/><line class="f" x1="446.09" y1="359.35" x2="447.81" y2="359.35"/><line class="f" x1="416.82" y1="356.94" x2="418.54" y2="356.94"/><line class="f" x1="416.82" y1="359.35" x2="418.54" y2="359.35"/><line class="f" x1="418.54" y1="359.35" x2="425.42" y2="359.35"/><line class="f" x1="429.21" y1="359.35" x2="429.99" y2="359.35"/><line class="f" x1="433.78" y1="359.35" x2="434.55" y2="359.35"/><line class="f" x1="438.34" y1="359.35" x2="439.2" y2="359.35"/><line class="f" x1="439.2" y1="359.35" x2="446.09" y2="359.35"/><line class="f" x1="418.54" y1="356.94" x2="418.54" y2="356.08"/><line class="f" x1="418.54" y1="356.08" x2="415.09" y2="356.08"/><line class="f" x1="415.09" y1="356.08" x2="415.09" y2="356.94"/><line class="f" x1="418.54" y1="359.35" x2="418.54" y2="360.21"/><line class="f" x1="418.54" y1="360.21" x2="415.09" y2="360.21"/><line class="f" x1="415.09" y1="360.21" x2="415.09" y2="359.35"/><line class="f" x1="446.09" y1="356.08" x2="449.53" y2="356.08"/><line class="f" x1="449.53" y1="356.08" x2="449.53" y2="356.94"/><line class="f" x1="446.09" y1="359.35" x2="446.09" y2="360.21"/><line class="f" x1="446.09" y1="360.21" x2="449.53" y2="360.21"/><line class="f" x1="449.53" y1="360.21" x2="449.53" y2="359.35"/><line class="f" x1="452.98" y1="393.79" x2="452.98" y2="369.68"/><line class="f" x1="452.98" y1="393.79" x2="428.87" y2="393.79"/><g class="h"><path class="f" d="M428.87,393.79A24.1,24.1,0,0,1,453,369.68"/></g><line class="f" x1="455.39" y1="393.79" x2="452.98" y2="393.79"/><line class="f" x1="452.98" y1="369.68" x2="455.39" y2="369.68"/><line class="f" x1="452.98" y1="369.68" x2="452.98" y2="367.96"/><line class="f" x1="455.39" y1="369.68" x2="455.39" y2="367.96"/><line class="f" x1="452.98" y1="395.51" x2="452.98" y2="393.79"/><line class="f" x1="455.39" y1="395.51" x2="455.39" y2="393.79"/><line class="f" x1="455.39" y1="393.79" x2="455.39" y2="386.9"/><line class="f" x1="455.39" y1="383.11" x2="455.39" y2="382.34"/><line class="f" x1="455.39" y1="378.55" x2="455.39" y2="377.77"/><line class="f" x1="455.39" y1="376.57" x2="455.39" y2="369.68"/><line class="f" x1="452.98" y1="393.79" x2="452.12" y2="393.79"/><line class="f" x1="452.12" y1="393.79" x2="452.12" y2="397.23"/><line class="f" x1="452.12" y1="397.23" x2="452.98" y2="397.23"/><line class="f" x1="455.39" y1="393.79" x2="456.25" y2="393.79"/><line class="f" x1="456.25" y1="393.79" x2="456.25" y2="397.23"/><line class="f" x1="456.25" y1="397.23" x2="455.39" y2="397.23"/><line class="f" x1="452.12" y1="369.68" x2="452.12" y2="366.24"/><line class="f" x1="452.12" y1="366.24" x2="452.98" y2="366.24"/><line class="f" x1="455.39" y1="369.68" x2="456.25" y2="369.68"/><line class="f" x1="456.25" y1="369.68" x2="456.25" y2="366.24"/><line class="f" x1="456.25" y1="366.24" x2="455.39" y2="366.24"/><line class="f" x1="370.32" y1="397.23" x2="370.32" y2="369.68"/><line class="f" x1="370.32" y1="397.23" x2="342.77" y2="397.23"/><g class="h"><path class="f" d="M342.77,397.23a27.56,27.56,0,0,1,27.55-27.55"/></g><line class="f" x1="372.73" y1="397.23" x2="370.32" y2="397.23"/><line class="f" x1="370.32" y1="369.68" x2="372.73" y2="369.68"/><line class="f" x1="370.32" y1="369.68" x2="370.32" y2="367.96"/><line class="f" x1="372.73" y1="369.68" x2="372.73" y2="367.96"/><line class="f" x1="370.32" y1="398.95" x2="370.32" y2="397.23"/><line class="f" x1="372.73" y1="398.95" x2="372.73" y2="397.23"/><line class="f" x1="372.73" y1="397.23" x2="372.73" y2="390.34"/><line class="f" x1="372.73" y1="386.56" x2="372.73" y2="385.78"/><line class="f" x1="372.73" y1="381.99" x2="372.73" y2="381.22"/><line class="f" x1="372.73" y1="377.43" x2="372.73" y2="376.57"/><line class="f" x1="372.73" y1="376.57" x2="372.73" y2="369.68"/><line class="f" x1="370.32" y1="397.23" x2="369.46" y2="397.23"/><line class="f" x1="369.46" y1="397.23" x2="369.46" y2="400.68"/><line class="f" x1="369.46" y1="400.68" x2="370.32" y2="400.68"/><line class="f" x1="372.73" y1="397.23" x2="373.59" y2="397.23"/><line class="f" x1="373.59" y1="397.23" x2="373.59" y2="400.68"/><line class="f" x1="373.59" y1="400.68" x2="372.73" y2="400.68"/><line class="f" x1="369.46" y1="369.68" x2="369.46" y2="366.24"/><line class="f" x1="369.46" y1="366.24" x2="370.32" y2="366.24"/><line class="f" x1="372.73" y1="369.68" x2="373.59" y2="369.68"/><line class="f" x1="373.59" y1="369.68" x2="373.59" y2="366.24"/><line class="f" x1="373.59" y1="366.24" x2="372.73" y2="366.24"/><line class="f" x1="382.38" y1="429.09" x2="413.37" y2="429.09"/><line class="f" x1="382.38" y1="433.05" x2="413.37" y2="433.05"/><line class="f" x1="382.38" y1="429.09" x2="382.38" y2="398.09"/><g class="h"><path class="f" d="M382.38,398.09a31,31,0,0,1,31,31"/></g><line class="f" x1="382.38" y1="433.05" x2="382.38" y2="429.09"/><line class="f" x1="413.37" y1="429.09" x2="413.37" y2="433.05"/><line class="f" x1="413.37" y1="429.09" x2="415.09" y2="429.09"/><line class="f" x1="413.37" y1="433.05" x2="415.09" y2="433.05"/><line class="f" x1="380.65" y1="429.09" x2="382.38" y2="429.09"/><line class="f" x1="380.65" y1="433.05" x2="382.38" y2="433.05"/><line class="f" x1="486.04" y1="255.69" x2="458.49" y2="255.69"/><line class="f" x1="458.49" y1="255.69" x2="458.49" y2="257.86"/><line class="f" x1="458.49" y1="257.86" x2="486.04" y2="257.86"/><line class="f" x1="486.04" y1="257.86" x2="486.04" y2="255.69"/><line class="f" x1="324.17" y1="255.69" x2="275.96" y2="255.69"/><line class="f" x1="275.96" y1="255.69" x2="275.96" y2="259.13"/><line class="f" x1="275.96" y1="259.13" x2="324.18" y2="259.13"/><line class="f" x1="324.17" y1="259.13" x2="324.17" y2="255.69"/><g class="h"><path class="f" d="M329.34,257.41a1.72,1.72,0,1,0-1.72,1.72,1.72,1.72,0,0,0,1.72-1.72"/><path class="f" d="M491.2,256.77a1.72,1.72,0,1,0-1.72,1.73,1.72,1.72,0,0,0,1.72-1.73"/></g><line class="f" x1="363.78" y1="240.19" x2="356.89" y2="240.19"/><line class="f" x1="353.1" y1="240.19" x2="352.33" y2="240.19"/><line class="f" x1="348.54" y1="240.19" x2="347.77" y2="240.19"/><line class="f" x1="343.98" y1="240.19" x2="339.67" y2="240.19"/><line class="f" x1="339.67" y1="240.19" x2="332.78" y2="240.19"/><line class="f" x1="446.43" y1="240.19" x2="439.55" y2="240.19"/><line class="f" x1="435.76" y1="240.19" x2="434.98" y2="240.19"/><line class="f" x1="431.19" y1="240.19" x2="430.42" y2="240.19"/><line class="f" x1="426.63" y1="240.19" x2="422.33" y2="240.19"/><line class="f" x1="422.33" y1="240.19" x2="415.44" y2="240.19"/><line class="f" x1="518.41" y1="424.78" x2="538.76" y2="421.33"/><line class="f" x1="538.76" y1="421.33" x2="542.52" y2="405.84"/><line class="f" x1="542.52" y1="405.84" x2="542.52" y2="424.78"/><line class="f" x1="542.52" y1="424.78" x2="518.41" y2="424.78"/><line class="f" x1="349.66" y1="424.78" x2="366.56" y2="421.33"/><line class="f" x1="366.56" y1="421.33" x2="370.32" y2="407.56"/><line class="f" x1="370.32" y1="407.56" x2="370.32" y2="424.78"/><line class="f" x1="370.32" y1="424.78" x2="349.66" y2="424.78"/><line class="f" x1="550.78" y1="429.6" x2="550.78" y2="429.6"/><line class="f" x1="550.78" y1="429.6" x2="550.78" y2="429.6"/><rect class="d" x="372.73" y="359.35" width="40.98" height="5.51"/><line class="f" x1="413.72" y1="364.86" x2="372.73" y2="364.86"/><line class="f" x1="372.73" y1="364.86" x2="372.73" y2="359.35"/><line class="f" x1="372.73" y1="359.35" x2="413.72" y2="359.35"/><line class="f" x1="413.72" y1="359.35" x2="413.72" y2="364.86"/><rect class="d" x="288.01" y="295.29" width="17.22" height="27.55"/><line class="f" x1="288.01" y1="322.84" x2="305.22" y2="322.84"/><line class="f" x1="288.01" y1="295.29" x2="288.01" y2="322.84"/><line class="f" x1="305.22" y1="295.29" x2="288.01" y2="295.29"/><line class="f" x1="305.22" y1="322.84" x2="305.22" y2="295.29"/><rect class="d" x="455.39" y="419.62" width="59.58" height="5.17"/><line class="f" x1="514.97" y1="424.78" x2="455.39" y2="424.78"/><line class="f" x1="455.39" y1="424.78" x2="455.39" y2="419.62"/><line class="f" x1="455.39" y1="419.62" x2="514.97" y2="419.62"/><line class="f" x1="514.97" y1="419.62" x2="514.97" y2="424.78"/><rect class="d" x="372.05" y="253.97" width="16.53" height="102.97"/><line class="f" x1="388.58" y1="356.94" x2="372.05" y2="356.94"/><line class="f" x1="372.05" y1="356.94" x2="372.05" y2="253.97"/><line class="f" x1="372.05" y1="253.97" x2="388.58" y2="253.97"/><line class="f" x1="388.58" y1="253.97" x2="388.58" y2="356.94"/><rect class="d" x="506.96" y="360.21" width="1.03" height="2.41"/><line class="f" x1="506.96" y1="362.62" x2="507.99" y2="362.62"/><line class="f" x1="506.96" y1="360.21" x2="506.96" y2="362.62"/><line class="f" x1="507.99" y1="360.21" x2="506.96" y2="360.21"/><line class="f" x1="507.99" y1="362.62" x2="507.99" y2="360.21"/><rect class="d" x="487.33" y="362.62" width="20.66" height="1.03"/><line class="f" x1="507.99" y1="363.65" x2="507.99" y2="362.62"/><line class="f" x1="487.33" y1="363.65" x2="507.99" y2="363.65"/><line class="f" x1="487.33" y1="362.62" x2="487.33" y2="363.65"/><line class="f" x1="507.99" y1="362.62" x2="487.33" y2="362.62"/><rect class="d" x="487.33" y="360.21" width="1.03" height="2.41"/><line class="f" x1="487.33" y1="362.62" x2="488.36" y2="362.62"/><line class="f" x1="487.33" y1="360.21" x2="487.33" y2="362.62"/><line class="f" x1="488.36" y1="360.21" x2="487.33" y2="360.21"/><line class="f" x1="488.36" y1="362.62" x2="488.36" y2="360.21"/><rect class="d" x="458.49" y="255.69" width="27.55" height="2.17"/><line class="f" x1="458.49" y1="257.86" x2="486.04" y2="257.86"/><line class="f" x1="458.49" y1="255.69" x2="458.49" y2="257.86"/><line class="f" x1="486.04" y1="255.69" x2="458.49" y2="255.69"/><line class="f" x1="486.04" y1="257.86" x2="486.04" y2="255.69"/><polygon class="i" points="491.2 256.77 490.7 257.99 489.48 258.5 488.26 257.99 487.76 256.77 488.26 255.56 489.48 255.05 490.7 255.56 491.2 256.77"/><g class="h"><path class="f" d="M491.2,256.77a1.72,1.72,0,1,1-3.44,0"/><path class="f" d="M487.76,256.77a1.72,1.72,0,1,1,3.44,0"/></g><rect class="d" x="275.96" y="255.69" width="48.22" height="3.44"/><line class="f" x1="324.17" y1="255.69" x2="275.96" y2="255.69"/><line class="f" x1="324.17" y1="259.13" x2="324.17" y2="255.69"/><line class="f" x1="275.96" y1="259.13" x2="324.18" y2="259.13"/><line class="f" x1="275.96" y1="255.69" x2="275.96" y2="259.13"/><polygon class="i" points="329.34 257.41 328.83 258.63 327.62 259.13 326.4 258.63 325.9 257.41 326.4 256.19 327.62 255.69 328.83 256.19 329.34 257.41"/><g class="h"><path class="f" d="M329.34,257.41a1.72,1.72,0,1,1-3.44,0"/><path class="f" d="M325.9,257.41a1.72,1.72,0,1,1,3.44,0"/></g><line class="f" x1="550.78" y1="409.98" x2="550.78" y2="409.98"/><line class="f" x1="550.78" y1="409.98" x2="550.78" y2="344.54"/><line class="f" x1="550.78" y1="387.06" x2="550.78" y2="387.06"/><line class="f" x1="550.78" y1="381.89" x2="550.78" y2="381.89"/><g class="h"><path class="f" d="M550.78,344.54a3.45,3.45,0,0,1,3.45-3.44"/></g><line class="f" x1="550.78" y1="265.64" x2="550.78" y2="265.64"/><line class="f" x1="550.78" y1="306.97" x2="550.78" y2="306.97"/><line class="f" x1="550.78" y1="306.97" x2="550.78" y2="265.64"/><polygon class="i" points="542.52 274.63 480.53 274.63 477.89 275.15 475.66 276.65 474.16 278.88 473.64 281.52 473.64 329.73 474.16 332.37 475.66 334.6 477.89 336.1 480.53 336.62 532.19 336.62 542.52 336.62 542.52 274.63"/><rect class="d" x="532.19" y="262.58" width="10.33" height="12.05"/><rect class="d" x="532.19" y="336.62" width="10.33" height="12.05"/><line class="f" x1="531.07" y1="307.57" x2="534.05" y2="308.4"/><line class="f" x1="531.07" y1="278.66" x2="534.05" y2="279.48"/><line class="f" x1="473.64" y1="329.73" x2="473.64" y2="281.52"/><line class="f" x1="480.53" y1="274.63" x2="542.52" y2="274.63"/><line class="f" x1="542.52" y1="274.63" x2="542.52" y2="336.62"/><line class="f" x1="542.52" y1="336.62" x2="480.53" y2="336.62"/><line class="f" x1="542.52" y1="274.63" x2="542.52" y2="262.58"/><line class="f" x1="542.52" y1="262.58" x2="532.19" y2="262.58"/><line class="f" x1="532.19" y1="262.58" x2="532.19" y2="274.63"/><line class="f" x1="532.19" y1="274.63" x2="542.52" y2="274.63"/><line class="f" x1="542.52" y1="348.67" x2="542.52" y2="336.62"/><line class="f" x1="542.52" y1="336.62" x2="532.19" y2="336.62"/><line class="f" x1="532.19" y1="336.62" x2="532.19" y2="348.67"/><line class="f" x1="532.19" y1="348.67" x2="542.52" y2="348.67"/><line class="f" x1="519.6" y1="274.63" x2="519.6" y2="336.62"/><line class="f" x1="514.44" y1="274.63" x2="514.44" y2="336.62"/><g class="h"><path class="f" d="M525.16,280.57a95.85,95.85,0,0,1-.34,22.44"/><path class="f" d="M525.16,280.57a2.71,2.71,0,0,1,0-.4,1.84,1.84,0,0,1,1.84-1.84h.1"/><path class="f" d="M527.06,278.33c.27,0,.54,0,.82,0a14.3,14.3,0,0,1,3.19.35"/><path class="f" d="M531.07,278.66c1.72-.17,3.46-.26,5.19-.26.83,0,1.67,0,2.5.06"/><path class="f" d="M538.76,278.46l.11,0a.39.39,0,0,1,.39.39.28.28,0,0,1,0,.09"/><path class="f" d="M538.91,303.08q-.23-4.66-.22-9.35,0-7.41.56-14.81"/><path class="f" d="M538.91,303.08a.76.76,0,0,1,0,.21,1,1,0,0,1-1,1,1.06,1.06,0,0,1-.31-.05"/><path class="f" d="M525.8,304a45.94,45.94,0,0,1,5.25-.3,47.32,47.32,0,0,1,6.62.47"/><path class="f" d="M525.8,304a.83.83,0,0,1-.22,0,.79.79,0,0,1-.79-.8,1,1,0,0,1,0-.24"/><path class="f" d="M473.64,281.52a6.88,6.88,0,0,1,6.89-6.89"/><path class="f" d="M480.53,336.62a6.88,6.88,0,0,1-6.89-6.89"/><path class="f" d="M525.16,309.48a95.94,95.94,0,0,1-.34,22.45"/><path class="f" d="M525.16,309.48a2.58,2.58,0,0,1,0-.39,1.85,1.85,0,0,1,1.84-1.85h.1"/><path class="f" d="M527.06,307.25c.27,0,.54,0,.82,0a14.92,14.92,0,0,1,3.19.35"/><path class="f" d="M531.07,307.57c1.72-.17,3.46-.25,5.19-.25.83,0,1.67,0,2.5.06"/><path class="f" d="M538.76,307.38l.11,0a.39.39,0,0,1,.39.39.19.19,0,0,1,0,.08"/><path class="f" d="M538.91,332q-.23-4.67-.22-9.35,0-7.42.56-14.81"/><path class="f" d="M538.91,332a.75.75,0,0,1,0,.2,1,1,0,0,1-1,1,1.06,1.06,0,0,1-.31-.05"/><path class="f" d="M525.8,332.93a46,46,0,0,1,11.87.18"/><path class="f" d="M525.8,332.93a.56.56,0,0,1-.22,0,.79.79,0,0,1-.79-.79,1,1,0,0,1,0-.24"/></g><polygon class="i" points="379.43 306.34 378.05 304.64 377.3 302.51 377.3 300.23 378.05 298.1 379.43 296.39 379.43 285.67 381.34 285.67 383.25 293.52 383.25 295.81 384.29 299.46 384.29 303.28 383.25 306.93 383.25 309.22 381.34 317.07 379.43 317.07 379.43 306.34"/><line class="f" x1="379.42" y1="306.34" x2="378.04" y2="304.64"/><line class="f" x1="378.04" y1="304.64" x2="377.3" y2="302.51"/><line class="f" x1="377.3" y1="302.51" x2="377.3" y2="300.23"/><line class="f" x1="377.3" y1="300.23" x2="378.04" y2="298.1"/><line class="f" x1="378.04" y1="298.1" x2="379.42" y2="296.4"/><line class="f" x1="379.42" y1="296.4" x2="379.42" y2="285.67"/><line class="f" x1="379.42" y1="285.67" x2="381.34" y2="285.67"/><line class="f" x1="381.34" y1="285.67" x2="383.25" y2="293.52"/><line class="f" x1="383.25" y1="293.52" x2="383.25" y2="295.81"/><line class="f" x1="383.25" y1="295.81" x2="384.29" y2="299.46"/><line class="f" x1="384.29" y1="299.46" x2="384.29" y2="303.28"/><line class="f" x1="384.29" y1="303.28" x2="383.25" y2="306.93"/><line class="f" x1="383.25" y1="306.93" x2="383.25" y2="309.22"/><line class="f" x1="383.25" y1="309.22" x2="381.34" y2="317.07"/><line class="f" x1="381.34" y1="317.07" x2="379.43" y2="317.07"/><line class="f" x1="379.42" y1="317.07" x2="379.42" y2="306.34"/><line class="f" x1="379.42" y1="317.07" x2="379.42" y2="285.67"/><line class="f" x1="383.25" y1="293.52" x2="383.25" y2="309.22"/><line class="f" x1="381.34" y1="317.07" x2="379.43" y2="317.07"/><line class="f" x1="380.19" y1="287.76" x2="380.19" y2="289.85"/><line class="f" x1="380.19" y1="289.85" x2="380.67" y2="289.85"/><line class="f" x1="380.67" y1="289.85" x2="380.67" y2="287.76"/><line class="f" x1="380.67" y1="287.76" x2="380.19" y2="287.76"/><line class="f" x1="380.19" y1="290.38" x2="380.19" y2="292.47"/><line class="f" x1="380.19" y1="292.47" x2="380.67" y2="292.47"/><line class="f" x1="380.67" y1="292.47" x2="380.67" y2="290.38"/><line class="f" x1="380.67" y1="290.38" x2="380.19" y2="290.38"/><line class="f" x1="381.34" y1="317.07" x2="381.34" y2="285.67"/><line class="f" x1="380.67" y1="292.99" x2="380.19" y2="292.99"/><line class="f" x1="380.19" y1="292.99" x2="380.19" y2="294.04"/><line class="f" x1="380.19" y1="294.04" x2="380.67" y2="294.04"/><line class="f" x1="380.67" y1="294.04" x2="380.67" y2="293"/><g class="h"><path class="f" d="M379.43,306.34a6.67,6.67,0,0,1,0-9.94"/></g><polygon class="i" points="280.43 288.46 281.06 288.1 281.12 287.37 281.12 261.89 281.15 261.41 280.88 261.01 280.43 260.85 252.53 260.85 252.05 261.06 251.84 261.54 251.84 332.49 252.05 332.98 252.53 333.18 277.67 333.18 279.39 332.71 280.66 331.45 281.12 329.73 281.12 328.7 280.92 328.21 280.43 328.01 280.93 327.6 281.12 326.98 281.12 289.44 280.93 288.84 280.43 288.46"/><polygon class="i" points="303.5 288.4 306.14 287.88 308.37 286.39 309.87 284.15 310.39 281.52 310.39 267.74 309.87 265.11 308.37 262.87 306.14 261.38 303.5 260.85 282.15 260.85 281.42 261.16 281.12 261.89 281.12 287.37 281.42 288.1 282.15 288.4 303.5 288.4"/><line class="f" x1="282.15" y1="288.41" x2="303.5" y2="288.41"/><g class="h"><path class="f" d="M282.15,288.41a1,1,0,0,1-1-1"/></g><line class="f" x1="281.12" y1="261.89" x2="281.12" y2="287.37"/><g class="h"><path class="f" d="M281.12,261.89a1,1,0,0,1,1-1"/></g><line class="f" x1="303.5" y1="260.85" x2="282.15" y2="260.85"/><g class="h"><path class="f" d="M303.5,260.85a6.89,6.89,0,0,1,6.89,6.89"/></g><line class="f" x1="310.39" y1="281.52" x2="310.39" y2="267.74"/><g class="h"><path class="f" d="M310.39,281.52a6.88,6.88,0,0,1-6.89,6.88"/></g><line class="f" x1="281.12" y1="328.7" x2="281.12" y2="329.73"/><line class="f" x1="277.67" y1="333.18" x2="252.53" y2="333.18"/><line class="f" x1="251.84" y1="332.49" x2="251.84" y2="328.7"/><line class="f" x1="252.53" y1="328.01" x2="280.43" y2="328.01"/><line class="f" x1="251.84" y1="328.7" x2="251.84" y2="288.41"/><line class="f" x1="251.84" y1="288.41" x2="254.25" y2="288.41"/><line class="f" x1="281.12" y1="289.44" x2="281.12" y2="326.98"/><line class="f" x1="280.08" y1="328.01" x2="262.82" y2="328.01"/><line class="f" x1="262.82" y1="288.41" x2="280.08" y2="288.41"/><line class="f" x1="254.25" y1="328.01" x2="260.75" y2="328.01"/><line class="f" x1="260.75" y1="288.41" x2="254.26" y2="288.41"/><line class="f" x1="281.12" y1="265.33" x2="281.12" y2="261.54"/><line class="f" x1="280.43" y1="260.85" x2="252.53" y2="260.85"/><line class="f" x1="251.84" y1="261.54" x2="251.84" y2="265.33"/><line class="f" x1="251.84" y1="265.33" x2="251.84" y2="288.41"/><line class="f" x1="251.84" y1="288.41" x2="254.25" y2="288.41"/><line class="f" x1="281.12" y1="287.37" x2="281.12" y2="267.05"/><line class="f" x1="262.82" y1="288.41" x2="280.08" y2="288.41"/><line class="f" x1="262.82" y1="288.41" x2="254.25" y2="288.41"/><line class="f" x1="310.39" y1="281.52" x2="310.39" y2="267.74"/><line class="f" x1="303.5" y1="260.85" x2="282.15" y2="260.85"/><line class="f" x1="281.12" y1="261.89" x2="281.12" y2="287.37"/><line class="f" x1="282.15" y1="288.41" x2="303.5" y2="288.41"/><line class="f" x1="253.22" y1="287.37" x2="253.22" y2="261.89"/><line class="f" x1="253.22" y1="289.44" x2="253.22" y2="326.98"/><g class="h"><path class="f" d="M252.53,333.18a.69.69,0,0,1-.69-.69"/><path class="f" d="M251.84,328.7a.69.69,0,0,1,.69-.69"/><path class="f" d="M280.43,328a.69.69,0,0,1,.69.69"/><path class="f" d="M281.12,327a1,1,0,0,1-1,1"/><path class="f" d="M280.08,288.41a1,1,0,0,1,1,1"/><path class="f" d="M280.43,260.85a.69.69,0,0,1,.69.69"/><path class="f" d="M251.84,261.54a.69.69,0,0,1,.69-.69"/><path class="f" d="M281.12,287.37a1,1,0,0,1-1,1"/><path class="f" d="M281.12,261.89a1,1,0,0,1,1-1"/><path class="f" d="M282.15,288.41a1,1,0,0,1-1-1"/></g><line class="f" x1="253.22" y1="261.89" x2="276.68" y2="261.89"/><g class="h"><path class="f" d="M257.23,287.41a19.54,19.54,0,0,1,14.71-24.28"/><path class="f" d="M258,289.44A117.41,117.41,0,0,1,258,327"/><path class="f" d="M310.39,281.52a6.88,6.88,0,0,1-6.89,6.88"/><path class="f" d="M303.5,260.85a6.89,6.89,0,0,1,6.89,6.89"/><path class="f" d="M281.12,329.73a3.45,3.45,0,0,1-3.45,3.45"/></g><polygon class="i" points="327.45 348.61 331.31 341.93 331.77 340.21 331.31 338.48 330.06 337.22 324.1 333.76 322.39 333.29 320.67 333.75 319.4 335.02 315.55 341.69 319.11 342.17 322.42 343.55 325.27 345.75 327.45 348.61"/><polygon class="i" points="315.51 369.3 319.34 375.99 320.6 377.25 322.32 377.72 324.04 377.26 330 373.82 331.26 372.56 331.72 370.83 331.27 369.11 327.43 362.42 325.24 365.27 322.39 367.46 319.07 368.83 315.51 369.3"/><polygon class="i" points="303.63 348.57 295.94 348.56 294.22 349.02 292.95 350.29 292.49 352.01 292.48 358.91 292.94 360.64 294.2 361.9 295.92 362.37 303.6 362.38 302.24 359.05 301.77 355.48 302.25 351.9 303.63 348.57"/><polygon class="i" points="315.55 341.69 319.11 342.17 322.42 343.55 325.27 345.75 327.45 348.61 328.82 351.94 329.29 355.52 328.81 359.09 327.43 362.42 325.24 365.27 322.39 367.46 319.07 368.83 315.51 369.3 311.95 368.82 308.63 367.44 305.79 365.24 303.6 362.38 302.24 359.05 301.77 355.48 302.25 351.9 303.63 348.57 305.82 345.72 308.67 343.53 311.99 342.16 315.55 341.69"/><line class="f" x1="315.55" y1="341.69" x2="319.11" y2="342.17"/><line class="f" x1="319.11" y1="342.17" x2="322.42" y2="343.55"/><line class="f" x1="322.42" y1="343.55" x2="325.27" y2="345.75"/><line class="f" x1="325.27" y1="345.75" x2="327.45" y2="348.61"/><line class="f" x1="327.45" y1="348.61" x2="328.82" y2="351.94"/><line class="f" x1="328.82" y1="351.94" x2="329.29" y2="355.51"/><line class="f" x1="329.29" y1="355.52" x2="328.81" y2="359.09"/><line class="f" x1="328.81" y1="359.09" x2="327.43" y2="362.41"/><line class="f" x1="327.43" y1="362.41" x2="325.24" y2="365.27"/><line class="f" x1="325.24" y1="365.27" x2="322.39" y2="367.46"/><line class="f" x1="322.39" y1="367.46" x2="319.07" y2="368.83"/><line class="f" x1="319.07" y1="368.83" x2="315.51" y2="369.3"/><line class="f" x1="315.51" y1="369.3" x2="311.95" y2="368.82"/><line class="f" x1="311.95" y1="368.82" x2="308.63" y2="367.44"/><line class="f" x1="308.63" y1="367.44" x2="305.79" y2="365.24"/><line class="f" x1="305.79" y1="365.24" x2="303.6" y2="362.38"/><line class="f" x1="303.6" y1="362.38" x2="302.24" y2="359.05"/><line class="f" x1="302.24" y1="359.05" x2="301.77" y2="355.48"/><line class="f" x1="301.77" y1="355.48" x2="302.25" y2="351.9"/><line class="f" x1="302.25" y1="351.9" x2="303.63" y2="348.57"/><line class="f" x1="303.63" y1="348.57" x2="305.82" y2="345.72"/><line class="f" x1="305.82" y1="345.72" x2="308.67" y2="343.53"/><line class="f" x1="308.67" y1="343.53" x2="311.99" y2="342.16"/><line class="f" x1="311.99" y1="342.16" x2="315.55" y2="341.69"/><g class="h"><path class="f" d="M329.28,355.52h0a13.76,13.76,0,1,1-27.51,0"/><path class="f" d="M301.77,355.48h0a13.76,13.76,0,1,1,27.51,0"/></g><line class="f" x1="329.19" y1="338.71" x2="323.24" y2="335.25"/><line class="f" x1="319.4" y1="335.01" x2="315.55" y2="341.69"/><line class="f" x1="330.06" y1="337.22" x2="324.1" y2="333.76"/><line class="f" x1="327.45" y1="348.61" x2="331.31" y2="341.93"/><line class="f" x1="323.18" y1="375.76" x2="329.14" y2="372.32"/><line class="f" x1="331.27" y1="369.11" x2="327.43" y2="362.41"/><line class="f" x1="324.04" y1="377.26" x2="330" y2="373.82"/><line class="f" x1="315.51" y1="369.3" x2="319.34" y2="375.99"/><line class="f" x1="294.21" y1="352.01" x2="294.2" y2="358.91"/><line class="f" x1="295.91" y1="362.37" x2="303.6" y2="362.38"/><line class="f" x1="292.49" y1="352.01" x2="292.48" y2="358.91"/><line class="f" x1="303.63" y1="348.57" x2="295.93" y2="348.56"/><g class="h"><path class="f" d="M320.89,335.88a1.73,1.73,0,0,1,1.49-.86,1.7,1.7,0,0,1,.86.23"/><path class="f" d="M329.19,338.71a1.73,1.73,0,0,1,.63,2.36"/><path class="f" d="M319.4,335a3.47,3.47,0,0,1,3-1.72,3.33,3.33,0,0,1,1.71.47"/><path class="f" d="M330.05,337.22a3.45,3.45,0,0,1,1.26,4.71"/><path class="f" d="M329.77,370a1.61,1.61,0,0,1,.23.86,1.72,1.72,0,0,1-.86,1.49"/><path class="f" d="M323.18,375.76a1.72,1.72,0,0,1-2.35-.63"/><path class="f" d="M331.26,369.1a3.4,3.4,0,0,1,.46,1.73,3.47,3.47,0,0,1-1.72,3"/><path class="f" d="M324,377.26a3.44,3.44,0,0,1-4.7-1.27"/><path class="f" d="M295.92,360.64a1.72,1.72,0,0,1-1.72-1.73"/><path class="f" d="M294.21,352h0a1.72,1.72,0,0,1,1.72-1.72"/><path class="f" d="M295.92,362.37h0a3.44,3.44,0,0,1-3.44-3.46"/><path class="f" d="M292.49,352a3.44,3.44,0,0,1,3.45-3.45"/></g><polygon class="i" points="488.62 419.62 506.53 419.62 506.89 419.46 507.05 419.1 507.05 404.98 506.89 404.62 506.53 404.46 488.62 404.46 488.26 404.62 488.11 404.98 488.11 419.1 488.26 419.46 488.62 419.62"/><g class="h"><path class="f" d="M488.62,419.62a.52.52,0,0,1-.52-.52"/></g><line class="f" x1="488.1" y1="404.98" x2="488.1" y2="419.1"/><g class="h"><path class="f" d="M488.1,405a.53.53,0,0,1,.52-.52"/></g><line class="f" x1="506.53" y1="404.46" x2="488.62" y2="404.46"/><g class="h"><path class="f" d="M506.53,404.46a.52.52,0,0,1,.52.52"/></g><line class="f" x1="507.05" y1="419.1" x2="507.05" y2="404.98"/><g class="h"><path class="f" d="M507.05,419.1a.52.52,0,0,1-.52.52"/></g><line class="f" x1="488.62" y1="419.62" x2="506.53" y2="419.62"/><line class="f" x1="489.65" y1="415.83" x2="505.5" y2="415.83"/><line class="f" x1="506.01" y1="415.31" x2="506.01" y2="406.01"/><line class="f" x1="505.5" y1="405.5" x2="489.65" y2="405.5"/><line class="f" x1="489.14" y1="406.01" x2="489.14" y2="415.31"/><g class="h"><path class="f" d="M506,415.31a.51.51,0,0,1-.51.52"/><path class="f" d="M505.5,405.5a.51.51,0,0,1,.51.51"/><path class="f" d="M489.14,406a.51.51,0,0,1,.51-.51"/><path class="f" d="M489.65,415.83a.51.51,0,0,1-.51-.52"/></g><polygon class="i" points="496.71 417.55 496.85 416.11 496.97 415.78 497.19 413.96 497.32 413.71 497.57 413.62 497.83 413.71 497.96 413.96 498.19 415.78 498.3 416.11 498.44 417.55 498.19 418.16 497.57 418.41 496.97 418.16 496.71 417.55"/><line class="f" x1="496.71" y1="417.55" x2="496.85" y2="416.11"/><g class="h"><path class="f" d="M496.85,416.11a.66.66,0,0,1,.12-.33"/></g><line class="f" x1="496.97" y1="415.78" x2="497.19" y2="413.96"/><g class="h"><path class="f" d="M497.19,414a.39.39,0,0,1,.77,0"/></g><line class="f" x1="497.96" y1="413.96" x2="498.18" y2="415.78"/><g class="h"><path class="f" d="M498.18,415.78a.66.66,0,0,1,.12.33"/></g><line class="f" x1="498.3" y1="416.11" x2="498.44" y2="417.55"/><g class="h"><path class="f" d="M498.44,417.55a.87.87,0,0,1-1.73,0"/></g><line class="f" x1="498.04" y1="416.69" x2="498.04" y2="416.18"/><line class="f" x1="497.11" y1="416.18" x2="497.11" y2="416.69"/><line class="f" x1="497.11" y1="416.69" x2="498.04" y2="416.69"/><g class="h"><path class="f" d="M497.11,416.18a.47.47,0,1,1,.93,0"/><path class="f" d="M497,415.78a.71.71,0,0,1,.61-.33.73.73,0,0,1,.61.33"/></g><rect class="d" x="390.99" y="253.97" width="20.66" height="51.83"/><line class="f" x1="390.99" y1="305.8" x2="390.99" y2="253.97"/><line class="f" x1="390.99" y1="253.97" x2="411.65" y2="253.97"/><line class="f" x1="411.65" y1="253.97" x2="411.65" y2="305.8"/><line class="f" x1="411.65" y1="305.8" x2="390.99" y2="305.8"/><line class="f" x1="401.32" y1="303.21" x2="401.32" y2="256.56"/><line class="f" x1="395.24" y1="300.8" x2="407.62" y2="296.42"/><line class="f" x1="394.62" y1="295.86" x2="406.14" y2="294.05"/><line class="f" x1="408.77" y1="289.11" x2="396.13" y2="287.62"/><line class="f" x1="407.11" y1="281.46" x2="396.13" y2="283.49"/><line class="f" x1="407.74" y1="278.68" x2="394.21" y2="278.68"/><line class="f" x1="407.8" y1="270.8" x2="394.43" y2="272.67"/><line class="f" x1="407.58" y1="267.85" x2="395.36" y2="267.85"/><line class="f" x1="407.7" y1="260.08" x2="395.18" y2="258.58"/><line class="f" x1="406.85" y1="261.95" x2="396.26" y2="263.47"/><rect class="d" x="390.99" y="305.8" width="20.66" height="51.14"/><line class="f" x1="390.99" y1="356.94" x2="390.99" y2="305.8"/><line class="f" x1="390.99" y1="305.8" x2="411.65" y2="305.8"/><line class="f" x1="411.65" y1="305.8" x2="411.65" y2="356.94"/><line class="f" x1="411.65" y1="356.94" x2="390.99" y2="356.94"/><line class="f" x1="401.32" y1="354.38" x2="401.32" y2="308.35"/><line class="f" x1="395.24" y1="352.01" x2="407.62" y2="347.68"/><line class="f" x1="394.62" y1="347.13" x2="406.14" y2="345.35"/><line class="f" x1="408.77" y1="340.47" x2="396.13" y2="339"/><line class="f" x1="407.11" y1="332.93" x2="396.13" y2="334.92"/><line class="f" x1="407.74" y1="330.18" x2="394.21" y2="330.18"/><line class="f" x1="407.8" y1="322.41" x2="394.43" y2="324.25"/><line class="f" x1="407.58" y1="319.5" x2="395.36" y2="319.5"/><line class="f" x1="407.7" y1="311.83" x2="395.18" y2="310.36"/><line class="f" x1="406.85" y1="313.67" x2="396.26" y2="315.17"/><polygon class="i" points="465.55 419.62 478.29 419.62 478.29 408.25 478.02 406.55 477.25 405.01 476.05 403.78 474.1 402.75 471.92 402.4 469.74 402.75 467.79 403.78 466.58 405.01 465.81 406.55 465.55 408.25 465.55 419.62"/><line class="f" x1="478.29" y1="419.62" x2="478.29" y2="408.25"/><line class="f" x1="478.29" y1="419.62" x2="465.55" y2="419.62"/><line class="f" x1="465.55" y1="419.62" x2="465.55" y2="408.25"/><line class="f" x1="476.22" y1="415.48" x2="476.22" y2="408.25"/><line class="f" x1="467.61" y1="415.48" x2="467.61" y2="408.25"/><line class="f" x1="467.61" y1="415.48" x2="476.22" y2="415.48"/><g class="h"><path class="f" d="M476.05,403.78a5.57,5.57,0,0,1,2.24,4.47"/><path class="f" d="M465.55,408.25a5.57,5.57,0,0,1,2.24-4.47"/><path class="f" d="M467.79,403.78a6.87,6.87,0,0,1,8.26,0"/><path class="f" d="M465.55,408.25a5.57,5.57,0,0,1,2.24-4.47"/><path class="f" d="M467.79,403.78a6.84,6.84,0,0,1,4.13-1.38"/><path class="f" d="M467.61,408.25a3.53,3.53,0,0,1,1.42-2.82"/><path class="f" d="M469,405.43a4.79,4.79,0,0,1,5.78,0"/><path class="f" d="M474.81,405.43a3.52,3.52,0,0,1,1.41,2.82"/></g><line class="f" x1="378.93" y1="424.78" x2="385.82" y2="424.78"/><line class="f" x1="389.61" y1="424.78" x2="390.38" y2="424.78"/><line class="f" x1="394.17" y1="424.78" x2="394.95" y2="424.78"/><line class="f" x1="398.73" y1="424.78" x2="405.62" y2="424.78"/><line class="f" x1="409.41" y1="424.78" x2="409.93" y2="424.78"/><line class="f" x1="409.93" y1="424.78" x2="416.82" y2="424.78"/><line class="f" x1="296.66" y1="417.08" x2="296.66" y2="411.31"/><line class="f" x1="296.66" y1="411.31" x2="294.32" y2="413.21"/><line class="f" x1="294.32" y1="413.2" x2="291.97" y2="411.31"/><line class="f" x1="291.97" y1="411.31" x2="291.97" y2="417.08"/><line class="f" x1="244.1" y1="186.81" x2="546.48" y2="186.81"/><line class="f" x1="244.1" y1="185.09" x2="546.48" y2="185.09"/><line class="f" x1="239.8" y1="433.05" x2="550.78" y2="433.05"/><line class="f" x1="550.78" y1="433.05" x2="550.78" y2="240.19"/><line class="f" x1="550.78" y1="240.19" x2="546.48" y2="240.19"/><line class="f" x1="546.48" y1="240.19" x2="546.48" y2="185.08"/><line class="f" x1="546.48" y1="185.08" x2="244.1" y2="185.08"/><line class="f" x1="244.1" y1="185.08" x2="244.1" y2="240.19"/><line class="f" x1="244.1" y1="240.19" x2="239.8" y2="240.19"/><line class="f" x1="239.8" y1="240.19" x2="239.8" y2="433.05"/><path class="j" d="M399.93,380.79v7h-.72v-6.36h-1.65v-.64Z"/><path class="j" d="M401.61,387.29a.53.53,0,0,1,.53-.54.54.54,0,0,1,.54.54.55.55,0,0,1-.54.55A.54.54,0,0,1,401.61,387.29Z"/><path class="j" d="M403.62,384.29c0-2.23,1.17-3.56,2.79-3.56s2.8,1.33,2.8,3.56-1.18,3.56-2.8,3.56S403.62,386.52,403.62,384.29Zm4.85,0c0-1.87-.84-2.9-2.06-2.9s-2.06,1-2.06,2.9.84,2.9,2.06,2.9S408.47,386.16,408.47,384.29Z"/><path class="j" d="M412.17,380.79v7h-.72v-6.36H409.8v-.64Z"/><path class="j" d="M338.49,301v7h-.72v-6.36h-1.65V301Z"/><path class="j" d="M340.17,307.54a.53.53,0,0,1,.53-.54.54.54,0,0,1,.54.54.55.55,0,0,1-.54.55A.54.54,0,0,1,340.17,307.54Z"/><path class="j" d="M342.18,304.54c0-2.23,1.17-3.56,2.79-3.56s2.79,1.33,2.79,3.56-1.17,3.56-2.79,3.56S342.18,306.77,342.18,304.54Zm4.85,0c0-1.87-.84-2.9-2.06-2.9s-2.06,1-2.06,2.9.84,2.9,2.06,2.9S347,306.41,347,304.54Z"/><path class="j" d="M353.57,307.4V308h-4.91v-.51l2.91-2.85c.79-.78.94-1.25.94-1.73,0-.81-.57-1.31-1.64-1.31a2.38,2.38,0,0,0-1.91.78l-.51-.44a3.15,3.15,0,0,1,2.48-1c1.42,0,2.32.72,2.32,1.89a2.88,2.88,0,0,1-1.15,2.19l-2.38,2.34Z"/><path class="j" d="M436.78,300.79v7h-.72v-6.36h-1.65v-.64Z"/><path class="j" d="M438.46,307.29a.53.53,0,0,1,.53-.54.54.54,0,0,1,.54.54.55.55,0,0,1-.54.55A.54.54,0,0,1,438.46,307.29Z"/><path class="j" d="M440.47,304.29c0-2.23,1.17-3.56,2.79-3.56s2.8,1.33,2.8,3.56-1.18,3.56-2.8,3.56S440.47,306.52,440.47,304.29Zm4.85,0c0-1.87-.84-2.9-2.06-2.9s-2.06,1-2.06,2.9.84,2.9,2.06,2.9S445.32,306.16,445.32,304.29Z"/><path class="j" d="M451.63,305.78c0,1.17-.85,2.07-2.54,2.07a3.64,3.64,0,0,1-2.52-.9l.35-.57a3.07,3.07,0,0,0,2.17.81c1.16,0,1.8-.54,1.8-1.41s-.59-1.39-1.89-1.39h-.5v-.53l1.94-2.43h-3.58v-.64h4.5v.51l-2,2.49C450.88,303.87,451.63,304.66,451.63,305.78Z"/><path class="j" d="M480.93,381.54v7h-.72v-6.36h-1.65v-.64Z"/><path class="j" d="M482.61,388a.53.53,0,0,1,.53-.54.54.54,0,0,1,.54.54.55.55,0,0,1-.54.55A.54.54,0,0,1,482.61,388Z"/><path class="j" d="M484.62,385c0-2.23,1.17-3.56,2.79-3.56s2.8,1.33,2.8,3.56-1.18,3.56-2.8,3.56S484.62,387.27,484.62,385Zm4.85,0c0-1.87-.84-2.9-2.06-2.9s-2.06,1-2.06,2.9.84,2.9,2.06,2.9S489.47,386.91,489.47,385Z"/><path class="j" d="M497.18,386.7h-1.39v1.84h-.72V386.7h-3.95v-.52l3.71-4.64h.8l-3.58,4.52h3v-1.62h.7v1.62h1.39Z"/><path class="j" d="M436.78,209.54v7h-.72v-6.36h-1.65v-.64Z"/><path class="j" d="M438.46,216a.53.53,0,0,1,.53-.54.54.54,0,0,1,.54.54.55.55,0,0,1-.54.55A.54.54,0,0,1,438.46,216Z"/><path class="j" d="M440.47,213c0-2.23,1.17-3.56,2.79-3.56s2.8,1.33,2.8,3.56-1.18,3.56-2.8,3.56S440.47,215.27,440.47,213Zm4.85,0c0-1.87-.84-2.9-2.06-2.9s-2.06,1-2.06,2.9.84,2.9,2.06,2.9S445.32,214.91,445.32,213Z"/><path class="j" d="M451.84,214.48c0,1.19-.83,2.12-2.54,2.12a3.61,3.61,0,0,1-2.51-.9l.35-.57a3,3,0,0,0,2.15.81c1.19,0,1.82-.58,1.82-1.43s-.56-1.46-2.34-1.46h-1.49l.36-3.51h3.83v.64h-3.2l-.24,2.23h.9C451,212.41,451.84,213.24,451.84,214.48Z"/></svg>