<svg xmlns="http://www.w3.org/2000/svg" xmlns:xlink="http://www.w3.org/1999/xlink" viewBox="0 0 790.58 618.13"><defs><style>.a,.f{fill:none;}.b{fill:#595a5c;}.c{fill:#b6906c;}.d,.g{fill:#fff;}.e{fill:#231f20;}.f{stroke:#000;stroke-linecap:round;stroke-linejoin:round;stroke-width:0.34px;}.g,.h{fill-rule:evenodd;}.i{clip-path:url(#a);}.j{fill:#58595b;}</style><clipPath id="a"><polygon class="a" points="364.92 185.5 291.8 185.5 197.07 185.5 197.07 377.71 267.43 377.71 267.43 432.63 590.08 432.63 590.08 377.71 593.51 377.71 593.51 185.5 364.92 185.5"/></clipPath></defs><path class="b" d="M55.31,597.13H57.1V609.9H55.31Zm.92,6.11h4.09a1.89,1.89,0,0,0,1-.27,1.82,1.82,0,0,0,.68-.77,2.67,2.67,0,0,0,.24-1.16,2.7,2.7,0,0,0-.24-1.16,1.82,1.82,0,0,0-1.7-1H56.23v-1.7h4a4.09,4.09,0,0,1,2,.48A3.45,3.45,0,0,1,63.62,599a4.64,4.64,0,0,1,0,4.11,3.34,3.34,0,0,1-1.35,1.36,4,4,0,0,1-2,.49h-4Z"/><path class="b" d="M67.7,606.33a2.07,2.07,0,0,0,.49,1.48,1.76,1.76,0,0,0,1.37.52,1.89,1.89,0,0,0,1.37-.46,1.79,1.79,0,0,0,.48-1.33l.12,1.91A2.58,2.58,0,0,1,69.06,610a2.89,2.89,0,0,1-2.33-1,4.08,4.08,0,0,1-.82-2.73v-5.55H67.7Zm.22-7.86a1.93,1.93,0,0,1-.56-1.5,2.07,2.07,0,0,1,.56-1.57,2.56,2.56,0,0,1,3.18,0,2.08,2.08,0,0,1,.57,1.56,1.94,1.94,0,0,1-.57,1.5,2.65,2.65,0,0,1-3.18,0Zm2.26-.86a.94.94,0,0,0,.24-.68,1,1,0,0,0-.24-.7.91.91,0,0,0-.67-.25.92.92,0,0,0-.67.25,1,1,0,0,0-.23.7,1,1,0,0,0,.23.68.92.92,0,0,0,.67.24A.9.9,0,0,0,70.18,597.61Zm1.23,3.17h1.78v9.12H71.41Z"/><path class="b" d="M77.1,609.63A2.82,2.82,0,0,1,76,608.36a5.08,5.08,0,0,1-.36-2v-2a5.05,5.05,0,0,1,.36-2,2.71,2.71,0,0,1,1-1.27,3,3,0,0,1,1.65-.44,2.71,2.71,0,0,1,1.48.42,3.22,3.22,0,0,1,1.09,1.19l-.18,1.86a2.19,2.19,0,0,0-.22-1,1.48,1.48,0,0,0-.61-.63,2,2,0,0,0-1-.21,1.71,1.71,0,0,0-1.37.55,2.26,2.26,0,0,0-.49,1.56v2a2.19,2.19,0,0,0,.49,1.54,1.74,1.74,0,0,0,1.37.54,1.93,1.93,0,0,0,1-.23,1.45,1.45,0,0,0,.61-.64,2.25,2.25,0,0,0,.22-1l.12,1.92a2.66,2.66,0,0,1-.89,1.14,2.56,2.56,0,0,1-1.53.45A3.19,3.19,0,0,1,77.1,609.63Zm4-12.5H82.9V609.9H81.11Z"/><path class="b" d="M87.09,609.57a3.09,3.09,0,0,1-1.29-1.36,4.85,4.85,0,0,1-.44-2.15v-1.48a4.71,4.71,0,0,1,.44-2.12,3.12,3.12,0,0,1,1.29-1.35,4.71,4.71,0,0,1,4.06,0,3.12,3.12,0,0,1,1.29,1.35,4.71,4.71,0,0,1,.44,2.12v1.51a4.79,4.79,0,0,1-.44,2.13,3.12,3.12,0,0,1-1.29,1.35,4.62,4.62,0,0,1-4.06,0Zm3.49-1.83a2.43,2.43,0,0,0,.51-1.65v-1.51a2.43,2.43,0,0,0-.51-1.65,1.88,1.88,0,0,0-1.46-.58,1.85,1.85,0,0,0-1.45.58,2.38,2.38,0,0,0-.52,1.65v1.51a2.38,2.38,0,0,0,.52,1.65,1.82,1.82,0,0,0,1.45.59A1.85,1.85,0,0,0,90.58,607.74Z"/><path class="b" d="M95.43,600.78h1.79v9.12H95.43Zm4.42,1.72a2.16,2.16,0,0,0-.83-.15,1.83,1.83,0,0,0-1.33.47,1.79,1.79,0,0,0-.47,1.31L97,602.37a3.32,3.32,0,0,1,1.09-1.27,2.58,2.58,0,0,1,1.48-.45,3.39,3.39,0,0,1,1.13.18,2.62,2.62,0,0,1,.88.53l-1.17,1.58A1.56,1.56,0,0,0,99.85,602.5Z"/><path class="b" d="M102.15,600.78H104l2.81,7.93-1,1.94Zm8.07,0L106.34,612a2.6,2.6,0,0,1-.56,1,1.87,1.87,0,0,1-.84.52,4,4,0,0,1-1.23.16h-.36V612h.36a1.46,1.46,0,0,0,.8-.2,1.74,1.74,0,0,0,.51-.7l3.38-10.31Z"/><path class="b" d="M113.51,609.88a5.76,5.76,0,0,1-1.32-.48,4.89,4.89,0,0,1-1.13-.79l1.06-1.31a5.86,5.86,0,0,0,1.47.85,4.18,4.18,0,0,0,1.44.28,3.11,3.11,0,0,0,1.6-.33,1.1,1.1,0,0,0,.53-1,.79.79,0,0,0-.29-.66,1.66,1.66,0,0,0-.72-.29c-.29,0-.69-.1-1.22-.14h-.15l-.14,0h-.15a6.45,6.45,0,0,1-1.5-.26,2,2,0,0,1-1-.7,2.38,2.38,0,0,1-.41-1.49,3.07,3.07,0,0,1,.39-1.61,2.41,2.41,0,0,1,1.18-1,5.29,5.29,0,0,1,2-.32,6.38,6.38,0,0,1,2.6.52,6.16,6.16,0,0,1,1.13.66l-1.08,1.31a5.59,5.59,0,0,0-1.35-.66,4,4,0,0,0-1.3-.22,2.44,2.44,0,0,0-1.37.31,1.08,1.08,0,0,0-.46.94.64.64,0,0,0,.26.55,1.72,1.72,0,0,0,.66.25c.26,0,.64.07,1.12.1h.34a7.67,7.67,0,0,1,1.63.25,2.24,2.24,0,0,1,1.13.77,2.62,2.62,0,0,1,.45,1.65,2.92,2.92,0,0,1-.42,1.63,2.54,2.54,0,0,1-1.27,1A5.88,5.88,0,0,1,115,610,7.38,7.38,0,0,1,113.51,609.88Z"/><path class="b" d="M126,597.13h1.8V609.9H126Zm2.6,12.5a2.39,2.39,0,0,1-.93-1.16l.13-1.91a2.22,2.22,0,0,0,.21,1,1.48,1.48,0,0,0,.61.63,1.93,1.93,0,0,0,1,.22,1.74,1.74,0,0,0,1.37-.54,2.18,2.18,0,0,0,.49-1.53v-2a2.26,2.26,0,0,0-.49-1.56,1.71,1.71,0,0,0-1.37-.55,2,2,0,0,0-1,.21,1.36,1.36,0,0,0-.61.62,2.12,2.12,0,0,0-.21,1l-.19-1.76a3.37,3.37,0,0,1,1.08-1.24,2.67,2.67,0,0,1,1.49-.43,3,3,0,0,1,1.65.43,2.9,2.9,0,0,1,1.06,1.27,5.1,5.1,0,0,1,.36,2v2a4.94,4.94,0,0,1-.37,2,2.79,2.79,0,0,1-1.08,1.26,3.25,3.25,0,0,1-1.71.44A2.73,2.73,0,0,1,128.57,609.63Z"/><path class="b" d="M134.46,600.78h1.82l2.81,7.93-1,1.94Zm8.07,0L138.65,612a2.6,2.6,0,0,1-.56,1,1.87,1.87,0,0,1-.84.52,4,4,0,0,1-1.23.16h-.36V612H136a1.46,1.46,0,0,0,.8-.2,1.74,1.74,0,0,0,.51-.7l3.37-10.31Z"/><path class="b" d="M143.57,600.78h4.12v1.62h-4.12Zm1.46,8.56a2.77,2.77,0,0,1-.52-1.81v-9.4h1.8v9.42a.84.84,0,0,0,.13.51.46.46,0,0,0,.39.18h.86V610h-1A2,2,0,0,1,145,609.34Z"/><path class="b" d="M151.94,606.33a2.07,2.07,0,0,0,.49,1.48,1.76,1.76,0,0,0,1.37.52,1.91,1.91,0,0,0,1.37-.46,1.79,1.79,0,0,0,.48-1.33l.12,1.91A2.58,2.58,0,0,1,153.3,610a2.89,2.89,0,0,1-2.33-1,4.08,4.08,0,0,1-.82-2.73v-5.55h1.79Zm3.71-5.55h1.78v9.12h-1.78Z"/><rect class="c" x="612.92" y="591.68" width="35.43" height="2.83"/><path class="d" d="M648.48,594.64H612.79v-3.08h35.69ZM613,594.39h35.19v-2.58H613Z"/><rect class="c" x="612.92" y="601.6" width="70.74" height="2.83"/><path class="d" d="M683.78,604.56h-71v-3.08h71ZM613,604.31h70.49v-2.58H613Z"/><rect class="c" x="612.92" y="612.72" width="177.16" height="2.84"/><path class="d" d="M790.21,615.68H612.79V612.6H790.21ZM613,615.43H790v-2.58H613Z"/><path class="e" d="M587.26,596.28h-.8v-4.82l-.81.5v-.83l.81-.53h.8Z"/><path class="e" d="M589,595.91a1.67,1.67,0,0,1-.41-1.19v-2.58A1.65,1.65,0,0,1,589,591a2,2,0,0,1,2.42,0,1.65,1.65,0,0,1,.41,1.19v2.58a1.65,1.65,0,0,1-.41,1.19,2,2,0,0,1-2.42,0Zm1.83-.55a.89.89,0,0,0,.2-.64v-2.58a.89.89,0,0,0-.2-.64.82.82,0,0,0-.62-.22.86.86,0,0,0-.63.22.94.94,0,0,0-.2.64v2.58a.9.9,0,0,0,.21.64,1,1,0,0,0,1.24,0Z"/><path class="e" d="M593.22,595.91a1.67,1.67,0,0,1-.41-1.19v-2.58a1.65,1.65,0,0,1,.41-1.19,2,2,0,0,1,2.42,0,1.61,1.61,0,0,1,.41,1.19v2.58a1.65,1.65,0,0,1-.41,1.19,2,2,0,0,1-2.42,0Zm1.83-.55a.9.9,0,0,0,.21-.64v-2.58a.94.94,0,0,0-.2-.64.86.86,0,0,0-.63-.22.82.82,0,0,0-.62.22.89.89,0,0,0-.2.64v2.58a.89.89,0,0,0,.2.64,1,1,0,0,0,1.24,0Z"/><path class="e" d="M600.1,596.13a1.45,1.45,0,0,1-.6-.6,2.06,2.06,0,0,1-.21-1v-.67a2,2,0,0,1,.21-.94,1.37,1.37,0,0,1,.6-.59,2,2,0,0,1,.95-.21,2.21,2.21,0,0,1,.59.08,1.68,1.68,0,0,1,.51.22,1.54,1.54,0,0,1,.37.35l-.58.52a1.17,1.17,0,0,0-.4-.3,1.13,1.13,0,0,0-.48-.11.94.94,0,0,0-.71.26,1,1,0,0,0-.26.72v.67a1,1,0,0,0,.25.74.94.94,0,0,0,.72.27,1,1,0,0,0,.48-.12,1,1,0,0,0,.4-.32l.58.56a1.38,1.38,0,0,1-.38.34,1.62,1.62,0,0,1-.5.22,2.27,2.27,0,0,1-.59.07A2.12,2.12,0,0,1,600.1,596.13Z"/><path class="e" d="M603.4,592.22h.79v4.06h-.79Zm2.42,1.6a1,1,0,0,0-.21-.67.78.78,0,0,0-.6-.23.81.81,0,0,0-.6.21.73.73,0,0,0-.22.58l-.08-.78a1.46,1.46,0,0,1,.49-.57,1.22,1.22,0,0,1,.67-.2,1.33,1.33,0,0,1,.73.2,1.18,1.18,0,0,1,.46.56,2.4,2.4,0,0,1,.15.89v2.47h-.79Zm2.42,0a.93.93,0,0,0-.22-.67.85.85,0,0,0-.63-.23.72.72,0,0,0-.57.23.9.9,0,0,0-.21.64l-.16-.78a1.61,1.61,0,0,1,.51-.63,1.23,1.23,0,0,1,.69-.22,1.37,1.37,0,0,1,.75.2,1.09,1.09,0,0,1,.47.56,2.21,2.21,0,0,1,.17.89v2.47h-.8Z"/><path class="e" d="M584.33,605.5l2-2.64a1.85,1.85,0,0,0,.27-.47,1.29,1.29,0,0,0,.09-.45h0a.67.67,0,0,0-.2-.53.81.81,0,0,0-.56-.19.76.76,0,0,0-.56.21,1,1,0,0,0-.27.58h-.82a2,2,0,0,1,.29-.83,1.42,1.42,0,0,1,.56-.53,1.67,1.67,0,0,1,.79-.18,1.93,1.93,0,0,1,.87.17,1.21,1.21,0,0,1,.54.51,1.55,1.55,0,0,1,.19.8h0a1.84,1.84,0,0,1-.12.63,2.8,2.8,0,0,1-.35.63l-1.65,2.24h2.15v.76h-3.2Z"/><path class="e" d="M589,605.83a1.67,1.67,0,0,1-.41-1.19v-2.58a1.65,1.65,0,0,1,.41-1.19,2,2,0,0,1,2.42,0,1.65,1.65,0,0,1,.41,1.19v2.58a1.65,1.65,0,0,1-.41,1.19,2,2,0,0,1-2.42,0Zm1.83-.55a.89.89,0,0,0,.2-.64v-2.58a.89.89,0,0,0-.2-.64.82.82,0,0,0-.62-.22.86.86,0,0,0-.63.22.94.94,0,0,0-.19.64v2.58a.89.89,0,0,0,.2.64,1,1,0,0,0,1.24,0Z"/><path class="e" d="M593.22,605.83a1.67,1.67,0,0,1-.41-1.19v-2.58a1.61,1.61,0,0,1,.42-1.19,1.59,1.59,0,0,1,1.2-.42,1.45,1.45,0,0,1,1.62,1.61v2.58a1.61,1.61,0,0,1-.41,1.19,2,2,0,0,1-2.42,0Zm1.84-.55a.94.94,0,0,0,.2-.64v-2.58a.94.94,0,0,0-.2-.64.84.84,0,0,0-.63-.22.82.82,0,0,0-.62.22.89.89,0,0,0-.2.64v2.58a.89.89,0,0,0,.2.64.82.82,0,0,0,.62.22A.86.86,0,0,0,595.06,605.28Z"/><path class="e" d="M600.1,606.05a1.45,1.45,0,0,1-.6-.6,2.06,2.06,0,0,1-.2-1v-.67a2,2,0,0,1,.2-.94,1.37,1.37,0,0,1,.6-.59,2,2,0,0,1,.95-.21,2.35,2.35,0,0,1,.6.08,1.73,1.73,0,0,1,.5.22,1.38,1.38,0,0,1,.37.35l-.58.52a1.08,1.08,0,0,0-.4-.3,1.13,1.13,0,0,0-.48-.11,1,1,0,0,0-.71.26,1,1,0,0,0-.26.72v.67a1,1,0,0,0,.25.74.94.94,0,0,0,.72.27,1.14,1.14,0,0,0,.88-.44l.58.56a1.38,1.38,0,0,1-.38.34,1.62,1.62,0,0,1-.5.22,2.22,2.22,0,0,1-.59.07A2.12,2.12,0,0,1,600.1,606.05Z"/><path class="e" d="M603.4,602.14h.79v4.06h-.79Zm2.42,1.6a1,1,0,0,0-.21-.67.78.78,0,0,0-.6-.23.81.81,0,0,0-.6.21.73.73,0,0,0-.22.58l-.08-.78a1.46,1.46,0,0,1,.49-.57,1.22,1.22,0,0,1,.67-.2,1.3,1.3,0,0,1,.73.2,1.18,1.18,0,0,1,.46.56,2.4,2.4,0,0,1,.16.89v2.47h-.8Zm2.42,0a.93.93,0,0,0-.22-.67.85.85,0,0,0-.63-.23.73.73,0,0,0-.57.23.89.89,0,0,0-.2.64l-.16-.78a1.51,1.51,0,0,1,.5-.63,1.23,1.23,0,0,1,.69-.22,1.35,1.35,0,0,1,.75.2,1.16,1.16,0,0,1,.48.56,2.4,2.4,0,0,1,.16.89v2.47h-.8Z"/><path class="e" d="M585,615.58a1.34,1.34,0,0,1-.54-.49,2,2,0,0,1-.28-.77h.8a.75.75,0,0,0,.25.49.85.85,0,0,0,.54.17.72.72,0,0,0,.59-.25,1.1,1.1,0,0,0,.21-.72v-.48a1.1,1.1,0,0,0-.21-.72.72.72,0,0,0-.59-.25.83.83,0,0,0-.4.11,1.18,1.18,0,0,0-.34.33h-.72v-3h2.89v.76h-2.1V612a1,1,0,0,1,.34-.18.94.94,0,0,1,.37-.07,1.68,1.68,0,0,1,.84.2,1.29,1.29,0,0,1,.53.6,2.07,2.07,0,0,1,.19.94V614a2.25,2.25,0,0,1-.19.94,1.31,1.31,0,0,1-.55.59,1.69,1.69,0,0,1-.86.21A1.74,1.74,0,0,1,585,615.58Z"/><path class="e" d="M589,615.32a1.65,1.65,0,0,1-.41-1.19v-2.58a1.67,1.67,0,0,1,.41-1.19,2,2,0,0,1,2.42,0,1.65,1.65,0,0,1,.41,1.19v2.58a1.64,1.64,0,0,1-.41,1.19,1.92,1.92,0,0,1-2.42,0Zm1.83-.55a.89.89,0,0,0,.2-.64v-2.58a.88.88,0,0,0-.2-.63.78.78,0,0,0-.62-.22.82.82,0,0,0-.63.22.93.93,0,0,0-.2.63v2.58a.9.9,0,0,0,.21.64,1,1,0,0,0,1.24,0Z"/><path class="e" d="M593.22,615.32a1.65,1.65,0,0,1-.41-1.19v-2.58a1.67,1.67,0,0,1,.41-1.19,2,2,0,0,1,2.42,0,1.61,1.61,0,0,1,.41,1.19v2.58a1.64,1.64,0,0,1-.41,1.19,1.92,1.92,0,0,1-2.42,0Zm1.83-.55a.9.9,0,0,0,.21-.64v-2.58a.93.93,0,0,0-.2-.63.82.82,0,0,0-.63-.22.78.78,0,0,0-.62.22.88.88,0,0,0-.2.63v2.58a.89.89,0,0,0,.2.64,1,1,0,0,0,1.24,0Z"/><path class="e" d="M600.1,615.54a1.45,1.45,0,0,1-.6-.6,2,2,0,0,1-.21-1v-.67a2,2,0,0,1,.21-.94,1.45,1.45,0,0,1,.6-.6,2,2,0,0,1,.95-.2,2.22,2.22,0,0,1,.59.07,2,2,0,0,1,.51.22,1.76,1.76,0,0,1,.37.35l-.58.52a1.17,1.17,0,0,0-.4-.3,1.13,1.13,0,0,0-.48-.11.94.94,0,0,0-.71.26,1,1,0,0,0-.26.73V614a1.07,1.07,0,0,0,.25.74,1,1,0,0,0,.72.26,1.13,1.13,0,0,0,.48-.11,1.26,1.26,0,0,0,.4-.32l.58.55a1.42,1.42,0,0,1-.38.35,1.88,1.88,0,0,1-.5.21,2.27,2.27,0,0,1-.59.08A2,2,0,0,1,600.1,615.54Z"/><path class="e" d="M603.4,611.63h.79v4.06h-.79Zm2.42,1.6a1,1,0,0,0-.21-.66.75.75,0,0,0-.6-.24.81.81,0,0,0-.6.21.75.75,0,0,0-.22.58l-.08-.78a1.5,1.5,0,0,1,.49-.56,1.15,1.15,0,0,1,.67-.2,1.32,1.32,0,0,1,.73.19,1.28,1.28,0,0,1,.46.56,2.42,2.42,0,0,1,.15.9v2.46h-.79Zm2.42,0a.91.91,0,0,0-.22-.66.82.82,0,0,0-.63-.24.72.72,0,0,0-.57.23.9.9,0,0,0-.21.64l-.16-.78a1.51,1.51,0,0,1,.51-.62,1.16,1.16,0,0,1,.69-.22,1.37,1.37,0,0,1,.75.19,1.18,1.18,0,0,1,.47.56,2.22,2.22,0,0,1,.17.9v2.46h-.8Z"/><path class="c" d="M23.49,613.89A12.92,12.92,0,1,1,36.4,601,12.93,12.93,0,0,1,23.49,613.89Zm0-24.83A11.92,11.92,0,1,0,35.4,601,11.93,11.93,0,0,0,23.49,589.06Z"/><polygon class="d" points="35.77 588.74 9.42 600.98 35.77 613.21 32.02 600.98 35.77 588.74"/><path class="c" d="M36.58,614.14,8.23,601l28.35-13.17-4,13.17ZM10.61,601,35,612.29,31.5,601,35,589.66Z"/><path class="c" d="M2.52,605.19a5,5,0,0,1-1.11-.38,4.4,4.4,0,0,1-1-.64l.81-1a3.72,3.72,0,0,0,1.16.69,4.08,4.08,0,0,0,1.38.23,2.73,2.73,0,0,0,1.55-.38,1.17,1.17,0,0,0,.55-1.05h0a1.12,1.12,0,0,0-.25-.77,1.44,1.44,0,0,0-.64-.42,8.23,8.23,0,0,0-1-.25H3.89l-.1,0a9.48,9.48,0,0,1-1.5-.36,2.08,2.08,0,0,1-1-.73,2.42,2.42,0,0,1-.41-1.51h0a2.77,2.77,0,0,1,.38-1.47,2.44,2.44,0,0,1,1.12-.92,4.48,4.48,0,0,1,1.77-.32,4.6,4.6,0,0,1,1,.11,4.9,4.9,0,0,1,1.86.86l-.73,1a4.61,4.61,0,0,0-1-.58,3,3,0,0,0-1.06-.2,2.44,2.44,0,0,0-1.46.38,1.24,1.24,0,0,0-.53,1.07h0a1,1,0,0,0,.27.75,1.74,1.74,0,0,0,.67.4,9.3,9.3,0,0,0,1.12.27h.24a7.93,7.93,0,0,1,1.4.41,2.22,2.22,0,0,1,.94.76,2.4,2.4,0,0,1,.38,1.43h0a2.62,2.62,0,0,1-.4,1.45,2.54,2.54,0,0,1-1.16.91,4.8,4.8,0,0,1-1.83.31A6.44,6.44,0,0,1,2.52,605.19Z"/><rect class="c" x="612.5" y="600.68" width="1" height="4.68"/><rect class="c" x="612.5" y="590.76" width="1" height="4.68"/><rect class="c" x="612.5" y="611.45" width="1" height="5.24"/><rect class="c" x="789.58" y="611.45" width="1" height="5.24"/><rect class="c" x="682.59" y="600.68" width="1" height="4.68"/><rect class="c" x="647.3" y="590.76" width="1" height="4.68"/><rect class="a" width="790.34" height="618.13"/><line class="f" x1="593.51" y1="377.71" x2="591.45" y2="377.71"/><line class="f" x1="270.86" y1="429.2" x2="588.71" y2="429.2"/><line class="f" x1="270.86" y1="377.71" x2="270.86" y2="429.2"/><line class="f" x1="366.97" y1="377.71" x2="270.86" y2="377.71"/><line class="f" x1="366.97" y1="374.28" x2="366.97" y2="377.71"/><line class="f" x1="397.86" y1="374.28" x2="366.97" y2="374.28"/><line class="f" x1="397.86" y1="377.71" x2="397.86" y2="374.28"/><line class="f" x1="452.78" y1="377.71" x2="397.86" y2="377.71"/><line class="f" x1="452.78" y1="374.28" x2="452.78" y2="377.71"/><line class="f" x1="483.68" y1="374.28" x2="452.78" y2="374.28"/><line class="f" x1="483.68" y1="377.71" x2="483.68" y2="374.28"/><line class="f" x1="588.71" y1="377.71" x2="483.68" y2="377.71"/><line class="f" x1="588.71" y1="429.2" x2="588.71" y2="377.71"/><polygon class="g" points="385.85 193.73 385.85 214.67 298.67 214.67 298.67 259.98 277.73 259.98 277.73 214.33 277.73 193.73 385.85 193.73"/><line class="f" x1="385.85" y1="193.73" x2="385.85" y2="214.67"/><line class="f" x1="385.85" y1="214.67" x2="298.67" y2="214.67"/><line class="f" x1="298.67" y1="214.67" x2="298.67" y2="259.98"/><line class="f" x1="298.67" y1="259.98" x2="277.73" y2="259.98"/><line class="f" x1="277.73" y1="259.98" x2="277.73" y2="214.33"/><line class="f" x1="277.73" y1="214.33" x2="277.73" y2="193.73"/><line class="f" x1="277.73" y1="193.73" x2="385.85" y2="193.73"/><line class="f" x1="593.51" y1="357.12" x2="593.51" y2="357.12"/><line class="f" x1="593.51" y1="357.12" x2="593.51" y2="274.39"/><line class="f" x1="593.51" y1="274.39" x2="593.51" y2="274.39"/><rect class="d" x="558.67" y="198.88" width="25.74" height="59.21"/><line class="f" x1="584.42" y1="258.09" x2="558.67" y2="258.09"/><line class="f" x1="558.68" y1="258.09" x2="558.68" y2="198.88"/><line class="f" x1="558.68" y1="198.88" x2="584.42" y2="198.88"/><line class="f" x1="584.42" y1="198.88" x2="584.42" y2="258.09"/><rect class="d" x="264" y="214.33" width="11.33" height="42.91"/><line class="f" x1="275.33" y1="257.23" x2="264" y2="257.23"/><line class="f" x1="264" y1="257.23" x2="264" y2="214.33"/><line class="f" x1="264" y1="214.33" x2="275.33" y2="214.33"/><line class="f" x1="275.33" y1="214.33" x2="275.33" y2="257.23"/><rect class="d" x="263.31" y="288.12" width="12.01" height="65.22"/><line class="f" x1="275.33" y1="353.34" x2="263.31" y2="353.34"/><line class="f" x1="263.31" y1="353.34" x2="263.31" y2="288.12"/><line class="f" x1="263.31" y1="288.12" x2="275.33" y2="288.12"/><line class="f" x1="275.33" y1="288.12" x2="275.33" y2="353.34"/><rect class="d" x="403.7" y="193.73" width="19.91" height="18.88"/><line class="f" x1="423.61" y1="212.61" x2="403.7" y2="212.61"/><line class="f" x1="403.7" y1="212.61" x2="403.7" y2="193.73"/><line class="f" x1="403.7" y1="193.73" x2="423.61" y2="193.73"/><line class="f" x1="423.61" y1="193.73" x2="423.61" y2="212.61"/><line class="f" x1="502.73" y1="185.5" x2="502.73" y2="185.5"/><line class="f" x1="593.51" y1="185.5" x2="593.51" y2="185.5"/><line class="f" x1="502.73" y1="185.5" x2="593.51" y2="185.5"/><polygon class="h" points="197.07 194.08 197.07 185.5 205.65 185.5 205.65 260.67 205.82 363.98 205.65 370.85 205.65 377.71 197.07 377.71 197.07 194.08"/><rect x="397.86" y="370.85" width="54.92" height="6.86"/><rect x="260.57" y="370.85" width="37.76" height="6.86"/><polygon class="h" points="210.8 377.71 205.65 377.71 205.65 370.85 229.68 370.85 229.68 377.71 210.8 377.71"/><rect x="552.32" y="370.85" width="41.19" height="6.87"/><rect x="554.04" y="363.98" width="39.47" height="6.86"/><rect x="399.58" y="363.98" width="51.49" height="6.86"/><rect x="262.28" y="363.98" width="34.32" height="6.86"/><rect x="205.65" y="363.98" width="22.31" height="6.86"/><polygon class="h" points="483.68 258.95 490.54 258.95 490.54 250.37 492.94 250.37 492.94 258.95 585.28 258.95 585.28 261.35 483.68 261.35 483.68 258.95"/><rect x="401.3" y="193.73" width="2.4" height="25.74"/><polygon class="h" points="401.3 250.37 403.7 250.37 403.7 258.95 452.78 258.95 452.78 261.35 418.46 261.35 418.46 363.98 416.06 363.98 416.06 261.35 401.3 261.35 401.3 250.37"/><polygon class="h" points="463.08 185.5 498.78 185.5 507.02 185.5 593.51 185.5 593.51 363.98 585.28 363.98 585.28 193.73 463.08 193.73 463.08 185.5"/><polygon class="h" points="205.65 193.73 205.65 185.5 291.8 185.5 364.92 185.5 425.32 185.5 425.32 193.73 205.65 193.73"/><rect x="425.32" y="185.5" width="1.72" height="3.95"/><rect x="461.37" y="185.49" width="1.72" height="3.95"/><rect x="275.33" y="287.1" width="2.4" height="76.89"/><rect x="205.65" y="257.23" width="24.03" height="2.4"/><polygon class="h" points="260.57 257.23 275.33 257.23 275.33 193.73 277.73 193.73 277.73 259.64 260.57 259.64 260.57 257.23"/><polygon class="h" points="490.54 209.18 490.54 193.73 492.94 193.73 492.94 222.91 490.54 222.91 490.54 212.61 490.54 209.18"/><polygon class="h" points="490.54 209.18 490.54 212.61 463.08 212.61 463.08 193.75 466.51 193.75 466.51 209.18 490.54 209.18"/><polygon class="h" points="401.3 210.9 401.3 214.33 385.85 214.33 385.85 193.73 389.28 193.73 389.28 210.9 401.3 210.9"/><polygon class="h" points="588.71 377.71 591.46 377.71 590.08 377.71 590.08 429.2 588.71 429.2 588.71 377.71"/><line class="f" x1="593.51" y1="377.71" x2="552.32" y2="377.71"/><line class="f" x1="452.78" y1="377.71" x2="397.86" y2="377.71"/><line class="f" x1="298.32" y1="377.71" x2="260.57" y2="377.71"/><line class="f" x1="229.68" y1="377.71" x2="210.8" y2="377.71"/><line class="f" x1="593.51" y1="363.98" x2="593.51" y2="363.98"/><line class="f" x1="585.28" y1="363.98" x2="554.04" y2="363.98"/><line class="f" x1="415.92" y1="363.98" x2="399.58" y2="363.98"/><line class="f" x1="296.61" y1="363.98" x2="277.73" y2="363.98"/><line class="f" x1="275.33" y1="363.98" x2="262.28" y2="363.98"/><line class="f" x1="227.96" y1="363.98" x2="205.65" y2="363.98"/><line class="f" x1="205.65" y1="193.73" x2="205.65" y2="257.23"/><line class="f" x1="205.65" y1="259.64" x2="205.65" y2="363.98"/><line class="f" x1="451.07" y1="363.98" x2="451.07" y2="370.85"/><line class="f" x1="399.58" y1="363.98" x2="399.58" y2="370.85"/><line class="f" x1="296.61" y1="363.98" x2="296.61" y2="370.85"/><line class="f" x1="451.07" y1="363.98" x2="418.46" y2="363.98"/><line class="f" x1="262.28" y1="363.98" x2="262.28" y2="370.85"/><line class="f" x1="227.96" y1="363.98" x2="227.96" y2="370.85"/><line class="f" x1="588.71" y1="377.71" x2="588.71" y2="429.2"/><line class="f" x1="590.08" y1="429.2" x2="588.71" y2="429.2"/><line class="f" x1="397.86" y1="370.85" x2="397.86" y2="377.71"/><line class="f" x1="399.58" y1="370.85" x2="397.86" y2="370.85"/><line class="f" x1="260.57" y1="370.85" x2="260.57" y2="377.71"/><line class="f" x1="262.28" y1="370.85" x2="260.57" y2="370.85"/><line class="f" x1="452.78" y1="370.85" x2="452.78" y2="377.71"/><line class="f" x1="452.78" y1="370.85" x2="451.07" y2="370.85"/><line class="f" x1="298.32" y1="370.85" x2="298.32" y2="377.71"/><line class="f" x1="298.32" y1="370.85" x2="296.61" y2="370.85"/><line class="f" x1="229.68" y1="370.85" x2="229.68" y2="377.71"/><line class="f" x1="229.68" y1="370.85" x2="227.96" y2="370.85"/><line class="f" x1="554.04" y1="363.98" x2="554.04" y2="370.85"/><line class="f" x1="552.33" y1="370.85" x2="552.33" y2="377.71"/><line class="f" x1="552.33" y1="370.85" x2="554.04" y2="370.85"/><line class="f" x1="197.07" y1="194.08" x2="197.07" y2="377.71"/><line class="f" x1="197.07" y1="194.08" x2="197.07" y2="194.08"/><line class="f" x1="590.08" y1="429.2" x2="270.86" y2="429.2"/><line class="f" x1="270.86" y1="377.71" x2="270.86" y2="429.2"/><line class="f" x1="197.07" y1="247.28" x2="197.07" y2="247.28"/><line class="f" x1="197.07" y1="257.58" x2="197.07" y2="257.58"/><line class="f" x1="197.07" y1="267.87" x2="197.07" y2="267.87"/><line class="f" x1="197.07" y1="278.17" x2="197.07" y2="278.17"/><line class="f" x1="197.07" y1="288.47" x2="197.07" y2="288.47"/><line class="f" x1="197.07" y1="298.77" x2="197.07" y2="298.77"/><line class="f" x1="197.07" y1="309.06" x2="197.07" y2="309.06"/><line class="f" x1="197.07" y1="319.36" x2="197.07" y2="319.36"/><line class="f" x1="197.07" y1="329.66" x2="197.07" y2="329.66"/><line class="f" x1="260.57" y1="377.71" x2="229.67" y2="377.71"/><line class="f" x1="262.28" y1="363.98" x2="227.96" y2="363.98"/><line class="f" x1="298.32" y1="377.71" x2="366.97" y2="377.71"/><line class="f" x1="296.61" y1="363.98" x2="365.26" y2="363.98"/><line class="f" x1="365.26" y1="363.98" x2="365.26" y2="370.85"/><line class="f" x1="365.26" y1="363.98" x2="399.58" y2="363.98"/><line class="f" x1="366.97" y1="370.85" x2="366.97" y2="377.71"/><line class="f" x1="366.97" y1="374.28" x2="397.86" y2="374.28"/><line class="f" x1="398.21" y1="367.41" x2="398.21" y2="335.84"/><line class="f" x1="368" y1="370.16" x2="368" y2="370.85"/><line class="f" x1="368" y1="370.85" x2="365.26" y2="370.85"/><line class="f" x1="365.26" y1="370.85" x2="365.26" y2="368.1"/><line class="f" x1="365.26" y1="368.1" x2="366.63" y2="368.1"/><line class="f" x1="366.63" y1="367.41" x2="369.37" y2="367.41"/><line class="f" x1="369.38" y1="367.41" x2="369.38" y2="370.16"/><line class="f" x1="369.38" y1="370.16" x2="366.63" y2="370.16"/><line class="f" x1="366.63" y1="370.16" x2="366.63" y2="367.41"/><line class="f" x1="398.21" y1="367.41" x2="395.46" y2="367.41"/><line class="f" x1="395.46" y1="367.41" x2="395.46" y2="370.16"/><line class="f" x1="395.46" y1="370.16" x2="398.21" y2="370.16"/><line class="f" x1="398.21" y1="370.16" x2="398.21" y2="367.41"/><line class="f" x1="369.38" y1="367.41" x2="395.46" y2="367.41"/><line class="f" x1="395.46" y1="370.16" x2="369.38" y2="370.16"/><line class="f" x1="369.38" y1="368.79" x2="395.46" y2="368.79"/><g class="i"><path class="f" d="M366.63,367.41a31.57,31.57,0,0,1,31.58-31.57"/></g><line class="f" x1="396.83" y1="370.16" x2="396.83" y2="370.85"/><line class="f" x1="396.83" y1="370.85" x2="399.58" y2="370.85"/><line class="f" x1="399.58" y1="370.85" x2="399.58" y2="368.1"/><line class="f" x1="399.58" y1="368.1" x2="398.21" y2="368.1"/><line class="f" x1="299.35" y1="370.16" x2="299.35" y2="370.85"/><line class="f" x1="299.35" y1="370.85" x2="296.61" y2="370.85"/><line class="f" x1="296.61" y1="370.85" x2="296.61" y2="368.1"/><line class="f" x1="296.61" y1="368.1" x2="297.98" y2="368.1"/><line class="f" x1="297.98" y1="367.41" x2="300.73" y2="367.41"/><line class="f" x1="300.73" y1="367.41" x2="300.73" y2="370.16"/><line class="f" x1="300.73" y1="370.16" x2="297.98" y2="370.16"/><line class="f" x1="297.98" y1="370.16" x2="297.98" y2="367.41"/><line class="f" x1="329.56" y1="370.16" x2="329.56" y2="370.85"/><line class="f" x1="329.56" y1="370.85" x2="332.3" y2="370.85"/><line class="f" x1="332.3" y1="370.85" x2="332.3" y2="368.1"/><line class="f" x1="332.3" y1="368.1" x2="330.93" y2="368.1"/><line class="f" x1="330.93" y1="367.41" x2="328.19" y2="367.41"/><line class="f" x1="328.19" y1="367.41" x2="328.19" y2="370.16"/><line class="f" x1="328.19" y1="370.16" x2="330.93" y2="370.16"/><line class="f" x1="330.93" y1="370.16" x2="330.93" y2="367.41"/><line class="f" x1="300.73" y1="367.41" x2="328.19" y2="367.41"/><line class="f" x1="328.19" y1="370.16" x2="300.73" y2="370.16"/><line class="f" x1="300.73" y1="368.79" x2="328.19" y2="368.79"/><line class="f" x1="230.7" y1="370.16" x2="230.7" y2="370.85"/><line class="f" x1="230.7" y1="370.85" x2="227.96" y2="370.85"/><line class="f" x1="227.96" y1="370.85" x2="227.96" y2="368.1"/><line class="f" x1="227.96" y1="368.1" x2="229.33" y2="368.1"/><line class="f" x1="229.33" y1="367.41" x2="232.08" y2="367.41"/><line class="f" x1="232.08" y1="367.41" x2="232.08" y2="370.16"/><line class="f" x1="232.08" y1="370.16" x2="229.33" y2="370.16"/><line class="f" x1="229.33" y1="370.16" x2="229.33" y2="367.41"/><line class="f" x1="259.54" y1="370.16" x2="259.54" y2="370.85"/><line class="f" x1="259.54" y1="370.85" x2="262.28" y2="370.85"/><line class="f" x1="262.28" y1="370.85" x2="262.28" y2="368.1"/><line class="f" x1="262.28" y1="368.1" x2="260.91" y2="368.1"/><line class="f" x1="260.91" y1="367.41" x2="258.16" y2="367.41"/><line class="f" x1="258.16" y1="367.41" x2="258.16" y2="370.16"/><line class="f" x1="258.16" y1="370.16" x2="260.91" y2="370.16"/><line class="f" x1="260.91" y1="370.16" x2="260.91" y2="367.41"/><line class="f" x1="232.08" y1="367.41" x2="258.16" y2="367.41"/><line class="f" x1="258.16" y1="370.16" x2="232.08" y2="370.16"/><line class="f" x1="232.08" y1="368.79" x2="258.16" y2="368.79"/><line class="f" x1="365.26" y1="368.1" x2="362.51" y2="368.1"/><line class="f" x1="362.51" y1="368.1" x2="362.51" y2="370.85"/><line class="f" x1="362.51" y1="370.85" x2="365.26" y2="370.85"/><line class="f" x1="365.26" y1="370.85" x2="365.26" y2="368.1"/><line class="f" x1="362.51" y1="368.1" x2="332.3" y2="368.1"/><line class="f" x1="362.51" y1="369.47" x2="332.3" y2="369.47"/><line class="f" x1="362.51" y1="370.85" x2="332.3" y2="370.85"/><line class="f" x1="552.33" y1="377.71" x2="483.68" y2="377.71"/><line class="f" x1="554.04" y1="363.98" x2="485.39" y2="363.98"/><line class="f" x1="485.39" y1="363.98" x2="485.39" y2="370.85"/><line class="f" x1="485.39" y1="363.98" x2="451.07" y2="363.98"/><line class="f" x1="483.68" y1="370.85" x2="483.68" y2="377.71"/><line class="f" x1="483.68" y1="374.28" x2="452.78" y2="374.28"/><line class="f" x1="452.44" y1="367.41" x2="452.44" y2="335.84"/><line class="f" x1="482.65" y1="370.16" x2="482.65" y2="370.85"/><line class="f" x1="482.65" y1="370.85" x2="485.39" y2="370.85"/><line class="f" x1="485.39" y1="370.85" x2="485.39" y2="368.1"/><line class="f" x1="485.39" y1="368.1" x2="484.02" y2="368.1"/><line class="f" x1="484.02" y1="367.41" x2="481.27" y2="367.41"/><line class="f" x1="481.27" y1="367.41" x2="481.27" y2="370.16"/><line class="f" x1="481.27" y1="370.16" x2="484.02" y2="370.16"/><line class="f" x1="484.02" y1="370.16" x2="484.02" y2="367.41"/><line class="f" x1="452.44" y1="367.41" x2="455.19" y2="367.41"/><line class="f" x1="455.19" y1="367.41" x2="455.19" y2="370.16"/><line class="f" x1="455.19" y1="370.16" x2="452.44" y2="370.16"/><line class="f" x1="452.44" y1="370.16" x2="452.44" y2="367.41"/><line class="f" x1="481.27" y1="367.41" x2="455.19" y2="367.41"/><line class="f" x1="455.19" y1="370.16" x2="481.27" y2="370.16"/><line class="f" x1="481.27" y1="368.79" x2="455.19" y2="368.79"/><g class="i"><path class="f" d="M452.44,335.84A31.57,31.57,0,0,1,484,367.41"/></g><line class="f" x1="453.81" y1="370.16" x2="453.81" y2="370.85"/><line class="f" x1="453.81" y1="370.85" x2="451.07" y2="370.85"/><line class="f" x1="451.07" y1="370.85" x2="451.07" y2="368.1"/><line class="f" x1="451.07" y1="368.1" x2="452.44" y2="368.1"/><line class="f" x1="551.3" y1="370.16" x2="551.3" y2="370.85"/><line class="f" x1="551.3" y1="370.85" x2="554.04" y2="370.85"/><line class="f" x1="554.04" y1="370.85" x2="554.04" y2="368.1"/><line class="f" x1="554.04" y1="368.1" x2="552.67" y2="368.1"/><line class="f" x1="552.67" y1="367.41" x2="549.92" y2="367.41"/><line class="f" x1="549.92" y1="367.41" x2="549.92" y2="370.16"/><line class="f" x1="549.92" y1="370.16" x2="552.67" y2="370.16"/><line class="f" x1="552.67" y1="370.16" x2="552.67" y2="367.41"/><line class="f" x1="521.09" y1="370.16" x2="521.09" y2="370.85"/><line class="f" x1="521.09" y1="370.85" x2="518.34" y2="370.85"/><line class="f" x1="518.34" y1="370.85" x2="518.34" y2="368.1"/><line class="f" x1="518.34" y1="368.1" x2="519.72" y2="368.1"/><line class="f" x1="519.72" y1="367.41" x2="522.46" y2="367.41"/><line class="f" x1="522.46" y1="367.41" x2="522.46" y2="370.16"/><line class="f" x1="522.46" y1="370.16" x2="519.72" y2="370.16"/><line class="f" x1="519.72" y1="370.16" x2="519.72" y2="367.41"/><line class="f" x1="549.92" y1="367.41" x2="522.46" y2="367.41"/><line class="f" x1="522.46" y1="370.16" x2="549.92" y2="370.16"/><line class="f" x1="549.92" y1="368.79" x2="522.46" y2="368.79"/><line class="f" x1="485.39" y1="368.1" x2="488.14" y2="368.1"/><line class="f" x1="488.14" y1="368.1" x2="488.14" y2="370.85"/><line class="f" x1="488.14" y1="370.85" x2="485.39" y2="370.85"/><line class="f" x1="485.39" y1="370.85" x2="485.39" y2="368.1"/><line class="f" x1="488.14" y1="368.1" x2="518.34" y2="368.1"/><line class="f" x1="488.14" y1="369.47" x2="518.34" y2="369.47"/><line class="f" x1="488.14" y1="370.85" x2="518.34" y2="370.85"/><line class="f" x1="197.07" y1="289.84" x2="197.07" y2="289.84"/><line class="f" x1="593.51" y1="218.79" x2="593.51" y2="218.79"/><line class="f" x1="585.28" y1="193.73" x2="492.94" y2="193.73"/><line class="f" x1="425.32" y1="193.73" x2="403.7" y2="193.73"/><line class="f" x1="385.85" y1="193.73" x2="277.73" y2="193.73"/><line class="f" x1="275.33" y1="193.73" x2="205.65" y2="193.73"/><line class="f" x1="585.28" y1="363.98" x2="585.28" y2="261.35"/><line class="f" x1="585.28" y1="258.95" x2="585.28" y2="193.73"/><line class="f" x1="492.94" y1="222.91" x2="492.94" y2="193.73"/><line class="f" x1="490.54" y1="222.91" x2="490.54" y2="212.61"/><line class="f" x1="593.51" y1="363.98" x2="593.51" y2="218.79"/><line class="f" x1="593.51" y1="216.39" x2="593.51" y2="185.5"/><line class="f" x1="593.51" y1="216.39" x2="593.51" y2="216.39"/><line class="f" x1="401.3" y1="261.35" x2="401.3" y2="250.37"/><line class="f" x1="401.3" y1="219.48" x2="401.3" y2="214.33"/><line class="f" x1="490.54" y1="250.37" x2="490.54" y2="258.95"/><line class="f" x1="490.54" y1="258.95" x2="483.68" y2="258.95"/><line class="f" x1="452.78" y1="258.95" x2="403.7" y2="258.95"/><line class="f" x1="403.7" y1="258.95" x2="403.7" y2="250.37"/><line class="f" x1="403.7" y1="219.48" x2="403.7" y2="193.73"/><line class="f" x1="463.08" y1="212.61" x2="490.54" y2="212.61"/><line class="f" x1="385.85" y1="193.73" x2="385.85" y2="214.33"/><line class="f" x1="385.85" y1="214.33" x2="401.3" y2="214.33"/><line class="f" x1="492.94" y1="222.91" x2="490.54" y2="222.91"/><line class="f" x1="492.94" y1="250.37" x2="490.54" y2="250.37"/><line class="f" x1="452.78" y1="258.95" x2="452.78" y2="261.35"/><line class="f" x1="483.68" y1="258.95" x2="483.68" y2="261.35"/><line class="f" x1="461.36" y1="189.44" x2="461.36" y2="185.49"/><line class="f" x1="427.04" y1="189.44" x2="427.04" y2="185.49"/><line class="f" x1="461.36" y1="189.44" x2="463.08" y2="189.44"/><line class="f" x1="463.08" y1="189.44" x2="463.08" y2="193.73"/><line class="f" x1="427.04" y1="189.44" x2="425.32" y2="189.44"/><line class="f" x1="425.32" y1="189.44" x2="425.32" y2="193.73"/><line class="f" x1="452.78" y1="261.35" x2="418.46" y2="261.35"/><line class="f" x1="416.06" y1="261.35" x2="401.3" y2="261.35"/><line class="f" x1="403.7" y1="250.37" x2="401.3" y2="250.37"/><line class="f" x1="403.7" y1="219.48" x2="401.3" y2="219.48"/><line class="f" x1="466.51" y1="193.73" x2="463.08" y2="193.73"/><line class="f" x1="260.57" y1="259.64" x2="277.73" y2="259.64"/><line class="f" x1="277.73" y1="259.64" x2="277.73" y2="193.73"/><line class="f" x1="260.57" y1="257.23" x2="275.33" y2="257.23"/><line class="f" x1="275.33" y1="257.23" x2="275.33" y2="193.73"/><line class="f" x1="277.73" y1="363.98" x2="277.73" y2="287.1"/><line class="f" x1="275.33" y1="363.98" x2="275.33" y2="287.1"/><line class="f" x1="260.57" y1="257.23" x2="260.57" y2="259.64"/><line class="f" x1="229.68" y1="257.23" x2="229.68" y2="259.64"/><line class="f" x1="398.21" y1="367.41" x2="398.21" y2="335.84"/><g class="i"><path class="f" d="M366.63,367.41a31.57,31.57,0,0,1,31.58-31.57"/></g><line class="f" x1="452.44" y1="367.41" x2="452.44" y2="335.84"/><g class="i"><path class="f" d="M452.44,335.84A31.57,31.57,0,0,1,484,367.41"/></g><line class="f" x1="416.06" y1="363.98" x2="416.06" y2="261.35"/><line class="f" x1="585.28" y1="261.35" x2="483.68" y2="261.35"/><line class="f" x1="585.28" y1="258.95" x2="492.94" y2="258.95"/><line class="f" x1="492.94" y1="258.95" x2="492.94" y2="250.37"/><line class="f" x1="418.46" y1="261.35" x2="418.46" y2="363.98"/><line class="f" x1="401.3" y1="193.73" x2="389.28" y2="193.73"/><line class="f" x1="389.28" y1="193.73" x2="389.28" y2="210.9"/><line class="f" x1="389.28" y1="210.9" x2="401.3" y2="210.9"/><line class="f" x1="401.3" y1="210.9" x2="401.3" y2="193.73"/><line class="f" x1="585.28" y1="198.88" x2="492.94" y2="198.88"/><line class="f" x1="551.81" y1="258.09" x2="551.81" y2="254.66"/><line class="f" x1="551.81" y1="254.66" x2="531.21" y2="254.66"/><line class="f" x1="531.21" y1="254.66" x2="531.21" y2="258.09"/><line class="f" x1="531.21" y1="258.09" x2="532.24" y2="258.09"/><line class="f" x1="532.24" y1="258.09" x2="532.24" y2="255.69"/><line class="f" x1="532.24" y1="255.69" x2="550.78" y2="255.69"/><line class="f" x1="550.78" y1="255.69" x2="550.78" y2="258.09"/><line class="f" x1="550.78" y1="258.09" x2="551.81" y2="258.09"/><line class="f" x1="551.81" y1="258.09" x2="551.81" y2="254.66"/><line class="f" x1="531.21" y1="258.09" x2="531.21" y2="254.66"/><line class="f" x1="550.78" y1="258.09" x2="550.78" y2="255.69"/><line class="f" x1="532.24" y1="258.09" x2="532.24" y2="255.69"/><line class="f" x1="551.81" y1="254.66" x2="531.21" y2="254.66"/><line class="f" x1="551.81" y1="255.69" x2="531.21" y2="255.69"/><line class="f" x1="551.81" y1="258.09" x2="550.78" y2="258.09"/><line class="f" x1="532.24" y1="258.09" x2="531.21" y2="258.09"/><line class="f" x1="584.42" y1="199.74" x2="584.42" y2="258.09"/><line class="f" x1="584.42" y1="258.09" x2="558.67" y2="258.09"/><line class="f" x1="558.68" y1="258.09" x2="558.68" y2="199.74"/><line class="f" x1="560.73" y1="206.35" x2="560.81" y2="205.53"/><line class="f" x1="560.81" y1="205.53" x2="561.05" y2="204.73"/><line class="f" x1="561.05" y1="204.73" x2="561.43" y2="203.99"/><line class="f" x1="561.42" y1="203.99" x2="561.94" y2="203.31"/><line class="f" x1="561.94" y1="203.31" x2="562.57" y2="202.73"/><line class="f" x1="562.57" y1="202.73" x2="563.31" y2="202.26"/><line class="f" x1="563.31" y1="202.26" x2="564.12" y2="201.91"/><line class="f" x1="564.12" y1="201.91" x2="564.99" y2="201.7"/><line class="f" x1="564.99" y1="201.7" x2="565.88" y2="201.63"/><line class="f" x1="565.88" y1="201.63" x2="577.21" y2="201.63"/><line class="f" x1="577.21" y1="201.63" x2="578.11" y2="201.7"/><line class="f" x1="578.11" y1="201.7" x2="578.97" y2="201.91"/><line class="f" x1="578.97" y1="201.91" x2="579.78" y2="202.26"/><line class="f" x1="579.78" y1="202.26" x2="580.52" y2="202.73"/><line class="f" x1="580.52" y1="202.73" x2="581.15" y2="203.31"/><line class="f" x1="581.15" y1="203.31" x2="581.67" y2="203.99"/><line class="f" x1="581.67" y1="203.99" x2="582.05" y2="204.73"/><line class="f" x1="582.05" y1="204.73" x2="582.28" y2="205.53"/><line class="f" x1="582.28" y1="205.53" x2="582.36" y2="206.35"/><line class="f" x1="582.36" y1="206.35" x2="582.36" y2="246.29"/><line class="f" x1="582.36" y1="246.29" x2="582.19" y2="248.01"/><line class="f" x1="582.19" y1="248.01" x2="581.71" y2="249.68"/><line class="f" x1="581.71" y1="249.68" x2="580.91" y2="251.25"/><line class="f" x1="580.91" y1="251.25" x2="579.83" y2="252.66"/><line class="f" x1="579.83" y1="252.66" x2="578.5" y2="253.89"/><line class="f" x1="578.5" y1="253.89" x2="576.95" y2="254.88"/><line class="f" x1="576.95" y1="254.88" x2="575.25" y2="255.61"/><line class="f" x1="575.25" y1="255.61" x2="573.43" y2="256.05"/><line class="f" x1="573.42" y1="256.05" x2="571.55" y2="256.2"/><line class="f" x1="571.55" y1="256.2" x2="569.67" y2="256.05"/><line class="f" x1="569.67" y1="256.05" x2="567.85" y2="255.61"/><line class="f" x1="567.85" y1="255.61" x2="566.14" y2="254.88"/><line class="f" x1="566.14" y1="254.88" x2="564.6" y2="253.89"/><line class="f" x1="564.6" y1="253.89" x2="563.26" y2="252.66"/><line class="f" x1="563.26" y1="252.66" x2="562.18" y2="251.25"/><line class="f" x1="562.18" y1="251.25" x2="561.39" y2="249.68"/><line class="f" x1="561.39" y1="249.68" x2="560.9" y2="248.01"/><line class="f" x1="560.9" y1="248.01" x2="560.73" y2="246.29"/><line class="f" x1="560.73" y1="246.29" x2="560.73" y2="206.35"/><g class="i"><path class="f" d="M572.4,208a.86.86,0,1,0-.85.86.85.85,0,0,0,.85-.86"/></g><line class="f" x1="572.4" y1="200.76" x2="572.27" y2="202.2"/><g class="i"><path class="f" d="M572.27,202.2a.7.7,0,0,1-.12.33"/></g><line class="f" x1="572.15" y1="202.52" x2="572.16" y2="202.52"/><line class="f" x1="572.15" y1="202.52" x2="571.93" y2="204.34"/><g class="i"><path class="f" d="M571.93,204.34a.4.4,0,0,1-.38.34.38.38,0,0,1-.38-.34"/></g><line class="f" x1="571.17" y1="204.34" x2="571.17" y2="204.34"/><line class="f" x1="571.17" y1="204.34" x2="570.94" y2="202.52"/><g class="i"><path class="f" d="M570.94,202.52a.59.59,0,0,1-.11-.32"/></g><line class="f" x1="570.83" y1="202.2" x2="570.83" y2="202.2"/><line class="f" x1="570.83" y1="202.2" x2="570.69" y2="200.76"/><g class="i"><path class="f" d="M570.69,200.76a.86.86,0,1,1,1.71,0"/></g><line class="f" x1="572.4" y1="200.76" x2="572.41" y2="200.76"/><line class="f" x1="571.08" y1="201.61" x2="571.08" y2="202.12"/><line class="f" x1="572.01" y1="202.12" x2="572.01" y2="201.61"/><line class="f" x1="572.01" y1="201.61" x2="571.08" y2="201.61"/><g class="i"><path class="f" d="M572,202.12a.47.47,0,1,1-.93,0"/><path class="f" d="M572.15,202.52a.71.71,0,0,1-1.21,0"/></g><line class="f" x1="364.91" y1="214.67" x2="364.91" y2="194.08"/><line class="f" x1="372.78" y1="201.95" x2="377.64" y2="206.8"/><line class="f" x1="377.64" y1="201.95" x2="372.78" y2="206.8"/><line class="f" x1="375.21" y1="207.81" x2="375.21" y2="200.94"/><line class="f" x1="371.78" y1="204.37" x2="378.64" y2="204.37"/><line class="f" x1="364.91" y1="214.67" x2="385.51" y2="214.67"/><line class="f" x1="205.65" y1="259.64" x2="229.68" y2="259.64"/><line class="f" x1="205.65" y1="257.23" x2="229.68" y2="257.23"/><line class="f" x1="275.33" y1="287.1" x2="277.73" y2="287.1"/><line class="f" x1="344.15" y1="212.96" x2="363.03" y2="212.96"/><line class="f" x1="363.03" y1="212.96" x2="363.03" y2="195.79"/><line class="f" x1="363.03" y1="195.79" x2="344.15" y2="195.79"/><line class="f" x1="344.15" y1="195.79" x2="344.15" y2="212.96"/><line class="f" x1="343.29" y1="214.67" x2="363.88" y2="214.67"/><line class="f" x1="345.86" y1="211.24" x2="361.31" y2="211.24"/><line class="f" x1="361.31" y1="211.24" x2="361.31" y2="199.23"/><line class="f" x1="361.31" y1="199.23" x2="345.86" y2="199.23"/><line class="f" x1="345.86" y1="199.23" x2="345.86" y2="211.24"/><g class="i"><path class="f" d="M354.27,202.66a.68.68,0,0,0-.68-.69.69.69,0,0,0,0,1.38.68.68,0,0,0,.68-.69"/></g><line class="f" x1="322.69" y1="194.08" x2="322.69" y2="214.67"/><line class="f" x1="322.69" y1="214.67" x2="343.29" y2="214.67"/><line class="f" x1="343.29" y1="214.67" x2="343.29" y2="194.08"/><g class="i"><path class="f" d="M286.68,242.9a3.37,3.37,0,1,0-3.37,3.37,3.36,3.36,0,0,0,3.37-3.37"/></g><line class="f" x1="278.07" y1="248.14" x2="298.67" y2="248.14"/><line class="f" x1="298.67" y1="248.14" x2="298.67" y2="227.54"/><line class="f" x1="298.67" y1="227.54" x2="278.07" y2="227.54"/><g class="i"><path class="f" d="M296.79,242.9a3.37,3.37,0,1,0-3.37,3.37,3.36,3.36,0,0,0,3.37-3.37"/><path class="f" d="M296.79,232.79a3.37,3.37,0,1,0-3.37,3.37,3.36,3.36,0,0,0,3.37-3.37"/></g><line class="f" x1="299.6" y1="230.35" x2="299.6" y2="245.33"/><line class="f" x1="322.69" y1="214.67" x2="322.69" y2="193.73"/><line class="f" x1="322.69" y1="193.73" x2="302.1" y2="193.73"/><line class="f" x1="302.1" y1="193.73" x2="302.1" y2="214.67"/><line class="f" x1="302.1" y1="214.67" x2="322.69" y2="214.67"/><g class="i"><path class="f" d="M318.4,204.37a6,6,0,1,0-6,6,6,6,0,0,0,6-6"/><path class="f" d="M317.37,204.37a5,5,0,1,0-5,5,5,5,0,0,0,5-5"/></g><line class="f" x1="385.85" y1="214.67" x2="385.85" y2="193.73"/><line class="f" x1="385.85" y1="193.73" x2="277.73" y2="193.73"/><line class="f" x1="277.73" y1="193.73" x2="277.73" y2="259.98"/><line class="f" x1="277.73" y1="259.98" x2="298.67" y2="259.98"/><line class="f" x1="298.67" y1="259.98" x2="298.67" y2="214.67"/><line class="f" x1="298.67" y1="214.67" x2="382.08" y2="214.67"/><line class="f" x1="463.08" y1="193.73" x2="463.08" y2="212.61"/><line class="f" x1="466.51" y1="193.73" x2="466.51" y2="209.18"/><line class="f" x1="466.51" y1="209.18" x2="490.54" y2="209.18"/><line class="f" x1="490.54" y1="209.18" x2="490.54" y2="193.73"/><line class="f" x1="490.54" y1="193.73" x2="466.51" y2="193.73"/><line class="f" x1="197.07" y1="236.98" x2="197.07" y2="236.98"/><line class="f" x1="197.07" y1="339.95" x2="197.07" y2="339.95"/><line class="f" x1="454.5" y1="261.35" x2="481.96" y2="261.35"/><line class="f" x1="454.5" y1="261.35" x2="454.5" y2="288.81"/><g class="i"><path class="f" d="M482,261.35a27.46,27.46,0,0,1-27.46,27.46"/></g><line class="f" x1="454.5" y1="258.95" x2="454.5" y2="261.35"/><line class="f" x1="481.96" y1="261.35" x2="481.96" y2="258.95"/><line class="f" x1="481.96" y1="261.35" x2="483.68" y2="261.35"/><line class="f" x1="481.96" y1="258.95" x2="483.68" y2="258.95"/><line class="f" x1="452.78" y1="261.35" x2="454.5" y2="261.35"/><line class="f" x1="452.78" y1="258.95" x2="454.5" y2="258.95"/><line class="f" x1="454.5" y1="258.95" x2="461.37" y2="258.95"/><line class="f" x1="465.14" y1="258.95" x2="465.91" y2="258.95"/><line class="f" x1="469.69" y1="258.95" x2="470.46" y2="258.95"/><line class="f" x1="474.24" y1="258.95" x2="475.09" y2="258.95"/><line class="f" x1="475.09" y1="258.95" x2="481.96" y2="258.95"/><line class="f" x1="454.5" y1="261.35" x2="454.5" y2="262.21"/><line class="f" x1="454.5" y1="262.21" x2="451.07" y2="262.21"/><line class="f" x1="451.07" y1="262.21" x2="451.07" y2="261.35"/><line class="f" x1="454.5" y1="258.95" x2="454.5" y2="258.09"/><line class="f" x1="454.5" y1="258.09" x2="451.07" y2="258.09"/><line class="f" x1="451.07" y1="258.09" x2="451.07" y2="258.95"/><line class="f" x1="481.96" y1="262.21" x2="485.39" y2="262.21"/><line class="f" x1="485.39" y1="262.21" x2="485.39" y2="261.35"/><line class="f" x1="481.96" y1="258.95" x2="481.96" y2="258.09"/><line class="f" x1="481.96" y1="258.09" x2="485.39" y2="258.09"/><line class="f" x1="485.39" y1="258.09" x2="485.39" y2="258.95"/><line class="f" x1="490.54" y1="224.63" x2="490.54" y2="248.65"/><line class="f" x1="490.54" y1="224.63" x2="466.51" y2="224.63"/><g class="i"><path class="f" d="M490.54,248.65a24,24,0,0,1-24-24"/></g><line class="f" x1="492.94" y1="224.63" x2="490.54" y2="224.63"/><line class="f" x1="490.54" y1="248.65" x2="492.94" y2="248.65"/><line class="f" x1="490.54" y1="248.65" x2="490.54" y2="250.37"/><line class="f" x1="492.94" y1="248.65" x2="492.94" y2="250.37"/><line class="f" x1="490.54" y1="222.91" x2="490.54" y2="224.63"/><line class="f" x1="492.94" y1="222.91" x2="492.94" y2="224.63"/><line class="f" x1="492.94" y1="224.63" x2="492.94" y2="231.49"/><line class="f" x1="492.94" y1="235.27" x2="492.94" y2="236.04"/><line class="f" x1="492.94" y1="239.81" x2="492.94" y2="240.59"/><line class="f" x1="492.94" y1="241.79" x2="492.94" y2="248.65"/><line class="f" x1="490.54" y1="224.63" x2="489.68" y2="224.63"/><line class="f" x1="489.68" y1="224.63" x2="489.68" y2="221.19"/><line class="f" x1="489.68" y1="221.19" x2="490.54" y2="221.19"/><line class="f" x1="492.94" y1="224.63" x2="493.8" y2="224.63"/><line class="f" x1="493.8" y1="224.63" x2="493.8" y2="221.19"/><line class="f" x1="493.8" y1="221.19" x2="492.94" y2="221.19"/><line class="f" x1="489.68" y1="248.65" x2="489.68" y2="252.09"/><line class="f" x1="489.68" y1="252.09" x2="490.54" y2="252.09"/><line class="f" x1="492.94" y1="248.65" x2="493.8" y2="248.65"/><line class="f" x1="493.8" y1="248.65" x2="493.8" y2="252.09"/><line class="f" x1="493.8" y1="252.09" x2="492.94" y2="252.09"/><line class="f" x1="401.3" y1="221.19" x2="401.3" y2="248.65"/><line class="f" x1="401.3" y1="221.19" x2="373.84" y2="221.19"/><g class="i"><path class="f" d="M401.3,248.65a27.45,27.45,0,0,1-27.46-27.46"/></g><line class="f" x1="403.7" y1="221.19" x2="401.3" y2="221.19"/><line class="f" x1="401.3" y1="248.65" x2="403.7" y2="248.65"/><line class="f" x1="401.3" y1="248.65" x2="401.3" y2="250.37"/><line class="f" x1="403.7" y1="248.65" x2="403.7" y2="250.37"/><line class="f" x1="401.3" y1="219.48" x2="401.3" y2="221.19"/><line class="f" x1="403.7" y1="219.48" x2="403.7" y2="221.19"/><line class="f" x1="403.7" y1="221.19" x2="403.7" y2="228.06"/><line class="f" x1="403.7" y1="231.83" x2="403.7" y2="232.61"/><line class="f" x1="403.7" y1="236.38" x2="403.7" y2="237.15"/><line class="f" x1="403.7" y1="240.93" x2="403.7" y2="241.79"/><line class="f" x1="403.7" y1="241.79" x2="403.7" y2="248.65"/><line class="f" x1="401.3" y1="221.19" x2="400.44" y2="221.19"/><line class="f" x1="400.44" y1="221.19" x2="400.44" y2="217.76"/><line class="f" x1="400.44" y1="217.76" x2="401.3" y2="217.76"/><line class="f" x1="403.7" y1="221.19" x2="404.56" y2="221.19"/><line class="f" x1="404.56" y1="221.19" x2="404.56" y2="217.76"/><line class="f" x1="404.56" y1="217.76" x2="403.7" y2="217.76"/><line class="f" x1="400.44" y1="248.65" x2="400.44" y2="252.09"/><line class="f" x1="400.44" y1="252.09" x2="401.3" y2="252.09"/><line class="f" x1="403.7" y1="248.65" x2="404.56" y2="248.65"/><line class="f" x1="404.56" y1="248.65" x2="404.56" y2="252.09"/><line class="f" x1="404.56" y1="252.09" x2="403.7" y2="252.09"/><line class="f" x1="459.65" y1="189.44" x2="428.76" y2="189.44"/><line class="f" x1="459.65" y1="185.5" x2="428.76" y2="185.5"/><line class="f" x1="459.65" y1="189.44" x2="459.65" y2="220.33"/><g class="i"><path class="f" d="M459.65,220.33a30.89,30.89,0,0,1-30.89-30.89"/></g><line class="f" x1="459.65" y1="185.5" x2="459.65" y2="189.44"/><line class="f" x1="428.76" y1="189.44" x2="428.76" y2="185.49"/><line class="f" x1="428.76" y1="189.44" x2="427.04" y2="189.44"/><line class="f" x1="428.76" y1="185.5" x2="427.04" y2="185.5"/><line class="f" x1="461.36" y1="189.44" x2="459.65" y2="189.44"/><line class="f" x1="461.36" y1="185.5" x2="459.65" y2="185.5"/><line class="f" x1="303.47" y1="362.27" x2="358.39" y2="362.27"/><line class="f" x1="358.39" y1="362.27" x2="358.39" y2="358.83"/><line class="f" x1="358.39" y1="358.83" x2="303.47" y2="358.83"/><line class="f" x1="303.47" y1="358.83" x2="303.47" y2="362.27"/><line class="f" x1="231.86" y1="362.27" x2="259.32" y2="362.27"/><line class="f" x1="259.32" y1="362.27" x2="259.32" y2="360"/><line class="f" x1="259.32" y1="360" x2="231.86" y2="360"/><line class="f" x1="231.86" y1="360" x2="231.86" y2="362.26"/><line class="f" x1="509.42" y1="362.27" x2="536.88" y2="362.27"/><line class="f" x1="536.88" y1="362.27" x2="536.88" y2="360.1"/><line class="f" x1="536.88" y1="360.1" x2="509.42" y2="360.1"/><line class="f" x1="509.42" y1="360.1" x2="509.42" y2="362.26"/><g class="i"><path class="f" d="M230.14,361.13a1.72,1.72,0,1,0-1.71,1.72,1.72,1.72,0,0,0,1.71-1.72"/><path class="f" d="M301.76,360.55a1.72,1.72,0,1,0-1.72,1.72,1.72,1.72,0,0,0,1.72-1.72"/><path class="f" d="M507.7,361.18A1.72,1.72,0,1,0,506,362.9a1.72,1.72,0,0,0,1.71-1.72"/></g><line class="f" x1="483.68" y1="377.71" x2="476.81" y2="377.71"/><line class="f" x1="473.04" y1="377.71" x2="472.26" y2="377.71"/><line class="f" x1="468.49" y1="377.71" x2="467.71" y2="377.71"/><line class="f" x1="463.94" y1="377.71" x2="459.65" y2="377.71"/><line class="f" x1="459.65" y1="377.71" x2="452.78" y2="377.71"/><line class="f" x1="397.86" y1="377.71" x2="391" y2="377.71"/><line class="f" x1="387.22" y1="377.71" x2="386.45" y2="377.71"/><line class="f" x1="382.68" y1="377.71" x2="381.9" y2="377.71"/><line class="f" x1="378.13" y1="377.71" x2="373.84" y2="377.71"/><line class="f" x1="373.84" y1="377.71" x2="366.97" y2="377.71"/><line class="f" x1="389.28" y1="210.9" x2="397.55" y2="207.45"/><line class="f" x1="397.55" y1="207.45" x2="401.3" y2="193.73"/><line class="f" x1="401.3" y1="193.73" x2="401.3" y2="210.9"/><line class="f" x1="401.3" y1="210.9" x2="389.28" y2="210.9"/><line class="f" x1="466.51" y1="209.18" x2="486.13" y2="205.85"/><line class="f" x1="486.13" y1="205.85" x2="490.54" y2="193.73"/><line class="f" x1="490.54" y1="193.73" x2="490.54" y2="209.18"/><line class="f" x1="490.54" y1="209.18" x2="466.51" y2="209.18"/><rect class="d" x="313.77" y="298.42" width="17.16" height="27.46"/><line class="f" x1="313.77" y1="325.88" x2="330.93" y2="325.88"/><line class="f" x1="313.77" y1="298.42" x2="313.77" y2="325.88"/><line class="f" x1="330.93" y1="298.42" x2="313.77" y2="298.42"/><line class="f" x1="330.93" y1="325.88" x2="330.93" y2="298.42"/><rect class="d" x="492.94" y="193.73" width="92.33" height="5.15"/><line class="f" x1="585.28" y1="198.88" x2="492.94" y2="198.88"/><line class="f" x1="492.94" y1="198.88" x2="492.94" y2="193.73"/><line class="f" x1="492.94" y1="193.73" x2="585.28" y2="193.73"/><line class="f" x1="585.28" y1="193.73" x2="585.28" y2="198.88"/><rect class="d" x="205.65" y="193.73" width="20.59" height="20.6"/><line class="f" x1="205.65" y1="214.33" x2="226.24" y2="214.33"/><line class="f" x1="205.65" y1="193.73" x2="205.65" y2="214.33"/><line class="f" x1="226.24" y1="193.73" x2="205.65" y2="193.73"/><line class="f" x1="226.24" y1="214.33" x2="226.24" y2="193.73"/><rect class="d" x="400.95" y="261.35" width="15.1" height="102.63"/><line class="f" x1="416.06" y1="363.98" x2="400.95" y2="363.98"/><line class="f" x1="400.95" y1="363.98" x2="400.95" y2="261.35"/><line class="f" x1="400.95" y1="261.35" x2="416.06" y2="261.35"/><line class="f" x1="416.06" y1="261.35" x2="416.06" y2="363.98"/><rect class="d" x="550.78" y="255.69" width="1.03" height="2.4"/><line class="f" x1="550.78" y1="255.69" x2="550.78" y2="258.09"/><line class="f" x1="551.81" y1="255.69" x2="550.78" y2="255.69"/><line class="f" x1="551.81" y1="258.09" x2="551.81" y2="255.69"/><line class="f" x1="550.78" y1="258.09" x2="551.81" y2="258.09"/><rect class="d" x="531.21" y="254.66" width="20.6" height="1.03"/><line class="f" x1="551.81" y1="254.66" x2="531.21" y2="254.66"/><line class="f" x1="551.81" y1="255.69" x2="551.81" y2="254.66"/><line class="f" x1="531.21" y1="255.69" x2="551.81" y2="255.69"/><line class="f" x1="531.21" y1="254.66" x2="531.21" y2="255.69"/><rect class="d" x="531.21" y="255.69" width="1.03" height="2.4"/><line class="f" x1="531.21" y1="255.69" x2="531.21" y2="258.09"/><line class="f" x1="532.24" y1="255.69" x2="531.21" y2="255.69"/><line class="f" x1="532.24" y1="258.09" x2="532.24" y2="255.69"/><line class="f" x1="531.21" y1="258.09" x2="532.24" y2="258.09"/><rect class="d" x="403.7" y="253.46" width="45.99" height="5.49"/><line class="f" x1="449.69" y1="258.95" x2="403.7" y2="258.95"/><line class="f" x1="403.7" y1="258.95" x2="403.7" y2="253.46"/><line class="f" x1="403.7" y1="253.46" x2="449.69" y2="253.46"/><line class="f" x1="449.69" y1="253.46" x2="449.69" y2="258.95"/><polygon class="g" points="230.14 361.13 229.64 362.35 228.43 362.85 227.21 362.35 226.71 361.13 227.21 359.92 228.43 359.42 229.64 359.92 230.14 361.13"/><g class="i"><path class="f" d="M230.14,361.13a1.72,1.72,0,1,1-3.43,0"/><path class="f" d="M226.71,361.13a1.72,1.72,0,0,1,3.43,0"/></g><rect class="d" x="231.86" y="360" width="27.46" height="2.26"/><line class="f" x1="231.86" y1="362.27" x2="259.32" y2="362.27"/><line class="f" x1="231.86" y1="360" x2="231.86" y2="362.26"/><line class="f" x1="259.32" y1="360" x2="231.86" y2="360"/><line class="f" x1="259.32" y1="362.27" x2="259.32" y2="360"/><polygon class="g" points="301.76 360.55 301.25 361.76 300.04 362.27 298.83 361.76 298.32 360.55 298.83 359.34 300.04 358.83 301.25 359.34 301.76 360.55"/><g class="i"><path class="f" d="M301.76,360.55a1.72,1.72,0,1,1-3.44,0"/><path class="f" d="M298.32,360.55a1.72,1.72,0,1,1,3.44,0"/></g><rect class="d" x="303.47" y="358.83" width="54.92" height="3.43"/><line class="f" x1="358.39" y1="358.83" x2="303.47" y2="358.83"/><line class="f" x1="358.39" y1="362.27" x2="358.39" y2="358.83"/><line class="f" x1="303.47" y1="362.27" x2="358.39" y2="362.27"/><line class="f" x1="303.47" y1="358.83" x2="303.47" y2="362.27"/><polygon class="g" points="504.27 361.19 504.77 359.97 505.99 359.47 507.2 359.97 507.7 361.19 507.2 362.4 505.99 362.9 504.77 362.4 504.27 361.19"/><g class="i"><path class="f" d="M504.27,361.18a1.72,1.72,0,0,1,3.43,0"/><path class="f" d="M507.7,361.18a1.72,1.72,0,1,1-3.43,0"/></g><rect class="d" x="509.42" y="360.1" width="27.46" height="2.16"/><line class="f" x1="536.88" y1="360.1" x2="509.42" y2="360.1"/><line class="f" x1="536.88" y1="362.27" x2="536.88" y2="360.1"/><line class="f" x1="509.42" y1="362.27" x2="536.88" y2="362.27"/><line class="f" x1="509.42" y1="360.1" x2="509.42" y2="362.26"/><polygon class="g" points="585.28 282.17 523.49 282.17 520.87 282.69 518.64 284.18 517.15 286.41 516.63 289.04 516.63 337.09 517.15 339.72 518.64 341.94 520.87 343.43 523.49 343.96 574.98 343.96 585.28 343.96 585.28 282.17"/><rect class="d" x="574.98" y="270.16" width="10.3" height="12.01"/><rect class="d" x="574.98" y="343.96" width="10.3" height="12.01"/><line class="f" x1="573.86" y1="315.01" x2="576.83" y2="315.83"/><line class="f" x1="573.86" y1="286.19" x2="576.83" y2="287.01"/><line class="f" x1="516.63" y1="337.09" x2="516.63" y2="289.04"/><line class="f" x1="523.49" y1="282.17" x2="585.28" y2="282.17"/><line class="f" x1="585.28" y1="282.17" x2="585.28" y2="343.96"/><line class="f" x1="585.28" y1="343.96" x2="523.49" y2="343.96"/><line class="f" x1="585.28" y1="282.17" x2="585.28" y2="270.16"/><line class="f" x1="585.28" y1="270.16" x2="574.98" y2="270.16"/><line class="f" x1="574.98" y1="270.16" x2="574.98" y2="282.17"/><line class="f" x1="574.98" y1="282.17" x2="585.28" y2="282.17"/><line class="f" x1="585.28" y1="355.97" x2="585.28" y2="343.96"/><line class="f" x1="585.28" y1="343.96" x2="574.98" y2="343.96"/><line class="f" x1="574.98" y1="343.96" x2="574.98" y2="355.97"/><line class="f" x1="574.98" y1="355.97" x2="585.28" y2="355.97"/><line class="f" x1="562.44" y1="282.17" x2="562.44" y2="343.96"/><line class="f" x1="557.29" y1="282.17" x2="557.29" y2="343.96"/><g class="i"><path class="f" d="M568,288.09a96.74,96.74,0,0,1-.34,22.37"/><path class="f" d="M568,288.09a1.72,1.72,0,0,1,0-.39,1.84,1.84,0,0,1,1.84-1.84h.09"/><path class="f" d="M569.87,285.86l.82,0a14.13,14.13,0,0,1,3.17.35"/><path class="f" d="M573.86,286.19c1.73-.17,3.45-.26,5.18-.26q1.25,0,2.49.06"/><path class="f" d="M581.53,286l.11,0a.39.39,0,0,1,.39.39.28.28,0,0,1,0,.09"/><path class="f" d="M581.68,310.53c-.14-3.11-.22-6.21-.22-9.32q0-7.4.56-14.76"/><path class="f" d="M581.68,310.53a.75.75,0,0,1,0,.2,1,1,0,0,1-1,1,1,1,0,0,1-.3-.05"/><path class="f" d="M568.62,311.46a45.67,45.67,0,0,1,11.83.18"/><path class="f" d="M568.62,311.46l-.22,0a.79.79,0,0,1-.8-.79.93.93,0,0,1,0-.24"/><path class="f" d="M516.63,289a6.87,6.87,0,0,1,6.86-6.87"/><path class="f" d="M523.49,344a6.87,6.87,0,0,1-6.86-6.87"/><path class="f" d="M568,316.91a96.74,96.74,0,0,1-.34,22.37"/><path class="f" d="M568,316.91a1.75,1.75,0,0,1,0-.4,1.83,1.83,0,0,1,1.84-1.83h.09"/><path class="f" d="M569.87,314.68c.27,0,.54,0,.82,0a14.13,14.13,0,0,1,3.17.35"/><path class="f" d="M573.86,315c1.73-.17,3.45-.26,5.18-.26.83,0,1.66,0,2.49.06"/><path class="f" d="M581.53,314.81l.11,0a.39.39,0,0,1,.39.39.28.28,0,0,1,0,.09"/><path class="f" d="M581.68,339.35c-.14-3.11-.22-6.21-.22-9.32q0-7.39.56-14.77"/><path class="f" d="M581.68,339.35a.76.76,0,0,1,0,.21,1,1,0,0,1-1,.95,1,1,0,0,1-.3-.05"/><path class="f" d="M568.62,340.28a45.67,45.67,0,0,1,11.83.18"/><path class="f" d="M568.62,340.28l-.22,0a.79.79,0,0,1-.8-.79,1,1,0,0,1,0-.24"/></g><polygon class="g" points="406.94 321.52 405.56 319.82 404.82 317.7 404.82 315.42 405.56 313.3 406.94 311.6 406.94 300.91 408.84 300.91 410.75 308.73 410.75 311.01 411.79 314.65 411.79 318.46 410.75 322.1 410.75 324.38 408.84 332.21 406.94 332.21 406.94 321.52"/><line class="f" x1="406.94" y1="321.52" x2="405.56" y2="319.82"/><line class="f" x1="405.56" y1="319.82" x2="404.83" y2="317.7"/><line class="f" x1="404.83" y1="317.7" x2="404.83" y2="315.42"/><line class="f" x1="404.83" y1="315.42" x2="405.56" y2="313.29"/><line class="f" x1="405.56" y1="313.3" x2="406.94" y2="311.6"/><line class="f" x1="406.94" y1="311.6" x2="406.94" y2="300.91"/><line class="f" x1="406.94" y1="300.91" x2="408.84" y2="300.91"/><line class="f" x1="408.84" y1="300.91" x2="410.75" y2="308.73"/><line class="f" x1="410.75" y1="308.73" x2="410.75" y2="311.01"/><line class="f" x1="410.75" y1="311.01" x2="411.79" y2="314.65"/><line class="f" x1="411.79" y1="314.65" x2="411.79" y2="318.46"/><line class="f" x1="411.79" y1="318.46" x2="410.75" y2="322.1"/><line class="f" x1="410.75" y1="322.1" x2="410.75" y2="324.39"/><line class="f" x1="410.75" y1="324.38" x2="408.84" y2="332.21"/><line class="f" x1="408.84" y1="332.21" x2="406.94" y2="332.21"/><line class="f" x1="406.94" y1="332.21" x2="406.94" y2="321.52"/><line class="f" x1="406.94" y1="332.21" x2="406.94" y2="300.91"/><line class="f" x1="410.75" y1="308.73" x2="410.75" y2="324.39"/><line class="f" x1="408.84" y1="332.21" x2="406.94" y2="332.21"/><line class="f" x1="407.7" y1="302.99" x2="407.7" y2="305.08"/><line class="f" x1="407.7" y1="305.08" x2="408.18" y2="305.08"/><line class="f" x1="408.18" y1="305.08" x2="408.18" y2="302.99"/><line class="f" x1="408.18" y1="302.99" x2="407.7" y2="302.99"/><line class="f" x1="407.7" y1="305.6" x2="407.7" y2="307.69"/><line class="f" x1="407.7" y1="307.69" x2="408.18" y2="307.69"/><line class="f" x1="408.18" y1="307.69" x2="408.18" y2="305.6"/><line class="f" x1="408.18" y1="305.6" x2="407.7" y2="305.6"/><line class="f" x1="408.84" y1="332.21" x2="408.84" y2="300.91"/><line class="f" x1="408.18" y1="308.21" x2="407.7" y2="308.21"/><line class="f" x1="407.7" y1="308.21" x2="407.7" y2="309.25"/><line class="f" x1="407.7" y1="309.25" x2="408.18" y2="309.25"/><line class="f" x1="408.18" y1="309.25" x2="408.18" y2="308.21"/><g class="i"><path class="f" d="M406.94,321.51a6.66,6.66,0,0,1,0-9.91"/></g><polygon class="g" points="307.25 330.57 307.75 330.21 307.93 329.64 307.93 294.01 307.75 293.42 307.25 293.03 307.73 292.84 307.93 292.37 307.93 291.4 307.48 289.76 306.22 288.56 304.5 288.12 279.44 288.12 278.96 288.32 278.76 288.78 278.76 356.12 278.96 356.58 279.44 356.77 307.25 356.77 307.7 356.63 307.97 356.25 307.93 355.8 307.93 331.6 307.88 330.92 307.25 330.57"/><polygon class="g" points="330.25 330.62 332.87 331.12 335.1 332.54 336.59 334.66 337.11 337.16 337.11 350.24 336.59 352.74 335.1 354.86 332.87 356.28 330.25 356.77 308.96 356.77 308.24 356.49 307.93 355.8 307.93 331.6 308.24 330.91 308.96 330.62 330.25 330.62"/><line class="f" x1="330.25" y1="330.62" x2="332.87" y2="331.12"/><line class="f" x1="332.87" y1="331.12" x2="335.1" y2="332.54"/><line class="f" x1="335.1" y1="332.54" x2="336.59" y2="334.66"/><line class="f" x1="336.59" y1="334.66" x2="337.11" y2="337.16"/><line class="f" x1="337.11" y1="337.16" x2="337.11" y2="350.24"/><line class="f" x1="337.11" y1="350.24" x2="336.59" y2="352.74"/><line class="f" x1="336.59" y1="352.74" x2="335.1" y2="354.86"/><line class="f" x1="335.1" y1="354.86" x2="332.87" y2="356.28"/><line class="f" x1="332.87" y1="356.28" x2="330.24" y2="356.77"/><line class="f" x1="330.25" y1="356.77" x2="308.96" y2="356.77"/><line class="f" x1="308.96" y1="356.77" x2="308.24" y2="356.49"/><line class="f" x1="308.24" y1="356.49" x2="307.93" y2="355.8"/><line class="f" x1="307.93" y1="355.8" x2="307.93" y2="331.6"/><line class="f" x1="307.93" y1="331.6" x2="308.24" y2="330.91"/><line class="f" x1="308.24" y1="330.91" x2="308.96" y2="330.62"/><line class="f" x1="308.96" y1="330.62" x2="330.25" y2="330.62"/><line class="f" x1="307.93" y1="292.37" x2="307.93" y2="291.4"/><line class="f" x1="304.5" y1="288.12" x2="279.45" y2="288.12"/><line class="f" x1="278.76" y1="288.78" x2="278.76" y2="292.37"/><line class="f" x1="279.45" y1="293.03" x2="307.25" y2="293.03"/><line class="f" x1="278.76" y1="292.37" x2="278.76" y2="330.62"/><line class="f" x1="278.76" y1="330.62" x2="281.16" y2="330.62"/><line class="f" x1="307.93" y1="329.64" x2="307.93" y2="294.01"/><line class="f" x1="306.9" y1="293.03" x2="289.7" y2="293.03"/><line class="f" x1="289.7" y1="330.62" x2="306.9" y2="330.62"/><line class="f" x1="281.16" y1="293.03" x2="287.64" y2="293.03"/><line class="f" x1="287.64" y1="330.62" x2="281.16" y2="330.62"/><line class="f" x1="307.93" y1="352.52" x2="307.93" y2="356.12"/><line class="f" x1="307.25" y1="356.77" x2="279.45" y2="356.77"/><line class="f" x1="278.76" y1="356.12" x2="278.76" y2="352.52"/><line class="f" x1="278.76" y1="352.52" x2="278.76" y2="330.62"/><line class="f" x1="278.76" y1="330.62" x2="281.16" y2="330.62"/><line class="f" x1="307.93" y1="331.6" x2="307.93" y2="350.89"/><line class="f" x1="289.7" y1="330.62" x2="306.9" y2="330.62"/><line class="f" x1="289.7" y1="330.62" x2="281.16" y2="330.62"/><line class="f" x1="337.11" y1="337.16" x2="337.11" y2="350.24"/><line class="f" x1="330.25" y1="356.77" x2="308.96" y2="356.77"/><line class="f" x1="307.93" y1="355.8" x2="307.93" y2="331.6"/><line class="f" x1="308.96" y1="330.62" x2="330.25" y2="330.62"/><line class="f" x1="280.13" y1="331.6" x2="280.13" y2="355.8"/><line class="f" x1="280.13" y1="329.64" x2="280.13" y2="294.01"/><g class="i"><path class="f" d="M278.76,288.78a.67.67,0,0,1,.68-.65"/><path class="f" d="M279.44,293a.66.66,0,0,1-.68-.65"/><path class="f" d="M307.93,292.38a.66.66,0,0,1-.68.65"/><path class="f" d="M306.9,293a1,1,0,0,1,1,1"/><path class="f" d="M307.93,329.64a1,1,0,0,1-1,1"/><path class="f" d="M307.93,356.12a.67.67,0,0,1-.68.66"/><path class="f" d="M279.44,356.78a.67.67,0,0,1-.68-.66"/><path class="f" d="M306.9,330.62a1,1,0,0,1,1,1"/><path class="f" d="M309,356.77a1,1,0,0,1-1-1"/><path class="f" d="M307.93,331.6a1,1,0,0,1,1-1"/></g><line class="f" x1="280.13" y1="355.8" x2="303.52" y2="355.8"/><g class="i"><path class="f" d="M298.79,354.61c-9-1.84-15.36-9.38-15.36-18.11a17.48,17.48,0,0,1,.7-4.93"/><path class="f" d="M284.94,294a106.54,106.54,0,0,1,0,35.63"/><path class="f" d="M330.24,330.62a6.71,6.71,0,0,1,6.87,6.54"/><path class="f" d="M337.11,350.23a6.7,6.7,0,0,1-6.87,6.54"/><path class="f" d="M304.5,288.13a3.35,3.35,0,0,1,3.43,3.27"/></g><polygon class="g" points="341.16 244.07 334.5 240.24 332.78 239.78 331.06 240.24 329.8 241.5 326.36 247.43 325.9 249.15 326.36 250.86 327.62 252.12 334.28 255.95 334.75 252.4 336.12 249.09 338.31 246.25 341.16 244.07"/><polygon class="g" points="361.8 255.95 368.46 252.12 369.72 250.86 370.18 249.15 369.72 247.43 366.28 241.5 365.02 240.24 363.3 239.78 361.58 240.24 354.92 244.07 357.77 246.25 359.96 249.09 361.33 252.4 361.8 255.95"/><polygon class="g" points="341.16 267.82 341.16 275.48 341.62 277.2 342.88 278.45 344.6 278.91 351.48 278.91 353.2 278.45 354.46 277.2 354.92 275.48 354.92 267.82 351.6 269.19 348.04 269.66 344.48 269.19 341.16 267.82"/><polygon class="g" points="334.28 255.95 334.75 252.4 336.13 249.09 338.31 246.25 341.16 244.07 344.48 242.7 348.04 242.24 351.6 242.7 354.92 244.07 357.77 246.25 359.96 249.09 361.33 252.4 361.8 255.95 361.33 259.5 359.96 262.8 357.77 265.64 354.92 267.82 351.6 269.19 348.04 269.66 344.48 269.19 341.16 267.82 338.31 265.64 336.13 262.8 334.75 259.5 334.28 255.95"/><line class="f" x1="334.28" y1="255.95" x2="334.75" y2="252.4"/><line class="f" x1="334.75" y1="252.4" x2="336.12" y2="249.09"/><line class="f" x1="336.12" y1="249.09" x2="338.31" y2="246.25"/><line class="f" x1="338.31" y1="246.25" x2="341.16" y2="244.07"/><line class="f" x1="341.16" y1="244.07" x2="344.48" y2="242.7"/><line class="f" x1="344.48" y1="242.7" x2="348.04" y2="242.24"/><line class="f" x1="348.04" y1="242.24" x2="351.6" y2="242.7"/><line class="f" x1="351.6" y1="242.7" x2="354.92" y2="244.07"/><line class="f" x1="354.92" y1="244.07" x2="357.77" y2="246.25"/><line class="f" x1="357.77" y1="246.25" x2="359.96" y2="249.09"/><line class="f" x1="359.96" y1="249.09" x2="361.33" y2="252.4"/><line class="f" x1="361.33" y1="252.4" x2="361.8" y2="255.95"/><line class="f" x1="361.8" y1="255.95" x2="361.33" y2="259.5"/><line class="f" x1="361.33" y1="259.5" x2="359.96" y2="262.8"/><line class="f" x1="359.96" y1="262.8" x2="357.77" y2="265.64"/><line class="f" x1="357.77" y1="265.64" x2="354.92" y2="267.82"/><line class="f" x1="354.92" y1="267.82" x2="351.6" y2="269.19"/><line class="f" x1="351.6" y1="269.19" x2="348.04" y2="269.66"/><line class="f" x1="348.04" y1="269.66" x2="344.48" y2="269.19"/><line class="f" x1="344.48" y1="269.19" x2="341.16" y2="267.82"/><line class="f" x1="341.16" y1="267.82" x2="338.31" y2="265.64"/><line class="f" x1="338.31" y1="265.64" x2="336.12" y2="262.8"/><line class="f" x1="336.12" y1="262.8" x2="334.75" y2="259.5"/><line class="f" x1="334.75" y1="259.5" x2="334.28" y2="255.95"/><g class="i"><path class="f" d="M348,242.24h0a13.71,13.71,0,1,1,0,27.42"/><path class="f" d="M348,269.66h0a13.71,13.71,0,1,1,0-27.42"/></g><line class="f" x1="331.29" y1="242.35" x2="327.85" y2="248.29"/><line class="f" x1="327.62" y1="252.11" x2="334.28" y2="255.95"/><line class="f" x1="329.8" y1="241.5" x2="326.36" y2="247.43"/><line class="f" x1="341.16" y1="244.07" x2="334.5" y2="240.24"/><line class="f" x1="368.23" y1="248.29" x2="364.79" y2="242.35"/><line class="f" x1="361.58" y1="240.24" x2="354.92" y2="244.07"/><line class="f" x1="369.72" y1="247.43" x2="366.28" y2="241.5"/><line class="f" x1="361.8" y1="255.95" x2="368.46" y2="252.11"/><line class="f" x1="344.6" y1="277.2" x2="351.48" y2="277.2"/><line class="f" x1="354.92" y1="275.48" x2="354.92" y2="267.82"/><line class="f" x1="344.6" y1="278.91" x2="351.48" y2="278.91"/><line class="f" x1="341.16" y1="267.82" x2="341.16" y2="275.48"/><g class="i"><path class="f" d="M328.48,250.63a1.71,1.71,0,0,1-.86-1.48,1.73,1.73,0,0,1,.23-.86"/><path class="f" d="M331.29,242.35a1.72,1.72,0,0,1,2.35-.63"/><path class="f" d="M327.62,252.12a3.43,3.43,0,0,1-1.26-4.69"/><path class="f" d="M329.8,241.49a3.45,3.45,0,0,1,4.7-1.25"/><path class="f" d="M362.44,241.72a1.75,1.75,0,0,1,2.35.63"/><path class="f" d="M368.23,248.29a1.73,1.73,0,0,1,.23.86,1.71,1.71,0,0,1-.86,1.48"/><path class="f" d="M361.58,240.24a3.44,3.44,0,0,1,4.7,1.26"/><path class="f" d="M369.72,247.43a3.49,3.49,0,0,1,.46,1.72,3.43,3.43,0,0,1-1.72,3"/><path class="f" d="M353.2,275.49h0a1.72,1.72,0,0,1-1.72,1.71"/><path class="f" d="M344.6,277.2h0a1.72,1.72,0,0,1-1.72-1.71"/><path class="f" d="M354.92,275.49h0a3.43,3.43,0,0,1-3.44,3.42"/><path class="f" d="M344.6,278.91h0a3.43,3.43,0,0,1-3.44-3.42"/></g><polygon class="g" points="548.55 198.88 530.7 198.88 530.34 199.03 530.18 199.4 530.18 213.47 530.34 213.83 530.7 213.98 548.55 213.98 548.91 213.83 549.06 213.47 549.06 199.4 548.91 199.03 548.55 198.88"/><g class="i"><path class="f" d="M548.55,198.88a.51.51,0,0,1,.51.52"/></g><line class="f" x1="549.06" y1="213.47" x2="549.06" y2="199.4"/><g class="i"><path class="f" d="M549.06,213.47a.51.51,0,0,1-.51.51"/></g><line class="f" x1="530.7" y1="213.98" x2="548.55" y2="213.98"/><g class="i"><path class="f" d="M530.7,214a.52.52,0,0,1-.52-.51"/></g><line class="f" x1="530.19" y1="199.4" x2="530.19" y2="213.47"/><g class="i"><path class="f" d="M530.19,199.4a.51.51,0,0,1,.51-.52"/></g><line class="f" x1="548.55" y1="198.88" x2="530.7" y2="198.88"/><line class="f" x1="547.52" y1="202.66" x2="531.73" y2="202.66"/><line class="f" x1="531.21" y1="203.17" x2="531.21" y2="212.44"/><line class="f" x1="531.73" y1="212.96" x2="547.52" y2="212.96"/><line class="f" x1="548.03" y1="212.44" x2="548.03" y2="203.17"/><g class="i"><path class="f" d="M531.21,203.17a.51.51,0,0,1,.52-.51"/><path class="f" d="M531.73,213a.53.53,0,0,1-.52-.52"/><path class="f" d="M548,212.44a.52.52,0,0,1-.51.52"/><path class="f" d="M547.52,202.66a.51.51,0,0,1,.51.51"/></g><polygon class="g" points="540.48 200.94 540.35 202.38 540.23 202.71 540.01 204.53 539.88 204.77 539.63 204.86 539.37 204.77 539.25 204.53 539.02 202.71 538.9 202.38 538.77 200.94 539.02 200.34 539.63 200.09 540.23 200.34 540.48 200.94"/><line class="f" x1="540.48" y1="200.94" x2="540.35" y2="202.38"/><g class="i"><path class="f" d="M540.35,202.38a.66.66,0,0,1-.12.33"/></g><line class="f" x1="540.23" y1="202.71" x2="540.01" y2="204.52"/><g class="i"><path class="f" d="M540,204.53a.39.39,0,0,1-.77,0"/></g><line class="f" x1="539.24" y1="204.53" x2="539.02" y2="202.71"/><g class="i"><path class="f" d="M539,202.71a.66.66,0,0,1-.12-.33"/></g><line class="f" x1="538.9" y1="202.38" x2="538.77" y2="200.94"/><g class="i"><path class="f" d="M538.77,200.94a.86.86,0,1,1,1.71,0"/></g><line class="f" x1="539.16" y1="201.8" x2="539.16" y2="202.31"/><line class="f" x1="540.09" y1="202.31" x2="540.09" y2="201.8"/><line class="f" x1="540.09" y1="201.8" x2="539.16" y2="201.8"/><g class="i"><path class="f" d="M540.09,202.31a.47.47,0,0,1-.93,0"/><path class="f" d="M540.23,202.71a.72.72,0,0,1-1.21,0"/></g><rect class="d" x="205.65" y="214.33" width="20.59" height="42.91"/><line class="f" x1="205.65" y1="257.23" x2="205.65" y2="214.33"/><line class="f" x1="205.65" y1="214.33" x2="226.24" y2="214.33"/><line class="f" x1="226.24" y1="214.33" x2="226.24" y2="257.23"/><line class="f" x1="226.24" y1="257.23" x2="205.65" y2="257.23"/><line class="f" x1="215.94" y1="255.09" x2="215.94" y2="216.47"/><line class="f" x1="209.89" y1="253.1" x2="222.23" y2="249.47"/><line class="f" x1="209.27" y1="249.01" x2="220.75" y2="247.51"/><line class="f" x1="223.37" y1="243.42" x2="210.77" y2="242.18"/><line class="f" x1="221.72" y1="237.09" x2="210.77" y2="238.77"/><line class="f" x1="222.35" y1="234.79" x2="208.86" y2="234.79"/><line class="f" x1="222.41" y1="228.26" x2="209.08" y2="229.81"/><line class="f" x1="222.18" y1="225.82" x2="210.01" y2="225.82"/><line class="f" x1="222.31" y1="219.39" x2="209.82" y2="218.15"/><line class="f" x1="221.46" y1="220.94" x2="210.9" y2="222.19"/><rect class="d" x="226.24" y="193.73" width="49.08" height="20.6"/><line class="f" x1="226.24" y1="193.73" x2="275.33" y2="193.73"/><line class="f" x1="275.33" y1="193.73" x2="275.33" y2="214.33"/><line class="f" x1="275.33" y1="214.33" x2="226.24" y2="214.33"/><line class="f" x1="226.24" y1="214.33" x2="226.24" y2="193.73"/><line class="f" x1="228.7" y1="204.03" x2="272.87" y2="204.03"/><line class="f" x1="230.97" y1="197.97" x2="235.13" y2="210.31"/><line class="f" x1="235.66" y1="197.36" x2="237.37" y2="208.84"/><line class="f" x1="242.05" y1="211.46" x2="243.46" y2="198.86"/><line class="f" x1="249.29" y1="209.8" x2="247.37" y2="198.86"/><line class="f" x1="251.92" y1="210.43" x2="251.92" y2="196.95"/><line class="f" x1="259.38" y1="210.49" x2="257.61" y2="197.16"/><line class="f" x1="262.18" y1="210.27" x2="262.18" y2="198.1"/><line class="f" x1="269.54" y1="210.39" x2="270.95" y2="197.91"/><line class="f" x1="267.77" y1="209.54" x2="266.33" y2="198.99"/><rect class="d" x="418.46" y="312.32" width="20.6" height="51.66"/><line class="f" x1="418.46" y1="363.98" x2="418.46" y2="312.32"/><line class="f" x1="418.46" y1="312.32" x2="439.05" y2="312.32"/><line class="f" x1="439.05" y1="312.32" x2="439.05" y2="363.98"/><line class="f" x1="439.05" y1="363.98" x2="418.46" y2="363.98"/><line class="f" x1="428.76" y1="361.4" x2="428.76" y2="314.91"/><line class="f" x1="422.7" y1="359.01" x2="435.04" y2="354.64"/><line class="f" x1="422.08" y1="354.08" x2="433.56" y2="352.27"/><line class="f" x1="436.18" y1="347.35" x2="423.58" y2="345.86"/><line class="f" x1="434.53" y1="339.73" x2="423.58" y2="341.75"/><line class="f" x1="435.16" y1="336.95" x2="421.68" y2="336.95"/><line class="f" x1="435.22" y1="329.1" x2="421.89" y2="330.97"/><line class="f" x1="434.99" y1="326.16" x2="422.82" y2="326.16"/><line class="f" x1="435.12" y1="318.42" x2="422.64" y2="316.93"/><line class="f" x1="434.27" y1="320.28" x2="423.71" y2="321.79"/><rect class="d" x="418.46" y="261.35" width="20.6" height="50.97"/><line class="f" x1="418.46" y1="312.32" x2="418.46" y2="261.35"/><line class="f" x1="418.46" y1="261.35" x2="439.05" y2="261.35"/><line class="f" x1="439.05" y1="261.35" x2="439.05" y2="312.32"/><line class="f" x1="439.05" y1="312.32" x2="418.46" y2="312.32"/><line class="f" x1="428.76" y1="309.78" x2="428.76" y2="263.9"/><line class="f" x1="422.7" y1="307.41" x2="435.04" y2="303.1"/><line class="f" x1="422.08" y1="302.55" x2="433.56" y2="300.77"/><line class="f" x1="436.18" y1="295.91" x2="423.58" y2="294.45"/><line class="f" x1="434.53" y1="288.39" x2="423.58" y2="290.38"/><line class="f" x1="435.16" y1="285.66" x2="421.68" y2="285.66"/><line class="f" x1="435.22" y1="277.91" x2="421.89" y2="279.75"/><line class="f" x1="434.99" y1="275.01" x2="422.82" y2="275.01"/><line class="f" x1="435.12" y1="267.36" x2="422.64" y2="265.89"/><line class="f" x1="434.27" y1="269.2" x2="423.71" y2="270.69"/><polygon class="g" points="522.12 198.88 509.42 198.88 509.42 210.21 509.68 211.91 510.45 213.44 511.65 214.67 513.6 215.69 515.77 216.04 517.94 215.69 519.89 214.67 521.09 213.44 521.86 211.91 522.12 210.21 522.12 198.88"/><line class="f" x1="509.42" y1="198.88" x2="509.42" y2="210.21"/><line class="f" x1="509.42" y1="198.88" x2="522.12" y2="198.88"/><line class="f" x1="522.12" y1="198.88" x2="522.12" y2="210.21"/><line class="f" x1="511.48" y1="203" x2="511.48" y2="210.21"/><line class="f" x1="520.06" y1="203" x2="520.06" y2="210.21"/><line class="f" x1="520.06" y1="203" x2="511.48" y2="203"/><g class="i"><path class="f" d="M511.65,214.67a5.57,5.57,0,0,1-2.23-4.46"/><path class="f" d="M522.12,210.21a5.57,5.57,0,0,1-2.23,4.46"/><path class="f" d="M519.89,214.67a6.88,6.88,0,0,1-8.24,0"/><path class="f" d="M522.12,210.21a5.57,5.57,0,0,1-2.23,4.46"/><path class="f" d="M519.89,214.67a6.87,6.87,0,0,1-4.12,1.37"/><path class="f" d="M520.06,210.21a3.49,3.49,0,0,1-1.41,2.81"/><path class="f" d="M518.65,213a4.8,4.8,0,0,1-5.76,0"/><path class="f" d="M512.89,213a3.49,3.49,0,0,1-1.41-2.81"/></g><rect class="d" x="205.65" y="309.06" width="24.03" height="41.19"/><polygon class="g" points="229.68 336.93 238.94 336.93 240.66 336.47 241.91 335.21 242.38 333.5 242.38 325.82 241.91 324.1 240.66 322.85 238.94 322.39 229.68 322.39 229.68 336.93"/><line class="f" x1="205.65" y1="309.06" x2="229.68" y2="309.06"/><line class="f" x1="229.68" y1="309.06" x2="229.68" y2="350.25"/><line class="f" x1="229.68" y1="350.25" x2="205.65" y2="350.25"/><line class="f" x1="205.65" y1="350.25" x2="205.65" y2="309.06"/><line class="f" x1="242.37" y1="325.82" x2="242.37" y2="333.5"/><line class="f" x1="238.94" y1="336.93" x2="229.68" y2="336.93"/><line class="f" x1="240.66" y1="325.82" x2="240.66" y2="333.5"/><line class="f" x1="229.68" y1="322.39" x2="238.94" y2="322.39"/><g class="i"><path class="f" d="M238.94,322.39a3.43,3.43,0,0,1,3.43,3.43"/><path class="f" d="M242.37,333.5a3.43,3.43,0,0,1-3.43,3.43"/><path class="f" d="M238.94,324.1a1.72,1.72,0,0,1,1.72,1.72"/><path class="f" d="M240.66,333.5a1.71,1.71,0,0,1-1.72,1.71"/></g><line class="f" x1="425.32" y1="193.73" x2="432.19" y2="193.73"/><line class="f" x1="435.96" y1="193.73" x2="436.74" y2="193.73"/><line class="f" x1="440.51" y1="193.73" x2="441.29" y2="193.73"/><line class="f" x1="445.06" y1="193.73" x2="451.93" y2="193.73"/><line class="f" x1="455.7" y1="193.73" x2="456.22" y2="193.73"/><line class="f" x1="456.22" y1="193.73" x2="463.08" y2="193.73"/><line class="f" x1="229.68" y1="257.23" x2="236.54" y2="257.23"/><line class="f" x1="240.32" y1="257.23" x2="241.09" y2="257.23"/><line class="f" x1="244.86" y1="257.23" x2="245.64" y2="257.23"/><line class="f" x1="249.41" y1="257.23" x2="253.7" y2="257.23"/><line class="f" x1="253.7" y1="257.23" x2="260.57" y2="257.23"/><line class="f" x1="229.68" y1="259.64" x2="236.54" y2="259.64"/><line class="f" x1="240.32" y1="259.64" x2="241.09" y2="259.64"/><line class="f" x1="244.86" y1="259.64" x2="245.64" y2="259.64"/><line class="f" x1="249.41" y1="259.64" x2="253.7" y2="259.64"/><line class="f" x1="253.7" y1="259.64" x2="260.57" y2="259.64"/><line class="f" x1="335.82" y1="206.45" x2="335.82" y2="200.7"/><line class="f" x1="335.82" y1="200.7" x2="333.48" y2="202.59"/><line class="f" x1="333.48" y1="202.58" x2="331.14" y2="200.7"/><line class="f" x1="331.14" y1="200.7" x2="331.14" y2="206.45"/><line class="f" x1="269.15" y1="377.71" x2="269.15" y2="430.92"/><line class="f" x1="269.15" y1="430.91" x2="590.08" y2="430.91"/><line class="f" x1="267.43" y1="377.71" x2="267.43" y2="432.63"/><line class="f" x1="267.43" y1="432.63" x2="336.26" y2="432.63"/><line class="f" x1="197.07" y1="185.5" x2="197.07" y2="377.71"/><line class="f" x1="197.07" y1="377.71" x2="267.43" y2="377.71"/><line class="f" x1="267.43" y1="377.71" x2="267.43" y2="432.63"/><line class="f" x1="267.43" y1="432.63" x2="590.08" y2="432.63"/><line class="f" x1="590.08" y1="432.63" x2="590.08" y2="377.71"/><line class="f" x1="590.08" y1="377.71" x2="593.51" y2="377.71"/><line class="f" x1="593.51" y1="377.71" x2="593.51" y2="185.5"/><line class="f" x1="593.51" y1="185.5" x2="364.92" y2="185.5"/><line class="f" x1="364.92" y1="185.5" x2="291.8" y2="185.5"/><line class="f" x1="291.8" y1="185.5" x2="197.07" y2="185.5"/><path class="j" d="M431.67,230.72v7H431v-6.35H429.3v-.64Z"/><path class="j" d="M433.35,237.21a.52.52,0,0,1,.53-.53.53.53,0,0,1,.54.53.55.55,0,0,1-.54.55A.54.54,0,0,1,433.35,237.21Z"/><path class="j" d="M435.36,234.22c0-2.23,1.17-3.56,2.79-3.56s2.8,1.33,2.8,3.56-1.18,3.55-2.8,3.55S435.36,236.44,435.36,234.22Zm4.85,0c0-1.87-.84-2.9-2.06-2.9s-2.06,1-2.06,2.9.84,2.89,2.06,2.89S440.21,236.09,440.21,234.22Z"/><path class="j" d="M443.91,230.72v7h-.72v-6.35h-1.65v-.64Z"/><path class="j" d="M355.28,303.6v7h-.72v-6.35h-1.65v-.64Z"/><path class="j" d="M357,310.09a.52.52,0,0,1,.53-.53.53.53,0,0,1,.54.53.55.55,0,0,1-.54.55A.54.54,0,0,1,357,310.09Z"/><path class="j" d="M359,307.1c0-2.23,1.17-3.56,2.79-3.56s2.8,1.33,2.8,3.56-1.18,3.55-2.8,3.55S359,309.32,359,307.1Zm4.85,0c0-1.87-.84-2.9-2.06-2.9s-2.06,1-2.06,2.9.84,2.89,2.06,2.89S363.82,309,363.82,307.1Z"/><path class="j" d="M370.36,310v.64h-4.91v-.51l2.91-2.84c.79-.78.94-1.25.94-1.73,0-.81-.57-1.31-1.64-1.31a2.38,2.38,0,0,0-1.91.78l-.51-.44a3.15,3.15,0,0,1,2.48-1c1.42,0,2.32.72,2.32,1.89a2.88,2.88,0,0,1-1.15,2.19L366.51,310Z"/><path class="j" d="M237.64,230.72v7h-.72v-6.35h-1.65v-.64Z"/><path class="j" d="M239.32,237.21a.52.52,0,0,1,.53-.53.53.53,0,0,1,.54.53.55.55,0,0,1-.54.55A.54.54,0,0,1,239.32,237.21Z"/><path class="j" d="M241.33,234.22c0-2.23,1.17-3.56,2.79-3.56s2.8,1.33,2.8,3.56-1.18,3.55-2.8,3.55S241.33,236.44,241.33,234.22Zm4.85,0c0-1.87-.84-2.9-2.06-2.9s-2.06,1-2.06,2.9.84,2.89,2.06,2.89S246.18,236.09,246.18,234.22Z"/><path class="j" d="M252.49,235.71c0,1.16-.85,2.06-2.54,2.06a3.64,3.64,0,0,1-2.52-.9l.35-.56a3.11,3.11,0,0,0,2.17.8c1.16,0,1.8-.54,1.8-1.4s-.59-1.39-1.89-1.39h-.5v-.53l1.94-2.43h-3.58v-.64h4.5v.51l-2,2.49C251.74,233.8,252.49,234.59,252.49,235.71Z"/><path class="j" d="M235.48,287.09v7h-.72v-6.35h-1.65v-.64Z"/><path class="j" d="M237.16,293.58a.53.53,0,0,1,.53-.54.54.54,0,0,1,.54.54.55.55,0,0,1-.54.55A.54.54,0,0,1,237.16,293.58Z"/><path class="j" d="M239.17,290.59c0-2.23,1.17-3.56,2.79-3.56s2.8,1.33,2.8,3.56-1.18,3.55-2.8,3.55S239.17,292.81,239.17,290.59Zm4.85,0c0-1.87-.84-2.9-2.06-2.9s-2.06,1-2.06,2.9.84,2.89,2.06,2.89S244,292.45,244,290.59Z"/><path class="j" d="M251.74,292.24h-1.4v1.84h-.72v-1.84h-4v-.51l3.71-4.64h.8l-3.58,4.51h3V290h.7v1.61h1.4Z"/><path class="j" d="M480,303.6v7h-.72v-6.35h-1.65v-.64Z"/><path class="j" d="M481.68,310.09a.52.52,0,0,1,.53-.53.53.53,0,0,1,.54.53.55.55,0,0,1-.54.55A.54.54,0,0,1,481.68,310.09Z"/><path class="j" d="M483.69,307.1c0-2.23,1.17-3.56,2.79-3.56s2.8,1.33,2.8,3.56-1.18,3.55-2.8,3.55S483.69,309.32,483.69,307.1Zm4.85,0c0-1.87-.84-2.9-2.06-2.9s-2.06,1-2.06,2.9.84,2.89,2.06,2.89S488.54,309,488.54,307.1Z"/><path class="j" d="M495.06,308.54c0,1.19-.83,2.11-2.54,2.11a3.61,3.61,0,0,1-2.51-.9l.35-.56a3.07,3.07,0,0,0,2.15.8c1.19,0,1.82-.58,1.82-1.43s-.56-1.45-2.34-1.45H490.5l.36-3.51h3.83v.64h-3.2l-.24,2.23h.9C494.26,306.47,495.06,307.3,495.06,308.54Z"/><path class="j" d="M526.41,230.72v7h-.72v-6.35H524v-.64Z"/><path class="j" d="M528.09,237.21a.52.52,0,0,1,.53-.53.53.53,0,0,1,.54.53.55.55,0,0,1-.54.55A.54.54,0,0,1,528.09,237.21Z"/><path class="j" d="M530.1,234.22c0-2.23,1.17-3.56,2.79-3.56s2.8,1.33,2.8,3.56-1.18,3.55-2.8,3.55S530.1,236.44,530.1,234.22Zm4.85,0c0-1.87-.84-2.9-2.06-2.9s-2.06,1-2.06,2.9.84,2.89,2.06,2.89S535,236.09,535,234.22Z"/><path class="j" d="M542,235.63a2.17,2.17,0,0,1-2.39,2.14c-1.86,0-2.87-1.29-2.87-3.49,0-2.38,1.3-3.62,3.2-3.62a3.21,3.21,0,0,1,1.66.38l-.29.58a2.45,2.45,0,0,0-1.36-.33c-1.51,0-2.48,1-2.48,2.87,0,.16,0,.36,0,.57a2.24,2.24,0,0,1,2.14-1.2A2.12,2.12,0,0,1,542,235.63Zm-.71,0c0-.92-.68-1.51-1.76-1.51a1.62,1.62,0,0,0-1.8,1.53c0,.77.64,1.49,1.85,1.49A1.53,1.53,0,0,0,541.27,235.65Z"/><path class="j" d="M450.45,400.57v7h-.72v-6.35h-1.65v-.64Z"/><path class="j" d="M452.13,407.06a.53.53,0,0,1,.53-.54.54.54,0,0,1,.54.54.55.55,0,0,1-.54.55A.54.54,0,0,1,452.13,407.06Z"/><path class="j" d="M454.14,404.07c0-2.23,1.17-3.56,2.79-3.56s2.8,1.33,2.8,3.56-1.18,3.55-2.8,3.55S454.14,406.29,454.14,404.07Zm4.85,0c0-1.87-.84-2.9-2.06-2.9s-2.06,1-2.06,2.9.84,2.89,2.06,2.89S459,405.94,459,404.07Z"/><path class="j" d="M465.63,400.57v.51l-2.93,6.48h-.78l2.88-6.35h-3.6v1.31h-.71v-1.95Z"/></svg>