<svg xmlns="http://www.w3.org/2000/svg" xmlns:xlink="http://www.w3.org/1999/xlink" viewBox="0 0 790.58 618.13"><defs><style>.a,.p{fill:none;}.b{clip-path:url(#a);}.c{clip-path:url(#d);}.d{clip-path:url(#g);}.e{clip-path:url(#j);}.f{clip-path:url(#y);}.g{clip-path:url(#ab);}.h{clip-path:url(#ae);}.i{clip-path:url(#ah);}.j{fill:#595a5c;}.k{fill:#b6906c;}.l,.u{fill:#fff;}.m{fill:#231f20;}.n{fill:url(#aw);}.o{fill:url(#ax);}.p{stroke:#000;stroke-linecap:round;stroke-linejoin:round;stroke-width:0.35px;}.q{fill:url(#ay);}.r{fill:url(#az);}.s,.u{fill-rule:evenodd;}.t{clip-path:url(#ba);}.v{fill:#58595b;}</style><clipPath id="a"><rect class="a" y="50" width="50" height="50"/></clipPath><clipPath id="d"><rect class="a" x="50" y="50" width="50" height="50"/></clipPath><clipPath id="g"><rect class="a" width="50" height="50"/></clipPath><clipPath id="j"><rect class="a" x="50" width="50" height="50"/></clipPath><clipPath id="y"><rect class="a" y="59.93" width="90" height="59.93"/></clipPath><clipPath id="ab"><rect class="a" x="90" y="59.93" width="90" height="59.93"/></clipPath><clipPath id="ae"><rect class="a" width="90" height="59.93"/></clipPath><clipPath id="ah"><rect class="a" x="90" width="90" height="59.93"/></clipPath><pattern id="aw" width="180" height="119.85" patternTransform="matrix(0, -3.46, -3.46, 0, 36111.58, 13700.78)" patternUnits="userSpaceOnUse" viewBox="0 0 180 119.85"><rect class="a" width="180" height="119.85"/><g class="f"><g class="f"><g class="f"><image width="376" height="251" transform="matrix(0.24, 0, 0, -0.24, -0.2, 120.05)" xlink:href="B402_pudorys1.png"/></g></g></g><g class="g"><g class="g"><g class="g"><image width="376" height="251" transform="matrix(0.24, 0, 0, -0.24, 89.8, 120.05)" xlink:href="B402_pudorys2.png"/></g></g></g><g class="h"><g class="h"><g class="h"><image width="376" height="251" transform="matrix(0.24, 0, 0, -0.24, -0.2, 60.05)" xlink:href="B402_pudorys3.png"/></g></g></g><g class="i"><g class="i"><g class="i"><image width="376" height="251" transform="matrix(0.24, 0, 0, -0.24, 89.8, 60.05)" xlink:href="B402_pudorys4.png"/></g></g></g></pattern><pattern id="ax" width="180" height="119.85" patternTransform="matrix(0, -3.46, -3.46, 0, 36111.58, 13700.78)" patternUnits="userSpaceOnUse" viewBox="0 0 180 119.85"><rect class="a" width="180" height="119.85"/><g class="f"><g class="f"><g class="f"><image width="376" height="251" transform="matrix(0.24, 0, 0, -0.24, -0.2, 120.05)" xlink:href="B402_pudorys5.png"/></g></g></g><g class="g"><g class="g"><g class="g"><image width="376" height="251" transform="matrix(0.24, 0, 0, -0.24, 89.8, 120.05)" xlink:href="B402_pudorys6.png"/></g></g></g><g class="h"><g class="h"><g class="h"><image width="376" height="251" transform="matrix(0.24, 0, 0, -0.24, -0.2, 60.05)" xlink:href="B402_pudorys7.png"/></g></g></g><g class="i"><g class="i"><g class="i"><image width="376" height="251" transform="matrix(0.24, 0, 0, -0.24, 89.8, 60.05)" xlink:href="B402_pudorys8.png"/></g></g></g></pattern><pattern id="ay" width="100" height="100" patternTransform="matrix(3.46, 0, 0, -3.46, -7528.07, 49886.94)" patternUnits="userSpaceOnUse" viewBox="0 0 100 100"><rect class="a" width="100" height="100"/><g class="b"><g class="b"><g class="b"><image width="210" height="210" transform="matrix(0.24, 0, 0, -0.24, -0.2, 100.2)" xlink:href="B402_pudorys9.png"/></g></g></g><g class="c"><g class="c"><g class="c"><image width="209" height="210" transform="matrix(0.24, 0, 0, -0.24, 49.96, 100.2)" xlink:href="B402_pudorys10.png"/></g></g></g><g class="d"><g class="d"><g class="d"><image width="210" height="209" transform="matrix(0.24, 0, 0, -0.24, -0.2, 50.04)" xlink:href="B402_pudorys11.png"/></g></g></g><g class="e"><g class="e"><g class="e"><image width="209" height="209" transform="matrix(0.24, 0, 0, -0.24, 49.96, 50.04)" xlink:href="B402_pudorys12.png"/></g></g></g></pattern><pattern id="az" width="100" height="100" patternTransform="matrix(3.46, 0, 0, -3.46, -7528.07, 49886.94)" patternUnits="userSpaceOnUse" viewBox="0 0 100 100"><rect class="a" width="100" height="100"/><g class="b"><g class="b"><g class="b"><image width="210" height="210" transform="matrix(0.24, 0, 0, -0.24, -0.2, 100.2)" xlink:href="B402_pudorys13.png"/></g></g></g><g class="c"><g class="c"><g class="c"><image width="209" height="210" transform="matrix(0.24, 0, 0, -0.24, 49.96, 100.2)" xlink:href="B402_pudorys14.png"/></g></g></g><g class="d"><g class="d"><g class="d"><image width="210" height="209" transform="matrix(0.24, 0, 0, -0.24, -0.2, 50.04)" xlink:href="B402_pudorys15.png"/></g></g></g><g class="e"><g class="e"><g class="e"><image width="209" height="209" transform="matrix(0.24, 0, 0, -0.24, 49.96, 50.04)" xlink:href="B402_pudorys16.png"/></g></g></g></pattern><clipPath id="ba"><polygon class="a" points="94.03 212.1 94.03 262.31 89.87 262.31 89.87 406.02 471.47 406.02 692.4 406.02 700.71 406.02 700.71 262.31 696.55 262.31 696.55 212.1 94.03 212.1"/></clipPath></defs><path class="j" d="M55.31,597.13H57.1V609.9H55.31Zm.92,6.11h4.09a1.89,1.89,0,0,0,1-.27,1.82,1.82,0,0,0,.68-.77,2.67,2.67,0,0,0,.24-1.16,2.7,2.7,0,0,0-.24-1.16,1.82,1.82,0,0,0-1.7-1H56.23v-1.7h4a4.09,4.09,0,0,1,2,.48A3.45,3.45,0,0,1,63.62,599a4.64,4.64,0,0,1,0,4.11,3.34,3.34,0,0,1-1.35,1.36,4,4,0,0,1-2,.49h-4Z"/><path class="j" d="M67.7,606.33a2.07,2.07,0,0,0,.49,1.48,1.76,1.76,0,0,0,1.37.52,1.89,1.89,0,0,0,1.37-.46,1.79,1.79,0,0,0,.48-1.33l.12,1.91A2.58,2.58,0,0,1,69.06,610a2.89,2.89,0,0,1-2.33-1,4.08,4.08,0,0,1-.82-2.73v-5.55H67.7Zm.22-7.86a1.93,1.93,0,0,1-.56-1.5,2.07,2.07,0,0,1,.56-1.57,2.56,2.56,0,0,1,3.18,0,2.08,2.08,0,0,1,.57,1.56,1.94,1.94,0,0,1-.57,1.5,2.65,2.65,0,0,1-3.18,0Zm2.26-.86a.94.94,0,0,0,.24-.68,1,1,0,0,0-.24-.7.91.91,0,0,0-.67-.25.92.92,0,0,0-.67.25,1,1,0,0,0-.23.7,1,1,0,0,0,.23.68.92.92,0,0,0,.67.24A.9.9,0,0,0,70.18,597.61Zm1.23,3.17h1.78v9.12H71.41Z"/><path class="j" d="M77.1,609.63A2.82,2.82,0,0,1,76,608.36a5.08,5.08,0,0,1-.36-2v-2a5.05,5.05,0,0,1,.36-2,2.71,2.71,0,0,1,1-1.27,3,3,0,0,1,1.65-.44,2.71,2.71,0,0,1,1.48.42,3.22,3.22,0,0,1,1.09,1.19l-.18,1.86a2.19,2.19,0,0,0-.22-1,1.48,1.48,0,0,0-.61-.63,2,2,0,0,0-1-.21,1.71,1.71,0,0,0-1.37.55,2.26,2.26,0,0,0-.49,1.56v2a2.19,2.19,0,0,0,.49,1.54,1.74,1.74,0,0,0,1.37.54,1.93,1.93,0,0,0,1-.23,1.45,1.45,0,0,0,.61-.64,2.25,2.25,0,0,0,.22-1l.12,1.92a2.66,2.66,0,0,1-.89,1.14,2.56,2.56,0,0,1-1.53.45A3.19,3.19,0,0,1,77.1,609.63Zm4-12.5H82.9V609.9H81.11Z"/><path class="j" d="M87.09,609.57a3.09,3.09,0,0,1-1.29-1.36,4.85,4.85,0,0,1-.44-2.15v-1.48a4.71,4.71,0,0,1,.44-2.12,3.12,3.12,0,0,1,1.29-1.35,4.71,4.71,0,0,1,4.06,0,3.12,3.12,0,0,1,1.29,1.35,4.71,4.71,0,0,1,.44,2.12v1.51a4.79,4.79,0,0,1-.44,2.13,3.12,3.12,0,0,1-1.29,1.35,4.62,4.62,0,0,1-4.06,0Zm3.49-1.83a2.43,2.43,0,0,0,.51-1.65v-1.51a2.43,2.43,0,0,0-.51-1.65,1.88,1.88,0,0,0-1.46-.58,1.85,1.85,0,0,0-1.45.58,2.38,2.38,0,0,0-.52,1.65v1.51a2.38,2.38,0,0,0,.52,1.65,1.82,1.82,0,0,0,1.45.59A1.85,1.85,0,0,0,90.58,607.74Z"/><path class="j" d="M95.43,600.78h1.79v9.12H95.43Zm4.42,1.72a2.16,2.16,0,0,0-.83-.15,1.83,1.83,0,0,0-1.33.47,1.79,1.79,0,0,0-.47,1.31L97,602.37a3.32,3.32,0,0,1,1.09-1.27,2.58,2.58,0,0,1,1.48-.45,3.39,3.39,0,0,1,1.13.18,2.62,2.62,0,0,1,.88.53l-1.17,1.58A1.56,1.56,0,0,0,99.85,602.5Z"/><path class="j" d="M102.15,600.78H104l2.81,7.93-1,1.94Zm8.07,0L106.34,612a2.6,2.6,0,0,1-.56,1,1.87,1.87,0,0,1-.84.52,4,4,0,0,1-1.23.16h-.36V612h.36a1.46,1.46,0,0,0,.8-.2,1.74,1.74,0,0,0,.51-.7l3.38-10.31Z"/><path class="j" d="M113.51,609.88a5.76,5.76,0,0,1-1.32-.48,4.89,4.89,0,0,1-1.13-.79l1.06-1.31a5.86,5.86,0,0,0,1.47.85,4.18,4.18,0,0,0,1.44.28,3.11,3.11,0,0,0,1.6-.33,1.1,1.1,0,0,0,.53-1,.79.79,0,0,0-.29-.66,1.66,1.66,0,0,0-.72-.29c-.29,0-.69-.1-1.22-.14h-.15l-.14,0h-.15a6.45,6.45,0,0,1-1.5-.26,2,2,0,0,1-1-.7,2.38,2.38,0,0,1-.41-1.49,3.07,3.07,0,0,1,.39-1.61,2.41,2.41,0,0,1,1.18-1,5.29,5.29,0,0,1,2-.32,6.38,6.38,0,0,1,2.6.52,6.16,6.16,0,0,1,1.13.66l-1.08,1.31a5.59,5.59,0,0,0-1.35-.66,4,4,0,0,0-1.3-.22,2.44,2.44,0,0,0-1.37.31,1.08,1.08,0,0,0-.46.94.64.64,0,0,0,.26.55,1.72,1.72,0,0,0,.66.25c.26,0,.64.07,1.12.1h.34a7.67,7.67,0,0,1,1.63.25,2.24,2.24,0,0,1,1.13.77,2.62,2.62,0,0,1,.45,1.65,2.92,2.92,0,0,1-.42,1.63,2.54,2.54,0,0,1-1.27,1A5.88,5.88,0,0,1,115,610,7.38,7.38,0,0,1,113.51,609.88Z"/><path class="j" d="M126,597.13h1.8V609.9H126Zm2.6,12.5a2.39,2.39,0,0,1-.93-1.16l.13-1.91a2.22,2.22,0,0,0,.21,1,1.48,1.48,0,0,0,.61.63,1.93,1.93,0,0,0,1,.22,1.74,1.74,0,0,0,1.37-.54,2.18,2.18,0,0,0,.49-1.53v-2a2.26,2.26,0,0,0-.49-1.56,1.71,1.71,0,0,0-1.37-.55,2,2,0,0,0-1,.21,1.36,1.36,0,0,0-.61.62,2.12,2.12,0,0,0-.21,1l-.19-1.76a3.37,3.37,0,0,1,1.08-1.24,2.67,2.67,0,0,1,1.49-.43,3,3,0,0,1,1.65.43,2.9,2.9,0,0,1,1.06,1.27,5.1,5.1,0,0,1,.36,2v2a4.94,4.94,0,0,1-.37,2,2.79,2.79,0,0,1-1.08,1.26,3.25,3.25,0,0,1-1.71.44A2.73,2.73,0,0,1,128.57,609.63Z"/><path class="j" d="M134.46,600.78h1.82l2.81,7.93-1,1.94Zm8.07,0L138.65,612a2.6,2.6,0,0,1-.56,1,1.87,1.87,0,0,1-.84.52,4,4,0,0,1-1.23.16h-.36V612H136a1.46,1.46,0,0,0,.8-.2,1.74,1.74,0,0,0,.51-.7l3.37-10.31Z"/><path class="j" d="M143.57,600.78h4.12v1.62h-4.12Zm1.46,8.56a2.77,2.77,0,0,1-.52-1.81v-9.4h1.8v9.42a.84.84,0,0,0,.13.51.46.46,0,0,0,.39.18h.86V610h-1A2,2,0,0,1,145,609.34Z"/><path class="j" d="M151.94,606.33a2.07,2.07,0,0,0,.49,1.48,1.76,1.76,0,0,0,1.37.52,1.91,1.91,0,0,0,1.37-.46,1.79,1.79,0,0,0,.48-1.33l.12,1.91A2.58,2.58,0,0,1,153.3,610a2.89,2.89,0,0,1-2.33-1,4.08,4.08,0,0,1-.82-2.73v-5.55h1.79Zm3.71-5.55h1.78v9.12h-1.78Z"/><rect class="k" x="612.92" y="591.68" width="35.43" height="2.83"/><path class="l" d="M648.48,594.64H612.79v-3.08h35.69ZM613,594.39h35.19v-2.58H613Z"/><rect class="k" x="612.92" y="601.6" width="70.74" height="2.83"/><path class="l" d="M683.78,604.56h-71v-3.08h71ZM613,604.31h70.49v-2.58H613Z"/><rect class="k" x="612.92" y="612.72" width="177.16" height="2.84"/><path class="l" d="M790.21,615.68H612.79V612.6H790.21ZM613,615.43H790v-2.58H613Z"/><path class="m" d="M587.26,596.28h-.8v-4.82l-.81.5v-.83l.81-.53h.8Z"/><path class="m" d="M589,595.91a1.67,1.67,0,0,1-.41-1.19v-2.58A1.65,1.65,0,0,1,589,591a2,2,0,0,1,2.42,0,1.65,1.65,0,0,1,.41,1.19v2.58a1.65,1.65,0,0,1-.41,1.19,2,2,0,0,1-2.42,0Zm1.83-.55a.89.89,0,0,0,.2-.64v-2.58a.89.89,0,0,0-.2-.64.82.82,0,0,0-.62-.22.86.86,0,0,0-.63.22.94.94,0,0,0-.2.64v2.58a.9.9,0,0,0,.21.64,1,1,0,0,0,1.24,0Z"/><path class="m" d="M593.22,595.91a1.67,1.67,0,0,1-.41-1.19v-2.58a1.65,1.65,0,0,1,.41-1.19,2,2,0,0,1,2.42,0,1.61,1.61,0,0,1,.41,1.19v2.58a1.65,1.65,0,0,1-.41,1.19,2,2,0,0,1-2.42,0Zm1.83-.55a.9.9,0,0,0,.21-.64v-2.58a.94.94,0,0,0-.2-.64.86.86,0,0,0-.63-.22.82.82,0,0,0-.62.22.89.89,0,0,0-.2.64v2.58a.89.89,0,0,0,.2.64,1,1,0,0,0,1.24,0Z"/><path class="m" d="M600.1,596.13a1.45,1.45,0,0,1-.6-.6,2.06,2.06,0,0,1-.21-1v-.67a2,2,0,0,1,.21-.94,1.37,1.37,0,0,1,.6-.59,2,2,0,0,1,.95-.21,2.21,2.21,0,0,1,.59.08,1.68,1.68,0,0,1,.51.22,1.54,1.54,0,0,1,.37.35l-.58.52a1.17,1.17,0,0,0-.4-.3,1.13,1.13,0,0,0-.48-.11.94.94,0,0,0-.71.26,1,1,0,0,0-.26.72v.67a1,1,0,0,0,.25.74.94.94,0,0,0,.72.27,1,1,0,0,0,.48-.12,1,1,0,0,0,.4-.32l.58.56a1.38,1.38,0,0,1-.38.34,1.62,1.62,0,0,1-.5.22,2.27,2.27,0,0,1-.59.07A2.12,2.12,0,0,1,600.1,596.13Z"/><path class="m" d="M603.4,592.22h.79v4.06h-.79Zm2.42,1.6a1,1,0,0,0-.21-.67.78.78,0,0,0-.6-.23.81.81,0,0,0-.6.21.73.73,0,0,0-.22.58l-.08-.78a1.46,1.46,0,0,1,.49-.57,1.22,1.22,0,0,1,.67-.2,1.33,1.33,0,0,1,.73.2,1.18,1.18,0,0,1,.46.56,2.4,2.4,0,0,1,.15.89v2.47h-.79Zm2.42,0a.93.93,0,0,0-.22-.67.85.85,0,0,0-.63-.23.72.72,0,0,0-.57.23.9.9,0,0,0-.21.64l-.16-.78a1.61,1.61,0,0,1,.51-.63,1.23,1.23,0,0,1,.69-.22,1.37,1.37,0,0,1,.75.2,1.09,1.09,0,0,1,.47.56,2.21,2.21,0,0,1,.17.89v2.47h-.8Z"/><path class="m" d="M584.33,605.5l2-2.64a1.85,1.85,0,0,0,.27-.47,1.29,1.29,0,0,0,.09-.45h0a.67.67,0,0,0-.2-.53.81.81,0,0,0-.56-.19.76.76,0,0,0-.56.21,1,1,0,0,0-.27.58h-.82a2,2,0,0,1,.29-.83,1.42,1.42,0,0,1,.56-.53,1.67,1.67,0,0,1,.79-.18,1.93,1.93,0,0,1,.87.17,1.21,1.21,0,0,1,.54.51,1.55,1.55,0,0,1,.19.8h0a1.84,1.84,0,0,1-.12.63,2.8,2.8,0,0,1-.35.63l-1.65,2.24h2.15v.76h-3.2Z"/><path class="m" d="M589,605.83a1.67,1.67,0,0,1-.41-1.19v-2.58a1.65,1.65,0,0,1,.41-1.19,2,2,0,0,1,2.42,0,1.65,1.65,0,0,1,.41,1.19v2.58a1.65,1.65,0,0,1-.41,1.19,2,2,0,0,1-2.42,0Zm1.83-.55a.89.89,0,0,0,.2-.64v-2.58a.89.89,0,0,0-.2-.64.82.82,0,0,0-.62-.22.86.86,0,0,0-.63.22.94.94,0,0,0-.19.64v2.58a.89.89,0,0,0,.2.64,1,1,0,0,0,1.24,0Z"/><path class="m" d="M593.22,605.83a1.67,1.67,0,0,1-.41-1.19v-2.58a1.61,1.61,0,0,1,.42-1.19,1.59,1.59,0,0,1,1.2-.42,1.45,1.45,0,0,1,1.62,1.61v2.58a1.61,1.61,0,0,1-.41,1.19,2,2,0,0,1-2.42,0Zm1.84-.55a.94.94,0,0,0,.2-.64v-2.58a.94.94,0,0,0-.2-.64.84.84,0,0,0-.63-.22.82.82,0,0,0-.62.22.89.89,0,0,0-.2.64v2.58a.89.89,0,0,0,.2.64.82.82,0,0,0,.62.22A.86.86,0,0,0,595.06,605.28Z"/><path class="m" d="M600.1,606.05a1.45,1.45,0,0,1-.6-.6,2.06,2.06,0,0,1-.2-1v-.67a2,2,0,0,1,.2-.94,1.37,1.37,0,0,1,.6-.59,2,2,0,0,1,.95-.21,2.35,2.35,0,0,1,.6.08,1.73,1.73,0,0,1,.5.22,1.38,1.38,0,0,1,.37.35l-.58.52a1.08,1.08,0,0,0-.4-.3,1.13,1.13,0,0,0-.48-.11,1,1,0,0,0-.71.26,1,1,0,0,0-.26.72v.67a1,1,0,0,0,.25.74.94.94,0,0,0,.72.27,1.14,1.14,0,0,0,.88-.44l.58.56a1.38,1.38,0,0,1-.38.34,1.62,1.62,0,0,1-.5.22,2.22,2.22,0,0,1-.59.07A2.12,2.12,0,0,1,600.1,606.05Z"/><path class="m" d="M603.4,602.14h.79v4.06h-.79Zm2.42,1.6a1,1,0,0,0-.21-.67.78.78,0,0,0-.6-.23.81.81,0,0,0-.6.21.73.73,0,0,0-.22.58l-.08-.78a1.46,1.46,0,0,1,.49-.57,1.22,1.22,0,0,1,.67-.2,1.3,1.3,0,0,1,.73.2,1.18,1.18,0,0,1,.46.56,2.4,2.4,0,0,1,.16.89v2.47h-.8Zm2.42,0a.93.93,0,0,0-.22-.67.85.85,0,0,0-.63-.23.73.73,0,0,0-.57.23.89.89,0,0,0-.2.64l-.16-.78a1.51,1.51,0,0,1,.5-.63,1.23,1.23,0,0,1,.69-.22,1.35,1.35,0,0,1,.75.2,1.16,1.16,0,0,1,.48.56,2.4,2.4,0,0,1,.16.89v2.47h-.8Z"/><path class="m" d="M585,615.58a1.34,1.34,0,0,1-.54-.49,2,2,0,0,1-.28-.77h.8a.75.75,0,0,0,.25.49.85.85,0,0,0,.54.17.72.72,0,0,0,.59-.25,1.1,1.1,0,0,0,.21-.72v-.48a1.1,1.1,0,0,0-.21-.72.72.72,0,0,0-.59-.25.83.83,0,0,0-.4.11,1.18,1.18,0,0,0-.34.33h-.72v-3h2.89v.76h-2.1V612a1,1,0,0,1,.34-.18.94.94,0,0,1,.37-.07,1.68,1.68,0,0,1,.84.2,1.29,1.29,0,0,1,.53.6,2.07,2.07,0,0,1,.19.94V614a2.25,2.25,0,0,1-.19.94,1.31,1.31,0,0,1-.55.59,1.69,1.69,0,0,1-.86.21A1.74,1.74,0,0,1,585,615.58Z"/><path class="m" d="M589,615.32a1.65,1.65,0,0,1-.41-1.19v-2.58a1.67,1.67,0,0,1,.41-1.19,2,2,0,0,1,2.42,0,1.65,1.65,0,0,1,.41,1.19v2.58a1.64,1.64,0,0,1-.41,1.19,1.92,1.92,0,0,1-2.42,0Zm1.83-.55a.89.89,0,0,0,.2-.64v-2.58a.88.88,0,0,0-.2-.63.78.78,0,0,0-.62-.22.82.82,0,0,0-.63.22.93.93,0,0,0-.2.63v2.58a.9.9,0,0,0,.21.64,1,1,0,0,0,1.24,0Z"/><path class="m" d="M593.22,615.32a1.65,1.65,0,0,1-.41-1.19v-2.58a1.67,1.67,0,0,1,.41-1.19,2,2,0,0,1,2.42,0,1.61,1.61,0,0,1,.41,1.19v2.58a1.64,1.64,0,0,1-.41,1.19,1.92,1.92,0,0,1-2.42,0Zm1.83-.55a.9.9,0,0,0,.21-.64v-2.58a.93.93,0,0,0-.2-.63.82.82,0,0,0-.63-.22.78.78,0,0,0-.62.22.88.88,0,0,0-.2.63v2.58a.89.89,0,0,0,.2.64,1,1,0,0,0,1.24,0Z"/><path class="m" d="M600.1,615.54a1.45,1.45,0,0,1-.6-.6,2,2,0,0,1-.21-1v-.67a2,2,0,0,1,.21-.94,1.45,1.45,0,0,1,.6-.6,2,2,0,0,1,.95-.2,2.22,2.22,0,0,1,.59.07,2,2,0,0,1,.51.22,1.76,1.76,0,0,1,.37.35l-.58.52a1.17,1.17,0,0,0-.4-.3,1.13,1.13,0,0,0-.48-.11.94.94,0,0,0-.71.26,1,1,0,0,0-.26.73V614a1.07,1.07,0,0,0,.25.74,1,1,0,0,0,.72.26,1.13,1.13,0,0,0,.48-.11,1.26,1.26,0,0,0,.4-.32l.58.55a1.42,1.42,0,0,1-.38.35,1.88,1.88,0,0,1-.5.21,2.27,2.27,0,0,1-.59.08A2,2,0,0,1,600.1,615.54Z"/><path class="m" d="M603.4,611.63h.79v4.06h-.79Zm2.42,1.6a1,1,0,0,0-.21-.66.75.75,0,0,0-.6-.24.81.81,0,0,0-.6.21.75.75,0,0,0-.22.58l-.08-.78a1.5,1.5,0,0,1,.49-.56,1.15,1.15,0,0,1,.67-.2,1.32,1.32,0,0,1,.73.19,1.28,1.28,0,0,1,.46.56,2.42,2.42,0,0,1,.15.9v2.46h-.79Zm2.42,0a.91.91,0,0,0-.22-.66.82.82,0,0,0-.63-.24.72.72,0,0,0-.57.23.9.9,0,0,0-.21.64l-.16-.78a1.51,1.51,0,0,1,.51-.62,1.16,1.16,0,0,1,.69-.22,1.37,1.37,0,0,1,.75.19,1.18,1.18,0,0,1,.47.56,2.22,2.22,0,0,1,.17.9v2.46h-.8Z"/><path class="k" d="M23.49,613.89A12.92,12.92,0,1,1,36.4,601,12.93,12.93,0,0,1,23.49,613.89Zm0-24.83A11.92,11.92,0,1,0,35.4,601,11.93,11.93,0,0,0,23.49,589.06Z"/><polygon class="l" points="35.77 588.74 9.42 600.98 35.77 613.21 32.02 600.98 35.77 588.74"/><path class="k" d="M36.58,614.14,8.23,601l28.35-13.17-4,13.17ZM10.61,601,35,612.29,31.5,601,35,589.66Z"/><path class="k" d="M2.52,605.19a5,5,0,0,1-1.11-.38,4.4,4.4,0,0,1-1-.64l.81-1a3.72,3.72,0,0,0,1.16.69,4.08,4.08,0,0,0,1.38.23,2.73,2.73,0,0,0,1.55-.38,1.17,1.17,0,0,0,.55-1.05h0a1.12,1.12,0,0,0-.25-.77,1.44,1.44,0,0,0-.64-.42,8.23,8.23,0,0,0-1-.25H3.89l-.1,0a9.48,9.48,0,0,1-1.5-.36,2.08,2.08,0,0,1-1-.73,2.42,2.42,0,0,1-.41-1.51h0a2.77,2.77,0,0,1,.38-1.47,2.44,2.44,0,0,1,1.12-.92,4.48,4.48,0,0,1,1.77-.32,4.6,4.6,0,0,1,1,.11,4.9,4.9,0,0,1,1.86.86l-.73,1a4.61,4.61,0,0,0-1-.58,3,3,0,0,0-1.06-.2,2.44,2.44,0,0,0-1.46.38,1.24,1.24,0,0,0-.53,1.07h0a1,1,0,0,0,.27.75,1.74,1.74,0,0,0,.67.4,9.3,9.3,0,0,0,1.12.27h.24a7.93,7.93,0,0,1,1.4.41,2.22,2.22,0,0,1,.94.76,2.4,2.4,0,0,1,.38,1.43h0a2.62,2.62,0,0,1-.4,1.45,2.54,2.54,0,0,1-1.16.91,4.8,4.8,0,0,1-1.83.31A6.44,6.44,0,0,1,2.52,605.19Z"/><rect class="k" x="612.5" y="600.68" width="1" height="4.68"/><rect class="k" x="612.5" y="590.76" width="1" height="4.68"/><rect class="k" x="612.5" y="611.45" width="1" height="5.24"/><rect class="k" x="789.58" y="611.45" width="1" height="5.24"/><rect class="k" x="682.59" y="600.68" width="1" height="4.68"/><rect class="k" x="647.3" y="590.76" width="1" height="4.68"/><rect class="a" width="790.34" height="618.13"/><path class="n" d="M89.87,406h0Z"/><polygon class="o" points="692.4 406.02 482.38 406.02 485.32 406.02 700.71 406.02 692.4 406.02"/><rect class="l" x="461.08" y="376.59" width="122.58" height="21.12"/><line class="p" x1="583.67" y1="397.71" x2="461.08" y2="397.71"/><line class="p" x1="461.08" y1="397.71" x2="461.08" y2="376.59"/><line class="p" x1="461.08" y1="376.59" x2="583.67" y2="376.59"/><line class="p" x1="583.67" y1="376.59" x2="583.67" y2="397.71"/><rect class="l" x="440.31" y="376.93" width="18.35" height="20.78"/><line class="p" x1="458.66" y1="397.71" x2="440.31" y2="397.71"/><line class="p" x1="440.31" y1="397.71" x2="440.31" y2="376.93"/><line class="p" x1="440.31" y1="376.93" x2="458.66" y2="376.93"/><line class="p" x1="458.66" y1="376.93" x2="458.66" y2="397.71"/><rect class="l" x="235.31" y="316.33" width="60.6" height="26.84"/><line class="p" x1="235.31" y1="343.17" x2="295.91" y2="343.17"/><line class="p" x1="235.31" y1="316.33" x2="235.31" y2="343.17"/><line class="p" x1="295.91" y1="316.33" x2="235.31" y2="316.33"/><line class="p" x1="295.91" y1="343.17" x2="295.91" y2="316.33"/><path class="q" d="M270.63,406h0Z"/><line class="p" x1="270.63" y1="406.02" x2="270.63" y2="406.02"/><line class="p" x1="315.13" y1="406.02" x2="270.63" y2="406.02"/><line class="p" x1="315.13" y1="406.02" x2="315.13" y2="406.02"/><path class="r" d="M482.38,406h0Z"/><line class="p" x1="482.38" y1="406.02" x2="482.38" y2="406.02"/><line class="p" x1="482.38" y1="406.02" x2="568.43" y2="406.02"/><line class="p" x1="568.43" y1="406.02" x2="568.43" y2="406.02"/><line class="p" x1="295.91" y1="391.13" x2="295.91" y2="390.09"/><line class="p" x1="295.91" y1="376.59" x2="295.91" y2="375.55"/><line class="p" x1="295.91" y1="375.55" x2="295.91" y2="376.59"/><line class="p" x1="295.91" y1="390.09" x2="295.91" y2="391.13"/><rect x="94.03" y="229.07" width="1.39" height="33.24"/><rect x="695.17" y="229.07" width="1.39" height="33.24"/><rect x="197.91" y="269.24" width="69.26" height="6.93"/><polygon class="s" points="301.8 269.24 343.35 269.24 343.35 324.64 364.13 324.64 364.13 331.57 336.42 331.57 336.42 276.17 301.8 276.17 301.8 269.24"/><polygon class="s" points="89.87 262.31 94.03 262.31 130.39 262.31 130.39 269.24 89.87 269.24 89.87 262.31"/><rect x="300.06" y="262.32" width="16.45" height="6.93"/><rect x="196.18" y="262.32" width="72.72" height="6.93"/><polygon class="s" points="316.51 262.31 350.27 262.31 350.27 317.72 365.86 317.72 365.86 324.64 343.35 324.64 343.35 269.24 316.51 269.24 316.51 262.31"/><rect x="554.58" y="262.32" width="38.09" height="6.93"/><polygon class="s" points="447.23 262.31 488.79 262.31 488.79 269.24 454.16 269.24 454.16 324.64 431.65 324.64 431.65 317.72 447.23 317.72 447.23 262.31"/><polygon class="s" points="454.16 269.24 487.05 269.24 487.05 276.17 461.08 276.17 461.08 331.57 433.38 331.57 433.38 324.64 454.16 324.64 454.16 269.24"/><rect x="229.42" y="276.17" width="2.42" height="3.46"/><polygon class="s" points="700.71 269.24 658.46 269.24 658.46 262.32 696.55 262.32 700.71 262.32 700.71 269.24"/><rect x="89.87" y="269.24" width="38.78" height="6.93"/><rect x="660.19" y="269.24" width="40.51" height="6.93"/><rect x="556.31" y="269.24" width="34.63" height="6.93"/><rect x="692.4" y="276.17" width="8.31" height="129.85"/><rect x="89.87" y="276.17" width="8.31" height="129.85"/><rect x="401.52" y="402.04" width="1.73" height="3.98"/><rect x="437.88" y="402.04" width="1.73" height="3.98"/><path d="M476.67,406h0Z"/><rect x="458.66" y="364.47" width="2.42" height="33.24"/><rect x="458.66" y="331.57" width="2.42" height="1.73"/><path d="M315.13,406h0Z"/><rect x="295.91" y="373.47" width="2.42" height="24.24"/><rect x="439.61" y="397.71" width="252.78" height="8.31"/><rect x="98.18" y="397.71" width="303.34" height="8.31"/><polygon class="s" points="194.8 397.71 194.8 377.97 229.42 377.97 229.42 310.8 231.85 310.8 231.85 313.91 298.33 313.91 298.33 345.77 295.91 345.77 295.91 316.33 231.85 316.33 231.85 377.97 248.12 377.97 248.12 397.58 245.7 397.58 245.7 380.39 197.22 380.39 197.22 397.71 194.8 397.71"/><rect x="607.9" y="376.93" width="3.46" height="20.78"/><polygon class="s" points="607.9 376.93 607.9 380.39 587.13 380.39 587.13 397.71 583.67 397.71 583.67 376.93 607.9 376.93"/><polygon class="s" points="368.63 380.39 401.52 380.39 401.52 397.71 398.06 397.71 398.06 383.86 372.09 383.86 372.09 397.71 368.63 397.71 368.63 380.39"/><polygon class="s" points="218 397.71 214.53 397.71 214.53 380.39 218 380.39 218 392.17 218 397.71"/><line class="p" x1="229.42" y1="281.36" x2="229.42" y2="309.06"/><line class="p" x1="229.42" y1="281.36" x2="201.72" y2="281.36"/><g class="t"><path class="p" d="M229.42,309.06a27.7,27.7,0,0,1-27.7-27.7"/></g><line class="p" x1="231.85" y1="281.36" x2="229.42" y2="281.36"/><line class="p" x1="229.42" y1="309.06" x2="231.85" y2="309.06"/><line class="p" x1="229.42" y1="309.06" x2="229.42" y2="310.79"/><line class="p" x1="231.85" y1="309.06" x2="231.85" y2="310.79"/><line class="p" x1="229.42" y1="279.63" x2="229.42" y2="281.36"/><line class="p" x1="231.85" y1="279.63" x2="231.85" y2="281.36"/><line class="p" x1="231.85" y1="281.36" x2="231.85" y2="288.29"/><line class="p" x1="231.85" y1="292.09" x2="231.85" y2="292.87"/><line class="p" x1="231.85" y1="296.68" x2="231.85" y2="297.46"/><line class="p" x1="231.85" y1="301.27" x2="231.85" y2="302.14"/><line class="p" x1="231.85" y1="302.14" x2="231.85" y2="309.06"/><line class="p" x1="229.42" y1="281.36" x2="228.56" y2="281.36"/><line class="p" x1="228.56" y1="281.36" x2="228.56" y2="277.9"/><line class="p" x1="228.56" y1="277.9" x2="229.42" y2="277.9"/><line class="p" x1="231.85" y1="281.36" x2="232.71" y2="281.36"/><line class="p" x1="232.71" y1="281.36" x2="232.71" y2="277.9"/><line class="p" x1="232.71" y1="277.9" x2="231.85" y2="277.9"/><line class="p" x1="228.56" y1="309.06" x2="228.56" y2="312.53"/><line class="p" x1="228.56" y1="312.53" x2="229.42" y2="312.53"/><line class="p" x1="231.85" y1="309.06" x2="232.71" y2="309.06"/><line class="p" x1="232.71" y1="309.06" x2="232.71" y2="312.53"/><line class="p" x1="232.71" y1="312.53" x2="231.85" y2="312.53"/><line class="p" x1="95.41" y1="229.07" x2="94.03" y2="229.07"/><line class="p" x1="695.17" y1="229.07" x2="695.17" y2="262.31"/><line class="p" x1="95.41" y1="229.07" x2="95.41" y2="262.31"/><line class="p" x1="695.17" y1="229.07" x2="696.55" y2="229.07"/><line class="p" x1="94.03" y1="227.69" x2="337.19" y2="227.69"/><line class="p" x1="337.19" y1="227.69" x2="696.55" y2="227.69"/><line class="p" x1="696.55" y1="220.76" x2="94.03" y2="220.76"/><line class="p" x1="94.03" y1="222.49" x2="696.55" y2="222.49"/><line class="p" x1="248.12" y1="397.71" x2="245.7" y2="397.71"/><line class="p" x1="398.06" y1="383.86" x2="372.09" y2="383.86"/><line class="p" x1="89.87" y1="262.31" x2="94.03" y2="262.31"/><line class="p" x1="94.03" y1="262.31" x2="130.39" y2="262.31"/><line class="p" x1="196.18" y1="262.31" x2="268.9" y2="262.31"/><line class="p" x1="300.06" y1="262.31" x2="350.28" y2="262.31"/><line class="p" x1="98.18" y1="276.17" x2="128.66" y2="276.17"/><line class="p" x1="197.91" y1="276.17" x2="229.42" y2="276.17"/><line class="p" x1="231.85" y1="276.17" x2="267.17" y2="276.17"/><line class="p" x1="301.8" y1="276.17" x2="336.42" y2="276.17"/><line class="p" x1="476.67" y1="406.02" x2="476.67" y2="406.02"/><line class="p" x1="488.79" y1="262.31" x2="447.23" y2="262.31"/><line class="p" x1="487.05" y1="276.17" x2="461.08" y2="276.17"/><line class="p" x1="458.66" y1="331.57" x2="433.38" y2="331.57"/><line class="p" x1="364.13" y1="331.57" x2="336.42" y2="331.57"/><line class="p" x1="447.23" y1="262.31" x2="447.23" y2="317.72"/><line class="p" x1="336.42" y1="276.17" x2="336.42" y2="331.57"/><line class="p" x1="298.33" y1="313.91" x2="298.33" y2="345.77"/><line class="p" x1="298.33" y1="373.47" x2="298.33" y2="397.71"/><line class="p" x1="295.91" y1="316.33" x2="295.91" y2="345.77"/><line class="p" x1="295.91" y1="373.47" x2="295.91" y2="397.71"/><line class="p" x1="231.85" y1="276.17" x2="231.85" y2="279.63"/><line class="p" x1="231.85" y1="310.79" x2="231.85" y2="313.91"/><line class="p" x1="231.85" y1="316.33" x2="231.85" y2="377.97"/><line class="p" x1="229.42" y1="276.17" x2="229.42" y2="279.63"/><line class="p" x1="229.42" y1="310.79" x2="229.42" y2="377.97"/><line class="p" x1="350.28" y1="262.31" x2="350.28" y2="317.72"/><line class="p" x1="461.08" y1="276.17" x2="461.08" y2="331.57"/><line class="p" x1="487.05" y1="276.17" x2="487.05" y2="269.24"/><line class="p" x1="488.79" y1="262.31" x2="488.79" y2="269.24"/><line class="p" x1="488.79" y1="269.24" x2="487.05" y2="269.24"/><line class="p" x1="364.13" y1="331.57" x2="364.13" y2="324.65"/><line class="p" x1="433.38" y1="331.57" x2="433.38" y2="324.65"/><line class="p" x1="433.38" y1="324.64" x2="431.65" y2="324.64"/><line class="p" x1="431.65" y1="324.64" x2="431.65" y2="317.72"/><line class="p" x1="365.86" y1="317.72" x2="365.86" y2="324.64"/><line class="p" x1="365.86" y1="324.64" x2="364.13" y2="324.64"/><line class="p" x1="447.23" y1="317.72" x2="431.65" y2="317.72"/><line class="p" x1="365.86" y1="317.72" x2="350.27" y2="317.72"/><line class="p" x1="245.7" y1="380.4" x2="218" y2="380.4"/><line class="p" x1="218" y1="380.4" x2="218" y2="397.71"/><line class="p" x1="218" y1="397.71" x2="245.7" y2="397.71"/><line class="p" x1="248.12" y1="380.4" x2="248.12" y2="377.97"/><line class="p" x1="248.12" y1="377.97" x2="231.85" y2="377.97"/><line class="p" x1="229.42" y1="377.97" x2="214.53" y2="377.97"/><line class="p" x1="214.53" y1="380.4" x2="214.53" y2="397.71"/><line class="p" x1="700.71" y1="406.02" x2="482.38" y2="406.02"/><line class="p" x1="476.67" y1="406.02" x2="439.61" y2="406.02"/><line class="p" x1="401.52" y1="406.02" x2="320.84" y2="406.02"/><line class="p" x1="315.13" y1="406.02" x2="89.87" y2="406.02"/><line class="p" x1="692.4" y1="397.71" x2="611.37" y2="397.71"/><line class="p" x1="607.9" y1="397.71" x2="587.13" y2="397.71"/><line class="p" x1="583.67" y1="397.71" x2="461.08" y2="397.71"/><line class="p" x1="458.66" y1="397.71" x2="439.61" y2="397.71"/><line class="p" x1="398.06" y1="397.71" x2="372.09" y2="397.71"/><line class="p" x1="368.63" y1="397.71" x2="298.33" y2="397.71"/><line class="p" x1="295.91" y1="397.71" x2="248.12" y2="397.71"/><line class="p" x1="245.7" y1="397.71" x2="218" y2="397.71"/><line class="p" x1="214.53" y1="397.71" x2="197.22" y2="397.71"/><line class="p" x1="194.8" y1="397.71" x2="98.19" y2="397.71"/><line class="p" x1="295.91" y1="316.33" x2="231.85" y2="316.33"/><line class="p" x1="298.33" y1="313.91" x2="231.85" y2="313.91"/><line class="p" x1="461.08" y1="331.57" x2="461.08" y2="333.3"/><line class="p" x1="461.08" y1="364.47" x2="461.08" y2="397.71"/><line class="p" x1="458.66" y1="331.57" x2="458.66" y2="333.3"/><line class="p" x1="458.66" y1="364.47" x2="458.66" y2="397.71"/><line class="p" x1="692.4" y1="276.17" x2="692.4" y2="376.93"/><line class="p" x1="692.4" y1="376.93" x2="692.4" y2="397.71"/><line class="p" x1="700.71" y1="276.17" x2="700.71" y2="403.6"/><line class="p" x1="696.55" y1="262.31" x2="658.46" y2="262.31"/><line class="p" x1="700.71" y1="262.31" x2="696.55" y2="262.31"/><line class="p" x1="700.71" y1="276.17" x2="700.71" y2="276.17"/><line class="p" x1="592.67" y1="262.31" x2="554.58" y2="262.31"/><line class="p" x1="590.94" y1="276.17" x2="556.31" y2="276.17"/><line class="p" x1="487.05" y1="276.17" x2="487.05" y2="269.24"/><line class="p" x1="556.31" y1="276.17" x2="556.31" y2="269.24"/><line class="p" x1="590.94" y1="276.17" x2="590.94" y2="269.24"/><line class="p" x1="556.31" y1="269.24" x2="554.58" y2="269.24"/><line class="p" x1="554.58" y1="269.24" x2="554.58" y2="262.32"/><line class="p" x1="488.79" y1="262.31" x2="488.79" y2="269.24"/><line class="p" x1="488.79" y1="269.24" x2="487.05" y2="269.24"/><line class="p" x1="590.94" y1="269.24" x2="592.67" y2="269.24"/><line class="p" x1="592.67" y1="269.24" x2="592.67" y2="262.32"/><line class="p" x1="658.46" y1="262.31" x2="658.46" y2="269.24"/><line class="p" x1="658.46" y1="269.24" x2="660.19" y2="269.24"/><line class="p" x1="660.19" y1="276.17" x2="660.19" y2="269.24"/><line class="p" x1="98.18" y1="276.17" x2="98.18" y2="397.71"/><line class="p" x1="89.87" y1="403.6" x2="89.87" y2="403.6"/><line class="p" x1="583.67" y1="376.93" x2="583.67" y2="397.71"/><line class="p" x1="692.4" y1="276.17" x2="660.19" y2="276.17"/><line class="p" x1="461.08" y1="333.3" x2="458.66" y2="333.3"/><line class="p" x1="461.08" y1="364.47" x2="458.66" y2="364.47"/><line class="p" x1="700.71" y1="406.02" x2="700.71" y2="406.02"/><line class="p" x1="700.71" y1="403.6" x2="700.71" y2="403.6"/><line class="p" x1="482.38" y1="406.02" x2="482.38" y2="406.02"/><line class="p" x1="315.13" y1="406.02" x2="315.13" y2="406.02"/><line class="p" x1="320.84" y1="406.02" x2="320.84" y2="406.02"/><line class="p" x1="437.88" y1="402.04" x2="437.88" y2="406.02"/><line class="p" x1="403.25" y1="402.04" x2="403.25" y2="406.02"/><line class="p" x1="437.88" y1="402.04" x2="439.61" y2="402.04"/><line class="p" x1="439.61" y1="402.04" x2="439.61" y2="397.71"/><line class="p" x1="403.25" y1="402.04" x2="401.52" y2="402.04"/><line class="p" x1="401.52" y1="402.04" x2="401.52" y2="397.71"/><line class="p" x1="437.88" y1="406.02" x2="439.61" y2="406.02"/><line class="p" x1="403.25" y1="406.02" x2="401.52" y2="406.02"/><line class="p" x1="401.52" y1="397.71" x2="401.52" y2="380.4"/><line class="p" x1="398.06" y1="397.71" x2="398.06" y2="383.86"/><line class="p" x1="401.52" y1="380.4" x2="368.63" y2="380.4"/><line class="p" x1="368.63" y1="380.4" x2="368.63" y2="397.71"/><line class="p" x1="372.09" y1="383.86" x2="372.09" y2="397.71"/><line class="p" x1="298.33" y1="345.77" x2="295.91" y2="345.77"/><line class="p" x1="298.33" y1="373.47" x2="295.91" y2="373.47"/><line class="p" x1="229.42" y1="279.63" x2="231.85" y2="279.63"/><line class="p" x1="229.42" y1="310.79" x2="231.85" y2="310.79"/><line class="p" x1="128.66" y1="276.17" x2="128.66" y2="269.24"/><line class="p" x1="128.66" y1="269.24" x2="130.39" y2="269.24"/><line class="p" x1="130.39" y1="269.24" x2="130.39" y2="262.32"/><line class="p" x1="197.91" y1="276.17" x2="197.91" y2="269.24"/><line class="p" x1="197.91" y1="269.24" x2="196.18" y2="269.24"/><line class="p" x1="196.18" y1="269.24" x2="196.18" y2="262.32"/><line class="p" x1="301.8" y1="276.17" x2="301.8" y2="269.24"/><line class="p" x1="267.17" y1="276.17" x2="267.17" y2="269.24"/><line class="p" x1="267.17" y1="269.24" x2="268.9" y2="269.24"/><line class="p" x1="268.9" y1="269.24" x2="268.9" y2="262.32"/><line class="p" x1="300.06" y1="262.31" x2="300.06" y2="269.24"/><line class="p" x1="301.8" y1="269.24" x2="300.07" y2="269.24"/><line class="p" x1="433.38" y1="331.57" x2="364.13" y2="331.57"/><line class="p" x1="431.65" y1="321.18" x2="365.86" y2="321.18"/><line class="p" x1="487.05" y1="269.24" x2="487.05" y2="272.01"/><line class="p" x1="487.05" y1="272.01" x2="489.83" y2="272.01"/><line class="p" x1="489.82" y1="272.01" x2="489.82" y2="269.24"/><line class="p" x1="489.82" y1="269.24" x2="487.05" y2="269.24"/><line class="p" x1="397.37" y1="325.34" x2="397.37" y2="324.64"/><line class="p" x1="397.37" y1="324.64" x2="400.14" y2="324.64"/><line class="p" x1="400.14" y1="324.64" x2="400.14" y2="327.42"/><line class="p" x1="400.14" y1="327.41" x2="398.75" y2="327.41"/><line class="p" x1="398.75" y1="328.11" x2="395.98" y2="328.11"/><line class="p" x1="395.98" y1="328.11" x2="395.98" y2="325.34"/><line class="p" x1="395.98" y1="325.34" x2="398.75" y2="325.34"/><line class="p" x1="398.75" y1="325.34" x2="398.75" y2="328.11"/><line class="p" x1="366.9" y1="325.34" x2="366.9" y2="324.64"/><line class="p" x1="366.9" y1="324.64" x2="364.13" y2="324.64"/><line class="p" x1="364.13" y1="324.64" x2="364.13" y2="327.42"/><line class="p" x1="364.13" y1="327.41" x2="365.51" y2="327.41"/><line class="p" x1="365.51" y1="328.11" x2="368.28" y2="328.11"/><line class="p" x1="368.28" y1="328.11" x2="368.28" y2="325.34"/><line class="p" x1="368.28" y1="325.34" x2="365.51" y2="325.34"/><line class="p" x1="365.51" y1="325.34" x2="365.51" y2="328.11"/><line class="p" x1="395.98" y1="328.11" x2="368.28" y2="328.11"/><line class="p" x1="368.28" y1="325.34" x2="395.98" y2="325.34"/><line class="p" x1="395.98" y1="326.72" x2="368.28" y2="326.72"/><line class="p" x1="433.38" y1="324.64" x2="433.38" y2="327.42"/><line class="p" x1="433.38" y1="327.41" x2="430.61" y2="327.41"/><line class="p" x1="430.61" y1="327.41" x2="430.61" y2="324.64"/><line class="p" x1="430.61" y1="324.64" x2="433.38" y2="324.64"/><line class="p" x1="400.14" y1="324.64" x2="430.61" y2="324.64"/><line class="p" x1="400.14" y1="327.41" x2="430.61" y2="327.41"/><line class="p" x1="430.61" y1="326.03" x2="400.14" y2="326.03"/><line class="p" x1="398.75" y1="331.57" x2="398.75" y2="341.96"/><line class="p" x1="398.75" y1="341.96" x2="364.13" y2="341.96"/><line class="p" x1="364.13" y1="341.96" x2="364.13" y2="331.57"/><line class="p" x1="365.51" y1="328.11" x2="365.51" y2="361.35"/><g class="t"><path class="p" d="M398.75,328.11a33.24,33.24,0,0,1-33.24,33.24"/></g><line class="p" x1="554.58" y1="265.78" x2="488.79" y2="265.78"/><line class="p" x1="590.94" y1="276.17" x2="660.19" y2="276.17"/><line class="p" x1="487.05" y1="276.17" x2="556.31" y2="276.17"/><line class="p" x1="625.57" y1="276.17" x2="625.57" y2="286.55"/><line class="p" x1="625.57" y1="286.55" x2="590.94" y2="286.55"/><line class="p" x1="590.94" y1="286.55" x2="590.94" y2="276.17"/><line class="p" x1="624.18" y1="269.93" x2="624.18" y2="269.24"/><line class="p" x1="624.18" y1="269.24" x2="626.95" y2="269.24"/><line class="p" x1="626.95" y1="269.24" x2="626.95" y2="272.01"/><line class="p" x1="626.95" y1="272.01" x2="625.57" y2="272.01"/><line class="p" x1="625.57" y1="272.7" x2="622.79" y2="272.7"/><line class="p" x1="622.8" y1="272.7" x2="622.8" y2="269.93"/><line class="p" x1="622.8" y1="269.93" x2="625.57" y2="269.93"/><line class="p" x1="625.57" y1="269.93" x2="625.57" y2="272.7"/><line class="p" x1="593.71" y1="269.93" x2="593.71" y2="269.24"/><line class="p" x1="593.71" y1="269.24" x2="590.94" y2="269.24"/><line class="p" x1="590.94" y1="269.24" x2="590.94" y2="272.01"/><line class="p" x1="590.94" y1="272.01" x2="592.32" y2="272.01"/><line class="p" x1="592.32" y1="272.7" x2="595.09" y2="272.7"/><line class="p" x1="595.09" y1="272.7" x2="595.09" y2="269.93"/><line class="p" x1="595.09" y1="269.93" x2="592.32" y2="269.93"/><line class="p" x1="592.32" y1="269.93" x2="592.32" y2="272.7"/><line class="p" x1="622.8" y1="272.7" x2="595.09" y2="272.7"/><line class="p" x1="595.09" y1="269.93" x2="622.8" y2="269.93"/><line class="p" x1="622.8" y1="271.32" x2="595.09" y2="271.32"/><line class="p" x1="660.19" y1="269.24" x2="660.19" y2="272.01"/><line class="p" x1="660.19" y1="272.01" x2="657.42" y2="272.01"/><line class="p" x1="657.42" y1="272.01" x2="657.42" y2="269.24"/><line class="p" x1="657.42" y1="269.24" x2="660.19" y2="269.24"/><line class="p" x1="626.95" y1="269.24" x2="657.42" y2="269.24"/><line class="p" x1="626.95" y1="272.01" x2="657.42" y2="272.01"/><line class="p" x1="592.32" y1="272.7" x2="592.32" y2="305.95"/><g class="t"><path class="p" d="M625.57,272.7A33.25,33.25,0,0,1,592.32,306"/></g><line class="p" x1="657.42" y1="270.63" x2="626.95" y2="270.63"/><line class="p" x1="592.67" y1="265.78" x2="658.46" y2="265.78"/><line class="p" x1="523.07" y1="269.93" x2="523.07" y2="269.24"/><line class="p" x1="523.07" y1="269.24" x2="520.3" y2="269.24"/><line class="p" x1="520.3" y1="269.24" x2="520.3" y2="272.01"/><line class="p" x1="520.3" y1="272.01" x2="521.68" y2="272.01"/><line class="p" x1="521.68" y1="272.7" x2="524.45" y2="272.7"/><line class="p" x1="524.45" y1="272.7" x2="524.45" y2="269.93"/><line class="p" x1="524.45" y1="269.93" x2="521.68" y2="269.93"/><line class="p" x1="521.68" y1="269.93" x2="521.68" y2="272.7"/><line class="p" x1="553.54" y1="269.93" x2="553.54" y2="269.24"/><line class="p" x1="553.54" y1="269.24" x2="556.31" y2="269.24"/><line class="p" x1="556.31" y1="269.24" x2="556.31" y2="272.01"/><line class="p" x1="556.31" y1="272.01" x2="554.92" y2="272.01"/><line class="p" x1="554.92" y1="272.7" x2="552.15" y2="272.7"/><line class="p" x1="552.15" y1="272.7" x2="552.15" y2="269.93"/><line class="p" x1="552.15" y1="269.93" x2="554.93" y2="269.93"/><line class="p" x1="554.92" y1="269.93" x2="554.92" y2="272.7"/><line class="p" x1="524.45" y1="272.7" x2="552.15" y2="272.7"/><line class="p" x1="552.15" y1="269.93" x2="524.45" y2="269.93"/><line class="p" x1="524.45" y1="271.32" x2="552.15" y2="271.32"/><line class="p" x1="487.05" y1="269.24" x2="487.05" y2="272.01"/><line class="p" x1="487.05" y1="272.01" x2="489.83" y2="272.01"/><line class="p" x1="489.82" y1="272.01" x2="489.82" y2="269.24"/><line class="p" x1="489.82" y1="269.24" x2="487.05" y2="269.24"/><line class="p" x1="520.3" y1="269.24" x2="489.82" y2="269.24"/><line class="p" x1="520.3" y1="272.01" x2="489.82" y2="272.01"/><line class="p" x1="489.82" y1="270.63" x2="520.3" y2="270.63"/><line class="p" x1="295.04" y1="343.17" x2="236.18" y2="343.17"/><line class="p" x1="242.84" y1="341.09" x2="242.02" y2="341.01"/><line class="p" x1="242.02" y1="341.01" x2="241.21" y2="340.78"/><line class="p" x1="241.21" y1="340.78" x2="240.46" y2="340.4"/><line class="p" x1="240.46" y1="340.4" x2="239.78" y2="339.88"/><line class="p" x1="239.78" y1="339.88" x2="239.2" y2="339.24"/><line class="p" x1="239.2" y1="339.24" x2="238.72" y2="338.5"/><line class="p" x1="238.72" y1="338.5" x2="238.37" y2="337.68"/><line class="p" x1="238.37" y1="337.68" x2="238.15" y2="336.8"/><line class="p" x1="238.15" y1="336.8" x2="238.08" y2="335.9"/><line class="p" x1="238.08" y1="335.9" x2="238.08" y2="324.47"/><line class="p" x1="238.08" y1="324.47" x2="238.15" y2="323.57"/><line class="p" x1="238.15" y1="323.57" x2="238.37" y2="322.7"/><line class="p" x1="238.37" y1="322.7" x2="238.72" y2="321.87"/><line class="p" x1="238.72" y1="321.87" x2="239.2" y2="321.13"/><line class="p" x1="239.2" y1="321.13" x2="239.78" y2="320.49"/><line class="p" x1="239.78" y1="320.49" x2="240.46" y2="319.97"/><line class="p" x1="240.46" y1="319.97" x2="241.21" y2="319.59"/><line class="p" x1="241.21" y1="319.59" x2="242.01" y2="319.36"/><line class="p" x1="242.02" y1="319.36" x2="242.84" y2="319.28"/><line class="p" x1="242.84" y1="319.28" x2="283.14" y2="319.28"/><line class="p" x1="283.14" y1="319.28" x2="284.88" y2="319.44"/><line class="p" x1="284.88" y1="319.44" x2="286.56" y2="319.94"/><line class="p" x1="286.56" y1="319.94" x2="288.14" y2="320.74"/><line class="p" x1="288.14" y1="320.74" x2="289.57" y2="321.83"/><line class="p" x1="289.57" y1="321.83" x2="290.8" y2="323.17"/><line class="p" x1="290.8" y1="323.17" x2="291.8" y2="324.73"/><line class="p" x1="291.8" y1="324.73" x2="292.54" y2="326.46"/><line class="p" x1="292.54" y1="326.46" x2="292.99" y2="328.29"/><line class="p" x1="292.99" y1="328.29" x2="293.14" y2="330.19"/><line class="p" x1="293.14" y1="330.19" x2="292.99" y2="332.08"/><line class="p" x1="292.99" y1="332.08" x2="292.54" y2="333.92"/><line class="p" x1="292.54" y1="333.92" x2="291.8" y2="335.64"/><line class="p" x1="291.8" y1="335.64" x2="290.8" y2="337.2"/><line class="p" x1="290.8" y1="337.2" x2="289.57" y2="338.54"/><line class="p" x1="289.57" y1="338.54" x2="288.14" y2="339.63"/><line class="p" x1="288.14" y1="339.63" x2="286.56" y2="340.43"/><line class="p" x1="286.56" y1="340.43" x2="284.88" y2="340.93"/><line class="p" x1="284.88" y1="340.93" x2="283.14" y2="341.09"/><line class="p" x1="283.14" y1="341.09" x2="242.84" y2="341.09"/><g class="t"><path class="p" d="M245.35,330.19a.87.87,0,1,0-.86.86.86.86,0,0,0,.86-.86"/></g><line class="p" x1="237.2" y1="329.32" x2="238.66" y2="329.46"/><g class="t"><path class="p" d="M238.66,329.46a.81.81,0,0,1,.33.11"/></g><line class="p" x1="238.99" y1="329.57" x2="238.99" y2="329.57"/><line class="p" x1="238.99" y1="329.57" x2="240.82" y2="329.8"/><g class="t"><path class="p" d="M240.82,329.8a.39.39,0,0,1,0,.77"/></g><line class="p" x1="240.82" y1="330.57" x2="240.82" y2="330.57"/><line class="p" x1="240.82" y1="330.57" x2="238.99" y2="330.8"/><g class="t"><path class="p" d="M239,330.8a.81.81,0,0,1-.33.11"/></g><line class="p" x1="238.66" y1="330.91" x2="238.66" y2="330.91"/><line class="p" x1="238.66" y1="330.91" x2="237.2" y2="331.05"/><g class="t"><path class="p" d="M237.2,331.05a.87.87,0,0,1,0-1.73"/></g><line class="p" x1="237.2" y1="329.32" x2="237.2" y2="329.32"/><line class="p" x1="238.07" y1="330.66" x2="238.58" y2="330.66"/><line class="p" x1="238.58" y1="329.71" x2="238.07" y2="329.71"/><line class="p" x1="238.07" y1="329.71" x2="238.07" y2="330.66"/><g class="t"><path class="p" d="M238.58,329.71a.48.48,0,0,1,.47.48.47.47,0,0,1-.47.47"/><path class="p" d="M239,329.57a.76.76,0,0,1,.33.62.75.75,0,0,1-.33.61"/></g><line class="p" x1="235.31" y1="316.33" x2="235.31" y2="377.97"/><line class="p" x1="128.66" y1="276.17" x2="197.91" y2="276.17"/><line class="p" x1="196.18" y1="265.78" x2="130.39" y2="265.78"/><line class="p" x1="130.04" y1="272.7" x2="130.04" y2="305.95"/><line class="p" x1="161.9" y1="269.93" x2="161.9" y2="269.24"/><line class="p" x1="161.9" y1="269.24" x2="164.67" y2="269.24"/><line class="p" x1="164.67" y1="269.24" x2="164.67" y2="272.01"/><line class="p" x1="164.67" y1="272.01" x2="163.29" y2="272.01"/><line class="p" x1="163.28" y1="272.7" x2="160.51" y2="272.7"/><line class="p" x1="160.51" y1="272.7" x2="160.51" y2="269.93"/><line class="p" x1="160.51" y1="269.93" x2="163.29" y2="269.93"/><line class="p" x1="163.28" y1="269.93" x2="163.28" y2="272.7"/><line class="p" x1="131.43" y1="269.93" x2="131.43" y2="269.24"/><line class="p" x1="131.43" y1="269.24" x2="128.66" y2="269.24"/><line class="p" x1="128.66" y1="269.24" x2="128.66" y2="272.01"/><line class="p" x1="128.66" y1="272.01" x2="130.04" y2="272.01"/><line class="p" x1="130.04" y1="272.7" x2="132.81" y2="272.7"/><line class="p" x1="132.81" y1="272.7" x2="132.81" y2="269.93"/><line class="p" x1="132.81" y1="269.93" x2="130.04" y2="269.93"/><line class="p" x1="130.04" y1="269.93" x2="130.04" y2="272.7"/><line class="p" x1="160.51" y1="272.7" x2="132.81" y2="272.7"/><line class="p" x1="132.81" y1="269.93" x2="160.51" y2="269.93"/><line class="p" x1="160.51" y1="271.32" x2="132.81" y2="271.32"/><line class="p" x1="164.67" y1="272.01" x2="195.14" y2="272.01"/><line class="p" x1="195.14" y1="269.24" x2="164.67" y2="269.24"/><line class="p" x1="164.67" y1="270.63" x2="195.14" y2="270.63"/><line class="p" x1="195.14" y1="272.01" x2="197.91" y2="272.01"/><line class="p" x1="197.91" y1="272.01" x2="197.91" y2="269.24"/><line class="p" x1="197.91" y1="269.24" x2="195.14" y2="269.24"/><line class="p" x1="195.14" y1="269.24" x2="195.14" y2="272.01"/><g class="t"><path class="p" d="M163.28,272.7A33.25,33.25,0,0,1,130,306"/></g><line class="p" x1="128.66" y1="276.17" x2="128.66" y2="286.55"/><line class="p" x1="128.66" y1="286.55" x2="163.28" y2="286.55"/><line class="p" x1="163.28" y1="286.55" x2="163.28" y2="276.17"/><line class="p" x1="301.8" y1="269.24" x2="301.8" y2="272.01"/><line class="p" x1="301.8" y1="272.01" x2="299.03" y2="272.01"/><line class="p" x1="299.03" y1="272.01" x2="299.03" y2="269.24"/><line class="p" x1="299.03" y1="269.24" x2="300.06" y2="269.24"/><line class="p" x1="268.9" y1="262.31" x2="300.06" y2="262.31"/><line class="p" x1="267.17" y1="276.17" x2="301.8" y2="276.17"/><line class="p" x1="267.17" y1="272.01" x2="269.94" y2="272.01"/><line class="p" x1="269.94" y1="272.01" x2="269.94" y2="269.24"/><line class="p" x1="269.94" y1="269.24" x2="267.17" y2="269.24"/><line class="p" x1="267.17" y1="269.24" x2="267.17" y2="272.01"/><line class="p" x1="299.03" y1="272.01" x2="269.94" y2="272.01"/><line class="p" x1="269.94" y1="269.24" x2="299.03" y2="269.24"/><line class="p" x1="299.03" y1="270.63" x2="269.94" y2="270.63"/><line class="p" x1="295.04" y1="375.38" x2="291.58" y2="375.38"/><line class="p" x1="291.58" y1="375.38" x2="291.58" y2="396.15"/><line class="p" x1="291.58" y1="396.15" x2="295.04" y2="396.15"/><line class="p" x1="295.04" y1="396.15" x2="295.04" y2="395.11"/><line class="p" x1="295.04" y1="395.11" x2="292.62" y2="395.11"/><line class="p" x1="292.62" y1="395.11" x2="292.62" y2="376.41"/><line class="p" x1="292.62" y1="376.41" x2="295.04" y2="376.41"/><line class="p" x1="295.04" y1="376.41" x2="295.04" y2="375.38"/><line class="p" x1="295.04" y1="375.38" x2="291.58" y2="375.38"/><line class="p" x1="295.04" y1="396.15" x2="291.58" y2="396.15"/><line class="p" x1="295.04" y1="376.41" x2="292.62" y2="376.41"/><line class="p" x1="295.04" y1="395.11" x2="292.62" y2="395.11"/><line class="p" x1="291.58" y1="375.38" x2="291.58" y2="396.15"/><line class="p" x1="292.62" y1="375.38" x2="292.62" y2="396.15"/><line class="p" x1="295.04" y1="375.38" x2="295.04" y2="376.41"/><line class="p" x1="295.04" y1="395.11" x2="295.04" y2="396.15"/><line class="p" x1="469.37" y1="384.53" x2="474.27" y2="389.42"/><line class="p" x1="474.27" y1="384.53" x2="469.37" y2="389.42"/><line class="p" x1="471.82" y1="390.44" x2="471.82" y2="383.51"/><line class="p" x1="468.36" y1="386.97" x2="475.28" y2="386.97"/><line class="p" x1="482.21" y1="376.59" x2="482.21" y2="397.36"/><line class="p" x1="461.43" y1="376.59" x2="482.21" y2="376.59"/><line class="p" x1="554.92" y1="272.7" x2="554.92" y2="305.95"/><g class="t"><path class="p" d="M554.92,306a33.25,33.25,0,0,1-33.24-33.25"/></g><line class="p" x1="562.54" y1="397.36" x2="562.54" y2="376.59"/><line class="p" x1="562.54" y1="376.59" x2="541.77" y2="376.59"/><line class="p" x1="541.77" y1="376.59" x2="541.77" y2="397.36"/><line class="p" x1="582.45" y1="378.32" x2="563.41" y2="378.32"/><line class="p" x1="563.41" y1="378.32" x2="563.41" y2="395.63"/><line class="p" x1="563.41" y1="395.63" x2="582.45" y2="395.63"/><line class="p" x1="582.45" y1="395.63" x2="582.45" y2="378.32"/><line class="p" x1="583.32" y1="376.59" x2="562.54" y2="376.59"/><line class="p" x1="580.72" y1="380.05" x2="565.14" y2="380.05"/><line class="p" x1="565.14" y1="380.05" x2="565.14" y2="392.17"/><line class="p" x1="565.14" y1="392.17" x2="580.72" y2="392.17"/><line class="p" x1="580.72" y1="392.17" x2="580.72" y2="380.05"/><g class="t"><path class="p" d="M573.62,388.71a.69.69,0,1,0-1.38,0,.69.69,0,1,0,1.38,0"/><path class="p" d="M519.1,392.08a3.4,3.4,0,1,0-3.4,3.4,3.4,3.4,0,0,0,3.4-3.4"/></g><line class="p" x1="520.99" y1="397.36" x2="520.99" y2="376.59"/><line class="p" x1="520.99" y1="376.59" x2="500.21" y2="376.59"/><line class="p" x1="500.21" y1="376.59" x2="500.21" y2="397.36"/><g class="t"><path class="p" d="M519.1,381.87a3.4,3.4,0,1,0-3.4,3.4,3.4,3.4,0,0,0,3.4-3.4"/><path class="p" d="M508.9,381.87a3.4,3.4,0,1,0-3.4,3.4,3.4,3.4,0,0,0,3.4-3.4"/></g><line class="p" x1="503.05" y1="375.64" x2="518.16" y2="375.64"/><line class="p" x1="541.77" y1="376.59" x2="541.77" y2="397.71"/><line class="p" x1="541.77" y1="397.71" x2="520.99" y2="397.71"/><line class="p" x1="520.99" y1="397.71" x2="520.99" y2="376.59"/><line class="p" x1="520.99" y1="376.59" x2="541.77" y2="376.59"/><g class="t"><path class="p" d="M537.44,387a6.06,6.06,0,1,0-6.06,6.06,6.05,6.05,0,0,0,6.06-6.06"/><path class="p" d="M536.4,387a5,5,0,1,0-5,5,5,5,0,0,0,5-5"/></g><line class="p" x1="447.23" y1="262.31" x2="350.28" y2="262.31"/><line class="p" x1="607.9" y1="380.4" x2="587.13" y2="380.4"/><line class="p" x1="611.37" y1="397.71" x2="611.37" y2="376.93"/><line class="p" x1="607.9" y1="397.71" x2="607.9" y2="380.4"/><line class="p" x1="611.37" y1="376.93" x2="607.9" y2="376.93"/><line class="p" x1="611.37" y1="376.93" x2="583.67" y2="376.93"/><line class="p" x1="587.13" y1="380.4" x2="587.13" y2="397.71"/><line class="p" x1="607.9" y1="397.71" x2="587.13" y2="397.71"/><line class="p" x1="607.9" y1="380.4" x2="607.9" y2="376.93"/><line class="p" x1="229.42" y1="377.97" x2="194.8" y2="377.97"/><line class="p" x1="214.53" y1="380.4" x2="197.22" y2="380.4"/><line class="p" x1="197.22" y1="380.4" x2="197.22" y2="397.71"/><line class="p" x1="194.8" y1="377.97" x2="194.8" y2="397.71"/><line class="p" x1="89.87" y1="402.73" x2="89.87" y2="402.73"/><line class="p" x1="89.87" y1="402.73" x2="89.87" y2="403.6"/><line class="p" x1="89.87" y1="406.02" x2="89.87" y2="406.02"/><line class="p" x1="298.33" y1="371.74" x2="298.33" y2="347.5"/><line class="p" x1="298.33" y1="371.74" x2="322.57" y2="371.74"/><g class="t"><path class="p" d="M298.33,347.5a24.24,24.24,0,0,1,24.24,24.24"/></g><line class="p" x1="295.91" y1="371.74" x2="298.33" y2="371.74"/><line class="p" x1="298.33" y1="347.5" x2="295.91" y2="347.5"/><line class="p" x1="298.33" y1="347.5" x2="298.33" y2="345.77"/><line class="p" x1="295.91" y1="347.5" x2="295.91" y2="345.77"/><line class="p" x1="298.33" y1="373.47" x2="298.33" y2="371.74"/><line class="p" x1="295.91" y1="373.47" x2="295.91" y2="371.74"/><line class="p" x1="295.91" y1="371.74" x2="295.91" y2="364.81"/><line class="p" x1="295.91" y1="361" x2="295.91" y2="360.22"/><line class="p" x1="295.91" y1="356.42" x2="295.91" y2="355.64"/><line class="p" x1="295.91" y1="354.42" x2="295.91" y2="347.5"/><line class="p" x1="298.33" y1="371.74" x2="299.2" y2="371.74"/><line class="p" x1="299.2" y1="371.74" x2="299.2" y2="375.2"/><line class="p" x1="299.2" y1="375.2" x2="298.33" y2="375.2"/><line class="p" x1="295.91" y1="371.74" x2="295.04" y2="371.74"/><line class="p" x1="295.04" y1="371.74" x2="295.04" y2="375.2"/><line class="p" x1="295.04" y1="375.2" x2="295.91" y2="375.2"/><line class="p" x1="299.2" y1="347.5" x2="299.2" y2="344.04"/><line class="p" x1="299.2" y1="344.04" x2="298.33" y2="344.04"/><line class="p" x1="295.91" y1="347.5" x2="295.04" y2="347.5"/><line class="p" x1="295.04" y1="347.5" x2="295.04" y2="344.04"/><line class="p" x1="295.04" y1="344.04" x2="295.91" y2="344.04"/><line class="p" x1="404.99" y1="402.04" x2="436.15" y2="402.04"/><line class="p" x1="404.99" y1="406.02" x2="436.15" y2="406.02"/><line class="p" x1="404.99" y1="402.04" x2="404.99" y2="370.87"/><g class="t"><path class="p" d="M405,370.87A31.17,31.17,0,0,1,436.15,402"/></g><line class="p" x1="404.99" y1="406.02" x2="404.99" y2="402.04"/><line class="p" x1="436.15" y1="402.04" x2="436.15" y2="406.02"/><line class="p" x1="436.15" y1="402.04" x2="437.88" y2="402.04"/><line class="p" x1="436.15" y1="406.02" x2="437.88" y2="406.02"/><line class="p" x1="403.25" y1="402.04" x2="404.99" y2="402.04"/><line class="p" x1="403.25" y1="406.02" x2="404.99" y2="406.02"/><line class="p" x1="458.66" y1="335.03" x2="458.66" y2="362.74"/><line class="p" x1="458.66" y1="335.03" x2="430.96" y2="335.03"/><g class="t"><path class="p" d="M458.66,362.74A27.71,27.71,0,0,1,431,335"/></g><line class="p" x1="461.08" y1="335.03" x2="458.66" y2="335.03"/><line class="p" x1="458.66" y1="362.74" x2="461.08" y2="362.74"/><line class="p" x1="458.66" y1="362.74" x2="458.66" y2="364.47"/><line class="p" x1="461.08" y1="362.74" x2="461.08" y2="364.47"/><line class="p" x1="458.66" y1="333.3" x2="458.66" y2="335.03"/><line class="p" x1="461.08" y1="333.3" x2="461.08" y2="335.03"/><line class="p" x1="461.08" y1="335.03" x2="461.08" y2="341.96"/><line class="p" x1="461.08" y1="345.77" x2="461.08" y2="346.55"/><line class="p" x1="461.08" y1="350.36" x2="461.08" y2="351.14"/><line class="p" x1="461.08" y1="354.94" x2="461.08" y2="355.81"/><line class="p" x1="461.08" y1="355.81" x2="461.08" y2="362.74"/><line class="p" x1="458.66" y1="335.03" x2="457.79" y2="335.03"/><line class="p" x1="457.79" y1="335.03" x2="457.79" y2="331.57"/><line class="p" x1="457.79" y1="331.57" x2="458.66" y2="331.57"/><line class="p" x1="461.08" y1="335.03" x2="461.95" y2="335.03"/><line class="p" x1="461.95" y1="335.03" x2="461.95" y2="331.57"/><line class="p" x1="461.95" y1="331.57" x2="461.08" y2="331.57"/><line class="p" x1="457.79" y1="362.74" x2="457.79" y2="366.2"/><line class="p" x1="457.79" y1="366.2" x2="458.66" y2="366.2"/><line class="p" x1="461.08" y1="362.74" x2="461.95" y2="362.74"/><line class="p" x1="461.95" y1="362.74" x2="461.95" y2="366.2"/><line class="p" x1="461.95" y1="366.2" x2="461.08" y2="366.2"/><line class="p" x1="700.71" y1="402.73" x2="700.71" y2="402.73"/><line class="p" x1="700.71" y1="402.73" x2="700.71" y2="403.6"/><line class="p" x1="700.71" y1="406.02" x2="700.71" y2="406.02"/><line class="p" x1="298.68" y1="277.9" x2="270.98" y2="277.9"/><line class="p" x1="270.98" y1="277.9" x2="270.98" y2="283.27"/><line class="p" x1="270.98" y1="283.27" x2="298.68" y2="283.27"/><line class="p" x1="298.68" y1="283.27" x2="298.68" y2="277.9"/><line class="p" x1="192.72" y1="277.9" x2="165.02" y2="277.9"/><line class="p" x1="165.02" y1="277.9" x2="165.02" y2="283.27"/><line class="p" x1="165.02" y1="283.27" x2="192.72" y2="283.27"/><line class="p" x1="192.72" y1="283.27" x2="192.72" y2="277.9"/><line class="p" x1="668.85" y1="277.9" x2="627.3" y2="277.9"/><line class="p" x1="627.3" y1="277.9" x2="627.3" y2="283.27"/><line class="p" x1="627.3" y1="283.27" x2="668.85" y2="283.27"/><line class="p" x1="668.85" y1="283.27" x2="668.85" y2="277.9"/><line class="p" x1="513.31" y1="277.9" x2="471.75" y2="277.9"/><line class="p" x1="471.76" y1="277.9" x2="471.76" y2="283.27"/><line class="p" x1="471.76" y1="283.27" x2="513.31" y2="283.27"/><line class="p" x1="513.31" y1="283.27" x2="513.31" y2="277.9"/><g class="t"><path class="p" d="M674,280.58a1.73,1.73,0,1,0-1.73,1.73,1.73,1.73,0,0,0,1.73-1.73"/><path class="p" d="M518.5,280.58a1.73,1.73,0,1,0-1.73,1.73,1.73,1.73,0,0,0,1.73-1.73"/><path class="p" d="M197.91,280.58a1.73,1.73,0,1,0-1.73,1.73,1.73,1.73,0,0,0,1.73-1.73"/><path class="p" d="M303.87,280.58a1.73,1.73,0,1,0-1.73,1.73,1.73,1.73,0,0,0,1.73-1.73"/></g><line class="p" x1="248.12" y1="380.4" x2="248.12" y2="397.71"/><line class="p" x1="245.7" y1="377.97" x2="245.7" y2="397.71"/><line class="p" x1="196.18" y1="262.31" x2="189.26" y2="262.31"/><line class="p" x1="185.45" y1="262.31" x2="184.67" y2="262.31"/><line class="p" x1="180.86" y1="262.31" x2="180.08" y2="262.31"/><line class="p" x1="176.27" y1="262.31" x2="169.35" y2="262.31"/><line class="p" x1="165.54" y1="262.31" x2="164.76" y2="262.31"/><line class="p" x1="160.95" y1="262.31" x2="160.17" y2="262.31"/><line class="p" x1="156.36" y1="262.31" x2="149.43" y2="262.31"/><line class="p" x1="145.62" y1="262.31" x2="144.85" y2="262.31"/><line class="p" x1="141.04" y1="262.31" x2="140.26" y2="262.31"/><line class="p" x1="137.31" y1="262.31" x2="130.39" y2="262.31"/><line class="p" x1="431.65" y1="317.72" x2="424.72" y2="317.72"/><line class="p" x1="420.91" y1="317.72" x2="420.14" y2="317.72"/><line class="p" x1="416.33" y1="317.72" x2="415.55" y2="317.72"/><line class="p" x1="411.74" y1="317.72" x2="404.81" y2="317.72"/><line class="p" x1="401" y1="317.72" x2="400.22" y2="317.72"/><line class="p" x1="396.42" y1="317.72" x2="395.64" y2="317.72"/><line class="p" x1="391.83" y1="317.72" x2="384.9" y2="317.72"/><line class="p" x1="381.09" y1="317.72" x2="380.31" y2="317.72"/><line class="p" x1="376.5" y1="317.72" x2="375.73" y2="317.72"/><line class="p" x1="372.78" y1="317.72" x2="365.86" y2="317.72"/><line class="p" x1="554.58" y1="262.31" x2="547.65" y2="262.31"/><line class="p" x1="543.84" y1="262.31" x2="543.06" y2="262.31"/><line class="p" x1="539.26" y1="262.31" x2="538.48" y2="262.31"/><line class="p" x1="534.67" y1="262.31" x2="527.74" y2="262.31"/><line class="p" x1="523.93" y1="262.31" x2="523.15" y2="262.31"/><line class="p" x1="519.34" y1="262.31" x2="518.57" y2="262.31"/><line class="p" x1="514.76" y1="262.31" x2="507.83" y2="262.31"/><line class="p" x1="504.02" y1="262.31" x2="503.24" y2="262.31"/><line class="p" x1="499.43" y1="262.31" x2="498.65" y2="262.31"/><line class="p" x1="495.71" y1="262.31" x2="488.79" y2="262.31"/><line class="p" x1="658.46" y1="262.31" x2="651.54" y2="262.31"/><line class="p" x1="647.73" y1="262.31" x2="646.95" y2="262.31"/><line class="p" x1="643.14" y1="262.31" x2="642.36" y2="262.31"/><line class="p" x1="638.55" y1="262.31" x2="631.63" y2="262.31"/><line class="p" x1="627.82" y1="262.31" x2="627.04" y2="262.31"/><line class="p" x1="623.23" y1="262.31" x2="622.45" y2="262.31"/><line class="p" x1="618.64" y1="262.31" x2="611.71" y2="262.31"/><line class="p" x1="607.9" y1="262.31" x2="607.13" y2="262.31"/><line class="p" x1="603.32" y1="262.31" x2="602.54" y2="262.31"/><line class="p" x1="599.59" y1="262.31" x2="592.67" y2="262.31"/><line class="p" x1="556.31" y1="276.17" x2="556.31" y2="286.55"/><line class="p" x1="556.31" y1="286.55" x2="521.68" y2="286.55"/><line class="p" x1="521.68" y1="286.55" x2="521.68" y2="276.17"/><line class="p" x1="245.7" y1="380.4" x2="245.7" y2="397.71"/><line class="p" x1="245.7" y1="397.71" x2="218" y2="397.71"/><line class="p" x1="218" y1="397.71" x2="242.24" y2="394.25"/><line class="p" x1="242.24" y1="394.25" x2="245.7" y2="380.39"/><line class="p" x1="398.06" y1="383.86" x2="398.06" y2="397.71"/><line class="p" x1="398.06" y1="397.71" x2="372.09" y2="397.71"/><line class="p" x1="372.09" y1="397.71" x2="394.6" y2="394.25"/><line class="p" x1="394.6" y1="394.25" x2="398.06" y2="383.86"/><line class="p" x1="587.13" y1="397.71" x2="604.12" y2="394.24"/><line class="p" x1="604.12" y1="394.24" x2="607.91" y2="380.4"/><line class="p" x1="607.9" y1="380.4" x2="607.9" y2="397.71"/><line class="p" x1="607.9" y1="397.71" x2="587.13" y2="397.71"/><line class="p" x1="197.22" y1="397.71" x2="210.75" y2="394.24"/><line class="p" x1="210.75" y1="394.24" x2="214.53" y2="380.4"/><line class="p" x1="214.53" y1="380.4" x2="214.53" y2="397.71"/><line class="p" x1="214.53" y1="397.71" x2="197.22" y2="397.71"/><rect class="l" x="566.7" y="284.82" width="13.85" height="58.87"/><line class="p" x1="566.7" y1="343.69" x2="580.55" y2="343.69"/><line class="p" x1="566.7" y1="284.82" x2="566.7" y2="343.69"/><line class="p" x1="580.55" y1="284.82" x2="566.7" y2="284.82"/><line class="p" x1="580.55" y1="343.69" x2="580.55" y2="284.82"/><rect class="l" x="622.86" y="320.32" width="27.7" height="27.7"/><line class="p" x1="622.86" y1="348.02" x2="650.56" y2="348.02"/><line class="p" x1="622.86" y1="320.32" x2="622.86" y2="348.02"/><line class="p" x1="650.56" y1="320.32" x2="622.86" y2="320.32"/><line class="p" x1="650.56" y1="348.02" x2="650.56" y2="320.32"/><rect class="l" x="368.63" y="375.2" width="32.9" height="5.19"/><line class="p" x1="368.63" y1="380.4" x2="401.52" y2="380.4"/><line class="p" x1="368.63" y1="375.2" x2="368.63" y2="380.4"/><line class="p" x1="401.52" y1="375.2" x2="368.63" y2="375.2"/><line class="p" x1="401.52" y1="380.4" x2="401.52" y2="375.2"/><rect class="l" x="248.12" y="392.01" width="41.56" height="5.7"/><line class="p" x1="289.68" y1="397.71" x2="248.12" y2="397.71"/><line class="p" x1="248.12" y1="397.71" x2="248.12" y2="392.01"/><line class="p" x1="248.12" y1="392.01" x2="289.68" y2="392.01"/><line class="p" x1="289.68" y1="392.01" x2="289.68" y2="397.71"/><rect class="l" x="231.85" y="316.33" width="3.46" height="61.64"/><line class="p" x1="235.31" y1="377.97" x2="231.85" y2="377.97"/><line class="p" x1="231.85" y1="377.97" x2="231.85" y2="316.33"/><line class="p" x1="231.85" y1="316.33" x2="235.31" y2="316.33"/><line class="p" x1="235.31" y1="316.33" x2="235.31" y2="377.97"/><rect class="l" x="292.62" y="395.11" width="2.42" height="1.04"/><line class="p" x1="292.62" y1="396.15" x2="292.62" y2="395.11"/><line class="p" x1="292.62" y1="395.11" x2="295.04" y2="395.11"/><line class="p" x1="295.04" y1="395.11" x2="295.04" y2="396.15"/><line class="p" x1="295.04" y1="396.15" x2="292.62" y2="396.15"/><rect class="l" x="291.58" y="375.38" width="1.04" height="20.78"/><line class="p" x1="292.62" y1="396.15" x2="291.58" y2="396.15"/><line class="p" x1="291.58" y1="396.15" x2="291.58" y2="375.37"/><line class="p" x1="291.58" y1="375.38" x2="292.62" y2="375.38"/><line class="p" x1="292.62" y1="375.38" x2="292.62" y2="396.15"/><rect class="l" x="292.62" y="375.38" width="2.42" height="1.04"/><line class="p" x1="295.04" y1="375.38" x2="292.62" y2="375.38"/><line class="p" x1="295.04" y1="376.41" x2="295.04" y2="375.38"/><line class="p" x1="292.62" y1="376.41" x2="295.04" y2="376.41"/><line class="p" x1="292.62" y1="375.38" x2="292.62" y2="376.41"/><rect class="l" x="219.04" y="315.64" width="10.39" height="62.33"/><line class="p" x1="219.04" y1="377.97" x2="219.04" y2="315.64"/><line class="p" x1="219.04" y1="315.64" x2="229.42" y2="315.64"/><line class="p" x1="229.42" y1="315.64" x2="229.42" y2="377.97"/><line class="p" x1="229.42" y1="377.97" x2="219.04" y2="377.97"/><rect class="l" x="611.37" y="376.93" width="81.03" height="20.78"/><line class="p" x1="692.4" y1="397.71" x2="611.37" y2="397.71"/><line class="p" x1="611.37" y1="397.71" x2="611.37" y2="376.93"/><line class="p" x1="611.37" y1="376.93" x2="692.4" y2="376.93"/><line class="p" x1="692.4" y1="376.93" x2="692.4" y2="397.71"/><rect class="l" x="270.98" y="277.9" width="27.7" height="5.37"/><line class="p" x1="298.68" y1="283.27" x2="298.68" y2="277.9"/><line class="p" x1="270.98" y1="283.27" x2="298.68" y2="283.27"/><line class="p" x1="270.98" y1="277.9" x2="270.98" y2="283.27"/><line class="p" x1="298.68" y1="277.9" x2="270.98" y2="277.9"/><polygon class="u" points="303.87 280.58 303.37 281.81 302.14 282.31 300.92 281.81 300.41 280.58 300.92 279.36 302.14 278.85 303.37 279.36 303.87 280.58"/><g class="t"><path class="p" d="M303.87,280.58a1.73,1.73,0,0,1-3.46,0"/><path class="p" d="M300.41,280.58a1.73,1.73,0,0,1,3.46,0"/></g><rect class="l" x="165.02" y="277.9" width="27.7" height="5.37"/><line class="p" x1="192.72" y1="283.27" x2="192.72" y2="277.9"/><line class="p" x1="165.02" y1="283.27" x2="192.72" y2="283.27"/><line class="p" x1="165.02" y1="277.9" x2="165.02" y2="283.27"/><line class="p" x1="192.72" y1="277.9" x2="165.02" y2="277.9"/><polygon class="u" points="197.91 280.58 197.41 281.81 196.18 282.31 194.96 281.81 194.45 280.58 194.96 279.36 196.18 278.85 197.41 279.36 197.91 280.58"/><g class="t"><path class="p" d="M197.91,280.58a1.73,1.73,0,1,1-3.46,0"/><path class="p" d="M194.45,280.58a1.73,1.73,0,0,1,3.46,0"/></g><polygon class="u" points="518.5 280.58 517.99 281.81 516.77 282.31 515.55 281.81 515.04 280.58 515.55 279.36 516.77 278.85 517.99 279.36 518.5 280.58"/><g class="t"><path class="p" d="M518.5,280.58a1.73,1.73,0,0,1-3.46,0"/><path class="p" d="M515,280.58a1.73,1.73,0,0,1,3.46,0"/></g><rect class="l" x="471.76" y="277.9" width="41.55" height="5.37"/><line class="p" x1="513.31" y1="283.27" x2="513.31" y2="277.9"/><line class="p" x1="471.76" y1="283.27" x2="513.31" y2="283.27"/><line class="p" x1="471.76" y1="277.9" x2="471.76" y2="283.27"/><line class="p" x1="513.31" y1="277.9" x2="471.75" y2="277.9"/><rect class="l" x="627.3" y="277.9" width="41.55" height="5.37"/><line class="p" x1="668.85" y1="283.27" x2="668.85" y2="277.9"/><line class="p" x1="627.3" y1="283.27" x2="668.85" y2="283.27"/><line class="p" x1="627.3" y1="277.9" x2="627.3" y2="283.27"/><line class="p" x1="668.85" y1="277.9" x2="627.3" y2="277.9"/><polygon class="u" points="674.04 280.58 673.54 281.81 672.31 282.31 671.09 281.81 670.58 280.58 671.09 279.36 672.31 278.85 673.54 279.36 674.04 280.58"/><g class="t"><path class="p" d="M674,280.58a1.73,1.73,0,1,1-3.46,0"/><path class="p" d="M670.58,280.58a1.73,1.73,0,0,1,3.46,0"/></g><polygon class="u" points="574.86 309.26 576.25 310.97 576.99 313.11 576.99 315.41 576.25 317.55 574.86 319.26 574.86 330.05 572.94 330.05 571.02 322.16 571.02 319.85 569.97 316.18 569.97 312.33 571.02 308.67 571.02 306.37 572.94 298.47 574.86 298.47 574.86 309.26"/><line class="p" x1="574.86" y1="309.26" x2="576.25" y2="310.97"/><line class="p" x1="576.25" y1="310.97" x2="576.99" y2="313.11"/><line class="p" x1="576.99" y1="313.11" x2="576.99" y2="315.41"/><line class="p" x1="576.99" y1="315.41" x2="576.25" y2="317.55"/><line class="p" x1="576.25" y1="317.55" x2="574.86" y2="319.26"/><line class="p" x1="574.86" y1="319.26" x2="574.86" y2="330.05"/><line class="p" x1="574.86" y1="330.05" x2="572.94" y2="330.05"/><line class="p" x1="572.94" y1="330.05" x2="571.02" y2="322.16"/><line class="p" x1="571.02" y1="322.16" x2="571.02" y2="319.85"/><line class="p" x1="571.02" y1="319.85" x2="569.97" y2="316.18"/><line class="p" x1="569.97" y1="316.18" x2="569.97" y2="312.33"/><line class="p" x1="569.97" y1="312.33" x2="571.02" y2="308.66"/><line class="p" x1="571.02" y1="308.66" x2="571.02" y2="306.36"/><line class="p" x1="571.02" y1="306.36" x2="572.94" y2="298.47"/><line class="p" x1="572.94" y1="298.47" x2="574.86" y2="298.47"/><line class="p" x1="574.86" y1="298.47" x2="574.86" y2="309.26"/><line class="p" x1="574.86" y1="298.47" x2="574.86" y2="330.05"/><line class="p" x1="571.02" y1="322.16" x2="571.02" y2="306.37"/><line class="p" x1="572.94" y1="298.47" x2="574.86" y2="298.47"/><line class="p" x1="574.09" y1="327.94" x2="574.09" y2="325.84"/><line class="p" x1="574.09" y1="325.84" x2="573.61" y2="325.84"/><line class="p" x1="573.61" y1="325.84" x2="573.61" y2="327.95"/><line class="p" x1="573.61" y1="327.94" x2="574.09" y2="327.94"/><line class="p" x1="574.09" y1="325.31" x2="574.09" y2="323.21"/><line class="p" x1="574.09" y1="323.21" x2="573.61" y2="323.21"/><line class="p" x1="573.61" y1="323.21" x2="573.61" y2="325.31"/><line class="p" x1="573.61" y1="325.31" x2="574.09" y2="325.31"/><line class="p" x1="572.94" y1="298.47" x2="572.94" y2="330.05"/><line class="p" x1="573.61" y1="322.68" x2="574.09" y2="322.68"/><line class="p" x1="574.09" y1="322.68" x2="574.09" y2="321.63"/><line class="p" x1="574.09" y1="321.63" x2="573.61" y2="321.63"/><line class="p" x1="573.61" y1="321.63" x2="573.61" y2="322.68"/><g class="t"><path class="p" d="M574.86,309.26a6.72,6.72,0,0,1,0,10"/></g><rect class="l" x="489.15" y="287.55" width="27.7" height="48.48"/><line class="p" x1="516.85" y1="336.03" x2="489.15" y2="336.03"/><line class="p" x1="489.15" y1="336.03" x2="489.15" y2="287.55"/><line class="p" x1="489.15" y1="287.55" x2="516.85" y2="287.55"/><line class="p" x1="516.85" y1="287.55" x2="516.85" y2="336.03"/><polygon class="u" points="517.89 316.98 517.89 330.83 530.7 330.83 532.43 330.37 533.7 329.1 534.16 327.37 534.16 320.44 533.7 318.71 532.43 317.45 530.7 316.98 517.89 316.98"/><polygon class="u" points="517.89 292.74 517.89 306.59 530.7 306.59 532.43 306.13 533.7 304.86 534.16 303.13 534.16 296.2 533.7 294.47 532.43 293.21 530.7 292.74 517.89 292.74"/><polygon class="u" points="488.11 316.98 475.3 316.98 473.57 317.45 472.3 318.71 471.83 320.44 471.83 327.37 472.3 329.1 473.57 330.37 475.3 330.83 488.11 330.83 488.11 316.98"/><polygon class="u" points="488.11 292.74 475.3 292.74 473.57 293.21 472.3 294.47 471.83 296.2 471.83 303.13 472.3 304.86 473.57 306.13 475.3 306.59 488.11 306.59 488.11 292.74"/><line class="p" x1="532.43" y1="320.44" x2="532.43" y2="327.37"/><line class="p" x1="530.7" y1="330.83" x2="517.89" y2="330.83"/><line class="p" x1="534.17" y1="320.44" x2="534.17" y2="327.37"/><line class="p" x1="517.89" y1="316.98" x2="530.7" y2="316.98"/><line class="p" x1="517.89" y1="330.83" x2="517.89" y2="316.98"/><line class="p" x1="532.43" y1="296.21" x2="532.43" y2="303.13"/><line class="p" x1="530.7" y1="306.59" x2="517.89" y2="306.59"/><line class="p" x1="534.17" y1="296.21" x2="534.17" y2="303.13"/><line class="p" x1="517.89" y1="292.74" x2="530.7" y2="292.74"/><line class="p" x1="517.89" y1="306.59" x2="517.89" y2="292.74"/><line class="p" x1="473.57" y1="320.44" x2="473.57" y2="327.37"/><line class="p" x1="475.3" y1="330.83" x2="488.11" y2="330.83"/><line class="p" x1="471.84" y1="320.44" x2="471.84" y2="327.37"/><line class="p" x1="488.11" y1="316.98" x2="475.3" y2="316.98"/><line class="p" x1="488.11" y1="330.83" x2="488.11" y2="316.98"/><line class="p" x1="473.57" y1="296.21" x2="473.57" y2="303.13"/><line class="p" x1="475.3" y1="306.59" x2="488.11" y2="306.59"/><line class="p" x1="471.84" y1="296.21" x2="471.84" y2="303.13"/><line class="p" x1="488.11" y1="292.74" x2="475.3" y2="292.74"/><line class="p" x1="488.11" y1="306.59" x2="488.11" y2="292.74"/><g class="t"><path class="p" d="M532.43,327.37a1.72,1.72,0,0,1-1.73,1.73"/><path class="p" d="M530.7,318.71a1.73,1.73,0,0,1,1.73,1.73"/><path class="p" d="M534.17,327.37a3.47,3.47,0,0,1-3.47,3.46"/><path class="p" d="M530.7,317a3.47,3.47,0,0,1,3.47,3.46"/><path class="p" d="M532.43,303.13a1.72,1.72,0,0,1-1.73,1.73"/><path class="p" d="M530.7,294.47a1.73,1.73,0,0,1,1.73,1.73"/><path class="p" d="M534.17,303.13a3.47,3.47,0,0,1-3.47,3.46"/><path class="p" d="M530.7,292.74a3.47,3.47,0,0,1,3.47,3.46"/><path class="p" d="M475.3,329.1a1.72,1.72,0,0,1-1.73-1.73"/><path class="p" d="M473.57,320.44a1.73,1.73,0,0,1,1.73-1.73"/><path class="p" d="M475.3,330.83a3.46,3.46,0,0,1-3.46-3.46"/><path class="p" d="M471.84,320.44A3.46,3.46,0,0,1,475.3,317"/><path class="p" d="M475.3,304.86a1.72,1.72,0,0,1-1.73-1.73"/><path class="p" d="M473.57,296.21a1.73,1.73,0,0,1,1.73-1.74"/><path class="p" d="M475.3,306.59a3.46,3.46,0,0,1-3.46-3.46"/><path class="p" d="M471.84,296.21a3.46,3.46,0,0,1,3.46-3.47"/></g><polygon class="u" points="659.88 312.56 659.38 312.94 659.19 313.54 659.19 351.28 659.38 351.91 659.88 352.32 659.39 352.53 659.19 353.01 659.19 354.06 659.66 355.79 660.92 357.05 662.66 357.52 687.93 357.52 688.42 357.31 688.63 356.82 688.63 285.49 688.42 285 687.93 284.8 659.88 284.8 659.43 284.95 659.16 285.36 659.19 285.84 659.19 311.46 659.25 312.19 659.88 312.56"/><polygon class="u" points="636.68 312.5 634.03 311.97 631.79 310.47 630.28 308.23 629.76 305.58 629.76 291.73 630.28 289.07 631.79 286.83 634.03 285.33 636.68 284.8 658.15 284.8 658.89 285.1 659.19 285.84 659.19 311.46 658.89 312.2 658.15 312.5 636.68 312.5"/><g class="t"><path class="p" d="M636.69,312.5a6.92,6.92,0,0,1-6.93-6.92"/></g><line class="p" x1="629.76" y1="305.58" x2="629.76" y2="291.73"/><g class="t"><path class="p" d="M629.76,291.72a6.92,6.92,0,0,1,6.92-6.92"/></g><line class="p" x1="636.69" y1="284.8" x2="658.15" y2="284.8"/><g class="t"><path class="p" d="M658.15,284.8a1,1,0,0,1,1,1"/></g><line class="p" x1="659.19" y1="285.84" x2="659.19" y2="311.46"/><g class="t"><path class="p" d="M659.19,311.46a1,1,0,0,1-1,1"/></g><line class="p" x1="658.15" y1="312.5" x2="636.69" y2="312.5"/><line class="p" x1="659.19" y1="353.02" x2="659.19" y2="354.06"/><line class="p" x1="662.66" y1="357.52" x2="687.93" y2="357.52"/><line class="p" x1="688.63" y1="356.82" x2="688.63" y2="353.02"/><line class="p" x1="687.93" y1="352.32" x2="659.88" y2="352.32"/><line class="p" x1="688.63" y1="353.02" x2="688.63" y2="312.5"/><line class="p" x1="688.63" y1="312.5" x2="686.2" y2="312.5"/><line class="p" x1="659.19" y1="313.54" x2="659.19" y2="351.28"/><line class="p" x1="660.23" y1="352.32" x2="677.59" y2="352.32"/><line class="p" x1="677.59" y1="312.5" x2="660.23" y2="312.5"/><line class="p" x1="686.2" y1="352.32" x2="679.67" y2="352.32"/><line class="p" x1="679.67" y1="312.5" x2="686.2" y2="312.5"/><line class="p" x1="659.19" y1="289.3" x2="659.19" y2="285.49"/><line class="p" x1="659.88" y1="284.8" x2="687.93" y2="284.8"/><line class="p" x1="688.63" y1="285.49" x2="688.63" y2="289.3"/><line class="p" x1="688.63" y1="289.3" x2="688.63" y2="312.5"/><line class="p" x1="688.63" y1="312.5" x2="686.2" y2="312.5"/><line class="p" x1="659.19" y1="311.46" x2="659.19" y2="291.03"/><line class="p" x1="677.59" y1="312.5" x2="660.23" y2="312.5"/><line class="p" x1="677.59" y1="312.5" x2="686.2" y2="312.5"/><line class="p" x1="629.76" y1="305.58" x2="629.76" y2="291.73"/><line class="p" x1="636.69" y1="284.8" x2="658.15" y2="284.8"/><line class="p" x1="659.19" y1="285.84" x2="659.19" y2="311.46"/><line class="p" x1="658.15" y1="312.5" x2="636.69" y2="312.5"/><line class="p" x1="687.24" y1="311.46" x2="687.24" y2="285.84"/><line class="p" x1="687.24" y1="313.54" x2="687.24" y2="351.28"/><g class="t"><path class="p" d="M688.63,356.82a.7.7,0,0,1-.7.7"/><path class="p" d="M687.93,352.32a.7.7,0,0,1,.7.7"/><path class="p" d="M659.19,353a.69.69,0,0,1,.69-.7"/><path class="p" d="M660.23,352.32a1,1,0,0,1-1-1"/><path class="p" d="M659.19,313.54a1,1,0,0,1,1-1"/><path class="p" d="M659.19,285.49a.69.69,0,0,1,.69-.69"/><path class="p" d="M687.93,284.8a.7.7,0,0,1,.7.69"/><path class="p" d="M660.23,312.5a1,1,0,0,1-1-1"/><path class="p" d="M658.15,284.8a1,1,0,0,1,1,1"/><path class="p" d="M659.19,311.46a1,1,0,0,1-1,1"/></g><line class="p" x1="687.24" y1="285.84" x2="663.65" y2="285.84"/><g class="t"><path class="p" d="M668.42,287.09a19.62,19.62,0,0,1,14.79,24.41"/><path class="p" d="M682.39,351.28a118.66,118.66,0,0,1,0-37.74"/><path class="p" d="M636.69,312.5a6.92,6.92,0,0,1-6.93-6.92"/><path class="p" d="M629.76,291.72a6.92,6.92,0,0,1,6.92-6.92"/><path class="p" d="M662.66,357.52a3.47,3.47,0,0,1-3.47-3.47"/></g><rect class="l" x="298.33" y="375.2" width="70.29" height="22.51"/><line class="p" x1="368.63" y1="397.71" x2="298.33" y2="397.71"/><line class="p" x1="298.33" y1="397.71" x2="298.33" y2="375.2"/><line class="p" x1="298.33" y1="375.2" x2="368.63" y2="375.2"/><line class="p" x1="368.63" y1="375.2" x2="368.63" y2="397.71"/><line class="p" x1="365.11" y1="386.46" x2="301.85" y2="386.46"/><line class="p" x1="361.85" y1="393.08" x2="355.91" y2="379.59"/><line class="p" x1="355.15" y1="393.75" x2="352.69" y2="381.21"/><line class="p" x1="346" y1="378.34" x2="343.97" y2="392.11"/><line class="p" x1="335.62" y1="380.15" x2="338.37" y2="392.11"/><line class="p" x1="331.85" y1="379.46" x2="331.85" y2="394.2"/><line class="p" x1="321.17" y1="379.4" x2="323.7" y2="393.96"/><line class="p" x1="317.16" y1="379.64" x2="317.16" y2="392.94"/><line class="p" x1="306.62" y1="379.5" x2="304.6" y2="393.15"/><line class="p" x1="309.16" y1="380.43" x2="311.22" y2="391.96"/><polygon class="u" points="235.31 351.73 235.31 369.73 235.46 370.11 235.83 370.25 250.03 370.25 250.4 370.11 250.55 369.73 250.55 351.73 250.4 351.36 250.03 351.21 235.83 351.21 235.46 351.36 235.31 351.73"/><g class="t"><path class="p" d="M235.31,351.73a.52.52,0,0,1,.52-.52"/></g><line class="p" x1="250.03" y1="351.21" x2="235.83" y2="351.21"/><g class="t"><path class="p" d="M250,351.21a.52.52,0,0,1,.52.52"/></g><line class="p" x1="250.55" y1="369.73" x2="250.55" y2="351.73"/><g class="t"><path class="p" d="M250.55,369.73a.52.52,0,0,1-.52.52"/></g><line class="p" x1="235.83" y1="370.25" x2="250.03" y2="370.25"/><g class="t"><path class="p" d="M235.83,370.25a.52.52,0,0,1-.52-.52"/></g><line class="p" x1="235.31" y1="351.73" x2="235.31" y2="369.73"/><line class="p" x1="239.12" y1="352.77" x2="239.12" y2="368.69"/><line class="p" x1="239.64" y1="369.21" x2="248.99" y2="369.21"/><line class="p" x1="249.51" y1="368.69" x2="249.51" y2="352.77"/><line class="p" x1="248.99" y1="352.25" x2="239.64" y2="352.25"/><g class="t"><path class="p" d="M239.64,369.21a.52.52,0,0,1-.52-.52"/><path class="p" d="M249.51,368.69a.52.52,0,0,1-.52.52"/><path class="p" d="M249,352.25a.52.52,0,0,1,.52.52"/><path class="p" d="M239.12,352.77a.52.52,0,0,1,.52-.52"/></g><polygon class="u" points="237.39 359.86 238.84 360 239.17 360.12 241 360.35 241.25 360.47 241.34 360.73 241.25 360.99 241 361.11 239.17 361.35 238.84 361.46 237.39 361.6 236.78 361.34 236.52 360.73 236.78 360.12 237.39 359.86"/><line class="p" x1="237.39" y1="359.86" x2="238.84" y2="360"/><g class="t"><path class="p" d="M238.84,360a.93.93,0,0,1,.33.12"/></g><line class="p" x1="239.17" y1="360.12" x2="241" y2="360.35"/><g class="t"><path class="p" d="M241,360.35a.38.38,0,0,1,.34.38.37.37,0,0,1-.34.38"/></g><line class="p" x1="241" y1="361.11" x2="239.17" y2="361.35"/><g class="t"><path class="p" d="M239.17,361.35a.76.76,0,0,1-.33.11"/></g><line class="p" x1="238.84" y1="361.46" x2="237.39" y2="361.6"/><g class="t"><path class="p" d="M237.39,361.6a.87.87,0,1,1,0-1.74"/></g><line class="p" x1="238.25" y1="361.2" x2="238.77" y2="361.2"/><line class="p" x1="238.77" y1="360.26" x2="238.25" y2="360.26"/><line class="p" x1="238.25" y1="360.26" x2="238.25" y2="361.2"/><g class="t"><path class="p" d="M238.77,360.26a.47.47,0,1,1,0,.94"/><path class="p" d="M239.17,360.12a.73.73,0,0,1,.34.61.75.75,0,0,1-.34.62"/></g><rect class="l" x="98.19" y="276.17" width="20.08" height="40.51"/><line class="p" x1="98.18" y1="316.68" x2="98.18" y2="276.17"/><line class="p" x1="98.18" y1="276.17" x2="118.27" y2="276.17"/><line class="p" x1="118.27" y1="276.17" x2="118.27" y2="316.68"/><line class="p" x1="118.27" y1="316.68" x2="98.18" y2="316.68"/><line class="p" x1="108.23" y1="314.65" x2="108.23" y2="278.19"/><line class="p" x1="102.32" y1="312.77" x2="114.35" y2="309.35"/><line class="p" x1="101.72" y1="308.91" x2="112.91" y2="307.5"/><line class="p" x1="115.47" y1="303.64" x2="103.18" y2="302.47"/><line class="p" x1="113.86" y1="297.66" x2="103.18" y2="299.24"/><line class="p" x1="114.47" y1="295.49" x2="101.32" y2="295.49"/><line class="p" x1="114.53" y1="289.33" x2="101.53" y2="290.79"/><line class="p" x1="114.31" y1="287.02" x2="102.44" y2="287.02"/><line class="p" x1="114.43" y1="280.94" x2="102.26" y2="279.78"/><line class="p" x1="113.6" y1="282.41" x2="103.31" y2="283.59"/><line class="p" x1="89.87" y1="276.17" x2="89.87" y2="276.17"/><line class="p" x1="89.87" y1="276.17" x2="89.87" y2="296.94"/><line class="p" x1="89.87" y1="296.94" x2="89.87" y2="296.94"/><rect class="l" x="98.19" y="316.68" width="20.08" height="40.51"/><line class="p" x1="98.18" y1="357.19" x2="98.18" y2="316.68"/><line class="p" x1="98.18" y1="316.68" x2="118.27" y2="316.68"/><line class="p" x1="118.27" y1="316.68" x2="118.27" y2="357.19"/><line class="p" x1="118.27" y1="357.19" x2="98.18" y2="357.19"/><line class="p" x1="108.23" y1="355.17" x2="108.23" y2="318.71"/><line class="p" x1="102.32" y1="353.29" x2="114.35" y2="349.86"/><line class="p" x1="101.72" y1="349.42" x2="112.91" y2="348.01"/><line class="p" x1="115.47" y1="344.15" x2="103.18" y2="342.98"/><line class="p" x1="113.86" y1="338.17" x2="103.18" y2="339.76"/><line class="p" x1="114.47" y1="336" x2="101.32" y2="336"/><line class="p" x1="114.53" y1="329.84" x2="101.53" y2="331.3"/><line class="p" x1="114.31" y1="327.53" x2="102.44" y2="327.53"/><line class="p" x1="114.43" y1="321.46" x2="102.26" y2="320.29"/><line class="p" x1="113.6" y1="322.92" x2="103.31" y2="324.11"/><rect class="l" x="98.19" y="357.2" width="20.08" height="40.52"/><line class="p" x1="98.18" y1="397.71" x2="98.18" y2="357.2"/><line class="p" x1="98.18" y1="357.19" x2="118.27" y2="357.19"/><line class="p" x1="118.27" y1="357.19" x2="118.27" y2="397.71"/><line class="p" x1="118.27" y1="397.71" x2="98.18" y2="397.71"/><line class="p" x1="108.23" y1="395.68" x2="108.23" y2="359.22"/><line class="p" x1="102.32" y1="393.8" x2="114.35" y2="390.38"/><line class="p" x1="101.72" y1="389.94" x2="112.91" y2="388.53"/><line class="p" x1="115.47" y1="384.67" x2="103.18" y2="383.5"/><line class="p" x1="113.86" y1="378.69" x2="103.18" y2="380.27"/><line class="p" x1="114.47" y1="376.51" x2="101.32" y2="376.51"/><line class="p" x1="114.53" y1="370.35" x2="101.53" y2="371.82"/><line class="p" x1="114.31" y1="368.05" x2="102.44" y2="368.05"/><line class="p" x1="114.43" y1="361.97" x2="102.26" y2="360.81"/><line class="p" x1="113.6" y1="363.44" x2="103.31" y2="364.62"/><polygon class="u" points="219.04 315.64 156.68 315.64 155.96 315.68 155.24 315.8 154.55 315.98 153.87 316.24 153.23 316.57 152.62 316.96 152.06 317.42 151.55 317.94 151.1 318.5 150.7 319.11 150.38 319.75 150.12 320.43 149.93 321.13 149.82 321.84 149.78 322.57 149.78 371.05 149.82 371.77 149.93 372.49 150.12 373.19 150.38 373.87 150.7 374.51 151.1 375.12 151.55 375.68 152.06 376.19 152.62 376.65 153.23 377.05 153.87 377.37 154.55 377.63 155.24 377.82 155.96 377.94 156.68 377.97 208.41 377.97 219.04 377.97 219.04 315.64"/><line class="p" x1="207.57" y1="348.77" x2="210.55" y2="349.6"/><line class="p" x1="207.57" y1="319.69" x2="210.55" y2="320.52"/><line class="p" x1="149.78" y1="371.05" x2="149.78" y2="322.57"/><line class="p" x1="156.68" y1="315.64" x2="219.04" y2="315.64"/><line class="p" x1="219.04" y1="315.64" x2="219.04" y2="377.97"/><line class="p" x1="219.04" y1="377.97" x2="156.68" y2="377.97"/><line class="p" x1="208.69" y1="315.64" x2="219.04" y2="315.64"/><line class="p" x1="219.04" y1="377.97" x2="208.69" y2="377.97"/><line class="p" x1="196.09" y1="315.64" x2="196.09" y2="377.97"/><line class="p" x1="190.91" y1="315.64" x2="190.91" y2="377.97"/><g class="t"><path class="p" d="M201.66,321.61a98.73,98.73,0,0,1,.49,9.88,96.25,96.25,0,0,1-.84,12.69"/><path class="p" d="M201.66,321.61a1.75,1.75,0,0,1,0-.4,1.84,1.84,0,0,1,1.84-1.85h.1"/><path class="p" d="M203.55,319.36l.83,0a14.76,14.76,0,0,1,3.18.35"/><path class="p" d="M207.57,319.69a50.92,50.92,0,0,1,5.24-.25c.82,0,1.64,0,2.46.05"/><path class="p" d="M215.27,319.49h.11a.38.38,0,0,1,.39.39.19.19,0,0,1,0,.08"/><path class="p" d="M215.43,344.25c-.16-3.18-.23-6.36-.23-9.54,0-4.92.19-9.85.56-14.76"/><path class="p" d="M215.42,344.25a.76.76,0,0,1,0,.21,1,1,0,0,1-1,1,1.06,1.06,0,0,1-.31-.05"/><path class="p" d="M202.3,345.19a.91.91,0,0,1-.23,0,.79.79,0,0,1-.79-.8.67.67,0,0,1,0-.24"/><path class="p" d="M149.78,322.57h0a6.91,6.91,0,0,1,6.9-6.92"/><path class="p" d="M156.68,378h0a6.9,6.9,0,0,1-6.89-6.92"/><path class="p" d="M201.66,350.69a98.47,98.47,0,0,1-.34,22.57"/><path class="p" d="M201.66,350.69a1.83,1.83,0,0,1,0-.4,1.85,1.85,0,0,1,1.85-1.85h.1"/><path class="p" d="M203.55,348.44c.28,0,.56,0,.83,0a14.24,14.24,0,0,1,3.19.35"/><path class="p" d="M207.57,348.77c1.74-.17,3.49-.26,5.24-.26q1.23,0,2.46.06"/><path class="p" d="M215.27,348.57l.11,0a.39.39,0,0,1,.39.4V349"/><path class="p" d="M215.43,373.33c-.16-3.18-.23-6.36-.23-9.54q0-7.4.57-14.76"/><path class="p" d="M215.42,373.33a.64.64,0,0,1,0,.2,1,1,0,0,1-1,1,1.06,1.06,0,0,1-.31-.05"/><path class="p" d="M202.29,374.26a46.13,46.13,0,0,1,11.89.18"/><path class="p" d="M202.29,374.26a.54.54,0,0,1-.22,0,.79.79,0,0,1-.79-.8.88.88,0,0,1,0-.24"/><path class="p" d="M202.29,345.19a46.9,46.9,0,0,1,5.29-.3,45.49,45.49,0,0,1,6.6.48"/></g><polygon class="u" points="266.13 392.01 278.94 392.01 278.94 380.59 278.68 378.87 277.9 377.33 276.69 376.09 274.73 375.05 272.54 374.7 270.35 375.05 268.38 376.09 267.17 377.33 266.39 378.87 266.13 380.59 266.13 392.01"/><line class="p" x1="278.94" y1="392.01" x2="278.94" y2="380.59"/><line class="p" x1="278.94" y1="392.01" x2="266.13" y2="392.01"/><line class="p" x1="266.13" y1="392.01" x2="266.13" y2="380.59"/><line class="p" x1="276.86" y1="387.86" x2="276.86" y2="380.59"/><line class="p" x1="268.21" y1="387.86" x2="268.21" y2="380.59"/><line class="p" x1="268.21" y1="387.86" x2="276.86" y2="387.86"/><g class="t"><path class="p" d="M276.69,376.09a5.6,5.6,0,0,1,2.25,4.5"/><path class="p" d="M266.13,380.59a5.63,5.63,0,0,1,2.25-4.51"/><path class="p" d="M268.38,376.09a6.91,6.91,0,0,1,8.31,0"/><path class="p" d="M266.13,380.59a5.63,5.63,0,0,1,2.25-4.51"/><path class="p" d="M268.38,376.09a6.93,6.93,0,0,1,4.15-1.39"/><path class="p" d="M268.21,380.59a3.53,3.53,0,0,1,1.42-2.84"/><path class="p" d="M269.63,377.75a4.84,4.84,0,0,1,5.81,0"/><path class="p" d="M275.44,377.75a3.53,3.53,0,0,1,1.42,2.84"/></g><line class="p" x1="312.18" y1="406.02" x2="312.18" y2="406.02"/><line class="p" x1="439.61" y1="397.71" x2="432.69" y2="397.71"/><line class="p" x1="428.88" y1="397.71" x2="428.1" y2="397.71"/><line class="p" x1="424.29" y1="397.71" x2="423.51" y2="397.71"/><line class="p" x1="419.7" y1="397.71" x2="412.78" y2="397.71"/><line class="p" x1="408.97" y1="397.71" x2="408.45" y2="397.71"/><line class="p" x1="408.45" y1="397.71" x2="401.52" y2="397.71"/><line class="p" x1="248.12" y1="397.21" x2="248.12" y2="393.74"/><line class="p" x1="248.12" y1="392.01" x2="289.68" y2="392.01"/><line class="p" x1="289.68" y1="393.74" x2="289.68" y2="397.71"/><line class="p" x1="89.87" y1="262.31" x2="94.03" y2="262.31"/><line class="p" x1="94.03" y1="262.31" x2="95.41" y2="262.31"/><line class="p" x1="95.41" y1="262.31" x2="130.39" y2="262.31"/><line class="p" x1="130.39" y1="262.31" x2="137.31" y2="262.31"/><line class="p" x1="141.12" y1="262.31" x2="141.9" y2="262.31"/><line class="p" x1="145.71" y1="262.31" x2="146.49" y2="262.31"/><line class="p" x1="150.3" y1="262.31" x2="157.22" y2="262.31"/><line class="p" x1="161.03" y1="262.31" x2="161.81" y2="262.31"/><line class="p" x1="165.62" y1="262.31" x2="166.4" y2="262.31"/><line class="p" x1="170.21" y1="262.31" x2="177.14" y2="262.31"/><line class="p" x1="180.95" y1="262.31" x2="181.72" y2="262.31"/><line class="p" x1="185.53" y1="262.31" x2="186.31" y2="262.31"/><line class="p" x1="189.26" y1="262.31" x2="196.18" y2="262.31"/><line class="p" x1="196.18" y1="262.31" x2="268.9" y2="262.31"/><line class="p" x1="268.9" y1="262.31" x2="300.06" y2="262.31"/><line class="p" x1="300.06" y1="262.31" x2="316.51" y2="262.31"/><line class="p" x1="316.51" y1="262.31" x2="350.28" y2="262.31"/><line class="p" x1="350.28" y1="262.31" x2="350.28" y2="317.72"/><line class="p" x1="350.28" y1="317.72" x2="365.86" y2="317.72"/><line class="p" x1="365.86" y1="317.72" x2="431.65" y2="317.72"/><line class="p" x1="431.65" y1="317.72" x2="447.23" y2="317.72"/><line class="p" x1="447.23" y1="317.72" x2="447.23" y2="262.32"/><line class="p" x1="447.23" y1="262.31" x2="488.79" y2="262.31"/><line class="p" x1="488.79" y1="262.31" x2="495.71" y2="262.31"/><line class="p" x1="499.52" y1="262.31" x2="500.3" y2="262.31"/><line class="p" x1="504.11" y1="262.31" x2="504.89" y2="262.31"/><line class="p" x1="508.7" y1="262.31" x2="515.62" y2="262.31"/><line class="p" x1="519.43" y1="262.31" x2="520.21" y2="262.31"/><line class="p" x1="524.02" y1="262.31" x2="524.8" y2="262.31"/><line class="p" x1="528.61" y1="262.31" x2="535.53" y2="262.31"/><line class="p" x1="539.34" y1="262.31" x2="540.12" y2="262.31"/><line class="p" x1="543.93" y1="262.31" x2="544.71" y2="262.31"/><line class="p" x1="547.65" y1="262.31" x2="554.58" y2="262.31"/><line class="p" x1="554.58" y1="262.31" x2="592.67" y2="262.31"/><line class="p" x1="592.67" y1="262.31" x2="599.59" y2="262.31"/><line class="p" x1="603.4" y1="262.31" x2="604.18" y2="262.31"/><line class="p" x1="607.99" y1="262.31" x2="608.77" y2="262.31"/><line class="p" x1="612.58" y1="262.31" x2="619.5" y2="262.31"/><line class="p" x1="623.31" y1="262.31" x2="624.09" y2="262.31"/><line class="p" x1="627.9" y1="262.31" x2="628.68" y2="262.31"/><line class="p" x1="632.49" y1="262.31" x2="639.42" y2="262.31"/><line class="p" x1="643.23" y1="262.31" x2="644" y2="262.31"/><line class="p" x1="647.81" y1="262.31" x2="648.59" y2="262.31"/><line class="p" x1="651.54" y1="262.31" x2="658.46" y2="262.31"/><line class="p" x1="658.46" y1="262.31" x2="665.39" y2="262.31"/><line class="p" x1="669.2" y1="262.31" x2="669.98" y2="262.31"/><line class="p" x1="673.78" y1="262.31" x2="674.56" y2="262.31"/><line class="p" x1="678.37" y1="262.31" x2="685.3" y2="262.31"/><line class="p" x1="689.11" y1="262.31" x2="689.89" y2="262.31"/><line class="p" x1="693.7" y1="262.31" x2="693.78" y2="262.31"/><line class="p" x1="693.78" y1="262.31" x2="696.55" y2="262.31"/><line class="p" x1="696.55" y1="262.31" x2="700.71" y2="262.31"/><line class="p" x1="696.55" y1="227.69" x2="342.93" y2="227.69"/><line class="p" x1="337.19" y1="227.69" x2="95.41" y2="227.69"/><line class="p" x1="95.41" y1="227.69" x2="94.03" y2="227.69"/><g class="t"><path class="p" d="M342.93,227.69a5.18,5.18,0,0,1,2.32,4.33"/><path class="p" d="M345.25,232a5.19,5.19,0,1,1-10.38,0"/><path class="p" d="M334.87,232a5.19,5.19,0,0,1,2.32-4.33"/></g><line class="p" x1="554.64" y1="390.56" x2="554.64" y2="384.76"/><line class="p" x1="554.64" y1="384.76" x2="552.29" y2="386.66"/><line class="p" x1="552.29" y1="386.66" x2="549.93" y2="384.76"/><line class="p" x1="549.93" y1="384.76" x2="549.93" y2="390.56"/><line class="p" x1="94.03" y1="262.31" x2="89.87" y2="262.31"/><line class="p" x1="89.87" y1="262.31" x2="89.87" y2="406.02"/><line class="p" x1="89.87" y1="406.02" x2="471.47" y2="406.02"/><line class="p" x1="471.47" y1="406.02" x2="692.4" y2="406.02"/><line class="p" x1="692.4" y1="406.02" x2="700.71" y2="406.02"/><line class="p" x1="700.71" y1="406.02" x2="700.71" y2="262.31"/><line class="p" x1="700.71" y1="262.31" x2="696.55" y2="262.31"/><line class="p" x1="696.55" y1="262.31" x2="696.55" y2="212.1"/><line class="p" x1="696.55" y1="212.11" x2="94.03" y2="212.11"/><line class="p" x1="94.03" y1="212.11" x2="94.03" y2="262.32"/><path class="v" d="M408.3,350.53v7h-.72v-6.36h-1.65v-.64Z"/><path class="v" d="M410,357a.53.53,0,0,1,.53-.54.54.54,0,0,1,.54.54.55.55,0,0,1-.54.55A.54.54,0,0,1,410,357Z"/><path class="v" d="M412,354c0-2.23,1.17-3.56,2.79-3.56s2.8,1.33,2.8,3.56-1.18,3.56-2.8,3.56S412,356.26,412,354Zm4.85,0c0-1.87-.84-2.9-2.06-2.9s-2.06,1-2.06,2.9.84,2.9,2.06,2.9S416.84,355.9,416.84,354Z"/><path class="v" d="M420.54,350.53v7h-.72v-6.36h-1.65v-.64Z"/><path class="v" d="M536.6,347.86v7h-.72V348.5h-1.65v-.64Z"/><path class="v" d="M538.28,354.36a.53.53,0,0,1,.53-.54.54.54,0,0,1,.54.54.55.55,0,0,1-.54.55A.54.54,0,0,1,538.28,354.36Z"/><path class="v" d="M540.29,351.36c0-2.23,1.17-3.56,2.79-3.56s2.8,1.33,2.8,3.56-1.18,3.56-2.8,3.56S540.29,353.59,540.29,351.36Zm4.85,0c0-1.87-.84-2.9-2.06-2.9s-2.06,1-2.06,2.9.84,2.9,2.06,2.9S545.14,353.23,545.14,351.36Z"/><path class="v" d="M551.68,354.22v.64h-4.91v-.51l2.91-2.85c.79-.78.94-1.25.94-1.73,0-.81-.57-1.31-1.64-1.31a2.38,2.38,0,0,0-1.91.78l-.51-.44a3.15,3.15,0,0,1,2.48-1c1.42,0,2.32.72,2.32,1.89a2.88,2.88,0,0,1-1.15,2.19l-2.38,2.34Z"/><path class="v" d="M267.07,355.24v7h-.72v-6.36H264.7v-.64Z"/><path class="v" d="M268.75,361.74a.53.53,0,0,1,.53-.54.54.54,0,0,1,.54.54.55.55,0,0,1-.54.55A.54.54,0,0,1,268.75,361.74Z"/><path class="v" d="M270.76,358.74c0-2.23,1.17-3.56,2.79-3.56s2.8,1.33,2.8,3.56-1.18,3.56-2.8,3.56S270.76,361,270.76,358.74Zm4.85,0c0-1.87-.84-2.9-2.06-2.9s-2.06,1-2.06,2.9.84,2.9,2.06,2.9S275.61,360.61,275.61,358.74Z"/><path class="v" d="M281.92,360.23c0,1.17-.85,2.07-2.54,2.07a3.64,3.64,0,0,1-2.52-.9l.35-.57a3.07,3.07,0,0,0,2.17.81c1.16,0,1.8-.54,1.8-1.41s-.59-1.39-1.89-1.39h-.5v-.53l1.94-2.43h-3.58v-.64h4.5v.51l-2,2.49C281.17,358.32,281.92,359.11,281.92,360.23Z"/><path class="v" d="M169.93,297v7h-.72v-6.36h-1.65V297Z"/><path class="v" d="M171.61,303.5a.53.53,0,0,1,.53-.54.54.54,0,0,1,.54.54.55.55,0,0,1-.54.55A.54.54,0,0,1,171.61,303.5Z"/><path class="v" d="M173.62,300.5c0-2.23,1.17-3.56,2.79-3.56s2.8,1.33,2.8,3.56-1.18,3.56-2.8,3.56S173.62,302.73,173.62,300.5Zm4.85,0c0-1.87-.84-2.9-2.06-2.9s-2.06,1-2.06,2.9.84,2.9,2.06,2.9S178.47,302.37,178.47,300.5Z"/><path class="v" d="M186.19,302.16h-1.4V304h-.72v-1.84h-3.95v-.52l3.71-4.64h.8l-3.58,4.52h3V299.9h.7v1.62h1.4Z"/><path class="v" d="M389.51,282.83v7h-.72v-6.36h-1.65v-.64Z"/><path class="v" d="M391.19,289.33a.53.53,0,0,1,.53-.54.54.54,0,0,1,.54.54.55.55,0,0,1-.54.55A.54.54,0,0,1,391.19,289.33Z"/><path class="v" d="M393.2,286.33c0-2.23,1.17-3.56,2.79-3.56s2.8,1.33,2.8,3.56-1.18,3.56-2.8,3.56S393.2,288.56,393.2,286.33Zm4.85,0c0-1.87-.84-2.9-2.06-2.9s-2.06,1-2.06,2.9.84,2.9,2.06,2.9S398.05,288.2,398.05,286.33Z"/><path class="v" d="M404.57,287.77c0,1.19-.83,2.12-2.54,2.12a3.61,3.61,0,0,1-2.51-.9l.35-.57a3,3,0,0,0,2.15.81c1.19,0,1.82-.58,1.82-1.43s-.56-1.46-2.34-1.46H400l.36-3.51h3.83v.64H401l-.24,2.23h.9C403.77,285.7,404.57,286.53,404.57,287.77Z"/></svg>