<svg xmlns="http://www.w3.org/2000/svg" xmlns:xlink="http://www.w3.org/1999/xlink" viewBox="0 0 790.58 618.13"><defs><style>.a,.f{fill:none;}.b{fill:#595a5c;}.c{fill:#b6906c;}.d,.g{fill:#fff;}.e{fill:#231f20;}.f{stroke:#000;stroke-linecap:round;stroke-linejoin:round;stroke-width:0.34px;}.g,.i{fill-rule:evenodd;}.h{clip-path:url(#a);}.j{fill:#58595b;}</style><clipPath id="a"><polygon class="a" points="244.25 170.67 244.25 362.03 245.96 362.03 245.96 447.46 542.23 447.46 542.23 362.03 546.33 362.03 546.33 170.67 244.25 170.67"/></clipPath></defs><path class="b" d="M55.31,597.13H57.1V609.9H55.31Zm.92,6.11h4.09a1.89,1.89,0,0,0,1-.27,1.82,1.82,0,0,0,.68-.77,2.67,2.67,0,0,0,.24-1.16,2.7,2.7,0,0,0-.24-1.16,1.82,1.82,0,0,0-1.7-1H56.23v-1.7h4a4.09,4.09,0,0,1,2,.48A3.45,3.45,0,0,1,63.62,599a4.64,4.64,0,0,1,0,4.11,3.34,3.34,0,0,1-1.35,1.36,4,4,0,0,1-2,.49h-4Z"/><path class="b" d="M67.7,606.33a2.07,2.07,0,0,0,.49,1.48,1.76,1.76,0,0,0,1.37.52,1.89,1.89,0,0,0,1.37-.46,1.79,1.79,0,0,0,.48-1.33l.12,1.91A2.58,2.58,0,0,1,69.06,610a2.89,2.89,0,0,1-2.33-1,4.08,4.08,0,0,1-.82-2.73v-5.55H67.7Zm.22-7.86a1.93,1.93,0,0,1-.56-1.5,2.07,2.07,0,0,1,.56-1.57,2.56,2.56,0,0,1,3.18,0,2.08,2.08,0,0,1,.57,1.56,1.94,1.94,0,0,1-.57,1.5,2.65,2.65,0,0,1-3.18,0Zm2.26-.86a.94.94,0,0,0,.24-.68,1,1,0,0,0-.24-.7.91.91,0,0,0-.67-.25.92.92,0,0,0-.67.25,1,1,0,0,0-.23.7,1,1,0,0,0,.23.68.92.92,0,0,0,.67.24A.9.9,0,0,0,70.18,597.61Zm1.23,3.17h1.78v9.12H71.41Z"/><path class="b" d="M77.1,609.63A2.82,2.82,0,0,1,76,608.36a5.08,5.08,0,0,1-.36-2v-2a5.05,5.05,0,0,1,.36-2,2.71,2.71,0,0,1,1-1.27,3,3,0,0,1,1.65-.44,2.71,2.71,0,0,1,1.48.42,3.22,3.22,0,0,1,1.09,1.19l-.18,1.86a2.19,2.19,0,0,0-.22-1,1.48,1.48,0,0,0-.61-.63,2,2,0,0,0-1-.21,1.71,1.71,0,0,0-1.37.55,2.26,2.26,0,0,0-.49,1.56v2a2.19,2.19,0,0,0,.49,1.54,1.74,1.74,0,0,0,1.37.54,1.93,1.93,0,0,0,1-.23,1.45,1.45,0,0,0,.61-.64,2.25,2.25,0,0,0,.22-1l.12,1.92a2.66,2.66,0,0,1-.89,1.14,2.56,2.56,0,0,1-1.53.45A3.19,3.19,0,0,1,77.1,609.63Zm4-12.5H82.9V609.9H81.11Z"/><path class="b" d="M87.09,609.57a3.09,3.09,0,0,1-1.29-1.36,4.85,4.85,0,0,1-.44-2.15v-1.48a4.71,4.71,0,0,1,.44-2.12,3.12,3.12,0,0,1,1.29-1.35,4.71,4.71,0,0,1,4.06,0,3.12,3.12,0,0,1,1.29,1.35,4.71,4.71,0,0,1,.44,2.12v1.51a4.79,4.79,0,0,1-.44,2.13,3.12,3.12,0,0,1-1.29,1.35,4.62,4.62,0,0,1-4.06,0Zm3.49-1.83a2.43,2.43,0,0,0,.51-1.65v-1.51a2.43,2.43,0,0,0-.51-1.65,1.88,1.88,0,0,0-1.46-.58,1.85,1.85,0,0,0-1.45.58,2.38,2.38,0,0,0-.52,1.65v1.51a2.38,2.38,0,0,0,.52,1.65,1.82,1.82,0,0,0,1.45.59A1.85,1.85,0,0,0,90.58,607.74Z"/><path class="b" d="M95.43,600.78h1.79v9.12H95.43Zm4.42,1.72a2.16,2.16,0,0,0-.83-.15,1.83,1.83,0,0,0-1.33.47,1.79,1.79,0,0,0-.47,1.31L97,602.37a3.32,3.32,0,0,1,1.09-1.27,2.58,2.58,0,0,1,1.48-.45,3.39,3.39,0,0,1,1.13.18,2.62,2.62,0,0,1,.88.53l-1.17,1.58A1.56,1.56,0,0,0,99.85,602.5Z"/><path class="b" d="M102.15,600.78H104l2.81,7.93-1,1.94Zm8.07,0L106.34,612a2.6,2.6,0,0,1-.56,1,1.87,1.87,0,0,1-.84.52,4,4,0,0,1-1.23.16h-.36V612h.36a1.46,1.46,0,0,0,.8-.2,1.74,1.74,0,0,0,.51-.7l3.38-10.31Z"/><path class="b" d="M113.51,609.88a5.76,5.76,0,0,1-1.32-.48,4.89,4.89,0,0,1-1.13-.79l1.06-1.31a5.86,5.86,0,0,0,1.47.85,4.18,4.18,0,0,0,1.44.28,3.11,3.11,0,0,0,1.6-.33,1.1,1.1,0,0,0,.53-1,.79.79,0,0,0-.29-.66,1.66,1.66,0,0,0-.72-.29c-.29,0-.69-.1-1.22-.14h-.15l-.14,0h-.15a6.45,6.45,0,0,1-1.5-.26,2,2,0,0,1-1-.7,2.38,2.38,0,0,1-.41-1.49,3.07,3.07,0,0,1,.39-1.61,2.41,2.41,0,0,1,1.18-1,5.29,5.29,0,0,1,2-.32,6.38,6.38,0,0,1,2.6.52,6.16,6.16,0,0,1,1.13.66l-1.08,1.31a5.59,5.59,0,0,0-1.35-.66,4,4,0,0,0-1.3-.22,2.44,2.44,0,0,0-1.37.31,1.08,1.08,0,0,0-.46.94.64.64,0,0,0,.26.55,1.72,1.72,0,0,0,.66.25c.26,0,.64.07,1.12.1h.34a7.67,7.67,0,0,1,1.63.25,2.24,2.24,0,0,1,1.13.77,2.62,2.62,0,0,1,.45,1.65,2.92,2.92,0,0,1-.42,1.63,2.54,2.54,0,0,1-1.27,1A5.88,5.88,0,0,1,115,610,7.38,7.38,0,0,1,113.51,609.88Z"/><path class="b" d="M126,597.13h1.8V609.9H126Zm2.6,12.5a2.39,2.39,0,0,1-.93-1.16l.13-1.91a2.22,2.22,0,0,0,.21,1,1.48,1.48,0,0,0,.61.63,1.93,1.93,0,0,0,1,.22,1.74,1.74,0,0,0,1.37-.54,2.18,2.18,0,0,0,.49-1.53v-2a2.26,2.26,0,0,0-.49-1.56,1.71,1.71,0,0,0-1.37-.55,2,2,0,0,0-1,.21,1.36,1.36,0,0,0-.61.62,2.12,2.12,0,0,0-.21,1l-.19-1.76a3.37,3.37,0,0,1,1.08-1.24,2.67,2.67,0,0,1,1.49-.43,3,3,0,0,1,1.65.43,2.9,2.9,0,0,1,1.06,1.27,5.1,5.1,0,0,1,.36,2v2a4.94,4.94,0,0,1-.37,2,2.79,2.79,0,0,1-1.08,1.26,3.25,3.25,0,0,1-1.71.44A2.73,2.73,0,0,1,128.57,609.63Z"/><path class="b" d="M134.46,600.78h1.82l2.81,7.93-1,1.94Zm8.07,0L138.65,612a2.6,2.6,0,0,1-.56,1,1.87,1.87,0,0,1-.84.52,4,4,0,0,1-1.23.16h-.36V612H136a1.46,1.46,0,0,0,.8-.2,1.74,1.74,0,0,0,.51-.7l3.37-10.31Z"/><path class="b" d="M143.57,600.78h4.12v1.62h-4.12Zm1.46,8.56a2.77,2.77,0,0,1-.52-1.81v-9.4h1.8v9.42a.84.84,0,0,0,.13.51.46.46,0,0,0,.39.18h.86V610h-1A2,2,0,0,1,145,609.34Z"/><path class="b" d="M151.94,606.33a2.07,2.07,0,0,0,.49,1.48,1.76,1.76,0,0,0,1.37.52,1.91,1.91,0,0,0,1.37-.46,1.79,1.79,0,0,0,.48-1.33l.12,1.91A2.58,2.58,0,0,1,153.3,610a2.89,2.89,0,0,1-2.33-1,4.08,4.08,0,0,1-.82-2.73v-5.55h1.79Zm3.71-5.55h1.78v9.12h-1.78Z"/><rect class="c" x="612.92" y="591.68" width="35.43" height="2.83"/><path class="d" d="M648.48,594.64H612.79v-3.08h35.69ZM613,594.39h35.19v-2.58H613Z"/><rect class="c" x="612.92" y="601.6" width="70.74" height="2.83"/><path class="d" d="M683.78,604.56h-71v-3.08h71ZM613,604.31h70.49v-2.58H613Z"/><rect class="c" x="612.92" y="612.72" width="177.16" height="2.84"/><path class="d" d="M790.21,615.68H612.79V612.6H790.21ZM613,615.43H790v-2.58H613Z"/><path class="e" d="M587.26,596.28h-.8v-4.82l-.81.5v-.83l.81-.53h.8Z"/><path class="e" d="M589,595.91a1.67,1.67,0,0,1-.41-1.19v-2.58A1.65,1.65,0,0,1,589,591a2,2,0,0,1,2.42,0,1.65,1.65,0,0,1,.41,1.19v2.58a1.65,1.65,0,0,1-.41,1.19,2,2,0,0,1-2.42,0Zm1.83-.55a.89.89,0,0,0,.2-.64v-2.58a.89.89,0,0,0-.2-.64.82.82,0,0,0-.62-.22.86.86,0,0,0-.63.22.94.94,0,0,0-.2.64v2.58a.9.9,0,0,0,.21.64,1,1,0,0,0,1.24,0Z"/><path class="e" d="M593.22,595.91a1.67,1.67,0,0,1-.41-1.19v-2.58a1.65,1.65,0,0,1,.41-1.19,2,2,0,0,1,2.42,0,1.61,1.61,0,0,1,.41,1.19v2.58a1.65,1.65,0,0,1-.41,1.19,2,2,0,0,1-2.42,0Zm1.83-.55a.9.9,0,0,0,.21-.64v-2.58a.94.94,0,0,0-.2-.64.86.86,0,0,0-.63-.22.82.82,0,0,0-.62.22.89.89,0,0,0-.2.64v2.58a.89.89,0,0,0,.2.64,1,1,0,0,0,1.24,0Z"/><path class="e" d="M600.1,596.13a1.45,1.45,0,0,1-.6-.6,2.06,2.06,0,0,1-.21-1v-.67a2,2,0,0,1,.21-.94,1.37,1.37,0,0,1,.6-.59,2,2,0,0,1,.95-.21,2.21,2.21,0,0,1,.59.08,1.68,1.68,0,0,1,.51.22,1.54,1.54,0,0,1,.37.35l-.58.52a1.17,1.17,0,0,0-.4-.3,1.13,1.13,0,0,0-.48-.11.94.94,0,0,0-.71.26,1,1,0,0,0-.26.72v.67a1,1,0,0,0,.25.74.94.94,0,0,0,.72.27,1,1,0,0,0,.48-.12,1,1,0,0,0,.4-.32l.58.56a1.38,1.38,0,0,1-.38.34,1.62,1.62,0,0,1-.5.22,2.27,2.27,0,0,1-.59.07A2.12,2.12,0,0,1,600.1,596.13Z"/><path class="e" d="M603.4,592.22h.79v4.06h-.79Zm2.42,1.6a1,1,0,0,0-.21-.67.78.78,0,0,0-.6-.23.81.81,0,0,0-.6.21.73.73,0,0,0-.22.58l-.08-.78a1.46,1.46,0,0,1,.49-.57,1.22,1.22,0,0,1,.67-.2,1.33,1.33,0,0,1,.73.2,1.18,1.18,0,0,1,.46.56,2.4,2.4,0,0,1,.15.89v2.47h-.79Zm2.42,0a.93.93,0,0,0-.22-.67.85.85,0,0,0-.63-.23.72.72,0,0,0-.57.23.9.9,0,0,0-.21.64l-.16-.78a1.61,1.61,0,0,1,.51-.63,1.23,1.23,0,0,1,.69-.22,1.37,1.37,0,0,1,.75.2,1.09,1.09,0,0,1,.47.56,2.21,2.21,0,0,1,.17.89v2.47h-.8Z"/><path class="e" d="M584.33,605.5l2-2.64a1.85,1.85,0,0,0,.27-.47,1.29,1.29,0,0,0,.09-.45h0a.67.67,0,0,0-.2-.53.81.81,0,0,0-.56-.19.76.76,0,0,0-.56.21,1,1,0,0,0-.27.58h-.82a2,2,0,0,1,.29-.83,1.42,1.42,0,0,1,.56-.53,1.67,1.67,0,0,1,.79-.18,1.93,1.93,0,0,1,.87.17,1.21,1.21,0,0,1,.54.51,1.55,1.55,0,0,1,.19.8h0a1.84,1.84,0,0,1-.12.63,2.8,2.8,0,0,1-.35.63l-1.65,2.24h2.15v.76h-3.2Z"/><path class="e" d="M589,605.83a1.67,1.67,0,0,1-.41-1.19v-2.58a1.65,1.65,0,0,1,.41-1.19,2,2,0,0,1,2.42,0,1.65,1.65,0,0,1,.41,1.19v2.58a1.65,1.65,0,0,1-.41,1.19,2,2,0,0,1-2.42,0Zm1.83-.55a.89.89,0,0,0,.2-.64v-2.58a.89.89,0,0,0-.2-.64.82.82,0,0,0-.62-.22.86.86,0,0,0-.63.22.94.94,0,0,0-.19.64v2.58a.89.89,0,0,0,.2.64,1,1,0,0,0,1.24,0Z"/><path class="e" d="M593.22,605.83a1.67,1.67,0,0,1-.41-1.19v-2.58a1.61,1.61,0,0,1,.42-1.19,1.59,1.59,0,0,1,1.2-.42,1.45,1.45,0,0,1,1.62,1.61v2.58a1.61,1.61,0,0,1-.41,1.19,2,2,0,0,1-2.42,0Zm1.84-.55a.94.94,0,0,0,.2-.64v-2.58a.94.94,0,0,0-.2-.64.84.84,0,0,0-.63-.22.82.82,0,0,0-.62.22.89.89,0,0,0-.2.64v2.58a.89.89,0,0,0,.2.64.82.82,0,0,0,.62.22A.86.86,0,0,0,595.06,605.28Z"/><path class="e" d="M600.1,606.05a1.45,1.45,0,0,1-.6-.6,2.06,2.06,0,0,1-.2-1v-.67a2,2,0,0,1,.2-.94,1.37,1.37,0,0,1,.6-.59,2,2,0,0,1,.95-.21,2.35,2.35,0,0,1,.6.08,1.73,1.73,0,0,1,.5.22,1.38,1.38,0,0,1,.37.35l-.58.52a1.08,1.08,0,0,0-.4-.3,1.13,1.13,0,0,0-.48-.11,1,1,0,0,0-.71.26,1,1,0,0,0-.26.72v.67a1,1,0,0,0,.25.74.94.94,0,0,0,.72.27,1.14,1.14,0,0,0,.88-.44l.58.56a1.38,1.38,0,0,1-.38.34,1.62,1.62,0,0,1-.5.22,2.22,2.22,0,0,1-.59.07A2.12,2.12,0,0,1,600.1,606.05Z"/><path class="e" d="M603.4,602.14h.79v4.06h-.79Zm2.42,1.6a1,1,0,0,0-.21-.67.78.78,0,0,0-.6-.23.81.81,0,0,0-.6.21.73.73,0,0,0-.22.58l-.08-.78a1.46,1.46,0,0,1,.49-.57,1.22,1.22,0,0,1,.67-.2,1.3,1.3,0,0,1,.73.2,1.18,1.18,0,0,1,.46.56,2.4,2.4,0,0,1,.16.89v2.47h-.8Zm2.42,0a.93.93,0,0,0-.22-.67.85.85,0,0,0-.63-.23.73.73,0,0,0-.57.23.89.89,0,0,0-.2.64l-.16-.78a1.51,1.51,0,0,1,.5-.63,1.23,1.23,0,0,1,.69-.22,1.35,1.35,0,0,1,.75.2,1.16,1.16,0,0,1,.48.56,2.4,2.4,0,0,1,.16.89v2.47h-.8Z"/><path class="e" d="M585,615.58a1.34,1.34,0,0,1-.54-.49,2,2,0,0,1-.28-.77h.8a.75.75,0,0,0,.25.49.85.85,0,0,0,.54.17.72.72,0,0,0,.59-.25,1.1,1.1,0,0,0,.21-.72v-.48a1.1,1.1,0,0,0-.21-.72.72.72,0,0,0-.59-.25.83.83,0,0,0-.4.11,1.18,1.18,0,0,0-.34.33h-.72v-3h2.89v.76h-2.1V612a1,1,0,0,1,.34-.18.94.94,0,0,1,.37-.07,1.68,1.68,0,0,1,.84.2,1.29,1.29,0,0,1,.53.6,2.07,2.07,0,0,1,.19.94V614a2.25,2.25,0,0,1-.19.94,1.31,1.31,0,0,1-.55.59,1.69,1.69,0,0,1-.86.21A1.74,1.74,0,0,1,585,615.58Z"/><path class="e" d="M589,615.32a1.65,1.65,0,0,1-.41-1.19v-2.58a1.67,1.67,0,0,1,.41-1.19,2,2,0,0,1,2.42,0,1.65,1.65,0,0,1,.41,1.19v2.58a1.64,1.64,0,0,1-.41,1.19,1.92,1.92,0,0,1-2.42,0Zm1.83-.55a.89.89,0,0,0,.2-.64v-2.58a.88.88,0,0,0-.2-.63.78.78,0,0,0-.62-.22.82.82,0,0,0-.63.22.93.93,0,0,0-.2.63v2.58a.9.9,0,0,0,.21.64,1,1,0,0,0,1.24,0Z"/><path class="e" d="M593.22,615.32a1.65,1.65,0,0,1-.41-1.19v-2.58a1.67,1.67,0,0,1,.41-1.19,2,2,0,0,1,2.42,0,1.61,1.61,0,0,1,.41,1.19v2.58a1.64,1.64,0,0,1-.41,1.19,1.92,1.92,0,0,1-2.42,0Zm1.83-.55a.9.9,0,0,0,.21-.64v-2.58a.93.93,0,0,0-.2-.63.82.82,0,0,0-.63-.22.78.78,0,0,0-.62.22.88.88,0,0,0-.2.63v2.58a.89.89,0,0,0,.2.64,1,1,0,0,0,1.24,0Z"/><path class="e" d="M600.1,615.54a1.45,1.45,0,0,1-.6-.6,2,2,0,0,1-.21-1v-.67a2,2,0,0,1,.21-.94,1.45,1.45,0,0,1,.6-.6,2,2,0,0,1,.95-.2,2.22,2.22,0,0,1,.59.07,2,2,0,0,1,.51.22,1.76,1.76,0,0,1,.37.35l-.58.52a1.17,1.17,0,0,0-.4-.3,1.13,1.13,0,0,0-.48-.11.94.94,0,0,0-.71.26,1,1,0,0,0-.26.73V614a1.07,1.07,0,0,0,.25.74,1,1,0,0,0,.72.26,1.13,1.13,0,0,0,.48-.11,1.26,1.26,0,0,0,.4-.32l.58.55a1.42,1.42,0,0,1-.38.35,1.88,1.88,0,0,1-.5.21,2.27,2.27,0,0,1-.59.08A2,2,0,0,1,600.1,615.54Z"/><path class="e" d="M603.4,611.63h.79v4.06h-.79Zm2.42,1.6a1,1,0,0,0-.21-.66.75.75,0,0,0-.6-.24.81.81,0,0,0-.6.21.75.75,0,0,0-.22.58l-.08-.78a1.5,1.5,0,0,1,.49-.56,1.15,1.15,0,0,1,.67-.2,1.32,1.32,0,0,1,.73.19,1.28,1.28,0,0,1,.46.56,2.42,2.42,0,0,1,.15.9v2.46h-.79Zm2.42,0a.91.91,0,0,0-.22-.66.82.82,0,0,0-.63-.24.72.72,0,0,0-.57.23.9.9,0,0,0-.21.64l-.16-.78a1.51,1.51,0,0,1,.51-.62,1.16,1.16,0,0,1,.69-.22,1.37,1.37,0,0,1,.75.19,1.18,1.18,0,0,1,.47.56,2.22,2.22,0,0,1,.17.9v2.46h-.8Z"/><path class="c" d="M23.49,613.89A12.92,12.92,0,1,1,36.4,601,12.93,12.93,0,0,1,23.49,613.89Zm0-24.83A11.92,11.92,0,1,0,35.4,601,11.93,11.93,0,0,0,23.49,589.06Z"/><polygon class="d" points="35.77 588.74 9.42 600.98 35.77 613.21 32.02 600.98 35.77 588.74"/><path class="c" d="M36.58,614.14,8.23,601l28.35-13.17-4,13.17ZM10.61,601,35,612.29,31.5,601,35,589.66Z"/><path class="c" d="M2.52,605.19a5,5,0,0,1-1.11-.38,4.4,4.4,0,0,1-1-.64l.81-1a3.72,3.72,0,0,0,1.16.69,4.08,4.08,0,0,0,1.38.23,2.73,2.73,0,0,0,1.55-.38,1.17,1.17,0,0,0,.55-1.05h0a1.12,1.12,0,0,0-.25-.77,1.44,1.44,0,0,0-.64-.42,8.23,8.23,0,0,0-1-.25H3.89l-.1,0a9.48,9.48,0,0,1-1.5-.36,2.08,2.08,0,0,1-1-.73,2.42,2.42,0,0,1-.41-1.51h0a2.77,2.77,0,0,1,.38-1.47,2.44,2.44,0,0,1,1.12-.92,4.48,4.48,0,0,1,1.77-.32,4.6,4.6,0,0,1,1,.11,4.9,4.9,0,0,1,1.86.86l-.73,1a4.61,4.61,0,0,0-1-.58,3,3,0,0,0-1.06-.2,2.44,2.44,0,0,0-1.46.38,1.24,1.24,0,0,0-.53,1.07h0a1,1,0,0,0,.27.75,1.74,1.74,0,0,0,.67.4,9.3,9.3,0,0,0,1.12.27h.24a7.93,7.93,0,0,1,1.4.41,2.22,2.22,0,0,1,.94.76,2.4,2.4,0,0,1,.38,1.43h0a2.62,2.62,0,0,1-.4,1.45,2.54,2.54,0,0,1-1.16.91,4.8,4.8,0,0,1-1.83.31A6.44,6.44,0,0,1,2.52,605.19Z"/><rect class="c" x="612.5" y="600.68" width="1" height="4.68"/><rect class="c" x="612.5" y="590.76" width="1" height="4.68"/><rect class="c" x="612.5" y="611.45" width="1" height="5.24"/><rect class="c" x="789.58" y="611.45" width="1" height="5.24"/><rect class="c" x="682.59" y="600.68" width="1" height="4.68"/><rect class="c" x="647.3" y="590.76" width="1" height="4.68"/><rect class="a" width="790.34" height="618.13"/><line class="f" x1="546.33" y1="236.96" x2="546.33" y2="257.46"/><line class="f" x1="546.33" y1="236.96" x2="546.33" y2="236.96"/><line class="f" x1="546.33" y1="257.46" x2="546.33" y2="257.46"/><rect class="d" x="506.52" y="203.64" width="30.76" height="30.75"/><line class="f" x1="506.52" y1="203.64" x2="506.52" y2="234.4"/><line class="f" x1="537.27" y1="203.64" x2="506.52" y2="203.64"/><line class="f" x1="537.27" y1="234.4" x2="537.27" y2="203.64"/><line class="f" x1="506.52" y1="234.4" x2="537.27" y2="234.4"/><polygon class="g" points="273.64 178.87 360.44 178.87 360.44 199.72 273.64 199.72 273.64 240.72 252.8 240.72 252.8 178.87 273.64 178.87"/><line class="f" x1="273.64" y1="178.87" x2="360.44" y2="178.87"/><line class="f" x1="360.44" y1="178.87" x2="360.44" y2="199.72"/><line class="f" x1="360.44" y1="199.71" x2="273.64" y2="199.71"/><line class="f" x1="273.64" y1="199.71" x2="273.64" y2="240.72"/><line class="f" x1="273.64" y1="240.72" x2="252.8" y2="240.72"/><line class="f" x1="252.8" y1="240.72" x2="252.8" y2="178.87"/><line class="f" x1="252.8" y1="178.87" x2="273.64" y2="178.87"/><rect class="d" x="426.73" y="178.87" width="20.84" height="20.85"/><line class="f" x1="426.73" y1="178.87" x2="426.73" y2="199.72"/><line class="f" x1="447.57" y1="178.87" x2="426.73" y2="178.87"/><line class="f" x1="447.57" y1="199.71" x2="447.57" y2="178.87"/><line class="f" x1="426.73" y1="199.71" x2="447.57" y2="199.71"/><line class="f" x1="510.79" y1="199.37" x2="510.79" y2="178.87"/><line class="f" x1="507.37" y1="202.79" x2="507.37" y2="178.87"/><line class="f" x1="379.23" y1="202.79" x2="379.23" y2="230.13"/><line class="f" x1="379.23" y1="202.79" x2="351.89" y2="202.79"/><g class="h"><path class="f" d="M379.23,230.13a27.34,27.34,0,0,1-27.34-27.34"/></g><line class="f" x1="386.07" y1="202.79" x2="379.23" y2="202.79"/><line class="f" x1="379.23" y1="230.13" x2="386.06" y2="230.13"/><line class="f" x1="379.23" y1="230.13" x2="379.23" y2="231.84"/><line class="f" x1="386.07" y1="230.13" x2="386.07" y2="231.84"/><line class="f" x1="379.23" y1="201.08" x2="379.23" y2="202.79"/><line class="f" x1="386.07" y1="201.08" x2="386.07" y2="202.79"/><line class="f" x1="386.07" y1="202.79" x2="386.07" y2="209.62"/><line class="f" x1="386.07" y1="213.38" x2="386.07" y2="214.15"/><line class="f" x1="386.07" y1="217.91" x2="386.07" y2="218.68"/><line class="f" x1="386.07" y1="222.44" x2="386.07" y2="223.29"/><line class="f" x1="386.07" y1="223.29" x2="386.07" y2="230.13"/><line class="f" x1="379.23" y1="202.79" x2="378.38" y2="202.79"/><line class="f" x1="378.38" y1="202.79" x2="378.38" y2="199.37"/><line class="f" x1="378.38" y1="199.37" x2="379.23" y2="199.37"/><line class="f" x1="386.07" y1="202.79" x2="386.92" y2="202.79"/><line class="f" x1="386.92" y1="202.79" x2="386.92" y2="199.37"/><line class="f" x1="386.92" y1="199.37" x2="386.07" y2="199.37"/><line class="f" x1="378.38" y1="230.13" x2="378.38" y2="233.55"/><line class="f" x1="378.38" y1="233.54" x2="379.23" y2="233.54"/><line class="f" x1="386.07" y1="230.13" x2="386.92" y2="230.13"/><line class="f" x1="386.92" y1="230.13" x2="386.92" y2="233.55"/><line class="f" x1="386.92" y1="233.54" x2="386.07" y2="233.54"/><line class="f" x1="528.56" y1="354.51" x2="528.56" y2="355.19"/><line class="f" x1="528.56" y1="355.19" x2="531.29" y2="355.19"/><line class="f" x1="531.29" y1="355.19" x2="531.29" y2="352.46"/><line class="f" x1="531.29" y1="352.46" x2="529.93" y2="352.46"/><line class="f" x1="538.13" y1="348.36" x2="538.13" y2="242.09"/><line class="f" x1="538.13" y1="235.25" x2="538.13" y2="202.79"/><line class="f" x1="257.92" y1="447.46" x2="542.23" y2="447.46"/><line class="f" x1="257.92" y1="435.5" x2="542.23" y2="435.5"/><line class="f" x1="546.33" y1="178.87" x2="546.33" y2="178.87"/><line class="f" x1="257.92" y1="362.03" x2="257.92" y2="447.46"/><line class="f" x1="288.68" y1="362.03" x2="288.68" y2="368.86"/><line class="f" x1="288.68" y1="372.62" x2="288.68" y2="373.39"/><line class="f" x1="288.68" y1="377.15" x2="288.68" y2="377.92"/><line class="f" x1="288.68" y1="381.68" x2="288.68" y2="388.51"/><line class="f" x1="288.68" y1="392.27" x2="288.68" y2="393.04"/><line class="f" x1="288.68" y1="396.8" x2="288.68" y2="397.57"/><line class="f" x1="288.68" y1="401.32" x2="288.68" y2="406.45"/><line class="f" x1="288.68" y1="406.45" x2="288.68" y2="413.29"/><line class="f" x1="252.8" y1="355.19" x2="252.8" y2="447.46"/><line class="f" x1="245.96" y1="367.15" x2="245.96" y2="444.04"/><line class="f" x1="245.96" y1="444.04" x2="245.96" y2="447.46"/><line class="f" x1="546.33" y1="178.87" x2="546.33" y2="230.13"/><line class="f" x1="546.33" y1="236.96" x2="546.33" y2="348.36"/><line class="f" x1="542.23" y1="362.03" x2="529.59" y2="362.03"/><line class="f" x1="546.33" y1="362.03" x2="542.23" y2="362.03"/><line class="f" x1="542.23" y1="362.03" x2="540.86" y2="362.03"/><line class="f" x1="543.6" y1="362.03" x2="542.23" y2="362.03"/><line class="f" x1="464.66" y1="362.03" x2="375.81" y2="362.03"/><line class="f" x1="462.95" y1="348.36" x2="399.73" y2="348.36"/><line class="f" x1="546.33" y1="348.36" x2="546.33" y2="348.36"/><line class="f" x1="396.32" y1="348.36" x2="377.52" y2="348.36"/><line class="f" x1="546.33" y1="355.19" x2="531.29" y2="355.19"/><line class="f" x1="462.95" y1="355.19" x2="377.52" y2="355.19"/><line class="f" x1="290.38" y1="362.03" x2="257.92" y2="362.03"/><line class="f" x1="288.68" y1="348.36" x2="252.8" y2="348.36"/><line class="f" x1="288.68" y1="355.19" x2="252.8" y2="355.19"/><line class="f" x1="423.65" y1="178.87" x2="416.82" y2="178.87"/><line class="f" x1="413.06" y1="178.87" x2="412.29" y2="178.87"/><line class="f" x1="408.53" y1="178.87" x2="407.76" y2="178.87"/><line class="f" x1="404.01" y1="178.87" x2="397.17" y2="178.87"/><line class="f" x1="393.41" y1="178.87" x2="392.9" y2="178.87"/><line class="f" x1="392.9" y1="178.87" x2="386.07" y2="178.87"/><line class="f" x1="507.37" y1="178.87" x2="449.97" y2="178.87"/><line class="f" x1="538.13" y1="235.25" x2="449.97" y2="235.25"/><line class="f" x1="447.57" y1="235.25" x2="444.16" y2="235.25"/><line class="f" x1="413.4" y1="235.25" x2="386.07" y2="235.25"/><line class="f" x1="538.13" y1="242.09" x2="444.16" y2="242.09"/><line class="f" x1="413.4" y1="242.09" x2="399.73" y2="242.09"/><line class="f" x1="396.32" y1="242.09" x2="379.23" y2="242.09"/><line class="f" x1="360.44" y1="178.87" x2="252.8" y2="178.87"/><line class="f" x1="447.57" y1="235.25" x2="447.57" y2="231.84"/><line class="f" x1="447.57" y1="204.5" x2="447.57" y2="178.87"/><line class="f" x1="538.13" y1="199.37" x2="538.13" y2="178.87"/><line class="f" x1="397.34" y1="348.36" x2="397.34" y2="242.09"/><line class="f" x1="386.07" y1="235.25" x2="386.07" y2="231.84"/><line class="f" x1="386.07" y1="201.08" x2="386.07" y2="178.87"/><line class="f" x1="379.23" y1="242.09" x2="379.23" y2="231.84"/><line class="f" x1="379.23" y1="201.08" x2="379.23" y2="199.37"/><line class="f" x1="399.73" y1="348.36" x2="399.73" y2="242.09"/><line class="f" x1="538.13" y1="202.79" x2="507.37" y2="202.79"/><line class="f" x1="386.07" y1="174.6" x2="386.07" y2="170.67"/><line class="f" x1="421.94" y1="174.6" x2="421.94" y2="170.67"/><line class="f" x1="387.77" y1="174.6" x2="387.77" y2="170.67"/><line class="f" x1="387.77" y1="174.6" x2="386.07" y2="174.6"/><line class="f" x1="421.94" y1="174.6" x2="423.65" y2="174.6"/><line class="f" x1="423.65" y1="174.6" x2="423.65" y2="178.87"/><line class="f" x1="386.07" y1="174.6" x2="386.07" y2="178.87"/><line class="f" x1="546.33" y1="230.13" x2="546.33" y2="230.13"/><line class="f" x1="546.33" y1="236.96" x2="546.33" y2="236.96"/><line class="f" x1="447.57" y1="231.84" x2="449.97" y2="231.84"/><line class="f" x1="447.57" y1="204.5" x2="449.97" y2="204.5"/><line class="f" x1="423.65" y1="178.87" x2="447.57" y2="178.87"/><line class="f" x1="389.48" y1="174.6" x2="420.24" y2="174.6"/><line class="f" x1="389.48" y1="174.6" x2="389.48" y2="205.35"/><g class="h"><path class="f" d="M420.24,174.6a30.76,30.76,0,0,1-30.76,30.75"/></g><line class="f" x1="389.48" y1="170.67" x2="389.48" y2="174.6"/><line class="f" x1="420.24" y1="174.6" x2="420.24" y2="170.67"/><line class="f" x1="420.24" y1="174.6" x2="421.94" y2="174.6"/><line class="f" x1="387.77" y1="174.6" x2="389.48" y2="174.6"/><line class="f" x1="413.4" y1="235.25" x2="413.4" y2="242.09"/><line class="f" x1="444.16" y1="235.25" x2="444.16" y2="242.09"/><line class="f" x1="379.63" y1="195.96" x2="363.85" y2="195.96"/><line class="f" x1="363.85" y1="195.96" x2="363.85" y2="178.87"/><line class="f" x1="363.85" y1="178.87" x2="379.23" y2="178.87"/><line class="f" x1="379.23" y1="178.87" x2="379.23" y2="195.96"/><line class="f" x1="379.23" y1="199.37" x2="360.44" y2="199.37"/><line class="f" x1="360.44" y1="199.37" x2="360.44" y2="178.87"/><line class="f" x1="379.23" y1="201.08" x2="386.06" y2="201.08"/><line class="f" x1="379.23" y1="231.84" x2="386.06" y2="231.84"/><line class="f" x1="288.68" y1="413.29" x2="295.51" y2="413.29"/><line class="f" x1="299.27" y1="413.29" x2="300.04" y2="413.29"/><line class="f" x1="303.8" y1="413.29" x2="304.57" y2="413.29"/><line class="f" x1="308.32" y1="413.29" x2="315.16" y2="413.29"/><line class="f" x1="318.92" y1="413.29" x2="319.69" y2="413.29"/><line class="f" x1="323.45" y1="413.29" x2="324.21" y2="413.29"/><line class="f" x1="327.97" y1="413.29" x2="334.81" y2="413.29"/><line class="f" x1="338.57" y1="413.29" x2="339.34" y2="413.29"/><line class="f" x1="343.09" y1="413.29" x2="343.86" y2="413.29"/><line class="f" x1="347.62" y1="413.29" x2="354.46" y2="413.29"/><line class="f" x1="358.22" y1="413.29" x2="358.98" y2="413.29"/><line class="f" x1="362.74" y1="413.29" x2="363.51" y2="413.29"/><line class="f" x1="367.27" y1="413.29" x2="374.1" y2="413.29"/><line class="f" x1="377.86" y1="413.29" x2="378.63" y2="413.29"/><line class="f" x1="382.39" y1="413.29" x2="383.16" y2="413.29"/><line class="f" x1="386.92" y1="413.29" x2="393.75" y2="413.29"/><line class="f" x1="397.51" y1="413.29" x2="398.28" y2="413.29"/><line class="f" x1="402.04" y1="413.29" x2="402.81" y2="413.29"/><line class="f" x1="406.57" y1="413.29" x2="413.4" y2="413.29"/><line class="f" x1="417.16" y1="413.29" x2="417.93" y2="413.29"/><line class="f" x1="421.69" y1="413.29" x2="422.46" y2="413.29"/><line class="f" x1="426.22" y1="413.29" x2="433.05" y2="413.29"/><line class="f" x1="436.81" y1="413.29" x2="437.58" y2="413.29"/><line class="f" x1="441.34" y1="413.29" x2="442.11" y2="413.29"/><line class="f" x1="445.87" y1="413.29" x2="452.7" y2="413.29"/><line class="f" x1="456.46" y1="413.29" x2="457.23" y2="413.29"/><line class="f" x1="460.99" y1="413.29" x2="461.75" y2="413.29"/><line class="f" x1="465.51" y1="413.29" x2="472.35" y2="413.29"/><line class="f" x1="476.11" y1="413.29" x2="476.88" y2="413.29"/><line class="f" x1="480.63" y1="413.29" x2="481.4" y2="413.29"/><line class="f" x1="485.16" y1="413.29" x2="492" y2="413.29"/><line class="f" x1="495.76" y1="413.29" x2="496.52" y2="413.29"/><line class="f" x1="500.28" y1="413.29" x2="501.05" y2="413.29"/><line class="f" x1="504.81" y1="413.29" x2="511.64" y2="413.29"/><line class="f" x1="515.4" y1="413.29" x2="516.17" y2="413.29"/><line class="f" x1="519.93" y1="413.29" x2="520.7" y2="413.29"/><line class="f" x1="524.46" y1="413.29" x2="531.29" y2="413.29"/><line class="f" x1="535.05" y1="413.29" x2="535.82" y2="413.29"/><line class="f" x1="539.49" y1="413.29" x2="542.23" y2="413.29"/><line class="f" x1="538.13" y1="348.36" x2="531.29" y2="348.36"/><line class="f" x1="531.29" y1="355.19" x2="531.29" y2="348.36"/><line class="f" x1="540.86" y1="362.03" x2="540.86" y2="432.08"/><line class="f" x1="540.86" y1="432.08" x2="542.23" y2="432.08"/><line class="f" x1="360.44" y1="178.87" x2="363.85" y2="178.87"/><line class="f" x1="507.37" y1="178.87" x2="538.13" y2="178.87"/><line class="f" x1="396.32" y1="348.36" x2="399.73" y2="348.36"/><line class="f" x1="447.57" y1="178.87" x2="449.97" y2="178.87"/><line class="f" x1="379.23" y1="195.96" x2="379.23" y2="199.37"/><line class="f" x1="447.57" y1="235.25" x2="449.97" y2="235.25"/><line class="f" x1="396.32" y1="242.09" x2="399.73" y2="242.09"/><line class="f" x1="379.23" y1="178.87" x2="386.06" y2="178.87"/><line class="f" x1="423.65" y1="174.6" x2="423.65" y2="170.67"/><line class="f" x1="529.59" y1="355.19" x2="529.59" y2="362.03"/><line class="f" x1="529.59" y1="355.19" x2="531.29" y2="355.19"/><line class="f" x1="252.8" y1="348.36" x2="252.8" y2="178.87"/><line class="f" x1="377.52" y1="355.19" x2="377.52" y2="348.36"/><line class="f" x1="288.68" y1="355.19" x2="288.68" y2="348.36"/><line class="f" x1="288.68" y1="348.36" x2="377.52" y2="348.36"/><line class="f" x1="290.38" y1="355.19" x2="290.38" y2="362.03"/><line class="f" x1="288.68" y1="355.19" x2="290.38" y2="355.19"/><line class="f" x1="375.81" y1="355.19" x2="375.81" y2="362.03"/><line class="f" x1="375.81" y1="355.19" x2="377.52" y2="355.19"/><line class="f" x1="290.38" y1="362.03" x2="345.06" y2="362.03"/><line class="f" x1="343.35" y1="338.11" x2="343.35" y2="355.19"/><line class="f" x1="345.06" y1="355.19" x2="345.06" y2="362.03"/><line class="f" x1="345.06" y1="362.03" x2="351.89" y2="362.03"/><line class="f" x1="355.65" y1="362.03" x2="356.42" y2="362.03"/><line class="f" x1="360.18" y1="362.03" x2="360.95" y2="362.03"/><line class="f" x1="364.71" y1="362.03" x2="368.98" y2="362.03"/><line class="f" x1="368.98" y1="362.03" x2="375.81" y2="362.03"/><line class="f" x1="345.06" y1="358.61" x2="375.81" y2="358.61"/><line class="f" x1="343.35" y1="355.19" x2="343.35" y2="352.46"/><line class="f" x1="376.16" y1="354.51" x2="344.72" y2="354.51"/><line class="f" x1="344.72" y1="354.51" x2="344.72" y2="351.78"/><line class="f" x1="376.16" y1="354.51" x2="376.16" y2="320.34"/><line class="f" x1="347.45" y1="353.14" x2="373.42" y2="353.14"/><g class="h"><path class="f" d="M344.72,351.78a31.43,31.43,0,0,1,31.44-31.44"/></g><line class="f" x1="374.79" y1="354.51" x2="374.79" y2="355.19"/><line class="f" x1="374.79" y1="355.19" x2="377.52" y2="355.19"/><line class="f" x1="377.52" y1="355.19" x2="377.52" y2="352.46"/><line class="f" x1="377.52" y1="352.46" x2="376.15" y2="352.46"/><line class="f" x1="340.62" y1="352.46" x2="340.62" y2="355.19"/><line class="f" x1="340.62" y1="353.83" x2="317.38" y2="353.83"/><line class="f" x1="291.41" y1="354.51" x2="291.41" y2="355.19"/><line class="f" x1="291.41" y1="355.19" x2="288.68" y2="355.19"/><line class="f" x1="288.68" y1="355.19" x2="288.68" y2="352.46"/><line class="f" x1="288.68" y1="352.46" x2="290.04" y2="352.46"/><line class="f" x1="316.01" y1="354.51" x2="290.04" y2="354.51"/><line class="f" x1="290.04" y1="354.51" x2="290.04" y2="351.78"/><line class="f" x1="292.78" y1="353.14" x2="313.28" y2="353.14"/><line class="f" x1="317.38" y1="355.19" x2="317.38" y2="352.46"/><line class="f" x1="316.01" y1="354.51" x2="316.01" y2="351.78"/><line class="f" x1="465.68" y1="354.51" x2="465.68" y2="355.19"/><line class="f" x1="465.68" y1="355.19" x2="462.95" y2="355.19"/><line class="f" x1="462.95" y1="355.19" x2="462.95" y2="352.46"/><line class="f" x1="462.95" y1="352.46" x2="464.32" y2="352.46"/><line class="f" x1="462.95" y1="348.36" x2="462.95" y2="355.19"/><line class="f" x1="531.29" y1="348.36" x2="462.95" y2="348.36"/><line class="f" x1="464.66" y1="355.19" x2="464.66" y2="362.03"/><line class="f" x1="462.95" y1="355.19" x2="464.66" y2="355.19"/><line class="f" x1="497.12" y1="338.11" x2="497.12" y2="355.19"/><line class="f" x1="495.41" y1="355.19" x2="495.41" y2="362.03"/><line class="f" x1="529.59" y1="362.03" x2="495.41" y2="362.03"/><line class="f" x1="495.41" y1="362.03" x2="488.58" y2="362.03"/><line class="f" x1="484.82" y1="362.03" x2="484.05" y2="362.03"/><line class="f" x1="480.29" y1="362.03" x2="479.52" y2="362.03"/><line class="f" x1="475.77" y1="362.03" x2="471.49" y2="362.03"/><line class="f" x1="471.49" y1="362.03" x2="464.66" y2="362.03"/><line class="f" x1="495.41" y1="358.61" x2="464.66" y2="358.61"/><line class="f" x1="497.12" y1="355.19" x2="497.12" y2="352.46"/><line class="f" x1="495.76" y1="354.51" x2="495.76" y2="351.78"/><line class="f" x1="495.76" y1="354.51" x2="464.32" y2="354.51"/><line class="f" x1="464.32" y1="354.51" x2="464.32" y2="320.34"/><line class="f" x1="493.02" y1="353.14" x2="467.05" y2="353.14"/><g class="h"><path class="f" d="M464.32,320.34a31.44,31.44,0,0,1,31.44,31.44"/></g><line class="f" x1="499.86" y1="354.51" x2="499.86" y2="355.19"/><line class="f" x1="529.93" y1="354.51" x2="498.49" y2="354.51"/><line class="f" x1="498.49" y1="354.51" x2="498.49" y2="351.78"/><line class="f" x1="529.93" y1="354.51" x2="529.93" y2="351.78"/><line class="f" x1="501.22" y1="353.14" x2="527.19" y2="353.14"/><line class="f" x1="447.57" y1="206.21" x2="447.57" y2="230.13"/><line class="f" x1="447.57" y1="206.21" x2="423.65" y2="206.21"/><g class="h"><path class="f" d="M447.57,230.13a23.92,23.92,0,0,1-23.92-23.92"/></g><line class="f" x1="449.97" y1="206.21" x2="447.57" y2="206.21"/><line class="f" x1="447.57" y1="230.13" x2="449.97" y2="230.13"/><line class="f" x1="447.57" y1="230.13" x2="447.57" y2="231.84"/><line class="f" x1="449.97" y1="230.13" x2="449.97" y2="231.84"/><line class="f" x1="447.57" y1="204.5" x2="447.57" y2="206.21"/><line class="f" x1="449.97" y1="204.5" x2="449.97" y2="206.21"/><line class="f" x1="449.97" y1="206.21" x2="449.97" y2="213.04"/><line class="f" x1="449.97" y1="216.8" x2="449.97" y2="217.57"/><line class="f" x1="449.97" y1="221.33" x2="449.97" y2="222.1"/><line class="f" x1="449.97" y1="223.29" x2="449.97" y2="230.13"/><line class="f" x1="447.57" y1="206.21" x2="446.72" y2="206.21"/><line class="f" x1="446.72" y1="206.21" x2="446.72" y2="202.79"/><line class="f" x1="446.72" y1="202.79" x2="447.57" y2="202.79"/><line class="f" x1="449.97" y1="206.21" x2="450.82" y2="206.21"/><line class="f" x1="450.82" y1="206.21" x2="450.82" y2="202.79"/><line class="f" x1="450.82" y1="202.79" x2="449.97" y2="202.79"/><line class="f" x1="446.72" y1="230.13" x2="446.72" y2="233.55"/><line class="f" x1="446.72" y1="233.54" x2="447.57" y2="233.54"/><line class="f" x1="449.97" y1="230.13" x2="450.82" y2="230.13"/><line class="f" x1="450.82" y1="230.13" x2="450.82" y2="233.55"/><line class="f" x1="450.82" y1="233.54" x2="449.97" y2="233.54"/><line class="f" x1="415.11" y1="242.09" x2="442.45" y2="242.09"/><line class="f" x1="415.11" y1="242.09" x2="415.11" y2="269.42"/><g class="h"><path class="f" d="M442.45,242.09a27.34,27.34,0,0,1-27.34,27.33"/></g><line class="f" x1="415.11" y1="235.25" x2="415.11" y2="242.09"/><line class="f" x1="442.45" y1="242.09" x2="442.45" y2="235.25"/><line class="f" x1="442.45" y1="242.09" x2="444.16" y2="242.09"/><line class="f" x1="442.45" y1="235.25" x2="444.16" y2="235.25"/><line class="f" x1="413.4" y1="242.09" x2="415.11" y2="242.09"/><line class="f" x1="413.4" y1="235.25" x2="415.11" y2="235.25"/><line class="f" x1="415.11" y1="235.25" x2="421.94" y2="235.25"/><line class="f" x1="425.7" y1="235.25" x2="426.47" y2="235.25"/><line class="f" x1="430.23" y1="235.25" x2="431" y2="235.25"/><line class="f" x1="434.76" y1="235.25" x2="435.61" y2="235.25"/><line class="f" x1="435.61" y1="235.25" x2="442.45" y2="235.25"/><line class="f" x1="415.11" y1="242.09" x2="415.11" y2="242.94"/><line class="f" x1="415.11" y1="242.94" x2="411.69" y2="242.94"/><line class="f" x1="411.69" y1="242.94" x2="411.69" y2="242.09"/><line class="f" x1="415.11" y1="235.25" x2="415.11" y2="234.4"/><line class="f" x1="415.11" y1="234.4" x2="411.69" y2="234.4"/><line class="f" x1="411.69" y1="234.4" x2="411.69" y2="235.25"/><line class="f" x1="442.45" y1="242.94" x2="445.87" y2="242.94"/><line class="f" x1="445.87" y1="242.94" x2="445.87" y2="242.09"/><line class="f" x1="442.45" y1="235.25" x2="442.45" y2="234.4"/><line class="f" x1="442.45" y1="234.4" x2="445.87" y2="234.4"/><line class="f" x1="445.87" y1="234.4" x2="445.87" y2="235.25"/><line class="f" x1="507.37" y1="184" x2="449.97" y2="184"/><line class="f" x1="245.96" y1="367.15" x2="245.96" y2="362.03"/><line class="f" x1="245.96" y1="362.03" x2="245.96" y2="177.5"/><line class="f" x1="244.25" y1="177.5" x2="245.96" y2="177.5"/><line class="f" x1="343.35" y1="338.11" x2="377.52" y2="338.11"/><line class="f" x1="377.52" y1="338.11" x2="377.52" y2="348.36"/><line class="f" x1="462.95" y1="348.36" x2="462.95" y2="338.11"/><line class="f" x1="462.95" y1="338.11" x2="497.12" y2="338.11"/><line class="f" x1="449.97" y1="235.25" x2="449.97" y2="231.84"/><line class="f" x1="449.97" y1="204.5" x2="449.97" y2="178.87"/><line class="f" x1="538.13" y1="199.37" x2="510.79" y2="199.37"/><line class="f" x1="538.13" y1="202.79" x2="538.13" y2="199.37"/><line class="f" x1="507.37" y1="195.96" x2="510.79" y2="195.96"/><line class="f" x1="541.2" y1="362.03" x2="541.2" y2="432.08"/><line class="f" x1="542.23" y1="432.08" x2="541.2" y2="432.08"/><line class="f" x1="541.2" y1="362.03" x2="542.23" y2="362.03"/><line class="f" x1="542.23" y1="362.03" x2="543.25" y2="362.03"/><line class="f" x1="542.23" y1="364.08" x2="541.2" y2="364.08"/><line class="f" x1="541.2" y1="364.08" x2="541.2" y2="362.03"/><line class="f" x1="541.2" y1="430.03" x2="542.23" y2="430.03"/><line class="f" x1="527.19" y1="351.78" x2="527.19" y2="354.51"/><line class="f" x1="501.22" y1="351.78" x2="501.22" y2="354.51"/><line class="f" x1="498.49" y1="351.78" x2="529.93" y2="351.78"/><line class="f" x1="467.05" y1="351.78" x2="467.05" y2="354.51"/><line class="f" x1="464.32" y1="351.78" x2="495.76" y2="351.78"/><line class="f" x1="493.02" y1="351.78" x2="493.02" y2="354.51"/><line class="f" x1="498.49" y1="352.46" x2="495.75" y2="352.46"/><line class="f" x1="494.39" y1="354.51" x2="494.39" y2="355.19"/><line class="f" x1="494.39" y1="355.19" x2="499.86" y2="355.19"/><line class="f" x1="313.28" y1="351.78" x2="313.28" y2="354.51"/><line class="f" x1="344.72" y1="352.46" x2="316.01" y2="352.46"/><line class="f" x1="314.65" y1="354.51" x2="314.65" y2="355.19"/><line class="f" x1="314.65" y1="355.19" x2="346.08" y2="355.19"/><line class="f" x1="292.78" y1="351.78" x2="292.78" y2="354.51"/><line class="f" x1="290.04" y1="351.78" x2="316.01" y2="351.78"/><line class="f" x1="373.42" y1="351.78" x2="373.42" y2="354.51"/><line class="f" x1="347.45" y1="351.78" x2="347.45" y2="354.51"/><line class="f" x1="344.72" y1="351.78" x2="376.16" y2="351.78"/><line class="f" x1="346.08" y1="354.51" x2="346.08" y2="355.19"/><line class="f" x1="379.23" y1="199.37" x2="379.23" y2="195.96"/><line class="f" x1="508.23" y1="208.77" x2="508.23" y2="229.27"/><line class="f" x1="511.64" y1="232.69" x2="532.15" y2="232.69"/><line class="f" x1="535.56" y1="229.27" x2="535.56" y2="208.77"/><line class="f" x1="532.15" y1="205.35" x2="511.64" y2="205.35"/><line class="f" x1="488.92" y1="234.4" x2="488.92" y2="230.98"/><line class="f" x1="488.92" y1="230.98" x2="468.42" y2="230.98"/><line class="f" x1="468.42" y1="230.98" x2="468.42" y2="234.4"/><line class="f" x1="468.42" y1="234.4" x2="469.44" y2="234.4"/><line class="f" x1="469.44" y1="234.4" x2="469.44" y2="232.01"/><line class="f" x1="469.44" y1="232.01" x2="487.9" y2="232.01"/><line class="f" x1="487.9" y1="232.01" x2="487.9" y2="234.4"/><line class="f" x1="487.9" y1="234.4" x2="488.92" y2="234.4"/><line class="f" x1="488.92" y1="234.4" x2="488.92" y2="230.98"/><line class="f" x1="468.42" y1="234.4" x2="468.42" y2="230.98"/><line class="f" x1="487.9" y1="234.4" x2="487.9" y2="232.01"/><line class="f" x1="469.44" y1="234.4" x2="469.44" y2="232.01"/><line class="f" x1="488.92" y1="230.98" x2="468.42" y2="230.98"/><line class="f" x1="488.92" y1="232.01" x2="468.42" y2="232.01"/><line class="f" x1="488.92" y1="234.4" x2="487.9" y2="234.4"/><line class="f" x1="469.44" y1="234.4" x2="468.42" y2="234.4"/><line class="f" x1="352.26" y1="187.05" x2="347.43" y2="191.88"/><line class="f" x1="347.43" y1="187.05" x2="352.26" y2="191.88"/><line class="f" x1="349.84" y1="192.88" x2="349.84" y2="186.05"/><line class="f" x1="353.26" y1="189.46" x2="346.43" y2="189.46"/><line class="f" x1="339.59" y1="179.21" x2="339.59" y2="199.71"/><line class="f" x1="360.09" y1="199.71" x2="339.59" y2="199.71"/><line class="f" x1="338.74" y1="198.01" x2="319.94" y2="198.01"/><line class="f" x1="319.94" y1="198.01" x2="319.94" y2="180.92"/><line class="f" x1="319.94" y1="180.92" x2="338.74" y2="180.92"/><line class="f" x1="338.74" y1="180.92" x2="338.74" y2="198.01"/><line class="f" x1="339.59" y1="199.71" x2="319.09" y2="199.71"/><line class="f" x1="337.03" y1="196.3" x2="321.65" y2="196.3"/><line class="f" x1="321.65" y1="196.3" x2="321.65" y2="184.34"/><line class="f" x1="321.65" y1="184.34" x2="337.03" y2="184.34"/><line class="f" x1="337.03" y1="184.34" x2="337.03" y2="196.3"/><line class="f" x1="319.09" y1="179.21" x2="319.09" y2="199.71"/><line class="f" x1="319.09" y1="199.71" x2="298.59" y2="199.71"/><line class="f" x1="298.59" y1="199.71" x2="298.59" y2="179.21"/><line class="f" x1="252.8" y1="210.14" x2="273.64" y2="210.14"/><line class="f" x1="273.64" y1="210.14" x2="273.64" y2="230.64"/><line class="f" x1="273.64" y1="230.64" x2="252.8" y2="230.64"/><line class="f" x1="274.57" y1="227.84" x2="274.57" y2="212.93"/><line class="f" x1="384.65" y1="279.3" x2="384.65" y2="310.47"/><line class="f" x1="384.65" y1="310.47" x2="386.75" y2="310.47"/><line class="f" x1="386.75" y1="310.47" x2="388.84" y2="302.68"/><line class="f" x1="388.84" y1="302.68" x2="388.84" y2="287.09"/><line class="f" x1="388.84" y1="287.09" x2="386.75" y2="279.3"/><line class="f" x1="386.75" y1="279.3" x2="384.65" y2="279.3"/><line class="f" x1="385.49" y1="308.39" x2="385.49" y2="306.31"/><line class="f" x1="385.49" y1="306.31" x2="386.01" y2="306.31"/><line class="f" x1="386.01" y1="306.31" x2="386.01" y2="308.39"/><line class="f" x1="386.01" y1="308.39" x2="385.49" y2="308.39"/><line class="f" x1="385.49" y1="305.79" x2="385.49" y2="303.71"/><line class="f" x1="385.49" y1="303.71" x2="386.01" y2="303.71"/><line class="f" x1="386.01" y1="303.71" x2="386.01" y2="305.79"/><line class="f" x1="386.01" y1="305.79" x2="385.49" y2="305.79"/><line class="f" x1="385.49" y1="303.19" x2="385.49" y2="302.16"/><line class="f" x1="385.49" y1="302.16" x2="386.01" y2="302.16"/><line class="f" x1="386.01" y1="302.16" x2="386.01" y2="303.19"/><line class="f" x1="386.01" y1="303.19" x2="385.49" y2="303.19"/><line class="f" x1="386.75" y1="279.3" x2="386.75" y2="310.47"/><line class="f" x1="506.52" y1="203.64" x2="506.52" y2="234.4"/><line class="f" x1="506.52" y1="234.4" x2="537.27" y2="234.4"/><line class="f" x1="537.27" y1="234.4" x2="537.27" y2="203.64"/><line class="f" x1="537.27" y1="203.64" x2="506.52" y2="203.64"/><line class="f" x1="308.15" y1="280.02" x2="291.07" y2="280.02"/><line class="f" x1="291.07" y1="280.02" x2="291.07" y2="307.35"/><line class="f" x1="291.07" y1="307.35" x2="308.15" y2="307.35"/><line class="f" x1="308.15" y1="307.35" x2="308.15" y2="280.02"/><line class="f" x1="531.29" y1="346.65" x2="503.96" y2="346.65"/><line class="f" x1="503.96" y1="346.65" x2="503.96" y2="344.5"/><line class="f" x1="503.96" y1="344.5" x2="531.29" y2="344.5"/><line class="f" x1="531.29" y1="344.5" x2="531.29" y2="346.65"/><line class="f" x1="341.64" y1="346.65" x2="286.97" y2="346.65"/><line class="f" x1="286.97" y1="346.65" x2="286.97" y2="343.23"/><line class="f" x1="286.97" y1="343.23" x2="341.64" y2="343.23"/><line class="f" x1="341.64" y1="343.23" x2="341.64" y2="346.65"/><g class="h"><path class="f" d="M533,208.77a.85.85,0,0,0-.85-.85.85.85,0,1,0,0,1.7.85.85,0,0,0,.85-.85"/><path class="f" d="M508.23,208.77a3.42,3.42,0,0,1,3.41-3.42"/><path class="f" d="M511.64,232.69a3.42,3.42,0,0,1-3.41-3.42"/><path class="f" d="M532.15,205.35a3.42,3.42,0,0,1,3.41,3.42"/><path class="f" d="M535.56,229.27a3.42,3.42,0,0,1-3.41,3.42"/><path class="f" d="M294.31,189.46a6,6,0,1,0-6,6,6,6,0,0,0,6-6"/><path class="f" d="M293.29,189.46a5,5,0,1,0-5,5,5,5,0,0,0,5-5"/><path class="f" d="M330,187.75a.68.68,0,1,0-.68.69.68.68,0,0,0,.68-.69"/><path class="f" d="M261.71,215.36a3.36,3.36,0,1,0-3.35,3.35,3.35,3.35,0,0,0,3.35-3.35"/><path class="f" d="M271.78,215.36a3.36,3.36,0,1,0-3.36,3.35,3.36,3.36,0,0,0,3.36-3.35"/><path class="f" d="M271.78,225.42a3.36,3.36,0,1,0-3.36,3.36,3.36,3.36,0,0,0,3.36-3.36"/><path class="f" d="M388.46,301.12a6.24,6.24,0,0,1,0-12.47"/><path class="f" d="M388.46,288.65a12.47,12.47,0,0,1,0,12.47"/><path class="f" d="M502.25,345.57a1.71,1.71,0,1,0-1.71,1.71,1.71,1.71,0,0,0,1.71-1.71"/><path class="f" d="M285.26,344.94a1.71,1.71,0,1,0-1.71,1.71,1.71,1.71,0,0,0,1.71-1.71"/></g><line class="f" x1="538.13" y1="199.37" x2="510.79" y2="199.37"/><line class="f" x1="510.79" y1="199.37" x2="510.79" y2="178.87"/><line class="f" x1="510.79" y1="178.87" x2="514.21" y2="195.96"/><line class="f" x1="514.21" y1="195.96" x2="538.13" y2="199.37"/><line class="f" x1="379.23" y1="195.96" x2="363.85" y2="195.96"/><line class="f" x1="363.85" y1="195.96" x2="363.85" y2="179.03"/><line class="f" x1="363.85" y1="179.03" x2="367.27" y2="192.54"/><line class="f" x1="367.27" y1="192.54" x2="379.23" y2="195.96"/><line class="f" x1="278.08" y1="199.71" x2="278.08" y2="179.21"/><rect class="d" x="291.07" y="280.02" width="17.08" height="27.34"/><line class="f" x1="291.07" y1="280.02" x2="291.07" y2="307.35"/><line class="f" x1="308.15" y1="280.02" x2="291.07" y2="280.02"/><line class="f" x1="308.15" y1="307.35" x2="308.15" y2="280.02"/><line class="f" x1="291.07" y1="307.35" x2="308.15" y2="307.35"/><rect class="d" x="379.91" y="242.09" width="17.43" height="106.27"/><line class="f" x1="379.91" y1="242.09" x2="379.91" y2="348.36"/><line class="f" x1="397.34" y1="242.09" x2="379.91" y2="242.09"/><line class="f" x1="397.34" y1="348.36" x2="397.34" y2="242.09"/><line class="f" x1="379.91" y1="348.36" x2="397.34" y2="348.36"/><rect class="d" x="399.73" y="242.09" width="10.59" height="37.59"/><line class="f" x1="399.73" y1="279.68" x2="410.33" y2="279.68"/><line class="f" x1="399.73" y1="242.09" x2="399.73" y2="279.68"/><line class="f" x1="410.33" y1="242.09" x2="399.73" y2="242.09"/><line class="f" x1="410.33" y1="279.68" x2="410.33" y2="242.09"/><rect class="d" x="468.42" y="232.01" width="1.02" height="2.39"/><line class="f" x1="468.42" y1="232.01" x2="468.42" y2="234.4"/><line class="f" x1="469.44" y1="232.01" x2="468.42" y2="232.01"/><line class="f" x1="469.44" y1="234.4" x2="469.44" y2="232.01"/><line class="f" x1="468.42" y1="234.4" x2="469.44" y2="234.4"/><rect class="d" x="468.42" y="230.98" width="20.5" height="1.03"/><line class="f" x1="468.42" y1="232.01" x2="488.92" y2="232.01"/><line class="f" x1="468.42" y1="230.98" x2="468.42" y2="232.01"/><line class="f" x1="488.92" y1="230.98" x2="468.42" y2="230.98"/><line class="f" x1="488.92" y1="232.01" x2="488.92" y2="230.98"/><rect class="d" x="487.9" y="232.01" width="1.02" height="2.39"/><line class="f" x1="487.9" y1="232.01" x2="487.9" y2="234.4"/><line class="f" x1="488.92" y1="232.01" x2="487.9" y2="232.01"/><line class="f" x1="488.92" y1="234.4" x2="488.92" y2="232.01"/><line class="f" x1="487.9" y1="234.4" x2="488.92" y2="234.4"/><rect class="d" x="449.97" y="178.87" width="57.41" height="5.13"/><line class="f" x1="449.97" y1="178.87" x2="449.97" y2="184"/><line class="f" x1="507.37" y1="178.87" x2="449.97" y2="178.87"/><line class="f" x1="507.37" y1="184" x2="507.37" y2="178.87"/><line class="f" x1="449.97" y1="184" x2="507.37" y2="184"/><line class="f" x1="546.33" y1="204.16" x2="546.33" y2="204.16"/><line class="f" x1="546.33" y1="204.16" x2="546.33" y2="178.87"/><line class="f" x1="546.33" y1="178.87" x2="546.33" y2="178.87"/><rect class="d" x="540.86" y="363.74" width="1.37" height="70.05"/><line class="f" x1="540.86" y1="363.74" x2="540.86" y2="433.79"/><line class="f" x1="542.23" y1="363.74" x2="540.86" y2="363.74"/><line class="f" x1="540.86" y1="433.79" x2="542.23" y2="433.79"/><polygon class="g" points="285.26 344.94 284.76 346.15 283.55 346.65 282.34 346.15 281.84 344.94 282.34 343.74 283.55 343.23 284.76 343.74 285.26 344.94"/><g class="h"><path class="f" d="M285.26,344.94a1.71,1.71,0,1,1-3.42,0"/><path class="f" d="M281.84,344.94a1.71,1.71,0,0,1,3.42,0"/></g><rect class="d" x="286.97" y="343.23" width="54.67" height="3.42"/><line class="f" x1="341.64" y1="346.65" x2="341.64" y2="343.23"/><line class="f" x1="286.97" y1="346.65" x2="341.64" y2="346.65"/><line class="f" x1="286.97" y1="343.23" x2="286.97" y2="346.65"/><line class="f" x1="341.64" y1="343.23" x2="286.97" y2="343.23"/><polygon class="g" points="502.25 345.57 501.75 346.78 500.54 347.28 499.33 346.78 498.83 345.57 499.33 344.37 500.54 343.87 501.75 344.37 502.25 345.57"/><g class="h"><path class="f" d="M502.25,345.57a1.71,1.71,0,1,1-3.42,0"/><path class="f" d="M498.83,345.57a1.71,1.71,0,0,1,3.42,0"/></g><rect class="d" x="503.96" y="344.5" width="27.34" height="2.15"/><line class="f" x1="503.96" y1="344.5" x2="503.96" y2="346.65"/><line class="f" x1="531.29" y1="344.5" x2="503.96" y2="344.5"/><line class="f" x1="531.29" y1="346.65" x2="531.29" y2="344.5"/><line class="f" x1="503.96" y1="346.65" x2="531.29" y2="346.65"/><polygon class="g" points="538.13 320 538.13 258.49 527.88 258.49 476.62 258.49 474 259.01 471.79 260.49 470.3 262.71 469.78 265.32 469.78 313.16 470.3 315.78 471.79 318 474 319.48 476.62 320 538.13 320"/><rect class="d" x="527.87" y="320" width="10.25" height="11.96"/><rect class="d" x="527.87" y="246.53" width="10.25" height="11.96"/><line class="f" x1="526.77" y1="287.31" x2="529.72" y2="286.49"/><line class="f" x1="526.77" y1="316" x2="529.72" y2="315.18"/><line class="f" x1="469.78" y1="265.32" x2="469.78" y2="313.16"/><line class="f" x1="476.62" y1="320" x2="538.13" y2="320"/><line class="f" x1="538.13" y1="320" x2="538.13" y2="258.49"/><line class="f" x1="538.13" y1="258.49" x2="476.62" y2="258.49"/><line class="f" x1="538.13" y1="320" x2="538.13" y2="331.96"/><line class="f" x1="538.13" y1="331.96" x2="527.88" y2="331.96"/><line class="f" x1="527.88" y1="331.96" x2="527.88" y2="320"/><line class="f" x1="527.88" y1="320" x2="538.13" y2="320"/><line class="f" x1="538.13" y1="246.53" x2="538.13" y2="258.49"/><line class="f" x1="538.13" y1="258.49" x2="527.88" y2="258.49"/><line class="f" x1="527.88" y1="258.49" x2="527.88" y2="246.53"/><line class="f" x1="527.88" y1="246.53" x2="538.13" y2="246.53"/><line class="f" x1="515.39" y1="320" x2="515.39" y2="258.49"/><line class="f" x1="510.26" y1="320" x2="510.26" y2="258.49"/><g class="h"><path class="f" d="M520.57,291.84a96.33,96.33,0,0,1,.83,12.59c0,3.23-.17,6.46-.49,9.68"/><path class="f" d="M522.79,316.33h-.09a1.83,1.83,0,0,1-1.83-1.83,1.72,1.72,0,0,1,0-.39"/><path class="f" d="M526.77,316a14.73,14.73,0,0,1-3.17.35l-.81,0"/><path class="f" d="M534.4,316.19c-.83.05-1.65.06-2.48.06-1.72,0-3.44-.08-5.15-.25"/><path class="f" d="M534.89,315.74s0,.06,0,.08a.39.39,0,0,1-.39.39.2.2,0,0,1-.11,0"/><path class="f" d="M534.89,315.74q-.57-7.33-.56-14.69,0-4.65.22-9.28"/><path class="f" d="M533.32,290.66a1,1,0,0,1,.3-.05,1,1,0,0,1,1,.95,1.23,1.23,0,0,1,0,.2"/><path class="f" d="M533.32,290.66a45.29,45.29,0,0,1-11.78.18"/><path class="f" d="M520.57,291.84a1,1,0,0,1,0-.24.79.79,0,0,1,.79-.79.78.78,0,0,1,.22,0"/><path class="f" d="M476.62,320a6.83,6.83,0,0,1-6.83-6.84"/><path class="f" d="M469.78,265.32a6.83,6.83,0,0,1,6.84-6.83"/><path class="f" d="M520.57,263.14a96.45,96.45,0,0,1,.83,12.59c0,3.24-.17,6.47-.49,9.69"/><path class="f" d="M522.79,287.63h-.09a1.83,1.83,0,0,1-1.83-1.84,1.69,1.69,0,0,1,0-.38"/><path class="f" d="M526.77,287.31a14.73,14.73,0,0,1-3.17.35l-.81,0"/><path class="f" d="M534.4,287.5c-.83,0-1.65.06-2.48.06-1.72,0-3.44-.08-5.15-.25"/><path class="f" d="M534.89,287.05s0,.05,0,.08a.39.39,0,0,1-.39.39l-.11,0"/><path class="f" d="M534.89,287.05q-.57-7.33-.56-14.7c0-3.09.07-6.19.22-9.28"/><path class="f" d="M533.32,262a1,1,0,0,1,.3-.05,1,1,0,0,1,1,.95,1.23,1.23,0,0,1,0,.2"/><path class="f" d="M533.32,262a45.29,45.29,0,0,1-11.78.18"/><path class="f" d="M520.57,263.14a.86.86,0,0,1,0-.24.79.79,0,0,1,.79-.78.78.78,0,0,1,.22,0"/></g><polygon class="g" points="388.26 289.87 386.89 291.55 386.16 293.67 386.16 295.94 386.89 298.05 388.26 299.74 388.26 310.38 390.16 310.38 392.05 302.59 392.05 300.32 393.09 296.7 393.09 292.9 392.05 289.28 392.05 287.01 390.16 279.22 388.26 279.22 388.26 289.87"/><line class="f" x1="388.26" y1="279.22" x2="388.26" y2="289.87"/><line class="f" x1="390.16" y1="279.22" x2="388.26" y2="279.22"/><line class="f" x1="392.06" y1="287.01" x2="390.16" y2="279.22"/><line class="f" x1="392.06" y1="289.28" x2="392.06" y2="287.01"/><line class="f" x1="393.09" y1="292.9" x2="392.05" y2="289.28"/><line class="f" x1="393.09" y1="296.7" x2="393.09" y2="292.9"/><line class="f" x1="392.06" y1="300.32" x2="393.09" y2="296.7"/><line class="f" x1="392.06" y1="302.59" x2="392.06" y2="300.32"/><line class="f" x1="390.16" y1="310.38" x2="392.05" y2="302.59"/><line class="f" x1="388.26" y1="310.38" x2="390.16" y2="310.38"/><line class="f" x1="388.26" y1="299.74" x2="388.26" y2="310.38"/><line class="f" x1="386.89" y1="298.05" x2="388.26" y2="299.74"/><line class="f" x1="386.16" y1="295.94" x2="386.89" y2="298.05"/><line class="f" x1="386.16" y1="293.67" x2="386.16" y2="295.94"/><line class="f" x1="386.89" y1="291.55" x2="386.16" y2="293.67"/><line class="f" x1="388.26" y1="289.87" x2="386.89" y2="291.55"/><line class="f" x1="388.26" y1="279.22" x2="388.26" y2="310.38"/><line class="f" x1="392.06" y1="302.59" x2="392.06" y2="287.01"/><line class="f" x1="390.16" y1="279.22" x2="388.26" y2="279.22"/><line class="f" x1="389.02" y1="308.31" x2="389.02" y2="306.23"/><line class="f" x1="389.02" y1="306.23" x2="389.5" y2="306.23"/><line class="f" x1="389.5" y1="306.23" x2="389.5" y2="308.31"/><line class="f" x1="389.5" y1="308.31" x2="389.02" y2="308.31"/><line class="f" x1="389.02" y1="305.71" x2="389.02" y2="303.63"/><line class="f" x1="389.02" y1="303.63" x2="389.5" y2="303.63"/><line class="f" x1="389.5" y1="303.63" x2="389.5" y2="305.71"/><line class="f" x1="389.5" y1="305.71" x2="389.02" y2="305.71"/><line class="f" x1="390.16" y1="279.22" x2="390.16" y2="310.38"/><line class="f" x1="389.5" y1="303.11" x2="389.02" y2="303.11"/><line class="f" x1="389.02" y1="303.11" x2="389.02" y2="302.07"/><line class="f" x1="389.02" y1="302.07" x2="389.5" y2="302.07"/><line class="f" x1="389.5" y1="302.07" x2="389.5" y2="303.11"/><g class="h"><path class="f" d="M388.26,299.74a6.64,6.64,0,0,1,0-9.87"/></g><polygon class="g" points="283.55 314.13 284.05 313.75 284.23 313.16 284.23 275.92 284.05 275.3 283.55 274.89 284.03 274.69 284.23 274.21 284.23 273.18 283.78 271.47 282.52 270.22 280.82 269.76 255.87 269.76 255.39 269.97 255.19 270.45 255.19 340.84 255.39 341.33 255.87 341.52 283.55 341.52 284 341.37 284.27 340.98 284.23 340.5 284.23 315.21 284.17 314.5 283.55 314.13"/><polygon class="g" points="306.44 314.19 309.06 314.71 311.28 316.19 312.76 318.41 313.28 321.02 313.28 334.69 312.76 337.31 311.28 339.52 309.06 341 306.44 341.52 285.26 341.52 284.53 341.23 284.23 340.5 284.23 315.21 284.53 314.49 285.26 314.19 306.44 314.19"/><g class="h"><path class="f" d="M306.45,314.19a6.83,6.83,0,0,1,6.83,6.83"/></g><line class="f" x1="313.28" y1="321.02" x2="313.28" y2="334.69"/><g class="h"><path class="f" d="M313.28,334.69a6.83,6.83,0,0,1-6.83,6.83"/></g><line class="f" x1="306.45" y1="341.52" x2="285.26" y2="341.52"/><g class="h"><path class="f" d="M285.26,341.52a1,1,0,0,1-1-1"/></g><line class="f" x1="284.23" y1="340.5" x2="284.23" y2="315.21"/><g class="h"><path class="f" d="M284.23,315.21a1,1,0,0,1,1-1"/></g><line class="f" x1="285.26" y1="314.19" x2="306.45" y2="314.19"/><line class="f" x1="284.23" y1="274.21" x2="284.23" y2="273.18"/><line class="f" x1="280.82" y1="269.77" x2="255.87" y2="269.77"/><line class="f" x1="255.19" y1="270.45" x2="255.19" y2="274.21"/><line class="f" x1="255.87" y1="274.89" x2="283.55" y2="274.89"/><line class="f" x1="255.19" y1="274.21" x2="255.19" y2="314.19"/><line class="f" x1="255.19" y1="314.19" x2="257.58" y2="314.19"/><line class="f" x1="284.23" y1="313.16" x2="284.23" y2="275.92"/><line class="f" x1="283.21" y1="274.89" x2="266.08" y2="274.89"/><line class="f" x1="266.08" y1="314.19" x2="283.21" y2="314.19"/><line class="f" x1="257.58" y1="274.89" x2="264.03" y2="274.89"/><line class="f" x1="264.03" y1="314.19" x2="257.58" y2="314.19"/><line class="f" x1="284.23" y1="337.08" x2="284.23" y2="340.84"/><line class="f" x1="283.55" y1="341.52" x2="255.87" y2="341.52"/><line class="f" x1="255.19" y1="340.84" x2="255.19" y2="337.08"/><line class="f" x1="255.19" y1="337.08" x2="255.19" y2="314.19"/><line class="f" x1="255.19" y1="314.19" x2="257.58" y2="314.19"/><line class="f" x1="284.23" y1="315.21" x2="284.23" y2="335.38"/><line class="f" x1="266.08" y1="314.19" x2="283.21" y2="314.19"/><line class="f" x1="266.08" y1="314.19" x2="257.58" y2="314.19"/><line class="f" x1="313.28" y1="321.02" x2="313.28" y2="334.69"/><line class="f" x1="306.45" y1="341.52" x2="285.26" y2="341.52"/><line class="f" x1="284.23" y1="340.5" x2="284.23" y2="315.21"/><line class="f" x1="285.26" y1="314.19" x2="306.45" y2="314.19"/><line class="f" x1="256.56" y1="315.21" x2="256.56" y2="340.5"/><line class="f" x1="256.56" y1="313.16" x2="256.56" y2="275.92"/><g class="h"><path class="f" d="M255.19,270.45a.67.67,0,0,1,.68-.68"/><path class="f" d="M255.87,274.89a.67.67,0,0,1-.68-.68"/><path class="f" d="M284.23,274.21a.67.67,0,0,1-.68.68"/><path class="f" d="M283.21,274.89a1,1,0,0,1,1,1"/><path class="f" d="M284.23,313.16a1,1,0,0,1-1,1"/><path class="f" d="M284.23,340.84a.67.67,0,0,1-.68.68"/><path class="f" d="M255.87,341.52a.67.67,0,0,1-.68-.68"/><path class="f" d="M283.21,314.19a1,1,0,0,1,1,1"/><path class="f" d="M285.26,341.52a1,1,0,0,1-1-1"/><path class="f" d="M284.23,315.21a1,1,0,0,1,1-1"/></g><line class="f" x1="256.56" y1="340.5" x2="279.83" y2="340.5"/><g class="h"><path class="f" d="M275.13,339.27a19.4,19.4,0,0,1-14.6-24.09"/><path class="f" d="M261.34,275.92a117.09,117.09,0,0,1,0,37.24"/><path class="f" d="M306.45,314.19a6.83,6.83,0,0,1,6.83,6.83"/><path class="f" d="M313.28,334.69a6.83,6.83,0,0,1-6.83,6.83"/><path class="f" d="M280.82,269.77a3.41,3.41,0,0,1,3.41,3.41"/></g><polygon class="g" points="330.22 228.99 333.06 231.15 335.24 233.98 336.61 237.27 337.07 240.81 343.7 236.99 344.96 235.74 345.42 234.04 344.96 232.33 341.53 226.42 340.28 225.17 338.57 224.71 336.86 225.17 330.22 228.99"/><polygon class="g" points="309.68 240.81 310.14 237.27 311.51 233.98 313.69 231.15 316.53 228.99 309.89 225.17 308.18 224.71 306.47 225.17 305.22 226.42 301.79 232.33 301.33 234.04 301.79 235.74 303.05 236.99 309.68 240.81"/><polygon class="g" points="330.22 252.63 326.92 253.99 323.37 254.46 319.83 253.99 316.53 252.63 316.53 260.26 316.99 261.96 318.24 263.21 319.95 263.67 326.8 263.67 328.51 263.21 329.76 261.96 330.22 260.26 330.22 252.63"/><polygon class="g" points="337.07 240.81 336.61 237.27 335.24 233.98 333.06 231.15 330.22 228.99 326.92 227.62 323.37 227.16 319.83 227.62 316.52 228.99 313.69 231.15 311.51 233.98 310.14 237.27 309.68 240.81 310.14 244.34 311.51 247.63 313.69 250.46 316.52 252.63 319.83 253.99 323.37 254.46 326.92 253.99 330.22 252.63 333.06 250.46 335.24 247.63 336.61 244.34 337.07 240.81"/><line class="f" x1="336.61" y1="244.34" x2="337.07" y2="240.81"/><line class="f" x1="335.24" y1="247.63" x2="336.61" y2="244.34"/><line class="f" x1="333.06" y1="250.46" x2="335.24" y2="247.63"/><line class="f" x1="330.22" y1="252.63" x2="333.06" y2="250.46"/><line class="f" x1="326.92" y1="253.99" x2="330.22" y2="252.62"/><line class="f" x1="323.37" y1="254.46" x2="326.92" y2="253.99"/><line class="f" x1="319.83" y1="253.99" x2="323.37" y2="254.46"/><line class="f" x1="316.53" y1="252.63" x2="319.83" y2="253.99"/><line class="f" x1="313.69" y1="250.46" x2="316.53" y2="252.62"/><line class="f" x1="311.51" y1="247.63" x2="313.69" y2="250.46"/><line class="f" x1="310.14" y1="244.34" x2="311.51" y2="247.63"/><line class="f" x1="309.68" y1="240.81" x2="310.14" y2="244.34"/><line class="f" x1="310.14" y1="237.27" x2="309.68" y2="240.81"/><line class="f" x1="311.51" y1="233.98" x2="310.14" y2="237.27"/><line class="f" x1="313.69" y1="231.15" x2="311.51" y2="233.98"/><line class="f" x1="316.53" y1="228.98" x2="313.69" y2="231.15"/><line class="f" x1="319.83" y1="227.62" x2="316.53" y2="228.98"/><line class="f" x1="323.37" y1="227.16" x2="319.83" y2="227.62"/><line class="f" x1="326.92" y1="227.62" x2="323.37" y2="227.16"/><line class="f" x1="330.22" y1="228.98" x2="326.92" y2="227.62"/><line class="f" x1="333.06" y1="231.15" x2="330.22" y2="228.99"/><line class="f" x1="335.24" y1="233.98" x2="333.06" y2="231.15"/><line class="f" x1="336.61" y1="237.27" x2="335.24" y2="233.98"/><line class="f" x1="337.07" y1="240.81" x2="336.61" y2="237.27"/><g class="h"><path class="f" d="M323.37,254.45a13.65,13.65,0,1,1,0-27.3"/><path class="f" d="M323.37,227.15a13.65,13.65,0,1,1,0,27.3"/></g><line class="f" x1="340.05" y1="227.27" x2="343.47" y2="233.18"/><line class="f" x1="343.7" y1="236.99" x2="337.07" y2="240.81"/><line class="f" x1="341.53" y1="226.42" x2="344.96" y2="232.33"/><line class="f" x1="330.22" y1="228.98" x2="336.85" y2="225.17"/><line class="f" x1="303.28" y1="233.18" x2="306.7" y2="227.27"/><line class="f" x1="309.9" y1="225.17" x2="316.53" y2="228.99"/><line class="f" x1="301.79" y1="232.33" x2="305.22" y2="226.42"/><line class="f" x1="309.68" y1="240.81" x2="303.05" y2="236.99"/><line class="f" x1="326.8" y1="261.96" x2="319.95" y2="261.96"/><line class="f" x1="316.53" y1="260.26" x2="316.53" y2="252.62"/><line class="f" x1="326.8" y1="263.67" x2="319.95" y2="263.67"/><line class="f" x1="330.22" y1="252.63" x2="330.22" y2="260.26"/><g class="h"><path class="f" d="M343.47,233.18a1.63,1.63,0,0,1,.23.86,1.69,1.69,0,0,1-.85,1.47"/><path class="f" d="M337.71,226.65a1.73,1.73,0,0,1,.86-.23,1.7,1.7,0,0,1,1.48.85"/><path class="f" d="M345,232.33A3.42,3.42,0,0,1,343.7,237"/><path class="f" d="M336.86,225.17a3.41,3.41,0,0,1,4.67,1.25"/><path class="f" d="M306.7,227.27a1.71,1.71,0,0,1,1.48-.85,1.73,1.73,0,0,1,.86.23"/><path class="f" d="M303.9,235.51a1.7,1.7,0,0,1-.62-2.33"/><path class="f" d="M305.22,226.42a3.41,3.41,0,0,1,3-1.71,3.46,3.46,0,0,1,1.72.46"/><path class="f" d="M303.05,237a3.42,3.42,0,0,1-1.26-4.66"/><path class="f" d="M320,262a1.7,1.7,0,0,1-1.71-1.71"/><path class="f" d="M328.51,260.26a1.7,1.7,0,0,1-1.71,1.7"/><path class="f" d="M320,263.67a3.42,3.42,0,0,1-3.42-3.41"/><path class="f" d="M330.23,260.26a3.42,3.42,0,0,1-3.43,3.41"/></g><polygon class="g" points="459.19 184 476.96 184 477.32 184.15 477.47 184.51 477.47 198.52 477.32 198.88 476.96 199.03 459.19 199.03 458.83 198.88 458.68 198.52 458.68 184.51 458.83 184.15 459.19 184"/><line class="f" x1="459.19" y1="184" x2="476.96" y2="184"/><g class="h"><path class="f" d="M477,184a.51.51,0,0,1,.51.51"/></g><line class="f" x1="477.47" y1="184.51" x2="477.47" y2="198.52"/><g class="h"><path class="f" d="M477.47,198.52a.51.51,0,0,1-.51.51"/></g><line class="f" x1="476.96" y1="199.03" x2="459.19" y2="199.03"/><g class="h"><path class="f" d="M459.19,199a.51.51,0,0,1-.51-.51"/></g><line class="f" x1="458.68" y1="198.52" x2="458.68" y2="184.51"/><g class="h"><path class="f" d="M458.68,184.51a.51.51,0,0,1,.51-.51"/></g><line class="f" x1="460.22" y1="187.75" x2="475.94" y2="187.75"/><line class="f" x1="476.45" y1="188.27" x2="476.45" y2="197.49"/><line class="f" x1="475.94" y1="198.01" x2="460.22" y2="198.01"/><line class="f" x1="459.7" y1="197.49" x2="459.7" y2="188.27"/><g class="h"><path class="f" d="M475.94,187.75a.51.51,0,0,1,.51.52"/><path class="f" d="M476.45,197.49a.51.51,0,0,1-.51.52"/><path class="f" d="M460.22,198a.52.52,0,0,1-.52-.52"/><path class="f" d="M459.7,188.27a.51.51,0,0,1,.52-.51"/></g><polygon class="g" points="467.22 186.05 467.36 187.48 467.47 187.81 467.7 189.61 467.82 189.85 468.07 189.95 468.33 189.85 468.45 189.61 468.68 187.81 468.79 187.48 468.93 186.05 468.68 185.44 468.07 185.19 467.47 185.44 467.22 186.05"/><g class="h"><path class="f" d="M467.22,186.05a.86.86,0,1,1,1.71,0"/></g><line class="f" x1="468.79" y1="187.48" x2="468.93" y2="186.05"/><g class="h"><path class="f" d="M468.79,187.48a.59.59,0,0,1-.11.32"/></g><line class="f" x1="468.46" y1="189.61" x2="468.68" y2="187.81"/><g class="h"><path class="f" d="M468.46,189.61a.4.4,0,0,1-.38.34.38.38,0,0,1-.38-.34"/></g><line class="f" x1="467.47" y1="187.8" x2="467.7" y2="189.61"/><g class="h"><path class="f" d="M467.47,187.8a.72.72,0,0,1-.11-.32"/></g><line class="f" x1="467.22" y1="186.05" x2="467.36" y2="187.48"/><line class="f" x1="468.54" y1="186.9" x2="468.54" y2="187.41"/><line class="f" x1="467.61" y1="187.41" x2="467.61" y2="186.9"/><line class="f" x1="467.61" y1="186.9" x2="468.54" y2="186.9"/><g class="h"><path class="f" d="M468.54,187.41a.47.47,0,0,1-.93,0"/><path class="f" d="M468.68,187.8a.72.72,0,0,1-1.21,0"/></g><rect class="d" x="399.73" y="314.19" width="20.5" height="34.17"/><line class="f" x1="420.24" y1="348.36" x2="420.24" y2="314.19"/><line class="f" x1="420.24" y1="314.19" x2="399.73" y2="314.19"/><line class="f" x1="399.73" y1="314.19" x2="399.73" y2="348.36"/><line class="f" x1="399.73" y1="348.36" x2="420.24" y2="348.36"/><line class="f" x1="409.98" y1="346.65" x2="409.98" y2="315.9"/><line class="f" x1="416.02" y1="345.07" x2="403.73" y2="342.17"/><line class="f" x1="416.63" y1="341.8" x2="405.2" y2="340.61"/><line class="f" x1="402.59" y1="337.36" x2="415.13" y2="336.38"/><line class="f" x1="404.24" y1="332.32" x2="415.14" y2="333.65"/><line class="f" x1="403.61" y1="330.48" x2="417.04" y2="330.48"/><line class="f" x1="403.55" y1="325.29" x2="416.82" y2="326.52"/><line class="f" x1="403.78" y1="323.34" x2="415.89" y2="323.34"/><line class="f" x1="403.65" y1="318.22" x2="416.08" y2="317.23"/><line class="f" x1="404.5" y1="319.45" x2="415" y2="320.45"/><rect class="d" x="399.73" y="279.67" width="20.5" height="34.51"/><line class="f" x1="420.24" y1="314.19" x2="420.24" y2="279.67"/><line class="f" x1="420.24" y1="279.68" x2="399.73" y2="279.68"/><line class="f" x1="399.73" y1="279.68" x2="399.73" y2="314.19"/><line class="f" x1="399.73" y1="314.19" x2="420.24" y2="314.19"/><line class="f" x1="409.98" y1="312.46" x2="409.98" y2="281.4"/><line class="f" x1="416.02" y1="310.86" x2="403.73" y2="307.94"/><line class="f" x1="416.63" y1="307.57" x2="405.2" y2="306.36"/><line class="f" x1="402.59" y1="303.07" x2="415.13" y2="302.09"/><line class="f" x1="404.24" y1="297.98" x2="415.14" y2="299.33"/><line class="f" x1="403.61" y1="296.13" x2="417.04" y2="296.13"/><line class="f" x1="403.55" y1="290.89" x2="416.82" y2="292.13"/><line class="f" x1="403.78" y1="288.92" x2="415.89" y2="288.92"/><line class="f" x1="403.65" y1="283.74" x2="416.08" y2="282.75"/><line class="f" x1="404.5" y1="284.99" x2="415" y2="286"/><polygon class="g" points="485.68 184 485.68 195.27 485.94 196.96 486.7 198.49 487.9 199.72 489.84 200.73 492 201.08 494.16 200.73 496.1 199.72 497.29 198.49 498.06 196.96 498.32 195.27 498.32 184 485.68 184"/><line class="f" x1="498.32" y1="184" x2="498.32" y2="195.27"/><line class="f" x1="498.32" y1="184" x2="485.68" y2="184"/><line class="f" x1="485.67" y1="184" x2="485.67" y2="195.27"/><line class="f" x1="496.27" y1="188.1" x2="496.27" y2="195.27"/><line class="f" x1="487.72" y1="188.1" x2="487.72" y2="195.27"/><line class="f" x1="487.72" y1="188.1" x2="496.27" y2="188.1"/><g class="h"><path class="f" d="M498.32,195.27a5.57,5.57,0,0,1-2.22,4.44"/><path class="f" d="M487.9,199.71a5.54,5.54,0,0,1-2.23-4.44"/><path class="f" d="M496.1,199.71a6.82,6.82,0,0,1-8.2,0"/><path class="f" d="M487.9,199.71a5.54,5.54,0,0,1-2.23-4.44"/><path class="f" d="M492,201.08a6.81,6.81,0,0,1-4.1-1.37"/><path class="f" d="M489.13,198.07a3.51,3.51,0,0,1-1.41-2.8"/><path class="f" d="M494.87,198.07a4.77,4.77,0,0,1-5.74,0"/><path class="f" d="M496.27,195.27a3.5,3.5,0,0,1-1.4,2.8"/></g><line class="f" x1="546.33" y1="204.16" x2="546.33" y2="204.16"/><line class="f" x1="546.33" y1="204.16" x2="546.33" y2="230.13"/><line class="f" x1="546.33" y1="230.13" x2="546.33" y2="230.13"/><line class="f" x1="306.51" y1="191.76" x2="306.51" y2="186.03"/><line class="f" x1="306.51" y1="186.03" x2="308.84" y2="187.91"/><line class="f" x1="308.84" y1="187.91" x2="311.17" y2="186.03"/><line class="f" x1="311.17" y1="186.03" x2="311.17" y2="191.76"/><polygon class="i" points="423.65 178.87 423.65 170.67 546.33 170.67 546.33 178.87 546.33 348.36 538.13 348.36 538.13 178.87 423.65 178.87"/><polygon class="i" points="252.8 355.19 290.38 355.19 290.38 362.03 257.92 362.03 257.92 447.46 252.8 447.46 252.8 355.19"/><polygon class="i" points="244.25 170.67 386.06 170.67 386.06 178.87 252.8 178.87 252.8 348.36 288.68 348.36 288.68 355.19 252.8 355.19 252.8 447.46 245.96 447.46 245.96 362.03 245.96 177.5 244.25 177.5 244.25 170.67"/><polygon class="i" points="529.59 362.03 529.59 355.19 546.33 355.19 546.33 362.03 542.23 362.03 529.59 362.03"/><polygon class="i" points="464.32 355.19 464.66 362.03 375.81 362.03 375.81 355.19 464.32 355.19"/><rect x="377.52" y="348.36" width="85.43" height="6.83"/><rect x="531.29" y="348.36" width="15.04" height="6.83"/><polygon class="i" points="379.23 231.84 386.06 231.84 386.06 235.25 413.4 235.25 413.4 242.09 379.23 242.09 379.23 231.84"/><rect x="444.16" y="235.25" width="93.97" height="6.83"/><rect x="379.23" y="178.87" width="6.83" height="22.21"/><rect x="386.07" y="170.67" width="1.71" height="3.42"/><rect x="421.95" y="170.67" width="1.71" height="3.42"/><rect x="447.57" y="178.87" width="2.39" height="25.63"/><rect x="447.57" y="231.84" width="2.39" height="3.42"/><rect x="397.34" y="242.09" width="2.39" height="106.27"/><polygon class="i" points="379.23 199.37 360.44 199.37 360.44 178.87 363.85 178.87 363.85 195.96 379.23 195.96 379.23 199.37"/><polygon class="i" points="510.79 178.87 510.79 199.37 538.13 199.37 538.13 202.79 507.37 202.79 507.37 178.87 510.79 178.87"/><rect x="540.86" y="362.03" width="1.37" height="71.76"/><polygon class="i" points="244.25 362.03 244.25 179.21 244.25 177.5 245.96 177.5 245.96 362.03 244.25 362.03"/><rect x="386.07" y="170.67" width="1.71" height="3.42"/><rect x="386.06" y="174.09" width="1.71" height="0.51"/><rect x="421.95" y="170.67" width="1.71" height="3.42"/><rect x="421.95" y="170.67" width="1.71" height="3.42"/><rect x="421.95" y="170.67" width="1.71" height="3.93"/><line class="f" x1="244.25" y1="170.67" x2="244.25" y2="362.03"/><line class="f" x1="244.25" y1="362.03" x2="245.96" y2="362.03"/><line class="f" x1="245.96" y1="362.03" x2="245.96" y2="447.46"/><line class="f" x1="245.96" y1="447.46" x2="542.23" y2="447.46"/><line class="f" x1="542.23" y1="447.46" x2="542.23" y2="362.03"/><line class="f" x1="542.23" y1="362.03" x2="546.33" y2="362.03"/><line class="f" x1="546.33" y1="362.03" x2="546.33" y2="170.67"/><line class="f" x1="546.33" y1="170.67" x2="244.25" y2="170.67"/><path class="j" d="M432,385.43v7h-.72v-6.36h-1.65v-.64Z"/><path class="j" d="M433.64,391.93a.53.53,0,0,1,.53-.54.54.54,0,0,1,.54.54.55.55,0,0,1-.54.55A.54.54,0,0,1,433.64,391.93Z"/><path class="j" d="M435.65,388.93c0-2.23,1.17-3.55,2.79-3.55s2.8,1.32,2.8,3.55-1.18,3.56-2.8,3.56S435.65,391.16,435.65,388.93Zm4.85,0c0-1.87-.84-2.9-2.06-2.9s-2.06,1-2.06,2.9.84,2.9,2.06,2.9S440.5,390.8,440.5,388.93Z"/><path class="j" d="M447,390.37c0,1.19-.83,2.12-2.54,2.12a3.61,3.61,0,0,1-2.51-.9l.35-.57a3,3,0,0,0,2.15.81c1.19,0,1.82-.58,1.82-1.43s-.56-1.46-2.34-1.46h-1.49l.36-3.51h3.83v.64h-3.2l-.24,2.23h.9C446.22,388.3,447,389.13,447,390.37Z"/><path class="j" d="M469.53,212.1v7h-.72v-6.36h-1.65v-.64Z"/><path class="j" d="M471.21,218.6a.53.53,0,0,1,.53-.54.54.54,0,0,1,.54.54.55.55,0,0,1-.54.55A.54.54,0,0,1,471.21,218.6Z"/><path class="j" d="M473.22,215.6c0-2.23,1.17-3.55,2.79-3.55s2.8,1.32,2.8,3.55-1.18,3.56-2.8,3.56S473.22,217.83,473.22,215.6Zm4.85,0c0-1.87-.84-2.9-2.06-2.9s-2.06,1-2.06,2.9.84,2.9,2.06,2.9S478.07,217.47,478.07,215.6Z"/><path class="j" d="M485.79,217.26h-1.4v1.84h-.72v-1.84h-3.95v-.52l3.71-4.64h.8l-3.58,4.52h3V215h.7v1.62h1.4Z"/><path class="j" d="M432,290.05v7h-.72v-6.36h-1.65v-.64Z"/><path class="j" d="M433.64,296.55a.53.53,0,0,1,.53-.54.54.54,0,0,1,.54.54.55.55,0,0,1-.54.55A.54.54,0,0,1,433.64,296.55Z"/><path class="j" d="M435.65,293.55c0-2.23,1.17-3.55,2.79-3.55s2.8,1.32,2.8,3.55-1.18,3.56-2.8,3.56S435.65,295.78,435.65,293.55Zm4.85,0c0-1.87-.84-2.9-2.06-2.9s-2.06,1-2.06,2.9.84,2.9,2.06,2.9S440.5,295.42,440.5,293.55Z"/><path class="j" d="M446.81,295c0,1.17-.85,2.07-2.54,2.07a3.64,3.64,0,0,1-2.52-.9l.35-.57a3.07,3.07,0,0,0,2.17.81c1.16,0,1.8-.54,1.8-1.41s-.59-1.39-1.89-1.39h-.5v-.53l1.94-2.43H442v-.64h4.5v.51l-2,2.49C446.06,293.13,446.81,293.92,446.81,295Z"/><path class="j" d="M334.31,290.05v7h-.72v-6.36h-1.65v-.64Z"/><path class="j" d="M336,296.55a.53.53,0,0,1,.53-.54.54.54,0,0,1,.54.54.55.55,0,0,1-.54.55A.54.54,0,0,1,336,296.55Z"/><path class="j" d="M338,293.55c0-2.23,1.17-3.55,2.79-3.55s2.8,1.32,2.8,3.55-1.18,3.56-2.8,3.56S338,295.78,338,293.55Zm4.85,0c0-1.87-.84-2.9-2.06-2.9s-2.06,1-2.06,2.9.84,2.9,2.06,2.9S342.85,295.42,342.85,293.55Z"/><path class="j" d="M349.39,296.41v.64h-4.91v-.51l2.91-2.85c.79-.78.94-1.25.94-1.73,0-.81-.57-1.31-1.64-1.31a2.38,2.38,0,0,0-1.91.78l-.51-.44a3.14,3.14,0,0,1,2.48-1c1.42,0,2.32.71,2.32,1.88a2.88,2.88,0,0,1-1.15,2.19l-2.38,2.34Z"/><path class="j" d="M399.51,212.1v7h-.72v-6.36h-1.65v-.64Z"/><path class="j" d="M401.19,218.6a.53.53,0,0,1,.53-.54.54.54,0,0,1,.54.54.55.55,0,0,1-.54.55A.54.54,0,0,1,401.19,218.6Z"/><path class="j" d="M403.2,215.6c0-2.23,1.17-3.55,2.79-3.55s2.8,1.32,2.8,3.55-1.18,3.56-2.8,3.56S403.2,217.83,403.2,215.6Zm4.85,0c0-1.87-.84-2.9-2.06-2.9s-2.06,1-2.06,2.9.84,2.9,2.06,2.9S408.05,217.47,408.05,215.6Z"/><path class="j" d="M411.75,212.1v7H411v-6.36h-1.65v-.64Z"/></svg>