<svg xmlns="http://www.w3.org/2000/svg" xmlns:xlink="http://www.w3.org/1999/xlink" viewBox="0 0 790.58 618.13"><defs><style>.a,.f{fill:none;}.b{fill:#595a5c;}.c{fill:#b6906c;}.d{fill:#fff;}.e{fill:#231f20;}.f{stroke:#000;stroke-linecap:round;stroke-linejoin:round;stroke-width:0.35px;}.g{clip-path:url(#a);}.h{fill:#58595b;}</style><clipPath id="a"><polygon class="a" points="301.81 167.81 301.81 363.05 305.98 363.05 305.98 450.32 484.6 450.32 484.6 363.05 488.77 363.05 488.77 167.81 301.81 167.81"/></clipPath></defs><path class="b" d="M55.31,597.13H57.1V609.9H55.31Zm.92,6.11h4.09a1.89,1.89,0,0,0,1-.27,1.82,1.82,0,0,0,.68-.77,2.67,2.67,0,0,0,.24-1.16,2.7,2.7,0,0,0-.24-1.16,1.82,1.82,0,0,0-1.7-1H56.23v-1.7h4a4.09,4.09,0,0,1,2,.48A3.45,3.45,0,0,1,63.62,599a4.64,4.64,0,0,1,0,4.11,3.34,3.34,0,0,1-1.35,1.36,4,4,0,0,1-2,.49h-4Z"/><path class="b" d="M67.7,606.33a2.07,2.07,0,0,0,.49,1.48,1.76,1.76,0,0,0,1.37.52,1.89,1.89,0,0,0,1.37-.46,1.79,1.79,0,0,0,.48-1.33l.12,1.91A2.58,2.58,0,0,1,69.06,610a2.89,2.89,0,0,1-2.33-1,4.08,4.08,0,0,1-.82-2.73v-5.55H67.7Zm.22-7.86a1.93,1.93,0,0,1-.56-1.5,2.07,2.07,0,0,1,.56-1.57,2.56,2.56,0,0,1,3.18,0,2.08,2.08,0,0,1,.57,1.56,1.94,1.94,0,0,1-.57,1.5,2.65,2.65,0,0,1-3.18,0Zm2.26-.86a.94.94,0,0,0,.24-.68,1,1,0,0,0-.24-.7.91.91,0,0,0-.67-.25.92.92,0,0,0-.67.25,1,1,0,0,0-.23.7,1,1,0,0,0,.23.68.92.92,0,0,0,.67.24A.9.9,0,0,0,70.18,597.61Zm1.23,3.17h1.78v9.12H71.41Z"/><path class="b" d="M77.1,609.63A2.82,2.82,0,0,1,76,608.36a5.08,5.08,0,0,1-.36-2v-2a5.05,5.05,0,0,1,.36-2,2.71,2.71,0,0,1,1-1.27,3,3,0,0,1,1.65-.44,2.71,2.71,0,0,1,1.48.42,3.22,3.22,0,0,1,1.09,1.19l-.18,1.86a2.19,2.19,0,0,0-.22-1,1.48,1.48,0,0,0-.61-.63,2,2,0,0,0-1-.21,1.71,1.71,0,0,0-1.37.55,2.26,2.26,0,0,0-.49,1.56v2a2.19,2.19,0,0,0,.49,1.54,1.74,1.74,0,0,0,1.37.54,1.93,1.93,0,0,0,1-.23,1.45,1.45,0,0,0,.61-.64,2.25,2.25,0,0,0,.22-1l.12,1.92a2.66,2.66,0,0,1-.89,1.14,2.56,2.56,0,0,1-1.53.45A3.19,3.19,0,0,1,77.1,609.63Zm4-12.5H82.9V609.9H81.11Z"/><path class="b" d="M87.09,609.57a3.09,3.09,0,0,1-1.29-1.36,4.85,4.85,0,0,1-.44-2.15v-1.48a4.71,4.71,0,0,1,.44-2.12,3.12,3.12,0,0,1,1.29-1.35,4.71,4.71,0,0,1,4.06,0,3.12,3.12,0,0,1,1.29,1.35,4.71,4.71,0,0,1,.44,2.12v1.51a4.79,4.79,0,0,1-.44,2.13,3.12,3.12,0,0,1-1.29,1.35,4.62,4.62,0,0,1-4.06,0Zm3.49-1.83a2.43,2.43,0,0,0,.51-1.65v-1.51a2.43,2.43,0,0,0-.51-1.65,1.88,1.88,0,0,0-1.46-.58,1.85,1.85,0,0,0-1.45.58,2.38,2.38,0,0,0-.52,1.65v1.51a2.38,2.38,0,0,0,.52,1.65,1.82,1.82,0,0,0,1.45.59A1.85,1.85,0,0,0,90.58,607.74Z"/><path class="b" d="M95.43,600.78h1.79v9.12H95.43Zm4.42,1.72a2.16,2.16,0,0,0-.83-.15,1.83,1.83,0,0,0-1.33.47,1.79,1.79,0,0,0-.47,1.31L97,602.37a3.32,3.32,0,0,1,1.09-1.27,2.58,2.58,0,0,1,1.48-.45,3.39,3.39,0,0,1,1.13.18,2.62,2.62,0,0,1,.88.53l-1.17,1.58A1.56,1.56,0,0,0,99.85,602.5Z"/><path class="b" d="M102.15,600.78H104l2.81,7.93-1,1.94Zm8.07,0L106.34,612a2.6,2.6,0,0,1-.56,1,1.87,1.87,0,0,1-.84.52,4,4,0,0,1-1.23.16h-.36V612h.36a1.46,1.46,0,0,0,.8-.2,1.74,1.74,0,0,0,.51-.7l3.38-10.31Z"/><path class="b" d="M113.51,609.88a5.76,5.76,0,0,1-1.32-.48,4.89,4.89,0,0,1-1.13-.79l1.06-1.31a5.86,5.86,0,0,0,1.47.85,4.18,4.18,0,0,0,1.44.28,3.11,3.11,0,0,0,1.6-.33,1.1,1.1,0,0,0,.53-1,.79.79,0,0,0-.29-.66,1.66,1.66,0,0,0-.72-.29c-.29,0-.69-.1-1.22-.14h-.15l-.14,0h-.15a6.45,6.45,0,0,1-1.5-.26,2,2,0,0,1-1-.7,2.38,2.38,0,0,1-.41-1.49,3.07,3.07,0,0,1,.39-1.61,2.41,2.41,0,0,1,1.18-1,5.29,5.29,0,0,1,2-.32,6.38,6.38,0,0,1,2.6.52,6.16,6.16,0,0,1,1.13.66l-1.08,1.31a5.59,5.59,0,0,0-1.35-.66,4,4,0,0,0-1.3-.22,2.44,2.44,0,0,0-1.37.31,1.08,1.08,0,0,0-.46.94.64.64,0,0,0,.26.55,1.72,1.72,0,0,0,.66.25c.26,0,.64.07,1.12.1h.34a7.67,7.67,0,0,1,1.63.25,2.24,2.24,0,0,1,1.13.77,2.62,2.62,0,0,1,.45,1.65,2.92,2.92,0,0,1-.42,1.63,2.54,2.54,0,0,1-1.27,1A5.88,5.88,0,0,1,115,610,7.38,7.38,0,0,1,113.51,609.88Z"/><path class="b" d="M126,597.13h1.8V609.9H126Zm2.6,12.5a2.39,2.39,0,0,1-.93-1.16l.13-1.91a2.22,2.22,0,0,0,.21,1,1.48,1.48,0,0,0,.61.63,1.93,1.93,0,0,0,1,.22,1.74,1.74,0,0,0,1.37-.54,2.18,2.18,0,0,0,.49-1.53v-2a2.26,2.26,0,0,0-.49-1.56,1.71,1.71,0,0,0-1.37-.55,2,2,0,0,0-1,.21,1.36,1.36,0,0,0-.61.62,2.12,2.12,0,0,0-.21,1l-.19-1.76a3.37,3.37,0,0,1,1.08-1.24,2.67,2.67,0,0,1,1.49-.43,3,3,0,0,1,1.65.43,2.9,2.9,0,0,1,1.06,1.27,5.1,5.1,0,0,1,.36,2v2a4.94,4.94,0,0,1-.37,2,2.79,2.79,0,0,1-1.08,1.26,3.25,3.25,0,0,1-1.71.44A2.73,2.73,0,0,1,128.57,609.63Z"/><path class="b" d="M134.46,600.78h1.82l2.81,7.93-1,1.94Zm8.07,0L138.65,612a2.6,2.6,0,0,1-.56,1,1.87,1.87,0,0,1-.84.52,4,4,0,0,1-1.23.16h-.36V612H136a1.46,1.46,0,0,0,.8-.2,1.74,1.74,0,0,0,.51-.7l3.37-10.31Z"/><path class="b" d="M143.57,600.78h4.12v1.62h-4.12Zm1.46,8.56a2.77,2.77,0,0,1-.52-1.81v-9.4h1.8v9.42a.84.84,0,0,0,.13.51.46.46,0,0,0,.39.18h.86V610h-1A2,2,0,0,1,145,609.34Z"/><path class="b" d="M151.94,606.33a2.07,2.07,0,0,0,.49,1.48,1.76,1.76,0,0,0,1.37.52,1.91,1.91,0,0,0,1.37-.46,1.79,1.79,0,0,0,.48-1.33l.12,1.91A2.58,2.58,0,0,1,153.3,610a2.89,2.89,0,0,1-2.33-1,4.08,4.08,0,0,1-.82-2.73v-5.55h1.79Zm3.71-5.55h1.78v9.12h-1.78Z"/><rect class="c" x="612.92" y="591.68" width="35.43" height="2.83"/><path class="d" d="M648.48,594.64H612.79v-3.08h35.69ZM613,594.39h35.19v-2.58H613Z"/><rect class="c" x="612.92" y="601.6" width="70.74" height="2.83"/><path class="d" d="M683.78,604.56h-71v-3.08h71ZM613,604.31h70.49v-2.58H613Z"/><rect class="c" x="612.92" y="612.72" width="177.16" height="2.84"/><path class="d" d="M790.21,615.68H612.79V612.6H790.21ZM613,615.43H790v-2.58H613Z"/><path class="e" d="M587.26,596.28h-.8v-4.82l-.81.5v-.83l.81-.53h.8Z"/><path class="e" d="M589,595.91a1.67,1.67,0,0,1-.41-1.19v-2.58A1.65,1.65,0,0,1,589,591a2,2,0,0,1,2.42,0,1.65,1.65,0,0,1,.41,1.19v2.58a1.65,1.65,0,0,1-.41,1.19,2,2,0,0,1-2.42,0Zm1.83-.55a.89.89,0,0,0,.2-.64v-2.58a.89.89,0,0,0-.2-.64.82.82,0,0,0-.62-.22.86.86,0,0,0-.63.22.94.94,0,0,0-.2.64v2.58a.9.9,0,0,0,.21.64,1,1,0,0,0,1.24,0Z"/><path class="e" d="M593.22,595.91a1.67,1.67,0,0,1-.41-1.19v-2.58a1.65,1.65,0,0,1,.41-1.19,2,2,0,0,1,2.42,0,1.61,1.61,0,0,1,.41,1.19v2.58a1.65,1.65,0,0,1-.41,1.19,2,2,0,0,1-2.42,0Zm1.83-.55a.9.9,0,0,0,.21-.64v-2.58a.94.94,0,0,0-.2-.64.86.86,0,0,0-.63-.22.82.82,0,0,0-.62.22.89.89,0,0,0-.2.64v2.58a.89.89,0,0,0,.2.64,1,1,0,0,0,1.24,0Z"/><path class="e" d="M600.1,596.13a1.45,1.45,0,0,1-.6-.6,2.06,2.06,0,0,1-.21-1v-.67a2,2,0,0,1,.21-.94,1.37,1.37,0,0,1,.6-.59,2,2,0,0,1,.95-.21,2.21,2.21,0,0,1,.59.08,1.68,1.68,0,0,1,.51.22,1.54,1.54,0,0,1,.37.35l-.58.52a1.17,1.17,0,0,0-.4-.3,1.13,1.13,0,0,0-.48-.11.94.94,0,0,0-.71.26,1,1,0,0,0-.26.72v.67a1,1,0,0,0,.25.74.94.94,0,0,0,.72.27,1,1,0,0,0,.48-.12,1,1,0,0,0,.4-.32l.58.56a1.38,1.38,0,0,1-.38.34,1.62,1.62,0,0,1-.5.22,2.27,2.27,0,0,1-.59.07A2.12,2.12,0,0,1,600.1,596.13Z"/><path class="e" d="M603.4,592.22h.79v4.06h-.79Zm2.42,1.6a1,1,0,0,0-.21-.67.78.78,0,0,0-.6-.23.81.81,0,0,0-.6.21.73.73,0,0,0-.22.58l-.08-.78a1.46,1.46,0,0,1,.49-.57,1.22,1.22,0,0,1,.67-.2,1.33,1.33,0,0,1,.73.2,1.18,1.18,0,0,1,.46.56,2.4,2.4,0,0,1,.15.89v2.47h-.79Zm2.42,0a.93.93,0,0,0-.22-.67.85.85,0,0,0-.63-.23.72.72,0,0,0-.57.23.9.9,0,0,0-.21.64l-.16-.78a1.61,1.61,0,0,1,.51-.63,1.23,1.23,0,0,1,.69-.22,1.37,1.37,0,0,1,.75.2,1.09,1.09,0,0,1,.47.56,2.21,2.21,0,0,1,.17.89v2.47h-.8Z"/><path class="e" d="M584.33,605.5l2-2.64a1.85,1.85,0,0,0,.27-.47,1.29,1.29,0,0,0,.09-.45h0a.67.67,0,0,0-.2-.53.81.81,0,0,0-.56-.19.76.76,0,0,0-.56.21,1,1,0,0,0-.27.58h-.82a2,2,0,0,1,.29-.83,1.42,1.42,0,0,1,.56-.53,1.67,1.67,0,0,1,.79-.18,1.93,1.93,0,0,1,.87.17,1.21,1.21,0,0,1,.54.51,1.55,1.55,0,0,1,.19.8h0a1.84,1.84,0,0,1-.12.63,2.8,2.8,0,0,1-.35.63l-1.65,2.24h2.15v.76h-3.2Z"/><path class="e" d="M589,605.83a1.67,1.67,0,0,1-.41-1.19v-2.58a1.65,1.65,0,0,1,.41-1.19,2,2,0,0,1,2.42,0,1.65,1.65,0,0,1,.41,1.19v2.58a1.65,1.65,0,0,1-.41,1.19,2,2,0,0,1-2.42,0Zm1.83-.55a.89.89,0,0,0,.2-.64v-2.58a.89.89,0,0,0-.2-.64.82.82,0,0,0-.62-.22.86.86,0,0,0-.63.22.94.94,0,0,0-.19.64v2.58a.89.89,0,0,0,.2.64,1,1,0,0,0,1.24,0Z"/><path class="e" d="M593.22,605.83a1.67,1.67,0,0,1-.41-1.19v-2.58a1.61,1.61,0,0,1,.42-1.19,1.59,1.59,0,0,1,1.2-.42,1.45,1.45,0,0,1,1.62,1.61v2.58a1.61,1.61,0,0,1-.41,1.19,2,2,0,0,1-2.42,0Zm1.84-.55a.94.94,0,0,0,.2-.64v-2.58a.94.94,0,0,0-.2-.64.84.84,0,0,0-.63-.22.82.82,0,0,0-.62.22.89.89,0,0,0-.2.64v2.58a.89.89,0,0,0,.2.64.82.82,0,0,0,.62.22A.86.86,0,0,0,595.06,605.28Z"/><path class="e" d="M600.1,606.05a1.45,1.45,0,0,1-.6-.6,2.06,2.06,0,0,1-.2-1v-.67a2,2,0,0,1,.2-.94,1.37,1.37,0,0,1,.6-.59,2,2,0,0,1,.95-.21,2.35,2.35,0,0,1,.6.08,1.73,1.73,0,0,1,.5.22,1.38,1.38,0,0,1,.37.35l-.58.52a1.08,1.08,0,0,0-.4-.3,1.13,1.13,0,0,0-.48-.11,1,1,0,0,0-.71.26,1,1,0,0,0-.26.72v.67a1,1,0,0,0,.25.74.94.94,0,0,0,.72.27,1.14,1.14,0,0,0,.88-.44l.58.56a1.38,1.38,0,0,1-.38.34,1.62,1.62,0,0,1-.5.22,2.22,2.22,0,0,1-.59.07A2.12,2.12,0,0,1,600.1,606.05Z"/><path class="e" d="M603.4,602.14h.79v4.06h-.79Zm2.42,1.6a1,1,0,0,0-.21-.67.78.78,0,0,0-.6-.23.81.81,0,0,0-.6.21.73.73,0,0,0-.22.58l-.08-.78a1.46,1.46,0,0,1,.49-.57,1.22,1.22,0,0,1,.67-.2,1.3,1.3,0,0,1,.73.2,1.18,1.18,0,0,1,.46.56,2.4,2.4,0,0,1,.16.89v2.47h-.8Zm2.42,0a.93.93,0,0,0-.22-.67.85.85,0,0,0-.63-.23.73.73,0,0,0-.57.23.89.89,0,0,0-.2.64l-.16-.78a1.51,1.51,0,0,1,.5-.63,1.23,1.23,0,0,1,.69-.22,1.35,1.35,0,0,1,.75.2,1.16,1.16,0,0,1,.48.56,2.4,2.4,0,0,1,.16.89v2.47h-.8Z"/><path class="e" d="M585,615.58a1.34,1.34,0,0,1-.54-.49,2,2,0,0,1-.28-.77h.8a.75.75,0,0,0,.25.49.85.85,0,0,0,.54.17.72.72,0,0,0,.59-.25,1.1,1.1,0,0,0,.21-.72v-.48a1.1,1.1,0,0,0-.21-.72.72.72,0,0,0-.59-.25.83.83,0,0,0-.4.11,1.18,1.18,0,0,0-.34.33h-.72v-3h2.89v.76h-2.1V612a1,1,0,0,1,.34-.18.94.94,0,0,1,.37-.07,1.68,1.68,0,0,1,.84.2,1.29,1.29,0,0,1,.53.6,2.07,2.07,0,0,1,.19.94V614a2.25,2.25,0,0,1-.19.94,1.31,1.31,0,0,1-.55.59,1.69,1.69,0,0,1-.86.21A1.74,1.74,0,0,1,585,615.58Z"/><path class="e" d="M589,615.32a1.65,1.65,0,0,1-.41-1.19v-2.58a1.67,1.67,0,0,1,.41-1.19,2,2,0,0,1,2.42,0,1.65,1.65,0,0,1,.41,1.19v2.58a1.64,1.64,0,0,1-.41,1.19,1.92,1.92,0,0,1-2.42,0Zm1.83-.55a.89.89,0,0,0,.2-.64v-2.58a.88.88,0,0,0-.2-.63.78.78,0,0,0-.62-.22.82.82,0,0,0-.63.22.93.93,0,0,0-.2.63v2.58a.9.9,0,0,0,.21.64,1,1,0,0,0,1.24,0Z"/><path class="e" d="M593.22,615.32a1.65,1.65,0,0,1-.41-1.19v-2.58a1.67,1.67,0,0,1,.41-1.19,2,2,0,0,1,2.42,0,1.61,1.61,0,0,1,.41,1.19v2.58a1.64,1.64,0,0,1-.41,1.19,1.92,1.92,0,0,1-2.42,0Zm1.83-.55a.9.9,0,0,0,.21-.64v-2.58a.93.93,0,0,0-.2-.63.82.82,0,0,0-.63-.22.78.78,0,0,0-.62.22.88.88,0,0,0-.2.63v2.58a.89.89,0,0,0,.2.64,1,1,0,0,0,1.24,0Z"/><path class="e" d="M600.1,615.54a1.45,1.45,0,0,1-.6-.6,2,2,0,0,1-.21-1v-.67a2,2,0,0,1,.21-.94,1.45,1.45,0,0,1,.6-.6,2,2,0,0,1,.95-.2,2.22,2.22,0,0,1,.59.07,2,2,0,0,1,.51.22,1.76,1.76,0,0,1,.37.35l-.58.52a1.17,1.17,0,0,0-.4-.3,1.13,1.13,0,0,0-.48-.11.94.94,0,0,0-.71.26,1,1,0,0,0-.26.73V614a1.07,1.07,0,0,0,.25.74,1,1,0,0,0,.72.26,1.13,1.13,0,0,0,.48-.11,1.26,1.26,0,0,0,.4-.32l.58.55a1.42,1.42,0,0,1-.38.35,1.88,1.88,0,0,1-.5.21,2.27,2.27,0,0,1-.59.08A2,2,0,0,1,600.1,615.54Z"/><path class="e" d="M603.4,611.63h.79v4.06h-.79Zm2.42,1.6a1,1,0,0,0-.21-.66.75.75,0,0,0-.6-.24.81.81,0,0,0-.6.21.75.75,0,0,0-.22.58l-.08-.78a1.5,1.5,0,0,1,.49-.56,1.15,1.15,0,0,1,.67-.2,1.32,1.32,0,0,1,.73.19,1.28,1.28,0,0,1,.46.56,2.42,2.42,0,0,1,.15.9v2.46h-.79Zm2.42,0a.91.91,0,0,0-.22-.66.82.82,0,0,0-.63-.24.72.72,0,0,0-.57.23.9.9,0,0,0-.21.64l-.16-.78a1.51,1.51,0,0,1,.51-.62,1.16,1.16,0,0,1,.69-.22,1.37,1.37,0,0,1,.75.19,1.18,1.18,0,0,1,.47.56,2.22,2.22,0,0,1,.17.9v2.46h-.8Z"/><path class="c" d="M23.49,613.89A12.92,12.92,0,1,1,36.4,601,12.93,12.93,0,0,1,23.49,613.89Zm0-24.83A11.92,11.92,0,1,0,35.4,601,11.93,11.93,0,0,0,23.49,589.06Z"/><polygon class="d" points="35.77 588.74 9.42 600.98 35.77 613.21 32.02 600.98 35.77 588.74"/><path class="c" d="M36.58,614.14,8.23,601l28.35-13.17-4,13.17ZM10.61,601,35,612.29,31.5,601,35,589.66Z"/><path class="c" d="M2.52,605.19a5,5,0,0,1-1.11-.38,4.4,4.4,0,0,1-1-.64l.81-1a3.72,3.72,0,0,0,1.16.69,4.08,4.08,0,0,0,1.38.23,2.73,2.73,0,0,0,1.55-.38,1.17,1.17,0,0,0,.55-1.05h0a1.12,1.12,0,0,0-.25-.77,1.44,1.44,0,0,0-.64-.42,8.23,8.23,0,0,0-1-.25H3.89l-.1,0a9.48,9.48,0,0,1-1.5-.36,2.08,2.08,0,0,1-1-.73,2.42,2.42,0,0,1-.41-1.51h0a2.77,2.77,0,0,1,.38-1.47,2.44,2.44,0,0,1,1.12-.92,4.48,4.48,0,0,1,1.77-.32,4.6,4.6,0,0,1,1,.11,4.9,4.9,0,0,1,1.86.86l-.73,1a4.61,4.61,0,0,0-1-.58,3,3,0,0,0-1.06-.2,2.44,2.44,0,0,0-1.46.38,1.24,1.24,0,0,0-.53,1.07h0a1,1,0,0,0,.27.75,1.74,1.74,0,0,0,.67.4,9.3,9.3,0,0,0,1.12.27h.24a7.93,7.93,0,0,1,1.4.41,2.22,2.22,0,0,1,.94.76,2.4,2.4,0,0,1,.38,1.43h0a2.62,2.62,0,0,1-.4,1.45,2.54,2.54,0,0,1-1.16.91,4.8,4.8,0,0,1-1.83.31A6.44,6.44,0,0,1,2.52,605.19Z"/><rect class="c" x="612.5" y="600.68" width="1" height="4.68"/><rect class="c" x="612.5" y="590.76" width="1" height="4.68"/><rect class="c" x="612.5" y="611.45" width="1" height="5.24"/><rect class="c" x="789.58" y="611.45" width="1" height="5.24"/><rect class="c" x="682.59" y="600.68" width="1" height="4.68"/><rect class="c" x="647.3" y="590.76" width="1" height="4.68"/><rect class="a" width="790.34" height="618.13"/><line class="f" x1="449.16" y1="176.18" x2="480.43" y2="176.18"/><line class="f" x1="480.43" y1="176.18" x2="480.43" y2="191.87"/><line class="f" x1="480.43" y1="191.87" x2="449.16" y2="191.87"/><line class="f" x1="449.16" y1="191.87" x2="449.16" y2="176.18"/><rect class="d" x="444.81" y="196.22" width="31.28" height="31.38"/><line class="f" x1="444.81" y1="196.22" x2="444.81" y2="227.6"/><line class="f" x1="476.09" y1="196.22" x2="444.81" y2="196.22"/><line class="f" x1="476.09" y1="227.6" x2="476.09" y2="196.22"/><line class="f" x1="444.81" y1="227.6" x2="476.09" y2="227.6"/><rect class="d" x="370.79" y="177.05" width="20.85" height="20.92"/><line class="f" x1="370.79" y1="177.05" x2="370.79" y2="197.97"/><line class="f" x1="391.64" y1="177.05" x2="370.79" y2="177.05"/><line class="f" x1="391.64" y1="197.97" x2="391.64" y2="177.05"/><line class="f" x1="370.79" y1="197.97" x2="391.64" y2="197.97"/><rect class="d" x="310.15" y="235.45" width="20.85" height="20.92"/><line class="f" x1="310.15" y1="235.45" x2="310.15" y2="256.36"/><line class="f" x1="331" y1="235.45" x2="310.15" y2="235.45"/><line class="f" x1="331" y1="256.36" x2="331" y2="235.45"/><line class="f" x1="310.15" y1="256.36" x2="331" y2="256.36"/><rect class="d" x="372.35" y="235.45" width="108.08" height="21.27"/><line class="f" x1="372.36" y1="235.45" x2="372.36" y2="256.71"/><line class="f" x1="480.43" y1="235.45" x2="372.36" y2="235.45"/><line class="f" x1="480.43" y1="256.71" x2="480.43" y2="235.45"/><line class="f" x1="372.36" y1="256.71" x2="480.43" y2="256.71"/><rect class="d" x="476.96" y="195.35" width="3.47" height="33.12"/><line class="f" x1="476.96" y1="195.35" x2="476.96" y2="228.47"/><line class="f" x1="480.43" y1="195.35" x2="476.96" y2="195.35"/><line class="f" x1="480.43" y1="228.47" x2="480.43" y2="195.35"/><line class="f" x1="476.96" y1="228.47" x2="480.43" y2="228.47"/><line class="f" x1="476.96" y1="228.47" x2="369.92" y2="228.47"/><line class="f" x1="367.49" y1="228.47" x2="370.96" y2="228.47"/><line class="f" x1="334.48" y1="235.45" x2="362.28" y2="235.45"/><line class="f" x1="334.48" y1="235.45" x2="334.48" y2="263.34"/><g class="g"><path class="f" d="M362.28,235.45a27.85,27.85,0,0,1-27.8,27.89"/></g><line class="f" x1="334.48" y1="228.47" x2="334.48" y2="235.45"/><line class="f" x1="362.28" y1="235.45" x2="362.28" y2="228.47"/><line class="f" x1="362.28" y1="235.45" x2="364.02" y2="235.45"/><line class="f" x1="362.28" y1="228.47" x2="364.02" y2="228.47"/><line class="f" x1="332.74" y1="235.45" x2="334.48" y2="235.45"/><line class="f" x1="332.74" y1="228.47" x2="334.48" y2="228.47"/><line class="f" x1="334.48" y1="228.47" x2="341.43" y2="228.47"/><line class="f" x1="345.25" y1="228.47" x2="346.03" y2="228.47"/><line class="f" x1="349.85" y1="228.47" x2="350.64" y2="228.47"/><line class="f" x1="354.46" y1="228.47" x2="355.33" y2="228.47"/><line class="f" x1="355.33" y1="228.47" x2="362.28" y2="228.47"/><line class="f" x1="334.48" y1="235.45" x2="334.48" y2="236.32"/><line class="f" x1="334.48" y1="236.32" x2="331" y2="236.32"/><line class="f" x1="331" y1="236.32" x2="331" y2="235.45"/><line class="f" x1="334.48" y1="228.47" x2="334.48" y2="227.6"/><line class="f" x1="334.48" y1="227.6" x2="331" y2="227.6"/><line class="f" x1="331" y1="227.6" x2="331" y2="228.47"/><line class="f" x1="362.28" y1="236.32" x2="365.75" y2="236.32"/><line class="f" x1="365.75" y1="236.32" x2="365.75" y2="235.45"/><line class="f" x1="362.28" y1="228.47" x2="362.28" y2="227.6"/><line class="f" x1="362.28" y1="227.6" x2="365.75" y2="227.6"/><line class="f" x1="365.75" y1="227.6" x2="365.75" y2="228.47"/><line class="f" x1="305.98" y1="450.21" x2="484.6" y2="450.21"/><line class="f" x1="305.98" y1="438.01" x2="484.6" y2="438.01"/><line class="f" x1="416.49" y1="167.81" x2="488.77" y2="167.81"/><line class="f" x1="310.15" y1="176.18" x2="329.26" y2="176.18"/><line class="f" x1="480.43" y1="195.35" x2="480.43" y2="228.47"/><line class="f" x1="480.43" y1="235.45" x2="480.43" y2="349.1"/><line class="f" x1="416.49" y1="167.81" x2="416.49" y2="167.81"/><line class="f" x1="408.15" y1="167.81" x2="408.15" y2="167.81"/><line class="f" x1="310.15" y1="176.18" x2="310.15" y2="228.47"/><line class="f" x1="310.15" y1="235.45" x2="310.15" y2="349.1"/><line class="f" x1="484.6" y1="363.05" x2="445.16" y2="363.05"/><line class="f" x1="344.38" y1="363.05" x2="305.98" y2="363.05"/><line class="f" x1="488.77" y1="349.1" x2="488.77" y2="349.1"/><line class="f" x1="307.37" y1="363.05" x2="305.98" y2="363.05"/><line class="f" x1="480.43" y1="349.1" x2="446.9" y2="349.1"/><line class="f" x1="342.64" y1="349.1" x2="310.15" y2="349.1"/><line class="f" x1="488.77" y1="356.08" x2="446.9" y2="356.08"/><line class="f" x1="342.64" y1="356.08" x2="301.81" y2="356.08"/><line class="f" x1="408.15" y1="167.81" x2="365.75" y2="167.81"/><line class="f" x1="367.49" y1="176.18" x2="369.92" y2="176.18"/><line class="f" x1="369.92" y1="176.18" x2="445.68" y2="176.18"/><line class="f" x1="369.92" y1="226.73" x2="369.92" y2="228.47"/><line class="f" x1="369.92" y1="176.18" x2="369.92" y2="198.84"/><line class="f" x1="367.49" y1="226.73" x2="367.49" y2="228.47"/><line class="f" x1="367.49" y1="171.82" x2="367.49" y2="198.84"/><line class="f" x1="367.49" y1="226.73" x2="369.92" y2="226.73"/><line class="f" x1="367.49" y1="198.84" x2="369.92" y2="198.84"/><line class="f" x1="445.68" y1="195.35" x2="476.96" y2="195.35"/><line class="f" x1="364.02" y1="228.47" x2="367.49" y2="228.47"/><line class="f" x1="332.74" y1="228.47" x2="310.15" y2="228.47"/><line class="f" x1="480.43" y1="235.45" x2="364.02" y2="235.45"/><line class="f" x1="332.74" y1="235.45" x2="310.15" y2="235.45"/><line class="f" x1="367.49" y1="176.18" x2="360.54" y2="176.18"/><line class="f" x1="356.72" y1="176.18" x2="355.94" y2="176.18"/><line class="f" x1="352.11" y1="176.18" x2="351.33" y2="176.18"/><line class="f" x1="347.51" y1="176.18" x2="340.56" y2="176.18"/><line class="f" x1="336.74" y1="176.18" x2="336.21" y2="176.18"/><line class="f" x1="336.21" y1="176.18" x2="329.26" y2="176.18"/><line class="f" x1="329.26" y1="171.82" x2="329.26" y2="167.81"/><line class="f" x1="365.75" y1="171.82" x2="365.75" y2="167.81"/><line class="f" x1="331" y1="171.82" x2="331" y2="167.81"/><line class="f" x1="331" y1="171.82" x2="329.26" y2="171.82"/><line class="f" x1="365.75" y1="171.82" x2="367.49" y2="171.82"/><line class="f" x1="329.26" y1="171.82" x2="329.26" y2="176.18"/><line class="f" x1="364.02" y1="171.82" x2="332.74" y2="171.82"/><line class="f" x1="364.02" y1="167.81" x2="332.74" y2="167.81"/><line class="f" x1="364.02" y1="171.82" x2="364.02" y2="203.2"/><g class="g"><path class="f" d="M364,203.2a31.33,31.33,0,0,1-31.28-31.38"/></g><line class="f" x1="364.02" y1="167.81" x2="364.02" y2="171.82"/><line class="f" x1="332.74" y1="171.82" x2="332.74" y2="167.81"/><line class="f" x1="332.74" y1="171.82" x2="331" y2="171.82"/><line class="f" x1="332.74" y1="167.81" x2="331" y2="167.81"/><line class="f" x1="365.75" y1="171.82" x2="364.02" y2="171.82"/><line class="f" x1="365.75" y1="167.81" x2="364.02" y2="167.81"/><line class="f" x1="332.74" y1="228.47" x2="332.74" y2="235.45"/><line class="f" x1="364.02" y1="228.47" x2="364.02" y2="235.45"/><line class="f" x1="367.49" y1="171.82" x2="367.49" y2="167.81"/><line class="f" x1="307.89" y1="415.35" x2="314.84" y2="415.35"/><line class="f" x1="318.66" y1="415.35" x2="319.45" y2="415.35"/><line class="f" x1="323.27" y1="415.35" x2="324.05" y2="415.35"/><line class="f" x1="327.87" y1="415.35" x2="334.82" y2="415.35"/><line class="f" x1="338.65" y1="415.35" x2="339.43" y2="415.35"/><line class="f" x1="343.25" y1="415.35" x2="344.03" y2="415.35"/><line class="f" x1="347.86" y1="415.35" x2="354.81" y2="415.35"/><line class="f" x1="358.63" y1="415.35" x2="359.41" y2="415.35"/><line class="f" x1="363.23" y1="415.35" x2="364.02" y2="415.35"/><line class="f" x1="367.84" y1="415.35" x2="374.79" y2="415.35"/><line class="f" x1="378.61" y1="415.35" x2="379.39" y2="415.35"/><line class="f" x1="383.22" y1="415.35" x2="384" y2="415.35"/><line class="f" x1="387.82" y1="415.35" x2="394.77" y2="415.35"/><line class="f" x1="398.59" y1="415.35" x2="399.38" y2="415.35"/><line class="f" x1="403.2" y1="415.35" x2="403.98" y2="415.35"/><line class="f" x1="407.8" y1="415.35" x2="414.75" y2="415.35"/><line class="f" x1="418.58" y1="415.35" x2="419.36" y2="415.35"/><line class="f" x1="423.18" y1="415.35" x2="423.96" y2="415.35"/><line class="f" x1="427.78" y1="415.35" x2="434.73" y2="415.35"/><line class="f" x1="438.56" y1="415.35" x2="439.34" y2="415.35"/><line class="f" x1="443.16" y1="415.35" x2="443.94" y2="415.35"/><line class="f" x1="447.77" y1="415.35" x2="454.72" y2="415.35"/><line class="f" x1="458.54" y1="415.35" x2="459.32" y2="415.35"/><line class="f" x1="463.14" y1="415.35" x2="463.93" y2="415.35"/><line class="f" x1="467.75" y1="415.35" x2="474.7" y2="415.35"/><line class="f" x1="478.52" y1="415.35" x2="479.3" y2="415.35"/><line class="f" x1="481.82" y1="415.35" x2="484.6" y2="415.35"/><line class="f" x1="446.9" y1="349.1" x2="446.9" y2="356.08"/><line class="f" x1="342.64" y1="349.1" x2="342.64" y2="356.08"/><line class="f" x1="344.38" y1="363.05" x2="375.66" y2="363.05"/><line class="f" x1="342.64" y1="349.1" x2="377.39" y2="349.1"/><line class="f" x1="412.15" y1="349.1" x2="412.15" y2="356.08"/><line class="f" x1="412.15" y1="349.1" x2="446.9" y2="349.1"/><line class="f" x1="413.88" y1="359.56" x2="445.16" y2="359.56"/><line class="f" x1="413.88" y1="363.05" x2="420.83" y2="363.05"/><line class="f" x1="424.66" y1="363.05" x2="425.44" y2="363.05"/><line class="f" x1="429.26" y1="363.05" x2="430.04" y2="363.05"/><line class="f" x1="433.87" y1="363.05" x2="438.21" y2="363.05"/><line class="f" x1="438.21" y1="363.05" x2="445.16" y2="363.05"/><line class="f" x1="483.21" y1="363.05" x2="483.21" y2="434.52"/><line class="f" x1="483.21" y1="434.52" x2="484.6" y2="434.52"/><line class="f" x1="307.37" y1="363.05" x2="307.37" y2="434.52"/><line class="f" x1="305.98" y1="434.52" x2="307.37" y2="434.52"/><line class="f" x1="445.68" y1="176.18" x2="449.16" y2="176.18"/><line class="f" x1="480.43" y1="191.87" x2="480.43" y2="195.35"/><line class="f" x1="377.39" y1="349.1" x2="377.39" y2="356.08"/><line class="f" x1="377.39" y1="349.1" x2="412.15" y2="349.1"/><line class="f" x1="375.66" y1="363.05" x2="413.88" y2="363.05"/><line class="f" x1="412.15" y1="356.08" x2="377.39" y2="356.08"/><line class="f" x1="375.66" y1="356.08" x2="375.66" y2="363.05"/><line class="f" x1="375.66" y1="356.08" x2="377.39" y2="356.08"/><line class="f" x1="445.16" y1="356.08" x2="445.16" y2="363.05"/><line class="f" x1="445.16" y1="356.08" x2="446.9" y2="356.08"/><line class="f" x1="413.88" y1="356.08" x2="413.88" y2="363.05"/><line class="f" x1="412.15" y1="356.08" x2="413.88" y2="356.08"/><line class="f" x1="344.38" y1="356.08" x2="344.38" y2="363.05"/><line class="f" x1="342.64" y1="356.08" x2="344.38" y2="356.08"/><line class="f" x1="414.93" y1="355.38" x2="414.93" y2="356.08"/><line class="f" x1="414.93" y1="356.08" x2="412.15" y2="356.08"/><line class="f" x1="412.15" y1="356.08" x2="412.15" y2="353.29"/><line class="f" x1="412.15" y1="353.29" x2="413.54" y2="353.29"/><line class="f" x1="445.51" y1="355.38" x2="413.54" y2="355.38"/><line class="f" x1="413.54" y1="355.38" x2="413.54" y2="352.59"/><line class="f" x1="445.51" y1="355.38" x2="445.51" y2="320.52"/><line class="f" x1="416.32" y1="353.99" x2="442.73" y2="353.99"/><g class="g"><path class="f" d="M413.54,352.59a32,32,0,0,1,32-32.07"/></g><line class="f" x1="444.12" y1="355.38" x2="444.12" y2="356.08"/><line class="f" x1="444.12" y1="356.08" x2="446.9" y2="356.08"/><line class="f" x1="446.9" y1="356.08" x2="446.9" y2="353.29"/><line class="f" x1="446.9" y1="353.29" x2="445.51" y2="353.29"/><line class="f" x1="345.42" y1="355.38" x2="345.42" y2="356.08"/><line class="f" x1="345.42" y1="356.08" x2="342.64" y2="356.08"/><line class="f" x1="342.64" y1="356.08" x2="342.64" y2="353.29"/><line class="f" x1="342.64" y1="353.29" x2="344.03" y2="353.29"/><line class="f" x1="376" y1="355.38" x2="344.03" y2="355.38"/><line class="f" x1="344.03" y1="355.38" x2="344.03" y2="352.59"/><line class="f" x1="376" y1="355.38" x2="376" y2="352.59"/><line class="f" x1="346.81" y1="353.99" x2="373.22" y2="353.99"/><line class="f" x1="374.61" y1="355.38" x2="374.61" y2="356.08"/><line class="f" x1="374.61" y1="356.08" x2="377.4" y2="356.08"/><line class="f" x1="377.39" y1="356.08" x2="377.39" y2="353.29"/><line class="f" x1="377.39" y1="353.29" x2="376" y2="353.29"/><line class="f" x1="301.81" y1="167.81" x2="331" y2="167.81"/><line class="f" x1="476.96" y1="195.35" x2="476.96" y2="228.47"/><line class="f" x1="476.96" y1="195.35" x2="480.43" y2="195.35"/><line class="f" x1="369.92" y1="224.99" x2="369.92" y2="200.58"/><line class="f" x1="369.92" y1="224.99" x2="394.25" y2="224.99"/><g class="g"><path class="f" d="M369.92,200.58A24.37,24.37,0,0,1,394.25,225"/></g><line class="f" x1="367.49" y1="224.99" x2="369.92" y2="224.99"/><line class="f" x1="369.92" y1="200.58" x2="367.49" y2="200.58"/><line class="f" x1="369.92" y1="200.58" x2="369.92" y2="198.84"/><line class="f" x1="367.49" y1="200.58" x2="367.49" y2="198.84"/><line class="f" x1="369.92" y1="226.73" x2="369.92" y2="224.99"/><line class="f" x1="367.49" y1="226.73" x2="367.49" y2="224.99"/><line class="f" x1="367.49" y1="224.99" x2="367.49" y2="218.01"/><line class="f" x1="367.49" y1="214.18" x2="367.49" y2="213.39"/><line class="f" x1="367.49" y1="209.56" x2="367.49" y2="208.78"/><line class="f" x1="367.49" y1="207.56" x2="367.49" y2="200.58"/><line class="f" x1="369.92" y1="224.99" x2="370.79" y2="224.99"/><line class="f" x1="370.79" y1="224.99" x2="370.79" y2="228.47"/><line class="f" x1="370.79" y1="228.47" x2="369.92" y2="228.47"/><line class="f" x1="367.49" y1="224.99" x2="366.62" y2="224.99"/><line class="f" x1="366.62" y1="224.99" x2="366.62" y2="228.47"/><line class="f" x1="366.62" y1="228.47" x2="367.49" y2="228.47"/><line class="f" x1="370.79" y1="200.58" x2="370.79" y2="197.1"/><line class="f" x1="370.79" y1="197.1" x2="369.92" y2="197.1"/><line class="f" x1="367.49" y1="200.58" x2="366.62" y2="200.58"/><line class="f" x1="366.62" y1="200.58" x2="366.62" y2="197.1"/><line class="f" x1="366.62" y1="197.1" x2="367.49" y2="197.1"/><line class="f" x1="367.49" y1="228.47" x2="369.92" y2="228.47"/><line class="f" x1="393.55" y1="181.41" x2="445.68" y2="181.41"/><line class="f" x1="393.55" y1="181.41" x2="393.55" y2="176.18"/><line class="f" x1="412.15" y1="349.1" x2="412.15" y2="338.65"/><line class="f" x1="412.15" y1="338.65" x2="446.9" y2="338.65"/><line class="f" x1="446.9" y1="338.65" x2="446.9" y2="349.11"/><line class="f" x1="488.77" y1="170.25" x2="488.77" y2="170.25"/><line class="f" x1="488.77" y1="167.81" x2="488.77" y2="167.81"/><line class="f" x1="488.77" y1="171.12" x2="488.77" y2="171.12"/><line class="f" x1="488.77" y1="171.12" x2="488.77" y2="170.25"/><line class="f" x1="488.77" y1="167.81" x2="488.77" y2="167.81"/><line class="f" x1="488.77" y1="170.25" x2="488.77" y2="349.1"/><line class="f" x1="445.68" y1="195.35" x2="445.68" y2="176.18"/><line class="f" x1="488.77" y1="167.81" x2="488.77" y2="170.25"/><line class="f" x1="483.56" y1="363.05" x2="483.56" y2="434.52"/><line class="f" x1="484.6" y1="365.14" x2="483.56" y2="365.14"/><line class="f" x1="307.02" y1="363.05" x2="307.02" y2="434.52"/><line class="f" x1="307.02" y1="434.52" x2="305.98" y2="434.52"/><line class="f" x1="305.98" y1="363.05" x2="307.02" y2="363.05"/><line class="f" x1="307.02" y1="363.05" x2="307.02" y2="365.14"/><line class="f" x1="307.02" y1="365.14" x2="305.98" y2="365.14"/><line class="f" x1="305.98" y1="432.43" x2="307.02" y2="432.43"/><line class="f" x1="483.56" y1="363.05" x2="484.6" y2="363.05"/><line class="f" x1="483.56" y1="432.43" x2="484.6" y2="432.43"/><line class="f" x1="373.22" y1="352.59" x2="373.22" y2="355.38"/><line class="f" x1="346.81" y1="352.59" x2="346.81" y2="355.38"/><line class="f" x1="344.03" y1="352.59" x2="376.01" y2="352.59"/><line class="f" x1="442.73" y1="352.59" x2="442.73" y2="355.38"/><line class="f" x1="416.32" y1="352.59" x2="416.32" y2="355.38"/><line class="f" x1="413.54" y1="352.59" x2="445.51" y2="352.59"/><line class="f" x1="446.55" y1="201.45" x2="446.55" y2="222.37"/><line class="f" x1="450.03" y1="225.86" x2="470.88" y2="225.86"/><line class="f" x1="474.35" y1="222.37" x2="474.35" y2="201.45"/><line class="f" x1="470.88" y1="197.97" x2="450.02" y2="197.97"/><line class="f" x1="430.04" y1="227.6" x2="430.04" y2="224.12"/><line class="f" x1="430.04" y1="224.12" x2="409.19" y2="224.12"/><line class="f" x1="409.19" y1="224.12" x2="409.19" y2="227.6"/><line class="f" x1="409.19" y1="227.6" x2="410.24" y2="227.6"/><line class="f" x1="410.23" y1="227.6" x2="410.23" y2="225.16"/><line class="f" x1="410.23" y1="225.16" x2="429" y2="225.16"/><line class="f" x1="429" y1="225.16" x2="429" y2="227.6"/><line class="f" x1="429" y1="227.6" x2="430.04" y2="227.6"/><line class="f" x1="430.04" y1="227.6" x2="430.04" y2="224.12"/><line class="f" x1="409.19" y1="227.6" x2="409.19" y2="224.12"/><line class="f" x1="429" y1="227.6" x2="429" y2="225.16"/><line class="f" x1="410.23" y1="227.6" x2="410.23" y2="225.16"/><line class="f" x1="430.04" y1="224.12" x2="409.19" y2="224.12"/><line class="f" x1="430.04" y1="225.16" x2="409.19" y2="225.16"/><line class="f" x1="430.04" y1="227.6" x2="429" y2="227.6"/><line class="f" x1="410.23" y1="227.6" x2="409.19" y2="227.6"/><line class="f" x1="408.23" y1="292.29" x2="408.23" y2="324.1"/><line class="f" x1="408.23" y1="324.1" x2="410.36" y2="324.1"/><line class="f" x1="410.36" y1="324.1" x2="412.49" y2="316.15"/><line class="f" x1="412.49" y1="316.15" x2="412.49" y2="300.25"/><line class="f" x1="412.49" y1="300.25" x2="410.36" y2="292.29"/><line class="f" x1="410.36" y1="292.29" x2="408.23" y2="292.29"/><line class="f" x1="409.08" y1="321.98" x2="409.08" y2="319.86"/><line class="f" x1="409.08" y1="319.86" x2="409.61" y2="319.86"/><line class="f" x1="409.61" y1="319.86" x2="409.61" y2="321.98"/><line class="f" x1="409.61" y1="321.98" x2="409.08" y2="321.98"/><line class="f" x1="409.08" y1="319.33" x2="409.08" y2="317.21"/><line class="f" x1="409.08" y1="317.21" x2="409.61" y2="317.21"/><line class="f" x1="409.61" y1="317.21" x2="409.61" y2="319.33"/><line class="f" x1="409.61" y1="319.33" x2="409.08" y2="319.33"/><line class="f" x1="409.08" y1="316.68" x2="409.08" y2="315.61"/><line class="f" x1="409.08" y1="315.61" x2="409.61" y2="315.61"/><line class="f" x1="409.61" y1="315.61" x2="409.61" y2="316.68"/><line class="f" x1="409.61" y1="316.68" x2="409.08" y2="316.68"/><line class="f" x1="410.36" y1="292.29" x2="410.36" y2="324.1"/><line class="f" x1="393.21" y1="256.71" x2="393.21" y2="235.45"/><line class="f" x1="385.24" y1="243.79" x2="380.32" y2="248.72"/><line class="f" x1="380.32" y1="243.79" x2="385.24" y2="248.72"/><line class="f" x1="382.78" y1="249.74" x2="382.78" y2="242.77"/><line class="f" x1="386.26" y1="246.26" x2="379.31" y2="246.26"/><line class="f" x1="372.36" y1="235.8" x2="372.36" y2="256.71"/><line class="f" x1="393.21" y1="256.71" x2="372.36" y2="256.71"/><line class="f" x1="479.22" y1="254.97" x2="460.1" y2="254.97"/><line class="f" x1="460.1" y1="254.97" x2="460.1" y2="237.54"/><line class="f" x1="460.1" y1="237.54" x2="479.22" y2="237.54"/><line class="f" x1="479.22" y1="237.54" x2="479.22" y2="254.97"/><line class="f" x1="480.09" y1="256.71" x2="459.23" y2="256.71"/><line class="f" x1="477.48" y1="253.23" x2="461.84" y2="253.23"/><line class="f" x1="461.84" y1="253.23" x2="461.84" y2="241.03"/><line class="f" x1="461.84" y1="241.03" x2="477.48" y2="241.03"/><line class="f" x1="477.48" y1="241.03" x2="477.48" y2="253.23"/><line class="f" x1="459.23" y1="256.71" x2="438.38" y2="256.71"/><line class="f" x1="438.38" y1="256.71" x2="438.38" y2="235.45"/><line class="f" x1="426.22" y1="235.45" x2="426.22" y2="256.71"/><line class="f" x1="426.22" y1="256.71" x2="405.37" y2="256.71"/><line class="f" x1="405.37" y1="256.71" x2="405.37" y2="235.45"/><line class="f" x1="408.21" y1="257.67" x2="423.38" y2="257.67"/><line class="f" x1="370.79" y1="177.05" x2="370.79" y2="197.97"/><line class="f" x1="370.79" y1="197.97" x2="391.64" y2="197.97"/><line class="f" x1="391.64" y1="197.97" x2="391.64" y2="177.05"/><line class="f" x1="391.64" y1="177.05" x2="370.79" y2="177.05"/><line class="f" x1="444.81" y1="196.22" x2="444.81" y2="227.6"/><line class="f" x1="444.81" y1="227.6" x2="476.09" y2="227.6"/><line class="f" x1="476.09" y1="227.6" x2="476.09" y2="196.22"/><line class="f" x1="476.09" y1="196.22" x2="444.81" y2="196.22"/><line class="f" x1="414.83" y1="328.71" x2="414.83" y2="287.68"/><line class="f" x1="414.83" y1="287.68" x2="404.4" y2="287.68"/><line class="f" x1="404.4" y1="287.68" x2="404.4" y2="328.71"/><line class="f" x1="404.4" y1="328.71" x2="414.83" y2="328.71"/><line class="f" x1="378.78" y1="293.32" x2="361.41" y2="293.32"/><line class="f" x1="361.41" y1="293.32" x2="361.41" y2="321.21"/><line class="f" x1="361.41" y1="321.21" x2="378.78" y2="321.21"/><line class="f" x1="378.78" y1="321.21" x2="378.78" y2="293.32"/><line class="f" x1="372.36" y1="235.45" x2="480.43" y2="235.45"/><line class="f" x1="480.43" y1="235.45" x2="480.43" y2="256.71"/><line class="f" x1="480.43" y1="256.71" x2="372.36" y2="256.71"/><line class="f" x1="372.36" y1="256.71" x2="372.36" y2="235.45"/><line class="f" x1="377.39" y1="347.36" x2="342.64" y2="347.36"/><line class="f" x1="342.64" y1="347.36" x2="342.64" y2="343.88"/><line class="f" x1="342.64" y1="343.88" x2="377.39" y2="343.88"/><line class="f" x1="377.39" y1="343.88" x2="377.39" y2="347.36"/><g class="g"><path class="f" d="M387.3,187.51a6.08,6.08,0,1,0-6.08,6.1,6.09,6.09,0,0,0,6.08-6.1"/><path class="f" d="M386.26,187.51a5,5,0,1,0-5,5.05,5.06,5.06,0,0,0,5-5.05"/><path class="f" d="M471.75,201.45a.87.87,0,1,0-.87.87.87.87,0,0,0,.87-.87"/><path class="f" d="M446.55,201.45A3.48,3.48,0,0,1,450,198"/><path class="f" d="M450,225.86a3.48,3.48,0,0,1-3.48-3.49"/><path class="f" d="M470.88,198a3.48,3.48,0,0,1,3.47,3.48"/><path class="f" d="M474.35,222.37a3.48,3.48,0,0,1-3.47,3.49"/><path class="f" d="M412.1,314.55a6.36,6.36,0,0,1,0-12.72"/><path class="f" d="M412.1,301.83a12.75,12.75,0,0,1,0,12.72"/><path class="f" d="M470.36,244.51a.7.7,0,0,0-1.4,0,.7.7,0,1,0,1.4,0"/><path class="f" d="M424.32,241.12a3.41,3.41,0,1,0-3.41,3.42,3.41,3.41,0,0,0,3.41-3.42"/><path class="f" d="M424.32,251.39a3.41,3.41,0,1,0-3.41,3.42,3.41,3.41,0,0,0,3.41-3.42"/><path class="f" d="M414.09,251.39a3.42,3.42,0,1,0-3.41,3.42,3.42,3.42,0,0,0,3.41-3.42"/><path class="f" d="M340.91,345.62a1.74,1.74,0,1,0-1.74,1.74,1.74,1.74,0,0,0,1.74-1.74"/></g><line class="f" x1="480.43" y1="191.87" x2="449.16" y2="191.87"/><line class="f" x1="449.16" y1="191.87" x2="449.16" y2="176.18"/><line class="f" x1="449.16" y1="176.18" x2="452.63" y2="188.38"/><line class="f" x1="452.63" y1="188.38" x2="480.43" y2="191.87"/><line class="f" x1="459.23" y1="256.71" x2="459.23" y2="235.45"/><rect class="d" x="361.41" y="293.32" width="17.38" height="27.89"/><line class="f" x1="361.41" y1="293.32" x2="361.41" y2="321.21"/><line class="f" x1="378.78" y1="293.32" x2="361.41" y2="293.32"/><line class="f" x1="378.78" y1="321.21" x2="378.78" y2="293.32"/><line class="f" x1="361.41" y1="321.21" x2="378.78" y2="321.21"/><rect class="d" x="404.4" y="287.68" width="10.42" height="41.04"/><line class="f" x1="404.4" y1="287.68" x2="404.4" y2="328.71"/><line class="f" x1="414.83" y1="287.68" x2="404.4" y2="287.68"/><line class="f" x1="414.83" y1="328.71" x2="414.83" y2="287.68"/><line class="f" x1="404.4" y1="328.71" x2="414.83" y2="328.71"/><rect class="d" x="409.19" y="225.16" width="1.04" height="2.44"/><line class="f" x1="409.19" y1="225.16" x2="409.19" y2="227.6"/><line class="f" x1="410.23" y1="225.16" x2="409.19" y2="225.16"/><line class="f" x1="410.23" y1="227.6" x2="410.23" y2="225.16"/><line class="f" x1="409.19" y1="227.6" x2="410.24" y2="227.6"/><polygon class="d" points="410.23 225.16 409.19 225.16 409.19 224.12 430.04 224.12 430.04 225.16 410.23 225.16"/><line class="f" x1="410.23" y1="225.16" x2="430.04" y2="225.16"/><line class="f" x1="409.19" y1="225.16" x2="410.24" y2="225.16"/><line class="f" x1="409.19" y1="224.12" x2="409.19" y2="225.16"/><line class="f" x1="430.04" y1="224.12" x2="409.19" y2="224.12"/><line class="f" x1="430.04" y1="225.16" x2="430.04" y2="224.12"/><rect class="d" x="429" y="225.16" width="1.04" height="2.44"/><line class="f" x1="430.04" y1="227.6" x2="430.04" y2="225.16"/><line class="f" x1="429" y1="227.6" x2="430.04" y2="227.6"/><line class="f" x1="429" y1="225.16" x2="429" y2="227.6"/><line class="f" x1="430.04" y1="225.16" x2="429" y2="225.16"/><rect class="d" x="310.15" y="176.18" width="10.77" height="25.8"/><line class="f" x1="320.92" y1="201.98" x2="310.15" y2="201.98"/><line class="f" x1="310.15" y1="201.98" x2="310.15" y2="176.18"/><line class="f" x1="310.15" y1="176.18" x2="320.92" y2="176.18"/><line class="f" x1="320.92" y1="176.18" x2="320.92" y2="201.98"/><rect class="d" x="393.55" y="176.18" width="52.13" height="5.23"/><line class="f" x1="393.55" y1="176.18" x2="393.55" y2="181.41"/><line class="f" x1="445.68" y1="176.18" x2="393.55" y2="176.18"/><line class="f" x1="445.68" y1="181.41" x2="445.68" y2="176.18"/><line class="f" x1="393.55" y1="181.41" x2="445.68" y2="181.41"/><rect class="d" x="483.21" y="364.79" width="1.39" height="71.47"/><line class="f" x1="483.21" y1="364.79" x2="483.21" y2="436.27"/><line class="f" x1="484.6" y1="364.79" x2="483.21" y2="364.79"/><line class="f" x1="483.21" y1="436.27" x2="484.6" y2="436.27"/><rect class="d" x="305.98" y="364.79" width="1.39" height="71.47"/><line class="f" x1="307.37" y1="364.79" x2="305.98" y2="364.79"/><line class="f" x1="307.37" y1="436.27" x2="307.37" y2="364.79"/><line class="f" x1="305.98" y1="436.27" x2="307.37" y2="436.27"/><polygon class="d" points="337.94 346.85 337.43 345.62 337.94 344.39 339.17 343.88 340.39 344.39 340.91 345.62 340.39 346.85 339.17 347.36 337.94 346.85"/><g class="g"><path class="f" d="M340.91,345.62a1.74,1.74,0,0,1-3.48,0"/><path class="f" d="M337.43,345.62a1.74,1.74,0,0,1,3.48,0"/></g><rect class="d" x="342.64" y="343.88" width="34.75" height="3.49"/><line class="f" x1="377.39" y1="347.36" x2="377.39" y2="343.88"/><line class="f" x1="342.64" y1="347.36" x2="377.39" y2="347.36"/><line class="f" x1="342.64" y1="343.88" x2="342.64" y2="347.36"/><line class="f" x1="377.39" y1="343.88" x2="342.64" y2="343.88"/><polygon class="d" points="313.56 338.65 313.06 338.44 312.86 337.95 312.86 276.58 313.06 276.1 313.56 275.89 338.95 275.89 340.68 276.36 341.95 277.63 342.42 279.38 342.42 280.42 342.22 280.92 341.73 281.12 342.18 281.28 342.46 281.68 342.42 282.16 342.42 306.22 342.12 306.96 341.38 307.27 342.12 307.57 342.42 308.31 342.42 332.37 342.23 333 341.73 333.42 342.22 333.62 342.42 334.11 342.42 335.16 341.95 336.9 340.68 338.18 338.95 338.65 313.56 338.65"/><line class="f" x1="312.86" y1="337.95" x2="312.86" y2="276.59"/><line class="f" x1="312.86" y1="276.59" x2="313.06" y2="276.1"/><line class="f" x1="313.06" y1="276.1" x2="313.56" y2="275.89"/><line class="f" x1="313.56" y1="275.89" x2="338.95" y2="275.89"/><line class="f" x1="338.95" y1="275.89" x2="340.68" y2="276.36"/><line class="f" x1="340.68" y1="276.36" x2="341.96" y2="277.63"/><line class="f" x1="341.96" y1="277.63" x2="342.42" y2="279.38"/><line class="f" x1="342.42" y1="279.38" x2="342.42" y2="280.42"/><line class="f" x1="342.42" y1="280.42" x2="342.22" y2="280.92"/><line class="f" x1="342.22" y1="280.92" x2="341.73" y2="281.12"/><line class="f" x1="341.73" y1="281.12" x2="342.18" y2="281.28"/><line class="f" x1="342.18" y1="281.28" x2="342.46" y2="281.68"/><line class="f" x1="342.46" y1="281.68" x2="342.42" y2="282.16"/><line class="f" x1="342.42" y1="282.16" x2="342.42" y2="306.22"/><line class="f" x1="342.42" y1="306.22" x2="342.12" y2="306.96"/><line class="f" x1="342.12" y1="306.96" x2="341.38" y2="307.27"/><line class="f" x1="341.38" y1="307.27" x2="342.12" y2="307.57"/><line class="f" x1="342.12" y1="307.57" x2="342.42" y2="308.31"/><line class="f" x1="342.42" y1="308.31" x2="342.42" y2="332.37"/><line class="f" x1="342.42" y1="332.37" x2="342.23" y2="333"/><line class="f" x1="342.23" y1="333" x2="341.73" y2="333.42"/><line class="f" x1="341.73" y1="333.42" x2="342.22" y2="333.62"/><line class="f" x1="342.22" y1="333.62" x2="342.42" y2="334.11"/><line class="f" x1="342.42" y1="334.11" x2="342.42" y2="335.16"/><line class="f" x1="342.42" y1="335.16" x2="341.95" y2="336.9"/><line class="f" x1="341.96" y1="336.9" x2="340.68" y2="338.18"/><line class="f" x1="340.68" y1="338.18" x2="338.95" y2="338.65"/><line class="f" x1="338.95" y1="338.65" x2="313.56" y2="338.65"/><line class="f" x1="313.56" y1="338.65" x2="313.06" y2="338.44"/><line class="f" x1="313.06" y1="338.44" x2="312.86" y2="337.95"/><line class="f" x1="342.42" y1="280.42" x2="342.42" y2="279.37"/><line class="f" x1="338.95" y1="275.89" x2="313.56" y2="275.89"/><line class="f" x1="312.86" y1="276.59" x2="312.86" y2="280.42"/><line class="f" x1="313.56" y1="281.12" x2="341.73" y2="281.12"/><line class="f" x1="312.86" y1="280.42" x2="312.86" y2="307.27"/><line class="f" x1="312.86" y1="307.27" x2="315.29" y2="307.27"/><line class="f" x1="342.42" y1="306.22" x2="342.42" y2="282.16"/><line class="f" x1="341.38" y1="281.12" x2="323.94" y2="281.12"/><line class="f" x1="323.94" y1="307.27" x2="341.38" y2="307.27"/><line class="f" x1="314.25" y1="306.22" x2="314.25" y2="282.16"/><line class="f" x1="371.59" y1="281.12" x2="371.59" y2="286.35"/><line class="f" x1="371.59" y1="289.83" x2="371.59" y2="295.06"/><line class="f" x1="371.59" y1="298.55" x2="371.59" y2="303.78"/><line class="f" x1="371.59" y1="307.27" x2="371.59" y2="312.5"/><line class="f" x1="371.59" y1="315.98" x2="371.59" y2="321.21"/><line class="f" x1="371.59" y1="324.7" x2="371.59" y2="328.19"/><line class="f" x1="371.59" y1="328.19" x2="371.59" y2="333.42"/><line class="f" x1="342.42" y1="334.11" x2="342.42" y2="335.16"/><line class="f" x1="338.95" y1="338.65" x2="313.56" y2="338.65"/><line class="f" x1="312.86" y1="337.95" x2="312.86" y2="334.11"/><line class="f" x1="313.56" y1="333.42" x2="341.73" y2="333.42"/><line class="f" x1="312.86" y1="334.11" x2="312.86" y2="307.27"/><line class="f" x1="312.86" y1="307.27" x2="315.29" y2="307.27"/><line class="f" x1="342.42" y1="308.31" x2="342.42" y2="332.37"/><line class="f" x1="341.38" y1="333.42" x2="323.94" y2="333.42"/><line class="f" x1="315.29" y1="307.27" x2="341.38" y2="307.27"/><line class="f" x1="314.25" y1="308.31" x2="314.25" y2="332.37"/><line class="f" x1="341.38" y1="281.12" x2="346.59" y2="281.12"/><line class="f" x1="350.07" y1="281.12" x2="355.28" y2="281.12"/><line class="f" x1="358.75" y1="281.12" x2="363.97" y2="281.12"/><line class="f" x1="366.38" y1="281.12" x2="371.59" y2="281.12"/><line class="f" x1="341.38" y1="333.42" x2="346.59" y2="333.42"/><line class="f" x1="350.07" y1="333.42" x2="355.28" y2="333.42"/><line class="f" x1="358.75" y1="333.42" x2="363.97" y2="333.42"/><line class="f" x1="366.38" y1="333.42" x2="371.59" y2="333.42"/><g class="g"><path class="f" d="M312.86,276.59a.7.7,0,0,1,.7-.7"/><path class="f" d="M313.56,281.12a.7.7,0,0,1-.7-.7"/><path class="f" d="M342.42,280.42a.69.69,0,0,1-.69.7"/><path class="f" d="M341.38,281.12a1,1,0,0,1,1,1"/><path class="f" d="M342.42,306.22a1,1,0,0,1-1,1"/><path class="f" d="M313.56,338.65a.7.7,0,0,1-.7-.7"/><path class="f" d="M312.86,334.11a.69.69,0,0,1,.7-.69"/><path class="f" d="M341.73,333.42a.69.69,0,0,1,.69.69"/><path class="f" d="M342.42,332.37a1,1,0,0,1-1,1.05"/><path class="f" d="M341.38,307.27a1,1,0,0,1,1,1"/><path class="f" d="M318,282.06a95.51,95.51,0,0,1,0,24.05"/><path class="f" d="M318,308.2a99.49,99.49,0,0,1,0,24.06"/><path class="f" d="M338.94,275.89a3.48,3.48,0,0,1,3.48,3.49"/><path class="f" d="M342.42,335.16a3.49,3.49,0,0,1-3.48,3.49"/></g><polygon class="d" points="399.29 196.75 398.92 196.59 398.77 196.22 398.77 181.93 398.92 181.56 399.29 181.41 417.36 181.41 417.73 181.56 417.88 181.93 417.88 196.22 417.73 196.59 417.36 196.75 399.29 196.75"/><line class="f" x1="399.29" y1="181.41" x2="417.36" y2="181.41"/><g class="g"><path class="f" d="M417.36,181.41a.52.52,0,0,1,.52.52"/></g><line class="f" x1="417.88" y1="181.93" x2="417.88" y2="196.22"/><g class="g"><path class="f" d="M417.88,196.22a.52.52,0,0,1-.52.53"/></g><line class="f" x1="417.36" y1="196.75" x2="399.29" y2="196.75"/><g class="g"><path class="f" d="M399.29,196.75a.52.52,0,0,1-.52-.53"/></g><line class="f" x1="398.77" y1="196.22" x2="398.77" y2="181.93"/><g class="g"><path class="f" d="M398.77,181.93a.52.52,0,0,1,.52-.52"/></g><line class="f" x1="400.33" y1="185.24" x2="416.32" y2="185.24"/><line class="f" x1="416.84" y1="185.77" x2="416.84" y2="195.18"/><line class="f" x1="416.32" y1="195.7" x2="400.33" y2="195.7"/><line class="f" x1="399.81" y1="195.18" x2="399.81" y2="185.77"/><g class="g"><path class="f" d="M416.32,185.24a.53.53,0,0,1,.52.52"/><path class="f" d="M416.84,195.18a.52.52,0,0,1-.52.52"/><path class="f" d="M400.33,195.7a.52.52,0,0,1-.52-.52"/><path class="f" d="M399.81,185.77a.52.52,0,0,1,.52-.53"/></g><polygon class="d" points="408.07 187.38 407.94 187.14 407.7 185.29 407.59 184.96 407.45 183.5 407.71 182.88 408.32 182.63 408.94 182.88 409.19 183.5 409.05 184.96 408.94 185.29 408.71 187.14 408.58 187.38 408.32 187.48 408.07 187.38"/><g class="g"><path class="f" d="M407.45,183.5a.87.87,0,1,1,1.74,0"/></g><line class="f" x1="409.05" y1="184.96" x2="409.19" y2="183.5"/><g class="g"><path class="f" d="M409.05,185a.76.76,0,0,1-.11.33"/></g><line class="f" x1="408.71" y1="187.14" x2="408.94" y2="185.29"/><g class="g"><path class="f" d="M408.71,187.14a.4.4,0,0,1-.39.34.39.39,0,0,1-.38-.34"/></g><line class="f" x1="407.71" y1="185.29" x2="407.94" y2="187.14"/><g class="g"><path class="f" d="M407.71,185.29a.66.66,0,0,1-.12-.33"/></g><line class="f" x1="407.45" y1="183.5" x2="407.59" y2="184.96"/><line class="f" x1="408.8" y1="184.37" x2="408.8" y2="184.88"/><line class="f" x1="407.85" y1="184.89" x2="407.85" y2="184.37"/><line class="f" x1="407.85" y1="184.37" x2="408.8" y2="184.37"/><g class="g"><path class="f" d="M408.8,184.89a.48.48,0,0,1-.48.47.47.47,0,0,1-.47-.47"/><path class="f" d="M408.94,185.29a.75.75,0,0,1-.62.34.72.72,0,0,1-.61-.34"/></g><rect class="d" x="452.63" y="294.25" width="27.8" height="27.89"/><polygon class="d" points="443.25 315.17 441.51 314.7 440.24 313.42 439.77 311.68 439.77 304.71 440.24 302.96 441.51 301.69 443.25 301.22 452.63 301.22 452.63 315.17 443.25 315.17"/><polygon class="d" points="459.58 294.25 459.58 284.83 460.05 283.09 461.32 281.82 463.06 281.35 470.01 281.35 471.75 281.82 473.02 283.09 473.48 284.83 473.48 294.25 459.58 294.25"/><polygon class="d" points="463.06 335.04 461.32 334.57 460.05 333.3 459.58 331.55 459.58 322.14 473.48 322.14 473.48 331.55 473.02 333.3 471.75 334.57 470.01 335.04 463.06 335.04"/><line class="f" x1="441.51" y1="304.71" x2="441.51" y2="311.68"/><line class="f" x1="443.25" y1="315.17" x2="452.63" y2="315.17"/><line class="f" x1="439.77" y1="304.71" x2="439.77" y2="311.68"/><line class="f" x1="452.63" y1="301.22" x2="443.25" y2="301.22"/><g class="g"><path class="f" d="M443.25,313.42a1.74,1.74,0,0,1-1.74-1.74"/><path class="f" d="M441.51,304.71a1.74,1.74,0,0,1,1.74-1.74"/><path class="f" d="M443.25,315.17a3.48,3.48,0,0,1-3.48-3.49"/><path class="f" d="M439.77,304.71a3.48,3.48,0,0,1,3.48-3.49"/></g><line class="f" x1="470.01" y1="283.09" x2="463.06" y2="283.09"/><line class="f" x1="459.58" y1="284.84" x2="459.58" y2="294.25"/><line class="f" x1="470.01" y1="281.35" x2="463.06" y2="281.35"/><line class="f" x1="473.48" y1="294.25" x2="473.48" y2="284.84"/><g class="g"><path class="f" d="M461.32,284.84a1.74,1.74,0,0,1,1.74-1.75"/><path class="f" d="M470,283.09a1.73,1.73,0,0,1,1.73,1.75"/><path class="f" d="M459.58,284.84a3.48,3.48,0,0,1,3.48-3.49"/><path class="f" d="M470,281.35a3.48,3.48,0,0,1,3.47,3.49"/></g><line class="f" x1="470.01" y1="333.3" x2="463.06" y2="333.3"/><line class="f" x1="459.58" y1="331.55" x2="459.58" y2="322.14"/><line class="f" x1="470.01" y1="335.04" x2="463.06" y2="335.04"/><line class="f" x1="473.48" y1="322.14" x2="473.48" y2="331.55"/><g class="g"><path class="f" d="M463.06,333.3a1.74,1.74,0,0,1-1.74-1.75"/><path class="f" d="M471.75,331.55A1.74,1.74,0,0,1,470,333.3"/><path class="f" d="M463.06,335a3.48,3.48,0,0,1-3.48-3.49"/><path class="f" d="M473.48,331.55A3.48,3.48,0,0,1,470,335"/></g><line class="f" x1="480.43" y1="294.25" x2="480.43" y2="322.14"/><line class="f" x1="480.43" y1="294.25" x2="452.63" y2="294.25"/><line class="f" x1="452.63" y1="294.25" x2="452.63" y2="322.14"/><line class="f" x1="452.63" y1="322.14" x2="480.43" y2="322.14"/><polygon class="d" points="428.71 198.48 426.74 197.45 425.53 196.19 424.75 194.63 424.48 192.91 424.48 181.41 437.34 181.41 437.34 192.91 437.07 194.63 436.3 196.19 435.08 197.45 433.11 198.48 430.91 198.84 428.71 198.48"/><line class="f" x1="437.34" y1="181.41" x2="437.34" y2="192.91"/><line class="f" x1="437.34" y1="181.41" x2="424.48" y2="181.41"/><line class="f" x1="424.48" y1="181.41" x2="424.48" y2="192.91"/><line class="f" x1="435.26" y1="185.59" x2="435.26" y2="192.91"/><line class="f" x1="426.57" y1="185.59" x2="426.57" y2="192.91"/><line class="f" x1="426.57" y1="185.59" x2="435.26" y2="185.59"/><g class="g"><path class="f" d="M437.34,192.91a5.7,5.7,0,0,1-2.26,4.54"/><path class="f" d="M426.74,197.44a5.68,5.68,0,0,1-2.26-4.53"/><path class="f" d="M435.08,197.44a6.91,6.91,0,0,1-8.34,0"/><path class="f" d="M426.74,197.44a5.68,5.68,0,0,1-2.26-4.53"/><path class="f" d="M430.91,198.84a6.91,6.91,0,0,1-4.17-1.4"/><path class="f" d="M428,195.77a3.58,3.58,0,0,1-1.42-2.86"/><path class="f" d="M433.83,195.77a4.84,4.84,0,0,1-5.84,0"/><path class="f" d="M435.26,192.91a3.56,3.56,0,0,1-1.43,2.86"/></g><polygon class="d" points="408.23 324.09 408.23 313.23 406.84 311.51 406.09 309.35 406.09 307.04 406.84 304.88 408.23 303.15 408.23 292.29 410.15 292.29 412.08 300.24 412.08 302.56 413.14 306.25 413.14 310.13 412.08 313.82 412.08 316.14 410.15 324.09 408.23 324.09"/><line class="f" x1="408.23" y1="292.29" x2="408.23" y2="303.16"/><line class="f" x1="410.15" y1="292.29" x2="408.23" y2="292.29"/><line class="f" x1="412.08" y1="300.24" x2="410.16" y2="292.29"/><line class="f" x1="412.08" y1="302.56" x2="412.08" y2="300.24"/><line class="f" x1="413.14" y1="306.25" x2="412.08" y2="302.56"/><line class="f" x1="413.14" y1="310.13" x2="413.14" y2="306.25"/><line class="f" x1="412.08" y1="313.83" x2="413.14" y2="310.13"/><line class="f" x1="412.08" y1="316.14" x2="412.08" y2="313.83"/><line class="f" x1="410.15" y1="324.09" x2="412.08" y2="316.14"/><line class="f" x1="408.23" y1="324.09" x2="410.15" y2="324.09"/><line class="f" x1="408.23" y1="313.23" x2="408.23" y2="324.09"/><line class="f" x1="406.84" y1="311.51" x2="408.23" y2="313.22"/><line class="f" x1="406.09" y1="309.35" x2="406.84" y2="311.51"/><line class="f" x1="406.09" y1="307.04" x2="406.09" y2="309.35"/><line class="f" x1="406.84" y1="304.88" x2="406.09" y2="307.04"/><line class="f" x1="408.23" y1="303.16" x2="406.84" y2="304.87"/><line class="f" x1="408.23" y1="292.29" x2="408.23" y2="324.09"/><line class="f" x1="412.08" y1="316.14" x2="412.08" y2="300.24"/><line class="f" x1="410.15" y1="292.29" x2="408.23" y2="292.29"/><line class="f" x1="409" y1="321.97" x2="409" y2="319.85"/><line class="f" x1="409" y1="319.85" x2="409.48" y2="319.85"/><line class="f" x1="409.48" y1="319.85" x2="409.48" y2="321.97"/><line class="f" x1="409.48" y1="321.97" x2="409" y2="321.97"/><line class="f" x1="409" y1="319.32" x2="409" y2="317.2"/><line class="f" x1="409" y1="317.2" x2="409.48" y2="317.2"/><line class="f" x1="409.48" y1="317.2" x2="409.48" y2="319.32"/><line class="f" x1="409.48" y1="319.32" x2="409" y2="319.32"/><line class="f" x1="410.15" y1="292.29" x2="410.15" y2="324.09"/><line class="f" x1="409.48" y1="316.67" x2="409" y2="316.67"/><line class="f" x1="409" y1="316.67" x2="409" y2="315.61"/><line class="f" x1="409" y1="315.61" x2="409.48" y2="315.61"/><line class="f" x1="409.48" y1="315.61" x2="409.48" y2="316.67"/><g class="g"><path class="f" d="M408.23,313.23a6.78,6.78,0,0,1,0-10.07"/></g><rect class="d" x="310.15" y="201.98" width="20.85" height="26.5"/><line class="f" x1="331" y1="228.47" x2="331" y2="201.98"/><line class="f" x1="331" y1="201.98" x2="310.15" y2="201.98"/><line class="f" x1="310.15" y1="201.98" x2="310.15" y2="228.47"/><line class="f" x1="310.15" y1="228.47" x2="331" y2="228.47"/><line class="f" x1="320.58" y1="227.15" x2="320.58" y2="203.3"/><line class="f" x1="326.71" y1="225.92" x2="314.21" y2="223.68"/><line class="f" x1="327.33" y1="223.39" x2="315.71" y2="222.47"/><line class="f" x1="313.06" y1="219.94" x2="325.81" y2="219.18"/><line class="f" x1="314.73" y1="216.03" x2="325.81" y2="217.07"/><line class="f" x1="314.1" y1="214.61" x2="327.74" y2="214.61"/><line class="f" x1="314.03" y1="210.58" x2="327.53" y2="211.54"/><line class="f" x1="314.26" y1="209.07" x2="326.58" y2="209.07"/><line class="f" x1="314.14" y1="205.1" x2="326.77" y2="204.34"/><line class="f" x1="315" y1="206.06" x2="325.68" y2="206.83"/><line class="f" x1="446.44" y1="248.53" x2="446.44" y2="242.68"/><line class="f" x1="446.44" y1="242.68" x2="448.81" y2="244.6"/><line class="f" x1="448.81" y1="244.6" x2="451.18" y2="242.68"/><line class="f" x1="451.18" y1="242.68" x2="451.18" y2="248.53"/><rect x="364.02" y="228.47" width="116.42" height="6.97"/><polygon points="301.81 349.11 301.81 167.81 329.26 167.81 329.26 176.18 310.15 176.18 310.15 349.11 301.81 349.11"/><polygon points="480.43 349.11 480.43 176.18 367.49 176.18 367.49 167.81 408.15 167.81 416.49 167.81 488.77 167.81 488.77 349.11 480.43 349.11"/><polygon points="484.6 363.05 445.16 363.05 445.16 356.08 488.77 356.08 488.77 363.05 484.6 363.05"/><rect x="375.66" y="356.08" width="38.23" height="6.97"/><polygon points="305.98 363.05 301.81 363.05 301.81 356.08 344.38 356.08 344.38 363.05 305.98 363.05"/><rect x="446.9" y="349.11" width="41.87" height="6.97"/><rect x="301.81" y="349.11" width="40.83" height="6.97"/><rect x="310.15" y="228.47" width="22.59" height="6.97"/><rect x="377.39" y="349.11" width="34.75" height="6.97"/><rect x="367.49" y="226.73" width="2.43" height="1.74"/><rect x="367.49" y="176.18" width="2.43" height="22.66"/><polygon points="445.68 195.35 445.68 176.18 449.16 176.18 449.16 191.87 480.43 191.87 480.43 195.35 445.68 195.35"/><rect x="305.98" y="363.05" width="1.39" height="73.21"/><rect x="483.21" y="363.05" width="1.39" height="73.21"/><rect x="329.26" y="167.81" width="1.74" height="4.01"/><rect x="365.75" y="167.81" width="1.74" height="4.01"/><line class="f" x1="301.81" y1="363.05" x2="305.98" y2="363.05"/><line class="f" x1="305.98" y1="363.05" x2="305.98" y2="450.32"/><line class="f" x1="305.98" y1="450.32" x2="484.6" y2="450.32"/><line class="f" x1="484.6" y1="450.32" x2="484.6" y2="363.05"/><line class="f" x1="484.6" y1="363.05" x2="488.77" y2="363.05"/><line class="f" x1="488.77" y1="363.05" x2="488.77" y2="167.81"/><line class="f" x1="488.77" y1="167.81" x2="301.81" y2="167.81"/><line class="f" x1="301.81" y1="167.81" x2="301.81" y2="363.05"/><path class="h" d="M385.79,383v7h-.72v-6.35h-1.64V383Z"/><path class="h" d="M387.48,389.52A.52.52,0,0,1,388,389a.54.54,0,0,1,.54.54.55.55,0,0,1-.54.55A.53.53,0,0,1,387.48,389.52Z"/><path class="h" d="M389.48,386.52c0-2.22,1.17-3.55,2.79-3.55s2.8,1.33,2.8,3.55-1.18,3.56-2.8,3.56S389.48,388.75,389.48,386.52Zm4.85,0c0-1.87-.84-2.89-2.06-2.89s-2.06,1-2.06,2.89.84,2.9,2.06,2.9S394.33,388.39,394.33,386.52Z"/><path class="h" d="M402.05,388.18h-1.4V390h-.72v-1.84H396v-.52l3.71-4.63h.8l-3.58,4.51h3v-1.62h.7v1.62h1.4Z"/><path class="h" d="M410.63,206v7h-.72v-6.35h-1.64V206Z"/><path class="h" d="M412.31,212.47a.53.53,0,0,1,.53-.54.54.54,0,0,1,.54.54.55.55,0,0,1-.54.55A.54.54,0,0,1,412.31,212.47Z"/><path class="h" d="M414.32,209.47c0-2.22,1.17-3.55,2.79-3.55s2.8,1.33,2.8,3.55-1.18,3.56-2.8,3.56S414.32,211.7,414.32,209.47Zm4.85,0c0-1.87-.84-2.89-2.06-2.89s-2.06,1-2.06,2.89.84,2.9,2.06,2.9S419.17,211.34,419.17,209.47Z"/><path class="h" d="M425.48,211c0,1.17-.85,2.07-2.54,2.07a3.6,3.6,0,0,1-2.51-.9l.34-.57a3.07,3.07,0,0,0,2.17.81c1.16,0,1.8-.54,1.8-1.41s-.59-1.39-1.89-1.39h-.5V209l1.94-2.42h-3.58V206h4.5v.51l-2,2.48C424.73,209.05,425.48,209.84,425.48,211Z"/><path class="h" d="M388,270.71v7h-.72v-6.35h-1.64v-.64Z"/><path class="h" d="M389.64,277.2a.52.52,0,0,1,.52-.54.54.54,0,0,1,.54.54.55.55,0,0,1-.54.55A.53.53,0,0,1,389.64,277.2Z"/><path class="h" d="M391.65,274.2c0-2.22,1.16-3.55,2.78-3.55s2.8,1.33,2.8,3.55-1.18,3.56-2.8,3.56S391.65,276.43,391.65,274.2Zm4.84,0c0-1.86-.84-2.89-2.06-2.89s-2.06,1-2.06,2.89.84,2.9,2.06,2.9S396.49,276.07,396.49,274.2Z"/><path class="h" d="M403,277.06v.64h-4.91v-.51l2.91-2.85c.79-.78.94-1.25.94-1.72,0-.81-.57-1.31-1.64-1.31a2.38,2.38,0,0,0-1.91.78l-.51-.44a3.15,3.15,0,0,1,2.48-1c1.42,0,2.32.72,2.32,1.89a2.86,2.86,0,0,1-1.15,2.18l-2.38,2.34Z"/><path class="h" d="M340.69,206v7H340v-6.35h-1.64V206Z"/><path class="h" d="M342.37,212.47a.53.53,0,0,1,.53-.54.54.54,0,0,1,.54.54.55.55,0,0,1-.54.55A.54.54,0,0,1,342.37,212.47Z"/><path class="h" d="M344.39,209.47c0-2.22,1.16-3.55,2.78-3.55s2.8,1.33,2.8,3.55-1.18,3.56-2.8,3.56S344.39,211.7,344.39,209.47Zm4.84,0c0-1.87-.84-2.89-2.06-2.89s-2.06,1-2.06,2.89.84,2.9,2.06,2.9S349.23,211.34,349.23,209.47Z"/><path class="h" d="M352.93,206v7h-.72v-6.35h-1.65V206Z"/></svg>