<svg xmlns="http://www.w3.org/2000/svg" xmlns:xlink="http://www.w3.org/1999/xlink" viewBox="0 0 790.58 618.13"><defs><style>.a,.j,.m{fill:none;}.b{clip-path:url(#a);}.c{clip-path:url(#d);}.d{clip-path:url(#g);}.e{clip-path:url(#j);}.f{fill:#595a5c;}.g{fill:#b6906c;}.h{fill:#fff;}.i{fill:#231f20;}.j{stroke:#000;}.j,.m{stroke-linecap:round;stroke-linejoin:round;stroke-width:0.34px;}.k{fill:url(#m);}.l{clip-path:url(#n);}.m{stroke:#454545;}.n{fill:#58595b;}</style><clipPath id="a"><rect class="a" y="50" width="50" height="50"/></clipPath><clipPath id="d"><rect class="a" x="50" y="50" width="50" height="50"/></clipPath><clipPath id="g"><rect class="a" width="50" height="50"/></clipPath><clipPath id="j"><rect class="a" x="50" width="50" height="50"/></clipPath><pattern id="m" width="100" height="100" patternTransform="matrix(3.39, 0, 0, -3.46, -8441.8, 51471.02)" patternUnits="userSpaceOnUse" viewBox="0 0 100 100"><rect class="a" width="100" height="100"/><g class="b"><g class="b"><g class="b"><image width="210" height="210" transform="matrix(0.24, 0, 0, -0.24, -0.2, 100.2)" xlink:href="C103_pudorys1.png"/></g></g></g><g class="c"><g class="c"><g class="c"><image width="209" height="210" transform="matrix(0.24, 0, 0, -0.24, 49.96, 100.2)" xlink:href="C103_pudorys2.png"/></g></g></g><g class="d"><g class="d"><g class="d"><image width="210" height="209" transform="matrix(0.24, 0, 0, -0.24, -0.2, 50.04)" xlink:href="C103_pudorys3.png"/></g></g></g><g class="e"><g class="e"><g class="e"><image width="209" height="209" transform="matrix(0.24, 0, 0, -0.24, 49.96, 50.04)" xlink:href="C103_pudorys4.png"/></g></g></g></pattern><clipPath id="n"><polygon class="a" points="308.03 5.73 308.03 92.13 303.96 92.13 303.96 340.61 374.45 340.61 374.45 525.84 378.52 525.84 378.52 612.4 479.84 612.4 479.84 525.84 486.62 525.84 486.62 396.25 486.62 202.72 486.62 92.13 484.92 92.13 484.92 5.73 308.03 5.73"/></clipPath></defs><path class="f" d="M55.31,597.13H57.1V609.9H55.31Zm.92,6.11h4.09a1.89,1.89,0,0,0,1-.27,1.82,1.82,0,0,0,.68-.77,2.67,2.67,0,0,0,.24-1.16,2.7,2.7,0,0,0-.24-1.16,1.82,1.82,0,0,0-1.7-1H56.23v-1.7h4a4.09,4.09,0,0,1,2,.48A3.45,3.45,0,0,1,63.62,599a4.64,4.64,0,0,1,0,4.11,3.34,3.34,0,0,1-1.35,1.36,4,4,0,0,1-2,.49h-4Z"/><path class="f" d="M67.7,606.33a2.07,2.07,0,0,0,.49,1.48,1.76,1.76,0,0,0,1.37.52,1.89,1.89,0,0,0,1.37-.46,1.79,1.79,0,0,0,.48-1.33l.12,1.91A2.58,2.58,0,0,1,69.06,610a2.89,2.89,0,0,1-2.33-1,4.08,4.08,0,0,1-.82-2.73v-5.55H67.7Zm.22-7.86a1.93,1.93,0,0,1-.56-1.5,2.07,2.07,0,0,1,.56-1.57,2.56,2.56,0,0,1,3.18,0,2.08,2.08,0,0,1,.57,1.56,1.94,1.94,0,0,1-.57,1.5,2.65,2.65,0,0,1-3.18,0Zm2.26-.86a.94.94,0,0,0,.24-.68,1,1,0,0,0-.24-.7.91.91,0,0,0-.67-.25.92.92,0,0,0-.67.25,1,1,0,0,0-.23.7,1,1,0,0,0,.23.68.92.92,0,0,0,.67.24A.9.9,0,0,0,70.18,597.61Zm1.23,3.17h1.78v9.12H71.41Z"/><path class="f" d="M77.1,609.63A2.82,2.82,0,0,1,76,608.36a5.08,5.08,0,0,1-.36-2v-2a5.05,5.05,0,0,1,.36-2,2.71,2.71,0,0,1,1-1.27,3,3,0,0,1,1.65-.44,2.71,2.71,0,0,1,1.48.42,3.22,3.22,0,0,1,1.09,1.19l-.18,1.86a2.19,2.19,0,0,0-.22-1,1.48,1.48,0,0,0-.61-.63,2,2,0,0,0-1-.21,1.71,1.71,0,0,0-1.37.55,2.26,2.26,0,0,0-.49,1.56v2a2.19,2.19,0,0,0,.49,1.54,1.74,1.74,0,0,0,1.37.54,1.93,1.93,0,0,0,1-.23,1.45,1.45,0,0,0,.61-.64,2.25,2.25,0,0,0,.22-1l.12,1.92a2.66,2.66,0,0,1-.89,1.14,2.56,2.56,0,0,1-1.53.45A3.19,3.19,0,0,1,77.1,609.63Zm4-12.5H82.9V609.9H81.11Z"/><path class="f" d="M87.09,609.57a3.09,3.09,0,0,1-1.29-1.36,4.85,4.85,0,0,1-.44-2.15v-1.48a4.71,4.71,0,0,1,.44-2.12,3.12,3.12,0,0,1,1.29-1.35,4.71,4.71,0,0,1,4.06,0,3.12,3.12,0,0,1,1.29,1.35,4.71,4.71,0,0,1,.44,2.12v1.51a4.79,4.79,0,0,1-.44,2.13,3.12,3.12,0,0,1-1.29,1.35,4.62,4.62,0,0,1-4.06,0Zm3.49-1.83a2.43,2.43,0,0,0,.51-1.65v-1.51a2.43,2.43,0,0,0-.51-1.65,1.88,1.88,0,0,0-1.46-.58,1.85,1.85,0,0,0-1.45.58,2.38,2.38,0,0,0-.52,1.65v1.51a2.38,2.38,0,0,0,.52,1.65,1.82,1.82,0,0,0,1.45.59A1.85,1.85,0,0,0,90.58,607.74Z"/><path class="f" d="M95.43,600.78h1.79v9.12H95.43Zm4.42,1.72a2.16,2.16,0,0,0-.83-.15,1.83,1.83,0,0,0-1.33.47,1.79,1.79,0,0,0-.47,1.31L97,602.37a3.32,3.32,0,0,1,1.09-1.27,2.58,2.58,0,0,1,1.48-.45,3.39,3.39,0,0,1,1.13.18,2.62,2.62,0,0,1,.88.53l-1.17,1.58A1.56,1.56,0,0,0,99.85,602.5Z"/><path class="f" d="M102.15,600.78H104l2.81,7.93-1,1.94Zm8.07,0L106.34,612a2.6,2.6,0,0,1-.56,1,1.87,1.87,0,0,1-.84.52,4,4,0,0,1-1.23.16h-.36V612h.36a1.46,1.46,0,0,0,.8-.2,1.74,1.74,0,0,0,.51-.7l3.38-10.31Z"/><path class="f" d="M113.51,609.88a5.76,5.76,0,0,1-1.32-.48,4.89,4.89,0,0,1-1.13-.79l1.06-1.31a5.86,5.86,0,0,0,1.47.85,4.18,4.18,0,0,0,1.44.28,3.11,3.11,0,0,0,1.6-.33,1.1,1.1,0,0,0,.53-1,.79.79,0,0,0-.29-.66,1.66,1.66,0,0,0-.72-.29c-.29,0-.69-.1-1.22-.14h-.15l-.14,0h-.15a6.45,6.45,0,0,1-1.5-.26,2,2,0,0,1-1-.7,2.38,2.38,0,0,1-.41-1.49,3.07,3.07,0,0,1,.39-1.61,2.41,2.41,0,0,1,1.18-1,5.29,5.29,0,0,1,2-.32,6.38,6.38,0,0,1,2.6.52,6.16,6.16,0,0,1,1.13.66l-1.08,1.31a5.59,5.59,0,0,0-1.35-.66,4,4,0,0,0-1.3-.22,2.44,2.44,0,0,0-1.37.31,1.08,1.08,0,0,0-.46.94.64.64,0,0,0,.26.55,1.72,1.72,0,0,0,.66.25c.26,0,.64.07,1.12.1h.34a7.67,7.67,0,0,1,1.63.25,2.24,2.24,0,0,1,1.13.77,2.62,2.62,0,0,1,.45,1.65,2.92,2.92,0,0,1-.42,1.63,2.54,2.54,0,0,1-1.27,1A5.88,5.88,0,0,1,115,610,7.38,7.38,0,0,1,113.51,609.88Z"/><path class="f" d="M126,597.13h1.8V609.9H126Zm2.6,12.5a2.39,2.39,0,0,1-.93-1.16l.13-1.91a2.22,2.22,0,0,0,.21,1,1.48,1.48,0,0,0,.61.63,1.93,1.93,0,0,0,1,.22,1.74,1.74,0,0,0,1.37-.54,2.18,2.18,0,0,0,.49-1.53v-2a2.26,2.26,0,0,0-.49-1.56,1.71,1.71,0,0,0-1.37-.55,2,2,0,0,0-1,.21,1.36,1.36,0,0,0-.61.62,2.12,2.12,0,0,0-.21,1l-.19-1.76a3.37,3.37,0,0,1,1.08-1.24,2.67,2.67,0,0,1,1.49-.43,3,3,0,0,1,1.65.43,2.9,2.9,0,0,1,1.06,1.27,5.1,5.1,0,0,1,.36,2v2a4.94,4.94,0,0,1-.37,2,2.79,2.79,0,0,1-1.08,1.26,3.25,3.25,0,0,1-1.71.44A2.73,2.73,0,0,1,128.57,609.63Z"/><path class="f" d="M134.46,600.78h1.82l2.81,7.93-1,1.94Zm8.07,0L138.65,612a2.6,2.6,0,0,1-.56,1,1.87,1.87,0,0,1-.84.52,4,4,0,0,1-1.23.16h-.36V612H136a1.46,1.46,0,0,0,.8-.2,1.74,1.74,0,0,0,.51-.7l3.37-10.31Z"/><path class="f" d="M143.57,600.78h4.12v1.62h-4.12Zm1.46,8.56a2.77,2.77,0,0,1-.52-1.81v-9.4h1.8v9.42a.84.84,0,0,0,.13.51.46.46,0,0,0,.39.18h.86V610h-1A2,2,0,0,1,145,609.34Z"/><path class="f" d="M151.94,606.33a2.07,2.07,0,0,0,.49,1.48,1.76,1.76,0,0,0,1.37.52,1.91,1.91,0,0,0,1.37-.46,1.79,1.79,0,0,0,.48-1.33l.12,1.91A2.58,2.58,0,0,1,153.3,610a2.89,2.89,0,0,1-2.33-1,4.08,4.08,0,0,1-.82-2.73v-5.55h1.79Zm3.71-5.55h1.78v9.12h-1.78Z"/><rect class="g" x="612.92" y="591.68" width="35.43" height="2.83"/><path class="h" d="M648.48,594.64H612.79v-3.08h35.69ZM613,594.39h35.19v-2.58H613Z"/><rect class="g" x="612.92" y="601.6" width="70.74" height="2.83"/><path class="h" d="M683.78,604.56h-71v-3.08h71ZM613,604.31h70.49v-2.58H613Z"/><rect class="g" x="612.92" y="612.72" width="177.16" height="2.84"/><path class="h" d="M790.21,615.68H612.79V612.6H790.21ZM613,615.43H790v-2.58H613Z"/><path class="i" d="M587.26,596.28h-.8v-4.82l-.81.5v-.83l.81-.53h.8Z"/><path class="i" d="M589,595.91a1.67,1.67,0,0,1-.41-1.19v-2.58A1.65,1.65,0,0,1,589,591a2,2,0,0,1,2.42,0,1.65,1.65,0,0,1,.41,1.19v2.58a1.65,1.65,0,0,1-.41,1.19,2,2,0,0,1-2.42,0Zm1.83-.55a.89.89,0,0,0,.2-.64v-2.58a.89.89,0,0,0-.2-.64.82.82,0,0,0-.62-.22.86.86,0,0,0-.63.22.94.94,0,0,0-.2.64v2.58a.9.9,0,0,0,.21.64,1,1,0,0,0,1.24,0Z"/><path class="i" d="M593.22,595.91a1.67,1.67,0,0,1-.41-1.19v-2.58a1.65,1.65,0,0,1,.41-1.19,2,2,0,0,1,2.42,0,1.61,1.61,0,0,1,.41,1.19v2.58a1.65,1.65,0,0,1-.41,1.19,2,2,0,0,1-2.42,0Zm1.83-.55a.9.9,0,0,0,.21-.64v-2.58a.94.94,0,0,0-.2-.64.86.86,0,0,0-.63-.22.82.82,0,0,0-.62.22.89.89,0,0,0-.2.64v2.58a.89.89,0,0,0,.2.64,1,1,0,0,0,1.24,0Z"/><path class="i" d="M600.1,596.13a1.45,1.45,0,0,1-.6-.6,2.06,2.06,0,0,1-.21-1v-.67a2,2,0,0,1,.21-.94,1.37,1.37,0,0,1,.6-.59,2,2,0,0,1,.95-.21,2.21,2.21,0,0,1,.59.08,1.68,1.68,0,0,1,.51.22,1.54,1.54,0,0,1,.37.35l-.58.52a1.17,1.17,0,0,0-.4-.3,1.13,1.13,0,0,0-.48-.11.94.94,0,0,0-.71.26,1,1,0,0,0-.26.72v.67a1,1,0,0,0,.25.74.94.94,0,0,0,.72.27,1,1,0,0,0,.48-.12,1,1,0,0,0,.4-.32l.58.56a1.38,1.38,0,0,1-.38.34,1.62,1.62,0,0,1-.5.22,2.27,2.27,0,0,1-.59.07A2.12,2.12,0,0,1,600.1,596.13Z"/><path class="i" d="M603.4,592.22h.79v4.06h-.79Zm2.42,1.6a1,1,0,0,0-.21-.67.78.78,0,0,0-.6-.23.81.81,0,0,0-.6.21.73.73,0,0,0-.22.58l-.08-.78a1.46,1.46,0,0,1,.49-.57,1.22,1.22,0,0,1,.67-.2,1.33,1.33,0,0,1,.73.2,1.18,1.18,0,0,1,.46.56,2.4,2.4,0,0,1,.15.89v2.47h-.79Zm2.42,0a.93.93,0,0,0-.22-.67.85.85,0,0,0-.63-.23.72.72,0,0,0-.57.23.9.9,0,0,0-.21.64l-.16-.78a1.61,1.61,0,0,1,.51-.63,1.23,1.23,0,0,1,.69-.22,1.37,1.37,0,0,1,.75.2,1.09,1.09,0,0,1,.47.56,2.21,2.21,0,0,1,.17.89v2.47h-.8Z"/><path class="i" d="M584.33,605.5l2-2.64a1.85,1.85,0,0,0,.27-.47,1.29,1.29,0,0,0,.09-.45h0a.67.67,0,0,0-.2-.53.81.81,0,0,0-.56-.19.76.76,0,0,0-.56.21,1,1,0,0,0-.27.58h-.82a2,2,0,0,1,.29-.83,1.42,1.42,0,0,1,.56-.53,1.67,1.67,0,0,1,.79-.18,1.93,1.93,0,0,1,.87.17,1.21,1.21,0,0,1,.54.51,1.55,1.55,0,0,1,.19.8h0a1.84,1.84,0,0,1-.12.63,2.8,2.8,0,0,1-.35.63l-1.65,2.24h2.15v.76h-3.2Z"/><path class="i" d="M589,605.83a1.67,1.67,0,0,1-.41-1.19v-2.58a1.65,1.65,0,0,1,.41-1.19,2,2,0,0,1,2.42,0,1.65,1.65,0,0,1,.41,1.19v2.58a1.65,1.65,0,0,1-.41,1.19,2,2,0,0,1-2.42,0Zm1.83-.55a.89.89,0,0,0,.2-.64v-2.58a.89.89,0,0,0-.2-.64.82.82,0,0,0-.62-.22.86.86,0,0,0-.63.22.94.94,0,0,0-.19.64v2.58a.89.89,0,0,0,.2.64,1,1,0,0,0,1.24,0Z"/><path class="i" d="M593.22,605.83a1.67,1.67,0,0,1-.41-1.19v-2.58a1.61,1.61,0,0,1,.42-1.19,1.59,1.59,0,0,1,1.2-.42,1.45,1.45,0,0,1,1.62,1.61v2.58a1.61,1.61,0,0,1-.41,1.19,2,2,0,0,1-2.42,0Zm1.84-.55a.94.94,0,0,0,.2-.64v-2.58a.94.94,0,0,0-.2-.64.84.84,0,0,0-.63-.22.82.82,0,0,0-.62.22.89.89,0,0,0-.2.64v2.58a.89.89,0,0,0,.2.64.82.82,0,0,0,.62.22A.86.86,0,0,0,595.06,605.28Z"/><path class="i" d="M600.1,606.05a1.45,1.45,0,0,1-.6-.6,2.06,2.06,0,0,1-.2-1v-.67a2,2,0,0,1,.2-.94,1.37,1.37,0,0,1,.6-.59,2,2,0,0,1,.95-.21,2.35,2.35,0,0,1,.6.08,1.73,1.73,0,0,1,.5.22,1.38,1.38,0,0,1,.37.35l-.58.52a1.08,1.08,0,0,0-.4-.3,1.13,1.13,0,0,0-.48-.11,1,1,0,0,0-.71.26,1,1,0,0,0-.26.72v.67a1,1,0,0,0,.25.74.94.94,0,0,0,.72.27,1.14,1.14,0,0,0,.88-.44l.58.56a1.38,1.38,0,0,1-.38.34,1.62,1.62,0,0,1-.5.22,2.22,2.22,0,0,1-.59.07A2.12,2.12,0,0,1,600.1,606.05Z"/><path class="i" d="M603.4,602.14h.79v4.06h-.79Zm2.42,1.6a1,1,0,0,0-.21-.67.78.78,0,0,0-.6-.23.81.81,0,0,0-.6.21.73.73,0,0,0-.22.58l-.08-.78a1.46,1.46,0,0,1,.49-.57,1.22,1.22,0,0,1,.67-.2,1.3,1.3,0,0,1,.73.2,1.18,1.18,0,0,1,.46.56,2.4,2.4,0,0,1,.16.89v2.47h-.8Zm2.42,0a.93.93,0,0,0-.22-.67.85.85,0,0,0-.63-.23.73.73,0,0,0-.57.23.89.89,0,0,0-.2.64l-.16-.78a1.51,1.51,0,0,1,.5-.63,1.23,1.23,0,0,1,.69-.22,1.35,1.35,0,0,1,.75.2,1.16,1.16,0,0,1,.48.56,2.4,2.4,0,0,1,.16.89v2.47h-.8Z"/><path class="i" d="M585,615.58a1.34,1.34,0,0,1-.54-.49,2,2,0,0,1-.28-.77h.8a.75.75,0,0,0,.25.49.85.85,0,0,0,.54.17.72.72,0,0,0,.59-.25,1.1,1.1,0,0,0,.21-.72v-.48a1.1,1.1,0,0,0-.21-.72.72.72,0,0,0-.59-.25.83.83,0,0,0-.4.11,1.18,1.18,0,0,0-.34.33h-.72v-3h2.89v.76h-2.1V612a1,1,0,0,1,.34-.18.94.94,0,0,1,.37-.07,1.68,1.68,0,0,1,.84.2,1.29,1.29,0,0,1,.53.6,2.07,2.07,0,0,1,.19.94V614a2.25,2.25,0,0,1-.19.94,1.31,1.31,0,0,1-.55.59,1.69,1.69,0,0,1-.86.21A1.74,1.74,0,0,1,585,615.58Z"/><path class="i" d="M589,615.32a1.65,1.65,0,0,1-.41-1.19v-2.58a1.67,1.67,0,0,1,.41-1.19,2,2,0,0,1,2.42,0,1.65,1.65,0,0,1,.41,1.19v2.58a1.64,1.64,0,0,1-.41,1.19,1.92,1.92,0,0,1-2.42,0Zm1.83-.55a.89.89,0,0,0,.2-.64v-2.58a.88.88,0,0,0-.2-.63.78.78,0,0,0-.62-.22.82.82,0,0,0-.63.22.93.93,0,0,0-.2.63v2.58a.9.9,0,0,0,.21.64,1,1,0,0,0,1.24,0Z"/><path class="i" d="M593.22,615.32a1.65,1.65,0,0,1-.41-1.19v-2.58a1.67,1.67,0,0,1,.41-1.19,2,2,0,0,1,2.42,0,1.61,1.61,0,0,1,.41,1.19v2.58a1.64,1.64,0,0,1-.41,1.19,1.92,1.92,0,0,1-2.42,0Zm1.83-.55a.9.9,0,0,0,.21-.64v-2.58a.93.93,0,0,0-.2-.63.82.82,0,0,0-.63-.22.78.78,0,0,0-.62.22.88.88,0,0,0-.2.63v2.58a.89.89,0,0,0,.2.64,1,1,0,0,0,1.24,0Z"/><path class="i" d="M600.1,615.54a1.45,1.45,0,0,1-.6-.6,2,2,0,0,1-.21-1v-.67a2,2,0,0,1,.21-.94,1.45,1.45,0,0,1,.6-.6,2,2,0,0,1,.95-.2,2.22,2.22,0,0,1,.59.07,2,2,0,0,1,.51.22,1.76,1.76,0,0,1,.37.35l-.58.52a1.17,1.17,0,0,0-.4-.3,1.13,1.13,0,0,0-.48-.11.94.94,0,0,0-.71.26,1,1,0,0,0-.26.73V614a1.07,1.07,0,0,0,.25.74,1,1,0,0,0,.72.26,1.13,1.13,0,0,0,.48-.11,1.26,1.26,0,0,0,.4-.32l.58.55a1.42,1.42,0,0,1-.38.35,1.88,1.88,0,0,1-.5.21,2.27,2.27,0,0,1-.59.08A2,2,0,0,1,600.1,615.54Z"/><path class="i" d="M603.4,611.63h.79v4.06h-.79Zm2.42,1.6a1,1,0,0,0-.21-.66.75.75,0,0,0-.6-.24.81.81,0,0,0-.6.21.75.75,0,0,0-.22.58l-.08-.78a1.5,1.5,0,0,1,.49-.56,1.15,1.15,0,0,1,.67-.2,1.32,1.32,0,0,1,.73.19,1.28,1.28,0,0,1,.46.56,2.42,2.42,0,0,1,.15.9v2.46h-.79Zm2.42,0a.91.91,0,0,0-.22-.66.82.82,0,0,0-.63-.24.72.72,0,0,0-.57.23.9.9,0,0,0-.21.64l-.16-.78a1.51,1.51,0,0,1,.51-.62,1.16,1.16,0,0,1,.69-.22,1.37,1.37,0,0,1,.75.19,1.18,1.18,0,0,1,.47.56,2.22,2.22,0,0,1,.17.9v2.46h-.8Z"/><path class="g" d="M23.49,613.89A12.92,12.92,0,1,1,36.4,601,12.93,12.93,0,0,1,23.49,613.89Zm0-24.83A11.92,11.92,0,1,0,35.4,601,11.93,11.93,0,0,0,23.49,589.06Z"/><polygon class="h" points="35.77 588.74 9.42 600.98 35.77 613.21 32.02 600.98 35.77 588.74"/><path class="g" d="M36.58,614.14,8.23,601l28.35-13.17-4,13.17ZM10.61,601,35,612.29,31.5,601,35,589.66Z"/><path class="g" d="M2.52,605.19a5,5,0,0,1-1.11-.38,4.4,4.4,0,0,1-1-.64l.81-1a3.72,3.72,0,0,0,1.16.69,4.08,4.08,0,0,0,1.38.23,2.73,2.73,0,0,0,1.55-.38,1.17,1.17,0,0,0,.55-1.05h0a1.12,1.12,0,0,0-.25-.77,1.44,1.44,0,0,0-.64-.42,8.23,8.23,0,0,0-1-.25H3.89l-.1,0a9.48,9.48,0,0,1-1.5-.36,2.08,2.08,0,0,1-1-.73,2.42,2.42,0,0,1-.41-1.51h0a2.77,2.77,0,0,1,.38-1.47,2.44,2.44,0,0,1,1.12-.92,4.48,4.48,0,0,1,1.77-.32,4.6,4.6,0,0,1,1,.11,4.9,4.9,0,0,1,1.86.86l-.73,1a4.61,4.61,0,0,0-1-.58,3,3,0,0,0-1.06-.2,2.44,2.44,0,0,0-1.46.38,1.24,1.24,0,0,0-.53,1.07h0a1,1,0,0,0,.27.75,1.74,1.74,0,0,0,.67.4,9.3,9.3,0,0,0,1.12.27h.24a7.93,7.93,0,0,1,1.4.41,2.22,2.22,0,0,1,.94.76,2.4,2.4,0,0,1,.38,1.43h0a2.62,2.62,0,0,1-.4,1.45,2.54,2.54,0,0,1-1.16.91,4.8,4.8,0,0,1-1.83.31A6.44,6.44,0,0,1,2.52,605.19Z"/><rect class="g" x="612.5" y="600.68" width="1" height="4.68"/><rect class="g" x="612.5" y="590.76" width="1" height="4.68"/><rect class="g" x="612.5" y="611.45" width="1" height="5.24"/><rect class="g" x="789.58" y="611.45" width="1" height="5.24"/><rect class="g" x="682.59" y="600.68" width="1" height="4.68"/><rect class="g" x="647.3" y="590.76" width="1" height="4.68"/><rect class="a" width="790.34" height="618.13"/><line class="j" x1="343.95" y1="340.61" x2="374.45" y2="340.61"/><path class="k" d="M304,340.61h0Z"/><line class="j" x1="303.97" y1="200.99" x2="303.97" y2="200.99"/><line class="j" x1="303.97" y1="200.99" x2="303.97" y2="256.28"/><line class="j" x1="303.97" y1="256.28" x2="303.97" y2="277.36"/><line class="j" x1="303.97" y1="277.36" x2="303.97" y2="277.36"/><rect class="h" x="421.38" y="325.57" width="40.66" height="27.65"/><line class="j" x1="421.38" y1="325.57" x2="421.38" y2="353.22"/><line class="j" x1="462.05" y1="325.57" x2="421.38" y2="325.57"/><line class="j" x1="462.05" y1="353.22" x2="462.05" y2="325.57"/><line class="j" x1="421.38" y1="353.22" x2="462.05" y2="353.22"/><rect class="h" x="446.8" y="248.51" width="20.33" height="20.74"/><line class="j" x1="446.8" y1="248.51" x2="446.8" y2="269.24"/><line class="j" x1="467.13" y1="248.51" x2="446.8" y2="248.51"/><line class="j" x1="467.13" y1="269.24" x2="467.13" y2="248.51"/><line class="j" x1="446.8" y1="269.24" x2="467.13" y2="269.24"/><rect class="h" x="452.39" y="105.95" width="20.67" height="107.13"/><line class="j" x1="452.39" y1="105.95" x2="452.39" y2="213.08"/><line class="j" x1="473.06" y1="105.95" x2="452.39" y2="105.95"/><line class="j" x1="473.06" y1="213.08" x2="473.06" y2="105.95"/><line class="j" x1="452.39" y1="213.08" x2="473.06" y2="213.08"/><line class="j" x1="391.06" y1="518.24" x2="391.06" y2="518.93"/><line class="j" x1="391.06" y1="518.93" x2="388.34" y2="518.93"/><line class="j" x1="388.34" y1="518.93" x2="388.34" y2="516.17"/><line class="j" x1="388.34" y1="516.17" x2="389.7" y2="516.17"/><line class="j" x1="312.1" y1="105.95" x2="312.1" y2="267.69"/><line class="j" x1="312.1" y1="270.11" x2="312.1" y2="292.57"/><line class="j" x1="303.97" y1="105.95" x2="303.97" y2="277.36"/><line class="j" x1="378.52" y1="612.24" x2="479.84" y2="612.24"/><line class="j" x1="378.52" y1="600.14" x2="473.06" y2="600.14"/><line class="j" x1="312.1" y1="332.31" x2="382.58" y2="332.31"/><line class="j" x1="473.06" y1="213.08" x2="473.06" y2="105.95"/><line class="j" x1="479.84" y1="99.04" x2="479.84" y2="518.93"/><line class="j" x1="308.03" y1="17.83" x2="473.06" y2="17.83"/><line class="j" x1="473.06" y1="92.13" x2="473.06" y2="17.83"/><line class="j" x1="484.92" y1="92.13" x2="484.92" y2="5.73"/><line class="j" x1="473.06" y1="525.84" x2="473.06" y2="600.14"/><line class="j" x1="312.1" y1="330.59" x2="312.1" y2="332.31"/><line class="j" x1="303.97" y1="285.66" x2="303.97" y2="292.57"/><line class="j" x1="303.97" y1="330.59" x2="303.97" y2="332.31"/><line class="j" x1="452.73" y1="92.13" x2="452.73" y2="85.22"/><line class="j" x1="452.73" y1="81.41" x2="452.73" y2="80.64"/><line class="j" x1="452.73" y1="76.83" x2="452.73" y2="76.06"/><line class="j" x1="452.73" y1="72.26" x2="452.73" y2="65.34"/><line class="j" x1="452.73" y1="61.54" x2="452.73" y2="60.76"/><line class="j" x1="452.73" y1="56.96" x2="452.73" y2="56.19"/><line class="j" x1="452.73" y1="52.38" x2="452.73" y2="47.2"/><line class="j" x1="452.73" y1="47.2" x2="452.73" y2="40.29"/><line class="j" x1="308.03" y1="40.29" x2="309.56" y2="40.29"/><line class="j" x1="313.28" y1="40.29" x2="314.05" y2="40.29"/><line class="j" x1="317.77" y1="40.29" x2="318.54" y2="40.29"/><line class="j" x1="322.26" y1="40.29" x2="329.04" y2="40.29"/><line class="j" x1="332.77" y1="40.29" x2="333.53" y2="40.29"/><line class="j" x1="337.26" y1="40.29" x2="338.02" y2="40.29"/><line class="j" x1="341.75" y1="40.29" x2="348.53" y2="40.29"/><line class="j" x1="352.25" y1="40.29" x2="353.02" y2="40.29"/><line class="j" x1="356.74" y1="40.29" x2="357.51" y2="40.29"/><line class="j" x1="361.23" y1="40.29" x2="368.01" y2="40.29"/><line class="j" x1="371.74" y1="40.29" x2="372.5" y2="40.29"/><line class="j" x1="376.23" y1="40.29" x2="376.99" y2="40.29"/><line class="j" x1="380.72" y1="40.29" x2="387.5" y2="40.29"/><line class="j" x1="391.22" y1="40.29" x2="391.99" y2="40.29"/><line class="j" x1="395.71" y1="40.29" x2="396.48" y2="40.29"/><line class="j" x1="400.2" y1="40.29" x2="406.98" y2="40.29"/><line class="j" x1="410.71" y1="40.29" x2="411.47" y2="40.29"/><line class="j" x1="415.2" y1="40.29" x2="415.96" y2="40.29"/><line class="j" x1="419.69" y1="40.29" x2="426.47" y2="40.29"/><line class="j" x1="430.19" y1="40.29" x2="430.96" y2="40.29"/><line class="j" x1="434.68" y1="40.29" x2="435.45" y2="40.29"/><line class="j" x1="439.17" y1="40.29" x2="445.95" y2="40.29"/><line class="j" x1="445.95" y1="40.29" x2="452.73" y2="40.29"/><line class="j" x1="308.03" y1="92.13" x2="303.96" y2="92.13"/><line class="j" x1="345.99" y1="92.13" x2="308.03" y2="92.13"/><line class="j" x1="344.29" y1="105.95" x2="312.1" y2="105.95"/><line class="j" x1="344.29" y1="99.04" x2="303.97" y2="99.04"/><line class="j" x1="303.97" y1="105.95" x2="303.97" y2="105.95"/><line class="j" x1="444.26" y1="92.13" x2="484.92" y2="92.13"/><line class="j" x1="484.92" y1="92.13" x2="486.62" y2="92.13"/><line class="j" x1="479.84" y1="99.04" x2="445.95" y2="99.04"/><line class="j" x1="445.95" y1="105.95" x2="473.06" y2="105.95"/><line class="j" x1="390.04" y1="525.84" x2="374.45" y2="525.84"/><line class="j" x1="388.34" y1="512.02" x2="382.58" y2="512.02"/><line class="j" x1="388.34" y1="518.93" x2="374.45" y2="518.93"/><line class="j" x1="456.12" y1="512.02" x2="456.12" y2="518.93"/><line class="j" x1="486.62" y1="525.84" x2="454.42" y2="525.84"/><line class="j" x1="303.97" y1="285.66" x2="303.97" y2="285.66"/><line class="j" x1="303.97" y1="277.36" x2="303.97" y2="277.36"/><line class="j" x1="303.97" y1="332.31" x2="303.97" y2="332.31"/><line class="j" x1="303.97" y1="340.61" x2="340.56" y2="340.61"/><line class="j" x1="312.1" y1="292.57" x2="312.1" y2="299.48"/><line class="j" x1="312.1" y1="303.28" x2="312.1" y2="304.06"/><line class="j" x1="312.1" y1="307.86" x2="312.1" y2="308.64"/><line class="j" x1="312.1" y1="312.44" x2="312.1" y2="319.35"/><line class="j" x1="312.1" y1="323.15" x2="312.1" y2="323.67"/><line class="j" x1="312.1" y1="323.67" x2="312.1" y2="330.59"/><line class="j" x1="307.86" y1="330.59" x2="303.97" y2="330.59"/><line class="j" x1="307.86" y1="294.3" x2="303.97" y2="294.3"/><line class="j" x1="307.86" y1="328.86" x2="303.97" y2="328.86"/><line class="j" x1="307.86" y1="328.86" x2="307.86" y2="330.59"/><line class="j" x1="307.86" y1="294.3" x2="307.86" y2="292.57"/><line class="j" x1="307.86" y1="292.57" x2="312.1" y2="292.57"/><line class="j" x1="307.86" y1="330.59" x2="312.1" y2="330.59"/><line class="j" x1="307.86" y1="327.13" x2="307.86" y2="296.03"/><line class="j" x1="303.97" y1="327.13" x2="303.97" y2="296.03"/><line class="j" x1="307.86" y1="327.13" x2="338.36" y2="327.13"/><g class="l"><path class="j" d="M307.86,296c16.85,0,30.5,13.92,30.5,31.1"/></g><line class="j" x1="303.97" y1="327.13" x2="307.86" y2="327.13"/><line class="j" x1="307.86" y1="296.03" x2="303.97" y2="296.03"/><line class="j" x1="307.86" y1="296.03" x2="307.86" y2="294.3"/><line class="j" x1="303.97" y1="296.03" x2="303.97" y2="294.3"/><line class="j" x1="307.86" y1="328.86" x2="307.86" y2="327.13"/><line class="j" x1="303.97" y1="328.86" x2="303.97" y2="327.13"/><line class="j" x1="456.12" y1="518.93" x2="479.84" y2="518.93"/><line class="j" x1="303.97" y1="328.86" x2="303.97" y2="330.59"/><line class="j" x1="307.86" y1="292.57" x2="303.97" y2="292.57"/><line class="j" x1="303.97" y1="285.66" x2="303.97" y2="294.3"/><line class="j" x1="381.57" y1="577.68" x2="388.34" y2="577.68"/><line class="j" x1="392.07" y1="577.68" x2="392.83" y2="577.68"/><line class="j" x1="396.56" y1="577.68" x2="397.32" y2="577.68"/><line class="j" x1="401.05" y1="577.68" x2="407.83" y2="577.68"/><line class="j" x1="411.56" y1="577.68" x2="412.32" y2="577.68"/><line class="j" x1="416.05" y1="577.68" x2="416.81" y2="577.68"/><line class="j" x1="420.54" y1="577.68" x2="427.31" y2="577.68"/><line class="j" x1="431.04" y1="577.68" x2="431.8" y2="577.68"/><line class="j" x1="435.53" y1="577.68" x2="436.29" y2="577.68"/><line class="j" x1="440.02" y1="577.68" x2="446.8" y2="577.68"/><line class="j" x1="450.53" y1="577.68" x2="451.29" y2="577.68"/><line class="j" x1="455.02" y1="577.68" x2="455.78" y2="577.68"/><line class="j" x1="459.51" y1="577.68" x2="466.28" y2="577.68"/><line class="j" x1="469.67" y1="577.68" x2="476.45" y2="577.68"/><line class="j" x1="476.45" y1="525.84" x2="476.45" y2="532.75"/><line class="j" x1="476.45" y1="536.56" x2="476.45" y2="537.33"/><line class="j" x1="476.45" y1="541.13" x2="476.45" y2="541.91"/><line class="j" x1="476.45" y1="545.71" x2="476.45" y2="552.63"/><line class="j" x1="476.45" y1="556.43" x2="476.45" y2="557.21"/><line class="j" x1="476.45" y1="561.01" x2="476.45" y2="561.78"/><line class="j" x1="476.45" y1="565.59" x2="476.45" y2="570.77"/><line class="j" x1="476.45" y1="570.77" x2="476.45" y2="577.68"/><line class="j" x1="388.34" y1="512.02" x2="388.34" y2="518.93"/><line class="j" x1="456.12" y1="512.02" x2="473.06" y2="512.02"/><line class="j" x1="456.12" y1="512.02" x2="388.34" y2="512.02"/><line class="j" x1="379.87" y1="525.84" x2="379.87" y2="596.69"/><line class="j" x1="378.52" y1="596.69" x2="379.87" y2="596.69"/><line class="j" x1="303.97" y1="105.95" x2="312.1" y2="105.95"/><line class="j" x1="309.39" y1="21.28" x2="309.39" y2="92.13"/><line class="j" x1="308.03" y1="21.28" x2="309.39" y2="21.28"/><line class="j" x1="340.56" y1="340.61" x2="343.95" y2="340.61"/><line class="j" x1="312.1" y1="267.69" x2="312.1" y2="270.11"/><line class="j" x1="390.04" y1="518.93" x2="390.04" y2="525.84"/><line class="j" x1="388.34" y1="518.93" x2="390.04" y2="518.93"/><line class="j" x1="454.42" y1="518.93" x2="454.42" y2="525.84"/><line class="j" x1="454.42" y1="518.93" x2="456.12" y2="518.93"/><line class="j" x1="422.23" y1="501.65" x2="422.23" y2="518.93"/><line class="j" x1="420.54" y1="518.93" x2="420.54" y2="525.84"/><line class="j" x1="454.42" y1="525.84" x2="420.54" y2="525.84"/><line class="j" x1="420.54" y1="525.84" x2="413.76" y2="525.84"/><line class="j" x1="410.03" y1="525.84" x2="409.27" y2="525.84"/><line class="j" x1="405.54" y1="525.84" x2="404.78" y2="525.84"/><line class="j" x1="401.05" y1="525.84" x2="396.82" y2="525.84"/><line class="j" x1="396.82" y1="525.84" x2="390.04" y2="525.84"/><line class="j" x1="420.54" y1="522.39" x2="390.04" y2="522.39"/><line class="j" x1="422.23" y1="518.93" x2="422.23" y2="516.17"/><line class="j" x1="420.88" y1="518.24" x2="420.88" y2="515.47"/><line class="j" x1="420.88" y1="518.24" x2="389.7" y2="518.24"/><line class="j" x1="389.7" y1="518.24" x2="389.7" y2="483.68"/><line class="j" x1="418.16" y1="516.86" x2="392.41" y2="516.86"/><g class="l"><path class="j" d="M389.7,483.68c17.22,0,31.18,14.24,31.18,31.79"/></g><line class="j" x1="424.94" y1="518.24" x2="424.94" y2="518.93"/><line class="j" x1="454.76" y1="518.24" x2="423.59" y2="518.24"/><line class="j" x1="423.59" y1="518.24" x2="423.59" y2="515.47"/><line class="j" x1="453.41" y1="518.24" x2="453.41" y2="518.93"/><line class="j" x1="453.41" y1="518.93" x2="456.12" y2="518.93"/><line class="j" x1="456.12" y1="518.93" x2="456.12" y2="516.17"/><line class="j" x1="456.12" y1="516.17" x2="454.76" y2="516.17"/><line class="j" x1="454.76" y1="518.24" x2="454.76" y2="515.47"/><line class="j" x1="426.3" y1="516.86" x2="452.05" y2="516.86"/><line class="j" x1="445.95" y1="105.95" x2="445.95" y2="99.04"/><line class="j" x1="344.29" y1="105.95" x2="445.95" y2="105.95"/><line class="j" x1="344.29" y1="105.95" x2="344.29" y2="99.04"/><line class="j" x1="345.99" y1="99.04" x2="345.99" y2="92.13"/><line class="j" x1="344.29" y1="99.04" x2="345.98" y2="99.04"/><line class="j" x1="444.26" y1="99.04" x2="444.26" y2="92.13"/><line class="j" x1="445.95" y1="99.04" x2="444.26" y2="99.04"/><line class="j" x1="345.99" y1="92.13" x2="413.76" y2="92.13"/><line class="j" x1="412.07" y1="105.95" x2="412.07" y2="99.04"/><line class="j" x1="413.76" y1="99.04" x2="413.76" y2="92.13"/><line class="j" x1="413.76" y1="92.13" x2="420.54" y2="92.13"/><line class="j" x1="424.26" y1="92.13" x2="425.03" y2="92.13"/><line class="j" x1="428.75" y1="92.13" x2="429.52" y2="92.13"/><line class="j" x1="433.24" y1="92.13" x2="437.48" y2="92.13"/><line class="j" x1="437.48" y1="92.13" x2="444.26" y2="92.13"/><line class="j" x1="413.76" y1="95.58" x2="444.26" y2="95.58"/><line class="j" x1="444.6" y1="99.73" x2="444.6" y2="134.29"/><line class="j" x1="412.07" y1="99.04" x2="412.07" y2="101.8"/><line class="j" x1="444.6" y1="99.73" x2="413.42" y2="99.73"/><line class="j" x1="413.42" y1="99.73" x2="413.42" y2="102.5"/><line class="j" x1="441.89" y1="102.49" x2="441.89" y2="99.73"/><line class="j" x1="416.13" y1="101.11" x2="441.89" y2="101.11"/><g class="l"><path class="j" d="M444.6,134.29c-17.22,0-31.18-14.24-31.18-31.8"/></g><line class="j" x1="443.24" y1="99.73" x2="443.24" y2="99.04"/><line class="j" x1="443.24" y1="99.04" x2="445.95" y2="99.04"/><line class="j" x1="445.95" y1="99.04" x2="445.95" y2="101.8"/><line class="j" x1="445.95" y1="101.8" x2="444.6" y2="101.8"/><line class="j" x1="347" y1="99.73" x2="347" y2="99.04"/><line class="j" x1="347" y1="99.04" x2="344.29" y2="99.04"/><line class="j" x1="344.29" y1="99.04" x2="344.29" y2="101.8"/><line class="j" x1="344.29" y1="101.8" x2="345.65" y2="101.8"/><line class="j" x1="378.18" y1="99.73" x2="345.65" y2="99.73"/><line class="j" x1="345.65" y1="99.73" x2="345.65" y2="102.5"/><line class="j" x1="379.53" y1="99.04" x2="379.53" y2="101.8"/><line class="j" x1="378.18" y1="99.73" x2="378.18" y2="102.5"/><line class="j" x1="348.36" y1="101.11" x2="375.47" y2="101.11"/><line class="j" x1="409.35" y1="101.8" x2="409.35" y2="99.04"/><line class="j" x1="409.35" y1="100.42" x2="379.53" y2="100.42"/><g class="l"><path class="j" d="M309.22,515.47c0-17.55,14-31.79,31.17-31.79"/></g><line class="j" x1="388.34" y1="512.02" x2="388.34" y2="501.65"/><line class="j" x1="388.34" y1="501.65" x2="422.23" y2="501.65"/><line class="j" x1="418.16" y1="309.16" x2="418.16" y2="284.97"/><line class="j" x1="418.16" y1="309.16" x2="394.44" y2="309.16"/><g class="l"><path class="j" d="M394.44,309.16A24,24,0,0,1,418.17,285"/></g><line class="j" x1="420.54" y1="309.16" x2="418.17" y2="309.16"/><line class="j" x1="418.16" y1="284.97" x2="420.54" y2="284.97"/><line class="j" x1="418.16" y1="284.97" x2="418.16" y2="283.24"/><line class="j" x1="420.54" y1="284.97" x2="420.54" y2="283.24"/><line class="j" x1="418.16" y1="310.89" x2="418.16" y2="309.16"/><line class="j" x1="420.54" y1="310.89" x2="420.54" y2="309.16"/><line class="j" x1="420.54" y1="309.16" x2="420.54" y2="302.25"/><line class="j" x1="420.54" y1="298.45" x2="420.54" y2="297.67"/><line class="j" x1="420.54" y1="293.87" x2="420.54" y2="293.09"/><line class="j" x1="420.54" y1="291.88" x2="420.54" y2="284.97"/><line class="j" x1="418.16" y1="309.16" x2="417.32" y2="309.16"/><line class="j" x1="417.32" y1="309.16" x2="417.32" y2="312.61"/><line class="j" x1="417.32" y1="312.61" x2="418.16" y2="312.61"/><line class="j" x1="420.54" y1="309.16" x2="421.38" y2="309.16"/><line class="j" x1="421.38" y1="309.16" x2="421.38" y2="312.61"/><line class="j" x1="421.38" y1="312.61" x2="420.54" y2="312.61"/><line class="j" x1="417.32" y1="284.97" x2="417.32" y2="281.51"/><line class="j" x1="417.32" y1="281.51" x2="418.16" y2="281.51"/><line class="j" x1="420.54" y1="284.97" x2="421.38" y2="284.97"/><line class="j" x1="421.38" y1="284.97" x2="421.38" y2="281.51"/><line class="j" x1="421.38" y1="281.51" x2="420.54" y2="281.51"/><line class="j" x1="473.06" y1="216.54" x2="473.06" y2="326.44"/><line class="j" x1="473.06" y1="326.44" x2="473.06" y2="356.5"/><line class="j" x1="418.16" y1="244.19" x2="418.16" y2="267.69"/><line class="j" x1="418.16" y1="270.11" x2="418.16" y2="283.24"/><line class="j" x1="418.16" y1="310.89" x2="418.16" y2="332.31"/><line class="j" x1="418.16" y1="334.73" x2="418.16" y2="356.5"/><line class="j" x1="420.54" y1="246.61" x2="420.54" y2="283.24"/><line class="j" x1="420.54" y1="310.89" x2="420.54" y2="354.09"/><line class="j" x1="312.1" y1="270.11" x2="384.28" y2="270.11"/><line class="j" x1="414.78" y1="270.11" x2="418.16" y2="270.11"/><line class="j" x1="312.1" y1="267.69" x2="384.28" y2="267.69"/><line class="j" x1="414.78" y1="267.69" x2="418.16" y2="267.69"/><line class="j" x1="384.28" y1="334.73" x2="382.58" y2="334.73"/><line class="j" x1="384.28" y1="332.31" x2="382.58" y2="332.31"/><line class="j" x1="418.16" y1="332.31" x2="414.78" y2="332.31"/><line class="j" x1="473.06" y1="216.54" x2="473.06" y2="244.19"/><line class="j" x1="384.28" y1="332.31" x2="384.28" y2="334.73"/><line class="j" x1="414.78" y1="332.31" x2="414.78" y2="334.73"/><line class="j" x1="418.16" y1="310.89" x2="420.54" y2="310.89"/><line class="j" x1="418.16" y1="283.24" x2="420.54" y2="283.24"/><line class="j" x1="384.28" y1="267.69" x2="384.28" y2="270.11"/><line class="j" x1="414.78" y1="267.69" x2="414.78" y2="270.11"/><line class="j" x1="467.98" y1="326.44" x2="467.98" y2="246.61"/><line class="j" x1="452.73" y1="244.19" x2="452.73" y2="213.08"/><line class="j" x1="456.12" y1="244.19" x2="456.12" y2="216.54"/><line class="j" x1="473.06" y1="244.19" x2="473.06" y2="247.64"/><line class="j" x1="413.08" y1="267.69" x2="385.97" y2="267.69"/><line class="j" x1="413.08" y1="267.69" x2="413.08" y2="240.04"/><g class="l"><path class="j" d="M386,267.69c0-15.27,12.14-27.65,27.11-27.65"/></g><line class="j" x1="413.08" y1="270.11" x2="413.08" y2="267.69"/><line class="j" x1="385.97" y1="267.69" x2="385.97" y2="270.11"/><line class="j" x1="385.97" y1="267.69" x2="384.28" y2="267.69"/><line class="j" x1="385.97" y1="270.11" x2="384.28" y2="270.11"/><line class="j" x1="414.78" y1="267.69" x2="413.08" y2="267.69"/><line class="j" x1="414.78" y1="270.11" x2="413.08" y2="270.11"/><line class="j" x1="413.08" y1="270.11" x2="406.3" y2="270.11"/><line class="j" x1="402.58" y1="270.11" x2="401.81" y2="270.11"/><line class="j" x1="398.09" y1="270.11" x2="397.32" y2="270.11"/><line class="j" x1="393.6" y1="270.11" x2="392.75" y2="270.11"/><line class="j" x1="392.75" y1="270.11" x2="385.97" y2="270.11"/><line class="j" x1="413.08" y1="267.69" x2="413.08" y2="266.82"/><line class="j" x1="413.08" y1="266.82" x2="416.47" y2="266.82"/><line class="j" x1="416.47" y1="266.82" x2="416.47" y2="267.69"/><line class="j" x1="413.08" y1="270.11" x2="413.08" y2="270.97"/><line class="j" x1="413.08" y1="270.97" x2="416.47" y2="270.97"/><line class="j" x1="416.47" y1="270.97" x2="416.47" y2="270.11"/><line class="j" x1="385.97" y1="266.82" x2="382.58" y2="266.82"/><line class="j" x1="382.58" y1="266.82" x2="382.58" y2="267.69"/><line class="j" x1="385.97" y1="270.11" x2="385.97" y2="270.97"/><line class="j" x1="385.97" y1="270.97" x2="382.58" y2="270.97"/><line class="j" x1="382.58" y1="270.97" x2="382.58" y2="270.11"/><line class="j" x1="385.97" y1="334.73" x2="413.08" y2="334.73"/><line class="j" x1="385.97" y1="334.73" x2="385.97" y2="362.38"/><g class="l"><path class="j" d="M413.08,334.73c0,15.27-12.13,27.65-27.11,27.65"/></g><line class="j" x1="385.97" y1="332.31" x2="385.97" y2="334.73"/><line class="j" x1="413.08" y1="334.73" x2="413.08" y2="332.31"/><line class="j" x1="413.08" y1="334.73" x2="414.78" y2="334.73"/><line class="j" x1="413.08" y1="332.31" x2="414.78" y2="332.31"/><line class="j" x1="384.28" y1="334.73" x2="385.97" y2="334.73"/><line class="j" x1="384.28" y1="332.31" x2="385.97" y2="332.31"/><line class="j" x1="385.97" y1="332.31" x2="392.75" y2="332.31"/><line class="j" x1="396.48" y1="332.31" x2="397.24" y2="332.31"/><line class="j" x1="400.97" y1="332.31" x2="401.73" y2="332.31"/><line class="j" x1="405.46" y1="332.31" x2="406.3" y2="332.31"/><line class="j" x1="406.3" y1="332.31" x2="413.08" y2="332.31"/><line class="j" x1="385.97" y1="334.73" x2="385.97" y2="335.6"/><line class="j" x1="385.97" y1="335.6" x2="382.58" y2="335.6"/><line class="j" x1="382.58" y1="335.6" x2="382.58" y2="334.73"/><line class="j" x1="385.97" y1="332.31" x2="385.97" y2="331.45"/><line class="j" x1="385.97" y1="331.45" x2="382.58" y2="331.45"/><line class="j" x1="382.58" y1="331.45" x2="382.58" y2="332.31"/><line class="j" x1="413.08" y1="335.6" x2="416.47" y2="335.6"/><line class="j" x1="416.47" y1="335.6" x2="416.47" y2="334.73"/><line class="j" x1="413.08" y1="332.31" x2="413.08" y2="331.45"/><line class="j" x1="413.08" y1="331.45" x2="416.47" y2="331.45"/><line class="j" x1="416.47" y1="331.45" x2="416.47" y2="332.31"/><line class="j" x1="452.73" y1="213.08" x2="473.06" y2="213.08"/><line class="j" x1="456.12" y1="216.54" x2="473.06" y2="216.54"/><line class="j" x1="473.06" y1="356.5" x2="418.17" y2="356.5"/><line class="j" x1="473.06" y1="354.09" x2="462.9" y2="354.09"/><line class="j" x1="462.9" y1="354.09" x2="420.54" y2="354.09"/><line class="j" x1="414.78" y1="334.73" x2="418.16" y2="334.73"/><line class="j" x1="473.06" y1="246.61" x2="420.54" y2="246.61"/><line class="j" x1="452.73" y1="244.19" x2="418.16" y2="244.19"/><line class="j" x1="462.9" y1="326.44" x2="473.06" y2="326.44"/><line class="j" x1="462.9" y1="354.09" x2="462.9" y2="326.44"/><line class="j" x1="473.06" y1="244.19" x2="473.06" y2="247.64"/><line class="j" x1="382.58" y1="334.73" x2="382.58" y2="512.02"/><line class="j" x1="473.06" y1="356.5" x2="473.06" y2="512.02"/><line class="j" x1="456.12" y1="244.19" x2="456.12" y2="216.54"/><line class="j" x1="456.12" y1="216.54" x2="473.06" y2="216.54"/><line class="j" x1="473.06" y1="213.08" x2="452.73" y2="213.08"/><line class="j" x1="452.73" y1="213.08" x2="452.73" y2="244.19"/><line class="j" x1="425.62" y1="244.19" x2="452.73" y2="244.19"/><line class="j" x1="473.06" y1="244.19" x2="473.06" y2="246.61"/><line class="j" x1="473.06" y1="213.08" x2="473.06" y2="216.54"/><line class="j" x1="382.58" y1="332.31" x2="382.58" y2="334.73"/><line class="j" x1="309.05" y1="21.28" x2="309.05" y2="92.13"/><line class="j" x1="308.03" y1="92.13" x2="307.01" y2="92.13"/><line class="j" x1="309.05" y1="92.13" x2="308.03" y2="92.13"/><line class="j" x1="309.05" y1="23.35" x2="308.03" y2="23.35"/><line class="j" x1="379.53" y1="525.84" x2="379.53" y2="596.69"/><line class="j" x1="379.53" y1="527.92" x2="378.52" y2="527.92"/><line class="j" x1="377.5" y1="525.84" x2="379.53" y2="525.84"/><line class="j" x1="378.52" y1="594.61" x2="379.53" y2="594.61"/><line class="j" x1="308.03" y1="21.28" x2="309.05" y2="21.28"/><line class="j" x1="308.03" y1="90.05" x2="309.05" y2="90.05"/><line class="j" x1="375.47" y1="102.49" x2="375.47" y2="99.73"/><line class="j" x1="413.42" y1="101.8" x2="378.18" y2="101.8"/><line class="j" x1="376.82" y1="99.73" x2="376.82" y2="99.04"/><line class="j" x1="376.82" y1="99.04" x2="414.78" y2="99.04"/><line class="j" x1="348.36" y1="102.49" x2="348.36" y2="99.73"/><line class="j" x1="345.65" y1="102.49" x2="378.18" y2="102.49"/><line class="j" x1="416.13" y1="102.49" x2="416.13" y2="99.73"/><line class="j" x1="413.42" y1="102.49" x2="444.6" y2="102.49"/><line class="j" x1="414.78" y1="99.73" x2="414.78" y2="99.04"/><line class="j" x1="452.05" y1="515.47" x2="452.05" y2="518.24"/><line class="j" x1="426.3" y1="515.47" x2="426.3" y2="518.24"/><line class="j" x1="423.59" y1="515.47" x2="454.76" y2="515.47"/><line class="j" x1="392.41" y1="515.47" x2="392.41" y2="518.24"/><line class="j" x1="389.7" y1="515.47" x2="420.88" y2="515.47"/><line class="j" x1="418.16" y1="515.47" x2="418.16" y2="518.24"/><line class="j" x1="423.59" y1="516.17" x2="420.88" y2="516.17"/><line class="j" x1="419.52" y1="518.24" x2="419.52" y2="518.93"/><line class="j" x1="419.52" y1="518.93" x2="424.94" y2="518.93"/><line class="j" x1="452.73" y1="244.19" x2="473.06" y2="244.19"/><line class="m" x1="465.04" y1="17.83" x2="459.11" y2="17.83"/><line class="m" x1="473.06" y1="17.83" x2="473.07" y2="17.83"/><line class="m" x1="473.06" y1="54.98" x2="473.07" y2="54.98"/><line class="m" x1="465.04" y1="92.13" x2="459.11" y2="92.13"/><line class="m" x1="473.06" y1="54.98" x2="473.07" y2="54.98"/><line class="m" x1="473.06" y1="92.13" x2="473.07" y2="92.13"/><line class="m" x1="465.04" y1="525.84" x2="459.11" y2="525.84"/><line class="m" x1="460.81" y1="526.71" x2="459.11" y2="524.98"/><line class="m" x1="473.06" y1="525.84" x2="473.07" y2="525.84"/><line class="m" x1="473.06" y1="562.99" x2="473.07" y2="562.99"/><line class="m" x1="465.04" y1="600.14" x2="459.11" y2="600.14"/><line class="m" x1="459.11" y1="599.28" x2="460.81" y2="601.01"/><line class="m" x1="473.06" y1="562.99" x2="473.07" y2="562.99"/><line class="m" x1="473.06" y1="600.14" x2="473.07" y2="600.14"/><line class="m" x1="459.96" y1="600.14" x2="459.96" y2="600.14"/><line class="j" x1="456.97" y1="327.3" x2="426.47" y2="327.3"/><line class="j" x1="423.08" y1="330.76" x2="423.08" y2="348.04"/><line class="j" x1="426.47" y1="351.49" x2="456.97" y2="351.49"/><line class="j" x1="460.35" y1="348.04" x2="460.35" y2="330.76"/><line class="j" x1="421.38" y1="252.13" x2="421.38" y2="253.17"/><line class="j" x1="421.38" y1="271.83" x2="421.38" y2="272.87"/><line class="j" x1="421.38" y1="272.87" x2="421.38" y2="271.83"/><line class="j" x1="421.38" y1="253.17" x2="421.38" y2="252.13"/><line class="j" x1="423.76" y1="272.87" x2="423.76" y2="252.13"/><line class="j" x1="424.77" y1="272.87" x2="424.77" y2="252.13"/><line class="j" x1="421.38" y1="253.17" x2="423.76" y2="253.17"/><line class="j" x1="421.38" y1="271.83" x2="423.76" y2="271.83"/><line class="j" x1="421.38" y1="252.13" x2="424.77" y2="252.13"/><line class="j" x1="421.38" y1="272.87" x2="424.77" y2="272.87"/><line class="j" x1="423.76" y1="271.83" x2="421.38" y2="271.83"/><line class="j" x1="423.76" y1="253.17" x2="423.76" y2="271.83"/><line class="j" x1="421.38" y1="253.17" x2="423.76" y2="253.17"/><line class="j" x1="424.77" y1="252.13" x2="421.38" y2="252.13"/><line class="j" x1="424.77" y1="272.87" x2="424.77" y2="252.13"/><line class="j" x1="421.38" y1="272.87" x2="424.77" y2="272.87"/><line class="j" x1="361.78" y1="258.7" x2="330.87" y2="258.7"/><line class="j" x1="338.08" y1="257.96" x2="338.08" y2="257.43"/><line class="j" x1="339.11" y1="257.96" x2="338.08" y2="257.96"/><line class="j" x1="339.11" y1="257.43" x2="339.11" y2="257.96"/><line class="j" x1="338.08" y1="257.43" x2="339.11" y2="257.43"/><line class="j" x1="335.51" y1="257.96" x2="335.51" y2="257.43"/><line class="j" x1="337.57" y1="257.96" x2="335.51" y2="257.96"/><line class="j" x1="337.57" y1="257.43" x2="337.57" y2="257.96"/><line class="j" x1="335.51" y1="257.43" x2="337.57" y2="257.43"/><line class="j" x1="332.93" y1="257.96" x2="332.93" y2="257.43"/><line class="j" x1="334.99" y1="257.96" x2="332.93" y2="257.96"/><line class="j" x1="334.99" y1="257.43" x2="334.99" y2="257.96"/><line class="j" x1="332.93" y1="257.43" x2="334.99" y2="257.43"/><line class="j" x1="361.78" y1="258.7" x2="361.78" y2="256.58"/><line class="j" x1="354.05" y1="260.82" x2="361.78" y2="258.7"/><line class="j" x1="338.6" y1="260.82" x2="354.05" y2="260.82"/><line class="j" x1="330.87" y1="258.7" x2="338.6" y2="260.82"/><line class="j" x1="330.87" y1="256.58" x2="330.87" y2="258.7"/><line class="j" x1="361.78" y1="256.58" x2="330.87" y2="256.58"/><line class="j" x1="452.39" y1="137.4" x2="473.06" y2="137.4"/><line class="j" x1="473.06" y1="127.03" x2="452.39" y2="127.03"/><line class="j" x1="452.39" y1="106.3" x2="452.39" y2="127.03"/><line class="j" x1="465.95" y1="116.66" x2="459.17" y2="116.66"/><line class="j" x1="462.56" y1="120.12" x2="462.56" y2="113.21"/><line class="j" x1="460.16" y1="114.22" x2="464.95" y2="119.11"/><line class="j" x1="464.95" y1="114.22" x2="460.16" y2="119.11"/><line class="j" x1="452.39" y1="171.27" x2="473.06" y2="171.27"/><line class="j" x1="452.39" y1="192" x2="452.39" y2="171.27"/><line class="j" x1="473.06" y1="192" x2="452.39" y2="192"/><line class="j" x1="451.47" y1="140.23" x2="451.47" y2="155.31"/><line class="j" x1="452.39" y1="158.13" x2="452.39" y2="137.4"/><line class="j" x1="473.06" y1="158.13" x2="452.39" y2="158.13"/><line class="j" x1="467.64" y1="210.15" x2="455.78" y2="210.15"/><line class="j" x1="467.64" y1="194.59" x2="467.64" y2="210.15"/><line class="j" x1="455.78" y1="194.59" x2="467.64" y2="194.59"/><line class="j" x1="455.78" y1="210.15" x2="455.78" y2="194.59"/><line class="j" x1="452.39" y1="212.74" x2="452.39" y2="192"/><line class="j" x1="471.03" y1="211.87" x2="454.09" y2="211.87"/><line class="j" x1="471.03" y1="192.87" x2="471.03" y2="211.87"/><line class="j" x1="454.09" y1="192.87" x2="471.03" y2="192.87"/><line class="j" x1="454.09" y1="211.87" x2="454.09" y2="192.87"/><line class="j" x1="446.8" y1="269.24" x2="446.8" y2="248.51"/><line class="j" x1="446.8" y1="248.51" x2="467.13" y2="248.51"/><line class="j" x1="467.13" y1="248.51" x2="467.13" y2="269.24"/><line class="j" x1="467.13" y1="269.24" x2="446.8" y2="269.24"/><line class="j" x1="462.05" y1="325.57" x2="421.38" y2="325.57"/><line class="j" x1="421.38" y1="325.57" x2="421.38" y2="353.22"/><line class="j" x1="421.38" y1="353.22" x2="462.05" y2="353.22"/><line class="j" x1="462.05" y1="353.22" x2="462.05" y2="325.57"/><line class="j" x1="303.97" y1="200.99" x2="303.97" y2="221.72"/><line class="j" x1="303.97" y1="221.72" x2="303.97" y2="221.72"/><line class="j" x1="303.97" y1="200.99" x2="303.97" y2="200.99"/><line class="j" x1="456.12" y1="510.29" x2="429.01" y2="510.29"/><line class="j" x1="429.01" y1="510.29" x2="429.01" y2="508.01"/><line class="j" x1="429.01" y1="508.01" x2="456.12" y2="508.01"/><line class="j" x1="456.12" y1="508.01" x2="456.12" y2="510.29"/><line class="j" x1="351.07" y1="107.68" x2="398.51" y2="107.68"/><line class="j" x1="398.51" y1="107.68" x2="398.51" y2="111.13"/><line class="j" x1="398.51" y1="111.13" x2="351.07" y2="111.13"/><line class="j" x1="351.07" y1="111.13" x2="351.07" y2="107.68"/><line class="j" x1="367.39" y1="149.99" x2="367.39" y2="177.63"/><line class="j" x1="367.39" y1="177.63" x2="350.44" y2="177.63"/><line class="j" x1="350.44" y1="177.63" x2="350.44" y2="149.99"/><line class="j" x1="350.44" y1="149.99" x2="367.39" y2="149.99"/><line class="j" x1="452.39" y1="105.95" x2="473.06" y2="105.95"/><line class="j" x1="473.06" y1="105.95" x2="473.06" y2="213.08"/><line class="j" x1="473.06" y1="213.08" x2="452.39" y2="213.08"/><line class="j" x1="452.39" y1="213.08" x2="452.39" y2="105.95"/><g class="l"><path class="j" d="M366,365.66a.85.85,0,1,0-1.7,0,.85.85,0,1,0,1.7,0"/><path class="j" d="M341.41,365.66a3.42,3.42,0,0,1,3.39-3.45"/><path class="j" d="M344.8,389.85a3.43,3.43,0,0,1-3.39-3.45"/><path class="j" d="M365.13,362.21a3.42,3.42,0,0,1,3.39,3.45"/><path class="j" d="M368.52,386.4a3.42,3.42,0,0,1-3.39,3.45"/><path class="j" d="M307.82,477.77a6.31,6.31,0,0,1,0-12.61"/><path class="j" d="M307.82,465.16a12.87,12.87,0,0,1,0,12.61"/><path class="j" d="M364.62,408.34a.68.68,0,1,0-.68.69.68.68,0,0,0,.68-.69"/><path class="j" d="M319.74,405a3.33,3.33,0,1,0-3.33,3.39,3.36,3.36,0,0,0,3.33-3.39"/><path class="j" d="M319.74,415.16a3.33,3.33,0,1,0-3.33,3.39,3.35,3.35,0,0,0,3.33-3.39"/><path class="j" d="M309.76,415.16a3.33,3.33,0,1,0-3.33,3.39,3.35,3.35,0,0,0,3.33-3.39"/><path class="j" d="M462.9,258.88a5.93,5.93,0,1,0-5.93,6,6,6,0,0,0,5.93-6"/><path class="j" d="M461.88,258.88a4.92,4.92,0,1,0-4.91,5,5,5,0,0,0,4.91-5"/><path class="j" d="M457.81,348a.85.85,0,1,0-.84.86.86.86,0,0,0,.84-.86"/><path class="j" d="M457,327.3a3.42,3.42,0,0,1,3.38,3.46"/><path class="j" d="M423.08,330.76a3.43,3.43,0,0,1,3.39-3.46"/><path class="j" d="M460.35,348a3.42,3.42,0,0,1-3.38,3.45"/><path class="j" d="M426.47,351.49a3.43,3.43,0,0,1-3.39-3.45"/><path class="j" d="M427.31,509.15a1.69,1.69,0,1,0-1.69,1.73,1.7,1.7,0,0,0,1.69-1.73"/><path class="j" d="M352.51,260.43a12.16,12.16,0,0,1-12.37,0"/><path class="j" d="M340.14,260.43a6.19,6.19,0,1,1,12.37,0"/><path class="j" d="M403.59,109.41a1.7,1.7,0,1,0-1.69,1.72,1.71,1.71,0,0,0,1.69-1.72"/><path class="j" d="M460.89,142.68a3.33,3.33,0,1,0-3.32,3.39,3.36,3.36,0,0,0,3.32-3.39"/><path class="j" d="M460.89,152.86a3.33,3.33,0,1,0-3.32,3.39,3.36,3.36,0,0,0,3.32-3.39"/><path class="j" d="M470.88,152.86a3.33,3.33,0,1,0-3.33,3.39,3.36,3.36,0,0,0,3.33-3.39"/><path class="j" d="M464.93,202.37a.68.68,0,1,0-.68.69.68.68,0,0,0,.68-.69"/></g><line class="j" x1="473.06" y1="244.19" x2="456.12" y2="244.19"/><line class="j" x1="456.12" y1="244.19" x2="456.12" y2="216.54"/><line class="j" x1="456.12" y1="216.54" x2="459.51" y2="240.73"/><line class="j" x1="459.51" y1="240.73" x2="473.06" y2="244.19"/><rect class="h" x="350.45" y="149.99" width="16.94" height="27.65"/><line class="j" x1="350.44" y1="149.99" x2="350.44" y2="177.63"/><line class="j" x1="367.39" y1="149.99" x2="350.44" y2="149.99"/><line class="j" x1="367.39" y1="177.63" x2="367.39" y2="149.99"/><line class="j" x1="350.44" y1="177.63" x2="367.39" y2="177.63"/><rect class="h" x="312.1" y="251.79" width="68.11" height="15.9"/><line class="j" x1="312.1" y1="251.79" x2="312.1" y2="267.69"/><line class="j" x1="380.21" y1="251.79" x2="312.1" y2="251.79"/><line class="j" x1="380.21" y1="267.69" x2="380.21" y2="251.79"/><line class="j" x1="312.1" y1="267.69" x2="380.21" y2="267.69"/><rect class="h" x="467.98" y="246.61" width="5.08" height="104.72"/><line class="j" x1="467.98" y1="246.61" x2="467.98" y2="351.32"/><line class="j" x1="473.06" y1="246.61" x2="467.98" y2="246.61"/><line class="j" x1="473.06" y1="351.32" x2="473.06" y2="246.6"/><line class="j" x1="467.98" y1="351.32" x2="473.06" y2="351.32"/><path class="h" d="M304,340.61h0Z"/><line class="j" x1="340.56" y1="340.61" x2="303.96" y2="340.61"/><rect class="h" x="421.38" y="252.14" width="2.37" height="1.04"/><line class="j" x1="421.38" y1="252.13" x2="421.38" y2="253.17"/><line class="j" x1="423.76" y1="252.13" x2="421.38" y2="252.13"/><line class="j" x1="423.76" y1="253.17" x2="423.76" y2="252.13"/><line class="j" x1="421.38" y1="253.17" x2="423.76" y2="253.17"/><rect class="h" x="423.76" y="252.13" width="1.02" height="20.74"/><line class="j" x1="424.77" y1="252.13" x2="423.76" y2="252.13"/><line class="j" x1="424.77" y1="272.87" x2="424.77" y2="252.13"/><line class="j" x1="423.76" y1="272.87" x2="424.77" y2="272.87"/><line class="j" x1="423.76" y1="252.13" x2="423.76" y2="272.87"/><rect class="h" x="421.38" y="271.84" width="2.37" height="1.04"/><line class="j" x1="421.38" y1="271.83" x2="421.38" y2="272.87"/><line class="j" x1="423.76" y1="271.83" x2="421.38" y2="271.83"/><line class="j" x1="423.76" y1="272.87" x2="423.76" y2="271.83"/><line class="j" x1="421.38" y1="272.87" x2="423.76" y2="272.87"/><rect class="h" x="308.03" y="19.55" width="1.36" height="70.85"/><line class="j" x1="309.39" y1="19.55" x2="308.03" y2="19.55"/><line class="j" x1="309.39" y1="90.4" x2="309.39" y2="19.55"/><line class="j" x1="308.03" y1="90.4" x2="309.39" y2="90.4"/><rect class="h" x="378.52" y="527.57" width="1.36" height="70.84"/><line class="j" x1="379.87" y1="527.57" x2="378.52" y2="527.57"/><line class="j" x1="379.87" y1="598.42" x2="379.87" y2="527.57"/><line class="j" x1="378.52" y1="598.42" x2="379.87" y2="598.42"/><polygon class="h" points="424.42 510.37 423.93 509.15 424.42 507.93 425.62 507.42 426.82 507.93 427.31 509.15 426.82 510.37 425.62 510.88 424.42 510.37"/><g class="l"><path class="j" d="M427.31,509.15a1.69,1.69,0,1,1-3.38,0"/><path class="j" d="M423.93,509.15a1.69,1.69,0,1,1,3.38,0"/></g><rect class="h" x="429.01" y="508.01" width="27.11" height="2.28"/><line class="j" x1="429.01" y1="510.29" x2="456.12" y2="510.29"/><line class="j" x1="429.01" y1="508.01" x2="429.01" y2="510.29"/><line class="j" x1="456.12" y1="508.01" x2="429.01" y2="508.01"/><line class="j" x1="456.12" y1="510.29" x2="456.12" y2="508.01"/><polygon class="h" points="400.7 110.63 400.2 109.41 400.7 108.19 401.9 107.68 403.1 108.19 403.59 109.41 403.1 110.63 401.9 111.14 400.7 110.63"/><g class="l"><path class="j" d="M403.59,109.41a1.7,1.7,0,1,1-3.39,0"/><path class="j" d="M400.2,109.41a1.7,1.7,0,1,1,3.39,0"/></g><rect class="h" x="351.07" y="107.68" width="47.44" height="3.46"/><line class="j" x1="351.07" y1="107.68" x2="351.07" y2="111.13"/><line class="j" x1="398.51" y1="107.68" x2="351.07" y2="107.68"/><line class="j" x1="398.51" y1="111.13" x2="398.51" y2="107.68"/><line class="j" x1="351.07" y1="111.13" x2="398.51" y2="111.13"/><g class="l"><path class="j" d="M313,345.79a.51.51,0,0,1,.5.52"/><path class="j" d="M313.45,360.48a.51.51,0,0,1-.5.52"/><path class="j" d="M311.93,349.59a.51.51,0,0,1,.51.52"/><path class="j" d="M312.44,359.44a.52.52,0,0,1-.51.52"/><path class="j" d="M303.29,347.86a.85.85,0,1,1,1.69,0"/><path class="j" d="M304.85,349.31a.76.76,0,0,1-.11.33"/><path class="j" d="M304.51,351.47a.38.38,0,0,1-.75,0"/><path class="j" d="M304.6,349.24a.47.47,0,1,1-.93,0"/><path class="j" d="M304.74,349.64a.71.71,0,0,1-1.21,0"/><path class="j" d="M338.19,476.65a1.71,1.71,0,0,1-1.69-1.73"/><path class="j" d="M336.5,468a1.72,1.72,0,0,1,1.69-1.73"/><path class="j" d="M338.19,478.38a3.43,3.43,0,0,1-3.39-3.46"/><path class="j" d="M334.8,468a3.43,3.43,0,0,1,3.39-3.46"/><path class="j" d="M355.81,448.31a1.72,1.72,0,0,1,1.7-1.73"/><path class="j" d="M364.28,446.58a1.72,1.72,0,0,1,1.7,1.73"/><path class="j" d="M354.12,448.31a3.43,3.43,0,0,1,3.39-3.46"/><path class="j" d="M364.28,444.85a3.42,3.42,0,0,1,3.39,3.46"/><path class="j" d="M357.51,496.35a1.71,1.71,0,0,1-1.7-1.73"/><path class="j" d="M366,494.62a1.71,1.71,0,0,1-1.7,1.73"/><path class="j" d="M357.51,498.07a3.42,3.42,0,0,1-3.39-3.45"/><path class="j" d="M367.67,494.62a3.41,3.41,0,0,1-3.39,3.45"/><path class="j" d="M332.43,357.19a5.68,5.68,0,0,1-2.2,4.5"/><path class="j" d="M322.1,361.69a5.66,5.66,0,0,1-2.21-4.5"/><path class="j" d="M330.23,361.69a6.69,6.69,0,0,1-8.14,0"/><path class="j" d="M322.1,361.69a5.66,5.66,0,0,1-2.21-4.5"/><path class="j" d="M326.16,363.07a6.7,6.7,0,0,1-4.06-1.38"/><path class="j" d="M323.31,360a3.57,3.57,0,0,1-1.38-2.83"/><path class="j" d="M329,360a4.67,4.67,0,0,1-5.7,0"/><path class="j" d="M330.4,357.19A3.59,3.59,0,0,1,329,360"/></g><polygon class="h" points="315.54 201.82 315.06 201.62 314.86 201.13 314.86 113.7 370.78 113.7 370.78 114.74 371.07 114 371.79 113.7 389.42 113.7 392.01 114.23 394.21 115.72 395.67 117.97 396.19 120.61 396.19 136.16 395.67 138.81 394.21 141.05 392.01 142.55 389.42 143.07 371.79 143.07 371.07 142.97 370.74 142.31 370.38 142.86 369.76 143.07 344.68 143.07 343.96 142.77 343.67 142.04 343.37 142.77 342.65 143.07 343.37 143.38 343.67 144.11 343.67 171.41 343.37 172.15 342.65 172.45 343.37 172.75 343.67 173.49 343.67 195.6 343.7 196.09 343.44 196.49 342.99 196.64 343.47 196.84 343.67 197.33 343.67 198.37 343.21 200.1 341.97 201.36 340.28 201.82 315.54 201.82"/><line class="j" x1="343.67" y1="197.33" x2="343.67" y2="198.37"/><line class="j" x1="340.28" y1="201.82" x2="315.54" y2="201.82"/><line class="j" x1="314.86" y1="201.13" x2="314.86" y2="197.33"/><line class="j" x1="315.54" y1="196.64" x2="342.99" y2="196.64"/><line class="j" x1="314.86" y1="197.33" x2="314.86" y2="172.45"/><line class="j" x1="314.86" y1="172.45" x2="317.23" y2="172.45"/><line class="j" x1="323.63" y1="172.45" x2="325.66" y2="172.45"/><line class="j" x1="343.67" y1="173.49" x2="343.67" y2="195.6"/><line class="j" x1="342.65" y1="196.64" x2="325.66" y2="196.64"/><line class="j" x1="325.66" y1="172.45" x2="342.65" y2="172.45"/><line class="j" x1="316.22" y1="173.49" x2="316.22" y2="195.6"/><line class="j" x1="317.23" y1="196.64" x2="323.63" y2="196.64"/><line class="j" x1="323.63" y1="172.45" x2="317.23" y2="172.45"/><line class="j" x1="314.86" y1="143.07" x2="314.86" y2="172.45"/><line class="j" x1="314.86" y1="143.07" x2="317.23" y2="143.07"/><line class="j" x1="314.86" y1="172.45" x2="317.23" y2="172.45"/><line class="j" x1="323.63" y1="143.07" x2="325.66" y2="143.07"/><line class="j" x1="323.63" y1="172.45" x2="325.66" y2="172.45"/><line class="j" x1="343.67" y1="171.41" x2="343.67" y2="144.11"/><line class="j" x1="342.65" y1="143.07" x2="325.66" y2="143.07"/><line class="j" x1="325.66" y1="172.45" x2="342.65" y2="172.45"/><line class="j" x1="316.22" y1="171.41" x2="316.22" y2="144.11"/><line class="j" x1="317.23" y1="143.07" x2="323.63" y2="143.07"/><line class="j" x1="323.63" y1="172.45" x2="317.23" y2="172.45"/><line class="j" x1="396.19" y1="136.16" x2="396.19" y2="120.61"/><line class="j" x1="389.41" y1="113.7" x2="371.79" y2="113.7"/><line class="j" x1="370.78" y1="114.74" x2="370.78" y2="142.04"/><line class="j" x1="371.79" y1="143.07" x2="389.41" y2="143.07"/><line class="j" x1="325.66" y1="143.07" x2="342.65" y2="143.07"/><line class="j" x1="343.67" y1="142.04" x2="343.67" y2="124.71"/><line class="j" x1="316.22" y1="115.08" x2="342.65" y2="115.08"/><line class="j" x1="343.67" y1="116.12" x2="343.67" y2="122.64"/><line class="j" x1="323.63" y1="143.07" x2="317.23" y2="143.07"/><line class="j" x1="316.22" y1="142.04" x2="316.22" y2="115.08"/><line class="j" x1="343.67" y1="113.7" x2="314.86" y2="113.7"/><line class="j" x1="314.86" y1="113.7" x2="314.86" y2="143.07"/><line class="j" x1="343.67" y1="113.7" x2="343.67" y2="116.12"/><line class="j" x1="317.23" y1="143.07" x2="314.86" y2="143.07"/><line class="j" x1="323.63" y1="143.07" x2="325.66" y2="143.07"/><line class="j" x1="343.67" y1="122.64" x2="343.67" y2="124.71"/><line class="j" x1="370.78" y1="113.7" x2="343.67" y2="113.7"/><line class="j" x1="370.78" y1="113.7" x2="370.78" y2="116.12"/><line class="j" x1="343.67" y1="113.7" x2="343.67" y2="116.12"/><line class="j" x1="370.78" y1="122.64" x2="370.78" y2="124.71"/><line class="j" x1="343.67" y1="122.64" x2="343.67" y2="124.71"/><line class="j" x1="344.68" y1="143.07" x2="369.76" y2="143.07"/><line class="j" x1="370.78" y1="142.04" x2="370.78" y2="124.71"/><line class="j" x1="343.67" y1="124.71" x2="343.67" y2="142.04"/><line class="j" x1="344.68" y1="115.08" x2="369.76" y2="115.08"/><line class="j" x1="370.78" y1="116.12" x2="370.78" y2="122.64"/><line class="j" x1="343.67" y1="122.64" x2="343.67" y2="116.12"/><g class="l"><path class="j" d="M315.54,201.82a.69.69,0,0,1-.68-.69"/><path class="j" d="M314.86,197.33a.69.69,0,0,1,.68-.69"/><path class="j" d="M343,196.64a.69.69,0,0,1,.68.69"/><path class="j" d="M343.67,195.6a1,1,0,0,1-1,1"/><path class="j" d="M342.65,172.45a1,1,0,0,1,1,1"/><path class="j" d="M342.65,143.07a1,1,0,0,1,1,1"/><path class="j" d="M343.67,171.41a1,1,0,0,1-1,1"/><path class="j" d="M370.78,114.74a1,1,0,0,1,1-1"/><path class="j" d="M371.79,143.07a1,1,0,0,1-1-1"/><path class="j" d="M343.67,142a1,1,0,0,1-1,1"/><path class="j" d="M370.78,142a1,1,0,0,1-1,1"/><path class="j" d="M344.68,143.07a1,1,0,0,1-1-1"/><path class="j" d="M396.19,136.16a6.84,6.84,0,0,1-6.77,6.91"/><path class="j" d="M389.41,113.7a6.84,6.84,0,0,1,6.78,6.91"/><path class="j" d="M369.76,119.92a49.94,49.94,0,0,1-25.08,0"/><path class="j" d="M321,144.11a52.66,52.66,0,0,1,0,27.3"/><path class="j" d="M321,173.49a52.81,52.81,0,0,1,0,22.11"/><path class="j" d="M321,142a18.06,18.06,0,0,1-.77-5.21,17.52,17.52,0,0,1,17.35-17.69,17.08,17.08,0,0,1,5.11.78"/><path class="j" d="M343.67,198.37a3.42,3.42,0,0,1-3.39,3.45"/></g><polygon class="h" points="421.18 171.48 418.37 169.29 415.1 167.92 411.59 167.46 415.38 160.76 416.62 159.5 418.32 159.03 420.02 159.49 425.89 162.92 427.14 164.18 427.59 165.91 427.14 167.64 423.34 174.34 421.18 171.48"/><polygon class="h" points="390.55 187.79 389.31 186.53 388.86 184.81 388.86 177.9 389.31 176.17 390.55 174.9 392.25 174.43 399.83 174.41 398.48 177.75 398.02 181.32 398.48 184.9 399.83 188.22 392.25 188.25 390.55 187.79"/><polygon class="h" points="416.62 203.03 415.38 201.77 411.59 195.1 415.1 194.62 418.37 193.23 421.19 191.02 423.34 188.15 427.14 194.83 427.59 196.56 427.14 198.28 425.89 199.55 420.02 203.02 418.32 203.49 416.62 203.03"/><polygon class="h" points="408.08 194.64 404.8 193.27 401.99 191.08 399.83 188.23 398.48 184.9 398.02 181.32 398.48 177.75 399.83 174.41 401.99 171.54 404.8 169.34 408.08 167.95 411.59 167.46 415.1 167.93 418.38 169.3 421.19 171.48 423.34 174.34 424.7 177.66 425.16 181.24 424.7 184.82 423.34 188.15 421.19 191.02 418.38 193.23 415.1 194.62 411.59 195.1 408.08 194.64"/><line class="j" x1="424.7" y1="177.66" x2="423.34" y2="174.34"/><line class="j" x1="425.16" y1="181.24" x2="424.7" y2="177.66"/><line class="j" x1="424.7" y1="184.82" x2="425.16" y2="181.24"/><line class="j" x1="423.34" y1="188.15" x2="424.7" y2="184.82"/><line class="j" x1="421.18" y1="191.02" x2="423.34" y2="188.15"/><line class="j" x1="418.38" y1="193.23" x2="421.18" y2="191.02"/><line class="j" x1="415.1" y1="194.62" x2="418.37" y2="193.22"/><line class="j" x1="411.59" y1="195.1" x2="415.1" y2="194.62"/><line class="j" x1="408.08" y1="194.64" x2="411.59" y2="195.1"/><line class="j" x1="404.8" y1="193.27" x2="408.08" y2="194.64"/><line class="j" x1="401.99" y1="191.08" x2="404.8" y2="193.27"/><line class="j" x1="399.84" y1="188.23" x2="401.99" y2="191.08"/><line class="j" x1="398.48" y1="184.9" x2="399.84" y2="188.23"/><line class="j" x1="398.02" y1="181.32" x2="398.48" y2="184.9"/><line class="j" x1="398.48" y1="177.75" x2="398.02" y2="181.32"/><line class="j" x1="399.84" y1="174.41" x2="398.48" y2="177.75"/><line class="j" x1="401.99" y1="171.54" x2="399.84" y2="174.41"/><line class="j" x1="404.8" y1="169.34" x2="401.99" y2="171.54"/><line class="j" x1="408.08" y1="167.95" x2="404.8" y2="169.34"/><line class="j" x1="411.59" y1="167.46" x2="408.08" y2="167.95"/><line class="j" x1="415.1" y1="167.92" x2="411.59" y2="167.46"/><line class="j" x1="418.38" y1="169.29" x2="415.1" y2="167.92"/><line class="j" x1="421.18" y1="171.48" x2="418.38" y2="169.29"/><line class="j" x1="423.34" y1="174.34" x2="421.18" y2="171.48"/><g class="l"><path class="j" d="M418.38,193.23a13.43,13.43,0,0,1-18.54-5,14,14,0,0,1,5-18.89"/><path class="j" d="M404.8,169.34a13.41,13.41,0,0,1,18.54,5,14,14,0,0,1-5,18.89"/></g><line class="j" x1="419.17" y1="160.98" x2="425.04" y2="164.42"/><line class="j" x1="427.13" y1="167.64" x2="423.34" y2="174.34"/><line class="j" x1="420.02" y1="159.49" x2="425.9" y2="162.92"/><line class="j" x1="411.59" y1="167.46" x2="415.38" y2="160.76"/><line class="j" x1="390.55" y1="184.8" x2="390.55" y2="177.89"/><line class="j" x1="392.25" y1="174.43" x2="399.84" y2="174.41"/><line class="j" x1="388.86" y1="184.81" x2="388.86" y2="177.9"/><line class="j" x1="399.84" y1="188.23" x2="392.25" y2="188.25"/><line class="j" x1="425.04" y1="198.06" x2="419.17" y2="201.53"/><line class="j" x1="415.38" y1="201.77" x2="411.59" y2="195.1"/><line class="j" x1="425.89" y1="199.55" x2="420.02" y2="203.02"/><line class="j" x1="423.34" y1="188.15" x2="427.14" y2="194.83"/><g class="l"><path class="j" d="M425.05,164.42a1.74,1.74,0,0,1,.62,2.36"/><path class="j" d="M416.85,161.62a1.7,1.7,0,0,1,2.32-.64"/><path class="j" d="M425.89,162.92a3.43,3.43,0,0,1,1.25,1.26,3.55,3.55,0,0,1,0,3.46"/><path class="j" d="M415.38,160.76a3.43,3.43,0,0,1,1.25-1.26,3.32,3.32,0,0,1,3.39,0"/><path class="j" d="M390.55,177.89a1.76,1.76,0,0,1,.85-1.5,1.69,1.69,0,0,1,.85-.23"/><path class="j" d="M392.25,186.52a1.67,1.67,0,0,1-1.47-.86,1.73,1.73,0,0,1-.23-.86"/><path class="j" d="M388.86,177.9a3.42,3.42,0,0,1,3.39-3.47"/><path class="j" d="M392.25,188.25a3.37,3.37,0,0,1-2.94-1.72,3.45,3.45,0,0,1-.45-1.72"/><path class="j" d="M419.17,201.53a1.68,1.68,0,0,1-2.32-.62"/><path class="j" d="M425.67,195.7a1.75,1.75,0,0,1-.62,2.36"/><path class="j" d="M420,203a3.36,3.36,0,0,1-4.64-1.25"/><path class="j" d="M427.14,194.83a3.49,3.49,0,0,1-1.25,4.72"/></g><polygon class="h" points="344.44 263.04 340.85 261.99 338.6 261.99 330.87 260.07 330.87 258.16 341.43 258.16 343.11 256.77 345.2 256.03 347.45 256.03 349.55 256.77 351.22 258.16 361.78 258.16 361.78 260.07 354.05 261.99 351.8 261.99 348.21 263.04 344.44 263.04"/><line class="j" x1="361.78" y1="258.16" x2="351.22" y2="258.16"/><line class="j" x1="361.78" y1="260.07" x2="361.78" y2="258.16"/><line class="j" x1="354.05" y1="261.99" x2="361.78" y2="260.07"/><line class="j" x1="351.8" y1="261.99" x2="354.05" y2="261.99"/><line class="j" x1="348.21" y1="263.04" x2="351.8" y2="261.99"/><line class="j" x1="344.44" y1="263.04" x2="348.21" y2="263.04"/><line class="j" x1="340.85" y1="261.99" x2="344.44" y2="263.04"/><line class="j" x1="338.6" y1="261.99" x2="340.85" y2="261.99"/><line class="j" x1="330.87" y1="260.07" x2="338.6" y2="261.99"/><line class="j" x1="330.87" y1="258.16" x2="330.87" y2="260.07"/><line class="j" x1="341.43" y1="258.16" x2="330.87" y2="258.16"/><line class="j" x1="343.1" y1="256.77" x2="341.43" y2="258.16"/><line class="j" x1="345.2" y1="256.03" x2="343.1" y2="256.77"/><line class="j" x1="347.45" y1="256.03" x2="345.2" y2="256.03"/><line class="j" x1="349.55" y1="256.77" x2="347.45" y2="256.03"/><line class="j" x1="351.22" y1="258.16" x2="349.55" y2="256.77"/><line class="j" x1="361.78" y1="258.16" x2="330.87" y2="258.16"/><line class="j" x1="338.6" y1="261.99" x2="354.05" y2="261.99"/><line class="j" x1="361.78" y1="260.07" x2="361.78" y2="258.16"/><line class="j" x1="332.93" y1="258.93" x2="334.99" y2="258.93"/><line class="j" x1="334.99" y1="258.93" x2="334.99" y2="259.4"/><line class="j" x1="334.99" y1="259.4" x2="332.93" y2="259.4"/><line class="j" x1="332.93" y1="259.4" x2="332.93" y2="258.93"/><line class="j" x1="335.51" y1="258.93" x2="337.57" y2="258.93"/><line class="j" x1="337.57" y1="258.93" x2="337.57" y2="259.4"/><line class="j" x1="337.57" y1="259.4" x2="335.51" y2="259.4"/><line class="j" x1="335.51" y1="259.4" x2="335.51" y2="258.93"/><line class="j" x1="361.78" y1="260.07" x2="330.87" y2="260.07"/><line class="j" x1="338.08" y1="259.4" x2="338.08" y2="258.93"/><line class="j" x1="338.08" y1="258.93" x2="339.11" y2="258.93"/><line class="j" x1="339.11" y1="258.93" x2="339.11" y2="259.4"/><line class="j" x1="339.11" y1="259.4" x2="338.08" y2="259.4"/><g class="l"><path class="j" d="M341.43,258.16a6.51,6.51,0,0,1,9.79,0"/><path class="j" d="M304,476.45a6.8,6.8,0,0,1,0-10"/></g><rect class="h" x="417.53" y="356.5" width="27.57" height="20.74"/><line class="j" x1="417.53" y1="377.24" x2="445.11" y2="377.24"/><line class="j" x1="445.11" y1="377.24" x2="445.11" y2="356.5"/><line class="j" x1="445.11" y1="356.5" x2="417.53" y2="356.5"/><line class="j" x1="417.53" y1="356.5" x2="417.53" y2="377.24"/><line class="j" x1="418.91" y1="366.87" x2="443.73" y2="366.87"/><line class="j" x1="420.19" y1="372.97" x2="422.52" y2="360.54"/><line class="j" x1="422.82" y1="373.59" x2="423.78" y2="362.03"/><line class="j" x1="426.41" y1="359.4" x2="427.2" y2="372.08"/><line class="j" x1="430.48" y1="361.06" x2="429.4" y2="372.08"/><line class="j" x1="431.96" y1="360.43" x2="431.96" y2="374"/><line class="j" x1="436.15" y1="360.36" x2="435.16" y2="373.78"/><line class="j" x1="437.72" y1="360.59" x2="437.72" y2="372.85"/><line class="j" x1="441.86" y1="360.46" x2="442.65" y2="373.03"/><line class="j" x1="440.86" y1="361.32" x2="440.05" y2="371.95"/><rect class="h" x="445.11" y="356.5" width="27.96" height="20.74"/><line class="j" x1="445.11" y1="377.24" x2="473.06" y2="377.24"/><line class="j" x1="473.06" y1="377.24" x2="473.06" y2="356.5"/><line class="j" x1="473.06" y1="356.5" x2="445.11" y2="356.5"/><line class="j" x1="445.11" y1="356.5" x2="445.11" y2="377.24"/><line class="j" x1="446.5" y1="366.87" x2="471.67" y2="366.87"/><line class="j" x1="447.8" y1="372.97" x2="450.17" y2="360.54"/><line class="j" x1="450.47" y1="373.59" x2="451.45" y2="362.03"/><line class="j" x1="454.11" y1="359.4" x2="454.91" y2="372.08"/><line class="j" x1="458.23" y1="361.06" x2="457.14" y2="372.08"/><line class="j" x1="459.73" y1="360.43" x2="459.73" y2="374"/><line class="j" x1="463.98" y1="360.36" x2="462.97" y2="373.78"/><line class="j" x1="465.57" y1="360.59" x2="465.57" y2="372.85"/><line class="j" x1="469.77" y1="360.46" x2="470.57" y2="373.03"/><line class="j" x1="468.76" y1="361.32" x2="467.94" y2="371.95"/><rect class="h" x="312.1" y="270.11" width="33.89" height="20.74"/><line class="j" x1="312.1" y1="290.84" x2="345.98" y2="290.84"/><line class="j" x1="345.99" y1="290.84" x2="345.99" y2="270.11"/><line class="j" x1="345.99" y1="270.11" x2="312.1" y2="270.11"/><line class="j" x1="312.1" y1="270.11" x2="312.1" y2="290.84"/><line class="j" x1="313.79" y1="280.47" x2="344.29" y2="280.47"/><line class="j" x1="315.37" y1="286.57" x2="318.23" y2="274.15"/><line class="j" x1="318.6" y1="287.19" x2="319.78" y2="275.64"/><line class="j" x1="323.01" y1="273" x2="323.98" y2="285.68"/><line class="j" x1="328.01" y1="274.66" x2="326.69" y2="285.68"/><line class="j" x1="329.83" y1="274.03" x2="329.83" y2="287.6"/><line class="j" x1="334.98" y1="273.97" x2="333.76" y2="287.39"/><line class="j" x1="336.91" y1="274.19" x2="336.91" y2="286.45"/><line class="j" x1="341.99" y1="274.07" x2="342.97" y2="286.64"/><line class="j" x1="340.77" y1="274.92" x2="339.77" y2="285.55"/><rect class="h" x="345.98" y="270.11" width="33.89" height="20.74"/><line class="j" x1="345.99" y1="290.84" x2="379.87" y2="290.84"/><line class="j" x1="379.87" y1="290.84" x2="379.87" y2="270.11"/><line class="j" x1="379.87" y1="270.11" x2="345.99" y2="270.11"/><line class="j" x1="345.99" y1="270.11" x2="345.99" y2="290.84"/><line class="j" x1="347.68" y1="280.47" x2="378.18" y2="280.47"/><line class="j" x1="349.25" y1="286.57" x2="352.12" y2="274.15"/><line class="j" x1="352.48" y1="287.19" x2="353.67" y2="275.64"/><line class="j" x1="356.9" y1="273" x2="357.87" y2="285.68"/><line class="j" x1="361.9" y1="274.66" x2="360.57" y2="285.68"/><line class="j" x1="363.71" y1="274.03" x2="363.71" y2="287.6"/><line class="j" x1="368.87" y1="273.97" x2="367.64" y2="287.39"/><line class="j" x1="370.79" y1="274.19" x2="370.79" y2="286.45"/><line class="j" x1="375.88" y1="274.07" x2="376.85" y2="286.64"/><line class="j" x1="374.65" y1="274.92" x2="373.66" y2="285.55"/><polygon class="h" points="412.06 477.46 409.47 476.93 407.27 475.44 405.8 473.19 405.29 470.55 405.29 422.17 405.8 419.52 407.27 417.27 409.47 415.78 412.06 415.25 462.9 415.25 473.06 415.25 473.06 477.46 412.06 477.46"/><rect class="h" x="462.9" y="477.46" width="10.17" height="12.1"/><rect class="h" x="462.9" y="403.16" width="10.17" height="12.1"/><line class="j" x1="461.79" y1="444.4" x2="464.73" y2="443.57"/><line class="j" x1="461.79" y1="473.42" x2="464.73" y2="472.59"/><line class="j" x1="405.29" y1="422.17" x2="405.29" y2="470.55"/><line class="j" x1="412.07" y1="477.46" x2="473.06" y2="477.46"/><line class="j" x1="473.06" y1="477.46" x2="473.06" y2="415.25"/><line class="j" x1="473.06" y1="415.25" x2="412.06" y2="415.25"/><line class="j" x1="473.06" y1="477.46" x2="473.06" y2="489.56"/><line class="j" x1="473.06" y1="489.56" x2="462.9" y2="489.56"/><line class="j" x1="462.9" y1="489.56" x2="462.9" y2="477.46"/><line class="j" x1="462.9" y1="477.46" x2="473.06" y2="477.46"/><line class="j" x1="473.06" y1="403.16" x2="473.06" y2="415.25"/><line class="j" x1="473.06" y1="415.25" x2="462.9" y2="415.25"/><line class="j" x1="462.9" y1="415.25" x2="462.9" y2="403.16"/><line class="j" x1="462.9" y1="403.16" x2="473.06" y2="403.16"/><line class="j" x1="450.52" y1="477.46" x2="450.52" y2="415.25"/><line class="j" x1="445.43" y1="477.46" x2="445.43" y2="415.25"/><g class="l"><path class="j" d="M455.65,449a98.47,98.47,0,0,1,.82,12.73c0,3.27-.16,6.54-.48,9.79"/><path class="j" d="M457.85,473.74h-.09A1.83,1.83,0,0,1,456,471.9a1.81,1.81,0,0,1,0-.4"/><path class="j" d="M461.79,473.42a14.37,14.37,0,0,1-3.13.35l-.81,0"/><path class="j" d="M469.36,473.61c-.81,0-1.63.06-2.45.06-1.71,0-3.41-.08-5.12-.25"/><path class="j" d="M469.85,473.16a.19.19,0,0,1,0,.08.39.39,0,0,1-.39.39l-.11,0"/><path class="j" d="M469.85,473.16q-.56-7.43-.56-14.87c0-3.13.08-6.26.22-9.38"/><path class="j" d="M468.29,447.79a1.06,1.06,0,0,1,.31-.05,1,1,0,0,1,.94,1,1.49,1.49,0,0,1,0,.21"/><path class="j" d="M468.29,447.79a44.52,44.52,0,0,1-11.68.18"/><path class="j" d="M455.65,449a1,1,0,0,1,0-.24.8.8,0,0,1,.79-.8.76.76,0,0,1,.21,0"/><path class="j" d="M412.07,477.46a6.85,6.85,0,0,1-6.78-6.91"/><path class="j" d="M405.29,422.17a6.85,6.85,0,0,1,6.78-6.92"/><path class="j" d="M455.65,420a98.47,98.47,0,0,1,.82,12.73c0,3.27-.16,6.54-.48,9.79"/><path class="j" d="M457.85,444.73h-.09a1.83,1.83,0,0,1-1.81-1.85,1.87,1.87,0,0,1,0-.4"/><path class="j" d="M461.79,444.4a14.37,14.37,0,0,1-3.13.35l-.81,0"/><path class="j" d="M469.36,444.59c-.81,0-1.63.06-2.45.06-1.71,0-3.41-.08-5.12-.25"/><path class="j" d="M469.85,444.14a.22.22,0,0,1,0,.08.38.38,0,0,1-.39.39.23.23,0,0,1-.11,0"/><path class="j" d="M469.85,444.14q-.56-7.42-.56-14.87c0-3.13.08-6.25.22-9.38"/><path class="j" d="M468.29,418.77a1.06,1.06,0,0,1,.31,0,1,1,0,0,1,.94,1,1.5,1.5,0,0,1,0,.2"/><path class="j" d="M468.29,418.77a44.52,44.52,0,0,1-11.68.18"/><path class="j" d="M455.65,420a1,1,0,0,1,0-.24.8.8,0,0,1,.79-.8l.21,0"/></g><polygon class="h" points="453.58 319.35 453.22 319.2 453.07 318.83 453.07 300.87 453.22 300.5 453.58 300.35 467.47 300.35 467.83 300.5 467.98 300.87 467.98 318.83 467.83 319.2 467.47 319.35 453.58 319.35"/><line class="j" x1="467.98" y1="300.86" x2="467.98" y2="318.83"/><g class="l"><path class="j" d="M468,318.83a.51.51,0,0,1-.51.52"/></g><line class="j" x1="467.47" y1="319.35" x2="453.58" y2="319.35"/><g class="l"><path class="j" d="M453.58,319.35a.51.51,0,0,1-.51-.52"/></g><line class="j" x1="453.07" y1="318.83" x2="453.07" y2="300.87"/><g class="l"><path class="j" d="M453.07,300.86a.51.51,0,0,1,.51-.51"/></g><line class="j" x1="453.58" y1="300.35" x2="467.47" y2="300.35"/><g class="l"><path class="j" d="M467.47,300.35a.51.51,0,0,1,.51.52"/></g><line class="j" x1="464.25" y1="301.9" x2="464.25" y2="317.8"/><line class="j" x1="463.74" y1="318.32" x2="454.59" y2="318.32"/><line class="j" x1="454.09" y1="317.8" x2="454.09" y2="301.9"/><line class="j" x1="454.59" y1="301.38" x2="463.74" y2="301.38"/><g class="l"><path class="j" d="M464.25,317.8a.52.52,0,0,1-.51.52"/><path class="j" d="M454.59,318.32a.51.51,0,0,1-.5-.52"/><path class="j" d="M454.09,301.9a.51.51,0,0,1,.5-.52"/><path class="j" d="M463.74,301.38a.51.51,0,0,1,.51.52"/></g><polygon class="h" points="464.53 310.57 464.2 310.46 462.41 310.23 462.17 310.11 462.08 309.85 462.17 309.59 462.41 309.47 464.2 309.23 464.53 309.12 465.95 308.99 466.55 309.24 466.79 309.85 466.55 310.46 465.95 310.71 464.53 310.57"/><g class="l"><path class="j" d="M466,309a.86.86,0,0,1,0,1.72"/></g><line class="j" x1="464.53" y1="310.58" x2="465.95" y2="310.71"/><g class="l"><path class="j" d="M464.53,310.58a.93.93,0,0,1-.33-.12"/></g><line class="j" x1="462.41" y1="310.23" x2="464.2" y2="310.46"/><g class="l"><path class="j" d="M462.41,310.23a.38.38,0,0,1-.33-.38.37.37,0,0,1,.33-.38"/></g><line class="j" x1="464.2" y1="309.23" x2="462.41" y2="309.47"/><g class="l"><path class="j" d="M464.2,309.23a.76.76,0,0,1,.33-.11"/></g><line class="j" x1="465.95" y1="308.99" x2="464.53" y2="309.12"/><line class="j" x1="465.1" y1="310.32" x2="464.6" y2="310.32"/><line class="j" x1="464.6" y1="309.38" x2="465.1" y2="309.38"/><line class="j" x1="465.1" y1="309.38" x2="465.1" y2="310.32"/><g class="l"><path class="j" d="M464.6,310.32a.47.47,0,0,1,0-.94"/><path class="j" d="M464.2,310.46a.72.72,0,0,1-.32-.61.75.75,0,0,1,.32-.62"/></g><polygon class="h" points="456.8 292.05 455.12 291.78 453.61 291.01 452.39 289.8 451.38 287.84 451.04 285.65 451.38 283.47 452.39 281.51 453.61 280.3 455.12 279.53 456.8 279.26 467.98 279.26 467.98 292.05 456.8 292.05"/><line class="j" x1="467.98" y1="292.05" x2="456.8" y2="292.05"/><line class="j" x1="467.98" y1="292.05" x2="467.98" y2="279.26"/><line class="j" x1="467.98" y1="279.26" x2="456.8" y2="279.26"/><line class="j" x1="463.91" y1="289.97" x2="456.8" y2="289.97"/><line class="j" x1="463.91" y1="281.33" x2="456.8" y2="281.33"/><line class="j" x1="463.91" y1="281.33" x2="463.91" y2="289.97"/><g class="l"><path class="j" d="M456.8,292.05a5.47,5.47,0,0,1-4.41-2.25"/><path class="j" d="M452.39,281.51a5.47,5.47,0,0,1,4.41-2.25"/><path class="j" d="M452.39,289.8a7,7,0,0,1,0-8.29"/><path class="j" d="M452.39,281.51a5.47,5.47,0,0,1,4.41-2.25"/><path class="j" d="M451,285.66a7,7,0,0,1,1.35-4.15"/><path class="j" d="M454,282.75a3.47,3.47,0,0,1,2.78-1.42"/><path class="j" d="M454,288.56a4.92,4.92,0,0,1,0-5.81"/><path class="j" d="M456.8,290a3.45,3.45,0,0,1-2.78-1.41"/></g><line class="j" x1="461.26" y1="184.52" x2="461.26" y2="178.73"/><line class="j" x1="461.26" y1="178.73" x2="463.57" y2="180.63"/><line class="j" x1="463.57" y1="180.63" x2="465.88" y2="178.73"/><line class="j" x1="465.88" y1="178.73" x2="465.88" y2="184.52"/><polygon points="303.96 292.57 303.96 285.66 303.96 277.36 303.96 105.95 312.1 105.95 312.1 292.57 303.96 292.57"/><polygon points="374.45 512.02 374.45 340.61 303.96 340.61 303.96 332.31 303.96 330.58 312.1 330.58 312.1 332.31 382.58 332.31 382.58 512.02 374.45 512.02"/><polygon points="456.12 518.93 456.12 512.02 473.06 512.02 473.06 105.95 445.95 105.95 445.95 99.04 479.84 99.04 479.84 518.93 456.12 518.93"/><rect x="303.97" y="99.04" width="40.33" height="6.91"/><rect x="374.45" y="518.93" width="15.59" height="6.91"/><polygon points="303.96 99.04 303.96 92.13 308.03 92.13 345.99 92.13 345.99 99.04 303.96 99.04"/><polygon points="454.42 525.84 454.42 518.93 479.84 518.93 479.84 99.04 444.26 99.04 444.26 92.13 484.92 92.13 486.62 92.13 486.62 202.72 486.62 396.25 486.62 525.84 454.42 525.84"/><rect x="374.45" y="512.02" width="13.89" height="6.91"/><rect x="382.58" y="332.31" width="1.69" height="2.42"/><rect x="312.1" y="267.69" width="72.18" height="2.42"/><polygon points="418.17 283.24 418.17 270.11 414.78 270.11 414.78 267.69 418.17 267.69 418.17 244.19 473.06 244.19 473.06 246.6 420.54 246.6 420.54 283.24 418.17 283.24"/><polygon points="418.17 356.5 418.17 334.73 414.78 334.73 414.78 332.31 418.17 332.31 418.17 310.89 420.54 310.89 420.54 354.08 473.06 354.08 473.06 356.5 418.17 356.5"/><path d="M340.56,340.61h0Z"/><rect x="462.9" y="326.44" width="10.17" height="27.65"/><rect x="308.03" y="19.55" width="1.36" height="72.58"/><path d="M377.16,525.84h0Zm1.36,0h1.35v72.58h-1.35Z"/><polygon points="452.73 244.19 452.73 213.08 473.06 213.08 473.06 216.54 456.12 216.54 456.12 244.19 452.73 244.19"/><rect x="303.97" y="328.86" width="3.9" height="1.73"/><rect x="303.97" y="292.57" width="3.9" height="1.73"/><line class="j" x1="303.97" y1="340.61" x2="374.45" y2="340.61"/><line class="j" x1="374.45" y1="340.61" x2="374.45" y2="525.84"/><line class="j" x1="374.45" y1="525.84" x2="378.52" y2="525.84"/><line class="j" x1="378.52" y1="525.84" x2="378.52" y2="612.4"/><line class="j" x1="378.52" y1="612.4" x2="479.84" y2="612.4"/><line class="j" x1="479.84" y1="612.4" x2="479.84" y2="525.84"/><line class="j" x1="479.84" y1="525.84" x2="486.62" y2="525.84"/><line class="j" x1="486.62" y1="525.84" x2="486.62" y2="396.25"/><line class="j" x1="486.62" y1="396.25" x2="486.62" y2="202.72"/><line class="j" x1="486.62" y1="202.72" x2="486.62" y2="92.13"/><line class="j" x1="486.62" y1="92.13" x2="484.92" y2="92.13"/><line class="j" x1="484.92" y1="92.13" x2="484.92" y2="5.73"/><line class="j" x1="484.92" y1="5.73" x2="308.03" y2="5.73"/><line class="j" x1="308.03" y1="5.73" x2="308.03" y2="92.13"/><line class="j" x1="308.03" y1="92.13" x2="303.96" y2="92.13"/><line class="j" x1="303.97" y1="92.13" x2="303.97" y2="340.61"/><path class="n" d="M386.85,60.72v7h-.72V61.36h-1.65v-.64Z"/><path class="n" d="M388.53,67.21a.53.53,0,0,1,.53-.54.54.54,0,0,1,.54.54.55.55,0,0,1-.54.55A.54.54,0,0,1,388.53,67.21Z"/><path class="n" d="M390.54,64.21c0-2.23,1.17-3.55,2.79-3.55s2.8,1.32,2.8,3.55-1.18,3.56-2.8,3.56S390.54,66.44,390.54,64.21Zm4.85,0c0-1.87-.84-2.89-2.06-2.89s-2.06,1-2.06,2.89.84,2.9,2.06,2.9S395.39,66.08,395.39,64.21Z"/><path class="n" d="M401.91,65.65c0,1.19-.83,2.12-2.54,2.12a3.61,3.61,0,0,1-2.51-.9l.35-.57a3,3,0,0,0,2.15.81c1.19,0,1.82-.58,1.82-1.43s-.56-1.46-2.34-1.46h-1.49l.36-3.5h3.83v.64h-3.2l-.24,2.22h.9C401.11,63.58,401.91,64.41,401.91,65.65Z"/><path class="n" d="M417.54,547.86v7h-.72V548.5h-1.65v-.64Z"/><path class="n" d="M419.22,554.36a.53.53,0,0,1,.53-.54.54.54,0,0,1,.54.54.55.55,0,0,1-.54.55A.54.54,0,0,1,419.22,554.36Z"/><path class="n" d="M421.23,551.36c0-2.23,1.17-3.55,2.79-3.55s2.8,1.32,2.8,3.55-1.18,3.56-2.8,3.56S421.23,553.59,421.23,551.36Zm4.85,0c0-1.87-.84-2.9-2.06-2.9s-2.06,1-2.06,2.9.84,2.9,2.06,2.9S426.08,553.23,426.08,551.36Z"/><path class="n" d="M432.6,552.8c0,1.19-.83,2.12-2.54,2.12a3.61,3.61,0,0,1-2.51-.9l.35-.57a3,3,0,0,0,2.15.81c1.19,0,1.82-.58,1.82-1.43s-.56-1.46-2.34-1.46H428l.36-3.51h3.83v.64H429l-.24,2.23h.9C431.8,550.73,432.6,551.56,432.6,552.8Z"/><path class="n" d="M417.54,394.88v7h-.72v-6.35h-1.65v-.64Z"/><path class="n" d="M419.22,401.37a.53.53,0,0,1,.53-.54.54.54,0,0,1,.54.54.55.55,0,0,1-.54.55A.54.54,0,0,1,419.22,401.37Z"/><path class="n" d="M421.23,398.37c0-2.22,1.17-3.55,2.79-3.55s2.8,1.33,2.8,3.55-1.18,3.56-2.8,3.56S421.23,400.6,421.23,398.37Zm4.85,0c0-1.87-.84-2.89-2.06-2.89s-2.06,1-2.06,2.89.84,2.9,2.06,2.9S426.08,400.24,426.08,398.37Z"/><path class="n" d="M433.8,400h-1.4v1.84h-.72V400h-3.95v-.52l3.71-4.63h.8l-3.58,4.51h3v-1.62h.7v1.62h1.4Z"/><path class="n" d="M431.26,301.53v7h-.72v-6.36h-1.65v-.64Z"/><path class="n" d="M432.94,308a.53.53,0,0,1,.53-.54.54.54,0,0,1,.54.54.55.55,0,0,1-.54.55A.54.54,0,0,1,432.94,308Z"/><path class="n" d="M435,305c0-2.23,1.16-3.55,2.78-3.55s2.8,1.32,2.8,3.55-1.18,3.56-2.8,3.56S435,307.26,435,305Zm4.84,0c0-1.87-.84-2.9-2.06-2.9s-2.06,1-2.06,2.9.84,2.9,2.06,2.9S439.8,306.9,439.8,305Z"/><path class="n" d="M446.11,306.52c0,1.17-.85,2.07-2.54,2.07a3.64,3.64,0,0,1-2.52-.9l.35-.57a3.07,3.07,0,0,0,2.17.81c1.16,0,1.8-.54,1.8-1.41s-.59-1.39-1.89-1.39H443v-.53l1.94-2.43h-3.58v-.64h4.5V302l-2,2.49C445.36,304.61,446.11,305.4,446.11,306.52Z"/><path class="n" d="M358.76,217.4v7H358V218h-1.65v-.64Z"/><path class="n" d="M360.44,223.9a.53.53,0,0,1,.53-.54.54.54,0,0,1,.54.54.55.55,0,0,1-.54.55A.54.54,0,0,1,360.44,223.9Z"/><path class="n" d="M362.45,220.9c0-2.23,1.17-3.55,2.79-3.55s2.8,1.32,2.8,3.55-1.18,3.56-2.8,3.56S362.45,223.13,362.45,220.9Zm4.85,0c0-1.87-.84-2.9-2.06-2.9s-2.06,1-2.06,2.9.84,2.9,2.06,2.9S367.3,222.77,367.3,220.9Z"/><path class="n" d="M373.84,223.76v.64h-4.91v-.51l2.91-2.85c.79-.78.94-1.25.94-1.73,0-.81-.57-1.31-1.64-1.31a2.38,2.38,0,0,0-1.91.78l-.51-.44a3.14,3.14,0,0,1,2.48-1c1.42,0,2.32.71,2.32,1.88a2.88,2.88,0,0,1-1.15,2.19L370,223.76Z"/><path class="n" d="M355.33,301.53v7h-.72v-6.36H353v-.64Z"/><path class="n" d="M357,308a.53.53,0,0,1,.53-.54.54.54,0,0,1,.54.54.55.55,0,0,1-.54.55A.54.54,0,0,1,357,308Z"/><path class="n" d="M359,305c0-2.23,1.17-3.55,2.79-3.55s2.8,1.32,2.8,3.55-1.18,3.56-2.8,3.56S359,307.26,359,305Zm4.85,0c0-1.87-.84-2.9-2.06-2.9s-2.06,1-2.06,2.9.84,2.9,2.06,2.9S363.87,306.9,363.87,305Z"/><path class="n" d="M367.57,301.53v7h-.72v-6.36h-1.64v-.64Z"/></svg>