<svg xmlns="http://www.w3.org/2000/svg" xmlns:xlink="http://www.w3.org/1999/xlink" viewBox="0 0 790.58 618.13"><defs><style>.a,.f{fill:none;}.b{fill:#595a5c;}.c{fill:#b6906c;}.d,.g{fill:#fff;}.e{fill:#231f20;}.f{stroke:#000;stroke-linecap:round;stroke-linejoin:round;stroke-width:0.35px;}.g,.i{fill-rule:evenodd;}.h{clip-path:url(#a);}.j{fill:#58595b;}</style><clipPath id="a"><polygon class="a" points="245.22 168.63 245.22 255.29 240.45 255.29 240.45 449.5 550.13 449.5 550.13 255.29 545.97 255.29 545.97 168.63 245.22 168.63"/></clipPath></defs><path class="b" d="M55.31,597.13H57.1V609.9H55.31Zm.92,6.11h4.09a1.89,1.89,0,0,0,1-.27,1.82,1.82,0,0,0,.68-.77,2.67,2.67,0,0,0,.24-1.16,2.7,2.7,0,0,0-.24-1.16,1.82,1.82,0,0,0-1.7-1H56.23v-1.7h4a4.09,4.09,0,0,1,2,.48A3.45,3.45,0,0,1,63.62,599a4.64,4.64,0,0,1,0,4.11,3.34,3.34,0,0,1-1.35,1.36,4,4,0,0,1-2,.49h-4Z"/><path class="b" d="M67.7,606.33a2.07,2.07,0,0,0,.49,1.48,1.76,1.76,0,0,0,1.37.52,1.89,1.89,0,0,0,1.37-.46,1.79,1.79,0,0,0,.48-1.33l.12,1.91A2.58,2.58,0,0,1,69.06,610a2.89,2.89,0,0,1-2.33-1,4.08,4.08,0,0,1-.82-2.73v-5.55H67.7Zm.22-7.86a1.93,1.93,0,0,1-.56-1.5,2.07,2.07,0,0,1,.56-1.57,2.56,2.56,0,0,1,3.18,0,2.08,2.08,0,0,1,.57,1.56,1.94,1.94,0,0,1-.57,1.5,2.65,2.65,0,0,1-3.18,0Zm2.26-.86a.94.94,0,0,0,.24-.68,1,1,0,0,0-.24-.7.91.91,0,0,0-.67-.25.92.92,0,0,0-.67.25,1,1,0,0,0-.23.7,1,1,0,0,0,.23.68.92.92,0,0,0,.67.24A.9.9,0,0,0,70.18,597.61Zm1.23,3.17h1.78v9.12H71.41Z"/><path class="b" d="M77.1,609.63A2.82,2.82,0,0,1,76,608.36a5.08,5.08,0,0,1-.36-2v-2a5.05,5.05,0,0,1,.36-2,2.71,2.71,0,0,1,1-1.27,3,3,0,0,1,1.65-.44,2.71,2.71,0,0,1,1.48.42,3.22,3.22,0,0,1,1.09,1.19l-.18,1.86a2.19,2.19,0,0,0-.22-1,1.48,1.48,0,0,0-.61-.63,2,2,0,0,0-1-.21,1.71,1.71,0,0,0-1.37.55,2.26,2.26,0,0,0-.49,1.56v2a2.19,2.19,0,0,0,.49,1.54,1.74,1.74,0,0,0,1.37.54,1.93,1.93,0,0,0,1-.23,1.45,1.45,0,0,0,.61-.64,2.25,2.25,0,0,0,.22-1l.12,1.92a2.66,2.66,0,0,1-.89,1.14,2.56,2.56,0,0,1-1.53.45A3.19,3.19,0,0,1,77.1,609.63Zm4-12.5H82.9V609.9H81.11Z"/><path class="b" d="M87.09,609.57a3.09,3.09,0,0,1-1.29-1.36,4.85,4.85,0,0,1-.44-2.15v-1.48a4.71,4.71,0,0,1,.44-2.12,3.12,3.12,0,0,1,1.29-1.35,4.71,4.71,0,0,1,4.06,0,3.12,3.12,0,0,1,1.29,1.35,4.71,4.71,0,0,1,.44,2.12v1.51a4.79,4.79,0,0,1-.44,2.13,3.12,3.12,0,0,1-1.29,1.35,4.62,4.62,0,0,1-4.06,0Zm3.49-1.83a2.43,2.43,0,0,0,.51-1.65v-1.51a2.43,2.43,0,0,0-.51-1.65,1.88,1.88,0,0,0-1.46-.58,1.85,1.85,0,0,0-1.45.58,2.38,2.38,0,0,0-.52,1.65v1.51a2.38,2.38,0,0,0,.52,1.65,1.82,1.82,0,0,0,1.45.59A1.85,1.85,0,0,0,90.58,607.74Z"/><path class="b" d="M95.43,600.78h1.79v9.12H95.43Zm4.42,1.72a2.16,2.16,0,0,0-.83-.15,1.83,1.83,0,0,0-1.33.47,1.79,1.79,0,0,0-.47,1.31L97,602.37a3.32,3.32,0,0,1,1.09-1.27,2.58,2.58,0,0,1,1.48-.45,3.39,3.39,0,0,1,1.13.18,2.62,2.62,0,0,1,.88.53l-1.17,1.58A1.56,1.56,0,0,0,99.85,602.5Z"/><path class="b" d="M102.15,600.78H104l2.81,7.93-1,1.94Zm8.07,0L106.34,612a2.6,2.6,0,0,1-.56,1,1.87,1.87,0,0,1-.84.52,4,4,0,0,1-1.23.16h-.36V612h.36a1.46,1.46,0,0,0,.8-.2,1.74,1.74,0,0,0,.51-.7l3.38-10.31Z"/><path class="b" d="M113.51,609.88a5.76,5.76,0,0,1-1.32-.48,4.89,4.89,0,0,1-1.13-.79l1.06-1.31a5.86,5.86,0,0,0,1.47.85,4.18,4.18,0,0,0,1.44.28,3.11,3.11,0,0,0,1.6-.33,1.1,1.1,0,0,0,.53-1,.79.79,0,0,0-.29-.66,1.66,1.66,0,0,0-.72-.29c-.29,0-.69-.1-1.22-.14h-.15l-.14,0h-.15a6.45,6.45,0,0,1-1.5-.26,2,2,0,0,1-1-.7,2.38,2.38,0,0,1-.41-1.49,3.07,3.07,0,0,1,.39-1.61,2.41,2.41,0,0,1,1.18-1,5.29,5.29,0,0,1,2-.32,6.38,6.38,0,0,1,2.6.52,6.16,6.16,0,0,1,1.13.66l-1.08,1.31a5.59,5.59,0,0,0-1.35-.66,4,4,0,0,0-1.3-.22,2.44,2.44,0,0,0-1.37.31,1.08,1.08,0,0,0-.46.94.64.64,0,0,0,.26.55,1.72,1.72,0,0,0,.66.25c.26,0,.64.07,1.12.1h.34a7.67,7.67,0,0,1,1.63.25,2.24,2.24,0,0,1,1.13.77,2.62,2.62,0,0,1,.45,1.65,2.92,2.92,0,0,1-.42,1.63,2.54,2.54,0,0,1-1.27,1A5.88,5.88,0,0,1,115,610,7.38,7.38,0,0,1,113.51,609.88Z"/><path class="b" d="M126,597.13h1.8V609.9H126Zm2.6,12.5a2.39,2.39,0,0,1-.93-1.16l.13-1.91a2.22,2.22,0,0,0,.21,1,1.48,1.48,0,0,0,.61.63,1.93,1.93,0,0,0,1,.22,1.74,1.74,0,0,0,1.37-.54,2.18,2.18,0,0,0,.49-1.53v-2a2.26,2.26,0,0,0-.49-1.56,1.71,1.71,0,0,0-1.37-.55,2,2,0,0,0-1,.21,1.36,1.36,0,0,0-.61.62,2.12,2.12,0,0,0-.21,1l-.19-1.76a3.37,3.37,0,0,1,1.08-1.24,2.67,2.67,0,0,1,1.49-.43,3,3,0,0,1,1.65.43,2.9,2.9,0,0,1,1.06,1.27,5.1,5.1,0,0,1,.36,2v2a4.94,4.94,0,0,1-.37,2,2.79,2.79,0,0,1-1.08,1.26,3.25,3.25,0,0,1-1.71.44A2.73,2.73,0,0,1,128.57,609.63Z"/><path class="b" d="M134.46,600.78h1.82l2.81,7.93-1,1.94Zm8.07,0L138.65,612a2.6,2.6,0,0,1-.56,1,1.87,1.87,0,0,1-.84.52,4,4,0,0,1-1.23.16h-.36V612H136a1.46,1.46,0,0,0,.8-.2,1.74,1.74,0,0,0,.51-.7l3.37-10.31Z"/><path class="b" d="M143.57,600.78h4.12v1.62h-4.12Zm1.46,8.56a2.77,2.77,0,0,1-.52-1.81v-9.4h1.8v9.42a.84.84,0,0,0,.13.51.46.46,0,0,0,.39.18h.86V610h-1A2,2,0,0,1,145,609.34Z"/><path class="b" d="M151.94,606.33a2.07,2.07,0,0,0,.49,1.48,1.76,1.76,0,0,0,1.37.52,1.91,1.91,0,0,0,1.37-.46,1.79,1.79,0,0,0,.48-1.33l.12,1.91A2.58,2.58,0,0,1,153.3,610a2.89,2.89,0,0,1-2.33-1,4.08,4.08,0,0,1-.82-2.73v-5.55h1.79Zm3.71-5.55h1.78v9.12h-1.78Z"/><rect class="c" x="612.92" y="591.68" width="35.43" height="2.83"/><path class="d" d="M648.48,594.64H612.79v-3.08h35.69ZM613,594.39h35.19v-2.58H613Z"/><rect class="c" x="612.92" y="601.6" width="70.74" height="2.83"/><path class="d" d="M683.78,604.56h-71v-3.08h71ZM613,604.31h70.49v-2.58H613Z"/><rect class="c" x="612.92" y="612.72" width="177.16" height="2.84"/><path class="d" d="M790.21,615.68H612.79V612.6H790.21ZM613,615.43H790v-2.58H613Z"/><path class="e" d="M587.26,596.28h-.8v-4.82l-.81.5v-.83l.81-.53h.8Z"/><path class="e" d="M589,595.91a1.67,1.67,0,0,1-.41-1.19v-2.58A1.65,1.65,0,0,1,589,591a2,2,0,0,1,2.42,0,1.65,1.65,0,0,1,.41,1.19v2.58a1.65,1.65,0,0,1-.41,1.19,2,2,0,0,1-2.42,0Zm1.83-.55a.89.89,0,0,0,.2-.64v-2.58a.89.89,0,0,0-.2-.64.82.82,0,0,0-.62-.22.86.86,0,0,0-.63.22.94.94,0,0,0-.2.64v2.58a.9.9,0,0,0,.21.64,1,1,0,0,0,1.24,0Z"/><path class="e" d="M593.22,595.91a1.67,1.67,0,0,1-.41-1.19v-2.58a1.65,1.65,0,0,1,.41-1.19,2,2,0,0,1,2.42,0,1.61,1.61,0,0,1,.41,1.19v2.58a1.65,1.65,0,0,1-.41,1.19,2,2,0,0,1-2.42,0Zm1.83-.55a.9.9,0,0,0,.21-.64v-2.58a.94.94,0,0,0-.2-.64.86.86,0,0,0-.63-.22.82.82,0,0,0-.62.22.89.89,0,0,0-.2.64v2.58a.89.89,0,0,0,.2.64,1,1,0,0,0,1.24,0Z"/><path class="e" d="M600.1,596.13a1.45,1.45,0,0,1-.6-.6,2.06,2.06,0,0,1-.21-1v-.67a2,2,0,0,1,.21-.94,1.37,1.37,0,0,1,.6-.59,2,2,0,0,1,.95-.21,2.21,2.21,0,0,1,.59.08,1.68,1.68,0,0,1,.51.22,1.54,1.54,0,0,1,.37.35l-.58.52a1.17,1.17,0,0,0-.4-.3,1.13,1.13,0,0,0-.48-.11.94.94,0,0,0-.71.26,1,1,0,0,0-.26.72v.67a1,1,0,0,0,.25.74.94.94,0,0,0,.72.27,1,1,0,0,0,.48-.12,1,1,0,0,0,.4-.32l.58.56a1.38,1.38,0,0,1-.38.34,1.62,1.62,0,0,1-.5.22,2.27,2.27,0,0,1-.59.07A2.12,2.12,0,0,1,600.1,596.13Z"/><path class="e" d="M603.4,592.22h.79v4.06h-.79Zm2.42,1.6a1,1,0,0,0-.21-.67.78.78,0,0,0-.6-.23.81.81,0,0,0-.6.21.73.73,0,0,0-.22.58l-.08-.78a1.46,1.46,0,0,1,.49-.57,1.22,1.22,0,0,1,.67-.2,1.33,1.33,0,0,1,.73.2,1.18,1.18,0,0,1,.46.56,2.4,2.4,0,0,1,.15.89v2.47h-.79Zm2.42,0a.93.93,0,0,0-.22-.67.85.85,0,0,0-.63-.23.72.72,0,0,0-.57.23.9.9,0,0,0-.21.64l-.16-.78a1.61,1.61,0,0,1,.51-.63,1.23,1.23,0,0,1,.69-.22,1.37,1.37,0,0,1,.75.2,1.09,1.09,0,0,1,.47.56,2.21,2.21,0,0,1,.17.89v2.47h-.8Z"/><path class="e" d="M584.33,605.5l2-2.64a1.85,1.85,0,0,0,.27-.47,1.29,1.29,0,0,0,.09-.45h0a.67.67,0,0,0-.2-.53.81.81,0,0,0-.56-.19.76.76,0,0,0-.56.21,1,1,0,0,0-.27.58h-.82a2,2,0,0,1,.29-.83,1.42,1.42,0,0,1,.56-.53,1.67,1.67,0,0,1,.79-.18,1.93,1.93,0,0,1,.87.17,1.21,1.21,0,0,1,.54.51,1.55,1.55,0,0,1,.19.8h0a1.84,1.84,0,0,1-.12.63,2.8,2.8,0,0,1-.35.63l-1.65,2.24h2.15v.76h-3.2Z"/><path class="e" d="M589,605.83a1.67,1.67,0,0,1-.41-1.19v-2.58a1.65,1.65,0,0,1,.41-1.19,2,2,0,0,1,2.42,0,1.65,1.65,0,0,1,.41,1.19v2.58a1.65,1.65,0,0,1-.41,1.19,2,2,0,0,1-2.42,0Zm1.83-.55a.89.89,0,0,0,.2-.64v-2.58a.89.89,0,0,0-.2-.64.82.82,0,0,0-.62-.22.86.86,0,0,0-.63.22.94.94,0,0,0-.19.64v2.58a.89.89,0,0,0,.2.64,1,1,0,0,0,1.24,0Z"/><path class="e" d="M593.22,605.83a1.67,1.67,0,0,1-.41-1.19v-2.58a1.61,1.61,0,0,1,.42-1.19,1.59,1.59,0,0,1,1.2-.42,1.45,1.45,0,0,1,1.62,1.61v2.58a1.61,1.61,0,0,1-.41,1.19,2,2,0,0,1-2.42,0Zm1.84-.55a.94.94,0,0,0,.2-.64v-2.58a.94.94,0,0,0-.2-.64.84.84,0,0,0-.63-.22.82.82,0,0,0-.62.22.89.89,0,0,0-.2.64v2.58a.89.89,0,0,0,.2.64.82.82,0,0,0,.62.22A.86.86,0,0,0,595.06,605.28Z"/><path class="e" d="M600.1,606.05a1.45,1.45,0,0,1-.6-.6,2.06,2.06,0,0,1-.2-1v-.67a2,2,0,0,1,.2-.94,1.37,1.37,0,0,1,.6-.59,2,2,0,0,1,.95-.21,2.35,2.35,0,0,1,.6.08,1.73,1.73,0,0,1,.5.22,1.38,1.38,0,0,1,.37.35l-.58.52a1.08,1.08,0,0,0-.4-.3,1.13,1.13,0,0,0-.48-.11,1,1,0,0,0-.71.26,1,1,0,0,0-.26.72v.67a1,1,0,0,0,.25.74.94.94,0,0,0,.72.27,1.14,1.14,0,0,0,.88-.44l.58.56a1.38,1.38,0,0,1-.38.34,1.62,1.62,0,0,1-.5.22,2.22,2.22,0,0,1-.59.07A2.12,2.12,0,0,1,600.1,606.05Z"/><path class="e" d="M603.4,602.14h.79v4.06h-.79Zm2.42,1.6a1,1,0,0,0-.21-.67.78.78,0,0,0-.6-.23.81.81,0,0,0-.6.21.73.73,0,0,0-.22.58l-.08-.78a1.46,1.46,0,0,1,.49-.57,1.22,1.22,0,0,1,.67-.2,1.3,1.3,0,0,1,.73.2,1.18,1.18,0,0,1,.46.56,2.4,2.4,0,0,1,.16.89v2.47h-.8Zm2.42,0a.93.93,0,0,0-.22-.67.85.85,0,0,0-.63-.23.73.73,0,0,0-.57.23.89.89,0,0,0-.2.64l-.16-.78a1.51,1.51,0,0,1,.5-.63,1.23,1.23,0,0,1,.69-.22,1.35,1.35,0,0,1,.75.2,1.16,1.16,0,0,1,.48.56,2.4,2.4,0,0,1,.16.89v2.47h-.8Z"/><path class="e" d="M585,615.58a1.34,1.34,0,0,1-.54-.49,2,2,0,0,1-.28-.77h.8a.75.75,0,0,0,.25.49.85.85,0,0,0,.54.17.72.72,0,0,0,.59-.25,1.1,1.1,0,0,0,.21-.72v-.48a1.1,1.1,0,0,0-.21-.72.72.72,0,0,0-.59-.25.83.83,0,0,0-.4.11,1.18,1.18,0,0,0-.34.33h-.72v-3h2.89v.76h-2.1V612a1,1,0,0,1,.34-.18.94.94,0,0,1,.37-.07,1.68,1.68,0,0,1,.84.2,1.29,1.29,0,0,1,.53.6,2.07,2.07,0,0,1,.19.94V614a2.25,2.25,0,0,1-.19.94,1.31,1.31,0,0,1-.55.59,1.69,1.69,0,0,1-.86.21A1.74,1.74,0,0,1,585,615.58Z"/><path class="e" d="M589,615.32a1.65,1.65,0,0,1-.41-1.19v-2.58a1.67,1.67,0,0,1,.41-1.19,2,2,0,0,1,2.42,0,1.65,1.65,0,0,1,.41,1.19v2.58a1.64,1.64,0,0,1-.41,1.19,1.92,1.92,0,0,1-2.42,0Zm1.83-.55a.89.89,0,0,0,.2-.64v-2.58a.88.88,0,0,0-.2-.63.78.78,0,0,0-.62-.22.82.82,0,0,0-.63.22.93.93,0,0,0-.2.63v2.58a.9.9,0,0,0,.21.64,1,1,0,0,0,1.24,0Z"/><path class="e" d="M593.22,615.32a1.65,1.65,0,0,1-.41-1.19v-2.58a1.67,1.67,0,0,1,.41-1.19,2,2,0,0,1,2.42,0,1.61,1.61,0,0,1,.41,1.19v2.58a1.64,1.64,0,0,1-.41,1.19,1.92,1.92,0,0,1-2.42,0Zm1.83-.55a.9.9,0,0,0,.21-.64v-2.58a.93.93,0,0,0-.2-.63.82.82,0,0,0-.63-.22.78.78,0,0,0-.62.22.88.88,0,0,0-.2.63v2.58a.89.89,0,0,0,.2.64,1,1,0,0,0,1.24,0Z"/><path class="e" d="M600.1,615.54a1.45,1.45,0,0,1-.6-.6,2,2,0,0,1-.21-1v-.67a2,2,0,0,1,.21-.94,1.45,1.45,0,0,1,.6-.6,2,2,0,0,1,.95-.2,2.22,2.22,0,0,1,.59.07,2,2,0,0,1,.51.22,1.76,1.76,0,0,1,.37.35l-.58.52a1.17,1.17,0,0,0-.4-.3,1.13,1.13,0,0,0-.48-.11.94.94,0,0,0-.71.26,1,1,0,0,0-.26.73V614a1.07,1.07,0,0,0,.25.74,1,1,0,0,0,.72.26,1.13,1.13,0,0,0,.48-.11,1.26,1.26,0,0,0,.4-.32l.58.55a1.42,1.42,0,0,1-.38.35,1.88,1.88,0,0,1-.5.21,2.27,2.27,0,0,1-.59.08A2,2,0,0,1,600.1,615.54Z"/><path class="e" d="M603.4,611.63h.79v4.06h-.79Zm2.42,1.6a1,1,0,0,0-.21-.66.75.75,0,0,0-.6-.24.81.81,0,0,0-.6.21.75.75,0,0,0-.22.58l-.08-.78a1.5,1.5,0,0,1,.49-.56,1.15,1.15,0,0,1,.67-.2,1.32,1.32,0,0,1,.73.19,1.28,1.28,0,0,1,.46.56,2.42,2.42,0,0,1,.15.9v2.46h-.79Zm2.42,0a.91.91,0,0,0-.22-.66.82.82,0,0,0-.63-.24.72.72,0,0,0-.57.23.9.9,0,0,0-.21.64l-.16-.78a1.51,1.51,0,0,1,.51-.62,1.16,1.16,0,0,1,.69-.22,1.37,1.37,0,0,1,.75.19,1.18,1.18,0,0,1,.47.56,2.22,2.22,0,0,1,.17.9v2.46h-.8Z"/><path class="c" d="M23.49,613.89A12.92,12.92,0,1,1,36.4,601,12.93,12.93,0,0,1,23.49,613.89Zm0-24.83A11.92,11.92,0,1,0,35.4,601,11.93,11.93,0,0,0,23.49,589.06Z"/><polygon class="d" points="35.77 588.74 9.42 600.98 35.77 613.21 32.02 600.98 35.77 588.74"/><path class="c" d="M36.58,614.14,8.23,601l28.35-13.17-4,13.17ZM10.61,601,35,612.29,31.5,601,35,589.66Z"/><path class="c" d="M2.52,605.19a5,5,0,0,1-1.11-.38,4.4,4.4,0,0,1-1-.64l.81-1a3.72,3.72,0,0,0,1.16.69,4.08,4.08,0,0,0,1.38.23,2.73,2.73,0,0,0,1.55-.38,1.17,1.17,0,0,0,.55-1.05h0a1.12,1.12,0,0,0-.25-.77,1.44,1.44,0,0,0-.64-.42,8.23,8.23,0,0,0-1-.25H3.89l-.1,0a9.48,9.48,0,0,1-1.5-.36,2.08,2.08,0,0,1-1-.73,2.42,2.42,0,0,1-.41-1.51h0a2.77,2.77,0,0,1,.38-1.47,2.44,2.44,0,0,1,1.12-.92,4.48,4.48,0,0,1,1.77-.32,4.6,4.6,0,0,1,1,.11,4.9,4.9,0,0,1,1.86.86l-.73,1a4.61,4.61,0,0,0-1-.58,3,3,0,0,0-1.06-.2,2.44,2.44,0,0,0-1.46.38,1.24,1.24,0,0,0-.53,1.07h0a1,1,0,0,0,.27.75,1.74,1.74,0,0,0,.67.4,9.3,9.3,0,0,0,1.12.27h.24a7.93,7.93,0,0,1,1.4.41,2.22,2.22,0,0,1,.94.76,2.4,2.4,0,0,1,.38,1.43h0a2.62,2.62,0,0,1-.4,1.45,2.54,2.54,0,0,1-1.16.91,4.8,4.8,0,0,1-1.83.31A6.44,6.44,0,0,1,2.52,605.19Z"/><rect class="c" x="612.5" y="600.68" width="1" height="4.68"/><rect class="c" x="612.5" y="590.76" width="1" height="4.68"/><rect class="c" x="612.5" y="611.45" width="1" height="5.24"/><rect class="c" x="789.58" y="611.45" width="1" height="5.24"/><rect class="c" x="682.59" y="600.68" width="1" height="4.68"/><rect class="c" x="647.3" y="590.76" width="1" height="4.68"/><rect class="a" width="790.34" height="618.13"/><rect class="d" x="249.64" y="384.82" width="31.21" height="31.21"/><line class="f" x1="249.64" y1="384.82" x2="249.64" y2="416.03"/><line class="f" x1="280.85" y1="384.82" x2="249.64" y2="384.82"/><line class="f" x1="280.85" y1="416.03" x2="280.85" y2="384.82"/><line class="f" x1="249.64" y1="416.03" x2="280.85" y2="416.03"/><polygon class="g" points="446.44 441.17 446.44 420.02 520.65 420.02 520.65 364.53 541.81 364.53 541.81 420.02 541.81 441.17 446.44 441.17"/><line class="f" x1="446.44" y1="441.17" x2="446.44" y2="420.02"/><line class="f" x1="446.44" y1="420.02" x2="520.65" y2="420.02"/><line class="f" x1="520.65" y1="420.02" x2="520.65" y2="364.53"/><line class="f" x1="520.65" y1="364.53" x2="541.81" y2="364.53"/><line class="f" x1="541.81" y1="364.53" x2="541.81" y2="420.02"/><line class="f" x1="541.81" y1="420.02" x2="541.81" y2="441.17"/><line class="f" x1="541.81" y1="441.17" x2="446.44" y2="441.17"/><rect class="d" x="383.66" y="420.02" width="22.21" height="21.15"/><line class="f" x1="383.66" y1="420.02" x2="383.66" y2="441.17"/><line class="f" x1="405.87" y1="420.02" x2="383.66" y2="420.02"/><line class="f" x1="405.87" y1="441.17" x2="405.87" y2="420.02"/><line class="f" x1="383.66" y1="441.17" x2="405.87" y2="441.17"/><line class="f" x1="248.77" y1="420.37" x2="279.98" y2="420.37"/><line class="f" x1="408.3" y1="423.83" x2="442.97" y2="423.83"/><line class="f" x1="514.41" y1="262.93" x2="514.41" y2="262.23"/><line class="f" x1="514.41" y1="262.23" x2="517.19" y2="262.23"/><line class="f" x1="517.19" y1="262.23" x2="517.19" y2="265.01"/><line class="f" x1="517.19" y1="265.01" x2="515.8" y2="265.01"/><line class="f" x1="550.13" y1="269.17" x2="550.13" y2="431.46"/><line class="f" x1="550.13" y1="433.89" x2="550.13" y2="449.5"/><line class="f" x1="541.81" y1="269.17" x2="541.81" y2="441.17"/><line class="f" x1="248.77" y1="269.17" x2="248.77" y2="381.53"/><line class="f" x1="245.22" y1="180.74" x2="545.97" y2="180.74"/><line class="f" x1="245.22" y1="203.28" x2="248.43" y2="203.28"/><line class="f" x1="252.24" y1="203.28" x2="253.02" y2="203.28"/><line class="f" x1="256.84" y1="203.28" x2="257.62" y2="203.28"/><line class="f" x1="261.43" y1="203.28" x2="268.37" y2="203.28"/><line class="f" x1="272.18" y1="203.28" x2="272.96" y2="203.28"/><line class="f" x1="276.78" y1="203.28" x2="277.56" y2="203.28"/><line class="f" x1="281.37" y1="203.28" x2="288.31" y2="203.28"/><line class="f" x1="292.12" y1="203.28" x2="292.9" y2="203.28"/><line class="f" x1="296.72" y1="203.28" x2="297.5" y2="203.28"/><line class="f" x1="301.31" y1="203.28" x2="308.25" y2="203.28"/><line class="f" x1="312.06" y1="203.28" x2="312.84" y2="203.28"/><line class="f" x1="316.66" y1="203.28" x2="317.44" y2="203.28"/><line class="f" x1="321.25" y1="203.28" x2="328.19" y2="203.28"/><line class="f" x1="332" y1="203.28" x2="332.78" y2="203.28"/><line class="f" x1="336.6" y1="203.28" x2="337.38" y2="203.28"/><line class="f" x1="341.19" y1="203.28" x2="348.13" y2="203.28"/><line class="f" x1="351.94" y1="203.28" x2="352.72" y2="203.28"/><line class="f" x1="356.54" y1="203.28" x2="357.32" y2="203.28"/><line class="f" x1="361.13" y1="203.28" x2="368.07" y2="203.28"/><line class="f" x1="371.88" y1="203.28" x2="372.66" y2="203.28"/><line class="f" x1="376.48" y1="203.28" x2="377.26" y2="203.28"/><line class="f" x1="381.07" y1="203.28" x2="388.01" y2="203.28"/><line class="f" x1="391.82" y1="203.28" x2="392.6" y2="203.28"/><line class="f" x1="396.42" y1="203.28" x2="397.2" y2="203.28"/><line class="f" x1="401.01" y1="203.28" x2="407.95" y2="203.28"/><line class="f" x1="411.76" y1="203.28" x2="412.54" y2="203.28"/><line class="f" x1="416.36" y1="203.28" x2="417.14" y2="203.28"/><line class="f" x1="420.95" y1="203.28" x2="427.89" y2="203.28"/><line class="f" x1="431.7" y1="203.28" x2="432.48" y2="203.28"/><line class="f" x1="436.3" y1="203.28" x2="437.08" y2="203.28"/><line class="f" x1="440.89" y1="203.28" x2="447.83" y2="203.28"/><line class="f" x1="451.64" y1="203.28" x2="452.42" y2="203.28"/><line class="f" x1="456.24" y1="203.28" x2="457.02" y2="203.28"/><line class="f" x1="460.83" y1="203.28" x2="467.77" y2="203.28"/><line class="f" x1="471.58" y1="203.28" x2="472.37" y2="203.28"/><line class="f" x1="476.18" y1="203.28" x2="476.96" y2="203.28"/><line class="f" x1="480.77" y1="203.28" x2="487.71" y2="203.28"/><line class="f" x1="491.52" y1="203.28" x2="492.31" y2="203.28"/><line class="f" x1="496.12" y1="203.28" x2="496.9" y2="203.28"/><line class="f" x1="500.71" y1="203.28" x2="507.65" y2="203.28"/><line class="f" x1="511.46" y1="203.28" x2="512.25" y2="203.28"/><line class="f" x1="516.06" y1="203.28" x2="516.84" y2="203.28"/><line class="f" x1="520.65" y1="203.28" x2="527.59" y2="203.28"/><line class="f" x1="531.4" y1="203.28" x2="532.19" y2="203.28"/><line class="f" x1="536" y1="203.28" x2="536.78" y2="203.28"/><line class="f" x1="540.59" y1="203.28" x2="543.2" y2="203.28"/><line class="f" x1="543.2" y1="203.28" x2="545.97" y2="203.28"/><line class="f" x1="427.02" y1="262.23" x2="336.86" y2="262.23"/><line class="f" x1="545.97" y1="255.3" x2="515.45" y2="255.3"/><line class="f" x1="550.13" y1="255.3" x2="545.97" y2="255.3"/><line class="f" x1="428.76" y1="255.3" x2="335.12" y2="255.3"/><line class="f" x1="267.5" y1="262.23" x2="240.45" y2="262.23"/><line class="f" x1="384.02" y1="269.17" x2="336.86" y2="269.17"/><line class="f" x1="245.22" y1="255.3" x2="240.45" y2="255.3"/><line class="f" x1="269.23" y1="255.3" x2="245.22" y2="255.3"/><line class="f" x1="550.13" y1="269.17" x2="550.13" y2="269.17"/><line class="f" x1="427.02" y1="269.17" x2="386.45" y2="269.17"/><line class="f" x1="550.13" y1="262.23" x2="517.19" y2="262.23"/><line class="f" x1="267.5" y1="269.17" x2="248.77" y2="269.17"/><line class="f" x1="541.81" y1="269.17" x2="517.19" y2="269.17"/><line class="f" x1="515.45" y1="262.23" x2="515.45" y2="255.3"/><line class="f" x1="461.7" y1="262.23" x2="461.7" y2="265.01"/><line class="f" x1="378.82" y1="441.17" x2="371.88" y2="441.17"/><line class="f" x1="368.07" y1="441.17" x2="367.29" y2="441.17"/><line class="f" x1="363.47" y1="441.17" x2="362.69" y2="441.17"/><line class="f" x1="358.88" y1="441.17" x2="351.94" y2="441.17"/><line class="f" x1="348.13" y1="441.17" x2="347.61" y2="441.17"/><line class="f" x1="347.61" y1="441.17" x2="340.67" y2="441.17"/><line class="f" x1="405.87" y1="441.17" x2="378.82" y2="441.17"/><line class="f" x1="279.98" y1="441.17" x2="338.24" y2="441.17"/><line class="f" x1="384.02" y1="381.53" x2="380.55" y2="381.53"/><line class="f" x1="405.87" y1="383.95" x2="380.55" y2="383.95"/><line class="f" x1="349.34" y1="383.95" x2="340.67" y2="383.95"/><line class="f" x1="405.87" y1="383.95" x2="405.87" y2="385.69"/><line class="f" x1="408.3" y1="416.9" x2="408.3" y2="420.37"/><line class="f" x1="408.3" y1="423.83" x2="408.3" y2="441.17"/><line class="f" x1="408.3" y1="385.69" x2="405.87" y2="385.69"/><line class="f" x1="349.34" y1="383.95" x2="349.34" y2="381.53"/><line class="f" x1="380.55" y1="383.95" x2="380.55" y2="381.53"/><line class="f" x1="340.67" y1="445.51" x2="340.67" y2="449.5"/><line class="f" x1="377.08" y1="445.51" x2="377.08" y2="449.5"/><line class="f" x1="342.41" y1="445.51" x2="342.41" y2="449.5"/><line class="f" x1="342.41" y1="445.51" x2="340.67" y2="445.51"/><line class="f" x1="377.08" y1="445.51" x2="378.82" y2="445.51"/><line class="f" x1="378.82" y1="445.51" x2="378.82" y2="441.17"/><line class="f" x1="340.67" y1="445.51" x2="340.67" y2="441.17"/><line class="f" x1="378.82" y1="449.5" x2="392.81" y2="449.5"/><line class="f" x1="446.44" y1="441.17" x2="541.81" y2="441.17"/><line class="f" x1="344.14" y1="445.51" x2="375.35" y2="445.51"/><line class="f" x1="344.14" y1="445.51" x2="344.14" y2="414.3"/><g class="h"><path class="f" d="M344.14,414.3a31.21,31.21,0,0,1,31.21,31.21"/></g><line class="f" x1="344.14" y1="449.5" x2="344.14" y2="445.51"/><line class="f" x1="375.35" y1="445.51" x2="375.35" y2="449.5"/><line class="f" x1="375.35" y1="445.51" x2="377.08" y2="445.51"/><line class="f" x1="342.41" y1="445.51" x2="344.14" y2="445.51"/><line class="f" x1="378.82" y1="445.51" x2="378.82" y2="449.5"/><line class="f" x1="442.97" y1="423.83" x2="442.97" y2="441.17"/><line class="f" x1="248.77" y1="441.17" x2="276.52" y2="441.17"/><line class="f" x1="248.77" y1="383.95" x2="338.24" y2="383.95"/><line class="f" x1="248.77" y1="381.53" x2="349.34" y2="381.53"/><line class="f" x1="338.24" y1="413.43" x2="338.24" y2="441.17"/><line class="f" x1="338.24" y1="383.95" x2="338.24" y2="385.69"/><line class="f" x1="248.77" y1="420.37" x2="248.77" y2="441.17"/><line class="f" x1="248.77" y1="416.9" x2="279.98" y2="416.9"/><line class="f" x1="248.77" y1="416.9" x2="248.77" y2="420.37"/><line class="f" x1="340.67" y1="413.43" x2="338.25" y2="413.43"/><line class="f" x1="340.67" y1="413.43" x2="340.67" y2="441.17"/><line class="f" x1="340.68" y1="449.5" x2="340.67" y2="449.5"/><line class="f" x1="378.69" y1="449.5" x2="378.82" y2="449.5"/><line class="f" x1="408.3" y1="416.9" x2="405.87" y2="416.9"/><line class="f" x1="405.87" y1="416.9" x2="405.87" y2="441.17"/><line class="f" x1="240.45" y1="269.17" x2="248.77" y2="269.17"/><line class="f" x1="269.23" y1="255.3" x2="303.91" y2="255.3"/><line class="f" x1="267.5" y1="269.17" x2="336.86" y2="269.17"/><line class="f" x1="269.23" y1="262.23" x2="269.23" y2="255.3"/><line class="f" x1="336.86" y1="262.23" x2="336.86" y2="269.17"/><line class="f" x1="246" y1="184.2" x2="246" y2="255.3"/><line class="f" x1="541.81" y1="269.17" x2="550.13" y2="269.17"/><line class="f" x1="245.22" y1="184.2" x2="246" y2="184.2"/><line class="f" x1="544.58" y1="184.2" x2="544.58" y2="255.3"/><line class="f" x1="544.58" y1="184.2" x2="545.97" y2="184.2"/><line class="f" x1="276.52" y1="441.17" x2="279.98" y2="441.17"/><line class="f" x1="248.77" y1="383.95" x2="248.77" y2="381.53"/><line class="f" x1="550.13" y1="431.46" x2="550.13" y2="433.89"/><line class="f" x1="405.87" y1="441.17" x2="408.29" y2="441.17"/><line class="f" x1="425.63" y1="441.17" x2="429.1" y2="441.17"/><line class="f" x1="384.02" y1="269.17" x2="386.45" y2="269.17"/><line class="f" x1="276.52" y1="441.17" x2="279.98" y2="441.17"/><line class="f" x1="338.24" y1="441.17" x2="340.67" y2="441.17"/><line class="f" x1="517.19" y1="269.17" x2="517.19" y2="262.23"/><line class="f" x1="427.02" y1="269.17" x2="427.02" y2="262.23"/><line class="f" x1="517.19" y1="269.17" x2="461.7" y2="269.17"/><line class="f" x1="461.7" y1="269.17" x2="427.02" y2="269.17"/><line class="f" x1="428.76" y1="262.23" x2="428.76" y2="255.3"/><line class="f" x1="427.02" y1="262.23" x2="428.76" y2="262.23"/><line class="f" x1="517.19" y1="262.23" x2="515.45" y2="262.23"/><line class="f" x1="515.45" y1="255.3" x2="459.97" y2="255.3"/><line class="f" x1="461.7" y1="269.17" x2="461.7" y2="262.23"/><line class="f" x1="459.97" y1="262.23" x2="459.97" y2="255.3"/><line class="f" x1="459.97" y1="255.3" x2="453.03" y2="255.3"/><line class="f" x1="449.22" y1="255.3" x2="448.44" y2="255.3"/><line class="f" x1="444.62" y1="255.3" x2="443.84" y2="255.3"/><line class="f" x1="440.03" y1="255.3" x2="435.69" y2="255.3"/><line class="f" x1="435.69" y1="255.3" x2="428.76" y2="255.3"/><line class="f" x1="459.97" y1="258.76" x2="428.76" y2="258.76"/><line class="f" x1="428.41" y1="262.93" x2="428.41" y2="297.6"/><line class="f" x1="460.31" y1="262.93" x2="460.31" y2="265.7"/><line class="f" x1="431.18" y1="265.7" x2="431.18" y2="262.92"/><line class="f" x1="457.54" y1="264.31" x2="431.18" y2="264.31"/><g class="h"><path class="f" d="M460.31,265.7a31.9,31.9,0,0,1-31.9,31.9"/></g><line class="f" x1="429.8" y1="262.93" x2="429.8" y2="262.23"/><line class="f" x1="429.8" y1="262.23" x2="427.02" y2="262.23"/><line class="f" x1="427.02" y1="262.23" x2="427.02" y2="265.01"/><line class="f" x1="427.02" y1="265.01" x2="428.41" y2="265.01"/><line class="f" x1="464.47" y1="265.01" x2="464.47" y2="262.23"/><line class="f" x1="464.47" y1="263.62" x2="488.06" y2="263.62"/><line class="f" x1="515.8" y1="262.93" x2="515.8" y2="265.7"/><line class="f" x1="513.03" y1="264.31" x2="492.22" y2="264.31"/><line class="f" x1="488.06" y1="262.23" x2="488.06" y2="265.01"/><line class="f" x1="515.8" y1="262.93" x2="489.44" y2="262.93"/><line class="f" x1="489.44" y1="262.93" x2="489.44" y2="265.7"/><line class="f" x1="267.5" y1="269.17" x2="267.5" y2="262.23"/><line class="f" x1="267.5" y1="262.23" x2="269.23" y2="262.23"/><line class="f" x1="336.86" y1="262.23" x2="335.12" y2="262.23"/><line class="f" x1="303.91" y1="262.23" x2="303.91" y2="255.3"/><line class="f" x1="303.91" y1="255.3" x2="310.85" y2="255.3"/><line class="f" x1="314.66" y1="255.3" x2="315.44" y2="255.3"/><line class="f" x1="319.26" y1="255.3" x2="320.04" y2="255.3"/><line class="f" x1="323.85" y1="255.3" x2="328.19" y2="255.3"/><line class="f" x1="328.19" y1="255.3" x2="335.12" y2="255.3"/><line class="f" x1="303.91" y1="258.76" x2="335.12" y2="258.76"/><line class="f" x1="335.47" y1="262.93" x2="335.47" y2="297.6"/><line class="f" x1="304.95" y1="262.93" x2="304.95" y2="262.23"/><line class="f" x1="335.47" y1="262.93" x2="303.57" y2="262.93"/><line class="f" x1="303.57" y1="262.93" x2="303.57" y2="265.7"/><line class="f" x1="332.7" y1="265.7" x2="332.7" y2="262.92"/><line class="f" x1="306.34" y1="264.31" x2="332.69" y2="264.31"/><g class="h"><path class="f" d="M335.47,297.6a31.9,31.9,0,0,1-31.9-31.9"/></g><line class="f" x1="334.08" y1="262.93" x2="334.08" y2="262.23"/><line class="f" x1="334.08" y1="262.23" x2="336.86" y2="262.23"/><line class="f" x1="336.86" y1="262.23" x2="336.86" y2="265.01"/><line class="f" x1="336.86" y1="265.01" x2="335.47" y2="265.01"/><line class="f" x1="335.12" y1="262.23" x2="335.12" y2="255.3"/><line class="f" x1="270.27" y1="262.93" x2="270.27" y2="262.23"/><line class="f" x1="270.27" y1="262.23" x2="267.5" y2="262.23"/><line class="f" x1="267.5" y1="262.23" x2="267.5" y2="265.01"/><line class="f" x1="267.5" y1="265.01" x2="268.89" y2="265.01"/><line class="f" x1="300.79" y1="262.93" x2="268.89" y2="262.93"/><line class="f" x1="268.89" y1="262.93" x2="268.89" y2="265.7"/><line class="f" x1="300.79" y1="262.93" x2="300.79" y2="265.7"/><line class="f" x1="271.66" y1="264.31" x2="298.02" y2="264.31"/><line class="f" x1="302.18" y1="262.23" x2="302.18" y2="265.01"/><line class="f" x1="338.24" y1="385.69" x2="340.67" y2="385.69"/><line class="f" x1="340.67" y1="385.69" x2="340.67" y2="383.95"/><line class="f" x1="340.67" y1="411.7" x2="340.67" y2="387.42"/><line class="f" x1="340.67" y1="411.7" x2="364.95" y2="411.7"/><g class="h"><path class="f" d="M340.67,387.42A24.28,24.28,0,0,1,365,411.7"/></g><line class="f" x1="338.24" y1="411.7" x2="340.67" y2="411.7"/><line class="f" x1="340.67" y1="387.42" x2="338.25" y2="387.42"/><line class="f" x1="340.67" y1="387.42" x2="340.67" y2="385.69"/><line class="f" x1="338.24" y1="387.42" x2="338.24" y2="385.69"/><line class="f" x1="340.67" y1="413.43" x2="340.67" y2="411.7"/><line class="f" x1="338.24" y1="413.43" x2="338.24" y2="411.7"/><line class="f" x1="338.24" y1="411.7" x2="338.24" y2="404.76"/><line class="f" x1="338.24" y1="400.95" x2="338.24" y2="400.16"/><line class="f" x1="338.24" y1="396.35" x2="338.24" y2="395.57"/><line class="f" x1="338.24" y1="394.36" x2="338.24" y2="387.42"/><line class="f" x1="340.67" y1="411.7" x2="341.54" y2="411.7"/><line class="f" x1="341.54" y1="411.7" x2="341.54" y2="415.16"/><line class="f" x1="341.54" y1="415.16" x2="340.67" y2="415.16"/><line class="f" x1="338.24" y1="411.7" x2="337.38" y2="411.7"/><line class="f" x1="337.38" y1="411.7" x2="337.38" y2="415.16"/><line class="f" x1="337.38" y1="415.16" x2="338.24" y2="415.16"/><line class="f" x1="341.54" y1="387.42" x2="341.54" y2="383.95"/><line class="f" x1="341.54" y1="383.95" x2="340.67" y2="383.95"/><line class="f" x1="338.24" y1="387.42" x2="337.38" y2="387.42"/><line class="f" x1="337.38" y1="387.42" x2="337.38" y2="383.95"/><line class="f" x1="337.38" y1="383.95" x2="338.24" y2="383.95"/><line class="f" x1="378.82" y1="381.53" x2="351.08" y2="381.53"/><line class="f" x1="378.82" y1="381.53" x2="378.82" y2="353.78"/><g class="h"><path class="f" d="M351.08,381.53a27.75,27.75,0,0,1,27.74-27.75"/></g><line class="f" x1="378.82" y1="383.95" x2="378.82" y2="381.53"/><line class="f" x1="351.08" y1="381.53" x2="351.08" y2="383.95"/><line class="f" x1="351.08" y1="381.53" x2="349.34" y2="381.53"/><line class="f" x1="351.08" y1="383.95" x2="349.34" y2="383.95"/><line class="f" x1="380.55" y1="381.53" x2="378.82" y2="381.53"/><line class="f" x1="380.55" y1="383.95" x2="378.82" y2="383.95"/><line class="f" x1="378.82" y1="383.95" x2="371.88" y2="383.95"/><line class="f" x1="368.07" y1="383.95" x2="367.29" y2="383.95"/><line class="f" x1="363.47" y1="383.95" x2="362.69" y2="383.95"/><line class="f" x1="358.88" y1="383.95" x2="358.01" y2="383.95"/><line class="f" x1="358.01" y1="383.95" x2="351.08" y2="383.95"/><line class="f" x1="378.82" y1="381.53" x2="378.82" y2="380.66"/><line class="f" x1="378.82" y1="380.66" x2="382.29" y2="380.66"/><line class="f" x1="382.29" y1="380.66" x2="382.29" y2="381.53"/><line class="f" x1="378.82" y1="383.95" x2="378.82" y2="384.82"/><line class="f" x1="378.82" y1="384.82" x2="382.29" y2="384.82"/><line class="f" x1="382.29" y1="384.82" x2="382.29" y2="383.95"/><line class="f" x1="351.08" y1="380.66" x2="347.61" y2="380.66"/><line class="f" x1="347.61" y1="380.66" x2="347.61" y2="381.53"/><line class="f" x1="351.08" y1="383.95" x2="351.08" y2="384.82"/><line class="f" x1="351.08" y1="384.82" x2="347.61" y2="384.82"/><line class="f" x1="347.61" y1="384.82" x2="347.61" y2="383.95"/><line class="f" x1="408.3" y1="415.16" x2="408.3" y2="387.42"/><line class="f" x1="408.3" y1="415.16" x2="436.04" y2="415.16"/><g class="h"><path class="f" d="M408.3,387.42A27.74,27.74,0,0,1,436,415.16"/></g><line class="f" x1="405.87" y1="415.16" x2="408.29" y2="415.16"/><line class="f" x1="408.3" y1="387.42" x2="405.87" y2="387.42"/><line class="f" x1="408.3" y1="387.42" x2="408.3" y2="385.69"/><line class="f" x1="405.87" y1="387.42" x2="405.87" y2="385.69"/><line class="f" x1="408.3" y1="416.9" x2="408.3" y2="415.16"/><line class="f" x1="405.87" y1="416.9" x2="405.87" y2="415.16"/><line class="f" x1="405.87" y1="415.16" x2="405.87" y2="408.23"/><line class="f" x1="405.87" y1="404.41" x2="405.87" y2="403.63"/><line class="f" x1="405.87" y1="399.82" x2="405.87" y2="399.04"/><line class="f" x1="405.87" y1="395.22" x2="405.87" y2="394.36"/><line class="f" x1="405.87" y1="394.36" x2="405.87" y2="387.42"/><line class="f" x1="408.3" y1="415.16" x2="409.16" y2="415.16"/><line class="f" x1="409.16" y1="415.16" x2="409.16" y2="418.63"/><line class="f" x1="409.16" y1="418.63" x2="408.3" y2="418.63"/><line class="f" x1="405.87" y1="415.16" x2="405" y2="415.16"/><line class="f" x1="405" y1="415.16" x2="405" y2="418.63"/><line class="f" x1="405" y1="418.63" x2="405.87" y2="418.63"/><line class="f" x1="409.16" y1="387.42" x2="409.16" y2="383.95"/><line class="f" x1="409.16" y1="383.95" x2="408.3" y2="383.95"/><line class="f" x1="405.87" y1="387.42" x2="405" y2="387.42"/><line class="f" x1="405" y1="387.42" x2="405" y2="383.95"/><line class="f" x1="405" y1="383.95" x2="405.87" y2="383.95"/><line class="f" x1="279.98" y1="435.97" x2="338.24" y2="435.97"/><line class="f" x1="461.7" y1="269.17" x2="461.7" y2="279.57"/><line class="f" x1="461.7" y1="279.57" x2="427.02" y2="279.57"/><line class="f" x1="427.02" y1="279.57" x2="427.02" y2="269.17"/><line class="f" x1="302.18" y1="262.23" x2="302.18" y2="279.57"/><line class="f" x1="302.18" y1="279.57" x2="336.86" y2="279.57"/><line class="f" x1="336.86" y1="279.57" x2="336.86" y2="269.17"/><line class="f" x1="550.13" y1="433.89" x2="550.13" y2="433.89"/><line class="f" x1="550.13" y1="431.46" x2="550.13" y2="431.46"/><line class="f" x1="408.3" y1="441.17" x2="442.97" y2="441.17"/><line class="f" x1="408.3" y1="420.37" x2="446.44" y2="420.37"/><line class="f" x1="446.44" y1="420.37" x2="446.44" y2="441.17"/><line class="f" x1="408.3" y1="385.69" x2="408.3" y2="381.53"/><line class="f" x1="408.3" y1="381.53" x2="386.45" y2="381.53"/><line class="f" x1="384.02" y1="381.53" x2="384.02" y2="269.17"/><line class="f" x1="386.45" y1="269.17" x2="386.45" y2="381.53"/><line class="f" x1="276.52" y1="420.52" x2="276.52" y2="441.17"/><line class="f" x1="279.98" y1="420.37" x2="279.98" y2="441.17"/><line class="f" x1="279.98" y1="416.9" x2="279.98" y2="420.37"/><line class="f" x1="245.65" y1="184.2" x2="245.65" y2="255.3"/><line class="f" x1="245.22" y1="255.3" x2="243.57" y2="255.3"/><line class="f" x1="245.65" y1="255.3" x2="245.22" y2="255.3"/><line class="f" x1="245.65" y1="186.29" x2="245.22" y2="186.29"/><line class="f" x1="544.93" y1="184.2" x2="544.93" y2="255.3"/><line class="f" x1="545.97" y1="255.3" x2="544.93" y2="255.3"/><line class="f" x1="547.01" y1="255.3" x2="545.97" y2="255.3"/><line class="f" x1="545.97" y1="186.29" x2="544.93" y2="186.29"/><line class="f" x1="544.93" y1="184.2" x2="545.97" y2="184.2"/><line class="f" x1="544.93" y1="253.22" x2="545.97" y2="253.22"/><line class="f" x1="245.22" y1="184.2" x2="245.65" y2="184.2"/><line class="f" x1="245.22" y1="253.22" x2="245.65" y2="253.22"/><line class="f" x1="303.57" y1="265.01" x2="300.79" y2="265.01"/><line class="f" x1="299.4" y1="262.93" x2="299.4" y2="262.23"/><line class="f" x1="299.4" y1="262.23" x2="304.95" y2="262.23"/><line class="f" x1="298.02" y1="265.7" x2="298.02" y2="262.92"/><line class="f" x1="271.66" y1="265.7" x2="271.66" y2="262.92"/><line class="f" x1="268.89" y1="265.7" x2="300.79" y2="265.7"/><line class="f" x1="306.34" y1="265.7" x2="306.34" y2="262.92"/><line class="f" x1="303.57" y1="265.7" x2="335.47" y2="265.7"/><line class="f" x1="492.22" y1="265.7" x2="492.22" y2="262.92"/><line class="f" x1="489.44" y1="265.7" x2="515.8" y2="265.7"/><line class="f" x1="490.83" y1="262.93" x2="490.83" y2="262.23"/><line class="f" x1="513.03" y1="265.7" x2="513.03" y2="262.92"/><line class="f" x1="460.31" y1="262.93" x2="428.41" y2="262.93"/><line class="f" x1="428.41" y1="265.7" x2="460.31" y2="265.7"/><line class="f" x1="457.54" y1="265.7" x2="457.54" y2="262.92"/><line class="f" x1="489.44" y1="265.01" x2="460.31" y2="265.01"/><line class="f" x1="458.93" y1="262.93" x2="458.93" y2="262.23"/><line class="f" x1="458.93" y1="262.23" x2="490.83" y2="262.23"/><line class="f" x1="408.3" y1="423.83" x2="408.3" y2="420.37"/><line class="f" x1="408.3" y1="423.83" x2="408.3" y2="420.37"/><line class="f" x1="279.12" y1="410.83" x2="279.12" y2="390.02"/><line class="f" x1="275.65" y1="386.55" x2="254.84" y2="386.55"/><line class="f" x1="251.37" y1="390.02" x2="251.37" y2="410.83"/><line class="f" x1="254.84" y1="414.3" x2="275.65" y2="414.3"/><line class="f" x1="298.71" y1="384.82" x2="298.71" y2="388.29"/><line class="f" x1="298.71" y1="388.29" x2="319.52" y2="388.29"/><line class="f" x1="319.52" y1="388.29" x2="319.52" y2="384.82"/><line class="f" x1="319.52" y1="384.82" x2="318.48" y2="384.82"/><line class="f" x1="318.48" y1="384.82" x2="318.48" y2="387.25"/><line class="f" x1="318.48" y1="387.25" x2="299.75" y2="387.25"/><line class="f" x1="299.75" y1="387.25" x2="299.75" y2="384.82"/><line class="f" x1="299.75" y1="384.82" x2="298.71" y2="384.82"/><line class="f" x1="298.71" y1="384.82" x2="298.71" y2="388.29"/><line class="f" x1="319.52" y1="384.82" x2="319.52" y2="388.29"/><line class="f" x1="299.75" y1="384.82" x2="299.75" y2="387.25"/><line class="f" x1="318.48" y1="384.82" x2="318.48" y2="387.25"/><line class="f" x1="298.71" y1="388.29" x2="319.52" y2="388.29"/><line class="f" x1="298.71" y1="387.25" x2="319.52" y2="387.25"/><line class="f" x1="298.71" y1="384.82" x2="299.75" y2="384.82"/><line class="f" x1="318.48" y1="384.82" x2="319.52" y2="384.82"/><line class="f" x1="396.86" y1="308.84" x2="396.86" y2="340.47"/><line class="f" x1="396.86" y1="340.47" x2="394.74" y2="340.47"/><line class="f" x1="394.74" y1="340.47" x2="392.61" y2="332.56"/><line class="f" x1="392.61" y1="332.56" x2="392.61" y2="316.74"/><line class="f" x1="392.61" y1="316.74" x2="394.74" y2="308.84"/><line class="f" x1="394.74" y1="308.84" x2="396.86" y2="308.84"/><line class="f" x1="396.01" y1="338.36" x2="396.01" y2="336.25"/><line class="f" x1="396.01" y1="336.25" x2="395.48" y2="336.25"/><line class="f" x1="395.48" y1="336.25" x2="395.48" y2="338.36"/><line class="f" x1="395.48" y1="338.36" x2="396.01" y2="338.36"/><line class="f" x1="396.01" y1="335.73" x2="396.01" y2="333.62"/><line class="f" x1="396.01" y1="333.62" x2="395.48" y2="333.62"/><line class="f" x1="395.48" y1="333.62" x2="395.48" y2="335.73"/><line class="f" x1="395.48" y1="335.73" x2="396.01" y2="335.73"/><line class="f" x1="396.01" y1="333.09" x2="396.01" y2="332.03"/><line class="f" x1="396.01" y1="332.03" x2="395.48" y2="332.03"/><line class="f" x1="395.48" y1="332.03" x2="395.48" y2="333.09"/><line class="f" x1="395.48" y1="333.09" x2="396.01" y2="333.09"/><line class="f" x1="394.74" y1="308.84" x2="394.74" y2="340.47"/><line class="f" x1="467.6" y1="441.17" x2="467.6" y2="420.02"/><line class="f" x1="459.64" y1="427.97" x2="454.74" y2="432.87"/><line class="f" x1="454.74" y1="427.97" x2="459.64" y2="432.87"/><line class="f" x1="457.19" y1="433.89" x2="457.19" y2="426.96"/><line class="f" x1="460.66" y1="430.42" x2="453.73" y2="430.42"/><line class="f" x1="467.6" y1="420.02" x2="446.79" y2="420.02"/><line class="f" x1="468.46" y1="421.75" x2="487.54" y2="421.75"/><line class="f" x1="487.54" y1="421.75" x2="487.54" y2="439.09"/><line class="f" x1="487.54" y1="439.09" x2="468.46" y2="439.09"/><line class="f" x1="468.46" y1="439.09" x2="468.46" y2="421.75"/><line class="f" x1="467.6" y1="420.02" x2="488.4" y2="420.02"/><line class="f" x1="470.2" y1="423.49" x2="485.8" y2="423.49"/><line class="f" x1="485.8" y1="423.49" x2="485.8" y2="435.62"/><line class="f" x1="485.8" y1="435.62" x2="470.2" y2="435.62"/><line class="f" x1="470.2" y1="435.62" x2="470.2" y2="423.49"/><line class="f" x1="488.4" y1="441.17" x2="488.4" y2="420.02"/><line class="f" x1="488.4" y1="420.02" x2="509.21" y2="420.02"/><line class="f" x1="509.21" y1="420.02" x2="509.21" y2="441.17"/><line class="f" x1="541.46" y1="406.15" x2="520.65" y2="406.15"/><line class="f" x1="520.65" y1="406.15" x2="520.65" y2="385.34"/><line class="f" x1="520.65" y1="385.34" x2="541.46" y2="385.34"/><line class="f" x1="519.71" y1="388.18" x2="519.71" y2="403.31"/><line class="f" x1="280.85" y1="416.03" x2="280.85" y2="384.82"/><line class="f" x1="280.85" y1="384.82" x2="249.64" y2="384.82"/><line class="f" x1="249.64" y1="384.82" x2="249.64" y2="416.03"/><line class="f" x1="249.64" y1="416.03" x2="280.85" y2="416.03"/><line class="f" x1="485.81" y1="338.52" x2="503.15" y2="338.52"/><line class="f" x1="503.15" y1="338.52" x2="503.15" y2="310.78"/><line class="f" x1="503.15" y1="310.78" x2="485.81" y2="310.78"/><line class="f" x1="485.81" y1="310.78" x2="485.81" y2="338.53"/><line class="f" x1="541.81" y1="364.53" x2="541.81" y2="385.34"/><line class="f" x1="541.81" y1="385.34" x2="520.65" y2="385.34"/><line class="f" x1="520.65" y1="385.34" x2="520.65" y2="364.53"/><line class="f" x1="520.65" y1="364.53" x2="541.81" y2="364.53"/><line class="f" x1="267.5" y1="270.9" x2="295.24" y2="270.9"/><line class="f" x1="295.24" y1="270.9" x2="295.24" y2="273.09"/><line class="f" x1="295.24" y1="273.09" x2="267.5" y2="273.09"/><line class="f" x1="267.5" y1="273.09" x2="267.5" y2="270.9"/><line class="f" x1="511.98" y1="270.9" x2="463.43" y2="270.9"/><line class="f" x1="463.43" y1="270.9" x2="463.43" y2="274.37"/><line class="f" x1="463.43" y1="274.37" x2="511.98" y2="274.37"/><line class="f" x1="511.98" y1="274.37" x2="511.98" y2="270.9"/><g class="h"><path class="f" d="M255.71,410.83a.87.87,0,1,0-.87.87.87.87,0,0,0,.87-.87"/><path class="f" d="M279.12,410.83a3.48,3.48,0,0,1-3.47,3.47"/><path class="f" d="M275.65,386.55a3.48,3.48,0,0,1,3.47,3.47"/><path class="f" d="M254.84,414.3a3.48,3.48,0,0,1-3.47-3.47"/><path class="f" d="M251.37,390a3.48,3.48,0,0,1,3.47-3.47"/><path class="f" d="M393,318.33A6.33,6.33,0,0,1,393,331"/><path class="f" d="M393,331a12.62,12.62,0,0,1,0-12.65"/><path class="f" d="M537.13,374.94a6.07,6.07,0,1,0-6.07,6.07,6.07,6.07,0,0,0,6.07-6.07"/><path class="f" d="M536.09,374.94a5,5,0,1,0-5,5,5,5,0,0,0,5-5"/><path class="f" d="M478.69,432.16a.69.69,0,1,0-.69.69.69.69,0,0,0,.69-.69"/><path class="f" d="M539.57,400.85a3.41,3.41,0,1,0-3.4,3.41,3.4,3.4,0,0,0,3.4-3.41"/><path class="f" d="M529.36,400.85a3.41,3.41,0,1,0-3.41,3.41,3.41,3.41,0,0,0,3.41-3.41"/><path class="f" d="M529.36,390.64A3.41,3.41,0,1,0,526,394a3.41,3.41,0,0,0,3.41-3.4"/><path class="f" d="M300.44,272a1.73,1.73,0,1,0-1.73,1.74,1.73,1.73,0,0,0,1.73-1.74"/><path class="f" d="M517.19,272.64a1.74,1.74,0,1,0-1.74,1.73,1.74,1.74,0,0,0,1.74-1.73"/></g><line class="f" x1="442.97" y1="441.17" x2="408.3" y2="441.17"/><line class="f" x1="408.3" y1="441.17" x2="408.3" y2="423.83"/><line class="f" x1="408.3" y1="423.83" x2="411.76" y2="437.71"/><line class="f" x1="411.76" y1="437.7" x2="442.97" y2="441.17"/><line class="f" x1="248.77" y1="420.37" x2="248.77" y2="441.17"/><line class="f" x1="248.77" y1="441.17" x2="276.52" y2="441.17"/><line class="f" x1="276.52" y1="441.17" x2="252.24" y2="437.71"/><line class="f" x1="252.24" y1="437.7" x2="248.77" y2="420.37"/><rect class="d" x="485.81" y="310.78" width="17.34" height="27.74"/><line class="f" x1="485.81" y1="310.78" x2="485.81" y2="338.53"/><line class="f" x1="503.15" y1="310.78" x2="485.81" y2="310.78"/><line class="f" x1="503.15" y1="338.52" x2="503.15" y2="310.78"/><line class="f" x1="485.81" y1="338.52" x2="503.15" y2="338.52"/><rect class="d" x="386.45" y="269.17" width="15.95" height="112.36"/><line class="f" x1="386.45" y1="269.17" x2="386.45" y2="381.53"/><line class="f" x1="402.4" y1="269.17" x2="386.45" y2="269.17"/><line class="f" x1="402.4" y1="381.53" x2="402.4" y2="269.17"/><line class="f" x1="386.45" y1="381.53" x2="402.4" y2="381.53"/><line class="f" x1="550.13" y1="415.51" x2="550.13" y2="431.46"/><line class="f" x1="550.13" y1="415.51" x2="550.13" y2="415.51"/><line class="f" x1="550.13" y1="431.46" x2="550.13" y2="431.46"/><rect class="d" x="298.71" y="384.82" width="1.04" height="2.43"/><line class="f" x1="298.71" y1="384.82" x2="298.71" y2="387.25"/><line class="f" x1="299.75" y1="384.82" x2="298.71" y2="384.82"/><line class="f" x1="299.75" y1="387.25" x2="299.75" y2="384.82"/><line class="f" x1="298.71" y1="387.25" x2="299.75" y2="387.25"/><rect class="d" x="298.71" y="387.25" width="20.81" height="1.04"/><line class="f" x1="298.71" y1="388.29" x2="319.52" y2="388.29"/><line class="f" x1="298.71" y1="387.25" x2="298.71" y2="388.29"/><line class="f" x1="319.52" y1="387.25" x2="298.71" y2="387.25"/><line class="f" x1="319.52" y1="388.29" x2="319.52" y2="387.25"/><rect class="d" x="318.48" y="384.82" width="1.04" height="2.43"/><line class="f" x1="318.48" y1="384.82" x2="318.48" y2="387.25"/><line class="f" x1="319.52" y1="384.82" x2="318.48" y2="384.82"/><line class="f" x1="319.52" y1="387.25" x2="319.52" y2="384.82"/><line class="f" x1="318.48" y1="387.25" x2="319.52" y2="387.25"/><rect class="d" x="279.98" y="435.97" width="58.26" height="5.2"/><line class="f" x1="279.98" y1="435.97" x2="279.98" y2="441.17"/><line class="f" x1="338.24" y1="435.97" x2="279.98" y2="435.97"/><line class="f" x1="338.24" y1="441.17" x2="338.24" y2="435.97"/><line class="f" x1="279.98" y1="441.17" x2="338.24" y2="441.17"/><rect class="d" x="544.58" y="182.47" width="1.39" height="71.09"/><line class="f" x1="544.58" y1="182.47" x2="544.58" y2="253.56"/><line class="f" x1="545.97" y1="182.47" x2="544.58" y2="182.47"/><line class="f" x1="544.58" y1="253.56" x2="545.97" y2="253.56"/><rect class="d" x="463.43" y="270.9" width="48.55" height="3.47"/><line class="f" x1="463.43" y1="274.37" x2="511.98" y2="274.37"/><line class="f" x1="463.43" y1="270.9" x2="463.43" y2="274.37"/><line class="f" x1="511.98" y1="270.9" x2="463.43" y2="270.9"/><line class="f" x1="511.98" y1="274.37" x2="511.98" y2="270.9"/><polygon class="g" points="517.19 272.63 516.68 273.86 515.45 274.37 514.22 273.86 513.72 272.63 514.22 271.41 515.45 270.9 516.68 271.41 517.19 272.63"/><g class="h"><path class="f" d="M517.19,272.64a1.74,1.74,0,0,1-3.47,0"/><path class="f" d="M513.72,272.64a1.74,1.74,0,1,1,3.47,0"/></g><rect class="d" x="267.5" y="270.9" width="27.74" height="2.18"/><line class="f" x1="295.24" y1="270.9" x2="267.5" y2="270.9"/><line class="f" x1="295.24" y1="273.09" x2="295.24" y2="270.9"/><line class="f" x1="267.5" y1="273.09" x2="295.24" y2="273.09"/><line class="f" x1="267.5" y1="270.9" x2="267.5" y2="273.09"/><polygon class="g" points="300.44 271.99 299.94 273.22 298.71 273.73 297.49 273.22 296.98 271.99 297.49 270.77 298.71 270.26 299.94 270.77 300.44 271.99"/><g class="h"><path class="f" d="M300.44,272a1.73,1.73,0,1,1-3.46,0"/><path class="f" d="M297,272a1.73,1.73,0,0,1,3.46,0"/></g><polygon class="g" points="248.77 296.91 248.77 359.33 259.18 359.33 311.19 359.33 313.85 358.81 316.1 357.3 317.6 355.05 318.13 352.39 318.13 303.85 317.6 301.19 316.1 298.94 313.85 297.44 311.19 296.91 248.77 296.91"/><rect class="d" x="248.77" y="284.77" width="10.4" height="12.14"/><rect class="d" x="248.77" y="359.33" width="10.4" height="12.14"/><line class="f" x1="260.3" y1="330.08" x2="257.3" y2="330.92"/><line class="f" x1="260.3" y1="300.97" x2="257.3" y2="301.8"/><line class="f" x1="318.13" y1="352.4" x2="318.13" y2="303.85"/><line class="f" x1="311.19" y1="296.91" x2="248.77" y2="296.91"/><line class="f" x1="248.77" y1="296.91" x2="248.77" y2="359.33"/><line class="f" x1="248.77" y1="359.33" x2="311.19" y2="359.33"/><line class="f" x1="248.77" y1="296.91" x2="248.77" y2="284.77"/><line class="f" x1="248.77" y1="284.77" x2="259.18" y2="284.77"/><line class="f" x1="259.18" y1="284.77" x2="259.18" y2="296.91"/><line class="f" x1="259.18" y1="296.91" x2="248.77" y2="296.91"/><line class="f" x1="248.77" y1="371.47" x2="248.77" y2="359.33"/><line class="f" x1="248.77" y1="359.33" x2="259.18" y2="359.33"/><line class="f" x1="259.18" y1="359.33" x2="259.18" y2="371.47"/><line class="f" x1="259.18" y1="371.47" x2="248.77" y2="371.47"/><line class="f" x1="271.85" y1="296.91" x2="271.85" y2="359.33"/><line class="f" x1="277.05" y1="296.91" x2="277.05" y2="359.33"/><g class="h"><path class="f" d="M266.59,325.49a97.22,97.22,0,0,1-.34-22.6"/><path class="f" d="M264.34,300.64h.09a1.86,1.86,0,0,1,1.86,1.86,1.81,1.81,0,0,1,0,.4"/><path class="f" d="M260.3,301a14.58,14.58,0,0,1,3.22-.36c.27,0,.55,0,.82,0"/><path class="f" d="M252.56,300.77c.84,0,1.67-.06,2.51-.06,1.75,0,3.49.09,5.23.26"/><path class="f" d="M252.06,301.23a.25.25,0,0,1,0-.08.4.4,0,0,1,.39-.4l.12,0"/><path class="f" d="M252.06,301.23c.38,5,.57,9.94.57,14.91q0,4.71-.23,9.42"/><path class="f" d="M253.65,326.68a1,1,0,0,1-.3.05,1,1,0,0,1-1-1,1.49,1.49,0,0,1,0-.21"/><path class="f" d="M253.65,326.68a46.67,46.67,0,0,1,12-.18"/><path class="f" d="M266.59,325.49a.67.67,0,0,1,0,.24.8.8,0,0,1-.8.8.78.78,0,0,1-.22,0"/><path class="f" d="M311.19,296.91a6.94,6.94,0,0,1,6.94,6.94"/><path class="f" d="M318.13,352.4a6.93,6.93,0,0,1-6.93,6.93"/><path class="f" d="M266.59,354.61a97.22,97.22,0,0,1-.34-22.6"/><path class="f" d="M264.34,329.75h.09a1.86,1.86,0,0,1,1.86,1.86,1.81,1.81,0,0,1,0,.4"/><path class="f" d="M260.3,330.08a15.19,15.19,0,0,1,3.22-.35l.82,0"/><path class="f" d="M252.56,329.89c.84,0,1.67-.06,2.51-.06,1.75,0,3.49.08,5.23.25"/><path class="f" d="M252.06,330.35a.28.28,0,0,1,0-.09.4.4,0,0,1,.39-.39l.12,0"/><path class="f" d="M252.06,330.35c.38,5,.57,9.94.57,14.91q0,4.71-.23,9.42"/><path class="f" d="M253.65,355.8a1,1,0,0,1-.3.05,1,1,0,0,1-1-1,1.49,1.49,0,0,1,0-.21"/><path class="f" d="M253.65,355.8a46.67,46.67,0,0,1,12-.18"/><path class="f" d="M266.59,354.61a.67.67,0,0,1,0,.24.8.8,0,0,1-.8.8.78.78,0,0,1-.22,0"/></g><polygon class="g" points="395.61 328.94 397 327.23 397.75 325.08 397.75 322.79 397 320.64 395.61 318.93 395.61 308.12 393.69 308.12 391.76 316.03 391.76 318.33 390.71 322.01 390.71 325.86 391.76 329.54 391.76 331.84 393.69 339.75 395.61 339.75 395.61 328.94"/><line class="f" x1="395.61" y1="339.75" x2="395.61" y2="328.94"/><line class="f" x1="393.69" y1="339.75" x2="395.61" y2="339.75"/><line class="f" x1="391.76" y1="331.84" x2="393.69" y2="339.75"/><line class="f" x1="391.76" y1="329.54" x2="391.76" y2="331.84"/><line class="f" x1="390.71" y1="325.86" x2="391.76" y2="329.54"/><line class="f" x1="390.71" y1="322.01" x2="390.71" y2="325.86"/><line class="f" x1="391.76" y1="318.33" x2="390.71" y2="322.01"/><line class="f" x1="391.76" y1="316.03" x2="391.76" y2="318.33"/><line class="f" x1="393.69" y1="308.12" x2="391.76" y2="316.03"/><line class="f" x1="395.61" y1="308.12" x2="393.69" y2="308.12"/><line class="f" x1="395.61" y1="318.93" x2="395.61" y2="308.12"/><line class="f" x1="397" y1="320.64" x2="395.61" y2="318.93"/><line class="f" x1="397.75" y1="322.79" x2="397" y2="320.64"/><line class="f" x1="397.75" y1="325.08" x2="397.75" y2="322.79"/><line class="f" x1="397" y1="327.23" x2="397.75" y2="325.08"/><line class="f" x1="395.61" y1="328.94" x2="397" y2="327.23"/><line class="f" x1="395.61" y1="339.75" x2="395.61" y2="308.12"/><line class="f" x1="391.76" y1="316.03" x2="391.76" y2="331.84"/><line class="f" x1="393.69" y1="339.75" x2="395.61" y2="339.75"/><line class="f" x1="394.84" y1="310.23" x2="394.84" y2="312.34"/><line class="f" x1="394.84" y1="312.34" x2="394.37" y2="312.34"/><line class="f" x1="394.36" y1="312.34" x2="394.36" y2="310.23"/><line class="f" x1="394.36" y1="310.23" x2="394.84" y2="310.23"/><line class="f" x1="394.84" y1="312.87" x2="394.84" y2="314.97"/><line class="f" x1="394.84" y1="314.97" x2="394.37" y2="314.97"/><line class="f" x1="394.36" y1="314.97" x2="394.36" y2="312.87"/><line class="f" x1="394.36" y1="312.87" x2="394.84" y2="312.87"/><line class="f" x1="393.69" y1="339.75" x2="393.69" y2="308.12"/><line class="f" x1="394.36" y1="315.5" x2="394.84" y2="315.5"/><line class="f" x1="394.84" y1="315.5" x2="394.84" y2="316.56"/><line class="f" x1="394.84" y1="316.56" x2="394.37" y2="316.56"/><line class="f" x1="394.36" y1="316.56" x2="394.36" y2="315.5"/><g class="h"><path class="f" d="M395.61,318.93a6.73,6.73,0,0,1,0,10"/></g><polygon class="g" points="510.94 304.75 510.44 305.13 510.25 305.73 510.25 343.53 510.44 344.15 510.94 344.57 510.45 344.77 510.25 345.26 510.25 346.3 510.72 348.04 511.99 349.31 513.72 349.77 539.03 349.77 539.52 349.57 539.73 349.08 539.73 277.64 539.52 277.15 539.03 276.94 510.94 276.94 510.49 277.1 510.22 277.5 510.25 277.98 510.25 303.65 510.31 304.38 510.94 304.75"/><polygon class="g" points="487.71 304.69 485.06 304.16 482.81 302.65 481.3 300.4 480.77 297.75 480.77 283.88 481.3 281.23 482.81 278.98 485.06 277.47 487.71 276.94 509.21 276.94 509.94 277.25 510.25 277.98 510.25 303.65 509.94 304.38 509.21 304.69 487.71 304.69"/><g class="h"><path class="f" d="M487.71,304.69a6.94,6.94,0,0,1-6.94-6.94"/></g><line class="f" x1="480.77" y1="297.75" x2="480.77" y2="283.88"/><g class="h"><path class="f" d="M480.77,283.88a6.94,6.94,0,0,1,6.94-6.94"/></g><line class="f" x1="487.71" y1="276.94" x2="509.21" y2="276.94"/><g class="h"><path class="f" d="M509.21,276.94a1,1,0,0,1,1,1"/></g><line class="f" x1="510.25" y1="277.98" x2="510.25" y2="303.65"/><g class="h"><path class="f" d="M510.25,303.65a1,1,0,0,1-1,1"/></g><line class="f" x1="509.21" y1="304.69" x2="487.71" y2="304.69"/><line class="f" x1="510.25" y1="345.26" x2="510.25" y2="346.3"/><line class="f" x1="513.72" y1="349.77" x2="539.03" y2="349.77"/><line class="f" x1="539.73" y1="349.08" x2="539.73" y2="345.26"/><line class="f" x1="539.03" y1="344.57" x2="510.94" y2="344.57"/><line class="f" x1="539.73" y1="345.26" x2="539.73" y2="304.69"/><line class="f" x1="539.73" y1="304.69" x2="537.3" y2="304.69"/><line class="f" x1="510.25" y1="305.73" x2="510.25" y2="343.53"/><line class="f" x1="511.29" y1="344.57" x2="528.68" y2="344.57"/><line class="f" x1="528.68" y1="304.69" x2="511.29" y2="304.69"/><line class="f" x1="537.3" y1="344.57" x2="530.76" y2="344.57"/><line class="f" x1="530.76" y1="304.69" x2="537.3" y2="304.69"/><line class="f" x1="510.25" y1="281.45" x2="510.25" y2="277.64"/><line class="f" x1="510.94" y1="276.94" x2="539.03" y2="276.94"/><line class="f" x1="539.73" y1="277.64" x2="539.73" y2="281.45"/><line class="f" x1="539.73" y1="281.45" x2="539.73" y2="304.69"/><line class="f" x1="539.73" y1="304.69" x2="537.3" y2="304.69"/><line class="f" x1="510.25" y1="303.65" x2="510.25" y2="283.19"/><line class="f" x1="528.68" y1="304.69" x2="511.29" y2="304.69"/><line class="f" x1="528.68" y1="304.69" x2="537.3" y2="304.69"/><line class="f" x1="480.77" y1="297.75" x2="480.77" y2="283.88"/><line class="f" x1="487.71" y1="276.94" x2="509.21" y2="276.94"/><line class="f" x1="510.25" y1="277.98" x2="510.25" y2="303.65"/><line class="f" x1="509.21" y1="304.69" x2="487.71" y2="304.69"/><line class="f" x1="538.34" y1="303.65" x2="538.34" y2="277.98"/><line class="f" x1="538.34" y1="305.73" x2="538.34" y2="343.53"/><g class="h"><path class="f" d="M539.73,349.08a.69.69,0,0,1-.7.69"/><path class="f" d="M539,344.57a.69.69,0,0,1,.7.69"/><path class="f" d="M510.25,345.26a.69.69,0,0,1,.69-.69"/><path class="f" d="M511.29,344.57a1,1,0,0,1-1-1"/><path class="f" d="M510.25,305.73a1,1,0,0,1,1-1"/><path class="f" d="M510.25,277.64a.69.69,0,0,1,.69-.7"/><path class="f" d="M539,276.94a.7.7,0,0,1,.7.7"/><path class="f" d="M511.29,304.69a1,1,0,0,1-1-1"/><path class="f" d="M509.21,276.94a1,1,0,0,1,1,1"/><path class="f" d="M510.25,303.65a1,1,0,0,1-1,1"/></g><line class="f" x1="538.34" y1="277.98" x2="514.72" y2="277.98"/><g class="h"><path class="f" d="M519.49,279.24a19.65,19.65,0,0,1,14.81,24.45"/><path class="f" d="M533.49,343.53a118.26,118.26,0,0,1,0-37.8"/><path class="f" d="M487.71,304.69a6.94,6.94,0,0,1-6.94-6.94"/><path class="f" d="M480.77,283.88a6.94,6.94,0,0,1,6.94-6.94"/><path class="f" d="M513.72,349.77a3.47,3.47,0,0,1-3.47-3.47"/></g><polygon class="g" points="465.18 366.34 468.51 364.93 472.1 364.43 475.69 364.88 479.04 366.24 479.01 358.48 478.53 356.74 477.26 355.48 475.52 355.03 468.59 355.08 466.86 355.56 465.6 356.84 465.14 358.58 465.18 366.34"/><polygon class="g" points="465.28 390.4 462.4 388.21 460.18 385.35 458.78 382.01 458.3 378.42 451.6 382.35 450.34 383.63 449.88 385.37 450.36 387.11 453.85 393.09 455.12 394.35 456.85 394.81 458.58 394.33 465.28 390.4"/><polygon class="g" points="486.02 378.22 485.57 381.81 484.2 385.18 482 388.07 479.14 390.3 485.87 394.13 487.61 394.58 489.34 394.1 490.6 392.82 494.04 386.78 494.5 385.04 494.02 383.31 492.75 382.05 486.02 378.22"/><polygon class="g" points="479.04 366.24 475.69 364.88 472.1 364.43 468.51 364.93 465.18 366.34 462.31 368.57 460.12 371.46 458.75 374.82 458.3 378.42 458.78 382.01 460.18 385.35 462.4 388.21 465.28 390.4 468.63 391.76 472.22 392.21 475.8 391.71 479.14 390.3 482 388.06 484.2 385.18 485.57 381.81 486.02 378.22 485.54 374.62 484.13 371.28 481.92 368.42 479.04 366.24"/><line class="f" x1="481.92" y1="368.42" x2="479.04" y2="366.24"/><line class="f" x1="484.13" y1="371.28" x2="481.92" y2="368.42"/><line class="f" x1="485.54" y1="374.63" x2="484.13" y2="371.29"/><line class="f" x1="486.02" y1="378.22" x2="485.54" y2="374.62"/><line class="f" x1="485.57" y1="381.81" x2="486.03" y2="378.22"/><line class="f" x1="484.2" y1="385.17" x2="485.57" y2="381.81"/><line class="f" x1="482" y1="388.07" x2="484.2" y2="385.17"/><line class="f" x1="479.14" y1="390.3" x2="482" y2="388.07"/><line class="f" x1="475.8" y1="391.71" x2="479.14" y2="390.3"/><line class="f" x1="472.22" y1="392.21" x2="475.8" y2="391.71"/><line class="f" x1="468.63" y1="391.76" x2="472.22" y2="392.21"/><line class="f" x1="465.28" y1="390.4" x2="468.63" y2="391.76"/><line class="f" x1="462.4" y1="388.21" x2="465.28" y2="390.4"/><line class="f" x1="460.18" y1="385.35" x2="462.4" y2="388.21"/><line class="f" x1="458.78" y1="382.01" x2="460.18" y2="385.35"/><line class="f" x1="458.3" y1="378.42" x2="458.78" y2="382.01"/><line class="f" x1="458.75" y1="374.82" x2="458.29" y2="378.42"/><line class="f" x1="460.12" y1="371.46" x2="458.75" y2="374.82"/><line class="f" x1="462.31" y1="368.57" x2="460.12" y2="371.46"/><line class="f" x1="465.18" y1="366.34" x2="462.31" y2="368.57"/><line class="f" x1="468.51" y1="364.93" x2="465.18" y2="366.34"/><line class="f" x1="472.1" y1="364.43" x2="468.51" y2="364.93"/><line class="f" x1="475.69" y1="364.88" x2="472.1" y2="364.43"/><line class="f" x1="479.04" y1="366.24" x2="475.69" y2="364.88"/><g class="h"><path class="f" d="M484.2,385.17a13.85,13.85,0,1,1-24.07-13.71"/><path class="f" d="M460.13,371.46a13.85,13.85,0,1,1,24.07,13.71"/></g><line class="f" x1="468.6" y1="356.82" x2="475.53" y2="356.77"/><line class="f" x1="479.01" y1="358.47" x2="479.04" y2="366.24"/><line class="f" x1="468.59" y1="355.08" x2="475.52" y2="355.03"/><line class="f" x1="465.18" y1="366.34" x2="465.14" y2="358.58"/><line class="f" x1="455.34" y1="392.21" x2="451.85" y2="386.22"/><line class="f" x1="451.6" y1="382.35" x2="458.3" y2="378.42"/><line class="f" x1="453.85" y1="393.09" x2="450.35" y2="387.1"/><line class="f" x1="465.28" y1="390.4" x2="458.58" y2="394.33"/><line class="f" x1="492.54" y1="385.93" x2="489.1" y2="391.96"/><line class="f" x1="485.87" y1="394.13" x2="479.14" y2="390.3"/><line class="f" x1="494.04" y1="386.78" x2="490.6" y2="392.82"/><line class="f" x1="486.02" y1="378.22" x2="492.75" y2="382.05"/><g class="h"><path class="f" d="M475.54,356.77a1.62,1.62,0,0,1,.86.22,1.76,1.76,0,0,1,.88,1.5"/><path class="f" d="M466.87,358.56a1.75,1.75,0,0,1,1.73-1.74"/><path class="f" d="M475.53,355a3.46,3.46,0,0,1,3.48,3.45"/><path class="f" d="M465.14,358.58a3.54,3.54,0,0,1,.46-1.74,3.46,3.46,0,0,1,3-1.76"/><path class="f" d="M451.85,386.22a1.75,1.75,0,0,1,0-1.73,1.68,1.68,0,0,1,.63-.64"/><path class="f" d="M457.71,392.83a1.7,1.7,0,0,1-1.73,0,1.76,1.76,0,0,1-.64-.63"/><path class="f" d="M450.35,387.1a3.47,3.47,0,0,1,0-3.47,3.51,3.51,0,0,1,1.26-1.28"/><path class="f" d="M458.59,394.33a3.48,3.48,0,0,1-4.75-1.24"/><path class="f" d="M489.1,392a1.74,1.74,0,0,1-2.37.66"/><path class="f" d="M491.89,383.56a1.73,1.73,0,0,1,.64,2.37"/><path class="f" d="M490.6,392.82h0a3.47,3.47,0,0,1-4.73,1.31"/><path class="f" d="M492.75,382.05h0a3.46,3.46,0,0,1,1.29,4.73"/></g><polygon class="g" points="328.88 435.97 310.85 435.97 310.48 435.82 310.33 435.45 310.33 421.23 310.48 420.87 310.85 420.71 328.88 420.71 329.25 420.87 329.4 421.23 329.4 435.45 329.25 435.82 328.88 435.97"/><line class="f" x1="328.88" y1="435.97" x2="310.85" y2="435.97"/><g class="h"><path class="f" d="M310.85,436a.52.52,0,0,1-.52-.52"/></g><line class="f" x1="310.33" y1="435.45" x2="310.33" y2="421.23"/><g class="h"><path class="f" d="M310.33,421.23a.52.52,0,0,1,.52-.52"/></g><line class="f" x1="310.85" y1="420.71" x2="328.88" y2="420.71"/><g class="h"><path class="f" d="M328.88,420.71a.52.52,0,0,1,.52.52"/></g><line class="f" x1="329.4" y1="421.23" x2="329.4" y2="435.45"/><g class="h"><path class="f" d="M329.4,435.45a.52.52,0,0,1-.52.52"/></g><line class="f" x1="327.84" y1="432.16" x2="311.89" y2="432.16"/><line class="f" x1="311.37" y1="431.64" x2="311.37" y2="422.27"/><line class="f" x1="311.89" y1="421.75" x2="327.84" y2="421.75"/><line class="f" x1="328.36" y1="422.27" x2="328.36" y2="431.64"/><g class="h"><path class="f" d="M311.89,432.16a.52.52,0,0,1-.52-.52"/><path class="f" d="M311.37,422.27a.52.52,0,0,1,.52-.52"/><path class="f" d="M327.84,421.75a.52.52,0,0,1,.52.52"/><path class="f" d="M328.36,431.64a.52.52,0,0,1-.52.52"/></g><polygon class="g" points="320.73 433.89 320.59 432.44 320.48 432.11 320.25 430.27 320.12 430.03 319.87 429.93 319.61 430.03 319.48 430.27 319.25 432.11 319.14 432.44 319 433.89 319.25 434.5 319.87 434.76 320.48 434.5 320.73 433.89"/><g class="h"><path class="f" d="M320.73,433.89a.87.87,0,1,1-1.73,0"/></g><line class="f" x1="319.14" y1="432.44" x2="319" y2="433.89"/><g class="h"><path class="f" d="M319.14,432.44a.76.76,0,0,1,.11-.33"/></g><line class="f" x1="319.48" y1="430.27" x2="319.25" y2="432.11"/><g class="h"><path class="f" d="M319.48,430.27a.39.39,0,0,1,.77,0"/></g><line class="f" x1="320.48" y1="432.11" x2="320.25" y2="430.27"/><g class="h"><path class="f" d="M320.48,432.11a.76.76,0,0,1,.11.33"/></g><line class="f" x1="320.73" y1="433.89" x2="320.59" y2="432.44"/><line class="f" x1="319.39" y1="433.03" x2="319.39" y2="432.51"/><line class="f" x1="320.34" y1="432.51" x2="320.34" y2="433.03"/><line class="f" x1="320.34" y1="433.03" x2="319.39" y2="433.03"/><g class="h"><path class="f" d="M319.39,432.51a.48.48,0,0,1,.95,0"/><path class="f" d="M319.25,432.11a.73.73,0,0,1,.61-.34.75.75,0,0,1,.62.34"/></g><polygon class="g" points="302 435.97 302 424.53 301.74 422.81 300.96 421.26 299.75 420.02 297.78 418.99 295.59 418.63 293.4 418.99 291.43 420.02 290.22 421.26 289.44 422.81 289.17 424.53 289.17 435.97 302 435.97"/><line class="f" x1="289.17" y1="435.97" x2="289.17" y2="424.53"/><line class="f" x1="289.17" y1="435.97" x2="302.01" y2="435.97"/><line class="f" x1="302.01" y1="435.97" x2="302.01" y2="424.53"/><line class="f" x1="291.26" y1="431.81" x2="291.26" y2="424.53"/><line class="f" x1="299.92" y1="431.81" x2="299.92" y2="424.53"/><line class="f" x1="299.92" y1="431.81" x2="291.26" y2="431.81"/><g class="h"><path class="f" d="M289.17,424.53a5.64,5.64,0,0,1,2.26-4.51"/><path class="f" d="M299.75,420a5.62,5.62,0,0,1,2.25,4.51"/><path class="f" d="M291.43,420a6.92,6.92,0,0,1,8.32,0"/><path class="f" d="M299.75,420a5.62,5.62,0,0,1,2.25,4.51"/><path class="f" d="M295.59,418.63a6.94,6.94,0,0,1,4.16,1.39"/><path class="f" d="M298.5,421.68a3.56,3.56,0,0,1,1.42,2.85"/><path class="f" d="M292.68,421.68a4.85,4.85,0,0,1,5.82,0"/><path class="f" d="M291.26,424.53a3.56,3.56,0,0,1,1.42-2.85"/></g><line class="f" x1="550.13" y1="433.89" x2="550.13" y2="433.89"/><line class="f" x1="550.13" y1="433.89" x2="550.13" y2="449.5"/><rect class="d" x="363.21" y="307.31" width="20.81" height="41.62"/><line class="f" x1="384.02" y1="348.93" x2="384.02" y2="307.31"/><line class="f" x1="384.02" y1="307.31" x2="363.21" y2="307.31"/><line class="f" x1="363.21" y1="307.31" x2="363.21" y2="348.93"/><line class="f" x1="363.21" y1="348.93" x2="384.02" y2="348.93"/><line class="f" x1="373.62" y1="346.85" x2="373.62" y2="309.39"/><line class="f" x1="379.74" y1="344.92" x2="367.27" y2="341.4"/><line class="f" x1="380.36" y1="340.95" x2="368.76" y2="339.5"/><line class="f" x1="366.12" y1="335.53" x2="378.84" y2="334.33"/><line class="f" x1="367.78" y1="329.39" x2="378.84" y2="331.02"/><line class="f" x1="367.15" y1="327.16" x2="380.77" y2="327.16"/><line class="f" x1="367.09" y1="320.83" x2="380.55" y2="322.33"/><line class="f" x1="367.32" y1="318.46" x2="379.61" y2="318.46"/><line class="f" x1="367.19" y1="312.22" x2="379.8" y2="311.02"/><line class="f" x1="368.05" y1="313.72" x2="378.71" y2="314.94"/><rect class="d" x="363.21" y="269.17" width="20.81" height="38.15"/><line class="f" x1="384.02" y1="307.31" x2="384.02" y2="269.17"/><line class="f" x1="384.02" y1="269.17" x2="363.21" y2="269.17"/><line class="f" x1="363.21" y1="269.17" x2="363.21" y2="307.31"/><line class="f" x1="363.21" y1="307.31" x2="384.02" y2="307.31"/><line class="f" x1="373.62" y1="305.41" x2="373.62" y2="271.07"/><line class="f" x1="379.74" y1="303.64" x2="367.27" y2="300.41"/><line class="f" x1="380.36" y1="300" x2="368.76" y2="298.67"/><line class="f" x1="366.12" y1="295.03" x2="378.84" y2="293.94"/><line class="f" x1="367.78" y1="289.4" x2="378.84" y2="290.89"/><line class="f" x1="367.15" y1="287.36" x2="380.77" y2="287.36"/><line class="f" x1="367.09" y1="281.56" x2="380.55" y2="282.93"/><line class="f" x1="367.32" y1="279.39" x2="379.61" y2="279.39"/><line class="f" x1="367.19" y1="273.66" x2="379.8" y2="272.57"/><line class="f" x1="368.05" y1="275.04" x2="378.71" y2="276.16"/><line class="f" x1="496.44" y1="432.95" x2="496.44" y2="427.14"/><line class="f" x1="496.44" y1="427.14" x2="498.81" y2="429.04"/><line class="f" x1="498.81" y1="429.04" x2="501.17" y2="427.14"/><line class="f" x1="501.17" y1="427.14" x2="501.17" y2="432.95"/><polygon class="i" points="378.82 441.17 541.81 441.17 541.81 269.17 550.13 269.17 550.13 449.5 541.81 449.5 378.82 449.5 378.82 441.17"/><polygon class="i" points="240.45 441.17 240.45 269.17 248.77 269.17 248.77 441.17 340.67 441.17 340.67 449.5 240.45 449.5 240.45 441.17"/><rect x="240.45" y="262.23" width="27.05" height="6.93"/><rect x="336.86" y="262.23" width="90.16" height="6.93"/><rect x="517.19" y="262.23" width="32.95" height="6.93"/><polygon class="i" points="240.45 255.3 245.22 255.3 269.23 255.3 269.23 262.23 240.45 262.23 240.45 255.3"/><rect x="335.12" y="255.3" width="93.63" height="6.93"/><polygon class="i" points="550.13 262.23 515.45 262.23 515.45 255.3 545.97 255.3 550.13 255.3 550.13 262.23"/><rect x="377.09" y="445.51" width="1.73" height="3.99"/><rect x="340.67" y="445.51" width="1.73" height="3.99"/><rect x="338.25" y="413.43" width="2.43" height="27.74"/><polygon class="i" points="349.34 381.53 349.34 383.95 340.67 383.95 340.67 385.69 338.25 385.69 338.25 383.95 248.77 383.95 248.77 381.53 349.34 381.53"/><polygon class="i" points="386.45 269.17 386.45 381.52 408.3 381.52 408.3 385.69 405.87 385.69 405.87 383.95 380.55 383.95 380.55 381.52 384.02 381.52 384.02 269.17 386.45 269.17"/><rect x="276.52" y="420.37" width="3.47" height="20.81"/><rect x="248.77" y="416.9" width="31.21" height="3.47"/><rect x="245.22" y="184.2" width="0.78" height="71.09"/><rect x="544.58" y="182.47" width="1.39" height="72.83"/><rect x="405.87" y="416.9" width="2.43" height="24.28"/><polygon class="i" points="408.3 420.37 446.44 420.37 446.44 441.17 442.97 441.17 442.97 423.83 408.3 423.83 408.3 420.37"/><line class="f" x1="240.45" y1="449.5" x2="550.13" y2="449.5"/><line class="f" x1="550.13" y1="449.5" x2="550.13" y2="255.3"/><line class="f" x1="550.13" y1="255.3" x2="545.97" y2="255.3"/><line class="f" x1="545.97" y1="255.3" x2="545.97" y2="168.63"/><line class="f" x1="545.97" y1="168.63" x2="245.22" y2="168.63"/><line class="f" x1="245.22" y1="168.63" x2="245.22" y2="255.3"/><line class="f" x1="245.22" y1="255.3" x2="240.45" y2="255.3"/><line class="f" x1="240.45" y1="255.3" x2="240.45" y2="449.5"/><path class="j" d="M429.54,226.94v7h-.72v-6.35h-1.64v-.64Z"/><path class="j" d="M431.23,233.43a.53.53,0,1,1,1.06,0,.53.53,0,1,1-1.06,0Z"/><path class="j" d="M433.24,230.44c0-2.23,1.16-3.56,2.78-3.56s2.8,1.33,2.8,3.56S437.64,234,436,234,433.24,232.66,433.24,230.44Zm4.84,0c0-1.87-.84-2.9-2.06-2.9s-2,1-2,2.9.83,2.89,2,2.89S438.08,232.3,438.08,230.44Z"/><path class="j" d="M444.6,231.87c0,1.19-.83,2.12-2.54,2.12a3.59,3.59,0,0,1-2.5-.9l.35-.57a3,3,0,0,0,2.14.81c1.19,0,1.82-.58,1.82-1.43s-.56-1.46-2.34-1.46h-1.48l.35-3.5h3.83v.64H441l-.24,2.23h.9C443.8,229.81,444.6,230.64,444.6,231.87Z"/><path class="j" d="M296.11,398.69v7h-.71v-6.35h-1.65v-.64Z"/><path class="j" d="M297.8,405.18a.53.53,0,0,1,.53-.54.54.54,0,0,1,.53.54.54.54,0,0,1-.53.55A.54.54,0,0,1,297.8,405.18Z"/><path class="j" d="M299.81,402.19c0-2.23,1.17-3.56,2.78-3.56s2.8,1.33,2.8,3.56-1.18,3.55-2.8,3.55S299.81,404.41,299.81,402.19Zm4.84,0c0-1.87-.84-2.9-2.06-2.9s-2.06,1-2.06,2.9.84,2.89,2.06,2.89S304.65,404.05,304.65,402.19Z"/><path class="j" d="M312.37,403.84H311v1.84h-.72v-1.84h-3.94v-.52l3.7-4.63h.8l-3.58,4.51h3v-1.61h.7v1.61h1.4Z"/><path class="j" d="M331,315.75v7h-.71v-6.35h-1.65v-.64Z"/><path class="j" d="M332.67,322.24a.53.53,0,0,1,.52-.54.54.54,0,0,1,.54.54.55.55,0,0,1-.54.55A.54.54,0,0,1,332.67,322.24Z"/><path class="j" d="M334.68,319.24c0-2.22,1.17-3.55,2.78-3.55s2.8,1.33,2.8,3.55-1.18,3.56-2.8,3.56S334.68,321.47,334.68,319.24Zm4.84,0c0-1.86-.84-2.89-2.06-2.89s-2.06,1-2.06,2.89.84,2.9,2.06,2.9S339.52,321.11,339.52,319.24Z"/><path class="j" d="M345.83,320.73c0,1.17-.85,2.07-2.54,2.07a3.61,3.61,0,0,1-2.51-.9l.35-.57a3,3,0,0,0,2.16.81c1.16,0,1.8-.54,1.8-1.41s-.59-1.39-1.89-1.39h-.5v-.52l1.94-2.43h-3.57v-.64h4.49v.51l-2,2.48C345.08,318.82,345.83,319.61,345.83,320.73Z"/><path class="j" d="M429.55,315.75v7h-.71v-6.35h-1.65v-.64Z"/><path class="j" d="M431.24,322.24a.53.53,0,0,1,.53-.54.54.54,0,0,1,.54.54.55.55,0,0,1-.54.55A.54.54,0,0,1,431.24,322.24Z"/><path class="j" d="M433.25,319.24c0-2.22,1.16-3.55,2.78-3.55s2.8,1.33,2.8,3.55-1.18,3.56-2.8,3.56S433.25,321.47,433.25,319.24Zm4.84,0c0-1.86-.84-2.89-2.06-2.89s-2,1-2,2.89.84,2.9,2,2.9S438.09,321.11,438.09,319.24Z"/><path class="j" d="M444.63,322.1v.64h-4.9v-.51l2.9-2.85c.79-.77.94-1.24.94-1.72,0-.81-.57-1.31-1.64-1.31a2.34,2.34,0,0,0-1.9.78l-.51-.44a3.14,3.14,0,0,1,2.47-1c1.42,0,2.32.72,2.32,1.89a2.85,2.85,0,0,1-1.15,2.18l-2.38,2.34Z"/><path class="j" d="M377.47,398.69v7h-.71v-6.35h-1.65v-.64Z"/><path class="j" d="M379.16,405.18a.53.53,0,0,1,.53-.54.54.54,0,0,1,.54.54.55.55,0,0,1-.54.55A.54.54,0,0,1,379.16,405.18Z"/><path class="j" d="M381.17,402.19c0-2.23,1.16-3.56,2.78-3.56s2.8,1.33,2.8,3.56-1.18,3.55-2.8,3.55S381.17,404.41,381.17,402.19Zm4.84,0c0-1.87-.84-2.9-2.06-2.9s-2.05,1-2.05,2.9.83,2.89,2.05,2.89S386,404.05,386,402.19Z"/><path class="j" d="M389.71,398.69v7H389v-6.35h-1.64v-.64Z"/></svg>