<svg xmlns="http://www.w3.org/2000/svg" xmlns:xlink="http://www.w3.org/1999/xlink" viewBox="0 0 790.58 618.13"><defs><style>.a,.g{fill:none;}.b{fill:#595a5c;}.c{fill:#b6906c;}.d,.f{fill:#fff;}.e{fill:#231f20;}.f,.i{fill-rule:evenodd;}.g{stroke:#000;stroke-linecap:round;stroke-linejoin:round;stroke-width:0.3px;}.h{clip-path:url(#a);}.j{fill:#58595b;}</style><clipPath id="a"><polygon class="a" points="280.01 188.16 280.01 262.73 276.58 262.73 276.58 429.97 514 429.97 514 262.73 510.72 262.73 510.72 188.16 280.01 188.16"/></clipPath></defs><path class="b" d="M55.31,597.13H57.1V609.9H55.31Zm.92,6.11h4.09a1.89,1.89,0,0,0,1-.27,1.82,1.82,0,0,0,.68-.77,2.67,2.67,0,0,0,.24-1.16,2.7,2.7,0,0,0-.24-1.16,1.82,1.82,0,0,0-1.7-1H56.23v-1.7h4a4.09,4.09,0,0,1,2,.48A3.45,3.45,0,0,1,63.62,599a4.64,4.64,0,0,1,0,4.11,3.34,3.34,0,0,1-1.35,1.36,4,4,0,0,1-2,.49h-4Z"/><path class="b" d="M67.7,606.33a2.07,2.07,0,0,0,.49,1.48,1.76,1.76,0,0,0,1.37.52,1.89,1.89,0,0,0,1.37-.46,1.79,1.79,0,0,0,.48-1.33l.12,1.91A2.58,2.58,0,0,1,69.06,610a2.89,2.89,0,0,1-2.33-1,4.08,4.08,0,0,1-.82-2.73v-5.55H67.7Zm.22-7.86a1.93,1.93,0,0,1-.56-1.5,2.07,2.07,0,0,1,.56-1.57,2.56,2.56,0,0,1,3.18,0,2.08,2.08,0,0,1,.57,1.56,1.94,1.94,0,0,1-.57,1.5,2.65,2.65,0,0,1-3.18,0Zm2.26-.86a.94.94,0,0,0,.24-.68,1,1,0,0,0-.24-.7.91.91,0,0,0-.67-.25.92.92,0,0,0-.67.25,1,1,0,0,0-.23.7,1,1,0,0,0,.23.68.92.92,0,0,0,.67.24A.9.9,0,0,0,70.18,597.61Zm1.23,3.17h1.78v9.12H71.41Z"/><path class="b" d="M77.1,609.63A2.82,2.82,0,0,1,76,608.36a5.08,5.08,0,0,1-.36-2v-2a5.05,5.05,0,0,1,.36-2,2.71,2.71,0,0,1,1-1.27,3,3,0,0,1,1.65-.44,2.71,2.71,0,0,1,1.48.42,3.22,3.22,0,0,1,1.09,1.19l-.18,1.86a2.19,2.19,0,0,0-.22-1,1.48,1.48,0,0,0-.61-.63,2,2,0,0,0-1-.21,1.71,1.71,0,0,0-1.37.55,2.26,2.26,0,0,0-.49,1.56v2a2.19,2.19,0,0,0,.49,1.54,1.74,1.74,0,0,0,1.37.54,1.93,1.93,0,0,0,1-.23,1.45,1.45,0,0,0,.61-.64,2.25,2.25,0,0,0,.22-1l.12,1.92a2.66,2.66,0,0,1-.89,1.14,2.56,2.56,0,0,1-1.53.45A3.19,3.19,0,0,1,77.1,609.63Zm4-12.5H82.9V609.9H81.11Z"/><path class="b" d="M87.09,609.57a3.09,3.09,0,0,1-1.29-1.36,4.85,4.85,0,0,1-.44-2.15v-1.48a4.71,4.71,0,0,1,.44-2.12,3.12,3.12,0,0,1,1.29-1.35,4.71,4.71,0,0,1,4.06,0,3.12,3.12,0,0,1,1.29,1.35,4.71,4.71,0,0,1,.44,2.12v1.51a4.79,4.79,0,0,1-.44,2.13,3.12,3.12,0,0,1-1.29,1.35,4.62,4.62,0,0,1-4.06,0Zm3.49-1.83a2.43,2.43,0,0,0,.51-1.65v-1.51a2.43,2.43,0,0,0-.51-1.65,1.88,1.88,0,0,0-1.46-.58,1.85,1.85,0,0,0-1.45.58,2.38,2.38,0,0,0-.52,1.65v1.51a2.38,2.38,0,0,0,.52,1.65,1.82,1.82,0,0,0,1.45.59A1.85,1.85,0,0,0,90.58,607.74Z"/><path class="b" d="M95.43,600.78h1.79v9.12H95.43Zm4.42,1.72a2.16,2.16,0,0,0-.83-.15,1.83,1.83,0,0,0-1.33.47,1.79,1.79,0,0,0-.47,1.31L97,602.37a3.32,3.32,0,0,1,1.09-1.27,2.58,2.58,0,0,1,1.48-.45,3.39,3.39,0,0,1,1.13.18,2.62,2.62,0,0,1,.88.53l-1.17,1.58A1.56,1.56,0,0,0,99.85,602.5Z"/><path class="b" d="M102.15,600.78H104l2.81,7.93-1,1.94Zm8.07,0L106.34,612a2.6,2.6,0,0,1-.56,1,1.87,1.87,0,0,1-.84.52,4,4,0,0,1-1.23.16h-.36V612h.36a1.46,1.46,0,0,0,.8-.2,1.74,1.74,0,0,0,.51-.7l3.38-10.31Z"/><path class="b" d="M113.51,609.88a5.76,5.76,0,0,1-1.32-.48,4.89,4.89,0,0,1-1.13-.79l1.06-1.31a5.86,5.86,0,0,0,1.47.85,4.18,4.18,0,0,0,1.44.28,3.11,3.11,0,0,0,1.6-.33,1.1,1.1,0,0,0,.53-1,.79.79,0,0,0-.29-.66,1.66,1.66,0,0,0-.72-.29c-.29,0-.69-.1-1.22-.14h-.15l-.14,0h-.15a6.45,6.45,0,0,1-1.5-.26,2,2,0,0,1-1-.7,2.38,2.38,0,0,1-.41-1.49,3.07,3.07,0,0,1,.39-1.61,2.41,2.41,0,0,1,1.18-1,5.29,5.29,0,0,1,2-.32,6.38,6.38,0,0,1,2.6.52,6.16,6.16,0,0,1,1.13.66l-1.08,1.31a5.59,5.59,0,0,0-1.35-.66,4,4,0,0,0-1.3-.22,2.44,2.44,0,0,0-1.37.31,1.08,1.08,0,0,0-.46.94.64.64,0,0,0,.26.55,1.72,1.72,0,0,0,.66.25c.26,0,.64.07,1.12.1h.34a7.67,7.67,0,0,1,1.63.25,2.24,2.24,0,0,1,1.13.77,2.62,2.62,0,0,1,.45,1.65,2.92,2.92,0,0,1-.42,1.63,2.54,2.54,0,0,1-1.27,1A5.88,5.88,0,0,1,115,610,7.38,7.38,0,0,1,113.51,609.88Z"/><path class="b" d="M126,597.13h1.8V609.9H126Zm2.6,12.5a2.39,2.39,0,0,1-.93-1.16l.13-1.91a2.22,2.22,0,0,0,.21,1,1.48,1.48,0,0,0,.61.63,1.93,1.93,0,0,0,1,.22,1.74,1.74,0,0,0,1.37-.54,2.18,2.18,0,0,0,.49-1.53v-2a2.26,2.26,0,0,0-.49-1.56,1.71,1.71,0,0,0-1.37-.55,2,2,0,0,0-1,.21,1.36,1.36,0,0,0-.61.62,2.12,2.12,0,0,0-.21,1l-.19-1.76a3.37,3.37,0,0,1,1.08-1.24,2.67,2.67,0,0,1,1.49-.43,3,3,0,0,1,1.65.43,2.9,2.9,0,0,1,1.06,1.27,5.1,5.1,0,0,1,.36,2v2a4.94,4.94,0,0,1-.37,2,2.79,2.79,0,0,1-1.08,1.26,3.25,3.25,0,0,1-1.71.44A2.73,2.73,0,0,1,128.57,609.63Z"/><path class="b" d="M134.46,600.78h1.82l2.81,7.93-1,1.94Zm8.07,0L138.65,612a2.6,2.6,0,0,1-.56,1,1.87,1.87,0,0,1-.84.52,4,4,0,0,1-1.23.16h-.36V612H136a1.46,1.46,0,0,0,.8-.2,1.74,1.74,0,0,0,.51-.7l3.37-10.31Z"/><path class="b" d="M143.57,600.78h4.12v1.62h-4.12Zm1.46,8.56a2.77,2.77,0,0,1-.52-1.81v-9.4h1.8v9.42a.84.84,0,0,0,.13.51.46.46,0,0,0,.39.18h.86V610h-1A2,2,0,0,1,145,609.34Z"/><path class="b" d="M151.94,606.33a2.07,2.07,0,0,0,.49,1.48,1.76,1.76,0,0,0,1.37.52,1.91,1.91,0,0,0,1.37-.46,1.79,1.79,0,0,0,.48-1.33l.12,1.91A2.58,2.58,0,0,1,153.3,610a2.89,2.89,0,0,1-2.33-1,4.08,4.08,0,0,1-.82-2.73v-5.55h1.79Zm3.71-5.55h1.78v9.12h-1.78Z"/><rect class="c" x="612.92" y="591.68" width="35.43" height="2.83"/><path class="d" d="M648.48,594.64H612.79v-3.08h35.69ZM613,594.39h35.19v-2.58H613Z"/><rect class="c" x="612.92" y="601.6" width="70.74" height="2.83"/><path class="d" d="M683.78,604.56h-71v-3.08h71ZM613,604.31h70.49v-2.58H613Z"/><rect class="c" x="612.92" y="612.72" width="177.16" height="2.84"/><path class="d" d="M790.21,615.68H612.79V612.6H790.21ZM613,615.43H790v-2.58H613Z"/><path class="e" d="M587.26,596.28h-.8v-4.82l-.81.5v-.83l.81-.53h.8Z"/><path class="e" d="M589,595.91a1.67,1.67,0,0,1-.41-1.19v-2.58A1.65,1.65,0,0,1,589,591a2,2,0,0,1,2.42,0,1.65,1.65,0,0,1,.41,1.19v2.58a1.65,1.65,0,0,1-.41,1.19,2,2,0,0,1-2.42,0Zm1.83-.55a.89.89,0,0,0,.2-.64v-2.58a.89.89,0,0,0-.2-.64.82.82,0,0,0-.62-.22.86.86,0,0,0-.63.22.94.94,0,0,0-.2.64v2.58a.9.9,0,0,0,.21.64,1,1,0,0,0,1.24,0Z"/><path class="e" d="M593.22,595.91a1.67,1.67,0,0,1-.41-1.19v-2.58a1.65,1.65,0,0,1,.41-1.19,2,2,0,0,1,2.42,0,1.61,1.61,0,0,1,.41,1.19v2.58a1.65,1.65,0,0,1-.41,1.19,2,2,0,0,1-2.42,0Zm1.83-.55a.9.9,0,0,0,.21-.64v-2.58a.94.94,0,0,0-.2-.64.86.86,0,0,0-.63-.22.82.82,0,0,0-.62.22.89.89,0,0,0-.2.64v2.58a.89.89,0,0,0,.2.64,1,1,0,0,0,1.24,0Z"/><path class="e" d="M600.1,596.13a1.45,1.45,0,0,1-.6-.6,2.06,2.06,0,0,1-.21-1v-.67a2,2,0,0,1,.21-.94,1.37,1.37,0,0,1,.6-.59,2,2,0,0,1,.95-.21,2.21,2.21,0,0,1,.59.08,1.68,1.68,0,0,1,.51.22,1.54,1.54,0,0,1,.37.35l-.58.52a1.17,1.17,0,0,0-.4-.3,1.13,1.13,0,0,0-.48-.11.94.94,0,0,0-.71.26,1,1,0,0,0-.26.72v.67a1,1,0,0,0,.25.74.94.94,0,0,0,.72.27,1,1,0,0,0,.48-.12,1,1,0,0,0,.4-.32l.58.56a1.38,1.38,0,0,1-.38.34,1.62,1.62,0,0,1-.5.22,2.27,2.27,0,0,1-.59.07A2.12,2.12,0,0,1,600.1,596.13Z"/><path class="e" d="M603.4,592.22h.79v4.06h-.79Zm2.42,1.6a1,1,0,0,0-.21-.67.78.78,0,0,0-.6-.23.81.81,0,0,0-.6.21.73.73,0,0,0-.22.58l-.08-.78a1.46,1.46,0,0,1,.49-.57,1.22,1.22,0,0,1,.67-.2,1.33,1.33,0,0,1,.73.2,1.18,1.18,0,0,1,.46.56,2.4,2.4,0,0,1,.15.89v2.47h-.79Zm2.42,0a.93.93,0,0,0-.22-.67.85.85,0,0,0-.63-.23.72.72,0,0,0-.57.23.9.9,0,0,0-.21.64l-.16-.78a1.61,1.61,0,0,1,.51-.63,1.23,1.23,0,0,1,.69-.22,1.37,1.37,0,0,1,.75.2,1.09,1.09,0,0,1,.47.56,2.21,2.21,0,0,1,.17.89v2.47h-.8Z"/><path class="e" d="M584.33,605.5l2-2.64a1.85,1.85,0,0,0,.27-.47,1.29,1.29,0,0,0,.09-.45h0a.67.67,0,0,0-.2-.53.81.81,0,0,0-.56-.19.76.76,0,0,0-.56.21,1,1,0,0,0-.27.58h-.82a2,2,0,0,1,.29-.83,1.42,1.42,0,0,1,.56-.53,1.67,1.67,0,0,1,.79-.18,1.93,1.93,0,0,1,.87.17,1.21,1.21,0,0,1,.54.51,1.55,1.55,0,0,1,.19.8h0a1.84,1.84,0,0,1-.12.63,2.8,2.8,0,0,1-.35.63l-1.65,2.24h2.15v.76h-3.2Z"/><path class="e" d="M589,605.83a1.67,1.67,0,0,1-.41-1.19v-2.58a1.65,1.65,0,0,1,.41-1.19,2,2,0,0,1,2.42,0,1.65,1.65,0,0,1,.41,1.19v2.58a1.65,1.65,0,0,1-.41,1.19,2,2,0,0,1-2.42,0Zm1.83-.55a.89.89,0,0,0,.2-.64v-2.58a.89.89,0,0,0-.2-.64.82.82,0,0,0-.62-.22.86.86,0,0,0-.63.22.94.94,0,0,0-.19.64v2.58a.89.89,0,0,0,.2.64,1,1,0,0,0,1.24,0Z"/><path class="e" d="M593.22,605.83a1.67,1.67,0,0,1-.41-1.19v-2.58a1.61,1.61,0,0,1,.42-1.19,1.59,1.59,0,0,1,1.2-.42,1.45,1.45,0,0,1,1.62,1.61v2.58a1.61,1.61,0,0,1-.41,1.19,2,2,0,0,1-2.42,0Zm1.84-.55a.94.94,0,0,0,.2-.64v-2.58a.94.94,0,0,0-.2-.64.84.84,0,0,0-.63-.22.82.82,0,0,0-.62.22.89.89,0,0,0-.2.64v2.58a.89.89,0,0,0,.2.64.82.82,0,0,0,.62.22A.86.86,0,0,0,595.06,605.28Z"/><path class="e" d="M600.1,606.05a1.45,1.45,0,0,1-.6-.6,2.06,2.06,0,0,1-.2-1v-.67a2,2,0,0,1,.2-.94,1.37,1.37,0,0,1,.6-.59,2,2,0,0,1,.95-.21,2.35,2.35,0,0,1,.6.08,1.73,1.73,0,0,1,.5.22,1.38,1.38,0,0,1,.37.35l-.58.52a1.08,1.08,0,0,0-.4-.3,1.13,1.13,0,0,0-.48-.11,1,1,0,0,0-.71.26,1,1,0,0,0-.26.72v.67a1,1,0,0,0,.25.74.94.94,0,0,0,.72.27,1.14,1.14,0,0,0,.88-.44l.58.56a1.38,1.38,0,0,1-.38.34,1.62,1.62,0,0,1-.5.22,2.22,2.22,0,0,1-.59.07A2.12,2.12,0,0,1,600.1,606.05Z"/><path class="e" d="M603.4,602.14h.79v4.06h-.79Zm2.42,1.6a1,1,0,0,0-.21-.67.78.78,0,0,0-.6-.23.81.81,0,0,0-.6.21.73.73,0,0,0-.22.58l-.08-.78a1.46,1.46,0,0,1,.49-.57,1.22,1.22,0,0,1,.67-.2,1.3,1.3,0,0,1,.73.2,1.18,1.18,0,0,1,.46.56,2.4,2.4,0,0,1,.16.89v2.47h-.8Zm2.42,0a.93.93,0,0,0-.22-.67.85.85,0,0,0-.63-.23.73.73,0,0,0-.57.23.89.89,0,0,0-.2.64l-.16-.78a1.51,1.51,0,0,1,.5-.63,1.23,1.23,0,0,1,.69-.22,1.35,1.35,0,0,1,.75.2,1.16,1.16,0,0,1,.48.56,2.4,2.4,0,0,1,.16.89v2.47h-.8Z"/><path class="e" d="M585,615.58a1.34,1.34,0,0,1-.54-.49,2,2,0,0,1-.28-.77h.8a.75.75,0,0,0,.25.49.85.85,0,0,0,.54.17.72.72,0,0,0,.59-.25,1.1,1.1,0,0,0,.21-.72v-.48a1.1,1.1,0,0,0-.21-.72.72.72,0,0,0-.59-.25.83.83,0,0,0-.4.11,1.18,1.18,0,0,0-.34.33h-.72v-3h2.89v.76h-2.1V612a1,1,0,0,1,.34-.18.94.94,0,0,1,.37-.07,1.68,1.68,0,0,1,.84.2,1.29,1.29,0,0,1,.53.6,2.07,2.07,0,0,1,.19.94V614a2.25,2.25,0,0,1-.19.94,1.31,1.31,0,0,1-.55.59,1.69,1.69,0,0,1-.86.21A1.74,1.74,0,0,1,585,615.58Z"/><path class="e" d="M589,615.32a1.65,1.65,0,0,1-.41-1.19v-2.58a1.67,1.67,0,0,1,.41-1.19,2,2,0,0,1,2.42,0,1.65,1.65,0,0,1,.41,1.19v2.58a1.64,1.64,0,0,1-.41,1.19,1.92,1.92,0,0,1-2.42,0Zm1.83-.55a.89.89,0,0,0,.2-.64v-2.58a.88.88,0,0,0-.2-.63.78.78,0,0,0-.62-.22.82.82,0,0,0-.63.22.93.93,0,0,0-.2.63v2.58a.9.9,0,0,0,.21.64,1,1,0,0,0,1.24,0Z"/><path class="e" d="M593.22,615.32a1.65,1.65,0,0,1-.41-1.19v-2.58a1.67,1.67,0,0,1,.41-1.19,2,2,0,0,1,2.42,0,1.61,1.61,0,0,1,.41,1.19v2.58a1.64,1.64,0,0,1-.41,1.19,1.92,1.92,0,0,1-2.42,0Zm1.83-.55a.9.9,0,0,0,.21-.64v-2.58a.93.93,0,0,0-.2-.63.82.82,0,0,0-.63-.22.78.78,0,0,0-.62.22.88.88,0,0,0-.2.63v2.58a.89.89,0,0,0,.2.64,1,1,0,0,0,1.24,0Z"/><path class="e" d="M600.1,615.54a1.45,1.45,0,0,1-.6-.6,2,2,0,0,1-.21-1v-.67a2,2,0,0,1,.21-.94,1.45,1.45,0,0,1,.6-.6,2,2,0,0,1,.95-.2,2.22,2.22,0,0,1,.59.07,2,2,0,0,1,.51.22,1.76,1.76,0,0,1,.37.35l-.58.52a1.17,1.17,0,0,0-.4-.3,1.13,1.13,0,0,0-.48-.11.94.94,0,0,0-.71.26,1,1,0,0,0-.26.73V614a1.07,1.07,0,0,0,.25.74,1,1,0,0,0,.72.26,1.13,1.13,0,0,0,.48-.11,1.26,1.26,0,0,0,.4-.32l.58.55a1.42,1.42,0,0,1-.38.35,1.88,1.88,0,0,1-.5.21,2.27,2.27,0,0,1-.59.08A2,2,0,0,1,600.1,615.54Z"/><path class="e" d="M603.4,611.63h.79v4.06h-.79Zm2.42,1.6a1,1,0,0,0-.21-.66.75.75,0,0,0-.6-.24.81.81,0,0,0-.6.21.75.75,0,0,0-.22.58l-.08-.78a1.5,1.5,0,0,1,.49-.56,1.15,1.15,0,0,1,.67-.2,1.32,1.32,0,0,1,.73.19,1.28,1.28,0,0,1,.46.56,2.42,2.42,0,0,1,.15.9v2.46h-.79Zm2.42,0a.91.91,0,0,0-.22-.66.82.82,0,0,0-.63-.24.72.72,0,0,0-.57.23.9.9,0,0,0-.21.64l-.16-.78a1.51,1.51,0,0,1,.51-.62,1.16,1.16,0,0,1,.69-.22,1.37,1.37,0,0,1,.75.19,1.18,1.18,0,0,1,.47.56,2.22,2.22,0,0,1,.17.9v2.46h-.8Z"/><path class="c" d="M23.49,613.89A12.92,12.92,0,1,1,36.4,601,12.93,12.93,0,0,1,23.49,613.89Zm0-24.83A11.92,11.92,0,1,0,35.4,601,11.93,11.93,0,0,0,23.49,589.06Z"/><polygon class="d" points="35.77 588.74 9.42 600.98 35.77 613.21 32.02 600.98 35.77 588.74"/><path class="c" d="M36.58,614.14,8.23,601l28.35-13.17-4,13.17ZM10.61,601,35,612.29,31.5,601,35,589.66Z"/><path class="c" d="M2.52,605.19a5,5,0,0,1-1.11-.38,4.4,4.4,0,0,1-1-.64l.81-1a3.72,3.72,0,0,0,1.16.69,4.08,4.08,0,0,0,1.38.23,2.73,2.73,0,0,0,1.55-.38,1.17,1.17,0,0,0,.55-1.05h0a1.12,1.12,0,0,0-.25-.77,1.44,1.44,0,0,0-.64-.42,8.23,8.23,0,0,0-1-.25H3.89l-.1,0a9.48,9.48,0,0,1-1.5-.36,2.08,2.08,0,0,1-1-.73,2.42,2.42,0,0,1-.41-1.51h0a2.77,2.77,0,0,1,.38-1.47,2.44,2.44,0,0,1,1.12-.92,4.48,4.48,0,0,1,1.77-.32,4.6,4.6,0,0,1,1,.11,4.9,4.9,0,0,1,1.86.86l-.73,1a4.61,4.61,0,0,0-1-.58,3,3,0,0,0-1.06-.2,2.44,2.44,0,0,0-1.46.38,1.24,1.24,0,0,0-.53,1.07h0a1,1,0,0,0,.27.75,1.74,1.74,0,0,0,.67.4,9.3,9.3,0,0,0,1.12.27h.24a7.93,7.93,0,0,1,1.4.41,2.22,2.22,0,0,1,.94.76,2.4,2.4,0,0,1,.38,1.43h0a2.62,2.62,0,0,1-.4,1.45,2.54,2.54,0,0,1-1.16.91,4.8,4.8,0,0,1-1.83.31A6.44,6.44,0,0,1,2.52,605.19Z"/><rect class="c" x="612.5" y="600.68" width="1" height="4.68"/><rect class="c" x="612.5" y="590.76" width="1" height="4.68"/><rect class="c" x="612.5" y="611.45" width="1" height="5.24"/><rect class="c" x="789.58" y="611.45" width="1" height="5.24"/><rect class="c" x="682.59" y="600.68" width="1" height="4.68"/><rect class="c" x="647.3" y="590.76" width="1" height="4.68"/><rect class="a" width="790.34" height="618.13"/><polygon class="f" points="283.75 350.83 301.97 350.83 301.97 404.59 348.55 404.59 348.55 422.8 301.97 422.8 283.75 422.8 283.75 350.83"/><line class="g" x1="301.97" y1="350.83" x2="283.75" y2="350.83"/><line class="g" x1="301.97" y1="404.59" x2="301.97" y2="350.83"/><line class="g" x1="348.55" y1="404.59" x2="301.97" y2="404.59"/><line class="g" x1="348.55" y1="422.8" x2="348.55" y2="404.59"/><line class="g" x1="301.97" y1="422.8" x2="348.55" y2="422.8"/><line class="g" x1="283.75" y1="422.8" x2="301.97" y2="422.8"/><line class="g" x1="283.75" y1="350.83" x2="283.75" y2="422.8"/><rect class="d" x="479.21" y="377.26" width="26.88" height="26.88"/><line class="g" x1="479.21" y1="377.26" x2="479.21" y2="404.14"/><line class="g" x1="506.09" y1="377.26" x2="479.21" y2="377.26"/><line class="g" x1="506.09" y1="404.14" x2="506.09" y2="377.26"/><line class="g" x1="479.21" y1="404.14" x2="506.09" y2="404.14"/><rect class="d" x="376.03" y="408.17" width="16.14" height="14.63"/><line class="g" x1="376.03" y1="408.17" x2="376.03" y2="422.8"/><line class="g" x1="392.17" y1="408.17" x2="376.03" y2="408.17"/><line class="g" x1="392.17" y1="422.8" x2="392.17" y2="408.17"/><line class="g" x1="376.03" y1="422.8" x2="392.17" y2="422.8"/><line class="g" x1="514" y1="404.88" x2="514" y2="404.88"/><line class="g" x1="482.94" y1="422.8" x2="506.83" y2="422.8"/><line class="g" x1="489.66" y1="269.3" x2="489.66" y2="268.7"/><line class="g" x1="489.66" y1="268.7" x2="492.05" y2="268.7"/><line class="g" x1="492.05" y1="268.7" x2="492.05" y2="271.09"/><line class="g" x1="492.05" y1="271.09" x2="490.86" y2="271.09"/><line class="g" x1="373.94" y1="269.3" x2="373.94" y2="268.7"/><line class="g" x1="373.94" y1="268.7" x2="376.33" y2="268.7"/><line class="g" x1="376.33" y1="268.7" x2="376.33" y2="271.09"/><line class="g" x1="376.33" y1="271.09" x2="375.13" y2="271.09"/><line class="g" x1="427.69" y1="429.97" x2="429.21" y2="429.97"/><line class="g" x1="283.75" y1="422.8" x2="348.55" y2="422.8"/><line class="g" x1="376.03" y1="422.8" x2="394.84" y2="422.8"/><line class="g" x1="427.69" y1="422.8" x2="429.78" y2="422.8"/><line class="g" x1="429.78" y1="422.8" x2="479.96" y2="422.8"/><line class="g" x1="276.58" y1="262.73" x2="280.02" y2="262.73"/><line class="g" x1="280.02" y1="262.73" x2="300.17" y2="262.73"/><line class="g" x1="278.82" y1="262.73" x2="280.02" y2="262.73"/><line class="g" x1="280.02" y1="262.73" x2="281.21" y2="262.73"/><line class="g" x1="374.83" y1="262.73" x2="433.82" y2="262.73"/><line class="g" x1="283.75" y1="274.68" x2="298.68" y2="274.68"/><line class="g" x1="376.33" y1="274.68" x2="394.25" y2="274.68"/><line class="g" x1="396.34" y1="274.68" x2="432.32" y2="274.68"/><line class="g" x1="276.58" y1="268.7" x2="298.68" y2="268.7"/><line class="g" x1="376.33" y1="268.7" x2="432.32" y2="268.7"/><line class="g" x1="283.75" y1="274.68" x2="283.75" y2="422.8"/><line class="g" x1="514" y1="274.68" x2="514" y2="371.44"/><line class="g" x1="506.83" y1="274.68" x2="506.83" y2="374.42"/><line class="g" x1="506.83" y1="376.51" x2="506.83" y2="404.88"/><line class="g" x1="506.83" y1="407.87" x2="506.83" y2="422.8"/><line class="g" x1="280.02" y1="198.52" x2="510.72" y2="198.52"/><line class="g" x1="396.34" y1="274.68" x2="396.34" y2="374.42"/><line class="g" x1="394.25" y1="274.68" x2="394.25" y2="374.42"/><line class="g" x1="506.83" y1="374.42" x2="424.71" y2="374.42"/><line class="g" x1="479.96" y1="404.88" x2="479.96" y2="407.87"/><line class="g" x1="479.96" y1="404.88" x2="506.83" y2="404.88"/><line class="g" x1="429.78" y1="401.9" x2="429.78" y2="422.8"/><line class="g" x1="482.94" y1="407.87" x2="506.83" y2="407.87"/><line class="g" x1="506.83" y1="376.51" x2="429.78" y2="376.51"/><line class="g" x1="429.78" y1="376.51" x2="429.78" y2="378.01"/><line class="g" x1="427.69" y1="401.9" x2="427.69" y2="422.8"/><line class="g" x1="427.69" y1="376.51" x2="427.69" y2="378.01"/><line class="g" x1="376.03" y1="404.88" x2="376.03" y2="422.8"/><line class="g" x1="348.55" y1="407.87" x2="348.55" y2="422.8"/><line class="g" x1="373.94" y1="374.42" x2="373.94" y2="378.01"/><line class="g" x1="373.94" y1="410.86" x2="373.94" y2="422.8"/><line class="g" x1="351.54" y1="410.86" x2="351.54" y2="422.8"/><line class="g" x1="427.69" y1="378.01" x2="429.78" y2="378.01"/><line class="g" x1="424.71" y1="376.51" x2="424.71" y2="374.42"/><line class="g" x1="427.69" y1="401.9" x2="429.78" y2="401.9"/><line class="g" x1="427.69" y1="376.51" x2="424.71" y2="376.51"/><line class="g" x1="397.83" y1="374.42" x2="396.34" y2="374.42"/><line class="g" x1="397.83" y1="376.51" x2="397.83" y2="374.42"/><line class="g" x1="424.71" y1="426.54" x2="397.83" y2="426.54"/><line class="g" x1="424.71" y1="426.54" x2="424.71" y2="399.66"/><g class="h"><path class="g" d="M397.83,426.54a26.87,26.87,0,0,1,26.88-26.88"/></g><line class="g" x1="424.71" y1="429.97" x2="424.71" y2="426.53"/><line class="g" x1="397.83" y1="426.54" x2="397.83" y2="429.97"/><line class="g" x1="397.83" y1="426.54" x2="396.34" y2="426.54"/><line class="g" x1="426.2" y1="426.54" x2="424.71" y2="426.54"/><line class="g" x1="394.84" y1="426.54" x2="394.84" y2="429.97"/><line class="g" x1="427.69" y1="426.54" x2="427.69" y2="429.97"/><line class="g" x1="394.84" y1="422.8" x2="400.82" y2="422.8"/><line class="g" x1="404.1" y1="422.8" x2="404.77" y2="422.8"/><line class="g" x1="408.06" y1="422.8" x2="408.73" y2="422.8"/><line class="g" x1="412.02" y1="422.8" x2="417.99" y2="422.8"/><line class="g" x1="421.27" y1="422.8" x2="421.72" y2="422.8"/><line class="g" x1="421.72" y1="422.8" x2="427.69" y2="422.8"/><line class="g" x1="396.34" y1="426.54" x2="396.34" y2="429.97"/><line class="g" x1="426.2" y1="426.54" x2="426.2" y2="429.97"/><line class="g" x1="394.84" y1="426.54" x2="394.84" y2="422.8"/><line class="g" x1="426.2" y1="426.54" x2="427.69" y2="426.54"/><line class="g" x1="397.83" y1="376.51" x2="376.03" y2="376.51"/><line class="g" x1="427.69" y1="426.54" x2="427.69" y2="401.9"/><line class="g" x1="396.34" y1="426.54" x2="394.84" y2="426.54"/><line class="g" x1="394.25" y1="374.42" x2="373.94" y2="374.42"/><line class="g" x1="373.94" y1="404.88" x2="376.03" y2="404.88"/><line class="g" x1="376.03" y1="378.01" x2="376.03" y2="376.51"/><line class="g" x1="376.03" y1="378.01" x2="373.94" y2="378.01"/><line class="g" x1="351.54" y1="410.86" x2="373.94" y2="410.86"/><line class="g" x1="348.55" y1="407.87" x2="373.94" y2="407.87"/><line class="g" x1="373.94" y1="407.87" x2="373.94" y2="404.88"/><line class="g" x1="280.54" y1="217.94" x2="281.21" y2="217.94"/><line class="g" x1="284.5" y1="217.94" x2="290.47" y2="217.94"/><line class="g" x1="293.75" y1="217.94" x2="294.43" y2="217.94"/><line class="g" x1="297.71" y1="217.94" x2="298.38" y2="217.94"/><line class="g" x1="301.67" y1="217.94" x2="307.64" y2="217.94"/><line class="g" x1="310.93" y1="217.94" x2="311.6" y2="217.94"/><line class="g" x1="314.88" y1="217.94" x2="315.55" y2="217.94"/><line class="g" x1="318.84" y1="217.94" x2="324.81" y2="217.94"/><line class="g" x1="328.1" y1="217.94" x2="328.77" y2="217.94"/><line class="g" x1="332.05" y1="217.94" x2="332.73" y2="217.94"/><line class="g" x1="336.01" y1="217.94" x2="341.98" y2="217.94"/><line class="g" x1="345.27" y1="217.94" x2="345.94" y2="217.94"/><line class="g" x1="349.23" y1="217.94" x2="349.9" y2="217.94"/><line class="g" x1="353.18" y1="217.94" x2="359.16" y2="217.94"/><line class="g" x1="362.44" y1="217.94" x2="363.11" y2="217.94"/><line class="g" x1="366.4" y1="217.94" x2="367.07" y2="217.94"/><line class="g" x1="370.36" y1="217.94" x2="376.33" y2="217.94"/><line class="g" x1="379.61" y1="217.94" x2="380.29" y2="217.94"/><line class="g" x1="383.57" y1="217.94" x2="384.24" y2="217.94"/><line class="g" x1="387.53" y1="217.94" x2="393.5" y2="217.94"/><line class="g" x1="396.78" y1="217.94" x2="397.46" y2="217.94"/><line class="g" x1="400.74" y1="217.94" x2="401.41" y2="217.94"/><line class="g" x1="404.7" y1="217.94" x2="410.67" y2="217.94"/><line class="g" x1="413.96" y1="217.94" x2="414.63" y2="217.94"/><line class="g" x1="417.91" y1="217.94" x2="418.59" y2="217.94"/><line class="g" x1="421.87" y1="217.94" x2="427.84" y2="217.94"/><line class="g" x1="431.13" y1="217.94" x2="431.8" y2="217.94"/><line class="g" x1="435.09" y1="217.94" x2="435.76" y2="217.94"/><line class="g" x1="439.04" y1="217.94" x2="445.02" y2="217.94"/><line class="g" x1="448.3" y1="217.94" x2="448.97" y2="217.94"/><line class="g" x1="452.26" y1="217.94" x2="452.93" y2="217.94"/><line class="g" x1="456.21" y1="217.94" x2="462.19" y2="217.94"/><line class="g" x1="465.47" y1="217.94" x2="466.14" y2="217.94"/><line class="g" x1="469.43" y1="217.94" x2="470.1" y2="217.94"/><line class="g" x1="473.39" y1="217.94" x2="479.36" y2="217.94"/><line class="g" x1="482.64" y1="217.94" x2="483.32" y2="217.94"/><line class="g" x1="486.6" y1="217.94" x2="487.27" y2="217.94"/><line class="g" x1="490.56" y1="217.94" x2="496.53" y2="217.94"/><line class="g" x1="499.82" y1="217.94" x2="500.49" y2="217.94"/><line class="g" x1="503.77" y1="217.94" x2="504.45" y2="217.94"/><line class="g" x1="507.73" y1="217.94" x2="508.03" y2="217.94"/><line class="g" x1="508.03" y1="217.94" x2="510.72" y2="217.94"/><line class="g" x1="514" y1="268.7" x2="492.05" y2="268.7"/><line class="g" x1="510.72" y1="262.73" x2="490.56" y2="262.73"/><line class="g" x1="514" y1="262.73" x2="510.72" y2="262.73"/><line class="g" x1="514" y1="274.68" x2="514" y2="274.68"/><line class="g" x1="514" y1="422.8" x2="514" y2="422.8"/><line class="g" x1="514" y1="373.53" x2="514" y2="373.53"/><line class="g" x1="514" y1="371.44" x2="514" y2="371.44"/><line class="g" x1="514" y1="404.88" x2="514" y2="422.8"/><line class="g" x1="514" y1="401.9" x2="514" y2="401.9"/><line class="g" x1="514" y1="401.9" x2="514" y2="404.88"/><line class="g" x1="276.58" y1="429.97" x2="394.84" y2="429.97"/><line class="g" x1="427.58" y1="429.97" x2="427.69" y2="429.97"/><line class="g" x1="506.83" y1="274.68" x2="492.05" y2="274.68"/><line class="g" x1="506.83" y1="274.68" x2="514" y2="274.68"/><line class="g" x1="281.21" y1="201.51" x2="281.21" y2="262.73"/><line class="g" x1="509.22" y1="201.51" x2="509.22" y2="262.73"/><line class="g" x1="509.22" y1="201.51" x2="510.72" y2="201.51"/><line class="g" x1="280.02" y1="201.51" x2="281.21" y2="201.51"/><line class="g" x1="348.55" y1="422.8" x2="351.54" y2="422.8"/><line class="g" x1="373.94" y1="422.8" x2="376.03" y2="422.8"/><line class="g" x1="479.96" y1="422.8" x2="482.94" y2="422.8"/><line class="g" x1="506.83" y1="407.87" x2="506.83" y2="404.88"/><line class="g" x1="514" y1="373.53" x2="514" y2="371.44"/><line class="g" x1="394.25" y1="274.68" x2="396.34" y2="274.68"/><line class="g" x1="298.68" y1="274.68" x2="298.68" y2="268.7"/><line class="g" x1="376.33" y1="274.68" x2="376.33" y2="268.7"/><line class="g" x1="432.32" y1="274.68" x2="432.32" y2="268.7"/><line class="g" x1="492.05" y1="268.7" x2="492.05" y2="274.68"/><line class="g" x1="300.17" y1="268.7" x2="300.17" y2="262.73"/><line class="g" x1="298.68" y1="268.7" x2="300.17" y2="268.7"/><line class="g" x1="433.82" y1="268.7" x2="433.82" y2="262.73"/><line class="g" x1="432.32" y1="268.7" x2="433.82" y2="268.7"/><line class="g" x1="374.83" y1="268.7" x2="374.83" y2="262.73"/><line class="g" x1="490.56" y1="268.7" x2="490.56" y2="262.73"/><line class="g" x1="492.05" y1="268.7" x2="490.56" y2="268.7"/><line class="g" x1="462.19" y1="274.68" x2="462.19" y2="268.7"/><line class="g" x1="460.69" y1="268.7" x2="460.69" y2="262.73"/><line class="g" x1="490.56" y1="262.73" x2="460.69" y2="262.73"/><line class="g" x1="460.69" y1="262.73" x2="454.72" y2="262.73"/><line class="g" x1="451.44" y1="262.73" x2="450.76" y2="262.73"/><line class="g" x1="447.48" y1="262.73" x2="446.81" y2="262.73"/><line class="g" x1="443.52" y1="262.73" x2="439.79" y2="262.73"/><line class="g" x1="439.79" y1="262.73" x2="433.82" y2="262.73"/><line class="g" x1="492.05" y1="274.68" x2="432.32" y2="274.68"/><line class="g" x1="460.69" y1="265.72" x2="433.82" y2="265.72"/><line class="g" x1="433.52" y1="269.3" x2="433.52" y2="299.17"/><line class="g" x1="462.19" y1="268.7" x2="462.19" y2="271.09"/><line class="g" x1="460.99" y1="269.3" x2="460.99" y2="271.69"/><line class="g" x1="434.71" y1="269.3" x2="434.71" y2="268.7"/><line class="g" x1="434.71" y1="268.7" x2="432.32" y2="268.7"/><line class="g" x1="432.32" y1="268.7" x2="432.32" y2="271.09"/><line class="g" x1="432.32" y1="271.09" x2="433.52" y2="271.09"/><line class="g" x1="435.91" y1="271.69" x2="435.91" y2="269.3"/><line class="g" x1="458.6" y1="270.5" x2="435.91" y2="270.5"/><g class="h"><path class="g" d="M461,271.69a27.48,27.48,0,0,1-27.47,27.48"/></g><line class="g" x1="464.58" y1="269.3" x2="464.58" y2="268.7"/><line class="g" x1="490.86" y1="269.3" x2="463.38" y2="269.3"/><line class="g" x1="463.38" y1="269.3" x2="463.38" y2="271.69"/><line class="g" x1="490.86" y1="269.3" x2="490.86" y2="271.69"/><line class="g" x1="465.77" y1="270.5" x2="488.47" y2="270.5"/><line class="g" x1="298.68" y1="274.68" x2="376.33" y2="274.68"/><line class="g" x1="300.17" y1="262.73" x2="347.96" y2="262.73"/><line class="g" x1="347.96" y1="268.7" x2="347.96" y2="262.73"/><line class="g" x1="347.96" y1="262.73" x2="353.93" y2="262.73"/><line class="g" x1="357.21" y1="262.73" x2="357.89" y2="262.73"/><line class="g" x1="361.17" y1="262.73" x2="361.84" y2="262.73"/><line class="g" x1="365.13" y1="262.73" x2="368.86" y2="262.73"/><line class="g" x1="368.86" y1="262.73" x2="374.83" y2="262.73"/><line class="g" x1="347.96" y1="265.72" x2="374.83" y2="265.72"/><line class="g" x1="375.13" y1="269.3" x2="375.13" y2="299.17"/><line class="g" x1="346.46" y1="268.7" x2="346.46" y2="271.09"/><line class="g" x1="375.13" y1="269.3" x2="347.66" y2="269.3"/><line class="g" x1="347.66" y1="269.3" x2="347.66" y2="271.69"/><line class="g" x1="372.74" y1="271.69" x2="372.74" y2="269.3"/><line class="g" x1="350.05" y1="270.5" x2="372.74" y2="270.5"/><g class="h"><path class="g" d="M375.13,299.17a27.48,27.48,0,0,1-27.47-27.48"/></g><line class="g" x1="344.07" y1="271.09" x2="344.07" y2="268.7"/><line class="g" x1="344.07" y1="269.9" x2="323.77" y2="269.9"/><line class="g" x1="301.07" y1="269.3" x2="301.07" y2="268.7"/><line class="g" x1="301.07" y1="268.7" x2="298.68" y2="268.7"/><line class="g" x1="298.68" y1="268.7" x2="298.68" y2="271.09"/><line class="g" x1="298.68" y1="271.09" x2="299.88" y2="271.09"/><line class="g" x1="322.57" y1="269.3" x2="299.88" y2="269.3"/><line class="g" x1="299.88" y1="269.3" x2="299.88" y2="271.69"/><line class="g" x1="302.26" y1="270.5" x2="320.18" y2="270.5"/><line class="g" x1="323.77" y1="268.7" x2="323.77" y2="271.09"/><line class="g" x1="322.57" y1="269.3" x2="322.57" y2="271.69"/><line class="g" x1="376.33" y1="268.7" x2="374.84" y2="268.7"/><line class="g" x1="373.94" y1="403.39" x2="373.94" y2="379.5"/><line class="g" x1="373.94" y1="403.39" x2="350.05" y2="403.39"/><g class="h"><path class="g" d="M350.05,403.39a23.9,23.9,0,0,1,23.89-23.89"/></g><line class="g" x1="376.03" y1="403.39" x2="373.94" y2="403.39"/><line class="g" x1="373.94" y1="379.5" x2="376.03" y2="379.5"/><line class="g" x1="373.94" y1="379.5" x2="373.94" y2="378.01"/><line class="g" x1="376.03" y1="379.5" x2="376.03" y2="378.01"/><line class="g" x1="373.94" y1="404.88" x2="373.94" y2="403.39"/><line class="g" x1="376.03" y1="404.88" x2="376.03" y2="403.39"/><line class="g" x1="376.03" y1="403.39" x2="376.03" y2="397.42"/><line class="g" x1="376.03" y1="394.13" x2="376.03" y2="393.46"/><line class="g" x1="376.03" y1="390.18" x2="376.03" y2="389.5"/><line class="g" x1="376.03" y1="386.22" x2="376.03" y2="385.47"/><line class="g" x1="376.03" y1="385.47" x2="376.03" y2="379.5"/><line class="g" x1="373.94" y1="403.39" x2="373.19" y2="403.39"/><line class="g" x1="373.19" y1="403.39" x2="373.19" y2="406.38"/><line class="g" x1="373.19" y1="406.38" x2="373.94" y2="406.38"/><line class="g" x1="376.03" y1="403.39" x2="376.78" y2="403.39"/><line class="g" x1="376.78" y1="403.39" x2="376.78" y2="406.38"/><line class="g" x1="376.78" y1="406.38" x2="376.03" y2="406.38"/><line class="g" x1="373.19" y1="379.5" x2="373.19" y2="376.51"/><line class="g" x1="373.19" y1="376.51" x2="373.94" y2="376.51"/><line class="g" x1="376.03" y1="379.5" x2="376.78" y2="379.5"/><line class="g" x1="376.78" y1="379.5" x2="376.78" y2="376.51"/><line class="g" x1="376.78" y1="376.51" x2="376.03" y2="376.51"/><line class="g" x1="399.32" y1="374.42" x2="423.21" y2="374.42"/><line class="g" x1="399.32" y1="374.42" x2="399.32" y2="350.53"/><g class="h"><path class="g" d="M399.32,350.53a23.89,23.89,0,0,1,23.89,23.89"/></g><line class="g" x1="399.32" y1="376.51" x2="399.32" y2="374.42"/><line class="g" x1="423.21" y1="374.42" x2="423.21" y2="376.51"/><line class="g" x1="423.21" y1="374.42" x2="424.71" y2="374.42"/><line class="g" x1="423.21" y1="376.51" x2="424.71" y2="376.51"/><line class="g" x1="397.83" y1="374.42" x2="399.32" y2="374.42"/><line class="g" x1="397.83" y1="376.51" x2="399.32" y2="376.51"/><line class="g" x1="399.32" y1="376.51" x2="405.3" y2="376.51"/><line class="g" x1="408.58" y1="376.51" x2="409.25" y2="376.51"/><line class="g" x1="412.54" y1="376.51" x2="413.21" y2="376.51"/><line class="g" x1="416.5" y1="376.51" x2="417.24" y2="376.51"/><line class="g" x1="417.24" y1="376.51" x2="423.21" y2="376.51"/><line class="g" x1="399.32" y1="374.42" x2="399.32" y2="373.68"/><line class="g" x1="399.32" y1="373.68" x2="396.34" y2="373.68"/><line class="g" x1="396.34" y1="373.68" x2="396.34" y2="374.42"/><line class="g" x1="399.32" y1="376.51" x2="399.32" y2="377.26"/><line class="g" x1="399.32" y1="377.26" x2="396.34" y2="377.26"/><line class="g" x1="396.34" y1="377.26" x2="396.34" y2="376.51"/><line class="g" x1="423.21" y1="373.68" x2="426.2" y2="373.68"/><line class="g" x1="426.2" y1="373.68" x2="426.2" y2="374.42"/><line class="g" x1="423.21" y1="376.51" x2="423.21" y2="377.26"/><line class="g" x1="423.21" y1="377.26" x2="426.2" y2="377.26"/><line class="g" x1="426.2" y1="377.26" x2="426.2" y2="376.51"/><line class="g" x1="427.69" y1="400.4" x2="427.69" y2="379.5"/><line class="g" x1="427.69" y1="400.4" x2="406.79" y2="400.4"/><g class="h"><path class="g" d="M406.79,400.4a20.9,20.9,0,0,1,20.9-20.9"/></g><line class="g" x1="429.78" y1="400.4" x2="427.69" y2="400.4"/><line class="g" x1="427.69" y1="379.5" x2="429.78" y2="379.5"/><line class="g" x1="427.69" y1="379.5" x2="427.69" y2="378.01"/><line class="g" x1="429.78" y1="379.5" x2="429.78" y2="378.01"/><line class="g" x1="427.69" y1="401.9" x2="427.69" y2="400.4"/><line class="g" x1="429.78" y1="401.9" x2="429.78" y2="400.4"/><line class="g" x1="429.78" y1="400.4" x2="429.78" y2="394.43"/><line class="g" x1="429.78" y1="391.15" x2="429.78" y2="390.48"/><line class="g" x1="429.78" y1="387.19" x2="429.78" y2="386.52"/><line class="g" x1="429.78" y1="385.47" x2="429.78" y2="379.5"/><line class="g" x1="427.69" y1="400.4" x2="426.95" y2="400.4"/><line class="g" x1="426.95" y1="400.4" x2="426.95" y2="403.39"/><line class="g" x1="426.95" y1="403.39" x2="427.69" y2="403.39"/><line class="g" x1="429.78" y1="400.4" x2="430.53" y2="400.4"/><line class="g" x1="430.53" y1="400.4" x2="430.53" y2="403.39"/><line class="g" x1="430.53" y1="403.39" x2="429.79" y2="403.39"/><line class="g" x1="426.95" y1="379.5" x2="426.95" y2="376.51"/><line class="g" x1="426.95" y1="376.51" x2="427.69" y2="376.51"/><line class="g" x1="429.78" y1="379.5" x2="430.53" y2="379.5"/><line class="g" x1="430.53" y1="379.5" x2="430.53" y2="376.51"/><line class="g" x1="430.53" y1="376.51" x2="429.79" y2="376.51"/><line class="g" x1="429.78" y1="418.32" x2="479.96" y2="418.32"/><line class="g" x1="432.32" y1="274.68" x2="432.32" y2="283.64"/><line class="g" x1="432.32" y1="283.64" x2="462.19" y2="283.64"/><line class="g" x1="462.19" y1="283.64" x2="462.19" y2="274.68"/><line class="g" x1="346.46" y1="268.7" x2="346.46" y2="283.64"/><line class="g" x1="346.46" y1="283.64" x2="376.33" y2="283.64"/><line class="g" x1="376.33" y1="283.64" x2="376.33" y2="274.68"/><line class="g" x1="351.54" y1="422.8" x2="373.94" y2="422.8"/><line class="g" x1="479.96" y1="404.88" x2="479.96" y2="407.87"/><line class="g" x1="479.96" y1="422.8" x2="479.96" y2="407.87"/><line class="g" x1="280.91" y1="201.51" x2="280.91" y2="262.73"/><line class="g" x1="280.02" y1="262.73" x2="279.12" y2="262.73"/><line class="g" x1="280.91" y1="262.73" x2="280.01" y2="262.73"/><line class="g" x1="280.91" y1="203.3" x2="280.01" y2="203.3"/><line class="g" x1="509.52" y1="201.51" x2="509.52" y2="262.73"/><line class="g" x1="510.72" y1="262.73" x2="509.52" y2="262.73"/><line class="g" x1="511.31" y1="262.73" x2="510.72" y2="262.73"/><line class="g" x1="510.72" y1="203.3" x2="509.52" y2="203.3"/><line class="g" x1="509.52" y1="201.51" x2="510.72" y2="201.51"/><line class="g" x1="509.52" y1="260.94" x2="510.72" y2="260.94"/><line class="g" x1="280.02" y1="201.51" x2="280.91" y2="201.51"/><line class="g" x1="280.02" y1="260.94" x2="280.91" y2="260.94"/><line class="g" x1="320.18" y1="271.69" x2="320.18" y2="269.3"/><line class="g" x1="347.66" y1="271.09" x2="322.57" y2="271.09"/><line class="g" x1="321.38" y1="269.3" x2="321.38" y2="268.7"/><line class="g" x1="321.38" y1="268.7" x2="348.85" y2="268.7"/><line class="g" x1="302.26" y1="271.69" x2="302.26" y2="269.3"/><line class="g" x1="299.88" y1="271.69" x2="322.57" y2="271.69"/><line class="g" x1="350.05" y1="271.69" x2="350.05" y2="269.3"/><line class="g" x1="347.66" y1="271.69" x2="375.13" y2="271.69"/><line class="g" x1="348.85" y1="269.3" x2="348.85" y2="268.7"/><line class="g" x1="488.47" y1="271.69" x2="488.47" y2="269.3"/><line class="g" x1="465.77" y1="271.69" x2="465.77" y2="269.3"/><line class="g" x1="463.38" y1="271.69" x2="490.86" y2="271.69"/><line class="g" x1="460.99" y1="269.3" x2="433.52" y2="269.3"/><line class="g" x1="433.52" y1="271.69" x2="460.99" y2="271.69"/><line class="g" x1="458.6" y1="271.69" x2="458.6" y2="269.3"/><line class="g" x1="463.38" y1="271.09" x2="460.99" y2="271.09"/><line class="g" x1="459.8" y1="269.3" x2="459.8" y2="268.7"/><line class="g" x1="459.8" y1="268.7" x2="464.58" y2="268.7"/><line class="g" x1="373.94" y1="410.86" x2="373.94" y2="407.87"/><line class="g" x1="373.94" y1="410.86" x2="373.94" y2="407.87"/><line class="g" x1="482.94" y1="422.8" x2="482.94" y2="407.87"/><line class="g" x1="480.7" y1="399.66" x2="480.7" y2="381.74"/><line class="g" x1="483.69" y1="378.75" x2="501.61" y2="378.75"/><line class="g" x1="504.59" y1="381.74" x2="504.59" y2="399.66"/><line class="g" x1="501.61" y1="402.64" x2="483.69" y2="402.64"/><line class="g" x1="463.83" y1="377.26" x2="463.83" y2="380.25"/><line class="g" x1="463.83" y1="380.25" x2="445.91" y2="380.25"/><line class="g" x1="445.91" y1="380.25" x2="445.91" y2="377.26"/><line class="g" x1="445.91" y1="377.26" x2="446.81" y2="377.26"/><line class="g" x1="446.81" y1="377.26" x2="446.81" y2="379.35"/><line class="g" x1="446.81" y1="379.35" x2="462.93" y2="379.35"/><line class="g" x1="462.93" y1="379.35" x2="462.93" y2="377.26"/><line class="g" x1="462.93" y1="377.26" x2="463.83" y2="377.26"/><line class="g" x1="463.83" y1="377.26" x2="463.83" y2="380.25"/><line class="g" x1="445.91" y1="377.26" x2="445.91" y2="380.25"/><line class="g" x1="462.93" y1="377.26" x2="462.93" y2="379.35"/><line class="g" x1="446.81" y1="377.26" x2="446.81" y2="379.35"/><line class="g" x1="463.83" y1="380.25" x2="445.91" y2="380.25"/><line class="g" x1="463.83" y1="379.35" x2="445.91" y2="379.35"/><line class="g" x1="463.83" y1="377.26" x2="462.93" y2="377.26"/><line class="g" x1="446.81" y1="377.26" x2="445.91" y2="377.26"/><line class="g" x1="341.41" y1="411.43" x2="337.18" y2="415.66"/><line class="g" x1="337.18" y1="411.43" x2="341.41" y2="415.66"/><line class="g" x1="339.3" y1="416.53" x2="339.3" y2="410.56"/><line class="g" x1="342.28" y1="413.55" x2="336.31" y2="413.55"/><line class="g" x1="330.34" y1="404.59" x2="330.34" y2="422.5"/><line class="g" x1="348.26" y1="404.59" x2="330.34" y2="404.59"/><line class="g" x1="283.75" y1="359.79" x2="301.97" y2="359.79"/><line class="g" x1="301.97" y1="359.79" x2="301.97" y2="377.71"/><line class="g" x1="301.97" y1="377.71" x2="283.75" y2="377.71"/><line class="g" x1="302.78" y1="375.26" x2="302.78" y2="362.23"/><line class="g" x1="312.42" y1="422.8" x2="312.42" y2="404.59"/><line class="g" x1="312.42" y1="404.59" x2="330.34" y2="404.59"/><line class="g" x1="330.34" y1="404.59" x2="330.34" y2="422.8"/><line class="g" x1="385.07" y1="302.43" x2="385.07" y2="329.67"/><line class="g" x1="385.07" y1="329.67" x2="386.9" y2="329.67"/><line class="g" x1="386.9" y1="329.67" x2="388.73" y2="322.86"/><line class="g" x1="388.73" y1="322.86" x2="388.73" y2="309.24"/><line class="g" x1="388.73" y1="309.24" x2="386.9" y2="302.43"/><line class="g" x1="386.9" y1="302.43" x2="385.07" y2="302.43"/><line class="g" x1="385.8" y1="327.85" x2="385.8" y2="326.04"/><line class="g" x1="385.8" y1="326.04" x2="386.26" y2="326.04"/><line class="g" x1="386.25" y1="326.04" x2="386.25" y2="327.85"/><line class="g" x1="386.25" y1="327.85" x2="385.8" y2="327.85"/><line class="g" x1="385.8" y1="325.58" x2="385.8" y2="323.77"/><line class="g" x1="385.8" y1="323.77" x2="386.26" y2="323.77"/><line class="g" x1="386.25" y1="323.77" x2="386.25" y2="325.58"/><line class="g" x1="386.25" y1="325.58" x2="385.8" y2="325.58"/><line class="g" x1="385.8" y1="323.31" x2="385.8" y2="322.41"/><line class="g" x1="385.8" y1="322.41" x2="386.26" y2="322.41"/><line class="g" x1="386.25" y1="322.41" x2="386.25" y2="323.31"/><line class="g" x1="386.25" y1="323.31" x2="385.8" y2="323.31"/><line class="g" x1="386.9" y1="302.43" x2="386.9" y2="329.67"/><line class="g" x1="479.21" y1="404.14" x2="479.21" y2="377.26"/><line class="g" x1="479.21" y1="377.26" x2="506.09" y2="377.26"/><line class="g" x1="506.09" y1="377.26" x2="506.09" y2="404.14"/><line class="g" x1="506.09" y1="404.14" x2="479.21" y2="404.14"/><line class="g" x1="333.02" y1="334.41" x2="318.09" y2="334.41"/><line class="g" x1="318.09" y1="334.41" x2="318.09" y2="310.51"/><line class="g" x1="318.09" y1="310.51" x2="333.02" y2="310.51"/><line class="g" x1="333.02" y1="310.51" x2="333.02" y2="334.41"/><line class="g" x1="283.75" y1="350.83" x2="283.75" y2="422.8"/><line class="g" x1="283.75" y1="422.8" x2="348.55" y2="422.8"/><line class="g" x1="348.55" y1="422.8" x2="348.55" y2="404.59"/><line class="g" x1="348.55" y1="404.59" x2="301.97" y2="404.59"/><line class="g" x1="301.97" y1="404.59" x2="301.97" y2="350.83"/><line class="g" x1="301.97" y1="350.83" x2="283.75" y2="350.83"/><line class="g" x1="298.68" y1="276.17" x2="340.49" y2="276.17"/><line class="g" x1="340.49" y1="276.17" x2="340.49" y2="279.16"/><line class="g" x1="340.49" y1="279.16" x2="298.68" y2="279.16"/><line class="g" x1="298.68" y1="279.16" x2="298.68" y2="276.17"/><line class="g" x1="463.68" y1="276.17" x2="487.57" y2="276.17"/><line class="g" x1="487.57" y1="276.17" x2="487.57" y2="278.05"/><line class="g" x1="487.57" y1="278.05" x2="463.68" y2="278.05"/><line class="g" x1="463.68" y1="278.05" x2="463.68" y2="276.17"/><g class="h"><path class="g" d="M502.35,399.66a.75.75,0,0,0-.74-.75.76.76,0,0,0-.75.75.75.75,0,0,0,.75.74.74.74,0,0,0,.74-.74"/><path class="g" d="M483.69,402.64a3,3,0,0,1-3-3"/><path class="g" d="M480.7,381.74a3,3,0,0,1,3-3"/><path class="g" d="M504.59,399.66a3,3,0,0,1-3,3"/><path class="g" d="M501.61,378.75a3,3,0,0,1,3,3"/><path class="g" d="M298.23,386.67a5.23,5.23,0,1,0-5.22,5.22,5.23,5.23,0,0,0,5.22-5.22"/><path class="g" d="M297.34,386.67A4.33,4.33,0,1,0,293,391a4.33,4.33,0,0,0,4.33-4.33"/><path class="g" d="M301.09,412.08a6.72,6.72,0,1,0-6.72,6.72,6.71,6.71,0,0,0,6.72-6.72"/><path class="g" d="M300,412.08a5.68,5.68,0,1,0-5.67,5.68,5.67,5.67,0,0,0,5.67-5.68"/><path class="g" d="M293.11,414.09a.75.75,0,1,0-.75.75.76.76,0,0,0,.75-.75"/><path class="g" d="M291.54,364.35a2.93,2.93,0,1,0-2.93,2.93,2.93,2.93,0,0,0,2.93-2.93"/><path class="g" d="M300.34,364.35a2.94,2.94,0,1,0-2.94,2.93,2.94,2.94,0,0,0,2.94-2.93"/><path class="g" d="M300.34,373.15a2.94,2.94,0,1,0-2.94,2.93,2.94,2.94,0,0,0,2.94-2.93"/><path class="g" d="M388.39,321.5a5.45,5.45,0,0,1,0-10.9"/><path class="g" d="M388.39,310.6a10.9,10.9,0,0,1,0,10.9"/><path class="g" d="M345,277.66a1.5,1.5,0,1,0-1.49,1.5,1.49,1.49,0,0,0,1.49-1.5"/><path class="g" d="M492.05,277.11a1.5,1.5,0,1,0-1.49,1.49,1.49,1.49,0,0,0,1.49-1.49"/></g><line class="g" x1="482.94" y1="407.87" x2="482.94" y2="422.8"/><line class="g" x1="482.94" y1="422.8" x2="506.83" y2="422.8"/><line class="g" x1="506.83" y1="422.8" x2="485.93" y2="419.82"/><line class="g" x1="485.93" y1="419.82" x2="482.94" y2="407.87"/><line class="g" x1="351.54" y1="410.86" x2="351.54" y2="422.8"/><line class="g" x1="351.54" y1="422.8" x2="373.94" y2="422.8"/><line class="g" x1="373.94" y1="422.8" x2="354.53" y2="419.82"/><line class="g" x1="354.53" y1="419.82" x2="351.54" y2="410.86"/><line class="g" x1="514" y1="404.88" x2="514" y2="422.8"/><line class="g" x1="514" y1="422.8" x2="514" y2="422.8"/><line class="g" x1="514" y1="404.88" x2="514" y2="404.88"/><rect class="d" x="318.09" y="310.51" width="14.93" height="23.89"/><line class="g" x1="318.09" y1="310.51" x2="318.09" y2="334.41"/><line class="g" x1="333.02" y1="310.51" x2="318.09" y2="310.51"/><line class="g" x1="333.02" y1="334.41" x2="333.02" y2="310.51"/><line class="g" x1="318.09" y1="334.41" x2="333.02" y2="334.41"/><rect class="d" x="445.91" y="377.26" width="0.9" height="2.09"/><line class="g" x1="446.81" y1="377.26" x2="445.91" y2="377.26"/><line class="g" x1="446.81" y1="379.35" x2="446.81" y2="377.26"/><line class="g" x1="445.91" y1="379.35" x2="446.81" y2="379.35"/><line class="g" x1="445.91" y1="377.26" x2="445.91" y2="379.35"/><rect class="d" x="445.91" y="379.35" width="17.92" height="0.9"/><line class="g" x1="463.83" y1="380.25" x2="463.83" y2="379.35"/><line class="g" x1="445.91" y1="380.25" x2="463.83" y2="380.25"/><line class="g" x1="445.91" y1="379.35" x2="445.91" y2="380.25"/><line class="g" x1="463.83" y1="379.35" x2="445.91" y2="379.35"/><rect class="d" x="462.93" y="377.26" width="0.9" height="2.09"/><line class="g" x1="463.83" y1="377.26" x2="462.93" y2="377.26"/><line class="g" x1="463.83" y1="379.35" x2="463.83" y2="377.26"/><line class="g" x1="462.93" y1="379.35" x2="463.83" y2="379.35"/><line class="g" x1="462.93" y1="377.26" x2="462.93" y2="379.35"/><rect class="d" x="429.78" y="418.32" width="50.17" height="4.48"/><line class="g" x1="429.78" y1="418.32" x2="429.78" y2="422.8"/><line class="g" x1="479.96" y1="418.32" x2="429.78" y2="418.32"/><line class="g" x1="479.96" y1="422.8" x2="479.96" y2="418.32"/><line class="g" x1="429.78" y1="422.8" x2="479.96" y2="422.8"/><rect class="d" x="380.51" y="274.68" width="13.74" height="99.75"/><line class="g" x1="380.51" y1="274.68" x2="380.51" y2="374.42"/><line class="g" x1="394.25" y1="274.68" x2="380.51" y2="274.68"/><line class="g" x1="394.25" y1="374.42" x2="394.25" y2="274.68"/><line class="g" x1="380.51" y1="374.42" x2="394.25" y2="374.42"/><rect class="d" x="280.02" y="200.02" width="1.2" height="61.22"/><line class="g" x1="281.21" y1="200.02" x2="280.02" y2="200.02"/><line class="g" x1="281.21" y1="261.24" x2="281.21" y2="200.02"/><line class="g" x1="280.02" y1="261.24" x2="281.21" y2="261.24"/><polygon class="f" points="492.05 277.11 491.61 278.17 490.56 278.6 489.5 278.17 489.06 277.11 489.5 276.06 490.56 275.62 491.61 276.06 492.05 277.11"/><g class="h"><path class="g" d="M492.05,277.11a1.5,1.5,0,0,1-3,0"/><path class="g" d="M489.07,277.11a1.49,1.49,0,0,1,3,0"/></g><rect class="d" x="463.68" y="276.17" width="23.89" height="1.88"/><line class="g" x1="487.57" y1="276.17" x2="463.68" y2="276.17"/><line class="g" x1="487.57" y1="278.05" x2="487.57" y2="276.17"/><line class="g" x1="463.68" y1="278.05" x2="487.57" y2="278.05"/><line class="g" x1="463.68" y1="276.17" x2="463.68" y2="278.05"/><polygon class="f" points="344.97 277.66 344.53 278.72 343.48 279.16 342.42 278.72 341.98 277.66 342.42 276.61 343.48 276.17 344.53 276.61 344.97 277.66"/><g class="h"><path class="g" d="M345,277.66a1.5,1.5,0,1,1-3,0"/><path class="g" d="M342,277.66a1.5,1.5,0,0,1,3,0"/></g><rect class="d" x="298.68" y="276.17" width="41.81" height="2.99"/><line class="g" x1="340.49" y1="279.16" x2="340.49" y2="276.17"/><line class="g" x1="298.68" y1="279.16" x2="340.49" y2="279.16"/><line class="g" x1="298.68" y1="276.17" x2="298.68" y2="279.16"/><line class="g" x1="340.49" y1="276.17" x2="298.68" y2="276.17"/><line class="g" x1="514" y1="298.57" x2="514" y2="298.57"/><line class="g" x1="514" y1="298.57" x2="514" y2="352.32"/><line class="g" x1="514" y1="352.32" x2="514" y2="352.32"/><line class="g" x1="514" y1="298.57" x2="514" y2="288.12"/><line class="g" x1="514" y1="288.12" x2="514" y2="288.12"/><line class="g" x1="514" y1="298.57" x2="514" y2="298.57"/><line class="g" x1="514" y1="362.78" x2="514" y2="352.32"/><line class="g" x1="514" y1="352.32" x2="514" y2="352.32"/><line class="g" x1="514" y1="362.78" x2="514" y2="362.78"/><polygon class="f" points="506.83 352.32 506.83 298.57 497.88 298.57 453.08 298.57 450.79 299.02 448.86 300.32 447.56 302.26 447.11 304.54 447.11 346.35 447.56 348.64 448.86 350.57 450.79 351.87 453.08 352.32 506.83 352.32"/><rect class="d" x="497.88" y="352.32" width="8.96" height="10.45"/><rect class="d" x="497.88" y="288.12" width="8.96" height="10.45"/><line class="g" x1="496.9" y1="323.76" x2="499.49" y2="323.04"/><line class="g" x1="496.9" y1="348.83" x2="499.49" y2="348.12"/><line class="g" x1="447.11" y1="304.54" x2="447.11" y2="346.35"/><line class="g" x1="453.08" y1="352.32" x2="506.83" y2="352.32"/><line class="g" x1="506.83" y1="352.32" x2="506.83" y2="298.57"/><line class="g" x1="506.83" y1="298.57" x2="453.08" y2="298.57"/><line class="g" x1="506.83" y1="352.32" x2="506.83" y2="362.78"/><line class="g" x1="506.83" y1="362.78" x2="497.88" y2="362.78"/><line class="g" x1="497.88" y1="362.78" x2="497.88" y2="352.32"/><line class="g" x1="497.88" y1="352.32" x2="506.83" y2="352.32"/><line class="g" x1="506.83" y1="288.12" x2="506.83" y2="298.57"/><line class="g" x1="506.83" y1="298.57" x2="497.88" y2="298.57"/><line class="g" x1="497.88" y1="298.57" x2="497.88" y2="288.12"/><line class="g" x1="497.88" y1="288.12" x2="506.83" y2="288.12"/><line class="g" x1="486.96" y1="352.32" x2="486.96" y2="298.57"/><line class="g" x1="482.48" y1="352.32" x2="482.48" y2="298.57"/><g class="h"><path class="g" d="M491.49,327.71a84.43,84.43,0,0,1,.72,11q0,4.25-.42,8.47"/><path class="g" d="M493.43,349.12h-.08a1.6,1.6,0,0,1-1.6-1.6,1.27,1.27,0,0,1,0-.34"/><path class="g" d="M496.9,348.83a12.75,12.75,0,0,1-2.76.3h-.71"/><path class="g" d="M503.57,349c-.72,0-1.44.05-2.16.05-1.5,0-3-.07-4.51-.22"/><path class="g" d="M504,348.61a.15.15,0,0,1,0,.07.34.34,0,0,1-.34.34l-.1,0"/><path class="g" d="M504,348.61q-.5-6.42-.49-12.85c0-2.7.07-5.41.2-8.11"/><path class="g" d="M502.63,326.69a.86.86,0,0,1,.27-.05.83.83,0,0,1,.83.83,1.1,1.1,0,0,1,0,.18"/><path class="g" d="M502.63,326.69a40.82,40.82,0,0,1-5.74.41,38.44,38.44,0,0,1-4.55-.26"/><path class="g" d="M491.49,327.71a.71.71,0,0,1,0-.21.69.69,0,0,1,.69-.69.63.63,0,0,1,.19,0"/><path class="g" d="M453.08,352.32a6,6,0,0,1-6-6"/><path class="g" d="M447.11,304.54a6,6,0,0,1,6-6"/><path class="g" d="M491.49,302.64a84.2,84.2,0,0,1,.72,11q0,4.25-.42,8.46"/><path class="g" d="M493.43,324h-.08a1.59,1.59,0,0,1-1.6-1.6,1.32,1.32,0,0,1,0-.34"/><path class="g" d="M496.9,323.76a12.75,12.75,0,0,1-2.76.3l-.71,0"/><path class="g" d="M503.57,323.92q-1.08.06-2.16.06c-1.5,0-3-.08-4.51-.22"/><path class="g" d="M504,323.53a.17.17,0,0,1,0,.07.34.34,0,0,1-.34.34.18.18,0,0,1-.1,0"/><path class="g" d="M504,323.53q-.5-6.4-.49-12.85,0-4.05.2-8.11"/><path class="g" d="M502.63,301.61a.84.84,0,0,1,.27,0,.83.83,0,0,1,.83.83,1.1,1.1,0,0,1,0,.18"/><path class="g" d="M502.63,301.61a39.39,39.39,0,0,1-5.74.42,40.69,40.69,0,0,1-4.55-.26"/><path class="g" d="M491.49,302.64a.76.76,0,0,1,0-.21.69.69,0,0,1,.69-.69.63.63,0,0,1,.19,0"/></g><polygon class="f" points="386.31 311.47 385.11 312.94 384.47 314.79 384.47 316.77 385.11 318.62 386.31 320.1 386.31 329.4 387.97 329.4 389.63 322.59 389.63 320.61 390.53 317.44 390.53 314.13 389.63 310.96 389.63 308.98 387.97 302.17 386.31 302.17 386.31 311.47"/><line class="g" x1="386.31" y1="302.17" x2="386.31" y2="311.47"/><line class="g" x1="387.97" y1="302.17" x2="386.31" y2="302.17"/><line class="g" x1="389.63" y1="308.97" x2="387.97" y2="302.17"/><line class="g" x1="389.63" y1="310.96" x2="389.63" y2="308.97"/><line class="g" x1="390.53" y1="314.12" x2="389.63" y2="310.96"/><line class="g" x1="390.53" y1="317.44" x2="390.53" y2="314.12"/><line class="g" x1="389.63" y1="320.61" x2="390.53" y2="317.44"/><line class="g" x1="389.63" y1="322.59" x2="389.63" y2="320.61"/><line class="g" x1="387.97" y1="329.4" x2="389.63" y2="322.59"/><line class="g" x1="386.31" y1="329.4" x2="387.97" y2="329.4"/><line class="g" x1="386.31" y1="320.1" x2="386.31" y2="329.4"/><line class="g" x1="385.11" y1="318.62" x2="386.31" y2="320.1"/><line class="g" x1="384.47" y1="316.77" x2="385.11" y2="318.62"/><line class="g" x1="384.47" y1="314.79" x2="384.47" y2="316.77"/><line class="g" x1="385.11" y1="312.94" x2="384.47" y2="314.79"/><line class="g" x1="386.31" y1="311.47" x2="385.11" y2="312.94"/><line class="g" x1="386.31" y1="302.17" x2="386.31" y2="329.4"/><line class="g" x1="389.63" y1="322.59" x2="389.63" y2="308.97"/><line class="g" x1="387.97" y1="302.17" x2="386.31" y2="302.17"/><line class="g" x1="386.97" y1="327.59" x2="386.97" y2="325.77"/><line class="g" x1="386.97" y1="325.77" x2="387.39" y2="325.77"/><line class="g" x1="387.39" y1="325.77" x2="387.39" y2="327.59"/><line class="g" x1="387.39" y1="327.59" x2="386.97" y2="327.59"/><line class="g" x1="386.97" y1="325.32" x2="386.97" y2="323.5"/><line class="g" x1="386.97" y1="323.5" x2="387.39" y2="323.5"/><line class="g" x1="387.39" y1="323.5" x2="387.39" y2="325.32"/><line class="g" x1="387.39" y1="325.32" x2="386.97" y2="325.32"/><line class="g" x1="387.97" y1="302.17" x2="387.97" y2="329.4"/><line class="g" x1="387.39" y1="323.05" x2="386.97" y2="323.05"/><line class="g" x1="386.97" y1="323.05" x2="386.97" y2="322.14"/><line class="g" x1="386.97" y1="322.14" x2="387.39" y2="322.14"/><line class="g" x1="387.39" y1="322.14" x2="387.39" y2="323.05"/><g class="h"><path class="g" d="M386.31,320.1a5.81,5.81,0,0,1,0-8.63"/></g><polygon class="f" points="311.82 304.59 312.36 304.27 312.41 303.65 312.41 281.55 312.44 281.13 312.21 280.78 311.81 280.65 287.63 280.65 287.2 280.82 287.03 281.25 287.03 342.77 287.2 343.19 287.63 343.36 309.43 343.36 310.92 342.96 312.01 341.87 312.41 340.38 312.41 339.48 312.24 339.06 311.81 338.88 312.25 338.53 312.41 337.99 312.41 305.44 312.25 304.92 311.82 304.59"/><polygon class="f" points="331.82 304.54 334.11 304.09 336.05 302.79 337.34 300.85 337.8 298.57 337.8 286.62 337.34 284.34 336.05 282.4 334.11 281.1 331.82 280.65 313.31 280.65 312.67 280.91 312.41 281.55 312.41 303.64 312.67 304.28 313.31 304.54 331.82 304.54"/><line class="g" x1="313.31" y1="304.54" x2="331.82" y2="304.54"/><g class="h"><path class="g" d="M313.31,304.54a.9.9,0,0,1-.9-.9"/></g><line class="g" x1="312.41" y1="281.55" x2="312.41" y2="303.65"/><g class="h"><path class="g" d="M312.41,281.55a.9.9,0,0,1,.9-.9"/></g><line class="g" x1="331.82" y1="280.65" x2="313.31" y2="280.65"/><g class="h"><path class="g" d="M331.82,280.65a6,6,0,0,1,6,6"/></g><line class="g" x1="337.8" y1="298.57" x2="337.8" y2="286.62"/><g class="h"><path class="g" d="M337.8,298.57a6,6,0,0,1-6,6"/></g><line class="g" x1="312.41" y1="339.48" x2="312.41" y2="340.38"/><line class="g" x1="309.43" y1="343.36" x2="287.62" y2="343.36"/><line class="g" x1="287.03" y1="342.77" x2="287.03" y2="339.48"/><line class="g" x1="287.62" y1="338.88" x2="311.81" y2="338.88"/><line class="g" x1="287.03" y1="339.48" x2="287.03" y2="304.54"/><line class="g" x1="287.03" y1="304.54" x2="289.12" y2="304.54"/><line class="g" x1="312.41" y1="305.44" x2="312.41" y2="337.99"/><line class="g" x1="311.52" y1="338.88" x2="296.54" y2="338.88"/><line class="g" x1="296.54" y1="304.54" x2="311.52" y2="304.54"/><line class="g" x1="289.12" y1="338.88" x2="294.75" y2="338.88"/><line class="g" x1="294.75" y1="304.54" x2="289.12" y2="304.54"/><line class="g" x1="312.41" y1="284.53" x2="312.41" y2="281.25"/><line class="g" x1="311.81" y1="280.65" x2="287.63" y2="280.65"/><line class="g" x1="287.03" y1="281.25" x2="287.03" y2="284.53"/><line class="g" x1="287.03" y1="284.53" x2="287.03" y2="304.54"/><line class="g" x1="287.03" y1="304.54" x2="289.12" y2="304.54"/><line class="g" x1="312.41" y1="303.65" x2="312.41" y2="286.03"/><line class="g" x1="296.54" y1="304.54" x2="311.52" y2="304.54"/><line class="g" x1="296.54" y1="304.54" x2="289.12" y2="304.54"/><line class="g" x1="337.8" y1="298.57" x2="337.8" y2="286.62"/><line class="g" x1="331.82" y1="280.65" x2="313.31" y2="280.65"/><line class="g" x1="312.41" y1="281.55" x2="312.41" y2="303.65"/><line class="g" x1="313.31" y1="304.54" x2="331.82" y2="304.54"/><line class="g" x1="288.22" y1="303.65" x2="288.22" y2="281.55"/><line class="g" x1="288.22" y1="305.44" x2="288.22" y2="337.99"/><g class="h"><path class="g" d="M287.62,343.36a.58.58,0,0,1-.59-.59"/><path class="g" d="M287,339.48a.59.59,0,0,1,.59-.6"/><path class="g" d="M311.81,338.88a.6.6,0,0,1,.6.6"/><path class="g" d="M312.41,338a.9.9,0,0,1-.9.9"/><path class="g" d="M311.52,304.54a.89.89,0,0,1,.89.9"/><path class="g" d="M311.81,280.65a.6.6,0,0,1,.6.6"/><path class="g" d="M287,281.25a.59.59,0,0,1,.59-.6"/><path class="g" d="M312.41,303.65a.89.89,0,0,1-.9.89"/><path class="g" d="M312.41,281.55a.9.9,0,0,1,.9-.9"/><path class="g" d="M313.31,304.54a.9.9,0,0,1-.9-.9"/></g><line class="g" x1="288.22" y1="281.55" x2="308.57" y2="281.55"/><g class="h"><path class="g" d="M291.7,303.68a16.72,16.72,0,0,1-.61-4.5,16.92,16.92,0,0,1,13.37-16.55"/><path class="g" d="M292.4,305.44a101.75,101.75,0,0,1,0,32.55"/><path class="g" d="M337.8,298.57a6,6,0,0,1-6,6"/><path class="g" d="M331.82,280.65a6,6,0,0,1,6,6"/><path class="g" d="M312.41,340.38a3,3,0,0,1-3,3"/></g><polygon class="f" points="327.49 356.75 329.38 354.27 331.85 352.36 334.73 351.16 337.81 350.75 334.47 344.96 333.38 343.87 331.89 343.47 330.4 343.87 325.23 346.87 324.14 347.97 323.75 349.46 324.15 350.96 327.49 356.75"/><polygon class="f" points="337.85 374.69 334.76 374.29 331.88 373.09 329.41 371.2 327.51 368.72 324.19 374.52 323.79 376.02 324.19 377.51 325.28 378.61 330.45 381.59 331.94 381.99 333.44 381.59 334.52 380.49 337.85 374.69"/><polygon class="f" points="348.15 356.72 349.35 359.61 349.76 362.7 349.36 365.8 348.17 368.69 354.84 368.68 356.33 368.28 357.42 367.18 357.82 365.68 357.81 359.7 357.41 358.2 356.31 357.11 354.82 356.71 348.15 356.72"/><polygon class="f" points="337.81 350.75 334.73 351.16 331.85 352.36 329.38 354.27 327.49 356.75 326.31 359.64 325.9 362.74 326.31 365.83 327.51 368.72 329.41 371.2 331.88 373.09 334.76 374.29 337.85 374.69 340.94 374.28 343.81 373.08 346.28 371.17 348.17 368.69 349.36 365.8 349.76 362.7 349.35 359.6 348.15 356.72 346.25 354.24 343.78 352.34 340.9 351.15 337.81 350.75"/><line class="g" x1="340.9" y1="351.15" x2="337.81" y2="350.75"/><line class="g" x1="343.78" y1="352.34" x2="340.9" y2="351.15"/><line class="g" x1="346.25" y1="354.24" x2="343.78" y2="352.34"/><line class="g" x1="348.15" y1="356.72" x2="346.25" y2="354.24"/><line class="g" x1="349.35" y1="359.6" x2="348.15" y2="356.72"/><line class="g" x1="349.76" y1="362.7" x2="349.35" y2="359.61"/><line class="g" x1="349.36" y1="365.8" x2="349.76" y2="362.7"/><line class="g" x1="348.17" y1="368.69" x2="349.36" y2="365.8"/><line class="g" x1="346.28" y1="371.17" x2="348.17" y2="368.69"/><line class="g" x1="343.81" y1="373.08" x2="346.28" y2="371.17"/><line class="g" x1="340.94" y1="374.28" x2="343.81" y2="373.08"/><line class="g" x1="337.85" y1="374.69" x2="340.94" y2="374.28"/><line class="g" x1="334.76" y1="374.29" x2="337.85" y2="374.69"/><line class="g" x1="331.88" y1="373.09" x2="334.76" y2="374.29"/><line class="g" x1="329.41" y1="371.2" x2="331.88" y2="373.09"/><line class="g" x1="327.51" y1="368.72" x2="329.41" y2="371.2"/><line class="g" x1="326.31" y1="365.83" x2="327.51" y2="368.72"/><line class="g" x1="325.9" y1="362.74" x2="326.31" y2="365.83"/><line class="g" x1="326.3" y1="359.64" x2="325.9" y2="362.74"/><line class="g" x1="327.49" y1="356.75" x2="326.3" y2="359.64"/><line class="g" x1="329.38" y1="354.27" x2="327.49" y2="356.75"/><line class="g" x1="331.85" y1="352.36" x2="329.38" y2="354.27"/><line class="g" x1="334.73" y1="351.16" x2="331.85" y2="352.36"/><line class="g" x1="337.81" y1="350.75" x2="334.73" y2="351.16"/><g class="h"><path class="g" d="M349.76,362.7a11.93,11.93,0,1,1-23.86,0"/><path class="g" d="M325.9,362.74a11.93,11.93,0,1,1,23.86,0"/></g><line class="g" x1="325.98" y1="348.16" x2="331.14" y2="345.16"/><line class="g" x1="334.47" y1="344.96" x2="337.81" y2="350.75"/><line class="g" x1="325.23" y1="346.87" x2="330.39" y2="343.87"/><line class="g" x1="327.49" y1="356.75" x2="324.15" y2="350.96"/><line class="g" x1="331.2" y1="380.29" x2="326.03" y2="377.31"/><line class="g" x1="324.19" y1="374.52" x2="327.51" y2="368.72"/><line class="g" x1="330.45" y1="381.59" x2="325.28" y2="378.61"/><line class="g" x1="337.85" y1="374.69" x2="334.53" y2="380.49"/><line class="g" x1="356.32" y1="359.7" x2="356.32" y2="365.68"/><line class="g" x1="354.84" y1="368.68" x2="348.17" y2="368.69"/><line class="g" x1="357.81" y1="359.7" x2="357.82" y2="365.68"/><line class="g" x1="348.15" y1="356.72" x2="354.82" y2="356.71"/><g class="h"><path class="g" d="M331.14,345.16a1.53,1.53,0,0,1,.75-.2,1.5,1.5,0,0,1,1.29.75"/><path class="g" d="M325.44,350.21a1.53,1.53,0,0,1-.2-.75,1.51,1.51,0,0,1,.74-1.3"/><path class="g" d="M330.4,343.87a3.08,3.08,0,0,1,1.49-.41,3,3,0,0,1,2.58,1.5"/><path class="g" d="M324.15,351a3,3,0,0,1-.4-1.5,3,3,0,0,1,1.49-2.59"/><path class="g" d="M326,377.31a1.49,1.49,0,0,1-.55-2"/><path class="g" d="M333.23,379.74a1.46,1.46,0,0,1-1.29.75,1.43,1.43,0,0,1-.75-.2"/><path class="g" d="M325.28,378.61a3,3,0,0,1-1.49-2.59,2.93,2.93,0,0,1,.4-1.5"/><path class="g" d="M334.53,380.49a3,3,0,0,1-2.59,1.5,3,3,0,0,1-1.49-.4"/><path class="g" d="M356.33,365.68h0a1.5,1.5,0,0,1-1.49,1.5"/><path class="g" d="M354.82,358.2a1.5,1.5,0,0,1,1.5,1.5"/><path class="g" d="M357.82,365.68a3,3,0,0,1-3,3"/><path class="g" d="M354.82,356.71h0a3,3,0,0,1,3,3"/></g><polygon class="f" points="453.38 418.32 437.85 418.32 437.53 418.19 437.4 417.88 437.4 405.63 437.53 405.31 437.85 405.18 453.38 405.18 453.69 405.31 453.82 405.63 453.82 417.88 453.69 418.19 453.38 418.32"/><line class="g" x1="453.38" y1="418.32" x2="437.85" y2="418.32"/><g class="h"><path class="g" d="M437.85,418.32a.45.45,0,0,1-.45-.44"/></g><line class="g" x1="437.4" y1="417.88" x2="437.4" y2="405.63"/><g class="h"><path class="g" d="M437.4,405.63a.45.45,0,0,1,.45-.45"/></g><line class="g" x1="437.85" y1="405.18" x2="453.38" y2="405.18"/><g class="h"><path class="g" d="M453.38,405.18a.45.45,0,0,1,.45.45"/></g><line class="g" x1="453.83" y1="405.63" x2="453.83" y2="417.88"/><g class="h"><path class="g" d="M453.83,417.88a.45.45,0,0,1-.45.44"/></g><line class="g" x1="452.48" y1="415.04" x2="438.74" y2="415.04"/><line class="g" x1="438.3" y1="414.59" x2="438.3" y2="406.53"/><line class="g" x1="438.74" y1="406.08" x2="452.48" y2="406.08"/><line class="g" x1="452.93" y1="406.53" x2="452.93" y2="414.59"/><g class="h"><path class="g" d="M438.74,415a.45.45,0,0,1-.44-.45"/><path class="g" d="M438.3,406.53a.45.45,0,0,1,.44-.45"/><path class="g" d="M452.48,406.08a.45.45,0,0,1,.45.45"/><path class="g" d="M452.93,414.59a.45.45,0,0,1-.45.45"/></g><polygon class="f" points="446.36 416.53 446.24 415.28 446.14 414.99 445.94 413.41 445.83 413.2 445.61 413.12 445.39 413.2 445.28 413.41 445.08 414.99 444.99 415.28 444.87 416.53 445.08 417.06 445.61 417.28 446.14 417.06 446.36 416.53"/><g class="h"><path class="g" d="M446.36,416.53a.76.76,0,0,1-.75.75.75.75,0,0,1-.74-.75"/></g><line class="g" x1="444.99" y1="415.28" x2="444.87" y2="416.53"/><g class="h"><path class="g" d="M445,415.28a.62.62,0,0,1,.09-.29"/></g><line class="g" x1="445.28" y1="413.41" x2="445.08" y2="414.99"/><g class="h"><path class="g" d="M445.28,413.41a.34.34,0,0,1,.33-.29.33.33,0,0,1,.33.29"/></g><line class="g" x1="446.14" y1="414.99" x2="445.94" y2="413.41"/><g class="h"><path class="g" d="M446.14,415a.63.63,0,0,1,.1.29"/></g><line class="g" x1="446.36" y1="416.53" x2="446.24" y2="415.28"/><line class="g" x1="445.21" y1="415.79" x2="445.21" y2="415.34"/><line class="g" x1="446.02" y1="415.34" x2="446.02" y2="415.79"/><line class="g" x1="446.02" y1="415.79" x2="445.21" y2="415.79"/><g class="h"><path class="g" d="M445.21,415.34a.41.41,0,0,1,.81,0"/><path class="g" d="M445.08,415a.63.63,0,0,1,.53-.28.61.61,0,0,1,.53.28"/></g><rect class="d" x="396.34" y="274.68" width="17.92" height="35.84"/><line class="g" x1="414.26" y1="310.51" x2="414.26" y2="274.68"/><line class="g" x1="414.26" y1="274.68" x2="396.34" y2="274.68"/><line class="g" x1="396.34" y1="274.68" x2="396.34" y2="310.51"/><line class="g" x1="396.34" y1="310.51" x2="414.26" y2="310.51"/><line class="g" x1="405.3" y1="308.72" x2="405.3" y2="276.47"/><line class="g" x1="410.57" y1="307.06" x2="399.83" y2="304.03"/><line class="g" x1="411.1" y1="303.64" x2="401.11" y2="302.39"/><line class="g" x1="398.84" y1="298.98" x2="409.8" y2="297.94"/><line class="g" x1="400.27" y1="293.69" x2="409.8" y2="295.09"/><line class="g" x1="399.73" y1="291.76" x2="411.46" y2="291.76"/><line class="g" x1="399.68" y1="286.32" x2="411.27" y2="287.61"/><line class="g" x1="399.87" y1="284.28" x2="410.46" y2="284.28"/><line class="g" x1="399.76" y1="278.9" x2="410.62" y2="277.87"/><line class="g" x1="400.5" y1="280.2" x2="409.68" y2="281.25"/><rect class="d" x="396.34" y="310.51" width="17.92" height="35.84"/><line class="g" x1="414.26" y1="346.35" x2="414.26" y2="310.51"/><line class="g" x1="414.26" y1="310.51" x2="396.34" y2="310.51"/><line class="g" x1="396.34" y1="310.51" x2="396.34" y2="346.35"/><line class="g" x1="396.34" y1="346.35" x2="414.26" y2="346.35"/><line class="g" x1="405.3" y1="344.56" x2="405.3" y2="312.31"/><line class="g" x1="410.57" y1="342.9" x2="399.83" y2="339.86"/><line class="g" x1="411.1" y1="339.48" x2="401.11" y2="338.23"/><line class="g" x1="398.84" y1="334.81" x2="409.8" y2="333.78"/><line class="g" x1="400.27" y1="329.53" x2="409.8" y2="330.93"/><line class="g" x1="399.73" y1="327.6" x2="411.46" y2="327.6"/><line class="g" x1="399.68" y1="322.15" x2="411.27" y2="323.45"/><line class="g" x1="399.87" y1="320.11" x2="410.46" y2="320.11"/><line class="g" x1="399.76" y1="314.74" x2="410.62" y2="313.71"/><line class="g" x1="400.5" y1="316.03" x2="409.68" y2="317.08"/><polygon class="f" points="472.04 418.32 472.04 408.47 471.81 406.99 471.14 405.65 470.1 404.59 468.4 403.7 466.52 403.39 464.63 403.7 462.93 404.59 461.89 405.65 461.22 406.99 460.99 408.47 460.99 418.32 472.04 418.32"/><line class="g" x1="460.99" y1="418.32" x2="460.99" y2="408.47"/><line class="g" x1="460.99" y1="418.32" x2="472.04" y2="418.32"/><line class="g" x1="472.04" y1="418.32" x2="472.04" y2="408.47"/><line class="g" x1="462.78" y1="414.74" x2="462.78" y2="408.47"/><line class="g" x1="470.25" y1="414.74" x2="470.25" y2="408.47"/><line class="g" x1="470.25" y1="414.74" x2="462.79" y2="414.74"/><g class="h"><path class="g" d="M461,408.47a4.84,4.84,0,0,1,1.94-3.88"/><path class="g" d="M470.1,404.59a4.84,4.84,0,0,1,1.94,3.88"/><path class="g" d="M462.93,404.59a6,6,0,0,1,7.17,0"/><path class="g" d="M470.1,404.59a4.84,4.84,0,0,1,1.94,3.88"/><path class="g" d="M466.52,403.39a5.93,5.93,0,0,1,3.58,1.2"/><path class="g" d="M469,406a3.07,3.07,0,0,1,1.22,2.45"/><path class="g" d="M464,406a4.19,4.19,0,0,1,2.51-.84A4.23,4.23,0,0,1,469,406"/><path class="g" d="M462.78,408.47A3.08,3.08,0,0,1,464,406"/></g><line class="g" x1="319.34" y1="416.16" x2="319.34" y2="411.16"/><line class="g" x1="319.34" y1="411.16" x2="321.38" y2="412.8"/><line class="g" x1="321.38" y1="412.8" x2="323.41" y2="411.16"/><line class="g" x1="323.41" y1="411.16" x2="323.41" y2="416.16"/><polygon class="i" points="427.69 429.97 427.69 422.8 506.83 422.8 506.83 274.68 514 274.68 514 422.8 514 429.97 427.69 429.97"/><polygon class="i" points="276.58 422.8 276.58 274.68 283.75 274.68 283.75 422.8 394.84 422.8 394.84 429.97 276.58 429.97 276.58 422.8"/><rect x="374.84" y="262.73" width="58.98" height="5.97"/><polygon class="i" points="276.58 262.73 280.02 262.73 300.17 262.73 300.17 268.7 276.58 268.7 276.58 262.73"/><rect x="276.58" y="268.7" width="22.1" height="5.97"/><rect x="492.05" y="268.7" width="21.95" height="5.97"/><rect x="376.33" y="268.7" width="56" height="5.97"/><polygon class="i" points="514 268.7 490.56 268.7 490.56 262.73 510.72 262.73 514 262.73 514 268.7"/><rect x="373.94" y="404.88" width="2.09" height="17.92"/><polygon class="i" points="397.83 374.42 397.83 376.51 376.03 376.51 376.03 378.01 373.94 378.01 373.94 374.42 394.25 374.42 394.25 274.68 396.34 274.68 396.34 374.42 397.83 374.42"/><rect x="427.69" y="401.9" width="2.09" height="20.91"/><polygon class="i" points="506.83 374.42 506.83 376.51 429.78 376.51 429.78 378.01 427.69 378.01 427.69 376.51 424.71 376.51 424.71 374.42 506.83 374.42"/><rect x="394.84" y="426.54" width="1.49" height="3.44"/><rect x="426.2" y="426.54" width="1.49" height="3.44"/><polygon class="i" points="479.96 422.8 479.96 404.88 506.83 404.88 506.83 407.87 482.94 407.87 482.94 422.8 479.96 422.8"/><rect x="280.02" y="200.02" width="1.2" height="62.71"/><rect x="509.22" y="201.51" width="1.49" height="61.22"/><polygon class="i" points="373.94 410.86 351.54 410.86 351.54 422.8 348.55 422.8 348.55 407.87 373.94 407.87 373.94 410.86"/><line class="g" x1="276.58" y1="429.97" x2="514" y2="429.97"/><line class="g" x1="514" y1="429.97" x2="514" y2="262.73"/><line class="g" x1="514" y1="262.73" x2="510.72" y2="262.73"/><line class="g" x1="510.72" y1="262.73" x2="510.72" y2="188.15"/><line class="g" x1="510.72" y1="188.15" x2="280.02" y2="188.15"/><line class="g" x1="280.02" y1="188.15" x2="280.02" y2="262.73"/><line class="g" x1="280.02" y1="262.73" x2="276.58" y2="262.73"/><line class="g" x1="276.58" y1="262.73" x2="276.58" y2="429.97"/><path class="j" d="M425.1,238.48v7h-.72v-6.36h-1.65v-.64Z"/><path class="j" d="M426.78,245a.53.53,0,0,1,.53-.54.54.54,0,0,1,.54.54.55.55,0,0,1-.54.55A.54.54,0,0,1,426.78,245Z"/><path class="j" d="M428.79,242c0-2.23,1.17-3.56,2.79-3.56s2.8,1.33,2.8,3.56-1.18,3.55-2.8,3.55S428.79,244.21,428.79,242Zm4.85,0c0-1.87-.84-2.9-2.06-2.9s-2.06,1-2.06,2.9.84,2.9,2.06,2.9S433.64,243.85,433.64,242Z"/><path class="j" d="M440.16,243.42c0,1.19-.83,2.11-2.54,2.11a3.61,3.61,0,0,1-2.51-.89l.35-.57a3,3,0,0,0,2.15.81c1.19,0,1.82-.58,1.82-1.43s-.56-1.46-2.34-1.46H435.6l.36-3.51h3.83v.64h-3.2l-.24,2.23h.9C439.36,241.35,440.16,242.18,440.16,243.42Z"/><path class="j" d="M443.89,386.57v7h-.72v-6.36h-1.65v-.64Z"/><path class="j" d="M445.57,393.07a.53.53,0,0,1,.53-.54.54.54,0,1,1,0,1.08A.53.53,0,0,1,445.57,393.07Z"/><path class="j" d="M447.58,390.07c0-2.23,1.17-3.56,2.79-3.56s2.8,1.33,2.8,3.56-1.18,3.55-2.8,3.55S447.58,392.3,447.58,390.07Zm4.85,0c0-1.87-.84-2.9-2.06-2.9s-2.06,1-2.06,2.9.84,2.9,2.06,2.9S452.43,391.94,452.43,390.07Z"/><path class="j" d="M460.15,391.73h-1.4v1.84H458v-1.84h-3.95v-.52l3.71-4.64h.8L455,391.09h3v-1.62h.7v1.62h1.4Z"/><path class="j" d="M425.1,324.84v7h-.72v-6.36h-1.65v-.64Z"/><path class="j" d="M426.78,331.34a.53.53,0,0,1,.53-.54.54.54,0,0,1,.54.54.55.55,0,0,1-.54.55A.54.54,0,0,1,426.78,331.34Z"/><path class="j" d="M428.79,328.34c0-2.23,1.17-3.56,2.79-3.56s2.8,1.33,2.8,3.56-1.18,3.56-2.8,3.56S428.79,330.57,428.79,328.34Zm4.85,0c0-1.87-.84-2.9-2.06-2.9s-2.06,1-2.06,2.9.84,2.9,2.06,2.9S433.64,330.21,433.64,328.34Z"/><path class="j" d="M440,329.83c0,1.17-.85,2.07-2.54,2.07a3.64,3.64,0,0,1-2.52-.9l.35-.57a3.07,3.07,0,0,0,2.17.81c1.16,0,1.8-.54,1.8-1.41s-.59-1.39-1.89-1.39h-.5v-.53l1.94-2.43h-3.58v-.64h4.5v.51l-2,2.49C439.2,327.92,440,328.71,440,329.83Z"/><path class="j" d="M347.53,324.84v7h-.72v-6.36h-1.65v-.64Z"/><path class="j" d="M349.21,331.34a.53.53,0,0,1,.53-.54.54.54,0,0,1,.54.54.55.55,0,0,1-.54.55A.54.54,0,0,1,349.21,331.34Z"/><path class="j" d="M351.22,328.34c0-2.23,1.17-3.56,2.79-3.56s2.8,1.33,2.8,3.56-1.18,3.56-2.8,3.56S351.22,330.57,351.22,328.34Zm4.85,0c0-1.87-.84-2.9-2.06-2.9s-2.06,1-2.06,2.9.84,2.9,2.06,2.9S356.07,330.21,356.07,328.34Z"/><path class="j" d="M362.61,331.2v.64H357.7v-.51l2.91-2.85c.79-.78.94-1.25.94-1.73,0-.81-.57-1.31-1.64-1.31a2.38,2.38,0,0,0-1.91.78l-.51-.44a3.15,3.15,0,0,1,2.48-1c1.42,0,2.32.72,2.32,1.89a2.88,2.88,0,0,1-1.15,2.19l-2.38,2.34Z"/><path class="j" d="M385.44,386.57v7h-.72v-6.36h-1.65v-.64Z"/><path class="j" d="M387.12,393.07a.53.53,0,0,1,.53-.54.54.54,0,0,1,0,1.08A.53.53,0,0,1,387.12,393.07Z"/><path class="j" d="M389.13,390.07c0-2.23,1.17-3.56,2.79-3.56s2.8,1.33,2.8,3.56-1.18,3.55-2.8,3.55S389.13,392.3,389.13,390.07Zm4.85,0c0-1.87-.84-2.9-2.06-2.9s-2.06,1-2.06,2.9.84,2.9,2.06,2.9S394,391.94,394,390.07Z"/><path class="j" d="M397.68,386.57v7H397v-6.36h-1.65v-.64Z"/></svg>