<svg xmlns="http://www.w3.org/2000/svg" xmlns:xlink="http://www.w3.org/1999/xlink" viewBox="0 0 790.58 618.13"><defs><style>.a,.f{fill:none;}.b{fill:#595a5c;}.c{fill:#b6906c;}.d,.h{fill:#fff;}.e{fill:#231f20;}.f{stroke:#000;stroke-linecap:round;stroke-linejoin:round;stroke-width:0.34px;}.g{clip-path:url(#a);}.h,.i{fill-rule:evenodd;}.j{fill:#58595b;}</style><clipPath id="a"><polygon class="a" points="244.67 170.44 244.67 255.98 240.73 255.98 240.73 447.68 549.85 447.68 549.85 255.98 545.57 255.98 545.57 170.44 244.67 170.44"/></clipPath></defs><path class="b" d="M55.31,597.13H57.1V609.9H55.31Zm.92,6.11h4.09a1.89,1.89,0,0,0,1-.27,1.82,1.82,0,0,0,.68-.77,2.67,2.67,0,0,0,.24-1.16,2.7,2.7,0,0,0-.24-1.16,1.82,1.82,0,0,0-1.7-1H56.23v-1.7h4a4.09,4.09,0,0,1,2,.48A3.45,3.45,0,0,1,63.62,599a4.64,4.64,0,0,1,0,4.11,3.34,3.34,0,0,1-1.35,1.36,4,4,0,0,1-2,.49h-4Z"/><path class="b" d="M67.7,606.33a2.07,2.07,0,0,0,.49,1.48,1.76,1.76,0,0,0,1.37.52,1.89,1.89,0,0,0,1.37-.46,1.79,1.79,0,0,0,.48-1.33l.12,1.91A2.58,2.58,0,0,1,69.06,610a2.89,2.89,0,0,1-2.33-1,4.08,4.08,0,0,1-.82-2.73v-5.55H67.7Zm.22-7.86a1.93,1.93,0,0,1-.56-1.5,2.07,2.07,0,0,1,.56-1.57,2.56,2.56,0,0,1,3.18,0,2.08,2.08,0,0,1,.57,1.56,1.94,1.94,0,0,1-.57,1.5,2.65,2.65,0,0,1-3.18,0Zm2.26-.86a.94.94,0,0,0,.24-.68,1,1,0,0,0-.24-.7.91.91,0,0,0-.67-.25.92.92,0,0,0-.67.25,1,1,0,0,0-.23.7,1,1,0,0,0,.23.68.92.92,0,0,0,.67.24A.9.9,0,0,0,70.18,597.61Zm1.23,3.17h1.78v9.12H71.41Z"/><path class="b" d="M77.1,609.63A2.82,2.82,0,0,1,76,608.36a5.08,5.08,0,0,1-.36-2v-2a5.05,5.05,0,0,1,.36-2,2.71,2.71,0,0,1,1-1.27,3,3,0,0,1,1.65-.44,2.71,2.71,0,0,1,1.48.42,3.22,3.22,0,0,1,1.09,1.19l-.18,1.86a2.19,2.19,0,0,0-.22-1,1.48,1.48,0,0,0-.61-.63,2,2,0,0,0-1-.21,1.71,1.71,0,0,0-1.37.55,2.26,2.26,0,0,0-.49,1.56v2a2.19,2.19,0,0,0,.49,1.54,1.74,1.74,0,0,0,1.37.54,1.93,1.93,0,0,0,1-.23,1.45,1.45,0,0,0,.61-.64,2.25,2.25,0,0,0,.22-1l.12,1.92a2.66,2.66,0,0,1-.89,1.14,2.56,2.56,0,0,1-1.53.45A3.19,3.19,0,0,1,77.1,609.63Zm4-12.5H82.9V609.9H81.11Z"/><path class="b" d="M87.09,609.57a3.09,3.09,0,0,1-1.29-1.36,4.85,4.85,0,0,1-.44-2.15v-1.48a4.71,4.71,0,0,1,.44-2.12,3.12,3.12,0,0,1,1.29-1.35,4.71,4.71,0,0,1,4.06,0,3.12,3.12,0,0,1,1.29,1.35,4.71,4.71,0,0,1,.44,2.12v1.51a4.79,4.79,0,0,1-.44,2.13,3.12,3.12,0,0,1-1.29,1.35,4.62,4.62,0,0,1-4.06,0Zm3.49-1.83a2.43,2.43,0,0,0,.51-1.65v-1.51a2.43,2.43,0,0,0-.51-1.65,1.88,1.88,0,0,0-1.46-.58,1.85,1.85,0,0,0-1.45.58,2.38,2.38,0,0,0-.52,1.65v1.51a2.38,2.38,0,0,0,.52,1.65,1.82,1.82,0,0,0,1.45.59A1.85,1.85,0,0,0,90.58,607.74Z"/><path class="b" d="M95.43,600.78h1.79v9.12H95.43Zm4.42,1.72a2.16,2.16,0,0,0-.83-.15,1.83,1.83,0,0,0-1.33.47,1.79,1.79,0,0,0-.47,1.31L97,602.37a3.32,3.32,0,0,1,1.09-1.27,2.58,2.58,0,0,1,1.48-.45,3.39,3.39,0,0,1,1.13.18,2.62,2.62,0,0,1,.88.53l-1.17,1.58A1.56,1.56,0,0,0,99.85,602.5Z"/><path class="b" d="M102.15,600.78H104l2.81,7.93-1,1.94Zm8.07,0L106.34,612a2.6,2.6,0,0,1-.56,1,1.87,1.87,0,0,1-.84.52,4,4,0,0,1-1.23.16h-.36V612h.36a1.46,1.46,0,0,0,.8-.2,1.74,1.74,0,0,0,.51-.7l3.38-10.31Z"/><path class="b" d="M113.51,609.88a5.76,5.76,0,0,1-1.32-.48,4.89,4.89,0,0,1-1.13-.79l1.06-1.31a5.86,5.86,0,0,0,1.47.85,4.18,4.18,0,0,0,1.44.28,3.11,3.11,0,0,0,1.6-.33,1.1,1.1,0,0,0,.53-1,.79.79,0,0,0-.29-.66,1.66,1.66,0,0,0-.72-.29c-.29,0-.69-.1-1.22-.14h-.15l-.14,0h-.15a6.45,6.45,0,0,1-1.5-.26,2,2,0,0,1-1-.7,2.38,2.38,0,0,1-.41-1.49,3.07,3.07,0,0,1,.39-1.61,2.41,2.41,0,0,1,1.18-1,5.29,5.29,0,0,1,2-.32,6.38,6.38,0,0,1,2.6.52,6.16,6.16,0,0,1,1.13.66l-1.08,1.31a5.59,5.59,0,0,0-1.35-.66,4,4,0,0,0-1.3-.22,2.44,2.44,0,0,0-1.37.31,1.08,1.08,0,0,0-.46.94.64.64,0,0,0,.26.55,1.72,1.72,0,0,0,.66.25c.26,0,.64.07,1.12.1h.34a7.67,7.67,0,0,1,1.63.25,2.24,2.24,0,0,1,1.13.77,2.62,2.62,0,0,1,.45,1.65,2.92,2.92,0,0,1-.42,1.63,2.54,2.54,0,0,1-1.27,1A5.88,5.88,0,0,1,115,610,7.38,7.38,0,0,1,113.51,609.88Z"/><path class="b" d="M126,597.13h1.8V609.9H126Zm2.6,12.5a2.39,2.39,0,0,1-.93-1.16l.13-1.91a2.22,2.22,0,0,0,.21,1,1.48,1.48,0,0,0,.61.63,1.93,1.93,0,0,0,1,.22,1.74,1.74,0,0,0,1.37-.54,2.18,2.18,0,0,0,.49-1.53v-2a2.26,2.26,0,0,0-.49-1.56,1.71,1.71,0,0,0-1.37-.55,2,2,0,0,0-1,.21,1.36,1.36,0,0,0-.61.62,2.12,2.12,0,0,0-.21,1l-.19-1.76a3.37,3.37,0,0,1,1.08-1.24,2.67,2.67,0,0,1,1.49-.43,3,3,0,0,1,1.65.43,2.9,2.9,0,0,1,1.06,1.27,5.1,5.1,0,0,1,.36,2v2a4.94,4.94,0,0,1-.37,2,2.79,2.79,0,0,1-1.08,1.26,3.25,3.25,0,0,1-1.71.44A2.73,2.73,0,0,1,128.57,609.63Z"/><path class="b" d="M134.46,600.78h1.82l2.81,7.93-1,1.94Zm8.07,0L138.65,612a2.6,2.6,0,0,1-.56,1,1.87,1.87,0,0,1-.84.52,4,4,0,0,1-1.23.16h-.36V612H136a1.46,1.46,0,0,0,.8-.2,1.74,1.74,0,0,0,.51-.7l3.37-10.31Z"/><path class="b" d="M143.57,600.78h4.12v1.62h-4.12Zm1.46,8.56a2.77,2.77,0,0,1-.52-1.81v-9.4h1.8v9.42a.84.84,0,0,0,.13.51.46.46,0,0,0,.39.18h.86V610h-1A2,2,0,0,1,145,609.34Z"/><path class="b" d="M151.94,606.33a2.07,2.07,0,0,0,.49,1.48,1.76,1.76,0,0,0,1.37.52,1.91,1.91,0,0,0,1.37-.46,1.79,1.79,0,0,0,.48-1.33l.12,1.91A2.58,2.58,0,0,1,153.3,610a2.89,2.89,0,0,1-2.33-1,4.08,4.08,0,0,1-.82-2.73v-5.55h1.79Zm3.71-5.55h1.78v9.12h-1.78Z"/><rect class="c" x="612.92" y="591.68" width="35.43" height="2.83"/><path class="d" d="M648.48,594.64H612.79v-3.08h35.69ZM613,594.39h35.19v-2.58H613Z"/><rect class="c" x="612.92" y="601.6" width="70.74" height="2.83"/><path class="d" d="M683.78,604.56h-71v-3.08h71ZM613,604.31h70.49v-2.58H613Z"/><rect class="c" x="612.92" y="612.72" width="177.16" height="2.84"/><path class="d" d="M790.21,615.68H612.79V612.6H790.21ZM613,615.43H790v-2.58H613Z"/><path class="e" d="M587.26,596.28h-.8v-4.82l-.81.5v-.83l.81-.53h.8Z"/><path class="e" d="M589,595.91a1.67,1.67,0,0,1-.41-1.19v-2.58A1.65,1.65,0,0,1,589,591a2,2,0,0,1,2.42,0,1.65,1.65,0,0,1,.41,1.19v2.58a1.65,1.65,0,0,1-.41,1.19,2,2,0,0,1-2.42,0Zm1.83-.55a.89.89,0,0,0,.2-.64v-2.58a.89.89,0,0,0-.2-.64.82.82,0,0,0-.62-.22.86.86,0,0,0-.63.22.94.94,0,0,0-.2.64v2.58a.9.9,0,0,0,.21.64,1,1,0,0,0,1.24,0Z"/><path class="e" d="M593.22,595.91a1.67,1.67,0,0,1-.41-1.19v-2.58a1.65,1.65,0,0,1,.41-1.19,2,2,0,0,1,2.42,0,1.61,1.61,0,0,1,.41,1.19v2.58a1.65,1.65,0,0,1-.41,1.19,2,2,0,0,1-2.42,0Zm1.83-.55a.9.9,0,0,0,.21-.64v-2.58a.94.94,0,0,0-.2-.64.86.86,0,0,0-.63-.22.82.82,0,0,0-.62.22.89.89,0,0,0-.2.64v2.58a.89.89,0,0,0,.2.64,1,1,0,0,0,1.24,0Z"/><path class="e" d="M600.1,596.13a1.45,1.45,0,0,1-.6-.6,2.06,2.06,0,0,1-.21-1v-.67a2,2,0,0,1,.21-.94,1.37,1.37,0,0,1,.6-.59,2,2,0,0,1,.95-.21,2.21,2.21,0,0,1,.59.08,1.68,1.68,0,0,1,.51.22,1.54,1.54,0,0,1,.37.35l-.58.52a1.17,1.17,0,0,0-.4-.3,1.13,1.13,0,0,0-.48-.11.94.94,0,0,0-.71.26,1,1,0,0,0-.26.72v.67a1,1,0,0,0,.25.74.94.94,0,0,0,.72.27,1,1,0,0,0,.48-.12,1,1,0,0,0,.4-.32l.58.56a1.38,1.38,0,0,1-.38.34,1.62,1.62,0,0,1-.5.22,2.27,2.27,0,0,1-.59.07A2.12,2.12,0,0,1,600.1,596.13Z"/><path class="e" d="M603.4,592.22h.79v4.06h-.79Zm2.42,1.6a1,1,0,0,0-.21-.67.78.78,0,0,0-.6-.23.81.81,0,0,0-.6.21.73.73,0,0,0-.22.58l-.08-.78a1.46,1.46,0,0,1,.49-.57,1.22,1.22,0,0,1,.67-.2,1.33,1.33,0,0,1,.73.2,1.18,1.18,0,0,1,.46.56,2.4,2.4,0,0,1,.15.89v2.47h-.79Zm2.42,0a.93.93,0,0,0-.22-.67.85.85,0,0,0-.63-.23.72.72,0,0,0-.57.23.9.9,0,0,0-.21.64l-.16-.78a1.61,1.61,0,0,1,.51-.63,1.23,1.23,0,0,1,.69-.22,1.37,1.37,0,0,1,.75.2,1.09,1.09,0,0,1,.47.56,2.21,2.21,0,0,1,.17.89v2.47h-.8Z"/><path class="e" d="M584.33,605.5l2-2.64a1.85,1.85,0,0,0,.27-.47,1.29,1.29,0,0,0,.09-.45h0a.67.67,0,0,0-.2-.53.81.81,0,0,0-.56-.19.76.76,0,0,0-.56.21,1,1,0,0,0-.27.58h-.82a2,2,0,0,1,.29-.83,1.42,1.42,0,0,1,.56-.53,1.67,1.67,0,0,1,.79-.18,1.93,1.93,0,0,1,.87.17,1.21,1.21,0,0,1,.54.51,1.55,1.55,0,0,1,.19.8h0a1.84,1.84,0,0,1-.12.63,2.8,2.8,0,0,1-.35.63l-1.65,2.24h2.15v.76h-3.2Z"/><path class="e" d="M589,605.83a1.67,1.67,0,0,1-.41-1.19v-2.58a1.65,1.65,0,0,1,.41-1.19,2,2,0,0,1,2.42,0,1.65,1.65,0,0,1,.41,1.19v2.58a1.65,1.65,0,0,1-.41,1.19,2,2,0,0,1-2.42,0Zm1.83-.55a.89.89,0,0,0,.2-.64v-2.58a.89.89,0,0,0-.2-.64.82.82,0,0,0-.62-.22.86.86,0,0,0-.63.22.94.94,0,0,0-.19.64v2.58a.89.89,0,0,0,.2.64,1,1,0,0,0,1.24,0Z"/><path class="e" d="M593.22,605.83a1.67,1.67,0,0,1-.41-1.19v-2.58a1.61,1.61,0,0,1,.42-1.19,1.59,1.59,0,0,1,1.2-.42,1.45,1.45,0,0,1,1.62,1.61v2.58a1.61,1.61,0,0,1-.41,1.19,2,2,0,0,1-2.42,0Zm1.84-.55a.94.94,0,0,0,.2-.64v-2.58a.94.94,0,0,0-.2-.64.84.84,0,0,0-.63-.22.82.82,0,0,0-.62.22.89.89,0,0,0-.2.64v2.58a.89.89,0,0,0,.2.64.82.82,0,0,0,.62.22A.86.86,0,0,0,595.06,605.28Z"/><path class="e" d="M600.1,606.05a1.45,1.45,0,0,1-.6-.6,2.06,2.06,0,0,1-.2-1v-.67a2,2,0,0,1,.2-.94,1.37,1.37,0,0,1,.6-.59,2,2,0,0,1,.95-.21,2.35,2.35,0,0,1,.6.08,1.73,1.73,0,0,1,.5.22,1.38,1.38,0,0,1,.37.35l-.58.52a1.08,1.08,0,0,0-.4-.3,1.13,1.13,0,0,0-.48-.11,1,1,0,0,0-.71.26,1,1,0,0,0-.26.72v.67a1,1,0,0,0,.25.74.94.94,0,0,0,.72.27,1.14,1.14,0,0,0,.88-.44l.58.56a1.38,1.38,0,0,1-.38.34,1.62,1.62,0,0,1-.5.22,2.22,2.22,0,0,1-.59.07A2.12,2.12,0,0,1,600.1,606.05Z"/><path class="e" d="M603.4,602.14h.79v4.06h-.79Zm2.42,1.6a1,1,0,0,0-.21-.67.78.78,0,0,0-.6-.23.81.81,0,0,0-.6.21.73.73,0,0,0-.22.58l-.08-.78a1.46,1.46,0,0,1,.49-.57,1.22,1.22,0,0,1,.67-.2,1.3,1.3,0,0,1,.73.2,1.18,1.18,0,0,1,.46.56,2.4,2.4,0,0,1,.16.89v2.47h-.8Zm2.42,0a.93.93,0,0,0-.22-.67.85.85,0,0,0-.63-.23.73.73,0,0,0-.57.23.89.89,0,0,0-.2.64l-.16-.78a1.51,1.51,0,0,1,.5-.63,1.23,1.23,0,0,1,.69-.22,1.35,1.35,0,0,1,.75.2,1.16,1.16,0,0,1,.48.56,2.4,2.4,0,0,1,.16.89v2.47h-.8Z"/><path class="e" d="M585,615.58a1.34,1.34,0,0,1-.54-.49,2,2,0,0,1-.28-.77h.8a.75.75,0,0,0,.25.49.85.85,0,0,0,.54.17.72.72,0,0,0,.59-.25,1.1,1.1,0,0,0,.21-.72v-.48a1.1,1.1,0,0,0-.21-.72.72.72,0,0,0-.59-.25.83.83,0,0,0-.4.11,1.18,1.18,0,0,0-.34.33h-.72v-3h2.89v.76h-2.1V612a1,1,0,0,1,.34-.18.94.94,0,0,1,.37-.07,1.68,1.68,0,0,1,.84.2,1.29,1.29,0,0,1,.53.6,2.07,2.07,0,0,1,.19.94V614a2.25,2.25,0,0,1-.19.94,1.31,1.31,0,0,1-.55.59,1.69,1.69,0,0,1-.86.21A1.74,1.74,0,0,1,585,615.58Z"/><path class="e" d="M589,615.32a1.65,1.65,0,0,1-.41-1.19v-2.58a1.67,1.67,0,0,1,.41-1.19,2,2,0,0,1,2.42,0,1.65,1.65,0,0,1,.41,1.19v2.58a1.64,1.64,0,0,1-.41,1.19,1.92,1.92,0,0,1-2.42,0Zm1.83-.55a.89.89,0,0,0,.2-.64v-2.58a.88.88,0,0,0-.2-.63.78.78,0,0,0-.62-.22.82.82,0,0,0-.63.22.93.93,0,0,0-.2.63v2.58a.9.9,0,0,0,.21.64,1,1,0,0,0,1.24,0Z"/><path class="e" d="M593.22,615.32a1.65,1.65,0,0,1-.41-1.19v-2.58a1.67,1.67,0,0,1,.41-1.19,2,2,0,0,1,2.42,0,1.61,1.61,0,0,1,.41,1.19v2.58a1.64,1.64,0,0,1-.41,1.19,1.92,1.92,0,0,1-2.42,0Zm1.83-.55a.9.9,0,0,0,.21-.64v-2.58a.93.93,0,0,0-.2-.63.82.82,0,0,0-.63-.22.78.78,0,0,0-.62.22.88.88,0,0,0-.2.63v2.58a.89.89,0,0,0,.2.64,1,1,0,0,0,1.24,0Z"/><path class="e" d="M600.1,615.54a1.45,1.45,0,0,1-.6-.6,2,2,0,0,1-.21-1v-.67a2,2,0,0,1,.21-.94,1.45,1.45,0,0,1,.6-.6,2,2,0,0,1,.95-.2,2.22,2.22,0,0,1,.59.07,2,2,0,0,1,.51.22,1.76,1.76,0,0,1,.37.35l-.58.52a1.17,1.17,0,0,0-.4-.3,1.13,1.13,0,0,0-.48-.11.94.94,0,0,0-.71.26,1,1,0,0,0-.26.73V614a1.07,1.07,0,0,0,.25.74,1,1,0,0,0,.72.26,1.13,1.13,0,0,0,.48-.11,1.26,1.26,0,0,0,.4-.32l.58.55a1.42,1.42,0,0,1-.38.35,1.88,1.88,0,0,1-.5.21,2.27,2.27,0,0,1-.59.08A2,2,0,0,1,600.1,615.54Z"/><path class="e" d="M603.4,611.63h.79v4.06h-.79Zm2.42,1.6a1,1,0,0,0-.21-.66.75.75,0,0,0-.6-.24.81.81,0,0,0-.6.21.75.75,0,0,0-.22.58l-.08-.78a1.5,1.5,0,0,1,.49-.56,1.15,1.15,0,0,1,.67-.2,1.32,1.32,0,0,1,.73.19,1.28,1.28,0,0,1,.46.56,2.42,2.42,0,0,1,.15.9v2.46h-.79Zm2.42,0a.91.91,0,0,0-.22-.66.82.82,0,0,0-.63-.24.72.72,0,0,0-.57.23.9.9,0,0,0-.21.64l-.16-.78a1.51,1.51,0,0,1,.51-.62,1.16,1.16,0,0,1,.69-.22,1.37,1.37,0,0,1,.75.19,1.18,1.18,0,0,1,.47.56,2.22,2.22,0,0,1,.17.9v2.46h-.8Z"/><path class="c" d="M23.49,613.89A12.92,12.92,0,1,1,36.4,601,12.93,12.93,0,0,1,23.49,613.89Zm0-24.83A11.92,11.92,0,1,0,35.4,601,11.93,11.93,0,0,0,23.49,589.06Z"/><polygon class="d" points="35.77 588.74 9.42 600.98 35.77 613.21 32.02 600.98 35.77 588.74"/><path class="c" d="M36.58,614.14,8.23,601l28.35-13.17-4,13.17ZM10.61,601,35,612.29,31.5,601,35,589.66Z"/><path class="c" d="M2.52,605.19a5,5,0,0,1-1.11-.38,4.4,4.4,0,0,1-1-.64l.81-1a3.72,3.72,0,0,0,1.16.69,4.08,4.08,0,0,0,1.38.23,2.73,2.73,0,0,0,1.55-.38,1.17,1.17,0,0,0,.55-1.05h0a1.12,1.12,0,0,0-.25-.77,1.44,1.44,0,0,0-.64-.42,8.23,8.23,0,0,0-1-.25H3.89l-.1,0a9.48,9.48,0,0,1-1.5-.36,2.08,2.08,0,0,1-1-.73,2.42,2.42,0,0,1-.41-1.51h0a2.77,2.77,0,0,1,.38-1.47,2.44,2.44,0,0,1,1.12-.92,4.48,4.48,0,0,1,1.77-.32,4.6,4.6,0,0,1,1,.11,4.9,4.9,0,0,1,1.86.86l-.73,1a4.61,4.61,0,0,0-1-.58,3,3,0,0,0-1.06-.2,2.44,2.44,0,0,0-1.46.38,1.24,1.24,0,0,0-.53,1.07h0a1,1,0,0,0,.27.75,1.74,1.74,0,0,0,.67.4,9.3,9.3,0,0,0,1.12.27h.24a7.93,7.93,0,0,1,1.4.41,2.22,2.22,0,0,1,.94.76,2.4,2.4,0,0,1,.38,1.43h0a2.62,2.62,0,0,1-.4,1.45,2.54,2.54,0,0,1-1.16.91,4.8,4.8,0,0,1-1.83.31A6.44,6.44,0,0,1,2.52,605.19Z"/><rect class="c" x="612.5" y="600.68" width="1" height="4.68"/><rect class="c" x="612.5" y="590.76" width="1" height="4.68"/><rect class="c" x="612.5" y="611.45" width="1" height="5.24"/><rect class="c" x="789.58" y="611.45" width="1" height="5.24"/><rect class="c" x="682.59" y="600.68" width="1" height="4.68"/><rect class="c" x="647.3" y="590.76" width="1" height="4.68"/><rect class="a" width="790.34" height="618.13"/><rect class="d" x="249.8" y="375.28" width="27.39" height="41.08"/><line class="f" x1="249.8" y1="375.28" x2="249.8" y2="416.36"/><line class="f" x1="277.19" y1="375.28" x2="249.8" y2="375.28"/><line class="f" x1="277.19" y1="416.36" x2="277.19" y2="375.28"/><line class="f" x1="249.8" y1="416.36" x2="277.19" y2="416.36"/><rect class="d" x="444.07" y="418.59" width="97.56" height="20.88"/><line class="f" x1="541.64" y1="439.47" x2="444.07" y2="439.47"/><line class="f" x1="444.07" y1="439.47" x2="444.07" y2="418.59"/><line class="f" x1="444.07" y1="418.59" x2="541.64" y2="418.59"/><line class="f" x1="541.64" y1="418.59" x2="541.64" y2="439.47"/><rect class="d" x="520.75" y="367.24" width="20.88" height="51.35"/><line class="f" x1="520.75" y1="367.24" x2="520.75" y2="418.59"/><line class="f" x1="541.64" y1="367.24" x2="520.75" y2="367.24"/><line class="f" x1="541.64" y1="418.59" x2="541.64" y2="367.24"/><line class="f" x1="520.75" y1="418.59" x2="541.63" y2="418.59"/><line class="f" x1="549.85" y1="356.97" x2="549.85" y2="356.97"/><line class="f" x1="549.85" y1="439.47" x2="549.85" y2="439.47"/><line class="f" x1="549.85" y1="356.97" x2="549.85" y2="439.47"/><rect class="d" x="337.95" y="418.93" width="20.54" height="20.54"/><line class="f" x1="337.95" y1="418.93" x2="337.95" y2="439.47"/><line class="f" x1="358.49" y1="418.93" x2="337.95" y2="418.93"/><line class="f" x1="358.49" y1="439.47" x2="358.49" y2="418.93"/><line class="f" x1="337.95" y1="439.47" x2="358.49" y2="439.47"/><line class="f" x1="420.11" y1="422.35" x2="420.11" y2="418.93"/><line class="f" x1="549.85" y1="439.47" x2="549.85" y2="439.47"/><line class="f" x1="240.73" y1="255.98" x2="244.67" y2="255.98"/><line class="f" x1="244.67" y1="255.98" x2="289.68" y2="255.98"/><line class="f" x1="243.47" y1="255.98" x2="244.67" y2="255.98"/><line class="f" x1="244.67" y1="255.98" x2="246.21" y2="255.98"/><line class="f" x1="375.27" y1="255.98" x2="426.61" y2="255.98"/><line class="f" x1="512.2" y1="255.98" x2="545.57" y2="255.98"/><line class="f" x1="545.57" y1="255.98" x2="549.85" y2="255.98"/><line class="f" x1="544.2" y1="255.98" x2="545.57" y2="255.98"/><line class="f" x1="545.57" y1="255.98" x2="546.94" y2="255.98"/><line class="f" x1="248.95" y1="269.67" x2="287.97" y2="269.67"/><line class="f" x1="376.98" y1="269.67" x2="397.86" y2="269.67"/><line class="f" x1="404.71" y1="269.67" x2="424.9" y2="269.67"/><line class="f" x1="513.91" y1="269.67" x2="541.64" y2="269.67"/><line class="f" x1="549.85" y1="269.67" x2="549.85" y2="269.67"/><line class="f" x1="240.73" y1="262.83" x2="287.97" y2="262.83"/><line class="f" x1="376.98" y1="262.83" x2="424.9" y2="262.83"/><line class="f" x1="513.91" y1="262.83" x2="549.85" y2="262.83"/><line class="f" x1="549.85" y1="269.67" x2="549.85" y2="439.47"/><line class="f" x1="541.64" y1="269.67" x2="541.64" y2="439.47"/><line class="f" x1="244.67" y1="182.38" x2="545.57" y2="182.38"/><line class="f" x1="246.38" y1="204.63" x2="247.15" y2="204.63"/><line class="f" x1="250.92" y1="204.63" x2="251.69" y2="204.63"/><line class="f" x1="255.45" y1="204.63" x2="262.3" y2="204.63"/><line class="f" x1="266.06" y1="204.63" x2="266.83" y2="204.63"/><line class="f" x1="270.6" y1="204.63" x2="271.37" y2="204.63"/><line class="f" x1="275.13" y1="204.63" x2="281.98" y2="204.63"/><line class="f" x1="285.75" y1="204.63" x2="286.52" y2="204.63"/><line class="f" x1="290.28" y1="204.63" x2="291.05" y2="204.63"/><line class="f" x1="294.82" y1="204.63" x2="301.66" y2="204.63"/><line class="f" x1="305.43" y1="204.63" x2="306.2" y2="204.63"/><line class="f" x1="309.97" y1="204.63" x2="310.74" y2="204.63"/><line class="f" x1="314.5" y1="204.63" x2="321.35" y2="204.63"/><line class="f" x1="325.11" y1="204.63" x2="325.88" y2="204.63"/><line class="f" x1="329.65" y1="204.63" x2="330.42" y2="204.63"/><line class="f" x1="334.19" y1="204.63" x2="341.03" y2="204.63"/><line class="f" x1="344.8" y1="204.63" x2="345.57" y2="204.63"/><line class="f" x1="349.33" y1="204.63" x2="350.1" y2="204.63"/><line class="f" x1="353.87" y1="204.63" x2="360.72" y2="204.63"/><line class="f" x1="364.48" y1="204.63" x2="365.25" y2="204.63"/><line class="f" x1="369.02" y1="204.63" x2="369.79" y2="204.63"/><line class="f" x1="373.55" y1="204.63" x2="380.4" y2="204.63"/><line class="f" x1="384.17" y1="204.63" x2="384.94" y2="204.63"/><line class="f" x1="388.7" y1="204.63" x2="389.47" y2="204.63"/><line class="f" x1="393.24" y1="204.63" x2="400.08" y2="204.63"/><line class="f" x1="403.85" y1="204.63" x2="404.62" y2="204.63"/><line class="f" x1="408.38" y1="204.63" x2="409.15" y2="204.63"/><line class="f" x1="412.92" y1="204.63" x2="419.77" y2="204.63"/><line class="f" x1="423.53" y1="204.63" x2="424.3" y2="204.63"/><line class="f" x1="428.07" y1="204.63" x2="428.84" y2="204.63"/><line class="f" x1="432.6" y1="204.63" x2="439.45" y2="204.63"/><line class="f" x1="443.22" y1="204.63" x2="443.99" y2="204.63"/><line class="f" x1="447.75" y1="204.63" x2="448.52" y2="204.63"/><line class="f" x1="452.29" y1="204.63" x2="459.13" y2="204.63"/><line class="f" x1="462.9" y1="204.63" x2="463.67" y2="204.63"/><line class="f" x1="467.44" y1="204.63" x2="468.21" y2="204.63"/><line class="f" x1="471.97" y1="204.63" x2="478.82" y2="204.63"/><line class="f" x1="482.58" y1="204.63" x2="483.35" y2="204.63"/><line class="f" x1="487.12" y1="204.63" x2="487.89" y2="204.63"/><line class="f" x1="491.66" y1="204.63" x2="498.5" y2="204.63"/><line class="f" x1="502.27" y1="204.63" x2="503.04" y2="204.63"/><line class="f" x1="506.8" y1="204.63" x2="507.57" y2="204.63"/><line class="f" x1="511.34" y1="204.63" x2="518.19" y2="204.63"/><line class="f" x1="521.95" y1="204.63" x2="522.72" y2="204.63"/><line class="f" x1="526.49" y1="204.63" x2="527.26" y2="204.63"/><line class="f" x1="531.02" y1="204.63" x2="537.87" y2="204.63"/><line class="f" x1="541.64" y1="204.63" x2="542.41" y2="204.63"/><line class="f" x1="543" y1="204.63" x2="545.57" y2="204.63"/><line class="f" x1="248.95" y1="417.22" x2="248.95" y2="374.42"/><line class="f" x1="248.95" y1="367.58" x2="248.95" y2="269.67"/><line class="f" x1="397.86" y1="367.58" x2="397.86" y2="269.67"/><line class="f" x1="404.71" y1="372.03" x2="404.71" y2="269.67"/><line class="f" x1="444.07" y1="439.47" x2="541.64" y2="439.47"/><line class="f" x1="417.71" y1="413.79" x2="420.11" y2="413.79"/><line class="f" x1="417.71" y1="382.98" x2="420.11" y2="382.98"/><line class="f" x1="373.9" y1="367.58" x2="373.9" y2="374.42"/><line class="f" x1="409.84" y1="443.75" x2="409.84" y2="447.68"/><line class="f" x1="373.9" y1="443.75" x2="373.9" y2="447.68"/><line class="f" x1="409.84" y1="443.75" x2="409.84" y2="447.68"/><line class="f" x1="409.84" y1="443.75" x2="411.55" y2="443.75"/><line class="f" x1="411.55" y1="439.47" x2="404.71" y2="439.47"/><line class="f" x1="400.94" y1="439.47" x2="400.17" y2="439.47"/><line class="f" x1="396.4" y1="439.47" x2="395.63" y2="439.47"/><line class="f" x1="391.87" y1="439.47" x2="385.02" y2="439.47"/><line class="f" x1="381.26" y1="439.47" x2="380.74" y2="439.47"/><line class="f" x1="380.74" y1="439.47" x2="373.9" y2="439.47"/><line class="f" x1="408.13" y1="443.75" x2="377.32" y2="443.75"/><line class="f" x1="408.13" y1="443.75" x2="408.13" y2="412.94"/><g class="g"><path class="f" d="M377.32,443.75a30.8,30.8,0,0,1,30.81-30.81"/></g><line class="f" x1="408.13" y1="447.68" x2="408.13" y2="443.75"/><line class="f" x1="377.32" y1="443.75" x2="377.32" y2="447.68"/><line class="f" x1="377.32" y1="443.75" x2="375.61" y2="443.75"/><line class="f" x1="409.84" y1="443.75" x2="408.13" y2="443.75"/><line class="f" x1="287.97" y1="269.67" x2="322.21" y2="269.67"/><line class="f" x1="320.49" y1="255.98" x2="344.46" y2="255.98"/><line class="f" x1="342.74" y1="262.83" x2="322.2" y2="262.83"/><line class="f" x1="322.2" y1="269.67" x2="342.74" y2="269.67"/><line class="f" x1="246.21" y1="185.8" x2="246.21" y2="255.98"/><line class="f" x1="544.2" y1="185.8" x2="544.2" y2="255.98"/><line class="f" x1="544.2" y1="185.8" x2="545.57" y2="185.8"/><line class="f" x1="244.67" y1="185.8" x2="246.21" y2="185.8"/><line class="f" x1="335.56" y1="439.47" x2="337.95" y2="439.47"/><line class="f" x1="420.11" y1="439.47" x2="423.53" y2="439.47"/><line class="f" x1="335.56" y1="374.43" x2="337.95" y2="374.43"/><line class="f" x1="404.71" y1="372.03" x2="404.71" y2="374.42"/><line class="f" x1="287.97" y1="269.67" x2="287.97" y2="262.83"/><line class="f" x1="289.68" y1="262.83" x2="289.68" y2="255.98"/><line class="f" x1="322.2" y1="269.67" x2="322.2" y2="262.83"/><line class="f" x1="320.49" y1="262.83" x2="320.49" y2="255.98"/><line class="f" x1="289.68" y1="255.98" x2="320.49" y2="255.98"/><line class="f" x1="287.97" y1="262.83" x2="289.68" y2="262.83"/><line class="f" x1="322.2" y1="262.83" x2="320.49" y2="262.83"/><line class="f" x1="290.71" y1="263.51" x2="290.71" y2="262.83"/><line class="f" x1="290.71" y1="262.83" x2="287.97" y2="262.83"/><line class="f" x1="287.97" y1="262.83" x2="287.97" y2="265.57"/><line class="f" x1="287.97" y1="265.57" x2="289.34" y2="265.57"/><line class="f" x1="320.84" y1="263.51" x2="289.34" y2="263.51"/><line class="f" x1="289.34" y1="263.51" x2="289.34" y2="266.25"/><line class="f" x1="319.47" y1="263.51" x2="319.47" y2="262.83"/><line class="f" x1="319.47" y1="262.83" x2="322.2" y2="262.83"/><line class="f" x1="322.2" y1="262.83" x2="322.2" y2="265.57"/><line class="f" x1="322.2" y1="265.57" x2="320.84" y2="265.57"/><line class="f" x1="320.84" y1="263.51" x2="320.84" y2="266.25"/><line class="f" x1="292.08" y1="264.88" x2="318.1" y2="264.88"/><line class="f" x1="376.98" y1="269.67" x2="376.98" y2="262.83"/><line class="f" x1="342.74" y1="269.67" x2="376.98" y2="269.67"/><line class="f" x1="375.27" y1="262.83" x2="375.27" y2="255.98"/><line class="f" x1="376.98" y1="262.83" x2="375.27" y2="262.83"/><line class="f" x1="344.46" y1="262.83" x2="344.46" y2="255.98"/><line class="f" x1="344.46" y1="259.4" x2="375.26" y2="259.4"/><line class="f" x1="375.61" y1="263.51" x2="375.61" y2="297.74"/><line class="f" x1="345.48" y1="263.51" x2="345.48" y2="262.83"/><line class="f" x1="345.48" y1="262.83" x2="342.74" y2="262.83"/><line class="f" x1="342.74" y1="262.83" x2="342.74" y2="265.57"/><line class="f" x1="342.74" y1="265.57" x2="344.11" y2="265.57"/><line class="f" x1="375.61" y1="263.51" x2="344.11" y2="263.51"/><line class="f" x1="344.11" y1="263.51" x2="344.11" y2="266.25"/><line class="f" x1="374.24" y1="263.51" x2="374.24" y2="262.83"/><line class="f" x1="374.24" y1="262.83" x2="376.98" y2="262.83"/><line class="f" x1="376.98" y1="262.83" x2="376.98" y2="265.57"/><line class="f" x1="376.98" y1="265.57" x2="375.61" y2="265.57"/><line class="f" x1="372.87" y1="266.25" x2="372.87" y2="263.51"/><line class="f" x1="346.85" y1="264.88" x2="372.87" y2="264.88"/><g class="g"><path class="f" d="M375.61,297.74a31.49,31.49,0,0,1-31.5-31.49"/></g><line class="f" x1="342.74" y1="269.67" x2="342.74" y2="262.83"/><line class="f" x1="342.74" y1="262.83" x2="344.46" y2="262.83"/><line class="f" x1="375.27" y1="255.98" x2="368.42" y2="255.98"/><line class="f" x1="364.65" y1="255.98" x2="363.88" y2="255.98"/><line class="f" x1="360.12" y1="255.98" x2="359.35" y2="255.98"/><line class="f" x1="355.58" y1="255.98" x2="351.3" y2="255.98"/><line class="f" x1="351.3" y1="255.98" x2="344.46" y2="255.98"/><line class="f" x1="513.91" y1="269.67" x2="513.91" y2="262.83"/><line class="f" x1="424.9" y1="269.67" x2="424.9" y2="262.83"/><line class="f" x1="426.61" y1="262.83" x2="426.61" y2="255.98"/><line class="f" x1="424.9" y1="262.83" x2="426.61" y2="262.83"/><line class="f" x1="512.2" y1="262.83" x2="512.2" y2="255.98"/><line class="f" x1="513.91" y1="262.83" x2="512.2" y2="262.83"/><line class="f" x1="513.91" y1="269.67" x2="424.9" y2="269.67"/><line class="f" x1="512.2" y1="255.98" x2="457.42" y2="255.98"/><line class="f" x1="457.42" y1="262.83" x2="457.42" y2="255.98"/><line class="f" x1="457.42" y1="255.98" x2="450.58" y2="255.98"/><line class="f" x1="446.81" y1="255.98" x2="446.04" y2="255.98"/><line class="f" x1="442.28" y1="255.98" x2="441.51" y2="255.98"/><line class="f" x1="437.74" y1="255.98" x2="433.46" y2="255.98"/><line class="f" x1="433.46" y1="255.98" x2="426.61" y2="255.98"/><line class="f" x1="457.42" y1="259.4" x2="426.61" y2="259.4"/><line class="f" x1="426.27" y1="263.51" x2="426.27" y2="297.74"/><line class="f" x1="459.13" y1="262.83" x2="459.13" y2="265.57"/><line class="f" x1="457.77" y1="263.51" x2="457.77" y2="266.25"/><line class="f" x1="429.01" y1="266.25" x2="429.01" y2="263.51"/><line class="f" x1="455.03" y1="264.88" x2="429.01" y2="264.88"/><g class="g"><path class="f" d="M457.77,266.25a31.5,31.5,0,0,1-31.5,31.5"/></g><line class="f" x1="427.64" y1="263.51" x2="427.64" y2="262.83"/><line class="f" x1="427.64" y1="262.83" x2="424.9" y2="262.83"/><line class="f" x1="424.9" y1="262.83" x2="424.9" y2="265.57"/><line class="f" x1="424.9" y1="265.57" x2="426.27" y2="265.57"/><line class="f" x1="461.87" y1="265.57" x2="461.87" y2="262.83"/><line class="f" x1="461.87" y1="264.2" x2="485.15" y2="264.2"/><line class="f" x1="511.17" y1="263.51" x2="511.17" y2="262.83"/><line class="f" x1="511.17" y1="262.83" x2="513.91" y2="262.83"/><line class="f" x1="513.91" y1="262.83" x2="513.91" y2="265.57"/><line class="f" x1="513.91" y1="265.57" x2="512.54" y2="265.57"/><line class="f" x1="512.54" y1="263.51" x2="512.54" y2="266.25"/><line class="f" x1="509.8" y1="264.88" x2="489.26" y2="264.88"/><line class="f" x1="485.15" y1="262.83" x2="485.15" y2="265.57"/><line class="f" x1="512.54" y1="263.51" x2="486.52" y2="263.51"/><line class="f" x1="486.52" y1="263.51" x2="486.52" y2="266.25"/><line class="f" x1="248.95" y1="367.58" x2="343.09" y2="367.58"/><line class="f" x1="373.9" y1="367.58" x2="397.86" y2="367.58"/><line class="f" x1="248.95" y1="374.43" x2="335.56" y2="374.43"/><line class="f" x1="343.09" y1="374.43" x2="343.09" y2="367.58"/><line class="f" x1="372.18" y1="367.58" x2="344.8" y2="367.58"/><line class="f" x1="372.18" y1="367.58" x2="372.18" y2="340.19"/><g class="g"><path class="f" d="M344.8,367.58a27.39,27.39,0,0,1,27.38-27.39"/></g><line class="f" x1="372.18" y1="374.43" x2="372.18" y2="367.58"/><line class="f" x1="344.8" y1="367.58" x2="344.8" y2="374.42"/><line class="f" x1="344.8" y1="367.58" x2="343.09" y2="367.58"/><line class="f" x1="344.8" y1="374.43" x2="343.09" y2="374.43"/><line class="f" x1="373.9" y1="367.58" x2="372.18" y2="367.58"/><line class="f" x1="373.9" y1="374.43" x2="372.18" y2="374.43"/><line class="f" x1="372.18" y1="374.43" x2="365.34" y2="374.43"/><line class="f" x1="361.57" y1="374.43" x2="360.8" y2="374.43"/><line class="f" x1="357.04" y1="374.43" x2="356.27" y2="374.43"/><line class="f" x1="352.5" y1="374.43" x2="351.64" y2="374.43"/><line class="f" x1="351.64" y1="374.43" x2="344.8" y2="374.43"/><line class="f" x1="372.18" y1="367.58" x2="372.18" y2="366.72"/><line class="f" x1="372.18" y1="366.72" x2="375.61" y2="366.72"/><line class="f" x1="375.61" y1="366.72" x2="375.61" y2="367.58"/><line class="f" x1="372.18" y1="374.43" x2="372.18" y2="375.28"/><line class="f" x1="372.18" y1="375.28" x2="375.61" y2="375.28"/><line class="f" x1="375.61" y1="375.28" x2="375.61" y2="374.43"/><line class="f" x1="344.8" y1="366.72" x2="341.37" y2="366.72"/><line class="f" x1="341.37" y1="366.72" x2="341.37" y2="367.58"/><line class="f" x1="344.8" y1="374.43" x2="344.8" y2="375.28"/><line class="f" x1="344.8" y1="375.28" x2="341.37" y2="375.28"/><line class="f" x1="341.37" y1="375.28" x2="341.37" y2="374.43"/><line class="f" x1="420.11" y1="412.08" x2="420.11" y2="384.69"/><line class="f" x1="420.11" y1="412.08" x2="447.5" y2="412.08"/><g class="g"><path class="f" d="M420.11,384.69a27.4,27.4,0,0,1,27.39,27.39"/></g><line class="f" x1="417.71" y1="412.08" x2="420.11" y2="412.08"/><line class="f" x1="420.11" y1="384.69" x2="417.71" y2="384.69"/><line class="f" x1="420.11" y1="384.69" x2="420.11" y2="382.98"/><line class="f" x1="417.71" y1="384.69" x2="417.71" y2="382.98"/><line class="f" x1="420.11" y1="413.79" x2="420.11" y2="412.08"/><line class="f" x1="417.71" y1="413.79" x2="417.71" y2="412.08"/><line class="f" x1="417.71" y1="412.08" x2="417.71" y2="405.23"/><line class="f" x1="417.71" y1="401.47" x2="417.71" y2="400.7"/><line class="f" x1="417.71" y1="396.93" x2="417.71" y2="396.16"/><line class="f" x1="417.71" y1="392.4" x2="417.71" y2="391.54"/><line class="f" x1="417.71" y1="391.54" x2="417.71" y2="384.69"/><line class="f" x1="420.11" y1="412.08" x2="420.96" y2="412.08"/><line class="f" x1="420.97" y1="412.08" x2="420.97" y2="415.5"/><line class="f" x1="420.97" y1="415.5" x2="420.11" y2="415.5"/><line class="f" x1="417.71" y1="412.08" x2="416.86" y2="412.08"/><line class="f" x1="416.86" y1="412.08" x2="416.86" y2="415.5"/><line class="f" x1="416.86" y1="415.5" x2="417.71" y2="415.5"/><line class="f" x1="420.97" y1="384.69" x2="420.97" y2="381.27"/><line class="f" x1="420.97" y1="381.27" x2="420.11" y2="381.27"/><line class="f" x1="417.71" y1="384.69" x2="416.86" y2="384.69"/><line class="f" x1="416.86" y1="384.69" x2="416.86" y2="381.27"/><line class="f" x1="416.86" y1="381.27" x2="417.71" y2="381.27"/><line class="f" x1="337.95" y1="408.66" x2="337.95" y2="384.69"/><line class="f" x1="337.95" y1="408.66" x2="361.91" y2="408.66"/><g class="g"><path class="f" d="M338,384.69a24,24,0,0,1,24,24"/></g><line class="f" x1="335.56" y1="408.66" x2="337.95" y2="408.66"/><line class="f" x1="337.95" y1="384.69" x2="335.56" y2="384.69"/><line class="f" x1="337.95" y1="384.69" x2="337.95" y2="382.98"/><line class="f" x1="335.56" y1="384.69" x2="335.56" y2="382.98"/><line class="f" x1="337.95" y1="410.37" x2="337.95" y2="408.66"/><line class="f" x1="335.56" y1="410.37" x2="335.56" y2="408.66"/><line class="f" x1="335.56" y1="408.66" x2="335.56" y2="401.81"/><line class="f" x1="335.56" y1="398.05" x2="335.56" y2="397.28"/><line class="f" x1="335.56" y1="393.51" x2="335.56" y2="392.74"/><line class="f" x1="335.56" y1="391.54" x2="335.56" y2="384.69"/><line class="f" x1="337.95" y1="408.66" x2="338.81" y2="408.66"/><line class="f" x1="338.81" y1="408.66" x2="338.81" y2="412.08"/><line class="f" x1="338.81" y1="412.08" x2="337.95" y2="412.08"/><line class="f" x1="335.56" y1="408.66" x2="334.7" y2="408.66"/><line class="f" x1="334.7" y1="408.66" x2="334.7" y2="412.08"/><line class="f" x1="334.7" y1="412.08" x2="335.55" y2="412.08"/><line class="f" x1="338.81" y1="384.69" x2="338.81" y2="381.27"/><line class="f" x1="338.81" y1="381.27" x2="337.95" y2="381.27"/><line class="f" x1="335.56" y1="384.69" x2="334.7" y2="384.69"/><line class="f" x1="334.7" y1="384.69" x2="334.7" y2="381.27"/><line class="f" x1="334.7" y1="381.27" x2="335.55" y2="381.27"/><line class="f" x1="397.52" y1="270.02" x2="376.98" y2="270.02"/><line class="f" x1="342.74" y1="269.67" x2="342.74" y2="279.94"/><line class="f" x1="342.74" y1="279.94" x2="376.98" y2="279.94"/><line class="f" x1="376.98" y1="279.94" x2="376.98" y2="269.67"/><line class="f" x1="424.9" y1="269.67" x2="424.9" y2="279.94"/><line class="f" x1="424.9" y1="279.94" x2="459.14" y2="279.94"/><line class="f" x1="459.13" y1="279.94" x2="459.13" y2="262.83"/><line class="f" x1="420.11" y1="422.35" x2="440.65" y2="422.35"/><line class="f" x1="440.65" y1="422.35" x2="440.65" y2="439.47"/><line class="f" x1="440.65" y1="439.47" x2="420.11" y2="439.47"/><line class="f" x1="420.11" y1="439.47" x2="420.11" y2="422.35"/><line class="f" x1="420.11" y1="418.93" x2="444.07" y2="418.93"/><line class="f" x1="444.07" y1="418.93" x2="444.07" y2="439.47"/><line class="f" x1="337.95" y1="439.47" x2="373.9" y2="439.47"/><line class="f" x1="335.56" y1="439.47" x2="335.56" y2="410.37"/><line class="f" x1="335.56" y1="382.98" x2="335.56" y2="374.42"/><line class="f" x1="337.95" y1="439.47" x2="337.95" y2="410.37"/><line class="f" x1="337.95" y1="382.98" x2="337.95" y2="374.42"/><line class="f" x1="417.71" y1="439.47" x2="417.71" y2="413.79"/><line class="f" x1="417.71" y1="382.98" x2="417.71" y2="374.42"/><line class="f" x1="420.11" y1="418.93" x2="420.11" y2="413.79"/><line class="f" x1="420.11" y1="382.98" x2="420.11" y2="372.03"/><line class="f" x1="404.71" y1="372.03" x2="420.11" y2="372.03"/><line class="f" x1="337.95" y1="374.43" x2="343.09" y2="374.43"/><line class="f" x1="373.9" y1="374.43" x2="417.71" y2="374.43"/><line class="f" x1="411.55" y1="439.47" x2="417.71" y2="439.47"/><line class="f" x1="335.56" y1="410.37" x2="337.95" y2="410.37"/><line class="f" x1="335.56" y1="382.98" x2="337.95" y2="382.98"/><line class="f" x1="373.9" y1="371" x2="373.9" y2="374.43"/><line class="f" x1="375.61" y1="443.75" x2="375.61" y2="447.68"/><line class="f" x1="411.55" y1="443.75" x2="411.55" y2="439.47"/><line class="f" x1="375.61" y1="443.75" x2="373.9" y2="443.75"/><line class="f" x1="373.9" y1="443.75" x2="373.9" y2="439.47"/><line class="f" x1="411.55" y1="443.75" x2="411.55" y2="447.68"/><line class="f" x1="245.87" y1="185.8" x2="245.87" y2="255.98"/><line class="f" x1="244.67" y1="255.98" x2="243.81" y2="255.98"/><line class="f" x1="245.87" y1="255.98" x2="244.67" y2="255.98"/><line class="f" x1="245.87" y1="187.86" x2="244.67" y2="187.86"/><line class="f" x1="544.54" y1="185.8" x2="544.54" y2="255.98"/><line class="f" x1="545.57" y1="255.98" x2="544.54" y2="255.98"/><line class="f" x1="546.6" y1="255.98" x2="545.57" y2="255.98"/><line class="f" x1="545.57" y1="187.86" x2="544.54" y2="187.86"/><line class="f" x1="272.91" y1="420.64" x2="272.91" y2="439.47"/><line class="f" x1="272.91" y1="439.47" x2="248.95" y2="439.47"/><line class="f" x1="248.95" y1="439.47" x2="248.95" y2="420.64"/><line class="f" x1="248.95" y1="420.64" x2="276.33" y2="420.64"/><line class="f" x1="248.95" y1="417.22" x2="276.33" y2="417.22"/><line class="f" x1="276.33" y1="417.22" x2="276.33" y2="420.64"/><line class="f" x1="276.33" y1="420.64" x2="276.33" y2="439.47"/><line class="f" x1="276.33" y1="439.47" x2="335.56" y2="439.47"/><line class="f" x1="248.95" y1="417.22" x2="248.95" y2="420.64"/><line class="f" x1="272.91" y1="439.47" x2="276.33" y2="439.47"/><line class="f" x1="420.11" y1="439.47" x2="417.71" y2="439.47"/><line class="f" x1="544.54" y1="185.8" x2="545.57" y2="185.8"/><line class="f" x1="544.54" y1="253.93" x2="545.57" y2="253.93"/><line class="f" x1="244.67" y1="185.8" x2="245.87" y2="185.8"/><line class="f" x1="244.67" y1="253.93" x2="245.87" y2="253.93"/><line class="f" x1="489.26" y1="266.25" x2="489.26" y2="263.51"/><line class="f" x1="486.52" y1="266.25" x2="512.54" y2="266.25"/><line class="f" x1="487.89" y1="263.51" x2="487.89" y2="262.83"/><line class="f" x1="509.8" y1="266.25" x2="509.8" y2="263.51"/><line class="f" x1="457.77" y1="263.51" x2="426.27" y2="263.51"/><line class="f" x1="426.27" y1="266.25" x2="457.77" y2="266.25"/><line class="f" x1="455.03" y1="266.25" x2="455.03" y2="263.51"/><line class="f" x1="486.52" y1="265.57" x2="457.77" y2="265.57"/><line class="f" x1="456.4" y1="263.51" x2="456.4" y2="262.83"/><line class="f" x1="456.4" y1="262.83" x2="487.89" y2="262.83"/><line class="f" x1="346.85" y1="266.25" x2="346.85" y2="263.51"/><line class="f" x1="344.11" y1="266.25" x2="375.61" y2="266.25"/><line class="f" x1="318.1" y1="266.25" x2="318.1" y2="263.51"/><line class="f" x1="292.08" y1="266.25" x2="292.08" y2="263.51"/><line class="f" x1="289.34" y1="266.25" x2="320.84" y2="266.25"/><line class="f" x1="275.48" y1="411.23" x2="275.48" y2="380.42"/><line class="f" x1="272.05" y1="376.99" x2="254.94" y2="376.99"/><line class="f" x1="251.51" y1="380.42" x2="251.51" y2="411.23"/><line class="f" x1="254.94" y1="414.65" x2="272.05" y2="414.65"/><line class="f" x1="282.84" y1="375.28" x2="282.84" y2="378.7"/><line class="f" x1="282.84" y1="378.7" x2="303.38" y2="378.7"/><line class="f" x1="303.38" y1="378.7" x2="303.38" y2="375.28"/><line class="f" x1="303.38" y1="375.28" x2="302.35" y2="375.28"/><line class="f" x1="302.35" y1="375.28" x2="302.35" y2="377.68"/><line class="f" x1="302.35" y1="377.68" x2="283.86" y2="377.68"/><line class="f" x1="283.86" y1="377.68" x2="283.86" y2="375.28"/><line class="f" x1="283.86" y1="375.28" x2="282.84" y2="375.28"/><line class="f" x1="282.84" y1="375.28" x2="282.84" y2="378.7"/><line class="f" x1="303.38" y1="375.28" x2="303.38" y2="378.7"/><line class="f" x1="283.86" y1="375.28" x2="283.86" y2="377.68"/><line class="f" x1="302.35" y1="375.28" x2="302.35" y2="377.68"/><line class="f" x1="282.84" y1="378.7" x2="303.38" y2="378.7"/><line class="f" x1="282.84" y1="377.68" x2="303.38" y2="377.68"/><line class="f" x1="282.84" y1="375.28" x2="283.87" y2="375.28"/><line class="f" x1="302.35" y1="375.28" x2="303.38" y2="375.28"/><line class="f" x1="464.95" y1="439.12" x2="464.95" y2="418.58"/><line class="f" x1="457.1" y1="426.44" x2="452.26" y2="431.28"/><line class="f" x1="452.26" y1="426.44" x2="457.1" y2="431.28"/><line class="f" x1="454.68" y1="432.28" x2="454.68" y2="425.43"/><line class="f" x1="458.11" y1="428.86" x2="451.26" y2="428.86"/><line class="f" x1="464.95" y1="418.59" x2="444.41" y2="418.59"/><line class="f" x1="465.81" y1="420.3" x2="484.64" y2="420.3"/><line class="f" x1="484.64" y1="420.3" x2="484.64" y2="437.41"/><line class="f" x1="484.64" y1="437.41" x2="465.81" y2="437.41"/><line class="f" x1="465.81" y1="437.41" x2="465.81" y2="420.3"/><line class="f" x1="464.95" y1="418.59" x2="485.49" y2="418.59"/><line class="f" x1="467.52" y1="422.01" x2="482.93" y2="422.01"/><line class="f" x1="482.93" y1="422.01" x2="482.93" y2="433.99"/><line class="f" x1="482.93" y1="433.99" x2="467.52" y2="433.99"/><line class="f" x1="467.52" y1="433.99" x2="467.52" y2="422.01"/><line class="f" x1="485.49" y1="439.12" x2="485.49" y2="418.58"/><line class="f" x1="485.49" y1="418.59" x2="506.03" y2="418.59"/><line class="f" x1="506.03" y1="418.59" x2="506.03" y2="439.13"/><line class="f" x1="549.85" y1="367.24" x2="549.85" y2="367.24"/><line class="f" x1="549.85" y1="387.78" x2="549.85" y2="387.78"/><line class="f" x1="541.29" y1="398.05" x2="520.75" y2="398.05"/><line class="f" x1="520.75" y1="398.05" x2="520.75" y2="377.51"/><line class="f" x1="520.75" y1="377.51" x2="541.29" y2="377.51"/><line class="f" x1="519.82" y1="380.31" x2="519.82" y2="395.25"/><line class="f" x1="413.66" y1="301.49" x2="413.66" y2="332.71"/><line class="f" x1="413.66" y1="332.71" x2="411.56" y2="332.71"/><line class="f" x1="411.56" y1="332.71" x2="409.46" y2="324.91"/><line class="f" x1="409.46" y1="324.91" x2="409.46" y2="309.29"/><line class="f" x1="409.46" y1="309.29" x2="411.56" y2="301.49"/><line class="f" x1="411.56" y1="301.49" x2="413.66" y2="301.49"/><line class="f" x1="412.82" y1="330.63" x2="412.82" y2="328.55"/><line class="f" x1="412.82" y1="328.55" x2="412.29" y2="328.55"/><line class="f" x1="412.29" y1="328.55" x2="412.29" y2="330.63"/><line class="f" x1="412.29" y1="330.63" x2="412.82" y2="330.63"/><line class="f" x1="412.82" y1="328.03" x2="412.82" y2="325.95"/><line class="f" x1="412.82" y1="325.95" x2="412.29" y2="325.95"/><line class="f" x1="412.29" y1="325.95" x2="412.29" y2="328.03"/><line class="f" x1="412.29" y1="328.03" x2="412.82" y2="328.03"/><line class="f" x1="412.82" y1="325.43" x2="412.82" y2="324.39"/><line class="f" x1="412.82" y1="324.38" x2="412.29" y2="324.38"/><line class="f" x1="412.29" y1="324.38" x2="412.29" y2="325.43"/><line class="f" x1="412.29" y1="325.43" x2="412.82" y2="325.43"/><line class="f" x1="411.56" y1="301.49" x2="411.56" y2="332.71"/><line class="f" x1="277.19" y1="416.36" x2="277.19" y2="375.28"/><line class="f" x1="277.19" y1="375.28" x2="249.8" y2="375.28"/><line class="f" x1="249.8" y1="375.28" x2="249.8" y2="416.36"/><line class="f" x1="249.8" y1="416.36" x2="277.19" y2="416.36"/><line class="f" x1="397.52" y1="270.02" x2="376.98" y2="270.02"/><line class="f" x1="484.82" y1="338.14" x2="501.93" y2="338.14"/><line class="f" x1="501.93" y1="338.14" x2="501.93" y2="310.75"/><line class="f" x1="501.93" y1="310.75" x2="484.82" y2="310.75"/><line class="f" x1="484.82" y1="310.75" x2="484.82" y2="338.14"/><line class="f" x1="444.07" y1="439.47" x2="444.07" y2="418.59"/><line class="f" x1="444.07" y1="418.59" x2="520.75" y2="418.59"/><line class="f" x1="520.75" y1="418.59" x2="520.75" y2="367.24"/><line class="f" x1="520.75" y1="367.24" x2="541.63" y2="367.24"/><line class="f" x1="541.64" y1="367.24" x2="541.64" y2="439.47"/><line class="f" x1="541.64" y1="439.47" x2="444.07" y2="439.47"/><line class="f" x1="549.85" y1="356.97" x2="549.85" y2="439.47"/><line class="f" x1="549.85" y1="439.47" x2="549.85" y2="439.47"/><line class="f" x1="549.85" y1="356.97" x2="549.85" y2="356.97"/><line class="f" x1="291.39" y1="271.39" x2="318.78" y2="271.39"/><line class="f" x1="318.78" y1="271.39" x2="318.78" y2="273.54"/><line class="f" x1="318.78" y1="273.54" x2="291.4" y2="273.54"/><line class="f" x1="291.39" y1="273.54" x2="291.39" y2="271.39"/><line class="f" x1="460.85" y1="271.39" x2="508.77" y2="271.39"/><line class="f" x1="508.77" y1="271.39" x2="508.77" y2="274.81"/><line class="f" x1="508.77" y1="274.81" x2="460.85" y2="274.81"/><line class="f" x1="460.85" y1="274.81" x2="460.85" y2="271.39"/><g class="g"><path class="f" d="M255.79,411.23a.86.86,0,1,0-.85.85.85.85,0,0,0,.85-.85"/><path class="f" d="M275.48,411.23a3.43,3.43,0,0,1-3.43,3.42"/><path class="f" d="M272.05,377a3.44,3.44,0,0,1,3.43,3.43"/><path class="f" d="M254.94,414.65a3.43,3.43,0,0,1-3.42-3.43"/><path class="f" d="M251.51,380.42a3.44,3.44,0,0,1,3.43-3.43"/><path class="f" d="M475.91,430.57a.69.69,0,0,0-.69-.69.68.68,0,0,0-.68.69.67.67,0,0,0,.68.68.68.68,0,0,0,.69-.68"/><path class="f" d="M537,408.32a6,6,0,1,0-6,6,6,6,0,0,0,6-6"/><path class="f" d="M536,408.32a5,5,0,1,0-5,5,5,5,0,0,0,5-5"/><path class="f" d="M539.42,392.82a3.36,3.36,0,1,0-3.36,3.36,3.35,3.35,0,0,0,3.36-3.36"/><path class="f" d="M529.34,392.82a3.36,3.36,0,1,0-3.36,3.36,3.35,3.35,0,0,0,3.36-3.36"/><path class="f" d="M529.34,382.73a3.36,3.36,0,1,0-3.36,3.36,3.35,3.35,0,0,0,3.36-3.36"/><path class="f" d="M409.84,310.85a6.25,6.25,0,1,1,0,12.49"/><path class="f" d="M409.84,323.34a12.51,12.51,0,0,1,0-12.49"/><path class="f" d="M323.92,272.46a1.72,1.72,0,1,0-1.72,1.72,1.72,1.72,0,0,0,1.72-1.72"/><path class="f" d="M513.91,273.1a1.72,1.72,0,1,0-1.71,1.71,1.71,1.71,0,0,0,1.71-1.71"/></g><line class="f" x1="272.91" y1="439.47" x2="252.69" y2="436.03"/><line class="f" x1="252.69" y1="436.03" x2="248.95" y2="420.64"/><line class="f" x1="248.95" y1="420.64" x2="248.95" y2="439.47"/><line class="f" x1="248.95" y1="439.47" x2="272.91" y2="439.47"/><line class="f" x1="440.65" y1="439.47" x2="423.85" y2="436.03"/><line class="f" x1="423.85" y1="436.03" x2="420.11" y2="422.35"/><line class="f" x1="420.11" y1="422.35" x2="420.11" y2="439.47"/><line class="f" x1="420.11" y1="439.47" x2="440.65" y2="439.47"/><line class="f" x1="240.73" y1="444.26" x2="240.73" y2="444.26"/><line class="f" x1="240.73" y1="444.26" x2="240.73" y2="444.26"/><rect class="d" x="484.82" y="310.75" width="17.12" height="27.39"/><line class="f" x1="484.82" y1="310.75" x2="484.82" y2="338.14"/><line class="f" x1="501.93" y1="310.75" x2="484.82" y2="310.75"/><line class="f" x1="501.93" y1="338.14" x2="501.93" y2="310.75"/><line class="f" x1="484.82" y1="338.14" x2="501.93" y2="338.14"/><rect class="d" x="276.33" y="433.99" width="59.22" height="5.48"/><line class="f" x1="276.33" y1="433.99" x2="276.33" y2="439.47"/><line class="f" x1="335.56" y1="433.99" x2="276.33" y2="433.99"/><line class="f" x1="335.56" y1="439.47" x2="335.56" y2="433.99"/><line class="f" x1="276.33" y1="439.47" x2="335.56" y2="439.47"/><rect class="d" x="282.84" y="375.28" width="1.03" height="2.4"/><line class="f" x1="282.84" y1="375.28" x2="282.84" y2="377.68"/><line class="f" x1="283.86" y1="375.28" x2="282.84" y2="375.28"/><line class="f" x1="283.86" y1="377.68" x2="283.86" y2="375.28"/><line class="f" x1="282.84" y1="377.68" x2="283.87" y2="377.68"/><rect class="d" x="282.84" y="377.68" width="20.54" height="1.03"/><line class="f" x1="282.84" y1="378.7" x2="303.38" y2="378.7"/><line class="f" x1="282.84" y1="377.68" x2="282.84" y2="378.7"/><line class="f" x1="303.38" y1="377.68" x2="282.84" y2="377.68"/><line class="f" x1="303.38" y1="378.7" x2="303.38" y2="377.68"/><rect class="d" x="302.35" y="375.28" width="1.03" height="2.4"/><line class="f" x1="303.38" y1="377.68" x2="303.38" y2="375.28"/><line class="f" x1="302.35" y1="377.68" x2="303.38" y2="377.68"/><line class="f" x1="302.35" y1="375.28" x2="302.35" y2="377.68"/><line class="f" x1="303.38" y1="375.28" x2="302.35" y2="375.28"/><rect class="d" x="376.98" y="374.43" width="40.74" height="5.14"/><line class="f" x1="376.98" y1="374.43" x2="376.98" y2="379.56"/><line class="f" x1="417.71" y1="374.43" x2="376.98" y2="374.43"/><line class="f" x1="417.71" y1="379.56" x2="417.71" y2="374.42"/><line class="f" x1="376.98" y1="379.56" x2="417.71" y2="379.56"/><rect class="d" x="404.71" y="269.67" width="15.75" height="102.35"/><line class="f" x1="404.71" y1="269.67" x2="404.71" y2="372.03"/><line class="f" x1="420.45" y1="269.67" x2="404.71" y2="269.67"/><line class="f" x1="420.45" y1="372.03" x2="420.45" y2="269.67"/><line class="f" x1="404.71" y1="372.03" x2="420.45" y2="372.03"/><rect class="d" x="244.67" y="184.09" width="1.54" height="70.18"/><line class="f" x1="246.21" y1="184.09" x2="244.67" y2="184.09"/><line class="f" x1="246.21" y1="254.27" x2="246.21" y2="184.09"/><line class="f" x1="244.67" y1="254.27" x2="246.21" y2="254.27"/><rect class="d" x="544.2" y="184.09" width="1.37" height="70.18"/><line class="f" x1="544.2" y1="184.09" x2="544.2" y2="254.27"/><line class="f" x1="545.57" y1="184.09" x2="544.2" y2="184.09"/><line class="f" x1="544.2" y1="254.27" x2="545.57" y2="254.27"/><polygon class="h" points="513.91 273.1 513.4 274.31 512.2 274.81 510.98 274.31 510.48 273.1 510.98 271.89 512.2 271.39 513.4 271.89 513.91 273.1"/><g class="g"><path class="f" d="M513.91,273.1a1.72,1.72,0,0,1-3.43,0"/><path class="f" d="M510.48,273.1a1.72,1.72,0,0,1,3.43,0"/></g><rect class="d" x="460.85" y="271.39" width="47.93" height="3.42"/><line class="f" x1="508.77" y1="271.39" x2="460.85" y2="271.39"/><line class="f" x1="508.77" y1="274.81" x2="508.77" y2="271.39"/><line class="f" x1="460.85" y1="274.81" x2="508.77" y2="274.81"/><line class="f" x1="460.85" y1="271.39" x2="460.85" y2="274.81"/><polygon class="h" points="323.92 272.46 323.42 273.68 322.2 274.18 321 273.68 320.49 272.46 321 271.25 322.2 270.75 323.42 271.25 323.92 272.46"/><g class="g"><path class="f" d="M323.92,272.46a1.72,1.72,0,1,1-3.43,0"/><path class="f" d="M320.49,272.46a1.71,1.71,0,0,1,3.42,0"/></g><rect class="d" x="291.4" y="271.39" width="27.39" height="2.16"/><line class="f" x1="318.78" y1="271.39" x2="291.4" y2="271.39"/><line class="f" x1="318.78" y1="273.54" x2="318.78" y2="271.39"/><line class="f" x1="291.39" y1="273.54" x2="318.78" y2="273.54"/><line class="f" x1="291.39" y1="271.39" x2="291.39" y2="273.54"/><g class="g"><path class="f" d="M237.31,356.28a3.43,3.43,0,0,1,3.42,3.43"/></g><line class="f" x1="240.73" y1="281.28" x2="240.73" y2="281.28"/><line class="f" x1="240.73" y1="322.36" x2="240.73" y2="322.36"/><line class="f" x1="240.73" y1="322.36" x2="240.73" y2="281.28"/><polygon class="h" points="248.95 290.21 248.95 351.83 259.22 351.83 310.56 351.83 313.19 351.31 315.41 349.83 316.89 347.61 317.41 344.99 317.41 297.06 316.89 294.44 315.41 292.22 313.19 290.74 310.56 290.21 248.95 290.21"/><rect class="d" x="248.95" y="278.23" width="10.27" height="11.98"/><rect class="d" x="248.95" y="351.83" width="10.27" height="11.98"/><line class="f" x1="260.33" y1="322.96" x2="257.37" y2="323.78"/><line class="f" x1="260.33" y1="294.22" x2="257.37" y2="295.04"/><line class="f" x1="317.41" y1="344.99" x2="317.41" y2="297.06"/><line class="f" x1="310.57" y1="290.21" x2="248.95" y2="290.21"/><line class="f" x1="248.95" y1="290.21" x2="248.95" y2="351.83"/><line class="f" x1="248.95" y1="351.83" x2="310.56" y2="351.83"/><line class="f" x1="248.95" y1="290.21" x2="248.95" y2="278.23"/><line class="f" x1="248.95" y1="278.23" x2="259.22" y2="278.23"/><line class="f" x1="259.22" y1="278.23" x2="259.22" y2="290.21"/><line class="f" x1="259.22" y1="290.21" x2="248.95" y2="290.21"/><line class="f" x1="248.95" y1="363.81" x2="248.95" y2="351.83"/><line class="f" x1="248.95" y1="351.83" x2="259.22" y2="351.83"/><line class="f" x1="259.22" y1="351.83" x2="259.22" y2="363.81"/><line class="f" x1="259.22" y1="363.81" x2="248.95" y2="363.81"/><line class="f" x1="271.72" y1="290.21" x2="271.72" y2="351.83"/><line class="f" x1="276.86" y1="290.21" x2="276.86" y2="351.83"/><g class="g"><path class="f" d="M266.54,318.43a96.31,96.31,0,0,1-.34-22.32"/><path class="f" d="M264.31,293.89h.1a1.83,1.83,0,0,1,1.83,1.83,2.45,2.45,0,0,1,0,.39"/><path class="f" d="M260.33,294.22a14.06,14.06,0,0,1,3.17-.35l.81,0"/><path class="f" d="M252.69,294c.82,0,1.65-.06,2.47-.06,1.73,0,3.45.09,5.17.26"/><path class="f" d="M252.19,294.48s0-.06,0-.09a.39.39,0,0,1,.39-.38h.12"/><path class="f" d="M252.19,294.48c.38,4.89.56,9.81.56,14.72q0,4.65-.22,9.3"/><path class="f" d="M253.76,319.6a1,1,0,0,1-.3,0,1,1,0,0,1-1-.95,1.23,1.23,0,0,1,0-.2"/><path class="f" d="M253.76,319.6a45.52,45.52,0,0,1,11.81-.18"/><path class="f" d="M266.54,318.43a.85.85,0,0,1,0,.23.79.79,0,0,1-.79.79l-.22,0"/><path class="f" d="M310.57,290.21a6.85,6.85,0,0,1,6.84,6.85"/><path class="f" d="M317.41,345a6.84,6.84,0,0,1-6.84,6.84"/><path class="f" d="M266.54,347.17a96.23,96.23,0,0,1-.34-22.31"/><path class="f" d="M264.31,322.64h.1a1.83,1.83,0,0,1,1.83,1.84,2.58,2.58,0,0,1,0,.39"/><path class="f" d="M260.33,323a14.66,14.66,0,0,1,3.17-.35l.81,0"/><path class="f" d="M252.69,322.77c.82,0,1.65-.06,2.47-.06,1.73,0,3.45.08,5.17.25"/><path class="f" d="M252.19,323.22s0-.05,0-.08a.39.39,0,0,1,.39-.39.25.25,0,0,1,.12,0"/><path class="f" d="M252.19,323.22q.57,7.35.56,14.72,0,4.65-.22,9.3"/><path class="f" d="M253.76,348.35a1,1,0,0,1-.3,0,.94.94,0,0,1-1-.95,1.36,1.36,0,0,1,0-.2"/><path class="f" d="M253.76,348.35a45.52,45.52,0,0,1,11.81-.18"/><path class="f" d="M266.54,347.17a1,1,0,0,1,0,.24.79.79,0,0,1-.79.79l-.22,0"/></g><polygon class="h" points="413.66 322.04 415.03 320.35 415.77 318.23 415.77 315.96 415.03 313.84 413.66 312.15 413.66 301.49 411.76 301.49 409.86 309.29 409.86 311.56 408.82 315.19 408.82 319 409.86 322.63 409.86 324.9 411.76 332.7 413.66 332.7 413.66 322.04"/><line class="f" x1="413.66" y1="332.71" x2="413.66" y2="322.04"/><line class="f" x1="411.76" y1="332.71" x2="413.66" y2="332.71"/><line class="f" x1="409.86" y1="324.9" x2="411.76" y2="332.71"/><line class="f" x1="409.86" y1="322.63" x2="409.86" y2="324.9"/><line class="f" x1="408.82" y1="319" x2="409.86" y2="322.63"/><line class="f" x1="408.82" y1="315.19" x2="408.82" y2="319"/><line class="f" x1="409.86" y1="311.56" x2="408.82" y2="315.19"/><line class="f" x1="409.86" y1="309.29" x2="409.86" y2="311.56"/><line class="f" x1="411.76" y1="301.49" x2="409.86" y2="309.29"/><line class="f" x1="413.66" y1="301.49" x2="411.76" y2="301.49"/><line class="f" x1="413.66" y1="312.15" x2="413.66" y2="301.48"/><line class="f" x1="415.03" y1="313.84" x2="413.66" y2="312.15"/><line class="f" x1="415.77" y1="315.96" x2="415.03" y2="313.84"/><line class="f" x1="415.77" y1="318.23" x2="415.77" y2="315.96"/><line class="f" x1="415.03" y1="320.35" x2="415.77" y2="318.23"/><line class="f" x1="413.66" y1="322.04" x2="415.03" y2="320.35"/><line class="f" x1="413.66" y1="332.71" x2="413.66" y2="301.49"/><line class="f" x1="409.86" y1="309.29" x2="409.86" y2="324.9"/><line class="f" x1="411.76" y1="332.71" x2="413.66" y2="332.71"/><line class="f" x1="412.9" y1="303.57" x2="412.9" y2="305.65"/><line class="f" x1="412.9" y1="305.65" x2="412.42" y2="305.65"/><line class="f" x1="412.42" y1="305.65" x2="412.42" y2="303.57"/><line class="f" x1="412.42" y1="303.57" x2="412.9" y2="303.57"/><line class="f" x1="412.9" y1="306.17" x2="412.9" y2="308.25"/><line class="f" x1="412.9" y1="308.25" x2="412.42" y2="308.25"/><line class="f" x1="412.42" y1="308.25" x2="412.42" y2="306.17"/><line class="f" x1="412.42" y1="306.17" x2="412.9" y2="306.17"/><line class="f" x1="411.76" y1="332.71" x2="411.76" y2="301.49"/><line class="f" x1="412.42" y1="308.77" x2="412.9" y2="308.77"/><line class="f" x1="412.9" y1="308.77" x2="412.9" y2="309.81"/><line class="f" x1="412.9" y1="309.81" x2="412.42" y2="309.81"/><line class="f" x1="412.42" y1="309.81" x2="412.42" y2="308.77"/><g class="g"><path class="f" d="M413.66,312.15a6.66,6.66,0,0,1,0,9.89"/></g><polygon class="h" points="509.46 303.97 508.97 304.34 508.78 304.94 508.78 342.25 508.97 342.86 509.46 343.27 508.98 343.48 508.78 343.96 508.78 344.99 509.24 346.7 510.49 347.95 512.2 348.41 537.19 348.41 537.68 348.21 537.88 347.72 537.88 277.21 537.68 276.72 537.19 276.52 509.46 276.52 509.01 276.67 508.75 277.07 508.78 277.55 508.78 302.88 508.84 303.6 509.46 303.97"/><polygon class="h" points="486.53 303.91 483.91 303.38 481.69 301.9 480.2 299.68 479.68 297.06 479.68 283.37 480.2 280.75 481.69 278.53 483.91 277.04 486.53 276.52 507.75 276.52 508.48 276.82 508.78 277.55 508.78 302.88 508.48 303.61 507.75 303.91 486.53 303.91"/><g class="g"><path class="f" d="M486.53,303.91a6.85,6.85,0,0,1-6.85-6.85"/></g><line class="f" x1="479.68" y1="297.06" x2="479.68" y2="283.37"/><g class="g"><path class="f" d="M479.68,283.37a6.85,6.85,0,0,1,6.85-6.85"/></g><line class="f" x1="486.53" y1="276.52" x2="507.75" y2="276.52"/><g class="g"><path class="f" d="M507.75,276.52a1,1,0,0,1,1,1"/></g><line class="f" x1="508.78" y1="277.55" x2="508.78" y2="302.88"/><g class="g"><path class="f" d="M508.78,302.88a1,1,0,0,1-1,1"/></g><line class="f" x1="507.75" y1="303.91" x2="486.53" y2="303.91"/><line class="f" x1="508.78" y1="343.96" x2="508.78" y2="344.99"/><line class="f" x1="512.2" y1="348.41" x2="537.19" y2="348.41"/><line class="f" x1="537.88" y1="347.72" x2="537.88" y2="343.96"/><line class="f" x1="537.19" y1="343.27" x2="509.46" y2="343.27"/><line class="f" x1="537.88" y1="343.96" x2="537.88" y2="303.91"/><line class="f" x1="537.88" y1="303.91" x2="535.48" y2="303.91"/><line class="f" x1="508.78" y1="304.93" x2="508.78" y2="342.25"/><line class="f" x1="509.81" y1="343.27" x2="526.97" y2="343.27"/><line class="f" x1="526.97" y1="303.91" x2="509.81" y2="303.91"/><line class="f" x1="535.48" y1="343.27" x2="529.02" y2="343.27"/><line class="f" x1="529.02" y1="303.91" x2="535.48" y2="303.91"/><line class="f" x1="508.78" y1="280.97" x2="508.78" y2="277.21"/><line class="f" x1="509.46" y1="276.52" x2="537.19" y2="276.52"/><line class="f" x1="537.88" y1="277.21" x2="537.88" y2="280.97"/><line class="f" x1="537.88" y1="280.97" x2="537.88" y2="303.91"/><line class="f" x1="537.88" y1="303.91" x2="535.48" y2="303.91"/><line class="f" x1="508.78" y1="302.88" x2="508.78" y2="282.68"/><line class="f" x1="526.97" y1="303.91" x2="509.81" y2="303.91"/><line class="f" x1="526.97" y1="303.91" x2="535.48" y2="303.91"/><line class="f" x1="479.68" y1="297.06" x2="479.68" y2="283.37"/><line class="f" x1="486.53" y1="276.52" x2="507.75" y2="276.52"/><line class="f" x1="508.78" y1="277.55" x2="508.78" y2="302.88"/><line class="f" x1="507.75" y1="303.91" x2="486.53" y2="303.91"/><line class="f" x1="536.51" y1="302.88" x2="536.51" y2="277.55"/><line class="f" x1="536.51" y1="304.93" x2="536.51" y2="342.25"/><g class="g"><path class="f" d="M537.88,347.72a.69.69,0,0,1-.69.69"/><path class="f" d="M537.19,343.27a.69.69,0,0,1,.69.69"/><path class="f" d="M508.78,344a.69.69,0,0,1,.68-.69"/><path class="f" d="M509.81,343.27a1,1,0,0,1-1-1"/><path class="f" d="M508.78,304.93a1,1,0,0,1,1-1"/><path class="f" d="M508.78,277.21a.69.69,0,0,1,.68-.69"/><path class="f" d="M537.19,276.52a.69.69,0,0,1,.69.69"/><path class="f" d="M509.81,303.91a1,1,0,0,1-1-1"/><path class="f" d="M507.75,276.52a1,1,0,0,1,1,1"/><path class="f" d="M508.78,302.88a1,1,0,0,1-1,1"/></g><line class="f" x1="536.51" y1="277.55" x2="513.19" y2="277.55"/><g class="g"><path class="f" d="M517.9,278.79a19.39,19.39,0,0,1,15.32,19,19.17,19.17,0,0,1-.7,5.16"/><path class="f" d="M531.71,342.25a117.59,117.59,0,0,1,0-37.32"/><path class="f" d="M486.53,303.91a6.85,6.85,0,0,1-6.85-6.85"/><path class="f" d="M479.68,283.37a6.85,6.85,0,0,1,6.85-6.85"/><path class="f" d="M512.2,348.41a3.43,3.43,0,0,1-3.42-3.43"/></g><polygon class="h" points="462.72 363.75 464.89 360.91 467.72 358.72 471.02 357.35 474.55 356.87 470.72 350.24 469.47 348.98 467.76 348.52 466.05 348.99 460.13 352.43 458.88 353.68 458.43 355.4 458.89 357.11 462.72 363.75"/><polygon class="h" points="474.6 384.31 471.06 383.85 467.76 382.49 464.92 380.31 462.74 377.47 458.93 384.12 458.48 385.84 458.94 387.55 460.19 388.81 466.12 392.23 467.83 392.69 469.53 392.22 470.78 390.97 474.6 384.31"/><polygon class="h" points="486.41 363.71 487.78 367.02 488.25 370.57 487.79 374.13 486.43 377.44 494.07 377.43 495.78 376.96 497.03 375.71 497.49 373.99 497.48 367.13 497.01 365.41 495.76 364.16 494.05 363.7 486.41 363.71"/><polygon class="h" points="474.55 356.87 471.02 357.35 467.72 358.72 464.89 360.91 462.72 363.75 461.36 367.06 460.9 370.61 461.37 374.17 462.74 377.47 464.92 380.31 467.76 382.49 471.06 383.85 474.6 384.31 478.13 383.84 481.43 382.47 484.26 380.28 486.43 377.44 487.79 374.13 488.25 370.57 487.78 367.02 486.41 363.71 484.23 360.88 481.39 358.7 478.09 357.34 474.55 356.87"/><line class="f" x1="478.09" y1="357.34" x2="474.55" y2="356.87"/><line class="f" x1="481.39" y1="358.7" x2="478.09" y2="357.34"/><line class="f" x1="484.23" y1="360.88" x2="481.39" y2="358.7"/><line class="f" x1="486.41" y1="363.71" x2="484.23" y2="360.88"/><line class="f" x1="487.78" y1="367.02" x2="486.41" y2="363.71"/><line class="f" x1="488.25" y1="370.57" x2="487.78" y2="367.03"/><line class="f" x1="487.79" y1="374.13" x2="488.25" y2="370.57"/><line class="f" x1="486.43" y1="377.44" x2="487.79" y2="374.13"/><line class="f" x1="484.26" y1="380.28" x2="486.43" y2="377.44"/><line class="f" x1="481.43" y1="382.47" x2="484.26" y2="380.28"/><line class="f" x1="478.13" y1="383.84" x2="481.43" y2="382.47"/><line class="f" x1="474.6" y1="384.31" x2="478.13" y2="383.84"/><line class="f" x1="471.06" y1="383.85" x2="474.6" y2="384.32"/><line class="f" x1="467.76" y1="382.49" x2="471.06" y2="383.85"/><line class="f" x1="464.92" y1="380.31" x2="467.76" y2="382.49"/><line class="f" x1="462.74" y1="377.47" x2="464.92" y2="380.31"/><line class="f" x1="461.37" y1="374.17" x2="462.74" y2="377.47"/><line class="f" x1="460.9" y1="370.61" x2="461.37" y2="374.16"/><line class="f" x1="461.36" y1="367.06" x2="460.9" y2="370.61"/><line class="f" x1="462.72" y1="363.75" x2="461.36" y2="367.06"/><line class="f" x1="464.89" y1="360.91" x2="462.72" y2="363.75"/><line class="f" x1="467.72" y1="358.72" x2="464.89" y2="360.91"/><line class="f" x1="471.02" y1="357.35" x2="467.72" y2="358.72"/><line class="f" x1="474.55" y1="356.87" x2="471.02" y2="357.35"/><g class="g"><path class="f" d="M488.25,370.57a13.68,13.68,0,1,1-27.35,0"/><path class="f" d="M460.9,370.61a13.68,13.68,0,1,1,27.35,0"/></g><line class="f" x1="460.99" y1="353.91" x2="466.91" y2="350.47"/><line class="f" x1="470.72" y1="350.24" x2="474.55" y2="356.87"/><line class="f" x1="460.13" y1="352.43" x2="466.05" y2="348.99"/><line class="f" x1="462.72" y1="363.75" x2="458.89" y2="357.11"/><line class="f" x1="466.97" y1="390.74" x2="461.04" y2="387.32"/><line class="f" x1="458.93" y1="384.12" x2="462.74" y2="377.47"/><line class="f" x1="466.12" y1="392.23" x2="460.19" y2="388.81"/><line class="f" x1="474.6" y1="384.31" x2="470.78" y2="390.97"/><line class="f" x1="495.76" y1="367.13" x2="495.77" y2="373.99"/><line class="f" x1="494.07" y1="377.43" x2="486.43" y2="377.44"/><line class="f" x1="497.47" y1="367.13" x2="497.49" y2="373.99"/><line class="f" x1="486.41" y1="363.71" x2="494.05" y2="363.7"/><g class="g"><path class="f" d="M466.91,350.47a1.7,1.7,0,0,1,2.33.62"/><path class="f" d="M460.37,356.25a1.69,1.69,0,0,1-.23-.85,1.72,1.72,0,0,1,.85-1.49"/><path class="f" d="M466.05,349a3.32,3.32,0,0,1,1.71-.46,3.42,3.42,0,0,1,3,1.71"/><path class="f" d="M458.89,357.11a3.43,3.43,0,0,1,1.25-4.68"/><path class="f" d="M461,387.32a1.71,1.71,0,0,1-.85-1.49,1.59,1.59,0,0,1,.22-.85"/><path class="f" d="M469.31,390.11a1.72,1.72,0,0,1-1.49.86,1.69,1.69,0,0,1-.85-.23"/><path class="f" d="M460.19,388.81a3.44,3.44,0,0,1-1.71-3,3.48,3.48,0,0,1,.45-1.72"/><path class="f" d="M470.78,391a3.4,3.4,0,0,1-4.66,1.26"/><path class="f" d="M495.78,374h0a1.72,1.72,0,0,1-1.71,1.72"/><path class="f" d="M494.05,365.42a1.7,1.7,0,0,1,1.71,1.71"/><path class="f" d="M497.48,374a3.43,3.43,0,0,1-3.41,3.44"/><path class="f" d="M494.05,363.7h0a3.42,3.42,0,0,1,3.42,3.43"/></g><polygon class="h" points="303.2 433.99 285.4 433.99 285.04 433.84 284.89 433.48 284.89 419.44 285.04 419.08 285.4 418.93 303.2 418.93 303.57 419.08 303.72 419.44 303.72 433.48 303.57 433.84 303.2 433.99"/><line class="f" x1="303.21" y1="433.99" x2="285.4" y2="433.99"/><g class="g"><path class="f" d="M285.4,434a.51.51,0,0,1-.51-.51"/></g><line class="f" x1="284.89" y1="433.48" x2="284.89" y2="419.44"/><g class="g"><path class="f" d="M284.89,419.44a.51.51,0,0,1,.51-.51"/></g><line class="f" x1="285.4" y1="418.93" x2="303.21" y2="418.93"/><g class="g"><path class="f" d="M303.21,418.93a.51.51,0,0,1,.51.51"/></g><line class="f" x1="303.72" y1="419.44" x2="303.72" y2="433.48"/><g class="g"><path class="f" d="M303.72,433.48a.51.51,0,0,1-.51.51"/></g><line class="f" x1="302.18" y1="430.22" x2="286.43" y2="430.22"/><line class="f" x1="285.92" y1="429.71" x2="285.92" y2="420.47"/><line class="f" x1="286.43" y1="419.95" x2="302.18" y2="419.95"/><line class="f" x1="302.69" y1="420.47" x2="302.69" y2="429.71"/><g class="g"><path class="f" d="M286.43,430.22a.51.51,0,0,1-.51-.51"/><path class="f" d="M285.92,420.47a.51.51,0,0,1,.51-.52"/><path class="f" d="M302.18,420a.51.51,0,0,1,.51.52"/><path class="f" d="M302.69,429.71a.51.51,0,0,1-.51.51"/></g><polygon class="h" points="295.16 431.94 295.02 430.5 294.91 430.18 294.69 428.36 294.56 428.12 294.31 428.03 294.05 428.12 293.93 428.36 293.7 430.18 293.59 430.5 293.45 431.94 293.7 432.54 294.31 432.79 294.91 432.54 295.16 431.94"/><g class="g"><path class="f" d="M295.16,431.94a.86.86,0,0,1-1.71,0"/></g><line class="f" x1="293.59" y1="430.5" x2="293.45" y2="431.93"/><g class="g"><path class="f" d="M293.59,430.5a.76.76,0,0,1,.11-.33"/></g><line class="f" x1="293.93" y1="428.36" x2="293.7" y2="430.17"/><g class="g"><path class="f" d="M293.93,428.36a.37.37,0,0,1,.37-.33.39.39,0,0,1,.39.33"/></g><line class="f" x1="294.91" y1="430.17" x2="294.68" y2="428.36"/><g class="g"><path class="f" d="M294.91,430.17a.81.81,0,0,1,.11.33"/></g><line class="f" x1="295.16" y1="431.94" x2="295.02" y2="430.5"/><line class="f" x1="293.84" y1="431.08" x2="293.84" y2="430.57"/><line class="f" x1="294.77" y1="430.57" x2="294.77" y2="431.08"/><line class="f" x1="294.77" y1="431.08" x2="293.84" y2="431.08"/><g class="g"><path class="f" d="M293.84,430.57a.47.47,0,0,1,.93,0"/><path class="f" d="M293.7,430.17a.73.73,0,0,1,1.21,0"/></g><rect class="d" x="377.32" y="269.67" width="20.54" height="51.52"/><line class="f" x1="397.86" y1="321.19" x2="397.86" y2="269.67"/><line class="f" x1="397.86" y1="269.67" x2="377.32" y2="269.67"/><line class="f" x1="377.32" y1="269.67" x2="377.32" y2="321.2"/><line class="f" x1="377.32" y1="321.19" x2="397.86" y2="321.19"/><line class="f" x1="387.59" y1="318.62" x2="387.59" y2="272.25"/><line class="f" x1="393.63" y1="316.23" x2="381.32" y2="311.87"/><line class="f" x1="394.24" y1="311.31" x2="382.8" y2="309.51"/><line class="f" x1="380.18" y1="304.61" x2="392.75" y2="303.12"/><line class="f" x1="381.83" y1="297.01" x2="392.75" y2="299.02"/><line class="f" x1="381.2" y1="294.24" x2="394.65" y2="294.24"/><line class="f" x1="381.15" y1="286.41" x2="394.44" y2="288.27"/><line class="f" x1="381.37" y1="283.48" x2="393.51" y2="283.48"/><line class="f" x1="381.25" y1="275.75" x2="393.69" y2="274.27"/><line class="f" x1="382.09" y1="277.61" x2="392.62" y2="279.12"/><rect class="d" x="377.32" y="321.19" width="20.54" height="46.38"/><line class="f" x1="397.86" y1="367.58" x2="397.86" y2="321.19"/><line class="f" x1="397.86" y1="321.19" x2="377.32" y2="321.19"/><line class="f" x1="377.32" y1="321.19" x2="377.32" y2="367.58"/><line class="f" x1="377.32" y1="367.58" x2="397.86" y2="367.58"/><line class="f" x1="387.59" y1="365.26" x2="387.59" y2="323.51"/><line class="f" x1="393.63" y1="363.11" x2="381.32" y2="359.18"/><line class="f" x1="394.24" y1="358.69" x2="382.8" y2="357.06"/><line class="f" x1="380.18" y1="352.64" x2="392.75" y2="351.31"/><line class="f" x1="381.83" y1="345.8" x2="392.75" y2="347.61"/><line class="f" x1="381.2" y1="343.31" x2="394.65" y2="343.31"/><line class="f" x1="381.15" y1="336.26" x2="394.44" y2="337.93"/><line class="f" x1="381.37" y1="333.62" x2="393.51" y2="333.62"/><line class="f" x1="381.25" y1="326.66" x2="393.69" y2="325.33"/><line class="f" x1="382.09" y1="328.34" x2="392.62" y2="329.7"/><polygon class="h" points="326.31 433.99 326.31 422.69 326.05 421 325.28 419.47 324.09 418.24 322.14 417.23 319.98 416.87 317.81 417.23 315.87 418.24 314.68 419.47 313.91 421 313.65 422.69 313.65 433.99 326.31 433.99"/><line class="f" x1="313.65" y1="433.99" x2="313.65" y2="422.69"/><line class="f" x1="313.65" y1="433.99" x2="326.31" y2="433.99"/><line class="f" x1="326.31" y1="433.99" x2="326.31" y2="422.69"/><line class="f" x1="315.7" y1="429.88" x2="315.7" y2="422.69"/><line class="f" x1="324.26" y1="429.88" x2="324.26" y2="422.69"/><line class="f" x1="324.26" y1="429.88" x2="315.7" y2="429.88"/><g class="g"><path class="f" d="M313.65,422.69a5.57,5.57,0,0,1,2.22-4.45"/><path class="f" d="M324.09,418.24a5.56,5.56,0,0,1,2.22,4.45"/><path class="f" d="M315.87,418.24a6.85,6.85,0,0,1,8.22,0"/><path class="f" d="M324.09,418.24a5.56,5.56,0,0,1,2.22,4.45"/><path class="f" d="M320,416.87a6.93,6.93,0,0,1,4.11,1.37"/><path class="f" d="M322.86,419.89a3.5,3.5,0,0,1,1.4,2.8"/><path class="f" d="M317.1,419.89a4.8,4.8,0,0,1,5.76,0"/><path class="f" d="M315.7,422.69a3.5,3.5,0,0,1,1.4-2.8"/></g><line class="f" x1="493.43" y1="431.86" x2="493.43" y2="426.12"/><line class="f" x1="493.43" y1="426.12" x2="495.76" y2="428"/><line class="f" x1="495.76" y1="428" x2="498.1" y2="426.12"/><line class="f" x1="498.1" y1="426.12" x2="498.1" y2="431.86"/><rect x="240.73" y="262.83" width="47.24" height="6.85"/><rect x="322.2" y="262.83" width="20.54" height="6.85"/><rect x="376.98" y="262.83" width="47.93" height="6.85"/><polygon class="i" points="411.55 447.68 411.55 439.47 541.63 439.47 541.63 269.67 549.85 269.67 549.85 439.47 549.85 447.68 411.55 447.68"/><polygon class="i" points="549.85 262.83 512.19 262.83 512.19 255.98 545.57 255.98 549.85 255.98 549.85 262.83"/><rect x="375.26" y="255.98" width="51.35" height="6.85"/><rect x="320.49" y="255.98" width="23.96" height="6.85"/><polygon class="i" points="240.73 255.98 244.67 255.98 289.68 255.98 289.68 262.83 240.73 262.83 240.73 255.98"/><polygon class="i" points="240.73 269.67 248.95 269.67 248.95 439.47 373.9 439.47 373.9 447.68 248.95 447.68 240.73 447.68 240.73 269.67"/><rect x="513.91" y="262.83" width="35.94" height="6.85"/><polygon class="i" points="373.9 367.58 397.86 367.58 397.86 269.67 404.7 269.67 404.7 374.43 373.9 374.43 373.9 367.58"/><rect x="248.95" y="367.58" width="94.14" height="6.85"/><rect x="409.84" y="443.75" width="1.71" height="3.94"/><rect x="373.9" y="443.75" width="1.71" height="3.94"/><rect x="335.56" y="374.42" width="2.4" height="8.56"/><polygon class="i" points="420.11 372.03 420.11 382.98 417.71 382.98 417.71 374.43 404.7 374.43 404.7 372.03 420.11 372.03"/><polygon class="i" points="420.11 439.47 417.71 439.47 417.71 413.79 420.11 413.79 420.11 418.93 420.11 439.47"/><rect x="335.56" y="410.37" width="2.4" height="29.1"/><rect x="248.95" y="417.22" width="27.39" height="3.42"/><rect x="272.91" y="420.64" width="3.42" height="18.83"/><rect x="244.67" y="184.09" width="1.54" height="71.89"/><rect x="544.2" y="184.09" width="1.37" height="71.89"/><polygon class="i" points="420.11 422.35 420.11 418.93 444.07 418.93 444.07 439.47 440.65 439.47 440.65 422.35 420.11 422.35"/><line class="f" x1="240.73" y1="447.68" x2="549.85" y2="447.68"/><line class="f" x1="549.85" y1="447.68" x2="549.85" y2="255.98"/><line class="f" x1="549.85" y1="255.98" x2="545.57" y2="255.98"/><line class="f" x1="545.57" y1="255.98" x2="545.57" y2="170.44"/><line class="f" x1="545.57" y1="170.44" x2="244.67" y2="170.44"/><line class="f" x1="244.67" y1="170.44" x2="244.67" y2="255.98"/><line class="f" x1="244.67" y1="255.98" x2="240.73" y2="255.98"/><line class="f" x1="240.73" y1="255.98" x2="240.73" y2="447.68"/><path class="j" d="M417.26,227.78v7h-.72v-6.36H414.9v-.64Z"/><path class="j" d="M418.94,234.28a.54.54,0,1,1,1.08,0,.54.54,0,1,1-1.08,0Z"/><path class="j" d="M421,231.28c0-2.23,1.16-3.56,2.78-3.56s2.8,1.33,2.8,3.56-1.18,3.56-2.8,3.56S421,233.51,421,231.28Zm4.84,0c0-1.87-.84-2.9-2.06-2.9s-2.05,1-2.05,2.9.84,2.9,2.05,2.9S425.8,233.15,425.8,231.28Z"/><path class="j" d="M432.32,232.72c0,1.19-.83,2.12-2.54,2.12a3.61,3.61,0,0,1-2.5-.9l.35-.57a3,3,0,0,0,2.14.81c1.19,0,1.82-.58,1.82-1.43s-.56-1.46-2.34-1.46h-1.48l.35-3.51H432v.64h-3.2l-.23,2.23h.89C431.52,230.65,432.32,231.48,432.32,232.72Z"/><path class="j" d="M297.64,395.82v7h-.72v-6.36h-1.64v-.64Z"/><path class="j" d="M299.33,402.32a.53.53,0,0,1,.53-.54.54.54,0,0,1,.54.54.55.55,0,0,1-.54.55A.54.54,0,0,1,299.33,402.32Z"/><path class="j" d="M301.34,399.32c0-2.23,1.16-3.56,2.78-3.56s2.8,1.33,2.8,3.56-1.18,3.56-2.8,3.56S301.34,401.55,301.34,399.32Zm4.84,0c0-1.87-.84-2.9-2.06-2.9s-2.05,1-2.05,2.9.83,2.9,2.05,2.9S306.18,401.19,306.18,399.32Z"/><path class="j" d="M313.9,401h-1.4v1.84h-.72V401h-3.94v-.52l3.7-4.64h.8l-3.57,4.52h3v-1.62h.7v1.62h1.4Z"/><path class="j" d="M345.84,314.89v7h-.72v-6.36h-1.64v-.64Z"/><path class="j" d="M347.53,321.39a.53.53,0,0,1,.53-.54.54.54,0,0,1,.54.54.55.55,0,0,1-.54.55A.54.54,0,0,1,347.53,321.39Z"/><path class="j" d="M349.53,318.39c0-2.23,1.17-3.56,2.79-3.56s2.8,1.33,2.8,3.56-1.18,3.56-2.8,3.56S349.53,320.62,349.53,318.39Zm4.85,0c0-1.87-.84-2.9-2.06-2.9s-2.05,1-2.05,2.9.83,2.9,2.05,2.9S354.38,320.26,354.38,318.39Z"/><path class="j" d="M360.69,319.88c0,1.17-.85,2.07-2.54,2.07a3.61,3.61,0,0,1-2.51-.9l.34-.57a3.08,3.08,0,0,0,2.17.81c1.16,0,1.8-.54,1.8-1.41s-.59-1.39-1.89-1.39h-.5V318l1.94-2.43h-3.57v-.64h4.49v.51l-2,2.49C359.94,318,360.69,318.76,360.69,319.88Z"/><path class="j" d="M450.92,314.89v7h-.72v-6.36h-1.64v-.64Z"/><path class="j" d="M452.61,321.39a.53.53,0,0,1,.53-.54.54.54,0,0,1,.54.54.55.55,0,0,1-.54.55A.54.54,0,0,1,452.61,321.39Z"/><path class="j" d="M454.61,318.39c0-2.23,1.17-3.56,2.79-3.56s2.8,1.33,2.8,3.56S459,322,457.4,322,454.61,320.62,454.61,318.39Zm4.85,0c0-1.87-.84-2.9-2.06-2.9s-2,1-2,2.9.83,2.9,2,2.9S459.46,320.26,459.46,318.39Z"/><path class="j" d="M466,321.25v.64h-4.9v-.51l2.9-2.85c.79-.78.94-1.25.94-1.73,0-.81-.57-1.31-1.64-1.31a2.36,2.36,0,0,0-1.9.78l-.51-.44a3.12,3.12,0,0,1,2.47-1c1.42,0,2.32.72,2.32,1.89a2.88,2.88,0,0,1-1.15,2.19l-2.38,2.34Z"/><path class="j" d="M381.83,395.82v7h-.72v-6.36h-1.64v-.64Z"/><path class="j" d="M383.52,402.32a.53.53,0,0,1,.53-.54.54.54,0,0,1,.53.54.54.54,0,0,1-.53.55A.54.54,0,0,1,383.52,402.32Z"/><path class="j" d="M385.53,399.32c0-2.23,1.16-3.56,2.78-3.56s2.8,1.33,2.8,3.56-1.18,3.56-2.8,3.56S385.53,401.55,385.53,399.32Zm4.84,0c0-1.87-.84-2.9-2.06-2.9s-2.06,1-2.06,2.9.84,2.9,2.06,2.9S390.37,401.19,390.37,399.32Z"/><path class="j" d="M394.07,395.82v7h-.72v-6.36h-1.64v-.64Z"/></svg>