<svg xmlns="http://www.w3.org/2000/svg" xmlns:xlink="http://www.w3.org/1999/xlink" viewBox="0 0 790.58 618.13"><defs><style>.a,.k{fill:none;}.b{clip-path:url(#a);}.c{clip-path:url(#d);}.d{clip-path:url(#g);}.e{clip-path:url(#j);}.f{fill:#595a5c;}.g{fill:#b6906c;}.h,.l{fill:#fff;}.i{fill:#231f20;}.j{fill:url(#m);}.k{stroke:#000;stroke-linecap:round;stroke-linejoin:round;stroke-width:0.35px;}.l,.n{fill-rule:evenodd;}.m{clip-path:url(#n);}.o{fill:#58595b;}</style><clipPath id="a"><rect class="a" y="59.93" width="90" height="59.93"/></clipPath><clipPath id="d"><rect class="a" x="90" y="59.93" width="90" height="59.93"/></clipPath><clipPath id="g"><rect class="a" width="90" height="59.93"/></clipPath><clipPath id="j"><rect class="a" x="90" width="90" height="59.93"/></clipPath><pattern id="m" width="180" height="119.85" patternTransform="matrix(0, -3.48, -3.48, 0, 36101.89, 15380.82)" patternUnits="userSpaceOnUse" viewBox="0 0 180 119.85"><rect class="a" width="180" height="119.85"/><g class="b"><g class="b"><g class="b"><image width="376" height="251" transform="matrix(0.24, 0, 0, -0.24, -0.2, 120.05)" xlink:href="C108_pudorys1.png"/></g></g></g><g class="c"><g class="c"><g class="c"><image width="376" height="251" transform="matrix(0.24, 0, 0, -0.24, 89.8, 120.05)" xlink:href="C108_pudorys2.png"/></g></g></g><g class="d"><g class="d"><g class="d"><image width="376" height="251" transform="matrix(0.24, 0, 0, -0.24, -0.2, 60.05)" xlink:href="C108_pudorys3.png"/></g></g></g><g class="e"><g class="e"><g class="e"><image width="376" height="251" transform="matrix(0.24, 0, 0, -0.24, 89.8, 60.05)" xlink:href="C108_pudorys4.png"/></g></g></g></pattern><clipPath id="n"><polygon class="a" points="364.52 168.22 290.44 168.22 194.46 168.22 194.46 362.97 197.94 362.97 197.94 449.91 594.39 449.91 594.39 362.97 596.13 362.97 596.13 168.22 364.52 168.22"/></clipPath></defs><path class="f" d="M55.31,597.13H57.1V609.9H55.31Zm.92,6.11h4.09a1.89,1.89,0,0,0,1-.27,1.82,1.82,0,0,0,.68-.77,2.67,2.67,0,0,0,.24-1.16,2.7,2.7,0,0,0-.24-1.16,1.82,1.82,0,0,0-1.7-1H56.23v-1.7h4a4.09,4.09,0,0,1,2,.48A3.45,3.45,0,0,1,63.62,599a4.64,4.64,0,0,1,0,4.11,3.34,3.34,0,0,1-1.35,1.36,4,4,0,0,1-2,.49h-4Z"/><path class="f" d="M67.7,606.33a2.07,2.07,0,0,0,.49,1.48,1.76,1.76,0,0,0,1.37.52,1.89,1.89,0,0,0,1.37-.46,1.79,1.79,0,0,0,.48-1.33l.12,1.91A2.58,2.58,0,0,1,69.06,610a2.89,2.89,0,0,1-2.33-1,4.08,4.08,0,0,1-.82-2.73v-5.55H67.7Zm.22-7.86a1.93,1.93,0,0,1-.56-1.5,2.07,2.07,0,0,1,.56-1.57,2.56,2.56,0,0,1,3.18,0,2.08,2.08,0,0,1,.57,1.56,1.94,1.94,0,0,1-.57,1.5,2.65,2.65,0,0,1-3.18,0Zm2.26-.86a.94.94,0,0,0,.24-.68,1,1,0,0,0-.24-.7.91.91,0,0,0-.67-.25.92.92,0,0,0-.67.25,1,1,0,0,0-.23.7,1,1,0,0,0,.23.68.92.92,0,0,0,.67.24A.9.9,0,0,0,70.18,597.61Zm1.23,3.17h1.78v9.12H71.41Z"/><path class="f" d="M77.1,609.63A2.82,2.82,0,0,1,76,608.36a5.08,5.08,0,0,1-.36-2v-2a5.05,5.05,0,0,1,.36-2,2.71,2.71,0,0,1,1-1.27,3,3,0,0,1,1.65-.44,2.71,2.71,0,0,1,1.48.42,3.22,3.22,0,0,1,1.09,1.19l-.18,1.86a2.19,2.19,0,0,0-.22-1,1.48,1.48,0,0,0-.61-.63,2,2,0,0,0-1-.21,1.71,1.71,0,0,0-1.37.55,2.26,2.26,0,0,0-.49,1.56v2a2.19,2.19,0,0,0,.49,1.54,1.74,1.74,0,0,0,1.37.54,1.93,1.93,0,0,0,1-.23,1.45,1.45,0,0,0,.61-.64,2.25,2.25,0,0,0,.22-1l.12,1.92a2.66,2.66,0,0,1-.89,1.14,2.56,2.56,0,0,1-1.53.45A3.19,3.19,0,0,1,77.1,609.63Zm4-12.5H82.9V609.9H81.11Z"/><path class="f" d="M87.09,609.57a3.09,3.09,0,0,1-1.29-1.36,4.85,4.85,0,0,1-.44-2.15v-1.48a4.71,4.71,0,0,1,.44-2.12,3.12,3.12,0,0,1,1.29-1.35,4.71,4.71,0,0,1,4.06,0,3.12,3.12,0,0,1,1.29,1.35,4.71,4.71,0,0,1,.44,2.12v1.51a4.79,4.79,0,0,1-.44,2.13,3.12,3.12,0,0,1-1.29,1.35,4.62,4.62,0,0,1-4.06,0Zm3.49-1.83a2.43,2.43,0,0,0,.51-1.65v-1.51a2.43,2.43,0,0,0-.51-1.65,1.88,1.88,0,0,0-1.46-.58,1.85,1.85,0,0,0-1.45.58,2.38,2.38,0,0,0-.52,1.65v1.51a2.38,2.38,0,0,0,.52,1.65,1.82,1.82,0,0,0,1.45.59A1.85,1.85,0,0,0,90.58,607.74Z"/><path class="f" d="M95.43,600.78h1.79v9.12H95.43Zm4.42,1.72a2.16,2.16,0,0,0-.83-.15,1.83,1.83,0,0,0-1.33.47,1.79,1.79,0,0,0-.47,1.31L97,602.37a3.32,3.32,0,0,1,1.09-1.27,2.58,2.58,0,0,1,1.48-.45,3.39,3.39,0,0,1,1.13.18,2.62,2.62,0,0,1,.88.53l-1.17,1.58A1.56,1.56,0,0,0,99.85,602.5Z"/><path class="f" d="M102.15,600.78H104l2.81,7.93-1,1.94Zm8.07,0L106.34,612a2.6,2.6,0,0,1-.56,1,1.87,1.87,0,0,1-.84.52,4,4,0,0,1-1.23.16h-.36V612h.36a1.46,1.46,0,0,0,.8-.2,1.74,1.74,0,0,0,.51-.7l3.38-10.31Z"/><path class="f" d="M113.51,609.88a5.76,5.76,0,0,1-1.32-.48,4.89,4.89,0,0,1-1.13-.79l1.06-1.31a5.86,5.86,0,0,0,1.47.85,4.18,4.18,0,0,0,1.44.28,3.11,3.11,0,0,0,1.6-.33,1.1,1.1,0,0,0,.53-1,.79.79,0,0,0-.29-.66,1.66,1.66,0,0,0-.72-.29c-.29,0-.69-.1-1.22-.14h-.15l-.14,0h-.15a6.45,6.45,0,0,1-1.5-.26,2,2,0,0,1-1-.7,2.38,2.38,0,0,1-.41-1.49,3.07,3.07,0,0,1,.39-1.61,2.41,2.41,0,0,1,1.18-1,5.29,5.29,0,0,1,2-.32,6.38,6.38,0,0,1,2.6.52,6.16,6.16,0,0,1,1.13.66l-1.08,1.31a5.59,5.59,0,0,0-1.35-.66,4,4,0,0,0-1.3-.22,2.44,2.44,0,0,0-1.37.31,1.08,1.08,0,0,0-.46.94.64.64,0,0,0,.26.55,1.72,1.72,0,0,0,.66.25c.26,0,.64.07,1.12.1h.34a7.67,7.67,0,0,1,1.63.25,2.24,2.24,0,0,1,1.13.77,2.62,2.62,0,0,1,.45,1.65,2.92,2.92,0,0,1-.42,1.63,2.54,2.54,0,0,1-1.27,1A5.88,5.88,0,0,1,115,610,7.38,7.38,0,0,1,113.51,609.88Z"/><path class="f" d="M126,597.13h1.8V609.9H126Zm2.6,12.5a2.39,2.39,0,0,1-.93-1.16l.13-1.91a2.22,2.22,0,0,0,.21,1,1.48,1.48,0,0,0,.61.63,1.93,1.93,0,0,0,1,.22,1.74,1.74,0,0,0,1.37-.54,2.18,2.18,0,0,0,.49-1.53v-2a2.26,2.26,0,0,0-.49-1.56,1.71,1.71,0,0,0-1.37-.55,2,2,0,0,0-1,.21,1.36,1.36,0,0,0-.61.62,2.12,2.12,0,0,0-.21,1l-.19-1.76a3.37,3.37,0,0,1,1.08-1.24,2.67,2.67,0,0,1,1.49-.43,3,3,0,0,1,1.65.43,2.9,2.9,0,0,1,1.06,1.27,5.1,5.1,0,0,1,.36,2v2a4.94,4.94,0,0,1-.37,2,2.79,2.79,0,0,1-1.08,1.26,3.25,3.25,0,0,1-1.71.44A2.73,2.73,0,0,1,128.57,609.63Z"/><path class="f" d="M134.46,600.78h1.82l2.81,7.93-1,1.94Zm8.07,0L138.65,612a2.6,2.6,0,0,1-.56,1,1.87,1.87,0,0,1-.84.52,4,4,0,0,1-1.23.16h-.36V612H136a1.46,1.46,0,0,0,.8-.2,1.74,1.74,0,0,0,.51-.7l3.37-10.31Z"/><path class="f" d="M143.57,600.78h4.12v1.62h-4.12Zm1.46,8.56a2.77,2.77,0,0,1-.52-1.81v-9.4h1.8v9.42a.84.84,0,0,0,.13.51.46.46,0,0,0,.39.18h.86V610h-1A2,2,0,0,1,145,609.34Z"/><path class="f" d="M151.94,606.33a2.07,2.07,0,0,0,.49,1.48,1.76,1.76,0,0,0,1.37.52,1.91,1.91,0,0,0,1.37-.46,1.79,1.79,0,0,0,.48-1.33l.12,1.91A2.58,2.58,0,0,1,153.3,610a2.89,2.89,0,0,1-2.33-1,4.08,4.08,0,0,1-.82-2.73v-5.55h1.79Zm3.71-5.55h1.78v9.12h-1.78Z"/><rect class="g" x="612.92" y="591.68" width="35.43" height="2.83"/><path class="h" d="M648.48,594.64H612.79v-3.08h35.69ZM613,594.39h35.19v-2.58H613Z"/><rect class="g" x="612.92" y="601.6" width="70.74" height="2.83"/><path class="h" d="M683.78,604.56h-71v-3.08h71ZM613,604.31h70.49v-2.58H613Z"/><rect class="g" x="612.92" y="612.72" width="177.16" height="2.84"/><path class="h" d="M790.21,615.68H612.79V612.6H790.21ZM613,615.43H790v-2.58H613Z"/><path class="i" d="M587.26,596.28h-.8v-4.82l-.81.5v-.83l.81-.53h.8Z"/><path class="i" d="M589,595.91a1.67,1.67,0,0,1-.41-1.19v-2.58A1.65,1.65,0,0,1,589,591a2,2,0,0,1,2.42,0,1.65,1.65,0,0,1,.41,1.19v2.58a1.65,1.65,0,0,1-.41,1.19,2,2,0,0,1-2.42,0Zm1.83-.55a.89.89,0,0,0,.2-.64v-2.58a.89.89,0,0,0-.2-.64.82.82,0,0,0-.62-.22.86.86,0,0,0-.63.22.94.94,0,0,0-.2.64v2.58a.9.9,0,0,0,.21.64,1,1,0,0,0,1.24,0Z"/><path class="i" d="M593.22,595.91a1.67,1.67,0,0,1-.41-1.19v-2.58a1.65,1.65,0,0,1,.41-1.19,2,2,0,0,1,2.42,0,1.61,1.61,0,0,1,.41,1.19v2.58a1.65,1.65,0,0,1-.41,1.19,2,2,0,0,1-2.42,0Zm1.83-.55a.9.9,0,0,0,.21-.64v-2.58a.94.94,0,0,0-.2-.64.86.86,0,0,0-.63-.22.82.82,0,0,0-.62.22.89.89,0,0,0-.2.64v2.58a.89.89,0,0,0,.2.64,1,1,0,0,0,1.24,0Z"/><path class="i" d="M600.1,596.13a1.45,1.45,0,0,1-.6-.6,2.06,2.06,0,0,1-.21-1v-.67a2,2,0,0,1,.21-.94,1.37,1.37,0,0,1,.6-.59,2,2,0,0,1,.95-.21,2.21,2.21,0,0,1,.59.08,1.68,1.68,0,0,1,.51.22,1.54,1.54,0,0,1,.37.35l-.58.52a1.17,1.17,0,0,0-.4-.3,1.13,1.13,0,0,0-.48-.11.94.94,0,0,0-.71.26,1,1,0,0,0-.26.72v.67a1,1,0,0,0,.25.74.94.94,0,0,0,.72.27,1,1,0,0,0,.48-.12,1,1,0,0,0,.4-.32l.58.56a1.38,1.38,0,0,1-.38.34,1.62,1.62,0,0,1-.5.22,2.27,2.27,0,0,1-.59.07A2.12,2.12,0,0,1,600.1,596.13Z"/><path class="i" d="M603.4,592.22h.79v4.06h-.79Zm2.42,1.6a1,1,0,0,0-.21-.67.78.78,0,0,0-.6-.23.81.81,0,0,0-.6.21.73.73,0,0,0-.22.58l-.08-.78a1.46,1.46,0,0,1,.49-.57,1.22,1.22,0,0,1,.67-.2,1.33,1.33,0,0,1,.73.2,1.18,1.18,0,0,1,.46.56,2.4,2.4,0,0,1,.15.89v2.47h-.79Zm2.42,0a.93.93,0,0,0-.22-.67.85.85,0,0,0-.63-.23.72.72,0,0,0-.57.23.9.9,0,0,0-.21.64l-.16-.78a1.61,1.61,0,0,1,.51-.63,1.23,1.23,0,0,1,.69-.22,1.37,1.37,0,0,1,.75.2,1.09,1.09,0,0,1,.47.56,2.21,2.21,0,0,1,.17.89v2.47h-.8Z"/><path class="i" d="M584.33,605.5l2-2.64a1.85,1.85,0,0,0,.27-.47,1.29,1.29,0,0,0,.09-.45h0a.67.67,0,0,0-.2-.53.81.81,0,0,0-.56-.19.76.76,0,0,0-.56.21,1,1,0,0,0-.27.58h-.82a2,2,0,0,1,.29-.83,1.42,1.42,0,0,1,.56-.53,1.67,1.67,0,0,1,.79-.18,1.93,1.93,0,0,1,.87.17,1.21,1.21,0,0,1,.54.51,1.55,1.55,0,0,1,.19.8h0a1.84,1.84,0,0,1-.12.63,2.8,2.8,0,0,1-.35.63l-1.65,2.24h2.15v.76h-3.2Z"/><path class="i" d="M589,605.83a1.67,1.67,0,0,1-.41-1.19v-2.58a1.65,1.65,0,0,1,.41-1.19,2,2,0,0,1,2.42,0,1.65,1.65,0,0,1,.41,1.19v2.58a1.65,1.65,0,0,1-.41,1.19,2,2,0,0,1-2.42,0Zm1.83-.55a.89.89,0,0,0,.2-.64v-2.58a.89.89,0,0,0-.2-.64.82.82,0,0,0-.62-.22.86.86,0,0,0-.63.22.94.94,0,0,0-.19.64v2.58a.89.89,0,0,0,.2.64,1,1,0,0,0,1.24,0Z"/><path class="i" d="M593.22,605.83a1.67,1.67,0,0,1-.41-1.19v-2.58a1.61,1.61,0,0,1,.42-1.19,1.59,1.59,0,0,1,1.2-.42,1.45,1.45,0,0,1,1.62,1.61v2.58a1.61,1.61,0,0,1-.41,1.19,2,2,0,0,1-2.42,0Zm1.84-.55a.94.94,0,0,0,.2-.64v-2.58a.94.94,0,0,0-.2-.64.84.84,0,0,0-.63-.22.82.82,0,0,0-.62.22.89.89,0,0,0-.2.64v2.58a.89.89,0,0,0,.2.64.82.82,0,0,0,.62.22A.86.86,0,0,0,595.06,605.28Z"/><path class="i" d="M600.1,606.05a1.45,1.45,0,0,1-.6-.6,2.06,2.06,0,0,1-.2-1v-.67a2,2,0,0,1,.2-.94,1.37,1.37,0,0,1,.6-.59,2,2,0,0,1,.95-.21,2.35,2.35,0,0,1,.6.08,1.73,1.73,0,0,1,.5.22,1.38,1.38,0,0,1,.37.35l-.58.52a1.08,1.08,0,0,0-.4-.3,1.13,1.13,0,0,0-.48-.11,1,1,0,0,0-.71.26,1,1,0,0,0-.26.72v.67a1,1,0,0,0,.25.74.94.94,0,0,0,.72.27,1.14,1.14,0,0,0,.88-.44l.58.56a1.38,1.38,0,0,1-.38.34,1.62,1.62,0,0,1-.5.22,2.22,2.22,0,0,1-.59.07A2.12,2.12,0,0,1,600.1,606.05Z"/><path class="i" d="M603.4,602.14h.79v4.06h-.79Zm2.42,1.6a1,1,0,0,0-.21-.67.78.78,0,0,0-.6-.23.81.81,0,0,0-.6.21.73.73,0,0,0-.22.58l-.08-.78a1.46,1.46,0,0,1,.49-.57,1.22,1.22,0,0,1,.67-.2,1.3,1.3,0,0,1,.73.2,1.18,1.18,0,0,1,.46.56,2.4,2.4,0,0,1,.16.89v2.47h-.8Zm2.42,0a.93.93,0,0,0-.22-.67.85.85,0,0,0-.63-.23.73.73,0,0,0-.57.23.89.89,0,0,0-.2.64l-.16-.78a1.51,1.51,0,0,1,.5-.63,1.23,1.23,0,0,1,.69-.22,1.35,1.35,0,0,1,.75.2,1.16,1.16,0,0,1,.48.56,2.4,2.4,0,0,1,.16.89v2.47h-.8Z"/><path class="i" d="M585,615.58a1.34,1.34,0,0,1-.54-.49,2,2,0,0,1-.28-.77h.8a.75.75,0,0,0,.25.49.85.85,0,0,0,.54.17.72.72,0,0,0,.59-.25,1.1,1.1,0,0,0,.21-.72v-.48a1.1,1.1,0,0,0-.21-.72.72.72,0,0,0-.59-.25.83.83,0,0,0-.4.11,1.18,1.18,0,0,0-.34.33h-.72v-3h2.89v.76h-2.1V612a1,1,0,0,1,.34-.18.94.94,0,0,1,.37-.07,1.68,1.68,0,0,1,.84.2,1.29,1.29,0,0,1,.53.6,2.07,2.07,0,0,1,.19.94V614a2.25,2.25,0,0,1-.19.94,1.31,1.31,0,0,1-.55.59,1.69,1.69,0,0,1-.86.21A1.74,1.74,0,0,1,585,615.58Z"/><path class="i" d="M589,615.32a1.65,1.65,0,0,1-.41-1.19v-2.58a1.67,1.67,0,0,1,.41-1.19,2,2,0,0,1,2.42,0,1.65,1.65,0,0,1,.41,1.19v2.58a1.64,1.64,0,0,1-.41,1.19,1.92,1.92,0,0,1-2.42,0Zm1.83-.55a.89.89,0,0,0,.2-.64v-2.58a.88.88,0,0,0-.2-.63.78.78,0,0,0-.62-.22.82.82,0,0,0-.63.22.93.93,0,0,0-.2.63v2.58a.9.9,0,0,0,.21.64,1,1,0,0,0,1.24,0Z"/><path class="i" d="M593.22,615.32a1.65,1.65,0,0,1-.41-1.19v-2.58a1.67,1.67,0,0,1,.41-1.19,2,2,0,0,1,2.42,0,1.61,1.61,0,0,1,.41,1.19v2.58a1.64,1.64,0,0,1-.41,1.19,1.92,1.92,0,0,1-2.42,0Zm1.83-.55a.9.9,0,0,0,.21-.64v-2.58a.93.93,0,0,0-.2-.63.82.82,0,0,0-.63-.22.78.78,0,0,0-.62.22.88.88,0,0,0-.2.63v2.58a.89.89,0,0,0,.2.64,1,1,0,0,0,1.24,0Z"/><path class="i" d="M600.1,615.54a1.45,1.45,0,0,1-.6-.6,2,2,0,0,1-.21-1v-.67a2,2,0,0,1,.21-.94,1.45,1.45,0,0,1,.6-.6,2,2,0,0,1,.95-.2,2.22,2.22,0,0,1,.59.07,2,2,0,0,1,.51.22,1.76,1.76,0,0,1,.37.35l-.58.52a1.17,1.17,0,0,0-.4-.3,1.13,1.13,0,0,0-.48-.11.94.94,0,0,0-.71.26,1,1,0,0,0-.26.73V614a1.07,1.07,0,0,0,.25.74,1,1,0,0,0,.72.26,1.13,1.13,0,0,0,.48-.11,1.26,1.26,0,0,0,.4-.32l.58.55a1.42,1.42,0,0,1-.38.35,1.88,1.88,0,0,1-.5.21,2.27,2.27,0,0,1-.59.08A2,2,0,0,1,600.1,615.54Z"/><path class="i" d="M603.4,611.63h.79v4.06h-.79Zm2.42,1.6a1,1,0,0,0-.21-.66.75.75,0,0,0-.6-.24.81.81,0,0,0-.6.21.75.75,0,0,0-.22.58l-.08-.78a1.5,1.5,0,0,1,.49-.56,1.15,1.15,0,0,1,.67-.2,1.32,1.32,0,0,1,.73.19,1.28,1.28,0,0,1,.46.56,2.42,2.42,0,0,1,.15.9v2.46h-.79Zm2.42,0a.91.91,0,0,0-.22-.66.82.82,0,0,0-.63-.24.72.72,0,0,0-.57.23.9.9,0,0,0-.21.64l-.16-.78a1.51,1.51,0,0,1,.51-.62,1.16,1.16,0,0,1,.69-.22,1.37,1.37,0,0,1,.75.19,1.18,1.18,0,0,1,.47.56,2.22,2.22,0,0,1,.17.9v2.46h-.8Z"/><path class="g" d="M23.49,613.89A12.92,12.92,0,1,1,36.4,601,12.93,12.93,0,0,1,23.49,613.89Zm0-24.83A11.92,11.92,0,1,0,35.4,601,11.93,11.93,0,0,0,23.49,589.06Z"/><polygon class="h" points="35.77 588.74 9.42 600.98 35.77 613.21 32.02 600.98 35.77 588.74"/><path class="g" d="M36.58,614.14,8.23,601l28.35-13.17-4,13.17ZM10.61,601,35,612.29,31.5,601,35,589.66Z"/><path class="g" d="M2.52,605.19a5,5,0,0,1-1.11-.38,4.4,4.4,0,0,1-1-.64l.81-1a3.72,3.72,0,0,0,1.16.69,4.08,4.08,0,0,0,1.38.23,2.73,2.73,0,0,0,1.55-.38,1.17,1.17,0,0,0,.55-1.05h0a1.12,1.12,0,0,0-.25-.77,1.44,1.44,0,0,0-.64-.42,8.23,8.23,0,0,0-1-.25H3.89l-.1,0a9.48,9.48,0,0,1-1.5-.36,2.08,2.08,0,0,1-1-.73,2.42,2.42,0,0,1-.41-1.51h0a2.77,2.77,0,0,1,.38-1.47,2.44,2.44,0,0,1,1.12-.92,4.48,4.48,0,0,1,1.77-.32,4.6,4.6,0,0,1,1,.11,4.9,4.9,0,0,1,1.86.86l-.73,1a4.61,4.61,0,0,0-1-.58,3,3,0,0,0-1.06-.2,2.44,2.44,0,0,0-1.46.38,1.24,1.24,0,0,0-.53,1.07h0a1,1,0,0,0,.27.75,1.74,1.74,0,0,0,.67.4,9.3,9.3,0,0,0,1.12.27h.24a7.93,7.93,0,0,1,1.4.41,2.22,2.22,0,0,1,.94.76,2.4,2.4,0,0,1,.38,1.43h0a2.62,2.62,0,0,1-.4,1.45,2.54,2.54,0,0,1-1.16.91,4.8,4.8,0,0,1-1.83.31A6.44,6.44,0,0,1,2.52,605.19Z"/><rect class="g" x="612.5" y="600.68" width="1" height="4.68"/><rect class="g" x="612.5" y="590.76" width="1" height="4.68"/><rect class="g" x="612.5" y="611.45" width="1" height="5.24"/><rect class="g" x="789.58" y="611.45" width="1" height="5.24"/><rect class="g" x="682.59" y="600.68" width="1" height="4.68"/><rect class="g" x="647.3" y="590.76" width="1" height="4.68"/><rect class="a" width="790.34" height="618.13"/><path class="j" d="M194.46,168.22h0Z"/><rect class="h" x="516.83" y="197.43" width="10.43" height="43.47"/><line class="k" x1="516.83" y1="197.43" x2="516.83" y2="240.9"/><line class="k" x1="527.27" y1="197.43" x2="516.83" y2="197.43"/><line class="k" x1="527.27" y1="240.9" x2="527.27" y2="197.43"/><line class="k" x1="516.83" y1="240.9" x2="527.27" y2="240.9"/><rect class="h" x="516.83" y="271.16" width="13.56" height="71.29"/><line class="k" x1="516.83" y1="271.16" x2="516.83" y2="342.45"/><line class="k" x1="530.4" y1="271.16" x2="516.83" y2="271.16"/><line class="k" x1="530.4" y1="342.45" x2="530.4" y2="271.16"/><line class="k" x1="516.83" y1="342.45" x2="530.4" y2="342.45"/><rect class="h" x="202.8" y="181.78" width="26.95" height="60.86"/><line class="k" x1="202.8" y1="181.78" x2="202.8" y2="242.64"/><line class="k" x1="229.76" y1="181.78" x2="202.8" y2="181.78"/><line class="k" x1="229.76" y1="242.64" x2="229.76" y2="181.78"/><line class="k" x1="202.8" y1="242.64" x2="229.76" y2="242.64"/><polygon class="l" points="493.19 176.57 514.4 176.57 514.4 243.68 493.19 243.68 493.19 197.78 404.85 197.78 404.85 176.57 493.19 176.57"/><line class="k" x1="514.4" y1="176.57" x2="493.19" y2="176.57"/><line class="k" x1="514.4" y1="243.68" x2="514.4" y2="176.57"/><line class="k" x1="493.19" y1="243.68" x2="514.4" y2="243.68"/><line class="k" x1="493.19" y1="197.78" x2="493.19" y2="243.68"/><line class="k" x1="404.85" y1="197.78" x2="493.19" y2="197.78"/><line class="k" x1="404.85" y1="176.57" x2="404.85" y2="197.78"/><line class="k" x1="493.19" y1="176.57" x2="404.85" y2="176.57"/><rect class="h" x="365.9" y="176.57" width="20.87" height="20.87"/><line class="k" x1="365.9" y1="176.57" x2="365.9" y2="197.43"/><line class="k" x1="386.77" y1="176.57" x2="365.9" y2="176.57"/><line class="k" x1="386.77" y1="197.43" x2="386.77" y2="176.57"/><line class="k" x1="365.9" y1="197.43" x2="386.77" y2="197.43"/><rect class="h" x="340.17" y="237.08" width="46.6" height="5.56"/><line class="k" x1="340.17" y1="237.08" x2="340.17" y2="242.64"/><line class="k" x1="386.77" y1="237.08" x2="340.17" y2="237.08"/><line class="k" x1="386.77" y1="242.64" x2="386.77" y2="237.08"/><line class="k" x1="340.17" y1="242.64" x2="386.77" y2="242.64"/><line class="k" x1="197.94" y1="437.74" x2="582.21" y2="437.74"/><line class="k" x1="326.61" y1="168.22" x2="328.35" y2="168.22"/><line class="k" x1="194.46" y1="362.97" x2="236.19" y2="362.97"/><line class="k" x1="337.04" y1="362.97" x2="392.68" y2="362.97"/><line class="k" x1="493.53" y1="362.97" x2="531.79" y2="362.97"/><line class="k" x1="563.09" y1="362.97" x2="582.21" y2="362.97"/><line class="k" x1="197.94" y1="449.91" x2="582.21" y2="449.91"/><line class="k" x1="197.94" y1="415.13" x2="200.54" y2="415.13"/><line class="k" x1="204.37" y1="415.13" x2="205.15" y2="415.13"/><line class="k" x1="208.98" y1="415.13" x2="209.76" y2="415.13"/><line class="k" x1="213.58" y1="415.13" x2="220.54" y2="415.13"/><line class="k" x1="224.37" y1="415.13" x2="225.15" y2="415.13"/><line class="k" x1="228.97" y1="415.13" x2="229.76" y2="415.13"/><line class="k" x1="233.58" y1="415.13" x2="240.54" y2="415.13"/><line class="k" x1="244.36" y1="415.13" x2="245.15" y2="415.13"/><line class="k" x1="248.97" y1="415.13" x2="249.75" y2="415.13"/><line class="k" x1="253.58" y1="415.13" x2="260.53" y2="415.13"/><line class="k" x1="264.36" y1="415.13" x2="265.14" y2="415.13"/><line class="k" x1="268.97" y1="415.13" x2="269.75" y2="415.13"/><line class="k" x1="273.57" y1="415.13" x2="280.53" y2="415.13"/><line class="k" x1="284.35" y1="415.13" x2="285.14" y2="415.13"/><line class="k" x1="288.96" y1="415.13" x2="289.75" y2="415.13"/><line class="k" x1="293.57" y1="415.13" x2="300.53" y2="415.13"/><line class="k" x1="304.35" y1="415.13" x2="305.13" y2="415.13"/><line class="k" x1="308.96" y1="415.13" x2="309.74" y2="415.13"/><line class="k" x1="313.57" y1="415.13" x2="320.52" y2="415.13"/><line class="k" x1="324.35" y1="415.13" x2="325.13" y2="415.13"/><line class="k" x1="328.95" y1="415.13" x2="329.74" y2="415.13"/><line class="k" x1="333.56" y1="415.13" x2="340.52" y2="415.13"/><line class="k" x1="344.34" y1="415.13" x2="345.13" y2="415.13"/><line class="k" x1="348.95" y1="415.13" x2="349.73" y2="415.13"/><line class="k" x1="353.56" y1="415.13" x2="360.51" y2="415.13"/><line class="k" x1="364.34" y1="415.13" x2="365.12" y2="415.13"/><line class="k" x1="368.95" y1="415.13" x2="369.73" y2="415.13"/><line class="k" x1="373.56" y1="415.13" x2="380.51" y2="415.13"/><line class="k" x1="384.34" y1="415.13" x2="385.12" y2="415.13"/><line class="k" x1="388.94" y1="415.13" x2="389.73" y2="415.13"/><line class="k" x1="393.55" y1="415.13" x2="400.51" y2="415.13"/><line class="k" x1="404.33" y1="415.13" x2="405.12" y2="415.13"/><line class="k" x1="408.94" y1="415.13" x2="409.72" y2="415.13"/><line class="k" x1="413.55" y1="415.13" x2="420.5" y2="415.13"/><line class="k" x1="424.33" y1="415.13" x2="425.11" y2="415.13"/><line class="k" x1="428.94" y1="415.13" x2="429.72" y2="415.13"/><line class="k" x1="433.54" y1="415.13" x2="440.5" y2="415.13"/><line class="k" x1="444.33" y1="415.13" x2="445.11" y2="415.13"/><line class="k" x1="448.93" y1="415.13" x2="449.72" y2="415.13"/><line class="k" x1="453.54" y1="415.13" x2="460.5" y2="415.13"/><line class="k" x1="464.32" y1="415.13" x2="465.1" y2="415.13"/><line class="k" x1="468.93" y1="415.13" x2="469.71" y2="415.13"/><line class="k" x1="473.54" y1="415.13" x2="480.49" y2="415.13"/><line class="k" x1="484.32" y1="415.13" x2="485.1" y2="415.13"/><line class="k" x1="488.93" y1="415.13" x2="489.71" y2="415.13"/><line class="k" x1="493.53" y1="415.13" x2="500.49" y2="415.13"/><line class="k" x1="504.31" y1="415.13" x2="505.1" y2="415.13"/><line class="k" x1="508.92" y1="415.13" x2="509.71" y2="415.13"/><line class="k" x1="513.53" y1="415.13" x2="514.4" y2="415.13"/><line class="k" x1="514.4" y1="415.13" x2="521.35" y2="415.13"/><line class="k" x1="202.8" y1="349.06" x2="234.45" y2="349.06"/><line class="k" x1="378.77" y1="349.06" x2="390.94" y2="349.06"/><line class="k" x1="516.83" y1="349.06" x2="530.05" y2="349.06"/><line class="k" x1="564.83" y1="349.06" x2="587.43" y2="349.06"/><line class="k" x1="194.46" y1="356.01" x2="234.45" y2="356.01"/><line class="k" x1="338.78" y1="356.01" x2="390.94" y2="356.01"/><line class="k" x1="495.27" y1="356.01" x2="530.05" y2="356.01"/><line class="k" x1="564.83" y1="356.01" x2="587.43" y2="356.01"/><line class="k" x1="582.21" y1="362.97" x2="582.21" y2="449.91"/><line class="k" x1="587.43" y1="356.01" x2="587.43" y2="449.91"/><line class="k" x1="594.39" y1="375.14" x2="594.39" y2="439.47"/><line class="k" x1="594.39" y1="446.43" x2="594.39" y2="449.91"/><line class="k" x1="521.35" y1="362.97" x2="521.35" y2="369.92"/><line class="k" x1="521.35" y1="373.75" x2="521.35" y2="374.53"/><line class="k" x1="521.35" y1="378.35" x2="521.35" y2="379.14"/><line class="k" x1="521.35" y1="382.96" x2="521.35" y2="389.92"/><line class="k" x1="521.35" y1="393.74" x2="521.35" y2="394.53"/><line class="k" x1="521.35" y1="398.35" x2="521.35" y2="399.13"/><line class="k" x1="521.35" y1="402.96" x2="521.35" y2="408.17"/><line class="k" x1="521.35" y1="408.17" x2="521.35" y2="415.13"/><line class="k" x1="596.12" y1="230.82" x2="596.12" y2="230.82"/><line class="k" x1="596.12" y1="241.25" x2="596.12" y2="241.25"/><line class="k" x1="596.12" y1="251.68" x2="596.12" y2="251.68"/><line class="k" x1="596.12" y1="262.11" x2="596.12" y2="262.11"/><line class="k" x1="596.12" y1="272.55" x2="596.12" y2="272.55"/><line class="k" x1="596.12" y1="282.98" x2="596.12" y2="282.98"/><line class="k" x1="194.46" y1="168.22" x2="282.09" y2="168.22"/><line class="k" x1="290.44" y1="168.22" x2="326.61" y2="168.22"/><line class="k" x1="364.86" y1="168.22" x2="596.12" y2="168.22"/><line class="k" x1="202.8" y1="349.06" x2="202.8" y2="245.08"/><line class="k" x1="202.8" y1="242.64" x2="202.8" y2="176.57"/><line class="k" x1="378.77" y1="349.06" x2="378.77" y2="245.08"/><line class="k" x1="330.09" y1="172.22" x2="361.38" y2="172.22"/><line class="k" x1="330.09" y1="168.22" x2="361.38" y2="168.22"/><line class="k" x1="330.09" y1="172.22" x2="330.09" y2="203.52"/><g class="m"><path class="k" d="M361.38,172.22a31.3,31.3,0,0,1-31.3,31.3"/></g><line class="k" x1="330.09" y1="168.22" x2="330.09" y2="172.22"/><line class="k" x1="361.38" y1="172.22" x2="361.38" y2="168.22"/><line class="k" x1="361.38" y1="172.22" x2="363.12" y2="172.22"/><line class="k" x1="361.38" y1="168.22" x2="363.12" y2="168.22"/><line class="k" x1="328.35" y1="172.22" x2="330.08" y2="172.22"/><line class="k" x1="328.35" y1="168.22" x2="330.08" y2="168.22"/><line class="k" x1="326.61" y1="172.22" x2="326.61" y2="168.22"/><line class="k" x1="364.86" y1="172.22" x2="364.86" y2="168.22"/><line class="k" x1="328.35" y1="172.22" x2="328.35" y2="168.22"/><line class="k" x1="363.12" y1="172.22" x2="363.12" y2="168.22"/><line class="k" x1="328.35" y1="172.22" x2="326.61" y2="172.22"/><line class="k" x1="326.61" y1="176.57" x2="333.56" y2="176.57"/><line class="k" x1="337.39" y1="176.57" x2="338.17" y2="176.57"/><line class="k" x1="342" y1="176.57" x2="342.78" y2="176.57"/><line class="k" x1="346.6" y1="176.57" x2="353.56" y2="176.57"/><line class="k" x1="357.38" y1="176.57" x2="357.91" y2="176.57"/><line class="k" x1="357.91" y1="176.57" x2="364.86" y2="176.57"/><line class="k" x1="326.61" y1="172.22" x2="326.61" y2="176.57"/><line class="k" x1="363.12" y1="172.22" x2="364.86" y2="172.22"/><line class="k" x1="364.86" y1="172.22" x2="364.86" y2="176.57"/><line class="k" x1="363.12" y1="168.22" x2="364.86" y2="168.22"/><line class="k" x1="282.09" y1="168.22" x2="282.09" y2="168.22"/><line class="k" x1="290.44" y1="168.22" x2="290.44" y2="168.22"/><line class="k" x1="338.78" y1="349.06" x2="371.82" y2="349.06"/><line class="k" x1="199.33" y1="362.97" x2="199.33" y2="434.26"/><line class="k" x1="371.82" y1="245.08" x2="378.77" y2="245.08"/><line class="k" x1="197.94" y1="434.26" x2="199.33" y2="434.26"/><line class="k" x1="202.8" y1="242.64" x2="202.8" y2="245.07"/><line class="k" x1="296.35" y1="242.64" x2="296.35" y2="233.95"/><line class="k" x1="296.35" y1="206.13" x2="296.35" y2="176.57"/><line class="k" x1="298.79" y1="242.64" x2="298.79" y2="233.95"/><line class="k" x1="298.79" y1="206.13" x2="298.79" y2="195.69"/><line class="k" x1="514.4" y1="243.34" x2="514.4" y2="176.57"/><line class="k" x1="202.8" y1="245.08" x2="305.74" y2="245.08"/><line class="k" x1="389.2" y1="245.08" x2="389.2" y2="233.95"/><line class="k" x1="389.2" y1="202.65" x2="389.2" y2="197.43"/><line class="k" x1="202.8" y1="242.64" x2="296.35" y2="242.64"/><line class="k" x1="298.79" y1="242.64" x2="305.74" y2="242.64"/><line class="k" x1="337.04" y1="242.64" x2="386.77" y2="242.64"/><line class="k" x1="386.77" y1="242.64" x2="386.77" y2="233.95"/><line class="k" x1="386.77" y1="202.65" x2="386.77" y2="176.57"/><line class="k" x1="516.83" y1="240.9" x2="516.83" y2="176.57"/><line class="k" x1="371.82" y1="245.08" x2="371.82" y2="349.06"/><line class="k" x1="326.61" y1="195.69" x2="298.79" y2="195.69"/><line class="k" x1="404.85" y1="176.57" x2="404.85" y2="197.43"/><line class="k" x1="404.85" y1="197.43" x2="389.21" y2="197.43"/><line class="k" x1="389.2" y1="176.57" x2="401.38" y2="176.57"/><line class="k" x1="401.38" y1="176.57" x2="401.38" y2="193.95"/><line class="k" x1="401.38" y1="193.95" x2="389.21" y2="193.95"/><line class="k" x1="389.2" y1="193.95" x2="389.2" y2="176.57"/><line class="k" x1="516.83" y1="271.16" x2="514.4" y2="271.16"/><line class="k" x1="514.4" y1="349.06" x2="495.27" y2="349.06"/><line class="k" x1="514.4" y1="349.06" x2="514.4" y2="271.16"/><line class="k" x1="516.83" y1="349.06" x2="516.83" y2="271.16"/><line class="k" x1="296.35" y1="206.13" x2="298.79" y2="206.13"/><line class="k" x1="296.35" y1="233.95" x2="298.79" y2="233.95"/><line class="k" x1="337.04" y1="242.64" x2="337.04" y2="245.07"/><line class="k" x1="305.74" y1="242.64" x2="305.74" y2="245.07"/><line class="k" x1="337.04" y1="245.08" x2="371.82" y2="245.08"/><line class="k" x1="378.77" y1="245.08" x2="389.2" y2="245.08"/><line class="k" x1="386.77" y1="233.95" x2="389.2" y2="233.95"/><line class="k" x1="386.77" y1="202.65" x2="389.2" y2="202.65"/><line class="k" x1="202.8" y1="176.57" x2="296.35" y2="176.57"/><line class="k" x1="296.35" y1="176.57" x2="298.79" y2="176.57"/><line class="k" x1="364.86" y1="176.57" x2="386.77" y2="176.57"/><line class="k" x1="404.85" y1="176.57" x2="514.4" y2="176.57"/><line class="k" x1="514.4" y1="176.57" x2="516.83" y2="176.57"/><line class="k" x1="516.83" y1="176.57" x2="587.43" y2="176.57"/><line class="k" x1="386.77" y1="176.57" x2="389.2" y2="176.57"/><line class="k" x1="401.38" y1="176.57" x2="404.85" y2="176.57"/><line class="k" x1="587.43" y1="176.57" x2="587.43" y2="240.9"/><line class="k" x1="587.43" y1="243.34" x2="587.43" y2="349.06"/><line class="k" x1="587.43" y1="243.34" x2="563.09" y2="243.34"/><line class="k" x1="531.79" y1="243.34" x2="514.4" y2="243.34"/><line class="k" x1="587.43" y1="240.9" x2="563.09" y2="240.9"/><line class="k" x1="531.79" y1="240.9" x2="516.83" y2="240.9"/><line class="k" x1="531.79" y1="240.9" x2="531.79" y2="243.34"/><line class="k" x1="563.09" y1="240.9" x2="563.09" y2="243.34"/><line class="k" x1="338.78" y1="349.06" x2="338.78" y2="356.01"/><line class="k" x1="390.94" y1="349.06" x2="390.94" y2="356.01"/><line class="k" x1="495.27" y1="349.06" x2="495.27" y2="356.01"/><line class="k" x1="530.05" y1="349.06" x2="530.05" y2="356.01"/><line class="k" x1="564.83" y1="349.06" x2="564.83" y2="356.01"/><line class="k" x1="531.79" y1="362.97" x2="563.09" y2="362.97"/><line class="k" x1="530.05" y1="349.06" x2="564.83" y2="349.06"/><line class="k" x1="493.53" y1="362.97" x2="423.98" y2="362.97"/><line class="k" x1="425.72" y1="338.62" x2="425.72" y2="356.01"/><line class="k" x1="495.27" y1="349.06" x2="390.94" y2="349.06"/><line class="k" x1="392.68" y1="356.01" x2="392.68" y2="362.97"/><line class="k" x1="390.94" y1="356.01" x2="392.68" y2="356.01"/><line class="k" x1="531.79" y1="356.01" x2="531.79" y2="362.97"/><line class="k" x1="530.05" y1="356.01" x2="531.79" y2="356.01"/><line class="k" x1="337.04" y1="356.01" x2="337.04" y2="362.97"/><line class="k" x1="337.04" y1="356.01" x2="338.78" y2="356.01"/><line class="k" x1="493.53" y1="356.01" x2="493.53" y2="362.97"/><line class="k" x1="493.53" y1="356.01" x2="495.27" y2="356.01"/><line class="k" x1="563.09" y1="356.01" x2="563.09" y2="362.97"/><line class="k" x1="563.09" y1="356.01" x2="564.83" y2="356.01"/><line class="k" x1="423.98" y1="356.01" x2="423.98" y2="362.97"/><line class="k" x1="423.98" y1="362.97" x2="417.03" y2="362.97"/><line class="k" x1="413.2" y1="362.97" x2="412.42" y2="362.97"/><line class="k" x1="408.59" y1="362.97" x2="407.81" y2="362.97"/><line class="k" x1="403.98" y1="362.97" x2="399.64" y2="362.97"/><line class="k" x1="399.64" y1="362.97" x2="392.68" y2="362.97"/><line class="k" x1="423.98" y1="359.49" x2="392.68" y2="359.49"/><line class="k" x1="425.72" y1="356.01" x2="425.72" y2="353.23"/><line class="k" x1="424.33" y1="355.31" x2="424.33" y2="352.53"/><line class="k" x1="424.33" y1="355.31" x2="392.33" y2="355.31"/><line class="k" x1="392.33" y1="355.31" x2="392.33" y2="320.54"/><line class="k" x1="421.55" y1="353.92" x2="395.12" y2="353.92"/><g class="m"><path class="k" d="M392.33,320.54a32,32,0,0,1,32,32"/></g><line class="k" x1="393.73" y1="355.31" x2="393.73" y2="356.01"/><line class="k" x1="393.73" y1="356.01" x2="390.94" y2="356.01"/><line class="k" x1="390.94" y1="356.01" x2="390.94" y2="353.23"/><line class="k" x1="390.94" y1="353.23" x2="392.33" y2="353.23"/><line class="k" x1="492.49" y1="355.31" x2="492.49" y2="356.01"/><line class="k" x1="492.49" y1="356.01" x2="495.27" y2="356.01"/><line class="k" x1="495.27" y1="356.01" x2="495.27" y2="353.23"/><line class="k" x1="495.27" y1="353.23" x2="493.88" y2="353.23"/><line class="k" x1="493.88" y1="355.31" x2="493.88" y2="352.53"/><line class="k" x1="459.11" y1="356.01" x2="459.11" y2="353.23"/><line class="k" x1="493.88" y1="355.31" x2="460.5" y2="355.31"/><line class="k" x1="460.5" y1="355.31" x2="460.5" y2="352.53"/><line class="k" x1="491.1" y1="353.92" x2="463.28" y2="353.92"/><line class="k" x1="562.04" y1="355.31" x2="562.04" y2="356.01"/><line class="k" x1="562.04" y1="356.01" x2="564.83" y2="356.01"/><line class="k" x1="564.83" y1="356.01" x2="564.83" y2="353.23"/><line class="k" x1="564.83" y1="353.23" x2="563.43" y2="353.23"/><line class="k" x1="563.43" y1="355.31" x2="563.43" y2="352.53"/><line class="k" x1="532.83" y1="355.31" x2="532.83" y2="356.01"/><line class="k" x1="532.83" y1="356.01" x2="530.05" y2="356.01"/><line class="k" x1="530.05" y1="356.01" x2="530.05" y2="353.23"/><line class="k" x1="530.05" y1="353.23" x2="531.44" y2="353.23"/><line class="k" x1="563.43" y1="355.31" x2="531.44" y2="355.31"/><line class="k" x1="531.44" y1="355.31" x2="531.44" y2="352.53"/><line class="k" x1="560.65" y1="353.92" x2="534.22" y2="353.92"/><line class="k" x1="428.5" y1="353.23" x2="428.5" y2="356.01"/><line class="k" x1="428.5" y1="354.62" x2="459.1" y2="354.62"/><line class="k" x1="234.45" y1="349.06" x2="234.45" y2="356.01"/><line class="k" x1="236.19" y1="362.97" x2="305.74" y2="362.97"/><line class="k" x1="234.45" y1="349.06" x2="338.78" y2="349.06"/><line class="k" x1="304" y1="338.62" x2="304" y2="356.01"/><line class="k" x1="236.19" y1="356.01" x2="236.19" y2="362.97"/><line class="k" x1="236.19" y1="356.01" x2="234.45" y2="356.01"/><line class="k" x1="305.74" y1="356.01" x2="305.74" y2="362.97"/><line class="k" x1="305.74" y1="362.97" x2="312.7" y2="362.97"/><line class="k" x1="316.52" y1="362.97" x2="317.31" y2="362.97"/><line class="k" x1="321.13" y1="362.97" x2="321.91" y2="362.97"/><line class="k" x1="325.74" y1="362.97" x2="330.09" y2="362.97"/><line class="k" x1="330.09" y1="362.97" x2="337.04" y2="362.97"/><line class="k" x1="305.74" y1="359.49" x2="337.04" y2="359.49"/><line class="k" x1="304" y1="356.01" x2="304" y2="353.23"/><line class="k" x1="337.39" y1="355.31" x2="305.4" y2="355.31"/><line class="k" x1="305.39" y1="355.31" x2="305.39" y2="352.53"/><line class="k" x1="337.39" y1="355.31" x2="337.39" y2="320.54"/><line class="k" x1="308.18" y1="353.92" x2="334.61" y2="353.92"/><g class="m"><path class="k" d="M305.39,352.53a32,32,0,0,1,32-32"/></g><line class="k" x1="336" y1="355.31" x2="336" y2="356.01"/><line class="k" x1="336" y1="356.01" x2="338.78" y2="356.01"/><line class="k" x1="338.78" y1="356.01" x2="338.78" y2="353.23"/><line class="k" x1="338.78" y1="353.23" x2="337.39" y2="353.23"/><line class="k" x1="237.23" y1="355.31" x2="237.23" y2="356.01"/><line class="k" x1="237.23" y1="356.01" x2="234.45" y2="356.01"/><line class="k" x1="234.45" y1="356.01" x2="234.45" y2="353.23"/><line class="k" x1="234.45" y1="353.23" x2="235.84" y2="353.23"/><line class="k" x1="269.23" y1="355.31" x2="235.84" y2="355.31"/><line class="k" x1="235.84" y1="355.31" x2="235.84" y2="352.53"/><line class="k" x1="270.62" y1="356.01" x2="270.62" y2="353.23"/><line class="k" x1="269.23" y1="355.31" x2="269.23" y2="352.53"/><line class="k" x1="238.62" y1="353.92" x2="266.44" y2="353.92"/><line class="k" x1="301.22" y1="353.23" x2="301.22" y2="356.01"/><line class="k" x1="301.22" y1="354.62" x2="270.62" y2="354.62"/><line class="k" x1="514.4" y1="349.06" x2="516.83" y2="349.06"/><line class="k" x1="335.3" y1="245.08" x2="307.48" y2="245.08"/><line class="k" x1="335.3" y1="245.08" x2="335.3" y2="272.9"/><g class="m"><path class="k" d="M335.3,272.9a27.83,27.83,0,0,1-27.82-27.82"/></g><line class="k" x1="335.3" y1="242.64" x2="335.3" y2="245.07"/><line class="k" x1="307.48" y1="245.08" x2="307.48" y2="242.64"/><line class="k" x1="307.48" y1="245.08" x2="305.74" y2="245.08"/><line class="k" x1="307.48" y1="242.64" x2="305.74" y2="242.64"/><line class="k" x1="337.04" y1="245.08" x2="335.3" y2="245.08"/><line class="k" x1="337.04" y1="242.64" x2="335.3" y2="242.64"/><line class="k" x1="335.3" y1="242.64" x2="328.35" y2="242.64"/><line class="k" x1="324.52" y1="242.64" x2="323.74" y2="242.64"/><line class="k" x1="319.91" y1="242.64" x2="319.13" y2="242.64"/><line class="k" x1="315.31" y1="242.64" x2="314.44" y2="242.64"/><line class="k" x1="314.44" y1="242.64" x2="307.48" y2="242.64"/><line class="k" x1="335.3" y1="245.08" x2="335.3" y2="245.94"/><line class="k" x1="335.3" y1="245.94" x2="338.78" y2="245.94"/><line class="k" x1="338.78" y1="245.94" x2="338.78" y2="245.08"/><line class="k" x1="335.3" y1="242.64" x2="335.3" y2="241.77"/><line class="k" x1="335.3" y1="241.77" x2="338.78" y2="241.77"/><line class="k" x1="338.78" y1="241.77" x2="338.78" y2="242.64"/><line class="k" x1="307.48" y1="245.94" x2="304" y2="245.94"/><line class="k" x1="304" y1="245.94" x2="304" y2="245.08"/><line class="k" x1="307.48" y1="242.64" x2="307.48" y2="241.77"/><line class="k" x1="307.48" y1="241.77" x2="304" y2="241.77"/><line class="k" x1="304" y1="241.77" x2="304" y2="242.64"/><line class="k" x1="298.79" y1="207.86" x2="298.79" y2="232.21"/><line class="k" x1="298.79" y1="207.86" x2="323.13" y2="207.86"/><g class="m"><path class="k" d="M323.13,207.86a24.35,24.35,0,0,1-24.34,24.35"/></g><line class="k" x1="296.35" y1="207.86" x2="298.79" y2="207.86"/><line class="k" x1="298.79" y1="232.21" x2="296.35" y2="232.21"/><line class="k" x1="298.79" y1="232.21" x2="298.79" y2="233.95"/><line class="k" x1="296.35" y1="232.21" x2="296.35" y2="233.95"/><line class="k" x1="298.79" y1="206.13" x2="298.79" y2="207.86"/><line class="k" x1="296.35" y1="206.13" x2="296.35" y2="207.86"/><line class="k" x1="296.35" y1="207.86" x2="296.35" y2="214.82"/><line class="k" x1="296.35" y1="218.65" x2="296.35" y2="219.43"/><line class="k" x1="296.35" y1="223.25" x2="296.35" y2="224.04"/><line class="k" x1="296.35" y1="225.25" x2="296.35" y2="232.21"/><line class="k" x1="298.79" y1="207.86" x2="299.66" y2="207.86"/><line class="k" x1="299.66" y1="207.86" x2="299.66" y2="204.39"/><line class="k" x1="299.66" y1="204.39" x2="298.79" y2="204.39"/><line class="k" x1="296.35" y1="207.86" x2="295.48" y2="207.86"/><line class="k" x1="295.48" y1="207.86" x2="295.48" y2="204.39"/><line class="k" x1="295.48" y1="204.39" x2="296.35" y2="204.39"/><line class="k" x1="299.66" y1="232.21" x2="299.66" y2="235.69"/><line class="k" x1="299.66" y1="235.69" x2="298.79" y2="235.69"/><line class="k" x1="296.35" y1="232.21" x2="295.48" y2="232.21"/><line class="k" x1="295.48" y1="232.21" x2="295.48" y2="235.69"/><line class="k" x1="295.48" y1="235.69" x2="296.35" y2="235.69"/><line class="k" x1="389.2" y1="204.39" x2="389.2" y2="232.21"/><line class="k" x1="389.2" y1="204.39" x2="417.03" y2="204.39"/><g class="m"><path class="k" d="M417,204.39a27.83,27.83,0,0,1-27.82,27.82"/></g><line class="k" x1="386.77" y1="204.39" x2="389.2" y2="204.39"/><line class="k" x1="389.2" y1="232.21" x2="386.77" y2="232.21"/><line class="k" x1="389.2" y1="232.21" x2="389.2" y2="233.95"/><line class="k" x1="386.77" y1="232.21" x2="386.77" y2="233.95"/><line class="k" x1="389.2" y1="202.65" x2="389.2" y2="204.39"/><line class="k" x1="386.77" y1="202.65" x2="386.77" y2="204.39"/><line class="k" x1="386.77" y1="204.39" x2="386.77" y2="211.34"/><line class="k" x1="386.77" y1="215.17" x2="386.77" y2="215.95"/><line class="k" x1="386.77" y1="219.78" x2="386.77" y2="220.56"/><line class="k" x1="386.77" y1="224.38" x2="386.77" y2="225.25"/><line class="k" x1="386.77" y1="225.25" x2="386.77" y2="232.21"/><line class="k" x1="389.2" y1="204.39" x2="390.07" y2="204.39"/><line class="k" x1="390.07" y1="204.39" x2="390.07" y2="200.91"/><line class="k" x1="390.07" y1="200.91" x2="389.21" y2="200.91"/><line class="k" x1="386.77" y1="204.39" x2="385.9" y2="204.39"/><line class="k" x1="385.9" y1="204.39" x2="385.9" y2="200.91"/><line class="k" x1="385.9" y1="200.91" x2="386.77" y2="200.91"/><line class="k" x1="390.07" y1="232.21" x2="390.07" y2="235.69"/><line class="k" x1="390.07" y1="235.69" x2="389.21" y2="235.69"/><line class="k" x1="386.77" y1="232.21" x2="385.9" y2="232.21"/><line class="k" x1="385.9" y1="232.21" x2="385.9" y2="235.69"/><line class="k" x1="385.9" y1="235.69" x2="386.77" y2="235.69"/><line class="k" x1="202.8" y1="181.78" x2="296.35" y2="181.78"/><line class="k" x1="596.12" y1="292.72" x2="596.12" y2="292.72"/><line class="k" x1="596.12" y1="301.76" x2="596.12" y2="301.76"/><line class="k" x1="596.12" y1="310.8" x2="596.12" y2="310.8"/><line class="k" x1="596.12" y1="319.84" x2="596.12" y2="319.84"/><line class="k" x1="596.12" y1="176.91" x2="596.12" y2="362.96"/><line class="k" x1="594.39" y1="368.18" x2="594.39" y2="175.17"/><line class="k" x1="596.12" y1="175.17" x2="594.39" y2="175.17"/><line class="k" x1="596.12" y1="176.91" x2="596.12" y2="176.91"/><line class="k" x1="304" y1="338.62" x2="338.78" y2="338.62"/><line class="k" x1="338.78" y1="338.62" x2="338.78" y2="349.06"/><line class="k" x1="390.94" y1="349.06" x2="390.94" y2="338.62"/><line class="k" x1="390.94" y1="338.62" x2="425.72" y2="338.62"/><line class="k" x1="425.72" y1="338.62" x2="425.72" y2="349.06"/><line class="k" x1="323.13" y1="176.57" x2="323.13" y2="192.22"/><line class="k" x1="326.61" y1="176.57" x2="326.61" y2="195.69"/><line class="k" x1="323.13" y1="190.48" x2="326.61" y2="190.48"/><line class="k" x1="323.13" y1="176.57" x2="326.61" y2="176.57"/><line class="k" x1="323.13" y1="190.48" x2="326.61" y2="190.48"/><line class="k" x1="323.13" y1="176.57" x2="298.79" y2="176.57"/><line class="k" x1="298.79" y1="176.57" x2="298.79" y2="192.22"/><line class="k" x1="298.79" y1="192.22" x2="323.13" y2="192.22"/><line class="k" x1="198.98" y1="362.97" x2="198.98" y2="434.26"/><line class="k" x1="198.98" y1="434.26" x2="197.93" y2="434.26"/><line class="k" x1="198.98" y1="365.05" x2="197.93" y2="365.05"/><line class="k" x1="587.43" y1="243.34" x2="587.43" y2="240.9"/><line class="k" x1="596.12" y1="220.38" x2="596.12" y2="220.38"/><line class="k" x1="596.12" y1="328.88" x2="596.12" y2="328.88"/><line class="k" x1="196.89" y1="362.97" x2="198.98" y2="362.97"/><line class="k" x1="197.94" y1="432.17" x2="198.98" y2="432.17"/><line class="k" x1="266.45" y1="352.53" x2="266.45" y2="355.31"/><line class="k" x1="305.39" y1="353.23" x2="269.23" y2="353.23"/><line class="k" x1="267.84" y1="355.31" x2="267.84" y2="356.01"/><line class="k" x1="267.84" y1="356.01" x2="306.78" y2="356.01"/><line class="k" x1="238.62" y1="352.53" x2="238.62" y2="355.31"/><line class="k" x1="235.84" y1="352.53" x2="269.23" y2="352.53"/><line class="k" x1="334.61" y1="352.53" x2="334.61" y2="355.31"/><line class="k" x1="308.18" y1="352.53" x2="308.18" y2="355.31"/><line class="k" x1="305.39" y1="352.53" x2="337.39" y2="352.53"/><line class="k" x1="306.79" y1="355.31" x2="306.79" y2="356.01"/><line class="k" x1="534.22" y1="352.53" x2="534.22" y2="355.31"/><line class="k" x1="531.44" y1="352.53" x2="563.43" y2="352.53"/><line class="k" x1="560.65" y1="352.53" x2="560.65" y2="355.31"/><line class="k" x1="463.28" y1="352.53" x2="463.28" y2="355.31"/><line class="k" x1="460.5" y1="352.53" x2="493.88" y2="352.53"/><line class="k" x1="461.89" y1="355.31" x2="461.89" y2="356.01"/><line class="k" x1="491.1" y1="352.53" x2="491.1" y2="355.31"/><line class="k" x1="395.12" y1="352.53" x2="395.12" y2="355.31"/><line class="k" x1="392.33" y1="352.53" x2="424.33" y2="352.53"/><line class="k" x1="421.55" y1="352.53" x2="421.55" y2="355.31"/><line class="k" x1="460.5" y1="353.23" x2="424.33" y2="353.23"/><line class="k" x1="422.94" y1="355.31" x2="422.94" y2="356.01"/><line class="k" x1="422.94" y1="356.01" x2="461.89" y2="356.01"/><line class="k" x1="298.79" y1="195.69" x2="298.79" y2="192.22"/><line class="k" x1="389.2" y1="197.43" x2="389.2" y2="193.95"/><line class="k" x1="531.79" y1="240.9" x2="538.74" y2="240.9"/><line class="k" x1="542.57" y1="240.9" x2="543.35" y2="240.9"/><line class="k" x1="547.18" y1="240.9" x2="547.96" y2="240.9"/><line class="k" x1="551.78" y1="240.9" x2="556.13" y2="240.9"/><line class="k" x1="556.13" y1="240.9" x2="563.09" y2="240.9"/><line class="k" x1="563.09" y1="243.34" x2="556.13" y2="243.34"/><line class="k" x1="552.31" y1="243.34" x2="551.52" y2="243.34"/><line class="k" x1="547.7" y1="243.34" x2="546.91" y2="243.34"/><line class="k" x1="543.09" y1="243.34" x2="538.74" y2="243.34"/><line class="k" x1="538.74" y1="243.34" x2="531.79" y2="243.34"/><line class="k" x1="236.71" y1="241.77" x2="236.71" y2="238.29"/><line class="k" x1="236.71" y1="238.29" x2="257.58" y2="238.29"/><line class="k" x1="257.58" y1="238.29" x2="257.58" y2="241.77"/><line class="k" x1="257.58" y1="241.77" x2="256.53" y2="241.77"/><line class="k" x1="256.53" y1="241.77" x2="256.53" y2="239.34"/><line class="k" x1="256.53" y1="239.34" x2="237.75" y2="239.34"/><line class="k" x1="237.75" y1="239.34" x2="237.75" y2="241.77"/><line class="k" x1="237.75" y1="241.77" x2="236.71" y2="241.77"/><line class="k" x1="236.71" y1="241.77" x2="236.71" y2="238.29"/><line class="k" x1="257.58" y1="241.77" x2="257.58" y2="238.29"/><line class="k" x1="237.75" y1="241.77" x2="237.75" y2="239.34"/><line class="k" x1="256.53" y1="241.77" x2="256.53" y2="239.34"/><line class="k" x1="236.71" y1="238.29" x2="257.58" y2="238.29"/><line class="k" x1="236.71" y1="239.34" x2="257.58" y2="239.34"/><line class="k" x1="236.71" y1="241.77" x2="237.75" y2="241.77"/><line class="k" x1="256.53" y1="241.77" x2="257.58" y2="241.77"/><line class="k" x1="229.76" y1="241.77" x2="229.76" y2="182.65"/><line class="k" x1="227.67" y1="189.35" x2="227.59" y2="188.52"/><line class="k" x1="227.59" y1="188.52" x2="227.35" y2="187.71"/><line class="k" x1="227.35" y1="187.71" x2="226.97" y2="186.95"/><line class="k" x1="226.97" y1="186.96" x2="226.45" y2="186.27"/><line class="k" x1="226.45" y1="186.27" x2="225.81" y2="185.68"/><line class="k" x1="225.81" y1="185.68" x2="225.06" y2="185.21"/><line class="k" x1="225.06" y1="185.21" x2="224.24" y2="184.85"/><line class="k" x1="224.24" y1="184.85" x2="223.36" y2="184.64"/><line class="k" x1="223.36" y1="184.64" x2="222.45" y2="184.57"/><line class="k" x1="222.45" y1="184.56" x2="210.98" y2="184.56"/><line class="k" x1="210.98" y1="184.56" x2="210.07" y2="184.64"/><line class="k" x1="210.07" y1="184.64" x2="209.19" y2="184.85"/><line class="k" x1="209.19" y1="184.85" x2="208.37" y2="185.2"/><line class="k" x1="208.37" y1="185.21" x2="207.62" y2="185.68"/><line class="k" x1="207.62" y1="185.68" x2="206.98" y2="186.27"/><line class="k" x1="206.98" y1="186.27" x2="206.46" y2="186.96"/><line class="k" x1="206.46" y1="186.96" x2="206.08" y2="187.71"/><line class="k" x1="206.07" y1="187.71" x2="205.84" y2="188.52"/><line class="k" x1="205.84" y1="188.52" x2="205.76" y2="189.35"/><line class="k" x1="205.76" y1="189.35" x2="205.76" y2="229.82"/><line class="k" x1="205.76" y1="229.82" x2="205.93" y2="231.56"/><line class="k" x1="205.93" y1="231.56" x2="206.42" y2="233.25"/><line class="k" x1="206.42" y1="233.25" x2="207.23" y2="234.84"/><line class="k" x1="207.23" y1="234.84" x2="208.32" y2="236.27"/><line class="k" x1="208.32" y1="236.27" x2="209.67" y2="237.51"/><line class="k" x1="209.67" y1="237.51" x2="211.24" y2="238.51"/><line class="k" x1="211.24" y1="238.51" x2="212.97" y2="239.25"/><line class="k" x1="212.97" y1="239.25" x2="214.81" y2="239.71"/><line class="k" x1="214.81" y1="239.71" x2="216.72" y2="239.86"/><line class="k" x1="216.71" y1="239.86" x2="218.62" y2="239.71"/><line class="k" x1="218.62" y1="239.71" x2="220.46" y2="239.25"/><line class="k" x1="220.46" y1="239.25" x2="222.19" y2="238.51"/><line class="k" x1="222.19" y1="238.51" x2="223.76" y2="237.51"/><line class="k" x1="223.76" y1="237.51" x2="225.11" y2="236.27"/><line class="k" x1="225.11" y1="236.27" x2="226.2" y2="234.84"/><line class="k" x1="226.2" y1="234.84" x2="227.01" y2="233.25"/><line class="k" x1="227.01" y1="233.25" x2="227.5" y2="231.56"/><line class="k" x1="227.5" y1="231.56" x2="227.67" y2="229.82"/><line class="k" x1="227.67" y1="229.82" x2="227.67" y2="189.35"/><line class="k" x1="215.85" y1="183.68" x2="215.98" y2="185.14"/><line class="k" x1="216.1" y1="185.47" x2="216.1" y2="185.47"/><line class="k" x1="216.1" y1="185.47" x2="216.33" y2="187.31"/><line class="k" x1="217.1" y1="187.31" x2="217.1" y2="187.31"/><line class="k" x1="217.1" y1="187.31" x2="217.33" y2="185.47"/><line class="k" x1="217.44" y1="185.14" x2="217.45" y2="185.14"/><line class="k" x1="217.44" y1="185.14" x2="217.58" y2="183.68"/><line class="k" x1="215.85" y1="183.68" x2="215.85" y2="183.68"/><line class="k" x1="217.19" y1="184.55" x2="217.19" y2="185.07"/><line class="k" x1="216.24" y1="185.07" x2="216.24" y2="184.55"/><line class="k" x1="216.24" y1="184.55" x2="217.19" y2="184.55"/><line class="k" x1="426.07" y1="197.78" x2="426.07" y2="176.91"/><line class="k" x1="418.09" y1="184.89" x2="413.18" y2="189.81"/><line class="k" x1="413.18" y1="184.89" x2="418.09" y2="189.81"/><line class="k" x1="415.64" y1="190.82" x2="415.64" y2="183.87"/><line class="k" x1="419.11" y1="187.35" x2="412.16" y2="187.35"/><line class="k" x1="426.07" y1="197.78" x2="405.2" y2="197.78"/><line class="k" x1="446.06" y1="196.04" x2="426.94" y2="196.04"/><line class="k" x1="426.94" y1="196.04" x2="426.94" y2="178.65"/><line class="k" x1="426.94" y1="178.65" x2="446.06" y2="178.65"/><line class="k" x1="446.06" y1="178.65" x2="446.06" y2="196.04"/><line class="k" x1="446.93" y1="197.78" x2="426.07" y2="197.78"/><line class="k" x1="444.33" y1="194.3" x2="428.68" y2="194.3"/><line class="k" x1="428.68" y1="194.3" x2="428.68" y2="182.13"/><line class="k" x1="428.68" y1="182.13" x2="444.33" y2="182.13"/><line class="k" x1="444.33" y1="182.13" x2="444.33" y2="194.3"/><line class="k" x1="467.8" y1="176.91" x2="467.8" y2="197.78"/><line class="k" x1="467.8" y1="197.78" x2="446.93" y2="197.78"/><line class="k" x1="446.93" y1="197.78" x2="446.93" y2="176.91"/><line class="k" x1="514.05" y1="229.77" x2="493.19" y2="229.77"/><line class="k" x1="493.19" y1="229.77" x2="493.19" y2="208.91"/><line class="k" x1="493.19" y1="208.91" x2="514.05" y2="208.91"/><line class="k" x1="492.24" y1="211.75" x2="492.24" y2="226.93"/><line class="k" x1="386.3" y1="287.27" x2="386.3" y2="318.99"/><line class="k" x1="386.3" y1="318.99" x2="384.17" y2="318.99"/><line class="k" x1="384.17" y1="318.99" x2="382.04" y2="311.06"/><line class="k" x1="382.04" y1="311.06" x2="382.04" y2="295.2"/><line class="k" x1="382.04" y1="295.2" x2="384.17" y2="287.27"/><line class="k" x1="384.17" y1="287.27" x2="386.3" y2="287.27"/><line class="k" x1="385.45" y1="316.88" x2="385.45" y2="314.77"/><line class="k" x1="385.45" y1="314.77" x2="384.92" y2="314.77"/><line class="k" x1="384.92" y1="314.77" x2="384.92" y2="316.88"/><line class="k" x1="384.92" y1="316.88" x2="385.45" y2="316.88"/><line class="k" x1="385.45" y1="314.23" x2="385.45" y2="312.12"/><line class="k" x1="385.45" y1="312.12" x2="384.92" y2="312.12"/><line class="k" x1="384.92" y1="312.12" x2="384.92" y2="314.23"/><line class="k" x1="384.92" y1="314.23" x2="385.45" y2="314.23"/><line class="k" x1="385.45" y1="311.59" x2="385.45" y2="310.53"/><line class="k" x1="385.45" y1="310.53" x2="384.92" y2="310.53"/><line class="k" x1="384.92" y1="310.53" x2="384.92" y2="311.59"/><line class="k" x1="384.92" y1="311.59" x2="385.45" y2="311.59"/><line class="k" x1="384.17" y1="287.27" x2="384.17" y2="318.99"/><line class="k" x1="467.8" y1="197.78" x2="467.8" y2="176.57"/><line class="k" x1="467.8" y1="176.57" x2="488.67" y2="176.57"/><line class="k" x1="488.67" y1="176.57" x2="488.67" y2="197.78"/><line class="k" x1="488.67" y1="197.78" x2="467.8" y2="197.78"/><line class="k" x1="404.85" y1="197.78" x2="404.85" y2="176.57"/><line class="k" x1="404.85" y1="176.57" x2="514.4" y2="176.57"/><line class="k" x1="514.4" y1="176.57" x2="514.4" y2="243.68"/><line class="k" x1="514.4" y1="243.68" x2="493.19" y2="243.68"/><line class="k" x1="493.19" y1="243.68" x2="493.19" y2="197.78"/><line class="k" x1="493.19" y1="197.78" x2="404.85" y2="197.78"/><line class="k" x1="340.17" y1="237.08" x2="386.77" y2="237.08"/><line class="k" x1="386.77" y1="237.08" x2="386.77" y2="242.64"/><line class="k" x1="386.77" y1="242.64" x2="340.17" y2="242.64"/><line class="k" x1="340.17" y1="242.64" x2="340.17" y2="237.08"/><line class="k" x1="488.32" y1="347.32" x2="432.68" y2="347.32"/><line class="k" x1="432.68" y1="347.32" x2="432.68" y2="343.84"/><line class="k" x1="432.68" y1="343.84" x2="488.32" y2="343.84"/><line class="k" x1="488.32" y1="343.84" x2="488.32" y2="347.32"/><line class="k" x1="560.87" y1="347.32" x2="533.05" y2="347.32"/><line class="k" x1="533.05" y1="347.32" x2="533.05" y2="343.84"/><line class="k" x1="533.05" y1="343.84" x2="560.87" y2="343.84"/><line class="k" x1="560.87" y1="343.84" x2="560.87" y2="347.32"/><line class="k" x1="286.62" y1="347.32" x2="251.84" y2="347.32"/><line class="k" x1="251.84" y1="347.32" x2="251.84" y2="345.13"/><line class="k" x1="251.84" y1="345.13" x2="286.62" y2="345.13"/><line class="k" x1="286.62" y1="345.13" x2="286.62" y2="347.32"/><line class="k" x1="516.83" y1="271.16" x2="530.4" y2="271.16"/><line class="k" x1="530.4" y1="271.16" x2="530.4" y2="306.8"/><line class="k" x1="530.4" y1="306.8" x2="516.83" y2="306.8"/><line class="k" x1="516.83" y1="306.8" x2="516.83" y2="271.16"/><line class="k" x1="460.15" y1="279.78" x2="477.54" y2="279.78"/><line class="k" x1="477.54" y1="279.78" x2="477.54" y2="307.6"/><line class="k" x1="477.54" y1="307.6" x2="460.15" y2="307.6"/><line class="k" x1="460.15" y1="307.6" x2="460.15" y2="279.78"/><g class="m"><path class="k" d="M217.58,191a.87.87,0,1,0-.87.87.87.87,0,0,0,.87-.87"/><path class="k" d="M216.1,185.47a.77.77,0,0,1-.12-.33"/><path class="k" d="M217.1,187.31a.39.39,0,0,1-.77,0"/><path class="k" d="M217.44,185.14a.76.76,0,0,1-.11.33"/><path class="k" d="M215.85,183.68a.87.87,0,1,1,1.73,0"/><path class="k" d="M217.19,185.07a.48.48,0,0,1-.95,0"/><path class="k" d="M217.33,185.47a.73.73,0,0,1-1.23,0"/><path class="k" d="M437.2,185.61a.7.7,0,1,0-.7.69.7.7,0,0,0,.7-.69"/><path class="k" d="M512.16,224.46a3.42,3.42,0,1,0-3.42,3.42,3.42,3.42,0,0,0,3.42-3.42"/><path class="k" d="M501.91,224.46a3.41,3.41,0,1,0-3.41,3.42,3.41,3.41,0,0,0,3.41-3.42"/><path class="k" d="M501.91,214.22a3.41,3.41,0,1,0-3.41,3.41,3.4,3.4,0,0,0,3.41-3.41"/><path class="k" d="M484.32,187.35a6.09,6.09,0,1,0-6.09,6.08,6.08,6.08,0,0,0,6.09-6.08"/><path class="k" d="M483.27,187.35a5,5,0,1,0-5,5,5,5,0,0,0,5-5"/><path class="k" d="M382.43,296.79a6.35,6.35,0,0,1,0,12.69"/><path class="k" d="M382.43,309.48a12.69,12.69,0,0,1,0-12.69"/><path class="k" d="M430.94,345.58a1.74,1.74,0,1,0-1.74,1.74,1.74,1.74,0,0,0,1.74-1.74"/><path class="k" d="M531.32,345.58a1.74,1.74,0,1,0-1.74,1.74,1.74,1.74,0,0,0,1.74-1.74"/><path class="k" d="M250.1,346.22a1.74,1.74,0,1,0-1.74,1.74,1.74,1.74,0,0,0,1.74-1.74"/></g><line class="k" x1="401.38" y1="193.95" x2="393" y2="190.46"/><line class="k" x1="393" y1="190.46" x2="389.21" y2="176.57"/><line class="k" x1="389.2" y1="176.57" x2="389.2" y2="193.95"/><line class="k" x1="389.2" y1="193.95" x2="401.38" y2="193.95"/><line class="k" x1="323.13" y1="192.22" x2="303.26" y2="188.84"/><line class="k" x1="303.26" y1="188.84" x2="298.79" y2="176.57"/><line class="k" x1="298.79" y1="176.57" x2="298.79" y2="192.22"/><line class="k" x1="298.79" y1="192.22" x2="323.13" y2="192.22"/><rect class="h" x="460.15" y="279.78" width="17.39" height="27.82"/><line class="k" x1="460.15" y1="279.78" x2="460.15" y2="307.6"/><line class="k" x1="477.54" y1="279.78" x2="460.15" y2="279.78"/><line class="k" x1="477.54" y1="307.6" x2="477.54" y2="279.78"/><line class="k" x1="460.15" y1="307.6" x2="477.54" y2="307.6"/><rect class="h" x="378.77" y="245.07" width="10.78" height="103.98"/><line class="k" x1="378.77" y1="245.08" x2="378.77" y2="349.06"/><line class="k" x1="389.55" y1="245.08" x2="378.77" y2="245.08"/><line class="k" x1="389.55" y1="349.06" x2="389.55" y2="245.08"/><line class="k" x1="378.77" y1="349.06" x2="389.55" y2="349.06"/><rect class="h" x="202.8" y="176.57" width="93.55" height="5.22"/><line class="k" x1="202.8" y1="176.57" x2="202.8" y2="181.78"/><line class="k" x1="296.35" y1="176.57" x2="202.8" y2="176.57"/><line class="k" x1="296.35" y1="181.78" x2="296.35" y2="176.57"/><line class="k" x1="202.8" y1="181.78" x2="296.35" y2="181.78"/><rect class="h" x="566.56" y="176.57" width="20.87" height="20.87"/><line class="k" x1="566.56" y1="176.57" x2="566.56" y2="197.43"/><line class="k" x1="587.43" y1="176.57" x2="566.56" y2="176.57"/><line class="k" x1="587.43" y1="197.43" x2="587.43" y2="176.57"/><line class="k" x1="566.56" y1="197.43" x2="587.43" y2="197.43"/><rect class="h" x="197.93" y="364.7" width="1.39" height="71.29"/><line class="k" x1="199.33" y1="364.71" x2="197.94" y2="364.71"/><line class="k" x1="199.33" y1="436" x2="199.33" y2="364.71"/><line class="k" x1="197.94" y1="436" x2="199.33" y2="436"/><rect class="h" x="236.71" y="239.34" width="1.04" height="2.43"/><line class="k" x1="237.75" y1="239.34" x2="236.71" y2="239.34"/><line class="k" x1="237.75" y1="241.77" x2="237.75" y2="239.34"/><line class="k" x1="236.71" y1="241.77" x2="237.75" y2="241.77"/><line class="k" x1="236.71" y1="239.34" x2="236.71" y2="241.77"/><rect class="h" x="236.71" y="238.29" width="20.87" height="1.04"/><line class="k" x1="236.71" y1="238.29" x2="236.71" y2="239.34"/><line class="k" x1="257.58" y1="238.29" x2="236.71" y2="238.29"/><line class="k" x1="257.58" y1="239.34" x2="257.58" y2="238.29"/><line class="k" x1="236.71" y1="239.34" x2="257.58" y2="239.34"/><rect class="h" x="256.53" y="239.34" width="1.04" height="2.43"/><line class="k" x1="257.58" y1="239.34" x2="256.53" y2="239.34"/><line class="k" x1="257.58" y1="241.77" x2="257.58" y2="239.34"/><line class="k" x1="256.53" y1="241.77" x2="257.58" y2="241.77"/><line class="k" x1="256.53" y1="239.34" x2="256.53" y2="241.77"/><polygon class="l" points="250.1 346.22 249.59 347.45 248.36 347.96 247.13 347.45 246.62 346.22 247.13 344.99 248.36 344.48 249.59 344.99 250.1 346.22"/><g class="m"><path class="k" d="M250.1,346.22a1.74,1.74,0,1,1-3.48,0"/><path class="k" d="M246.62,346.22a1.74,1.74,0,1,1,3.48,0"/></g><rect class="h" x="251.84" y="345.13" width="34.78" height="2.19"/><line class="k" x1="251.84" y1="347.32" x2="286.62" y2="347.32"/><line class="k" x1="251.84" y1="345.13" x2="251.84" y2="347.32"/><line class="k" x1="286.62" y1="345.13" x2="251.84" y2="345.13"/><line class="k" x1="286.62" y1="347.32" x2="286.62" y2="345.13"/><polygon class="l" points="430.94 345.58 430.43 346.81 429.2 347.32 427.97 346.81 427.46 345.58 427.97 344.35 429.2 343.84 430.43 344.35 430.94 345.58"/><g class="m"><path class="k" d="M430.94,345.58a1.74,1.74,0,0,1-3.48,0"/><path class="k" d="M427.46,345.58a1.74,1.74,0,0,1,3.48,0"/></g><rect class="h" x="432.68" y="343.84" width="55.64" height="3.48"/><line class="k" x1="432.68" y1="347.32" x2="488.32" y2="347.32"/><line class="k" x1="432.68" y1="343.84" x2="432.68" y2="347.32"/><line class="k" x1="488.32" y1="343.84" x2="432.68" y2="343.84"/><line class="k" x1="488.32" y1="347.32" x2="488.32" y2="343.84"/><polygon class="l" points="531.32 345.58 530.8 346.81 529.58 347.32 528.35 346.81 527.84 345.58 528.35 344.35 529.58 343.84 530.8 344.35 531.32 345.58"/><g class="m"><path class="k" d="M531.32,345.58a1.74,1.74,0,1,1-3.48,0"/><path class="k" d="M527.84,345.58a1.74,1.74,0,0,1,3.48,0"/></g><rect class="h" x="533.05" y="343.84" width="27.82" height="3.48"/><line class="k" x1="533.05" y1="343.84" x2="533.05" y2="347.32"/><line class="k" x1="560.87" y1="343.84" x2="533.05" y2="343.84"/><line class="k" x1="560.87" y1="347.32" x2="560.87" y2="343.84"/><line class="k" x1="533.05" y1="347.32" x2="560.87" y2="347.32"/><polygon class="l" points="202.8 266.17 202.8 328.77 213.24 328.77 265.4 328.77 268.06 328.23 270.32 326.73 271.83 324.47 272.36 321.81 272.36 273.12 271.83 270.46 270.32 268.2 268.06 266.7 265.4 266.17 202.8 266.17"/><rect class="h" x="202.8" y="254" width="10.43" height="12.17"/><rect class="h" x="202.8" y="328.77" width="10.43" height="12.17"/><line class="k" x1="214.37" y1="299.44" x2="211.36" y2="300.27"/><line class="k" x1="214.37" y1="270.23" x2="211.36" y2="271.07"/><line class="k" x1="272.36" y1="321.81" x2="272.36" y2="273.12"/><line class="k" x1="265.4" y1="266.17" x2="202.8" y2="266.17"/><line class="k" x1="202.8" y1="266.17" x2="202.8" y2="328.77"/><line class="k" x1="202.8" y1="328.77" x2="265.4" y2="328.77"/><line class="k" x1="202.8" y1="266.17" x2="202.8" y2="254"/><line class="k" x1="202.8" y1="254" x2="213.24" y2="254"/><line class="k" x1="213.24" y1="254" x2="213.24" y2="266.17"/><line class="k" x1="213.24" y1="266.17" x2="202.8" y2="266.17"/><line class="k" x1="202.8" y1="340.94" x2="202.8" y2="328.77"/><line class="k" x1="202.8" y1="328.77" x2="213.24" y2="328.77"/><line class="k" x1="213.24" y1="328.77" x2="213.24" y2="340.94"/><line class="k" x1="213.24" y1="340.94" x2="202.8" y2="340.94"/><line class="k" x1="225.94" y1="266.17" x2="225.94" y2="328.77"/><line class="k" x1="231.16" y1="266.17" x2="231.16" y2="328.77"/><g class="m"><path class="k" d="M220.67,294.83a97.82,97.82,0,0,1-.34-22.67"/><path class="k" d="M218.41,269.9h.1a1.87,1.87,0,0,1,1.86,1.87,1.72,1.72,0,0,1,0,.39"/><path class="k" d="M214.37,270.23a15.19,15.19,0,0,1,3.22-.35l.82,0"/><path class="k" d="M206.6,270q1.26-.06,2.52-.06a51.26,51.26,0,0,1,5.25.26"/><path class="k" d="M206.1,270.5s0-.06,0-.08a.4.4,0,0,1,.4-.4l.11,0"/><path class="k" d="M206.1,270.5q.57,7.47.57,15,0,4.71-.22,9.44"/><path class="k" d="M207.7,296a.84.84,0,0,1-.31.05,1,1,0,0,1-1-1,1.49,1.49,0,0,1,0-.21"/><path class="k" d="M207.7,296a46.91,46.91,0,0,1,12-.18"/><path class="k" d="M220.67,294.83a.64.64,0,0,1,0,.24.8.8,0,0,1-.8.8.78.78,0,0,1-.22,0"/><path class="k" d="M265.4,266.17a7,7,0,0,1,7,6.95"/><path class="k" d="M272.36,321.81a7,7,0,0,1-7,7"/><path class="k" d="M220.67,324a97.82,97.82,0,0,1-.34-22.67"/><path class="k" d="M218.41,299.11h.1a1.86,1.86,0,0,1,1.86,1.86,1.75,1.75,0,0,1,0,.4"/><path class="k" d="M214.37,299.44a14.58,14.58,0,0,1,3.22-.36c.27,0,.55,0,.82,0"/><path class="k" d="M206.6,299.24q1.26-.06,2.52-.06c1.75,0,3.5.09,5.25.26"/><path class="k" d="M206.1,299.7s0-.06,0-.09a.4.4,0,0,1,.4-.39l.11,0"/><path class="k" d="M206.1,299.7q.57,7.46.57,14.95c0,3.16-.07,6.3-.22,9.45"/><path class="k" d="M207.7,325.22a.85.85,0,0,1-.31.06,1,1,0,0,1-1-1,1.49,1.49,0,0,1,0-.21"/><path class="k" d="M207.7,325.22a46.91,46.91,0,0,1,12-.18"/><path class="k" d="M220.67,324a.67.67,0,0,1,0,.24.8.8,0,0,1-.8.8.78.78,0,0,1-.22,0"/></g><polygon class="l" points="385.31 306.03 386.7 304.31 387.45 302.16 387.45 299.85 386.7 297.7 385.31 295.98 385.31 285.15 383.38 285.15 381.45 293.08 381.45 295.39 380.4 299.07 380.4 302.94 381.45 306.62 381.45 308.94 383.38 316.87 385.31 316.87 385.31 306.03"/><line class="k" x1="385.31" y1="316.87" x2="385.31" y2="306.03"/><line class="k" x1="383.38" y1="316.87" x2="385.31" y2="316.87"/><line class="k" x1="381.45" y1="308.94" x2="383.38" y2="316.87"/><line class="k" x1="381.45" y1="306.62" x2="381.45" y2="308.94"/><line class="k" x1="380.4" y1="302.94" x2="381.45" y2="306.63"/><line class="k" x1="380.4" y1="299.07" x2="380.4" y2="302.94"/><line class="k" x1="381.45" y1="295.39" x2="380.4" y2="299.07"/><line class="k" x1="381.45" y1="293.08" x2="381.45" y2="295.39"/><line class="k" x1="383.38" y1="285.15" x2="381.45" y2="293.08"/><line class="k" x1="385.31" y1="285.15" x2="383.38" y2="285.15"/><line class="k" x1="385.31" y1="295.98" x2="385.31" y2="285.15"/><line class="k" x1="386.7" y1="297.7" x2="385.31" y2="295.98"/><line class="k" x1="387.45" y1="299.85" x2="386.71" y2="297.7"/><line class="k" x1="387.45" y1="302.16" x2="387.45" y2="299.85"/><line class="k" x1="386.7" y1="304.31" x2="387.45" y2="302.16"/><line class="k" x1="385.31" y1="306.03" x2="386.7" y2="304.31"/><line class="k" x1="385.31" y1="316.87" x2="385.31" y2="285.15"/><line class="k" x1="381.45" y1="293.08" x2="381.45" y2="308.94"/><line class="k" x1="383.38" y1="316.87" x2="385.31" y2="316.87"/><line class="k" x1="384.54" y1="287.26" x2="384.54" y2="289.38"/><line class="k" x1="384.54" y1="289.38" x2="384.05" y2="289.38"/><line class="k" x1="384.05" y1="289.38" x2="384.05" y2="287.26"/><line class="k" x1="384.05" y1="287.26" x2="384.54" y2="287.26"/><line class="k" x1="384.54" y1="289.91" x2="384.54" y2="292.02"/><line class="k" x1="384.54" y1="292.02" x2="384.05" y2="292.02"/><line class="k" x1="384.05" y1="292.02" x2="384.05" y2="289.91"/><line class="k" x1="384.05" y1="289.91" x2="384.54" y2="289.91"/><line class="k" x1="383.38" y1="316.87" x2="383.38" y2="285.15"/><line class="k" x1="384.05" y1="292.55" x2="384.54" y2="292.55"/><line class="k" x1="384.54" y1="292.55" x2="384.54" y2="293.61"/><line class="k" x1="384.54" y1="293.61" x2="384.05" y2="293.61"/><line class="k" x1="384.05" y1="293.61" x2="384.05" y2="292.55"/><g class="m"><path class="k" d="M385.31,296a6.76,6.76,0,0,1,0,10"/></g><polygon class="l" points="483.8 314.04 483.16 314.41 483.1 315.14 483.1 340.88 483.07 341.36 483.34 341.76 483.8 341.92 511.96 341.92 512.46 341.71 512.66 341.22 512.66 269.58 512.46 269.09 511.96 268.89 486.58 268.89 484.84 269.36 483.57 270.63 483.1 272.37 483.1 273.41 483.31 273.9 483.8 274.11 483.29 274.52 483.1 275.15 483.1 313.06 483.29 313.66 483.8 314.04"/><polygon class="l" points="460.5 314.1 457.84 314.63 455.58 316.14 454.07 318.39 453.54 321.05 453.54 334.96 454.07 337.63 455.58 339.88 457.84 341.39 460.5 341.92 482.06 341.92 482.8 341.61 483.1 340.88 483.1 315.14 482.8 314.4 482.06 314.1 460.5 314.1"/><line class="k" x1="482.06" y1="314.1" x2="460.5" y2="314.1"/><g class="m"><path class="k" d="M482.06,314.1a1,1,0,0,1,1,1"/></g><line class="k" x1="483.1" y1="340.88" x2="483.1" y2="315.14"/><g class="m"><path class="k" d="M483.1,340.88a1,1,0,0,1-1,1"/></g><line class="k" x1="460.5" y1="341.92" x2="482.06" y2="341.92"/><g class="m"><path class="k" d="M460.5,341.92a7,7,0,0,1-7-7"/></g><line class="k" x1="453.54" y1="321.05" x2="453.54" y2="334.96"/><g class="m"><path class="k" d="M453.54,321.05a7,7,0,0,1,7-6.95"/></g><line class="k" x1="483.1" y1="273.41" x2="483.1" y2="272.37"/><line class="k" x1="486.58" y1="268.89" x2="511.97" y2="268.89"/><line class="k" x1="512.66" y1="269.58" x2="512.66" y2="273.41"/><line class="k" x1="511.97" y1="274.11" x2="483.8" y2="274.11"/><line class="k" x1="512.66" y1="273.41" x2="512.66" y2="314.1"/><line class="k" x1="512.66" y1="314.1" x2="510.23" y2="314.1"/><line class="k" x1="483.1" y1="313.05" x2="483.1" y2="275.15"/><line class="k" x1="484.14" y1="274.11" x2="501.58" y2="274.11"/><line class="k" x1="501.58" y1="314.1" x2="484.14" y2="314.1"/><line class="k" x1="510.23" y1="274.11" x2="503.67" y2="274.11"/><line class="k" x1="503.67" y1="314.1" x2="510.23" y2="314.1"/><line class="k" x1="483.1" y1="337.4" x2="483.1" y2="341.22"/><line class="k" x1="483.8" y1="341.92" x2="511.96" y2="341.92"/><line class="k" x1="512.66" y1="341.22" x2="512.66" y2="337.4"/><line class="k" x1="512.66" y1="337.4" x2="512.66" y2="314.1"/><line class="k" x1="512.66" y1="314.1" x2="510.23" y2="314.1"/><line class="k" x1="483.1" y1="315.14" x2="483.1" y2="335.66"/><line class="k" x1="501.58" y1="314.1" x2="484.14" y2="314.1"/><line class="k" x1="501.58" y1="314.1" x2="510.23" y2="314.1"/><line class="k" x1="453.54" y1="321.05" x2="453.54" y2="334.96"/><line class="k" x1="460.5" y1="341.92" x2="482.06" y2="341.92"/><line class="k" x1="483.1" y1="340.88" x2="483.1" y2="315.14"/><line class="k" x1="482.06" y1="314.1" x2="460.5" y2="314.1"/><line class="k" x1="511.27" y1="315.14" x2="511.27" y2="340.88"/><line class="k" x1="511.27" y1="313.05" x2="511.27" y2="275.15"/><g class="m"><path class="k" d="M512,268.89a.69.69,0,0,1,.69.69"/><path class="k" d="M512.66,273.41a.69.69,0,0,1-.69.69"/><path class="k" d="M483.8,274.11a.7.7,0,0,1-.7-.7"/><path class="k" d="M483.1,275.15a1,1,0,0,1,1-1"/><path class="k" d="M484.14,314.1a1,1,0,0,1-1-1.05"/><path class="k" d="M483.8,341.92a.7.7,0,0,1-.7-.7"/><path class="k" d="M512.66,341.22a.69.69,0,0,1-.69.7"/><path class="k" d="M483.1,315.14a1,1,0,0,1,1-1"/><path class="k" d="M483.1,340.88a1,1,0,0,1-1,1"/><path class="k" d="M482.06,314.1a1,1,0,0,1,1,1"/></g><line class="k" x1="511.27" y1="340.88" x2="487.58" y2="340.88"/><g class="m"><path class="k" d="M507.22,315.1a19.36,19.36,0,0,1,.71,5.24,19.71,19.71,0,0,1-15.56,19.28"/><path class="k" d="M506.4,313.05a119.66,119.66,0,0,1,0-37.9"/><path class="k" d="M453.54,321.05a7,7,0,0,1,7-6.95"/><path class="k" d="M460.5,341.92a7,7,0,0,1-7-7"/><path class="k" d="M483.1,272.37a3.48,3.48,0,0,1,3.48-3.48"/></g><polygon class="l" points="450.13 227.57 453.02 229.78 455.23 232.65 456.63 236 457.1 239.6 463.85 235.72 465.13 234.44 465.6 232.71 465.13 230.97 461.64 224.96 460.37 223.69 458.63 223.22 456.88 223.69 450.13 227.57"/><polygon class="l" points="429.22 239.6 429.7 236 431.09 232.65 433.31 229.78 436.19 227.57 429.44 223.69 427.7 223.22 425.96 223.69 424.68 224.96 421.2 230.97 420.73 232.71 421.2 234.44 422.48 235.72 429.22 239.6"/><polygon class="l" points="450.13 251.63 446.77 253.02 443.16 253.49 439.55 253.02 436.19 251.63 436.19 259.39 436.66 261.13 437.94 262.4 439.68 262.87 446.65 262.87 448.39 262.4 449.67 261.13 450.13 259.39 450.13 251.63"/><polygon class="l" points="457.1 239.6 456.63 236 455.24 232.65 453.02 229.78 450.13 227.57 446.77 226.18 443.16 225.71 439.55 226.18 436.19 227.57 433.31 229.78 431.09 232.65 429.7 236 429.22 239.6 429.7 243.19 431.09 246.54 433.31 249.42 436.19 251.63 439.55 253.02 443.16 253.49 446.77 253.02 450.13 251.63 453.02 249.42 455.24 246.54 456.63 243.19 457.1 239.6"/><line class="k" x1="456.63" y1="243.19" x2="457.1" y2="239.6"/><line class="k" x1="455.23" y1="246.54" x2="456.63" y2="243.19"/><line class="k" x1="453.02" y1="249.42" x2="455.24" y2="246.54"/><line class="k" x1="450.13" y1="251.63" x2="453.02" y2="249.42"/><line class="k" x1="446.77" y1="253.02" x2="450.13" y2="251.63"/><line class="k" x1="443.16" y1="253.49" x2="446.77" y2="253.02"/><line class="k" x1="439.55" y1="253.02" x2="443.16" y2="253.49"/><line class="k" x1="436.19" y1="251.63" x2="439.55" y2="253.02"/><line class="k" x1="433.3" y1="249.42" x2="436.19" y2="251.63"/><line class="k" x1="431.09" y1="246.54" x2="433.31" y2="249.42"/><line class="k" x1="429.7" y1="243.19" x2="431.09" y2="246.54"/><line class="k" x1="429.22" y1="239.6" x2="429.7" y2="243.19"/><line class="k" x1="429.7" y1="236" x2="429.22" y2="239.6"/><line class="k" x1="431.09" y1="232.65" x2="429.7" y2="236"/><line class="k" x1="433.3" y1="229.78" x2="431.09" y2="232.65"/><line class="k" x1="436.19" y1="227.57" x2="433.31" y2="229.78"/><line class="k" x1="439.55" y1="226.18" x2="436.2" y2="227.57"/><line class="k" x1="443.16" y1="225.71" x2="439.55" y2="226.18"/><line class="k" x1="446.77" y1="226.18" x2="443.16" y2="225.71"/><line class="k" x1="450.13" y1="227.57" x2="446.77" y2="226.18"/><line class="k" x1="453.02" y1="229.78" x2="450.13" y2="227.57"/><line class="k" x1="455.23" y1="232.65" x2="453.02" y2="229.78"/><line class="k" x1="456.63" y1="236" x2="455.23" y2="232.65"/><line class="k" x1="457.1" y1="239.6" x2="456.63" y2="236"/><g class="m"><path class="k" d="M443.16,253.49a13.89,13.89,0,1,1,0-27.78"/><path class="k" d="M443.16,225.71a13.89,13.89,0,1,1,0,27.78"/></g><line class="k" x1="460.13" y1="225.83" x2="463.62" y2="231.84"/><line class="k" x1="463.85" y1="235.72" x2="457.1" y2="239.6"/><line class="k" x1="461.64" y1="224.96" x2="465.13" y2="230.97"/><line class="k" x1="450.13" y1="227.57" x2="456.88" y2="223.69"/><line class="k" x1="422.71" y1="231.84" x2="426.19" y2="225.83"/><line class="k" x1="429.44" y1="223.69" x2="436.19" y2="227.57"/><line class="k" x1="421.2" y1="230.97" x2="424.68" y2="224.96"/><line class="k" x1="429.22" y1="239.6" x2="422.48" y2="235.72"/><line class="k" x1="446.65" y1="261.13" x2="439.68" y2="261.13"/><line class="k" x1="436.19" y1="259.39" x2="436.19" y2="251.63"/><line class="k" x1="446.65" y1="262.87" x2="439.68" y2="262.87"/><line class="k" x1="450.13" y1="251.63" x2="450.13" y2="259.39"/><g class="m"><path class="k" d="M463.62,231.84a1.77,1.77,0,0,1,.23.87,1.73,1.73,0,0,1-.87,1.5"/><path class="k" d="M457.75,225.19a1.8,1.8,0,0,1,.87-.23,1.74,1.74,0,0,1,1.51.87"/><path class="k" d="M465.13,231a3.43,3.43,0,0,1,.46,1.74,3.47,3.47,0,0,1-1.74,3"/><path class="k" d="M456.88,223.68a3.54,3.54,0,0,1,1.74-.46,3.47,3.47,0,0,1,3,1.74"/><path class="k" d="M426.19,225.82a1.76,1.76,0,0,1,2.38-.63"/><path class="k" d="M423.34,234.21a1.74,1.74,0,0,1-.86-1.5,1.67,1.67,0,0,1,.23-.87"/><path class="k" d="M424.68,225a3.5,3.5,0,0,1,3-1.74,3.42,3.42,0,0,1,1.74.47"/><path class="k" d="M422.48,235.72a3.48,3.48,0,0,1-1.75-3,3.44,3.44,0,0,1,.47-1.74"/><path class="k" d="M439.68,261.13a1.74,1.74,0,0,1-1.74-1.74"/><path class="k" d="M448.39,259.39a1.74,1.74,0,0,1-1.74,1.74"/><path class="k" d="M439.68,262.87a3.48,3.48,0,0,1-3.48-3.48"/><path class="k" d="M450.13,259.39a3.48,3.48,0,0,1-3.48,3.48"/></g><polygon class="l" points="238.1 181.78 256.19 181.78 256.56 181.94 256.71 182.3 256.71 196.56 256.56 196.93 256.19 197.08 238.1 197.08 237.73 196.93 237.58 196.56 237.58 182.3 237.73 181.94 238.1 181.78"/><line class="k" x1="238.1" y1="181.78" x2="256.19" y2="181.78"/><g class="m"><path class="k" d="M256.19,181.78a.53.53,0,0,1,.52.52"/></g><line class="k" x1="256.71" y1="182.3" x2="256.71" y2="196.56"/><g class="m"><path class="k" d="M256.71,196.56a.52.52,0,0,1-.52.52"/></g><line class="k" x1="256.19" y1="197.08" x2="238.1" y2="197.08"/><g class="m"><path class="k" d="M238.1,197.08a.52.52,0,0,1-.52-.52"/></g><line class="k" x1="237.58" y1="196.56" x2="237.58" y2="182.3"/><g class="m"><path class="k" d="M237.58,182.3a.52.52,0,0,1,.52-.52"/></g><line class="k" x1="239.15" y1="185.61" x2="255.14" y2="185.61"/><line class="k" x1="255.66" y1="186.13" x2="255.66" y2="195.52"/><line class="k" x1="255.14" y1="196.04" x2="239.14" y2="196.04"/><line class="k" x1="238.62" y1="195.52" x2="238.62" y2="186.13"/><g class="m"><path class="k" d="M255.14,185.61a.52.52,0,0,1,.52.52"/><path class="k" d="M255.66,195.52a.52.52,0,0,1-.52.52"/><path class="k" d="M239.15,196a.52.52,0,0,1-.53-.52"/><path class="k" d="M238.62,186.13a.52.52,0,0,1,.52-.52"/></g><polygon class="l" points="246.28 183.87 246.41 185.33 246.53 185.66 246.76 187.5 246.89 187.74 247.14 187.84 247.4 187.74 247.53 187.5 247.76 185.66 247.88 185.33 248.01 183.87 247.76 183.25 247.14 183 246.53 183.25 246.28 183.87"/><g class="m"><path class="k" d="M246.27,183.87a.87.87,0,1,1,1.74,0"/></g><line class="k" x1="247.87" y1="185.33" x2="248.01" y2="183.87"/><g class="m"><path class="k" d="M247.87,185.33a.76.76,0,0,1-.11.33"/></g><line class="k" x1="247.53" y1="187.5" x2="247.76" y2="185.66"/><g class="m"><path class="k" d="M247.53,187.5a.4.4,0,0,1-.39.34.39.39,0,0,1-.38-.34"/></g><line class="k" x1="246.53" y1="185.66" x2="246.76" y2="187.5"/><g class="m"><path class="k" d="M246.53,185.66a.66.66,0,0,1-.12-.33"/></g><line class="k" x1="246.27" y1="183.87" x2="246.41" y2="185.33"/><line class="k" x1="247.62" y1="184.74" x2="247.62" y2="185.25"/><line class="k" x1="246.67" y1="185.25" x2="246.67" y2="184.74"/><line class="k" x1="246.67" y1="184.74" x2="247.62" y2="184.74"/><g class="m"><path class="k" d="M247.62,185.25a.48.48,0,1,1-1,0"/><path class="k" d="M247.76,185.66a.73.73,0,0,1-.62.34.72.72,0,0,1-.61-.34"/></g><rect class="h" x="566.56" y="197.43" width="20.87" height="43.47"/><line class="k" x1="587.43" y1="240.9" x2="587.43" y2="197.43"/><line class="k" x1="587.43" y1="197.43" x2="566.56" y2="197.43"/><line class="k" x1="566.56" y1="197.43" x2="566.56" y2="240.9"/><line class="k" x1="566.56" y1="240.9" x2="587.43" y2="240.9"/><line class="k" x1="577" y1="238.73" x2="577" y2="199.6"/><line class="k" x1="583.13" y1="236.71" x2="570.63" y2="233.03"/><line class="k" x1="583.76" y1="232.57" x2="572.13" y2="231.05"/><line class="k" x1="569.48" y1="226.91" x2="582.24" y2="225.65"/><line class="k" x1="571.15" y1="220.49" x2="582.24" y2="222.19"/><line class="k" x1="570.51" y1="218.16" x2="584.17" y2="218.16"/><line class="k" x1="570.45" y1="211.55" x2="583.96" y2="213.12"/><line class="k" x1="570.68" y1="209.08" x2="583.01" y2="209.08"/><line class="k" x1="570.55" y1="202.56" x2="583.2" y2="201.3"/><line class="k" x1="571.41" y1="204.13" x2="582.11" y2="205.4"/><rect class="h" x="516.83" y="176.57" width="49.73" height="20.87"/><line class="k" x1="566.56" y1="176.57" x2="516.83" y2="176.57"/><line class="k" x1="516.83" y1="176.57" x2="516.83" y2="197.43"/><line class="k" x1="516.83" y1="197.43" x2="566.56" y2="197.43"/><line class="k" x1="566.56" y1="197.43" x2="566.56" y2="176.57"/><line class="k" x1="564.08" y1="187" x2="519.32" y2="187"/><line class="k" x1="561.77" y1="180.86" x2="557.56" y2="193.36"/><line class="k" x1="557.03" y1="180.24" x2="555.29" y2="191.87"/><line class="k" x1="550.55" y1="194.52" x2="549.12" y2="181.76"/><line class="k" x1="543.22" y1="192.85" x2="545.16" y2="181.76"/><line class="k" x1="540.55" y1="193.48" x2="540.55" y2="179.82"/><line class="k" x1="532.99" y1="193.54" x2="534.78" y2="180.04"/><line class="k" x1="530.16" y1="193.32" x2="530.16" y2="180.99"/><line class="k" x1="522.7" y1="193.44" x2="521.26" y2="180.8"/><line class="k" x1="524.49" y1="192.58" x2="525.95" y2="181.89"/><rect class="h" x="350.95" y="296.72" width="20.87" height="52.34"/><line class="k" x1="371.82" y1="349.06" x2="371.82" y2="296.72"/><line class="k" x1="371.82" y1="296.72" x2="350.95" y2="296.72"/><line class="k" x1="350.95" y1="296.72" x2="350.95" y2="349.06"/><line class="k" x1="350.95" y1="349.06" x2="371.82" y2="349.06"/><line class="k" x1="361.38" y1="346.44" x2="361.38" y2="299.34"/><line class="k" x1="367.52" y1="344.01" x2="355.02" y2="339.59"/><line class="k" x1="368.14" y1="339.02" x2="356.52" y2="337.19"/><line class="k" x1="353.86" y1="332.21" x2="366.62" y2="330.7"/><line class="k" x1="355.54" y1="324.48" x2="366.62" y2="326.53"/><line class="k" x1="354.9" y1="321.67" x2="368.56" y2="321.67"/><line class="k" x1="354.84" y1="313.72" x2="368.34" y2="315.61"/><line class="k" x1="355.07" y1="310.74" x2="367.4" y2="310.74"/><line class="k" x1="354.94" y1="302.89" x2="367.58" y2="301.38"/><line class="k" x1="355.8" y1="304.78" x2="366.49" y2="306.31"/><rect class="h" x="350.95" y="245.07" width="20.87" height="51.64"/><line class="k" x1="371.82" y1="296.72" x2="371.82" y2="245.08"/><line class="k" x1="371.82" y1="245.08" x2="350.95" y2="245.08"/><line class="k" x1="350.95" y1="245.08" x2="350.95" y2="296.72"/><line class="k" x1="350.95" y1="296.72" x2="371.82" y2="296.72"/><line class="k" x1="361.38" y1="294.14" x2="361.38" y2="247.66"/><line class="k" x1="367.52" y1="291.74" x2="355.02" y2="287.37"/><line class="k" x1="368.14" y1="286.82" x2="356.52" y2="285.01"/><line class="k" x1="353.86" y1="280.09" x2="366.62" y2="278.6"/><line class="k" x1="355.54" y1="272.47" x2="366.62" y2="274.49"/><line class="k" x1="354.9" y1="269.7" x2="368.56" y2="269.7"/><line class="k" x1="354.84" y1="261.85" x2="368.34" y2="263.72"/><line class="k" x1="355.07" y1="258.91" x2="367.4" y2="258.91"/><line class="k" x1="354.94" y1="251.16" x2="367.58" y2="249.68"/><line class="k" x1="355.8" y1="253.03" x2="366.49" y2="254.54"/><polygon class="l" points="266.79 181.78 266.79 193.26 267.06 194.98 267.84 196.53 269.05 197.78 271.03 198.81 273.23 199.17 275.43 198.81 277.4 197.78 278.61 196.53 279.39 194.98 279.66 193.26 279.66 181.78 266.79 181.78"/><line class="k" x1="279.66" y1="181.78" x2="279.66" y2="193.26"/><line class="k" x1="279.66" y1="181.78" x2="266.79" y2="181.78"/><line class="k" x1="266.79" y1="181.78" x2="266.79" y2="193.26"/><line class="k" x1="277.57" y1="185.96" x2="277.57" y2="193.26"/><line class="k" x1="268.88" y1="185.96" x2="268.88" y2="193.26"/><line class="k" x1="268.88" y1="185.96" x2="277.57" y2="185.96"/><g class="m"><path class="k" d="M279.66,193.26a5.66,5.66,0,0,1-2.26,4.52"/><path class="k" d="M269.05,197.78a5.66,5.66,0,0,1-2.26-4.52"/><path class="k" d="M277.4,197.78a7,7,0,0,1-8.35,0"/><path class="k" d="M269.05,197.78a5.66,5.66,0,0,1-2.26-4.52"/><path class="k" d="M273.23,199.17a7,7,0,0,1-4.18-1.39"/><path class="k" d="M270.31,196.11a3.56,3.56,0,0,1-1.43-2.85"/><path class="k" d="M276.15,196.11a4.88,4.88,0,0,1-5.84,0"/><path class="k" d="M277.57,193.26a3.58,3.58,0,0,1-1.42,2.85"/></g><rect class="h" x="563.09" y="287.5" width="24.34" height="41.73"/><polygon class="l" points="563.09 315.74 563.09 301 553.7 301 551.96 301.47 550.69 302.74 550.22 304.48 550.22 312.26 550.69 314 551.96 315.27 553.7 315.74 563.09 315.74"/><line class="k" x1="587.43" y1="287.5" x2="563.09" y2="287.5"/><line class="k" x1="563.09" y1="287.5" x2="563.09" y2="329.23"/><line class="k" x1="563.09" y1="329.23" x2="587.43" y2="329.23"/><line class="k" x1="587.43" y1="329.23" x2="587.43" y2="287.5"/><line class="k" x1="550.22" y1="304.48" x2="550.22" y2="312.26"/><line class="k" x1="553.7" y1="315.74" x2="563.09" y2="315.74"/><line class="k" x1="551.96" y1="304.48" x2="551.96" y2="312.26"/><line class="k" x1="563.09" y1="301" x2="553.7" y2="301"/><g class="m"><path class="k" d="M550.22,304.48A3.48,3.48,0,0,1,553.7,301"/><path class="k" d="M553.7,315.74a3.48,3.48,0,0,1-3.48-3.48"/><path class="k" d="M552,304.48a1.74,1.74,0,0,1,1.74-1.74"/><path class="k" d="M553.7,314a1.74,1.74,0,0,1-1.74-1.74"/></g><line class="k" x1="454.99" y1="190.07" x2="454.99" y2="184.24"/><line class="k" x1="454.99" y1="184.24" x2="457.37" y2="186.16"/><line class="k" x1="457.37" y1="186.16" x2="459.73" y2="184.24"/><line class="k" x1="459.73" y1="184.24" x2="459.73" y2="190.07"/><rect x="495.27" y="349.05" width="34.78" height="6.96"/><rect x="338.78" y="349.05" width="52.16" height="6.96"/><rect x="194.46" y="349.05" width="39.99" height="6.96"/><polygon class="n" points="582.21 362.97 563.09 362.97 563.09 356.01 587.43 356.01 587.43 449.91 582.21 449.91 582.21 362.97"/><rect x="493.53" y="356.01" width="38.25" height="6.96"/><rect x="337.04" y="356.01" width="55.64" height="6.96"/><rect x="194.46" y="356.01" width="41.73" height="6.96"/><polygon class="n" points="364.86 176.57 364.86 172.22 364.86 168.22 596.12 168.22 596.12 175.18 594.38 175.18 594.38 362.97 594.38 449.91 587.43 449.91 587.43 356.01 564.83 356.01 564.83 349.06 587.43 349.06 587.43 176.57 364.86 176.57"/><polygon class="n" points="194.46 349.06 194.46 168.22 282.09 168.22 290.44 168.22 326.61 168.22 326.61 176.57 202.8 176.57 202.8 349.06 194.46 349.06"/><rect x="371.82" y="245.07" width="6.96" height="103.98"/><rect x="563.09" y="240.9" width="24.34" height="2.43"/><polygon class="n" points="531.79 240.9 531.79 243.34 514.4 243.34 514.4 176.57 516.83 176.57 516.83 240.9 531.79 240.9"/><rect x="514.4" y="271.16" width="2.43" height="77.9"/><polygon class="n" points="337.04 242.64 386.77 242.64 386.77 233.95 389.2 233.95 389.2 245.07 337.04 245.07 337.04 242.64"/><polygon class="n" points="305.74 242.64 305.74 245.07 202.8 245.07 202.8 242.64 296.35 242.64 296.35 233.95 298.79 233.95 298.79 242.64 305.74 242.64"/><rect x="386.77" y="176.57" width="2.43" height="26.08"/><rect x="363.12" y="168.22" width="1.74" height="4"/><rect x="326.61" y="168.22" width="1.74" height="4"/><polygon class="n" points="298.79 192.22 298.79 195.69 298.79 206.13 296.35 206.13 296.35 176.57 298.79 176.57 298.79 192.22"/><polygon class="n" points="196.54 362.97 196.54 362.97 199.33 362.97 199.33 436 197.94 436 197.94 362.97 196.54 362.97"/><polygon class="n" points="326.61 176.57 326.61 195.69 298.79 195.69 298.79 192.22 323.13 192.22 323.13 176.57 326.61 176.57"/><polygon class="n" points="404.85 176.57 404.85 197.43 389.2 197.43 389.2 193.95 401.38 193.95 401.38 176.57 404.85 176.57"/><polygon class="n" points="594.39 175.18 596.12 175.18 596.12 176.91 596.12 362.97 594.39 362.97 594.39 368.18 594.39 175.18"/><line class="k" x1="194.46" y1="168.22" x2="194.46" y2="362.97"/><line class="k" x1="194.46" y1="362.97" x2="197.93" y2="362.97"/><line class="k" x1="197.94" y1="362.97" x2="197.94" y2="449.91"/><line class="k" x1="197.94" y1="449.91" x2="594.39" y2="449.91"/><line class="k" x1="594.39" y1="449.91" x2="594.39" y2="362.97"/><line class="k" x1="594.39" y1="362.97" x2="596.12" y2="362.97"/><line class="k" x1="596.12" y1="362.97" x2="596.12" y2="168.22"/><line class="k" x1="596.12" y1="168.22" x2="364.52" y2="168.22"/><line class="k" x1="364.52" y1="168.22" x2="290.44" y2="168.22"/><line class="k" x1="290.44" y1="168.22" x2="194.46" y2="168.22"/><path class="o" d="M413.57,384.94v7h-.72v-6.36H411.2v-.64Z"/><path class="o" d="M415.25,391.44a.53.53,0,0,1,.53-.54.54.54,0,0,1,.54.54.55.55,0,0,1-.54.55A.54.54,0,0,1,415.25,391.44Z"/><path class="o" d="M417.26,388.44c0-2.23,1.17-3.56,2.79-3.56s2.8,1.33,2.8,3.56-1.18,3.56-2.8,3.56S417.26,390.67,417.26,388.44Zm4.85,0c0-1.87-.84-2.9-2.06-2.9s-2.06,1-2.06,2.9.84,2.9,2.06,2.9S422.11,390.31,422.11,388.44Z"/><path class="o" d="M428.75,384.94v.51l-2.93,6.49H425l2.88-6.36h-3.6v1.31h-.71v-1.95Z"/><path class="o" d="M256.45,214v7h-.72v-6.36h-1.65V214Z"/><path class="o" d="M258.13,220.48a.53.53,0,0,1,.53-.54.54.54,0,0,1,.54.54.55.55,0,0,1-.54.55A.54.54,0,0,1,258.13,220.48Z"/><path class="o" d="M260.14,217.48c0-2.23,1.17-3.56,2.79-3.56s2.8,1.33,2.8,3.56-1.18,3.56-2.8,3.56S260.14,219.71,260.14,217.48Zm4.85,0c0-1.87-.84-2.9-2.06-2.9s-2.06,1-2.06,2.9.84,2.9,2.06,2.9S265,219.35,265,217.48Z"/><path class="o" d="M272,218.89a2.18,2.18,0,0,1-2.39,2.15c-1.86,0-2.87-1.29-2.87-3.5,0-2.38,1.3-3.62,3.2-3.62a3.21,3.21,0,0,1,1.66.38l-.29.58a2.45,2.45,0,0,0-1.36-.33c-1.51,0-2.48,1-2.48,2.87,0,.16,0,.36,0,.57a2.24,2.24,0,0,1,2.14-1.2A2.12,2.12,0,0,1,272,218.89Zm-.71,0c0-.92-.68-1.51-1.76-1.51a1.62,1.62,0,0,0-1.8,1.53c0,.77.64,1.5,1.85,1.5A1.53,1.53,0,0,0,271.31,218.91Z"/><path class="o" d="M299.68,284.35v7H299V285h-1.65v-.64Z"/><path class="o" d="M301.36,290.85a.53.53,0,0,1,.53-.54.54.54,0,0,1,.54.54.55.55,0,0,1-.54.55A.54.54,0,0,1,301.36,290.85Z"/><path class="o" d="M303.37,287.85c0-2.23,1.17-3.56,2.79-3.56s2.8,1.33,2.8,3.56-1.18,3.56-2.8,3.56S303.37,290.08,303.37,287.85Zm4.85,0c0-1.87-.84-2.9-2.06-2.9s-2.06,1-2.06,2.9.84,2.9,2.06,2.9S308.22,289.72,308.22,287.85Z"/><path class="o" d="M314.74,289.29c0,1.19-.83,2.12-2.54,2.12a3.61,3.61,0,0,1-2.51-.9l.35-.57a3,3,0,0,0,2.15.81c1.19,0,1.82-.58,1.82-1.43s-.56-1.46-2.34-1.46h-1.49l.36-3.51h3.83V285h-3.2l-.24,2.23h.9C313.94,287.22,314.74,288.05,314.74,289.29Z"/><path class="o" d="M538.32,284.35v7h-.72V285H536v-.64Z"/><path class="o" d="M540,290.85a.53.53,0,0,1,.53-.54.54.54,0,0,1,.54.54.55.55,0,0,1-.54.55A.54.54,0,0,1,540,290.85Z"/><path class="o" d="M542,287.85c0-2.23,1.17-3.56,2.79-3.56s2.8,1.33,2.8,3.56-1.18,3.56-2.8,3.56S542,290.08,542,287.85Zm4.85,0c0-1.87-.84-2.9-2.06-2.9s-2.06,1-2.06,2.9.84,2.9,2.06,2.9S546.86,289.72,546.86,287.85Z"/><path class="o" d="M554.58,289.51h-1.4v1.84h-.72v-1.84h-4V289l3.71-4.64h.8l-3.58,4.52h3v-1.62h.7v1.62h1.4Z"/><path class="o" d="M538.32,217.57v7h-.72v-6.36H536v-.64Z"/><path class="o" d="M540,224.07a.53.53,0,0,1,.53-.54.54.54,0,0,1,.54.54.55.55,0,0,1-.54.55A.54.54,0,0,1,540,224.07Z"/><path class="o" d="M542,221.07c0-2.23,1.17-3.56,2.79-3.56s2.8,1.33,2.8,3.56-1.18,3.56-2.8,3.56S542,223.3,542,221.07Zm4.85,0c0-1.87-.84-2.9-2.06-2.9s-2.06,1-2.06,2.9.84,2.9,2.06,2.9S546.86,222.94,546.86,221.07Z"/><path class="o" d="M553.17,222.56c0,1.17-.85,2.07-2.54,2.07a3.64,3.64,0,0,1-2.52-.9l.35-.57a3.07,3.07,0,0,0,2.17.81c1.16,0,1.8-.54,1.8-1.41s-.59-1.39-1.89-1.39H550v-.53l1.94-2.43H548.4v-.64h4.5v.51l-2,2.49C552.42,220.65,553.17,221.44,553.17,222.56Z"/><path class="o" d="M420.43,284.35v7h-.72V285h-1.65v-.64Z"/><path class="o" d="M422.11,290.85a.53.53,0,0,1,.53-.54.54.54,0,0,1,.54.54.55.55,0,0,1-.54.55A.54.54,0,0,1,422.11,290.85Z"/><path class="o" d="M424.12,287.85c0-2.23,1.17-3.56,2.79-3.56s2.8,1.33,2.8,3.56-1.18,3.56-2.8,3.56S424.12,290.08,424.12,287.85Zm4.85,0c0-1.87-.84-2.9-2.06-2.9s-2.06,1-2.06,2.9.84,2.9,2.06,2.9S429,289.72,429,287.85Z"/><path class="o" d="M435.51,290.71v.64H430.6v-.51l2.91-2.85c.79-.78.94-1.25.94-1.73,0-.81-.57-1.31-1.64-1.31a2.38,2.38,0,0,0-1.91.78l-.51-.44a3.15,3.15,0,0,1,2.48-1c1.42,0,2.32.72,2.32,1.89a2.88,2.88,0,0,1-1.15,2.19l-2.38,2.34Z"/><path class="o" d="M340.6,214v7h-.72v-6.36h-1.65V214Z"/><path class="o" d="M342.28,220.48a.53.53,0,0,1,.53-.54.54.54,0,0,1,.54.54.55.55,0,0,1-.54.55A.54.54,0,0,1,342.28,220.48Z"/><path class="o" d="M344.29,217.48c0-2.23,1.17-3.56,2.79-3.56s2.8,1.33,2.8,3.56-1.18,3.56-2.8,3.56S344.29,219.71,344.29,217.48Zm4.85,0c0-1.87-.84-2.9-2.06-2.9s-2.06,1-2.06,2.9.84,2.9,2.06,2.9S349.14,219.35,349.14,217.48Z"/><path class="o" d="M352.84,214v7h-.72v-6.36h-1.65V214Z"/></svg>