<svg xmlns="http://www.w3.org/2000/svg" xmlns:xlink="http://www.w3.org/1999/xlink" viewBox="0 0 790.58 618.13"><defs><style>.a,.f{fill:none;}.b{fill:#595a5c;}.c{fill:#b6906c;}.d{fill:#fff;}.e{fill:#231f20;}.f{stroke:#000;stroke-linecap:round;stroke-linejoin:round;stroke-width:0.34px;}.g{clip-path:url(#a);}.h{fill:#58595b;}</style><clipPath id="a"><polygon class="a" points="407.96 185.07 303.18 185.07 303.18 377.95 309 377.95 309 433.05 483.3 433.05 483.3 377.95 487.41 377.95 487.41 185.07 407.96 185.07"/></clipPath></defs><path class="b" d="M55.31,597.13H57.1V609.9H55.31Zm.92,6.11h4.09a1.89,1.89,0,0,0,1-.27,1.82,1.82,0,0,0,.68-.77,2.67,2.67,0,0,0,.24-1.16,2.7,2.7,0,0,0-.24-1.16,1.82,1.82,0,0,0-1.7-1H56.23v-1.7h4a4.09,4.09,0,0,1,2,.48A3.45,3.45,0,0,1,63.62,599a4.64,4.64,0,0,1,0,4.11,3.34,3.34,0,0,1-1.35,1.36,4,4,0,0,1-2,.49h-4Z"/><path class="b" d="M67.7,606.33a2.07,2.07,0,0,0,.49,1.48,1.76,1.76,0,0,0,1.37.52,1.89,1.89,0,0,0,1.37-.46,1.79,1.79,0,0,0,.48-1.33l.12,1.91A2.58,2.58,0,0,1,69.06,610a2.89,2.89,0,0,1-2.33-1,4.08,4.08,0,0,1-.82-2.73v-5.55H67.7Zm.22-7.86a1.93,1.93,0,0,1-.56-1.5,2.07,2.07,0,0,1,.56-1.57,2.56,2.56,0,0,1,3.18,0,2.08,2.08,0,0,1,.57,1.56,1.94,1.94,0,0,1-.57,1.5,2.65,2.65,0,0,1-3.18,0Zm2.26-.86a.94.94,0,0,0,.24-.68,1,1,0,0,0-.24-.7.91.91,0,0,0-.67-.25.92.92,0,0,0-.67.25,1,1,0,0,0-.23.7,1,1,0,0,0,.23.68.92.92,0,0,0,.67.24A.9.9,0,0,0,70.18,597.61Zm1.23,3.17h1.78v9.12H71.41Z"/><path class="b" d="M77.1,609.63A2.82,2.82,0,0,1,76,608.36a5.08,5.08,0,0,1-.36-2v-2a5.05,5.05,0,0,1,.36-2,2.71,2.71,0,0,1,1-1.27,3,3,0,0,1,1.65-.44,2.71,2.71,0,0,1,1.48.42,3.22,3.22,0,0,1,1.09,1.19l-.18,1.86a2.19,2.19,0,0,0-.22-1,1.48,1.48,0,0,0-.61-.63,2,2,0,0,0-1-.21,1.71,1.71,0,0,0-1.37.55,2.26,2.26,0,0,0-.49,1.56v2a2.19,2.19,0,0,0,.49,1.54,1.74,1.74,0,0,0,1.37.54,1.93,1.93,0,0,0,1-.23,1.45,1.45,0,0,0,.61-.64,2.25,2.25,0,0,0,.22-1l.12,1.92a2.66,2.66,0,0,1-.89,1.14,2.56,2.56,0,0,1-1.53.45A3.19,3.19,0,0,1,77.1,609.63Zm4-12.5H82.9V609.9H81.11Z"/><path class="b" d="M87.09,609.57a3.09,3.09,0,0,1-1.29-1.36,4.85,4.85,0,0,1-.44-2.15v-1.48a4.71,4.71,0,0,1,.44-2.12,3.12,3.12,0,0,1,1.29-1.35,4.71,4.71,0,0,1,4.06,0,3.12,3.12,0,0,1,1.29,1.35,4.71,4.71,0,0,1,.44,2.12v1.51a4.79,4.79,0,0,1-.44,2.13,3.12,3.12,0,0,1-1.29,1.35,4.62,4.62,0,0,1-4.06,0Zm3.49-1.83a2.43,2.43,0,0,0,.51-1.65v-1.51a2.43,2.43,0,0,0-.51-1.65,1.88,1.88,0,0,0-1.46-.58,1.85,1.85,0,0,0-1.45.58,2.38,2.38,0,0,0-.52,1.65v1.51a2.38,2.38,0,0,0,.52,1.65,1.82,1.82,0,0,0,1.45.59A1.85,1.85,0,0,0,90.58,607.74Z"/><path class="b" d="M95.43,600.78h1.79v9.12H95.43Zm4.42,1.72a2.16,2.16,0,0,0-.83-.15,1.83,1.83,0,0,0-1.33.47,1.79,1.79,0,0,0-.47,1.31L97,602.37a3.32,3.32,0,0,1,1.09-1.27,2.58,2.58,0,0,1,1.48-.45,3.39,3.39,0,0,1,1.13.18,2.62,2.62,0,0,1,.88.53l-1.17,1.58A1.56,1.56,0,0,0,99.85,602.5Z"/><path class="b" d="M102.15,600.78H104l2.81,7.93-1,1.94Zm8.07,0L106.34,612a2.6,2.6,0,0,1-.56,1,1.87,1.87,0,0,1-.84.52,4,4,0,0,1-1.23.16h-.36V612h.36a1.46,1.46,0,0,0,.8-.2,1.74,1.74,0,0,0,.51-.7l3.38-10.31Z"/><path class="b" d="M113.51,609.88a5.76,5.76,0,0,1-1.32-.48,4.89,4.89,0,0,1-1.13-.79l1.06-1.31a5.86,5.86,0,0,0,1.47.85,4.18,4.18,0,0,0,1.44.28,3.11,3.11,0,0,0,1.6-.33,1.1,1.1,0,0,0,.53-1,.79.79,0,0,0-.29-.66,1.66,1.66,0,0,0-.72-.29c-.29,0-.69-.1-1.22-.14h-.15l-.14,0h-.15a6.45,6.45,0,0,1-1.5-.26,2,2,0,0,1-1-.7,2.38,2.38,0,0,1-.41-1.49,3.07,3.07,0,0,1,.39-1.61,2.41,2.41,0,0,1,1.18-1,5.29,5.29,0,0,1,2-.32,6.38,6.38,0,0,1,2.6.52,6.16,6.16,0,0,1,1.13.66l-1.08,1.31a5.59,5.59,0,0,0-1.35-.66,4,4,0,0,0-1.3-.22,2.44,2.44,0,0,0-1.37.31,1.08,1.08,0,0,0-.46.94.64.64,0,0,0,.26.55,1.72,1.72,0,0,0,.66.25c.26,0,.64.07,1.12.1h.34a7.67,7.67,0,0,1,1.63.25,2.24,2.24,0,0,1,1.13.77,2.62,2.62,0,0,1,.45,1.65,2.92,2.92,0,0,1-.42,1.63,2.54,2.54,0,0,1-1.27,1A5.88,5.88,0,0,1,115,610,7.38,7.38,0,0,1,113.51,609.88Z"/><path class="b" d="M126,597.13h1.8V609.9H126Zm2.6,12.5a2.39,2.39,0,0,1-.93-1.16l.13-1.91a2.22,2.22,0,0,0,.21,1,1.48,1.48,0,0,0,.61.63,1.93,1.93,0,0,0,1,.22,1.74,1.74,0,0,0,1.37-.54,2.18,2.18,0,0,0,.49-1.53v-2a2.26,2.26,0,0,0-.49-1.56,1.71,1.71,0,0,0-1.37-.55,2,2,0,0,0-1,.21,1.36,1.36,0,0,0-.61.62,2.12,2.12,0,0,0-.21,1l-.19-1.76a3.37,3.37,0,0,1,1.08-1.24,2.67,2.67,0,0,1,1.49-.43,3,3,0,0,1,1.65.43,2.9,2.9,0,0,1,1.06,1.27,5.1,5.1,0,0,1,.36,2v2a4.94,4.94,0,0,1-.37,2,2.79,2.79,0,0,1-1.08,1.26,3.25,3.25,0,0,1-1.71.44A2.73,2.73,0,0,1,128.57,609.63Z"/><path class="b" d="M134.46,600.78h1.82l2.81,7.93-1,1.94Zm8.07,0L138.65,612a2.6,2.6,0,0,1-.56,1,1.87,1.87,0,0,1-.84.52,4,4,0,0,1-1.23.16h-.36V612H136a1.46,1.46,0,0,0,.8-.2,1.74,1.74,0,0,0,.51-.7l3.37-10.31Z"/><path class="b" d="M143.57,600.78h4.12v1.62h-4.12Zm1.46,8.56a2.77,2.77,0,0,1-.52-1.81v-9.4h1.8v9.42a.84.84,0,0,0,.13.51.46.46,0,0,0,.39.18h.86V610h-1A2,2,0,0,1,145,609.34Z"/><path class="b" d="M151.94,606.33a2.07,2.07,0,0,0,.49,1.48,1.76,1.76,0,0,0,1.37.52,1.91,1.91,0,0,0,1.37-.46,1.79,1.79,0,0,0,.48-1.33l.12,1.91A2.58,2.58,0,0,1,153.3,610a2.89,2.89,0,0,1-2.33-1,4.08,4.08,0,0,1-.82-2.73v-5.55h1.79Zm3.71-5.55h1.78v9.12h-1.78Z"/><rect class="c" x="612.92" y="591.68" width="35.43" height="2.83"/><path class="d" d="M648.48,594.64H612.79v-3.08h35.69ZM613,594.39h35.19v-2.58H613Z"/><rect class="c" x="612.92" y="601.6" width="70.74" height="2.83"/><path class="d" d="M683.78,604.56h-71v-3.08h71ZM613,604.31h70.49v-2.58H613Z"/><rect class="c" x="612.92" y="612.72" width="177.16" height="2.84"/><path class="d" d="M790.21,615.68H612.79V612.6H790.21ZM613,615.43H790v-2.58H613Z"/><path class="e" d="M587.26,596.28h-.8v-4.82l-.81.5v-.83l.81-.53h.8Z"/><path class="e" d="M589,595.91a1.67,1.67,0,0,1-.41-1.19v-2.58A1.65,1.65,0,0,1,589,591a2,2,0,0,1,2.42,0,1.65,1.65,0,0,1,.41,1.19v2.58a1.65,1.65,0,0,1-.41,1.19,2,2,0,0,1-2.42,0Zm1.83-.55a.89.89,0,0,0,.2-.64v-2.58a.89.89,0,0,0-.2-.64.82.82,0,0,0-.62-.22.86.86,0,0,0-.63.22.94.94,0,0,0-.2.64v2.58a.9.9,0,0,0,.21.64,1,1,0,0,0,1.24,0Z"/><path class="e" d="M593.22,595.91a1.67,1.67,0,0,1-.41-1.19v-2.58a1.65,1.65,0,0,1,.41-1.19,2,2,0,0,1,2.42,0,1.61,1.61,0,0,1,.41,1.19v2.58a1.65,1.65,0,0,1-.41,1.19,2,2,0,0,1-2.42,0Zm1.83-.55a.9.9,0,0,0,.21-.64v-2.58a.94.94,0,0,0-.2-.64.86.86,0,0,0-.63-.22.82.82,0,0,0-.62.22.89.89,0,0,0-.2.64v2.58a.89.89,0,0,0,.2.64,1,1,0,0,0,1.24,0Z"/><path class="e" d="M600.1,596.13a1.45,1.45,0,0,1-.6-.6,2.06,2.06,0,0,1-.21-1v-.67a2,2,0,0,1,.21-.94,1.37,1.37,0,0,1,.6-.59,2,2,0,0,1,.95-.21,2.21,2.21,0,0,1,.59.08,1.68,1.68,0,0,1,.51.22,1.54,1.54,0,0,1,.37.35l-.58.52a1.17,1.17,0,0,0-.4-.3,1.13,1.13,0,0,0-.48-.11.94.94,0,0,0-.71.26,1,1,0,0,0-.26.72v.67a1,1,0,0,0,.25.74.94.94,0,0,0,.72.27,1,1,0,0,0,.48-.12,1,1,0,0,0,.4-.32l.58.56a1.38,1.38,0,0,1-.38.34,1.62,1.62,0,0,1-.5.22,2.27,2.27,0,0,1-.59.07A2.12,2.12,0,0,1,600.1,596.13Z"/><path class="e" d="M603.4,592.22h.79v4.06h-.79Zm2.42,1.6a1,1,0,0,0-.21-.67.78.78,0,0,0-.6-.23.81.81,0,0,0-.6.21.73.73,0,0,0-.22.58l-.08-.78a1.46,1.46,0,0,1,.49-.57,1.22,1.22,0,0,1,.67-.2,1.33,1.33,0,0,1,.73.2,1.18,1.18,0,0,1,.46.56,2.4,2.4,0,0,1,.15.89v2.47h-.79Zm2.42,0a.93.93,0,0,0-.22-.67.85.85,0,0,0-.63-.23.72.72,0,0,0-.57.23.9.9,0,0,0-.21.64l-.16-.78a1.61,1.61,0,0,1,.51-.63,1.23,1.23,0,0,1,.69-.22,1.37,1.37,0,0,1,.75.2,1.09,1.09,0,0,1,.47.56,2.21,2.21,0,0,1,.17.89v2.47h-.8Z"/><path class="e" d="M584.33,605.5l2-2.64a1.85,1.85,0,0,0,.27-.47,1.29,1.29,0,0,0,.09-.45h0a.67.67,0,0,0-.2-.53.81.81,0,0,0-.56-.19.76.76,0,0,0-.56.21,1,1,0,0,0-.27.58h-.82a2,2,0,0,1,.29-.83,1.42,1.42,0,0,1,.56-.53,1.67,1.67,0,0,1,.79-.18,1.93,1.93,0,0,1,.87.17,1.21,1.21,0,0,1,.54.51,1.55,1.55,0,0,1,.19.8h0a1.84,1.84,0,0,1-.12.63,2.8,2.8,0,0,1-.35.63l-1.65,2.24h2.15v.76h-3.2Z"/><path class="e" d="M589,605.83a1.67,1.67,0,0,1-.41-1.19v-2.58a1.65,1.65,0,0,1,.41-1.19,2,2,0,0,1,2.42,0,1.65,1.65,0,0,1,.41,1.19v2.58a1.65,1.65,0,0,1-.41,1.19,2,2,0,0,1-2.42,0Zm1.83-.55a.89.89,0,0,0,.2-.64v-2.58a.89.89,0,0,0-.2-.64.82.82,0,0,0-.62-.22.86.86,0,0,0-.63.22.94.94,0,0,0-.19.64v2.58a.89.89,0,0,0,.2.64,1,1,0,0,0,1.24,0Z"/><path class="e" d="M593.22,605.83a1.67,1.67,0,0,1-.41-1.19v-2.58a1.61,1.61,0,0,1,.42-1.19,1.59,1.59,0,0,1,1.2-.42,1.45,1.45,0,0,1,1.62,1.61v2.58a1.61,1.61,0,0,1-.41,1.19,2,2,0,0,1-2.42,0Zm1.84-.55a.94.94,0,0,0,.2-.64v-2.58a.94.94,0,0,0-.2-.64.84.84,0,0,0-.63-.22.82.82,0,0,0-.62.22.89.89,0,0,0-.2.64v2.58a.89.89,0,0,0,.2.64.82.82,0,0,0,.62.22A.86.86,0,0,0,595.06,605.28Z"/><path class="e" d="M600.1,606.05a1.45,1.45,0,0,1-.6-.6,2.06,2.06,0,0,1-.2-1v-.67a2,2,0,0,1,.2-.94,1.37,1.37,0,0,1,.6-.59,2,2,0,0,1,.95-.21,2.35,2.35,0,0,1,.6.08,1.73,1.73,0,0,1,.5.22,1.38,1.38,0,0,1,.37.35l-.58.52a1.08,1.08,0,0,0-.4-.3,1.13,1.13,0,0,0-.48-.11,1,1,0,0,0-.71.26,1,1,0,0,0-.26.72v.67a1,1,0,0,0,.25.74.94.94,0,0,0,.72.27,1.14,1.14,0,0,0,.88-.44l.58.56a1.38,1.38,0,0,1-.38.34,1.62,1.62,0,0,1-.5.22,2.22,2.22,0,0,1-.59.07A2.12,2.12,0,0,1,600.1,606.05Z"/><path class="e" d="M603.4,602.14h.79v4.06h-.79Zm2.42,1.6a1,1,0,0,0-.21-.67.78.78,0,0,0-.6-.23.81.81,0,0,0-.6.21.73.73,0,0,0-.22.58l-.08-.78a1.46,1.46,0,0,1,.49-.57,1.22,1.22,0,0,1,.67-.2,1.3,1.3,0,0,1,.73.2,1.18,1.18,0,0,1,.46.56,2.4,2.4,0,0,1,.16.89v2.47h-.8Zm2.42,0a.93.93,0,0,0-.22-.67.85.85,0,0,0-.63-.23.73.73,0,0,0-.57.23.89.89,0,0,0-.2.64l-.16-.78a1.51,1.51,0,0,1,.5-.63,1.23,1.23,0,0,1,.69-.22,1.35,1.35,0,0,1,.75.2,1.16,1.16,0,0,1,.48.56,2.4,2.4,0,0,1,.16.89v2.47h-.8Z"/><path class="e" d="M585,615.58a1.34,1.34,0,0,1-.54-.49,2,2,0,0,1-.28-.77h.8a.75.75,0,0,0,.25.49.85.85,0,0,0,.54.17.72.72,0,0,0,.59-.25,1.1,1.1,0,0,0,.21-.72v-.48a1.1,1.1,0,0,0-.21-.72.72.72,0,0,0-.59-.25.83.83,0,0,0-.4.11,1.18,1.18,0,0,0-.34.33h-.72v-3h2.89v.76h-2.1V612a1,1,0,0,1,.34-.18.94.94,0,0,1,.37-.07,1.68,1.68,0,0,1,.84.2,1.29,1.29,0,0,1,.53.6,2.07,2.07,0,0,1,.19.94V614a2.25,2.25,0,0,1-.19.94,1.31,1.31,0,0,1-.55.59,1.69,1.69,0,0,1-.86.21A1.74,1.74,0,0,1,585,615.58Z"/><path class="e" d="M589,615.32a1.65,1.65,0,0,1-.41-1.19v-2.58a1.67,1.67,0,0,1,.41-1.19,2,2,0,0,1,2.42,0,1.65,1.65,0,0,1,.41,1.19v2.58a1.64,1.64,0,0,1-.41,1.19,1.92,1.92,0,0,1-2.42,0Zm1.83-.55a.89.89,0,0,0,.2-.64v-2.58a.88.88,0,0,0-.2-.63.78.78,0,0,0-.62-.22.82.82,0,0,0-.63.22.93.93,0,0,0-.2.63v2.58a.9.9,0,0,0,.21.64,1,1,0,0,0,1.24,0Z"/><path class="e" d="M593.22,615.32a1.65,1.65,0,0,1-.41-1.19v-2.58a1.67,1.67,0,0,1,.41-1.19,2,2,0,0,1,2.42,0,1.61,1.61,0,0,1,.41,1.19v2.58a1.64,1.64,0,0,1-.41,1.19,1.92,1.92,0,0,1-2.42,0Zm1.83-.55a.9.9,0,0,0,.21-.64v-2.58a.93.93,0,0,0-.2-.63.82.82,0,0,0-.63-.22.78.78,0,0,0-.62.22.88.88,0,0,0-.2.63v2.58a.89.89,0,0,0,.2.64,1,1,0,0,0,1.24,0Z"/><path class="e" d="M600.1,615.54a1.45,1.45,0,0,1-.6-.6,2,2,0,0,1-.21-1v-.67a2,2,0,0,1,.21-.94,1.45,1.45,0,0,1,.6-.6,2,2,0,0,1,.95-.2,2.22,2.22,0,0,1,.59.07,2,2,0,0,1,.51.22,1.76,1.76,0,0,1,.37.35l-.58.52a1.17,1.17,0,0,0-.4-.3,1.13,1.13,0,0,0-.48-.11.94.94,0,0,0-.71.26,1,1,0,0,0-.26.73V614a1.07,1.07,0,0,0,.25.74,1,1,0,0,0,.72.26,1.13,1.13,0,0,0,.48-.11,1.26,1.26,0,0,0,.4-.32l.58.55a1.42,1.42,0,0,1-.38.35,1.88,1.88,0,0,1-.5.21,2.27,2.27,0,0,1-.59.08A2,2,0,0,1,600.1,615.54Z"/><path class="e" d="M603.4,611.63h.79v4.06h-.79Zm2.42,1.6a1,1,0,0,0-.21-.66.75.75,0,0,0-.6-.24.81.81,0,0,0-.6.21.75.75,0,0,0-.22.58l-.08-.78a1.5,1.5,0,0,1,.49-.56,1.15,1.15,0,0,1,.67-.2,1.32,1.32,0,0,1,.73.19,1.28,1.28,0,0,1,.46.56,2.42,2.42,0,0,1,.15.9v2.46h-.79Zm2.42,0a.91.91,0,0,0-.22-.66.82.82,0,0,0-.63-.24.72.72,0,0,0-.57.23.9.9,0,0,0-.21.64l-.16-.78a1.51,1.51,0,0,1,.51-.62,1.16,1.16,0,0,1,.69-.22,1.37,1.37,0,0,1,.75.19,1.18,1.18,0,0,1,.47.56,2.22,2.22,0,0,1,.17.9v2.46h-.8Z"/><path class="c" d="M23.49,613.89A12.92,12.92,0,1,1,36.4,601,12.93,12.93,0,0,1,23.49,613.89Zm0-24.83A11.92,11.92,0,1,0,35.4,601,11.93,11.93,0,0,0,23.49,589.06Z"/><polygon class="d" points="35.77 588.74 9.42 600.98 35.77 613.21 32.02 600.98 35.77 588.74"/><path class="c" d="M36.58,614.14,8.23,601l28.35-13.17-4,13.17ZM10.61,601,35,612.29,31.5,601,35,589.66Z"/><path class="c" d="M2.52,605.19a5,5,0,0,1-1.11-.38,4.4,4.4,0,0,1-1-.64l.81-1a3.72,3.72,0,0,0,1.16.69,4.08,4.08,0,0,0,1.38.23,2.73,2.73,0,0,0,1.55-.38,1.17,1.17,0,0,0,.55-1.05h0a1.12,1.12,0,0,0-.25-.77,1.44,1.44,0,0,0-.64-.42,8.23,8.23,0,0,0-1-.25H3.89l-.1,0a9.48,9.48,0,0,1-1.5-.36,2.08,2.08,0,0,1-1-.73,2.42,2.42,0,0,1-.41-1.51h0a2.77,2.77,0,0,1,.38-1.47,2.44,2.44,0,0,1,1.12-.92,4.48,4.48,0,0,1,1.77-.32,4.6,4.6,0,0,1,1,.11,4.9,4.9,0,0,1,1.86.86l-.73,1a4.61,4.61,0,0,0-1-.58,3,3,0,0,0-1.06-.2,2.44,2.44,0,0,0-1.46.38,1.24,1.24,0,0,0-.53,1.07h0a1,1,0,0,0,.27.75,1.74,1.74,0,0,0,.67.4,9.3,9.3,0,0,0,1.12.27h.24a7.93,7.93,0,0,1,1.4.41,2.22,2.22,0,0,1,.94.76,2.4,2.4,0,0,1,.38,1.43h0a2.62,2.62,0,0,1-.4,1.45,2.54,2.54,0,0,1-1.16.91,4.8,4.8,0,0,1-1.83.31A6.44,6.44,0,0,1,2.52,605.19Z"/><rect class="c" x="612.5" y="600.68" width="1" height="4.68"/><rect class="c" x="612.5" y="590.76" width="1" height="4.68"/><rect class="c" x="612.5" y="611.45" width="1" height="5.24"/><rect class="c" x="789.58" y="611.45" width="1" height="5.24"/><rect class="c" x="682.59" y="600.68" width="1" height="4.68"/><rect class="c" x="647.3" y="590.76" width="1" height="4.68"/><rect class="a" width="790.34" height="618.13"/><line class="f" x1="487.41" y1="377.95" x2="484.67" y2="377.95"/><line class="f" x1="309" y1="377.95" x2="308.66" y2="377.95"/><line class="f" x1="413.61" y1="377.95" x2="309" y2="377.95"/><line class="f" x1="413.61" y1="374.5" x2="413.61" y2="377.95"/><line class="f" x1="444.43" y1="374.5" x2="413.61" y2="374.5"/><line class="f" x1="444.43" y1="377.95" x2="444.43" y2="374.5"/><line class="f" x1="481.93" y1="377.95" x2="444.43" y2="377.95"/><line class="f" x1="481.93" y1="429.61" x2="481.93" y2="377.95"/><line class="f" x1="309" y1="429.61" x2="481.93" y2="429.61"/><line class="f" x1="305.92" y1="377.95" x2="303.18" y2="377.95"/><rect class="d" x="311.4" y="250.17" width="20.55" height="20.66"/><line class="f" x1="311.4" y1="250.17" x2="311.4" y2="270.83"/><line class="f" x1="331.94" y1="250.17" x2="311.4" y2="250.17"/><line class="f" x1="331.94" y1="270.83" x2="331.94" y2="250.17"/><line class="f" x1="311.4" y1="270.83" x2="331.94" y2="270.83"/><rect class="d" x="444.09" y="213.14" width="30.82" height="31"/><line class="f" x1="444.09" y1="213.14" x2="444.09" y2="244.14"/><line class="f" x1="474.91" y1="213.14" x2="444.09" y2="213.14"/><line class="f" x1="474.91" y1="244.14" x2="474.91" y2="213.14"/><line class="f" x1="444.09" y1="244.14" x2="474.91" y2="244.14"/><rect class="d" x="372.69" y="250.17" width="106.5" height="21.01"/><line class="f" x1="372.69" y1="250.17" x2="372.69" y2="271.18"/><line class="f" x1="479.19" y1="250.17" x2="372.69" y2="250.17"/><line class="f" x1="479.19" y1="271.18" x2="479.19" y2="250.17"/><line class="f" x1="372.69" y1="271.18" x2="479.19" y2="271.18"/><rect class="d" x="371.15" y="194.2" width="20.55" height="20.67"/><line class="f" x1="371.15" y1="194.2" x2="371.15" y2="214.87"/><line class="f" x1="391.7" y1="194.2" x2="371.15" y2="194.2"/><line class="f" x1="391.7" y1="214.87" x2="391.7" y2="194.2"/><line class="f" x1="371.15" y1="214.87" x2="391.7" y2="214.87"/><line class="f" x1="487.41" y1="206.77" x2="487.41" y2="209.18"/><line class="f" x1="448.37" y1="193.34" x2="479.19" y2="193.34"/><line class="f" x1="479.19" y1="193.34" x2="479.19" y2="208.84"/><line class="f" x1="479.19" y1="208.84" x2="448.37" y2="208.84"/><line class="f" x1="448.37" y1="208.84" x2="448.37" y2="193.34"/><line class="f" x1="370.29" y1="241.56" x2="370.29" y2="217.45"/><line class="f" x1="370.29" y1="241.56" x2="394.26" y2="241.56"/><g class="g"><path class="f" d="M370.29,217.45a24,24,0,0,1,24,24.11"/></g><line class="f" x1="367.9" y1="241.56" x2="370.29" y2="241.56"/><line class="f" x1="370.29" y1="217.45" x2="367.9" y2="217.45"/><line class="f" x1="370.29" y1="217.45" x2="370.29" y2="215.73"/><line class="f" x1="367.9" y1="217.45" x2="367.9" y2="215.73"/><line class="f" x1="370.29" y1="243.28" x2="370.29" y2="241.56"/><line class="f" x1="367.9" y1="243.28" x2="367.9" y2="241.56"/><line class="f" x1="367.9" y1="241.56" x2="367.9" y2="234.67"/><line class="f" x1="367.9" y1="230.88" x2="367.9" y2="230.11"/><line class="f" x1="367.9" y1="226.32" x2="367.9" y2="225.54"/><line class="f" x1="367.9" y1="224.34" x2="367.9" y2="217.45"/><line class="f" x1="370.29" y1="241.56" x2="371.15" y2="241.56"/><line class="f" x1="371.15" y1="241.56" x2="371.15" y2="245"/><line class="f" x1="371.15" y1="245" x2="370.29" y2="245"/><line class="f" x1="367.9" y1="241.56" x2="367.04" y2="241.56"/><line class="f" x1="367.04" y1="241.56" x2="367.04" y2="245"/><line class="f" x1="367.04" y1="245" x2="367.9" y2="245"/><line class="f" x1="371.15" y1="217.45" x2="371.15" y2="214.01"/><line class="f" x1="371.15" y1="214.01" x2="370.29" y2="214.01"/><line class="f" x1="367.9" y1="217.45" x2="367.04" y2="217.45"/><line class="f" x1="367.04" y1="217.45" x2="367.04" y2="214.01"/><line class="f" x1="367.04" y1="214.01" x2="367.9" y2="214.01"/><line class="f" x1="416.18" y1="185.07" x2="487.4" y2="185.07"/><line class="f" x1="311.4" y1="193.34" x2="330.23" y2="193.34"/><line class="f" x1="487.41" y1="209.18" x2="487.41" y2="364.17"/><line class="f" x1="479.19" y1="212.28" x2="479.19" y2="245"/><line class="f" x1="479.19" y1="250.17" x2="479.19" y2="364.17"/><line class="f" x1="416.18" y1="185.07" x2="416.18" y2="185.07"/><line class="f" x1="407.96" y1="185.07" x2="407.96" y2="185.07"/><line class="f" x1="311.4" y1="193.34" x2="311.4" y2="247.76"/><line class="f" x1="311.4" y1="250.17" x2="311.4" y2="364.17"/><line class="f" x1="483.3" y1="377.95" x2="444.43" y2="377.95"/><line class="f" x1="487.41" y1="377.95" x2="483.3" y2="377.95"/><line class="f" x1="309" y1="377.95" x2="303.18" y2="377.95"/><line class="f" x1="345.13" y1="377.95" x2="309" y2="377.95"/><line class="f" x1="487.41" y1="364.17" x2="487.41" y2="364.17"/><line class="f" x1="479.19" y1="364.17" x2="446.14" y2="364.17"/><line class="f" x1="343.41" y1="364.17" x2="311.4" y2="364.17"/><line class="f" x1="487.41" y1="371.06" x2="446.14" y2="371.06"/><line class="f" x1="343.41" y1="371.06" x2="303.18" y2="371.06"/><line class="f" x1="407.96" y1="185.07" x2="367.9" y2="185.07"/><line class="f" x1="330.23" y1="185.07" x2="303.18" y2="185.07"/><line class="f" x1="367.9" y1="193.34" x2="370.29" y2="193.34"/><line class="f" x1="370.29" y1="193.34" x2="444.94" y2="193.34"/><line class="f" x1="444.94" y1="212.28" x2="444.94" y2="193.34"/><line class="f" x1="479.19" y1="245" x2="475.76" y2="245"/><line class="f" x1="475.76" y1="245" x2="370.29" y2="245"/><line class="f" x1="444.94" y1="212.28" x2="475.76" y2="212.28"/><line class="f" x1="333.65" y1="247.76" x2="311.4" y2="247.76"/><line class="f" x1="479.19" y1="250.17" x2="364.47" y2="250.17"/><line class="f" x1="479.19" y1="247.76" x2="370.29" y2="247.76"/><line class="f" x1="333.65" y1="250.17" x2="311.4" y2="250.17"/><line class="f" x1="367.9" y1="193.34" x2="361.05" y2="193.34"/><line class="f" x1="357.28" y1="193.34" x2="356.51" y2="193.34"/><line class="f" x1="352.74" y1="193.34" x2="351.97" y2="193.34"/><line class="f" x1="348.21" y1="193.34" x2="341.36" y2="193.34"/><line class="f" x1="337.59" y1="193.34" x2="337.08" y2="193.34"/><line class="f" x1="337.08" y1="193.34" x2="330.23" y2="193.34"/><line class="f" x1="330.23" y1="189.03" x2="330.23" y2="185.07"/><line class="f" x1="366.18" y1="189.03" x2="366.18" y2="185.07"/><line class="f" x1="331.94" y1="189.03" x2="331.94" y2="185.07"/><line class="f" x1="331.94" y1="189.03" x2="330.23" y2="189.03"/><line class="f" x1="366.18" y1="189.03" x2="367.9" y2="189.03"/><line class="f" x1="367.9" y1="189.03" x2="367.9" y2="193.34"/><line class="f" x1="330.23" y1="189.03" x2="330.23" y2="193.34"/><line class="f" x1="364.47" y1="189.03" x2="333.65" y2="189.03"/><line class="f" x1="364.47" y1="185.07" x2="333.65" y2="185.07"/><line class="f" x1="364.47" y1="189.03" x2="364.47" y2="220.03"/><g class="g"><path class="f" d="M364.47,220a30.91,30.91,0,0,1-30.82-31"/></g><line class="f" x1="364.47" y1="185.07" x2="364.47" y2="189.04"/><line class="f" x1="333.65" y1="189.03" x2="333.65" y2="185.07"/><line class="f" x1="333.65" y1="189.03" x2="331.94" y2="189.03"/><line class="f" x1="333.65" y1="185.07" x2="331.94" y2="185.07"/><line class="f" x1="366.18" y1="189.03" x2="364.47" y2="189.03"/><line class="f" x1="366.18" y1="185.07" x2="364.47" y2="185.07"/><line class="f" x1="367.9" y1="189.03" x2="367.9" y2="185.07"/><line class="f" x1="309" y1="429.61" x2="483.3" y2="429.61"/><line class="f" x1="446.14" y1="364.17" x2="446.14" y2="371.06"/><line class="f" x1="343.41" y1="364.17" x2="343.41" y2="371.06"/><line class="f" x1="487.41" y1="364.17" x2="479.19" y2="364.17"/><line class="f" x1="311.4" y1="364.17" x2="303.18" y2="364.17"/><line class="f" x1="311.4" y1="247.76" x2="311.4" y2="250.17"/><line class="f" x1="479.19" y1="250.17" x2="479.19" y2="245"/><line class="f" x1="479.19" y1="212.28" x2="479.19" y2="208.84"/><line class="f" x1="444.94" y1="193.34" x2="448.37" y2="193.34"/><line class="f" x1="345.13" y1="371.06" x2="345.13" y2="377.95"/><line class="f" x1="343.41" y1="371.06" x2="345.13" y2="371.06"/><line class="f" x1="444.43" y1="371.06" x2="444.43" y2="377.95"/><line class="f" x1="444.43" y1="371.06" x2="446.14" y2="371.06"/><line class="f" x1="345.13" y1="377.95" x2="413.61" y2="377.95"/><line class="f" x1="343.41" y1="364.17" x2="411.9" y2="364.17"/><line class="f" x1="411.9" y1="364.17" x2="411.9" y2="371.06"/><line class="f" x1="411.9" y1="364.17" x2="446.14" y2="364.17"/><line class="f" x1="413.61" y1="371.06" x2="413.61" y2="377.95"/><line class="f" x1="413.61" y1="377.95" x2="420.46" y2="377.95"/><line class="f" x1="424.23" y1="377.95" x2="425" y2="377.95"/><line class="f" x1="428.76" y1="377.95" x2="429.53" y2="377.95"/><line class="f" x1="433.3" y1="377.95" x2="437.58" y2="377.95"/><line class="f" x1="437.58" y1="377.95" x2="444.43" y2="377.95"/><line class="f" x1="413.61" y1="374.5" x2="444.43" y2="374.5"/><line class="f" x1="444.77" y1="367.61" x2="444.77" y2="335.93"/><line class="f" x1="414.64" y1="370.37" x2="414.64" y2="371.06"/><line class="f" x1="414.64" y1="371.06" x2="411.9" y2="371.06"/><line class="f" x1="411.9" y1="371.06" x2="411.9" y2="368.3"/><line class="f" x1="411.9" y1="368.3" x2="413.27" y2="368.3"/><line class="f" x1="413.27" y1="367.61" x2="416.01" y2="367.61"/><line class="f" x1="416.01" y1="367.61" x2="416.01" y2="370.37"/><line class="f" x1="416.01" y1="370.37" x2="413.27" y2="370.37"/><line class="f" x1="413.27" y1="370.37" x2="413.27" y2="367.61"/><line class="f" x1="444.77" y1="367.61" x2="442.03" y2="367.61"/><line class="f" x1="442.03" y1="367.61" x2="442.03" y2="370.37"/><line class="f" x1="442.03" y1="370.37" x2="444.77" y2="370.37"/><line class="f" x1="444.77" y1="370.37" x2="444.77" y2="367.61"/><line class="f" x1="416.01" y1="367.61" x2="442.03" y2="367.61"/><line class="f" x1="442.03" y1="370.37" x2="416.01" y2="370.37"/><line class="f" x1="416.01" y1="368.99" x2="442.03" y2="368.99"/><g class="g"><path class="f" d="M413.27,367.61a31.59,31.59,0,0,1,31.5-31.68"/></g><line class="f" x1="443.4" y1="370.37" x2="443.4" y2="371.06"/><line class="f" x1="443.4" y1="371.06" x2="446.14" y2="371.06"/><line class="f" x1="446.14" y1="371.06" x2="446.14" y2="368.3"/><line class="f" x1="446.14" y1="368.3" x2="444.77" y2="368.3"/><line class="f" x1="346.15" y1="370.37" x2="346.15" y2="371.06"/><line class="f" x1="346.15" y1="371.06" x2="343.41" y2="371.06"/><line class="f" x1="343.41" y1="371.06" x2="343.41" y2="368.3"/><line class="f" x1="343.41" y1="368.3" x2="344.78" y2="368.3"/><line class="f" x1="344.78" y1="367.61" x2="347.52" y2="367.61"/><line class="f" x1="347.52" y1="367.61" x2="347.52" y2="370.37"/><line class="f" x1="347.52" y1="370.37" x2="344.78" y2="370.37"/><line class="f" x1="344.78" y1="370.37" x2="344.78" y2="367.61"/><line class="f" x1="376.29" y1="370.37" x2="376.29" y2="371.06"/><line class="f" x1="376.29" y1="371.06" x2="379.03" y2="371.06"/><line class="f" x1="379.03" y1="371.06" x2="379.03" y2="368.3"/><line class="f" x1="379.03" y1="368.3" x2="377.66" y2="368.3"/><line class="f" x1="377.66" y1="367.61" x2="374.92" y2="367.61"/><line class="f" x1="374.92" y1="367.61" x2="374.92" y2="370.37"/><line class="f" x1="374.92" y1="370.37" x2="377.66" y2="370.37"/><line class="f" x1="377.66" y1="370.37" x2="377.66" y2="367.61"/><line class="f" x1="347.52" y1="367.61" x2="374.92" y2="367.61"/><line class="f" x1="374.92" y1="370.37" x2="347.52" y2="370.37"/><line class="f" x1="347.52" y1="368.99" x2="374.92" y2="368.99"/><line class="f" x1="411.9" y1="368.3" x2="409.16" y2="368.3"/><line class="f" x1="409.16" y1="368.3" x2="409.16" y2="371.06"/><line class="f" x1="409.16" y1="371.06" x2="411.9" y2="371.06"/><line class="f" x1="411.9" y1="371.06" x2="411.9" y2="368.3"/><line class="f" x1="409.16" y1="368.3" x2="379.03" y2="368.3"/><line class="f" x1="409.16" y1="369.68" x2="379.03" y2="369.68"/><line class="f" x1="409.16" y1="371.06" x2="379.03" y2="371.06"/><line class="f" x1="475.76" y1="212.28" x2="479.19" y2="212.28"/><line class="f" x1="475.76" y1="212.28" x2="475.76" y2="245"/><line class="f" x1="393.58" y1="198.51" x2="444.94" y2="198.51"/><line class="f" x1="393.58" y1="198.51" x2="393.58" y2="193.34"/><line class="f" x1="331.94" y1="185.07" x2="330.23" y2="185.07"/><line class="f" x1="335.37" y1="250.17" x2="362.76" y2="250.17"/><line class="f" x1="335.37" y1="250.17" x2="335.37" y2="277.72"/><g class="g"><path class="f" d="M362.76,250.17a27.48,27.48,0,0,1-27.39,27.55"/></g><line class="f" x1="335.37" y1="247.76" x2="335.37" y2="250.17"/><line class="f" x1="362.76" y1="250.17" x2="362.76" y2="247.76"/><line class="f" x1="362.76" y1="250.17" x2="364.47" y2="250.17"/><line class="f" x1="362.76" y1="247.76" x2="364.47" y2="247.76"/><line class="f" x1="333.65" y1="250.17" x2="335.37" y2="250.17"/><line class="f" x1="333.65" y1="247.76" x2="335.37" y2="247.76"/><line class="f" x1="335.37" y1="247.76" x2="342.21" y2="247.76"/><line class="f" x1="345.98" y1="247.76" x2="346.75" y2="247.76"/><line class="f" x1="350.52" y1="247.76" x2="351.29" y2="247.76"/><line class="f" x1="355.06" y1="247.76" x2="355.91" y2="247.76"/><line class="f" x1="355.91" y1="247.76" x2="362.76" y2="247.76"/><line class="f" x1="335.37" y1="250.17" x2="335.37" y2="251.03"/><line class="f" x1="335.37" y1="251.03" x2="331.94" y2="251.03"/><line class="f" x1="331.94" y1="251.03" x2="331.94" y2="250.17"/><line class="f" x1="335.37" y1="247.76" x2="335.37" y2="246.9"/><line class="f" x1="335.37" y1="246.9" x2="331.94" y2="246.9"/><line class="f" x1="331.94" y1="246.9" x2="331.94" y2="247.76"/><line class="f" x1="362.76" y1="251.03" x2="366.18" y2="251.03"/><line class="f" x1="366.18" y1="251.03" x2="366.18" y2="250.17"/><line class="f" x1="362.76" y1="247.76" x2="362.76" y2="246.9"/><line class="f" x1="362.76" y1="246.9" x2="366.18" y2="246.9"/><line class="f" x1="366.18" y1="246.9" x2="366.18" y2="247.76"/><line class="f" x1="364.47" y1="247.76" x2="367.9" y2="247.76"/><line class="f" x1="333.65" y1="247.76" x2="333.65" y2="250.17"/><line class="f" x1="364.47" y1="247.76" x2="364.47" y2="250.17"/><line class="f" x1="367.9" y1="193.34" x2="370.29" y2="193.34"/><line class="f" x1="370.29" y1="243.28" x2="370.29" y2="245"/><line class="f" x1="370.29" y1="193.34" x2="370.29" y2="215.73"/><line class="f" x1="367.9" y1="243.28" x2="367.9" y2="247.76"/><line class="f" x1="367.9" y1="193.34" x2="367.9" y2="215.73"/><line class="f" x1="367.9" y1="243.28" x2="370.29" y2="243.28"/><line class="f" x1="367.9" y1="215.73" x2="370.29" y2="215.73"/><line class="f" x1="366.18" y1="185.07" x2="367.9" y2="185.07"/><line class="f" x1="370.29" y1="247.76" x2="370.29" y2="245"/><line class="f" x1="481.93" y1="377.95" x2="481.93" y2="429.61"/><line class="f" x1="481.93" y1="429.61" x2="483.3" y2="429.61"/><line class="f" x1="444.94" y1="193.34" x2="448.37" y2="193.34"/><line class="f" x1="487.41" y1="209.18" x2="487.41" y2="209.18"/><line class="f" x1="487.41" y1="206.77" x2="487.41" y2="206.77"/><line class="f" x1="487.41" y1="210.04" x2="487.41" y2="210.04"/><line class="f" x1="487.41" y1="210.04" x2="487.41" y2="209.18"/><line class="f" x1="487.41" y1="205.91" x2="487.41" y2="205.91"/><line class="f" x1="487.41" y1="205.91" x2="487.41" y2="206.77"/><line class="f" x1="487.41" y1="185.07" x2="487.41" y2="206.77"/><line class="f" x1="444.94" y1="207.12" x2="448.37" y2="207.12"/><line class="f" x1="306.26" y1="377.95" x2="308.31" y2="377.95"/><line class="f" x1="482.27" y1="377.95" x2="482.27" y2="429.61"/><line class="f" x1="482.27" y1="377.95" x2="483.3" y2="377.95"/><line class="f" x1="483.3" y1="377.95" x2="484.32" y2="377.95"/><line class="f" x1="483.3" y1="380.01" x2="482.27" y2="380.01"/><line class="f" x1="482.27" y1="380.01" x2="482.27" y2="377.95"/><line class="f" x1="482.27" y1="427.54" x2="483.3" y2="427.54"/><line class="f" x1="483.3" y1="429.61" x2="482.27" y2="429.61"/><line class="f" x1="482.27" y1="429.61" x2="482.27" y2="427.54"/><line class="f" x1="445.8" y1="218.31" x2="445.8" y2="238.98"/><line class="f" x1="449.22" y1="242.42" x2="469.77" y2="242.42"/><line class="f" x1="473.19" y1="238.98" x2="473.19" y2="218.31"/><line class="f" x1="469.77" y1="214.87" x2="449.22" y2="214.87"/><line class="f" x1="477.99" y1="269.46" x2="459.16" y2="269.46"/><line class="f" x1="459.15" y1="269.46" x2="459.15" y2="252.23"/><line class="f" x1="459.15" y1="252.23" x2="477.99" y2="252.23"/><line class="f" x1="477.99" y1="252.23" x2="477.99" y2="269.46"/><line class="f" x1="478.84" y1="271.18" x2="458.3" y2="271.18"/><line class="f" x1="476.28" y1="267.73" x2="460.87" y2="267.73"/><line class="f" x1="460.87" y1="267.73" x2="460.87" y2="255.68"/><line class="f" x1="460.87" y1="255.68" x2="476.28" y2="255.68"/><line class="f" x1="476.28" y1="255.68" x2="476.28" y2="267.73"/><line class="f" x1="458.3" y1="250.51" x2="458.3" y2="271.18"/><line class="f" x1="458.3" y1="271.18" x2="437.75" y2="271.18"/><line class="f" x1="437.75" y1="271.18" x2="437.75" y2="250.51"/><line class="f" x1="429.53" y1="244.14" x2="429.53" y2="240.7"/><line class="f" x1="429.53" y1="240.7" x2="408.99" y2="240.7"/><line class="f" x1="408.99" y1="240.7" x2="408.99" y2="244.14"/><line class="f" x1="408.99" y1="244.14" x2="410.02" y2="244.14"/><line class="f" x1="410.02" y1="244.14" x2="410.02" y2="241.73"/><line class="f" x1="410.02" y1="241.73" x2="428.51" y2="241.73"/><line class="f" x1="428.51" y1="241.73" x2="428.51" y2="244.14"/><line class="f" x1="428.51" y1="244.14" x2="429.54" y2="244.14"/><line class="f" x1="429.53" y1="244.14" x2="429.53" y2="240.7"/><line class="f" x1="408.99" y1="244.14" x2="408.99" y2="240.7"/><line class="f" x1="428.51" y1="244.14" x2="428.51" y2="241.73"/><line class="f" x1="410.02" y1="244.14" x2="410.02" y2="241.73"/><line class="f" x1="429.53" y1="240.7" x2="408.99" y2="240.7"/><line class="f" x1="429.53" y1="241.73" x2="408.99" y2="241.73"/><line class="f" x1="429.53" y1="244.14" x2="428.51" y2="244.14"/><line class="f" x1="410.02" y1="244.14" x2="408.99" y2="244.14"/><line class="f" x1="393.24" y1="271.18" x2="393.24" y2="250.51"/><line class="f" x1="385.39" y1="258.41" x2="380.54" y2="263.28"/><line class="f" x1="380.54" y1="258.41" x2="385.38" y2="263.28"/><line class="f" x1="382.96" y1="264.29" x2="382.96" y2="257.4"/><line class="f" x1="386.39" y1="260.85" x2="379.54" y2="260.85"/><line class="f" x1="372.69" y1="250.51" x2="372.69" y2="271.18"/><line class="f" x1="393.24" y1="271.18" x2="372.69" y2="271.18"/><line class="f" x1="425.77" y1="250.51" x2="425.77" y2="271.18"/><line class="f" x1="425.77" y1="271.18" x2="405.22" y2="271.18"/><line class="f" x1="405.22" y1="271.18" x2="405.22" y2="250.51"/><line class="f" x1="408.02" y1="272.12" x2="422.97" y2="272.12"/><line class="f" x1="332.28" y1="250.51" x2="332.28" y2="271.18"/><line class="f" x1="332.28" y1="271.18" x2="311.74" y2="271.18"/><line class="f" x1="311.74" y1="271.18" x2="311.74" y2="250.51"/><line class="f" x1="311.74" y1="250.51" x2="332.28" y2="250.51"/><line class="f" x1="332.28" y1="250.51" x2="311.74" y2="271.18"/><line class="f" x1="371.15" y1="194.2" x2="371.15" y2="214.87"/><line class="f" x1="371.15" y1="214.87" x2="391.7" y2="214.87"/><line class="f" x1="391.7" y1="214.87" x2="391.7" y2="194.2"/><line class="f" x1="391.7" y1="194.2" x2="371.15" y2="194.2"/><line class="f" x1="444.09" y1="213.14" x2="444.09" y2="244.14"/><line class="f" x1="444.09" y1="244.14" x2="474.91" y2="244.14"/><line class="f" x1="474.91" y1="244.14" x2="474.91" y2="213.14"/><line class="f" x1="474.91" y1="213.14" x2="444.09" y2="213.14"/><line class="f" x1="414.54" y1="344.02" x2="414.54" y2="303.49"/><line class="f" x1="414.54" y1="303.49" x2="404.27" y2="303.49"/><line class="f" x1="404.27" y1="303.49" x2="404.27" y2="344.02"/><line class="f" x1="404.27" y1="344.02" x2="414.54" y2="344.02"/><line class="f" x1="379.03" y1="309.06" x2="361.9" y2="309.06"/><line class="f" x1="361.9" y1="309.06" x2="361.9" y2="336.62"/><line class="f" x1="361.9" y1="336.62" x2="379.03" y2="336.62"/><line class="f" x1="379.03" y1="336.62" x2="379.03" y2="309.06"/><line class="f" x1="398.2" y1="362.45" x2="350.26" y2="362.45"/><line class="f" x1="350.26" y1="362.45" x2="350.26" y2="359"/><line class="f" x1="350.26" y1="359" x2="398.2" y2="359"/><line class="f" x1="398.2" y1="359" x2="398.2" y2="362.45"/><g class="g"><path class="f" d="M387.42,204.53a6,6,0,1,0-6,6,6,6,0,0,0,6-6"/><path class="f" d="M386.39,204.53a5,5,0,1,0-5,5,5,5,0,0,0,5-5"/><path class="f" d="M470.63,218.31a.86.86,0,1,0-.86.86.86.86,0,0,0,.86-.86"/><path class="f" d="M445.8,218.31a3.43,3.43,0,0,1,3.42-3.44"/><path class="f" d="M449.22,242.42A3.43,3.43,0,0,1,445.8,239"/><path class="f" d="M469.77,214.87a3.43,3.43,0,0,1,3.42,3.44"/><path class="f" d="M473.19,239a3.43,3.43,0,0,1-3.42,3.44"/><path class="f" d="M469.26,259.12a.69.69,0,0,0-.69-.69.69.69,0,0,0,0,1.38.69.69,0,0,0,.69-.69"/><path class="f" d="M423.9,255.77a3.36,3.36,0,1,0-3.36,3.38,3.38,3.38,0,0,0,3.36-3.38"/><path class="f" d="M423.9,265.92a3.36,3.36,0,1,0-3.36,3.38,3.37,3.37,0,0,0,3.36-3.38"/><path class="f" d="M413.81,265.92a3.36,3.36,0,1,0-3.36,3.38,3.37,3.37,0,0,0,3.36-3.38"/><path class="f" d="M348.55,360.73a1.71,1.71,0,1,0-1.71,1.72,1.73,1.73,0,0,0,1.71-1.72"/></g><line class="f" x1="309" y1="429.61" x2="483.3" y2="429.61"/><line class="f" x1="483.3" y1="431.33" x2="309" y2="431.33"/><line class="f" x1="479.19" y1="208.84" x2="448.37" y2="208.84"/><line class="f" x1="448.37" y1="208.84" x2="448.37" y2="193.34"/><line class="f" x1="448.37" y1="193.34" x2="451.79" y2="205.39"/><line class="f" x1="451.79" y1="205.4" x2="479.19" y2="208.84"/><rect class="d" x="361.91" y="309.06" width="17.12" height="27.55"/><line class="f" x1="361.9" y1="309.06" x2="361.9" y2="336.62"/><line class="f" x1="379.03" y1="309.06" x2="361.9" y2="309.06"/><line class="f" x1="379.03" y1="336.62" x2="379.03" y2="309.06"/><line class="f" x1="361.9" y1="336.62" x2="379.03" y2="336.62"/><rect class="d" x="404.27" y="303.49" width="10.27" height="40.54"/><line class="f" x1="404.27" y1="303.49" x2="404.27" y2="344.02"/><line class="f" x1="414.54" y1="303.49" x2="404.27" y2="303.49"/><line class="f" x1="414.54" y1="344.02" x2="414.54" y2="303.49"/><line class="f" x1="404.27" y1="344.02" x2="414.54" y2="344.02"/><rect class="d" x="393.58" y="193.34" width="51.37" height="5.17"/><line class="f" x1="393.58" y1="193.34" x2="393.58" y2="198.51"/><line class="f" x1="444.94" y1="193.34" x2="393.58" y2="193.34"/><line class="f" x1="444.94" y1="198.51" x2="444.94" y2="193.34"/><line class="f" x1="393.58" y1="198.51" x2="444.94" y2="198.51"/><rect class="d" x="311.4" y="193.34" width="10.27" height="25.83"/><line class="f" x1="311.4" y1="193.34" x2="311.4" y2="219.17"/><line class="f" x1="321.67" y1="193.34" x2="311.4" y2="193.34"/><line class="f" x1="321.67" y1="219.17" x2="321.67" y2="193.34"/><line class="f" x1="311.4" y1="219.17" x2="321.67" y2="219.17"/><rect class="d" x="408.99" y="241.73" width="1.03" height="2.41"/><line class="f" x1="410.02" y1="241.73" x2="408.99" y2="241.73"/><line class="f" x1="410.02" y1="244.14" x2="410.02" y2="241.73"/><line class="f" x1="408.99" y1="244.14" x2="410.02" y2="244.14"/><line class="f" x1="408.99" y1="241.73" x2="408.99" y2="244.14"/><rect class="d" x="408.99" y="240.7" width="20.54" height="1.03"/><line class="f" x1="408.99" y1="240.7" x2="408.99" y2="241.73"/><line class="f" x1="429.53" y1="240.7" x2="408.99" y2="240.7"/><line class="f" x1="429.53" y1="241.73" x2="429.53" y2="240.7"/><line class="f" x1="408.99" y1="241.73" x2="429.53" y2="241.73"/><rect class="d" x="428.51" y="241.73" width="1.03" height="2.41"/><line class="f" x1="429.53" y1="241.73" x2="428.51" y2="241.73"/><line class="f" x1="429.53" y1="244.14" x2="429.53" y2="241.73"/><line class="f" x1="428.51" y1="244.14" x2="429.54" y2="244.14"/><line class="f" x1="428.51" y1="241.73" x2="428.51" y2="244.14"/><polygon class="d" points="345.63 361.94 345.13 360.73 345.63 359.51 346.84 359 348.05 359.51 348.55 360.73 348.05 361.94 346.84 362.45 345.63 361.94"/><g class="g"><path class="f" d="M348.55,360.73a1.71,1.71,0,1,1-3.42,0"/><path class="f" d="M345.13,360.73a1.71,1.71,0,1,1,3.42,0"/></g><rect class="d" x="350.26" y="359" width="47.94" height="3.44"/><line class="f" x1="350.26" y1="359" x2="350.26" y2="362.45"/><line class="f" x1="398.2" y1="359" x2="350.26" y2="359"/><line class="f" x1="398.2" y1="362.45" x2="398.2" y2="359"/><line class="f" x1="350.26" y1="362.45" x2="398.2" y2="362.45"/><line class="f" x1="303.18" y1="340.75" x2="303.18" y2="340.75"/><line class="f" x1="303.18" y1="340.75" x2="303.18" y2="278.75"/><line class="f" x1="303.18" y1="278.75" x2="303.18" y2="278.75"/><line class="f" x1="303.18" y1="340.75" x2="303.18" y2="352.8"/><line class="f" x1="303.18" y1="352.8" x2="303.18" y2="352.8"/><line class="f" x1="303.18" y1="340.75" x2="303.18" y2="340.75"/><line class="f" x1="303.18" y1="266.7" x2="303.18" y2="278.75"/><line class="f" x1="303.18" y1="278.75" x2="303.18" y2="278.75"/><line class="f" x1="303.18" y1="266.7" x2="303.18" y2="266.7"/><polygon class="d" points="407.85 339.5 407.85 328.77 406.48 327.07 405.75 324.94 405.75 322.65 406.48 320.52 407.85 318.82 407.85 308.09 409.75 308.09 411.65 315.94 411.65 318.23 412.69 321.88 412.69 325.71 411.65 329.36 411.65 331.65 409.75 339.5 407.85 339.5"/><line class="f" x1="407.85" y1="308.09" x2="407.85" y2="318.82"/><line class="f" x1="409.75" y1="308.09" x2="407.85" y2="308.09"/><line class="f" x1="411.65" y1="315.94" x2="409.75" y2="308.09"/><line class="f" x1="411.65" y1="318.23" x2="411.65" y2="315.94"/><line class="f" x1="412.69" y1="321.88" x2="411.65" y2="318.23"/><line class="f" x1="412.69" y1="325.71" x2="412.69" y2="321.88"/><line class="f" x1="411.65" y1="329.36" x2="412.69" y2="325.71"/><line class="f" x1="411.65" y1="331.65" x2="411.65" y2="329.36"/><line class="f" x1="409.75" y1="339.5" x2="411.65" y2="331.65"/><line class="f" x1="407.85" y1="339.5" x2="409.75" y2="339.5"/><line class="f" x1="407.85" y1="328.77" x2="407.85" y2="339.5"/><line class="f" x1="406.48" y1="327.07" x2="407.85" y2="328.77"/><line class="f" x1="405.75" y1="324.94" x2="406.48" y2="327.07"/><line class="f" x1="405.75" y1="322.65" x2="405.75" y2="324.94"/><line class="f" x1="406.48" y1="320.52" x2="405.75" y2="322.65"/><line class="f" x1="407.85" y1="318.82" x2="406.48" y2="320.52"/><line class="f" x1="407.85" y1="308.09" x2="407.85" y2="339.5"/><line class="f" x1="411.65" y1="331.65" x2="411.65" y2="315.94"/><line class="f" x1="409.75" y1="308.09" x2="407.85" y2="308.09"/><line class="f" x1="408.61" y1="337.41" x2="408.61" y2="335.31"/><line class="f" x1="408.61" y1="335.31" x2="409.09" y2="335.31"/><line class="f" x1="409.09" y1="335.31" x2="409.09" y2="337.41"/><line class="f" x1="409.09" y1="337.41" x2="408.61" y2="337.41"/><line class="f" x1="408.61" y1="334.79" x2="408.61" y2="332.7"/><line class="f" x1="408.61" y1="332.7" x2="409.09" y2="332.7"/><line class="f" x1="409.09" y1="332.7" x2="409.09" y2="334.79"/><line class="f" x1="409.09" y1="334.79" x2="408.61" y2="334.79"/><line class="f" x1="409.75" y1="308.09" x2="409.75" y2="339.5"/><line class="f" x1="409.09" y1="332.17" x2="408.61" y2="332.17"/><line class="f" x1="408.61" y1="332.17" x2="408.61" y2="331.13"/><line class="f" x1="408.61" y1="331.13" x2="409.09" y2="331.13"/><line class="f" x1="409.09" y1="331.13" x2="409.09" y2="332.17"/><g class="g"><path class="f" d="M407.85,328.77a6.73,6.73,0,0,1,0-9.95"/></g><polygon class="d" points="314.75 353.84 314.27 353.64 314.07 353.15 314.07 292.53 314.27 292.05 314.75 291.84 339.77 291.84 341.48 292.3 342.73 293.56 343.19 295.29 343.19 296.32 343 296.81 342.51 297.01 342.96 297.16 343.23 297.56 343.19 298.04 343.19 321.81 342.9 322.54 342.17 322.84 342.9 323.14 343.19 323.87 343.19 347.64 343.01 348.26 342.51 348.67 343 348.87 343.19 349.36 343.19 350.39 342.73 352.12 341.48 353.38 339.77 353.84 314.75 353.84"/><line class="f" x1="314.07" y1="353.15" x2="314.07" y2="292.53"/><line class="f" x1="314.07" y1="292.53" x2="314.27" y2="292.05"/><line class="f" x1="314.27" y1="292.05" x2="314.75" y2="291.84"/><line class="f" x1="314.75" y1="291.84" x2="339.77" y2="291.84"/><line class="f" x1="339.77" y1="291.84" x2="341.48" y2="292.3"/><line class="f" x1="341.48" y1="292.3" x2="342.74" y2="293.56"/><line class="f" x1="342.74" y1="293.56" x2="343.19" y2="295.29"/><line class="f" x1="343.19" y1="295.29" x2="343.19" y2="296.32"/><line class="f" x1="343.19" y1="296.32" x2="342.99" y2="296.81"/><line class="f" x1="343" y1="296.81" x2="342.51" y2="297.01"/><line class="f" x1="342.51" y1="297.01" x2="342.96" y2="297.16"/><line class="f" x1="342.96" y1="297.16" x2="343.23" y2="297.56"/><line class="f" x1="343.23" y1="297.56" x2="343.19" y2="298.04"/><line class="f" x1="343.19" y1="298.04" x2="343.19" y2="321.81"/><line class="f" x1="343.19" y1="321.81" x2="342.9" y2="322.54"/><line class="f" x1="342.9" y1="322.54" x2="342.17" y2="322.84"/><line class="f" x1="342.17" y1="322.84" x2="342.9" y2="323.14"/><line class="f" x1="342.9" y1="323.14" x2="343.19" y2="323.87"/><line class="f" x1="343.19" y1="323.87" x2="343.19" y2="347.64"/><line class="f" x1="343.19" y1="347.64" x2="343.01" y2="348.26"/><line class="f" x1="343.01" y1="348.26" x2="342.51" y2="348.67"/><line class="f" x1="342.51" y1="348.67" x2="343" y2="348.87"/><line class="f" x1="343" y1="348.87" x2="343.19" y2="349.36"/><line class="f" x1="343.19" y1="349.36" x2="343.19" y2="350.39"/><line class="f" x1="343.19" y1="350.39" x2="342.74" y2="352.11"/><line class="f" x1="342.74" y1="352.11" x2="341.48" y2="353.38"/><line class="f" x1="341.48" y1="353.38" x2="339.77" y2="353.84"/><line class="f" x1="339.77" y1="353.84" x2="314.75" y2="353.84"/><line class="f" x1="314.75" y1="353.84" x2="314.27" y2="353.64"/><line class="f" x1="314.27" y1="353.64" x2="314.07" y2="353.15"/><line class="f" x1="343.19" y1="296.32" x2="343.19" y2="295.29"/><line class="f" x1="339.77" y1="291.84" x2="314.75" y2="291.84"/><line class="f" x1="314.07" y1="292.53" x2="314.07" y2="296.32"/><line class="f" x1="314.75" y1="297.01" x2="342.51" y2="297.01"/><line class="f" x1="314.07" y1="296.32" x2="314.07" y2="322.84"/><line class="f" x1="314.07" y1="322.84" x2="316.47" y2="322.84"/><line class="f" x1="343.19" y1="321.81" x2="343.19" y2="298.04"/><line class="f" x1="342.17" y1="297.01" x2="324.99" y2="297.01"/><line class="f" x1="324.99" y1="322.84" x2="342.17" y2="322.84"/><line class="f" x1="315.44" y1="321.81" x2="315.44" y2="298.04"/><line class="f" x1="371.94" y1="297.01" x2="371.94" y2="302.18"/><line class="f" x1="371.94" y1="305.62" x2="371.94" y2="310.78"/><line class="f" x1="371.94" y1="314.23" x2="371.94" y2="319.4"/><line class="f" x1="371.94" y1="322.84" x2="371.94" y2="328.01"/><line class="f" x1="371.94" y1="331.45" x2="371.94" y2="336.62"/><line class="f" x1="371.94" y1="340.06" x2="371.94" y2="343.5"/><line class="f" x1="371.94" y1="343.5" x2="371.94" y2="348.67"/><line class="f" x1="343.19" y1="349.36" x2="343.19" y2="350.39"/><line class="f" x1="339.77" y1="353.84" x2="314.75" y2="353.84"/><line class="f" x1="314.07" y1="353.15" x2="314.07" y2="349.36"/><line class="f" x1="314.75" y1="348.67" x2="342.51" y2="348.67"/><line class="f" x1="314.07" y1="349.36" x2="314.07" y2="322.84"/><line class="f" x1="314.07" y1="322.84" x2="316.47" y2="322.84"/><line class="f" x1="343.19" y1="323.87" x2="343.19" y2="347.64"/><line class="f" x1="342.17" y1="348.67" x2="324.99" y2="348.67"/><line class="f" x1="316.47" y1="322.84" x2="342.17" y2="322.84"/><line class="f" x1="315.44" y1="323.87" x2="315.44" y2="347.64"/><line class="f" x1="342.17" y1="297.01" x2="347.3" y2="297.01"/><line class="f" x1="350.73" y1="297.01" x2="355.86" y2="297.01"/><line class="f" x1="359.29" y1="297.01" x2="364.42" y2="297.01"/><line class="f" x1="366.8" y1="297.01" x2="371.94" y2="297.01"/><line class="f" x1="342.17" y1="348.67" x2="347.3" y2="348.67"/><line class="f" x1="350.73" y1="348.67" x2="355.86" y2="348.67"/><line class="f" x1="359.29" y1="348.67" x2="364.42" y2="348.67"/><line class="f" x1="366.8" y1="348.67" x2="371.94" y2="348.67"/><g class="g"><path class="f" d="M314.07,292.53a.68.68,0,0,1,.68-.69"/><path class="f" d="M314.75,297a.68.68,0,0,1-.68-.69"/><path class="f" d="M343.2,296.32a.69.69,0,0,1-.69.69"/><path class="f" d="M342.17,297a1,1,0,0,1,1,1"/><path class="f" d="M343.19,321.81a1,1,0,0,1-1,1"/><path class="f" d="M314.75,353.84a.68.68,0,0,1-.68-.69"/><path class="f" d="M314.07,349.36a.68.68,0,0,1,.68-.69"/><path class="f" d="M342.51,348.67a.69.69,0,0,1,.69.69"/><path class="f" d="M343.19,347.64a1,1,0,0,1-1,1"/><path class="f" d="M342.17,322.84a1,1,0,0,1,1,1"/><path class="f" d="M319.14,297.93a94.54,94.54,0,0,1,0,23.77"/><path class="f" d="M319.14,323.77a98.37,98.37,0,0,1,0,23.76"/><path class="f" d="M339.77,291.84a3.44,3.44,0,0,1,3.42,3.45"/><path class="f" d="M343.19,350.39a3.44,3.44,0,0,1-3.42,3.45"/></g><polygon class="d" points="400.08 213.66 399.72 213.51 399.57 213.14 399.57 199.02 399.72 198.66 400.08 198.51 417.89 198.51 418.26 198.66 418.41 199.02 418.41 213.14 418.26 213.51 417.89 213.66 400.08 213.66"/><line class="f" x1="400.09" y1="198.51" x2="417.89" y2="198.51"/><g class="g"><path class="f" d="M417.89,198.51a.51.51,0,0,1,.52.51"/></g><line class="f" x1="418.41" y1="199.02" x2="418.41" y2="213.14"/><g class="g"><path class="f" d="M418.41,213.14a.52.52,0,0,1-.52.52"/></g><line class="f" x1="417.89" y1="213.66" x2="400.09" y2="213.66"/><g class="g"><path class="f" d="M400.09,213.66a.52.52,0,0,1-.52-.52"/></g><line class="f" x1="399.57" y1="213.14" x2="399.57" y2="199.02"/><g class="g"><path class="f" d="M399.57,199a.51.51,0,0,1,.52-.51"/></g><line class="f" x1="401.11" y1="202.3" x2="416.87" y2="202.3"/><line class="f" x1="417.38" y1="202.81" x2="417.38" y2="212.11"/><line class="f" x1="416.86" y1="212.63" x2="401.11" y2="212.63"/><line class="f" x1="400.6" y1="212.11" x2="400.6" y2="202.81"/><g class="g"><path class="f" d="M416.86,202.3a.51.51,0,0,1,.52.51"/><path class="f" d="M417.38,212.11a.52.52,0,0,1-.52.52"/><path class="f" d="M401.11,212.63a.51.51,0,0,1-.51-.52"/><path class="f" d="M400.6,202.81a.51.51,0,0,1,.51-.51"/></g><polygon class="d" points="408.74 204.41 408.61 204.17 408.38 202.35 408.27 202.02 408.13 200.57 408.38 199.97 408.99 199.71 409.6 199.97 409.85 200.57 409.71 202.02 409.6 202.35 409.37 204.17 409.24 204.41 408.99 204.5 408.74 204.41"/><g class="g"><path class="f" d="M408.13,200.57a.86.86,0,1,1,1.71,0"/></g><line class="f" x1="409.71" y1="202.02" x2="409.85" y2="200.57"/><g class="g"><path class="f" d="M409.71,202a.81.81,0,0,1-.11.33"/></g><line class="f" x1="409.37" y1="204.17" x2="409.59" y2="202.35"/><g class="g"><path class="f" d="M409.37,204.17a.4.4,0,0,1-.38.34.38.38,0,0,1-.38-.34"/></g><line class="f" x1="408.38" y1="202.35" x2="408.61" y2="204.17"/><g class="g"><path class="f" d="M408.38,202.35a.81.81,0,0,1-.11-.33"/></g><line class="f" x1="408.13" y1="200.57" x2="408.27" y2="202.02"/><line class="f" x1="409.45" y1="201.43" x2="409.45" y2="201.94"/><line class="f" x1="408.52" y1="201.94" x2="408.52" y2="201.43"/><line class="f" x1="408.52" y1="201.43" x2="409.45" y2="201.43"/><g class="g"><path class="f" d="M409.45,201.94a.46.46,0,0,1-.46.47.47.47,0,0,1-.47-.47"/><path class="f" d="M409.59,202.35a.72.72,0,0,1-1.21,0"/></g><rect class="d" x="311.4" y="219.17" width="20.55" height="28.59"/><line class="f" x1="331.94" y1="247.76" x2="331.94" y2="219.17"/><line class="f" x1="331.94" y1="219.17" x2="311.4" y2="219.17"/><line class="f" x1="311.4" y1="219.17" x2="311.4" y2="247.76"/><line class="f" x1="311.4" y1="247.76" x2="331.94" y2="247.76"/><line class="f" x1="321.67" y1="246.33" x2="321.67" y2="220.6"/><line class="f" x1="327.71" y1="245" x2="315.4" y2="242.58"/><line class="f" x1="328.33" y1="242.28" x2="316.88" y2="241.28"/><line class="f" x1="314.26" y1="238.55" x2="326.83" y2="237.73"/><line class="f" x1="315.91" y1="234.34" x2="326.83" y2="235.45"/><line class="f" x1="315.28" y1="232.8" x2="328.73" y2="232.8"/><line class="f" x1="315.22" y1="228.46" x2="328.52" y2="229.49"/><line class="f" x1="315.45" y1="226.83" x2="327.59" y2="226.83"/><line class="f" x1="315.32" y1="222.54" x2="327.77" y2="221.72"/><line class="f" x1="316.17" y1="223.57" x2="326.7" y2="224.41"/><rect class="d" x="451.79" y="309.98" width="27.39" height="27.55"/><polygon class="d" points="442.55 330.64 440.83 330.18 439.58 328.92 439.12 327.2 439.12 320.31 439.58 318.59 440.83 317.33 442.55 316.87 451.79 316.87 451.79 330.64 442.55 330.64"/><polygon class="d" points="458.64 309.98 458.64 300.68 459.1 298.96 460.35 297.7 462.06 297.24 468.91 297.24 470.63 297.7 471.88 298.96 472.34 300.68 472.34 309.98 458.64 309.98"/><polygon class="d" points="462.06 350.27 460.35 349.81 459.1 348.55 458.64 346.83 458.64 337.53 472.34 337.53 472.34 346.83 471.88 348.55 470.63 349.81 468.91 350.27 462.06 350.27"/><line class="f" x1="440.83" y1="320.31" x2="440.83" y2="327.2"/><line class="f" x1="442.55" y1="330.64" x2="451.79" y2="330.64"/><line class="f" x1="439.12" y1="320.31" x2="439.12" y2="327.2"/><line class="f" x1="451.79" y1="316.87" x2="442.55" y2="316.87"/><g class="g"><path class="f" d="M442.55,328.92a1.71,1.71,0,0,1-1.71-1.72"/><path class="f" d="M440.83,320.31a1.72,1.72,0,0,1,1.72-1.72"/><path class="f" d="M442.55,330.64a3.44,3.44,0,0,1-3.43-3.44"/><path class="f" d="M439.12,320.31a3.44,3.44,0,0,1,3.43-3.44"/></g><line class="f" x1="468.91" y1="298.96" x2="462.07" y2="298.96"/><line class="f" x1="458.64" y1="300.68" x2="458.64" y2="309.98"/><line class="f" x1="468.91" y1="297.24" x2="462.07" y2="297.24"/><line class="f" x1="472.34" y1="309.98" x2="472.34" y2="300.68"/><g class="g"><path class="f" d="M460.35,300.68a1.72,1.72,0,0,1,1.72-1.72"/><path class="f" d="M468.91,299a1.72,1.72,0,0,1,1.72,1.72"/><path class="f" d="M458.64,300.68a3.44,3.44,0,0,1,3.42-3.44"/><path class="f" d="M468.91,297.24a3.44,3.44,0,0,1,3.43,3.44"/></g><line class="f" x1="468.91" y1="348.55" x2="462.07" y2="348.55"/><line class="f" x1="458.64" y1="346.83" x2="458.64" y2="337.53"/><line class="f" x1="468.91" y1="350.28" x2="462.07" y2="350.28"/><line class="f" x1="472.34" y1="337.53" x2="472.34" y2="346.83"/><g class="g"><path class="f" d="M462.07,348.55a1.72,1.72,0,0,1-1.72-1.72"/><path class="f" d="M470.63,346.83a1.72,1.72,0,0,1-1.72,1.72"/><path class="f" d="M462.07,350.28a3.45,3.45,0,0,1-3.43-3.45"/><path class="f" d="M472.34,346.83a3.45,3.45,0,0,1-3.43,3.45"/></g><line class="f" x1="479.19" y1="309.98" x2="479.19" y2="337.53"/><line class="f" x1="479.19" y1="309.98" x2="451.79" y2="309.98"/><line class="f" x1="451.79" y1="309.98" x2="451.79" y2="337.53"/><line class="f" x1="451.79" y1="337.53" x2="479.19" y2="337.53"/><polygon class="d" points="429.08 215.37 427.14 214.35 425.94 213.12 425.17 211.57 424.91 209.87 424.91 198.51 437.58 198.51 437.58 209.87 437.32 211.57 436.55 213.12 435.36 214.35 433.41 215.37 431.25 215.73 429.08 215.37"/><line class="f" x1="437.58" y1="198.51" x2="437.58" y2="209.87"/><line class="f" x1="437.58" y1="198.51" x2="424.91" y2="198.51"/><line class="f" x1="424.91" y1="198.51" x2="424.91" y2="209.87"/><line class="f" x1="435.53" y1="202.64" x2="435.53" y2="209.87"/><line class="f" x1="426.97" y1="202.64" x2="426.97" y2="209.87"/><line class="f" x1="426.97" y1="202.64" x2="435.53" y2="202.64"/><g class="g"><path class="f" d="M437.58,209.87a5.62,5.62,0,0,1-2.22,4.48"/><path class="f" d="M427.14,214.35a5.63,5.63,0,0,1-2.23-4.48"/><path class="f" d="M435.36,214.35a6.81,6.81,0,0,1-8.22,0"/><path class="f" d="M427.14,214.35a5.63,5.63,0,0,1-2.23-4.48"/><path class="f" d="M431.25,215.73a6.83,6.83,0,0,1-4.11-1.38"/><path class="f" d="M428.37,212.7a3.56,3.56,0,0,1-1.4-2.83"/><path class="f" d="M434.12,212.7a4.79,4.79,0,0,1-5.75,0"/><path class="f" d="M435.53,209.87a3.54,3.54,0,0,1-1.41,2.83"/></g><line class="f" x1="446.03" y1="263.31" x2="446.03" y2="257.54"/><line class="f" x1="446.03" y1="257.54" x2="448.37" y2="259.43"/><line class="f" x1="448.37" y1="259.43" x2="450.7" y2="257.53"/><line class="f" x1="450.7" y1="257.54" x2="450.7" y2="263.31"/><polygon points="303.18 364.17 303.18 193.34 303.18 185.07 330.23 185.07 330.23 193.34 311.39 193.34 311.39 364.17 303.18 364.17"/><polygon points="479.19 364.17 479.19 193.34 367.9 193.34 367.9 185.07 407.96 185.07 416.18 185.07 487.4 185.07 487.4 364.17 479.19 364.17"/><polygon points="309 377.95 303.18 377.95 303.18 371.06 345.13 371.06 345.13 377.95 309 377.95"/><polygon points="483.3 377.95 444.43 377.95 444.43 371.06 487.4 371.06 487.4 377.95 483.3 377.95"/><rect x="446.14" y="364.17" width="41.26" height="6.89"/><rect x="303.18" y="364.17" width="40.24" height="6.89"/><rect x="330.23" y="185.08" width="1.71" height="3.95"/><rect x="366.19" y="185.07" width="1.71" height="3.96"/><rect x="475.76" y="212.28" width="3.42" height="32.72"/><rect x="367.9" y="193.34" width="2.4" height="22.39"/><polygon points="444.94 212.28 444.94 193.34 448.37 193.34 448.37 208.84 479.19 208.84 479.19 212.28 444.94 212.28"/><polygon points="364.47 250.17 364.47 247.76 367.9 247.76 367.9 243.28 370.3 243.28 370.3 247.76 479.19 247.76 479.19 250.17 364.47 250.17"/><rect x="311.4" y="247.76" width="22.26" height="2.41"/><rect x="481.93" y="377.95" width="1.37" height="51.66"/><rect x="370.29" y="245" width="108.89" height="2.76"/><line class="f" x1="303.18" y1="185.07" x2="303.18" y2="377.95"/><line class="f" x1="303.18" y1="377.95" x2="309" y2="377.95"/><line class="f" x1="309" y1="377.95" x2="309" y2="433.05"/><line class="f" x1="309" y1="433.05" x2="483.3" y2="433.05"/><line class="f" x1="483.3" y1="433.05" x2="483.3" y2="377.95"/><line class="f" x1="483.3" y1="377.95" x2="487.4" y2="377.95"/><line class="f" x1="487.41" y1="377.95" x2="487.41" y2="185.07"/><line class="f" x1="487.41" y1="185.07" x2="407.96" y2="185.07"/><line class="f" x1="407.96" y1="185.07" x2="303.18" y2="185.07"/><path class="h" d="M412.58,395.31v7h-.72V396h-1.65v-.64Z"/><path class="h" d="M414.26,401.81a.53.53,0,0,1,.53-.54.54.54,0,0,1,.54.54.55.55,0,0,1-.54.55A.54.54,0,0,1,414.26,401.81Z"/><path class="h" d="M416.27,398.81c0-2.23,1.17-3.55,2.79-3.55s2.8,1.32,2.8,3.55-1.18,3.56-2.8,3.56S416.27,401,416.27,398.81Zm4.85,0c0-1.87-.84-2.9-2.06-2.9s-2.06,1-2.06,2.9.84,2.9,2.06,2.9S421.12,400.68,421.12,398.81Z"/><path class="h" d="M428.84,400.47h-1.4v1.84h-.72v-1.84h-4V400l3.71-4.64h.8l-3.58,4.52h3v-1.62h.7v1.62h1.4Z"/><path class="h" d="M414.74,223.69v7H414v-6.36h-1.65v-.64Z"/><path class="h" d="M416.42,230.19a.53.53,0,0,1,.53-.54.54.54,0,0,1,.54.54.55.55,0,0,1-.54.55A.54.54,0,0,1,416.42,230.19Z"/><path class="h" d="M418.43,227.19c0-2.23,1.17-3.55,2.79-3.55s2.8,1.32,2.8,3.55-1.18,3.56-2.8,3.56S418.43,229.42,418.43,227.19Zm4.85,0c0-1.87-.84-2.9-2.06-2.9s-2.06,1-2.06,2.9.84,2.9,2.06,2.9S423.28,229.06,423.28,227.19Z"/><path class="h" d="M429.59,228.68c0,1.17-.85,2.07-2.54,2.07a3.64,3.64,0,0,1-2.52-.9l.35-.57a3.07,3.07,0,0,0,2.17.81c1.16,0,1.8-.54,1.8-1.41s-.59-1.39-1.89-1.39h-.5v-.53l1.94-2.43h-3.58v-.64h4.5v.51l-2,2.49C428.84,226.77,429.59,227.56,429.59,228.68Z"/><path class="h" d="M412.58,287.7v7h-.72v-6.36h-1.65v-.64Z"/><path class="h" d="M414.26,294.2a.53.53,0,0,1,.53-.54.54.54,0,0,1,.54.54.55.55,0,0,1-.54.55A.54.54,0,0,1,414.26,294.2Z"/><path class="h" d="M416.27,291.2c0-2.23,1.17-3.56,2.79-3.56s2.8,1.33,2.8,3.56-1.18,3.56-2.8,3.56S416.27,293.43,416.27,291.2Zm4.85,0c0-1.87-.84-2.9-2.06-2.9s-2.06,1-2.06,2.9.84,2.9,2.06,2.9S421.12,293.07,421.12,291.2Z"/><path class="h" d="M427.66,294.06v.64h-4.91v-.51l2.91-2.85c.79-.78.94-1.25.94-1.73,0-.81-.57-1.31-1.64-1.31a2.38,2.38,0,0,0-1.91.78l-.51-.44a3.15,3.15,0,0,1,2.48-1c1.42,0,2.32.72,2.32,1.89a2.88,2.88,0,0,1-1.15,2.19l-2.38,2.34Z"/><path class="h" d="M345.39,223.69v7h-.72v-6.36H343v-.64Z"/><path class="h" d="M347.07,230.19a.53.53,0,0,1,.53-.54.54.54,0,0,1,.54.54.55.55,0,0,1-.54.55A.54.54,0,0,1,347.07,230.19Z"/><path class="h" d="M349.08,227.19c0-2.23,1.17-3.55,2.79-3.55s2.8,1.32,2.8,3.55-1.18,3.56-2.8,3.56S349.08,229.42,349.08,227.19Zm4.85,0c0-1.87-.84-2.9-2.06-2.9s-2.06,1-2.06,2.9.84,2.9,2.06,2.9S353.93,229.06,353.93,227.19Z"/><path class="h" d="M357.63,223.69v7h-.72v-6.36h-1.65v-.64Z"/></svg>