<svg xmlns="http://www.w3.org/2000/svg" xmlns:xlink="http://www.w3.org/1999/xlink" viewBox="0 0 790.58 618.13"><defs><style>.a,.o{fill:none;}.b{clip-path:url(#a);}.c{clip-path:url(#d);}.d{clip-path:url(#g);}.e{clip-path:url(#j);}.f{clip-path:url(#m);}.g{clip-path:url(#p);}.h{clip-path:url(#s);}.i{clip-path:url(#v);}.j{fill:#595a5c;}.k{fill:#b6906c;}.l{fill:#fff;}.m{fill:#231f20;}.n{fill:url(#y);}.o{stroke:#000;stroke-linecap:round;stroke-linejoin:round;stroke-width:0.35px;}.p{fill:url(#z);}.q{clip-path:url(#aa);}.r{fill:#58595b;}</style><clipPath id="a"><rect class="a" y="50" width="50" height="50"/></clipPath><clipPath id="d"><rect class="a" x="50" y="50" width="50" height="50"/></clipPath><clipPath id="g"><rect class="a" width="50" height="50"/></clipPath><clipPath id="j"><rect class="a" x="50" width="50" height="50"/></clipPath><clipPath id="m"><rect class="a" y="59.93" width="90" height="59.93"/></clipPath><clipPath id="p"><rect class="a" x="90" y="59.93" width="90" height="59.93"/></clipPath><clipPath id="s"><rect class="a" width="90" height="59.93"/></clipPath><clipPath id="v"><rect class="a" x="90" width="90" height="59.93"/></clipPath><pattern id="y" width="180" height="119.85" patternTransform="matrix(0, -3.52, -3.44, 0, 38294.36, 15453.31)" patternUnits="userSpaceOnUse" viewBox="0 0 180 119.85"><rect class="a" width="180" height="119.85"/><g class="f"><g class="f"><g class="f"><image width="376" height="251" transform="matrix(0.24, 0, 0, -0.24, -0.2, 120.05)" xlink:href="C203_pudorys1.png"/></g></g></g><g class="g"><g class="g"><g class="g"><image width="376" height="251" transform="matrix(0.24, 0, 0, -0.24, 89.8, 120.05)" xlink:href="C203_pudorys2.png"/></g></g></g><g class="h"><g class="h"><g class="h"><image width="376" height="251" transform="matrix(0.24, 0, 0, -0.24, -0.2, 60.05)" xlink:href="C203_pudorys3.png"/></g></g></g><g class="i"><g class="i"><g class="i"><image width="376" height="251" transform="matrix(0.24, 0, 0, -0.24, 89.8, 60.05)" xlink:href="C203_pudorys4.png"/></g></g></g></pattern><pattern id="z" width="100" height="100" patternTransform="matrix(3.44, 0, 0, -3.52, -5101.93, 52186.62)" patternUnits="userSpaceOnUse" viewBox="0 0 100 100"><rect class="a" width="100" height="100"/><g class="b"><g class="b"><g class="b"><image width="210" height="210" transform="matrix(0.24, 0, 0, -0.24, -0.2, 100.2)" xlink:href="C203_pudorys5.png"/></g></g></g><g class="c"><g class="c"><g class="c"><image width="209" height="210" transform="matrix(0.24, 0, 0, -0.24, 49.96, 100.2)" xlink:href="C203_pudorys6.png"/></g></g></g><g class="d"><g class="d"><g class="d"><image width="210" height="209" transform="matrix(0.24, 0, 0, -0.24, -0.2, 50.04)" xlink:href="C203_pudorys7.png"/></g></g></g><g class="e"><g class="e"><g class="e"><image width="209" height="209" transform="matrix(0.24, 0, 0, -0.24, 49.96, 50.04)" xlink:href="C203_pudorys8.png"/></g></g></g></pattern><clipPath id="aa"><polygon class="a" points="282.52 32.24 282.52 88.49 278.38 88.49 278.38 341.23 350.01 341.23 350.01 529.65 354.14 529.65 354.14 585.89 457.1 585.89 457.1 529.65 463.99 529.65 463.99 397.83 512.2 397.83 512.2 200.98 463.99 200.98 463.99 88.49 433 88.49 433 32.24 282.52 32.24"/></clipPath></defs><path class="j" d="M55.31,597.13H57.1V609.9H55.31Zm.92,6.11h4.09a1.89,1.89,0,0,0,1-.27,1.82,1.82,0,0,0,.68-.77,2.67,2.67,0,0,0,.24-1.16,2.7,2.7,0,0,0-.24-1.16,1.82,1.82,0,0,0-1.7-1H56.23v-1.7h4a4.09,4.09,0,0,1,2,.48A3.45,3.45,0,0,1,63.62,599a4.64,4.64,0,0,1,0,4.11,3.34,3.34,0,0,1-1.35,1.36,4,4,0,0,1-2,.49h-4Z"/><path class="j" d="M67.7,606.33a2.07,2.07,0,0,0,.49,1.48,1.76,1.76,0,0,0,1.37.52,1.89,1.89,0,0,0,1.37-.46,1.79,1.79,0,0,0,.48-1.33l.12,1.91A2.58,2.58,0,0,1,69.06,610a2.89,2.89,0,0,1-2.33-1,4.08,4.08,0,0,1-.82-2.73v-5.55H67.7Zm.22-7.86a1.93,1.93,0,0,1-.56-1.5,2.07,2.07,0,0,1,.56-1.57,2.56,2.56,0,0,1,3.18,0,2.08,2.08,0,0,1,.57,1.56,1.94,1.94,0,0,1-.57,1.5,2.65,2.65,0,0,1-3.18,0Zm2.26-.86a.94.94,0,0,0,.24-.68,1,1,0,0,0-.24-.7.91.91,0,0,0-.67-.25.92.92,0,0,0-.67.25,1,1,0,0,0-.23.7,1,1,0,0,0,.23.68.92.92,0,0,0,.67.24A.9.9,0,0,0,70.18,597.61Zm1.23,3.17h1.78v9.12H71.41Z"/><path class="j" d="M77.1,609.63A2.82,2.82,0,0,1,76,608.36a5.08,5.08,0,0,1-.36-2v-2a5.05,5.05,0,0,1,.36-2,2.71,2.71,0,0,1,1-1.27,3,3,0,0,1,1.65-.44,2.71,2.71,0,0,1,1.48.42,3.22,3.22,0,0,1,1.09,1.19l-.18,1.86a2.19,2.19,0,0,0-.22-1,1.48,1.48,0,0,0-.61-.63,2,2,0,0,0-1-.21,1.71,1.71,0,0,0-1.37.55,2.26,2.26,0,0,0-.49,1.56v2a2.19,2.19,0,0,0,.49,1.54,1.74,1.74,0,0,0,1.37.54,1.93,1.93,0,0,0,1-.23,1.45,1.45,0,0,0,.61-.64,2.25,2.25,0,0,0,.22-1l.12,1.92a2.66,2.66,0,0,1-.89,1.14,2.56,2.56,0,0,1-1.53.45A3.19,3.19,0,0,1,77.1,609.63Zm4-12.5H82.9V609.9H81.11Z"/><path class="j" d="M87.09,609.57a3.09,3.09,0,0,1-1.29-1.36,4.85,4.85,0,0,1-.44-2.15v-1.48a4.71,4.71,0,0,1,.44-2.12,3.12,3.12,0,0,1,1.29-1.35,4.71,4.71,0,0,1,4.06,0,3.12,3.12,0,0,1,1.29,1.35,4.71,4.71,0,0,1,.44,2.12v1.51a4.79,4.79,0,0,1-.44,2.13,3.12,3.12,0,0,1-1.29,1.35,4.62,4.62,0,0,1-4.06,0Zm3.49-1.83a2.43,2.43,0,0,0,.51-1.65v-1.51a2.43,2.43,0,0,0-.51-1.65,1.88,1.88,0,0,0-1.46-.58,1.85,1.85,0,0,0-1.45.58,2.38,2.38,0,0,0-.52,1.65v1.51a2.38,2.38,0,0,0,.52,1.65,1.82,1.82,0,0,0,1.45.59A1.85,1.85,0,0,0,90.58,607.74Z"/><path class="j" d="M95.43,600.78h1.79v9.12H95.43Zm4.42,1.72a2.16,2.16,0,0,0-.83-.15,1.83,1.83,0,0,0-1.33.47,1.79,1.79,0,0,0-.47,1.31L97,602.37a3.32,3.32,0,0,1,1.09-1.27,2.58,2.58,0,0,1,1.48-.45,3.39,3.39,0,0,1,1.13.18,2.62,2.62,0,0,1,.88.53l-1.17,1.58A1.56,1.56,0,0,0,99.85,602.5Z"/><path class="j" d="M102.15,600.78H104l2.81,7.93-1,1.94Zm8.07,0L106.34,612a2.6,2.6,0,0,1-.56,1,1.87,1.87,0,0,1-.84.52,4,4,0,0,1-1.23.16h-.36V612h.36a1.46,1.46,0,0,0,.8-.2,1.74,1.74,0,0,0,.51-.7l3.38-10.31Z"/><path class="j" d="M113.51,609.88a5.76,5.76,0,0,1-1.32-.48,4.89,4.89,0,0,1-1.13-.79l1.06-1.31a5.86,5.86,0,0,0,1.47.85,4.18,4.18,0,0,0,1.44.28,3.11,3.11,0,0,0,1.6-.33,1.1,1.1,0,0,0,.53-1,.79.79,0,0,0-.29-.66,1.66,1.66,0,0,0-.72-.29c-.29,0-.69-.1-1.22-.14h-.15l-.14,0h-.15a6.45,6.45,0,0,1-1.5-.26,2,2,0,0,1-1-.7,2.38,2.38,0,0,1-.41-1.49,3.07,3.07,0,0,1,.39-1.61,2.41,2.41,0,0,1,1.18-1,5.29,5.29,0,0,1,2-.32,6.38,6.38,0,0,1,2.6.52,6.16,6.16,0,0,1,1.13.66l-1.08,1.31a5.59,5.59,0,0,0-1.35-.66,4,4,0,0,0-1.3-.22,2.44,2.44,0,0,0-1.37.31,1.08,1.08,0,0,0-.46.94.64.64,0,0,0,.26.55,1.72,1.72,0,0,0,.66.25c.26,0,.64.07,1.12.1h.34a7.67,7.67,0,0,1,1.63.25,2.24,2.24,0,0,1,1.13.77,2.62,2.62,0,0,1,.45,1.65,2.92,2.92,0,0,1-.42,1.63,2.54,2.54,0,0,1-1.27,1A5.88,5.88,0,0,1,115,610,7.38,7.38,0,0,1,113.51,609.88Z"/><path class="j" d="M126,597.13h1.8V609.9H126Zm2.6,12.5a2.39,2.39,0,0,1-.93-1.16l.13-1.91a2.22,2.22,0,0,0,.21,1,1.48,1.48,0,0,0,.61.63,1.93,1.93,0,0,0,1,.22,1.74,1.74,0,0,0,1.37-.54,2.18,2.18,0,0,0,.49-1.53v-2a2.26,2.26,0,0,0-.49-1.56,1.71,1.71,0,0,0-1.37-.55,2,2,0,0,0-1,.21,1.36,1.36,0,0,0-.61.62,2.12,2.12,0,0,0-.21,1l-.19-1.76a3.37,3.37,0,0,1,1.08-1.24,2.67,2.67,0,0,1,1.49-.43,3,3,0,0,1,1.65.43,2.9,2.9,0,0,1,1.06,1.27,5.1,5.1,0,0,1,.36,2v2a4.94,4.94,0,0,1-.37,2,2.79,2.79,0,0,1-1.08,1.26,3.25,3.25,0,0,1-1.71.44A2.73,2.73,0,0,1,128.57,609.63Z"/><path class="j" d="M134.46,600.78h1.82l2.81,7.93-1,1.94Zm8.07,0L138.65,612a2.6,2.6,0,0,1-.56,1,1.87,1.87,0,0,1-.84.52,4,4,0,0,1-1.23.16h-.36V612H136a1.46,1.46,0,0,0,.8-.2,1.74,1.74,0,0,0,.51-.7l3.37-10.31Z"/><path class="j" d="M143.57,600.78h4.12v1.62h-4.12Zm1.46,8.56a2.77,2.77,0,0,1-.52-1.81v-9.4h1.8v9.42a.84.84,0,0,0,.13.51.46.46,0,0,0,.39.18h.86V610h-1A2,2,0,0,1,145,609.34Z"/><path class="j" d="M151.94,606.33a2.07,2.07,0,0,0,.49,1.48,1.76,1.76,0,0,0,1.37.52,1.91,1.91,0,0,0,1.37-.46,1.79,1.79,0,0,0,.48-1.33l.12,1.91A2.58,2.58,0,0,1,153.3,610a2.89,2.89,0,0,1-2.33-1,4.08,4.08,0,0,1-.82-2.73v-5.55h1.79Zm3.71-5.55h1.78v9.12h-1.78Z"/><rect class="k" x="612.92" y="591.68" width="35.43" height="2.83"/><path class="l" d="M648.48,594.64H612.79v-3.08h35.69ZM613,594.39h35.19v-2.58H613Z"/><rect class="k" x="612.92" y="601.6" width="70.74" height="2.83"/><path class="l" d="M683.78,604.56h-71v-3.08h71ZM613,604.31h70.49v-2.58H613Z"/><rect class="k" x="612.92" y="612.72" width="177.16" height="2.84"/><path class="l" d="M790.21,615.68H612.79V612.6H790.21ZM613,615.43H790v-2.58H613Z"/><path class="m" d="M587.26,596.28h-.8v-4.82l-.81.5v-.83l.81-.53h.8Z"/><path class="m" d="M589,595.91a1.67,1.67,0,0,1-.41-1.19v-2.58A1.65,1.65,0,0,1,589,591a2,2,0,0,1,2.42,0,1.65,1.65,0,0,1,.41,1.19v2.58a1.65,1.65,0,0,1-.41,1.19,2,2,0,0,1-2.42,0Zm1.83-.55a.89.89,0,0,0,.2-.64v-2.58a.89.89,0,0,0-.2-.64.82.82,0,0,0-.62-.22.86.86,0,0,0-.63.22.94.94,0,0,0-.2.64v2.58a.9.9,0,0,0,.21.64,1,1,0,0,0,1.24,0Z"/><path class="m" d="M593.22,595.91a1.67,1.67,0,0,1-.41-1.19v-2.58a1.65,1.65,0,0,1,.41-1.19,2,2,0,0,1,2.42,0,1.61,1.61,0,0,1,.41,1.19v2.58a1.65,1.65,0,0,1-.41,1.19,2,2,0,0,1-2.42,0Zm1.83-.55a.9.9,0,0,0,.21-.64v-2.58a.94.94,0,0,0-.2-.64.86.86,0,0,0-.63-.22.82.82,0,0,0-.62.22.89.89,0,0,0-.2.64v2.58a.89.89,0,0,0,.2.64,1,1,0,0,0,1.24,0Z"/><path class="m" d="M600.1,596.13a1.45,1.45,0,0,1-.6-.6,2.06,2.06,0,0,1-.21-1v-.67a2,2,0,0,1,.21-.94,1.37,1.37,0,0,1,.6-.59,2,2,0,0,1,.95-.21,2.21,2.21,0,0,1,.59.08,1.68,1.68,0,0,1,.51.22,1.54,1.54,0,0,1,.37.35l-.58.52a1.17,1.17,0,0,0-.4-.3,1.13,1.13,0,0,0-.48-.11.94.94,0,0,0-.71.26,1,1,0,0,0-.26.72v.67a1,1,0,0,0,.25.74.94.94,0,0,0,.72.27,1,1,0,0,0,.48-.12,1,1,0,0,0,.4-.32l.58.56a1.38,1.38,0,0,1-.38.34,1.62,1.62,0,0,1-.5.22,2.27,2.27,0,0,1-.59.07A2.12,2.12,0,0,1,600.1,596.13Z"/><path class="m" d="M603.4,592.22h.79v4.06h-.79Zm2.42,1.6a1,1,0,0,0-.21-.67.78.78,0,0,0-.6-.23.81.81,0,0,0-.6.21.73.73,0,0,0-.22.58l-.08-.78a1.46,1.46,0,0,1,.49-.57,1.22,1.22,0,0,1,.67-.2,1.33,1.33,0,0,1,.73.2,1.18,1.18,0,0,1,.46.56,2.4,2.4,0,0,1,.15.89v2.47h-.79Zm2.42,0a.93.93,0,0,0-.22-.67.85.85,0,0,0-.63-.23.72.72,0,0,0-.57.23.9.9,0,0,0-.21.64l-.16-.78a1.61,1.61,0,0,1,.51-.63,1.23,1.23,0,0,1,.69-.22,1.37,1.37,0,0,1,.75.2,1.09,1.09,0,0,1,.47.56,2.21,2.21,0,0,1,.17.89v2.47h-.8Z"/><path class="m" d="M584.33,605.5l2-2.64a1.85,1.85,0,0,0,.27-.47,1.29,1.29,0,0,0,.09-.45h0a.67.67,0,0,0-.2-.53.81.81,0,0,0-.56-.19.76.76,0,0,0-.56.21,1,1,0,0,0-.27.58h-.82a2,2,0,0,1,.29-.83,1.42,1.42,0,0,1,.56-.53,1.67,1.67,0,0,1,.79-.18,1.93,1.93,0,0,1,.87.17,1.21,1.21,0,0,1,.54.51,1.55,1.55,0,0,1,.19.8h0a1.84,1.84,0,0,1-.12.63,2.8,2.8,0,0,1-.35.63l-1.65,2.24h2.15v.76h-3.2Z"/><path class="m" d="M589,605.83a1.67,1.67,0,0,1-.41-1.19v-2.58a1.65,1.65,0,0,1,.41-1.19,2,2,0,0,1,2.42,0,1.65,1.65,0,0,1,.41,1.19v2.58a1.65,1.65,0,0,1-.41,1.19,2,2,0,0,1-2.42,0Zm1.83-.55a.89.89,0,0,0,.2-.64v-2.58a.89.89,0,0,0-.2-.64.82.82,0,0,0-.62-.22.86.86,0,0,0-.63.22.94.94,0,0,0-.19.64v2.58a.89.89,0,0,0,.2.64,1,1,0,0,0,1.24,0Z"/><path class="m" d="M593.22,605.83a1.67,1.67,0,0,1-.41-1.19v-2.58a1.61,1.61,0,0,1,.42-1.19,1.59,1.59,0,0,1,1.2-.42,1.45,1.45,0,0,1,1.62,1.61v2.58a1.61,1.61,0,0,1-.41,1.19,2,2,0,0,1-2.42,0Zm1.84-.55a.94.94,0,0,0,.2-.64v-2.58a.94.94,0,0,0-.2-.64.84.84,0,0,0-.63-.22.82.82,0,0,0-.62.22.89.89,0,0,0-.2.64v2.58a.89.89,0,0,0,.2.64.82.82,0,0,0,.62.22A.86.86,0,0,0,595.06,605.28Z"/><path class="m" d="M600.1,606.05a1.45,1.45,0,0,1-.6-.6,2.06,2.06,0,0,1-.2-1v-.67a2,2,0,0,1,.2-.94,1.37,1.37,0,0,1,.6-.59,2,2,0,0,1,.95-.21,2.35,2.35,0,0,1,.6.08,1.73,1.73,0,0,1,.5.22,1.38,1.38,0,0,1,.37.35l-.58.52a1.08,1.08,0,0,0-.4-.3,1.13,1.13,0,0,0-.48-.11,1,1,0,0,0-.71.26,1,1,0,0,0-.26.72v.67a1,1,0,0,0,.25.74.94.94,0,0,0,.72.27,1.14,1.14,0,0,0,.88-.44l.58.56a1.38,1.38,0,0,1-.38.34,1.62,1.62,0,0,1-.5.22,2.22,2.22,0,0,1-.59.07A2.12,2.12,0,0,1,600.1,606.05Z"/><path class="m" d="M603.4,602.14h.79v4.06h-.79Zm2.42,1.6a1,1,0,0,0-.21-.67.78.78,0,0,0-.6-.23.81.81,0,0,0-.6.21.73.73,0,0,0-.22.58l-.08-.78a1.46,1.46,0,0,1,.49-.57,1.22,1.22,0,0,1,.67-.2,1.3,1.3,0,0,1,.73.2,1.18,1.18,0,0,1,.46.56,2.4,2.4,0,0,1,.16.89v2.47h-.8Zm2.42,0a.93.93,0,0,0-.22-.67.85.85,0,0,0-.63-.23.73.73,0,0,0-.57.23.89.89,0,0,0-.2.64l-.16-.78a1.51,1.51,0,0,1,.5-.63,1.23,1.23,0,0,1,.69-.22,1.35,1.35,0,0,1,.75.2,1.16,1.16,0,0,1,.48.56,2.4,2.4,0,0,1,.16.89v2.47h-.8Z"/><path class="m" d="M585,615.58a1.34,1.34,0,0,1-.54-.49,2,2,0,0,1-.28-.77h.8a.75.75,0,0,0,.25.49.85.85,0,0,0,.54.17.72.72,0,0,0,.59-.25,1.1,1.1,0,0,0,.21-.72v-.48a1.1,1.1,0,0,0-.21-.72.72.72,0,0,0-.59-.25.83.83,0,0,0-.4.11,1.18,1.18,0,0,0-.34.33h-.72v-3h2.89v.76h-2.1V612a1,1,0,0,1,.34-.18.94.94,0,0,1,.37-.07,1.68,1.68,0,0,1,.84.2,1.29,1.29,0,0,1,.53.6,2.07,2.07,0,0,1,.19.94V614a2.25,2.25,0,0,1-.19.94,1.31,1.31,0,0,1-.55.59,1.69,1.69,0,0,1-.86.21A1.74,1.74,0,0,1,585,615.58Z"/><path class="m" d="M589,615.32a1.65,1.65,0,0,1-.41-1.19v-2.58a1.67,1.67,0,0,1,.41-1.19,2,2,0,0,1,2.42,0,1.65,1.65,0,0,1,.41,1.19v2.58a1.64,1.64,0,0,1-.41,1.19,1.92,1.92,0,0,1-2.42,0Zm1.83-.55a.89.89,0,0,0,.2-.64v-2.58a.88.88,0,0,0-.2-.63.78.78,0,0,0-.62-.22.82.82,0,0,0-.63.22.93.93,0,0,0-.2.63v2.58a.9.9,0,0,0,.21.64,1,1,0,0,0,1.24,0Z"/><path class="m" d="M593.22,615.32a1.65,1.65,0,0,1-.41-1.19v-2.58a1.67,1.67,0,0,1,.41-1.19,2,2,0,0,1,2.42,0,1.61,1.61,0,0,1,.41,1.19v2.58a1.64,1.64,0,0,1-.41,1.19,1.92,1.92,0,0,1-2.42,0Zm1.83-.55a.9.9,0,0,0,.21-.64v-2.58a.93.93,0,0,0-.2-.63.82.82,0,0,0-.63-.22.78.78,0,0,0-.62.22.88.88,0,0,0-.2.63v2.58a.89.89,0,0,0,.2.64,1,1,0,0,0,1.24,0Z"/><path class="m" d="M600.1,615.54a1.45,1.45,0,0,1-.6-.6,2,2,0,0,1-.21-1v-.67a2,2,0,0,1,.21-.94,1.45,1.45,0,0,1,.6-.6,2,2,0,0,1,.95-.2,2.22,2.22,0,0,1,.59.07,2,2,0,0,1,.51.22,1.76,1.76,0,0,1,.37.35l-.58.52a1.17,1.17,0,0,0-.4-.3,1.13,1.13,0,0,0-.48-.11.94.94,0,0,0-.71.26,1,1,0,0,0-.26.73V614a1.07,1.07,0,0,0,.25.74,1,1,0,0,0,.72.26,1.13,1.13,0,0,0,.48-.11,1.26,1.26,0,0,0,.4-.32l.58.55a1.42,1.42,0,0,1-.38.35,1.88,1.88,0,0,1-.5.21,2.27,2.27,0,0,1-.59.08A2,2,0,0,1,600.1,615.54Z"/><path class="m" d="M603.4,611.63h.79v4.06h-.79Zm2.42,1.6a1,1,0,0,0-.21-.66.75.75,0,0,0-.6-.24.81.81,0,0,0-.6.21.75.75,0,0,0-.22.58l-.08-.78a1.5,1.5,0,0,1,.49-.56,1.15,1.15,0,0,1,.67-.2,1.32,1.32,0,0,1,.73.19,1.28,1.28,0,0,1,.46.56,2.42,2.42,0,0,1,.15.9v2.46h-.79Zm2.42,0a.91.91,0,0,0-.22-.66.82.82,0,0,0-.63-.24.72.72,0,0,0-.57.23.9.9,0,0,0-.21.64l-.16-.78a1.51,1.51,0,0,1,.51-.62,1.16,1.16,0,0,1,.69-.22,1.37,1.37,0,0,1,.75.19,1.18,1.18,0,0,1,.47.56,2.22,2.22,0,0,1,.17.9v2.46h-.8Z"/><path class="k" d="M23.49,613.89A12.92,12.92,0,1,1,36.4,601,12.93,12.93,0,0,1,23.49,613.89Zm0-24.83A11.92,11.92,0,1,0,35.4,601,11.93,11.93,0,0,0,23.49,589.06Z"/><polygon class="l" points="35.77 588.74 9.42 600.98 35.77 613.21 32.02 600.98 35.77 588.74"/><path class="k" d="M36.58,614.14,8.23,601l28.35-13.17-4,13.17ZM10.61,601,35,612.29,31.5,601,35,589.66Z"/><path class="k" d="M2.52,605.19a5,5,0,0,1-1.11-.38,4.4,4.4,0,0,1-1-.64l.81-1a3.72,3.72,0,0,0,1.16.69,4.08,4.08,0,0,0,1.38.23,2.73,2.73,0,0,0,1.55-.38,1.17,1.17,0,0,0,.55-1.05h0a1.12,1.12,0,0,0-.25-.77,1.44,1.44,0,0,0-.64-.42,8.23,8.23,0,0,0-1-.25H3.89l-.1,0a9.48,9.48,0,0,1-1.5-.36,2.08,2.08,0,0,1-1-.73,2.42,2.42,0,0,1-.41-1.51h0a2.77,2.77,0,0,1,.38-1.47,2.44,2.44,0,0,1,1.12-.92,4.48,4.48,0,0,1,1.77-.32,4.6,4.6,0,0,1,1,.11,4.9,4.9,0,0,1,1.86.86l-.73,1a4.61,4.61,0,0,0-1-.58,3,3,0,0,0-1.06-.2,2.44,2.44,0,0,0-1.46.38,1.24,1.24,0,0,0-.53,1.07h0a1,1,0,0,0,.27.75,1.74,1.74,0,0,0,.67.4,9.3,9.3,0,0,0,1.12.27h.24a7.93,7.93,0,0,1,1.4.41,2.22,2.22,0,0,1,.94.76,2.4,2.4,0,0,1,.38,1.43h0a2.62,2.62,0,0,1-.4,1.45,2.54,2.54,0,0,1-1.16.91,4.8,4.8,0,0,1-1.83.31A6.44,6.44,0,0,1,2.52,605.19Z"/><rect class="k" x="612.5" y="600.68" width="1" height="4.68"/><rect class="k" x="612.5" y="590.76" width="1" height="4.68"/><rect class="k" x="612.5" y="611.45" width="1" height="5.24"/><rect class="k" x="789.58" y="611.45" width="1" height="5.24"/><rect class="k" x="682.59" y="600.68" width="1" height="4.68"/><rect class="k" x="647.3" y="590.76" width="1" height="4.68"/><rect class="a" width="790.34" height="618.13"/><path class="n" d="M278.39,102.55v0Z"/><line class="o" x1="278.39" y1="88.49" x2="281.14" y2="88.49"/><line class="o" x1="429.55" y1="35.77" x2="283.9" y2="35.77"/><line class="o" x1="429.55" y1="88.49" x2="429.55" y2="35.77"/><line class="o" x1="420.94" y1="88.49" x2="429.55" y2="88.49"/><line class="o" x1="420.94" y1="92.01" x2="420.94" y2="88.49"/><line class="o" x1="389.95" y1="92.01" x2="420.94" y2="92.01"/><line class="o" x1="389.95" y1="88.49" x2="389.95" y2="92.01"/><line class="o" x1="283.9" y1="88.49" x2="389.95" y2="88.49"/><line class="o" x1="283.9" y1="35.77" x2="283.9" y2="88.49"/><line class="o" x1="365.85" y1="529.65" x2="355.52" y2="529.65"/><line class="o" x1="365.85" y1="526.13" x2="365.85" y2="529.65"/><line class="o" x1="396.84" y1="526.13" x2="365.85" y2="526.13"/><line class="o" x1="396.84" y1="529.65" x2="396.84" y2="526.13"/><line class="o" x1="453.66" y1="529.65" x2="396.84" y2="529.65"/><line class="o" x1="453.66" y1="582.37" x2="453.66" y2="529.64"/><line class="o" x1="355.52" y1="582.37" x2="453.66" y2="582.37"/><line class="o" x1="355.52" y1="529.65" x2="355.52" y2="582.37"/><path class="p" d="M278.39,341.23h0Z"/><line class="o" x1="352.76" y1="529.65" x2="350.01" y2="529.65"/><rect class="l" x="454.52" y="221.19" width="37.88" height="28.12"/><line class="o" x1="454.52" y1="221.19" x2="454.52" y2="249.31"/><line class="o" x1="492.4" y1="221.19" x2="454.52" y2="221.19"/><line class="o" x1="492.4" y1="249.31" x2="492.4" y2="221.19"/><line class="o" x1="454.52" y1="249.31" x2="492.4" y2="249.31"/><rect class="l" x="406.31" y="249.31" width="20.66" height="21.09"/><line class="o" x1="406.31" y1="249.31" x2="406.31" y2="270.4"/><line class="o" x1="426.97" y1="249.31" x2="406.31" y2="249.31"/><line class="o" x1="426.97" y1="270.4" x2="426.97" y2="249.31"/><line class="o" x1="406.31" y1="270.4" x2="426.97" y2="270.4"/><polygon class="l" points="278.38 199.22 278.38 255.81 278.38 276.9 278.38 199.22"/><line class="o" x1="278.39" y1="199.22" x2="278.39" y2="199.22"/><line class="o" x1="278.39" y1="199.22" x2="278.39" y2="255.82"/><line class="o" x1="278.39" y1="255.82" x2="278.39" y2="276.91"/><line class="o" x1="278.39" y1="276.91" x2="278.39" y2="276.91"/><rect class="l" x="429.21" y="102.55" width="21.01" height="108.97"/><line class="o" x1="429.21" y1="102.55" x2="429.21" y2="211.52"/><line class="o" x1="450.21" y1="102.55" x2="429.21" y2="102.55"/><line class="o" x1="450.21" y1="211.52" x2="450.21" y2="102.55"/><line class="o" x1="429.21" y1="211.52" x2="450.21" y2="211.52"/><line class="o" x1="350.01" y1="420.68" x2="350.01" y2="399.23"/><line class="o" x1="358.27" y1="354.94" x2="358.27" y2="357.4"/><line class="o" x1="319.02" y1="341.23" x2="350.01" y2="341.23"/><line class="o" x1="350.01" y1="341.23" x2="350.01" y2="357.05"/><line class="o" x1="498.42" y1="308.89" x2="404.42" y2="308.89"/><line class="o" x1="404.42" y1="313.46" x2="404.42" y2="341.59"/><line class="o" x1="404.42" y1="313.46" x2="431.96" y2="313.46"/><g class="q"><path class="o" d="M432,313.46c0,15.53-12.33,28.13-27.54,28.13"/></g><line class="o" x1="402.01" y1="313.46" x2="404.42" y2="313.46"/><line class="o" x1="404.42" y1="341.59" x2="402.01" y2="341.59"/><line class="o" x1="404.42" y1="341.59" x2="404.42" y2="343.34"/><line class="o" x1="402.01" y1="341.59" x2="402.01" y2="343.34"/><line class="o" x1="404.42" y1="311.71" x2="404.42" y2="313.46"/><line class="o" x1="402.01" y1="311.71" x2="402.01" y2="313.46"/><line class="o" x1="402.01" y1="313.46" x2="402.01" y2="320.49"/><line class="o" x1="402.01" y1="324.36" x2="402.01" y2="325.15"/><line class="o" x1="402.01" y1="329.02" x2="402.01" y2="329.81"/><line class="o" x1="402.01" y1="333.68" x2="402.01" y2="334.55"/><line class="o" x1="402.01" y1="334.55" x2="402.01" y2="341.59"/><line class="o" x1="404.42" y1="313.46" x2="405.28" y2="313.46"/><line class="o" x1="405.28" y1="313.46" x2="405.28" y2="309.95"/><line class="o" x1="405.28" y1="309.95" x2="404.42" y2="309.95"/><line class="o" x1="402.01" y1="313.46" x2="401.14" y2="313.46"/><line class="o" x1="401.14" y1="313.46" x2="401.14" y2="309.95"/><line class="o" x1="401.14" y1="309.95" x2="402.01" y2="309.95"/><line class="o" x1="405.28" y1="341.59" x2="405.28" y2="345.1"/><line class="o" x1="405.28" y1="345.1" x2="404.42" y2="345.1"/><line class="o" x1="402.01" y1="341.59" x2="401.14" y2="341.59"/><line class="o" x1="401.14" y1="341.59" x2="401.14" y2="345.1"/><line class="o" x1="401.14" y1="345.1" x2="402.01" y2="345.1"/><line class="o" x1="433" y1="243.16" x2="433" y2="215.04"/><line class="o" x1="433" y1="215.04" x2="451.25" y2="215.04"/><line class="o" x1="451.25" y1="215.04" x2="451.25" y2="243.16"/><line class="o" x1="286.65" y1="102.55" x2="286.65" y2="267.06"/><line class="o" x1="286.65" y1="269.52" x2="286.65" y2="292.37"/><line class="o" x1="278.39" y1="102.55" x2="278.39" y2="276.91"/><line class="o" x1="286.65" y1="332.8" x2="358.27" y2="332.8"/><line class="o" x1="358.27" y1="357.4" x2="358.27" y2="515.59"/><line class="o" x1="350.01" y1="360.57" x2="350.01" y2="393.96"/><line class="o" x1="350.01" y1="399.23" x2="350.01" y2="515.59"/><line class="o" x1="505.31" y1="208.01" x2="505.31" y2="390.8"/><line class="o" x1="512.2" y1="200.98" x2="496.7" y2="200.98"/><line class="o" x1="505.31" y1="208.01" x2="498.42" y2="208.01"/><line class="o" x1="463.99" y1="208.01" x2="457.1" y2="208.01"/><line class="o" x1="512.2" y1="397.83" x2="496.7" y2="397.83"/><line class="o" x1="463.99" y1="383.77" x2="452.62" y2="383.77"/><line class="o" x1="505.31" y1="390.8" x2="498.42" y2="390.8"/><line class="o" x1="463.99" y1="390.8" x2="457.1" y2="390.8"/><line class="o" x1="463.99" y1="200.98" x2="463.99" y2="88.49"/><line class="o" x1="450.21" y1="211.52" x2="450.21" y2="102.55"/><line class="o" x1="457.1" y1="208.01" x2="457.1" y2="95.52"/><line class="o" x1="463.99" y1="397.83" x2="463.99" y2="529.65"/><line class="o" x1="450.21" y1="383.77" x2="450.21" y2="515.59"/><line class="o" x1="457.1" y1="390.8" x2="457.1" y2="522.62"/><line class="o" x1="286.65" y1="331.04" x2="286.65" y2="332.8"/><line class="o" x1="278.39" y1="285.34" x2="278.39" y2="292.37"/><line class="o" x1="278.39" y1="331.04" x2="278.39" y2="332.8"/><line class="o" x1="429.55" y1="88.49" x2="429.55" y2="35.77"/><line class="o" x1="282.52" y1="35.77" x2="429.55" y2="35.77"/><line class="o" x1="422.67" y1="102.55" x2="422.67" y2="95.52"/><line class="o" x1="282.52" y1="88.49" x2="278.39" y2="88.49"/><line class="o" x1="321.08" y1="88.49" x2="282.52" y2="88.49"/><line class="o" x1="319.36" y1="102.55" x2="286.65" y2="102.55"/><line class="o" x1="319.36" y1="95.52" x2="278.39" y2="95.52"/><line class="o" x1="278.39" y1="102.55" x2="278.39" y2="102.55"/><line class="o" x1="420.94" y1="88.49" x2="433" y2="88.49"/><line class="o" x1="433" y1="88.49" x2="463.99" y2="88.49"/><line class="o" x1="457.1" y1="95.52" x2="422.67" y2="95.52"/><line class="o" x1="422.67" y1="102.55" x2="450.21" y2="102.55"/><line class="o" x1="463.99" y1="208.01" x2="463.99" y2="215.04"/><line class="o" x1="498.42" y1="215.04" x2="498.42" y2="208.01"/><line class="o" x1="498.42" y1="383.77" x2="498.42" y2="390.8"/><line class="o" x1="496.7" y1="200.98" x2="465.71" y2="200.98"/><line class="o" x1="498.42" y1="215.04" x2="463.99" y2="215.04"/><line class="o" x1="496.7" y1="397.83" x2="465.71" y2="397.83"/><line class="o" x1="498.42" y1="383.77" x2="463.99" y2="383.77"/><line class="o" x1="354.14" y1="529.65" x2="350.01" y2="529.65"/><line class="o" x1="365.85" y1="529.65" x2="354.14" y2="529.65"/><line class="o" x1="364.13" y1="515.59" x2="358.27" y2="515.59"/><line class="o" x1="364.13" y1="522.62" x2="350.01" y2="522.62"/><line class="o" x1="433" y1="515.59" x2="433" y2="522.62"/><line class="o" x1="457.1" y1="529.65" x2="431.28" y2="529.65"/><line class="o" x1="463.99" y1="529.65" x2="457.1" y2="529.65"/><line class="o" x1="278.39" y1="285.34" x2="278.39" y2="285.34"/><line class="o" x1="278.39" y1="276.91" x2="278.39" y2="276.91"/><line class="o" x1="278.39" y1="332.8" x2="278.39" y2="332.8"/><line class="o" x1="278.39" y1="341.23" x2="315.57" y2="341.23"/><line class="o" x1="286.65" y1="292.37" x2="286.65" y2="299.4"/><line class="o" x1="286.65" y1="303.27" x2="286.65" y2="304.06"/><line class="o" x1="286.65" y1="307.93" x2="286.65" y2="308.72"/><line class="o" x1="286.65" y1="312.59" x2="286.65" y2="319.62"/><line class="o" x1="286.65" y1="323.48" x2="286.65" y2="324.01"/><line class="o" x1="286.65" y1="324.01" x2="286.65" y2="331.04"/><line class="o" x1="282.35" y1="331.04" x2="278.39" y2="331.04"/><line class="o" x1="282.35" y1="294.13" x2="278.39" y2="294.13"/><line class="o" x1="282.35" y1="329.28" x2="278.39" y2="329.28"/><line class="o" x1="282.35" y1="329.28" x2="282.35" y2="331.04"/><line class="o" x1="282.35" y1="294.13" x2="282.35" y2="292.37"/><line class="o" x1="282.35" y1="292.37" x2="286.65" y2="292.37"/><line class="o" x1="282.35" y1="331.04" x2="286.65" y2="331.04"/><line class="o" x1="282.35" y1="327.52" x2="282.35" y2="295.89"/><line class="o" x1="278.39" y1="327.52" x2="278.39" y2="295.89"/><line class="o" x1="282.35" y1="327.52" x2="313.34" y2="327.52"/><g class="q"><path class="o" d="M282.35,295.89c17.11,0,31,14.16,31,31.63"/></g><line class="o" x1="278.39" y1="327.52" x2="282.35" y2="327.52"/><line class="o" x1="282.35" y1="295.89" x2="278.39" y2="295.89"/><line class="o" x1="282.35" y1="295.89" x2="282.35" y2="294.13"/><line class="o" x1="278.39" y1="295.89" x2="278.39" y2="294.13"/><line class="o" x1="282.35" y1="329.28" x2="282.35" y2="327.52"/><line class="o" x1="278.39" y1="329.28" x2="278.39" y2="327.52"/><line class="o" x1="463.99" y1="390.8" x2="463.99" y2="383.77"/><line class="o" x1="433" y1="522.62" x2="457.1" y2="522.62"/><line class="o" x1="278.39" y1="329.28" x2="278.39" y2="331.04"/><line class="o" x1="282.35" y1="292.37" x2="278.39" y2="292.37"/><line class="o" x1="278.39" y1="292.37" x2="278.39" y2="294.13"/><line class="o" x1="319.36" y1="102.55" x2="388.23" y2="102.55"/><line class="o" x1="388.23" y1="102.55" x2="422.67" y2="102.55"/><line class="o" x1="319.36" y1="102.55" x2="319.36" y2="95.52"/><line class="o" x1="354.14" y1="582.37" x2="453.66" y2="582.37"/><line class="o" x1="453.66" y1="529.65" x2="453.66" y2="582.37"/><line class="o" x1="364.13" y1="515.59" x2="364.13" y2="522.62"/><line class="o" x1="433" y1="515.59" x2="450.21" y2="515.59"/><line class="o" x1="433" y1="515.59" x2="398.56" y2="515.59"/><line class="o" x1="358.27" y1="515.59" x2="350.01" y2="515.59"/><line class="o" x1="278.39" y1="102.55" x2="286.65" y2="102.55"/><line class="o" x1="283.9" y1="35.77" x2="283.9" y2="88.49"/><line class="o" x1="282.52" y1="35.77" x2="283.9" y2="35.77"/><line class="o" x1="286.65" y1="269.52" x2="286.65" y2="267.06"/><line class="o" x1="452.62" y1="383.77" x2="450.21" y2="383.77"/><line class="o" x1="350.01" y1="399.23" x2="350.01" y2="393.96"/><line class="o" x1="350.01" y1="360.57" x2="350.01" y2="357.05"/><line class="o" x1="315.57" y1="341.23" x2="319.02" y2="341.23"/><line class="o" x1="321.08" y1="95.52" x2="321.08" y2="88.49"/><line class="o" x1="319.36" y1="95.52" x2="321.08" y2="95.52"/><line class="o" x1="420.94" y1="95.52" x2="420.94" y2="88.49"/><line class="o" x1="422.67" y1="95.52" x2="420.95" y2="95.52"/><line class="o" x1="496.7" y1="208.01" x2="496.7" y2="200.98"/><line class="o" x1="498.42" y1="208.01" x2="496.7" y2="208.01"/><line class="o" x1="465.71" y1="208.01" x2="465.71" y2="200.98"/><line class="o" x1="463.99" y1="208.01" x2="465.71" y2="208.01"/><line class="o" x1="463.99" y1="200.98" x2="465.71" y2="200.98"/><line class="o" x1="365.85" y1="522.62" x2="365.85" y2="529.65"/><line class="o" x1="364.13" y1="522.62" x2="365.85" y2="522.62"/><line class="o" x1="465.71" y1="390.8" x2="465.71" y2="397.83"/><line class="o" x1="463.99" y1="390.8" x2="465.71" y2="390.8"/><line class="o" x1="431.27" y1="522.62" x2="431.27" y2="529.65"/><line class="o" x1="431.27" y1="522.62" x2="433" y2="522.62"/><line class="o" x1="496.7" y1="390.8" x2="496.7" y2="397.83"/><line class="o" x1="496.7" y1="390.8" x2="498.42" y2="390.8"/><line class="o" x1="465.71" y1="397.83" x2="463.99" y2="397.83"/><line class="o" x1="398.56" y1="515.59" x2="398.56" y2="522.62"/><line class="o" x1="396.84" y1="522.62" x2="396.84" y2="529.65"/><line class="o" x1="431.27" y1="529.65" x2="396.84" y2="529.65"/><line class="o" x1="396.84" y1="529.65" x2="389.95" y2="529.65"/><line class="o" x1="386.17" y1="529.65" x2="385.39" y2="529.65"/><line class="o" x1="381.6" y1="529.65" x2="380.83" y2="529.65"/><line class="o" x1="377.04" y1="529.65" x2="372.74" y2="529.65"/><line class="o" x1="372.74" y1="529.65" x2="365.85" y2="529.65"/><line class="o" x1="398.56" y1="515.59" x2="364.13" y2="515.59"/><line class="o" x1="396.84" y1="526.13" x2="365.85" y2="526.13"/><line class="o" x1="398.56" y1="519.8" x2="398.56" y2="522.62"/><line class="o" x1="365.5" y1="519.1" x2="365.5" y2="486.76"/><line class="o" x1="395.81" y1="521.91" x2="395.81" y2="522.61"/><line class="o" x1="395.81" y1="522.62" x2="398.56" y2="522.62"/><line class="o" x1="398.56" y1="522.62" x2="398.56" y2="519.8"/><line class="o" x1="398.56" y1="519.8" x2="397.18" y2="519.8"/><line class="o" x1="397.18" y1="519.1" x2="394.43" y2="519.1"/><line class="o" x1="394.43" y1="519.1" x2="394.43" y2="521.91"/><line class="o" x1="394.43" y1="521.91" x2="397.19" y2="521.91"/><line class="o" x1="397.18" y1="521.91" x2="397.18" y2="519.1"/><line class="o" x1="366.88" y1="521.91" x2="366.88" y2="522.61"/><line class="o" x1="366.88" y1="522.62" x2="364.13" y2="522.62"/><line class="o" x1="364.13" y1="522.62" x2="364.13" y2="519.8"/><line class="o" x1="364.13" y1="519.8" x2="365.51" y2="519.8"/><line class="o" x1="365.5" y1="519.1" x2="368.26" y2="519.1"/><line class="o" x1="368.26" y1="519.1" x2="368.26" y2="521.91"/><line class="o" x1="368.26" y1="521.91" x2="365.5" y2="521.91"/><line class="o" x1="365.5" y1="521.91" x2="365.5" y2="519.1"/><line class="o" x1="394.43" y1="519.1" x2="368.26" y2="519.1"/><line class="o" x1="368.26" y1="521.91" x2="394.43" y2="521.91"/><line class="o" x1="394.43" y1="520.51" x2="368.26" y2="520.51"/><g class="q"><path class="o" d="M365.5,486.76c17.5,0,31.69,14.48,31.69,32.34"/></g><line class="o" x1="401.32" y1="521.91" x2="401.32" y2="522.61"/><line class="o" x1="401.32" y1="522.62" x2="398.56" y2="522.62"/><line class="o" x1="398.56" y1="522.62" x2="398.56" y2="519.8"/><line class="o" x1="398.56" y1="519.8" x2="399.94" y2="519.8"/><line class="o" x1="399.94" y1="519.1" x2="402.69" y2="519.1"/><line class="o" x1="402.69" y1="519.1" x2="402.69" y2="521.91"/><line class="o" x1="402.69" y1="521.91" x2="399.94" y2="521.91"/><line class="o" x1="399.94" y1="521.91" x2="399.94" y2="519.1"/><line class="o" x1="430.24" y1="521.91" x2="430.24" y2="522.61"/><line class="o" x1="430.24" y1="522.62" x2="433" y2="522.62"/><line class="o" x1="433" y1="522.62" x2="433" y2="519.8"/><line class="o" x1="433" y1="519.8" x2="431.62" y2="519.8"/><line class="o" x1="431.62" y1="519.1" x2="428.86" y2="519.1"/><line class="o" x1="428.86" y1="519.1" x2="428.86" y2="521.91"/><line class="o" x1="428.86" y1="521.91" x2="431.62" y2="521.91"/><line class="o" x1="431.62" y1="521.91" x2="431.62" y2="519.1"/><line class="o" x1="402.69" y1="519.1" x2="428.86" y2="519.1"/><line class="o" x1="428.86" y1="521.91" x2="402.69" y2="521.91"/><line class="o" x1="402.69" y1="520.51" x2="428.86" y2="520.51"/><g class="q"><path class="o" d="M283.72,519.1c0-17.86,14.19-32.34,31.68-32.34"/></g><line class="o" x1="466.74" y1="390.09" x2="466.74" y2="390.8"/><line class="o" x1="466.74" y1="390.8" x2="463.99" y2="390.8"/><line class="o" x1="463.99" y1="390.8" x2="463.99" y2="387.98"/><line class="o" x1="463.99" y1="387.98" x2="465.37" y2="387.98"/><line class="o" x1="495.67" y1="390.09" x2="495.67" y2="390.8"/><line class="o" x1="495.67" y1="390.8" x2="498.42" y2="390.8"/><line class="o" x1="498.42" y1="390.8" x2="498.42" y2="387.98"/><line class="o" x1="498.42" y1="387.98" x2="497.04" y2="387.98"/><line class="o" x1="497.05" y1="387.28" x2="494.29" y2="387.28"/><line class="o" x1="494.29" y1="387.28" x2="494.29" y2="390.09"/><line class="o" x1="494.29" y1="390.09" x2="497.05" y2="390.09"/><line class="o" x1="497.05" y1="390.09" x2="497.05" y2="387.28"/><line class="o" x1="465.37" y1="387.28" x2="468.12" y2="387.28"/><line class="o" x1="468.12" y1="387.28" x2="468.12" y2="390.09"/><line class="o" x1="468.12" y1="390.09" x2="465.37" y2="390.09"/><line class="o" x1="465.37" y1="390.09" x2="465.37" y2="387.28"/><line class="o" x1="494.29" y1="387.28" x2="468.12" y2="387.28"/><line class="o" x1="468.12" y1="390.09" x2="494.29" y2="390.09"/><line class="o" x1="494.29" y1="388.69" x2="468.12" y2="388.69"/><line class="o" x1="466.74" y1="208.71" x2="466.74" y2="208.01"/><line class="o" x1="466.74" y1="208.01" x2="463.99" y2="208.01"/><line class="o" x1="463.99" y1="208.01" x2="463.99" y2="210.82"/><line class="o" x1="463.99" y1="210.82" x2="465.37" y2="210.82"/><line class="o" x1="465.37" y1="211.52" x2="468.12" y2="211.52"/><line class="o" x1="468.12" y1="211.52" x2="468.12" y2="208.71"/><line class="o" x1="468.12" y1="208.71" x2="465.37" y2="208.71"/><line class="o" x1="465.37" y1="208.71" x2="465.37" y2="211.52"/><line class="o" x1="495.67" y1="208.71" x2="495.67" y2="208.01"/><line class="o" x1="495.67" y1="208.01" x2="498.42" y2="208.01"/><line class="o" x1="498.42" y1="208.01" x2="498.42" y2="210.82"/><line class="o" x1="498.42" y1="210.82" x2="497.04" y2="210.82"/><line class="o" x1="497.05" y1="211.52" x2="494.29" y2="211.52"/><line class="o" x1="494.29" y1="211.52" x2="494.29" y2="208.71"/><line class="o" x1="494.29" y1="208.71" x2="497.05" y2="208.71"/><line class="o" x1="497.05" y1="208.71" x2="497.05" y2="211.52"/><line class="o" x1="468.12" y1="211.52" x2="494.29" y2="211.52"/><line class="o" x1="494.29" y1="208.71" x2="468.12" y2="208.71"/><line class="o" x1="468.12" y1="210.12" x2="494.29" y2="210.12"/><line class="o" x1="321.08" y1="88.49" x2="389.95" y2="88.49"/><line class="o" x1="388.23" y1="102.55" x2="388.23" y2="95.52"/><line class="o" x1="389.95" y1="95.52" x2="389.95" y2="88.49"/><line class="o" x1="389.95" y1="88.49" x2="396.84" y2="88.49"/><line class="o" x1="400.63" y1="88.49" x2="401.4" y2="88.49"/><line class="o" x1="405.19" y1="88.49" x2="405.97" y2="88.49"/><line class="o" x1="409.75" y1="88.49" x2="414.06" y2="88.49"/><line class="o" x1="414.06" y1="88.49" x2="420.94" y2="88.49"/><line class="o" x1="389.95" y1="92.01" x2="420.94" y2="92.01"/><line class="o" x1="421.29" y1="99.04" x2="421.29" y2="131.38"/><line class="o" x1="390.99" y1="96.23" x2="390.99" y2="95.52"/><line class="o" x1="390.99" y1="95.52" x2="388.23" y2="95.52"/><line class="o" x1="388.23" y1="95.52" x2="388.23" y2="98.34"/><line class="o" x1="388.23" y1="98.34" x2="389.61" y2="98.34"/><line class="o" x1="389.61" y1="99.04" x2="392.36" y2="99.04"/><line class="o" x1="392.36" y1="99.04" x2="392.36" y2="96.23"/><line class="o" x1="392.36" y1="96.23" x2="389.61" y2="96.23"/><line class="o" x1="389.61" y1="96.23" x2="389.61" y2="99.04"/><line class="o" x1="421.29" y1="99.04" x2="418.53" y2="99.04"/><line class="o" x1="418.53" y1="99.04" x2="418.53" y2="96.23"/><line class="o" x1="418.53" y1="96.23" x2="421.29" y2="96.23"/><line class="o" x1="421.29" y1="96.23" x2="421.29" y2="99.04"/><line class="o" x1="392.36" y1="99.04" x2="418.53" y2="99.04"/><line class="o" x1="418.53" y1="96.23" x2="392.36" y2="96.23"/><line class="o" x1="392.36" y1="97.63" x2="418.53" y2="97.63"/><g class="q"><path class="o" d="M421.29,131.38c-17.5,0-31.68-14.48-31.68-32.34"/></g><line class="o" x1="419.91" y1="96.23" x2="419.91" y2="95.52"/><line class="o" x1="419.91" y1="95.52" x2="422.67" y2="95.52"/><line class="o" x1="422.67" y1="95.52" x2="422.67" y2="98.34"/><line class="o" x1="422.67" y1="98.34" x2="421.29" y2="98.34"/><line class="o" x1="322.12" y1="96.23" x2="322.12" y2="95.52"/><line class="o" x1="322.12" y1="95.52" x2="319.36" y2="95.52"/><line class="o" x1="319.36" y1="95.52" x2="319.36" y2="98.34"/><line class="o" x1="319.36" y1="98.34" x2="320.74" y2="98.34"/><line class="o" x1="320.74" y1="99.04" x2="323.49" y2="99.04"/><line class="o" x1="323.49" y1="99.04" x2="323.49" y2="96.23"/><line class="o" x1="323.49" y1="96.23" x2="320.74" y2="96.23"/><line class="o" x1="320.74" y1="96.23" x2="320.74" y2="99.04"/><line class="o" x1="352.42" y1="96.23" x2="352.42" y2="95.52"/><line class="o" x1="352.42" y1="95.52" x2="355.17" y2="95.52"/><line class="o" x1="355.17" y1="95.52" x2="355.17" y2="98.34"/><line class="o" x1="355.17" y1="98.34" x2="353.8" y2="98.34"/><line class="o" x1="353.8" y1="99.04" x2="351.04" y2="99.04"/><line class="o" x1="351.04" y1="99.04" x2="351.04" y2="96.23"/><line class="o" x1="351.04" y1="96.23" x2="353.8" y2="96.23"/><line class="o" x1="353.8" y1="96.23" x2="353.8" y2="99.04"/><line class="o" x1="323.49" y1="99.04" x2="351.04" y2="99.04"/><line class="o" x1="351.04" y1="96.23" x2="323.49" y2="96.23"/><line class="o" x1="323.49" y1="97.63" x2="351.04" y2="97.63"/><line class="o" x1="388.23" y1="98.34" x2="385.48" y2="98.34"/><line class="o" x1="385.48" y1="98.34" x2="385.48" y2="95.52"/><line class="o" x1="385.48" y1="95.52" x2="388.23" y2="95.52"/><line class="o" x1="388.23" y1="95.52" x2="388.23" y2="98.34"/><line class="o" x1="385.48" y1="98.34" x2="355.17" y2="98.34"/><line class="o" x1="385.48" y1="96.93" x2="355.17" y2="96.93"/><line class="o" x1="385.48" y1="95.52" x2="355.17" y2="95.52"/><line class="o" x1="355.52" y1="529.65" x2="355.52" y2="582.37"/><line class="o" x1="354.14" y1="582.37" x2="355.52" y2="582.37"/><line class="o" x1="315.57" y1="341.23" x2="319.02" y2="341.23"/><line class="o" x1="396.84" y1="267.06" x2="369.29" y2="267.06"/><line class="o" x1="396.84" y1="267.06" x2="396.84" y2="238.94"/><g class="q"><path class="o" d="M369.29,267.06c0-15.53,12.34-28.12,27.55-28.12"/></g><line class="o" x1="396.84" y1="269.52" x2="396.84" y2="267.06"/><line class="o" x1="369.29" y1="267.06" x2="369.29" y2="269.52"/><line class="o" x1="369.29" y1="267.06" x2="367.57" y2="267.06"/><line class="o" x1="369.29" y1="269.52" x2="367.57" y2="269.52"/><line class="o" x1="398.56" y1="267.06" x2="396.84" y2="267.06"/><line class="o" x1="398.56" y1="269.52" x2="396.84" y2="269.52"/><line class="o" x1="396.84" y1="269.52" x2="389.95" y2="269.52"/><line class="o" x1="386.17" y1="269.52" x2="385.39" y2="269.52"/><line class="o" x1="381.6" y1="269.52" x2="380.83" y2="269.52"/><line class="o" x1="377.04" y1="269.52" x2="376.18" y2="269.52"/><line class="o" x1="376.18" y1="269.52" x2="369.29" y2="269.52"/><line class="o" x1="396.84" y1="267.06" x2="396.84" y2="266.19"/><line class="o" x1="396.84" y1="266.19" x2="400.28" y2="266.19"/><line class="o" x1="400.28" y1="266.19" x2="400.28" y2="267.06"/><line class="o" x1="396.84" y1="269.52" x2="396.84" y2="270.4"/><line class="o" x1="396.84" y1="270.4" x2="400.28" y2="270.4"/><line class="o" x1="400.28" y1="270.4" x2="400.28" y2="269.52"/><line class="o" x1="369.29" y1="266.19" x2="365.85" y2="266.19"/><line class="o" x1="365.85" y1="266.19" x2="365.85" y2="267.06"/><line class="o" x1="369.29" y1="269.52" x2="369.29" y2="270.4"/><line class="o" x1="369.29" y1="270.4" x2="365.85" y2="270.4"/><line class="o" x1="365.85" y1="270.4" x2="365.85" y2="269.52"/><line class="o" x1="402.01" y1="269.52" x2="402.01" y2="274.8"/><line class="o" x1="286.65" y1="269.52" x2="367.57" y2="269.52"/><line class="o" x1="398.56" y1="269.52" x2="402.01" y2="269.52"/><line class="o" x1="286.65" y1="267.06" x2="367.57" y2="267.06"/><line class="o" x1="398.56" y1="267.06" x2="402.01" y2="267.06"/><line class="o" x1="498.42" y1="215.04" x2="498.42" y2="306.43"/><line class="o" x1="498.42" y1="308.89" x2="498.42" y2="383.77"/><line class="o" x1="493.26" y1="220.31" x2="493.26" y2="306.43"/><line class="o" x1="493.26" y1="220.31" x2="453.66" y2="220.31"/><line class="o" x1="450.21" y1="211.52" x2="429.55" y2="211.52"/><line class="o" x1="450.21" y1="211.52" x2="450.21" y2="215.04"/><line class="o" x1="402.01" y1="274.8" x2="404.42" y2="274.8"/><line class="o" x1="367.57" y1="267.06" x2="367.57" y2="269.52"/><line class="o" x1="398.56" y1="267.06" x2="398.56" y2="269.52"/><line class="o" x1="498.42" y1="306.43" x2="498.42" y2="308.89"/><line class="o" x1="453.66" y1="215.04" x2="463.99" y2="215.04"/><line class="o" x1="402.01" y1="267.06" x2="402.01" y2="243.16"/><line class="o" x1="404.42" y1="274.8" x2="404.42" y2="248.43"/><line class="o" x1="429.55" y1="211.52" x2="429.55" y2="243.16"/><line class="o" x1="453.66" y1="248.43" x2="453.66" y2="215.04"/><line class="o" x1="453.66" y1="248.43" x2="433" y2="248.43"/><line class="o" x1="433" y1="248.43" x2="404.42" y2="248.43"/><line class="o" x1="402.01" y1="243.16" x2="429.55" y2="243.16"/><line class="o" x1="402.01" y1="302.92" x2="402.01" y2="311.71"/><line class="o" x1="402.01" y1="343.34" x2="402.01" y2="354.94"/><line class="o" x1="404.42" y1="302.92" x2="404.42" y2="306.43"/><line class="o" x1="404.42" y1="308.89" x2="404.42" y2="311.71"/><line class="o" x1="404.42" y1="343.34" x2="404.42" y2="354.94"/><line class="o" x1="498.42" y1="306.43" x2="404.42" y2="306.43"/><line class="o" x1="402.01" y1="302.92" x2="404.42" y2="302.92"/><line class="o" x1="402.01" y1="311.71" x2="404.42" y2="311.71"/><line class="o" x1="402.01" y1="343.34" x2="404.42" y2="343.34"/><line class="o" x1="404.42" y1="301.16" x2="404.42" y2="276.55"/><line class="o" x1="404.42" y1="301.16" x2="428.52" y2="301.16"/><g class="q"><path class="o" d="M404.42,276.55a24.36,24.36,0,0,1,24.1,24.61"/></g><line class="o" x1="402.01" y1="301.16" x2="404.42" y2="301.16"/><line class="o" x1="404.42" y1="276.55" x2="402.01" y2="276.55"/><line class="o" x1="404.42" y1="276.55" x2="404.42" y2="274.8"/><line class="o" x1="402.01" y1="276.55" x2="402.01" y2="274.8"/><line class="o" x1="404.42" y1="302.92" x2="404.42" y2="301.16"/><line class="o" x1="402.01" y1="302.92" x2="402.01" y2="301.16"/><line class="o" x1="402.01" y1="301.16" x2="402.01" y2="294.13"/><line class="o" x1="402.01" y1="290.26" x2="402.01" y2="289.47"/><line class="o" x1="402.01" y1="285.61" x2="402.01" y2="284.81"/><line class="o" x1="402.01" y1="283.59" x2="402.01" y2="276.55"/><line class="o" x1="404.42" y1="301.16" x2="405.28" y2="301.16"/><line class="o" x1="405.28" y1="301.16" x2="405.28" y2="304.68"/><line class="o" x1="405.28" y1="304.68" x2="404.42" y2="304.68"/><line class="o" x1="402.01" y1="301.16" x2="401.14" y2="301.16"/><line class="o" x1="401.14" y1="301.16" x2="401.14" y2="304.68"/><line class="o" x1="401.14" y1="304.68" x2="402.01" y2="304.68"/><line class="o" x1="405.28" y1="276.55" x2="405.28" y2="273.04"/><line class="o" x1="405.28" y1="273.04" x2="404.42" y2="273.04"/><line class="o" x1="402.01" y1="276.55" x2="401.14" y2="276.55"/><line class="o" x1="401.14" y1="276.55" x2="401.14" y2="273.04"/><line class="o" x1="401.14" y1="273.04" x2="402.01" y2="273.04"/><line class="o" x1="493.26" y1="248.43" x2="498.42" y2="248.43"/><line class="o" x1="450.21" y1="357.4" x2="390.99" y2="357.4"/><line class="o" x1="360" y1="357.4" x2="358.27" y2="357.4"/><line class="o" x1="452.62" y1="354.94" x2="404.42" y2="354.94"/><line class="o" x1="402.01" y1="354.94" x2="390.99" y2="354.94"/><line class="o" x1="360" y1="354.94" x2="358.27" y2="354.94"/><line class="o" x1="450.21" y1="383.77" x2="450.21" y2="357.4"/><line class="o" x1="452.62" y1="383.77" x2="452.62" y2="354.94"/><line class="o" x1="360" y1="354.94" x2="360" y2="357.4"/><line class="o" x1="390.99" y1="354.94" x2="390.99" y2="357.4"/><line class="o" x1="361.72" y1="357.4" x2="389.26" y2="357.4"/><line class="o" x1="361.72" y1="357.4" x2="361.72" y2="385.52"/><g class="q"><path class="o" d="M389.26,357.4c0,15.53-12.33,28.12-27.54,28.12"/></g><line class="o" x1="361.72" y1="354.94" x2="361.72" y2="357.4"/><line class="o" x1="389.26" y1="357.4" x2="389.26" y2="354.94"/><line class="o" x1="389.26" y1="357.4" x2="390.99" y2="357.4"/><line class="o" x1="389.26" y1="354.94" x2="390.99" y2="354.94"/><line class="o" x1="360" y1="357.4" x2="361.72" y2="357.4"/><line class="o" x1="360" y1="354.94" x2="361.72" y2="354.94"/><line class="o" x1="361.72" y1="354.94" x2="368.6" y2="354.94"/><line class="o" x1="372.39" y1="354.94" x2="373.17" y2="354.94"/><line class="o" x1="376.95" y1="354.94" x2="377.73" y2="354.94"/><line class="o" x1="381.52" y1="354.94" x2="382.38" y2="354.94"/><line class="o" x1="382.38" y1="354.94" x2="389.26" y2="354.94"/><line class="o" x1="361.72" y1="357.4" x2="361.72" y2="358.28"/><line class="o" x1="361.72" y1="358.28" x2="358.27" y2="358.28"/><line class="o" x1="358.27" y1="358.28" x2="358.27" y2="357.4"/><line class="o" x1="361.72" y1="354.94" x2="361.72" y2="354.06"/><line class="o" x1="361.72" y1="354.06" x2="358.27" y2="354.06"/><line class="o" x1="358.27" y1="354.06" x2="358.27" y2="354.94"/><line class="o" x1="389.26" y1="358.28" x2="392.71" y2="358.28"/><line class="o" x1="392.71" y1="358.28" x2="392.71" y2="357.4"/><line class="o" x1="389.26" y1="354.94" x2="389.26" y2="354.06"/><line class="o" x1="389.26" y1="354.06" x2="392.71" y2="354.06"/><line class="o" x1="392.71" y1="354.06" x2="392.71" y2="354.94"/><line class="o" x1="358.27" y1="332.8" x2="358.27" y2="354.94"/><line class="o" x1="433" y1="243.16" x2="433" y2="248.43"/><line class="o" x1="450.21" y1="243.16" x2="450.21" y2="248.43"/><line class="o" x1="451.25" y1="215.04" x2="453.66" y2="215.04"/><line class="o" x1="429.55" y1="243.16" x2="433" y2="243.16"/><line class="o" x1="355.17" y1="529.65" x2="355.17" y2="582.37"/><line class="o" x1="353.11" y1="529.65" x2="354.14" y2="529.65"/><line class="o" x1="354.14" y1="529.65" x2="355.17" y2="529.65"/><line class="o" x1="355.17" y1="529.65" x2="355.17" y2="531.75"/><line class="o" x1="355.17" y1="531.75" x2="354.14" y2="531.75"/><line class="o" x1="354.14" y1="580.26" x2="355.17" y2="580.26"/><line class="o" x1="355.17" y1="580.26" x2="355.17" y2="582.37"/><line class="o" x1="355.17" y1="582.37" x2="354.14" y2="582.37"/><line class="o" x1="283.55" y1="35.77" x2="283.55" y2="88.49"/><line class="o" x1="282.52" y1="35.77" x2="283.55" y2="35.77"/><line class="o" x1="283.55" y1="35.77" x2="283.55" y2="37.88"/><line class="o" x1="283.55" y1="37.87" x2="282.52" y2="37.87"/><line class="o" x1="282.52" y1="86.38" x2="283.55" y2="86.38"/><line class="o" x1="283.55" y1="86.38" x2="283.55" y2="88.49"/><line class="o" x1="282.52" y1="88.49" x2="281.48" y2="88.49"/><line class="o" x1="283.55" y1="88.49" x2="282.52" y2="88.49"/><line class="o" x1="433" y1="245.62" x2="404.42" y2="245.62"/><line class="o" x1="404.42" y1="248.43" x2="404.42" y2="245.62"/><line class="o" x1="433" y1="245.62" x2="453.66" y2="245.62"/><line class="o" x1="433" y1="243.16" x2="451.25" y2="243.16"/><line class="o" x1="430.93" y1="210.29" x2="430.93" y2="190.96"/><line class="o" x1="430.93" y1="190.96" x2="448.15" y2="190.96"/><line class="o" x1="448.15" y1="210.29" x2="430.93" y2="210.29"/><line class="o" x1="429.21" y1="211.17" x2="429.21" y2="190.08"/><line class="o" x1="432.65" y1="208.54" x2="432.65" y2="192.72"/><line class="o" x1="432.65" y1="192.72" x2="444.7" y2="192.72"/><line class="o" x1="444.7" y1="192.72" x2="444.7" y2="208.54"/><line class="o" x1="444.7" y1="208.54" x2="432.65" y2="208.54"/><line class="o" x1="441.97" y1="110.96" x2="437.11" y2="115.94"/><line class="o" x1="437.11" y1="110.96" x2="441.97" y2="115.94"/><line class="o" x1="439.54" y1="116.97" x2="439.54" y2="109.94"/><line class="o" x1="442.98" y1="113.45" x2="436.1" y2="113.45"/><line class="o" x1="429.21" y1="102.91" x2="429.21" y2="124"/><line class="o" x1="449.87" y1="124" x2="429.21" y2="124"/><line class="o" x1="449.87" y1="155.63" x2="429.21" y2="155.63"/><line class="o" x1="429.21" y1="155.63" x2="429.21" y2="134.54"/><line class="o" x1="429.21" y1="134.54" x2="449.87" y2="134.54"/><line class="o" x1="428.27" y1="137.42" x2="428.27" y2="152.76"/><line class="o" x1="278.39" y1="241.4" x2="278.39" y2="241.4"/><line class="o" x1="278.39" y1="220.31" x2="278.39" y2="220.31"/><line class="o" x1="449.87" y1="190.08" x2="429.21" y2="190.08"/><line class="o" x1="429.21" y1="190.08" x2="429.21" y2="168.99"/><line class="o" x1="429.21" y1="168.99" x2="449.87" y2="168.99"/><line class="o" x1="459.68" y1="247.55" x2="487.23" y2="247.55"/><line class="o" x1="490.67" y1="244.04" x2="490.67" y2="226.46"/><line class="o" x1="487.23" y1="222.95" x2="459.68" y2="222.95"/><line class="o" x1="456.24" y1="226.46" x2="456.24" y2="244.04"/><line class="o" x1="461.75" y1="305.55" x2="461.75" y2="302.04"/><line class="o" x1="461.75" y1="302.04" x2="441.09" y2="302.04"/><line class="o" x1="441.09" y1="302.04" x2="441.09" y2="305.55"/><line class="o" x1="441.09" y1="305.55" x2="442.12" y2="305.55"/><line class="o" x1="442.12" y1="305.55" x2="442.12" y2="303.09"/><line class="o" x1="442.12" y1="303.09" x2="460.72" y2="303.09"/><line class="o" x1="460.72" y1="303.09" x2="460.72" y2="305.55"/><line class="o" x1="460.72" y1="305.55" x2="461.75" y2="305.55"/><line class="o" x1="461.75" y1="305.55" x2="461.75" y2="302.04"/><line class="o" x1="441.09" y1="305.55" x2="441.09" y2="302.04"/><line class="o" x1="460.72" y1="305.55" x2="460.72" y2="303.09"/><line class="o" x1="442.12" y1="305.55" x2="442.12" y2="303.09"/><line class="o" x1="461.75" y1="302.04" x2="441.09" y2="302.04"/><line class="o" x1="461.75" y1="303.09" x2="441.09" y2="303.09"/><line class="o" x1="461.75" y1="305.55" x2="460.72" y2="305.55"/><line class="o" x1="442.12" y1="305.55" x2="441.09" y2="305.55"/><line class="o" x1="429.21" y1="211.52" x2="450.21" y2="211.52"/><line class="o" x1="450.21" y1="211.52" x2="450.21" y2="102.55"/><line class="o" x1="450.21" y1="102.55" x2="429.21" y2="102.55"/><line class="o" x1="429.21" y1="102.55" x2="429.21" y2="211.52"/><line class="o" x1="278.39" y1="276.91" x2="278.39" y2="276.91"/><line class="o" x1="278.39" y1="276.91" x2="278.39" y2="199.22"/><line class="o" x1="278.39" y1="199.22" x2="278.39" y2="199.22"/><line class="o" x1="342.83" y1="147.34" x2="342.83" y2="175.47"/><line class="o" x1="342.83" y1="175.47" x2="325.62" y2="175.47"/><line class="o" x1="325.62" y1="175.47" x2="325.62" y2="147.34"/><line class="o" x1="325.62" y1="147.34" x2="342.83" y2="147.34"/><line class="o" x1="406.31" y1="270.4" x2="406.31" y2="249.31"/><line class="o" x1="406.31" y1="249.31" x2="426.97" y2="249.31"/><line class="o" x1="426.97" y1="249.31" x2="426.97" y2="270.4"/><line class="o" x1="426.97" y1="270.4" x2="406.31" y2="270.4"/><line class="o" x1="454.52" y1="249.31" x2="492.4" y2="249.31"/><line class="o" x1="492.4" y1="249.31" x2="492.4" y2="221.19"/><line class="o" x1="492.4" y1="221.19" x2="454.52" y2="221.19"/><line class="o" x1="454.52" y1="221.19" x2="454.52" y2="249.31"/><line class="o" x1="433" y1="513.83" x2="405.45" y2="513.83"/><line class="o" x1="405.45" y1="513.83" x2="405.45" y2="511.61"/><line class="o" x1="405.45" y1="511.61" x2="433" y2="511.61"/><line class="o" x1="433" y1="511.61" x2="433" y2="513.83"/><line class="o" x1="326.25" y1="104.31" x2="374.46" y2="104.31"/><line class="o" x1="374.46" y1="104.31" x2="374.46" y2="107.83"/><line class="o" x1="374.46" y1="107.83" x2="326.25" y2="107.83"/><line class="o" x1="326.25" y1="107.83" x2="326.25" y2="104.31"/><line class="o" x1="494.98" y1="382.01" x2="467.43" y2="382.01"/><line class="o" x1="467.43" y1="382.01" x2="467.43" y2="379.79"/><line class="o" x1="467.43" y1="379.79" x2="494.98" y2="379.79"/><line class="o" x1="494.98" y1="379.79" x2="494.98" y2="382.01"/><g class="q"><path class="o" d="M341.4,366.72a.86.86,0,1,0-.86.88.86.86,0,0,0,.86-.88"/><path class="o" d="M316.44,366.72a3.48,3.48,0,0,1,3.44-3.52"/><path class="o" d="M319.88,391.32a3.48,3.48,0,0,1-3.45-3.51"/><path class="o" d="M340.54,363.2a3.48,3.48,0,0,1,3.44,3.52"/><path class="o" d="M344,387.81a3.47,3.47,0,0,1-3.44,3.51"/><path class="o" d="M442,200.63a.69.69,0,1,0-.69.7.7.7,0,0,0,.69-.7"/><path class="o" d="M340,408.37a.69.69,0,1,0-.69.7.69.69,0,0,0,.69-.7"/><path class="o" d="M448,150.26a3.38,3.38,0,1,0-3.38,3.45,3.42,3.42,0,0,0,3.38-3.45"/><path class="o" d="M437.85,150.26a3.38,3.38,0,1,0-3.38,3.45,3.42,3.42,0,0,0,3.38-3.45"/><path class="o" d="M437.85,139.91a3.38,3.38,0,1,0-3.38,3.45,3.41,3.41,0,0,0,3.38-3.45"/><path class="o" d="M294.41,405A3.38,3.38,0,1,0,291,408.4a3.42,3.42,0,0,0,3.38-3.45"/><path class="o" d="M294.41,415.31a3.38,3.38,0,1,0-3.38,3.45,3.41,3.41,0,0,0,3.38-3.45"/><path class="o" d="M284.27,415.31a3.38,3.38,0,1,0-3.38,3.45,3.41,3.41,0,0,0,3.38-3.45"/><path class="o" d="M422.67,259.86a6,6,0,1,0-6,6.15,6.09,6.09,0,0,0,6-6.15"/><path class="o" d="M421.63,259.86a5,5,0,1,0-5,5.09,5,5,0,0,0,5-5.09"/><path class="o" d="M460.54,226.46a.86.86,0,1,0-.86.88.87.87,0,0,0,.86-.88"/><path class="o" d="M459.68,247.55a3.47,3.47,0,0,1-3.44-3.51"/><path class="o" d="M490.67,244a3.47,3.47,0,0,1-3.44,3.51"/><path class="o" d="M456.24,226.46a3.47,3.47,0,0,1,3.44-3.51"/><path class="o" d="M487.23,223a3.47,3.47,0,0,1,3.44,3.51"/><path class="o" d="M403.73,512.72a1.73,1.73,0,1,0-1.72,1.76,1.74,1.74,0,0,0,1.72-1.76"/><path class="o" d="M379.62,106.07a1.72,1.72,0,1,0-1.72,1.76,1.74,1.74,0,0,0,1.72-1.76"/><path class="o" d="M465.71,380.9a1.72,1.72,0,1,0-1.72,1.76,1.74,1.74,0,0,0,1.72-1.76"/></g><line class="o" x1="429.55" y1="88.49" x2="429.55" y2="35.77"/><line class="o" x1="433" y1="88.49" x2="433" y2="32.25"/><line class="o" x1="431.27" y1="88.49" x2="431.27" y2="34.01"/><line class="o" x1="282.52" y1="35.77" x2="429.55" y2="35.77"/><line class="o" x1="282.52" y1="32.25" x2="433" y2="32.25"/><line class="o" x1="282.52" y1="34.01" x2="431.27" y2="34.01"/><line class="o" x1="354.14" y1="582.37" x2="453.66" y2="582.37"/><line class="o" x1="453.66" y1="529.65" x2="453.66" y2="582.37"/><line class="o" x1="457.1" y1="529.65" x2="457.1" y2="585.89"/><line class="o" x1="455.38" y1="584.13" x2="354.14" y2="584.13"/><line class="o" x1="455.38" y1="529.65" x2="455.38" y2="584.13"/><line class="o" x1="451.25" y1="243.16" x2="433" y2="243.16"/><line class="o" x1="433" y1="243.16" x2="433" y2="215.04"/><line class="o" x1="433" y1="215.04" x2="438.16" y2="239.64"/><line class="o" x1="438.16" y1="239.64" x2="451.25" y2="243.16"/><rect class="l" x="325.62" y="147.35" width="17.22" height="28.12"/><line class="o" x1="325.62" y1="147.34" x2="325.62" y2="175.47"/><line class="o" x1="342.83" y1="147.34" x2="325.62" y2="147.34"/><line class="o" x1="342.83" y1="175.47" x2="342.83" y2="147.34"/><line class="o" x1="325.62" y1="175.47" x2="342.83" y2="175.47"/><rect class="l" x="286.65" y="250.89" width="69.21" height="16.17"/><line class="o" x1="286.65" y1="250.89" x2="286.65" y2="267.06"/><line class="o" x1="355.86" y1="250.89" x2="286.65" y2="250.89"/><line class="o" x1="355.86" y1="267.06" x2="355.86" y2="250.89"/><line class="o" x1="286.65" y1="267.06" x2="355.86" y2="267.06"/><rect class="l" x="486.03" y="352.07" width="12.39" height="25.47"/><line class="o" x1="486.03" y1="352.07" x2="486.03" y2="377.54"/><line class="o" x1="498.42" y1="352.07" x2="486.03" y2="352.07"/><line class="o" x1="498.42" y1="377.54" x2="498.42" y2="352.07"/><line class="o" x1="486.03" y1="377.54" x2="498.42" y2="377.54"/><rect class="l" x="460.72" y="303.09" width="1.03" height="2.46"/><line class="o" x1="461.75" y1="305.55" x2="461.75" y2="303.09"/><line class="o" x1="460.72" y1="305.55" x2="461.75" y2="305.55"/><line class="o" x1="460.72" y1="303.09" x2="460.72" y2="305.55"/><line class="o" x1="461.75" y1="303.09" x2="460.72" y2="303.09"/><rect class="l" x="441.09" y="302.04" width="20.66" height="1.05"/><line class="o" x1="441.09" y1="303.09" x2="461.75" y2="303.09"/><line class="o" x1="441.09" y1="302.04" x2="441.09" y2="303.09"/><line class="o" x1="461.75" y1="302.04" x2="441.09" y2="302.04"/><line class="o" x1="461.75" y1="303.09" x2="461.75" y2="302.04"/><rect class="l" x="441.09" y="303.09" width="1.03" height="2.46"/><line class="o" x1="442.12" y1="305.55" x2="442.12" y2="303.09"/><line class="o" x1="441.09" y1="305.55" x2="442.12" y2="305.55"/><line class="o" x1="441.09" y1="303.09" x2="441.09" y2="305.55"/><line class="o" x1="442.12" y1="303.09" x2="441.09" y2="303.09"/><path class="l" d="M278.39,341.23h0Z"/><line class="o" x1="315.57" y1="341.23" x2="278.39" y2="341.23"/><polygon class="l" points="400.79 513.96 400.28 512.72 400.79 511.48 402.01 510.96 403.22 511.48 403.73 512.72 403.22 513.96 402.01 514.48 400.79 513.96"/><g class="q"><path class="o" d="M403.73,512.72a1.73,1.73,0,1,1-3.45,0"/><path class="o" d="M400.28,512.72a1.73,1.73,0,1,1,3.45,0"/></g><rect class="l" x="405.45" y="511.61" width="27.55" height="2.21"/><line class="o" x1="405.45" y1="511.61" x2="405.45" y2="513.83"/><line class="o" x1="433" y1="511.61" x2="405.45" y2="511.61"/><line class="o" x1="433" y1="513.83" x2="433" y2="511.61"/><line class="o" x1="405.45" y1="513.83" x2="433" y2="513.83"/><polygon class="l" points="462.77 382.14 462.27 380.9 462.77 379.66 463.99 379.14 465.21 379.66 465.71 380.9 465.21 382.14 463.99 382.66 462.77 382.14"/><g class="q"><path class="o" d="M465.71,380.9a1.72,1.72,0,1,1-3.44,0"/><path class="o" d="M462.27,380.9a1.72,1.72,0,1,1,3.44,0"/></g><rect class="l" x="467.43" y="379.8" width="27.55" height="2.21"/><line class="o" x1="467.43" y1="382.01" x2="494.98" y2="382.01"/><line class="o" x1="467.43" y1="379.79" x2="467.43" y2="382.01"/><line class="o" x1="494.98" y1="379.79" x2="467.43" y2="379.79"/><line class="o" x1="494.98" y1="382.01" x2="494.98" y2="379.79"/><polygon class="l" points="493.26 306.43 493.26 220.31 453.66 220.31 453.66 215.04 494.98 215.04 498.42 215.04 498.42 306.43 493.26 306.43"/><line class="o" x1="453.66" y1="215.04" x2="453.66" y2="220.31"/><line class="o" x1="494.98" y1="215.04" x2="453.66" y2="215.04"/><line class="o" x1="498.42" y1="215.04" x2="494.98" y2="215.04"/><line class="o" x1="498.42" y1="306.43" x2="498.42" y2="215.04"/><line class="o" x1="493.26" y1="306.43" x2="498.42" y2="306.43"/><line class="o" x1="493.26" y1="220.31" x2="493.26" y2="306.43"/><line class="o" x1="453.66" y1="220.31" x2="493.26" y2="220.31"/><rect class="l" x="326.25" y="104.31" width="48.21" height="3.52"/><line class="o" x1="374.46" y1="107.83" x2="374.46" y2="104.31"/><line class="o" x1="326.25" y1="107.83" x2="374.46" y2="107.83"/><line class="o" x1="326.25" y1="104.31" x2="326.25" y2="107.83"/><line class="o" x1="374.46" y1="104.31" x2="326.25" y2="104.31"/><polygon class="l" points="376.69 107.31 376.18 106.07 376.69 104.83 377.9 104.31 379.12 104.83 379.62 106.07 379.12 107.31 377.9 107.83 376.69 107.31"/><g class="q"><path class="o" d="M379.62,106.07a1.72,1.72,0,1,1-3.44,0"/><path class="o" d="M376.18,106.07a1.72,1.72,0,1,1,3.44,0"/></g><polygon class="l" points="388.23 480.43 385.6 479.9 383.36 478.37 381.87 476.09 381.35 473.4 381.35 424.19 381.87 421.5 383.36 419.22 385.6 417.69 388.23 417.16 439.88 417.16 450.21 417.16 450.21 480.43 388.23 480.43"/><rect class="l" x="439.88" y="480.43" width="10.33" height="12.3"/><rect class="l" x="439.88" y="404.86" width="10.33" height="12.3"/><line class="o" x1="438.76" y1="446.81" x2="441.74" y2="445.96"/><line class="o" x1="438.76" y1="476.32" x2="441.74" y2="475.48"/><line class="o" x1="381.35" y1="424.19" x2="381.35" y2="473.4"/><line class="o" x1="388.23" y1="480.43" x2="450.21" y2="480.43"/><line class="o" x1="450.21" y1="480.43" x2="450.21" y2="417.16"/><line class="o" x1="450.21" y1="417.16" x2="388.23" y2="417.16"/><line class="o" x1="450.21" y1="480.43" x2="450.21" y2="492.74"/><line class="o" x1="450.21" y1="492.74" x2="439.88" y2="492.74"/><line class="o" x1="439.88" y1="492.74" x2="439.88" y2="480.43"/><line class="o" x1="439.88" y1="480.43" x2="450.21" y2="480.43"/><line class="o" x1="450.21" y1="404.86" x2="450.21" y2="417.16"/><line class="o" x1="450.21" y1="417.16" x2="439.88" y2="417.16"/><line class="o" x1="439.88" y1="417.16" x2="439.88" y2="404.86"/><line class="o" x1="439.88" y1="404.86" x2="450.21" y2="404.86"/><line class="o" x1="427.31" y1="480.43" x2="427.31" y2="417.16"/><line class="o" x1="422.14" y1="480.43" x2="422.14" y2="417.16"/><g class="q"><path class="o" d="M432.52,451.47a99.94,99.94,0,0,1,.84,12.94c0,3.33-.17,6.66-.5,10"/><path class="o" d="M434.76,476.65h-.1a1.87,1.87,0,0,1-1.84-1.88,2.85,2.85,0,0,1,0-.41"/><path class="o" d="M438.76,476.32a14.16,14.16,0,0,1-3.18.36c-.28,0-.55,0-.82,0"/><path class="o" d="M446.45,476.52q-1.24.06-2.49.06c-1.73,0-3.47-.09-5.2-.26"/><path class="o" d="M447,476.06a.19.19,0,0,1,0,.08.4.4,0,0,1-.39.4l-.12,0"/><path class="o" d="M447,476.06c-.38-5-.57-10.08-.57-15.12q0-4.79.23-9.55"/><path class="o" d="M445.37,450.26a.81.81,0,0,1,.31-.06,1,1,0,0,1,.95,1,.75.75,0,0,1,0,.21"/><path class="o" d="M445.37,450.26a44.81,44.81,0,0,1-11.87.18"/><path class="o" d="M432.52,451.47a1.18,1.18,0,0,1,0-.25.8.8,0,0,1,.8-.81.78.78,0,0,1,.22,0"/><path class="o" d="M388.23,480.43a7,7,0,0,1-6.89-7"/><path class="o" d="M381.35,424.19a7,7,0,0,1,6.88-7"/><path class="o" d="M432.52,422a100.1,100.1,0,0,1,.84,12.95c0,3.32-.17,6.65-.5,10"/><path class="o" d="M434.76,447.14h-.1a1.86,1.86,0,0,1-1.84-1.88,2.71,2.71,0,0,1,0-.4"/><path class="o" d="M438.76,446.81a14.76,14.76,0,0,1-3.18.35l-.82,0"/><path class="o" d="M446.45,447c-.83.05-1.66.06-2.49.06-1.73,0-3.47-.08-5.2-.25"/><path class="o" d="M447,446.54a.25.25,0,0,1,0,.08.4.4,0,0,1-.39.41l-.12,0"/><path class="o" d="M447,446.54q-.57-7.55-.57-15.12,0-4.77.23-9.55"/><path class="o" d="M445.37,420.74a1.06,1.06,0,0,1,.31-.05,1,1,0,0,1,.95,1,.65.65,0,0,1,0,.2"/><path class="o" d="M445.37,420.74a44.53,44.53,0,0,1-6.63.49,43.73,43.73,0,0,1-5.24-.31"/><path class="o" d="M432.52,422a1,1,0,0,1,0-.25.81.81,0,0,1,.8-.81.78.78,0,0,1,.22,0"/></g><polygon class="l" points="319.14 262.69 315.49 261.63 313.2 261.63 305.35 259.67 305.35 257.72 316.08 257.72 317.78 256.31 319.91 255.56 322.19 255.56 324.32 256.31 326.02 257.72 336.75 257.72 336.75 259.67 328.9 261.63 326.61 261.63 322.96 262.69 319.14 262.69"/><line class="o" x1="336.75" y1="257.72" x2="326.03" y2="257.72"/><line class="o" x1="336.75" y1="259.67" x2="336.75" y2="257.72"/><line class="o" x1="328.9" y1="261.63" x2="336.75" y2="259.67"/><line class="o" x1="326.61" y1="261.63" x2="328.9" y2="261.63"/><line class="o" x1="322.96" y1="262.69" x2="326.61" y2="261.63"/><line class="o" x1="319.14" y1="262.69" x2="322.96" y2="262.69"/><line class="o" x1="315.49" y1="261.63" x2="319.14" y2="262.69"/><line class="o" x1="313.2" y1="261.63" x2="315.49" y2="261.63"/><line class="o" x1="305.35" y1="259.67" x2="313.2" y2="261.63"/><line class="o" x1="305.35" y1="257.72" x2="305.35" y2="259.67"/><line class="o" x1="316.08" y1="257.72" x2="305.35" y2="257.72"/><line class="o" x1="317.78" y1="256.31" x2="316.08" y2="257.72"/><line class="o" x1="319.91" y1="255.56" x2="317.78" y2="256.31"/><line class="o" x1="322.19" y1="255.56" x2="319.91" y2="255.56"/><line class="o" x1="324.32" y1="256.31" x2="322.19" y2="255.56"/><line class="o" x1="326.03" y1="257.72" x2="324.32" y2="256.31"/><line class="o" x1="336.75" y1="257.72" x2="305.35" y2="257.72"/><line class="o" x1="313.2" y1="261.63" x2="328.9" y2="261.63"/><line class="o" x1="336.75" y1="259.67" x2="336.75" y2="257.72"/><line class="o" x1="307.44" y1="258.5" x2="309.54" y2="258.5"/><line class="o" x1="309.53" y1="258.5" x2="309.53" y2="258.99"/><line class="o" x1="309.53" y1="258.99" x2="307.44" y2="258.99"/><line class="o" x1="307.44" y1="258.99" x2="307.44" y2="258.5"/><line class="o" x1="310.06" y1="258.5" x2="312.15" y2="258.5"/><line class="o" x1="312.15" y1="258.5" x2="312.15" y2="258.99"/><line class="o" x1="312.15" y1="258.99" x2="310.06" y2="258.99"/><line class="o" x1="310.06" y1="258.99" x2="310.06" y2="258.5"/><line class="o" x1="336.75" y1="259.67" x2="305.35" y2="259.67"/><line class="o" x1="312.68" y1="258.99" x2="312.68" y2="258.5"/><line class="o" x1="312.68" y1="258.5" x2="313.72" y2="258.5"/><line class="o" x1="313.72" y1="258.5" x2="313.72" y2="258.99"/><line class="o" x1="313.72" y1="258.99" x2="312.67" y2="258.99"/><g class="q"><path class="o" d="M316.08,257.72a6.61,6.61,0,0,1,9.95,0"/></g><polygon class="l" points="290.15 200.07 289.66 199.87 289.46 199.37 289.46 110.44 346.28 110.44 346.28 111.49 346.58 110.74 347.31 110.44 365.22 110.44 367.85 110.97 370.08 112.49 371.58 114.78 372.1 117.47 372.1 133.28 371.58 135.97 370.08 138.25 367.85 139.78 365.22 140.31 347.31 140.31 346.58 140.21 346.24 139.54 345.87 140.1 345.24 140.31 319.76 140.31 319.03 140 318.73 139.26 318.42 140 317.69 140.31 318.43 140.62 318.73 141.37 318.73 169.14 318.43 169.88 317.69 170.19 318.43 170.5 318.73 171.25 318.73 193.74 318.76 194.23 318.5 194.64 318.04 194.8 318.52 195.01 318.73 195.5 318.73 196.56 318.27 198.31 317.01 199.6 315.29 200.07 290.15 200.07"/><line class="o" x1="318.73" y1="195.5" x2="318.73" y2="196.56"/><line class="o" x1="315.28" y1="200.07" x2="290.15" y2="200.07"/><line class="o" x1="289.46" y1="199.37" x2="289.46" y2="195.5"/><line class="o" x1="290.15" y1="194.8" x2="318.04" y2="194.8"/><line class="o" x1="289.46" y1="195.5" x2="289.46" y2="170.19"/><line class="o" x1="289.46" y1="170.19" x2="291.87" y2="170.19"/><line class="o" x1="298.37" y1="170.19" x2="300.43" y2="170.19"/><line class="o" x1="318.73" y1="171.25" x2="318.73" y2="193.74"/><line class="o" x1="317.7" y1="194.8" x2="300.43" y2="194.8"/><line class="o" x1="300.43" y1="170.19" x2="317.7" y2="170.19"/><line class="o" x1="290.84" y1="171.25" x2="290.84" y2="193.74"/><line class="o" x1="291.87" y1="194.8" x2="298.36" y2="194.8"/><line class="o" x1="298.37" y1="170.19" x2="291.87" y2="170.19"/><line class="o" x1="289.46" y1="140.31" x2="289.46" y2="170.19"/><line class="o" x1="289.46" y1="140.31" x2="291.87" y2="140.31"/><line class="o" x1="289.46" y1="170.19" x2="291.87" y2="170.19"/><line class="o" x1="298.37" y1="140.31" x2="300.43" y2="140.31"/><line class="o" x1="298.37" y1="170.19" x2="300.43" y2="170.19"/><line class="o" x1="318.73" y1="169.14" x2="318.73" y2="141.37"/><line class="o" x1="317.7" y1="140.31" x2="300.43" y2="140.31"/><line class="o" x1="300.43" y1="170.19" x2="317.7" y2="170.19"/><line class="o" x1="290.84" y1="169.14" x2="290.84" y2="141.37"/><line class="o" x1="291.87" y1="140.31" x2="298.36" y2="140.31"/><line class="o" x1="298.37" y1="170.19" x2="291.87" y2="170.19"/><line class="o" x1="372.1" y1="133.28" x2="372.1" y2="117.47"/><line class="o" x1="365.22" y1="110.44" x2="347.31" y2="110.44"/><line class="o" x1="346.28" y1="111.49" x2="346.28" y2="139.26"/><line class="o" x1="347.31" y1="140.31" x2="365.22" y2="140.31"/><line class="o" x1="300.43" y1="140.31" x2="317.7" y2="140.31"/><line class="o" x1="318.73" y1="139.26" x2="318.73" y2="121.64"/><line class="o" x1="290.84" y1="111.84" x2="317.7" y2="111.84"/><line class="o" x1="318.73" y1="112.9" x2="318.73" y2="119.53"/><line class="o" x1="298.37" y1="140.31" x2="291.87" y2="140.31"/><line class="o" x1="290.84" y1="139.26" x2="290.84" y2="111.84"/><line class="o" x1="318.73" y1="110.44" x2="289.46" y2="110.44"/><line class="o" x1="289.46" y1="110.44" x2="289.46" y2="140.31"/><line class="o" x1="318.73" y1="110.44" x2="318.73" y2="112.9"/><line class="o" x1="291.87" y1="140.31" x2="289.46" y2="140.31"/><line class="o" x1="298.37" y1="140.31" x2="300.43" y2="140.31"/><line class="o" x1="318.73" y1="119.53" x2="318.73" y2="121.64"/><line class="o" x1="346.28" y1="110.44" x2="318.73" y2="110.44"/><line class="o" x1="346.28" y1="110.44" x2="346.28" y2="112.9"/><line class="o" x1="318.73" y1="110.44" x2="318.73" y2="112.9"/><line class="o" x1="346.28" y1="119.53" x2="346.28" y2="121.64"/><line class="o" x1="318.73" y1="119.53" x2="318.73" y2="121.64"/><line class="o" x1="319.76" y1="140.31" x2="345.24" y2="140.31"/><line class="o" x1="346.28" y1="139.26" x2="346.28" y2="121.64"/><line class="o" x1="318.73" y1="121.64" x2="318.73" y2="139.26"/><line class="o" x1="319.76" y1="111.84" x2="345.24" y2="111.84"/><line class="o" x1="346.28" y1="112.9" x2="346.28" y2="119.53"/><line class="o" x1="318.73" y1="119.53" x2="318.73" y2="112.9"/><g class="q"><path class="o" d="M290.15,200.07a.69.69,0,0,1-.69-.7"/><path class="o" d="M289.46,195.5a.69.69,0,0,1,.69-.7"/><path class="o" d="M318,194.8a.69.69,0,0,1,.69.7"/><path class="o" d="M318.73,193.74a1,1,0,0,1-1,1.06"/><path class="o" d="M317.7,170.19a1,1,0,0,1,1,1.06"/><path class="o" d="M317.7,140.31a1.05,1.05,0,0,1,1,1.06"/><path class="o" d="M318.73,169.14a1,1,0,0,1-1,1.05"/><path class="o" d="M346.28,111.49a1,1,0,0,1,1-1"/><path class="o" d="M347.31,140.31a1,1,0,0,1-1-1.05"/><path class="o" d="M318.73,139.26a1,1,0,0,1-1,1.05"/><path class="o" d="M346.28,139.26a1,1,0,0,1-1,1.05"/><path class="o" d="M319.76,140.31a1,1,0,0,1-1-1.05"/><path class="o" d="M372.1,133.28a7,7,0,0,1-6.88,7"/><path class="o" d="M365.22,110.44a7,7,0,0,1,6.88,7"/><path class="o" d="M345.24,116.76a50.6,50.6,0,0,1-25.48,0"/><path class="o" d="M295.66,141.37a53.88,53.88,0,0,1,0,27.77"/><path class="o" d="M295.66,171.25a53.73,53.73,0,0,1,0,22.49"/><path class="o" d="M295.66,139.26a18.29,18.29,0,0,1-.79-5.3,17.82,17.82,0,0,1,17.63-18,17.36,17.36,0,0,1,5.2.8"/><path class="o" d="M318.73,196.56a3.48,3.48,0,0,1-3.45,3.51"/></g><rect class="l" x="474.32" y="308.89" width="24.1" height="42.18"/><polygon class="l" points="465.02 337.43 463.3 336.96 462.04 335.67 461.58 333.92 461.58 326.05 462.04 324.29 463.3 323.01 465.02 322.54 474.32 322.54 474.32 337.43 465.02 337.43"/><line class="o" x1="498.42" y1="308.89" x2="474.32" y2="308.89"/><line class="o" x1="474.32" y1="308.89" x2="474.32" y2="351.08"/><line class="o" x1="474.32" y1="351.08" x2="498.42" y2="351.08"/><line class="o" x1="498.42" y1="351.08" x2="498.42" y2="308.89"/><line class="o" x1="461.58" y1="326.05" x2="461.58" y2="333.91"/><line class="o" x1="465.02" y1="337.43" x2="474.32" y2="337.43"/><line class="o" x1="463.3" y1="326.05" x2="463.3" y2="333.91"/><line class="o" x1="474.32" y1="322.54" x2="465.02" y2="322.54"/><g class="q"><path class="o" d="M461.58,326.05a3.47,3.47,0,0,1,3.44-3.51"/><path class="o" d="M465,337.43a3.48,3.48,0,0,1-3.44-3.52"/><path class="o" d="M463.3,326.05a1.74,1.74,0,0,1,1.72-1.76"/><path class="o" d="M465,335.67a1.74,1.74,0,0,1-1.72-1.76"/></g><polygon class="l" points="397.5 169.21 394.64 166.98 391.32 165.59 387.75 165.12 391.6 158.31 392.86 157.02 394.59 156.54 396.31 157.01 402.28 160.5 403.55 161.78 404.01 163.54 403.55 165.29 399.69 172.11 397.5 169.21"/><polygon class="l" points="366.37 185.8 365.11 184.52 364.65 182.76 364.65 175.73 365.11 173.98 366.37 172.69 368.09 172.21 375.8 172.19 374.43 175.58 373.96 179.22 374.43 182.85 375.8 186.24 368.09 186.26 366.37 185.8"/><polygon class="l" points="392.86 201.3 391.6 200.02 387.75 193.23 391.32 192.74 394.64 191.32 397.5 189.08 399.69 186.16 403.55 192.96 404.01 194.71 403.55 196.47 402.28 197.76 396.31 201.29 394.59 201.77 392.86 201.3"/><polygon class="l" points="384.18 192.76 380.85 191.37 378 189.14 375.81 186.24 374.43 182.85 373.96 179.22 374.43 175.58 375.81 172.19 378 169.27 380.85 167.03 384.18 165.61 387.75 165.12 391.32 165.59 394.64 166.98 397.5 169.21 399.69 172.11 401.07 175.5 401.54 179.13 401.07 182.77 399.69 186.16 397.5 189.08 394.64 191.32 391.32 192.74 387.75 193.23 384.18 192.76"/><line class="o" x1="401.07" y1="175.5" x2="399.69" y2="172.11"/><line class="o" x1="401.54" y1="179.13" x2="401.07" y2="175.5"/><line class="o" x1="401.07" y1="182.77" x2="401.54" y2="179.13"/><line class="o" x1="399.69" y1="186.17" x2="401.07" y2="182.77"/><line class="o" x1="397.5" y1="189.08" x2="399.69" y2="186.16"/><line class="o" x1="394.64" y1="191.32" x2="397.5" y2="189.08"/><line class="o" x1="391.32" y1="192.74" x2="394.64" y2="191.32"/><line class="o" x1="387.75" y1="193.23" x2="391.32" y2="192.74"/><line class="o" x1="384.18" y1="192.76" x2="387.75" y2="193.23"/><line class="o" x1="380.85" y1="191.37" x2="384.18" y2="192.76"/><line class="o" x1="378" y1="189.14" x2="380.85" y2="191.37"/><line class="o" x1="375.8" y1="186.24" x2="378" y2="189.14"/><line class="o" x1="374.43" y1="182.85" x2="375.8" y2="186.24"/><line class="o" x1="373.96" y1="179.22" x2="374.43" y2="182.85"/><line class="o" x1="374.43" y1="175.58" x2="373.96" y2="179.22"/><line class="o" x1="375.8" y1="172.19" x2="374.43" y2="175.58"/><line class="o" x1="378" y1="169.27" x2="375.8" y2="172.19"/><line class="o" x1="380.85" y1="167.03" x2="378" y2="169.27"/><line class="o" x1="384.18" y1="165.61" x2="380.85" y2="167.03"/><line class="o" x1="387.75" y1="165.12" x2="384.18" y2="165.61"/><line class="o" x1="391.32" y1="165.59" x2="387.75" y2="165.12"/><line class="o" x1="394.64" y1="166.98" x2="391.32" y2="165.59"/><line class="o" x1="397.5" y1="169.21" x2="394.64" y2="166.98"/><line class="o" x1="399.69" y1="172.11" x2="397.5" y2="169.21"/><g class="q"><path class="o" d="M394.64,191.33a13.62,13.62,0,0,1-18.83-5.09,14.22,14.22,0,0,1,5-19.21"/><path class="o" d="M380.85,167a13.63,13.63,0,0,1,18.84,5.08,14.23,14.23,0,0,1-5.05,19.22"/></g><line class="o" x1="395.45" y1="158.53" x2="401.42" y2="162.03"/><line class="o" x1="403.55" y1="165.3" x2="399.69" y2="172.11"/><line class="o" x1="396.31" y1="157.01" x2="402.29" y2="160.5"/><line class="o" x1="387.75" y1="165.12" x2="391.6" y2="158.31"/><line class="o" x1="366.37" y1="182.76" x2="366.37" y2="175.73"/><line class="o" x1="368.09" y1="172.21" x2="375.8" y2="172.19"/><line class="o" x1="364.65" y1="182.76" x2="364.65" y2="175.73"/><line class="o" x1="375.8" y1="186.24" x2="368.09" y2="186.26"/><line class="o" x1="401.42" y1="196.24" x2="395.45" y2="199.77"/><line class="o" x1="391.6" y1="200.02" x2="387.75" y2="193.23"/><line class="o" x1="402.28" y1="197.76" x2="396.31" y2="201.29"/><line class="o" x1="399.69" y1="186.17" x2="403.55" y2="192.96"/><g class="q"><path class="o" d="M401.42,162a1.68,1.68,0,0,1,.63.64,1.76,1.76,0,0,1,0,1.75"/><path class="o" d="M393.1,159.18a1.62,1.62,0,0,1,.63-.64,1.68,1.68,0,0,1,1.72,0"/><path class="o" d="M402.28,160.5a3.54,3.54,0,0,1,1.27,1.28,3.61,3.61,0,0,1,0,3.52"/><path class="o" d="M391.6,158.31a3.47,3.47,0,0,1,1.26-1.29,3.39,3.39,0,0,1,3.45,0"/><path class="o" d="M366.37,175.73a1.79,1.79,0,0,1,.86-1.53,1.73,1.73,0,0,1,.86-.23"/><path class="o" d="M368.09,184.51a1.71,1.71,0,0,1-1.49-.88,1.78,1.78,0,0,1-.23-.88"/><path class="o" d="M364.65,175.73a3.54,3.54,0,0,1,1.72-3,3.39,3.39,0,0,1,1.73-.48"/><path class="o" d="M368.09,186.26a3.4,3.4,0,0,1-3-1.74,3.61,3.61,0,0,1-.46-1.76"/><path class="o" d="M395.45,199.77a1.69,1.69,0,0,1-2.35-.63"/><path class="o" d="M402.05,193.84a1.77,1.77,0,0,1-.63,2.4"/><path class="o" d="M396.31,201.29A3.4,3.4,0,0,1,391.6,200"/><path class="o" d="M403.55,193a3.56,3.56,0,0,1-1.27,4.8"/></g><polygon class="l" points="478.62 297.63 478.26 297.48 478.11 297.11 478.11 278.83 478.26 278.46 478.62 278.3 492.74 278.3 493.11 278.46 493.26 278.83 493.26 297.11 493.11 297.48 492.74 297.63 478.62 297.63"/><line class="o" x1="493.26" y1="278.83" x2="493.26" y2="297.11"/><g class="q"><path class="o" d="M493.26,297.11a.52.52,0,0,1-.52.53"/></g><line class="o" x1="492.74" y1="297.64" x2="478.62" y2="297.64"/><g class="q"><path class="o" d="M478.62,297.64a.52.52,0,0,1-.51-.53"/></g><line class="o" x1="478.11" y1="297.11" x2="478.11" y2="278.83"/><g class="q"><path class="o" d="M478.11,278.83a.52.52,0,0,1,.51-.53"/></g><line class="o" x1="478.62" y1="278.3" x2="492.74" y2="278.3"/><g class="q"><path class="o" d="M492.74,278.3a.52.52,0,0,1,.52.53"/></g><line class="o" x1="489.47" y1="279.88" x2="489.47" y2="296.05"/><line class="o" x1="488.95" y1="296.58" x2="479.66" y2="296.58"/><line class="o" x1="479.14" y1="296.05" x2="479.14" y2="279.88"/><line class="o" x1="479.66" y1="279.36" x2="488.95" y2="279.36"/><g class="q"><path class="o" d="M489.47,296.05a.52.52,0,0,1-.52.53"/><path class="o" d="M479.66,296.58a.52.52,0,0,1-.52-.53"/><path class="o" d="M479.14,279.88a.52.52,0,0,1,.52-.52"/><path class="o" d="M489,279.36a.52.52,0,0,1,.52.52"/></g><polygon class="l" points="489.75 288.71 489.42 288.59 487.6 288.36 487.36 288.23 487.26 287.97 487.36 287.71 487.6 287.58 489.42 287.34 489.75 287.23 491.19 287.09 491.8 287.35 492.05 287.97 491.8 288.59 491.19 288.85 489.75 288.71"/><g class="q"><path class="o" d="M491.19,287.09a.88.88,0,0,1,0,1.76"/></g><line class="o" x1="489.75" y1="288.71" x2="491.19" y2="288.85"/><g class="q"><path class="o" d="M489.75,288.71a.77.77,0,0,1-.33-.12"/></g><line class="o" x1="487.6" y1="288.36" x2="489.42" y2="288.59"/><g class="q"><path class="o" d="M487.6,288.36a.39.39,0,0,1-.34-.39.38.38,0,0,1,.34-.39"/></g><line class="o" x1="489.42" y1="287.34" x2="487.6" y2="287.58"/><g class="q"><path class="o" d="M489.42,287.34a.76.76,0,0,1,.33-.11"/></g><line class="o" x1="491.19" y1="287.09" x2="489.75" y2="287.23"/><line class="o" x1="490.33" y1="288.45" x2="489.82" y2="288.45"/><line class="o" x1="489.82" y1="287.49" x2="490.33" y2="287.49"/><line class="o" x1="490.33" y1="287.49" x2="490.33" y2="288.45"/><g class="q"><path class="o" d="M489.82,288.45a.48.48,0,0,1-.47-.48.47.47,0,0,1,.47-.48"/><path class="o" d="M489.42,288.59a.76.76,0,0,1,0-1.25"/><path class="o" d="M288.37,346.51a.52.52,0,0,1,.52.52"/><path class="o" d="M288.89,361.45a.52.52,0,0,1-.52.52"/><path class="o" d="M287.34,350.37a.52.52,0,0,1,.51.53"/><path class="o" d="M287.86,360.39a.53.53,0,0,1-.52.53"/><path class="o" d="M278.56,348.61a.86.86,0,1,1,1.72,0"/><path class="o" d="M280.14,350.09a.76.76,0,0,1-.11.33"/><path class="o" d="M279.8,352.29a.39.39,0,0,1-.38.34.38.38,0,0,1-.38-.34"/><path class="o" d="M278.81,350.42a.76.76,0,0,1-.11-.33"/><path class="o" d="M279.89,350a.47.47,0,1,1-.94,0"/><path class="o" d="M280,350.42a.72.72,0,0,1-1.22,0"/></g><rect class="l" x="286.65" y="269.52" width="34.43" height="21.09"/><line class="o" x1="286.65" y1="290.62" x2="321.08" y2="290.62"/><line class="o" x1="321.08" y1="290.62" x2="321.08" y2="269.52"/><line class="o" x1="321.08" y1="269.52" x2="286.65" y2="269.52"/><line class="o" x1="286.65" y1="269.52" x2="286.65" y2="290.62"/><line class="o" x1="288.37" y1="280.07" x2="319.36" y2="280.07"/><line class="o" x1="289.97" y1="286.27" x2="292.88" y2="273.64"/><line class="o" x1="293.25" y1="286.9" x2="294.46" y2="275.15"/><line class="o" x1="297.74" y1="272.47" x2="298.73" y2="285.37"/><line class="o" x1="302.82" y1="274.16" x2="301.47" y2="285.37"/><line class="o" x1="304.67" y1="273.51" x2="304.67" y2="287.32"/><line class="o" x1="309.9" y1="273.45" x2="308.66" y2="287.1"/><line class="o" x1="311.86" y1="273.68" x2="311.86" y2="286.15"/><line class="o" x1="317.02" y1="273.56" x2="318.02" y2="286.34"/><line class="o" x1="315.78" y1="274.42" x2="314.77" y2="285.23"/><rect class="l" x="321.08" y="269.52" width="34.43" height="21.09"/><line class="o" x1="321.08" y1="290.62" x2="355.52" y2="290.62"/><line class="o" x1="355.52" y1="290.62" x2="355.52" y2="269.52"/><line class="o" x1="355.52" y1="269.52" x2="321.08" y2="269.52"/><line class="o" x1="321.08" y1="269.52" x2="321.08" y2="290.62"/><line class="o" x1="322.81" y1="280.07" x2="353.8" y2="280.07"/><line class="o" x1="324.4" y1="286.27" x2="327.32" y2="273.64"/><line class="o" x1="327.69" y1="286.9" x2="328.89" y2="275.15"/><line class="o" x1="332.17" y1="272.47" x2="333.16" y2="285.37"/><line class="o" x1="337.25" y1="274.16" x2="335.91" y2="285.37"/><line class="o" x1="339.1" y1="273.51" x2="339.1" y2="287.32"/><line class="o" x1="344.33" y1="273.45" x2="343.09" y2="287.1"/><line class="o" x1="346.29" y1="273.68" x2="346.29" y2="286.15"/><line class="o" x1="351.46" y1="273.56" x2="352.45" y2="286.34"/><line class="o" x1="350.22" y1="274.42" x2="349.21" y2="285.23"/><rect class="l" x="421.81" y="357.4" width="28.41" height="21.09"/><line class="o" x1="421.81" y1="378.49" x2="450.21" y2="378.49"/><line class="o" x1="450.21" y1="378.49" x2="450.21" y2="357.4"/><line class="o" x1="450.21" y1="357.4" x2="421.81" y2="357.4"/><line class="o" x1="421.81" y1="357.4" x2="421.81" y2="378.49"/><line class="o" x1="423.23" y1="367.95" x2="448.8" y2="367.95"/><line class="o" x1="424.54" y1="374.15" x2="426.95" y2="361.52"/><line class="o" x1="427.25" y1="374.78" x2="428.25" y2="363.03"/><line class="o" x1="430.95" y1="360.34" x2="431.77" y2="373.25"/><line class="o" x1="435.15" y1="362.04" x2="434.04" y2="373.25"/><line class="o" x1="436.67" y1="361.39" x2="436.67" y2="375.2"/><line class="o" x1="440.99" y1="361.33" x2="439.96" y2="374.98"/><line class="o" x1="442.6" y1="361.56" x2="442.6" y2="374.03"/><line class="o" x1="446.87" y1="361.43" x2="447.68" y2="374.22"/><line class="o" x1="445.84" y1="362.3" x2="445.01" y2="373.11"/><rect class="l" x="393.4" y="357.4" width="28.41" height="21.09"/><line class="o" x1="393.4" y1="378.49" x2="421.81" y2="378.49"/><line class="o" x1="421.81" y1="378.49" x2="421.81" y2="357.4"/><line class="o" x1="421.81" y1="357.4" x2="393.4" y2="357.4"/><line class="o" x1="393.4" y1="357.4" x2="393.4" y2="378.49"/><line class="o" x1="394.82" y1="367.95" x2="420.39" y2="367.95"/><line class="o" x1="396.13" y1="374.15" x2="398.54" y2="361.52"/><line class="o" x1="398.84" y1="374.78" x2="399.84" y2="363.03"/><line class="o" x1="402.54" y1="360.34" x2="403.36" y2="373.25"/><line class="o" x1="406.74" y1="362.04" x2="405.63" y2="373.25"/><line class="o" x1="408.26" y1="361.39" x2="408.26" y2="375.2"/><line class="o" x1="412.58" y1="361.33" x2="411.55" y2="374.98"/><line class="o" x1="414.2" y1="361.56" x2="414.2" y2="374.03"/><line class="o" x1="418.46" y1="361.43" x2="419.28" y2="374.22"/><line class="o" x1="417.43" y1="362.3" x2="416.6" y2="373.11"/><g class="q"><path class="o" d="M313.16,479.61a1.74,1.74,0,0,1-1.72-1.76"/><path class="o" d="M311.44,470.82a1.74,1.74,0,0,1,1.72-1.76"/><path class="o" d="M313.16,481.37a3.48,3.48,0,0,1-3.44-3.52"/><path class="o" d="M309.72,470.82a3.47,3.47,0,0,1,3.44-3.51"/><path class="o" d="M331.07,450.79a1.74,1.74,0,0,1,1.72-1.76"/><path class="o" d="M339.68,449a1.74,1.74,0,0,1,1.72,1.76"/><path class="o" d="M329.35,450.79a3.48,3.48,0,0,1,3.44-3.52"/><path class="o" d="M339.68,447.27a3.48,3.48,0,0,1,3.44,3.52"/><path class="o" d="M332.79,499.65a1.74,1.74,0,0,1-1.72-1.76"/><path class="o" d="M341.4,497.89a1.74,1.74,0,0,1-1.72,1.76"/><path class="o" d="M332.79,501.4a3.47,3.47,0,0,1-3.44-3.51"/><path class="o" d="M343.12,497.89a3.47,3.47,0,0,1-3.44,3.51"/></g><line class="o" x1="350.01" y1="460.28" x2="350.01" y2="488.4"/><polygon class="l" points="481.89 271.86 480.19 271.58 478.65 270.8 477.42 269.57 476.39 267.57 476.04 265.35 476.39 263.13 477.42 261.13 478.65 259.9 480.19 259.12 481.89 258.85 493.26 258.85 493.26 271.86 481.89 271.86"/><line class="o" x1="493.26" y1="271.85" x2="481.89" y2="271.85"/><line class="o" x1="493.26" y1="271.85" x2="493.26" y2="258.84"/><line class="o" x1="493.26" y1="258.85" x2="481.89" y2="258.85"/><line class="o" x1="489.13" y1="269.75" x2="481.89" y2="269.75"/><line class="o" x1="489.13" y1="260.96" x2="481.89" y2="260.96"/><line class="o" x1="489.13" y1="260.96" x2="489.13" y2="269.75"/><g class="q"><path class="o" d="M481.89,271.85a5.54,5.54,0,0,1-4.47-2.28"/><path class="o" d="M477.42,261.13a5.53,5.53,0,0,1,4.48-2.28"/><path class="o" d="M477.42,269.57a7.14,7.14,0,0,1,0-8.44"/><path class="o" d="M477.42,261.13a5.53,5.53,0,0,1,4.48-2.28"/><path class="o" d="M476,265.35a7.17,7.17,0,0,1,1.38-4.22"/><path class="o" d="M479.07,262.4a3.51,3.51,0,0,1,2.82-1.44"/><path class="o" d="M479.07,268.3a5,5,0,0,1,0-5.9"/><path class="o" d="M481.89,269.75a3.52,3.52,0,0,1-2.82-1.45"/><path class="o" d="M308.17,358.11a5.77,5.77,0,0,1-2.24,4.57"/><path class="o" d="M297.67,362.68a5.77,5.77,0,0,1-2.24-4.58"/><path class="o" d="M305.93,362.68a6.79,6.79,0,0,1-8.26,0"/><path class="o" d="M297.67,362.68a5.77,5.77,0,0,1-2.24-4.58"/><path class="o" d="M301.8,364.08a6.8,6.8,0,0,1-4.13-1.4"/><path class="o" d="M298.91,361a3.62,3.62,0,0,1-1.41-2.88"/><path class="o" d="M304.69,361a4.75,4.75,0,0,1-5.78,0"/><path class="o" d="M306.11,358.11a3.63,3.63,0,0,1-1.42,2.88"/></g><line class="o" x1="448.15" y1="190.96" x2="448.15" y2="210.29"/><line class="o" x1="437.56" y1="182.8" x2="437.56" y2="176.9"/><line class="o" x1="437.56" y1="176.9" x2="439.91" y2="178.84"/><line class="o" x1="439.91" y1="178.84" x2="442.26" y2="176.9"/><line class="o" x1="442.26" y1="176.9" x2="442.26" y2="182.8"/><polygon points="278.38 292.37 278.38 285.34 278.38 276.9 278.38 102.56 286.65 102.56 286.65 292.37 278.38 292.37"/><polygon points="350.01 515.59 350.01 341.23 278.39 341.23 278.39 332.8 278.39 331.04 286.65 331.04 286.65 332.8 358.27 332.8 358.27 515.59 350.01 515.59"/><polygon points="450.21 215.04 450.21 102.55 422.67 102.55 422.67 95.52 457.1 95.52 457.1 208.01 463.99 208.01 463.99 215.04 450.21 215.04"/><rect x="498.42" y="208.01" width="6.89" height="182.79"/><polygon points="457.1 208.01 457.1 95.52 420.94 95.52 420.94 88.49 433 88.49 463.99 88.49 463.99 200.98 465.71 200.98 465.71 208.01 457.1 208.01"/><polygon points="278.38 95.52 278.38 88.49 282.52 88.49 321.08 88.49 321.08 95.52 278.38 95.52"/><polygon points="433 522.62 433 515.59 450.21 515.59 450.21 383.77 463.99 383.77 463.99 390.8 457.1 390.8 457.1 522.62 433 522.62"/><rect x="278.39" y="95.52" width="40.98" height="7.03"/><polygon points="496.7 397.83 496.7 390.8 505.31 390.8 505.31 208.01 496.7 208.01 496.7 200.98 512.2 200.98 512.2 397.83 496.7 397.83"/><polygon points="354.14 529.64 350.01 529.64 350.01 522.62 365.85 522.62 365.85 529.64 354.14 529.64"/><polygon points="457.1 529.64 431.27 529.64 431.27 522.62 457.1 522.62 457.1 390.8 465.71 390.8 465.71 397.83 463.99 397.83 463.99 529.64 457.1 529.64"/><rect x="350.01" y="515.58" width="14.12" height="7.03"/><rect x="278.39" y="292.37" width="3.96" height="1.76"/><rect x="278.39" y="329.28" width="3.96" height="1.76"/><path d="M315.57,341.23h0Z"/><polygon points="402 311.71 402 302.92 404.42 302.92 404.42 306.43 498.42 306.43 498.42 308.89 404.42 308.89 404.42 311.71 402 311.71"/><polygon points="450.21 383.77 450.21 357.4 390.99 357.4 390.99 354.94 402 354.94 402 343.34 404.42 343.34 404.42 354.94 452.63 354.94 452.63 383.77 450.21 383.77"/><rect x="358.27" y="354.94" width="1.72" height="2.46"/><rect x="286.65" y="267.06" width="80.92" height="2.46"/><polygon points="402.01 274.8 402.01 269.52 398.56 269.52 398.56 267.06 402.01 267.06 402.01 243.16 433 243.16 433 245.62 404.42 245.62 404.42 274.8 402.01 274.8"/><polygon points="433 245.62 433 243.16 451.25 243.16 451.25 215.04 453.66 215.04 453.66 245.62 433 245.62"/><polygon points="429.55 243.16 429.55 211.52 450.21 211.52 450.21 215.04 433 215.04 433 243.16 429.55 243.16"/><rect x="282.52" y="35.77" width="1.38" height="52.73"/><rect x="354.14" y="529.65" width="1.38" height="52.73"/><rect x="404.42" y="245.62" width="28.58" height="2.81"/><rect x="433" y="245.62" width="20.66" height="2.81"/><line class="o" x1="278.39" y1="88.49" x2="278.39" y2="341.23"/><line class="o" x1="278.39" y1="341.23" x2="350.01" y2="341.23"/><line class="o" x1="350.01" y1="341.23" x2="350.01" y2="529.65"/><line class="o" x1="350.01" y1="529.65" x2="354.14" y2="529.65"/><line class="o" x1="354.14" y1="529.65" x2="354.14" y2="585.89"/><line class="o" x1="354.14" y1="585.89" x2="457.1" y2="585.89"/><line class="o" x1="457.1" y1="585.89" x2="457.1" y2="529.65"/><line class="o" x1="457.1" y1="529.65" x2="463.99" y2="529.65"/><line class="o" x1="463.99" y1="529.65" x2="463.99" y2="397.83"/><line class="o" x1="463.99" y1="397.83" x2="512.2" y2="397.83"/><line class="o" x1="512.2" y1="397.83" x2="512.2" y2="200.98"/><line class="o" x1="512.2" y1="200.98" x2="463.99" y2="200.98"/><line class="o" x1="463.99" y1="200.98" x2="463.99" y2="88.49"/><line class="o" x1="463.99" y1="88.49" x2="433" y2="88.49"/><line class="o" x1="433" y1="88.49" x2="433" y2="32.24"/><line class="o" x1="433" y1="32.24" x2="282.52" y2="32.24"/><line class="o" x1="282.52" y1="32.24" x2="282.52" y2="88.49"/><line class="o" x1="282.52" y1="88.49" x2="278.39" y2="88.49"/><path class="r" d="M350.59,304.07v7h-.72v-6.36h-1.65v-.64Z"/><path class="r" d="M352.27,310.57a.53.53,0,0,1,.53-.54.54.54,0,0,1,.54.54.55.55,0,0,1-.54.55A.54.54,0,0,1,352.27,310.57Z"/><path class="r" d="M354.28,307.57c0-2.23,1.17-3.56,2.79-3.56s2.79,1.33,2.79,3.56-1.18,3.56-2.79,3.56S354.28,309.8,354.28,307.57Zm4.85,0c0-1.87-.84-2.9-2.06-2.9s-2.06,1-2.06,2.9.84,2.9,2.06,2.9S359.13,309.44,359.13,307.57Z"/><path class="r" d="M362.83,304.07v7h-.72v-6.36h-1.65v-.64Z"/><path class="r" d="M350.59,211.67v7h-.72v-6.36h-1.65v-.64Z"/><path class="r" d="M352.27,218.17a.53.53,0,0,1,.53-.54.54.54,0,0,1,.54.54.55.55,0,0,1-.54.55A.54.54,0,0,1,352.27,218.17Z"/><path class="r" d="M354.28,215.17c0-2.23,1.17-3.56,2.79-3.56s2.79,1.33,2.79,3.56-1.18,3.56-2.79,3.56S354.28,217.4,354.28,215.17Zm4.85,0c0-1.87-.84-2.9-2.06-2.9s-2.06,1-2.06,2.9.84,2.9,2.06,2.9S359.13,217,359.13,215.17Z"/><path class="r" d="M365.66,218v.64h-4.9v-.51l2.91-2.85c.79-.78.94-1.25.94-1.73,0-.81-.57-1.31-1.64-1.31a2.38,2.38,0,0,0-1.91.78l-.51-.44a3.15,3.15,0,0,1,2.48-1c1.42,0,2.31.72,2.31,1.89a2.9,2.9,0,0,1-1.14,2.19L361.82,218Z"/><path class="r" d="M435.16,275.05v7h-.72v-6.36h-1.65v-.64Z"/><path class="r" d="M436.84,281.55a.53.53,0,0,1,.53-.54.54.54,0,0,1,.54.54.55.55,0,0,1-.54.55A.54.54,0,0,1,436.84,281.55Z"/><path class="r" d="M438.85,278.55c0-2.23,1.17-3.56,2.79-3.56s2.79,1.33,2.79,3.56-1.17,3.56-2.79,3.56S438.85,280.78,438.85,278.55Zm4.84,0c0-1.87-.83-2.9-2.05-2.9s-2.06,1-2.06,2.9.84,2.9,2.06,2.9S443.69,280.42,443.69,278.55Z"/><path class="r" d="M450,280c0,1.17-.85,2.07-2.54,2.07a3.64,3.64,0,0,1-2.52-.9l.35-.57a3.07,3.07,0,0,0,2.17.81c1.16,0,1.79-.54,1.79-1.41s-.59-1.39-1.88-1.39h-.5v-.53l1.94-2.43h-3.58v-.64h4.49v.51l-2,2.49C449.26,278.13,450,278.92,450,280Z"/><path class="r" d="M435.16,328.94v7h-.72v-6.36h-1.65v-.64Z"/><path class="r" d="M436.84,335.44a.53.53,0,0,1,.53-.54.54.54,0,0,1,.54.54.55.55,0,0,1-.54.55A.54.54,0,0,1,436.84,335.44Z"/><path class="r" d="M438.85,332.44c0-2.23,1.17-3.56,2.79-3.56s2.79,1.33,2.79,3.56-1.17,3.56-2.79,3.56S438.85,334.67,438.85,332.44Zm4.84,0c0-1.87-.83-2.9-2.05-2.9s-2.06,1-2.06,2.9.84,2.9,2.06,2.9S443.69,334.31,443.69,332.44Z"/><path class="r" d="M451.41,334.1H450v1.84h-.71V334.1h-3.95v-.52l3.7-4.64h.8l-3.57,4.52h3v-1.62h.7v1.62h1.4Z"/><path class="r" d="M350.59,58.53v7h-.72V59.17h-1.65v-.64Z"/><path class="r" d="M352.27,65a.53.53,0,0,1,.53-.54.54.54,0,0,1,.54.54.55.55,0,0,1-.54.55A.54.54,0,0,1,352.27,65Z"/><path class="r" d="M354.28,62c0-2.23,1.17-3.56,2.79-3.56s2.79,1.33,2.79,3.56-1.18,3.56-2.79,3.56S354.28,64.26,354.28,62Zm4.85,0c0-1.87-.84-2.9-2.06-2.9S355,60.16,355,62s.84,2.9,2.06,2.9S359.13,63.9,359.13,62Z"/><path class="r" d="M366.15,63.44a2.17,2.17,0,0,1-2.38,2.15c-1.86,0-2.87-1.29-2.87-3.5,0-2.38,1.3-3.62,3.2-3.62a3.26,3.26,0,0,1,1.66.38l-.29.58a2.48,2.48,0,0,0-1.36-.33c-1.51,0-2.48,1-2.48,2.87,0,.16,0,.36,0,.57a2.24,2.24,0,0,1,2.14-1.2A2.12,2.12,0,0,1,366.15,63.44Zm-.71,0c0-.92-.68-1.51-1.75-1.51a1.62,1.62,0,0,0-1.8,1.53c0,.77.64,1.5,1.85,1.5A1.52,1.52,0,0,0,365.44,63.46Z"/><path class="r" d="M384.7,553.4v7H384V554h-1.65v-.64Z"/><path class="r" d="M386.38,559.9a.53.53,0,0,1,.53-.54.54.54,0,0,1,.54.54.55.55,0,0,1-.54.55A.54.54,0,0,1,386.38,559.9Z"/><path class="r" d="M388.39,556.9c0-2.23,1.17-3.56,2.79-3.56s2.79,1.33,2.79,3.56-1.17,3.56-2.79,3.56S388.39,559.13,388.39,556.9Zm4.84,0c0-1.87-.84-2.9-2.05-2.9s-2.06,1-2.06,2.9.84,2.9,2.06,2.9S393.23,558.77,393.23,556.9Z"/><path class="r" d="M400.26,558.31a2.18,2.18,0,0,1-2.38,2.15c-1.86,0-2.87-1.29-2.87-3.5,0-2.38,1.3-3.62,3.2-3.62a3.17,3.17,0,0,1,1.65.38l-.29.58a2.4,2.4,0,0,0-1.35-.33c-1.51,0-2.48,1-2.48,2.87,0,.16,0,.36,0,.57a2.24,2.24,0,0,1,2.14-1.2A2.11,2.11,0,0,1,400.26,558.31Zm-.71,0c0-.92-.67-1.51-1.75-1.51a1.62,1.62,0,0,0-1.8,1.53c0,.77.64,1.5,1.85,1.5A1.52,1.52,0,0,0,399.55,558.33Z"/><path class="r" d="M384.7,393.12v7H384v-6.36h-1.65v-.64Z"/><path class="r" d="M386.38,399.62a.53.53,0,0,1,.53-.54.54.54,0,0,1,.54.54.55.55,0,0,1-.54.55A.54.54,0,0,1,386.38,399.62Z"/><path class="r" d="M388.39,396.62c0-2.23,1.17-3.56,2.79-3.56s2.79,1.33,2.79,3.56-1.17,3.56-2.79,3.56S388.39,398.85,388.39,396.62Zm4.84,0c0-1.87-.84-2.9-2.05-2.9s-2.06,1-2.06,2.9.84,2.9,2.06,2.9S393.23,398.49,393.23,396.62Z"/><path class="r" d="M399.76,398.06c0,1.19-.84,2.12-2.54,2.12a3.61,3.61,0,0,1-2.51-.9l.35-.57a3,3,0,0,0,2.15.81c1.19,0,1.82-.58,1.82-1.43s-.56-1.46-2.34-1.46H395.2l.36-3.51h3.82v.64h-3.19L396,396h.9C399,396,399.76,396.82,399.76,398.06Z"/></svg>