<svg xmlns="http://www.w3.org/2000/svg" xmlns:xlink="http://www.w3.org/1999/xlink" viewBox="0 0 790.58 618.13"><defs><style>.a,.f{fill:none;}.b{fill:#595a5c;}.c{fill:#b6906c;}.d{fill:#fff;}.e{fill:#231f20;}.f{stroke:#000;stroke-linecap:round;stroke-linejoin:round;stroke-width:0.35px;}.g{clip-path:url(#a);}.h{fill:#58595b;}</style><clipPath id="a"><polygon class="a" points="261.92 184.47 261.92 239.86 257.94 239.86 257.94 433.65 532.64 433.65 532.64 239.86 528.84 239.86 528.84 184.47 261.92 184.47"/></clipPath></defs><path class="b" d="M55.31,597.13H57.1V609.9H55.31Zm.92,6.11h4.09a1.89,1.89,0,0,0,1-.27,1.82,1.82,0,0,0,.68-.77,2.67,2.67,0,0,0,.24-1.16,2.7,2.7,0,0,0-.24-1.16,1.82,1.82,0,0,0-1.7-1H56.23v-1.7h4a4.09,4.09,0,0,1,2,.48A3.45,3.45,0,0,1,63.62,599a4.64,4.64,0,0,1,0,4.11,3.34,3.34,0,0,1-1.35,1.36,4,4,0,0,1-2,.49h-4Z"/><path class="b" d="M67.7,606.33a2.07,2.07,0,0,0,.49,1.48,1.76,1.76,0,0,0,1.37.52,1.89,1.89,0,0,0,1.37-.46,1.79,1.79,0,0,0,.48-1.33l.12,1.91A2.58,2.58,0,0,1,69.06,610a2.89,2.89,0,0,1-2.33-1,4.08,4.08,0,0,1-.82-2.73v-5.55H67.7Zm.22-7.86a1.93,1.93,0,0,1-.56-1.5,2.07,2.07,0,0,1,.56-1.57,2.56,2.56,0,0,1,3.18,0,2.08,2.08,0,0,1,.57,1.56,1.94,1.94,0,0,1-.57,1.5,2.65,2.65,0,0,1-3.18,0Zm2.26-.86a.94.94,0,0,0,.24-.68,1,1,0,0,0-.24-.7.91.91,0,0,0-.67-.25.92.92,0,0,0-.67.25,1,1,0,0,0-.23.7,1,1,0,0,0,.23.68.92.92,0,0,0,.67.24A.9.9,0,0,0,70.18,597.61Zm1.23,3.17h1.78v9.12H71.41Z"/><path class="b" d="M77.1,609.63A2.82,2.82,0,0,1,76,608.36a5.08,5.08,0,0,1-.36-2v-2a5.05,5.05,0,0,1,.36-2,2.71,2.71,0,0,1,1-1.27,3,3,0,0,1,1.65-.44,2.71,2.71,0,0,1,1.48.42,3.22,3.22,0,0,1,1.09,1.19l-.18,1.86a2.19,2.19,0,0,0-.22-1,1.48,1.48,0,0,0-.61-.63,2,2,0,0,0-1-.21,1.71,1.71,0,0,0-1.37.55,2.26,2.26,0,0,0-.49,1.56v2a2.19,2.19,0,0,0,.49,1.54,1.74,1.74,0,0,0,1.37.54,1.93,1.93,0,0,0,1-.23,1.45,1.45,0,0,0,.61-.64,2.25,2.25,0,0,0,.22-1l.12,1.92a2.66,2.66,0,0,1-.89,1.14,2.56,2.56,0,0,1-1.53.45A3.19,3.19,0,0,1,77.1,609.63Zm4-12.5H82.9V609.9H81.11Z"/><path class="b" d="M87.09,609.57a3.09,3.09,0,0,1-1.29-1.36,4.85,4.85,0,0,1-.44-2.15v-1.48a4.71,4.71,0,0,1,.44-2.12,3.12,3.12,0,0,1,1.29-1.35,4.71,4.71,0,0,1,4.06,0,3.12,3.12,0,0,1,1.29,1.35,4.71,4.71,0,0,1,.44,2.12v1.51a4.79,4.79,0,0,1-.44,2.13,3.12,3.12,0,0,1-1.29,1.35,4.62,4.62,0,0,1-4.06,0Zm3.49-1.83a2.43,2.43,0,0,0,.51-1.65v-1.51a2.43,2.43,0,0,0-.51-1.65,1.88,1.88,0,0,0-1.46-.58,1.85,1.85,0,0,0-1.45.58,2.38,2.38,0,0,0-.52,1.65v1.51a2.38,2.38,0,0,0,.52,1.65,1.82,1.82,0,0,0,1.45.59A1.85,1.85,0,0,0,90.58,607.74Z"/><path class="b" d="M95.43,600.78h1.79v9.12H95.43Zm4.42,1.72a2.16,2.16,0,0,0-.83-.15,1.83,1.83,0,0,0-1.33.47,1.79,1.79,0,0,0-.47,1.31L97,602.37a3.32,3.32,0,0,1,1.09-1.27,2.58,2.58,0,0,1,1.48-.45,3.39,3.39,0,0,1,1.13.18,2.62,2.62,0,0,1,.88.53l-1.17,1.58A1.56,1.56,0,0,0,99.85,602.5Z"/><path class="b" d="M102.15,600.78H104l2.81,7.93-1,1.94Zm8.07,0L106.34,612a2.6,2.6,0,0,1-.56,1,1.87,1.87,0,0,1-.84.52,4,4,0,0,1-1.23.16h-.36V612h.36a1.46,1.46,0,0,0,.8-.2,1.74,1.74,0,0,0,.51-.7l3.38-10.31Z"/><path class="b" d="M113.51,609.88a5.76,5.76,0,0,1-1.32-.48,4.89,4.89,0,0,1-1.13-.79l1.06-1.31a5.86,5.86,0,0,0,1.47.85,4.18,4.18,0,0,0,1.44.28,3.11,3.11,0,0,0,1.6-.33,1.1,1.1,0,0,0,.53-1,.79.79,0,0,0-.29-.66,1.66,1.66,0,0,0-.72-.29c-.29,0-.69-.1-1.22-.14h-.15l-.14,0h-.15a6.45,6.45,0,0,1-1.5-.26,2,2,0,0,1-1-.7,2.38,2.38,0,0,1-.41-1.49,3.07,3.07,0,0,1,.39-1.61,2.41,2.41,0,0,1,1.18-1,5.29,5.29,0,0,1,2-.32,6.38,6.38,0,0,1,2.6.52,6.16,6.16,0,0,1,1.13.66l-1.08,1.31a5.59,5.59,0,0,0-1.35-.66,4,4,0,0,0-1.3-.22,2.44,2.44,0,0,0-1.37.31,1.08,1.08,0,0,0-.46.94.64.64,0,0,0,.26.55,1.72,1.72,0,0,0,.66.25c.26,0,.64.07,1.12.1h.34a7.67,7.67,0,0,1,1.63.25,2.24,2.24,0,0,1,1.13.77,2.62,2.62,0,0,1,.45,1.65,2.92,2.92,0,0,1-.42,1.63,2.54,2.54,0,0,1-1.27,1A5.88,5.88,0,0,1,115,610,7.38,7.38,0,0,1,113.51,609.88Z"/><path class="b" d="M126,597.13h1.8V609.9H126Zm2.6,12.5a2.39,2.39,0,0,1-.93-1.16l.13-1.91a2.22,2.22,0,0,0,.21,1,1.48,1.48,0,0,0,.61.63,1.93,1.93,0,0,0,1,.22,1.74,1.74,0,0,0,1.37-.54,2.18,2.18,0,0,0,.49-1.53v-2a2.26,2.26,0,0,0-.49-1.56,1.71,1.71,0,0,0-1.37-.55,2,2,0,0,0-1,.21,1.36,1.36,0,0,0-.61.62,2.12,2.12,0,0,0-.21,1l-.19-1.76a3.37,3.37,0,0,1,1.08-1.24,2.67,2.67,0,0,1,1.49-.43,3,3,0,0,1,1.65.43,2.9,2.9,0,0,1,1.06,1.27,5.1,5.1,0,0,1,.36,2v2a4.94,4.94,0,0,1-.37,2,2.79,2.79,0,0,1-1.08,1.26,3.25,3.25,0,0,1-1.71.44A2.73,2.73,0,0,1,128.57,609.63Z"/><path class="b" d="M134.46,600.78h1.82l2.81,7.93-1,1.94Zm8.07,0L138.65,612a2.6,2.6,0,0,1-.56,1,1.87,1.87,0,0,1-.84.52,4,4,0,0,1-1.23.16h-.36V612H136a1.46,1.46,0,0,0,.8-.2,1.74,1.74,0,0,0,.51-.7l3.37-10.31Z"/><path class="b" d="M143.57,600.78h4.12v1.62h-4.12Zm1.46,8.56a2.77,2.77,0,0,1-.52-1.81v-9.4h1.8v9.42a.84.84,0,0,0,.13.51.46.46,0,0,0,.39.18h.86V610h-1A2,2,0,0,1,145,609.34Z"/><path class="b" d="M151.94,606.33a2.07,2.07,0,0,0,.49,1.48,1.76,1.76,0,0,0,1.37.52,1.91,1.91,0,0,0,1.37-.46,1.79,1.79,0,0,0,.48-1.33l.12,1.91A2.58,2.58,0,0,1,153.3,610a2.89,2.89,0,0,1-2.33-1,4.08,4.08,0,0,1-.82-2.73v-5.55h1.79Zm3.71-5.55h1.78v9.12h-1.78Z"/><rect class="c" x="612.92" y="591.68" width="35.43" height="2.83"/><path class="d" d="M648.48,594.64H612.79v-3.08h35.69ZM613,594.39h35.19v-2.58H613Z"/><rect class="c" x="612.92" y="601.6" width="70.74" height="2.83"/><path class="d" d="M683.78,604.56h-71v-3.08h71ZM613,604.31h70.49v-2.58H613Z"/><rect class="c" x="612.92" y="612.72" width="177.16" height="2.84"/><path class="d" d="M790.21,615.68H612.79V612.6H790.21ZM613,615.43H790v-2.58H613Z"/><path class="e" d="M587.26,596.28h-.8v-4.82l-.81.5v-.83l.81-.53h.8Z"/><path class="e" d="M589,595.91a1.67,1.67,0,0,1-.41-1.19v-2.58A1.65,1.65,0,0,1,589,591a2,2,0,0,1,2.42,0,1.65,1.65,0,0,1,.41,1.19v2.58a1.65,1.65,0,0,1-.41,1.19,2,2,0,0,1-2.42,0Zm1.83-.55a.89.89,0,0,0,.2-.64v-2.58a.89.89,0,0,0-.2-.64.82.82,0,0,0-.62-.22.86.86,0,0,0-.63.22.94.94,0,0,0-.2.64v2.58a.9.9,0,0,0,.21.64,1,1,0,0,0,1.24,0Z"/><path class="e" d="M593.22,595.91a1.67,1.67,0,0,1-.41-1.19v-2.58a1.65,1.65,0,0,1,.41-1.19,2,2,0,0,1,2.42,0,1.61,1.61,0,0,1,.41,1.19v2.58a1.65,1.65,0,0,1-.41,1.19,2,2,0,0,1-2.42,0Zm1.83-.55a.9.9,0,0,0,.21-.64v-2.58a.94.94,0,0,0-.2-.64.86.86,0,0,0-.63-.22.82.82,0,0,0-.62.22.89.89,0,0,0-.2.64v2.58a.89.89,0,0,0,.2.64,1,1,0,0,0,1.24,0Z"/><path class="e" d="M600.1,596.13a1.45,1.45,0,0,1-.6-.6,2.06,2.06,0,0,1-.21-1v-.67a2,2,0,0,1,.21-.94,1.37,1.37,0,0,1,.6-.59,2,2,0,0,1,.95-.21,2.21,2.21,0,0,1,.59.08,1.68,1.68,0,0,1,.51.22,1.54,1.54,0,0,1,.37.35l-.58.52a1.17,1.17,0,0,0-.4-.3,1.13,1.13,0,0,0-.48-.11.94.94,0,0,0-.71.26,1,1,0,0,0-.26.72v.67a1,1,0,0,0,.25.74.94.94,0,0,0,.72.27,1,1,0,0,0,.48-.12,1,1,0,0,0,.4-.32l.58.56a1.38,1.38,0,0,1-.38.34,1.62,1.62,0,0,1-.5.22,2.27,2.27,0,0,1-.59.07A2.12,2.12,0,0,1,600.1,596.13Z"/><path class="e" d="M603.4,592.22h.79v4.06h-.79Zm2.42,1.6a1,1,0,0,0-.21-.67.78.78,0,0,0-.6-.23.81.81,0,0,0-.6.21.73.73,0,0,0-.22.58l-.08-.78a1.46,1.46,0,0,1,.49-.57,1.22,1.22,0,0,1,.67-.2,1.33,1.33,0,0,1,.73.2,1.18,1.18,0,0,1,.46.56,2.4,2.4,0,0,1,.15.89v2.47h-.79Zm2.42,0a.93.93,0,0,0-.22-.67.85.85,0,0,0-.63-.23.72.72,0,0,0-.57.23.9.9,0,0,0-.21.64l-.16-.78a1.61,1.61,0,0,1,.51-.63,1.23,1.23,0,0,1,.69-.22,1.37,1.37,0,0,1,.75.2,1.09,1.09,0,0,1,.47.56,2.21,2.21,0,0,1,.17.89v2.47h-.8Z"/><path class="e" d="M584.33,605.5l2-2.64a1.85,1.85,0,0,0,.27-.47,1.29,1.29,0,0,0,.09-.45h0a.67.67,0,0,0-.2-.53.81.81,0,0,0-.56-.19.76.76,0,0,0-.56.21,1,1,0,0,0-.27.58h-.82a2,2,0,0,1,.29-.83,1.42,1.42,0,0,1,.56-.53,1.67,1.67,0,0,1,.79-.18,1.93,1.93,0,0,1,.87.17,1.21,1.21,0,0,1,.54.51,1.55,1.55,0,0,1,.19.8h0a1.84,1.84,0,0,1-.12.63,2.8,2.8,0,0,1-.35.63l-1.65,2.24h2.15v.76h-3.2Z"/><path class="e" d="M589,605.83a1.67,1.67,0,0,1-.41-1.19v-2.58a1.65,1.65,0,0,1,.41-1.19,2,2,0,0,1,2.42,0,1.65,1.65,0,0,1,.41,1.19v2.58a1.65,1.65,0,0,1-.41,1.19,2,2,0,0,1-2.42,0Zm1.83-.55a.89.89,0,0,0,.2-.64v-2.58a.89.89,0,0,0-.2-.64.82.82,0,0,0-.62-.22.86.86,0,0,0-.63.22.94.94,0,0,0-.19.64v2.58a.89.89,0,0,0,.2.64,1,1,0,0,0,1.24,0Z"/><path class="e" d="M593.22,605.83a1.67,1.67,0,0,1-.41-1.19v-2.58a1.61,1.61,0,0,1,.42-1.19,1.59,1.59,0,0,1,1.2-.42,1.45,1.45,0,0,1,1.62,1.61v2.58a1.61,1.61,0,0,1-.41,1.19,2,2,0,0,1-2.42,0Zm1.84-.55a.94.94,0,0,0,.2-.64v-2.58a.94.94,0,0,0-.2-.64.84.84,0,0,0-.63-.22.82.82,0,0,0-.62.22.89.89,0,0,0-.2.64v2.58a.89.89,0,0,0,.2.64.82.82,0,0,0,.62.22A.86.86,0,0,0,595.06,605.28Z"/><path class="e" d="M600.1,606.05a1.45,1.45,0,0,1-.6-.6,2.06,2.06,0,0,1-.2-1v-.67a2,2,0,0,1,.2-.94,1.37,1.37,0,0,1,.6-.59,2,2,0,0,1,.95-.21,2.35,2.35,0,0,1,.6.08,1.73,1.73,0,0,1,.5.22,1.38,1.38,0,0,1,.37.35l-.58.52a1.08,1.08,0,0,0-.4-.3,1.13,1.13,0,0,0-.48-.11,1,1,0,0,0-.71.26,1,1,0,0,0-.26.72v.67a1,1,0,0,0,.25.74.94.94,0,0,0,.72.27,1.14,1.14,0,0,0,.88-.44l.58.56a1.38,1.38,0,0,1-.38.34,1.62,1.62,0,0,1-.5.22,2.22,2.22,0,0,1-.59.07A2.12,2.12,0,0,1,600.1,606.05Z"/><path class="e" d="M603.4,602.14h.79v4.06h-.79Zm2.42,1.6a1,1,0,0,0-.21-.67.78.78,0,0,0-.6-.23.81.81,0,0,0-.6.21.73.73,0,0,0-.22.58l-.08-.78a1.46,1.46,0,0,1,.49-.57,1.22,1.22,0,0,1,.67-.2,1.3,1.3,0,0,1,.73.2,1.18,1.18,0,0,1,.46.56,2.4,2.4,0,0,1,.16.89v2.47h-.8Zm2.42,0a.93.93,0,0,0-.22-.67.85.85,0,0,0-.63-.23.73.73,0,0,0-.57.23.89.89,0,0,0-.2.64l-.16-.78a1.51,1.51,0,0,1,.5-.63,1.23,1.23,0,0,1,.69-.22,1.35,1.35,0,0,1,.75.2,1.16,1.16,0,0,1,.48.56,2.4,2.4,0,0,1,.16.89v2.47h-.8Z"/><path class="e" d="M585,615.58a1.34,1.34,0,0,1-.54-.49,2,2,0,0,1-.28-.77h.8a.75.75,0,0,0,.25.49.85.85,0,0,0,.54.17.72.72,0,0,0,.59-.25,1.1,1.1,0,0,0,.21-.72v-.48a1.1,1.1,0,0,0-.21-.72.72.72,0,0,0-.59-.25.83.83,0,0,0-.4.11,1.18,1.18,0,0,0-.34.33h-.72v-3h2.89v.76h-2.1V612a1,1,0,0,1,.34-.18.94.94,0,0,1,.37-.07,1.68,1.68,0,0,1,.84.2,1.29,1.29,0,0,1,.53.6,2.07,2.07,0,0,1,.19.94V614a2.25,2.25,0,0,1-.19.94,1.31,1.31,0,0,1-.55.59,1.69,1.69,0,0,1-.86.21A1.74,1.74,0,0,1,585,615.58Z"/><path class="e" d="M589,615.32a1.65,1.65,0,0,1-.41-1.19v-2.58a1.67,1.67,0,0,1,.41-1.19,2,2,0,0,1,2.42,0,1.65,1.65,0,0,1,.41,1.19v2.58a1.64,1.64,0,0,1-.41,1.19,1.92,1.92,0,0,1-2.42,0Zm1.83-.55a.89.89,0,0,0,.2-.64v-2.58a.88.88,0,0,0-.2-.63.78.78,0,0,0-.62-.22.82.82,0,0,0-.63.22.93.93,0,0,0-.2.63v2.58a.9.9,0,0,0,.21.64,1,1,0,0,0,1.24,0Z"/><path class="e" d="M593.22,615.32a1.65,1.65,0,0,1-.41-1.19v-2.58a1.67,1.67,0,0,1,.41-1.19,2,2,0,0,1,2.42,0,1.61,1.61,0,0,1,.41,1.19v2.58a1.64,1.64,0,0,1-.41,1.19,1.92,1.92,0,0,1-2.42,0Zm1.83-.55a.9.9,0,0,0,.21-.64v-2.58a.93.93,0,0,0-.2-.63.82.82,0,0,0-.63-.22.78.78,0,0,0-.62.22.88.88,0,0,0-.2.63v2.58a.89.89,0,0,0,.2.64,1,1,0,0,0,1.24,0Z"/><path class="e" d="M600.1,615.54a1.45,1.45,0,0,1-.6-.6,2,2,0,0,1-.21-1v-.67a2,2,0,0,1,.21-.94,1.45,1.45,0,0,1,.6-.6,2,2,0,0,1,.95-.2,2.22,2.22,0,0,1,.59.07,2,2,0,0,1,.51.22,1.76,1.76,0,0,1,.37.35l-.58.52a1.17,1.17,0,0,0-.4-.3,1.13,1.13,0,0,0-.48-.11.94.94,0,0,0-.71.26,1,1,0,0,0-.26.73V614a1.07,1.07,0,0,0,.25.74,1,1,0,0,0,.72.26,1.13,1.13,0,0,0,.48-.11,1.26,1.26,0,0,0,.4-.32l.58.55a1.42,1.42,0,0,1-.38.35,1.88,1.88,0,0,1-.5.21,2.27,2.27,0,0,1-.59.08A2,2,0,0,1,600.1,615.54Z"/><path class="e" d="M603.4,611.63h.79v4.06h-.79Zm2.42,1.6a1,1,0,0,0-.21-.66.75.75,0,0,0-.6-.24.81.81,0,0,0-.6.21.75.75,0,0,0-.22.58l-.08-.78a1.5,1.5,0,0,1,.49-.56,1.15,1.15,0,0,1,.67-.2,1.32,1.32,0,0,1,.73.19,1.28,1.28,0,0,1,.46.56,2.42,2.42,0,0,1,.15.9v2.46h-.79Zm2.42,0a.91.91,0,0,0-.22-.66.82.82,0,0,0-.63-.24.72.72,0,0,0-.57.23.9.9,0,0,0-.21.64l-.16-.78a1.51,1.51,0,0,1,.51-.62,1.16,1.16,0,0,1,.69-.22,1.37,1.37,0,0,1,.75.19,1.18,1.18,0,0,1,.47.56,2.22,2.22,0,0,1,.17.9v2.46h-.8Z"/><path class="c" d="M23.49,613.89A12.92,12.92,0,1,1,36.4,601,12.93,12.93,0,0,1,23.49,613.89Zm0-24.83A11.92,11.92,0,1,0,35.4,601,11.93,11.93,0,0,0,23.49,589.06Z"/><polygon class="d" points="35.77 588.74 9.42 600.98 35.77 613.21 32.02 600.98 35.77 588.74"/><path class="c" d="M36.58,614.14,8.23,601l28.35-13.17-4,13.17ZM10.61,601,35,612.29,31.5,601,35,589.66Z"/><path class="c" d="M2.52,605.19a5,5,0,0,1-1.11-.38,4.4,4.4,0,0,1-1-.64l.81-1a3.72,3.72,0,0,0,1.16.69,4.08,4.08,0,0,0,1.38.23,2.73,2.73,0,0,0,1.55-.38,1.17,1.17,0,0,0,.55-1.05h0a1.12,1.12,0,0,0-.25-.77,1.44,1.44,0,0,0-.64-.42,8.23,8.23,0,0,0-1-.25H3.89l-.1,0a9.48,9.48,0,0,1-1.5-.36,2.08,2.08,0,0,1-1-.73,2.42,2.42,0,0,1-.41-1.51h0a2.77,2.77,0,0,1,.38-1.47,2.44,2.44,0,0,1,1.12-.92,4.48,4.48,0,0,1,1.77-.32,4.6,4.6,0,0,1,1,.11,4.9,4.9,0,0,1,1.86.86l-.73,1a4.61,4.61,0,0,0-1-.58,3,3,0,0,0-1.06-.2,2.44,2.44,0,0,0-1.46.38,1.24,1.24,0,0,0-.53,1.07h0a1,1,0,0,0,.27.75,1.74,1.74,0,0,0,.67.4,9.3,9.3,0,0,0,1.12.27h.24a7.93,7.93,0,0,1,1.4.41,2.22,2.22,0,0,1,.94.76,2.4,2.4,0,0,1,.38,1.43h0a2.62,2.62,0,0,1-.4,1.45,2.54,2.54,0,0,1-1.16.91,4.8,4.8,0,0,1-1.83.31A6.44,6.44,0,0,1,2.52,605.19Z"/><rect class="c" x="612.5" y="600.68" width="1" height="4.68"/><rect class="c" x="612.5" y="590.76" width="1" height="4.68"/><rect class="c" x="612.5" y="611.45" width="1" height="5.24"/><rect class="c" x="789.58" y="611.45" width="1" height="5.24"/><rect class="c" x="682.59" y="600.68" width="1" height="4.68"/><rect class="c" x="647.3" y="590.76" width="1" height="4.68"/><rect class="a" width="790.34" height="618.13"/><line class="f" x1="257.95" y1="239.86" x2="260.54" y2="239.86"/><line class="f" x1="527.11" y1="187.95" x2="263.3" y2="187.95"/><line class="f" x1="527.11" y1="239.86" x2="527.11" y2="187.95"/><line class="f" x1="470.96" y1="239.86" x2="527.11" y2="239.86"/><line class="f" x1="470.96" y1="243.32" x2="470.96" y2="239.86"/><line class="f" x1="439.86" y1="243.32" x2="470.96" y2="243.32"/><line class="f" x1="439.86" y1="239.86" x2="439.86" y2="243.32"/><line class="f" x1="371.62" y1="239.86" x2="439.86" y2="239.86"/><line class="f" x1="371.62" y1="243.32" x2="371.62" y2="239.86"/><line class="f" x1="340.53" y1="243.32" x2="371.62" y2="243.32"/><line class="f" x1="340.53" y1="239.86" x2="340.53" y2="243.32"/><line class="f" x1="263.3" y1="239.86" x2="340.53" y2="239.86"/><line class="f" x1="263.3" y1="187.95" x2="263.3" y2="239.86"/><line class="f" x1="529.87" y1="239.86" x2="532.64" y2="239.86"/><rect class="d" x="492.38" y="372.57" width="31.1" height="31.15"/><line class="f" x1="492.38" y1="372.57" x2="492.38" y2="403.72"/><line class="f" x1="523.48" y1="372.57" x2="492.38" y2="372.57"/><line class="f" x1="523.48" y1="403.72" x2="523.48" y2="372.57"/><line class="f" x1="492.38" y1="403.72" x2="523.48" y2="403.72"/><rect class="d" x="373" y="407.7" width="21.08" height="17.65"/><line class="f" x1="373.01" y1="407.7" x2="373.01" y2="425.35"/><line class="f" x1="394.08" y1="407.7" x2="373" y2="407.7"/><line class="f" x1="394.08" y1="425.35" x2="394.08" y2="407.7"/><line class="f" x1="373.01" y1="425.35" x2="394.08" y2="425.35"/><polygon class="d" points="266.24 425.35 266.24 404.58 266.24 341.94 287.32 341.94 287.32 404.24 341.22 404.24 341.22 425.35 266.24 425.35"/><line class="f" x1="266.24" y1="404.58" x2="266.24" y2="425.35"/><line class="f" x1="266.24" y1="341.94" x2="266.24" y2="404.58"/><line class="f" x1="287.32" y1="341.94" x2="266.24" y2="341.94"/><line class="f" x1="287.32" y1="404.24" x2="287.32" y2="341.94"/><line class="f" x1="341.22" y1="404.24" x2="287.32" y2="404.24"/><line class="f" x1="341.22" y1="425.35" x2="341.22" y2="404.24"/><line class="f" x1="266.24" y1="425.35" x2="341.22" y2="425.35"/><line class="f" x1="532.64" y1="404.58" x2="532.64" y2="404.58"/><line class="f" x1="432.78" y1="433.65" x2="434.51" y2="433.65"/><line class="f" x1="266.24" y1="425.35" x2="341.22" y2="425.35"/><line class="f" x1="344.67" y1="425.35" x2="370.59" y2="425.35"/><line class="f" x1="373.01" y1="425.35" x2="394.77" y2="425.35"/><line class="f" x1="432.78" y1="425.35" x2="435.2" y2="425.35"/><line class="f" x1="435.2" y1="425.35" x2="493.25" y2="425.35"/><line class="f" x1="496.7" y1="425.35" x2="524.34" y2="425.35"/><line class="f" x1="435.2" y1="420.15" x2="493.25" y2="420.15"/><line class="f" x1="257.95" y1="239.86" x2="261.92" y2="239.86"/><line class="f" x1="261.92" y1="239.86" x2="285.24" y2="239.86"/><line class="f" x1="371.62" y1="239.86" x2="439.86" y2="239.86"/><line class="f" x1="266.24" y1="253.7" x2="283.51" y2="253.7"/><line class="f" x1="373.35" y1="253.7" x2="394.08" y2="253.7"/><line class="f" x1="396.5" y1="253.7" x2="438.14" y2="253.7"/><line class="f" x1="257.95" y1="246.78" x2="283.51" y2="246.78"/><line class="f" x1="373.35" y1="246.78" x2="438.14" y2="246.78"/><line class="f" x1="266.24" y1="253.7" x2="266.24" y2="425.35"/><line class="f" x1="532.64" y1="253.7" x2="532.64" y2="365.82"/><line class="f" x1="524.34" y1="253.7" x2="524.34" y2="369.28"/><line class="f" x1="524.34" y1="371.71" x2="524.34" y2="404.58"/><line class="f" x1="524.34" y1="408.04" x2="524.34" y2="425.35"/><line class="f" x1="396.5" y1="253.7" x2="396.5" y2="369.28"/><line class="f" x1="394.08" y1="253.7" x2="394.08" y2="369.28"/><line class="f" x1="493.25" y1="404.58" x2="493.25" y2="408.04"/><line class="f" x1="493.25" y1="404.58" x2="524.35" y2="404.58"/><line class="f" x1="496.7" y1="408.04" x2="524.34" y2="408.04"/><line class="f" x1="524.34" y1="371.71" x2="435.2" y2="371.71"/><line class="f" x1="524.34" y1="369.28" x2="429.33" y2="369.28"/><line class="f" x1="435.2" y1="371.71" x2="435.2" y2="373.44"/><line class="f" x1="435.2" y1="401.12" x2="435.2" y2="425.35"/><line class="f" x1="432.78" y1="371.71" x2="432.78" y2="373.44"/><line class="f" x1="432.78" y1="401.12" x2="432.78" y2="425.35"/><line class="f" x1="373.01" y1="404.58" x2="373.01" y2="425.35"/><line class="f" x1="370.59" y1="369.28" x2="370.59" y2="373.44"/><line class="f" x1="370.59" y1="411.5" x2="370.59" y2="425.35"/><line class="f" x1="341.22" y1="408.04" x2="341.22" y2="425.35"/><line class="f" x1="344.67" y1="411.5" x2="344.67" y2="425.35"/><line class="f" x1="432.78" y1="401.12" x2="435.2" y2="401.12"/><line class="f" x1="432.78" y1="373.44" x2="435.2" y2="373.44"/><line class="f" x1="432.78" y1="371.71" x2="429.33" y2="371.71"/><line class="f" x1="429.33" y1="371.71" x2="429.33" y2="369.28"/><line class="f" x1="398.23" y1="371.71" x2="398.23" y2="369.28"/><line class="f" x1="398.23" y1="369.28" x2="396.5" y2="369.28"/><line class="f" x1="429.33" y1="429.67" x2="398.23" y2="429.67"/><line class="f" x1="429.33" y1="429.67" x2="429.33" y2="398.53"/><g class="g"><path class="f" d="M398.23,429.67a31.12,31.12,0,0,1,31.1-31.14"/></g><line class="f" x1="429.33" y1="433.65" x2="429.33" y2="429.67"/><line class="f" x1="398.23" y1="429.67" x2="398.23" y2="433.65"/><line class="f" x1="398.23" y1="429.67" x2="396.5" y2="429.67"/><line class="f" x1="431.05" y1="429.67" x2="429.33" y2="429.67"/><line class="f" x1="394.77" y1="429.67" x2="394.77" y2="433.65"/><line class="f" x1="432.78" y1="429.67" x2="432.78" y2="433.65"/><line class="f" x1="396.5" y1="429.67" x2="396.5" y2="433.65"/><line class="f" x1="431.05" y1="429.67" x2="431.05" y2="433.65"/><line class="f" x1="394.77" y1="425.35" x2="401.68" y2="425.35"/><line class="f" x1="405.48" y1="425.35" x2="406.26" y2="425.35"/><line class="f" x1="410.06" y1="425.35" x2="410.84" y2="425.35"/><line class="f" x1="414.64" y1="425.35" x2="421.55" y2="425.35"/><line class="f" x1="425.35" y1="425.35" x2="425.87" y2="425.35"/><line class="f" x1="425.87" y1="425.35" x2="432.78" y2="425.35"/><line class="f" x1="431.05" y1="429.67" x2="432.78" y2="429.67"/><line class="f" x1="432.78" y1="429.67" x2="432.78" y2="425.35"/><line class="f" x1="396.5" y1="429.67" x2="394.77" y2="429.67"/><line class="f" x1="394.77" y1="429.67" x2="394.77" y2="425.35"/><line class="f" x1="398.23" y1="371.71" x2="373.01" y2="371.71"/><line class="f" x1="394.08" y1="369.28" x2="370.59" y2="369.28"/><line class="f" x1="373.01" y1="373.44" x2="370.59" y2="373.44"/><line class="f" x1="370.59" y1="404.58" x2="373" y2="404.58"/><line class="f" x1="373.01" y1="373.44" x2="373.01" y2="371.71"/><line class="f" x1="341.22" y1="408.04" x2="370.59" y2="408.04"/><line class="f" x1="344.67" y1="411.5" x2="370.59" y2="411.5"/><line class="f" x1="370.59" y1="408.04" x2="370.59" y2="404.58"/><line class="f" x1="261.92" y1="187.95" x2="528.84" y2="187.95"/><line class="f" x1="528.84" y1="239.86" x2="505.51" y2="239.86"/><line class="f" x1="532.64" y1="239.86" x2="528.84" y2="239.86"/><line class="f" x1="532.64" y1="246.78" x2="507.24" y2="246.78"/><line class="f" x1="532.64" y1="253.7" x2="532.64" y2="253.7"/><line class="f" x1="257.95" y1="253.7" x2="266.24" y2="253.7"/><line class="f" x1="532.64" y1="425.35" x2="532.64" y2="425.35"/><line class="f" x1="532.64" y1="368.25" x2="532.64" y2="368.25"/><line class="f" x1="532.64" y1="365.82" x2="532.64" y2="365.82"/><line class="f" x1="532.64" y1="404.58" x2="532.64" y2="425.35"/><line class="f" x1="532.64" y1="401.12" x2="532.64" y2="401.12"/><line class="f" x1="532.64" y1="401.12" x2="532.64" y2="404.58"/><line class="f" x1="532.64" y1="368.25" x2="532.64" y2="401.12"/><line class="f" x1="394.77" y1="433.65" x2="394.77" y2="433.65"/><line class="f" x1="432.68" y1="433.65" x2="432.78" y2="433.65"/><line class="f" x1="396.5" y1="433.65" x2="396.49" y2="433.65"/><line class="f" x1="283.51" y1="253.7" x2="283.51" y2="246.78"/><line class="f" x1="283.51" y1="253.7" x2="283.51" y2="246.78"/><line class="f" x1="373.35" y1="253.7" x2="373.35" y2="246.78"/><line class="f" x1="438.14" y1="253.7" x2="438.14" y2="246.78"/><line class="f" x1="283.51" y1="253.7" x2="338.8" y2="253.7"/><line class="f" x1="338.8" y1="253.7" x2="373.35" y2="253.7"/><line class="f" x1="507.24" y1="253.7" x2="472.69" y2="253.7"/><line class="f" x1="472.69" y1="253.7" x2="438.14" y2="253.7"/><line class="f" x1="507.24" y1="246.78" x2="507.24" y2="253.7"/><line class="f" x1="524.34" y1="253.7" x2="507.24" y2="253.7"/><line class="f" x1="524.34" y1="253.7" x2="532.64" y2="253.7"/><line class="f" x1="263.3" y1="187.95" x2="263.3" y2="239.86"/><line class="f" x1="261.92" y1="187.95" x2="263.3" y2="187.95"/><line class="f" x1="527.11" y1="187.95" x2="527.11" y2="239.86"/><line class="f" x1="527.11" y1="187.95" x2="528.84" y2="187.95"/><line class="f" x1="341.22" y1="425.35" x2="344.67" y2="425.35"/><line class="f" x1="373.01" y1="425.35" x2="370.59" y2="425.35"/><line class="f" x1="493.25" y1="425.35" x2="496.7" y2="425.35"/><line class="f" x1="524.34" y1="408.04" x2="524.34" y2="404.58"/><line class="f" x1="524.34" y1="371.71" x2="524.34" y2="369.28"/><line class="f" x1="532.64" y1="368.25" x2="532.64" y2="365.82"/><line class="f" x1="394.08" y1="253.7" x2="396.5" y2="253.7"/><line class="f" x1="285.24" y1="246.78" x2="285.24" y2="239.86"/><line class="f" x1="283.51" y1="246.78" x2="285.24" y2="246.78"/><line class="f" x1="439.86" y1="246.78" x2="439.86" y2="239.86"/><line class="f" x1="438.14" y1="246.78" x2="439.86" y2="246.78"/><line class="f" x1="371.62" y1="246.78" x2="371.62" y2="239.86"/><line class="f" x1="373.35" y1="246.78" x2="371.62" y2="246.78"/><line class="f" x1="505.51" y1="246.78" x2="505.51" y2="239.86"/><line class="f" x1="507.24" y1="246.78" x2="505.51" y2="246.78"/><line class="f" x1="507.24" y1="253.7" x2="472.69" y2="253.7"/><line class="f" x1="472.69" y1="253.7" x2="472.69" y2="246.78"/><line class="f" x1="470.96" y1="246.78" x2="470.96" y2="239.86"/><line class="f" x1="505.51" y1="239.86" x2="470.96" y2="239.86"/><line class="f" x1="470.96" y1="239.86" x2="464.05" y2="239.86"/><line class="f" x1="460.25" y1="239.86" x2="459.47" y2="239.86"/><line class="f" x1="455.67" y1="239.86" x2="454.89" y2="239.86"/><line class="f" x1="451.09" y1="239.86" x2="446.77" y2="239.86"/><line class="f" x1="446.77" y1="239.86" x2="439.86" y2="239.86"/><line class="f" x1="472.69" y1="253.7" x2="438.14" y2="253.7"/><line class="f" x1="470.96" y1="243.32" x2="439.86" y2="243.32"/><line class="f" x1="472.69" y1="249.55" x2="472.69" y2="246.78"/><line class="f" x1="439.52" y1="250.24" x2="439.52" y2="282.08"/><line class="f" x1="469.93" y1="247.47" x2="469.93" y2="246.78"/><line class="f" x1="469.93" y1="246.78" x2="472.69" y2="246.78"/><line class="f" x1="472.69" y1="246.78" x2="472.69" y2="249.55"/><line class="f" x1="472.69" y1="249.55" x2="471.31" y2="249.55"/><line class="f" x1="471.31" y1="250.24" x2="468.54" y2="250.24"/><line class="f" x1="468.54" y1="250.24" x2="468.54" y2="247.47"/><line class="f" x1="468.54" y1="247.47" x2="471.31" y2="247.47"/><line class="f" x1="471.31" y1="247.47" x2="471.31" y2="250.24"/><line class="f" x1="440.9" y1="247.47" x2="440.9" y2="246.78"/><line class="f" x1="440.9" y1="246.78" x2="438.14" y2="246.78"/><line class="f" x1="438.14" y1="246.78" x2="438.14" y2="249.55"/><line class="f" x1="438.14" y1="249.55" x2="439.52" y2="249.55"/><line class="f" x1="439.52" y1="250.24" x2="442.28" y2="250.24"/><line class="f" x1="442.28" y1="250.24" x2="442.28" y2="247.47"/><line class="f" x1="442.28" y1="247.47" x2="439.52" y2="247.47"/><line class="f" x1="439.52" y1="247.47" x2="439.52" y2="250.24"/><line class="f" x1="468.54" y1="250.24" x2="442.28" y2="250.24"/><line class="f" x1="442.28" y1="247.47" x2="468.54" y2="247.47"/><line class="f" x1="468.54" y1="248.85" x2="442.28" y2="248.85"/><g class="g"><path class="f" d="M471.31,250.24a31.82,31.82,0,0,1-31.79,31.84"/></g><line class="f" x1="475.45" y1="247.47" x2="475.45" y2="246.78"/><line class="f" x1="475.45" y1="246.78" x2="472.69" y2="246.78"/><line class="f" x1="472.69" y1="246.78" x2="472.69" y2="249.55"/><line class="f" x1="472.69" y1="249.55" x2="474.07" y2="249.55"/><line class="f" x1="474.07" y1="250.24" x2="476.84" y2="250.24"/><line class="f" x1="476.84" y1="250.24" x2="476.84" y2="247.47"/><line class="f" x1="476.84" y1="247.47" x2="474.07" y2="247.47"/><line class="f" x1="474.07" y1="247.47" x2="474.07" y2="250.24"/><line class="f" x1="504.48" y1="247.47" x2="504.48" y2="246.78"/><line class="f" x1="504.48" y1="246.78" x2="507.24" y2="246.78"/><line class="f" x1="507.24" y1="246.78" x2="507.24" y2="249.55"/><line class="f" x1="507.24" y1="249.55" x2="505.86" y2="249.55"/><line class="f" x1="505.86" y1="250.24" x2="503.09" y2="250.24"/><line class="f" x1="503.1" y1="250.24" x2="503.1" y2="247.47"/><line class="f" x1="503.1" y1="247.47" x2="505.86" y2="247.47"/><line class="f" x1="505.86" y1="247.47" x2="505.86" y2="250.24"/><line class="f" x1="476.84" y1="250.24" x2="503.09" y2="250.24"/><line class="f" x1="503.1" y1="247.47" x2="476.84" y2="247.47"/><line class="f" x1="476.84" y1="248.85" x2="503.09" y2="248.85"/><line class="f" x1="283.51" y1="253.7" x2="338.8" y2="253.7"/><line class="f" x1="338.8" y1="253.7" x2="373.35" y2="253.7"/><line class="f" x1="285.24" y1="239.86" x2="340.52" y2="239.86"/><line class="f" x1="338.8" y1="253.7" x2="338.8" y2="246.78"/><line class="f" x1="340.53" y1="246.78" x2="340.53" y2="239.86"/><line class="f" x1="340.53" y1="239.86" x2="347.44" y2="239.86"/><line class="f" x1="351.24" y1="239.86" x2="352.01" y2="239.86"/><line class="f" x1="355.82" y1="239.86" x2="356.59" y2="239.86"/><line class="f" x1="360.39" y1="239.86" x2="364.71" y2="239.86"/><line class="f" x1="364.71" y1="239.86" x2="371.62" y2="239.86"/><line class="f" x1="340.53" y1="243.32" x2="371.62" y2="243.32"/><line class="f" x1="371.97" y1="250.24" x2="371.97" y2="282.08"/><line class="f" x1="341.56" y1="247.47" x2="341.56" y2="246.78"/><line class="f" x1="341.56" y1="246.78" x2="338.8" y2="246.78"/><line class="f" x1="338.8" y1="246.78" x2="338.8" y2="249.55"/><line class="f" x1="338.8" y1="249.55" x2="340.18" y2="249.55"/><line class="f" x1="340.18" y1="250.24" x2="342.94" y2="250.24"/><line class="f" x1="342.94" y1="250.24" x2="342.94" y2="247.47"/><line class="f" x1="342.94" y1="247.47" x2="340.18" y2="247.47"/><line class="f" x1="340.18" y1="247.47" x2="340.18" y2="250.24"/><line class="f" x1="371.97" y1="250.24" x2="369.2" y2="250.24"/><line class="f" x1="369.2" y1="250.24" x2="369.2" y2="247.47"/><line class="f" x1="369.2" y1="247.47" x2="371.97" y2="247.47"/><line class="f" x1="371.97" y1="247.47" x2="371.97" y2="250.24"/><line class="f" x1="342.94" y1="250.24" x2="369.2" y2="250.24"/><line class="f" x1="369.2" y1="247.47" x2="342.94" y2="247.47"/><line class="f" x1="342.94" y1="248.85" x2="369.2" y2="248.85"/><g class="g"><path class="f" d="M372,282.08a31.82,31.82,0,0,1-31.79-31.84"/></g><line class="f" x1="370.59" y1="247.47" x2="370.59" y2="246.78"/><line class="f" x1="370.59" y1="246.78" x2="373.35" y2="246.78"/><line class="f" x1="373.35" y1="246.78" x2="373.35" y2="249.55"/><line class="f" x1="373.35" y1="249.55" x2="371.97" y2="249.55"/><line class="f" x1="338.8" y1="249.55" x2="336.03" y2="249.55"/><line class="f" x1="336.03" y1="249.55" x2="336.03" y2="246.78"/><line class="f" x1="336.03" y1="246.78" x2="338.8" y2="246.78"/><line class="f" x1="338.8" y1="246.78" x2="338.8" y2="249.55"/><line class="f" x1="336.03" y1="249.55" x2="312.54" y2="249.55"/><line class="f" x1="336.03" y1="248.16" x2="312.54" y2="248.16"/><line class="f" x1="336.03" y1="246.78" x2="312.54" y2="246.78"/><line class="f" x1="286.28" y1="247.47" x2="286.28" y2="246.78"/><line class="f" x1="286.28" y1="246.78" x2="283.51" y2="246.78"/><line class="f" x1="283.51" y1="246.78" x2="283.51" y2="249.55"/><line class="f" x1="283.51" y1="249.55" x2="284.9" y2="249.55"/><line class="f" x1="284.9" y1="250.24" x2="287.66" y2="250.24"/><line class="f" x1="287.66" y1="250.24" x2="287.66" y2="247.47"/><line class="f" x1="287.66" y1="247.47" x2="284.9" y2="247.47"/><line class="f" x1="284.9" y1="247.47" x2="284.9" y2="250.24"/><line class="f" x1="287.66" y1="250.24" x2="308.39" y2="250.24"/><line class="f" x1="308.39" y1="247.47" x2="287.66" y2="247.47"/><line class="f" x1="287.66" y1="248.85" x2="308.39" y2="248.85"/><line class="f" x1="309.77" y1="247.47" x2="309.77" y2="246.78"/><line class="f" x1="309.77" y1="246.78" x2="312.54" y2="246.78"/><line class="f" x1="312.54" y1="246.78" x2="312.54" y2="249.55"/><line class="f" x1="312.54" y1="249.55" x2="311.16" y2="249.55"/><line class="f" x1="311.16" y1="250.24" x2="308.39" y2="250.24"/><line class="f" x1="308.39" y1="250.24" x2="308.39" y2="247.47"/><line class="f" x1="308.39" y1="247.47" x2="311.16" y2="247.47"/><line class="f" x1="311.16" y1="247.47" x2="311.16" y2="250.24"/><line class="f" x1="370.59" y1="402.85" x2="370.59" y2="375.17"/><line class="f" x1="370.59" y1="402.85" x2="342.94" y2="402.85"/><g class="g"><path class="f" d="M342.94,402.85a27.66,27.66,0,0,1,27.65-27.68"/></g><line class="f" x1="373.01" y1="402.85" x2="370.59" y2="402.85"/><line class="f" x1="370.59" y1="375.17" x2="373" y2="375.17"/><line class="f" x1="370.59" y1="375.17" x2="370.59" y2="373.44"/><line class="f" x1="373.01" y1="375.17" x2="373.01" y2="373.44"/><line class="f" x1="370.59" y1="404.58" x2="370.59" y2="402.85"/><line class="f" x1="373.01" y1="404.58" x2="373.01" y2="402.85"/><line class="f" x1="373.01" y1="402.85" x2="373.01" y2="395.93"/><line class="f" x1="373.01" y1="392.12" x2="373.01" y2="391.34"/><line class="f" x1="373.01" y1="387.54" x2="373.01" y2="386.76"/><line class="f" x1="373.01" y1="382.95" x2="373.01" y2="382.09"/><line class="f" x1="373.01" y1="382.09" x2="373.01" y2="375.17"/><line class="f" x1="370.59" y1="402.85" x2="369.72" y2="402.85"/><line class="f" x1="369.72" y1="402.85" x2="369.72" y2="406.31"/><line class="f" x1="369.72" y1="406.31" x2="370.59" y2="406.31"/><line class="f" x1="373.01" y1="402.85" x2="373.87" y2="402.85"/><line class="f" x1="373.87" y1="402.85" x2="373.87" y2="406.31"/><line class="f" x1="373.87" y1="406.31" x2="373.01" y2="406.31"/><line class="f" x1="369.72" y1="375.17" x2="369.72" y2="371.71"/><line class="f" x1="369.72" y1="371.71" x2="370.59" y2="371.71"/><line class="f" x1="373.01" y1="375.17" x2="373.87" y2="375.17"/><line class="f" x1="373.87" y1="375.17" x2="373.87" y2="371.71"/><line class="f" x1="373.87" y1="371.71" x2="373.01" y2="371.71"/><line class="f" x1="399.96" y1="369.28" x2="427.6" y2="369.28"/><line class="f" x1="399.96" y1="369.28" x2="399.96" y2="341.6"/><g class="g"><path class="f" d="M400,341.6a27.66,27.66,0,0,1,27.64,27.68"/></g><line class="f" x1="399.96" y1="371.71" x2="399.96" y2="369.28"/><line class="f" x1="427.6" y1="369.28" x2="427.6" y2="371.71"/><line class="f" x1="427.6" y1="369.28" x2="429.33" y2="369.28"/><line class="f" x1="427.6" y1="371.71" x2="429.33" y2="371.71"/><line class="f" x1="398.23" y1="369.28" x2="399.96" y2="369.28"/><line class="f" x1="398.23" y1="371.71" x2="399.96" y2="371.71"/><line class="f" x1="399.96" y1="371.71" x2="406.87" y2="371.71"/><line class="f" x1="410.67" y1="371.71" x2="411.45" y2="371.71"/><line class="f" x1="415.25" y1="371.71" x2="416.02" y2="371.71"/><line class="f" x1="419.82" y1="371.71" x2="420.69" y2="371.71"/><line class="f" x1="420.69" y1="371.71" x2="427.6" y2="371.71"/><line class="f" x1="399.96" y1="369.28" x2="399.96" y2="368.42"/><line class="f" x1="399.96" y1="368.42" x2="396.5" y2="368.42"/><line class="f" x1="396.5" y1="368.42" x2="396.5" y2="369.28"/><line class="f" x1="399.96" y1="371.71" x2="399.96" y2="372.57"/><line class="f" x1="399.96" y1="372.57" x2="396.5" y2="372.57"/><line class="f" x1="396.5" y1="372.57" x2="396.5" y2="371.71"/><line class="f" x1="427.6" y1="368.42" x2="431.05" y2="368.42"/><line class="f" x1="431.05" y1="368.42" x2="431.05" y2="369.28"/><line class="f" x1="427.6" y1="371.71" x2="427.6" y2="372.57"/><line class="f" x1="427.6" y1="372.57" x2="431.05" y2="372.57"/><line class="f" x1="431.05" y1="372.57" x2="431.05" y2="371.71"/><line class="f" x1="432.78" y1="399.39" x2="432.78" y2="375.17"/><line class="f" x1="432.78" y1="399.39" x2="408.59" y2="399.39"/><g class="g"><path class="f" d="M408.59,399.39a24.2,24.2,0,0,1,24.19-24.22"/></g><line class="f" x1="435.2" y1="399.39" x2="432.78" y2="399.39"/><line class="f" x1="432.78" y1="375.17" x2="435.2" y2="375.17"/><line class="f" x1="432.78" y1="375.17" x2="432.78" y2="373.44"/><line class="f" x1="435.2" y1="375.17" x2="435.2" y2="373.44"/><line class="f" x1="432.78" y1="401.12" x2="432.78" y2="399.39"/><line class="f" x1="435.2" y1="401.12" x2="435.2" y2="399.39"/><line class="f" x1="435.2" y1="399.39" x2="435.2" y2="392.47"/><line class="f" x1="435.2" y1="388.66" x2="435.2" y2="387.88"/><line class="f" x1="435.2" y1="384.08" x2="435.2" y2="383.3"/><line class="f" x1="435.2" y1="382.09" x2="435.2" y2="375.17"/><line class="f" x1="432.78" y1="399.39" x2="431.92" y2="399.39"/><line class="f" x1="431.92" y1="399.39" x2="431.92" y2="402.85"/><line class="f" x1="431.92" y1="402.85" x2="432.78" y2="402.85"/><line class="f" x1="435.2" y1="399.39" x2="436.06" y2="399.39"/><line class="f" x1="436.06" y1="399.39" x2="436.06" y2="402.85"/><line class="f" x1="436.06" y1="402.85" x2="435.2" y2="402.85"/><line class="f" x1="431.92" y1="375.17" x2="431.92" y2="371.71"/><line class="f" x1="431.92" y1="371.71" x2="432.78" y2="371.71"/><line class="f" x1="435.2" y1="375.17" x2="436.06" y2="375.17"/><line class="f" x1="436.06" y1="375.17" x2="436.06" y2="371.71"/><line class="f" x1="436.06" y1="371.71" x2="435.2" y2="371.71"/><line class="f" x1="496.7" y1="408.04" x2="493.25" y2="408.04"/><line class="f" x1="527.45" y1="187.95" x2="527.45" y2="239.86"/><line class="f" x1="527.45" y1="187.95" x2="528.84" y2="187.95"/><line class="f" x1="528.84" y1="190.02" x2="527.45" y2="190.02"/><line class="f" x1="527.45" y1="190.02" x2="527.45" y2="187.95"/><line class="f" x1="527.45" y1="237.78" x2="528.84" y2="237.78"/><line class="f" x1="528.84" y1="239.86" x2="527.45" y2="239.86"/><line class="f" x1="529.53" y1="239.86" x2="528.84" y2="239.86"/><line class="f" x1="527.45" y1="239.86" x2="527.45" y2="237.78"/><line class="f" x1="262.96" y1="187.95" x2="262.96" y2="239.86"/><line class="f" x1="261.92" y1="187.95" x2="262.96" y2="187.95"/><line class="f" x1="262.96" y1="187.95" x2="262.96" y2="190.02"/><line class="f" x1="262.96" y1="190.02" x2="261.92" y2="190.02"/><line class="f" x1="261.92" y1="237.78" x2="262.96" y2="237.78"/><line class="f" x1="262.96" y1="237.78" x2="262.96" y2="239.86"/><line class="f" x1="261.92" y1="239.86" x2="260.88" y2="239.86"/><line class="f" x1="262.96" y1="239.86" x2="261.92" y2="239.86"/><line class="f" x1="370.59" y1="411.5" x2="370.59" y2="408.04"/><line class="f" x1="370.59" y1="411.5" x2="370.59" y2="408.04"/><line class="f" x1="496.7" y1="404.58" x2="496.7" y2="425.35"/><line class="f" x1="493.25" y1="404.58" x2="493.25" y2="425.35"/><line class="f" x1="332.95" y1="412.17" x2="328.06" y2="417.06"/><line class="f" x1="328.06" y1="412.17" x2="332.95" y2="417.06"/><line class="f" x1="330.51" y1="418.08" x2="330.51" y2="411.16"/><line class="f" x1="333.96" y1="414.62" x2="327.05" y2="414.62"/><line class="f" x1="320.14" y1="404.24" x2="320.14" y2="425"/><line class="f" x1="340.87" y1="404.24" x2="320.14" y2="404.24"/><line class="f" x1="494.11" y1="398.53" x2="494.11" y2="377.76"/><line class="f" x1="497.57" y1="374.3" x2="518.3" y2="374.3"/><line class="f" x1="521.75" y1="377.76" x2="521.75" y2="398.53"/><line class="f" x1="518.3" y1="401.99" x2="497.57" y2="401.99"/><line class="f" x1="474.59" y1="372.57" x2="474.59" y2="376.03"/><line class="f" x1="474.59" y1="376.03" x2="453.86" y2="376.03"/><line class="f" x1="453.86" y1="376.03" x2="453.86" y2="372.57"/><line class="f" x1="453.86" y1="372.57" x2="454.89" y2="372.57"/><line class="f" x1="454.89" y1="372.57" x2="454.89" y2="374.99"/><line class="f" x1="454.89" y1="374.99" x2="473.55" y2="374.99"/><line class="f" x1="473.55" y1="374.99" x2="473.55" y2="372.57"/><line class="f" x1="473.55" y1="372.57" x2="474.59" y2="372.57"/><line class="f" x1="474.59" y1="372.57" x2="474.59" y2="376.03"/><line class="f" x1="453.86" y1="372.57" x2="453.86" y2="376.03"/><line class="f" x1="473.55" y1="372.57" x2="473.55" y2="374.99"/><line class="f" x1="454.89" y1="372.57" x2="454.89" y2="374.99"/><line class="f" x1="474.59" y1="376.03" x2="453.86" y2="376.03"/><line class="f" x1="474.59" y1="374.99" x2="453.86" y2="374.99"/><line class="f" x1="474.59" y1="372.57" x2="473.55" y2="372.57"/><line class="f" x1="454.89" y1="372.57" x2="453.86" y2="372.57"/><line class="f" x1="383.46" y1="285.86" x2="383.46" y2="317.43"/><line class="f" x1="383.46" y1="317.43" x2="385.58" y2="317.43"/><line class="f" x1="385.58" y1="317.43" x2="387.7" y2="309.53"/><line class="f" x1="387.7" y1="309.53" x2="387.7" y2="293.75"/><line class="f" x1="387.7" y1="293.75" x2="385.58" y2="285.86"/><line class="f" x1="385.58" y1="285.86" x2="383.46" y2="285.86"/><line class="f" x1="384.31" y1="315.32" x2="384.31" y2="313.22"/><line class="f" x1="384.31" y1="313.22" x2="384.84" y2="313.22"/><line class="f" x1="384.84" y1="313.22" x2="384.84" y2="315.32"/><line class="f" x1="384.84" y1="315.32" x2="384.31" y2="315.32"/><line class="f" x1="384.31" y1="312.69" x2="384.31" y2="310.59"/><line class="f" x1="384.31" y1="310.59" x2="384.84" y2="310.59"/><line class="f" x1="384.84" y1="310.59" x2="384.84" y2="312.69"/><line class="f" x1="384.84" y1="312.69" x2="384.31" y2="312.69"/><line class="f" x1="384.31" y1="310.06" x2="384.31" y2="309.01"/><line class="f" x1="384.31" y1="309.01" x2="384.84" y2="309.01"/><line class="f" x1="384.84" y1="309.01" x2="384.84" y2="310.06"/><line class="f" x1="384.84" y1="310.06" x2="384.31" y2="310.06"/><line class="f" x1="385.58" y1="285.86" x2="385.58" y2="317.43"/><line class="f" x1="266.24" y1="352.33" x2="287.32" y2="352.33"/><line class="f" x1="287.32" y1="352.33" x2="287.32" y2="373.09"/><line class="f" x1="287.32" y1="373.09" x2="266.58" y2="373.09"/><line class="f" x1="288.26" y1="370.26" x2="288.26" y2="355.16"/><line class="f" x1="299.41" y1="425.35" x2="299.41" y2="404.24"/><line class="f" x1="299.41" y1="404.24" x2="320.14" y2="404.24"/><line class="f" x1="320.14" y1="404.24" x2="320.14" y2="425.35"/><line class="f" x1="266.24" y1="393.85" x2="266.24" y2="373.09"/><line class="f" x1="266.24" y1="373.09" x2="287.32" y2="373.09"/><line class="f" x1="287.32" y1="373.09" x2="287.32" y2="393.85"/><line class="f" x1="287.32" y1="393.85" x2="266.24" y2="393.85"/><line class="f" x1="492.38" y1="403.72" x2="492.38" y2="372.57"/><line class="f" x1="492.38" y1="372.57" x2="523.48" y2="372.57"/><line class="f" x1="523.48" y1="372.57" x2="523.48" y2="403.72"/><line class="f" x1="523.48" y1="403.72" x2="492.38" y2="403.72"/><line class="f" x1="323.24" y1="322.91" x2="305.97" y2="322.91"/><line class="f" x1="305.97" y1="322.91" x2="305.97" y2="295.23"/><line class="f" x1="305.97" y1="295.23" x2="323.24" y2="295.23"/><line class="f" x1="323.24" y1="295.23" x2="323.24" y2="322.91"/><line class="f" x1="283.51" y1="255.43" x2="331.89" y2="255.43"/><line class="f" x1="331.89" y1="255.43" x2="331.89" y2="258.89"/><line class="f" x1="331.89" y1="258.89" x2="283.51" y2="258.89"/><line class="f" x1="283.51" y1="258.89" x2="283.51" y2="255.43"/><line class="f" x1="474.42" y1="255.43" x2="502.06" y2="255.43"/><line class="f" x1="502.06" y1="255.43" x2="502.06" y2="257.61"/><line class="f" x1="502.06" y1="257.61" x2="474.42" y2="257.61"/><line class="f" x1="474.42" y1="257.61" x2="474.42" y2="255.43"/><g class="g"><path class="f" d="M283,383.47a6.05,6.05,0,1,0-6.05,6.06,6.05,6.05,0,0,0,6.05-6.06"/><path class="f" d="M282,383.47a5,5,0,1,0-5,5,5,5,0,0,0,5-5"/><path class="f" d="M519.16,398.53a.87.87,0,1,0-.86.86.86.86,0,0,0,.86-.86"/><path class="f" d="M497.57,402a3.46,3.46,0,0,1-3.46-3.46"/><path class="f" d="M494.11,377.76a3.46,3.46,0,0,1,3.46-3.46"/><path class="f" d="M521.75,398.53A3.45,3.45,0,0,1,518.3,402"/><path class="f" d="M518.3,374.3a3.45,3.45,0,0,1,3.45,3.46"/><path class="f" d="M286.3,412.93a7.78,7.78,0,1,0-7.78,7.78,7.78,7.78,0,0,0,7.78-7.78"/><path class="f" d="M285.09,412.93a6.57,6.57,0,1,0-6.57,6.57,6.57,6.57,0,0,0,6.57-6.57"/><path class="f" d="M277.07,415.25a.87.87,0,1,0-1.73,0,.87.87,0,0,0,1.73,0"/><path class="f" d="M387.31,308a6.31,6.31,0,0,1,0-12.62"/><path class="f" d="M387.31,295.33a12.62,12.62,0,0,1,0,12.62"/><path class="f" d="M275.25,357.61a3.39,3.39,0,1,0-3.39,3.4,3.39,3.39,0,0,0,3.39-3.4"/><path class="f" d="M285.43,357.61A3.39,3.39,0,1,0,282,361a3.39,3.39,0,0,0,3.39-3.4"/><path class="f" d="M285.43,367.81A3.39,3.39,0,1,0,282,371.2a3.4,3.4,0,0,0,3.39-3.39"/><path class="f" d="M337.07,257.16a1.73,1.73,0,1,0-1.73,1.73,1.72,1.72,0,0,0,1.73-1.73"/><path class="f" d="M507.24,256.52a1.73,1.73,0,1,0-1.73,1.73,1.72,1.72,0,0,0,1.73-1.73"/></g><line class="f" x1="261.92" y1="187.95" x2="528.84" y2="187.95"/><line class="f" x1="261.92" y1="184.49" x2="528.84" y2="184.49"/><line class="f" x1="261.92" y1="186.22" x2="528.84" y2="186.22"/><line class="f" x1="496.7" y1="408.04" x2="496.7" y2="425.35"/><line class="f" x1="496.7" y1="425.35" x2="524.34" y2="425.35"/><line class="f" x1="524.34" y1="425.35" x2="500.16" y2="421.88"/><line class="f" x1="500.16" y1="421.88" x2="496.7" y2="408.04"/><line class="f" x1="344.67" y1="411.5" x2="344.67" y2="425.35"/><line class="f" x1="344.67" y1="425.35" x2="370.59" y2="425.35"/><line class="f" x1="370.59" y1="425.35" x2="348.13" y2="421.88"/><line class="f" x1="348.13" y1="421.88" x2="344.67" y2="411.5"/><line class="f" x1="532.64" y1="404.58" x2="532.64" y2="425.35"/><line class="f" x1="532.64" y1="425.35" x2="532.64" y2="425.35"/><line class="f" x1="532.64" y1="404.58" x2="532.64" y2="404.58"/><rect class="d" x="305.96" y="295.23" width="17.28" height="27.68"/><line class="f" x1="305.97" y1="295.23" x2="305.97" y2="322.91"/><line class="f" x1="323.24" y1="295.23" x2="305.97" y2="295.23"/><line class="f" x1="323.24" y1="322.91" x2="323.24" y2="295.23"/><line class="f" x1="305.97" y1="322.91" x2="323.24" y2="322.91"/><rect class="d" x="435.2" y="420.15" width="58.05" height="5.19"/><line class="f" x1="435.2" y1="420.15" x2="435.2" y2="425.35"/><line class="f" x1="493.25" y1="420.15" x2="435.2" y2="420.15"/><line class="f" x1="493.25" y1="425.35" x2="493.25" y2="420.15"/><line class="f" x1="435.2" y1="425.35" x2="493.25" y2="425.35"/><rect class="d" x="453.86" y="372.57" width="1.04" height="2.42"/><line class="f" x1="453.86" y1="374.99" x2="454.89" y2="374.99"/><line class="f" x1="453.86" y1="372.57" x2="453.86" y2="374.99"/><line class="f" x1="454.89" y1="372.57" x2="453.86" y2="372.57"/><line class="f" x1="454.89" y1="374.99" x2="454.89" y2="372.57"/><polygon class="d" points="453.86 376.03 453.86 374.99 454.89 374.99 473.55 374.99 474.59 374.99 474.59 376.03 453.86 376.03"/><line class="f" x1="453.86" y1="374.99" x2="453.86" y2="376.03"/><line class="f" x1="454.89" y1="374.99" x2="453.86" y2="374.99"/><line class="f" x1="473.55" y1="374.99" x2="454.89" y2="374.99"/><line class="f" x1="474.59" y1="374.99" x2="473.55" y2="374.99"/><line class="f" x1="474.59" y1="376.03" x2="474.59" y2="374.99"/><line class="f" x1="453.86" y1="376.03" x2="474.59" y2="376.03"/><rect class="d" x="473.55" y="372.57" width="1.04" height="2.42"/><line class="f" x1="473.55" y1="374.99" x2="474.59" y2="374.99"/><line class="f" x1="473.55" y1="372.57" x2="473.55" y2="374.99"/><line class="f" x1="474.59" y1="372.57" x2="473.55" y2="372.57"/><line class="f" x1="474.59" y1="374.99" x2="474.59" y2="372.57"/><rect class="d" x="377.5" y="253.7" width="16.58" height="115.58"/><line class="f" x1="377.5" y1="253.7" x2="394.08" y2="253.7"/><line class="f" x1="394.08" y1="253.7" x2="394.08" y2="369.28"/><line class="f" x1="394.08" y1="369.28" x2="377.5" y2="369.28"/><line class="f" x1="377.5" y1="369.28" x2="377.5" y2="253.7"/><rect class="d" x="474.42" y="255.43" width="27.64" height="2.18"/><line class="f" x1="502.06" y1="255.43" x2="474.42" y2="255.43"/><line class="f" x1="502.06" y1="257.61" x2="502.06" y2="255.43"/><line class="f" x1="474.42" y1="257.61" x2="502.06" y2="257.61"/><line class="f" x1="474.42" y1="255.43" x2="474.42" y2="257.61"/><polygon class="d" points="504.29 257.74 503.79 256.52 504.29 255.3 505.51 254.79 506.73 255.3 507.24 256.52 506.73 257.74 505.51 258.25 504.29 257.74"/><g class="g"><path class="f" d="M507.24,256.52a1.73,1.73,0,1,1-3.45,0"/><path class="f" d="M503.79,256.52a1.73,1.73,0,1,1,3.45,0"/></g><rect class="d" x="283.51" y="255.43" width="48.37" height="3.46"/><line class="f" x1="283.51" y1="255.43" x2="283.51" y2="258.89"/><line class="f" x1="331.89" y1="255.43" x2="283.51" y2="255.43"/><line class="f" x1="331.89" y1="258.89" x2="331.89" y2="255.43"/><line class="f" x1="283.51" y1="258.89" x2="331.89" y2="258.89"/><polygon class="d" points="334.12 258.38 333.62 257.16 334.12 255.94 335.34 255.43 336.56 255.94 337.07 257.16 336.56 258.38 335.34 258.89 334.12 258.38"/><g class="g"><path class="f" d="M337.07,257.16a1.73,1.73,0,1,1-3.45,0"/><path class="f" d="M333.62,257.16a1.73,1.73,0,1,1,3.45,0"/></g><polygon class="d" points="462.15 343.68 459.51 343.15 457.26 341.65 455.76 339.4 455.24 336.75 455.24 288.3 455.76 285.66 457.26 283.41 459.51 281.91 462.15 281.38 513.98 281.38 524.35 281.38 524.35 343.68 462.15 343.68"/><rect class="d" x="513.98" y="343.67" width="10.37" height="12.11"/><rect class="d" x="513.98" y="269.27" width="10.37" height="12.11"/><line class="f" x1="512.86" y1="310.57" x2="515.84" y2="309.74"/><line class="f" x1="512.86" y1="339.63" x2="515.84" y2="338.8"/><line class="f" x1="455.24" y1="288.31" x2="455.24" y2="336.75"/><line class="f" x1="462.15" y1="343.68" x2="524.34" y2="343.68"/><line class="f" x1="524.34" y1="343.68" x2="524.34" y2="281.38"/><line class="f" x1="524.34" y1="281.38" x2="462.15" y2="281.38"/><line class="f" x1="524.34" y1="343.68" x2="524.34" y2="355.79"/><line class="f" x1="524.34" y1="355.79" x2="513.98" y2="355.79"/><line class="f" x1="513.98" y1="355.79" x2="513.98" y2="343.67"/><line class="f" x1="513.98" y1="343.68" x2="524.35" y2="343.68"/><line class="f" x1="524.34" y1="269.27" x2="524.34" y2="281.38"/><line class="f" x1="524.34" y1="281.38" x2="513.98" y2="281.38"/><line class="f" x1="513.98" y1="281.38" x2="513.98" y2="269.27"/><line class="f" x1="513.98" y1="269.27" x2="524.35" y2="269.27"/><line class="f" x1="501.35" y1="343.68" x2="501.35" y2="281.38"/><line class="f" x1="496.17" y1="343.68" x2="496.17" y2="281.38"/><g class="g"><path class="f" d="M506.59,315.16a96.79,96.79,0,0,1,.34,22.55"/><path class="f" d="M508.83,340h-.09a1.85,1.85,0,0,1-1.85-1.85,2.71,2.71,0,0,1,0-.4"/><path class="f" d="M512.86,339.63a15,15,0,0,1-3.2.35l-.83,0"/><path class="f" d="M520.57,339.82c-.83,0-1.67.06-2.5.06-1.74,0-3.48-.08-5.21-.25"/><path class="f" d="M521.07,339.37a.19.19,0,0,1,0,.08.39.39,0,0,1-.39.39.25.25,0,0,1-.12,0"/><path class="f" d="M521.07,339.37q-.57-7.44-.57-14.89,0-4.69.23-9.4"/><path class="f" d="M519.48,314a.81.81,0,0,1,.31-.05,1,1,0,0,1,1,1,1.23,1.23,0,0,1,0,.2"/><path class="f" d="M519.48,314a46.29,46.29,0,0,1-11.91.18"/><path class="f" d="M506.59,315.16a1,1,0,0,1,0-.25.79.79,0,0,1,.8-.79.83.83,0,0,1,.22,0"/><path class="f" d="M462.15,343.68a6.92,6.92,0,0,1-6.91-6.93"/><path class="f" d="M455.24,288.31a6.92,6.92,0,0,1,6.91-6.93"/><path class="f" d="M506.59,286.1a96.79,96.79,0,0,1,.34,22.55"/><path class="f" d="M508.83,310.9h-.09a1.85,1.85,0,0,1-1.85-1.85,2.71,2.71,0,0,1,0-.4"/><path class="f" d="M512.86,310.57a15,15,0,0,1-3.2.35c-.28,0-.55,0-.83,0"/><path class="f" d="M520.57,310.77c-.83,0-1.67.06-2.5.06-1.74,0-3.48-.09-5.21-.26"/><path class="f" d="M521.07,310.31a.22.22,0,0,1,0,.08.4.4,0,0,1-.39.4l-.12,0"/><path class="f" d="M521.07,310.31q-.57-7.43-.57-14.89,0-4.69.23-9.39"/><path class="f" d="M519.48,284.91a1.06,1.06,0,0,1,.31-.05,1,1,0,0,1,1,1,1.49,1.49,0,0,1,0,.21"/><path class="f" d="M519.48,284.91a46.29,46.29,0,0,1-11.91.18"/><path class="f" d="M506.59,286.1a1,1,0,0,1,0-.24.8.8,0,0,1,.8-.8.83.83,0,0,1,.22,0"/></g><line class="f" x1="532.64" y1="281.38" x2="532.64" y2="281.38"/><line class="f" x1="532.64" y1="281.38" x2="532.64" y2="343.67"/><line class="f" x1="532.64" y1="343.68" x2="532.64" y2="343.68"/><line class="f" x1="532.64" y1="281.38" x2="532.64" y2="269.27"/><line class="f" x1="532.64" y1="269.27" x2="532.64" y2="269.27"/><line class="f" x1="532.64" y1="281.38" x2="532.64" y2="281.38"/><line class="f" x1="532.64" y1="355.79" x2="532.64" y2="343.67"/><line class="f" x1="532.64" y1="343.68" x2="532.64" y2="343.68"/><line class="f" x1="532.64" y1="355.79" x2="532.64" y2="355.79"/><polygon class="d" points="383.46 317.42 383.46 306.64 382.07 304.93 381.34 302.78 381.34 300.49 382.07 298.35 383.46 296.64 383.46 285.86 385.38 285.86 387.3 293.75 387.3 296.05 388.34 299.71 388.34 303.56 387.3 307.23 387.3 309.53 385.38 317.42 383.46 317.42"/><line class="f" x1="383.46" y1="285.86" x2="383.46" y2="296.64"/><line class="f" x1="385.38" y1="285.86" x2="383.46" y2="285.86"/><line class="f" x1="387.3" y1="293.75" x2="385.38" y2="285.86"/><line class="f" x1="387.3" y1="296.05" x2="387.3" y2="293.75"/><line class="f" x1="388.34" y1="299.71" x2="387.3" y2="296.05"/><line class="f" x1="388.34" y1="303.56" x2="388.34" y2="299.71"/><line class="f" x1="387.3" y1="307.23" x2="388.34" y2="303.56"/><line class="f" x1="387.3" y1="309.53" x2="387.3" y2="307.23"/><line class="f" x1="385.38" y1="317.42" x2="387.3" y2="309.53"/><line class="f" x1="383.46" y1="317.42" x2="385.38" y2="317.42"/><line class="f" x1="383.46" y1="306.64" x2="383.46" y2="317.42"/><line class="f" x1="382.08" y1="304.93" x2="383.46" y2="306.64"/><line class="f" x1="381.34" y1="302.78" x2="382.07" y2="304.93"/><line class="f" x1="381.34" y1="300.49" x2="381.34" y2="302.78"/><line class="f" x1="382.08" y1="298.35" x2="381.34" y2="300.49"/><line class="f" x1="383.46" y1="296.64" x2="382.07" y2="298.35"/><line class="f" x1="383.46" y1="285.86" x2="383.46" y2="317.42"/><line class="f" x1="387.3" y1="309.53" x2="387.3" y2="293.75"/><line class="f" x1="385.38" y1="285.86" x2="383.46" y2="285.86"/><line class="f" x1="384.23" y1="315.31" x2="384.23" y2="313.21"/><line class="f" x1="384.23" y1="313.21" x2="384.71" y2="313.21"/><line class="f" x1="384.71" y1="313.21" x2="384.71" y2="315.31"/><line class="f" x1="384.71" y1="315.31" x2="384.23" y2="315.31"/><line class="f" x1="384.23" y1="312.68" x2="384.23" y2="310.58"/><line class="f" x1="384.23" y1="310.58" x2="384.71" y2="310.58"/><line class="f" x1="384.71" y1="310.58" x2="384.71" y2="312.68"/><line class="f" x1="384.71" y1="312.68" x2="384.23" y2="312.68"/><line class="f" x1="385.38" y1="285.86" x2="385.38" y2="317.42"/><line class="f" x1="384.71" y1="310.05" x2="384.23" y2="310.05"/><line class="f" x1="384.23" y1="310.05" x2="384.23" y2="309"/><line class="f" x1="384.23" y1="309" x2="384.71" y2="309"/><line class="f" x1="384.71" y1="309" x2="384.71" y2="310.05"/><g class="g"><path class="f" d="M383.46,306.63a6.73,6.73,0,0,1,0-10"/></g><polygon class="d" points="270.72 333.29 270.23 333.09 270.03 332.6 270.03 261.31 270.23 260.82 270.72 260.62 298.71 260.62 299.17 260.78 299.43 261.18 299.4 261.66 299.4 287.27 299.34 288 298.71 288.37 299.21 288.75 299.4 289.35 299.4 327.06 299.21 327.69 298.71 328.1 299.2 328.31 299.4 328.79 299.4 329.83 298.94 331.56 297.67 332.83 295.94 333.29 270.72 333.29"/><polygon class="d" points="300.44 288.31 299.7 288 299.4 287.27 299.4 261.66 299.7 260.92 300.44 260.62 321.86 260.62 324.5 261.15 326.75 262.65 328.24 264.89 328.77 267.54 328.77 281.38 328.24 284.03 326.75 286.28 324.5 287.78 321.86 288.31 300.44 288.31"/><line class="f" x1="300.44" y1="288.31" x2="321.86" y2="288.31"/><g class="g"><path class="f" d="M300.44,288.31a1,1,0,0,1-1-1"/></g><line class="f" x1="299.4" y1="261.66" x2="299.4" y2="287.27"/><g class="g"><path class="f" d="M299.4,261.66a1,1,0,0,1,1-1"/></g><line class="f" x1="321.86" y1="260.62" x2="300.44" y2="260.62"/><g class="g"><path class="f" d="M321.86,260.62a6.91,6.91,0,0,1,6.91,6.92"/></g><line class="f" x1="328.77" y1="281.38" x2="328.77" y2="267.54"/><g class="g"><path class="f" d="M328.77,281.38a6.91,6.91,0,0,1-6.91,6.92"/></g><line class="f" x1="299.4" y1="328.79" x2="299.4" y2="329.83"/><line class="f" x1="295.95" y1="333.29" x2="270.72" y2="333.29"/><line class="f" x1="270.03" y1="332.6" x2="270.03" y2="328.79"/><line class="f" x1="270.72" y1="328.1" x2="298.71" y2="328.1"/><line class="f" x1="270.03" y1="328.79" x2="270.03" y2="288.31"/><line class="f" x1="270.03" y1="288.31" x2="272.45" y2="288.31"/><line class="f" x1="299.4" y1="289.34" x2="299.4" y2="327.06"/><line class="f" x1="298.36" y1="328.1" x2="281.04" y2="328.1"/><line class="f" x1="281.04" y1="288.31" x2="298.36" y2="288.31"/><line class="f" x1="272.45" y1="328.1" x2="278.97" y2="328.1"/><line class="f" x1="278.97" y1="288.31" x2="272.45" y2="288.31"/><line class="f" x1="299.4" y1="265.12" x2="299.4" y2="261.31"/><line class="f" x1="298.71" y1="260.62" x2="270.72" y2="260.62"/><line class="f" x1="270.03" y1="261.31" x2="270.03" y2="265.12"/><line class="f" x1="270.03" y1="265.12" x2="270.03" y2="288.31"/><line class="f" x1="270.03" y1="288.31" x2="272.45" y2="288.31"/><line class="f" x1="299.4" y1="287.27" x2="299.4" y2="266.85"/><line class="f" x1="281.04" y1="288.31" x2="298.36" y2="288.31"/><line class="f" x1="281.04" y1="288.31" x2="272.45" y2="288.31"/><line class="f" x1="328.77" y1="281.38" x2="328.77" y2="267.54"/><line class="f" x1="321.86" y1="260.62" x2="300.44" y2="260.62"/><line class="f" x1="299.4" y1="261.66" x2="299.4" y2="287.27"/><line class="f" x1="300.44" y1="288.31" x2="321.86" y2="288.31"/><line class="f" x1="271.41" y1="287.27" x2="271.41" y2="261.66"/><line class="f" x1="271.41" y1="289.34" x2="271.41" y2="327.06"/><g class="g"><path class="f" d="M270.72,333.29a.69.69,0,0,1-.69-.69"/><path class="f" d="M270,328.79a.69.69,0,0,1,.69-.69"/><path class="f" d="M298.71,328.1a.69.69,0,0,1,.69.69"/><path class="f" d="M299.4,327.06a1,1,0,0,1-1,1"/><path class="f" d="M298.36,288.31a1,1,0,0,1,1,1"/><path class="f" d="M298.71,260.62a.69.69,0,0,1,.69.69"/><path class="f" d="M270,261.31a.69.69,0,0,1,.69-.69"/><path class="f" d="M299.4,287.27a1,1,0,0,1-1,1"/><path class="f" d="M299.4,261.66a1,1,0,0,1,1-1"/><path class="f" d="M300.44,288.31a1,1,0,0,1-1-1"/></g><line class="f" x1="271.41" y1="261.66" x2="294.95" y2="261.66"/><g class="g"><path class="f" d="M275.44,287.31a19.61,19.61,0,0,1,14.76-24.4"/><path class="f" d="M276.25,289.34a118.54,118.54,0,0,1,0,37.72"/><path class="f" d="M328.77,281.38a6.91,6.91,0,0,1-6.91,6.92"/><path class="f" d="M321.86,260.62a6.91,6.91,0,0,1,6.91,6.92"/><path class="f" d="M299.4,329.83a3.46,3.46,0,0,1-3.45,3.46"/></g><polygon class="d" points="312.98 342.09 312.52 340.36 312.98 338.63 314.24 337.36 320.21 333.88 321.93 333.41 323.66 333.87 324.92 335.14 328.79 341.85 325.22 342.33 321.89 343.72 319.04 345.93 316.85 348.8 312.98 342.09"/><polygon class="d" points="320.27 377.59 314.29 374.13 313.03 372.87 312.56 371.13 313.02 369.4 316.87 362.67 319.07 365.55 321.93 367.74 325.26 369.12 328.83 369.59 324.99 376.32 323.73 377.59 322 378.05 320.27 377.59"/><polygon class="d" points="342.15 359.29 342.61 355.7 342.14 352.11 340.75 348.77 348.47 348.75 350.19 349.22 351.46 350.49 351.93 352.22 351.94 359.15 351.48 360.89 350.21 362.16 348.49 362.63 340.77 362.64 342.15 359.29"/><polygon class="d" points="325.26 369.12 321.93 367.74 319.07 365.55 316.87 362.68 315.49 359.33 315.01 355.74 315.48 352.15 316.85 348.8 319.04 345.93 321.89 343.72 325.22 342.33 328.79 341.85 332.36 342.32 335.69 343.7 338.56 345.9 340.75 348.77 342.14 352.11 342.61 355.7 342.15 359.29 340.77 362.64 338.59 365.52 335.73 367.72 332.4 369.11 328.83 369.59 325.26 369.12"/><line class="f" x1="332.36" y1="342.32" x2="328.79" y2="341.85"/><line class="f" x1="335.69" y1="343.7" x2="332.36" y2="342.32"/><line class="f" x1="338.56" y1="345.9" x2="335.69" y2="343.69"/><line class="f" x1="340.75" y1="348.77" x2="338.56" y2="345.9"/><line class="f" x1="342.14" y1="352.11" x2="340.75" y2="348.77"/><line class="f" x1="342.61" y1="355.7" x2="342.14" y2="352.11"/><line class="f" x1="342.15" y1="359.29" x2="342.61" y2="355.7"/><line class="f" x1="340.77" y1="362.64" x2="342.15" y2="359.29"/><line class="f" x1="338.59" y1="365.52" x2="340.77" y2="362.64"/><line class="f" x1="335.73" y1="367.72" x2="338.59" y2="365.51"/><line class="f" x1="332.4" y1="369.11" x2="335.73" y2="367.72"/><line class="f" x1="328.83" y1="369.59" x2="332.4" y2="369.11"/><line class="f" x1="325.26" y1="369.12" x2="328.83" y2="369.59"/><line class="f" x1="321.93" y1="367.74" x2="325.26" y2="369.12"/><line class="f" x1="319.07" y1="365.55" x2="321.93" y2="367.74"/><line class="f" x1="316.87" y1="362.67" x2="319.07" y2="365.55"/><line class="f" x1="315.49" y1="359.33" x2="316.87" y2="362.67"/><line class="f" x1="315.01" y1="355.74" x2="315.49" y2="359.33"/><line class="f" x1="315.47" y1="352.15" x2="315.01" y2="355.74"/><line class="f" x1="316.85" y1="348.8" x2="315.47" y2="352.15"/><line class="f" x1="319.04" y1="345.93" x2="316.85" y2="348.8"/><line class="f" x1="321.89" y1="343.72" x2="319.04" y2="345.93"/><line class="f" x1="325.22" y1="342.33" x2="321.89" y2="343.72"/><line class="f" x1="328.79" y1="341.85" x2="325.22" y2="342.33"/><g class="g"><path class="f" d="M342.61,355.7a13.8,13.8,0,1,1-27.6,0"/><path class="f" d="M315,355.74a13.8,13.8,0,1,1,27.6,0"/></g><line class="f" x1="315.1" y1="338.85" x2="321.07" y2="335.38"/><line class="f" x1="324.92" y1="335.14" x2="328.79" y2="341.85"/><line class="f" x1="314.24" y1="337.36" x2="320.21" y2="333.88"/><line class="f" x1="316.85" y1="348.8" x2="312.98" y2="342.09"/><line class="f" x1="321.13" y1="376.09" x2="315.15" y2="372.63"/><line class="f" x1="313.02" y1="369.4" x2="316.87" y2="362.67"/><line class="f" x1="320.27" y1="377.59" x2="314.29" y2="374.13"/><line class="f" x1="328.83" y1="369.59" x2="324.99" y2="376.32"/><line class="f" x1="350.2" y1="352.22" x2="350.21" y2="359.16"/><line class="f" x1="348.49" y1="362.63" x2="340.77" y2="362.64"/><line class="f" x1="351.93" y1="352.22" x2="351.93" y2="359.16"/><line class="f" x1="340.75" y1="348.77" x2="348.47" y2="348.75"/><g class="g"><path class="f" d="M321.07,335.38a1.74,1.74,0,0,1,.87-.23,1.69,1.69,0,0,1,1.49.86"/><path class="f" d="M314.48,341.23a1.7,1.7,0,0,1-.24-.87,1.74,1.74,0,0,1,.86-1.5"/><path class="f" d="M320.21,333.88a3.37,3.37,0,0,1,1.72-.47,3.48,3.48,0,0,1,3,1.73"/><path class="f" d="M313,342.09a3.49,3.49,0,0,1,1.26-4.74"/><path class="f" d="M315.15,372.63a1.75,1.75,0,0,1-.63-2.37"/><path class="f" d="M323.49,375.45a1.71,1.71,0,0,1-1.49.87,1.77,1.77,0,0,1-.87-.23"/><path class="f" d="M314.29,374.13A3.47,3.47,0,0,1,313,369.4"/><path class="f" d="M325,376.31a3.45,3.45,0,0,1-3,1.74,3.5,3.5,0,0,1-1.73-.46"/><path class="f" d="M350.21,359.16h0a1.73,1.73,0,0,1-1.72,1.73"/><path class="f" d="M348.47,350.49a1.72,1.72,0,0,1,1.73,1.73"/><path class="f" d="M351.93,359.15a3.46,3.46,0,0,1-3.44,3.48"/><path class="f" d="M348.47,348.76a3.45,3.45,0,0,1,3.45,3.46"/></g><polygon class="d" points="444.53 420.15 444.16 420 444.01 419.64 444.01 405.45 444.16 405.08 444.53 404.93 462.5 404.93 462.86 405.08 463.01 405.45 463.01 419.64 462.86 420 462.5 420.15 444.53 420.15"/><line class="f" x1="462.5" y1="420.15" x2="444.53" y2="420.15"/><g class="g"><path class="f" d="M444.53,420.15a.51.51,0,0,1-.52-.51"/></g><line class="f" x1="444.01" y1="419.64" x2="444.01" y2="405.45"/><g class="g"><path class="f" d="M444,405.45a.52.52,0,0,1,.52-.52"/></g><line class="f" x1="444.53" y1="404.93" x2="462.5" y2="404.93"/><g class="g"><path class="f" d="M462.5,404.93a.51.51,0,0,1,.51.52"/></g><line class="f" x1="463.01" y1="405.45" x2="463.01" y2="419.64"/><g class="g"><path class="f" d="M463,419.64a.51.51,0,0,1-.51.51"/></g><line class="f" x1="461.46" y1="416.35" x2="445.57" y2="416.35"/><line class="f" x1="445.05" y1="415.83" x2="445.05" y2="406.49"/><line class="f" x1="445.57" y1="405.97" x2="461.46" y2="405.97"/><line class="f" x1="461.98" y1="406.48" x2="461.98" y2="415.83"/><g class="g"><path class="f" d="M445.57,416.35a.52.52,0,0,1-.52-.52"/><path class="f" d="M445.05,406.48a.51.51,0,0,1,.52-.51"/><path class="f" d="M461.46,406a.51.51,0,0,1,.52.51"/><path class="f" d="M462,415.83a.52.52,0,0,1-.52.52"/></g><polygon class="d" points="452.9 418.69 452.65 418.08 452.79 416.63 452.9 416.3 453.13 414.47 453.26 414.22 453.51 414.13 453.77 414.22 453.9 414.47 454.12 416.3 454.24 416.63 454.38 418.08 454.12 418.69 453.51 418.94 452.9 418.69"/><g class="g"><path class="f" d="M454.38,418.08a.87.87,0,0,1-1.73,0"/></g><line class="f" x1="452.79" y1="416.63" x2="452.65" y2="418.08"/><g class="g"><path class="f" d="M452.79,416.63a.76.76,0,0,1,.11-.33"/></g><line class="f" x1="453.13" y1="414.47" x2="452.9" y2="416.3"/><g class="g"><path class="f" d="M453.13,414.47a.38.38,0,0,1,.38-.34.39.39,0,0,1,.39.34"/></g><line class="f" x1="454.12" y1="416.3" x2="453.9" y2="414.47"/><g class="g"><path class="f" d="M454.12,416.3a.66.66,0,0,1,.12.33"/></g><line class="f" x1="454.38" y1="418.08" x2="454.24" y2="416.63"/><line class="f" x1="453.04" y1="417.22" x2="453.04" y2="416.7"/><line class="f" x1="453.98" y1="416.7" x2="453.98" y2="417.22"/><line class="f" x1="453.98" y1="417.22" x2="453.04" y2="417.22"/><g class="g"><path class="f" d="M453,416.7a.47.47,0,0,1,.94,0"/><path class="f" d="M452.9,416.3a.72.72,0,0,1,1.22,0"/></g><rect class="d" x="396.5" y="253.7" width="20.73" height="41.53"/><line class="f" x1="417.23" y1="295.23" x2="417.23" y2="253.7"/><line class="f" x1="417.23" y1="253.7" x2="396.5" y2="253.7"/><line class="f" x1="396.5" y1="253.7" x2="396.5" y2="295.23"/><line class="f" x1="396.5" y1="295.23" x2="417.23" y2="295.23"/><line class="f" x1="406.87" y1="293.15" x2="406.87" y2="255.78"/><line class="f" x1="412.97" y1="291.22" x2="400.54" y2="287.71"/><line class="f" x1="413.58" y1="287.26" x2="402.03" y2="285.81"/><line class="f" x1="399.39" y1="281.86" x2="412.07" y2="280.66"/><line class="f" x1="401.05" y1="275.73" x2="412.07" y2="277.35"/><line class="f" x1="400.42" y1="273.5" x2="414" y2="273.5"/><line class="f" x1="400.36" y1="267.19" x2="413.78" y2="268.69"/><line class="f" x1="400.59" y1="264.82" x2="412.84" y2="264.82"/><line class="f" x1="400.46" y1="258.6" x2="413.03" y2="257.4"/><line class="f" x1="401.32" y1="260.09" x2="411.94" y2="261.31"/><rect class="d" x="396.5" y="295.23" width="20.73" height="41.53"/><line class="f" x1="417.23" y1="336.75" x2="417.23" y2="295.23"/><line class="f" x1="417.23" y1="295.23" x2="396.5" y2="295.23"/><line class="f" x1="396.5" y1="295.23" x2="396.5" y2="336.75"/><line class="f" x1="396.5" y1="336.75" x2="417.23" y2="336.75"/><line class="f" x1="406.87" y1="334.68" x2="406.87" y2="297.3"/><line class="f" x1="412.97" y1="332.75" x2="400.54" y2="329.24"/><line class="f" x1="413.58" y1="328.79" x2="402.03" y2="327.34"/><line class="f" x1="399.39" y1="323.39" x2="412.07" y2="322.19"/><line class="f" x1="401.05" y1="317.26" x2="412.07" y2="318.88"/><line class="f" x1="400.42" y1="315.03" x2="414" y2="315.03"/><line class="f" x1="400.36" y1="308.72" x2="413.78" y2="310.21"/><line class="f" x1="400.59" y1="306.35" x2="412.84" y2="306.35"/><line class="f" x1="400.46" y1="300.12" x2="413.03" y2="298.93"/><line class="f" x1="401.32" y1="301.62" x2="411.94" y2="302.84"/><polygon class="d" points="471.31 420.15 471.31 408.74 471.57 407.02 472.35 405.48 473.55 404.24 475.51 403.21 477.7 402.85 479.88 403.21 481.85 404.24 483.05 405.48 483.83 407.02 484.09 408.74 484.09 420.15 471.31 420.15"/><line class="f" x1="471.31" y1="420.15" x2="471.31" y2="408.73"/><line class="f" x1="471.31" y1="420.15" x2="484.09" y2="420.15"/><line class="f" x1="484.09" y1="420.15" x2="484.09" y2="408.73"/><line class="f" x1="473.38" y1="416" x2="473.38" y2="408.73"/><line class="f" x1="482.02" y1="416" x2="482.02" y2="408.73"/><line class="f" x1="482.02" y1="416" x2="473.38" y2="416"/><g class="g"><path class="f" d="M471.31,408.73a5.63,5.63,0,0,1,2.24-4.49"/><path class="f" d="M481.85,404.24a5.63,5.63,0,0,1,2.24,4.49"/><path class="f" d="M473.55,404.24a6.89,6.89,0,0,1,8.3,0"/><path class="f" d="M481.85,404.24a5.63,5.63,0,0,1,2.24,4.49"/><path class="f" d="M477.7,402.85a6.88,6.88,0,0,1,4.14,1.39"/><path class="f" d="M480.6,405.9a3.55,3.55,0,0,1,1.42,2.83"/><path class="f" d="M474.8,405.9a4.82,4.82,0,0,1,5.8,0"/><path class="f" d="M473.38,408.73a3.55,3.55,0,0,1,1.42-2.83"/></g><line class="f" x1="307.78" y1="417.6" x2="307.78" y2="411.8"/><line class="f" x1="307.78" y1="411.8" x2="310.13" y2="413.7"/><line class="f" x1="310.13" y1="413.7" x2="312.48" y2="411.8"/><line class="f" x1="312.48" y1="411.8" x2="312.48" y2="417.6"/><polygon points="432.78 433.65 432.78 425.35 524.35 425.35 524.35 253.7 532.64 253.7 532.64 425.35 532.64 433.65 432.78 433.65"/><polygon points="257.94 433.65 257.94 425.35 257.94 253.7 266.24 253.7 266.24 425.35 394.77 425.35 394.77 433.65 257.94 433.65"/><polygon points="257.94 246.78 257.94 239.86 261.92 239.86 285.24 239.86 285.24 246.78 257.94 246.78"/><rect x="373.35" y="246.78" width="64.78" height="6.92"/><rect x="257.95" y="246.78" width="25.57" height="6.92"/><rect x="371.62" y="239.86" width="68.24" height="6.92"/><polygon points="505.51 246.78 505.51 239.86 528.84 239.86 532.64 239.86 532.64 246.78 505.51 246.78"/><rect x="507.24" y="246.78" width="25.39" height="6.92"/><rect x="394.77" y="429.67" width="1.73" height="3.98"/><rect x="431.05" y="429.67" width="1.73" height="3.98"/><polygon points="370.59 373.44 370.59 369.28 394.08 369.28 394.08 253.7 396.5 253.7 396.5 369.28 398.23 369.28 398.23 371.71 373.01 371.71 373.01 373.44 370.59 373.44"/><rect x="493.25" y="404.58" width="31.1" height="3.46"/><polygon points="432.78 373.44 432.78 371.71 429.32 371.71 429.32 369.28 524.35 369.28 524.35 371.71 435.2 371.71 435.2 373.44 432.78 373.44"/><rect x="432.78" y="401.12" width="2.42" height="24.22"/><rect x="370.59" y="404.58" width="2.42" height="20.76"/><rect x="261.92" y="187.95" width="1.38" height="51.91"/><rect x="527.11" y="187.95" width="1.73" height="51.91"/><polygon points="341.22 425.35 341.22 408.04 370.59 408.04 370.59 411.5 344.67 411.5 344.67 425.35 341.22 425.35"/><rect x="493.25" y="404.58" width="3.45" height="20.76"/><line class="f" x1="257.95" y1="433.65" x2="532.64" y2="433.65"/><line class="f" x1="532.64" y1="433.65" x2="532.64" y2="239.86"/><line class="f" x1="532.64" y1="239.86" x2="528.84" y2="239.86"/><line class="f" x1="528.84" y1="239.86" x2="528.84" y2="184.47"/><line class="f" x1="528.84" y1="184.47" x2="261.92" y2="184.47"/><line class="f" x1="261.92" y1="184.47" x2="261.92" y2="239.86"/><line class="f" x1="261.92" y1="239.86" x2="257.95" y2="239.86"/><line class="f" x1="257.95" y1="239.86" x2="257.95" y2="433.65"/><path class="h" d="M388.33,386.46v7h-.72V387.1H386v-.64Z"/><path class="h" d="M390,393a.53.53,0,0,1,.53-.54.54.54,0,0,1,.54.54.55.55,0,0,1-.54.55A.54.54,0,0,1,390,393Z"/><path class="h" d="M392,390c0-2.23,1.17-3.56,2.79-3.56s2.8,1.33,2.8,3.56-1.18,3.56-2.8,3.56S392,392.19,392,390Zm4.85,0c0-1.87-.84-2.9-2.06-2.9s-2.06,1-2.06,2.9.84,2.9,2.06,2.9S396.87,391.83,396.87,390Z"/><path class="h" d="M400.57,386.46v7h-.72V387.1H398.2v-.64Z"/><path class="h" d="M345.73,307.84v7H345v-6.36h-1.65v-.64Z"/><path class="h" d="M347.41,314.34a.53.53,0,0,1,.53-.54.54.54,0,0,1,.54.54.55.55,0,0,1-.54.55A.54.54,0,0,1,347.41,314.34Z"/><path class="h" d="M349.42,311.34c0-2.23,1.17-3.56,2.79-3.56s2.8,1.33,2.8,3.56-1.18,3.56-2.8,3.56S349.42,313.57,349.42,311.34Zm4.85,0c0-1.87-.84-2.9-2.06-2.9s-2.06,1-2.06,2.9.84,2.9,2.06,2.9S354.27,313.21,354.27,311.34Z"/><path class="h" d="M360.81,314.2v.64H355.9v-.51l2.91-2.85c.79-.78.94-1.25.94-1.73,0-.81-.57-1.31-1.64-1.31a2.38,2.38,0,0,0-1.91.78l-.51-.44a3.15,3.15,0,0,1,2.48-1c1.42,0,2.32.72,2.32,1.89a2.88,2.88,0,0,1-1.15,2.19L357,314.2Z"/><path class="h" d="M429.91,307.84v7h-.72v-6.36h-1.65v-.64Z"/><path class="h" d="M431.59,314.34a.53.53,0,0,1,.53-.54.54.54,0,0,1,.54.54.55.55,0,0,1-.54.55A.54.54,0,0,1,431.59,314.34Z"/><path class="h" d="M433.6,311.34c0-2.23,1.17-3.56,2.79-3.56s2.8,1.33,2.8,3.56-1.18,3.56-2.8,3.56S433.6,313.57,433.6,311.34Zm4.85,0c0-1.87-.84-2.9-2.06-2.9s-2.06,1-2.06,2.9.84,2.9,2.06,2.9S438.45,313.21,438.45,311.34Z"/><path class="h" d="M444.76,312.83c0,1.17-.85,2.07-2.54,2.07a3.64,3.64,0,0,1-2.52-.9l.35-.57a3.07,3.07,0,0,0,2.17.81c1.16,0,1.8-.54,1.8-1.41s-.59-1.39-1.89-1.39h-.5v-.53l1.94-2.43H440v-.64h4.5v.51l-2,2.49C444,310.92,444.76,311.71,444.76,312.83Z"/><path class="h" d="M464.45,386.46v7h-.72V387.1h-1.65v-.64Z"/><path class="h" d="M466.13,393a.53.53,0,0,1,.53-.54.54.54,0,0,1,.54.54.55.55,0,0,1-.54.55A.54.54,0,0,1,466.13,393Z"/><path class="h" d="M468.14,390c0-2.23,1.17-3.56,2.79-3.56s2.8,1.33,2.8,3.56-1.18,3.56-2.8,3.56S468.14,392.19,468.14,390Zm4.85,0c0-1.87-.84-2.9-2.06-2.9s-2.06,1-2.06,2.9.84,2.9,2.06,2.9S473,391.83,473,390Z"/><path class="h" d="M480.71,391.62h-1.4v1.84h-.72v-1.84h-3.95v-.52l3.71-4.64h.8L475.57,391h3v-1.62h.7V391h1.4Z"/><path class="h" d="M429.91,215.48v7h-.72v-6.36h-1.65v-.64Z"/><path class="h" d="M431.59,222a.53.53,0,0,1,.53-.54.54.54,0,0,1,.54.54.55.55,0,0,1-.54.55A.54.54,0,0,1,431.59,222Z"/><path class="h" d="M433.6,219c0-2.23,1.17-3.56,2.79-3.56s2.8,1.33,2.8,3.56-1.18,3.56-2.8,3.56S433.6,221.21,433.6,219Zm4.85,0c0-1.87-.84-2.9-2.06-2.9s-2.06,1-2.06,2.9.84,2.9,2.06,2.9S438.45,220.85,438.45,219Z"/><path class="h" d="M445,220.42c0,1.19-.83,2.12-2.54,2.12a3.61,3.61,0,0,1-2.51-.9l.35-.57a3,3,0,0,0,2.15.81c1.19,0,1.82-.58,1.82-1.43s-.56-1.46-2.34-1.46h-1.49l.36-3.51h3.83v.64h-3.2l-.24,2.23h.9C444.17,218.35,445,219.18,445,220.42Z"/></svg>