<svg xmlns="http://www.w3.org/2000/svg" xmlns:xlink="http://www.w3.org/1999/xlink" viewBox="0 0 790.58 618.13"><defs><style>.a,.f{fill:none;}.b{fill:#595a5c;}.c{fill:#b6906c;}.d{fill:#fff;}.e{fill:#231f20;}.f{stroke:#000;stroke-linecap:round;stroke-linejoin:round;stroke-width:0.34px;}.g{clip-path:url(#a);}.h{fill:#58595b;}</style><clipPath id="a"><polygon class="a" points="243.18 185.08 243.18 240.19 239.21 240.19 239.21 433.05 551.37 433.05 551.37 240.19 547.05 240.19 547.05 185.08 243.18 185.08"/></clipPath></defs><path class="b" d="M55.31,597.13H57.1V609.9H55.31Zm.92,6.11h4.09a1.89,1.89,0,0,0,1-.27,1.82,1.82,0,0,0,.68-.77,2.67,2.67,0,0,0,.24-1.16,2.7,2.7,0,0,0-.24-1.16,1.82,1.82,0,0,0-1.7-1H56.23v-1.7h4a4.09,4.09,0,0,1,2,.48A3.45,3.45,0,0,1,63.62,599a4.64,4.64,0,0,1,0,4.11,3.34,3.34,0,0,1-1.35,1.36,4,4,0,0,1-2,.49h-4Z"/><path class="b" d="M67.7,606.33a2.07,2.07,0,0,0,.49,1.48,1.76,1.76,0,0,0,1.37.52,1.89,1.89,0,0,0,1.37-.46,1.79,1.79,0,0,0,.48-1.33l.12,1.91A2.58,2.58,0,0,1,69.06,610a2.89,2.89,0,0,1-2.33-1,4.08,4.08,0,0,1-.82-2.73v-5.55H67.7Zm.22-7.86a1.93,1.93,0,0,1-.56-1.5,2.07,2.07,0,0,1,.56-1.57,2.56,2.56,0,0,1,3.18,0,2.08,2.08,0,0,1,.57,1.56,1.94,1.94,0,0,1-.57,1.5,2.65,2.65,0,0,1-3.18,0Zm2.26-.86a.94.94,0,0,0,.24-.68,1,1,0,0,0-.24-.7.91.91,0,0,0-.67-.25.92.92,0,0,0-.67.25,1,1,0,0,0-.23.7,1,1,0,0,0,.23.68.92.92,0,0,0,.67.24A.9.9,0,0,0,70.18,597.61Zm1.23,3.17h1.78v9.12H71.41Z"/><path class="b" d="M77.1,609.63A2.82,2.82,0,0,1,76,608.36a5.08,5.08,0,0,1-.36-2v-2a5.05,5.05,0,0,1,.36-2,2.71,2.71,0,0,1,1-1.27,3,3,0,0,1,1.65-.44,2.71,2.71,0,0,1,1.48.42,3.22,3.22,0,0,1,1.09,1.19l-.18,1.86a2.19,2.19,0,0,0-.22-1,1.48,1.48,0,0,0-.61-.63,2,2,0,0,0-1-.21,1.71,1.71,0,0,0-1.37.55,2.26,2.26,0,0,0-.49,1.56v2a2.19,2.19,0,0,0,.49,1.54,1.74,1.74,0,0,0,1.37.54,1.93,1.93,0,0,0,1-.23,1.45,1.45,0,0,0,.61-.64,2.25,2.25,0,0,0,.22-1l.12,1.92a2.66,2.66,0,0,1-.89,1.14,2.56,2.56,0,0,1-1.53.45A3.19,3.19,0,0,1,77.1,609.63Zm4-12.5H82.9V609.9H81.11Z"/><path class="b" d="M87.09,609.57a3.09,3.09,0,0,1-1.29-1.36,4.85,4.85,0,0,1-.44-2.15v-1.48a4.71,4.71,0,0,1,.44-2.12,3.12,3.12,0,0,1,1.29-1.35,4.71,4.71,0,0,1,4.06,0,3.12,3.12,0,0,1,1.29,1.35,4.71,4.71,0,0,1,.44,2.12v1.51a4.79,4.79,0,0,1-.44,2.13,3.12,3.12,0,0,1-1.29,1.35,4.62,4.62,0,0,1-4.06,0Zm3.49-1.83a2.43,2.43,0,0,0,.51-1.65v-1.51a2.43,2.43,0,0,0-.51-1.65,1.88,1.88,0,0,0-1.46-.58,1.85,1.85,0,0,0-1.45.58,2.38,2.38,0,0,0-.52,1.65v1.51a2.38,2.38,0,0,0,.52,1.65,1.82,1.82,0,0,0,1.45.59A1.85,1.85,0,0,0,90.58,607.74Z"/><path class="b" d="M95.43,600.78h1.79v9.12H95.43Zm4.42,1.72a2.16,2.16,0,0,0-.83-.15,1.83,1.83,0,0,0-1.33.47,1.79,1.79,0,0,0-.47,1.31L97,602.37a3.32,3.32,0,0,1,1.09-1.27,2.58,2.58,0,0,1,1.48-.45,3.39,3.39,0,0,1,1.13.18,2.62,2.62,0,0,1,.88.53l-1.17,1.58A1.56,1.56,0,0,0,99.85,602.5Z"/><path class="b" d="M102.15,600.78H104l2.81,7.93-1,1.94Zm8.07,0L106.34,612a2.6,2.6,0,0,1-.56,1,1.87,1.87,0,0,1-.84.52,4,4,0,0,1-1.23.16h-.36V612h.36a1.46,1.46,0,0,0,.8-.2,1.74,1.74,0,0,0,.51-.7l3.38-10.31Z"/><path class="b" d="M113.51,609.88a5.76,5.76,0,0,1-1.32-.48,4.89,4.89,0,0,1-1.13-.79l1.06-1.31a5.86,5.86,0,0,0,1.47.85,4.18,4.18,0,0,0,1.44.28,3.11,3.11,0,0,0,1.6-.33,1.1,1.1,0,0,0,.53-1,.79.79,0,0,0-.29-.66,1.66,1.66,0,0,0-.72-.29c-.29,0-.69-.1-1.22-.14h-.15l-.14,0h-.15a6.45,6.45,0,0,1-1.5-.26,2,2,0,0,1-1-.7,2.38,2.38,0,0,1-.41-1.49,3.07,3.07,0,0,1,.39-1.61,2.41,2.41,0,0,1,1.18-1,5.29,5.29,0,0,1,2-.32,6.38,6.38,0,0,1,2.6.52,6.16,6.16,0,0,1,1.13.66l-1.08,1.31a5.59,5.59,0,0,0-1.35-.66,4,4,0,0,0-1.3-.22,2.44,2.44,0,0,0-1.37.31,1.08,1.08,0,0,0-.46.94.64.64,0,0,0,.26.55,1.72,1.72,0,0,0,.66.25c.26,0,.64.07,1.12.1h.34a7.67,7.67,0,0,1,1.63.25,2.24,2.24,0,0,1,1.13.77,2.62,2.62,0,0,1,.45,1.65,2.92,2.92,0,0,1-.42,1.63,2.54,2.54,0,0,1-1.27,1A5.88,5.88,0,0,1,115,610,7.38,7.38,0,0,1,113.51,609.88Z"/><path class="b" d="M126,597.13h1.8V609.9H126Zm2.6,12.5a2.39,2.39,0,0,1-.93-1.16l.13-1.91a2.22,2.22,0,0,0,.21,1,1.48,1.48,0,0,0,.61.63,1.93,1.93,0,0,0,1,.22,1.74,1.74,0,0,0,1.37-.54,2.18,2.18,0,0,0,.49-1.53v-2a2.26,2.26,0,0,0-.49-1.56,1.71,1.71,0,0,0-1.37-.55,2,2,0,0,0-1,.21,1.36,1.36,0,0,0-.61.62,2.12,2.12,0,0,0-.21,1l-.19-1.76a3.37,3.37,0,0,1,1.08-1.24,2.67,2.67,0,0,1,1.49-.43,3,3,0,0,1,1.65.43,2.9,2.9,0,0,1,1.06,1.27,5.1,5.1,0,0,1,.36,2v2a4.94,4.94,0,0,1-.37,2,2.79,2.79,0,0,1-1.08,1.26,3.25,3.25,0,0,1-1.71.44A2.73,2.73,0,0,1,128.57,609.63Z"/><path class="b" d="M134.46,600.78h1.82l2.81,7.93-1,1.94Zm8.07,0L138.65,612a2.6,2.6,0,0,1-.56,1,1.87,1.87,0,0,1-.84.52,4,4,0,0,1-1.23.16h-.36V612H136a1.46,1.46,0,0,0,.8-.2,1.74,1.74,0,0,0,.51-.7l3.37-10.31Z"/><path class="b" d="M143.57,600.78h4.12v1.62h-4.12Zm1.46,8.56a2.77,2.77,0,0,1-.52-1.81v-9.4h1.8v9.42a.84.84,0,0,0,.13.51.46.46,0,0,0,.39.18h.86V610h-1A2,2,0,0,1,145,609.34Z"/><path class="b" d="M151.94,606.33a2.07,2.07,0,0,0,.49,1.48,1.76,1.76,0,0,0,1.37.52,1.91,1.91,0,0,0,1.37-.46,1.79,1.79,0,0,0,.48-1.33l.12,1.91A2.58,2.58,0,0,1,153.3,610a2.89,2.89,0,0,1-2.33-1,4.08,4.08,0,0,1-.82-2.73v-5.55h1.79Zm3.71-5.55h1.78v9.12h-1.78Z"/><rect class="c" x="612.92" y="591.68" width="35.43" height="2.83"/><path class="d" d="M648.48,594.64H612.79v-3.08h35.69ZM613,594.39h35.19v-2.58H613Z"/><rect class="c" x="612.92" y="601.6" width="70.74" height="2.83"/><path class="d" d="M683.78,604.56h-71v-3.08h71ZM613,604.31h70.49v-2.58H613Z"/><rect class="c" x="612.92" y="612.72" width="177.16" height="2.84"/><path class="d" d="M790.21,615.68H612.79V612.6H790.21ZM613,615.43H790v-2.58H613Z"/><path class="e" d="M587.26,596.28h-.8v-4.82l-.81.5v-.83l.81-.53h.8Z"/><path class="e" d="M589,595.91a1.67,1.67,0,0,1-.41-1.19v-2.58A1.65,1.65,0,0,1,589,591a2,2,0,0,1,2.42,0,1.65,1.65,0,0,1,.41,1.19v2.58a1.65,1.65,0,0,1-.41,1.19,2,2,0,0,1-2.42,0Zm1.83-.55a.89.89,0,0,0,.2-.64v-2.58a.89.89,0,0,0-.2-.64.82.82,0,0,0-.62-.22.86.86,0,0,0-.63.22.94.94,0,0,0-.2.64v2.58a.9.9,0,0,0,.21.64,1,1,0,0,0,1.24,0Z"/><path class="e" d="M593.22,595.91a1.67,1.67,0,0,1-.41-1.19v-2.58a1.65,1.65,0,0,1,.41-1.19,2,2,0,0,1,2.42,0,1.61,1.61,0,0,1,.41,1.19v2.58a1.65,1.65,0,0,1-.41,1.19,2,2,0,0,1-2.42,0Zm1.83-.55a.9.9,0,0,0,.21-.64v-2.58a.94.94,0,0,0-.2-.64.86.86,0,0,0-.63-.22.82.82,0,0,0-.62.22.89.89,0,0,0-.2.64v2.58a.89.89,0,0,0,.2.64,1,1,0,0,0,1.24,0Z"/><path class="e" d="M600.1,596.13a1.45,1.45,0,0,1-.6-.6,2.06,2.06,0,0,1-.21-1v-.67a2,2,0,0,1,.21-.94,1.37,1.37,0,0,1,.6-.59,2,2,0,0,1,.95-.21,2.21,2.21,0,0,1,.59.08,1.68,1.68,0,0,1,.51.22,1.54,1.54,0,0,1,.37.35l-.58.52a1.17,1.17,0,0,0-.4-.3,1.13,1.13,0,0,0-.48-.11.94.94,0,0,0-.71.26,1,1,0,0,0-.26.72v.67a1,1,0,0,0,.25.74.94.94,0,0,0,.72.27,1,1,0,0,0,.48-.12,1,1,0,0,0,.4-.32l.58.56a1.38,1.38,0,0,1-.38.34,1.62,1.62,0,0,1-.5.22,2.27,2.27,0,0,1-.59.07A2.12,2.12,0,0,1,600.1,596.13Z"/><path class="e" d="M603.4,592.22h.79v4.06h-.79Zm2.42,1.6a1,1,0,0,0-.21-.67.78.78,0,0,0-.6-.23.81.81,0,0,0-.6.21.73.73,0,0,0-.22.58l-.08-.78a1.46,1.46,0,0,1,.49-.57,1.22,1.22,0,0,1,.67-.2,1.33,1.33,0,0,1,.73.2,1.18,1.18,0,0,1,.46.56,2.4,2.4,0,0,1,.15.89v2.47h-.79Zm2.42,0a.93.93,0,0,0-.22-.67.85.85,0,0,0-.63-.23.72.72,0,0,0-.57.23.9.9,0,0,0-.21.64l-.16-.78a1.61,1.61,0,0,1,.51-.63,1.23,1.23,0,0,1,.69-.22,1.37,1.37,0,0,1,.75.2,1.09,1.09,0,0,1,.47.56,2.21,2.21,0,0,1,.17.89v2.47h-.8Z"/><path class="e" d="M584.33,605.5l2-2.64a1.85,1.85,0,0,0,.27-.47,1.29,1.29,0,0,0,.09-.45h0a.67.67,0,0,0-.2-.53.81.81,0,0,0-.56-.19.76.76,0,0,0-.56.21,1,1,0,0,0-.27.58h-.82a2,2,0,0,1,.29-.83,1.42,1.42,0,0,1,.56-.53,1.67,1.67,0,0,1,.79-.18,1.93,1.93,0,0,1,.87.17,1.21,1.21,0,0,1,.54.51,1.55,1.55,0,0,1,.19.8h0a1.84,1.84,0,0,1-.12.63,2.8,2.8,0,0,1-.35.63l-1.65,2.24h2.15v.76h-3.2Z"/><path class="e" d="M589,605.83a1.67,1.67,0,0,1-.41-1.19v-2.58a1.65,1.65,0,0,1,.41-1.19,2,2,0,0,1,2.42,0,1.65,1.65,0,0,1,.41,1.19v2.58a1.65,1.65,0,0,1-.41,1.19,2,2,0,0,1-2.42,0Zm1.83-.55a.89.89,0,0,0,.2-.64v-2.58a.89.89,0,0,0-.2-.64.82.82,0,0,0-.62-.22.86.86,0,0,0-.63.22.94.94,0,0,0-.19.64v2.58a.89.89,0,0,0,.2.64,1,1,0,0,0,1.24,0Z"/><path class="e" d="M593.22,605.83a1.67,1.67,0,0,1-.41-1.19v-2.58a1.61,1.61,0,0,1,.42-1.19,1.59,1.59,0,0,1,1.2-.42,1.45,1.45,0,0,1,1.62,1.61v2.58a1.61,1.61,0,0,1-.41,1.19,2,2,0,0,1-2.42,0Zm1.84-.55a.94.94,0,0,0,.2-.64v-2.58a.94.94,0,0,0-.2-.64.84.84,0,0,0-.63-.22.82.82,0,0,0-.62.22.89.89,0,0,0-.2.64v2.58a.89.89,0,0,0,.2.64.82.82,0,0,0,.62.22A.86.86,0,0,0,595.06,605.28Z"/><path class="e" d="M600.1,606.05a1.45,1.45,0,0,1-.6-.6,2.06,2.06,0,0,1-.2-1v-.67a2,2,0,0,1,.2-.94,1.37,1.37,0,0,1,.6-.59,2,2,0,0,1,.95-.21,2.35,2.35,0,0,1,.6.08,1.73,1.73,0,0,1,.5.22,1.38,1.38,0,0,1,.37.35l-.58.52a1.08,1.08,0,0,0-.4-.3,1.13,1.13,0,0,0-.48-.11,1,1,0,0,0-.71.26,1,1,0,0,0-.26.72v.67a1,1,0,0,0,.25.74.94.94,0,0,0,.72.27,1.14,1.14,0,0,0,.88-.44l.58.56a1.38,1.38,0,0,1-.38.34,1.62,1.62,0,0,1-.5.22,2.22,2.22,0,0,1-.59.07A2.12,2.12,0,0,1,600.1,606.05Z"/><path class="e" d="M603.4,602.14h.79v4.06h-.79Zm2.42,1.6a1,1,0,0,0-.21-.67.78.78,0,0,0-.6-.23.81.81,0,0,0-.6.21.73.73,0,0,0-.22.58l-.08-.78a1.46,1.46,0,0,1,.49-.57,1.22,1.22,0,0,1,.67-.2,1.3,1.3,0,0,1,.73.2,1.18,1.18,0,0,1,.46.56,2.4,2.4,0,0,1,.16.89v2.47h-.8Zm2.42,0a.93.93,0,0,0-.22-.67.85.85,0,0,0-.63-.23.73.73,0,0,0-.57.23.89.89,0,0,0-.2.64l-.16-.78a1.51,1.51,0,0,1,.5-.63,1.23,1.23,0,0,1,.69-.22,1.35,1.35,0,0,1,.75.2,1.16,1.16,0,0,1,.48.56,2.4,2.4,0,0,1,.16.89v2.47h-.8Z"/><path class="e" d="M585,615.58a1.34,1.34,0,0,1-.54-.49,2,2,0,0,1-.28-.77h.8a.75.75,0,0,0,.25.49.85.85,0,0,0,.54.17.72.72,0,0,0,.59-.25,1.1,1.1,0,0,0,.21-.72v-.48a1.1,1.1,0,0,0-.21-.72.72.72,0,0,0-.59-.25.83.83,0,0,0-.4.11,1.18,1.18,0,0,0-.34.33h-.72v-3h2.89v.76h-2.1V612a1,1,0,0,1,.34-.18.94.94,0,0,1,.37-.07,1.68,1.68,0,0,1,.84.2,1.29,1.29,0,0,1,.53.6,2.07,2.07,0,0,1,.19.94V614a2.25,2.25,0,0,1-.19.94,1.31,1.31,0,0,1-.55.59,1.69,1.69,0,0,1-.86.21A1.74,1.74,0,0,1,585,615.58Z"/><path class="e" d="M589,615.32a1.65,1.65,0,0,1-.41-1.19v-2.58a1.67,1.67,0,0,1,.41-1.19,2,2,0,0,1,2.42,0,1.65,1.65,0,0,1,.41,1.19v2.58a1.64,1.64,0,0,1-.41,1.19,1.92,1.92,0,0,1-2.42,0Zm1.83-.55a.89.89,0,0,0,.2-.64v-2.58a.88.88,0,0,0-.2-.63.78.78,0,0,0-.62-.22.82.82,0,0,0-.63.22.93.93,0,0,0-.2.63v2.58a.9.9,0,0,0,.21.64,1,1,0,0,0,1.24,0Z"/><path class="e" d="M593.22,615.32a1.65,1.65,0,0,1-.41-1.19v-2.58a1.67,1.67,0,0,1,.41-1.19,2,2,0,0,1,2.42,0,1.61,1.61,0,0,1,.41,1.19v2.58a1.64,1.64,0,0,1-.41,1.19,1.92,1.92,0,0,1-2.42,0Zm1.83-.55a.9.9,0,0,0,.21-.64v-2.58a.93.93,0,0,0-.2-.63.82.82,0,0,0-.63-.22.78.78,0,0,0-.62.22.88.88,0,0,0-.2.63v2.58a.89.89,0,0,0,.2.64,1,1,0,0,0,1.24,0Z"/><path class="e" d="M600.1,615.54a1.45,1.45,0,0,1-.6-.6,2,2,0,0,1-.21-1v-.67a2,2,0,0,1,.21-.94,1.45,1.45,0,0,1,.6-.6,2,2,0,0,1,.95-.2,2.22,2.22,0,0,1,.59.07,2,2,0,0,1,.51.22,1.76,1.76,0,0,1,.37.35l-.58.52a1.17,1.17,0,0,0-.4-.3,1.13,1.13,0,0,0-.48-.11.94.94,0,0,0-.71.26,1,1,0,0,0-.26.73V614a1.07,1.07,0,0,0,.25.74,1,1,0,0,0,.72.26,1.13,1.13,0,0,0,.48-.11,1.26,1.26,0,0,0,.4-.32l.58.55a1.42,1.42,0,0,1-.38.35,1.88,1.88,0,0,1-.5.21,2.27,2.27,0,0,1-.59.08A2,2,0,0,1,600.1,615.54Z"/><path class="e" d="M603.4,611.63h.79v4.06h-.79Zm2.42,1.6a1,1,0,0,0-.21-.66.75.75,0,0,0-.6-.24.81.81,0,0,0-.6.21.75.75,0,0,0-.22.58l-.08-.78a1.5,1.5,0,0,1,.49-.56,1.15,1.15,0,0,1,.67-.2,1.32,1.32,0,0,1,.73.19,1.28,1.28,0,0,1,.46.56,2.42,2.42,0,0,1,.15.9v2.46h-.79Zm2.42,0a.91.91,0,0,0-.22-.66.82.82,0,0,0-.63-.24.72.72,0,0,0-.57.23.9.9,0,0,0-.21.64l-.16-.78a1.51,1.51,0,0,1,.51-.62,1.16,1.16,0,0,1,.69-.22,1.37,1.37,0,0,1,.75.19,1.18,1.18,0,0,1,.47.56,2.22,2.22,0,0,1,.17.9v2.46h-.8Z"/><path class="c" d="M23.49,613.89A12.92,12.92,0,1,1,36.4,601,12.93,12.93,0,0,1,23.49,613.89Zm0-24.83A11.92,11.92,0,1,0,35.4,601,11.93,11.93,0,0,0,23.49,589.06Z"/><polygon class="d" points="35.77 588.74 9.42 600.98 35.77 613.21 32.02 600.98 35.77 588.74"/><path class="c" d="M36.58,614.14,8.23,601l28.35-13.17-4,13.17ZM10.61,601,35,612.29,31.5,601,35,589.66Z"/><path class="c" d="M2.52,605.19a5,5,0,0,1-1.11-.38,4.4,4.4,0,0,1-1-.64l.81-1a3.72,3.72,0,0,0,1.16.69,4.08,4.08,0,0,0,1.38.23,2.73,2.73,0,0,0,1.55-.38,1.17,1.17,0,0,0,.55-1.05h0a1.12,1.12,0,0,0-.25-.77,1.44,1.44,0,0,0-.64-.42,8.23,8.23,0,0,0-1-.25H3.89l-.1,0a9.48,9.48,0,0,1-1.5-.36,2.08,2.08,0,0,1-1-.73,2.42,2.42,0,0,1-.41-1.51h0a2.77,2.77,0,0,1,.38-1.47,2.44,2.44,0,0,1,1.12-.92,4.48,4.48,0,0,1,1.77-.32,4.6,4.6,0,0,1,1,.11,4.9,4.9,0,0,1,1.86.86l-.73,1a4.61,4.61,0,0,0-1-.58,3,3,0,0,0-1.06-.2,2.44,2.44,0,0,0-1.46.38,1.24,1.24,0,0,0-.53,1.07h0a1,1,0,0,0,.27.75,1.74,1.74,0,0,0,.67.4,9.3,9.3,0,0,0,1.12.27h.24a7.93,7.93,0,0,1,1.4.41,2.22,2.22,0,0,1,.94.76,2.4,2.4,0,0,1,.38,1.43h0a2.62,2.62,0,0,1-.4,1.45,2.54,2.54,0,0,1-1.16.91,4.8,4.8,0,0,1-1.83.31A6.44,6.44,0,0,1,2.52,605.19Z"/><rect class="c" x="612.5" y="600.68" width="1" height="4.68"/><rect class="c" x="612.5" y="590.76" width="1" height="4.68"/><rect class="c" x="612.5" y="611.45" width="1" height="5.24"/><rect class="c" x="789.58" y="611.45" width="1" height="5.24"/><rect class="c" x="682.59" y="600.68" width="1" height="4.68"/><rect class="c" x="647.3" y="590.76" width="1" height="4.68"/><rect class="a" width="790.34" height="618.13"/><line class="f" x1="239.21" y1="240.19" x2="241.97" y2="240.19"/><line class="f" x1="545.67" y1="188.53" x2="244.74" y2="188.53"/><line class="f" x1="545.67" y1="240.19" x2="545.67" y2="188.53"/><line class="f" x1="458.04" y1="240.19" x2="545.67" y2="240.19"/><line class="f" x1="458.04" y1="243.63" x2="458.04" y2="240.19"/><line class="f" x1="426.92" y1="243.63" x2="458.04" y2="243.63"/><line class="f" x1="426.92" y1="240.19" x2="426.92" y2="243.63"/><line class="f" x1="375.07" y1="240.19" x2="426.92" y2="240.19"/><line class="f" x1="375.07" y1="243.63" x2="375.07" y2="240.19"/><line class="f" x1="343.95" y1="243.63" x2="375.07" y2="243.63"/><line class="f" x1="343.95" y1="240.19" x2="343.95" y2="243.63"/><line class="f" x1="244.74" y1="240.19" x2="343.95" y2="240.19"/><line class="f" x1="244.74" y1="188.53" x2="244.74" y2="240.19"/><line class="f" x1="548.44" y1="240.19" x2="551.37" y2="240.19"/><rect class="d" x="248.37" y="360.21" width="27.66" height="41.33"/><line class="f" x1="248.37" y1="360.21" x2="248.37" y2="401.54"/><line class="f" x1="276.02" y1="360.21" x2="248.37" y2="360.21"/><line class="f" x1="276.02" y1="401.54" x2="276.02" y2="360.21"/><line class="f" x1="248.37" y1="401.54" x2="276.02" y2="401.54"/><rect class="d" x="444.55" y="403.78" width="98.53" height="21.01"/><line class="f" x1="444.55" y1="403.78" x2="444.55" y2="424.78"/><line class="f" x1="543.08" y1="403.78" x2="444.55" y2="403.78"/><line class="f" x1="543.08" y1="424.78" x2="543.08" y2="403.78"/><line class="f" x1="444.55" y1="424.78" x2="543.08" y2="424.78"/><rect class="d" x="521.99" y="352.12" width="21.09" height="51.66"/><line class="f" x1="543.08" y1="403.78" x2="521.99" y2="403.78"/><line class="f" x1="521.99" y1="403.78" x2="521.99" y2="352.12"/><line class="f" x1="521.99" y1="352.12" x2="543.08" y2="352.12"/><line class="f" x1="543.08" y1="352.12" x2="543.08" y2="403.78"/><rect class="d" x="337.39" y="403.78" width="28" height="21.01"/><line class="f" x1="337.39" y1="403.78" x2="337.39" y2="424.78"/><line class="f" x1="365.39" y1="403.78" x2="337.39" y2="403.78"/><line class="f" x1="365.39" y1="424.78" x2="365.39" y2="403.78"/><line class="f" x1="337.39" y1="424.78" x2="365.39" y2="424.78"/><line class="f" x1="551.37" y1="404.12" x2="551.37" y2="424.78"/><line class="f" x1="551.37" y1="341.79" x2="551.37" y2="404.12"/><line class="f" x1="551.37" y1="341.79" x2="551.37" y2="341.79"/><line class="f" x1="551.37" y1="424.78" x2="551.37" y2="424.78"/><line class="f" x1="420.35" y1="407.56" x2="420.35" y2="404.12"/><line class="f" x1="337.39" y1="393.79" x2="337.39" y2="369.68"/><line class="f" x1="337.39" y1="393.79" x2="361.58" y2="393.79"/><g class="g"><path class="f" d="M337.39,369.68a24.15,24.15,0,0,1,24.19,24.11"/></g><line class="f" x1="334.97" y1="393.79" x2="337.39" y2="393.79"/><line class="f" x1="337.39" y1="369.68" x2="334.97" y2="369.68"/><line class="f" x1="337.39" y1="369.68" x2="337.39" y2="367.96"/><line class="f" x1="334.97" y1="369.68" x2="334.97" y2="367.96"/><line class="f" x1="337.39" y1="395.51" x2="337.39" y2="393.79"/><line class="f" x1="334.97" y1="395.51" x2="334.97" y2="393.79"/><line class="f" x1="334.97" y1="393.79" x2="334.97" y2="386.9"/><line class="f" x1="334.97" y1="383.11" x2="334.97" y2="382.34"/><line class="f" x1="334.97" y1="378.55" x2="334.97" y2="377.77"/><line class="f" x1="334.97" y1="376.57" x2="334.97" y2="369.68"/><line class="f" x1="337.39" y1="393.79" x2="338.25" y2="393.79"/><line class="f" x1="338.25" y1="393.79" x2="338.25" y2="397.23"/><line class="f" x1="338.25" y1="397.23" x2="337.39" y2="397.23"/><line class="f" x1="334.97" y1="393.79" x2="334.1" y2="393.79"/><line class="f" x1="334.1" y1="393.79" x2="334.1" y2="397.23"/><line class="f" x1="334.1" y1="397.23" x2="334.97" y2="397.23"/><line class="f" x1="338.25" y1="369.68" x2="338.25" y2="366.24"/><line class="f" x1="338.25" y1="366.24" x2="337.39" y2="366.24"/><line class="f" x1="334.97" y1="369.68" x2="334.1" y2="369.68"/><line class="f" x1="334.1" y1="369.68" x2="334.1" y2="366.24"/><line class="f" x1="334.1" y1="366.24" x2="334.97" y2="366.24"/><line class="f" x1="286.91" y1="253.97" x2="286.91" y2="247.08"/><line class="f" x1="376.8" y1="253.97" x2="376.8" y2="247.08"/><line class="f" x1="425.19" y1="253.97" x2="425.19" y2="247.08"/><line class="f" x1="551.37" y1="424.78" x2="551.37" y2="424.78"/><line class="f" x1="239.21" y1="240.19" x2="243.18" y2="240.19"/><line class="f" x1="243.18" y1="240.19" x2="288.64" y2="240.19"/><line class="f" x1="375.07" y1="240.19" x2="426.92" y2="240.19"/><line class="f" x1="513.35" y1="240.19" x2="547.05" y2="240.19"/><line class="f" x1="547.05" y1="240.19" x2="551.37" y2="240.19"/><line class="f" x1="239.21" y1="253.97" x2="247.5" y2="253.97"/><line class="f" x1="247.5" y1="253.97" x2="286.91" y2="253.97"/><line class="f" x1="376.8" y1="253.97" x2="399.61" y2="253.97"/><line class="f" x1="402.03" y1="253.97" x2="425.19" y2="253.97"/><line class="f" x1="515.08" y1="253.97" x2="543.08" y2="253.97"/><line class="f" x1="551.37" y1="253.97" x2="551.37" y2="253.97"/><line class="f" x1="239.21" y1="247.08" x2="286.91" y2="247.08"/><line class="f" x1="376.8" y1="247.08" x2="425.19" y2="247.08"/><line class="f" x1="515.08" y1="247.08" x2="551.37" y2="247.08"/><line class="f" x1="551.37" y1="253.97" x2="551.37" y2="424.78"/><line class="f" x1="543.08" y1="253.97" x2="543.08" y2="424.78"/><line class="f" x1="243.18" y1="188.53" x2="547.05" y2="188.53"/><line class="f" x1="543.08" y1="253.97" x2="551.37" y2="253.97"/><line class="f" x1="247.5" y1="356.94" x2="247.5" y2="253.97"/><line class="f" x1="334.97" y1="424.78" x2="334.97" y2="395.51"/><line class="f" x1="334.97" y1="367.96" x2="334.97" y2="359.35"/><line class="f" x1="337.39" y1="424.78" x2="337.39" y2="395.51"/><line class="f" x1="337.39" y1="367.96" x2="337.39" y2="359.35"/><line class="f" x1="399.61" y1="356.94" x2="399.61" y2="253.97"/><line class="f" x1="402.03" y1="356.94" x2="402.03" y2="253.97"/><line class="f" x1="247.5" y1="356.94" x2="342.57" y2="356.94"/><line class="f" x1="373.68" y1="356.94" x2="399.61" y2="356.94"/><line class="f" x1="402.03" y1="356.94" x2="420.35" y2="356.94"/><line class="f" x1="247.5" y1="359.35" x2="334.97" y2="359.35"/><line class="f" x1="337.39" y1="359.35" x2="342.57" y2="359.35"/><line class="f" x1="373.68" y1="359.35" x2="417.93" y2="359.35"/><line class="f" x1="444.55" y1="424.78" x2="543.08" y2="424.78"/><line class="f" x1="444.55" y1="404.12" x2="444.55" y2="424.78"/><line class="f" x1="334.97" y1="395.51" x2="337.39" y2="395.51"/><line class="f" x1="334.97" y1="367.96" x2="337.39" y2="367.96"/><line class="f" x1="373.68" y1="356.94" x2="373.68" y2="359.35"/><line class="f" x1="342.57" y1="356.94" x2="342.57" y2="359.35"/><line class="f" x1="515.08" y1="253.97" x2="515.08" y2="247.08"/><line class="f" x1="425.19" y1="253.97" x2="425.19" y2="247.08"/><line class="f" x1="244.74" y1="188.53" x2="244.74" y2="240.19"/><line class="f" x1="243.18" y1="188.53" x2="244.74" y2="188.53"/><line class="f" x1="545.67" y1="188.53" x2="545.67" y2="240.19"/><line class="f" x1="545.67" y1="188.53" x2="547.05" y2="188.53"/><line class="f" x1="399.61" y1="253.97" x2="402.03" y2="253.97"/><line class="f" x1="247.5" y1="359.35" x2="247.5" y2="356.94"/><line class="f" x1="334.97" y1="424.78" x2="337.39" y2="424.78"/><line class="f" x1="441.1" y1="424.78" x2="444.55" y2="424.78"/><line class="f" x1="288.64" y1="247.08" x2="288.64" y2="240.19"/><line class="f" x1="286.91" y1="247.08" x2="288.64" y2="247.08"/><line class="f" x1="426.92" y1="247.08" x2="426.92" y2="240.19"/><line class="f" x1="425.19" y1="247.08" x2="426.92" y2="247.08"/><line class="f" x1="375.07" y1="247.08" x2="375.07" y2="240.19"/><line class="f" x1="376.8" y1="247.08" x2="375.07" y2="247.08"/><line class="f" x1="513.35" y1="247.08" x2="513.35" y2="240.19"/><line class="f" x1="515.08" y1="247.08" x2="513.35" y2="247.08"/><line class="f" x1="515.08" y1="253.97" x2="459.76" y2="253.97"/><line class="f" x1="459.76" y1="253.97" x2="425.19" y2="253.97"/><line class="f" x1="513.35" y1="240.19" x2="458.04" y2="240.19"/><line class="f" x1="459.76" y1="253.97" x2="459.76" y2="247.08"/><line class="f" x1="458.04" y1="247.08" x2="458.04" y2="240.19"/><line class="f" x1="458.04" y1="240.19" x2="451.12" y2="240.19"/><line class="f" x1="447.32" y1="240.19" x2="446.54" y2="240.19"/><line class="f" x1="442.74" y1="240.19" x2="441.96" y2="240.19"/><line class="f" x1="438.16" y1="240.19" x2="433.84" y2="240.19"/><line class="f" x1="433.84" y1="240.19" x2="426.92" y2="240.19"/><line class="f" x1="458.04" y1="243.63" x2="426.92" y2="243.63"/><line class="f" x1="426.58" y1="250.52" x2="426.58" y2="282.21"/><line class="f" x1="457" y1="247.77" x2="457" y2="247.08"/><line class="f" x1="457" y1="247.08" x2="459.76" y2="247.08"/><line class="f" x1="459.76" y1="247.08" x2="459.76" y2="249.83"/><line class="f" x1="459.76" y1="249.83" x2="458.38" y2="249.83"/><line class="f" x1="458.38" y1="250.52" x2="455.62" y2="250.52"/><line class="f" x1="455.62" y1="250.52" x2="455.62" y2="247.77"/><line class="f" x1="455.62" y1="247.77" x2="458.38" y2="247.77"/><line class="f" x1="458.38" y1="247.77" x2="458.38" y2="250.52"/><line class="f" x1="426.58" y1="250.52" x2="429.34" y2="250.52"/><line class="f" x1="429.34" y1="250.52" x2="429.34" y2="247.77"/><line class="f" x1="429.34" y1="247.77" x2="426.58" y2="247.77"/><line class="f" x1="426.58" y1="247.77" x2="426.58" y2="250.52"/><line class="f" x1="455.62" y1="250.52" x2="429.34" y2="250.52"/><line class="f" x1="429.34" y1="247.77" x2="455.62" y2="247.77"/><line class="f" x1="455.62" y1="249.15" x2="429.34" y2="249.15"/><g class="g"><path class="f" d="M458.38,250.52a31.75,31.75,0,0,1-31.8,31.69"/></g><line class="f" x1="427.96" y1="247.77" x2="427.96" y2="247.08"/><line class="f" x1="427.96" y1="247.08" x2="425.19" y2="247.08"/><line class="f" x1="425.19" y1="247.08" x2="425.19" y2="249.83"/><line class="f" x1="425.19" y1="249.83" x2="426.58" y2="249.83"/><line class="f" x1="459.76" y1="249.83" x2="462.53" y2="249.83"/><line class="f" x1="462.53" y1="249.83" x2="462.53" y2="247.08"/><line class="f" x1="462.53" y1="247.08" x2="459.76" y2="247.08"/><line class="f" x1="459.76" y1="247.08" x2="459.76" y2="249.83"/><line class="f" x1="462.53" y1="249.83" x2="486.04" y2="249.83"/><line class="f" x1="462.53" y1="248.46" x2="486.04" y2="248.46"/><line class="f" x1="462.53" y1="247.08" x2="486.04" y2="247.08"/><line class="f" x1="512.31" y1="247.77" x2="512.31" y2="247.08"/><line class="f" x1="512.31" y1="247.08" x2="515.08" y2="247.08"/><line class="f" x1="515.08" y1="247.08" x2="515.08" y2="249.83"/><line class="f" x1="515.08" y1="249.83" x2="513.69" y2="249.83"/><line class="f" x1="513.69" y1="250.52" x2="510.93" y2="250.52"/><line class="f" x1="510.93" y1="250.52" x2="510.93" y2="247.77"/><line class="f" x1="510.93" y1="247.77" x2="513.69" y2="247.77"/><line class="f" x1="513.69" y1="247.77" x2="513.69" y2="250.52"/><line class="f" x1="510.93" y1="250.52" x2="490.19" y2="250.52"/><line class="f" x1="490.19" y1="247.77" x2="510.93" y2="247.77"/><line class="f" x1="510.93" y1="249.15" x2="490.19" y2="249.15"/><line class="f" x1="488.8" y1="247.77" x2="488.8" y2="247.08"/><line class="f" x1="488.8" y1="247.08" x2="486.04" y2="247.08"/><line class="f" x1="486.04" y1="247.08" x2="486.04" y2="249.83"/><line class="f" x1="486.04" y1="249.83" x2="487.42" y2="249.83"/><line class="f" x1="487.42" y1="250.52" x2="490.19" y2="250.52"/><line class="f" x1="490.19" y1="250.52" x2="490.19" y2="247.77"/><line class="f" x1="490.19" y1="247.77" x2="487.42" y2="247.77"/><line class="f" x1="487.42" y1="247.77" x2="487.42" y2="250.52"/><line class="f" x1="286.91" y1="253.97" x2="342.23" y2="253.97"/><line class="f" x1="342.23" y1="253.97" x2="376.8" y2="253.97"/><line class="f" x1="288.64" y1="240.19" x2="343.95" y2="240.19"/><line class="f" x1="342.23" y1="253.97" x2="342.23" y2="247.08"/><line class="f" x1="343.95" y1="247.08" x2="343.95" y2="240.19"/><line class="f" x1="343.95" y1="240.19" x2="350.87" y2="240.19"/><line class="f" x1="354.67" y1="240.19" x2="355.45" y2="240.19"/><line class="f" x1="359.25" y1="240.19" x2="360.03" y2="240.19"/><line class="f" x1="363.83" y1="240.19" x2="368.15" y2="240.19"/><line class="f" x1="368.15" y1="240.19" x2="375.07" y2="240.19"/><line class="f" x1="343.95" y1="243.63" x2="375.07" y2="243.63"/><line class="f" x1="375.41" y1="250.52" x2="375.41" y2="282.21"/><line class="f" x1="344.99" y1="247.77" x2="344.99" y2="247.08"/><line class="f" x1="344.99" y1="247.08" x2="342.23" y2="247.08"/><line class="f" x1="342.23" y1="247.08" x2="342.23" y2="249.83"/><line class="f" x1="342.23" y1="249.83" x2="343.61" y2="249.83"/><line class="f" x1="343.61" y1="250.52" x2="346.38" y2="250.52"/><line class="f" x1="346.37" y1="250.52" x2="346.37" y2="247.77"/><line class="f" x1="346.37" y1="247.77" x2="343.61" y2="247.77"/><line class="f" x1="343.61" y1="247.77" x2="343.61" y2="250.52"/><line class="f" x1="375.41" y1="250.52" x2="372.65" y2="250.52"/><line class="f" x1="372.65" y1="250.52" x2="372.65" y2="247.77"/><line class="f" x1="372.65" y1="247.77" x2="375.41" y2="247.77"/><line class="f" x1="375.41" y1="247.77" x2="375.41" y2="250.52"/><line class="f" x1="346.37" y1="250.52" x2="372.65" y2="250.52"/><line class="f" x1="372.65" y1="247.77" x2="346.38" y2="247.77"/><line class="f" x1="346.37" y1="249.15" x2="372.65" y2="249.15"/><g class="g"><path class="f" d="M375.41,282.21a31.75,31.75,0,0,1-31.8-31.69"/></g><line class="f" x1="374.03" y1="247.77" x2="374.03" y2="247.08"/><line class="f" x1="374.03" y1="247.08" x2="376.8" y2="247.08"/><line class="f" x1="376.8" y1="247.08" x2="376.8" y2="249.83"/><line class="f" x1="376.8" y1="249.83" x2="375.41" y2="249.83"/><line class="f" x1="342.23" y1="249.83" x2="339.46" y2="249.83"/><line class="f" x1="339.46" y1="249.83" x2="339.46" y2="247.08"/><line class="f" x1="339.46" y1="247.08" x2="342.23" y2="247.08"/><line class="f" x1="342.23" y1="247.08" x2="342.23" y2="249.83"/><line class="f" x1="339.46" y1="249.83" x2="315.95" y2="249.83"/><line class="f" x1="339.46" y1="248.46" x2="315.95" y2="248.46"/><line class="f" x1="339.46" y1="247.08" x2="315.95" y2="247.08"/><line class="f" x1="289.68" y1="247.77" x2="289.68" y2="247.08"/><line class="f" x1="289.68" y1="247.08" x2="286.91" y2="247.08"/><line class="f" x1="286.91" y1="247.08" x2="286.91" y2="249.83"/><line class="f" x1="286.91" y1="249.83" x2="288.3" y2="249.83"/><line class="f" x1="288.3" y1="250.52" x2="291.06" y2="250.52"/><line class="f" x1="291.06" y1="250.52" x2="291.06" y2="247.77"/><line class="f" x1="291.06" y1="247.77" x2="288.3" y2="247.77"/><line class="f" x1="288.3" y1="247.77" x2="288.3" y2="250.52"/><line class="f" x1="291.06" y1="250.52" x2="311.8" y2="250.52"/><line class="f" x1="311.8" y1="247.77" x2="291.06" y2="247.77"/><line class="f" x1="291.06" y1="249.15" x2="311.8" y2="249.15"/><line class="f" x1="313.19" y1="247.77" x2="313.19" y2="247.08"/><line class="f" x1="313.19" y1="247.08" x2="315.95" y2="247.08"/><line class="f" x1="315.95" y1="247.08" x2="315.95" y2="249.83"/><line class="f" x1="315.95" y1="249.83" x2="314.57" y2="249.83"/><line class="f" x1="314.57" y1="250.52" x2="311.8" y2="250.52"/><line class="f" x1="311.8" y1="250.52" x2="311.8" y2="247.77"/><line class="f" x1="311.8" y1="247.77" x2="314.57" y2="247.77"/><line class="f" x1="314.57" y1="247.77" x2="314.57" y2="250.52"/><line class="f" x1="371.96" y1="356.94" x2="344.3" y2="356.94"/><line class="f" x1="371.96" y1="356.94" x2="371.96" y2="329.39"/><g class="g"><path class="f" d="M344.3,356.94A27.6,27.6,0,0,1,372,329.39"/></g><line class="f" x1="371.96" y1="359.35" x2="371.96" y2="356.94"/><line class="f" x1="344.3" y1="356.94" x2="344.3" y2="359.35"/><line class="f" x1="344.3" y1="356.94" x2="342.57" y2="356.94"/><line class="f" x1="344.3" y1="359.35" x2="342.57" y2="359.35"/><line class="f" x1="373.68" y1="356.94" x2="371.96" y2="356.94"/><line class="f" x1="373.68" y1="359.35" x2="371.96" y2="359.35"/><line class="f" x1="371.96" y1="359.35" x2="365.04" y2="359.35"/><line class="f" x1="361.24" y1="359.35" x2="360.46" y2="359.35"/><line class="f" x1="356.66" y1="359.35" x2="355.88" y2="359.35"/><line class="f" x1="352.08" y1="359.35" x2="351.21" y2="359.35"/><line class="f" x1="351.21" y1="359.35" x2="344.3" y2="359.35"/><line class="f" x1="371.96" y1="356.94" x2="371.96" y2="356.08"/><line class="f" x1="371.96" y1="356.08" x2="375.41" y2="356.08"/><line class="f" x1="375.41" y1="356.08" x2="375.41" y2="356.94"/><line class="f" x1="371.96" y1="359.35" x2="371.96" y2="360.21"/><line class="f" x1="371.96" y1="360.21" x2="375.41" y2="360.21"/><line class="f" x1="375.41" y1="360.21" x2="375.41" y2="359.35"/><line class="f" x1="344.3" y1="356.08" x2="340.84" y2="356.08"/><line class="f" x1="340.84" y1="356.08" x2="340.84" y2="356.94"/><line class="f" x1="344.3" y1="359.35" x2="344.3" y2="360.21"/><line class="f" x1="344.3" y1="360.21" x2="340.84" y2="360.21"/><line class="f" x1="340.84" y1="360.21" x2="340.84" y2="359.35"/><line class="f" x1="244.39" y1="188.53" x2="244.39" y2="240.19"/><line class="f" x1="243.18" y1="188.53" x2="244.39" y2="188.53"/><line class="f" x1="244.39" y1="188.53" x2="244.39" y2="190.6"/><line class="f" x1="244.39" y1="190.6" x2="243.18" y2="190.6"/><line class="f" x1="243.18" y1="238.13" x2="244.39" y2="238.13"/><line class="f" x1="244.39" y1="238.13" x2="244.39" y2="240.19"/><line class="f" x1="243.18" y1="240.19" x2="242.32" y2="240.19"/><line class="f" x1="244.39" y1="240.19" x2="243.18" y2="240.19"/><line class="f" x1="546.02" y1="188.53" x2="546.02" y2="240.19"/><line class="f" x1="546.02" y1="188.53" x2="547.05" y2="188.53"/><line class="f" x1="547.05" y1="190.6" x2="546.02" y2="190.6"/><line class="f" x1="546.02" y1="190.6" x2="546.02" y2="188.53"/><line class="f" x1="546.02" y1="238.13" x2="547.05" y2="238.13"/><line class="f" x1="547.05" y1="240.19" x2="546.02" y2="240.19"/><line class="f" x1="548.09" y1="240.19" x2="547.05" y2="240.19"/><line class="f" x1="546.02" y1="240.19" x2="546.02" y2="238.12"/><line class="f" x1="247.5" y1="402.4" x2="247.5" y2="359.35"/><line class="f" x1="417.93" y1="398.95" x2="420.35" y2="398.95"/><line class="f" x1="417.93" y1="367.96" x2="420.35" y2="367.96"/><line class="f" x1="373.68" y1="429.09" x2="373.68" y2="433.05"/><line class="f" x1="409.98" y1="429.09" x2="409.98" y2="433.05"/><line class="f" x1="411.71" y1="424.78" x2="404.8" y2="424.78"/><line class="f" x1="401" y1="424.78" x2="400.22" y2="424.78"/><line class="f" x1="396.41" y1="424.78" x2="395.64" y2="424.78"/><line class="f" x1="391.83" y1="424.78" x2="384.92" y2="424.78"/><line class="f" x1="381.12" y1="424.78" x2="380.6" y2="424.78"/><line class="f" x1="380.6" y1="424.78" x2="373.69" y2="424.78"/><line class="f" x1="408.25" y1="429.09" x2="377.14" y2="429.09"/><line class="f" x1="408.25" y1="429.09" x2="408.25" y2="398.09"/><g class="g"><path class="f" d="M377.14,429.09a31.06,31.06,0,0,1,31.12-31"/></g><line class="f" x1="408.25" y1="433.05" x2="408.25" y2="429.09"/><line class="f" x1="377.14" y1="429.09" x2="377.14" y2="433.05"/><line class="f" x1="377.14" y1="429.09" x2="375.41" y2="429.09"/><line class="f" x1="409.98" y1="429.09" x2="408.26" y2="429.09"/><line class="f" x1="420.35" y1="397.23" x2="420.35" y2="369.68"/><line class="f" x1="420.35" y1="397.23" x2="448.01" y2="397.23"/><g class="g"><path class="f" d="M420.35,369.68A27.61,27.61,0,0,1,448,397.23"/></g><line class="f" x1="417.93" y1="397.23" x2="420.35" y2="397.23"/><line class="f" x1="420.35" y1="369.68" x2="417.93" y2="369.68"/><line class="f" x1="420.35" y1="369.68" x2="420.35" y2="367.96"/><line class="f" x1="417.93" y1="369.68" x2="417.93" y2="367.96"/><line class="f" x1="420.35" y1="398.95" x2="420.35" y2="397.23"/><line class="f" x1="417.93" y1="398.95" x2="417.93" y2="397.23"/><line class="f" x1="417.93" y1="397.23" x2="417.93" y2="390.34"/><line class="f" x1="417.93" y1="386.56" x2="417.93" y2="385.78"/><line class="f" x1="417.93" y1="381.99" x2="417.93" y2="381.22"/><line class="f" x1="417.93" y1="377.43" x2="417.93" y2="376.57"/><line class="f" x1="417.93" y1="376.57" x2="417.93" y2="369.68"/><line class="f" x1="420.35" y1="397.23" x2="421.22" y2="397.23"/><line class="f" x1="421.22" y1="397.23" x2="421.22" y2="400.68"/><line class="f" x1="421.22" y1="400.68" x2="420.36" y2="400.68"/><line class="f" x1="417.93" y1="397.23" x2="417.07" y2="397.23"/><line class="f" x1="417.07" y1="397.23" x2="417.07" y2="400.68"/><line class="f" x1="417.07" y1="400.68" x2="417.93" y2="400.68"/><line class="f" x1="421.22" y1="369.68" x2="421.22" y2="366.24"/><line class="f" x1="421.22" y1="366.24" x2="420.36" y2="366.24"/><line class="f" x1="417.93" y1="369.68" x2="417.07" y2="369.68"/><line class="f" x1="417.07" y1="369.68" x2="417.07" y2="366.24"/><line class="f" x1="417.07" y1="366.24" x2="417.93" y2="366.24"/><line class="f" x1="275.16" y1="419.62" x2="334.97" y2="419.62"/><line class="f" x1="420.35" y1="407.56" x2="441.1" y2="407.56"/><line class="f" x1="441.1" y1="407.56" x2="441.1" y2="424.78"/><line class="f" x1="441.1" y1="424.78" x2="420.35" y2="424.78"/><line class="f" x1="420.35" y1="424.78" x2="420.35" y2="407.56"/><line class="f" x1="420.35" y1="404.12" x2="444.55" y2="404.12"/><line class="f" x1="417.93" y1="424.78" x2="417.93" y2="398.95"/><line class="f" x1="417.93" y1="367.96" x2="417.93" y2="359.35"/><line class="f" x1="420.35" y1="404.12" x2="420.35" y2="398.95"/><line class="f" x1="420.35" y1="367.96" x2="420.35" y2="356.94"/><line class="f" x1="411.71" y1="424.78" x2="417.93" y2="424.78"/><line class="f" x1="375.41" y1="429.09" x2="375.41" y2="433.05"/><line class="f" x1="409.98" y1="429.09" x2="411.71" y2="429.09"/><line class="f" x1="411.71" y1="429.09" x2="411.71" y2="424.78"/><line class="f" x1="375.41" y1="429.09" x2="373.69" y2="429.09"/><line class="f" x1="373.68" y1="429.09" x2="373.68" y2="424.78"/><line class="f" x1="411.71" y1="429.09" x2="411.71" y2="433.05"/><line class="f" x1="271.7" y1="405.84" x2="271.7" y2="424.78"/><line class="f" x1="271.7" y1="424.78" x2="247.5" y2="424.78"/><line class="f" x1="247.5" y1="424.78" x2="247.5" y2="405.84"/><line class="f" x1="247.5" y1="405.84" x2="271.7" y2="405.84"/><line class="f" x1="247.5" y1="402.4" x2="275.16" y2="402.4"/><line class="f" x1="275.16" y1="402.4" x2="275.16" y2="405.84"/><line class="f" x1="275.16" y1="405.84" x2="275.16" y2="424.78"/><line class="f" x1="271.7" y1="405.84" x2="275.16" y2="405.84"/><line class="f" x1="420.35" y1="424.78" x2="417.93" y2="424.78"/><line class="f" x1="337.39" y1="424.78" x2="373.68" y2="424.78"/><line class="f" x1="247.5" y1="402.4" x2="247.5" y2="405.84"/><line class="f" x1="271.7" y1="424.78" x2="275.16" y2="424.78"/><line class="f" x1="275.16" y1="424.78" x2="334.97" y2="424.78"/><line class="f" x1="465.64" y1="424.78" x2="465.64" y2="403.78"/><line class="f" x1="457.71" y1="411.67" x2="452.83" y2="416.54"/><line class="f" x1="452.83" y1="411.67" x2="457.71" y2="416.54"/><line class="f" x1="455.27" y1="417.55" x2="455.27" y2="410.66"/><line class="f" x1="458.73" y1="414.11" x2="451.81" y2="414.11"/><line class="f" x1="465.64" y1="403.78" x2="444.9" y2="403.78"/><line class="f" x1="466.51" y1="405.5" x2="485.52" y2="405.5"/><line class="f" x1="485.52" y1="405.5" x2="485.52" y2="422.72"/><line class="f" x1="485.52" y1="422.72" x2="466.5" y2="422.72"/><line class="f" x1="466.51" y1="422.72" x2="466.51" y2="405.5"/><line class="f" x1="465.64" y1="403.78" x2="486.38" y2="403.78"/><line class="f" x1="468.23" y1="407.22" x2="483.79" y2="407.22"/><line class="f" x1="483.79" y1="407.22" x2="483.79" y2="419.27"/><line class="f" x1="483.79" y1="419.27" x2="468.23" y2="419.27"/><line class="f" x1="468.23" y1="419.27" x2="468.23" y2="407.22"/><line class="f" x1="486.38" y1="424.78" x2="486.38" y2="403.78"/><line class="f" x1="486.38" y1="403.78" x2="507.13" y2="403.78"/><line class="f" x1="507.12" y1="403.78" x2="507.12" y2="424.78"/><line class="f" x1="551.37" y1="352.12" x2="551.37" y2="352.12"/><line class="f" x1="542.73" y1="383.11" x2="521.99" y2="383.11"/><line class="f" x1="521.99" y1="383.11" x2="521.99" y2="362.45"/><line class="f" x1="521.99" y1="362.45" x2="543.08" y2="362.45"/><line class="f" x1="521.05" y1="365.27" x2="521.05" y2="380.29"/><line class="f" x1="274.3" y1="396.37" x2="274.3" y2="365.38"/><line class="f" x1="270.84" y1="361.93" x2="253.55" y2="361.93"/><line class="f" x1="250.1" y1="365.38" x2="250.1" y2="396.37"/><line class="f" x1="253.55" y1="399.82" x2="270.84" y2="399.82"/><line class="f" x1="281.73" y1="360.21" x2="281.73" y2="363.65"/><line class="f" x1="281.73" y1="363.65" x2="302.47" y2="363.65"/><line class="f" x1="302.47" y1="363.65" x2="302.47" y2="360.21"/><line class="f" x1="302.47" y1="360.21" x2="301.43" y2="360.21"/><line class="f" x1="301.43" y1="360.21" x2="301.43" y2="362.62"/><line class="f" x1="301.43" y1="362.62" x2="282.77" y2="362.62"/><line class="f" x1="282.77" y1="362.62" x2="282.77" y2="360.21"/><line class="f" x1="282.77" y1="360.21" x2="281.73" y2="360.21"/><line class="f" x1="281.73" y1="360.21" x2="281.73" y2="363.65"/><line class="f" x1="302.47" y1="360.21" x2="302.47" y2="363.65"/><line class="f" x1="282.77" y1="360.21" x2="282.77" y2="362.62"/><line class="f" x1="301.43" y1="360.21" x2="301.43" y2="362.62"/><line class="f" x1="281.73" y1="363.65" x2="302.47" y2="363.65"/><line class="f" x1="281.73" y1="362.62" x2="302.47" y2="362.62"/><line class="f" x1="281.73" y1="360.21" x2="282.77" y2="360.21"/><line class="f" x1="301.43" y1="360.21" x2="302.47" y2="360.21"/><line class="f" x1="551.37" y1="393.44" x2="551.37" y2="372.78"/><line class="f" x1="551.37" y1="372.78" x2="551.37" y2="372.78"/><line class="f" x1="551.37" y1="393.44" x2="551.37" y2="393.44"/><line class="f" x1="521.99" y1="403.78" x2="521.99" y2="383.11"/><line class="f" x1="521.99" y1="383.11" x2="543.08" y2="383.11"/><line class="f" x1="543.08" y1="383.11" x2="543.08" y2="403.78"/><line class="f" x1="543.08" y1="403.78" x2="521.99" y2="403.78"/><line class="f" x1="485.7" y1="322.84" x2="502.98" y2="322.84"/><line class="f" x1="502.98" y1="322.84" x2="502.98" y2="295.29"/><line class="f" x1="502.98" y1="295.29" x2="485.7" y2="295.29"/><line class="f" x1="485.7" y1="295.29" x2="485.7" y2="322.84"/><line class="f" x1="444.55" y1="424.78" x2="444.55" y2="403.78"/><line class="f" x1="444.55" y1="403.78" x2="521.99" y2="403.78"/><line class="f" x1="521.99" y1="403.78" x2="521.99" y2="352.12"/><line class="f" x1="521.99" y1="352.12" x2="543.08" y2="352.12"/><line class="f" x1="543.08" y1="352.12" x2="543.08" y2="424.78"/><line class="f" x1="543.08" y1="424.78" x2="444.55" y2="424.78"/><line class="f" x1="276.02" y1="401.54" x2="276.02" y2="360.21"/><line class="f" x1="276.02" y1="360.21" x2="248.37" y2="360.21"/><line class="f" x1="248.37" y1="360.21" x2="248.37" y2="401.54"/><line class="f" x1="248.37" y1="401.54" x2="276.02" y2="401.54"/><line class="f" x1="300.74" y1="255.69" x2="328.4" y2="255.69"/><line class="f" x1="328.4" y1="255.69" x2="328.4" y2="257.86"/><line class="f" x1="328.4" y1="257.86" x2="300.74" y2="257.86"/><line class="f" x1="300.74" y1="257.86" x2="300.74" y2="255.69"/><line class="f" x1="461.49" y1="255.69" x2="509.89" y2="255.69"/><line class="f" x1="509.89" y1="255.69" x2="509.89" y2="259.13"/><line class="f" x1="509.89" y1="259.13" x2="461.49" y2="259.13"/><line class="f" x1="461.49" y1="259.13" x2="461.49" y2="255.69"/><g class="g"><path class="f" d="M476.7,415.83a.69.69,0,1,0-.69.69.69.69,0,0,0,.69-.69"/><path class="f" d="M538.41,393.44a6.05,6.05,0,1,0-6,6,6,6,0,0,0,6-6"/><path class="f" d="M537.37,393.44a5,5,0,1,0-5,5,5,5,0,0,0,5-5"/><path class="f" d="M540.84,377.85a3.39,3.39,0,1,0-3.39,3.39,3.38,3.38,0,0,0,3.39-3.39"/><path class="f" d="M530.66,377.85a3.39,3.39,0,1,0-3.39,3.39,3.39,3.39,0,0,0,3.39-3.39"/><path class="f" d="M530.66,367.71a3.39,3.39,0,1,0-3.39,3.38,3.38,3.38,0,0,0,3.39-3.38"/><path class="f" d="M254.42,396.37a.87.87,0,1,0-.87.86.87.87,0,0,0,.87-.86"/><path class="f" d="M274.3,396.37a3.46,3.46,0,0,1-3.46,3.45"/><path class="f" d="M270.84,361.93a3.45,3.45,0,0,1,3.45,3.45"/><path class="f" d="M253.55,399.82a3.45,3.45,0,0,1-3.45-3.45"/><path class="f" d="M250.1,365.38a3.45,3.45,0,0,1,3.45-3.45"/><path class="f" d="M333.58,256.77a1.73,1.73,0,1,0-1.72,1.73,1.72,1.72,0,0,0,1.72-1.73"/><path class="f" d="M515.08,257.41a1.73,1.73,0,1,0-1.73,1.72,1.73,1.73,0,0,0,1.73-1.72"/></g><line class="f" x1="243.18" y1="188.53" x2="547.05" y2="188.53"/><line class="f" x1="243.18" y1="185.09" x2="547.05" y2="185.09"/><line class="f" x1="243.18" y1="186.81" x2="547.05" y2="186.81"/><line class="f" x1="271.7" y1="424.78" x2="251.28" y2="421.33"/><line class="f" x1="251.28" y1="421.33" x2="247.5" y2="405.84"/><line class="f" x1="247.5" y1="405.84" x2="247.5" y2="424.78"/><line class="f" x1="247.5" y1="424.78" x2="271.7" y2="424.78"/><line class="f" x1="441.1" y1="424.78" x2="424.13" y2="421.33"/><line class="f" x1="424.13" y1="421.33" x2="420.35" y2="407.56"/><line class="f" x1="420.35" y1="407.56" x2="420.35" y2="424.78"/><line class="f" x1="420.35" y1="424.78" x2="441.1" y2="424.78"/><rect class="d" x="485.7" y="295.29" width="17.28" height="27.55"/><line class="f" x1="485.7" y1="295.29" x2="485.7" y2="322.84"/><line class="f" x1="502.98" y1="295.29" x2="485.7" y2="295.29"/><line class="f" x1="502.98" y1="322.84" x2="502.98" y2="295.29"/><line class="f" x1="485.7" y1="322.84" x2="502.98" y2="322.84"/><rect class="d" x="275.16" y="419.62" width="59.81" height="5.17"/><line class="f" x1="275.16" y1="419.62" x2="275.16" y2="424.78"/><line class="f" x1="334.97" y1="419.62" x2="275.16" y2="419.62"/><line class="f" x1="334.97" y1="424.78" x2="334.97" y2="419.62"/><line class="f" x1="275.16" y1="424.78" x2="334.97" y2="424.78"/><rect class="d" x="402.03" y="253.97" width="16.59" height="102.97"/><line class="f" x1="402.03" y1="253.97" x2="402.03" y2="356.94"/><line class="f" x1="418.63" y1="253.97" x2="402.03" y2="253.97"/><line class="f" x1="418.63" y1="356.94" x2="418.63" y2="253.97"/><line class="f" x1="402.03" y1="356.94" x2="418.63" y2="356.94"/><rect class="d" x="377.14" y="359.35" width="40.79" height="5.17"/><line class="f" x1="377.14" y1="359.35" x2="377.14" y2="364.52"/><line class="f" x1="417.93" y1="359.35" x2="377.14" y2="359.35"/><line class="f" x1="417.93" y1="364.52" x2="417.93" y2="359.35"/><line class="f" x1="377.14" y1="364.52" x2="417.93" y2="364.52"/><rect class="d" x="461.49" y="255.69" width="48.4" height="3.44"/><line class="f" x1="509.89" y1="259.13" x2="509.89" y2="255.69"/><line class="f" x1="461.49" y1="259.13" x2="509.89" y2="259.13"/><line class="f" x1="461.49" y1="255.69" x2="461.49" y2="259.13"/><line class="f" x1="509.89" y1="255.69" x2="461.49" y2="255.69"/><polygon class="d" points="512.12 258.63 511.62 257.41 512.12 256.19 513.35 255.69 514.57 256.19 515.08 257.41 514.57 258.63 513.35 259.13 512.12 258.63"/><g class="g"><path class="f" d="M515.08,257.41a1.73,1.73,0,0,1-3.46,0"/><path class="f" d="M511.62,257.41a1.73,1.73,0,0,1,3.46,0"/></g><polygon class="d" points="330.63 257.99 330.13 256.77 330.63 255.56 331.86 255.05 333.07 255.56 333.58 256.77 333.07 257.99 331.86 258.5 330.63 257.99"/><g class="g"><path class="f" d="M333.58,256.77a1.73,1.73,0,1,1-3.45,0"/><path class="f" d="M330.13,256.77a1.73,1.73,0,0,1,3.45,0"/></g><rect class="d" x="300.74" y="255.69" width="27.66" height="2.17"/><line class="f" x1="328.4" y1="255.69" x2="300.74" y2="255.69"/><line class="f" x1="328.4" y1="257.86" x2="328.4" y2="255.69"/><line class="f" x1="300.74" y1="257.86" x2="328.4" y2="257.86"/><line class="f" x1="300.74" y1="255.69" x2="300.74" y2="257.86"/><rect class="d" x="281.73" y="360.21" width="1.04" height="2.41"/><line class="f" x1="281.73" y1="360.21" x2="281.73" y2="362.62"/><line class="f" x1="282.77" y1="360.21" x2="281.73" y2="360.21"/><line class="f" x1="282.77" y1="362.62" x2="282.77" y2="360.21"/><line class="f" x1="281.73" y1="362.62" x2="282.77" y2="362.62"/><rect class="d" x="281.73" y="362.62" width="20.74" height="1.03"/><line class="f" x1="302.47" y1="362.62" x2="281.73" y2="362.62"/><line class="f" x1="302.47" y1="363.65" x2="302.47" y2="362.62"/><line class="f" x1="281.73" y1="363.65" x2="302.47" y2="363.65"/><line class="f" x1="281.73" y1="362.62" x2="281.73" y2="363.65"/><rect class="d" x="301.43" y="360.21" width="1.04" height="2.41"/><line class="f" x1="301.43" y1="360.21" x2="301.43" y2="362.62"/><line class="f" x1="302.47" y1="360.21" x2="301.43" y2="360.21"/><line class="f" x1="302.47" y1="362.62" x2="302.47" y2="360.21"/><line class="f" x1="301.43" y1="362.62" x2="302.47" y2="362.62"/><g class="g"><path class="f" d="M235.75,341.1a3.45,3.45,0,0,1,3.46,3.44"/></g><polygon class="d" points="257.87 336.62 247.5 336.62 247.5 274.63 309.73 274.63 312.38 275.15 314.62 276.65 316.12 278.88 316.64 281.52 316.64 329.73 316.12 332.37 314.62 334.6 312.38 336.1 309.73 336.62 257.87 336.62"/><rect class="d" x="247.5" y="262.58" width="10.37" height="12.05"/><rect class="d" x="247.5" y="336.62" width="10.37" height="12.05"/><line class="f" x1="259" y1="307.57" x2="256.01" y2="308.4"/><line class="f" x1="259" y1="278.66" x2="256.01" y2="279.48"/><line class="f" x1="316.64" y1="329.73" x2="316.64" y2="281.52"/><line class="f" x1="309.73" y1="274.63" x2="247.5" y2="274.63"/><line class="f" x1="247.5" y1="274.63" x2="247.5" y2="336.62"/><line class="f" x1="247.5" y1="336.62" x2="309.73" y2="336.62"/><line class="f" x1="247.5" y1="274.63" x2="247.5" y2="262.58"/><line class="f" x1="247.5" y1="262.58" x2="257.87" y2="262.58"/><line class="f" x1="257.87" y1="262.58" x2="257.87" y2="274.63"/><line class="f" x1="257.87" y1="274.63" x2="247.5" y2="274.63"/><line class="f" x1="247.5" y1="348.67" x2="247.5" y2="336.62"/><line class="f" x1="247.5" y1="336.62" x2="257.87" y2="336.62"/><line class="f" x1="257.87" y1="336.62" x2="257.87" y2="348.67"/><line class="f" x1="257.87" y1="348.67" x2="247.5" y2="348.67"/><line class="f" x1="270.51" y1="274.63" x2="270.51" y2="336.62"/><line class="f" x1="275.69" y1="274.63" x2="275.69" y2="336.62"/><g class="g"><path class="f" d="M265.27,303a96.69,96.69,0,0,1-.35-22.44"/><path class="f" d="M263,278.33h.1a1.84,1.84,0,0,1,1.85,1.84,1.83,1.83,0,0,1-.05.4"/><path class="f" d="M259,278.66a14.33,14.33,0,0,1,3.2-.35c.27,0,.55,0,.82,0"/><path class="f" d="M251.28,278.46c.83,0,1.67-.06,2.5-.06,1.74,0,3.48.09,5.22.26"/><path class="f" d="M250.78,278.92a.28.28,0,0,1,0-.09.4.4,0,0,1,.39-.39l.12,0"/><path class="f" d="M250.78,278.92q.57,7.4.57,14.81,0,4.68-.23,9.35"/><path class="f" d="M252.37,304.2a1.12,1.12,0,0,1-.31.05,1,1,0,0,1-1-1,1.49,1.49,0,0,1,0-.21"/><path class="f" d="M252.37,304.2a46.36,46.36,0,0,1,11.92-.18"/><path class="f" d="M265.27,303a1,1,0,0,1,0,.24.79.79,0,0,1-.79.8.78.78,0,0,1-.22,0"/><path class="f" d="M309.73,274.63a6.89,6.89,0,0,1,6.91,6.89"/><path class="f" d="M316.64,329.73a6.89,6.89,0,0,1-6.91,6.89"/><path class="f" d="M265.27,331.93a96.78,96.78,0,0,1-.35-22.45"/><path class="f" d="M263,307.25h.1a1.85,1.85,0,0,1,1.85,1.85,1.74,1.74,0,0,1-.05.39"/><path class="f" d="M259,307.57a14.94,14.94,0,0,1,3.2-.35c.27,0,.55,0,.82,0"/><path class="f" d="M251.28,307.38c.83,0,1.67-.06,2.5-.06,1.74,0,3.48.09,5.22.25"/><path class="f" d="M250.78,307.84a.28.28,0,0,1,0-.09.4.4,0,0,1,.39-.39l.12,0"/><path class="f" d="M250.78,307.84c.38,4.92.57,9.87.57,14.81q0,4.68-.23,9.35"/><path class="f" d="M252.37,333.11a1.12,1.12,0,0,1-.31.05,1,1,0,0,1-1-1,1.5,1.5,0,0,1,0-.2"/><path class="f" d="M252.37,333.11a46.17,46.17,0,0,1,6.65-.48,44.23,44.23,0,0,1,5.27.31"/><path class="f" d="M265.27,331.93a1,1,0,0,1,0,.24.79.79,0,0,1-.79.8.78.78,0,0,1-.22,0"/></g><polygon class="d" points="409.3 317.08 407.38 309.22 407.38 306.93 406.33 303.28 406.33 299.46 407.38 295.81 407.38 293.52 409.3 285.67 411.22 285.67 411.22 296.39 412.6 298.1 413.34 300.23 413.34 302.51 412.6 304.64 411.22 306.34 411.22 317.08 409.3 317.08"/><line class="f" x1="411.22" y1="317.07" x2="411.22" y2="306.34"/><line class="f" x1="409.3" y1="317.07" x2="411.22" y2="317.07"/><line class="f" x1="407.38" y1="309.22" x2="409.3" y2="317.07"/><line class="f" x1="407.38" y1="306.93" x2="407.38" y2="309.22"/><line class="f" x1="406.33" y1="303.28" x2="407.38" y2="306.93"/><line class="f" x1="406.33" y1="299.46" x2="406.33" y2="303.28"/><line class="f" x1="407.38" y1="295.81" x2="406.33" y2="299.46"/><line class="f" x1="407.38" y1="293.52" x2="407.38" y2="295.81"/><line class="f" x1="409.3" y1="285.67" x2="407.38" y2="293.52"/><line class="f" x1="411.22" y1="285.67" x2="409.3" y2="285.67"/><line class="f" x1="411.22" y1="296.4" x2="411.22" y2="285.67"/><line class="f" x1="412.6" y1="298.1" x2="411.22" y2="296.4"/><line class="f" x1="413.34" y1="300.23" x2="412.6" y2="298.1"/><line class="f" x1="413.34" y1="302.51" x2="413.34" y2="300.23"/><line class="f" x1="412.6" y1="304.64" x2="413.34" y2="302.51"/><line class="f" x1="411.22" y1="306.34" x2="412.6" y2="304.64"/><line class="f" x1="411.22" y1="317.07" x2="411.22" y2="285.67"/><line class="f" x1="407.38" y1="293.52" x2="407.38" y2="309.22"/><line class="f" x1="409.3" y1="317.07" x2="411.22" y2="317.07"/><line class="f" x1="410.45" y1="287.76" x2="410.45" y2="289.85"/><line class="f" x1="410.45" y1="289.85" x2="409.97" y2="289.85"/><line class="f" x1="409.97" y1="289.85" x2="409.97" y2="287.76"/><line class="f" x1="409.97" y1="287.76" x2="410.45" y2="287.76"/><line class="f" x1="410.45" y1="290.38" x2="410.45" y2="292.47"/><line class="f" x1="410.45" y1="292.47" x2="409.97" y2="292.47"/><line class="f" x1="409.97" y1="292.47" x2="409.97" y2="290.38"/><line class="f" x1="409.97" y1="290.38" x2="410.45" y2="290.38"/><line class="f" x1="409.3" y1="317.07" x2="409.3" y2="285.67"/><line class="f" x1="409.97" y1="293" x2="410.45" y2="293"/><line class="f" x1="410.45" y1="293" x2="410.45" y2="294.04"/><line class="f" x1="410.45" y1="294.04" x2="409.97" y2="294.04"/><line class="f" x1="409.97" y1="294.04" x2="409.97" y2="293"/><g class="g"><path class="f" d="M411.22,296.4a6.67,6.67,0,0,1,0,9.94"/></g><polygon class="d" points="513.36 333.18 511.63 332.71 510.36 331.45 509.9 329.73 509.9 328.7 510.1 328.21 510.59 328.01 510.09 327.6 509.9 326.98 509.9 289.44 510.09 288.84 510.59 288.46 509.96 288.1 509.9 287.37 509.9 261.89 509.87 261.41 510.13 261.01 510.59 260.85 538.59 260.85 539.08 261.06 539.28 261.54 539.28 332.49 539.08 332.98 538.59 333.18 513.36 333.18"/><polygon class="d" points="487.43 288.41 484.78 287.88 482.54 286.39 481.04 284.15 480.51 281.52 480.51 267.74 481.04 265.11 482.54 262.87 484.78 261.38 487.43 260.86 508.86 260.86 509.59 261.16 509.9 261.89 509.9 287.37 509.59 288.1 508.86 288.41 487.43 288.41"/><g class="g"><path class="f" d="M487.43,288.41a6.91,6.91,0,0,1-6.92-6.89"/></g><line class="f" x1="480.51" y1="281.52" x2="480.51" y2="267.74"/><g class="g"><path class="f" d="M480.51,267.74a6.91,6.91,0,0,1,6.92-6.89"/></g><line class="f" x1="487.43" y1="260.85" x2="508.86" y2="260.85"/><g class="g"><path class="f" d="M508.86,260.85a1,1,0,0,1,1,1"/></g><line class="f" x1="509.9" y1="261.89" x2="509.9" y2="287.37"/><g class="g"><path class="f" d="M509.9,287.37a1,1,0,0,1-1,1"/></g><line class="f" x1="508.86" y1="288.41" x2="487.43" y2="288.41"/><line class="f" x1="509.9" y1="328.7" x2="509.9" y2="329.73"/><line class="f" x1="513.35" y1="333.18" x2="538.59" y2="333.18"/><line class="f" x1="539.28" y1="332.49" x2="539.28" y2="328.7"/><line class="f" x1="538.59" y1="328.01" x2="510.59" y2="328.01"/><line class="f" x1="539.28" y1="328.7" x2="539.28" y2="288.41"/><line class="f" x1="539.28" y1="288.41" x2="536.86" y2="288.41"/><line class="f" x1="509.9" y1="289.44" x2="509.9" y2="326.98"/><line class="f" x1="510.93" y1="328.01" x2="528.27" y2="328.01"/><line class="f" x1="528.27" y1="288.41" x2="510.93" y2="288.41"/><line class="f" x1="536.86" y1="328.01" x2="530.34" y2="328.01"/><line class="f" x1="530.34" y1="288.41" x2="536.86" y2="288.41"/><line class="f" x1="509.9" y1="265.33" x2="509.9" y2="261.54"/><line class="f" x1="510.59" y1="260.85" x2="538.59" y2="260.85"/><line class="f" x1="539.28" y1="261.54" x2="539.28" y2="265.33"/><line class="f" x1="539.28" y1="265.33" x2="539.28" y2="288.41"/><line class="f" x1="539.28" y1="288.41" x2="536.86" y2="288.41"/><line class="f" x1="509.9" y1="287.37" x2="509.9" y2="267.05"/><line class="f" x1="528.27" y1="288.41" x2="510.93" y2="288.41"/><line class="f" x1="528.27" y1="288.41" x2="536.86" y2="288.41"/><line class="f" x1="480.51" y1="281.52" x2="480.51" y2="267.74"/><line class="f" x1="487.43" y1="260.85" x2="508.86" y2="260.85"/><line class="f" x1="509.9" y1="261.89" x2="509.9" y2="287.37"/><line class="f" x1="508.86" y1="288.41" x2="487.43" y2="288.41"/><line class="f" x1="537.9" y1="287.37" x2="537.9" y2="261.89"/><line class="f" x1="537.9" y1="289.44" x2="537.9" y2="326.98"/><g class="g"><path class="f" d="M539.28,332.49a.69.69,0,0,1-.69.69"/><path class="f" d="M538.59,328a.69.69,0,0,1,.69.69"/><path class="f" d="M509.9,328.7a.69.69,0,0,1,.69-.69"/><path class="f" d="M510.93,328a1,1,0,0,1-1-1"/><path class="f" d="M509.9,289.44a1,1,0,0,1,1-1"/><path class="f" d="M509.9,261.54a.69.69,0,0,1,.69-.69"/><path class="f" d="M538.59,260.85a.69.69,0,0,1,.69.69"/><path class="f" d="M510.93,288.41a1,1,0,0,1-1-1"/><path class="f" d="M508.86,260.85a1,1,0,0,1,1,1"/><path class="f" d="M509.9,287.37a1,1,0,0,1-1,1"/></g><line class="f" x1="537.9" y1="261.89" x2="514.35" y2="261.89"/><g class="g"><path class="f" d="M519.11,263.13a19.54,19.54,0,0,1,15.47,19.09,19,19,0,0,1-.71,5.19"/><path class="f" d="M533.06,327a117.41,117.41,0,0,1,0-37.54"/><path class="f" d="M487.43,288.41a6.91,6.91,0,0,1-6.92-6.89"/><path class="f" d="M480.51,267.74a6.91,6.91,0,0,1,6.92-6.89"/><path class="f" d="M513.35,333.18a3.46,3.46,0,0,1-3.45-3.45"/></g><polygon class="d" points="459.52 341.93 459.05 340.21 459.51 338.48 460.77 337.22 466.75 333.76 468.47 333.29 470.2 333.75 471.47 335.02 475.33 341.69 471.76 342.17 468.44 343.55 465.58 345.75 463.39 348.61 459.52 341.93"/><polygon class="d" points="466.82 377.26 460.83 373.82 459.56 372.56 459.1 370.83 459.56 369.11 463.41 362.42 465.61 365.27 468.47 367.46 471.81 368.83 475.38 369.3 471.53 375.99 470.27 377.25 468.54 377.72 466.82 377.26"/><polygon class="d" points="488.7 359.05 489.17 355.48 488.69 351.9 487.31 348.57 495.02 348.56 496.75 349.02 498.02 350.29 498.48 352.01 498.49 358.91 498.03 360.64 496.77 361.91 495.05 362.37 487.33 362.38 488.7 359.05"/><polygon class="d" points="471.81 368.83 468.47 367.46 465.61 365.27 463.41 362.42 462.02 359.09 461.55 355.52 462.01 351.94 463.39 348.61 465.58 345.75 468.43 343.55 471.76 342.17 475.33 341.69 478.91 342.16 482.24 343.53 485.11 345.72 487.31 348.57 488.69 351.9 489.17 355.48 488.7 359.05 487.33 362.38 485.13 365.24 482.28 367.44 478.95 368.82 475.38 369.3 471.81 368.83"/><line class="f" x1="478.91" y1="342.16" x2="475.33" y2="341.69"/><line class="f" x1="482.24" y1="343.53" x2="478.91" y2="342.16"/><line class="f" x1="485.11" y1="345.72" x2="482.24" y2="343.53"/><line class="f" x1="487.31" y1="348.57" x2="485.11" y2="345.72"/><line class="f" x1="488.69" y1="351.9" x2="487.31" y2="348.57"/><line class="f" x1="489.17" y1="355.48" x2="488.69" y2="351.9"/><line class="f" x1="488.7" y1="359.05" x2="489.17" y2="355.48"/><line class="f" x1="487.33" y1="362.38" x2="488.7" y2="359.05"/><line class="f" x1="485.13" y1="365.24" x2="487.33" y2="362.38"/><line class="f" x1="482.28" y1="367.44" x2="485.13" y2="365.24"/><line class="f" x1="478.95" y1="368.82" x2="482.28" y2="367.44"/><line class="f" x1="475.38" y1="369.3" x2="478.95" y2="368.82"/><line class="f" x1="471.8" y1="368.83" x2="475.38" y2="369.3"/><line class="f" x1="468.47" y1="367.46" x2="471.81" y2="368.83"/><line class="f" x1="465.61" y1="365.27" x2="468.47" y2="367.46"/><line class="f" x1="463.41" y1="362.42" x2="465.61" y2="365.27"/><line class="f" x1="462.02" y1="359.09" x2="463.41" y2="362.41"/><line class="f" x1="461.55" y1="355.52" x2="462.02" y2="359.09"/><line class="f" x1="462.01" y1="351.94" x2="461.55" y2="355.52"/><line class="f" x1="463.39" y1="348.61" x2="462.02" y2="351.94"/><line class="f" x1="465.58" y1="345.75" x2="463.39" y2="348.61"/><line class="f" x1="468.43" y1="343.55" x2="465.58" y2="345.75"/><line class="f" x1="471.76" y1="342.17" x2="468.44" y2="343.55"/><line class="f" x1="475.33" y1="341.69" x2="471.76" y2="342.17"/><g class="g"><path class="f" d="M489.16,355.47a13.81,13.81,0,1,1-27.61,0"/><path class="f" d="M461.55,355.51a13.81,13.81,0,0,1,27.61,0"/></g><line class="f" x1="461.64" y1="338.71" x2="467.61" y2="335.25"/><line class="f" x1="471.47" y1="335.02" x2="475.33" y2="341.69"/><line class="f" x1="460.77" y1="337.22" x2="466.75" y2="333.76"/><line class="f" x1="463.39" y1="348.61" x2="459.52" y2="341.93"/><line class="f" x1="467.68" y1="375.76" x2="461.69" y2="372.32"/><line class="f" x1="459.56" y1="369.11" x2="463.41" y2="362.41"/><line class="f" x1="466.82" y1="377.26" x2="460.83" y2="373.82"/><line class="f" x1="475.38" y1="369.3" x2="471.53" y2="375.99"/><line class="f" x1="496.75" y1="352.01" x2="496.77" y2="358.92"/><line class="f" x1="495.05" y1="362.37" x2="487.33" y2="362.38"/><line class="f" x1="498.48" y1="352.01" x2="498.49" y2="358.91"/><line class="f" x1="487.31" y1="348.57" x2="495.02" y2="348.56"/><g class="g"><path class="f" d="M467.61,335.25a1.77,1.77,0,0,1,.87-.23,1.71,1.71,0,0,1,1.49.86"/><path class="f" d="M461,341.07a1.73,1.73,0,0,1,.63-2.36"/><path class="f" d="M466.75,333.76a3.38,3.38,0,0,1,1.73-.47,3.47,3.47,0,0,1,3,1.72"/><path class="f" d="M459.52,341.93a3.45,3.45,0,0,1,1.26-4.71"/><path class="f" d="M461.69,372.32a1.73,1.73,0,0,1-.86-1.49,1.52,1.52,0,0,1,.23-.86"/><path class="f" d="M470,375.13a1.75,1.75,0,0,1-1.49.87,1.78,1.78,0,0,1-.87-.24"/><path class="f" d="M460.83,373.82a3.46,3.46,0,0,1-1.73-3,3.53,3.53,0,0,1,.46-1.73"/><path class="f" d="M471.53,376a3.45,3.45,0,0,1-4.71,1.27"/><path class="f" d="M496.77,358.91h0a1.73,1.73,0,0,1-1.73,1.73"/><path class="f" d="M495,350.29a1.73,1.73,0,0,1,1.73,1.72"/><path class="f" d="M498.49,358.91a3.45,3.45,0,0,1-3.44,3.46"/><path class="f" d="M495,348.56a3.45,3.45,0,0,1,3.46,3.45"/></g><polygon class="d" points="307.95 419.62 307.58 419.46 307.43 419.1 307.43 404.98 307.58 404.62 307.95 404.46 325.93 404.46 326.29 404.62 326.44 404.98 326.44 419.1 326.29 419.46 325.93 419.62 307.95 419.62"/><line class="f" x1="325.93" y1="419.62" x2="307.95" y2="419.62"/><g class="g"><path class="f" d="M308,419.62a.52.52,0,0,1-.52-.52"/></g><line class="f" x1="307.43" y1="419.1" x2="307.43" y2="404.98"/><g class="g"><path class="f" d="M307.43,405a.52.52,0,0,1,.52-.52"/></g><line class="f" x1="307.95" y1="404.46" x2="325.93" y2="404.46"/><g class="g"><path class="f" d="M325.93,404.46a.52.52,0,0,1,.51.52"/></g><line class="f" x1="326.44" y1="404.98" x2="326.44" y2="419.1"/><g class="g"><path class="f" d="M326.44,419.1a.51.51,0,0,1-.51.52"/></g><line class="f" x1="324.89" y1="415.83" x2="308.99" y2="415.83"/><line class="f" x1="308.47" y1="415.31" x2="308.47" y2="406.01"/><line class="f" x1="308.99" y1="405.5" x2="324.89" y2="405.5"/><line class="f" x1="325.41" y1="406.01" x2="325.41" y2="415.31"/><g class="g"><path class="f" d="M309,415.83a.52.52,0,0,1-.52-.52"/><path class="f" d="M308.47,406a.51.51,0,0,1,.52-.51"/><path class="f" d="M324.89,405.5a.51.51,0,0,1,.52.51"/><path class="f" d="M325.41,415.31a.52.52,0,0,1-.52.52"/></g><polygon class="d" points="316.33 418.16 316.07 417.55 316.21 416.11 316.32 415.78 316.55 413.96 316.68 413.71 316.94 413.62 317.19 413.71 317.32 413.96 317.55 415.78 317.66 416.11 317.8 417.55 317.55 418.16 316.94 418.41 316.33 418.16"/><g class="g"><path class="f" d="M317.8,417.55a.87.87,0,0,1-1.73,0"/></g><line class="f" x1="316.21" y1="416.11" x2="316.07" y2="417.55"/><g class="g"><path class="f" d="M316.21,416.11a.76.76,0,0,1,.11-.33"/></g><line class="f" x1="316.55" y1="413.96" x2="316.32" y2="415.78"/><g class="g"><path class="f" d="M316.55,414a.39.39,0,0,1,.39-.34.38.38,0,0,1,.38.34"/></g><line class="f" x1="317.55" y1="415.78" x2="317.32" y2="413.96"/><g class="g"><path class="f" d="M317.55,415.78a.76.76,0,0,1,.11.33"/></g><line class="f" x1="317.8" y1="417.55" x2="317.66" y2="416.11"/><line class="f" x1="316.47" y1="416.69" x2="316.47" y2="416.18"/><line class="f" x1="317.41" y1="416.18" x2="317.41" y2="416.69"/><line class="f" x1="317.41" y1="416.69" x2="316.47" y2="416.69"/><g class="g"><path class="f" d="M316.47,416.18a.47.47,0,1,1,.94,0"/><path class="f" d="M316.32,415.78a.74.74,0,0,1,.62-.33.72.72,0,0,1,.61.33"/></g><rect class="d" x="378.87" y="253.97" width="20.74" height="51.83"/><line class="f" x1="399.61" y1="305.8" x2="399.61" y2="253.97"/><line class="f" x1="399.61" y1="253.97" x2="378.87" y2="253.97"/><line class="f" x1="378.87" y1="253.97" x2="378.87" y2="305.8"/><line class="f" x1="378.87" y1="305.8" x2="399.61" y2="305.8"/><line class="f" x1="389.24" y1="303.21" x2="389.24" y2="256.56"/><line class="f" x1="395.34" y1="300.8" x2="382.92" y2="296.42"/><line class="f" x1="395.96" y1="295.86" x2="384.4" y2="294.05"/><line class="f" x1="381.76" y1="289.11" x2="394.45" y2="287.62"/><line class="f" x1="383.43" y1="281.46" x2="394.45" y2="283.49"/><line class="f" x1="382.79" y1="278.68" x2="396.38" y2="278.68"/><line class="f" x1="382.74" y1="270.8" x2="396.16" y2="272.67"/><line class="f" x1="382.96" y1="267.85" x2="395.22" y2="267.85"/><line class="f" x1="382.84" y1="260.08" x2="395.41" y2="258.58"/><line class="f" x1="383.69" y1="261.95" x2="394.32" y2="263.47"/><rect class="d" x="378.87" y="305.8" width="20.74" height="51.14"/><line class="f" x1="399.61" y1="356.94" x2="399.61" y2="305.8"/><line class="f" x1="399.61" y1="305.8" x2="378.87" y2="305.8"/><line class="f" x1="378.87" y1="305.8" x2="378.87" y2="356.94"/><line class="f" x1="378.87" y1="356.94" x2="399.61" y2="356.94"/><line class="f" x1="389.24" y1="354.38" x2="389.24" y2="308.36"/><line class="f" x1="395.34" y1="352.01" x2="382.92" y2="347.68"/><line class="f" x1="395.96" y1="347.13" x2="384.4" y2="345.35"/><line class="f" x1="381.76" y1="340.47" x2="394.45" y2="339"/><line class="f" x1="383.43" y1="332.93" x2="394.45" y2="334.93"/><line class="f" x1="382.79" y1="330.18" x2="396.38" y2="330.18"/><line class="f" x1="382.74" y1="322.41" x2="396.16" y2="324.25"/><line class="f" x1="382.96" y1="319.5" x2="395.22" y2="319.5"/><line class="f" x1="382.84" y1="311.83" x2="395.41" y2="310.36"/><line class="f" x1="383.69" y1="313.67" x2="394.32" y2="315.17"/><polygon class="d" points="286.18 419.62 286.18 408.25 286.45 406.55 287.22 405.01 288.43 403.78 290.39 402.75 292.57 402.4 294.76 402.75 296.72 403.78 297.93 405.01 298.71 406.55 298.97 408.25 298.97 419.62 286.18 419.62"/><line class="f" x1="286.18" y1="419.62" x2="286.18" y2="408.25"/><line class="f" x1="286.18" y1="419.62" x2="298.97" y2="419.62"/><line class="f" x1="298.97" y1="419.62" x2="298.97" y2="408.25"/><line class="f" x1="288.25" y1="415.49" x2="288.25" y2="408.25"/><line class="f" x1="296.9" y1="415.49" x2="296.9" y2="408.25"/><line class="f" x1="296.9" y1="415.49" x2="288.25" y2="415.49"/><g class="g"><path class="f" d="M286.18,408.25a5.56,5.56,0,0,1,2.25-4.47"/><path class="f" d="M296.72,403.78a5.56,5.56,0,0,1,2.25,4.47"/><path class="f" d="M288.43,403.78a6.92,6.92,0,0,1,8.29,0"/><path class="f" d="M296.72,403.78a5.56,5.56,0,0,1,2.25,4.47"/><path class="f" d="M292.58,402.4a6.87,6.87,0,0,1,4.14,1.38"/><path class="f" d="M295.48,405.43a3.53,3.53,0,0,1,1.42,2.82"/><path class="f" d="M289.67,405.43a4.84,4.84,0,0,1,5.81,0"/><path class="f" d="M288.25,408.25a3.53,3.53,0,0,1,1.42-2.82"/></g><line class="f" x1="494.76" y1="417.99" x2="494.76" y2="412.21"/><line class="f" x1="494.76" y1="412.21" x2="497.11" y2="414.11"/><line class="f" x1="497.11" y1="414.11" x2="499.47" y2="412.21"/><line class="f" x1="499.47" y1="412.21" x2="499.47" y2="417.99"/><rect x="239.21" y="247.08" width="47.71" height="6.89"/><polygon points="411.71 433.05 411.71 424.78 543.08 424.78 543.08 253.97 551.38 253.97 551.38 424.78 551.38 433.05 411.71 433.05"/><polygon points="247.5 433.05 239.21 433.05 239.21 253.97 247.5 253.97 247.5 424.78 373.68 424.78 373.68 433.05 247.5 433.05"/><polygon points="239.21 247.08 239.21 240.19 243.18 240.19 288.64 240.19 288.64 247.08 239.21 247.08"/><polygon points="513.35 247.08 513.35 240.19 547.05 240.19 551.37 240.19 551.37 247.08 513.35 247.08"/><rect x="375.07" y="240.19" width="51.86" height="6.89"/><rect x="376.8" y="247.08" width="48.4" height="6.89"/><rect x="515.08" y="247.08" width="36.3" height="6.89"/><polygon points="334.97 367.96 334.97 359.35 247.5 359.35 247.5 356.94 342.57 356.94 342.57 359.35 337.39 359.35 337.39 367.96 334.97 367.96"/><polygon points="417.94 367.96 417.94 359.35 373.68 359.35 373.68 356.94 399.61 356.94 399.61 253.97 402.03 253.97 402.03 356.94 420.35 356.94 420.35 367.96 417.94 367.96"/><rect x="409.98" y="429.09" width="1.73" height="3.96"/><rect x="373.69" y="429.09" width="1.73" height="3.96"/><rect x="247.5" y="402.4" width="27.66" height="3.44"/><rect x="271.7" y="405.84" width="3.46" height="18.94"/><polygon points="417.94 424.78 417.94 398.95 420.35 398.95 420.35 404.12 420.35 424.78 417.94 424.78"/><rect x="334.97" y="395.51" width="2.42" height="29.27"/><rect x="243.18" y="188.53" width="1.55" height="51.66"/><rect x="545.67" y="188.53" width="1.38" height="51.66"/><polygon points="441.09 424.78 441.09 407.56 420.35 407.56 420.35 404.12 444.55 404.12 444.55 424.78 441.09 424.78"/><line class="f" x1="239.21" y1="433.05" x2="551.37" y2="433.05"/><line class="f" x1="551.37" y1="433.05" x2="551.37" y2="240.19"/><line class="f" x1="551.37" y1="240.19" x2="547.05" y2="240.19"/><line class="f" x1="547.05" y1="240.19" x2="547.05" y2="185.08"/><line class="f" x1="547.05" y1="185.08" x2="243.18" y2="185.08"/><line class="f" x1="243.18" y1="185.08" x2="243.18" y2="240.19"/><line class="f" x1="243.18" y1="240.19" x2="239.21" y2="240.19"/><line class="f" x1="239.21" y1="240.19" x2="239.21" y2="433.05"/><path class="h" d="M442.66,214.4v7h-.72V215h-1.65v-.64Z"/><path class="h" d="M444.34,220.9a.53.53,0,0,1,.53-.54.54.54,0,0,1,.54.54.55.55,0,0,1-.54.55A.54.54,0,0,1,444.34,220.9Z"/><path class="h" d="M446.35,217.9c0-2.23,1.17-3.56,2.79-3.56s2.8,1.33,2.8,3.56-1.18,3.56-2.8,3.56S446.35,220.13,446.35,217.9Zm4.85,0c0-1.87-.84-2.9-2.06-2.9s-2.06,1-2.06,2.9.84,2.9,2.06,2.9S451.2,219.77,451.2,217.9Z"/><path class="h" d="M457.72,219.34c0,1.19-.83,2.12-2.54,2.12a3.61,3.61,0,0,1-2.51-.9L453,220a3,3,0,0,0,2.15.81c1.19,0,1.82-.58,1.82-1.43s-.56-1.46-2.34-1.46h-1.49l.36-3.51h3.83V215h-3.2l-.24,2.23h.9C456.92,217.27,457.72,218.1,457.72,219.34Z"/><path class="h" d="M297.53,381v7h-.72v-6.36h-1.65V381Z"/><path class="h" d="M299.21,387.54a.53.53,0,0,1,.53-.54.54.54,0,0,1,.54.54.55.55,0,0,1-.54.55A.54.54,0,0,1,299.21,387.54Z"/><path class="h" d="M301.22,384.54c0-2.23,1.17-3.56,2.79-3.56s2.8,1.33,2.8,3.56-1.18,3.56-2.8,3.56S301.22,386.77,301.22,384.54Zm4.85,0c0-1.87-.84-2.9-2.06-2.9s-2.06,1-2.06,2.9.84,2.9,2.06,2.9S306.07,386.41,306.07,384.54Z"/><path class="h" d="M313.79,386.2h-1.4V388h-.72V386.2h-3.95v-.52l3.71-4.64h.8l-3.58,4.52h3v-1.62h.7v1.62h1.4Z"/><path class="h" d="M336.36,306.09v7h-.72v-6.36H334v-.64Z"/><path class="h" d="M338,312.59a.53.53,0,0,1,.53-.54.54.54,0,0,1,.54.54.55.55,0,0,1-.54.55A.54.54,0,0,1,338,312.59Z"/><path class="h" d="M340.05,309.59c0-2.23,1.17-3.56,2.79-3.56s2.8,1.33,2.8,3.56-1.18,3.56-2.8,3.56S340.05,311.82,340.05,309.59Zm4.85,0c0-1.87-.84-2.9-2.06-2.9s-2.06,1-2.06,2.9.84,2.9,2.06,2.9S344.9,311.46,344.9,309.59Z"/><path class="h" d="M351.21,311.08c0,1.17-.85,2.07-2.54,2.07a3.64,3.64,0,0,1-2.52-.9l.35-.57a3.07,3.07,0,0,0,2.17.81c1.16,0,1.8-.54,1.8-1.41s-.59-1.39-1.89-1.39h-.5v-.53l1.94-2.43h-3.58v-.64h4.5v.51l-2,2.49C350.46,309.17,351.21,310,351.21,311.08Z"/><path class="h" d="M442.66,306.09v7h-.72v-6.36h-1.65v-.64Z"/><path class="h" d="M444.34,312.59a.53.53,0,0,1,.53-.54.54.54,0,0,1,.54.54.55.55,0,0,1-.54.55A.54.54,0,0,1,444.34,312.59Z"/><path class="h" d="M446.35,309.59c0-2.23,1.17-3.56,2.79-3.56s2.8,1.33,2.8,3.56-1.18,3.56-2.8,3.56S446.35,311.82,446.35,309.59Zm4.85,0c0-1.87-.84-2.9-2.06-2.9s-2.06,1-2.06,2.9.84,2.9,2.06,2.9S451.2,311.46,451.2,309.59Z"/><path class="h" d="M457.74,312.45v.64h-4.91v-.51l2.91-2.85c.79-.78.94-1.25.94-1.73,0-.81-.57-1.31-1.64-1.31a2.38,2.38,0,0,0-1.91.78l-.51-.44a3.15,3.15,0,0,1,2.48-1c1.42,0,2.32.72,2.32,1.89a2.88,2.88,0,0,1-1.15,2.19l-2.38,2.34Z"/><path class="h" d="M380.3,381v7h-.72v-6.36h-1.65V381Z"/><path class="h" d="M382,387.54a.53.53,0,0,1,.53-.54.54.54,0,0,1,.54.54.55.55,0,0,1-.54.55A.54.54,0,0,1,382,387.54Z"/><path class="h" d="M384,384.54c0-2.23,1.17-3.56,2.79-3.56s2.8,1.33,2.8,3.56-1.18,3.56-2.8,3.56S384,386.77,384,384.54Zm4.85,0c0-1.87-.84-2.9-2.06-2.9s-2.06,1-2.06,2.9.84,2.9,2.06,2.9S388.84,386.41,388.84,384.54Z"/><path class="h" d="M392.54,381v7h-.72v-6.36h-1.65V381Z"/></svg>