<svg xmlns="http://www.w3.org/2000/svg" xmlns:xlink="http://www.w3.org/1999/xlink" viewBox="0 0 790.58 618.13"><defs><style>.a,.f{fill:none;}.b{fill:#595a5c;}.c{fill:#b6906c;}.d{fill:#fff;}.e{fill:#231f20;}.f{stroke:#000;stroke-linecap:round;stroke-linejoin:round;stroke-width:0.35px;}.g{clip-path:url(#a);}.h{fill:#58595b;}</style><clipPath id="a"><polygon class="a" points="241.63 183.36 241.63 378.9 283.35 378.9 283.35 434.77 546.52 434.77 546.52 378.9 548.96 378.9 548.96 183.36 241.63 183.36"/></clipPath></defs><path class="b" d="M55.31,597.13H57.1V609.9H55.31Zm.92,6.11h4.09a1.89,1.89,0,0,0,1-.27,1.82,1.82,0,0,0,.68-.77,2.67,2.67,0,0,0,.24-1.16,2.7,2.7,0,0,0-.24-1.16,1.82,1.82,0,0,0-1.7-1H56.23v-1.7h4a4.09,4.09,0,0,1,2,.48A3.45,3.45,0,0,1,63.62,599a4.64,4.64,0,0,1,0,4.11,3.34,3.34,0,0,1-1.35,1.36,4,4,0,0,1-2,.49h-4Z"/><path class="b" d="M67.7,606.33a2.07,2.07,0,0,0,.49,1.48,1.76,1.76,0,0,0,1.37.52,1.89,1.89,0,0,0,1.37-.46,1.79,1.79,0,0,0,.48-1.33l.12,1.91A2.58,2.58,0,0,1,69.06,610a2.89,2.89,0,0,1-2.33-1,4.08,4.08,0,0,1-.82-2.73v-5.55H67.7Zm.22-7.86a1.93,1.93,0,0,1-.56-1.5,2.07,2.07,0,0,1,.56-1.57,2.56,2.56,0,0,1,3.18,0,2.08,2.08,0,0,1,.57,1.56,1.94,1.94,0,0,1-.57,1.5,2.65,2.65,0,0,1-3.18,0Zm2.26-.86a.94.94,0,0,0,.24-.68,1,1,0,0,0-.24-.7.91.91,0,0,0-.67-.25.92.92,0,0,0-.67.25,1,1,0,0,0-.23.7,1,1,0,0,0,.23.68.92.92,0,0,0,.67.24A.9.9,0,0,0,70.18,597.61Zm1.23,3.17h1.78v9.12H71.41Z"/><path class="b" d="M77.1,609.63A2.82,2.82,0,0,1,76,608.36a5.08,5.08,0,0,1-.36-2v-2a5.05,5.05,0,0,1,.36-2,2.71,2.71,0,0,1,1-1.27,3,3,0,0,1,1.65-.44,2.71,2.71,0,0,1,1.48.42,3.22,3.22,0,0,1,1.09,1.19l-.18,1.86a2.19,2.19,0,0,0-.22-1,1.48,1.48,0,0,0-.61-.63,2,2,0,0,0-1-.21,1.71,1.71,0,0,0-1.37.55,2.26,2.26,0,0,0-.49,1.56v2a2.19,2.19,0,0,0,.49,1.54,1.74,1.74,0,0,0,1.37.54,1.93,1.93,0,0,0,1-.23,1.45,1.45,0,0,0,.61-.64,2.25,2.25,0,0,0,.22-1l.12,1.92a2.66,2.66,0,0,1-.89,1.14,2.56,2.56,0,0,1-1.53.45A3.19,3.19,0,0,1,77.1,609.63Zm4-12.5H82.9V609.9H81.11Z"/><path class="b" d="M87.09,609.57a3.09,3.09,0,0,1-1.29-1.36,4.85,4.85,0,0,1-.44-2.15v-1.48a4.71,4.71,0,0,1,.44-2.12,3.12,3.12,0,0,1,1.29-1.35,4.71,4.71,0,0,1,4.06,0,3.12,3.12,0,0,1,1.29,1.35,4.71,4.71,0,0,1,.44,2.12v1.51a4.79,4.79,0,0,1-.44,2.13,3.12,3.12,0,0,1-1.29,1.35,4.62,4.62,0,0,1-4.06,0Zm3.49-1.83a2.43,2.43,0,0,0,.51-1.65v-1.51a2.43,2.43,0,0,0-.51-1.65,1.88,1.88,0,0,0-1.46-.58,1.85,1.85,0,0,0-1.45.58,2.38,2.38,0,0,0-.52,1.65v1.51a2.38,2.38,0,0,0,.52,1.65,1.82,1.82,0,0,0,1.45.59A1.85,1.85,0,0,0,90.58,607.74Z"/><path class="b" d="M95.43,600.78h1.79v9.12H95.43Zm4.42,1.72a2.16,2.16,0,0,0-.83-.15,1.83,1.83,0,0,0-1.33.47,1.79,1.79,0,0,0-.47,1.31L97,602.37a3.32,3.32,0,0,1,1.09-1.27,2.58,2.58,0,0,1,1.48-.45,3.39,3.39,0,0,1,1.13.18,2.62,2.62,0,0,1,.88.53l-1.17,1.58A1.56,1.56,0,0,0,99.85,602.5Z"/><path class="b" d="M102.15,600.78H104l2.81,7.93-1,1.94Zm8.07,0L106.34,612a2.6,2.6,0,0,1-.56,1,1.87,1.87,0,0,1-.84.52,4,4,0,0,1-1.23.16h-.36V612h.36a1.46,1.46,0,0,0,.8-.2,1.74,1.74,0,0,0,.51-.7l3.38-10.31Z"/><path class="b" d="M113.51,609.88a5.76,5.76,0,0,1-1.32-.48,4.89,4.89,0,0,1-1.13-.79l1.06-1.31a5.86,5.86,0,0,0,1.47.85,4.18,4.18,0,0,0,1.44.28,3.11,3.11,0,0,0,1.6-.33,1.1,1.1,0,0,0,.53-1,.79.79,0,0,0-.29-.66,1.66,1.66,0,0,0-.72-.29c-.29,0-.69-.1-1.22-.14h-.15l-.14,0h-.15a6.45,6.45,0,0,1-1.5-.26,2,2,0,0,1-1-.7,2.38,2.38,0,0,1-.41-1.49,3.07,3.07,0,0,1,.39-1.61,2.41,2.41,0,0,1,1.18-1,5.29,5.29,0,0,1,2-.32,6.38,6.38,0,0,1,2.6.52,6.16,6.16,0,0,1,1.13.66l-1.08,1.31a5.59,5.59,0,0,0-1.35-.66,4,4,0,0,0-1.3-.22,2.44,2.44,0,0,0-1.37.31,1.08,1.08,0,0,0-.46.94.64.64,0,0,0,.26.55,1.72,1.72,0,0,0,.66.25c.26,0,.64.07,1.12.1h.34a7.67,7.67,0,0,1,1.63.25,2.24,2.24,0,0,1,1.13.77,2.62,2.62,0,0,1,.45,1.65,2.92,2.92,0,0,1-.42,1.63,2.54,2.54,0,0,1-1.27,1A5.88,5.88,0,0,1,115,610,7.38,7.38,0,0,1,113.51,609.88Z"/><path class="b" d="M126,597.13h1.8V609.9H126Zm2.6,12.5a2.39,2.39,0,0,1-.93-1.16l.13-1.91a2.22,2.22,0,0,0,.21,1,1.48,1.48,0,0,0,.61.63,1.93,1.93,0,0,0,1,.22,1.74,1.74,0,0,0,1.37-.54,2.18,2.18,0,0,0,.49-1.53v-2a2.26,2.26,0,0,0-.49-1.56,1.71,1.71,0,0,0-1.37-.55,2,2,0,0,0-1,.21,1.36,1.36,0,0,0-.61.62,2.12,2.12,0,0,0-.21,1l-.19-1.76a3.37,3.37,0,0,1,1.08-1.24,2.67,2.67,0,0,1,1.49-.43,3,3,0,0,1,1.65.43,2.9,2.9,0,0,1,1.06,1.27,5.1,5.1,0,0,1,.36,2v2a4.94,4.94,0,0,1-.37,2,2.79,2.79,0,0,1-1.08,1.26,3.25,3.25,0,0,1-1.71.44A2.73,2.73,0,0,1,128.57,609.63Z"/><path class="b" d="M134.46,600.78h1.82l2.81,7.93-1,1.94Zm8.07,0L138.65,612a2.6,2.6,0,0,1-.56,1,1.87,1.87,0,0,1-.84.52,4,4,0,0,1-1.23.16h-.36V612H136a1.46,1.46,0,0,0,.8-.2,1.74,1.74,0,0,0,.51-.7l3.37-10.31Z"/><path class="b" d="M143.57,600.78h4.12v1.62h-4.12Zm1.46,8.56a2.77,2.77,0,0,1-.52-1.81v-9.4h1.8v9.42a.84.84,0,0,0,.13.51.46.46,0,0,0,.39.18h.86V610h-1A2,2,0,0,1,145,609.34Z"/><path class="b" d="M151.94,606.33a2.07,2.07,0,0,0,.49,1.48,1.76,1.76,0,0,0,1.37.52,1.91,1.91,0,0,0,1.37-.46,1.79,1.79,0,0,0,.48-1.33l.12,1.91A2.58,2.58,0,0,1,153.3,610a2.89,2.89,0,0,1-2.33-1,4.08,4.08,0,0,1-.82-2.73v-5.55h1.79Zm3.71-5.55h1.78v9.12h-1.78Z"/><rect class="c" x="612.92" y="591.68" width="35.43" height="2.83"/><path class="d" d="M648.48,594.64H612.79v-3.08h35.69ZM613,594.39h35.19v-2.58H613Z"/><rect class="c" x="612.92" y="601.6" width="70.74" height="2.83"/><path class="d" d="M683.78,604.56h-71v-3.08h71ZM613,604.31h70.49v-2.58H613Z"/><rect class="c" x="612.92" y="612.72" width="177.16" height="2.84"/><path class="d" d="M790.21,615.68H612.79V612.6H790.21ZM613,615.43H790v-2.58H613Z"/><path class="e" d="M587.26,596.28h-.8v-4.82l-.81.5v-.83l.81-.53h.8Z"/><path class="e" d="M589,595.91a1.67,1.67,0,0,1-.41-1.19v-2.58A1.65,1.65,0,0,1,589,591a2,2,0,0,1,2.42,0,1.65,1.65,0,0,1,.41,1.19v2.58a1.65,1.65,0,0,1-.41,1.19,2,2,0,0,1-2.42,0Zm1.83-.55a.89.89,0,0,0,.2-.64v-2.58a.89.89,0,0,0-.2-.64.82.82,0,0,0-.62-.22.86.86,0,0,0-.63.22.94.94,0,0,0-.2.64v2.58a.9.9,0,0,0,.21.64,1,1,0,0,0,1.24,0Z"/><path class="e" d="M593.22,595.91a1.67,1.67,0,0,1-.41-1.19v-2.58a1.65,1.65,0,0,1,.41-1.19,2,2,0,0,1,2.42,0,1.61,1.61,0,0,1,.41,1.19v2.58a1.65,1.65,0,0,1-.41,1.19,2,2,0,0,1-2.42,0Zm1.83-.55a.9.9,0,0,0,.21-.64v-2.58a.94.94,0,0,0-.2-.64.86.86,0,0,0-.63-.22.82.82,0,0,0-.62.22.89.89,0,0,0-.2.64v2.58a.89.89,0,0,0,.2.64,1,1,0,0,0,1.24,0Z"/><path class="e" d="M600.1,596.13a1.45,1.45,0,0,1-.6-.6,2.06,2.06,0,0,1-.21-1v-.67a2,2,0,0,1,.21-.94,1.37,1.37,0,0,1,.6-.59,2,2,0,0,1,.95-.21,2.21,2.21,0,0,1,.59.08,1.68,1.68,0,0,1,.51.22,1.54,1.54,0,0,1,.37.35l-.58.52a1.17,1.17,0,0,0-.4-.3,1.13,1.13,0,0,0-.48-.11.94.94,0,0,0-.71.26,1,1,0,0,0-.26.72v.67a1,1,0,0,0,.25.74.94.94,0,0,0,.72.27,1,1,0,0,0,.48-.12,1,1,0,0,0,.4-.32l.58.56a1.38,1.38,0,0,1-.38.34,1.62,1.62,0,0,1-.5.22,2.27,2.27,0,0,1-.59.07A2.12,2.12,0,0,1,600.1,596.13Z"/><path class="e" d="M603.4,592.22h.79v4.06h-.79Zm2.42,1.6a1,1,0,0,0-.21-.67.78.78,0,0,0-.6-.23.81.81,0,0,0-.6.21.73.73,0,0,0-.22.58l-.08-.78a1.46,1.46,0,0,1,.49-.57,1.22,1.22,0,0,1,.67-.2,1.33,1.33,0,0,1,.73.2,1.18,1.18,0,0,1,.46.56,2.4,2.4,0,0,1,.15.89v2.47h-.79Zm2.42,0a.93.93,0,0,0-.22-.67.85.85,0,0,0-.63-.23.72.72,0,0,0-.57.23.9.9,0,0,0-.21.64l-.16-.78a1.61,1.61,0,0,1,.51-.63,1.23,1.23,0,0,1,.69-.22,1.37,1.37,0,0,1,.75.2,1.09,1.09,0,0,1,.47.56,2.21,2.21,0,0,1,.17.89v2.47h-.8Z"/><path class="e" d="M584.33,605.5l2-2.64a1.85,1.85,0,0,0,.27-.47,1.29,1.29,0,0,0,.09-.45h0a.67.67,0,0,0-.2-.53.81.81,0,0,0-.56-.19.76.76,0,0,0-.56.21,1,1,0,0,0-.27.58h-.82a2,2,0,0,1,.29-.83,1.42,1.42,0,0,1,.56-.53,1.67,1.67,0,0,1,.79-.18,1.93,1.93,0,0,1,.87.17,1.21,1.21,0,0,1,.54.51,1.55,1.55,0,0,1,.19.8h0a1.84,1.84,0,0,1-.12.63,2.8,2.8,0,0,1-.35.63l-1.65,2.24h2.15v.76h-3.2Z"/><path class="e" d="M589,605.83a1.67,1.67,0,0,1-.41-1.19v-2.58a1.65,1.65,0,0,1,.41-1.19,2,2,0,0,1,2.42,0,1.65,1.65,0,0,1,.41,1.19v2.58a1.65,1.65,0,0,1-.41,1.19,2,2,0,0,1-2.42,0Zm1.83-.55a.89.89,0,0,0,.2-.64v-2.58a.89.89,0,0,0-.2-.64.82.82,0,0,0-.62-.22.86.86,0,0,0-.63.22.94.94,0,0,0-.19.64v2.58a.89.89,0,0,0,.2.64,1,1,0,0,0,1.24,0Z"/><path class="e" d="M593.22,605.83a1.67,1.67,0,0,1-.41-1.19v-2.58a1.61,1.61,0,0,1,.42-1.19,1.59,1.59,0,0,1,1.2-.42,1.45,1.45,0,0,1,1.62,1.61v2.58a1.61,1.61,0,0,1-.41,1.19,2,2,0,0,1-2.42,0Zm1.84-.55a.94.94,0,0,0,.2-.64v-2.58a.94.94,0,0,0-.2-.64.84.84,0,0,0-.63-.22.82.82,0,0,0-.62.22.89.89,0,0,0-.2.64v2.58a.89.89,0,0,0,.2.64.82.82,0,0,0,.62.22A.86.86,0,0,0,595.06,605.28Z"/><path class="e" d="M600.1,606.05a1.45,1.45,0,0,1-.6-.6,2.06,2.06,0,0,1-.2-1v-.67a2,2,0,0,1,.2-.94,1.37,1.37,0,0,1,.6-.59,2,2,0,0,1,.95-.21,2.35,2.35,0,0,1,.6.08,1.73,1.73,0,0,1,.5.22,1.38,1.38,0,0,1,.37.35l-.58.52a1.08,1.08,0,0,0-.4-.3,1.13,1.13,0,0,0-.48-.11,1,1,0,0,0-.71.26,1,1,0,0,0-.26.72v.67a1,1,0,0,0,.25.74.94.94,0,0,0,.72.27,1.14,1.14,0,0,0,.88-.44l.58.56a1.38,1.38,0,0,1-.38.34,1.62,1.62,0,0,1-.5.22,2.22,2.22,0,0,1-.59.07A2.12,2.12,0,0,1,600.1,606.05Z"/><path class="e" d="M603.4,602.14h.79v4.06h-.79Zm2.42,1.6a1,1,0,0,0-.21-.67.78.78,0,0,0-.6-.23.81.81,0,0,0-.6.21.73.73,0,0,0-.22.58l-.08-.78a1.46,1.46,0,0,1,.49-.57,1.22,1.22,0,0,1,.67-.2,1.3,1.3,0,0,1,.73.2,1.18,1.18,0,0,1,.46.56,2.4,2.4,0,0,1,.16.89v2.47h-.8Zm2.42,0a.93.93,0,0,0-.22-.67.85.85,0,0,0-.63-.23.73.73,0,0,0-.57.23.89.89,0,0,0-.2.64l-.16-.78a1.51,1.51,0,0,1,.5-.63,1.23,1.23,0,0,1,.69-.22,1.35,1.35,0,0,1,.75.2,1.16,1.16,0,0,1,.48.56,2.4,2.4,0,0,1,.16.89v2.47h-.8Z"/><path class="e" d="M585,615.58a1.34,1.34,0,0,1-.54-.49,2,2,0,0,1-.28-.77h.8a.75.75,0,0,0,.25.49.85.85,0,0,0,.54.17.72.72,0,0,0,.59-.25,1.1,1.1,0,0,0,.21-.72v-.48a1.1,1.1,0,0,0-.21-.72.72.72,0,0,0-.59-.25.83.83,0,0,0-.4.11,1.18,1.18,0,0,0-.34.33h-.72v-3h2.89v.76h-2.1V612a1,1,0,0,1,.34-.18.94.94,0,0,1,.37-.07,1.68,1.68,0,0,1,.84.2,1.29,1.29,0,0,1,.53.6,2.07,2.07,0,0,1,.19.94V614a2.25,2.25,0,0,1-.19.94,1.31,1.31,0,0,1-.55.59,1.69,1.69,0,0,1-.86.21A1.74,1.74,0,0,1,585,615.58Z"/><path class="e" d="M589,615.32a1.65,1.65,0,0,1-.41-1.19v-2.58a1.67,1.67,0,0,1,.41-1.19,2,2,0,0,1,2.42,0,1.65,1.65,0,0,1,.41,1.19v2.58a1.64,1.64,0,0,1-.41,1.19,1.92,1.92,0,0,1-2.42,0Zm1.83-.55a.89.89,0,0,0,.2-.64v-2.58a.88.88,0,0,0-.2-.63.78.78,0,0,0-.62-.22.82.82,0,0,0-.63.22.93.93,0,0,0-.2.63v2.58a.9.9,0,0,0,.21.64,1,1,0,0,0,1.24,0Z"/><path class="e" d="M593.22,615.32a1.65,1.65,0,0,1-.41-1.19v-2.58a1.67,1.67,0,0,1,.41-1.19,2,2,0,0,1,2.42,0,1.61,1.61,0,0,1,.41,1.19v2.58a1.64,1.64,0,0,1-.41,1.19,1.92,1.92,0,0,1-2.42,0Zm1.83-.55a.9.9,0,0,0,.21-.64v-2.58a.93.93,0,0,0-.2-.63.82.82,0,0,0-.63-.22.78.78,0,0,0-.62.22.88.88,0,0,0-.2.63v2.58a.89.89,0,0,0,.2.64,1,1,0,0,0,1.24,0Z"/><path class="e" d="M600.1,615.54a1.45,1.45,0,0,1-.6-.6,2,2,0,0,1-.21-1v-.67a2,2,0,0,1,.21-.94,1.45,1.45,0,0,1,.6-.6,2,2,0,0,1,.95-.2,2.22,2.22,0,0,1,.59.07,2,2,0,0,1,.51.22,1.76,1.76,0,0,1,.37.35l-.58.52a1.17,1.17,0,0,0-.4-.3,1.13,1.13,0,0,0-.48-.11.94.94,0,0,0-.71.26,1,1,0,0,0-.26.73V614a1.07,1.07,0,0,0,.25.74,1,1,0,0,0,.72.26,1.13,1.13,0,0,0,.48-.11,1.26,1.26,0,0,0,.4-.32l.58.55a1.42,1.42,0,0,1-.38.35,1.88,1.88,0,0,1-.5.21,2.27,2.27,0,0,1-.59.08A2,2,0,0,1,600.1,615.54Z"/><path class="e" d="M603.4,611.63h.79v4.06h-.79Zm2.42,1.6a1,1,0,0,0-.21-.66.75.75,0,0,0-.6-.24.81.81,0,0,0-.6.21.75.75,0,0,0-.22.58l-.08-.78a1.5,1.5,0,0,1,.49-.56,1.15,1.15,0,0,1,.67-.2,1.32,1.32,0,0,1,.73.19,1.28,1.28,0,0,1,.46.56,2.42,2.42,0,0,1,.15.9v2.46h-.79Zm2.42,0a.91.91,0,0,0-.22-.66.82.82,0,0,0-.63-.24.72.72,0,0,0-.57.23.9.9,0,0,0-.21.64l-.16-.78a1.51,1.51,0,0,1,.51-.62,1.16,1.16,0,0,1,.69-.22,1.37,1.37,0,0,1,.75.19,1.18,1.18,0,0,1,.47.56,2.22,2.22,0,0,1,.17.9v2.46h-.8Z"/><path class="c" d="M23.49,613.89A12.92,12.92,0,1,1,36.4,601,12.93,12.93,0,0,1,23.49,613.89Zm0-24.83A11.92,11.92,0,1,0,35.4,601,11.93,11.93,0,0,0,23.49,589.06Z"/><polygon class="d" points="35.77 588.74 9.42 600.98 35.77 613.21 32.02 600.98 35.77 588.74"/><path class="c" d="M36.58,614.14,8.23,601l28.35-13.17-4,13.17ZM10.61,601,35,612.29,31.5,601,35,589.66Z"/><path class="c" d="M2.52,605.19a5,5,0,0,1-1.11-.38,4.4,4.4,0,0,1-1-.64l.81-1a3.72,3.72,0,0,0,1.16.69,4.08,4.08,0,0,0,1.38.23,2.73,2.73,0,0,0,1.55-.38,1.17,1.17,0,0,0,.55-1.05h0a1.12,1.12,0,0,0-.25-.77,1.44,1.44,0,0,0-.64-.42,8.23,8.23,0,0,0-1-.25H3.89l-.1,0a9.48,9.48,0,0,1-1.5-.36,2.08,2.08,0,0,1-1-.73,2.42,2.42,0,0,1-.41-1.51h0a2.77,2.77,0,0,1,.38-1.47,2.44,2.44,0,0,1,1.12-.92,4.48,4.48,0,0,1,1.77-.32,4.6,4.6,0,0,1,1,.11,4.9,4.9,0,0,1,1.86.86l-.73,1a4.61,4.61,0,0,0-1-.58,3,3,0,0,0-1.06-.2,2.44,2.44,0,0,0-1.46.38,1.24,1.24,0,0,0-.53,1.07h0a1,1,0,0,0,.27.75,1.74,1.74,0,0,0,.67.4,9.3,9.3,0,0,0,1.12.27h.24a7.93,7.93,0,0,1,1.4.41,2.22,2.22,0,0,1,.94.76,2.4,2.4,0,0,1,.38,1.43h0a2.62,2.62,0,0,1-.4,1.45,2.54,2.54,0,0,1-1.16.91,4.8,4.8,0,0,1-1.83.31A6.44,6.44,0,0,1,2.52,605.19Z"/><rect class="c" x="612.5" y="600.68" width="1" height="4.68"/><rect class="c" x="612.5" y="590.76" width="1" height="4.68"/><rect class="c" x="612.5" y="611.45" width="1" height="5.24"/><rect class="c" x="789.58" y="611.45" width="1" height="5.24"/><rect class="c" x="682.59" y="600.68" width="1" height="4.68"/><rect class="c" x="647.3" y="590.76" width="1" height="4.68"/><rect class="a" width="790.34" height="618.13"/><line class="f" x1="546.52" y1="378.9" x2="546.18" y2="378.9"/><line class="f" x1="548.96" y1="378.9" x2="546.52" y2="378.9"/><line class="f" x1="546.18" y1="431.28" x2="546.52" y2="431.28"/><line class="f" x1="546.18" y1="378.9" x2="546.18" y2="431.28"/><line class="f" x1="286.82" y1="378.9" x2="286.82" y2="431.28"/><line class="f" x1="344.19" y1="378.9" x2="286.82" y2="378.9"/><line class="f" x1="344.19" y1="375.41" x2="344.19" y2="378.9"/><line class="f" x1="375.47" y1="375.41" x2="344.19" y2="375.41"/><line class="f" x1="375.47" y1="378.9" x2="375.47" y2="375.41"/><line class="f" x1="431.1" y1="378.9" x2="375.48" y2="378.9"/><line class="f" x1="431.1" y1="375.41" x2="431.1" y2="378.9"/><line class="f" x1="462.39" y1="375.41" x2="431.1" y2="375.41"/><line class="f" x1="462.39" y1="378.9" x2="462.39" y2="375.41"/><line class="f" x1="543.39" y1="378.9" x2="462.39" y2="378.9"/><line class="f" x1="543.39" y1="431.28" x2="543.39" y2="378.9"/><line class="f" x1="286.82" y1="431.28" x2="543.39" y2="431.28"/><rect class="d" x="508.45" y="217.05" width="31.29" height="31.43"/><line class="f" x1="508.45" y1="217.05" x2="508.45" y2="248.48"/><line class="f" x1="539.74" y1="217.05" x2="508.45" y2="217.05"/><line class="f" x1="539.74" y1="248.48" x2="539.74" y2="217.05"/><line class="f" x1="508.45" y1="248.48" x2="539.74" y2="248.48"/><polygon class="d" points="250.32 254.59 250.32 191.74 271.52 191.74 359.83 191.74 359.83 212.69 271.52 212.69 271.52 254.59 250.32 254.59"/><line class="f" x1="271.52" y1="191.74" x2="359.83" y2="191.74"/><line class="f" x1="359.83" y1="191.74" x2="359.83" y2="212.69"/><line class="f" x1="359.83" y1="212.69" x2="271.53" y2="212.69"/><line class="f" x1="271.52" y1="212.69" x2="271.52" y2="254.59"/><line class="f" x1="271.52" y1="254.59" x2="250.32" y2="254.59"/><line class="f" x1="250.32" y1="254.59" x2="250.32" y2="191.74"/><line class="f" x1="250.32" y1="191.74" x2="271.53" y2="191.74"/><rect class="d" x="427.62" y="191.74" width="20.86" height="20.95"/><line class="f" x1="427.62" y1="191.74" x2="427.62" y2="212.69"/><line class="f" x1="448.48" y1="191.74" x2="427.62" y2="191.74"/><line class="f" x1="448.48" y1="212.69" x2="448.48" y2="191.74"/><line class="f" x1="427.62" y1="212.69" x2="448.48" y2="212.69"/><line class="f" x1="379.99" y1="209.2" x2="363.31" y2="209.2"/><line class="f" x1="363.31" y1="209.2" x2="363.31" y2="191.74"/><line class="f" x1="363.31" y1="191.74" x2="379.99" y2="191.74"/><line class="f" x1="379.99" y1="191.74" x2="379.99" y2="209.2"/><line class="f" x1="540.61" y1="364.93" x2="540.61" y2="251.8"/><line class="f" x1="540.61" y1="249.35" x2="540.61" y2="216.18"/><line class="f" x1="286.82" y1="378.9" x2="286.82" y2="431.28"/><line class="f" x1="250.32" y1="371.92" x2="250.32" y2="378.9"/><line class="f" x1="250.32" y1="191.74" x2="250.32" y2="364.93"/><line class="f" x1="546.52" y1="378.9" x2="531.92" y2="378.9"/><line class="f" x1="548.96" y1="378.9" x2="546.52" y2="378.9"/><line class="f" x1="431.1" y1="378.9" x2="375.48" y2="378.9"/><line class="f" x1="429.36" y1="364.93" x2="399.81" y2="364.93"/><line class="f" x1="397.38" y1="364.93" x2="377.21" y2="364.93"/><line class="f" x1="548.96" y1="371.92" x2="533.66" y2="371.92"/><line class="f" x1="429.36" y1="371.92" x2="377.21" y2="371.92"/><line class="f" x1="283.34" y1="378.9" x2="255.53" y2="378.9"/><line class="f" x1="288.56" y1="378.9" x2="283.34" y2="378.9"/><line class="f" x1="286.82" y1="364.93" x2="250.32" y2="364.93"/><line class="f" x1="286.82" y1="371.92" x2="250.32" y2="371.92"/><line class="f" x1="420.67" y1="191.74" x2="413.72" y2="191.74"/><line class="f" x1="409.89" y1="191.74" x2="409.11" y2="191.74"/><line class="f" x1="405.29" y1="191.74" x2="404.5" y2="191.74"/><line class="f" x1="400.68" y1="191.74" x2="393.73" y2="191.74"/><line class="f" x1="389.9" y1="191.74" x2="389.38" y2="191.74"/><line class="f" x1="389.38" y1="191.74" x2="382.43" y2="191.74"/><line class="f" x1="540.61" y1="191.74" x2="512.8" y2="191.74"/><line class="f" x1="509.32" y1="191.74" x2="450.92" y2="191.74"/><line class="f" x1="540.61" y1="249.35" x2="450.92" y2="249.35"/><line class="f" x1="448.48" y1="249.35" x2="445.01" y2="249.35"/><line class="f" x1="413.72" y1="249.35" x2="382.43" y2="249.35"/><line class="f" x1="540.61" y1="251.8" x2="445.01" y2="251.8"/><line class="f" x1="413.72" y1="251.8" x2="399.81" y2="251.8"/><line class="f" x1="397.38" y1="251.8" x2="379.99" y2="251.8"/><line class="f" x1="359.83" y1="191.74" x2="250.32" y2="191.74"/><line class="f" x1="450.92" y1="249.35" x2="450.92" y2="245.86"/><line class="f" x1="450.92" y1="217.93" x2="450.92" y2="191.74"/><line class="f" x1="448.48" y1="249.35" x2="448.48" y2="245.86"/><line class="f" x1="448.48" y1="217.93" x2="448.48" y2="191.74"/><line class="f" x1="540.61" y1="212.69" x2="540.61" y2="191.74"/><line class="f" x1="540.61" y1="212.69" x2="512.8" y2="212.69"/><line class="f" x1="512.8" y1="212.69" x2="512.8" y2="191.74"/><line class="f" x1="397.38" y1="364.93" x2="397.38" y2="251.8"/><line class="f" x1="382.43" y1="249.35" x2="382.43" y2="245.86"/><line class="f" x1="382.43" y1="214.44" x2="382.43" y2="191.74"/><line class="f" x1="379.99" y1="251.8" x2="379.99" y2="245.86"/><line class="f" x1="379.99" y1="214.44" x2="379.99" y2="212.69"/><line class="f" x1="399.81" y1="364.93" x2="399.81" y2="251.8"/><line class="f" x1="540.61" y1="216.18" x2="509.32" y2="216.18"/><line class="f" x1="509.32" y1="216.18" x2="509.32" y2="191.74"/><line class="f" x1="382.43" y1="187.37" x2="382.43" y2="183.36"/><line class="f" x1="418.93" y1="187.37" x2="418.93" y2="183.36"/><line class="f" x1="384.17" y1="187.37" x2="384.17" y2="183.36"/><line class="f" x1="384.17" y1="187.37" x2="382.43" y2="187.37"/><line class="f" x1="418.93" y1="187.37" x2="420.67" y2="187.37"/><line class="f" x1="420.67" y1="187.37" x2="420.67" y2="191.74"/><line class="f" x1="382.43" y1="187.37" x2="382.43" y2="191.74"/><line class="f" x1="540.61" y1="216.18" x2="540.61" y2="212.69"/><line class="f" x1="509.32" y1="196.98" x2="450.92" y2="196.98"/><line class="f" x1="448.48" y1="245.86" x2="450.92" y2="245.86"/><line class="f" x1="448.48" y1="217.93" x2="450.92" y2="217.93"/><line class="f" x1="420.67" y1="191.74" x2="448.48" y2="191.74"/><line class="f" x1="385.9" y1="187.37" x2="417.19" y2="187.37"/><line class="f" x1="385.9" y1="187.37" x2="385.9" y2="218.8"/><g class="g"><path class="f" d="M417.19,187.37A31.36,31.36,0,0,1,385.9,218.8"/></g><line class="f" x1="385.9" y1="183.36" x2="385.9" y2="187.37"/><line class="f" x1="417.19" y1="187.37" x2="417.19" y2="183.36"/><line class="f" x1="417.19" y1="187.37" x2="418.93" y2="187.37"/><line class="f" x1="384.17" y1="187.37" x2="385.9" y2="187.37"/><line class="f" x1="413.72" y1="249.35" x2="413.72" y2="251.8"/><line class="f" x1="445.01" y1="249.35" x2="445.01" y2="251.8"/><line class="f" x1="379.99" y1="212.69" x2="359.83" y2="212.69"/><line class="f" x1="359.83" y1="212.69" x2="359.83" y2="191.74"/><line class="f" x1="379.99" y1="214.44" x2="382.43" y2="214.44"/><line class="f" x1="379.99" y1="245.86" x2="382.43" y2="245.86"/><line class="f" x1="344.19" y1="371.92" x2="344.19" y2="378.9"/><line class="f" x1="286.82" y1="431.28" x2="546.52" y2="431.28"/><line class="f" x1="533.66" y1="364.93" x2="533.66" y2="371.92"/><line class="f" x1="548.96" y1="364.93" x2="540.61" y2="364.93"/><line class="f" x1="540.61" y1="364.93" x2="533.66" y2="364.93"/><line class="f" x1="533.66" y1="371.92" x2="533.66" y2="364.93"/><line class="f" x1="429.36" y1="371.92" x2="429.36" y2="364.93"/><line class="f" x1="377.21" y1="371.92" x2="377.21" y2="364.93"/><line class="f" x1="533.66" y1="364.93" x2="464.13" y2="364.93"/><line class="f" x1="464.13" y1="364.93" x2="429.36" y2="364.93"/><line class="f" x1="286.82" y1="371.92" x2="286.82" y2="364.93"/><line class="f" x1="286.82" y1="364.93" x2="342.45" y2="364.93"/><line class="f" x1="342.45" y1="364.93" x2="377.21" y2="364.93"/><line class="f" x1="509.32" y1="191.74" x2="512.8" y2="191.74"/><line class="f" x1="540.61" y1="251.8" x2="540.61" y2="249.35"/><line class="f" x1="397.38" y1="364.93" x2="399.81" y2="364.93"/><line class="f" x1="448.48" y1="191.74" x2="450.92" y2="191.74"/><line class="f" x1="379.99" y1="191.74" x2="382.43" y2="191.74"/><line class="f" x1="363.31" y1="191.74" x2="359.83" y2="191.74"/><line class="f" x1="250.32" y1="191.74" x2="250.32" y2="183.36"/><line class="f" x1="250.32" y1="364.93" x2="250.32" y2="371.92"/><line class="f" x1="420.67" y1="187.37" x2="420.67" y2="183.36"/><line class="f" x1="288.56" y1="371.92" x2="288.56" y2="378.9"/><line class="f" x1="286.82" y1="371.92" x2="288.56" y2="371.92"/><line class="f" x1="431.1" y1="371.92" x2="431.1" y2="378.9"/><line class="f" x1="429.36" y1="371.92" x2="431.1" y2="371.92"/><line class="f" x1="375.47" y1="371.92" x2="375.47" y2="378.9"/><line class="f" x1="375.47" y1="371.92" x2="377.21" y2="371.92"/><line class="f" x1="531.92" y1="371.92" x2="531.92" y2="378.9"/><line class="f" x1="531.92" y1="371.92" x2="533.66" y2="371.92"/><line class="f" x1="288.56" y1="378.9" x2="344.19" y2="378.9"/><line class="f" x1="342.45" y1="364.93" x2="342.45" y2="371.92"/><line class="f" x1="344.19" y1="378.9" x2="351.14" y2="378.9"/><line class="f" x1="354.96" y1="378.9" x2="355.75" y2="378.9"/><line class="f" x1="359.57" y1="378.9" x2="360.35" y2="378.9"/><line class="f" x1="364.18" y1="378.9" x2="368.52" y2="378.9"/><line class="f" x1="368.52" y1="378.9" x2="375.47" y2="378.9"/><line class="f" x1="344.19" y1="375.41" x2="375.48" y2="375.41"/><line class="f" x1="375.82" y1="368.42" x2="375.82" y2="336.3"/><line class="f" x1="345.23" y1="371.22" x2="345.23" y2="371.92"/><line class="f" x1="345.23" y1="371.92" x2="342.45" y2="371.92"/><line class="f" x1="342.45" y1="371.92" x2="342.45" y2="369.12"/><line class="f" x1="342.45" y1="369.12" x2="343.84" y2="369.12"/><line class="f" x1="343.84" y1="368.42" x2="346.62" y2="368.42"/><line class="f" x1="346.62" y1="368.42" x2="346.62" y2="371.22"/><line class="f" x1="346.62" y1="371.22" x2="343.84" y2="371.22"/><line class="f" x1="343.84" y1="371.22" x2="343.84" y2="368.42"/><line class="f" x1="375.82" y1="368.42" x2="373.04" y2="368.42"/><line class="f" x1="373.04" y1="368.42" x2="373.04" y2="371.22"/><line class="f" x1="373.04" y1="371.22" x2="375.82" y2="371.22"/><line class="f" x1="375.82" y1="371.22" x2="375.82" y2="368.42"/><line class="f" x1="346.62" y1="368.42" x2="373.04" y2="368.42"/><line class="f" x1="373.04" y1="371.22" x2="346.62" y2="371.22"/><line class="f" x1="346.62" y1="369.82" x2="373.04" y2="369.82"/><g class="g"><path class="f" d="M343.84,368.42a32.05,32.05,0,0,1,32-32.12"/></g><line class="f" x1="374.43" y1="371.22" x2="374.43" y2="371.92"/><line class="f" x1="374.43" y1="371.92" x2="377.21" y2="371.92"/><line class="f" x1="377.21" y1="371.92" x2="377.21" y2="369.12"/><line class="f" x1="377.21" y1="369.12" x2="375.82" y2="369.12"/><line class="f" x1="342.45" y1="369.12" x2="339.67" y2="369.12"/><line class="f" x1="339.67" y1="369.12" x2="339.67" y2="371.92"/><line class="f" x1="339.67" y1="371.92" x2="342.45" y2="371.92"/><line class="f" x1="342.45" y1="371.92" x2="342.45" y2="369.12"/><line class="f" x1="339.67" y1="369.12" x2="316.02" y2="369.12"/><line class="f" x1="339.67" y1="370.52" x2="316.02" y2="370.52"/><line class="f" x1="339.67" y1="371.92" x2="316.02" y2="371.92"/><line class="f" x1="289.6" y1="371.22" x2="289.6" y2="371.92"/><line class="f" x1="289.6" y1="371.92" x2="286.82" y2="371.92"/><line class="f" x1="286.82" y1="371.92" x2="286.82" y2="369.12"/><line class="f" x1="286.82" y1="369.12" x2="288.21" y2="369.12"/><line class="f" x1="288.21" y1="368.42" x2="290.99" y2="368.42"/><line class="f" x1="290.99" y1="368.42" x2="290.99" y2="371.22"/><line class="f" x1="290.99" y1="371.22" x2="288.21" y2="371.22"/><line class="f" x1="288.21" y1="371.22" x2="288.21" y2="368.42"/><line class="f" x1="290.99" y1="368.42" x2="311.85" y2="368.42"/><line class="f" x1="311.85" y1="371.22" x2="290.99" y2="371.22"/><line class="f" x1="290.99" y1="369.82" x2="311.85" y2="369.82"/><line class="f" x1="531.92" y1="378.9" x2="462.39" y2="378.9"/><line class="f" x1="464.13" y1="364.93" x2="464.13" y2="371.92"/><line class="f" x1="462.39" y1="371.92" x2="462.39" y2="378.9"/><line class="f" x1="462.39" y1="378.9" x2="455.44" y2="378.9"/><line class="f" x1="451.61" y1="378.9" x2="450.83" y2="378.9"/><line class="f" x1="447.01" y1="378.9" x2="446.22" y2="378.9"/><line class="f" x1="442.4" y1="378.9" x2="438.05" y2="378.9"/><line class="f" x1="438.05" y1="378.9" x2="431.1" y2="378.9"/><line class="f" x1="462.39" y1="375.41" x2="431.1" y2="375.41"/><line class="f" x1="430.75" y1="368.42" x2="430.75" y2="336.3"/><line class="f" x1="461.35" y1="371.22" x2="461.35" y2="371.92"/><line class="f" x1="461.35" y1="371.92" x2="464.13" y2="371.92"/><line class="f" x1="464.13" y1="371.92" x2="464.13" y2="369.12"/><line class="f" x1="464.13" y1="369.12" x2="462.74" y2="369.12"/><line class="f" x1="462.74" y1="368.42" x2="459.96" y2="368.42"/><line class="f" x1="459.96" y1="368.42" x2="459.96" y2="371.22"/><line class="f" x1="459.96" y1="371.22" x2="462.74" y2="371.22"/><line class="f" x1="462.74" y1="371.22" x2="462.74" y2="368.42"/><line class="f" x1="430.75" y1="368.42" x2="433.53" y2="368.42"/><line class="f" x1="433.53" y1="368.42" x2="433.53" y2="371.22"/><line class="f" x1="433.53" y1="371.22" x2="430.75" y2="371.22"/><line class="f" x1="430.75" y1="371.22" x2="430.75" y2="368.42"/><line class="f" x1="459.96" y1="368.42" x2="433.53" y2="368.42"/><line class="f" x1="433.53" y1="371.22" x2="459.96" y2="371.22"/><line class="f" x1="459.96" y1="369.82" x2="433.53" y2="369.82"/><g class="g"><path class="f" d="M430.75,336.3a32.05,32.05,0,0,1,32,32.12"/></g><line class="f" x1="432.14" y1="371.22" x2="432.14" y2="371.92"/><line class="f" x1="432.14" y1="371.92" x2="429.36" y2="371.92"/><line class="f" x1="429.36" y1="371.92" x2="429.36" y2="369.12"/><line class="f" x1="429.36" y1="369.12" x2="430.75" y2="369.12"/><line class="f" x1="530.88" y1="371.22" x2="530.88" y2="371.92"/><line class="f" x1="530.88" y1="371.92" x2="533.66" y2="371.92"/><line class="f" x1="533.66" y1="371.92" x2="533.66" y2="369.12"/><line class="f" x1="533.66" y1="369.12" x2="532.27" y2="369.12"/><line class="f" x1="532.27" y1="368.42" x2="529.49" y2="368.42"/><line class="f" x1="529.49" y1="368.42" x2="529.49" y2="371.22"/><line class="f" x1="529.49" y1="371.22" x2="532.27" y2="371.22"/><line class="f" x1="532.27" y1="371.22" x2="532.27" y2="368.42"/><line class="f" x1="500.28" y1="371.22" x2="500.28" y2="371.92"/><line class="f" x1="500.28" y1="371.92" x2="497.5" y2="371.92"/><line class="f" x1="497.5" y1="371.92" x2="497.5" y2="369.12"/><line class="f" x1="497.5" y1="369.12" x2="498.89" y2="369.12"/><line class="f" x1="498.89" y1="368.42" x2="501.68" y2="368.42"/><line class="f" x1="501.67" y1="368.42" x2="501.67" y2="371.22"/><line class="f" x1="501.67" y1="371.22" x2="498.89" y2="371.22"/><line class="f" x1="498.89" y1="371.22" x2="498.89" y2="368.42"/><line class="f" x1="529.49" y1="368.42" x2="501.67" y2="368.42"/><line class="f" x1="501.67" y1="371.22" x2="529.49" y2="371.22"/><line class="f" x1="529.49" y1="369.82" x2="501.67" y2="369.82"/><line class="f" x1="464.13" y1="369.12" x2="466.91" y2="369.12"/><line class="f" x1="466.91" y1="369.12" x2="466.91" y2="371.92"/><line class="f" x1="466.91" y1="371.92" x2="464.13" y2="371.92"/><line class="f" x1="464.13" y1="371.92" x2="464.13" y2="369.12"/><line class="f" x1="466.91" y1="369.12" x2="497.5" y2="369.12"/><line class="f" x1="466.91" y1="370.52" x2="497.5" y2="370.52"/><line class="f" x1="466.91" y1="371.92" x2="497.5" y2="371.92"/><line class="f" x1="313.24" y1="371.22" x2="313.24" y2="371.92"/><line class="f" x1="313.24" y1="371.92" x2="316.02" y2="371.92"/><line class="f" x1="316.02" y1="371.92" x2="316.02" y2="369.12"/><line class="f" x1="316.02" y1="369.12" x2="314.63" y2="369.12"/><line class="f" x1="314.63" y1="368.42" x2="311.85" y2="368.42"/><line class="f" x1="311.85" y1="368.42" x2="311.85" y2="371.22"/><line class="f" x1="311.85" y1="371.22" x2="314.63" y2="371.22"/><line class="f" x1="314.63" y1="371.22" x2="314.63" y2="368.42"/><line class="f" x1="379.99" y1="216.18" x2="379.99" y2="244.12"/><line class="f" x1="379.99" y1="216.18" x2="352.18" y2="216.18"/><g class="g"><path class="f" d="M380,244.12a27.88,27.88,0,0,1-27.81-27.94"/></g><line class="f" x1="382.43" y1="216.18" x2="379.99" y2="216.18"/><line class="f" x1="379.99" y1="244.12" x2="382.43" y2="244.12"/><line class="f" x1="379.99" y1="244.12" x2="379.99" y2="245.86"/><line class="f" x1="382.43" y1="244.12" x2="382.43" y2="245.86"/><line class="f" x1="379.99" y1="214.44" x2="379.99" y2="216.18"/><line class="f" x1="382.43" y1="214.44" x2="382.43" y2="216.18"/><line class="f" x1="382.43" y1="216.18" x2="382.43" y2="223.16"/><line class="f" x1="382.43" y1="227.01" x2="382.43" y2="227.79"/><line class="f" x1="382.43" y1="231.63" x2="382.43" y2="232.42"/><line class="f" x1="382.43" y1="236.26" x2="382.43" y2="237.13"/><line class="f" x1="382.43" y1="237.13" x2="382.43" y2="244.11"/><line class="f" x1="379.99" y1="216.18" x2="379.13" y2="216.18"/><line class="f" x1="379.13" y1="216.18" x2="379.13" y2="212.69"/><line class="f" x1="379.13" y1="212.69" x2="379.99" y2="212.69"/><line class="f" x1="382.43" y1="216.18" x2="383.3" y2="216.18"/><line class="f" x1="383.3" y1="216.18" x2="383.3" y2="212.69"/><line class="f" x1="383.3" y1="212.69" x2="382.43" y2="212.69"/><line class="f" x1="379.13" y1="244.12" x2="379.13" y2="247.61"/><line class="f" x1="379.13" y1="247.61" x2="379.99" y2="247.61"/><line class="f" x1="382.43" y1="244.12" x2="383.3" y2="244.12"/><line class="f" x1="383.3" y1="244.12" x2="383.3" y2="247.61"/><line class="f" x1="383.3" y1="247.61" x2="382.43" y2="247.61"/><line class="f" x1="448.48" y1="219.67" x2="448.48" y2="244.12"/><line class="f" x1="448.48" y1="219.67" x2="424.15" y2="219.67"/><g class="g"><path class="f" d="M448.48,244.12a24.39,24.39,0,0,1-24.33-24.45"/></g><line class="f" x1="450.92" y1="219.67" x2="448.48" y2="219.67"/><line class="f" x1="448.48" y1="244.12" x2="450.92" y2="244.12"/><line class="f" x1="448.48" y1="244.12" x2="448.48" y2="245.86"/><line class="f" x1="450.92" y1="244.12" x2="450.92" y2="245.86"/><line class="f" x1="448.48" y1="217.93" x2="448.48" y2="219.67"/><line class="f" x1="450.92" y1="217.93" x2="450.92" y2="219.67"/><line class="f" x1="450.92" y1="219.67" x2="450.92" y2="226.66"/><line class="f" x1="450.92" y1="230.5" x2="450.92" y2="231.28"/><line class="f" x1="450.92" y1="235.12" x2="450.92" y2="235.91"/><line class="f" x1="450.92" y1="237.13" x2="450.92" y2="244.11"/><line class="f" x1="448.48" y1="219.67" x2="447.61" y2="219.67"/><line class="f" x1="447.61" y1="219.67" x2="447.61" y2="216.18"/><line class="f" x1="447.61" y1="216.18" x2="448.48" y2="216.18"/><line class="f" x1="450.92" y1="219.67" x2="451.79" y2="219.67"/><line class="f" x1="451.79" y1="219.67" x2="451.79" y2="216.18"/><line class="f" x1="451.79" y1="216.18" x2="450.92" y2="216.18"/><line class="f" x1="447.61" y1="244.12" x2="447.61" y2="247.61"/><line class="f" x1="447.61" y1="247.61" x2="448.48" y2="247.61"/><line class="f" x1="450.92" y1="244.12" x2="451.79" y2="244.12"/><line class="f" x1="451.79" y1="244.12" x2="451.79" y2="247.61"/><line class="f" x1="451.79" y1="247.61" x2="450.92" y2="247.61"/><line class="f" x1="415.46" y1="251.8" x2="443.27" y2="251.8"/><line class="f" x1="415.46" y1="251.8" x2="415.46" y2="279.73"/><g class="g"><path class="f" d="M443.27,251.8a27.88,27.88,0,0,1-27.81,27.93"/></g><line class="f" x1="415.46" y1="249.35" x2="415.46" y2="251.8"/><line class="f" x1="443.27" y1="251.8" x2="443.27" y2="249.35"/><line class="f" x1="443.27" y1="251.8" x2="445.01" y2="251.8"/><line class="f" x1="443.27" y1="249.35" x2="445.01" y2="249.35"/><line class="f" x1="413.72" y1="251.8" x2="415.46" y2="251.8"/><line class="f" x1="413.72" y1="249.35" x2="415.46" y2="249.35"/><line class="f" x1="415.46" y1="249.35" x2="422.41" y2="249.35"/><line class="f" x1="426.23" y1="249.35" x2="427.02" y2="249.35"/><line class="f" x1="430.84" y1="249.35" x2="431.62" y2="249.35"/><line class="f" x1="435.45" y1="249.35" x2="436.31" y2="249.35"/><line class="f" x1="436.32" y1="249.35" x2="443.27" y2="249.35"/><line class="f" x1="415.46" y1="251.8" x2="415.46" y2="252.67"/><line class="f" x1="415.46" y1="252.67" x2="411.98" y2="252.67"/><line class="f" x1="411.98" y1="252.67" x2="411.98" y2="251.8"/><line class="f" x1="415.46" y1="249.35" x2="415.46" y2="248.48"/><line class="f" x1="415.46" y1="248.48" x2="411.98" y2="248.48"/><line class="f" x1="411.98" y1="248.48" x2="411.98" y2="249.35"/><line class="f" x1="443.27" y1="252.67" x2="446.74" y2="252.67"/><line class="f" x1="446.74" y1="252.67" x2="446.74" y2="251.8"/><line class="f" x1="443.27" y1="249.35" x2="443.27" y2="248.48"/><line class="f" x1="443.27" y1="248.48" x2="446.74" y2="248.48"/><line class="f" x1="446.74" y1="248.48" x2="446.74" y2="249.35"/><line class="f" x1="546.18" y1="378.9" x2="546.18" y2="431.28"/><line class="f" x1="543.39" y1="378.9" x2="543.39" y2="431.28"/><line class="f" x1="543.39" y1="431.28" x2="546.18" y2="431.28"/><line class="f" x1="241.63" y1="190.34" x2="243.36" y2="190.34"/><line class="f" x1="243.36" y1="378.9" x2="243.36" y2="190.34"/><line class="f" x1="509.32" y1="209.2" x2="512.8" y2="209.2"/><line class="f" x1="545.83" y1="378.9" x2="545.83" y2="431.28"/><line class="f" x1="543.74" y1="378.9" x2="543.74" y2="431.28"/><line class="f" x1="543.74" y1="378.9" x2="545.83" y2="378.9"/><line class="f" x1="545.83" y1="378.9" x2="545.83" y2="380.99"/><line class="f" x1="545.83" y1="380.99" x2="543.74" y2="380.99"/><line class="f" x1="543.74" y1="380.99" x2="543.74" y2="378.9"/><line class="f" x1="543.74" y1="429.18" x2="545.83" y2="429.18"/><line class="f" x1="545.83" y1="429.18" x2="545.83" y2="431.28"/><line class="f" x1="545.83" y1="431.28" x2="543.74" y2="431.28"/><line class="f" x1="543.74" y1="431.28" x2="543.74" y2="429.18"/><line class="f" x1="379.99" y1="209.2" x2="379.99" y2="212.69"/><line class="f" x1="379.99" y1="212.69" x2="379.99" y2="209.2"/><line class="f" x1="369.56" y1="212.69" x2="369.56" y2="209.2"/><line class="f" x1="351.51" y1="200.09" x2="346.6" y2="205.03"/><line class="f" x1="346.59" y1="200.09" x2="351.51" y2="205.03"/><line class="f" x1="349.05" y1="206.05" x2="349.05" y2="199.07"/><line class="f" x1="352.53" y1="202.56" x2="345.58" y2="202.56"/><line class="f" x1="338.62" y1="192.09" x2="338.62" y2="212.69"/><line class="f" x1="337.75" y1="211.29" x2="318.63" y2="211.29"/><line class="f" x1="318.63" y1="211.29" x2="318.63" y2="193.83"/><line class="f" x1="318.63" y1="193.83" x2="337.75" y2="193.83"/><line class="f" x1="337.75" y1="193.83" x2="337.75" y2="211.29"/><line class="f" x1="336.02" y1="209.55" x2="320.37" y2="209.55"/><line class="f" x1="320.37" y1="209.55" x2="320.37" y2="197.33"/><line class="f" x1="320.37" y1="197.32" x2="336.02" y2="197.32"/><line class="f" x1="336.02" y1="197.32" x2="336.02" y2="209.55"/><line class="f" x1="317.76" y1="192.09" x2="317.76" y2="212.69"/><line class="f" x1="296.9" y1="191.74" x2="296.9" y2="212.69"/><line class="f" x1="510.19" y1="222.29" x2="510.19" y2="243.24"/><line class="f" x1="513.67" y1="246.73" x2="534.53" y2="246.73"/><line class="f" x1="538.01" y1="243.24" x2="538.01" y2="222.29"/><line class="f" x1="534.53" y1="218.8" x2="513.67" y2="218.8"/><line class="f" x1="490.55" y1="248.48" x2="490.55" y2="244.99"/><line class="f" x1="490.55" y1="244.99" x2="469.69" y2="244.99"/><line class="f" x1="469.69" y1="244.99" x2="469.69" y2="248.48"/><line class="f" x1="469.69" y1="248.48" x2="470.73" y2="248.48"/><line class="f" x1="470.73" y1="248.48" x2="470.73" y2="246.04"/><line class="f" x1="470.73" y1="246.04" x2="489.51" y2="246.04"/><line class="f" x1="489.51" y1="246.04" x2="489.51" y2="248.48"/><line class="f" x1="489.51" y1="248.48" x2="490.55" y2="248.48"/><line class="f" x1="490.55" y1="248.48" x2="490.55" y2="244.99"/><line class="f" x1="469.69" y1="248.48" x2="469.69" y2="244.99"/><line class="f" x1="489.51" y1="248.48" x2="489.51" y2="246.04"/><line class="f" x1="470.73" y1="248.48" x2="470.73" y2="246.04"/><line class="f" x1="490.55" y1="244.99" x2="469.69" y2="244.99"/><line class="f" x1="490.55" y1="246.04" x2="469.69" y2="246.04"/><line class="f" x1="490.55" y1="248.48" x2="489.51" y2="248.48"/><line class="f" x1="470.73" y1="248.48" x2="469.69" y2="248.48"/><line class="f" x1="250.32" y1="223.69" x2="271.53" y2="223.69"/><line class="f" x1="271.52" y1="223.69" x2="271.52" y2="244.64"/><line class="f" x1="271.52" y1="244.64" x2="250.32" y2="244.64"/><line class="f" x1="272.47" y1="241.78" x2="272.47" y2="226.54"/><line class="f" x1="508.45" y1="217.05" x2="508.45" y2="248.48"/><line class="f" x1="508.45" y1="248.48" x2="539.74" y2="248.48"/><line class="f" x1="539.74" y1="248.48" x2="539.74" y2="217.05"/><line class="f" x1="539.74" y1="217.05" x2="508.45" y2="217.05"/><line class="f" x1="306.64" y1="295.1" x2="289.26" y2="295.1"/><line class="f" x1="289.25" y1="295.1" x2="289.25" y2="323.03"/><line class="f" x1="289.25" y1="323.03" x2="306.64" y2="323.03"/><line class="f" x1="306.64" y1="323.03" x2="306.64" y2="295.1"/><line class="f" x1="512.8" y1="363.19" x2="484.99" y2="363.19"/><line class="f" x1="484.99" y1="363.19" x2="484.99" y2="360.99"/><line class="f" x1="484.99" y1="360.99" x2="512.8" y2="360.99"/><line class="f" x1="512.8" y1="360.99" x2="512.8" y2="363.19"/><line class="f" x1="340.71" y1="363.19" x2="292.04" y2="363.19"/><line class="f" x1="292.04" y1="363.19" x2="292.04" y2="359.69"/><line class="f" x1="292.04" y1="359.69" x2="340.71" y2="359.69"/><line class="f" x1="340.71" y1="359.69" x2="340.71" y2="363.19"/><g class="g"><path class="f" d="M292.56,202.56a6.09,6.09,0,1,0-6.09,6.11,6.11,6.11,0,0,0,6.09-6.11"/><path class="f" d="M291.51,202.56a5,5,0,1,0-5,5.07,5,5,0,0,0,5-5.07"/><path class="f" d="M328.89,200.82a.7.7,0,1,0-.7.7.7.7,0,0,0,.7-.7"/><path class="f" d="M535.4,222.29a.87.87,0,1,0-.87.87.87.87,0,0,0,.87-.87"/><path class="f" d="M510.19,222.29a3.48,3.48,0,0,1,3.48-3.49"/><path class="f" d="M513.67,246.73a3.48,3.48,0,0,1-3.48-3.49"/><path class="f" d="M534.53,218.8a3.48,3.48,0,0,1,3.48,3.49"/><path class="f" d="M538,243.24a3.48,3.48,0,0,1-3.48,3.49"/><path class="f" d="M259.39,229a3.42,3.42,0,1,0-3.42,3.43,3.43,3.43,0,0,0,3.42-3.43"/><path class="f" d="M269.63,229a3.42,3.42,0,1,0-3.41,3.43,3.42,3.42,0,0,0,3.41-3.43"/><path class="f" d="M269.63,239.31a3.42,3.42,0,1,0-3.41,3.42,3.42,3.42,0,0,0,3.41-3.42"/><path class="f" d="M483.25,362.09a1.74,1.74,0,1,0-1.74,1.74,1.74,1.74,0,0,0,1.74-1.74"/><path class="f" d="M290.3,361.44a1.74,1.74,0,1,0-1.74,1.75,1.75,1.75,0,0,0,1.74-1.75"/></g><line class="f" x1="286.82" y1="378.9" x2="286.82" y2="431.28"/><line class="f" x1="283.34" y1="378.9" x2="283.34" y2="434.77"/><line class="f" x1="286.82" y1="431.28" x2="546.52" y2="431.28"/><line class="f" x1="285.08" y1="378.9" x2="285.08" y2="433.02"/><line class="f" x1="546.52" y1="433.02" x2="285.08" y2="433.02"/><line class="f" x1="540.61" y1="212.69" x2="512.8" y2="212.69"/><line class="f" x1="512.8" y1="212.69" x2="512.8" y2="191.74"/><line class="f" x1="512.8" y1="191.74" x2="516.02" y2="209.54"/><line class="f" x1="516.02" y1="209.54" x2="540.61" y2="212.69"/><line class="f" x1="379.78" y1="209.2" x2="363.31" y2="209.2"/><line class="f" x1="363.31" y1="209.2" x2="363.31" y2="191.97"/><line class="f" x1="363.31" y1="191.97" x2="366.78" y2="205.71"/><line class="f" x1="366.78" y1="205.71" x2="379.78" y2="209.2"/><rect class="d" x="289.26" y="295.1" width="17.38" height="27.94"/><line class="f" x1="289.25" y1="295.1" x2="289.25" y2="323.03"/><line class="f" x1="306.64" y1="295.1" x2="289.26" y2="295.1"/><line class="f" x1="306.64" y1="323.03" x2="306.64" y2="295.1"/><line class="f" x1="289.25" y1="323.03" x2="306.64" y2="323.03"/><rect class="d" x="378.95" y="251.8" width="18.43" height="113.13"/><line class="f" x1="378.95" y1="251.8" x2="378.95" y2="364.93"/><line class="f" x1="397.38" y1="251.8" x2="378.95" y2="251.8"/><line class="f" x1="397.38" y1="364.93" x2="397.38" y2="251.8"/><line class="f" x1="378.95" y1="364.93" x2="397.38" y2="364.93"/><rect class="d" x="469.69" y="245.86" width="1.04" height="2.44"/><line class="f" x1="470.73" y1="248.31" x2="470.73" y2="245.86"/><line class="f" x1="469.69" y1="248.31" x2="470.73" y2="248.31"/><line class="f" x1="469.69" y1="245.86" x2="469.69" y2="248.31"/><line class="f" x1="470.73" y1="245.86" x2="469.69" y2="245.86"/><rect class="d" x="489.51" y="245.86" width="1.04" height="2.44"/><line class="f" x1="489.51" y1="245.86" x2="489.51" y2="248.31"/><line class="f" x1="490.55" y1="245.86" x2="489.51" y2="245.86"/><line class="f" x1="490.55" y1="248.31" x2="490.55" y2="245.86"/><line class="f" x1="489.51" y1="248.31" x2="490.55" y2="248.31"/><rect class="d" x="450.94" y="191.74" width="58.39" height="5.24"/><line class="f" x1="450.94" y1="191.74" x2="450.94" y2="196.98"/><line class="f" x1="509.32" y1="191.74" x2="450.94" y2="191.74"/><line class="f" x1="509.32" y1="196.98" x2="509.32" y2="191.74"/><line class="f" x1="450.94" y1="196.98" x2="509.32" y2="196.98"/><rect class="d" x="399.81" y="251.8" width="10.43" height="43.3"/><line class="f" x1="399.81" y1="251.8" x2="399.81" y2="295.1"/><line class="f" x1="410.24" y1="251.8" x2="399.81" y2="251.8"/><line class="f" x1="410.24" y1="295.1" x2="410.24" y2="251.8"/><line class="f" x1="399.81" y1="295.1" x2="410.24" y2="295.1"/><polygon class="d" points="287.33 362.68 286.82 361.44 287.33 360.21 288.56 359.69 289.79 360.21 290.3 361.44 289.79 362.68 288.56 363.19 287.33 362.68"/><g class="g"><path class="f" d="M286.82,361.44a1.74,1.74,0,1,1,3.48,0"/><path class="f" d="M290.3,361.44a1.74,1.74,0,1,1-3.48,0"/></g><rect class="d" x="292.04" y="359.69" width="48.67" height="3.49"/><line class="f" x1="340.71" y1="363.19" x2="340.71" y2="359.69"/><line class="f" x1="292.04" y1="363.19" x2="340.71" y2="363.19"/><line class="f" x1="292.04" y1="359.69" x2="292.04" y2="363.19"/><line class="f" x1="340.71" y1="359.69" x2="292.04" y2="359.69"/><polygon class="d" points="480.28 363.32 479.77 362.09 480.28 360.85 481.51 360.34 482.74 360.85 483.25 362.09 482.74 363.32 481.51 363.83 480.28 363.32"/><g class="g"><path class="f" d="M483.25,362.09a1.74,1.74,0,0,1-3.48,0"/><path class="f" d="M479.77,362.09a1.74,1.74,0,1,1,3.48,0"/></g><rect class="d" x="484.99" y="360.99" width="27.81" height="2.2"/><line class="f" x1="512.8" y1="363.19" x2="512.8" y2="360.99"/><line class="f" x1="484.99" y1="363.19" x2="512.8" y2="363.19"/><line class="f" x1="484.99" y1="360.99" x2="484.99" y2="363.19"/><line class="f" x1="512.8" y1="360.99" x2="484.99" y2="360.99"/><rect class="d" x="469.69" y="246.04" width="1.04" height="2.44"/><line class="f" x1="470.73" y1="248.48" x2="470.73" y2="246.04"/><line class="f" x1="469.69" y1="248.48" x2="470.73" y2="248.48"/><line class="f" x1="469.69" y1="246.04" x2="469.69" y2="248.48"/><line class="f" x1="470.73" y1="246.04" x2="469.69" y2="246.04"/><polygon class="d" points="489.51 246.03 470.73 246.03 469.69 246.03 469.69 244.99 490.55 244.99 490.55 246.03 489.51 246.03"/><line class="f" x1="490.55" y1="244.99" x2="469.69" y2="244.99"/><line class="f" x1="490.55" y1="246.04" x2="490.55" y2="244.99"/><line class="f" x1="489.51" y1="246.04" x2="490.55" y2="246.04"/><line class="f" x1="470.73" y1="246.04" x2="489.51" y2="246.04"/><line class="f" x1="469.69" y1="246.04" x2="470.73" y2="246.04"/><line class="f" x1="469.69" y1="244.99" x2="469.69" y2="246.04"/><rect class="d" x="489.51" y="246.04" width="1.04" height="2.44"/><line class="f" x1="489.51" y1="246.04" x2="489.51" y2="248.48"/><line class="f" x1="490.55" y1="246.04" x2="489.51" y2="246.04"/><line class="f" x1="490.55" y1="248.48" x2="490.55" y2="246.04"/><line class="f" x1="489.51" y1="248.48" x2="490.55" y2="248.48"/><polygon class="d" points="478.03 341.19 475.38 340.66 473.12 339.14 471.61 336.88 471.08 334.2 471.08 285.32 471.61 282.65 473.12 280.38 475.38 278.87 478.03 278.33 530.18 278.33 540.61 278.33 540.61 341.19 478.03 341.19"/><rect class="d" x="530.18" y="341.19" width="10.43" height="12.22"/><rect class="d" x="530.18" y="266.11" width="10.43" height="12.22"/><line class="f" x1="529.05" y1="307.79" x2="532.06" y2="306.95"/><line class="f" x1="529.05" y1="337.11" x2="532.06" y2="336.27"/><line class="f" x1="471.08" y1="285.32" x2="471.08" y2="334.2"/><line class="f" x1="478.03" y1="341.19" x2="540.61" y2="341.19"/><line class="f" x1="540.61" y1="341.19" x2="540.61" y2="278.33"/><line class="f" x1="540.61" y1="278.34" x2="478.03" y2="278.34"/><line class="f" x1="540.61" y1="341.19" x2="540.61" y2="353.41"/><line class="f" x1="540.61" y1="353.41" x2="530.18" y2="353.41"/><line class="f" x1="530.18" y1="353.41" x2="530.18" y2="341.19"/><line class="f" x1="530.18" y1="341.19" x2="540.61" y2="341.19"/><line class="f" x1="540.61" y1="266.11" x2="540.61" y2="278.33"/><line class="f" x1="540.61" y1="278.34" x2="530.18" y2="278.34"/><line class="f" x1="530.18" y1="278.34" x2="530.18" y2="266.11"/><line class="f" x1="530.18" y1="266.11" x2="540.61" y2="266.11"/><line class="f" x1="517.48" y1="341.19" x2="517.48" y2="278.33"/><line class="f" x1="512.26" y1="341.19" x2="512.26" y2="278.33"/><g class="g"><path class="f" d="M522.75,312.41a98.83,98.83,0,0,1,.84,12.86q0,5-.5,9.9"/><path class="f" d="M525,337.44h-.1a1.87,1.87,0,0,1-1.86-1.87,2.71,2.71,0,0,1,0-.4"/><path class="f" d="M529.05,337.11a15.12,15.12,0,0,1-3.22.35l-.82,0"/><path class="f" d="M536.82,337.3q-1.26.06-2.52.06c-1.75,0-3.5-.08-5.25-.25"/><path class="f" d="M537.32,336.84s0,.06,0,.08a.4.4,0,0,1-.4.4.2.2,0,0,1-.11,0"/><path class="f" d="M537.32,336.84c-.39-5-.57-10-.57-15q0-4.74.22-9.48"/><path class="f" d="M535.72,311.21a1.06,1.06,0,0,1,.31,0,1,1,0,0,1,1,1,.76.76,0,0,1,0,.21"/><path class="f" d="M535.72,311.21a45.33,45.33,0,0,1-6.69.49,47,47,0,0,1-5.3-.31"/><path class="f" d="M522.75,312.41a1,1,0,0,1,0-.24.81.81,0,0,1,.81-.81l.21,0"/><path class="f" d="M478,341.19a7,7,0,0,1-6.95-7"/><path class="f" d="M471.08,285.32a7,7,0,0,1,6.95-7"/><path class="f" d="M522.75,283.09a98.87,98.87,0,0,1,.84,12.87q0,4.95-.5,9.89"/><path class="f" d="M525,308.12h-.1a1.87,1.87,0,0,1-1.86-1.87,2.71,2.71,0,0,1,0-.4"/><path class="f" d="M529.05,307.79a15.12,15.12,0,0,1-3.22.35l-.82,0"/><path class="f" d="M536.82,308q-1.26.06-2.52.06c-1.75,0-3.5-.08-5.25-.25"/><path class="f" d="M537.32,307.52s0,.06,0,.08a.4.4,0,0,1-.4.4.2.2,0,0,1-.11,0"/><path class="f" d="M537.32,307.52c-.39-5-.57-10-.57-15q0-4.74.22-9.48"/><path class="f" d="M535.72,281.89a1.06,1.06,0,0,1,.31-.05,1,1,0,0,1,1,1,.76.76,0,0,1,0,.21"/><path class="f" d="M535.72,281.89a46.74,46.74,0,0,1-6.69.49,44.73,44.73,0,0,1-5.3-.31"/><path class="f" d="M522.75,283.09a1,1,0,0,1,0-.24.81.81,0,0,1,.81-.81l.21,0"/></g><polygon class="d" points="388.14 326.13 388.14 315.25 386.75 313.53 386 311.36 386 309.05 386.75 306.88 388.14 305.16 388.14 294.28 390.07 294.28 392 302.24 392 304.56 393.05 308.26 393.05 312.15 392 315.85 392 318.17 390.07 326.13 388.14 326.13"/><line class="f" x1="388.14" y1="294.28" x2="388.14" y2="305.16"/><line class="f" x1="390.07" y1="294.28" x2="388.14" y2="294.28"/><line class="f" x1="392" y1="302.24" x2="390.07" y2="294.28"/><line class="f" x1="392" y1="304.56" x2="392" y2="302.24"/><line class="f" x1="393.05" y1="308.26" x2="392" y2="304.56"/><line class="f" x1="393.05" y1="312.15" x2="393.05" y2="308.26"/><line class="f" x1="392" y1="315.85" x2="393.05" y2="312.15"/><line class="f" x1="392" y1="318.17" x2="392" y2="315.85"/><line class="f" x1="390.07" y1="326.13" x2="392" y2="318.17"/><line class="f" x1="388.14" y1="326.13" x2="390.07" y2="326.13"/><line class="f" x1="388.14" y1="315.25" x2="388.14" y2="326.13"/><line class="f" x1="386.75" y1="313.53" x2="388.14" y2="315.25"/><line class="f" x1="386" y1="311.36" x2="386.75" y2="313.53"/><line class="f" x1="386" y1="309.05" x2="386" y2="311.36"/><line class="f" x1="386.75" y1="306.88" x2="386" y2="309.05"/><line class="f" x1="388.14" y1="305.16" x2="386.75" y2="306.88"/><line class="f" x1="388.14" y1="294.28" x2="388.14" y2="326.13"/><line class="f" x1="392" y1="318.17" x2="392" y2="302.24"/><line class="f" x1="390.07" y1="294.28" x2="388.14" y2="294.28"/><line class="f" x1="388.91" y1="324" x2="388.91" y2="321.88"/><line class="f" x1="388.91" y1="321.88" x2="389.4" y2="321.88"/><line class="f" x1="389.4" y1="321.88" x2="389.4" y2="324"/><line class="f" x1="389.4" y1="324" x2="388.91" y2="324"/><line class="f" x1="388.91" y1="321.35" x2="388.91" y2="319.23"/><line class="f" x1="388.91" y1="319.23" x2="389.4" y2="319.23"/><line class="f" x1="389.4" y1="319.23" x2="389.4" y2="321.35"/><line class="f" x1="389.4" y1="321.35" x2="388.91" y2="321.35"/><line class="f" x1="390.07" y1="294.28" x2="390.07" y2="326.13"/><line class="f" x1="389.4" y1="318.7" x2="388.91" y2="318.7"/><line class="f" x1="388.91" y1="318.7" x2="388.91" y2="317.64"/><line class="f" x1="388.91" y1="317.64" x2="389.4" y2="317.64"/><line class="f" x1="389.4" y1="317.64" x2="389.4" y2="318.7"/><g class="g"><path class="f" d="M388.14,315.25a6.8,6.8,0,0,1,0-10.09"/></g><polygon class="d" points="253.45 357.95 252.96 357.75 252.75 357.25 252.75 285.32 252.96 284.82 253.45 284.62 278.82 284.62 280.56 285.09 281.84 286.37 282.3 288.11 282.3 289.16 282.1 289.65 281.61 289.86 282.11 290.28 282.3 290.91 282.3 328.97 282.11 329.57 281.61 329.95 282.24 330.33 282.3 331.06 282.3 356.9 282.33 357.39 282.07 357.79 281.61 357.95 253.45 357.95"/><polygon class="d" points="283.34 357.95 282.61 357.64 282.3 356.9 282.3 331.06 282.61 330.32 283.34 330.01 304.9 330.01 307.56 330.55 309.82 332.06 311.32 334.33 311.85 337 311.85 350.96 311.32 353.64 309.82 355.9 307.56 357.42 304.9 357.95 283.34 357.95"/><g class="g"><path class="f" d="M304.9,330a7,7,0,0,1,7,7"/></g><line class="f" x1="311.85" y1="337" x2="311.85" y2="350.97"/><g class="g"><path class="f" d="M311.85,351a7,7,0,0,1-7,7"/></g><line class="f" x1="304.9" y1="357.95" x2="283.34" y2="357.95"/><g class="g"><path class="f" d="M283.34,358a1,1,0,0,1-1-1.05"/></g><line class="f" x1="282.3" y1="356.9" x2="282.3" y2="331.06"/><g class="g"><path class="f" d="M282.3,331.06a1,1,0,0,1,1-1.05"/></g><line class="f" x1="283.34" y1="330.01" x2="304.9" y2="330.01"/><line class="f" x1="282.3" y1="289.16" x2="282.3" y2="288.11"/><line class="f" x1="278.83" y1="284.62" x2="253.45" y2="284.62"/><line class="f" x1="252.75" y1="285.32" x2="252.75" y2="289.16"/><line class="f" x1="253.45" y1="289.86" x2="281.61" y2="289.86"/><line class="f" x1="252.75" y1="289.16" x2="252.75" y2="330.01"/><line class="f" x1="252.75" y1="330.01" x2="255.18" y2="330.01"/><line class="f" x1="282.3" y1="328.97" x2="282.3" y2="290.91"/><line class="f" x1="281.26" y1="289.86" x2="263.83" y2="289.86"/><line class="f" x1="263.83" y1="330.01" x2="281.26" y2="330.01"/><line class="f" x1="255.18" y1="289.86" x2="261.74" y2="289.86"/><line class="f" x1="261.74" y1="330.01" x2="255.18" y2="330.01"/><line class="f" x1="282.3" y1="353.41" x2="282.3" y2="357.25"/><line class="f" x1="281.61" y1="357.95" x2="253.45" y2="357.95"/><line class="f" x1="252.75" y1="357.25" x2="252.75" y2="353.41"/><line class="f" x1="252.75" y1="353.41" x2="252.75" y2="330.01"/><line class="f" x1="252.75" y1="330.01" x2="255.18" y2="330.01"/><line class="f" x1="282.3" y1="331.06" x2="282.3" y2="351.66"/><line class="f" x1="263.83" y1="330.01" x2="281.26" y2="330.01"/><line class="f" x1="263.83" y1="330.01" x2="255.18" y2="330.01"/><line class="f" x1="311.85" y1="337" x2="311.85" y2="350.97"/><line class="f" x1="304.9" y1="357.95" x2="283.34" y2="357.95"/><line class="f" x1="282.3" y1="356.9" x2="282.3" y2="331.06"/><line class="f" x1="283.34" y1="330.01" x2="304.9" y2="330.01"/><line class="f" x1="254.14" y1="331.06" x2="254.14" y2="356.9"/><line class="f" x1="254.14" y1="328.97" x2="254.14" y2="290.91"/><g class="g"><path class="f" d="M252.75,285.32a.7.7,0,0,1,.7-.7"/><path class="f" d="M253.45,289.86a.7.7,0,0,1-.7-.7"/><path class="f" d="M282.3,289.16a.69.69,0,0,1-.69.7"/><path class="f" d="M281.26,289.86a1,1,0,0,1,1,1.05"/><path class="f" d="M282.3,329a1,1,0,0,1-1,1"/><path class="f" d="M282.3,357.25a.69.69,0,0,1-.69.7"/><path class="f" d="M253.45,358a.7.7,0,0,1-.7-.7"/><path class="f" d="M281.26,330a1,1,0,0,1,1,1.05"/><path class="f" d="M283.34,358a1,1,0,0,1-1-1.05"/><path class="f" d="M282.3,331.06a1,1,0,0,1,1-1.05"/></g><line class="f" x1="254.14" y1="356.9" x2="277.83" y2="356.9"/><g class="g"><path class="f" d="M273,355.64a19.77,19.77,0,0,1-15.56-19.35,20,20,0,0,1,.71-5.27"/><path class="f" d="M259,290.91A119.89,119.89,0,0,1,259,329"/><path class="f" d="M304.9,330a7,7,0,0,1,7,7"/><path class="f" d="M311.85,351a7,7,0,0,1-7,7"/><path class="f" d="M278.83,284.62a3.48,3.48,0,0,1,3.47,3.49"/></g><polygon class="d" points="335.58 251.42 334.19 248.05 331.98 245.16 329.09 242.95 335.84 239.05 337.58 238.58 339.32 239.05 340.6 240.33 344.08 246.37 344.55 248.11 344.08 249.85 342.81 251.13 336.06 255.03 335.58 251.42"/><polygon class="d" points="301.44 251.13 300.17 249.85 299.7 248.11 300.17 246.37 303.65 240.33 304.93 239.05 306.67 238.58 308.41 239.05 315.16 242.95 312.27 245.16 310.06 248.05 308.66 251.42 308.19 255.03 301.44 251.13"/><polygon class="d" points="318.64 278.39 316.9 277.92 315.62 276.65 315.16 274.9 315.16 267.11 318.52 268.5 322.12 268.98 325.73 268.5 329.09 267.11 329.09 274.9 328.62 276.65 327.35 277.92 325.61 278.39 318.64 278.39"/><polygon class="d" points="318.52 268.5 315.16 267.11 312.27 264.89 310.06 262 308.66 258.64 308.19 255.03 308.66 251.42 310.06 248.05 312.27 245.16 315.16 242.95 318.52 241.56 322.12 241.08 325.73 241.56 329.09 242.95 331.98 245.16 334.19 248.05 335.58 251.42 336.06 255.03 335.58 258.64 334.19 262 331.98 264.89 329.09 267.11 325.73 268.5 322.12 268.98 318.52 268.5"/><line class="f" x1="335.58" y1="258.64" x2="336.06" y2="255.03"/><line class="f" x1="334.19" y1="262" x2="335.58" y2="258.64"/><line class="f" x1="331.98" y1="264.89" x2="334.19" y2="262"/><line class="f" x1="329.09" y1="267.11" x2="331.98" y2="264.89"/><line class="f" x1="325.73" y1="268.5" x2="329.09" y2="267.1"/><line class="f" x1="322.12" y1="268.98" x2="325.73" y2="268.5"/><line class="f" x1="318.52" y1="268.5" x2="322.12" y2="268.98"/><line class="f" x1="315.16" y1="267.11" x2="318.52" y2="268.5"/><line class="f" x1="312.27" y1="264.89" x2="315.16" y2="267.1"/><line class="f" x1="310.05" y1="262" x2="312.27" y2="264.89"/><line class="f" x1="308.66" y1="258.64" x2="310.05" y2="262"/><line class="f" x1="308.19" y1="255.03" x2="308.66" y2="258.64"/><line class="f" x1="308.66" y1="251.42" x2="308.19" y2="255.03"/><line class="f" x1="310.05" y1="248.05" x2="308.66" y2="251.42"/><line class="f" x1="312.27" y1="245.16" x2="310.05" y2="248.05"/><line class="f" x1="315.16" y1="242.95" x2="312.27" y2="245.16"/><line class="f" x1="318.52" y1="241.56" x2="315.16" y2="242.95"/><line class="f" x1="322.12" y1="241.08" x2="318.52" y2="241.56"/><line class="f" x1="325.73" y1="241.56" x2="322.12" y2="241.08"/><line class="f" x1="329.09" y1="242.95" x2="325.73" y2="241.56"/><line class="f" x1="331.98" y1="245.16" x2="329.09" y2="242.95"/><line class="f" x1="334.19" y1="248.05" x2="331.98" y2="245.17"/><line class="f" x1="335.58" y1="251.42" x2="334.19" y2="248.05"/><line class="f" x1="336.06" y1="255.03" x2="335.58" y2="251.42"/><g class="g"><path class="f" d="M322.12,269a13.95,13.95,0,0,1,0-27.89"/><path class="f" d="M322.12,241.08a13.95,13.95,0,0,1,0,27.89"/></g><line class="f" x1="339.09" y1="241.2" x2="342.57" y2="247.24"/><line class="f" x1="342.81" y1="251.13" x2="336.06" y2="255.03"/><line class="f" x1="340.6" y1="240.33" x2="344.08" y2="246.37"/><line class="f" x1="329.09" y1="242.95" x2="335.84" y2="239.05"/><line class="f" x1="301.68" y1="247.24" x2="305.16" y2="241.2"/><line class="f" x1="308.41" y1="239.05" x2="315.15" y2="242.95"/><line class="f" x1="300.17" y1="246.37" x2="303.65" y2="240.33"/><line class="f" x1="308.19" y1="255.03" x2="301.44" y2="251.13"/><line class="f" x1="325.61" y1="276.65" x2="318.64" y2="276.65"/><line class="f" x1="315.16" y1="274.9" x2="315.16" y2="267.1"/><line class="f" x1="325.61" y1="278.39" x2="318.64" y2="278.39"/><line class="f" x1="329.09" y1="267.11" x2="329.09" y2="274.9"/><g class="g"><path class="f" d="M342.57,247.24a1.65,1.65,0,0,1,.24.87,1.76,1.76,0,0,1-.87,1.51"/><path class="f" d="M336.71,240.56a1.75,1.75,0,0,1,2.38.64"/><path class="f" d="M344.08,246.37a3.44,3.44,0,0,1,.47,1.74,3.49,3.49,0,0,1-1.74,3"/><path class="f" d="M335.84,239.05a3.44,3.44,0,0,1,1.74-.47,3.49,3.49,0,0,1,3,1.75"/><path class="f" d="M305.16,241.2a1.74,1.74,0,0,1,1.51-.87,1.8,1.8,0,0,1,.87.23"/><path class="f" d="M302.31,249.62a1.76,1.76,0,0,1-.87-1.51,1.65,1.65,0,0,1,.24-.87"/><path class="f" d="M303.65,240.33a3.48,3.48,0,0,1,3-1.75,3.44,3.44,0,0,1,1.74.47"/><path class="f" d="M301.44,251.13a3.51,3.51,0,0,1-1.74-3,3.44,3.44,0,0,1,.47-1.74"/><path class="f" d="M318.64,276.64a1.73,1.73,0,0,1-1.74-1.74"/><path class="f" d="M327.35,274.9a1.74,1.74,0,0,1-1.74,1.75"/><path class="f" d="M318.64,278.39a3.48,3.48,0,0,1-3.48-3.49"/><path class="f" d="M329.09,274.9a3.48,3.48,0,0,1-3.48,3.49"/></g><polygon class="d" points="460.3 212.34 459.94 212.19 459.78 211.81 459.78 197.5 459.94 197.13 460.3 196.98 478.38 196.98 478.75 197.13 478.9 197.5 478.9 211.81 478.75 212.19 478.38 212.34 460.3 212.34"/><line class="f" x1="460.3" y1="196.98" x2="478.38" y2="196.98"/><g class="g"><path class="f" d="M478.38,197a.52.52,0,0,1,.52.52"/></g><line class="f" x1="478.9" y1="197.5" x2="478.9" y2="211.82"/><g class="g"><path class="f" d="M478.9,211.82a.52.52,0,0,1-.52.52"/></g><line class="f" x1="478.38" y1="212.34" x2="460.3" y2="212.34"/><g class="g"><path class="f" d="M460.3,212.34a.52.52,0,0,1-.52-.52"/></g><line class="f" x1="459.78" y1="211.82" x2="459.78" y2="197.5"/><g class="g"><path class="f" d="M459.78,197.5a.52.52,0,0,1,.52-.52"/></g><line class="f" x1="461.35" y1="200.82" x2="477.34" y2="200.82"/><line class="f" x1="477.86" y1="201.34" x2="477.86" y2="210.77"/><line class="f" x1="477.34" y1="211.29" x2="461.35" y2="211.29"/><line class="f" x1="460.83" y1="210.77" x2="460.83" y2="201.34"/><g class="g"><path class="f" d="M477.34,200.82a.52.52,0,0,1,.52.52"/><path class="f" d="M477.86,210.77a.52.52,0,0,1-.52.52"/><path class="f" d="M461.35,211.29a.52.52,0,0,1-.52-.52"/><path class="f" d="M460.83,201.34a.52.52,0,0,1,.52-.52"/></g><polygon class="d" points="469.08 202.96 468.96 202.72 468.73 200.87 468.61 200.53 468.47 199.07 468.73 198.45 469.34 198.2 469.96 198.45 470.21 199.07 470.07 200.53 469.96 200.87 469.73 202.72 469.6 202.96 469.34 203.06 469.08 202.96"/><g class="g"><path class="f" d="M468.47,199.07a.87.87,0,0,1,1.74,0"/></g><line class="f" x1="470.07" y1="200.54" x2="470.21" y2="199.07"/><g class="g"><path class="f" d="M470.07,200.54a.81.81,0,0,1-.11.33"/></g><line class="f" x1="469.73" y1="202.72" x2="469.96" y2="200.87"/><g class="g"><path class="f" d="M469.73,202.72a.4.4,0,0,1-.39.34.39.39,0,0,1-.38-.34"/></g><line class="f" x1="468.73" y1="200.87" x2="468.96" y2="202.72"/><g class="g"><path class="f" d="M468.73,200.87a.7.7,0,0,1-.12-.33"/></g><line class="f" x1="468.47" y1="199.07" x2="468.61" y2="200.54"/><line class="f" x1="469.82" y1="199.94" x2="469.82" y2="200.46"/><line class="f" x1="468.87" y1="200.46" x2="468.87" y2="199.94"/><line class="f" x1="468.87" y1="199.94" x2="469.82" y2="199.94"/><g class="g"><path class="f" d="M469.82,200.46a.49.49,0,0,1-.48.48.48.48,0,0,1-.47-.48"/><path class="f" d="M470,200.87a.75.75,0,0,1-.62.34.72.72,0,0,1-.61-.34"/></g><rect class="d" x="399.81" y="330.01" width="20.86" height="34.92"/><line class="f" x1="420.67" y1="364.93" x2="420.67" y2="330.01"/><line class="f" x1="420.67" y1="330.01" x2="399.81" y2="330.01"/><line class="f" x1="399.81" y1="330.01" x2="399.81" y2="364.93"/><line class="f" x1="399.81" y1="364.93" x2="420.67" y2="364.93"/><line class="f" x1="410.24" y1="363.19" x2="410.24" y2="331.76"/><line class="f" x1="416.38" y1="361.57" x2="403.88" y2="358.61"/><line class="f" x1="417" y1="358.23" x2="405.37" y2="357.02"/><line class="f" x1="402.72" y1="353.69" x2="415.48" y2="352.69"/><line class="f" x1="404.39" y1="348.54" x2="415.48" y2="349.9"/><line class="f" x1="403.76" y1="346.66" x2="417.42" y2="346.66"/><line class="f" x1="403.7" y1="341.36" x2="417.19" y2="342.62"/><line class="f" x1="403.92" y1="339.37" x2="416.25" y2="339.37"/><line class="f" x1="403.8" y1="334.13" x2="416.44" y2="333.13"/><line class="f" x1="404.66" y1="335.39" x2="415.35" y2="336.41"/><rect class="d" x="399.81" y="295.1" width="20.86" height="34.92"/><line class="f" x1="420.67" y1="330.01" x2="420.67" y2="295.1"/><line class="f" x1="420.67" y1="295.1" x2="399.81" y2="295.1"/><line class="f" x1="399.81" y1="295.1" x2="399.81" y2="330.01"/><line class="f" x1="399.81" y1="330.01" x2="420.67" y2="330.01"/><line class="f" x1="410.24" y1="328.27" x2="410.24" y2="296.84"/><line class="f" x1="416.38" y1="326.65" x2="403.88" y2="323.69"/><line class="f" x1="417" y1="323.32" x2="405.37" y2="322.1"/><line class="f" x1="402.72" y1="318.77" x2="415.48" y2="317.77"/><line class="f" x1="404.39" y1="313.62" x2="415.48" y2="314.98"/><line class="f" x1="403.76" y1="311.74" x2="417.42" y2="311.74"/><line class="f" x1="403.7" y1="306.44" x2="417.19" y2="307.7"/><line class="f" x1="403.92" y1="304.45" x2="416.25" y2="304.45"/><line class="f" x1="403.8" y1="299.21" x2="416.44" y2="298.21"/><line class="f" x1="404.66" y1="300.47" x2="415.35" y2="301.5"/><polygon class="d" points="491.48 214.08 489.51 213.04 488.29 211.79 487.51 210.22 487.25 208.5 487.25 196.98 500.11 196.98 500.11 208.5 499.84 210.22 499.06 211.79 497.85 213.04 495.88 214.08 493.68 214.44 491.48 214.08"/><line class="f" x1="500.11" y1="196.98" x2="500.11" y2="208.5"/><line class="f" x1="500.11" y1="196.98" x2="487.25" y2="196.98"/><line class="f" x1="487.25" y1="196.98" x2="487.25" y2="208.5"/><line class="f" x1="498.02" y1="201.17" x2="498.02" y2="208.5"/><line class="f" x1="489.33" y1="201.17" x2="489.33" y2="208.5"/><line class="f" x1="489.33" y1="201.17" x2="498.02" y2="201.17"/><g class="g"><path class="f" d="M500.11,208.5a5.7,5.7,0,0,1-2.26,4.54"/><path class="f" d="M489.51,213a5.7,5.7,0,0,1-2.26-4.54"/><path class="f" d="M497.85,213a6.91,6.91,0,0,1-8.34,0"/><path class="f" d="M489.51,213a5.7,5.7,0,0,1-2.26-4.54"/><path class="f" d="M493.68,214.44a7,7,0,0,1-4.17-1.4"/><path class="f" d="M490.76,211.36a3.56,3.56,0,0,1-1.43-2.86"/><path class="f" d="M496.6,211.36a4.84,4.84,0,0,1-5.84,0"/><path class="f" d="M498,208.5a3.55,3.55,0,0,1-1.42,2.86"/></g><line class="f" x1="305.08" y1="205.23" x2="305.08" y2="199.38"/><line class="f" x1="305.08" y1="199.38" x2="307.45" y2="201.3"/><line class="f" x1="307.45" y1="201.3" x2="309.82" y2="199.38"/><line class="f" x1="309.82" y1="199.38" x2="309.82" y2="205.23"/><polygon points="540.61 364.93 540.61 191.74 420.67 191.74 420.67 183.36 548.96 183.36 548.96 191.74 548.96 364.93 540.61 364.93"/><rect x="375.48" y="371.92" width="55.62" height="6.98"/><polygon points="283.34 378.9 255.53 378.9 250.32 378.9 250.32 371.92 288.56 371.92 288.56 378.9 283.34 378.9"/><polygon points="241.63 378.9 241.63 192.09 241.63 183.36 250.32 183.36 250.32 378.9 241.63 378.9"/><polygon points="546.52 378.9 531.92 378.9 531.92 371.92 548.96 371.92 548.96 378.9 546.52 378.9"/><rect x="377.21" y="364.93" width="52.15" height="6.98"/><rect x="533.66" y="364.93" width="15.3" height="6.98"/><rect x="250.32" y="364.93" width="36.5" height="6.98"/><rect x="250.32" y="183.36" width="132.11" height="8.38"/><rect x="382.43" y="183.36" width="1.74" height="4.02"/><rect x="418.93" y="183.36" width="1.74" height="4.02"/><rect x="379.99" y="191.74" width="2.43" height="22.7"/><polygon points="509.32 216.18 509.32 191.74 512.8 191.74 512.8 212.69 540.61 212.69 540.61 216.18 509.32 216.18"/><rect x="448.48" y="191.74" width="2.43" height="26.19"/><polygon points="445.01 251.8 445.01 249.35 448.48 249.35 448.48 245.86 450.92 245.86 450.92 249.35 540.61 249.35 540.61 251.8 445.01 251.8"/><polygon points="397.38 364.93 397.38 251.8 380 251.8 380 245.86 382.43 245.86 382.43 249.35 413.72 249.35 413.72 251.8 399.81 251.8 399.81 364.93 397.38 364.93"/><rect x="543.39" y="378.9" width="2.78" height="52.38"/><polygon points="359.83 212.69 359.83 191.74 363.31 191.74 363.31 209.2 379.99 209.2 379.99 212.69 359.83 212.69"/><line class="f" x1="241.63" y1="183.36" x2="241.63" y2="378.9"/><line class="f" x1="241.63" y1="378.9" x2="283.35" y2="378.9"/><line class="f" x1="283.34" y1="378.9" x2="283.34" y2="434.77"/><line class="f" x1="283.34" y1="434.77" x2="546.52" y2="434.77"/><line class="f" x1="546.52" y1="434.77" x2="546.52" y2="378.9"/><line class="f" x1="546.52" y1="378.9" x2="548.96" y2="378.9"/><line class="f" x1="548.96" y1="378.9" x2="548.96" y2="183.36"/><line class="f" x1="548.96" y1="183.36" x2="241.63" y2="183.36"/><path class="h" d="M436.78,402.67v7h-.72v-6.35h-1.65v-.64Z"/><path class="h" d="M438.46,409.16a.53.53,0,0,1,.53-.54.54.54,0,0,1,.54.54.55.55,0,0,1-.54.55A.54.54,0,0,1,438.46,409.16Z"/><path class="h" d="M440.47,406.16c0-2.22,1.17-3.55,2.78-3.55s2.8,1.33,2.8,3.55-1.18,3.56-2.8,3.56S440.47,408.39,440.47,406.16Zm4.84,0c0-1.87-.84-2.89-2.06-2.89s-2.05,1-2.05,2.89.84,2.9,2.05,2.9S445.31,408,445.31,406.16Z"/><path class="h" d="M451.83,407.6c0,1.19-.83,2.12-2.54,2.12a3.61,3.61,0,0,1-2.5-.9l.35-.57a3,3,0,0,0,2.14.81c1.19,0,1.82-.58,1.82-1.43s-.56-1.46-2.33-1.46h-1.49l.36-3.5h3.82v.64h-3.19l-.24,2.22h.89C451,405.53,451.83,406.36,451.83,407.6Z"/><path class="h" d="M469.16,225.89v7h-.72v-6.35h-1.65v-.64Z"/><path class="h" d="M470.84,232.38a.53.53,0,0,1,.53-.54.54.54,0,0,1,.54.54.55.55,0,0,1-.54.55A.54.54,0,0,1,470.84,232.38Z"/><path class="h" d="M472.85,229.38c0-2.22,1.17-3.55,2.78-3.55s2.8,1.33,2.8,3.55-1.18,3.56-2.8,3.56S472.85,231.61,472.85,229.38Zm4.84,0c0-1.87-.84-2.89-2.06-2.89s-2.05,1-2.05,2.89.83,2.9,2.05,2.9S477.69,231.25,477.69,229.38Z"/><path class="h" d="M485.41,231H484v1.84h-.72V231h-3.94v-.52l3.7-4.63h.8l-3.57,4.51h3v-1.62h.7v1.62h1.4Z"/><path class="h" d="M436.78,295.06v7h-.72V295.7h-1.65v-.64Z"/><path class="h" d="M438.46,301.55A.53.53,0,0,1,439,301a.54.54,0,0,1,.54.54.55.55,0,0,1-.54.55A.54.54,0,0,1,438.46,301.55Z"/><path class="h" d="M440.47,298.55c0-2.22,1.17-3.55,2.78-3.55s2.8,1.33,2.8,3.55-1.18,3.56-2.8,3.56S440.47,300.78,440.47,298.55Zm4.84,0c0-1.87-.84-2.89-2.06-2.89s-2.05,1-2.05,2.89.84,2.9,2.05,2.9S445.31,300.42,445.31,298.55Z"/><path class="h" d="M451.62,300c0,1.17-.85,2.07-2.54,2.07a3.63,3.63,0,0,1-2.51-.9l.35-.57a3.06,3.06,0,0,0,2.16.81c1.16,0,1.8-.54,1.8-1.41s-.59-1.39-1.88-1.39h-.5v-.53l1.93-2.42h-3.57v-.64h4.49v.51l-2,2.48C450.87,298.13,451.62,298.92,451.62,300Z"/><path class="h" d="M329.75,295.06v7H329V295.7h-1.65v-.64Z"/><path class="h" d="M331.43,301.55A.53.53,0,0,1,332,301a.54.54,0,0,1,.54.54.55.55,0,0,1-.54.55A.54.54,0,0,1,331.43,301.55Z"/><path class="h" d="M333.44,298.55c0-2.22,1.17-3.55,2.78-3.55s2.8,1.33,2.8,3.55-1.18,3.56-2.8,3.56S333.44,300.78,333.44,298.55Zm4.84,0c0-1.87-.84-2.89-2.06-2.89s-2.05,1-2.05,2.89.84,2.9,2.05,2.9S338.28,300.42,338.28,298.55Z"/><path class="h" d="M344.82,301.41v.64h-4.9v-.51l2.9-2.85c.79-.78.94-1.25.94-1.73,0-.8-.57-1.3-1.64-1.3a2.39,2.39,0,0,0-1.9.77l-.51-.43a3.14,3.14,0,0,1,2.47-1c1.42,0,2.32.71,2.32,1.88a2.88,2.88,0,0,1-1.15,2.19L341,301.41Z"/><path class="h" d="M395.89,225.89v7h-.72v-6.35h-1.65v-.64Z"/><path class="h" d="M397.57,232.38a.53.53,0,0,1,.53-.54.54.54,0,0,1,.54.54.55.55,0,0,1-.54.55A.54.54,0,0,1,397.57,232.38Z"/><path class="h" d="M399.58,229.38c0-2.22,1.17-3.55,2.78-3.55s2.8,1.33,2.8,3.55-1.18,3.56-2.8,3.56S399.58,231.61,399.58,229.38Zm4.84,0c0-1.87-.84-2.89-2.06-2.89s-2.05,1-2.05,2.89.84,2.9,2.05,2.9S404.42,231.25,404.42,229.38Z"/><path class="h" d="M408.12,225.89v7h-.71v-6.35h-1.65v-.64Z"/></svg>