<svg xmlns="http://www.w3.org/2000/svg" xmlns:xlink="http://www.w3.org/1999/xlink" viewBox="0 0 790.58 618.13"><defs><style>.a,.f{fill:none;}.b{fill:#595a5c;}.c{fill:#b6906c;}.d{fill:#fff;}.e{fill:#231f20;}.f{stroke:#000;stroke-linecap:round;stroke-linejoin:round;stroke-width:0.34px;}.g{clip-path:url(#a);}.h{fill:#58595b;}</style><clipPath id="a"><polygon class="a" points="245.96 184.91 245.96 240.1 241.22 240.1 241.22 433.21 549.36 433.21 549.36 240.1 545.22 240.1 545.22 184.91 245.96 184.91"/></clipPath></defs><path class="b" d="M55.31,597.13H57.1V609.9H55.31Zm.92,6.11h4.09a1.89,1.89,0,0,0,1-.27,1.82,1.82,0,0,0,.68-.77,2.67,2.67,0,0,0,.24-1.16,2.7,2.7,0,0,0-.24-1.16,1.82,1.82,0,0,0-1.7-1H56.23v-1.7h4a4.09,4.09,0,0,1,2,.48A3.45,3.45,0,0,1,63.62,599a4.64,4.64,0,0,1,0,4.11,3.34,3.34,0,0,1-1.35,1.36,4,4,0,0,1-2,.49h-4Z"/><path class="b" d="M67.7,606.33a2.07,2.07,0,0,0,.49,1.48,1.76,1.76,0,0,0,1.37.52,1.89,1.89,0,0,0,1.37-.46,1.79,1.79,0,0,0,.48-1.33l.12,1.91A2.58,2.58,0,0,1,69.06,610a2.89,2.89,0,0,1-2.33-1,4.08,4.08,0,0,1-.82-2.73v-5.55H67.7Zm.22-7.86a1.93,1.93,0,0,1-.56-1.5,2.07,2.07,0,0,1,.56-1.57,2.56,2.56,0,0,1,3.18,0,2.08,2.08,0,0,1,.57,1.56,1.94,1.94,0,0,1-.57,1.5,2.65,2.65,0,0,1-3.18,0Zm2.26-.86a.94.94,0,0,0,.24-.68,1,1,0,0,0-.24-.7.91.91,0,0,0-.67-.25.92.92,0,0,0-.67.25,1,1,0,0,0-.23.7,1,1,0,0,0,.23.68.92.92,0,0,0,.67.24A.9.9,0,0,0,70.18,597.61Zm1.23,3.17h1.78v9.12H71.41Z"/><path class="b" d="M77.1,609.63A2.82,2.82,0,0,1,76,608.36a5.08,5.08,0,0,1-.36-2v-2a5.05,5.05,0,0,1,.36-2,2.71,2.71,0,0,1,1-1.27,3,3,0,0,1,1.65-.44,2.71,2.71,0,0,1,1.48.42,3.22,3.22,0,0,1,1.09,1.19l-.18,1.86a2.19,2.19,0,0,0-.22-1,1.48,1.48,0,0,0-.61-.63,2,2,0,0,0-1-.21,1.71,1.71,0,0,0-1.37.55,2.26,2.26,0,0,0-.49,1.56v2a2.19,2.19,0,0,0,.49,1.54,1.74,1.74,0,0,0,1.37.54,1.93,1.93,0,0,0,1-.23,1.45,1.45,0,0,0,.61-.64,2.25,2.25,0,0,0,.22-1l.12,1.92a2.66,2.66,0,0,1-.89,1.14,2.56,2.56,0,0,1-1.53.45A3.19,3.19,0,0,1,77.1,609.63Zm4-12.5H82.9V609.9H81.11Z"/><path class="b" d="M87.09,609.57a3.09,3.09,0,0,1-1.29-1.36,4.85,4.85,0,0,1-.44-2.15v-1.48a4.71,4.71,0,0,1,.44-2.12,3.12,3.12,0,0,1,1.29-1.35,4.71,4.71,0,0,1,4.06,0,3.12,3.12,0,0,1,1.29,1.35,4.71,4.71,0,0,1,.44,2.12v1.51a4.79,4.79,0,0,1-.44,2.13,3.12,3.12,0,0,1-1.29,1.35,4.62,4.62,0,0,1-4.06,0Zm3.49-1.83a2.43,2.43,0,0,0,.51-1.65v-1.51a2.43,2.43,0,0,0-.51-1.65,1.88,1.88,0,0,0-1.46-.58,1.85,1.85,0,0,0-1.45.58,2.38,2.38,0,0,0-.52,1.65v1.51a2.38,2.38,0,0,0,.52,1.65,1.82,1.82,0,0,0,1.45.59A1.85,1.85,0,0,0,90.58,607.74Z"/><path class="b" d="M95.43,600.78h1.79v9.12H95.43Zm4.42,1.72a2.16,2.16,0,0,0-.83-.15,1.83,1.83,0,0,0-1.33.47,1.79,1.79,0,0,0-.47,1.31L97,602.37a3.32,3.32,0,0,1,1.09-1.27,2.58,2.58,0,0,1,1.48-.45,3.39,3.39,0,0,1,1.13.18,2.62,2.62,0,0,1,.88.53l-1.17,1.58A1.56,1.56,0,0,0,99.85,602.5Z"/><path class="b" d="M102.15,600.78H104l2.81,7.93-1,1.94Zm8.07,0L106.34,612a2.6,2.6,0,0,1-.56,1,1.87,1.87,0,0,1-.84.52,4,4,0,0,1-1.23.16h-.36V612h.36a1.46,1.46,0,0,0,.8-.2,1.74,1.74,0,0,0,.51-.7l3.38-10.31Z"/><path class="b" d="M113.51,609.88a5.76,5.76,0,0,1-1.32-.48,4.89,4.89,0,0,1-1.13-.79l1.06-1.31a5.86,5.86,0,0,0,1.47.85,4.18,4.18,0,0,0,1.44.28,3.11,3.11,0,0,0,1.6-.33,1.1,1.1,0,0,0,.53-1,.79.79,0,0,0-.29-.66,1.66,1.66,0,0,0-.72-.29c-.29,0-.69-.1-1.22-.14h-.15l-.14,0h-.15a6.45,6.45,0,0,1-1.5-.26,2,2,0,0,1-1-.7,2.38,2.38,0,0,1-.41-1.49,3.07,3.07,0,0,1,.39-1.61,2.41,2.41,0,0,1,1.18-1,5.29,5.29,0,0,1,2-.32,6.38,6.38,0,0,1,2.6.52,6.16,6.16,0,0,1,1.13.66l-1.08,1.31a5.59,5.59,0,0,0-1.35-.66,4,4,0,0,0-1.3-.22,2.44,2.44,0,0,0-1.37.31,1.08,1.08,0,0,0-.46.94.64.64,0,0,0,.26.55,1.72,1.72,0,0,0,.66.25c.26,0,.64.07,1.12.1h.34a7.67,7.67,0,0,1,1.63.25,2.24,2.24,0,0,1,1.13.77,2.62,2.62,0,0,1,.45,1.65,2.92,2.92,0,0,1-.42,1.63,2.54,2.54,0,0,1-1.27,1A5.88,5.88,0,0,1,115,610,7.38,7.38,0,0,1,113.51,609.88Z"/><path class="b" d="M126,597.13h1.8V609.9H126Zm2.6,12.5a2.39,2.39,0,0,1-.93-1.16l.13-1.91a2.22,2.22,0,0,0,.21,1,1.48,1.48,0,0,0,.61.63,1.93,1.93,0,0,0,1,.22,1.74,1.74,0,0,0,1.37-.54,2.18,2.18,0,0,0,.49-1.53v-2a2.26,2.26,0,0,0-.49-1.56,1.71,1.71,0,0,0-1.37-.55,2,2,0,0,0-1,.21,1.36,1.36,0,0,0-.61.62,2.12,2.12,0,0,0-.21,1l-.19-1.76a3.37,3.37,0,0,1,1.08-1.24,2.67,2.67,0,0,1,1.49-.43,3,3,0,0,1,1.65.43,2.9,2.9,0,0,1,1.06,1.27,5.1,5.1,0,0,1,.36,2v2a4.94,4.94,0,0,1-.37,2,2.79,2.79,0,0,1-1.08,1.26,3.25,3.25,0,0,1-1.71.44A2.73,2.73,0,0,1,128.57,609.63Z"/><path class="b" d="M134.46,600.78h1.82l2.81,7.93-1,1.94Zm8.07,0L138.65,612a2.6,2.6,0,0,1-.56,1,1.87,1.87,0,0,1-.84.52,4,4,0,0,1-1.23.16h-.36V612H136a1.46,1.46,0,0,0,.8-.2,1.74,1.74,0,0,0,.51-.7l3.37-10.31Z"/><path class="b" d="M143.57,600.78h4.12v1.62h-4.12Zm1.46,8.56a2.77,2.77,0,0,1-.52-1.81v-9.4h1.8v9.42a.84.84,0,0,0,.13.51.46.46,0,0,0,.39.18h.86V610h-1A2,2,0,0,1,145,609.34Z"/><path class="b" d="M151.94,606.33a2.07,2.07,0,0,0,.49,1.48,1.76,1.76,0,0,0,1.37.52,1.91,1.91,0,0,0,1.37-.46,1.79,1.79,0,0,0,.48-1.33l.12,1.91A2.58,2.58,0,0,1,153.3,610a2.89,2.89,0,0,1-2.33-1,4.08,4.08,0,0,1-.82-2.73v-5.55h1.79Zm3.71-5.55h1.78v9.12h-1.78Z"/><rect class="c" x="612.92" y="591.68" width="35.43" height="2.83"/><path class="d" d="M648.48,594.64H612.79v-3.08h35.69ZM613,594.39h35.19v-2.58H613Z"/><rect class="c" x="612.92" y="601.6" width="70.74" height="2.83"/><path class="d" d="M683.78,604.56h-71v-3.08h71ZM613,604.31h70.49v-2.58H613Z"/><rect class="c" x="612.92" y="612.72" width="177.16" height="2.84"/><path class="d" d="M790.21,615.68H612.79V612.6H790.21ZM613,615.43H790v-2.58H613Z"/><path class="e" d="M587.26,596.28h-.8v-4.82l-.81.5v-.83l.81-.53h.8Z"/><path class="e" d="M589,595.91a1.67,1.67,0,0,1-.41-1.19v-2.58A1.65,1.65,0,0,1,589,591a2,2,0,0,1,2.42,0,1.65,1.65,0,0,1,.41,1.19v2.58a1.65,1.65,0,0,1-.41,1.19,2,2,0,0,1-2.42,0Zm1.83-.55a.89.89,0,0,0,.2-.64v-2.58a.89.89,0,0,0-.2-.64.82.82,0,0,0-.62-.22.86.86,0,0,0-.63.22.94.94,0,0,0-.2.64v2.58a.9.9,0,0,0,.21.64,1,1,0,0,0,1.24,0Z"/><path class="e" d="M593.22,595.91a1.67,1.67,0,0,1-.41-1.19v-2.58a1.65,1.65,0,0,1,.41-1.19,2,2,0,0,1,2.42,0,1.61,1.61,0,0,1,.41,1.19v2.58a1.65,1.65,0,0,1-.41,1.19,2,2,0,0,1-2.42,0Zm1.83-.55a.9.9,0,0,0,.21-.64v-2.58a.94.94,0,0,0-.2-.64.86.86,0,0,0-.63-.22.82.82,0,0,0-.62.22.89.89,0,0,0-.2.64v2.58a.89.89,0,0,0,.2.64,1,1,0,0,0,1.24,0Z"/><path class="e" d="M600.1,596.13a1.45,1.45,0,0,1-.6-.6,2.06,2.06,0,0,1-.21-1v-.67a2,2,0,0,1,.21-.94,1.37,1.37,0,0,1,.6-.59,2,2,0,0,1,.95-.21,2.21,2.21,0,0,1,.59.08,1.68,1.68,0,0,1,.51.22,1.54,1.54,0,0,1,.37.35l-.58.52a1.17,1.17,0,0,0-.4-.3,1.13,1.13,0,0,0-.48-.11.94.94,0,0,0-.71.26,1,1,0,0,0-.26.72v.67a1,1,0,0,0,.25.74.94.94,0,0,0,.72.27,1,1,0,0,0,.48-.12,1,1,0,0,0,.4-.32l.58.56a1.38,1.38,0,0,1-.38.34,1.62,1.62,0,0,1-.5.22,2.27,2.27,0,0,1-.59.07A2.12,2.12,0,0,1,600.1,596.13Z"/><path class="e" d="M603.4,592.22h.79v4.06h-.79Zm2.42,1.6a1,1,0,0,0-.21-.67.78.78,0,0,0-.6-.23.81.81,0,0,0-.6.21.73.73,0,0,0-.22.58l-.08-.78a1.46,1.46,0,0,1,.49-.57,1.22,1.22,0,0,1,.67-.2,1.33,1.33,0,0,1,.73.2,1.18,1.18,0,0,1,.46.56,2.4,2.4,0,0,1,.15.89v2.47h-.79Zm2.42,0a.93.93,0,0,0-.22-.67.85.85,0,0,0-.63-.23.72.72,0,0,0-.57.23.9.9,0,0,0-.21.64l-.16-.78a1.61,1.61,0,0,1,.51-.63,1.23,1.23,0,0,1,.69-.22,1.37,1.37,0,0,1,.75.2,1.09,1.09,0,0,1,.47.56,2.21,2.21,0,0,1,.17.89v2.47h-.8Z"/><path class="e" d="M584.33,605.5l2-2.64a1.85,1.85,0,0,0,.27-.47,1.29,1.29,0,0,0,.09-.45h0a.67.67,0,0,0-.2-.53.81.81,0,0,0-.56-.19.76.76,0,0,0-.56.21,1,1,0,0,0-.27.58h-.82a2,2,0,0,1,.29-.83,1.42,1.42,0,0,1,.56-.53,1.67,1.67,0,0,1,.79-.18,1.93,1.93,0,0,1,.87.17,1.21,1.21,0,0,1,.54.51,1.55,1.55,0,0,1,.19.8h0a1.84,1.84,0,0,1-.12.63,2.8,2.8,0,0,1-.35.63l-1.65,2.24h2.15v.76h-3.2Z"/><path class="e" d="M589,605.83a1.67,1.67,0,0,1-.41-1.19v-2.58a1.65,1.65,0,0,1,.41-1.19,2,2,0,0,1,2.42,0,1.65,1.65,0,0,1,.41,1.19v2.58a1.65,1.65,0,0,1-.41,1.19,2,2,0,0,1-2.42,0Zm1.83-.55a.89.89,0,0,0,.2-.64v-2.58a.89.89,0,0,0-.2-.64.82.82,0,0,0-.62-.22.86.86,0,0,0-.63.22.94.94,0,0,0-.19.64v2.58a.89.89,0,0,0,.2.64,1,1,0,0,0,1.24,0Z"/><path class="e" d="M593.22,605.83a1.67,1.67,0,0,1-.41-1.19v-2.58a1.61,1.61,0,0,1,.42-1.19,1.59,1.59,0,0,1,1.2-.42,1.45,1.45,0,0,1,1.62,1.61v2.58a1.61,1.61,0,0,1-.41,1.19,2,2,0,0,1-2.42,0Zm1.84-.55a.94.94,0,0,0,.2-.64v-2.58a.94.94,0,0,0-.2-.64.84.84,0,0,0-.63-.22.82.82,0,0,0-.62.22.89.89,0,0,0-.2.64v2.58a.89.89,0,0,0,.2.64.82.82,0,0,0,.62.22A.86.86,0,0,0,595.06,605.28Z"/><path class="e" d="M600.1,606.05a1.45,1.45,0,0,1-.6-.6,2.06,2.06,0,0,1-.2-1v-.67a2,2,0,0,1,.2-.94,1.37,1.37,0,0,1,.6-.59,2,2,0,0,1,.95-.21,2.35,2.35,0,0,1,.6.08,1.73,1.73,0,0,1,.5.22,1.38,1.38,0,0,1,.37.35l-.58.52a1.08,1.08,0,0,0-.4-.3,1.13,1.13,0,0,0-.48-.11,1,1,0,0,0-.71.26,1,1,0,0,0-.26.72v.67a1,1,0,0,0,.25.74.94.94,0,0,0,.72.27,1.14,1.14,0,0,0,.88-.44l.58.56a1.38,1.38,0,0,1-.38.34,1.62,1.62,0,0,1-.5.22,2.22,2.22,0,0,1-.59.07A2.12,2.12,0,0,1,600.1,606.05Z"/><path class="e" d="M603.4,602.14h.79v4.06h-.79Zm2.42,1.6a1,1,0,0,0-.21-.67.78.78,0,0,0-.6-.23.81.81,0,0,0-.6.21.73.73,0,0,0-.22.58l-.08-.78a1.46,1.46,0,0,1,.49-.57,1.22,1.22,0,0,1,.67-.2,1.3,1.3,0,0,1,.73.2,1.18,1.18,0,0,1,.46.56,2.4,2.4,0,0,1,.16.89v2.47h-.8Zm2.42,0a.93.93,0,0,0-.22-.67.85.85,0,0,0-.63-.23.73.73,0,0,0-.57.23.89.89,0,0,0-.2.64l-.16-.78a1.51,1.51,0,0,1,.5-.63,1.23,1.23,0,0,1,.69-.22,1.35,1.35,0,0,1,.75.2,1.16,1.16,0,0,1,.48.56,2.4,2.4,0,0,1,.16.89v2.47h-.8Z"/><path class="e" d="M585,615.58a1.34,1.34,0,0,1-.54-.49,2,2,0,0,1-.28-.77h.8a.75.75,0,0,0,.25.49.85.85,0,0,0,.54.17.72.72,0,0,0,.59-.25,1.1,1.1,0,0,0,.21-.72v-.48a1.1,1.1,0,0,0-.21-.72.72.72,0,0,0-.59-.25.83.83,0,0,0-.4.11,1.18,1.18,0,0,0-.34.33h-.72v-3h2.89v.76h-2.1V612a1,1,0,0,1,.34-.18.94.94,0,0,1,.37-.07,1.68,1.68,0,0,1,.84.2,1.29,1.29,0,0,1,.53.6,2.07,2.07,0,0,1,.19.94V614a2.25,2.25,0,0,1-.19.94,1.31,1.31,0,0,1-.55.59,1.69,1.69,0,0,1-.86.21A1.74,1.74,0,0,1,585,615.58Z"/><path class="e" d="M589,615.32a1.65,1.65,0,0,1-.41-1.19v-2.58a1.67,1.67,0,0,1,.41-1.19,2,2,0,0,1,2.42,0,1.65,1.65,0,0,1,.41,1.19v2.58a1.64,1.64,0,0,1-.41,1.19,1.92,1.92,0,0,1-2.42,0Zm1.83-.55a.89.89,0,0,0,.2-.64v-2.58a.88.88,0,0,0-.2-.63.78.78,0,0,0-.62-.22.82.82,0,0,0-.63.22.93.93,0,0,0-.2.63v2.58a.9.9,0,0,0,.21.64,1,1,0,0,0,1.24,0Z"/><path class="e" d="M593.22,615.32a1.65,1.65,0,0,1-.41-1.19v-2.58a1.67,1.67,0,0,1,.41-1.19,2,2,0,0,1,2.42,0,1.61,1.61,0,0,1,.41,1.19v2.58a1.64,1.64,0,0,1-.41,1.19,1.92,1.92,0,0,1-2.42,0Zm1.83-.55a.9.9,0,0,0,.21-.64v-2.58a.93.93,0,0,0-.2-.63.82.82,0,0,0-.63-.22.78.78,0,0,0-.62.22.88.88,0,0,0-.2.63v2.58a.89.89,0,0,0,.2.64,1,1,0,0,0,1.24,0Z"/><path class="e" d="M600.1,615.54a1.45,1.45,0,0,1-.6-.6,2,2,0,0,1-.21-1v-.67a2,2,0,0,1,.21-.94,1.45,1.45,0,0,1,.6-.6,2,2,0,0,1,.95-.2,2.22,2.22,0,0,1,.59.07,2,2,0,0,1,.51.22,1.76,1.76,0,0,1,.37.35l-.58.52a1.17,1.17,0,0,0-.4-.3,1.13,1.13,0,0,0-.48-.11.94.94,0,0,0-.71.26,1,1,0,0,0-.26.73V614a1.07,1.07,0,0,0,.25.74,1,1,0,0,0,.72.26,1.13,1.13,0,0,0,.48-.11,1.26,1.26,0,0,0,.4-.32l.58.55a1.42,1.42,0,0,1-.38.35,1.88,1.88,0,0,1-.5.21,2.27,2.27,0,0,1-.59.08A2,2,0,0,1,600.1,615.54Z"/><path class="e" d="M603.4,611.63h.79v4.06h-.79Zm2.42,1.6a1,1,0,0,0-.21-.66.75.75,0,0,0-.6-.24.81.81,0,0,0-.6.21.75.75,0,0,0-.22.58l-.08-.78a1.5,1.5,0,0,1,.49-.56,1.15,1.15,0,0,1,.67-.2,1.32,1.32,0,0,1,.73.19,1.28,1.28,0,0,1,.46.56,2.42,2.42,0,0,1,.15.9v2.46h-.79Zm2.42,0a.91.91,0,0,0-.22-.66.82.82,0,0,0-.63-.24.72.72,0,0,0-.57.23.9.9,0,0,0-.21.64l-.16-.78a1.51,1.51,0,0,1,.51-.62,1.16,1.16,0,0,1,.69-.22,1.37,1.37,0,0,1,.75.19,1.18,1.18,0,0,1,.47.56,2.22,2.22,0,0,1,.17.9v2.46h-.8Z"/><path class="c" d="M23.49,613.89A12.92,12.92,0,1,1,36.4,601,12.93,12.93,0,0,1,23.49,613.89Zm0-24.83A11.92,11.92,0,1,0,35.4,601,11.93,11.93,0,0,0,23.49,589.06Z"/><polygon class="d" points="35.77 588.74 9.42 600.98 35.77 613.21 32.02 600.98 35.77 588.74"/><path class="c" d="M36.58,614.14,8.23,601l28.35-13.17-4,13.17ZM10.61,601,35,612.29,31.5,601,35,589.66Z"/><path class="c" d="M2.52,605.19a5,5,0,0,1-1.11-.38,4.4,4.4,0,0,1-1-.64l.81-1a3.72,3.72,0,0,0,1.16.69,4.08,4.08,0,0,0,1.38.23,2.73,2.73,0,0,0,1.55-.38,1.17,1.17,0,0,0,.55-1.05h0a1.12,1.12,0,0,0-.25-.77,1.44,1.44,0,0,0-.64-.42,8.23,8.23,0,0,0-1-.25H3.89l-.1,0a9.48,9.48,0,0,1-1.5-.36,2.08,2.08,0,0,1-1-.73,2.42,2.42,0,0,1-.41-1.51h0a2.77,2.77,0,0,1,.38-1.47,2.44,2.44,0,0,1,1.12-.92,4.48,4.48,0,0,1,1.77-.32,4.6,4.6,0,0,1,1,.11,4.9,4.9,0,0,1,1.86.86l-.73,1a4.61,4.61,0,0,0-1-.58,3,3,0,0,0-1.06-.2,2.44,2.44,0,0,0-1.46.38,1.24,1.24,0,0,0-.53,1.07h0a1,1,0,0,0,.27.75,1.74,1.74,0,0,0,.67.4,9.3,9.3,0,0,0,1.12.27h.24a7.93,7.93,0,0,1,1.4.41,2.22,2.22,0,0,1,.94.76,2.4,2.4,0,0,1,.38,1.43h0a2.62,2.62,0,0,1-.4,1.45,2.54,2.54,0,0,1-1.16.91,4.8,4.8,0,0,1-1.83.31A6.44,6.44,0,0,1,2.52,605.19Z"/><rect class="c" x="612.5" y="600.68" width="1" height="4.68"/><rect class="c" x="612.5" y="590.76" width="1" height="4.68"/><rect class="c" x="612.5" y="611.45" width="1" height="5.24"/><rect class="c" x="789.58" y="611.45" width="1" height="5.24"/><rect class="c" x="682.59" y="600.68" width="1" height="4.68"/><rect class="c" x="647.3" y="590.76" width="1" height="4.68"/><rect class="a" width="790.34" height="618.13"/><line class="f" x1="241.22" y1="240.1" x2="243.98" y2="240.1"/><line class="f" x1="543.84" y1="188.38" x2="246.74" y2="188.38"/><line class="f" x1="543.84" y1="240.1" x2="543.84" y2="188.37"/><line class="f" x1="514.86" y1="240.1" x2="543.84" y2="240.1"/><line class="f" x1="514.86" y1="243.55" x2="514.86" y2="240.1"/><line class="f" x1="483.8" y1="243.55" x2="514.86" y2="243.55"/><line class="f" x1="483.8" y1="240.1" x2="483.8" y2="243.55"/><line class="f" x1="356.13" y1="240.1" x2="483.8" y2="240.1"/><line class="f" x1="356.13" y1="243.55" x2="356.13" y2="240.1"/><line class="f" x1="325.07" y1="243.55" x2="356.13" y2="243.55"/><line class="f" x1="325.07" y1="240.1" x2="325.07" y2="243.55"/><line class="f" x1="246.74" y1="240.1" x2="325.07" y2="240.1"/><line class="f" x1="246.74" y1="188.38" x2="246.74" y2="240.1"/><line class="f" x1="546.6" y1="240.1" x2="549.36" y2="240.1"/><rect class="d" x="250.36" y="368.9" width="31.06" height="31.03"/><line class="f" x1="250.36" y1="368.9" x2="250.36" y2="399.93"/><line class="f" x1="281.42" y1="368.9" x2="250.36" y2="368.9"/><line class="f" x1="281.42" y1="399.93" x2="281.42" y2="368.9"/><line class="f" x1="250.36" y1="399.93" x2="281.42" y2="399.93"/><rect class="d" x="384.08" y="404.25" width="20.7" height="20.69"/><line class="f" x1="384.08" y1="404.24" x2="384.08" y2="424.94"/><line class="f" x1="404.78" y1="404.24" x2="384.08" y2="404.24"/><line class="f" x1="404.78" y1="424.94" x2="404.78" y2="404.24"/><line class="f" x1="384.08" y1="424.94" x2="404.78" y2="424.94"/><polygon class="d" points="446.19 424.94 446.19 403.9 520.03 403.9 520.03 348.73 541.08 348.73 541.08 404.24 541.08 424.94 446.19 424.94"/><line class="f" x1="446.19" y1="403.9" x2="520.03" y2="403.9"/><line class="f" x1="520.03" y1="403.9" x2="520.03" y2="348.73"/><line class="f" x1="520.03" y1="348.73" x2="541.08" y2="348.73"/><line class="f" x1="541.08" y1="348.73" x2="541.08" y2="404.25"/><line class="f" x1="541.08" y1="404.24" x2="541.08" y2="424.94"/><line class="f" x1="541.08" y1="424.94" x2="446.19" y2="424.94"/><line class="f" x1="446.19" y1="424.94" x2="446.19" y2="403.9"/><line class="f" x1="408.23" y1="407.69" x2="442.74" y2="407.69"/><line class="f" x1="249.5" y1="404.24" x2="277.11" y2="404.24"/><line class="f" x1="378.9" y1="365.62" x2="351.3" y2="365.62"/><line class="f" x1="378.9" y1="365.62" x2="378.9" y2="338.04"/><g class="g"><path class="f" d="M351.3,365.62A27.59,27.59,0,0,1,378.9,338"/></g><line class="f" x1="378.9" y1="368.04" x2="378.9" y2="365.62"/><line class="f" x1="351.3" y1="365.62" x2="351.3" y2="368.04"/><line class="f" x1="351.3" y1="365.62" x2="349.57" y2="365.62"/><line class="f" x1="351.3" y1="368.04" x2="349.57" y2="368.04"/><line class="f" x1="380.63" y1="365.62" x2="378.9" y2="365.62"/><line class="f" x1="380.63" y1="368.04" x2="378.9" y2="368.04"/><line class="f" x1="378.9" y1="368.04" x2="372" y2="368.04"/><line class="f" x1="368.2" y1="368.04" x2="367.43" y2="368.04"/><line class="f" x1="363.63" y1="368.04" x2="362.85" y2="368.04"/><line class="f" x1="359.06" y1="368.04" x2="358.2" y2="368.04"/><line class="f" x1="358.2" y1="368.04" x2="351.29" y2="368.04"/><line class="f" x1="378.9" y1="365.62" x2="378.9" y2="364.76"/><line class="f" x1="378.9" y1="364.76" x2="382.35" y2="364.76"/><line class="f" x1="382.35" y1="364.76" x2="382.35" y2="365.62"/><line class="f" x1="378.9" y1="368.04" x2="378.9" y2="368.9"/><line class="f" x1="378.9" y1="368.9" x2="382.35" y2="368.9"/><line class="f" x1="382.35" y1="368.9" x2="382.35" y2="368.04"/><line class="f" x1="351.3" y1="364.76" x2="347.84" y2="364.76"/><line class="f" x1="347.84" y1="364.76" x2="347.84" y2="365.62"/><line class="f" x1="351.3" y1="368.04" x2="351.3" y2="368.9"/><line class="f" x1="351.3" y1="368.9" x2="347.84" y2="368.9"/><line class="f" x1="347.84" y1="368.9" x2="347.84" y2="368.04"/><line class="f" x1="549.36" y1="253.89" x2="549.36" y2="415.28"/><line class="f" x1="549.36" y1="417.69" x2="549.36" y2="433.21"/><line class="f" x1="541.08" y1="253.89" x2="541.08" y2="424.93"/><line class="f" x1="249.5" y1="253.89" x2="249.5" y2="365.62"/><line class="f" x1="245.96" y1="188.38" x2="545.22" y2="188.38"/><line class="f" x1="545.22" y1="240.1" x2="514.86" y2="240.1"/><line class="f" x1="549.36" y1="240.1" x2="545.22" y2="240.1"/><line class="f" x1="428.59" y1="240.1" x2="356.13" y2="240.1"/><line class="f" x1="426.86" y1="247" x2="357.85" y2="247"/><line class="f" x1="245.96" y1="240.1" x2="241.22" y2="240.1"/><line class="f" x1="269.86" y1="240.1" x2="245.96" y2="240.1"/><line class="f" x1="268.13" y1="247" x2="241.22" y2="247"/><line class="f" x1="549.36" y1="253.89" x2="549.36" y2="253.89"/><line class="f" x1="426.86" y1="253.89" x2="386.49" y2="253.89"/><line class="f" x1="384.08" y1="253.89" x2="357.85" y2="253.89"/><line class="f" x1="268.13" y1="253.89" x2="249.5" y2="253.89"/><line class="f" x1="549.36" y1="247" x2="516.58" y2="247"/><line class="f" x1="541.08" y1="253.89" x2="516.58" y2="253.89"/><line class="f" x1="378.9" y1="424.94" x2="372" y2="424.94"/><line class="f" x1="368.2" y1="424.94" x2="367.43" y2="424.94"/><line class="f" x1="363.63" y1="424.94" x2="362.85" y2="424.94"/><line class="f" x1="359.06" y1="424.94" x2="352.16" y2="424.94"/><line class="f" x1="348.36" y1="424.94" x2="347.84" y2="424.94"/><line class="f" x1="347.84" y1="424.94" x2="340.94" y2="424.94"/><line class="f" x1="405.82" y1="424.94" x2="378.9" y2="424.94"/><line class="f" x1="280.56" y1="424.94" x2="338.53" y2="424.94"/><line class="f" x1="408.23" y1="365.62" x2="386.49" y2="365.62"/><line class="f" x1="384.08" y1="365.62" x2="380.63" y2="365.62"/><line class="f" x1="405.82" y1="368.04" x2="380.63" y2="368.04"/><line class="f" x1="349.57" y1="368.04" x2="340.94" y2="368.04"/><line class="f" x1="384.08" y1="253.89" x2="384.08" y2="365.62"/><line class="f" x1="405.82" y1="368.04" x2="405.82" y2="369.76"/><line class="f" x1="408.23" y1="400.8" x2="408.23" y2="404.24"/><line class="f" x1="408.23" y1="407.69" x2="408.23" y2="424.94"/><line class="f" x1="386.49" y1="253.89" x2="386.49" y2="365.62"/><line class="f" x1="408.23" y1="369.76" x2="405.82" y2="369.76"/><line class="f" x1="349.57" y1="368.04" x2="349.57" y2="365.62"/><line class="f" x1="380.63" y1="368.04" x2="380.63" y2="365.62"/><line class="f" x1="340.94" y1="429.25" x2="340.94" y2="433.21"/><line class="f" x1="377.17" y1="429.25" x2="377.17" y2="433.21"/><line class="f" x1="342.67" y1="429.25" x2="342.67" y2="433.21"/><line class="f" x1="342.67" y1="429.25" x2="340.94" y2="429.25"/><line class="f" x1="377.17" y1="429.25" x2="378.9" y2="429.25"/><line class="f" x1="378.9" y1="429.25" x2="378.9" y2="424.94"/><line class="f" x1="340.94" y1="429.25" x2="340.94" y2="424.94"/><line class="f" x1="378.9" y1="433.21" x2="389.35" y2="433.21"/><line class="f" x1="408.23" y1="424.94" x2="442.74" y2="424.94"/><line class="f" x1="446.19" y1="424.94" x2="541.08" y2="424.94"/><line class="f" x1="344.39" y1="429.25" x2="375.45" y2="429.25"/><line class="f" x1="344.39" y1="429.25" x2="344.39" y2="398.21"/><g class="g"><path class="f" d="M344.39,398.21a31.05,31.05,0,0,1,31.06,31"/></g><line class="f" x1="344.39" y1="433.21" x2="344.39" y2="429.24"/><line class="f" x1="375.45" y1="429.25" x2="375.45" y2="433.21"/><line class="f" x1="375.45" y1="429.25" x2="377.17" y2="429.25"/><line class="f" x1="342.67" y1="429.25" x2="344.39" y2="429.25"/><line class="f" x1="378.9" y1="429.25" x2="378.9" y2="433.21"/><line class="f" x1="442.74" y1="407.69" x2="442.74" y2="424.94"/><line class="f" x1="408.23" y1="404.24" x2="446.19" y2="404.24"/><line class="f" x1="446.19" y1="404.24" x2="446.19" y2="424.94"/><line class="f" x1="249.5" y1="424.94" x2="277.11" y2="424.94"/><line class="f" x1="249.5" y1="368.04" x2="338.53" y2="368.04"/><line class="f" x1="249.5" y1="365.62" x2="349.57" y2="365.62"/><line class="f" x1="338.53" y1="368.04" x2="338.53" y2="369.76"/><line class="f" x1="338.53" y1="397.35" x2="338.53" y2="424.94"/><line class="f" x1="340.94" y1="368.04" x2="340.94" y2="369.76"/><line class="f" x1="249.5" y1="404.24" x2="249.5" y2="424.94"/><line class="f" x1="277.11" y1="404.24" x2="277.11" y2="424.94"/><line class="f" x1="249.5" y1="400.8" x2="280.56" y2="400.8"/><line class="f" x1="280.56" y1="400.8" x2="280.56" y2="404.24"/><line class="f" x1="280.56" y1="404.24" x2="280.56" y2="424.94"/><line class="f" x1="249.5" y1="400.8" x2="249.5" y2="404.24"/><line class="f" x1="280.56" y1="419.76" x2="338.53" y2="419.76"/><line class="f" x1="340.94" y1="369.76" x2="338.53" y2="369.76"/><line class="f" x1="340.94" y1="397.35" x2="338.53" y2="397.35"/><line class="f" x1="249.5" y1="368.04" x2="249.5" y2="400.8"/><line class="f" x1="340.94" y1="397.35" x2="340.94" y2="424.94"/><line class="f" x1="342.67" y1="433.21" x2="340.94" y2="433.21"/><line class="f" x1="377.17" y1="433.21" x2="378.9" y2="433.21"/><line class="f" x1="408.23" y1="400.8" x2="405.82" y2="400.8"/><line class="f" x1="405.82" y1="400.8" x2="405.82" y2="424.94"/><line class="f" x1="241.22" y1="253.89" x2="249.5" y2="253.89"/><line class="f" x1="516.58" y1="253.89" x2="516.58" y2="247"/><line class="f" x1="426.86" y1="253.89" x2="426.86" y2="247"/><line class="f" x1="516.58" y1="253.89" x2="461.37" y2="253.89"/><line class="f" x1="461.37" y1="253.89" x2="426.86" y2="253.89"/><line class="f" x1="268.13" y1="253.89" x2="268.13" y2="247"/><line class="f" x1="357.85" y1="247" x2="357.85" y2="253.89"/><line class="f" x1="246.74" y1="188.38" x2="246.74" y2="240.1"/><line class="f" x1="245.96" y1="188.38" x2="246.74" y2="188.38"/><line class="f" x1="541.08" y1="253.89" x2="549.36" y2="253.89"/><line class="f" x1="543.84" y1="188.38" x2="543.84" y2="240.1"/><line class="f" x1="543.84" y1="188.38" x2="545.22" y2="188.38"/><line class="f" x1="277.11" y1="424.94" x2="280.56" y2="424.94"/><line class="f" x1="338.53" y1="424.94" x2="340.94" y2="424.94"/><line class="f" x1="405.82" y1="424.94" x2="408.23" y2="424.94"/><line class="f" x1="442.74" y1="424.94" x2="446.19" y2="424.94"/><line class="f" x1="249.5" y1="368.04" x2="249.5" y2="365.62"/><line class="f" x1="384.08" y1="253.89" x2="386.49" y2="253.89"/><line class="f" x1="549.36" y1="417.69" x2="549.36" y2="415.28"/><line class="f" x1="269.86" y1="247" x2="269.86" y2="240.1"/><line class="f" x1="268.13" y1="247" x2="269.86" y2="247"/><line class="f" x1="428.59" y1="247" x2="428.59" y2="240.1"/><line class="f" x1="426.86" y1="247" x2="428.59" y2="247"/><line class="f" x1="356.13" y1="247" x2="356.13" y2="240.1"/><line class="f" x1="357.85" y1="247" x2="356.13" y2="247"/><line class="f" x1="514.86" y1="247" x2="514.86" y2="240.1"/><line class="f" x1="516.58" y1="247" x2="514.86" y2="247"/><line class="f" x1="514.86" y1="240.1" x2="459.65" y2="240.1"/><line class="f" x1="461.37" y1="253.89" x2="461.37" y2="247"/><line class="f" x1="459.65" y1="247" x2="459.65" y2="240.1"/><line class="f" x1="459.65" y1="240.1" x2="452.74" y2="240.1"/><line class="f" x1="448.95" y1="240.1" x2="448.17" y2="240.1"/><line class="f" x1="444.38" y1="240.1" x2="443.6" y2="240.1"/><line class="f" x1="439.8" y1="240.1" x2="435.49" y2="240.1"/><line class="f" x1="435.49" y1="240.1" x2="428.59" y2="240.1"/><line class="f" x1="459.65" y1="243.55" x2="428.59" y2="243.55"/><line class="f" x1="428.24" y1="250.45" x2="428.24" y2="282.17"/><line class="f" x1="458.61" y1="247.69" x2="458.61" y2="247"/><line class="f" x1="458.61" y1="247" x2="461.37" y2="247"/><line class="f" x1="461.37" y1="247" x2="461.37" y2="249.76"/><line class="f" x1="461.37" y1="249.76" x2="459.99" y2="249.76"/><line class="f" x1="459.99" y1="250.45" x2="457.23" y2="250.45"/><line class="f" x1="457.23" y1="250.45" x2="457.23" y2="247.69"/><line class="f" x1="457.23" y1="247.69" x2="459.99" y2="247.69"/><line class="f" x1="459.99" y1="247.69" x2="459.99" y2="250.45"/><line class="f" x1="428.24" y1="250.45" x2="431.01" y2="250.45"/><line class="f" x1="431.01" y1="250.45" x2="431.01" y2="247.69"/><line class="f" x1="431.01" y1="247.69" x2="428.24" y2="247.69"/><line class="f" x1="428.24" y1="247.69" x2="428.24" y2="250.45"/><line class="f" x1="457.23" y1="250.45" x2="431.01" y2="250.45"/><line class="f" x1="431.01" y1="247.69" x2="457.23" y2="247.69"/><line class="f" x1="457.23" y1="249.07" x2="431.01" y2="249.07"/><g class="g"><path class="f" d="M460,250.45a31.73,31.73,0,0,1-31.75,31.72"/></g><line class="f" x1="429.62" y1="247.69" x2="429.62" y2="247"/><line class="f" x1="429.62" y1="247" x2="426.86" y2="247"/><line class="f" x1="426.86" y1="247" x2="426.86" y2="249.76"/><line class="f" x1="426.86" y1="249.76" x2="428.24" y2="249.76"/><line class="f" x1="461.37" y1="249.76" x2="464.13" y2="249.76"/><line class="f" x1="464.13" y1="249.76" x2="464.13" y2="247"/><line class="f" x1="464.13" y1="247" x2="461.37" y2="247"/><line class="f" x1="461.37" y1="247" x2="461.37" y2="249.76"/><line class="f" x1="464.13" y1="249.76" x2="487.6" y2="249.76"/><line class="f" x1="464.13" y1="248.38" x2="487.6" y2="248.38"/><line class="f" x1="464.13" y1="247" x2="487.6" y2="247"/><line class="f" x1="513.82" y1="247.69" x2="513.82" y2="247"/><line class="f" x1="513.82" y1="247" x2="516.58" y2="247"/><line class="f" x1="516.58" y1="247" x2="516.58" y2="249.76"/><line class="f" x1="516.58" y1="249.76" x2="515.2" y2="249.76"/><line class="f" x1="515.2" y1="250.45" x2="512.44" y2="250.45"/><line class="f" x1="512.44" y1="250.45" x2="512.44" y2="247.69"/><line class="f" x1="512.44" y1="247.69" x2="515.2" y2="247.69"/><line class="f" x1="515.2" y1="247.69" x2="515.2" y2="250.45"/><line class="f" x1="512.44" y1="250.45" x2="491.74" y2="250.45"/><line class="f" x1="491.74" y1="247.69" x2="512.44" y2="247.69"/><line class="f" x1="512.44" y1="249.07" x2="491.74" y2="249.07"/><line class="f" x1="490.36" y1="247.69" x2="490.36" y2="247"/><line class="f" x1="490.36" y1="247" x2="487.6" y2="247"/><line class="f" x1="487.6" y1="247" x2="487.6" y2="249.76"/><line class="f" x1="487.6" y1="249.76" x2="488.98" y2="249.76"/><line class="f" x1="488.98" y1="250.45" x2="491.74" y2="250.45"/><line class="f" x1="491.74" y1="250.45" x2="491.74" y2="247.69"/><line class="f" x1="491.74" y1="247.69" x2="488.98" y2="247.69"/><line class="f" x1="488.98" y1="247.69" x2="488.98" y2="250.45"/><line class="f" x1="268.13" y1="253.89" x2="323.34" y2="253.89"/><line class="f" x1="323.34" y1="253.89" x2="357.85" y2="253.89"/><line class="f" x1="269.86" y1="240.1" x2="325.07" y2="240.1"/><line class="f" x1="323.34" y1="253.89" x2="323.34" y2="247"/><line class="f" x1="325.07" y1="247" x2="325.07" y2="240.1"/><line class="f" x1="325.07" y1="240.1" x2="331.97" y2="240.1"/><line class="f" x1="335.77" y1="240.1" x2="336.54" y2="240.1"/><line class="f" x1="340.34" y1="240.1" x2="341.12" y2="240.1"/><line class="f" x1="344.91" y1="240.1" x2="349.22" y2="240.1"/><line class="f" x1="349.22" y1="240.1" x2="356.13" y2="240.1"/><line class="f" x1="325.07" y1="243.55" x2="356.13" y2="243.55"/><line class="f" x1="356.47" y1="250.45" x2="356.47" y2="282.17"/><line class="f" x1="326.1" y1="247.69" x2="326.1" y2="247"/><line class="f" x1="326.1" y1="247" x2="323.34" y2="247"/><line class="f" x1="323.34" y1="247" x2="323.34" y2="249.76"/><line class="f" x1="323.34" y1="249.76" x2="324.72" y2="249.76"/><line class="f" x1="324.72" y1="250.45" x2="327.49" y2="250.45"/><line class="f" x1="327.49" y1="250.45" x2="327.49" y2="247.69"/><line class="f" x1="327.49" y1="247.69" x2="324.72" y2="247.69"/><line class="f" x1="324.72" y1="247.69" x2="324.72" y2="250.45"/><line class="f" x1="356.47" y1="250.45" x2="353.71" y2="250.45"/><line class="f" x1="353.71" y1="250.45" x2="353.71" y2="247.69"/><line class="f" x1="353.71" y1="247.69" x2="356.47" y2="247.69"/><line class="f" x1="356.47" y1="247.69" x2="356.47" y2="250.45"/><line class="f" x1="327.49" y1="250.45" x2="353.71" y2="250.45"/><line class="f" x1="353.71" y1="247.69" x2="327.49" y2="247.69"/><line class="f" x1="327.49" y1="249.07" x2="353.71" y2="249.07"/><g class="g"><path class="f" d="M356.47,282.17a31.74,31.74,0,0,1-31.75-31.72"/></g><line class="f" x1="355.09" y1="247.69" x2="355.09" y2="247"/><line class="f" x1="355.09" y1="247" x2="357.85" y2="247"/><line class="f" x1="357.85" y1="247" x2="357.85" y2="249.76"/><line class="f" x1="357.85" y1="249.76" x2="356.47" y2="249.76"/><line class="f" x1="323.34" y1="249.76" x2="320.58" y2="249.76"/><line class="f" x1="320.58" y1="249.76" x2="320.58" y2="247"/><line class="f" x1="320.58" y1="247" x2="323.34" y2="247"/><line class="f" x1="323.34" y1="247" x2="323.34" y2="249.76"/><line class="f" x1="320.58" y1="249.76" x2="297.12" y2="249.76"/><line class="f" x1="320.58" y1="248.38" x2="297.12" y2="248.38"/><line class="f" x1="320.58" y1="247" x2="297.12" y2="247"/><line class="f" x1="270.89" y1="247.69" x2="270.89" y2="247"/><line class="f" x1="270.89" y1="247" x2="268.13" y2="247"/><line class="f" x1="268.13" y1="247" x2="268.13" y2="249.76"/><line class="f" x1="268.13" y1="249.76" x2="269.51" y2="249.76"/><line class="f" x1="269.51" y1="250.45" x2="272.27" y2="250.45"/><line class="f" x1="272.27" y1="250.45" x2="272.27" y2="247.69"/><line class="f" x1="272.27" y1="247.69" x2="269.51" y2="247.69"/><line class="f" x1="269.51" y1="247.69" x2="269.51" y2="250.45"/><line class="f" x1="272.27" y1="250.45" x2="292.98" y2="250.45"/><line class="f" x1="292.98" y1="247.69" x2="272.27" y2="247.69"/><line class="f" x1="272.27" y1="249.07" x2="292.98" y2="249.07"/><line class="f" x1="294.36" y1="247.69" x2="294.36" y2="247"/><line class="f" x1="294.36" y1="247" x2="297.12" y2="247"/><line class="f" x1="297.12" y1="247" x2="297.12" y2="249.76"/><line class="f" x1="297.12" y1="249.76" x2="295.74" y2="249.76"/><line class="f" x1="295.74" y1="250.45" x2="292.98" y2="250.45"/><line class="f" x1="292.98" y1="250.45" x2="292.98" y2="247.69"/><line class="f" x1="292.98" y1="247.69" x2="295.74" y2="247.69"/><line class="f" x1="295.74" y1="247.69" x2="295.74" y2="250.45"/><line class="f" x1="408.23" y1="399.07" x2="408.23" y2="371.49"/><line class="f" x1="408.23" y1="399.07" x2="435.84" y2="399.07"/><g class="g"><path class="f" d="M408.23,371.49a27.6,27.6,0,0,1,27.61,27.58"/></g><line class="f" x1="405.82" y1="399.07" x2="408.23" y2="399.07"/><line class="f" x1="408.23" y1="371.49" x2="405.82" y2="371.49"/><line class="f" x1="408.23" y1="371.49" x2="408.23" y2="369.76"/><line class="f" x1="405.82" y1="371.49" x2="405.82" y2="369.76"/><line class="f" x1="408.23" y1="400.8" x2="408.23" y2="399.07"/><line class="f" x1="405.82" y1="400.8" x2="405.82" y2="399.07"/><line class="f" x1="405.82" y1="399.07" x2="405.82" y2="392.18"/><line class="f" x1="405.82" y1="388.38" x2="405.82" y2="387.61"/><line class="f" x1="405.82" y1="383.81" x2="405.82" y2="383.04"/><line class="f" x1="405.82" y1="379.24" x2="405.82" y2="378.38"/><line class="f" x1="405.82" y1="378.38" x2="405.82" y2="371.49"/><line class="f" x1="408.23" y1="399.07" x2="409.09" y2="399.07"/><line class="f" x1="409.09" y1="399.07" x2="409.09" y2="402.52"/><line class="f" x1="409.09" y1="402.52" x2="408.23" y2="402.52"/><line class="f" x1="405.82" y1="399.07" x2="404.95" y2="399.07"/><line class="f" x1="404.95" y1="399.07" x2="404.95" y2="402.52"/><line class="f" x1="404.95" y1="402.52" x2="405.81" y2="402.52"/><line class="f" x1="409.09" y1="371.49" x2="409.09" y2="368.04"/><line class="f" x1="409.09" y1="368.04" x2="408.23" y2="368.04"/><line class="f" x1="405.82" y1="371.49" x2="404.95" y2="371.49"/><line class="f" x1="404.95" y1="371.49" x2="404.95" y2="368.04"/><line class="f" x1="404.95" y1="368.04" x2="405.81" y2="368.04"/><line class="f" x1="340.94" y1="395.62" x2="340.94" y2="371.49"/><line class="f" x1="340.94" y1="395.62" x2="365.1" y2="395.62"/><g class="g"><path class="f" d="M340.94,371.49a24.14,24.14,0,0,1,24.16,24.13"/></g><line class="f" x1="338.53" y1="395.62" x2="340.94" y2="395.62"/><line class="f" x1="340.94" y1="371.49" x2="338.53" y2="371.49"/><line class="f" x1="340.94" y1="371.49" x2="340.94" y2="369.76"/><line class="f" x1="338.53" y1="371.49" x2="338.53" y2="369.76"/><line class="f" x1="340.94" y1="397.35" x2="340.94" y2="395.62"/><line class="f" x1="338.53" y1="397.35" x2="338.53" y2="395.62"/><line class="f" x1="338.53" y1="395.62" x2="338.53" y2="388.73"/><line class="f" x1="338.53" y1="384.93" x2="338.53" y2="384.16"/><line class="f" x1="338.53" y1="380.36" x2="338.53" y2="379.59"/><line class="f" x1="338.53" y1="378.38" x2="338.53" y2="371.49"/><line class="f" x1="340.94" y1="395.62" x2="341.81" y2="395.62"/><line class="f" x1="341.81" y1="395.62" x2="341.81" y2="399.07"/><line class="f" x1="341.81" y1="399.07" x2="340.94" y2="399.07"/><line class="f" x1="338.53" y1="395.62" x2="337.66" y2="395.62"/><line class="f" x1="337.66" y1="395.62" x2="337.66" y2="399.07"/><line class="f" x1="337.66" y1="399.07" x2="338.53" y2="399.07"/><line class="f" x1="341.81" y1="371.49" x2="341.81" y2="368.04"/><line class="f" x1="341.81" y1="368.04" x2="340.94" y2="368.04"/><line class="f" x1="338.53" y1="371.49" x2="337.66" y2="371.49"/><line class="f" x1="337.66" y1="371.49" x2="337.66" y2="368.04"/><line class="f" x1="337.66" y1="368.04" x2="338.53" y2="368.04"/><line class="f" x1="549.36" y1="417.69" x2="549.36" y2="417.69"/><line class="f" x1="549.36" y1="415.28" x2="549.36" y2="415.28"/><line class="f" x1="408.23" y1="369.76" x2="408.23" y2="365.62"/><line class="f" x1="277.11" y1="404.24" x2="280.56" y2="404.24"/><line class="f" x1="277.11" y1="418.04" x2="280.56" y2="418.04"/><line class="f" x1="544.19" y1="188.38" x2="544.19" y2="240.1"/><line class="f" x1="544.19" y1="188.38" x2="545.22" y2="188.38"/><line class="f" x1="545.22" y1="190.44" x2="544.19" y2="190.44"/><line class="f" x1="544.19" y1="190.44" x2="544.19" y2="188.37"/><line class="f" x1="544.19" y1="238.03" x2="545.22" y2="238.03"/><line class="f" x1="545.22" y1="240.1" x2="544.19" y2="240.1"/><line class="f" x1="546.26" y1="240.1" x2="545.22" y2="240.1"/><line class="f" x1="544.19" y1="240.1" x2="544.19" y2="238.03"/><line class="f" x1="246.39" y1="188.38" x2="246.39" y2="240.1"/><line class="f" x1="245.96" y1="188.38" x2="246.39" y2="188.38"/><line class="f" x1="246.39" y1="188.38" x2="246.39" y2="190.44"/><line class="f" x1="246.39" y1="190.44" x2="245.96" y2="190.44"/><line class="f" x1="245.96" y1="238.03" x2="246.39" y2="238.03"/><line class="f" x1="246.39" y1="238.03" x2="246.39" y2="240.1"/><line class="f" x1="245.96" y1="240.1" x2="244.32" y2="240.1"/><line class="f" x1="246.39" y1="240.1" x2="245.96" y2="240.1"/><line class="f" x1="408.23" y1="407.69" x2="408.23" y2="404.24"/><line class="f" x1="418.58" y1="407.69" x2="418.58" y2="404.24"/><line class="f" x1="408.23" y1="407.69" x2="408.23" y2="404.24"/><line class="f" x1="467.24" y1="424.94" x2="467.24" y2="403.9"/><line class="f" x1="459.32" y1="411.81" x2="454.45" y2="416.68"/><line class="f" x1="454.45" y1="411.81" x2="459.32" y2="416.68"/><line class="f" x1="456.89" y1="417.69" x2="456.89" y2="410.8"/><line class="f" x1="460.34" y1="414.25" x2="453.43" y2="414.25"/><line class="f" x1="467.24" y1="403.9" x2="446.53" y2="403.9"/><line class="f" x1="468.1" y1="405.62" x2="487.08" y2="405.62"/><line class="f" x1="487.08" y1="405.62" x2="487.08" y2="422.87"/><line class="f" x1="487.08" y1="422.87" x2="468.1" y2="422.87"/><line class="f" x1="468.1" y1="422.87" x2="468.1" y2="405.62"/><line class="f" x1="467.24" y1="403.9" x2="487.94" y2="403.9"/><line class="f" x1="469.83" y1="407.35" x2="485.35" y2="407.35"/><line class="f" x1="485.35" y1="407.35" x2="485.35" y2="419.42"/><line class="f" x1="485.35" y1="419.42" x2="469.82" y2="419.42"/><line class="f" x1="469.83" y1="419.42" x2="469.83" y2="407.35"/><line class="f" x1="487.94" y1="424.94" x2="487.94" y2="403.9"/><line class="f" x1="487.94" y1="403.9" x2="508.64" y2="403.9"/><line class="f" x1="508.64" y1="403.9" x2="508.64" y2="424.94"/><line class="f" x1="299.19" y1="368.9" x2="299.19" y2="372.35"/><line class="f" x1="299.19" y1="372.35" x2="319.89" y2="372.35"/><line class="f" x1="319.89" y1="372.35" x2="319.89" y2="368.9"/><line class="f" x1="319.89" y1="368.9" x2="318.86" y2="368.9"/><line class="f" x1="318.86" y1="368.9" x2="318.86" y2="371.31"/><line class="f" x1="318.86" y1="371.31" x2="300.23" y2="371.31"/><line class="f" x1="300.23" y1="371.31" x2="300.23" y2="368.9"/><line class="f" x1="300.23" y1="368.9" x2="299.19" y2="368.9"/><line class="f" x1="299.19" y1="368.9" x2="299.19" y2="372.35"/><line class="f" x1="319.89" y1="368.9" x2="319.89" y2="372.35"/><line class="f" x1="300.23" y1="368.9" x2="300.23" y2="371.31"/><line class="f" x1="318.86" y1="368.9" x2="318.86" y2="371.31"/><line class="f" x1="299.19" y1="372.35" x2="319.89" y2="372.35"/><line class="f" x1="299.19" y1="371.31" x2="319.89" y2="371.31"/><line class="f" x1="299.19" y1="368.9" x2="300.23" y2="368.9"/><line class="f" x1="318.86" y1="368.9" x2="319.89" y2="368.9"/><line class="f" x1="279.69" y1="394.76" x2="279.69" y2="374.07"/><line class="f" x1="276.24" y1="370.62" x2="255.54" y2="370.62"/><line class="f" x1="252.09" y1="374.07" x2="252.09" y2="394.76"/><line class="f" x1="255.54" y1="398.21" x2="276.24" y2="398.21"/><line class="f" x1="384.77" y1="424.59" x2="405.47" y2="403.9"/><line class="f" x1="541.08" y1="390.11" x2="520.03" y2="390.11"/><line class="f" x1="520.03" y1="390.11" x2="520.03" y2="369.42"/><line class="f" x1="520.03" y1="369.42" x2="541.08" y2="369.42"/><line class="f" x1="519.09" y1="372.24" x2="519.09" y2="387.29"/><line class="f" x1="396.85" y1="293.34" x2="396.85" y2="324.8"/><line class="f" x1="396.85" y1="324.8" x2="394.74" y2="324.8"/><line class="f" x1="394.74" y1="324.8" x2="392.63" y2="316.93"/><line class="f" x1="392.63" y1="316.93" x2="392.63" y2="301.2"/><line class="f" x1="392.63" y1="301.21" x2="394.74" y2="293.34"/><line class="f" x1="394.74" y1="293.34" x2="396.85" y2="293.34"/><line class="f" x1="396.01" y1="322.7" x2="396.01" y2="320.6"/><line class="f" x1="396.01" y1="320.6" x2="395.48" y2="320.6"/><line class="f" x1="395.48" y1="320.6" x2="395.48" y2="322.7"/><line class="f" x1="395.48" y1="322.7" x2="396.01" y2="322.7"/><line class="f" x1="396.01" y1="320.08" x2="396.01" y2="317.98"/><line class="f" x1="396.01" y1="317.98" x2="395.48" y2="317.98"/><line class="f" x1="395.48" y1="317.98" x2="395.48" y2="320.08"/><line class="f" x1="395.48" y1="320.08" x2="396.01" y2="320.08"/><line class="f" x1="396.01" y1="317.46" x2="396.01" y2="316.41"/><line class="f" x1="396.01" y1="316.41" x2="395.48" y2="316.41"/><line class="f" x1="395.48" y1="316.41" x2="395.48" y2="317.46"/><line class="f" x1="395.48" y1="317.46" x2="396.01" y2="317.46"/><line class="f" x1="394.74" y1="293.34" x2="394.74" y2="324.8"/><line class="f" x1="446.19" y1="403.9" x2="446.19" y2="424.94"/><line class="f" x1="446.19" y1="424.94" x2="541.08" y2="424.94"/><line class="f" x1="541.08" y1="424.94" x2="541.08" y2="348.72"/><line class="f" x1="541.08" y1="348.73" x2="520.03" y2="348.73"/><line class="f" x1="520.03" y1="348.73" x2="520.03" y2="403.9"/><line class="f" x1="520.03" y1="403.9" x2="446.19" y2="403.9"/><line class="f" x1="281.42" y1="399.93" x2="281.42" y2="368.9"/><line class="f" x1="281.42" y1="368.9" x2="250.36" y2="368.9"/><line class="f" x1="250.36" y1="368.9" x2="250.36" y2="399.93"/><line class="f" x1="250.36" y1="399.93" x2="281.42" y2="399.93"/><line class="f" x1="485.36" y1="322.86" x2="502.61" y2="322.86"/><line class="f" x1="502.61" y1="322.86" x2="502.61" y2="295.28"/><line class="f" x1="502.61" y1="295.28" x2="485.36" y2="295.28"/><line class="f" x1="485.36" y1="295.28" x2="485.36" y2="322.86"/><line class="f" x1="405.47" y1="403.9" x2="405.47" y2="424.59"/><line class="f" x1="405.47" y1="424.59" x2="384.77" y2="424.59"/><line class="f" x1="384.77" y1="424.59" x2="384.77" y2="403.9"/><line class="f" x1="384.77" y1="403.9" x2="405.47" y2="403.9"/><line class="f" x1="281.94" y1="255.62" x2="309.54" y2="255.62"/><line class="f" x1="309.54" y1="255.62" x2="309.54" y2="257.79"/><line class="f" x1="309.54" y1="257.79" x2="281.94" y2="257.79"/><line class="f" x1="281.94" y1="257.79" x2="281.94" y2="255.62"/><line class="f" x1="511.41" y1="255.62" x2="463.1" y2="255.62"/><line class="f" x1="463.1" y1="255.62" x2="463.1" y2="259.07"/><line class="f" x1="463.1" y1="259.07" x2="511.41" y2="259.07"/><line class="f" x1="511.41" y1="259.07" x2="511.41" y2="255.62"/><g class="g"><path class="f" d="M536.42,359.07a6,6,0,1,0-6,6,6,6,0,0,0,6-6"/><path class="f" d="M535.39,359.07a5,5,0,1,0-5,5,5,5,0,0,0,5-5"/><path class="f" d="M478.28,416a.69.69,0,1,0-.69.69.69.69,0,0,0,.69-.69"/><path class="f" d="M256.4,394.76a.86.86,0,1,0-.86.86.86.86,0,0,0,.86-.86"/><path class="f" d="M279.69,394.76a3.45,3.45,0,0,1-3.45,3.45"/><path class="f" d="M276.24,370.62a3.45,3.45,0,0,1,3.45,3.45"/><path class="f" d="M255.54,398.21a3.45,3.45,0,0,1-3.45-3.45"/><path class="f" d="M252.09,374.07a3.45,3.45,0,0,1,3.45-3.45"/><path class="f" d="M538.85,384.84a3.39,3.39,0,1,0-3.38,3.39,3.38,3.38,0,0,0,3.38-3.39"/><path class="f" d="M528.69,384.84a3.39,3.39,0,1,0-3.39,3.39,3.39,3.39,0,0,0,3.39-3.39"/><path class="f" d="M528.69,374.68a3.39,3.39,0,1,0-3.39,3.39,3.38,3.38,0,0,0,3.39-3.39"/><path class="f" d="M393,302.78a6.29,6.29,0,0,1,0,12.58"/><path class="f" d="M393,315.36a12.55,12.55,0,0,1,0-12.58"/><path class="f" d="M314.72,256.71a1.73,1.73,0,1,0-1.73,1.72,1.72,1.72,0,0,0,1.73-1.72"/><path class="f" d="M516.58,257.34a1.73,1.73,0,1,0-1.72,1.73,1.72,1.72,0,0,0,1.72-1.73"/></g><line class="f" x1="245.96" y1="188.38" x2="545.22" y2="188.38"/><line class="f" x1="245.96" y1="184.93" x2="545.22" y2="184.93"/><line class="f" x1="245.96" y1="186.65" x2="545.22" y2="186.65"/><line class="f" x1="442.74" y1="424.94" x2="408.23" y2="424.94"/><line class="f" x1="408.23" y1="424.94" x2="408.23" y2="407.69"/><line class="f" x1="408.23" y1="407.69" x2="411.68" y2="421.49"/><line class="f" x1="411.68" y1="421.49" x2="442.74" y2="424.94"/><line class="f" x1="249.5" y1="404.24" x2="249.5" y2="424.94"/><line class="f" x1="249.5" y1="424.94" x2="277.11" y2="424.94"/><line class="f" x1="277.11" y1="424.94" x2="252.95" y2="421.49"/><line class="f" x1="252.95" y1="421.49" x2="249.5" y2="404.24"/><rect class="d" x="485.36" y="295.28" width="17.25" height="27.59"/><line class="f" x1="485.36" y1="295.28" x2="485.36" y2="322.86"/><line class="f" x1="502.61" y1="295.28" x2="485.36" y2="295.28"/><line class="f" x1="502.61" y1="322.86" x2="502.61" y2="295.28"/><line class="f" x1="485.36" y1="322.86" x2="502.61" y2="322.86"/><rect class="d" x="280.56" y="419.76" width="57.97" height="5.17"/><line class="f" x1="280.56" y1="419.76" x2="280.56" y2="424.94"/><line class="f" x1="338.53" y1="419.76" x2="280.56" y2="419.76"/><line class="f" x1="338.53" y1="424.94" x2="338.53" y2="419.76"/><line class="f" x1="280.56" y1="424.94" x2="338.53" y2="424.94"/><rect class="d" x="299.19" y="368.9" width="1.04" height="2.41"/><line class="f" x1="300.23" y1="371.31" x2="300.23" y2="368.9"/><line class="f" x1="299.19" y1="371.31" x2="300.23" y2="371.31"/><line class="f" x1="299.19" y1="368.9" x2="299.19" y2="371.31"/><line class="f" x1="300.23" y1="368.9" x2="299.19" y2="368.9"/><rect class="d" x="299.19" y="371.31" width="20.7" height="1.03"/><line class="f" x1="319.89" y1="371.31" x2="299.19" y2="371.31"/><line class="f" x1="319.89" y1="372.35" x2="319.89" y2="371.31"/><line class="f" x1="299.19" y1="372.35" x2="319.89" y2="372.35"/><line class="f" x1="299.19" y1="371.31" x2="299.19" y2="372.35"/><rect class="d" x="318.86" y="368.9" width="1.04" height="2.41"/><line class="f" x1="319.89" y1="371.31" x2="319.89" y2="368.9"/><line class="f" x1="318.86" y1="371.31" x2="319.89" y2="371.31"/><line class="f" x1="318.86" y1="368.9" x2="318.86" y2="371.31"/><line class="f" x1="319.89" y1="368.9" x2="318.86" y2="368.9"/><rect class="d" x="386.49" y="253.89" width="15.87" height="111.73"/><line class="f" x1="386.49" y1="253.89" x2="386.49" y2="365.62"/><line class="f" x1="402.36" y1="253.89" x2="386.49" y2="253.89"/><line class="f" x1="402.36" y1="365.62" x2="402.36" y2="253.89"/><line class="f" x1="386.49" y1="365.62" x2="402.37" y2="365.62"/><line class="f" x1="549.36" y1="399.42" x2="549.36" y2="415.28"/><line class="f" x1="549.36" y1="399.42" x2="549.36" y2="399.42"/><line class="f" x1="549.36" y1="415.28" x2="549.36" y2="415.28"/><rect class="d" x="463.1" y="255.62" width="48.31" height="3.45"/><line class="f" x1="511.41" y1="255.62" x2="463.1" y2="255.62"/><line class="f" x1="511.41" y1="259.07" x2="511.41" y2="255.62"/><line class="f" x1="463.1" y1="259.07" x2="511.41" y2="259.07"/><line class="f" x1="463.1" y1="255.62" x2="463.1" y2="259.07"/><polygon class="d" points="513.63 258.56 513.13 257.34 513.63 256.13 514.86 255.62 516.08 256.13 516.58 257.34 516.08 258.56 514.86 259.07 513.63 258.56"/><g class="g"><path class="f" d="M516.58,257.34a1.73,1.73,0,1,1-3.45,0"/><path class="f" d="M513.13,257.34a1.73,1.73,0,0,1,3.45,0"/></g><polygon class="d" points="311.77 257.93 311.27 256.7 311.77 255.49 312.99 254.98 314.21 255.49 314.72 256.7 314.21 257.93 312.99 258.43 311.77 257.93"/><g class="g"><path class="f" d="M314.72,256.71a1.73,1.73,0,0,1-3.45,0"/><path class="f" d="M311.27,256.71a1.73,1.73,0,1,1,3.45,0"/></g><rect class="d" x="281.94" y="255.62" width="27.61" height="2.17"/><line class="f" x1="309.54" y1="255.62" x2="281.94" y2="255.62"/><line class="f" x1="309.54" y1="257.79" x2="309.54" y2="255.62"/><line class="f" x1="281.94" y1="257.79" x2="309.54" y2="257.79"/><line class="f" x1="281.94" y1="255.62" x2="281.94" y2="257.79"/><polygon class="d" points="259.85 343.55 249.5 343.55 249.5 281.48 311.61 281.48 314.25 282.01 316.49 283.5 317.99 285.74 318.51 288.38 318.51 336.66 317.99 339.3 316.49 341.53 314.25 343.03 311.61 343.55 259.85 343.55"/><rect class="d" x="249.5" y="269.41" width="10.35" height="12.07"/><rect class="d" x="249.5" y="343.55" width="10.35" height="12.07"/><line class="f" x1="260.97" y1="314.47" x2="257.99" y2="315.3"/><line class="f" x1="260.97" y1="285.51" x2="257.99" y2="286.34"/><line class="f" x1="318.51" y1="336.66" x2="318.51" y2="288.38"/><line class="f" x1="311.61" y1="281.48" x2="249.5" y2="281.48"/><line class="f" x1="249.5" y1="281.48" x2="249.5" y2="343.55"/><line class="f" x1="249.5" y1="343.55" x2="311.61" y2="343.55"/><line class="f" x1="249.5" y1="281.48" x2="249.5" y2="269.41"/><line class="f" x1="249.5" y1="269.41" x2="259.85" y2="269.41"/><line class="f" x1="259.85" y1="269.41" x2="259.85" y2="281.48"/><line class="f" x1="259.85" y1="281.48" x2="249.5" y2="281.48"/><line class="f" x1="249.5" y1="355.62" x2="249.5" y2="343.55"/><line class="f" x1="249.5" y1="343.55" x2="259.85" y2="343.55"/><line class="f" x1="259.85" y1="343.55" x2="259.85" y2="355.62"/><line class="f" x1="259.85" y1="355.62" x2="249.5" y2="355.62"/><line class="f" x1="272.46" y1="281.48" x2="272.46" y2="343.55"/><line class="f" x1="277.64" y1="281.48" x2="277.64" y2="343.55"/><g class="g"><path class="f" d="M267.23,309.9a96.11,96.11,0,0,1-.34-22.47"/><path class="f" d="M265,285.19h.09a1.85,1.85,0,0,1,1.85,1.85,1.81,1.81,0,0,1,0,.4"/><path class="f" d="M261,285.51a14.94,14.94,0,0,1,3.2-.35c.27,0,.55,0,.82,0"/><path class="f" d="M253.27,285.32c.83,0,1.66-.06,2.5-.06,1.73,0,3.47.09,5.2.25"/><path class="f" d="M252.77,285.77s0,0,0-.08a.4.4,0,0,1,.39-.39l.12,0"/><path class="f" d="M252.77,285.77q.57,7.41.57,14.84,0,4.68-.23,9.36"/><path class="f" d="M254.36,311.09a1.12,1.12,0,0,1-.31.05,1,1,0,0,1-1-1,1.49,1.49,0,0,1,0-.21"/><path class="f" d="M254.36,311.09a46.13,46.13,0,0,1,11.89-.18"/><path class="f" d="M267.23,309.9a.67.67,0,0,1,0,.24.8.8,0,0,1-.8.8.83.83,0,0,1-.22,0"/><path class="f" d="M311.61,281.48a6.9,6.9,0,0,1,6.9,6.9"/><path class="f" d="M318.51,336.66a6.89,6.89,0,0,1-6.9,6.89"/><path class="f" d="M267.23,338.86a96.2,96.2,0,0,1-.34-22.48"/><path class="f" d="M265,314.14h.09a1.85,1.85,0,0,1,1.85,1.85,1.72,1.72,0,0,1,0,.39"/><path class="f" d="M261,314.47a14.94,14.94,0,0,1,3.2-.35l.82,0"/><path class="f" d="M253.27,314.27c.83,0,1.66,0,2.5,0,1.73,0,3.47.08,5.2.25"/><path class="f" d="M252.77,314.73s0-.05,0-.08a.39.39,0,0,1,.39-.39h.12"/><path class="f" d="M252.77,314.73q.57,7.41.57,14.83,0,4.69-.23,9.37"/><path class="f" d="M254.36,340a1.12,1.12,0,0,1-.31,0,1,1,0,0,1-1-1,1.23,1.23,0,0,1,0-.2"/><path class="f" d="M254.36,340a46.13,46.13,0,0,1,11.89-.18"/><path class="f" d="M267.23,338.86a.61.61,0,0,1,0,.24.79.79,0,0,1-.8.79.83.83,0,0,1-.22,0"/></g><polygon class="d" points="394.94 324.79 393.02 316.93 393.02 314.64 391.98 310.98 391.98 307.15 393.02 303.49 393.02 301.2 394.94 293.34 396.85 293.34 396.85 304.08 398.24 305.79 398.98 307.92 398.98 310.21 398.24 312.34 396.85 314.05 396.85 324.79 394.94 324.79"/><line class="f" x1="396.85" y1="324.79" x2="396.85" y2="314.05"/><line class="f" x1="394.94" y1="324.79" x2="396.85" y2="324.79"/><line class="f" x1="393.02" y1="316.93" x2="394.94" y2="324.79"/><line class="f" x1="393.02" y1="314.64" x2="393.02" y2="316.93"/><line class="f" x1="391.98" y1="310.98" x2="393.02" y2="314.64"/><line class="f" x1="391.98" y1="307.15" x2="391.98" y2="310.98"/><line class="f" x1="393.02" y1="303.49" x2="391.98" y2="307.15"/><line class="f" x1="393.02" y1="301.2" x2="393.02" y2="303.49"/><line class="f" x1="394.94" y1="293.34" x2="393.02" y2="301.2"/><line class="f" x1="396.85" y1="293.34" x2="394.94" y2="293.34"/><line class="f" x1="396.85" y1="304.09" x2="396.85" y2="293.34"/><line class="f" x1="398.24" y1="305.79" x2="396.85" y2="304.09"/><line class="f" x1="398.98" y1="307.92" x2="398.24" y2="305.79"/><line class="f" x1="398.98" y1="310.21" x2="398.98" y2="307.92"/><line class="f" x1="398.24" y1="312.34" x2="398.98" y2="310.21"/><line class="f" x1="396.85" y1="314.05" x2="398.24" y2="312.34"/><line class="f" x1="396.85" y1="324.79" x2="396.85" y2="293.34"/><line class="f" x1="393.02" y1="301.2" x2="393.02" y2="316.93"/><line class="f" x1="394.94" y1="324.79" x2="396.85" y2="324.79"/><line class="f" x1="396.09" y1="295.44" x2="396.09" y2="297.53"/><line class="f" x1="396.09" y1="297.53" x2="395.61" y2="297.53"/><line class="f" x1="395.61" y1="297.53" x2="395.61" y2="295.44"/><line class="f" x1="395.61" y1="295.44" x2="396.09" y2="295.44"/><line class="f" x1="396.09" y1="298.06" x2="396.09" y2="300.16"/><line class="f" x1="396.09" y1="300.15" x2="395.61" y2="300.15"/><line class="f" x1="395.61" y1="300.15" x2="395.61" y2="298.06"/><line class="f" x1="395.61" y1="298.06" x2="396.09" y2="298.06"/><line class="f" x1="394.94" y1="324.79" x2="394.94" y2="293.34"/><line class="f" x1="395.61" y1="300.68" x2="396.09" y2="300.68"/><line class="f" x1="396.09" y1="300.68" x2="396.09" y2="301.73"/><line class="f" x1="396.09" y1="301.73" x2="395.61" y2="301.73"/><line class="f" x1="395.61" y1="301.73" x2="395.61" y2="300.68"/><g class="g"><path class="f" d="M396.85,304.08a6.71,6.71,0,0,1,0,10"/></g><polygon class="d" points="512.44 332.88 510.72 332.42 509.45 331.16 508.99 329.44 508.99 328.4 509.19 327.91 509.68 327.71 509.18 327.3 508.99 326.68 508.99 289.09 509.18 288.49 509.68 288.11 509.05 287.75 508.99 287.02 508.99 261.5 508.96 261.02 509.23 260.62 509.68 260.47 537.63 260.47 538.12 260.67 538.32 261.16 538.32 332.19 538.12 332.68 537.63 332.88 512.44 332.88"/><polygon class="d" points="486.56 288.05 483.92 287.53 481.68 286.03 480.19 283.8 479.66 281.16 479.66 267.36 480.19 264.72 481.68 262.49 483.92 260.99 486.56 260.47 507.95 260.47 508.69 260.77 508.99 261.5 508.99 287.02 508.69 287.75 507.95 288.05 486.56 288.05"/><g class="g"><path class="f" d="M486.56,288.05a6.89,6.89,0,0,1-6.9-6.89"/></g><line class="f" x1="479.66" y1="281.16" x2="479.66" y2="267.36"/><g class="g"><path class="f" d="M479.66,267.36a6.89,6.89,0,0,1,6.9-6.89"/></g><line class="f" x1="486.56" y1="260.47" x2="507.96" y2="260.47"/><g class="g"><path class="f" d="M508,260.47a1,1,0,0,1,1,1"/></g><line class="f" x1="508.99" y1="261.5" x2="508.99" y2="287.02"/><g class="g"><path class="f" d="M509,287a1,1,0,0,1-1,1"/></g><line class="f" x1="507.96" y1="288.05" x2="486.56" y2="288.05"/><line class="f" x1="508.99" y1="328.4" x2="508.99" y2="329.43"/><line class="f" x1="512.44" y1="332.88" x2="537.63" y2="332.88"/><line class="f" x1="538.32" y1="332.19" x2="538.32" y2="328.4"/><line class="f" x1="537.63" y1="327.71" x2="509.68" y2="327.71"/><line class="f" x1="538.32" y1="328.4" x2="538.32" y2="288.05"/><line class="f" x1="538.32" y1="288.05" x2="535.91" y2="288.05"/><line class="f" x1="508.99" y1="289.09" x2="508.99" y2="326.68"/><line class="f" x1="510.02" y1="327.71" x2="527.32" y2="327.71"/><line class="f" x1="527.32" y1="288.05" x2="510.02" y2="288.05"/><line class="f" x1="535.9" y1="327.71" x2="529.39" y2="327.71"/><line class="f" x1="529.39" y1="288.05" x2="535.91" y2="288.05"/><line class="f" x1="508.99" y1="264.95" x2="508.99" y2="261.16"/><line class="f" x1="509.68" y1="260.47" x2="537.63" y2="260.47"/><line class="f" x1="538.32" y1="261.16" x2="538.32" y2="264.95"/><line class="f" x1="538.32" y1="264.95" x2="538.32" y2="288.05"/><line class="f" x1="538.32" y1="288.05" x2="535.91" y2="288.05"/><line class="f" x1="508.99" y1="287.02" x2="508.99" y2="266.67"/><line class="f" x1="527.32" y1="288.05" x2="510.02" y2="288.05"/><line class="f" x1="527.32" y1="288.05" x2="535.9" y2="288.05"/><line class="f" x1="479.66" y1="281.16" x2="479.66" y2="267.36"/><line class="f" x1="486.56" y1="260.47" x2="507.96" y2="260.47"/><line class="f" x1="508.99" y1="261.5" x2="508.99" y2="287.02"/><line class="f" x1="507.96" y1="288.05" x2="486.56" y2="288.05"/><line class="f" x1="536.94" y1="287.02" x2="536.94" y2="261.5"/><line class="f" x1="536.94" y1="289.09" x2="536.94" y2="326.68"/><g class="g"><path class="f" d="M538.32,332.19a.69.69,0,0,1-.69.69"/><path class="f" d="M537.63,327.71a.69.69,0,0,1,.69.69"/><path class="f" d="M509,328.4a.69.69,0,0,1,.69-.69"/><path class="f" d="M510,327.71a1,1,0,0,1-1-1"/><path class="f" d="M509,289.09a1,1,0,0,1,1-1"/><path class="f" d="M509,261.16a.69.69,0,0,1,.69-.69"/><path class="f" d="M537.63,260.47a.69.69,0,0,1,.69.69"/><path class="f" d="M510,288.05a1,1,0,0,1-1-1"/><path class="f" d="M508,260.47a1,1,0,0,1,1,1"/><path class="f" d="M509,287a1,1,0,0,1-1,1"/></g><line class="f" x1="536.94" y1="261.5" x2="513.43" y2="261.5"/><g class="g"><path class="f" d="M518.18,262.75a19.52,19.52,0,0,1,14.74,24.31"/><path class="f" d="M532.11,326.68a117.73,117.73,0,0,1,0-37.59"/><path class="f" d="M486.56,288.05a6.89,6.89,0,0,1-6.9-6.89"/><path class="f" d="M479.66,267.36a6.89,6.89,0,0,1,6.9-6.89"/><path class="f" d="M512.44,332.88a3.45,3.45,0,0,1-3.45-3.45"/></g><polygon class="d" points="464.79 342.8 465.25 341.07 466.5 339.8 468.23 339.32 475.12 339.27 476.85 339.73 478.12 340.98 478.59 342.7 478.63 350.42 475.29 349.07 471.72 348.62 468.15 349.12 464.83 350.52 464.79 342.8"/><polygon class="d" points="454.82 378.38 453.56 377.12 450.08 371.17 449.61 369.45 450.06 367.72 451.32 366.44 457.98 362.54 458.47 366.11 459.86 369.43 462.06 372.27 464.93 374.44 458.27 378.36 456.55 378.83 454.82 378.38"/><polygon class="d" points="485.42 378.15 478.73 374.34 481.57 372.13 483.75 369.25 485.12 365.91 485.57 362.33 492.27 366.14 493.54 367.4 494 369.12 493.55 370.85 490.13 376.86 488.87 378.13 487.15 378.6 485.42 378.15"/><polygon class="d" points="468.26 375.8 464.93 374.44 462.06 372.27 459.86 369.43 458.47 366.11 457.98 362.54 458.44 358.96 459.8 355.62 461.98 352.74 464.83 350.52 468.15 349.12 471.72 348.62 475.29 349.07 478.62 350.42 481.49 352.59 483.69 355.44 485.09 358.76 485.57 362.33 485.12 365.91 483.75 369.25 481.57 372.13 478.73 374.34 475.4 375.75 471.84 376.24 468.26 375.8"/><line class="f" x1="481.49" y1="352.59" x2="478.62" y2="350.42"/><line class="f" x1="483.69" y1="355.44" x2="481.49" y2="352.59"/><line class="f" x1="485.09" y1="358.76" x2="483.69" y2="355.44"/><line class="f" x1="485.57" y1="362.33" x2="485.09" y2="358.76"/><line class="f" x1="485.12" y1="365.91" x2="485.57" y2="362.33"/><line class="f" x1="483.76" y1="369.25" x2="485.12" y2="365.91"/><line class="f" x1="481.57" y1="372.13" x2="483.76" y2="369.25"/><line class="f" x1="478.73" y1="374.34" x2="481.57" y2="372.13"/><line class="f" x1="475.4" y1="375.75" x2="478.73" y2="374.34"/><line class="f" x1="471.84" y1="376.24" x2="475.4" y2="375.75"/><line class="f" x1="468.27" y1="375.8" x2="471.84" y2="376.24"/><line class="f" x1="464.93" y1="374.44" x2="468.27" y2="375.8"/><line class="f" x1="462.06" y1="372.27" x2="464.93" y2="374.44"/><line class="f" x1="459.86" y1="369.43" x2="462.07" y2="372.27"/><line class="f" x1="458.47" y1="366.1" x2="459.86" y2="369.43"/><line class="f" x1="457.98" y1="362.54" x2="458.47" y2="366.11"/><line class="f" x1="458.44" y1="358.96" x2="457.98" y2="362.54"/><line class="f" x1="459.8" y1="355.61" x2="458.44" y2="358.96"/><line class="f" x1="461.98" y1="352.74" x2="459.8" y2="355.61"/><line class="f" x1="464.83" y1="350.52" x2="461.98" y2="352.74"/><line class="f" x1="468.15" y1="349.12" x2="464.83" y2="350.52"/><line class="f" x1="471.72" y1="348.62" x2="468.15" y2="349.12"/><line class="f" x1="475.29" y1="349.07" x2="471.72" y2="348.62"/><line class="f" x1="478.62" y1="350.42" x2="475.29" y2="349.07"/><g class="g"><path class="f" d="M483.75,369.25a13.78,13.78,0,1,1-23.95-13.63"/><path class="f" d="M459.8,355.62a13.78,13.78,0,1,1,23.95,13.63"/></g><line class="f" x1="468.24" y1="341.05" x2="475.14" y2="341"/><line class="f" x1="478.59" y1="342.7" x2="478.62" y2="350.42"/><line class="f" x1="468.23" y1="339.32" x2="475.13" y2="339.27"/><line class="f" x1="464.83" y1="350.52" x2="464.79" y2="342.8"/><line class="f" x1="455.04" y1="376.25" x2="451.57" y2="370.29"/><line class="f" x1="451.32" y1="366.44" x2="457.98" y2="362.54"/><line class="f" x1="453.56" y1="377.12" x2="450.08" y2="371.17"/><line class="f" x1="464.93" y1="374.44" x2="458.27" y2="378.35"/><line class="f" x1="492.05" y1="370" x2="488.63" y2="376"/><line class="f" x1="485.42" y1="378.15" x2="478.73" y2="374.34"/><line class="f" x1="493.55" y1="370.85" x2="490.13" y2="376.85"/><line class="f" x1="485.57" y1="362.33" x2="492.27" y2="366.14"/><g class="g"><path class="f" d="M475.14,341a1.73,1.73,0,0,1,1.73,1.72"/><path class="f" d="M466.52,342.79a1.63,1.63,0,0,1,.23-.86,1.71,1.71,0,0,1,1.49-.88"/><path class="f" d="M475.13,339.27a3.56,3.56,0,0,1,1.72.45,3.44,3.44,0,0,1,1.74,3"/><path class="f" d="M464.8,342.8a3.44,3.44,0,0,1,3.43-3.47"/><path class="f" d="M451.57,370.3a1.74,1.74,0,0,1,.62-2.37"/><path class="f" d="M457.4,376.87a1.73,1.73,0,0,1-1.72,0,1.84,1.84,0,0,1-.64-.63"/><path class="f" d="M450.08,371.17a3.43,3.43,0,0,1,0-3.45,3.49,3.49,0,0,1,1.25-1.28"/><path class="f" d="M458.27,378.35a3.43,3.43,0,0,1-3.45,0,3.49,3.49,0,0,1-1.27-1.26"/><path class="f" d="M488.63,376h0a1.72,1.72,0,0,1-2.35.65"/><path class="f" d="M491.41,367.64h0a1.72,1.72,0,0,1,.64,2.36"/><path class="f" d="M490.13,376.86a3.45,3.45,0,0,1-4.71,1.29"/><path class="f" d="M492.27,366.14a3.45,3.45,0,0,1,1.28,4.71"/></g><polygon class="d" points="311.27 419.76 310.9 419.61 310.75 419.25 310.75 405.11 310.9 404.74 311.27 404.59 329.21 404.59 329.58 404.74 329.73 405.11 329.73 419.25 329.58 419.61 329.21 419.76 311.27 419.76"/><line class="f" x1="329.21" y1="419.76" x2="311.27" y2="419.76"/><g class="g"><path class="f" d="M311.27,419.76a.51.51,0,0,1-.52-.51"/></g><line class="f" x1="310.75" y1="419.25" x2="310.75" y2="405.11"/><g class="g"><path class="f" d="M310.75,405.11a.52.52,0,0,1,.52-.52"/></g><line class="f" x1="311.27" y1="404.59" x2="329.21" y2="404.59"/><g class="g"><path class="f" d="M329.21,404.59a.52.52,0,0,1,.52.52"/></g><line class="f" x1="329.73" y1="405.11" x2="329.73" y2="419.25"/><g class="g"><path class="f" d="M329.73,419.25a.51.51,0,0,1-.52.51"/></g><line class="f" x1="328.18" y1="415.97" x2="312.3" y2="415.97"/><line class="f" x1="311.78" y1="415.45" x2="311.78" y2="406.14"/><line class="f" x1="312.3" y1="405.62" x2="328.18" y2="405.62"/><line class="f" x1="328.69" y1="406.14" x2="328.69" y2="415.45"/><g class="g"><path class="f" d="M312.3,416a.52.52,0,0,1-.52-.52"/><path class="f" d="M311.78,406.14a.53.53,0,0,1,.52-.52"/><path class="f" d="M328.18,405.62a.52.52,0,0,1,.51.52"/><path class="f" d="M328.69,415.45a.51.51,0,0,1-.51.52"/></g><polygon class="d" points="319.63 418.3 319.38 417.69 319.51 416.25 319.63 415.92 319.86 414.09 319.98 413.85 320.24 413.76 320.49 413.85 320.62 414.09 320.85 415.92 320.96 416.25 321.1 417.69 320.85 418.3 320.24 418.56 319.63 418.3"/><g class="g"><path class="f" d="M321.1,417.69a.86.86,0,1,1-1.72,0"/></g><line class="f" x1="319.51" y1="416.25" x2="319.38" y2="417.69"/><g class="g"><path class="f" d="M319.51,416.25a.77.77,0,0,1,.12-.33"/></g><line class="f" x1="319.86" y1="414.09" x2="319.63" y2="415.92"/><g class="g"><path class="f" d="M319.86,414.09a.37.37,0,0,1,.38-.33.38.38,0,0,1,.38.33"/></g><line class="f" x1="320.85" y1="415.92" x2="320.62" y2="414.09"/><g class="g"><path class="f" d="M320.85,415.92a.76.76,0,0,1,.11.33"/></g><line class="f" x1="321.1" y1="417.69" x2="320.96" y2="416.25"/><line class="f" x1="319.77" y1="416.84" x2="319.77" y2="416.32"/><line class="f" x1="320.71" y1="416.32" x2="320.71" y2="416.84"/><line class="f" x1="320.71" y1="416.84" x2="319.77" y2="416.84"/><g class="g"><path class="f" d="M319.77,416.32a.47.47,0,0,1,.94,0"/><path class="f" d="M319.63,415.92a.73.73,0,0,1,1.22,0"/></g><rect class="d" x="363.37" y="291.83" width="20.7" height="41.38"/><line class="f" x1="384.08" y1="333.21" x2="384.08" y2="291.83"/><line class="f" x1="384.08" y1="291.83" x2="363.37" y2="291.83"/><line class="f" x1="363.37" y1="291.83" x2="363.37" y2="333.21"/><line class="f" x1="363.37" y1="333.21" x2="384.08" y2="333.21"/><line class="f" x1="373.72" y1="331.14" x2="373.72" y2="293.9"/><line class="f" x1="379.81" y1="329.22" x2="367.41" y2="325.72"/><line class="f" x1="380.43" y1="325.27" x2="368.89" y2="323.83"/><line class="f" x1="366.26" y1="319.89" x2="378.92" y2="318.69"/><line class="f" x1="367.92" y1="313.78" x2="378.92" y2="315.4"/><line class="f" x1="367.29" y1="311.56" x2="380.85" y2="311.56"/><line class="f" x1="367.23" y1="305.27" x2="380.63" y2="306.76"/><line class="f" x1="367.45" y1="302.91" x2="379.69" y2="302.91"/><line class="f" x1="367.33" y1="296.71" x2="379.88" y2="295.51"/><line class="f" x1="368.18" y1="298.2" x2="378.79" y2="299.41"/><rect class="d" x="363.37" y="253.89" width="20.7" height="37.93"/><line class="f" x1="384.08" y1="291.83" x2="384.08" y2="253.89"/><line class="f" x1="384.08" y1="253.89" x2="363.37" y2="253.89"/><line class="f" x1="363.37" y1="253.89" x2="363.37" y2="291.83"/><line class="f" x1="363.37" y1="291.83" x2="384.08" y2="291.83"/><line class="f" x1="373.72" y1="289.93" x2="373.72" y2="255.79"/><line class="f" x1="379.81" y1="288.17" x2="367.41" y2="284.96"/><line class="f" x1="380.43" y1="284.55" x2="368.89" y2="283.23"/><line class="f" x1="366.26" y1="279.61" x2="378.92" y2="278.52"/><line class="f" x1="367.92" y1="274.02" x2="378.92" y2="275.5"/><line class="f" x1="367.29" y1="271.98" x2="380.85" y2="271.98"/><line class="f" x1="367.23" y1="266.22" x2="380.63" y2="267.58"/><line class="f" x1="367.45" y1="264.06" x2="379.69" y2="264.06"/><line class="f" x1="367.33" y1="258.37" x2="379.88" y2="257.27"/><line class="f" x1="368.18" y1="259.74" x2="378.79" y2="260.85"/><line class="f" x1="549.36" y1="417.69" x2="549.36" y2="417.69"/><line class="f" x1="549.36" y1="417.69" x2="549.36" y2="433.21"/><polygon class="d" points="289.7 419.76 289.7 408.38 289.97 406.68 290.74 405.13 291.94 403.9 293.9 402.88 296.08 402.52 298.27 402.88 300.23 403.9 301.43 405.13 302.2 406.68 302.47 408.38 302.47 419.76 289.7 419.76"/><line class="f" x1="289.7" y1="419.76" x2="289.7" y2="408.38"/><line class="f" x1="289.7" y1="419.76" x2="302.47" y2="419.76"/><line class="f" x1="302.47" y1="419.76" x2="302.47" y2="408.38"/><line class="f" x1="291.77" y1="415.62" x2="291.77" y2="408.38"/><line class="f" x1="300.4" y1="415.62" x2="300.4" y2="408.38"/><line class="f" x1="300.4" y1="415.62" x2="291.77" y2="415.62"/><g class="g"><path class="f" d="M289.7,408.38a5.61,5.61,0,0,1,2.24-4.48"/><path class="f" d="M300.23,403.9a5.61,5.61,0,0,1,2.24,4.48"/><path class="f" d="M291.94,403.9a6.9,6.9,0,0,1,8.28,0"/><path class="f" d="M300.23,403.9a5.61,5.61,0,0,1,2.24,4.48"/><path class="f" d="M296.08,402.52a7,7,0,0,1,4.15,1.38"/><path class="f" d="M299,405.56a3.52,3.52,0,0,1,1.42,2.82"/><path class="f" d="M293.19,405.56a4.81,4.81,0,0,1,5.79,0"/><path class="f" d="M291.77,408.38a3.49,3.49,0,0,1,1.42-2.82"/></g><line class="f" x1="495.94" y1="417.31" x2="495.94" y2="411.52"/><line class="f" x1="495.94" y1="411.52" x2="498.29" y2="413.42"/><line class="f" x1="498.29" y1="413.42" x2="500.64" y2="411.52"/><line class="f" x1="500.64" y1="411.52" x2="500.64" y2="417.31"/><polygon points="541.08 433.21 378.9 433.21 378.9 424.94 541.08 424.94 541.08 253.9 549.36 253.9 549.36 433.21 541.08 433.21"/><polygon points="241.22 433.21 241.22 424.94 241.22 253.9 249.5 253.9 249.5 424.94 340.94 424.94 340.94 433.21 241.22 433.21"/><polygon points="514.86 247 514.86 240.1 545.22 240.1 549.36 240.1 549.36 247 514.86 247"/><rect x="356.13" y="240.1" width="72.46" height="6.9"/><polygon points="241.22 247 241.22 240.1 245.96 240.1 269.86 240.1 269.86 247 241.22 247"/><rect x="241.22" y="247" width="26.91" height="6.9"/><rect x="357.85" y="247" width="69.01" height="6.9"/><rect x="516.58" y="247" width="32.78" height="6.9"/><rect x="340.94" y="429.24" width="1.73" height="3.97"/><rect x="377.17" y="429.24" width="1.72" height="3.97"/><rect x="405.81" y="400.8" width="2.42" height="24.14"/><rect x="277.11" y="404.24" width="3.45" height="20.69"/><rect x="249.5" y="400.8" width="31.05" height="3.45"/><rect x="338.53" y="397.35" width="2.42" height="27.59"/><polygon points="405.81 369.76 405.81 368.04 380.63 368.04 380.63 365.62 384.08 365.62 384.08 253.9 386.49 253.9 386.49 365.62 408.23 365.62 408.23 369.76 405.81 369.76"/><polygon points="338.53 369.76 338.53 368.04 249.5 368.04 249.5 365.62 349.57 365.62 349.57 368.04 340.94 368.04 340.94 369.76 338.53 369.76"/><rect x="245.96" y="188.37" width="0.78" height="51.73"/><rect x="543.84" y="188.37" width="1.38" height="51.73"/><polygon points="442.74 424.94 442.74 407.69 408.23 407.69 408.23 404.25 446.19 404.25 446.19 424.94 442.74 424.94"/><line class="f" x1="241.22" y1="433.21" x2="549.36" y2="433.21"/><line class="f" x1="549.36" y1="433.21" x2="549.36" y2="240.1"/><line class="f" x1="549.36" y1="240.1" x2="545.22" y2="240.1"/><line class="f" x1="545.22" y1="240.1" x2="545.22" y2="184.91"/><line class="f" x1="545.22" y1="184.91" x2="245.96" y2="184.91"/><line class="f" x1="245.96" y1="184.91" x2="245.96" y2="240.1"/><line class="f" x1="245.96" y1="240.1" x2="241.22" y2="240.1"/><line class="f" x1="241.22" y1="240.1" x2="241.22" y2="433.21"/><path class="h" d="M376.75,385.44v7H376v-6.36h-1.64v-.64Z"/><path class="h" d="M378.43,391.94a.54.54,0,1,1,.54.54A.54.54,0,0,1,378.43,391.94Z"/><path class="h" d="M380.44,388.94c0-2.23,1.17-3.56,2.79-3.56s2.8,1.33,2.8,3.56-1.18,3.55-2.8,3.55S380.44,391.17,380.44,388.94Zm4.85,0c0-1.87-.84-2.9-2.06-2.9s-2.05,1-2.05,2.9.83,2.9,2.05,2.9S385.29,390.81,385.29,388.94Z"/><path class="h" d="M389,385.44v7h-.72v-6.36h-1.64v-.64Z"/><path class="h" d="M445.13,310v7h-.72v-6.35h-1.64V310Z"/><path class="h" d="M446.81,316.48a.54.54,0,0,1,.54-.53.54.54,0,0,1,0,1.08A.54.54,0,0,1,446.81,316.48Z"/><path class="h" d="M448.83,313.49c0-2.23,1.16-3.56,2.78-3.56s2.8,1.33,2.8,3.56-1.18,3.55-2.8,3.55S448.83,315.72,448.83,313.49Zm4.84,0c0-1.87-.84-2.9-2.06-2.9s-2.05,1-2.05,2.9.83,2.9,2.05,2.9S453.67,315.36,453.67,313.49Z"/><path class="h" d="M460.21,316.35V317h-4.9v-.5l2.9-2.85c.79-.78.94-1.25.94-1.73,0-.81-.57-1.31-1.64-1.31a2.38,2.38,0,0,0-1.91.78l-.5-.44a3.12,3.12,0,0,1,2.47-1c1.42,0,2.32.72,2.32,1.89a2.88,2.88,0,0,1-1.15,2.19l-2.38,2.34Z"/><path class="h" d="M330.33,310v7h-.72v-6.35H328V310Z"/><path class="h" d="M332,316.48a.53.53,0,0,1,.53-.53.54.54,0,1,1-.53.53Z"/><path class="h" d="M334,313.49c0-2.23,1.17-3.56,2.79-3.56s2.8,1.33,2.8,3.56-1.18,3.55-2.8,3.55S334,315.72,334,313.49Zm4.85,0c0-1.87-.84-2.9-2.06-2.9s-2.05,1-2.05,2.9.83,2.9,2.05,2.9S338.87,315.36,338.87,313.49Z"/><path class="h" d="M345.18,315c0,1.16-.85,2.06-2.54,2.06a3.61,3.61,0,0,1-2.51-.9l.35-.56a3,3,0,0,0,2.16.81c1.16,0,1.8-.54,1.8-1.41s-.59-1.39-1.89-1.39h-.5v-.53l1.94-2.43h-3.57V310h4.49v.51l-2,2.49C344.43,313.07,345.18,313.86,345.18,315Z"/><path class="h" d="M301.07,385.44v7h-.72v-6.36h-1.64v-.64Z"/><path class="h" d="M302.76,391.94a.53.53,0,0,1,.53-.54.54.54,0,0,1,0,1.08A.53.53,0,0,1,302.76,391.94Z"/><path class="h" d="M304.77,388.94c0-2.23,1.16-3.56,2.78-3.56s2.8,1.33,2.8,3.56-1.18,3.55-2.8,3.55S304.77,391.17,304.77,388.94Zm4.84,0c0-1.87-.84-2.9-2.06-2.9s-2.06,1-2.06,2.9.84,2.9,2.06,2.9S309.61,390.81,309.61,388.94Z"/><path class="h" d="M317.33,390.6h-1.4v1.84h-.72V390.6h-3.94v-.52l3.7-4.64h.8L312.19,390h3v-1.62h.7V390h1.4Z"/><path class="h" d="M445.13,218.3v7h-.72v-6.36h-1.64v-.64Z"/><path class="h" d="M446.81,224.8a.54.54,0,0,1,.54-.54.53.53,0,0,1,.53.54.54.54,0,0,1-.53.55A.55.55,0,0,1,446.81,224.8Z"/><path class="h" d="M448.83,221.8c0-2.23,1.16-3.56,2.78-3.56s2.8,1.33,2.8,3.56-1.18,3.55-2.8,3.55S448.83,224,448.83,221.8Zm4.84,0c0-1.87-.84-2.9-2.06-2.9s-2.05,1-2.05,2.9.83,2.9,2.05,2.9S453.67,223.67,453.67,221.8Z"/><path class="h" d="M460.19,223.24c0,1.19-.83,2.11-2.54,2.11a3.61,3.61,0,0,1-2.51-.89l.36-.57a3,3,0,0,0,2.14.81c1.19,0,1.82-.58,1.82-1.43s-.56-1.46-2.34-1.46h-1.48l.35-3.51h3.83v.64h-3.2l-.24,2.23h.9C459.39,221.17,460.19,222,460.19,223.24Z"/></svg>