<svg xmlns="http://www.w3.org/2000/svg" xmlns:xlink="http://www.w3.org/1999/xlink" viewBox="0 0 790.58 618.13"><defs><style>.a,.f{fill:none;}.b{fill:#595a5c;}.c{fill:#b6906c;}.d,.g{fill:#fff;}.e{fill:#231f20;}.f{stroke:#000;stroke-linecap:round;stroke-linejoin:round;stroke-width:0.35px;}.g,.h{fill-rule:evenodd;}.i{clip-path:url(#a);}.j{fill:#58595b;}</style><clipPath id="a"><polygon class="a" points="364.5 183.79 290.38 183.79 194.34 183.79 194.34 378.66 197.82 378.66 197.82 434.33 524.91 434.33 524.91 378.66 596.24 378.66 596.24 183.79 364.5 183.79"/></clipPath></defs><path class="b" d="M55.31,597.13H57.1V609.9H55.31Zm.92,6.11h4.09a1.89,1.89,0,0,0,1-.27,1.82,1.82,0,0,0,.68-.77,2.67,2.67,0,0,0,.24-1.16,2.7,2.7,0,0,0-.24-1.16,1.82,1.82,0,0,0-1.7-1H56.23v-1.7h4a4.09,4.09,0,0,1,2,.48A3.45,3.45,0,0,1,63.62,599a4.64,4.64,0,0,1,0,4.11,3.34,3.34,0,0,1-1.35,1.36,4,4,0,0,1-2,.49h-4Z"/><path class="b" d="M67.7,606.33a2.07,2.07,0,0,0,.49,1.48,1.76,1.76,0,0,0,1.37.52,1.89,1.89,0,0,0,1.37-.46,1.79,1.79,0,0,0,.48-1.33l.12,1.91A2.58,2.58,0,0,1,69.06,610a2.89,2.89,0,0,1-2.33-1,4.08,4.08,0,0,1-.82-2.73v-5.55H67.7Zm.22-7.86a1.93,1.93,0,0,1-.56-1.5,2.07,2.07,0,0,1,.56-1.57,2.56,2.56,0,0,1,3.18,0,2.08,2.08,0,0,1,.57,1.56,1.94,1.94,0,0,1-.57,1.5,2.65,2.65,0,0,1-3.18,0Zm2.26-.86a.94.94,0,0,0,.24-.68,1,1,0,0,0-.24-.7.91.91,0,0,0-.67-.25.92.92,0,0,0-.67.25,1,1,0,0,0-.23.7,1,1,0,0,0,.23.68.92.92,0,0,0,.67.24A.9.9,0,0,0,70.18,597.61Zm1.23,3.17h1.78v9.12H71.41Z"/><path class="b" d="M77.1,609.63A2.82,2.82,0,0,1,76,608.36a5.08,5.08,0,0,1-.36-2v-2a5.05,5.05,0,0,1,.36-2,2.71,2.71,0,0,1,1-1.27,3,3,0,0,1,1.65-.44,2.71,2.71,0,0,1,1.48.42,3.22,3.22,0,0,1,1.09,1.19l-.18,1.86a2.19,2.19,0,0,0-.22-1,1.48,1.48,0,0,0-.61-.63,2,2,0,0,0-1-.21,1.71,1.71,0,0,0-1.37.55,2.26,2.26,0,0,0-.49,1.56v2a2.19,2.19,0,0,0,.49,1.54,1.74,1.74,0,0,0,1.37.54,1.93,1.93,0,0,0,1-.23,1.45,1.45,0,0,0,.61-.64,2.25,2.25,0,0,0,.22-1l.12,1.92a2.66,2.66,0,0,1-.89,1.14,2.56,2.56,0,0,1-1.53.45A3.19,3.19,0,0,1,77.1,609.63Zm4-12.5H82.9V609.9H81.11Z"/><path class="b" d="M87.09,609.57a3.09,3.09,0,0,1-1.29-1.36,4.85,4.85,0,0,1-.44-2.15v-1.48a4.71,4.71,0,0,1,.44-2.12,3.12,3.12,0,0,1,1.29-1.35,4.71,4.71,0,0,1,4.06,0,3.12,3.12,0,0,1,1.29,1.35,4.71,4.71,0,0,1,.44,2.12v1.51a4.79,4.79,0,0,1-.44,2.13,3.12,3.12,0,0,1-1.29,1.35,4.62,4.62,0,0,1-4.06,0Zm3.49-1.83a2.43,2.43,0,0,0,.51-1.65v-1.51a2.43,2.43,0,0,0-.51-1.65,1.88,1.88,0,0,0-1.46-.58,1.85,1.85,0,0,0-1.45.58,2.38,2.38,0,0,0-.52,1.65v1.51a2.38,2.38,0,0,0,.52,1.65,1.82,1.82,0,0,0,1.45.59A1.85,1.85,0,0,0,90.58,607.74Z"/><path class="b" d="M95.43,600.78h1.79v9.12H95.43Zm4.42,1.72a2.16,2.16,0,0,0-.83-.15,1.83,1.83,0,0,0-1.33.47,1.79,1.79,0,0,0-.47,1.31L97,602.37a3.32,3.32,0,0,1,1.09-1.27,2.58,2.58,0,0,1,1.48-.45,3.39,3.39,0,0,1,1.13.18,2.62,2.62,0,0,1,.88.53l-1.17,1.58A1.56,1.56,0,0,0,99.85,602.5Z"/><path class="b" d="M102.15,600.78H104l2.81,7.93-1,1.94Zm8.07,0L106.34,612a2.6,2.6,0,0,1-.56,1,1.87,1.87,0,0,1-.84.52,4,4,0,0,1-1.23.16h-.36V612h.36a1.46,1.46,0,0,0,.8-.2,1.74,1.74,0,0,0,.51-.7l3.38-10.31Z"/><path class="b" d="M113.51,609.88a5.76,5.76,0,0,1-1.32-.48,4.89,4.89,0,0,1-1.13-.79l1.06-1.31a5.86,5.86,0,0,0,1.47.85,4.18,4.18,0,0,0,1.44.28,3.11,3.11,0,0,0,1.6-.33,1.1,1.1,0,0,0,.53-1,.79.79,0,0,0-.29-.66,1.66,1.66,0,0,0-.72-.29c-.29,0-.69-.1-1.22-.14h-.15l-.14,0h-.15a6.45,6.45,0,0,1-1.5-.26,2,2,0,0,1-1-.7,2.38,2.38,0,0,1-.41-1.49,3.07,3.07,0,0,1,.39-1.61,2.41,2.41,0,0,1,1.18-1,5.29,5.29,0,0,1,2-.32,6.38,6.38,0,0,1,2.6.52,6.16,6.16,0,0,1,1.13.66l-1.08,1.31a5.59,5.59,0,0,0-1.35-.66,4,4,0,0,0-1.3-.22,2.44,2.44,0,0,0-1.37.31,1.08,1.08,0,0,0-.46.94.64.64,0,0,0,.26.55,1.72,1.72,0,0,0,.66.25c.26,0,.64.07,1.12.1h.34a7.67,7.67,0,0,1,1.63.25,2.24,2.24,0,0,1,1.13.77,2.62,2.62,0,0,1,.45,1.65,2.92,2.92,0,0,1-.42,1.63,2.54,2.54,0,0,1-1.27,1A5.88,5.88,0,0,1,115,610,7.38,7.38,0,0,1,113.51,609.88Z"/><path class="b" d="M126,597.13h1.8V609.9H126Zm2.6,12.5a2.39,2.39,0,0,1-.93-1.16l.13-1.91a2.22,2.22,0,0,0,.21,1,1.48,1.48,0,0,0,.61.63,1.93,1.93,0,0,0,1,.22,1.74,1.74,0,0,0,1.37-.54,2.18,2.18,0,0,0,.49-1.53v-2a2.26,2.26,0,0,0-.49-1.56,1.71,1.71,0,0,0-1.37-.55,2,2,0,0,0-1,.21,1.36,1.36,0,0,0-.61.62,2.12,2.12,0,0,0-.21,1l-.19-1.76a3.37,3.37,0,0,1,1.08-1.24,2.67,2.67,0,0,1,1.49-.43,3,3,0,0,1,1.65.43,2.9,2.9,0,0,1,1.06,1.27,5.1,5.1,0,0,1,.36,2v2a4.94,4.94,0,0,1-.37,2,2.79,2.79,0,0,1-1.08,1.26,3.25,3.25,0,0,1-1.71.44A2.73,2.73,0,0,1,128.57,609.63Z"/><path class="b" d="M134.46,600.78h1.82l2.81,7.93-1,1.94Zm8.07,0L138.65,612a2.6,2.6,0,0,1-.56,1,1.87,1.87,0,0,1-.84.52,4,4,0,0,1-1.23.16h-.36V612H136a1.46,1.46,0,0,0,.8-.2,1.74,1.74,0,0,0,.51-.7l3.37-10.31Z"/><path class="b" d="M143.57,600.78h4.12v1.62h-4.12Zm1.46,8.56a2.77,2.77,0,0,1-.52-1.81v-9.4h1.8v9.42a.84.84,0,0,0,.13.51.46.46,0,0,0,.39.18h.86V610h-1A2,2,0,0,1,145,609.34Z"/><path class="b" d="M151.94,606.33a2.07,2.07,0,0,0,.49,1.48,1.76,1.76,0,0,0,1.37.52,1.91,1.91,0,0,0,1.37-.46,1.79,1.79,0,0,0,.48-1.33l.12,1.91A2.58,2.58,0,0,1,153.3,610a2.89,2.89,0,0,1-2.33-1,4.08,4.08,0,0,1-.82-2.73v-5.55h1.79Zm3.71-5.55h1.78v9.12h-1.78Z"/><rect class="c" x="612.92" y="591.68" width="35.43" height="2.83"/><path class="d" d="M648.48,594.64H612.79v-3.08h35.69ZM613,594.39h35.19v-2.58H613Z"/><rect class="c" x="612.92" y="601.6" width="70.74" height="2.83"/><path class="d" d="M683.78,604.56h-71v-3.08h71ZM613,604.31h70.49v-2.58H613Z"/><rect class="c" x="612.92" y="612.72" width="177.16" height="2.84"/><path class="d" d="M790.21,615.68H612.79V612.6H790.21ZM613,615.43H790v-2.58H613Z"/><path class="e" d="M587.26,596.28h-.8v-4.82l-.81.5v-.83l.81-.53h.8Z"/><path class="e" d="M589,595.91a1.67,1.67,0,0,1-.41-1.19v-2.58A1.65,1.65,0,0,1,589,591a2,2,0,0,1,2.42,0,1.65,1.65,0,0,1,.41,1.19v2.58a1.65,1.65,0,0,1-.41,1.19,2,2,0,0,1-2.42,0Zm1.83-.55a.89.89,0,0,0,.2-.64v-2.58a.89.89,0,0,0-.2-.64.82.82,0,0,0-.62-.22.86.86,0,0,0-.63.22.94.94,0,0,0-.2.64v2.58a.9.9,0,0,0,.21.64,1,1,0,0,0,1.24,0Z"/><path class="e" d="M593.22,595.91a1.67,1.67,0,0,1-.41-1.19v-2.58a1.65,1.65,0,0,1,.41-1.19,2,2,0,0,1,2.42,0,1.61,1.61,0,0,1,.41,1.19v2.58a1.65,1.65,0,0,1-.41,1.19,2,2,0,0,1-2.42,0Zm1.83-.55a.9.9,0,0,0,.21-.64v-2.58a.94.94,0,0,0-.2-.64.86.86,0,0,0-.63-.22.82.82,0,0,0-.62.22.89.89,0,0,0-.2.64v2.58a.89.89,0,0,0,.2.64,1,1,0,0,0,1.24,0Z"/><path class="e" d="M600.1,596.13a1.45,1.45,0,0,1-.6-.6,2.06,2.06,0,0,1-.21-1v-.67a2,2,0,0,1,.21-.94,1.37,1.37,0,0,1,.6-.59,2,2,0,0,1,.95-.21,2.21,2.21,0,0,1,.59.08,1.68,1.68,0,0,1,.51.22,1.54,1.54,0,0,1,.37.35l-.58.52a1.17,1.17,0,0,0-.4-.3,1.13,1.13,0,0,0-.48-.11.94.94,0,0,0-.71.26,1,1,0,0,0-.26.72v.67a1,1,0,0,0,.25.74.94.94,0,0,0,.72.27,1,1,0,0,0,.48-.12,1,1,0,0,0,.4-.32l.58.56a1.38,1.38,0,0,1-.38.34,1.62,1.62,0,0,1-.5.22,2.27,2.27,0,0,1-.59.07A2.12,2.12,0,0,1,600.1,596.13Z"/><path class="e" d="M603.4,592.22h.79v4.06h-.79Zm2.42,1.6a1,1,0,0,0-.21-.67.78.78,0,0,0-.6-.23.81.81,0,0,0-.6.21.73.73,0,0,0-.22.58l-.08-.78a1.46,1.46,0,0,1,.49-.57,1.22,1.22,0,0,1,.67-.2,1.33,1.33,0,0,1,.73.2,1.18,1.18,0,0,1,.46.56,2.4,2.4,0,0,1,.15.89v2.47h-.79Zm2.42,0a.93.93,0,0,0-.22-.67.85.85,0,0,0-.63-.23.72.72,0,0,0-.57.23.9.9,0,0,0-.21.64l-.16-.78a1.61,1.61,0,0,1,.51-.63,1.23,1.23,0,0,1,.69-.22,1.37,1.37,0,0,1,.75.2,1.09,1.09,0,0,1,.47.56,2.21,2.21,0,0,1,.17.89v2.47h-.8Z"/><path class="e" d="M584.33,605.5l2-2.64a1.85,1.85,0,0,0,.27-.47,1.29,1.29,0,0,0,.09-.45h0a.67.67,0,0,0-.2-.53.81.81,0,0,0-.56-.19.76.76,0,0,0-.56.21,1,1,0,0,0-.27.58h-.82a2,2,0,0,1,.29-.83,1.42,1.42,0,0,1,.56-.53,1.67,1.67,0,0,1,.79-.18,1.93,1.93,0,0,1,.87.17,1.21,1.21,0,0,1,.54.51,1.55,1.55,0,0,1,.19.8h0a1.84,1.84,0,0,1-.12.63,2.8,2.8,0,0,1-.35.63l-1.65,2.24h2.15v.76h-3.2Z"/><path class="e" d="M589,605.83a1.67,1.67,0,0,1-.41-1.19v-2.58a1.65,1.65,0,0,1,.41-1.19,2,2,0,0,1,2.42,0,1.65,1.65,0,0,1,.41,1.19v2.58a1.65,1.65,0,0,1-.41,1.19,2,2,0,0,1-2.42,0Zm1.83-.55a.89.89,0,0,0,.2-.64v-2.58a.89.89,0,0,0-.2-.64.82.82,0,0,0-.62-.22.86.86,0,0,0-.63.22.94.94,0,0,0-.19.64v2.58a.89.89,0,0,0,.2.64,1,1,0,0,0,1.24,0Z"/><path class="e" d="M593.22,605.83a1.67,1.67,0,0,1-.41-1.19v-2.58a1.61,1.61,0,0,1,.42-1.19,1.59,1.59,0,0,1,1.2-.42,1.45,1.45,0,0,1,1.62,1.61v2.58a1.61,1.61,0,0,1-.41,1.19,2,2,0,0,1-2.42,0Zm1.84-.55a.94.94,0,0,0,.2-.64v-2.58a.94.94,0,0,0-.2-.64.84.84,0,0,0-.63-.22.82.82,0,0,0-.62.22.89.89,0,0,0-.2.64v2.58a.89.89,0,0,0,.2.64.82.82,0,0,0,.62.22A.86.86,0,0,0,595.06,605.28Z"/><path class="e" d="M600.1,606.05a1.45,1.45,0,0,1-.6-.6,2.06,2.06,0,0,1-.2-1v-.67a2,2,0,0,1,.2-.94,1.37,1.37,0,0,1,.6-.59,2,2,0,0,1,.95-.21,2.35,2.35,0,0,1,.6.08,1.73,1.73,0,0,1,.5.22,1.38,1.38,0,0,1,.37.35l-.58.52a1.08,1.08,0,0,0-.4-.3,1.13,1.13,0,0,0-.48-.11,1,1,0,0,0-.71.26,1,1,0,0,0-.26.72v.67a1,1,0,0,0,.25.74.94.94,0,0,0,.72.27,1.14,1.14,0,0,0,.88-.44l.58.56a1.38,1.38,0,0,1-.38.34,1.62,1.62,0,0,1-.5.22,2.22,2.22,0,0,1-.59.07A2.12,2.12,0,0,1,600.1,606.05Z"/><path class="e" d="M603.4,602.14h.79v4.06h-.79Zm2.42,1.6a1,1,0,0,0-.21-.67.78.78,0,0,0-.6-.23.81.81,0,0,0-.6.21.73.73,0,0,0-.22.58l-.08-.78a1.46,1.46,0,0,1,.49-.57,1.22,1.22,0,0,1,.67-.2,1.3,1.3,0,0,1,.73.2,1.18,1.18,0,0,1,.46.56,2.4,2.4,0,0,1,.16.89v2.47h-.8Zm2.42,0a.93.93,0,0,0-.22-.67.85.85,0,0,0-.63-.23.73.73,0,0,0-.57.23.89.89,0,0,0-.2.64l-.16-.78a1.51,1.51,0,0,1,.5-.63,1.23,1.23,0,0,1,.69-.22,1.35,1.35,0,0,1,.75.2,1.16,1.16,0,0,1,.48.56,2.4,2.4,0,0,1,.16.89v2.47h-.8Z"/><path class="e" d="M585,615.58a1.34,1.34,0,0,1-.54-.49,2,2,0,0,1-.28-.77h.8a.75.75,0,0,0,.25.49.85.85,0,0,0,.54.17.72.72,0,0,0,.59-.25,1.1,1.1,0,0,0,.21-.72v-.48a1.1,1.1,0,0,0-.21-.72.72.72,0,0,0-.59-.25.83.83,0,0,0-.4.11,1.18,1.18,0,0,0-.34.33h-.72v-3h2.89v.76h-2.1V612a1,1,0,0,1,.34-.18.94.94,0,0,1,.37-.07,1.68,1.68,0,0,1,.84.2,1.29,1.29,0,0,1,.53.6,2.07,2.07,0,0,1,.19.94V614a2.25,2.25,0,0,1-.19.94,1.31,1.31,0,0,1-.55.59,1.69,1.69,0,0,1-.86.21A1.74,1.74,0,0,1,585,615.58Z"/><path class="e" d="M589,615.32a1.65,1.65,0,0,1-.41-1.19v-2.58a1.67,1.67,0,0,1,.41-1.19,2,2,0,0,1,2.42,0,1.65,1.65,0,0,1,.41,1.19v2.58a1.64,1.64,0,0,1-.41,1.19,1.92,1.92,0,0,1-2.42,0Zm1.83-.55a.89.89,0,0,0,.2-.64v-2.58a.88.88,0,0,0-.2-.63.78.78,0,0,0-.62-.22.82.82,0,0,0-.63.22.93.93,0,0,0-.2.63v2.58a.9.9,0,0,0,.21.64,1,1,0,0,0,1.24,0Z"/><path class="e" d="M593.22,615.32a1.65,1.65,0,0,1-.41-1.19v-2.58a1.67,1.67,0,0,1,.41-1.19,2,2,0,0,1,2.42,0,1.61,1.61,0,0,1,.41,1.19v2.58a1.64,1.64,0,0,1-.41,1.19,1.92,1.92,0,0,1-2.42,0Zm1.83-.55a.9.9,0,0,0,.21-.64v-2.58a.93.93,0,0,0-.2-.63.82.82,0,0,0-.63-.22.78.78,0,0,0-.62.22.88.88,0,0,0-.2.63v2.58a.89.89,0,0,0,.2.64,1,1,0,0,0,1.24,0Z"/><path class="e" d="M600.1,615.54a1.45,1.45,0,0,1-.6-.6,2,2,0,0,1-.21-1v-.67a2,2,0,0,1,.21-.94,1.45,1.45,0,0,1,.6-.6,2,2,0,0,1,.95-.2,2.22,2.22,0,0,1,.59.07,2,2,0,0,1,.51.22,1.76,1.76,0,0,1,.37.35l-.58.52a1.17,1.17,0,0,0-.4-.3,1.13,1.13,0,0,0-.48-.11.94.94,0,0,0-.71.26,1,1,0,0,0-.26.73V614a1.07,1.07,0,0,0,.25.74,1,1,0,0,0,.72.26,1.13,1.13,0,0,0,.48-.11,1.26,1.26,0,0,0,.4-.32l.58.55a1.42,1.42,0,0,1-.38.35,1.88,1.88,0,0,1-.5.21,2.27,2.27,0,0,1-.59.08A2,2,0,0,1,600.1,615.54Z"/><path class="e" d="M603.4,611.63h.79v4.06h-.79Zm2.42,1.6a1,1,0,0,0-.21-.66.75.75,0,0,0-.6-.24.81.81,0,0,0-.6.21.75.75,0,0,0-.22.58l-.08-.78a1.5,1.5,0,0,1,.49-.56,1.15,1.15,0,0,1,.67-.2,1.32,1.32,0,0,1,.73.19,1.28,1.28,0,0,1,.46.56,2.42,2.42,0,0,1,.15.9v2.46h-.79Zm2.42,0a.91.91,0,0,0-.22-.66.82.82,0,0,0-.63-.24.72.72,0,0,0-.57.23.9.9,0,0,0-.21.64l-.16-.78a1.51,1.51,0,0,1,.51-.62,1.16,1.16,0,0,1,.69-.22,1.37,1.37,0,0,1,.75.19,1.18,1.18,0,0,1,.47.56,2.22,2.22,0,0,1,.17.9v2.46h-.8Z"/><path class="c" d="M23.49,613.89A12.92,12.92,0,1,1,36.4,601,12.93,12.93,0,0,1,23.49,613.89Zm0-24.83A11.92,11.92,0,1,0,35.4,601,11.93,11.93,0,0,0,23.49,589.06Z"/><polygon class="d" points="35.77 588.74 9.42 600.98 35.77 613.21 32.02 600.98 35.77 588.74"/><path class="c" d="M36.58,614.14,8.23,601l28.35-13.17-4,13.17ZM10.61,601,35,612.29,31.5,601,35,589.66Z"/><path class="c" d="M2.52,605.19a5,5,0,0,1-1.11-.38,4.4,4.4,0,0,1-1-.64l.81-1a3.72,3.72,0,0,0,1.16.69,4.08,4.08,0,0,0,1.38.23,2.73,2.73,0,0,0,1.55-.38,1.17,1.17,0,0,0,.55-1.05h0a1.12,1.12,0,0,0-.25-.77,1.44,1.44,0,0,0-.64-.42,8.23,8.23,0,0,0-1-.25H3.89l-.1,0a9.48,9.48,0,0,1-1.5-.36,2.08,2.08,0,0,1-1-.73,2.42,2.42,0,0,1-.41-1.51h0a2.77,2.77,0,0,1,.38-1.47,2.44,2.44,0,0,1,1.12-.92,4.48,4.48,0,0,1,1.77-.32,4.6,4.6,0,0,1,1,.11,4.9,4.9,0,0,1,1.86.86l-.73,1a4.61,4.61,0,0,0-1-.58,3,3,0,0,0-1.06-.2,2.44,2.44,0,0,0-1.46.38,1.24,1.24,0,0,0-.53,1.07h0a1,1,0,0,0,.27.75,1.74,1.74,0,0,0,.67.4,9.3,9.3,0,0,0,1.12.27h.24a7.93,7.93,0,0,1,1.4.41,2.22,2.22,0,0,1,.94.76,2.4,2.4,0,0,1,.38,1.43h0a2.62,2.62,0,0,1-.4,1.45,2.54,2.54,0,0,1-1.16.91,4.8,4.8,0,0,1-1.83.31A6.44,6.44,0,0,1,2.52,605.19Z"/><rect class="c" x="612.5" y="600.68" width="1" height="4.68"/><rect class="c" x="612.5" y="590.76" width="1" height="4.68"/><rect class="c" x="612.5" y="611.45" width="1" height="5.24"/><rect class="c" x="789.58" y="611.45" width="1" height="5.24"/><rect class="c" x="682.59" y="600.68" width="1" height="4.68"/><rect class="c" x="647.3" y="590.76" width="1" height="4.68"/><rect class="a" width="790.34" height="618.13"/><line class="f" x1="196.43" y1="378.66" x2="194.34" y2="378.66"/><line class="f" x1="199.21" y1="378.66" x2="199.21" y2="430.85"/><line class="f" x1="305.69" y1="378.66" x2="199.21" y2="378.66"/><line class="f" x1="305.69" y1="375.18" x2="305.69" y2="378.66"/><line class="f" x1="337.01" y1="375.18" x2="305.69" y2="375.18"/><line class="f" x1="337.01" y1="378.66" x2="337.01" y2="375.18"/><line class="f" x1="392.68" y1="378.66" x2="337.01" y2="378.66"/><line class="f" x1="392.68" y1="375.18" x2="392.68" y2="378.66"/><line class="f" x1="424" y1="375.18" x2="392.68" y2="375.18"/><line class="f" x1="424" y1="378.66" x2="424" y2="375.18"/><line class="f" x1="521.43" y1="378.66" x2="424" y2="378.66"/><line class="f" x1="521.43" y1="430.85" x2="521.43" y2="378.66"/><line class="f" x1="199.21" y1="430.85" x2="521.43" y2="430.85"/><polygon class="g" points="404.86 192.15 514.47 192.15 514.47 213.02 514.47 259.3 493.24 259.3 493.24 213.37 404.86 213.37 404.86 192.15"/><line class="f" x1="514.47" y1="192.15" x2="404.86" y2="192.15"/><line class="f" x1="514.47" y1="213.02" x2="514.47" y2="192.15"/><line class="f" x1="514.47" y1="259.3" x2="514.47" y2="213.02"/><line class="f" x1="493.24" y1="259.3" x2="514.47" y2="259.3"/><line class="f" x1="493.24" y1="213.37" x2="493.24" y2="259.3"/><line class="f" x1="404.86" y1="213.37" x2="493.24" y2="213.37"/><line class="f" x1="404.86" y1="192.15" x2="404.86" y2="213.37"/><path class="d" d="M194.34,357.78v0Z"/><line class="f" x1="194.34" y1="273.92" x2="194.34" y2="273.92"/><line class="f" x1="194.34" y1="357.78" x2="194.34" y2="273.92"/><line class="f" x1="194.34" y1="357.78" x2="194.34" y2="357.78"/><rect class="d" x="202.69" y="197.37" width="28.01" height="60.89"/><line class="f" x1="202.69" y1="197.37" x2="202.69" y2="258.26"/><line class="f" x1="230.7" y1="197.37" x2="202.69" y2="197.37"/><line class="f" x1="230.7" y1="258.26" x2="230.7" y2="197.37"/><line class="f" x1="202.69" y1="258.26" x2="230.7" y2="258.26"/><rect class="d" x="516.91" y="213.02" width="11.48" height="43.5"/><line class="f" x1="516.91" y1="213.02" x2="516.91" y2="256.52"/><line class="f" x1="528.39" y1="213.02" x2="516.91" y2="213.02"/><line class="f" x1="528.39" y1="256.52" x2="528.39" y2="213.02"/><line class="f" x1="516.91" y1="256.52" x2="528.39" y2="256.52"/><rect class="d" x="516.91" y="287.84" width="12.18" height="69.61"/><line class="f" x1="516.91" y1="287.84" x2="516.91" y2="357.44"/><line class="f" x1="529.09" y1="287.84" x2="516.91" y2="287.84"/><line class="f" x1="529.09" y1="357.44" x2="529.09" y2="287.84"/><line class="f" x1="516.91" y1="357.44" x2="529.09" y2="357.44"/><rect class="d" x="365.89" y="192.15" width="20.88" height="22.62"/><line class="f" x1="365.89" y1="192.15" x2="365.89" y2="214.76"/><line class="f" x1="386.77" y1="192.15" x2="365.89" y2="192.15"/><line class="f" x1="386.77" y1="214.76" x2="386.77" y2="192.15"/><line class="f" x1="365.89" y1="214.76" x2="386.77" y2="214.76"/><line class="f" x1="194.34" y1="183.79" x2="194.34" y2="183.79"/><line class="f" x1="286.38" y1="183.79" x2="286.38" y2="183.79"/><line class="f" x1="194.34" y1="183.79" x2="286.38" y2="183.79"/><polygon class="h" points="596.24 378.66 587.54 378.66 587.54 183.79 596.24 183.79 596.24 192.49 596.24 378.66"/><rect x="337.01" y="371.7" width="55.68" height="6.96"/><rect x="493.59" y="371.7" width="38.28" height="6.96"/><polygon class="h" points="563.19 378.66 563.19 371.7 587.54 371.7 587.54 378.66 582.33 378.66 563.19 378.66"/><rect x="194.34" y="371.7" width="41.76" height="6.96"/><rect x="564.93" y="364.74" width="22.62" height="6.96"/><rect x="495.33" y="364.74" width="34.8" height="6.96"/><rect x="338.75" y="364.74" width="52.2" height="6.96"/><rect x="194.34" y="364.74" width="40.02" height="6.96"/><path d="M194.34,217.55v0Z"/><polygon class="h" points="305.69 258.26 305.69 260.69 202.69 260.69 202.69 258.26 296.29 258.26 296.29 249.56 298.73 249.56 298.73 258.26 305.69 258.26"/><rect x="386.77" y="192.15" width="2.43" height="26.1"/><polygon class="h" points="389.2 249.56 389.2 260.7 374.24 260.7 374.24 364.74 371.8 364.74 371.8 260.7 337 260.7 337 258.26 386.77 258.26 386.77 249.56 389.2 249.56"/><polygon class="h" points="194.34 183.79 282.03 183.79 290.38 183.79 326.57 183.79 326.57 192.15 202.69 192.15 202.69 364.74 194.34 364.74 194.34 183.79"/><rect x="364.84" y="183.8" width="222.7" height="8.35"/><polygon class="h" points="364.84 187.8 363.1 187.8 363.1 183.79 364.5 183.79 364.84 183.79 364.84 187.8"/><rect x="326.57" y="183.79" width="1.74" height="4"/><rect x="514.47" y="286.79" width="2.43" height="77.95"/><rect x="563.19" y="256.52" width="24.36" height="2.43"/><polygon class="h" points="531.87 256.52 531.87 258.95 514.47 258.95 514.47 192.15 516.91 192.15 516.91 256.52 531.87 256.52"/><polygon class="h" points="298.73 207.81 298.73 211.28 298.73 221.72 296.29 221.72 296.29 192.15 298.73 192.15 298.73 207.81"/><polygon class="h" points="298.73 207.81 323.09 207.81 323.09 192.15 326.57 192.15 326.57 211.28 298.73 211.28 298.73 207.81"/><polygon class="h" points="389.2 209.54 401.38 209.54 401.38 192.15 404.86 192.15 404.86 213.02 389.2 213.02 389.2 209.54"/><polygon class="h" points="196.43 378.66 199.21 378.66 199.21 430.85 197.82 430.85 197.82 378.66 196.43 378.66"/><line class="f" x1="194.34" y1="378.66" x2="236.1" y2="378.66"/><line class="f" x1="337.01" y1="378.66" x2="392.68" y2="378.66"/><line class="f" x1="493.59" y1="378.66" x2="531.87" y2="378.66"/><line class="f" x1="563.19" y1="378.66" x2="582.32" y2="378.66"/><line class="f" x1="194.34" y1="364.74" x2="194.34" y2="364.74"/><line class="f" x1="202.69" y1="364.74" x2="234.35" y2="364.74"/><line class="f" x1="374.24" y1="364.74" x2="390.94" y2="364.74"/><line class="f" x1="495.33" y1="364.74" x2="514.47" y2="364.74"/><line class="f" x1="516.91" y1="364.74" x2="530.13" y2="364.74"/><line class="f" x1="564.93" y1="364.74" x2="587.54" y2="364.74"/><line class="f" x1="338.75" y1="364.74" x2="338.75" y2="371.7"/><line class="f" x1="390.94" y1="364.74" x2="390.94" y2="371.7"/><line class="f" x1="495.33" y1="364.74" x2="495.33" y2="371.7"/><line class="f" x1="338.75" y1="364.74" x2="371.8" y2="364.74"/><line class="f" x1="530.13" y1="364.74" x2="530.13" y2="371.7"/><line class="f" x1="564.93" y1="364.74" x2="564.93" y2="371.7"/><line class="f" x1="199.21" y1="378.66" x2="199.21" y2="430.85"/><line class="f" x1="197.82" y1="430.85" x2="199.21" y2="430.85"/><line class="f" x1="392.68" y1="371.7" x2="392.68" y2="378.66"/><line class="f" x1="390.94" y1="371.7" x2="392.68" y2="371.7"/><line class="f" x1="531.87" y1="371.7" x2="531.87" y2="378.66"/><line class="f" x1="530.13" y1="371.7" x2="531.87" y2="371.7"/><line class="f" x1="337.01" y1="371.7" x2="337.01" y2="378.66"/><line class="f" x1="337.01" y1="371.7" x2="338.74" y2="371.7"/><line class="f" x1="493.59" y1="371.7" x2="493.59" y2="378.66"/><line class="f" x1="493.59" y1="371.7" x2="495.33" y2="371.7"/><line class="f" x1="563.19" y1="371.7" x2="563.19" y2="378.66"/><line class="f" x1="563.19" y1="371.7" x2="564.93" y2="371.7"/><line class="f" x1="234.36" y1="364.74" x2="234.36" y2="371.7"/><line class="f" x1="236.1" y1="371.7" x2="236.1" y2="378.66"/><line class="f" x1="236.1" y1="371.7" x2="234.36" y2="371.7"/><line class="f" x1="587.54" y1="364.74" x2="587.54" y2="258.96"/><line class="f" x1="587.54" y1="256.52" x2="587.54" y2="192.15"/><line class="f" x1="197.82" y1="430.85" x2="521.43" y2="430.85"/><line class="f" x1="521.43" y1="378.66" x2="521.43" y2="430.85"/><line class="f" x1="531.87" y1="378.66" x2="563.19" y2="378.66"/><line class="f" x1="530.13" y1="364.74" x2="564.93" y2="364.74"/><line class="f" x1="493.59" y1="378.66" x2="424" y2="378.66"/><line class="f" x1="495.33" y1="364.74" x2="425.74" y2="364.74"/><line class="f" x1="425.74" y1="364.74" x2="425.74" y2="371.7"/><line class="f" x1="425.74" y1="364.74" x2="390.94" y2="364.74"/><line class="f" x1="424" y1="371.7" x2="424" y2="378.66"/><line class="f" x1="424" y1="375.18" x2="392.68" y2="375.18"/><line class="f" x1="422.95" y1="371" x2="422.95" y2="371.7"/><line class="f" x1="422.95" y1="371.7" x2="425.74" y2="371.7"/><line class="f" x1="425.74" y1="371.7" x2="425.74" y2="368.91"/><line class="f" x1="425.74" y1="368.91" x2="424.35" y2="368.91"/><line class="f" x1="424.35" y1="368.22" x2="421.56" y2="368.22"/><line class="f" x1="421.56" y1="368.22" x2="421.56" y2="371"/><line class="f" x1="421.56" y1="371" x2="424.35" y2="371"/><line class="f" x1="424.35" y1="371" x2="424.35" y2="368.22"/><line class="f" x1="392.33" y1="368.22" x2="395.12" y2="368.22"/><line class="f" x1="395.12" y1="368.22" x2="395.12" y2="371"/><line class="f" x1="395.12" y1="371" x2="392.33" y2="371"/><line class="f" x1="392.33" y1="371" x2="392.33" y2="368.22"/><line class="f" x1="421.56" y1="368.22" x2="395.12" y2="368.22"/><line class="f" x1="395.12" y1="371" x2="421.56" y2="371"/><line class="f" x1="421.56" y1="369.61" x2="395.12" y2="369.61"/><line class="f" x1="393.73" y1="371" x2="393.73" y2="371.7"/><line class="f" x1="393.73" y1="371.7" x2="390.94" y2="371.7"/><line class="f" x1="390.94" y1="371.7" x2="390.94" y2="368.91"/><line class="f" x1="390.94" y1="368.91" x2="392.33" y2="368.91"/><line class="f" x1="492.55" y1="371" x2="492.55" y2="371.7"/><line class="f" x1="492.55" y1="371.7" x2="495.33" y2="371.7"/><line class="f" x1="495.33" y1="371.7" x2="495.33" y2="368.91"/><line class="f" x1="495.33" y1="368.91" x2="493.94" y2="368.91"/><line class="f" x1="493.94" y1="368.22" x2="491.16" y2="368.22"/><line class="f" x1="491.16" y1="368.22" x2="491.16" y2="371"/><line class="f" x1="491.16" y1="371" x2="493.94" y2="371"/><line class="f" x1="493.94" y1="371" x2="493.94" y2="368.22"/><line class="f" x1="461.93" y1="371" x2="461.93" y2="371.7"/><line class="f" x1="461.93" y1="371.7" x2="459.14" y2="371.7"/><line class="f" x1="459.14" y1="371.7" x2="459.14" y2="368.91"/><line class="f" x1="459.14" y1="368.91" x2="460.54" y2="368.91"/><line class="f" x1="460.54" y1="368.22" x2="463.32" y2="368.22"/><line class="f" x1="463.32" y1="368.22" x2="463.32" y2="371"/><line class="f" x1="463.32" y1="371" x2="460.53" y2="371"/><line class="f" x1="460.54" y1="371" x2="460.54" y2="368.22"/><line class="f" x1="491.16" y1="368.22" x2="463.32" y2="368.22"/><line class="f" x1="463.32" y1="371" x2="491.16" y2="371"/><line class="f" x1="491.16" y1="369.61" x2="463.32" y2="369.61"/><line class="f" x1="562.14" y1="371" x2="562.14" y2="371.7"/><line class="f" x1="562.14" y1="371.7" x2="564.93" y2="371.7"/><line class="f" x1="564.93" y1="371.7" x2="564.93" y2="368.91"/><line class="f" x1="564.93" y1="368.91" x2="563.53" y2="368.91"/><line class="f" x1="563.53" y1="368.22" x2="560.75" y2="368.22"/><line class="f" x1="560.75" y1="368.22" x2="560.75" y2="371"/><line class="f" x1="560.75" y1="371" x2="563.54" y2="371"/><line class="f" x1="563.53" y1="371" x2="563.53" y2="368.22"/><line class="f" x1="532.91" y1="371" x2="532.91" y2="371.7"/><line class="f" x1="532.91" y1="371.7" x2="530.13" y2="371.7"/><line class="f" x1="530.13" y1="371.7" x2="530.13" y2="368.91"/><line class="f" x1="530.13" y1="368.91" x2="531.52" y2="368.91"/><line class="f" x1="531.52" y1="368.22" x2="534.3" y2="368.22"/><line class="f" x1="534.3" y1="368.22" x2="534.3" y2="371"/><line class="f" x1="534.3" y1="371" x2="531.52" y2="371"/><line class="f" x1="531.52" y1="371" x2="531.52" y2="368.22"/><line class="f" x1="560.75" y1="368.22" x2="534.3" y2="368.22"/><line class="f" x1="534.3" y1="371" x2="560.75" y2="371"/><line class="f" x1="560.75" y1="369.61" x2="534.3" y2="369.61"/><line class="f" x1="425.74" y1="368.91" x2="428.52" y2="368.91"/><line class="f" x1="428.52" y1="368.91" x2="428.52" y2="371.7"/><line class="f" x1="428.52" y1="371.7" x2="425.74" y2="371.7"/><line class="f" x1="425.74" y1="371.7" x2="425.74" y2="368.91"/><line class="f" x1="428.52" y1="368.91" x2="459.14" y2="368.91"/><line class="f" x1="428.52" y1="370.31" x2="459.14" y2="370.31"/><line class="f" x1="428.52" y1="371.7" x2="459.14" y2="371.7"/><line class="f" x1="236.1" y1="378.66" x2="305.69" y2="378.66"/><line class="f" x1="234.36" y1="364.74" x2="303.95" y2="364.74"/><line class="f" x1="303.95" y1="364.74" x2="303.95" y2="371.7"/><line class="f" x1="303.95" y1="364.74" x2="338.74" y2="364.74"/><line class="f" x1="305.69" y1="371.7" x2="305.69" y2="378.66"/><line class="f" x1="305.69" y1="375.18" x2="337" y2="375.18"/><line class="f" x1="306.73" y1="371" x2="306.73" y2="371.7"/><line class="f" x1="306.73" y1="371.7" x2="303.95" y2="371.7"/><line class="f" x1="303.95" y1="371.7" x2="303.95" y2="368.91"/><line class="f" x1="303.95" y1="368.91" x2="305.34" y2="368.91"/><line class="f" x1="305.34" y1="368.22" x2="308.13" y2="368.22"/><line class="f" x1="308.12" y1="368.22" x2="308.12" y2="371"/><line class="f" x1="308.12" y1="371" x2="305.34" y2="371"/><line class="f" x1="305.34" y1="371" x2="305.34" y2="368.22"/><line class="f" x1="337.35" y1="368.22" x2="334.57" y2="368.22"/><line class="f" x1="334.57" y1="368.22" x2="334.57" y2="371"/><line class="f" x1="334.57" y1="371" x2="337.35" y2="371"/><line class="f" x1="337.35" y1="371" x2="337.35" y2="368.22"/><line class="f" x1="308.12" y1="368.22" x2="334.57" y2="368.22"/><line class="f" x1="334.57" y1="371" x2="308.13" y2="371"/><line class="f" x1="308.12" y1="369.61" x2="334.57" y2="369.61"/><line class="f" x1="335.96" y1="371" x2="335.96" y2="371.7"/><line class="f" x1="335.96" y1="371.7" x2="338.75" y2="371.7"/><line class="f" x1="338.75" y1="371.7" x2="338.75" y2="368.91"/><line class="f" x1="338.75" y1="368.91" x2="337.35" y2="368.91"/><line class="f" x1="237.14" y1="371" x2="237.14" y2="371.7"/><line class="f" x1="237.14" y1="371.7" x2="234.36" y2="371.7"/><line class="f" x1="234.36" y1="371.7" x2="234.36" y2="368.91"/><line class="f" x1="234.36" y1="368.91" x2="235.75" y2="368.91"/><line class="f" x1="235.75" y1="368.22" x2="238.53" y2="368.22"/><line class="f" x1="238.53" y1="368.22" x2="238.53" y2="371"/><line class="f" x1="238.53" y1="371" x2="235.75" y2="371"/><line class="f" x1="235.75" y1="371" x2="235.75" y2="368.22"/><line class="f" x1="267.76" y1="371" x2="267.76" y2="371.7"/><line class="f" x1="267.76" y1="371.7" x2="270.54" y2="371.7"/><line class="f" x1="270.54" y1="371.7" x2="270.54" y2="368.91"/><line class="f" x1="270.54" y1="368.91" x2="269.15" y2="368.91"/><line class="f" x1="269.15" y1="368.22" x2="266.37" y2="368.22"/><line class="f" x1="266.37" y1="368.22" x2="266.37" y2="371"/><line class="f" x1="266.37" y1="371" x2="269.15" y2="371"/><line class="f" x1="269.15" y1="371" x2="269.15" y2="368.22"/><line class="f" x1="238.53" y1="368.22" x2="266.37" y2="368.22"/><line class="f" x1="266.37" y1="371" x2="238.53" y2="371"/><line class="f" x1="238.53" y1="369.61" x2="266.37" y2="369.61"/><line class="f" x1="303.95" y1="368.91" x2="301.16" y2="368.91"/><line class="f" x1="301.17" y1="368.91" x2="301.17" y2="371.7"/><line class="f" x1="301.17" y1="371.7" x2="303.95" y2="371.7"/><line class="f" x1="303.95" y1="371.7" x2="303.95" y2="368.91"/><line class="f" x1="301.17" y1="368.91" x2="270.54" y2="368.91"/><line class="f" x1="301.17" y1="370.31" x2="270.54" y2="370.31"/><line class="f" x1="301.17" y1="371.7" x2="270.54" y2="371.7"/><line class="f" x1="194.34" y1="217.55" x2="194.34" y2="217.55"/><line class="f" x1="202.69" y1="192.15" x2="296.29" y2="192.15"/><line class="f" x1="364.84" y1="192.15" x2="386.77" y2="192.15"/><line class="f" x1="404.86" y1="192.15" x2="514.47" y2="192.15"/><line class="f" x1="516.91" y1="192.15" x2="587.54" y2="192.15"/><line class="f" x1="194.34" y1="183.79" x2="282.03" y2="183.79"/><line class="f" x1="290.38" y1="183.79" x2="326.57" y2="183.79"/><line class="f" x1="202.69" y1="364.74" x2="202.69" y2="260.7"/><line class="f" x1="202.69" y1="258.26" x2="202.69" y2="192.15"/><line class="f" x1="296.29" y1="221.72" x2="296.29" y2="192.15"/><line class="f" x1="298.73" y1="221.72" x2="298.73" y2="211.28"/><line class="f" x1="194.34" y1="364.74" x2="194.34" y2="217.55"/><line class="f" x1="194.34" y1="215.11" x2="194.34" y2="183.79"/><line class="f" x1="194.34" y1="215.11" x2="194.34" y2="215.11"/><line class="f" x1="389.2" y1="260.7" x2="389.2" y2="249.56"/><line class="f" x1="389.2" y1="218.24" x2="389.2" y2="213.02"/><line class="f" x1="298.73" y1="249.56" x2="298.73" y2="258.26"/><line class="f" x1="298.73" y1="258.26" x2="305.69" y2="258.26"/><line class="f" x1="337.01" y1="258.26" x2="386.77" y2="258.26"/><line class="f" x1="386.77" y1="258.26" x2="386.77" y2="249.56"/><line class="f" x1="386.77" y1="218.24" x2="386.77" y2="192.15"/><line class="f" x1="326.57" y1="211.28" x2="298.73" y2="211.28"/><line class="f" x1="404.86" y1="192.15" x2="404.86" y2="213.02"/><line class="f" x1="404.86" y1="213.02" x2="389.2" y2="213.02"/><line class="f" x1="296.29" y1="221.72" x2="298.73" y2="221.72"/><line class="f" x1="296.29" y1="249.56" x2="298.73" y2="249.56"/><line class="f" x1="337.01" y1="258.26" x2="337.01" y2="260.69"/><line class="f" x1="305.69" y1="258.26" x2="305.69" y2="260.69"/><line class="f" x1="326.57" y1="183.79" x2="328.31" y2="183.79"/><line class="f" x1="328.31" y1="187.8" x2="328.31" y2="183.79"/><line class="f" x1="363.1" y1="187.8" x2="363.1" y2="183.79"/><line class="f" x1="328.31" y1="187.8" x2="326.57" y2="187.8"/><line class="f" x1="326.57" y1="187.8" x2="326.57" y2="192.15"/><line class="f" x1="363.1" y1="187.8" x2="364.84" y2="187.8"/><line class="f" x1="364.84" y1="187.8" x2="364.84" y2="192.15"/><line class="f" x1="282.03" y1="183.79" x2="282.03" y2="183.79"/><line class="f" x1="290.38" y1="183.79" x2="290.38" y2="183.79"/><line class="f" x1="337.01" y1="260.7" x2="371.8" y2="260.7"/><line class="f" x1="374.24" y1="260.7" x2="389.2" y2="260.7"/><line class="f" x1="386.77" y1="249.56" x2="389.2" y2="249.56"/><line class="f" x1="386.77" y1="218.24" x2="389.2" y2="218.24"/><line class="f" x1="323.09" y1="192.15" x2="326.57" y2="192.15"/><line class="f" x1="531.87" y1="258.96" x2="514.47" y2="258.96"/><line class="f" x1="514.47" y1="258.96" x2="514.47" y2="192.15"/><line class="f" x1="531.87" y1="256.52" x2="516.91" y2="256.52"/><line class="f" x1="516.91" y1="256.52" x2="516.91" y2="192.15"/><line class="f" x1="514.47" y1="364.74" x2="514.47" y2="286.79"/><line class="f" x1="516.91" y1="364.74" x2="516.91" y2="286.79"/><line class="f" x1="531.87" y1="256.52" x2="531.87" y2="258.96"/><line class="f" x1="563.19" y1="256.52" x2="563.19" y2="258.96"/><line class="f" x1="361.36" y1="183.79" x2="364.5" y2="183.79"/><line class="f" x1="364.5" y1="183.79" x2="596.24" y2="183.79"/><line class="f" x1="392.33" y1="368.22" x2="392.33" y2="336.2"/><g class="i"><path class="f" d="M392.33,336.2a32,32,0,0,1,32,32"/></g><line class="f" x1="337.35" y1="368.22" x2="337.35" y2="336.2"/><g class="i"><path class="f" d="M305.34,368.22a32,32,0,0,1,32-32"/></g><line class="f" x1="335.27" y1="260.7" x2="307.43" y2="260.7"/><line class="f" x1="335.27" y1="260.7" x2="335.27" y2="288.53"/><g class="i"><path class="f" d="M335.27,288.53a27.83,27.83,0,0,1-27.84-27.83"/></g><line class="f" x1="335.27" y1="258.26" x2="335.27" y2="260.69"/><line class="f" x1="307.43" y1="260.7" x2="307.43" y2="258.26"/><line class="f" x1="307.43" y1="260.7" x2="305.69" y2="260.7"/><line class="f" x1="307.43" y1="258.26" x2="305.69" y2="258.26"/><line class="f" x1="337.01" y1="260.7" x2="335.27" y2="260.7"/><line class="f" x1="337.01" y1="258.26" x2="335.27" y2="258.26"/><line class="f" x1="335.27" y1="258.26" x2="328.31" y2="258.26"/><line class="f" x1="324.48" y1="258.26" x2="323.7" y2="258.26"/><line class="f" x1="319.87" y1="258.26" x2="319.09" y2="258.26"/><line class="f" x1="315.26" y1="258.26" x2="314.39" y2="258.26"/><line class="f" x1="314.39" y1="258.26" x2="307.43" y2="258.26"/><line class="f" x1="335.27" y1="260.7" x2="335.27" y2="261.56"/><line class="f" x1="335.27" y1="261.57" x2="338.75" y2="261.57"/><line class="f" x1="338.75" y1="261.57" x2="338.75" y2="260.7"/><line class="f" x1="335.27" y1="258.26" x2="335.27" y2="257.39"/><line class="f" x1="335.27" y1="257.39" x2="338.75" y2="257.39"/><line class="f" x1="338.75" y1="257.39" x2="338.75" y2="258.26"/><line class="f" x1="307.43" y1="261.57" x2="303.95" y2="261.57"/><line class="f" x1="303.95" y1="261.57" x2="303.95" y2="260.7"/><line class="f" x1="307.43" y1="258.26" x2="307.43" y2="257.39"/><line class="f" x1="307.43" y1="257.39" x2="303.95" y2="257.39"/><line class="f" x1="303.95" y1="257.39" x2="303.95" y2="258.26"/><line class="f" x1="330.05" y1="187.8" x2="361.36" y2="187.8"/><line class="f" x1="330.05" y1="183.79" x2="361.36" y2="183.79"/><line class="f" x1="330.05" y1="187.8" x2="330.05" y2="219.11"/><g class="i"><path class="f" d="M361.36,187.8a31.31,31.31,0,0,1-31.31,31.31"/></g><line class="f" x1="330.05" y1="183.79" x2="330.05" y2="187.8"/><line class="f" x1="361.36" y1="187.8" x2="361.36" y2="183.79"/><line class="f" x1="361.36" y1="187.8" x2="363.1" y2="187.8"/><line class="f" x1="328.31" y1="187.8" x2="330.05" y2="187.8"/><line class="f" x1="328.31" y1="183.79" x2="330.05" y2="183.79"/><line class="f" x1="374.24" y1="364.74" x2="374.24" y2="260.7"/><line class="f" x1="202.69" y1="260.7" x2="305.69" y2="260.7"/><line class="f" x1="202.69" y1="258.26" x2="296.29" y2="258.26"/><line class="f" x1="296.29" y1="258.26" x2="296.29" y2="249.56"/><line class="f" x1="371.8" y1="260.7" x2="371.8" y2="364.74"/><line class="f" x1="389.2" y1="192.15" x2="401.38" y2="192.15"/><line class="f" x1="401.38" y1="192.15" x2="401.38" y2="209.54"/><line class="f" x1="401.38" y1="209.54" x2="389.2" y2="209.54"/><line class="f" x1="389.2" y1="209.54" x2="389.2" y2="192.15"/><line class="f" x1="298.73" y1="223.46" x2="298.73" y2="247.82"/><line class="f" x1="298.73" y1="223.46" x2="323.09" y2="223.46"/><g class="i"><path class="f" d="M323.09,223.46a24.36,24.36,0,0,1-24.36,24.36"/></g><line class="f" x1="296.29" y1="223.46" x2="298.73" y2="223.46"/><line class="f" x1="298.73" y1="247.82" x2="296.29" y2="247.82"/><line class="f" x1="298.73" y1="247.82" x2="298.73" y2="249.56"/><line class="f" x1="296.29" y1="247.82" x2="296.29" y2="249.56"/><line class="f" x1="298.73" y1="221.72" x2="298.73" y2="223.46"/><line class="f" x1="296.29" y1="221.72" x2="296.29" y2="223.46"/><line class="f" x1="296.29" y1="223.46" x2="296.29" y2="230.42"/><line class="f" x1="296.29" y1="234.25" x2="296.29" y2="235.03"/><line class="f" x1="296.29" y1="238.86" x2="296.29" y2="239.64"/><line class="f" x1="296.29" y1="240.86" x2="296.29" y2="247.82"/><line class="f" x1="298.73" y1="223.46" x2="299.6" y2="223.46"/><line class="f" x1="299.6" y1="223.46" x2="299.6" y2="219.98"/><line class="f" x1="299.6" y1="219.98" x2="298.73" y2="219.98"/><line class="f" x1="296.29" y1="223.46" x2="295.42" y2="223.46"/><line class="f" x1="295.42" y1="223.46" x2="295.42" y2="219.98"/><line class="f" x1="295.42" y1="219.98" x2="296.29" y2="219.98"/><line class="f" x1="299.6" y1="247.82" x2="299.6" y2="251.3"/><line class="f" x1="299.6" y1="251.3" x2="298.73" y2="251.3"/><line class="f" x1="296.29" y1="247.82" x2="295.42" y2="247.82"/><line class="f" x1="295.42" y1="247.82" x2="295.42" y2="251.3"/><line class="f" x1="295.42" y1="251.3" x2="296.29" y2="251.3"/><line class="f" x1="389.2" y1="219.98" x2="389.2" y2="247.82"/><line class="f" x1="389.2" y1="219.98" x2="417.04" y2="219.98"/><g class="i"><path class="f" d="M417,220a27.84,27.84,0,0,1-27.84,27.84"/></g><line class="f" x1="386.77" y1="219.98" x2="389.2" y2="219.98"/><line class="f" x1="389.2" y1="247.82" x2="386.77" y2="247.82"/><line class="f" x1="389.2" y1="247.82" x2="389.2" y2="249.56"/><line class="f" x1="386.77" y1="247.82" x2="386.77" y2="249.56"/><line class="f" x1="389.2" y1="218.24" x2="389.2" y2="219.98"/><line class="f" x1="386.77" y1="218.24" x2="386.77" y2="219.98"/><line class="f" x1="386.77" y1="219.98" x2="386.77" y2="226.94"/><line class="f" x1="386.77" y1="230.77" x2="386.77" y2="231.55"/><line class="f" x1="386.77" y1="235.38" x2="386.77" y2="236.16"/><line class="f" x1="386.77" y1="239.99" x2="386.77" y2="240.86"/><line class="f" x1="386.77" y1="240.86" x2="386.77" y2="247.82"/><line class="f" x1="389.2" y1="219.98" x2="390.07" y2="219.98"/><line class="f" x1="390.07" y1="219.98" x2="390.07" y2="216.5"/><line class="f" x1="390.07" y1="216.5" x2="389.2" y2="216.5"/><line class="f" x1="386.77" y1="219.98" x2="385.9" y2="219.98"/><line class="f" x1="385.9" y1="219.98" x2="385.9" y2="216.5"/><line class="f" x1="385.9" y1="216.5" x2="386.76" y2="216.5"/><line class="f" x1="390.07" y1="247.82" x2="390.07" y2="251.3"/><line class="f" x1="390.07" y1="251.3" x2="389.2" y2="251.3"/><line class="f" x1="386.77" y1="247.82" x2="385.9" y2="247.82"/><line class="f" x1="385.9" y1="247.82" x2="385.9" y2="251.3"/><line class="f" x1="385.9" y1="251.3" x2="386.76" y2="251.3"/><line class="f" x1="202.69" y1="197.37" x2="296.29" y2="197.37"/><line class="f" x1="236.62" y1="257.39" x2="236.62" y2="253.91"/><line class="f" x1="236.62" y1="253.91" x2="257.5" y2="253.91"/><line class="f" x1="257.5" y1="253.91" x2="257.5" y2="257.39"/><line class="f" x1="257.5" y1="257.39" x2="256.45" y2="257.39"/><line class="f" x1="256.45" y1="257.39" x2="256.45" y2="254.96"/><line class="f" x1="256.45" y1="254.95" x2="237.66" y2="254.95"/><line class="f" x1="237.66" y1="254.95" x2="237.66" y2="257.39"/><line class="f" x1="237.66" y1="257.39" x2="236.62" y2="257.39"/><line class="f" x1="236.62" y1="257.39" x2="236.62" y2="253.91"/><line class="f" x1="257.5" y1="257.39" x2="257.5" y2="253.91"/><line class="f" x1="237.66" y1="257.39" x2="237.66" y2="254.96"/><line class="f" x1="256.45" y1="257.39" x2="256.45" y2="254.96"/><line class="f" x1="236.62" y1="253.91" x2="257.5" y2="253.91"/><line class="f" x1="236.62" y1="254.95" x2="257.5" y2="254.95"/><line class="f" x1="236.62" y1="257.39" x2="237.66" y2="257.39"/><line class="f" x1="256.45" y1="257.39" x2="257.5" y2="257.39"/><line class="f" x1="227.57" y1="204.93" x2="227.49" y2="204.1"/><line class="f" x1="227.49" y1="204.1" x2="227.25" y2="203.3"/><line class="f" x1="227.25" y1="203.3" x2="226.87" y2="202.54"/><line class="f" x1="226.87" y1="202.54" x2="226.35" y2="201.86"/><line class="f" x1="226.35" y1="201.86" x2="225.71" y2="201.27"/><line class="f" x1="225.71" y1="201.27" x2="224.96" y2="200.79"/><line class="f" x1="224.96" y1="200.79" x2="224.14" y2="200.44"/><line class="f" x1="224.14" y1="200.44" x2="223.26" y2="200.22"/><line class="f" x1="223.26" y1="200.22" x2="222.35" y2="200.15"/><line class="f" x1="222.35" y1="200.15" x2="210.87" y2="200.15"/><line class="f" x1="210.87" y1="200.15" x2="209.96" y2="200.22"/><line class="f" x1="209.96" y1="200.22" x2="209.08" y2="200.44"/><line class="f" x1="209.08" y1="200.44" x2="208.26" y2="200.79"/><line class="f" x1="208.26" y1="200.79" x2="207.51" y2="201.27"/><line class="f" x1="207.51" y1="201.27" x2="206.87" y2="201.86"/><line class="f" x1="206.87" y1="201.86" x2="206.35" y2="202.54"/><line class="f" x1="206.35" y1="202.54" x2="205.96" y2="203.3"/><line class="f" x1="205.96" y1="203.3" x2="205.73" y2="204.1"/><line class="f" x1="205.73" y1="204.1" x2="205.65" y2="204.93"/><line class="f" x1="205.65" y1="204.93" x2="205.65" y2="245.43"/><line class="f" x1="205.65" y1="245.43" x2="205.81" y2="247.17"/><line class="f" x1="205.81" y1="247.17" x2="206.31" y2="248.87"/><line class="f" x1="206.31" y1="248.87" x2="207.12" y2="250.45"/><line class="f" x1="207.12" y1="250.45" x2="208.21" y2="251.89"/><line class="f" x1="208.21" y1="251.89" x2="209.56" y2="253.13"/><line class="f" x1="209.56" y1="253.13" x2="211.13" y2="254.13"/><line class="f" x1="211.13" y1="254.13" x2="212.86" y2="254.87"/><line class="f" x1="212.86" y1="254.87" x2="214.7" y2="255.32"/><line class="f" x1="214.71" y1="255.32" x2="216.61" y2="255.48"/><line class="f" x1="216.61" y1="255.48" x2="218.51" y2="255.32"/><line class="f" x1="218.51" y1="255.32" x2="220.36" y2="254.87"/><line class="f" x1="220.36" y1="254.87" x2="222.09" y2="254.13"/><line class="f" x1="222.09" y1="254.13" x2="223.65" y2="253.13"/><line class="f" x1="223.65" y1="253.13" x2="225" y2="251.89"/><line class="f" x1="225.01" y1="251.89" x2="226.1" y2="250.45"/><line class="f" x1="226.1" y1="250.45" x2="226.91" y2="248.87"/><line class="f" x1="226.91" y1="248.87" x2="227.4" y2="247.17"/><line class="f" x1="227.4" y1="247.17" x2="227.57" y2="245.43"/><line class="f" x1="227.57" y1="245.43" x2="227.57" y2="204.93"/><g class="i"><path class="f" d="M217.48,206.59a.87.87,0,1,0-.87.87.87.87,0,0,0,.87-.87"/></g><line class="f" x1="215.74" y1="199.27" x2="215.88" y2="200.73"/><g class="i"><path class="f" d="M216,201.06a.76.76,0,0,1-.11-.33"/></g><line class="f" x1="215.99" y1="201.06" x2="215.99" y2="201.06"/><line class="f" x1="215.99" y1="201.06" x2="216.22" y2="202.9"/><g class="i"><path class="f" d="M217,202.9a.39.39,0,0,1-.38.34.4.4,0,0,1-.39-.34"/></g><line class="f" x1="216.99" y1="202.9" x2="217" y2="202.9"/><line class="f" x1="216.99" y1="202.9" x2="217.23" y2="201.06"/><g class="i"><path class="f" d="M217.34,200.73a.76.76,0,0,1-.11.33"/></g><line class="f" x1="217.34" y1="200.73" x2="217.34" y2="200.73"/><line class="f" x1="217.34" y1="200.73" x2="217.48" y2="199.27"/><g class="i"><path class="f" d="M215.74,199.27a.87.87,0,0,1,1.74,0"/></g><line class="f" x1="215.74" y1="199.27" x2="215.74" y2="199.27"/><line class="f" x1="217.08" y1="200.13" x2="217.08" y2="200.65"/><line class="f" x1="216.14" y1="200.65" x2="216.14" y2="200.13"/><line class="f" x1="216.14" y1="200.13" x2="217.08" y2="200.13"/><g class="i"><path class="f" d="M217.08,200.65a.47.47,0,1,1-.94,0"/><path class="f" d="M217.23,201.06a.75.75,0,0,1-1.24,0"/></g><line class="f" x1="426.09" y1="213.37" x2="426.09" y2="192.49"/><line class="f" x1="418.11" y1="200.47" x2="413.19" y2="205.39"/><line class="f" x1="413.19" y1="200.47" x2="418.11" y2="205.39"/><line class="f" x1="415.65" y1="206.41" x2="415.65" y2="199.45"/><line class="f" x1="419.13" y1="202.93" x2="412.17" y2="202.93"/><line class="f" x1="426.09" y1="213.37" x2="405.21" y2="213.37"/><line class="f" x1="587.54" y1="258.96" x2="563.19" y2="258.96"/><line class="f" x1="587.54" y1="256.52" x2="563.19" y2="256.52"/><line class="f" x1="516.91" y1="286.79" x2="514.47" y2="286.79"/><line class="f" x1="447.14" y1="211.63" x2="428" y2="211.63"/><line class="f" x1="428" y1="211.63" x2="428" y2="194.23"/><line class="f" x1="428" y1="194.23" x2="447.14" y2="194.23"/><line class="f" x1="447.14" y1="194.23" x2="447.14" y2="211.63"/><line class="f" x1="448.01" y1="213.37" x2="427.13" y2="213.37"/><line class="f" x1="445.4" y1="209.89" x2="429.74" y2="209.89"/><line class="f" x1="429.74" y1="209.89" x2="429.74" y2="197.71"/><line class="f" x1="429.74" y1="197.71" x2="445.4" y2="197.71"/><line class="f" x1="445.4" y1="197.71" x2="445.4" y2="209.89"/><g class="i"><path class="f" d="M438.26,201.19a.69.69,0,0,0-.69-.69.7.7,0,1,0,0,1.39.69.69,0,0,0,.69-.7"/><path class="f" d="M381.5,312.44a6.35,6.35,0,1,1,0,12.7"/><path class="f" d="M381.5,325.13a12.69,12.69,0,0,1,0-12.69"/></g><line class="f" x1="385.38" y1="302.92" x2="385.38" y2="334.66"/><line class="f" x1="385.38" y1="334.66" x2="383.24" y2="334.66"/><line class="f" x1="383.24" y1="334.66" x2="381.11" y2="326.72"/><line class="f" x1="381.11" y1="326.72" x2="381.11" y2="310.85"/><line class="f" x1="381.11" y1="310.85" x2="383.24" y2="302.92"/><line class="f" x1="383.24" y1="302.92" x2="385.38" y2="302.92"/><line class="f" x1="384.52" y1="332.54" x2="384.52" y2="330.43"/><line class="f" x1="384.52" y1="330.43" x2="383.99" y2="330.43"/><line class="f" x1="383.99" y1="330.43" x2="383.99" y2="332.54"/><line class="f" x1="383.99" y1="332.54" x2="384.52" y2="332.54"/><line class="f" x1="384.52" y1="329.9" x2="384.52" y2="327.78"/><line class="f" x1="384.52" y1="327.78" x2="383.99" y2="327.78"/><line class="f" x1="383.99" y1="327.78" x2="383.99" y2="329.9"/><line class="f" x1="383.99" y1="329.9" x2="384.52" y2="329.9"/><line class="f" x1="384.52" y1="327.25" x2="384.52" y2="326.19"/><line class="f" x1="384.52" y1="326.19" x2="383.99" y2="326.19"/><line class="f" x1="383.99" y1="326.19" x2="383.99" y2="327.25"/><line class="f" x1="383.99" y1="327.25" x2="384.52" y2="327.25"/><line class="f" x1="383.24" y1="302.92" x2="383.24" y2="334.66"/><line class="f" x1="468.89" y1="192.49" x2="468.89" y2="213.37"/><line class="f" x1="468.89" y1="213.37" x2="448.01" y2="213.37"/><line class="f" x1="448.01" y1="213.37" x2="448.01" y2="192.49"/><g class="i"><path class="f" d="M512.23,242a3.42,3.42,0,1,0-3.42,3.42,3.42,3.42,0,0,0,3.42-3.42"/></g><line class="f" x1="514.12" y1="247.3" x2="493.24" y2="247.3"/><line class="f" x1="493.24" y1="247.3" x2="493.24" y2="226.42"/><line class="f" x1="493.24" y1="226.42" x2="514.12" y2="226.42"/><g class="i"><path class="f" d="M502,242a3.42,3.42,0,1,0-3.41,3.42A3.41,3.41,0,0,0,502,242"/><path class="f" d="M502,231.74a3.42,3.42,0,1,0-3.41,3.41,3.41,3.41,0,0,0,3.41-3.41"/></g><line class="f" x1="492.29" y1="229.27" x2="492.29" y2="244.45"/><line class="f" x1="468.89" y1="213.37" x2="468.89" y2="192.15"/><line class="f" x1="468.89" y1="192.15" x2="489.76" y2="192.15"/><line class="f" x1="489.76" y1="192.15" x2="489.76" y2="213.37"/><line class="f" x1="489.76" y1="213.37" x2="468.89" y2="213.37"/><g class="i"><path class="f" d="M485.41,202.93a6.09,6.09,0,1,0-6.08,6.09,6.09,6.09,0,0,0,6.08-6.09"/><path class="f" d="M484.37,202.93a5,5,0,1,0-5,5,5,5,0,0,0,5-5"/></g><line class="f" x1="404.86" y1="213.37" x2="404.86" y2="192.15"/><line class="f" x1="404.86" y1="192.15" x2="514.47" y2="192.15"/><line class="f" x1="514.47" y1="192.15" x2="514.47" y2="259.3"/><line class="f" x1="514.47" y1="259.3" x2="493.24" y2="259.3"/><line class="f" x1="493.24" y1="259.3" x2="493.24" y2="213.37"/><line class="f" x1="493.24" y1="213.37" x2="404.86" y2="213.37"/><line class="f" x1="326.57" y1="192.15" x2="326.57" y2="211.28"/><line class="f" x1="323.09" y1="192.15" x2="323.09" y2="207.81"/><line class="f" x1="323.09" y1="207.8" x2="298.73" y2="207.8"/><line class="f" x1="298.73" y1="207.8" x2="298.73" y2="192.15"/><line class="f" x1="298.73" y1="192.15" x2="323.09" y2="192.15"/><line class="f" x1="596.24" y1="340.38" x2="596.24" y2="340.38"/><line class="f" x1="488.37" y1="363" x2="432.7" y2="363"/><line class="f" x1="432.7" y1="363" x2="432.7" y2="359.52"/><line class="f" x1="432.7" y1="359.52" x2="488.37" y2="359.52"/><line class="f" x1="488.37" y1="359.52" x2="488.37" y2="363"/><g class="i"><path class="f" d="M431,361.26a1.74,1.74,0,1,0-1.74,1.74,1.74,1.74,0,0,0,1.74-1.74"/></g><line class="f" x1="564.45" y1="363" x2="536.62" y2="363"/><line class="f" x1="536.62" y1="363" x2="536.62" y2="360.7"/><line class="f" x1="536.62" y1="360.7" x2="564.45" y2="360.7"/><line class="f" x1="564.45" y1="360.7" x2="564.45" y2="363"/><g class="i"><path class="f" d="M534.88,361.85a1.74,1.74,0,1,0-1.74,1.74,1.74,1.74,0,0,0,1.74-1.74"/></g><line class="f" x1="279.59" y1="363" x2="251.75" y2="363"/><line class="f" x1="251.75" y1="363" x2="251.75" y2="360.81"/><line class="f" x1="251.75" y1="360.81" x2="279.59" y2="360.81"/><line class="f" x1="279.59" y1="360.81" x2="279.59" y2="363"/><g class="i"><path class="f" d="M250,361.9a1.74,1.74,0,1,0-1.74,1.74A1.73,1.73,0,0,0,250,361.9"/></g><line class="f" x1="424" y1="378.66" x2="417.04" y2="378.66"/><line class="f" x1="413.21" y1="378.66" x2="412.43" y2="378.66"/><line class="f" x1="408.6" y1="378.66" x2="407.82" y2="378.66"/><line class="f" x1="403.99" y1="378.66" x2="399.64" y2="378.66"/><line class="f" x1="399.64" y1="378.66" x2="392.68" y2="378.66"/><line class="f" x1="337.01" y1="378.66" x2="330.05" y2="378.66"/><line class="f" x1="326.22" y1="378.66" x2="325.44" y2="378.66"/><line class="f" x1="321.61" y1="378.66" x2="320.83" y2="378.66"/><line class="f" x1="317" y1="378.66" x2="312.65" y2="378.66"/><line class="f" x1="312.65" y1="378.66" x2="305.69" y2="378.66"/><line class="f" x1="401.38" y1="209.54" x2="393" y2="206.05"/><line class="f" x1="393" y1="206.05" x2="389.2" y2="192.15"/><line class="f" x1="389.2" y1="192.15" x2="389.2" y2="209.54"/><line class="f" x1="389.2" y1="209.54" x2="401.38" y2="209.54"/><line class="f" x1="323.09" y1="207.8" x2="302.53" y2="204.31"/><line class="f" x1="302.53" y1="204.31" x2="298.73" y2="192.15"/><line class="f" x1="298.73" y1="192.15" x2="298.73" y2="207.81"/><line class="f" x1="298.73" y1="207.8" x2="323.09" y2="207.8"/><rect class="d" x="460.54" y="298.28" width="17.4" height="27.84"/><line class="f" x1="460.54" y1="298.27" x2="460.54" y2="326.11"/><line class="f" x1="477.93" y1="298.27" x2="460.54" y2="298.27"/><line class="f" x1="477.93" y1="326.11" x2="477.93" y2="298.27"/><line class="f" x1="460.54" y1="326.11" x2="477.93" y2="326.11"/><rect class="d" x="202.69" y="192.15" width="93.6" height="5.22"/><line class="f" x1="202.69" y1="192.15" x2="202.69" y2="197.37"/><line class="f" x1="296.29" y1="192.15" x2="202.69" y2="192.15"/><line class="f" x1="296.29" y1="197.37" x2="296.29" y2="192.15"/><line class="f" x1="202.69" y1="197.37" x2="296.29" y2="197.37"/><rect class="d" x="566.67" y="192.15" width="20.88" height="20.88"/><line class="f" x1="566.67" y1="192.15" x2="566.67" y2="213.02"/><line class="f" x1="587.54" y1="192.15" x2="566.67" y2="192.15"/><line class="f" x1="587.54" y1="213.02" x2="587.54" y2="192.15"/><line class="f" x1="566.67" y1="213.02" x2="587.54" y2="213.02"/><rect class="d" x="374.24" y="260.7" width="14.96" height="104.04"/><line class="f" x1="374.24" y1="260.7" x2="374.24" y2="364.74"/><line class="f" x1="389.2" y1="260.7" x2="374.24" y2="260.7"/><line class="f" x1="389.2" y1="364.74" x2="389.2" y2="260.7"/><line class="f" x1="374.24" y1="364.74" x2="389.2" y2="364.74"/><rect class="d" x="236.62" y="254.96" width="1.04" height="2.43"/><line class="f" x1="236.62" y1="257.39" x2="237.66" y2="257.39"/><line class="f" x1="236.62" y1="254.95" x2="236.62" y2="257.39"/><line class="f" x1="237.66" y1="254.95" x2="236.62" y2="254.95"/><line class="f" x1="237.66" y1="257.39" x2="237.66" y2="254.96"/><rect class="d" x="236.62" y="253.91" width="20.88" height="1.04"/><line class="f" x1="257.5" y1="254.95" x2="257.5" y2="253.91"/><line class="f" x1="236.62" y1="254.95" x2="257.5" y2="254.95"/><line class="f" x1="236.62" y1="253.91" x2="236.62" y2="254.95"/><line class="f" x1="257.5" y1="253.91" x2="236.62" y2="253.91"/><rect class="d" x="256.45" y="254.96" width="1.04" height="2.43"/><line class="f" x1="256.45" y1="257.39" x2="257.5" y2="257.39"/><line class="f" x1="256.45" y1="254.95" x2="256.45" y2="257.39"/><line class="f" x1="257.5" y1="254.95" x2="256.45" y2="254.95"/><line class="f" x1="257.5" y1="257.39" x2="257.5" y2="254.96"/><rect class="d" x="340.14" y="252.69" width="46.63" height="5.57"/><line class="f" x1="340.14" y1="252.69" x2="340.14" y2="258.26"/><line class="f" x1="386.77" y1="252.69" x2="340.14" y2="252.69"/><line class="f" x1="386.77" y1="258.26" x2="386.77" y2="252.69"/><line class="f" x1="340.14" y1="258.26" x2="386.77" y2="258.26"/><polygon class="g" points="250.01 361.9 249.5 363.13 248.28 363.64 247.04 363.13 246.53 361.9 247.04 360.67 248.28 360.16 249.5 360.67 250.01 361.9"/><g class="i"><path class="f" d="M250,361.9a1.74,1.74,0,1,1-3.48,0"/><path class="f" d="M246.53,361.9a1.74,1.74,0,0,1,3.48,0"/></g><rect class="d" x="251.76" y="360.81" width="27.84" height="2.19"/><line class="f" x1="251.75" y1="363" x2="279.59" y2="363"/><line class="f" x1="251.75" y1="360.81" x2="251.75" y2="363"/><line class="f" x1="279.59" y1="360.81" x2="251.75" y2="360.81"/><line class="f" x1="279.59" y1="363" x2="279.59" y2="360.81"/><polygon class="g" points="430.96 361.26 430.45 362.49 429.22 363 427.99 362.49 427.48 361.26 427.99 360.03 429.22 359.52 430.45 360.03 430.96 361.26"/><g class="i"><path class="f" d="M431,361.26a1.74,1.74,0,1,1-3.48,0"/><path class="f" d="M427.48,361.26a1.74,1.74,0,1,1,3.48,0"/></g><rect class="d" x="432.7" y="359.52" width="55.68" height="3.48"/><line class="f" x1="432.7" y1="363" x2="488.37" y2="363"/><line class="f" x1="432.7" y1="359.52" x2="432.7" y2="363"/><line class="f" x1="488.37" y1="359.52" x2="432.7" y2="359.52"/><line class="f" x1="488.37" y1="363" x2="488.37" y2="359.52"/><polygon class="g" points="534.88 361.85 534.36 363.08 533.13 363.59 531.9 363.08 531.4 361.85 531.9 360.62 533.13 360.11 534.36 360.62 534.88 361.85"/><g class="i"><path class="f" d="M534.88,361.85a1.74,1.74,0,1,1-3.48,0"/><path class="f" d="M531.4,361.85a1.74,1.74,0,0,1,3.48,0"/></g><rect class="d" x="536.62" y="360.7" width="27.84" height="2.3"/><line class="f" x1="536.62" y1="363" x2="564.45" y2="363"/><line class="f" x1="536.62" y1="360.7" x2="536.62" y2="363"/><line class="f" x1="564.45" y1="360.7" x2="536.62" y2="360.7"/><line class="f" x1="564.45" y1="363" x2="564.45" y2="360.7"/><polygon class="g" points="202.69 281.8 202.69 344.44 213.13 344.44 265.32 344.44 267.99 343.9 270.25 342.4 271.75 340.14 272.28 337.48 272.28 288.76 271.75 286.1 270.25 283.84 267.99 282.33 265.32 281.8 202.69 281.8"/><rect class="d" x="202.69" y="269.62" width="10.44" height="12.18"/><rect class="d" x="202.69" y="344.44" width="10.44" height="12.18"/><line class="f" x1="214.26" y1="315.09" x2="211.25" y2="315.92"/><line class="f" x1="214.26" y1="285.87" x2="211.25" y2="286.71"/><line class="f" x1="272.28" y1="337.48" x2="272.28" y2="288.76"/><line class="f" x1="265.32" y1="281.8" x2="202.69" y2="281.8"/><line class="f" x1="202.69" y1="281.8" x2="202.69" y2="344.44"/><line class="f" x1="202.69" y1="344.44" x2="265.32" y2="344.44"/><line class="f" x1="202.69" y1="281.8" x2="202.69" y2="269.62"/><line class="f" x1="202.69" y1="269.62" x2="213.13" y2="269.62"/><line class="f" x1="213.13" y1="269.62" x2="213.13" y2="281.8"/><line class="f" x1="213.13" y1="281.8" x2="202.69" y2="281.8"/><line class="f" x1="202.69" y1="356.62" x2="202.69" y2="344.44"/><line class="f" x1="202.69" y1="344.44" x2="213.13" y2="344.44"/><line class="f" x1="213.13" y1="344.44" x2="213.13" y2="356.62"/><line class="f" x1="213.13" y1="356.62" x2="202.69" y2="356.62"/><line class="f" x1="225.84" y1="281.8" x2="225.84" y2="344.44"/><line class="f" x1="231.06" y1="281.8" x2="231.06" y2="344.44"/><g class="i"><path class="f" d="M220.57,310.48a98.77,98.77,0,0,1-.35-22.68"/><path class="f" d="M218.31,285.54h.09a1.87,1.87,0,0,1,1.87,1.86,1.83,1.83,0,0,1-.05.4"/><path class="f" d="M214.26,285.87a14.57,14.57,0,0,1,3.22-.35l.83,0"/><path class="f" d="M206.49,285.67q1.26-.06,2.52-.06c1.75,0,3.5.09,5.25.26"/><path class="f" d="M206,286.13a.19.19,0,0,1,0-.08.4.4,0,0,1,.39-.4l.12,0"/><path class="f" d="M206,286.13q.57,7.47.57,15,0,4.72-.23,9.45"/><path class="f" d="M207.59,311.67a.84.84,0,0,1-.31.05,1,1,0,0,1-1-1,1.49,1.49,0,0,1,0-.21"/><path class="f" d="M207.59,311.67a46.91,46.91,0,0,1,12-.18"/><path class="f" d="M220.57,310.48a.93.93,0,0,1,0,.24.8.8,0,0,1-.81.8.83.83,0,0,1-.22,0"/><path class="f" d="M265.32,281.8a7,7,0,0,1,7,7"/><path class="f" d="M272.28,337.48a7,7,0,0,1-6.95,7"/><path class="f" d="M220.57,339.69a98.68,98.68,0,0,1-.35-22.67"/><path class="f" d="M218.31,314.76h.09a1.87,1.87,0,0,1,1.87,1.87,1.9,1.9,0,0,1-.05.4"/><path class="f" d="M214.26,315.09a14.58,14.58,0,0,1,3.22-.36c.28,0,.55,0,.83,0"/><path class="f" d="M206.49,314.89q1.26-.06,2.52-.06c1.75,0,3.5.09,5.25.26"/><path class="f" d="M206,315.35a.25.25,0,0,1,0-.08.4.4,0,0,1,.39-.4l.12,0"/><path class="f" d="M206,315.35q.57,7.47.57,15,0,4.73-.23,9.45"/><path class="f" d="M207.59,340.89a.84.84,0,0,1-.31.05,1,1,0,0,1-1-1,1.49,1.49,0,0,1,0-.21"/><path class="f" d="M207.59,340.89a46.91,46.91,0,0,1,12-.18"/><path class="f" d="M220.57,339.69a1.09,1.09,0,0,1,0,.25.8.8,0,0,1-.81.8.83.83,0,0,1-.22,0"/></g><polygon class="g" points="383.48 321.69 384.88 319.97 385.63 317.81 385.63 315.51 384.88 313.35 383.48 311.63 383.48 300.79 381.55 300.79 379.62 308.73 379.62 311.04 378.57 314.73 378.57 318.59 379.62 322.28 379.62 324.6 381.55 332.53 383.48 332.53 383.48 321.69"/><line class="f" x1="383.48" y1="332.53" x2="383.48" y2="321.69"/><line class="f" x1="381.55" y1="332.53" x2="383.48" y2="332.53"/><line class="f" x1="379.62" y1="324.6" x2="381.55" y2="332.53"/><line class="f" x1="379.62" y1="322.28" x2="379.62" y2="324.6"/><line class="f" x1="378.57" y1="318.59" x2="379.62" y2="322.28"/><line class="f" x1="378.57" y1="314.73" x2="378.57" y2="318.59"/><line class="f" x1="379.62" y1="311.04" x2="378.57" y2="314.73"/><line class="f" x1="379.62" y1="308.73" x2="379.62" y2="311.04"/><line class="f" x1="381.55" y1="300.79" x2="379.62" y2="308.73"/><line class="f" x1="383.48" y1="300.79" x2="381.55" y2="300.79"/><line class="f" x1="383.48" y1="311.63" x2="383.48" y2="300.8"/><line class="f" x1="384.88" y1="313.35" x2="383.48" y2="311.63"/><line class="f" x1="385.63" y1="315.51" x2="384.88" y2="313.35"/><line class="f" x1="385.63" y1="317.81" x2="385.63" y2="315.51"/><line class="f" x1="384.88" y1="319.97" x2="385.63" y2="317.81"/><line class="f" x1="383.48" y1="321.69" x2="384.88" y2="319.97"/><line class="f" x1="383.48" y1="332.53" x2="383.48" y2="300.79"/><line class="f" x1="379.62" y1="308.73" x2="379.62" y2="324.6"/><line class="f" x1="381.55" y1="332.53" x2="383.48" y2="332.53"/><line class="f" x1="382.71" y1="302.91" x2="382.71" y2="305.03"/><line class="f" x1="382.71" y1="305.03" x2="382.23" y2="305.03"/><line class="f" x1="382.23" y1="305.03" x2="382.23" y2="302.91"/><line class="f" x1="382.23" y1="302.91" x2="382.71" y2="302.91"/><line class="f" x1="382.71" y1="305.56" x2="382.71" y2="307.67"/><line class="f" x1="382.71" y1="307.67" x2="382.23" y2="307.67"/><line class="f" x1="382.23" y1="307.67" x2="382.23" y2="305.55"/><line class="f" x1="382.23" y1="305.56" x2="382.71" y2="305.56"/><line class="f" x1="381.55" y1="332.53" x2="381.55" y2="300.79"/><line class="f" x1="382.23" y1="308.2" x2="382.71" y2="308.2"/><line class="f" x1="382.71" y1="308.2" x2="382.71" y2="309.26"/><line class="f" x1="382.71" y1="309.26" x2="382.23" y2="309.26"/><line class="f" x1="382.23" y1="309.26" x2="382.23" y2="308.2"/><g class="i"><path class="f" d="M383.48,311.64a6.76,6.76,0,0,1,0,10.05"/></g><polygon class="g" points="483.85 330.86 483.22 331.22 483.15 331.91 483.15 356.44 483.12 356.9 483.39 357.28 483.85 357.43 512.03 357.43 512.53 357.24 512.73 356.77 512.73 288.5 512.53 288.03 512.03 287.84 486.63 287.84 484.89 288.28 483.62 289.5 483.15 291.15 483.15 292.14 483.36 292.62 483.85 292.81 483.34 293.2 483.15 293.8 483.15 329.93 483.34 330.5 483.85 330.86"/><polygon class="g" points="460.54 330.92 457.87 331.42 455.62 332.86 454.1 335.01 453.58 337.55 453.58 350.8 454.1 353.34 455.62 355.49 457.87 356.93 460.54 357.43 482.11 357.43 482.85 357.14 483.15 356.44 483.15 331.92 482.85 331.21 482.11 330.92 460.54 330.92"/><line class="f" x1="482.11" y1="330.92" x2="460.54" y2="330.92"/><line class="f" x1="482.85" y1="331.21" x2="482.11" y2="330.92"/><line class="f" x1="483.15" y1="331.91" x2="482.85" y2="331.21"/><line class="f" x1="483.15" y1="356.44" x2="483.15" y2="331.91"/><line class="f" x1="482.85" y1="357.14" x2="483.15" y2="356.44"/><line class="f" x1="482.11" y1="357.43" x2="482.85" y2="357.14"/><line class="f" x1="460.54" y1="357.43" x2="482.11" y2="357.43"/><line class="f" x1="457.87" y1="356.93" x2="460.53" y2="357.43"/><line class="f" x1="455.61" y1="355.49" x2="457.87" y2="356.93"/><line class="f" x1="454.1" y1="353.34" x2="455.61" y2="355.49"/><line class="f" x1="453.58" y1="350.8" x2="454.1" y2="353.34"/><line class="f" x1="453.58" y1="337.55" x2="453.58" y2="350.81"/><line class="f" x1="454.1" y1="335.01" x2="453.58" y2="337.55"/><line class="f" x1="455.61" y1="332.86" x2="454.1" y2="335.01"/><line class="f" x1="457.87" y1="331.42" x2="455.61" y2="332.86"/><line class="f" x1="460.54" y1="330.92" x2="457.87" y2="331.42"/><line class="f" x1="483.15" y1="292.14" x2="483.15" y2="291.15"/><line class="f" x1="486.63" y1="287.84" x2="512.03" y2="287.84"/><line class="f" x1="512.73" y1="288.5" x2="512.73" y2="292.14"/><line class="f" x1="512.03" y1="292.81" x2="483.85" y2="292.81"/><line class="f" x1="512.73" y1="292.14" x2="512.73" y2="330.92"/><line class="f" x1="512.73" y1="330.92" x2="510.3" y2="330.92"/><line class="f" x1="483.15" y1="329.93" x2="483.15" y2="293.8"/><line class="f" x1="484.2" y1="292.81" x2="501.64" y2="292.81"/><line class="f" x1="501.64" y1="330.92" x2="484.2" y2="330.92"/><line class="f" x1="510.3" y1="292.81" x2="503.73" y2="292.81"/><line class="f" x1="503.73" y1="330.92" x2="510.3" y2="330.92"/><line class="f" x1="483.15" y1="353.12" x2="483.15" y2="356.77"/><line class="f" x1="483.85" y1="357.43" x2="512.03" y2="357.43"/><line class="f" x1="512.73" y1="356.77" x2="512.73" y2="353.12"/><line class="f" x1="512.73" y1="353.12" x2="512.73" y2="330.92"/><line class="f" x1="512.73" y1="330.92" x2="510.3" y2="330.92"/><line class="f" x1="483.15" y1="331.91" x2="483.15" y2="351.47"/><line class="f" x1="501.64" y1="330.92" x2="484.2" y2="330.92"/><line class="f" x1="501.64" y1="330.92" x2="510.3" y2="330.92"/><line class="f" x1="453.58" y1="337.55" x2="453.58" y2="350.81"/><line class="f" x1="460.54" y1="357.43" x2="482.11" y2="357.43"/><line class="f" x1="483.15" y1="356.44" x2="483.15" y2="331.91"/><line class="f" x1="482.11" y1="330.92" x2="460.54" y2="330.92"/><line class="f" x1="511.34" y1="331.91" x2="511.34" y2="356.44"/><line class="f" x1="511.34" y1="329.93" x2="511.34" y2="293.8"/><g class="i"><path class="f" d="M512,287.84a.68.68,0,0,1,.7.66"/><path class="f" d="M512.73,292.15a.68.68,0,0,1-.69.66"/><path class="f" d="M483.85,292.81a.68.68,0,0,1-.7-.66"/><path class="f" d="M483.15,293.8a1,1,0,0,1,1.05-1"/><path class="f" d="M484.2,330.92a1,1,0,0,1-1.05-1"/><path class="f" d="M483.85,357.43a.68.68,0,0,1-.7-.66"/><path class="f" d="M512.73,356.77a.68.68,0,0,1-.69.66"/><path class="f" d="M483.15,331.91a1,1,0,0,1,1.05-1"/><path class="f" d="M483.15,356.44a1,1,0,0,1-1,1"/><path class="f" d="M482.11,330.92a1,1,0,0,1,1,1"/></g><line class="f" x1="511.34" y1="356.44" x2="487.64" y2="356.44"/><g class="i"><path class="f" d="M507.29,331.88a17.93,17.93,0,0,1,.71,5c0,8.85-6.49,16.5-15.57,18.36"/><path class="f" d="M506.47,329.92a108.05,108.05,0,0,1,0-36.12"/><path class="f" d="M453.58,337.55a6.8,6.8,0,0,1,6.95-6.63"/><path class="f" d="M460.54,357.43a6.8,6.8,0,0,1-7-6.63"/><path class="f" d="M483.15,291.15a3.4,3.4,0,0,1,3.48-3.31"/></g><polygon class="g" points="450.17 243.18 453.05 245.39 455.27 248.27 456.67 251.62 457.14 255.22 463.89 251.33 465.17 250.06 465.64 248.32 465.17 246.58 461.68 240.57 460.41 239.29 458.66 238.83 456.92 239.29 450.17 243.18"/><polygon class="g" points="429.24 255.22 429.72 251.62 431.11 248.27 433.33 245.39 436.22 243.18 429.46 239.29 427.72 238.83 425.98 239.29 424.7 240.57 421.21 246.59 420.75 248.32 421.21 250.06 422.49 251.33 429.24 255.22"/><polygon class="g" points="450.17 267.25 446.8 268.64 443.19 269.12 439.58 268.64 436.22 267.25 436.22 275.02 436.69 276.76 437.96 278.03 439.71 278.5 446.68 278.5 448.42 278.03 449.7 276.76 450.17 275.02 450.17 267.25"/><polygon class="g" points="457.14 255.22 456.67 251.62 455.27 248.27 453.05 245.39 450.17 243.18 446.8 241.79 443.19 241.32 439.58 241.79 436.22 243.18 433.33 245.39 431.11 248.27 429.72 251.62 429.24 255.22 429.72 258.81 431.11 262.17 433.33 265.05 436.22 267.25 439.58 268.64 443.19 269.12 446.8 268.64 450.17 267.25 453.05 265.05 455.27 262.17 456.67 258.81 457.14 255.22"/><line class="f" x1="456.67" y1="258.81" x2="457.14" y2="255.22"/><line class="f" x1="455.27" y1="262.17" x2="456.67" y2="258.81"/><line class="f" x1="453.05" y1="265.04" x2="455.27" y2="262.17"/><line class="f" x1="450.17" y1="267.25" x2="453.05" y2="265.04"/><line class="f" x1="446.8" y1="268.64" x2="450.17" y2="267.25"/><line class="f" x1="443.19" y1="269.12" x2="446.8" y2="268.64"/><line class="f" x1="439.58" y1="268.64" x2="443.19" y2="269.12"/><line class="f" x1="436.22" y1="267.25" x2="439.58" y2="268.64"/><line class="f" x1="433.33" y1="265.04" x2="436.22" y2="267.25"/><line class="f" x1="431.11" y1="262.17" x2="433.33" y2="265.04"/><line class="f" x1="429.72" y1="258.81" x2="431.11" y2="262.17"/><line class="f" x1="429.24" y1="255.22" x2="429.72" y2="258.81"/><line class="f" x1="429.72" y1="251.62" x2="429.24" y2="255.22"/><line class="f" x1="431.11" y1="248.27" x2="429.72" y2="251.62"/><line class="f" x1="433.33" y1="245.39" x2="431.11" y2="248.27"/><line class="f" x1="436.22" y1="243.18" x2="433.33" y2="245.39"/><line class="f" x1="439.58" y1="241.79" x2="436.22" y2="243.18"/><line class="f" x1="443.19" y1="241.32" x2="439.58" y2="241.79"/><line class="f" x1="446.8" y1="241.79" x2="443.19" y2="241.32"/><line class="f" x1="450.17" y1="243.18" x2="446.8" y2="241.79"/><line class="f" x1="453.05" y1="245.39" x2="450.17" y2="243.18"/><line class="f" x1="455.27" y1="248.27" x2="453.05" y2="245.39"/><line class="f" x1="456.67" y1="251.62" x2="455.27" y2="248.27"/><line class="f" x1="457.14" y1="255.22" x2="456.67" y2="251.62"/><g class="i"><path class="f" d="M443.19,269.11a13.9,13.9,0,1,1,0-27.79"/><path class="f" d="M443.19,241.32a13.9,13.9,0,1,1,0,27.8"/></g><line class="f" x1="460.17" y1="241.43" x2="463.66" y2="247.45"/><line class="f" x1="463.89" y1="251.33" x2="457.14" y2="255.22"/><line class="f" x1="461.68" y1="240.57" x2="465.17" y2="246.58"/><line class="f" x1="450.17" y1="243.18" x2="456.92" y2="239.29"/><line class="f" x1="422.72" y1="247.45" x2="426.21" y2="241.43"/><line class="f" x1="429.47" y1="239.29" x2="436.22" y2="243.18"/><line class="f" x1="421.21" y1="246.58" x2="424.7" y2="240.57"/><line class="f" x1="429.24" y1="255.22" x2="422.49" y2="251.33"/><line class="f" x1="446.68" y1="276.76" x2="439.71" y2="276.76"/><line class="f" x1="436.22" y1="275.02" x2="436.22" y2="267.25"/><line class="f" x1="446.68" y1="278.5" x2="439.71" y2="278.5"/><line class="f" x1="450.17" y1="267.25" x2="450.17" y2="275.02"/><g class="i"><path class="f" d="M463.66,247.45a1.8,1.8,0,0,1,.23.87,1.74,1.74,0,0,1-.87,1.51"/><path class="f" d="M457.79,240.8a1.76,1.76,0,0,1,2.38.63"/><path class="f" d="M465.17,246.59a3.38,3.38,0,0,1,.47,1.73,3.47,3.47,0,0,1-1.75,3"/><path class="f" d="M456.92,239.29a3.54,3.54,0,0,1,1.74-.46,3.48,3.48,0,0,1,3,1.73"/><path class="f" d="M426.21,241.43a1.76,1.76,0,0,1,1.51-.87,1.65,1.65,0,0,1,.87.24"/><path class="f" d="M423.36,249.83a1.74,1.74,0,0,1-.87-1.51,1.8,1.8,0,0,1,.23-.87"/><path class="f" d="M424.7,240.56a3.51,3.51,0,0,1,4.76-1.27"/><path class="f" d="M422.49,251.33a3.48,3.48,0,0,1-1.28-4.74"/><path class="f" d="M439.71,276.76A1.74,1.74,0,0,1,438,275"/><path class="f" d="M448.42,275a1.74,1.74,0,0,1-1.74,1.74"/><path class="f" d="M439.71,278.5a3.48,3.48,0,0,1-3.49-3.48"/><path class="f" d="M450.17,275a3.49,3.49,0,0,1-3.49,3.48"/></g><polygon class="g" points="239.92 197.37 258.02 197.37 258.39 197.52 258.54 197.89 258.54 212.15 258.39 212.52 258.02 212.68 239.92 212.68 239.55 212.52 239.4 212.15 239.4 197.89 239.55 197.52 239.92 197.37"/><line class="f" x1="239.92" y1="197.37" x2="258.02" y2="197.37"/><g class="i"><path class="f" d="M258,197.37a.52.52,0,0,1,.52.52"/></g><line class="f" x1="258.54" y1="197.89" x2="258.54" y2="212.15"/><g class="i"><path class="f" d="M258.54,212.15a.52.52,0,0,1-.52.53"/></g><line class="f" x1="258.02" y1="212.68" x2="239.92" y2="212.68"/><g class="i"><path class="f" d="M239.92,212.68a.52.52,0,0,1-.52-.53"/></g><line class="f" x1="239.4" y1="212.15" x2="239.4" y2="197.89"/><g class="i"><path class="f" d="M239.4,197.89a.52.52,0,0,1,.52-.52"/></g><line class="f" x1="240.97" y1="201.19" x2="256.97" y2="201.19"/><line class="f" x1="257.5" y1="201.71" x2="257.5" y2="211.11"/><line class="f" x1="256.97" y1="211.63" x2="240.97" y2="211.63"/><line class="f" x1="240.44" y1="211.11" x2="240.44" y2="201.71"/><g class="i"><path class="f" d="M257,201.19a.53.53,0,0,1,.53.53"/><path class="f" d="M257.5,211.11a.52.52,0,0,1-.53.52"/><path class="f" d="M241,211.63a.52.52,0,0,1-.53-.52"/><path class="f" d="M240.44,201.71a.53.53,0,0,1,.53-.52"/></g><polygon class="g" points="248.1 199.45 248.24 200.91 248.35 201.24 248.58 203.09 248.71 203.33 248.97 203.43 249.23 203.33 249.36 203.09 249.59 201.24 249.7 200.91 249.84 199.45 249.59 198.84 248.97 198.58 248.35 198.84 248.1 199.45"/><g class="i"><path class="f" d="M248.1,199.45a.87.87,0,1,1,1.74,0"/></g><line class="f" x1="249.7" y1="200.91" x2="249.84" y2="199.45"/><g class="i"><path class="f" d="M249.7,200.91a.76.76,0,0,1-.11.33"/></g><line class="f" x1="249.36" y1="203.09" x2="249.59" y2="201.25"/><g class="i"><path class="f" d="M249.36,203.09a.39.39,0,0,1-.78,0"/></g><line class="f" x1="248.35" y1="201.24" x2="248.58" y2="203.09"/><g class="i"><path class="f" d="M248.35,201.24a.72.72,0,0,1-.11-.33"/></g><line class="f" x1="248.1" y1="199.45" x2="248.24" y2="200.91"/><line class="f" x1="249.44" y1="200.32" x2="249.44" y2="200.84"/><line class="f" x1="248.5" y1="200.84" x2="248.5" y2="200.32"/><line class="f" x1="248.5" y1="200.32" x2="249.44" y2="200.32"/><g class="i"><path class="f" d="M249.44,200.84a.47.47,0,0,1-.94,0"/><path class="f" d="M249.59,201.24a.74.74,0,0,1-1.24,0"/></g><rect class="d" x="566.67" y="213.02" width="20.88" height="43.5"/><line class="f" x1="587.54" y1="256.52" x2="587.54" y2="213.02"/><line class="f" x1="587.54" y1="213.02" x2="566.67" y2="213.02"/><line class="f" x1="566.67" y1="213.02" x2="566.67" y2="256.52"/><line class="f" x1="566.67" y1="256.52" x2="587.54" y2="256.52"/><line class="f" x1="577.1" y1="254.35" x2="577.1" y2="215.2"/><line class="f" x1="583.25" y1="252.33" x2="570.74" y2="248.65"/><line class="f" x1="583.87" y1="248.18" x2="572.24" y2="246.66"/><line class="f" x1="569.58" y1="242.52" x2="582.35" y2="241.26"/><line class="f" x1="571.26" y1="236.1" x2="582.35" y2="237.8"/><line class="f" x1="570.62" y1="233.76" x2="584.29" y2="233.76"/><line class="f" x1="570.56" y1="227.15" x2="584.07" y2="228.72"/><line class="f" x1="570.78" y1="224.68" x2="583.12" y2="224.68"/><line class="f" x1="570.66" y1="218.15" x2="583.31" y2="216.9"/><line class="f" x1="571.52" y1="219.72" x2="582.22" y2="221"/><rect class="d" x="516.91" y="192.15" width="49.76" height="20.88"/><line class="f" x1="566.67" y1="192.15" x2="516.91" y2="192.15"/><line class="f" x1="516.91" y1="192.15" x2="516.91" y2="213.02"/><line class="f" x1="516.91" y1="213.02" x2="566.67" y2="213.02"/><line class="f" x1="566.67" y1="213.02" x2="566.67" y2="192.15"/><line class="f" x1="564.18" y1="202.59" x2="519.39" y2="202.59"/><line class="f" x1="561.87" y1="196.44" x2="557.66" y2="208.95"/><line class="f" x1="557.12" y1="195.82" x2="555.38" y2="207.46"/><line class="f" x1="550.65" y1="210.11" x2="549.21" y2="197.34"/><line class="f" x1="543.3" y1="208.44" x2="545.25" y2="197.34"/><line class="f" x1="540.63" y1="209.07" x2="540.63" y2="195.4"/><line class="f" x1="533.07" y1="209.13" x2="534.87" y2="195.62"/><line class="f" x1="530.24" y1="208.91" x2="530.24" y2="196.57"/><line class="f" x1="522.77" y1="209.03" x2="521.34" y2="196.38"/><line class="f" x1="524.57" y1="208.17" x2="526.03" y2="197.47"/><rect class="d" x="350.92" y="312.37" width="20.88" height="52.37"/><line class="f" x1="371.8" y1="364.74" x2="371.8" y2="312.37"/><line class="f" x1="371.8" y1="312.37" x2="350.92" y2="312.37"/><line class="f" x1="350.92" y1="312.37" x2="350.92" y2="364.74"/><line class="f" x1="350.92" y1="364.74" x2="371.8" y2="364.74"/><line class="f" x1="361.36" y1="362.12" x2="361.36" y2="314.99"/><line class="f" x1="367.51" y1="359.69" x2="355" y2="355.26"/><line class="f" x1="368.13" y1="354.69" x2="356.49" y2="352.87"/><line class="f" x1="353.84" y1="347.88" x2="366.61" y2="346.37"/><line class="f" x1="355.51" y1="340.15" x2="366.61" y2="342.2"/><line class="f" x1="354.87" y1="337.34" x2="368.54" y2="337.34"/><line class="f" x1="354.81" y1="329.38" x2="368.33" y2="331.27"/><line class="f" x1="355.04" y1="326.4" x2="367.38" y2="326.4"/><line class="f" x1="354.92" y1="318.55" x2="367.57" y2="317.04"/><line class="f" x1="355.77" y1="320.43" x2="366.48" y2="321.97"/><rect class="d" x="350.92" y="260.7" width="20.88" height="51.67"/><line class="f" x1="371.8" y1="312.37" x2="371.8" y2="260.7"/><line class="f" x1="371.8" y1="260.7" x2="350.92" y2="260.7"/><line class="f" x1="350.92" y1="260.7" x2="350.92" y2="312.37"/><line class="f" x1="350.92" y1="312.37" x2="371.8" y2="312.37"/><line class="f" x1="361.36" y1="309.79" x2="361.36" y2="263.28"/><line class="f" x1="367.51" y1="307.39" x2="355" y2="303.02"/><line class="f" x1="368.13" y1="302.46" x2="356.49" y2="300.65"/><line class="f" x1="353.84" y1="295.73" x2="366.61" y2="294.25"/><line class="f" x1="355.51" y1="288.11" x2="366.61" y2="290.13"/><line class="f" x1="354.87" y1="285.33" x2="368.54" y2="285.33"/><line class="f" x1="354.81" y1="277.48" x2="368.33" y2="279.35"/><line class="f" x1="355.04" y1="274.54" x2="367.38" y2="274.54"/><line class="f" x1="354.92" y1="266.79" x2="367.57" y2="265.3"/><line class="f" x1="355.77" y1="268.65" x2="366.48" y2="270.17"/><polygon class="g" points="266.72 197.37 266.72 208.85 266.98 210.57 267.76 212.13 268.98 213.37 270.95 214.41 273.15 214.76 275.35 214.41 277.33 213.37 278.55 212.13 279.32 210.57 279.59 208.85 279.59 197.37 266.72 197.37"/><line class="f" x1="279.59" y1="197.37" x2="279.59" y2="208.85"/><line class="f" x1="279.59" y1="197.37" x2="266.72" y2="197.37"/><line class="f" x1="266.72" y1="197.37" x2="266.72" y2="208.85"/><line class="f" x1="277.5" y1="201.54" x2="277.5" y2="208.85"/><line class="f" x1="268.8" y1="201.54" x2="268.8" y2="208.85"/><line class="f" x1="268.8" y1="201.54" x2="277.5" y2="201.54"/><g class="i"><path class="f" d="M279.59,208.85a5.66,5.66,0,0,1-2.26,4.52"/><path class="f" d="M269,213.37a5.63,5.63,0,0,1-2.26-4.52"/><path class="f" d="M277.33,213.37a7,7,0,0,1-8.35,0"/><path class="f" d="M269,213.37a5.63,5.63,0,0,1-2.26-4.52"/><path class="f" d="M273.15,214.76a7,7,0,0,1-4.17-1.39"/><path class="f" d="M270.23,211.7a3.56,3.56,0,0,1-1.43-2.85"/><path class="f" d="M276.08,211.7a4.9,4.9,0,0,1-5.85,0"/><path class="f" d="M277.5,208.85a3.58,3.58,0,0,1-1.42,2.85"/></g><rect class="d" x="563.19" y="303.15" width="24.36" height="41.76"/><polygon class="g" points="563.19 331.4 563.19 316.65 553.79 316.65 552.05 317.12 550.78 318.39 550.31 320.13 550.31 327.92 550.78 329.66 552.05 330.93 553.79 331.4 563.19 331.4"/><line class="f" x1="587.54" y1="303.15" x2="563.19" y2="303.15"/><line class="f" x1="563.19" y1="303.15" x2="563.19" y2="344.9"/><line class="f" x1="563.19" y1="344.9" x2="587.54" y2="344.9"/><line class="f" x1="587.54" y1="344.9" x2="587.54" y2="303.15"/><line class="f" x1="550.31" y1="320.13" x2="550.31" y2="327.92"/><line class="f" x1="553.79" y1="331.4" x2="563.18" y2="331.4"/><line class="f" x1="552.05" y1="320.13" x2="552.05" y2="327.92"/><line class="f" x1="563.19" y1="316.65" x2="553.79" y2="316.65"/><g class="i"><path class="f" d="M550.31,320.13a3.48,3.48,0,0,1,3.48-3.48"/><path class="f" d="M553.79,331.4a3.48,3.48,0,0,1-3.48-3.48"/><path class="f" d="M552.05,320.13a1.73,1.73,0,0,1,1.74-1.73"/><path class="f" d="M553.79,329.66a1.74,1.74,0,0,1-1.74-1.74"/></g><line class="f" x1="364.84" y1="192.15" x2="357.88" y2="192.15"/><line class="f" x1="354.06" y1="192.15" x2="353.27" y2="192.15"/><line class="f" x1="349.45" y1="192.15" x2="348.66" y2="192.15"/><line class="f" x1="344.83" y1="192.15" x2="337.88" y2="192.15"/><line class="f" x1="334.05" y1="192.15" x2="333.53" y2="192.15"/><line class="f" x1="333.53" y1="192.15" x2="326.57" y2="192.15"/><line class="f" x1="531.87" y1="256.52" x2="538.83" y2="256.52"/><line class="f" x1="542.66" y1="256.52" x2="543.44" y2="256.52"/><line class="f" x1="547.27" y1="256.52" x2="548.05" y2="256.52"/><line class="f" x1="551.88" y1="256.52" x2="556.23" y2="256.52"/><line class="f" x1="556.23" y1="256.52" x2="563.19" y2="256.52"/><line class="f" x1="563.19" y1="258.96" x2="556.23" y2="258.96"/><line class="f" x1="552.4" y1="258.96" x2="551.62" y2="258.96"/><line class="f" x1="547.79" y1="258.96" x2="547.01" y2="258.96"/><line class="f" x1="543.18" y1="258.96" x2="538.83" y2="258.96"/><line class="f" x1="538.83" y1="258.96" x2="531.87" y2="258.96"/><line class="f" x1="456.08" y1="204.53" x2="456.08" y2="198.7"/><line class="f" x1="456.08" y1="198.7" x2="458.45" y2="200.61"/><line class="f" x1="458.45" y1="200.61" x2="460.82" y2="198.7"/><line class="f" x1="460.82" y1="198.7" x2="460.82" y2="204.53"/><line class="f" x1="523.17" y1="378.66" x2="523.17" y2="432.59"/><line class="f" x1="523.17" y1="432.59" x2="197.82" y2="432.59"/><line class="f" x1="524.91" y1="378.66" x2="524.91" y2="434.33"/><line class="f" x1="524.91" y1="434.33" x2="197.82" y2="434.33"/><line class="f" x1="194.34" y1="183.79" x2="194.34" y2="378.66"/><line class="f" x1="194.34" y1="378.66" x2="197.82" y2="378.66"/><line class="f" x1="197.82" y1="378.66" x2="197.82" y2="434.33"/><line class="f" x1="197.82" y1="434.33" x2="524.91" y2="434.33"/><line class="f" x1="524.91" y1="434.33" x2="524.91" y2="378.66"/><line class="f" x1="524.91" y1="378.66" x2="596.24" y2="378.66"/><line class="f" x1="596.24" y1="378.66" x2="596.24" y2="183.79"/><line class="f" x1="596.24" y1="183.79" x2="364.5" y2="183.79"/><line class="f" x1="364.5" y1="183.79" x2="290.38" y2="183.79"/><line class="f" x1="290.38" y1="183.79" x2="194.34" y2="183.79"/><path class="j" d="M413.72,394.27v7H413V394.9h-1.65v-.63Z"/><path class="j" d="M415.4,400.76a.53.53,0,0,1,.53-.54.54.54,0,0,1,.54.54.55.55,0,0,1-.54.55A.54.54,0,0,1,415.4,400.76Z"/><path class="j" d="M417.41,397.76c0-2.23,1.16-3.55,2.78-3.55s2.8,1.32,2.8,3.55-1.18,3.56-2.8,3.56S417.41,400,417.41,397.76Zm4.84,0c0-1.87-.84-2.9-2.06-2.9s-2.05,1-2.05,2.9.83,2.9,2.05,2.9S422.25,399.63,422.25,397.76Z"/><path class="j" d="M428.89,394.27v.5L426,401.26h-.78l2.88-6.36h-3.59v1.31h-.71v-1.94Z"/><path class="j" d="M249.51,227.69v7h-.71v-6.36h-1.65v-.63Z"/><path class="j" d="M251.2,234.18a.53.53,0,0,1,.52-.54.54.54,0,0,1,.54.54.55.55,0,0,1-.54.55A.54.54,0,0,1,251.2,234.18Z"/><path class="j" d="M253.21,231.18c0-2.23,1.17-3.55,2.78-3.55s2.8,1.32,2.8,3.55-1.18,3.56-2.8,3.56S253.21,233.41,253.21,231.18Zm4.84,0c0-1.87-.84-2.9-2.06-2.9s-2.06,1-2.06,2.9.84,2.9,2.06,2.9S258.05,233.05,258.05,231.18Z"/><path class="j" d="M265.08,232.59a2.18,2.18,0,0,1-2.39,2.15c-1.85,0-2.86-1.29-2.86-3.5,0-2.38,1.29-3.61,3.19-3.61a3.21,3.21,0,0,1,1.66.37l-.29.58a2.45,2.45,0,0,0-1.36-.33c-1.51,0-2.47,1-2.47,2.87a4,4,0,0,0,0,.57,2.21,2.21,0,0,1,2.13-1.2A2.12,2.12,0,0,1,265.08,232.59Zm-.71,0c0-.92-.68-1.51-1.76-1.51a1.62,1.62,0,0,0-1.8,1.53c0,.77.64,1.5,1.85,1.5A1.53,1.53,0,0,0,264.37,232.61Z"/><path class="j" d="M299.81,297.74v7h-.72v-6.36h-1.65v-.64Z"/><path class="j" d="M301.49,304.24a.52.52,0,0,1,.52-.54.54.54,0,0,1,.55.54.55.55,0,0,1-.55.55A.53.53,0,0,1,301.49,304.24Z"/><path class="j" d="M303.5,301.24c0-2.23,1.17-3.55,2.78-3.55s2.8,1.32,2.8,3.55-1.18,3.56-2.8,3.56S303.5,303.47,303.5,301.24Zm4.84,0c0-1.87-.84-2.9-2.06-2.9s-2.06,1-2.06,2.9.84,2.9,2.06,2.9S308.34,303.11,308.34,301.24Z"/><path class="j" d="M314.86,302.68c0,1.19-.83,2.12-2.54,2.12a3.59,3.59,0,0,1-2.5-.9l.35-.57a3,3,0,0,0,2.14.81c1.19,0,1.82-.58,1.82-1.43s-.56-1.46-2.34-1.46h-1.48l.36-3.51h3.82v.64H311.3l-.24,2.23H312C314.06,300.61,314.86,301.44,314.86,302.68Z"/><path class="j" d="M536.91,288.36v7h-.72V289h-1.64v-.64Z"/><path class="j" d="M538.6,294.86a.53.53,0,0,1,.53-.54.54.54,0,0,1,.54.54.55.55,0,0,1-.54.55A.54.54,0,0,1,538.6,294.86Z"/><path class="j" d="M540.61,291.86c0-2.23,1.16-3.55,2.78-3.55s2.8,1.32,2.8,3.55-1.18,3.56-2.8,3.56S540.61,294.09,540.61,291.86Zm4.84,0c0-1.87-.84-2.9-2.06-2.9s-2,1-2,2.9.84,2.9,2,2.9S545.45,293.73,545.45,291.86Z"/><path class="j" d="M553.17,293.52h-1.4v1.84h-.72v-1.84h-3.94V293l3.7-4.64h.8L548,292.88h3v-1.62h.7v1.62h1.4Z"/><path class="j" d="M536.91,227.69v7h-.72v-6.36h-1.64v-.63Z"/><path class="j" d="M538.6,234.18a.53.53,0,0,1,.53-.54.54.54,0,0,1,.54.54.55.55,0,0,1-.54.55A.54.54,0,0,1,538.6,234.18Z"/><path class="j" d="M540.61,231.18c0-2.23,1.16-3.55,2.78-3.55s2.8,1.32,2.8,3.55-1.18,3.56-2.8,3.56S540.61,233.41,540.61,231.18Zm4.84,0c0-1.87-.84-2.9-2.06-2.9s-2,1-2,2.9.84,2.9,2,2.9S545.45,233.05,545.45,231.18Z"/><path class="j" d="M551.76,232.67c0,1.17-.85,2.07-2.54,2.07a3.63,3.63,0,0,1-2.51-.9l.35-.57a3,3,0,0,0,2.16.81c1.16,0,1.8-.54,1.8-1.41s-.59-1.39-1.89-1.39h-.49v-.53l1.93-2.43H547v-.63h4.49v.5l-2,2.49C551,230.76,551.76,231.55,551.76,232.67Z"/><path class="j" d="M417.15,297.74v7h-.72v-6.36h-1.64v-.64Z"/><path class="j" d="M418.84,304.24a.53.53,0,1,1,1.06,0,.53.53,0,1,1-1.06,0Z"/><path class="j" d="M420.85,301.24c0-2.23,1.16-3.55,2.78-3.55s2.8,1.32,2.8,3.55-1.18,3.56-2.8,3.56S420.85,303.47,420.85,301.24Zm4.84,0c0-1.87-.84-2.9-2.06-2.9s-2.05,1-2.05,2.9.83,2.9,2.05,2.9S425.69,303.11,425.69,301.24Z"/><path class="j" d="M432.23,304.1v.64h-4.9v-.51l2.9-2.85c.79-.78.94-1.25.94-1.73,0-.81-.57-1.31-1.64-1.31a2.37,2.37,0,0,0-1.9.78l-.51-.44a3.12,3.12,0,0,1,2.47-1c1.42,0,2.32.71,2.32,1.88a2.88,2.88,0,0,1-1.15,2.19l-2.37,2.34Z"/><path class="j" d="M337.78,227.69v7h-.72v-6.36h-1.64v-.63Z"/><path class="j" d="M339.47,234.18a.53.53,0,0,1,.53-.54.54.54,0,0,1,.54.54.55.55,0,0,1-.54.55A.54.54,0,0,1,339.47,234.18Z"/><path class="j" d="M341.48,231.18c0-2.23,1.16-3.55,2.78-3.55s2.8,1.32,2.8,3.55-1.18,3.56-2.8,3.56S341.48,233.41,341.48,231.18Zm4.84,0c0-1.87-.84-2.9-2.06-2.9s-2.05,1-2.05,2.9.84,2.9,2.05,2.9S346.32,233.05,346.32,231.18Z"/><path class="j" d="M350,227.69v7h-.71v-6.36h-1.65v-.63Z"/></svg>