<svg xmlns="http://www.w3.org/2000/svg" xmlns:xlink="http://www.w3.org/1999/xlink" viewBox="0 0 790.58 618.13"><defs><style>.a,.k{fill:none;}.b{clip-path:url(#a);}.c{clip-path:url(#d);}.d{clip-path:url(#g);}.e{clip-path:url(#j);}.f{fill:#595a5c;}.g{fill:#b6906c;}.h,.m{fill:#fff;}.i{fill:#231f20;}.j{fill:url(#m);}.k{stroke:#000;stroke-linecap:round;stroke-linejoin:round;stroke-width:0.34px;}.l{clip-path:url(#n);}.m,.n{fill-rule:evenodd;}.o{fill:#58595b;}</style><clipPath id="a"><rect class="a" y="59.93" width="90" height="59.93"/></clipPath><clipPath id="d"><rect class="a" x="90" y="59.93" width="90" height="59.93"/></clipPath><clipPath id="g"><rect class="a" width="90" height="59.93"/></clipPath><clipPath id="j"><rect class="a" x="90" width="90" height="59.93"/></clipPath><pattern id="m" width="180" height="119.85" patternTransform="matrix(0, -3.44, -3.44, 0, 37257.81, 15667.68)" patternUnits="userSpaceOnUse" viewBox="0 0 180 119.85"><rect class="a" width="180" height="119.85"/><g class="b"><g class="b"><g class="b"><image width="376" height="251" transform="matrix(0.24, 0, 0, -0.24, -0.2, 120.05)" xlink:href="C402_pudorys1.png"/></g></g></g><g class="c"><g class="c"><g class="c"><image width="376" height="251" transform="matrix(0.24, 0, 0, -0.24, 89.8, 120.05)" xlink:href="C402_pudorys2.png"/></g></g></g><g class="d"><g class="d"><g class="d"><image width="376" height="251" transform="matrix(0.24, 0, 0, -0.24, -0.2, 60.05)" xlink:href="C402_pudorys3.png"/></g></g></g><g class="e"><g class="e"><g class="e"><image width="376" height="251" transform="matrix(0.24, 0, 0, -0.24, 89.8, 60.05)" xlink:href="C402_pudorys4.png"/></g></g></g></pattern><clipPath id="n"><polygon class="a" points="95.81 212.68 95.81 262.59 91.68 262.59 91.68 405.45 471.02 405.45 690.64 405.45 698.9 405.45 698.9 262.59 694.77 262.59 694.77 212.68 95.81 212.68"/></clipPath></defs><path class="f" d="M55.31,597.13H57.1V609.9H55.31Zm.92,6.11h4.09a1.89,1.89,0,0,0,1-.27,1.82,1.82,0,0,0,.68-.77,2.67,2.67,0,0,0,.24-1.16,2.7,2.7,0,0,0-.24-1.16,1.82,1.82,0,0,0-1.7-1H56.23v-1.7h4a4.09,4.09,0,0,1,2,.48A3.45,3.45,0,0,1,63.62,599a4.64,4.64,0,0,1,0,4.11,3.34,3.34,0,0,1-1.35,1.36,4,4,0,0,1-2,.49h-4Z"/><path class="f" d="M67.7,606.33a2.07,2.07,0,0,0,.49,1.48,1.76,1.76,0,0,0,1.37.52,1.89,1.89,0,0,0,1.37-.46,1.79,1.79,0,0,0,.48-1.33l.12,1.91A2.58,2.58,0,0,1,69.06,610a2.89,2.89,0,0,1-2.33-1,4.08,4.08,0,0,1-.82-2.73v-5.55H67.7Zm.22-7.86a1.93,1.93,0,0,1-.56-1.5,2.07,2.07,0,0,1,.56-1.57,2.56,2.56,0,0,1,3.18,0,2.08,2.08,0,0,1,.57,1.56,1.94,1.94,0,0,1-.57,1.5,2.65,2.65,0,0,1-3.18,0Zm2.26-.86a.94.94,0,0,0,.24-.68,1,1,0,0,0-.24-.7.91.91,0,0,0-.67-.25.92.92,0,0,0-.67.25,1,1,0,0,0-.23.7,1,1,0,0,0,.23.68.92.92,0,0,0,.67.24A.9.9,0,0,0,70.18,597.61Zm1.23,3.17h1.78v9.12H71.41Z"/><path class="f" d="M77.1,609.63A2.82,2.82,0,0,1,76,608.36a5.08,5.08,0,0,1-.36-2v-2a5.05,5.05,0,0,1,.36-2,2.71,2.71,0,0,1,1-1.27,3,3,0,0,1,1.65-.44,2.71,2.71,0,0,1,1.48.42,3.22,3.22,0,0,1,1.09,1.19l-.18,1.86a2.19,2.19,0,0,0-.22-1,1.48,1.48,0,0,0-.61-.63,2,2,0,0,0-1-.21,1.71,1.71,0,0,0-1.37.55,2.26,2.26,0,0,0-.49,1.56v2a2.19,2.19,0,0,0,.49,1.54,1.74,1.74,0,0,0,1.37.54,1.93,1.93,0,0,0,1-.23,1.45,1.45,0,0,0,.61-.64,2.25,2.25,0,0,0,.22-1l.12,1.92a2.66,2.66,0,0,1-.89,1.14,2.56,2.56,0,0,1-1.53.45A3.19,3.19,0,0,1,77.1,609.63Zm4-12.5H82.9V609.9H81.11Z"/><path class="f" d="M87.09,609.57a3.09,3.09,0,0,1-1.29-1.36,4.85,4.85,0,0,1-.44-2.15v-1.48a4.71,4.71,0,0,1,.44-2.12,3.12,3.12,0,0,1,1.29-1.35,4.71,4.71,0,0,1,4.06,0,3.12,3.12,0,0,1,1.29,1.35,4.71,4.71,0,0,1,.44,2.12v1.51a4.79,4.79,0,0,1-.44,2.13,3.12,3.12,0,0,1-1.29,1.35,4.62,4.62,0,0,1-4.06,0Zm3.49-1.83a2.43,2.43,0,0,0,.51-1.65v-1.51a2.43,2.43,0,0,0-.51-1.65,1.88,1.88,0,0,0-1.46-.58,1.85,1.85,0,0,0-1.45.58,2.38,2.38,0,0,0-.52,1.65v1.51a2.38,2.38,0,0,0,.52,1.65,1.82,1.82,0,0,0,1.45.59A1.85,1.85,0,0,0,90.58,607.74Z"/><path class="f" d="M95.43,600.78h1.79v9.12H95.43Zm4.42,1.72a2.16,2.16,0,0,0-.83-.15,1.83,1.83,0,0,0-1.33.47,1.79,1.79,0,0,0-.47,1.31L97,602.37a3.32,3.32,0,0,1,1.09-1.27,2.58,2.58,0,0,1,1.48-.45,3.39,3.39,0,0,1,1.13.18,2.62,2.62,0,0,1,.88.53l-1.17,1.58A1.56,1.56,0,0,0,99.85,602.5Z"/><path class="f" d="M102.15,600.78H104l2.81,7.93-1,1.94Zm8.07,0L106.34,612a2.6,2.6,0,0,1-.56,1,1.87,1.87,0,0,1-.84.52,4,4,0,0,1-1.23.16h-.36V612h.36a1.46,1.46,0,0,0,.8-.2,1.74,1.74,0,0,0,.51-.7l3.38-10.31Z"/><path class="f" d="M113.51,609.88a5.76,5.76,0,0,1-1.32-.48,4.89,4.89,0,0,1-1.13-.79l1.06-1.31a5.86,5.86,0,0,0,1.47.85,4.18,4.18,0,0,0,1.44.28,3.11,3.11,0,0,0,1.6-.33,1.1,1.1,0,0,0,.53-1,.79.79,0,0,0-.29-.66,1.66,1.66,0,0,0-.72-.29c-.29,0-.69-.1-1.22-.14h-.15l-.14,0h-.15a6.45,6.45,0,0,1-1.5-.26,2,2,0,0,1-1-.7,2.38,2.38,0,0,1-.41-1.49,3.07,3.07,0,0,1,.39-1.61,2.41,2.41,0,0,1,1.18-1,5.29,5.29,0,0,1,2-.32,6.38,6.38,0,0,1,2.6.52,6.16,6.16,0,0,1,1.13.66l-1.08,1.31a5.59,5.59,0,0,0-1.35-.66,4,4,0,0,0-1.3-.22,2.44,2.44,0,0,0-1.37.31,1.08,1.08,0,0,0-.46.94.64.64,0,0,0,.26.55,1.72,1.72,0,0,0,.66.25c.26,0,.64.07,1.12.1h.34a7.67,7.67,0,0,1,1.63.25,2.24,2.24,0,0,1,1.13.77,2.62,2.62,0,0,1,.45,1.65,2.92,2.92,0,0,1-.42,1.63,2.54,2.54,0,0,1-1.27,1A5.88,5.88,0,0,1,115,610,7.38,7.38,0,0,1,113.51,609.88Z"/><path class="f" d="M126,597.13h1.8V609.9H126Zm2.6,12.5a2.39,2.39,0,0,1-.93-1.16l.13-1.91a2.22,2.22,0,0,0,.21,1,1.48,1.48,0,0,0,.61.63,1.93,1.93,0,0,0,1,.22,1.74,1.74,0,0,0,1.37-.54,2.18,2.18,0,0,0,.49-1.53v-2a2.26,2.26,0,0,0-.49-1.56,1.71,1.71,0,0,0-1.37-.55,2,2,0,0,0-1,.21,1.36,1.36,0,0,0-.61.62,2.12,2.12,0,0,0-.21,1l-.19-1.76a3.37,3.37,0,0,1,1.08-1.24,2.67,2.67,0,0,1,1.49-.43,3,3,0,0,1,1.65.43,2.9,2.9,0,0,1,1.06,1.27,5.1,5.1,0,0,1,.36,2v2a4.94,4.94,0,0,1-.37,2,2.79,2.79,0,0,1-1.08,1.26,3.25,3.25,0,0,1-1.71.44A2.73,2.73,0,0,1,128.57,609.63Z"/><path class="f" d="M134.46,600.78h1.82l2.81,7.93-1,1.94Zm8.07,0L138.65,612a2.6,2.6,0,0,1-.56,1,1.87,1.87,0,0,1-.84.52,4,4,0,0,1-1.23.16h-.36V612H136a1.46,1.46,0,0,0,.8-.2,1.74,1.74,0,0,0,.51-.7l3.37-10.31Z"/><path class="f" d="M143.57,600.78h4.12v1.62h-4.12Zm1.46,8.56a2.77,2.77,0,0,1-.52-1.81v-9.4h1.8v9.42a.84.84,0,0,0,.13.51.46.46,0,0,0,.39.18h.86V610h-1A2,2,0,0,1,145,609.34Z"/><path class="f" d="M151.94,606.33a2.07,2.07,0,0,0,.49,1.48,1.76,1.76,0,0,0,1.37.52,1.91,1.91,0,0,0,1.37-.46,1.79,1.79,0,0,0,.48-1.33l.12,1.91A2.58,2.58,0,0,1,153.3,610a2.89,2.89,0,0,1-2.33-1,4.08,4.08,0,0,1-.82-2.73v-5.55h1.79Zm3.71-5.55h1.78v9.12h-1.78Z"/><rect class="g" x="612.92" y="591.68" width="35.43" height="2.83"/><path class="h" d="M648.48,594.64H612.79v-3.08h35.69ZM613,594.39h35.19v-2.58H613Z"/><rect class="g" x="612.92" y="601.6" width="70.74" height="2.83"/><path class="h" d="M683.78,604.56h-71v-3.08h71ZM613,604.31h70.49v-2.58H613Z"/><rect class="g" x="612.92" y="612.72" width="177.16" height="2.84"/><path class="h" d="M790.21,615.68H612.79V612.6H790.21ZM613,615.43H790v-2.58H613Z"/><path class="i" d="M587.26,596.28h-.8v-4.82l-.81.5v-.83l.81-.53h.8Z"/><path class="i" d="M589,595.91a1.67,1.67,0,0,1-.41-1.19v-2.58A1.65,1.65,0,0,1,589,591a2,2,0,0,1,2.42,0,1.65,1.65,0,0,1,.41,1.19v2.58a1.65,1.65,0,0,1-.41,1.19,2,2,0,0,1-2.42,0Zm1.83-.55a.89.89,0,0,0,.2-.64v-2.58a.89.89,0,0,0-.2-.64.82.82,0,0,0-.62-.22.86.86,0,0,0-.63.22.94.94,0,0,0-.2.64v2.58a.9.9,0,0,0,.21.64,1,1,0,0,0,1.24,0Z"/><path class="i" d="M593.22,595.91a1.67,1.67,0,0,1-.41-1.19v-2.58a1.65,1.65,0,0,1,.41-1.19,2,2,0,0,1,2.42,0,1.61,1.61,0,0,1,.41,1.19v2.58a1.65,1.65,0,0,1-.41,1.19,2,2,0,0,1-2.42,0Zm1.83-.55a.9.9,0,0,0,.21-.64v-2.58a.94.94,0,0,0-.2-.64.86.86,0,0,0-.63-.22.82.82,0,0,0-.62.22.89.89,0,0,0-.2.64v2.58a.89.89,0,0,0,.2.64,1,1,0,0,0,1.24,0Z"/><path class="i" d="M600.1,596.13a1.45,1.45,0,0,1-.6-.6,2.06,2.06,0,0,1-.21-1v-.67a2,2,0,0,1,.21-.94,1.37,1.37,0,0,1,.6-.59,2,2,0,0,1,.95-.21,2.21,2.21,0,0,1,.59.08,1.68,1.68,0,0,1,.51.22,1.54,1.54,0,0,1,.37.35l-.58.52a1.17,1.17,0,0,0-.4-.3,1.13,1.13,0,0,0-.48-.11.94.94,0,0,0-.71.26,1,1,0,0,0-.26.72v.67a1,1,0,0,0,.25.74.94.94,0,0,0,.72.27,1,1,0,0,0,.48-.12,1,1,0,0,0,.4-.32l.58.56a1.38,1.38,0,0,1-.38.34,1.62,1.62,0,0,1-.5.22,2.27,2.27,0,0,1-.59.07A2.12,2.12,0,0,1,600.1,596.13Z"/><path class="i" d="M603.4,592.22h.79v4.06h-.79Zm2.42,1.6a1,1,0,0,0-.21-.67.78.78,0,0,0-.6-.23.81.81,0,0,0-.6.21.73.73,0,0,0-.22.58l-.08-.78a1.46,1.46,0,0,1,.49-.57,1.22,1.22,0,0,1,.67-.2,1.33,1.33,0,0,1,.73.2,1.18,1.18,0,0,1,.46.56,2.4,2.4,0,0,1,.15.89v2.47h-.79Zm2.42,0a.93.93,0,0,0-.22-.67.85.85,0,0,0-.63-.23.72.72,0,0,0-.57.23.9.9,0,0,0-.21.64l-.16-.78a1.61,1.61,0,0,1,.51-.63,1.23,1.23,0,0,1,.69-.22,1.37,1.37,0,0,1,.75.2,1.09,1.09,0,0,1,.47.56,2.21,2.21,0,0,1,.17.89v2.47h-.8Z"/><path class="i" d="M584.33,605.5l2-2.64a1.85,1.85,0,0,0,.27-.47,1.29,1.29,0,0,0,.09-.45h0a.67.67,0,0,0-.2-.53.81.81,0,0,0-.56-.19.76.76,0,0,0-.56.21,1,1,0,0,0-.27.58h-.82a2,2,0,0,1,.29-.83,1.42,1.42,0,0,1,.56-.53,1.67,1.67,0,0,1,.79-.18,1.93,1.93,0,0,1,.87.17,1.21,1.21,0,0,1,.54.51,1.55,1.55,0,0,1,.19.8h0a1.84,1.84,0,0,1-.12.63,2.8,2.8,0,0,1-.35.63l-1.65,2.24h2.15v.76h-3.2Z"/><path class="i" d="M589,605.83a1.67,1.67,0,0,1-.41-1.19v-2.58a1.65,1.65,0,0,1,.41-1.19,2,2,0,0,1,2.42,0,1.65,1.65,0,0,1,.41,1.19v2.58a1.65,1.65,0,0,1-.41,1.19,2,2,0,0,1-2.42,0Zm1.83-.55a.89.89,0,0,0,.2-.64v-2.58a.89.89,0,0,0-.2-.64.82.82,0,0,0-.62-.22.86.86,0,0,0-.63.22.94.94,0,0,0-.19.64v2.58a.89.89,0,0,0,.2.64,1,1,0,0,0,1.24,0Z"/><path class="i" d="M593.22,605.83a1.67,1.67,0,0,1-.41-1.19v-2.58a1.61,1.61,0,0,1,.42-1.19,1.59,1.59,0,0,1,1.2-.42,1.45,1.45,0,0,1,1.62,1.61v2.58a1.61,1.61,0,0,1-.41,1.19,2,2,0,0,1-2.42,0Zm1.84-.55a.94.94,0,0,0,.2-.64v-2.58a.94.94,0,0,0-.2-.64.84.84,0,0,0-.63-.22.82.82,0,0,0-.62.22.89.89,0,0,0-.2.64v2.58a.89.89,0,0,0,.2.64.82.82,0,0,0,.62.22A.86.86,0,0,0,595.06,605.28Z"/><path class="i" d="M600.1,606.05a1.45,1.45,0,0,1-.6-.6,2.06,2.06,0,0,1-.2-1v-.67a2,2,0,0,1,.2-.94,1.37,1.37,0,0,1,.6-.59,2,2,0,0,1,.95-.21,2.35,2.35,0,0,1,.6.08,1.73,1.73,0,0,1,.5.22,1.38,1.38,0,0,1,.37.35l-.58.52a1.08,1.08,0,0,0-.4-.3,1.13,1.13,0,0,0-.48-.11,1,1,0,0,0-.71.26,1,1,0,0,0-.26.72v.67a1,1,0,0,0,.25.74.94.94,0,0,0,.72.27,1.14,1.14,0,0,0,.88-.44l.58.56a1.38,1.38,0,0,1-.38.34,1.62,1.62,0,0,1-.5.22,2.22,2.22,0,0,1-.59.07A2.12,2.12,0,0,1,600.1,606.05Z"/><path class="i" d="M603.4,602.14h.79v4.06h-.79Zm2.42,1.6a1,1,0,0,0-.21-.67.78.78,0,0,0-.6-.23.81.81,0,0,0-.6.21.73.73,0,0,0-.22.58l-.08-.78a1.46,1.46,0,0,1,.49-.57,1.22,1.22,0,0,1,.67-.2,1.3,1.3,0,0,1,.73.2,1.18,1.18,0,0,1,.46.56,2.4,2.4,0,0,1,.16.89v2.47h-.8Zm2.42,0a.93.93,0,0,0-.22-.67.85.85,0,0,0-.63-.23.73.73,0,0,0-.57.23.89.89,0,0,0-.2.64l-.16-.78a1.51,1.51,0,0,1,.5-.63,1.23,1.23,0,0,1,.69-.22,1.35,1.35,0,0,1,.75.2,1.16,1.16,0,0,1,.48.56,2.4,2.4,0,0,1,.16.89v2.47h-.8Z"/><path class="i" d="M585,615.58a1.34,1.34,0,0,1-.54-.49,2,2,0,0,1-.28-.77h.8a.75.75,0,0,0,.25.49.85.85,0,0,0,.54.17.72.72,0,0,0,.59-.25,1.1,1.1,0,0,0,.21-.72v-.48a1.1,1.1,0,0,0-.21-.72.72.72,0,0,0-.59-.25.83.83,0,0,0-.4.11,1.18,1.18,0,0,0-.34.33h-.72v-3h2.89v.76h-2.1V612a1,1,0,0,1,.34-.18.94.94,0,0,1,.37-.07,1.68,1.68,0,0,1,.84.2,1.29,1.29,0,0,1,.53.6,2.07,2.07,0,0,1,.19.94V614a2.25,2.25,0,0,1-.19.94,1.31,1.31,0,0,1-.55.59,1.69,1.69,0,0,1-.86.21A1.74,1.74,0,0,1,585,615.58Z"/><path class="i" d="M589,615.32a1.65,1.65,0,0,1-.41-1.19v-2.58a1.67,1.67,0,0,1,.41-1.19,2,2,0,0,1,2.42,0,1.65,1.65,0,0,1,.41,1.19v2.58a1.64,1.64,0,0,1-.41,1.19,1.92,1.92,0,0,1-2.42,0Zm1.83-.55a.89.89,0,0,0,.2-.64v-2.58a.88.88,0,0,0-.2-.63.78.78,0,0,0-.62-.22.82.82,0,0,0-.63.22.93.93,0,0,0-.2.63v2.58a.9.9,0,0,0,.21.64,1,1,0,0,0,1.24,0Z"/><path class="i" d="M593.22,615.32a1.65,1.65,0,0,1-.41-1.19v-2.58a1.67,1.67,0,0,1,.41-1.19,2,2,0,0,1,2.42,0,1.61,1.61,0,0,1,.41,1.19v2.58a1.64,1.64,0,0,1-.41,1.19,1.92,1.92,0,0,1-2.42,0Zm1.83-.55a.9.9,0,0,0,.21-.64v-2.58a.93.93,0,0,0-.2-.63.82.82,0,0,0-.63-.22.78.78,0,0,0-.62.22.88.88,0,0,0-.2.63v2.58a.89.89,0,0,0,.2.64,1,1,0,0,0,1.24,0Z"/><path class="i" d="M600.1,615.54a1.45,1.45,0,0,1-.6-.6,2,2,0,0,1-.21-1v-.67a2,2,0,0,1,.21-.94,1.45,1.45,0,0,1,.6-.6,2,2,0,0,1,.95-.2,2.22,2.22,0,0,1,.59.07,2,2,0,0,1,.51.22,1.76,1.76,0,0,1,.37.35l-.58.52a1.17,1.17,0,0,0-.4-.3,1.13,1.13,0,0,0-.48-.11.94.94,0,0,0-.71.26,1,1,0,0,0-.26.73V614a1.07,1.07,0,0,0,.25.74,1,1,0,0,0,.72.26,1.13,1.13,0,0,0,.48-.11,1.26,1.26,0,0,0,.4-.32l.58.55a1.42,1.42,0,0,1-.38.35,1.88,1.88,0,0,1-.5.21,2.27,2.27,0,0,1-.59.08A2,2,0,0,1,600.1,615.54Z"/><path class="i" d="M603.4,611.63h.79v4.06h-.79Zm2.42,1.6a1,1,0,0,0-.21-.66.75.75,0,0,0-.6-.24.81.81,0,0,0-.6.21.75.75,0,0,0-.22.58l-.08-.78a1.5,1.5,0,0,1,.49-.56,1.15,1.15,0,0,1,.67-.2,1.32,1.32,0,0,1,.73.19,1.28,1.28,0,0,1,.46.56,2.42,2.42,0,0,1,.15.9v2.46h-.79Zm2.42,0a.91.91,0,0,0-.22-.66.82.82,0,0,0-.63-.24.72.72,0,0,0-.57.23.9.9,0,0,0-.21.64l-.16-.78a1.51,1.51,0,0,1,.51-.62,1.16,1.16,0,0,1,.69-.22,1.37,1.37,0,0,1,.75.19,1.18,1.18,0,0,1,.47.56,2.22,2.22,0,0,1,.17.9v2.46h-.8Z"/><path class="g" d="M23.49,613.89A12.92,12.92,0,1,1,36.4,601,12.93,12.93,0,0,1,23.49,613.89Zm0-24.83A11.92,11.92,0,1,0,35.4,601,11.93,11.93,0,0,0,23.49,589.06Z"/><polygon class="h" points="35.77 588.74 9.42 600.98 35.77 613.21 32.02 600.98 35.77 588.74"/><path class="g" d="M36.58,614.14,8.23,601l28.35-13.17-4,13.17ZM10.61,601,35,612.29,31.5,601,35,589.66Z"/><path class="g" d="M2.52,605.19a5,5,0,0,1-1.11-.38,4.4,4.4,0,0,1-1-.64l.81-1a3.72,3.72,0,0,0,1.16.69,4.08,4.08,0,0,0,1.38.23,2.73,2.73,0,0,0,1.55-.38,1.17,1.17,0,0,0,.55-1.05h0a1.12,1.12,0,0,0-.25-.77,1.44,1.44,0,0,0-.64-.42,8.23,8.23,0,0,0-1-.25H3.89l-.1,0a9.48,9.48,0,0,1-1.5-.36,2.08,2.08,0,0,1-1-.73,2.42,2.42,0,0,1-.41-1.51h0a2.77,2.77,0,0,1,.38-1.47,2.44,2.44,0,0,1,1.12-.92,4.48,4.48,0,0,1,1.77-.32,4.6,4.6,0,0,1,1,.11,4.9,4.9,0,0,1,1.86.86l-.73,1a4.61,4.61,0,0,0-1-.58,3,3,0,0,0-1.06-.2,2.44,2.44,0,0,0-1.46.38,1.24,1.24,0,0,0-.53,1.07h0a1,1,0,0,0,.27.75,1.74,1.74,0,0,0,.67.4,9.3,9.3,0,0,0,1.12.27h.24a7.93,7.93,0,0,1,1.4.41,2.22,2.22,0,0,1,.94.76,2.4,2.4,0,0,1,.38,1.43h0a2.62,2.62,0,0,1-.4,1.45,2.54,2.54,0,0,1-1.16.91,4.8,4.8,0,0,1-1.83.31A6.44,6.44,0,0,1,2.52,605.19Z"/><rect class="g" x="612.5" y="600.68" width="1" height="4.68"/><rect class="g" x="612.5" y="590.76" width="1" height="4.68"/><rect class="g" x="612.5" y="611.45" width="1" height="5.24"/><rect class="g" x="789.58" y="611.45" width="1" height="5.24"/><rect class="g" x="682.59" y="600.68" width="1" height="4.68"/><rect class="g" x="647.3" y="590.76" width="1" height="4.68"/><rect class="a" width="790.34" height="618.13"/><polygon class="j" points="91.68 405.45 305.79 405.45 308.72 405.45 91.68 405.45"/><rect class="h" x="494.95" y="317.15" width="58.52" height="25.82"/><line class="k" x1="494.95" y1="317.15" x2="494.95" y2="342.97"/><line class="k" x1="553.47" y1="317.15" x2="494.95" y2="317.15"/><line class="k" x1="553.47" y1="342.97" x2="553.47" y2="317.15"/><line class="k" x1="494.95" y1="342.97" x2="553.47" y2="342.97"/><rect class="h" x="466.55" y="374.81" width="25.13" height="22.38"/><line class="k" x1="466.55" y1="374.81" x2="466.55" y2="397.19"/><line class="k" x1="491.68" y1="374.81" x2="466.55" y2="374.81"/><line class="k" x1="491.68" y1="397.19" x2="491.68" y2="374.81"/><line class="k" x1="466.55" y1="397.19" x2="491.68" y2="397.19"/><rect class="h" x="208.03" y="376.53" width="121.86" height="20.65"/><line class="k" x1="208.03" y1="376.53" x2="208.03" y2="397.19"/><line class="k" x1="329.89" y1="376.53" x2="208.03" y2="376.53"/><line class="k" x1="329.89" y1="397.19" x2="329.89" y2="376.53"/><line class="k" x1="208.03" y1="397.19" x2="329.89" y2="397.19"/><rect class="h" x="332.3" y="376.19" width="17.56" height="21"/><line class="k" x1="332.3" y1="376.19" x2="332.3" y2="397.19"/><line class="k" x1="349.85" y1="376.19" x2="332.3" y2="376.19"/><line class="k" x1="349.85" y1="397.19" x2="349.85" y2="376.19"/><line class="k" x1="332.3" y1="397.19" x2="349.85" y2="397.19"/><line class="k" x1="223.17" y1="405.45" x2="223.17" y2="405.45"/><line class="k" x1="308.72" y1="405.45" x2="223.18" y2="405.45"/><line class="k" x1="308.72" y1="405.45" x2="308.72" y2="405.45"/><line class="k" x1="474.98" y1="405.45" x2="474.98" y2="405.45"/><line class="k" x1="474.98" y1="405.45" x2="519.22" y2="405.45"/><line class="k" x1="519.22" y1="405.45" x2="519.22" y2="405.45"/><line class="k" x1="183.93" y1="379.97" x2="204.59" y2="379.97"/><line class="k" x1="477.91" y1="405.45" x2="690.64" y2="405.45"/><line class="k" x1="690.64" y1="405.45" x2="698.91" y2="405.45"/><line class="k" x1="574.98" y1="397.19" x2="592.19" y2="397.19"/><line class="k" x1="594.6" y1="397.19" x2="690.64" y2="397.19"/><line class="k" x1="95.81" y1="228.17" x2="694.77" y2="228.17"/><line class="k" x1="305.79" y1="405.45" x2="91.68" y2="405.45"/><line class="k" x1="690.64" y1="397.19" x2="690.64" y2="276.36"/><line class="k" x1="698.91" y1="403.04" x2="698.91" y2="276.36"/><line class="k" x1="522.66" y1="276.36" x2="522.66" y2="269.48"/><line class="k" x1="477.91" y1="405.45" x2="477.91" y2="405.45"/><line class="k" x1="474.98" y1="405.45" x2="474.98" y2="405.45"/><line class="k" x1="474.98" y1="405.45" x2="477.91" y2="405.45"/><line class="k" x1="474.98" y1="405.45" x2="471.02" y2="405.45"/><line class="k" x1="471.02" y1="405.45" x2="471.02" y2="405.45"/><line class="k" x1="329.89" y1="397.19" x2="332.3" y2="397.19"/><line class="k" x1="491.68" y1="397.19" x2="494.09" y2="397.19"/><line class="k" x1="552.95" y1="397.19" x2="556.39" y2="397.19"/><line class="k" x1="571.54" y1="397.19" x2="574.98" y2="397.19"/><line class="k" x1="305.79" y1="405.45" x2="305.79" y2="405.45"/><line class="k" x1="308.72" y1="405.45" x2="308.72" y2="405.45"/><line class="k" x1="308.72" y1="405.45" x2="312.68" y2="405.45"/><line class="k" x1="312.68" y1="405.45" x2="312.68" y2="405.45"/><line class="k" x1="305.79" y1="405.45" x2="308.72" y2="405.45"/><line class="k" x1="690.64" y1="397.19" x2="690.64" y2="405.45"/><line class="k" x1="97.18" y1="229.89" x2="97.18" y2="262.59"/><line class="k" x1="95.81" y1="229.89" x2="97.18" y2="229.89"/><line class="k" x1="519.9" y1="269.48" x2="522.66" y2="269.48"/><line class="k" x1="522.66" y1="269.48" x2="522.66" y2="272.23"/><line class="k" x1="522.66" y1="272.23" x2="519.9" y2="272.23"/><line class="k" x1="519.9" y1="272.23" x2="519.9" y2="269.48"/><line class="k" x1="520.94" y1="262.59" x2="520.94" y2="269.47"/><line class="k" x1="520.94" y1="269.48" x2="522.66" y2="269.48"/><line class="k" x1="99.94" y1="276.36" x2="99.94" y2="397.19"/><line class="k" x1="99.94" y1="397.19" x2="99.94" y2="405.45"/><line class="k" x1="329.89" y1="364.14" x2="329.89" y2="397.19"/><line class="k" x1="332.3" y1="364.14" x2="332.3" y2="397.19"/><line class="k" x1="180.49" y1="397.19" x2="180.49" y2="376.53"/><line class="k" x1="183.93" y1="397.19" x2="183.93" y2="379.97"/><line class="k" x1="180.49" y1="376.53" x2="183.93" y2="376.53"/><line class="k" x1="183.93" y1="376.53" x2="208.03" y2="376.53"/><line class="k" x1="208.03" y1="376.53" x2="208.03" y2="397.19"/><line class="k" x1="204.59" y1="379.97" x2="204.59" y2="397.19"/><line class="k" x1="332.3" y1="334.88" x2="332.3" y2="362.42"/><line class="k" x1="332.3" y1="334.88" x2="359.84" y2="334.88"/><g class="l"><path class="k" d="M359.84,334.88a27.54,27.54,0,0,1-27.54,27.54"/></g><line class="k" x1="329.89" y1="334.88" x2="332.3" y2="334.88"/><line class="k" x1="332.3" y1="362.42" x2="329.89" y2="362.42"/><line class="k" x1="332.3" y1="362.42" x2="332.3" y2="364.14"/><line class="k" x1="329.89" y1="362.42" x2="329.89" y2="364.14"/><line class="k" x1="332.3" y1="333.16" x2="332.3" y2="334.88"/><line class="k" x1="329.89" y1="333.16" x2="329.89" y2="334.88"/><line class="k" x1="329.89" y1="334.88" x2="329.89" y2="341.77"/><line class="k" x1="329.89" y1="345.55" x2="329.89" y2="346.33"/><line class="k" x1="329.89" y1="350.11" x2="329.89" y2="350.89"/><line class="k" x1="329.89" y1="354.67" x2="329.89" y2="355.53"/><line class="k" x1="329.89" y1="355.53" x2="329.89" y2="362.42"/><line class="k" x1="332.3" y1="334.88" x2="333.16" y2="334.88"/><line class="k" x1="333.16" y1="334.88" x2="333.16" y2="331.44"/><line class="k" x1="333.16" y1="331.44" x2="332.3" y2="331.44"/><line class="k" x1="329.89" y1="334.88" x2="329.03" y2="334.88"/><line class="k" x1="329.03" y1="334.88" x2="329.03" y2="331.44"/><line class="k" x1="329.03" y1="331.44" x2="329.89" y2="331.44"/><line class="k" x1="333.16" y1="362.42" x2="333.16" y2="365.86"/><line class="k" x1="333.16" y1="365.86" x2="332.3" y2="365.86"/><line class="k" x1="329.89" y1="362.42" x2="329.03" y2="362.42"/><line class="k" x1="329.03" y1="362.42" x2="329.03" y2="365.86"/><line class="k" x1="329.03" y1="365.86" x2="329.89" y2="365.86"/><line class="k" x1="329.89" y1="364.14" x2="332.3" y2="364.14"/><line class="k" x1="99.94" y1="397.19" x2="180.49" y2="397.19"/><line class="k" x1="183.93" y1="397.19" x2="204.59" y2="397.19"/><line class="k" x1="208.03" y1="397.19" x2="329.89" y2="397.19"/><line class="k" x1="180.49" y1="397.19" x2="183.93" y2="397.19"/><line class="k" x1="204.59" y1="397.19" x2="208.03" y2="397.19"/><line class="k" x1="312.68" y1="405.45" x2="314.4" y2="405.45"/><line class="k" x1="314.4" y1="405.45" x2="351.23" y2="405.45"/><line class="k" x1="389.09" y1="405.45" x2="469.3" y2="405.45"/><line class="k" x1="469.3" y1="405.45" x2="471.02" y2="405.45"/><line class="k" x1="332.3" y1="397.19" x2="351.23" y2="397.19"/><line class="k" x1="392.54" y1="397.19" x2="418.35" y2="397.19"/><line class="k" x1="421.8" y1="397.19" x2="491.68" y2="397.19"/><line class="k" x1="385.65" y1="401.49" x2="354.67" y2="401.49"/><line class="k" x1="385.65" y1="405.45" x2="354.67" y2="405.45"/><line class="k" x1="385.65" y1="401.49" x2="385.65" y2="370.51"/><g class="l"><path class="k" d="M354.67,401.49a31,31,0,0,1,31-31"/></g><line class="k" x1="385.65" y1="405.45" x2="385.65" y2="401.49"/><line class="k" x1="354.67" y1="401.49" x2="354.67" y2="405.45"/><line class="k" x1="354.67" y1="401.49" x2="352.95" y2="401.49"/><line class="k" x1="354.67" y1="405.45" x2="352.95" y2="405.45"/><line class="k" x1="387.37" y1="401.49" x2="385.65" y2="401.49"/><line class="k" x1="387.37" y1="405.45" x2="385.65" y2="405.45"/><line class="k" x1="351.23" y1="401.49" x2="351.23" y2="405.45"/><line class="k" x1="389.09" y1="401.49" x2="389.09" y2="405.45"/><line class="k" x1="352.95" y1="401.49" x2="352.95" y2="405.45"/><line class="k" x1="387.37" y1="401.49" x2="387.37" y2="405.45"/><line class="k" x1="351.23" y1="397.19" x2="358.11" y2="397.19"/><line class="k" x1="361.9" y1="397.19" x2="362.68" y2="397.19"/><line class="k" x1="366.46" y1="397.19" x2="367.24" y2="397.19"/><line class="k" x1="371.02" y1="397.19" x2="377.91" y2="397.19"/><line class="k" x1="381.69" y1="397.19" x2="382.21" y2="397.19"/><line class="k" x1="382.21" y1="397.19" x2="389.09" y2="397.19"/><line class="k" x1="352.95" y1="401.49" x2="351.23" y2="401.49"/><line class="k" x1="351.23" y1="401.49" x2="351.23" y2="397.19"/><line class="k" x1="387.37" y1="401.49" x2="389.09" y2="401.49"/><line class="k" x1="389.09" y1="401.49" x2="389.09" y2="397.19"/><line class="k" x1="352.95" y1="405.45" x2="351.23" y2="405.45"/><line class="k" x1="387.37" y1="405.45" x2="389.09" y2="405.45"/><line class="k" x1="389.09" y1="397.19" x2="389.09" y2="379.97"/><line class="k" x1="392.54" y1="397.19" x2="392.54" y2="383.42"/><line class="k" x1="389.09" y1="379.97" x2="421.8" y2="379.97"/><line class="k" x1="392.54" y1="383.42" x2="418.35" y2="383.42"/><line class="k" x1="421.8" y1="379.97" x2="421.8" y2="397.19"/><line class="k" x1="418.35" y1="383.42" x2="418.35" y2="397.19"/><line class="k" x1="392.54" y1="397.19" x2="389.09" y2="397.19"/><line class="k" x1="418.35" y1="397.19" x2="421.8" y2="397.19"/><line class="k" x1="329.89" y1="331.44" x2="329.89" y2="333.16"/><line class="k" x1="332.3" y1="331.44" x2="332.3" y2="333.16"/><line class="k" x1="329.89" y1="333.16" x2="332.3" y2="333.16"/><line class="k" x1="329.89" y1="331.44" x2="332.3" y2="331.44"/><line class="k" x1="357.43" y1="331.44" x2="426.27" y2="331.44"/><line class="k" x1="426.27" y1="324.55" x2="446.93" y2="324.55"/><line class="k" x1="446.93" y1="269.48" x2="446.93" y2="324.55"/><line class="k" x1="489.96" y1="262.59" x2="440.04" y2="262.59"/><line class="k" x1="488.23" y1="269.48" x2="446.93" y2="269.48"/><line class="k" x1="488.23" y1="276.36" x2="453.81" y2="276.36"/><line class="k" x1="304.07" y1="269.48" x2="336.77" y2="269.48"/><line class="k" x1="302.35" y1="262.59" x2="343.66" y2="262.59"/><line class="k" x1="304.07" y1="276.36" x2="329.89" y2="276.36"/><line class="k" x1="336.77" y1="324.55" x2="357.43" y2="324.55"/><line class="k" x1="332.3" y1="331.44" x2="357.43" y2="331.44"/><line class="k" x1="426.27" y1="331.44" x2="453.81" y2="331.44"/><line class="k" x1="336.77" y1="269.48" x2="336.77" y2="324.55"/><line class="k" x1="343.66" y1="262.59" x2="343.66" y2="317.67"/><line class="k" x1="453.81" y1="276.36" x2="453.81" y2="331.44"/><line class="k" x1="440.04" y1="262.59" x2="440.04" y2="317.67"/><line class="k" x1="329.89" y1="276.36" x2="329.89" y2="331.44"/><line class="k" x1="304.07" y1="276.36" x2="304.07" y2="269.48"/><line class="k" x1="302.35" y1="262.59" x2="302.35" y2="269.47"/><line class="k" x1="302.35" y1="269.48" x2="304.07" y2="269.48"/><line class="k" x1="426.27" y1="331.44" x2="426.27" y2="324.55"/><line class="k" x1="357.43" y1="331.44" x2="357.43" y2="324.55"/><line class="k" x1="357.43" y1="324.55" x2="359.15" y2="324.55"/><line class="k" x1="359.15" y1="324.55" x2="359.15" y2="317.67"/><line class="k" x1="424.55" y1="317.67" x2="424.55" y2="324.55"/><line class="k" x1="424.55" y1="324.55" x2="426.27" y2="324.55"/><line class="k" x1="343.66" y1="317.67" x2="359.15" y2="317.67"/><line class="k" x1="424.55" y1="317.67" x2="440.04" y2="317.67"/><line class="k" x1="304.07" y1="269.48" x2="304.07" y2="272.23"/><line class="k" x1="304.07" y1="272.23" x2="301.32" y2="272.23"/><line class="k" x1="301.32" y1="272.23" x2="301.32" y2="269.48"/><line class="k" x1="301.32" y1="269.48" x2="304.07" y2="269.48"/><line class="k" x1="391.85" y1="331.44" x2="391.85" y2="341.77"/><line class="k" x1="391.85" y1="341.77" x2="426.27" y2="341.77"/><line class="k" x1="426.27" y1="341.77" x2="426.27" y2="331.44"/><line class="k" x1="91.68" y1="262.59" x2="133.67" y2="262.59"/><line class="k" x1="91.68" y1="269.48" x2="131.95" y2="269.48"/><line class="k" x1="199.08" y1="262.59" x2="236.94" y2="262.59"/><line class="k" x1="91.68" y1="269.48" x2="131.95" y2="269.48"/><line class="k" x1="200.8" y1="269.48" x2="235.22" y2="269.48"/><line class="k" x1="200.8" y1="276.36" x2="235.22" y2="276.36"/><line class="k" x1="304.07" y1="276.36" x2="304.07" y2="269.48"/><line class="k" x1="235.22" y1="276.36" x2="235.22" y2="269.48"/><line class="k" x1="200.8" y1="276.36" x2="200.8" y2="269.48"/><line class="k" x1="236.94" y1="262.59" x2="243.83" y2="262.59"/><line class="k" x1="247.62" y1="262.59" x2="248.39" y2="262.59"/><line class="k" x1="252.18" y1="262.59" x2="252.95" y2="262.59"/><line class="k" x1="256.74" y1="262.59" x2="263.62" y2="262.59"/><line class="k" x1="267.41" y1="262.59" x2="268.18" y2="262.59"/><line class="k" x1="271.97" y1="262.59" x2="272.75" y2="262.59"/><line class="k" x1="276.53" y1="262.59" x2="283.42" y2="262.59"/><line class="k" x1="287.2" y1="262.59" x2="287.98" y2="262.59"/><line class="k" x1="291.76" y1="262.59" x2="292.54" y2="262.59"/><line class="k" x1="295.46" y1="262.59" x2="302.35" y2="262.59"/><line class="k" x1="236.94" y1="266.03" x2="302.35" y2="266.03"/><line class="k" x1="200.8" y1="276.36" x2="131.95" y2="276.36"/><line class="k" x1="304.07" y1="276.36" x2="235.22" y2="276.36"/><line class="k" x1="166.38" y1="276.36" x2="166.38" y2="286.69"/><line class="k" x1="166.38" y1="286.69" x2="200.8" y2="286.69"/><line class="k" x1="200.8" y1="286.69" x2="200.8" y2="276.36"/><line class="k" x1="235.22" y1="269.48" x2="236.94" y2="269.48"/><line class="k" x1="236.94" y1="269.48" x2="236.94" y2="262.59"/><line class="k" x1="302.35" y1="262.59" x2="302.35" y2="269.47"/><line class="k" x1="302.35" y1="269.48" x2="304.07" y2="269.48"/><line class="k" x1="200.8" y1="269.48" x2="199.08" y2="269.48"/><line class="k" x1="199.08" y1="269.48" x2="199.08" y2="262.59"/><line class="k" x1="133.67" y1="262.59" x2="133.67" y2="269.47"/><line class="k" x1="133.67" y1="269.48" x2="131.95" y2="269.48"/><line class="k" x1="131.95" y1="276.36" x2="131.95" y2="269.48"/><line class="k" x1="268.27" y1="270.16" x2="268.27" y2="269.48"/><line class="k" x1="268.27" y1="269.48" x2="271.02" y2="269.48"/><line class="k" x1="271.02" y1="269.48" x2="271.02" y2="272.23"/><line class="k" x1="271.02" y1="272.23" x2="269.65" y2="272.23"/><line class="k" x1="269.65" y1="272.92" x2="266.89" y2="272.92"/><line class="k" x1="266.89" y1="272.92" x2="266.89" y2="270.16"/><line class="k" x1="266.89" y1="270.16" x2="269.65" y2="270.16"/><line class="k" x1="269.65" y1="270.16" x2="269.65" y2="272.92"/><line class="k" x1="237.98" y1="270.16" x2="237.98" y2="269.48"/><line class="k" x1="237.98" y1="269.48" x2="235.22" y2="269.48"/><line class="k" x1="235.22" y1="269.48" x2="235.22" y2="272.23"/><line class="k" x1="235.22" y1="272.23" x2="236.6" y2="272.23"/><line class="k" x1="236.6" y1="272.92" x2="239.35" y2="272.92"/><line class="k" x1="239.35" y1="272.92" x2="239.35" y2="270.16"/><line class="k" x1="239.35" y1="270.16" x2="236.6" y2="270.16"/><line class="k" x1="236.6" y1="270.16" x2="236.6" y2="272.92"/><line class="k" x1="266.89" y1="272.92" x2="239.35" y2="272.92"/><line class="k" x1="239.35" y1="270.16" x2="266.89" y2="270.16"/><line class="k" x1="266.89" y1="271.54" x2="239.35" y2="271.54"/><line class="k" x1="304.07" y1="269.48" x2="304.07" y2="272.23"/><line class="k" x1="304.07" y1="272.23" x2="301.32" y2="272.23"/><line class="k" x1="301.32" y1="272.23" x2="301.32" y2="269.48"/><line class="k" x1="301.32" y1="269.48" x2="304.07" y2="269.48"/><line class="k" x1="271.02" y1="269.48" x2="301.32" y2="269.48"/><line class="k" x1="271.02" y1="272.23" x2="301.32" y2="272.23"/><line class="k" x1="301.32" y1="270.85" x2="271.02" y2="270.85"/><line class="k" x1="99.94" y1="276.36" x2="131.95" y2="276.36"/><line class="k" x1="488.23" y1="269.48" x2="488.23" y2="272.23"/><line class="k" x1="488.23" y1="272.23" x2="490.99" y2="272.23"/><line class="k" x1="490.99" y1="272.23" x2="490.99" y2="269.48"/><line class="k" x1="490.99" y1="269.48" x2="489.96" y2="269.48"/><line class="k" x1="488.23" y1="276.36" x2="488.23" y2="269.48"/><line class="k" x1="522.66" y1="276.36" x2="522.66" y2="269.48"/><line class="k" x1="522.66" y1="269.48" x2="520.94" y2="269.48"/><line class="k" x1="520.94" y1="269.48" x2="520.94" y2="262.59"/><line class="k" x1="520.94" y1="262.59" x2="489.96" y2="262.59"/><line class="k" x1="489.96" y1="262.59" x2="489.96" y2="269.47"/><line class="k" x1="522.66" y1="276.36" x2="488.23" y2="276.36"/><line class="k" x1="522.66" y1="272.23" x2="519.9" y2="272.23"/><line class="k" x1="519.9" y1="272.23" x2="519.9" y2="269.48"/><line class="k" x1="519.9" y1="269.48" x2="522.66" y2="269.48"/><line class="k" x1="522.66" y1="269.48" x2="522.66" y2="272.23"/><line class="k" x1="490.99" y1="272.23" x2="519.9" y2="272.23"/><line class="k" x1="519.9" y1="269.48" x2="490.99" y2="269.48"/><line class="k" x1="490.99" y1="270.85" x2="519.9" y2="270.85"/><line class="k" x1="488.23" y1="269.48" x2="489.95" y2="269.48"/><line class="k" x1="491.68" y1="313.88" x2="491.68" y2="345.55"/><line class="k" x1="491.68" y1="373.09" x2="491.68" y2="397.19"/><line class="k" x1="494.09" y1="316.29" x2="494.09" y2="345.55"/><line class="k" x1="494.09" y1="373.09" x2="494.09" y2="397.19"/><line class="k" x1="557.77" y1="310.78" x2="557.77" y2="313.88"/><line class="k" x1="557.77" y1="316.29" x2="557.77" y2="377.57"/><line class="k" x1="560.18" y1="310.78" x2="560.18" y2="377.57"/><line class="k" x1="494.09" y1="316.29" x2="557.77" y2="316.29"/><line class="k" x1="491.68" y1="313.88" x2="557.77" y2="313.88"/><line class="k" x1="554.33" y1="316.29" x2="554.33" y2="377.57"/><line class="k" x1="491.68" y1="371.37" x2="491.68" y2="347.27"/><line class="k" x1="491.68" y1="371.37" x2="467.58" y2="371.37"/><g class="l"><path class="k" d="M467.58,371.37a24.1,24.1,0,0,1,24.1-24.1"/></g><line class="k" x1="494.09" y1="371.37" x2="491.68" y2="371.37"/><line class="k" x1="491.68" y1="347.27" x2="494.09" y2="347.27"/><line class="k" x1="491.68" y1="347.27" x2="491.68" y2="345.55"/><line class="k" x1="494.09" y1="347.27" x2="494.09" y2="345.55"/><line class="k" x1="491.68" y1="373.09" x2="491.68" y2="371.37"/><line class="k" x1="494.09" y1="373.09" x2="494.09" y2="371.37"/><line class="k" x1="494.09" y1="371.37" x2="494.09" y2="364.48"/><line class="k" x1="494.09" y1="360.7" x2="494.09" y2="359.92"/><line class="k" x1="494.09" y1="356.14" x2="494.09" y2="355.36"/><line class="k" x1="494.09" y1="354.16" x2="494.09" y2="347.27"/><line class="k" x1="491.68" y1="371.37" x2="490.82" y2="371.37"/><line class="k" x1="490.82" y1="371.37" x2="490.82" y2="374.81"/><line class="k" x1="490.82" y1="374.81" x2="491.68" y2="374.81"/><line class="k" x1="494.09" y1="371.37" x2="494.95" y2="371.37"/><line class="k" x1="494.95" y1="371.37" x2="494.95" y2="374.81"/><line class="k" x1="494.95" y1="374.81" x2="494.09" y2="374.81"/><line class="k" x1="490.82" y1="347.27" x2="490.82" y2="343.83"/><line class="k" x1="490.82" y1="343.83" x2="491.68" y2="343.83"/><line class="k" x1="494.09" y1="347.27" x2="494.95" y2="347.27"/><line class="k" x1="494.95" y1="347.27" x2="494.95" y2="343.83"/><line class="k" x1="494.95" y1="343.83" x2="494.09" y2="343.83"/><line class="k" x1="491.68" y1="345.55" x2="494.09" y2="345.55"/><line class="k" x1="491.68" y1="373.09" x2="494.09" y2="373.09"/><line class="k" x1="560.18" y1="310.78" x2="557.77" y2="310.78"/><line class="k" x1="560.18" y1="281.52" x2="560.18" y2="309.06"/><line class="k" x1="560.18" y1="281.52" x2="587.72" y2="281.52"/><g class="l"><path class="k" d="M587.72,281.52a27.54,27.54,0,0,1-27.54,27.54"/></g><line class="k" x1="557.77" y1="281.52" x2="560.18" y2="281.52"/><line class="k" x1="560.18" y1="309.06" x2="557.77" y2="309.06"/><line class="k" x1="560.18" y1="309.06" x2="560.18" y2="310.78"/><line class="k" x1="557.77" y1="309.06" x2="557.77" y2="310.78"/><line class="k" x1="560.18" y1="279.8" x2="560.18" y2="281.52"/><line class="k" x1="557.77" y1="279.8" x2="557.77" y2="281.52"/><line class="k" x1="557.77" y1="281.52" x2="557.77" y2="288.41"/><line class="k" x1="557.77" y1="292.2" x2="557.77" y2="292.97"/><line class="k" x1="557.77" y1="296.76" x2="557.77" y2="297.53"/><line class="k" x1="557.77" y1="301.32" x2="557.77" y2="302.18"/><line class="k" x1="557.77" y1="302.18" x2="557.77" y2="309.06"/><line class="k" x1="560.18" y1="281.52" x2="561.04" y2="281.52"/><line class="k" x1="561.04" y1="281.52" x2="561.04" y2="278.08"/><line class="k" x1="561.04" y1="278.08" x2="560.18" y2="278.08"/><line class="k" x1="557.77" y1="281.52" x2="556.91" y2="281.52"/><line class="k" x1="556.91" y1="281.52" x2="556.91" y2="278.08"/><line class="k" x1="556.91" y1="278.08" x2="557.77" y2="278.08"/><line class="k" x1="561.04" y1="309.06" x2="561.04" y2="312.51"/><line class="k" x1="561.04" y1="312.51" x2="560.18" y2="312.51"/><line class="k" x1="557.77" y1="309.06" x2="556.91" y2="309.06"/><line class="k" x1="556.91" y1="309.06" x2="556.91" y2="312.51"/><line class="k" x1="556.91" y1="312.51" x2="557.77" y2="312.51"/><line class="k" x1="557.77" y1="276.36" x2="557.77" y2="279.8"/><line class="k" x1="560.18" y1="276.36" x2="560.18" y2="279.8"/><line class="k" x1="560.18" y1="279.8" x2="557.77" y2="279.8"/><line class="k" x1="557.77" y1="276.36" x2="560.18" y2="276.36"/><line class="k" x1="544" y1="379.97" x2="571.54" y2="379.97"/><line class="k" x1="541.59" y1="377.57" x2="557.77" y2="377.57"/><line class="k" x1="560.18" y1="377.57" x2="594.6" y2="377.57"/><line class="k" x1="571.54" y1="379.97" x2="571.54" y2="397.19"/><line class="k" x1="541.59" y1="397.19" x2="541.59" y2="377.57"/><line class="k" x1="574.98" y1="379.97" x2="574.98" y2="397.19"/><line class="k" x1="494.09" y1="397.19" x2="540.56" y2="397.19"/><line class="k" x1="544" y1="397.19" x2="571.54" y2="397.19"/><line class="k" x1="540.56" y1="397.19" x2="544" y2="397.19"/><line class="k" x1="698.91" y1="262.59" x2="658.63" y2="262.59"/><line class="k" x1="593.23" y1="262.59" x2="520.94" y2="262.59"/><line class="k" x1="698.91" y1="269.48" x2="660.35" y2="269.48"/><line class="k" x1="591.5" y1="269.48" x2="522.66" y2="269.48"/><line class="k" x1="698.91" y1="276.36" x2="698.91" y2="276.36"/><line class="k" x1="690.64" y1="276.36" x2="660.35" y2="276.36"/><line class="k" x1="591.5" y1="276.36" x2="560.18" y2="276.36"/><line class="k" x1="557.77" y1="276.36" x2="522.66" y2="276.36"/><line class="k" x1="660.35" y1="276.36" x2="660.35" y2="269.48"/><line class="k" x1="660.35" y1="269.48" x2="658.63" y2="269.48"/><line class="k" x1="658.63" y1="269.48" x2="658.63" y2="262.59"/><line class="k" x1="660.35" y1="276.36" x2="591.5" y2="276.36"/><line class="k" x1="591.5" y1="276.36" x2="591.5" y2="269.48"/><line class="k" x1="591.5" y1="269.48" x2="593.23" y2="269.48"/><line class="k" x1="593.23" y1="269.48" x2="593.23" y2="262.59"/><line class="k" x1="660.35" y1="276.36" x2="660.35" y2="286.69"/><line class="k" x1="660.35" y1="286.69" x2="625.93" y2="286.69"/><line class="k" x1="625.93" y1="286.69" x2="625.93" y2="276.36"/><line class="k" x1="574.98" y1="379.97" x2="592.19" y2="379.97"/><line class="k" x1="592.19" y1="379.97" x2="592.19" y2="397.19"/><line class="k" x1="594.6" y1="377.57" x2="594.6" y2="397.19"/><line class="k" x1="698.91" y1="403.04" x2="698.91" y2="403.04"/><line class="k" x1="698.91" y1="402.18" x2="698.91" y2="402.18"/><line class="k" x1="698.91" y1="402.18" x2="698.91" y2="403.04"/><line class="k" x1="698.91" y1="405.45" x2="698.91" y2="405.45"/><line class="k" x1="698.91" y1="403.04" x2="698.91" y2="405.45"/><line class="k" x1="693.4" y1="229.89" x2="693.4" y2="262.59"/><line class="k" x1="693.4" y1="229.89" x2="694.77" y2="229.89"/><line class="k" x1="592.19" y1="397.19" x2="594.6" y2="397.19"/><line class="k" x1="469.3" y1="405.45" x2="469.3" y2="405.45"/><line class="k" x1="314.4" y1="405.45" x2="314.4" y2="405.45"/><line class="k" x1="658.63" y1="262.59" x2="651.75" y2="262.59"/><line class="k" x1="647.96" y1="262.59" x2="647.18" y2="262.59"/><line class="k" x1="643.4" y1="262.59" x2="642.62" y2="262.59"/><line class="k" x1="638.84" y1="262.59" x2="631.95" y2="262.59"/><line class="k" x1="628.17" y1="262.59" x2="627.39" y2="262.59"/><line class="k" x1="623.6" y1="262.59" x2="622.83" y2="262.59"/><line class="k" x1="619.04" y1="262.59" x2="612.16" y2="262.59"/><line class="k" x1="608.37" y1="262.59" x2="607.6" y2="262.59"/><line class="k" x1="603.81" y1="262.59" x2="603.04" y2="262.59"/><line class="k" x1="600.11" y1="262.59" x2="593.23" y2="262.59"/><line class="k" x1="593.23" y1="266.03" x2="658.63" y2="266.03"/><line class="k" x1="658.97" y1="272.92" x2="658.97" y2="305.96"/><line class="k" x1="627.3" y1="270.16" x2="627.3" y2="269.48"/><line class="k" x1="627.3" y1="269.48" x2="624.55" y2="269.48"/><line class="k" x1="624.55" y1="269.48" x2="624.55" y2="272.23"/><line class="k" x1="624.55" y1="272.23" x2="625.93" y2="272.23"/><line class="k" x1="625.93" y1="272.92" x2="628.68" y2="272.92"/><line class="k" x1="628.68" y1="272.92" x2="628.68" y2="270.16"/><line class="k" x1="628.68" y1="270.16" x2="625.93" y2="270.16"/><line class="k" x1="625.93" y1="270.16" x2="625.93" y2="272.92"/><line class="k" x1="657.6" y1="270.16" x2="657.6" y2="269.48"/><line class="k" x1="657.6" y1="269.48" x2="660.35" y2="269.48"/><line class="k" x1="660.35" y1="269.48" x2="660.35" y2="272.23"/><line class="k" x1="660.35" y1="272.23" x2="658.97" y2="272.23"/><line class="k" x1="658.97" y1="272.92" x2="656.22" y2="272.92"/><line class="k" x1="656.22" y1="272.92" x2="656.22" y2="270.16"/><line class="k" x1="656.22" y1="270.16" x2="658.97" y2="270.16"/><line class="k" x1="658.97" y1="270.16" x2="658.97" y2="272.92"/><line class="k" x1="628.68" y1="272.92" x2="656.22" y2="272.92"/><line class="k" x1="656.22" y1="270.16" x2="628.68" y2="270.16"/><line class="k" x1="628.68" y1="271.54" x2="656.22" y2="271.54"/><line class="k" x1="591.5" y1="272.23" x2="594.26" y2="272.23"/><line class="k" x1="594.26" y1="272.23" x2="594.26" y2="269.48"/><line class="k" x1="594.26" y1="269.48" x2="591.5" y2="269.48"/><line class="k" x1="591.5" y1="269.48" x2="591.5" y2="272.23"/><line class="k" x1="624.55" y1="272.23" x2="594.26" y2="272.23"/><line class="k" x1="594.26" y1="269.48" x2="624.55" y2="269.48"/><line class="k" x1="624.55" y1="270.85" x2="594.26" y2="270.85"/><g class="l"><path class="k" d="M659,306a33,33,0,0,1-33-33"/></g><line class="k" x1="357.43" y1="324.55" x2="359.15" y2="324.55"/><line class="k" x1="424.55" y1="317.67" x2="417.67" y2="317.67"/><line class="k" x1="413.88" y1="317.67" x2="413.1" y2="317.67"/><line class="k" x1="409.32" y1="317.67" x2="408.54" y2="317.67"/><line class="k" x1="404.76" y1="317.67" x2="397.87" y2="317.67"/><line class="k" x1="394.09" y1="317.67" x2="393.31" y2="317.67"/><line class="k" x1="389.52" y1="317.67" x2="388.75" y2="317.67"/><line class="k" x1="384.96" y1="317.67" x2="378.08" y2="317.67"/><line class="k" x1="374.29" y1="317.67" x2="373.52" y2="317.67"/><line class="k" x1="369.73" y1="317.67" x2="368.96" y2="317.67"/><line class="k" x1="366.03" y1="317.67" x2="359.15" y2="317.67"/><line class="k" x1="359.15" y1="321.11" x2="424.55" y2="321.11"/><line class="k" x1="424.9" y1="328" x2="424.9" y2="361.04"/><line class="k" x1="393.23" y1="325.24" x2="393.23" y2="324.55"/><line class="k" x1="393.23" y1="324.55" x2="390.47" y2="324.55"/><line class="k" x1="390.47" y1="324.55" x2="390.47" y2="327.31"/><line class="k" x1="390.47" y1="327.31" x2="391.85" y2="327.31"/><line class="k" x1="391.85" y1="328" x2="394.6" y2="328"/><line class="k" x1="394.6" y1="328" x2="394.6" y2="325.24"/><line class="k" x1="394.6" y1="325.24" x2="391.85" y2="325.24"/><line class="k" x1="391.85" y1="325.24" x2="391.85" y2="328"/><line class="k" x1="423.52" y1="325.24" x2="423.52" y2="324.55"/><line class="k" x1="423.52" y1="324.55" x2="426.27" y2="324.55"/><line class="k" x1="426.27" y1="324.55" x2="426.27" y2="327.31"/><line class="k" x1="426.27" y1="327.31" x2="424.89" y2="327.31"/><line class="k" x1="424.9" y1="328" x2="422.14" y2="328"/><line class="k" x1="422.14" y1="328" x2="422.14" y2="325.24"/><line class="k" x1="422.14" y1="325.24" x2="424.89" y2="325.24"/><line class="k" x1="424.9" y1="325.24" x2="424.9" y2="328"/><line class="k" x1="394.6" y1="328" x2="422.14" y2="328"/><line class="k" x1="422.14" y1="325.24" x2="394.6" y2="325.24"/><line class="k" x1="394.6" y1="326.62" x2="422.14" y2="326.62"/><line class="k" x1="357.43" y1="327.31" x2="360.18" y2="327.31"/><line class="k" x1="360.18" y1="327.31" x2="360.18" y2="324.55"/><line class="k" x1="360.18" y1="324.55" x2="357.43" y2="324.55"/><line class="k" x1="357.43" y1="324.55" x2="357.43" y2="327.31"/><line class="k" x1="390.47" y1="327.31" x2="360.18" y2="327.31"/><line class="k" x1="360.18" y1="324.55" x2="390.47" y2="324.55"/><line class="k" x1="390.47" y1="325.93" x2="360.18" y2="325.93"/><g class="l"><path class="k" d="M424.9,361a33,33,0,0,1-33-33"/></g><line class="k" x1="199.08" y1="262.59" x2="192.19" y2="262.59"/><line class="k" x1="188.41" y1="262.59" x2="187.63" y2="262.59"/><line class="k" x1="183.85" y1="262.59" x2="183.07" y2="262.59"/><line class="k" x1="179.28" y1="262.59" x2="172.4" y2="262.59"/><line class="k" x1="168.61" y1="262.59" x2="167.84" y2="262.59"/><line class="k" x1="164.05" y1="262.59" x2="163.28" y2="262.59"/><line class="k" x1="159.49" y1="262.59" x2="152.61" y2="262.59"/><line class="k" x1="148.82" y1="262.59" x2="148.05" y2="262.59"/><line class="k" x1="144.26" y1="262.59" x2="143.48" y2="262.59"/><line class="k" x1="140.56" y1="262.59" x2="133.67" y2="262.59"/><line class="k" x1="133.67" y1="266.03" x2="199.08" y2="266.03"/><line class="k" x1="199.42" y1="272.92" x2="199.42" y2="305.96"/><line class="k" x1="167.75" y1="270.16" x2="167.75" y2="269.48"/><line class="k" x1="167.75" y1="269.48" x2="165" y2="269.48"/><line class="k" x1="165" y1="269.48" x2="165" y2="272.23"/><line class="k" x1="165" y1="272.23" x2="166.38" y2="272.23"/><line class="k" x1="166.38" y1="272.92" x2="169.13" y2="272.92"/><line class="k" x1="169.13" y1="272.92" x2="169.13" y2="270.16"/><line class="k" x1="169.13" y1="270.16" x2="166.38" y2="270.16"/><line class="k" x1="166.38" y1="270.16" x2="166.38" y2="272.92"/><line class="k" x1="198.05" y1="270.16" x2="198.05" y2="269.48"/><line class="k" x1="198.05" y1="269.48" x2="200.8" y2="269.48"/><line class="k" x1="200.8" y1="269.48" x2="200.8" y2="272.23"/><line class="k" x1="200.8" y1="272.23" x2="199.42" y2="272.23"/><line class="k" x1="199.42" y1="272.92" x2="196.67" y2="272.92"/><line class="k" x1="196.67" y1="272.92" x2="196.67" y2="270.16"/><line class="k" x1="196.67" y1="270.16" x2="199.42" y2="270.16"/><line class="k" x1="199.42" y1="270.16" x2="199.42" y2="272.92"/><line class="k" x1="169.13" y1="272.92" x2="196.67" y2="272.92"/><line class="k" x1="196.67" y1="270.16" x2="169.13" y2="270.16"/><line class="k" x1="169.13" y1="271.54" x2="196.67" y2="271.54"/><line class="k" x1="131.95" y1="272.23" x2="134.71" y2="272.23"/><line class="k" x1="134.71" y1="272.23" x2="134.71" y2="269.48"/><line class="k" x1="134.71" y1="269.48" x2="131.95" y2="269.48"/><line class="k" x1="131.95" y1="269.48" x2="131.95" y2="272.23"/><line class="k" x1="165" y1="272.23" x2="134.71" y2="272.23"/><line class="k" x1="134.71" y1="269.48" x2="165" y2="269.48"/><line class="k" x1="165" y1="270.85" x2="134.71" y2="270.85"/><g class="l"><path class="k" d="M199.42,306a33,33,0,0,1-33-33"/></g><line class="k" x1="236.6" y1="272.92" x2="236.6" y2="305.96"/><g class="l"><path class="k" d="M269.65,272.92a33,33,0,0,1-33,33"/></g><line class="k" x1="314.4" y1="405.45" x2="314.4" y2="405.45"/><line class="k" x1="469.3" y1="405.45" x2="469.3" y2="405.45"/><line class="k" x1="223.17" y1="405.45" x2="223.17" y2="405.45"/><line class="k" x1="519.22" y1="405.45" x2="519.22" y2="405.45"/><line class="k" x1="541.59" y1="392.02" x2="507.17" y2="392.02"/><line class="k" x1="507.17" y1="392.02" x2="507.17" y2="397.19"/><line class="k" x1="541.59" y1="379.97" x2="544" y2="379.97"/><line class="k" x1="343.66" y1="262.59" x2="440.04" y2="262.59"/><line class="k" x1="96.84" y1="229.89" x2="96.84" y2="262.59"/><line class="k" x1="95.81" y1="260.53" x2="96.84" y2="260.53"/><line class="k" x1="96.84" y1="260.53" x2="96.84" y2="262.59"/><line class="k" x1="96.84" y1="262.59" x2="94.77" y2="262.59"/><line class="k" x1="95.81" y1="229.89" x2="96.84" y2="229.89"/><line class="k" x1="96.84" y1="229.89" x2="96.84" y2="231.96"/><line class="k" x1="96.84" y1="231.95" x2="95.81" y2="231.95"/><line class="k" x1="693.74" y1="229.89" x2="693.74" y2="262.59"/><line class="k" x1="693.74" y1="229.89" x2="694.77" y2="229.89"/><line class="k" x1="694.77" y1="231.95" x2="693.74" y2="231.95"/><line class="k" x1="693.74" y1="231.95" x2="693.74" y2="229.89"/><line class="k" x1="693.74" y1="260.53" x2="694.77" y2="260.53"/><line class="k" x1="695.81" y1="262.59" x2="693.74" y2="262.59"/><line class="k" x1="693.74" y1="262.59" x2="693.74" y2="260.52"/><line class="k" x1="95.81" y1="223" x2="694.77" y2="223"/><line class="k" x1="694.77" y1="221.28" x2="95.81" y2="221.28"/><line class="k" x1="183.93" y1="379.97" x2="183.93" y2="376.53"/><line class="k" x1="571.54" y1="379.97" x2="574.98" y2="379.97"/><line class="k" x1="544" y1="397.19" x2="544" y2="377.57"/><line class="k" x1="574.98" y1="379.97" x2="574.98" y2="397.19"/><line class="k" x1="574.98" y1="397.19" x2="592.19" y2="397.19"/><line class="k" x1="592.19" y1="397.19" x2="578.42" y2="393.74"/><line class="k" x1="578.42" y1="393.74" x2="574.98" y2="379.97"/><line class="k" x1="544" y1="379.97" x2="544" y2="397.19"/><line class="k" x1="544" y1="397.19" x2="571.54" y2="397.19"/><line class="k" x1="571.54" y1="397.19" x2="547.44" y2="393.74"/><line class="k" x1="547.44" y1="393.74" x2="544" y2="379.97"/><line class="k" x1="204.59" y1="397.19" x2="187.69" y2="393.73"/><line class="k" x1="187.69" y1="393.73" x2="183.93" y2="379.97"/><line class="k" x1="183.93" y1="379.97" x2="183.93" y2="397.19"/><line class="k" x1="183.93" y1="397.19" x2="204.59" y2="397.19"/><line class="k" x1="392.54" y1="383.42" x2="392.54" y2="397.19"/><line class="k" x1="392.54" y1="397.19" x2="418.35" y2="397.19"/><line class="k" x1="418.35" y1="397.19" x2="395.98" y2="393.74"/><line class="k" x1="395.98" y1="393.74" x2="392.54" y2="383.42"/><line class="k" x1="218.17" y1="298.53" x2="218.17" y2="329.93"/><line class="k" x1="218.17" y1="329.93" x2="220.28" y2="329.93"/><line class="k" x1="220.28" y1="329.93" x2="222.39" y2="322.08"/><line class="k" x1="222.39" y1="322.08" x2="222.39" y2="306.38"/><line class="k" x1="222.39" y1="306.38" x2="220.28" y2="298.53"/><line class="k" x1="220.28" y1="298.53" x2="218.17" y2="298.53"/><line class="k" x1="219.01" y1="327.83" x2="219.01" y2="325.74"/><line class="k" x1="219.01" y1="325.74" x2="219.54" y2="325.74"/><line class="k" x1="219.54" y1="325.74" x2="219.54" y2="327.83"/><line class="k" x1="219.54" y1="327.83" x2="219.01" y2="327.83"/><line class="k" x1="219.01" y1="325.22" x2="219.01" y2="323.12"/><line class="k" x1="219.01" y1="323.12" x2="219.54" y2="323.12"/><line class="k" x1="219.54" y1="323.12" x2="219.54" y2="325.22"/><line class="k" x1="219.54" y1="325.22" x2="219.01" y2="325.22"/><line class="k" x1="219.01" y1="322.6" x2="219.01" y2="321.55"/><line class="k" x1="219.01" y1="321.55" x2="219.54" y2="321.55"/><line class="k" x1="219.54" y1="321.55" x2="219.54" y2="322.6"/><line class="k" x1="219.54" y1="322.6" x2="219.01" y2="322.6"/><line class="k" x1="220.28" y1="298.53" x2="220.28" y2="329.93"/><line class="k" x1="321.65" y1="384.08" x2="316.78" y2="388.95"/><line class="k" x1="316.78" y1="384.08" x2="321.65" y2="388.95"/><line class="k" x1="319.22" y1="389.96" x2="319.22" y2="383.07"/><line class="k" x1="322.66" y1="386.51" x2="315.77" y2="386.51"/><line class="k" x1="229.03" y1="376.53" x2="229.03" y2="396.84"/><line class="k" x1="209.23" y1="377.91" x2="228.17" y2="377.91"/><line class="k" x1="228.17" y1="377.91" x2="228.17" y2="395.12"/><line class="k" x1="228.17" y1="395.12" x2="209.23" y2="395.12"/><line class="k" x1="209.23" y1="395.12" x2="209.23" y2="377.91"/><line class="k" x1="210.95" y1="379.63" x2="226.45" y2="379.63"/><line class="k" x1="226.45" y1="379.63" x2="226.45" y2="391.68"/><line class="k" x1="226.45" y1="391.68" x2="210.95" y2="391.68"/><line class="k" x1="210.95" y1="391.68" x2="210.95" y2="379.63"/><line class="k" x1="270.33" y1="397.19" x2="270.33" y2="376.53"/><line class="k" x1="290.99" y1="376.53" x2="290.99" y2="397.19"/><line class="k" x1="288.17" y1="375.25" x2="273.15" y2="375.25"/><line class="k" x1="553.47" y1="317.15" x2="494.95" y2="317.15"/><line class="k" x1="494.95" y1="317.15" x2="494.95" y2="342.97"/><line class="k" x1="494.95" y1="342.97" x2="553.47" y2="342.97"/><line class="k" x1="553.47" y1="342.97" x2="553.47" y2="317.15"/><line class="k" x1="546.84" y1="340.9" x2="547.66" y2="340.83"/><line class="k" x1="547.66" y1="340.82" x2="548.46" y2="340.59"/><line class="k" x1="548.46" y1="340.59" x2="549.21" y2="340.21"/><line class="k" x1="549.21" y1="340.21" x2="549.88" y2="339.7"/><line class="k" x1="549.88" y1="339.7" x2="550.47" y2="339.06"/><line class="k" x1="550.47" y1="339.06" x2="550.94" y2="338.32"/><line class="k" x1="550.94" y1="338.32" x2="551.29" y2="337.51"/><line class="k" x1="551.29" y1="337.51" x2="551.5" y2="336.64"/><line class="k" x1="551.5" y1="336.64" x2="551.57" y2="335.74"/><line class="k" x1="551.57" y1="335.74" x2="551.57" y2="324.38"/><line class="k" x1="551.57" y1="324.38" x2="551.5" y2="323.49"/><line class="k" x1="551.5" y1="323.49" x2="551.29" y2="322.61"/><line class="k" x1="551.29" y1="322.62" x2="550.94" y2="321.8"/><line class="k" x1="550.94" y1="321.8" x2="550.47" y2="321.06"/><line class="k" x1="550.47" y1="321.06" x2="549.88" y2="320.43"/><line class="k" x1="549.88" y1="320.43" x2="549.21" y2="319.91"/><line class="k" x1="549.21" y1="319.91" x2="548.46" y2="319.53"/><line class="k" x1="548.46" y1="319.53" x2="547.66" y2="319.3"/><line class="k" x1="547.66" y1="319.3" x2="546.84" y2="319.22"/><line class="k" x1="546.84" y1="319.22" x2="506.78" y2="319.22"/><line class="k" x1="506.78" y1="319.22" x2="505.05" y2="319.38"/><line class="k" x1="505.05" y1="319.38" x2="503.38" y2="319.87"/><line class="k" x1="503.38" y1="319.87" x2="501.81" y2="320.67"/><line class="k" x1="501.81" y1="320.67" x2="500.39" y2="321.75"/><line class="k" x1="500.39" y1="321.75" x2="499.17" y2="323.09"/><line class="k" x1="499.17" y1="323.09" x2="498.17" y2="324.64"/><line class="k" x1="498.17" y1="324.64" x2="497.44" y2="326.35"/><line class="k" x1="497.44" y1="326.35" x2="496.99" y2="328.18"/><line class="k" x1="496.99" y1="328.18" x2="496.84" y2="330.06"/><line class="k" x1="496.84" y1="330.06" x2="496.99" y2="331.94"/><line class="k" x1="496.99" y1="331.94" x2="497.44" y2="333.77"/><line class="k" x1="497.44" y1="333.77" x2="498.17" y2="335.48"/><line class="k" x1="498.17" y1="335.48" x2="499.17" y2="337.03"/><line class="k" x1="499.17" y1="337.03" x2="500.39" y2="338.37"/><line class="k" x1="500.39" y1="338.37" x2="501.81" y2="339.45"/><line class="k" x1="501.81" y1="339.45" x2="503.38" y2="340.25"/><line class="k" x1="503.38" y1="340.25" x2="505.05" y2="340.74"/><line class="k" x1="505.05" y1="340.74" x2="506.78" y2="340.9"/><line class="k" x1="506.78" y1="340.9" x2="546.84" y2="340.9"/><line class="k" x1="552.45" y1="329.2" x2="551" y2="329.34"/><line class="k" x1="550.67" y1="329.45" x2="550.68" y2="329.45"/><line class="k" x1="550.67" y1="329.45" x2="548.85" y2="329.68"/><line class="k" x1="548.85" y1="330.44" x2="548.85" y2="330.44"/><line class="k" x1="548.85" y1="330.44" x2="550.68" y2="330.67"/><line class="k" x1="551" y1="330.78" x2="551.01" y2="330.78"/><line class="k" x1="551" y1="330.78" x2="552.45" y2="330.92"/><line class="k" x1="552.45" y1="329.2" x2="552.45" y2="329.2"/><line class="k" x1="551.59" y1="330.53" x2="551.08" y2="330.53"/><line class="k" x1="551.08" y1="329.59" x2="551.59" y2="329.59"/><line class="k" x1="551.59" y1="329.59" x2="551.59" y2="330.53"/><line class="k" x1="494.95" y1="395.64" x2="498.39" y2="395.64"/><line class="k" x1="498.39" y1="395.64" x2="498.39" y2="374.98"/><line class="k" x1="498.39" y1="374.98" x2="494.95" y2="374.98"/><line class="k" x1="494.95" y1="376.02" x2="497.36" y2="376.02"/><line class="k" x1="497.36" y1="376.02" x2="497.36" y2="394.61"/><line class="k" x1="497.36" y1="394.61" x2="494.95" y2="394.61"/><line class="k" x1="494.95" y1="395.64" x2="498.39" y2="395.64"/><line class="k" x1="494.95" y1="374.98" x2="498.39" y2="374.98"/><line class="k" x1="494.95" y1="394.61" x2="497.36" y2="394.61"/><line class="k" x1="494.95" y1="376.02" x2="497.36" y2="376.02"/><line class="k" x1="498.39" y1="395.64" x2="498.39" y2="374.98"/><line class="k" x1="497.36" y1="395.64" x2="497.36" y2="374.98"/><line class="k" x1="494.95" y1="395.64" x2="494.95" y2="394.61"/><line class="k" x1="494.95" y1="376.02" x2="494.95" y2="374.98"/><line class="k" x1="169.07" y1="320.25" x2="169.07" y2="347.79"/><line class="k" x1="169.07" y1="347.79" x2="141.53" y2="347.79"/><line class="k" x1="141.53" y1="347.79" x2="141.53" y2="320.25"/><line class="k" x1="141.53" y1="320.25" x2="169.07" y2="320.25"/><line class="k" x1="224.9" y1="284.97" x2="224.9" y2="343.49"/><line class="k" x1="224.9" y1="343.49" x2="211.13" y2="343.49"/><line class="k" x1="211.13" y1="343.49" x2="211.13" y2="284.97"/><line class="k" x1="211.13" y1="284.97" x2="224.9" y2="284.97"/><line class="k" x1="99.94" y1="376.53" x2="180.49" y2="376.53"/><line class="k" x1="180.49" y1="376.53" x2="180.49" y2="397.19"/><line class="k" x1="180.49" y1="397.19" x2="99.94" y2="397.19"/><line class="k" x1="99.94" y1="397.19" x2="99.94" y2="376.53"/><line class="k" x1="208.03" y1="376.53" x2="329.89" y2="376.53"/><line class="k" x1="329.89" y1="376.53" x2="329.89" y2="397.19"/><line class="k" x1="329.89" y1="397.19" x2="208.03" y2="397.19"/><line class="k" x1="208.03" y1="397.19" x2="208.03" y2="376.53"/><line class="k" x1="491.68" y1="278.08" x2="519.21" y2="278.08"/><line class="k" x1="519.22" y1="278.08" x2="519.22" y2="283.42"/><line class="k" x1="519.22" y1="283.42" x2="491.68" y2="283.42"/><line class="k" x1="491.68" y1="283.42" x2="491.68" y2="278.08"/><line class="k" x1="594.95" y1="278.08" x2="619.04" y2="278.08"/><line class="k" x1="619.04" y1="278.08" x2="619.04" y2="283.42"/><line class="k" x1="619.04" y1="283.42" x2="594.95" y2="283.42"/><line class="k" x1="594.95" y1="283.42" x2="594.95" y2="278.08"/><line class="k" x1="118.18" y1="278.08" x2="159.49" y2="278.08"/><line class="k" x1="159.49" y1="278.08" x2="159.49" y2="283.42"/><line class="k" x1="159.49" y1="283.42" x2="118.18" y2="283.42"/><line class="k" x1="118.18" y1="283.42" x2="118.18" y2="278.08"/><line class="k" x1="273.09" y1="278.08" x2="314.4" y2="278.08"/><line class="k" x1="314.4" y1="278.08" x2="314.4" y2="283.42"/><line class="k" x1="314.4" y1="283.42" x2="273.09" y2="283.42"/><line class="k" x1="273.09" y1="283.42" x2="273.09" y2="278.08"/><g class="l"><path class="k" d="M222,320.51A6.28,6.28,0,1,1,222,308"/><path class="k" d="M222,308a12.51,12.51,0,0,1,0,12.56"/><path class="k" d="M219.39,388.24a.69.69,0,1,0-1.38,0,.69.69,0,0,0,1.38,0"/><path class="k" d="M279,391.59a3.38,3.38,0,1,0-3.38,3.38,3.38,3.38,0,0,0,3.38-3.38"/><path class="k" d="M279,381.44a3.38,3.38,0,1,0-3.38,3.38,3.37,3.37,0,0,0,3.38-3.38"/><path class="k" d="M289.11,381.44a3.38,3.38,0,1,0-3.38,3.38,3.37,3.37,0,0,0,3.38-3.38"/><path class="k" d="M546.07,330.06a.87.87,0,1,0-.87.86.87.87,0,0,0,.87-.86"/><path class="k" d="M550.67,329.45a.76.76,0,0,1,.33-.11"/><path class="k" d="M548.85,330.44a.38.38,0,0,1,0-.76"/><path class="k" d="M551,330.78a.81.81,0,0,1-.33-.11"/><path class="k" d="M552.45,329.2a.86.86,0,0,1,0,1.72"/><path class="k" d="M551.08,330.53a.47.47,0,0,1,0-.94"/><path class="k" d="M550.67,330.67a.73.73,0,0,1-.33-.61.75.75,0,0,1,.33-.61"/><path class="k" d="M266,386.51a6,6,0,1,0-6,6,6,6,0,0,0,6-6"/><path class="k" d="M265,386.51a5,5,0,1,0-5,5,5,5,0,0,0,5-5"/><path class="k" d="M524.38,280.75a1.72,1.72,0,1,0-1.72,1.72,1.72,1.72,0,0,0,1.72-1.72"/><path class="k" d="M624.21,280.75a1.73,1.73,0,1,0-1.72,1.72,1.72,1.72,0,0,0,1.72-1.72"/><path class="k" d="M164.65,280.75a1.72,1.72,0,1,0-1.72,1.72,1.72,1.72,0,0,0,1.72-1.72"/><path class="k" d="M319.56,280.75a1.72,1.72,0,1,0-1.72,1.72,1.72,1.72,0,0,0,1.72-1.72"/></g><line class="k" x1="309.11" y1="376.53" x2="309.11" y2="397.19"/><line class="k" x1="249.68" y1="376.53" x2="249.68" y2="396.84"/><rect class="h" x="211.13" y="284.97" width="13.77" height="58.52"/><line class="k" x1="211.13" y1="284.97" x2="211.13" y2="343.49"/><line class="k" x1="224.9" y1="284.97" x2="211.13" y2="284.97"/><line class="k" x1="224.9" y1="343.49" x2="224.9" y2="284.97"/><line class="k" x1="211.13" y1="343.49" x2="224.9" y2="343.49"/><rect class="h" x="141.53" y="320.25" width="27.54" height="27.54"/><line class="k" x1="141.53" y1="320.25" x2="141.53" y2="347.79"/><line class="k" x1="169.07" y1="320.25" x2="141.53" y2="320.25"/><line class="k" x1="169.07" y1="347.79" x2="169.07" y2="320.25"/><line class="k" x1="141.53" y1="347.79" x2="169.07" y2="347.79"/><rect class="h" x="99.94" y="376.53" width="80.55" height="20.65"/><line class="k" x1="99.94" y1="376.53" x2="99.94" y2="397.19"/><line class="k" x1="180.49" y1="376.53" x2="99.94" y2="376.53"/><line class="k" x1="180.49" y1="397.19" x2="180.49" y2="376.53"/><line class="k" x1="99.94" y1="397.19" x2="180.49" y2="397.19"/><rect class="h" x="560.18" y="315.6" width="12.05" height="61.96"/><line class="k" x1="560.18" y1="315.6" x2="560.18" y2="377.57"/><line class="k" x1="572.23" y1="315.6" x2="560.18" y2="315.6"/><line class="k" x1="572.23" y1="377.57" x2="572.23" y2="315.6"/><line class="k" x1="560.18" y1="377.57" x2="572.23" y2="377.57"/><rect class="h" x="507.17" y="392.02" width="34.42" height="5.16"/><line class="k" x1="507.17" y1="392.02" x2="507.17" y2="397.19"/><line class="k" x1="541.59" y1="392.02" x2="507.17" y2="392.02"/><line class="k" x1="541.59" y1="397.19" x2="541.59" y2="392.02"/><line class="k" x1="507.17" y1="397.19" x2="541.59" y2="397.19"/><rect class="h" x="494.95" y="394.61" width="2.41" height="1.03"/><line class="k" x1="497.36" y1="395.64" x2="497.36" y2="394.61"/><line class="k" x1="494.95" y1="395.64" x2="497.36" y2="395.64"/><line class="k" x1="494.95" y1="394.61" x2="494.95" y2="395.64"/><line class="k" x1="497.36" y1="394.61" x2="494.95" y2="394.61"/><rect class="h" x="497.36" y="374.98" width="1.03" height="20.65"/><line class="k" x1="498.39" y1="374.98" x2="497.36" y2="374.98"/><line class="k" x1="498.39" y1="395.64" x2="498.39" y2="374.98"/><line class="k" x1="497.36" y1="395.64" x2="498.39" y2="395.64"/><line class="k" x1="497.36" y1="374.98" x2="497.36" y2="395.64"/><rect class="h" x="494.95" y="374.98" width="2.41" height="1.03"/><line class="k" x1="494.95" y1="376.02" x2="497.36" y2="376.02"/><line class="k" x1="494.95" y1="374.98" x2="494.95" y2="376.02"/><line class="k" x1="497.36" y1="374.98" x2="494.95" y2="374.98"/><line class="k" x1="497.36" y1="376.02" x2="497.36" y2="374.98"/><rect class="h" x="389.09" y="374.81" width="32.7" height="5.16"/><line class="k" x1="389.09" y1="374.81" x2="389.09" y2="379.97"/><line class="k" x1="421.8" y1="374.81" x2="389.09" y2="374.81"/><line class="k" x1="421.8" y1="379.97" x2="421.8" y2="374.81"/><line class="k" x1="389.09" y1="379.97" x2="421.8" y2="379.97"/><rect class="h" x="554.33" y="316.29" width="3.44" height="61.27"/><line class="k" x1="554.33" y1="316.29" x2="554.33" y2="377.57"/><line class="k" x1="557.77" y1="316.29" x2="554.33" y2="316.29"/><line class="k" x1="557.77" y1="377.57" x2="557.77" y2="316.29"/><line class="k" x1="554.33" y1="377.57" x2="557.77" y2="377.57"/><rect class="h" x="594.95" y="278.08" width="24.1" height="5.34"/><line class="k" x1="619.04" y1="283.42" x2="619.04" y2="278.08"/><line class="k" x1="594.95" y1="283.42" x2="619.04" y2="283.42"/><line class="k" x1="594.95" y1="278.08" x2="594.95" y2="283.42"/><line class="k" x1="619.04" y1="278.08" x2="594.95" y2="278.08"/><polygon class="m" points="624.21 280.75 623.7 281.97 622.49 282.47 621.27 281.97 620.76 280.75 621.27 279.53 622.49 279.03 623.7 279.53 624.21 280.75"/><g class="l"><path class="k" d="M624.21,280.75a1.73,1.73,0,0,1-3.45,0"/><path class="k" d="M620.76,280.75a1.73,1.73,0,0,1,3.45,0"/></g><rect class="h" x="491.68" y="278.08" width="27.54" height="5.34"/><line class="k" x1="519.22" y1="283.42" x2="519.22" y2="278.08"/><line class="k" x1="491.68" y1="283.42" x2="519.21" y2="283.42"/><line class="k" x1="491.68" y1="278.08" x2="491.68" y2="283.42"/><line class="k" x1="519.22" y1="278.08" x2="491.68" y2="278.08"/><polygon class="m" points="524.38 280.75 523.88 281.97 522.66 282.47 521.44 281.97 520.94 280.75 521.44 279.53 522.66 279.03 523.88 279.53 524.38 280.75"/><g class="l"><path class="k" d="M524.38,280.75a1.72,1.72,0,1,1-3.44,0"/><path class="k" d="M520.94,280.75a1.72,1.72,0,0,1,3.44,0"/></g><rect class="h" x="273.09" y="278.08" width="41.31" height="5.34"/><line class="k" x1="314.4" y1="283.42" x2="314.4" y2="278.08"/><line class="k" x1="273.09" y1="283.42" x2="314.4" y2="283.42"/><line class="k" x1="273.09" y1="278.08" x2="273.09" y2="283.42"/><line class="k" x1="314.4" y1="278.08" x2="273.09" y2="278.08"/><polygon class="m" points="319.56 280.75 319.06 281.97 317.84 282.47 316.62 281.97 316.12 280.75 316.62 279.53 317.84 279.03 319.06 279.53 319.56 280.75"/><g class="l"><path class="k" d="M319.56,280.75a1.72,1.72,0,0,1-3.44,0"/><path class="k" d="M316.12,280.75a1.72,1.72,0,1,1,3.44,0"/></g><rect class="h" x="118.18" y="278.08" width="41.31" height="5.34"/><line class="k" x1="159.49" y1="283.42" x2="159.49" y2="278.08"/><line class="k" x1="118.18" y1="283.42" x2="159.49" y2="283.42"/><line class="k" x1="118.18" y1="278.08" x2="118.18" y2="283.42"/><line class="k" x1="159.49" y1="278.08" x2="118.18" y2="278.08"/><polygon class="m" points="164.66 280.75 164.15 281.97 162.93 282.47 161.72 281.97 161.21 280.75 161.72 279.53 162.93 279.03 164.15 279.53 164.66 280.75"/><g class="l"><path class="k" d="M164.65,280.75a1.72,1.72,0,0,1-3.44,0"/><path class="k" d="M161.21,280.75a1.72,1.72,0,1,1,3.44,0"/></g><polygon class="m" points="572.23 315.6 572.23 377.57 582.79 377.57 634.22 377.57 634.94 377.53 635.65 377.41 636.34 377.23 637.01 376.97 637.64 376.64 638.25 376.25 638.8 375.8 639.32 375.29 639.77 374.73 640.16 374.12 640.48 373.48 640.74 372.81 640.93 372.11 641.04 371.4 641.07 370.68 641.07 322.49 641.04 321.77 640.93 321.06 640.74 320.36 640.48 319.69 640.16 319.05 639.77 318.44 639.32 317.88 638.8 317.37 638.25 316.92 637.64 316.53 637.01 316.2 636.34 315.94 635.65 315.75 634.94 315.64 634.22 315.6 572.23 315.6"/><line class="k" x1="583.63" y1="348.53" x2="580.66" y2="349.36"/><line class="k" x1="583.63" y1="319.63" x2="580.66" y2="320.45"/><line class="k" x1="641.07" y1="370.68" x2="641.07" y2="322.49"/><line class="k" x1="634.22" y1="315.6" x2="572.23" y2="315.6"/><line class="k" x1="572.23" y1="315.6" x2="572.23" y2="377.57"/><line class="k" x1="572.23" y1="377.57" x2="634.22" y2="377.57"/><line class="k" x1="582.51" y1="315.6" x2="572.23" y2="315.6"/><line class="k" x1="572.23" y1="377.57" x2="582.51" y2="377.57"/><line class="k" x1="595.04" y1="315.6" x2="595.04" y2="377.57"/><line class="k" x1="600.18" y1="315.6" x2="600.18" y2="377.57"/><g class="l"><path class="k" d="M589.85,344a96.6,96.6,0,0,1-.35-22.43"/><path class="k" d="M587.62,319.3h.09a1.85,1.85,0,0,1,1.84,1.84,1.75,1.75,0,0,1,0,.4"/><path class="k" d="M583.63,319.63a14.64,14.64,0,0,1,3.16-.35l.83,0"/><path class="k" d="M576,319.43c.82,0,1.63-.05,2.45-.05a50.34,50.34,0,0,1,5.21.25"/><path class="k" d="M575.48,319.89a.25.25,0,0,1,0-.08.39.39,0,0,1,.39-.39.2.2,0,0,1,.11,0"/><path class="k" d="M575.48,319.89q.56,7.32.56,14.67c0,3.16-.07,6.33-.22,9.48"/><path class="k" d="M577.05,345.16a1,1,0,0,1-.3,0,.94.94,0,0,1-1-.95.75.75,0,0,1,0-.21"/><path class="k" d="M589.84,344a.67.67,0,0,1,0,.24.79.79,0,0,1-.79.8.83.83,0,0,1-.22,0"/><path class="k" d="M634.22,315.6a6.87,6.87,0,0,1,6.85,6.88h0"/><path class="k" d="M641.08,370.68a6.88,6.88,0,0,1-6.86,6.88h0"/><path class="k" d="M589.85,372.88a98.7,98.7,0,0,1-.84-12.62,94.69,94.69,0,0,1,.5-9.82"/><path class="k" d="M587.62,348.2h.09a1.85,1.85,0,0,1,1.84,1.85,1.74,1.74,0,0,1,0,.39"/><path class="k" d="M583.63,348.53a14.64,14.64,0,0,1,3.16-.35l.83,0"/><path class="k" d="M576,348.34c.81,0,1.62-.06,2.44-.06,1.74,0,3.48.08,5.21.25"/><path class="k" d="M575.48,348.79a.19.19,0,0,1,0-.08.38.38,0,0,1,.39-.39l.11,0"/><path class="k" d="M575.48,348.79c.37,4.88.56,9.78.56,14.67q0,4.76-.22,9.49"/><path class="k" d="M577.05,374.06a1,1,0,0,1-.3.05,1,1,0,0,1-1-1,.68.68,0,0,1,0-.2"/><path class="k" d="M577.06,374.06a44.94,44.94,0,0,1,6.56-.48,46.07,46.07,0,0,1,5.25.3"/><path class="k" d="M589.84,372.88a.61.61,0,0,1,0,.24.79.79,0,0,1-.79.79.83.83,0,0,1-.22,0"/><path class="k" d="M577.05,345.15a48.17,48.17,0,0,1,6.57-.48,46.08,46.08,0,0,1,5.25.31"/></g><polygon class="m" points="554.33 351.23 554.33 369.13 554.17 369.5 553.81 369.65 539.7 369.65 539.33 369.5 539.18 369.13 539.18 351.23 539.33 350.87 539.7 350.71 553.81 350.71 554.17 350.87 554.33 351.23"/><line class="k" x1="554.33" y1="351.23" x2="554.33" y2="369.13"/><g class="l"><path class="k" d="M554.33,369.13a.52.52,0,0,1-.52.52"/></g><line class="k" x1="553.81" y1="369.65" x2="539.7" y2="369.65"/><g class="l"><path class="k" d="M539.7,369.65a.52.52,0,0,1-.52-.52"/></g><line class="k" x1="539.18" y1="369.13" x2="539.18" y2="351.23"/><g class="l"><path class="k" d="M539.18,351.23a.51.51,0,0,1,.52-.51"/></g><line class="k" x1="539.7" y1="350.72" x2="553.81" y2="350.72"/><g class="l"><path class="k" d="M553.81,350.72a.51.51,0,0,1,.52.51"/></g><line class="k" x1="550.54" y1="352.26" x2="550.54" y2="368.1"/><line class="k" x1="550.02" y1="368.62" x2="540.73" y2="368.62"/><line class="k" x1="540.21" y1="368.1" x2="540.21" y2="352.26"/><line class="k" x1="540.73" y1="351.75" x2="550.02" y2="351.75"/><g class="l"><path class="k" d="M550.54,368.1a.52.52,0,0,1-.52.52"/><path class="k" d="M540.73,368.62a.53.53,0,0,1-.52-.52"/><path class="k" d="M540.21,352.26a.52.52,0,0,1,.52-.51"/><path class="k" d="M550,351.75a.51.51,0,0,1,.52.51"/></g><polygon class="m" points="552.26 359.32 550.82 359.46 550.49 359.57 548.67 359.8 548.43 359.93 548.33 360.18 548.43 360.44 548.67 360.56 550.49 360.79 550.82 360.9 552.26 361.04 552.87 360.79 553.12 360.18 552.87 359.57 552.26 359.32"/><g class="l"><path class="k" d="M552.26,359.32a.86.86,0,0,1,0,1.72"/></g><line class="k" x1="550.82" y1="360.9" x2="552.26" y2="361.04"/><g class="l"><path class="k" d="M550.82,360.9a.65.65,0,0,1-.33-.11"/></g><line class="k" x1="548.67" y1="360.56" x2="550.49" y2="360.79"/><g class="l"><path class="k" d="M548.67,360.56a.38.38,0,0,1-.34-.38.39.39,0,0,1,.34-.38"/></g><line class="k" x1="550.49" y1="359.57" x2="548.67" y2="359.8"/><g class="l"><path class="k" d="M550.49,359.57a.76.76,0,0,1,.33-.11"/></g><line class="k" x1="552.26" y1="359.32" x2="550.82" y2="359.46"/><line class="k" x1="551.4" y1="360.65" x2="550.9" y2="360.65"/><line class="k" x1="550.9" y1="359.71" x2="551.4" y2="359.71"/><line class="k" x1="551.4" y1="359.71" x2="551.4" y2="360.65"/><g class="l"><path class="k" d="M550.9,360.65a.47.47,0,0,1,0-.94"/><path class="k" d="M550.49,360.79a.73.73,0,0,1,0-1.22"/></g><polygon class="m" points="524.55 392.02 524.55 380.66 524.29 378.96 523.52 377.42 522.31 376.19 520.36 375.17 518.18 374.81 516.01 375.17 514.05 376.19 512.85 377.42 512.08 378.96 511.81 380.66 511.81 392.02 524.55 392.02"/><line class="k" x1="511.81" y1="392.02" x2="511.81" y2="380.66"/><line class="k" x1="511.81" y1="392.02" x2="524.55" y2="392.02"/><line class="k" x1="524.55" y1="392.02" x2="524.55" y2="380.66"/><line class="k" x1="513.88" y1="387.89" x2="513.88" y2="380.66"/><line class="k" x1="522.49" y1="387.89" x2="522.49" y2="380.66"/><line class="k" x1="522.49" y1="387.89" x2="513.88" y2="387.89"/><g class="l"><path class="k" d="M511.81,380.66a5.6,5.6,0,0,1,2.24-4.47"/><path class="k" d="M522.31,376.19a5.59,5.59,0,0,1,2.24,4.47"/><path class="k" d="M514.05,376.19a6.87,6.87,0,0,1,8.26,0"/><path class="k" d="M522.31,376.19a5.59,5.59,0,0,1,2.24,4.47"/><path class="k" d="M518.18,374.81a6.84,6.84,0,0,1,4.13,1.38"/><path class="k" d="M521.07,377.84a3.53,3.53,0,0,1,1.42,2.82"/><path class="k" d="M515.29,377.84a4.83,4.83,0,0,1,5.78,0"/><path class="k" d="M513.88,380.66a3.52,3.52,0,0,1,1.41-2.82"/></g><polygon class="m" points="216.26 309.26 214.88 310.96 214.14 313.09 214.14 315.37 214.88 317.5 216.26 319.2 216.26 329.93 218.17 329.93 220.08 322.08 220.08 319.79 221.12 316.14 221.12 312.32 220.08 308.67 220.08 306.38 218.17 298.53 216.26 298.53 216.26 309.26"/><line class="k" x1="216.26" y1="298.53" x2="216.26" y2="309.26"/><line class="k" x1="218.17" y1="298.53" x2="216.26" y2="298.53"/><line class="k" x1="220.08" y1="306.38" x2="218.17" y2="298.53"/><line class="k" x1="220.08" y1="308.67" x2="220.08" y2="306.38"/><line class="k" x1="221.12" y1="312.32" x2="220.08" y2="308.67"/><line class="k" x1="221.12" y1="316.14" x2="221.12" y2="312.32"/><line class="k" x1="220.08" y1="319.79" x2="221.12" y2="316.14"/><line class="k" x1="220.08" y1="322.08" x2="220.08" y2="319.79"/><line class="k" x1="218.17" y1="329.93" x2="220.08" y2="322.08"/><line class="k" x1="216.26" y1="329.93" x2="218.17" y2="329.93"/><line class="k" x1="216.26" y1="319.2" x2="216.26" y2="329.93"/><line class="k" x1="214.88" y1="317.5" x2="216.26" y2="319.2"/><line class="k" x1="214.14" y1="315.37" x2="214.88" y2="317.5"/><line class="k" x1="214.14" y1="313.09" x2="214.14" y2="315.37"/><line class="k" x1="214.88" y1="310.96" x2="214.14" y2="313.09"/><line class="k" x1="216.26" y1="309.26" x2="214.88" y2="310.96"/><line class="k" x1="216.26" y1="298.53" x2="216.26" y2="329.93"/><line class="k" x1="220.08" y1="322.08" x2="220.08" y2="306.38"/><line class="k" x1="218.17" y1="298.53" x2="216.26" y2="298.53"/><line class="k" x1="217.02" y1="327.83" x2="217.02" y2="325.74"/><line class="k" x1="217.02" y1="325.74" x2="217.5" y2="325.74"/><line class="k" x1="217.5" y1="325.74" x2="217.5" y2="327.83"/><line class="k" x1="217.5" y1="327.83" x2="217.02" y2="327.83"/><line class="k" x1="217.02" y1="325.22" x2="217.02" y2="323.12"/><line class="k" x1="217.02" y1="323.12" x2="217.5" y2="323.12"/><line class="k" x1="217.5" y1="323.12" x2="217.5" y2="325.22"/><line class="k" x1="217.5" y1="325.22" x2="217.02" y2="325.22"/><line class="k" x1="218.17" y1="298.53" x2="218.17" y2="329.93"/><line class="k" x1="217.5" y1="322.6" x2="217.02" y2="322.6"/><line class="k" x1="217.02" y1="322.6" x2="217.02" y2="321.55"/><line class="k" x1="217.02" y1="321.55" x2="217.5" y2="321.55"/><line class="k" x1="217.5" y1="321.55" x2="217.5" y2="322.6"/><g class="l"><path class="k" d="M216.26,319.2a6.67,6.67,0,0,1,0-9.94"/></g><rect class="h" x="267.4" y="284.97" width="27.54" height="48.19"/><line class="k" x1="267.41" y1="284.97" x2="267.41" y2="333.16"/><line class="k" x1="294.94" y1="284.97" x2="267.41" y2="284.97"/><line class="k" x1="294.94" y1="333.16" x2="294.94" y2="284.97"/><line class="k" x1="267.41" y1="333.16" x2="294.94" y2="333.16"/><polygon class="m" points="266.37 314.23 253.64 314.23 251.91 314.69 250.66 315.95 250.19 317.67 250.19 324.55 250.66 326.27 251.91 327.53 253.64 328 266.37 328 266.37 314.23"/><polygon class="m" points="266.37 290.13 253.64 290.13 251.91 290.59 250.66 291.85 250.19 293.57 250.19 300.46 250.66 302.18 251.91 303.44 253.64 303.9 266.37 303.9 266.37 290.13"/><polygon class="m" points="295.98 314.23 295.98 328 308.71 328 310.43 327.53 311.69 326.27 312.16 324.55 312.16 317.67 311.69 315.95 310.43 314.69 308.71 314.23 295.98 314.23"/><polygon class="m" points="295.98 290.13 295.98 303.9 308.71 303.9 310.43 303.44 311.69 302.18 312.16 300.46 312.16 293.57 311.69 291.85 310.43 290.59 308.71 290.13 295.98 290.13"/><line class="k" x1="251.92" y1="317.67" x2="251.92" y2="324.55"/><line class="k" x1="253.64" y1="328" x2="266.37" y2="328"/><line class="k" x1="250.19" y1="317.67" x2="250.19" y2="324.55"/><line class="k" x1="266.37" y1="314.23" x2="253.64" y2="314.23"/><line class="k" x1="266.37" y1="328" x2="266.37" y2="314.23"/><line class="k" x1="251.92" y1="293.57" x2="251.92" y2="300.46"/><line class="k" x1="253.64" y1="303.9" x2="266.37" y2="303.9"/><line class="k" x1="250.19" y1="293.57" x2="250.19" y2="300.46"/><line class="k" x1="266.37" y1="290.13" x2="253.64" y2="290.13"/><line class="k" x1="266.37" y1="303.9" x2="266.37" y2="290.13"/><line class="k" x1="310.43" y1="317.67" x2="310.43" y2="324.55"/><line class="k" x1="308.71" y1="328" x2="295.98" y2="328"/><line class="k" x1="312.16" y1="317.67" x2="312.16" y2="324.55"/><line class="k" x1="295.98" y1="314.23" x2="308.71" y2="314.23"/><line class="k" x1="295.98" y1="328" x2="295.98" y2="314.23"/><line class="k" x1="310.43" y1="293.57" x2="310.43" y2="300.46"/><line class="k" x1="308.71" y1="303.9" x2="295.98" y2="303.9"/><line class="k" x1="312.16" y1="293.57" x2="312.16" y2="300.46"/><line class="k" x1="295.98" y1="290.13" x2="308.71" y2="290.13"/><line class="k" x1="295.98" y1="303.9" x2="295.98" y2="290.13"/><g class="l"><path class="k" d="M253.64,326.27a1.72,1.72,0,0,1-1.72-1.72"/><path class="k" d="M251.92,317.67a1.72,1.72,0,0,1,1.72-1.72"/><path class="k" d="M253.64,328a3.46,3.46,0,0,1-3.45-3.45"/><path class="k" d="M250.19,317.67a3.45,3.45,0,0,1,3.45-3.44"/><path class="k" d="M253.64,302.18a1.72,1.72,0,0,1-1.72-1.72"/><path class="k" d="M251.92,293.57a1.72,1.72,0,0,1,1.72-1.72"/><path class="k" d="M253.64,303.9a3.45,3.45,0,0,1-3.45-3.44"/><path class="k" d="M250.19,293.57a3.45,3.45,0,0,1,3.45-3.44"/><path class="k" d="M310.43,324.55a1.72,1.72,0,0,1-1.72,1.72"/><path class="k" d="M308.71,316a1.72,1.72,0,0,1,1.73,1.72"/><path class="k" d="M312.16,324.55a3.45,3.45,0,0,1-3.45,3.45"/><path class="k" d="M308.71,314.23a3.45,3.45,0,0,1,3.45,3.44"/><path class="k" d="M310.43,300.46a1.72,1.72,0,0,1-1.72,1.72"/><path class="k" d="M308.71,291.85a1.72,1.72,0,0,1,1.73,1.72"/><path class="k" d="M312.16,300.46a3.44,3.44,0,0,1-3.45,3.44"/><path class="k" d="M308.71,290.13a3.45,3.45,0,0,1,3.45,3.44"/></g><rect class="h" x="421.8" y="374.81" width="44.75" height="22.38"/><line class="k" x1="421.8" y1="397.19" x2="466.55" y2="397.19"/><line class="k" x1="466.55" y1="397.19" x2="466.55" y2="374.81"/><line class="k" x1="466.55" y1="374.81" x2="421.8" y2="374.81"/><line class="k" x1="421.8" y1="374.81" x2="421.8" y2="397.19"/><line class="k" x1="424.03" y1="386" x2="464.31" y2="386"/><line class="k" x1="426.11" y1="392.58" x2="429.9" y2="379.17"/><line class="k" x1="430.38" y1="393.25" x2="431.95" y2="380.78"/><line class="k" x1="436.21" y1="377.93" x2="437.49" y2="391.62"/><line class="k" x1="442.81" y1="379.73" x2="441.06" y2="391.62"/><line class="k" x1="445.21" y1="379.05" x2="445.21" y2="393.7"/><line class="k" x1="452.01" y1="378.98" x2="450.4" y2="393.46"/><line class="k" x1="454.56" y1="379.22" x2="454.56" y2="392.45"/><line class="k" x1="461.27" y1="379.09" x2="462.56" y2="392.65"/><line class="k" x1="459.66" y1="380.01" x2="458.35" y2="391.48"/><rect class="h" x="669.99" y="276.36" width="20.65" height="40.28"/><line class="k" x1="690.64" y1="316.64" x2="690.64" y2="276.36"/><line class="k" x1="690.64" y1="276.36" x2="669.99" y2="276.36"/><line class="k" x1="669.99" y1="276.36" x2="669.99" y2="316.64"/><line class="k" x1="669.99" y1="316.64" x2="690.64" y2="316.64"/><line class="k" x1="680.32" y1="314.62" x2="680.32" y2="278.37"/><line class="k" x1="686.39" y1="312.75" x2="674.02" y2="309.35"/><line class="k" x1="687.01" y1="308.91" x2="675.5" y2="307.51"/><line class="k" x1="672.87" y1="303.67" x2="685.5" y2="302.51"/><line class="k" x1="674.53" y1="297.73" x2="685.5" y2="299.3"/><line class="k" x1="673.9" y1="295.57" x2="687.42" y2="295.57"/><line class="k" x1="673.84" y1="289.44" x2="687.21" y2="290.89"/><line class="k" x1="674.06" y1="287.15" x2="686.27" y2="287.15"/><line class="k" x1="673.94" y1="281.11" x2="686.46" y2="279.95"/><line class="k" x1="674.79" y1="282.56" x2="685.37" y2="283.74"/><rect class="h" x="669.99" y="316.64" width="20.65" height="40.28"/><line class="k" x1="690.64" y1="356.91" x2="690.64" y2="316.64"/><line class="k" x1="690.64" y1="316.64" x2="669.99" y2="316.64"/><line class="k" x1="669.99" y1="316.64" x2="669.99" y2="356.91"/><line class="k" x1="669.99" y1="356.91" x2="690.64" y2="356.91"/><line class="k" x1="680.32" y1="354.9" x2="680.32" y2="318.65"/><line class="k" x1="686.39" y1="353.03" x2="674.02" y2="349.62"/><line class="k" x1="687.01" y1="349.19" x2="675.5" y2="347.78"/><line class="k" x1="672.87" y1="343.94" x2="685.5" y2="342.78"/><line class="k" x1="674.53" y1="338" x2="685.5" y2="339.58"/><line class="k" x1="673.9" y1="335.84" x2="687.42" y2="335.84"/><line class="k" x1="673.84" y1="329.72" x2="687.21" y2="331.17"/><line class="k" x1="674.06" y1="327.42" x2="686.27" y2="327.42"/><line class="k" x1="673.94" y1="321.39" x2="686.46" y2="320.23"/><line class="k" x1="674.79" y1="322.84" x2="685.37" y2="324.02"/><rect class="h" x="669.99" y="356.91" width="20.65" height="40.28"/><line class="k" x1="690.64" y1="397.19" x2="690.64" y2="356.91"/><line class="k" x1="690.64" y1="356.91" x2="669.99" y2="356.91"/><line class="k" x1="669.99" y1="356.91" x2="669.99" y2="397.19"/><line class="k" x1="669.99" y1="397.19" x2="690.64" y2="397.19"/><line class="k" x1="680.32" y1="395.17" x2="680.32" y2="358.93"/><line class="k" x1="686.39" y1="393.3" x2="674.02" y2="389.9"/><line class="k" x1="687.01" y1="389.46" x2="675.5" y2="388.06"/><line class="k" x1="672.87" y1="384.22" x2="685.5" y2="383.06"/><line class="k" x1="674.53" y1="378.28" x2="685.5" y2="379.85"/><line class="k" x1="673.9" y1="376.12" x2="687.42" y2="376.12"/><line class="k" x1="673.84" y1="369.99" x2="687.21" y2="371.44"/><line class="k" x1="674.06" y1="367.7" x2="686.27" y2="367.7"/><line class="k" x1="673.94" y1="361.66" x2="686.46" y2="360.5"/><line class="k" x1="674.79" y1="363.11" x2="685.37" y2="364.3"/><line class="k" x1="698.91" y1="297.01" x2="698.91" y2="297.01"/><line class="k" x1="698.91" y1="276.36" x2="698.91" y2="276.36"/><line class="k" x1="698.91" y1="276.36" x2="698.91" y2="297.01"/><polygon class="m" points="132.26 312.54 132.89 312.17 132.95 311.45 132.95 285.97 132.98 285.5 132.72 285.1 132.26 284.94 104.38 284.94 103.89 285.14 103.69 285.63 103.69 356.54 103.89 357.03 104.38 357.23 129.51 357.23 131.23 356.77 132.49 355.51 132.95 353.79 132.95 352.76 132.75 352.27 132.26 352.07 132.76 351.65 132.95 351.04 132.95 313.51 132.76 312.92 132.26 312.54"/><polygon class="m" points="155.32 312.48 157.96 311.96 160.19 310.46 161.69 308.23 162.21 305.6 162.21 291.83 161.69 289.19 160.19 286.96 157.96 285.47 155.32 284.94 133.98 284.94 133.25 285.24 132.95 285.97 132.95 311.45 133.25 312.18 133.98 312.48 155.32 312.48"/><line class="k" x1="133.98" y1="312.48" x2="155.32" y2="312.48"/><g class="l"><path class="k" d="M134,312.48a1,1,0,0,1-1-1"/></g><line class="k" x1="132.95" y1="285.97" x2="132.95" y2="311.45"/><g class="l"><path class="k" d="M133,286a1,1,0,0,1,1-1"/></g><line class="k" x1="155.32" y1="284.94" x2="133.98" y2="284.94"/><g class="l"><path class="k" d="M155.32,284.94a6.88,6.88,0,0,1,6.89,6.89"/></g><line class="k" x1="162.21" y1="305.6" x2="162.21" y2="291.83"/><g class="l"><path class="k" d="M162.21,305.6a6.88,6.88,0,0,1-6.88,6.88"/></g><line class="k" x1="132.95" y1="352.76" x2="132.95" y2="353.79"/><line class="k" x1="129.51" y1="357.23" x2="104.38" y2="357.23"/><line class="k" x1="103.69" y1="356.54" x2="103.69" y2="352.76"/><line class="k" x1="104.38" y1="352.07" x2="132.26" y2="352.07"/><line class="k" x1="103.69" y1="352.76" x2="103.69" y2="312.48"/><line class="k" x1="103.69" y1="312.48" x2="106.1" y2="312.48"/><line class="k" x1="132.95" y1="313.51" x2="132.95" y2="351.04"/><line class="k" x1="131.92" y1="352.07" x2="114.66" y2="352.07"/><line class="k" x1="114.66" y1="312.48" x2="131.92" y2="312.48"/><line class="k" x1="106.1" y1="352.07" x2="112.59" y2="352.07"/><line class="k" x1="112.59" y1="312.48" x2="106.1" y2="312.48"/><line class="k" x1="132.95" y1="289.42" x2="132.95" y2="285.63"/><line class="k" x1="132.26" y1="284.94" x2="104.38" y2="284.94"/><line class="k" x1="103.69" y1="285.63" x2="103.69" y2="289.42"/><line class="k" x1="103.69" y1="289.42" x2="103.69" y2="312.48"/><line class="k" x1="103.69" y1="312.48" x2="106.1" y2="312.48"/><line class="k" x1="132.95" y1="311.45" x2="132.95" y2="291.14"/><line class="k" x1="114.66" y1="312.48" x2="131.92" y2="312.48"/><line class="k" x1="114.66" y1="312.48" x2="106.1" y2="312.48"/><line class="k" x1="162.21" y1="305.6" x2="162.21" y2="291.83"/><line class="k" x1="155.32" y1="284.94" x2="133.98" y2="284.94"/><line class="k" x1="132.95" y1="285.97" x2="132.95" y2="311.45"/><line class="k" x1="133.98" y1="312.48" x2="155.32" y2="312.48"/><line class="k" x1="105.07" y1="311.45" x2="105.07" y2="285.97"/><line class="k" x1="105.07" y1="313.51" x2="105.07" y2="351.04"/><g class="l"><path class="k" d="M104.38,357.23a.69.69,0,0,1-.69-.69"/><path class="k" d="M103.69,352.76a.69.69,0,0,1,.69-.69"/><path class="k" d="M132.26,352.07a.69.69,0,0,1,.69.69"/><path class="k" d="M133,351a1,1,0,0,1-1,1"/><path class="k" d="M131.92,312.48a1,1,0,0,1,1,1"/><path class="k" d="M132.26,284.94a.69.69,0,0,1,.69.69"/><path class="k" d="M103.69,285.63a.69.69,0,0,1,.69-.69"/><path class="k" d="M133,311.45a1,1,0,0,1-1,1"/><path class="k" d="M133,286a1,1,0,0,1,1-1"/><path class="k" d="M134,312.48a1,1,0,0,1-1-1"/></g><line class="k" x1="105.07" y1="285.97" x2="128.52" y2="285.97"/><g class="l"><path class="k" d="M109.07,311.49a19.85,19.85,0,0,1-.7-5.19,19.51,19.51,0,0,1,15.41-19.08"/><path class="k" d="M109.89,313.51a118,118,0,0,1,1.5,18.76,118,118,0,0,1-1.5,18.77"/><path class="k" d="M162.21,305.6a6.88,6.88,0,0,1-6.88,6.88"/><path class="k" d="M155.32,284.94a6.88,6.88,0,0,1,6.89,6.89"/><path class="k" d="M133,353.79a3.44,3.44,0,0,1-3.44,3.44"/></g><line class="k" x1="237.01" y1="389.66" x2="237.01" y2="383.89"/><line class="k" x1="237.01" y1="383.89" x2="239.35" y2="385.79"/><line class="k" x1="239.35" y1="385.79" x2="241.7" y2="383.89"/><line class="k" x1="241.7" y1="383.89" x2="241.7" y2="389.66"/><polygon class="n" points="660.35 276.36 660.35 269.48 698.9 269.48 698.9 276.36 698.9 405.45 690.64 405.45 690.64 276.36 660.35 276.36"/><rect x="180.49" y="376.53" width="3.44" height="20.65"/><polygon class="n" points="183.93 376.53 208.03 376.53 208.03 397.19 204.59 397.19 204.59 379.98 183.93 379.98 183.93 376.53"/><rect x="329.89" y="364.14" width="2.41" height="33.05"/><polygon class="n" points="389.1 397.19 690.64 397.19 690.64 405.45 471.02 405.45 389.1 405.45 389.1 397.19"/><rect x="387.37" y="401.49" width="1.72" height="3.96"/><polygon class="n" points="421.8 379.97 421.8 397.19 418.35 397.19 418.35 383.42 392.54 383.42 392.54 397.19 389.1 397.19 389.1 379.97 421.8 379.97"/><rect x="351.23" y="401.49" width="1.72" height="3.96"/><rect x="329.89" y="331.44" width="2.41" height="1.72"/><polygon class="n" points="488.23 269.48 488.23 276.36 453.81 276.36 453.81 331.44 426.27 331.44 426.27 324.55 446.93 324.55 446.93 269.48 488.23 269.48"/><rect x="473.6" y="262.59" width="16.35" height="6.88"/><polygon class="n" points="424.55 317.67 440.04 317.67 440.04 262.59 473.61 262.59 473.61 269.48 446.93 269.48 446.93 324.55 424.55 324.55 424.55 317.67"/><rect x="199.08" y="262.59" width="37.87" height="6.88"/><polygon class="n" points="343.66 262.59 343.66 317.67 359.15 317.67 359.15 324.55 336.77 324.55 336.77 269.48 302.35 269.48 302.35 262.59 343.66 262.59"/><polygon class="n" points="336.77 269.48 336.77 324.55 357.43 324.55 357.43 331.44 329.89 331.44 329.89 276.36 304.07 276.36 304.07 269.48 336.77 269.48"/><rect x="91.68" y="262.59" width="42" height="6.88"/><rect x="91.68" y="269.48" width="40.28" height="6.88"/><rect x="200.8" y="269.48" width="34.42" height="6.88"/><rect x="91.68" y="276.36" width="8.26" height="129.09"/><rect x="99.94" y="397.19" width="251.29" height="8.26"/><rect x="491.68" y="373.09" width="2.41" height="24.1"/><polygon class="n" points="491.68 313.88 557.77 313.88 557.77 310.78 560.18 310.78 560.18 377.56 594.6 377.56 594.6 397.19 592.19 397.19 592.19 379.98 544 379.98 544 397.19 541.59 397.19 541.59 377.56 557.77 377.56 557.77 316.29 494.09 316.29 494.09 345.55 491.68 345.55 491.68 313.88"/><rect x="557.77" y="276.36" width="2.41" height="3.44"/><rect x="522.66" y="269.48" width="68.85" height="6.88"/><rect x="658.63" y="262.59" width="40.28" height="6.88"/><rect x="520.94" y="262.59" width="72.29" height="6.88"/><polygon class="n" points="94.43 262.59 94.43 262.59 95.81 262.59 95.81 229.89 97.19 229.89 97.19 262.59 94.43 262.59"/><polygon class="n" points="693.4 229.89 694.77 229.89 694.77 262.59 696.15 262.59 693.4 262.59 693.4 229.89"/><polygon class="n" points="571.54 397.19 571.54 391.68 571.54 379.97 574.98 379.97 574.98 397.19 571.54 397.19"/><line class="k" x1="95.81" y1="262.59" x2="91.68" y2="262.59"/><line class="k" x1="91.68" y1="262.59" x2="91.68" y2="405.45"/><line class="k" x1="91.68" y1="405.45" x2="471.02" y2="405.45"/><line class="k" x1="471.02" y1="405.45" x2="690.64" y2="405.45"/><line class="k" x1="690.64" y1="405.45" x2="698.91" y2="405.45"/><line class="k" x1="698.91" y1="405.45" x2="698.91" y2="262.59"/><line class="k" x1="698.91" y1="262.59" x2="694.78" y2="262.59"/><line class="k" x1="694.77" y1="262.59" x2="694.77" y2="212.68"/><line class="k" x1="694.77" y1="212.68" x2="95.81" y2="212.68"/><line class="k" x1="95.81" y1="212.68" x2="95.81" y2="262.59"/><path class="o" d="M369.12,349.71v7h-.72v-6.35h-1.65v-.64Z"/><path class="o" d="M370.8,356.2a.53.53,0,0,1,.53-.54.54.54,0,0,1,.54.54.55.55,0,0,1-.54.55A.54.54,0,0,1,370.8,356.2Z"/><path class="o" d="M372.81,353.2c0-2.22,1.17-3.55,2.79-3.55s2.8,1.33,2.8,3.55-1.18,3.56-2.8,3.56S372.81,355.43,372.81,353.2Zm4.85,0c0-1.86-.84-2.89-2.06-2.89s-2.06,1-2.06,2.89.84,2.9,2.06,2.9S377.66,355.07,377.66,353.2Z"/><path class="o" d="M381.36,349.71v7h-.72v-6.35H379v-.64Z"/><path class="o" d="M259.77,349.71v7h-.72v-6.35H257.4v-.64Z"/><path class="o" d="M261.45,356.2a.53.53,0,0,1,.53-.54.54.54,0,0,1,.54.54.55.55,0,0,1-.54.55A.54.54,0,0,1,261.45,356.2Z"/><path class="o" d="M263.46,353.2c0-2.22,1.17-3.55,2.79-3.55s2.8,1.33,2.8,3.55-1.18,3.56-2.8,3.56S263.46,355.43,263.46,353.2Zm4.85,0c0-1.86-.84-2.89-2.06-2.89s-2.06,1-2.06,2.89.84,2.9,2.06,2.9S268.31,355.07,268.31,353.2Z"/><path class="o" d="M274.85,356.06v.64h-4.91v-.51l2.91-2.85c.79-.77.94-1.24.94-1.72,0-.81-.57-1.31-1.64-1.31a2.38,2.38,0,0,0-1.91.78l-.51-.44a3.15,3.15,0,0,1,2.48-1c1.42,0,2.32.72,2.32,1.89a2.85,2.85,0,0,1-1.15,2.18L271,356.06Z"/><path class="o" d="M508.9,356v7h-.72v-6.35h-1.65V356Z"/><path class="o" d="M510.58,362.44a.53.53,0,0,1,.53-.54.54.54,0,0,1,.54.54.55.55,0,0,1-.54.55A.54.54,0,0,1,510.58,362.44Z"/><path class="o" d="M512.59,359.45c0-2.23,1.17-3.56,2.79-3.56s2.8,1.33,2.8,3.56S517,363,515.38,363,512.59,361.67,512.59,359.45Zm4.85,0c0-1.87-.84-2.9-2.06-2.9s-2.06,1-2.06,2.9.84,2.89,2.06,2.89S517.44,361.31,517.44,359.45Z"/><path class="o" d="M523.75,360.93c0,1.17-.85,2.07-2.54,2.07a3.64,3.64,0,0,1-2.52-.9l.35-.57a3.07,3.07,0,0,0,2.17.81c1.16,0,1.8-.54,1.8-1.41s-.59-1.39-1.89-1.39h-.5V359l1.94-2.43H519V356h4.5v.51l-2,2.49C523,359,523.75,359.82,523.75,360.93Z"/><path class="o" d="M648,335v7h-.72v-6.35h-1.65V335Z"/><path class="o" d="M649.69,341.53a.53.53,0,0,1,.53-.54.54.54,0,0,1,.54.54.55.55,0,0,1-.54.55A.54.54,0,0,1,649.69,341.53Z"/><path class="o" d="M651.7,338.53c0-2.22,1.17-3.55,2.79-3.55s2.8,1.33,2.8,3.55-1.18,3.56-2.8,3.56S651.7,340.76,651.7,338.53Zm4.85,0c0-1.86-.84-2.89-2.06-2.89s-2.06,1-2.06,2.89.84,2.9,2.06,2.9S656.55,340.4,656.55,338.53Z"/><path class="o" d="M664.27,340.19h-1.4V342h-.72v-1.84H658.2v-.52l3.71-4.63h.8l-3.58,4.51h3v-1.61h.7v1.61h1.4Z"/><path class="o" d="M378.5,283.54v7h-.72v-6.35h-1.65v-.64Z"/><path class="o" d="M380.18,290a.53.53,0,0,1,.53-.54.54.54,0,0,1,.54.54.55.55,0,0,1-.54.55A.54.54,0,0,1,380.18,290Z"/><path class="o" d="M382.19,287c0-2.22,1.17-3.55,2.79-3.55s2.8,1.33,2.8,3.55-1.18,3.56-2.8,3.56S382.19,289.26,382.19,287Zm4.85,0c0-1.86-.84-2.89-2.06-2.89s-2.06,1-2.06,2.89.84,2.9,2.06,2.9S387,288.9,387,287Z"/><path class="o" d="M393.56,288.47c0,1.19-.83,2.12-2.54,2.12a3.61,3.61,0,0,1-2.51-.9l.35-.57a3,3,0,0,0,2.15.81c1.19,0,1.82-.58,1.82-1.43s-.56-1.46-2.34-1.46H389l.36-3.5h3.83v.64H390l-.24,2.22h.9C392.76,286.4,393.56,287.24,393.56,288.47Z"/></svg>