<svg xmlns="http://www.w3.org/2000/svg" xmlns:xlink="http://www.w3.org/1999/xlink" viewBox="0 0 790.58 618.13"><defs><style>.a,.f,.g{fill:none;}.b{fill:#595a5c;}.c{fill:#b6906c;}.d,.i{fill:#fff;}.e{fill:#231f20;}.f{stroke:#000;}.f,.g{stroke-linecap:round;stroke-linejoin:round;stroke-width:0.34px;}.g{stroke:#454545;}.h{clip-path:url(#a);}.i,.j{fill-rule:evenodd;}.k{fill:#58595b;}</style><clipPath id="a"><polygon class="a" points="241.36 213.07 241.36 405.05 289.79 405.05 490.42 405.05 549.22 405.05 549.22 213.07 241.36 213.07"/></clipPath></defs><path class="b" d="M55.31,597.13H57.1V609.9H55.31Zm.92,6.11h4.09a1.89,1.89,0,0,0,1-.27,1.82,1.82,0,0,0,.68-.77,2.67,2.67,0,0,0,.24-1.16,2.7,2.7,0,0,0-.24-1.16,1.82,1.82,0,0,0-1.7-1H56.23v-1.7h4a4.09,4.09,0,0,1,2,.48A3.45,3.45,0,0,1,63.62,599a4.64,4.64,0,0,1,0,4.11,3.34,3.34,0,0,1-1.35,1.36,4,4,0,0,1-2,.49h-4Z"/><path class="b" d="M67.7,606.33a2.07,2.07,0,0,0,.49,1.48,1.76,1.76,0,0,0,1.37.52,1.89,1.89,0,0,0,1.37-.46,1.79,1.79,0,0,0,.48-1.33l.12,1.91A2.58,2.58,0,0,1,69.06,610a2.89,2.89,0,0,1-2.33-1,4.08,4.08,0,0,1-.82-2.73v-5.55H67.7Zm.22-7.86a1.93,1.93,0,0,1-.56-1.5,2.07,2.07,0,0,1,.56-1.57,2.56,2.56,0,0,1,3.18,0,2.08,2.08,0,0,1,.57,1.56,1.94,1.94,0,0,1-.57,1.5,2.65,2.65,0,0,1-3.18,0Zm2.26-.86a.94.94,0,0,0,.24-.68,1,1,0,0,0-.24-.7.91.91,0,0,0-.67-.25.92.92,0,0,0-.67.25,1,1,0,0,0-.23.7,1,1,0,0,0,.23.68.92.92,0,0,0,.67.24A.9.9,0,0,0,70.18,597.61Zm1.23,3.17h1.78v9.12H71.41Z"/><path class="b" d="M77.1,609.63A2.82,2.82,0,0,1,76,608.36a5.08,5.08,0,0,1-.36-2v-2a5.05,5.05,0,0,1,.36-2,2.71,2.71,0,0,1,1-1.27,3,3,0,0,1,1.65-.44,2.71,2.71,0,0,1,1.48.42,3.22,3.22,0,0,1,1.09,1.19l-.18,1.86a2.19,2.19,0,0,0-.22-1,1.48,1.48,0,0,0-.61-.63,2,2,0,0,0-1-.21,1.71,1.71,0,0,0-1.37.55,2.26,2.26,0,0,0-.49,1.56v2a2.19,2.19,0,0,0,.49,1.54,1.74,1.74,0,0,0,1.37.54,1.93,1.93,0,0,0,1-.23,1.45,1.45,0,0,0,.61-.64,2.25,2.25,0,0,0,.22-1l.12,1.92a2.66,2.66,0,0,1-.89,1.14,2.56,2.56,0,0,1-1.53.45A3.19,3.19,0,0,1,77.1,609.63Zm4-12.5H82.9V609.9H81.11Z"/><path class="b" d="M87.09,609.57a3.09,3.09,0,0,1-1.29-1.36,4.85,4.85,0,0,1-.44-2.15v-1.48a4.71,4.71,0,0,1,.44-2.12,3.12,3.12,0,0,1,1.29-1.35,4.71,4.71,0,0,1,4.06,0,3.12,3.12,0,0,1,1.29,1.35,4.71,4.71,0,0,1,.44,2.12v1.51a4.79,4.79,0,0,1-.44,2.13,3.12,3.12,0,0,1-1.29,1.35,4.62,4.62,0,0,1-4.06,0Zm3.49-1.83a2.43,2.43,0,0,0,.51-1.65v-1.51a2.43,2.43,0,0,0-.51-1.65,1.88,1.88,0,0,0-1.46-.58,1.85,1.85,0,0,0-1.45.58,2.38,2.38,0,0,0-.52,1.65v1.51a2.38,2.38,0,0,0,.52,1.65,1.82,1.82,0,0,0,1.45.59A1.85,1.85,0,0,0,90.58,607.74Z"/><path class="b" d="M95.43,600.78h1.79v9.12H95.43Zm4.42,1.72a2.16,2.16,0,0,0-.83-.15,1.83,1.83,0,0,0-1.33.47,1.79,1.79,0,0,0-.47,1.31L97,602.37a3.32,3.32,0,0,1,1.09-1.27,2.58,2.58,0,0,1,1.48-.45,3.39,3.39,0,0,1,1.13.18,2.62,2.62,0,0,1,.88.53l-1.17,1.58A1.56,1.56,0,0,0,99.85,602.5Z"/><path class="b" d="M102.15,600.78H104l2.81,7.93-1,1.94Zm8.07,0L106.34,612a2.6,2.6,0,0,1-.56,1,1.87,1.87,0,0,1-.84.52,4,4,0,0,1-1.23.16h-.36V612h.36a1.46,1.46,0,0,0,.8-.2,1.74,1.74,0,0,0,.51-.7l3.38-10.31Z"/><path class="b" d="M113.51,609.88a5.76,5.76,0,0,1-1.32-.48,4.89,4.89,0,0,1-1.13-.79l1.06-1.31a5.86,5.86,0,0,0,1.47.85,4.18,4.18,0,0,0,1.44.28,3.11,3.11,0,0,0,1.6-.33,1.1,1.1,0,0,0,.53-1,.79.79,0,0,0-.29-.66,1.66,1.66,0,0,0-.72-.29c-.29,0-.69-.1-1.22-.14h-.15l-.14,0h-.15a6.45,6.45,0,0,1-1.5-.26,2,2,0,0,1-1-.7,2.38,2.38,0,0,1-.41-1.49,3.07,3.07,0,0,1,.39-1.61,2.41,2.41,0,0,1,1.18-1,5.29,5.29,0,0,1,2-.32,6.38,6.38,0,0,1,2.6.52,6.16,6.16,0,0,1,1.13.66l-1.08,1.31a5.59,5.59,0,0,0-1.35-.66,4,4,0,0,0-1.3-.22,2.44,2.44,0,0,0-1.37.31,1.08,1.08,0,0,0-.46.94.64.64,0,0,0,.26.55,1.72,1.72,0,0,0,.66.25c.26,0,.64.07,1.12.1h.34a7.67,7.67,0,0,1,1.63.25,2.24,2.24,0,0,1,1.13.77,2.62,2.62,0,0,1,.45,1.65,2.92,2.92,0,0,1-.42,1.63,2.54,2.54,0,0,1-1.27,1A5.88,5.88,0,0,1,115,610,7.38,7.38,0,0,1,113.51,609.88Z"/><path class="b" d="M126,597.13h1.8V609.9H126Zm2.6,12.5a2.39,2.39,0,0,1-.93-1.16l.13-1.91a2.22,2.22,0,0,0,.21,1,1.48,1.48,0,0,0,.61.63,1.93,1.93,0,0,0,1,.22,1.74,1.74,0,0,0,1.37-.54,2.18,2.18,0,0,0,.49-1.53v-2a2.26,2.26,0,0,0-.49-1.56,1.71,1.71,0,0,0-1.37-.55,2,2,0,0,0-1,.21,1.36,1.36,0,0,0-.61.62,2.12,2.12,0,0,0-.21,1l-.19-1.76a3.37,3.37,0,0,1,1.08-1.24,2.67,2.67,0,0,1,1.49-.43,3,3,0,0,1,1.65.43,2.9,2.9,0,0,1,1.06,1.27,5.1,5.1,0,0,1,.36,2v2a4.94,4.94,0,0,1-.37,2,2.79,2.79,0,0,1-1.08,1.26,3.25,3.25,0,0,1-1.71.44A2.73,2.73,0,0,1,128.57,609.63Z"/><path class="b" d="M134.46,600.78h1.82l2.81,7.93-1,1.94Zm8.07,0L138.65,612a2.6,2.6,0,0,1-.56,1,1.87,1.87,0,0,1-.84.52,4,4,0,0,1-1.23.16h-.36V612H136a1.46,1.46,0,0,0,.8-.2,1.74,1.74,0,0,0,.51-.7l3.37-10.31Z"/><path class="b" d="M143.57,600.78h4.12v1.62h-4.12Zm1.46,8.56a2.77,2.77,0,0,1-.52-1.81v-9.4h1.8v9.42a.84.84,0,0,0,.13.51.46.46,0,0,0,.39.18h.86V610h-1A2,2,0,0,1,145,609.34Z"/><path class="b" d="M151.94,606.33a2.07,2.07,0,0,0,.49,1.48,1.76,1.76,0,0,0,1.37.52,1.91,1.91,0,0,0,1.37-.46,1.79,1.79,0,0,0,.48-1.33l.12,1.91A2.58,2.58,0,0,1,153.3,610a2.89,2.89,0,0,1-2.33-1,4.08,4.08,0,0,1-.82-2.73v-5.55h1.79Zm3.71-5.55h1.78v9.12h-1.78Z"/><rect class="c" x="612.92" y="591.68" width="35.43" height="2.83"/><path class="d" d="M648.48,594.64H612.79v-3.08h35.69ZM613,594.39h35.19v-2.58H613Z"/><rect class="c" x="612.92" y="601.6" width="70.74" height="2.83"/><path class="d" d="M683.78,604.56h-71v-3.08h71ZM613,604.31h70.49v-2.58H613Z"/><rect class="c" x="612.92" y="612.72" width="177.16" height="2.84"/><path class="d" d="M790.21,615.68H612.79V612.6H790.21ZM613,615.43H790v-2.58H613Z"/><path class="e" d="M587.26,596.28h-.8v-4.82l-.81.5v-.83l.81-.53h.8Z"/><path class="e" d="M589,595.91a1.67,1.67,0,0,1-.41-1.19v-2.58A1.65,1.65,0,0,1,589,591a2,2,0,0,1,2.42,0,1.65,1.65,0,0,1,.41,1.19v2.58a1.65,1.65,0,0,1-.41,1.19,2,2,0,0,1-2.42,0Zm1.83-.55a.89.89,0,0,0,.2-.64v-2.58a.89.89,0,0,0-.2-.64.82.82,0,0,0-.62-.22.86.86,0,0,0-.63.22.94.94,0,0,0-.2.64v2.58a.9.9,0,0,0,.21.64,1,1,0,0,0,1.24,0Z"/><path class="e" d="M593.22,595.91a1.67,1.67,0,0,1-.41-1.19v-2.58a1.65,1.65,0,0,1,.41-1.19,2,2,0,0,1,2.42,0,1.61,1.61,0,0,1,.41,1.19v2.58a1.65,1.65,0,0,1-.41,1.19,2,2,0,0,1-2.42,0Zm1.83-.55a.9.9,0,0,0,.21-.64v-2.58a.94.94,0,0,0-.2-.64.86.86,0,0,0-.63-.22.82.82,0,0,0-.62.22.89.89,0,0,0-.2.64v2.58a.89.89,0,0,0,.2.64,1,1,0,0,0,1.24,0Z"/><path class="e" d="M600.1,596.13a1.45,1.45,0,0,1-.6-.6,2.06,2.06,0,0,1-.21-1v-.67a2,2,0,0,1,.21-.94,1.37,1.37,0,0,1,.6-.59,2,2,0,0,1,.95-.21,2.21,2.21,0,0,1,.59.08,1.68,1.68,0,0,1,.51.22,1.54,1.54,0,0,1,.37.35l-.58.52a1.17,1.17,0,0,0-.4-.3,1.13,1.13,0,0,0-.48-.11.94.94,0,0,0-.71.26,1,1,0,0,0-.26.72v.67a1,1,0,0,0,.25.74.94.94,0,0,0,.72.27,1,1,0,0,0,.48-.12,1,1,0,0,0,.4-.32l.58.56a1.38,1.38,0,0,1-.38.34,1.62,1.62,0,0,1-.5.22,2.27,2.27,0,0,1-.59.07A2.12,2.12,0,0,1,600.1,596.13Z"/><path class="e" d="M603.4,592.22h.79v4.06h-.79Zm2.42,1.6a1,1,0,0,0-.21-.67.78.78,0,0,0-.6-.23.81.81,0,0,0-.6.21.73.73,0,0,0-.22.58l-.08-.78a1.46,1.46,0,0,1,.49-.57,1.22,1.22,0,0,1,.67-.2,1.33,1.33,0,0,1,.73.2,1.18,1.18,0,0,1,.46.56,2.4,2.4,0,0,1,.15.89v2.47h-.79Zm2.42,0a.93.93,0,0,0-.22-.67.85.85,0,0,0-.63-.23.72.72,0,0,0-.57.23.9.9,0,0,0-.21.64l-.16-.78a1.61,1.61,0,0,1,.51-.63,1.23,1.23,0,0,1,.69-.22,1.37,1.37,0,0,1,.75.2,1.09,1.09,0,0,1,.47.56,2.21,2.21,0,0,1,.17.89v2.47h-.8Z"/><path class="e" d="M584.33,605.5l2-2.64a1.85,1.85,0,0,0,.27-.47,1.29,1.29,0,0,0,.09-.45h0a.67.67,0,0,0-.2-.53.81.81,0,0,0-.56-.19.76.76,0,0,0-.56.21,1,1,0,0,0-.27.58h-.82a2,2,0,0,1,.29-.83,1.42,1.42,0,0,1,.56-.53,1.67,1.67,0,0,1,.79-.18,1.93,1.93,0,0,1,.87.17,1.21,1.21,0,0,1,.54.51,1.55,1.55,0,0,1,.19.8h0a1.84,1.84,0,0,1-.12.63,2.8,2.8,0,0,1-.35.63l-1.65,2.24h2.15v.76h-3.2Z"/><path class="e" d="M589,605.83a1.67,1.67,0,0,1-.41-1.19v-2.58a1.65,1.65,0,0,1,.41-1.19,2,2,0,0,1,2.42,0,1.65,1.65,0,0,1,.41,1.19v2.58a1.65,1.65,0,0,1-.41,1.19,2,2,0,0,1-2.42,0Zm1.83-.55a.89.89,0,0,0,.2-.64v-2.58a.89.89,0,0,0-.2-.64.82.82,0,0,0-.62-.22.86.86,0,0,0-.63.22.94.94,0,0,0-.19.64v2.58a.89.89,0,0,0,.2.64,1,1,0,0,0,1.24,0Z"/><path class="e" d="M593.22,605.83a1.67,1.67,0,0,1-.41-1.19v-2.58a1.61,1.61,0,0,1,.42-1.19,1.59,1.59,0,0,1,1.2-.42,1.45,1.45,0,0,1,1.62,1.61v2.58a1.61,1.61,0,0,1-.41,1.19,2,2,0,0,1-2.42,0Zm1.84-.55a.94.94,0,0,0,.2-.64v-2.58a.94.94,0,0,0-.2-.64.84.84,0,0,0-.63-.22.82.82,0,0,0-.62.22.89.89,0,0,0-.2.64v2.58a.89.89,0,0,0,.2.64.82.82,0,0,0,.62.22A.86.86,0,0,0,595.06,605.28Z"/><path class="e" d="M600.1,606.05a1.45,1.45,0,0,1-.6-.6,2.06,2.06,0,0,1-.2-1v-.67a2,2,0,0,1,.2-.94,1.37,1.37,0,0,1,.6-.59,2,2,0,0,1,.95-.21,2.35,2.35,0,0,1,.6.08,1.73,1.73,0,0,1,.5.22,1.38,1.38,0,0,1,.37.35l-.58.52a1.08,1.08,0,0,0-.4-.3,1.13,1.13,0,0,0-.48-.11,1,1,0,0,0-.71.26,1,1,0,0,0-.26.72v.67a1,1,0,0,0,.25.74.94.94,0,0,0,.72.27,1.14,1.14,0,0,0,.88-.44l.58.56a1.38,1.38,0,0,1-.38.34,1.62,1.62,0,0,1-.5.22,2.22,2.22,0,0,1-.59.07A2.12,2.12,0,0,1,600.1,606.05Z"/><path class="e" d="M603.4,602.14h.79v4.06h-.79Zm2.42,1.6a1,1,0,0,0-.21-.67.78.78,0,0,0-.6-.23.81.81,0,0,0-.6.21.73.73,0,0,0-.22.58l-.08-.78a1.46,1.46,0,0,1,.49-.57,1.22,1.22,0,0,1,.67-.2,1.3,1.3,0,0,1,.73.2,1.18,1.18,0,0,1,.46.56,2.4,2.4,0,0,1,.16.89v2.47h-.8Zm2.42,0a.93.93,0,0,0-.22-.67.85.85,0,0,0-.63-.23.73.73,0,0,0-.57.23.89.89,0,0,0-.2.64l-.16-.78a1.51,1.51,0,0,1,.5-.63,1.23,1.23,0,0,1,.69-.22,1.35,1.35,0,0,1,.75.2,1.16,1.16,0,0,1,.48.56,2.4,2.4,0,0,1,.16.89v2.47h-.8Z"/><path class="e" d="M585,615.58a1.34,1.34,0,0,1-.54-.49,2,2,0,0,1-.28-.77h.8a.75.75,0,0,0,.25.49.85.85,0,0,0,.54.17.72.72,0,0,0,.59-.25,1.1,1.1,0,0,0,.21-.72v-.48a1.1,1.1,0,0,0-.21-.72.72.72,0,0,0-.59-.25.83.83,0,0,0-.4.11,1.18,1.18,0,0,0-.34.33h-.72v-3h2.89v.76h-2.1V612a1,1,0,0,1,.34-.18.94.94,0,0,1,.37-.07,1.68,1.68,0,0,1,.84.2,1.29,1.29,0,0,1,.53.6,2.07,2.07,0,0,1,.19.94V614a2.25,2.25,0,0,1-.19.94,1.31,1.31,0,0,1-.55.59,1.69,1.69,0,0,1-.86.21A1.74,1.74,0,0,1,585,615.58Z"/><path class="e" d="M589,615.32a1.65,1.65,0,0,1-.41-1.19v-2.58a1.67,1.67,0,0,1,.41-1.19,2,2,0,0,1,2.42,0,1.65,1.65,0,0,1,.41,1.19v2.58a1.64,1.64,0,0,1-.41,1.19,1.92,1.92,0,0,1-2.42,0Zm1.83-.55a.89.89,0,0,0,.2-.64v-2.58a.88.88,0,0,0-.2-.63.78.78,0,0,0-.62-.22.82.82,0,0,0-.63.22.93.93,0,0,0-.2.63v2.58a.9.9,0,0,0,.21.64,1,1,0,0,0,1.24,0Z"/><path class="e" d="M593.22,615.32a1.65,1.65,0,0,1-.41-1.19v-2.58a1.67,1.67,0,0,1,.41-1.19,2,2,0,0,1,2.42,0,1.61,1.61,0,0,1,.41,1.19v2.58a1.64,1.64,0,0,1-.41,1.19,1.92,1.92,0,0,1-2.42,0Zm1.83-.55a.9.9,0,0,0,.21-.64v-2.58a.93.93,0,0,0-.2-.63.82.82,0,0,0-.63-.22.78.78,0,0,0-.62.22.88.88,0,0,0-.2.63v2.58a.89.89,0,0,0,.2.64,1,1,0,0,0,1.24,0Z"/><path class="e" d="M600.1,615.54a1.45,1.45,0,0,1-.6-.6,2,2,0,0,1-.21-1v-.67a2,2,0,0,1,.21-.94,1.45,1.45,0,0,1,.6-.6,2,2,0,0,1,.95-.2,2.22,2.22,0,0,1,.59.07,2,2,0,0,1,.51.22,1.76,1.76,0,0,1,.37.35l-.58.52a1.17,1.17,0,0,0-.4-.3,1.13,1.13,0,0,0-.48-.11.94.94,0,0,0-.71.26,1,1,0,0,0-.26.73V614a1.07,1.07,0,0,0,.25.74,1,1,0,0,0,.72.26,1.13,1.13,0,0,0,.48-.11,1.26,1.26,0,0,0,.4-.32l.58.55a1.42,1.42,0,0,1-.38.35,1.88,1.88,0,0,1-.5.21,2.27,2.27,0,0,1-.59.08A2,2,0,0,1,600.1,615.54Z"/><path class="e" d="M603.4,611.63h.79v4.06h-.79Zm2.42,1.6a1,1,0,0,0-.21-.66.75.75,0,0,0-.6-.24.81.81,0,0,0-.6.21.75.75,0,0,0-.22.58l-.08-.78a1.5,1.5,0,0,1,.49-.56,1.15,1.15,0,0,1,.67-.2,1.32,1.32,0,0,1,.73.19,1.28,1.28,0,0,1,.46.56,2.42,2.42,0,0,1,.15.9v2.46h-.79Zm2.42,0a.91.91,0,0,0-.22-.66.82.82,0,0,0-.63-.24.72.72,0,0,0-.57.23.9.9,0,0,0-.21.64l-.16-.78a1.51,1.51,0,0,1,.51-.62,1.16,1.16,0,0,1,.69-.22,1.37,1.37,0,0,1,.75.19,1.18,1.18,0,0,1,.47.56,2.22,2.22,0,0,1,.17.9v2.46h-.8Z"/><path class="c" d="M23.49,613.89A12.92,12.92,0,1,1,36.4,601,12.93,12.93,0,0,1,23.49,613.89Zm0-24.83A11.92,11.92,0,1,0,35.4,601,11.93,11.93,0,0,0,23.49,589.06Z"/><polygon class="d" points="35.77 588.74 9.42 600.98 35.77 613.21 32.02 600.98 35.77 588.74"/><path class="c" d="M36.58,614.14,8.23,601l28.35-13.17-4,13.17ZM10.61,601,35,612.29,31.5,601,35,589.66Z"/><path class="c" d="M2.52,605.19a5,5,0,0,1-1.11-.38,4.4,4.4,0,0,1-1-.64l.81-1a3.72,3.72,0,0,0,1.16.69,4.08,4.08,0,0,0,1.38.23,2.73,2.73,0,0,0,1.55-.38,1.17,1.17,0,0,0,.55-1.05h0a1.12,1.12,0,0,0-.25-.77,1.44,1.44,0,0,0-.64-.42,8.23,8.23,0,0,0-1-.25H3.89l-.1,0a9.48,9.48,0,0,1-1.5-.36,2.08,2.08,0,0,1-1-.73,2.42,2.42,0,0,1-.41-1.51h0a2.77,2.77,0,0,1,.38-1.47,2.44,2.44,0,0,1,1.12-.92,4.48,4.48,0,0,1,1.77-.32,4.6,4.6,0,0,1,1,.11,4.9,4.9,0,0,1,1.86.86l-.73,1a4.61,4.61,0,0,0-1-.58,3,3,0,0,0-1.06-.2,2.44,2.44,0,0,0-1.46.38,1.24,1.24,0,0,0-.53,1.07h0a1,1,0,0,0,.27.75,1.74,1.74,0,0,0,.67.4,9.3,9.3,0,0,0,1.12.27h.24a7.93,7.93,0,0,1,1.4.41,2.22,2.22,0,0,1,.94.76,2.4,2.4,0,0,1,.38,1.43h0a2.62,2.62,0,0,1-.4,1.45,2.54,2.54,0,0,1-1.16.91,4.8,4.8,0,0,1-1.83.31A6.44,6.44,0,0,1,2.52,605.19Z"/><rect class="c" x="612.5" y="600.68" width="1" height="4.68"/><rect class="c" x="612.5" y="590.76" width="1" height="4.68"/><rect class="c" x="612.5" y="611.45" width="1" height="5.24"/><rect class="c" x="789.58" y="611.45" width="1" height="5.24"/><rect class="c" x="682.59" y="600.68" width="1" height="4.68"/><rect class="c" x="647.3" y="590.76" width="1" height="4.68"/><rect class="a" width="790.34" height="618.13"/><rect class="d" x="400.48" y="311.31" width="12.45" height="79.9"/><line class="f" x1="400.48" y1="311.31" x2="400.48" y2="391.21"/><line class="f" x1="412.93" y1="311.31" x2="400.48" y2="311.31"/><line class="f" x1="412.93" y1="391.21" x2="412.93" y2="311.31"/><line class="f" x1="400.48" y1="391.21" x2="412.93" y2="391.21"/><rect class="d" x="417.78" y="221.38" width="117.61" height="21.04"/><line class="f" x1="535.38" y1="242.41" x2="417.77" y2="242.41"/><line class="f" x1="417.78" y1="242.41" x2="417.78" y2="221.38"/><line class="f" x1="417.78" y1="221.38" x2="535.38" y2="221.38"/><line class="f" x1="535.38" y1="221.38" x2="535.38" y2="242.41"/><rect class="d" x="249.15" y="248.18" width="31.13" height="31.13"/><line class="f" x1="249.15" y1="248.18" x2="249.15" y2="279.32"/><line class="f" x1="280.28" y1="248.18" x2="249.15" y2="248.18"/><line class="f" x1="280.28" y1="279.32" x2="280.28" y2="248.18"/><line class="f" x1="249.15" y1="279.32" x2="280.28" y2="279.32"/><rect class="d" x="383.88" y="221.66" width="13.84" height="20.75"/><line class="f" x1="383.88" y1="221.66" x2="383.88" y2="242.41"/><line class="f" x1="397.71" y1="221.66" x2="383.88" y2="221.66"/><line class="f" x1="397.71" y1="242.41" x2="397.71" y2="221.66"/><line class="f" x1="383.88" y1="242.41" x2="397.71" y2="242.41"/><line class="f" x1="398.06" y1="391.21" x2="365.89" y2="391.21"/><line class="f" x1="296.71" y1="391.21" x2="365.89" y2="391.21"/><line class="f" x1="253.47" y1="405.05" x2="253.47" y2="405.05"/><line class="f" x1="248.28" y1="405.05" x2="248.28" y2="398.13"/><line class="f" x1="241.36" y1="213.08" x2="248.28" y2="213.08"/><line class="f" x1="535.38" y1="213.08" x2="535.38" y2="213.08"/><line class="f" x1="490.41" y1="405.05" x2="481.77" y2="405.05"/><line class="f" x1="549.22" y1="405.05" x2="490.41" y2="405.05"/><line class="f" x1="535.38" y1="391.21" x2="483.5" y2="391.21"/><line class="f" x1="542.3" y1="398.13" x2="483.5" y2="398.13"/><line class="f" x1="549.22" y1="405.05" x2="549.22" y2="278.8"/><line class="f" x1="549.22" y1="247.67" x2="549.22" y2="213.07"/><line class="f" x1="535.38" y1="391.21" x2="535.38" y2="280.53"/><line class="f" x1="535.38" y1="245.94" x2="535.38" y2="221.38"/><line class="f" x1="542.3" y1="398.13" x2="542.3" y2="280.53"/><line class="f" x1="542.3" y1="245.94" x2="542.3" y2="213.07"/><line class="f" x1="400.48" y1="391.21" x2="398.06" y2="391.21"/><line class="f" x1="248.28" y1="391.21" x2="248.28" y2="398.13"/><line class="f" x1="293.25" y1="405.05" x2="293.25" y2="405.05"/><line class="f" x1="416.05" y1="405.05" x2="364.16" y2="405.05"/><line class="f" x1="414.32" y1="398.13" x2="365.89" y2="398.13"/><line class="f" x1="296.71" y1="398.13" x2="296.71" y2="391.21"/><line class="f" x1="365.89" y1="398.13" x2="365.89" y2="391.21"/><line class="f" x1="483.5" y1="398.13" x2="483.5" y2="391.21"/><line class="f" x1="414.32" y1="398.13" x2="414.32" y2="391.21"/><line class="f" x1="414.32" y1="391.21" x2="400.48" y2="391.21"/><line class="f" x1="481.77" y1="405.05" x2="481.77" y2="398.13"/><line class="f" x1="481.77" y1="398.13" x2="483.5" y2="398.13"/><line class="f" x1="416.05" y1="405.05" x2="416.05" y2="398.13"/><line class="f" x1="416.05" y1="398.13" x2="414.32" y2="398.13"/><line class="f" x1="481.77" y1="405.05" x2="416.05" y2="405.05"/><line class="f" x1="483.5" y1="391.21" x2="414.32" y2="391.21"/><line class="f" x1="364.16" y1="405.05" x2="364.16" y2="398.13"/><line class="f" x1="364.16" y1="398.13" x2="365.89" y2="398.13"/><line class="f" x1="298.44" y1="405.05" x2="298.44" y2="398.13"/><line class="f" x1="298.44" y1="398.13" x2="296.71" y2="398.13"/><line class="f" x1="298.44" y1="405.05" x2="364.16" y2="405.05"/><line class="f" x1="289.79" y1="405.05" x2="253.47" y2="405.05"/><line class="f" x1="298.44" y1="405.05" x2="289.79" y2="405.05"/><line class="f" x1="296.71" y1="391.21" x2="248.28" y2="391.21"/><line class="f" x1="296.71" y1="398.13" x2="248.28" y2="398.13"/><line class="f" x1="542.3" y1="280.53" x2="535.38" y2="280.53"/><line class="f" x1="542.3" y1="245.94" x2="535.38" y2="245.94"/><line class="f" x1="549.22" y1="278.8" x2="549.22" y2="247.66"/><line class="f" x1="535.38" y1="245.94" x2="535.38" y2="280.53"/><line class="f" x1="542.3" y1="247.67" x2="549.22" y2="247.67"/><line class="f" x1="542.3" y1="247.67" x2="542.3" y2="245.94"/><line class="f" x1="542.3" y1="278.8" x2="549.22" y2="278.8"/><line class="f" x1="542.3" y1="278.8" x2="542.3" y2="280.53"/><line class="f" x1="538.84" y1="250.09" x2="538.84" y2="276.37"/><line class="f" x1="541.61" y1="276.38" x2="541.61" y2="250.09"/><line class="f" x1="540.22" y1="250.09" x2="540.22" y2="276.37"/><line class="f" x1="378" y1="221.38" x2="371.08" y2="221.38"/><line class="f" x1="367.27" y1="221.38" x2="366.49" y2="221.38"/><line class="f" x1="362.69" y1="221.38" x2="361.91" y2="221.38"/><line class="f" x1="358.11" y1="221.38" x2="351.19" y2="221.38"/><line class="f" x1="347.38" y1="221.38" x2="346.86" y2="221.38"/><line class="f" x1="346.86" y1="221.38" x2="339.95" y2="221.38"/><line class="f" x1="535.38" y1="213.08" x2="386.3" y2="213.08"/><line class="f" x1="400.48" y1="238.67" x2="400.48" y2="221.38"/><line class="f" x1="398.06" y1="282.6" x2="374.54" y2="282.6"/><line class="f" x1="343.41" y1="282.6" x2="248.28" y2="282.6"/><line class="f" x1="398.06" y1="280.18" x2="374.54" y2="280.18"/><line class="f" x1="337.53" y1="280.18" x2="248.28" y2="280.18"/><line class="f" x1="248.28" y1="391.21" x2="248.28" y2="282.6"/><line class="f" x1="248.28" y1="280.18" x2="248.28" y2="247.32"/><line class="f" x1="248.28" y1="243.86" x2="248.28" y2="221.38"/><line class="f" x1="398.06" y1="391.21" x2="398.06" y2="282.6"/><line class="f" x1="398.06" y1="280.18" x2="398.06" y2="276.72"/><line class="f" x1="398.06" y1="245.59" x2="398.06" y2="221.38"/><line class="f" x1="400.48" y1="391.21" x2="400.48" y2="276.72"/><line class="f" x1="400.48" y1="245.59" x2="400.48" y2="242.13"/><line class="f" x1="339.95" y1="213.08" x2="248.28" y2="213.08"/><line class="f" x1="535.38" y1="221.38" x2="417.77" y2="221.38"/><line class="f" x1="337.53" y1="221.38" x2="279.41" y2="221.38"/><line class="f" x1="275.95" y1="221.38" x2="248.28" y2="221.38"/><line class="f" x1="400.48" y1="276.72" x2="398.06" y2="276.72"/><line class="f" x1="378" y1="213.08" x2="376.27" y2="213.08"/><line class="f" x1="339.95" y1="217.05" x2="339.95" y2="213.07"/><line class="f" x1="376.27" y1="217.05" x2="376.27" y2="213.07"/><line class="f" x1="341.68" y1="217.05" x2="341.68" y2="213.07"/><line class="f" x1="341.68" y1="217.05" x2="339.95" y2="217.05"/><line class="f" x1="376.27" y1="217.05" x2="378" y2="217.05"/><line class="f" x1="339.95" y1="217.05" x2="339.95" y2="221.38"/><line class="f" x1="339.95" y1="221.38" x2="337.53" y2="221.38"/><line class="f" x1="374.54" y1="280.18" x2="374.54" y2="282.6"/><line class="f" x1="400.48" y1="245.59" x2="398.06" y2="245.59"/><line class="f" x1="417.78" y1="242.13" x2="410.86" y2="242.13"/><line class="f" x1="417.78" y1="242.13" x2="417.78" y2="221.38"/><line class="f" x1="417.78" y1="221.38" x2="414.32" y2="221.38"/><line class="f" x1="400.48" y1="238.67" x2="400.48" y2="242.13"/><line class="f" x1="535.38" y1="213.08" x2="535.38" y2="221.38"/><line class="f" x1="341.68" y1="213.08" x2="339.95" y2="213.08"/><line class="f" x1="248.28" y1="282.6" x2="248.28" y2="280.18"/><line class="f" x1="279.41" y1="247.32" x2="248.28" y2="247.32"/><line class="f" x1="275.95" y1="243.86" x2="248.28" y2="243.86"/><line class="f" x1="339.95" y1="280.18" x2="339.95" y2="276.72"/><line class="f" x1="339.95" y1="249.05" x2="339.95" y2="221.38"/><line class="f" x1="337.53" y1="280.18" x2="337.53" y2="276.72"/><line class="f" x1="337.53" y1="249.05" x2="337.53" y2="221.38"/><line class="f" x1="339.95" y1="276.72" x2="337.53" y2="276.72"/><line class="f" x1="339.95" y1="249.05" x2="337.53" y2="249.05"/><line class="f" x1="279.41" y1="247.32" x2="279.41" y2="243.86"/><line class="f" x1="279.41" y1="226.57" x2="279.41" y2="221.38"/><line class="f" x1="275.95" y1="226.57" x2="275.95" y2="221.38"/><line class="f" x1="343.41" y1="280.18" x2="343.41" y2="282.6"/><line class="f" x1="339.95" y1="280.18" x2="343.41" y2="280.18"/><line class="f" x1="279.41" y1="221.38" x2="275.96" y2="221.38"/><line class="f" x1="248.28" y1="243.86" x2="248.28" y2="247.32"/><line class="f" x1="378" y1="213.08" x2="378" y2="213.08"/><line class="f" x1="400.48" y1="221.38" x2="398.06" y2="221.38"/><line class="f" x1="386.3" y1="213.08" x2="386.3" y2="213.08"/><line class="f" x1="398.06" y1="221.38" x2="378" y2="221.38"/><line class="f" x1="378" y1="217.05" x2="378" y2="221.38"/><line class="f" x1="378" y1="217.05" x2="378" y2="213.07"/><line class="f" x1="343.41" y1="217.05" x2="374.54" y2="217.05"/><line class="f" x1="343.41" y1="213.08" x2="374.54" y2="213.08"/><line class="f" x1="343.41" y1="217.05" x2="343.41" y2="248.18"/><line class="f" x1="343.41" y1="213.08" x2="343.41" y2="217.05"/><line class="f" x1="374.54" y1="217.05" x2="374.54" y2="213.07"/><line class="f" x1="374.54" y1="217.05" x2="376.27" y2="217.05"/><line class="f" x1="374.54" y1="213.08" x2="376.27" y2="213.08"/><line class="f" x1="341.68" y1="217.05" x2="343.41" y2="217.05"/><line class="f" x1="341.68" y1="213.08" x2="343.41" y2="213.08"/><line class="f" x1="486.96" y1="405.05" x2="486.96" y2="405.05"/><line class="f" x1="300.86" y1="394.67" x2="329.22" y2="394.67"/><line class="f" x1="333.37" y1="394.67" x2="361.74" y2="394.67"/><line class="f" x1="361.74" y1="397.44" x2="333.37" y2="397.44"/><line class="f" x1="333.37" y1="396.06" x2="361.74" y2="396.06"/><line class="f" x1="329.22" y1="397.44" x2="300.86" y2="397.44"/><line class="f" x1="300.86" y1="396.06" x2="329.22" y2="396.06"/><line class="f" x1="450.98" y1="394.67" x2="479.35" y2="394.67"/><line class="f" x1="479.35" y1="397.44" x2="450.98" y2="397.44"/><line class="f" x1="450.98" y1="396.06" x2="479.35" y2="396.06"/><line class="f" x1="418.47" y1="394.67" x2="446.83" y2="394.67"/><line class="f" x1="446.83" y1="397.44" x2="418.47" y2="397.44"/><line class="f" x1="418.47" y1="396.06" x2="446.83" y2="396.06"/><line class="f" x1="339.95" y1="250.78" x2="339.95" y2="274.99"/><line class="f" x1="339.95" y1="250.78" x2="364.16" y2="250.78"/><line class="f" x1="337.53" y1="250.78" x2="339.95" y2="250.78"/><line class="f" x1="339.95" y1="274.99" x2="337.53" y2="274.99"/><line class="f" x1="339.95" y1="274.99" x2="339.95" y2="276.72"/><line class="f" x1="337.53" y1="274.99" x2="337.53" y2="276.72"/><line class="f" x1="339.95" y1="249.05" x2="339.95" y2="250.78"/><line class="f" x1="337.53" y1="249.05" x2="337.53" y2="250.78"/><line class="f" x1="337.53" y1="250.78" x2="337.53" y2="257.7"/><line class="f" x1="337.53" y1="261.5" x2="337.53" y2="262.28"/><line class="f" x1="337.53" y1="266.08" x2="337.53" y2="266.86"/><line class="f" x1="337.53" y1="268.07" x2="337.53" y2="274.99"/><line class="f" x1="339.95" y1="250.78" x2="340.81" y2="250.78"/><line class="f" x1="340.81" y1="250.78" x2="340.81" y2="247.32"/><line class="f" x1="340.81" y1="247.32" x2="339.95" y2="247.32"/><line class="f" x1="337.53" y1="250.78" x2="336.66" y2="250.78"/><line class="f" x1="336.66" y1="250.78" x2="336.66" y2="247.32"/><line class="f" x1="336.66" y1="247.32" x2="337.53" y2="247.32"/><line class="f" x1="340.81" y1="274.99" x2="340.81" y2="278.45"/><line class="f" x1="340.81" y1="278.45" x2="339.95" y2="278.45"/><line class="f" x1="337.53" y1="274.99" x2="336.66" y2="274.99"/><line class="f" x1="336.66" y1="274.99" x2="336.66" y2="278.45"/><line class="f" x1="336.66" y1="278.45" x2="337.53" y2="278.45"/><line class="f" x1="400.48" y1="247.32" x2="400.48" y2="274.99"/><line class="f" x1="400.48" y1="247.32" x2="428.15" y2="247.32"/><line class="f" x1="398.06" y1="247.32" x2="400.48" y2="247.32"/><line class="f" x1="400.48" y1="274.99" x2="398.06" y2="274.99"/><line class="f" x1="400.48" y1="274.99" x2="400.48" y2="276.72"/><line class="f" x1="398.06" y1="274.99" x2="398.06" y2="276.72"/><line class="f" x1="400.48" y1="245.59" x2="400.48" y2="247.32"/><line class="f" x1="398.06" y1="245.59" x2="398.06" y2="247.32"/><line class="f" x1="398.06" y1="247.32" x2="398.06" y2="254.24"/><line class="f" x1="398.06" y1="258.04" x2="398.06" y2="258.82"/><line class="f" x1="398.06" y1="262.63" x2="398.06" y2="263.4"/><line class="f" x1="398.06" y1="267.21" x2="398.06" y2="268.07"/><line class="f" x1="398.06" y1="268.07" x2="398.06" y2="274.99"/><line class="f" x1="400.48" y1="247.32" x2="401.34" y2="247.32"/><line class="f" x1="401.34" y1="247.32" x2="401.34" y2="243.86"/><line class="f" x1="401.34" y1="243.86" x2="400.48" y2="243.86"/><line class="f" x1="398.06" y1="247.32" x2="397.19" y2="247.32"/><line class="f" x1="397.19" y1="247.32" x2="397.19" y2="243.86"/><line class="f" x1="397.19" y1="243.86" x2="398.06" y2="243.86"/><line class="f" x1="401.34" y1="274.99" x2="401.34" y2="278.45"/><line class="f" x1="401.34" y1="278.45" x2="400.48" y2="278.45"/><line class="f" x1="398.06" y1="274.99" x2="397.19" y2="274.99"/><line class="f" x1="397.19" y1="274.99" x2="397.19" y2="278.45"/><line class="f" x1="397.19" y1="278.45" x2="398.06" y2="278.45"/><line class="f" x1="372.81" y1="282.6" x2="345.14" y2="282.6"/><line class="f" x1="372.81" y1="282.6" x2="372.81" y2="310.27"/><line class="f" x1="372.81" y1="280.18" x2="372.81" y2="282.6"/><line class="f" x1="345.14" y1="282.6" x2="345.14" y2="280.18"/><line class="f" x1="345.14" y1="282.6" x2="343.41" y2="282.6"/><line class="f" x1="345.14" y1="280.18" x2="343.41" y2="280.18"/><line class="f" x1="374.54" y1="282.6" x2="372.81" y2="282.6"/><line class="f" x1="374.54" y1="280.18" x2="372.81" y2="280.18"/><line class="f" x1="372.81" y1="280.18" x2="365.89" y2="280.18"/><line class="f" x1="362.08" y1="280.18" x2="361.31" y2="280.18"/><line class="f" x1="357.5" y1="280.18" x2="356.72" y2="280.18"/><line class="f" x1="352.92" y1="280.18" x2="352.05" y2="280.18"/><line class="f" x1="352.05" y1="280.18" x2="345.14" y2="280.18"/><line class="f" x1="372.81" y1="282.6" x2="372.81" y2="283.47"/><line class="f" x1="372.81" y1="283.47" x2="376.27" y2="283.47"/><line class="f" x1="376.27" y1="283.47" x2="376.27" y2="282.6"/><line class="f" x1="372.81" y1="280.18" x2="372.81" y2="279.32"/><line class="f" x1="372.81" y1="279.32" x2="376.27" y2="279.32"/><line class="f" x1="376.27" y1="279.32" x2="376.27" y2="280.18"/><line class="f" x1="345.14" y1="283.47" x2="341.68" y2="283.47"/><line class="f" x1="341.68" y1="283.47" x2="341.68" y2="282.6"/><line class="f" x1="345.14" y1="280.18" x2="345.14" y2="279.32"/><line class="f" x1="345.14" y1="279.32" x2="341.68" y2="279.32"/><line class="f" x1="341.68" y1="279.32" x2="341.68" y2="280.18"/><line class="f" x1="337.53" y1="226.57" x2="279.41" y2="226.57"/><line class="f" x1="279.41" y1="243.86" x2="275.96" y2="243.86"/><line class="f" x1="279.41" y1="226.57" x2="275.96" y2="226.57"/><line class="f" x1="410.86" y1="242.13" x2="410.86" y2="238.67"/><line class="f" x1="400.48" y1="242.13" x2="400.48" y2="238.67"/><line class="g" x1="400.48" y1="221.38" x2="406.71" y2="221.38"/><line class="g" x1="408.26" y1="221.38" x2="408.52" y2="221.38"/><line class="g" x1="410.08" y1="221.38" x2="410.34" y2="221.38"/><line class="g" x1="411.89" y1="221.38" x2="414.32" y2="221.38"/><line class="g" x1="414.32" y1="221.38" x2="414.32" y2="225.18"/><line class="g" x1="414.32" y1="226.74" x2="414.32" y2="227"/><line class="g" x1="414.32" y1="228.55" x2="414.32" y2="228.81"/><line class="g" x1="414.32" y1="230.37" x2="414.32" y2="236.6"/><line class="g" x1="414.32" y1="238.15" x2="414.32" y2="238.41"/><line class="g" x1="413.02" y1="238.67" x2="412.76" y2="238.67"/><line class="g" x1="411.2" y1="238.67" x2="404.98" y2="238.67"/><line class="g" x1="403.42" y1="238.67" x2="403.16" y2="238.67"/><line class="g" x1="401.6" y1="238.67" x2="401.35" y2="238.67"/><line class="g" x1="400.48" y1="237.98" x2="400.48" y2="231.75"/><line class="g" x1="400.48" y1="230.2" x2="400.48" y2="229.94"/><line class="g" x1="400.48" y1="228.38" x2="400.48" y2="228.12"/><line class="g" x1="400.48" y1="226.57" x2="400.48" y2="221.38"/><line class="f" x1="400.48" y1="221.38" x2="414.32" y2="221.38"/><line class="f" x1="414.32" y1="221.38" x2="414.32" y2="238.67"/><line class="f" x1="414.32" y1="238.67" x2="410.86" y2="238.67"/><line class="f" x1="541.61" y1="248.7" x2="542.3" y2="248.7"/><line class="f" x1="542.3" y1="248.7" x2="542.3" y2="245.94"/><line class="f" x1="542.3" y1="245.94" x2="539.53" y2="245.94"/><line class="f" x1="539.53" y1="245.94" x2="539.53" y2="247.32"/><line class="f" x1="538.84" y1="247.32" x2="538.84" y2="250.09"/><line class="f" x1="538.84" y1="250.09" x2="541.61" y2="250.09"/><line class="f" x1="541.61" y1="250.09" x2="541.61" y2="247.32"/><line class="f" x1="541.61" y1="247.32" x2="538.84" y2="247.32"/><line class="f" x1="541.61" y1="277.76" x2="542.3" y2="277.76"/><line class="f" x1="542.3" y1="277.76" x2="542.3" y2="280.53"/><line class="f" x1="542.3" y1="280.53" x2="539.53" y2="280.53"/><line class="f" x1="539.53" y1="280.53" x2="539.53" y2="279.14"/><line class="f" x1="538.84" y1="279.14" x2="538.84" y2="276.37"/><line class="f" x1="538.84" y1="276.38" x2="541.61" y2="276.38"/><line class="f" x1="541.61" y1="276.38" x2="541.61" y2="279.14"/><line class="f" x1="541.61" y1="279.14" x2="538.84" y2="279.14"/><line class="f" x1="363.12" y1="397.44" x2="363.12" y2="398.13"/><line class="f" x1="363.12" y1="398.13" x2="365.89" y2="398.13"/><line class="f" x1="365.89" y1="398.13" x2="365.89" y2="395.36"/><line class="f" x1="365.89" y1="395.37" x2="364.51" y2="395.37"/><line class="f" x1="329.22" y1="394.67" x2="333.37" y2="394.67"/><line class="f" x1="333.37" y1="394.67" x2="333.37" y2="397.44"/><line class="f" x1="333.37" y1="397.44" x2="329.22" y2="397.44"/><line class="f" x1="329.22" y1="397.44" x2="329.22" y2="394.67"/><line class="f" x1="364.51" y1="394.67" x2="361.74" y2="394.67"/><line class="f" x1="361.74" y1="394.67" x2="361.74" y2="397.44"/><line class="f" x1="361.74" y1="397.44" x2="364.51" y2="397.44"/><line class="f" x1="364.51" y1="397.44" x2="364.51" y2="394.67"/><line class="f" x1="298.09" y1="394.67" x2="300.86" y2="394.67"/><line class="f" x1="300.86" y1="394.67" x2="300.86" y2="397.44"/><line class="f" x1="300.86" y1="397.44" x2="298.09" y2="397.44"/><line class="f" x1="298.09" y1="397.44" x2="298.09" y2="394.67"/><line class="f" x1="299.48" y1="397.44" x2="299.48" y2="398.13"/><line class="f" x1="299.48" y1="398.13" x2="296.71" y2="398.13"/><line class="f" x1="296.71" y1="398.13" x2="296.71" y2="395.36"/><line class="f" x1="296.71" y1="395.37" x2="298.09" y2="395.37"/><line class="f" x1="480.73" y1="397.44" x2="480.73" y2="398.13"/><line class="f" x1="480.73" y1="398.13" x2="483.5" y2="398.13"/><line class="f" x1="483.5" y1="398.13" x2="483.5" y2="395.36"/><line class="f" x1="483.5" y1="395.37" x2="482.11" y2="395.37"/><line class="f" x1="446.83" y1="394.67" x2="450.98" y2="394.67"/><line class="f" x1="450.98" y1="394.67" x2="450.98" y2="397.44"/><line class="f" x1="450.98" y1="397.44" x2="446.83" y2="397.44"/><line class="f" x1="446.83" y1="397.44" x2="446.83" y2="394.67"/><line class="f" x1="482.11" y1="394.67" x2="479.35" y2="394.67"/><line class="f" x1="479.35" y1="394.67" x2="479.35" y2="397.44"/><line class="f" x1="479.35" y1="397.44" x2="482.11" y2="397.44"/><line class="f" x1="482.11" y1="397.44" x2="482.11" y2="394.67"/><line class="f" x1="415.7" y1="394.67" x2="418.47" y2="394.67"/><line class="f" x1="418.47" y1="394.67" x2="418.47" y2="397.44"/><line class="f" x1="418.47" y1="397.44" x2="415.7" y2="397.44"/><line class="f" x1="415.7" y1="397.44" x2="415.7" y2="394.67"/><line class="f" x1="417.08" y1="397.44" x2="417.08" y2="398.13"/><line class="f" x1="417.08" y1="398.13" x2="414.32" y2="398.13"/><line class="f" x1="414.32" y1="398.13" x2="414.32" y2="395.36"/><line class="f" x1="414.32" y1="395.37" x2="415.7" y2="395.37"/><g class="h"><path class="f" d="M374.54,217.05a31.13,31.13,0,0,1-31.13,31.13"/><path class="f" d="M364.16,250.78A24.21,24.21,0,0,1,340,275"/><path class="f" d="M428.15,247.32A27.67,27.67,0,0,1,400.48,275"/><path class="f" d="M372.81,310.27a27.67,27.67,0,0,1-27.67-27.67"/></g><line class="f" x1="248.28" y1="221.38" x2="248.28" y2="243.86"/><line class="f" x1="248.28" y1="243.86" x2="275.95" y2="243.86"/><line class="f" x1="275.95" y1="243.86" x2="251.74" y2="240.4"/><line class="f" x1="251.74" y1="240.4" x2="248.28" y2="221.38"/><line class="f" x1="414.32" y1="238.67" x2="400.48" y2="238.67"/><line class="f" x1="400.48" y1="238.67" x2="400.48" y2="221.38"/><line class="f" x1="400.48" y1="221.38" x2="403.94" y2="235.21"/><line class="f" x1="403.94" y1="235.21" x2="414.32" y2="238.67"/><line class="f" x1="438.88" y1="242.41" x2="438.88" y2="221.66"/><line class="f" x1="430.94" y1="229.59" x2="426.05" y2="234.48"/><line class="f" x1="426.05" y1="229.59" x2="430.94" y2="234.48"/><line class="f" x1="428.5" y1="235.5" x2="428.5" y2="228.58"/><line class="f" x1="431.96" y1="232.04" x2="425.04" y2="232.04"/><line class="f" x1="438.88" y1="242.41" x2="418.12" y2="242.41"/><line class="f" x1="458.76" y1="240.68" x2="439.74" y2="240.68"/><line class="f" x1="439.74" y1="240.68" x2="439.74" y2="223.39"/><line class="f" x1="439.74" y1="223.39" x2="458.76" y2="223.39"/><line class="f" x1="458.76" y1="223.39" x2="458.76" y2="240.68"/><line class="f" x1="459.63" y1="242.41" x2="438.88" y2="242.41"/><line class="f" x1="457.04" y1="238.95" x2="441.47" y2="238.95"/><line class="f" x1="441.47" y1="238.95" x2="441.47" y2="226.85"/><line class="f" x1="441.47" y1="226.85" x2="457.04" y2="226.85"/><line class="f" x1="457.04" y1="226.85" x2="457.04" y2="238.95"/><line class="f" x1="480.38" y1="221.66" x2="480.38" y2="242.41"/><line class="f" x1="480.38" y1="242.41" x2="501.14" y2="242.41"/><line class="f" x1="501.14" y1="242.41" x2="501.14" y2="221.66"/><line class="f" x1="501.14" y1="221.66" x2="501.14" y2="242.41"/><line class="f" x1="521.89" y1="242.41" x2="521.89" y2="221.66"/><line class="f" x1="519.06" y1="243.36" x2="503.97" y2="243.36"/><line class="f" x1="318.85" y1="279.25" x2="318.85" y2="275.79"/><line class="f" x1="318.85" y1="275.79" x2="298.09" y2="275.79"/><line class="f" x1="298.09" y1="275.79" x2="298.09" y2="279.25"/><line class="f" x1="298.09" y1="279.25" x2="299.13" y2="279.25"/><line class="f" x1="299.13" y1="279.25" x2="299.13" y2="276.83"/><line class="f" x1="299.13" y1="276.83" x2="317.81" y2="276.83"/><line class="f" x1="317.81" y1="276.83" x2="317.81" y2="279.25"/><line class="f" x1="317.81" y1="279.25" x2="318.85" y2="279.25"/><line class="f" x1="318.85" y1="279.25" x2="318.85" y2="275.79"/><line class="f" x1="298.09" y1="279.25" x2="298.09" y2="275.79"/><line class="f" x1="317.81" y1="279.25" x2="317.81" y2="276.83"/><line class="f" x1="299.13" y1="279.25" x2="299.13" y2="276.83"/><line class="f" x1="318.85" y1="275.79" x2="298.09" y2="275.79"/><line class="f" x1="318.85" y1="276.83" x2="298.09" y2="276.83"/><line class="f" x1="318.85" y1="279.25" x2="317.81" y2="279.25"/><line class="f" x1="299.13" y1="279.25" x2="298.09" y2="279.25"/><line class="f" x1="409.42" y1="336.12" x2="409.42" y2="367.67"/><line class="f" x1="409.42" y1="367.67" x2="407.3" y2="367.67"/><line class="f" x1="407.3" y1="367.67" x2="405.18" y2="359.78"/><line class="f" x1="405.18" y1="359.78" x2="405.18" y2="344"/><line class="f" x1="405.18" y1="344" x2="407.3" y2="336.12"/><line class="f" x1="407.3" y1="336.12" x2="409.42" y2="336.12"/><line class="f" x1="408.57" y1="365.57" x2="408.57" y2="363.46"/><line class="f" x1="408.57" y1="363.46" x2="408.04" y2="363.46"/><line class="f" x1="408.04" y1="363.46" x2="408.04" y2="365.57"/><line class="f" x1="408.04" y1="365.57" x2="408.57" y2="365.57"/><line class="f" x1="408.57" y1="362.94" x2="408.57" y2="360.83"/><line class="f" x1="408.57" y1="360.83" x2="408.04" y2="360.83"/><line class="f" x1="408.04" y1="360.83" x2="408.04" y2="362.94"/><line class="f" x1="408.04" y1="362.94" x2="408.57" y2="362.94"/><line class="f" x1="408.57" y1="360.3" x2="408.57" y2="359.25"/><line class="f" x1="408.57" y1="359.25" x2="408.04" y2="359.25"/><line class="f" x1="408.04" y1="359.25" x2="408.04" y2="360.3"/><line class="f" x1="408.04" y1="360.3" x2="408.57" y2="360.3"/><line class="f" x1="407.3" y1="336.12" x2="407.3" y2="367.67"/><line class="f" x1="480.38" y1="242.41" x2="480.38" y2="221.38"/><line class="f" x1="480.38" y1="221.38" x2="459.63" y2="221.38"/><line class="f" x1="459.63" y1="221.38" x2="459.63" y2="242.41"/><line class="f" x1="459.63" y1="242.41" x2="480.38" y2="242.41"/><line class="f" x1="535.38" y1="221.38" x2="417.77" y2="221.38"/><line class="f" x1="417.78" y1="221.38" x2="417.78" y2="242.41"/><line class="f" x1="417.78" y1="242.41" x2="535.38" y2="242.41"/><line class="f" x1="535.38" y1="242.41" x2="535.38" y2="221.38"/><line class="f" x1="397.71" y1="221.66" x2="383.88" y2="221.66"/><line class="f" x1="383.88" y1="221.66" x2="383.88" y2="242.41"/><line class="f" x1="383.88" y1="242.41" x2="397.71" y2="242.41"/><line class="f" x1="397.71" y1="242.41" x2="397.71" y2="221.66"/><line class="f" x1="483.5" y1="389.42" x2="455.82" y2="389.42"/><line class="f" x1="455.82" y1="389.42" x2="455.82" y2="385.96"/><line class="f" x1="455.82" y1="385.96" x2="483.5" y2="385.96"/><line class="f" x1="483.5" y1="385.96" x2="483.5" y2="389.42"/><line class="f" x1="533.65" y1="245.87" x2="533.65" y2="280.46"/><line class="f" x1="533.65" y1="280.46" x2="530.19" y2="280.46"/><line class="f" x1="530.19" y1="280.46" x2="530.19" y2="245.87"/><line class="f" x1="530.19" y1="245.87" x2="533.65" y2="245.87"/><line class="f" x1="327.84" y1="389.42" x2="293.25" y2="389.42"/><line class="f" x1="293.25" y1="389.42" x2="293.25" y2="387.24"/><line class="f" x1="293.25" y1="387.24" x2="327.84" y2="387.24"/><line class="f" x1="327.84" y1="387.24" x2="327.84" y2="389.42"/><g class="h"><path class="f" d="M449.94,230.31a.69.69,0,1,0-.69.69.69.69,0,0,0,.69-.69"/><path class="f" d="M476.06,232a6.06,6.06,0,1,0-6.05,6.05,6.05,6.05,0,0,0,6.05-6.05"/><path class="f" d="M475,232a5,5,0,1,0-5,5,5,5,0,0,0,5-5"/><path class="f" d="M509.82,226.94a3.4,3.4,0,1,0-3.4,3.4,3.4,3.4,0,0,0,3.4-3.4"/><path class="f" d="M509.82,237.13a3.4,3.4,0,1,0-3.4,3.4,3.4,3.4,0,0,0,3.4-3.4"/><path class="f" d="M520,237.13a3.4,3.4,0,1,0-3.39,3.4,3.39,3.39,0,0,0,3.39-3.4"/><path class="f" d="M405.56,345.58a6.31,6.31,0,1,1,0,12.62"/><path class="f" d="M405.56,358.2a12.62,12.62,0,0,1,0-12.62"/><path class="f" d="M454.09,387.69a1.73,1.73,0,1,0-1.72,1.73,1.73,1.73,0,0,0,1.72-1.73"/><path class="f" d="M533.65,283.92a1.73,1.73,0,1,0-1.73,1.73,1.73,1.73,0,0,0,1.73-1.73"/><path class="f" d="M291.52,388.33a1.73,1.73,0,1,0-1.73,1.73,1.73,1.73,0,0,0,1.73-1.73"/></g><line class="f" x1="278.55" y1="253.37" x2="278.55" y2="274.13"/><line class="f" x1="275.09" y1="277.59" x2="254.34" y2="277.59"/><line class="f" x1="250.88" y1="274.13" x2="250.88" y2="253.37"/><line class="f" x1="254.34" y1="249.91" x2="275.09" y2="249.91"/><g class="h"><path class="f" d="M255.2,253.37a.87.87,0,1,0-.86.87.87.87,0,0,0,.86-.87"/><path class="f" d="M275.09,249.91a3.46,3.46,0,0,1,3.46,3.46"/><path class="f" d="M278.55,274.13a3.46,3.46,0,0,1-3.46,3.46"/><path class="f" d="M250.88,253.37a3.46,3.46,0,0,1,3.45-3.46"/><path class="f" d="M254.34,277.59a3.46,3.46,0,0,1-3.46-3.46"/></g><rect class="d" x="478.31" y="322.03" width="17.29" height="27.67"/><line class="f" x1="478.31" y1="349.71" x2="495.6" y2="349.71"/><line class="f" x1="478.31" y1="322.03" x2="478.31" y2="349.71"/><line class="f" x1="495.6" y1="322.03" x2="478.31" y2="322.03"/><line class="f" x1="495.6" y1="349.71" x2="495.6" y2="322.03"/><rect class="d" x="279.41" y="221.38" width="58.11" height="5.19"/><line class="f" x1="337.53" y1="226.57" x2="337.53" y2="221.38"/><line class="f" x1="279.41" y1="226.57" x2="337.53" y2="226.57"/><line class="f" x1="279.41" y1="221.38" x2="279.41" y2="226.57"/><line class="f" x1="337.53" y1="221.38" x2="279.41" y2="221.38"/><rect class="d" x="298.09" y="276.83" width="1.04" height="2.42"/><line class="f" x1="299.13" y1="276.83" x2="298.09" y2="276.83"/><line class="f" x1="299.13" y1="279.25" x2="299.13" y2="276.83"/><line class="f" x1="298.09" y1="279.25" x2="299.13" y2="279.25"/><line class="f" x1="298.09" y1="276.83" x2="298.09" y2="279.25"/><rect class="d" x="298.09" y="275.79" width="20.75" height="1.04"/><line class="f" x1="298.09" y1="275.79" x2="298.09" y2="276.83"/><line class="f" x1="318.85" y1="275.79" x2="298.09" y2="275.79"/><line class="f" x1="318.85" y1="276.83" x2="318.85" y2="275.79"/><line class="f" x1="298.09" y1="276.83" x2="318.85" y2="276.83"/><rect class="d" x="317.81" y="276.83" width="1.04" height="2.42"/><line class="f" x1="318.85" y1="276.83" x2="317.81" y2="276.83"/><line class="f" x1="318.85" y1="279.25" x2="318.85" y2="276.83"/><line class="f" x1="317.81" y1="279.25" x2="318.85" y2="279.25"/><line class="f" x1="317.81" y1="276.83" x2="317.81" y2="279.25"/><polygon class="i" points="291.52 388.33 291.01 389.55 289.79 390.06 288.57 389.55 288.06 388.33 288.57 387.11 289.79 386.6 291.01 387.11 291.52 388.33"/><g class="h"><path class="f" d="M291.52,388.33a1.73,1.73,0,1,1-3.46,0"/><path class="f" d="M288.06,388.33a1.73,1.73,0,1,1,3.46,0"/></g><rect class="d" x="293.25" y="387.24" width="34.59" height="2.18"/><line class="f" x1="327.84" y1="389.42" x2="327.84" y2="387.24"/><line class="f" x1="293.25" y1="389.42" x2="327.84" y2="389.42"/><line class="f" x1="293.25" y1="387.24" x2="293.25" y2="389.42"/><line class="f" x1="327.84" y1="387.24" x2="293.25" y2="387.24"/><rect class="d" x="530.19" y="245.87" width="3.46" height="34.59"/><line class="f" x1="533.65" y1="245.87" x2="530.19" y2="245.87"/><line class="f" x1="533.65" y1="280.46" x2="533.65" y2="245.87"/><line class="f" x1="530.19" y1="280.46" x2="533.65" y2="280.46"/><line class="f" x1="530.19" y1="245.87" x2="530.19" y2="280.46"/><polygon class="i" points="533.65 283.92 533.14 285.14 531.92 285.65 530.7 285.14 530.19 283.92 530.7 282.7 531.92 282.19 533.14 282.7 533.65 283.92"/><g class="h"><path class="f" d="M533.65,283.92a1.73,1.73,0,0,1-3.46,0"/><path class="f" d="M530.19,283.92a1.73,1.73,0,0,1,3.46,0"/></g><polygon class="i" points="454.1 387.69 453.59 388.91 452.37 389.42 451.14 388.91 450.64 387.69 451.14 386.47 452.37 385.96 453.59 386.47 454.1 387.69"/><g class="h"><path class="f" d="M454.09,387.69a1.73,1.73,0,1,1-3.45,0"/><path class="f" d="M450.64,387.69a1.73,1.73,0,1,1,3.45,0"/></g><rect class="d" x="455.82" y="385.96" width="27.67" height="3.46"/><line class="f" x1="455.82" y1="385.96" x2="455.82" y2="389.42"/><line class="f" x1="483.5" y1="385.96" x2="455.82" y2="385.96"/><line class="f" x1="483.5" y1="389.42" x2="483.5" y2="385.96"/><line class="f" x1="455.82" y1="389.42" x2="483.5" y2="389.42"/><polygon class="i" points="248.28 306.3 248.28 368.56 258.62 368.56 310.3 368.56 312.93 368.03 315.17 366.53 316.66 364.29 317.19 361.64 317.19 313.21 316.66 310.57 315.17 308.32 312.93 306.82 310.3 306.3 248.28 306.3"/><rect class="d" x="248.28" y="294.19" width="10.34" height="12.11"/><rect class="d" x="248.28" y="368.56" width="10.34" height="12.11"/><line class="f" x1="259.74" y1="339.38" x2="256.76" y2="340.21"/><line class="f" x1="259.74" y1="310.34" x2="256.76" y2="311.17"/><line class="f" x1="317.19" y1="361.64" x2="317.19" y2="313.21"/><line class="f" x1="310.3" y1="306.3" x2="248.28" y2="306.3"/><line class="f" x1="248.28" y1="306.3" x2="248.28" y2="368.56"/><line class="f" x1="248.28" y1="368.56" x2="310.3" y2="368.56"/><line class="f" x1="248.28" y1="306.3" x2="248.28" y2="294.19"/><line class="f" x1="248.28" y1="294.19" x2="258.62" y2="294.19"/><line class="f" x1="258.62" y1="294.19" x2="258.62" y2="306.29"/><line class="f" x1="258.62" y1="306.3" x2="248.28" y2="306.3"/><line class="f" x1="248.28" y1="380.66" x2="248.28" y2="368.56"/><line class="f" x1="248.28" y1="368.56" x2="258.62" y2="368.56"/><line class="f" x1="258.62" y1="368.56" x2="258.62" y2="380.66"/><line class="f" x1="258.62" y1="380.66" x2="248.28" y2="380.66"/><line class="f" x1="271.21" y1="306.3" x2="271.21" y2="368.56"/><line class="f" x1="276.37" y1="306.3" x2="276.37" y2="368.56"/><g class="h"><path class="f" d="M266,334.8a98.63,98.63,0,0,1-.83-12.74,97,97,0,0,1,.49-9.8"/><path class="f" d="M263.75,310h.09a1.84,1.84,0,0,1,1.84,1.85,1.81,1.81,0,0,1,0,.4"/><path class="f" d="M259.74,310.34a14.85,14.85,0,0,1,3.19-.35l.81,0"/><path class="f" d="M252,310.14c.83,0,1.67-.05,2.5-.05,1.73,0,3.47.08,5.2.25"/><path class="f" d="M251.55,310.6a.19.19,0,0,1,0-.08.38.38,0,0,1,.39-.39h.12"/><path class="f" d="M251.55,310.6q.57,7.42.56,14.88,0,4.69-.22,9.39"/><path class="f" d="M253.13,336a1.06,1.06,0,0,1-.31.05,1,1,0,0,1-.95-1,.75.75,0,0,1,0-.21"/><path class="f" d="M253.13,336a46.05,46.05,0,0,1,11.88-.18"/><path class="f" d="M266,334.8a1,1,0,0,1,0,.24.79.79,0,0,1-.79.8.78.78,0,0,1-.22,0"/><path class="f" d="M310.3,306.3h0a6.9,6.9,0,0,1,6.89,6.91"/><path class="f" d="M317.19,361.64h0a6.91,6.91,0,0,1-6.89,6.92"/><path class="f" d="M266,363.85a98.9,98.9,0,0,1-.83-12.75,97.29,97.29,0,0,1,.49-9.8"/><path class="f" d="M263.74,339.06h.1a1.85,1.85,0,0,1,1.84,1.86,1.72,1.72,0,0,1,0,.39"/><path class="f" d="M259.74,339.38a14.92,14.92,0,0,1,3.19-.35l.81,0"/><path class="f" d="M252.05,339.19q1.24-.06,2.49-.06c1.73,0,3.47.09,5.2.25"/><path class="f" d="M251.55,339.65a.28.28,0,0,1,0-.09.39.39,0,0,1,.39-.39l.12,0"/><path class="f" d="M251.55,339.65q.55,7.43.56,14.87,0,4.71-.22,9.4"/><path class="f" d="M253.13,365a1.06,1.06,0,0,1-.31,0,1,1,0,0,1-.95-1,.68.68,0,0,1,0-.2"/><path class="f" d="M253.13,365a44.53,44.53,0,0,1,6.63-.49,44,44,0,0,1,5.25.31"/><path class="f" d="M266,363.85a.64.64,0,0,1,0,.24.8.8,0,0,1-.8.8.71.71,0,0,1-.21,0"/></g><line class="f" x1="445.45" y1="213.08" x2="445.45" y2="213.08"/><line class="f" x1="445.45" y1="213.08" x2="507.71" y2="213.08"/><line class="f" x1="507.71" y1="213.08" x2="507.71" y2="213.08"/><line class="f" x1="445.45" y1="213.08" x2="433.34" y2="213.08"/><line class="f" x1="433.34" y1="213.08" x2="433.34" y2="213.08"/><line class="f" x1="445.45" y1="213.08" x2="445.45" y2="213.08"/><line class="f" x1="519.82" y1="213.08" x2="507.71" y2="213.08"/><line class="f" x1="507.71" y1="213.08" x2="507.71" y2="213.08"/><line class="f" x1="519.82" y1="213.08" x2="519.82" y2="213.08"/><polygon class="i" points="456.59 274.33 452.7 267.63 451.44 266.36 449.7 265.89 447.97 266.36 441.98 269.8 440.71 271.06 440.25 272.8 440.72 274.52 444.6 281.22 446.8 278.36 449.66 276.17 453 274.79 456.59 274.33"/><polygon class="i" points="468.62 295.09 476.36 295.1 478.09 294.64 479.36 293.38 479.82 291.65 479.81 284.73 479.34 283 478.07 281.74 476.34 281.27 468.6 281.26 469.99 284.6 470.46 288.18 470 291.76 468.62 295.09"/><polygon class="i" points="444.62 295.05 440.76 301.74 440.3 303.47 440.77 305.2 442.04 306.47 448.04 309.93 449.77 310.4 451.5 309.94 452.77 308.68 456.63 301.99 453.04 301.51 449.7 300.12 446.83 297.92 444.62 295.05"/><polygon class="i" points="444.6 281.22 446.8 278.36 449.66 276.17 453 274.79 456.59 274.33 460.17 274.8 463.52 276.19 466.39 278.39 468.6 281.26 469.99 284.6 470.46 288.18 470 291.76 468.62 295.09 466.42 297.95 463.56 300.14 460.21 301.52 456.63 301.99 453.04 301.51 449.7 300.12 446.83 297.92 444.62 295.05 443.23 291.72 442.76 288.14 443.22 284.56 444.6 281.22"/><line class="f" x1="444.6" y1="281.22" x2="446.8" y2="278.36"/><line class="f" x1="446.8" y1="278.36" x2="449.66" y2="276.17"/><line class="f" x1="449.66" y1="276.17" x2="453" y2="274.79"/><line class="f" x1="453" y1="274.79" x2="456.59" y2="274.33"/><line class="f" x1="456.59" y1="274.33" x2="460.17" y2="274.8"/><line class="f" x1="460.17" y1="274.8" x2="463.52" y2="276.19"/><line class="f" x1="463.52" y1="276.19" x2="466.39" y2="278.39"/><line class="f" x1="466.39" y1="278.39" x2="468.59" y2="281.26"/><line class="f" x1="468.59" y1="281.26" x2="469.99" y2="284.6"/><line class="f" x1="469.99" y1="284.6" x2="470.46" y2="288.18"/><line class="f" x1="470.46" y1="288.18" x2="470" y2="291.76"/><line class="f" x1="470" y1="291.76" x2="468.62" y2="295.09"/><line class="f" x1="468.62" y1="295.09" x2="466.42" y2="297.95"/><line class="f" x1="466.42" y1="297.95" x2="463.56" y2="300.14"/><line class="f" x1="463.56" y1="300.14" x2="460.21" y2="301.52"/><line class="f" x1="460.21" y1="301.52" x2="456.63" y2="301.99"/><line class="f" x1="456.63" y1="301.99" x2="453.04" y2="301.51"/><line class="f" x1="453.04" y1="301.51" x2="449.7" y2="300.12"/><line class="f" x1="449.7" y1="300.12" x2="446.83" y2="297.92"/><line class="f" x1="446.83" y1="297.92" x2="444.62" y2="295.05"/><line class="f" x1="444.62" y1="295.05" x2="443.23" y2="291.71"/><line class="f" x1="443.23" y1="291.72" x2="442.76" y2="288.14"/><line class="f" x1="442.76" y1="288.14" x2="443.22" y2="284.56"/><line class="f" x1="443.22" y1="284.56" x2="444.6" y2="281.22"/><g class="h"><path class="f" d="M463.52,276.19h0a13.82,13.82,0,1,1-13.82,23.93"/><path class="f" d="M449.7,300.12h0a13.82,13.82,0,1,1,13.82-23.93"/></g><line class="f" x1="448.84" y1="267.85" x2="442.85" y2="271.3"/><line class="f" x1="440.72" y1="274.52" x2="444.6" y2="281.22"/><line class="f" x1="447.97" y1="266.35" x2="441.98" y2="269.8"/><line class="f" x1="456.59" y1="274.33" x2="452.7" y2="267.63"/><line class="f" x1="478.09" y1="291.65" x2="478.08" y2="284.73"/><line class="f" x1="476.34" y1="281.27" x2="468.6" y2="281.26"/><line class="f" x1="479.82" y1="291.65" x2="479.81" y2="284.73"/><line class="f" x1="468.62" y1="295.09" x2="476.36" y2="295.1"/><line class="f" x1="442.9" y1="304.97" x2="448.9" y2="308.44"/><line class="f" x1="452.77" y1="308.67" x2="456.63" y2="301.99"/><line class="f" x1="442.04" y1="306.46" x2="448.04" y2="309.93"/><line class="f" x1="444.62" y1="295.05" x2="440.76" y2="301.74"/><g class="h"><path class="f" d="M442.22,273.66a1.7,1.7,0,0,1,.63-2.36"/><path class="f" d="M448.84,267.85a1.78,1.78,0,0,1,1.73,0,1.87,1.87,0,0,1,.64.64"/><path class="f" d="M440.72,274.52a3.46,3.46,0,0,1,0-3.45A3.51,3.51,0,0,1,442,269.8"/><path class="f" d="M448,266.35a3.49,3.49,0,0,1,3.47,0,3.41,3.41,0,0,1,1.26,1.27"/><path class="f" d="M476.34,283a1.73,1.73,0,0,1,1.74,1.73"/><path class="f" d="M478.09,291.65a1.64,1.64,0,0,1-.24.86,1.72,1.72,0,0,1-1.49.86"/><path class="f" d="M476.34,281.27a3.41,3.41,0,0,1,1.73.47,3.47,3.47,0,0,1,1.74,3"/><path class="f" d="M479.82,291.65a3.53,3.53,0,0,1-.46,1.73,3.48,3.48,0,0,1-3,1.72"/><path class="f" d="M451.27,307.81h0a1.74,1.74,0,0,1-2.37.63"/><path class="f" d="M442.9,305a1.74,1.74,0,0,1-.64-2.36"/><path class="f" d="M452.77,308.68h0a3.46,3.46,0,0,1-4.73,1.25"/><path class="f" d="M442,306.47h0a3.47,3.47,0,0,1-1.28-4.73"/></g><polygon class="i" points="503.21 356.56 502.58 356.94 502.52 357.66 502.52 383.26 502.49 383.74 502.76 384.14 503.21 384.3 531.23 384.3 531.72 384.1 531.92 383.61 531.92 312.35 531.72 311.86 531.23 311.66 505.98 311.66 504.25 312.12 502.98 313.39 502.52 315.12 502.52 316.15 502.72 316.64 503.21 316.85 502.71 317.26 502.52 317.88 502.52 355.59 502.71 356.18 503.21 356.56"/><polygon class="i" points="480.04 356.63 477.39 357.15 475.15 358.65 473.64 360.9 473.12 363.54 473.12 377.38 473.64 380.03 475.15 382.27 477.39 383.77 480.04 384.3 501.48 384.3 502.22 383.99 502.52 383.26 502.52 357.66 502.22 356.93 501.48 356.63 480.04 356.63"/><line class="f" x1="501.48" y1="356.62" x2="480.04" y2="356.62"/><g class="h"><path class="f" d="M501.48,356.62a1,1,0,0,1,1,1"/></g><line class="f" x1="502.52" y1="383.26" x2="502.52" y2="357.66"/><g class="h"><path class="f" d="M502.52,383.26a1,1,0,0,1-1,1"/></g><line class="f" x1="480.04" y1="384.3" x2="501.48" y2="384.3"/><g class="h"><path class="f" d="M480,384.3a6.92,6.92,0,0,1-6.92-6.92"/></g><line class="f" x1="473.12" y1="363.54" x2="473.12" y2="377.38"/><g class="h"><path class="f" d="M473.12,363.54a6.92,6.92,0,0,1,6.92-6.92"/></g><line class="f" x1="502.52" y1="316.15" x2="502.52" y2="315.12"/><line class="f" x1="505.98" y1="311.66" x2="531.23" y2="311.66"/><line class="f" x1="531.92" y1="312.35" x2="531.92" y2="316.15"/><line class="f" x1="531.23" y1="316.85" x2="503.21" y2="316.85"/><line class="f" x1="531.92" y1="316.15" x2="531.92" y2="356.62"/><line class="f" x1="531.92" y1="356.62" x2="529.5" y2="356.62"/><line class="f" x1="502.52" y1="355.59" x2="502.52" y2="317.88"/><line class="f" x1="503.56" y1="316.85" x2="520.9" y2="316.85"/><line class="f" x1="520.9" y1="356.62" x2="503.56" y2="356.62"/><line class="f" x1="529.5" y1="316.85" x2="522.97" y2="316.85"/><line class="f" x1="522.97" y1="356.62" x2="529.5" y2="356.62"/><line class="f" x1="502.52" y1="379.8" x2="502.52" y2="383.61"/><line class="f" x1="503.21" y1="384.3" x2="531.23" y2="384.3"/><line class="f" x1="531.92" y1="383.61" x2="531.92" y2="379.8"/><line class="f" x1="531.92" y1="379.8" x2="531.92" y2="356.63"/><line class="f" x1="531.92" y1="356.62" x2="529.5" y2="356.62"/><line class="f" x1="502.52" y1="357.66" x2="502.52" y2="378.07"/><line class="f" x1="520.9" y1="356.62" x2="503.56" y2="356.62"/><line class="f" x1="520.9" y1="356.62" x2="529.5" y2="356.62"/><line class="f" x1="473.12" y1="363.54" x2="473.12" y2="377.38"/><line class="f" x1="480.04" y1="384.3" x2="501.48" y2="384.3"/><line class="f" x1="502.52" y1="383.26" x2="502.52" y2="357.66"/><line class="f" x1="501.48" y1="356.62" x2="480.04" y2="356.62"/><line class="f" x1="530.54" y1="357.66" x2="530.54" y2="383.26"/><line class="f" x1="530.54" y1="355.59" x2="530.54" y2="317.88"/><g class="h"><path class="f" d="M531.23,311.66a.69.69,0,0,1,.69.69"/><path class="f" d="M531.92,316.15a.69.69,0,0,1-.69.7"/><path class="f" d="M503.21,316.85a.69.69,0,0,1-.69-.7"/><path class="f" d="M502.52,317.88a1,1,0,0,1,1-1"/><path class="f" d="M503.56,356.62a1,1,0,0,1-1-1"/><path class="f" d="M503.21,384.3a.69.69,0,0,1-.69-.69"/><path class="f" d="M531.92,383.61a.69.69,0,0,1-.69.69"/><path class="f" d="M502.52,357.66a1,1,0,0,1,1-1"/><path class="f" d="M502.52,383.26a1,1,0,0,1-1,1"/><path class="f" d="M501.48,356.62a1,1,0,0,1,1,1"/></g><line class="f" x1="530.54" y1="383.26" x2="506.98" y2="383.26"/><g class="h"><path class="f" d="M526.51,357.62A19.6,19.6,0,0,1,511.74,382"/><path class="f" d="M525.7,355.59a118.47,118.47,0,0,1,0-37.71"/><path class="f" d="M473.12,363.54a6.92,6.92,0,0,1,6.92-6.92"/><path class="f" d="M480,384.3a6.92,6.92,0,0,1-6.92-6.92"/><path class="f" d="M502.52,315.12a3.46,3.46,0,0,1,3.46-3.46"/></g><line class="f" x1="407.05" y1="213.08" x2="407.05" y2="213.08"/><line class="f" x1="386.3" y1="213.08" x2="386.3" y2="213.08"/><line class="f" x1="386.3" y1="213.08" x2="407.05" y2="213.08"/><rect class="d" x="376.27" y="282.6" width="21.79" height="54.82"/><line class="f" x1="398.06" y1="337.43" x2="398.06" y2="282.6"/><line class="f" x1="398.06" y1="282.6" x2="376.27" y2="282.6"/><line class="f" x1="376.27" y1="282.6" x2="376.27" y2="337.43"/><line class="f" x1="376.27" y1="337.43" x2="398.06" y2="337.43"/><line class="f" x1="387.16" y1="334.69" x2="387.16" y2="285.34"/><line class="f" x1="393.57" y1="332.14" x2="380.51" y2="327.51"/><line class="f" x1="394.22" y1="326.92" x2="382.08" y2="325"/><line class="f" x1="379.31" y1="319.77" x2="392.64" y2="318.2"/><line class="f" x1="381.05" y1="311.69" x2="392.64" y2="313.83"/><line class="f" x1="380.39" y1="308.74" x2="394.66" y2="308.74"/><line class="f" x1="380.33" y1="300.41" x2="394.43" y2="302.39"/><line class="f" x1="380.56" y1="297.29" x2="393.44" y2="297.29"/><line class="f" x1="380.43" y1="289.07" x2="393.64" y2="287.49"/><line class="f" x1="381.33" y1="291.05" x2="392.5" y2="292.65"/><rect class="d" x="376.27" y="337.43" width="21.79" height="53.79"/><line class="f" x1="398.06" y1="391.21" x2="398.06" y2="337.43"/><line class="f" x1="398.06" y1="337.43" x2="376.27" y2="337.43"/><line class="f" x1="376.27" y1="337.43" x2="376.27" y2="391.21"/><line class="f" x1="376.27" y1="391.21" x2="398.06" y2="391.21"/><line class="f" x1="387.16" y1="388.53" x2="387.16" y2="340.12"/><line class="f" x1="393.57" y1="386.03" x2="380.51" y2="381.48"/><line class="f" x1="394.22" y1="380.9" x2="382.08" y2="379.02"/><line class="f" x1="379.31" y1="373.9" x2="392.64" y2="372.35"/><line class="f" x1="381.05" y1="365.96" x2="392.64" y2="368.06"/><line class="f" x1="380.39" y1="363.08" x2="394.66" y2="363.08"/><line class="f" x1="380.33" y1="354.9" x2="394.43" y2="356.84"/><line class="f" x1="380.56" y1="351.84" x2="393.44" y2="351.84"/><line class="f" x1="380.43" y1="343.77" x2="393.64" y2="342.22"/><line class="f" x1="381.33" y1="345.71" x2="392.5" y2="347.28"/><polygon class="i" points="329.05 226.56 311.06 226.56 310.7 226.72 310.54 227.08 310.54 241.27 310.7 241.63 311.06 241.78 329.05 241.78 329.42 241.63 329.57 241.27 329.57 227.08 329.42 226.72 329.05 226.56"/><g class="h"><path class="f" d="M329.05,226.57a.51.51,0,0,1,.52.51"/></g><line class="f" x1="329.57" y1="241.27" x2="329.57" y2="227.08"/><g class="h"><path class="f" d="M329.57,241.27a.52.52,0,0,1-.52.52"/></g><line class="f" x1="311.06" y1="241.78" x2="329.05" y2="241.78"/><g class="h"><path class="f" d="M311.06,241.78a.52.52,0,0,1-.52-.51"/></g><line class="f" x1="310.54" y1="227.08" x2="310.54" y2="241.27"/><g class="h"><path class="f" d="M310.54,227.08a.52.52,0,0,1,.52-.51"/></g><line class="f" x1="329.05" y1="226.57" x2="311.06" y2="226.57"/><line class="f" x1="328.01" y1="230.37" x2="312.1" y2="230.37"/><line class="f" x1="311.58" y1="230.89" x2="311.58" y2="240.23"/><line class="f" x1="312.1" y1="240.75" x2="328.01" y2="240.75"/><line class="f" x1="328.53" y1="240.23" x2="328.53" y2="230.89"/><g class="h"><path class="f" d="M311.58,230.89a.52.52,0,0,1,.52-.52"/><path class="f" d="M312.1,240.75a.52.52,0,0,1-.52-.52"/><path class="f" d="M328.53,240.23a.52.52,0,0,1-.52.52"/><path class="f" d="M328,230.37a.52.52,0,0,1,.52.52"/></g><polygon class="i" points="320.92 228.64 320.78 230.09 320.67 230.42 320.44 232.25 320.31 232.5 320.06 232.59 319.8 232.5 319.67 232.25 319.44 230.42 319.33 230.09 319.19 228.64 319.45 228.03 320.06 227.78 320.67 228.03 320.92 228.64"/><line class="f" x1="320.92" y1="228.64" x2="320.78" y2="230.09"/><g class="h"><path class="f" d="M320.78,230.09a.76.76,0,0,1-.11.33"/></g><line class="f" x1="320.67" y1="230.42" x2="320.44" y2="232.25"/><g class="h"><path class="f" d="M320.44,232.25a.38.38,0,0,1-.38.34.39.39,0,0,1-.39-.34"/></g><line class="f" x1="319.67" y1="232.25" x2="319.44" y2="230.42"/><g class="h"><path class="f" d="M319.44,230.42a.76.76,0,0,1-.11-.33"/></g><line class="f" x1="319.33" y1="230.09" x2="319.19" y2="228.64"/><g class="h"><path class="f" d="M319.19,228.64a.87.87,0,0,1,1.73,0"/></g><line class="f" x1="319.59" y1="229.5" x2="319.59" y2="230.02"/><line class="f" x1="320.53" y1="230.02" x2="320.53" y2="229.5"/><line class="f" x1="320.53" y1="229.5" x2="319.59" y2="229.5"/><g class="h"><path class="f" d="M320.53,230a.47.47,0,0,1-.94,0"/><path class="f" d="M320.67,230.42a.71.71,0,0,1-.61.33.74.74,0,0,1-.62-.33"/></g><polygon class="i" points="302.24 226.56 289.44 226.56 289.44 237.98 289.71 239.69 290.49 241.24 291.69 242.48 293.66 243.5 295.84 243.86 298.03 243.5 300 242.48 301.2 241.24 301.98 239.69 302.24 237.98 302.24 226.56"/><line class="f" x1="289.44" y1="226.57" x2="289.44" y2="237.98"/><line class="f" x1="289.44" y1="226.57" x2="302.24" y2="226.57"/><line class="f" x1="302.24" y1="226.57" x2="302.24" y2="237.98"/><line class="f" x1="291.52" y1="230.72" x2="291.52" y2="237.98"/><line class="f" x1="300.17" y1="230.72" x2="300.17" y2="237.98"/><line class="f" x1="300.17" y1="230.72" x2="291.52" y2="230.72"/><g class="h"><path class="f" d="M291.69,242.48a5.64,5.64,0,0,1-2.25-4.5"/><path class="f" d="M302.24,238a5.63,5.63,0,0,1-2.25,4.5"/><path class="f" d="M300,242.48a6.93,6.93,0,0,1-8.3,0"/><path class="f" d="M302.24,238a5.63,5.63,0,0,1-2.25,4.5"/><path class="f" d="M300,242.48a6.88,6.88,0,0,1-4.15,1.38"/><path class="f" d="M300.17,238a3.56,3.56,0,0,1-1.42,2.84"/><path class="f" d="M298.75,240.82a4.88,4.88,0,0,1-5.81,0"/><path class="f" d="M292.94,240.82a3.56,3.56,0,0,1-1.42-2.84"/></g><line class="f" x1="410.86" y1="238.67" x2="400.48" y2="238.67"/><line class="f" x1="410.86" y1="242.13" x2="400.48" y2="242.13"/><line class="f" x1="275.95" y1="226.57" x2="275.95" y2="243.86"/><line class="f" x1="279.41" y1="226.57" x2="279.41" y2="247.32"/><line class="f" x1="488.26" y1="233.84" x2="488.26" y2="228.04"/><line class="f" x1="488.26" y1="228.04" x2="490.61" y2="229.94"/><line class="f" x1="490.62" y1="229.94" x2="492.97" y2="228.04"/><line class="f" x1="492.97" y1="228.04" x2="492.97" y2="233.84"/><polygon class="j" points="535.38 280.53 542.3 280.53 542.3 398.13 483.5 398.13 483.5 391.21 535.38 391.21 535.38 280.53"/><polygon class="j" points="481.77 405.05 481.77 398.13 542.3 398.13 542.3 278.8 549.22 278.8 549.22 405.05 490.42 405.05 481.77 405.05"/><rect x="535.38" y="213.07" width="6.92" height="32.86"/><rect x="542.3" y="213.07" width="6.92" height="34.59"/><rect x="365.89" y="391.21" width="48.43" height="6.92"/><rect x="364.16" y="398.13" width="51.89" height="6.92"/><rect x="248.28" y="391.21" width="48.43" height="6.92"/><rect x="248.28" y="213.08" width="91.66" height="8.3"/><polygon class="j" points="400.48 238.67 414.32 238.67 414.32 221.38 417.77 221.38 417.77 242.13 400.48 242.13 400.48 238.67"/><rect x="398.06" y="221.38" width="2.42" height="24.21"/><polygon class="j" points="535.38 221.38 378 221.38 378 213.08 386.3 213.08 535.38 213.08 535.38 221.38"/><polygon class="j" points="248.28 280.18 337.52 280.18 337.52 276.72 339.95 276.72 339.95 280.18 343.41 280.18 343.41 282.6 248.28 282.6 248.28 280.18"/><rect x="337.53" y="221.38" width="2.42" height="27.67"/><rect x="248.28" y="243.86" width="31.13" height="3.46"/><rect x="275.95" y="221.38" width="3.46" height="22.48"/><polygon class="j" points="374.54 280.18 398.06 280.18 398.06 276.72 400.48 276.72 400.48 391.21 398.06 391.21 398.06 282.6 374.54 282.6 374.54 280.18"/><polygon class="j" points="241.36 219.99 241.36 213.07 248.28 213.07 248.28 405.05 241.36 405.05 241.36 219.99"/><polygon class="j" points="248.28 398.13 298.44 398.13 298.44 405.05 289.79 405.05 253.47 405.05 248.28 405.05 248.28 398.13"/><rect x="376.27" y="213.07" width="1.73" height="3.98"/><rect x="339.95" y="213.07" width="1.73" height="3.98"/><line class="f" x1="241.36" y1="213.08" x2="241.36" y2="405.05"/><line class="f" x1="241.36" y1="405.05" x2="289.79" y2="405.05"/><line class="f" x1="289.79" y1="405.05" x2="490.41" y2="405.05"/><line class="f" x1="490.41" y1="405.05" x2="549.22" y2="405.05"/><line class="f" x1="549.22" y1="405.05" x2="549.22" y2="213.08"/><line class="f" x1="549.22" y1="213.08" x2="241.36" y2="213.08"/><path class="k" d="M297.53,254.25v7h-.72v-6.36h-1.65v-.63Z"/><path class="k" d="M299.21,260.74a.53.53,0,0,1,.53-.54.54.54,0,0,1,.54.54.55.55,0,0,1-.54.55A.54.54,0,0,1,299.21,260.74Z"/><path class="k" d="M301.22,257.74c0-2.23,1.17-3.55,2.79-3.55s2.79,1.32,2.79,3.55-1.17,3.56-2.79,3.56S301.22,260,301.22,257.74Zm4.85,0c0-1.87-.84-2.9-2.06-2.9s-2.06,1-2.06,2.9.84,2.9,2.06,2.9S306.07,259.61,306.07,257.74Z"/><path class="k" d="M313.78,259.4h-1.39v1.84h-.72V259.4h-3.95v-.52l3.71-4.63h.8l-3.58,4.51h3v-1.62h.7v1.62h1.39Z"/><path class="k" d="M339.2,329.27v7h-.72v-6.36h-1.65v-.64Z"/><path class="k" d="M340.88,335.77a.53.53,0,0,1,.53-.54.54.54,0,0,1,.54.54.55.55,0,0,1-.54.55A.54.54,0,0,1,340.88,335.77Z"/><path class="k" d="M342.89,332.77c0-2.23,1.17-3.55,2.79-3.55s2.79,1.32,2.79,3.55-1.17,3.56-2.79,3.56S342.89,335,342.89,332.77Zm4.85,0c0-1.87-.84-2.9-2.06-2.9s-2.06,1-2.06,2.9.84,2.9,2.06,2.9S347.74,334.64,347.74,332.77Z"/><path class="k" d="M354.05,334.26c0,1.17-.85,2.07-2.54,2.07a3.64,3.64,0,0,1-2.52-.9l.35-.57a3.07,3.07,0,0,0,2.17.81c1.16,0,1.8-.54,1.8-1.41s-.59-1.39-1.89-1.39h-.5v-.53l1.94-2.43h-3.58v-.64h4.5v.51l-2,2.49C353.3,332.35,354.05,333.14,354.05,334.26Z"/><path class="k" d="M441.25,329.27v7h-.72v-6.36h-1.65v-.64Z"/><path class="k" d="M442.93,335.77a.53.53,0,0,1,.53-.54.54.54,0,0,1,.54.54.55.55,0,0,1-.54.55A.54.54,0,0,1,442.93,335.77Z"/><path class="k" d="M444.94,332.77c0-2.23,1.17-3.55,2.79-3.55s2.8,1.32,2.8,3.55-1.18,3.56-2.8,3.56S444.94,335,444.94,332.77Zm4.85,0c0-1.87-.84-2.9-2.06-2.9s-2.06,1-2.06,2.9.84,2.9,2.06,2.9S449.79,334.64,449.79,332.77Z"/><path class="k" d="M456.33,335.63v.64h-4.91v-.51l2.91-2.85c.79-.78.94-1.25.94-1.73,0-.81-.57-1.31-1.64-1.31a2.38,2.38,0,0,0-1.91.78l-.51-.44a3.14,3.14,0,0,1,2.48-1c1.42,0,2.32.71,2.32,1.88a2.88,2.88,0,0,1-1.15,2.19l-2.38,2.34Z"/><path class="k" d="M376.1,254.25v7h-.72v-6.36h-1.65v-.63Z"/><path class="k" d="M377.78,260.74a.53.53,0,0,1,.53-.54.54.54,0,0,1,.54.54.55.55,0,0,1-.54.55A.54.54,0,0,1,377.78,260.74Z"/><path class="k" d="M379.79,257.74c0-2.23,1.17-3.55,2.79-3.55s2.8,1.32,2.8,3.55-1.18,3.56-2.8,3.56S379.79,260,379.79,257.74Zm4.85,0c0-1.87-.84-2.9-2.06-2.9s-2.06,1-2.06,2.9.84,2.9,2.06,2.9S384.64,259.61,384.64,257.74Z"/><path class="k" d="M388.34,254.25v7h-.72v-6.36H386v-.63Z"/></svg>