<svg xmlns="http://www.w3.org/2000/svg" xmlns:xlink="http://www.w3.org/1999/xlink" viewBox="0 0 790.58 618.13"><defs><style>.a,.f,.h{fill:none;}.b{fill:#595a5c;}.c{fill:#b6906c;}.d,.g{fill:#fff;}.e{fill:#231f20;}.f{stroke:#000;}.f,.h{stroke-linecap:round;stroke-linejoin:round;stroke-width:0.34px;}.g,.j{fill-rule:evenodd;}.h{stroke:#454545;}.i{clip-path:url(#a);}.k{fill:#58595b;}</style><clipPath id="a"><polygon class="a" points="241.54 166.71 241.54 396.13 378.02 396.13 378.02 451.41 535.22 451.41 549.04 451.41 549.04 315.28 500.67 315.28 500.67 201.26 403.93 201.26 334.83 201.26 334.83 166.71 241.54 166.71"/></clipPath></defs><path class="b" d="M55.31,597.13H57.1V609.9H55.31Zm.92,6.11h4.09a1.89,1.89,0,0,0,1-.27,1.82,1.82,0,0,0,.68-.77,2.67,2.67,0,0,0,.24-1.16,2.7,2.7,0,0,0-.24-1.16,1.82,1.82,0,0,0-1.7-1H56.23v-1.7h4a4.09,4.09,0,0,1,2,.48A3.45,3.45,0,0,1,63.62,599a4.64,4.64,0,0,1,0,4.11,3.34,3.34,0,0,1-1.35,1.36,4,4,0,0,1-2,.49h-4Z"/><path class="b" d="M67.7,606.33a2.07,2.07,0,0,0,.49,1.48,1.76,1.76,0,0,0,1.37.52,1.89,1.89,0,0,0,1.37-.46,1.79,1.79,0,0,0,.48-1.33l.12,1.91A2.58,2.58,0,0,1,69.06,610a2.89,2.89,0,0,1-2.33-1,4.08,4.08,0,0,1-.82-2.73v-5.55H67.7Zm.22-7.86a1.93,1.93,0,0,1-.56-1.5,2.07,2.07,0,0,1,.56-1.57,2.56,2.56,0,0,1,3.18,0,2.08,2.08,0,0,1,.57,1.56,1.94,1.94,0,0,1-.57,1.5,2.65,2.65,0,0,1-3.18,0Zm2.26-.86a.94.94,0,0,0,.24-.68,1,1,0,0,0-.24-.7.91.91,0,0,0-.67-.25.92.92,0,0,0-.67.25,1,1,0,0,0-.23.7,1,1,0,0,0,.23.68.92.92,0,0,0,.67.24A.9.9,0,0,0,70.18,597.61Zm1.23,3.17h1.78v9.12H71.41Z"/><path class="b" d="M77.1,609.63A2.82,2.82,0,0,1,76,608.36a5.08,5.08,0,0,1-.36-2v-2a5.05,5.05,0,0,1,.36-2,2.71,2.71,0,0,1,1-1.27,3,3,0,0,1,1.65-.44,2.71,2.71,0,0,1,1.48.42,3.22,3.22,0,0,1,1.09,1.19l-.18,1.86a2.19,2.19,0,0,0-.22-1,1.48,1.48,0,0,0-.61-.63,2,2,0,0,0-1-.21,1.71,1.71,0,0,0-1.37.55,2.26,2.26,0,0,0-.49,1.56v2a2.19,2.19,0,0,0,.49,1.54,1.74,1.74,0,0,0,1.37.54,1.93,1.93,0,0,0,1-.23,1.45,1.45,0,0,0,.61-.64,2.25,2.25,0,0,0,.22-1l.12,1.92a2.66,2.66,0,0,1-.89,1.14,2.56,2.56,0,0,1-1.53.45A3.19,3.19,0,0,1,77.1,609.63Zm4-12.5H82.9V609.9H81.11Z"/><path class="b" d="M87.09,609.57a3.09,3.09,0,0,1-1.29-1.36,4.85,4.85,0,0,1-.44-2.15v-1.48a4.71,4.71,0,0,1,.44-2.12,3.12,3.12,0,0,1,1.29-1.35,4.71,4.71,0,0,1,4.06,0,3.12,3.12,0,0,1,1.29,1.35,4.71,4.71,0,0,1,.44,2.12v1.51a4.79,4.79,0,0,1-.44,2.13,3.12,3.12,0,0,1-1.29,1.35,4.62,4.62,0,0,1-4.06,0Zm3.49-1.83a2.43,2.43,0,0,0,.51-1.65v-1.51a2.43,2.43,0,0,0-.51-1.65,1.88,1.88,0,0,0-1.46-.58,1.85,1.85,0,0,0-1.45.58,2.38,2.38,0,0,0-.52,1.65v1.51a2.38,2.38,0,0,0,.52,1.65,1.82,1.82,0,0,0,1.45.59A1.85,1.85,0,0,0,90.58,607.74Z"/><path class="b" d="M95.43,600.78h1.79v9.12H95.43Zm4.42,1.72a2.16,2.16,0,0,0-.83-.15,1.83,1.83,0,0,0-1.33.47,1.79,1.79,0,0,0-.47,1.31L97,602.37a3.32,3.32,0,0,1,1.09-1.27,2.58,2.58,0,0,1,1.48-.45,3.39,3.39,0,0,1,1.13.18,2.62,2.62,0,0,1,.88.53l-1.17,1.58A1.56,1.56,0,0,0,99.85,602.5Z"/><path class="b" d="M102.15,600.78H104l2.81,7.93-1,1.94Zm8.07,0L106.34,612a2.6,2.6,0,0,1-.56,1,1.87,1.87,0,0,1-.84.52,4,4,0,0,1-1.23.16h-.36V612h.36a1.46,1.46,0,0,0,.8-.2,1.74,1.74,0,0,0,.51-.7l3.38-10.31Z"/><path class="b" d="M113.51,609.88a5.76,5.76,0,0,1-1.32-.48,4.89,4.89,0,0,1-1.13-.79l1.06-1.31a5.86,5.86,0,0,0,1.47.85,4.18,4.18,0,0,0,1.44.28,3.11,3.11,0,0,0,1.6-.33,1.1,1.1,0,0,0,.53-1,.79.79,0,0,0-.29-.66,1.66,1.66,0,0,0-.72-.29c-.29,0-.69-.1-1.22-.14h-.15l-.14,0h-.15a6.45,6.45,0,0,1-1.5-.26,2,2,0,0,1-1-.7,2.38,2.38,0,0,1-.41-1.49,3.07,3.07,0,0,1,.39-1.61,2.41,2.41,0,0,1,1.18-1,5.29,5.29,0,0,1,2-.32,6.38,6.38,0,0,1,2.6.52,6.16,6.16,0,0,1,1.13.66l-1.08,1.31a5.59,5.59,0,0,0-1.35-.66,4,4,0,0,0-1.3-.22,2.44,2.44,0,0,0-1.37.31,1.08,1.08,0,0,0-.46.94.64.64,0,0,0,.26.55,1.72,1.72,0,0,0,.66.25c.26,0,.64.07,1.12.1h.34a7.67,7.67,0,0,1,1.63.25,2.24,2.24,0,0,1,1.13.77,2.62,2.62,0,0,1,.45,1.65,2.92,2.92,0,0,1-.42,1.63,2.54,2.54,0,0,1-1.27,1A5.88,5.88,0,0,1,115,610,7.38,7.38,0,0,1,113.51,609.88Z"/><path class="b" d="M126,597.13h1.8V609.9H126Zm2.6,12.5a2.39,2.39,0,0,1-.93-1.16l.13-1.91a2.22,2.22,0,0,0,.21,1,1.48,1.48,0,0,0,.61.63,1.93,1.93,0,0,0,1,.22,1.74,1.74,0,0,0,1.37-.54,2.18,2.18,0,0,0,.49-1.53v-2a2.26,2.26,0,0,0-.49-1.56,1.71,1.71,0,0,0-1.37-.55,2,2,0,0,0-1,.21,1.36,1.36,0,0,0-.61.62,2.12,2.12,0,0,0-.21,1l-.19-1.76a3.37,3.37,0,0,1,1.08-1.24,2.67,2.67,0,0,1,1.49-.43,3,3,0,0,1,1.65.43,2.9,2.9,0,0,1,1.06,1.27,5.1,5.1,0,0,1,.36,2v2a4.94,4.94,0,0,1-.37,2,2.79,2.79,0,0,1-1.08,1.26,3.25,3.25,0,0,1-1.71.44A2.73,2.73,0,0,1,128.57,609.63Z"/><path class="b" d="M134.46,600.78h1.82l2.81,7.93-1,1.94Zm8.07,0L138.65,612a2.6,2.6,0,0,1-.56,1,1.87,1.87,0,0,1-.84.52,4,4,0,0,1-1.23.16h-.36V612H136a1.46,1.46,0,0,0,.8-.2,1.74,1.74,0,0,0,.51-.7l3.37-10.31Z"/><path class="b" d="M143.57,600.78h4.12v1.62h-4.12Zm1.46,8.56a2.77,2.77,0,0,1-.52-1.81v-9.4h1.8v9.42a.84.84,0,0,0,.13.51.46.46,0,0,0,.39.18h.86V610h-1A2,2,0,0,1,145,609.34Z"/><path class="b" d="M151.94,606.33a2.07,2.07,0,0,0,.49,1.48,1.76,1.76,0,0,0,1.37.52,1.91,1.91,0,0,0,1.37-.46,1.79,1.79,0,0,0,.48-1.33l.12,1.91A2.58,2.58,0,0,1,153.3,610a2.89,2.89,0,0,1-2.33-1,4.08,4.08,0,0,1-.82-2.73v-5.55h1.79Zm3.71-5.55h1.78v9.12h-1.78Z"/><rect class="c" x="612.92" y="591.68" width="35.43" height="2.83"/><path class="d" d="M648.48,594.64H612.79v-3.08h35.69ZM613,594.39h35.19v-2.58H613Z"/><rect class="c" x="612.92" y="601.6" width="70.74" height="2.83"/><path class="d" d="M683.78,604.56h-71v-3.08h71ZM613,604.31h70.49v-2.58H613Z"/><rect class="c" x="612.92" y="612.72" width="177.16" height="2.84"/><path class="d" d="M790.21,615.68H612.79V612.6H790.21ZM613,615.43H790v-2.58H613Z"/><path class="e" d="M587.26,596.28h-.8v-4.82l-.81.5v-.83l.81-.53h.8Z"/><path class="e" d="M589,595.91a1.67,1.67,0,0,1-.41-1.19v-2.58A1.65,1.65,0,0,1,589,591a2,2,0,0,1,2.42,0,1.65,1.65,0,0,1,.41,1.19v2.58a1.65,1.65,0,0,1-.41,1.19,2,2,0,0,1-2.42,0Zm1.83-.55a.89.89,0,0,0,.2-.64v-2.58a.89.89,0,0,0-.2-.64.82.82,0,0,0-.62-.22.86.86,0,0,0-.63.22.94.94,0,0,0-.2.64v2.58a.9.9,0,0,0,.21.64,1,1,0,0,0,1.24,0Z"/><path class="e" d="M593.22,595.91a1.67,1.67,0,0,1-.41-1.19v-2.58a1.65,1.65,0,0,1,.41-1.19,2,2,0,0,1,2.42,0,1.61,1.61,0,0,1,.41,1.19v2.58a1.65,1.65,0,0,1-.41,1.19,2,2,0,0,1-2.42,0Zm1.83-.55a.9.9,0,0,0,.21-.64v-2.58a.94.94,0,0,0-.2-.64.86.86,0,0,0-.63-.22.82.82,0,0,0-.62.22.89.89,0,0,0-.2.64v2.58a.89.89,0,0,0,.2.64,1,1,0,0,0,1.24,0Z"/><path class="e" d="M600.1,596.13a1.45,1.45,0,0,1-.6-.6,2.06,2.06,0,0,1-.21-1v-.67a2,2,0,0,1,.21-.94,1.37,1.37,0,0,1,.6-.59,2,2,0,0,1,.95-.21,2.21,2.21,0,0,1,.59.08,1.68,1.68,0,0,1,.51.22,1.54,1.54,0,0,1,.37.35l-.58.52a1.17,1.17,0,0,0-.4-.3,1.13,1.13,0,0,0-.48-.11.94.94,0,0,0-.71.26,1,1,0,0,0-.26.72v.67a1,1,0,0,0,.25.74.94.94,0,0,0,.72.27,1,1,0,0,0,.48-.12,1,1,0,0,0,.4-.32l.58.56a1.38,1.38,0,0,1-.38.34,1.62,1.62,0,0,1-.5.22,2.27,2.27,0,0,1-.59.07A2.12,2.12,0,0,1,600.1,596.13Z"/><path class="e" d="M603.4,592.22h.79v4.06h-.79Zm2.42,1.6a1,1,0,0,0-.21-.67.78.78,0,0,0-.6-.23.81.81,0,0,0-.6.21.73.73,0,0,0-.22.58l-.08-.78a1.46,1.46,0,0,1,.49-.57,1.22,1.22,0,0,1,.67-.2,1.33,1.33,0,0,1,.73.2,1.18,1.18,0,0,1,.46.56,2.4,2.4,0,0,1,.15.89v2.47h-.79Zm2.42,0a.93.93,0,0,0-.22-.67.85.85,0,0,0-.63-.23.72.72,0,0,0-.57.23.9.9,0,0,0-.21.64l-.16-.78a1.61,1.61,0,0,1,.51-.63,1.23,1.23,0,0,1,.69-.22,1.37,1.37,0,0,1,.75.2,1.09,1.09,0,0,1,.47.56,2.21,2.21,0,0,1,.17.89v2.47h-.8Z"/><path class="e" d="M584.33,605.5l2-2.64a1.85,1.85,0,0,0,.27-.47,1.29,1.29,0,0,0,.09-.45h0a.67.67,0,0,0-.2-.53.81.81,0,0,0-.56-.19.76.76,0,0,0-.56.21,1,1,0,0,0-.27.58h-.82a2,2,0,0,1,.29-.83,1.42,1.42,0,0,1,.56-.53,1.67,1.67,0,0,1,.79-.18,1.93,1.93,0,0,1,.87.17,1.21,1.21,0,0,1,.54.51,1.55,1.55,0,0,1,.19.8h0a1.84,1.84,0,0,1-.12.63,2.8,2.8,0,0,1-.35.63l-1.65,2.24h2.15v.76h-3.2Z"/><path class="e" d="M589,605.83a1.67,1.67,0,0,1-.41-1.19v-2.58a1.65,1.65,0,0,1,.41-1.19,2,2,0,0,1,2.42,0,1.65,1.65,0,0,1,.41,1.19v2.58a1.65,1.65,0,0,1-.41,1.19,2,2,0,0,1-2.42,0Zm1.83-.55a.89.89,0,0,0,.2-.64v-2.58a.89.89,0,0,0-.2-.64.82.82,0,0,0-.62-.22.86.86,0,0,0-.63.22.94.94,0,0,0-.19.64v2.58a.89.89,0,0,0,.2.64,1,1,0,0,0,1.24,0Z"/><path class="e" d="M593.22,605.83a1.67,1.67,0,0,1-.41-1.19v-2.58a1.61,1.61,0,0,1,.42-1.19,1.59,1.59,0,0,1,1.2-.42,1.45,1.45,0,0,1,1.62,1.61v2.58a1.61,1.61,0,0,1-.41,1.19,2,2,0,0,1-2.42,0Zm1.84-.55a.94.94,0,0,0,.2-.64v-2.58a.94.94,0,0,0-.2-.64.84.84,0,0,0-.63-.22.82.82,0,0,0-.62.22.89.89,0,0,0-.2.64v2.58a.89.89,0,0,0,.2.64.82.82,0,0,0,.62.22A.86.86,0,0,0,595.06,605.28Z"/><path class="e" d="M600.1,606.05a1.45,1.45,0,0,1-.6-.6,2.06,2.06,0,0,1-.2-1v-.67a2,2,0,0,1,.2-.94,1.37,1.37,0,0,1,.6-.59,2,2,0,0,1,.95-.21,2.35,2.35,0,0,1,.6.08,1.73,1.73,0,0,1,.5.22,1.38,1.38,0,0,1,.37.35l-.58.52a1.08,1.08,0,0,0-.4-.3,1.13,1.13,0,0,0-.48-.11,1,1,0,0,0-.71.26,1,1,0,0,0-.26.72v.67a1,1,0,0,0,.25.74.94.94,0,0,0,.72.27,1.14,1.14,0,0,0,.88-.44l.58.56a1.38,1.38,0,0,1-.38.34,1.62,1.62,0,0,1-.5.22,2.22,2.22,0,0,1-.59.07A2.12,2.12,0,0,1,600.1,606.05Z"/><path class="e" d="M603.4,602.14h.79v4.06h-.79Zm2.42,1.6a1,1,0,0,0-.21-.67.78.78,0,0,0-.6-.23.81.81,0,0,0-.6.21.73.73,0,0,0-.22.58l-.08-.78a1.46,1.46,0,0,1,.49-.57,1.22,1.22,0,0,1,.67-.2,1.3,1.3,0,0,1,.73.2,1.18,1.18,0,0,1,.46.56,2.4,2.4,0,0,1,.16.89v2.47h-.8Zm2.42,0a.93.93,0,0,0-.22-.67.85.85,0,0,0-.63-.23.73.73,0,0,0-.57.23.89.89,0,0,0-.2.64l-.16-.78a1.51,1.51,0,0,1,.5-.63,1.23,1.23,0,0,1,.69-.22,1.35,1.35,0,0,1,.75.2,1.16,1.16,0,0,1,.48.56,2.4,2.4,0,0,1,.16.89v2.47h-.8Z"/><path class="e" d="M585,615.58a1.34,1.34,0,0,1-.54-.49,2,2,0,0,1-.28-.77h.8a.75.75,0,0,0,.25.49.85.85,0,0,0,.54.17.72.72,0,0,0,.59-.25,1.1,1.1,0,0,0,.21-.72v-.48a1.1,1.1,0,0,0-.21-.72.72.72,0,0,0-.59-.25.83.83,0,0,0-.4.11,1.18,1.18,0,0,0-.34.33h-.72v-3h2.89v.76h-2.1V612a1,1,0,0,1,.34-.18.94.94,0,0,1,.37-.07,1.68,1.68,0,0,1,.84.2,1.29,1.29,0,0,1,.53.6,2.07,2.07,0,0,1,.19.94V614a2.25,2.25,0,0,1-.19.94,1.31,1.31,0,0,1-.55.59,1.69,1.69,0,0,1-.86.21A1.74,1.74,0,0,1,585,615.58Z"/><path class="e" d="M589,615.32a1.65,1.65,0,0,1-.41-1.19v-2.58a1.67,1.67,0,0,1,.41-1.19,2,2,0,0,1,2.42,0,1.65,1.65,0,0,1,.41,1.19v2.58a1.64,1.64,0,0,1-.41,1.19,1.92,1.92,0,0,1-2.42,0Zm1.83-.55a.89.89,0,0,0,.2-.64v-2.58a.88.88,0,0,0-.2-.63.78.78,0,0,0-.62-.22.82.82,0,0,0-.63.22.93.93,0,0,0-.2.63v2.58a.9.9,0,0,0,.21.64,1,1,0,0,0,1.24,0Z"/><path class="e" d="M593.22,615.32a1.65,1.65,0,0,1-.41-1.19v-2.58a1.67,1.67,0,0,1,.41-1.19,2,2,0,0,1,2.42,0,1.61,1.61,0,0,1,.41,1.19v2.58a1.64,1.64,0,0,1-.41,1.19,1.92,1.92,0,0,1-2.42,0Zm1.83-.55a.9.9,0,0,0,.21-.64v-2.58a.93.93,0,0,0-.2-.63.82.82,0,0,0-.63-.22.78.78,0,0,0-.62.22.88.88,0,0,0-.2.63v2.58a.89.89,0,0,0,.2.64,1,1,0,0,0,1.24,0Z"/><path class="e" d="M600.1,615.54a1.45,1.45,0,0,1-.6-.6,2,2,0,0,1-.21-1v-.67a2,2,0,0,1,.21-.94,1.45,1.45,0,0,1,.6-.6,2,2,0,0,1,.95-.2,2.22,2.22,0,0,1,.59.07,2,2,0,0,1,.51.22,1.76,1.76,0,0,1,.37.35l-.58.52a1.17,1.17,0,0,0-.4-.3,1.13,1.13,0,0,0-.48-.11.94.94,0,0,0-.71.26,1,1,0,0,0-.26.73V614a1.07,1.07,0,0,0,.25.74,1,1,0,0,0,.72.26,1.13,1.13,0,0,0,.48-.11,1.26,1.26,0,0,0,.4-.32l.58.55a1.42,1.42,0,0,1-.38.35,1.88,1.88,0,0,1-.5.21,2.27,2.27,0,0,1-.59.08A2,2,0,0,1,600.1,615.54Z"/><path class="e" d="M603.4,611.63h.79v4.06h-.79Zm2.42,1.6a1,1,0,0,0-.21-.66.75.75,0,0,0-.6-.24.81.81,0,0,0-.6.21.75.75,0,0,0-.22.58l-.08-.78a1.5,1.5,0,0,1,.49-.56,1.15,1.15,0,0,1,.67-.2,1.32,1.32,0,0,1,.73.19,1.28,1.28,0,0,1,.46.56,2.42,2.42,0,0,1,.15.9v2.46h-.79Zm2.42,0a.91.91,0,0,0-.22-.66.82.82,0,0,0-.63-.24.72.72,0,0,0-.57.23.9.9,0,0,0-.21.64l-.16-.78a1.51,1.51,0,0,1,.51-.62,1.16,1.16,0,0,1,.69-.22,1.37,1.37,0,0,1,.75.19,1.18,1.18,0,0,1,.47.56,2.22,2.22,0,0,1,.17.9v2.46h-.8Z"/><path class="c" d="M23.49,613.89A12.92,12.92,0,1,1,36.4,601,12.93,12.93,0,0,1,23.49,613.89Zm0-24.83A11.92,11.92,0,1,0,35.4,601,11.93,11.93,0,0,0,23.49,589.06Z"/><polygon class="d" points="35.77 588.74 9.42 600.98 35.77 613.21 32.02 600.98 35.77 588.74"/><path class="c" d="M36.58,614.14,8.23,601l28.35-13.17-4,13.17ZM10.61,601,35,612.29,31.5,601,35,589.66Z"/><path class="c" d="M2.52,605.19a5,5,0,0,1-1.11-.38,4.4,4.4,0,0,1-1-.64l.81-1a3.72,3.72,0,0,0,1.16.69,4.08,4.08,0,0,0,1.38.23,2.73,2.73,0,0,0,1.55-.38,1.17,1.17,0,0,0,.55-1.05h0a1.12,1.12,0,0,0-.25-.77,1.44,1.44,0,0,0-.64-.42,8.23,8.23,0,0,0-1-.25H3.89l-.1,0a9.48,9.48,0,0,1-1.5-.36,2.08,2.08,0,0,1-1-.73,2.42,2.42,0,0,1-.41-1.51h0a2.77,2.77,0,0,1,.38-1.47,2.44,2.44,0,0,1,1.12-.92,4.48,4.48,0,0,1,1.77-.32,4.6,4.6,0,0,1,1,.11,4.9,4.9,0,0,1,1.86.86l-.73,1a4.61,4.61,0,0,0-1-.58,3,3,0,0,0-1.06-.2,2.44,2.44,0,0,0-1.46.38,1.24,1.24,0,0,0-.53,1.07h0a1,1,0,0,0,.27.75,1.74,1.74,0,0,0,.67.4,9.3,9.3,0,0,0,1.12.27h.24a7.93,7.93,0,0,1,1.4.41,2.22,2.22,0,0,1,.94.76,2.4,2.4,0,0,1,.38,1.43h0a2.62,2.62,0,0,1-.4,1.45,2.54,2.54,0,0,1-1.16.91,4.8,4.8,0,0,1-1.83.31A6.44,6.44,0,0,1,2.52,605.19Z"/><rect class="c" x="612.5" y="600.68" width="1" height="4.68"/><rect class="c" x="612.5" y="590.76" width="1" height="4.68"/><rect class="c" x="612.5" y="611.45" width="1" height="5.24"/><rect class="c" x="789.58" y="611.45" width="1" height="5.24"/><rect class="c" x="682.59" y="600.68" width="1" height="4.68"/><rect class="c" x="647.3" y="590.76" width="1" height="4.68"/><rect class="a" width="790.34" height="618.13"/><rect class="d" x="407.04" y="326.28" width="79.81" height="14.23"/><line class="f" x1="486.85" y1="340.5" x2="407.04" y2="340.5"/><line class="f" x1="407.04" y1="340.5" x2="407.04" y2="326.28"/><line class="f" x1="407.04" y1="326.28" x2="486.85" y2="326.28"/><line class="f" x1="486.85" y1="326.28" x2="486.85" y2="340.5"/><line class="f" x1="417.75" y1="451.41" x2="417.75" y2="451.41"/><line class="f" x1="417.75" y1="451.41" x2="535.22" y2="451.41"/><line class="f" x1="535.22" y1="451.41" x2="535.22" y2="451.41"/><rect class="d" x="378.36" y="329.1" width="26.26" height="17.56"/><line class="f" x1="378.36" y1="329.1" x2="378.36" y2="346.66"/><line class="f" x1="404.62" y1="329.1" x2="378.36" y2="329.1"/><line class="f" x1="404.62" y1="346.66" x2="404.62" y2="329.1"/><line class="f" x1="378.36" y1="346.66" x2="404.62" y2="346.66"/><rect class="d" x="249.31" y="355.88" width="31.1" height="31.1"/><line class="f" x1="249.31" y1="355.88" x2="249.31" y2="386.98"/><line class="f" x1="280.41" y1="355.88" x2="249.31" y2="355.88"/><line class="f" x1="280.41" y1="386.98" x2="280.41" y2="355.88"/><line class="f" x1="249.31" y1="386.98" x2="280.41" y2="386.98"/><rect class="d" x="378.84" y="380.93" width="25.91" height="6.91"/><line class="f" x1="378.84" y1="380.93" x2="378.84" y2="387.84"/><line class="f" x1="404.75" y1="380.93" x2="378.84" y2="380.93"/><line class="f" x1="404.75" y1="387.84" x2="404.75" y2="380.93"/><line class="f" x1="378.84" y1="387.84" x2="404.75" y2="387.84"/><polygon class="g" points="248.45 326.68 248.45 304.57 248.45 180.53 269.52 180.53 269.52 305.55 331.72 305.55 331.72 326.68 248.45 326.68"/><line class="f" x1="248.45" y1="304.57" x2="248.45" y2="326.68"/><line class="f" x1="248.45" y1="180.53" x2="248.45" y2="304.57"/><line class="f" x1="269.52" y1="180.53" x2="248.45" y2="180.53"/><line class="f" x1="269.52" y1="305.55" x2="269.52" y2="180.53"/><line class="f" x1="331.72" y1="305.55" x2="269.52" y2="305.55"/><line class="f" x1="331.72" y1="326.68" x2="331.72" y2="305.55"/><line class="f" x1="248.45" y1="326.68" x2="331.72" y2="326.68"/><rect class="d" x="279.54" y="329.1" width="58.05" height="5.18"/><line class="f" x1="279.54" y1="329.1" x2="279.54" y2="334.29"/><line class="f" x1="337.59" y1="329.1" x2="279.54" y2="329.1"/><line class="f" x1="337.59" y1="334.28" x2="337.59" y2="329.1"/><line class="f" x1="279.54" y1="334.28" x2="337.59" y2="334.28"/><line class="f" x1="248.45" y1="329.1" x2="248.45" y2="326.68"/><line class="f" x1="276.09" y1="329.1" x2="248.45" y2="329.1"/><line class="f" x1="248.45" y1="326.68" x2="248.45" y2="180.53"/><line class="f" x1="248.45" y1="351.56" x2="248.45" y2="355.02"/><line class="f" x1="241.54" y1="166.71" x2="269.18" y2="166.71"/><line class="f" x1="241.54" y1="180.53" x2="248.45" y2="180.53"/><line class="f" x1="535.22" y1="443.12" x2="535.22" y2="401.66"/><line class="f" x1="535.22" y1="346.38" x2="535.22" y2="329.1"/><line class="f" x1="334.83" y1="166.71" x2="302" y2="166.71"/><line class="f" x1="270.91" y1="166.71" x2="241.54" y2="166.71"/><line class="f" x1="321.01" y1="180.53" x2="303.73" y2="180.53"/><line class="f" x1="269.18" y1="180.53" x2="248.45" y2="180.53"/><line class="f" x1="327.92" y1="173.62" x2="303.73" y2="173.62"/><line class="f" x1="269.18" y1="173.62" x2="241.54" y2="173.62"/><line class="f" x1="500.67" y1="315.28" x2="500.67" y2="292.82"/><line class="f" x1="500.67" y1="234.09" x2="500.67" y2="201.26"/><line class="f" x1="535.22" y1="451.41" x2="535.22" y2="451.41"/><line class="f" x1="542.13" y1="451.41" x2="542.13" y2="401.66"/><line class="f" x1="542.13" y1="346.38" x2="542.13" y2="322.19"/><line class="f" x1="486.85" y1="329.1" x2="486.85" y2="294.55"/><line class="f" x1="486.85" y1="232.36" x2="486.85" y2="215.08"/><line class="f" x1="493.76" y1="322.19" x2="493.76" y2="294.55"/><line class="f" x1="493.76" y1="232.36" x2="493.76" y2="208.17"/><line class="f" x1="334.83" y1="201.26" x2="334.83" y2="166.71"/><line class="f" x1="321.01" y1="215.08" x2="321.01" y2="180.53"/><line class="f" x1="303.73" y1="180.53" x2="303.73" y2="173.62"/><line class="f" x1="302" y1="173.62" x2="302" y2="166.71"/><line class="f" x1="269.18" y1="180.53" x2="269.18" y2="173.62"/><line class="f" x1="270.91" y1="173.62" x2="270.91" y2="166.71"/><line class="f" x1="327.92" y1="208.17" x2="327.92" y2="173.62"/><line class="f" x1="334.83" y1="201.26" x2="336.55" y2="201.26"/><line class="f" x1="336.55" y1="201.26" x2="395.29" y2="201.26"/><line class="f" x1="395.29" y1="201.26" x2="403.93" y2="201.26"/><line class="f" x1="403.93" y1="201.26" x2="500.67" y2="201.26"/><line class="f" x1="321.01" y1="215.08" x2="334.83" y2="215.08"/><line class="f" x1="397.02" y1="215.08" x2="486.85" y2="215.08"/><line class="f" x1="327.92" y1="208.17" x2="334.83" y2="208.17"/><line class="f" x1="397.02" y1="208.17" x2="493.76" y2="208.17"/><line class="f" x1="500.67" y1="315.28" x2="549.05" y2="315.28"/><line class="f" x1="489.27" y1="329.1" x2="535.22" y2="329.1"/><line class="f" x1="493.76" y1="322.19" x2="542.13" y2="322.19"/><line class="f" x1="302" y1="166.71" x2="270.91" y2="166.71"/><line class="f" x1="303.73" y1="180.53" x2="269.18" y2="180.53"/><line class="f" x1="340.01" y1="396.13" x2="241.54" y2="396.13"/><line class="f" x1="489.27" y1="329.1" x2="486.85" y2="329.1"/><line class="f" x1="270.91" y1="173.62" x2="269.18" y2="173.62"/><line class="f" x1="303.73" y1="173.62" x2="302" y2="173.62"/><line class="f" x1="299.58" y1="177.08" x2="273.32" y2="177.08"/><line class="f" x1="273.32" y1="174.31" x2="299.58" y2="174.31"/><line class="f" x1="535.22" y1="346.38" x2="535.22" y2="401.66"/><line class="f" x1="397.02" y1="215.08" x2="397.02" y2="208.17"/><line class="f" x1="486.85" y1="294.55" x2="493.76" y2="294.55"/><line class="f" x1="486.85" y1="232.36" x2="493.76" y2="232.36"/><line class="f" x1="500.67" y1="292.82" x2="500.67" y2="234.09"/><line class="f" x1="331.37" y1="166.71" x2="331.37" y2="166.71"/><line class="f" x1="486.85" y1="294.55" x2="486.85" y2="232.36"/><line class="f" x1="397.02" y1="215.08" x2="362.47" y2="215.08"/><line class="f" x1="542.13" y1="348.11" x2="549.04" y2="348.11"/><line class="f" x1="542.13" y1="399.93" x2="549.04" y2="399.93"/><line class="f" x1="549.04" y1="399.93" x2="549.04" y2="348.1"/><line class="f" x1="542.13" y1="346.38" x2="535.22" y2="346.38"/><line class="f" x1="542.13" y1="401.66" x2="535.22" y2="401.66"/><line class="f" x1="542.13" y1="401.66" x2="542.13" y2="399.93"/><line class="f" x1="493.76" y1="234.09" x2="500.67" y2="234.09"/><line class="f" x1="493.76" y1="234.09" x2="493.76" y2="232.36"/><line class="f" x1="493.76" y1="292.82" x2="500.67" y2="292.82"/><line class="f" x1="493.76" y1="294.55" x2="493.76" y2="292.82"/><line class="f" x1="395.29" y1="208.17" x2="395.29" y2="201.26"/><line class="f" x1="395.29" y1="208.17" x2="397.02" y2="208.17"/><line class="f" x1="538.68" y1="350.52" x2="538.68" y2="397.52"/><line class="f" x1="541.44" y1="397.51" x2="541.44" y2="350.52"/><line class="f" x1="540.06" y1="350.52" x2="540.06" y2="371.95"/><line class="f" x1="540.06" y1="376.09" x2="540.06" y2="397.51"/><line class="f" x1="490.31" y1="236.51" x2="490.31" y2="290.4"/><line class="f" x1="493.07" y1="290.4" x2="493.07" y2="236.51"/><line class="f" x1="491.69" y1="236.51" x2="491.69" y2="261.38"/><line class="f" x1="491.69" y1="265.53" x2="491.69" y2="290.4"/><line class="f" x1="493.07" y1="265.53" x2="490.31" y2="265.53"/><line class="f" x1="493.07" y1="261.38" x2="490.31" y2="261.38"/><line class="f" x1="542.13" y1="348.11" x2="542.13" y2="346.38"/><line class="f" x1="334.83" y1="215.08" x2="334.83" y2="208.17"/><line class="f" x1="336.55" y1="208.17" x2="336.55" y2="201.26"/><line class="f" x1="334.83" y1="208.17" x2="336.55" y2="208.17"/><line class="f" x1="362.47" y1="215.08" x2="334.83" y2="215.08"/><line class="f" x1="538.68" y1="376.09" x2="541.44" y2="376.09"/><line class="f" x1="538.68" y1="371.95" x2="541.44" y2="371.95"/><line class="f" x1="248.45" y1="387.84" x2="248.45" y2="355.01"/><line class="f" x1="248.45" y1="351.56" x2="248.45" y2="329.1"/><line class="f" x1="404.62" y1="329.1" x2="374.56" y2="329.1"/><line class="f" x1="343.46" y1="329.1" x2="340.01" y2="329.1"/><line class="f" x1="337.59" y1="329.1" x2="279.54" y2="329.1"/><line class="f" x1="489.27" y1="342.92" x2="407.04" y2="342.92"/><line class="f" x1="486.85" y1="340.5" x2="407.04" y2="340.5"/><line class="f" x1="407.04" y1="326.68" x2="374.56" y2="326.68"/><line class="f" x1="343.46" y1="326.68" x2="248.45" y2="326.68"/><line class="f" x1="378.02" y1="396.13" x2="376.29" y2="396.13"/><line class="f" x1="386.31" y1="387.84" x2="378.02" y2="387.84"/><line class="f" x1="337.59" y1="387.84" x2="248.45" y2="387.84"/><line class="f" x1="279.54" y1="355.02" x2="248.45" y2="355.02"/><line class="f" x1="276.09" y1="351.56" x2="248.45" y2="351.56"/><line class="f" x1="407.04" y1="390.26" x2="407.04" y2="379.2"/><line class="f" x1="407.04" y1="348.11" x2="407.04" y2="342.92"/><line class="f" x1="404.62" y1="387.84" x2="404.62" y2="379.2"/><line class="f" x1="404.62" y1="348.11" x2="404.62" y2="329.1"/><line class="f" x1="340.01" y1="387.84" x2="340.01" y2="384.38"/><line class="f" x1="340.01" y1="356.74" x2="340.01" y2="329.1"/><line class="f" x1="337.59" y1="387.84" x2="337.59" y2="384.38"/><line class="f" x1="337.59" y1="356.74" x2="337.59" y2="329.1"/><line class="f" x1="486.85" y1="329.1" x2="486.85" y2="340.5"/><line class="f" x1="489.27" y1="329.1" x2="489.27" y2="342.92"/><line class="f" x1="407.04" y1="348.11" x2="404.62" y2="348.11"/><line class="f" x1="407.04" y1="379.2" x2="404.62" y2="379.2"/><line class="f" x1="340.01" y1="384.38" x2="337.59" y2="384.38"/><line class="f" x1="340.01" y1="356.74" x2="337.59" y2="356.74"/><line class="f" x1="378.02" y1="387.84" x2="378.02" y2="392.16"/><line class="f" x1="340.01" y1="387.84" x2="340.01" y2="392.16"/><line class="f" x1="376.29" y1="392.16" x2="376.29" y2="396.13"/><line class="f" x1="341.74" y1="392.16" x2="341.74" y2="396.13"/><line class="f" x1="341.74" y1="392.16" x2="340.01" y2="392.16"/><line class="f" x1="376.29" y1="392.16" x2="378.02" y2="392.16"/><line class="f" x1="378.02" y1="387.84" x2="371.11" y2="387.84"/><line class="f" x1="367.3" y1="387.84" x2="366.53" y2="387.84"/><line class="f" x1="362.73" y1="387.84" x2="361.95" y2="387.84"/><line class="f" x1="358.15" y1="387.84" x2="351.24" y2="387.84"/><line class="f" x1="347.44" y1="387.84" x2="346.92" y2="387.84"/><line class="f" x1="346.92" y1="387.84" x2="340.01" y2="387.84"/><line class="f" x1="343.46" y1="329.1" x2="343.46" y2="326.68"/><line class="f" x1="374.56" y1="329.1" x2="374.56" y2="326.68"/><line class="f" x1="404.62" y1="387.84" x2="386.31" y2="387.84"/><line class="f" x1="407.04" y1="390.26" x2="386.31" y2="390.26"/><line class="f" x1="407.04" y1="340.5" x2="407.04" y2="326.68"/><line class="f" x1="386.31" y1="390.26" x2="386.31" y2="387.84"/><line class="f" x1="340.01" y1="387.84" x2="337.59" y2="387.84"/><line class="f" x1="340.01" y1="396.13" x2="341.74" y2="396.13"/><line class="f" x1="279.54" y1="355.02" x2="279.54" y2="351.56"/><line class="f" x1="279.54" y1="334.28" x2="279.54" y2="329.1"/><line class="f" x1="276.09" y1="334.28" x2="276.09" y2="329.1"/><line class="f" x1="340.01" y1="392.16" x2="340.01" y2="396.13"/><line class="f" x1="378.02" y1="396.13" x2="378.02" y2="392.16"/><line class="f" x1="343.46" y1="392.16" x2="374.56" y2="392.16"/><line class="f" x1="343.46" y1="396.13" x2="374.56" y2="396.13"/><line class="f" x1="343.46" y1="392.16" x2="343.46" y2="361.06"/><line class="f" x1="343.46" y1="396.13" x2="343.46" y2="392.16"/><line class="f" x1="374.56" y1="392.16" x2="374.56" y2="396.13"/><line class="f" x1="374.56" y1="392.16" x2="376.29" y2="392.16"/><line class="f" x1="374.56" y1="396.13" x2="376.29" y2="396.13"/><line class="f" x1="341.74" y1="392.16" x2="343.46" y2="392.16"/><line class="f" x1="341.74" y1="396.13" x2="343.46" y2="396.13"/><line class="f" x1="535.22" y1="443.12" x2="386.31" y2="443.12"/><line class="f" x1="400.47" y1="451.41" x2="400.47" y2="451.41"/><line class="f" x1="398.06" y1="451.41" x2="398.06" y2="451.41"/><line class="f" x1="535.22" y1="451.41" x2="417.75" y2="451.41"/><line class="f" x1="417.75" y1="451.41" x2="417.75" y2="451.41"/><line class="f" x1="417.75" y1="451.41" x2="414.29" y2="451.41"/><line class="f" x1="535.22" y1="443.12" x2="535.22" y2="451.41"/><line class="f" x1="400.47" y1="451.41" x2="398.06" y2="451.41"/><line class="f" x1="386.31" y1="443.12" x2="386.31" y2="390.26"/><line class="f" x1="398.06" y1="451.41" x2="378.02" y2="451.41"/><line class="f" x1="363.85" y1="211.63" x2="338.97" y2="211.63"/><line class="f" x1="338.97" y1="208.87" x2="363.85" y2="208.87"/><line class="f" x1="363.85" y1="210.25" x2="338.97" y2="210.25"/><line class="f" x1="392.87" y1="211.63" x2="368" y2="211.63"/><line class="f" x1="368" y1="208.87" x2="392.87" y2="208.87"/><line class="f" x1="392.87" y1="210.25" x2="368" y2="210.25"/><line class="f" x1="345.19" y1="326.68" x2="372.83" y2="326.68"/><line class="f" x1="345.19" y1="326.68" x2="345.19" y2="299.04"/><line class="f" x1="345.19" y1="329.1" x2="345.19" y2="326.68"/><line class="f" x1="372.83" y1="326.68" x2="372.83" y2="329.1"/><line class="f" x1="372.83" y1="326.68" x2="374.56" y2="326.68"/><line class="f" x1="372.83" y1="329.1" x2="374.56" y2="329.1"/><line class="f" x1="343.46" y1="326.68" x2="345.19" y2="326.68"/><line class="f" x1="343.46" y1="329.1" x2="345.19" y2="329.1"/><line class="f" x1="345.19" y1="329.1" x2="352.1" y2="329.1"/><line class="f" x1="355.9" y1="329.1" x2="356.68" y2="329.1"/><line class="f" x1="360.48" y1="329.1" x2="361.26" y2="329.1"/><line class="f" x1="365.06" y1="329.1" x2="365.92" y2="329.1"/><line class="f" x1="365.92" y1="329.1" x2="372.83" y2="329.1"/><line class="f" x1="345.19" y1="326.68" x2="345.19" y2="325.82"/><line class="f" x1="345.19" y1="325.82" x2="341.74" y2="325.82"/><line class="f" x1="341.74" y1="325.82" x2="341.74" y2="326.68"/><line class="f" x1="345.19" y1="329.1" x2="345.19" y2="329.97"/><line class="f" x1="345.19" y1="329.97" x2="341.74" y2="329.97"/><line class="f" x1="341.74" y1="329.97" x2="341.74" y2="329.1"/><line class="f" x1="372.83" y1="325.82" x2="376.29" y2="325.82"/><line class="f" x1="376.29" y1="325.82" x2="376.29" y2="326.68"/><line class="f" x1="372.83" y1="329.1" x2="372.83" y2="329.97"/><line class="f" x1="372.83" y1="329.97" x2="376.29" y2="329.97"/><line class="f" x1="376.29" y1="329.97" x2="376.29" y2="329.1"/><line class="f" x1="337.59" y1="382.66" x2="337.59" y2="358.47"/><line class="f" x1="337.59" y1="382.66" x2="313.4" y2="382.66"/><line class="f" x1="340.01" y1="382.66" x2="337.59" y2="382.66"/><line class="f" x1="337.59" y1="358.47" x2="340.01" y2="358.47"/><line class="f" x1="337.59" y1="358.47" x2="337.59" y2="356.74"/><line class="f" x1="340.01" y1="358.47" x2="340.01" y2="356.74"/><line class="f" x1="337.59" y1="384.38" x2="337.59" y2="382.66"/><line class="f" x1="340.01" y1="384.38" x2="340.01" y2="382.66"/><line class="f" x1="340.01" y1="382.66" x2="340.01" y2="375.75"/><line class="f" x1="340.01" y1="371.95" x2="340.01" y2="371.17"/><line class="f" x1="340.01" y1="367.37" x2="340.01" y2="366.59"/><line class="f" x1="340.01" y1="365.38" x2="340.01" y2="358.47"/><line class="f" x1="337.59" y1="382.66" x2="336.73" y2="382.66"/><line class="f" x1="336.73" y1="382.66" x2="336.73" y2="386.11"/><line class="f" x1="336.73" y1="386.11" x2="337.59" y2="386.11"/><line class="f" x1="340.01" y1="382.66" x2="340.87" y2="382.66"/><line class="f" x1="340.87" y1="382.66" x2="340.87" y2="386.11"/><line class="f" x1="340.87" y1="386.11" x2="340.01" y2="386.11"/><line class="f" x1="336.73" y1="358.47" x2="336.73" y2="355.01"/><line class="f" x1="336.73" y1="355.02" x2="337.59" y2="355.02"/><line class="f" x1="340.01" y1="358.47" x2="340.87" y2="358.47"/><line class="f" x1="340.87" y1="358.47" x2="340.87" y2="355.01"/><line class="f" x1="340.87" y1="355.02" x2="340.01" y2="355.02"/><line class="f" x1="407.04" y1="349.83" x2="407.04" y2="377.47"/><line class="f" x1="407.04" y1="349.83" x2="434.68" y2="349.83"/><line class="f" x1="404.62" y1="349.83" x2="407.04" y2="349.83"/><line class="f" x1="407.04" y1="377.47" x2="404.62" y2="377.47"/><line class="f" x1="407.04" y1="377.47" x2="407.04" y2="379.2"/><line class="f" x1="404.62" y1="377.47" x2="404.62" y2="379.2"/><line class="f" x1="407.04" y1="348.11" x2="407.04" y2="349.83"/><line class="f" x1="404.62" y1="348.11" x2="404.62" y2="349.83"/><line class="f" x1="404.62" y1="349.83" x2="404.62" y2="356.74"/><line class="f" x1="404.62" y1="360.54" x2="404.62" y2="361.32"/><line class="f" x1="404.62" y1="365.12" x2="404.62" y2="365.9"/><line class="f" x1="404.62" y1="369.7" x2="404.62" y2="370.56"/><line class="f" x1="404.62" y1="370.56" x2="404.62" y2="377.47"/><line class="f" x1="407.04" y1="349.83" x2="407.9" y2="349.83"/><line class="f" x1="407.9" y1="349.83" x2="407.9" y2="346.38"/><line class="f" x1="407.9" y1="346.38" x2="407.04" y2="346.38"/><line class="f" x1="404.62" y1="349.83" x2="403.76" y2="349.83"/><line class="f" x1="403.76" y1="349.83" x2="403.76" y2="346.38"/><line class="f" x1="403.76" y1="346.38" x2="404.62" y2="346.38"/><line class="f" x1="407.9" y1="377.47" x2="407.9" y2="380.93"/><line class="f" x1="407.9" y1="380.93" x2="407.04" y2="380.93"/><line class="f" x1="404.62" y1="377.47" x2="403.76" y2="377.47"/><line class="f" x1="403.76" y1="377.47" x2="403.76" y2="380.93"/><line class="f" x1="403.76" y1="380.93" x2="404.62" y2="380.93"/><line class="f" x1="337.59" y1="334.28" x2="279.54" y2="334.28"/><line class="f" x1="248.45" y1="387.84" x2="248.45" y2="396.13"/><line class="f" x1="279.54" y1="334.28" x2="276.09" y2="334.28"/><line class="f" x1="276.09" y1="351.56" x2="279.54" y2="351.56"/><line class="f" x1="276.09" y1="329.1" x2="279.54" y2="329.1"/><line class="h" x1="400.47" y1="451.41" x2="406.69" y2="451.41"/><line class="h" x1="408.25" y1="451.41" x2="408.51" y2="451.41"/><line class="h" x1="410.06" y1="451.41" x2="410.32" y2="451.41"/><line class="h" x1="411.88" y1="451.41" x2="414.29" y2="451.41"/><line class="f" x1="400.47" y1="451.41" x2="414.29" y2="451.41"/><line class="f" x1="414.29" y1="451.41" x2="414.29" y2="451.41"/><line class="f" x1="300.97" y1="174.31" x2="300.97" y2="173.62"/><line class="f" x1="300.97" y1="173.62" x2="303.73" y2="173.62"/><line class="f" x1="303.73" y1="173.62" x2="303.73" y2="176.39"/><line class="f" x1="303.73" y1="176.39" x2="302.35" y2="176.39"/><line class="f" x1="302.35" y1="177.08" x2="299.58" y2="177.08"/><line class="f" x1="299.58" y1="177.08" x2="299.58" y2="174.31"/><line class="f" x1="299.58" y1="174.31" x2="302.35" y2="174.31"/><line class="f" x1="302.35" y1="174.31" x2="302.35" y2="177.08"/><line class="f" x1="271.94" y1="174.31" x2="271.94" y2="173.62"/><line class="f" x1="271.94" y1="173.62" x2="269.18" y2="173.62"/><line class="f" x1="269.18" y1="173.62" x2="269.18" y2="176.39"/><line class="f" x1="269.18" y1="176.39" x2="270.56" y2="176.39"/><line class="f" x1="270.56" y1="177.08" x2="273.32" y2="177.08"/><line class="f" x1="273.32" y1="177.08" x2="273.32" y2="174.31"/><line class="f" x1="273.32" y1="174.31" x2="270.56" y2="174.31"/><line class="f" x1="270.56" y1="174.31" x2="270.56" y2="177.08"/><line class="f" x1="541.44" y1="349.14" x2="542.13" y2="349.14"/><line class="f" x1="542.13" y1="349.14" x2="542.13" y2="346.38"/><line class="f" x1="542.13" y1="346.38" x2="539.37" y2="346.38"/><line class="f" x1="539.37" y1="346.38" x2="539.37" y2="347.76"/><line class="f" x1="538.68" y1="347.76" x2="538.68" y2="350.52"/><line class="f" x1="538.68" y1="350.52" x2="541.44" y2="350.52"/><line class="f" x1="541.44" y1="350.52" x2="541.44" y2="347.76"/><line class="f" x1="541.44" y1="347.76" x2="538.68" y2="347.76"/><line class="f" x1="541.44" y1="398.9" x2="542.13" y2="398.9"/><line class="f" x1="542.13" y1="398.9" x2="542.13" y2="401.66"/><line class="f" x1="542.13" y1="401.66" x2="539.37" y2="401.66"/><line class="f" x1="539.37" y1="401.66" x2="539.37" y2="400.28"/><line class="f" x1="538.68" y1="400.28" x2="538.68" y2="397.51"/><line class="f" x1="538.68" y1="397.51" x2="541.44" y2="397.51"/><line class="f" x1="541.44" y1="397.51" x2="541.44" y2="400.28"/><line class="f" x1="541.44" y1="400.28" x2="538.68" y2="400.28"/><line class="f" x1="493.07" y1="235.12" x2="493.76" y2="235.12"/><line class="f" x1="493.76" y1="235.12" x2="493.76" y2="232.36"/><line class="f" x1="493.76" y1="232.36" x2="491" y2="232.36"/><line class="f" x1="491" y1="232.36" x2="491" y2="233.74"/><line class="f" x1="490.31" y1="233.74" x2="490.31" y2="236.51"/><line class="f" x1="490.31" y1="236.51" x2="493.07" y2="236.51"/><line class="f" x1="493.07" y1="236.51" x2="493.07" y2="233.74"/><line class="f" x1="493.07" y1="233.74" x2="490.31" y2="233.74"/><line class="f" x1="493.07" y1="291.79" x2="493.76" y2="291.79"/><line class="f" x1="493.76" y1="291.79" x2="493.76" y2="294.55"/><line class="f" x1="493.76" y1="294.55" x2="491" y2="294.55"/><line class="f" x1="491" y1="294.55" x2="491" y2="293.17"/><line class="f" x1="490.31" y1="293.17" x2="490.31" y2="290.4"/><line class="f" x1="490.31" y1="290.4" x2="493.07" y2="290.4"/><line class="f" x1="493.07" y1="290.4" x2="493.07" y2="293.17"/><line class="f" x1="493.07" y1="293.17" x2="490.31" y2="293.17"/><line class="f" x1="336.21" y1="211.63" x2="338.97" y2="211.63"/><line class="f" x1="338.97" y1="211.63" x2="338.97" y2="208.87"/><line class="f" x1="338.97" y1="208.87" x2="336.21" y2="208.87"/><line class="f" x1="336.21" y1="208.87" x2="336.21" y2="211.63"/><line class="f" x1="368" y1="211.63" x2="363.85" y2="211.63"/><line class="f" x1="363.85" y1="211.63" x2="363.85" y2="208.87"/><line class="f" x1="363.85" y1="208.87" x2="367.99" y2="208.87"/><line class="f" x1="368" y1="208.87" x2="368" y2="211.63"/><line class="f" x1="337.59" y1="208.87" x2="337.59" y2="208.17"/><line class="f" x1="337.59" y1="208.17" x2="334.83" y2="208.17"/><line class="f" x1="334.83" y1="208.17" x2="334.83" y2="210.94"/><line class="f" x1="334.83" y1="210.94" x2="336.21" y2="210.94"/><line class="f" x1="395.64" y1="211.63" x2="392.87" y2="211.63"/><line class="f" x1="392.87" y1="211.63" x2="392.87" y2="208.87"/><line class="f" x1="392.87" y1="208.87" x2="395.64" y2="208.87"/><line class="f" x1="395.64" y1="208.87" x2="395.64" y2="211.63"/><line class="f" x1="394.25" y1="208.87" x2="394.25" y2="208.17"/><line class="f" x1="394.25" y1="208.17" x2="397.02" y2="208.17"/><line class="f" x1="397.02" y1="208.17" x2="397.02" y2="210.94"/><line class="f" x1="397.02" y1="210.94" x2="395.64" y2="210.94"/><g class="i"><path class="f" d="M343.46,361.06a31.1,31.1,0,0,1,31.1,31.1"/><path class="f" d="M374.56,447.09a31.09,31.09,0,0,1-31.09,31.1"/><path class="f" d="M345.19,299a27.64,27.64,0,0,1,27.64,27.64"/><path class="f" d="M313.4,382.66a24.19,24.19,0,0,1,24.19-24.19"/><path class="f" d="M434.68,349.83A27.64,27.64,0,0,1,407,377.47"/></g><line class="f" x1="400.47" y1="451.41" x2="400.47" y2="451.41"/><line class="f" x1="400.47" y1="451.41" x2="400.47" y2="451.41"/><line class="f" x1="248.45" y1="329.1" x2="248.45" y2="351.56"/><line class="f" x1="248.45" y1="351.56" x2="276.09" y2="351.56"/><line class="f" x1="276.09" y1="351.56" x2="251.9" y2="348.11"/><line class="f" x1="251.9" y1="348.11" x2="248.45" y2="329.1"/><line class="f" x1="305.46" y1="386.91" x2="305.46" y2="383.46"/><line class="f" x1="305.46" y1="383.46" x2="284.73" y2="383.46"/><line class="f" x1="284.73" y1="383.46" x2="284.73" y2="386.91"/><line class="f" x1="284.73" y1="386.91" x2="285.76" y2="386.91"/><line class="f" x1="285.76" y1="386.91" x2="285.76" y2="384.5"/><line class="f" x1="285.76" y1="384.49" x2="304.42" y2="384.49"/><line class="f" x1="304.42" y1="384.49" x2="304.42" y2="386.91"/><line class="f" x1="304.42" y1="386.91" x2="305.46" y2="386.91"/><line class="f" x1="305.46" y1="386.91" x2="305.46" y2="383.46"/><line class="f" x1="284.73" y1="386.91" x2="284.73" y2="383.46"/><line class="f" x1="304.42" y1="386.91" x2="304.42" y2="384.5"/><line class="f" x1="285.76" y1="386.91" x2="285.76" y2="384.5"/><line class="f" x1="305.46" y1="383.46" x2="284.73" y2="383.46"/><line class="f" x1="305.46" y1="384.49" x2="284.73" y2="384.49"/><line class="f" x1="305.46" y1="386.91" x2="304.42" y2="386.91"/><line class="f" x1="285.76" y1="386.91" x2="284.73" y2="386.91"/><line class="f" x1="269.52" y1="222.28" x2="269.52" y2="201.55"/><line class="f" x1="261.6" y1="209.47" x2="256.71" y2="214.36"/><line class="f" x1="256.72" y1="209.47" x2="261.6" y2="214.36"/><line class="f" x1="259.16" y1="215.37" x2="259.16" y2="208.46"/><line class="f" x1="262.61" y1="211.91" x2="255.7" y2="211.91"/><line class="f" x1="269.52" y1="222.28" x2="248.45" y2="222.28"/><line class="f" x1="269.52" y1="201.55" x2="248.79" y2="201.55"/><line class="f" x1="269.52" y1="305.55" x2="269.52" y2="180.82"/><line class="f" x1="248.79" y1="180.82" x2="269.52" y2="201.55"/><line class="f" x1="299.76" y1="307.27" x2="280.75" y2="307.27"/><line class="f" x1="280.75" y1="307.27" x2="280.75" y2="324.55"/><line class="f" x1="280.75" y1="324.55" x2="299.76" y2="324.55"/><line class="f" x1="299.76" y1="324.55" x2="299.76" y2="307.27"/><line class="f" x1="300.62" y1="305.55" x2="279.89" y2="305.55"/><line class="f" x1="298.03" y1="309" x2="282.48" y2="309"/><line class="f" x1="282.48" y1="309" x2="282.48" y2="321.09"/><line class="f" x1="282.48" y1="321.09" x2="298.03" y2="321.09"/><line class="f" x1="298.03" y1="321.09" x2="298.03" y2="309"/><line class="f" x1="269.52" y1="305.55" x2="331.72" y2="305.55"/><line class="f" x1="248.45" y1="263.74" x2="269.52" y2="263.74"/><line class="f" x1="269.52" y1="263.74" x2="269.52" y2="243.01"/><line class="f" x1="269.52" y1="243.01" x2="248.45" y2="243.01"/><line class="f" x1="270.47" y1="245.83" x2="270.47" y2="260.91"/><line class="f" x1="248.45" y1="294.84" x2="269.52" y2="294.84"/><line class="f" x1="269.52" y1="294.84" x2="269.52" y2="274.1"/><line class="f" x1="269.52" y1="274.1" x2="248.45" y2="274.1"/><line class="f" x1="331.72" y1="326.28" x2="331.72" y2="305.55"/><line class="f" x1="463.22" y1="331.07" x2="431.7" y2="331.07"/><line class="f" x1="431.7" y1="331.07" x2="431.7" y2="333.19"/><line class="f" x1="431.7" y1="333.19" x2="439.58" y2="335.3"/><line class="f" x1="439.58" y1="335.3" x2="455.34" y2="335.3"/><line class="f" x1="455.34" y1="335.3" x2="463.22" y2="333.19"/><line class="f" x1="463.22" y1="333.19" x2="463.22" y2="331.07"/><line class="f" x1="433.81" y1="331.91" x2="435.91" y2="331.91"/><line class="f" x1="435.91" y1="331.91" x2="435.91" y2="332.44"/><line class="f" x1="435.91" y1="332.44" x2="433.81" y2="332.44"/><line class="f" x1="433.81" y1="332.44" x2="433.81" y2="331.91"/><line class="f" x1="436.43" y1="331.91" x2="438.53" y2="331.91"/><line class="f" x1="438.53" y1="331.91" x2="438.53" y2="332.44"/><line class="f" x1="438.53" y1="332.44" x2="436.43" y2="332.44"/><line class="f" x1="436.43" y1="332.44" x2="436.43" y2="331.91"/><line class="f" x1="439.06" y1="331.91" x2="440.11" y2="331.91"/><line class="f" x1="440.11" y1="331.91" x2="440.11" y2="332.44"/><line class="f" x1="440.11" y1="332.44" x2="439.06" y2="332.44"/><line class="f" x1="439.06" y1="332.44" x2="439.06" y2="331.91"/><line class="f" x1="463.22" y1="333.19" x2="431.7" y2="333.19"/><line class="f" x1="417.75" y1="272.03" x2="417.75" y2="254.75"/><line class="f" x1="417.75" y1="254.75" x2="445.39" y2="254.75"/><line class="f" x1="445.39" y1="254.75" x2="445.39" y2="272.03"/><line class="f" x1="445.39" y1="272.03" x2="417.75" y2="272.03"/><line class="f" x1="480.29" y1="451.41" x2="480.29" y2="451.41"/><line class="f" x1="480.29" y1="451.41" x2="459.56" y2="451.41"/><line class="f" x1="459.56" y1="451.41" x2="459.56" y2="451.41"/><line class="f" x1="535.22" y1="451.41" x2="417.75" y2="451.41"/><line class="f" x1="417.75" y1="451.41" x2="417.75" y2="451.41"/><line class="f" x1="535.22" y1="451.41" x2="535.22" y2="451.41"/><line class="f" x1="331.72" y1="326.68" x2="331.72" y2="305.55"/><line class="f" x1="331.72" y1="305.55" x2="310.99" y2="305.55"/><line class="f" x1="310.99" y1="305.55" x2="310.99" y2="326.68"/><line class="f" x1="310.99" y1="326.68" x2="331.72" y2="326.68"/><line class="f" x1="269.52" y1="180.53" x2="248.45" y2="180.53"/><line class="f" x1="248.45" y1="180.53" x2="248.45" y2="201.55"/><line class="f" x1="248.45" y1="201.55" x2="269.52" y2="201.55"/><line class="f" x1="269.52" y1="201.55" x2="269.52" y2="180.53"/><line class="f" x1="485.12" y1="239.21" x2="485.12" y2="287.58"/><line class="f" x1="485.12" y1="287.58" x2="481.67" y2="287.58"/><line class="f" x1="481.67" y1="287.58" x2="481.67" y2="239.21"/><line class="f" x1="481.67" y1="239.21" x2="485.12" y2="239.21"/><line class="f" x1="272.63" y1="182.2" x2="300.27" y2="182.2"/><line class="f" x1="300.27" y1="182.2" x2="300.27" y2="184.48"/><line class="f" x1="300.27" y1="184.48" x2="272.63" y2="184.48"/><line class="f" x1="272.63" y1="184.48" x2="272.63" y2="182.2"/><line class="f" x1="334.83" y1="216.75" x2="355.56" y2="216.75"/><line class="f" x1="355.56" y1="216.75" x2="355.56" y2="219.03"/><line class="f" x1="355.56" y1="219.03" x2="334.83" y2="219.03"/><line class="f" x1="334.83" y1="219.03" x2="334.83" y2="216.75"/><line class="f" x1="533.5" y1="356.68" x2="533.5" y2="391.23"/><line class="f" x1="533.5" y1="391.23" x2="531.32" y2="391.23"/><line class="f" x1="531.32" y1="391.23" x2="531.32" y2="356.68"/><line class="f" x1="531.32" y1="356.68" x2="533.5" y2="356.68"/><g class="i"><path class="f" d="M327.4,315.91a6,6,0,1,0-6,6,6.05,6.05,0,0,0,6-6"/><path class="f" d="M326.36,315.91a5,5,0,1,0-5,5,5,5,0,0,0,5-5"/><path class="f" d="M291,317.64a.7.7,0,1,0-.7.69.69.69,0,0,0,.7-.69"/><path class="f" d="M257.46,258.46a3.39,3.39,0,1,0-3.39,3.39,3.39,3.39,0,0,0,3.39-3.39"/><path class="f" d="M267.64,258.46a3.39,3.39,0,1,0-3.39,3.39,3.39,3.39,0,0,0,3.39-3.39"/><path class="f" d="M267.64,248.28a3.39,3.39,0,1,0-3.39,3.4,3.39,3.39,0,0,0,3.39-3.4"/><path class="f" d="M441.16,334.92a6.31,6.31,0,1,1,12.61,0"/><path class="f" d="M453.77,334.92a12.61,12.61,0,0,1-12.61,0"/><path class="f" d="M485.12,291a1.73,1.73,0,1,0-1.72,1.73,1.72,1.72,0,0,0,1.72-1.73"/><path class="f" d="M305.46,183.34a1.73,1.73,0,1,0-1.73,1.72,1.73,1.73,0,0,0,1.73-1.72"/><path class="f" d="M360.74,217.89a1.73,1.73,0,1,0-1.73,1.73,1.72,1.72,0,0,0,1.73-1.73"/><path class="f" d="M534.07,394.69a1.73,1.73,0,1,0-1.73,1.72,1.73,1.73,0,0,0,1.73-1.72"/></g><line class="f" x1="278.68" y1="361.06" x2="278.68" y2="381.79"/><line class="f" x1="275.22" y1="385.25" x2="254.49" y2="385.25"/><line class="f" x1="251.04" y1="381.79" x2="251.04" y2="361.06"/><line class="f" x1="254.49" y1="357.61" x2="275.23" y2="357.61"/><g class="i"><path class="f" d="M255.36,361.06a.87.87,0,1,0-.87.87.87.87,0,0,0,.87-.87"/><path class="f" d="M275.22,357.61a3.46,3.46,0,0,1,3.46,3.45"/><path class="f" d="M278.68,381.79a3.46,3.46,0,0,1-3.45,3.46"/><path class="f" d="M251,361.06a3.46,3.46,0,0,1,3.45-3.45"/><path class="f" d="M254.49,385.25a3.46,3.46,0,0,1-3.45-3.46"/></g><line class="f" x1="248.45" y1="243.01" x2="248.79" y2="243.01"/><rect class="d" x="284.73" y="384.5" width="1.04" height="2.42"/><line class="f" x1="284.73" y1="384.49" x2="284.73" y2="386.91"/><line class="f" x1="285.76" y1="384.49" x2="284.73" y2="384.49"/><line class="f" x1="285.76" y1="386.91" x2="285.76" y2="384.5"/><line class="f" x1="284.73" y1="386.91" x2="285.76" y2="386.91"/><rect class="d" x="284.73" y="383.46" width="20.73" height="1.04"/><line class="f" x1="305.46" y1="383.46" x2="284.73" y2="383.46"/><line class="f" x1="305.46" y1="384.49" x2="305.46" y2="383.46"/><line class="f" x1="284.73" y1="384.49" x2="305.46" y2="384.49"/><line class="f" x1="284.73" y1="383.46" x2="284.73" y2="384.49"/><rect class="d" x="304.42" y="384.5" width="1.04" height="2.42"/><line class="f" x1="304.42" y1="384.49" x2="304.42" y2="386.91"/><line class="f" x1="305.46" y1="384.49" x2="304.42" y2="384.49"/><line class="f" x1="305.46" y1="386.91" x2="305.46" y2="384.5"/><line class="f" x1="304.42" y1="386.91" x2="305.46" y2="386.91"/><rect class="d" x="417.75" y="254.82" width="27.64" height="17.27"/><line class="f" x1="417.75" y1="254.82" x2="417.75" y2="272.09"/><line class="f" x1="445.39" y1="254.82" x2="417.75" y2="254.82"/><line class="f" x1="445.39" y1="272.09" x2="445.39" y2="254.82"/><line class="f" x1="417.75" y1="272.09" x2="445.39" y2="272.09"/><rect class="d" x="531.32" y="356.68" width="2.18" height="34.55"/><line class="f" x1="533.5" y1="391.23" x2="533.5" y2="356.68"/><line class="f" x1="531.32" y1="391.23" x2="533.5" y2="391.23"/><line class="f" x1="531.32" y1="356.68" x2="531.32" y2="391.23"/><line class="f" x1="533.5" y1="356.68" x2="531.32" y2="356.68"/><polygon class="g" points="534.07 394.69 533.56 395.91 532.34 396.41 531.12 395.91 530.61 394.69 531.12 393.46 532.34 392.96 533.56 393.46 534.07 394.69"/><g class="i"><path class="f" d="M534.07,394.69a1.73,1.73,0,0,1-3.46,0"/><path class="f" d="M530.61,394.69a1.73,1.73,0,1,1,3.46,0"/></g><rect class="d" x="481.67" y="239.21" width="3.45" height="48.37"/><line class="f" x1="481.67" y1="287.58" x2="485.12" y2="287.58"/><line class="f" x1="481.67" y1="239.21" x2="481.67" y2="287.58"/><line class="f" x1="485.12" y1="239.21" x2="481.67" y2="239.21"/><line class="f" x1="485.12" y1="287.58" x2="485.12" y2="239.21"/><polygon class="g" points="485.13 291.03 484.62 292.25 483.4 292.76 482.18 292.25 481.67 291.03 482.18 289.81 483.4 289.31 484.62 289.81 485.13 291.03"/><g class="i"><path class="f" d="M485.12,291a1.73,1.73,0,1,1-3.45,0"/><path class="f" d="M481.67,291a1.73,1.73,0,0,1,3.45,0"/></g><polygon class="g" points="360.74 217.89 360.23 219.11 359.01 219.62 357.79 219.11 357.29 217.89 357.79 216.67 359.01 216.16 360.23 216.67 360.74 217.89"/><g class="i"><path class="f" d="M360.74,217.89a1.73,1.73,0,1,1-3.45,0"/><path class="f" d="M357.29,217.89a1.73,1.73,0,1,1,3.45,0"/></g><rect class="d" x="334.83" y="216.75" width="20.73" height="2.28"/><line class="f" x1="355.56" y1="216.75" x2="334.83" y2="216.75"/><line class="f" x1="355.56" y1="219.03" x2="355.56" y2="216.75"/><line class="f" x1="334.83" y1="219.03" x2="355.56" y2="219.03"/><line class="f" x1="334.83" y1="216.75" x2="334.83" y2="219.03"/><rect class="d" x="272.63" y="182.2" width="27.64" height="2.28"/><line class="f" x1="300.27" y1="184.48" x2="300.27" y2="182.2"/><line class="f" x1="272.63" y1="184.48" x2="300.27" y2="184.48"/><line class="f" x1="272.63" y1="182.2" x2="272.63" y2="184.48"/><line class="f" x1="300.27" y1="182.2" x2="272.63" y2="182.2"/><polygon class="g" points="305.46 183.34 304.95 184.56 303.73 185.06 302.51 184.56 302 183.34 302.51 182.12 303.73 181.61 304.95 182.12 305.46 183.34"/><g class="i"><path class="f" d="M305.46,183.34a1.73,1.73,0,0,1-3.46,0"/><path class="f" d="M302,183.34a1.73,1.73,0,1,1,3.46,0"/></g><polygon class="g" points="445.39 443.12 507.58 443.12 507.58 432.8 507.58 381.18 507.06 378.55 505.56 376.31 503.31 374.82 500.67 374.3 452.3 374.3 449.65 374.82 447.41 376.31 445.92 378.55 445.39 381.18 445.39 443.12"/><rect class="d" x="433.3" y="432.8" width="12.09" height="10.32"/><rect class="d" x="507.58" y="432.8" width="12.09" height="10.32"/><line class="f" x1="478.44" y1="431.68" x2="479.27" y2="434.66"/><line class="f" x1="449.43" y1="431.68" x2="450.26" y2="434.66"/><line class="f" x1="500.67" y1="374.29" x2="452.3" y2="374.29"/><line class="f" x1="445.39" y1="381.18" x2="445.39" y2="443.12"/><line class="f" x1="445.39" y1="443.12" x2="507.58" y2="443.12"/><line class="f" x1="507.58" y1="443.12" x2="507.58" y2="381.18"/><line class="f" x1="445.39" y1="443.12" x2="433.3" y2="443.12"/><line class="f" x1="433.3" y1="443.12" x2="433.3" y2="432.8"/><line class="f" x1="433.3" y1="432.8" x2="445.39" y2="432.8"/><line class="f" x1="445.39" y1="432.8" x2="445.39" y2="443.12"/><line class="f" x1="519.68" y1="443.12" x2="507.58" y2="443.12"/><line class="f" x1="507.58" y1="443.12" x2="507.58" y2="432.8"/><line class="f" x1="507.58" y1="432.8" x2="519.68" y2="432.8"/><line class="f" x1="519.68" y1="432.8" x2="519.68" y2="443.12"/><line class="f" x1="445.39" y1="420.22" x2="507.58" y2="420.22"/><line class="f" x1="445.39" y1="415.06" x2="507.58" y2="415.06"/><g class="i"><path class="f" d="M473.86,425.44a96.54,96.54,0,0,1-22.52.34"/><path class="f" d="M449.1,427.68v-.1a1.84,1.84,0,0,1,1.85-1.84,1.72,1.72,0,0,1,.39,0"/><path class="f" d="M449.43,431.68a14.3,14.3,0,0,1-.35-3.19c0-.27,0-.54,0-.81"/><path class="f" d="M449.23,439.36q-.06-1.25-.06-2.49c0-1.73.09-3.46.26-5.19"/><path class="f" d="M449.69,439.86h-.08a.39.39,0,0,1-.39-.39.49.49,0,0,1,0-.12"/><path class="f" d="M449.69,439.86q7.41-.57,14.86-.57,4.69,0,9.38.23"/><path class="f" d="M475.05,438.28a1.06,1.06,0,0,1,.05.31,1,1,0,0,1-1,1l-.21,0"/><path class="f" d="M475.05,438.28a45.9,45.9,0,0,1-.18-11.86"/><path class="f" d="M473.86,425.44a.67.67,0,0,1,.24,0,.8.8,0,0,1,.8.8.89.89,0,0,1,0,.22"/><path class="f" d="M445.39,381.18h0a6.89,6.89,0,0,1,6.91-6.88"/><path class="f" d="M500.67,374.3h0a6.89,6.89,0,0,1,6.91,6.88"/><path class="f" d="M502.87,425.44a96.54,96.54,0,0,1-22.52.34"/><path class="f" d="M478.11,427.68v-.1a1.84,1.84,0,0,1,1.85-1.84,1.75,1.75,0,0,1,.4,0"/><path class="f" d="M478.44,431.68a14.92,14.92,0,0,1-.35-3.19c0-.27,0-.54,0-.81"/><path class="f" d="M478.25,439.36c-.05-.83-.06-1.66-.06-2.49,0-1.73.08-3.46.25-5.19"/><path class="f" d="M478.71,439.86h-.09a.39.39,0,0,1-.39-.39.5.5,0,0,1,0-.12"/><path class="f" d="M478.71,439.86q7.41-.57,14.86-.57,4.68,0,9.38.23"/><path class="f" d="M504.06,438.28a1.06,1.06,0,0,1,.05.31,1,1,0,0,1-1,1l-.2,0"/><path class="f" d="M504.06,438.28a45.9,45.9,0,0,1-.18-11.86"/><path class="f" d="M502.88,425.44a.64.64,0,0,1,.24,0,.79.79,0,0,1,.79.8.89.89,0,0,1,0,.22"/></g><rect class="d" x="386.31" y="390.26" width="20.73" height="52.86"/><line class="f" x1="407.04" y1="443.12" x2="407.04" y2="390.26"/><line class="f" x1="407.04" y1="390.26" x2="386.31" y2="390.26"/><line class="f" x1="386.31" y1="390.26" x2="386.31" y2="443.12"/><line class="f" x1="386.31" y1="443.12" x2="407.04" y2="443.12"/><line class="f" x1="396.67" y1="440.48" x2="396.67" y2="392.9"/><line class="f" x1="402.77" y1="438.02" x2="390.35" y2="433.55"/><line class="f" x1="403.39" y1="432.98" x2="391.84" y2="431.14"/><line class="f" x1="389.2" y1="426.1" x2="401.88" y2="424.58"/><line class="f" x1="390.86" y1="418.3" x2="401.88" y2="420.37"/><line class="f" x1="390.23" y1="415.47" x2="403.8" y2="415.47"/><line class="f" x1="390.17" y1="407.43" x2="403.58" y2="409.34"/><line class="f" x1="390.39" y1="404.42" x2="402.65" y2="404.42"/><line class="f" x1="390.27" y1="396.49" x2="402.84" y2="394.97"/><line class="f" x1="391.13" y1="398.4" x2="401.75" y2="399.95"/><rect class="d" x="489.27" y="329.1" width="45.95" height="13.82"/><line class="f" x1="489.27" y1="329.1" x2="535.22" y2="329.1"/><line class="f" x1="535.22" y1="329.1" x2="535.22" y2="342.92"/><line class="f" x1="535.22" y1="342.92" x2="489.27" y2="342.92"/><line class="f" x1="489.27" y1="342.92" x2="489.27" y2="329.1"/><line class="f" x1="491.57" y1="336.01" x2="532.93" y2="336.01"/><line class="f" x1="493.7" y1="331.95" x2="497.59" y2="340.23"/><line class="f" x1="498.08" y1="331.54" x2="499.69" y2="339.24"/><line class="f" x1="504.07" y1="340.99" x2="505.39" y2="332.54"/><line class="f" x1="510.84" y1="339.89" x2="509.05" y2="332.54"/><line class="f" x1="513.31" y1="340.31" x2="513.31" y2="331.26"/><line class="f" x1="520.3" y1="340.35" x2="518.64" y2="331.41"/><line class="f" x1="522.91" y1="340.2" x2="522.91" y2="332.03"/><line class="f" x1="529.8" y1="340.28" x2="531.13" y2="331.91"/><line class="f" x1="528.14" y1="339.71" x2="526.8" y2="332.63"/><polygon class="g" points="329.13 334.29 311.16 334.29 310.79 334.44 310.64 334.8 310.64 348.97 310.79 349.34 311.16 349.49 329.13 349.49 329.49 349.34 329.64 348.97 329.64 334.8 329.49 334.44 329.13 334.29"/><g class="i"><path class="f" d="M329.12,334.28a.52.52,0,0,1,.52.52"/></g><line class="f" x1="329.64" y1="348.97" x2="329.64" y2="334.8"/><g class="i"><path class="f" d="M329.64,349a.51.51,0,0,1-.51.52"/></g><line class="f" x1="311.16" y1="349.49" x2="329.12" y2="349.49"/><g class="i"><path class="f" d="M311.16,349.49a.52.52,0,0,1-.52-.52"/></g><line class="f" x1="310.64" y1="334.8" x2="310.64" y2="348.97"/><g class="i"><path class="f" d="M310.64,334.8a.52.52,0,0,1,.52-.52"/></g><line class="f" x1="329.12" y1="334.28" x2="311.16" y2="334.28"/><line class="f" x1="328.09" y1="338.09" x2="312.19" y2="338.09"/><line class="f" x1="311.68" y1="338.6" x2="311.68" y2="347.93"/><line class="f" x1="312.19" y1="348.45" x2="328.09" y2="348.45"/><line class="f" x1="328.61" y1="347.93" x2="328.61" y2="338.6"/><g class="i"><path class="f" d="M311.68,338.6a.51.51,0,0,1,.51-.51"/><path class="f" d="M312.19,348.45a.51.51,0,0,1-.51-.52"/><path class="f" d="M328.61,347.93a.52.52,0,0,1-.52.52"/><path class="f" d="M328.09,338.09a.52.52,0,0,1,.52.51"/></g><polygon class="g" points="321 336.36 320.87 337.81 320.75 338.14 320.52 339.96 320.4 340.21 320.14 340.3 319.89 340.21 319.76 339.96 319.53 338.14 319.42 337.81 319.28 336.36 319.53 335.75 320.14 335.49 320.75 335.75 321 336.36"/><line class="f" x1="321.01" y1="336.36" x2="320.87" y2="337.81"/><g class="i"><path class="f" d="M320.87,337.81a.66.66,0,0,1-.12.33"/></g><line class="f" x1="320.75" y1="338.14" x2="320.52" y2="339.96"/><g class="i"><path class="f" d="M320.52,340a.37.37,0,0,1-.38.34.38.38,0,0,1-.38-.34"/></g><line class="f" x1="319.76" y1="339.96" x2="319.53" y2="338.14"/><g class="i"><path class="f" d="M319.53,338.14a.76.76,0,0,1-.11-.33"/></g><line class="f" x1="319.42" y1="337.81" x2="319.28" y2="336.36"/><g class="i"><path class="f" d="M319.28,336.36a.86.86,0,1,1,1.72,0"/></g><line class="f" x1="319.67" y1="337.22" x2="319.67" y2="337.73"/><line class="f" x1="320.61" y1="337.73" x2="320.61" y2="337.22"/><line class="f" x1="320.61" y1="337.22" x2="319.67" y2="337.22"/><g class="i"><path class="f" d="M320.61,337.73a.47.47,0,0,1-.94,0"/><path class="f" d="M320.75,338.14a.73.73,0,0,1-1.22,0"/></g><polygon class="g" points="302.35 334.29 289.56 334.29 289.56 345.69 289.83 347.4 290.6 348.94 291.81 350.18 293.77 351.21 295.95 351.56 298.14 351.21 300.1 350.18 301.31 348.94 302.08 347.4 302.35 345.69 302.35 334.29"/><line class="f" x1="289.56" y1="334.28" x2="289.56" y2="345.69"/><line class="f" x1="289.56" y1="334.28" x2="302.35" y2="334.28"/><line class="f" x1="302.35" y1="334.28" x2="302.35" y2="345.69"/><line class="f" x1="291.64" y1="338.43" x2="291.64" y2="345.69"/><line class="f" x1="300.27" y1="338.43" x2="300.27" y2="345.69"/><line class="f" x1="300.27" y1="338.43" x2="291.64" y2="338.43"/><g class="i"><path class="f" d="M291.81,350.18a5.62,5.62,0,0,1-2.25-4.49"/><path class="f" d="M302.35,345.69a5.62,5.62,0,0,1-2.25,4.49"/><path class="f" d="M300.1,350.18a6.92,6.92,0,0,1-8.29,0"/><path class="f" d="M302.35,345.69a5.62,5.62,0,0,1-2.25,4.49"/><path class="f" d="M300.1,350.18a6.88,6.88,0,0,1-4.15,1.38"/><path class="f" d="M300.27,345.69a3.54,3.54,0,0,1-1.41,2.83"/><path class="f" d="M298.86,348.52a4.84,4.84,0,0,1-5.81,0"/><path class="f" d="M293.05,348.52a3.54,3.54,0,0,1-1.41-2.83"/></g><polygon class="g" points="340.62 240.72 336.74 234.03 335.48 232.76 333.75 232.3 332.02 232.76 326.03 236.2 324.77 237.47 324.31 239.19 324.77 240.92 328.65 247.61 330.84 244.75 333.71 242.56 337.04 241.19 340.62 240.72"/><polygon class="g" points="352.64 261.46 360.37 261.47 362.1 261.01 363.37 259.75 363.82 258.02 363.81 251.12 363.35 249.39 362.08 248.13 360.35 247.66 352.62 247.65 354 250.98 354.48 254.56 354.02 258.13 352.64 261.46"/><polygon class="g" points="328.67 261.42 324.81 268.11 324.35 269.83 324.82 271.56 326.09 272.82 332.08 276.29 333.81 276.75 335.54 276.29 336.81 275.03 340.67 268.35 337.08 267.87 333.74 266.49 330.88 264.29 328.67 261.42"/><polygon class="g" points="328.65 247.61 330.84 244.75 333.71 242.56 337.04 241.19 340.62 240.72 344.2 241.2 347.55 242.58 350.41 244.78 352.62 247.65 354 250.98 354.48 254.56 354.02 258.13 352.64 261.46 350.44 264.32 347.58 266.51 344.25 267.88 340.67 268.35 337.08 267.87 333.74 266.49 330.88 264.29 328.67 261.42 327.28 258.09 326.81 254.51 327.27 250.94 328.65 247.61"/><line class="f" x1="328.65" y1="247.61" x2="330.84" y2="244.75"/><line class="f" x1="330.84" y1="244.75" x2="333.71" y2="242.56"/><line class="f" x1="333.71" y1="242.56" x2="337.04" y2="241.19"/><line class="f" x1="337.04" y1="241.19" x2="340.62" y2="240.72"/><line class="f" x1="340.62" y1="240.72" x2="344.2" y2="241.2"/><line class="f" x1="344.2" y1="241.2" x2="347.55" y2="242.58"/><line class="f" x1="347.55" y1="242.58" x2="350.41" y2="244.78"/><line class="f" x1="350.41" y1="244.78" x2="352.62" y2="247.65"/><line class="f" x1="352.62" y1="247.65" x2="354" y2="250.98"/><line class="f" x1="354" y1="250.98" x2="354.48" y2="254.56"/><line class="f" x1="354.48" y1="254.56" x2="354.02" y2="258.13"/><line class="f" x1="354.02" y1="258.13" x2="352.64" y2="261.46"/><line class="f" x1="352.64" y1="261.46" x2="350.44" y2="264.32"/><line class="f" x1="350.44" y1="264.32" x2="347.58" y2="266.51"/><line class="f" x1="347.58" y1="266.51" x2="344.25" y2="267.88"/><line class="f" x1="344.25" y1="267.88" x2="340.67" y2="268.35"/><line class="f" x1="340.67" y1="268.35" x2="337.08" y2="267.87"/><line class="f" x1="337.08" y1="267.87" x2="333.74" y2="266.49"/><line class="f" x1="333.74" y1="266.49" x2="330.87" y2="264.29"/><line class="f" x1="330.87" y1="264.29" x2="328.67" y2="261.42"/><line class="f" x1="328.67" y1="261.42" x2="327.28" y2="258.09"/><line class="f" x1="327.28" y1="258.09" x2="326.81" y2="254.52"/><line class="f" x1="326.81" y1="254.52" x2="327.27" y2="250.94"/><line class="f" x1="327.27" y1="250.94" x2="328.65" y2="247.61"/><g class="i"><path class="f" d="M347.55,242.58h0a13.8,13.8,0,1,1-13.8,23.91"/><path class="f" d="M333.74,266.49h0a13.8,13.8,0,1,1,13.8-23.91"/></g><line class="f" x1="332.88" y1="234.26" x2="326.9" y2="237.7"/><line class="f" x1="324.77" y1="240.92" x2="328.65" y2="247.61"/><line class="f" x1="332.02" y1="232.76" x2="326.03" y2="236.2"/><line class="f" x1="340.62" y1="240.72" x2="336.74" y2="234.03"/><line class="f" x1="362.1" y1="258.02" x2="362.09" y2="251.12"/><line class="f" x1="360.35" y1="247.66" x2="352.62" y2="247.65"/><line class="f" x1="363.83" y1="258.02" x2="363.82" y2="251.12"/><line class="f" x1="352.64" y1="261.46" x2="360.37" y2="261.47"/><line class="f" x1="326.95" y1="271.33" x2="332.95" y2="274.79"/><line class="f" x1="336.81" y1="275.03" x2="340.67" y2="268.35"/><line class="f" x1="326.09" y1="272.83" x2="332.08" y2="276.29"/><line class="f" x1="328.67" y1="261.42" x2="324.81" y2="268.11"/><g class="i"><path class="f" d="M326.27,240.06a1.73,1.73,0,0,1,0-1.73,1.66,1.66,0,0,1,.63-.63"/><path class="f" d="M332.88,234.26a1.73,1.73,0,0,1,1.73,0,1.68,1.68,0,0,1,.64.63"/><path class="f" d="M324.77,240.92a3.43,3.43,0,0,1,0-3.45A3.49,3.49,0,0,1,326,236.2"/><path class="f" d="M332,232.76a3.47,3.47,0,0,1,3.46,0,3.68,3.68,0,0,1,1.27,1.27"/><path class="f" d="M360.36,249.39a1.73,1.73,0,0,1,1.73,1.72"/><path class="f" d="M362.1,258a1.7,1.7,0,0,1-.23.86,1.73,1.73,0,0,1-1.5.87"/><path class="f" d="M360.35,247.66a3.47,3.47,0,0,1,3.47,3.46"/><path class="f" d="M363.83,258a3.44,3.44,0,0,1-3.46,3.44"/><path class="f" d="M335.31,274.17h0a1.73,1.73,0,0,1-2.36.62"/><path class="f" d="M327,271.33a1.73,1.73,0,0,1-.64-2.36"/><path class="f" d="M336.81,275h0a3.47,3.47,0,0,1-4.73,1.26"/><path class="f" d="M326.09,272.83h0a3.47,3.47,0,0,1-1.28-4.73"/></g><polygon class="g" points="452.24 247.22 452.61 247.85 453.34 247.91 478.91 247.91 479.39 247.94 479.79 247.67 479.94 247.22 479.94 219.23 479.74 218.74 479.25 218.54 408.08 218.54 407.58 218.74 407.38 219.23 407.38 244.45 407.85 246.18 409.11 247.45 410.84 247.91 411.88 247.91 412.36 247.71 412.57 247.22 412.98 247.72 413.6 247.91 451.26 247.91 451.86 247.72 452.24 247.22"/><polygon class="g" points="452.3 270.37 452.83 273.01 454.32 275.25 456.56 276.75 459.21 277.28 473.03 277.28 475.68 276.75 477.92 275.25 479.41 273.01 479.94 270.37 479.94 248.94 479.64 248.21 478.91 247.91 453.34 247.91 452.61 248.21 452.3 248.94 452.3 270.37"/><line class="f" x1="452.3" y1="248.94" x2="452.3" y2="270.37"/><g class="i"><path class="f" d="M452.3,248.94a1,1,0,0,1,1-1"/></g><line class="f" x1="478.91" y1="247.91" x2="453.34" y2="247.91"/><g class="i"><path class="f" d="M478.91,247.91a1,1,0,0,1,1,1"/></g><line class="f" x1="479.94" y1="270.37" x2="479.94" y2="248.94"/><g class="i"><path class="f" d="M479.94,270.37a6.91,6.91,0,0,1-6.91,6.91"/></g><line class="f" x1="459.21" y1="277.28" x2="473.03" y2="277.28"/><g class="i"><path class="f" d="M459.21,277.28a6.91,6.91,0,0,1-6.91-6.91"/></g><line class="f" x1="411.88" y1="247.91" x2="410.84" y2="247.91"/><line class="f" x1="407.38" y1="244.45" x2="407.38" y2="219.23"/><line class="f" x1="408.08" y1="218.54" x2="411.88" y2="218.54"/><line class="f" x1="412.57" y1="219.23" x2="412.57" y2="247.22"/><line class="f" x1="411.88" y1="218.54" x2="452.3" y2="218.54"/><line class="f" x1="452.3" y1="218.54" x2="452.3" y2="220.96"/><line class="f" x1="451.26" y1="247.91" x2="413.6" y2="247.91"/><line class="f" x1="412.57" y1="246.87" x2="412.57" y2="229.55"/><line class="f" x1="452.3" y1="229.55" x2="452.3" y2="246.87"/><line class="f" x1="412.57" y1="220.96" x2="412.57" y2="227.48"/><line class="f" x1="452.3" y1="227.48" x2="452.3" y2="220.96"/><line class="f" x1="475.45" y1="247.91" x2="479.25" y2="247.91"/><line class="f" x1="479.94" y1="247.22" x2="479.94" y2="219.23"/><line class="f" x1="479.25" y1="218.54" x2="475.45" y2="218.54"/><line class="f" x1="475.45" y1="218.54" x2="452.3" y2="218.54"/><line class="f" x1="452.3" y1="218.54" x2="452.3" y2="220.96"/><line class="f" x1="453.34" y1="247.91" x2="473.72" y2="247.91"/><line class="f" x1="452.3" y1="229.55" x2="452.3" y2="246.87"/><line class="f" x1="452.3" y1="229.55" x2="452.3" y2="220.96"/><line class="f" x1="459.21" y1="277.28" x2="473.03" y2="277.28"/><line class="f" x1="479.94" y1="270.37" x2="479.94" y2="248.94"/><line class="f" x1="478.91" y1="247.91" x2="453.34" y2="247.91"/><line class="f" x1="452.3" y1="248.94" x2="452.3" y2="270.37"/><line class="f" x1="453.34" y1="219.92" x2="478.91" y2="219.92"/><line class="f" x1="451.26" y1="219.92" x2="413.6" y2="219.92"/><g class="i"><path class="f" d="M407.38,219.23a.69.69,0,0,1,.7-.69"/><path class="f" d="M411.88,218.54a.69.69,0,0,1,.69.69"/><path class="f" d="M412.57,247.22a.69.69,0,0,1-.69.69"/><path class="f" d="M413.6,247.91a1,1,0,0,1-1-1"/><path class="f" d="M452.3,246.87a1,1,0,0,1-1,1"/><path class="f" d="M479.94,247.22a.69.69,0,0,1-.69.69"/><path class="f" d="M479.25,218.54a.69.69,0,0,1,.69.69"/><path class="f" d="M453.34,247.91a1,1,0,0,1-1-1"/><path class="f" d="M478.91,247.91a1,1,0,0,1,1,1"/><path class="f" d="M452.3,248.94a1,1,0,0,1,1-1"/></g><line class="f" x1="478.91" y1="219.92" x2="478.91" y2="243.46"/><g class="i"><path class="f" d="M453.3,223.94a19.89,19.89,0,0,1,5.21-.7,19.57,19.57,0,0,1,19.14,15.46"/><path class="f" d="M451.26,224.76a118.16,118.16,0,0,1-37.66,0"/><path class="f" d="M459.21,277.28a6.91,6.91,0,0,1-6.91-6.91"/><path class="f" d="M479.94,270.37a6.91,6.91,0,0,1-6.91,6.91"/><path class="f" d="M410.84,247.91a3.45,3.45,0,0,1-3.45-3.46"/></g><line class="f" x1="276.09" y1="334.28" x2="276.09" y2="351.56"/><line class="f" x1="279.54" y1="334.28" x2="279.54" y2="355.02"/><line class="f" x1="256.81" y1="287.45" x2="256.81" y2="281.66"/><line class="f" x1="256.81" y1="281.66" x2="259.16" y2="283.56"/><line class="f" x1="259.16" y1="283.56" x2="261.52" y2="281.66"/><line class="f" x1="261.52" y1="281.66" x2="261.52" y2="287.45"/><rect x="248.45" y="387.84" width="91.56" height="8.29"/><rect x="241.54" y="180.53" width="6.91" height="215.6"/><rect x="241.54" y="166.71" width="29.37" height="6.91"/><rect x="241.54" y="173.62" width="27.64" height="6.91"/><polygon class="j" points="395.29 208.17 395.29 201.26 403.93 201.26 500.67 201.26 500.67 234.09 493.76 234.09 493.76 208.17 395.29 208.17"/><polygon class="j" points="334.83 215.09 321 215.09 321 180.53 303.73 180.53 303.73 173.62 327.92 173.62 327.92 208.18 334.83 208.18 334.83 215.09"/><polygon class="j" points="302 166.71 334.83 166.71 334.83 201.26 336.56 201.26 336.56 208.18 327.92 208.18 327.92 173.62 302 173.62 302 166.71"/><polygon class="j" points="397.02 208.17 493.76 208.17 493.76 232.36 486.85 232.36 486.85 215.08 397.02 215.08 397.02 208.17"/><rect x="535.22" y="401.66" width="6.91" height="49.75"/><polygon class="j" points="493.76 292.82 500.67 292.82 500.67 315.28 549.04 315.28 549.04 348.1 542.13 348.1 542.13 322.19 493.76 322.19 493.76 292.82"/><polygon class="j" points="486.85 329.1 486.85 294.55 493.76 294.55 493.76 322.19 542.13 322.19 542.13 346.38 535.22 346.38 535.22 329.1 486.85 329.1"/><rect x="542.13" y="399.93" width="6.91" height="51.48"/><rect x="337.59" y="384.39" width="2.42" height="3.46"/><polygon class="j" points="386.31 387.84 404.62 387.84 404.62 379.2 407.04 379.2 407.04 390.26 386.31 390.26 386.31 387.84"/><polygon class="j" points="248.45 329.1 248.45 326.68 343.46 326.68 343.46 329.1 340.01 329.1 340.01 356.74 337.59 356.74 337.59 329.1 248.45 329.1"/><polygon class="j" points="404.62 329.1 374.56 329.1 374.56 326.68 407.04 326.68 407.04 340.5 486.85 340.5 486.85 329.1 489.27 329.1 489.27 342.92 407.04 342.92 407.04 348.11 404.62 348.11 404.62 329.1"/><polygon class="j" points="378.02 387.84 386.31 387.84 386.31 443.12 535.22 443.12 535.22 451.41 378.02 451.41 378.02 396.13 378.02 387.84"/><rect x="248.45" y="351.56" width="31.1" height="3.45"/><rect x="276.09" y="329.1" width="3.46" height="25.91"/><rect x="340.01" y="392.16" width="1.73" height="3.97"/><rect x="376.29" y="392.16" width="1.73" height="3.97"/><line class="f" x1="241.54" y1="166.71" x2="241.54" y2="396.13"/><line class="f" x1="241.54" y1="396.13" x2="378.02" y2="396.13"/><line class="f" x1="378.02" y1="396.13" x2="378.02" y2="451.41"/><line class="f" x1="378.02" y1="451.41" x2="535.22" y2="451.41"/><line class="f" x1="535.22" y1="451.41" x2="549.04" y2="451.41"/><line class="f" x1="549.04" y1="451.41" x2="549.04" y2="315.28"/><line class="f" x1="549.04" y1="315.28" x2="500.67" y2="315.28"/><line class="f" x1="500.67" y1="315.28" x2="500.67" y2="201.26"/><line class="f" x1="500.67" y1="201.26" x2="403.93" y2="201.26"/><line class="f" x1="403.93" y1="201.26" x2="334.83" y2="201.26"/><line class="f" x1="334.83" y1="201.26" x2="334.83" y2="166.71"/><line class="f" x1="334.83" y1="166.71" x2="241.54" y2="166.71"/><path class="k" d="M292.24,358.1v7h-.72v-6.36h-1.65v-.64Z"/><path class="k" d="M293.92,364.6a.53.53,0,0,1,.53-.54.54.54,0,0,1,.54.54.55.55,0,0,1-.54.55A.54.54,0,0,1,293.92,364.6Z"/><path class="k" d="M295.93,361.6c0-2.23,1.17-3.56,2.79-3.56s2.8,1.33,2.8,3.56-1.18,3.56-2.8,3.56S295.93,363.83,295.93,361.6Zm4.85,0c0-1.87-.84-2.9-2.06-2.9s-2.06,1-2.06,2.9.84,2.9,2.06,2.9S300.78,363.47,300.78,361.6Z"/><path class="k" d="M308.5,363.26h-1.4v1.84h-.72v-1.84h-3.95v-.52l3.71-4.64h.8l-3.58,4.52h3V361h.7v1.62h1.4Z"/><path class="k" d="M377.36,273.38v7h-.72V274H375v-.64Z"/><path class="k" d="M379,279.88a.53.53,0,0,1,.53-.54.54.54,0,0,1,.54.54.55.55,0,0,1-.54.55A.54.54,0,0,1,379,279.88Z"/><path class="k" d="M381.05,276.88c0-2.23,1.17-3.56,2.79-3.56s2.8,1.33,2.8,3.56-1.18,3.56-2.8,3.56S381.05,279.11,381.05,276.88Zm4.85,0c0-1.87-.84-2.9-2.06-2.9s-2.06,1-2.06,2.9.84,2.9,2.06,2.9S385.9,278.75,385.9,276.88Z"/><path class="k" d="M392.21,278.37c0,1.17-.85,2.07-2.54,2.07a3.64,3.64,0,0,1-2.52-.9l.35-.57a3.07,3.07,0,0,0,2.17.81c1.16,0,1.8-.54,1.8-1.41s-.59-1.39-1.89-1.39h-.5v-.53L391,274h-3.58v-.64h4.5v.51l-2,2.49C391.46,276.46,392.21,277.25,392.21,278.37Z"/><path class="k" d="M467.53,358.1v7h-.72v-6.36h-1.65v-.64Z"/><path class="k" d="M469.21,364.6a.53.53,0,0,1,.53-.54.54.54,0,0,1,.54.54.55.55,0,0,1-.54.55A.54.54,0,0,1,469.21,364.6Z"/><path class="k" d="M471.22,361.6c0-2.23,1.17-3.56,2.79-3.56s2.8,1.33,2.8,3.56-1.18,3.56-2.8,3.56S471.22,363.83,471.22,361.6Zm4.85,0c0-1.87-.84-2.9-2.06-2.9s-2.06,1-2.06,2.9.84,2.9,2.06,2.9S476.07,363.47,476.07,361.6Z"/><path class="k" d="M482.61,364.46v.64H477.7v-.51l2.91-2.85c.79-.78.94-1.25.94-1.73,0-.81-.57-1.31-1.64-1.31a2.38,2.38,0,0,0-1.91.78l-.51-.44a3.15,3.15,0,0,1,2.48-1c1.42,0,2.32.72,2.32,1.89a2.88,2.88,0,0,1-1.15,2.19l-2.38,2.34Z"/><path class="k" d="M377.36,358.1v7h-.72v-6.36H375v-.64Z"/><path class="k" d="M379,364.6a.53.53,0,0,1,.53-.54.54.54,0,0,1,.54.54.55.55,0,0,1-.54.55A.54.54,0,0,1,379,364.6Z"/><path class="k" d="M381.05,361.6c0-2.23,1.17-3.56,2.79-3.56s2.8,1.33,2.8,3.56-1.18,3.56-2.8,3.56S381.05,363.83,381.05,361.6Zm4.85,0c0-1.87-.84-2.9-2.06-2.9s-2.06,1-2.06,2.9.84,2.9,2.06,2.9S385.9,363.47,385.9,361.6Z"/><path class="k" d="M389.6,358.1v7h-.72v-6.36h-1.65v-.64Z"/></svg>