<svg xmlns="http://www.w3.org/2000/svg" xmlns:xlink="http://www.w3.org/1999/xlink" viewBox="0 0 790.58 618.13"><defs><style>.a,.f{fill:none;}.b{fill:#595a5c;}.c{fill:#b6906c;}.d,.h{fill:#fff;}.e{fill:#231f20;}.f{stroke:#000;stroke-linecap:round;stroke-linejoin:round;stroke-width:0.34px;}.g{clip-path:url(#a);}.h,.i{fill-rule:evenodd;}.j{fill:#58595b;}</style><clipPath id="a"><polygon class="a" points="467.66 194.65 322.92 194.65 309.14 194.65 309.14 423.47 481.44 423.47 481.44 194.65 467.66 194.65"/></clipPath></defs><path class="b" d="M55.31,597.13H57.1V609.9H55.31Zm.92,6.11h4.09a1.89,1.89,0,0,0,1-.27,1.82,1.82,0,0,0,.68-.77,2.67,2.67,0,0,0,.24-1.16,2.7,2.7,0,0,0-.24-1.16,1.82,1.82,0,0,0-1.7-1H56.23v-1.7h4a4.09,4.09,0,0,1,2,.48A3.45,3.45,0,0,1,63.62,599a4.64,4.64,0,0,1,0,4.11,3.34,3.34,0,0,1-1.35,1.36,4,4,0,0,1-2,.49h-4Z"/><path class="b" d="M67.7,606.33a2.07,2.07,0,0,0,.49,1.48,1.76,1.76,0,0,0,1.37.52,1.89,1.89,0,0,0,1.37-.46,1.79,1.79,0,0,0,.48-1.33l.12,1.91A2.58,2.58,0,0,1,69.06,610a2.89,2.89,0,0,1-2.33-1,4.08,4.08,0,0,1-.82-2.73v-5.55H67.7Zm.22-7.86a1.93,1.93,0,0,1-.56-1.5,2.07,2.07,0,0,1,.56-1.57,2.56,2.56,0,0,1,3.18,0,2.08,2.08,0,0,1,.57,1.56,1.94,1.94,0,0,1-.57,1.5,2.65,2.65,0,0,1-3.18,0Zm2.26-.86a.94.94,0,0,0,.24-.68,1,1,0,0,0-.24-.7.91.91,0,0,0-.67-.25.92.92,0,0,0-.67.25,1,1,0,0,0-.23.7,1,1,0,0,0,.23.68.92.92,0,0,0,.67.24A.9.9,0,0,0,70.18,597.61Zm1.23,3.17h1.78v9.12H71.41Z"/><path class="b" d="M77.1,609.63A2.82,2.82,0,0,1,76,608.36a5.08,5.08,0,0,1-.36-2v-2a5.05,5.05,0,0,1,.36-2,2.71,2.71,0,0,1,1-1.27,3,3,0,0,1,1.65-.44,2.71,2.71,0,0,1,1.48.42,3.22,3.22,0,0,1,1.09,1.19l-.18,1.86a2.19,2.19,0,0,0-.22-1,1.48,1.48,0,0,0-.61-.63,2,2,0,0,0-1-.21,1.71,1.71,0,0,0-1.37.55,2.26,2.26,0,0,0-.49,1.56v2a2.19,2.19,0,0,0,.49,1.54,1.74,1.74,0,0,0,1.37.54,1.93,1.93,0,0,0,1-.23,1.45,1.45,0,0,0,.61-.64,2.25,2.25,0,0,0,.22-1l.12,1.92a2.66,2.66,0,0,1-.89,1.14,2.56,2.56,0,0,1-1.53.45A3.19,3.19,0,0,1,77.1,609.63Zm4-12.5H82.9V609.9H81.11Z"/><path class="b" d="M87.09,609.57a3.09,3.09,0,0,1-1.29-1.36,4.85,4.85,0,0,1-.44-2.15v-1.48a4.71,4.71,0,0,1,.44-2.12,3.12,3.12,0,0,1,1.29-1.35,4.71,4.71,0,0,1,4.06,0,3.12,3.12,0,0,1,1.29,1.35,4.71,4.71,0,0,1,.44,2.12v1.51a4.79,4.79,0,0,1-.44,2.13,3.12,3.12,0,0,1-1.29,1.35,4.62,4.62,0,0,1-4.06,0Zm3.49-1.83a2.43,2.43,0,0,0,.51-1.65v-1.51a2.43,2.43,0,0,0-.51-1.65,1.88,1.88,0,0,0-1.46-.58,1.85,1.85,0,0,0-1.45.58,2.38,2.38,0,0,0-.52,1.65v1.51a2.38,2.38,0,0,0,.52,1.65,1.82,1.82,0,0,0,1.45.59A1.85,1.85,0,0,0,90.58,607.74Z"/><path class="b" d="M95.43,600.78h1.79v9.12H95.43Zm4.42,1.72a2.16,2.16,0,0,0-.83-.15,1.83,1.83,0,0,0-1.33.47,1.79,1.79,0,0,0-.47,1.31L97,602.37a3.32,3.32,0,0,1,1.09-1.27,2.58,2.58,0,0,1,1.48-.45,3.39,3.39,0,0,1,1.13.18,2.62,2.62,0,0,1,.88.53l-1.17,1.58A1.56,1.56,0,0,0,99.85,602.5Z"/><path class="b" d="M102.15,600.78H104l2.81,7.93-1,1.94Zm8.07,0L106.34,612a2.6,2.6,0,0,1-.56,1,1.87,1.87,0,0,1-.84.52,4,4,0,0,1-1.23.16h-.36V612h.36a1.46,1.46,0,0,0,.8-.2,1.74,1.74,0,0,0,.51-.7l3.38-10.31Z"/><path class="b" d="M113.51,609.88a5.76,5.76,0,0,1-1.32-.48,4.89,4.89,0,0,1-1.13-.79l1.06-1.31a5.86,5.86,0,0,0,1.47.85,4.18,4.18,0,0,0,1.44.28,3.11,3.11,0,0,0,1.6-.33,1.1,1.1,0,0,0,.53-1,.79.79,0,0,0-.29-.66,1.66,1.66,0,0,0-.72-.29c-.29,0-.69-.1-1.22-.14h-.15l-.14,0h-.15a6.45,6.45,0,0,1-1.5-.26,2,2,0,0,1-1-.7,2.38,2.38,0,0,1-.41-1.49,3.07,3.07,0,0,1,.39-1.61,2.41,2.41,0,0,1,1.18-1,5.29,5.29,0,0,1,2-.32,6.38,6.38,0,0,1,2.6.52,6.16,6.16,0,0,1,1.13.66l-1.08,1.31a5.59,5.59,0,0,0-1.35-.66,4,4,0,0,0-1.3-.22,2.44,2.44,0,0,0-1.37.31,1.08,1.08,0,0,0-.46.94.64.64,0,0,0,.26.55,1.72,1.72,0,0,0,.66.25c.26,0,.64.07,1.12.1h.34a7.67,7.67,0,0,1,1.63.25,2.24,2.24,0,0,1,1.13.77,2.62,2.62,0,0,1,.45,1.65,2.92,2.92,0,0,1-.42,1.63,2.54,2.54,0,0,1-1.27,1A5.88,5.88,0,0,1,115,610,7.38,7.38,0,0,1,113.51,609.88Z"/><path class="b" d="M126,597.13h1.8V609.9H126Zm2.6,12.5a2.39,2.39,0,0,1-.93-1.16l.13-1.91a2.22,2.22,0,0,0,.21,1,1.48,1.48,0,0,0,.61.63,1.93,1.93,0,0,0,1,.22,1.74,1.74,0,0,0,1.37-.54,2.18,2.18,0,0,0,.49-1.53v-2a2.26,2.26,0,0,0-.49-1.56,1.71,1.71,0,0,0-1.37-.55,2,2,0,0,0-1,.21,1.36,1.36,0,0,0-.61.62,2.12,2.12,0,0,0-.21,1l-.19-1.76a3.37,3.37,0,0,1,1.08-1.24,2.67,2.67,0,0,1,1.49-.43,3,3,0,0,1,1.65.43,2.9,2.9,0,0,1,1.06,1.27,5.1,5.1,0,0,1,.36,2v2a4.94,4.94,0,0,1-.37,2,2.79,2.79,0,0,1-1.08,1.26,3.25,3.25,0,0,1-1.71.44A2.73,2.73,0,0,1,128.57,609.63Z"/><path class="b" d="M134.46,600.78h1.82l2.81,7.93-1,1.94Zm8.07,0L138.65,612a2.6,2.6,0,0,1-.56,1,1.87,1.87,0,0,1-.84.52,4,4,0,0,1-1.23.16h-.36V612H136a1.46,1.46,0,0,0,.8-.2,1.74,1.74,0,0,0,.51-.7l3.37-10.31Z"/><path class="b" d="M143.57,600.78h4.12v1.62h-4.12Zm1.46,8.56a2.77,2.77,0,0,1-.52-1.81v-9.4h1.8v9.42a.84.84,0,0,0,.13.51.46.46,0,0,0,.39.18h.86V610h-1A2,2,0,0,1,145,609.34Z"/><path class="b" d="M151.94,606.33a2.07,2.07,0,0,0,.49,1.48,1.76,1.76,0,0,0,1.37.52,1.91,1.91,0,0,0,1.37-.46,1.79,1.79,0,0,0,.48-1.33l.12,1.91A2.58,2.58,0,0,1,153.3,610a2.89,2.89,0,0,1-2.33-1,4.08,4.08,0,0,1-.82-2.73v-5.55h1.79Zm3.71-5.55h1.78v9.12h-1.78Z"/><rect class="c" x="612.92" y="591.68" width="35.43" height="2.83"/><path class="d" d="M648.48,594.64H612.79v-3.08h35.69ZM613,594.39h35.19v-2.58H613Z"/><rect class="c" x="612.92" y="601.6" width="70.74" height="2.83"/><path class="d" d="M683.78,604.56h-71v-3.08h71ZM613,604.31h70.49v-2.58H613Z"/><rect class="c" x="612.92" y="612.72" width="177.16" height="2.84"/><path class="d" d="M790.21,615.68H612.79V612.6H790.21ZM613,615.43H790v-2.58H613Z"/><path class="e" d="M587.26,596.28h-.8v-4.82l-.81.5v-.83l.81-.53h.8Z"/><path class="e" d="M589,595.91a1.67,1.67,0,0,1-.41-1.19v-2.58A1.65,1.65,0,0,1,589,591a2,2,0,0,1,2.42,0,1.65,1.65,0,0,1,.41,1.19v2.58a1.65,1.65,0,0,1-.41,1.19,2,2,0,0,1-2.42,0Zm1.83-.55a.89.89,0,0,0,.2-.64v-2.58a.89.89,0,0,0-.2-.64.82.82,0,0,0-.62-.22.86.86,0,0,0-.63.22.94.94,0,0,0-.2.64v2.58a.9.9,0,0,0,.21.64,1,1,0,0,0,1.24,0Z"/><path class="e" d="M593.22,595.91a1.67,1.67,0,0,1-.41-1.19v-2.58a1.65,1.65,0,0,1,.41-1.19,2,2,0,0,1,2.42,0,1.61,1.61,0,0,1,.41,1.19v2.58a1.65,1.65,0,0,1-.41,1.19,2,2,0,0,1-2.42,0Zm1.83-.55a.9.9,0,0,0,.21-.64v-2.58a.94.94,0,0,0-.2-.64.86.86,0,0,0-.63-.22.82.82,0,0,0-.62.22.89.89,0,0,0-.2.64v2.58a.89.89,0,0,0,.2.64,1,1,0,0,0,1.24,0Z"/><path class="e" d="M600.1,596.13a1.45,1.45,0,0,1-.6-.6,2.06,2.06,0,0,1-.21-1v-.67a2,2,0,0,1,.21-.94,1.37,1.37,0,0,1,.6-.59,2,2,0,0,1,.95-.21,2.21,2.21,0,0,1,.59.08,1.68,1.68,0,0,1,.51.22,1.54,1.54,0,0,1,.37.35l-.58.52a1.17,1.17,0,0,0-.4-.3,1.13,1.13,0,0,0-.48-.11.94.94,0,0,0-.71.26,1,1,0,0,0-.26.72v.67a1,1,0,0,0,.25.74.94.94,0,0,0,.72.27,1,1,0,0,0,.48-.12,1,1,0,0,0,.4-.32l.58.56a1.38,1.38,0,0,1-.38.34,1.62,1.62,0,0,1-.5.22,2.27,2.27,0,0,1-.59.07A2.12,2.12,0,0,1,600.1,596.13Z"/><path class="e" d="M603.4,592.22h.79v4.06h-.79Zm2.42,1.6a1,1,0,0,0-.21-.67.78.78,0,0,0-.6-.23.81.81,0,0,0-.6.21.73.73,0,0,0-.22.58l-.08-.78a1.46,1.46,0,0,1,.49-.57,1.22,1.22,0,0,1,.67-.2,1.33,1.33,0,0,1,.73.2,1.18,1.18,0,0,1,.46.56,2.4,2.4,0,0,1,.15.89v2.47h-.79Zm2.42,0a.93.93,0,0,0-.22-.67.85.85,0,0,0-.63-.23.72.72,0,0,0-.57.23.9.9,0,0,0-.21.64l-.16-.78a1.61,1.61,0,0,1,.51-.63,1.23,1.23,0,0,1,.69-.22,1.37,1.37,0,0,1,.75.2,1.09,1.09,0,0,1,.47.56,2.21,2.21,0,0,1,.17.89v2.47h-.8Z"/><path class="e" d="M584.33,605.5l2-2.64a1.85,1.85,0,0,0,.27-.47,1.29,1.29,0,0,0,.09-.45h0a.67.67,0,0,0-.2-.53.81.81,0,0,0-.56-.19.76.76,0,0,0-.56.21,1,1,0,0,0-.27.58h-.82a2,2,0,0,1,.29-.83,1.42,1.42,0,0,1,.56-.53,1.67,1.67,0,0,1,.79-.18,1.93,1.93,0,0,1,.87.17,1.21,1.21,0,0,1,.54.51,1.55,1.55,0,0,1,.19.8h0a1.84,1.84,0,0,1-.12.63,2.8,2.8,0,0,1-.35.63l-1.65,2.24h2.15v.76h-3.2Z"/><path class="e" d="M589,605.83a1.67,1.67,0,0,1-.41-1.19v-2.58a1.65,1.65,0,0,1,.41-1.19,2,2,0,0,1,2.42,0,1.65,1.65,0,0,1,.41,1.19v2.58a1.65,1.65,0,0,1-.41,1.19,2,2,0,0,1-2.42,0Zm1.83-.55a.89.89,0,0,0,.2-.64v-2.58a.89.89,0,0,0-.2-.64.82.82,0,0,0-.62-.22.86.86,0,0,0-.63.22.94.94,0,0,0-.19.64v2.58a.89.89,0,0,0,.2.64,1,1,0,0,0,1.24,0Z"/><path class="e" d="M593.22,605.83a1.67,1.67,0,0,1-.41-1.19v-2.58a1.61,1.61,0,0,1,.42-1.19,1.59,1.59,0,0,1,1.2-.42,1.45,1.45,0,0,1,1.62,1.61v2.58a1.61,1.61,0,0,1-.41,1.19,2,2,0,0,1-2.42,0Zm1.84-.55a.94.94,0,0,0,.2-.64v-2.58a.94.94,0,0,0-.2-.64.84.84,0,0,0-.63-.22.82.82,0,0,0-.62.22.89.89,0,0,0-.2.64v2.58a.89.89,0,0,0,.2.64.82.82,0,0,0,.62.22A.86.86,0,0,0,595.06,605.28Z"/><path class="e" d="M600.1,606.05a1.45,1.45,0,0,1-.6-.6,2.06,2.06,0,0,1-.2-1v-.67a2,2,0,0,1,.2-.94,1.37,1.37,0,0,1,.6-.59,2,2,0,0,1,.95-.21,2.35,2.35,0,0,1,.6.08,1.73,1.73,0,0,1,.5.22,1.38,1.38,0,0,1,.37.35l-.58.52a1.08,1.08,0,0,0-.4-.3,1.13,1.13,0,0,0-.48-.11,1,1,0,0,0-.71.26,1,1,0,0,0-.26.72v.67a1,1,0,0,0,.25.74.94.94,0,0,0,.72.27,1.14,1.14,0,0,0,.88-.44l.58.56a1.38,1.38,0,0,1-.38.34,1.62,1.62,0,0,1-.5.22,2.22,2.22,0,0,1-.59.07A2.12,2.12,0,0,1,600.1,606.05Z"/><path class="e" d="M603.4,602.14h.79v4.06h-.79Zm2.42,1.6a1,1,0,0,0-.21-.67.78.78,0,0,0-.6-.23.81.81,0,0,0-.6.21.73.73,0,0,0-.22.58l-.08-.78a1.46,1.46,0,0,1,.49-.57,1.22,1.22,0,0,1,.67-.2,1.3,1.3,0,0,1,.73.2,1.18,1.18,0,0,1,.46.56,2.4,2.4,0,0,1,.16.89v2.47h-.8Zm2.42,0a.93.93,0,0,0-.22-.67.85.85,0,0,0-.63-.23.73.73,0,0,0-.57.23.89.89,0,0,0-.2.64l-.16-.78a1.51,1.51,0,0,1,.5-.63,1.23,1.23,0,0,1,.69-.22,1.35,1.35,0,0,1,.75.2,1.16,1.16,0,0,1,.48.56,2.4,2.4,0,0,1,.16.89v2.47h-.8Z"/><path class="e" d="M585,615.58a1.34,1.34,0,0,1-.54-.49,2,2,0,0,1-.28-.77h.8a.75.75,0,0,0,.25.49.85.85,0,0,0,.54.17.72.72,0,0,0,.59-.25,1.1,1.1,0,0,0,.21-.72v-.48a1.1,1.1,0,0,0-.21-.72.72.72,0,0,0-.59-.25.83.83,0,0,0-.4.11,1.18,1.18,0,0,0-.34.33h-.72v-3h2.89v.76h-2.1V612a1,1,0,0,1,.34-.18.94.94,0,0,1,.37-.07,1.68,1.68,0,0,1,.84.2,1.29,1.29,0,0,1,.53.6,2.07,2.07,0,0,1,.19.94V614a2.25,2.25,0,0,1-.19.94,1.31,1.31,0,0,1-.55.59,1.69,1.69,0,0,1-.86.21A1.74,1.74,0,0,1,585,615.58Z"/><path class="e" d="M589,615.32a1.65,1.65,0,0,1-.41-1.19v-2.58a1.67,1.67,0,0,1,.41-1.19,2,2,0,0,1,2.42,0,1.65,1.65,0,0,1,.41,1.19v2.58a1.64,1.64,0,0,1-.41,1.19,1.92,1.92,0,0,1-2.42,0Zm1.83-.55a.89.89,0,0,0,.2-.64v-2.58a.88.88,0,0,0-.2-.63.78.78,0,0,0-.62-.22.82.82,0,0,0-.63.22.93.93,0,0,0-.2.63v2.58a.9.9,0,0,0,.21.64,1,1,0,0,0,1.24,0Z"/><path class="e" d="M593.22,615.32a1.65,1.65,0,0,1-.41-1.19v-2.58a1.67,1.67,0,0,1,.41-1.19,2,2,0,0,1,2.42,0,1.61,1.61,0,0,1,.41,1.19v2.58a1.64,1.64,0,0,1-.41,1.19,1.92,1.92,0,0,1-2.42,0Zm1.83-.55a.9.9,0,0,0,.21-.64v-2.58a.93.93,0,0,0-.2-.63.82.82,0,0,0-.63-.22.78.78,0,0,0-.62.22.88.88,0,0,0-.2.63v2.58a.89.89,0,0,0,.2.64,1,1,0,0,0,1.24,0Z"/><path class="e" d="M600.1,615.54a1.45,1.45,0,0,1-.6-.6,2,2,0,0,1-.21-1v-.67a2,2,0,0,1,.21-.94,1.45,1.45,0,0,1,.6-.6,2,2,0,0,1,.95-.2,2.22,2.22,0,0,1,.59.07,2,2,0,0,1,.51.22,1.76,1.76,0,0,1,.37.35l-.58.52a1.17,1.17,0,0,0-.4-.3,1.13,1.13,0,0,0-.48-.11.94.94,0,0,0-.71.26,1,1,0,0,0-.26.73V614a1.07,1.07,0,0,0,.25.74,1,1,0,0,0,.72.26,1.13,1.13,0,0,0,.48-.11,1.26,1.26,0,0,0,.4-.32l.58.55a1.42,1.42,0,0,1-.38.35,1.88,1.88,0,0,1-.5.21,2.27,2.27,0,0,1-.59.08A2,2,0,0,1,600.1,615.54Z"/><path class="e" d="M603.4,611.63h.79v4.06h-.79Zm2.42,1.6a1,1,0,0,0-.21-.66.75.75,0,0,0-.6-.24.81.81,0,0,0-.6.21.75.75,0,0,0-.22.58l-.08-.78a1.5,1.5,0,0,1,.49-.56,1.15,1.15,0,0,1,.67-.2,1.32,1.32,0,0,1,.73.19,1.28,1.28,0,0,1,.46.56,2.42,2.42,0,0,1,.15.9v2.46h-.79Zm2.42,0a.91.91,0,0,0-.22-.66.82.82,0,0,0-.63-.24.72.72,0,0,0-.57.23.9.9,0,0,0-.21.64l-.16-.78a1.51,1.51,0,0,1,.51-.62,1.16,1.16,0,0,1,.69-.22,1.37,1.37,0,0,1,.75.19,1.18,1.18,0,0,1,.47.56,2.22,2.22,0,0,1,.17.9v2.46h-.8Z"/><path class="c" d="M23.49,613.89A12.92,12.92,0,1,1,36.4,601,12.93,12.93,0,0,1,23.49,613.89Zm0-24.83A11.92,11.92,0,1,0,35.4,601,11.93,11.93,0,0,0,23.49,589.06Z"/><polygon class="d" points="35.77 588.74 9.42 600.98 35.77 613.21 32.02 600.98 35.77 588.74"/><path class="c" d="M36.58,614.14,8.23,601l28.35-13.17-4,13.17ZM10.61,601,35,612.29,31.5,601,35,589.66Z"/><path class="c" d="M2.52,605.19a5,5,0,0,1-1.11-.38,4.4,4.4,0,0,1-1-.64l.81-1a3.72,3.72,0,0,0,1.16.69,4.08,4.08,0,0,0,1.38.23,2.73,2.73,0,0,0,1.55-.38,1.17,1.17,0,0,0,.55-1.05h0a1.12,1.12,0,0,0-.25-.77,1.44,1.44,0,0,0-.64-.42,8.23,8.23,0,0,0-1-.25H3.89l-.1,0a9.48,9.48,0,0,1-1.5-.36,2.08,2.08,0,0,1-1-.73,2.42,2.42,0,0,1-.41-1.51h0a2.77,2.77,0,0,1,.38-1.47,2.44,2.44,0,0,1,1.12-.92,4.48,4.48,0,0,1,1.77-.32,4.6,4.6,0,0,1,1,.11,4.9,4.9,0,0,1,1.86.86l-.73,1a4.61,4.61,0,0,0-1-.58,3,3,0,0,0-1.06-.2,2.44,2.44,0,0,0-1.46.38,1.24,1.24,0,0,0-.53,1.07h0a1,1,0,0,0,.27.75,1.74,1.74,0,0,0,.67.4,9.3,9.3,0,0,0,1.12.27h.24a7.93,7.93,0,0,1,1.4.41,2.22,2.22,0,0,1,.94.76,2.4,2.4,0,0,1,.38,1.43h0a2.62,2.62,0,0,1-.4,1.45,2.54,2.54,0,0,1-1.16.91,4.8,4.8,0,0,1-1.83.31A6.44,6.44,0,0,1,2.52,605.19Z"/><rect class="c" x="612.5" y="600.68" width="1" height="4.68"/><rect class="c" x="612.5" y="590.76" width="1" height="4.68"/><rect class="c" x="612.5" y="611.45" width="1" height="5.24"/><rect class="c" x="789.58" y="611.45" width="1" height="5.24"/><rect class="c" x="682.59" y="600.68" width="1" height="4.68"/><rect class="c" x="647.3" y="590.76" width="1" height="4.68"/><rect class="a" width="790.34" height="618.13"/><rect class="d" x="381.51" y="237.73" width="13.79" height="51.69"/><line class="f" x1="381.51" y1="237.73" x2="381.51" y2="289.42"/><line class="f" x1="395.29" y1="237.73" x2="381.51" y2="237.73"/><line class="f" x1="395.29" y1="289.42" x2="395.29" y2="237.73"/><line class="f" x1="381.51" y1="289.42" x2="395.29" y2="289.42"/><rect class="d" x="317.75" y="333.12" width="96.49" height="20.68"/><line class="f" x1="317.75" y1="333.12" x2="414.25" y2="333.12"/><line class="f" x1="414.25" y1="333.12" x2="414.25" y2="353.8"/><line class="f" x1="414.25" y1="353.8" x2="317.75" y2="353.8"/><line class="f" x1="317.75" y1="353.8" x2="317.75" y2="333.12"/><rect class="d" x="318.27" y="383.33" width="31.01" height="31.01"/><line class="f" x1="318.27" y1="383.33" x2="318.27" y2="414.34"/><line class="f" x1="349.29" y1="383.33" x2="318.27" y2="383.33"/><line class="f" x1="349.29" y1="414.34" x2="349.29" y2="383.33"/><line class="f" x1="318.27" y1="414.34" x2="349.29" y2="414.34"/><line class="f" x1="309.14" y1="208.44" x2="309.14" y2="208.44"/><line class="f" x1="317.41" y1="354.21" x2="317.41" y2="208.44"/><line class="f" x1="309.14" y1="194.65" x2="322.92" y2="194.65"/><line class="f" x1="322.92" y1="194.65" x2="352.22" y2="194.65"/><line class="f" x1="438.37" y1="194.65" x2="467.66" y2="194.65"/><line class="f" x1="467.66" y1="194.65" x2="481.45" y2="194.65"/><line class="f" x1="317.41" y1="208.44" x2="350.49" y2="208.44"/><line class="f" x1="440.09" y1="208.44" x2="473.17" y2="208.44"/><line class="f" x1="309.14" y1="201.54" x2="350.49" y2="201.54"/><line class="f" x1="473.17" y1="415.2" x2="473.17" y2="356.62"/><line class="f" x1="473.17" y1="354.21" x2="473.17" y2="208.44"/><line class="f" x1="309.14" y1="415.2" x2="309.14" y2="382.46"/><line class="f" x1="309.14" y1="379.02" x2="309.14" y2="356.62"/><line class="f" x1="309.14" y1="356.62" x2="309.14" y2="356.62"/><line class="f" x1="309.14" y1="354.21" x2="309.14" y2="354.21"/><line class="f" x1="408.73" y1="356.62" x2="417.35" y2="356.62"/><line class="f" x1="448.36" y1="356.62" x2="473.17" y2="356.62"/><line class="f" x1="309.14" y1="423.47" x2="408.73" y2="423.47"/><line class="f" x1="309.14" y1="382.47" x2="309.14" y2="382.47"/><line class="f" x1="309.14" y1="379.02" x2="309.14" y2="379.02"/><line class="f" x1="446.64" y1="415.2" x2="473.17" y2="415.2"/><line class="f" x1="317.41" y1="354.21" x2="417.35" y2="354.21"/><line class="f" x1="448.36" y1="354.21" x2="473.17" y2="354.21"/><line class="f" x1="448.36" y1="356.62" x2="448.36" y2="354.21"/><line class="f" x1="417.35" y1="356.62" x2="417.35" y2="354.21"/><line class="f" x1="412.18" y1="419.51" x2="443.19" y2="419.51"/><line class="f" x1="412.18" y1="423.47" x2="443.19" y2="423.47"/><line class="f" x1="412.18" y1="419.51" x2="412.18" y2="388.49"/><line class="f" x1="412.18" y1="423.47" x2="412.18" y2="419.51"/><line class="f" x1="443.19" y1="419.51" x2="443.19" y2="423.47"/><line class="f" x1="443.19" y1="419.51" x2="444.92" y2="419.51"/><line class="f" x1="443.19" y1="423.47" x2="444.92" y2="423.47"/><line class="f" x1="410.45" y1="419.51" x2="412.18" y2="419.51"/><line class="f" x1="410.45" y1="423.47" x2="412.18" y2="423.47"/><line class="f" x1="408.73" y1="415.2" x2="408.73" y2="419.51"/><line class="f" x1="408.73" y1="419.51" x2="408.73" y2="423.47"/><line class="f" x1="446.64" y1="415.2" x2="446.64" y2="419.51"/><line class="f" x1="446.64" y1="419.51" x2="446.64" y2="423.47"/><line class="f" x1="410.45" y1="419.51" x2="410.45" y2="423.47"/><line class="f" x1="444.92" y1="419.51" x2="444.92" y2="423.47"/><line class="f" x1="444.92" y1="419.51" x2="446.64" y2="419.51"/><line class="f" x1="410.45" y1="419.51" x2="408.73" y2="419.51"/><line class="f" x1="408.73" y1="415.2" x2="415.62" y2="415.2"/><line class="f" x1="419.41" y1="415.2" x2="420.19" y2="415.2"/><line class="f" x1="423.98" y1="415.2" x2="424.76" y2="415.2"/><line class="f" x1="428.55" y1="415.2" x2="435.44" y2="415.2"/><line class="f" x1="439.23" y1="415.2" x2="439.75" y2="415.2"/><line class="f" x1="439.75" y1="415.2" x2="446.64" y2="415.2"/><line class="f" x1="408.73" y1="423.47" x2="410.45" y2="423.47"/><line class="f" x1="444.92" y1="423.47" x2="446.64" y2="423.47"/><line class="f" x1="473.17" y1="356.62" x2="473.17" y2="354.21"/><line class="f" x1="317.41" y1="356.62" x2="317.41" y2="354.21"/><line class="f" x1="309.14" y1="354.21" x2="309.14" y2="354.21"/><line class="f" x1="473.17" y1="208.44" x2="481.44" y2="208.44"/><line class="f" x1="309.14" y1="208.44" x2="317.41" y2="208.44"/><line class="f" x1="467.66" y1="194.65" x2="438.37" y2="194.65"/><line class="f" x1="481.44" y1="194.65" x2="467.66" y2="194.65"/><line class="f" x1="481.44" y1="201.54" x2="440.09" y2="201.54"/><line class="f" x1="481.44" y1="423.47" x2="446.64" y2="423.47"/><line class="f" x1="350.49" y1="208.44" x2="350.49" y2="201.54"/><line class="f" x1="352.22" y1="201.54" x2="352.22" y2="194.65"/><line class="f" x1="438.37" y1="194.65" x2="352.22" y2="194.65"/><line class="f" x1="440.09" y1="208.44" x2="350.49" y2="208.44"/><line class="f" x1="352.22" y1="201.54" x2="350.49" y2="201.54"/><line class="f" x1="440.09" y1="208.44" x2="440.09" y2="201.54"/><line class="f" x1="438.37" y1="201.54" x2="438.37" y2="194.65"/><line class="f" x1="438.37" y1="201.54" x2="440.09" y2="201.54"/><line class="f" x1="464.21" y1="194.65" x2="464.21" y2="194.65"/><line class="f" x1="326.37" y1="194.65" x2="326.37" y2="194.65"/><line class="f" x1="309.14" y1="379.02" x2="309.14" y2="382.47"/><line class="f" x1="317.41" y1="415.2" x2="317.41" y2="382.46"/><line class="f" x1="317.41" y1="379.02" x2="317.41" y2="356.62"/><line class="f" x1="348.42" y1="382.47" x2="317.41" y2="382.47"/><line class="f" x1="344.98" y1="379.02" x2="317.41" y2="379.02"/><line class="f" x1="317.41" y1="379.02" x2="317.41" y2="382.47"/><line class="f" x1="317.41" y1="356.62" x2="344.98" y2="356.62"/><line class="f" x1="348.42" y1="356.62" x2="406.32" y2="356.62"/><line class="f" x1="408.73" y1="384.19" x2="408.73" y2="356.62"/><line class="f" x1="406.32" y1="415.2" x2="406.32" y2="411.76"/><line class="f" x1="406.32" y1="384.19" x2="406.32" y2="356.62"/><line class="f" x1="408.73" y1="411.76" x2="406.32" y2="411.76"/><line class="f" x1="408.73" y1="384.19" x2="406.32" y2="384.19"/><line class="f" x1="408.73" y1="415.2" x2="406.32" y2="415.2"/><line class="f" x1="408.73" y1="415.2" x2="408.73" y2="411.76"/><line class="f" x1="414.59" y1="203.61" x2="435.96" y2="203.61"/><line class="f" x1="380.82" y1="204.99" x2="354.63" y2="204.99"/><line class="f" x1="354.63" y1="202.23" x2="380.82" y2="202.23"/><line class="f" x1="380.82" y1="203.61" x2="354.63" y2="203.61"/><line class="f" x1="410.45" y1="204.99" x2="389.09" y2="204.99"/><line class="f" x1="389.09" y1="202.23" x2="410.45" y2="202.23"/><line class="f" x1="410.45" y1="203.61" x2="389.09" y2="203.61"/><line class="f" x1="435.96" y1="202.23" x2="414.59" y2="202.23"/><line class="f" x1="414.59" y1="204.99" x2="435.96" y2="204.99"/><line class="f" x1="446.64" y1="354.21" x2="419.07" y2="354.21"/><line class="f" x1="446.64" y1="354.21" x2="446.64" y2="326.64"/><line class="f" x1="446.64" y1="356.62" x2="446.64" y2="354.21"/><line class="f" x1="419.07" y1="354.21" x2="419.07" y2="356.62"/><line class="f" x1="419.07" y1="354.21" x2="417.35" y2="354.21"/><line class="f" x1="419.07" y1="356.62" x2="417.35" y2="356.62"/><line class="f" x1="448.36" y1="354.21" x2="446.64" y2="354.21"/><line class="f" x1="448.36" y1="356.62" x2="446.64" y2="356.62"/><line class="f" x1="446.64" y1="356.62" x2="439.75" y2="356.62"/><line class="f" x1="435.96" y1="356.62" x2="435.18" y2="356.62"/><line class="f" x1="431.39" y1="356.62" x2="430.61" y2="356.62"/><line class="f" x1="426.82" y1="356.62" x2="425.96" y2="356.62"/><line class="f" x1="425.96" y1="356.62" x2="419.07" y2="356.62"/><line class="f" x1="446.64" y1="354.21" x2="446.64" y2="353.35"/><line class="f" x1="446.64" y1="353.35" x2="450.08" y2="353.35"/><line class="f" x1="450.08" y1="353.35" x2="450.08" y2="354.21"/><line class="f" x1="446.64" y1="356.62" x2="446.64" y2="357.48"/><line class="f" x1="446.64" y1="357.48" x2="450.08" y2="357.48"/><line class="f" x1="450.08" y1="357.48" x2="450.08" y2="356.62"/><line class="f" x1="419.07" y1="353.35" x2="415.62" y2="353.35"/><line class="f" x1="415.62" y1="353.35" x2="415.62" y2="354.21"/><line class="f" x1="419.07" y1="356.62" x2="419.07" y2="357.48"/><line class="f" x1="419.07" y1="357.48" x2="415.62" y2="357.48"/><line class="f" x1="415.62" y1="357.48" x2="415.62" y2="356.62"/><line class="f" x1="406.32" y1="410.03" x2="406.32" y2="385.91"/><line class="f" x1="406.32" y1="410.03" x2="382.2" y2="410.03"/><line class="f" x1="408.73" y1="410.03" x2="406.32" y2="410.03"/><line class="f" x1="406.32" y1="385.91" x2="408.73" y2="385.91"/><line class="f" x1="406.32" y1="385.91" x2="406.32" y2="384.19"/><line class="f" x1="408.73" y1="385.91" x2="408.73" y2="384.19"/><line class="f" x1="406.32" y1="411.76" x2="406.32" y2="410.03"/><line class="f" x1="408.73" y1="411.76" x2="408.73" y2="410.03"/><line class="f" x1="408.73" y1="410.03" x2="408.73" y2="403.14"/><line class="f" x1="408.73" y1="399.35" x2="408.73" y2="398.58"/><line class="f" x1="408.73" y1="394.78" x2="408.73" y2="394.01"/><line class="f" x1="408.73" y1="392.8" x2="408.73" y2="385.91"/><line class="f" x1="406.32" y1="410.03" x2="405.46" y2="410.03"/><line class="f" x1="405.46" y1="410.03" x2="405.46" y2="413.48"/><line class="f" x1="405.46" y1="413.48" x2="406.32" y2="413.48"/><line class="f" x1="408.73" y1="410.03" x2="409.59" y2="410.03"/><line class="f" x1="409.59" y1="410.03" x2="409.59" y2="413.48"/><line class="f" x1="409.59" y1="413.48" x2="408.73" y2="413.48"/><line class="f" x1="405.46" y1="385.91" x2="405.46" y2="382.47"/><line class="f" x1="405.46" y1="382.47" x2="406.32" y2="382.47"/><line class="f" x1="408.73" y1="385.91" x2="409.59" y2="385.91"/><line class="f" x1="409.59" y1="385.91" x2="409.59" y2="382.47"/><line class="f" x1="409.59" y1="382.47" x2="408.73" y2="382.47"/><line class="f" x1="406.32" y1="361.79" x2="348.42" y2="361.79"/><line class="f" x1="348.42" y1="382.47" x2="317.41" y2="382.47"/><line class="f" x1="344.98" y1="379.02" x2="317.41" y2="379.02"/><line class="f" x1="348.42" y1="382.47" x2="348.42" y2="379.02"/><line class="f" x1="348.42" y1="361.79" x2="348.42" y2="356.62"/><line class="f" x1="344.98" y1="361.79" x2="344.98" y2="356.62"/><line class="f" x1="348.42" y1="379.02" x2="344.98" y2="379.02"/><line class="f" x1="348.42" y1="361.79" x2="344.98" y2="361.79"/><line class="f" x1="344.98" y1="356.62" x2="348.43" y2="356.62"/><line class="f" x1="309.14" y1="354.21" x2="309.14" y2="208.44"/><line class="f" x1="317.41" y1="415.2" x2="406.32" y2="415.2"/><line class="f" x1="437.33" y1="202.23" x2="437.33" y2="201.54"/><line class="f" x1="437.33" y1="201.54" x2="440.09" y2="201.54"/><line class="f" x1="440.09" y1="201.54" x2="440.09" y2="204.3"/><line class="f" x1="440.09" y1="204.3" x2="438.71" y2="204.3"/><line class="f" x1="438.71" y1="204.99" x2="435.96" y2="204.99"/><line class="f" x1="435.96" y1="204.99" x2="435.96" y2="202.23"/><line class="f" x1="435.96" y1="202.23" x2="438.71" y2="202.23"/><line class="f" x1="438.71" y1="202.23" x2="438.71" y2="204.99"/><line class="f" x1="383.57" y1="204.99" x2="380.82" y2="204.99"/><line class="f" x1="380.82" y1="204.99" x2="380.82" y2="202.23"/><line class="f" x1="380.82" y1="202.23" x2="383.57" y2="202.23"/><line class="f" x1="383.57" y1="202.23" x2="383.57" y2="204.99"/><line class="f" x1="353.25" y1="202.23" x2="353.25" y2="201.54"/><line class="f" x1="353.25" y1="201.54" x2="350.49" y2="201.54"/><line class="f" x1="350.49" y1="201.54" x2="350.49" y2="204.3"/><line class="f" x1="350.49" y1="204.3" x2="351.87" y2="204.3"/><line class="f" x1="351.87" y1="204.99" x2="354.63" y2="204.99"/><line class="f" x1="354.63" y1="204.99" x2="354.63" y2="202.23"/><line class="f" x1="354.63" y1="202.23" x2="351.87" y2="202.23"/><line class="f" x1="351.87" y1="202.23" x2="351.87" y2="204.99"/><line class="f" x1="387.71" y1="202.23" x2="387.71" y2="201.54"/><line class="f" x1="387.71" y1="201.54" x2="382.2" y2="201.54"/><line class="f" x1="382.2" y1="201.54" x2="382.2" y2="202.23"/><line class="f" x1="382.2" y1="202.23" x2="383.58" y2="202.23"/><line class="f" x1="383.57" y1="202.23" x2="383.57" y2="204.3"/><line class="f" x1="383.57" y1="204.3" x2="386.33" y2="204.3"/><line class="f" x1="386.33" y1="204.3" x2="386.33" y2="202.23"/><line class="f" x1="386.33" y1="202.23" x2="387.71" y2="202.23"/><line class="f" x1="389.09" y1="204.99" x2="386.33" y2="204.99"/><line class="f" x1="386.33" y1="204.99" x2="386.33" y2="202.23"/><line class="f" x1="386.33" y1="202.23" x2="389.09" y2="202.23"/><line class="f" x1="389.09" y1="202.23" x2="389.09" y2="204.99"/><line class="f" x1="410.45" y1="204.99" x2="414.59" y2="204.99"/><line class="f" x1="414.59" y1="204.99" x2="414.59" y2="202.23"/><line class="f" x1="414.59" y1="202.23" x2="410.45" y2="202.23"/><line class="f" x1="410.45" y1="202.23" x2="410.45" y2="204.99"/><g class="g"><path class="f" d="M412.18,388.5a31,31,0,0,1,31,31"/><path class="f" d="M419.07,354.21a27.57,27.57,0,0,1,27.57-27.57"/><path class="f" d="M382.2,410a24.12,24.12,0,0,1,24.12-24.12"/></g><line class="f" x1="309.14" y1="379.02" x2="309.14" y2="379.02"/><line class="f" x1="309.14" y1="379.02" x2="309.14" y2="379.02"/><line class="f" x1="317.41" y1="356.62" x2="317.41" y2="379.02"/><line class="f" x1="317.41" y1="379.02" x2="344.98" y2="379.02"/><line class="f" x1="344.98" y1="379.02" x2="320.86" y2="375.57"/><line class="f" x1="320.86" y1="375.57" x2="317.41" y2="356.62"/><line class="f" x1="374.27" y1="414.28" x2="374.27" y2="410.83"/><line class="f" x1="374.27" y1="410.83" x2="353.59" y2="410.83"/><line class="f" x1="353.59" y1="410.83" x2="353.59" y2="414.28"/><line class="f" x1="353.59" y1="414.28" x2="354.63" y2="414.28"/><line class="f" x1="354.63" y1="414.28" x2="354.63" y2="411.87"/><line class="f" x1="354.63" y1="411.87" x2="373.24" y2="411.87"/><line class="f" x1="373.24" y1="411.87" x2="373.24" y2="414.28"/><line class="f" x1="373.24" y1="414.28" x2="374.27" y2="414.28"/><line class="f" x1="374.27" y1="414.28" x2="374.27" y2="410.83"/><line class="f" x1="353.59" y1="414.28" x2="353.59" y2="410.83"/><line class="f" x1="373.24" y1="414.28" x2="373.24" y2="411.87"/><line class="f" x1="354.63" y1="414.28" x2="354.63" y2="411.87"/><line class="f" x1="374.27" y1="410.83" x2="353.59" y2="410.83"/><line class="f" x1="374.27" y1="411.87" x2="353.59" y2="411.87"/><line class="f" x1="374.27" y1="414.28" x2="373.24" y2="414.28"/><line class="f" x1="354.63" y1="413.35" x2="353.59" y2="413.35"/><line class="f" x1="317.75" y1="333.12" x2="414.25" y2="333.12"/><line class="f" x1="318.61" y1="334.85" x2="337.57" y2="334.85"/><line class="f" x1="337.57" y1="334.85" x2="337.57" y2="352.08"/><line class="f" x1="337.57" y1="352.08" x2="318.62" y2="352.08"/><line class="f" x1="318.61" y1="352.08" x2="318.61" y2="334.85"/><line class="f" x1="317.75" y1="333.12" x2="338.43" y2="333.12"/><line class="f" x1="317.75" y1="353.8" x2="338.43" y2="353.8"/><line class="f" x1="320.34" y1="336.57" x2="335.85" y2="336.57"/><line class="f" x1="335.85" y1="336.57" x2="335.85" y2="348.63"/><line class="f" x1="335.85" y1="348.63" x2="320.34" y2="348.63"/><line class="f" x1="320.34" y1="348.63" x2="320.34" y2="336.57"/><line class="f" x1="393.57" y1="353.8" x2="393.57" y2="333.12"/><line class="f" x1="401.47" y1="341.03" x2="406.34" y2="345.9"/><line class="f" x1="406.34" y1="341.03" x2="401.47" y2="345.9"/><line class="f" x1="400.46" y1="343.46" x2="407.35" y2="343.46"/><line class="f" x1="414.25" y1="333.12" x2="414.25" y2="353.8"/><line class="f" x1="393.57" y1="353.8" x2="414.25" y2="353.8"/><line class="f" x1="393.57" y1="333.12" x2="414.25" y2="333.12"/><line class="f" x1="359.11" y1="353.8" x2="359.11" y2="333.12"/><line class="f" x1="359.11" y1="333.12" x2="379.78" y2="333.12"/><line class="f" x1="379.78" y1="333.12" x2="379.78" y2="353.8"/><line class="f" x1="379.78" y1="353.8" x2="359.11" y2="353.8"/><line class="f" x1="376.97" y1="332.18" x2="361.93" y2="332.18"/><line class="f" x1="317.75" y1="333.12" x2="317.75" y2="353.8"/><line class="f" x1="390.07" y1="247.86" x2="390.07" y2="279.29"/><line class="f" x1="387.95" y1="279.29" x2="385.84" y2="271.43"/><line class="f" x1="385.84" y1="271.43" x2="385.84" y2="255.72"/><line class="f" x1="385.84" y1="255.71" x2="387.96" y2="247.86"/><line class="f" x1="387.95" y1="247.86" x2="390.07" y2="247.86"/><line class="f" x1="389.22" y1="277.2" x2="389.22" y2="275.1"/><line class="f" x1="389.22" y1="275.1" x2="388.69" y2="275.1"/><line class="f" x1="388.7" y1="275.1" x2="388.7" y2="277.2"/><line class="f" x1="388.7" y1="277.2" x2="389.22" y2="277.2"/><line class="f" x1="389.22" y1="274.58" x2="389.22" y2="272.48"/><line class="f" x1="389.22" y1="272.48" x2="388.69" y2="272.48"/><line class="f" x1="388.7" y1="272.48" x2="388.7" y2="274.58"/><line class="f" x1="388.7" y1="274.58" x2="389.22" y2="274.58"/><line class="f" x1="389.22" y1="271.96" x2="389.22" y2="270.91"/><line class="f" x1="389.22" y1="270.91" x2="388.69" y2="270.91"/><line class="f" x1="388.7" y1="270.91" x2="388.7" y2="271.96"/><line class="f" x1="388.7" y1="271.96" x2="389.22" y2="271.96"/><line class="f" x1="387.95" y1="247.86" x2="387.95" y2="279.29"/><line class="f" x1="403.91" y1="346.91" x2="403.91" y2="340.02"/><line class="f" x1="387.95" y1="247.79" x2="387.95" y2="279.23"/><line class="f" x1="388.7" y1="271.89" x2="389.22" y2="271.89"/><line class="f" x1="388.7" y1="270.85" x2="388.7" y2="271.89"/><line class="f" x1="389.22" y1="270.85" x2="388.69" y2="270.85"/><line class="f" x1="389.22" y1="271.89" x2="389.22" y2="270.85"/><line class="f" x1="388.7" y1="274.52" x2="389.22" y2="274.52"/><line class="f" x1="388.7" y1="272.42" x2="388.7" y2="274.51"/><line class="f" x1="389.22" y1="272.42" x2="388.69" y2="272.42"/><line class="f" x1="389.22" y1="274.52" x2="389.22" y2="272.42"/><line class="f" x1="388.7" y1="277.13" x2="389.22" y2="277.13"/><line class="f" x1="388.7" y1="275.04" x2="388.7" y2="277.13"/><line class="f" x1="389.22" y1="275.04" x2="388.69" y2="275.04"/><line class="f" x1="389.22" y1="277.13" x2="389.22" y2="275.04"/><line class="f" x1="387.95" y1="247.79" x2="390.07" y2="247.79"/><line class="f" x1="385.84" y1="255.65" x2="387.96" y2="247.79"/><line class="f" x1="385.84" y1="271.37" x2="385.84" y2="255.65"/><line class="f" x1="387.95" y1="279.23" x2="385.84" y2="271.37"/><line class="f" x1="390.07" y1="279.23" x2="387.95" y2="279.23"/><line class="f" x1="390.07" y1="247.79" x2="390.07" y2="279.23"/><line class="f" x1="338.43" y1="353.8" x2="338.43" y2="333.12"/><line class="f" x1="338.43" y1="333.12" x2="359.11" y2="333.12"/><line class="f" x1="359.11" y1="333.12" x2="359.11" y2="353.8"/><line class="f" x1="359.11" y1="353.8" x2="338.43" y2="353.8"/><line class="f" x1="388.4" y1="210.1" x2="436.64" y2="210.1"/><line class="f" x1="436.65" y1="210.1" x2="436.65" y2="213.54"/><line class="f" x1="436.65" y1="213.54" x2="388.4" y2="213.54"/><line class="f" x1="388.4" y1="213.54" x2="388.4" y2="210.1"/><line class="f" x1="395.29" y1="237.67" x2="381.51" y2="237.67"/><line class="f" x1="381.51" y1="237.67" x2="381.51" y2="289.36"/><line class="f" x1="381.51" y1="289.36" x2="395.29" y2="289.36"/><line class="f" x1="395.29" y1="289.36" x2="395.29" y2="237.67"/><g class="g"><path class="f" d="M354.8,343.46a6,6,0,1,0-6,6,6,6,0,0,0,6-6"/><path class="f" d="M353.77,343.46a5,5,0,1,0-5,5,5,5,0,0,0,5-5"/><path class="f" d="M328.78,345.18a.69.69,0,0,0-1.38,0,.69.69,0,0,0,1.38,0"/><path class="f" d="M367.75,348.54a3.38,3.38,0,1,0-3.38,3.38,3.38,3.38,0,0,0,3.38-3.38"/><path class="f" d="M367.75,338.38a3.38,3.38,0,1,0-3.38,3.39,3.38,3.38,0,0,0,3.38-3.39"/><path class="f" d="M377.9,338.38a3.38,3.38,0,1,0-3.38,3.39,3.38,3.38,0,0,0,3.38-3.39"/><path class="f" d="M441.81,211.82a1.72,1.72,0,1,0-1.72,1.72,1.72,1.72,0,0,0,1.72-1.72"/><path class="f" d="M386.23,257.29a6.29,6.29,0,0,1,0,12.57"/><path class="f" d="M386.23,269.86a12.53,12.53,0,0,1,0-12.57"/><path class="f" d="M377.9,347.57a3.38,3.38,0,1,0-3.38,3.38,3.38,3.38,0,0,0,3.38-3.38"/><path class="f" d="M386.23,269.8a12.55,12.55,0,0,1,0-12.58"/><path class="f" d="M386.23,257.22a6.29,6.29,0,0,1,0,12.58"/></g><line class="f" x1="347.56" y1="388.5" x2="347.56" y2="409.17"/><line class="f" x1="344.12" y1="412.62" x2="323.44" y2="412.62"/><line class="f" x1="319.99" y1="409.17" x2="319.99" y2="388.49"/><line class="f" x1="323.44" y1="385.05" x2="344.12" y2="385.05"/><line class="f" x1="347.56" y1="388.5" x2="347.56" y2="409.17"/><line class="f" x1="344.12" y1="412.62" x2="323.44" y2="412.62"/><line class="f" x1="319.99" y1="409.17" x2="319.99" y2="388.49"/><line class="f" x1="323.44" y1="385.05" x2="344.12" y2="385.05"/><g class="g"><path class="f" d="M324.3,388.5a.86.86,0,1,0-.86.86.86.86,0,0,0,.86-.86"/><path class="f" d="M344.12,385.05a3.44,3.44,0,0,1,3.44,3.44"/><path class="f" d="M347.56,409.17a3.45,3.45,0,0,1-3.44,3.45"/><path class="f" d="M320,388.5a3.45,3.45,0,0,1,3.45-3.45"/><path class="f" d="M323.44,412.62a3.46,3.46,0,0,1-3.45-3.45"/><path class="f" d="M324.3,388.5a.86.86,0,1,0-.86.86.86.86,0,0,0,.86-.86"/><path class="f" d="M344.12,385.05a3.44,3.44,0,0,1,3.44,3.44"/><path class="f" d="M347.56,409.17a3.45,3.45,0,0,1-3.44,3.45"/><path class="f" d="M320,388.5a3.45,3.45,0,0,1,3.45-3.45"/><path class="f" d="M323.44,412.62a3.46,3.46,0,0,1-3.45-3.45"/></g><rect class="d" x="408.73" y="249.79" width="17.23" height="27.57"/><line class="f" x1="408.73" y1="249.79" x2="408.73" y2="277.36"/><line class="f" x1="425.96" y1="249.79" x2="408.73" y2="249.79"/><line class="f" x1="425.96" y1="277.36" x2="425.96" y2="249.79"/><line class="f" x1="408.73" y1="277.36" x2="425.96" y2="277.36"/><rect class="d" x="353.59" y="411.87" width="1.03" height="2.41"/><line class="f" x1="354.63" y1="414.28" x2="354.63" y2="411.87"/><line class="f" x1="353.59" y1="414.28" x2="354.63" y2="414.28"/><line class="f" x1="353.59" y1="411.87" x2="353.59" y2="414.28"/><line class="f" x1="354.63" y1="411.87" x2="353.59" y2="411.87"/><rect class="d" x="353.59" y="410.83" width="20.68" height="1.03"/><line class="f" x1="353.59" y1="411.87" x2="374.27" y2="411.87"/><line class="f" x1="353.59" y1="410.83" x2="353.59" y2="411.87"/><line class="f" x1="374.27" y1="410.83" x2="353.59" y2="410.83"/><line class="f" x1="374.27" y1="411.87" x2="374.27" y2="410.83"/><rect class="d" x="373.24" y="411.87" width="1.04" height="2.41"/><line class="f" x1="374.27" y1="414.28" x2="374.27" y2="411.87"/><line class="f" x1="373.24" y1="414.28" x2="374.27" y2="414.28"/><line class="f" x1="373.24" y1="411.87" x2="373.24" y2="414.28"/><line class="f" x1="374.27" y1="411.87" x2="373.24" y2="411.87"/><rect class="d" x="348.42" y="356.62" width="57.9" height="5.17"/><line class="f" x1="406.32" y1="361.79" x2="406.32" y2="356.62"/><line class="f" x1="348.42" y1="361.79" x2="406.32" y2="361.79"/><line class="f" x1="348.42" y1="356.62" x2="348.42" y2="361.79"/><line class="f" x1="406.32" y1="356.62" x2="348.42" y2="356.62"/><polygon class="h" points="441.81 211.82 441.31 213.04 440.09 213.54 438.87 213.04 438.37 211.82 438.87 210.6 440.09 210.1 441.31 210.6 441.81 211.82"/><g class="g"><path class="f" d="M441.81,211.82a1.72,1.72,0,0,1-3.44,0"/><path class="f" d="M438.37,211.82a1.72,1.72,0,0,1,3.44,0"/></g><rect class="d" x="388.4" y="210.1" width="48.24" height="3.45"/><line class="f" x1="388.4" y1="210.1" x2="388.4" y2="213.54"/><line class="f" x1="436.65" y1="210.1" x2="388.4" y2="210.1"/><line class="f" x1="436.65" y1="213.54" x2="436.65" y2="210.1"/><line class="f" x1="388.4" y1="213.54" x2="436.64" y2="213.54"/><polygon class="h" points="473.17 293.9 473.17 233.25 472.97 232.76 472.49 232.56 447.31 232.56 445.58 233.02 444.32 234.28 443.86 236 443.86 237.04 444.06 237.53 444.55 237.73 444.09 237.88 443.83 238.28 443.86 238.76 443.86 262.54 444.16 263.27 444.89 263.57 444.16 263.88 443.86 264.61 443.86 288.39 444.05 289.01 444.55 289.42 444.06 289.62 443.86 290.11 443.86 291.14 444.32 292.87 445.58 294.13 447.31 294.59 472.49 294.59 472.97 294.39 473.17 293.9"/><line class="f" x1="472.97" y1="294.39" x2="473.17" y2="293.9"/><line class="f" x1="472.48" y1="294.59" x2="472.97" y2="294.39"/><line class="f" x1="447.31" y1="294.59" x2="472.48" y2="294.59"/><line class="f" x1="445.58" y1="294.13" x2="447.31" y2="294.59"/><line class="f" x1="444.32" y1="292.87" x2="445.58" y2="294.13"/><line class="f" x1="443.86" y1="291.14" x2="444.32" y2="292.87"/><line class="f" x1="443.86" y1="290.11" x2="443.86" y2="291.14"/><line class="f" x1="444.06" y1="289.62" x2="443.86" y2="290.11"/><line class="f" x1="444.55" y1="289.42" x2="444.06" y2="289.62"/><line class="f" x1="444.05" y1="289.01" x2="444.55" y2="289.42"/><line class="f" x1="443.86" y1="288.39" x2="444.05" y2="289.01"/><line class="f" x1="443.86" y1="264.61" x2="443.86" y2="288.39"/><line class="f" x1="444.16" y1="263.88" x2="443.86" y2="264.61"/><line class="f" x1="444.89" y1="263.57" x2="444.16" y2="263.88"/><line class="f" x1="444.16" y1="263.27" x2="444.89" y2="263.57"/><line class="f" x1="443.86" y1="262.54" x2="444.16" y2="263.27"/><line class="f" x1="443.86" y1="238.76" x2="443.86" y2="262.54"/><line class="f" x1="443.83" y1="238.28" x2="443.86" y2="238.76"/><line class="f" x1="444.09" y1="237.88" x2="443.83" y2="238.28"/><line class="f" x1="444.55" y1="237.73" x2="444.09" y2="237.88"/><line class="f" x1="444.06" y1="237.53" x2="444.55" y2="237.73"/><line class="f" x1="443.86" y1="237.04" x2="444.06" y2="237.53"/><line class="f" x1="443.86" y1="236.01" x2="443.86" y2="237.04"/><line class="f" x1="444.32" y1="234.28" x2="443.86" y2="236.01"/><line class="f" x1="445.58" y1="233.02" x2="444.32" y2="234.28"/><line class="f" x1="447.31" y1="232.56" x2="445.58" y2="233.02"/><line class="f" x1="472.48" y1="232.56" x2="447.31" y2="232.56"/><line class="f" x1="472.97" y1="232.76" x2="472.49" y2="232.56"/><line class="f" x1="473.17" y1="233.25" x2="472.97" y2="232.76"/><line class="f" x1="473.17" y1="293.9" x2="473.17" y2="233.25"/><line class="f" x1="443.86" y1="237.04" x2="443.86" y2="236"/><line class="f" x1="447.31" y1="232.56" x2="472.48" y2="232.56"/><line class="f" x1="473.17" y1="233.25" x2="473.17" y2="237.04"/><line class="f" x1="472.48" y1="237.73" x2="444.55" y2="237.73"/><line class="f" x1="473.17" y1="237.04" x2="473.17" y2="263.57"/><line class="f" x1="473.17" y1="263.57" x2="470.76" y2="263.57"/><line class="f" x1="443.86" y1="262.54" x2="443.86" y2="238.76"/><line class="f" x1="444.89" y1="237.73" x2="462.18" y2="237.73"/><line class="f" x1="462.18" y1="263.57" x2="444.89" y2="263.57"/><line class="f" x1="471.79" y1="262.54" x2="471.79" y2="238.76"/><line class="f" x1="414.93" y1="237.73" x2="414.93" y2="242.9"/><line class="f" x1="414.93" y1="246.34" x2="414.93" y2="251.51"/><line class="f" x1="414.93" y1="254.96" x2="414.93" y2="260.13"/><line class="f" x1="414.93" y1="263.57" x2="414.93" y2="268.74"/><line class="f" x1="414.93" y1="272.19" x2="414.93" y2="277.36"/><line class="f" x1="414.93" y1="280.8" x2="414.93" y2="284.25"/><line class="f" x1="414.93" y1="284.25" x2="414.93" y2="289.42"/><line class="f" x1="443.86" y1="290.11" x2="443.86" y2="291.14"/><line class="f" x1="447.31" y1="294.59" x2="472.48" y2="294.59"/><line class="f" x1="473.17" y1="293.9" x2="473.17" y2="290.11"/><line class="f" x1="472.48" y1="289.42" x2="444.55" y2="289.42"/><line class="f" x1="473.17" y1="290.11" x2="473.17" y2="263.57"/><line class="f" x1="473.17" y1="263.57" x2="470.76" y2="263.57"/><line class="f" x1="443.86" y1="264.61" x2="443.86" y2="288.39"/><line class="f" x1="444.89" y1="289.42" x2="462.18" y2="289.42"/><line class="f" x1="470.76" y1="263.57" x2="444.89" y2="263.57"/><line class="f" x1="471.79" y1="264.61" x2="471.79" y2="288.39"/><line class="f" x1="444.89" y1="237.73" x2="439.72" y2="237.73"/><line class="f" x1="436.28" y1="237.73" x2="431.11" y2="237.73"/><line class="f" x1="427.66" y1="237.73" x2="422.49" y2="237.73"/><line class="f" x1="420.1" y1="237.73" x2="414.93" y2="237.73"/><line class="f" x1="444.89" y1="289.42" x2="439.72" y2="289.42"/><line class="f" x1="436.28" y1="289.42" x2="431.11" y2="289.42"/><line class="f" x1="427.66" y1="289.42" x2="422.49" y2="289.42"/><line class="f" x1="420.1" y1="289.42" x2="414.93" y2="289.42"/><g class="g"><path class="f" d="M472.48,232.56a.69.69,0,0,1,.69.69"/><path class="f" d="M473.17,237a.69.69,0,0,1-.69.69"/><path class="f" d="M444.55,237.73a.69.69,0,0,1-.69-.69"/><path class="f" d="M443.86,238.76a1,1,0,0,1,1-1"/><path class="f" d="M444.9,263.57a1,1,0,0,1-1-1"/><path class="f" d="M473.17,293.9a.69.69,0,0,1-.69.69"/><path class="f" d="M472.48,289.42a.69.69,0,0,1,.69.69"/><path class="f" d="M443.86,290.11a.69.69,0,0,1,.69-.69"/><path class="f" d="M444.9,289.42a1,1,0,0,1-1-1"/><path class="f" d="M443.86,264.61a1,1,0,0,1,1-1"/><path class="f" d="M468.06,262.43a95.89,95.89,0,0,1,0-23.78"/><path class="f" d="M468.06,288.28a98.54,98.54,0,0,1,0-23.78"/><path class="f" d="M443.86,236a3.44,3.44,0,0,1,3.45-3.44"/><path class="f" d="M447.31,294.59a3.45,3.45,0,0,1-3.45-3.45"/></g><rect class="d" x="317.75" y="249.79" width="27.57" height="27.57"/><line class="f" x1="317.75" y1="249.79" x2="317.75" y2="277.36"/><line class="f" x1="345.32" y1="249.79" x2="317.75" y2="249.79"/><line class="f" x1="345.32" y1="277.36" x2="345.32" y2="249.79"/><line class="f" x1="317.75" y1="277.36" x2="345.32" y2="277.36"/><polygon class="h" points="324.65 249.79 338.43 249.79 338.43 240.49 337.97 238.76 336.71 237.5 334.98 237.04 328.09 237.04 326.37 237.5 325.11 238.76 324.65 240.49 324.65 249.79"/><polygon class="h" points="324.65 277.36 324.65 286.66 325.11 288.39 326.37 289.65 328.09 290.11 334.98 290.11 336.71 289.65 337.97 288.39 338.43 286.66 338.43 277.36 324.65 277.36"/><line class="f" x1="328.09" y1="238.76" x2="334.98" y2="238.76"/><line class="f" x1="338.43" y1="240.49" x2="338.43" y2="249.79"/><line class="f" x1="328.09" y1="237.04" x2="334.98" y2="237.04"/><line class="f" x1="324.65" y1="249.79" x2="324.65" y2="240.49"/><g class="g"><path class="f" d="M335,238.76a1.72,1.72,0,0,1,1.73,1.73"/><path class="f" d="M326.37,240.49a1.72,1.72,0,0,1,1.72-1.73"/><path class="f" d="M335,237a3.44,3.44,0,0,1,3.45,3.44"/><path class="f" d="M324.65,240.49a3.44,3.44,0,0,1,3.44-3.45"/></g><line class="f" x1="328.09" y1="288.39" x2="334.98" y2="288.39"/><line class="f" x1="338.43" y1="286.66" x2="338.43" y2="277.36"/><line class="f" x1="328.09" y1="290.11" x2="334.98" y2="290.11"/><line class="f" x1="324.65" y1="277.36" x2="324.65" y2="286.66"/><g class="g"><path class="f" d="M336.71,286.66a1.73,1.73,0,0,1-1.73,1.73"/><path class="f" d="M328.09,288.39a1.73,1.73,0,0,1-1.72-1.73"/><path class="f" d="M338.43,286.66a3.45,3.45,0,0,1-3.44,3.45"/><path class="f" d="M328.09,290.11a3.45,3.45,0,0,1-3.44-3.45"/></g><rect class="d" x="452.5" y="312.85" width="20.68" height="41.36"/><line class="f" x1="473.17" y1="354.21" x2="473.17" y2="312.85"/><line class="f" x1="473.17" y1="312.85" x2="452.5" y2="312.85"/><line class="f" x1="452.5" y1="312.85" x2="452.5" y2="354.21"/><line class="f" x1="452.5" y1="354.21" x2="473.17" y2="354.21"/><line class="f" x1="462.84" y1="352.14" x2="462.84" y2="314.92"/><line class="f" x1="468.92" y1="350.22" x2="456.53" y2="346.72"/><line class="f" x1="469.53" y1="346.28" x2="458.01" y2="344.83"/><line class="f" x1="455.38" y1="340.89" x2="468.03" y2="339.7"/><line class="f" x1="457.04" y1="334.79" x2="468.03" y2="336.41"/><line class="f" x1="456.41" y1="332.57" x2="469.94" y2="332.57"/><line class="f" x1="456.35" y1="326.29" x2="469.73" y2="327.78"/><line class="f" x1="456.57" y1="323.93" x2="468.79" y2="323.93"/><line class="f" x1="456.45" y1="317.73" x2="468.98" y2="316.54"/><line class="f" x1="457.3" y1="319.22" x2="467.9" y2="320.43"/><rect class="d" x="452.5" y="356.62" width="20.68" height="58.58"/><line class="f" x1="473.17" y1="415.2" x2="473.17" y2="356.62"/><line class="f" x1="473.17" y1="356.62" x2="452.5" y2="356.62"/><line class="f" x1="452.5" y1="356.62" x2="452.5" y2="415.2"/><line class="f" x1="452.5" y1="415.2" x2="473.17" y2="415.2"/><line class="f" x1="462.84" y1="412.27" x2="462.84" y2="359.55"/><line class="f" x1="468.92" y1="409.56" x2="456.53" y2="404.6"/><line class="f" x1="469.53" y1="403.97" x2="458.01" y2="401.92"/><line class="f" x1="455.38" y1="396.34" x2="468.03" y2="394.65"/><line class="f" x1="457.04" y1="387.7" x2="468.03" y2="389.98"/><line class="f" x1="456.41" y1="384.55" x2="469.94" y2="384.55"/><line class="f" x1="456.35" y1="375.65" x2="469.73" y2="377.76"/><line class="f" x1="456.57" y1="372.31" x2="468.79" y2="372.31"/><line class="f" x1="456.45" y1="363.53" x2="468.98" y2="361.84"/><line class="f" x1="457.3" y1="365.64" x2="467.9" y2="367.36"/><polygon class="h" points="397.88 361.79 379.96 361.79 379.59 361.94 379.44 362.31 379.44 376.43 379.59 376.8 379.96 376.95 397.88 376.95 398.24 376.8 398.39 376.43 398.39 362.31 398.24 361.94 397.88 361.79"/><g class="g"><path class="f" d="M397.88,361.79a.51.51,0,0,1,.51.52"/></g><line class="f" x1="398.39" y1="376.43" x2="398.39" y2="362.31"/><g class="g"><path class="f" d="M398.39,376.43a.51.51,0,0,1-.51.52"/></g><line class="f" x1="379.96" y1="376.95" x2="397.88" y2="376.95"/><g class="g"><path class="f" d="M380,377a.52.52,0,0,1-.52-.52"/></g><line class="f" x1="379.44" y1="362.31" x2="379.44" y2="376.43"/><g class="g"><path class="f" d="M379.44,362.31a.52.52,0,0,1,.52-.52"/></g><line class="f" x1="397.88" y1="361.79" x2="379.96" y2="361.79"/><line class="f" x1="396.84" y1="365.58" x2="380.99" y2="365.58"/><line class="f" x1="380.47" y1="366.1" x2="380.47" y2="375.4"/><line class="f" x1="380.99" y1="375.92" x2="396.84" y2="375.92"/><line class="f" x1="397.36" y1="375.4" x2="397.36" y2="366.1"/><g class="g"><path class="f" d="M380.47,366.1a.52.52,0,0,1,.52-.52"/><path class="f" d="M381,375.92a.52.52,0,0,1-.52-.52"/><path class="f" d="M397.36,375.4a.52.52,0,0,1-.52.52"/><path class="f" d="M396.84,365.58a.52.52,0,0,1,.52.52"/></g><polygon class="h" points="389.78 363.86 389.64 365.3 389.53 365.63 389.3 367.45 389.17 367.69 388.92 367.79 388.66 367.69 388.53 367.45 388.3 365.63 388.19 365.3 388.06 363.86 388.31 363.25 388.92 362.99 389.53 363.25 389.78 363.86"/><line class="f" x1="389.78" y1="363.86" x2="389.64" y2="365.3"/><g class="g"><path class="f" d="M389.64,365.3a.76.76,0,0,1-.11.33"/></g><line class="f" x1="389.53" y1="365.63" x2="389.3" y2="367.45"/><g class="g"><path class="f" d="M389.3,367.45a.39.39,0,0,1-.77,0"/></g><line class="f" x1="388.53" y1="367.45" x2="388.3" y2="365.63"/><g class="g"><path class="f" d="M388.3,365.63a.76.76,0,0,1-.11-.33"/></g><line class="f" x1="388.19" y1="365.3" x2="388.05" y2="363.86"/><g class="g"><path class="f" d="M388.05,363.86a.87.87,0,1,1,1.73,0"/></g><line class="f" x1="388.45" y1="364.71" x2="388.45" y2="365.23"/><line class="f" x1="389.38" y1="365.23" x2="389.38" y2="364.71"/><line class="f" x1="389.38" y1="364.71" x2="388.45" y2="364.71"/><g class="g"><path class="f" d="M389.38,365.23a.47.47,0,1,1-.93,0"/><path class="f" d="M389.53,365.63a.74.74,0,0,1-1.23,0"/></g><polygon class="h" points="371.17 361.79 358.42 361.79 358.42 373.16 358.68 374.86 359.46 376.41 360.66 377.64 362.61 378.67 364.79 379.02 366.97 378.67 368.93 377.64 370.13 376.41 370.9 374.86 371.17 373.16 371.17 361.79"/><line class="f" x1="358.42" y1="361.79" x2="358.42" y2="373.16"/><line class="f" x1="358.42" y1="361.79" x2="371.17" y2="361.79"/><line class="f" x1="371.17" y1="361.79" x2="371.17" y2="373.16"/><line class="f" x1="360.49" y1="365.92" x2="360.49" y2="373.16"/><line class="f" x1="369.1" y1="365.92" x2="369.1" y2="373.16"/><line class="f" x1="369.1" y1="365.92" x2="360.49" y2="365.92"/><g class="g"><path class="f" d="M360.66,377.64a5.61,5.61,0,0,1-2.24-4.48"/><path class="f" d="M371.17,373.16a5.61,5.61,0,0,1-2.24,4.48"/><path class="f" d="M368.93,377.64a6.89,6.89,0,0,1-8.27,0"/><path class="f" d="M371.17,373.16a5.61,5.61,0,0,1-2.24,4.48"/><path class="f" d="M368.93,377.64a6.85,6.85,0,0,1-4.14,1.38"/><path class="f" d="M369.1,373.16a3.51,3.51,0,0,1-1.41,2.82"/><path class="f" d="M367.69,376a4.85,4.85,0,0,1-5.79,0"/><path class="f" d="M361.9,376a3.54,3.54,0,0,1-1.41-2.83"/></g><line class="f" x1="344.98" y1="356.62" x2="344.98" y2="379.02"/><line class="f" x1="348.42" y1="356.62" x2="348.42" y2="382.47"/><line class="f" x1="387.95" y1="279.29" x2="390.07" y2="279.29"/><rect x="448.36" y="354.21" width="24.81" height="2.41"/><polygon class="i" points="446.64 415.2 473.17 415.2 473.17 208.44 481.44 208.44 481.44 423.47 446.64 423.47 446.64 415.2"/><polygon class="i" points="309.14 201.54 309.14 194.65 322.92 194.65 352.21 194.65 352.21 201.54 309.14 201.54"/><rect x="309.14" y="201.54" width="41.35" height="6.89"/><polygon class="i" points="481.44 201.54 438.37 201.54 438.37 194.65 467.66 194.65 481.44 194.65 481.44 201.54"/><rect x="440.09" y="201.54" width="41.35" height="6.89"/><rect x="406.32" y="411.76" width="2.41" height="3.45"/><polygon class="i" points="317.41 356.62 317.41 354.21 417.35 354.21 417.35 356.62 408.73 356.62 408.73 384.19 406.32 384.19 406.32 356.62 317.41 356.62"/><rect x="317.41" y="379.02" width="31.02" height="3.45"/><rect x="344.98" y="356.62" width="3.45" height="25.85"/><rect x="408.73" y="419.51" width="1.72" height="3.96"/><rect x="444.92" y="419.51" width="1.72" height="3.96"/><polygon class="i" points="309.14 208.44 317.41 208.44 317.41 415.2 408.73 415.2 408.73 423.47 309.14 423.47 309.14 208.44"/><line class="f" x1="309.14" y1="423.47" x2="481.44" y2="423.47"/><line class="f" x1="481.44" y1="423.47" x2="481.44" y2="194.65"/><line class="f" x1="481.44" y1="194.65" x2="467.66" y2="194.65"/><line class="f" x1="467.66" y1="194.65" x2="322.92" y2="194.65"/><line class="f" x1="322.92" y1="194.65" x2="309.14" y2="194.65"/><line class="f" x1="309.14" y1="194.65" x2="309.14" y2="423.47"/><path class="j" d="M360,389.26v7h-.72V389.9h-1.65v-.64Z"/><path class="j" d="M361.67,395.76a.53.53,0,0,1,.53-.54.54.54,0,0,1,.54.54.55.55,0,0,1-.54.55A.54.54,0,0,1,361.67,395.76Z"/><path class="j" d="M363.68,392.76c0-2.23,1.16-3.56,2.78-3.56s2.8,1.33,2.8,3.56-1.18,3.56-2.8,3.56S363.68,395,363.68,392.76Zm4.84,0c0-1.87-.84-2.9-2.06-2.9s-2,1-2,2.9.83,2.9,2,2.9S368.52,394.63,368.52,392.76Z"/><path class="j" d="M374.83,394.25c0,1.17-.85,2.07-2.54,2.07a3.61,3.61,0,0,1-2.51-.9l.35-.57a3,3,0,0,0,2.16.81c1.16,0,1.8-.54,1.8-1.41s-.59-1.39-1.89-1.39h-.5v-.53l1.94-2.43h-3.57v-.64h4.49v.51l-2,2.49C374.08,392.34,374.83,393.13,374.83,394.25Z"/><path class="j" d="M377.35,303.74v7h-.71v-6.36H375v-.64Z"/><path class="j" d="M379,310.24a.53.53,0,0,1,.53-.54.54.54,0,0,1,.54.54.55.55,0,0,1-.54.55A.54.54,0,0,1,379,310.24Z"/><path class="j" d="M381.05,307.24c0-2.23,1.16-3.56,2.78-3.56s2.8,1.33,2.8,3.56-1.18,3.56-2.8,3.56S381.05,309.47,381.05,307.24Zm4.84,0c0-1.87-.84-2.9-2.06-2.9s-2.05,1-2.05,2.9.83,2.9,2.05,2.9S385.89,309.11,385.89,307.24Z"/><path class="j" d="M392.43,310.1v.64h-4.9v-.51l2.9-2.85c.79-.78.94-1.25.94-1.73,0-.81-.57-1.31-1.64-1.31a2.38,2.38,0,0,0-1.91.78l-.5-.44a3.14,3.14,0,0,1,2.47-1c1.42,0,2.32.72,2.32,1.89a2.88,2.88,0,0,1-1.15,2.19l-2.38,2.34Z"/><path class="j" d="M428.74,370.31v7H428V371h-1.65v-.64Z"/><path class="j" d="M430.42,376.81a.53.53,0,0,1,.53-.54.54.54,0,0,1,.54.54.55.55,0,0,1-.54.55A.54.54,0,0,1,430.42,376.81Z"/><path class="j" d="M432.43,373.81c0-2.23,1.16-3.56,2.78-3.56s2.8,1.33,2.8,3.56-1.18,3.56-2.8,3.56S432.43,376,432.43,373.81Zm4.84,0c0-1.87-.84-2.9-2.06-2.9s-2,1-2,2.9.83,2.9,2,2.9S437.27,375.68,437.27,373.81Z"/><path class="j" d="M441,370.31v7h-.72V371h-1.64v-.64Z"/></svg>