<svg xmlns="http://www.w3.org/2000/svg" xmlns:xlink="http://www.w3.org/1999/xlink" viewBox="0 0 790.58 618.13"><defs><style>.a,.f,.h{fill:none;}.b{fill:#595a5c;}.c{fill:#b6906c;}.d,.g{fill:#fff;}.e{fill:#231f20;}.f{stroke:#000;}.f,.h{stroke-linecap:round;stroke-linejoin:round;stroke-width:0.34px;}.g,.j{fill-rule:evenodd;}.h{stroke:#454545;}.i{clip-path:url(#a);}.k{fill:#58595b;}</style><clipPath id="a"><polygon class="a" points="455.02 166.82 455.02 201.35 385.97 201.35 289.3 201.35 289.3 315.28 240.97 315.28 240.97 451.3 411.86 451.3 411.86 396.06 549.61 396.06 549.61 166.82 455.02 166.82"/></clipPath></defs><path class="b" d="M55.31,597.13H57.1V609.9H55.31Zm.92,6.11h4.09a1.89,1.89,0,0,0,1-.27,1.82,1.82,0,0,0,.68-.77,2.67,2.67,0,0,0,.24-1.16,2.7,2.7,0,0,0-.24-1.16,1.82,1.82,0,0,0-1.7-1H56.23v-1.7h4a4.09,4.09,0,0,1,2,.48A3.45,3.45,0,0,1,63.62,599a4.64,4.64,0,0,1,0,4.11,3.34,3.34,0,0,1-1.35,1.36,4,4,0,0,1-2,.49h-4Z"/><path class="b" d="M67.7,606.33a2.07,2.07,0,0,0,.49,1.48,1.76,1.76,0,0,0,1.37.52,1.89,1.89,0,0,0,1.37-.46,1.79,1.79,0,0,0,.48-1.33l.12,1.91A2.58,2.58,0,0,1,69.06,610a2.89,2.89,0,0,1-2.33-1,4.08,4.08,0,0,1-.82-2.73v-5.55H67.7Zm.22-7.86a1.93,1.93,0,0,1-.56-1.5,2.07,2.07,0,0,1,.56-1.57,2.56,2.56,0,0,1,3.18,0,2.08,2.08,0,0,1,.57,1.56,1.94,1.94,0,0,1-.57,1.5,2.65,2.65,0,0,1-3.18,0Zm2.26-.86a.94.94,0,0,0,.24-.68,1,1,0,0,0-.24-.7.91.91,0,0,0-.67-.25.92.92,0,0,0-.67.25,1,1,0,0,0-.23.7,1,1,0,0,0,.23.68.92.92,0,0,0,.67.24A.9.9,0,0,0,70.18,597.61Zm1.23,3.17h1.78v9.12H71.41Z"/><path class="b" d="M77.1,609.63A2.82,2.82,0,0,1,76,608.36a5.08,5.08,0,0,1-.36-2v-2a5.05,5.05,0,0,1,.36-2,2.71,2.71,0,0,1,1-1.27,3,3,0,0,1,1.65-.44,2.71,2.71,0,0,1,1.48.42,3.22,3.22,0,0,1,1.09,1.19l-.18,1.86a2.19,2.19,0,0,0-.22-1,1.48,1.48,0,0,0-.61-.63,2,2,0,0,0-1-.21,1.71,1.71,0,0,0-1.37.55,2.26,2.26,0,0,0-.49,1.56v2a2.19,2.19,0,0,0,.49,1.54,1.74,1.74,0,0,0,1.37.54,1.93,1.93,0,0,0,1-.23,1.45,1.45,0,0,0,.61-.64,2.25,2.25,0,0,0,.22-1l.12,1.92a2.66,2.66,0,0,1-.89,1.14,2.56,2.56,0,0,1-1.53.45A3.19,3.19,0,0,1,77.1,609.63Zm4-12.5H82.9V609.9H81.11Z"/><path class="b" d="M87.09,609.57a3.09,3.09,0,0,1-1.29-1.36,4.85,4.85,0,0,1-.44-2.15v-1.48a4.71,4.71,0,0,1,.44-2.12,3.12,3.12,0,0,1,1.29-1.35,4.71,4.71,0,0,1,4.06,0,3.12,3.12,0,0,1,1.29,1.35,4.71,4.71,0,0,1,.44,2.12v1.51a4.79,4.79,0,0,1-.44,2.13,3.12,3.12,0,0,1-1.29,1.35,4.62,4.62,0,0,1-4.06,0Zm3.49-1.83a2.43,2.43,0,0,0,.51-1.65v-1.51a2.43,2.43,0,0,0-.51-1.65,1.88,1.88,0,0,0-1.46-.58,1.85,1.85,0,0,0-1.45.58,2.38,2.38,0,0,0-.52,1.65v1.51a2.38,2.38,0,0,0,.52,1.65,1.82,1.82,0,0,0,1.45.59A1.85,1.85,0,0,0,90.58,607.74Z"/><path class="b" d="M95.43,600.78h1.79v9.12H95.43Zm4.42,1.72a2.16,2.16,0,0,0-.83-.15,1.83,1.83,0,0,0-1.33.47,1.79,1.79,0,0,0-.47,1.31L97,602.37a3.32,3.32,0,0,1,1.09-1.27,2.58,2.58,0,0,1,1.48-.45,3.39,3.39,0,0,1,1.13.18,2.62,2.62,0,0,1,.88.53l-1.17,1.58A1.56,1.56,0,0,0,99.85,602.5Z"/><path class="b" d="M102.15,600.78H104l2.81,7.93-1,1.94Zm8.07,0L106.34,612a2.6,2.6,0,0,1-.56,1,1.87,1.87,0,0,1-.84.52,4,4,0,0,1-1.23.16h-.36V612h.36a1.46,1.46,0,0,0,.8-.2,1.74,1.74,0,0,0,.51-.7l3.38-10.31Z"/><path class="b" d="M113.51,609.88a5.76,5.76,0,0,1-1.32-.48,4.89,4.89,0,0,1-1.13-.79l1.06-1.31a5.86,5.86,0,0,0,1.47.85,4.18,4.18,0,0,0,1.44.28,3.11,3.11,0,0,0,1.6-.33,1.1,1.1,0,0,0,.53-1,.79.79,0,0,0-.29-.66,1.66,1.66,0,0,0-.72-.29c-.29,0-.69-.1-1.22-.14h-.15l-.14,0h-.15a6.45,6.45,0,0,1-1.5-.26,2,2,0,0,1-1-.7,2.38,2.38,0,0,1-.41-1.49,3.07,3.07,0,0,1,.39-1.61,2.41,2.41,0,0,1,1.18-1,5.29,5.29,0,0,1,2-.32,6.38,6.38,0,0,1,2.6.52,6.16,6.16,0,0,1,1.13.66l-1.08,1.31a5.59,5.59,0,0,0-1.35-.66,4,4,0,0,0-1.3-.22,2.44,2.44,0,0,0-1.37.31,1.08,1.08,0,0,0-.46.94.64.64,0,0,0,.26.55,1.72,1.72,0,0,0,.66.25c.26,0,.64.07,1.12.1h.34a7.67,7.67,0,0,1,1.63.25,2.24,2.24,0,0,1,1.13.77,2.62,2.62,0,0,1,.45,1.65,2.92,2.92,0,0,1-.42,1.63,2.54,2.54,0,0,1-1.27,1A5.88,5.88,0,0,1,115,610,7.38,7.38,0,0,1,113.51,609.88Z"/><path class="b" d="M126,597.13h1.8V609.9H126Zm2.6,12.5a2.39,2.39,0,0,1-.93-1.16l.13-1.91a2.22,2.22,0,0,0,.21,1,1.48,1.48,0,0,0,.61.63,1.93,1.93,0,0,0,1,.22,1.74,1.74,0,0,0,1.37-.54,2.18,2.18,0,0,0,.49-1.53v-2a2.26,2.26,0,0,0-.49-1.56,1.71,1.71,0,0,0-1.37-.55,2,2,0,0,0-1,.21,1.36,1.36,0,0,0-.61.62,2.12,2.12,0,0,0-.21,1l-.19-1.76a3.37,3.37,0,0,1,1.08-1.24,2.67,2.67,0,0,1,1.49-.43,3,3,0,0,1,1.65.43,2.9,2.9,0,0,1,1.06,1.27,5.1,5.1,0,0,1,.36,2v2a4.94,4.94,0,0,1-.37,2,2.79,2.79,0,0,1-1.08,1.26,3.25,3.25,0,0,1-1.71.44A2.73,2.73,0,0,1,128.57,609.63Z"/><path class="b" d="M134.46,600.78h1.82l2.81,7.93-1,1.94Zm8.07,0L138.65,612a2.6,2.6,0,0,1-.56,1,1.87,1.87,0,0,1-.84.52,4,4,0,0,1-1.23.16h-.36V612H136a1.46,1.46,0,0,0,.8-.2,1.74,1.74,0,0,0,.51-.7l3.37-10.31Z"/><path class="b" d="M143.57,600.78h4.12v1.62h-4.12Zm1.46,8.56a2.77,2.77,0,0,1-.52-1.81v-9.4h1.8v9.42a.84.84,0,0,0,.13.51.46.46,0,0,0,.39.18h.86V610h-1A2,2,0,0,1,145,609.34Z"/><path class="b" d="M151.94,606.33a2.07,2.07,0,0,0,.49,1.48,1.76,1.76,0,0,0,1.37.52,1.91,1.91,0,0,0,1.37-.46,1.79,1.79,0,0,0,.48-1.33l.12,1.91A2.58,2.58,0,0,1,153.3,610a2.89,2.89,0,0,1-2.33-1,4.08,4.08,0,0,1-.82-2.73v-5.55h1.79Zm3.71-5.55h1.78v9.12h-1.78Z"/><rect class="c" x="612.92" y="591.68" width="35.43" height="2.83"/><path class="d" d="M648.48,594.64H612.79v-3.08h35.69ZM613,594.39h35.19v-2.58H613Z"/><rect class="c" x="612.92" y="601.6" width="70.74" height="2.83"/><path class="d" d="M683.78,604.56h-71v-3.08h71ZM613,604.31h70.49v-2.58H613Z"/><rect class="c" x="612.92" y="612.72" width="177.16" height="2.84"/><path class="d" d="M790.21,615.68H612.79V612.6H790.21ZM613,615.43H790v-2.58H613Z"/><path class="e" d="M587.26,596.28h-.8v-4.82l-.81.5v-.83l.81-.53h.8Z"/><path class="e" d="M589,595.91a1.67,1.67,0,0,1-.41-1.19v-2.58A1.65,1.65,0,0,1,589,591a2,2,0,0,1,2.42,0,1.65,1.65,0,0,1,.41,1.19v2.58a1.65,1.65,0,0,1-.41,1.19,2,2,0,0,1-2.42,0Zm1.83-.55a.89.89,0,0,0,.2-.64v-2.58a.89.89,0,0,0-.2-.64.82.82,0,0,0-.62-.22.86.86,0,0,0-.63.22.94.94,0,0,0-.2.64v2.58a.9.9,0,0,0,.21.64,1,1,0,0,0,1.24,0Z"/><path class="e" d="M593.22,595.91a1.67,1.67,0,0,1-.41-1.19v-2.58a1.65,1.65,0,0,1,.41-1.19,2,2,0,0,1,2.42,0,1.61,1.61,0,0,1,.41,1.19v2.58a1.65,1.65,0,0,1-.41,1.19,2,2,0,0,1-2.42,0Zm1.83-.55a.9.9,0,0,0,.21-.64v-2.58a.94.94,0,0,0-.2-.64.86.86,0,0,0-.63-.22.82.82,0,0,0-.62.22.89.89,0,0,0-.2.64v2.58a.89.89,0,0,0,.2.64,1,1,0,0,0,1.24,0Z"/><path class="e" d="M600.1,596.13a1.45,1.45,0,0,1-.6-.6,2.06,2.06,0,0,1-.21-1v-.67a2,2,0,0,1,.21-.94,1.37,1.37,0,0,1,.6-.59,2,2,0,0,1,.95-.21,2.21,2.21,0,0,1,.59.08,1.68,1.68,0,0,1,.51.22,1.54,1.54,0,0,1,.37.35l-.58.52a1.17,1.17,0,0,0-.4-.3,1.13,1.13,0,0,0-.48-.11.94.94,0,0,0-.71.26,1,1,0,0,0-.26.72v.67a1,1,0,0,0,.25.74.94.94,0,0,0,.72.27,1,1,0,0,0,.48-.12,1,1,0,0,0,.4-.32l.58.56a1.38,1.38,0,0,1-.38.34,1.62,1.62,0,0,1-.5.22,2.27,2.27,0,0,1-.59.07A2.12,2.12,0,0,1,600.1,596.13Z"/><path class="e" d="M603.4,592.22h.79v4.06h-.79Zm2.42,1.6a1,1,0,0,0-.21-.67.78.78,0,0,0-.6-.23.81.81,0,0,0-.6.21.73.73,0,0,0-.22.58l-.08-.78a1.46,1.46,0,0,1,.49-.57,1.22,1.22,0,0,1,.67-.2,1.33,1.33,0,0,1,.73.2,1.18,1.18,0,0,1,.46.56,2.4,2.4,0,0,1,.15.89v2.47h-.79Zm2.42,0a.93.93,0,0,0-.22-.67.85.85,0,0,0-.63-.23.72.72,0,0,0-.57.23.9.9,0,0,0-.21.64l-.16-.78a1.61,1.61,0,0,1,.51-.63,1.23,1.23,0,0,1,.69-.22,1.37,1.37,0,0,1,.75.2,1.09,1.09,0,0,1,.47.56,2.21,2.21,0,0,1,.17.89v2.47h-.8Z"/><path class="e" d="M584.33,605.5l2-2.64a1.85,1.85,0,0,0,.27-.47,1.29,1.29,0,0,0,.09-.45h0a.67.67,0,0,0-.2-.53.81.81,0,0,0-.56-.19.76.76,0,0,0-.56.21,1,1,0,0,0-.27.58h-.82a2,2,0,0,1,.29-.83,1.42,1.42,0,0,1,.56-.53,1.67,1.67,0,0,1,.79-.18,1.93,1.93,0,0,1,.87.17,1.21,1.21,0,0,1,.54.51,1.55,1.55,0,0,1,.19.8h0a1.84,1.84,0,0,1-.12.63,2.8,2.8,0,0,1-.35.63l-1.65,2.24h2.15v.76h-3.2Z"/><path class="e" d="M589,605.83a1.67,1.67,0,0,1-.41-1.19v-2.58a1.65,1.65,0,0,1,.41-1.19,2,2,0,0,1,2.42,0,1.65,1.65,0,0,1,.41,1.19v2.58a1.65,1.65,0,0,1-.41,1.19,2,2,0,0,1-2.42,0Zm1.83-.55a.89.89,0,0,0,.2-.64v-2.58a.89.89,0,0,0-.2-.64.82.82,0,0,0-.62-.22.86.86,0,0,0-.63.22.94.94,0,0,0-.19.64v2.58a.89.89,0,0,0,.2.64,1,1,0,0,0,1.24,0Z"/><path class="e" d="M593.22,605.83a1.67,1.67,0,0,1-.41-1.19v-2.58a1.61,1.61,0,0,1,.42-1.19,1.59,1.59,0,0,1,1.2-.42,1.45,1.45,0,0,1,1.62,1.61v2.58a1.61,1.61,0,0,1-.41,1.19,2,2,0,0,1-2.42,0Zm1.84-.55a.94.94,0,0,0,.2-.64v-2.58a.94.94,0,0,0-.2-.64.84.84,0,0,0-.63-.22.82.82,0,0,0-.62.22.89.89,0,0,0-.2.64v2.58a.89.89,0,0,0,.2.64.82.82,0,0,0,.62.22A.86.86,0,0,0,595.06,605.28Z"/><path class="e" d="M600.1,606.05a1.45,1.45,0,0,1-.6-.6,2.06,2.06,0,0,1-.2-1v-.67a2,2,0,0,1,.2-.94,1.37,1.37,0,0,1,.6-.59,2,2,0,0,1,.95-.21,2.35,2.35,0,0,1,.6.08,1.73,1.73,0,0,1,.5.22,1.38,1.38,0,0,1,.37.35l-.58.52a1.08,1.08,0,0,0-.4-.3,1.13,1.13,0,0,0-.48-.11,1,1,0,0,0-.71.26,1,1,0,0,0-.26.72v.67a1,1,0,0,0,.25.74.94.94,0,0,0,.72.27,1.14,1.14,0,0,0,.88-.44l.58.56a1.38,1.38,0,0,1-.38.34,1.62,1.62,0,0,1-.5.22,2.22,2.22,0,0,1-.59.07A2.12,2.12,0,0,1,600.1,606.05Z"/><path class="e" d="M603.4,602.14h.79v4.06h-.79Zm2.42,1.6a1,1,0,0,0-.21-.67.78.78,0,0,0-.6-.23.81.81,0,0,0-.6.21.73.73,0,0,0-.22.58l-.08-.78a1.46,1.46,0,0,1,.49-.57,1.22,1.22,0,0,1,.67-.2,1.3,1.3,0,0,1,.73.2,1.18,1.18,0,0,1,.46.56,2.4,2.4,0,0,1,.16.89v2.47h-.8Zm2.42,0a.93.93,0,0,0-.22-.67.85.85,0,0,0-.63-.23.73.73,0,0,0-.57.23.89.89,0,0,0-.2.64l-.16-.78a1.51,1.51,0,0,1,.5-.63,1.23,1.23,0,0,1,.69-.22,1.35,1.35,0,0,1,.75.2,1.16,1.16,0,0,1,.48.56,2.4,2.4,0,0,1,.16.89v2.47h-.8Z"/><path class="e" d="M585,615.58a1.34,1.34,0,0,1-.54-.49,2,2,0,0,1-.28-.77h.8a.75.75,0,0,0,.25.49.85.85,0,0,0,.54.17.72.72,0,0,0,.59-.25,1.1,1.1,0,0,0,.21-.72v-.48a1.1,1.1,0,0,0-.21-.72.72.72,0,0,0-.59-.25.83.83,0,0,0-.4.11,1.18,1.18,0,0,0-.34.33h-.72v-3h2.89v.76h-2.1V612a1,1,0,0,1,.34-.18.94.94,0,0,1,.37-.07,1.68,1.68,0,0,1,.84.2,1.29,1.29,0,0,1,.53.6,2.07,2.07,0,0,1,.19.94V614a2.25,2.25,0,0,1-.19.94,1.31,1.31,0,0,1-.55.59,1.69,1.69,0,0,1-.86.21A1.74,1.74,0,0,1,585,615.58Z"/><path class="e" d="M589,615.32a1.65,1.65,0,0,1-.41-1.19v-2.58a1.67,1.67,0,0,1,.41-1.19,2,2,0,0,1,2.42,0,1.65,1.65,0,0,1,.41,1.19v2.58a1.64,1.64,0,0,1-.41,1.19,1.92,1.92,0,0,1-2.42,0Zm1.83-.55a.89.89,0,0,0,.2-.64v-2.58a.88.88,0,0,0-.2-.63.78.78,0,0,0-.62-.22.82.82,0,0,0-.63.22.93.93,0,0,0-.2.63v2.58a.9.9,0,0,0,.21.64,1,1,0,0,0,1.24,0Z"/><path class="e" d="M593.22,615.32a1.65,1.65,0,0,1-.41-1.19v-2.58a1.67,1.67,0,0,1,.41-1.19,2,2,0,0,1,2.42,0,1.61,1.61,0,0,1,.41,1.19v2.58a1.64,1.64,0,0,1-.41,1.19,1.92,1.92,0,0,1-2.42,0Zm1.83-.55a.9.9,0,0,0,.21-.64v-2.58a.93.93,0,0,0-.2-.63.82.82,0,0,0-.63-.22.78.78,0,0,0-.62.22.88.88,0,0,0-.2.63v2.58a.89.89,0,0,0,.2.64,1,1,0,0,0,1.24,0Z"/><path class="e" d="M600.1,615.54a1.45,1.45,0,0,1-.6-.6,2,2,0,0,1-.21-1v-.67a2,2,0,0,1,.21-.94,1.45,1.45,0,0,1,.6-.6,2,2,0,0,1,.95-.2,2.22,2.22,0,0,1,.59.07,2,2,0,0,1,.51.22,1.76,1.76,0,0,1,.37.35l-.58.52a1.17,1.17,0,0,0-.4-.3,1.13,1.13,0,0,0-.48-.11.94.94,0,0,0-.71.26,1,1,0,0,0-.26.73V614a1.07,1.07,0,0,0,.25.74,1,1,0,0,0,.72.26,1.13,1.13,0,0,0,.48-.11,1.26,1.26,0,0,0,.4-.32l.58.55a1.42,1.42,0,0,1-.38.35,1.88,1.88,0,0,1-.5.21,2.27,2.27,0,0,1-.59.08A2,2,0,0,1,600.1,615.54Z"/><path class="e" d="M603.4,611.63h.79v4.06h-.79Zm2.42,1.6a1,1,0,0,0-.21-.66.75.75,0,0,0-.6-.24.81.81,0,0,0-.6.21.75.75,0,0,0-.22.58l-.08-.78a1.5,1.5,0,0,1,.49-.56,1.15,1.15,0,0,1,.67-.2,1.32,1.32,0,0,1,.73.19,1.28,1.28,0,0,1,.46.56,2.42,2.42,0,0,1,.15.9v2.46h-.79Zm2.42,0a.91.91,0,0,0-.22-.66.82.82,0,0,0-.63-.24.72.72,0,0,0-.57.23.9.9,0,0,0-.21.64l-.16-.78a1.51,1.51,0,0,1,.51-.62,1.16,1.16,0,0,1,.69-.22,1.37,1.37,0,0,1,.75.19,1.18,1.18,0,0,1,.47.56,2.22,2.22,0,0,1,.17.9v2.46h-.8Z"/><path class="c" d="M23.49,613.89A12.92,12.92,0,1,1,36.4,601,12.93,12.93,0,0,1,23.49,613.89Zm0-24.83A11.92,11.92,0,1,0,35.4,601,11.93,11.93,0,0,0,23.49,589.06Z"/><polygon class="d" points="35.77 588.74 9.42 600.98 35.77 613.21 32.02 600.98 35.77 588.74"/><path class="c" d="M36.58,614.14,8.23,601l28.35-13.17-4,13.17ZM10.61,601,35,612.29,31.5,601,35,589.66Z"/><path class="c" d="M2.52,605.19a5,5,0,0,1-1.11-.38,4.4,4.4,0,0,1-1-.64l.81-1a3.72,3.72,0,0,0,1.16.69,4.08,4.08,0,0,0,1.38.23,2.73,2.73,0,0,0,1.55-.38,1.17,1.17,0,0,0,.55-1.05h0a1.12,1.12,0,0,0-.25-.77,1.44,1.44,0,0,0-.64-.42,8.23,8.23,0,0,0-1-.25H3.89l-.1,0a9.48,9.48,0,0,1-1.5-.36,2.08,2.08,0,0,1-1-.73,2.42,2.42,0,0,1-.41-1.51h0a2.77,2.77,0,0,1,.38-1.47,2.44,2.44,0,0,1,1.12-.92,4.48,4.48,0,0,1,1.77-.32,4.6,4.6,0,0,1,1,.11,4.9,4.9,0,0,1,1.86.86l-.73,1a4.61,4.61,0,0,0-1-.58,3,3,0,0,0-1.06-.2,2.44,2.44,0,0,0-1.46.38,1.24,1.24,0,0,0-.53,1.07h0a1,1,0,0,0,.27.75,1.74,1.74,0,0,0,.67.4,9.3,9.3,0,0,0,1.12.27h.24a7.93,7.93,0,0,1,1.4.41,2.22,2.22,0,0,1,.94.76,2.4,2.4,0,0,1,.38,1.43h0a2.62,2.62,0,0,1-.4,1.45,2.54,2.54,0,0,1-1.16.91,4.8,4.8,0,0,1-1.83.31A6.44,6.44,0,0,1,2.52,605.19Z"/><rect class="c" x="612.5" y="600.68" width="1" height="4.68"/><rect class="c" x="612.5" y="590.76" width="1" height="4.68"/><rect class="c" x="612.5" y="611.45" width="1" height="5.24"/><rect class="c" x="789.58" y="611.45" width="1" height="5.24"/><rect class="c" x="682.59" y="600.68" width="1" height="4.68"/><rect class="c" x="647.3" y="590.76" width="1" height="4.68"/><rect class="a" width="790.34" height="618.13"/><line class="f" x1="541.33" y1="326.67" x2="541.33" y2="180.64"/><rect class="d" x="303.11" y="326.26" width="79.75" height="14.22"/><line class="f" x1="303.11" y1="326.26" x2="303.11" y2="340.48"/><line class="f" x1="382.86" y1="326.26" x2="303.11" y2="326.26"/><line class="f" x1="382.86" y1="340.48" x2="382.86" y2="326.26"/><line class="f" x1="303.11" y1="340.48" x2="382.86" y2="340.48"/><line class="f" x1="255.12" y1="451.3" x2="255.12" y2="451.3"/><line class="f" x1="371.82" y1="451.3" x2="255.12" y2="451.3"/><line class="f" x1="371.82" y1="451.3" x2="371.82" y2="451.3"/><line class="f" x1="391.84" y1="451.3" x2="391.84" y2="451.3"/><line class="f" x1="405.65" y1="451.3" x2="391.84" y2="451.3"/><line class="f" x1="405.65" y1="451.3" x2="405.65" y2="451.3"/><rect class="d" x="385.28" y="380.87" width="25.55" height="6.9"/><line class="f" x1="385.28" y1="380.87" x2="385.28" y2="387.78"/><line class="f" x1="410.83" y1="380.87" x2="385.28" y2="380.87"/><line class="f" x1="410.83" y1="387.78" x2="410.83" y2="380.87"/><line class="f" x1="385.28" y1="387.78" x2="410.83" y2="387.78"/><rect class="d" x="385.28" y="329.09" width="25.89" height="17.26"/><line class="f" x1="385.28" y1="329.09" x2="385.28" y2="346.35"/><line class="f" x1="411.17" y1="329.09" x2="385.28" y2="329.09"/><line class="f" x1="411.17" y1="346.35" x2="411.17" y2="329.09"/><line class="f" x1="385.28" y1="346.35" x2="411.17" y2="346.35"/><rect class="d" x="509.39" y="355.84" width="31.07" height="31.07"/><line class="f" x1="509.39" y1="355.84" x2="509.39" y2="386.91"/><line class="f" x1="540.46" y1="355.84" x2="509.39" y2="355.84"/><line class="f" x1="540.46" y1="386.91" x2="540.46" y2="355.84"/><line class="f" x1="509.39" y1="386.91" x2="540.46" y2="386.91"/><polygon class="g" points="458.13 305.55 520.27 305.55 520.27 180.98 540.98 180.98 540.98 304.57 540.98 326.26 458.13 326.26 458.13 305.55"/><line class="f" x1="458.12" y1="305.55" x2="520.27" y2="305.55"/><line class="f" x1="520.27" y1="305.55" x2="520.27" y2="180.98"/><line class="f" x1="520.27" y1="180.98" x2="540.98" y2="180.98"/><line class="f" x1="540.98" y1="180.98" x2="540.98" y2="304.57"/><line class="f" x1="540.98" y1="304.57" x2="540.98" y2="326.26"/><line class="f" x1="540.98" y1="326.26" x2="458.12" y2="326.26"/><line class="f" x1="458.12" y1="326.26" x2="458.12" y2="305.55"/><line class="f" x1="303.11" y1="232.42" x2="303.11" y2="215.16"/><line class="f" x1="520.61" y1="180.64" x2="541.33" y2="180.64"/><line class="f" x1="254.78" y1="346.35" x2="254.78" y2="401.59"/><line class="f" x1="254.78" y1="443.02" x2="254.78" y2="401.59"/><line class="f" x1="254.78" y1="346.35" x2="254.78" y2="329.09"/><line class="f" x1="254.78" y1="443.02" x2="403.58" y2="443.02"/><line class="f" x1="389.42" y1="451.3" x2="375.61" y2="451.3"/><line class="f" x1="375.61" y1="451.3" x2="375.61" y2="451.3"/><line class="f" x1="389.42" y1="451.3" x2="389.42" y2="451.3"/><line class="f" x1="468.83" y1="180.64" x2="486.09" y2="180.64"/><line class="f" x1="516.47" y1="175.8" x2="490.23" y2="175.8"/><line class="f" x1="461.92" y1="173.73" x2="486.09" y2="173.73"/><line class="f" x1="520.61" y1="173.73" x2="549.61" y2="173.73"/><line class="f" x1="289.3" y1="315.28" x2="289.3" y2="292.84"/><line class="f" x1="289.3" y1="234.15" x2="289.3" y2="201.35"/><line class="f" x1="240.97" y1="451.3" x2="240.97" y2="399.86"/><line class="f" x1="240.97" y1="348.07" x2="240.97" y2="315.28"/><line class="f" x1="541.33" y1="387.78" x2="541.33" y2="354.98"/><line class="f" x1="541.33" y1="351.53" x2="541.33" y2="329.09"/><line class="f" x1="391.84" y1="451.3" x2="391.84" y2="451.3"/><line class="f" x1="254.78" y1="451.3" x2="254.78" y2="451.3"/><line class="f" x1="403.58" y1="443.02" x2="403.58" y2="390.19"/><line class="f" x1="411.86" y1="443.02" x2="411.86" y2="396.06"/><line class="f" x1="247.87" y1="451.3" x2="247.87" y2="401.59"/><line class="f" x1="247.87" y1="346.35" x2="247.87" y2="322.18"/><line class="f" x1="303.11" y1="329.09" x2="303.11" y2="294.56"/><line class="f" x1="296.21" y1="322.18" x2="296.21" y2="294.56"/><line class="f" x1="296.21" y1="232.42" x2="296.21" y2="208.25"/><line class="f" x1="455.02" y1="201.35" x2="455.02" y2="166.83"/><line class="f" x1="392.87" y1="215.16" x2="392.87" y2="208.26"/><line class="f" x1="468.83" y1="215.16" x2="468.83" y2="180.64"/><line class="f" x1="486.09" y1="180.64" x2="486.09" y2="173.73"/><line class="f" x1="487.82" y1="173.73" x2="487.82" y2="166.83"/><line class="f" x1="520.61" y1="180.64" x2="520.61" y2="173.73"/><line class="f" x1="518.89" y1="173.73" x2="518.89" y2="166.83"/><line class="f" x1="461.92" y1="208.25" x2="461.92" y2="173.73"/><line class="f" x1="455.02" y1="201.35" x2="453.29" y2="201.35"/><line class="f" x1="385.97" y1="201.35" x2="289.3" y2="201.35"/><line class="f" x1="394.6" y1="201.35" x2="385.97" y2="201.35"/><line class="f" x1="468.83" y1="215.16" x2="455.02" y2="215.16"/><line class="f" x1="392.87" y1="215.16" x2="303.11" y2="215.16"/><line class="f" x1="461.92" y1="208.25" x2="455.02" y2="208.25"/><line class="f" x1="392.87" y1="208.25" x2="296.21" y2="208.25"/><line class="f" x1="289.3" y1="315.28" x2="240.97" y2="315.28"/><line class="f" x1="303.11" y1="294.56" x2="296.21" y2="294.56"/><line class="f" x1="303.11" y1="232.42" x2="296.21" y2="232.42"/><line class="f" x1="300.7" y1="329.09" x2="254.78" y2="329.09"/><line class="f" x1="296.21" y1="322.18" x2="247.87" y2="322.18"/><line class="f" x1="289.3" y1="292.84" x2="289.3" y2="234.15"/><line class="f" x1="303.11" y1="294.56" x2="303.11" y2="232.42"/><line class="f" x1="486.09" y1="180.64" x2="520.61" y2="180.64"/><line class="f" x1="392.87" y1="215.16" x2="427.4" y2="215.16"/><line class="f" x1="385.28" y1="329.09" x2="415.32" y2="329.09"/><line class="f" x1="446.39" y1="329.09" x2="449.84" y2="329.09"/><line class="f" x1="452.26" y1="329.09" x2="510.26" y2="329.09"/><line class="f" x1="513.71" y1="329.09" x2="541.33" y2="329.09"/><line class="f" x1="300.7" y1="342.9" x2="382.86" y2="342.9"/><line class="f" x1="303.11" y1="340.48" x2="382.86" y2="340.48"/><line class="f" x1="382.86" y1="326.67" x2="415.32" y2="326.67"/><line class="f" x1="446.39" y1="326.67" x2="541.33" y2="326.67"/><line class="f" x1="411.86" y1="396.06" x2="413.59" y2="396.06"/><line class="f" x1="449.84" y1="396.06" x2="549.61" y2="396.06"/><line class="f" x1="403.58" y1="387.78" x2="411.86" y2="387.78"/><line class="f" x1="452.26" y1="387.78" x2="541.33" y2="387.78"/><line class="f" x1="510.26" y1="354.98" x2="541.33" y2="354.98"/><line class="f" x1="513.71" y1="351.53" x2="541.33" y2="351.53"/><line class="f" x1="391.84" y1="451.3" x2="411.86" y2="451.3"/><line class="f" x1="382.86" y1="390.19" x2="382.86" y2="379.15"/><line class="f" x1="382.86" y1="348.07" x2="382.86" y2="342.9"/><line class="f" x1="385.28" y1="387.78" x2="385.28" y2="379.15"/><line class="f" x1="385.28" y1="348.07" x2="385.28" y2="329.09"/><line class="f" x1="449.84" y1="387.78" x2="449.84" y2="384.32"/><line class="f" x1="449.84" y1="356.71" x2="449.84" y2="329.09"/><line class="f" x1="452.26" y1="387.78" x2="452.26" y2="384.32"/><line class="f" x1="452.26" y1="356.71" x2="452.26" y2="329.09"/><line class="f" x1="541.33" y1="329.09" x2="541.33" y2="326.67"/><line class="f" x1="541.33" y1="180.64" x2="549.61" y2="180.64"/><line class="f" x1="303.11" y1="329.09" x2="303.11" y2="340.48"/><line class="f" x1="300.7" y1="329.09" x2="300.7" y2="342.9"/><line class="f" x1="382.86" y1="348.07" x2="385.28" y2="348.07"/><line class="f" x1="382.86" y1="379.15" x2="385.28" y2="379.15"/><line class="f" x1="449.84" y1="384.32" x2="452.26" y2="384.32"/><line class="f" x1="449.84" y1="356.71" x2="452.26" y2="356.71"/><line class="f" x1="446.39" y1="392.09" x2="415.31" y2="392.09"/><line class="f" x1="446.39" y1="396.06" x2="415.31" y2="396.06"/><line class="f" x1="446.39" y1="392.09" x2="446.39" y2="361.02"/><line class="f" x1="446.39" y1="396.06" x2="446.39" y2="392.09"/><line class="f" x1="415.32" y1="392.09" x2="415.32" y2="396.06"/><line class="f" x1="415.32" y1="392.09" x2="413.59" y2="392.09"/><line class="f" x1="415.32" y1="396.06" x2="413.59" y2="396.06"/><line class="f" x1="448.11" y1="392.09" x2="446.39" y2="392.09"/><line class="f" x1="448.11" y1="396.06" x2="446.39" y2="396.06"/><line class="f" x1="411.86" y1="387.78" x2="411.86" y2="392.09"/><line class="f" x1="411.86" y1="392.09" x2="411.86" y2="396.06"/><line class="f" x1="449.84" y1="387.78" x2="449.84" y2="392.09"/><line class="f" x1="449.84" y1="392.09" x2="449.84" y2="396.06"/><line class="f" x1="413.59" y1="392.09" x2="413.59" y2="396.06"/><line class="f" x1="448.11" y1="392.09" x2="448.11" y2="396.06"/><line class="f" x1="448.11" y1="392.09" x2="449.84" y2="392.09"/><line class="f" x1="413.59" y1="392.09" x2="411.86" y2="392.09"/><line class="f" x1="411.86" y1="387.78" x2="418.77" y2="387.78"/><line class="f" x1="422.57" y1="387.78" x2="423.34" y2="387.78"/><line class="f" x1="427.14" y1="387.78" x2="427.92" y2="387.78"/><line class="f" x1="431.71" y1="387.78" x2="438.62" y2="387.78"/><line class="f" x1="442.42" y1="387.78" x2="442.93" y2="387.78"/><line class="f" x1="442.93" y1="387.78" x2="449.84" y2="387.78"/><line class="f" x1="446.39" y1="329.09" x2="446.39" y2="326.67"/><line class="f" x1="415.32" y1="329.09" x2="415.32" y2="326.67"/><line class="f" x1="411.86" y1="446.99" x2="411.86" y2="443.02"/><line class="f" x1="411.86" y1="446.99" x2="411.86" y2="451.3"/><line class="f" x1="372.16" y1="451.3" x2="372.16" y2="451.3"/><line class="f" x1="389.42" y1="451.3" x2="391.84" y2="451.3"/><line class="f" x1="372.16" y1="451.3" x2="375.61" y2="451.3"/><line class="f" x1="385.28" y1="387.78" x2="403.58" y2="387.78"/><line class="f" x1="382.86" y1="390.19" x2="403.58" y2="390.19"/><line class="f" x1="382.86" y1="340.48" x2="382.86" y2="326.67"/><line class="f" x1="247.87" y1="348.07" x2="240.97" y2="348.07"/><line class="f" x1="247.87" y1="399.86" x2="240.97" y2="399.86"/><line class="f" x1="240.97" y1="399.86" x2="240.97" y2="348.07"/><line class="f" x1="403.58" y1="390.19" x2="403.58" y2="387.78"/><line class="f" x1="254.78" y1="443.02" x2="254.78" y2="451.3"/><line class="f" x1="300.7" y1="329.09" x2="303.11" y2="329.09"/><line class="f" x1="449.84" y1="387.78" x2="452.26" y2="387.78"/><line class="f" x1="449.84" y1="396.06" x2="448.11" y2="396.06"/><line class="f" x1="247.87" y1="346.35" x2="254.78" y2="346.35"/><line class="f" x1="247.87" y1="401.59" x2="254.78" y2="401.59"/><line class="f" x1="247.87" y1="348.07" x2="247.87" y2="346.35"/><line class="f" x1="247.87" y1="401.59" x2="247.87" y2="399.86"/><line class="f" x1="296.21" y1="234.15" x2="289.3" y2="234.15"/><line class="f" x1="296.21" y1="234.15" x2="296.21" y2="232.42"/><line class="f" x1="296.21" y1="292.84" x2="289.3" y2="292.84"/><line class="f" x1="296.21" y1="294.56" x2="296.21" y2="292.84"/><line class="f" x1="487.82" y1="173.73" x2="486.09" y2="173.73"/><line class="f" x1="520.61" y1="173.73" x2="518.89" y2="173.73"/><line class="f" x1="394.6" y1="208.25" x2="394.6" y2="201.35"/><line class="f" x1="394.6" y1="208.25" x2="392.88" y2="208.25"/><line class="f" x1="251.33" y1="350.49" x2="251.33" y2="397.44"/><line class="f" x1="248.56" y1="397.44" x2="248.56" y2="350.49"/><line class="f" x1="249.95" y1="350.49" x2="249.95" y2="371.9"/><line class="f" x1="249.95" y1="376.04" x2="249.95" y2="397.44"/><line class="f" x1="516.47" y1="177.18" x2="490.23" y2="177.18"/><line class="f" x1="490.23" y1="174.42" x2="516.47" y2="174.42"/><line class="f" x1="248.56" y1="376.04" x2="251.33" y2="376.04"/><line class="f" x1="248.56" y1="371.9" x2="251.33" y2="371.9"/><line class="f" x1="299.66" y1="236.56" x2="299.66" y2="290.42"/><line class="f" x1="296.9" y1="290.42" x2="296.9" y2="236.56"/><line class="f" x1="298.28" y1="236.56" x2="298.28" y2="261.42"/><line class="f" x1="298.28" y1="265.56" x2="298.28" y2="290.42"/><line class="f" x1="296.9" y1="265.56" x2="299.66" y2="265.56"/><line class="f" x1="296.9" y1="261.42" x2="299.66" y2="261.42"/><line class="f" x1="421.87" y1="211.71" x2="397.02" y2="211.71"/><line class="f" x1="453.29" y1="201.35" x2="394.6" y2="201.35"/><line class="f" x1="455.02" y1="215.16" x2="455.02" y2="208.26"/><line class="f" x1="453.29" y1="208.25" x2="453.29" y2="201.35"/><line class="f" x1="455.02" y1="208.25" x2="453.29" y2="208.25"/><line class="f" x1="427.4" y1="215.16" x2="455.02" y2="215.16"/><line class="f" x1="510.26" y1="354.98" x2="510.26" y2="351.53"/><line class="f" x1="510.26" y1="354.98" x2="510.26" y2="329.09"/><line class="f" x1="513.71" y1="351.53" x2="513.71" y2="329.09"/><line class="f" x1="541.33" y1="351.53" x2="541.33" y2="354.98"/><line class="f" x1="397.02" y1="208.94" x2="421.88" y2="208.94"/><line class="f" x1="421.87" y1="210.33" x2="397.02" y2="210.33"/><line class="f" x1="450.87" y1="211.71" x2="426.02" y2="211.71"/><line class="f" x1="426.02" y1="208.94" x2="450.87" y2="208.94"/><line class="f" x1="450.87" y1="210.33" x2="426.02" y2="210.33"/><line class="f" x1="444.66" y1="326.67" x2="417.04" y2="326.67"/><line class="f" x1="444.66" y1="326.67" x2="444.66" y2="299.05"/><line class="f" x1="444.66" y1="329.08" x2="444.66" y2="326.67"/><line class="f" x1="417.04" y1="326.67" x2="417.04" y2="329.08"/><line class="f" x1="417.04" y1="326.67" x2="415.32" y2="326.67"/><line class="f" x1="417.04" y1="329.08" x2="415.32" y2="329.08"/><line class="f" x1="446.39" y1="326.67" x2="444.66" y2="326.67"/><line class="f" x1="446.39" y1="329.08" x2="444.66" y2="329.08"/><line class="f" x1="444.66" y1="329.08" x2="437.76" y2="329.08"/><line class="f" x1="433.96" y1="329.08" x2="433.18" y2="329.08"/><line class="f" x1="429.38" y1="329.08" x2="428.61" y2="329.08"/><line class="f" x1="424.81" y1="329.08" x2="423.95" y2="329.08"/><line class="f" x1="423.95" y1="329.08" x2="417.04" y2="329.08"/><line class="f" x1="444.66" y1="326.67" x2="444.66" y2="325.8"/><line class="f" x1="444.66" y1="325.8" x2="448.11" y2="325.8"/><line class="f" x1="448.11" y1="325.8" x2="448.11" y2="326.67"/><line class="f" x1="444.66" y1="329.08" x2="444.66" y2="329.95"/><line class="f" x1="444.66" y1="329.95" x2="448.11" y2="329.95"/><line class="f" x1="448.11" y1="329.95" x2="448.11" y2="329.08"/><line class="f" x1="417.04" y1="325.8" x2="413.59" y2="325.8"/><line class="f" x1="413.59" y1="325.8" x2="413.59" y2="326.67"/><line class="f" x1="417.04" y1="329.08" x2="417.04" y2="329.95"/><line class="f" x1="417.04" y1="329.95" x2="413.59" y2="329.95"/><line class="f" x1="413.59" y1="329.95" x2="413.59" y2="329.08"/><line class="f" x1="452.26" y1="382.6" x2="452.26" y2="358.43"/><line class="f" x1="452.26" y1="382.6" x2="476.42" y2="382.6"/><line class="f" x1="449.84" y1="382.6" x2="452.26" y2="382.6"/><line class="f" x1="452.26" y1="358.43" x2="449.84" y2="358.43"/><line class="f" x1="452.26" y1="358.43" x2="452.26" y2="356.71"/><line class="f" x1="449.84" y1="358.43" x2="449.84" y2="356.71"/><line class="f" x1="452.26" y1="384.32" x2="452.26" y2="382.6"/><line class="f" x1="449.84" y1="384.32" x2="449.84" y2="382.6"/><line class="f" x1="449.84" y1="382.6" x2="449.84" y2="375.69"/><line class="f" x1="449.84" y1="371.9" x2="449.84" y2="371.12"/><line class="f" x1="449.84" y1="367.32" x2="449.84" y2="366.54"/><line class="f" x1="449.84" y1="365.34" x2="449.84" y2="358.43"/><line class="f" x1="452.26" y1="382.6" x2="453.12" y2="382.6"/><line class="f" x1="453.12" y1="382.6" x2="453.12" y2="386.05"/><line class="f" x1="453.12" y1="386.05" x2="452.26" y2="386.05"/><line class="f" x1="449.84" y1="382.6" x2="448.98" y2="382.6"/><line class="f" x1="448.98" y1="382.6" x2="448.98" y2="386.05"/><line class="f" x1="448.98" y1="386.05" x2="449.84" y2="386.05"/><line class="f" x1="453.12" y1="358.43" x2="453.12" y2="354.98"/><line class="f" x1="453.12" y1="354.98" x2="452.26" y2="354.98"/><line class="f" x1="449.84" y1="358.43" x2="448.98" y2="358.43"/><line class="f" x1="448.98" y1="358.43" x2="448.98" y2="354.98"/><line class="f" x1="448.98" y1="354.98" x2="449.84" y2="354.98"/><line class="f" x1="382.86" y1="349.8" x2="382.86" y2="377.42"/><line class="f" x1="382.86" y1="349.8" x2="355.24" y2="349.8"/><line class="f" x1="385.28" y1="349.8" x2="382.86" y2="349.8"/><line class="f" x1="382.86" y1="377.42" x2="385.28" y2="377.42"/><line class="f" x1="382.86" y1="377.42" x2="382.86" y2="379.15"/><line class="f" x1="385.28" y1="377.42" x2="385.28" y2="379.15"/><line class="f" x1="382.86" y1="348.07" x2="382.86" y2="349.8"/><line class="f" x1="385.28" y1="348.07" x2="385.28" y2="349.8"/><line class="f" x1="385.28" y1="349.8" x2="385.28" y2="356.71"/><line class="f" x1="385.28" y1="360.5" x2="385.28" y2="361.28"/><line class="f" x1="385.28" y1="365.08" x2="385.28" y2="365.85"/><line class="f" x1="385.28" y1="369.65" x2="385.28" y2="370.52"/><line class="f" x1="385.28" y1="370.52" x2="385.28" y2="377.42"/><line class="f" x1="382.86" y1="349.8" x2="382" y2="349.8"/><line class="f" x1="382" y1="349.8" x2="382" y2="346.35"/><line class="f" x1="382" y1="346.35" x2="382.86" y2="346.35"/><line class="f" x1="385.28" y1="349.8" x2="386.14" y2="349.8"/><line class="f" x1="386.14" y1="349.8" x2="386.14" y2="346.35"/><line class="f" x1="386.14" y1="346.35" x2="385.28" y2="346.35"/><line class="f" x1="382" y1="377.42" x2="382" y2="380.87"/><line class="f" x1="382" y1="380.87" x2="382.86" y2="380.87"/><line class="f" x1="385.28" y1="377.42" x2="386.14" y2="377.42"/><line class="f" x1="386.14" y1="377.42" x2="386.14" y2="380.87"/><line class="f" x1="386.14" y1="380.87" x2="385.28" y2="380.87"/><line class="f" x1="541.33" y1="387.78" x2="541.33" y2="396.06"/><line class="f" x1="510.26" y1="351.53" x2="513.71" y2="351.53"/><line class="f" x1="510.26" y1="334.26" x2="513.71" y2="334.26"/><line class="f" x1="510.26" y1="329.09" x2="513.71" y2="329.09"/><line class="f" x1="452.26" y1="334.26" x2="510.26" y2="334.26"/><line class="f" x1="254.78" y1="451.3" x2="372.16" y2="451.3"/><line class="f" x1="541.33" y1="326.67" x2="541.33" y2="180.64"/><line class="h" x1="375.61" y1="451.3" x2="381.83" y2="451.3"/><line class="h" x1="383.38" y1="451.3" x2="383.64" y2="451.3"/><line class="h" x1="385.19" y1="451.3" x2="385.45" y2="451.3"/><line class="h" x1="387.01" y1="451.3" x2="389.42" y2="451.3"/><line class="f" x1="248.56" y1="349.11" x2="247.87" y2="349.11"/><line class="f" x1="247.87" y1="349.11" x2="247.87" y2="346.35"/><line class="f" x1="247.87" y1="346.35" x2="250.64" y2="346.35"/><line class="f" x1="250.64" y1="346.35" x2="250.64" y2="347.73"/><line class="f" x1="251.33" y1="347.73" x2="251.33" y2="350.49"/><line class="f" x1="251.33" y1="350.49" x2="248.56" y2="350.49"/><line class="f" x1="248.56" y1="350.49" x2="248.56" y2="347.73"/><line class="f" x1="248.56" y1="347.73" x2="251.33" y2="347.73"/><line class="f" x1="248.56" y1="398.83" x2="247.87" y2="398.83"/><line class="f" x1="247.87" y1="398.83" x2="247.87" y2="401.59"/><line class="f" x1="247.87" y1="401.59" x2="250.64" y2="401.59"/><line class="f" x1="250.64" y1="401.59" x2="250.64" y2="400.21"/><line class="f" x1="251.33" y1="400.21" x2="251.33" y2="397.44"/><line class="f" x1="251.33" y1="397.44" x2="248.56" y2="397.44"/><line class="f" x1="248.56" y1="397.44" x2="248.56" y2="400.21"/><line class="f" x1="248.56" y1="400.21" x2="251.33" y2="400.21"/><line class="f" x1="517.85" y1="174.42" x2="517.85" y2="173.73"/><line class="f" x1="517.85" y1="173.73" x2="520.61" y2="173.73"/><line class="f" x1="520.61" y1="173.73" x2="520.61" y2="176.49"/><line class="f" x1="520.61" y1="176.49" x2="519.23" y2="176.49"/><line class="f" x1="519.23" y1="177.18" x2="516.47" y2="177.18"/><line class="f" x1="516.47" y1="177.18" x2="516.47" y2="174.42"/><line class="f" x1="516.47" y1="174.42" x2="519.23" y2="174.42"/><line class="f" x1="519.23" y1="174.42" x2="519.23" y2="177.18"/><line class="f" x1="488.85" y1="174.42" x2="488.85" y2="173.73"/><line class="f" x1="488.85" y1="173.73" x2="486.09" y2="173.73"/><line class="f" x1="486.09" y1="173.73" x2="486.09" y2="176.49"/><line class="f" x1="486.09" y1="176.49" x2="487.47" y2="176.49"/><line class="f" x1="487.47" y1="177.18" x2="490.23" y2="177.18"/><line class="f" x1="490.23" y1="177.18" x2="490.23" y2="174.42"/><line class="f" x1="490.23" y1="174.42" x2="487.47" y2="174.42"/><line class="f" x1="487.47" y1="174.42" x2="487.47" y2="177.18"/><line class="f" x1="296.9" y1="235.18" x2="296.21" y2="235.18"/><line class="f" x1="296.21" y1="235.18" x2="296.21" y2="232.42"/><line class="f" x1="296.21" y1="232.42" x2="298.97" y2="232.42"/><line class="f" x1="298.97" y1="232.42" x2="298.97" y2="233.8"/><line class="f" x1="299.66" y1="233.8" x2="299.66" y2="236.56"/><line class="f" x1="299.66" y1="236.56" x2="296.9" y2="236.56"/><line class="f" x1="296.9" y1="236.56" x2="296.9" y2="233.8"/><line class="f" x1="296.9" y1="233.8" x2="299.66" y2="233.8"/><line class="f" x1="296.9" y1="291.8" x2="296.21" y2="291.8"/><line class="f" x1="296.21" y1="291.8" x2="296.21" y2="294.56"/><line class="f" x1="296.21" y1="294.56" x2="298.97" y2="294.56"/><line class="f" x1="298.97" y1="294.56" x2="298.97" y2="293.18"/><line class="f" x1="299.66" y1="293.18" x2="299.66" y2="290.42"/><line class="f" x1="299.66" y1="290.42" x2="296.9" y2="290.42"/><line class="f" x1="296.9" y1="290.42" x2="296.9" y2="293.18"/><line class="f" x1="296.9" y1="293.18" x2="299.66" y2="293.18"/><line class="f" x1="426.02" y1="211.71" x2="421.87" y2="211.71"/><line class="f" x1="421.87" y1="211.71" x2="421.87" y2="208.94"/><line class="f" x1="421.87" y1="208.94" x2="426.02" y2="208.94"/><line class="f" x1="426.02" y1="208.94" x2="426.02" y2="211.71"/><line class="f" x1="395.64" y1="208.94" x2="395.64" y2="208.25"/><line class="f" x1="395.64" y1="208.25" x2="392.87" y2="208.25"/><line class="f" x1="392.87" y1="208.25" x2="392.87" y2="211.02"/><line class="f" x1="392.87" y1="211.02" x2="394.26" y2="211.02"/><line class="f" x1="394.26" y1="211.71" x2="397.02" y2="211.71"/><line class="f" x1="397.02" y1="211.71" x2="397.02" y2="208.94"/><line class="f" x1="397.02" y1="208.94" x2="394.26" y2="208.94"/><line class="f" x1="394.26" y1="208.94" x2="394.26" y2="211.71"/><line class="f" x1="453.64" y1="211.71" x2="450.88" y2="211.71"/><line class="f" x1="450.87" y1="211.71" x2="450.87" y2="208.94"/><line class="f" x1="450.87" y1="208.94" x2="453.64" y2="208.94"/><line class="f" x1="453.64" y1="208.94" x2="453.64" y2="211.71"/><line class="f" x1="452.26" y1="208.94" x2="452.26" y2="208.25"/><line class="f" x1="452.26" y1="208.25" x2="455.02" y2="208.25"/><line class="f" x1="455.02" y1="208.25" x2="455.02" y2="211.02"/><line class="f" x1="455.02" y1="211.02" x2="453.64" y2="211.02"/><g class="i"><path class="f" d="M415.32,392.09A31.07,31.07,0,0,1,446.39,361"/><path class="f" d="M446.39,478.06A31.07,31.07,0,0,1,415.31,447"/><path class="f" d="M417,326.67a27.61,27.61,0,0,1,27.62-27.62"/><path class="f" d="M452.26,358.43a24.17,24.17,0,0,1,24.16,24.17"/><path class="f" d="M382.86,377.42a27.62,27.62,0,0,1-27.62-27.62"/></g><line class="f" x1="513.71" y1="329.09" x2="513.71" y2="351.53"/><line class="f" x1="513.71" y1="351.53" x2="541.33" y2="351.53"/><line class="f" x1="541.33" y1="351.53" x2="517.16" y2="348.07"/><line class="f" x1="517.16" y1="348.07" x2="513.71" y2="329.09"/><line class="f" x1="375.61" y1="451.3" x2="375.61" y2="451.3"/><line class="f" x1="375.61" y1="451.3" x2="375.61" y2="451.3"/><line class="f" x1="520.61" y1="180.64" x2="541.33" y2="180.64"/><line class="f" x1="484.36" y1="386.85" x2="484.36" y2="383.4"/><line class="f" x1="484.36" y1="383.4" x2="505.08" y2="383.4"/><line class="f" x1="505.08" y1="383.4" x2="505.08" y2="386.85"/><line class="f" x1="505.08" y1="386.85" x2="504.04" y2="386.85"/><line class="f" x1="504.04" y1="386.85" x2="504.04" y2="384.44"/><line class="f" x1="504.04" y1="384.43" x2="485.4" y2="384.43"/><line class="f" x1="485.4" y1="384.43" x2="485.4" y2="386.85"/><line class="f" x1="485.4" y1="386.85" x2="484.36" y2="386.85"/><line class="f" x1="484.36" y1="386.85" x2="484.36" y2="383.4"/><line class="f" x1="505.08" y1="386.85" x2="505.08" y2="383.4"/><line class="f" x1="485.4" y1="386.85" x2="485.4" y2="384.44"/><line class="f" x1="504.04" y1="386.85" x2="504.04" y2="384.44"/><line class="f" x1="484.36" y1="383.4" x2="505.08" y2="383.4"/><line class="f" x1="484.36" y1="384.43" x2="505.08" y2="384.43"/><line class="f" x1="484.36" y1="386.85" x2="485.4" y2="386.85"/><line class="f" x1="504.04" y1="386.85" x2="505.08" y2="386.85"/><line class="f" x1="520.27" y1="222.35" x2="520.27" y2="201.63"/><line class="f" x1="528.18" y1="209.55" x2="533.07" y2="214.43"/><line class="f" x1="533.07" y1="209.55" x2="528.18" y2="214.43"/><line class="f" x1="530.63" y1="215.44" x2="530.63" y2="208.54"/><line class="f" x1="527.17" y1="211.99" x2="534.08" y2="211.99"/><line class="f" x1="540.98" y1="201.63" x2="540.98" y2="222.35"/><line class="f" x1="520.27" y1="222.35" x2="540.98" y2="222.35"/><line class="f" x1="520.27" y1="201.63" x2="540.98" y2="201.63"/><line class="f" x1="520.27" y1="305.55" x2="520.27" y2="180.92"/><line class="f" x1="540.98" y1="326.26" x2="540.98" y2="180.92"/><line class="f" x1="540.98" y1="180.92" x2="520.27" y2="201.63"/><line class="f" x1="490.06" y1="307.27" x2="509.05" y2="307.27"/><line class="f" x1="509.05" y1="307.27" x2="509.05" y2="324.54"/><line class="f" x1="490.06" y1="324.54" x2="490.06" y2="307.27"/><line class="f" x1="489.2" y1="305.55" x2="509.91" y2="305.55"/><line class="f" x1="491.79" y1="309" x2="507.32" y2="309"/><line class="f" x1="507.32" y1="309" x2="507.32" y2="321.08"/><line class="f" x1="507.32" y1="321.08" x2="491.79" y2="321.08"/><line class="f" x1="491.79" y1="321.08" x2="491.79" y2="309"/><line class="f" x1="520.27" y1="305.55" x2="458.13" y2="305.55"/><line class="f" x1="540.98" y1="326.26" x2="458.12" y2="326.26"/><line class="f" x1="540.98" y1="263.77" x2="520.27" y2="263.77"/><line class="f" x1="520.27" y1="263.77" x2="520.27" y2="243.06"/><line class="f" x1="520.27" y1="243.06" x2="540.98" y2="243.06"/><line class="f" x1="540.98" y1="243.06" x2="540.98" y2="263.77"/><line class="f" x1="519.33" y1="245.88" x2="519.33" y2="260.95"/><line class="f" x1="540.98" y1="294.85" x2="520.27" y2="294.85"/><line class="f" x1="520.27" y1="294.85" x2="520.27" y2="274.13"/><line class="f" x1="520.27" y1="274.13" x2="540.98" y2="274.13"/><line class="f" x1="540.98" y1="274.13" x2="540.98" y2="294.85"/><line class="f" x1="326.72" y1="331.05" x2="358.22" y2="331.05"/><line class="f" x1="358.22" y1="331.05" x2="358.22" y2="333.17"/><line class="f" x1="358.22" y1="333.17" x2="350.34" y2="335.28"/><line class="f" x1="350.34" y1="335.28" x2="334.6" y2="335.28"/><line class="f" x1="334.6" y1="335.28" x2="326.72" y2="333.17"/><line class="f" x1="326.72" y1="333.17" x2="326.72" y2="331.05"/><line class="f" x1="356.12" y1="331.9" x2="354.02" y2="331.9"/><line class="f" x1="354.01" y1="331.9" x2="354.01" y2="332.43"/><line class="f" x1="354.01" y1="332.42" x2="356.12" y2="332.42"/><line class="f" x1="356.12" y1="332.42" x2="356.12" y2="331.9"/><line class="f" x1="353.49" y1="331.9" x2="351.39" y2="331.9"/><line class="f" x1="351.39" y1="331.9" x2="351.39" y2="332.43"/><line class="f" x1="351.39" y1="332.42" x2="353.49" y2="332.42"/><line class="f" x1="353.49" y1="332.42" x2="353.49" y2="331.9"/><line class="f" x1="350.87" y1="331.9" x2="349.82" y2="331.9"/><line class="f" x1="349.82" y1="331.9" x2="349.82" y2="332.43"/><line class="f" x1="349.82" y1="332.42" x2="350.87" y2="332.42"/><line class="f" x1="350.87" y1="332.42" x2="350.87" y2="331.9"/><line class="f" x1="326.72" y1="333.17" x2="358.22" y2="333.17"/><line class="f" x1="372.16" y1="272.06" x2="372.16" y2="254.8"/><line class="f" x1="372.16" y1="254.8" x2="344.54" y2="254.8"/><line class="f" x1="344.54" y1="254.8" x2="344.54" y2="272.06"/><line class="f" x1="344.54" y1="272.06" x2="372.16" y2="272.06"/><line class="f" x1="458.12" y1="326.26" x2="458.12" y2="305.55"/><line class="f" x1="458.12" y1="305.55" x2="478.84" y2="305.55"/><line class="f" x1="478.84" y1="305.55" x2="478.84" y2="326.26"/><line class="f" x1="478.84" y1="326.26" x2="458.13" y2="326.26"/><line class="f" x1="520.27" y1="180.92" x2="540.98" y2="180.92"/><line class="f" x1="540.98" y1="180.92" x2="540.98" y2="201.63"/><line class="f" x1="540.98" y1="201.63" x2="520.27" y2="201.63"/><line class="f" x1="520.27" y1="201.63" x2="520.27" y2="180.92"/><line class="f" x1="486.09" y1="182.3" x2="513.71" y2="182.3"/><line class="f" x1="513.71" y1="182.3" x2="513.71" y2="184.58"/><line class="f" x1="513.71" y1="184.58" x2="486.09" y2="184.58"/><line class="f" x1="486.09" y1="184.58" x2="486.09" y2="182.3"/><line class="f" x1="256.95" y1="391.17" x2="256.95" y2="356.64"/><line class="f" x1="256.95" y1="356.64" x2="259.13" y2="356.64"/><line class="f" x1="259.13" y1="356.64" x2="259.13" y2="391.17"/><line class="f" x1="259.13" y1="391.17" x2="256.95" y2="391.17"/><line class="f" x1="430.85" y1="216.82" x2="451.57" y2="216.82"/><line class="f" x1="451.57" y1="216.82" x2="451.57" y2="219.1"/><line class="f" x1="451.57" y1="219.1" x2="430.85" y2="219.1"/><line class="f" x1="430.85" y1="219.1" x2="430.85" y2="216.82"/><line class="f" x1="304.84" y1="287.6" x2="304.84" y2="239.26"/><line class="f" x1="304.84" y1="239.26" x2="308.29" y2="239.26"/><line class="f" x1="308.29" y1="239.26" x2="308.29" y2="287.6"/><line class="f" x1="308.29" y1="287.6" x2="304.84" y2="287.6"/><g class="i"><path class="f" d="M474.52,315.91a6,6,0,1,0-6,6,6,6,0,0,0,6-6"/><path class="f" d="M473.49,315.91a5,5,0,1,0-5,5,5,5,0,0,0,5-5"/><path class="f" d="M500.24,317.63a.69.69,0,1,0-.69.69.69.69,0,0,0,.69-.69"/><path class="f" d="M539.1,258.5a3.39,3.39,0,1,0-3.39,3.39,3.39,3.39,0,0,0,3.39-3.39"/><path class="f" d="M528.93,258.5a3.39,3.39,0,1,0-3.39,3.39,3.39,3.39,0,0,0,3.39-3.39"/><path class="f" d="M528.93,248.33a3.39,3.39,0,1,0-3.39,3.39,3.39,3.39,0,0,0,3.39-3.39"/><path class="f" d="M336.17,334.9a6.3,6.3,0,0,1,12.6,0"/><path class="f" d="M348.77,334.9a12.59,12.59,0,0,1-12.6,0"/><path class="f" d="M518.89,183.44a1.73,1.73,0,1,0-1.73,1.72,1.73,1.73,0,0,0,1.73-1.72"/><path class="f" d="M259.77,353.19a1.73,1.73,0,1,0-1.73,1.73,1.72,1.72,0,0,0,1.73-1.73"/><path class="f" d="M456.74,218a1.73,1.73,0,1,0-1.72,1.73,1.73,1.73,0,0,0,1.72-1.73"/><path class="f" d="M308.29,235.81a1.73,1.73,0,1,0-1.73,1.73,1.73,1.73,0,0,0,1.73-1.73"/></g><line class="f" x1="511.12" y1="361.02" x2="511.12" y2="381.73"/><line class="f" x1="514.57" y1="385.19" x2="535.29" y2="385.19"/><line class="f" x1="538.74" y1="381.73" x2="538.74" y2="361.02"/><line class="f" x1="535.29" y1="357.57" x2="514.57" y2="357.57"/><g class="i"><path class="f" d="M536.15,361a.87.87,0,1,0-.87.86.86.86,0,0,0,.87-.86"/><path class="f" d="M511.12,361a3.45,3.45,0,0,1,3.45-3.45"/><path class="f" d="M514.57,385.19a3.45,3.45,0,0,1-3.45-3.46"/><path class="f" d="M535.29,357.57a3.46,3.46,0,0,1,3.45,3.45"/><path class="f" d="M538.74,381.73a3.46,3.46,0,0,1-3.46,3.46"/></g><rect class="d" x="484.36" y="384.43" width="1.04" height="2.42"/><line class="f" x1="484.36" y1="386.85" x2="485.4" y2="386.85"/><line class="f" x1="484.36" y1="384.43" x2="484.36" y2="386.85"/><line class="f" x1="485.4" y1="384.43" x2="484.36" y2="384.43"/><line class="f" x1="485.4" y1="386.85" x2="485.4" y2="384.44"/><rect class="d" x="484.36" y="383.4" width="20.71" height="1.04"/><line class="f" x1="484.36" y1="383.4" x2="484.36" y2="384.43"/><line class="f" x1="505.08" y1="383.4" x2="484.36" y2="383.4"/><line class="f" x1="505.08" y1="384.43" x2="505.08" y2="383.4"/><line class="f" x1="484.36" y1="384.43" x2="505.08" y2="384.43"/><rect class="d" x="504.04" y="384.43" width="1.04" height="2.42"/><line class="f" x1="504.04" y1="386.85" x2="505.08" y2="386.85"/><line class="f" x1="504.04" y1="384.43" x2="504.04" y2="386.85"/><line class="f" x1="505.08" y1="384.43" x2="504.04" y2="384.43"/><line class="f" x1="505.08" y1="386.85" x2="505.08" y2="384.44"/><rect class="d" x="452.26" y="329.09" width="58" height="5.18"/><line class="f" x1="452.26" y1="329.09" x2="510.26" y2="329.09"/><line class="f" x1="510.26" y1="329.09" x2="510.26" y2="334.26"/><line class="f" x1="510.26" y1="334.26" x2="452.26" y2="334.26"/><line class="f" x1="452.26" y1="334.26" x2="452.26" y2="329.09"/><rect class="d" x="344.54" y="254.86" width="27.62" height="17.26"/><line class="f" x1="344.54" y1="254.86" x2="344.54" y2="272.12"/><line class="f" x1="372.16" y1="254.86" x2="344.54" y2="254.86"/><line class="f" x1="372.16" y1="272.12" x2="372.16" y2="254.86"/><line class="f" x1="344.54" y1="272.12" x2="372.16" y2="272.12"/><rect class="d" x="486.09" y="182.3" width="27.62" height="2.28"/><line class="f" x1="513.71" y1="182.3" x2="486.09" y2="182.3"/><line class="f" x1="513.71" y1="184.58" x2="513.71" y2="182.3"/><line class="f" x1="486.09" y1="184.58" x2="513.71" y2="184.58"/><line class="f" x1="486.09" y1="182.3" x2="486.09" y2="184.58"/><polygon class="g" points="518.89 183.44 518.38 184.66 517.16 185.16 515.94 184.66 515.43 183.44 515.94 182.22 517.16 181.71 518.38 182.22 518.89 183.44"/><g class="i"><path class="f" d="M518.89,183.44a1.73,1.73,0,0,1-3.46,0"/><path class="f" d="M515.43,183.44a1.73,1.73,0,0,1,3.46,0"/></g><rect class="d" x="430.85" y="216.82" width="20.71" height="2.28"/><line class="f" x1="451.57" y1="216.82" x2="430.85" y2="216.82"/><line class="f" x1="451.57" y1="219.1" x2="451.57" y2="216.82"/><line class="f" x1="430.85" y1="219.1" x2="451.57" y2="219.1"/><line class="f" x1="430.85" y1="216.82" x2="430.85" y2="219.1"/><polygon class="g" points="456.74 217.96 456.24 219.18 455.02 219.69 453.8 219.18 453.29 217.96 453.8 216.74 455.02 216.24 456.24 216.74 456.74 217.96"/><g class="i"><path class="f" d="M456.74,218a1.73,1.73,0,1,1-3.45,0"/><path class="f" d="M453.29,218a1.73,1.73,0,1,1,3.45,0"/></g><polygon class="g" points="308.29 235.81 307.79 237.03 306.56 237.54 305.34 237.03 304.84 235.81 305.34 234.59 306.56 234.08 307.79 234.59 308.29 235.81"/><g class="i"><path class="f" d="M308.29,235.81a1.73,1.73,0,1,1-3.45,0"/><path class="f" d="M304.84,235.81a1.73,1.73,0,1,1,3.45,0"/></g><rect class="d" x="304.84" y="239.26" width="3.45" height="48.33"/><line class="f" x1="304.84" y1="287.6" x2="308.29" y2="287.6"/><line class="f" x1="304.84" y1="239.26" x2="304.84" y2="287.6"/><line class="f" x1="308.29" y1="239.26" x2="304.84" y2="239.26"/><line class="f" x1="308.29" y1="287.6" x2="308.29" y2="239.26"/><polygon class="g" points="259.77 353.19 259.26 354.41 258.04 354.92 256.82 354.41 256.31 353.19 256.82 351.97 258.04 351.46 259.26 351.97 259.77 353.19"/><g class="i"><path class="f" d="M259.77,353.19a1.73,1.73,0,1,1-3.45,0"/><path class="f" d="M256.32,353.19a1.73,1.73,0,0,1,3.45,0"/></g><rect class="d" x="256.95" y="356.64" width="2.17" height="34.52"/><line class="f" x1="259.13" y1="356.64" x2="256.95" y2="356.64"/><line class="f" x1="259.13" y1="391.17" x2="259.13" y2="356.64"/><line class="f" x1="256.95" y1="391.17" x2="259.13" y2="391.17"/><line class="f" x1="256.95" y1="356.64" x2="256.95" y2="391.17"/><polygon class="g" points="282.05 442.67 344.2 442.67 344.2 432.35 344.2 380.77 343.67 378.14 342.17 375.91 339.93 374.42 337.29 373.9 288.96 373.9 286.31 374.42 284.07 375.91 282.58 378.14 282.05 380.77 282.05 442.67"/><rect class="d" x="269.97" y="432.35" width="12.08" height="10.32"/><rect class="d" x="344.2" y="432.35" width="12.08" height="10.32"/><line class="f" x1="315.08" y1="431.24" x2="315.91" y2="434.21"/><line class="f" x1="286.09" y1="431.24" x2="286.92" y2="434.21"/><line class="f" x1="337.29" y1="373.9" x2="288.96" y2="373.9"/><line class="f" x1="282.05" y1="380.78" x2="282.05" y2="442.67"/><line class="f" x1="282.05" y1="442.67" x2="344.2" y2="442.67"/><line class="f" x1="344.2" y1="442.67" x2="344.2" y2="380.78"/><line class="f" x1="282.05" y1="442.67" x2="269.97" y2="442.67"/><line class="f" x1="269.97" y1="442.67" x2="269.97" y2="432.35"/><line class="f" x1="269.97" y1="432.35" x2="282.05" y2="432.35"/><line class="f" x1="282.05" y1="432.35" x2="282.05" y2="442.67"/><line class="f" x1="356.28" y1="442.67" x2="344.2" y2="442.67"/><line class="f" x1="344.2" y1="442.67" x2="344.2" y2="432.35"/><line class="f" x1="344.2" y1="432.35" x2="356.28" y2="432.35"/><line class="f" x1="356.28" y1="432.35" x2="356.28" y2="442.67"/><line class="f" x1="282.05" y1="419.79" x2="344.2" y2="419.79"/><line class="f" x1="282.05" y1="414.63" x2="344.2" y2="414.63"/><g class="i"><path class="f" d="M310.5,425a96.48,96.48,0,0,1-12.72.84c-3.26,0-6.53-.17-9.78-.49"/><path class="f" d="M285.76,427.24v-.1a1.85,1.85,0,0,1,1.85-1.84,1.74,1.74,0,0,1,.39.05"/><path class="f" d="M286.09,431.24a14.92,14.92,0,0,1-.35-3.19c0-.27,0-.54,0-.81"/><path class="f" d="M285.89,438.91c0-.82-.06-1.65-.06-2.48,0-1.74.09-3.47.26-5.19"/><path class="f" d="M286.35,439.41h-.08a.39.39,0,0,1-.39-.39.49.49,0,0,1,0-.12"/><path class="f" d="M286.35,439.41q7.41-.57,14.85-.57c3.12,0,6.25.08,9.37.23"/><path class="f" d="M311.69,437.83a1.06,1.06,0,0,1,.05.31,1,1,0,0,1-1,.95l-.21,0"/><path class="f" d="M311.69,437.83a45.82,45.82,0,0,1-.18-11.85"/><path class="f" d="M310.5,425a.67.67,0,0,1,.24,0,.8.8,0,0,1,.8.8.89.89,0,0,1,0,.22"/><path class="f" d="M282.05,380.78A6.89,6.89,0,0,1,289,373.9"/><path class="f" d="M337.29,373.9a6.89,6.89,0,0,1,6.9,6.88"/><path class="f" d="M339.49,425a96.7,96.7,0,0,1-12.72.84c-3.27,0-6.53-.17-9.78-.49"/><path class="f" d="M314.75,427.24v-.1a1.85,1.85,0,0,1,1.85-1.84,1.74,1.74,0,0,1,.39.05"/><path class="f" d="M315.08,431.24a14.92,14.92,0,0,1-.35-3.19c0-.27,0-.54,0-.81"/><path class="f" d="M314.88,438.91c0-.82-.06-1.65-.06-2.48,0-1.74.09-3.47.26-5.19"/><path class="f" d="M315.34,439.41h-.08a.39.39,0,0,1-.39-.39.49.49,0,0,1,0-.12"/><path class="f" d="M315.34,439.41q7.41-.57,14.85-.57,4.69,0,9.37.23"/><path class="f" d="M340.68,437.83a1.06,1.06,0,0,1,.05.31,1,1,0,0,1-1,.95l-.21,0"/><path class="f" d="M340.68,437.83A45.82,45.82,0,0,1,340.5,426"/><path class="f" d="M339.49,425a.69.69,0,0,1,.25,0,.8.8,0,0,1,.79.8.89.89,0,0,1,0,.22"/></g><rect class="d" x="382.86" y="390.19" width="20.71" height="52.82"/><line class="f" x1="403.58" y1="443.02" x2="403.58" y2="390.19"/><line class="f" x1="403.58" y1="390.19" x2="382.86" y2="390.19"/><line class="f" x1="382.86" y1="390.19" x2="382.86" y2="443.01"/><line class="f" x1="382.86" y1="443.02" x2="403.58" y2="443.02"/><line class="f" x1="393.22" y1="440.37" x2="393.22" y2="392.83"/><line class="f" x1="399.31" y1="437.92" x2="386.9" y2="433.46"/><line class="f" x1="399.93" y1="432.89" x2="388.39" y2="431.04"/><line class="f" x1="385.75" y1="426.01" x2="398.42" y2="424.49"/><line class="f" x1="387.41" y1="418.22" x2="398.42" y2="420.28"/><line class="f" x1="386.78" y1="415.38" x2="400.34" y2="415.38"/><line class="f" x1="386.72" y1="407.35" x2="400.13" y2="409.26"/><line class="f" x1="386.94" y1="404.34" x2="399.19" y2="404.34"/><line class="f" x1="386.82" y1="396.42" x2="399.38" y2="394.9"/><line class="f" x1="387.68" y1="398.33" x2="398.29" y2="399.88"/><rect class="d" x="254.78" y="329.09" width="45.92" height="13.81"/><line class="f" x1="300.7" y1="329.09" x2="254.78" y2="329.09"/><line class="f" x1="254.78" y1="329.09" x2="254.78" y2="342.9"/><line class="f" x1="254.78" y1="342.9" x2="300.7" y2="342.9"/><line class="f" x1="300.7" y1="342.9" x2="300.7" y2="329.09"/><line class="f" x1="298.4" y1="335.99" x2="257.07" y2="335.99"/><line class="f" x1="296.27" y1="331.93" x2="292.39" y2="340.2"/><line class="f" x1="291.89" y1="331.52" x2="290.29" y2="339.21"/><line class="f" x1="285.91" y1="340.97" x2="284.59" y2="332.52"/><line class="f" x1="279.14" y1="339.86" x2="280.93" y2="332.52"/><line class="f" x1="276.67" y1="340.28" x2="276.67" y2="331.24"/><line class="f" x1="269.69" y1="340.32" x2="271.35" y2="331.39"/><line class="f" x1="267.08" y1="340.18" x2="267.08" y2="332.01"/><line class="f" x1="260.19" y1="340.26" x2="258.87" y2="331.89"/><line class="f" x1="261.85" y1="339.69" x2="263.19" y2="332.61"/><polygon class="g" points="460.71 334.26 478.67 334.26 479.03 334.42 479.19 334.78 479.19 348.94 479.03 349.3 478.67 349.46 460.71 349.46 460.35 349.3 460.2 348.94 460.2 334.78 460.35 334.42 460.71 334.26"/><line class="f" x1="460.71" y1="334.26" x2="478.67" y2="334.26"/><g class="i"><path class="f" d="M478.67,334.26a.52.52,0,0,1,.51.52"/></g><line class="f" x1="479.18" y1="334.78" x2="479.18" y2="348.94"/><g class="i"><path class="f" d="M479.18,348.94a.52.52,0,0,1-.51.52"/></g><line class="f" x1="478.67" y1="349.46" x2="460.71" y2="349.46"/><g class="i"><path class="f" d="M460.71,349.46a.51.51,0,0,1-.51-.52"/></g><line class="f" x1="460.2" y1="348.94" x2="460.2" y2="334.78"/><g class="i"><path class="f" d="M460.2,334.78a.52.52,0,0,1,.51-.52"/></g><line class="f" x1="461.75" y1="338.06" x2="477.63" y2="338.06"/><line class="f" x1="478.15" y1="338.58" x2="478.15" y2="347.9"/><line class="f" x1="477.63" y1="348.42" x2="461.75" y2="348.42"/><line class="f" x1="461.23" y1="347.9" x2="461.23" y2="338.58"/><g class="i"><path class="f" d="M477.63,338.06a.52.52,0,0,1,.52.52"/><path class="f" d="M478.15,347.9a.52.52,0,0,1-.52.52"/><path class="f" d="M461.75,348.42a.52.52,0,0,1-.52-.52"/><path class="f" d="M461.23,338.58a.52.52,0,0,1,.52-.52"/></g><polygon class="g" points="468.83 336.34 468.96 337.79 469.07 338.11 469.31 339.94 469.44 340.18 469.69 340.28 469.94 340.18 470.07 339.94 470.3 338.11 470.42 337.79 470.55 336.34 470.3 335.73 469.69 335.47 469.08 335.73 468.83 336.34"/><g class="i"><path class="f" d="M468.83,336.34a.86.86,0,1,1,1.72,0"/></g><line class="f" x1="470.42" y1="337.79" x2="470.55" y2="336.34"/><g class="i"><path class="f" d="M470.42,337.79a1.1,1.1,0,0,1-.12.33"/></g><line class="f" x1="470.07" y1="339.94" x2="470.3" y2="338.11"/><g class="i"><path class="f" d="M470.07,339.94a.39.39,0,0,1-.38.34.38.38,0,0,1-.38-.34"/></g><line class="f" x1="469.08" y1="338.11" x2="469.31" y2="339.94"/><g class="i"><path class="f" d="M469.08,338.11a.78.78,0,0,1-.12-.32"/></g><line class="f" x1="468.83" y1="336.34" x2="468.97" y2="337.79"/><line class="f" x1="470.16" y1="337.2" x2="470.16" y2="337.71"/><line class="f" x1="469.22" y1="337.71" x2="469.22" y2="337.2"/><line class="f" x1="469.22" y1="337.2" x2="470.16" y2="337.2"/><g class="i"><path class="f" d="M470.16,337.71a.47.47,0,0,1-.94,0"/><path class="f" d="M470.3,338.11a.72.72,0,0,1-1.22,0"/></g><polygon class="g" points="487.47 334.26 487.47 345.66 487.74 347.37 488.51 348.91 489.71 350.15 491.67 351.18 493.86 351.53 496.04 351.18 498 350.15 499.2 348.91 499.98 347.37 500.24 345.66 500.24 334.26 487.47 334.26"/><line class="f" x1="500.24" y1="334.26" x2="500.24" y2="345.66"/><line class="f" x1="500.24" y1="334.26" x2="487.47" y2="334.26"/><line class="f" x1="487.47" y1="334.26" x2="487.47" y2="345.66"/><line class="f" x1="498.17" y1="338.41" x2="498.17" y2="345.66"/><line class="f" x1="489.54" y1="338.41" x2="489.54" y2="345.66"/><line class="f" x1="489.54" y1="338.41" x2="498.17" y2="338.41"/><g class="i"><path class="f" d="M500.24,345.66a5.63,5.63,0,0,1-2.24,4.49"/><path class="f" d="M489.71,350.15a5.61,5.61,0,0,1-2.24-4.49"/><path class="f" d="M498,350.15a6.92,6.92,0,0,1-8.29,0"/><path class="f" d="M489.71,350.15a5.61,5.61,0,0,1-2.24-4.49"/><path class="f" d="M493.86,351.53a7,7,0,0,1-4.15-1.38"/><path class="f" d="M491,348.49a3.55,3.55,0,0,1-1.42-2.83"/><path class="f" d="M496.76,348.49a4.82,4.82,0,0,1-5.8,0"/><path class="f" d="M498.17,345.66a3.54,3.54,0,0,1-1.41,2.83"/></g><polygon class="g" points="337.7 247.27 338.08 247.77 338.67 247.96 376.3 247.96 376.93 247.77 377.34 247.27 377.54 247.75 378.03 247.96 379.07 247.96 380.79 247.5 382.06 246.23 382.52 244.5 382.52 219.3 382.31 218.81 381.83 218.61 310.71 218.61 310.22 218.81 310.02 219.3 310.02 247.27 310.17 247.72 310.57 247.99 311.05 247.96 336.6 247.96 337.33 247.9 337.7 247.27"/><polygon class="g" points="337.64 270.4 337.11 273.04 335.61 275.28 333.37 276.77 330.73 277.3 316.92 277.3 314.28 276.77 312.04 275.28 310.54 273.04 310.02 270.4 310.02 248.99 310.32 248.26 311.05 247.96 336.6 247.96 337.33 248.26 337.64 248.99 337.64 270.4"/><g class="i"><path class="f" d="M337.64,270.4a6.91,6.91,0,0,1-6.91,6.9"/></g><line class="f" x1="330.73" y1="277.3" x2="316.92" y2="277.3"/><g class="i"><path class="f" d="M316.92,277.3a6.9,6.9,0,0,1-6.9-6.9"/></g><line class="f" x1="310.02" y1="270.4" x2="310.02" y2="248.99"/><g class="i"><path class="f" d="M310,249a1,1,0,0,1,1-1"/></g><line class="f" x1="311.05" y1="247.96" x2="336.6" y2="247.96"/><g class="i"><path class="f" d="M336.6,248a1,1,0,0,1,1,1"/></g><line class="f" x1="337.64" y1="248.99" x2="337.64" y2="270.4"/><line class="f" x1="378.03" y1="247.96" x2="379.07" y2="247.96"/><line class="f" x1="382.52" y1="244.5" x2="382.52" y2="219.3"/><line class="f" x1="381.83" y1="218.61" x2="378.03" y2="218.61"/><line class="f" x1="377.34" y1="219.3" x2="377.34" y2="247.26"/><line class="f" x1="378.03" y1="218.61" x2="337.64" y2="218.61"/><line class="f" x1="337.64" y1="218.61" x2="337.64" y2="221.03"/><line class="f" x1="338.67" y1="247.96" x2="376.3" y2="247.96"/><line class="f" x1="377.34" y1="246.92" x2="377.34" y2="229.61"/><line class="f" x1="337.64" y1="229.61" x2="337.64" y2="246.92"/><line class="f" x1="377.34" y1="221.03" x2="377.34" y2="227.54"/><line class="f" x1="337.64" y1="227.54" x2="337.64" y2="221.03"/><line class="f" x1="314.5" y1="247.96" x2="310.71" y2="247.96"/><line class="f" x1="310.02" y1="247.27" x2="310.02" y2="219.3"/><line class="f" x1="310.71" y1="218.61" x2="314.5" y2="218.61"/><line class="f" x1="314.5" y1="218.61" x2="337.64" y2="218.61"/><line class="f" x1="337.64" y1="218.61" x2="337.64" y2="221.03"/><line class="f" x1="336.6" y1="247.96" x2="316.23" y2="247.96"/><line class="f" x1="337.64" y1="229.61" x2="337.64" y2="246.92"/><line class="f" x1="337.64" y1="229.61" x2="337.64" y2="221.03"/><line class="f" x1="330.73" y1="277.3" x2="316.92" y2="277.3"/><line class="f" x1="310.02" y1="270.4" x2="310.02" y2="248.99"/><line class="f" x1="311.05" y1="247.96" x2="336.6" y2="247.96"/><line class="f" x1="337.64" y1="248.99" x2="337.64" y2="270.4"/><line class="f" x1="336.6" y1="219.99" x2="311.05" y2="219.99"/><line class="f" x1="338.67" y1="219.99" x2="376.3" y2="219.99"/><g class="i"><path class="f" d="M381.83,218.61a.69.69,0,0,1,.69.69"/><path class="f" d="M377.34,219.3a.69.69,0,0,1,.69-.69"/><path class="f" d="M378,248a.69.69,0,0,1-.69-.69"/><path class="f" d="M377.34,246.92a1,1,0,0,1-1,1"/><path class="f" d="M338.67,248a1,1,0,0,1-1-1"/><path class="f" d="M310.71,248a.69.69,0,0,1-.69-.69"/><path class="f" d="M310,219.3a.69.69,0,0,1,.69-.69"/><path class="f" d="M337.64,246.92a1,1,0,0,1-1,1"/><path class="f" d="M310,249a1,1,0,0,1,1-1"/><path class="f" d="M336.6,248a1,1,0,0,1,1,1"/></g><line class="f" x1="311.05" y1="219.99" x2="311.05" y2="243.51"/><g class="i"><path class="f" d="M312.3,238.76A19.59,19.59,0,0,1,336.64,224"/><path class="f" d="M376.3,224.83a118.75,118.75,0,0,1-37.63,0"/><path class="f" d="M337.64,270.4a6.91,6.91,0,0,1-6.91,6.9"/><path class="f" d="M316.92,277.3a6.9,6.9,0,0,1-6.9-6.9"/><path class="f" d="M382.52,244.5a3.46,3.46,0,0,1-3.45,3.46"/></g><polygon class="g" points="449.22 240.78 452.8 241.24 456.13 242.62 458.99 244.81 461.19 247.66 465.06 240.97 465.53 239.25 465.07 237.52 463.8 236.26 457.82 232.82 456.09 232.36 454.37 232.82 453.1 234.09 449.22 240.78"/><polygon class="g" points="437.22 261.5 435.84 258.17 435.38 254.6 435.85 251.03 437.24 247.7 429.51 247.71 427.78 248.17 426.51 249.44 426.05 251.16 426.04 258.06 426.5 259.79 427.76 261.05 429.49 261.51 437.22 261.5"/><polygon class="g" points="461.17 261.46 458.96 264.32 456.1 266.52 452.76 267.91 449.18 268.38 453.04 275.06 454.3 276.32 456.02 276.78 457.75 276.31 463.75 272.85 465.02 271.59 465.48 269.87 465.02 268.14 461.17 261.46"/><polygon class="g" points="461.19 247.66 459 244.81 456.13 242.62 452.8 241.24 449.23 240.78 445.64 241.25 442.31 242.64 439.44 244.83 437.24 247.7 435.85 251.03 435.38 254.6 435.84 258.17 437.22 261.5 439.41 264.35 442.27 266.54 445.6 267.92 449.18 268.38 452.76 267.91 456.1 266.52 458.96 264.32 461.17 261.46 462.56 258.13 463.03 254.56 462.56 250.99 461.19 247.66"/><line class="f" x1="462.56" y1="250.99" x2="461.19" y2="247.66"/><line class="f" x1="463.03" y1="254.56" x2="462.56" y2="250.99"/><line class="f" x1="462.55" y1="258.13" x2="463.03" y2="254.56"/><line class="f" x1="461.17" y1="261.46" x2="462.55" y2="258.13"/><line class="f" x1="458.96" y1="264.32" x2="461.17" y2="261.46"/><line class="f" x1="456.1" y1="266.52" x2="458.96" y2="264.32"/><line class="f" x1="452.76" y1="267.91" x2="456.1" y2="266.52"/><line class="f" x1="449.18" y1="268.38" x2="452.76" y2="267.91"/><line class="f" x1="445.6" y1="267.92" x2="449.18" y2="268.38"/><line class="f" x1="442.27" y1="266.54" x2="445.6" y2="267.92"/><line class="f" x1="439.41" y1="264.35" x2="442.27" y2="266.54"/><line class="f" x1="437.22" y1="261.5" x2="439.41" y2="264.35"/><line class="f" x1="435.84" y1="258.17" x2="437.22" y2="261.5"/><line class="f" x1="435.38" y1="254.6" x2="435.84" y2="258.17"/><line class="f" x1="435.85" y1="251.03" x2="435.38" y2="254.6"/><line class="f" x1="437.24" y1="247.7" x2="435.85" y2="251.03"/><line class="f" x1="439.44" y1="244.83" x2="437.24" y2="247.7"/><line class="f" x1="442.31" y1="242.64" x2="439.44" y2="244.83"/><line class="f" x1="445.64" y1="241.25" x2="442.31" y2="242.64"/><line class="f" x1="449.22" y1="240.78" x2="445.65" y2="241.25"/><line class="f" x1="452.8" y1="241.24" x2="449.22" y2="240.78"/><line class="f" x1="456.13" y1="242.62" x2="452.8" y2="241.24"/><line class="f" x1="458.99" y1="244.81" x2="456.13" y2="242.62"/><line class="f" x1="461.19" y1="247.66" x2="459" y2="244.81"/><g class="i"><path class="f" d="M456.1,266.52a13.79,13.79,0,1,1-13.79-23.88"/><path class="f" d="M442.31,242.64a13.79,13.79,0,1,1,13.79,23.88"/></g><line class="f" x1="456.95" y1="234.32" x2="462.94" y2="237.76"/><line class="f" x1="465.06" y1="240.97" x2="461.19" y2="247.66"/><line class="f" x1="457.82" y1="232.82" x2="463.8" y2="236.26"/><line class="f" x1="449.22" y1="240.78" x2="453.1" y2="234.09"/><line class="f" x1="427.76" y1="258.06" x2="427.78" y2="251.16"/><line class="f" x1="429.51" y1="247.71" x2="437.24" y2="247.7"/><line class="f" x1="426.04" y1="258.06" x2="426.05" y2="251.16"/><line class="f" x1="437.22" y1="261.5" x2="429.49" y2="261.51"/><line class="f" x1="462.89" y1="271.36" x2="456.89" y2="274.82"/><line class="f" x1="453.04" y1="275.06" x2="449.18" y2="268.38"/><line class="f" x1="463.75" y1="272.85" x2="457.76" y2="276.31"/><line class="f" x1="461.17" y1="261.46" x2="465.02" y2="268.14"/><g class="i"><path class="f" d="M462.94,237.76a1.73,1.73,0,0,1,.63.63,1.71,1.71,0,0,1,0,1.72"/><path class="f" d="M454.59,235a1.84,1.84,0,0,1,.64-.63,1.71,1.71,0,0,1,1.72,0"/><path class="f" d="M463.81,236.26a3.44,3.44,0,0,1,1.25,4.71"/><path class="f" d="M453.1,234.09a3.46,3.46,0,0,1,4.72-1.27"/><path class="f" d="M427.78,251.16a1.73,1.73,0,0,1,.86-1.49,1.68,1.68,0,0,1,.87-.24"/><path class="f" d="M429.49,259.79a1.72,1.72,0,0,1-1.49-.86,1.77,1.77,0,0,1-.23-.87"/><path class="f" d="M426.05,251.16a3.46,3.46,0,0,1,1.73-3,3.5,3.5,0,0,1,1.73-.46"/><path class="f" d="M429.49,261.51a3.44,3.44,0,0,1-3.45-3.44"/><path class="f" d="M456.89,274.82h0a1.72,1.72,0,0,1-2.36-.63"/><path class="f" d="M463.52,269a1.72,1.72,0,0,1-.64,2.36"/><path class="f" d="M457.75,276.31a3.46,3.46,0,0,1-4.72-1.25"/><path class="f" d="M465,268.14a3.45,3.45,0,0,1-1.27,4.71"/></g><line class="f" x1="490.06" y1="324.54" x2="509.05" y2="324.54"/><line class="f" x1="528.26" y1="285.97" x2="528.26" y2="280.18"/><line class="f" x1="528.26" y1="280.18" x2="530.61" y2="282.08"/><line class="f" x1="530.61" y1="282.08" x2="532.97" y2="280.18"/><line class="f" x1="532.97" y1="280.18" x2="532.97" y2="285.97"/><rect x="449.84" y="384.32" width="2.42" height="3.45"/><rect x="518.89" y="166.82" width="30.73" height="6.9"/><rect x="520.61" y="173.73" width="29" height="6.9"/><polygon class="j" points="289.3 234.15 289.3 201.35 385.97 201.35 394.6 201.35 394.6 208.25 296.21 208.25 296.21 234.15 289.3 234.15"/><polygon class="j" points="455.02 208.25 461.92 208.25 461.92 173.73 486.09 173.73 486.09 180.63 468.83 180.63 468.83 215.16 455.02 215.16 455.02 208.25"/><polygon class="j" points="461.92 208.25 453.29 208.25 453.29 201.35 455.02 201.35 455.02 166.82 487.81 166.82 487.81 173.73 461.92 173.73 461.92 208.25"/><polygon class="j" points="392.88 208.25 392.88 215.16 303.11 215.16 303.11 232.42 296.21 232.42 296.21 208.25 392.88 208.25"/><rect x="449.84" y="387.78" width="91.49" height="8.29"/><rect x="247.87" y="401.59" width="6.9" height="49.71"/><polygon class="j" points="240.97 348.07 240.97 315.28 289.3 315.28 289.3 292.84 296.21 292.84 296.21 322.18 247.87 322.18 247.87 348.07 240.97 348.07"/><polygon class="j" points="247.87 346.35 247.87 322.18 296.21 322.18 296.21 294.56 303.11 294.56 303.11 329.09 254.78 329.09 254.78 346.35 247.87 346.35"/><rect x="240.97" y="399.86" width="6.9" height="51.44"/><polygon class="j" points="403.58 387.78 403.58 390.19 382.86 390.19 382.86 379.15 385.28 379.15 385.28 387.78 403.58 387.78"/><polygon class="j" points="452.26 329.09 452.26 356.71 449.84 356.71 449.84 329.09 446.39 329.09 446.39 326.67 541.33 326.67 541.33 329.09 452.26 329.09"/><polygon class="j" points="385.28 329.09 385.28 348.07 382.86 348.07 382.86 342.9 300.69 342.9 300.69 329.09 303.11 329.09 303.11 340.48 382.86 340.48 382.86 326.67 415.31 326.67 415.31 329.09 385.28 329.09"/><polygon class="j" points="254.78 443.01 403.58 443.01 403.58 387.78 411.86 387.78 411.86 396.06 411.86 451.3 254.78 451.3 254.78 443.01"/><rect x="510.25" y="351.53" width="31.07" height="3.45"/><rect x="510.26" y="329.09" width="3.45" height="25.89"/><rect x="411.86" y="392.09" width="1.73" height="3.97"/><rect x="448.11" y="392.09" width="1.73" height="3.97"/><rect x="541.33" y="180.63" width="8.29" height="215.43"/><line class="f" x1="240.97" y1="315.28" x2="240.97" y2="451.3"/><line class="f" x1="240.97" y1="451.3" x2="411.86" y2="451.3"/><line class="f" x1="411.86" y1="451.3" x2="411.86" y2="396.06"/><line class="f" x1="411.86" y1="396.06" x2="549.61" y2="396.06"/><line class="f" x1="549.61" y1="396.06" x2="549.61" y2="166.83"/><line class="f" x1="549.61" y1="166.83" x2="455.02" y2="166.83"/><line class="f" x1="455.02" y1="166.83" x2="455.02" y2="201.35"/><line class="f" x1="455.02" y1="201.35" x2="385.97" y2="201.35"/><line class="f" x1="385.97" y1="201.35" x2="289.3" y2="201.35"/><line class="f" x1="289.3" y1="201.35" x2="289.3" y2="315.28"/><line class="f" x1="289.3" y1="315.28" x2="240.97" y2="315.28"/><path class="k" d="M484,361.46v7h-.72V362.1h-1.65v-.64Z"/><path class="k" d="M485.69,368a.53.53,0,0,1,.53-.54.54.54,0,0,1,.54.54.55.55,0,0,1-.54.55A.54.54,0,0,1,485.69,368Z"/><path class="k" d="M487.7,365c0-2.23,1.17-3.56,2.79-3.56s2.8,1.33,2.8,3.56-1.18,3.56-2.8,3.56S487.7,367.19,487.7,365Zm4.85,0c0-1.87-.84-2.9-2.06-2.9s-2.06,1-2.06,2.9.84,2.9,2.06,2.9S492.55,366.83,492.55,365Z"/><path class="k" d="M500.27,366.62h-1.4v1.84h-.72v-1.84H494.2v-.52l3.71-4.64h.8L495.13,366h3v-1.62h.7V366h1.4Z"/><path class="k" d="M390.28,284v7h-.72v-6.36h-1.65V284Z"/><path class="k" d="M392,290.54a.53.53,0,0,1,.53-.54.54.54,0,0,1,.54.54.55.55,0,0,1-.54.55A.54.54,0,0,1,392,290.54Z"/><path class="k" d="M394,287.54c0-2.23,1.17-3.56,2.79-3.56s2.8,1.33,2.8,3.56-1.18,3.56-2.8,3.56S394,289.77,394,287.54Zm4.85,0c0-1.87-.84-2.9-2.06-2.9s-2.06,1-2.06,2.9.84,2.9,2.06,2.9S398.82,289.41,398.82,287.54Z"/><path class="k" d="M405.13,289c0,1.17-.85,2.07-2.54,2.07a3.64,3.64,0,0,1-2.52-.9l.35-.57a3.07,3.07,0,0,0,2.17.81c1.16,0,1.8-.54,1.8-1.41s-.59-1.39-1.89-1.39H402v-.53l1.94-2.43h-3.58V284h4.5v.51l-2,2.49C404.38,287.12,405.13,287.91,405.13,289Z"/><path class="k" d="M305.67,355.33v7H305V356H303.3v-.64Z"/><path class="k" d="M307.35,361.83a.53.53,0,0,1,.53-.54.54.54,0,0,1,.54.54.55.55,0,0,1-.54.55A.54.54,0,0,1,307.35,361.83Z"/><path class="k" d="M309.36,358.83c0-2.23,1.17-3.56,2.79-3.56s2.8,1.33,2.8,3.56-1.18,3.56-2.8,3.56S309.36,361.06,309.36,358.83Zm4.85,0c0-1.87-.84-2.9-2.06-2.9s-2.06,1-2.06,2.9.84,2.9,2.06,2.9S314.21,360.7,314.21,358.83Z"/><path class="k" d="M320.75,361.69v.64h-4.91v-.51l2.91-2.85c.79-.78.94-1.25.94-1.73,0-.81-.57-1.31-1.64-1.31a2.38,2.38,0,0,0-1.91.78l-.51-.44a3.15,3.15,0,0,1,2.48-1c1.42,0,2.32.72,2.32,1.89a2.88,2.88,0,0,1-1.15,2.19l-2.38,2.34Z"/><path class="k" d="M423.07,340.54v7h-.72v-6.36H420.7v-.64Z"/><path class="k" d="M424.75,347a.53.53,0,0,1,.53-.54.54.54,0,0,1,.54.54.55.55,0,0,1-.54.55A.54.54,0,0,1,424.75,347Z"/><path class="k" d="M426.76,344c0-2.23,1.17-3.56,2.79-3.56s2.8,1.33,2.8,3.56-1.18,3.56-2.8,3.56S426.76,346.27,426.76,344Zm4.85,0c0-1.87-.84-2.9-2.06-2.9s-2.06,1-2.06,2.9.84,2.9,2.06,2.9S431.61,345.91,431.61,344Z"/><path class="k" d="M435.31,340.54v7h-.72v-6.36h-1.65v-.64Z"/></svg>