<svg xmlns="http://www.w3.org/2000/svg" xmlns:xlink="http://www.w3.org/1999/xlink" viewBox="0 0 790.58 618.13"><defs><style>.a,.k,.l{fill:none;}.b{clip-path:url(#a);}.c{clip-path:url(#d);}.d{clip-path:url(#g);}.e{clip-path:url(#j);}.f{fill:#595a5c;}.g{fill:#b6906c;}.h,.n{fill:#fff;}.i{fill:#231f20;}.j{fill:url(#m);}.k{stroke:#000;}.k,.l{stroke-linecap:round;stroke-linejoin:round;stroke-width:0.34px;}.l{stroke:#454545;}.m{clip-path:url(#n);}.n,.o{fill-rule:evenodd;}.p{fill:#58595b;}</style><clipPath id="a"><rect class="a" y="59.93" width="90" height="59.93"/></clipPath><clipPath id="d"><rect class="a" x="90" y="59.93" width="90" height="59.93"/></clipPath><clipPath id="g"><rect class="a" width="90" height="59.93"/></clipPath><clipPath id="j"><rect class="a" x="90" width="90" height="59.93"/></clipPath><pattern id="m" width="180" height="119.85" patternTransform="matrix(0, -3.46, -3.46, 0, 36057, 12329.13)" patternUnits="userSpaceOnUse" viewBox="0 0 180 119.85"><rect class="a" width="180" height="119.85"/><g class="b"><g class="b"><g class="b"><image width="376" height="251" transform="matrix(0.24, 0, 0, -0.24, -0.2, 120.05)" xlink:href="D105_pudorys1.png"/></g></g></g><g class="c"><g class="c"><g class="c"><image width="376" height="251" transform="matrix(0.24, 0, 0, -0.24, 89.8, 120.05)" xlink:href="D105_pudorys2.png"/></g></g></g><g class="d"><g class="d"><g class="d"><image width="376" height="251" transform="matrix(0.24, 0, 0, -0.24, -0.2, 60.05)" xlink:href="D105_pudorys3.png"/></g></g></g><g class="e"><g class="e"><g class="e"><image width="376" height="251" transform="matrix(0.24, 0, 0, -0.24, 89.8, 60.05)" xlink:href="D105_pudorys4.png"/></g></g></g></pattern><clipPath id="n"><polygon class="a" points="240.44 213.04 240.44 405.09 299.27 405.09 499.97 405.09 550.14 405.09 550.14 213.04 240.44 213.04"/></clipPath></defs><path class="f" d="M55.31,597.13H57.1V609.9H55.31Zm.92,6.11h4.09a1.89,1.89,0,0,0,1-.27,1.82,1.82,0,0,0,.68-.77,2.67,2.67,0,0,0,.24-1.16,2.7,2.7,0,0,0-.24-1.16,1.82,1.82,0,0,0-1.7-1H56.23v-1.7h4a4.09,4.09,0,0,1,2,.48A3.45,3.45,0,0,1,63.62,599a4.64,4.64,0,0,1,0,4.11,3.34,3.34,0,0,1-1.35,1.36,4,4,0,0,1-2,.49h-4Z"/><path class="f" d="M67.7,606.33a2.07,2.07,0,0,0,.49,1.48,1.76,1.76,0,0,0,1.37.52,1.89,1.89,0,0,0,1.37-.46,1.79,1.79,0,0,0,.48-1.33l.12,1.91A2.58,2.58,0,0,1,69.06,610a2.89,2.89,0,0,1-2.33-1,4.08,4.08,0,0,1-.82-2.73v-5.55H67.7Zm.22-7.86a1.93,1.93,0,0,1-.56-1.5,2.07,2.07,0,0,1,.56-1.57,2.56,2.56,0,0,1,3.18,0,2.08,2.08,0,0,1,.57,1.56,1.94,1.94,0,0,1-.57,1.5,2.65,2.65,0,0,1-3.18,0Zm2.26-.86a.94.94,0,0,0,.24-.68,1,1,0,0,0-.24-.7.91.91,0,0,0-.67-.25.92.92,0,0,0-.67.25,1,1,0,0,0-.23.7,1,1,0,0,0,.23.68.92.92,0,0,0,.67.24A.9.9,0,0,0,70.18,597.61Zm1.23,3.17h1.78v9.12H71.41Z"/><path class="f" d="M77.1,609.63A2.82,2.82,0,0,1,76,608.36a5.08,5.08,0,0,1-.36-2v-2a5.05,5.05,0,0,1,.36-2,2.71,2.71,0,0,1,1-1.27,3,3,0,0,1,1.65-.44,2.71,2.71,0,0,1,1.48.42,3.22,3.22,0,0,1,1.09,1.19l-.18,1.86a2.19,2.19,0,0,0-.22-1,1.48,1.48,0,0,0-.61-.63,2,2,0,0,0-1-.21,1.71,1.71,0,0,0-1.37.55,2.26,2.26,0,0,0-.49,1.56v2a2.19,2.19,0,0,0,.49,1.54,1.74,1.74,0,0,0,1.37.54,1.93,1.93,0,0,0,1-.23,1.45,1.45,0,0,0,.61-.64,2.25,2.25,0,0,0,.22-1l.12,1.92a2.66,2.66,0,0,1-.89,1.14,2.56,2.56,0,0,1-1.53.45A3.19,3.19,0,0,1,77.1,609.63Zm4-12.5H82.9V609.9H81.11Z"/><path class="f" d="M87.09,609.57a3.09,3.09,0,0,1-1.29-1.36,4.85,4.85,0,0,1-.44-2.15v-1.48a4.71,4.71,0,0,1,.44-2.12,3.12,3.12,0,0,1,1.29-1.35,4.71,4.71,0,0,1,4.06,0,3.12,3.12,0,0,1,1.29,1.35,4.71,4.71,0,0,1,.44,2.12v1.51a4.79,4.79,0,0,1-.44,2.13,3.12,3.12,0,0,1-1.29,1.35,4.62,4.62,0,0,1-4.06,0Zm3.49-1.83a2.43,2.43,0,0,0,.51-1.65v-1.51a2.43,2.43,0,0,0-.51-1.65,1.88,1.88,0,0,0-1.46-.58,1.85,1.85,0,0,0-1.45.58,2.38,2.38,0,0,0-.52,1.65v1.51a2.38,2.38,0,0,0,.52,1.65,1.82,1.82,0,0,0,1.45.59A1.85,1.85,0,0,0,90.58,607.74Z"/><path class="f" d="M95.43,600.78h1.79v9.12H95.43Zm4.42,1.72a2.16,2.16,0,0,0-.83-.15,1.83,1.83,0,0,0-1.33.47,1.79,1.79,0,0,0-.47,1.31L97,602.37a3.32,3.32,0,0,1,1.09-1.27,2.58,2.58,0,0,1,1.48-.45,3.39,3.39,0,0,1,1.13.18,2.62,2.62,0,0,1,.88.53l-1.17,1.58A1.56,1.56,0,0,0,99.85,602.5Z"/><path class="f" d="M102.15,600.78H104l2.81,7.93-1,1.94Zm8.07,0L106.34,612a2.6,2.6,0,0,1-.56,1,1.87,1.87,0,0,1-.84.52,4,4,0,0,1-1.23.16h-.36V612h.36a1.46,1.46,0,0,0,.8-.2,1.74,1.74,0,0,0,.51-.7l3.38-10.31Z"/><path class="f" d="M113.51,609.88a5.76,5.76,0,0,1-1.32-.48,4.89,4.89,0,0,1-1.13-.79l1.06-1.31a5.86,5.86,0,0,0,1.47.85,4.18,4.18,0,0,0,1.44.28,3.11,3.11,0,0,0,1.6-.33,1.1,1.1,0,0,0,.53-1,.79.79,0,0,0-.29-.66,1.66,1.66,0,0,0-.72-.29c-.29,0-.69-.1-1.22-.14h-.15l-.14,0h-.15a6.45,6.45,0,0,1-1.5-.26,2,2,0,0,1-1-.7,2.38,2.38,0,0,1-.41-1.49,3.07,3.07,0,0,1,.39-1.61,2.41,2.41,0,0,1,1.18-1,5.29,5.29,0,0,1,2-.32,6.38,6.38,0,0,1,2.6.52,6.16,6.16,0,0,1,1.13.66l-1.08,1.31a5.59,5.59,0,0,0-1.35-.66,4,4,0,0,0-1.3-.22,2.44,2.44,0,0,0-1.37.31,1.08,1.08,0,0,0-.46.94.64.64,0,0,0,.26.55,1.72,1.72,0,0,0,.66.25c.26,0,.64.07,1.12.1h.34a7.67,7.67,0,0,1,1.63.25,2.24,2.24,0,0,1,1.13.77,2.62,2.62,0,0,1,.45,1.65,2.92,2.92,0,0,1-.42,1.63,2.54,2.54,0,0,1-1.27,1A5.88,5.88,0,0,1,115,610,7.38,7.38,0,0,1,113.51,609.88Z"/><path class="f" d="M126,597.13h1.8V609.9H126Zm2.6,12.5a2.39,2.39,0,0,1-.93-1.16l.13-1.91a2.22,2.22,0,0,0,.21,1,1.48,1.48,0,0,0,.61.63,1.93,1.93,0,0,0,1,.22,1.74,1.74,0,0,0,1.37-.54,2.18,2.18,0,0,0,.49-1.53v-2a2.26,2.26,0,0,0-.49-1.56,1.71,1.71,0,0,0-1.37-.55,2,2,0,0,0-1,.21,1.36,1.36,0,0,0-.61.62,2.12,2.12,0,0,0-.21,1l-.19-1.76a3.37,3.37,0,0,1,1.08-1.24,2.67,2.67,0,0,1,1.49-.43,3,3,0,0,1,1.65.43,2.9,2.9,0,0,1,1.06,1.27,5.1,5.1,0,0,1,.36,2v2a4.94,4.94,0,0,1-.37,2,2.79,2.79,0,0,1-1.08,1.26,3.25,3.25,0,0,1-1.71.44A2.73,2.73,0,0,1,128.57,609.63Z"/><path class="f" d="M134.46,600.78h1.82l2.81,7.93-1,1.94Zm8.07,0L138.65,612a2.6,2.6,0,0,1-.56,1,1.87,1.87,0,0,1-.84.52,4,4,0,0,1-1.23.16h-.36V612H136a1.46,1.46,0,0,0,.8-.2,1.74,1.74,0,0,0,.51-.7l3.37-10.31Z"/><path class="f" d="M143.57,600.78h4.12v1.62h-4.12Zm1.46,8.56a2.77,2.77,0,0,1-.52-1.81v-9.4h1.8v9.42a.84.84,0,0,0,.13.51.46.46,0,0,0,.39.18h.86V610h-1A2,2,0,0,1,145,609.34Z"/><path class="f" d="M151.94,606.33a2.07,2.07,0,0,0,.49,1.48,1.76,1.76,0,0,0,1.37.52,1.91,1.91,0,0,0,1.37-.46,1.79,1.79,0,0,0,.48-1.33l.12,1.91A2.58,2.58,0,0,1,153.3,610a2.89,2.89,0,0,1-2.33-1,4.08,4.08,0,0,1-.82-2.73v-5.55h1.79Zm3.71-5.55h1.78v9.12h-1.78Z"/><rect class="g" x="612.92" y="591.68" width="35.43" height="2.83"/><path class="h" d="M648.48,594.64H612.79v-3.08h35.69ZM613,594.39h35.19v-2.58H613Z"/><rect class="g" x="612.92" y="601.6" width="70.74" height="2.83"/><path class="h" d="M683.78,604.56h-71v-3.08h71ZM613,604.31h70.49v-2.58H613Z"/><rect class="g" x="612.92" y="612.72" width="177.16" height="2.84"/><path class="h" d="M790.21,615.68H612.79V612.6H790.21ZM613,615.43H790v-2.58H613Z"/><path class="i" d="M587.26,596.28h-.8v-4.82l-.81.5v-.83l.81-.53h.8Z"/><path class="i" d="M589,595.91a1.67,1.67,0,0,1-.41-1.19v-2.58A1.65,1.65,0,0,1,589,591a2,2,0,0,1,2.42,0,1.65,1.65,0,0,1,.41,1.19v2.58a1.65,1.65,0,0,1-.41,1.19,2,2,0,0,1-2.42,0Zm1.83-.55a.89.89,0,0,0,.2-.64v-2.58a.89.89,0,0,0-.2-.64.82.82,0,0,0-.62-.22.86.86,0,0,0-.63.22.94.94,0,0,0-.2.64v2.58a.9.9,0,0,0,.21.64,1,1,0,0,0,1.24,0Z"/><path class="i" d="M593.22,595.91a1.67,1.67,0,0,1-.41-1.19v-2.58a1.65,1.65,0,0,1,.41-1.19,2,2,0,0,1,2.42,0,1.61,1.61,0,0,1,.41,1.19v2.58a1.65,1.65,0,0,1-.41,1.19,2,2,0,0,1-2.42,0Zm1.83-.55a.9.9,0,0,0,.21-.64v-2.58a.94.94,0,0,0-.2-.64.86.86,0,0,0-.63-.22.82.82,0,0,0-.62.22.89.89,0,0,0-.2.64v2.58a.89.89,0,0,0,.2.64,1,1,0,0,0,1.24,0Z"/><path class="i" d="M600.1,596.13a1.45,1.45,0,0,1-.6-.6,2.06,2.06,0,0,1-.21-1v-.67a2,2,0,0,1,.21-.94,1.37,1.37,0,0,1,.6-.59,2,2,0,0,1,.95-.21,2.21,2.21,0,0,1,.59.08,1.68,1.68,0,0,1,.51.22,1.54,1.54,0,0,1,.37.35l-.58.52a1.17,1.17,0,0,0-.4-.3,1.13,1.13,0,0,0-.48-.11.94.94,0,0,0-.71.26,1,1,0,0,0-.26.72v.67a1,1,0,0,0,.25.74.94.94,0,0,0,.72.27,1,1,0,0,0,.48-.12,1,1,0,0,0,.4-.32l.58.56a1.38,1.38,0,0,1-.38.34,1.62,1.62,0,0,1-.5.22,2.27,2.27,0,0,1-.59.07A2.12,2.12,0,0,1,600.1,596.13Z"/><path class="i" d="M603.4,592.22h.79v4.06h-.79Zm2.42,1.6a1,1,0,0,0-.21-.67.78.78,0,0,0-.6-.23.81.81,0,0,0-.6.21.73.73,0,0,0-.22.58l-.08-.78a1.46,1.46,0,0,1,.49-.57,1.22,1.22,0,0,1,.67-.2,1.33,1.33,0,0,1,.73.2,1.18,1.18,0,0,1,.46.56,2.4,2.4,0,0,1,.15.89v2.47h-.79Zm2.42,0a.93.93,0,0,0-.22-.67.85.85,0,0,0-.63-.23.72.72,0,0,0-.57.23.9.9,0,0,0-.21.64l-.16-.78a1.61,1.61,0,0,1,.51-.63,1.23,1.23,0,0,1,.69-.22,1.37,1.37,0,0,1,.75.2,1.09,1.09,0,0,1,.47.56,2.21,2.21,0,0,1,.17.89v2.47h-.8Z"/><path class="i" d="M584.33,605.5l2-2.64a1.85,1.85,0,0,0,.27-.47,1.29,1.29,0,0,0,.09-.45h0a.67.67,0,0,0-.2-.53.81.81,0,0,0-.56-.19.76.76,0,0,0-.56.21,1,1,0,0,0-.27.58h-.82a2,2,0,0,1,.29-.83,1.42,1.42,0,0,1,.56-.53,1.67,1.67,0,0,1,.79-.18,1.93,1.93,0,0,1,.87.17,1.21,1.21,0,0,1,.54.51,1.55,1.55,0,0,1,.19.8h0a1.84,1.84,0,0,1-.12.63,2.8,2.8,0,0,1-.35.63l-1.65,2.24h2.15v.76h-3.2Z"/><path class="i" d="M589,605.83a1.67,1.67,0,0,1-.41-1.19v-2.58a1.65,1.65,0,0,1,.41-1.19,2,2,0,0,1,2.42,0,1.65,1.65,0,0,1,.41,1.19v2.58a1.65,1.65,0,0,1-.41,1.19,2,2,0,0,1-2.42,0Zm1.83-.55a.89.89,0,0,0,.2-.64v-2.58a.89.89,0,0,0-.2-.64.82.82,0,0,0-.62-.22.86.86,0,0,0-.63.22.94.94,0,0,0-.19.64v2.58a.89.89,0,0,0,.2.64,1,1,0,0,0,1.24,0Z"/><path class="i" d="M593.22,605.83a1.67,1.67,0,0,1-.41-1.19v-2.58a1.61,1.61,0,0,1,.42-1.19,1.59,1.59,0,0,1,1.2-.42,1.45,1.45,0,0,1,1.62,1.61v2.58a1.61,1.61,0,0,1-.41,1.19,2,2,0,0,1-2.42,0Zm1.84-.55a.94.94,0,0,0,.2-.64v-2.58a.94.94,0,0,0-.2-.64.84.84,0,0,0-.63-.22.82.82,0,0,0-.62.22.89.89,0,0,0-.2.64v2.58a.89.89,0,0,0,.2.64.82.82,0,0,0,.62.22A.86.86,0,0,0,595.06,605.28Z"/><path class="i" d="M600.1,606.05a1.45,1.45,0,0,1-.6-.6,2.06,2.06,0,0,1-.2-1v-.67a2,2,0,0,1,.2-.94,1.37,1.37,0,0,1,.6-.59,2,2,0,0,1,.95-.21,2.35,2.35,0,0,1,.6.08,1.73,1.73,0,0,1,.5.22,1.38,1.38,0,0,1,.37.35l-.58.52a1.08,1.08,0,0,0-.4-.3,1.13,1.13,0,0,0-.48-.11,1,1,0,0,0-.71.26,1,1,0,0,0-.26.72v.67a1,1,0,0,0,.25.74.94.94,0,0,0,.72.27,1.14,1.14,0,0,0,.88-.44l.58.56a1.38,1.38,0,0,1-.38.34,1.62,1.62,0,0,1-.5.22,2.22,2.22,0,0,1-.59.07A2.12,2.12,0,0,1,600.1,606.05Z"/><path class="i" d="M603.4,602.14h.79v4.06h-.79Zm2.42,1.6a1,1,0,0,0-.21-.67.78.78,0,0,0-.6-.23.81.81,0,0,0-.6.21.73.73,0,0,0-.22.58l-.08-.78a1.46,1.46,0,0,1,.49-.57,1.22,1.22,0,0,1,.67-.2,1.3,1.3,0,0,1,.73.2,1.18,1.18,0,0,1,.46.56,2.4,2.4,0,0,1,.16.89v2.47h-.8Zm2.42,0a.93.93,0,0,0-.22-.67.85.85,0,0,0-.63-.23.73.73,0,0,0-.57.23.89.89,0,0,0-.2.64l-.16-.78a1.51,1.51,0,0,1,.5-.63,1.23,1.23,0,0,1,.69-.22,1.35,1.35,0,0,1,.75.2,1.16,1.16,0,0,1,.48.56,2.4,2.4,0,0,1,.16.89v2.47h-.8Z"/><path class="i" d="M585,615.58a1.34,1.34,0,0,1-.54-.49,2,2,0,0,1-.28-.77h.8a.75.75,0,0,0,.25.49.85.85,0,0,0,.54.17.72.72,0,0,0,.59-.25,1.1,1.1,0,0,0,.21-.72v-.48a1.1,1.1,0,0,0-.21-.72.72.72,0,0,0-.59-.25.83.83,0,0,0-.4.11,1.18,1.18,0,0,0-.34.33h-.72v-3h2.89v.76h-2.1V612a1,1,0,0,1,.34-.18.94.94,0,0,1,.37-.07,1.68,1.68,0,0,1,.84.2,1.29,1.29,0,0,1,.53.6,2.07,2.07,0,0,1,.19.94V614a2.25,2.25,0,0,1-.19.94,1.31,1.31,0,0,1-.55.59,1.69,1.69,0,0,1-.86.21A1.74,1.74,0,0,1,585,615.58Z"/><path class="i" d="M589,615.32a1.65,1.65,0,0,1-.41-1.19v-2.58a1.67,1.67,0,0,1,.41-1.19,2,2,0,0,1,2.42,0,1.65,1.65,0,0,1,.41,1.19v2.58a1.64,1.64,0,0,1-.41,1.19,1.92,1.92,0,0,1-2.42,0Zm1.83-.55a.89.89,0,0,0,.2-.64v-2.58a.88.88,0,0,0-.2-.63.78.78,0,0,0-.62-.22.82.82,0,0,0-.63.22.93.93,0,0,0-.2.63v2.58a.9.9,0,0,0,.21.64,1,1,0,0,0,1.24,0Z"/><path class="i" d="M593.22,615.32a1.65,1.65,0,0,1-.41-1.19v-2.58a1.67,1.67,0,0,1,.41-1.19,2,2,0,0,1,2.42,0,1.61,1.61,0,0,1,.41,1.19v2.58a1.64,1.64,0,0,1-.41,1.19,1.92,1.92,0,0,1-2.42,0Zm1.83-.55a.9.9,0,0,0,.21-.64v-2.58a.93.93,0,0,0-.2-.63.82.82,0,0,0-.63-.22.78.78,0,0,0-.62.22.88.88,0,0,0-.2.63v2.58a.89.89,0,0,0,.2.64,1,1,0,0,0,1.24,0Z"/><path class="i" d="M600.1,615.54a1.45,1.45,0,0,1-.6-.6,2,2,0,0,1-.21-1v-.67a2,2,0,0,1,.21-.94,1.45,1.45,0,0,1,.6-.6,2,2,0,0,1,.95-.2,2.22,2.22,0,0,1,.59.07,2,2,0,0,1,.51.22,1.76,1.76,0,0,1,.37.35l-.58.52a1.17,1.17,0,0,0-.4-.3,1.13,1.13,0,0,0-.48-.11.94.94,0,0,0-.71.26,1,1,0,0,0-.26.73V614a1.07,1.07,0,0,0,.25.74,1,1,0,0,0,.72.26,1.13,1.13,0,0,0,.48-.11,1.26,1.26,0,0,0,.4-.32l.58.55a1.42,1.42,0,0,1-.38.35,1.88,1.88,0,0,1-.5.21,2.27,2.27,0,0,1-.59.08A2,2,0,0,1,600.1,615.54Z"/><path class="i" d="M603.4,611.63h.79v4.06h-.79Zm2.42,1.6a1,1,0,0,0-.21-.66.75.75,0,0,0-.6-.24.81.81,0,0,0-.6.21.75.75,0,0,0-.22.58l-.08-.78a1.5,1.5,0,0,1,.49-.56,1.15,1.15,0,0,1,.67-.2,1.32,1.32,0,0,1,.73.19,1.28,1.28,0,0,1,.46.56,2.42,2.42,0,0,1,.15.9v2.46h-.79Zm2.42,0a.91.91,0,0,0-.22-.66.82.82,0,0,0-.63-.24.72.72,0,0,0-.57.23.9.9,0,0,0-.21.64l-.16-.78a1.51,1.51,0,0,1,.51-.62,1.16,1.16,0,0,1,.69-.22,1.37,1.37,0,0,1,.75.19,1.18,1.18,0,0,1,.47.56,2.22,2.22,0,0,1,.17.9v2.46h-.8Z"/><path class="g" d="M23.49,613.89A12.92,12.92,0,1,1,36.4,601,12.93,12.93,0,0,1,23.49,613.89Zm0-24.83A11.92,11.92,0,1,0,35.4,601,11.93,11.93,0,0,0,23.49,589.06Z"/><polygon class="h" points="35.77 588.74 9.42 600.98 35.77 613.21 32.02 600.98 35.77 588.74"/><path class="g" d="M36.58,614.14,8.23,601l28.35-13.17-4,13.17ZM10.61,601,35,612.29,31.5,601,35,589.66Z"/><path class="g" d="M2.52,605.19a5,5,0,0,1-1.11-.38,4.4,4.4,0,0,1-1-.64l.81-1a3.72,3.72,0,0,0,1.16.69,4.08,4.08,0,0,0,1.38.23,2.73,2.73,0,0,0,1.55-.38,1.17,1.17,0,0,0,.55-1.05h0a1.12,1.12,0,0,0-.25-.77,1.44,1.44,0,0,0-.64-.42,8.23,8.23,0,0,0-1-.25H3.89l-.1,0a9.48,9.48,0,0,1-1.5-.36,2.08,2.08,0,0,1-1-.73,2.42,2.42,0,0,1-.41-1.51h0a2.77,2.77,0,0,1,.38-1.47,2.44,2.44,0,0,1,1.12-.92,4.48,4.48,0,0,1,1.77-.32,4.6,4.6,0,0,1,1,.11,4.9,4.9,0,0,1,1.86.86l-.73,1a4.61,4.61,0,0,0-1-.58,3,3,0,0,0-1.06-.2,2.44,2.44,0,0,0-1.46.38,1.24,1.24,0,0,0-.53,1.07h0a1,1,0,0,0,.27.75,1.74,1.74,0,0,0,.67.4,9.3,9.3,0,0,0,1.12.27h.24a7.93,7.93,0,0,1,1.4.41,2.22,2.22,0,0,1,.94.76,2.4,2.4,0,0,1,.38,1.43h0a2.62,2.62,0,0,1-.4,1.45,2.54,2.54,0,0,1-1.16.91,4.8,4.8,0,0,1-1.83.31A6.44,6.44,0,0,1,2.52,605.19Z"/><rect class="g" x="612.5" y="600.68" width="1" height="4.68"/><rect class="g" x="612.5" y="590.76" width="1" height="4.68"/><rect class="g" x="612.5" y="611.45" width="1" height="5.24"/><rect class="g" x="789.58" y="611.45" width="1" height="5.24"/><rect class="g" x="682.59" y="600.68" width="1" height="4.68"/><rect class="g" x="647.3" y="590.76" width="1" height="4.68"/><rect class="a" width="790.34" height="618.13"/><polygon class="j" points="382.66 213.04 254.28 213.04 403.42 213.04 382.66 213.04"/><rect class="h" x="254.63" y="221.34" width="116.96" height="20.76"/><line class="k" x1="254.63" y1="221.34" x2="254.63" y2="242.11"/><line class="k" x1="371.59" y1="221.34" x2="254.63" y2="221.34"/><line class="k" x1="371.59" y1="242.11" x2="371.59" y2="221.34"/><line class="k" x1="254.63" y1="242.11" x2="371.59" y2="242.11"/><rect class="h" x="391.66" y="221.34" width="13.84" height="20.76"/><line class="k" x1="391.66" y1="221.34" x2="391.66" y2="242.11"/><line class="k" x1="405.5" y1="221.34" x2="391.66" y2="221.34"/><line class="k" x1="405.5" y1="242.11" x2="405.5" y2="221.34"/><line class="k" x1="391.66" y1="242.11" x2="405.5" y2="242.11"/><rect class="h" x="376.78" y="311.31" width="12.46" height="79.93"/><line class="k" x1="376.78" y1="311.31" x2="376.78" y2="391.25"/><line class="k" x1="389.24" y1="311.31" x2="376.78" y2="311.31"/><line class="k" x1="389.24" y1="391.25" x2="389.24" y2="311.31"/><line class="k" x1="376.78" y1="391.25" x2="389.24" y2="391.25"/><rect class="h" x="509.48" y="248.16" width="31.14" height="31.14"/><line class="k" x1="509.48" y1="248.16" x2="509.48" y2="279.3"/><line class="k" x1="540.63" y1="248.16" x2="509.48" y2="248.16"/><line class="k" x1="540.63" y1="279.3" x2="540.63" y2="248.16"/><line class="k" x1="509.48" y1="279.3" x2="540.63" y2="279.3"/><line class="k" x1="513.81" y1="221.34" x2="541.49" y2="221.34"/><line class="k" x1="411.73" y1="221.34" x2="418.65" y2="221.34"/><line class="k" x1="422.46" y1="221.34" x2="423.23" y2="221.34"/><line class="k" x1="427.04" y1="221.34" x2="427.82" y2="221.34"/><line class="k" x1="431.63" y1="221.34" x2="438.55" y2="221.34"/><line class="k" x1="442.35" y1="221.34" x2="442.87" y2="221.34"/><line class="k" x1="442.87" y1="221.34" x2="449.79" y2="221.34"/><line class="k" x1="254.28" y1="213.04" x2="254.28" y2="213.04"/><line class="k" x1="254.28" y1="213.04" x2="403.42" y2="213.04"/><line class="k" x1="389.24" y1="221.34" x2="375.39" y2="221.34"/><line class="k" x1="375.39" y1="221.34" x2="375.39" y2="238.65"/><line class="k" x1="375.39" y1="238.65" x2="389.24" y2="238.65"/><line class="k" x1="389.24" y1="238.65" x2="389.24" y2="221.34"/><line class="k" x1="254.28" y1="391.25" x2="306.19" y2="391.25"/><line class="k" x1="247.36" y1="280.52" x2="254.28" y2="280.52"/><line class="k" x1="247.36" y1="245.91" x2="254.28" y2="245.91"/><line class="k" x1="391.66" y1="391.25" x2="423.84" y2="391.25"/><line class="k" x1="391.66" y1="282.59" x2="415.19" y2="282.59"/><line class="k" x1="446.33" y1="282.59" x2="541.49" y2="282.59"/><line class="k" x1="391.66" y1="280.17" x2="415.19" y2="280.17"/><line class="k" x1="452.21" y1="280.17" x2="541.49" y2="280.17"/><line class="k" x1="493.05" y1="391.25" x2="541.49" y2="391.25"/><line class="k" x1="247.36" y1="398.17" x2="306.19" y2="398.17"/><line class="k" x1="375.39" y1="398.17" x2="423.84" y2="398.17"/><line class="k" x1="493.05" y1="398.17" x2="541.49" y2="398.17"/><line class="k" x1="240.44" y1="405.09" x2="240.44" y2="278.78"/><line class="k" x1="240.44" y1="247.64" x2="240.44" y2="213.04"/><line class="k" x1="493.05" y1="398.17" x2="493.05" y2="391.25"/><line class="k" x1="423.84" y1="398.17" x2="423.84" y2="391.25"/><line class="k" x1="306.19" y1="398.17" x2="306.19" y2="391.25"/><line class="k" x1="375.39" y1="398.17" x2="375.39" y2="391.25"/><line class="k" x1="541.49" y1="405.09" x2="541.49" y2="398.17"/><line class="k" x1="541.49" y1="391.25" x2="541.49" y2="282.59"/><line class="k" x1="541.49" y1="280.17" x2="541.49" y2="247.3"/><line class="k" x1="541.49" y1="243.84" x2="541.49" y2="221.34"/><line class="k" x1="541.49" y1="280.17" x2="541.49" y2="247.3"/><line class="k" x1="541.49" y1="243.84" x2="541.49" y2="221.34"/><line class="k" x1="391.66" y1="391.25" x2="391.66" y2="282.59"/><line class="k" x1="391.66" y1="280.17" x2="391.66" y2="276.71"/><line class="k" x1="391.66" y1="245.57" x2="391.66" y2="221.34"/><line class="k" x1="389.24" y1="391.25" x2="389.24" y2="276.71"/><line class="k" x1="389.24" y1="245.57" x2="389.24" y2="242.11"/><line class="k" x1="254.28" y1="391.25" x2="254.28" y2="280.51"/><line class="k" x1="254.28" y1="245.91" x2="254.28" y2="221.34"/><line class="k" x1="403.42" y1="213.04" x2="403.42" y2="213.04"/><line class="k" x1="411.73" y1="213.04" x2="411.73" y2="213.04"/><line class="k" x1="247.36" y1="398.17" x2="247.36" y2="280.52"/><line class="k" x1="247.36" y1="245.91" x2="247.36" y2="213.04"/><line class="k" x1="240.44" y1="278.79" x2="240.44" y2="247.64"/><line class="k" x1="254.28" y1="245.91" x2="254.28" y2="280.51"/><line class="k" x1="550.14" y1="273.59" x2="550.14" y2="273.59"/><line class="k" x1="550.14" y1="283.98" x2="550.14" y2="283.98"/><line class="k" x1="550.14" y1="294.36" x2="550.14" y2="294.36"/><line class="k" x1="550.14" y1="304.74" x2="550.14" y2="304.74"/><line class="k" x1="550.14" y1="315.12" x2="550.14" y2="315.12"/><line class="k" x1="550.14" y1="325.5" x2="550.14" y2="325.5"/><line class="k" x1="550.14" y1="335.88" x2="550.14" y2="335.88"/><line class="k" x1="550.14" y1="346.26" x2="550.14" y2="346.26"/><line class="k" x1="550.14" y1="356.64" x2="550.14" y2="356.64"/><line class="k" x1="449.79" y1="213.04" x2="541.49" y2="213.04"/><line class="k" x1="391.66" y1="221.34" x2="411.73" y2="221.34"/><line class="k" x1="452.21" y1="221.34" x2="510.35" y2="221.34"/><line class="k" x1="389.24" y1="276.71" x2="391.66" y2="276.71"/><line class="k" x1="411.73" y1="213.04" x2="413.46" y2="213.04"/><line class="k" x1="446.33" y1="217.02" x2="415.19" y2="217.02"/><line class="k" x1="446.33" y1="213.04" x2="415.19" y2="213.04"/><line class="k" x1="446.33" y1="217.02" x2="446.33" y2="248.16"/><line class="k" x1="446.33" y1="213.04" x2="446.33" y2="217.02"/><line class="k" x1="415.19" y1="217.02" x2="415.19" y2="213.04"/><line class="k" x1="415.19" y1="217.02" x2="413.46" y2="217.02"/><line class="k" x1="415.19" y1="213.04" x2="413.46" y2="213.04"/><line class="k" x1="448.06" y1="217.02" x2="446.33" y2="217.02"/><line class="k" x1="448.06" y1="213.04" x2="446.33" y2="213.04"/><line class="k" x1="411.73" y1="217.02" x2="411.73" y2="213.04"/><line class="k" x1="449.79" y1="217.02" x2="449.79" y2="213.04"/><line class="k" x1="413.46" y1="217.02" x2="413.46" y2="213.04"/><line class="k" x1="448.06" y1="217.02" x2="448.06" y2="213.04"/><line class="k" x1="448.06" y1="217.02" x2="449.79" y2="217.02"/><line class="k" x1="413.46" y1="217.02" x2="411.73" y2="217.02"/><line class="k" x1="449.79" y1="217.02" x2="449.79" y2="221.34"/><line class="k" x1="411.73" y1="217.02" x2="411.73" y2="221.34"/><line class="k" x1="449.79" y1="221.34" x2="452.21" y2="221.34"/><line class="k" x1="415.19" y1="280.17" x2="415.19" y2="282.59"/><line class="k" x1="389.24" y1="245.57" x2="391.66" y2="245.57"/><line class="k" x1="371.93" y1="242.11" x2="389.24" y2="242.11"/><line class="k" x1="371.93" y1="242.11" x2="371.93" y2="221.34"/><line class="k" x1="389.24" y1="221.34" x2="391.66" y2="221.34"/><line class="k" x1="371.93" y1="221.34" x2="375.39" y2="221.34"/><line class="k" x1="389.24" y1="238.65" x2="389.24" y2="242.11"/><line class="k" x1="389.24" y1="391.25" x2="391.66" y2="391.25"/><line class="k" x1="541.49" y1="213.04" x2="550.14" y2="213.04"/><line class="k" x1="254.28" y1="213.04" x2="254.28" y2="221.34"/><line class="k" x1="375.39" y1="391.25" x2="389.24" y2="391.25"/><line class="k" x1="541.49" y1="391.25" x2="541.49" y2="398.17"/><line class="k" x1="307.92" y1="405.09" x2="307.92" y2="398.17"/><line class="k" x1="307.92" y1="398.17" x2="306.19" y2="398.17"/><line class="k" x1="373.66" y1="405.09" x2="373.66" y2="398.17"/><line class="k" x1="373.66" y1="398.17" x2="375.39" y2="398.17"/><line class="k" x1="306.19" y1="391.25" x2="375.39" y2="391.25"/><line class="k" x1="425.57" y1="405.09" x2="425.57" y2="398.17"/><line class="k" x1="425.57" y1="398.17" x2="423.84" y2="398.17"/><line class="k" x1="491.32" y1="405.09" x2="491.32" y2="398.17"/><line class="k" x1="491.32" y1="398.17" x2="493.05" y2="398.17"/><line class="k" x1="493.05" y1="391.25" x2="423.84" y2="391.25"/><line class="k" x1="247.36" y1="247.64" x2="240.44" y2="247.64"/><line class="k" x1="247.36" y1="247.64" x2="247.36" y2="245.91"/><line class="k" x1="247.36" y1="278.79" x2="240.44" y2="278.79"/><line class="k" x1="247.36" y1="278.79" x2="247.36" y2="280.52"/><line class="k" x1="250.82" y1="250.06" x2="250.82" y2="276.36"/><line class="k" x1="248.05" y1="276.36" x2="248.05" y2="250.06"/><line class="k" x1="249.44" y1="250.06" x2="249.44" y2="276.36"/><line class="k" x1="448.06" y1="213.04" x2="449.79" y2="213.04"/><line class="k" x1="510.35" y1="247.3" x2="541.49" y2="247.3"/><line class="k" x1="513.81" y1="243.84" x2="541.49" y2="243.84"/><line class="k" x1="449.79" y1="280.17" x2="449.79" y2="276.71"/><line class="k" x1="449.79" y1="249.03" x2="449.79" y2="221.34"/><line class="k" x1="452.21" y1="280.17" x2="452.21" y2="276.71"/><line class="k" x1="452.21" y1="249.03" x2="452.21" y2="221.34"/><line class="k" x1="449.79" y1="276.71" x2="452.21" y2="276.71"/><line class="k" x1="449.79" y1="249.03" x2="452.21" y2="249.03"/><line class="k" x1="510.35" y1="247.3" x2="510.35" y2="243.84"/><line class="k" x1="510.35" y1="247.3" x2="510.35" y2="221.34"/><line class="k" x1="513.81" y1="243.84" x2="513.81" y2="221.34"/><line class="k" x1="536.3" y1="405.09" x2="536.3" y2="405.09"/><line class="k" x1="446.33" y1="280.17" x2="446.33" y2="282.59"/><line class="k" x1="449.79" y1="280.17" x2="446.33" y2="280.17"/><line class="k" x1="510.35" y1="221.34" x2="513.81" y2="221.34"/><line class="k" x1="541.49" y1="243.84" x2="541.49" y2="247.3"/><line class="k" x1="460.52" y1="394.71" x2="488.89" y2="394.71"/><line class="k" x1="488.89" y1="397.47" x2="460.52" y2="397.47"/><line class="k" x1="460.52" y1="396.09" x2="488.89" y2="396.09"/><line class="k" x1="427.99" y1="394.71" x2="456.37" y2="394.71"/><line class="k" x1="456.37" y1="397.47" x2="427.99" y2="397.47"/><line class="k" x1="427.99" y1="396.09" x2="456.37" y2="396.09"/><line class="k" x1="342.87" y1="394.71" x2="371.24" y2="394.71"/><line class="k" x1="371.24" y1="397.47" x2="342.87" y2="397.47"/><line class="k" x1="342.87" y1="396.09" x2="371.24" y2="396.09"/><line class="k" x1="310.34" y1="394.71" x2="338.71" y2="394.71"/><line class="k" x1="338.71" y1="397.47" x2="310.34" y2="397.47"/><line class="k" x1="310.34" y1="396.09" x2="338.71" y2="396.09"/><line class="k" x1="389.24" y1="247.3" x2="389.24" y2="274.98"/><line class="k" x1="389.24" y1="247.3" x2="361.55" y2="247.3"/><line class="k" x1="391.66" y1="247.3" x2="389.24" y2="247.3"/><line class="k" x1="389.24" y1="274.98" x2="391.66" y2="274.98"/><line class="k" x1="389.24" y1="274.98" x2="389.24" y2="276.71"/><line class="k" x1="391.66" y1="274.98" x2="391.66" y2="276.71"/><line class="k" x1="389.24" y1="245.57" x2="389.24" y2="247.3"/><line class="k" x1="391.66" y1="245.57" x2="391.66" y2="247.3"/><line class="k" x1="391.66" y1="247.3" x2="391.66" y2="254.22"/><line class="k" x1="391.66" y1="258.02" x2="391.66" y2="258.8"/><line class="k" x1="391.66" y1="262.61" x2="391.66" y2="263.39"/><line class="k" x1="391.66" y1="267.19" x2="391.66" y2="268.06"/><line class="k" x1="391.66" y1="268.06" x2="391.66" y2="274.98"/><line class="k" x1="389.24" y1="247.3" x2="388.37" y2="247.3"/><line class="k" x1="388.37" y1="247.3" x2="388.37" y2="243.84"/><line class="k" x1="388.37" y1="243.84" x2="389.23" y2="243.84"/><line class="k" x1="391.66" y1="247.3" x2="392.52" y2="247.3"/><line class="k" x1="392.52" y1="247.3" x2="392.52" y2="243.84"/><line class="k" x1="392.52" y1="243.84" x2="391.66" y2="243.84"/><line class="k" x1="388.37" y1="274.98" x2="388.37" y2="278.44"/><line class="k" x1="388.37" y1="278.44" x2="389.23" y2="278.44"/><line class="k" x1="391.66" y1="274.98" x2="392.52" y2="274.98"/><line class="k" x1="392.52" y1="274.98" x2="392.52" y2="278.44"/><line class="k" x1="392.52" y1="278.44" x2="391.66" y2="278.44"/><line class="k" x1="416.92" y1="282.59" x2="444.6" y2="282.59"/><line class="k" x1="416.92" y1="282.59" x2="416.92" y2="310.27"/><line class="k" x1="416.92" y1="280.17" x2="416.92" y2="282.59"/><line class="k" x1="444.6" y1="282.59" x2="444.6" y2="280.17"/><line class="k" x1="444.6" y1="282.59" x2="446.33" y2="282.59"/><line class="k" x1="444.6" y1="280.17" x2="446.33" y2="280.17"/><line class="k" x1="415.19" y1="282.59" x2="416.92" y2="282.59"/><line class="k" x1="415.19" y1="280.17" x2="416.92" y2="280.17"/><line class="k" x1="416.92" y1="280.17" x2="423.84" y2="280.17"/><line class="k" x1="427.65" y1="280.17" x2="428.43" y2="280.17"/><line class="k" x1="432.23" y1="280.17" x2="433.01" y2="280.17"/><line class="k" x1="436.82" y1="280.17" x2="437.68" y2="280.17"/><line class="k" x1="437.68" y1="280.17" x2="444.6" y2="280.17"/><line class="k" x1="416.92" y1="282.59" x2="416.92" y2="283.46"/><line class="k" x1="416.92" y1="283.46" x2="413.46" y2="283.46"/><line class="k" x1="413.46" y1="283.46" x2="413.46" y2="282.59"/><line class="k" x1="416.92" y1="280.17" x2="416.92" y2="279.31"/><line class="k" x1="416.92" y1="279.3" x2="413.46" y2="279.3"/><line class="k" x1="413.46" y1="279.3" x2="413.46" y2="280.17"/><line class="k" x1="444.6" y1="283.46" x2="448.06" y2="283.46"/><line class="k" x1="448.06" y1="283.46" x2="448.06" y2="282.59"/><line class="k" x1="444.6" y1="280.17" x2="444.6" y2="279.31"/><line class="k" x1="444.6" y1="279.3" x2="448.06" y2="279.3"/><line class="k" x1="448.06" y1="279.3" x2="448.06" y2="280.17"/><line class="k" x1="449.79" y1="250.76" x2="449.79" y2="274.98"/><line class="k" x1="449.79" y1="250.76" x2="425.57" y2="250.76"/><line class="k" x1="452.21" y1="250.76" x2="449.79" y2="250.76"/><line class="k" x1="449.79" y1="274.98" x2="452.21" y2="274.98"/><line class="k" x1="449.79" y1="274.98" x2="449.79" y2="276.71"/><line class="k" x1="452.21" y1="274.98" x2="452.21" y2="276.71"/><line class="k" x1="449.79" y1="249.03" x2="449.79" y2="250.76"/><line class="k" x1="452.21" y1="249.03" x2="452.21" y2="250.76"/><line class="k" x1="452.21" y1="250.76" x2="452.21" y2="257.68"/><line class="k" x1="452.21" y1="261.48" x2="452.21" y2="262.26"/><line class="k" x1="452.21" y1="266.07" x2="452.21" y2="266.85"/><line class="k" x1="452.21" y1="268.06" x2="452.21" y2="274.98"/><line class="k" x1="449.79" y1="250.76" x2="448.93" y2="250.76"/><line class="k" x1="448.93" y1="250.76" x2="448.93" y2="247.3"/><line class="k" x1="448.93" y1="247.3" x2="449.79" y2="247.3"/><line class="k" x1="452.21" y1="250.76" x2="453.08" y2="250.76"/><line class="k" x1="453.08" y1="250.76" x2="453.08" y2="247.3"/><line class="k" x1="453.08" y1="247.3" x2="452.22" y2="247.3"/><line class="k" x1="448.93" y1="274.98" x2="448.93" y2="278.44"/><line class="k" x1="448.93" y1="278.44" x2="449.79" y2="278.44"/><line class="k" x1="452.21" y1="274.98" x2="453.08" y2="274.98"/><line class="k" x1="453.08" y1="274.98" x2="453.08" y2="278.44"/><line class="k" x1="453.08" y1="278.44" x2="452.22" y2="278.44"/><line class="k" x1="550.14" y1="405.09" x2="550.14" y2="221.69"/><line class="k" x1="548.41" y1="219.96" x2="550.14" y2="219.96"/><line class="k" x1="550.14" y1="221.69" x2="550.14" y2="221.69"/><line class="k" x1="548.41" y1="405.09" x2="548.41" y2="219.96"/><line class="k" x1="510.35" y1="243.84" x2="513.81" y2="243.84"/><line class="k" x1="389.24" y1="242.11" x2="389.24" y2="238.65"/><line class="k" x1="378.85" y1="242.11" x2="378.85" y2="238.65"/><line class="k" x1="550.14" y1="263.21" x2="550.14" y2="263.21"/><line class="k" x1="550.14" y1="365.64" x2="550.14" y2="365.64"/><line class="k" x1="254.28" y1="221.34" x2="371.93" y2="221.34"/><line class="l" x1="375.39" y1="221.34" x2="381.62" y2="221.34"/><line class="l" x1="383.18" y1="221.34" x2="383.44" y2="221.34"/><line class="l" x1="385" y1="221.34" x2="385.26" y2="221.34"/><line class="l" x1="386.81" y1="221.34" x2="389.24" y2="221.34"/><line class="l" x1="389.24" y1="221.34" x2="389.24" y2="225.15"/><line class="l" x1="389.24" y1="226.71" x2="389.24" y2="226.97"/><line class="l" x1="389.24" y1="228.52" x2="389.24" y2="228.78"/><line class="l" x1="389.24" y1="230.34" x2="389.24" y2="236.57"/><line class="l" x1="389.24" y1="238.13" x2="389.24" y2="238.39"/><line class="l" x1="387.94" y1="238.65" x2="387.68" y2="238.65"/><line class="l" x1="386.12" y1="238.65" x2="379.89" y2="238.65"/><line class="l" x1="378.34" y1="238.65" x2="378.08" y2="238.65"/><line class="l" x1="376.52" y1="238.65" x2="376.26" y2="238.65"/><line class="l" x1="375.39" y1="237.95" x2="375.39" y2="231.72"/><line class="l" x1="375.39" y1="230.17" x2="375.39" y2="229.91"/><line class="l" x1="375.39" y1="228.35" x2="375.39" y2="228.09"/><line class="l" x1="375.39" y1="226.53" x2="375.39" y2="221.34"/><line class="k" x1="248.05" y1="248.68" x2="247.36" y2="248.68"/><line class="k" x1="247.36" y1="248.68" x2="247.36" y2="245.91"/><line class="k" x1="247.36" y1="245.91" x2="250.13" y2="245.91"/><line class="k" x1="250.13" y1="245.91" x2="250.13" y2="247.3"/><line class="k" x1="250.82" y1="247.3" x2="250.82" y2="250.06"/><line class="k" x1="250.82" y1="250.06" x2="248.05" y2="250.06"/><line class="k" x1="248.05" y1="250.06" x2="248.05" y2="247.3"/><line class="k" x1="248.05" y1="247.3" x2="250.82" y2="247.3"/><line class="k" x1="248.05" y1="277.75" x2="247.36" y2="277.75"/><line class="k" x1="247.36" y1="277.75" x2="247.36" y2="280.52"/><line class="k" x1="247.36" y1="280.52" x2="250.13" y2="280.52"/><line class="k" x1="250.13" y1="280.52" x2="250.13" y2="279.13"/><line class="k" x1="250.82" y1="279.13" x2="250.82" y2="276.36"/><line class="k" x1="250.82" y1="276.36" x2="248.05" y2="276.36"/><line class="k" x1="248.05" y1="276.36" x2="248.05" y2="279.13"/><line class="k" x1="248.05" y1="279.13" x2="250.82" y2="279.13"/><line class="k" x1="456.37" y1="394.71" x2="460.52" y2="394.71"/><line class="k" x1="460.52" y1="394.71" x2="460.52" y2="397.48"/><line class="k" x1="460.52" y1="397.47" x2="456.37" y2="397.47"/><line class="k" x1="456.37" y1="397.47" x2="456.37" y2="394.71"/><line class="k" x1="490.28" y1="397.47" x2="490.28" y2="398.17"/><line class="k" x1="490.28" y1="398.17" x2="493.05" y2="398.17"/><line class="k" x1="493.05" y1="398.17" x2="493.05" y2="395.4"/><line class="k" x1="493.05" y1="395.4" x2="491.66" y2="395.4"/><line class="k" x1="491.66" y1="394.71" x2="488.89" y2="394.71"/><line class="k" x1="488.89" y1="394.71" x2="488.89" y2="397.48"/><line class="k" x1="488.89" y1="397.47" x2="491.66" y2="397.47"/><line class="k" x1="491.66" y1="397.47" x2="491.66" y2="394.71"/><line class="k" x1="425.22" y1="394.71" x2="427.99" y2="394.71"/><line class="k" x1="427.99" y1="394.71" x2="427.99" y2="397.48"/><line class="k" x1="427.99" y1="397.47" x2="425.22" y2="397.47"/><line class="k" x1="425.22" y1="397.47" x2="425.22" y2="394.71"/><line class="k" x1="426.61" y1="397.47" x2="426.61" y2="398.17"/><line class="k" x1="426.61" y1="398.17" x2="423.84" y2="398.17"/><line class="k" x1="423.84" y1="398.17" x2="423.84" y2="395.4"/><line class="k" x1="423.84" y1="395.4" x2="425.22" y2="395.4"/><line class="k" x1="338.71" y1="394.71" x2="342.87" y2="394.71"/><line class="k" x1="342.87" y1="394.71" x2="342.87" y2="397.48"/><line class="k" x1="342.87" y1="397.47" x2="338.71" y2="397.47"/><line class="k" x1="338.71" y1="397.47" x2="338.71" y2="394.71"/><line class="k" x1="372.63" y1="397.47" x2="372.63" y2="398.17"/><line class="k" x1="372.63" y1="398.17" x2="375.4" y2="398.17"/><line class="k" x1="375.39" y1="398.17" x2="375.39" y2="395.4"/><line class="k" x1="375.39" y1="395.4" x2="374.01" y2="395.4"/><line class="k" x1="374.01" y1="394.71" x2="371.24" y2="394.71"/><line class="k" x1="371.24" y1="394.71" x2="371.24" y2="397.48"/><line class="k" x1="371.24" y1="397.47" x2="374.01" y2="397.47"/><line class="k" x1="374.01" y1="397.47" x2="374.01" y2="394.71"/><line class="k" x1="307.57" y1="394.71" x2="310.34" y2="394.71"/><line class="k" x1="310.34" y1="394.71" x2="310.34" y2="397.48"/><line class="k" x1="310.34" y1="397.47" x2="307.57" y2="397.47"/><line class="k" x1="307.57" y1="397.47" x2="307.57" y2="394.71"/><line class="k" x1="308.95" y1="397.47" x2="308.95" y2="398.17"/><line class="k" x1="308.95" y1="398.17" x2="306.19" y2="398.17"/><line class="k" x1="306.19" y1="398.17" x2="306.19" y2="395.4"/><line class="k" x1="306.19" y1="395.4" x2="307.57" y2="395.4"/><g class="m"><path class="k" d="M446.33,248.16A31.14,31.14,0,0,1,415.19,217"/><path class="k" d="M389.24,275a27.69,27.69,0,0,1-27.69-27.68"/><path class="k" d="M444.6,282.59a27.68,27.68,0,0,1-27.68,27.68"/><path class="k" d="M449.79,275a24.23,24.23,0,0,1-24.22-24.22"/></g><line class="k" x1="499.97" y1="405.09" x2="499.97" y2="405.09"/><line class="k" x1="299.27" y1="405.09" x2="299.27" y2="405.09"/><line class="k" x1="513.81" y1="221.34" x2="513.81" y2="243.84"/><line class="k" x1="513.81" y1="243.84" x2="541.49" y2="243.84"/><line class="k" x1="541.49" y1="243.84" x2="517.27" y2="240.37"/><line class="k" x1="517.27" y1="240.38" x2="513.81" y2="221.34"/><line class="k" x1="389.24" y1="238.65" x2="375.39" y2="238.65"/><line class="k" x1="375.39" y1="238.65" x2="375.39" y2="221.34"/><line class="k" x1="375.39" y1="221.34" x2="378.85" y2="235.18"/><line class="k" x1="378.85" y1="235.18" x2="389.24" y2="238.65"/><line class="k" x1="350.83" y1="242.39" x2="350.83" y2="221.63"/><line class="k" x1="358.76" y1="229.56" x2="363.65" y2="234.45"/><line class="k" x1="363.65" y1="229.56" x2="358.76" y2="234.45"/><line class="k" x1="361.21" y1="235.47" x2="361.21" y2="228.55"/><line class="k" x1="357.75" y1="232.01" x2="364.67" y2="232.01"/><line class="k" x1="371.59" y1="221.63" x2="371.59" y2="242.39"/><line class="k" x1="350.83" y1="242.39" x2="371.59" y2="242.39"/><line class="k" x1="350.83" y1="221.63" x2="371.59" y2="221.63"/><line class="k" x1="330.93" y1="240.66" x2="349.96" y2="240.66"/><line class="k" x1="349.96" y1="240.66" x2="349.96" y2="223.36"/><line class="k" x1="349.96" y1="223.36" x2="330.93" y2="223.36"/><line class="k" x1="330.93" y1="223.36" x2="330.93" y2="240.66"/><line class="k" x1="330.06" y1="242.39" x2="350.83" y2="242.39"/><line class="k" x1="330.06" y1="221.63" x2="350.83" y2="221.63"/><line class="k" x1="332.66" y1="238.93" x2="348.23" y2="238.93"/><line class="k" x1="348.23" y1="238.93" x2="348.23" y2="226.82"/><line class="k" x1="348.23" y1="226.82" x2="332.66" y2="226.82"/><line class="k" x1="332.66" y1="226.82" x2="332.66" y2="238.93"/><line class="k" x1="309.3" y1="221.63" x2="309.3" y2="242.39"/><line class="k" x1="309.3" y1="242.39" x2="288.54" y2="242.39"/><line class="k" x1="288.54" y1="242.39" x2="288.54" y2="221.63"/><line class="k" x1="288.54" y1="221.63" x2="309.3" y2="221.63"/><line class="k" x1="288.54" y1="221.63" x2="288.54" y2="242.39"/><line class="k" x1="288.54" y1="242.39" x2="267.78" y2="242.39"/><line class="k" x1="267.78" y1="242.39" x2="267.78" y2="221.63"/><line class="k" x1="267.78" y1="221.63" x2="288.54" y2="221.63"/><line class="k" x1="270.61" y1="243.33" x2="285.71" y2="243.33"/><line class="k" x1="470.9" y1="279.24" x2="470.9" y2="275.78"/><line class="k" x1="470.9" y1="275.78" x2="491.66" y2="275.78"/><line class="k" x1="491.66" y1="275.78" x2="491.66" y2="279.24"/><line class="k" x1="491.66" y1="279.24" x2="490.62" y2="279.24"/><line class="k" x1="490.62" y1="279.24" x2="490.62" y2="276.82"/><line class="k" x1="490.62" y1="276.82" x2="471.94" y2="276.82"/><line class="k" x1="471.94" y1="276.82" x2="471.94" y2="279.24"/><line class="k" x1="471.94" y1="279.24" x2="470.9" y2="279.24"/><line class="k" x1="470.9" y1="279.24" x2="470.9" y2="275.78"/><line class="k" x1="491.66" y1="279.24" x2="491.66" y2="275.78"/><line class="k" x1="471.94" y1="279.24" x2="471.94" y2="276.82"/><line class="k" x1="490.62" y1="279.24" x2="490.62" y2="276.82"/><line class="k" x1="470.9" y1="275.78" x2="491.66" y2="275.78"/><line class="k" x1="470.9" y1="276.82" x2="491.66" y2="276.82"/><line class="k" x1="470.9" y1="279.24" x2="471.94" y2="279.24"/><line class="k" x1="490.62" y1="279.24" x2="491.66" y2="279.24"/><line class="k" x1="380.29" y1="336.13" x2="380.29" y2="367.69"/><line class="k" x1="380.29" y1="367.69" x2="382.42" y2="367.69"/><line class="k" x1="382.42" y1="367.69" x2="384.54" y2="359.8"/><line class="k" x1="384.54" y1="359.8" x2="384.54" y2="344.02"/><line class="k" x1="384.54" y1="344.02" x2="382.41" y2="336.13"/><line class="k" x1="382.42" y1="336.13" x2="380.29" y2="336.13"/><line class="k" x1="381.14" y1="365.59" x2="381.14" y2="363.48"/><line class="k" x1="381.14" y1="363.48" x2="381.67" y2="363.48"/><line class="k" x1="381.67" y1="363.48" x2="381.67" y2="365.59"/><line class="k" x1="381.67" y1="365.59" x2="381.14" y2="365.59"/><line class="k" x1="381.14" y1="362.96" x2="381.14" y2="360.85"/><line class="k" x1="381.14" y1="360.85" x2="381.67" y2="360.85"/><line class="k" x1="381.67" y1="360.85" x2="381.67" y2="362.96"/><line class="k" x1="381.67" y1="362.96" x2="381.14" y2="362.96"/><line class="k" x1="381.14" y1="360.32" x2="381.14" y2="359.27"/><line class="k" x1="381.14" y1="359.27" x2="381.67" y2="359.27"/><line class="k" x1="381.67" y1="359.27" x2="381.67" y2="360.32"/><line class="k" x1="381.67" y1="360.32" x2="381.14" y2="360.32"/><line class="k" x1="382.42" y1="336.13" x2="382.42" y2="367.69"/><line class="k" x1="309.3" y1="242.39" x2="309.3" y2="221.63"/><line class="k" x1="309.3" y1="221.63" x2="330.06" y2="221.63"/><line class="k" x1="330.06" y1="221.63" x2="330.06" y2="242.39"/><line class="k" x1="330.06" y1="242.39" x2="309.3" y2="242.39"/><line class="k" x1="254.63" y1="221.63" x2="371.59" y2="221.63"/><line class="k" x1="371.59" y1="221.63" x2="371.59" y2="242.39"/><line class="k" x1="371.59" y1="242.39" x2="254.63" y2="242.39"/><line class="k" x1="254.63" y1="242.39" x2="254.63" y2="221.63"/><line class="k" x1="311.38" y1="321.98" x2="294.08" y2="321.98"/><line class="k" x1="294.08" y1="321.98" x2="294.08" y2="349.66"/><line class="k" x1="294.08" y1="349.66" x2="311.38" y2="349.66"/><line class="k" x1="311.38" y1="349.66" x2="311.38" y2="321.98"/><line class="k" x1="256.01" y1="285.64" x2="256.01" y2="251.04"/><line class="k" x1="256.01" y1="251.04" x2="259.47" y2="251.04"/><line class="k" x1="259.47" y1="251.04" x2="259.47" y2="285.64"/><line class="k" x1="259.47" y1="285.64" x2="256.01" y2="285.64"/><line class="k" x1="499.97" y1="389.45" x2="465.36" y2="389.45"/><line class="k" x1="465.36" y1="389.45" x2="465.36" y2="387.27"/><line class="k" x1="465.36" y1="387.27" x2="499.97" y2="387.27"/><line class="k" x1="499.97" y1="387.27" x2="499.97" y2="389.45"/><line class="k" x1="337.33" y1="389.45" x2="309.65" y2="389.45"/><line class="k" x1="309.65" y1="389.45" x2="309.65" y2="385.99"/><line class="k" x1="309.65" y1="385.99" x2="337.33" y2="385.99"/><line class="k" x1="337.33" y1="385.99" x2="337.33" y2="389.45"/><g class="m"><path class="k" d="M341.14,230.28a.7.7,0,1,0-.7.69.7.7,0,0,0,.7-.69"/><path class="k" d="M325.74,232a6.06,6.06,0,1,0-6.06,6.05,6.06,6.06,0,0,0,6.06-6.05"/><path class="k" d="M324.7,232a5,5,0,1,0-5,5,5,5,0,0,0,5-5"/><path class="k" d="M286.65,226.91a3.4,3.4,0,1,0-3.4,3.4,3.4,3.4,0,0,0,3.4-3.4"/><path class="k" d="M286.65,237.1a3.4,3.4,0,1,0-3.4,3.4,3.4,3.4,0,0,0,3.4-3.4"/><path class="k" d="M276.46,237.1a3.4,3.4,0,1,0-3.4,3.4,3.4,3.4,0,0,0,3.4-3.4"/><path class="k" d="M384.15,358.22a6.32,6.32,0,0,1,0-12.63"/><path class="k" d="M384.15,345.59a12.64,12.64,0,0,1,0,12.63"/><path class="k" d="M259.47,247.58a1.73,1.73,0,1,0-1.73,1.73,1.72,1.72,0,0,0,1.73-1.73"/><path class="k" d="M463.63,388.36a1.73,1.73,0,1,0-1.73,1.73,1.73,1.73,0,0,0,1.73-1.73"/><path class="k" d="M307.92,387.72a1.73,1.73,0,1,0-1.73,1.73,1.74,1.74,0,0,0,1.73-1.73"/></g><line class="k" x1="511.21" y1="253.35" x2="511.21" y2="274.11"/><line class="k" x1="514.67" y1="277.57" x2="535.44" y2="277.57"/><line class="k" x1="538.9" y1="274.11" x2="538.9" y2="253.35"/><line class="k" x1="535.44" y1="249.89" x2="514.67" y2="249.89"/><g class="m"><path class="k" d="M536.3,253.35a.87.87,0,0,0-1.73,0,.87.87,0,1,0,1.73,0"/><path class="k" d="M511.21,253.35a3.47,3.47,0,0,1,3.46-3.46"/><path class="k" d="M514.67,277.57a3.46,3.46,0,0,1-3.46-3.46"/><path class="k" d="M535.44,249.89a3.46,3.46,0,0,1,3.46,3.46"/><path class="k" d="M538.9,274.11a3.46,3.46,0,0,1-3.46,3.46"/></g><rect class="h" x="294.08" y="322.04" width="17.3" height="27.68"/><line class="k" x1="294.08" y1="322.04" x2="294.08" y2="349.72"/><line class="k" x1="311.38" y1="322.04" x2="294.08" y2="322.04"/><line class="k" x1="311.38" y1="349.72" x2="311.38" y2="322.04"/><line class="k" x1="294.08" y1="349.72" x2="311.38" y2="349.72"/><rect class="h" x="470.9" y="276.82" width="1.04" height="2.42"/><line class="k" x1="471.94" y1="276.82" x2="470.9" y2="276.82"/><line class="k" x1="471.94" y1="279.24" x2="471.94" y2="276.82"/><line class="k" x1="470.9" y1="279.24" x2="471.94" y2="279.24"/><line class="k" x1="470.9" y1="276.82" x2="470.9" y2="279.24"/><rect class="h" x="470.9" y="275.78" width="20.76" height="1.04"/><line class="k" x1="470.9" y1="275.78" x2="470.9" y2="276.82"/><line class="k" x1="491.66" y1="275.78" x2="470.9" y2="275.78"/><line class="k" x1="491.66" y1="276.82" x2="491.66" y2="275.78"/><line class="k" x1="470.9" y1="276.82" x2="491.66" y2="276.82"/><rect class="h" x="490.62" y="276.82" width="1.04" height="2.42"/><line class="k" x1="491.66" y1="276.82" x2="490.62" y2="276.82"/><line class="k" x1="491.66" y1="279.24" x2="491.66" y2="276.82"/><line class="k" x1="490.62" y1="279.24" x2="491.66" y2="279.24"/><line class="k" x1="490.62" y1="276.82" x2="490.62" y2="279.24"/><rect class="h" x="452.21" y="221.34" width="58.14" height="5.19"/><line class="k" x1="452.21" y1="221.34" x2="510.35" y2="221.34"/><line class="k" x1="510.35" y1="221.34" x2="510.35" y2="226.53"/><line class="k" x1="510.35" y1="226.53" x2="452.21" y2="226.53"/><line class="k" x1="452.21" y1="226.53" x2="452.21" y2="221.34"/><polygon class="n" points="259.47 247.58 258.96 248.8 257.74 249.31 256.52 248.8 256.01 247.58 256.52 246.35 257.74 245.85 258.96 246.35 259.47 247.58"/><g class="m"><path class="k" d="M259.47,247.58a1.73,1.73,0,1,1-3.46,0"/><path class="k" d="M256,247.58a1.73,1.73,0,0,1,3.46,0"/></g><rect class="h" x="256.01" y="251.04" width="3.46" height="34.6"/><line class="k" x1="259.47" y1="251.04" x2="256.01" y2="251.04"/><line class="k" x1="259.47" y1="285.64" x2="259.47" y2="251.04"/><line class="k" x1="256.01" y1="285.64" x2="259.47" y2="285.64"/><line class="k" x1="256.01" y1="251.04" x2="256.01" y2="285.64"/><polygon class="n" points="307.92 387.72 307.41 388.94 306.19 389.45 304.96 388.94 304.46 387.72 304.96 386.5 306.19 385.99 307.41 386.5 307.92 387.72"/><g class="m"><path class="k" d="M307.92,387.72a1.73,1.73,0,1,1-3.46,0"/><path class="k" d="M304.46,387.72a1.73,1.73,0,0,1,3.46,0"/></g><rect class="h" x="309.65" y="385.99" width="27.68" height="3.46"/><line class="k" x1="309.65" y1="385.99" x2="309.65" y2="389.45"/><line class="k" x1="337.33" y1="385.99" x2="309.65" y2="385.99"/><line class="k" x1="337.33" y1="389.45" x2="337.33" y2="385.99"/><line class="k" x1="309.65" y1="389.45" x2="337.33" y2="389.45"/><polygon class="n" points="463.63 388.37 463.13 389.59 461.9 390.1 460.68 389.59 460.17 388.37 460.68 387.14 461.9 386.63 463.13 387.14 463.63 388.37"/><g class="m"><path class="k" d="M463.63,388.36a1.73,1.73,0,0,1-3.46,0"/><path class="k" d="M460.17,388.36a1.73,1.73,0,0,1,3.46,0"/></g><rect class="h" x="465.36" y="387.27" width="34.6" height="2.18"/><line class="k" x1="465.36" y1="389.45" x2="499.97" y2="389.45"/><line class="k" x1="465.36" y1="387.27" x2="465.36" y2="389.45"/><line class="k" x1="499.97" y1="387.27" x2="465.36" y2="387.27"/><line class="k" x1="499.97" y1="389.45" x2="499.97" y2="387.27"/><polygon class="n" points="541.49 368.73 541.49 306.44 531.15 306.44 479.45 306.44 476.82 306.97 474.58 308.46 473.09 310.71 472.56 313.36 472.56 361.81 473.09 364.45 474.58 366.7 476.82 368.2 479.45 368.73 541.49 368.73"/><rect class="h" x="531.15" y="368.73" width="10.34" height="12.11"/><rect class="h" x="531.15" y="294.33" width="10.34" height="12.11"/><line class="k" x1="530.03" y1="335.62" x2="533.01" y2="334.79"/><line class="k" x1="530.03" y1="364.68" x2="533.01" y2="363.85"/><line class="k" x1="472.56" y1="313.36" x2="472.56" y2="361.81"/><line class="k" x1="479.45" y1="368.73" x2="541.49" y2="368.73"/><line class="k" x1="541.49" y1="368.73" x2="541.49" y2="306.44"/><line class="k" x1="541.49" y1="306.44" x2="479.45" y2="306.44"/><line class="k" x1="541.49" y1="368.73" x2="541.49" y2="380.84"/><line class="k" x1="541.49" y1="380.84" x2="531.15" y2="380.84"/><line class="k" x1="531.15" y1="380.84" x2="531.15" y2="368.73"/><line class="k" x1="531.15" y1="368.73" x2="541.49" y2="368.73"/><line class="k" x1="541.49" y1="294.33" x2="541.49" y2="306.44"/><line class="k" x1="541.49" y1="306.44" x2="531.15" y2="306.44"/><line class="k" x1="531.15" y1="306.44" x2="531.15" y2="294.33"/><line class="k" x1="531.15" y1="294.33" x2="541.49" y2="294.33"/><line class="k" x1="518.56" y1="368.73" x2="518.56" y2="306.44"/><line class="k" x1="513.39" y1="368.73" x2="513.39" y2="306.44"/><g class="m"><path class="k" d="M523.78,340.21a97,97,0,0,1,.84,12.74c0,3.28-.17,6.55-.49,9.81"/><path class="k" d="M526,365h-.09a1.85,1.85,0,0,1-1.85-1.85,1.83,1.83,0,0,1,0-.4"/><path class="k" d="M530,364.68a14.92,14.92,0,0,1-3.19.35l-.82,0"/><path class="k" d="M537.73,364.87c-.83,0-1.66.06-2.5.06-1.73,0-3.47-.08-5.2-.25"/><path class="k" d="M538.23,364.41v.09a.38.38,0,0,1-.38.39.23.23,0,0,1-.12,0"/><path class="k" d="M538.23,364.41q-.57-7.43-.57-14.88c0-3.13.07-6.26.23-9.39"/><path class="k" d="M536.64,339a1.06,1.06,0,0,1,.31,0,1,1,0,0,1,1,1,.64.64,0,0,1,0,.2"/><path class="k" d="M536.64,339a46.05,46.05,0,0,1-11.88.18"/><path class="k" d="M523.78,340.21a1,1,0,0,1,0-.25.79.79,0,0,1,1-.76"/><path class="k" d="M479.45,368.73h0a6.92,6.92,0,0,1-6.89-6.93"/><path class="k" d="M472.56,313.36h0a6.9,6.9,0,0,1,6.89-6.92"/><path class="k" d="M523.78,311.15a96.88,96.88,0,0,1,.34,22.56"/><path class="k" d="M526,336h-.09a1.85,1.85,0,0,1-1.85-1.86,2.45,2.45,0,0,1,0-.39"/><path class="k" d="M530,335.62a14.32,14.32,0,0,1-3.19.36c-.28,0-.55,0-.82,0"/><path class="k" d="M537.73,335.82c-.83,0-1.67.06-2.5.06-1.73,0-3.47-.09-5.2-.26"/><path class="k" d="M538.23,335.36v.08a.39.39,0,0,1-.39.4l-.11,0"/><path class="k" d="M538.23,335.36q-.57-7.42-.57-14.88c0-3.13.07-6.27.22-9.4"/><path class="k" d="M536.64,310a1.06,1.06,0,0,1,.31,0,1,1,0,0,1,.95,1,.71.71,0,0,1,0,.2"/><path class="k" d="M536.64,310a46.05,46.05,0,0,1-11.88.18"/><path class="k" d="M523.78,311.15a.93.93,0,0,1,0-.24.8.8,0,0,1,.8-.8.78.78,0,0,1,.22,0"/></g><polygon class="n" points="333.11 274.31 336.69 274.78 340.03 276.16 342.9 278.35 345.1 281.21 348.98 274.51 349.45 272.78 348.99 271.05 347.72 269.79 341.73 266.34 339.99 265.88 338.26 266.34 336.99 267.61 333.11 274.31"/><polygon class="n" points="321.07 295.08 319.69 291.75 319.23 288.17 319.7 284.59 321.09 281.25 313.35 281.26 311.61 281.73 310.34 283 309.88 284.73 309.87 291.64 310.33 293.37 311.59 294.64 313.32 295.1 321.07 295.08"/><polygon class="n" points="345.07 295.05 342.87 297.92 340 300.12 336.65 301.51 333.06 301.98 336.93 308.68 338.19 309.94 339.93 310.4 341.66 309.93 347.66 306.46 348.93 305.2 349.4 303.47 348.94 301.74 345.07 295.05"/><polygon class="n" points="345.1 281.21 342.9 278.35 340.03 276.16 336.69 274.78 333.11 274.31 329.52 274.79 326.17 276.18 323.3 278.38 321.09 281.25 319.7 284.59 319.23 288.17 319.69 291.75 321.07 295.08 323.27 297.94 326.14 300.14 329.48 301.51 333.06 301.98 336.65 301.5 340 300.12 342.87 297.92 345.07 295.05 346.47 291.71 346.94 288.13 346.48 284.55 345.1 281.21"/><line class="k" x1="346.48" y1="284.55" x2="345.1" y2="281.21"/><line class="k" x1="346.94" y1="288.13" x2="346.48" y2="284.55"/><line class="k" x1="346.47" y1="291.71" x2="346.94" y2="288.13"/><line class="k" x1="345.07" y1="295.05" x2="346.47" y2="291.71"/><line class="k" x1="342.87" y1="297.92" x2="345.08" y2="295.05"/><line class="k" x1="339.99" y1="300.12" x2="342.87" y2="297.92"/><line class="k" x1="336.65" y1="301.51" x2="339.99" y2="300.12"/><line class="k" x1="333.06" y1="301.98" x2="336.65" y2="301.51"/><line class="k" x1="329.48" y1="301.52" x2="333.06" y2="301.98"/><line class="k" x1="326.14" y1="300.14" x2="329.48" y2="301.52"/><line class="k" x1="323.27" y1="297.94" x2="326.14" y2="300.14"/><line class="k" x1="321.07" y1="295.08" x2="323.27" y2="297.94"/><line class="k" x1="319.69" y1="291.75" x2="321.07" y2="295.08"/><line class="k" x1="319.23" y1="288.17" x2="319.69" y2="291.75"/><line class="k" x1="319.7" y1="284.59" x2="319.23" y2="288.17"/><line class="k" x1="321.09" y1="281.25" x2="319.7" y2="284.59"/><line class="k" x1="323.3" y1="278.38" x2="321.09" y2="281.25"/><line class="k" x1="326.17" y1="276.18" x2="323.3" y2="278.38"/><line class="k" x1="329.52" y1="274.79" x2="326.17" y2="276.18"/><line class="k" x1="333.11" y1="274.31" x2="329.52" y2="274.79"/><line class="k" x1="336.69" y1="274.78" x2="333.11" y2="274.31"/><line class="k" x1="340.03" y1="276.16" x2="336.69" y2="274.78"/><line class="k" x1="342.9" y1="278.35" x2="340.03" y2="276.16"/><line class="k" x1="345.1" y1="281.21" x2="342.9" y2="278.35"/><g class="m"><path class="k" d="M340,300.12a13.82,13.82,0,1,1-13.82-23.94"/><path class="k" d="M326.18,276.18A13.82,13.82,0,1,1,340,300.12"/></g><line class="k" x1="340.86" y1="267.84" x2="346.85" y2="271.29"/><line class="k" x1="348.98" y1="274.51" x2="345.1" y2="281.21"/><line class="k" x1="341.73" y1="266.34" x2="347.72" y2="269.79"/><line class="k" x1="333.11" y1="274.31" x2="336.99" y2="267.61"/><line class="k" x1="311.6" y1="291.64" x2="311.61" y2="284.72"/><line class="k" x1="313.35" y1="281.26" x2="321.09" y2="281.25"/><line class="k" x1="309.87" y1="291.64" x2="309.88" y2="284.72"/><line class="k" x1="321.07" y1="295.08" x2="313.33" y2="295.1"/><line class="k" x1="346.8" y1="304.97" x2="340.79" y2="308.44"/><line class="k" x1="336.93" y1="308.68" x2="333.06" y2="301.98"/><line class="k" x1="347.66" y1="306.46" x2="341.66" y2="309.93"/><line class="k" x1="345.07" y1="295.05" x2="348.94" y2="301.74"/><g class="m"><path class="k" d="M346.85,271.29a1.66,1.66,0,0,1,.63.63,1.73,1.73,0,0,1,0,1.73"/><path class="k" d="M338.49,268.48a1.68,1.68,0,0,1,.63-.64,1.74,1.74,0,0,1,1.74,0"/><path class="k" d="M347.72,269.79a3.43,3.43,0,0,1,1.26,4.72"/><path class="k" d="M337,267.61a3.41,3.41,0,0,1,1.27-1.26,3.47,3.47,0,0,1,3.46,0"/><path class="k" d="M311.61,284.72a1.72,1.72,0,0,1,.87-1.49,1.64,1.64,0,0,1,.86-.24"/><path class="k" d="M313.33,293.37a1.73,1.73,0,0,1-1.73-1.73"/><path class="k" d="M309.88,284.73a3.48,3.48,0,0,1,3.47-3.47"/><path class="k" d="M313.33,295.1a3.45,3.45,0,0,1-3.46-3.46"/><path class="k" d="M340.79,308.44h0a1.73,1.73,0,0,1-2.36-.63"/><path class="k" d="M347.44,302.61a1.74,1.74,0,0,1-.64,2.36"/><path class="k" d="M341.66,309.93a3.45,3.45,0,0,1-4.73-1.26"/><path class="k" d="M348.94,301.74a3.46,3.46,0,0,1-1.28,4.72"/></g><polygon class="n" points="286.46 356.58 286.96 356.2 287.15 355.61 287.15 317.89 286.97 317.26 286.46 316.85 286.95 316.65 287.15 316.16 287.15 315.12 286.69 313.39 285.42 312.12 283.69 311.66 258.43 311.66 257.94 311.86 257.74 312.35 257.74 383.63 257.94 384.13 258.43 384.33 286.46 384.33 286.92 384.17 287.19 383.77 287.15 383.29 287.15 357.68 287.09 356.95 286.46 356.58"/><polygon class="n" points="309.65 356.64 312.3 357.17 314.54 358.67 316.04 360.92 316.57 363.56 316.57 377.4 316.04 380.06 314.54 382.3 312.3 383.8 309.65 384.33 288.19 384.33 287.46 384.02 287.15 383.29 287.15 357.68 287.46 356.95 288.19 356.64 309.65 356.64"/><g class="m"><path class="k" d="M309.65,356.64a6.92,6.92,0,0,1,6.92,6.92"/></g><line class="k" x1="316.57" y1="363.56" x2="316.57" y2="377.41"/><g class="m"><path class="k" d="M316.57,377.41a6.92,6.92,0,0,1-6.92,6.92"/></g><line class="k" x1="309.65" y1="384.33" x2="288.19" y2="384.33"/><g class="m"><path class="k" d="M288.19,384.33a1,1,0,0,1-1-1"/></g><line class="k" x1="287.15" y1="383.29" x2="287.15" y2="357.68"/><g class="m"><path class="k" d="M287.15,357.68a1,1,0,0,1,1-1"/></g><line class="k" x1="288.19" y1="356.64" x2="309.65" y2="356.64"/><line class="k" x1="287.15" y1="316.16" x2="287.15" y2="315.12"/><line class="k" x1="283.69" y1="311.66" x2="258.43" y2="311.66"/><line class="k" x1="257.74" y1="312.35" x2="257.74" y2="316.16"/><line class="k" x1="258.43" y1="316.85" x2="286.46" y2="316.85"/><line class="k" x1="257.74" y1="316.16" x2="257.74" y2="356.64"/><line class="k" x1="257.74" y1="356.64" x2="260.16" y2="356.64"/><line class="k" x1="287.15" y1="355.6" x2="287.15" y2="317.89"/><line class="k" x1="286.12" y1="316.85" x2="268.77" y2="316.85"/><line class="k" x1="268.77" y1="356.64" x2="286.12" y2="356.64"/><line class="k" x1="260.16" y1="316.85" x2="266.69" y2="316.85"/><line class="k" x1="266.69" y1="356.64" x2="260.16" y2="356.64"/><line class="k" x1="287.15" y1="379.83" x2="287.15" y2="383.63"/><line class="k" x1="286.46" y1="384.33" x2="258.43" y2="384.33"/><line class="k" x1="257.74" y1="383.63" x2="257.74" y2="379.83"/><line class="k" x1="257.74" y1="379.83" x2="257.74" y2="356.64"/><line class="k" x1="257.74" y1="356.64" x2="260.16" y2="356.64"/><line class="k" x1="287.15" y1="357.68" x2="287.15" y2="378.1"/><line class="k" x1="268.77" y1="356.64" x2="286.12" y2="356.64"/><line class="k" x1="268.77" y1="356.64" x2="260.16" y2="356.64"/><line class="k" x1="316.57" y1="363.56" x2="316.57" y2="377.41"/><line class="k" x1="309.65" y1="384.33" x2="288.19" y2="384.33"/><line class="k" x1="287.15" y1="383.29" x2="287.15" y2="357.68"/><line class="k" x1="288.19" y1="356.64" x2="309.65" y2="356.64"/><line class="k" x1="259.13" y1="357.68" x2="259.13" y2="383.29"/><line class="k" x1="259.13" y1="355.6" x2="259.13" y2="317.89"/><g class="m"><path class="k" d="M257.74,312.35a.69.69,0,0,1,.69-.69"/><path class="k" d="M258.43,316.85a.69.69,0,0,1-.69-.69"/><path class="k" d="M287.15,316.16a.69.69,0,0,1-.69.69"/><path class="k" d="M286.12,316.85a1,1,0,0,1,1,1"/><path class="k" d="M287.15,355.6a1,1,0,0,1-1,1"/><path class="k" d="M287.15,383.63a.69.69,0,0,1-.69.7"/><path class="k" d="M258.43,384.33a.69.69,0,0,1-.69-.7"/><path class="k" d="M286.12,356.64a1,1,0,0,1,1,1"/><path class="k" d="M288.19,384.33a1,1,0,0,1-1-1"/><path class="k" d="M287.15,357.68a1,1,0,0,1,1-1"/></g><line class="k" x1="259.13" y1="383.29" x2="282.7" y2="383.29"/><g class="m"><path class="k" d="M277.94,382a19.65,19.65,0,0,1-14.79-24.4"/><path class="k" d="M264,317.89a118.47,118.47,0,0,1,0,37.71"/><path class="k" d="M309.65,356.64a6.92,6.92,0,0,1,6.92,6.92"/><path class="k" d="M316.57,377.41a6.92,6.92,0,0,1-6.92,6.92"/><path class="k" d="M283.69,311.66a3.46,3.46,0,0,1,3.47,3.46"/></g><path class="h" d="M382.66,213h0Z"/><line class="k" x1="403.42" y1="213.04" x2="403.42" y2="213.04"/><line class="k" x1="382.66" y1="213.04" x2="382.66" y2="213.04"/><line class="k" x1="382.66" y1="213.04" x2="403.42" y2="213.04"/><rect class="h" x="391.66" y="282.59" width="20.76" height="54.85"/><line class="k" x1="391.66" y1="337.44" x2="391.66" y2="282.59"/><line class="k" x1="391.66" y1="282.59" x2="412.42" y2="282.59"/><line class="k" x1="412.42" y1="282.59" x2="412.42" y2="337.44"/><line class="k" x1="412.42" y1="337.44" x2="391.66" y2="337.44"/><line class="k" x1="402.04" y1="334.7" x2="402.04" y2="285.33"/><line class="k" x1="395.93" y1="332.15" x2="408.37" y2="327.51"/><line class="k" x1="395.31" y1="326.92" x2="406.88" y2="325"/><line class="k" x1="409.52" y1="319.78" x2="396.82" y2="318.2"/><line class="k" x1="407.86" y1="311.69" x2="396.82" y2="313.83"/><line class="k" x1="408.49" y1="308.74" x2="394.9" y2="308.74"/><line class="k" x1="408.55" y1="300.41" x2="395.12" y2="302.38"/><line class="k" x1="408.33" y1="297.28" x2="396.06" y2="297.28"/><line class="k" x1="408.45" y1="289.06" x2="395.87" y2="287.48"/><line class="k" x1="407.6" y1="291.04" x2="396.96" y2="292.64"/><rect class="h" x="391.66" y="337.44" width="20.76" height="53.81"/><line class="k" x1="391.66" y1="391.25" x2="391.66" y2="337.44"/><line class="k" x1="391.66" y1="337.44" x2="412.42" y2="337.44"/><line class="k" x1="412.42" y1="337.44" x2="412.42" y2="391.25"/><line class="k" x1="412.42" y1="391.25" x2="391.66" y2="391.25"/><line class="k" x1="402.04" y1="388.56" x2="402.04" y2="340.13"/><line class="k" x1="395.93" y1="386.06" x2="408.37" y2="381.51"/><line class="k" x1="395.31" y1="380.93" x2="406.88" y2="379.05"/><line class="k" x1="409.52" y1="373.92" x2="396.82" y2="372.37"/><line class="k" x1="407.86" y1="365.98" x2="396.82" y2="368.09"/><line class="k" x1="408.49" y1="363.1" x2="394.9" y2="363.1"/><line class="k" x1="408.55" y1="354.92" x2="395.12" y2="356.86"/><line class="k" x1="408.33" y1="351.85" x2="396.06" y2="351.85"/><line class="k" x1="408.45" y1="343.78" x2="395.87" y2="342.23"/><line class="k" x1="407.6" y1="345.73" x2="396.96" y2="347.3"/><polygon class="n" points="460.69 226.53 478.69 226.53 479.05 226.69 479.21 227.05 479.21 241.24 479.05 241.61 478.69 241.76 460.69 241.76 460.33 241.61 460.17 241.24 460.17 227.05 460.33 226.69 460.69 226.53"/><line class="k" x1="460.69" y1="226.53" x2="478.69" y2="226.53"/><g class="m"><path class="k" d="M478.69,226.53a.53.53,0,0,1,.52.52"/></g><line class="k" x1="479.21" y1="227.05" x2="479.21" y2="241.24"/><g class="m"><path class="k" d="M479.21,241.24a.52.52,0,0,1-.52.52"/></g><line class="k" x1="478.69" y1="241.76" x2="460.69" y2="241.76"/><g class="m"><path class="k" d="M460.69,241.76a.52.52,0,0,1-.52-.52"/></g><line class="k" x1="460.17" y1="241.24" x2="460.17" y2="227.05"/><g class="m"><path class="k" d="M460.17,227.05a.53.53,0,0,1,.52-.52"/></g><line class="k" x1="461.73" y1="230.34" x2="477.65" y2="230.34"/><line class="k" x1="478.17" y1="230.86" x2="478.17" y2="240.2"/><line class="k" x1="477.65" y1="240.72" x2="461.73" y2="240.72"/><line class="k" x1="461.21" y1="240.2" x2="461.21" y2="230.86"/><g class="m"><path class="k" d="M477.65,230.34a.52.52,0,0,1,.52.52"/><path class="k" d="M478.17,240.2a.52.52,0,0,1-.52.52"/><path class="k" d="M461.73,240.72a.52.52,0,0,1-.52-.52"/><path class="k" d="M461.21,230.86a.52.52,0,0,1,.52-.52"/></g><polygon class="n" points="468.82 228.61 468.96 230.06 469.08 230.39 469.31 232.22 469.43 232.47 469.69 232.56 469.94 232.47 470.07 232.22 470.3 230.39 470.42 230.06 470.55 228.61 470.3 228 469.69 227.75 469.08 228 468.82 228.61"/><g class="m"><path class="k" d="M468.82,228.61a.87.87,0,0,1,1.73,0"/></g><line class="k" x1="470.42" y1="230.06" x2="470.55" y2="228.61"/><g class="m"><path class="k" d="M470.42,230.06a.66.66,0,0,1-.12.33"/></g><line class="k" x1="470.07" y1="232.22" x2="470.3" y2="230.39"/><g class="m"><path class="k" d="M470.07,232.22a.38.38,0,0,1-.76,0"/></g><line class="k" x1="469.08" y1="230.39" x2="469.31" y2="232.22"/><g class="m"><path class="k" d="M469.08,230.39a.66.66,0,0,1-.12-.33"/></g><line class="k" x1="468.82" y1="228.61" x2="468.96" y2="230.06"/><line class="k" x1="470.16" y1="229.47" x2="470.16" y2="229.99"/><line class="k" x1="469.22" y1="229.99" x2="469.22" y2="229.47"/><line class="k" x1="469.22" y1="229.47" x2="470.16" y2="229.47"/><g class="m"><path class="k" d="M470.16,230a.47.47,0,1,1-.94,0"/><path class="k" d="M470.3,230.39a.72.72,0,0,1-1.22,0"/></g><polygon class="n" points="487.51 226.53 487.51 237.95 487.78 239.66 488.55 241.21 489.76 242.45 491.72 243.48 493.91 243.84 496.1 243.48 498.06 242.45 499.27 241.21 500.05 239.66 500.31 237.95 500.31 226.53 487.51 226.53"/><line class="k" x1="500.31" y1="226.53" x2="500.31" y2="237.95"/><line class="k" x1="500.31" y1="226.53" x2="487.51" y2="226.53"/><line class="k" x1="487.51" y1="226.53" x2="487.51" y2="237.95"/><line class="k" x1="498.24" y1="230.69" x2="498.24" y2="237.95"/><line class="k" x1="489.59" y1="230.69" x2="489.59" y2="237.95"/><line class="k" x1="489.59" y1="230.69" x2="498.24" y2="230.69"/><g class="m"><path class="k" d="M500.31,238a5.61,5.61,0,0,1-2.25,4.5"/><path class="k" d="M489.76,242.45a5.61,5.61,0,0,1-2.25-4.5"/><path class="k" d="M498.06,242.45a6.89,6.89,0,0,1-8.3,0"/><path class="k" d="M489.76,242.45a5.61,5.61,0,0,1-2.25-4.5"/><path class="k" d="M493.91,243.84a6.91,6.91,0,0,1-4.15-1.39"/><path class="k" d="M491,240.79a3.53,3.53,0,0,1-1.42-2.84"/><path class="k" d="M496.82,240.79a4.85,4.85,0,0,1-2.91,1,4.8,4.8,0,0,1-2.9-1"/><path class="k" d="M498.24,238a3.56,3.56,0,0,1-1.42,2.84"/></g><line class="k" x1="296.56" y1="233.5" x2="296.56" y2="227.7"/><line class="k" x1="296.56" y1="227.7" x2="298.92" y2="229.6"/><line class="k" x1="298.92" y1="229.61" x2="301.28" y2="227.7"/><line class="k" x1="301.28" y1="227.7" x2="301.28" y2="233.5"/><polygon class="o" points="541.49 213.04 550.14 213.04 550.14 219.96 548.41 219.96 548.41 405.09 541.49 405.09 541.49 213.04"/><rect x="375.4" y="391.25" width="48.45" height="6.92"/><rect x="449.79" y="213.04" width="91.7" height="8.3"/><polygon class="o" points="306.19 398.17 247.36 398.17 247.36 280.51 254.28 280.51 254.28 391.25 306.19 391.25 306.19 398.17"/><polygon class="o" points="299.27 405.09 240.44 405.09 240.44 278.79 247.36 278.79 247.36 398.17 307.92 398.17 307.92 405.09 299.27 405.09"/><rect x="247.36" y="213.04" width="6.92" height="32.87"/><rect x="240.44" y="213.04" width="6.92" height="34.6"/><rect x="493.05" y="391.25" width="48.45" height="6.92"/><polygon class="o" points="389.24 242.1 371.93 242.1 371.93 221.34 375.39 221.34 375.39 238.65 389.24 238.65 389.24 242.1"/><rect x="373.66" y="398.17" width="51.91" height="6.92"/><rect x="389.24" y="221.34" width="2.42" height="24.22"/><polygon class="o" points="254.28 221.34 254.28 213.04 403.42 213.04 411.73 213.04 411.73 221.34 254.28 221.34"/><polygon class="o" points="541.49 280.17 541.49 282.59 446.33 282.59 446.33 280.17 449.79 280.17 449.79 276.71 452.21 276.71 452.21 280.17 541.49 280.17"/><rect x="449.79" y="221.34" width="2.42" height="27.68"/><rect x="510.35" y="243.84" width="31.14" height="3.46"/><rect x="510.35" y="221.34" width="3.46" height="25.95"/><polygon class="o" points="415.19 280.17 415.19 282.59 391.66 282.59 391.66 391.25 389.24 391.25 389.24 276.71 391.66 276.71 391.66 280.17 415.19 280.17"/><polygon class="o" points="499.97 405.09 491.32 405.09 491.32 398.17 541.49 398.17 541.49 405.09 499.97 405.09"/><rect x="448.06" y="213.04" width="1.73" height="3.98"/><rect x="411.73" y="213.04" width="1.73" height="3.98"/><polygon class="o" points="548.41 405.09 548.41 219.96 550.14 219.96 550.14 221.69 550.14 405.09 548.41 405.09"/><line class="k" x1="240.44" y1="213.04" x2="240.44" y2="405.09"/><line class="k" x1="240.44" y1="405.09" x2="299.27" y2="405.09"/><line class="k" x1="299.27" y1="405.09" x2="499.97" y2="405.09"/><line class="k" x1="499.97" y1="405.09" x2="550.14" y2="405.09"/><line class="k" x1="550.14" y1="405.09" x2="550.14" y2="213.04"/><line class="k" x1="550.14" y1="213.04" x2="240.44" y2="213.04"/><path class="p" d="M473.07,255.48v7h-.72v-6.36H470.7v-.64Z"/><path class="p" d="M474.75,262a.53.53,0,0,1,.53-.54.54.54,0,0,1,.54.54.55.55,0,0,1-.54.55A.54.54,0,0,1,474.75,262Z"/><path class="p" d="M476.76,259c0-2.23,1.17-3.56,2.79-3.56s2.79,1.33,2.79,3.56-1.18,3.56-2.79,3.56S476.76,261.21,476.76,259Zm4.84,0c0-1.87-.83-2.9-2.05-2.9s-2.06,1-2.06,2.9.84,2.9,2.06,2.9S481.6,260.85,481.6,259Z"/><path class="p" d="M489.32,260.64h-1.4v1.84h-.72v-1.84h-3.94v-.52l3.71-4.64h.79L484.19,260h3v-1.62h.69V260h1.4Z"/><path class="p" d="M436,334.24v7h-.72v-6.36h-1.65v-.64Z"/><path class="p" d="M437.66,340.74a.53.53,0,0,1,.53-.54.54.54,0,0,1,.54.54.55.55,0,0,1-.54.55A.54.54,0,0,1,437.66,340.74Z"/><path class="p" d="M439.67,337.74c0-2.23,1.17-3.56,2.79-3.56s2.79,1.33,2.79,3.56-1.18,3.56-2.79,3.56S439.67,340,439.67,337.74Zm4.84,0c0-1.87-.83-2.9-2.05-2.9s-2.06,1-2.06,2.9.84,2.9,2.06,2.9S444.51,339.61,444.51,337.74Z"/><path class="p" d="M450.82,339.23c0,1.17-.84,2.07-2.53,2.07a3.64,3.64,0,0,1-2.52-.9l.35-.57a3.07,3.07,0,0,0,2.17.81c1.15,0,1.79-.54,1.79-1.41s-.59-1.39-1.88-1.39h-.5v-.53l1.94-2.43h-3.58v-.64h4.49v.51l-2,2.49C450.07,337.32,450.82,338.11,450.82,339.23Z"/><path class="p" d="M338.92,335.73v7h-.72v-6.36h-1.65v-.64Z"/><path class="p" d="M340.6,342.23a.53.53,0,0,1,.53-.54.54.54,0,0,1,.54.54.55.55,0,0,1-.54.55A.54.54,0,0,1,340.6,342.23Z"/><path class="p" d="M342.61,339.23c0-2.23,1.17-3.56,2.79-3.56s2.79,1.33,2.79,3.56-1.17,3.56-2.79,3.56S342.61,341.46,342.61,339.23Zm4.84,0c0-1.87-.84-2.9-2.05-2.9s-2.06,1-2.06,2.9.84,2.9,2.06,2.9S347.45,341.1,347.45,339.23Z"/><path class="p" d="M354,342.09v.64h-4.9v-.51l2.91-2.85c.79-.78.94-1.25.94-1.73,0-.81-.57-1.31-1.64-1.31a2.38,2.38,0,0,0-1.91.78l-.51-.44a3.15,3.15,0,0,1,2.48-1c1.41,0,2.31.72,2.31,1.89a2.88,2.88,0,0,1-1.15,2.19l-2.37,2.34Z"/><path class="p" d="M403.26,256v7h-.72v-6.36h-1.65V256Z"/><path class="p" d="M404.94,262.48a.53.53,0,0,1,.53-.54.54.54,0,0,1,.54.54.55.55,0,0,1-.54.55A.54.54,0,0,1,404.94,262.48Z"/><path class="p" d="M407,259.48c0-2.23,1.17-3.56,2.79-3.56s2.79,1.33,2.79,3.56-1.17,3.56-2.79,3.56S407,261.71,407,259.48Zm4.84,0c0-1.87-.84-2.9-2.05-2.9s-2.06,1-2.06,2.9.84,2.9,2.06,2.9S411.79,261.35,411.79,259.48Z"/><path class="p" d="M415.5,256v7h-.72v-6.36h-1.65V256Z"/></svg>