<svg xmlns="http://www.w3.org/2000/svg" xmlns:xlink="http://www.w3.org/1999/xlink" viewBox="0 0 790.58 618.13"><defs><style>.a,.g{fill:none;}.b{fill:#595a5c;}.c{fill:#b6906c;}.d,.f{fill:#fff;}.e{fill:#231f20;}.f,.i{fill-rule:evenodd;}.g{stroke:#000;stroke-linecap:round;stroke-linejoin:round;stroke-width:0.35px;}.h{clip-path:url(#a);}.j{fill:#58595b;}</style><clipPath id="a"><polygon class="a" points="241.04 185.15 241.04 377.52 289.57 377.52 289.57 432.98 490.61 432.98 490.61 377.52 549.54 377.52 549.54 185.15 241.04 185.15"/></clipPath></defs><path class="b" d="M55.31,597.13H57.1V609.9H55.31Zm.92,6.11h4.09a1.89,1.89,0,0,0,1-.27,1.82,1.82,0,0,0,.68-.77,2.67,2.67,0,0,0,.24-1.16,2.7,2.7,0,0,0-.24-1.16,1.82,1.82,0,0,0-1.7-1H56.23v-1.7h4a4.09,4.09,0,0,1,2,.48A3.45,3.45,0,0,1,63.62,599a4.64,4.64,0,0,1,0,4.11,3.34,3.34,0,0,1-1.35,1.36,4,4,0,0,1-2,.49h-4Z"/><path class="b" d="M67.7,606.33a2.07,2.07,0,0,0,.49,1.48,1.76,1.76,0,0,0,1.37.52,1.89,1.89,0,0,0,1.37-.46,1.79,1.79,0,0,0,.48-1.33l.12,1.91A2.58,2.58,0,0,1,69.06,610a2.89,2.89,0,0,1-2.33-1,4.08,4.08,0,0,1-.82-2.73v-5.55H67.7Zm.22-7.86a1.93,1.93,0,0,1-.56-1.5,2.07,2.07,0,0,1,.56-1.57,2.56,2.56,0,0,1,3.18,0,2.08,2.08,0,0,1,.57,1.56,1.94,1.94,0,0,1-.57,1.5,2.65,2.65,0,0,1-3.18,0Zm2.26-.86a.94.94,0,0,0,.24-.68,1,1,0,0,0-.24-.7.91.91,0,0,0-.67-.25.92.92,0,0,0-.67.25,1,1,0,0,0-.23.7,1,1,0,0,0,.23.68.92.92,0,0,0,.67.24A.9.9,0,0,0,70.18,597.61Zm1.23,3.17h1.78v9.12H71.41Z"/><path class="b" d="M77.1,609.63A2.82,2.82,0,0,1,76,608.36a5.08,5.08,0,0,1-.36-2v-2a5.05,5.05,0,0,1,.36-2,2.71,2.71,0,0,1,1-1.27,3,3,0,0,1,1.65-.44,2.71,2.71,0,0,1,1.48.42,3.22,3.22,0,0,1,1.09,1.19l-.18,1.86a2.19,2.19,0,0,0-.22-1,1.48,1.48,0,0,0-.61-.63,2,2,0,0,0-1-.21,1.71,1.71,0,0,0-1.37.55,2.26,2.26,0,0,0-.49,1.56v2a2.19,2.19,0,0,0,.49,1.54,1.74,1.74,0,0,0,1.37.54,1.93,1.93,0,0,0,1-.23,1.45,1.45,0,0,0,.61-.64,2.25,2.25,0,0,0,.22-1l.12,1.92a2.66,2.66,0,0,1-.89,1.14,2.56,2.56,0,0,1-1.53.45A3.19,3.19,0,0,1,77.1,609.63Zm4-12.5H82.9V609.9H81.11Z"/><path class="b" d="M87.09,609.57a3.09,3.09,0,0,1-1.29-1.36,4.85,4.85,0,0,1-.44-2.15v-1.48a4.71,4.71,0,0,1,.44-2.12,3.12,3.12,0,0,1,1.29-1.35,4.71,4.71,0,0,1,4.06,0,3.12,3.12,0,0,1,1.29,1.35,4.71,4.71,0,0,1,.44,2.12v1.51a4.79,4.79,0,0,1-.44,2.13,3.12,3.12,0,0,1-1.29,1.35,4.62,4.62,0,0,1-4.06,0Zm3.49-1.83a2.43,2.43,0,0,0,.51-1.65v-1.51a2.43,2.43,0,0,0-.51-1.65,1.88,1.88,0,0,0-1.46-.58,1.85,1.85,0,0,0-1.45.58,2.38,2.38,0,0,0-.52,1.65v1.51a2.38,2.38,0,0,0,.52,1.65,1.82,1.82,0,0,0,1.45.59A1.85,1.85,0,0,0,90.58,607.74Z"/><path class="b" d="M95.43,600.78h1.79v9.12H95.43Zm4.42,1.72a2.16,2.16,0,0,0-.83-.15,1.83,1.83,0,0,0-1.33.47,1.79,1.79,0,0,0-.47,1.31L97,602.37a3.32,3.32,0,0,1,1.09-1.27,2.58,2.58,0,0,1,1.48-.45,3.39,3.39,0,0,1,1.13.18,2.62,2.62,0,0,1,.88.53l-1.17,1.58A1.56,1.56,0,0,0,99.85,602.5Z"/><path class="b" d="M102.15,600.78H104l2.81,7.93-1,1.94Zm8.07,0L106.34,612a2.6,2.6,0,0,1-.56,1,1.87,1.87,0,0,1-.84.52,4,4,0,0,1-1.23.16h-.36V612h.36a1.46,1.46,0,0,0,.8-.2,1.74,1.74,0,0,0,.51-.7l3.38-10.31Z"/><path class="b" d="M113.51,609.88a5.76,5.76,0,0,1-1.32-.48,4.89,4.89,0,0,1-1.13-.79l1.06-1.31a5.86,5.86,0,0,0,1.47.85,4.18,4.18,0,0,0,1.44.28,3.11,3.11,0,0,0,1.6-.33,1.1,1.1,0,0,0,.53-1,.79.79,0,0,0-.29-.66,1.66,1.66,0,0,0-.72-.29c-.29,0-.69-.1-1.22-.14h-.15l-.14,0h-.15a6.45,6.45,0,0,1-1.5-.26,2,2,0,0,1-1-.7,2.38,2.38,0,0,1-.41-1.49,3.07,3.07,0,0,1,.39-1.61,2.41,2.41,0,0,1,1.18-1,5.29,5.29,0,0,1,2-.32,6.38,6.38,0,0,1,2.6.52,6.16,6.16,0,0,1,1.13.66l-1.08,1.31a5.59,5.59,0,0,0-1.35-.66,4,4,0,0,0-1.3-.22,2.44,2.44,0,0,0-1.37.31,1.08,1.08,0,0,0-.46.94.64.64,0,0,0,.26.55,1.72,1.72,0,0,0,.66.25c.26,0,.64.07,1.12.1h.34a7.67,7.67,0,0,1,1.63.25,2.24,2.24,0,0,1,1.13.77,2.62,2.62,0,0,1,.45,1.65,2.92,2.92,0,0,1-.42,1.63,2.54,2.54,0,0,1-1.27,1A5.88,5.88,0,0,1,115,610,7.38,7.38,0,0,1,113.51,609.88Z"/><path class="b" d="M126,597.13h1.8V609.9H126Zm2.6,12.5a2.39,2.39,0,0,1-.93-1.16l.13-1.91a2.22,2.22,0,0,0,.21,1,1.48,1.48,0,0,0,.61.63,1.93,1.93,0,0,0,1,.22,1.74,1.74,0,0,0,1.37-.54,2.18,2.18,0,0,0,.49-1.53v-2a2.26,2.26,0,0,0-.49-1.56,1.71,1.71,0,0,0-1.37-.55,2,2,0,0,0-1,.21,1.36,1.36,0,0,0-.61.62,2.12,2.12,0,0,0-.21,1l-.19-1.76a3.37,3.37,0,0,1,1.08-1.24,2.67,2.67,0,0,1,1.49-.43,3,3,0,0,1,1.65.43,2.9,2.9,0,0,1,1.06,1.27,5.1,5.1,0,0,1,.36,2v2a4.94,4.94,0,0,1-.37,2,2.79,2.79,0,0,1-1.08,1.26,3.25,3.25,0,0,1-1.71.44A2.73,2.73,0,0,1,128.57,609.63Z"/><path class="b" d="M134.46,600.78h1.82l2.81,7.93-1,1.94Zm8.07,0L138.65,612a2.6,2.6,0,0,1-.56,1,1.87,1.87,0,0,1-.84.52,4,4,0,0,1-1.23.16h-.36V612H136a1.46,1.46,0,0,0,.8-.2,1.74,1.74,0,0,0,.51-.7l3.37-10.31Z"/><path class="b" d="M143.57,600.78h4.12v1.62h-4.12Zm1.46,8.56a2.77,2.77,0,0,1-.52-1.81v-9.4h1.8v9.42a.84.84,0,0,0,.13.51.46.46,0,0,0,.39.18h.86V610h-1A2,2,0,0,1,145,609.34Z"/><path class="b" d="M151.94,606.33a2.07,2.07,0,0,0,.49,1.48,1.76,1.76,0,0,0,1.37.52,1.91,1.91,0,0,0,1.37-.46,1.79,1.79,0,0,0,.48-1.33l.12,1.91A2.58,2.58,0,0,1,153.3,610a2.89,2.89,0,0,1-2.33-1,4.08,4.08,0,0,1-.82-2.73v-5.55h1.79Zm3.71-5.55h1.78v9.12h-1.78Z"/><rect class="c" x="612.92" y="591.68" width="35.43" height="2.83"/><path class="d" d="M648.48,594.64H612.79v-3.08h35.69ZM613,594.39h35.19v-2.58H613Z"/><rect class="c" x="612.92" y="601.6" width="70.74" height="2.83"/><path class="d" d="M683.78,604.56h-71v-3.08h71ZM613,604.31h70.49v-2.58H613Z"/><rect class="c" x="612.92" y="612.72" width="177.16" height="2.84"/><path class="d" d="M790.21,615.68H612.79V612.6H790.21ZM613,615.43H790v-2.58H613Z"/><path class="e" d="M587.26,596.28h-.8v-4.82l-.81.5v-.83l.81-.53h.8Z"/><path class="e" d="M589,595.91a1.67,1.67,0,0,1-.41-1.19v-2.58A1.65,1.65,0,0,1,589,591a2,2,0,0,1,2.42,0,1.65,1.65,0,0,1,.41,1.19v2.58a1.65,1.65,0,0,1-.41,1.19,2,2,0,0,1-2.42,0Zm1.83-.55a.89.89,0,0,0,.2-.64v-2.58a.89.89,0,0,0-.2-.64.82.82,0,0,0-.62-.22.86.86,0,0,0-.63.22.94.94,0,0,0-.2.64v2.58a.9.9,0,0,0,.21.64,1,1,0,0,0,1.24,0Z"/><path class="e" d="M593.22,595.91a1.67,1.67,0,0,1-.41-1.19v-2.58a1.65,1.65,0,0,1,.41-1.19,2,2,0,0,1,2.42,0,1.61,1.61,0,0,1,.41,1.19v2.58a1.65,1.65,0,0,1-.41,1.19,2,2,0,0,1-2.42,0Zm1.83-.55a.9.9,0,0,0,.21-.64v-2.58a.94.94,0,0,0-.2-.64.86.86,0,0,0-.63-.22.82.82,0,0,0-.62.22.89.89,0,0,0-.2.64v2.58a.89.89,0,0,0,.2.64,1,1,0,0,0,1.24,0Z"/><path class="e" d="M600.1,596.13a1.45,1.45,0,0,1-.6-.6,2.06,2.06,0,0,1-.21-1v-.67a2,2,0,0,1,.21-.94,1.37,1.37,0,0,1,.6-.59,2,2,0,0,1,.95-.21,2.21,2.21,0,0,1,.59.08,1.68,1.68,0,0,1,.51.22,1.54,1.54,0,0,1,.37.35l-.58.52a1.17,1.17,0,0,0-.4-.3,1.13,1.13,0,0,0-.48-.11.94.94,0,0,0-.71.26,1,1,0,0,0-.26.72v.67a1,1,0,0,0,.25.74.94.94,0,0,0,.72.27,1,1,0,0,0,.48-.12,1,1,0,0,0,.4-.32l.58.56a1.38,1.38,0,0,1-.38.34,1.62,1.62,0,0,1-.5.22,2.27,2.27,0,0,1-.59.07A2.12,2.12,0,0,1,600.1,596.13Z"/><path class="e" d="M603.4,592.22h.79v4.06h-.79Zm2.42,1.6a1,1,0,0,0-.21-.67.78.78,0,0,0-.6-.23.81.81,0,0,0-.6.21.73.73,0,0,0-.22.58l-.08-.78a1.46,1.46,0,0,1,.49-.57,1.22,1.22,0,0,1,.67-.2,1.33,1.33,0,0,1,.73.2,1.18,1.18,0,0,1,.46.56,2.4,2.4,0,0,1,.15.89v2.47h-.79Zm2.42,0a.93.93,0,0,0-.22-.67.85.85,0,0,0-.63-.23.72.72,0,0,0-.57.23.9.9,0,0,0-.21.64l-.16-.78a1.61,1.61,0,0,1,.51-.63,1.23,1.23,0,0,1,.69-.22,1.37,1.37,0,0,1,.75.2,1.09,1.09,0,0,1,.47.56,2.21,2.21,0,0,1,.17.89v2.47h-.8Z"/><path class="e" d="M584.33,605.5l2-2.64a1.85,1.85,0,0,0,.27-.47,1.29,1.29,0,0,0,.09-.45h0a.67.67,0,0,0-.2-.53.81.81,0,0,0-.56-.19.76.76,0,0,0-.56.21,1,1,0,0,0-.27.58h-.82a2,2,0,0,1,.29-.83,1.42,1.42,0,0,1,.56-.53,1.67,1.67,0,0,1,.79-.18,1.93,1.93,0,0,1,.87.17,1.21,1.21,0,0,1,.54.51,1.55,1.55,0,0,1,.19.8h0a1.84,1.84,0,0,1-.12.63,2.8,2.8,0,0,1-.35.63l-1.65,2.24h2.15v.76h-3.2Z"/><path class="e" d="M589,605.83a1.67,1.67,0,0,1-.41-1.19v-2.58a1.65,1.65,0,0,1,.41-1.19,2,2,0,0,1,2.42,0,1.65,1.65,0,0,1,.41,1.19v2.58a1.65,1.65,0,0,1-.41,1.19,2,2,0,0,1-2.42,0Zm1.83-.55a.89.89,0,0,0,.2-.64v-2.58a.89.89,0,0,0-.2-.64.82.82,0,0,0-.62-.22.86.86,0,0,0-.63.22.94.94,0,0,0-.19.64v2.58a.89.89,0,0,0,.2.64,1,1,0,0,0,1.24,0Z"/><path class="e" d="M593.22,605.83a1.67,1.67,0,0,1-.41-1.19v-2.58a1.61,1.61,0,0,1,.42-1.19,1.59,1.59,0,0,1,1.2-.42,1.45,1.45,0,0,1,1.62,1.61v2.58a1.61,1.61,0,0,1-.41,1.19,2,2,0,0,1-2.42,0Zm1.84-.55a.94.94,0,0,0,.2-.64v-2.58a.94.94,0,0,0-.2-.64.84.84,0,0,0-.63-.22.82.82,0,0,0-.62.22.89.89,0,0,0-.2.64v2.58a.89.89,0,0,0,.2.64.82.82,0,0,0,.62.22A.86.86,0,0,0,595.06,605.28Z"/><path class="e" d="M600.1,606.05a1.45,1.45,0,0,1-.6-.6,2.06,2.06,0,0,1-.2-1v-.67a2,2,0,0,1,.2-.94,1.37,1.37,0,0,1,.6-.59,2,2,0,0,1,.95-.21,2.35,2.35,0,0,1,.6.08,1.73,1.73,0,0,1,.5.22,1.38,1.38,0,0,1,.37.35l-.58.52a1.08,1.08,0,0,0-.4-.3,1.13,1.13,0,0,0-.48-.11,1,1,0,0,0-.71.26,1,1,0,0,0-.26.72v.67a1,1,0,0,0,.25.74.94.94,0,0,0,.72.27,1.14,1.14,0,0,0,.88-.44l.58.56a1.38,1.38,0,0,1-.38.34,1.62,1.62,0,0,1-.5.22,2.22,2.22,0,0,1-.59.07A2.12,2.12,0,0,1,600.1,606.05Z"/><path class="e" d="M603.4,602.14h.79v4.06h-.79Zm2.42,1.6a1,1,0,0,0-.21-.67.78.78,0,0,0-.6-.23.81.81,0,0,0-.6.21.73.73,0,0,0-.22.58l-.08-.78a1.46,1.46,0,0,1,.49-.57,1.22,1.22,0,0,1,.67-.2,1.3,1.3,0,0,1,.73.2,1.18,1.18,0,0,1,.46.56,2.4,2.4,0,0,1,.16.89v2.47h-.8Zm2.42,0a.93.93,0,0,0-.22-.67.85.85,0,0,0-.63-.23.73.73,0,0,0-.57.23.89.89,0,0,0-.2.64l-.16-.78a1.51,1.51,0,0,1,.5-.63,1.23,1.23,0,0,1,.69-.22,1.35,1.35,0,0,1,.75.2,1.16,1.16,0,0,1,.48.56,2.4,2.4,0,0,1,.16.89v2.47h-.8Z"/><path class="e" d="M585,615.58a1.34,1.34,0,0,1-.54-.49,2,2,0,0,1-.28-.77h.8a.75.75,0,0,0,.25.49.85.85,0,0,0,.54.17.72.72,0,0,0,.59-.25,1.1,1.1,0,0,0,.21-.72v-.48a1.1,1.1,0,0,0-.21-.72.72.72,0,0,0-.59-.25.83.83,0,0,0-.4.11,1.18,1.18,0,0,0-.34.33h-.72v-3h2.89v.76h-2.1V612a1,1,0,0,1,.34-.18.94.94,0,0,1,.37-.07,1.68,1.68,0,0,1,.84.2,1.29,1.29,0,0,1,.53.6,2.07,2.07,0,0,1,.19.94V614a2.25,2.25,0,0,1-.19.94,1.31,1.31,0,0,1-.55.59,1.69,1.69,0,0,1-.86.21A1.74,1.74,0,0,1,585,615.58Z"/><path class="e" d="M589,615.32a1.65,1.65,0,0,1-.41-1.19v-2.58a1.67,1.67,0,0,1,.41-1.19,2,2,0,0,1,2.42,0,1.65,1.65,0,0,1,.41,1.19v2.58a1.64,1.64,0,0,1-.41,1.19,1.92,1.92,0,0,1-2.42,0Zm1.83-.55a.89.89,0,0,0,.2-.64v-2.58a.88.88,0,0,0-.2-.63.78.78,0,0,0-.62-.22.82.82,0,0,0-.63.22.93.93,0,0,0-.2.63v2.58a.9.9,0,0,0,.21.64,1,1,0,0,0,1.24,0Z"/><path class="e" d="M593.22,615.32a1.65,1.65,0,0,1-.41-1.19v-2.58a1.67,1.67,0,0,1,.41-1.19,2,2,0,0,1,2.42,0,1.61,1.61,0,0,1,.41,1.19v2.58a1.64,1.64,0,0,1-.41,1.19,1.92,1.92,0,0,1-2.42,0Zm1.83-.55a.9.9,0,0,0,.21-.64v-2.58a.93.93,0,0,0-.2-.63.82.82,0,0,0-.63-.22.78.78,0,0,0-.62.22.88.88,0,0,0-.2.63v2.58a.89.89,0,0,0,.2.64,1,1,0,0,0,1.24,0Z"/><path class="e" d="M600.1,615.54a1.45,1.45,0,0,1-.6-.6,2,2,0,0,1-.21-1v-.67a2,2,0,0,1,.21-.94,1.45,1.45,0,0,1,.6-.6,2,2,0,0,1,.95-.2,2.22,2.22,0,0,1,.59.07,2,2,0,0,1,.51.22,1.76,1.76,0,0,1,.37.35l-.58.52a1.17,1.17,0,0,0-.4-.3,1.13,1.13,0,0,0-.48-.11.94.94,0,0,0-.71.26,1,1,0,0,0-.26.73V614a1.07,1.07,0,0,0,.25.74,1,1,0,0,0,.72.26,1.13,1.13,0,0,0,.48-.11,1.26,1.26,0,0,0,.4-.32l.58.55a1.42,1.42,0,0,1-.38.35,1.88,1.88,0,0,1-.5.21,2.27,2.27,0,0,1-.59.08A2,2,0,0,1,600.1,615.54Z"/><path class="e" d="M603.4,611.63h.79v4.06h-.79Zm2.42,1.6a1,1,0,0,0-.21-.66.75.75,0,0,0-.6-.24.81.81,0,0,0-.6.21.75.75,0,0,0-.22.58l-.08-.78a1.5,1.5,0,0,1,.49-.56,1.15,1.15,0,0,1,.67-.2,1.32,1.32,0,0,1,.73.19,1.28,1.28,0,0,1,.46.56,2.42,2.42,0,0,1,.15.9v2.46h-.79Zm2.42,0a.91.91,0,0,0-.22-.66.82.82,0,0,0-.63-.24.72.72,0,0,0-.57.23.9.9,0,0,0-.21.64l-.16-.78a1.51,1.51,0,0,1,.51-.62,1.16,1.16,0,0,1,.69-.22,1.37,1.37,0,0,1,.75.19,1.18,1.18,0,0,1,.47.56,2.22,2.22,0,0,1,.17.9v2.46h-.8Z"/><path class="c" d="M23.49,613.89A12.92,12.92,0,1,1,36.4,601,12.93,12.93,0,0,1,23.49,613.89Zm0-24.83A11.92,11.92,0,1,0,35.4,601,11.93,11.93,0,0,0,23.49,589.06Z"/><polygon class="d" points="35.77 588.74 9.42 600.98 35.77 613.21 32.02 600.98 35.77 588.74"/><path class="c" d="M36.58,614.14,8.23,601l28.35-13.17-4,13.17ZM10.61,601,35,612.29,31.5,601,35,589.66Z"/><path class="c" d="M2.52,605.19a5,5,0,0,1-1.11-.38,4.4,4.4,0,0,1-1-.64l.81-1a3.72,3.72,0,0,0,1.16.69,4.08,4.08,0,0,0,1.38.23,2.73,2.73,0,0,0,1.55-.38,1.17,1.17,0,0,0,.55-1.05h0a1.12,1.12,0,0,0-.25-.77,1.44,1.44,0,0,0-.64-.42,8.23,8.23,0,0,0-1-.25H3.89l-.1,0a9.48,9.48,0,0,1-1.5-.36,2.08,2.08,0,0,1-1-.73,2.42,2.42,0,0,1-.41-1.51h0a2.77,2.77,0,0,1,.38-1.47,2.44,2.44,0,0,1,1.12-.92,4.48,4.48,0,0,1,1.77-.32,4.6,4.6,0,0,1,1,.11,4.9,4.9,0,0,1,1.86.86l-.73,1a4.61,4.61,0,0,0-1-.58,3,3,0,0,0-1.06-.2,2.44,2.44,0,0,0-1.46.38,1.24,1.24,0,0,0-.53,1.07h0a1,1,0,0,0,.27.75,1.74,1.74,0,0,0,.67.4,9.3,9.3,0,0,0,1.12.27h.24a7.93,7.93,0,0,1,1.4.41,2.22,2.22,0,0,1,.94.76,2.4,2.4,0,0,1,.38,1.43h0a2.62,2.62,0,0,1-.4,1.45,2.54,2.54,0,0,1-1.16.91,4.8,4.8,0,0,1-1.83.31A6.44,6.44,0,0,1,2.52,605.19Z"/><rect class="c" x="612.5" y="600.68" width="1" height="4.68"/><rect class="c" x="612.5" y="590.76" width="1" height="4.68"/><rect class="c" x="612.5" y="611.45" width="1" height="5.24"/><rect class="c" x="789.58" y="611.45" width="1" height="5.24"/><rect class="c" x="682.59" y="600.68" width="1" height="4.68"/><rect class="c" x="647.3" y="590.76" width="1" height="4.68"/><rect class="a" width="790.34" height="618.13"/><polygon class="f" points="400.49 363.66 400.49 283.59 412.97 283.59 412.96 363.66 400.49 363.66"/><line class="g" x1="400.49" y1="283.59" x2="400.49" y2="363.66"/><line class="g" x1="412.97" y1="283.59" x2="400.49" y2="283.59"/><line class="g" x1="412.96" y1="363.66" x2="412.97" y2="283.59"/><line class="g" x1="400.49" y1="363.66" x2="412.96" y2="363.66"/><rect class="d" x="417.82" y="193.46" width="117.51" height="21.08"/><line class="g" x1="535.33" y1="214.54" x2="417.82" y2="214.54"/><line class="g" x1="417.82" y1="214.54" x2="417.82" y2="193.46"/><line class="g" x1="417.82" y1="193.46" x2="535.33" y2="193.46"/><line class="g" x1="535.33" y1="193.46" x2="535.33" y2="214.54"/><rect class="d" x="248.84" y="220.33" width="31.2" height="31.2"/><line class="g" x1="248.84" y1="220.33" x2="248.84" y2="251.52"/><line class="g" x1="280.04" y1="220.33" x2="248.84" y2="220.33"/><line class="g" x1="280.04" y1="251.52" x2="280.04" y2="220.33"/><line class="g" x1="248.84" y1="251.52" x2="280.04" y2="251.52"/><rect class="d" x="384.2" y="193.46" width="13.87" height="20.8"/><line class="g" x1="384.2" y1="193.46" x2="384.2" y2="214.26"/><line class="g" x1="398.06" y1="193.46" x2="384.2" y2="193.46"/><line class="g" x1="398.06" y1="214.26" x2="398.06" y2="193.46"/><line class="g" x1="384.2" y1="214.26" x2="398.06" y2="214.26"/><line class="g" x1="247.98" y1="193.46" x2="247.98" y2="215.99"/><line class="g" x1="247.98" y1="216" x2="275.71" y2="216"/><line class="g" x1="275.71" y1="216" x2="251.44" y2="212.53"/><line class="g" x1="251.44" y1="212.53" x2="247.98" y2="193.46"/><line class="g" x1="414.36" y1="210.8" x2="400.49" y2="210.8"/><line class="g" x1="400.49" y1="210.8" x2="400.49" y2="193.46"/><line class="g" x1="400.49" y1="193.46" x2="403.96" y2="207.33"/><line class="g" x1="403.96" y1="207.33" x2="414.36" y2="210.8"/><line class="g" x1="247.98" y1="377.52" x2="247.98" y2="370.59"/><line class="g" x1="241.04" y1="185.15" x2="247.97" y2="185.15"/><line class="g" x1="535.67" y1="185.15" x2="535.67" y2="185.15"/><line class="g" x1="490.61" y1="377.52" x2="481.95" y2="377.52"/><line class="g" x1="549.54" y1="377.52" x2="490.61" y2="377.52"/><line class="g" x1="535.67" y1="363.66" x2="483.68" y2="363.66"/><line class="g" x1="542.61" y1="370.59" x2="483.68" y2="370.59"/><line class="g" x1="549.54" y1="377.52" x2="549.54" y2="251"/><line class="g" x1="549.54" y1="219.81" x2="549.54" y2="185.14"/><line class="g" x1="535.67" y1="363.66" x2="535.67" y2="252.74"/><line class="g" x1="535.67" y1="218.07" x2="535.67" y2="193.46"/><line class="g" x1="542.61" y1="370.59" x2="542.61" y2="252.74"/><line class="g" x1="542.61" y1="218.07" x2="542.61" y2="185.15"/><line class="g" x1="400.49" y1="363.66" x2="397.03" y2="363.66"/><line class="g" x1="247.98" y1="363.66" x2="247.98" y2="370.59"/><line class="g" x1="487.15" y1="429.51" x2="293.04" y2="429.51"/><line class="g" x1="487.15" y1="377.52" x2="487.15" y2="429.51"/><line class="g" x1="293.04" y1="429.51" x2="293.04" y2="377.52"/><line class="g" x1="416.09" y1="377.52" x2="364.09" y2="377.52"/><line class="g" x1="398.06" y1="363.66" x2="365.83" y2="363.66"/><line class="g" x1="414.36" y1="370.59" x2="365.83" y2="370.59"/><line class="g" x1="296.5" y1="370.59" x2="296.5" y2="363.66"/><line class="g" x1="365.83" y1="370.59" x2="365.83" y2="363.66"/><line class="g" x1="483.68" y1="370.59" x2="483.68" y2="363.66"/><line class="g" x1="414.36" y1="370.59" x2="414.36" y2="363.66"/><line class="g" x1="414.36" y1="363.66" x2="400.49" y2="363.66"/><line class="g" x1="481.95" y1="377.52" x2="481.95" y2="370.59"/><line class="g" x1="481.95" y1="370.59" x2="483.68" y2="370.59"/><line class="g" x1="416.09" y1="377.52" x2="416.09" y2="370.59"/><line class="g" x1="416.09" y1="370.59" x2="414.36" y2="370.59"/><line class="g" x1="449.02" y1="363.66" x2="449.02" y2="370.59"/><line class="g" x1="447.29" y1="370.59" x2="447.29" y2="377.52"/><line class="g" x1="481.95" y1="377.52" x2="447.29" y2="377.52"/><line class="g" x1="447.29" y1="377.52" x2="438.62" y2="377.52"/><line class="g" x1="433.59" y1="377.52" x2="432.55" y2="377.52"/><line class="g" x1="427.53" y1="377.52" x2="426.49" y2="377.52"/><line class="g" x1="424.75" y1="377.52" x2="416.09" y2="377.52"/><line class="g" x1="483.68" y1="363.66" x2="449.02" y2="363.66"/><line class="g" x1="449.02" y1="363.66" x2="414.36" y2="363.66"/><line class="g" x1="447.29" y1="374.06" x2="416.09" y2="374.06"/><line class="g" x1="364.1" y1="377.52" x2="364.1" y2="370.59"/><line class="g" x1="364.1" y1="370.59" x2="365.83" y2="370.59"/><line class="g" x1="298.24" y1="377.52" x2="298.24" y2="370.59"/><line class="g" x1="298.24" y1="370.59" x2="296.5" y2="370.59"/><line class="g" x1="331.17" y1="363.66" x2="331.17" y2="370.59"/><line class="g" x1="332.9" y1="370.59" x2="332.9" y2="377.52"/><line class="g" x1="298.24" y1="377.52" x2="332.9" y2="377.52"/><line class="g" x1="332.9" y1="377.52" x2="341.56" y2="377.52"/><line class="g" x1="346.59" y1="377.52" x2="347.63" y2="377.52"/><line class="g" x1="352.66" y1="377.52" x2="353.7" y2="377.52"/><line class="g" x1="355.43" y1="377.52" x2="364.09" y2="377.52"/><line class="g" x1="296.5" y1="363.66" x2="331.17" y2="363.66"/><line class="g" x1="331.17" y1="363.66" x2="365.83" y2="363.66"/><line class="g" x1="332.9" y1="374.06" x2="364.09" y2="374.06"/><line class="g" x1="289.57" y1="377.52" x2="253.17" y2="377.52"/><line class="g" x1="298.24" y1="377.52" x2="289.57" y2="377.52"/><line class="g" x1="296.5" y1="363.66" x2="247.98" y2="363.66"/><line class="g" x1="296.5" y1="370.59" x2="247.98" y2="370.59"/><line class="g" x1="542.61" y1="252.74" x2="535.67" y2="252.74"/><line class="g" x1="542.61" y1="218.07" x2="535.67" y2="218.07"/><line class="g" x1="549.54" y1="251" x2="549.54" y2="219.81"/><line class="g" x1="535.67" y1="218.07" x2="535.67" y2="252.74"/><line class="g" x1="542.61" y1="219.81" x2="549.54" y2="219.81"/><line class="g" x1="542.61" y1="219.81" x2="542.61" y2="218.08"/><line class="g" x1="542.61" y1="251" x2="549.54" y2="251"/><line class="g" x1="542.61" y1="251" x2="542.61" y2="252.74"/><line class="g" x1="541.91" y1="220.85" x2="542.61" y2="220.85"/><line class="g" x1="542.61" y1="220.85" x2="542.61" y2="218.07"/><line class="g" x1="542.61" y1="218.07" x2="539.83" y2="218.07"/><line class="g" x1="539.83" y1="218.07" x2="539.83" y2="219.46"/><line class="g" x1="539.14" y1="219.46" x2="539.14" y2="222.23"/><line class="g" x1="539.14" y1="222.23" x2="541.91" y2="222.23"/><line class="g" x1="541.91" y1="222.23" x2="541.91" y2="219.46"/><line class="g" x1="541.91" y1="219.46" x2="539.14" y2="219.46"/><line class="g" x1="541.91" y1="249.96" x2="542.61" y2="249.96"/><line class="g" x1="542.61" y1="249.96" x2="542.61" y2="252.74"/><line class="g" x1="542.61" y1="252.74" x2="539.83" y2="252.74"/><line class="g" x1="539.83" y1="252.74" x2="539.83" y2="251.35"/><line class="g" x1="539.14" y1="251.35" x2="539.14" y2="248.58"/><line class="g" x1="539.14" y1="248.58" x2="541.91" y2="248.58"/><line class="g" x1="541.91" y1="248.58" x2="541.91" y2="251.35"/><line class="g" x1="541.91" y1="251.35" x2="539.14" y2="251.35"/><line class="g" x1="539.14" y1="222.23" x2="539.14" y2="248.58"/><line class="g" x1="541.91" y1="248.58" x2="541.91" y2="222.23"/><line class="g" x1="540.53" y1="222.23" x2="540.53" y2="248.58"/><line class="g" x1="415.74" y1="367.12" x2="415.74" y2="335.23"/><line class="g" x1="446.24" y1="369.9" x2="446.24" y2="370.59"/><line class="g" x1="446.24" y1="370.59" x2="449.02" y2="370.59"/><line class="g" x1="449.02" y1="370.59" x2="449.02" y2="367.82"/><line class="g" x1="449.02" y1="367.82" x2="447.63" y2="367.82"/><line class="g" x1="447.63" y1="367.12" x2="444.86" y2="367.12"/><line class="g" x1="444.86" y1="367.12" x2="444.86" y2="369.9"/><line class="g" x1="444.86" y1="369.9" x2="447.63" y2="369.9"/><line class="g" x1="447.63" y1="369.9" x2="447.63" y2="367.12"/><line class="g" x1="417.13" y1="369.9" x2="417.13" y2="370.59"/><line class="g" x1="417.13" y1="370.59" x2="414.36" y2="370.59"/><line class="g" x1="414.36" y1="370.59" x2="414.36" y2="367.82"/><line class="g" x1="414.36" y1="367.82" x2="415.74" y2="367.82"/><line class="g" x1="415.74" y1="367.12" x2="418.52" y2="367.12"/><line class="g" x1="418.51" y1="367.12" x2="418.51" y2="369.9"/><line class="g" x1="418.51" y1="369.9" x2="415.74" y2="369.9"/><line class="g" x1="415.74" y1="369.9" x2="415.74" y2="367.12"/><line class="g" x1="444.86" y1="367.12" x2="418.52" y2="367.12"/><line class="g" x1="418.51" y1="369.9" x2="444.86" y2="369.9"/><line class="g" x1="444.86" y1="368.51" x2="418.52" y2="368.51"/><line class="g" x1="480.91" y1="369.9" x2="480.91" y2="370.59"/><line class="g" x1="480.91" y1="370.59" x2="483.68" y2="370.59"/><line class="g" x1="483.68" y1="370.59" x2="483.68" y2="367.82"/><line class="g" x1="483.68" y1="367.82" x2="482.29" y2="367.82"/><line class="g" x1="482.29" y1="367.12" x2="479.52" y2="367.12"/><line class="g" x1="479.52" y1="367.12" x2="479.52" y2="369.9"/><line class="g" x1="479.52" y1="369.9" x2="482.29" y2="369.9"/><line class="g" x1="482.29" y1="369.9" x2="482.29" y2="367.12"/><line class="g" x1="451.79" y1="369.9" x2="451.79" y2="370.59"/><line class="g" x1="451.79" y1="370.59" x2="449.02" y2="370.59"/><line class="g" x1="449.02" y1="370.59" x2="449.02" y2="367.82"/><line class="g" x1="449.02" y1="367.82" x2="450.4" y2="367.82"/><line class="g" x1="450.4" y1="367.12" x2="453.18" y2="367.12"/><line class="g" x1="453.18" y1="367.12" x2="453.18" y2="369.9"/><line class="g" x1="453.18" y1="369.9" x2="450.4" y2="369.9"/><line class="g" x1="450.4" y1="369.9" x2="450.4" y2="367.12"/><line class="g" x1="479.52" y1="367.12" x2="453.18" y2="367.12"/><line class="g" x1="453.18" y1="369.9" x2="479.52" y2="369.9"/><line class="g" x1="479.52" y1="368.51" x2="453.18" y2="368.51"/><g class="h"><path class="g" d="M415.74,335.23a31.89,31.89,0,0,1,31.89,31.89"/></g><line class="g" x1="364.44" y1="367.12" x2="364.44" y2="335.23"/><line class="g" x1="333.94" y1="369.9" x2="333.94" y2="370.59"/><line class="g" x1="333.94" y1="370.59" x2="331.17" y2="370.59"/><line class="g" x1="331.17" y1="370.59" x2="331.17" y2="367.82"/><line class="g" x1="331.17" y1="367.82" x2="332.55" y2="367.82"/><line class="g" x1="332.55" y1="367.12" x2="335.33" y2="367.12"/><line class="g" x1="335.32" y1="367.12" x2="335.32" y2="369.9"/><line class="g" x1="335.32" y1="369.9" x2="332.55" y2="369.9"/><line class="g" x1="332.55" y1="369.9" x2="332.55" y2="367.12"/><line class="g" x1="363.05" y1="369.9" x2="363.05" y2="370.59"/><line class="g" x1="363.05" y1="370.59" x2="365.83" y2="370.59"/><line class="g" x1="365.83" y1="370.59" x2="365.83" y2="367.82"/><line class="g" x1="365.83" y1="367.82" x2="364.44" y2="367.82"/><line class="g" x1="364.44" y1="367.12" x2="361.67" y2="367.12"/><line class="g" x1="361.67" y1="367.12" x2="361.67" y2="369.9"/><line class="g" x1="361.67" y1="369.9" x2="364.44" y2="369.9"/><line class="g" x1="364.44" y1="369.9" x2="364.44" y2="367.12"/><line class="g" x1="335.32" y1="367.12" x2="361.67" y2="367.12"/><line class="g" x1="361.67" y1="369.9" x2="335.33" y2="369.9"/><line class="g" x1="335.32" y1="368.51" x2="361.67" y2="368.51"/><line class="g" x1="299.28" y1="369.9" x2="299.28" y2="370.59"/><line class="g" x1="299.28" y1="370.59" x2="296.5" y2="370.59"/><line class="g" x1="296.5" y1="370.59" x2="296.5" y2="367.82"/><line class="g" x1="296.5" y1="367.82" x2="297.89" y2="367.82"/><line class="g" x1="297.89" y1="367.12" x2="300.66" y2="367.12"/><line class="g" x1="300.66" y1="367.12" x2="300.66" y2="369.9"/><line class="g" x1="300.66" y1="369.9" x2="297.89" y2="369.9"/><line class="g" x1="297.89" y1="369.9" x2="297.89" y2="367.12"/><line class="g" x1="328.39" y1="369.9" x2="328.39" y2="370.59"/><line class="g" x1="328.39" y1="370.59" x2="331.17" y2="370.59"/><line class="g" x1="331.17" y1="370.59" x2="331.17" y2="367.82"/><line class="g" x1="331.17" y1="367.82" x2="329.78" y2="367.82"/><line class="g" x1="329.78" y1="367.12" x2="327.01" y2="367.12"/><line class="g" x1="327.01" y1="367.12" x2="327.01" y2="369.9"/><line class="g" x1="327.01" y1="369.9" x2="329.78" y2="369.9"/><line class="g" x1="329.78" y1="369.9" x2="329.78" y2="367.12"/><line class="g" x1="300.66" y1="367.12" x2="327.01" y2="367.12"/><line class="g" x1="327.01" y1="369.9" x2="300.66" y2="369.9"/><line class="g" x1="300.66" y1="368.51" x2="327.01" y2="368.51"/><g class="h"><path class="g" d="M332.55,367.12a31.89,31.89,0,0,1,31.89-31.89"/></g><line class="g" x1="377.96" y1="193.46" x2="371.03" y2="193.46"/><line class="g" x1="367.21" y1="193.46" x2="366.43" y2="193.46"/><line class="g" x1="362.62" y1="193.46" x2="361.84" y2="193.46"/><line class="g" x1="358.03" y1="193.46" x2="351.1" y2="193.46"/><line class="g" x1="347.28" y1="193.46" x2="346.76" y2="193.46"/><line class="g" x1="346.76" y1="193.46" x2="339.83" y2="193.46"/><line class="g" x1="535.67" y1="185.15" x2="386.28" y2="185.15"/><line class="g" x1="400.49" y1="193.46" x2="414.36" y2="193.46"/><line class="g" x1="414.36" y1="193.46" x2="414.36" y2="210.8"/><line class="g" x1="414.36" y1="210.8" x2="400.49" y2="210.8"/><line class="g" x1="400.49" y1="210.8" x2="400.49" y2="193.46"/><line class="g" x1="247.98" y1="252.39" x2="247.98" y2="219.46"/><line class="g" x1="247.98" y1="216" x2="247.98" y2="193.47"/><line class="g" x1="339.83" y1="185.15" x2="247.98" y2="185.15"/><line class="g" x1="535.67" y1="193.46" x2="417.82" y2="193.46"/><line class="g" x1="275.71" y1="193.46" x2="247.98" y2="193.46"/><line class="g" x1="377.96" y1="185.15" x2="376.23" y2="185.15"/><line class="g" x1="339.83" y1="189.13" x2="339.83" y2="185.15"/><line class="g" x1="376.23" y1="189.13" x2="376.23" y2="185.15"/><line class="g" x1="341.56" y1="189.13" x2="341.56" y2="185.15"/><line class="g" x1="341.56" y1="189.13" x2="339.83" y2="189.13"/><line class="g" x1="376.23" y1="189.13" x2="377.96" y2="189.13"/><line class="g" x1="339.83" y1="189.13" x2="339.83" y2="193.46"/><line class="g" x1="417.82" y1="214.26" x2="400.49" y2="214.26"/><line class="g" x1="417.82" y1="214.26" x2="417.82" y2="193.46"/><line class="g" x1="417.82" y1="193.46" x2="414.36" y2="193.46"/><line class="g" x1="400.49" y1="210.8" x2="400.49" y2="214.26"/><line class="g" x1="535.67" y1="185.15" x2="535.67" y2="193.46"/><line class="g" x1="341.56" y1="185.15" x2="339.83" y2="185.15"/><line class="g" x1="279.17" y1="219.46" x2="247.98" y2="219.46"/><line class="g" x1="275.71" y1="216" x2="247.98" y2="216"/><line class="g" x1="279.17" y1="219.46" x2="279.17" y2="216"/><line class="g" x1="279.17" y1="219.46" x2="279.17" y2="193.46"/><line class="g" x1="275.71" y1="216" x2="275.71" y2="193.47"/><line class="g" x1="247.98" y1="216" x2="247.98" y2="219.46"/><line class="g" x1="279.17" y1="193.46" x2="275.71" y2="193.46"/><line class="g" x1="247.98" y1="193.46" x2="247.98" y2="185.15"/><line class="g" x1="377.96" y1="189.13" x2="377.96" y2="193.46"/><line class="g" x1="377.96" y1="185.15" x2="377.96" y2="185.15"/><line class="g" x1="377.96" y1="189.13" x2="377.96" y2="185.15"/><line class="g" x1="343.3" y1="189.13" x2="374.49" y2="189.13"/><line class="g" x1="343.3" y1="185.15" x2="374.49" y2="185.15"/><line class="g" x1="343.3" y1="189.13" x2="343.3" y2="220.33"/><g class="h"><path class="g" d="M374.49,189.13a31.19,31.19,0,0,1-31.19,31.2"/></g><line class="g" x1="343.3" y1="185.15" x2="343.3" y2="189.13"/><line class="g" x1="374.49" y1="189.13" x2="374.49" y2="185.15"/><line class="g" x1="374.49" y1="189.13" x2="376.23" y2="189.13"/><line class="g" x1="374.49" y1="185.15" x2="376.23" y2="185.15"/><line class="g" x1="341.56" y1="189.13" x2="343.3" y2="189.13"/><line class="g" x1="341.56" y1="185.15" x2="343.3" y2="185.15"/><line class="g" x1="398.06" y1="254.82" x2="374.49" y2="254.82"/><line class="g" x1="343.3" y1="254.82" x2="247.98" y2="254.82"/><line class="g" x1="398.06" y1="252.39" x2="374.49" y2="252.39"/><line class="g" x1="337.41" y1="252.39" x2="247.98" y2="252.39"/><line class="g" x1="398.06" y1="363.66" x2="398.06" y2="254.82"/><line class="g" x1="398.06" y1="252.39" x2="398.06" y2="248.93"/><line class="g" x1="398.06" y1="217.73" x2="398.06" y2="193.46"/><line class="g" x1="400.49" y1="363.66" x2="400.49" y2="248.92"/><line class="g" x1="400.49" y1="217.73" x2="400.49" y2="214.26"/><line class="g" x1="400.49" y1="248.92" x2="398.06" y2="248.92"/><line class="g" x1="374.49" y1="252.39" x2="374.49" y2="254.82"/><line class="g" x1="400.49" y1="217.73" x2="398.06" y2="217.73"/><line class="g" x1="337.41" y1="198.66" x2="279.17" y2="198.66"/><line class="g" x1="339.83" y1="252.39" x2="339.83" y2="248.93"/><line class="g" x1="339.83" y1="221.19" x2="339.83" y2="193.46"/><line class="g" x1="337.41" y1="252.39" x2="337.41" y2="248.93"/><line class="g" x1="337.41" y1="221.19" x2="337.41" y2="193.46"/><line class="g" x1="339.83" y1="248.92" x2="337.4" y2="248.92"/><line class="g" x1="339.83" y1="221.19" x2="337.4" y2="221.19"/><line class="g" x1="343.3" y1="252.39" x2="343.3" y2="254.82"/><line class="g" x1="339.83" y1="252.39" x2="343.3" y2="252.39"/><line class="g" x1="339.83" y1="222.93" x2="339.83" y2="247.19"/><line class="g" x1="339.83" y1="222.93" x2="364.09" y2="222.93"/><g class="h"><path class="g" d="M364.1,222.93a24.27,24.27,0,0,1-24.27,24.26"/></g><line class="g" x1="337.41" y1="222.93" x2="339.83" y2="222.93"/><line class="g" x1="339.83" y1="247.19" x2="337.4" y2="247.19"/><line class="g" x1="339.83" y1="247.19" x2="339.83" y2="248.92"/><line class="g" x1="337.41" y1="247.19" x2="337.41" y2="248.92"/><line class="g" x1="339.83" y1="221.19" x2="339.83" y2="222.93"/><line class="g" x1="337.41" y1="221.19" x2="337.41" y2="222.93"/><line class="g" x1="337.41" y1="222.93" x2="337.41" y2="229.86"/><line class="g" x1="337.41" y1="233.67" x2="337.41" y2="234.45"/><line class="g" x1="337.41" y1="238.27" x2="337.41" y2="239.05"/><line class="g" x1="337.41" y1="240.26" x2="337.41" y2="247.19"/><line class="g" x1="339.83" y1="222.93" x2="340.7" y2="222.93"/><line class="g" x1="340.7" y1="222.93" x2="340.7" y2="219.46"/><line class="g" x1="340.7" y1="219.46" x2="339.83" y2="219.46"/><line class="g" x1="337.41" y1="222.93" x2="336.54" y2="222.93"/><line class="g" x1="336.54" y1="222.93" x2="336.54" y2="219.46"/><line class="g" x1="336.54" y1="219.46" x2="337.41" y2="219.46"/><line class="g" x1="340.7" y1="247.19" x2="340.7" y2="250.66"/><line class="g" x1="340.7" y1="250.66" x2="339.83" y2="250.66"/><line class="g" x1="337.41" y1="247.19" x2="336.54" y2="247.19"/><line class="g" x1="336.54" y1="247.19" x2="336.54" y2="250.66"/><line class="g" x1="336.54" y1="250.66" x2="337.41" y2="250.66"/><line class="g" x1="400.49" y1="219.46" x2="400.49" y2="247.19"/><line class="g" x1="400.49" y1="219.46" x2="428.22" y2="219.46"/><g class="h"><path class="g" d="M428.22,219.46a27.73,27.73,0,0,1-27.73,27.73"/></g><line class="g" x1="398.06" y1="219.46" x2="400.49" y2="219.46"/><line class="g" x1="400.49" y1="247.19" x2="398.06" y2="247.19"/><line class="g" x1="400.49" y1="247.19" x2="400.49" y2="248.92"/><line class="g" x1="398.06" y1="247.19" x2="398.06" y2="248.92"/><line class="g" x1="400.49" y1="217.73" x2="400.49" y2="219.46"/><line class="g" x1="398.06" y1="217.73" x2="398.06" y2="219.46"/><line class="g" x1="398.06" y1="219.46" x2="398.06" y2="226.39"/><line class="g" x1="398.06" y1="230.21" x2="398.06" y2="230.99"/><line class="g" x1="398.06" y1="234.8" x2="398.06" y2="235.58"/><line class="g" x1="398.06" y1="239.39" x2="398.06" y2="240.26"/><line class="g" x1="398.06" y1="240.26" x2="398.06" y2="247.19"/><line class="g" x1="400.49" y1="219.46" x2="401.36" y2="219.46"/><line class="g" x1="401.36" y1="219.46" x2="401.36" y2="216"/><line class="g" x1="401.36" y1="216" x2="400.49" y2="216"/><line class="g" x1="398.06" y1="219.46" x2="397.2" y2="219.46"/><line class="g" x1="397.2" y1="219.46" x2="397.2" y2="216"/><line class="g" x1="397.2" y1="216" x2="398.06" y2="216"/><line class="g" x1="401.36" y1="247.19" x2="401.36" y2="250.66"/><line class="g" x1="401.36" y1="250.66" x2="400.49" y2="250.66"/><line class="g" x1="398.06" y1="247.19" x2="397.2" y2="247.19"/><line class="g" x1="397.2" y1="247.19" x2="397.2" y2="250.66"/><line class="g" x1="397.2" y1="250.66" x2="398.06" y2="250.66"/><line class="g" x1="372.76" y1="254.82" x2="345.03" y2="254.82"/><line class="g" x1="372.76" y1="254.82" x2="372.76" y2="282.55"/><g class="h"><path class="g" d="M372.76,282.55A27.74,27.74,0,0,1,345,254.82"/></g><line class="g" x1="372.76" y1="252.39" x2="372.76" y2="254.82"/><line class="g" x1="345.03" y1="254.82" x2="345.03" y2="252.39"/><line class="g" x1="345.03" y1="254.82" x2="343.3" y2="254.82"/><line class="g" x1="345.03" y1="252.39" x2="343.3" y2="252.39"/><line class="g" x1="374.49" y1="254.82" x2="372.76" y2="254.82"/><line class="g" x1="374.49" y1="252.39" x2="372.76" y2="252.39"/><line class="g" x1="372.76" y1="252.39" x2="365.83" y2="252.39"/><line class="g" x1="362.02" y1="252.39" x2="361.24" y2="252.39"/><line class="g" x1="357.42" y1="252.39" x2="356.64" y2="252.39"/><line class="g" x1="352.83" y1="252.39" x2="351.96" y2="252.39"/><line class="g" x1="351.96" y1="252.39" x2="345.03" y2="252.39"/><line class="g" x1="372.76" y1="254.82" x2="372.76" y2="255.68"/><line class="g" x1="372.76" y1="255.68" x2="376.23" y2="255.68"/><line class="g" x1="376.23" y1="255.68" x2="376.23" y2="254.82"/><line class="g" x1="372.76" y1="252.39" x2="372.76" y2="251.52"/><line class="g" x1="372.76" y1="251.52" x2="376.23" y2="251.52"/><line class="g" x1="376.23" y1="251.52" x2="376.23" y2="252.39"/><line class="g" x1="345.03" y1="255.68" x2="341.56" y2="255.68"/><line class="g" x1="341.56" y1="255.68" x2="341.56" y2="254.82"/><line class="g" x1="345.03" y1="252.39" x2="345.03" y2="251.52"/><line class="g" x1="345.03" y1="251.52" x2="341.56" y2="251.52"/><line class="g" x1="341.56" y1="251.52" x2="341.56" y2="252.39"/><line class="g" x1="247.98" y1="363.66" x2="247.98" y2="254.82"/><line class="g" x1="247.98" y1="254.82" x2="247.98" y2="252.39"/><line class="g" x1="279.17" y1="193.46" x2="337.41" y2="193.46"/><line class="g" x1="337.41" y1="193.46" x2="339.83" y2="193.46"/><line class="g" x1="377.96" y1="193.46" x2="398.06" y2="193.46"/><line class="g" x1="398.06" y1="193.46" x2="400.49" y2="193.46"/><line class="g" x1="386.28" y1="185.15" x2="386.28" y2="185.15"/><line class="g" x1="400.49" y1="214.26" x2="400.49" y2="210.8"/><line class="g" x1="438.97" y1="214.54" x2="438.97" y2="193.75"/><line class="g" x1="431.02" y1="201.7" x2="426.12" y2="206.6"/><line class="g" x1="426.12" y1="201.7" x2="431.02" y2="206.6"/><line class="g" x1="428.57" y1="207.61" x2="428.57" y2="200.68"/><line class="g" x1="432.03" y1="204.15" x2="425.1" y2="204.15"/><line class="g" x1="438.97" y1="214.54" x2="418.17" y2="214.54"/><line class="g" x1="458.9" y1="212.81" x2="439.83" y2="212.81"/><line class="g" x1="439.83" y1="212.81" x2="439.83" y2="195.48"/><line class="g" x1="439.83" y1="195.48" x2="458.9" y2="195.48"/><line class="g" x1="458.9" y1="195.48" x2="458.9" y2="212.81"/><line class="g" x1="459.76" y1="214.54" x2="438.97" y2="214.54"/><line class="g" x1="457.16" y1="211.08" x2="441.57" y2="211.08"/><line class="g" x1="441.57" y1="211.08" x2="441.57" y2="198.95"/><line class="g" x1="441.57" y1="198.95" x2="457.16" y2="198.95"/><line class="g" x1="457.16" y1="198.95" x2="457.16" y2="211.08"/><line class="g" x1="480.56" y1="193.75" x2="480.56" y2="214.54"/><line class="g" x1="480.56" y1="214.54" x2="501.36" y2="214.54"/><line class="g" x1="501.36" y1="214.54" x2="501.36" y2="193.75"/><line class="g" x1="501.36" y1="193.75" x2="501.36" y2="214.54"/><line class="g" x1="522.16" y1="214.54" x2="522.16" y2="193.75"/><line class="g" x1="519.32" y1="215.49" x2="504.19" y2="215.49"/><line class="g" x1="318.69" y1="251.46" x2="318.69" y2="247.99"/><line class="g" x1="318.69" y1="247.99" x2="297.89" y2="247.99"/><line class="g" x1="297.89" y1="247.99" x2="297.89" y2="251.46"/><line class="g" x1="297.89" y1="251.46" x2="298.93" y2="251.46"/><line class="g" x1="298.93" y1="251.46" x2="298.93" y2="249.03"/><line class="g" x1="298.93" y1="249.03" x2="317.65" y2="249.03"/><line class="g" x1="317.65" y1="249.03" x2="317.65" y2="251.46"/><line class="g" x1="317.65" y1="251.46" x2="318.69" y2="251.46"/><line class="g" x1="318.69" y1="251.46" x2="318.69" y2="247.99"/><line class="g" x1="297.89" y1="251.46" x2="297.89" y2="247.99"/><line class="g" x1="317.65" y1="251.46" x2="317.65" y2="249.03"/><line class="g" x1="298.93" y1="251.46" x2="298.93" y2="249.03"/><line class="g" x1="318.69" y1="247.99" x2="297.89" y2="247.99"/><line class="g" x1="318.69" y1="249.03" x2="297.89" y2="249.03"/><line class="g" x1="318.69" y1="251.46" x2="317.65" y2="251.46"/><line class="g" x1="298.93" y1="251.46" x2="297.89" y2="251.46"/><line class="g" x1="480.56" y1="214.54" x2="480.56" y2="193.46"/><line class="g" x1="480.56" y1="193.46" x2="459.76" y2="193.46"/><line class="g" x1="459.76" y1="193.46" x2="459.76" y2="214.54"/><line class="g" x1="459.76" y1="214.54" x2="480.56" y2="214.54"/><line class="g" x1="535.33" y1="193.46" x2="417.82" y2="193.46"/><line class="g" x1="417.82" y1="193.46" x2="417.82" y2="214.54"/><line class="g" x1="417.82" y1="214.54" x2="535.33" y2="214.54"/><line class="g" x1="535.33" y1="214.54" x2="535.33" y2="193.46"/><line class="g" x1="478.48" y1="294.27" x2="495.81" y2="294.27"/><line class="g" x1="495.81" y1="294.27" x2="495.81" y2="322"/><line class="g" x1="495.81" y1="322" x2="478.48" y2="322"/><line class="g" x1="478.48" y1="322" x2="478.48" y2="294.27"/><line class="g" x1="398.06" y1="193.46" x2="384.2" y2="193.46"/><line class="g" x1="384.2" y1="193.46" x2="384.2" y2="214.26"/><line class="g" x1="384.2" y1="214.26" x2="398.06" y2="214.26"/><line class="g" x1="398.06" y1="214.26" x2="398.06" y2="193.46"/><line class="g" x1="483.68" y1="361.86" x2="455.95" y2="361.86"/><line class="g" x1="455.95" y1="361.86" x2="455.95" y2="358.39"/><line class="g" x1="455.95" y1="358.39" x2="483.68" y2="358.39"/><line class="g" x1="483.68" y1="358.39" x2="483.68" y2="361.86"/><line class="g" x1="533.94" y1="218.01" x2="533.94" y2="252.67"/><line class="g" x1="533.94" y1="252.67" x2="530.47" y2="252.67"/><line class="g" x1="530.47" y1="252.67" x2="530.47" y2="218.01"/><line class="g" x1="530.47" y1="218.01" x2="533.94" y2="218.01"/><line class="g" x1="327.7" y1="361.86" x2="293.04" y2="361.86"/><line class="g" x1="293.04" y1="361.86" x2="293.04" y2="359.68"/><line class="g" x1="293.04" y1="359.68" x2="327.7" y2="359.68"/><line class="g" x1="327.7" y1="359.68" x2="327.7" y2="361.86"/><g class="h"><path class="g" d="M450.06,202.41a.7.7,0,1,0-.7.7.69.69,0,0,0,.7-.7"/><path class="g" d="M476.23,204.15a6.07,6.07,0,1,0-6.07,6.06,6.07,6.07,0,0,0,6.07-6.06"/><path class="g" d="M475.19,204.15a5,5,0,1,0-5,5,5,5,0,0,0,5-5"/><path class="g" d="M510.06,199a3.41,3.41,0,1,0-3.41,3.4,3.41,3.41,0,0,0,3.41-3.4"/><path class="g" d="M510.06,209.25a3.41,3.41,0,1,0-3.41,3.4,3.41,3.41,0,0,0,3.41-3.4"/><path class="g" d="M520.26,209.25a3.4,3.4,0,1,0-3.4,3.4,3.4,3.4,0,0,0,3.4-3.4"/><path class="g" d="M454.22,360.13a1.74,1.74,0,1,0-1.74,1.73,1.74,1.74,0,0,0,1.74-1.73"/><path class="g" d="M533.94,256.14a1.74,1.74,0,1,0-1.73,1.73,1.72,1.72,0,0,0,1.73-1.73"/><path class="g" d="M291.3,360.77a1.73,1.73,0,1,0-1.73,1.73,1.72,1.72,0,0,0,1.73-1.73"/><path class="g" d="M254.91,225.53a.87.87,0,1,0-.87.86.87.87,0,0,0,.87-.86"/></g><line class="g" x1="278.31" y1="225.53" x2="278.31" y2="246.32"/><line class="g" x1="274.84" y1="249.79" x2="254.04" y2="249.79"/><line class="g" x1="250.58" y1="246.32" x2="250.58" y2="225.53"/><line class="g" x1="254.04" y1="222.06" x2="274.84" y2="222.06"/><g class="h"><path class="g" d="M274.84,222.06a3.47,3.47,0,0,1,3.47,3.47"/><path class="g" d="M278.31,246.32a3.47,3.47,0,0,1-3.47,3.47"/><path class="g" d="M250.58,225.53a3.46,3.46,0,0,1,3.46-3.47"/><path class="g" d="M254,249.79a3.46,3.46,0,0,1-3.46-3.46"/></g><rect class="d" x="478.48" y="294.33" width="17.33" height="27.73"/><line class="g" x1="478.48" y1="322.06" x2="495.81" y2="322.06"/><line class="g" x1="478.48" y1="294.33" x2="478.48" y2="322.06"/><line class="g" x1="495.81" y1="294.33" x2="478.48" y2="294.33"/><line class="g" x1="495.81" y1="322.06" x2="495.81" y2="294.33"/><rect class="d" x="279.17" y="193.46" width="58.23" height="5.2"/><line class="g" x1="337.41" y1="198.66" x2="337.41" y2="193.46"/><line class="g" x1="279.17" y1="198.66" x2="337.41" y2="198.66"/><line class="g" x1="279.17" y1="193.46" x2="279.17" y2="198.66"/><line class="g" x1="337.41" y1="193.46" x2="279.17" y2="193.46"/><rect class="d" x="297.89" y="249.03" width="1.04" height="2.43"/><line class="g" x1="298.93" y1="249.03" x2="297.89" y2="249.03"/><line class="g" x1="298.93" y1="251.46" x2="298.93" y2="249.03"/><line class="g" x1="297.89" y1="251.46" x2="298.93" y2="251.46"/><line class="g" x1="297.89" y1="249.03" x2="297.89" y2="251.46"/><rect class="d" x="297.89" y="247.99" width="20.8" height="1.04"/><line class="g" x1="297.89" y1="247.99" x2="297.89" y2="249.03"/><line class="g" x1="318.69" y1="247.99" x2="297.89" y2="247.99"/><line class="g" x1="318.69" y1="249.03" x2="318.69" y2="247.99"/><line class="g" x1="297.89" y1="249.03" x2="318.69" y2="249.03"/><rect class="d" x="317.65" y="249.03" width="1.04" height="2.43"/><line class="g" x1="318.69" y1="249.03" x2="317.65" y2="249.03"/><line class="g" x1="318.69" y1="251.46" x2="318.69" y2="249.03"/><line class="g" x1="317.65" y1="251.46" x2="318.69" y2="251.46"/><line class="g" x1="317.65" y1="249.03" x2="317.65" y2="251.46"/><rect class="d" x="530.47" y="218.01" width="3.47" height="34.66"/><line class="g" x1="533.94" y1="218.01" x2="530.47" y2="218.01"/><line class="g" x1="533.94" y1="252.67" x2="533.94" y2="218.01"/><line class="g" x1="530.47" y1="252.67" x2="533.94" y2="252.67"/><line class="g" x1="530.47" y1="218.01" x2="530.47" y2="252.67"/><polygon class="f" points="533.94 256.14 533.43 257.37 532.21 257.87 530.98 257.37 530.47 256.14 530.98 254.91 532.21 254.41 533.43 254.91 533.94 256.14"/><g class="h"><path class="g" d="M533.94,256.14a1.74,1.74,0,0,1-3.47,0"/><path class="g" d="M530.47,256.14a1.74,1.74,0,0,1,3.47,0"/></g><polygon class="f" points="291.3 360.77 290.8 361.99 289.57 362.5 288.35 361.99 287.84 360.77 288.35 359.54 289.57 359.04 290.8 359.54 291.3 360.77"/><g class="h"><path class="g" d="M291.3,360.77a1.73,1.73,0,0,1-3.46,0"/><path class="g" d="M287.84,360.77a1.73,1.73,0,0,1,3.46,0"/></g><rect class="d" x="293.04" y="359.68" width="34.66" height="2.18"/><line class="g" x1="293.04" y1="361.86" x2="327.7" y2="361.86"/><line class="g" x1="293.04" y1="359.68" x2="293.04" y2="361.86"/><line class="g" x1="327.7" y1="359.68" x2="293.04" y2="359.68"/><line class="g" x1="327.7" y1="361.86" x2="327.7" y2="359.68"/><polygon class="f" points="454.22 360.13 453.71 361.35 452.48 361.86 451.26 361.35 450.75 360.13 451.26 358.9 452.48 358.39 453.71 358.9 454.22 360.13"/><g class="h"><path class="g" d="M454.22,360.13a1.74,1.74,0,0,1-3.47,0"/><path class="g" d="M450.75,360.13a1.74,1.74,0,1,1,3.47,0"/></g><rect class="d" x="455.95" y="358.39" width="27.73" height="3.47"/><line class="g" x1="455.95" y1="358.39" x2="455.95" y2="361.86"/><line class="g" x1="483.68" y1="358.39" x2="455.95" y2="358.39"/><line class="g" x1="483.68" y1="361.86" x2="483.68" y2="358.39"/><line class="g" x1="455.95" y1="361.86" x2="483.68" y2="361.86"/><polygon class="f" points="248.32 278.56 248.32 340.95 258.68 340.95 310.46 340.95 313.11 340.43 315.35 338.92 316.85 336.68 317.37 334.02 317.37 285.49 316.85 282.84 315.35 280.59 313.11 279.09 310.46 278.56 248.32 278.56"/><rect class="d" x="248.32" y="266.43" width="10.36" height="12.13"/><rect class="d" x="248.32" y="340.95" width="10.36" height="12.13"/><line class="g" x1="259.8" y1="311.72" x2="256.82" y2="312.55"/><line class="g" x1="259.8" y1="282.61" x2="256.82" y2="283.45"/><line class="g" x1="317.37" y1="334.02" x2="317.37" y2="285.49"/><line class="g" x1="310.47" y1="278.56" x2="248.32" y2="278.56"/><line class="g" x1="248.32" y1="278.56" x2="248.32" y2="340.95"/><line class="g" x1="248.32" y1="340.95" x2="310.46" y2="340.95"/><line class="g" x1="248.32" y1="278.56" x2="248.32" y2="266.43"/><line class="g" x1="248.32" y1="266.43" x2="258.68" y2="266.43"/><line class="g" x1="258.68" y1="266.43" x2="258.68" y2="278.56"/><line class="g" x1="258.68" y1="278.56" x2="248.32" y2="278.56"/><line class="g" x1="248.32" y1="353.08" x2="248.32" y2="340.95"/><line class="g" x1="248.32" y1="340.95" x2="258.68" y2="340.95"/><line class="g" x1="258.68" y1="340.95" x2="258.68" y2="353.08"/><line class="g" x1="258.68" y1="353.08" x2="248.32" y2="353.08"/><line class="g" x1="271.29" y1="278.56" x2="271.29" y2="340.95"/><line class="g" x1="276.47" y1="278.56" x2="276.47" y2="340.95"/><g class="h"><path class="g" d="M266.06,307.13a97.22,97.22,0,0,1-.34-22.6"/><path class="g" d="M263.82,282.28h.09a1.85,1.85,0,0,1,1.85,1.86,1.72,1.72,0,0,1,0,.39"/><path class="g" d="M259.8,282.61a14.94,14.94,0,0,1,3.2-.35l.82,0"/><path class="g" d="M252.09,282.42c.83,0,1.67-.06,2.5-.06,1.74,0,3.48.08,5.21.25"/><path class="g" d="M251.59,282.88v-.09a.38.38,0,0,1,.39-.39.2.2,0,0,1,.11,0"/><path class="g" d="M251.6,282.88q.56,7.44.56,14.9,0,4.71-.22,9.42"/><path class="g" d="M253.18,308.32a1.06,1.06,0,0,1-.31.05,1,1,0,0,1-1-1,1.36,1.36,0,0,1,0-.2"/><path class="g" d="M253.18,308.32a45,45,0,0,1,11.9-.18"/><path class="g" d="M266.06,307.13a.64.64,0,0,1,0,.24.8.8,0,0,1-.8.8.83.83,0,0,1-.22,0"/><path class="g" d="M310.47,278.56h0a6.91,6.91,0,0,1,6.9,6.93"/><path class="g" d="M317.37,334h0a6.91,6.91,0,0,1-6.9,6.93"/><path class="g" d="M266.06,336.23a97.14,97.14,0,0,1-.34-22.59"/><path class="g" d="M263.82,311.39h.09a1.85,1.85,0,0,1,1.85,1.85,2.58,2.58,0,0,1,0,.4"/><path class="g" d="M259.8,311.72a14.33,14.33,0,0,1,3.2-.35c.27,0,.55,0,.82,0"/><path class="g" d="M252.09,311.52c.84,0,1.67-.06,2.5-.06,1.74,0,3.48.09,5.21.26"/><path class="g" d="M251.59,312s0-.05,0-.08a.4.4,0,0,1,.4-.4l.11,0"/><path class="g" d="M251.59,312q.57,7.44.57,14.91c0,3.14-.07,6.28-.23,9.41"/><path class="g" d="M253.18,337.42a.81.81,0,0,1-.31.05,1,1,0,0,1-1-1,1.49,1.49,0,0,1,0-.21"/><path class="g" d="M253.18,337.42a46.21,46.21,0,0,1,11.9-.18"/><path class="g" d="M266.06,336.23a1,1,0,0,1,0,.24.8.8,0,0,1-.8.8.83.83,0,0,1-.22,0"/></g><line class="g" x1="445.55" y1="185.15" x2="445.55" y2="185.15"/><line class="g" x1="445.55" y1="185.15" x2="507.94" y2="185.15"/><line class="g" x1="507.94" y1="185.15" x2="507.94" y2="185.15"/><line class="g" x1="445.55" y1="185.15" x2="433.42" y2="185.15"/><line class="g" x1="433.42" y1="185.15" x2="433.42" y2="185.15"/><line class="g" x1="445.55" y1="185.15" x2="445.55" y2="185.15"/><line class="g" x1="520.08" y1="185.15" x2="507.94" y2="185.15"/><line class="g" x1="507.94" y1="185.15" x2="507.94" y2="185.15"/><line class="g" x1="520.08" y1="185.15" x2="520.08" y2="185.15"/><polygon class="f" points="456.72 246.53 452.82 239.81 451.55 238.54 449.81 238.07 448.08 238.54 442.07 241.99 440.81 243.26 440.35 244.99 440.81 246.72 444.7 253.44 446.9 250.57 449.78 248.37 453.12 246.99 456.72 246.53"/><polygon class="f" points="468.77 267.33 476.53 267.34 478.26 266.88 479.53 265.61 480 263.88 479.99 256.95 479.52 255.22 478.25 253.95 476.51 253.48 468.75 253.47 470.14 256.82 470.62 260.4 470.15 263.99 468.77 267.33"/><polygon class="f" points="444.72 267.3 440.86 274 440.39 275.73 440.86 277.46 442.13 278.73 448.15 282.2 449.88 282.67 451.62 282.21 452.89 280.94 456.76 274.24 453.16 273.76 449.82 272.37 446.94 270.17 444.72 267.3"/><polygon class="f" points="444.7 253.44 446.9 250.57 449.78 248.37 453.12 246.99 456.72 246.53 460.31 247 463.66 248.39 466.54 250.6 468.75 253.47 470.14 256.82 470.62 260.4 470.15 263.99 468.77 267.33 466.57 270.2 463.7 272.39 460.35 273.77 456.76 274.24 453.16 273.76 449.82 272.37 446.94 270.17 444.72 267.29 443.33 263.95 442.86 260.36 443.32 256.78 444.7 253.44"/><line class="g" x1="444.7" y1="253.44" x2="446.9" y2="250.57"/><line class="g" x1="446.9" y1="250.57" x2="449.78" y2="248.37"/><line class="g" x1="449.78" y1="248.37" x2="453.12" y2="246.99"/><line class="g" x1="453.12" y1="246.99" x2="456.72" y2="246.53"/><line class="g" x1="456.72" y1="246.53" x2="460.31" y2="247"/><line class="g" x1="460.31" y1="247" x2="463.66" y2="248.39"/><line class="g" x1="463.66" y1="248.39" x2="466.54" y2="250.6"/><line class="g" x1="466.54" y1="250.6" x2="468.75" y2="253.47"/><line class="g" x1="468.75" y1="253.47" x2="470.14" y2="256.82"/><line class="g" x1="470.14" y1="256.82" x2="470.62" y2="260.41"/><line class="g" x1="470.62" y1="260.4" x2="470.15" y2="263.99"/><line class="g" x1="470.15" y1="263.99" x2="468.77" y2="267.33"/><line class="g" x1="468.77" y1="267.33" x2="466.57" y2="270.2"/><line class="g" x1="466.57" y1="270.2" x2="463.7" y2="272.39"/><line class="g" x1="463.7" y1="272.39" x2="460.35" y2="273.77"/><line class="g" x1="460.35" y1="273.77" x2="456.76" y2="274.24"/><line class="g" x1="456.76" y1="274.24" x2="453.16" y2="273.76"/><line class="g" x1="453.16" y1="273.76" x2="449.82" y2="272.37"/><line class="g" x1="449.82" y1="272.37" x2="446.93" y2="270.17"/><line class="g" x1="446.93" y1="270.17" x2="444.72" y2="267.29"/><line class="g" x1="444.72" y1="267.29" x2="443.33" y2="263.95"/><line class="g" x1="443.33" y1="263.95" x2="442.85" y2="260.36"/><line class="g" x1="442.85" y1="260.36" x2="443.32" y2="256.78"/><line class="g" x1="443.32" y1="256.78" x2="444.7" y2="253.44"/><g class="h"><path class="g" d="M463.66,248.39h0a13.85,13.85,0,1,1-13.85,24"/><path class="g" d="M449.82,272.37h0a13.84,13.84,0,1,1,13.84-24"/></g><line class="g" x1="448.95" y1="240.04" x2="442.94" y2="243.49"/><line class="g" x1="440.81" y1="246.72" x2="444.7" y2="253.44"/><line class="g" x1="448.08" y1="238.54" x2="442.07" y2="241.99"/><line class="g" x1="456.72" y1="246.53" x2="452.82" y2="239.81"/><line class="g" x1="478.26" y1="263.88" x2="478.25" y2="256.95"/><line class="g" x1="476.51" y1="253.48" x2="468.75" y2="253.47"/><line class="g" x1="480" y1="263.88" x2="479.99" y2="256.95"/><line class="g" x1="468.77" y1="267.33" x2="476.53" y2="267.34"/><line class="g" x1="443" y1="277.23" x2="449.01" y2="280.71"/><line class="g" x1="452.89" y1="280.94" x2="456.76" y2="274.24"/><line class="g" x1="442.13" y1="278.73" x2="448.15" y2="282.2"/><line class="g" x1="444.72" y1="267.29" x2="440.85" y2="273.99"/><g class="h"><path class="g" d="M442.32,245.86a1.7,1.7,0,0,1,0-1.73,1.64,1.64,0,0,1,.64-.64"/><path class="g" d="M449,240a1.73,1.73,0,0,1,2.37.63"/><path class="g" d="M440.81,246.72a3.45,3.45,0,0,1,0-3.46,3.37,3.37,0,0,1,1.27-1.27"/><path class="g" d="M448.08,238.54a3.47,3.47,0,0,1,4.74,1.27"/><path class="g" d="M476.51,255.22a1.77,1.77,0,0,1,.87.23,1.73,1.73,0,0,1,.87,1.5"/><path class="g" d="M478.26,263.88a1.8,1.8,0,0,1-.23.87,1.74,1.74,0,0,1-1.5.86"/><path class="g" d="M476.51,253.48a3.62,3.62,0,0,1,1.73.47,3.47,3.47,0,0,1,1.74,3"/><path class="g" d="M480,263.88a3.54,3.54,0,0,1-.46,1.74,3.46,3.46,0,0,1-3,1.72"/><path class="g" d="M451.38,280.08h0a1.74,1.74,0,0,1-2.36.63"/><path class="g" d="M443,277.23a1.74,1.74,0,0,1-.64-2.37"/><path class="g" d="M452.89,281h0a3.48,3.48,0,0,1-4.74,1.26"/><path class="g" d="M442.13,278.73h0a3.47,3.47,0,0,1-1.27-4.74"/></g><polygon class="f" points="503.43 328.93 502.8 329.31 502.75 330.03 502.75 355.68 502.71 356.17 502.98 356.57 503.44 356.72 531.51 356.72 532 356.52 532.21 356.03 532.21 284.63 532 284.14 531.51 283.93 506.21 283.93 504.48 284.4 503.21 285.67 502.75 287.4 502.75 288.44 502.95 288.93 503.44 289.13 502.93 289.55 502.75 290.17 502.75 327.95 502.94 328.55 503.43 328.93"/><polygon class="f" points="480.21 328.99 477.56 329.52 475.31 331.02 473.81 333.27 473.28 335.93 473.28 349.79 473.81 352.45 475.31 354.69 477.56 356.2 480.21 356.72 501.7 356.72 502.44 356.42 502.74 355.68 502.74 330.03 502.44 329.3 501.7 328.99 480.21 328.99"/><line class="g" x1="501.7" y1="328.99" x2="480.21" y2="328.99"/><g class="h"><path class="g" d="M501.7,329a1,1,0,0,1,1.05,1"/></g><line class="g" x1="502.75" y1="355.68" x2="502.75" y2="330.03"/><g class="h"><path class="g" d="M502.75,355.68a1,1,0,0,1-1.05,1"/></g><line class="g" x1="480.21" y1="356.72" x2="501.71" y2="356.72"/><g class="h"><path class="g" d="M480.21,356.72a6.93,6.93,0,0,1-6.93-6.93"/></g><line class="g" x1="473.28" y1="335.93" x2="473.28" y2="349.79"/><g class="h"><path class="g" d="M473.28,335.93a6.94,6.94,0,0,1,6.93-6.94"/></g><line class="g" x1="502.75" y1="288.44" x2="502.75" y2="287.4"/><line class="g" x1="506.21" y1="283.93" x2="531.51" y2="283.93"/><line class="g" x1="532.21" y1="284.63" x2="532.21" y2="288.44"/><line class="g" x1="531.51" y1="289.13" x2="503.44" y2="289.13"/><line class="g" x1="532.21" y1="288.44" x2="532.21" y2="328.99"/><line class="g" x1="532.21" y1="328.99" x2="529.78" y2="328.99"/><line class="g" x1="502.75" y1="327.95" x2="502.75" y2="290.17"/><line class="g" x1="503.79" y1="289.13" x2="521.16" y2="289.13"/><line class="g" x1="521.16" y1="328.99" x2="503.79" y2="328.99"/><line class="g" x1="529.78" y1="289.13" x2="523.24" y2="289.13"/><line class="g" x1="523.24" y1="328.99" x2="529.78" y2="328.99"/><line class="g" x1="502.75" y1="352.22" x2="502.75" y2="356.03"/><line class="g" x1="503.44" y1="356.72" x2="531.51" y2="356.72"/><line class="g" x1="532.21" y1="356.03" x2="532.21" y2="352.22"/><line class="g" x1="532.21" y1="352.22" x2="532.21" y2="328.99"/><line class="g" x1="532.21" y1="328.99" x2="529.78" y2="328.99"/><line class="g" x1="502.75" y1="330.03" x2="502.75" y2="350.49"/><line class="g" x1="521.16" y1="328.99" x2="503.79" y2="328.99"/><line class="g" x1="521.16" y1="328.99" x2="529.78" y2="328.99"/><line class="g" x1="473.28" y1="335.93" x2="473.28" y2="349.79"/><line class="g" x1="480.21" y1="356.72" x2="501.71" y2="356.72"/><line class="g" x1="502.75" y1="355.68" x2="502.75" y2="330.03"/><line class="g" x1="501.7" y1="328.99" x2="480.21" y2="328.99"/><line class="g" x1="530.82" y1="330.03" x2="530.82" y2="355.68"/><line class="g" x1="530.82" y1="327.95" x2="530.82" y2="290.17"/><g class="h"><path class="g" d="M531.51,283.93a.69.69,0,0,1,.7.69"/><path class="g" d="M532.21,288.44a.69.69,0,0,1-.69.69"/><path class="g" d="M503.44,289.13a.69.69,0,0,1-.69-.69"/><path class="g" d="M502.75,290.17a1,1,0,0,1,1-1"/><path class="g" d="M503.79,329a1,1,0,0,1-1.05-1"/><path class="g" d="M503.44,356.72a.68.68,0,0,1-.69-.69"/><path class="g" d="M532.21,356a.69.69,0,0,1-.69.69"/><path class="g" d="M502.75,330a1,1,0,0,1,1-1"/><path class="g" d="M502.75,355.68a1,1,0,0,1-1.05,1"/><path class="g" d="M501.7,329a1,1,0,0,1,1.05,1"/></g><line class="g" x1="530.82" y1="355.68" x2="507.21" y2="355.68"/><g class="h"><path class="g" d="M526.79,330A19.67,19.67,0,0,1,512,354.43"/><path class="g" d="M526,328a118.14,118.14,0,0,1,0-37.78"/><path class="g" d="M473.28,335.93a6.94,6.94,0,0,1,6.93-6.94"/><path class="g" d="M480.21,356.72a6.93,6.93,0,0,1-6.93-6.93"/><path class="g" d="M502.75,287.4a3.47,3.47,0,0,1,3.46-3.47"/></g><line class="g" x1="407.08" y1="185.15" x2="407.08" y2="185.15"/><line class="g" x1="386.28" y1="185.15" x2="386.28" y2="185.15"/><line class="g" x1="386.28" y1="185.15" x2="407.08" y2="185.15"/><rect class="d" x="376.75" y="254.82" width="21.32" height="54.94"/><line class="g" x1="398.06" y1="309.76" x2="398.06" y2="254.82"/><line class="g" x1="398.06" y1="254.82" x2="376.75" y2="254.82"/><line class="g" x1="376.75" y1="254.82" x2="376.75" y2="309.76"/><line class="g" x1="376.75" y1="309.76" x2="398.06" y2="309.76"/><line class="g" x1="387.41" y1="307.01" x2="387.41" y2="257.56"/><line class="g" x1="393.68" y1="304.46" x2="380.9" y2="299.82"/><line class="g" x1="394.31" y1="299.22" x2="382.43" y2="297.3"/><line class="g" x1="379.72" y1="292.07" x2="392.76" y2="290.49"/><line class="g" x1="381.43" y1="283.96" x2="392.76" y2="286.11"/><line class="g" x1="380.78" y1="281.01" x2="394.74" y2="281.01"/><line class="g" x1="380.72" y1="272.66" x2="394.51" y2="274.64"/><line class="g" x1="380.95" y1="269.53" x2="393.55" y2="269.53"/><line class="g" x1="380.82" y1="261.29" x2="393.74" y2="259.71"/><line class="g" x1="381.7" y1="263.28" x2="392.62" y2="264.89"/><rect class="d" x="376.75" y="309.76" width="21.32" height="53.9"/><line class="g" x1="398.06" y1="363.66" x2="398.06" y2="309.76"/><line class="g" x1="398.06" y1="309.76" x2="376.75" y2="309.76"/><line class="g" x1="376.75" y1="309.76" x2="376.75" y2="363.66"/><line class="g" x1="376.75" y1="363.66" x2="398.06" y2="363.66"/><line class="g" x1="387.41" y1="360.96" x2="387.41" y2="312.45"/><line class="g" x1="393.68" y1="358.46" x2="380.9" y2="353.9"/><line class="g" x1="394.31" y1="353.32" x2="382.43" y2="351.44"/><line class="g" x1="379.72" y1="346.3" x2="392.76" y2="344.75"/><line class="g" x1="381.43" y1="338.35" x2="392.76" y2="340.46"/><line class="g" x1="380.78" y1="335.46" x2="394.74" y2="335.46"/><line class="g" x1="380.72" y1="327.26" x2="394.51" y2="329.21"/><line class="g" x1="380.95" y1="324.2" x2="393.55" y2="324.2"/><line class="g" x1="380.82" y1="316.11" x2="393.74" y2="314.56"/><line class="g" x1="381.7" y1="318.06" x2="392.62" y2="319.63"/><polygon class="f" points="328.91 198.66 310.89 198.66 310.52 198.82 310.37 199.18 310.37 213.4 310.52 213.76 310.89 213.91 328.91 213.91 329.28 213.76 329.43 213.4 329.43 199.18 329.28 198.82 328.91 198.66"/><g class="h"><path class="g" d="M328.91,198.66a.52.52,0,0,1,.52.52"/></g><line class="g" x1="329.43" y1="213.4" x2="329.43" y2="199.18"/><g class="h"><path class="g" d="M329.43,213.4a.52.52,0,0,1-.52.52"/></g><line class="g" x1="310.89" y1="213.91" x2="328.91" y2="213.91"/><g class="h"><path class="g" d="M310.89,213.91a.52.52,0,0,1-.52-.52"/></g><line class="g" x1="310.37" y1="199.18" x2="310.37" y2="213.4"/><g class="h"><path class="g" d="M310.37,199.18a.52.52,0,0,1,.52-.52"/></g><line class="g" x1="328.91" y1="198.66" x2="310.89" y2="198.66"/><line class="g" x1="327.87" y1="202.48" x2="311.93" y2="202.48"/><line class="g" x1="311.41" y1="203" x2="311.41" y2="212.35"/><line class="g" x1="311.93" y1="212.88" x2="327.87" y2="212.88"/><line class="g" x1="328.39" y1="212.36" x2="328.39" y2="203"/><g class="h"><path class="g" d="M311.41,203a.52.52,0,0,1,.52-.52"/><path class="g" d="M311.93,212.88a.52.52,0,0,1-.52-.52"/><path class="g" d="M328.39,212.36a.52.52,0,0,1-.52.52"/><path class="g" d="M327.87,202.48a.52.52,0,0,1,.52.52"/></g><polygon class="f" points="320.77 200.74 320.63 202.2 320.51 202.53 320.28 204.36 320.16 204.6 319.9 204.7 319.64 204.6 319.51 204.36 319.29 202.53 319.17 202.2 319.03 200.74 319.29 200.13 319.9 199.88 320.51 200.13 320.77 200.74"/><line class="g" x1="320.77" y1="200.74" x2="320.63" y2="202.2"/><g class="h"><path class="g" d="M320.63,202.2a.7.7,0,0,1-.12.33"/></g><line class="g" x1="320.51" y1="202.53" x2="320.28" y2="204.36"/><g class="h"><path class="g" d="M320.28,204.36a.38.38,0,0,1-.38.34.37.37,0,0,1-.38-.34"/></g><line class="g" x1="319.52" y1="204.36" x2="319.29" y2="202.53"/><g class="h"><path class="g" d="M319.29,202.53a.7.7,0,0,1-.12-.33"/></g><line class="g" x1="319.17" y1="202.2" x2="319.03" y2="200.74"/><g class="h"><path class="g" d="M319,200.74a.87.87,0,0,1,1.74,0"/></g><line class="g" x1="319.43" y1="201.61" x2="319.43" y2="202.12"/><line class="g" x1="320.37" y1="202.12" x2="320.37" y2="201.61"/><line class="g" x1="320.37" y1="201.61" x2="319.43" y2="201.61"/><g class="h"><path class="g" d="M320.37,202.12a.47.47,0,1,1-.94,0"/><path class="g" d="M320.51,202.53a.73.73,0,0,1-1.22,0"/></g><polygon class="f" points="302.05 198.66 289.22 198.66 289.22 210.1 289.49 211.81 290.27 213.37 291.48 214.61 293.44 215.64 295.64 216 297.83 215.64 299.8 214.61 301.01 213.37 301.78 211.81 302.05 210.1 302.05 198.66"/><line class="g" x1="289.22" y1="198.66" x2="289.22" y2="210.1"/><line class="g" x1="289.22" y1="198.66" x2="302.05" y2="198.66"/><line class="g" x1="302.05" y1="198.66" x2="302.05" y2="210.1"/><line class="g" x1="291.3" y1="202.82" x2="291.3" y2="210.1"/><line class="g" x1="299.97" y1="202.82" x2="299.97" y2="210.1"/><line class="g" x1="299.97" y1="202.82" x2="291.3" y2="202.82"/><g class="h"><path class="g" d="M291.48,214.61a5.65,5.65,0,0,1-2.26-4.51"/><path class="g" d="M302.05,210.1a5.67,5.67,0,0,1-2.25,4.51"/><path class="g" d="M299.8,214.61a6.92,6.92,0,0,1-8.32,0"/><path class="g" d="M302.05,210.1a5.67,5.67,0,0,1-2.25,4.51"/><path class="g" d="M299.8,214.61a6.94,6.94,0,0,1-4.16,1.39"/><path class="g" d="M300,210.1a3.56,3.56,0,0,1-1.42,2.84"/><path class="g" d="M298.55,212.94a4.87,4.87,0,0,1-5.83,0"/><path class="g" d="M292.72,212.94a3.56,3.56,0,0,1-1.42-2.84"/></g><line class="g" x1="488.61" y1="205.68" x2="488.61" y2="199.87"/><line class="g" x1="488.61" y1="199.87" x2="490.97" y2="201.77"/><line class="g" x1="490.97" y1="201.77" x2="493.33" y2="199.87"/><line class="g" x1="493.33" y1="199.87" x2="493.33" y2="205.68"/><line class="g" x1="291.3" y1="377.52" x2="291.3" y2="431.25"/><line class="g" x1="291.3" y1="431.25" x2="488.88" y2="431.25"/><line class="g" x1="488.88" y1="431.25" x2="488.88" y2="377.52"/><line class="g" x1="289.57" y1="377.52" x2="289.57" y2="432.98"/><line class="g" x1="490.61" y1="432.98" x2="490.61" y2="377.52"/><polygon class="i" points="535.67 252.74 542.61 252.74 542.61 370.59 483.68 370.59 483.68 363.66 535.67 363.66 535.67 252.74"/><polygon class="i" points="490.61 377.52 481.95 377.52 481.95 370.59 542.61 370.59 542.61 251 549.54 251 549.54 377.52 490.61 377.52"/><rect x="535.67" y="185.14" width="6.93" height="32.93"/><rect x="542.61" y="185.14" width="6.93" height="34.66"/><rect x="365.83" y="363.66" width="48.53" height="6.93"/><rect x="364.09" y="370.59" width="51.99" height="6.93"/><polygon class="i" points="247.98 370.59 298.24 370.59 298.24 377.52 289.57 377.52 253.18 377.52 247.98 377.52 247.98 370.59"/><rect x="247.98" y="363.66" width="48.53" height="6.93"/><rect x="247.98" y="185.14" width="91.86" height="8.32"/><polygon class="i" points="400.49 210.8 414.36 210.8 414.36 193.47 417.82 193.47 417.82 214.26 400.49 214.26 400.49 210.8"/><polygon class="i" points="535.67 193.46 377.96 193.46 377.96 185.15 386.28 185.15 535.67 185.15 535.67 193.46"/><rect x="275.71" y="193.46" width="3.47" height="22.53"/><rect x="247.98" y="215.99" width="31.2" height="3.46"/><polygon class="i" points="241.04 192.08 241.04 185.15 247.97 185.15 247.97 377.52 241.04 377.52 241.04 192.08"/><rect x="398.06" y="193.46" width="2.43" height="24.26"/><polygon class="i" points="247.98 252.39 337.4 252.39 337.4 248.93 339.83 248.93 339.83 252.39 343.3 252.39 343.3 254.82 247.98 254.82 247.98 252.39"/><rect x="337.41" y="193.46" width="2.43" height="27.73"/><polygon class="i" points="374.49 252.39 398.06 252.39 398.06 248.93 400.49 248.93 400.49 363.65 398.06 363.65 398.06 254.82 374.49 254.82 374.49 252.39"/><rect x="339.83" y="185.14" width="1.73" height="3.99"/><rect x="376.23" y="185.14" width="1.73" height="3.99"/><line class="g" x1="409.45" y1="308.44" x2="409.45" y2="340.06"/><line class="g" x1="409.45" y1="340.06" x2="407.32" y2="340.06"/><line class="g" x1="407.32" y1="340.06" x2="405.2" y2="332.15"/><line class="g" x1="405.2" y1="332.16" x2="405.2" y2="316.35"/><line class="g" x1="405.2" y1="316.35" x2="407.32" y2="308.44"/><line class="g" x1="407.32" y1="308.44" x2="409.45" y2="308.44"/><line class="g" x1="408.6" y1="337.95" x2="408.6" y2="335.85"/><line class="g" x1="408.6" y1="335.85" x2="408.07" y2="335.85"/><line class="g" x1="408.07" y1="335.85" x2="408.07" y2="337.95"/><line class="g" x1="408.07" y1="337.95" x2="408.6" y2="337.95"/><line class="g" x1="408.6" y1="335.32" x2="408.6" y2="333.21"/><line class="g" x1="408.6" y1="333.21" x2="408.07" y2="333.21"/><line class="g" x1="408.07" y1="333.21" x2="408.07" y2="335.32"/><line class="g" x1="408.07" y1="335.32" x2="408.6" y2="335.32"/><line class="g" x1="408.6" y1="332.68" x2="408.6" y2="331.63"/><line class="g" x1="408.6" y1="331.63" x2="408.07" y2="331.63"/><line class="g" x1="408.07" y1="331.63" x2="408.07" y2="332.68"/><line class="g" x1="408.07" y1="332.68" x2="408.6" y2="332.68"/><line class="g" x1="407.32" y1="308.44" x2="407.32" y2="340.06"/><g class="h"><path class="g" d="M405.59,317.93a6.32,6.32,0,1,1,0,12.64"/><path class="g" d="M405.59,330.57a12.6,12.6,0,0,1,0-12.64"/></g><line class="g" x1="549.54" y1="185.15" x2="241.04" y2="185.15"/><line class="g" x1="241.04" y1="185.15" x2="241.04" y2="377.52"/><line class="g" x1="241.04" y1="377.52" x2="289.57" y2="377.52"/><line class="g" x1="289.57" y1="377.52" x2="289.57" y2="432.98"/><line class="g" x1="289.57" y1="432.98" x2="490.61" y2="432.98"/><line class="g" x1="490.61" y1="432.98" x2="490.61" y2="377.52"/><line class="g" x1="490.61" y1="377.52" x2="549.54" y2="377.52"/><line class="g" x1="549.54" y1="377.52" x2="549.54" y2="185.15"/><path class="j" d="M298.34,225.3v7h-.72v-6.36H296v-.64Z"/><path class="j" d="M300,231.8a.53.53,0,0,1,.53-.54.54.54,0,0,1,.54.54.55.55,0,0,1-.54.55A.54.54,0,0,1,300,231.8Z"/><path class="j" d="M302,228.8c0-2.23,1.17-3.56,2.79-3.56s2.8,1.33,2.8,3.56-1.18,3.56-2.8,3.56S302,231,302,228.8Zm4.85,0c0-1.87-.84-2.9-2.06-2.9s-2.06,1-2.06,2.9.84,2.9,2.06,2.9S306.88,230.67,306.88,228.8Z"/><path class="j" d="M314.6,230.46h-1.4v1.84h-.72v-1.84h-4v-.52l3.71-4.64h.8l-3.58,4.52h3V228.2h.7v1.62h1.4Z"/><path class="j" d="M383.52,398.63v7h-.72v-6.36h-1.65v-.64Z"/><path class="j" d="M385.2,405.13a.53.53,0,0,1,.53-.54.54.54,0,0,1,.54.54.55.55,0,0,1-.54.55A.54.54,0,0,1,385.2,405.13Z"/><path class="j" d="M387.21,402.13c0-2.23,1.17-3.56,2.79-3.56s2.8,1.33,2.8,3.56-1.18,3.56-2.8,3.56S387.21,404.36,387.21,402.13Zm4.85,0c0-1.87-.84-2.9-2.06-2.9s-2.06,1-2.06,2.9.84,2.9,2.06,2.9S392.06,404,392.06,402.13Z"/><path class="j" d="M398.58,403.57c0,1.19-.83,2.12-2.54,2.12a3.61,3.61,0,0,1-2.51-.9l.35-.57A3,3,0,0,0,396,405c1.19,0,1.82-.58,1.82-1.43s-.56-1.46-2.34-1.46H394l.36-3.51h3.83v.64H395l-.24,2.23h.9C397.78,401.5,398.58,402.33,398.58,403.57Z"/><path class="j" d="M441.77,305.12v7h-.72v-6.36H439.4v-.64Z"/><path class="j" d="M443.45,311.62a.53.53,0,0,1,.53-.54.54.54,0,0,1,.54.54.55.55,0,0,1-.54.55A.54.54,0,0,1,443.45,311.62Z"/><path class="j" d="M445.46,308.62c0-2.23,1.17-3.56,2.79-3.56s2.8,1.33,2.8,3.56-1.18,3.56-2.8,3.56S445.46,310.85,445.46,308.62Zm4.85,0c0-1.87-.84-2.9-2.06-2.9s-2.06,1-2.06,2.9.84,2.9,2.06,2.9S450.31,310.49,450.31,308.62Z"/><path class="j" d="M456.62,310.11c0,1.17-.85,2.07-2.54,2.07a3.64,3.64,0,0,1-2.52-.9l.35-.57a3.07,3.07,0,0,0,2.17.81c1.16,0,1.8-.54,1.8-1.41s-.59-1.39-1.89-1.39h-.5v-.53l1.94-2.43h-3.58v-.64h4.5v.51l-2,2.49C455.87,308.2,456.62,309,456.62,310.11Z"/><path class="j" d="M336.89,305.12v7h-.72v-6.36h-1.65v-.64Z"/><path class="j" d="M338.57,311.62a.53.53,0,0,1,.53-.54.54.54,0,0,1,.54.54.55.55,0,0,1-.54.55A.54.54,0,0,1,338.57,311.62Z"/><path class="j" d="M340.58,308.62c0-2.23,1.17-3.56,2.79-3.56s2.8,1.33,2.8,3.56-1.18,3.56-2.8,3.56S340.58,310.85,340.58,308.62Zm4.85,0c0-1.87-.84-2.9-2.06-2.9s-2.06,1-2.06,2.9.84,2.9,2.06,2.9S345.43,310.49,345.43,308.62Z"/><path class="j" d="M352,311.48v.64h-4.91v-.51l2.91-2.85c.79-.78.94-1.25.94-1.73,0-.81-.57-1.31-1.64-1.31a2.38,2.38,0,0,0-1.91.78l-.51-.44a3.15,3.15,0,0,1,2.48-1c1.42,0,2.32.72,2.32,1.89a2.88,2.88,0,0,1-1.15,2.19l-2.38,2.34Z"/><path class="j" d="M374.13,225.29v7h-.72v-6.36h-1.65v-.64Z"/><path class="j" d="M375.81,231.79a.53.53,0,0,1,.53-.54.54.54,0,0,1,.54.54.55.55,0,0,1-.54.55A.54.54,0,0,1,375.81,231.79Z"/><path class="j" d="M377.82,228.79c0-2.23,1.17-3.56,2.79-3.56s2.8,1.33,2.8,3.56-1.18,3.56-2.8,3.56S377.82,231,377.82,228.79Zm4.85,0c0-1.87-.84-2.9-2.06-2.9s-2.06,1-2.06,2.9.84,2.9,2.06,2.9S382.67,230.66,382.67,228.79Z"/><path class="j" d="M386.37,225.29v7h-.72v-6.36H384v-.64Z"/></svg>