<svg xmlns="http://www.w3.org/2000/svg" xmlns:xlink="http://www.w3.org/1999/xlink" viewBox="0 0 790.58 618.13"><defs><style>.a,.f{fill:none;}.b{fill:#595a5c;}.c{fill:#b6906c;}.d{fill:#fff;}.e{fill:#231f20;}.f{stroke:#000;stroke-linecap:round;stroke-linejoin:round;stroke-width:0.35px;}.g{clip-path:url(#a);}.h{fill:#58595b;}</style><clipPath id="a"><polygon class="a" points="322.74 166.47 322.74 221.85 308.92 221.85 308.92 451.65 481.66 451.65 481.66 221.85 467.84 221.85 467.84 166.47 322.74 166.47"/></clipPath></defs><path class="b" d="M55.31,597.13H57.1V609.9H55.31Zm.92,6.11h4.09a1.89,1.89,0,0,0,1-.27,1.82,1.82,0,0,0,.68-.77,2.67,2.67,0,0,0,.24-1.16,2.7,2.7,0,0,0-.24-1.16,1.82,1.82,0,0,0-1.7-1H56.23v-1.7h4a4.09,4.09,0,0,1,2,.48A3.45,3.45,0,0,1,63.62,599a4.64,4.64,0,0,1,0,4.11,3.34,3.34,0,0,1-1.35,1.36,4,4,0,0,1-2,.49h-4Z"/><path class="b" d="M67.7,606.33a2.07,2.07,0,0,0,.49,1.48,1.76,1.76,0,0,0,1.37.52,1.89,1.89,0,0,0,1.37-.46,1.79,1.79,0,0,0,.48-1.33l.12,1.91A2.58,2.58,0,0,1,69.06,610a2.89,2.89,0,0,1-2.33-1,4.08,4.08,0,0,1-.82-2.73v-5.55H67.7Zm.22-7.86a1.93,1.93,0,0,1-.56-1.5,2.07,2.07,0,0,1,.56-1.57,2.56,2.56,0,0,1,3.18,0,2.08,2.08,0,0,1,.57,1.56,1.94,1.94,0,0,1-.57,1.5,2.65,2.65,0,0,1-3.18,0Zm2.26-.86a.94.94,0,0,0,.24-.68,1,1,0,0,0-.24-.7.91.91,0,0,0-.67-.25.92.92,0,0,0-.67.25,1,1,0,0,0-.23.7,1,1,0,0,0,.23.68.92.92,0,0,0,.67.24A.9.9,0,0,0,70.18,597.61Zm1.23,3.17h1.78v9.12H71.41Z"/><path class="b" d="M77.1,609.63A2.82,2.82,0,0,1,76,608.36a5.08,5.08,0,0,1-.36-2v-2a5.05,5.05,0,0,1,.36-2,2.71,2.71,0,0,1,1-1.27,3,3,0,0,1,1.65-.44,2.71,2.71,0,0,1,1.48.42,3.22,3.22,0,0,1,1.09,1.19l-.18,1.86a2.19,2.19,0,0,0-.22-1,1.48,1.48,0,0,0-.61-.63,2,2,0,0,0-1-.21,1.71,1.71,0,0,0-1.37.55,2.26,2.26,0,0,0-.49,1.56v2a2.19,2.19,0,0,0,.49,1.54,1.74,1.74,0,0,0,1.37.54,1.93,1.93,0,0,0,1-.23,1.45,1.45,0,0,0,.61-.64,2.25,2.25,0,0,0,.22-1l.12,1.92a2.66,2.66,0,0,1-.89,1.14,2.56,2.56,0,0,1-1.53.45A3.19,3.19,0,0,1,77.1,609.63Zm4-12.5H82.9V609.9H81.11Z"/><path class="b" d="M87.09,609.57a3.09,3.09,0,0,1-1.29-1.36,4.85,4.85,0,0,1-.44-2.15v-1.48a4.71,4.71,0,0,1,.44-2.12,3.12,3.12,0,0,1,1.29-1.35,4.71,4.71,0,0,1,4.06,0,3.12,3.12,0,0,1,1.29,1.35,4.71,4.71,0,0,1,.44,2.12v1.51a4.79,4.79,0,0,1-.44,2.13,3.12,3.12,0,0,1-1.29,1.35,4.62,4.62,0,0,1-4.06,0Zm3.49-1.83a2.43,2.43,0,0,0,.51-1.65v-1.51a2.43,2.43,0,0,0-.51-1.65,1.88,1.88,0,0,0-1.46-.58,1.85,1.85,0,0,0-1.45.58,2.38,2.38,0,0,0-.52,1.65v1.51a2.38,2.38,0,0,0,.52,1.65,1.82,1.82,0,0,0,1.45.59A1.85,1.85,0,0,0,90.58,607.74Z"/><path class="b" d="M95.43,600.78h1.79v9.12H95.43Zm4.42,1.72a2.16,2.16,0,0,0-.83-.15,1.83,1.83,0,0,0-1.33.47,1.79,1.79,0,0,0-.47,1.31L97,602.37a3.32,3.32,0,0,1,1.09-1.27,2.58,2.58,0,0,1,1.48-.45,3.39,3.39,0,0,1,1.13.18,2.62,2.62,0,0,1,.88.53l-1.17,1.58A1.56,1.56,0,0,0,99.85,602.5Z"/><path class="b" d="M102.15,600.78H104l2.81,7.93-1,1.94Zm8.07,0L106.34,612a2.6,2.6,0,0,1-.56,1,1.87,1.87,0,0,1-.84.52,4,4,0,0,1-1.23.16h-.36V612h.36a1.46,1.46,0,0,0,.8-.2,1.74,1.74,0,0,0,.51-.7l3.38-10.31Z"/><path class="b" d="M113.51,609.88a5.76,5.76,0,0,1-1.32-.48,4.89,4.89,0,0,1-1.13-.79l1.06-1.31a5.86,5.86,0,0,0,1.47.85,4.18,4.18,0,0,0,1.44.28,3.11,3.11,0,0,0,1.6-.33,1.1,1.1,0,0,0,.53-1,.79.79,0,0,0-.29-.66,1.66,1.66,0,0,0-.72-.29c-.29,0-.69-.1-1.22-.14h-.15l-.14,0h-.15a6.45,6.45,0,0,1-1.5-.26,2,2,0,0,1-1-.7,2.38,2.38,0,0,1-.41-1.49,3.07,3.07,0,0,1,.39-1.61,2.41,2.41,0,0,1,1.18-1,5.29,5.29,0,0,1,2-.32,6.38,6.38,0,0,1,2.6.52,6.16,6.16,0,0,1,1.13.66l-1.08,1.31a5.59,5.59,0,0,0-1.35-.66,4,4,0,0,0-1.3-.22,2.44,2.44,0,0,0-1.37.31,1.08,1.08,0,0,0-.46.94.64.64,0,0,0,.26.55,1.72,1.72,0,0,0,.66.25c.26,0,.64.07,1.12.1h.34a7.67,7.67,0,0,1,1.63.25,2.24,2.24,0,0,1,1.13.77,2.62,2.62,0,0,1,.45,1.65,2.92,2.92,0,0,1-.42,1.63,2.54,2.54,0,0,1-1.27,1A5.88,5.88,0,0,1,115,610,7.38,7.38,0,0,1,113.51,609.88Z"/><path class="b" d="M126,597.13h1.8V609.9H126Zm2.6,12.5a2.39,2.39,0,0,1-.93-1.16l.13-1.91a2.22,2.22,0,0,0,.21,1,1.48,1.48,0,0,0,.61.63,1.93,1.93,0,0,0,1,.22,1.74,1.74,0,0,0,1.37-.54,2.18,2.18,0,0,0,.49-1.53v-2a2.26,2.26,0,0,0-.49-1.56,1.71,1.71,0,0,0-1.37-.55,2,2,0,0,0-1,.21,1.36,1.36,0,0,0-.61.62,2.12,2.12,0,0,0-.21,1l-.19-1.76a3.37,3.37,0,0,1,1.08-1.24,2.67,2.67,0,0,1,1.49-.43,3,3,0,0,1,1.65.43,2.9,2.9,0,0,1,1.06,1.27,5.1,5.1,0,0,1,.36,2v2a4.94,4.94,0,0,1-.37,2,2.79,2.79,0,0,1-1.08,1.26,3.25,3.25,0,0,1-1.71.44A2.73,2.73,0,0,1,128.57,609.63Z"/><path class="b" d="M134.46,600.78h1.82l2.81,7.93-1,1.94Zm8.07,0L138.65,612a2.6,2.6,0,0,1-.56,1,1.87,1.87,0,0,1-.84.52,4,4,0,0,1-1.23.16h-.36V612H136a1.46,1.46,0,0,0,.8-.2,1.74,1.74,0,0,0,.51-.7l3.37-10.31Z"/><path class="b" d="M143.57,600.78h4.12v1.62h-4.12Zm1.46,8.56a2.77,2.77,0,0,1-.52-1.81v-9.4h1.8v9.42a.84.84,0,0,0,.13.51.46.46,0,0,0,.39.18h.86V610h-1A2,2,0,0,1,145,609.34Z"/><path class="b" d="M151.94,606.33a2.07,2.07,0,0,0,.49,1.48,1.76,1.76,0,0,0,1.37.52,1.91,1.91,0,0,0,1.37-.46,1.79,1.79,0,0,0,.48-1.33l.12,1.91A2.58,2.58,0,0,1,153.3,610a2.89,2.89,0,0,1-2.33-1,4.08,4.08,0,0,1-.82-2.73v-5.55h1.79Zm3.71-5.55h1.78v9.12h-1.78Z"/><rect class="c" x="612.92" y="591.68" width="35.43" height="2.83"/><path class="d" d="M648.48,594.64H612.79v-3.08h35.69ZM613,594.39h35.19v-2.58H613Z"/><rect class="c" x="612.92" y="601.6" width="70.74" height="2.83"/><path class="d" d="M683.78,604.56h-71v-3.08h71ZM613,604.31h70.49v-2.58H613Z"/><rect class="c" x="612.92" y="612.72" width="177.16" height="2.84"/><path class="d" d="M790.21,615.68H612.79V612.6H790.21ZM613,615.43H790v-2.58H613Z"/><path class="e" d="M587.26,596.28h-.8v-4.82l-.81.5v-.83l.81-.53h.8Z"/><path class="e" d="M589,595.91a1.67,1.67,0,0,1-.41-1.19v-2.58A1.65,1.65,0,0,1,589,591a2,2,0,0,1,2.42,0,1.65,1.65,0,0,1,.41,1.19v2.58a1.65,1.65,0,0,1-.41,1.19,2,2,0,0,1-2.42,0Zm1.83-.55a.89.89,0,0,0,.2-.64v-2.58a.89.89,0,0,0-.2-.64.82.82,0,0,0-.62-.22.86.86,0,0,0-.63.22.94.94,0,0,0-.2.64v2.58a.9.9,0,0,0,.21.64,1,1,0,0,0,1.24,0Z"/><path class="e" d="M593.22,595.91a1.67,1.67,0,0,1-.41-1.19v-2.58a1.65,1.65,0,0,1,.41-1.19,2,2,0,0,1,2.42,0,1.61,1.61,0,0,1,.41,1.19v2.58a1.65,1.65,0,0,1-.41,1.19,2,2,0,0,1-2.42,0Zm1.83-.55a.9.9,0,0,0,.21-.64v-2.58a.94.94,0,0,0-.2-.64.86.86,0,0,0-.63-.22.82.82,0,0,0-.62.22.89.89,0,0,0-.2.64v2.58a.89.89,0,0,0,.2.64,1,1,0,0,0,1.24,0Z"/><path class="e" d="M600.1,596.13a1.45,1.45,0,0,1-.6-.6,2.06,2.06,0,0,1-.21-1v-.67a2,2,0,0,1,.21-.94,1.37,1.37,0,0,1,.6-.59,2,2,0,0,1,.95-.21,2.21,2.21,0,0,1,.59.08,1.68,1.68,0,0,1,.51.22,1.54,1.54,0,0,1,.37.35l-.58.52a1.17,1.17,0,0,0-.4-.3,1.13,1.13,0,0,0-.48-.11.94.94,0,0,0-.71.26,1,1,0,0,0-.26.72v.67a1,1,0,0,0,.25.74.94.94,0,0,0,.72.27,1,1,0,0,0,.48-.12,1,1,0,0,0,.4-.32l.58.56a1.38,1.38,0,0,1-.38.34,1.62,1.62,0,0,1-.5.22,2.27,2.27,0,0,1-.59.07A2.12,2.12,0,0,1,600.1,596.13Z"/><path class="e" d="M603.4,592.22h.79v4.06h-.79Zm2.42,1.6a1,1,0,0,0-.21-.67.78.78,0,0,0-.6-.23.81.81,0,0,0-.6.21.73.73,0,0,0-.22.58l-.08-.78a1.46,1.46,0,0,1,.49-.57,1.22,1.22,0,0,1,.67-.2,1.33,1.33,0,0,1,.73.2,1.18,1.18,0,0,1,.46.56,2.4,2.4,0,0,1,.15.89v2.47h-.79Zm2.42,0a.93.93,0,0,0-.22-.67.85.85,0,0,0-.63-.23.72.72,0,0,0-.57.23.9.9,0,0,0-.21.64l-.16-.78a1.61,1.61,0,0,1,.51-.63,1.23,1.23,0,0,1,.69-.22,1.37,1.37,0,0,1,.75.2,1.09,1.09,0,0,1,.47.56,2.21,2.21,0,0,1,.17.89v2.47h-.8Z"/><path class="e" d="M584.33,605.5l2-2.64a1.85,1.85,0,0,0,.27-.47,1.29,1.29,0,0,0,.09-.45h0a.67.67,0,0,0-.2-.53.81.81,0,0,0-.56-.19.76.76,0,0,0-.56.21,1,1,0,0,0-.27.58h-.82a2,2,0,0,1,.29-.83,1.42,1.42,0,0,1,.56-.53,1.67,1.67,0,0,1,.79-.18,1.93,1.93,0,0,1,.87.17,1.21,1.21,0,0,1,.54.51,1.55,1.55,0,0,1,.19.8h0a1.84,1.84,0,0,1-.12.63,2.8,2.8,0,0,1-.35.63l-1.65,2.24h2.15v.76h-3.2Z"/><path class="e" d="M589,605.83a1.67,1.67,0,0,1-.41-1.19v-2.58a1.65,1.65,0,0,1,.41-1.19,2,2,0,0,1,2.42,0,1.65,1.65,0,0,1,.41,1.19v2.58a1.65,1.65,0,0,1-.41,1.19,2,2,0,0,1-2.42,0Zm1.83-.55a.89.89,0,0,0,.2-.64v-2.58a.89.89,0,0,0-.2-.64.82.82,0,0,0-.62-.22.86.86,0,0,0-.63.22.94.94,0,0,0-.19.64v2.58a.89.89,0,0,0,.2.64,1,1,0,0,0,1.24,0Z"/><path class="e" d="M593.22,605.83a1.67,1.67,0,0,1-.41-1.19v-2.58a1.61,1.61,0,0,1,.42-1.19,1.59,1.59,0,0,1,1.2-.42,1.45,1.45,0,0,1,1.62,1.61v2.58a1.61,1.61,0,0,1-.41,1.19,2,2,0,0,1-2.42,0Zm1.84-.55a.94.94,0,0,0,.2-.64v-2.58a.94.94,0,0,0-.2-.64.84.84,0,0,0-.63-.22.82.82,0,0,0-.62.22.89.89,0,0,0-.2.64v2.58a.89.89,0,0,0,.2.64.82.82,0,0,0,.62.22A.86.86,0,0,0,595.06,605.28Z"/><path class="e" d="M600.1,606.05a1.45,1.45,0,0,1-.6-.6,2.06,2.06,0,0,1-.2-1v-.67a2,2,0,0,1,.2-.94,1.37,1.37,0,0,1,.6-.59,2,2,0,0,1,.95-.21,2.35,2.35,0,0,1,.6.08,1.73,1.73,0,0,1,.5.22,1.38,1.38,0,0,1,.37.35l-.58.52a1.08,1.08,0,0,0-.4-.3,1.13,1.13,0,0,0-.48-.11,1,1,0,0,0-.71.26,1,1,0,0,0-.26.72v.67a1,1,0,0,0,.25.74.94.94,0,0,0,.72.27,1.14,1.14,0,0,0,.88-.44l.58.56a1.38,1.38,0,0,1-.38.34,1.62,1.62,0,0,1-.5.22,2.22,2.22,0,0,1-.59.07A2.12,2.12,0,0,1,600.1,606.05Z"/><path class="e" d="M603.4,602.14h.79v4.06h-.79Zm2.42,1.6a1,1,0,0,0-.21-.67.78.78,0,0,0-.6-.23.81.81,0,0,0-.6.21.73.73,0,0,0-.22.58l-.08-.78a1.46,1.46,0,0,1,.49-.57,1.22,1.22,0,0,1,.67-.2,1.3,1.3,0,0,1,.73.2,1.18,1.18,0,0,1,.46.56,2.4,2.4,0,0,1,.16.89v2.47h-.8Zm2.42,0a.93.93,0,0,0-.22-.67.85.85,0,0,0-.63-.23.73.73,0,0,0-.57.23.89.89,0,0,0-.2.64l-.16-.78a1.51,1.51,0,0,1,.5-.63,1.23,1.23,0,0,1,.69-.22,1.35,1.35,0,0,1,.75.2,1.16,1.16,0,0,1,.48.56,2.4,2.4,0,0,1,.16.89v2.47h-.8Z"/><path class="e" d="M585,615.58a1.34,1.34,0,0,1-.54-.49,2,2,0,0,1-.28-.77h.8a.75.75,0,0,0,.25.49.85.85,0,0,0,.54.17.72.72,0,0,0,.59-.25,1.1,1.1,0,0,0,.21-.72v-.48a1.1,1.1,0,0,0-.21-.72.72.72,0,0,0-.59-.25.83.83,0,0,0-.4.11,1.18,1.18,0,0,0-.34.33h-.72v-3h2.89v.76h-2.1V612a1,1,0,0,1,.34-.18.94.94,0,0,1,.37-.07,1.68,1.68,0,0,1,.84.2,1.29,1.29,0,0,1,.53.6,2.07,2.07,0,0,1,.19.94V614a2.25,2.25,0,0,1-.19.94,1.31,1.31,0,0,1-.55.59,1.69,1.69,0,0,1-.86.21A1.74,1.74,0,0,1,585,615.58Z"/><path class="e" d="M589,615.32a1.65,1.65,0,0,1-.41-1.19v-2.58a1.67,1.67,0,0,1,.41-1.19,2,2,0,0,1,2.42,0,1.65,1.65,0,0,1,.41,1.19v2.58a1.64,1.64,0,0,1-.41,1.19,1.92,1.92,0,0,1-2.42,0Zm1.83-.55a.89.89,0,0,0,.2-.64v-2.58a.88.88,0,0,0-.2-.63.78.78,0,0,0-.62-.22.82.82,0,0,0-.63.22.93.93,0,0,0-.2.63v2.58a.9.9,0,0,0,.21.64,1,1,0,0,0,1.24,0Z"/><path class="e" d="M593.22,615.32a1.65,1.65,0,0,1-.41-1.19v-2.58a1.67,1.67,0,0,1,.41-1.19,2,2,0,0,1,2.42,0,1.61,1.61,0,0,1,.41,1.19v2.58a1.64,1.64,0,0,1-.41,1.19,1.92,1.92,0,0,1-2.42,0Zm1.83-.55a.9.9,0,0,0,.21-.64v-2.58a.93.93,0,0,0-.2-.63.82.82,0,0,0-.63-.22.78.78,0,0,0-.62.22.88.88,0,0,0-.2.63v2.58a.89.89,0,0,0,.2.64,1,1,0,0,0,1.24,0Z"/><path class="e" d="M600.1,615.54a1.45,1.45,0,0,1-.6-.6,2,2,0,0,1-.21-1v-.67a2,2,0,0,1,.21-.94,1.45,1.45,0,0,1,.6-.6,2,2,0,0,1,.95-.2,2.22,2.22,0,0,1,.59.07,2,2,0,0,1,.51.22,1.76,1.76,0,0,1,.37.35l-.58.52a1.17,1.17,0,0,0-.4-.3,1.13,1.13,0,0,0-.48-.11.94.94,0,0,0-.71.26,1,1,0,0,0-.26.73V614a1.07,1.07,0,0,0,.25.74,1,1,0,0,0,.72.26,1.13,1.13,0,0,0,.48-.11,1.26,1.26,0,0,0,.4-.32l.58.55a1.42,1.42,0,0,1-.38.35,1.88,1.88,0,0,1-.5.21,2.27,2.27,0,0,1-.59.08A2,2,0,0,1,600.1,615.54Z"/><path class="e" d="M603.4,611.63h.79v4.06h-.79Zm2.42,1.6a1,1,0,0,0-.21-.66.75.75,0,0,0-.6-.24.81.81,0,0,0-.6.21.75.75,0,0,0-.22.58l-.08-.78a1.5,1.5,0,0,1,.49-.56,1.15,1.15,0,0,1,.67-.2,1.32,1.32,0,0,1,.73.19,1.28,1.28,0,0,1,.46.56,2.42,2.42,0,0,1,.15.9v2.46h-.79Zm2.42,0a.91.91,0,0,0-.22-.66.82.82,0,0,0-.63-.24.72.72,0,0,0-.57.23.9.9,0,0,0-.21.64l-.16-.78a1.51,1.51,0,0,1,.51-.62,1.16,1.16,0,0,1,.69-.22,1.37,1.37,0,0,1,.75.19,1.18,1.18,0,0,1,.47.56,2.22,2.22,0,0,1,.17.9v2.46h-.8Z"/><path class="c" d="M23.49,613.89A12.92,12.92,0,1,1,36.4,601,12.93,12.93,0,0,1,23.49,613.89Zm0-24.83A11.92,11.92,0,1,0,35.4,601,11.93,11.93,0,0,0,23.49,589.06Z"/><polygon class="d" points="35.77 588.74 9.42 600.98 35.77 613.21 32.02 600.98 35.77 588.74"/><path class="c" d="M36.58,614.14,8.23,601l28.35-13.17-4,13.17ZM10.61,601,35,612.29,31.5,601,35,589.66Z"/><path class="c" d="M2.52,605.19a5,5,0,0,1-1.11-.38,4.4,4.4,0,0,1-1-.64l.81-1a3.72,3.72,0,0,0,1.16.69,4.08,4.08,0,0,0,1.38.23,2.73,2.73,0,0,0,1.55-.38,1.17,1.17,0,0,0,.55-1.05h0a1.12,1.12,0,0,0-.25-.77,1.44,1.44,0,0,0-.64-.42,8.23,8.23,0,0,0-1-.25H3.89l-.1,0a9.48,9.48,0,0,1-1.5-.36,2.08,2.08,0,0,1-1-.73,2.42,2.42,0,0,1-.41-1.51h0a2.77,2.77,0,0,1,.38-1.47,2.44,2.44,0,0,1,1.12-.92,4.48,4.48,0,0,1,1.77-.32,4.6,4.6,0,0,1,1,.11,4.9,4.9,0,0,1,1.86.86l-.73,1a4.61,4.61,0,0,0-1-.58,3,3,0,0,0-1.06-.2,2.44,2.44,0,0,0-1.46.38,1.24,1.24,0,0,0-.53,1.07h0a1,1,0,0,0,.27.75,1.74,1.74,0,0,0,.67.4,9.3,9.3,0,0,0,1.12.27h.24a7.93,7.93,0,0,1,1.4.41,2.22,2.22,0,0,1,.94.76,2.4,2.4,0,0,1,.38,1.43h0a2.62,2.62,0,0,1-.4,1.45,2.54,2.54,0,0,1-1.16.91,4.8,4.8,0,0,1-1.83.31A6.44,6.44,0,0,1,2.52,605.19Z"/><rect class="c" x="612.5" y="600.68" width="1" height="4.68"/><rect class="c" x="612.5" y="590.76" width="1" height="4.68"/><rect class="c" x="612.5" y="611.45" width="1" height="5.24"/><rect class="c" x="789.58" y="611.45" width="1" height="5.24"/><rect class="c" x="682.59" y="600.68" width="1" height="4.68"/><rect class="c" x="647.3" y="590.76" width="1" height="4.68"/><rect class="a" width="790.34" height="618.13"/><line class="f" x1="308.92" y1="382.09" x2="308.92" y2="235.69"/><line class="f" x1="317.21" y1="382.09" x2="317.21" y2="235.69"/><rect class="d" x="381.47" y="265.11" width="13.82" height="51.91"/><line class="f" x1="381.47" y1="265.11" x2="381.47" y2="317.02"/><line class="f" x1="395.29" y1="265.11" x2="381.47" y2="265.11"/><line class="f" x1="395.29" y1="317.02" x2="395.29" y2="265.11"/><line class="f" x1="381.47" y1="317.02" x2="395.29" y2="317.02"/><rect class="d" x="317.02" y="360.91" width="97.27" height="21.17"/><line class="f" x1="317.02" y1="360.91" x2="414.29" y2="360.91"/><line class="f" x1="414.29" y1="360.91" x2="414.29" y2="382.09"/><line class="f" x1="414.29" y1="382.09" x2="317.02" y2="382.09"/><line class="f" x1="317.02" y1="382.09" x2="317.02" y2="360.91"/><rect class="d" x="318.08" y="411.33" width="31.09" height="31.15"/><line class="f" x1="318.08" y1="411.33" x2="318.08" y2="442.48"/><line class="f" x1="349.17" y1="411.33" x2="318.08" y2="411.33"/><line class="f" x1="349.17" y1="442.48" x2="349.17" y2="411.33"/><line class="f" x1="318.08" y1="442.48" x2="349.17" y2="442.48"/><line class="f" x1="308.92" y1="407.01" x2="308.92" y2="407.01"/><line class="f" x1="308.92" y1="407.01" x2="308.92" y2="407.01"/><line class="f" x1="317.21" y1="384.51" x2="317.21" y2="407.01"/><line class="f" x1="317.21" y1="407.01" x2="344.85" y2="407.01"/><line class="f" x1="344.85" y1="407.01" x2="320.67" y2="403.54"/><line class="f" x1="320.67" y1="403.54" x2="317.21" y2="384.51"/><line class="f" x1="308.92" y1="221.85" x2="322.74" y2="221.85"/><line class="f" x1="322.74" y1="221.85" x2="352.11" y2="221.85"/><line class="f" x1="438.48" y1="221.85" x2="467.84" y2="221.85"/><line class="f" x1="467.84" y1="221.85" x2="481.66" y2="221.85"/><line class="f" x1="308.92" y1="235.69" x2="308.92" y2="235.69"/><line class="f" x1="317.21" y1="235.69" x2="350.38" y2="235.69"/><line class="f" x1="440.2" y1="235.69" x2="473.37" y2="235.69"/><line class="f" x1="308.92" y1="228.77" x2="350.38" y2="228.77"/><line class="f" x1="308.92" y1="443.35" x2="308.92" y2="410.47"/><line class="f" x1="308.92" y1="407.01" x2="308.92" y2="384.51"/><line class="f" x1="308.92" y1="384.51" x2="308.92" y2="384.51"/><line class="f" x1="308.92" y1="451.65" x2="408.76" y2="451.65"/><line class="f" x1="308.92" y1="410.47" x2="308.92" y2="410.47"/><line class="f" x1="308.92" y1="407.01" x2="308.92" y2="407.01"/><line class="f" x1="317.21" y1="443.35" x2="405.31" y2="443.35"/><line class="f" x1="446.77" y1="443.35" x2="473.37" y2="443.35"/><line class="f" x1="412.22" y1="447.67" x2="443.31" y2="447.67"/><line class="f" x1="412.22" y1="451.65" x2="443.31" y2="451.65"/><line class="f" x1="412.22" y1="447.67" x2="412.22" y2="416.52"/><g class="g"><path class="f" d="M412.22,416.52a31.12,31.12,0,0,1,31.09,31.15"/></g><line class="f" x1="412.22" y1="451.65" x2="412.22" y2="447.67"/><line class="f" x1="443.31" y1="447.67" x2="443.31" y2="451.65"/><line class="f" x1="443.31" y1="447.67" x2="445.04" y2="447.67"/><line class="f" x1="443.31" y1="451.65" x2="445.04" y2="451.65"/><line class="f" x1="410.49" y1="447.67" x2="412.22" y2="447.67"/><line class="f" x1="410.49" y1="451.65" x2="412.22" y2="451.65"/><line class="f" x1="408.77" y1="443.35" x2="408.77" y2="447.67"/><line class="f" x1="408.77" y1="447.67" x2="408.77" y2="451.65"/><line class="f" x1="446.77" y1="443.35" x2="446.77" y2="447.67"/><line class="f" x1="446.77" y1="447.67" x2="446.77" y2="451.65"/><line class="f" x1="410.49" y1="447.67" x2="410.49" y2="451.65"/><line class="f" x1="445.04" y1="447.67" x2="445.04" y2="451.65"/><line class="f" x1="445.04" y1="447.67" x2="446.77" y2="447.67"/><line class="f" x1="410.49" y1="447.67" x2="408.77" y2="447.67"/><line class="f" x1="408.77" y1="443.35" x2="415.67" y2="443.35"/><line class="f" x1="419.47" y1="443.35" x2="420.25" y2="443.35"/><line class="f" x1="424.05" y1="443.35" x2="424.83" y2="443.35"/><line class="f" x1="428.63" y1="443.35" x2="435.54" y2="443.35"/><line class="f" x1="439.34" y1="443.35" x2="439.86" y2="443.35"/><line class="f" x1="439.86" y1="443.35" x2="446.77" y2="443.35"/><line class="f" x1="408.77" y1="451.65" x2="410.49" y2="451.65"/><line class="f" x1="445.04" y1="451.65" x2="446.77" y2="451.65"/><line class="f" x1="473.37" y1="235.69" x2="481.66" y2="235.69"/><line class="f" x1="308.92" y1="235.69" x2="317.21" y2="235.69"/><line class="f" x1="467.84" y1="221.85" x2="438.48" y2="221.85"/><line class="f" x1="481.66" y1="221.85" x2="467.84" y2="221.85"/><line class="f" x1="481.66" y1="228.77" x2="440.2" y2="228.77"/><line class="f" x1="384.93" y1="235.69" x2="384.93" y2="228.77"/><line class="f" x1="481.66" y1="451.65" x2="446.77" y2="451.65"/><line class="f" x1="350.38" y1="235.69" x2="350.38" y2="228.77"/><line class="f" x1="352.11" y1="228.77" x2="352.11" y2="221.85"/><line class="f" x1="438.48" y1="221.85" x2="383.2" y2="221.85"/><line class="f" x1="464.39" y1="169.93" x2="326.2" y2="169.93"/><line class="f" x1="440.2" y1="235.69" x2="384.93" y2="235.69"/><line class="f" x1="352.11" y1="228.77" x2="350.38" y2="228.77"/><line class="f" x1="437.44" y1="229.46" x2="437.44" y2="228.77"/><line class="f" x1="437.44" y1="228.77" x2="440.2" y2="228.77"/><line class="f" x1="440.2" y1="228.77" x2="440.2" y2="231.54"/><line class="f" x1="440.2" y1="231.54" x2="438.82" y2="231.54"/><line class="f" x1="438.82" y1="232.23" x2="436.06" y2="232.23"/><line class="f" x1="436.06" y1="232.23" x2="436.06" y2="229.46"/><line class="f" x1="436.06" y1="229.46" x2="438.82" y2="229.46"/><line class="f" x1="438.82" y1="229.46" x2="438.82" y2="232.23"/><line class="f" x1="415.33" y1="230.85" x2="436.06" y2="230.85"/><line class="f" x1="382.16" y1="229.46" x2="382.16" y2="228.77"/><line class="f" x1="382.16" y1="228.77" x2="384.93" y2="228.77"/><line class="f" x1="384.93" y1="228.77" x2="384.93" y2="231.54"/><line class="f" x1="384.93" y1="231.54" x2="383.55" y2="231.54"/><line class="f" x1="383.2" y1="228.77" x2="383.2" y2="221.85"/><line class="f" x1="351.76" y1="232.23" x2="351.76" y2="264.07"/><line class="f" x1="352.11" y1="221.85" x2="360.74" y2="221.85"/><line class="f" x1="365.75" y1="221.85" x2="366.79" y2="221.85"/><line class="f" x1="371.8" y1="221.85" x2="372.84" y2="221.85"/><line class="f" x1="374.56" y1="221.85" x2="383.2" y2="221.85"/><line class="f" x1="350.38" y1="235.69" x2="384.93" y2="235.69"/><line class="f" x1="383.55" y1="232.23" x2="380.78" y2="232.23"/><line class="f" x1="380.78" y1="232.23" x2="380.78" y2="229.46"/><line class="f" x1="380.78" y1="229.46" x2="383.55" y2="229.46"/><line class="f" x1="383.55" y1="229.46" x2="383.55" y2="232.23"/><line class="f" x1="353.14" y1="229.46" x2="353.14" y2="228.77"/><line class="f" x1="353.14" y1="228.77" x2="350.38" y2="228.77"/><line class="f" x1="350.38" y1="228.77" x2="350.38" y2="231.54"/><line class="f" x1="350.38" y1="231.54" x2="351.76" y2="231.54"/><line class="f" x1="351.76" y1="232.23" x2="354.53" y2="232.23"/><line class="f" x1="354.53" y1="232.23" x2="354.53" y2="229.46"/><line class="f" x1="354.53" y1="229.46" x2="351.76" y2="229.46"/><line class="f" x1="351.76" y1="229.46" x2="351.76" y2="232.23"/><line class="f" x1="380.78" y1="232.23" x2="354.53" y2="232.23"/><line class="f" x1="354.53" y1="229.46" x2="380.78" y2="229.46"/><line class="f" x1="380.78" y1="230.85" x2="354.53" y2="230.85"/><g class="g"><path class="f" d="M383.55,232.23a31.81,31.81,0,0,1-31.79,31.84"/></g><line class="f" x1="440.2" y1="235.69" x2="440.2" y2="228.77"/><line class="f" x1="438.48" y1="228.77" x2="438.48" y2="221.85"/><line class="f" x1="438.48" y1="228.77" x2="440.2" y2="228.77"/><line class="f" x1="464.39" y1="221.85" x2="464.39" y2="169.93"/><line class="f" x1="326.2" y1="221.85" x2="326.2" y2="169.93"/><line class="f" x1="413.95" y1="229.46" x2="413.95" y2="228.77"/><line class="f" x1="413.95" y1="228.77" x2="411.18" y2="228.77"/><line class="f" x1="411.18" y1="228.77" x2="411.18" y2="231.54"/><line class="f" x1="411.18" y1="231.54" x2="412.57" y2="231.54"/><line class="f" x1="412.56" y1="232.23" x2="415.33" y2="232.23"/><line class="f" x1="415.33" y1="232.23" x2="415.33" y2="229.46"/><line class="f" x1="415.33" y1="229.46" x2="412.56" y2="229.46"/><line class="f" x1="412.56" y1="229.46" x2="412.56" y2="232.23"/><line class="f" x1="384.93" y1="231.54" x2="387.69" y2="231.54"/><line class="f" x1="387.69" y1="231.54" x2="387.69" y2="228.77"/><line class="f" x1="387.69" y1="228.77" x2="384.93" y2="228.77"/><line class="f" x1="384.93" y1="228.77" x2="384.93" y2="231.54"/><line class="f" x1="411.18" y1="231.54" x2="387.69" y2="231.54"/><line class="f" x1="387.69" y1="228.77" x2="411.18" y2="228.77"/><line class="f" x1="411.18" y1="230.15" x2="387.69" y2="230.15"/><line class="f" x1="436.06" y1="229.46" x2="415.33" y2="229.46"/><line class="f" x1="415.33" y1="232.23" x2="436.06" y2="232.23"/><line class="f" x1="317.21" y1="407.01" x2="317.21" y2="384.51"/><line class="f" x1="308.92" y1="407.01" x2="308.92" y2="410.47"/><line class="f" x1="317.21" y1="443.35" x2="317.21" y2="410.47"/><line class="f" x1="348.31" y1="410.47" x2="317.21" y2="410.47"/><line class="f" x1="344.85" y1="407.01" x2="317.21" y2="407.01"/><line class="f" x1="344.85" y1="407.01" x2="344.85" y2="384.51"/><line class="f" x1="317.21" y1="407.01" x2="317.21" y2="410.47"/><line class="f" x1="317.21" y1="384.51" x2="344.85" y2="384.51"/><line class="f" x1="348.31" y1="410.47" x2="348.31" y2="407.01"/><line class="f" x1="348.31" y1="407.01" x2="348.31" y2="384.51"/><line class="f" x1="473.37" y1="443.35" x2="473.37" y2="384.51"/><line class="f" x1="473.37" y1="382.09" x2="473.37" y2="235.69"/><line class="f" x1="308.92" y1="382.09" x2="308.92" y2="382.09"/><line class="f" x1="408.77" y1="384.51" x2="417.4" y2="384.51"/><line class="f" x1="448.49" y1="384.51" x2="473.37" y2="384.51"/><line class="f" x1="317.21" y1="443.35" x2="406.35" y2="443.35"/><line class="f" x1="317.21" y1="382.09" x2="417.4" y2="382.09"/><line class="f" x1="448.49" y1="382.09" x2="473.37" y2="382.09"/><line class="f" x1="448.49" y1="384.51" x2="448.49" y2="382.09"/><line class="f" x1="417.4" y1="384.51" x2="417.4" y2="382.09"/><line class="f" x1="473.37" y1="384.51" x2="473.37" y2="382.09"/><line class="f" x1="317.21" y1="384.51" x2="317.21" y2="382.09"/><line class="f" x1="317.21" y1="384.51" x2="344.85" y2="384.51"/><line class="f" x1="348.31" y1="384.51" x2="406.35" y2="384.51"/><line class="f" x1="406.35" y1="389.7" x2="348.31" y2="389.7"/><line class="f" x1="408.77" y1="412.2" x2="408.77" y2="384.51"/><line class="f" x1="406.35" y1="443.35" x2="406.35" y2="439.88"/><line class="f" x1="406.35" y1="412.2" x2="406.35" y2="384.51"/><line class="f" x1="408.77" y1="439.88" x2="406.35" y2="439.88"/><line class="f" x1="408.77" y1="412.2" x2="406.35" y2="412.2"/><line class="f" x1="408.77" y1="443.35" x2="406.35" y2="443.35"/><line class="f" x1="408.77" y1="443.35" x2="408.77" y2="439.88"/><line class="f" x1="446.77" y1="382.09" x2="419.13" y2="382.09"/><line class="f" x1="446.77" y1="382.09" x2="446.77" y2="354.4"/><g class="g"><path class="f" d="M419.13,382.09a27.66,27.66,0,0,1,27.64-27.69"/></g><line class="f" x1="446.77" y1="384.51" x2="446.77" y2="382.09"/><line class="f" x1="419.13" y1="382.09" x2="419.13" y2="384.51"/><line class="f" x1="419.13" y1="382.09" x2="417.4" y2="382.09"/><line class="f" x1="419.13" y1="384.51" x2="417.4" y2="384.51"/><line class="f" x1="448.49" y1="382.09" x2="446.77" y2="382.09"/><line class="f" x1="448.49" y1="384.51" x2="446.77" y2="384.51"/><line class="f" x1="446.77" y1="384.51" x2="439.86" y2="384.51"/><line class="f" x1="436.06" y1="384.51" x2="435.28" y2="384.51"/><line class="f" x1="431.48" y1="384.51" x2="430.7" y2="384.51"/><line class="f" x1="426.9" y1="384.51" x2="426.04" y2="384.51"/><line class="f" x1="426.04" y1="384.51" x2="419.13" y2="384.51"/><line class="f" x1="446.77" y1="382.09" x2="446.77" y2="381.22"/><line class="f" x1="446.77" y1="381.22" x2="450.22" y2="381.22"/><line class="f" x1="450.22" y1="381.22" x2="450.22" y2="382.09"/><line class="f" x1="446.77" y1="384.51" x2="446.77" y2="385.38"/><line class="f" x1="446.77" y1="385.38" x2="450.22" y2="385.38"/><line class="f" x1="450.22" y1="385.38" x2="450.22" y2="384.51"/><line class="f" x1="419.13" y1="381.22" x2="415.67" y2="381.22"/><line class="f" x1="415.67" y1="381.22" x2="415.67" y2="382.09"/><line class="f" x1="419.13" y1="384.51" x2="419.13" y2="385.38"/><line class="f" x1="419.13" y1="385.38" x2="415.67" y2="385.38"/><line class="f" x1="415.67" y1="385.38" x2="415.67" y2="384.51"/><line class="f" x1="406.35" y1="438.15" x2="406.35" y2="413.93"/><line class="f" x1="406.35" y1="438.15" x2="382.16" y2="438.15"/><g class="g"><path class="f" d="M382.16,438.15a24.2,24.2,0,0,1,24.19-24.22"/></g><line class="f" x1="408.77" y1="438.15" x2="406.35" y2="438.15"/><line class="f" x1="406.35" y1="413.93" x2="408.76" y2="413.93"/><line class="f" x1="406.35" y1="413.93" x2="406.35" y2="412.2"/><line class="f" x1="408.77" y1="413.93" x2="408.77" y2="412.2"/><line class="f" x1="406.35" y1="439.88" x2="406.35" y2="438.15"/><line class="f" x1="408.77" y1="439.88" x2="408.77" y2="438.15"/><line class="f" x1="408.77" y1="438.15" x2="408.77" y2="431.23"/><line class="f" x1="408.77" y1="427.43" x2="408.77" y2="426.65"/><line class="f" x1="408.77" y1="422.84" x2="408.77" y2="422.06"/><line class="f" x1="408.77" y1="420.85" x2="408.77" y2="413.93"/><line class="f" x1="406.35" y1="438.15" x2="405.48" y2="438.15"/><line class="f" x1="405.48" y1="438.15" x2="405.48" y2="441.62"/><line class="f" x1="405.48" y1="441.62" x2="406.35" y2="441.62"/><line class="f" x1="408.77" y1="438.15" x2="409.63" y2="438.15"/><line class="f" x1="409.63" y1="438.15" x2="409.63" y2="441.62"/><line class="f" x1="409.63" y1="441.62" x2="408.77" y2="441.62"/><line class="f" x1="405.48" y1="413.93" x2="405.48" y2="410.47"/><line class="f" x1="405.48" y1="410.47" x2="406.35" y2="410.47"/><line class="f" x1="408.77" y1="413.93" x2="409.63" y2="413.93"/><line class="f" x1="409.63" y1="413.93" x2="409.63" y2="410.47"/><line class="f" x1="409.63" y1="410.47" x2="408.77" y2="410.47"/><line class="f" x1="344.85" y1="384.51" x2="348.31" y2="384.51"/><line class="f" x1="390.05" y1="275.22" x2="390.05" y2="306.79"/><line class="f" x1="390.05" y1="306.79" x2="387.94" y2="306.79"/><line class="f" x1="387.94" y1="306.79" x2="385.82" y2="298.9"/><line class="f" x1="385.82" y1="298.9" x2="385.82" y2="283.11"/><line class="f" x1="385.82" y1="283.11" x2="387.94" y2="275.22"/><line class="f" x1="387.94" y1="275.22" x2="390.05" y2="275.22"/><line class="f" x1="389.21" y1="304.68" x2="389.21" y2="302.58"/><line class="f" x1="389.21" y1="302.58" x2="388.68" y2="302.58"/><line class="f" x1="388.68" y1="302.58" x2="388.68" y2="304.68"/><line class="f" x1="388.68" y1="304.68" x2="389.21" y2="304.68"/><line class="f" x1="389.21" y1="302.05" x2="389.21" y2="299.95"/><line class="f" x1="389.21" y1="299.95" x2="388.68" y2="299.95"/><line class="f" x1="388.68" y1="299.95" x2="388.68" y2="302.05"/><line class="f" x1="388.68" y1="302.05" x2="389.21" y2="302.05"/><line class="f" x1="389.21" y1="299.42" x2="389.21" y2="298.37"/><line class="f" x1="389.21" y1="298.37" x2="388.68" y2="298.37"/><line class="f" x1="388.68" y1="298.37" x2="388.68" y2="299.42"/><line class="f" x1="388.68" y1="299.42" x2="389.21" y2="299.42"/><line class="f" x1="387.94" y1="275.22" x2="387.94" y2="306.79"/><line class="f" x1="374.22" y1="442.42" x2="374.22" y2="438.96"/><line class="f" x1="374.22" y1="438.96" x2="353.49" y2="438.96"/><line class="f" x1="353.49" y1="438.96" x2="353.49" y2="442.42"/><line class="f" x1="353.49" y1="442.42" x2="354.53" y2="442.42"/><line class="f" x1="354.53" y1="442.42" x2="354.53" y2="440"/><line class="f" x1="354.53" y1="440" x2="373.18" y2="440"/><line class="f" x1="373.18" y1="440" x2="373.18" y2="442.42"/><line class="f" x1="373.18" y1="442.42" x2="374.22" y2="442.42"/><line class="f" x1="374.22" y1="442.42" x2="374.22" y2="438.96"/><line class="f" x1="353.49" y1="442.42" x2="353.49" y2="438.96"/><line class="f" x1="373.18" y1="442.42" x2="373.18" y2="440"/><line class="f" x1="354.53" y1="442.42" x2="354.53" y2="440"/><line class="f" x1="374.22" y1="438.96" x2="353.49" y2="438.96"/><line class="f" x1="374.22" y1="440" x2="353.49" y2="440"/><line class="f" x1="374.22" y1="442.42" x2="373.18" y2="442.42"/><line class="f" x1="354.53" y1="442.42" x2="353.49" y2="442.42"/><line class="f" x1="317.56" y1="360.91" x2="414.29" y2="360.91"/><line class="f" x1="318.42" y1="362.64" x2="337.43" y2="362.64"/><line class="f" x1="337.43" y1="362.64" x2="337.43" y2="379.95"/><line class="f" x1="337.43" y1="379.95" x2="318.42" y2="379.95"/><line class="f" x1="318.42" y1="379.95" x2="318.42" y2="362.64"/><line class="f" x1="317.56" y1="360.91" x2="338.29" y2="360.91"/><line class="f" x1="320.15" y1="364.37" x2="335.7" y2="364.37"/><line class="f" x1="335.7" y1="364.37" x2="335.7" y2="376.49"/><line class="f" x1="335.7" y1="376.49" x2="320.15" y2="376.49"/><line class="f" x1="320.15" y1="376.49" x2="320.15" y2="364.37"/><line class="f" x1="393.56" y1="382.09" x2="393.56" y2="360.91"/><line class="f" x1="401.49" y1="368.85" x2="406.37" y2="373.74"/><line class="f" x1="406.37" y1="368.85" x2="401.49" y2="373.74"/><line class="f" x1="403.93" y1="374.76" x2="403.93" y2="367.83"/><line class="f" x1="400.47" y1="371.3" x2="407.38" y2="371.3"/><line class="f" x1="414.29" y1="360.91" x2="414.29" y2="381.68"/><line class="f" x1="393.56" y1="360.91" x2="414.29" y2="360.91"/><line class="f" x1="359.02" y1="381.68" x2="359.02" y2="360.91"/><line class="f" x1="359.02" y1="360.91" x2="379.75" y2="360.91"/><line class="f" x1="379.75" y1="360.91" x2="379.75" y2="382.09"/><line class="f" x1="376.92" y1="359.97" x2="361.84" y2="359.97"/><line class="f" x1="395.29" y1="265.05" x2="381.47" y2="265.05"/><line class="f" x1="381.47" y1="265.05" x2="381.47" y2="316.96"/><line class="f" x1="381.47" y1="316.96" x2="395.29" y2="316.96"/><line class="f" x1="395.29" y1="316.96" x2="395.29" y2="265.05"/><line class="f" x1="338.29" y1="382.09" x2="338.29" y2="360.91"/><line class="f" x1="338.29" y1="360.91" x2="359.02" y2="360.91"/><line class="f" x1="359.02" y1="360.91" x2="359.02" y2="382.09"/><line class="f" x1="359.02" y1="382.09" x2="338.29" y2="382.09"/><line class="f" x1="388.38" y1="237.36" x2="436.75" y2="237.36"/><line class="f" x1="436.75" y1="237.36" x2="436.75" y2="240.82"/><line class="f" x1="436.75" y1="240.82" x2="388.38" y2="240.82"/><line class="f" x1="388.38" y1="240.82" x2="388.38" y2="237.36"/><g class="g"><path class="f" d="M386.21,284.69a6.32,6.32,0,0,1,0,12.63"/><path class="f" d="M386.21,297.32a12.64,12.64,0,0,1,0-12.63"/><path class="f" d="M354.7,371.3a6,6,0,1,0-6.05,6.05,6.05,6.05,0,0,0,6.05-6.05"/><path class="f" d="M353.66,371.3a5,5,0,1,0-5,5,5,5,0,0,0,5-5"/><path class="f" d="M328.62,373a.7.7,0,1,0-.7.69.69.69,0,0,0,.7-.69"/><path class="f" d="M367.69,376.39a3.4,3.4,0,1,0-3.4,3.4,3.39,3.39,0,0,0,3.4-3.4"/><path class="f" d="M367.69,366.2a3.4,3.4,0,1,0-3.4,3.4,3.4,3.4,0,0,0,3.4-3.4"/><path class="f" d="M377.86,366.2a3.39,3.39,0,1,0-3.39,3.4,3.4,3.4,0,0,0,3.39-3.4"/><path class="f" d="M441.93,239.09a1.73,1.73,0,1,0-1.73,1.73,1.72,1.72,0,0,0,1.73-1.73"/></g><line class="f" x1="352.11" y1="225.31" x2="383.2" y2="225.31"/><g class="g"><path class="f" d="M386.21,284.75a6.32,6.32,0,0,1,0,12.63"/><path class="f" d="M386.21,297.38a12.64,12.64,0,0,1,0-12.63"/></g><line class="f" x1="390.05" y1="275.28" x2="390.05" y2="306.85"/><line class="f" x1="387.94" y1="306.85" x2="385.82" y2="298.96"/><line class="f" x1="385.82" y1="298.96" x2="385.82" y2="283.17"/><line class="f" x1="385.82" y1="283.17" x2="387.94" y2="275.28"/><line class="f" x1="387.94" y1="275.28" x2="390.05" y2="275.28"/><line class="f" x1="389.21" y1="304.75" x2="389.21" y2="302.64"/><line class="f" x1="389.21" y1="302.64" x2="388.68" y2="302.64"/><line class="f" x1="388.68" y1="302.64" x2="388.68" y2="304.75"/><line class="f" x1="388.68" y1="304.75" x2="389.21" y2="304.75"/><line class="f" x1="389.21" y1="302.12" x2="389.21" y2="300.01"/><line class="f" x1="389.21" y1="300.01" x2="388.68" y2="300.01"/><line class="f" x1="388.68" y1="300.01" x2="388.68" y2="302.12"/><line class="f" x1="388.68" y1="302.12" x2="389.21" y2="302.12"/><line class="f" x1="389.21" y1="299.49" x2="389.21" y2="298.43"/><line class="f" x1="389.21" y1="298.43" x2="388.68" y2="298.43"/><line class="f" x1="388.68" y1="298.43" x2="388.68" y2="299.48"/><line class="f" x1="388.68" y1="299.49" x2="389.21" y2="299.49"/><line class="f" x1="387.94" y1="275.28" x2="387.94" y2="306.85"/><g class="g"><path class="f" d="M377.86,375.42a3.39,3.39,0,1,0-3.39,3.4,3.4,3.4,0,0,0,3.39-3.4"/><path class="f" d="M344,413.06a3.45,3.45,0,0,1,3.45,3.46"/><path class="f" d="M324.12,416.52a.86.86,0,1,0-.86.87.86.86,0,0,0,.86-.87"/></g><line class="f" x1="347.44" y1="416.52" x2="347.44" y2="437.29"/><line class="f" x1="343.99" y1="440.75" x2="323.26" y2="440.75"/><line class="f" x1="319.81" y1="437.29" x2="319.81" y2="416.52"/><line class="f" x1="323.26" y1="413.06" x2="343.99" y2="413.06"/><g class="g"><path class="f" d="M347.44,437.29a3.45,3.45,0,0,1-3.45,3.46"/><path class="f" d="M319.81,416.52a3.45,3.45,0,0,1,3.45-3.46"/><path class="f" d="M323.26,440.75a3.45,3.45,0,0,1-3.45-3.46"/></g><rect class="d" x="408.77" y="277.22" width="17.27" height="27.69"/><line class="f" x1="408.77" y1="277.22" x2="408.77" y2="304.91"/><line class="f" x1="426.04" y1="277.22" x2="408.76" y2="277.22"/><line class="f" x1="426.04" y1="304.91" x2="426.04" y2="277.22"/><line class="f" x1="408.77" y1="304.91" x2="426.04" y2="304.91"/><rect class="d" x="353.49" y="440" width="1.04" height="2.42"/><line class="f" x1="354.53" y1="442.42" x2="354.53" y2="440"/><line class="f" x1="353.49" y1="442.42" x2="354.53" y2="442.42"/><line class="f" x1="353.49" y1="440" x2="353.49" y2="442.42"/><line class="f" x1="354.53" y1="440" x2="353.49" y2="440"/><rect class="d" x="353.49" y="438.96" width="20.73" height="1.04"/><line class="f" x1="353.49" y1="440" x2="374.22" y2="440"/><line class="f" x1="353.49" y1="438.96" x2="353.49" y2="440"/><line class="f" x1="374.22" y1="438.96" x2="353.49" y2="438.96"/><line class="f" x1="374.22" y1="440" x2="374.22" y2="438.96"/><rect class="d" x="373.18" y="440" width="1.04" height="2.42"/><line class="f" x1="374.22" y1="442.42" x2="374.22" y2="440"/><line class="f" x1="373.18" y1="442.42" x2="374.22" y2="442.42"/><line class="f" x1="373.18" y1="440" x2="373.18" y2="442.42"/><line class="f" x1="374.22" y1="440" x2="373.18" y2="440"/><rect class="d" x="348.31" y="384.51" width="58.04" height="5.54"/><line class="f" x1="406.35" y1="390.05" x2="406.35" y2="384.51"/><line class="f" x1="348.31" y1="390.05" x2="406.35" y2="390.05"/><line class="f" x1="348.31" y1="384.51" x2="348.31" y2="390.05"/><line class="f" x1="406.35" y1="384.51" x2="348.31" y2="384.51"/><rect class="d" x="388.38" y="237.36" width="48.37" height="3.46"/><line class="f" x1="436.75" y1="240.82" x2="436.75" y2="237.36"/><line class="f" x1="388.38" y1="240.82" x2="436.75" y2="240.82"/><line class="f" x1="388.38" y1="237.36" x2="388.38" y2="240.82"/><line class="f" x1="436.75" y1="237.36" x2="388.38" y2="237.36"/><polygon class="d" points="438.98 240.31 438.48 239.09 438.98 237.87 440.2 237.36 441.42 237.87 441.93 239.09 441.42 240.31 440.2 240.82 438.98 240.31"/><g class="g"><path class="f" d="M441.93,239.09a1.73,1.73,0,1,1-3.45,0"/><path class="f" d="M438.48,239.09a1.73,1.73,0,1,1,3.45,0"/></g><polygon class="d" points="447.14 322.21 445.41 321.75 444.14 320.48 443.68 318.75 443.68 317.71 443.88 317.23 444.37 317.02 443.87 316.61 443.68 315.98 443.68 292.11 443.98 291.37 444.72 291.07 443.98 290.76 443.68 290.03 443.68 266.15 443.65 265.67 443.91 265.26 444.37 265.11 443.88 264.9 443.68 264.42 443.68 263.38 444.14 261.65 445.41 260.38 447.14 259.92 472.38 259.92 472.87 260.12 473.07 260.61 473.07 321.52 472.87 322.01 472.38 322.21 447.14 322.21"/><line class="f" x1="472.87" y1="322.01" x2="473.07" y2="321.52"/><line class="f" x1="472.38" y1="322.21" x2="472.87" y2="322.01"/><line class="f" x1="447.14" y1="322.21" x2="472.38" y2="322.21"/><line class="f" x1="445.41" y1="321.75" x2="447.14" y2="322.21"/><line class="f" x1="444.14" y1="320.48" x2="445.41" y2="321.75"/><line class="f" x1="443.68" y1="318.75" x2="444.14" y2="320.48"/><line class="f" x1="443.68" y1="317.71" x2="443.68" y2="318.75"/><line class="f" x1="443.88" y1="317.23" x2="443.68" y2="317.71"/><line class="f" x1="444.37" y1="317.02" x2="443.88" y2="317.23"/><line class="f" x1="443.87" y1="316.61" x2="444.37" y2="317.02"/><line class="f" x1="443.68" y1="315.98" x2="443.87" y2="316.61"/><line class="f" x1="443.68" y1="292.1" x2="443.68" y2="315.98"/><line class="f" x1="443.98" y1="291.37" x2="443.68" y2="292.11"/><line class="f" x1="444.72" y1="291.07" x2="443.98" y2="291.37"/><line class="f" x1="443.98" y1="290.76" x2="444.72" y2="291.07"/><line class="f" x1="443.68" y1="290.03" x2="443.98" y2="290.76"/><line class="f" x1="443.68" y1="266.15" x2="443.68" y2="290.03"/><line class="f" x1="443.65" y1="265.67" x2="443.68" y2="266.15"/><line class="f" x1="443.91" y1="265.26" x2="443.65" y2="265.67"/><line class="f" x1="444.37" y1="265.11" x2="443.91" y2="265.26"/><line class="f" x1="443.88" y1="264.91" x2="444.37" y2="265.11"/><line class="f" x1="443.68" y1="264.42" x2="443.88" y2="264.91"/><line class="f" x1="443.68" y1="263.38" x2="443.68" y2="264.42"/><line class="f" x1="444.14" y1="261.65" x2="443.68" y2="263.38"/><line class="f" x1="445.41" y1="260.38" x2="444.14" y2="261.65"/><line class="f" x1="447.14" y1="259.92" x2="445.41" y2="260.38"/><line class="f" x1="472.38" y1="259.92" x2="447.14" y2="259.92"/><line class="f" x1="472.87" y1="260.12" x2="472.38" y2="259.92"/><line class="f" x1="473.07" y1="260.61" x2="472.87" y2="260.12"/><line class="f" x1="473.07" y1="321.52" x2="473.07" y2="260.61"/><line class="f" x1="443.68" y1="264.42" x2="443.68" y2="263.38"/><line class="f" x1="447.14" y1="259.92" x2="472.38" y2="259.92"/><line class="f" x1="473.07" y1="260.61" x2="473.07" y2="264.42"/><line class="f" x1="472.38" y1="265.11" x2="444.37" y2="265.11"/><line class="f" x1="473.07" y1="264.42" x2="473.07" y2="291.07"/><line class="f" x1="473.07" y1="291.07" x2="470.65" y2="291.07"/><line class="f" x1="443.68" y1="290.03" x2="443.68" y2="266.15"/><line class="f" x1="444.72" y1="265.11" x2="462.05" y2="265.11"/><line class="f" x1="462.05" y1="291.07" x2="444.72" y2="291.07"/><line class="f" x1="471.69" y1="290.03" x2="471.69" y2="266.15"/><line class="f" x1="414.68" y1="265.11" x2="414.68" y2="270.3"/><line class="f" x1="414.68" y1="273.76" x2="414.68" y2="278.95"/><line class="f" x1="414.68" y1="282.41" x2="414.68" y2="287.61"/><line class="f" x1="414.68" y1="291.07" x2="414.68" y2="296.26"/><line class="f" x1="414.68" y1="299.72" x2="414.68" y2="304.91"/><line class="f" x1="414.68" y1="308.37" x2="414.68" y2="311.83"/><line class="f" x1="414.68" y1="311.83" x2="414.68" y2="317.02"/><line class="f" x1="443.68" y1="317.71" x2="443.68" y2="318.75"/><line class="f" x1="447.14" y1="322.21" x2="472.38" y2="322.21"/><line class="f" x1="473.07" y1="321.52" x2="473.07" y2="317.71"/><line class="f" x1="472.38" y1="317.02" x2="444.37" y2="317.02"/><line class="f" x1="473.07" y1="317.71" x2="473.07" y2="291.07"/><line class="f" x1="473.07" y1="291.07" x2="470.65" y2="291.07"/><line class="f" x1="443.68" y1="292.1" x2="443.68" y2="315.98"/><line class="f" x1="444.72" y1="317.02" x2="462.05" y2="317.02"/><line class="f" x1="470.65" y1="291.07" x2="444.72" y2="291.07"/><line class="f" x1="471.69" y1="292.1" x2="471.69" y2="315.98"/><line class="f" x1="444.72" y1="265.11" x2="439.54" y2="265.11"/><line class="f" x1="436.08" y1="265.11" x2="430.9" y2="265.11"/><line class="f" x1="427.44" y1="265.11" x2="422.26" y2="265.11"/><line class="f" x1="419.86" y1="265.11" x2="414.68" y2="265.11"/><line class="f" x1="444.72" y1="317.02" x2="439.54" y2="317.02"/><line class="f" x1="436.08" y1="317.02" x2="430.9" y2="317.02"/><line class="f" x1="427.44" y1="317.02" x2="422.26" y2="317.02"/><line class="f" x1="419.86" y1="317.02" x2="414.68" y2="317.02"/><g class="g"><path class="f" d="M472.38,259.92a.69.69,0,0,1,.69.69"/><path class="f" d="M473.07,264.42a.69.69,0,0,1-.69.69"/><path class="f" d="M444.37,265.11a.69.69,0,0,1-.69-.69"/><path class="f" d="M443.68,266.15a1,1,0,0,1,1-1"/><path class="f" d="M444.71,291.06a1,1,0,0,1-1-1"/><path class="f" d="M473.07,321.52a.69.69,0,0,1-.69.69"/><path class="f" d="M472.38,317a.69.69,0,0,1,.69.69"/><path class="f" d="M443.68,317.71a.69.69,0,0,1,.69-.69"/><path class="f" d="M444.71,317a1,1,0,0,1-1-1"/><path class="f" d="M443.68,292.1a1,1,0,0,1,1-1"/><path class="f" d="M467.94,289.92a95.42,95.42,0,0,1,0-23.88"/><path class="f" d="M468,315.88A98,98,0,0,1,468,292"/><path class="f" d="M443.68,263.38a3.46,3.46,0,0,1,3.46-3.46"/><path class="f" d="M447.14,322.21a3.46,3.46,0,0,1-3.46-3.46"/></g><rect class="d" x="317.56" y="277.22" width="27.64" height="27.69"/><line class="f" x1="317.56" y1="277.22" x2="317.56" y2="304.91"/><line class="f" x1="345.2" y1="277.22" x2="317.56" y2="277.22"/><line class="f" x1="345.2" y1="304.91" x2="345.2" y2="277.22"/><line class="f" x1="317.56" y1="304.91" x2="345.2" y2="304.91"/><polygon class="d" points="324.47 277.22 324.47 267.88 324.93 266.15 326.2 264.88 327.92 264.42 334.83 264.42 336.56 264.88 337.83 266.15 338.29 267.88 338.29 277.22 324.47 277.22"/><polygon class="d" points="327.92 317.71 326.2 317.25 324.93 315.98 324.47 314.25 324.47 304.91 338.29 304.91 338.29 314.25 337.83 315.98 336.56 317.25 334.83 317.71 327.92 317.71"/><line class="f" x1="327.92" y1="266.15" x2="334.83" y2="266.15"/><line class="f" x1="338.29" y1="267.88" x2="338.29" y2="277.22"/><line class="f" x1="327.92" y1="264.42" x2="334.83" y2="264.42"/><line class="f" x1="324.47" y1="277.22" x2="324.47" y2="267.88"/><g class="g"><path class="f" d="M334.83,266.15a1.72,1.72,0,0,1,1.73,1.73"/><path class="f" d="M326.2,267.88a1.72,1.72,0,0,1,1.72-1.73"/><path class="f" d="M334.83,264.42a3.46,3.46,0,0,1,3.46,3.46"/><path class="f" d="M324.47,267.88a3.46,3.46,0,0,1,3.45-3.46"/></g><line class="f" x1="327.92" y1="315.98" x2="334.83" y2="315.98"/><line class="f" x1="338.29" y1="314.25" x2="338.29" y2="304.91"/><line class="f" x1="327.92" y1="317.71" x2="334.83" y2="317.71"/><line class="f" x1="324.47" y1="304.91" x2="324.47" y2="314.25"/><g class="g"><path class="f" d="M336.56,314.25a1.72,1.72,0,0,1-1.73,1.73"/><path class="f" d="M327.92,316a1.72,1.72,0,0,1-1.72-1.73"/><path class="f" d="M338.29,314.25a3.46,3.46,0,0,1-3.45,3.46"/><path class="f" d="M327.92,317.71a3.46,3.46,0,0,1-3.45-3.46"/></g><rect class="d" x="452.64" y="339.52" width="20.73" height="42.57"/><line class="f" x1="473.37" y1="382.09" x2="473.37" y2="339.52"/><line class="f" x1="473.37" y1="339.52" x2="452.64" y2="339.52"/><line class="f" x1="452.64" y1="339.52" x2="452.64" y2="382.09"/><line class="f" x1="452.64" y1="382.09" x2="473.37" y2="382.09"/><line class="f" x1="463" y1="379.96" x2="463" y2="341.65"/><line class="f" x1="469.1" y1="377.99" x2="456.68" y2="374.38"/><line class="f" x1="469.72" y1="373.92" x2="458.17" y2="372.44"/><line class="f" x1="455.53" y1="368.38" x2="468.21" y2="367.16"/><line class="f" x1="457.19" y1="362.1" x2="468.21" y2="363.77"/><line class="f" x1="456.56" y1="359.82" x2="470.13" y2="359.82"/><line class="f" x1="456.5" y1="353.34" x2="469.91" y2="354.88"/><line class="f" x1="456.73" y1="350.92" x2="468.98" y2="350.92"/><line class="f" x1="456.6" y1="344.54" x2="469.16" y2="343.31"/><line class="f" x1="457.46" y1="346.07" x2="468.08" y2="347.32"/><rect class="d" x="452.64" y="384.51" width="20.73" height="58.84"/><line class="f" x1="473.37" y1="443.35" x2="473.37" y2="384.51"/><line class="f" x1="473.37" y1="384.51" x2="452.64" y2="384.51"/><line class="f" x1="452.64" y1="384.51" x2="452.64" y2="443.34"/><line class="f" x1="452.64" y1="443.35" x2="473.37" y2="443.35"/><line class="f" x1="463" y1="440.4" x2="463" y2="387.45"/><line class="f" x1="469.1" y1="437.68" x2="456.68" y2="432.7"/><line class="f" x1="469.72" y1="432.06" x2="458.17" y2="430.01"/><line class="f" x1="455.53" y1="424.4" x2="468.21" y2="422.71"/><line class="f" x1="457.19" y1="415.72" x2="468.21" y2="418.02"/><line class="f" x1="456.56" y1="412.56" x2="470.13" y2="412.56"/><line class="f" x1="456.5" y1="403.62" x2="469.91" y2="405.74"/><line class="f" x1="456.73" y1="400.27" x2="468.98" y2="400.27"/><line class="f" x1="456.6" y1="391.45" x2="469.16" y2="389.75"/><line class="f" x1="457.46" y1="393.57" x2="468.08" y2="395.29"/><polygon class="d" points="379.92 405.28 379.55 405.12 379.4 404.75 379.4 390.57 379.55 390.2 379.92 390.05 397.88 390.05 398.25 390.2 398.4 390.57 398.4 404.75 398.25 405.12 397.88 405.28 379.92 405.28"/><g class="g"><path class="f" d="M397.88,390.05a.52.52,0,0,1,.52.52"/></g><line class="f" x1="398.4" y1="404.76" x2="398.4" y2="390.57"/><g class="g"><path class="f" d="M398.4,404.76a.52.52,0,0,1-.52.52"/></g><line class="f" x1="379.92" y1="405.28" x2="397.88" y2="405.28"/><g class="g"><path class="f" d="M379.92,405.28a.52.52,0,0,1-.52-.52"/></g><line class="f" x1="379.4" y1="390.57" x2="379.4" y2="404.76"/><g class="g"><path class="f" d="M379.4,390.57a.52.52,0,0,1,.52-.52"/></g><line class="f" x1="397.88" y1="390.05" x2="379.92" y2="390.05"/><line class="f" x1="396.85" y1="393.85" x2="380.95" y2="393.85"/><line class="f" x1="380.44" y1="394.37" x2="380.44" y2="403.72"/><line class="f" x1="380.95" y1="404.24" x2="396.85" y2="404.24"/><line class="f" x1="397.36" y1="403.72" x2="397.36" y2="394.37"/><g class="g"><path class="f" d="M380.44,394.37a.52.52,0,0,1,.51-.52"/><path class="f" d="M381,404.24a.51.51,0,0,1-.51-.52"/><path class="f" d="M397.36,403.72a.52.52,0,0,1-.51.52"/><path class="f" d="M396.85,393.85a.52.52,0,0,1,.51.52"/></g><polygon class="d" points="388.64 395.98 388.52 395.74 388.29 393.91 388.18 393.58 388.04 392.12 388.29 391.51 388.9 391.26 389.51 391.51 389.76 392.12 389.63 393.58 389.51 393.91 389.28 395.74 389.16 395.98 388.9 396.08 388.64 395.98"/><line class="f" x1="389.76" y1="392.12" x2="389.63" y2="393.58"/><g class="g"><path class="f" d="M389.63,393.58a.66.66,0,0,1-.12.33"/></g><line class="f" x1="389.51" y1="393.91" x2="389.28" y2="395.74"/><g class="g"><path class="f" d="M389.28,395.74a.39.39,0,0,1-.38.34.38.38,0,0,1-.38-.34"/></g><line class="f" x1="388.52" y1="395.74" x2="388.29" y2="393.91"/><g class="g"><path class="f" d="M388.29,393.91a.68.68,0,0,1-.11-.33"/></g><line class="f" x1="388.18" y1="393.58" x2="388.04" y2="392.12"/><g class="g"><path class="f" d="M388,392.12a.86.86,0,0,1,1.72,0"/></g><line class="f" x1="388.43" y1="392.99" x2="388.43" y2="393.5"/><line class="f" x1="389.37" y1="393.5" x2="389.37" y2="392.99"/><line class="f" x1="389.37" y1="392.99" x2="388.43" y2="392.99"/><g class="g"><path class="f" d="M389.37,393.5a.47.47,0,0,1-.94,0"/><path class="f" d="M389.51,393.91a.73.73,0,0,1-1.22,0"/></g><polygon class="d" points="362.53 407 360.57 405.97 359.37 404.73 358.59 403.18 358.33 401.47 358.33 390.05 371.11 390.05 371.11 401.47 370.84 403.18 370.07 404.73 368.86 405.97 366.9 407 364.72 407.35 362.53 407"/><line class="f" x1="358.33" y1="390.05" x2="358.33" y2="401.47"/><line class="f" x1="358.33" y1="390.05" x2="371.11" y2="390.05"/><line class="f" x1="371.11" y1="390.05" x2="371.11" y2="401.47"/><line class="f" x1="360.4" y1="394.2" x2="360.4" y2="401.47"/><line class="f" x1="369.04" y1="394.2" x2="369.04" y2="401.47"/><line class="f" x1="369.04" y1="394.2" x2="360.4" y2="394.2"/><g class="g"><path class="f" d="M360.57,406a5.63,5.63,0,0,1-2.24-4.5"/><path class="f" d="M371.11,401.47a5.63,5.63,0,0,1-2.25,4.5"/><path class="f" d="M368.86,406a6.92,6.92,0,0,1-8.29,0"/><path class="f" d="M371.11,401.47a5.63,5.63,0,0,1-2.25,4.5"/><path class="f" d="M368.86,406a6.87,6.87,0,0,1-4.14,1.38"/><path class="f" d="M369,401.47a3.56,3.56,0,0,1-1.42,2.84"/><path class="f" d="M367.62,404.31a4.82,4.82,0,0,1-5.8,0"/><path class="f" d="M361.82,404.31a3.53,3.53,0,0,1-1.42-2.84"/></g><line class="f" x1="387.94" y1="306.85" x2="390.05" y2="306.85"/><line class="f" x1="324.47" y1="221.85" x2="324.47" y2="168.2"/><line class="f" x1="324.47" y1="168.2" x2="466.11" y2="168.2"/><line class="f" x1="466.11" y1="168.2" x2="466.11" y2="221.85"/><line class="f" x1="322.74" y1="221.85" x2="322.74" y2="166.47"/><line class="f" x1="467.84" y1="166.47" x2="467.84" y2="221.85"/><rect x="446.77" y="443.35" width="34.89" height="8.31"/><rect x="473.37" y="235.69" width="8.29" height="207.65"/><polygon points="308.92 228.77 308.92 221.85 322.74 221.85 352.11 221.85 352.11 228.77 308.92 228.77"/><rect x="308.92" y="228.77" width="41.46" height="6.92"/><rect x="308.92" y="443.34" width="99.84" height="8.31"/><rect x="308.92" y="235.69" width="8.29" height="207.65"/><polygon points="438.48 228.77 438.48 221.85 467.84 221.85 481.66 221.85 481.66 228.77 438.48 228.77"/><rect x="440.2" y="228.77" width="41.46" height="6.92"/><rect x="448.49" y="382.09" width="24.87" height="2.42"/><rect x="406.35" y="439.88" width="2.42" height="3.46"/><polygon points="406.35 412.2 406.35 384.51 317.21 384.51 317.21 382.09 417.4 382.09 417.4 384.51 408.76 384.51 408.76 412.2 406.35 412.2"/><rect x="344.85" y="384.51" width="3.46" height="22.5"/><rect x="317.21" y="407.01" width="31.09" height="3.46"/><rect x="408.77" y="447.5" width="1.73" height="4.15"/><rect x="445.04" y="447.67" width="1.73" height="3.98"/><line class="f" x1="308.92" y1="221.85" x2="308.92" y2="451.65"/><line class="f" x1="308.92" y1="451.65" x2="481.66" y2="451.65"/><line class="f" x1="481.66" y1="451.65" x2="481.66" y2="221.85"/><line class="f" x1="481.66" y1="221.85" x2="467.84" y2="221.85"/><line class="f" x1="467.84" y1="221.85" x2="467.84" y2="166.47"/><line class="f" x1="467.84" y1="166.47" x2="322.74" y2="166.47"/><line class="f" x1="322.74" y1="166.47" x2="322.74" y2="221.85"/><line class="f" x1="322.74" y1="221.85" x2="308.92" y2="221.85"/><path class="h" d="M361.49,416.39v7h-.72V417h-1.65v-.64Z"/><path class="h" d="M363.17,422.89a.53.53,0,0,1,.53-.54.54.54,0,0,1,.54.54.55.55,0,0,1-.54.55A.54.54,0,0,1,363.17,422.89Z"/><path class="h" d="M365.18,419.89c0-2.23,1.17-3.56,2.79-3.56s2.8,1.33,2.8,3.56-1.18,3.56-2.8,3.56S365.18,422.12,365.18,419.89Zm4.85,0c0-1.87-.84-2.9-2.06-2.9s-2.06,1-2.06,2.9.84,2.9,2.06,2.9S370,421.76,370,419.89Z"/><path class="h" d="M376.34,421.38c0,1.17-.85,2.07-2.54,2.07a3.64,3.64,0,0,1-2.52-.9l.35-.57a3.07,3.07,0,0,0,2.17.81c1.16,0,1.8-.54,1.8-1.41S375,420,373.71,420h-.5v-.53l1.94-2.43h-3.58v-.64h4.5v.51l-2,2.49C375.59,419.47,376.34,420.26,376.34,421.38Z"/><path class="h" d="M378.14,192.28v7h-.72v-6.36h-1.65v-.64Z"/><path class="h" d="M379.82,198.78a.53.53,0,0,1,.53-.54.54.54,0,0,1,0,1.08A.53.53,0,0,1,379.82,198.78Z"/><path class="h" d="M381.83,195.78c0-2.23,1.17-3.56,2.79-3.56s2.8,1.33,2.8,3.56-1.18,3.55-2.8,3.55S381.83,198,381.83,195.78Zm4.85,0c0-1.87-.84-2.9-2.06-2.9s-2.06,1-2.06,2.9.84,2.9,2.06,2.9S386.68,197.65,386.68,195.78Z"/><path class="h" d="M394.4,197.44H393v1.84h-.72v-1.84h-3.95v-.52l3.71-4.64h.8l-3.58,4.52h3v-1.62h.7v1.62h1.4Z"/><path class="h" d="M378.14,335.65v7h-.72v-6.36h-1.65v-.64Z"/><path class="h" d="M379.82,342.15a.53.53,0,0,1,.53-.54.54.54,0,0,1,.54.54.55.55,0,0,1-.54.55A.54.54,0,0,1,379.82,342.15Z"/><path class="h" d="M381.83,339.15c0-2.23,1.17-3.56,2.79-3.56s2.8,1.33,2.8,3.56-1.18,3.55-2.8,3.55S381.83,341.38,381.83,339.15Zm4.85,0c0-1.87-.84-2.9-2.06-2.9s-2.06,1-2.06,2.9.84,2.9,2.06,2.9S386.68,341,386.68,339.15Z"/><path class="h" d="M393.22,342v.64h-4.91v-.51l2.91-2.85c.79-.78.94-1.25.94-1.73,0-.81-.57-1.31-1.64-1.31a2.38,2.38,0,0,0-1.91.78l-.51-.44a3.15,3.15,0,0,1,2.48-1c1.42,0,2.32.72,2.32,1.89a2.88,2.88,0,0,1-1.15,2.19L389.37,342Z"/><path class="h" d="M427.82,397v7h-.72v-6.36h-1.65V397Z"/><path class="h" d="M429.5,403.52A.53.53,0,0,1,430,403a.54.54,0,0,1,.54.54.55.55,0,0,1-.54.55A.54.54,0,0,1,429.5,403.52Z"/><path class="h" d="M431.51,400.52c0-2.23,1.17-3.56,2.79-3.56s2.8,1.33,2.8,3.56-1.18,3.55-2.8,3.55S431.51,402.75,431.51,400.52Zm4.85,0c0-1.87-.84-2.9-2.06-2.9s-2.06,1-2.06,2.9.84,2.9,2.06,2.9S436.36,402.39,436.36,400.52Z"/><path class="h" d="M440.06,397v7h-.72v-6.36h-1.65V397Z"/></svg>