<svg xmlns="http://www.w3.org/2000/svg" xmlns:xlink="http://www.w3.org/1999/xlink" viewBox="0 0 790.58 618.13"><defs><style>.a,.f{fill:none;}.b{fill:#595a5c;}.c{fill:#b6906c;}.d,.h{fill:#fff;}.e{fill:#231f20;}.f{stroke:#000;stroke-linecap:round;stroke-linejoin:round;stroke-width:0.35px;}.g{clip-path:url(#a);}.h,.i{fill-rule:evenodd;}.j{fill:#58595b;}</style><clipPath id="a"><polygon class="a" points="239.28 184.43 239.28 377.92 298.55 377.92 298.55 433.69 500.75 433.69 500.75 377.92 551.3 377.92 551.3 184.43 239.28 184.43"/></clipPath></defs><path class="b" d="M55.31,597.13H57.1V609.9H55.31Zm.92,6.11h4.09a1.89,1.89,0,0,0,1-.27,1.82,1.82,0,0,0,.68-.77,2.67,2.67,0,0,0,.24-1.16,2.7,2.7,0,0,0-.24-1.16,1.82,1.82,0,0,0-1.7-1H56.23v-1.7h4a4.09,4.09,0,0,1,2,.48A3.45,3.45,0,0,1,63.62,599a4.64,4.64,0,0,1,0,4.11,3.34,3.34,0,0,1-1.35,1.36,4,4,0,0,1-2,.49h-4Z"/><path class="b" d="M67.7,606.33a2.07,2.07,0,0,0,.49,1.48,1.76,1.76,0,0,0,1.37.52,1.89,1.89,0,0,0,1.37-.46,1.79,1.79,0,0,0,.48-1.33l.12,1.91A2.58,2.58,0,0,1,69.06,610a2.89,2.89,0,0,1-2.33-1,4.08,4.08,0,0,1-.82-2.73v-5.55H67.7Zm.22-7.86a1.93,1.93,0,0,1-.56-1.5,2.07,2.07,0,0,1,.56-1.57,2.56,2.56,0,0,1,3.18,0,2.08,2.08,0,0,1,.57,1.56,1.94,1.94,0,0,1-.57,1.5,2.65,2.65,0,0,1-3.18,0Zm2.26-.86a.94.94,0,0,0,.24-.68,1,1,0,0,0-.24-.7.91.91,0,0,0-.67-.25.92.92,0,0,0-.67.25,1,1,0,0,0-.23.7,1,1,0,0,0,.23.68.92.92,0,0,0,.67.24A.9.9,0,0,0,70.18,597.61Zm1.23,3.17h1.78v9.12H71.41Z"/><path class="b" d="M77.1,609.63A2.82,2.82,0,0,1,76,608.36a5.08,5.08,0,0,1-.36-2v-2a5.05,5.05,0,0,1,.36-2,2.71,2.71,0,0,1,1-1.27,3,3,0,0,1,1.65-.44,2.71,2.71,0,0,1,1.48.42,3.22,3.22,0,0,1,1.09,1.19l-.18,1.86a2.19,2.19,0,0,0-.22-1,1.48,1.48,0,0,0-.61-.63,2,2,0,0,0-1-.21,1.71,1.71,0,0,0-1.37.55,2.26,2.26,0,0,0-.49,1.56v2a2.19,2.19,0,0,0,.49,1.54,1.74,1.74,0,0,0,1.37.54,1.93,1.93,0,0,0,1-.23,1.45,1.45,0,0,0,.61-.64,2.25,2.25,0,0,0,.22-1l.12,1.92a2.66,2.66,0,0,1-.89,1.14,2.56,2.56,0,0,1-1.53.45A3.19,3.19,0,0,1,77.1,609.63Zm4-12.5H82.9V609.9H81.11Z"/><path class="b" d="M87.09,609.57a3.09,3.09,0,0,1-1.29-1.36,4.85,4.85,0,0,1-.44-2.15v-1.48a4.71,4.71,0,0,1,.44-2.12,3.12,3.12,0,0,1,1.29-1.35,4.71,4.71,0,0,1,4.06,0,3.12,3.12,0,0,1,1.29,1.35,4.71,4.71,0,0,1,.44,2.12v1.51a4.79,4.79,0,0,1-.44,2.13,3.12,3.12,0,0,1-1.29,1.35,4.62,4.62,0,0,1-4.06,0Zm3.49-1.83a2.43,2.43,0,0,0,.51-1.65v-1.51a2.43,2.43,0,0,0-.51-1.65,1.88,1.88,0,0,0-1.46-.58,1.85,1.85,0,0,0-1.45.58,2.38,2.38,0,0,0-.52,1.65v1.51a2.38,2.38,0,0,0,.52,1.65,1.82,1.82,0,0,0,1.45.59A1.85,1.85,0,0,0,90.58,607.74Z"/><path class="b" d="M95.43,600.78h1.79v9.12H95.43Zm4.42,1.72a2.16,2.16,0,0,0-.83-.15,1.83,1.83,0,0,0-1.33.47,1.79,1.79,0,0,0-.47,1.31L97,602.37a3.32,3.32,0,0,1,1.09-1.27,2.58,2.58,0,0,1,1.48-.45,3.39,3.39,0,0,1,1.13.18,2.62,2.62,0,0,1,.88.53l-1.17,1.58A1.56,1.56,0,0,0,99.85,602.5Z"/><path class="b" d="M102.15,600.78H104l2.81,7.93-1,1.94Zm8.07,0L106.34,612a2.6,2.6,0,0,1-.56,1,1.87,1.87,0,0,1-.84.52,4,4,0,0,1-1.23.16h-.36V612h.36a1.46,1.46,0,0,0,.8-.2,1.74,1.74,0,0,0,.51-.7l3.38-10.31Z"/><path class="b" d="M113.51,609.88a5.76,5.76,0,0,1-1.32-.48,4.89,4.89,0,0,1-1.13-.79l1.06-1.31a5.86,5.86,0,0,0,1.47.85,4.18,4.18,0,0,0,1.44.28,3.11,3.11,0,0,0,1.6-.33,1.1,1.1,0,0,0,.53-1,.79.79,0,0,0-.29-.66,1.66,1.66,0,0,0-.72-.29c-.29,0-.69-.1-1.22-.14h-.15l-.14,0h-.15a6.45,6.45,0,0,1-1.5-.26,2,2,0,0,1-1-.7,2.38,2.38,0,0,1-.41-1.49,3.07,3.07,0,0,1,.39-1.61,2.41,2.41,0,0,1,1.18-1,5.29,5.29,0,0,1,2-.32,6.38,6.38,0,0,1,2.6.52,6.16,6.16,0,0,1,1.13.66l-1.08,1.31a5.59,5.59,0,0,0-1.35-.66,4,4,0,0,0-1.3-.22,2.44,2.44,0,0,0-1.37.31,1.08,1.08,0,0,0-.46.94.64.64,0,0,0,.26.55,1.72,1.72,0,0,0,.66.25c.26,0,.64.07,1.12.1h.34a7.67,7.67,0,0,1,1.63.25,2.24,2.24,0,0,1,1.13.77,2.62,2.62,0,0,1,.45,1.65,2.92,2.92,0,0,1-.42,1.63,2.54,2.54,0,0,1-1.27,1A5.88,5.88,0,0,1,115,610,7.38,7.38,0,0,1,113.51,609.88Z"/><path class="b" d="M126,597.13h1.8V609.9H126Zm2.6,12.5a2.39,2.39,0,0,1-.93-1.16l.13-1.91a2.22,2.22,0,0,0,.21,1,1.48,1.48,0,0,0,.61.63,1.93,1.93,0,0,0,1,.22,1.74,1.74,0,0,0,1.37-.54,2.18,2.18,0,0,0,.49-1.53v-2a2.26,2.26,0,0,0-.49-1.56,1.71,1.71,0,0,0-1.37-.55,2,2,0,0,0-1,.21,1.36,1.36,0,0,0-.61.62,2.12,2.12,0,0,0-.21,1l-.19-1.76a3.37,3.37,0,0,1,1.08-1.24,2.67,2.67,0,0,1,1.49-.43,3,3,0,0,1,1.65.43,2.9,2.9,0,0,1,1.06,1.27,5.1,5.1,0,0,1,.36,2v2a4.94,4.94,0,0,1-.37,2,2.79,2.79,0,0,1-1.08,1.26,3.25,3.25,0,0,1-1.71.44A2.73,2.73,0,0,1,128.57,609.63Z"/><path class="b" d="M134.46,600.78h1.82l2.81,7.93-1,1.94Zm8.07,0L138.65,612a2.6,2.6,0,0,1-.56,1,1.87,1.87,0,0,1-.84.52,4,4,0,0,1-1.23.16h-.36V612H136a1.46,1.46,0,0,0,.8-.2,1.74,1.74,0,0,0,.51-.7l3.37-10.31Z"/><path class="b" d="M143.57,600.78h4.12v1.62h-4.12Zm1.46,8.56a2.77,2.77,0,0,1-.52-1.81v-9.4h1.8v9.42a.84.84,0,0,0,.13.51.46.46,0,0,0,.39.18h.86V610h-1A2,2,0,0,1,145,609.34Z"/><path class="b" d="M151.94,606.33a2.07,2.07,0,0,0,.49,1.48,1.76,1.76,0,0,0,1.37.52,1.91,1.91,0,0,0,1.37-.46,1.79,1.79,0,0,0,.48-1.33l.12,1.91A2.58,2.58,0,0,1,153.3,610a2.89,2.89,0,0,1-2.33-1,4.08,4.08,0,0,1-.82-2.73v-5.55h1.79Zm3.71-5.55h1.78v9.12h-1.78Z"/><rect class="c" x="612.92" y="591.68" width="35.43" height="2.83"/><path class="d" d="M648.48,594.64H612.79v-3.08h35.69ZM613,594.39h35.19v-2.58H613Z"/><rect class="c" x="612.92" y="601.6" width="70.74" height="2.83"/><path class="d" d="M683.78,604.56h-71v-3.08h71ZM613,604.31h70.49v-2.58H613Z"/><rect class="c" x="612.92" y="612.72" width="177.16" height="2.84"/><path class="d" d="M790.21,615.68H612.79V612.6H790.21ZM613,615.43H790v-2.58H613Z"/><path class="e" d="M587.26,596.28h-.8v-4.82l-.81.5v-.83l.81-.53h.8Z"/><path class="e" d="M589,595.91a1.67,1.67,0,0,1-.41-1.19v-2.58A1.65,1.65,0,0,1,589,591a2,2,0,0,1,2.42,0,1.65,1.65,0,0,1,.41,1.19v2.58a1.65,1.65,0,0,1-.41,1.19,2,2,0,0,1-2.42,0Zm1.83-.55a.89.89,0,0,0,.2-.64v-2.58a.89.89,0,0,0-.2-.64.82.82,0,0,0-.62-.22.86.86,0,0,0-.63.22.94.94,0,0,0-.2.64v2.58a.9.9,0,0,0,.21.64,1,1,0,0,0,1.24,0Z"/><path class="e" d="M593.22,595.91a1.67,1.67,0,0,1-.41-1.19v-2.58a1.65,1.65,0,0,1,.41-1.19,2,2,0,0,1,2.42,0,1.61,1.61,0,0,1,.41,1.19v2.58a1.65,1.65,0,0,1-.41,1.19,2,2,0,0,1-2.42,0Zm1.83-.55a.9.9,0,0,0,.21-.64v-2.58a.94.94,0,0,0-.2-.64.86.86,0,0,0-.63-.22.82.82,0,0,0-.62.22.89.89,0,0,0-.2.64v2.58a.89.89,0,0,0,.2.64,1,1,0,0,0,1.24,0Z"/><path class="e" d="M600.1,596.13a1.45,1.45,0,0,1-.6-.6,2.06,2.06,0,0,1-.21-1v-.67a2,2,0,0,1,.21-.94,1.37,1.37,0,0,1,.6-.59,2,2,0,0,1,.95-.21,2.21,2.21,0,0,1,.59.08,1.68,1.68,0,0,1,.51.22,1.54,1.54,0,0,1,.37.35l-.58.52a1.17,1.17,0,0,0-.4-.3,1.13,1.13,0,0,0-.48-.11.94.94,0,0,0-.71.26,1,1,0,0,0-.26.72v.67a1,1,0,0,0,.25.74.94.94,0,0,0,.72.27,1,1,0,0,0,.48-.12,1,1,0,0,0,.4-.32l.58.56a1.38,1.38,0,0,1-.38.34,1.62,1.62,0,0,1-.5.22,2.27,2.27,0,0,1-.59.07A2.12,2.12,0,0,1,600.1,596.13Z"/><path class="e" d="M603.4,592.22h.79v4.06h-.79Zm2.42,1.6a1,1,0,0,0-.21-.67.78.78,0,0,0-.6-.23.81.81,0,0,0-.6.21.73.73,0,0,0-.22.58l-.08-.78a1.46,1.46,0,0,1,.49-.57,1.22,1.22,0,0,1,.67-.2,1.33,1.33,0,0,1,.73.2,1.18,1.18,0,0,1,.46.56,2.4,2.4,0,0,1,.15.89v2.47h-.79Zm2.42,0a.93.93,0,0,0-.22-.67.85.85,0,0,0-.63-.23.72.72,0,0,0-.57.23.9.9,0,0,0-.21.64l-.16-.78a1.61,1.61,0,0,1,.51-.63,1.23,1.23,0,0,1,.69-.22,1.37,1.37,0,0,1,.75.2,1.09,1.09,0,0,1,.47.56,2.21,2.21,0,0,1,.17.89v2.47h-.8Z"/><path class="e" d="M584.33,605.5l2-2.64a1.85,1.85,0,0,0,.27-.47,1.29,1.29,0,0,0,.09-.45h0a.67.67,0,0,0-.2-.53.81.81,0,0,0-.56-.19.76.76,0,0,0-.56.21,1,1,0,0,0-.27.58h-.82a2,2,0,0,1,.29-.83,1.42,1.42,0,0,1,.56-.53,1.67,1.67,0,0,1,.79-.18,1.93,1.93,0,0,1,.87.17,1.21,1.21,0,0,1,.54.51,1.55,1.55,0,0,1,.19.8h0a1.84,1.84,0,0,1-.12.63,2.8,2.8,0,0,1-.35.63l-1.65,2.24h2.15v.76h-3.2Z"/><path class="e" d="M589,605.83a1.67,1.67,0,0,1-.41-1.19v-2.58a1.65,1.65,0,0,1,.41-1.19,2,2,0,0,1,2.42,0,1.65,1.65,0,0,1,.41,1.19v2.58a1.65,1.65,0,0,1-.41,1.19,2,2,0,0,1-2.42,0Zm1.83-.55a.89.89,0,0,0,.2-.64v-2.58a.89.89,0,0,0-.2-.64.82.82,0,0,0-.62-.22.86.86,0,0,0-.63.22.94.94,0,0,0-.19.64v2.58a.89.89,0,0,0,.2.64,1,1,0,0,0,1.24,0Z"/><path class="e" d="M593.22,605.83a1.67,1.67,0,0,1-.41-1.19v-2.58a1.61,1.61,0,0,1,.42-1.19,1.59,1.59,0,0,1,1.2-.42,1.45,1.45,0,0,1,1.62,1.61v2.58a1.61,1.61,0,0,1-.41,1.19,2,2,0,0,1-2.42,0Zm1.84-.55a.94.94,0,0,0,.2-.64v-2.58a.94.94,0,0,0-.2-.64.84.84,0,0,0-.63-.22.82.82,0,0,0-.62.22.89.89,0,0,0-.2.64v2.58a.89.89,0,0,0,.2.64.82.82,0,0,0,.62.22A.86.86,0,0,0,595.06,605.28Z"/><path class="e" d="M600.1,606.05a1.45,1.45,0,0,1-.6-.6,2.06,2.06,0,0,1-.2-1v-.67a2,2,0,0,1,.2-.94,1.37,1.37,0,0,1,.6-.59,2,2,0,0,1,.95-.21,2.35,2.35,0,0,1,.6.08,1.73,1.73,0,0,1,.5.22,1.38,1.38,0,0,1,.37.35l-.58.52a1.08,1.08,0,0,0-.4-.3,1.13,1.13,0,0,0-.48-.11,1,1,0,0,0-.71.26,1,1,0,0,0-.26.72v.67a1,1,0,0,0,.25.74.94.94,0,0,0,.72.27,1.14,1.14,0,0,0,.88-.44l.58.56a1.38,1.38,0,0,1-.38.34,1.62,1.62,0,0,1-.5.22,2.22,2.22,0,0,1-.59.07A2.12,2.12,0,0,1,600.1,606.05Z"/><path class="e" d="M603.4,602.14h.79v4.06h-.79Zm2.42,1.6a1,1,0,0,0-.21-.67.78.78,0,0,0-.6-.23.81.81,0,0,0-.6.21.73.73,0,0,0-.22.58l-.08-.78a1.46,1.46,0,0,1,.49-.57,1.22,1.22,0,0,1,.67-.2,1.3,1.3,0,0,1,.73.2,1.18,1.18,0,0,1,.46.56,2.4,2.4,0,0,1,.16.89v2.47h-.8Zm2.42,0a.93.93,0,0,0-.22-.67.85.85,0,0,0-.63-.23.73.73,0,0,0-.57.23.89.89,0,0,0-.2.64l-.16-.78a1.51,1.51,0,0,1,.5-.63,1.23,1.23,0,0,1,.69-.22,1.35,1.35,0,0,1,.75.2,1.16,1.16,0,0,1,.48.56,2.4,2.4,0,0,1,.16.89v2.47h-.8Z"/><path class="e" d="M585,615.58a1.34,1.34,0,0,1-.54-.49,2,2,0,0,1-.28-.77h.8a.75.75,0,0,0,.25.49.85.85,0,0,0,.54.17.72.72,0,0,0,.59-.25,1.1,1.1,0,0,0,.21-.72v-.48a1.1,1.1,0,0,0-.21-.72.72.72,0,0,0-.59-.25.83.83,0,0,0-.4.11,1.18,1.18,0,0,0-.34.33h-.72v-3h2.89v.76h-2.1V612a1,1,0,0,1,.34-.18.94.94,0,0,1,.37-.07,1.68,1.68,0,0,1,.84.2,1.29,1.29,0,0,1,.53.6,2.07,2.07,0,0,1,.19.94V614a2.25,2.25,0,0,1-.19.94,1.31,1.31,0,0,1-.55.59,1.69,1.69,0,0,1-.86.21A1.74,1.74,0,0,1,585,615.58Z"/><path class="e" d="M589,615.32a1.65,1.65,0,0,1-.41-1.19v-2.58a1.67,1.67,0,0,1,.41-1.19,2,2,0,0,1,2.42,0,1.65,1.65,0,0,1,.41,1.19v2.58a1.64,1.64,0,0,1-.41,1.19,1.92,1.92,0,0,1-2.42,0Zm1.83-.55a.89.89,0,0,0,.2-.64v-2.58a.88.88,0,0,0-.2-.63.78.78,0,0,0-.62-.22.82.82,0,0,0-.63.22.93.93,0,0,0-.2.63v2.58a.9.9,0,0,0,.21.64,1,1,0,0,0,1.24,0Z"/><path class="e" d="M593.22,615.32a1.65,1.65,0,0,1-.41-1.19v-2.58a1.67,1.67,0,0,1,.41-1.19,2,2,0,0,1,2.42,0,1.61,1.61,0,0,1,.41,1.19v2.58a1.64,1.64,0,0,1-.41,1.19,1.92,1.92,0,0,1-2.42,0Zm1.83-.55a.9.9,0,0,0,.21-.64v-2.58a.93.93,0,0,0-.2-.63.82.82,0,0,0-.63-.22.78.78,0,0,0-.62.22.88.88,0,0,0-.2.63v2.58a.89.89,0,0,0,.2.64,1,1,0,0,0,1.24,0Z"/><path class="e" d="M600.1,615.54a1.45,1.45,0,0,1-.6-.6,2,2,0,0,1-.21-1v-.67a2,2,0,0,1,.21-.94,1.45,1.45,0,0,1,.6-.6,2,2,0,0,1,.95-.2,2.22,2.22,0,0,1,.59.07,2,2,0,0,1,.51.22,1.76,1.76,0,0,1,.37.35l-.58.52a1.17,1.17,0,0,0-.4-.3,1.13,1.13,0,0,0-.48-.11.94.94,0,0,0-.71.26,1,1,0,0,0-.26.73V614a1.07,1.07,0,0,0,.25.74,1,1,0,0,0,.72.26,1.13,1.13,0,0,0,.48-.11,1.26,1.26,0,0,0,.4-.32l.58.55a1.42,1.42,0,0,1-.38.35,1.88,1.88,0,0,1-.5.21,2.27,2.27,0,0,1-.59.08A2,2,0,0,1,600.1,615.54Z"/><path class="e" d="M603.4,611.63h.79v4.06h-.79Zm2.42,1.6a1,1,0,0,0-.21-.66.75.75,0,0,0-.6-.24.81.81,0,0,0-.6.21.75.75,0,0,0-.22.58l-.08-.78a1.5,1.5,0,0,1,.49-.56,1.15,1.15,0,0,1,.67-.2,1.32,1.32,0,0,1,.73.19,1.28,1.28,0,0,1,.46.56,2.42,2.42,0,0,1,.15.9v2.46h-.79Zm2.42,0a.91.91,0,0,0-.22-.66.82.82,0,0,0-.63-.24.72.72,0,0,0-.57.23.9.9,0,0,0-.21.64l-.16-.78a1.51,1.51,0,0,1,.51-.62,1.16,1.16,0,0,1,.69-.22,1.37,1.37,0,0,1,.75.19,1.18,1.18,0,0,1,.47.56,2.22,2.22,0,0,1,.17.9v2.46h-.8Z"/><path class="c" d="M23.49,613.89A12.92,12.92,0,1,1,36.4,601,12.93,12.93,0,0,1,23.49,613.89Zm0-24.83A11.92,11.92,0,1,0,35.4,601,11.93,11.93,0,0,0,23.49,589.06Z"/><polygon class="d" points="35.77 588.74 9.42 600.98 35.77 613.21 32.02 600.98 35.77 588.74"/><path class="c" d="M36.58,614.14,8.23,601l28.35-13.17-4,13.17ZM10.61,601,35,612.29,31.5,601,35,589.66Z"/><path class="c" d="M2.52,605.19a5,5,0,0,1-1.11-.38,4.4,4.4,0,0,1-1-.64l.81-1a3.72,3.72,0,0,0,1.16.69,4.08,4.08,0,0,0,1.38.23,2.73,2.73,0,0,0,1.55-.38,1.17,1.17,0,0,0,.55-1.05h0a1.12,1.12,0,0,0-.25-.77,1.44,1.44,0,0,0-.64-.42,8.23,8.23,0,0,0-1-.25H3.89l-.1,0a9.48,9.48,0,0,1-1.5-.36,2.08,2.08,0,0,1-1-.73,2.42,2.42,0,0,1-.41-1.51h0a2.77,2.77,0,0,1,.38-1.47,2.44,2.44,0,0,1,1.12-.92,4.48,4.48,0,0,1,1.77-.32,4.6,4.6,0,0,1,1,.11,4.9,4.9,0,0,1,1.86.86l-.73,1a4.61,4.61,0,0,0-1-.58,3,3,0,0,0-1.06-.2,2.44,2.44,0,0,0-1.46.38,1.24,1.24,0,0,0-.53,1.07h0a1,1,0,0,0,.27.75,1.74,1.74,0,0,0,.67.4,9.3,9.3,0,0,0,1.12.27h.24a7.93,7.93,0,0,1,1.4.41,2.22,2.22,0,0,1,.94.76,2.4,2.4,0,0,1,.38,1.43h0a2.62,2.62,0,0,1-.4,1.45,2.54,2.54,0,0,1-1.16.91,4.8,4.8,0,0,1-1.83.31A6.44,6.44,0,0,1,2.52,605.19Z"/><rect class="c" x="612.5" y="600.68" width="1" height="4.68"/><rect class="c" x="612.5" y="590.76" width="1" height="4.68"/><rect class="c" x="612.5" y="611.45" width="1" height="5.24"/><rect class="c" x="789.58" y="611.45" width="1" height="5.24"/><rect class="c" x="682.59" y="600.68" width="1" height="4.68"/><rect class="c" x="647.3" y="590.76" width="1" height="4.68"/><rect class="a" width="790.34" height="618.13"/><rect class="d" x="253.23" y="192.8" width="118.53" height="21.2"/><line class="f" x1="253.23" y1="192.8" x2="253.23" y2="214"/><line class="f" x1="371.76" y1="192.8" x2="253.23" y2="192.8"/><line class="f" x1="371.76" y1="214" x2="371.76" y2="192.8"/><line class="f" x1="253.23" y1="214" x2="371.76" y2="214"/><rect class="d" x="391.63" y="192.67" width="14.29" height="21.39"/><line class="f" x1="391.63" y1="192.67" x2="391.63" y2="214.06"/><line class="f" x1="405.92" y1="192.67" x2="391.63" y2="192.67"/><line class="f" x1="405.92" y1="214.06" x2="405.92" y2="192.67"/><line class="f" x1="391.63" y1="214.06" x2="405.92" y2="214.06"/><rect class="d" x="376.64" y="283.44" width="12.55" height="80.18"/><line class="f" x1="376.64" y1="283.44" x2="376.64" y2="363.62"/><line class="f" x1="389.19" y1="283.44" x2="376.64" y2="283.44"/><line class="f" x1="389.19" y1="363.62" x2="389.19" y2="283.44"/><line class="f" x1="376.64" y1="363.62" x2="389.19" y2="363.62"/><rect class="d" x="510.34" y="219.82" width="31.38" height="31.38"/><line class="f" x1="510.34" y1="219.82" x2="510.34" y2="251.19"/><line class="f" x1="541.71" y1="219.82" x2="510.34" y2="219.82"/><line class="f" x1="541.71" y1="251.19" x2="541.71" y2="219.82"/><line class="f" x1="510.34" y1="251.19" x2="541.71" y2="251.19"/><line class="f" x1="514.69" y1="192.8" x2="514.69" y2="215.46"/><line class="f" x1="514.69" y1="215.46" x2="542.59" y2="215.46"/><line class="f" x1="542.58" y1="215.46" x2="518.18" y2="211.97"/><line class="f" x1="518.18" y1="211.97" x2="514.69" y2="192.8"/><line class="f" x1="389.19" y1="210.23" x2="375.25" y2="210.23"/><line class="f" x1="375.25" y1="210.23" x2="375.25" y2="192.8"/><line class="f" x1="375.25" y1="192.8" x2="378.73" y2="206.74"/><line class="f" x1="378.73" y1="206.74" x2="389.19" y2="210.23"/><line class="f" x1="514.69" y1="192.8" x2="542.59" y2="192.8"/><line class="f" x1="411.85" y1="192.8" x2="418.82" y2="192.8"/><line class="f" x1="422.66" y1="192.8" x2="423.44" y2="192.8"/><line class="f" x1="427.28" y1="192.8" x2="428.06" y2="192.8"/><line class="f" x1="431.9" y1="192.8" x2="438.87" y2="192.8"/><line class="f" x1="442.7" y1="192.8" x2="443.23" y2="192.8"/><line class="f" x1="443.23" y1="192.8" x2="450.2" y2="192.8"/><line class="f" x1="253.23" y1="184.43" x2="253.23" y2="184.43"/><line class="f" x1="253.23" y1="184.43" x2="403.48" y2="184.43"/><line class="f" x1="389.19" y1="192.8" x2="375.25" y2="192.8"/><line class="f" x1="375.25" y1="192.8" x2="375.25" y2="210.23"/><line class="f" x1="375.25" y1="210.23" x2="389.19" y2="210.23"/><line class="f" x1="389.19" y1="210.23" x2="389.19" y2="192.8"/><line class="f" x1="239.28" y1="377.92" x2="298.55" y2="377.92"/><line class="f" x1="298.55" y1="377.92" x2="307.26" y2="377.92"/><line class="f" x1="373.5" y1="377.92" x2="425.8" y2="377.92"/><line class="f" x1="492.03" y1="377.92" x2="500.75" y2="377.92"/><line class="f" x1="500.75" y1="377.92" x2="537.36" y2="377.92"/><line class="f" x1="253.23" y1="363.97" x2="305.52" y2="363.97"/><line class="f" x1="246.25" y1="252.41" x2="253.23" y2="252.41"/><line class="f" x1="246.25" y1="217.55" x2="253.23" y2="217.55"/><line class="f" x1="391.63" y1="363.97" x2="424.05" y2="363.97"/><line class="f" x1="493.78" y1="363.97" x2="542.58" y2="363.97"/><line class="f" x1="246.25" y1="370.94" x2="305.52" y2="370.94"/><line class="f" x1="375.25" y1="370.94" x2="424.05" y2="370.94"/><line class="f" x1="493.78" y1="370.94" x2="542.58" y2="370.94"/><line class="f" x1="493.78" y1="370.94" x2="493.78" y2="363.97"/><line class="f" x1="424.05" y1="370.94" x2="424.05" y2="363.97"/><line class="f" x1="305.52" y1="370.94" x2="305.52" y2="363.97"/><line class="f" x1="375.25" y1="370.94" x2="375.25" y2="363.97"/><line class="f" x1="542.58" y1="377.92" x2="542.58" y2="370.94"/><line class="f" x1="542.58" y1="252.06" x2="542.58" y2="218.94"/><line class="f" x1="542.58" y1="215.46" x2="542.58" y2="192.8"/><line class="f" x1="542.58" y1="252.06" x2="542.58" y2="218.94"/><line class="f" x1="542.58" y1="215.46" x2="542.58" y2="192.8"/><line class="f" x1="253.23" y1="363.97" x2="253.23" y2="252.41"/><line class="f" x1="253.23" y1="217.55" x2="253.23" y2="192.8"/><line class="f" x1="411.85" y1="184.43" x2="411.85" y2="184.43"/><line class="f" x1="246.25" y1="370.94" x2="246.25" y2="252.41"/><line class="f" x1="246.25" y1="217.55" x2="246.25" y2="184.43"/><line class="f" x1="302.03" y1="430.21" x2="497.26" y2="430.21"/><line class="f" x1="302.03" y1="377.92" x2="302.03" y2="430.21"/><line class="f" x1="497.26" y1="430.21" x2="497.26" y2="377.91"/><line class="f" x1="253.23" y1="217.55" x2="253.23" y2="252.41"/><line class="f" x1="551.3" y1="245.44" x2="551.3" y2="245.44"/><line class="f" x1="551.3" y1="255.9" x2="551.3" y2="255.9"/><line class="f" x1="551.3" y1="266.36" x2="551.3" y2="266.36"/><line class="f" x1="551.3" y1="276.82" x2="551.3" y2="276.82"/><line class="f" x1="551.3" y1="287.27" x2="551.3" y2="287.27"/><line class="f" x1="551.3" y1="297.73" x2="551.3" y2="297.73"/><line class="f" x1="551.3" y1="308.19" x2="551.3" y2="308.19"/><line class="f" x1="551.3" y1="318.65" x2="551.3" y2="318.65"/><line class="f" x1="551.3" y1="329.11" x2="551.3" y2="329.11"/><line class="f" x1="450.2" y1="184.43" x2="542.58" y2="184.43"/><line class="f" x1="253.23" y1="192.8" x2="371.76" y2="192.8"/><line class="f" x1="411.85" y1="184.43" x2="413.59" y2="184.43"/><line class="f" x1="446.71" y1="188.44" x2="415.34" y2="188.44"/><line class="f" x1="446.71" y1="184.43" x2="415.34" y2="184.43"/><line class="f" x1="446.71" y1="188.44" x2="446.71" y2="219.82"/><g class="g"><path class="f" d="M446.71,219.82a31.37,31.37,0,0,1-31.37-31.38"/></g><line class="f" x1="446.71" y1="184.43" x2="446.71" y2="188.44"/><line class="f" x1="415.34" y1="188.44" x2="415.34" y2="184.43"/><line class="f" x1="415.34" y1="188.44" x2="413.59" y2="188.44"/><line class="f" x1="415.34" y1="184.43" x2="413.59" y2="184.43"/><line class="f" x1="448.46" y1="188.44" x2="446.71" y2="188.44"/><line class="f" x1="448.46" y1="184.43" x2="446.71" y2="184.43"/><line class="f" x1="411.85" y1="188.44" x2="411.85" y2="184.43"/><line class="f" x1="450.2" y1="188.44" x2="450.2" y2="184.43"/><line class="f" x1="413.59" y1="188.44" x2="413.59" y2="184.43"/><line class="f" x1="448.46" y1="188.44" x2="448.46" y2="184.43"/><line class="f" x1="448.46" y1="188.44" x2="450.2" y2="188.44"/><line class="f" x1="413.59" y1="188.44" x2="411.85" y2="188.44"/><line class="f" x1="450.2" y1="188.44" x2="450.2" y2="192.8"/><line class="f" x1="411.85" y1="188.44" x2="411.85" y2="192.8"/><line class="f" x1="371.76" y1="213.72" x2="389.19" y2="213.72"/><line class="f" x1="371.76" y1="213.72" x2="371.76" y2="192.8"/><line class="f" x1="542.58" y1="192.8" x2="542.58" y2="184.43"/><line class="f" x1="371.76" y1="192.8" x2="375.24" y2="192.8"/><line class="f" x1="389.19" y1="210.23" x2="389.19" y2="213.71"/><line class="f" x1="389.19" y1="363.97" x2="391.63" y2="363.97"/><line class="f" x1="542.58" y1="184.43" x2="551.3" y2="184.43"/><line class="f" x1="253.23" y1="184.43" x2="253.23" y2="192.8"/><line class="f" x1="375.25" y1="363.97" x2="389.19" y2="363.97"/><line class="f" x1="542.58" y1="363.97" x2="542.58" y2="370.94"/><line class="f" x1="307.26" y1="377.92" x2="307.26" y2="370.94"/><line class="f" x1="307.26" y1="370.94" x2="305.52" y2="370.94"/><line class="f" x1="373.5" y1="377.92" x2="373.5" y2="370.94"/><line class="f" x1="373.5" y1="370.94" x2="375.24" y2="370.94"/><line class="f" x1="340.38" y1="363.97" x2="340.38" y2="370.94"/><line class="f" x1="342.13" y1="370.94" x2="342.13" y2="377.92"/><line class="f" x1="307.26" y1="377.92" x2="342.13" y2="377.92"/><line class="f" x1="342.13" y1="377.92" x2="350.84" y2="377.92"/><line class="f" x1="355.9" y1="377.92" x2="356.94" y2="377.92"/><line class="f" x1="362" y1="377.92" x2="363.04" y2="377.92"/><line class="f" x1="364.79" y1="377.92" x2="373.5" y2="377.92"/><line class="f" x1="305.52" y1="363.97" x2="340.38" y2="363.97"/><line class="f" x1="340.38" y1="363.97" x2="375.25" y2="363.97"/><line class="f" x1="342.13" y1="374.43" x2="373.5" y2="374.43"/><line class="f" x1="340.38" y1="368.15" x2="340.38" y2="370.94"/><line class="f" x1="373.85" y1="367.46" x2="373.85" y2="335.38"/><line class="f" x1="425.8" y1="377.92" x2="425.8" y2="370.94"/><line class="f" x1="425.8" y1="370.94" x2="424.05" y2="370.94"/><line class="f" x1="492.03" y1="377.92" x2="492.03" y2="370.94"/><line class="f" x1="492.03" y1="370.94" x2="493.78" y2="370.94"/><line class="f" x1="493.78" y1="363.97" x2="458.91" y2="363.97"/><line class="f" x1="458.91" y1="363.97" x2="424.05" y2="363.97"/><line class="f" x1="246.25" y1="219.29" x2="239.28" y2="219.29"/><line class="f" x1="246.25" y1="219.29" x2="246.25" y2="217.55"/><line class="f" x1="246.25" y1="250.67" x2="239.28" y2="250.67"/><line class="f" x1="246.25" y1="250.67" x2="246.25" y2="252.41"/><line class="f" x1="343.17" y1="370.25" x2="343.17" y2="370.94"/><line class="f" x1="343.17" y1="370.94" x2="340.38" y2="370.94"/><line class="f" x1="340.38" y1="370.94" x2="340.38" y2="368.15"/><line class="f" x1="340.38" y1="368.15" x2="341.78" y2="368.15"/><line class="f" x1="341.78" y1="367.46" x2="344.57" y2="367.46"/><line class="f" x1="344.57" y1="367.46" x2="344.57" y2="370.25"/><line class="f" x1="344.57" y1="370.25" x2="341.78" y2="370.25"/><line class="f" x1="341.78" y1="370.25" x2="341.78" y2="367.46"/><line class="f" x1="372.46" y1="370.25" x2="372.46" y2="370.94"/><line class="f" x1="372.46" y1="370.94" x2="375.25" y2="370.94"/><line class="f" x1="375.25" y1="370.94" x2="375.25" y2="368.15"/><line class="f" x1="375.25" y1="368.15" x2="373.85" y2="368.15"/><line class="f" x1="373.85" y1="367.46" x2="371.06" y2="367.46"/><line class="f" x1="371.06" y1="367.46" x2="371.06" y2="370.25"/><line class="f" x1="371.06" y1="370.25" x2="373.85" y2="370.25"/><line class="f" x1="373.85" y1="370.25" x2="373.85" y2="367.46"/><line class="f" x1="344.57" y1="367.46" x2="371.06" y2="367.46"/><line class="f" x1="371.06" y1="370.25" x2="344.57" y2="370.25"/><line class="f" x1="344.57" y1="368.85" x2="371.06" y2="368.85"/><g class="g"><path class="f" d="M341.78,367.46a32.08,32.08,0,0,1,32.07-32.08"/></g><line class="f" x1="425.45" y1="367.46" x2="425.45" y2="335.38"/><line class="f" x1="456.13" y1="370.25" x2="456.13" y2="370.94"/><line class="f" x1="456.13" y1="370.94" x2="458.91" y2="370.94"/><line class="f" x1="458.91" y1="370.94" x2="458.91" y2="368.15"/><line class="f" x1="458.91" y1="368.15" x2="457.52" y2="368.15"/><line class="f" x1="457.52" y1="367.46" x2="454.73" y2="367.46"/><line class="f" x1="454.73" y1="367.46" x2="454.73" y2="370.25"/><line class="f" x1="454.73" y1="370.25" x2="457.52" y2="370.25"/><line class="f" x1="457.52" y1="370.25" x2="457.52" y2="367.46"/><line class="f" x1="426.84" y1="370.25" x2="426.84" y2="370.94"/><line class="f" x1="426.84" y1="370.94" x2="424.05" y2="370.94"/><line class="f" x1="424.05" y1="370.94" x2="424.05" y2="368.15"/><line class="f" x1="424.05" y1="368.15" x2="425.45" y2="368.15"/><line class="f" x1="425.45" y1="367.46" x2="428.24" y2="367.46"/><line class="f" x1="428.24" y1="367.46" x2="428.24" y2="370.25"/><line class="f" x1="428.24" y1="370.25" x2="425.45" y2="370.25"/><line class="f" x1="425.45" y1="370.25" x2="425.45" y2="367.46"/><line class="f" x1="454.73" y1="367.46" x2="428.24" y2="367.46"/><line class="f" x1="428.24" y1="370.25" x2="454.73" y2="370.25"/><line class="f" x1="454.73" y1="368.85" x2="428.24" y2="368.85"/><g class="g"><path class="f" d="M425.45,335.38a32.07,32.07,0,0,1,32.07,32.08"/></g><line class="f" x1="246.95" y1="220.34" x2="246.25" y2="220.34"/><line class="f" x1="246.25" y1="220.34" x2="246.25" y2="217.55"/><line class="f" x1="246.25" y1="217.55" x2="249.04" y2="217.55"/><line class="f" x1="249.04" y1="217.55" x2="249.04" y2="218.95"/><line class="f" x1="249.74" y1="218.94" x2="249.74" y2="221.73"/><line class="f" x1="249.74" y1="221.73" x2="246.95" y2="221.73"/><line class="f" x1="246.95" y1="221.73" x2="246.95" y2="218.94"/><line class="f" x1="246.95" y1="218.94" x2="249.74" y2="218.94"/><line class="f" x1="246.95" y1="249.62" x2="246.25" y2="249.62"/><line class="f" x1="246.25" y1="249.62" x2="246.25" y2="252.41"/><line class="f" x1="246.25" y1="252.41" x2="249.04" y2="252.41"/><line class="f" x1="249.04" y1="252.41" x2="249.04" y2="251.02"/><line class="f" x1="249.74" y1="251.02" x2="249.74" y2="248.23"/><line class="f" x1="249.74" y1="248.23" x2="246.95" y2="248.23"/><line class="f" x1="246.95" y1="248.23" x2="246.95" y2="251.02"/><line class="f" x1="246.95" y1="251.02" x2="249.74" y2="251.02"/><line class="f" x1="249.74" y1="221.73" x2="249.74" y2="248.23"/><line class="f" x1="246.95" y1="248.23" x2="246.95" y2="221.73"/><line class="f" x1="248.35" y1="221.73" x2="248.35" y2="248.23"/><line class="f" x1="448.46" y1="184.43" x2="450.2" y2="184.43"/><line class="f" x1="457.17" y1="370.94" x2="457.17" y2="377.92"/><line class="f" x1="492.03" y1="377.92" x2="457.17" y2="377.92"/><line class="f" x1="457.17" y1="377.92" x2="448.46" y2="377.92"/><line class="f" x1="443.4" y1="377.92" x2="442.35" y2="377.92"/><line class="f" x1="437.3" y1="377.92" x2="436.25" y2="377.92"/><line class="f" x1="434.51" y1="377.92" x2="425.8" y2="377.92"/><line class="f" x1="457.17" y1="374.43" x2="425.8" y2="374.43"/><line class="f" x1="490.99" y1="370.25" x2="490.99" y2="370.94"/><line class="f" x1="490.99" y1="370.94" x2="493.78" y2="370.94"/><line class="f" x1="493.78" y1="370.94" x2="493.78" y2="368.15"/><line class="f" x1="493.78" y1="368.15" x2="492.38" y2="368.15"/><line class="f" x1="492.38" y1="367.46" x2="489.59" y2="367.46"/><line class="f" x1="489.59" y1="367.46" x2="489.59" y2="370.25"/><line class="f" x1="489.59" y1="370.25" x2="492.38" y2="370.25"/><line class="f" x1="492.38" y1="370.25" x2="492.38" y2="367.46"/><line class="f" x1="461.7" y1="370.25" x2="461.7" y2="370.94"/><line class="f" x1="461.7" y1="370.94" x2="458.91" y2="370.94"/><line class="f" x1="458.91" y1="370.94" x2="458.91" y2="368.15"/><line class="f" x1="458.91" y1="368.15" x2="460.31" y2="368.15"/><line class="f" x1="460.31" y1="367.46" x2="463.1" y2="367.46"/><line class="f" x1="463.1" y1="367.46" x2="463.1" y2="370.25"/><line class="f" x1="463.1" y1="370.25" x2="460.31" y2="370.25"/><line class="f" x1="460.31" y1="370.25" x2="460.31" y2="367.46"/><line class="f" x1="489.59" y1="367.46" x2="463.1" y2="367.46"/><line class="f" x1="463.1" y1="370.25" x2="489.59" y2="370.25"/><line class="f" x1="489.59" y1="368.85" x2="463.1" y2="368.85"/><line class="f" x1="337.59" y1="370.25" x2="337.59" y2="370.94"/><line class="f" x1="337.59" y1="370.94" x2="340.38" y2="370.94"/><line class="f" x1="340.38" y1="370.94" x2="340.38" y2="368.15"/><line class="f" x1="340.38" y1="368.15" x2="338.99" y2="368.15"/><line class="f" x1="338.99" y1="367.46" x2="336.2" y2="367.46"/><line class="f" x1="336.2" y1="367.46" x2="336.2" y2="370.25"/><line class="f" x1="336.2" y1="370.25" x2="338.99" y2="370.25"/><line class="f" x1="338.99" y1="370.25" x2="338.99" y2="367.46"/><line class="f" x1="308.31" y1="370.25" x2="308.31" y2="370.94"/><line class="f" x1="308.31" y1="370.94" x2="305.52" y2="370.94"/><line class="f" x1="305.52" y1="370.94" x2="305.52" y2="368.15"/><line class="f" x1="305.52" y1="368.15" x2="306.92" y2="368.15"/><line class="f" x1="306.91" y1="367.46" x2="309.7" y2="367.46"/><line class="f" x1="309.7" y1="367.46" x2="309.7" y2="370.25"/><line class="f" x1="309.7" y1="370.25" x2="306.91" y2="370.25"/><line class="f" x1="306.91" y1="370.25" x2="306.91" y2="367.46"/><line class="f" x1="336.2" y1="367.46" x2="309.7" y2="367.46"/><line class="f" x1="309.7" y1="370.25" x2="336.2" y2="370.25"/><line class="f" x1="336.2" y1="368.85" x2="309.7" y2="368.85"/><line class="f" x1="511.21" y1="218.94" x2="542.58" y2="218.94"/><line class="f" x1="514.69" y1="215.46" x2="542.59" y2="215.46"/><line class="f" x1="511.21" y1="218.94" x2="511.21" y2="192.8"/><line class="f" x1="514.69" y1="215.46" x2="514.69" y2="192.8"/><line class="f" x1="542.58" y1="215.46" x2="542.58" y2="218.94"/><line class="f" x1="549.56" y1="191.4" x2="549.56" y2="377.92"/><line class="f" x1="551.3" y1="377.92" x2="551.3" y2="193.15"/><line class="f" x1="549.56" y1="191.4" x2="551.3" y2="191.4"/><line class="f" x1="551.3" y1="193.15" x2="551.3" y2="193.15"/><line class="f" x1="511.21" y1="192.8" x2="514.7" y2="192.8"/><line class="f" x1="391.63" y1="254.5" x2="415.34" y2="254.5"/><line class="f" x1="446.71" y1="254.5" x2="542.58" y2="254.5"/><line class="f" x1="391.63" y1="252.06" x2="415.34" y2="252.06"/><line class="f" x1="452.64" y1="252.06" x2="542.58" y2="252.06"/><line class="f" x1="391.63" y1="363.97" x2="391.63" y2="254.5"/><line class="f" x1="391.63" y1="252.06" x2="391.63" y2="248.58"/><line class="f" x1="391.63" y1="217.2" x2="391.63" y2="192.8"/><line class="f" x1="389.19" y1="363.97" x2="389.19" y2="248.58"/><line class="f" x1="389.19" y1="217.2" x2="389.19" y2="213.72"/><line class="f" x1="389.19" y1="248.58" x2="391.63" y2="248.58"/><line class="f" x1="415.34" y1="252.06" x2="415.34" y2="254.5"/><line class="f" x1="389.19" y1="217.2" x2="391.63" y2="217.2"/><line class="f" x1="452.64" y1="198.03" x2="511.21" y2="198.03"/><line class="f" x1="450.2" y1="252.06" x2="450.2" y2="248.58"/><line class="f" x1="450.2" y1="220.69" x2="450.2" y2="192.8"/><line class="f" x1="452.64" y1="252.06" x2="452.64" y2="248.58"/><line class="f" x1="452.64" y1="220.69" x2="452.64" y2="192.8"/><line class="f" x1="450.2" y1="248.58" x2="452.64" y2="248.58"/><line class="f" x1="450.2" y1="220.69" x2="452.64" y2="220.69"/><line class="f" x1="446.71" y1="252.06" x2="446.71" y2="254.5"/><line class="f" x1="450.2" y1="252.06" x2="446.71" y2="252.06"/><line class="f" x1="389.19" y1="218.94" x2="389.19" y2="246.83"/><line class="f" x1="389.19" y1="218.94" x2="361.3" y2="218.94"/><g class="g"><path class="f" d="M389.19,246.83a27.89,27.89,0,0,1-27.89-27.89"/></g><line class="f" x1="391.63" y1="218.94" x2="389.19" y2="218.94"/><line class="f" x1="389.19" y1="246.83" x2="391.63" y2="246.83"/><line class="f" x1="389.19" y1="246.83" x2="389.19" y2="248.58"/><line class="f" x1="391.63" y1="246.83" x2="391.63" y2="248.58"/><line class="f" x1="389.19" y1="217.2" x2="389.19" y2="218.94"/><line class="f" x1="391.63" y1="217.2" x2="391.63" y2="218.94"/><line class="f" x1="391.63" y1="218.94" x2="391.63" y2="225.92"/><line class="f" x1="391.63" y1="229.75" x2="391.63" y2="230.54"/><line class="f" x1="391.63" y1="234.37" x2="391.63" y2="235.16"/><line class="f" x1="391.63" y1="238.99" x2="391.63" y2="239.86"/><line class="f" x1="391.63" y1="239.86" x2="391.63" y2="246.83"/><line class="f" x1="389.19" y1="218.94" x2="388.32" y2="218.94"/><line class="f" x1="388.32" y1="218.94" x2="388.32" y2="215.46"/><line class="f" x1="388.32" y1="215.46" x2="389.19" y2="215.46"/><line class="f" x1="391.63" y1="218.94" x2="392.5" y2="218.94"/><line class="f" x1="392.5" y1="218.94" x2="392.5" y2="215.46"/><line class="f" x1="392.5" y1="215.46" x2="391.63" y2="215.46"/><line class="f" x1="388.32" y1="246.83" x2="388.32" y2="250.32"/><line class="f" x1="388.32" y1="250.32" x2="389.19" y2="250.32"/><line class="f" x1="391.63" y1="246.83" x2="392.5" y2="246.83"/><line class="f" x1="392.5" y1="246.83" x2="392.5" y2="250.32"/><line class="f" x1="392.5" y1="250.32" x2="391.63" y2="250.32"/><line class="f" x1="417.08" y1="254.5" x2="444.97" y2="254.5"/><line class="f" x1="417.08" y1="254.5" x2="417.08" y2="282.39"/><g class="g"><path class="f" d="M445,254.5a27.89,27.89,0,0,1-27.89,27.89"/></g><line class="f" x1="417.08" y1="252.06" x2="417.08" y2="254.5"/><line class="f" x1="444.97" y1="254.5" x2="444.97" y2="252.06"/><line class="f" x1="444.97" y1="254.5" x2="446.71" y2="254.5"/><line class="f" x1="444.97" y1="252.06" x2="446.71" y2="252.06"/><line class="f" x1="415.34" y1="254.5" x2="417.08" y2="254.5"/><line class="f" x1="415.34" y1="252.06" x2="417.08" y2="252.06"/><line class="f" x1="417.08" y1="252.06" x2="424.05" y2="252.06"/><line class="f" x1="427.89" y1="252.06" x2="428.67" y2="252.06"/><line class="f" x1="432.51" y1="252.06" x2="433.29" y2="252.06"/><line class="f" x1="437.13" y1="252.06" x2="438" y2="252.06"/><line class="f" x1="438" y1="252.06" x2="444.97" y2="252.06"/><line class="f" x1="417.08" y1="254.5" x2="417.08" y2="255.38"/><line class="f" x1="417.08" y1="255.38" x2="413.59" y2="255.38"/><line class="f" x1="413.59" y1="255.38" x2="413.59" y2="254.5"/><line class="f" x1="417.08" y1="252.06" x2="417.08" y2="251.19"/><line class="f" x1="417.08" y1="251.19" x2="413.59" y2="251.19"/><line class="f" x1="413.59" y1="251.19" x2="413.59" y2="252.06"/><line class="f" x1="444.97" y1="255.38" x2="448.45" y2="255.38"/><line class="f" x1="448.46" y1="255.38" x2="448.46" y2="254.5"/><line class="f" x1="444.97" y1="252.06" x2="444.97" y2="251.19"/><line class="f" x1="444.97" y1="251.19" x2="448.45" y2="251.19"/><line class="f" x1="448.46" y1="251.19" x2="448.46" y2="252.06"/><line class="f" x1="450.2" y1="222.43" x2="450.2" y2="246.83"/><line class="f" x1="450.2" y1="222.43" x2="425.8" y2="222.43"/><g class="g"><path class="f" d="M450.2,246.83a24.39,24.39,0,0,1-24.4-24.4"/></g><line class="f" x1="452.64" y1="222.43" x2="450.2" y2="222.43"/><line class="f" x1="450.2" y1="246.83" x2="452.64" y2="246.83"/><line class="f" x1="450.2" y1="246.83" x2="450.2" y2="248.58"/><line class="f" x1="452.64" y1="246.83" x2="452.64" y2="248.58"/><line class="f" x1="450.2" y1="220.69" x2="450.2" y2="222.43"/><line class="f" x1="452.64" y1="220.69" x2="452.64" y2="222.43"/><line class="f" x1="452.64" y1="222.43" x2="452.64" y2="229.4"/><line class="f" x1="452.64" y1="233.24" x2="452.64" y2="234.02"/><line class="f" x1="452.64" y1="237.86" x2="452.64" y2="238.64"/><line class="f" x1="452.64" y1="239.86" x2="452.64" y2="246.83"/><line class="f" x1="450.2" y1="222.43" x2="449.33" y2="222.43"/><line class="f" x1="449.33" y1="222.43" x2="449.33" y2="218.95"/><line class="f" x1="449.33" y1="218.94" x2="450.2" y2="218.94"/><line class="f" x1="452.64" y1="222.43" x2="453.51" y2="222.43"/><line class="f" x1="453.51" y1="222.43" x2="453.51" y2="218.95"/><line class="f" x1="453.51" y1="218.94" x2="452.64" y2="218.94"/><line class="f" x1="449.33" y1="246.83" x2="449.33" y2="250.32"/><line class="f" x1="449.33" y1="250.32" x2="450.2" y2="250.32"/><line class="f" x1="452.64" y1="246.83" x2="453.51" y2="246.83"/><line class="f" x1="453.51" y1="246.83" x2="453.51" y2="250.32"/><line class="f" x1="453.51" y1="250.32" x2="452.64" y2="250.32"/><line class="f" x1="542.58" y1="363.97" x2="542.58" y2="254.5"/><line class="f" x1="542.58" y1="254.5" x2="542.58" y2="252.06"/><line class="f" x1="450.2" y1="192.8" x2="452.64" y2="192.8"/><line class="f" x1="452.64" y1="192.8" x2="511.21" y2="192.8"/><line class="f" x1="389.19" y1="192.8" x2="391.63" y2="192.8"/><line class="f" x1="391.63" y1="192.8" x2="411.85" y2="192.8"/><line class="f" x1="403.48" y1="184.43" x2="403.48" y2="184.43"/><line class="f" x1="551.3" y1="234.98" x2="551.3" y2="234.98"/><line class="f" x1="551.3" y1="339.57" x2="551.3" y2="339.57"/><line class="f" x1="389.19" y1="213.72" x2="389.19" y2="210.23"/><line class="f" x1="350.49" y1="214" x2="350.49" y2="193.08"/><line class="f" x1="358.49" y1="201.08" x2="363.42" y2="206.01"/><line class="f" x1="363.42" y1="201.08" x2="358.49" y2="206.01"/><line class="f" x1="360.95" y1="207.03" x2="360.95" y2="200.06"/><line class="f" x1="357.47" y1="203.54" x2="364.44" y2="203.54"/><line class="f" x1="350.49" y1="214" x2="371.41" y2="214"/><line class="f" x1="330.45" y1="212.26" x2="349.62" y2="212.26"/><line class="f" x1="349.62" y1="212.26" x2="349.62" y2="194.83"/><line class="f" x1="349.62" y1="194.83" x2="330.45" y2="194.83"/><line class="f" x1="330.45" y1="194.83" x2="330.45" y2="212.26"/><line class="f" x1="329.58" y1="214" x2="350.49" y2="214"/><line class="f" x1="332.19" y1="210.51" x2="347.88" y2="210.51"/><line class="f" x1="347.88" y1="210.51" x2="347.88" y2="198.31"/><line class="f" x1="347.88" y1="198.31" x2="332.19" y2="198.31"/><line class="f" x1="332.19" y1="198.31" x2="332.19" y2="210.51"/><line class="f" x1="308.66" y1="193.08" x2="308.66" y2="214"/><line class="f" x1="308.66" y1="214" x2="287.74" y2="214"/><line class="f" x1="287.74" y1="214" x2="287.74" y2="193.08"/><line class="f" x1="287.74" y1="193.08" x2="287.74" y2="214"/><line class="f" x1="287.74" y1="214" x2="266.82" y2="214"/><line class="f" x1="266.82" y1="214" x2="266.82" y2="193.08"/><line class="f" x1="269.68" y1="214.95" x2="284.89" y2="214.95"/><line class="f" x1="471.47" y1="251.13" x2="471.47" y2="247.64"/><line class="f" x1="471.47" y1="247.64" x2="492.38" y2="247.64"/><line class="f" x1="492.38" y1="247.64" x2="492.38" y2="251.13"/><line class="f" x1="492.38" y1="251.13" x2="491.34" y2="251.13"/><line class="f" x1="491.34" y1="251.13" x2="491.34" y2="248.69"/><line class="f" x1="491.34" y1="248.69" x2="472.51" y2="248.69"/><line class="f" x1="472.51" y1="248.69" x2="472.51" y2="251.13"/><line class="f" x1="472.51" y1="251.13" x2="471.46" y2="251.13"/><line class="f" x1="471.47" y1="251.13" x2="471.47" y2="247.64"/><line class="f" x1="492.38" y1="251.13" x2="492.38" y2="247.64"/><line class="f" x1="472.51" y1="251.13" x2="472.51" y2="248.69"/><line class="f" x1="491.34" y1="251.13" x2="491.34" y2="248.69"/><line class="f" x1="471.47" y1="247.64" x2="492.38" y2="247.64"/><line class="f" x1="471.47" y1="248.69" x2="492.38" y2="248.69"/><line class="f" x1="471.47" y1="251.13" x2="472.51" y2="251.13"/><line class="f" x1="491.34" y1="251.13" x2="492.38" y2="251.13"/><line class="f" x1="380.18" y1="308.44" x2="380.18" y2="340.24"/><line class="f" x1="380.18" y1="340.24" x2="382.32" y2="340.24"/><line class="f" x1="382.32" y1="340.24" x2="384.46" y2="332.29"/><line class="f" x1="384.46" y1="332.29" x2="384.46" y2="316.39"/><line class="f" x1="384.46" y1="316.39" x2="382.32" y2="308.44"/><line class="f" x1="382.32" y1="308.44" x2="380.18" y2="308.44"/><line class="f" x1="381.04" y1="338.12" x2="381.04" y2="336"/><line class="f" x1="381.04" y1="336" x2="381.57" y2="336"/><line class="f" x1="381.57" y1="336" x2="381.57" y2="338.12"/><line class="f" x1="381.57" y1="338.12" x2="381.04" y2="338.12"/><line class="f" x1="381.04" y1="335.47" x2="381.04" y2="333.35"/><line class="f" x1="381.04" y1="333.35" x2="381.57" y2="333.35"/><line class="f" x1="381.57" y1="333.35" x2="381.57" y2="335.47"/><line class="f" x1="381.57" y1="335.47" x2="381.04" y2="335.47"/><line class="f" x1="381.04" y1="332.82" x2="381.04" y2="331.76"/><line class="f" x1="381.04" y1="331.76" x2="381.57" y2="331.76"/><line class="f" x1="381.57" y1="331.76" x2="381.57" y2="332.82"/><line class="f" x1="381.57" y1="332.82" x2="381.04" y2="332.82"/><line class="f" x1="382.32" y1="308.44" x2="382.32" y2="340.24"/><line class="f" x1="308.66" y1="214" x2="308.66" y2="192.8"/><line class="f" x1="308.66" y1="192.8" x2="329.58" y2="192.8"/><line class="f" x1="329.58" y1="192.8" x2="329.58" y2="214"/><line class="f" x1="329.58" y1="214" x2="308.66" y2="214"/><line class="f" x1="254.97" y1="257.58" x2="254.97" y2="222.71"/><line class="f" x1="254.97" y1="222.72" x2="258.46" y2="222.72"/><line class="f" x1="258.46" y1="222.72" x2="258.46" y2="257.58"/><line class="f" x1="258.46" y1="257.58" x2="254.97" y2="257.58"/><line class="f" x1="500.75" y1="362.17" x2="465.89" y2="362.17"/><line class="f" x1="465.89" y1="362.17" x2="465.89" y2="359.97"/><line class="f" x1="465.89" y1="359.97" x2="500.75" y2="359.97"/><line class="f" x1="500.75" y1="359.97" x2="500.75" y2="362.17"/><line class="f" x1="336.9" y1="362.17" x2="309.01" y2="362.17"/><line class="f" x1="309.01" y1="362.17" x2="309.01" y2="358.68"/><line class="f" x1="309.01" y1="358.68" x2="336.9" y2="358.68"/><line class="f" x1="336.9" y1="358.68" x2="336.9" y2="362.17"/><g class="g"><path class="f" d="M340.73,201.8a.7.7,0,1,0-.7.69.7.7,0,0,0,.7-.69"/><path class="f" d="M325.22,203.54a6.1,6.1,0,1,0-6.1,6.1,6.1,6.1,0,0,0,6.1-6.1"/><path class="f" d="M324.17,203.54a5.06,5.06,0,1,0-5.05,5.06,5,5,0,0,0,5.05-5.06"/><path class="f" d="M285.84,198.41a3.43,3.43,0,1,0-3.42,3.42,3.43,3.43,0,0,0,3.42-3.42"/><path class="f" d="M285.84,208.67a3.43,3.43,0,1,0-3.42,3.43,3.42,3.42,0,0,0,3.42-3.43"/><path class="f" d="M275.57,208.67a3.42,3.42,0,1,0-3.42,3.43,3.42,3.42,0,0,0,3.42-3.43"/><path class="f" d="M384.07,330.7a6.36,6.36,0,0,1,0-12.72"/><path class="f" d="M384.07,318a12.75,12.75,0,0,1,0,12.72"/><path class="f" d="M258.46,219.23a1.75,1.75,0,1,0-1.75,1.74,1.74,1.74,0,0,0,1.75-1.74"/><path class="f" d="M464.14,361.07a1.74,1.74,0,1,0-1.74,1.74,1.74,1.74,0,0,0,1.74-1.74"/><path class="f" d="M307.26,360.42a1.74,1.74,0,1,0-1.74,1.75,1.74,1.74,0,0,0,1.74-1.75"/></g><line class="f" x1="389.19" y1="213.72" x2="378.73" y2="213.72"/><g class="g"><path class="f" d="M537.36,225.05a.88.88,0,1,0-.88.87.87.87,0,0,0,.88-.87"/></g><line class="f" x1="512.08" y1="225.05" x2="512.08" y2="245.96"/><line class="f" x1="515.57" y1="249.45" x2="536.48" y2="249.45"/><line class="f" x1="539.97" y1="245.96" x2="539.97" y2="225.05"/><line class="f" x1="536.48" y1="221.56" x2="515.57" y2="221.56"/><g class="g"><path class="f" d="M512.08,225.05a3.49,3.49,0,0,1,3.49-3.49"/><path class="f" d="M515.57,249.45a3.49,3.49,0,0,1-3.49-3.49"/><path class="f" d="M536.48,221.56A3.48,3.48,0,0,1,540,225"/><path class="f" d="M540,246a3.49,3.49,0,0,1-3.49,3.49"/></g><rect class="d" x="293.32" y="294.25" width="17.43" height="27.89"/><line class="f" x1="293.32" y1="294.25" x2="293.32" y2="322.14"/><line class="f" x1="310.75" y1="294.25" x2="293.32" y2="294.25"/><line class="f" x1="310.75" y1="322.14" x2="310.75" y2="294.25"/><line class="f" x1="293.32" y1="322.14" x2="310.75" y2="322.14"/><rect class="d" x="471.46" y="248.69" width="1.04" height="2.44"/><line class="f" x1="472.51" y1="248.69" x2="471.46" y2="248.69"/><line class="f" x1="472.51" y1="251.13" x2="472.51" y2="248.69"/><line class="f" x1="471.47" y1="251.13" x2="472.51" y2="251.13"/><line class="f" x1="471.47" y1="248.69" x2="471.47" y2="251.13"/><rect class="d" x="471.46" y="247.64" width="20.92" height="1.05"/><line class="f" x1="471.47" y1="247.64" x2="471.47" y2="248.69"/><line class="f" x1="492.38" y1="247.64" x2="471.46" y2="247.64"/><line class="f" x1="492.38" y1="248.69" x2="492.38" y2="247.64"/><line class="f" x1="471.47" y1="248.69" x2="492.38" y2="248.69"/><rect class="d" x="491.34" y="248.69" width="1.04" height="2.44"/><line class="f" x1="492.38" y1="248.69" x2="491.34" y2="248.69"/><line class="f" x1="492.38" y1="251.13" x2="492.38" y2="248.69"/><line class="f" x1="491.34" y1="251.13" x2="492.38" y2="251.13"/><line class="f" x1="491.34" y1="248.69" x2="491.34" y2="251.13"/><rect class="d" x="452.64" y="192.8" width="58.57" height="5.23"/><line class="f" x1="452.64" y1="192.8" x2="511.21" y2="192.8"/><line class="f" x1="511.21" y1="192.8" x2="511.21" y2="198.03"/><line class="f" x1="511.21" y1="198.03" x2="452.64" y2="198.03"/><line class="f" x1="452.64" y1="198.03" x2="452.64" y2="192.8"/><polygon class="h" points="258.46 219.23 257.95 220.46 256.71 220.97 255.48 220.46 254.97 219.23 255.48 218 256.71 217.49 257.95 218 258.46 219.23"/><g class="g"><path class="f" d="M258.46,219.23a1.75,1.75,0,0,1-3.49,0"/><path class="f" d="M255,219.23a1.75,1.75,0,0,1,3.49,0"/></g><rect class="d" x="254.97" y="222.71" width="3.49" height="34.86"/><line class="f" x1="254.97" y1="257.58" x2="258.46" y2="257.58"/><line class="f" x1="254.97" y1="222.72" x2="254.97" y2="257.58"/><line class="f" x1="258.46" y1="222.72" x2="254.97" y2="222.72"/><line class="f" x1="258.46" y1="257.58" x2="258.46" y2="222.71"/><polygon class="h" points="303.78 360.42 304.29 359.19 305.52 358.68 306.75 359.19 307.26 360.42 306.75 361.65 305.52 362.17 304.29 361.65 303.78 360.42"/><g class="g"><path class="f" d="M303.78,360.42a1.74,1.74,0,0,1,3.48,0"/><path class="f" d="M307.26,360.42a1.74,1.74,0,1,1-3.48,0"/></g><rect class="d" x="309.01" y="358.68" width="27.89" height="3.49"/><line class="f" x1="309.01" y1="358.68" x2="309.01" y2="362.17"/><line class="f" x1="336.9" y1="358.68" x2="309.01" y2="358.68"/><line class="f" x1="336.9" y1="362.17" x2="336.9" y2="358.68"/><line class="f" x1="309.01" y1="362.17" x2="336.9" y2="362.17"/><polygon class="h" points="464.14 361.07 463.63 362.3 462.4 362.81 461.17 362.3 460.66 361.07 461.17 359.83 462.4 359.32 463.63 359.83 464.14 361.07"/><g class="g"><path class="f" d="M464.14,361.07a1.74,1.74,0,0,1-3.48,0"/><path class="f" d="M460.66,361.07a1.74,1.74,0,1,1,3.48,0"/></g><rect class="d" x="465.89" y="359.97" width="34.86" height="2.2"/><line class="f" x1="500.75" y1="362.17" x2="500.75" y2="359.97"/><line class="f" x1="465.89" y1="362.17" x2="500.75" y2="362.17"/><line class="f" x1="465.89" y1="359.97" x2="465.89" y2="362.17"/><line class="f" x1="500.75" y1="359.97" x2="465.89" y2="359.97"/><line class="f" x1="280.77" y1="184.43" x2="280.77" y2="184.43"/><line class="f" x1="280.77" y1="184.43" x2="343.52" y2="184.43"/><line class="f" x1="343.52" y1="184.43" x2="343.52" y2="184.43"/><line class="f" x1="280.77" y1="184.43" x2="268.57" y2="184.43"/><line class="f" x1="268.57" y1="184.43" x2="268.57" y2="184.43"/><line class="f" x1="280.77" y1="184.43" x2="280.77" y2="184.43"/><line class="f" x1="355.72" y1="184.43" x2="343.52" y2="184.43"/><line class="f" x1="343.52" y1="184.43" x2="343.52" y2="184.43"/><line class="f" x1="355.72" y1="184.43" x2="355.72" y2="184.43"/><polygon class="h" points="542.24 341.14 542.24 278.38 531.82 278.38 479.74 278.38 477.08 278.91 474.82 280.43 473.32 282.69 472.79 285.36 472.79 334.16 473.32 336.83 474.82 339.09 477.08 340.61 479.74 341.14 542.24 341.14"/><rect class="d" x="531.82" y="341.14" width="10.42" height="12.2"/><rect class="d" x="531.82" y="266.18" width="10.42" height="12.2"/><line class="f" x1="530.69" y1="307.79" x2="533.69" y2="306.95"/><line class="f" x1="530.69" y1="337.06" x2="533.69" y2="336.22"/><line class="f" x1="472.79" y1="285.36" x2="472.79" y2="334.16"/><line class="f" x1="479.73" y1="341.14" x2="542.23" y2="341.14"/><line class="f" x1="542.24" y1="341.14" x2="542.24" y2="278.38"/><line class="f" x1="542.24" y1="278.38" x2="479.74" y2="278.38"/><line class="f" x1="542.24" y1="341.14" x2="542.24" y2="353.34"/><line class="f" x1="542.24" y1="353.34" x2="531.82" y2="353.34"/><line class="f" x1="531.82" y1="353.34" x2="531.82" y2="341.14"/><line class="f" x1="531.82" y1="341.14" x2="542.24" y2="341.14"/><line class="f" x1="542.24" y1="266.18" x2="542.24" y2="278.38"/><line class="f" x1="542.24" y1="278.38" x2="531.82" y2="278.38"/><line class="f" x1="531.82" y1="278.38" x2="531.82" y2="266.18"/><line class="f" x1="531.82" y1="266.18" x2="542.24" y2="266.18"/><line class="f" x1="519.13" y1="341.14" x2="519.13" y2="278.38"/><line class="f" x1="513.92" y1="341.14" x2="513.92" y2="278.38"/><g class="g"><path class="f" d="M524.4,312.41a98.25,98.25,0,0,1,.34,22.72"/><path class="f" d="M526.65,337.39h-.1a1.86,1.86,0,0,1-1.85-1.87,1.75,1.75,0,0,1,0-.4"/><path class="f" d="M530.69,337.06a14.49,14.49,0,0,1-3.21.36c-.28,0-.56,0-.83,0"/><path class="f" d="M538.44,337.26c-.83,0-1.67.06-2.51.06-1.75,0-3.5-.09-5.24-.26"/><path class="f" d="M538.94,336.79a.28.28,0,0,1,0,.09.4.4,0,0,1-.39.4l-.12,0"/><path class="f" d="M538.94,336.8q-.57-7.49-.57-15c0-3.15.08-6.31.23-9.46"/><path class="f" d="M537.35,311.21a1.06,1.06,0,0,1,.31,0,1,1,0,0,1,1,1,.65.65,0,0,1,0,.2"/><path class="f" d="M537.35,311.21a46.75,46.75,0,0,1-12,.18"/><path class="f" d="M524.39,312.41a1,1,0,0,1,0-.25.8.8,0,0,1,.8-.8.83.83,0,0,1,.22,0"/><path class="f" d="M479.73,341.14h0a7,7,0,0,1-6.94-7"/><path class="f" d="M472.79,285.36h0a7,7,0,0,1,6.94-7"/><path class="f" d="M524.39,283.13a97.69,97.69,0,0,1,.35,22.73"/><path class="f" d="M526.65,308.12h-.09a1.86,1.86,0,0,1-1.86-1.87,1.72,1.72,0,0,1,0-.39"/><path class="f" d="M530.69,307.79a15.12,15.12,0,0,1-3.22.35c-.27,0-.55,0-.82,0"/><path class="f" d="M538.44,308c-.84,0-1.67.06-2.51.06-1.75,0-3.5-.08-5.24-.25"/><path class="f" d="M538.94,307.52a.25.25,0,0,1,0,.08.39.39,0,0,1-.39.4h-.12"/><path class="f" d="M538.94,307.52q-.57-7.49-.57-15,0-4.74.23-9.47"/><path class="f" d="M537.35,281.93a1.06,1.06,0,0,1,.31,0,1,1,0,0,1,1,1,.71.71,0,0,1,0,.2"/><path class="f" d="M537.35,281.94a46.75,46.75,0,0,1-12,.18"/><path class="f" d="M524.4,283.13a.64.64,0,0,1,0-.24.8.8,0,0,1,.8-.8.83.83,0,0,1,.22,0"/></g><polygon class="h" points="332.64 246.16 336.25 246.63 339.62 248.02 342.51 250.23 344.72 253.12 348.63 246.36 349.11 244.62 348.64 242.88 347.36 241.6 341.32 238.13 339.58 237.66 337.83 238.13 336.55 239.41 332.64 246.16"/><polygon class="h" points="320.52 267.09 319.13 263.73 318.66 260.12 319.14 256.52 320.54 253.15 312.73 253.16 310.99 253.63 309.71 254.91 309.24 256.65 309.23 263.62 309.69 265.36 310.97 266.64 312.71 267.1 320.52 267.09"/><polygon class="h" points="344.7 267.05 342.48 269.94 339.58 272.16 336.21 273.56 332.6 274.04 336.49 280.78 337.76 282.06 339.51 282.52 341.26 282.05 347.31 278.56 348.59 277.28 349.06 275.54 348.59 273.79 344.7 267.05"/><polygon class="h" points="344.72 253.12 342.51 250.23 339.62 248.02 336.25 246.63 332.64 246.16 329.02 246.65 325.66 248.04 322.76 250.26 320.54 253.15 319.14 256.52 318.66 260.12 319.13 263.73 320.52 267.09 322.73 269.97 325.62 272.18 328.99 273.57 332.6 274.04 336.21 273.56 339.58 272.16 342.48 269.94 344.7 267.05 346.1 263.69 346.58 260.08 346.11 256.48 344.72 253.12"/><line class="f" x1="346.11" y1="256.48" x2="344.72" y2="253.12"/><line class="f" x1="346.58" y1="260.08" x2="346.11" y2="256.48"/><line class="f" x1="346.1" y1="263.69" x2="346.58" y2="260.08"/><line class="f" x1="344.7" y1="267.05" x2="346.1" y2="263.69"/><line class="f" x1="342.48" y1="269.94" x2="344.7" y2="267.05"/><line class="f" x1="339.58" y1="272.16" x2="342.48" y2="269.94"/><line class="f" x1="336.21" y1="273.56" x2="339.58" y2="272.16"/><line class="f" x1="332.6" y1="274.04" x2="336.21" y2="273.56"/><line class="f" x1="328.99" y1="273.57" x2="332.6" y2="274.04"/><line class="f" x1="325.62" y1="272.18" x2="328.99" y2="273.57"/><line class="f" x1="322.73" y1="269.97" x2="325.62" y2="272.18"/><line class="f" x1="320.52" y1="267.09" x2="322.73" y2="269.97"/><line class="f" x1="319.13" y1="263.73" x2="320.52" y2="267.09"/><line class="f" x1="318.66" y1="260.12" x2="319.13" y2="263.73"/><line class="f" x1="319.14" y1="256.52" x2="318.66" y2="260.12"/><line class="f" x1="320.54" y1="253.15" x2="319.14" y2="256.52"/><line class="f" x1="322.76" y1="250.26" x2="320.54" y2="253.15"/><line class="f" x1="325.66" y1="248.04" x2="322.76" y2="250.26"/><line class="f" x1="329.02" y1="246.65" x2="325.66" y2="248.04"/><line class="f" x1="332.64" y1="246.16" x2="329.02" y2="246.65"/><line class="f" x1="336.26" y1="246.63" x2="332.64" y2="246.16"/><line class="f" x1="339.62" y1="248.02" x2="336.26" y2="246.63"/><line class="f" x1="342.51" y1="250.23" x2="339.62" y2="248.02"/><line class="f" x1="344.72" y1="253.12" x2="342.51" y2="250.23"/><g class="g"><path class="f" d="M339.58,272.16a13.92,13.92,0,1,1-13.92-24.11"/><path class="f" d="M325.66,248.05a13.92,13.92,0,1,1,13.92,24.11"/></g><line class="f" x1="340.45" y1="239.64" x2="346.49" y2="243.12"/><line class="f" x1="348.63" y1="246.36" x2="344.72" y2="253.12"/><line class="f" x1="341.32" y1="238.13" x2="347.36" y2="241.61"/><line class="f" x1="332.64" y1="246.16" x2="336.55" y2="239.41"/><line class="f" x1="310.97" y1="263.62" x2="310.98" y2="256.65"/><line class="f" x1="312.73" y1="253.16" x2="320.54" y2="253.15"/><line class="f" x1="309.23" y1="263.62" x2="309.24" y2="256.65"/><line class="f" x1="320.52" y1="267.09" x2="312.71" y2="267.1"/><line class="f" x1="346.44" y1="277.05" x2="340.39" y2="280.54"/><line class="f" x1="336.49" y1="280.78" x2="332.6" y2="274.04"/><line class="f" x1="347.31" y1="278.56" x2="341.26" y2="282.05"/><line class="f" x1="344.7" y1="267.05" x2="348.59" y2="273.79"/><g class="g"><path class="f" d="M346.49,243.11a1.87,1.87,0,0,1,.64.64,1.74,1.74,0,0,1,0,1.74"/><path class="f" d="M338.07,240.28a1.68,1.68,0,0,1,.63-.64,1.76,1.76,0,0,1,1.75,0"/><path class="f" d="M347.36,241.6a3.57,3.57,0,0,1,1.28,1.28,3.46,3.46,0,0,1,0,3.48"/><path class="f" d="M336.55,239.41a3.57,3.57,0,0,1,1.28-1.28,3.51,3.51,0,0,1,3.49,0"/><path class="f" d="M311,256.65a1.75,1.75,0,0,1,1.75-1.74"/><path class="f" d="M312.72,265.36a1.73,1.73,0,0,1-1.51-.87,1.65,1.65,0,0,1-.24-.87"/><path class="f" d="M309.24,256.66a3.48,3.48,0,0,1,3.49-3.49"/><path class="f" d="M312.71,267.1a3.5,3.5,0,0,1-3-1.74,3.54,3.54,0,0,1-.46-1.74"/><path class="f" d="M340.39,280.54h0a1.74,1.74,0,0,1-2.39-.63"/><path class="f" d="M347.08,274.67a1.75,1.75,0,0,1-.64,2.38"/><path class="f" d="M341.26,282.05a3.49,3.49,0,0,1-4.77-1.27"/><path class="f" d="M348.59,273.8a3.49,3.49,0,0,1-1.28,4.76"/></g><polygon class="h" points="285.65 329.05 286.15 328.67 286.35 328.06 286.35 290.06 286.15 289.44 285.65 289.02 286.14 288.81 286.35 288.32 286.35 287.27 285.88 285.53 284.6 284.25 282.86 283.79 257.41 283.79 256.92 283.99 256.71 284.49 256.71 356.3 256.92 356.8 257.41 357 285.65 357 286.11 356.84 286.38 356.44 286.35 355.95 286.35 330.15 286.29 329.42 285.65 329.05"/><polygon class="h" points="309.01 329.11 311.68 329.64 313.94 331.15 315.45 333.41 315.98 336.08 315.98 350.03 315.45 352.7 313.94 354.96 311.68 356.47 309.01 357 287.39 357 286.65 356.69 286.35 355.95 286.35 330.15 286.65 329.42 287.39 329.11 309.01 329.11"/><g class="g"><path class="f" d="M309,329.11a7,7,0,0,1,7,7"/></g><line class="f" x1="315.98" y1="336.08" x2="315.98" y2="350.03"/><g class="g"><path class="f" d="M316,350a7,7,0,0,1-7,7"/></g><line class="f" x1="309.01" y1="357" x2="287.39" y2="357"/><g class="g"><path class="f" d="M287.39,357a1,1,0,0,1-1-1.05"/></g><line class="f" x1="286.35" y1="355.95" x2="286.35" y2="330.15"/><g class="g"><path class="f" d="M286.35,330.15a1,1,0,0,1,1-1"/></g><line class="f" x1="287.39" y1="329.11" x2="309.01" y2="329.11"/><line class="f" x1="286.35" y1="288.32" x2="286.35" y2="287.27"/><line class="f" x1="282.86" y1="283.79" x2="257.41" y2="283.79"/><line class="f" x1="256.71" y1="284.48" x2="256.71" y2="288.32"/><line class="f" x1="257.41" y1="289.02" x2="285.65" y2="289.02"/><line class="f" x1="256.71" y1="288.32" x2="256.71" y2="329.11"/><line class="f" x1="256.71" y1="329.11" x2="259.15" y2="329.11"/><line class="f" x1="286.35" y1="328.06" x2="286.35" y2="290.06"/><line class="f" x1="285.3" y1="289.02" x2="267.82" y2="289.02"/><line class="f" x1="267.82" y1="329.11" x2="285.3" y2="329.11"/><line class="f" x1="259.15" y1="289.02" x2="265.73" y2="289.02"/><line class="f" x1="265.73" y1="329.11" x2="259.15" y2="329.11"/><line class="f" x1="286.35" y1="352.47" x2="286.35" y2="356.3"/><line class="f" x1="285.65" y1="357" x2="257.41" y2="357"/><line class="f" x1="256.71" y1="356.3" x2="256.71" y2="352.47"/><line class="f" x1="256.71" y1="352.47" x2="256.71" y2="329.11"/><line class="f" x1="256.71" y1="329.11" x2="259.15" y2="329.11"/><line class="f" x1="286.35" y1="330.15" x2="286.35" y2="350.72"/><line class="f" x1="267.82" y1="329.11" x2="285.3" y2="329.11"/><line class="f" x1="267.82" y1="329.11" x2="259.15" y2="329.11"/><line class="f" x1="315.98" y1="336.08" x2="315.98" y2="350.03"/><line class="f" x1="309.01" y1="357" x2="287.39" y2="357"/><line class="f" x1="286.35" y1="355.95" x2="286.35" y2="330.15"/><line class="f" x1="287.39" y1="329.11" x2="309.01" y2="329.11"/><line class="f" x1="258.11" y1="330.15" x2="258.11" y2="355.95"/><line class="f" x1="258.11" y1="328.06" x2="258.11" y2="290.06"/><g class="g"><path class="f" d="M256.71,284.48a.69.69,0,0,1,.7-.69"/><path class="f" d="M257.41,289a.7.7,0,0,1-.7-.7"/><path class="f" d="M286.35,288.32a.7.7,0,0,1-.7.7"/><path class="f" d="M285.3,289a1,1,0,0,1,1.05,1"/><path class="f" d="M286.35,328.06a1,1,0,0,1-1.05,1.05"/><path class="f" d="M286.35,356.3a.7.7,0,0,1-.7.7"/><path class="f" d="M257.41,357a.7.7,0,0,1-.7-.7"/><path class="f" d="M285.3,329.11a1,1,0,0,1,1.05,1"/><path class="f" d="M287.39,357a1,1,0,0,1-1-1.05"/><path class="f" d="M286.35,330.15a1,1,0,0,1,1-1"/></g><line class="f" x1="258.11" y1="355.95" x2="281.86" y2="355.95"/><g class="g"><path class="f" d="M277.06,354.69a19.77,19.77,0,0,1-15.61-19.32,19.44,19.44,0,0,1,.72-5.25"/><path class="f" d="M263,290.06a119.51,119.51,0,0,1,0,38"/><path class="f" d="M309,329.11a7,7,0,0,1,7,7"/><path class="f" d="M316,350a7,7,0,0,1-7,7"/><path class="f" d="M282.86,283.79a3.48,3.48,0,0,1,3.49,3.48"/></g><line class="f" x1="403.48" y1="184.43" x2="403.48" y2="184.43"/><line class="f" x1="382.57" y1="184.43" x2="382.57" y2="184.43"/><line class="f" x1="382.57" y1="184.43" x2="403.48" y2="184.43"/><rect class="d" x="391.63" y="254.5" width="20.92" height="55.26"/><line class="f" x1="391.63" y1="309.76" x2="391.63" y2="254.5"/><line class="f" x1="391.63" y1="254.5" x2="412.55" y2="254.5"/><line class="f" x1="412.55" y1="254.5" x2="412.55" y2="309.76"/><line class="f" x1="412.55" y1="309.76" x2="391.63" y2="309.76"/><line class="f" x1="402.09" y1="307" x2="402.09" y2="257.27"/><line class="f" x1="395.94" y1="304.43" x2="408.47" y2="299.76"/><line class="f" x1="395.31" y1="299.17" x2="406.97" y2="297.23"/><line class="f" x1="409.63" y1="291.97" x2="396.84" y2="290.38"/><line class="f" x1="407.95" y1="283.82" x2="396.83" y2="285.97"/><line class="f" x1="408.59" y1="280.85" x2="394.89" y2="280.85"/><line class="f" x1="408.65" y1="272.45" x2="395.12" y2="274.44"/><line class="f" x1="408.42" y1="269.31" x2="396.06" y2="269.31"/><line class="f" x1="408.55" y1="261.02" x2="395.87" y2="259.43"/><line class="f" x1="407.69" y1="263.01" x2="396.97" y2="264.63"/><rect class="d" x="391.63" y="309.76" width="20.92" height="54.21"/><line class="f" x1="391.63" y1="363.97" x2="391.63" y2="309.76"/><line class="f" x1="391.63" y1="309.76" x2="412.55" y2="309.76"/><line class="f" x1="412.55" y1="309.76" x2="412.55" y2="363.97"/><line class="f" x1="412.55" y1="363.97" x2="391.63" y2="363.97"/><line class="f" x1="402.09" y1="361.26" x2="402.09" y2="312.47"/><line class="f" x1="395.94" y1="358.74" x2="408.47" y2="354.16"/><line class="f" x1="395.31" y1="353.58" x2="406.97" y2="351.68"/><line class="f" x1="409.63" y1="346.52" x2="396.84" y2="344.96"/><line class="f" x1="407.95" y1="338.52" x2="396.83" y2="340.64"/><line class="f" x1="408.59" y1="335.61" x2="394.89" y2="335.61"/><line class="f" x1="408.65" y1="327.37" x2="395.12" y2="329.33"/><line class="f" x1="408.42" y1="324.28" x2="396.06" y2="324.28"/><line class="f" x1="408.55" y1="316.15" x2="395.87" y2="314.59"/><line class="f" x1="407.69" y1="318.11" x2="396.97" y2="319.7"/><polygon class="h" points="461.18 198.03 479.31 198.03 479.68 198.18 479.83 198.55 479.83 212.84 479.68 213.21 479.31 213.37 461.18 213.37 460.81 213.21 460.66 212.84 460.66 198.55 460.81 198.18 461.18 198.03"/><line class="f" x1="461.18" y1="198.03" x2="479.31" y2="198.03"/><g class="g"><path class="f" d="M479.31,198a.52.52,0,0,1,.52.52"/></g><line class="f" x1="479.83" y1="198.55" x2="479.83" y2="212.84"/><g class="g"><path class="f" d="M479.83,212.84a.52.52,0,0,1-.52.53"/></g><line class="f" x1="479.31" y1="213.37" x2="461.18" y2="213.37"/><g class="g"><path class="f" d="M461.18,213.37a.52.52,0,0,1-.52-.53"/></g><line class="f" x1="460.66" y1="212.84" x2="460.66" y2="198.55"/><g class="g"><path class="f" d="M460.66,198.55a.52.52,0,0,1,.52-.52"/></g><line class="f" x1="462.23" y1="201.86" x2="478.26" y2="201.86"/><line class="f" x1="478.79" y1="202.39" x2="478.79" y2="211.8"/><line class="f" x1="478.26" y1="212.32" x2="462.23" y2="212.32"/><line class="f" x1="461.7" y1="211.8" x2="461.7" y2="202.39"/><g class="g"><path class="f" d="M478.26,201.86a.53.53,0,0,1,.53.53"/><path class="f" d="M478.79,211.8a.52.52,0,0,1-.53.52"/><path class="f" d="M462.23,212.32a.52.52,0,0,1-.53-.52"/><path class="f" d="M461.7,202.39a.53.53,0,0,1,.53-.53"/></g><polygon class="h" points="469.37 200.12 469.51 201.58 469.63 201.91 469.86 203.76 469.99 204 470.24 204.1 470.5 204 470.63 203.76 470.86 201.91 470.98 201.58 471.12 200.12 470.86 199.5 470.24 199.25 469.63 199.5 469.37 200.12"/><g class="g"><path class="f" d="M469.37,200.12a.88.88,0,0,1,1.75,0"/></g><line class="f" x1="470.98" y1="201.58" x2="471.12" y2="200.12"/><g class="g"><path class="f" d="M471,201.58a.66.66,0,0,1-.12.33"/></g><line class="f" x1="470.63" y1="203.76" x2="470.86" y2="201.91"/><g class="g"><path class="f" d="M470.63,203.76a.39.39,0,0,1-.77,0"/></g><line class="f" x1="469.63" y1="201.91" x2="469.86" y2="203.76"/><g class="g"><path class="f" d="M469.63,201.91a.66.66,0,0,1-.12-.33"/></g><line class="f" x1="469.37" y1="200.12" x2="469.51" y2="201.58"/><line class="f" x1="470.72" y1="200.99" x2="470.72" y2="201.51"/><line class="f" x1="469.77" y1="201.51" x2="469.77" y2="200.99"/><line class="f" x1="469.77" y1="200.99" x2="470.72" y2="200.99"/><g class="g"><path class="f" d="M470.72,201.51a.48.48,0,0,1-1,0"/><path class="f" d="M470.86,201.91a.73.73,0,0,1-1.23,0"/></g><polygon class="h" points="488.2 198.03 488.2 209.53 488.47 211.25 489.25 212.81 490.46 214.06 492.44 215.1 494.65 215.46 496.85 215.1 498.83 214.06 500.05 212.81 500.83 211.25 501.1 209.53 501.1 198.03 488.2 198.03"/><line class="f" x1="501.1" y1="198.03" x2="501.1" y2="209.53"/><line class="f" x1="501.1" y1="198.03" x2="488.2" y2="198.03"/><line class="f" x1="488.2" y1="198.03" x2="488.2" y2="209.53"/><line class="f" x1="499.01" y1="202.21" x2="499.01" y2="209.53"/><line class="f" x1="490.29" y1="202.21" x2="490.29" y2="209.53"/><line class="f" x1="490.29" y1="202.21" x2="499.01" y2="202.21"/><g class="g"><path class="f" d="M501.1,209.53a5.66,5.66,0,0,1-2.27,4.53"/><path class="f" d="M490.46,214.06a5.68,5.68,0,0,1-2.26-4.53"/><path class="f" d="M498.83,214.06a7,7,0,0,1-8.37,0"/><path class="f" d="M490.46,214.06a5.68,5.68,0,0,1-2.26-4.53"/><path class="f" d="M494.65,215.46a7,7,0,0,1-4.19-1.4"/><path class="f" d="M491.72,212.39a3.56,3.56,0,0,1-1.43-2.86"/><path class="f" d="M497.58,212.39a4.87,4.87,0,0,1-5.86,0"/><path class="f" d="M499,209.53a3.56,3.56,0,0,1-1.43,2.86"/></g><line class="f" x1="296.17" y1="205.51" x2="296.17" y2="199.66"/><line class="f" x1="296.17" y1="199.66" x2="298.54" y2="201.58"/><line class="f" x1="298.54" y1="201.58" x2="300.92" y2="199.66"/><line class="f" x1="300.92" y1="199.66" x2="300.92" y2="205.51"/><line class="f" x1="300.29" y1="377.92" x2="300.29" y2="431.95"/><line class="f" x1="300.29" y1="431.95" x2="499.01" y2="431.95"/><line class="f" x1="499.01" y1="431.95" x2="499.01" y2="377.91"/><line class="f" x1="298.55" y1="377.92" x2="298.55" y2="433.69"/><line class="f" x1="500.75" y1="433.7" x2="500.75" y2="377.92"/><polygon class="i" points="542.59 184.43 551.3 184.43 551.3 191.4 549.56 191.4 549.56 377.92 542.59 377.92 542.59 184.43"/><rect x="375.25" y="363.97" width="48.81" height="6.97"/><rect x="450.2" y="184.43" width="92.39" height="8.37"/><polygon class="i" points="492.03 377.92 492.03 370.94 542.59 370.94 542.59 377.92 537.36 377.92 500.75 377.92 492.03 377.92"/><polygon class="i" points="305.52 370.94 246.25 370.94 246.25 252.41 253.23 252.41 253.23 363.97 305.52 363.97 305.52 370.94"/><polygon class="i" points="239.28 250.67 246.25 250.67 246.25 370.94 307.26 370.94 307.26 377.92 298.55 377.92 239.28 377.92 239.28 250.67"/><rect x="246.25" y="184.43" width="6.97" height="33.12"/><rect x="239.28" y="184.43" width="6.97" height="34.86"/><rect x="493.78" y="363.97" width="48.81" height="6.97"/><polygon class="i" points="389.19 213.72 371.76 213.72 371.76 192.8 375.25 192.8 375.25 210.23 389.19 210.23 389.19 213.72"/><rect x="373.5" y="370.94" width="52.29" height="6.97"/><polygon class="i" points="253.23 184.43 403.48 184.43 411.85 184.43 411.85 192.8 253.23 192.8 253.23 184.43"/><rect x="511.21" y="215.46" width="31.38" height="3.49"/><rect x="511.21" y="192.8" width="3.48" height="22.66"/><rect x="389.19" y="192.8" width="2.44" height="24.4"/><polygon class="i" points="542.59 252.06 542.59 254.5 446.71 254.5 446.71 252.06 450.2 252.06 450.2 248.58 452.64 248.58 452.64 252.06 542.59 252.06"/><rect x="450.2" y="192.8" width="2.44" height="27.89"/><polygon class="i" points="415.34 252.06 415.34 254.5 391.63 254.5 391.63 363.97 389.19 363.97 389.19 248.58 391.63 248.58 391.63 252.06 415.34 252.06"/><rect x="411.85" y="184.43" width="1.74" height="4.01"/><rect x="448.46" y="184.43" width="1.74" height="4.01"/><polygon class="i" points="549.56 377.92 549.56 191.4 551.3 191.4 551.3 193.15 551.3 377.92 549.56 377.92"/><line class="f" x1="551.3" y1="184.43" x2="239.28" y2="184.43"/><line class="f" x1="239.28" y1="184.43" x2="239.28" y2="377.92"/><line class="f" x1="239.28" y1="377.92" x2="298.55" y2="377.92"/><line class="f" x1="298.55" y1="377.92" x2="298.55" y2="433.69"/><line class="f" x1="298.55" y1="433.7" x2="500.75" y2="433.7"/><line class="f" x1="500.75" y1="433.7" x2="500.75" y2="377.92"/><line class="f" x1="500.75" y1="377.92" x2="551.3" y2="377.92"/><line class="f" x1="551.3" y1="377.92" x2="551.3" y2="184.43"/><path class="j" d="M469.49,226.94v7h-.72v-6.35h-1.65v-.64Z"/><path class="j" d="M471.17,233.43a.53.53,0,0,1,.53-.54.54.54,0,0,1,.54.54.55.55,0,0,1-.54.55A.54.54,0,0,1,471.17,233.43Z"/><path class="j" d="M473.18,230.44c0-2.23,1.17-3.56,2.79-3.56s2.8,1.33,2.8,3.56S477.59,234,476,234,473.18,232.66,473.18,230.44Zm4.85,0c0-1.87-.84-2.9-2.06-2.9s-2.06,1-2.06,2.9.84,2.89,2.06,2.89S478,232.3,478,230.44Z"/><path class="j" d="M485.75,232.09h-1.4v1.84h-.72v-1.84h-3.95v-.52l3.71-4.63h.8l-3.58,4.51h3v-1.61h.7v1.61h1.4Z"/><path class="j" d="M388.91,401.76v7h-.72V402.4h-1.65v-.64Z"/><path class="j" d="M390.59,408.25a.53.53,0,0,1,.53-.54.54.54,0,0,1,.54.54.55.55,0,0,1-.54.55A.54.54,0,0,1,390.59,408.25Z"/><path class="j" d="M392.6,405.26c0-2.23,1.17-3.56,2.79-3.56s2.8,1.33,2.8,3.56-1.18,3.55-2.8,3.55S392.6,407.48,392.6,405.26Zm4.85,0c0-1.87-.84-2.9-2.06-2.9s-2.06,1-2.06,2.9.84,2.89,2.06,2.89S397.45,407.12,397.45,405.26Z"/><path class="j" d="M404,406.7c0,1.18-.83,2.11-2.54,2.11a3.61,3.61,0,0,1-2.51-.9l.35-.57a3,3,0,0,0,2.15.81c1.19,0,1.82-.58,1.82-1.43s-.56-1.45-2.34-1.45h-1.49l.36-3.51h3.83v.64h-3.2l-.24,2.23h.9C403.17,404.63,404,405.46,404,406.7Z"/><path class="j" d="M439.37,302.53v7h-.72v-6.35H437v-.64Z"/><path class="j" d="M441.05,309a.53.53,0,0,1,.53-.54.54.54,0,0,1,.54.54.55.55,0,0,1-.54.55A.54.54,0,0,1,441.05,309Z"/><path class="j" d="M443.06,306c0-2.23,1.17-3.56,2.79-3.56s2.8,1.33,2.8,3.56-1.18,3.55-2.8,3.55S443.06,308.25,443.06,306Zm4.85,0c0-1.87-.84-2.9-2.06-2.9s-2.06,1-2.06,2.9.84,2.89,2.06,2.89S447.91,307.89,447.91,306Z"/><path class="j" d="M454.22,307.51c0,1.17-.85,2.07-2.54,2.07a3.64,3.64,0,0,1-2.52-.9l.35-.57a3.07,3.07,0,0,0,2.17.81c1.16,0,1.8-.54,1.8-1.41s-.59-1.39-1.89-1.39h-.5v-.52l1.94-2.43h-3.58v-.64H454V303l-2,2.49C453.47,305.61,454.22,306.4,454.22,307.51Z"/><path class="j" d="M337.47,302.53v7h-.72v-6.35H335.1v-.64Z"/><path class="j" d="M339.15,309a.53.53,0,0,1,.53-.54.54.54,0,0,1,.54.54.55.55,0,0,1-.54.55A.54.54,0,0,1,339.15,309Z"/><path class="j" d="M341.16,306c0-2.23,1.17-3.56,2.79-3.56s2.8,1.33,2.8,3.56-1.18,3.55-2.8,3.55S341.16,308.25,341.16,306Zm4.85,0c0-1.87-.84-2.9-2.06-2.9s-2.06,1-2.06,2.9.84,2.89,2.06,2.89S346,307.89,346,306Z"/><path class="j" d="M352.55,308.88v.64h-4.91V309l2.91-2.85c.79-.77.94-1.24.94-1.72,0-.81-.57-1.31-1.64-1.31a2.38,2.38,0,0,0-1.91.78l-.51-.44a3.15,3.15,0,0,1,2.48-1c1.42,0,2.32.72,2.32,1.89a2.85,2.85,0,0,1-1.15,2.18l-2.38,2.34Z"/><path class="j" d="M402.63,226.94v7h-.72v-6.35h-1.65v-.64Z"/><path class="j" d="M404.31,233.43a.53.53,0,0,1,.53-.54.54.54,0,0,1,.54.54.55.55,0,0,1-.54.55A.54.54,0,0,1,404.31,233.43Z"/><path class="j" d="M406.32,230.44c0-2.23,1.17-3.56,2.79-3.56s2.8,1.33,2.8,3.56-1.18,3.55-2.8,3.55S406.32,232.66,406.32,230.44Zm4.85,0c0-1.87-.84-2.9-2.06-2.9s-2.06,1-2.06,2.9.84,2.89,2.06,2.89S411.17,232.3,411.17,230.44Z"/><path class="j" d="M414.87,226.94v7h-.72v-6.35H412.5v-.64Z"/></svg>