<svg xmlns="http://www.w3.org/2000/svg" xmlns:xlink="http://www.w3.org/1999/xlink" viewBox="0 0 790.58 618.13"><defs><style>.a,.f{fill:none;}.b{fill:#595a5c;}.c{fill:#b6906c;}.d,.g{fill:#fff;}.e{fill:#231f20;}.f{stroke:#000;stroke-linecap:round;stroke-linejoin:round;stroke-width:0.35px;}.g,.i{fill-rule:evenodd;}.h{clip-path:url(#a);}.j{fill:#58595b;}</style><clipPath id="a"><polygon class="a" points="327.36 155.09 327.36 175.99 240.27 175.99 240.27 407.3 377.87 407.3 377.87 463.03 536.37 463.03 550.31 463.03 550.31 325.78 501.54 325.78 501.54 210.83 404 210.83 404 155.09 327.36 155.09"/></clipPath></defs><path class="b" d="M55.31,597.13H57.1V609.9H55.31Zm.92,6.11h4.09a1.89,1.89,0,0,0,1-.27,1.82,1.82,0,0,0,.68-.77,2.67,2.67,0,0,0,.24-1.16,2.7,2.7,0,0,0-.24-1.16,1.82,1.82,0,0,0-1.7-1H56.23v-1.7h4a4.09,4.09,0,0,1,2,.48A3.45,3.45,0,0,1,63.62,599a4.64,4.64,0,0,1,0,4.11,3.34,3.34,0,0,1-1.35,1.36,4,4,0,0,1-2,.49h-4Z"/><path class="b" d="M67.7,606.33a2.07,2.07,0,0,0,.49,1.48,1.76,1.76,0,0,0,1.37.52,1.89,1.89,0,0,0,1.37-.46,1.79,1.79,0,0,0,.48-1.33l.12,1.91A2.58,2.58,0,0,1,69.06,610a2.89,2.89,0,0,1-2.33-1,4.08,4.08,0,0,1-.82-2.73v-5.55H67.7Zm.22-7.86a1.93,1.93,0,0,1-.56-1.5,2.07,2.07,0,0,1,.56-1.57,2.56,2.56,0,0,1,3.18,0,2.08,2.08,0,0,1,.57,1.56,1.94,1.94,0,0,1-.57,1.5,2.65,2.65,0,0,1-3.18,0Zm2.26-.86a.94.94,0,0,0,.24-.68,1,1,0,0,0-.24-.7.91.91,0,0,0-.67-.25.92.92,0,0,0-.67.25,1,1,0,0,0-.23.7,1,1,0,0,0,.23.68.92.92,0,0,0,.67.24A.9.9,0,0,0,70.18,597.61Zm1.23,3.17h1.78v9.12H71.41Z"/><path class="b" d="M77.1,609.63A2.82,2.82,0,0,1,76,608.36a5.08,5.08,0,0,1-.36-2v-2a5.05,5.05,0,0,1,.36-2,2.71,2.71,0,0,1,1-1.27,3,3,0,0,1,1.65-.44,2.71,2.71,0,0,1,1.48.42,3.22,3.22,0,0,1,1.09,1.19l-.18,1.86a2.19,2.19,0,0,0-.22-1,1.48,1.48,0,0,0-.61-.63,2,2,0,0,0-1-.21,1.71,1.71,0,0,0-1.37.55,2.26,2.26,0,0,0-.49,1.56v2a2.19,2.19,0,0,0,.49,1.54,1.74,1.74,0,0,0,1.37.54,1.93,1.93,0,0,0,1-.23,1.45,1.45,0,0,0,.61-.64,2.25,2.25,0,0,0,.22-1l.12,1.92a2.66,2.66,0,0,1-.89,1.14,2.56,2.56,0,0,1-1.53.45A3.19,3.19,0,0,1,77.1,609.63Zm4-12.5H82.9V609.9H81.11Z"/><path class="b" d="M87.09,609.57a3.09,3.09,0,0,1-1.29-1.36,4.85,4.85,0,0,1-.44-2.15v-1.48a4.71,4.71,0,0,1,.44-2.12,3.12,3.12,0,0,1,1.29-1.35,4.71,4.71,0,0,1,4.06,0,3.12,3.12,0,0,1,1.29,1.35,4.71,4.71,0,0,1,.44,2.12v1.51a4.79,4.79,0,0,1-.44,2.13,3.12,3.12,0,0,1-1.29,1.35,4.62,4.62,0,0,1-4.06,0Zm3.49-1.83a2.43,2.43,0,0,0,.51-1.65v-1.51a2.43,2.43,0,0,0-.51-1.65,1.88,1.88,0,0,0-1.46-.58,1.85,1.85,0,0,0-1.45.58,2.38,2.38,0,0,0-.52,1.65v1.51a2.38,2.38,0,0,0,.52,1.65,1.82,1.82,0,0,0,1.45.59A1.85,1.85,0,0,0,90.58,607.74Z"/><path class="b" d="M95.43,600.78h1.79v9.12H95.43Zm4.42,1.72a2.16,2.16,0,0,0-.83-.15,1.83,1.83,0,0,0-1.33.47,1.79,1.79,0,0,0-.47,1.31L97,602.37a3.32,3.32,0,0,1,1.09-1.27,2.58,2.58,0,0,1,1.48-.45,3.39,3.39,0,0,1,1.13.18,2.62,2.62,0,0,1,.88.53l-1.17,1.58A1.56,1.56,0,0,0,99.85,602.5Z"/><path class="b" d="M102.15,600.78H104l2.81,7.93-1,1.94Zm8.07,0L106.34,612a2.6,2.6,0,0,1-.56,1,1.87,1.87,0,0,1-.84.52,4,4,0,0,1-1.23.16h-.36V612h.36a1.46,1.46,0,0,0,.8-.2,1.74,1.74,0,0,0,.51-.7l3.38-10.31Z"/><path class="b" d="M113.51,609.88a5.76,5.76,0,0,1-1.32-.48,4.89,4.89,0,0,1-1.13-.79l1.06-1.31a5.86,5.86,0,0,0,1.47.85,4.18,4.18,0,0,0,1.44.28,3.11,3.11,0,0,0,1.6-.33,1.1,1.1,0,0,0,.53-1,.79.79,0,0,0-.29-.66,1.66,1.66,0,0,0-.72-.29c-.29,0-.69-.1-1.22-.14h-.15l-.14,0h-.15a6.45,6.45,0,0,1-1.5-.26,2,2,0,0,1-1-.7,2.38,2.38,0,0,1-.41-1.49,3.07,3.07,0,0,1,.39-1.61,2.41,2.41,0,0,1,1.18-1,5.29,5.29,0,0,1,2-.32,6.38,6.38,0,0,1,2.6.52,6.16,6.16,0,0,1,1.13.66l-1.08,1.31a5.59,5.59,0,0,0-1.35-.66,4,4,0,0,0-1.3-.22,2.44,2.44,0,0,0-1.37.31,1.08,1.08,0,0,0-.46.94.64.64,0,0,0,.26.55,1.72,1.72,0,0,0,.66.25c.26,0,.64.07,1.12.1h.34a7.67,7.67,0,0,1,1.63.25,2.24,2.24,0,0,1,1.13.77,2.62,2.62,0,0,1,.45,1.65,2.92,2.92,0,0,1-.42,1.63,2.54,2.54,0,0,1-1.27,1A5.88,5.88,0,0,1,115,610,7.38,7.38,0,0,1,113.51,609.88Z"/><path class="b" d="M126,597.13h1.8V609.9H126Zm2.6,12.5a2.39,2.39,0,0,1-.93-1.16l.13-1.91a2.22,2.22,0,0,0,.21,1,1.48,1.48,0,0,0,.61.63,1.93,1.93,0,0,0,1,.22,1.74,1.74,0,0,0,1.37-.54,2.18,2.18,0,0,0,.49-1.53v-2a2.26,2.26,0,0,0-.49-1.56,1.71,1.71,0,0,0-1.37-.55,2,2,0,0,0-1,.21,1.36,1.36,0,0,0-.61.62,2.12,2.12,0,0,0-.21,1l-.19-1.76a3.37,3.37,0,0,1,1.08-1.24,2.67,2.67,0,0,1,1.49-.43,3,3,0,0,1,1.65.43,2.9,2.9,0,0,1,1.06,1.27,5.1,5.1,0,0,1,.36,2v2a4.94,4.94,0,0,1-.37,2,2.79,2.79,0,0,1-1.08,1.26,3.25,3.25,0,0,1-1.71.44A2.73,2.73,0,0,1,128.57,609.63Z"/><path class="b" d="M134.46,600.78h1.82l2.81,7.93-1,1.94Zm8.07,0L138.65,612a2.6,2.6,0,0,1-.56,1,1.87,1.87,0,0,1-.84.52,4,4,0,0,1-1.23.16h-.36V612H136a1.46,1.46,0,0,0,.8-.2,1.74,1.74,0,0,0,.51-.7l3.37-10.31Z"/><path class="b" d="M143.57,600.78h4.12v1.62h-4.12Zm1.46,8.56a2.77,2.77,0,0,1-.52-1.81v-9.4h1.8v9.42a.84.84,0,0,0,.13.51.46.46,0,0,0,.39.18h.86V610h-1A2,2,0,0,1,145,609.34Z"/><path class="b" d="M151.94,606.33a2.07,2.07,0,0,0,.49,1.48,1.76,1.76,0,0,0,1.37.52,1.91,1.91,0,0,0,1.37-.46,1.79,1.79,0,0,0,.48-1.33l.12,1.91A2.58,2.58,0,0,1,153.3,610a2.89,2.89,0,0,1-2.33-1,4.08,4.08,0,0,1-.82-2.73v-5.55h1.79Zm3.71-5.55h1.78v9.12h-1.78Z"/><rect class="c" x="612.92" y="591.68" width="35.43" height="2.83"/><path class="d" d="M648.48,594.64H612.79v-3.08h35.69ZM613,594.39h35.19v-2.58H613Z"/><rect class="c" x="612.92" y="601.6" width="70.74" height="2.83"/><path class="d" d="M683.78,604.56h-71v-3.08h71ZM613,604.31h70.49v-2.58H613Z"/><rect class="c" x="612.92" y="612.72" width="177.16" height="2.84"/><path class="d" d="M790.21,615.68H612.79V612.6H790.21ZM613,615.43H790v-2.58H613Z"/><path class="e" d="M587.26,596.28h-.8v-4.82l-.81.5v-.83l.81-.53h.8Z"/><path class="e" d="M589,595.91a1.67,1.67,0,0,1-.41-1.19v-2.58A1.65,1.65,0,0,1,589,591a2,2,0,0,1,2.42,0,1.65,1.65,0,0,1,.41,1.19v2.58a1.65,1.65,0,0,1-.41,1.19,2,2,0,0,1-2.42,0Zm1.83-.55a.89.89,0,0,0,.2-.64v-2.58a.89.89,0,0,0-.2-.64.82.82,0,0,0-.62-.22.86.86,0,0,0-.63.22.94.94,0,0,0-.2.64v2.58a.9.9,0,0,0,.21.64,1,1,0,0,0,1.24,0Z"/><path class="e" d="M593.22,595.91a1.67,1.67,0,0,1-.41-1.19v-2.58a1.65,1.65,0,0,1,.41-1.19,2,2,0,0,1,2.42,0,1.61,1.61,0,0,1,.41,1.19v2.58a1.65,1.65,0,0,1-.41,1.19,2,2,0,0,1-2.42,0Zm1.83-.55a.9.9,0,0,0,.21-.64v-2.58a.94.94,0,0,0-.2-.64.86.86,0,0,0-.63-.22.82.82,0,0,0-.62.22.89.89,0,0,0-.2.64v2.58a.89.89,0,0,0,.2.64,1,1,0,0,0,1.24,0Z"/><path class="e" d="M600.1,596.13a1.45,1.45,0,0,1-.6-.6,2.06,2.06,0,0,1-.21-1v-.67a2,2,0,0,1,.21-.94,1.37,1.37,0,0,1,.6-.59,2,2,0,0,1,.95-.21,2.21,2.21,0,0,1,.59.08,1.68,1.68,0,0,1,.51.22,1.54,1.54,0,0,1,.37.35l-.58.52a1.17,1.17,0,0,0-.4-.3,1.13,1.13,0,0,0-.48-.11.94.94,0,0,0-.71.26,1,1,0,0,0-.26.72v.67a1,1,0,0,0,.25.74.94.94,0,0,0,.72.27,1,1,0,0,0,.48-.12,1,1,0,0,0,.4-.32l.58.56a1.38,1.38,0,0,1-.38.34,1.62,1.62,0,0,1-.5.22,2.27,2.27,0,0,1-.59.07A2.12,2.12,0,0,1,600.1,596.13Z"/><path class="e" d="M603.4,592.22h.79v4.06h-.79Zm2.42,1.6a1,1,0,0,0-.21-.67.78.78,0,0,0-.6-.23.81.81,0,0,0-.6.21.73.73,0,0,0-.22.58l-.08-.78a1.46,1.46,0,0,1,.49-.57,1.22,1.22,0,0,1,.67-.2,1.33,1.33,0,0,1,.73.2,1.18,1.18,0,0,1,.46.56,2.4,2.4,0,0,1,.15.89v2.47h-.79Zm2.42,0a.93.93,0,0,0-.22-.67.85.85,0,0,0-.63-.23.72.72,0,0,0-.57.23.9.9,0,0,0-.21.64l-.16-.78a1.61,1.61,0,0,1,.51-.63,1.23,1.23,0,0,1,.69-.22,1.37,1.37,0,0,1,.75.2,1.09,1.09,0,0,1,.47.56,2.21,2.21,0,0,1,.17.89v2.47h-.8Z"/><path class="e" d="M584.33,605.5l2-2.64a1.85,1.85,0,0,0,.27-.47,1.29,1.29,0,0,0,.09-.45h0a.67.67,0,0,0-.2-.53.81.81,0,0,0-.56-.19.76.76,0,0,0-.56.21,1,1,0,0,0-.27.58h-.82a2,2,0,0,1,.29-.83,1.42,1.42,0,0,1,.56-.53,1.67,1.67,0,0,1,.79-.18,1.93,1.93,0,0,1,.87.17,1.21,1.21,0,0,1,.54.51,1.55,1.55,0,0,1,.19.8h0a1.84,1.84,0,0,1-.12.63,2.8,2.8,0,0,1-.35.63l-1.65,2.24h2.15v.76h-3.2Z"/><path class="e" d="M589,605.83a1.67,1.67,0,0,1-.41-1.19v-2.58a1.65,1.65,0,0,1,.41-1.19,2,2,0,0,1,2.42,0,1.65,1.65,0,0,1,.41,1.19v2.58a1.65,1.65,0,0,1-.41,1.19,2,2,0,0,1-2.42,0Zm1.83-.55a.89.89,0,0,0,.2-.64v-2.58a.89.89,0,0,0-.2-.64.82.82,0,0,0-.62-.22.86.86,0,0,0-.63.22.94.94,0,0,0-.19.64v2.58a.89.89,0,0,0,.2.64,1,1,0,0,0,1.24,0Z"/><path class="e" d="M593.22,605.83a1.67,1.67,0,0,1-.41-1.19v-2.58a1.61,1.61,0,0,1,.42-1.19,1.59,1.59,0,0,1,1.2-.42,1.45,1.45,0,0,1,1.62,1.61v2.58a1.61,1.61,0,0,1-.41,1.19,2,2,0,0,1-2.42,0Zm1.84-.55a.94.94,0,0,0,.2-.64v-2.58a.94.94,0,0,0-.2-.64.84.84,0,0,0-.63-.22.82.82,0,0,0-.62.22.89.89,0,0,0-.2.64v2.58a.89.89,0,0,0,.2.64.82.82,0,0,0,.62.22A.86.86,0,0,0,595.06,605.28Z"/><path class="e" d="M600.1,606.05a1.45,1.45,0,0,1-.6-.6,2.06,2.06,0,0,1-.2-1v-.67a2,2,0,0,1,.2-.94,1.37,1.37,0,0,1,.6-.59,2,2,0,0,1,.95-.21,2.35,2.35,0,0,1,.6.08,1.73,1.73,0,0,1,.5.22,1.38,1.38,0,0,1,.37.35l-.58.52a1.08,1.08,0,0,0-.4-.3,1.13,1.13,0,0,0-.48-.11,1,1,0,0,0-.71.26,1,1,0,0,0-.26.72v.67a1,1,0,0,0,.25.74.94.94,0,0,0,.72.27,1.14,1.14,0,0,0,.88-.44l.58.56a1.38,1.38,0,0,1-.38.34,1.62,1.62,0,0,1-.5.22,2.22,2.22,0,0,1-.59.07A2.12,2.12,0,0,1,600.1,606.05Z"/><path class="e" d="M603.4,602.14h.79v4.06h-.79Zm2.42,1.6a1,1,0,0,0-.21-.67.78.78,0,0,0-.6-.23.81.81,0,0,0-.6.21.73.73,0,0,0-.22.58l-.08-.78a1.46,1.46,0,0,1,.49-.57,1.22,1.22,0,0,1,.67-.2,1.3,1.3,0,0,1,.73.2,1.18,1.18,0,0,1,.46.56,2.4,2.4,0,0,1,.16.89v2.47h-.8Zm2.42,0a.93.93,0,0,0-.22-.67.85.85,0,0,0-.63-.23.73.73,0,0,0-.57.23.89.89,0,0,0-.2.64l-.16-.78a1.51,1.51,0,0,1,.5-.63,1.23,1.23,0,0,1,.69-.22,1.35,1.35,0,0,1,.75.2,1.16,1.16,0,0,1,.48.56,2.4,2.4,0,0,1,.16.89v2.47h-.8Z"/><path class="e" d="M585,615.58a1.34,1.34,0,0,1-.54-.49,2,2,0,0,1-.28-.77h.8a.75.75,0,0,0,.25.49.85.85,0,0,0,.54.17.72.72,0,0,0,.59-.25,1.1,1.1,0,0,0,.21-.72v-.48a1.1,1.1,0,0,0-.21-.72.72.72,0,0,0-.59-.25.83.83,0,0,0-.4.11,1.18,1.18,0,0,0-.34.33h-.72v-3h2.89v.76h-2.1V612a1,1,0,0,1,.34-.18.94.94,0,0,1,.37-.07,1.68,1.68,0,0,1,.84.2,1.29,1.29,0,0,1,.53.6,2.07,2.07,0,0,1,.19.94V614a2.25,2.25,0,0,1-.19.94,1.31,1.31,0,0,1-.55.59,1.69,1.69,0,0,1-.86.21A1.74,1.74,0,0,1,585,615.58Z"/><path class="e" d="M589,615.32a1.65,1.65,0,0,1-.41-1.19v-2.58a1.67,1.67,0,0,1,.41-1.19,2,2,0,0,1,2.42,0,1.65,1.65,0,0,1,.41,1.19v2.58a1.64,1.64,0,0,1-.41,1.19,1.92,1.92,0,0,1-2.42,0Zm1.83-.55a.89.89,0,0,0,.2-.64v-2.58a.88.88,0,0,0-.2-.63.78.78,0,0,0-.62-.22.82.82,0,0,0-.63.22.93.93,0,0,0-.2.63v2.58a.9.9,0,0,0,.21.64,1,1,0,0,0,1.24,0Z"/><path class="e" d="M593.22,615.32a1.65,1.65,0,0,1-.41-1.19v-2.58a1.67,1.67,0,0,1,.41-1.19,2,2,0,0,1,2.42,0,1.61,1.61,0,0,1,.41,1.19v2.58a1.64,1.64,0,0,1-.41,1.19,1.92,1.92,0,0,1-2.42,0Zm1.83-.55a.9.9,0,0,0,.21-.64v-2.58a.93.93,0,0,0-.2-.63.82.82,0,0,0-.63-.22.78.78,0,0,0-.62.22.88.88,0,0,0-.2.63v2.58a.89.89,0,0,0,.2.64,1,1,0,0,0,1.24,0Z"/><path class="e" d="M600.1,615.54a1.45,1.45,0,0,1-.6-.6,2,2,0,0,1-.21-1v-.67a2,2,0,0,1,.21-.94,1.45,1.45,0,0,1,.6-.6,2,2,0,0,1,.95-.2,2.22,2.22,0,0,1,.59.07,2,2,0,0,1,.51.22,1.76,1.76,0,0,1,.37.35l-.58.52a1.17,1.17,0,0,0-.4-.3,1.13,1.13,0,0,0-.48-.11.94.94,0,0,0-.71.26,1,1,0,0,0-.26.73V614a1.07,1.07,0,0,0,.25.74,1,1,0,0,0,.72.26,1.13,1.13,0,0,0,.48-.11,1.26,1.26,0,0,0,.4-.32l.58.55a1.42,1.42,0,0,1-.38.35,1.88,1.88,0,0,1-.5.21,2.27,2.27,0,0,1-.59.08A2,2,0,0,1,600.1,615.54Z"/><path class="e" d="M603.4,611.63h.79v4.06h-.79Zm2.42,1.6a1,1,0,0,0-.21-.66.75.75,0,0,0-.6-.24.81.81,0,0,0-.6.21.75.75,0,0,0-.22.58l-.08-.78a1.5,1.5,0,0,1,.49-.56,1.15,1.15,0,0,1,.67-.2,1.32,1.32,0,0,1,.73.19,1.28,1.28,0,0,1,.46.56,2.42,2.42,0,0,1,.15.9v2.46h-.79Zm2.42,0a.91.91,0,0,0-.22-.66.82.82,0,0,0-.63-.24.72.72,0,0,0-.57.23.9.9,0,0,0-.21.64l-.16-.78a1.51,1.51,0,0,1,.51-.62,1.16,1.16,0,0,1,.69-.22,1.37,1.37,0,0,1,.75.19,1.18,1.18,0,0,1,.47.56,2.22,2.22,0,0,1,.17.9v2.46h-.8Z"/><path class="c" d="M23.49,613.89A12.92,12.92,0,1,1,36.4,601,12.93,12.93,0,0,1,23.49,613.89Zm0-24.83A11.92,11.92,0,1,0,35.4,601,11.93,11.93,0,0,0,23.49,589.06Z"/><polygon class="d" points="35.77 588.74 9.42 600.98 35.77 613.21 32.02 600.98 35.77 588.74"/><path class="c" d="M36.58,614.14,8.23,601l28.35-13.17-4,13.17ZM10.61,601,35,612.29,31.5,601,35,589.66Z"/><path class="c" d="M2.52,605.19a5,5,0,0,1-1.11-.38,4.4,4.4,0,0,1-1-.64l.81-1a3.72,3.72,0,0,0,1.16.69,4.08,4.08,0,0,0,1.38.23,2.73,2.73,0,0,0,1.55-.38,1.17,1.17,0,0,0,.55-1.05h0a1.12,1.12,0,0,0-.25-.77,1.44,1.44,0,0,0-.64-.42,8.23,8.23,0,0,0-1-.25H3.89l-.1,0a9.48,9.48,0,0,1-1.5-.36,2.08,2.08,0,0,1-1-.73,2.42,2.42,0,0,1-.41-1.51h0a2.77,2.77,0,0,1,.38-1.47,2.44,2.44,0,0,1,1.12-.92,4.48,4.48,0,0,1,1.77-.32,4.6,4.6,0,0,1,1,.11,4.9,4.9,0,0,1,1.86.86l-.73,1a4.61,4.61,0,0,0-1-.58,3,3,0,0,0-1.06-.2,2.44,2.44,0,0,0-1.46.38,1.24,1.24,0,0,0-.53,1.07h0a1,1,0,0,0,.27.75,1.74,1.74,0,0,0,.67.4,9.3,9.3,0,0,0,1.12.27h.24a7.93,7.93,0,0,1,1.4.41,2.22,2.22,0,0,1,.94.76,2.4,2.4,0,0,1,.38,1.43h0a2.62,2.62,0,0,1-.4,1.45,2.54,2.54,0,0,1-1.16.91,4.8,4.8,0,0,1-1.83.31A6.44,6.44,0,0,1,2.52,605.19Z"/><rect class="c" x="612.5" y="600.68" width="1" height="4.68"/><rect class="c" x="612.5" y="590.76" width="1" height="4.68"/><rect class="c" x="612.5" y="611.45" width="1" height="5.24"/><rect class="c" x="789.58" y="611.45" width="1" height="5.24"/><rect class="c" x="682.59" y="600.68" width="1" height="4.68"/><rect class="c" x="647.3" y="590.76" width="1" height="4.68"/><rect class="a" width="790.34" height="618.13"/><rect class="d" x="407.14" y="337.28" width="80.47" height="13.93"/><line class="f" x1="487.61" y1="351.21" x2="407.14" y2="351.21"/><line class="f" x1="407.14" y1="351.21" x2="407.14" y2="337.28"/><line class="f" x1="407.14" y1="337.28" x2="487.6" y2="337.28"/><line class="f" x1="487.61" y1="337.28" x2="487.61" y2="351.21"/><polygon class="g" points="247.24 337.28 247.24 314.98 247.24 189.91 268.49 189.91 268.49 315.97 331.19 315.97 331.19 337.28 247.24 337.28"/><line class="f" x1="247.24" y1="314.98" x2="247.24" y2="337.28"/><line class="f" x1="247.24" y1="189.91" x2="247.24" y2="314.98"/><line class="f" x1="268.49" y1="189.91" x2="247.24" y2="189.91"/><line class="f" x1="268.49" y1="315.97" x2="268.49" y2="189.91"/><line class="f" x1="331.19" y1="315.97" x2="268.49" y2="315.97"/><line class="f" x1="331.19" y1="337.28" x2="331.19" y2="315.97"/><line class="f" x1="247.24" y1="337.28" x2="331.19" y2="337.28"/><line class="f" x1="417.93" y1="463.03" x2="417.93" y2="463.03"/><line class="f" x1="417.93" y1="463.03" x2="536.03" y2="463.03"/><line class="f" x1="536.03" y1="463.03" x2="536.03" y2="463.03"/><rect class="d" x="378.57" y="339.72" width="26.13" height="17.42"/><line class="f" x1="378.57" y1="339.72" x2="378.57" y2="357.14"/><line class="f" x1="404.7" y1="339.72" x2="378.57" y2="339.72"/><line class="f" x1="404.7" y1="357.14" x2="404.7" y2="339.72"/><line class="f" x1="378.57" y1="357.14" x2="404.7" y2="357.14"/><rect class="d" x="248.11" y="366.72" width="31.35" height="31.35"/><line class="f" x1="248.11" y1="366.71" x2="248.11" y2="398.07"/><line class="f" x1="279.46" y1="366.71" x2="248.11" y2="366.71"/><line class="f" x1="279.46" y1="398.07" x2="279.46" y2="366.71"/><line class="f" x1="248.11" y1="398.07" x2="279.46" y2="398.07"/><line class="f" x1="384.14" y1="463.03" x2="384.14" y2="463.03"/><line class="f" x1="398.08" y1="463.03" x2="384.15" y2="463.03"/><line class="f" x1="398.08" y1="463.03" x2="398.08" y2="463.03"/><rect class="d" x="377.87" y="392.2" width="26.82" height="6.74"/><line class="f" x1="377.87" y1="392.2" x2="377.87" y2="398.94"/><line class="f" x1="404.7" y1="392.2" x2="377.87" y2="392.2"/><line class="f" x1="404.7" y1="398.94" x2="404.7" y2="392.2"/><line class="f" x1="377.87" y1="398.94" x2="404.7" y2="398.94"/><line class="f" x1="247.24" y1="339.72" x2="247.24" y2="362.36"/><line class="f" x1="247.24" y1="362.36" x2="275.11" y2="362.36"/><line class="f" x1="275.11" y1="362.36" x2="250.72" y2="358.88"/><line class="f" x1="250.72" y1="358.88" x2="247.24" y2="339.72"/><line class="f" x1="400.52" y1="463.03" x2="400.52" y2="463.03"/><line class="f" x1="400.52" y1="463.03" x2="400.52" y2="463.03"/><line class="f" x1="275.11" y1="339.72" x2="247.24" y2="339.72"/><line class="f" x1="247.24" y1="362.36" x2="247.24" y2="365.84"/><line class="f" x1="364.98" y1="218.49" x2="364.98" y2="217.8"/><line class="f" x1="364.98" y1="217.8" x2="362.2" y2="217.8"/><line class="f" x1="362.2" y1="217.8" x2="362.2" y2="220.58"/><line class="f" x1="362.2" y1="220.58" x2="363.59" y2="220.58"/><line class="f" x1="240.27" y1="175.99" x2="268.14" y2="175.99"/><line class="f" x1="247.24" y1="339.72" x2="247.24" y2="336.23"/><line class="f" x1="240.27" y1="189.93" x2="247.24" y2="189.93"/><line class="f" x1="536.37" y1="454.67" x2="536.37" y2="412.87"/><line class="f" x1="536.37" y1="357.14" x2="536.37" y2="339.72"/><line class="f" x1="327.36" y1="175.99" x2="301.23" y2="175.99"/><line class="f" x1="334.33" y1="175.99" x2="327.36" y2="175.99"/><line class="f" x1="320.39" y1="189.93" x2="302.98" y2="189.93"/><line class="f" x1="269.88" y1="175.99" x2="240.27" y2="175.99"/><line class="f" x1="268.14" y1="189.93" x2="247.24" y2="189.93"/><line class="f" x1="327.36" y1="182.96" x2="302.98" y2="182.96"/><line class="f" x1="268.14" y1="182.96" x2="240.27" y2="182.96"/><line class="f" x1="501.54" y1="325.78" x2="501.54" y2="303.14"/><line class="f" x1="501.54" y1="243.92" x2="501.54" y2="210.83"/><line class="f" x1="536.37" y1="463.03" x2="536.37" y2="463.03"/><line class="f" x1="543.34" y1="463.03" x2="543.34" y2="412.87"/><line class="f" x1="543.34" y1="357.14" x2="543.34" y2="332.75"/><line class="f" x1="487.61" y1="339.72" x2="487.61" y2="304.88"/><line class="f" x1="487.61" y1="242.18" x2="487.61" y2="224.76"/><line class="f" x1="494.57" y1="332.75" x2="494.57" y2="304.88"/><line class="f" x1="494.57" y1="242.18" x2="494.57" y2="217.8"/><line class="f" x1="334.33" y1="210.83" x2="334.33" y2="175.99"/><line class="f" x1="320.39" y1="224.76" x2="320.39" y2="189.93"/><line class="f" x1="302.98" y1="189.93" x2="302.98" y2="182.96"/><line class="f" x1="301.24" y1="182.96" x2="301.24" y2="175.99"/><line class="f" x1="268.14" y1="189.93" x2="268.14" y2="182.96"/><line class="f" x1="269.88" y1="182.96" x2="269.88" y2="175.99"/><line class="f" x1="327.36" y1="217.8" x2="327.36" y2="182.96"/><line class="f" x1="334.33" y1="210.83" x2="336.07" y2="210.83"/><line class="f" x1="336.07" y1="210.83" x2="363.94" y2="210.83"/><line class="f" x1="395.29" y1="210.83" x2="404" y2="210.83"/><line class="f" x1="404" y1="210.83" x2="501.54" y2="210.83"/><line class="f" x1="320.39" y1="224.76" x2="334.33" y2="224.76"/><line class="f" x1="397.03" y1="224.76" x2="487.61" y2="224.76"/><line class="f" x1="327.36" y1="217.8" x2="336.07" y2="217.8"/><line class="f" x1="397.03" y1="217.8" x2="494.57" y2="217.8"/><line class="f" x1="501.54" y1="325.78" x2="550.31" y2="325.78"/><line class="f" x1="494.57" y1="332.75" x2="543.34" y2="332.75"/><line class="f" x1="301.24" y1="175.99" x2="269.88" y2="175.99"/><line class="f" x1="302.98" y1="189.93" x2="268.14" y2="189.93"/><line class="f" x1="339.56" y1="407.3" x2="240.27" y2="407.3"/><line class="f" x1="269.88" y1="182.96" x2="268.14" y2="182.96"/><line class="f" x1="302.98" y1="182.96" x2="301.24" y2="182.96"/><line class="f" x1="300.19" y1="183.66" x2="300.19" y2="182.96"/><line class="f" x1="300.19" y1="182.96" x2="302.98" y2="182.96"/><line class="f" x1="302.98" y1="182.96" x2="302.98" y2="185.75"/><line class="f" x1="302.98" y1="185.75" x2="301.58" y2="185.75"/><line class="f" x1="301.58" y1="186.44" x2="298.8" y2="186.44"/><line class="f" x1="298.8" y1="186.44" x2="298.8" y2="183.66"/><line class="f" x1="298.8" y1="183.66" x2="301.58" y2="183.66"/><line class="f" x1="301.58" y1="183.66" x2="301.58" y2="186.44"/><line class="f" x1="270.93" y1="183.66" x2="270.93" y2="182.96"/><line class="f" x1="270.93" y1="182.96" x2="268.14" y2="182.96"/><line class="f" x1="268.14" y1="182.96" x2="268.14" y2="185.75"/><line class="f" x1="268.14" y1="185.75" x2="269.54" y2="185.75"/><line class="f" x1="269.53" y1="186.44" x2="272.32" y2="186.44"/><line class="f" x1="272.32" y1="186.44" x2="272.32" y2="183.66"/><line class="f" x1="272.32" y1="183.66" x2="269.53" y2="183.66"/><line class="f" x1="269.53" y1="183.66" x2="269.53" y2="186.44"/><line class="f" x1="298.8" y1="186.44" x2="272.32" y2="186.44"/><line class="f" x1="272.32" y1="183.66" x2="298.8" y2="183.66"/><line class="f" x1="298.8" y1="185.05" x2="272.32" y2="185.05"/><line class="f" x1="536.37" y1="357.14" x2="536.37" y2="412.87"/><line class="f" x1="362.2" y1="224.76" x2="362.2" y2="217.8"/><line class="f" x1="363.94" y1="217.8" x2="363.94" y2="210.83"/><line class="f" x1="397.03" y1="224.76" x2="397.03" y2="217.8"/><line class="f" x1="487.61" y1="304.88" x2="494.57" y2="304.88"/><line class="f" x1="487.61" y1="242.18" x2="494.57" y2="242.18"/><line class="f" x1="501.54" y1="303.14" x2="501.54" y2="243.92"/><line class="f" x1="395.29" y1="210.83" x2="386.58" y2="210.83"/><line class="f" x1="381.53" y1="210.83" x2="380.49" y2="210.83"/><line class="f" x1="375.44" y1="210.83" x2="374.39" y2="210.83"/><line class="f" x1="372.65" y1="210.83" x2="363.94" y2="210.83"/><line class="f" x1="400.52" y1="210.83" x2="400.52" y2="158.58"/><line class="f" x1="330.85" y1="175.99" x2="330.85" y2="158.58"/><line class="f" x1="400.52" y1="158.58" x2="330.85" y2="158.58"/><line class="f" x1="487.61" y1="304.88" x2="487.61" y2="242.18"/><line class="f" x1="397.03" y1="224.76" x2="362.2" y2="224.76"/><line class="f" x1="543.34" y1="358.88" x2="550.31" y2="358.88"/><line class="f" x1="543.34" y1="411.13" x2="550.31" y2="411.13"/><line class="f" x1="550.31" y1="411.13" x2="550.31" y2="358.88"/><line class="f" x1="543.34" y1="357.14" x2="536.37" y2="357.14"/><line class="f" x1="543.34" y1="412.87" x2="536.37" y2="412.87"/><line class="f" x1="543.34" y1="412.87" x2="543.34" y2="411.13"/><line class="f" x1="494.57" y1="243.92" x2="501.54" y2="243.92"/><line class="f" x1="494.57" y1="243.92" x2="494.57" y2="242.18"/><line class="f" x1="494.57" y1="303.14" x2="501.54" y2="303.14"/><line class="f" x1="494.57" y1="304.88" x2="494.57" y2="303.14"/><line class="f" x1="395.29" y1="217.8" x2="395.29" y2="210.83"/><line class="f" x1="395.29" y1="217.8" x2="397.03" y2="217.8"/><line class="f" x1="395.64" y1="221.28" x2="395.64" y2="253.33"/><line class="f" x1="363.59" y1="221.28" x2="366.38" y2="221.28"/><line class="f" x1="366.38" y1="221.28" x2="366.38" y2="218.49"/><line class="f" x1="366.38" y1="218.49" x2="363.59" y2="218.49"/><line class="f" x1="363.59" y1="218.49" x2="363.59" y2="221.28"/><line class="f" x1="394.25" y1="218.49" x2="394.25" y2="217.8"/><line class="f" x1="394.25" y1="217.8" x2="397.03" y2="217.8"/><line class="f" x1="397.03" y1="217.8" x2="397.03" y2="220.58"/><line class="f" x1="397.03" y1="220.58" x2="395.64" y2="220.58"/><line class="f" x1="395.64" y1="221.28" x2="392.85" y2="221.28"/><line class="f" x1="392.85" y1="221.28" x2="392.85" y2="218.49"/><line class="f" x1="392.85" y1="218.49" x2="395.64" y2="218.49"/><line class="f" x1="395.64" y1="218.49" x2="395.64" y2="221.28"/><line class="f" x1="366.38" y1="221.28" x2="392.85" y2="221.28"/><line class="f" x1="392.85" y1="218.49" x2="366.38" y2="218.49"/><line class="f" x1="366.38" y1="219.89" x2="392.85" y2="219.89"/><g class="h"><path class="f" d="M395.64,253.33a32.05,32.05,0,0,1-32.05-32.05"/></g><line class="f" x1="542.64" y1="359.92" x2="543.34" y2="359.92"/><line class="f" x1="543.34" y1="359.92" x2="543.34" y2="357.14"/><line class="f" x1="543.34" y1="357.14" x2="540.55" y2="357.14"/><line class="f" x1="540.56" y1="357.14" x2="540.56" y2="358.53"/><line class="f" x1="539.86" y1="358.53" x2="539.86" y2="361.32"/><line class="f" x1="539.86" y1="361.32" x2="542.64" y2="361.32"/><line class="f" x1="542.64" y1="361.32" x2="542.64" y2="358.53"/><line class="f" x1="542.64" y1="358.53" x2="539.86" y2="358.53"/><line class="f" x1="539.86" y1="361.32" x2="539.86" y2="408.69"/><line class="f" x1="542.64" y1="408.69" x2="542.64" y2="361.32"/><line class="f" x1="541.25" y1="361.32" x2="541.25" y2="382.91"/><line class="f" x1="541.25" y1="387.09" x2="541.25" y2="408.69"/><line class="f" x1="542.64" y1="410.09" x2="543.34" y2="410.09"/><line class="f" x1="543.34" y1="410.09" x2="543.34" y2="412.87"/><line class="f" x1="543.34" y1="412.87" x2="540.55" y2="412.87"/><line class="f" x1="540.56" y1="412.87" x2="540.56" y2="411.48"/><line class="f" x1="539.86" y1="411.48" x2="539.86" y2="408.69"/><line class="f" x1="539.86" y1="408.69" x2="542.64" y2="408.69"/><line class="f" x1="542.64" y1="408.69" x2="542.64" y2="411.48"/><line class="f" x1="542.64" y1="411.48" x2="539.86" y2="411.48"/><line class="f" x1="493.88" y1="244.97" x2="494.57" y2="244.97"/><line class="f" x1="494.57" y1="244.97" x2="494.57" y2="242.18"/><line class="f" x1="494.57" y1="242.18" x2="491.79" y2="242.18"/><line class="f" x1="491.79" y1="242.18" x2="491.79" y2="243.57"/><line class="f" x1="491.09" y1="243.57" x2="491.09" y2="246.36"/><line class="f" x1="491.09" y1="246.36" x2="493.88" y2="246.36"/><line class="f" x1="493.88" y1="246.36" x2="493.88" y2="243.57"/><line class="f" x1="493.88" y1="243.57" x2="491.09" y2="243.57"/><line class="f" x1="491.09" y1="246.36" x2="491.09" y2="300.7"/><line class="f" x1="493.88" y1="300.7" x2="493.88" y2="246.36"/><line class="f" x1="492.48" y1="246.36" x2="492.48" y2="271.44"/><line class="f" x1="492.48" y1="275.62" x2="492.48" y2="300.7"/><line class="f" x1="493.88" y1="302.1" x2="494.57" y2="302.1"/><line class="f" x1="494.57" y1="302.1" x2="494.57" y2="304.88"/><line class="f" x1="494.57" y1="304.88" x2="491.79" y2="304.88"/><line class="f" x1="491.79" y1="304.88" x2="491.79" y2="303.49"/><line class="f" x1="491.09" y1="303.49" x2="491.09" y2="300.7"/><line class="f" x1="491.09" y1="300.7" x2="493.88" y2="300.7"/><line class="f" x1="493.88" y1="300.7" x2="493.88" y2="303.49"/><line class="f" x1="493.88" y1="303.49" x2="491.09" y2="303.49"/><line class="f" x1="493.88" y1="275.62" x2="491.09" y2="275.62"/><line class="f" x1="493.88" y1="271.44" x2="491.09" y2="271.44"/><line class="f" x1="543.34" y1="358.88" x2="543.34" y2="357.14"/><line class="f" x1="334.33" y1="224.76" x2="334.33" y2="217.8"/><line class="f" x1="336.07" y1="217.8" x2="336.07" y2="210.83"/><line class="f" x1="334.33" y1="217.8" x2="336.07" y2="217.8"/><line class="f" x1="362.2" y1="224.76" x2="334.33" y2="224.76"/><line class="f" x1="362.2" y1="220.58" x2="359.41" y2="220.58"/><line class="f" x1="359.41" y1="220.58" x2="359.41" y2="217.8"/><line class="f" x1="359.41" y1="217.8" x2="362.2" y2="217.8"/><line class="f" x1="362.2" y1="217.8" x2="362.2" y2="220.58"/><line class="f" x1="337.12" y1="220.58" x2="359.41" y2="220.58"/><line class="f" x1="359.41" y1="217.8" x2="337.12" y2="217.8"/><line class="f" x1="337.12" y1="219.19" x2="359.41" y2="219.19"/><line class="f" x1="337.12" y1="220.58" x2="334.33" y2="220.58"/><line class="f" x1="334.33" y1="220.58" x2="334.33" y2="217.8"/><line class="f" x1="334.33" y1="217.8" x2="337.12" y2="217.8"/><line class="f" x1="337.12" y1="217.8" x2="337.12" y2="220.58"/><line class="f" x1="539.86" y1="387.09" x2="542.64" y2="387.09"/><line class="f" x1="539.86" y1="382.91" x2="542.64" y2="382.91"/><line class="f" x1="247.24" y1="398.94" x2="247.24" y2="365.84"/><line class="f" x1="247.24" y1="362.36" x2="247.24" y2="339.72"/><line class="f" x1="377.87" y1="407.3" x2="376.13" y2="407.3"/><line class="f" x1="278.59" y1="365.84" x2="247.24" y2="365.84"/><line class="f" x1="275.11" y1="362.36" x2="247.24" y2="362.36"/><line class="f" x1="377.87" y1="398.94" x2="377.87" y2="403.29"/><line class="f" x1="339.56" y1="398.94" x2="339.56" y2="403.29"/><line class="f" x1="376.13" y1="403.29" x2="376.13" y2="407.3"/><line class="f" x1="341.3" y1="403.29" x2="341.3" y2="407.3"/><line class="f" x1="341.3" y1="403.29" x2="339.56" y2="403.29"/><line class="f" x1="376.13" y1="403.29" x2="377.87" y2="403.29"/><line class="f" x1="377.87" y1="398.94" x2="370.91" y2="398.94"/><line class="f" x1="367.07" y1="398.94" x2="366.29" y2="398.94"/><line class="f" x1="362.46" y1="398.94" x2="361.68" y2="398.94"/><line class="f" x1="357.84" y1="398.94" x2="350.88" y2="398.94"/><line class="f" x1="347.05" y1="398.94" x2="346.52" y2="398.94"/><line class="f" x1="346.52" y1="398.94" x2="339.56" y2="398.94"/><line class="f" x1="339.56" y1="407.3" x2="341.3" y2="407.3"/><line class="f" x1="278.59" y1="365.84" x2="278.59" y2="362.36"/><line class="f" x1="278.59" y1="365.84" x2="278.59" y2="339.72"/><line class="f" x1="275.11" y1="362.36" x2="275.11" y2="339.72"/><line class="f" x1="339.56" y1="403.29" x2="339.56" y2="407.3"/><line class="f" x1="377.87" y1="407.3" x2="377.87" y2="403.29"/><line class="f" x1="343.04" y1="403.29" x2="374.39" y2="403.29"/><line class="f" x1="343.04" y1="407.3" x2="374.39" y2="407.3"/><line class="f" x1="343.04" y1="403.29" x2="343.04" y2="371.94"/><g class="h"><path class="f" d="M343,371.94a31.36,31.36,0,0,1,31.35,31.35"/></g><line class="f" x1="343.04" y1="407.3" x2="343.04" y2="403.29"/><line class="f" x1="374.39" y1="403.29" x2="374.39" y2="407.3"/><line class="f" x1="374.39" y1="403.29" x2="376.13" y2="403.29"/><line class="f" x1="374.39" y1="407.3" x2="376.13" y2="407.3"/><line class="f" x1="341.3" y1="403.29" x2="343.04" y2="403.29"/><line class="f" x1="341.3" y1="407.3" x2="343.04" y2="407.3"/><line class="f" x1="536.37" y1="454.67" x2="386.23" y2="454.67"/><line class="f" x1="400.52" y1="463.03" x2="414.45" y2="463.03"/><line class="f" x1="414.45" y1="463.03" x2="414.45" y2="463.03"/><line class="f" x1="400.52" y1="463.03" x2="400.52" y2="463.03"/><line class="f" x1="536.37" y1="463.03" x2="417.94" y2="463.03"/><line class="f" x1="417.93" y1="463.03" x2="417.93" y2="463.03"/><line class="f" x1="417.93" y1="463.03" x2="414.45" y2="463.03"/><line class="f" x1="536.37" y1="454.67" x2="536.37" y2="463.03"/><g class="h"><path class="f" d="M374.39,458.68A31.35,31.35,0,0,1,343,490"/></g><line class="f" x1="398.08" y1="463.03" x2="398.08" y2="463.03"/><line class="f" x1="377.87" y1="463.03" x2="398.08" y2="463.03"/><line class="f" x1="398.08" y1="463.03" x2="400.52" y2="463.03"/><line class="f" x1="247.24" y1="337.28" x2="247.24" y2="189.93"/><line class="f" x1="490.04" y1="339.72" x2="536.37" y2="339.72"/><line class="f" x1="490.04" y1="339.72" x2="487.61" y2="339.72"/><line class="f" x1="404.7" y1="339.72" x2="374.39" y2="339.72"/><line class="f" x1="343.04" y1="339.72" x2="339.56" y2="339.72"/><line class="f" x1="337.12" y1="339.72" x2="278.59" y2="339.72"/><line class="f" x1="490.04" y1="353.65" x2="407.14" y2="353.65"/><line class="f" x1="487.61" y1="351.21" x2="407.14" y2="351.21"/><line class="f" x1="407.14" y1="337.28" x2="374.39" y2="337.28"/><line class="f" x1="343.04" y1="337.28" x2="247.24" y2="337.28"/><line class="f" x1="337.12" y1="398.94" x2="247.24" y2="398.94"/><line class="f" x1="407.14" y1="401.38" x2="407.14" y2="390.23"/><line class="f" x1="407.14" y1="358.88" x2="407.14" y2="353.65"/><line class="f" x1="404.7" y1="398.94" x2="404.7" y2="390.23"/><line class="f" x1="404.7" y1="358.88" x2="404.7" y2="339.72"/><line class="f" x1="339.56" y1="398.94" x2="339.56" y2="395.45"/><line class="f" x1="339.56" y1="367.59" x2="339.56" y2="339.72"/><line class="f" x1="337.12" y1="398.94" x2="337.12" y2="395.45"/><line class="f" x1="337.12" y1="367.59" x2="337.12" y2="339.72"/><line class="f" x1="247.24" y1="339.72" x2="247.24" y2="337.28"/><line class="f" x1="487.61" y1="339.72" x2="487.61" y2="351.21"/><line class="f" x1="490.04" y1="339.72" x2="490.04" y2="353.65"/><line class="f" x1="407.14" y1="358.88" x2="404.7" y2="358.88"/><line class="f" x1="407.14" y1="390.23" x2="404.7" y2="390.23"/><line class="f" x1="339.56" y1="367.59" x2="337.12" y2="367.59"/><line class="f" x1="343.04" y1="339.72" x2="343.04" y2="337.28"/><line class="f" x1="374.39" y1="339.72" x2="374.39" y2="337.28"/><line class="f" x1="404.7" y1="398.94" x2="386.23" y2="398.94"/><line class="f" x1="407.14" y1="401.38" x2="386.23" y2="401.38"/><line class="f" x1="407.14" y1="337.28" x2="407.14" y2="351.21"/><line class="f" x1="386.23" y1="401.38" x2="386.23" y2="398.94"/><line class="f" x1="339.56" y1="398.94" x2="337.12" y2="398.94"/><line class="f" x1="386.23" y1="454.67" x2="386.23" y2="401.38"/><line class="f" x1="344.78" y1="337.28" x2="372.65" y2="337.28"/><line class="f" x1="344.78" y1="337.28" x2="344.78" y2="309.41"/><g class="h"><path class="f" d="M344.78,309.41a27.87,27.87,0,0,1,27.87,27.87"/></g><line class="f" x1="344.78" y1="339.72" x2="344.78" y2="337.28"/><line class="f" x1="372.65" y1="337.28" x2="372.65" y2="339.72"/><line class="f" x1="372.65" y1="337.28" x2="374.39" y2="337.28"/><line class="f" x1="372.65" y1="339.72" x2="374.39" y2="339.72"/><line class="f" x1="343.04" y1="337.28" x2="344.78" y2="337.28"/><line class="f" x1="343.04" y1="339.72" x2="344.78" y2="339.72"/><line class="f" x1="344.78" y1="339.72" x2="351.75" y2="339.72"/><line class="f" x1="355.58" y1="339.72" x2="356.36" y2="339.72"/><line class="f" x1="360.2" y1="339.72" x2="360.98" y2="339.72"/><line class="f" x1="364.81" y1="339.72" x2="365.68" y2="339.72"/><line class="f" x1="365.68" y1="339.72" x2="372.65" y2="339.72"/><line class="f" x1="344.78" y1="337.28" x2="344.78" y2="336.41"/><line class="f" x1="344.78" y1="336.41" x2="341.3" y2="336.41"/><line class="f" x1="341.3" y1="336.41" x2="341.3" y2="337.28"/><line class="f" x1="344.78" y1="339.72" x2="344.78" y2="340.59"/><line class="f" x1="344.78" y1="340.59" x2="341.3" y2="340.59"/><line class="f" x1="341.3" y1="340.59" x2="341.3" y2="339.72"/><line class="f" x1="372.65" y1="336.41" x2="376.13" y2="336.41"/><line class="f" x1="376.13" y1="336.41" x2="376.13" y2="337.28"/><line class="f" x1="372.65" y1="339.72" x2="372.65" y2="340.59"/><line class="f" x1="372.65" y1="340.59" x2="376.13" y2="340.59"/><line class="f" x1="376.13" y1="340.59" x2="376.13" y2="339.72"/><line class="f" x1="337.12" y1="393.71" x2="337.12" y2="369.33"/><line class="f" x1="337.12" y1="393.71" x2="312.73" y2="393.71"/><g class="h"><path class="f" d="M312.73,393.71a24.38,24.38,0,0,1,24.39-24.38"/></g><line class="f" x1="339.56" y1="393.71" x2="337.12" y2="393.71"/><line class="f" x1="337.12" y1="369.33" x2="339.55" y2="369.33"/><line class="f" x1="337.12" y1="369.33" x2="337.12" y2="367.59"/><line class="f" x1="339.56" y1="369.33" x2="339.56" y2="367.59"/><line class="f" x1="337.12" y1="395.45" x2="337.12" y2="393.71"/><line class="f" x1="339.56" y1="395.45" x2="339.56" y2="393.71"/><line class="f" x1="339.56" y1="393.71" x2="339.56" y2="386.75"/><line class="f" x1="339.56" y1="382.91" x2="339.56" y2="382.13"/><line class="f" x1="339.56" y1="378.3" x2="339.56" y2="377.51"/><line class="f" x1="339.56" y1="376.3" x2="339.56" y2="369.33"/><line class="f" x1="337.12" y1="393.71" x2="336.25" y2="393.71"/><line class="f" x1="336.25" y1="393.71" x2="336.25" y2="397.2"/><line class="f" x1="336.25" y1="397.2" x2="337.12" y2="397.2"/><line class="f" x1="339.56" y1="393.71" x2="340.43" y2="393.71"/><line class="f" x1="340.43" y1="393.71" x2="340.43" y2="397.2"/><line class="f" x1="340.43" y1="397.2" x2="339.56" y2="397.2"/><line class="f" x1="336.25" y1="369.33" x2="336.25" y2="365.84"/><line class="f" x1="336.25" y1="365.84" x2="337.12" y2="365.84"/><line class="f" x1="339.56" y1="369.33" x2="340.43" y2="369.33"/><line class="f" x1="340.43" y1="369.33" x2="340.43" y2="365.84"/><line class="f" x1="340.43" y1="365.84" x2="339.56" y2="365.84"/><line class="f" x1="407.14" y1="360.62" x2="407.14" y2="388.49"/><line class="f" x1="407.14" y1="360.62" x2="435" y2="360.62"/><g class="h"><path class="f" d="M435,360.62a27.86,27.86,0,0,1-27.86,27.87"/></g><line class="f" x1="404.7" y1="360.62" x2="407.13" y2="360.62"/><line class="f" x1="407.14" y1="388.49" x2="404.7" y2="388.49"/><line class="f" x1="407.14" y1="388.49" x2="407.14" y2="390.23"/><line class="f" x1="404.7" y1="388.49" x2="404.7" y2="390.23"/><line class="f" x1="407.14" y1="358.88" x2="407.14" y2="360.62"/><line class="f" x1="404.7" y1="358.88" x2="404.7" y2="360.62"/><line class="f" x1="404.7" y1="360.62" x2="404.7" y2="367.59"/><line class="f" x1="404.7" y1="371.42" x2="404.7" y2="372.2"/><line class="f" x1="404.7" y1="376.03" x2="404.7" y2="376.82"/><line class="f" x1="404.7" y1="380.65" x2="404.7" y2="381.52"/><line class="f" x1="404.7" y1="381.52" x2="404.7" y2="388.49"/><line class="f" x1="407.14" y1="360.62" x2="408.01" y2="360.62"/><line class="f" x1="408.01" y1="360.62" x2="408.01" y2="357.14"/><line class="f" x1="408.01" y1="357.14" x2="407.14" y2="357.14"/><line class="f" x1="404.7" y1="360.62" x2="403.83" y2="360.62"/><line class="f" x1="403.83" y1="360.62" x2="403.83" y2="357.14"/><line class="f" x1="403.83" y1="357.14" x2="404.7" y2="357.14"/><line class="f" x1="408.01" y1="388.49" x2="408.01" y2="391.97"/><line class="f" x1="408.01" y1="391.97" x2="407.14" y2="391.97"/><line class="f" x1="404.7" y1="388.49" x2="403.83" y2="388.49"/><line class="f" x1="403.83" y1="388.49" x2="403.83" y2="391.97"/><line class="f" x1="403.83" y1="391.97" x2="404.7" y2="391.97"/><line class="f" x1="377.87" y1="398.94" x2="386.23" y2="398.94"/><line class="f" x1="337.12" y1="395.45" x2="339.55" y2="395.45"/><line class="f" x1="275.11" y1="339.72" x2="278.59" y2="339.72"/><line class="f" x1="304.72" y1="398" x2="304.72" y2="394.52"/><line class="f" x1="304.72" y1="394.52" x2="283.82" y2="394.52"/><line class="f" x1="283.82" y1="394.52" x2="283.82" y2="398"/><line class="f" x1="283.82" y1="398" x2="284.86" y2="398"/><line class="f" x1="284.86" y1="398" x2="284.86" y2="395.57"/><line class="f" x1="284.86" y1="395.57" x2="303.67" y2="395.57"/><line class="f" x1="303.67" y1="395.57" x2="303.67" y2="398"/><line class="f" x1="303.67" y1="398" x2="304.72" y2="398"/><line class="f" x1="304.72" y1="398" x2="304.72" y2="394.52"/><line class="f" x1="283.82" y1="398" x2="283.82" y2="394.52"/><line class="f" x1="303.67" y1="398" x2="303.67" y2="395.57"/><line class="f" x1="284.86" y1="398" x2="284.86" y2="395.57"/><line class="f" x1="304.72" y1="394.52" x2="283.82" y2="394.52"/><line class="f" x1="304.72" y1="395.57" x2="283.82" y2="395.57"/><line class="f" x1="304.72" y1="398" x2="303.67" y2="398"/><line class="f" x1="284.86" y1="398" x2="283.82" y2="398"/><line class="f" x1="268.49" y1="232.01" x2="268.49" y2="211.11"/><line class="f" x1="260.5" y1="219.1" x2="255.58" y2="224.03"/><line class="f" x1="255.58" y1="219.1" x2="260.5" y2="224.03"/><line class="f" x1="258.04" y1="225.05" x2="258.04" y2="218.08"/><line class="f" x1="261.52" y1="221.56" x2="254.56" y2="221.56"/><line class="f" x1="268.49" y1="232.01" x2="247.59" y2="232.01"/><line class="f" x1="268.49" y1="211.11" x2="247.59" y2="211.11"/><line class="f" x1="268.49" y1="315.97" x2="268.49" y2="190.21"/><line class="f" x1="247.59" y1="190.21" x2="268.49" y2="211.11"/><line class="f" x1="298.97" y1="317.71" x2="279.81" y2="317.71"/><line class="f" x1="279.81" y1="317.71" x2="279.81" y2="335.13"/><line class="f" x1="279.81" y1="335.13" x2="298.97" y2="335.13"/><line class="f" x1="298.97" y1="335.13" x2="298.97" y2="317.71"/><line class="f" x1="299.84" y1="315.97" x2="278.94" y2="315.97"/><line class="f" x1="297.23" y1="319.45" x2="281.55" y2="319.45"/><line class="f" x1="281.55" y1="319.45" x2="281.55" y2="331.64"/><line class="f" x1="281.55" y1="331.64" x2="297.23" y2="331.64"/><line class="f" x1="297.23" y1="331.64" x2="297.23" y2="319.45"/><line class="f" x1="268.49" y1="315.97" x2="331.19" y2="315.97"/><line class="f" x1="247.59" y1="273.82" x2="268.49" y2="273.82"/><line class="f" x1="268.49" y1="273.82" x2="268.49" y2="252.92"/><line class="f" x1="268.49" y1="252.91" x2="247.59" y2="252.91"/><line class="f" x1="269.44" y1="255.76" x2="269.44" y2="270.97"/><line class="f" x1="247.59" y1="305.17" x2="268.49" y2="305.17"/><line class="f" x1="268.49" y1="305.17" x2="268.49" y2="284.27"/><line class="f" x1="268.49" y1="284.27" x2="247.59" y2="284.27"/><line class="f" x1="331.19" y1="336.87" x2="331.19" y2="315.97"/><line class="f" x1="463.78" y1="341.7" x2="432" y2="341.7"/><line class="f" x1="432" y1="341.7" x2="432" y2="343.83"/><line class="f" x1="432" y1="343.83" x2="439.95" y2="345.97"/><line class="f" x1="439.95" y1="345.97" x2="455.84" y2="345.97"/><line class="f" x1="455.84" y1="345.97" x2="463.78" y2="343.83"/><line class="f" x1="463.78" y1="343.83" x2="463.78" y2="341.7"/><line class="f" x1="434.12" y1="342.55" x2="436.24" y2="342.55"/><line class="f" x1="436.24" y1="342.55" x2="436.24" y2="343.09"/><line class="f" x1="436.24" y1="343.09" x2="434.12" y2="343.09"/><line class="f" x1="434.12" y1="343.09" x2="434.12" y2="342.55"/><line class="f" x1="436.77" y1="342.55" x2="438.89" y2="342.55"/><line class="f" x1="438.89" y1="342.55" x2="438.89" y2="343.09"/><line class="f" x1="438.89" y1="343.09" x2="436.77" y2="343.09"/><line class="f" x1="436.77" y1="343.09" x2="436.77" y2="342.55"/><line class="f" x1="439.42" y1="342.55" x2="440.48" y2="342.55"/><line class="f" x1="440.48" y1="342.55" x2="440.48" y2="343.09"/><line class="f" x1="440.48" y1="343.09" x2="439.42" y2="343.09"/><line class="f" x1="439.42" y1="343.09" x2="439.42" y2="342.55"/><line class="f" x1="463.78" y1="343.83" x2="432" y2="343.83"/><line class="f" x1="417.93" y1="282.18" x2="417.93" y2="264.76"/><line class="f" x1="417.93" y1="264.76" x2="445.8" y2="264.76"/><line class="f" x1="445.8" y1="264.76" x2="445.8" y2="282.18"/><line class="f" x1="445.8" y1="282.18" x2="417.94" y2="282.18"/><line class="f" x1="480.99" y1="463.03" x2="480.99" y2="463.03"/><line class="f" x1="480.99" y1="463.03" x2="460.09" y2="463.03"/><line class="f" x1="460.09" y1="463.03" x2="460.09" y2="463.03"/><line class="f" x1="536.03" y1="463.03" x2="417.93" y2="463.03"/><line class="f" x1="417.93" y1="463.03" x2="417.93" y2="463.03"/><line class="f" x1="536.03" y1="463.03" x2="536.03" y2="463.03"/><line class="f" x1="398.08" y1="463.03" x2="384.15" y2="463.03"/><line class="f" x1="384.14" y1="463.03" x2="384.14" y2="463.03"/><line class="f" x1="398.08" y1="463.03" x2="398.08" y2="463.03"/><line class="f" x1="331.19" y1="337.28" x2="331.19" y2="315.97"/><line class="f" x1="331.19" y1="315.97" x2="310.29" y2="315.97"/><line class="f" x1="310.29" y1="315.97" x2="310.29" y2="337.28"/><line class="f" x1="310.29" y1="337.28" x2="331.2" y2="337.28"/><line class="f" x1="268.49" y1="189.93" x2="247.24" y2="189.93"/><line class="f" x1="247.24" y1="189.93" x2="247.24" y2="211.11"/><line class="f" x1="247.24" y1="211.11" x2="268.49" y2="211.11"/><line class="f" x1="268.49" y1="211.11" x2="268.49" y2="189.93"/><line class="f" x1="485.86" y1="249.08" x2="485.86" y2="297.85"/><line class="f" x1="485.86" y1="297.85" x2="482.38" y2="297.85"/><line class="f" x1="482.38" y1="297.85" x2="482.38" y2="249.08"/><line class="f" x1="482.38" y1="249.08" x2="485.86" y2="249.08"/><line class="f" x1="271.62" y1="191.6" x2="299.49" y2="191.6"/><line class="f" x1="299.49" y1="191.6" x2="299.49" y2="193.9"/><line class="f" x1="299.49" y1="193.9" x2="271.63" y2="193.9"/><line class="f" x1="271.62" y1="193.9" x2="271.62" y2="191.6"/><line class="f" x1="334.33" y1="226.44" x2="355.23" y2="226.44"/><line class="f" x1="355.23" y1="226.44" x2="355.23" y2="228.74"/><line class="f" x1="355.23" y1="228.74" x2="334.33" y2="228.74"/><line class="f" x1="334.33" y1="228.74" x2="334.33" y2="226.44"/><line class="f" x1="534.63" y1="367.52" x2="534.63" y2="402.36"/><line class="f" x1="534.63" y1="402.36" x2="532.44" y2="402.36"/><line class="f" x1="532.44" y1="402.36" x2="532.44" y2="367.52"/><line class="f" x1="532.44" y1="367.52" x2="534.63" y2="367.52"/><g class="h"><path class="f" d="M326.84,326.42a6.1,6.1,0,1,0-6.1,6.09,6.1,6.1,0,0,0,6.1-6.09"/><path class="f" d="M325.79,326.42a5.05,5.05,0,1,0-5.05,5.05,5,5,0,0,0,5.05-5.05"/><path class="f" d="M290.09,328.16a.7.7,0,0,0-1.4,0,.7.7,0,0,0,1.4,0"/><path class="f" d="M256.33,268.5a3.42,3.42,0,1,0-3.42,3.41,3.42,3.42,0,0,0,3.42-3.41"/><path class="f" d="M266.59,268.5a3.42,3.42,0,1,0-3.42,3.41,3.42,3.42,0,0,0,3.42-3.41"/><path class="f" d="M266.59,258.24a3.42,3.42,0,1,0-3.42,3.42,3.42,3.42,0,0,0,3.42-3.42"/><path class="f" d="M441.54,345.58a6.36,6.36,0,0,1,12.71,0"/><path class="f" d="M454.25,345.58a12.73,12.73,0,0,1-12.71,0"/><path class="f" d="M485.86,301.34a1.74,1.74,0,1,0-1.74,1.74,1.74,1.74,0,0,0,1.74-1.74"/><path class="f" d="M304.72,192.75A1.74,1.74,0,1,0,303,194.5a1.74,1.74,0,0,0,1.74-1.75"/><path class="f" d="M360.46,227.59a1.75,1.75,0,1,0-1.74,1.74,1.74,1.74,0,0,0,1.74-1.74"/><path class="f" d="M535.21,405.84a1.75,1.75,0,1,0-1.74,1.74,1.74,1.74,0,0,0,1.74-1.74"/></g><line class="f" x1="363.94" y1="214.31" x2="395.29" y2="214.31"/><g class="h"><path class="f" d="M254.21,371.94a.87.87,0,1,0-.87.87.87.87,0,0,0,.87-.87"/></g><line class="f" x1="277.72" y1="371.94" x2="277.72" y2="392.84"/><line class="f" x1="274.24" y1="396.33" x2="253.34" y2="396.33"/><line class="f" x1="249.85" y1="392.84" x2="249.85" y2="371.94"/><line class="f" x1="253.34" y1="368.46" x2="274.24" y2="368.46"/><g class="h"><path class="f" d="M274.24,368.46a3.48,3.48,0,0,1,3.48,3.48"/><path class="f" d="M277.72,392.84a3.48,3.48,0,0,1-3.48,3.49"/><path class="f" d="M249.85,371.94a3.48,3.48,0,0,1,3.49-3.48"/><path class="f" d="M253.34,396.33a3.49,3.49,0,0,1-3.49-3.49"/></g><rect class="d" x="417.93" y="264.82" width="27.87" height="17.42"/><line class="f" x1="417.93" y1="264.82" x2="417.93" y2="282.24"/><line class="f" x1="445.8" y1="264.82" x2="417.94" y2="264.82"/><line class="f" x1="445.8" y1="282.24" x2="445.8" y2="264.82"/><line class="f" x1="417.93" y1="282.24" x2="445.8" y2="282.24"/><rect class="d" x="283.82" y="395.57" width="1.04" height="2.44"/><line class="f" x1="283.82" y1="395.57" x2="283.82" y2="398"/><line class="f" x1="284.86" y1="395.57" x2="283.82" y2="395.57"/><line class="f" x1="284.86" y1="398" x2="284.86" y2="395.57"/><line class="f" x1="283.82" y1="398" x2="284.86" y2="398"/><rect class="d" x="283.82" y="394.52" width="20.9" height="1.05"/><line class="f" x1="304.72" y1="394.52" x2="283.82" y2="394.52"/><line class="f" x1="304.72" y1="395.57" x2="304.72" y2="394.52"/><line class="f" x1="283.82" y1="395.57" x2="304.72" y2="395.57"/><line class="f" x1="283.82" y1="394.52" x2="283.82" y2="395.57"/><rect class="d" x="303.67" y="395.57" width="1.05" height="2.44"/><line class="f" x1="303.67" y1="395.57" x2="303.67" y2="398"/><line class="f" x1="304.72" y1="395.57" x2="303.67" y2="395.57"/><line class="f" x1="304.72" y1="398" x2="304.72" y2="395.57"/><line class="f" x1="303.67" y1="398" x2="304.72" y2="398"/><rect class="d" x="278.59" y="339.72" width="58.52" height="5.57"/><line class="f" x1="337.12" y1="345.29" x2="337.12" y2="339.72"/><line class="f" x1="278.59" y1="345.29" x2="337.12" y2="345.29"/><line class="f" x1="278.59" y1="339.72" x2="278.59" y2="345.29"/><line class="f" x1="337.12" y1="339.72" x2="278.59" y2="339.72"/><rect class="d" x="482.38" y="249.08" width="3.48" height="48.77"/><line class="f" x1="482.38" y1="297.85" x2="485.86" y2="297.85"/><line class="f" x1="482.38" y1="249.08" x2="482.38" y2="297.85"/><line class="f" x1="485.86" y1="249.08" x2="482.38" y2="249.08"/><line class="f" x1="485.86" y1="297.85" x2="485.86" y2="249.08"/><polygon class="g" points="485.86 301.34 485.35 302.57 484.12 303.08 482.89 302.57 482.38 301.34 482.89 300.1 484.12 299.59 485.35 300.1 485.86 301.34"/><g class="h"><path class="f" d="M485.86,301.34a1.74,1.74,0,1,1-3.48,0"/><path class="f" d="M482.38,301.34a1.74,1.74,0,1,1,3.48,0"/></g><rect class="d" x="532.44" y="367.52" width="2.2" height="34.84"/><line class="f" x1="532.44" y1="402.36" x2="534.63" y2="402.36"/><line class="f" x1="532.44" y1="367.52" x2="532.44" y2="402.36"/><line class="f" x1="534.63" y1="367.52" x2="532.44" y2="367.52"/><line class="f" x1="534.63" y1="402.36" x2="534.63" y2="367.52"/><polygon class="g" points="535.21 405.84 534.7 407.07 533.47 407.58 532.23 407.07 531.72 405.84 532.23 404.61 533.47 404.1 534.7 404.61 535.21 405.84"/><g class="h"><path class="f" d="M535.21,405.84a1.75,1.75,0,0,1-3.49,0"/><path class="f" d="M531.72,405.84a1.75,1.75,0,0,1,3.49,0"/></g><rect class="d" x="271.62" y="191.6" width="27.87" height="2.3"/><line class="f" x1="299.49" y1="193.9" x2="299.49" y2="191.6"/><line class="f" x1="271.62" y1="193.9" x2="299.49" y2="193.9"/><line class="f" x1="271.62" y1="191.6" x2="271.62" y2="193.9"/><line class="f" x1="299.49" y1="191.6" x2="271.63" y2="191.6"/><polygon class="g" points="301.24 192.75 301.75 191.52 302.98 191.01 304.21 191.52 304.72 192.75 304.21 193.99 302.98 194.5 301.75 193.99 301.24 192.75"/><g class="h"><path class="f" d="M301.24,192.75a1.74,1.74,0,0,1,3.48,0"/><path class="f" d="M304.72,192.75a1.74,1.74,0,1,1-3.48,0"/></g><rect class="d" x="334.33" y="226.44" width="20.9" height="2.3"/><line class="f" x1="355.23" y1="226.44" x2="334.33" y2="226.44"/><line class="f" x1="355.23" y1="228.74" x2="355.23" y2="226.44"/><line class="f" x1="334.33" y1="228.74" x2="355.23" y2="228.74"/><line class="f" x1="334.33" y1="226.44" x2="334.33" y2="228.74"/><polygon class="g" points="360.46 227.59 359.94 228.82 358.71 229.33 357.48 228.82 356.97 227.59 357.48 226.36 358.71 225.85 359.94 226.36 360.46 227.59"/><g class="h"><path class="f" d="M360.46,227.59a1.75,1.75,0,0,1-3.49,0"/><path class="f" d="M357,227.59a1.75,1.75,0,0,1,3.49,0"/></g><polygon class="g" points="445.8 454.67 508.51 454.67 508.51 444.26 508.51 392.22 507.97 389.57 506.46 387.32 504.2 385.81 501.54 385.28 452.77 385.28 450.1 385.81 447.84 387.32 446.33 389.57 445.8 392.22 445.8 454.67"/><rect class="d" x="433.61" y="444.27" width="12.19" height="10.41"/><rect class="d" x="508.51" y="444.27" width="12.19" height="10.41"/><line class="f" x1="479.13" y1="443.14" x2="479.96" y2="446.14"/><line class="f" x1="449.88" y1="443.14" x2="450.71" y2="446.14"/><line class="f" x1="501.54" y1="385.28" x2="452.77" y2="385.28"/><line class="f" x1="445.8" y1="392.22" x2="445.8" y2="454.67"/><line class="f" x1="445.8" y1="454.67" x2="508.51" y2="454.67"/><line class="f" x1="508.51" y1="454.67" x2="508.51" y2="392.22"/><line class="f" x1="445.8" y1="454.67" x2="433.61" y2="454.67"/><line class="f" x1="433.61" y1="454.67" x2="433.61" y2="444.27"/><line class="f" x1="433.61" y1="444.27" x2="445.8" y2="444.27"/><line class="f" x1="445.8" y1="444.27" x2="445.8" y2="454.67"/><line class="f" x1="520.7" y1="454.67" x2="508.51" y2="454.67"/><line class="f" x1="508.51" y1="454.67" x2="508.51" y2="444.27"/><line class="f" x1="508.51" y1="444.27" x2="520.7" y2="444.27"/><line class="f" x1="520.7" y1="444.27" x2="520.7" y2="454.67"/><line class="f" x1="445.8" y1="431.59" x2="508.51" y2="431.59"/><line class="f" x1="445.8" y1="426.38" x2="508.51" y2="426.38"/><g class="h"><path class="f" d="M474.51,436.85a98.41,98.41,0,0,1-12.84.84,95.6,95.6,0,0,1-9.86-.5"/><path class="f" d="M449.54,439.1V439a1.86,1.86,0,0,1,1.86-1.86,1.75,1.75,0,0,1,.4,0"/><path class="f" d="M449.88,443.14a14.49,14.49,0,0,1-.36-3.21c0-.28,0-.56,0-.83"/><path class="f" d="M449.68,450.88c0-.83-.06-1.67-.06-2.51a50.74,50.74,0,0,1,.26-5.23"/><path class="f" d="M450.14,451.39h-.09a.39.39,0,0,1-.39-.39.36.36,0,0,1,0-.11"/><path class="f" d="M450.14,451.39q7.47-.57,15-.57,4.74,0,9.46.22"/><path class="f" d="M475.71,449.79a1.12,1.12,0,0,1,.05.31,1,1,0,0,1-1,1l-.21,0"/><path class="f" d="M475.71,449.79a45.06,45.06,0,0,1-.49-6.67,46.77,46.77,0,0,1,.3-5.29"/><path class="f" d="M474.51,436.85a.67.67,0,0,1,.24,0,.8.8,0,0,1,.81.8.54.54,0,0,1,0,.22"/><path class="f" d="M445.8,392.23h0a7,7,0,0,1,7-6.94"/><path class="f" d="M501.54,385.29h0a7,7,0,0,1,7,6.94"/><path class="f" d="M503.76,436.85a98.41,98.41,0,0,1-12.84.84,95.8,95.8,0,0,1-9.87-.5"/><path class="f" d="M478.8,439.1a.28.28,0,0,1,0-.09,1.87,1.87,0,0,1,1.87-1.86,1.81,1.81,0,0,1,.4,0"/><path class="f" d="M479.13,443.14a14.49,14.49,0,0,1-.36-3.21c0-.28,0-.56,0-.83"/><path class="f" d="M478.93,450.88c0-.83-.06-1.67-.06-2.51,0-1.75.08-3.49.25-5.23"/><path class="f" d="M479.39,451.39h-.08a.39.39,0,0,1-.4-.39.36.36,0,0,1,0-.11"/><path class="f" d="M479.39,451.39q7.49-.57,15-.57,4.74,0,9.46.22"/><path class="f" d="M505,449.79a1.12,1.12,0,0,1,.05.31,1,1,0,0,1-1,1l-.21,0"/><path class="f" d="M505,449.79a46.46,46.46,0,0,1-.49-6.67,44.56,44.56,0,0,1,.31-5.29"/><path class="f" d="M503.76,436.85a.69.69,0,0,1,.25,0,.8.8,0,0,1,.8.8.78.78,0,0,1,0,.22"/></g><polygon class="g" points="452.71 257.16 453.08 257.8 453.81 257.86 479.59 257.86 480.08 257.89 480.48 257.62 480.64 257.16 480.64 228.94 480.43 228.45 479.94 228.25 408.18 228.25 407.69 228.45 407.48 228.94 407.48 254.37 407.95 256.11 409.23 257.39 410.97 257.86 412.01 257.86 412.5 257.65 412.71 257.16 413.12 257.67 413.75 257.86 451.73 257.86 452.33 257.67 452.71 257.16"/><polygon class="g" points="452.77 280.5 453.3 283.17 454.81 285.43 457.07 286.94 459.74 287.46 473.67 287.46 476.34 286.94 478.6 285.43 480.11 283.17 480.64 280.5 480.64 258.9 480.33 258.16 479.59 257.86 453.82 257.86 453.08 258.16 452.77 258.9 452.77 280.5"/><line class="f" x1="452.77" y1="258.9" x2="452.77" y2="280.5"/><g class="h"><path class="f" d="M452.77,258.9a1,1,0,0,1,1.05-1"/></g><line class="f" x1="479.59" y1="257.86" x2="453.81" y2="257.86"/><g class="h"><path class="f" d="M479.59,257.86a1,1,0,0,1,1.05,1"/></g><line class="f" x1="480.64" y1="280.5" x2="480.64" y2="258.9"/><g class="h"><path class="f" d="M480.64,280.5a7,7,0,0,1-7,7"/></g><line class="f" x1="459.74" y1="287.46" x2="473.67" y2="287.46"/><g class="h"><path class="f" d="M459.74,287.46a7,7,0,0,1-7-7"/></g><line class="f" x1="412.01" y1="257.86" x2="410.97" y2="257.86"/><line class="f" x1="407.48" y1="254.37" x2="407.48" y2="228.94"/><line class="f" x1="408.18" y1="228.25" x2="412.01" y2="228.25"/><line class="f" x1="412.71" y1="228.94" x2="412.71" y2="257.16"/><line class="f" x1="412.01" y1="228.25" x2="452.77" y2="228.25"/><line class="f" x1="452.77" y1="228.25" x2="452.77" y2="230.68"/><line class="f" x1="451.72" y1="257.86" x2="413.75" y2="257.86"/><line class="f" x1="412.71" y1="256.81" x2="412.71" y2="239.35"/><line class="f" x1="452.77" y1="239.35" x2="452.77" y2="256.81"/><line class="f" x1="412.71" y1="230.68" x2="412.71" y2="237.26"/><line class="f" x1="452.77" y1="237.26" x2="452.77" y2="230.68"/><line class="f" x1="476.11" y1="257.86" x2="479.94" y2="257.86"/><line class="f" x1="480.64" y1="257.16" x2="480.64" y2="228.94"/><line class="f" x1="479.94" y1="228.25" x2="476.11" y2="228.25"/><line class="f" x1="476.11" y1="228.25" x2="452.77" y2="228.25"/><line class="f" x1="452.77" y1="228.25" x2="452.77" y2="230.68"/><line class="f" x1="453.81" y1="257.86" x2="474.37" y2="257.86"/><line class="f" x1="452.77" y1="239.35" x2="452.77" y2="256.81"/><line class="f" x1="452.77" y1="239.35" x2="452.77" y2="230.69"/><line class="f" x1="459.74" y1="287.46" x2="473.67" y2="287.46"/><line class="f" x1="480.64" y1="280.5" x2="480.64" y2="258.9"/><line class="f" x1="479.59" y1="257.86" x2="453.81" y2="257.86"/><line class="f" x1="452.77" y1="258.9" x2="452.77" y2="280.5"/><line class="f" x1="453.81" y1="229.64" x2="479.59" y2="229.64"/><line class="f" x1="451.72" y1="229.64" x2="413.75" y2="229.64"/><g class="h"><path class="f" d="M407.48,228.94a.69.69,0,0,1,.7-.69"/><path class="f" d="M412,228.25a.69.69,0,0,1,.7.69"/><path class="f" d="M412.71,257.16a.7.7,0,0,1-.7.7"/><path class="f" d="M413.75,257.86a1,1,0,0,1-1-1.05"/><path class="f" d="M452.77,256.81a1,1,0,0,1-1,1.05"/><path class="f" d="M480.64,257.16a.71.71,0,0,1-.7.7"/><path class="f" d="M479.94,228.25a.7.7,0,0,1,.7.69"/><path class="f" d="M453.81,257.86a1,1,0,0,1-1-1.05"/><path class="f" d="M479.59,257.86a1,1,0,0,1,1.05,1"/><path class="f" d="M452.77,258.9a1,1,0,0,1,1.05-1"/></g><line class="f" x1="479.59" y1="229.64" x2="479.59" y2="253.37"/><g class="h"><path class="f" d="M453.77,233.69a19.75,19.75,0,0,1,24.56,14.89"/><path class="f" d="M451.72,234.52a119.32,119.32,0,0,1-38,0"/><path class="f" d="M459.74,287.46a7,7,0,0,1-7-7"/><path class="f" d="M480.64,280.5a7,7,0,0,1-7,7"/><path class="f" d="M411,257.86a3.49,3.49,0,0,1-3.49-3.49"/></g><polygon class="g" points="340.17 250.61 336.26 243.86 334.99 242.59 333.24 242.12 331.5 242.58 325.46 246.06 324.19 247.33 323.72 249.07 324.19 250.81 328.1 257.56 330.31 254.68 333.2 252.47 336.56 251.08 340.17 250.61"/><polygon class="g" points="352.29 271.52 360.09 271.53 361.83 271.07 363.1 269.8 363.57 268.06 363.56 261.09 363.09 259.35 361.81 258.08 360.07 257.61 352.27 257.59 353.66 260.95 354.15 264.56 353.68 268.16 352.29 271.52"/><polygon class="g" points="328.12 271.48 324.23 278.22 323.77 279.96 324.24 281.7 325.52 282.98 331.56 286.47 333.31 286.94 335.05 286.47 336.33 285.2 340.22 278.47 336.61 277.99 333.24 276.59 330.35 274.37 328.12 271.48"/><polygon class="g" points="328.1 257.56 330.31 254.68 333.2 252.47 336.56 251.08 340.17 250.61 343.78 251.09 347.15 252.49 350.04 254.71 352.27 257.59 353.66 260.95 354.15 264.56 353.68 268.16 352.29 271.52 350.07 274.4 347.19 276.61 343.82 278 340.22 278.47 336.6 277.99 333.24 276.59 330.35 274.37 328.12 271.48 326.72 268.12 326.24 264.52 326.71 260.91 328.1 257.56"/><line class="f" x1="328.1" y1="257.56" x2="330.31" y2="254.68"/><line class="f" x1="330.31" y1="254.68" x2="333.2" y2="252.47"/><line class="f" x1="333.2" y1="252.47" x2="336.56" y2="251.08"/><line class="f" x1="336.56" y1="251.08" x2="340.17" y2="250.61"/><line class="f" x1="340.17" y1="250.61" x2="343.78" y2="251.09"/><line class="f" x1="343.78" y1="251.09" x2="347.15" y2="252.49"/><line class="f" x1="347.15" y1="252.49" x2="350.05" y2="254.71"/><line class="f" x1="350.04" y1="254.71" x2="352.27" y2="257.59"/><line class="f" x1="352.27" y1="257.59" x2="353.66" y2="260.95"/><line class="f" x1="353.66" y1="260.95" x2="354.15" y2="264.56"/><line class="f" x1="354.15" y1="264.56" x2="353.68" y2="268.16"/><line class="f" x1="353.68" y1="268.16" x2="352.29" y2="271.52"/><line class="f" x1="352.29" y1="271.52" x2="350.08" y2="274.4"/><line class="f" x1="350.08" y1="274.4" x2="347.19" y2="276.61"/><line class="f" x1="347.19" y1="276.61" x2="343.83" y2="278"/><line class="f" x1="343.83" y1="278" x2="340.22" y2="278.47"/><line class="f" x1="340.22" y1="278.47" x2="336.6" y2="277.99"/><line class="f" x1="336.6" y1="277.99" x2="333.24" y2="276.59"/><line class="f" x1="333.24" y1="276.59" x2="330.34" y2="274.37"/><line class="f" x1="330.34" y1="274.37" x2="328.12" y2="271.48"/><line class="f" x1="328.12" y1="271.48" x2="326.72" y2="268.13"/><line class="f" x1="326.72" y1="268.12" x2="326.24" y2="264.52"/><line class="f" x1="326.24" y1="264.52" x2="326.71" y2="260.91"/><line class="f" x1="326.71" y1="260.91" x2="328.1" y2="257.56"/><g class="h"><path class="f" d="M347.15,252.49h0a13.91,13.91,0,1,1-13.91,24.1"/><path class="f" d="M333.24,276.59h0a13.91,13.91,0,1,1,13.91-24.1"/></g><line class="f" x1="332.37" y1="244.09" x2="326.34" y2="247.56"/><line class="f" x1="324.19" y1="250.81" x2="328.1" y2="257.56"/><line class="f" x1="331.5" y1="242.58" x2="325.46" y2="246.06"/><line class="f" x1="340.17" y1="250.61" x2="336.26" y2="243.86"/><line class="f" x1="361.83" y1="268.05" x2="361.81" y2="261.09"/><line class="f" x1="360.07" y1="257.61" x2="352.27" y2="257.59"/><line class="f" x1="363.57" y1="268.05" x2="363.56" y2="261.09"/><line class="f" x1="352.29" y1="271.52" x2="360.09" y2="271.53"/><line class="f" x1="326.39" y1="281.47" x2="332.43" y2="284.96"/><line class="f" x1="336.33" y1="285.2" x2="340.22" y2="278.47"/><line class="f" x1="325.52" y1="282.98" x2="331.56" y2="286.47"/><line class="f" x1="328.12" y1="271.48" x2="324.23" y2="278.22"/><g class="h"><path class="f" d="M325.7,249.94a1.74,1.74,0,0,1,0-1.74,1.64,1.64,0,0,1,.64-.64"/><path class="f" d="M332.37,244.09a1.76,1.76,0,0,1,1.75,0,1.84,1.84,0,0,1,.63.64"/><path class="f" d="M324.19,250.81a3.46,3.46,0,0,1,0-3.48,3.37,3.37,0,0,1,1.27-1.27"/><path class="f" d="M331.5,242.58a3.48,3.48,0,0,1,3.49,0,3.37,3.37,0,0,1,1.27,1.27"/><path class="f" d="M360.07,259.35a1.8,1.8,0,0,1,.87.23,1.74,1.74,0,0,1,.87,1.51"/><path class="f" d="M361.82,268.05a1.73,1.73,0,0,1-1.74,1.74"/><path class="f" d="M360.06,257.61a3.55,3.55,0,0,1,1.75.46,3.51,3.51,0,0,1,1.75,3"/><path class="f" d="M363.57,268.06a3.44,3.44,0,0,1-.47,1.74,3.48,3.48,0,0,1-3,1.73"/><path class="f" d="M334.82,284.33h0a1.75,1.75,0,0,1-2.39.63"/><path class="f" d="M326.39,281.47a1.74,1.74,0,0,1-.64-2.38"/><path class="f" d="M336.33,285.2h0a3.49,3.49,0,0,1-4.77,1.27"/><path class="f" d="M325.52,283h0a3.49,3.49,0,0,1-1.29-4.76"/></g><rect class="d" x="386.23" y="401.38" width="20.9" height="53.3"/><line class="f" x1="407.14" y1="454.67" x2="407.14" y2="401.38"/><line class="f" x1="407.14" y1="401.38" x2="386.23" y2="401.38"/><line class="f" x1="386.23" y1="401.38" x2="386.23" y2="454.67"/><line class="f" x1="386.23" y1="454.67" x2="407.14" y2="454.67"/><line class="f" x1="396.68" y1="452.01" x2="396.68" y2="404.04"/><line class="f" x1="402.83" y1="449.54" x2="390.31" y2="445.03"/><line class="f" x1="403.46" y1="444.45" x2="391.81" y2="442.59"/><line class="f" x1="389.15" y1="437.51" x2="401.93" y2="435.98"/><line class="f" x1="390.83" y1="429.65" x2="401.93" y2="431.73"/><line class="f" x1="390.19" y1="426.79" x2="403.87" y2="426.79"/><line class="f" x1="390.13" y1="418.69" x2="403.65" y2="420.61"/><line class="f" x1="390.35" y1="415.66" x2="402.71" y2="415.66"/><line class="f" x1="390.23" y1="407.66" x2="402.9" y2="406.13"/><line class="f" x1="391.09" y1="409.59" x2="401.8" y2="411.15"/><rect class="d" x="490.04" y="339.72" width="46.33" height="13.93"/><line class="f" x1="490.04" y1="339.72" x2="536.37" y2="339.72"/><line class="f" x1="536.37" y1="339.72" x2="536.37" y2="353.65"/><line class="f" x1="536.37" y1="353.65" x2="490.04" y2="353.65"/><line class="f" x1="490.04" y1="353.65" x2="490.04" y2="339.72"/><line class="f" x1="492.36" y1="346.68" x2="534.06" y2="346.68"/><line class="f" x1="494.51" y1="342.59" x2="498.43" y2="350.93"/><line class="f" x1="498.93" y1="342.17" x2="500.55" y2="349.93"/><line class="f" x1="504.96" y1="351.71" x2="506.29" y2="343.19"/><line class="f" x1="511.79" y1="350.59" x2="509.99" y2="343.19"/><line class="f" x1="514.28" y1="351.02" x2="514.28" y2="341.9"/><line class="f" x1="521.33" y1="351.06" x2="519.65" y2="342.04"/><line class="f" x1="523.96" y1="350.91" x2="523.96" y2="342.67"/><line class="f" x1="530.91" y1="350.99" x2="532.25" y2="342.55"/><line class="f" x1="529.24" y1="350.41" x2="527.88" y2="343.27"/><polygon class="g" points="328.58 345.29 310.47 345.29 310.1 345.44 309.94 345.81 309.94 360.1 310.1 360.47 310.47 360.62 328.58 360.62 328.95 360.47 329.1 360.1 329.1 345.81 328.95 345.44 328.58 345.29"/><g class="h"><path class="f" d="M328.58,345.29a.52.52,0,0,1,.52.52"/></g><line class="f" x1="329.1" y1="360.1" x2="329.1" y2="345.81"/><g class="h"><path class="f" d="M329.1,360.1a.52.52,0,0,1-.52.52"/></g><line class="f" x1="310.47" y1="360.62" x2="328.58" y2="360.62"/><g class="h"><path class="f" d="M310.47,360.62a.52.52,0,0,1-.53-.52"/></g><line class="f" x1="309.94" y1="345.81" x2="309.94" y2="360.1"/><g class="h"><path class="f" d="M309.94,345.81a.52.52,0,0,1,.53-.52"/></g><line class="f" x1="328.58" y1="345.29" x2="310.47" y2="345.29"/><line class="f" x1="327.54" y1="349.12" x2="311.51" y2="349.12"/><line class="f" x1="310.99" y1="349.65" x2="310.99" y2="359.05"/><line class="f" x1="311.51" y1="359.57" x2="327.54" y2="359.57"/><line class="f" x1="328.06" y1="359.05" x2="328.06" y2="349.65"/><g class="h"><path class="f" d="M311,349.65a.52.52,0,0,1,.52-.53"/><path class="f" d="M311.51,359.57a.52.52,0,0,1-.52-.52"/><path class="f" d="M328.06,359.05a.52.52,0,0,1-.52.52"/><path class="f" d="M327.54,349.12a.53.53,0,0,1,.52.53"/></g><polygon class="g" points="320.39 347.38 320.25 348.84 320.14 349.18 319.91 351.02 319.78 351.26 319.52 351.36 319.27 351.26 319.14 351.02 318.91 349.18 318.79 348.84 318.65 347.38 318.91 346.77 319.52 346.51 320.14 346.77 320.39 347.38"/><line class="f" x1="320.39" y1="347.38" x2="320.26" y2="348.84"/><g class="h"><path class="f" d="M320.26,348.84a.87.87,0,0,1-.12.34"/></g><line class="f" x1="320.14" y1="349.18" x2="319.91" y2="351.02"/><g class="h"><path class="f" d="M319.91,351a.4.4,0,0,1-.39.34.39.39,0,0,1-.38-.34"/></g><line class="f" x1="319.14" y1="351.02" x2="318.91" y2="349.18"/><g class="h"><path class="f" d="M318.91,349.18a.73.73,0,0,1-.12-.34"/></g><line class="f" x1="318.79" y1="348.84" x2="318.65" y2="347.38"/><g class="h"><path class="f" d="M318.65,347.38a.87.87,0,0,1,1.74,0"/></g><line class="f" x1="319.05" y1="348.25" x2="319.05" y2="348.77"/><line class="f" x1="320" y1="348.77" x2="320" y2="348.25"/><line class="f" x1="320" y1="348.25" x2="319.05" y2="348.25"/><g class="h"><path class="f" d="M320,348.77a.48.48,0,0,1-.95,0"/><path class="f" d="M320.14,349.18a.75.75,0,0,1-.62.33.73.73,0,0,1-.61-.33"/></g><polygon class="g" points="301.58 345.29 288.69 345.29 288.69 356.79 288.96 358.51 289.74 360.07 290.96 361.32 292.94 362.35 295.14 362.71 297.34 362.35 299.32 361.32 300.54 360.07 301.31 358.51 301.58 356.79 301.58 345.29"/><line class="f" x1="288.69" y1="345.29" x2="288.69" y2="356.79"/><line class="f" x1="288.69" y1="345.29" x2="301.58" y2="345.29"/><line class="f" x1="301.58" y1="345.29" x2="301.58" y2="356.79"/><line class="f" x1="290.78" y1="349.47" x2="290.78" y2="356.79"/><line class="f" x1="299.49" y1="349.47" x2="299.49" y2="356.79"/><line class="f" x1="299.49" y1="349.47" x2="290.79" y2="349.47"/><g class="h"><path class="f" d="M291,361.32a5.66,5.66,0,0,1-2.27-4.53"/><path class="f" d="M301.58,356.79a5.68,5.68,0,0,1-2.26,4.53"/><path class="f" d="M299.32,361.32a7,7,0,0,1-8.36,0"/><path class="f" d="M301.58,356.79a5.68,5.68,0,0,1-2.26,4.53"/><path class="f" d="M299.32,361.32a7,7,0,0,1-4.18,1.39"/><path class="f" d="M299.49,356.79a3.58,3.58,0,0,1-1.42,2.85"/><path class="f" d="M298.07,359.64a4.87,4.87,0,0,1-5.86,0"/><path class="f" d="M292.21,359.64a3.56,3.56,0,0,1-1.43-2.85"/></g><line class="f" x1="255.66" y1="296.88" x2="255.66" y2="291.04"/><line class="f" x1="255.66" y1="291.03" x2="258.03" y2="292.95"/><line class="f" x1="258.03" y1="292.95" x2="260.4" y2="291.03"/><line class="f" x1="260.4" y1="291.03" x2="260.4" y2="296.88"/><line class="f" x1="402.26" y1="210.83" x2="402.26" y2="156.83"/><line class="f" x1="402.26" y1="156.83" x2="329.1" y2="156.83"/><line class="f" x1="329.1" y1="156.83" x2="329.1" y2="175.99"/><line class="f" x1="404" y1="210.83" x2="404" y2="155.09"/><line class="f" x1="327.36" y1="155.09" x2="327.36" y2="175.99"/><rect x="240.27" y="398.94" width="99.28" height="8.36"/><rect x="240.27" y="189.93" width="6.97" height="209.01"/><rect x="240.27" y="175.99" width="29.61" height="6.97"/><rect x="240.27" y="182.96" width="27.87" height="6.97"/><polygon class="i" points="395.29 217.79 395.29 210.83 404 210.83 501.54 210.83 501.54 243.92 494.57 243.92 494.57 217.79 395.29 217.79"/><polygon class="i" points="334.33 224.76 320.39 224.76 320.39 189.93 302.98 189.93 302.98 182.96 327.36 182.96 327.36 217.79 334.33 217.79 334.33 224.76"/><polygon class="i" points="301.24 175.99 327.36 175.99 334.33 175.99 334.33 210.83 336.07 210.83 336.07 217.8 327.36 217.8 327.36 182.96 301.24 182.96 301.24 175.99"/><polygon class="i" points="397.03 217.79 494.57 217.79 494.57 242.18 487.61 242.18 487.61 224.76 397.03 224.76 397.03 217.79"/><rect x="536.37" y="412.87" width="6.97" height="50.16"/><polygon class="i" points="494.57 303.14 501.54 303.14 501.54 325.78 550.31 325.78 550.31 358.88 543.34 358.88 543.34 332.75 494.57 332.75 494.57 303.14"/><polygon class="i" points="487.61 304.88 494.57 304.88 494.57 332.75 543.34 332.75 543.34 357.14 536.37 357.14 536.37 339.72 487.61 339.72 487.61 304.88"/><rect x="543.34" y="411.13" width="6.97" height="51.9"/><rect x="339.56" y="403.29" width="1.74" height="4.01"/><polygon class="i" points="377.87 398.94 386.23 398.94 386.23 454.67 536.37 454.67 536.37 463.03 377.87 463.03 377.87 407.3 377.87 398.94"/><rect x="337.12" y="395.45" width="2.44" height="3.48"/><polygon class="i" points="386.23 398.94 404.7 398.94 404.7 390.23 407.13 390.23 407.13 401.38 386.23 401.38 386.23 398.94"/><polygon class="i" points="247.24 339.72 247.24 337.28 343.04 337.28 343.04 339.72 339.56 339.72 339.56 367.59 337.12 367.59 337.12 339.72 247.24 339.72"/><polygon class="i" points="404.7 339.72 374.39 339.72 374.39 337.28 407.13 337.28 407.13 351.21 487.61 351.21 487.61 339.72 490.04 339.72 490.04 353.65 407.13 353.65 407.13 358.88 404.7 358.88 404.7 339.72"/><rect x="275.11" y="339.72" width="3.48" height="22.64"/><rect x="247.24" y="362.36" width="31.35" height="3.48"/><rect x="376.13" y="403.29" width="1.74" height="4.01"/><line class="f" x1="327.36" y1="175.99" x2="240.27" y2="175.99"/><line class="f" x1="240.27" y1="175.99" x2="240.27" y2="407.3"/><line class="f" x1="240.27" y1="407.3" x2="377.87" y2="407.3"/><line class="f" x1="377.87" y1="407.3" x2="377.87" y2="463.03"/><line class="f" x1="377.87" y1="463.03" x2="536.37" y2="463.03"/><line class="f" x1="536.37" y1="463.03" x2="550.31" y2="463.03"/><line class="f" x1="550.31" y1="463.03" x2="550.31" y2="325.78"/><line class="f" x1="550.31" y1="325.78" x2="501.54" y2="325.78"/><line class="f" x1="501.54" y1="325.78" x2="501.54" y2="210.83"/><line class="f" x1="501.54" y1="210.83" x2="404" y2="210.83"/><line class="f" x1="404" y1="210.83" x2="404" y2="155.09"/><line class="f" x1="404" y1="155.09" x2="327.36" y2="155.09"/><line class="f" x1="327.36" y1="155.09" x2="327.36" y2="175.99"/><path class="j" d="M293,372.77v7h-.72v-6.36h-1.65v-.64Z"/><path class="j" d="M294.63,379.27a.53.53,0,0,1,.53-.54.54.54,0,0,1,.54.54.55.55,0,0,1-.54.55A.54.54,0,0,1,294.63,379.27Z"/><path class="j" d="M296.64,376.27c0-2.23,1.17-3.56,2.79-3.56s2.8,1.33,2.8,3.56-1.18,3.55-2.8,3.55S296.64,378.5,296.64,376.27Zm4.85,0c0-1.87-.84-2.9-2.06-2.9s-2.06,1-2.06,2.9.84,2.9,2.06,2.9S301.49,378.14,301.49,376.27Z"/><path class="j" d="M309.21,377.93h-1.4v1.84h-.72v-1.84h-3.95v-.52l3.71-4.64h.8l-3.58,4.52h3v-1.62h.7v1.62h1.4Z"/><path class="j" d="M468.24,369.31v7h-.72V370h-1.65v-.64Z"/><path class="j" d="M469.92,375.81a.53.53,0,0,1,.53-.54.54.54,0,0,1,.54.54.55.55,0,0,1-.54.55A.54.54,0,0,1,469.92,375.81Z"/><path class="j" d="M471.93,372.81c0-2.23,1.17-3.56,2.79-3.56s2.8,1.33,2.8,3.56-1.18,3.55-2.8,3.55S471.93,375,471.93,372.81Zm4.85,0c0-1.87-.84-2.9-2.06-2.9s-2.06,1-2.06,2.9.84,2.9,2.06,2.9S476.78,374.68,476.78,372.81Z"/><path class="j" d="M483.09,374.3c0,1.17-.85,2.06-2.54,2.06a3.64,3.64,0,0,1-2.52-.89l.35-.57a3.07,3.07,0,0,0,2.17.81c1.16,0,1.8-.54,1.8-1.41s-.59-1.39-1.89-1.39H480v-.53L481.9,370h-3.58v-.64h4.5v.51l-2,2.49C482.34,372.39,483.09,373.18,483.09,374.3Z"/><path class="j" d="M359.29,180.56v7h-.72V181.2h-1.65v-.64Z"/><path class="j" d="M361,187.06a.53.53,0,0,1,.53-.54.54.54,0,0,1,.54.54.55.55,0,0,1-.54.55A.54.54,0,0,1,361,187.06Z"/><path class="j" d="M363,184.06c0-2.23,1.17-3.56,2.79-3.56s2.8,1.33,2.8,3.56-1.18,3.55-2.8,3.55S363,186.29,363,184.06Zm4.85,0c0-1.87-.84-2.9-2.06-2.9s-2.06,1-2.06,2.9.84,2.9,2.06,2.9S367.83,185.93,367.83,184.06Z"/><path class="j" d="M374.35,185.5c0,1.19-.83,2.11-2.54,2.11a3.61,3.61,0,0,1-2.51-.89l.35-.57a3,3,0,0,0,2.15.81c1.19,0,1.82-.58,1.82-1.43s-.56-1.46-2.34-1.46h-1.49l.36-3.51H374v.64h-3.2l-.24,2.23h.9C373.55,183.43,374.35,184.26,374.35,185.5Z"/><path class="j" d="M378.08,284.75v7h-.72v-6.36h-1.65v-.64Z"/><path class="j" d="M379.76,291.25a.53.53,0,0,1,.53-.54.54.54,0,0,1,.54.54.55.55,0,0,1-.54.55A.54.54,0,0,1,379.76,291.25Z"/><path class="j" d="M381.77,288.25c0-2.23,1.17-3.56,2.79-3.56s2.8,1.33,2.8,3.56-1.18,3.56-2.8,3.56S381.77,290.48,381.77,288.25Zm4.85,0c0-1.87-.84-2.9-2.06-2.9s-2.06,1-2.06,2.9.84,2.9,2.06,2.9S386.62,290.12,386.62,288.25Z"/><path class="j" d="M393.16,291.11v.64h-4.91v-.51l2.91-2.85c.79-.78.94-1.25.94-1.73,0-.81-.57-1.31-1.64-1.31a2.38,2.38,0,0,0-1.91.78l-.51-.44a3.15,3.15,0,0,1,2.48-1c1.42,0,2.32.72,2.32,1.89a2.88,2.88,0,0,1-1.15,2.19l-2.38,2.34Z"/><path class="j" d="M378.08,372.77v7h-.72v-6.36h-1.65v-.64Z"/><path class="j" d="M379.76,379.27a.53.53,0,0,1,.53-.54.54.54,0,0,1,.54.54.55.55,0,0,1-.54.55A.54.54,0,0,1,379.76,379.27Z"/><path class="j" d="M381.77,376.27c0-2.23,1.17-3.56,2.79-3.56s2.8,1.33,2.8,3.56-1.18,3.55-2.8,3.55S381.77,378.5,381.77,376.27Zm4.85,0c0-1.87-.84-2.9-2.06-2.9s-2.06,1-2.06,2.9.84,2.9,2.06,2.9S386.62,378.14,386.62,376.27Z"/><path class="j" d="M390.32,372.77v7h-.72v-6.36H388v-.64Z"/></svg>