<svg xmlns="http://www.w3.org/2000/svg" xmlns:xlink="http://www.w3.org/1999/xlink" viewBox="0 0 790.58 618.13"><defs><style>.a,.f{fill:none;}.b{fill:#595a5c;}.c{fill:#b6906c;}.d,.g{fill:#fff;}.e{fill:#231f20;}.f{stroke:#000;stroke-linecap:round;stroke-linejoin:round;stroke-width:0.34px;}.g,.i{fill-rule:evenodd;}.h{clip-path:url(#a);}.j{fill:#58595b;}</style><clipPath id="a"><polygon class="a" points="386.01 157.16 386.01 212.15 289.78 212.15 289.78 325.56 241.67 325.56 241.67 460.96 411.79 460.96 411.79 405.98 548.91 405.98 548.91 177.78 461.62 177.78 461.62 157.16 386.01 157.16"/></clipPath></defs><path class="b" d="M55.31,597.13H57.1V609.9H55.31Zm.92,6.11h4.09a1.89,1.89,0,0,0,1-.27,1.82,1.82,0,0,0,.68-.77,2.67,2.67,0,0,0,.24-1.16,2.7,2.7,0,0,0-.24-1.16,1.82,1.82,0,0,0-1.7-1H56.23v-1.7h4a4.09,4.09,0,0,1,2,.48A3.45,3.45,0,0,1,63.62,599a4.64,4.64,0,0,1,0,4.11,3.34,3.34,0,0,1-1.35,1.36,4,4,0,0,1-2,.49h-4Z"/><path class="b" d="M67.7,606.33a2.07,2.07,0,0,0,.49,1.48,1.76,1.76,0,0,0,1.37.52,1.89,1.89,0,0,0,1.37-.46,1.79,1.79,0,0,0,.48-1.33l.12,1.91A2.58,2.58,0,0,1,69.06,610a2.89,2.89,0,0,1-2.33-1,4.08,4.08,0,0,1-.82-2.73v-5.55H67.7Zm.22-7.86a1.93,1.93,0,0,1-.56-1.5,2.07,2.07,0,0,1,.56-1.57,2.56,2.56,0,0,1,3.18,0,2.08,2.08,0,0,1,.57,1.56,1.94,1.94,0,0,1-.57,1.5,2.65,2.65,0,0,1-3.18,0Zm2.26-.86a.94.94,0,0,0,.24-.68,1,1,0,0,0-.24-.7.91.91,0,0,0-.67-.25.92.92,0,0,0-.67.25,1,1,0,0,0-.23.7,1,1,0,0,0,.23.68.92.92,0,0,0,.67.24A.9.9,0,0,0,70.18,597.61Zm1.23,3.17h1.78v9.12H71.41Z"/><path class="b" d="M77.1,609.63A2.82,2.82,0,0,1,76,608.36a5.08,5.08,0,0,1-.36-2v-2a5.05,5.05,0,0,1,.36-2,2.71,2.71,0,0,1,1-1.27,3,3,0,0,1,1.65-.44,2.71,2.71,0,0,1,1.48.42,3.22,3.22,0,0,1,1.09,1.19l-.18,1.86a2.19,2.19,0,0,0-.22-1,1.48,1.48,0,0,0-.61-.63,2,2,0,0,0-1-.21,1.71,1.71,0,0,0-1.37.55,2.26,2.26,0,0,0-.49,1.56v2a2.19,2.19,0,0,0,.49,1.54,1.74,1.74,0,0,0,1.37.54,1.93,1.93,0,0,0,1-.23,1.45,1.45,0,0,0,.61-.64,2.25,2.25,0,0,0,.22-1l.12,1.92a2.66,2.66,0,0,1-.89,1.14,2.56,2.56,0,0,1-1.53.45A3.19,3.19,0,0,1,77.1,609.63Zm4-12.5H82.9V609.9H81.11Z"/><path class="b" d="M87.09,609.57a3.09,3.09,0,0,1-1.29-1.36,4.85,4.85,0,0,1-.44-2.15v-1.48a4.71,4.71,0,0,1,.44-2.12,3.12,3.12,0,0,1,1.29-1.35,4.71,4.71,0,0,1,4.06,0,3.12,3.12,0,0,1,1.29,1.35,4.71,4.71,0,0,1,.44,2.12v1.51a4.79,4.79,0,0,1-.44,2.13,3.12,3.12,0,0,1-1.29,1.35,4.62,4.62,0,0,1-4.06,0Zm3.49-1.83a2.43,2.43,0,0,0,.51-1.65v-1.51a2.43,2.43,0,0,0-.51-1.65,1.88,1.88,0,0,0-1.46-.58,1.85,1.85,0,0,0-1.45.58,2.38,2.38,0,0,0-.52,1.65v1.51a2.38,2.38,0,0,0,.52,1.65,1.82,1.82,0,0,0,1.45.59A1.85,1.85,0,0,0,90.58,607.74Z"/><path class="b" d="M95.43,600.78h1.79v9.12H95.43Zm4.42,1.72a2.16,2.16,0,0,0-.83-.15,1.83,1.83,0,0,0-1.33.47,1.79,1.79,0,0,0-.47,1.31L97,602.37a3.32,3.32,0,0,1,1.09-1.27,2.58,2.58,0,0,1,1.48-.45,3.39,3.39,0,0,1,1.13.18,2.62,2.62,0,0,1,.88.53l-1.17,1.58A1.56,1.56,0,0,0,99.85,602.5Z"/><path class="b" d="M102.15,600.78H104l2.81,7.93-1,1.94Zm8.07,0L106.34,612a2.6,2.6,0,0,1-.56,1,1.87,1.87,0,0,1-.84.52,4,4,0,0,1-1.23.16h-.36V612h.36a1.46,1.46,0,0,0,.8-.2,1.74,1.74,0,0,0,.51-.7l3.38-10.31Z"/><path class="b" d="M113.51,609.88a5.76,5.76,0,0,1-1.32-.48,4.89,4.89,0,0,1-1.13-.79l1.06-1.31a5.86,5.86,0,0,0,1.47.85,4.18,4.18,0,0,0,1.44.28,3.11,3.11,0,0,0,1.6-.33,1.1,1.1,0,0,0,.53-1,.79.79,0,0,0-.29-.66,1.66,1.66,0,0,0-.72-.29c-.29,0-.69-.1-1.22-.14h-.15l-.14,0h-.15a6.45,6.45,0,0,1-1.5-.26,2,2,0,0,1-1-.7,2.38,2.38,0,0,1-.41-1.49,3.07,3.07,0,0,1,.39-1.61,2.41,2.41,0,0,1,1.18-1,5.29,5.29,0,0,1,2-.32,6.38,6.38,0,0,1,2.6.52,6.16,6.16,0,0,1,1.13.66l-1.08,1.31a5.59,5.59,0,0,0-1.35-.66,4,4,0,0,0-1.3-.22,2.44,2.44,0,0,0-1.37.31,1.08,1.08,0,0,0-.46.94.64.64,0,0,0,.26.55,1.72,1.72,0,0,0,.66.25c.26,0,.64.07,1.12.1h.34a7.67,7.67,0,0,1,1.63.25,2.24,2.24,0,0,1,1.13.77,2.62,2.62,0,0,1,.45,1.65,2.92,2.92,0,0,1-.42,1.63,2.54,2.54,0,0,1-1.27,1A5.88,5.88,0,0,1,115,610,7.38,7.38,0,0,1,113.51,609.88Z"/><path class="b" d="M126,597.13h1.8V609.9H126Zm2.6,12.5a2.39,2.39,0,0,1-.93-1.16l.13-1.91a2.22,2.22,0,0,0,.21,1,1.48,1.48,0,0,0,.61.63,1.93,1.93,0,0,0,1,.22,1.74,1.74,0,0,0,1.37-.54,2.18,2.18,0,0,0,.49-1.53v-2a2.26,2.26,0,0,0-.49-1.56,1.71,1.71,0,0,0-1.37-.55,2,2,0,0,0-1,.21,1.36,1.36,0,0,0-.61.62,2.12,2.12,0,0,0-.21,1l-.19-1.76a3.37,3.37,0,0,1,1.08-1.24,2.67,2.67,0,0,1,1.49-.43,3,3,0,0,1,1.65.43,2.9,2.9,0,0,1,1.06,1.27,5.1,5.1,0,0,1,.36,2v2a4.94,4.94,0,0,1-.37,2,2.79,2.79,0,0,1-1.08,1.26,3.25,3.25,0,0,1-1.71.44A2.73,2.73,0,0,1,128.57,609.63Z"/><path class="b" d="M134.46,600.78h1.82l2.81,7.93-1,1.94Zm8.07,0L138.65,612a2.6,2.6,0,0,1-.56,1,1.87,1.87,0,0,1-.84.52,4,4,0,0,1-1.23.16h-.36V612H136a1.46,1.46,0,0,0,.8-.2,1.74,1.74,0,0,0,.51-.7l3.37-10.31Z"/><path class="b" d="M143.57,600.78h4.12v1.62h-4.12Zm1.46,8.56a2.77,2.77,0,0,1-.52-1.81v-9.4h1.8v9.42a.84.84,0,0,0,.13.51.46.46,0,0,0,.39.18h.86V610h-1A2,2,0,0,1,145,609.34Z"/><path class="b" d="M151.94,606.33a2.07,2.07,0,0,0,.49,1.48,1.76,1.76,0,0,0,1.37.52,1.91,1.91,0,0,0,1.37-.46,1.79,1.79,0,0,0,.48-1.33l.12,1.91A2.58,2.58,0,0,1,153.3,610a2.89,2.89,0,0,1-2.33-1,4.08,4.08,0,0,1-.82-2.73v-5.55h1.79Zm3.71-5.55h1.78v9.12h-1.78Z"/><rect class="c" x="612.92" y="591.68" width="35.43" height="2.83"/><path class="d" d="M648.48,594.64H612.79v-3.08h35.69ZM613,594.39h35.19v-2.58H613Z"/><rect class="c" x="612.92" y="601.6" width="70.74" height="2.83"/><path class="d" d="M683.78,604.56h-71v-3.08h71ZM613,604.31h70.49v-2.58H613Z"/><rect class="c" x="612.92" y="612.72" width="177.16" height="2.84"/><path class="d" d="M790.21,615.68H612.79V612.6H790.21ZM613,615.43H790v-2.58H613Z"/><path class="e" d="M587.26,596.28h-.8v-4.82l-.81.5v-.83l.81-.53h.8Z"/><path class="e" d="M589,595.91a1.67,1.67,0,0,1-.41-1.19v-2.58A1.65,1.65,0,0,1,589,591a2,2,0,0,1,2.42,0,1.65,1.65,0,0,1,.41,1.19v2.58a1.65,1.65,0,0,1-.41,1.19,2,2,0,0,1-2.42,0Zm1.83-.55a.89.89,0,0,0,.2-.64v-2.58a.89.89,0,0,0-.2-.64.82.82,0,0,0-.62-.22.86.86,0,0,0-.63.22.94.94,0,0,0-.2.64v2.58a.9.9,0,0,0,.21.64,1,1,0,0,0,1.24,0Z"/><path class="e" d="M593.22,595.91a1.67,1.67,0,0,1-.41-1.19v-2.58a1.65,1.65,0,0,1,.41-1.19,2,2,0,0,1,2.42,0,1.61,1.61,0,0,1,.41,1.19v2.58a1.65,1.65,0,0,1-.41,1.19,2,2,0,0,1-2.42,0Zm1.83-.55a.9.9,0,0,0,.21-.64v-2.58a.94.94,0,0,0-.2-.64.86.86,0,0,0-.63-.22.82.82,0,0,0-.62.22.89.89,0,0,0-.2.64v2.58a.89.89,0,0,0,.2.64,1,1,0,0,0,1.24,0Z"/><path class="e" d="M600.1,596.13a1.45,1.45,0,0,1-.6-.6,2.06,2.06,0,0,1-.21-1v-.67a2,2,0,0,1,.21-.94,1.37,1.37,0,0,1,.6-.59,2,2,0,0,1,.95-.21,2.21,2.21,0,0,1,.59.08,1.68,1.68,0,0,1,.51.22,1.54,1.54,0,0,1,.37.35l-.58.52a1.17,1.17,0,0,0-.4-.3,1.13,1.13,0,0,0-.48-.11.94.94,0,0,0-.71.26,1,1,0,0,0-.26.72v.67a1,1,0,0,0,.25.74.94.94,0,0,0,.72.27,1,1,0,0,0,.48-.12,1,1,0,0,0,.4-.32l.58.56a1.38,1.38,0,0,1-.38.34,1.62,1.62,0,0,1-.5.22,2.27,2.27,0,0,1-.59.07A2.12,2.12,0,0,1,600.1,596.13Z"/><path class="e" d="M603.4,592.22h.79v4.06h-.79Zm2.42,1.6a1,1,0,0,0-.21-.67.78.78,0,0,0-.6-.23.81.81,0,0,0-.6.21.73.73,0,0,0-.22.58l-.08-.78a1.46,1.46,0,0,1,.49-.57,1.22,1.22,0,0,1,.67-.2,1.33,1.33,0,0,1,.73.2,1.18,1.18,0,0,1,.46.56,2.4,2.4,0,0,1,.15.89v2.47h-.79Zm2.42,0a.93.93,0,0,0-.22-.67.85.85,0,0,0-.63-.23.72.72,0,0,0-.57.23.9.9,0,0,0-.21.64l-.16-.78a1.61,1.61,0,0,1,.51-.63,1.23,1.23,0,0,1,.69-.22,1.37,1.37,0,0,1,.75.2,1.09,1.09,0,0,1,.47.56,2.21,2.21,0,0,1,.17.89v2.47h-.8Z"/><path class="e" d="M584.33,605.5l2-2.64a1.85,1.85,0,0,0,.27-.47,1.29,1.29,0,0,0,.09-.45h0a.67.67,0,0,0-.2-.53.81.81,0,0,0-.56-.19.76.76,0,0,0-.56.21,1,1,0,0,0-.27.58h-.82a2,2,0,0,1,.29-.83,1.42,1.42,0,0,1,.56-.53,1.67,1.67,0,0,1,.79-.18,1.93,1.93,0,0,1,.87.17,1.21,1.21,0,0,1,.54.51,1.55,1.55,0,0,1,.19.8h0a1.84,1.84,0,0,1-.12.63,2.8,2.8,0,0,1-.35.63l-1.65,2.24h2.15v.76h-3.2Z"/><path class="e" d="M589,605.83a1.67,1.67,0,0,1-.41-1.19v-2.58a1.65,1.65,0,0,1,.41-1.19,2,2,0,0,1,2.42,0,1.65,1.65,0,0,1,.41,1.19v2.58a1.65,1.65,0,0,1-.41,1.19,2,2,0,0,1-2.42,0Zm1.83-.55a.89.89,0,0,0,.2-.64v-2.58a.89.89,0,0,0-.2-.64.82.82,0,0,0-.62-.22.86.86,0,0,0-.63.22.94.94,0,0,0-.19.64v2.58a.89.89,0,0,0,.2.64,1,1,0,0,0,1.24,0Z"/><path class="e" d="M593.22,605.83a1.67,1.67,0,0,1-.41-1.19v-2.58a1.61,1.61,0,0,1,.42-1.19,1.59,1.59,0,0,1,1.2-.42,1.45,1.45,0,0,1,1.62,1.61v2.58a1.61,1.61,0,0,1-.41,1.19,2,2,0,0,1-2.42,0Zm1.84-.55a.94.94,0,0,0,.2-.64v-2.58a.94.94,0,0,0-.2-.64.84.84,0,0,0-.63-.22.82.82,0,0,0-.62.22.89.89,0,0,0-.2.64v2.58a.89.89,0,0,0,.2.64.82.82,0,0,0,.62.22A.86.86,0,0,0,595.06,605.28Z"/><path class="e" d="M600.1,606.05a1.45,1.45,0,0,1-.6-.6,2.06,2.06,0,0,1-.2-1v-.67a2,2,0,0,1,.2-.94,1.37,1.37,0,0,1,.6-.59,2,2,0,0,1,.95-.21,2.35,2.35,0,0,1,.6.08,1.73,1.73,0,0,1,.5.22,1.38,1.38,0,0,1,.37.35l-.58.52a1.08,1.08,0,0,0-.4-.3,1.13,1.13,0,0,0-.48-.11,1,1,0,0,0-.71.26,1,1,0,0,0-.26.72v.67a1,1,0,0,0,.25.74.94.94,0,0,0,.72.27,1.14,1.14,0,0,0,.88-.44l.58.56a1.38,1.38,0,0,1-.38.34,1.62,1.62,0,0,1-.5.22,2.22,2.22,0,0,1-.59.07A2.12,2.12,0,0,1,600.1,606.05Z"/><path class="e" d="M603.4,602.14h.79v4.06h-.79Zm2.42,1.6a1,1,0,0,0-.21-.67.78.78,0,0,0-.6-.23.81.81,0,0,0-.6.21.73.73,0,0,0-.22.58l-.08-.78a1.46,1.46,0,0,1,.49-.57,1.22,1.22,0,0,1,.67-.2,1.3,1.3,0,0,1,.73.2,1.18,1.18,0,0,1,.46.56,2.4,2.4,0,0,1,.16.89v2.47h-.8Zm2.42,0a.93.93,0,0,0-.22-.67.85.85,0,0,0-.63-.23.73.73,0,0,0-.57.23.89.89,0,0,0-.2.64l-.16-.78a1.51,1.51,0,0,1,.5-.63,1.23,1.23,0,0,1,.69-.22,1.35,1.35,0,0,1,.75.2,1.16,1.16,0,0,1,.48.56,2.4,2.4,0,0,1,.16.89v2.47h-.8Z"/><path class="e" d="M585,615.58a1.34,1.34,0,0,1-.54-.49,2,2,0,0,1-.28-.77h.8a.75.75,0,0,0,.25.49.85.85,0,0,0,.54.17.72.72,0,0,0,.59-.25,1.1,1.1,0,0,0,.21-.72v-.48a1.1,1.1,0,0,0-.21-.72.72.72,0,0,0-.59-.25.83.83,0,0,0-.4.11,1.18,1.18,0,0,0-.34.33h-.72v-3h2.89v.76h-2.1V612a1,1,0,0,1,.34-.18.94.94,0,0,1,.37-.07,1.68,1.68,0,0,1,.84.2,1.29,1.29,0,0,1,.53.6,2.07,2.07,0,0,1,.19.94V614a2.25,2.25,0,0,1-.19.94,1.31,1.31,0,0,1-.55.59,1.69,1.69,0,0,1-.86.21A1.74,1.74,0,0,1,585,615.58Z"/><path class="e" d="M589,615.32a1.65,1.65,0,0,1-.41-1.19v-2.58a1.67,1.67,0,0,1,.41-1.19,2,2,0,0,1,2.42,0,1.65,1.65,0,0,1,.41,1.19v2.58a1.64,1.64,0,0,1-.41,1.19,1.92,1.92,0,0,1-2.42,0Zm1.83-.55a.89.89,0,0,0,.2-.64v-2.58a.88.88,0,0,0-.2-.63.78.78,0,0,0-.62-.22.82.82,0,0,0-.63.22.93.93,0,0,0-.2.63v2.58a.9.9,0,0,0,.21.64,1,1,0,0,0,1.24,0Z"/><path class="e" d="M593.22,615.32a1.65,1.65,0,0,1-.41-1.19v-2.58a1.67,1.67,0,0,1,.41-1.19,2,2,0,0,1,2.42,0,1.61,1.61,0,0,1,.41,1.19v2.58a1.64,1.64,0,0,1-.41,1.19,1.92,1.92,0,0,1-2.42,0Zm1.83-.55a.9.9,0,0,0,.21-.64v-2.58a.93.93,0,0,0-.2-.63.82.82,0,0,0-.63-.22.78.78,0,0,0-.62.22.88.88,0,0,0-.2.63v2.58a.89.89,0,0,0,.2.64,1,1,0,0,0,1.24,0Z"/><path class="e" d="M600.1,615.54a1.45,1.45,0,0,1-.6-.6,2,2,0,0,1-.21-1v-.67a2,2,0,0,1,.21-.94,1.45,1.45,0,0,1,.6-.6,2,2,0,0,1,.95-.2,2.22,2.22,0,0,1,.59.07,2,2,0,0,1,.51.22,1.76,1.76,0,0,1,.37.35l-.58.52a1.17,1.17,0,0,0-.4-.3,1.13,1.13,0,0,0-.48-.11.94.94,0,0,0-.71.26,1,1,0,0,0-.26.73V614a1.07,1.07,0,0,0,.25.74,1,1,0,0,0,.72.26,1.13,1.13,0,0,0,.48-.11,1.26,1.26,0,0,0,.4-.32l.58.55a1.42,1.42,0,0,1-.38.35,1.88,1.88,0,0,1-.5.21,2.27,2.27,0,0,1-.59.08A2,2,0,0,1,600.1,615.54Z"/><path class="e" d="M603.4,611.63h.79v4.06h-.79Zm2.42,1.6a1,1,0,0,0-.21-.66.75.75,0,0,0-.6-.24.81.81,0,0,0-.6.21.75.75,0,0,0-.22.58l-.08-.78a1.5,1.5,0,0,1,.49-.56,1.15,1.15,0,0,1,.67-.2,1.32,1.32,0,0,1,.73.19,1.28,1.28,0,0,1,.46.56,2.42,2.42,0,0,1,.15.9v2.46h-.79Zm2.42,0a.91.91,0,0,0-.22-.66.82.82,0,0,0-.63-.24.72.72,0,0,0-.57.23.9.9,0,0,0-.21.64l-.16-.78a1.51,1.51,0,0,1,.51-.62,1.16,1.16,0,0,1,.69-.22,1.37,1.37,0,0,1,.75.19,1.18,1.18,0,0,1,.47.56,2.22,2.22,0,0,1,.17.9v2.46h-.8Z"/><path class="c" d="M23.49,613.89A12.92,12.92,0,1,1,36.4,601,12.93,12.93,0,0,1,23.49,613.89Zm0-24.83A11.92,11.92,0,1,0,35.4,601,11.93,11.93,0,0,0,23.49,589.06Z"/><polygon class="d" points="35.77 588.74 9.42 600.98 35.77 613.21 32.02 600.98 35.77 588.74"/><path class="c" d="M36.58,614.14,8.23,601l28.35-13.17-4,13.17ZM10.61,601,35,612.29,31.5,601,35,589.66Z"/><path class="c" d="M2.52,605.19a5,5,0,0,1-1.11-.38,4.4,4.4,0,0,1-1-.64l.81-1a3.72,3.72,0,0,0,1.16.69,4.08,4.08,0,0,0,1.38.23,2.73,2.73,0,0,0,1.55-.38,1.17,1.17,0,0,0,.55-1.05h0a1.12,1.12,0,0,0-.25-.77,1.44,1.44,0,0,0-.64-.42,8.23,8.23,0,0,0-1-.25H3.89l-.1,0a9.48,9.48,0,0,1-1.5-.36,2.08,2.08,0,0,1-1-.73,2.42,2.42,0,0,1-.41-1.51h0a2.77,2.77,0,0,1,.38-1.47,2.44,2.44,0,0,1,1.12-.92,4.48,4.48,0,0,1,1.77-.32,4.6,4.6,0,0,1,1,.11,4.9,4.9,0,0,1,1.86.86l-.73,1a4.61,4.61,0,0,0-1-.58,3,3,0,0,0-1.06-.2,2.44,2.44,0,0,0-1.46.38,1.24,1.24,0,0,0-.53,1.07h0a1,1,0,0,0,.27.75,1.74,1.74,0,0,0,.67.4,9.3,9.3,0,0,0,1.12.27h.24a7.93,7.93,0,0,1,1.4.41,2.22,2.22,0,0,1,.94.76,2.4,2.4,0,0,1,.38,1.43h0a2.62,2.62,0,0,1-.4,1.45,2.54,2.54,0,0,1-1.16.91,4.8,4.8,0,0,1-1.83.31A6.44,6.44,0,0,1,2.52,605.19Z"/><rect class="c" x="612.5" y="600.68" width="1" height="4.68"/><rect class="c" x="612.5" y="590.76" width="1" height="4.68"/><rect class="c" x="612.5" y="611.45" width="1" height="5.24"/><rect class="c" x="789.58" y="611.45" width="1" height="5.24"/><rect class="c" x="682.59" y="600.68" width="1" height="4.68"/><rect class="c" x="647.3" y="590.76" width="1" height="4.68"/><rect class="a" width="790.34" height="618.13"/><line class="f" x1="540.66" y1="336.9" x2="540.66" y2="191.53"/><rect class="d" x="303.53" y="336.49" width="79.39" height="14.15"/><line class="f" x1="303.53" y1="336.49" x2="303.53" y2="350.65"/><line class="f" x1="382.92" y1="336.49" x2="303.53" y2="336.49"/><line class="f" x1="382.92" y1="350.65" x2="382.92" y2="336.49"/><line class="f" x1="303.53" y1="350.65" x2="382.92" y2="350.65"/><polygon class="g" points="457.84 315.87 519.7 315.87 519.7 191.87 540.32 191.87 540.32 314.9 540.32 336.49 457.84 336.49 457.84 315.87"/><line class="f" x1="457.84" y1="315.87" x2="519.7" y2="315.87"/><line class="f" x1="519.7" y1="315.87" x2="519.7" y2="191.87"/><line class="f" x1="519.7" y1="191.87" x2="540.32" y2="191.87"/><line class="f" x1="540.32" y1="191.87" x2="540.32" y2="314.9"/><line class="f" x1="540.32" y1="314.9" x2="540.32" y2="336.49"/><line class="f" x1="540.32" y1="336.49" x2="457.84" y2="336.49"/><line class="f" x1="457.84" y1="336.49" x2="457.84" y2="315.87"/><rect class="d" x="548.72" y="315.87" width="0.19" height="21.02"/><line class="f" x1="548.72" y1="315.87" x2="548.91" y2="315.87"/><line class="f" x1="548.91" y1="336.9" x2="548.72" y2="336.9"/><line class="f" x1="548.72" y1="336.9" x2="548.72" y2="315.87"/><line class="f" x1="255.42" y1="460.96" x2="255.42" y2="460.96"/><line class="f" x1="372.27" y1="460.96" x2="255.42" y2="460.96"/><line class="f" x1="372.27" y1="460.96" x2="372.27" y2="460.96"/><rect class="d" x="391.86" y="460.84" width="14.09" height="0.12"/><line class="f" x1="391.85" y1="460.84" x2="391.85" y2="460.96"/><line class="f" x1="405.95" y1="460.84" x2="391.86" y2="460.84"/><line class="f" x1="405.95" y1="460.96" x2="405.95" y2="460.84"/><rect class="d" x="385.67" y="390.45" width="25.43" height="6.94"/><line class="f" x1="385.67" y1="390.45" x2="385.67" y2="397.39"/><line class="f" x1="411.1" y1="390.45" x2="385.67" y2="390.45"/><line class="f" x1="411.1" y1="397.39" x2="411.1" y2="390.45"/><line class="f" x1="385.67" y1="397.39" x2="411.1" y2="397.39"/><rect class="d" x="385.67" y="339.65" width="25.77" height="17.18"/><line class="f" x1="385.67" y1="339.65" x2="385.67" y2="356.83"/><line class="f" x1="411.44" y1="339.65" x2="385.67" y2="339.65"/><line class="f" x1="411.44" y1="356.83" x2="411.44" y2="339.65"/><line class="f" x1="385.67" y1="356.83" x2="411.44" y2="356.83"/><rect class="d" x="508.87" y="365.94" width="30.93" height="30.93"/><line class="f" x1="508.87" y1="365.94" x2="508.87" y2="396.87"/><line class="f" x1="539.8" y1="365.94" x2="508.87" y2="365.94"/><line class="f" x1="539.8" y1="396.87" x2="539.8" y2="365.94"/><line class="f" x1="508.87" y1="396.87" x2="539.8" y2="396.87"/><line class="f" x1="513.17" y1="339.3" x2="513.17" y2="361.64"/><line class="f" x1="513.17" y1="361.64" x2="540.66" y2="361.64"/><line class="f" x1="540.66" y1="361.64" x2="516.61" y2="358.21"/><line class="f" x1="516.61" y1="358.21" x2="513.17" y2="339.3"/><line class="f" x1="375.7" y1="460.96" x2="375.7" y2="460.96"/><line class="f" x1="375.7" y1="460.96" x2="375.7" y2="460.96"/><line class="f" x1="424.5" y1="219.71" x2="424.5" y2="219.02"/><line class="f" x1="424.5" y1="219.02" x2="427.25" y2="219.02"/><line class="f" x1="427.25" y1="219.02" x2="427.25" y2="221.77"/><line class="f" x1="427.25" y1="221.77" x2="425.88" y2="221.77"/><line class="f" x1="427.25" y1="225.9" x2="427.25" y2="219.02"/><line class="f" x1="425.53" y1="219.02" x2="425.53" y2="212.15"/><line class="f" x1="255.42" y1="356.49" x2="255.42" y2="411.47"/><line class="f" x1="255.42" y1="452.72" x2="255.42" y2="411.48"/><line class="f" x1="255.42" y1="356.49" x2="255.42" y2="339.3"/><line class="f" x1="255.42" y1="452.72" x2="403.54" y2="452.72"/><line class="f" x1="389.45" y1="460.96" x2="375.7" y2="460.96"/><line class="f" x1="375.7" y1="460.96" x2="375.7" y2="460.96"/><line class="f" x1="389.45" y1="460.96" x2="389.45" y2="460.96"/><line class="f" x1="454.75" y1="177.78" x2="461.62" y2="177.78"/><line class="f" x1="461.62" y1="177.78" x2="487.39" y2="177.78"/><line class="f" x1="518.32" y1="177.78" x2="548.91" y2="177.78"/><line class="f" x1="468.49" y1="191.53" x2="485.68" y2="191.53"/><line class="f" x1="520.04" y1="191.53" x2="540.66" y2="191.53"/><line class="f" x1="461.62" y1="184.66" x2="485.68" y2="184.66"/><line class="f" x1="520.04" y1="184.66" x2="548.91" y2="184.66"/><line class="f" x1="289.78" y1="325.56" x2="289.78" y2="303.22"/><line class="f" x1="289.78" y1="244.8" x2="289.78" y2="212.15"/><line class="f" x1="241.67" y1="460.96" x2="241.67" y2="409.76"/><line class="f" x1="241.67" y1="358.21" x2="241.67" y2="325.56"/><line class="f" x1="540.66" y1="397.73" x2="540.66" y2="365.08"/><line class="f" x1="540.66" y1="361.64" x2="540.66" y2="339.3"/><line class="f" x1="255.42" y1="460.96" x2="255.42" y2="460.96"/><line class="f" x1="411.79" y1="452.72" x2="411.79" y2="405.98"/><line class="f" x1="248.54" y1="460.96" x2="248.54" y2="411.48"/><line class="f" x1="248.54" y1="356.49" x2="248.54" y2="332.43"/><line class="f" x1="303.53" y1="339.3" x2="303.53" y2="304.94"/><line class="f" x1="303.53" y1="243.08" x2="303.53" y2="225.9"/><line class="f" x1="296.66" y1="332.43" x2="296.66" y2="304.94"/><line class="f" x1="296.66" y1="243.08" x2="296.66" y2="219.02"/><line class="f" x1="454.75" y1="212.15" x2="454.75" y2="177.78"/><line class="f" x1="392.89" y1="225.9" x2="392.89" y2="219.02"/><line class="f" x1="468.49" y1="225.9" x2="468.49" y2="191.53"/><line class="f" x1="485.68" y1="191.53" x2="485.68" y2="184.66"/><line class="f" x1="487.39" y1="184.66" x2="487.39" y2="177.78"/><line class="f" x1="520.04" y1="191.53" x2="520.04" y2="184.66"/><line class="f" x1="518.32" y1="184.66" x2="518.32" y2="177.78"/><line class="f" x1="461.62" y1="219.02" x2="461.62" y2="184.66"/><line class="f" x1="454.75" y1="212.15" x2="453.03" y2="212.15"/><line class="f" x1="386.01" y1="212.15" x2="289.78" y2="212.15"/><line class="f" x1="394.6" y1="212.15" x2="386.01" y2="212.15"/><line class="f" x1="468.49" y1="225.9" x2="454.75" y2="225.9"/><line class="f" x1="392.89" y1="225.9" x2="303.53" y2="225.9"/><line class="f" x1="461.62" y1="219.02" x2="454.75" y2="219.02"/><line class="f" x1="392.89" y1="219.02" x2="296.66" y2="219.02"/><line class="f" x1="289.78" y1="325.56" x2="241.67" y2="325.56"/><line class="f" x1="303.53" y1="304.94" x2="296.66" y2="304.94"/><line class="f" x1="303.53" y1="243.08" x2="296.66" y2="243.08"/><line class="f" x1="296.66" y1="332.43" x2="248.54" y2="332.43"/><line class="f" x1="289.78" y1="303.22" x2="289.78" y2="244.8"/><line class="f" x1="394.6" y1="212.15" x2="403.19" y2="212.15"/><line class="f" x1="408.18" y1="212.15" x2="409.21" y2="212.15"/><line class="f" x1="414.19" y1="212.15" x2="415.22" y2="212.15"/><line class="f" x1="416.94" y1="212.15" x2="425.53" y2="212.15"/><line class="f" x1="394.6" y1="215.59" x2="425.53" y2="215.59"/><line class="f" x1="487.39" y1="177.78" x2="518.32" y2="177.78"/><line class="f" x1="389.45" y1="212.15" x2="389.45" y2="160.6"/><line class="f" x1="458.18" y1="177.78" x2="458.18" y2="160.6"/><line class="f" x1="389.45" y1="160.6" x2="458.18" y2="160.6"/><line class="f" x1="303.53" y1="304.94" x2="303.53" y2="243.08"/><line class="f" x1="485.68" y1="191.53" x2="520.04" y2="191.53"/><line class="f" x1="392.89" y1="225.9" x2="427.25" y2="225.9"/><line class="f" x1="513.17" y1="339.3" x2="540.66" y2="339.3"/><line class="f" x1="411.79" y1="405.98" x2="413.51" y2="405.98"/><line class="f" x1="449.59" y1="405.98" x2="548.91" y2="405.98"/><line class="f" x1="403.54" y1="397.73" x2="411.79" y2="397.73"/><line class="f" x1="509.73" y1="365.08" x2="540.66" y2="365.08"/><line class="f" x1="513.17" y1="361.64" x2="540.66" y2="361.64"/><line class="f" x1="255.42" y1="460.96" x2="372.27" y2="460.96"/><line class="f" x1="540.66" y1="191.53" x2="548.91" y2="191.53"/><line class="f" x1="446.15" y1="402.02" x2="415.22" y2="402.02"/><line class="f" x1="446.15" y1="405.98" x2="415.22" y2="405.98"/><line class="f" x1="446.15" y1="402.02" x2="446.15" y2="371.09"/><g class="h"><path class="f" d="M415.22,402a30.93,30.93,0,0,1,30.93-30.93"/></g><line class="f" x1="446.15" y1="405.98" x2="446.15" y2="402.02"/><line class="f" x1="415.22" y1="402.02" x2="415.22" y2="405.98"/><line class="f" x1="415.22" y1="402.02" x2="413.51" y2="402.02"/><line class="f" x1="415.22" y1="405.98" x2="413.51" y2="405.98"/><line class="f" x1="447.87" y1="402.02" x2="446.15" y2="402.02"/><line class="f" x1="447.87" y1="405.98" x2="446.15" y2="405.98"/><line class="f" x1="411.79" y1="397.73" x2="411.79" y2="402.02"/><line class="f" x1="411.79" y1="402.02" x2="411.79" y2="405.98"/><line class="f" x1="449.59" y1="397.73" x2="449.59" y2="402.02"/><line class="f" x1="449.59" y1="402.02" x2="449.59" y2="405.98"/><line class="f" x1="413.51" y1="402.02" x2="413.51" y2="405.98"/><line class="f" x1="447.87" y1="402.02" x2="447.87" y2="405.98"/><line class="f" x1="447.87" y1="402.02" x2="449.59" y2="402.02"/><line class="f" x1="413.51" y1="402.02" x2="411.79" y2="402.02"/><line class="f" x1="411.79" y1="397.73" x2="418.66" y2="397.73"/><line class="f" x1="422.44" y1="397.73" x2="423.21" y2="397.73"/><line class="f" x1="426.99" y1="397.73" x2="427.77" y2="397.73"/><line class="f" x1="431.55" y1="397.73" x2="438.42" y2="397.73"/><line class="f" x1="442.2" y1="397.73" x2="442.72" y2="397.73"/><line class="f" x1="442.72" y1="397.73" x2="449.59" y2="397.73"/><g class="h"><path class="f" d="M446.15,487.6a30.93,30.93,0,0,1-30.93-30.93"/></g><line class="f" x1="411.79" y1="456.67" x2="411.79" y2="452.72"/><line class="f" x1="411.79" y1="456.67" x2="411.79" y2="460.96"/><line class="f" x1="372.27" y1="460.96" x2="372.27" y2="460.96"/><line class="f" x1="372.27" y1="460.96" x2="375.7" y2="460.96"/><line class="f" x1="248.54" y1="358.21" x2="241.67" y2="358.21"/><line class="f" x1="248.54" y1="409.76" x2="241.67" y2="409.76"/><line class="f" x1="241.67" y1="409.76" x2="241.67" y2="358.21"/><line class="f" x1="255.42" y1="452.72" x2="255.42" y2="460.96"/><line class="f" x1="449.59" y1="405.98" x2="447.87" y2="405.98"/><line class="f" x1="248.54" y1="356.49" x2="255.42" y2="356.49"/><line class="f" x1="248.54" y1="411.48" x2="255.42" y2="411.48"/><line class="f" x1="248.54" y1="358.21" x2="248.54" y2="356.49"/><line class="f" x1="248.54" y1="411.48" x2="248.54" y2="409.76"/><line class="f" x1="296.66" y1="244.8" x2="289.78" y2="244.8"/><line class="f" x1="296.66" y1="244.8" x2="296.66" y2="243.08"/><line class="f" x1="296.66" y1="303.22" x2="289.78" y2="303.22"/><line class="f" x1="296.66" y1="304.94" x2="296.66" y2="303.22"/><line class="f" x1="487.39" y1="184.66" x2="485.68" y2="184.66"/><line class="f" x1="520.04" y1="184.66" x2="518.32" y2="184.66"/><line class="f" x1="394.6" y1="219.02" x2="394.6" y2="212.15"/><line class="f" x1="394.6" y1="219.02" x2="392.89" y2="219.02"/><line class="f" x1="394.26" y1="222.46" x2="394.26" y2="254.08"/><line class="f" x1="425.88" y1="222.46" x2="423.13" y2="222.46"/><line class="f" x1="423.13" y1="222.46" x2="423.13" y2="219.71"/><line class="f" x1="423.13" y1="219.71" x2="425.88" y2="219.71"/><line class="f" x1="425.88" y1="219.71" x2="425.88" y2="222.46"/><line class="f" x1="395.63" y1="219.71" x2="395.63" y2="219.02"/><line class="f" x1="395.63" y1="219.02" x2="392.88" y2="219.02"/><line class="f" x1="392.89" y1="219.02" x2="392.89" y2="221.77"/><line class="f" x1="392.89" y1="221.77" x2="394.26" y2="221.77"/><line class="f" x1="394.26" y1="222.46" x2="397.01" y2="222.46"/><line class="f" x1="397.01" y1="222.46" x2="397.01" y2="219.71"/><line class="f" x1="397.01" y1="219.71" x2="394.26" y2="219.71"/><line class="f" x1="394.26" y1="219.71" x2="394.26" y2="222.46"/><line class="f" x1="423.13" y1="222.46" x2="397.01" y2="222.46"/><line class="f" x1="397.01" y1="219.71" x2="423.13" y2="219.71"/><line class="f" x1="423.13" y1="221.09" x2="397.01" y2="221.09"/><g class="h"><path class="f" d="M425.88,222.46a31.62,31.62,0,0,1-31.62,31.62"/></g><line class="f" x1="249.23" y1="359.24" x2="248.54" y2="359.24"/><line class="f" x1="248.54" y1="359.24" x2="248.54" y2="356.49"/><line class="f" x1="248.54" y1="356.49" x2="251.29" y2="356.49"/><line class="f" x1="251.29" y1="356.49" x2="251.29" y2="357.86"/><line class="f" x1="251.98" y1="357.86" x2="251.98" y2="360.61"/><line class="f" x1="251.98" y1="360.61" x2="249.23" y2="360.61"/><line class="f" x1="249.23" y1="360.61" x2="249.23" y2="357.86"/><line class="f" x1="249.23" y1="357.86" x2="251.98" y2="357.86"/><line class="f" x1="251.98" y1="360.61" x2="251.98" y2="407.35"/><line class="f" x1="249.23" y1="407.35" x2="249.23" y2="360.61"/><line class="f" x1="250.61" y1="360.61" x2="250.61" y2="381.92"/><line class="f" x1="250.61" y1="386.04" x2="250.61" y2="407.35"/><line class="f" x1="249.23" y1="408.73" x2="248.54" y2="408.73"/><line class="f" x1="248.54" y1="408.73" x2="248.54" y2="411.48"/><line class="f" x1="248.54" y1="411.48" x2="251.29" y2="411.48"/><line class="f" x1="251.29" y1="411.48" x2="251.29" y2="410.1"/><line class="f" x1="251.98" y1="410.1" x2="251.98" y2="407.35"/><line class="f" x1="251.98" y1="407.35" x2="249.23" y2="407.35"/><line class="f" x1="249.23" y1="407.35" x2="249.23" y2="410.1"/><line class="f" x1="249.23" y1="410.1" x2="251.98" y2="410.1"/><line class="f" x1="517.29" y1="185.34" x2="517.29" y2="184.66"/><line class="f" x1="517.29" y1="184.66" x2="520.04" y2="184.66"/><line class="f" x1="520.04" y1="184.66" x2="520.04" y2="187.41"/><line class="f" x1="520.04" y1="187.41" x2="518.67" y2="187.41"/><line class="f" x1="518.67" y1="188.09" x2="515.92" y2="188.09"/><line class="f" x1="515.92" y1="188.09" x2="515.92" y2="185.34"/><line class="f" x1="515.92" y1="185.34" x2="518.67" y2="185.34"/><line class="f" x1="518.67" y1="185.34" x2="518.67" y2="188.09"/><line class="f" x1="488.42" y1="185.34" x2="488.42" y2="184.66"/><line class="f" x1="488.42" y1="184.66" x2="485.67" y2="184.66"/><line class="f" x1="485.68" y1="184.66" x2="485.68" y2="187.41"/><line class="f" x1="485.68" y1="187.41" x2="487.05" y2="187.41"/><line class="f" x1="487.05" y1="188.09" x2="489.8" y2="188.09"/><line class="f" x1="489.8" y1="188.09" x2="489.8" y2="185.34"/><line class="f" x1="489.8" y1="185.34" x2="487.05" y2="185.34"/><line class="f" x1="487.05" y1="185.34" x2="487.05" y2="188.09"/><line class="f" x1="515.92" y1="188.09" x2="489.8" y2="188.09"/><line class="f" x1="489.8" y1="185.34" x2="515.92" y2="185.34"/><line class="f" x1="515.92" y1="186.72" x2="489.8" y2="186.72"/><line class="f" x1="249.23" y1="386.04" x2="251.98" y2="386.04"/><line class="f" x1="249.23" y1="381.92" x2="251.98" y2="381.92"/><line class="f" x1="297.35" y1="245.83" x2="296.66" y2="245.83"/><line class="f" x1="296.66" y1="245.83" x2="296.66" y2="243.08"/><line class="f" x1="296.66" y1="243.08" x2="299.41" y2="243.08"/><line class="f" x1="299.41" y1="243.08" x2="299.41" y2="244.45"/><line class="f" x1="300.09" y1="244.45" x2="300.09" y2="247.2"/><line class="f" x1="300.09" y1="247.2" x2="297.34" y2="247.2"/><line class="f" x1="297.35" y1="247.2" x2="297.35" y2="244.45"/><line class="f" x1="297.35" y1="244.45" x2="300.1" y2="244.45"/><line class="f" x1="300.09" y1="247.2" x2="300.09" y2="300.81"/><line class="f" x1="297.35" y1="300.81" x2="297.35" y2="247.2"/><line class="f" x1="298.72" y1="247.2" x2="298.72" y2="271.95"/><line class="f" x1="298.72" y1="276.07" x2="298.72" y2="300.81"/><line class="f" x1="297.35" y1="302.19" x2="296.66" y2="302.19"/><line class="f" x1="296.66" y1="302.19" x2="296.66" y2="304.94"/><line class="f" x1="296.66" y1="304.94" x2="299.41" y2="304.94"/><line class="f" x1="299.41" y1="304.94" x2="299.41" y2="303.56"/><line class="f" x1="300.09" y1="303.56" x2="300.09" y2="300.81"/><line class="f" x1="300.09" y1="300.81" x2="297.34" y2="300.81"/><line class="f" x1="297.35" y1="300.81" x2="297.35" y2="303.56"/><line class="f" x1="297.35" y1="303.56" x2="300.1" y2="303.56"/><line class="f" x1="297.35" y1="276.07" x2="300.1" y2="276.07"/><line class="f" x1="297.35" y1="271.95" x2="300.1" y2="271.95"/><line class="f" x1="453.03" y1="212.15" x2="425.53" y2="212.15"/><line class="f" x1="454.75" y1="225.9" x2="454.75" y2="219.02"/><line class="f" x1="453.03" y1="219.02" x2="453.03" y2="212.15"/><line class="f" x1="454.75" y1="219.02" x2="453.03" y2="219.02"/><line class="f" x1="427.25" y1="225.9" x2="454.75" y2="225.9"/><line class="f" x1="454.75" y1="221.77" x2="452" y2="221.77"/><line class="f" x1="452" y1="221.77" x2="452" y2="219.02"/><line class="f" x1="452" y1="219.02" x2="454.75" y2="219.02"/><line class="f" x1="454.75" y1="219.02" x2="454.75" y2="221.77"/><line class="f" x1="452" y1="221.77" x2="430" y2="221.77"/><line class="f" x1="430" y1="219.02" x2="452" y2="219.02"/><line class="f" x1="452" y1="220.4" x2="430" y2="220.4"/><line class="f" x1="430" y1="221.77" x2="427.25" y2="221.77"/><line class="f" x1="427.25" y1="221.77" x2="427.25" y2="219.02"/><line class="f" x1="427.25" y1="219.02" x2="430" y2="219.02"/><line class="f" x1="430" y1="219.02" x2="430" y2="221.77"/><line class="f" x1="509.73" y1="365.08" x2="509.73" y2="361.64"/><line class="f" x1="509.73" y1="361.64" x2="509.73" y2="339.3"/><line class="f" x1="513.17" y1="361.64" x2="513.17" y2="339.3"/><line class="f" x1="540.66" y1="361.64" x2="540.66" y2="365.08"/><line class="f" x1="391.85" y1="460.96" x2="391.85" y2="460.96"/><line class="f" x1="389.45" y1="460.96" x2="391.85" y2="460.96"/><line class="f" x1="391.85" y1="460.96" x2="411.79" y2="460.96"/><line class="f" x1="301.13" y1="339.3" x2="255.42" y2="339.3"/><line class="f" x1="385.32" y1="339.3" x2="415.22" y2="339.3"/><line class="f" x1="446.15" y1="339.3" x2="449.59" y2="339.3"/><line class="f" x1="452" y1="339.3" x2="509.73" y2="339.3"/><line class="f" x1="452" y1="344.46" x2="509.73" y2="344.46"/><line class="f" x1="301.13" y1="353.05" x2="382.92" y2="353.05"/><line class="f" x1="303.53" y1="350.65" x2="382.92" y2="350.65"/><line class="f" x1="382.92" y1="336.9" x2="415.22" y2="336.9"/><line class="f" x1="446.15" y1="336.9" x2="540.66" y2="336.9"/><line class="f" x1="452" y1="397.73" x2="540.66" y2="397.73"/><line class="f" x1="382.92" y1="400.13" x2="382.92" y2="389.14"/><line class="f" x1="382.92" y1="358.21" x2="382.92" y2="353.05"/><line class="f" x1="385.32" y1="397.73" x2="385.32" y2="389.14"/><line class="f" x1="385.32" y1="358.21" x2="385.32" y2="339.3"/><line class="f" x1="449.59" y1="397.73" x2="449.59" y2="394.29"/><line class="f" x1="449.59" y1="366.8" x2="449.59" y2="339.3"/><line class="f" x1="452" y1="397.73" x2="452" y2="394.29"/><line class="f" x1="452" y1="366.8" x2="452" y2="339.3"/><line class="f" x1="540.66" y1="339.3" x2="540.66" y2="336.9"/><line class="f" x1="303.53" y1="339.3" x2="303.53" y2="350.65"/><line class="f" x1="301.13" y1="339.3" x2="301.13" y2="353.05"/><line class="f" x1="382.92" y1="358.21" x2="385.32" y2="358.21"/><line class="f" x1="382.92" y1="389.14" x2="385.32" y2="389.14"/><line class="f" x1="449.59" y1="394.29" x2="452" y2="394.29"/><line class="f" x1="449.59" y1="366.8" x2="452" y2="366.8"/><line class="f" x1="446.15" y1="339.3" x2="446.15" y2="336.9"/><line class="f" x1="415.22" y1="339.3" x2="415.22" y2="336.9"/><line class="f" x1="385.32" y1="397.73" x2="403.54" y2="397.73"/><line class="f" x1="382.92" y1="400.13" x2="403.54" y2="400.13"/><line class="f" x1="382.92" y1="350.65" x2="382.92" y2="336.9"/><line class="f" x1="301.13" y1="339.3" x2="303.53" y2="339.3"/><line class="f" x1="449.59" y1="397.73" x2="452" y2="397.73"/><line class="f" x1="444.44" y1="336.9" x2="416.94" y2="336.9"/><line class="f" x1="444.44" y1="336.9" x2="444.44" y2="309.41"/><g class="h"><path class="f" d="M416.94,336.9a27.5,27.5,0,0,1,27.5-27.49"/></g><line class="f" x1="444.44" y1="339.3" x2="444.44" y2="336.9"/><line class="f" x1="416.94" y1="336.9" x2="416.94" y2="339.3"/><line class="f" x1="416.94" y1="336.9" x2="415.22" y2="336.9"/><line class="f" x1="416.94" y1="339.3" x2="415.22" y2="339.3"/><line class="f" x1="446.15" y1="336.9" x2="444.44" y2="336.9"/><line class="f" x1="446.15" y1="339.3" x2="444.44" y2="339.3"/><line class="f" x1="444.44" y1="339.3" x2="437.56" y2="339.3"/><line class="f" x1="433.78" y1="339.3" x2="433.01" y2="339.3"/><line class="f" x1="429.23" y1="339.3" x2="428.46" y2="339.3"/><line class="f" x1="424.67" y1="339.3" x2="423.81" y2="339.3"/><line class="f" x1="423.82" y1="339.3" x2="416.94" y2="339.3"/><line class="f" x1="444.44" y1="336.9" x2="444.44" y2="336.04"/><line class="f" x1="444.44" y1="336.04" x2="447.87" y2="336.04"/><line class="f" x1="447.87" y1="336.04" x2="447.87" y2="336.9"/><line class="f" x1="444.44" y1="339.3" x2="444.44" y2="340.16"/><line class="f" x1="444.44" y1="340.16" x2="447.87" y2="340.16"/><line class="f" x1="447.87" y1="340.16" x2="447.87" y2="339.3"/><line class="f" x1="416.94" y1="336.04" x2="413.51" y2="336.04"/><line class="f" x1="413.51" y1="336.04" x2="413.51" y2="336.9"/><line class="f" x1="416.94" y1="339.3" x2="416.94" y2="340.16"/><line class="f" x1="416.94" y1="340.16" x2="413.51" y2="340.16"/><line class="f" x1="413.51" y1="340.16" x2="413.51" y2="339.3"/><line class="f" x1="452" y1="392.57" x2="452" y2="368.52"/><line class="f" x1="452" y1="392.57" x2="476.05" y2="392.57"/><g class="h"><path class="f" d="M452,368.52a24.05,24.05,0,0,1,24.05,24.05"/></g><line class="f" x1="449.59" y1="392.57" x2="452" y2="392.57"/><line class="f" x1="452" y1="368.52" x2="449.59" y2="368.52"/><line class="f" x1="452" y1="368.52" x2="452" y2="366.8"/><line class="f" x1="449.59" y1="368.52" x2="449.59" y2="366.8"/><line class="f" x1="452" y1="394.29" x2="452" y2="392.57"/><line class="f" x1="449.59" y1="394.29" x2="449.59" y2="392.57"/><line class="f" x1="449.59" y1="392.57" x2="449.59" y2="385.7"/><line class="f" x1="449.59" y1="381.92" x2="449.59" y2="381.15"/><line class="f" x1="449.59" y1="377.37" x2="449.59" y2="376.59"/><line class="f" x1="449.59" y1="375.39" x2="449.59" y2="368.52"/><line class="f" x1="452" y1="392.57" x2="452.86" y2="392.57"/><line class="f" x1="452.86" y1="392.57" x2="452.86" y2="396.01"/><line class="f" x1="452.86" y1="396.01" x2="452" y2="396.01"/><line class="f" x1="449.59" y1="392.57" x2="448.73" y2="392.57"/><line class="f" x1="448.73" y1="392.57" x2="448.73" y2="396.01"/><line class="f" x1="448.73" y1="396.01" x2="449.59" y2="396.01"/><line class="f" x1="452.86" y1="368.52" x2="452.86" y2="365.08"/><line class="f" x1="452.86" y1="365.08" x2="452" y2="365.08"/><line class="f" x1="449.59" y1="368.52" x2="448.73" y2="368.52"/><line class="f" x1="448.73" y1="368.52" x2="448.73" y2="365.08"/><line class="f" x1="448.73" y1="365.08" x2="449.59" y2="365.08"/><line class="f" x1="382.92" y1="359.92" x2="382.92" y2="387.42"/><line class="f" x1="382.92" y1="359.92" x2="355.43" y2="359.92"/><g class="h"><path class="f" d="M382.92,387.42a27.49,27.49,0,0,1-27.49-27.5"/></g><line class="f" x1="385.32" y1="359.92" x2="382.92" y2="359.92"/><line class="f" x1="382.92" y1="387.42" x2="385.32" y2="387.42"/><line class="f" x1="382.92" y1="387.42" x2="382.92" y2="389.14"/><line class="f" x1="385.32" y1="387.42" x2="385.32" y2="389.14"/><line class="f" x1="382.92" y1="358.21" x2="382.92" y2="359.92"/><line class="f" x1="385.32" y1="358.21" x2="385.32" y2="359.92"/><line class="f" x1="385.32" y1="359.92" x2="385.32" y2="366.8"/><line class="f" x1="385.32" y1="370.58" x2="385.32" y2="371.35"/><line class="f" x1="385.32" y1="375.13" x2="385.32" y2="375.91"/><line class="f" x1="385.32" y1="379.69" x2="385.32" y2="380.55"/><line class="f" x1="385.32" y1="380.55" x2="385.32" y2="387.42"/><line class="f" x1="382.92" y1="359.92" x2="382.06" y2="359.92"/><line class="f" x1="382.06" y1="359.92" x2="382.06" y2="356.49"/><line class="f" x1="382.06" y1="356.49" x2="382.92" y2="356.49"/><line class="f" x1="385.32" y1="359.92" x2="386.18" y2="359.92"/><line class="f" x1="386.18" y1="359.92" x2="386.18" y2="356.49"/><line class="f" x1="386.18" y1="356.49" x2="385.32" y2="356.49"/><line class="f" x1="382.06" y1="387.42" x2="382.06" y2="390.86"/><line class="f" x1="382.06" y1="390.86" x2="382.92" y2="390.86"/><line class="f" x1="385.32" y1="387.42" x2="386.18" y2="387.42"/><line class="f" x1="386.18" y1="387.42" x2="386.18" y2="390.86"/><line class="f" x1="386.18" y1="390.86" x2="385.32" y2="390.86"/><line class="f" x1="509.73" y1="339.3" x2="513.17" y2="339.3"/><line class="f" x1="403.54" y1="400.13" x2="403.54" y2="397.73"/><line class="f" x1="403.54" y1="400.13" x2="403.54" y2="452.72"/><line class="f" x1="483.96" y1="396.81" x2="483.96" y2="393.37"/><line class="f" x1="483.96" y1="393.37" x2="504.58" y2="393.37"/><line class="f" x1="504.58" y1="393.37" x2="504.58" y2="396.81"/><line class="f" x1="504.58" y1="396.81" x2="503.55" y2="396.81"/><line class="f" x1="503.55" y1="396.81" x2="503.55" y2="394.4"/><line class="f" x1="503.55" y1="394.4" x2="484.99" y2="394.4"/><line class="f" x1="484.99" y1="394.4" x2="484.99" y2="396.81"/><line class="f" x1="484.99" y1="396.81" x2="483.96" y2="396.81"/><line class="f" x1="483.96" y1="396.81" x2="483.96" y2="393.37"/><line class="f" x1="504.58" y1="396.81" x2="504.58" y2="393.37"/><line class="f" x1="484.99" y1="396.81" x2="484.99" y2="394.4"/><line class="f" x1="503.55" y1="396.81" x2="503.55" y2="394.4"/><line class="f" x1="483.96" y1="393.37" x2="504.58" y2="393.37"/><line class="f" x1="483.96" y1="394.4" x2="504.58" y2="394.4"/><line class="f" x1="483.96" y1="396.81" x2="484.99" y2="396.81"/><line class="f" x1="503.55" y1="396.81" x2="504.58" y2="396.81"/><line class="f" x1="519.7" y1="233.05" x2="519.7" y2="212.43"/><line class="f" x1="527.58" y1="220.31" x2="532.44" y2="225.17"/><line class="f" x1="532.44" y1="220.31" x2="527.58" y2="225.17"/><line class="f" x1="530.01" y1="226.18" x2="530.01" y2="219.3"/><line class="f" x1="526.57" y1="222.74" x2="533.44" y2="222.74"/><line class="f" x1="540.32" y1="212.43" x2="540.32" y2="233.05"/><line class="f" x1="519.7" y1="233.05" x2="540.32" y2="233.05"/><line class="f" x1="519.7" y1="212.43" x2="540.32" y2="212.43"/><line class="f" x1="519.7" y1="315.87" x2="519.7" y2="191.81"/><line class="f" x1="540.32" y1="336.49" x2="540.32" y2="191.81"/><line class="f" x1="540.32" y1="191.81" x2="519.7" y2="212.43"/><line class="f" x1="489.63" y1="317.59" x2="508.53" y2="317.59"/><line class="f" x1="508.53" y1="317.59" x2="508.53" y2="334.78"/><line class="f" x1="489.63" y1="334.78" x2="489.63" y2="317.59"/><line class="f" x1="488.77" y1="315.87" x2="509.39" y2="315.87"/><line class="f" x1="491.35" y1="319.31" x2="506.81" y2="319.31"/><line class="f" x1="506.81" y1="319.31" x2="506.81" y2="331.34"/><line class="f" x1="506.81" y1="331.34" x2="491.35" y2="331.34"/><line class="f" x1="491.35" y1="331.34" x2="491.35" y2="319.31"/><line class="f" x1="519.7" y1="315.87" x2="457.84" y2="315.87"/><line class="f" x1="540.32" y1="336.49" x2="457.84" y2="336.49"/><line class="f" x1="540.32" y1="274.29" x2="519.7" y2="274.29"/><line class="f" x1="519.7" y1="274.29" x2="519.7" y2="253.67"/><line class="f" x1="519.7" y1="253.67" x2="540.32" y2="253.67"/><line class="f" x1="540.32" y1="253.67" x2="540.32" y2="274.29"/><line class="f" x1="518.76" y1="256.48" x2="518.76" y2="271.48"/><line class="f" x1="540.32" y1="305.22" x2="519.7" y2="305.22"/><line class="f" x1="519.7" y1="305.22" x2="519.7" y2="284.6"/><line class="f" x1="519.7" y1="284.6" x2="540.32" y2="284.6"/><line class="f" x1="540.32" y1="284.6" x2="540.32" y2="305.22"/><line class="f" x1="327.03" y1="341.26" x2="358.39" y2="341.26"/><line class="f" x1="358.38" y1="341.26" x2="358.38" y2="343.37"/><line class="f" x1="358.38" y1="343.37" x2="350.55" y2="345.47"/><line class="f" x1="350.55" y1="345.47" x2="334.87" y2="345.47"/><line class="f" x1="334.87" y1="345.47" x2="327.03" y2="343.37"/><line class="f" x1="327.03" y1="343.37" x2="327.03" y2="341.26"/><line class="f" x1="356.3" y1="342.1" x2="354.2" y2="342.1"/><line class="f" x1="354.2" y1="342.1" x2="354.2" y2="342.63"/><line class="f" x1="354.2" y1="342.63" x2="356.3" y2="342.63"/><line class="f" x1="356.3" y1="342.63" x2="356.3" y2="342.1"/><line class="f" x1="353.68" y1="342.1" x2="351.59" y2="342.1"/><line class="f" x1="351.59" y1="342.1" x2="351.59" y2="342.63"/><line class="f" x1="351.59" y1="342.63" x2="353.68" y2="342.63"/><line class="f" x1="353.68" y1="342.63" x2="353.68" y2="342.1"/><line class="f" x1="351.07" y1="342.1" x2="350.02" y2="342.1"/><line class="f" x1="350.02" y1="342.1" x2="350.02" y2="342.63"/><line class="f" x1="350.02" y1="342.63" x2="351.07" y2="342.63"/><line class="f" x1="351.07" y1="342.63" x2="351.07" y2="342.1"/><line class="f" x1="327.03" y1="343.37" x2="358.39" y2="343.37"/><line class="f" x1="310.06" y1="460.96" x2="310.06" y2="460.96"/><line class="f" x1="310.06" y1="460.96" x2="330.68" y2="460.96"/><line class="f" x1="330.68" y1="460.96" x2="330.68" y2="460.96"/><line class="f" x1="372.27" y1="282.54" x2="372.27" y2="265.35"/><line class="f" x1="372.27" y1="265.35" x2="344.77" y2="265.35"/><line class="f" x1="344.77" y1="265.35" x2="344.77" y2="282.54"/><line class="f" x1="344.77" y1="282.54" x2="372.27" y2="282.54"/><line class="f" x1="457.84" y1="336.49" x2="457.84" y2="315.87"/><line class="f" x1="457.84" y1="315.87" x2="478.46" y2="315.87"/><line class="f" x1="478.46" y1="315.87" x2="478.46" y2="336.49"/><line class="f" x1="478.46" y1="336.49" x2="457.84" y2="336.49"/><line class="f" x1="519.7" y1="191.81" x2="540.32" y2="191.81"/><line class="f" x1="540.32" y1="191.81" x2="540.32" y2="212.43"/><line class="f" x1="540.32" y1="212.43" x2="519.7" y2="212.43"/><line class="f" x1="519.7" y1="212.43" x2="519.7" y2="191.81"/><line class="f" x1="385.67" y1="390.45" x2="411.1" y2="390.45"/><line class="f" x1="411.1" y1="390.45" x2="411.1" y2="397.32"/><line class="f" x1="411.1" y1="397.32" x2="385.67" y2="397.32"/><line class="f" x1="385.67" y1="397.32" x2="385.67" y2="390.45"/><line class="f" x1="385.67" y1="339.59" x2="411.44" y2="339.59"/><line class="f" x1="411.44" y1="339.59" x2="411.44" y2="356.77"/><line class="f" x1="411.44" y1="356.77" x2="385.67" y2="356.77"/><line class="f" x1="385.67" y1="356.77" x2="385.67" y2="339.59"/><line class="f" x1="485.68" y1="193.19" x2="513.17" y2="193.19"/><line class="f" x1="513.17" y1="193.19" x2="513.17" y2="195.45"/><line class="f" x1="513.17" y1="195.45" x2="485.68" y2="195.45"/><line class="f" x1="485.68" y1="195.45" x2="485.68" y2="193.18"/><line class="f" x1="257.58" y1="401.1" x2="257.58" y2="366.74"/><line class="f" x1="257.58" y1="366.74" x2="259.75" y2="366.74"/><line class="f" x1="259.75" y1="366.74" x2="259.75" y2="401.1"/><line class="f" x1="259.75" y1="401.1" x2="257.58" y2="401.1"/><line class="f" x1="430.69" y1="227.55" x2="451.31" y2="227.55"/><line class="f" x1="451.31" y1="227.55" x2="451.31" y2="229.82"/><line class="f" x1="451.31" y1="229.82" x2="430.69" y2="229.82"/><line class="f" x1="430.69" y1="229.82" x2="430.69" y2="227.55"/><line class="f" x1="305.25" y1="298" x2="305.25" y2="249.89"/><line class="f" x1="305.25" y1="249.89" x2="308.69" y2="249.89"/><line class="f" x1="308.69" y1="249.89" x2="308.69" y2="298"/><line class="f" x1="308.69" y1="298" x2="305.25" y2="298"/><g class="h"><path class="f" d="M474.16,326.18a6,6,0,1,0-6,6,6,6,0,0,0,6-6"/><path class="f" d="M473.13,326.18a5,5,0,1,0-5,5,5,5,0,0,0,5-5"/><path class="f" d="M499.77,327.9a.69.69,0,0,0-1.38,0,.69.69,0,1,0,1.38,0"/><path class="f" d="M538.44,269a3.37,3.37,0,1,0-3.37,3.37,3.37,3.37,0,0,0,3.37-3.37"/><path class="f" d="M528.32,269a3.38,3.38,0,1,0-3.37,3.37,3.37,3.37,0,0,0,3.37-3.37"/><path class="f" d="M528.32,258.92a3.38,3.38,0,1,0-3.37,3.37,3.37,3.37,0,0,0,3.37-3.37"/><path class="f" d="M336.44,345.09a6.27,6.27,0,0,1,12.54,0"/><path class="f" d="M349,345.09a12.54,12.54,0,0,1-12.54,0"/><path class="f" d="M518.32,194.32a1.72,1.72,0,1,0-1.71,1.72,1.72,1.72,0,0,0,1.71-1.72"/><path class="f" d="M260.38,363.3a1.72,1.72,0,1,0-1.71,1.72,1.72,1.72,0,0,0,1.71-1.72"/><path class="f" d="M456.46,228.69a1.72,1.72,0,1,0-1.71,1.71,1.72,1.72,0,0,0,1.71-1.71"/><path class="f" d="M308.69,246.45a1.72,1.72,0,1,0-1.72,1.72,1.71,1.71,0,0,0,1.72-1.72"/><path class="f" d="M535.51,371.09a.86.86,0,1,0-.86.86.86.86,0,0,0,.86-.86"/></g><line class="f" x1="510.59" y1="371.09" x2="510.59" y2="391.71"/><line class="f" x1="514.03" y1="395.15" x2="534.65" y2="395.15"/><line class="f" x1="538.08" y1="391.71" x2="538.08" y2="371.09"/><line class="f" x1="534.65" y1="367.66" x2="514.03" y2="367.66"/><g class="h"><path class="f" d="M510.59,371.09a3.44,3.44,0,0,1,3.44-3.43"/><path class="f" d="M514,395.15a3.44,3.44,0,0,1-3.44-3.44"/><path class="f" d="M534.65,367.66a3.44,3.44,0,0,1,3.43,3.43"/><path class="f" d="M538.08,391.71a3.44,3.44,0,0,1-3.43,3.44"/></g><line class="f" x1="489.63" y1="334.78" x2="508.53" y2="334.78"/><rect class="d" x="344.77" y="265.42" width="27.49" height="17.18"/><line class="f" x1="344.77" y1="265.42" x2="344.77" y2="282.6"/><line class="f" x1="372.27" y1="265.42" x2="344.77" y2="265.42"/><line class="f" x1="372.27" y1="282.6" x2="372.27" y2="265.42"/><line class="f" x1="344.77" y1="282.6" x2="372.27" y2="282.6"/><rect class="d" x="483.96" y="394.4" width="1.03" height="2.4"/><line class="f" x1="483.96" y1="396.81" x2="484.99" y2="396.81"/><line class="f" x1="483.96" y1="394.4" x2="483.96" y2="396.81"/><line class="f" x1="484.99" y1="394.4" x2="483.96" y2="394.4"/><line class="f" x1="484.99" y1="396.81" x2="484.99" y2="394.4"/><rect class="d" x="483.96" y="393.37" width="20.62" height="1.03"/><line class="f" x1="483.96" y1="393.37" x2="483.96" y2="394.4"/><line class="f" x1="504.58" y1="393.37" x2="483.96" y2="393.37"/><line class="f" x1="504.58" y1="394.4" x2="504.58" y2="393.37"/><line class="f" x1="483.96" y1="394.4" x2="504.58" y2="394.4"/><rect class="d" x="503.55" y="394.4" width="1.03" height="2.4"/><line class="f" x1="503.55" y1="396.81" x2="504.58" y2="396.81"/><line class="f" x1="503.55" y1="394.4" x2="503.55" y2="396.81"/><line class="f" x1="504.58" y1="394.4" x2="503.55" y2="394.4"/><line class="f" x1="504.58" y1="396.81" x2="504.58" y2="394.4"/><rect class="d" x="452" y="339.3" width="57.74" height="5.15"/><line class="f" x1="452" y1="339.3" x2="509.73" y2="339.3"/><line class="f" x1="509.73" y1="339.3" x2="509.73" y2="344.46"/><line class="f" x1="509.73" y1="344.46" x2="452" y2="344.46"/><line class="f" x1="452" y1="344.46" x2="452" y2="339.3"/><polygon class="g" points="518.32 194.32 517.82 195.53 516.61 196.04 515.39 195.53 514.89 194.32 515.39 193.1 516.61 192.6 517.82 193.1 518.32 194.32"/><g class="h"><path class="f" d="M518.32,194.32a1.72,1.72,0,1,1-3.43,0"/><path class="f" d="M514.89,194.32a1.72,1.72,0,1,1,3.43,0"/></g><rect class="d" x="485.68" y="193.19" width="27.49" height="2.27"/><line class="f" x1="485.68" y1="193.19" x2="485.68" y2="195.45"/><line class="f" x1="513.17" y1="193.19" x2="485.68" y2="193.19"/><line class="f" x1="513.17" y1="195.45" x2="513.17" y2="193.18"/><line class="f" x1="485.68" y1="195.45" x2="513.17" y2="195.45"/><rect class="d" x="430.69" y="227.55" width="20.62" height="2.27"/><line class="f" x1="430.69" y1="227.55" x2="430.69" y2="229.82"/><line class="f" x1="451.31" y1="227.55" x2="430.69" y2="227.55"/><line class="f" x1="451.31" y1="229.82" x2="451.31" y2="227.55"/><line class="f" x1="430.69" y1="229.82" x2="451.31" y2="229.82"/><polygon class="g" points="453.03 228.69 453.53 227.47 454.75 226.97 455.96 227.47 456.46 228.69 455.96 229.9 454.75 230.4 453.53 229.9 453.03 228.69"/><g class="h"><path class="f" d="M453,228.69a1.72,1.72,0,1,1,3.43,0"/><path class="f" d="M456.46,228.69a1.72,1.72,0,0,1-3.43,0"/></g><polygon class="g" points="308.69 246.45 308.18 247.67 306.97 248.17 305.75 247.67 305.25 246.45 305.75 245.24 306.97 244.74 308.18 245.24 308.69 246.45"/><g class="h"><path class="f" d="M308.69,246.45a1.72,1.72,0,1,1-3.44,0"/><path class="f" d="M305.25,246.45a1.72,1.72,0,0,1,3.44,0"/></g><rect class="d" x="305.25" y="249.89" width="3.44" height="48.11"/><line class="f" x1="305.25" y1="298" x2="308.69" y2="298"/><line class="f" x1="305.25" y1="249.89" x2="305.25" y2="298"/><line class="f" x1="308.69" y1="249.89" x2="305.25" y2="249.89"/><line class="f" x1="308.69" y1="298" x2="308.69" y2="249.89"/><polygon class="g" points="260.38 363.3 259.88 364.51 258.67 365.02 257.45 364.51 256.95 363.3 257.45 362.08 258.67 361.58 259.88 362.08 260.38 363.3"/><g class="h"><path class="f" d="M260.38,363.3a1.72,1.72,0,1,1-3.43,0"/><path class="f" d="M257,363.3a1.72,1.72,0,1,1,3.43,0"/></g><rect class="d" x="257.58" y="366.74" width="2.16" height="34.37"/><line class="f" x1="257.58" y1="366.74" x2="257.58" y2="401.1"/><line class="f" x1="259.75" y1="366.74" x2="257.58" y2="366.74"/><line class="f" x1="259.75" y1="401.1" x2="259.75" y2="366.74"/><line class="f" x1="257.58" y1="401.1" x2="259.75" y2="401.1"/><polygon class="g" points="282.57 452.72 344.43 452.72 344.43 442.39 344.43 390.79 343.9 388.16 342.42 385.93 340.18 384.44 337.55 383.91 289.44 383.91 286.81 384.44 284.58 385.93 283.09 388.16 282.57 390.79 282.57 452.72"/><rect class="d" x="270.54" y="442.39" width="12.03" height="10.32"/><rect class="d" x="344.43" y="442.39" width="12.03" height="10.32"/><line class="f" x1="315.44" y1="441.28" x2="316.27" y2="444.25"/><line class="f" x1="286.59" y1="441.28" x2="287.41" y2="444.25"/><line class="f" x1="337.56" y1="383.91" x2="289.44" y2="383.91"/><line class="f" x1="282.57" y1="390.79" x2="282.57" y2="452.72"/><line class="f" x1="282.57" y1="452.72" x2="344.43" y2="452.72"/><line class="f" x1="344.43" y1="452.72" x2="344.43" y2="390.79"/><line class="f" x1="282.57" y1="452.72" x2="270.54" y2="452.72"/><line class="f" x1="270.54" y1="452.72" x2="270.54" y2="442.39"/><line class="f" x1="270.54" y1="442.39" x2="282.57" y2="442.39"/><line class="f" x1="282.57" y1="442.39" x2="282.57" y2="452.72"/><line class="f" x1="356.46" y1="452.72" x2="344.43" y2="452.72"/><line class="f" x1="344.43" y1="452.72" x2="344.43" y2="442.39"/><line class="f" x1="344.43" y1="442.39" x2="356.46" y2="442.39"/><line class="f" x1="356.46" y1="442.39" x2="356.46" y2="452.72"/><line class="f" x1="282.57" y1="429.83" x2="344.43" y2="429.83"/><line class="f" x1="282.57" y1="424.67" x2="344.43" y2="424.67"/><g class="h"><path class="f" d="M310.89,435a97.52,97.52,0,0,1-12.66.83,96,96,0,0,1-9.74-.49"/><path class="f" d="M286.26,437.28v-.1a1.84,1.84,0,0,1,1.84-1.84,1.72,1.72,0,0,1,.39,0"/><path class="f" d="M286.59,441.28a14.32,14.32,0,0,1-.36-3.19q0-.4,0-.81"/><path class="f" d="M286.39,449q-.06-1.24-.06-2.49c0-1.73.09-3.47.26-5.19"/><path class="f" d="M286.85,449.45h-.08a.39.39,0,0,1-.4-.39.43.43,0,0,1,0-.11"/><path class="f" d="M286.84,449.45q7.38-.56,14.78-.56c3.12,0,6.23.07,9.34.23"/><path class="f" d="M312.07,447.88a1,1,0,0,1,.05.3,1,1,0,0,1-1,1l-.2,0"/><path class="f" d="M312.07,447.87a45.82,45.82,0,0,1-.18-11.85"/><path class="f" d="M310.89,435a1,1,0,0,1,.24,0,.79.79,0,0,1,.79.8.89.89,0,0,1,0,.22"/><path class="f" d="M282.57,390.79h0a6.87,6.87,0,0,1,6.87-6.88"/><path class="f" d="M337.56,383.92h0a6.87,6.87,0,0,1,6.87,6.88"/><path class="f" d="M339.75,435a97,97,0,0,1-22.4.34"/><path class="f" d="M315.11,437.28v-.1a1.84,1.84,0,0,1,1.84-1.84,1.75,1.75,0,0,1,.4,0"/><path class="f" d="M315.44,441.28a14.92,14.92,0,0,1-.35-3.19q0-.4,0-.81"/><path class="f" d="M315.25,449q-.06-1.24-.06-2.49c0-1.73.09-3.47.25-5.19"/><path class="f" d="M315.7,449.45h-.08a.39.39,0,0,1-.39-.39.43.43,0,0,1,0-.11"/><path class="f" d="M315.7,449.45q7.38-.56,14.78-.56,4.68,0,9.34.22"/><path class="f" d="M340.93,447.88a1,1,0,0,1,0,.3,1,1,0,0,1-1,1,.64.64,0,0,1-.2,0"/><path class="f" d="M340.93,447.88a45.9,45.9,0,0,1-.18-11.86"/><path class="f" d="M339.74,435a1,1,0,0,1,.24,0,.8.8,0,0,1,.8.8.89.89,0,0,1,0,.22"/></g><polygon class="g" points="337.96 257.86 338.33 258.36 338.93 258.54 376.39 258.54 377.01 258.36 377.42 257.86 377.62 258.34 378.11 258.54 379.14 258.54 380.86 258.08 382.11 256.83 382.57 255.11 382.57 230.02 382.37 229.53 381.89 229.33 311.09 229.33 310.61 229.53 310.4 230.02 310.4 257.86 310.56 258.31 310.96 258.58 311.44 258.54 336.87 258.54 337.59 258.49 337.96 257.86"/><polygon class="g" points="337.9 280.88 337.37 283.51 335.88 285.75 333.66 287.23 331.03 287.75 317.28 287.75 314.65 287.23 312.42 285.75 310.93 283.51 310.4 280.88 310.4 259.58 310.71 258.85 311.44 258.54 336.87 258.54 337.6 258.85 337.9 259.58 337.9 280.88"/><g class="h"><path class="f" d="M337.9,280.88a6.88,6.88,0,0,1-6.87,6.88"/></g><line class="f" x1="331.03" y1="287.76" x2="317.28" y2="287.76"/><g class="h"><path class="f" d="M317.28,287.76a6.88,6.88,0,0,1-6.88-6.88"/></g><line class="f" x1="310.4" y1="280.88" x2="310.4" y2="259.58"/><g class="h"><path class="f" d="M310.4,259.58a1,1,0,0,1,1-1"/></g><line class="f" x1="311.44" y1="258.54" x2="336.87" y2="258.54"/><g class="h"><path class="f" d="M336.87,258.54a1,1,0,0,1,1,1"/></g><line class="f" x1="337.9" y1="259.58" x2="337.9" y2="280.88"/><line class="f" x1="378.11" y1="258.54" x2="379.14" y2="258.54"/><line class="f" x1="382.58" y1="255.11" x2="382.58" y2="230.02"/><line class="f" x1="381.89" y1="229.33" x2="378.11" y2="229.33"/><line class="f" x1="377.42" y1="230.02" x2="377.42" y2="257.86"/><line class="f" x1="378.11" y1="229.33" x2="337.9" y2="229.33"/><line class="f" x1="337.9" y1="229.33" x2="337.9" y2="231.74"/><line class="f" x1="338.93" y1="258.54" x2="376.39" y2="258.54"/><line class="f" x1="377.42" y1="257.51" x2="377.42" y2="240.28"/><line class="f" x1="337.9" y1="240.28" x2="337.9" y2="257.51"/><line class="f" x1="377.42" y1="231.74" x2="377.42" y2="238.22"/><line class="f" x1="337.9" y1="238.22" x2="337.9" y2="231.74"/><line class="f" x1="314.87" y1="258.54" x2="311.09" y2="258.54"/><line class="f" x1="310.4" y1="257.86" x2="310.4" y2="230.02"/><line class="f" x1="311.09" y1="229.33" x2="314.87" y2="229.33"/><line class="f" x1="314.87" y1="229.33" x2="337.9" y2="229.33"/><line class="f" x1="337.9" y1="229.33" x2="337.9" y2="231.74"/><line class="f" x1="336.87" y1="258.54" x2="316.59" y2="258.54"/><line class="f" x1="337.9" y1="240.28" x2="337.9" y2="257.51"/><line class="f" x1="337.9" y1="240.28" x2="337.9" y2="231.74"/><line class="f" x1="331.03" y1="287.76" x2="317.28" y2="287.76"/><line class="f" x1="310.4" y1="280.88" x2="310.4" y2="259.58"/><line class="f" x1="311.44" y1="258.54" x2="336.87" y2="258.54"/><line class="f" x1="337.9" y1="259.58" x2="337.9" y2="280.88"/><line class="f" x1="336.87" y1="230.71" x2="311.44" y2="230.71"/><line class="f" x1="338.93" y1="230.71" x2="376.39" y2="230.71"/><g class="h"><path class="f" d="M381.89,229.33a.69.69,0,0,1,.69.69"/><path class="f" d="M377.42,230a.69.69,0,0,1,.69-.69"/><path class="f" d="M378.11,258.54a.68.68,0,0,1-.69-.68"/><path class="f" d="M377.42,257.51a1,1,0,0,1-1,1"/><path class="f" d="M338.93,258.54a1,1,0,0,1-1-1"/><path class="f" d="M311.09,258.54a.68.68,0,0,1-.69-.68"/><path class="f" d="M310.4,230a.69.69,0,0,1,.69-.69"/><path class="f" d="M337.9,257.51a1,1,0,0,1-1,1"/><path class="f" d="M310.4,259.58a1,1,0,0,1,1-1"/><path class="f" d="M336.87,258.54a1,1,0,0,1,1,1"/></g><line class="f" x1="311.44" y1="230.71" x2="311.44" y2="254.12"/><g class="h"><path class="f" d="M312.68,249.39a19.49,19.49,0,0,1,24.23-14.68"/><path class="f" d="M376.39,235.52a117.69,117.69,0,0,1-37.46,0"/><path class="f" d="M337.9,280.88a6.88,6.88,0,0,1-6.87,6.88"/><path class="f" d="M317.28,287.76a6.88,6.88,0,0,1-6.88-6.88"/><path class="f" d="M382.58,255.11a3.43,3.43,0,0,1-3.44,3.43"/></g><polygon class="g" points="448.98 251.4 452.54 251.86 455.86 253.23 458.7 255.41 460.89 258.25 464.74 251.59 465.21 249.88 464.75 248.16 463.49 246.9 457.54 243.48 455.82 243.02 454.1 243.48 452.84 244.74 448.98 251.4"/><polygon class="g" points="437.03 272.03 435.66 268.71 435.19 265.16 435.67 261.6 437.05 258.29 429.36 258.3 427.63 258.76 426.37 260.02 425.91 261.74 425.9 268.61 426.36 270.32 427.61 271.58 429.33 272.04 437.03 272.03"/><polygon class="g" points="460.87 271.99 458.67 274.84 455.82 277.03 452.5 278.4 448.94 278.88 452.77 285.52 454.03 286.78 455.75 287.24 457.47 286.77 463.44 283.33 464.7 282.07 465.16 280.35 464.7 278.63 460.87 271.99"/><polygon class="g" points="460.89 258.25 458.7 255.41 455.86 253.23 452.54 251.86 448.98 251.4 445.42 251.87 442.1 253.25 439.24 255.44 437.05 258.29 435.67 261.6 435.19 265.16 435.66 268.71 437.03 272.03 439.21 274.87 442.06 277.05 445.37 278.41 448.94 278.88 452.5 278.4 455.82 277.03 458.67 274.84 460.87 271.99 462.25 268.68 462.72 265.12 462.26 261.56 460.89 258.25"/><line class="f" x1="462.26" y1="261.56" x2="460.89" y2="258.25"/><line class="f" x1="462.72" y1="265.12" x2="462.26" y2="261.56"/><line class="f" x1="462.25" y1="268.68" x2="462.72" y2="265.12"/><line class="f" x1="460.87" y1="271.99" x2="462.25" y2="268.68"/><line class="f" x1="458.67" y1="274.84" x2="460.87" y2="271.99"/><line class="f" x1="455.82" y1="277.03" x2="458.67" y2="274.84"/><line class="f" x1="452.5" y1="278.4" x2="455.82" y2="277.03"/><line class="f" x1="448.94" y1="278.88" x2="452.5" y2="278.4"/><line class="f" x1="445.37" y1="278.41" x2="448.94" y2="278.88"/><line class="f" x1="442.06" y1="277.05" x2="445.37" y2="278.41"/><line class="f" x1="439.21" y1="274.87" x2="442.06" y2="277.05"/><line class="f" x1="437.03" y1="272.03" x2="439.21" y2="274.87"/><line class="f" x1="435.66" y1="268.71" x2="437.03" y2="272.02"/><line class="f" x1="435.19" y1="265.16" x2="435.66" y2="268.71"/><line class="f" x1="435.67" y1="261.6" x2="435.19" y2="265.16"/><line class="f" x1="437.05" y1="258.29" x2="435.67" y2="261.6"/><line class="f" x1="439.24" y1="255.44" x2="437.05" y2="258.29"/><line class="f" x1="442.09" y1="253.25" x2="439.24" y2="255.44"/><line class="f" x1="445.41" y1="251.87" x2="442.1" y2="253.25"/><line class="f" x1="448.98" y1="251.4" x2="445.42" y2="251.87"/><line class="f" x1="452.54" y1="251.86" x2="448.98" y2="251.4"/><line class="f" x1="455.86" y1="253.23" x2="452.54" y2="251.86"/><line class="f" x1="458.7" y1="255.41" x2="455.86" y2="253.23"/><line class="f" x1="460.89" y1="258.25" x2="458.7" y2="255.41"/><g class="h"><path class="f" d="M455.82,277a13.73,13.73,0,1,1-13.73-23.78"/><path class="f" d="M442.09,253.25A13.73,13.73,0,1,1,455.82,277"/></g><line class="f" x1="456.67" y1="244.97" x2="462.63" y2="248.39"/><line class="f" x1="464.74" y1="251.59" x2="460.89" y2="258.25"/><line class="f" x1="457.54" y1="243.48" x2="463.49" y2="246.9"/><line class="f" x1="448.98" y1="251.4" x2="452.84" y2="244.74"/><line class="f" x1="427.62" y1="268.61" x2="427.63" y2="261.74"/><line class="f" x1="429.36" y1="258.3" x2="437.05" y2="258.29"/><line class="f" x1="425.9" y1="268.61" x2="425.91" y2="261.74"/><line class="f" x1="437.03" y1="272.03" x2="429.33" y2="272.04"/><line class="f" x1="462.58" y1="281.84" x2="456.61" y2="285.29"/><line class="f" x1="452.77" y1="285.52" x2="448.94" y2="278.88"/><line class="f" x1="463.44" y1="283.33" x2="457.47" y2="286.77"/><line class="f" x1="460.87" y1="271.99" x2="464.7" y2="278.63"/><g class="h"><path class="f" d="M462.63,248.39a1.72,1.72,0,0,1,.63,2.35"/><path class="f" d="M454.32,245.6a1.73,1.73,0,0,1,2.35-.63"/><path class="f" d="M463.49,246.9a3.39,3.39,0,0,1,1.26,1.26,3.44,3.44,0,0,1,0,3.43"/><path class="f" d="M452.83,244.74a3.46,3.46,0,0,1,4.71-1.26"/><path class="f" d="M427.63,261.74a1.71,1.71,0,0,1,.86-1.49,1.73,1.73,0,0,1,.86-.23"/><path class="f" d="M429.34,270.32a1.72,1.72,0,0,1-1.72-1.71"/><path class="f" d="M425.91,261.74a3.46,3.46,0,0,1,1.72-3,3.5,3.5,0,0,1,1.73-.46"/><path class="f" d="M429.33,272a3.44,3.44,0,0,1-3.43-3.43"/><path class="f" d="M456.61,285.29h0a1.73,1.73,0,0,1-2.35-.63"/><path class="f" d="M463.21,279.49a1.73,1.73,0,0,1-.63,2.35"/><path class="f" d="M457.47,286.77a3.44,3.44,0,0,1-4.7-1.25"/><path class="f" d="M464.7,278.63a3.45,3.45,0,0,1-1.26,4.7"/></g><rect class="d" x="382.92" y="400.13" width="20.62" height="52.58"/><line class="f" x1="403.54" y1="452.72" x2="403.54" y2="400.13"/><line class="f" x1="403.54" y1="400.13" x2="382.92" y2="400.13"/><line class="f" x1="382.92" y1="400.13" x2="382.92" y2="452.72"/><line class="f" x1="382.92" y1="452.72" x2="403.54" y2="452.72"/><line class="f" x1="393.23" y1="450.09" x2="393.23" y2="402.76"/><line class="f" x1="399.29" y1="447.65" x2="386.94" y2="443.2"/><line class="f" x1="399.91" y1="442.63" x2="388.42" y2="440.8"/><line class="f" x1="385.8" y1="435.79" x2="398.4" y2="434.27"/><line class="f" x1="387.45" y1="428.03" x2="398.4" y2="430.08"/><line class="f" x1="386.82" y1="425.21" x2="400.32" y2="425.21"/><line class="f" x1="386.76" y1="417.21" x2="400.1" y2="419.11"/><line class="f" x1="386.98" y1="414.22" x2="399.17" y2="414.22"/><line class="f" x1="386.86" y1="406.33" x2="399.36" y2="404.82"/><line class="f" x1="387.71" y1="408.23" x2="398.27" y2="409.78"/><rect class="d" x="255.42" y="339.3" width="45.71" height="13.75"/><line class="f" x1="301.13" y1="339.3" x2="255.42" y2="339.3"/><line class="f" x1="255.42" y1="339.3" x2="255.42" y2="353.05"/><line class="f" x1="255.42" y1="353.05" x2="301.13" y2="353.05"/><line class="f" x1="301.13" y1="353.05" x2="301.13" y2="339.3"/><line class="f" x1="298.84" y1="346.18" x2="257.7" y2="346.18"/><line class="f" x1="296.72" y1="342.14" x2="292.85" y2="350.37"/><line class="f" x1="292.36" y1="341.72" x2="290.76" y2="349.38"/><line class="f" x1="286.41" y1="351.13" x2="285.09" y2="342.73"/><line class="f" x1="279.67" y1="350.03" x2="281.45" y2="342.73"/><line class="f" x1="277.21" y1="350.45" x2="277.21" y2="341.45"/><line class="f" x1="270.26" y1="350.49" x2="271.91" y2="341.6"/><line class="f" x1="267.66" y1="350.34" x2="267.66" y2="342.22"/><line class="f" x1="260.81" y1="350.43" x2="259.49" y2="342.1"/><line class="f" x1="262.46" y1="349.86" x2="263.79" y2="342.81"/><polygon class="g" points="460.42 344.46 478.29 344.46 478.65 344.61 478.8 344.98 478.8 359.07 478.65 359.43 478.29 359.58 460.42 359.58 460.05 359.43 459.9 359.07 459.9 344.98 460.05 344.61 460.42 344.46"/><line class="f" x1="460.42" y1="344.46" x2="478.29" y2="344.46"/><g class="h"><path class="f" d="M478.29,344.46a.51.51,0,0,1,.51.52"/></g><line class="f" x1="478.8" y1="344.98" x2="478.8" y2="359.07"/><g class="h"><path class="f" d="M478.8,359.07a.51.51,0,0,1-.51.51"/></g><line class="f" x1="478.29" y1="359.58" x2="460.42" y2="359.58"/><g class="h"><path class="f" d="M460.42,359.58a.51.51,0,0,1-.52-.51"/></g><line class="f" x1="459.9" y1="359.07" x2="459.9" y2="344.98"/><g class="h"><path class="f" d="M459.9,345a.52.52,0,0,1,.52-.52"/></g><line class="f" x1="461.45" y1="348.24" x2="477.26" y2="348.24"/><line class="f" x1="477.77" y1="348.76" x2="477.77" y2="358.03"/><line class="f" x1="477.26" y1="358.55" x2="461.45" y2="358.55"/><line class="f" x1="460.93" y1="358.04" x2="460.93" y2="348.76"/><g class="h"><path class="f" d="M477.26,348.24a.51.51,0,0,1,.51.52"/><path class="f" d="M477.77,358a.51.51,0,0,1-.51.51"/><path class="f" d="M461.45,358.55a.51.51,0,0,1-.52-.51"/><path class="f" d="M460.93,348.76a.52.52,0,0,1,.52-.52"/></g><polygon class="g" points="468.49 346.52 468.63 347.96 468.74 348.29 468.97 350.11 469.1 350.35 469.35 350.45 469.61 350.35 469.73 350.11 469.96 348.29 470.07 347.96 470.21 346.52 469.96 345.92 469.35 345.66 468.74 345.92 468.49 346.52"/><g class="h"><path class="f" d="M468.49,346.52a.86.86,0,0,1,1.72,0"/></g><line class="f" x1="470.07" y1="347.97" x2="470.21" y2="346.52"/><g class="h"><path class="f" d="M470.07,348a.76.76,0,0,1-.11.32"/></g><line class="f" x1="469.73" y1="350.11" x2="469.96" y2="348.29"/><g class="h"><path class="f" d="M469.73,350.11a.38.38,0,0,1-.76,0"/></g><line class="f" x1="468.74" y1="348.29" x2="468.97" y2="350.11"/><g class="h"><path class="f" d="M468.74,348.29a.76.76,0,0,1-.11-.32"/></g><line class="f" x1="468.49" y1="346.52" x2="468.63" y2="347.97"/><line class="f" x1="469.82" y1="347.38" x2="469.82" y2="347.89"/><line class="f" x1="468.88" y1="347.89" x2="468.88" y2="347.38"/><line class="f" x1="468.88" y1="347.38" x2="469.82" y2="347.38"/><g class="h"><path class="f" d="M469.82,347.89a.47.47,0,0,1-.94,0"/><path class="f" d="M470,348.29a.73.73,0,0,1-1.22,0"/></g><polygon class="g" points="487.05 344.46 487.05 355.8 487.31 357.5 488.08 359.04 489.28 360.27 491.23 361.29 493.41 361.64 495.58 361.29 497.53 360.27 498.73 359.04 499.5 357.5 499.76 355.8 499.76 344.46 487.05 344.46"/><line class="f" x1="499.77" y1="344.46" x2="499.77" y2="355.8"/><line class="f" x1="499.77" y1="344.46" x2="487.05" y2="344.46"/><line class="f" x1="487.05" y1="344.46" x2="487.05" y2="355.8"/><line class="f" x1="497.7" y1="348.58" x2="497.7" y2="355.8"/><line class="f" x1="489.11" y1="348.58" x2="489.11" y2="355.8"/><line class="f" x1="489.11" y1="348.58" x2="497.7" y2="348.58"/><g class="h"><path class="f" d="M499.77,355.8a5.59,5.59,0,0,1-2.24,4.47"/><path class="f" d="M489.28,360.27a5.58,5.58,0,0,1-2.23-4.47"/><path class="f" d="M497.53,360.27a6.9,6.9,0,0,1-8.25,0"/><path class="f" d="M489.28,360.27a5.58,5.58,0,0,1-2.23-4.47"/><path class="f" d="M493.41,361.64a6.84,6.84,0,0,1-4.12-1.37"/><path class="f" d="M490.52,358.62a3.54,3.54,0,0,1-1.41-2.82"/><path class="f" d="M496.3,358.62a4.83,4.83,0,0,1-5.78,0"/><path class="f" d="M497.7,355.8a3.51,3.51,0,0,1-1.41,2.82"/></g><line class="f" x1="527.66" y1="297.05" x2="527.66" y2="291.29"/><line class="f" x1="527.66" y1="291.29" x2="530.01" y2="293.18"/><line class="f" x1="530.01" y1="293.18" x2="532.35" y2="291.29"/><line class="f" x1="532.35" y1="291.29" x2="532.35" y2="297.05"/><line class="f" x1="387.73" y1="212.15" x2="387.73" y2="158.88"/><line class="f" x1="387.73" y1="158.88" x2="459.9" y2="158.88"/><line class="f" x1="459.9" y1="158.88" x2="459.9" y2="177.78"/><line class="f" x1="386.01" y1="212.15" x2="386.01" y2="157.16"/><line class="f" x1="386.01" y1="157.16" x2="461.62" y2="157.16"/><line class="f" x1="461.62" y1="157.16" x2="461.62" y2="177.78"/><rect x="518.32" y="177.78" width="30.59" height="6.87"/><rect x="520.04" y="184.66" width="28.87" height="6.87"/><polygon class="i" points="289.78 244.8 289.78 212.15 386.01 212.15 394.6 212.15 394.6 219.02 296.66 219.02 296.66 244.8 289.78 244.8"/><polygon class="i" points="454.75 219.02 461.62 219.02 461.62 184.66 485.68 184.66 485.68 191.53 468.49 191.53 468.49 225.9 454.75 225.9 454.75 219.02"/><polygon class="i" points="453.03 219.02 453.03 212.15 454.75 212.15 454.75 177.78 461.62 177.78 487.39 177.78 487.39 184.66 461.62 184.66 461.62 219.02 453.03 219.02"/><polygon class="i" points="392.88 219.02 392.88 225.9 303.53 225.9 303.53 243.08 296.66 243.08 296.66 219.02 392.88 219.02"/><rect x="449.59" y="397.73" width="99.32" height="8.25"/><rect x="540.66" y="191.53" width="8.25" height="206.2"/><rect x="248.54" y="411.48" width="6.87" height="49.49"/><polygon class="i" points="241.67 358.21 241.67 325.56 289.78 325.56 289.78 303.22 296.66 303.22 296.66 332.43 248.54 332.43 248.54 358.21 241.67 358.21"/><polygon class="i" points="248.54 356.49 248.54 332.43 296.66 332.43 296.66 304.94 303.53 304.94 303.53 339.31 255.42 339.31 255.42 356.49 248.54 356.49"/><rect x="241.67" y="409.76" width="6.87" height="51.21"/><polygon class="i" points="411.79 460.96 255.42 460.96 255.42 452.71 403.54 452.71 403.54 397.73 411.79 397.73 411.79 405.98 411.79 460.96"/><rect x="449.59" y="394.29" width="2.4" height="3.44"/><polygon class="i" points="403.54 397.73 403.54 400.13 382.92 400.13 382.92 389.14 385.32 389.14 385.32 397.73 403.54 397.73"/><polygon class="i" points="452 339.31 452 366.8 449.59 366.8 449.59 339.31 446.15 339.31 446.15 336.9 540.66 336.9 540.66 339.31 452 339.31"/><polygon class="i" points="385.32 339.31 385.32 358.21 382.92 358.21 382.92 353.05 301.13 353.05 301.13 339.31 303.53 339.31 303.53 350.65 382.92 350.65 382.92 336.9 415.23 336.9 415.23 339.31 385.32 339.31"/><rect x="509.73" y="361.64" width="30.93" height="3.44"/><rect x="509.73" y="339.3" width="3.44" height="22.34"/><rect x="411.79" y="402.02" width="1.72" height="3.95"/><rect x="447.87" y="402.02" width="1.72" height="3.95"/><line class="f" x1="289.78" y1="325.56" x2="241.67" y2="325.56"/><line class="f" x1="241.67" y1="325.56" x2="241.67" y2="460.96"/><line class="f" x1="241.67" y1="460.96" x2="411.79" y2="460.96"/><line class="f" x1="411.79" y1="460.96" x2="411.79" y2="405.98"/><line class="f" x1="411.79" y1="405.98" x2="548.91" y2="405.98"/><line class="f" x1="548.91" y1="405.98" x2="548.91" y2="177.78"/><line class="f" x1="548.91" y1="177.78" x2="461.62" y2="177.78"/><line class="f" x1="461.62" y1="177.78" x2="461.62" y2="157.16"/><line class="f" x1="461.62" y1="157.16" x2="386.01" y2="157.16"/><line class="f" x1="386.01" y1="157.16" x2="386.01" y2="212.15"/><line class="f" x1="386.01" y1="212.15" x2="289.78" y2="212.15"/><line class="f" x1="289.78" y1="212.15" x2="289.78" y2="325.56"/><path class="j" d="M483.3,370.68v7h-.72v-6.36h-1.64v-.64Z"/><path class="j" d="M485,377.18a.53.53,0,0,1,.53-.54.54.54,0,0,1,.54.54.55.55,0,0,1-.54.55A.54.54,0,0,1,485,377.18Z"/><path class="j" d="M487,374.18c0-2.23,1.16-3.56,2.78-3.56s2.8,1.33,2.8,3.56-1.18,3.56-2.8,3.56S487,376.41,487,374.18Zm4.84,0c0-1.87-.84-2.9-2.06-2.9s-2,1-2,2.9.83,2.9,2,2.9S491.84,376.05,491.84,374.18Z"/><path class="j" d="M499.56,375.84h-1.4v1.84h-.72v-1.84H493.5v-.52l3.7-4.64h.8l-3.57,4.52h3v-1.62h.7v1.62h1.4Z"/><path class="j" d="M413.38,183.73v7h-.72v-6.36H411v-.64Z"/><path class="j" d="M415.07,190.23a.53.53,0,0,1,.53-.54.54.54,0,0,1,.54.54.55.55,0,0,1-.54.55A.54.54,0,0,1,415.07,190.23Z"/><path class="j" d="M417.08,187.23c0-2.23,1.16-3.56,2.78-3.56s2.8,1.33,2.8,3.56-1.18,3.56-2.8,3.56S417.08,189.46,417.08,187.23Zm4.84,0c0-1.87-.84-2.9-2.06-2.9s-2.05,1-2.05,2.9.83,2.9,2.05,2.9S421.92,189.1,421.92,187.23Z"/><path class="j" d="M428.44,188.67c0,1.19-.83,2.12-2.54,2.12a3.63,3.63,0,0,1-2.51-.9l.36-.57a3,3,0,0,0,2.14.81c1.19,0,1.82-.58,1.82-1.43s-.56-1.46-2.34-1.46h-1.48l.35-3.51h3.83v.64h-3.2l-.23,2.23h.89C427.64,186.6,428.44,187.43,428.44,188.67Z"/><path class="j" d="M308.5,365.62v7h-.72v-6.36h-1.64v-.64Z"/><path class="j" d="M310.19,372.12a.53.53,0,1,1,1.06,0,.53.53,0,1,1-1.06,0Z"/><path class="j" d="M312.2,369.12c0-2.23,1.16-3.56,2.78-3.56s2.8,1.33,2.8,3.56-1.18,3.56-2.8,3.56S312.2,371.35,312.2,369.12Zm4.84,0c0-1.87-.84-2.9-2.06-2.9s-2.05,1-2.05,2.9.83,2.9,2.05,2.9S317,371,317,369.12Z"/><path class="j" d="M323.35,370.61c0,1.17-.85,2.07-2.54,2.07a3.63,3.63,0,0,1-2.51-.9l.34-.57a3.08,3.08,0,0,0,2.17.81c1.16,0,1.8-.54,1.8-1.41s-.59-1.39-1.89-1.39h-.5v-.53l1.94-2.43h-3.57v-.64h4.49v.51l-2,2.49C322.6,368.7,323.35,369.49,323.35,370.61Z"/><path class="j" d="M398.63,285.87v7h-.72v-6.36h-1.64v-.64Z"/><path class="j" d="M400.32,292.37a.53.53,0,0,1,.53-.54.54.54,0,0,1,.54.54.55.55,0,0,1-.54.55A.54.54,0,0,1,400.32,292.37Z"/><path class="j" d="M402.33,289.37c0-2.23,1.16-3.56,2.78-3.56s2.8,1.33,2.8,3.56-1.18,3.56-2.8,3.56S402.33,291.6,402.33,289.37Zm4.84,0c0-1.87-.84-2.9-2.06-2.9s-2.05,1-2.05,2.9.83,2.9,2.05,2.9S407.17,291.24,407.17,289.37Z"/><path class="j" d="M413.71,292.23v.64h-4.9v-.51l2.9-2.85c.79-.78.94-1.25.94-1.73,0-.81-.57-1.31-1.64-1.31a2.38,2.38,0,0,0-1.91.78l-.5-.44a3.12,3.12,0,0,1,2.47-1c1.42,0,2.32.72,2.32,1.89a2.88,2.88,0,0,1-1.15,2.19l-2.38,2.34Z"/><path class="j" d="M398.63,370.68v7h-.72v-6.36h-1.64v-.64Z"/><path class="j" d="M400.32,377.18a.53.53,0,0,1,.53-.54.54.54,0,0,1,.54.54.55.55,0,0,1-.54.55A.54.54,0,0,1,400.32,377.18Z"/><path class="j" d="M402.33,374.18c0-2.23,1.16-3.56,2.78-3.56s2.8,1.33,2.8,3.56-1.18,3.56-2.8,3.56S402.33,376.41,402.33,374.18Zm4.84,0c0-1.87-.84-2.9-2.06-2.9s-2.05,1-2.05,2.9.83,2.9,2.05,2.9S407.17,376.05,407.17,374.18Z"/><path class="j" d="M410.87,370.68v7h-.72v-6.36h-1.64v-.64Z"/></svg>