<svg viewBox="0 0 790.34 618.13" xmlns="http://www.w3.org/2000/svg">
    <path d="m0 0h790.34v618.13h-790.34z" fill="none"/>
    <path d="m88.74 170.06 26.27-22.82 2.89.51 5.78-5.73 21.88 5.09 8.42-7.64 24.51 5.73.63 9.56 19.23 4.46.38 7.53 20.86 4.58 2.51 50.74-22.24 28.56-6.79-2.04-10.44 8.03-21.11-4.34-2.64 2.94-47.26-9.94-.13-5.74-19.36-5.1-6.53-53.42 4.52-4.2z"
          fill="#1d3761" opacity=".75"/>
    <g fill="#595a5c">
        <path d="m31.72 597h2v14h-2zm1.15 12.17h3.8a3.44 3.44 0 0 0 2.17-.56 2 2 0 0 0 .68-1.6 2.82 2.82 0 0 0 -.24-1.22 1.75 1.75 0 0 0 -.78-.79 3 3 0 0 0 -1.35-.27h-4.28v-1.73h4.28a2.35 2.35 0 0 0 1.64-.51 2.34 2.34 0 0 0 -.06-3.08 2.82 2.82 0 0 0 -1.85-.52h-4v-1.89h4.36a4.93 4.93 0 0 1 2.27.46 3.11 3.11 0 0 1 1.37 1.31 4.27 4.27 0 0 1 .45 2 3.23 3.23 0 0 1 -.28 1.35 2.76 2.76 0 0 1 -.85 1.08 3.11 3.11 0 0 1 -1.42.6 3.27 3.27 0 0 1 1.47.6 3.21 3.21 0 0 1 .94 1.19 3.64 3.64 0 0 1 .33 1.54 3.93 3.93 0 0 1 -.5 2 3.39 3.39 0 0 1 -1.44 1.34 4.81 4.81 0 0 1 -2.17.47h-4.54z"/>
        <path d="m46.21 607.11a2.35 2.35 0 0 0 .53 1.63 2 2 0 0 0 1.51.57 2.06 2.06 0 0 0 1.49-.51 1.9 1.9 0 0 0 .53-1.45l.14 2.08a2.86 2.86 0 0 1 -1 1.24 2.82 2.82 0 0 1 -1.71.51 3.16 3.16 0 0 1 -2.55-1.07 4.51 4.51 0 0 1 -.9-3v-6.11h2zm4.06-6.11h2v10h-2z"/>
        <path d="m56.5 610.73a3.06 3.06 0 0 1 -1.18-1.39 5.41 5.41 0 0 1 -.4-2.2v-2.2a5.58 5.58 0 0 1 .39-2.2 3 3 0 0 1 1.15-1.39 3.34 3.34 0 0 1 1.82-.48 3 3 0 0 1 1.62.46 3.41 3.41 0 0 1 1.19 1.3l-.2 2a2.34 2.34 0 0 0 -.24-1.09 1.47 1.47 0 0 0 -.67-.68 2.16 2.16 0 0 0 -1.06-.24 1.86 1.86 0 0 0 -1.5.61 2.46 2.46 0 0 0 -.54 1.7v2.17a2.39 2.39 0 0 0 .54 1.68 1.89 1.89 0 0 0 1.5.6 2.16 2.16 0 0 0 1.06-.25 1.54 1.54 0 0 0 .67-.71 2.35 2.35 0 0 0 .24-1.1l.13 2.1a2.75 2.75 0 0 1 -1 1.24 2.69 2.69 0 0 1 -1.67.5 3.49 3.49 0 0 1 -1.85-.43zm4.39-13.73h2v14h-2z"/>
        <path d="m67.44 610.67a3.34 3.34 0 0 1 -1.44-1.49 5.16 5.16 0 0 1 -.49-2.35v-1.63a5 5 0 0 1 .49-2.32 3.31 3.31 0 0 1 1.41-1.48 5.18 5.18 0 0 1 4.44 0 3.31 3.31 0 0 1 1.41 1.48 5 5 0 0 1 .49 2.32v1.65a5.09 5.09 0 0 1 -.49 2.34 3.36 3.36 0 0 1 -1.41 1.48 5.09 5.09 0 0 1 -4.44 0zm3.81-2a2.64 2.64 0 0 0 .57-1.81v-1.66a2.59 2.59 0 0 0 -.57-1.8 2.32 2.32 0 0 0 -3.18 0 2.59 2.59 0 0 0 -.56 1.8v1.65a2.63 2.63 0 0 0 .56 1.81 2.27 2.27 0 0 0 3.18 0z"/>
        <path d="m82.06 601h2l-3.75 10h-1.43l-3.75-10h2.05l2.44 7.13z"/>
        <path d="m86.47 610.41a3.41 3.41 0 0 1 -.08-4.55 3.76 3.76 0 0 1 2.53-.74h2.84l.14 1.58h-3a1.73 1.73 0 0 0 -1.15.34 1.36 1.36 0 0 0 -.38 1.05 1.28 1.28 0 0 0 .51 1.12 2.58 2.58 0 0 0 1.53.37 4.46 4.46 0 0 0 1.68-.24.8.8 0 0 0 .56-.75l.2 1.4a2.41 2.41 0 0 1 -.64.67 3.06 3.06 0 0 1 -.88.39 4.87 4.87 0 0 1 -1.13.13 4.23 4.23 0 0 1 -2.73-.77zm5.21-5.71a2.14 2.14 0 0 0 -.53-1.53 2 2 0 0 0 -1.48-.54 3.75 3.75 0 0 0 -2.19.69l-1.43-1a3.74 3.74 0 0 1 1.49-1.06 5.49 5.49 0 0 1 2.07-.38 4.74 4.74 0 0 1 2.12.44 3 3 0 0 1 1.35 1.27 4 4 0 0 1 .46 2v6.41h-1.86z"/>
    </g>
</svg>
