<svg viewBox="0 0 790.34 618.13" xmlns="http://www.w3.org/2000/svg">
    <path d="m0 0h790.34v618.13h-790.34z" fill="none"/>
    <g fill="#595a5c">
        <path d="m31.72 597h2v14h-2zm1 6.7h4.48a2.06 2.06 0 0 0 1.12-.3 2 2 0 0 0 .75-.85 2.92 2.92 0 0 0 .26-1.26 3 3 0 0 0 -.26-1.27 2 2 0 0 0 -1.87-1.15h-4.47v-1.87h4.41a4.48 4.48 0 0 1 2.2.53 3.71 3.71 0 0 1 1.48 1.51 5.13 5.13 0 0 1 0 4.5 3.75 3.75 0 0 1 -1.48 1.5 4.47 4.47 0 0 1 -2.2.52h-4.41z"/>
        <path d="m44.54 610.67a3.34 3.34 0 0 1 -1.41-1.49 5.16 5.16 0 0 1 -.49-2.35v-1.63a5 5 0 0 1 .49-2.32 3.31 3.31 0 0 1 1.41-1.48 5.18 5.18 0 0 1 4.44 0 3.31 3.31 0 0 1 1.41 1.48 5 5 0 0 1 .49 2.32v1.65a5.09 5.09 0 0 1 -.49 2.34 3.36 3.36 0 0 1 -1.39 1.48 5.09 5.09 0 0 1 -4.44 0zm3.81-2a2.64 2.64 0 0 0 .57-1.81v-1.66a2.59 2.59 0 0 0 -.57-1.8 2.32 2.32 0 0 0 -3.18 0 2.59 2.59 0 0 0 -.57 1.8v1.65a2.64 2.64 0 0 0 .57 1.81 2.27 2.27 0 0 0 3.18 0z"/>
        <path d="m55 610.73a3.06 3.06 0 0 1 -1.18-1.39 5.41 5.41 0 0 1 -.4-2.2v-2.2a5.58 5.58 0 0 1 .39-2.2 3 3 0 0 1 1.15-1.39 3.34 3.34 0 0 1 1.82-.48 3 3 0 0 1 1.62.46 3.41 3.41 0 0 1 1.19 1.3l-.2 2a2.34 2.34 0 0 0 -.24-1.09 1.5 1.5 0 0 0 -.66-.68 2.23 2.23 0 0 0 -1.07-.24 1.86 1.86 0 0 0 -1.5.61 2.46 2.46 0 0 0 -.54 1.7v2.17a2.39 2.39 0 0 0 .54 1.68 1.88 1.88 0 0 0 1.5.59 2.23 2.23 0 0 0 1.07-.24 1.57 1.57 0 0 0 .66-.71 2.35 2.35 0 0 0 .24-1.1l.13 2.1a2.75 2.75 0 0 1 -1 1.24 2.67 2.67 0 0 1 -1.67.5 3.49 3.49 0 0 1 -1.85-.43zm4.35-13.73h2v14h-2z"/>
        <path d="m66.25 608.45a.94.94 0 0 0 .16.57.55.55 0 0 0 .45.19h.92v1.87h-1.15a2.2 2.2 0 0 1 -1.73-.69 2.91 2.91 0 0 1 -.61-2v-11.39h2z"/>
        <path d="m70.33 610.41a2.88 2.88 0 0 1 -.91-2.32 2.83 2.83 0 0 1 .84-2.23 3.75 3.75 0 0 1 2.53-.74h2.84l.13 1.58h-3a1.65 1.65 0 0 0 -1.15.34 1.33 1.33 0 0 0 -.38 1.05 1.3 1.3 0 0 0 .5 1.12 2.59 2.59 0 0 0 1.54.37 4.46 4.46 0 0 0 1.68-.24.79.79 0 0 0 .55-.75l.2 1.4a2.27 2.27 0 0 1 -.64.67 2.83 2.83 0 0 1 -.88.39 4.78 4.78 0 0 1 -1.12.13 4.24 4.24 0 0 1 -2.73-.77zm5.21-5.71a2.13 2.13 0 0 0 -.52-1.53 2 2 0 0 0 -1.49-.54 3.86 3.86 0 0 0 -1.17.18 4.06 4.06 0 0 0 -1 .51l-1.43-1a3.78 3.78 0 0 1 1.5-1.06 5.44 5.44 0 0 1 2.06-.38 4.79 4.79 0 0 1 2.13.44 3 3 0 0 1 1.34 1.27 4 4 0 0 1 .47 2v6.41h-1.89z"/>
        <path d="m87.28 602.7-4.8 6.51h5.06v1.79h-7.44v-1.69l4.9-6.45h-4.76v-1.86h7zm-6.47-6.51 1.1-1 1.92 1.81 1.93-1.83 1.1 1-3 2.93z"/>
        <path d="m90.05 598.13 2.75-3.42 1.42 1.18-2.94 3.23zm.09 2.91h2v10h-2z"/>
    </g>
    <path d="m254.01 450.18 49.32 5.87 320.76-1.38v-66.57l-321.79-5.52-46.56 5.87z" fill="#1d3761" opacity=".75"/>
</svg>
