<svg xmlns="http://www.w3.org/2000/svg" viewBox="0 0 1920 1080"><defs><style>.a{fill:#22335d;fill-rule:evenodd;}.b{fill:none;}</style></defs><polygon class="a" data-id="A206" points="947.51 365.76 728.07 365.76 728.07 426.89 731.59 426.89 731.59 521.13 751.6 521.13 751.6 537.4 816.66 537.4 822.91 537.4 822.91 540.52 850.43 540.52 850.43 537.4 854.94 537.4 854.94 522.38 874.2 522.38 874.2 537.4 945.51 537.4 945.51 426.89 947.51 426.89 947.51 365.76"/><polygon class="a" data-id="A205" points="1141.67 365.49 948.49 365.49 948.49 426.62 951.51 426.62 951.51 537.4 1005.81 537.4 1005.81 524.88 1028.83 524.88 1028.83 537.4 1044.59 537.4 1044.59 540.52 1047.1 540.52 1069.61 540.52 1072.11 540.52 1072.11 537.4 1115.9 537.4 1115.9 522.38 1138.42 522.38 1138.42 426.62 1141.67 426.62 1141.67 365.49"/><polygon class="a" data-id="A204" points="1360.48 365.49 1141.79 365.49 1141.79 426.62 1144.42 426.62 1144.42 521.18 1164.44 521.18 1164.44 537.4 1229.49 537.4 1229.49 540.52 1252.01 540.52 1257.01 540.52 1257.01 537.4 1257.01 524.88 1269.53 524.88 1269.53 522.38 1287.04 522.38 1287.04 537.4 1357.6 537.4 1357.6 426.62 1360.48 426.62 1360.48 365.49"/><polygon class="a" data-id="A203" points="1468.94 414.92 1468.94 367.12 1360.48 367.12 1360.48 428.25 1363.6 428.25 1363.6 550.03 1360.46 550.03 1360.46 552.53 1360.46 575.05 1360.46 577.55 1363.6 577.55 1363.6 578.8 1428.9 578.8 1428.9 696.25 1418.4 696.25 1418.4 756.45 1483.2 756.45 1483.2 708.91 1495.71 708.91 1495.71 615.08 1495.71 533.77 1480.7 533.77 1480.7 509.5 1495.71 509.5 1495.71 494.99 1495.71 492.49 1495.71 414.92 1468.94 414.92"/><polygon class="a" data-id="A202" points="1422.9 598.69 1397.88 598.69 1397.88 584.93 1341.59 584.93 1341.59 581.8 1339.08 581.8 1316.57 581.8 1314.06 581.8 1314.06 584.93 1297.3 584.93 1297.3 696.37 1294.8 696.37 1294.8 756.57 1418.01 756.57 1418.01 709.03 1422.9 709.03 1422.9 598.69"/><polygon class="a" data-id="A201" points="1291.29 696.37 1291.29 602.44 1291.29 601.19 1271.28 601.19 1271.28 584.93 1198.72 584.93 1198.72 581.8 1197.47 581.8 1183.71 581.8 1171.27 581.8 1171.27 584.93 1164.69 584.93 1164.69 599.94 1149.18 599.94 1149.18 584.93 1070.61 584.93 1070.61 709.03 1094.76 709.03 1094.76 756.57 1293.6 756.57 1293.6 696.37 1291.29 696.37"/><polygon class="a" data-id="A208" points="945.26 583.19 813.9 583.19 813.9 598.2 800.89 598.2 800.89 583.19 785.13 583.19 785.13 580.06 780.13 580.06 757.61 580.06 757.61 596.95 735.84 596.95 735.84 583.19 668.53 583.19 668.53 678.01 665.03 678.01 665.03 754.83 897.72 754.83 897.72 707.29 945.26 707.29 945.26 583.19"/><polygon class="a" data-id="A207" points="728.71 550.91 728.71 548.4 725.58 548.4 725.58 543.4 705.57 543.4 705.57 526.64 725.58 526.64 725.58 426.89 728.33 426.89 728.33 365.76 593.72 365.76 593.72 413.29 534.92 413.29 534.92 493.36 499.9 493.36 499.9 613.46 534.92 613.46 534.92 678.01 531.8 678.01 531.8 754.83 664.95 754.83 664.95 678.01 662.53 678.01 662.53 577.18 725.58 577.18 725.58 575.93 728.71 575.93 728.71 573.43 728.7 573.43 728.7 550.91 728.71 550.91"/><rect class="b" width="1920" height="1080"/></svg>