<svg xmlns="http://www.w3.org/2000/svg" viewBox="0 0 1920 1080"><defs><style>.a{fill:none;fill-rule:evenodd;}.b{fill:none;}</style></defs><polygon class="a" data-id="A104" points="1362.66 351.31 1142.31 351.31 1142.31 440.13 1146.44 440.13 1146.44 522.95 1166.46 522.95 1166.46 539.21 1231.52 539.21 1231.52 542.34 1254.04 542.34 1259.04 542.34 1259.04 526.7 1271.55 526.7 1271.55 524.2 1289.07 524.2 1289.07 539.21 1359.63 539.21 1359.63 440.13 1362.66 440.13 1362.66 351.31"/><polygon class="a" data-id="A105" points="1142.1 351.31 950.31 351.31 950.31 440.13 953.51 440.13 953.51 539.21 1007.81 539.21 1007.81 526.7 1030.83 526.7 1030.83 539.21 1046.59 539.21 1046.59 542.34 1049.1 542.34 1071.62 542.34 1074.12 542.34 1074.12 539.21 1117.91 539.21 1117.91 524.2 1140.43 524.2 1140.43 440.13 1142.1 440.13 1142.1 351.31"/><polygon class="a" data-id="A106" points="950.46 351.31 730.55 351.31 730.55 440.13 733.56 440.13 733.56 522.95 753.58 522.95 753.58 539.21 824.89 539.21 824.89 542.34 841.16 542.34 852.42 542.34 852.42 539.21 856.84 539.21 856.84 524.2 876.19 524.2 876.19 539.21 947.5 539.21 947.5 440.13 950.46 440.13 950.46 351.31"/><polygon class="a" data-id="A108" points="947.25 585 815.88 585 815.88 600.01 802.87 600.01 802.87 585 787.11 585 787.11 581.87 782.1 581.87 759.58 581.87 759.58 598.76 737.81 598.76 737.81 585 670.5 585 670.5 684.64 668 684.64 668 772.9 943.5 772.9 943.5 709.1 947.25 709.1 947.25 585"/><polygon class="a" data-id="A107" points="727.55 550.22 727.55 545.22 707.53 545.22 707.52 528.45 727.55 528.45 727.55 440.13 729.74 440.13 729.74 351.31 536.46 351.31 536.46 440.13 536.88 440.13 536.88 684.64 536.75 684.64 536.75 772.9 666 772.9 666 684.64 664.49 684.64 664.49 579 727.55 579 727.55 577.74 730.68 577.74 730.68 575.24 730.68 552.73 730.68 550.22 727.55 550.22"/><polygon class="a" data-id="A103" points="1500.89 351.31 1362.39 351.31 1362.39 440.13 1365.64 440.13 1365.64 550.22 1362.51 550.22 1362.51 552.73 1362.51 575.24 1362.51 577.74 1365.64 577.74 1365.64 579 1430.95 579 1430.95 697.47 1428.2 697.47 1428.2 772.9 1497.76 772.9 1497.76 709.1 1497.76 709.1 1497.76 615.27 1497.76 533.96 1482.75 533.96 1482.75 509.69 1497.76 509.69 1497.76 495.18 1497.76 492.68 1497.76 440.13 1500.89 440.13 1500.89 351.31"/><polygon class="a" data-id="A102" points="1424.94 697.47 1424.94 598.76 1399.92 598.76 1399.92 585 1343.62 585 1343.62 581.87 1341.12 581.87 1318.6 581.87 1316.09 581.87 1316.09 585 1299.33 585 1299.33 697.47 1295.79 697.47 1295.79 772.9 1428.73 772.9 1428.73 697.47 1424.94 697.47"/><polygon class="a" data-id="A101" points="1293.32 697.47 1293.32 602.51 1293.32 601.26 1273.3 601.26 1273.3 585 1200.74 585 1200.74 581.87 1185.72 581.87 1173.21 581.87 1173.21 585 1169.96 585 1169.96 600.01 1151.19 600.01 1151.19 585 1072.62 585 1072.62 697.47 1070.99 697.47 1070.99 772.9 1295.86 772.9 1295.86 697.47 1293.32 697.47"/><rect class="b" width="1920" height="1080"/></svg>
