<svg xmlns="http://www.w3.org/2000/svg" viewBox="0 0 1920 1080"><defs><style>.a{fill:#22325d;fill-rule:evenodd;}.b{fill:none;}</style></defs><polygon class="a" data-id="D201" points="1276.41 588.45 1191.38 588.45 1191.38 603.46 1177.12 603.46 1177.12 588.45 1162.62 588.45 1162.62 585.33 1135.11 585.33 1135.11 588.45 1091.34 588.45 1091.34 607.21 1068.83 607.21 1068.83 711.25 1101.34 711.25 1101.34 758.77 1241.4 758.77 1241.4 711.25 1276.41 711.25 1276.41 588.45"/><polygon class="a" data-id="D205" points="943.78 607.21 921.27 607.21 921.27 588.45 877.5 588.45 877.5 585.33 849.99 585.33 849.99 588.45 835.49 588.45 835.49 603.46 821.23 603.46 821.23 588.45 736.2 588.45 736.2 711.25 771.21 711.25 771.21 758.77 911.27 758.77 911.27 711.25 943.78 711.25 943.78 607.21"/><polygon class="a" data-id="D204" points="943.78 498.17 943.78 392.37 891.26 392.37 891.26 417.38 881.25 417.38 881.25 389.86 883.75 389.86 883.75 369.87 833.74 369.87 833.74 417.38 771.21 417.38 771.21 499.92 736.2 499.92 736.2 582.45 843.99 582.45 843.99 542.43 849.99 542.43 849.99 545.56 877.5 545.56 877.5 542.43 943.78 542.43 943.78 518.67 921.27 518.67 921.27 498.17 943.78 498.17"/><polygon class="a" data-id="D203" points="1056.33 392.37 1056.33 344.86 956.28 344.86 956.28 392.37 949.78 392.37 949.78 498.17 972.29 498.17 972.29 518.67 949.78 518.67 949.78 542.43 1016.06 542.43 1016.06 545.56 1043.57 545.56 1043.57 542.43 1062.83 542.43 1062.83 392.37 1056.33 392.37"/><polygon class="a" data-id="D202" points="1241.4 499.92 1241.4 417.38 1178.88 417.38 1178.88 369.87 1128.86 369.87 1128.86 394.65 1131.35 394.65 1131.35 417.38 1121.35 417.38 1121.35 392.37 1068.83 392.37 1068.83 498.17 1091.34 498.17 1091.34 518.67 1068.83 518.67 1068.83 542.43 1135.1 542.43 1135.1 545.56 1162.62 545.56 1162.62 542.43 1168.62 542.43 1168.62 582.45 1276.41 582.45 1276.41 499.92 1241.4 499.92"/><rect class="b" width="1920" height="1080"/></svg>