<svg xmlns="http://www.w3.org/2000/svg" viewBox="0 0 1920 1080"><defs><style>.a,.b{fill:#22325d;}.b{fill-rule:evenodd;}.c{fill:none;}</style></defs><polygon class="a" data-id="C402" points="791.46 415.58 791.46 440.75 791.46 530.99 794.74 530.99 794.74 539.17 853.63 539.17 853.63 530.99 873.77 530.99 873.77 539.17 962.88 539.17 978.48 539.17 978.48 542.31 981 542.31 1003.65 542.31 1006.17 542.31 1006.17 539.17 1006.17 530.99 1030.08 530.99 1030.08 539.17 1053.49 539.17 1117.68 539.17 1117.68 530.99 1156.44 530.99 1156.44 539.17 1226.67 539.17 1226.67 530.99 1229.62 530.99 1229.62 440.75 1229.62 415.58 791.46 415.58"/><polygon class="b" data-id="C401" points="1482.91 496.13 1482.91 512.74 1468.31 512.74 1468.31 491.85 1482.65 491.85 1482.65 440.75 1482.65 415.58 1229.62 415.58 1229.62 440.75 1230.8 440.75 1230.8 472.23 1232.71 472.23 1232.71 545.21 1068.97 545.21 1068.97 547.73 1068.97 570.38 1068.97 572.9 1071.11 572.9 1071.11 641.74 1071.11 641.74 1071.11 684.91 1074.89 684.91 1074.89 708.82 1482.65 708.82 1482.65 614.43 1517.89 614.43 1517.89 496.13 1482.91 496.13"/><polygon class="b" data-id="C403" points="945.26 545.21 788.69 545.21 788.69 457.09 789.59 457.09 789.59 440.75 791.46 440.75 791.46 415.58 533.72 415.58 533.72 496.13 498.48 496.13 498.48 614.43 533.72 614.43 533.72 708.82 941.48 708.82 941.48 677.36 939.6 677.36 939.6 667.29 575.11 667.29 575.11 677.36 562.66 677.36 562.66 672.32 572.73 672.32 572.73 457.09 572.73 457.09 572.73 574.16 592.87 574.16 592.87 604.36 572.73 604.36 572.73 667.29 788.69 667.29 945.26 667.29 945.26 572.9 947.4 572.9 947.4 570.38 947.4 547.73 947.4 545.21 945.26 545.21"/><rect class="c" data-id="C40" width="1920" height="1080"/></svg>