<svg xmlns="http://www.w3.org/2000/svg" viewBox="0 0 1920 1080"><defs><style>.a{fill:#22325d;fill-rule:evenodd;}.b{fill:none;}</style></defs><polygon class="a" data-id="C206" points="947.73 366.66 728.12 366.66 728.12 435.13 730.38 435.13 730.38 522.97 750.52 522.97 750.52 539.33 822.26 539.33 822.26 542.48 839.87 542.48 849.86 542.48 849.86 539.33 854.48 539.33 854.48 524.23 873.86 524.23 873.86 539.33 945.59 539.33 945.59 435.13 947.73 435.13 947.73 366.66"/><polygon class="a" data-id="C205" points="1143.25 366.66 948.17 366.66 948.17 435.13 951.63 435.13 951.63 539.33 1006.26 539.33 1006.26 526.74 1029.41 526.74 1029.41 539.33 1045.27 539.33 1045.27 542.48 1047.79 542.48 1070.44 542.48 1072.96 542.48 1072.96 539.33 1117.01 539.33 1117.01 524.23 1139.66 524.23 1139.66 435.13 1143.25 435.13 1143.25 366.66"/><polygon class="a" data-id="C204" points="1362.55 366.66 1143.22 366.66 1143.22 435.13 1145.7 435.13 1145.7 521.71 1168.35 521.71 1168.35 539.33 1212.4 539.33 1212.4 542.48 1214.92 542.48 1237.57 542.48 1240.09 542.48 1240.09 539.33 1259.72 539.33 1259.72 524.23 1289.17 524.23 1289.17 539.33 1358.39 539.33 1358.39 435.13 1362.55 435.13 1362.55 366.66"/><polygon class="a" data-id="C201" points="1281.37 698.42 1281.37 603.01 1258.72 603.01 1258.72 585.39 1194.53 585.39 1194.53 582.25 1192.02 582.25 1169.36 582.25 1166.84 582.25 1166.84 585.39 1166.84 600.5 1150.48 600.5 1150.48 585.39 1071.2 585.39 1071.2 710.24 1097.63 710.24 1097.63 758.07 1283.89 758.07 1283.89 698.42 1281.37 698.42"/><polygon class="a" data-id="C202" points="1410.75 691.81 1410.75 599.24 1385.58 599.24 1385.58 585.39 1328.94 585.39 1328.94 582.25 1326.43 582.25 1303.77 582.25 1301.26 582.25 1301.26 585.39 1287.41 585.39 1287.41 691.81 1284.47 691.81 1284.47 758.07 1414.02 758.07 1414.02 691.81 1410.75 691.81"/><polygon class="a" data-id="C203" points="1519.23 615.85 1519.23 495.03 1486.51 495.03 1486.51 518.94 1468.89 518.94 1468.89 492.51 1483.99 492.51 1483.99 414.48 1468.23 414.48 1468.23 366.66 1361.49 366.66 1361.49 435.13 1364.43 435.13 1364.43 550.4 1361.29 550.4 1361.29 552.92 1361.29 575.58 1361.29 578.09 1364.43 578.09 1364.43 579.35 1416.79 579.35 1416.79 690.52 1412.93 690.52 1412.93 758.07 1486.51 758.07 1486.51 690.52 1483.99 690.52 1483.99 615.85 1519.23 615.85"/><polygon class="a" data-id="C207" points="724.34 528.51 724.34 435.13 727.49 435.13 727.49 366.66 590.43 366.66 590.43 414.48 532.54 414.48 532.54 495.03 497.3 495.03 497.3 615.85 532.54 615.85 532.54 678.82 528.89 678.82 528.89 758.07 663.93 758.07 663.93 678.82 660.91 678.82 660.91 579.35 724.34 579.35 724.34 578.09 727.49 578.09 727.49 575.58 727.49 552.92 727.48 552.92 727.48 550.4 724.34 550.4 724.34 545.37 704.21 545.37 704.21 528.51 724.34 528.51"/><polygon class="a" data-id="C208" points="945.34 710.24 945.34 585.39 813.19 585.39 813.19 600.5 800.11 600.5 800.11 585.39 784.07 585.39 784.07 582.25 779.21 582.25 756.56 582.25 756.56 599.39 734.66 599.39 734.66 585.39 666.95 585.39 666.95 678.82 663.08 678.82 663.08 720.31 662.42 720.31 662.42 758.07 663.08 758.07 897.26 758.07 897.52 758.07 897.52 720.31 897.26 720.31 897.26 710.24 945.34 710.24"/><rect class="b" width="1920" height="1080"/></svg>