<svg xmlns="http://www.w3.org/2000/svg" viewBox="0 0 1920 1080"><defs><style>.a{fill:#22325d;fill-rule:evenodd;}.b{fill:none;}</style></defs><polygon class="a" data-id="C106" points="949.21 350.41 726.5 350.41 726.5 434.57 730.38 434.57 730.38 523.08 750.52 523.08 750.52 539.44 822.25 539.44 822.25 542.59 839.88 542.59 849.94 542.59 849.94 539.44 854.47 539.44 854.47 524.34 873.86 524.34 873.86 539.44 945.59 539.44 945.59 434.57 949.21 434.57 949.21 350.41"/><polygon class="a" data-id="C105" points="1142.93 350.41 947.07 350.41 947.07 434.57 951.63 434.57 951.63 539.44 1006.25 539.44 1006.25 526.86 1029.41 526.86 1029.41 539.44 1045.27 539.44 1045.27 542.59 1047.79 542.59 1070.44 542.59 1072.96 542.59 1072.96 539.44 1117.01 539.44 1117.01 524.34 1139.66 524.34 1139.66 434.57 1142.93 434.57 1142.93 350.41"/><polygon class="a" data-id="C104" points="1361.24 350.41 1142.08 350.41 1142.08 434.57 1145.7 434.57 1145.7 521.82 1168.36 521.82 1168.36 539.44 1212.4 539.44 1212.4 542.59 1214.92 542.59 1237.57 542.59 1240.09 542.59 1240.09 539.44 1259.72 539.44 1259.72 524.34 1289.17 524.34 1289.17 539.44 1358.39 539.44 1358.39 434.57 1361.24 434.57 1361.24 350.41"/><polygon class="a" data-id="C101" points="1281.37 702.25 1281.37 603.12 1258.72 603.12 1258.72 585.51 1197.05 585.51 1197.05 582.36 1194.53 582.36 1171.88 582.36 1169.36 582.36 1169.36 585.51 1169.36 600.61 1150.48 600.61 1150.48 585.51 1071.19 585.51 1071.19 710.35 1074.97 710.35 1074.97 774.54 1284.39 774.54 1284.39 702.25 1281.37 702.25"/><polygon class="a" data-id="C102" points="1410.75 702.25 1410.75 599.35 1385.58 599.35 1385.58 585.51 1328.94 585.51 1328.94 582.36 1326.43 582.36 1303.77 582.36 1301.26 582.36 1301.26 585.51 1287.41 585.51 1287.41 702.25 1285.65 702.25 1285.65 774.54 1413.52 774.54 1413.52 702.25 1410.75 702.25"/><polygon class="a" data-id="C103" points="1484 702.25 1484 579.47 1484 517.04 1468.89 517.04 1468.89 492.63 1484 492.63 1484 414.6 1483.85 414.6 1483.85 350.41 1361.63 350.41 1361.63 434.57 1364.43 434.57 1364.43 550.52 1361.29 550.52 1361.29 553.04 1361.28 553.04 1361.28 575.69 1361.29 575.69 1361.29 578.21 1364.43 578.21 1364.43 579.47 1416.79 579.47 1416.79 702.25 1412.78 702.25 1412.78 774.54 1484 774.54 1484 702.25 1484 702.25"/><polygon class="a" data-id="C107" points="724.34 550.52 724.34 545.48 704.2 545.48 704.2 528.62 724.34 528.62 724.34 434.57 727.36 434.57 727.36 350.41 532.07 350.41 532.07 434.57 532.54 434.57 532.54 694.62 532.04 694.62 532.04 774.54 662.8 774.54 662.8 694.62 660.91 694.62 660.91 579.47 724.34 579.47 724.34 578.21 727.49 578.21 727.49 575.69 727.49 553.03 727.49 550.52 724.34 550.52"/><polygon class="a" data-id="C108" points="945.34 585.51 813.19 585.51 813.19 600.61 800.1 600.61 800.1 585.51 784.25 585.51 784.25 582.36 756.51 582.36 756.51 585.51 756.56 585.51 756.56 599.35 734.66 599.35 734.66 585.51 666.95 585.51 666.95 660.44 663.43 660.44 663.43 720.42 662.8 720.42 662.8 774.54 941.56 774.54 941.56 755.66 941.95 755.66 941.95 710.35 945.34 710.35 945.34 585.51"/><rect class="b" width="1920" height="1080"/></svg>