<svg xmlns="http://www.w3.org/2000/svg" viewBox="0 0 1920 1080"><defs><style>.a{fill:#22325d;fill-rule:evenodd;}.b{fill:none;}</style></defs><polygon class="a" data-id="D105" points="736.2 588.45 821.23 588.45 821.23 603.46 835.49 603.46 835.49 588.45 849.99 588.45 849.99 585.33 877.5 585.33 877.5 588.45 921.27 588.45 921.27 607.21 943.78 607.21 943.78 711.25 736.2 711.25 736.2 588.45"/><polygon class="a" data-id="D104" points="771.21 499.92 771.21 417.38 891.26 417.38 891.26 392.37 943.78 392.37 943.78 498.17 921.27 498.17 921.27 518.67 943.78 518.67 943.78 542.43 877.5 542.43 877.5 545.56 849.99 545.56 849.99 542.43 843.99 542.43 843.99 582.45 736.2 582.45 736.2 499.92 771.21 499.92"/><polygon class="a" data-id="D103" points="949.78 542.43 949.78 518.67 972.29 518.67 972.29 498.17 949.78 498.17 949.78 392.37 1062.83 392.37 1062.83 542.43 1043.57 542.43 1043.57 545.56 1016.06 545.56 1016.06 542.43 949.78 542.43"/><polygon class="a" data-id="D101" points="1276.41 588.45 1276.41 711.25 1068.83 711.25 1068.83 607.21 1091.34 607.21 1091.34 588.45 1135.11 588.45 1135.11 585.33 1162.62 585.33 1162.62 588.45 1177.12 588.45 1177.12 603.46 1191.38 603.46 1191.38 588.45 1276.41 588.45"/><polygon class="a" data-id="D102" points="1241.4 499.92 1276.41 499.92 1276.41 582.45 1168.62 582.45 1168.62 542.43 1162.62 542.43 1162.62 545.56 1135.11 545.56 1135.11 542.43 1068.83 542.43 1068.83 518.67 1091.34 518.67 1091.34 498.17 1068.83 498.17 1068.83 392.37 1121.35 392.37 1121.35 417.38 1241.4 417.38 1241.4 499.92"/><rect class="b" width="1920" height="1080"/></svg>