<svg xmlns="http://www.w3.org/2000/svg" viewBox="0 0 1920 1080"><defs><style>.a{fill:#22325d;fill-rule:evenodd;}.b{fill:none;}</style></defs><polygon class="a" data-id="A304" points="1359.03 367.88 1142.1 367.88 1142.1 426.67 1144.1 426.67 1144.1 523.3 1164.12 523.3 1164.12 539.52 1229.17 539.52 1229.17 542.64 1251.69 542.64 1256.69 542.64 1256.69 539.52 1256.69 527.01 1269.2 527.01 1269.2 524.51 1286.71 524.51 1286.71 539.52 1357.27 539.52 1357.27 426.67 1359.03 426.67 1359.03 367.88"/><polygon class="a" data-id="A305" points="1141.35 367.88 948.33 367.88 948.33 426.67 951.19 426.67 951.19 539.52 1005.49 539.52 1005.49 527.01 1028.5 527.01 1028.5 539.52 1044.27 539.52 1044.27 542.64 1046.77 542.64 1069.29 542.64 1071.79 542.64 1071.79 539.52 1115.58 539.52 1115.58 524.51 1138.09 524.51 1138.09 426.67 1141.35 426.67 1141.35 367.88"/><polygon class="a" data-id="A306" points="948.06 367.88 727.96 367.88 727.96 426.67 731.26 426.67 731.26 523.25 751.28 523.25 751.28 539.52 816.33 539.52 822.59 539.52 822.59 542.64 850.11 542.64 850.11 539.52 854.61 539.52 854.61 524.51 873.88 524.51 873.88 539.52 945.19 539.52 945.19 426.67 948.06 426.67 948.06 367.88"/><polygon class="a" data-id="A303" points="1466.61 415.42 1466.61 367.88 1360.53 367.88 1360.53 426.67 1363.28 426.67 1363.28 550.53 1360.13 550.53 1360.13 553.03 1360.13 575.55 1360.13 578.05 1363.28 578.05 1363.28 579.3 1428.58 579.3 1428.58 702.19 1417.57 702.19 1417.57 756.95 1482.88 756.95 1482.88 709.41 1495.38 709.41 1495.38 615.58 1495.38 534.26 1480.37 534.26 1480.37 509.99 1495.38 509.99 1495.38 495.48 1495.38 492.98 1495.38 415.42 1466.61 415.42"/><polygon class="a" data-id="A302" points="1422.58 599.07 1397.56 599.07 1397.56 585.31 1341.26 585.31 1341.26 582.18 1338.76 582.18 1316.24 582.18 1313.74 582.18 1313.74 585.31 1296.97 585.31 1296.97 702.19 1294.47 702.19 1294.47 756.95 1418.67 756.95 1418.67 709.41 1422.58 709.41 1422.58 599.07"/><polygon class="a" data-id="A301" points="1290.97 702.19 1290.97 602.82 1290.97 601.57 1270.95 601.57 1270.95 585.31 1198.39 585.31 1198.39 582.18 1197.14 582.18 1183.38 582.18 1170.94 582.18 1170.94 585.31 1164.37 585.31 1164.37 600.32 1148.85 600.32 1148.85 585.31 1070.29 585.31 1070.29 709.41 1094.26 709.41 1094.26 756.95 1294.47 756.95 1294.47 702.19 1290.97 702.19"/><polygon class="a" data-id="A307" points="728.38 553.03 728.38 550.53 725.25 550.53 725.25 545.52 705.24 545.52 705.24 528.76 725.25 528.76 725.25 426.67 728.37 426.67 728.37 367.88 593.43 367.88 593.43 415.42 534.6 415.42 534.6 495.48 499.57 495.48 499.57 615.58 534.6 615.58 534.6 678.88 532.45 678.88 532.45 754.94 665.06 754.94 665.06 678.88 662.21 678.88 662.21 579.3 725.25 579.3 725.25 578.05 728.38 578.05 728.38 575.55 728.37 575.55 728.37 553.03 728.38 553.03"/><polygon class="a" data-id="A308" points="944.94 585.31 813.58 585.31 813.58 600.32 800.57 600.32 800.57 585.31 784.81 585.31 784.81 582.18 779.8 582.18 757.28 582.18 757.28 599.07 735.51 599.07 735.51 585.31 668.21 585.31 668.21 680.89 664.96 680.89 664.96 756.95 897.15 756.95 897.15 709.41 944.94 709.41 944.94 585.31"/><rect class="b" width="1920" height="1080"/></svg>