<svg xmlns="http://www.w3.org/2000/svg" viewBox="0 0 1920 1080"><defs><style>.a{fill:#22325d;}.b{fill:none;}</style></defs><polygon class="a" data-id="B402" points="962.37 396.3 963.65 397.7 964.12 399.55 963.73 401.24 962.65 402.59 961.09 403.35 959.35 403.35 957.79 402.59 956.71 401.24 956.32 399.55 956.78 397.7 958.06 396.3 776.66 396.3 775.62 396.3 775.62 422.28 775.62 482.38 778.74 482.38 778.74 510.88 778.74 523.87 851.23 523.87 851.23 509.06 891.24 509.06 891.24 523.87 957.49 523.87 981.65 523.87 981.65 510.88 1006.33 510.88 1006.33 523.87 1006.33 527.11 1008.93 527.11 1032.32 527.11 1034.91 527.11 1034.91 523.87 1051.02 523.87 1142.99 523.87 1142.99 508.28 1163.78 508.28 1163.78 523.87 1224.57 523.87 1224.57 508.28 1224.57 482.38 1227.56 482.38 1227.56 422.28 1227.56 396.3 962.37 396.3"/><polygon class="a" data-id="B403" points="1494 479.44 1494 422.28 1494 396.3 1227.56 396.3 1227.56 422.28 1231.15 422.28 1231.15 432.67 1230.81 432.67 1230.81 530.1 1069.21 530.1 1067.01 530.1 1067.01 532.7 1066.97 532.7 1066.97 556.08 1066.97 558.68 1069.21 558.68 1069.21 650.91 1230.81 650.91 1453.73 650.91 1453.73 591.16 1432.94 591.16 1432.94 559.98 1453.73 559.98 1453.73 443.82 1458.92 443.82 1458.92 422.28 1464.12 422.28 1464.12 484.48 1453.73 484.48 1453.73 625.83 1464.12 625.83 1464.12 661.31 1341.62 661.31 1341.62 650.91 1076.69 650.91 1076.69 661.31 1073.11 661.31 1073.11 698.98 1494 698.98 1494 601.55 1530.37 601.55 1530.37 479.44 1494 479.44"/><path class="a" data-id="B401" d="M772.5,530.1V432.67h1V422.28h2.08v-26H498.92v96.91h13.51v24.42H498.92V699H935.4V661.31h-2.33v-10.4H658.43v10.4h-114v-22.9h10.39v12.5H939.3V558.68h2.21V530.1ZM544.39,472.39V422.28h11.69v10.39h-1.3v39.72Z"/><rect class="b" width="1920" height="1080"/></svg>