<svg xmlns="http://www.w3.org/2000/svg" viewBox="0 0 1920 1080"><defs><style>.a{fill:none;}.b{fill:none;}</style></defs><polygon class="a" data-id="A402" points="792.68 416.52 792.68 441.54 792.68 513.13 795.56 513.13 795.56 524.36 795.56 539.37 854.11 539.37 854.11 524.36 874.13 524.36 874.13 539.37 962.7 539.37 978.21 539.37 978.21 542.5 980.71 542.5 1003.23 542.5 1003.23 542.48 1005.74 542.48 1005.74 539.37 1005.74 526.86 1029.5 526.86 1029.5 539.37 1052.77 539.37 1116.57 539.37 1116.57 525.11 1155.11 525.11 1155.11 539.37 1224.91 539.37 1224.91 526.86 1224.91 513.13 1227.92 513.13 1227.92 441.54 1227.92 416.52 792.68 416.52"/><path class="a" data-id="A403" d="M945.19,545.38H789.56V456.49h0V441.54h3.09v-25H536.1v80.07h-35V614.18h35V708H941.43V671.73h-6v-10h9.76V572.9h2.12V545.38ZM574.88,574.15h20v30h-20Zm4.51-132.61v10h-4.51v58.78h-10V441.54ZM564.87,639.45h10v22.27H657.2v10H564.87Z"/><path class="a" data-id="A401" d="M1227.92,416.52v25h2v12.65h1v91.19H1068.16V572.9h2.13v88.82h8.13v10H1074V708h420.35V533.37h-13V509.85h13V416.52Zm220.18,37.67V441.54h2.5V485.8h-10V454.19ZM1338.76,671.73v-10h101.83v-1.88h10v11.89Z"/><rect class="b" width="1920" height="1080"/></svg>
