<svg xmlns="http://www.w3.org/2000/svg" viewBox="0 0 1920 1080"><defs><style>.a{fill:none;}.b{fill:none;}</style></defs><path class="a" data-id="D401" d="M1240.15,500.92V418.38H1120.1v-25H892.51v25h-120v82.54h-35V709.75H940V678.49H924.77v-10h19V626h37.51V614.71h2.13V587.2h-2.13v-5h110v17.51h-22.51v68.77h26.26v10h-22.51v31.26h202.58V500.92Zm-35,30.55h-10v-31.8h-38.77v-10h48.77ZM897.51,489.66v10H879.69v-10Zm-57.52,0v10H817.48V582.2h18.76v17.51H807.48v-110Zm60,188.83H807.48v-28h10v18H900Zm69.78-163.82H923.52v-15H923v-10h58.27v10h-11.5Zm97.29,0v-15h-36v-10h100.28v10h-33.76v15Zm103,163.82v-10h25V599.71h-18.76V582.2h11.26v.28h17.5v96Z"/><rect class="b" width="1920" height="1080"/></svg>
