<svg xmlns="http://www.w3.org/2000/svg" viewBox="0 0 1920 1080"><defs><style>.a{fill:#22325d;fill-rule:evenodd;}.b{fill:none;}</style></defs><polygon class="a" data-id="C306" points="948.49 366.66 727.17 366.66 727.17 429.35 730.38 429.35 730.38 522.97 750.52 522.97 750.52 539.33 822.26 539.33 822.26 542.48 839.88 542.48 849.86 542.48 849.86 539.33 854.48 539.33 854.48 524.23 873.86 524.23 873.86 539.33 945.59 539.33 945.59 429.35 948.49 429.35 948.49 366.66"/><polygon class="a" data-id="C305" points="1142.68 366.66 947.77 366.66 947.77 429.35 951.63 429.35 951.63 539.33 1006.26 539.33 1006.26 526.74 1029.41 526.74 1029.41 539.33 1045.27 539.33 1045.27 542.48 1047.79 542.48 1070.44 542.48 1072.96 542.48 1072.96 539.33 1117.01 539.33 1117.01 524.23 1139.66 524.23 1139.66 429.35 1142.68 429.35 1142.68 366.66"/><polygon class="a" data-id="C304" points="1362.17 366.66 1142.01 366.66 1142.01 429.35 1145.7 429.35 1145.7 521.71 1168.35 521.71 1168.35 539.33 1212.4 539.33 1212.4 542.48 1214.92 542.48 1237.58 542.48 1240.09 542.48 1240.09 539.33 1259.72 539.33 1259.72 524.23 1289.17 524.23 1289.17 539.33 1358.39 539.33 1358.39 429.35 1362.17 429.35 1362.17 366.66"/><polygon class="a" data-id="C301" points="1281.37 699.16 1281.37 603.01 1258.72 603.01 1258.72 585.39 1194.53 585.39 1194.53 582.25 1192.02 582.25 1169.36 582.25 1166.84 582.25 1166.84 585.39 1166.84 600.5 1150.48 600.5 1150.48 585.39 1071.2 585.39 1071.2 710.24 1097.63 710.24 1097.63 758.07 1283.89 758.07 1283.89 699.16 1281.37 699.16"/><polygon class="a" data-id="C302" points="1410.84 699.16 1410.84 599.24 1385.67 599.24 1385.67 585.39 1329.03 585.39 1329.03 582.25 1326.52 582.25 1303.86 582.25 1301.34 582.25 1301.34 585.39 1287.5 585.39 1287.5 699.16 1285.4 699.16 1285.4 758.07 1414.86 758.07 1414.86 699.16 1410.84 699.16"/><polygon class="a" data-id="C303" points="1519.23 615.85 1519.23 495.03 1486.52 495.03 1486.52 518.94 1468.89 518.94 1468.89 492.51 1484 492.51 1484 414.48 1469.4 414.48 1469.4 366.66 1360.7 366.66 1360.7 429.35 1364.44 429.35 1364.44 550.4 1361.29 550.4 1361.29 552.92 1361.29 575.58 1361.29 578.09 1364.44 578.09 1364.44 579.35 1416.79 579.35 1416.79 699.16 1412.97 699.16 1412.97 758.07 1484.88 758.07 1484.88 699.16 1484 699.16 1484 615.85 1519.23 615.85"/><polygon class="a" data-id="C308" points="945.34 585.39 813.19 585.39 813.19 600.5 800.11 600.5 800.11 585.39 784.07 585.39 784.07 582.25 779.21 582.25 756.56 582.25 756.56 599.39 734.66 599.39 734.66 585.39 666.95 585.39 666.95 668.76 664.43 668.76 664.43 758.07 897.52 758.07 897.52 710.24 945.34 710.24 945.34 585.39"/><polygon class="a" data-id="C307" points="727.48 552.92 727.48 550.4 724.34 550.4 724.34 545.37 704.21 545.37 704.21 528.51 724.34 528.51 724.34 429.35 726.61 429.35 726.61 366.66 590.43 366.66 590.43 414.48 532.54 414.48 532.54 495.03 497.3 495.03 497.3 615.85 532.54 615.85 532.54 668.76 529.9 668.76 529.9 758.07 662.67 758.07 662.67 668.76 660.91 668.76 660.91 579.35 724.34 579.35 724.34 578.09 727.49 578.09 727.49 575.58 727.49 552.92 727.48 552.92"/><rect class="b" width="1920" height="1080"/></svg>