<svg xmlns="http://www.w3.org/2000/svg" viewBox="0 0 1920 1080"><defs><style>.a{fill:#22325d;fill-rule:evenodd;}.b{fill:none;}</style></defs><polygon class="a" data-id="B106" points="1293.94 345.54 1065.96 345.54 1065.96 394.9 1068.95 394.9 1068.95 523.77 1142.99 523.77 1142.99 508.18 1163 508.18 1163 523.77 1167.68 523.77 1167.68 527.01 1179.37 527.01 1196.26 527.01 1196.26 523.77 1270.3 523.77 1270.3 506.88 1291.09 506.88 1291.09 394.9 1293.94 394.9 1293.94 345.54"/><path class="a" data-id="B105" d="M1066.47,345.53H865.26V394.9h3.37V508.18H892v15.59h45.47V527h28.57v-3.24h16.37v-13h23.9v13h56.38V394.9h3.76Zm-99.89,60.28H953.85V394.9h12.73Z"/><polygon class="a" data-id="B104" points="865.13 345.54 638.97 345.54 638.97 394.9 641.04 394.9 641.04 523.77 714.31 523.77 714.31 508.18 732.5 508.18 732.5 510.77 745.48 510.77 745.48 523.77 745.48 527.01 750.68 527.01 774.06 527.01 774.06 523.77 841.62 523.77 841.62 506.92 862.4 506.92 862.4 394.9 865.13 394.9 865.13 345.54"/><polygon class="a" data-id="B108" points="1356.56 677.98 1356.56 571.31 1286.67 571.31 1286.67 585.6 1264.07 585.6 1264.07 568.06 1240.68 568.06 1235.49 568.06 1235.49 571.31 1219.12 571.31 1219.12 586.9 1205.61 586.9 1205.61 571.31 1069.21 571.31 1069.21 700.18 1118.57 700.18 1118.57 749.54 1360.2 749.54 1360.2 677.98 1356.56 677.98"/><polygon class="a" data-id="B107" points="1531.67 602.75 1531.67 478.04 1495.3 478.04 1495.3 394.9 1434.24 394.9 1434.24 345.54 1295.24 345.54 1295.24 402.69 1297.32 402.69 1297.32 512.59 1318.11 512.59 1318.11 530 1297.32 530 1297.32 535.2 1294.08 535.2 1294.08 537.8 1294.08 561.18 1294.08 563.78 1297.32 563.78 1297.32 565.08 1362.79 565.08 1362.79 677.98 1360.2 677.98 1360.2 749.54 1498.16 749.54 1498.16 677.98 1495.3 677.98 1495.3 602.75 1531.67 602.75"/><polygon class="a" data-id="B103" points="634.8 535.2 634.8 394.9 637.66 394.9 637.66 345.54 525.88 345.54 525.88 394.9 497.63 394.9 497.63 475.44 497.63 478.04 497.63 493.11 513.21 493.11 513.21 518.31 497.63 518.31 497.63 602.75 497.63 700.18 510.62 700.18 510.62 749.54 578.42 749.54 578.42 700.18 566.99 700.18 566.99 565.08 634.8 565.08 634.8 563.78 638.05 563.78 638.05 561.18 638.05 537.8 638.05 535.2 634.8 535.2"/><polygon class="a" data-id="B102" points="703.66 687.1 703.66 571.31 686.25 571.31 686.25 568.06 683.65 568.06 660.27 568.06 657.67 568.06 657.67 571.31 599.21 571.31 599.21 585.6 573.23 585.6 573.23 700.18 578.41 700.18 578.41 749.54 707 749.54 707 687.1 703.66 687.1"/><polygon class="a" data-id="B101" points="939.3 571.31 857.46 571.31 857.46 586.9 841.35 586.9 841.35 571.31 834.6 571.31 834.6 568.06 821.61 568.06 806.02 568.06 806.02 571.31 730.67 571.31 730.67 588.25 709.89 588.25 709.89 589.5 709.89 679.72 707.17 679.72 707.17 749.54 912.8 749.54 912.8 700.18 939.3 700.18 939.3 571.31"/><rect class="b" width="1920" height="1080"/></svg>